<svg xmlns="http://www.w3.org/2000/svg" xmlns:xlink="http://www.w3.org/1999/xlink" version="1.1" x="0px" y="0px" width="450px" height="450px" viewBox="0 0 450 450" style="enable-background:new 0 0 450 450;" xml:space="preserve"> <g id="agrupacions"> 	<g id="Copia_de_comarques_x005F_joan_x005F_2"> 		<a> 			<path style="fill-rule:evenodd;clip-rule:evenodd;fill:#BFBFBF;stroke:#696969;stroke-width:2;stroke-miterlimit:10;" d="     M175.8,67.8c-3.6,4.5-5.9,10.3-5.7,15.8c-11.7-5-18.5-16.9-32.3-17.6c-4.5-0.2-5.6,1.9-6.3,4.7c-1.3,4.6-0.1,11.5-0.8,16     c-1.2,7.5-2.7,11.7-0.5,19.3c2.5,8.9,5.8,25.1,4.1,34.5c-1.3,7.2-4.5,11.7-6,18.9c-1.8,8.3,4.4,5,4.6,17.1     c0.1,7.7,0.6,12.2,0.4,14.9c-0.2,2.6-2.3,1.3-8.9,2.5c-4.2,0.8-9.9,4.1-19.3,5.4c-2.1,0.3,2.9-2.3,0.8-3.1c-3.9-1.4-9-1-13.1-3.3     c-4.2-2.3-7.3-7.2-8.8-9.6c-3.9-6.3-6.7-15.9-12-22.4c-3.7-4.5-8.7-6.8-14-9.1c-4.7-2.1-10-5-11.1,1.3     c-1.7,9.6-4.1,16.9-9.1,25.4c-3-1.1-4-5.2-7.2-6.1c-3.3-0.9-4.5,7.5-6.2,9.1c-3.7-6,0.2-18.5-4.3-18.9c-2.9-0.3-9.3-1-14.3-2.3     c-3.9-1-7.7-2-4.2-5.7c7.1-7.8,4-20-2.7-26.9c-3.4-3.5-9.1-4.4-12-8.2c-4.5-6-1.4-15.8-1.4-22.6c0,7,0,14,0,20.9     c0-6.5,0-15.2,0-20.9c0,7,0,14,0,20.9c0-6.5,0-15.2,0-20.9c0,7,0,14,0,20.9c0-47.6,0,0,0,0c0-47.6,0-95.3,0-143     c119.3,0,238.6,0,358,0c-2.8,4.8-5.3,11.9-5.7,17.5c6-0.3,23.6-9.2,21.9,3.7C357.8,9.6,352.7,14.3,344,18     c-3.5,1.5-6.4,4.8-11.7,5.3c-3.7,0.3-21-4.1-22.5-2.4c-3.1,3.4-0.6,10.4-1.4,14.6c-1,5.5-3.2,13.2-10.1,10.7     c-5.2-1.9-2.4-10.3-1.5-13.4c-10.1,1.7-11.1-12.9-15.7-18.4c-8.7-10.4-22.4,5.1-28.9,9.6c-5.8,4-21.7,20.7-26.3,17.4     c-17-12.1-24.8-2.3-27.2,4.8c-2.9,8.5-2.8,8.3,1,12.7c5,5.7,8.2,10.4,4.7,11.8c-9.6,3.8-19.2-0.4-23.1-7.8     C179.2,64.1,177.4,65.8,175.8,67.8"/> 		</a> 		 			<path style="fill-rule:evenodd;clip-rule:evenodd;fill:#FFFBF0;stroke:#B2B2B2;stroke-width:2;stroke-linejoin:arcs;stroke-miterlimit:3.8637;" d="    M151.9,39.2c-0.5,5.2-2.3,20.1,4.4,22.3c-0.9-6,5.2-4.1,8.6-6.1c2.8-1.6,1.9-11.2,6.8-6.3C175.1,32.1,152.8,29.5,151.9,39.2z"/> 		<a> 			<path style="fill:#BFBFBF;stroke:#696969;stroke-width:2;stroke-miterlimit:10;" d="M423.1,466.3c-2.5-7.3-19.1-13.8-21.4-21.2     c-1.1-3.5-3.7-7-5.4-9.4c-2.5-3.6-5.6-8.1-9.2-11.9c-8.8-9.4-26.7-21.1-20-36.5c4.3-10,9.4-13.7,15.5-14     c5.3-0.3,11.5,2.2,18.5,2.7c16.2,1,23-15.3,25.8-29c0.5,0.4-3.7-8.1-3.2-7.7c-6.5-15.1-10.3-17.5-15.6-33.2     c-3.5-10.2-2.6-11.1-10.7-17.7l-6.1-4.7l-4.4,1.7c1.7,16.5-9.1,27.6-20.8,38.3c-12.5,11.4-18.6,25.8-2.2,36.5     c-12.2,2.5-25.1,1.4-33.4-8.9c1,1.9,0.8,3.6-0.6,5.2c-3.1-4.2-11.5,1.7-19,5.5c-3.9,2-7.8,2.9-10.3,3c-7.2,0.4-1.7-15.5-1.7-15.5     c-11-1.6-10.3,7-10.3,15.3c0,7.5-0.8,14.8-8.4,13.8c0.9,0.9,1.8,1.9,2.6,2.8c-9.1,2.3-13.4,10.5-19.8,16.9     c-3.6,3.5-8.4,6.4-13.5,7.7c3.1,17.6-16.3,25.5-35.8,31.3c-9.2,2.8-18.5,0.7-20.8,1.5c-6.3,2.1-13.5,5.3-20,6.4     c0.5-2,0.4-3.6-1.3-6.8c-1.5-2.9-7.4-4.6-9.8-7.3c-3.5-3.9-4.5-9.7-7.4-10.3c-4-0.7-5.5,0-6.9,1.3c-1.9,1.7-2.5,4.2-0.3,12.3     c3,11.2,5.2,19.8,4.1,30.3c57.1,0,114.5,1.6,171.5-0.1c14.9-0.5,29.7-1,44.6-1.2c3.4-0.1,32.4-2.6,33.8,1.4     c-0.3-0.9-0.6-1.8-0.9-2.7c2.3,6.6-0.2-0.6-0.1-0.4c1.4,4,1.4,4,0,0c0.4,1,0.7,2,1.1,3.1C398.4,457.6,423.1,466.3,423.1,466.3z"/> 		</a> 		<a> 			<path style="fill-rule:evenodd;clip-rule:evenodd;fill:#BFBFBF;stroke:#696969;stroke-width:2;stroke-miterlimit:10;" d="     M343.3-25c18.1,0,36.3,0.6,54.4,0.4c18.5-0.2,37-3.8,55.6-3c10.3,0.4,17.5,4.7,18.1,15.8c0.9,18.9-1.4,37.9-2,56.7     c-2.4,76.1-1.2,153,0.3,229.2c0.3,14.3,4,30.3-5,42.5c-3.4,4.6-1,9.4-3.9,13.5c-3,4.3-6.8,4.4-10.8,7.7c-3.8,3.2-8.8,8.1-13.8,9     c-3,0.5-6.6,3.1-8.9-0.7c-6.7-11.4-14.1-25.9-18.6-38.4c-1.9-5.3-2.8-10.8-6.6-15.1c-2.7-3.1-12-6.6-12.4-10.4     c-1.7-15.5-14-4.5-19.8-0.4c-14.3,10-11-10.9-21.5-9.9c-9,0.8-10.3,11-17.4,14.8c-2.2-2.9-0.9-7.3-2.6-10.4     c-0.9-1.7-1.2-6.5-1.3-12.3c0-5.5,0-11.9,2.1-14.9c4.7-6.9,6.8-11.8,8.1-18.8c1.9-9.8,9.5-12.7,17.4-16.6     c-3.8-15.4-2.2-28.2,3.6-35.6c3.5-4.5,7.5-7.4,16-6.2c-2.3-2.9-15.4-40-10.8-49.6c-5.2-1.2-49-4.7-50.8-3.7     c0.7-11,4.3-36.7,5-46.7c1.5-21.8,1-30.1,10.6-44.5c5.2-7.8,13.8-6.8,19.8-11.2c6.4-4.7,8.3-8.4,10.9-15.4     c8.5-23.4-11.5-8.7-21.5-8.1c1.2-17,8.5-17.5,22.4-17.5C354.5-25,348.9-25,343.3-25c1.7,0,9.8,0,10.2,0     C350.1-25,346.7-25,343.3-25c3.4,0,8.4,0,11.4,0C350.9-25,347.1-25,343.3-25C363.5-25,343.3-25,343.3-25z"/> 		</a> 		<a> 			<path style="fill-rule:evenodd;clip-rule:evenodd;fill:#BFBFBF;stroke:#696969;stroke-width:2;stroke-miterlimit:10;" d="     M151.7,466.9c-55.4,0-110.9,0-166.3,0c0-116.3,0-232.7,0-349c-0.5,6.2,14.5,7,16.9,12.1c4.4,9.3,6.7,20.1-3.7,27.2     c2.2,4,22,4.8,23.9,5.2c0,0-1.6,13.5,1.9,19.2c2.4-2.4,0.7-9.1,4.9-9.9c4.2-0.8,5.2,5.6,8.5,6.8c5.3-9,6.3-15.9,9.8-29.6     c0.7-2.7,6.1,4.6,11.4,12.1c4.1,5.9,8.3,11.7,8.5,15.5c0.2,3.6,4.3,8.2,6.3,11c2.5,3.4,1.1,4.2,1.1,6c0,0.8,0.2,2.3,0.3,3.8     c0.1,2.8,1.7,3.9,3.4,6.3c3.2,4.5,6,10.5-0.8,15.6c-8.4,6.4-0.6,10.7,7.9,14.4c5.4,2.4,10.8,3.8,13.2,7.7     c-1.1-1.8,1.6-6.8,2.7-12.8c1.6-9.4,1.3-20.3-6.7-17.1c2.9-11.2,16.1-11.7,24.9-15.5c16.5-7.2,16.8,7.6,31.7,9.4     c5.7,0.7,8.2,6.1,10.5,9.3c3.4,4.7,5.5,8.1,8.5,12.7c2.4,3.5,8.5,8.3,13.5,8c3.7-0.2-7.8,5.9-13.3,12.1     c-5.4,6.1-15.5,6.9-17.9,15.5c9.3-0.9,17.9,3,16.8,14.8c-0.4,4.5-5.2,23.7-4.6,30c0.6,6-8.2,19.8-10.2,24.5     c-3.3,7.6,10.1,6.5,12.3,6.8c23.5,3.1,3.4,20-14.4,26.5c-11.2,4.1-28.2,6.2-32.8,18.2c-3.9,10.1,8.3,18.4,6.7,28.6     c2.1-1.7,5.6-10.3,8.7-4.5c2.9,5.4,0.4,12.9-0.3,18.6C152.2,418,150,458.7,151.7,466.9c-8.2,0-16.4,0-24.6,0     C135.3,466.9,143.5,466.9,151.7,466.9c-8.2,0-16.4,0-24.6,0C135.3,466.9,143.5,466.9,151.7,466.9c-8.2,0-16.4,0-24.6,0     C135.3,466.9,143.5,466.9,151.7,466.9C96.3,466.9,151.7,466.9,151.7,466.9z"/> 		</a> 		<a> 			<path style="fill:#BFBFBF;stroke:#696969;stroke-width:2;stroke-miterlimit:10;" d="M427.2,347c-2.5,9.8-7.5,23.4-17.5,27.8     c-12,5.3-25.1-8.3-36,2.7c-22.7,23,7.5,37.1,19.7,53.8c7.8,10.6,8,20.9,23.8,21.2c9,0.2,28.5,8.1,36.1,2.6     c9.6-7-0.3-45.2-0.7-55.5c-0.7-20.8-1.4-41.7-1.4-62.5c-6.8,6.1-14.5,10.5-23.6,12.2"/> 		</a> 		<a> 			<path style="display:none;fill-rule:evenodd;clip-rule:evenodd;fill:none;" d="M356.8,2.4c-3.7,6.9-3,17.5-10,22.5     c-5.2,3.7-19.8-2.8-25.6-3.5c-15.4-1.9-11.5,6.1-14.7,18c-0.6,2.4-7.2,10.8-9.9,6.3c-2.1-3.5,0.2-9.6,1.1-13.2     c-9.1,2.4-10.1-12.4-12.5-17.8c-5.7-12.9-19.2,0.4-24.2,6.4c-8.5,10-16.9,12.3-28.3,17.9c-9.9,4.9-15.3-13.9-21,1.6     c-0.1-2.6-0.3-5.2-0.4-7.8c-6.7,0.9-9.2,12.2-10.3,17.5c-2.5,11.8,11.2,9.9,11.4,13c0.3,5.9-9.1,11.6-14.1,12.1     c-8.2,0.8-13.4-6.3-16.4-12.9c-6.2,3.6-19.2-5.7-14.3-12.5c2.9-4,7.1-2.7,7.7-9.1c0.6-7-3.6-7.3-9.4-7.4     c-8.2-0.2-13.4,0.8-15.3,10.2c-1.1,5.6-0.6,16,6.5,17.7c-1.9-6.9,9.4-7.7,12.7-3.9c7.8,9,0.5,16,0.7,25.9     c-3.8-3-46.8-33.9-41.5-11.3c0.9,3.7,3.7,6.5,3.3,10.6c-0.4,4.2-3,7.8-3.2,12.1c-0.4,9.9,3.3,19.4,4.9,29.1     c1.6,9.3-2.1,16.9-1.8,25.8c0.2,3.9-4.3,5.8-4.4,9.8c-0.1,3.2,1.9,6.2,3.2,8.9c9.6,20.3-8.2,28.9-25.5,27.2     c-16.8-1.7-19.9-10.9-28.4-24.6c-4.6-7.4-26.2-31.2-29.7-20.4c-1.8,5.6-0.9,35.8-14.7,26.2c-5.4-3.8-6.3-11.3-11.7-14.9     c-5.6-3.7-14.3-4.8-20.6-2.5c-1.3-6.9,8.9-8.1,9-14.6c0.1-7.7-7.3-13.2-9.6-20.2C-7.4,104,1,76-0.2,54.3     C-0.9,40.6-9.2,10.6,5.2,1.4C17.4-6.5,41.5-0.6,54.9,0c101.4,4,203,0,304.4,0c-0.9,0.9-4.1,4.8-4.4,6     C355.3,4.7,356.1,3.5,356.8,2.4C356.7,2.4,354,7.7,356.8,2.4c-0.7,1.3-1.4,2.6-2.1,3.9C355.4,5,356.1,3.7,356.8,2.4     C353.9,8,356.8,2.4,356.8,2.4z"/> 		</a> 	</g> 	<a> 		<path style="fill:#FFFBF0;stroke:#9A9A9A;stroke-width:2;stroke-miterlimit:10;" d="M199.6,439.5c-9.3-1.7-17.5,4.2-26.4,5.8    c2.2-8.1-10.1-10.3-13.1-15.8c-1.4-2.7-2-7-5.1-8.4c-3.6-1.6-10.6,1.8-10.9,5.9c-2.4-2.5-6.1-2-8.9-0.6c0.6-5.3,3-14.2-0.7-19    c-2.2-2.9-6.5,3.8-7.7,4.9c1.4-9.2-7.9-15.6-7.6-24.6c0.2-10.1,11.8-14.6,19.6-17.9c9.5-4,20.3-6.1,29.1-11.7    c7.9-5,14-15.7,1-18.3c-3.5-0.7-13.1,0.2-14.7-4c-2.7-7,12.7-19.2,10.1-29.4c-3.2-12.6,21.4-43.8-12.8-43.3    c2.4-8.8,13.1-11.7,19.6-16.6c6.6-5,15.2-12.7,12.1-11.7c-5.9,2-10.2-4.7-13-8.7c-6-8.4-15.8-19.1-12.1-20.4    c10.7-3.8,21.6-18.7,33.5-10.9c12.6,8.3,24.8,3.1,38.5,5.4c10.9,1.8,20.9,20.9,22.8,27.4c2,6.7,13.4-9.8,15.8-10.6    c42.9-15.7,75.5-5.4,81.2-0.3c-16.1,7-8,20.7-19.3,31c-6.2,5.7-1.3,35.9,0.9,38.8c5.2-2.7,14.2-21.3,21.5-14.5    c4,3.7,5.1,15.4,12.7,12.3c10.4-4.2,22.5-22,25.8-0.4c-7.5,0.6-4,7.7-5.5,13.3c-2.5,9.3-8.8,16.9-16,23c-13,10.9-24.7,27.6-5.6,40    c-12.2,2.5-25.1,1.4-33.4-8.9c-0.2,1.7-0.4,3.5-0.6,5.2c-2.6-6.4-21.3,8.6-28.1,9c-8.6,0.6-4.4-10.9-3.3-15.5    c-18.4-6-2,30.7-18.3,28.6c0.9,0.9,1.8,1.9,2.6,2.8c-13.8,3.6-19.1,23.2-34.1,23.8C257.4,428.4,206.8,440.8,199.6,439.5z"/> 	</a> 	<path style="fill:#FFFBF0;stroke:#9A9A9A;stroke-width:2;stroke-miterlimit:10;" d="M98.7,241.2c-8.3-10.1-21.8-4.6-25.2-20.1   c5.5-0.5,8.7-7.1,7.7-12.1c-1.5-7.7-8.2-8.2-6.6-17.1c0.9-5-6.7-8.8-7.3-14c-1.3-10.7-11.8-18.6-16.3-28.5   c30.4,6.1,26.1,32.8,41.4,43.2c2.4,1.6,16.4,1,13.5,5.9c-2.7,4.4-10,7.8-11.3,12.8c2-0.8,2-0.8,0,0c2-0.8,2-0.8,0,0   c2-0.8,2-0.8,0,0C108.4,205.8,100,236.2,98.7,241.2z"/> 	<path style="fill:#FFFBF0;stroke:#9A9A9A;stroke-width:2;stroke-miterlimit:10;" d="M171.8,49.1c-4.9-4.9-3.2,4-5.7,5.9   c-3.4,2.6-10.6-0.1-9.7,6.5c-7.2-2.4-6.3-18.4-4.4-23.8c0.9-2.6,5.7-6.1,10.2-5.8C173.5,32.9,173.6,44.8,171.8,49.1z"/> 	<path style="fill:#FFFBF0;stroke:#9A9A9A;stroke-width:2;stroke-miterlimit:10;" d="M199.1,59c-7.7-5.9,5.9-38.1,26.8-17.6   c5.6,5.5,44.5-39.7,54-30c5.3,5.4,6.6,23.2,17,21.4c-5.3,18.2,8.9,17.6,11.8,2.1c0.6-3.1-2.3-13.1,2.1-14.2   c5.6-1.4,20.9,1.1,20.6,2.4c-2.2,7.6-11.2,21.3-10.9,29.2c0.2,3.8-7.2,61.1-7.6,66.2c2.1-0.6,45.4,2.5,50.8,3.7   c-4.7,9.9,8.6,46.8,10.8,49.6c-11.7-1.6-19.5,7.8-21.2,18.5c-0.9,5.6,6,22.5,1,25.5c-4.7,2.8-41.5-19-87.7,3.3   c-1.9,0.9-11,14.9-13.3,10.5c-2.8-5.4-15.3-24.7-19.6-27.3c-9.4-5.7-23.4,2-34-2.2c-10.5-4.2-13.4-11.9-24.1-3.6   c-8.2,6.4-13.9,11.4-25,9.2c-11.9-2.4-18.6-10.7-17.7-22.7c0.5-7.2-0.5-11.5-3.8-17.9c-3.6-6.9,1.3-10.5,3.8-16.8   c4.4-11.2,0.6-25.5-0.9-37c-0.8-5.5-4.2-10.2-3-15.9c1.1-5.2,2.8-9.5,2.2-14.9c-3.6-32.8,27.3-1.7,39.1,3.3   c-0.4-7.9,4.5-16.5,11.1-20.8C189.3,78.2,218.4,73.8,199.1,59z"/> </g> <g id="AH_Join"> 	<a> 		<path style="fill-rule:evenodd;clip-rule:evenodd;fill:none;" d="M128.4,156.8l3.6-7.1l1.9-6.7l0.9-11.6l-1.5-9.1l-1.1-8l-1.1-7.4    l-3-8.3l1.3-5.1l1.9-6.6l0.4-7.8l-0.8-4.5l1.6-6.4l3-2.5l6,0.3l9.3,5.1l3.8-11l-2.6-5.5l-1.4-9.3c0,0,1.6-8.3,1.8-8.4    s4.2-4.1,4.9-4.3s7.8-0.8,8.4-0.5s4.8,2.4,5.3,3.7s1.3,3.7,1.5,4.7s1.5,2.9,0.6,5.1s-0.5,3-1.9,2.9s-2.8-0.1-2.9,1.1    s0.5,2.2-0.9,3.4s-1.2,2.4-3.2,2.9s-6.9,0.6-7.5,2.2s-2.1,2-2.1,2l-3.8,11l18.4,12.1l1.9-7.1l5.1-9.5l4.8-3.4l4.3,5.1l6.8,3.1    c0,0,5.5,0.6,6,0.6s5.9-1,5.9-1l2-3l-1.1-4.4l-3.6-3.4l-3.5-2.8l-0.8-4.9l2.1-7.8l6.4-8.3l5.5-2.3l8.9,1.8l5,3.8    c0,0,1.9,1.8,2.5,1.8s4.4-1.4,4.8-1.6s7.6-6.4,8-6.5s8.9-6.6,9.3-7s9-7.1,9-7.1l8.9-6.4l6.4-2.5l5.1,0.3l3.3,2.6    c0,0,1.5,2.9,1.9,3.8s4,9.8,4,9.8s2,3.1,2.1,3.5s3.3,2,3.3,2l3.1,0.1l-0.4,5l-0.1,3.6l1.1,4.1c0,0,1.9,1.1,2.5,1.1    s4.4-1.9,4.4-1.9s3.5-4.1,3.6-4.5s1.4-6,1.4-6l-0.3-6.9l-0.1-4.6l4.3-2.8l5.1,0.3c0,0,6,0.6,6.4,0.8s4.6,0.9,4.6,0.9l2.1,1.8    l3.5-1.5l4.3-1.6l9.3-4.1l4.3-3.2l3.2-4l2.7-5.3l1.6-3.8H0v127.7l2.2,2.4l2.3,4.9l1.2,6c0,0,0.5,6.5,0.2,7s-2.3,5.2-2.3,5.2    L0,156.7l1.5,2.7l21,3l-0.3,9.4l0.6,5.3l1.4,3.3l1.6-2.6l1.2-4.1c0,0,1.6-2.2,1.9-2.1s3.1,0.1,3.1,0.1l2.1,2.7l1.8,2.5l1.2,0.9    l1.7-1.5l1.9-3.6l2.7-6.5l2.3-7.8l2.3-9.8l4.8,1.1l6.1,2.1l6.2,3l4.6,3.3l5.3,6.9l3.2,5.4l4.3,8.8l3.5,6l3.5,4.9    c0,0,3.8,2.5,4.1,2.8s3.8,1.1,4.5,1.3s4.9,0.8,4.9,0.8l3.1,1.4l0.1,2.4l5.2-0.4l7-1.8c0,0,5.4-2,5.9-2s9-1.1,9-1.1h1.4l-1.5-4.3    v-4.6l-0.3-5.8c0,0-0.6-5-0.6-5.4s-2.1-6.1-2.5-6.9s-2.1-5.1-2.1-5.1L128.4,156.8z"/> 	</a> 	<a> 		<path style="fill-rule:evenodd;clip-rule:evenodd;fill:none;" d="M162.4,56.5l-3.6,0.6l-2.4,2.4l0,2l-3.6-3.2L148.9,70l9.4,6.5    l3.5,2l4.3,3.4l4.2,1.7l0.1-5l1.8-5.1l3.4-6l5.5-4.3l0.9,1.4l3.4,3.8l4.4,2.4l8.8,2.1c0,0,3.1-0.7,3.3-0.8s3.5-2.2,3.5-2.2    l0.4-3.9l-2.1-3.8l-4.5-3.4l-1.9-2.3c0,0-0.4-3.6-0.4-3.9s0.8-4.2,1-4.8s1.3-4.1,1.7-4.6s4.2-4.7,4.2-4.7s3.9-2.9,4.1-2.9    s4-1,4.5-1s3.7,0.3,4.2,0.5s4.4,2.1,4.7,2.4s3.7,2.8,4,3s2.4,0.8,3,0.8s2.6-0.8,3.3-1.1s2.9-2.3,3.8-2.9s4.8-3.8,5.5-4.3    s3.7-2.9,3.7-2.9l5.4-4.3c0,0,12.8-9.5,13.1-9.7s3.3-2.1,3.8-2.3s4.7-2.9,5.4-3.2s3.9-0.8,3.9-0.8l3.7,0.8c0,0,2.1,2.9,2.4,3.6    s3.8,9.6,3.8,9.6s2.2,3.8,2.5,4.1s2.6,3.1,2.6,3.1l3.1,1.6l3.4-0.2l-1.9,4.1c0,0,0.4,6,0.4,6.3s1.1,2.2,1.4,2.3s2.4,1.2,2.8,1.2    s3.1-1.1,3.1-1.1l2.5-3.3l1.9-4l1-4.4l0.1-5l-0.4-3.4c0,0,0.4-2.6,0.4-2.8s1.5-2.2,1.7-2.2s11.4,0.3,11.4,0.3l7.9,1.3l1.6,1    l-6.8,15.4l-2.1,5.6l-1.8,5.7l-7.9,68.5l5.3,0.4l9.3,0.5l9.6,0.3l7.7,0.4l11.3,1.3l6.7,0.4l0.5,1.6l-0.4,9.6l2.6,13.8l3.4,10.7    l2,5.1l2,6.3l1.7,3.2l-5.7-0.1l-5.1,2.3l-6.2,5l-2.3,5.2l-2,4.8l0.1,5.6l1.3,5.8l1,6.2l0.3,6.5l-1.7,2.9c0,0-2.5,0-2.8,0    s-3.9-0.7-3.9-0.7l-5.7-1.8l-9.2-2.1l-8-1.7l-14.1-1l-7.1,0.7l-12.3,1.5l-6.6,1.9l-12.3,3.5l-5.1,2.4l-2.8,3l-5.7,6l-3.9,2.5    l-1.6-0.6l-2.4-4.4l-4.1-6.3l-3.7-5.8l-5.1-6.3l-4.8-4.8l-5.1-1.9l-5.8,0.1l-7.8,0.7l-4.9,0.1l-3.8,0.3l-4.3-0.8l-5.8-2.5    l-5.1-3.2l-6.6-1.8l-2.7,0.2c0,0-3.6,2-4,2.3s-4.3,3.8-4.8,3.9s-4.8,2.8-4.8,2.8l-6.4,3l-5.3,0.5l-7.7-0.6l-4.3-1.6l-5.3-3.3    l-4.5-7l-28.3,5.8l-2.8,2.6l-5.2,4.8l-2.5,2.8l-1,2.1l3.2-0.4l2.8,1.1c0,0,1.6,2.4,1.6,2.7s0.4,3.8,0.4,3.8l-0.8,8.6l-1.9,8.6    L99,241l-2.8-2.4l-4.8-2.3l-4.9-2.6l-5.1-1.8l-2.3-1.7c0,0-3-2.8-3.2-3.1s-2.1-3.9-2.1-3.9l-0.3-2.2l4.4-1.8l2.7-4.6l0.8-3.1    l-0.6-5.2l-2-3l-3.3-4.6c0,0-0.9-2.9-0.9-3.5s0.1-3,0.1-3.5s-0.4-3.9-0.4-3.9l-3.9-4.2l-2.2-3.3c0,0-1.3-3-1.3-3.3s-0.1-2.7-0.2-3    s-1.1-2.7-1.3-3.4s-2.1-3.8-2.4-4.4s-2.8-3.2-2.8-3.2l-6.3-8.3l-2.5-5l5,0.7c0,0,5.1,1.8,5.5,1.9s4.3,2.4,4.7,2.8s2.8,2.3,3,2.6    s2.8,2.6,2.9,2.8s2.3,2.8,2.6,3.3s2.4,4.9,2.8,5.7s3,5.9,3.1,6.2s2.1,3.9,2.3,4.6s2.8,4.8,3,5.1s2.8,3.9,3.7,4.6s2.7,2.1,3.3,2.6    s3.9,1,5,1.2s6.2,1.3,6.4,1.5s1.3,3.6,1.3,3.6l28.3-5.8l-1.6-5.3c0,0,0-3.8,0-4s-0.3-4.9-0.1-5.4s0.5-3.8,0-5.1s-3.3-6.5-3.3-6.8    s-1.1-3.7-1.2-4S128,158,128,158l2.8-5.4l3.4-7.8l0.4-5.8l0.3-8.8l-2.2-15l-2.8-9.7l-1.3-5.3l0.7-5.2l1.4-6.5l0.4-6.8    c0,0-0.2-4.3-0.2-5s1.2-8.3,1.2-8.3l2.5-2.6c0,0,3.2-0.9,3.8-0.8s5.7,2.8,6.1,2.8s4.4,2.1,4.4,2.1l3.9-11.6l-1.7-7.7l-0.3-5.7    l1.1-7.8l2.8-3.7c0,0,5.6-1.7,6.6-1.8s5.1,0.6,5.8,0.9s4.2,4.7,4.2,4.7l1.5,5.3l-0.1,4.7l-1,1.2l-2.5-1.1c0,0-0.5,1.7-0.9,2.1    s-0.9,4.1-0.9,4.1l-1.1,1.3L162.4,56.5z"/> 	</a> </g> <g id="Text_x005F_exterior"> 	<g> 		<path d="M-867.9,312.9h-11.5V297h4.1v12.8h7.4V312.9z"/> 		<path d="M-858.4,311.6c-0.2,0.2-0.5,0.3-0.8,0.6c-0.3,0.2-0.6,0.4-0.9,0.5c-0.4,0.2-0.8,0.3-1.2,0.4c-0.4,0.1-0.8,0.1-1.3,0.1    c-1.1,0-2.1-0.4-2.9-1.1s-1.2-1.6-1.2-2.7c0-0.9,0.2-1.6,0.6-2.1s0.9-1,1.7-1.3c0.7-0.3,1.6-0.5,2.6-0.7s2.1-0.2,3.3-0.3v-0.1    c0-0.7-0.3-1.1-0.8-1.4c-0.5-0.3-1.3-0.4-2.4-0.4c-0.6,0-1.3,0.1-2,0.3c-0.7,0.2-1.2,0.4-1.5,0.5h-0.4v-2.9c0.4-0.1,1.1-0.2,2-0.4    c0.9-0.1,1.8-0.2,2.7-0.2c2.2,0,3.8,0.3,4.7,1s1.5,1.7,1.5,3.2v8.1h-3.8V311.6z M-858.4,309.7v-2.5c-0.5,0-1.1,0.1-1.7,0.2    s-1.1,0.2-1.4,0.3c-0.4,0.1-0.7,0.3-0.9,0.5s-0.3,0.5-0.3,0.9c0,0.2,0,0.5,0.1,0.6c0,0.2,0.1,0.3,0.3,0.4c0.2,0.1,0.4,0.2,0.6,0.3    s0.6,0.1,1.1,0.1c0.4,0,0.8-0.1,1.2-0.2C-859.1,310.2-858.7,310-858.4,309.7z"/> 		<path d="M-826.7,312.9h-4.1v-10.6l-2.9,6.9h-2.8l-2.9-6.9v10.6h-3.9V297h4.8l3.6,8l3.6-8h4.8V312.9z"/> 		<path d="M-815.7,311.6c-0.2,0.2-0.5,0.3-0.8,0.6c-0.3,0.2-0.6,0.4-0.9,0.5c-0.4,0.2-0.8,0.3-1.2,0.4c-0.4,0.1-0.9,0.1-1.3,0.1    c-1.1,0-2.1-0.4-2.9-1.1s-1.2-1.6-1.2-2.7c0-0.9,0.2-1.6,0.6-2.1s0.9-1,1.7-1.3c0.7-0.3,1.6-0.5,2.6-0.7c1.1-0.1,2.1-0.2,3.3-0.3    v-0.1c0-0.7-0.3-1.1-0.8-1.4c-0.5-0.3-1.3-0.4-2.4-0.4c-0.6,0-1.3,0.1-2,0.3c-0.7,0.2-1.2,0.4-1.5,0.5h-0.4v-2.9    c0.4-0.1,1.1-0.2,2-0.4c0.9-0.1,1.8-0.2,2.7-0.2c2.2,0,3.8,0.3,4.7,1c1,0.7,1.5,1.7,1.5,3.2v8.1h-3.8V311.6z M-815.7,309.7v-2.5    c-0.5,0-1.1,0.1-1.7,0.2s-1.1,0.2-1.4,0.3c-0.4,0.1-0.7,0.3-0.9,0.5c-0.2,0.2-0.3,0.5-0.3,0.9c0,0.2,0,0.5,0.1,0.6    c0,0.2,0.1,0.3,0.3,0.4c0.2,0.1,0.4,0.2,0.6,0.3c0.2,0.1,0.6,0.1,1.1,0.1c0.4,0,0.8-0.1,1.2-0.2    C-816.3,310.2-815.9,310-815.7,309.7z"/> 		<path d="M-799.6,304.5h-0.3c-0.2-0.1-0.4-0.1-0.8-0.1c-0.4,0-0.7,0-0.9,0c-0.5,0-1,0-1.4,0.1c-0.4,0.1-0.9,0.2-1.4,0.4v8h-3.9v-12    h3.9v1.8c0.8-0.7,1.6-1.2,2.2-1.4c0.6-0.2,1.2-0.4,1.7-0.4c0.1,0,0.3,0,0.5,0c0.2,0,0.3,0,0.4,0V304.5z"/> 		<path d="M-793.5,299.2h-4.1v-2.9h4.1V299.2z M-793.6,312.9h-3.9v-12h3.9V312.9z"/> 		<path d="M-778,312.9l-3.9,0v-5.9c0-0.5,0-1-0.1-1.4c0-0.5-0.1-0.8-0.3-1.1c-0.1-0.3-0.4-0.5-0.6-0.6c-0.3-0.1-0.7-0.2-1.1-0.2    c-0.3,0-0.7,0.1-1.1,0.2c-0.4,0.1-0.7,0.3-1.2,0.5v8.5h-3.9v-12h3.9v1.3c0.7-0.5,1.3-0.9,2-1.2c0.6-0.3,1.3-0.4,2.1-0.4    c1.3,0,2.3,0.4,3,1.1c0.7,0.8,1.1,1.9,1.1,3.4V312.9z"/> 		<path d="M-767.2,311.6c-0.2,0.2-0.5,0.3-0.8,0.6s-0.6,0.4-0.9,0.5c-0.4,0.2-0.8,0.3-1.2,0.4c-0.4,0.1-0.9,0.1-1.3,0.1    c-1.1,0-2.1-0.4-2.9-1.1c-0.8-0.7-1.2-1.6-1.2-2.7c0-0.9,0.2-1.6,0.6-2.1c0.4-0.6,0.9-1,1.7-1.3c0.7-0.3,1.6-0.5,2.6-0.7    c1.1-0.1,2.1-0.2,3.3-0.3v-0.1c0-0.7-0.3-1.1-0.8-1.4c-0.5-0.3-1.3-0.4-2.4-0.4c-0.6,0-1.3,0.1-2,0.3c-0.7,0.2-1.2,0.4-1.5,0.5    h-0.4v-2.9c0.4-0.1,1.1-0.2,2-0.4c0.9-0.1,1.8-0.2,2.7-0.2c2.2,0,3.8,0.3,4.7,1s1.5,1.7,1.5,3.2v8.1h-3.8V311.6z M-767.2,309.7    v-2.5c-0.5,0-1.1,0.1-1.7,0.2c-0.6,0.1-1.1,0.2-1.4,0.3c-0.4,0.1-0.7,0.3-0.9,0.5c-0.2,0.2-0.3,0.5-0.3,0.9c0,0.2,0,0.5,0.1,0.6    c0,0.2,0.1,0.3,0.3,0.4c0.2,0.1,0.4,0.2,0.6,0.3s0.6,0.1,1.1,0.1c0.4,0,0.8-0.1,1.2-0.2S-767.5,310-767.2,309.7z"/> 		<path d="M-839.9,332c0,0.8-0.2,1.5-0.5,2.1c-0.3,0.6-0.7,1.1-1.3,1.5c-0.6,0.5-1.3,0.8-2.1,1c-0.8,0.2-1.7,0.3-2.9,0.3l-6.9,0V321    h6.2c1.3,0,2.2,0,2.8,0.1c0.6,0.1,1.2,0.3,1.8,0.6c0.6,0.3,1.1,0.7,1.3,1.2c0.3,0.5,0.4,1.1,0.4,1.8c0,0.8-0.2,1.4-0.6,2    c-0.4,0.6-1,1-1.7,1.4v0.1c1,0.2,1.9,0.6,2.5,1.3C-840.2,330.1-839.9,331-839.9,332z M-845.1,325.5c0-0.3-0.1-0.5-0.2-0.8    c-0.1-0.3-0.4-0.5-0.7-0.6c-0.3-0.1-0.7-0.2-1.1-0.2c-0.4,0-1.1,0-1.9,0h-0.4v3.4h0.6c0.6,0,1.2,0,1.7,0s0.8-0.1,1.1-0.2    c0.4-0.2,0.6-0.4,0.7-0.6C-845.2,326.2-845.1,325.9-845.1,325.5z M-844.1,332c0-0.5-0.1-0.9-0.3-1.2c-0.2-0.3-0.5-0.5-1-0.6    c-0.3-0.1-0.8-0.1-1.3-0.1s-1.1,0-1.8,0h-0.9v4h0.3c1.1,0,2,0,2.5,0s1-0.1,1.4-0.3c0.4-0.2,0.7-0.4,0.9-0.7    S-844.1,332.4-844.1,332z"/> 		<path d="M-829.8,335.6c-0.2,0.2-0.5,0.3-0.8,0.6s-0.6,0.4-0.9,0.5c-0.4,0.2-0.8,0.3-1.2,0.4c-0.4,0.1-0.9,0.1-1.3,0.1    c-1.1,0-2.1-0.4-2.9-1.1s-1.2-1.6-1.2-2.7c0-0.9,0.2-1.6,0.6-2.1s0.9-1,1.7-1.3c0.7-0.3,1.6-0.5,2.6-0.7c1.1-0.1,2.1-0.2,3.3-0.3    V329c0-0.7-0.3-1.1-0.8-1.4c-0.5-0.3-1.3-0.4-2.4-0.4c-0.6,0-1.3,0.1-2,0.3c-0.7,0.2-1.2,0.4-1.5,0.5h-0.4v-2.9    c0.4-0.1,1.1-0.2,2-0.4c0.9-0.1,1.8-0.2,2.7-0.2c2.2,0,3.8,0.3,4.7,1s1.5,1.7,1.5,3.2v8.1h-3.8V335.6z M-829.8,333.8v-2.5    c-0.5,0-1.1,0.1-1.7,0.2s-1.1,0.2-1.4,0.3c-0.4,0.1-0.7,0.3-0.9,0.5s-0.3,0.5-0.3,0.9c0,0.2,0,0.5,0.1,0.6c0,0.2,0.1,0.3,0.3,0.4    c0.2,0.1,0.4,0.2,0.6,0.3s0.6,0.1,1.1,0.1c0.4,0,0.8-0.1,1.2-0.2C-830.4,334.2-830.1,334-829.8,333.8z"/> 		<path d="M-818.5,323.2h-4.1v-2.9h4.1V323.2z M-818.6,336.9h-3.9v-12h3.9V336.9z"/> 		<path d="M-802.4,336.9h-4.5l-2.6-3.6l-2.6,3.6h-4.4l4.7-6l-4.6-6h4.5l2.5,3.5l2.5-3.5h4.4l-4.7,5.9L-802.4,336.9z"/> 		<path d="M-793.1,335.6c-0.2,0.2-0.5,0.3-0.8,0.6c-0.3,0.2-0.6,0.4-0.9,0.5c-0.4,0.2-0.8,0.3-1.2,0.4c-0.4,0.1-0.8,0.1-1.3,0.1    c-1.1,0-2.1-0.4-2.9-1.1c-0.8-0.7-1.2-1.6-1.2-2.7c0-0.9,0.2-1.6,0.6-2.1c0.4-0.6,0.9-1,1.7-1.3c0.7-0.3,1.6-0.5,2.6-0.7    c1.1-0.1,2.1-0.2,3.3-0.3V329c0-0.7-0.3-1.1-0.8-1.4c-0.5-0.3-1.3-0.4-2.4-0.4c-0.6,0-1.3,0.1-2,0.3c-0.7,0.2-1.2,0.4-1.5,0.5    h-0.4v-2.9c0.4-0.1,1.1-0.2,2-0.4c0.9-0.1,1.8-0.2,2.7-0.2c2.2,0,3.8,0.3,4.7,1s1.5,1.7,1.5,3.2v8.1h-3.8V335.6z M-793.1,333.8    v-2.5c-0.5,0-1.1,0.1-1.7,0.2c-0.6,0.1-1.1,0.2-1.4,0.3c-0.4,0.1-0.7,0.3-0.9,0.5c-0.2,0.2-0.3,0.5-0.3,0.9c0,0.2,0,0.4,0.1,0.6    s0.1,0.3,0.3,0.4c0.2,0.1,0.4,0.2,0.6,0.3s0.6,0.1,1.1,0.1c0.4,0,0.8-0.1,1.2-0.2C-793.7,334.2-793.4,334-793.1,333.8z"/> 	</g> 	<g> 		<rect x="67.4" y="58.6" style="fill-rule:evenodd;clip-rule:evenodd;fill:none;" width="30.2" height="11"/> 		<path d="M73.5,69.3h-5.2V62h1.9v5.9h3.4V69.3z"/> 		<path d="M80,66.9h-4c0,0.4,0.2,0.8,0.5,1s0.7,0.3,1.3,0.3c0.4,0,0.7-0.1,1.1-0.2s0.6-0.3,0.8-0.4h0.2V69c-0.4,0.2-0.8,0.3-1.1,0.3    s-0.7,0.1-1.2,0.1c-1.1,0-1.9-0.2-2.5-0.7s-0.9-1.2-0.9-2.1c0-0.9,0.3-1.6,0.8-2.2s1.3-0.8,2.3-0.8c0.9,0,1.6,0.2,2,0.7    s0.7,1.1,0.7,1.9V66.9z M78.2,65.9c0-0.4-0.1-0.6-0.3-0.8s-0.4-0.3-0.8-0.3c-0.3,0-0.6,0.1-0.8,0.3s-0.3,0.5-0.4,0.8H78.2z"/> 		<path d="M86.8,66.6c0,0.9-0.3,1.6-0.8,2.1s-1.3,0.8-2.2,0.8s-1.7-0.3-2.2-0.8s-0.8-1.2-0.8-2.1c0-0.9,0.3-1.6,0.8-2.1    s1.3-0.8,2.2-0.8c1,0,1.7,0.3,2.2,0.8S86.8,65.7,86.8,66.6z M85.5,61.1L85.5,61.1l-1.7,1.9h-1.2l1.2-1.9H85.5z M84.7,67.9    c0.1-0.1,0.2-0.3,0.3-0.5s0.1-0.5,0.1-0.8c0-0.3,0-0.6-0.1-0.8s-0.1-0.4-0.2-0.5c-0.1-0.1-0.2-0.2-0.4-0.3s-0.3-0.1-0.5-0.1    s-0.3,0-0.5,0.1s-0.3,0.1-0.4,0.3c-0.1,0.1-0.2,0.3-0.3,0.5s-0.1,0.5-0.1,0.8c0,0.3,0,0.6,0.1,0.8s0.1,0.4,0.2,0.5    c0.1,0.1,0.2,0.2,0.4,0.3s0.3,0.1,0.5,0.1c0.2,0,0.3,0,0.5-0.1S84.6,68,84.7,67.9z"/> 		<path d="M93.6,69.3h-1.8v-2.7c0-0.2,0-0.4,0-0.7s-0.1-0.4-0.1-0.5c-0.1-0.1-0.2-0.2-0.3-0.3s-0.3-0.1-0.5-0.1    c-0.2,0-0.3,0-0.5,0.1s-0.3,0.1-0.5,0.2v3.9h-1.8v-5.5h1.8v0.6c0.3-0.2,0.6-0.4,0.9-0.6c0.3-0.1,0.6-0.2,1-0.2    c0.6,0,1.1,0.2,1.4,0.5c0.3,0.3,0.5,0.9,0.5,1.5V69.3z"/> 	</g> 	<g> 		<rect x="369.9" y="83.7" style="fill-rule:evenodd;clip-rule:evenodd;fill:none;" width="57.3" height="11"/> 		<path d="M376.9,89.4c0,0.3-0.1,0.6-0.2,1s-0.3,0.6-0.5,0.8c-0.3,0.3-0.6,0.5-1,0.6c-0.4,0.1-0.8,0.2-1.3,0.2h-1.2v2.4h-1.9v-7.3    h3.1c0.5,0,0.9,0,1.2,0.1c0.3,0.1,0.6,0.2,0.8,0.4c0.3,0.2,0.5,0.4,0.7,0.7C376.8,88.7,376.9,89,376.9,89.4z M374.9,89.5    c0-0.2-0.1-0.4-0.2-0.5s-0.2-0.3-0.4-0.3c-0.2-0.1-0.4-0.1-0.6-0.1s-0.4,0-0.7,0h-0.3v2.2h0.5c0.3,0,0.6,0,0.8-0.1    c0.2,0,0.4-0.1,0.5-0.2c0.1-0.1,0.2-0.2,0.3-0.4C374.9,89.9,374.9,89.7,374.9,89.5z"/> 		<path d="M381.4,93.8c-0.1,0.1-0.2,0.2-0.4,0.3s-0.3,0.2-0.4,0.2c-0.2,0.1-0.4,0.1-0.5,0.2s-0.4,0.1-0.6,0.1c-0.5,0-1-0.2-1.3-0.5    s-0.5-0.7-0.5-1.2c0-0.4,0.1-0.7,0.3-1s0.4-0.5,0.8-0.6c0.3-0.1,0.7-0.3,1.2-0.3s1-0.1,1.5-0.1v0c0-0.3-0.1-0.5-0.4-0.6    s-0.6-0.2-1.1-0.2c-0.3,0-0.6,0.1-0.9,0.2s-0.6,0.2-0.7,0.2h-0.2v-1.3c0.2,0,0.5-0.1,0.9-0.2c0.4-0.1,0.8-0.1,1.3-0.1    c1,0,1.7,0.2,2.2,0.5c0.4,0.3,0.7,0.8,0.7,1.4v3.7h-1.7V93.8z M381.4,93v-1.1c-0.2,0-0.5,0-0.8,0.1c-0.3,0-0.5,0.1-0.6,0.1    c-0.2,0.1-0.3,0.1-0.4,0.2c-0.1,0.1-0.1,0.2-0.1,0.4c0,0.1,0,0.2,0,0.3c0,0.1,0.1,0.1,0.1,0.2c0.1,0.1,0.2,0.1,0.3,0.1    s0.3,0,0.5,0c0.2,0,0.4,0,0.5-0.1C381.1,93.2,381.3,93.1,381.4,93z"/> 		<path d="M386.5,94.4h-1.8v-7.6h1.8V94.4z"/> 		<path d="M393.6,92h-4c0,0.4,0.2,0.8,0.5,1c0.3,0.2,0.7,0.3,1.3,0.3c0.4,0,0.7-0.1,1.1-0.2s0.6-0.3,0.8-0.4h0.2v1.4    c-0.4,0.2-0.8,0.3-1.1,0.3s-0.7,0.1-1.2,0.1c-1.1,0-1.9-0.2-2.5-0.7s-0.9-1.2-0.9-2.1c0-0.9,0.3-1.6,0.8-2.2    c0.6-0.5,1.3-0.8,2.3-0.8c0.9,0,1.6,0.2,2,0.7s0.7,1.1,0.7,1.9V92z M391.8,91c0-0.4-0.1-0.6-0.3-0.8s-0.4-0.3-0.8-0.3    c-0.3,0-0.6,0.1-0.8,0.3s-0.3,0.5-0.4,0.8H391.8z"/> 		<path d="M400.3,94.4h-1.8v-2.7c0-0.2,0-0.4,0-0.7s-0.1-0.4-0.1-0.5c-0.1-0.1-0.2-0.2-0.3-0.3c-0.1-0.1-0.3-0.1-0.5-0.1    c-0.2,0-0.3,0-0.5,0.1c-0.2,0.1-0.3,0.1-0.5,0.2v3.9h-1.8v-5.5h1.8v0.6c0.3-0.2,0.6-0.4,0.9-0.6c0.3-0.1,0.6-0.2,1-0.2    c0.6,0,1.1,0.2,1.4,0.5s0.5,0.9,0.5,1.5V94.4z"/> 		<path d="M404.8,94.6c-0.5,0-0.9-0.1-1.3-0.2c-0.4-0.1-0.7-0.3-1-0.5c-0.3-0.2-0.5-0.5-0.7-0.9s-0.2-0.8-0.2-1.3    c0-0.5,0.1-1,0.3-1.3c0.2-0.4,0.4-0.7,0.7-0.9c0.3-0.2,0.6-0.4,1-0.5s0.8-0.2,1.2-0.2c0.4,0,0.7,0,1,0.1s0.6,0.2,0.9,0.3v1.5h-0.2    c-0.1-0.1-0.2-0.1-0.2-0.2s-0.2-0.2-0.4-0.2c-0.1-0.1-0.3-0.1-0.4-0.2S405,90,404.8,90c-0.5,0-0.8,0.1-1.1,0.4s-0.4,0.7-0.4,1.2    c0,0.5,0.1,0.9,0.4,1.2c0.3,0.3,0.6,0.4,1.1,0.4c0.2,0,0.4,0,0.6-0.1c0.2-0.1,0.3-0.1,0.4-0.2c0.1-0.1,0.2-0.1,0.3-0.2    c0.1-0.1,0.2-0.1,0.2-0.2h0.2v1.5c-0.3,0.1-0.6,0.2-0.9,0.3C405.5,94.5,405.2,94.6,404.8,94.6z"/> 		<path d="M409.6,88.2h-1.9v-1.3h1.9V88.2z M409.6,94.4h-1.8v-5.5h1.8V94.4z"/> 		<path d="M414.6,93.8c-0.1,0.1-0.2,0.2-0.4,0.3s-0.3,0.2-0.4,0.2c-0.2,0.1-0.4,0.1-0.5,0.2s-0.4,0.1-0.6,0.1c-0.5,0-1-0.2-1.3-0.5    s-0.5-0.7-0.5-1.2c0-0.4,0.1-0.7,0.3-1s0.4-0.5,0.8-0.6c0.3-0.1,0.7-0.3,1.2-0.3s1-0.1,1.5-0.1v0c0-0.3-0.1-0.5-0.4-0.6    s-0.6-0.2-1.1-0.2c-0.3,0-0.6,0.1-0.9,0.2s-0.6,0.2-0.7,0.2h-0.2v-1.3c0.2,0,0.5-0.1,0.9-0.2c0.4-0.1,0.8-0.1,1.3-0.1    c1,0,1.7,0.2,2.2,0.5c0.4,0.3,0.7,0.8,0.7,1.4v3.7h-1.7V93.8z M414.6,93v-1.1c-0.2,0-0.5,0-0.8,0.1c-0.3,0-0.5,0.1-0.6,0.1    c-0.2,0.1-0.3,0.1-0.4,0.2c-0.1,0.1-0.1,0.2-0.1,0.4c0,0.1,0,0.2,0,0.3c0,0.1,0.1,0.1,0.1,0.2c0.1,0.1,0.2,0.1,0.3,0.1    s0.3,0,0.5,0c0.2,0,0.4,0,0.5-0.1C414.3,93.2,414.4,93.1,414.6,93z"/> 	</g> 	<g> 		<rect x="54.5" y="318.7" style="fill-rule:evenodd;clip-rule:evenodd;fill:none;" width="48.3" height="11"/> 		<path d="M61,329.4h-6.1v-1.4l3.6-4.5h-3.4v-1.4h5.7v1.4l-3.6,4.5H61V329.4z"/> 		<path d="M65.5,328.8c-0.1,0.1-0.2,0.2-0.4,0.3s-0.3,0.2-0.4,0.2c-0.2,0.1-0.4,0.1-0.5,0.2c-0.2,0-0.4,0.1-0.6,0.1    c-0.5,0-1-0.2-1.3-0.5s-0.5-0.7-0.5-1.2c0-0.4,0.1-0.7,0.3-1s0.4-0.5,0.8-0.6c0.3-0.1,0.7-0.3,1.2-0.3s1-0.1,1.5-0.1v0    c0-0.3-0.1-0.5-0.4-0.6c-0.2-0.1-0.6-0.2-1.1-0.2c-0.3,0-0.6,0.1-0.9,0.2c-0.3,0.1-0.6,0.2-0.7,0.2h-0.2v-1.3    c0.2,0,0.5-0.1,0.9-0.2c0.4-0.1,0.8-0.1,1.3-0.1c1,0,1.7,0.2,2.2,0.5c0.4,0.3,0.7,0.8,0.7,1.4v3.7h-1.7V328.8z M65.5,328v-1.1    c-0.2,0-0.5,0-0.8,0.1s-0.5,0.1-0.6,0.1c-0.2,0.1-0.3,0.1-0.4,0.2s-0.1,0.2-0.1,0.4c0,0.1,0,0.2,0,0.3s0.1,0.1,0.1,0.2    c0.1,0.1,0.2,0.1,0.3,0.1c0.1,0,0.3,0,0.5,0c0.2,0,0.4,0,0.5-0.1C65.2,328.2,65.4,328.1,65.5,328z"/> 		<path d="M74.2,325.5v3.9h-1.8v-2.7c0-0.3,0-0.5,0-0.7c0-0.2,0-0.3-0.1-0.5s-0.1-0.2-0.3-0.3c-0.1-0.1-0.3-0.1-0.5-0.1    c-0.2,0-0.3,0-0.5,0.1c-0.2,0.1-0.3,0.1-0.4,0.2v3.9h-1.8v-5.5h1.8v0.6c0.3-0.2,0.6-0.4,0.9-0.6s0.6-0.2,0.9-0.2    c0.4,0,0.7,0.1,1,0.2c0.3,0.2,0.5,0.4,0.6,0.7c0.4-0.3,0.7-0.5,1-0.7s0.7-0.3,1-0.3c0.6,0,1,0.2,1.3,0.5s0.5,0.9,0.5,1.5v3.6h-1.8    v-2.7c0-0.3,0-0.5,0-0.7s0-0.3-0.1-0.5c-0.1-0.1-0.1-0.2-0.3-0.3c-0.1-0.1-0.3-0.1-0.5-0.1c-0.1,0-0.3,0-0.4,0.1    C74.6,325.3,74.4,325.4,74.2,325.5z"/> 		<path d="M85.1,326.7c0,0.9-0.3,1.6-0.8,2.1c-0.5,0.5-1.3,0.8-2.2,0.8s-1.7-0.3-2.2-0.8c-0.5-0.5-0.8-1.2-0.8-2.1    c0-0.9,0.3-1.6,0.8-2.1s1.3-0.8,2.2-0.8c1,0,1.7,0.3,2.2,0.8S85.1,325.8,85.1,326.7z M82.9,328c0.1-0.1,0.2-0.3,0.3-0.5    c0.1-0.2,0.1-0.5,0.1-0.8c0-0.3,0-0.6-0.1-0.8s-0.1-0.4-0.2-0.5c-0.1-0.1-0.2-0.2-0.4-0.3s-0.3-0.1-0.5-0.1s-0.3,0-0.5,0.1    s-0.3,0.1-0.4,0.3c-0.1,0.1-0.2,0.3-0.3,0.5s-0.1,0.5-0.1,0.8c0,0.3,0,0.6,0.1,0.8c0.1,0.2,0.1,0.4,0.2,0.5    c0.1,0.1,0.2,0.2,0.4,0.3s0.3,0.1,0.5,0.1c0.2,0,0.3,0,0.5-0.1C82.7,328.2,82.8,328.1,82.9,328z"/> 		<path d="M90.3,325.6h-0.2c-0.1,0-0.2,0-0.4-0.1c-0.2,0-0.3,0-0.4,0c-0.3,0-0.5,0-0.7,0c-0.2,0-0.4,0.1-0.6,0.2v3.7h-1.8v-5.5h1.8    v0.8c0.4-0.3,0.7-0.6,1-0.7c0.3-0.1,0.5-0.2,0.8-0.2c0.1,0,0.1,0,0.2,0s0.1,0,0.2,0V325.6z"/> 		<path d="M94.6,328.8c-0.1,0.1-0.2,0.2-0.4,0.3s-0.3,0.2-0.4,0.2c-0.2,0.1-0.4,0.1-0.5,0.2c-0.2,0-0.4,0.1-0.6,0.1    c-0.5,0-1-0.2-1.3-0.5s-0.5-0.7-0.5-1.2c0-0.4,0.1-0.7,0.3-1s0.4-0.5,0.8-0.6c0.3-0.1,0.7-0.3,1.2-0.3s1-0.1,1.5-0.1v0    c0-0.3-0.1-0.5-0.4-0.6c-0.2-0.1-0.6-0.2-1.1-0.2c-0.3,0-0.6,0.1-0.9,0.2c-0.3,0.1-0.6,0.2-0.7,0.2h-0.2v-1.3    c0.2,0,0.5-0.1,0.9-0.2c0.4-0.1,0.8-0.1,1.3-0.1c1,0,1.7,0.2,2.2,0.5c0.4,0.3,0.7,0.8,0.7,1.4v3.7h-1.7V328.8z M94.6,328v-1.1    c-0.2,0-0.5,0-0.8,0.1s-0.5,0.1-0.6,0.1c-0.2,0.1-0.3,0.1-0.4,0.2s-0.1,0.2-0.1,0.4c0,0.1,0,0.2,0,0.3s0.1,0.1,0.1,0.2    c0.1,0.1,0.2,0.1,0.3,0.1c0.1,0,0.3,0,0.5,0c0.2,0,0.4,0,0.5-0.1C94.3,328.2,94.5,328.1,94.6,328z"/> 	</g> 	<g> 		<rect x="261.2" y="409.9" style="fill-rule:evenodd;clip-rule:evenodd;fill:none;" width="80.4" height="30.8"/> 		<path d="M269.2,417c0,1.2-0.3,2.1-1,2.8c-0.7,0.7-1.6,1-2.8,1c-1.2,0-2.1-0.3-2.7-1c-0.7-0.7-1-1.6-1-2.8c0-1.2,0.3-2.1,1-2.8    c0.7-0.7,1.6-1,2.7-1c1.2,0,2.1,0.3,2.7,1C268.9,414.9,269.2,415.8,269.2,417z M266.7,418.8c0.2-0.2,0.3-0.5,0.4-0.8    c0.1-0.3,0.1-0.7,0.1-1.1c0-0.4-0.1-0.8-0.2-1.1s-0.2-0.6-0.4-0.7c-0.2-0.2-0.4-0.3-0.6-0.4c-0.2-0.1-0.4-0.1-0.7-0.1    c-0.2,0-0.5,0-0.7,0.1c-0.2,0.1-0.4,0.2-0.6,0.4c-0.2,0.2-0.3,0.4-0.4,0.8c-0.1,0.3-0.2,0.7-0.2,1.1c0,0.4,0,0.8,0.1,1.1    c0.1,0.3,0.2,0.6,0.4,0.7s0.4,0.3,0.6,0.4s0.4,0.1,0.7,0.1s0.5,0,0.7-0.1C266.4,419.2,266.6,419,266.7,418.8z"/> 		<path d="M276,418.2h-4c0,0.4,0.2,0.8,0.5,1c0.3,0.2,0.7,0.3,1.3,0.3c0.4,0,0.7-0.1,1.1-0.2s0.6-0.3,0.8-0.4h0.2v1.4    c-0.4,0.2-0.8,0.3-1.1,0.3s-0.7,0.1-1.2,0.1c-1.1,0-1.9-0.2-2.5-0.7s-0.9-1.2-0.9-2.1c0-0.9,0.3-1.6,0.8-2.2    c0.6-0.5,1.3-0.8,2.3-0.8c0.9,0,1.6,0.2,2,0.7c0.4,0.5,0.7,1.1,0.7,1.9V418.2z M274.2,417.2c0-0.4-0.1-0.6-0.3-0.8    s-0.4-0.3-0.8-0.3c-0.3,0-0.6,0.1-0.8,0.3s-0.3,0.5-0.4,0.8H274.2z"/> 		<path d="M282,418.9c0,0.6-0.3,1-0.8,1.4c-0.5,0.3-1.2,0.5-2.1,0.5c-0.5,0-0.9,0-1.3-0.1s-0.7-0.2-1-0.3v-1.4h0.2    c0.1,0.1,0.2,0.1,0.3,0.2c0.1,0.1,0.3,0.2,0.5,0.2c0.2,0.1,0.4,0.1,0.6,0.2c0.2,0.1,0.5,0.1,0.7,0.1c0.3,0,0.6,0,0.8-0.1    c0.2-0.1,0.2-0.2,0.2-0.3c0-0.1,0-0.2-0.1-0.3c-0.1-0.1-0.3-0.1-0.6-0.2c-0.1,0-0.3-0.1-0.5-0.1c-0.2,0-0.4-0.1-0.6-0.1    c-0.5-0.1-0.9-0.3-1.1-0.6c-0.2-0.3-0.4-0.6-0.4-1c0-0.5,0.3-1,0.7-1.3c0.5-0.4,1.2-0.5,2-0.5c0.4,0,0.8,0,1.2,0.1    c0.4,0.1,0.7,0.2,0.9,0.3v1.4h-0.2c-0.3-0.2-0.6-0.3-0.9-0.4c-0.3-0.1-0.7-0.2-1-0.2c-0.3,0-0.5,0-0.7,0.1    c-0.2,0.1-0.3,0.2-0.3,0.3c0,0.1,0,0.2,0.1,0.3s0.3,0.1,0.6,0.2c0.2,0,0.4,0.1,0.6,0.1c0.2,0,0.4,0.1,0.6,0.1    c0.5,0.1,0.8,0.3,1,0.6C281.9,418.2,282,418.5,282,418.9z"/> 		<path d="M286.6,420.6c-0.2,0-0.4,0.1-0.6,0.1c-0.2,0-0.5,0-0.8,0c-0.7,0-1.2-0.1-1.5-0.4c-0.3-0.3-0.5-0.8-0.5-1.4v-2.6h-0.7v-1.2    h0.7v-1.6h1.8v1.6h1.6v1.2H285v1.9c0,0.2,0,0.4,0,0.5s0,0.3,0.1,0.4c0,0.1,0.1,0.2,0.2,0.3c0.1,0.1,0.3,0.1,0.5,0.1    c0.1,0,0.2,0,0.4-0.1s0.3-0.1,0.3-0.1h0.1V420.6z"/> 		<path d="M293.1,418.2h-4c0,0.4,0.2,0.8,0.5,1c0.3,0.2,0.7,0.3,1.3,0.3c0.4,0,0.7-0.1,1.1-0.2s0.6-0.3,0.8-0.4h0.2v1.4    c-0.4,0.2-0.8,0.3-1.1,0.3s-0.7,0.1-1.2,0.1c-1.1,0-1.9-0.2-2.5-0.7s-0.9-1.2-0.9-2.1c0-0.9,0.3-1.6,0.8-2.2    c0.6-0.5,1.3-0.8,2.3-0.8c0.9,0,1.6,0.2,2,0.7c0.4,0.5,0.7,1.1,0.7,1.9V418.2z M291.3,417.2c0-0.4-0.1-0.6-0.3-0.8    s-0.4-0.3-0.8-0.3c-0.3,0-0.6,0.1-0.8,0.3s-0.3,0.5-0.4,0.8H291.3z"/> 		<path d="M301.2,418.1h-3.7v-1.4h3.7V418.1z"/> 		<path d="M309.3,420c-0.1,0.1-0.2,0.2-0.4,0.3s-0.3,0.2-0.4,0.2c-0.2,0.1-0.4,0.1-0.5,0.2c-0.2,0-0.4,0.1-0.6,0.1    c-0.5,0-1-0.2-1.3-0.5s-0.5-0.7-0.5-1.2c0-0.4,0.1-0.7,0.3-1s0.4-0.5,0.8-0.6c0.3-0.1,0.7-0.3,1.2-0.3s1-0.1,1.5-0.1v0    c0-0.3-0.1-0.5-0.4-0.6c-0.2-0.1-0.6-0.2-1.1-0.2c-0.3,0-0.6,0.1-0.9,0.2c-0.3,0.1-0.6,0.2-0.7,0.2H306v-1.3    c0.2,0,0.5-0.1,0.9-0.2c0.4-0.1,0.8-0.1,1.3-0.1c1,0,1.7,0.2,2.2,0.5c0.4,0.3,0.7,0.8,0.7,1.4v3.7h-1.7V420z M310.2,412.4    L310.2,412.4l-1.7,1.9h-1.2l1.2-1.9H310.2z M309.3,419.2V418c-0.2,0-0.5,0-0.8,0.1s-0.5,0.1-0.6,0.1c-0.2,0.1-0.3,0.1-0.4,0.2    c-0.1,0.1-0.1,0.2-0.1,0.4c0,0.1,0,0.2,0,0.3s0.1,0.1,0.1,0.2c0.1,0.1,0.2,0.1,0.3,0.1c0.1,0,0.3,0,0.5,0c0.2,0,0.4,0,0.5-0.1    C309,419.4,309.1,419.3,309.3,419.2z"/> 		<path d="M316.6,416.8h-0.2c-0.1,0-0.2,0-0.4-0.1s-0.3,0-0.4,0c-0.3,0-0.5,0-0.7,0c-0.2,0-0.4,0.1-0.6,0.2v3.7h-1.8v-5.5h1.8v0.8    c0.4-0.3,0.7-0.6,1-0.7c0.3-0.1,0.5-0.2,0.8-0.2c0.1,0,0.1,0,0.2,0c0.1,0,0.1,0,0.2,0V416.8z"/> 		<path d="M323,418.2h-4c0,0.4,0.2,0.8,0.5,1c0.3,0.2,0.7,0.3,1.3,0.3c0.4,0,0.7-0.1,1.1-0.2s0.6-0.3,0.8-0.4h0.2v1.4    c-0.4,0.2-0.8,0.3-1.1,0.3s-0.7,0.1-1.2,0.1c-1.1,0-1.9-0.2-2.5-0.7s-0.9-1.2-0.9-2.1c0-0.9,0.3-1.6,0.8-2.2    c0.6-0.5,1.3-0.8,2.3-0.8c0.9,0,1.6,0.2,2,0.7c0.4,0.5,0.7,1.1,0.7,1.9V418.2z M321.3,417.2c0-0.4-0.1-0.6-0.3-0.8    s-0.4-0.3-0.8-0.3c-0.3,0-0.6,0.1-0.8,0.3s-0.3,0.5-0.4,0.8H321.3z"/> 		<path d="M327.6,420c-0.1,0.1-0.2,0.2-0.4,0.3s-0.3,0.2-0.4,0.2c-0.2,0.1-0.4,0.1-0.5,0.2c-0.2,0-0.4,0.1-0.6,0.1    c-0.5,0-1-0.2-1.3-0.5s-0.5-0.7-0.5-1.2c0-0.4,0.1-0.7,0.3-1s0.4-0.5,0.8-0.6c0.3-0.1,0.7-0.3,1.2-0.3s1-0.1,1.5-0.1v0    c0-0.3-0.1-0.5-0.4-0.6c-0.2-0.1-0.6-0.2-1.1-0.2c-0.3,0-0.6,0.1-0.9,0.2c-0.3,0.1-0.6,0.2-0.7,0.2h-0.2v-1.3    c0.2,0,0.5-0.1,0.9-0.2c0.4-0.1,0.8-0.1,1.3-0.1c1,0,1.7,0.2,2.2,0.5c0.4,0.3,0.7,0.8,0.7,1.4v3.7h-1.7V420z M327.6,419.2V418    c-0.2,0-0.5,0-0.8,0.1s-0.5,0.1-0.6,0.1c-0.2,0.1-0.3,0.1-0.4,0.2c-0.1,0.1-0.1,0.2-0.1,0.4c0,0.1,0,0.2,0,0.3s0.1,0.1,0.1,0.2    c0.1,0.1,0.2,0.1,0.3,0.1c0.1,0,0.3,0,0.5,0c0.2,0,0.4,0,0.5-0.1C327.3,419.4,327.4,419.3,327.6,419.2z"/> 		<path d="M267.4,431.6h-1.8v-0.6c-0.3,0.2-0.6,0.4-0.8,0.5s-0.6,0.2-0.9,0.2c-0.7,0-1.2-0.3-1.6-0.8c-0.4-0.5-0.6-1.2-0.6-2.1    c0-0.5,0.1-0.9,0.2-1.2c0.1-0.4,0.3-0.7,0.6-0.9c0.2-0.2,0.5-0.4,0.8-0.6c0.3-0.1,0.6-0.2,0.9-0.2c0.3,0,0.6,0,0.8,0.1    c0.2,0.1,0.4,0.2,0.6,0.3V424h1.8V431.6z M265.6,430.1v-2.7c-0.1-0.1-0.3-0.1-0.4-0.1s-0.3,0-0.4,0c-0.5,0-0.8,0.1-1,0.4    s-0.3,0.7-0.3,1.2c0,0.5,0.1,0.9,0.3,1.2c0.2,0.2,0.5,0.4,0.9,0.4c0.2,0,0.3,0,0.5-0.1S265.5,430.2,265.6,430.1z"/> 		<path d="M274.5,429.2h-4c0,0.4,0.2,0.8,0.5,1c0.3,0.2,0.7,0.3,1.3,0.3c0.4,0,0.7-0.1,1.1-0.2s0.6-0.3,0.8-0.4h0.2v1.4    c-0.4,0.2-0.8,0.3-1.1,0.3s-0.7,0.1-1.2,0.1c-1.1,0-1.9-0.2-2.5-0.7s-0.9-1.2-0.9-2.1c0-0.9,0.3-1.6,0.8-2.2    c0.6-0.5,1.3-0.8,2.3-0.8c0.9,0,1.6,0.2,2,0.7c0.4,0.5,0.7,1.1,0.7,1.9V429.2z M272.7,428.2c0-0.4-0.1-0.6-0.3-0.8    s-0.4-0.3-0.8-0.3c-0.3,0-0.6,0.1-0.8,0.3s-0.3,0.5-0.4,0.8H272.7z"/> 		<path d="M284.9,425.8h-2.3v5.9h-1.9v-5.9h-2.3v-1.4h6.4V425.8z"/> 		<path d="M291.5,428.9c0,0.9-0.3,1.6-0.8,2.1c-0.5,0.5-1.3,0.8-2.2,0.8s-1.7-0.3-2.2-0.8c-0.5-0.5-0.8-1.2-0.8-2.1    c0-0.9,0.3-1.6,0.8-2.1c0.5-0.5,1.3-0.8,2.2-0.8c1,0,1.7,0.3,2.2,0.8C291.3,427.3,291.5,428,291.5,428.9z M289.4,430.2    c0.1-0.1,0.2-0.3,0.3-0.5c0.1-0.2,0.1-0.5,0.1-0.8c0-0.3,0-0.6-0.1-0.8s-0.1-0.4-0.2-0.5c-0.1-0.1-0.2-0.2-0.4-0.3    s-0.3-0.1-0.5-0.1s-0.3,0-0.5,0.1c-0.1,0-0.3,0.1-0.4,0.3c-0.1,0.1-0.2,0.3-0.3,0.5c-0.1,0.2-0.1,0.5-0.1,0.8c0,0.3,0,0.6,0.1,0.8    s0.1,0.4,0.2,0.5c0.1,0.1,0.2,0.2,0.4,0.3c0.1,0.1,0.3,0.1,0.5,0.1c0.2,0,0.3,0,0.5-0.1C289.1,430.4,289.3,430.3,289.4,430.2z"/> 		<path d="M296.8,427.8h-0.2c-0.1,0-0.2,0-0.4-0.1s-0.3,0-0.4,0c-0.3,0-0.5,0-0.7,0c-0.2,0-0.4,0.1-0.6,0.2v3.7h-1.8v-5.5h1.8v0.8    c0.4-0.3,0.7-0.6,1-0.7c0.3-0.1,0.5-0.2,0.8-0.2c0.1,0,0.1,0,0.2,0c0.1,0,0.1,0,0.2,0V427.8z"/> 		<path d="M303.1,431.6h-1.8v-0.6c-0.3,0.2-0.6,0.4-0.8,0.5s-0.6,0.2-0.9,0.2c-0.7,0-1.2-0.3-1.6-0.8c-0.4-0.5-0.6-1.2-0.6-2.1    c0-0.5,0.1-0.9,0.2-1.2c0.1-0.4,0.3-0.7,0.6-0.9c0.2-0.2,0.5-0.4,0.8-0.6c0.3-0.1,0.6-0.2,0.9-0.2c0.3,0,0.6,0,0.8,0.1    c0.2,0.1,0.4,0.2,0.6,0.3V424h1.8V431.6z M301.3,430.1v-2.7c-0.1-0.1-0.3-0.1-0.4-0.1s-0.3,0-0.4,0c-0.5,0-0.8,0.1-1,0.4    s-0.3,0.7-0.3,1.2c0,0.5,0.1,0.9,0.3,1.2c0.2,0.2,0.5,0.4,0.9,0.4c0.2,0,0.3,0,0.5-0.1S301.2,430.2,301.3,430.1z"/> 		<path d="M310.2,429.2h-4c0,0.4,0.2,0.8,0.5,1c0.3,0.2,0.7,0.3,1.3,0.3c0.4,0,0.7-0.1,1.1-0.2s0.6-0.3,0.8-0.4h0.2v1.4    c-0.4,0.2-0.8,0.3-1.1,0.3s-0.7,0.1-1.2,0.1c-1.1,0-1.9-0.2-2.5-0.7s-0.9-1.2-0.9-2.1c0-0.9,0.3-1.6,0.8-2.2    c0.6-0.5,1.3-0.8,2.3-0.8c0.9,0,1.6,0.2,2,0.7c0.4,0.5,0.7,1.1,0.7,1.9V429.2z M308.4,428.2c0-0.4-0.1-0.6-0.3-0.8    s-0.4-0.3-0.8-0.3c-0.3,0-0.6,0.1-0.8,0.3s-0.3,0.5-0.4,0.8H308.4z"/> 		<path d="M316.2,429.9c0,0.6-0.3,1-0.8,1.4s-1.2,0.5-2.1,0.5c-0.5,0-0.9,0-1.3-0.1s-0.7-0.2-1-0.3v-1.4h0.2    c0.1,0.1,0.2,0.1,0.3,0.2c0.1,0.1,0.3,0.2,0.5,0.2c0.2,0.1,0.4,0.1,0.6,0.2s0.5,0.1,0.7,0.1c0.3,0,0.6,0,0.8-0.1    c0.2-0.1,0.2-0.2,0.2-0.3c0-0.1,0-0.2-0.1-0.3c-0.1-0.1-0.3-0.1-0.6-0.2c-0.1,0-0.3-0.1-0.5-0.1c-0.2,0-0.4-0.1-0.6-0.1    c-0.5-0.1-0.9-0.3-1.1-0.6c-0.2-0.3-0.4-0.6-0.4-1c0-0.5,0.3-1,0.8-1.3c0.5-0.3,1.2-0.5,2-0.5c0.4,0,0.8,0,1.2,0.1    c0.4,0.1,0.7,0.2,0.9,0.3v1.4h-0.2c-0.3-0.2-0.6-0.3-0.9-0.4c-0.3-0.1-0.7-0.2-1-0.2c-0.3,0-0.5,0-0.7,0.1    c-0.2,0.1-0.3,0.2-0.3,0.3c0,0.1,0,0.2,0.1,0.3s0.3,0.1,0.6,0.2c0.2,0,0.4,0.1,0.6,0.1c0.2,0,0.4,0.1,0.6,0.1    c0.5,0.1,0.8,0.3,1,0.6S316.2,429.5,316.2,429.9z"/> 		<path d="M319.1,425.4h-1.9V424h1.9V425.4z M319.1,431.6h-1.8v-5.5h1.8V431.6z"/> 		<path d="M322.5,431.6h-1.8V424h1.8V431.6z"/> 		<path d="M325.9,431.6h-1.8V424h1.8V431.6z"/> 		<path d="M330.9,431c-0.1,0.1-0.2,0.2-0.4,0.3s-0.3,0.2-0.4,0.2c-0.2,0.1-0.4,0.1-0.5,0.2c-0.2,0-0.4,0.1-0.6,0.1    c-0.5,0-1-0.2-1.3-0.5s-0.5-0.7-0.5-1.2c0-0.4,0.1-0.7,0.3-1s0.4-0.5,0.8-0.6c0.3-0.1,0.7-0.3,1.2-0.3s1-0.1,1.5-0.1v0    c0-0.3-0.1-0.5-0.4-0.6c-0.2-0.1-0.6-0.2-1.1-0.2c-0.3,0-0.6,0.1-0.9,0.2s-0.6,0.2-0.7,0.2h-0.2v-1.3c0.2,0,0.5-0.1,0.9-0.2    c0.4-0.1,0.8-0.1,1.3-0.1c1,0,1.7,0.2,2.2,0.5c0.4,0.3,0.7,0.8,0.7,1.4v3.7h-1.7V431z M330.9,430.2v-1.1c-0.2,0-0.5,0-0.8,0.1    s-0.5,0.1-0.6,0.1c-0.2,0.1-0.3,0.1-0.4,0.2c-0.1,0.1-0.1,0.2-0.1,0.4c0,0.1,0,0.2,0,0.3s0.1,0.1,0.1,0.2c0.1,0.1,0.2,0.1,0.3,0.1    c0.1,0,0.3,0,0.5,0c0.2,0,0.4,0,0.5-0.1C330.6,430.4,330.8,430.3,330.9,430.2z"/> 		<path d="M339,429.9c0,0.6-0.3,1-0.8,1.4s-1.2,0.5-2.1,0.5c-0.5,0-0.9,0-1.3-0.1s-0.7-0.2-1-0.3v-1.4h0.2c0.1,0.1,0.2,0.1,0.3,0.2    c0.1,0.1,0.3,0.2,0.5,0.2c0.2,0.1,0.4,0.1,0.6,0.2s0.5,0.1,0.7,0.1c0.3,0,0.6,0,0.8-0.1c0.2-0.1,0.2-0.2,0.2-0.3    c0-0.1,0-0.2-0.1-0.3c-0.1-0.1-0.3-0.1-0.6-0.2c-0.1,0-0.3-0.1-0.5-0.1c-0.2,0-0.4-0.1-0.6-0.1c-0.5-0.1-0.9-0.3-1.1-0.6    c-0.2-0.3-0.4-0.6-0.4-1c0-0.5,0.3-1,0.7-1.3c0.5-0.3,1.2-0.5,2-0.5c0.4,0,0.8,0,1.2,0.1c0.4,0.1,0.7,0.2,0.9,0.3v1.4h-0.2    c-0.3-0.2-0.6-0.3-0.9-0.4c-0.3-0.1-0.7-0.2-1-0.2c-0.3,0-0.5,0-0.7,0.1c-0.2,0.1-0.3,0.2-0.3,0.3c0,0.1,0,0.2,0.1,0.3    s0.3,0.1,0.6,0.2c0.2,0,0.4,0.1,0.6,0.1c0.2,0,0.4,0.1,0.6,0.1c0.5,0.1,0.8,0.3,1,0.6S339,429.5,339,429.9z"/> 	</g> 	<g> 		<path d="M392.3,399.5h-1.9l-0.5-1.5h-2.7l-0.5,1.5h-1.9l2.7-7.3h2.2L392.3,399.5z M390.2,389.5L390.2,389.5l-1.7,1.9h-1.2l1.2-1.9    H390.2z M389.4,396.7l-0.9-2.6l-0.9,2.6H389.4z"/> 		<path d="M397.2,395.7h-0.2c-0.1,0-0.2,0-0.4-0.1s-0.3,0-0.4,0c-0.3,0-0.5,0-0.7,0c-0.2,0-0.4,0.1-0.6,0.2v3.7h-1.8V394h1.8v0.8    c0.4-0.3,0.7-0.6,1-0.7c0.3-0.1,0.5-0.2,0.8-0.2c0.1,0,0.1,0,0.2,0c0.1,0,0.1,0,0.2,0V395.7z"/> 		<path d="M403.6,397.1h-4c0,0.4,0.2,0.8,0.5,1c0.3,0.2,0.7,0.3,1.3,0.3c0.4,0,0.7-0.1,1.1-0.2s0.6-0.3,0.8-0.4h0.2v1.4    c-0.4,0.2-0.8,0.3-1.1,0.3s-0.7,0.1-1.2,0.1c-1.1,0-1.9-0.2-2.5-0.7s-0.9-1.2-0.9-2.1c0-0.9,0.3-1.6,0.8-2.2    c0.6-0.5,1.3-0.8,2.3-0.8c0.9,0,1.6,0.2,2,0.7c0.4,0.5,0.7,1.1,0.7,1.9V397.1z M401.9,396.1c0-0.4-0.1-0.6-0.3-0.8    s-0.4-0.3-0.8-0.3c-0.3,0-0.6,0.1-0.8,0.3s-0.3,0.5-0.4,0.8H401.9z"/> 		<path d="M408.2,398.9c-0.1,0.1-0.2,0.2-0.4,0.3s-0.3,0.2-0.4,0.2c-0.2,0.1-0.4,0.1-0.5,0.2c-0.2,0-0.4,0.1-0.6,0.1    c-0.5,0-1-0.2-1.3-0.5s-0.5-0.7-0.5-1.2c0-0.4,0.1-0.7,0.3-1s0.4-0.5,0.8-0.6c0.3-0.1,0.7-0.3,1.2-0.3s1-0.1,1.5-0.1v0    c0-0.3-0.1-0.5-0.4-0.6c-0.2-0.1-0.6-0.2-1.1-0.2c-0.3,0-0.6,0.1-0.9,0.2c-0.3,0.1-0.6,0.2-0.7,0.2h-0.2v-1.3    c0.2,0,0.5-0.1,0.9-0.2c0.4-0.1,0.8-0.1,1.3-0.1c1,0,1.7,0.2,2.2,0.5c0.4,0.3,0.7,0.8,0.7,1.4v3.7h-1.7V398.9z M408.2,398.1v-1.1    c-0.2,0-0.5,0-0.8,0.1s-0.5,0.1-0.6,0.1c-0.2,0.1-0.3,0.1-0.4,0.2c-0.1,0.1-0.1,0.2-0.1,0.4c0,0.1,0,0.2,0,0.3s0.1,0.1,0.1,0.2    c0.1,0.1,0.2,0.1,0.3,0.1c0.1,0,0.3,0,0.5,0c0.2,0,0.4,0,0.5-0.1C407.9,398.3,408.1,398.2,408.2,398.1z"/> 		<path d="M420.3,399.5h-1.8v-0.6c-0.3,0.2-0.6,0.4-0.8,0.5s-0.6,0.2-0.9,0.2c-0.7,0-1.2-0.3-1.6-0.8c-0.4-0.5-0.6-1.2-0.6-2.1    c0-0.5,0.1-0.9,0.2-1.2c0.1-0.4,0.3-0.7,0.6-0.9c0.2-0.2,0.5-0.4,0.8-0.6c0.3-0.1,0.6-0.2,0.9-0.2c0.3,0,0.6,0,0.8,0.1    c0.2,0.1,0.4,0.2,0.6,0.3v-2.3h1.8V399.5z M418.5,398v-2.7c-0.1-0.1-0.3-0.1-0.4-0.1s-0.3,0-0.4,0c-0.5,0-0.8,0.1-1,0.4    c-0.2,0.3-0.3,0.7-0.3,1.2c0,0.5,0.1,0.9,0.3,1.2c0.2,0.2,0.5,0.4,0.9,0.4c0.2,0,0.3,0,0.5-0.1C418.2,398.2,418.4,398.1,418.5,398    z"/> 		<path d="M427.4,397.1h-4c0,0.4,0.2,0.8,0.5,1c0.3,0.2,0.7,0.3,1.3,0.3c0.4,0,0.7-0.1,1.1-0.2s0.6-0.3,0.8-0.4h0.2v1.4    c-0.4,0.2-0.8,0.3-1.1,0.3s-0.7,0.1-1.2,0.1c-1.1,0-1.9-0.2-2.5-0.7s-0.9-1.2-0.9-2.1c0-0.9,0.3-1.6,0.8-2.2    c0.6-0.5,1.3-0.8,2.3-0.8c0.9,0,1.6,0.2,2,0.7c0.4,0.5,0.7,1.1,0.7,1.9V397.1z M425.6,396.1c0-0.4-0.1-0.6-0.3-0.8    s-0.4-0.3-0.8-0.3c-0.3,0-0.6,0.1-0.8,0.3s-0.3,0.5-0.4,0.8H425.6z"/> 		<path d="M392.2,404.2l-2.7,7.3h-2.1l-2.7-7.3h2l1.8,5.1l1.8-5.1H392.2z"/> 		<path d="M396.5,410.9c-0.1,0.1-0.2,0.2-0.4,0.3s-0.3,0.2-0.4,0.2c-0.2,0.1-0.4,0.1-0.5,0.2c-0.2,0-0.4,0.1-0.6,0.1    c-0.5,0-1-0.2-1.3-0.5s-0.5-0.7-0.5-1.2c0-0.4,0.1-0.7,0.3-1s0.4-0.5,0.8-0.6c0.3-0.1,0.7-0.3,1.2-0.3s1-0.1,1.5-0.1v0    c0-0.3-0.1-0.5-0.4-0.6c-0.2-0.1-0.6-0.2-1.1-0.2c-0.3,0-0.6,0.1-0.9,0.2c-0.3,0.1-0.6,0.2-0.7,0.2h-0.2v-1.3    c0.2,0,0.5-0.1,0.9-0.2c0.4-0.1,0.8-0.1,1.3-0.1c1,0,1.7,0.2,2.2,0.5c0.4,0.3,0.7,0.8,0.7,1.4v3.7h-1.7V410.9z M396.5,410.1v-1.1    c-0.2,0-0.5,0-0.8,0.1s-0.5,0.1-0.6,0.1c-0.2,0.1-0.3,0.1-0.4,0.2c-0.1,0.1-0.1,0.2-0.1,0.4c0,0.1,0,0.2,0,0.3s0.1,0.1,0.1,0.2    c0.1,0.1,0.2,0.1,0.3,0.1c0.1,0,0.3,0,0.5,0c0.2,0,0.4,0,0.5-0.1C396.2,410.3,396.3,410.2,396.5,410.1z"/> 		<path d="M401.6,411.5h-1.8v-7.6h1.8V411.5z"/> 		<path d="M405,411.5h-1.8v-7.6h1.8V411.5z"/> 		<path d="M410,410.9c-0.1,0.1-0.2,0.2-0.4,0.3s-0.3,0.2-0.4,0.2c-0.2,0.1-0.4,0.1-0.5,0.2c-0.2,0-0.4,0.1-0.6,0.1    c-0.5,0-1-0.2-1.3-0.5s-0.5-0.7-0.5-1.2c0-0.4,0.1-0.7,0.3-1s0.4-0.5,0.8-0.6c0.3-0.1,0.7-0.3,1.2-0.3s1-0.1,1.5-0.1v0    c0-0.3-0.1-0.5-0.4-0.6c-0.2-0.1-0.6-0.2-1.1-0.2c-0.3,0-0.6,0.1-0.9,0.2c-0.3,0.1-0.6,0.2-0.7,0.2h-0.2v-1.3    c0.2,0,0.5-0.1,0.9-0.2c0.4-0.1,0.8-0.1,1.3-0.1c1,0,1.7,0.2,2.2,0.5c0.4,0.3,0.7,0.8,0.7,1.4v3.7H410V410.9z M410,410.1v-1.1    c-0.2,0-0.5,0-0.8,0.1s-0.5,0.1-0.6,0.1c-0.2,0.1-0.3,0.1-0.4,0.2c-0.1,0.1-0.1,0.2-0.1,0.4c0,0.1,0,0.2,0,0.3s0.1,0.1,0.1,0.2    c0.1,0.1,0.2,0.1,0.3,0.1c0.1,0,0.3,0,0.5,0c0.2,0,0.4,0,0.5-0.1C409.7,410.3,409.8,410.2,410,410.1z"/> 		<path d="M418.7,411.5h-1.8v-0.6c-0.3,0.2-0.6,0.4-0.8,0.5s-0.6,0.2-0.9,0.2c-0.7,0-1.2-0.3-1.6-0.8c-0.4-0.5-0.6-1.2-0.6-2.1    c0-0.5,0.1-0.9,0.2-1.2c0.1-0.4,0.3-0.7,0.6-0.9c0.2-0.2,0.5-0.4,0.8-0.6c0.3-0.1,0.6-0.2,0.9-0.2c0.3,0,0.6,0,0.8,0.1    c0.2,0.1,0.4,0.2,0.6,0.3v-2.3h1.8V411.5z M416.9,410v-2.7c-0.1-0.1-0.3-0.1-0.4-0.1s-0.3,0-0.4,0c-0.5,0-0.8,0.1-1,0.4    c-0.2,0.3-0.3,0.7-0.3,1.2c0,0.5,0.1,0.9,0.3,1.2c0.2,0.2,0.5,0.4,0.9,0.4c0.2,0,0.3,0,0.5-0.1C416.6,410.2,416.8,410.1,416.9,410    z"/> 		<path d="M425.9,408.8c0,0.9-0.3,1.6-0.8,2.1c-0.5,0.5-1.3,0.8-2.2,0.8s-1.7-0.3-2.2-0.8c-0.5-0.5-0.8-1.2-0.8-2.1    c0-0.9,0.3-1.6,0.8-2.1c0.5-0.5,1.3-0.8,2.2-0.8c1,0,1.7,0.3,2.2,0.8C425.7,407.1,425.9,407.9,425.9,408.8z M423.8,410.1    c0.1-0.1,0.2-0.3,0.3-0.5c0.1-0.2,0.1-0.5,0.1-0.8c0-0.3,0-0.6-0.1-0.8s-0.1-0.4-0.2-0.5c-0.1-0.1-0.2-0.2-0.4-0.3    s-0.3-0.1-0.5-0.1s-0.3,0-0.5,0.1c-0.1,0-0.3,0.1-0.4,0.3c-0.1,0.1-0.2,0.3-0.3,0.5c-0.1,0.2-0.1,0.5-0.1,0.8c0,0.3,0,0.6,0.1,0.8    c0.1,0.2,0.1,0.4,0.2,0.5c0.1,0.1,0.2,0.2,0.4,0.3c0.1,0.1,0.3,0.1,0.5,0.1c0.2,0,0.3,0,0.5-0.1    C423.5,410.3,423.7,410.2,423.8,410.1z"/> 		<path d="M428.9,411.5h-1.8v-7.6h1.8V411.5z"/> 		<path d="M432.4,405.2h-1.9v-1.3h1.9V405.2z M432.4,411.5h-1.8V406h1.8V411.5z"/> 		<path d="M439.4,411.5h-1.8v-0.6c-0.3,0.2-0.6,0.4-0.8,0.5s-0.6,0.2-0.9,0.2c-0.7,0-1.2-0.3-1.6-0.8c-0.4-0.5-0.6-1.2-0.6-2.1    c0-0.5,0.1-0.9,0.2-1.2c0.1-0.4,0.3-0.7,0.6-0.9c0.2-0.2,0.5-0.4,0.8-0.6c0.3-0.1,0.6-0.2,0.9-0.2c0.3,0,0.6,0,0.8,0.1    c0.2,0.1,0.4,0.2,0.6,0.3v-2.3h1.8V411.5z M437.6,410v-2.7c-0.1-0.1-0.3-0.1-0.4-0.1s-0.3,0-0.4,0c-0.5,0-0.8,0.1-1,0.4    c-0.2,0.3-0.3,0.7-0.3,1.2c0,0.5,0.1,0.9,0.3,1.2c0.2,0.2,0.5,0.4,0.9,0.4c0.2,0,0.3,0,0.5-0.1C437.3,410.2,437.5,410.1,437.6,410    z"/> 	</g> </g> <g id="mascara"> 	<path style="fill-rule:evenodd;clip-rule:evenodd;fill:#FFFBF0;" d="M-100-100h650v650h-650V-100z M0,0h450v450H0V0z"/> </g> <g id="simbols_saca"> 	<circle style="fill:#5B7EBD;" cx="177.2" cy="116.6" r="2.4"/> 	<circle style="fill:#5B7EBD;" cx="300.2" cy="154.1" r="2.4"/> 	<circle style="fill:#5B7EBD;" cx="236.7" cy="218.1" r="2.4"/> 	<circle style="fill:#5B7EBD;" cx="293.2" cy="297.6" r="2.4"/> 	<circle style="fill:#5B7EBD;" cx="282.2" cy="371.1" r="2.4"/> </g> <g id="text_x005F_ciutats"> 	<g style="display:none;"> 		<path style="display:inline;" d="M193,93.3h-2.6v6.4h-1v-6.4h-2.6v-0.9h6.2V93.3z"/> 		<path style="display:inline;" d="M196.6,99.7h-2.9v-0.7h1v-5.8h-1v-0.7h2.9v0.7h-1v5.8h1V99.7z"/> 		<path style="display:inline;" d="M203,99.7h-4.8v-7.3h4.8v0.9h-3.8v2h3.8v0.9h-3.8v2.7h3.8V99.7z"/> 		<path style="display:inline;" d="M210.5,99.7h-1.3l-2.4-2.9h-1.4v2.9h-1v-7.3h2c0.4,0,0.8,0,1.1,0.1c0.3,0.1,0.6,0.2,0.8,0.3    c0.3,0.2,0.5,0.4,0.6,0.6c0.1,0.3,0.2,0.6,0.2,1c0,0.5-0.1,1-0.4,1.3s-0.6,0.6-1.1,0.8L210.5,99.7z M208.3,94.5    c0-0.2,0-0.4-0.1-0.6s-0.2-0.3-0.4-0.4c-0.1-0.1-0.3-0.2-0.5-0.2c-0.2,0-0.4-0.1-0.7-0.1h-1.1V96h1c0.3,0,0.6,0,0.8-0.1    c0.2-0.1,0.4-0.2,0.6-0.3c0.1-0.1,0.3-0.3,0.3-0.5C208.2,95,208.3,94.7,208.3,94.5z"/> 		<path style="display:inline;" d="M217.5,99.7h-1.3l-2.4-2.9h-1.4v2.9h-1v-7.3h2c0.4,0,0.8,0,1.1,0.1c0.3,0.1,0.6,0.2,0.8,0.3    c0.3,0.2,0.5,0.4,0.6,0.6c0.1,0.3,0.2,0.6,0.2,1c0,0.5-0.1,1-0.4,1.3s-0.6,0.6-1.1,0.8L217.5,99.7z M215.2,94.5    c0-0.2,0-0.4-0.1-0.6s-0.2-0.3-0.4-0.4c-0.1-0.1-0.3-0.2-0.5-0.2c-0.2,0-0.4-0.1-0.7-0.1h-1.1V96h1c0.3,0,0.6,0,0.8-0.1    c0.2-0.1,0.4-0.2,0.6-0.3c0.1-0.1,0.3-0.3,0.3-0.5C215.2,95,215.2,94.7,215.2,94.5z"/> 		<path style="display:inline;" d="M224.1,99.7h-1l-0.7-2h-3.1l-0.7,2h-1l2.6-7.3h1.3L224.1,99.7z M222.1,96.8l-1.3-3.6l-1.3,3.6    H222.1z"/> 		<path style="display:inline;" d="M234.9,96c0,0.7-0.1,1.3-0.4,1.8c-0.3,0.5-0.7,1-1.1,1.3c-0.3,0.2-0.7,0.4-1.1,0.4    c-0.4,0.1-0.9,0.1-1.6,0.1h-1.8v-7.3h1.8c0.7,0,1.3,0.1,1.7,0.2s0.8,0.2,1.1,0.4c0.5,0.3,0.9,0.7,1.2,1.2    C234.8,94.7,234.9,95.3,234.9,96z M233.9,96c0-0.6-0.1-1-0.3-1.4c-0.2-0.4-0.5-0.7-0.9-0.9c-0.3-0.2-0.6-0.3-0.9-0.3    s-0.7-0.1-1.2-0.1h-0.9v5.6h0.9c0.5,0,0.9,0,1.2-0.1s0.7-0.2,1-0.4c0.4-0.2,0.6-0.5,0.8-0.9C233.8,97.1,233.9,96.6,233.9,96z"/> 		<path style="display:inline;" d="M241.3,99.7h-4.8v-7.3h4.8v0.9h-3.8v2h3.8v0.9h-3.8v2.7h3.8V99.7z"/> 		<path style="display:inline;" d="M251.9,99.1c-0.2,0.1-0.3,0.2-0.5,0.2c-0.1,0.1-0.3,0.1-0.6,0.2c-0.2,0.1-0.4,0.1-0.6,0.2    c-0.2,0-0.5,0.1-0.8,0.1c-0.5,0-1-0.1-1.4-0.2c-0.4-0.1-0.8-0.4-1.1-0.7c-0.3-0.3-0.6-0.7-0.7-1.2c-0.2-0.5-0.3-1-0.3-1.7    c0-0.6,0.1-1.1,0.3-1.6c0.2-0.5,0.4-0.9,0.7-1.2c0.3-0.3,0.7-0.6,1.1-0.7c0.4-0.2,0.9-0.2,1.5-0.2c0.4,0,0.8,0,1.2,0.1    c0.4,0.1,0.8,0.3,1.3,0.5v1.1h-0.1c-0.4-0.3-0.8-0.6-1.2-0.7c-0.4-0.2-0.8-0.2-1.3-0.2c-0.4,0-0.7,0.1-1,0.2    c-0.3,0.1-0.6,0.3-0.8,0.6c-0.2,0.2-0.4,0.6-0.5,0.9c-0.1,0.4-0.2,0.8-0.2,1.3c0,0.5,0.1,1,0.2,1.3c0.1,0.4,0.3,0.7,0.5,0.9    c0.2,0.2,0.5,0.4,0.8,0.5c0.3,0.1,0.6,0.2,1,0.2c0.5,0,0.9-0.1,1.3-0.2c0.4-0.2,0.8-0.4,1.1-0.7h0.1V99.1z"/> 		<path style="display:inline;" d="M259,99.7h-1l-0.7-2h-3.1l-0.7,2h-1l2.6-7.3h1.3L259,99.7z M257,96.8l-1.3-3.6l-1.3,3.6H257z"/> 		<path style="display:inline;" d="M266.6,99.7h-1v-6.3l-2,4.3H263l-2-4.3v6.3h-0.9v-7.3h1.3l1.9,4l1.9-4h1.3V99.7z"/> 		<path style="display:inline;" d="M273.3,94.6c0,0.3-0.1,0.6-0.2,0.9s-0.3,0.5-0.5,0.7c-0.3,0.3-0.5,0.4-0.9,0.6    c-0.3,0.1-0.8,0.2-1.3,0.2h-1v2.7h-1v-7.3h2c0.4,0,0.8,0,1.1,0.1s0.6,0.2,0.8,0.3c0.3,0.2,0.5,0.4,0.6,0.7    C273.2,93.8,273.3,94.2,273.3,94.6z M272.3,94.6c0-0.3,0-0.5-0.1-0.7s-0.2-0.3-0.4-0.5c-0.2-0.1-0.3-0.2-0.5-0.2s-0.5-0.1-0.8-0.1    h-1v2.9h0.8c0.4,0,0.7,0,1-0.1c0.2-0.1,0.4-0.2,0.6-0.3c0.2-0.2,0.3-0.3,0.3-0.5S272.3,94.8,272.3,94.6z"/> 		<path style="display:inline;" d="M280,93.2c0.3,0.3,0.5,0.7,0.7,1.2c0.2,0.5,0.2,1,0.2,1.6c0,0.6-0.1,1.1-0.2,1.6    c-0.2,0.5-0.4,0.9-0.7,1.2c-0.3,0.3-0.7,0.6-1.1,0.7c-0.4,0.2-0.9,0.2-1.4,0.2c-0.5,0-1-0.1-1.4-0.3c-0.4-0.2-0.8-0.4-1.1-0.7    s-0.5-0.7-0.7-1.2c-0.2-0.5-0.2-1-0.2-1.6c0-0.6,0.1-1.1,0.2-1.6s0.4-0.9,0.7-1.2c0.3-0.3,0.6-0.6,1.1-0.7    c0.4-0.2,0.9-0.3,1.4-0.3c0.5,0,1,0.1,1.4,0.3S279.7,92.9,280,93.2z M279.9,96c0-0.9-0.2-1.7-0.6-2.2s-1-0.8-1.7-0.8    c-0.7,0-1.3,0.3-1.7,0.8s-0.6,1.2-0.6,2.2c0,1,0.2,1.7,0.6,2.2c0.4,0.5,1,0.8,1.7,0.8s1.3-0.3,1.7-0.8    C279.7,97.7,279.9,97,279.9,96z"/> 		<path style="display:inline;" d="M287.7,97.6c0,0.3-0.1,0.6-0.2,0.8c-0.1,0.3-0.3,0.5-0.6,0.7c-0.3,0.2-0.6,0.4-0.9,0.5    s-0.8,0.2-1.3,0.2c-0.5,0-1,0-1.4-0.1s-0.8-0.2-1.3-0.4V98h0.1c0.4,0.3,0.8,0.5,1.3,0.7c0.5,0.2,0.9,0.2,1.4,0.2    c0.6,0,1.1-0.1,1.4-0.3c0.3-0.2,0.5-0.5,0.5-0.9c0-0.3-0.1-0.6-0.2-0.7c-0.2-0.2-0.4-0.3-0.7-0.4c-0.2-0.1-0.5-0.1-0.8-0.2    c-0.3,0-0.6-0.1-0.9-0.2c-0.6-0.1-1.1-0.4-1.4-0.7c-0.3-0.3-0.5-0.8-0.5-1.3c0-0.6,0.3-1.1,0.8-1.5c0.5-0.4,1.2-0.6,2-0.6    c0.5,0,1,0,1.4,0.1c0.4,0.1,0.8,0.2,1.1,0.4v1.1h-0.1c-0.3-0.2-0.6-0.4-1.1-0.6c-0.5-0.2-0.9-0.2-1.4-0.2c-0.5,0-0.9,0.1-1.2,0.3    s-0.5,0.5-0.5,0.8c0,0.3,0.1,0.5,0.2,0.7s0.4,0.3,0.8,0.4c0.2,0,0.5,0.1,0.9,0.2c0.4,0.1,0.7,0.1,1,0.2c0.5,0.1,0.9,0.4,1.2,0.6    C287.6,96.7,287.7,97.1,287.7,97.6z"/> 		<path style="display:inline;" d="M292.1,96.9h-3v-0.9h3V96.9z"/> 		<path style="display:inline;" d="M222.1,110.7h-1v-6.3l-2,4.3h-0.6l-2-4.3v6.3h-0.9v-7.3h1.3l1.9,4l1.9-4h1.3V110.7z"/> 		<path style="display:inline;" d="M229.8,110.7h-1l-0.7-2h-3.1l-0.7,2h-1l2.6-7.3h1.3L229.8,110.7z M227.8,107.8l-1.3-3.6l-1.3,3.6    H227.8z"/> 		<path style="display:inline;" d="M235.7,103.4l-2.6,4.1v3.2h-1v-3.1l-2.6-4.2h1.1l2,3.3l2-3.3H235.7z"/> 		<path style="display:inline;" d="M242,104.3c0.3,0.3,0.5,0.7,0.7,1.2c0.2,0.5,0.2,1,0.2,1.6c0,0.6-0.1,1.1-0.2,1.6    s-0.4,0.9-0.7,1.2c-0.3,0.3-0.7,0.6-1.1,0.7c-0.4,0.2-0.9,0.2-1.4,0.2c-0.5,0-1-0.1-1.4-0.3c-0.4-0.2-0.8-0.4-1.1-0.7    s-0.5-0.7-0.7-1.2s-0.2-1-0.2-1.6c0-0.6,0.1-1.1,0.2-1.6c0.2-0.5,0.4-0.9,0.7-1.2c0.3-0.3,0.6-0.6,1.1-0.7s0.9-0.3,1.4-0.3    c0.5,0,1,0.1,1.4,0.3S241.7,103.9,242,104.3z M241.9,107.1c0-0.9-0.2-1.7-0.6-2.2s-1-0.8-1.7-0.8c-0.7,0-1.3,0.3-1.7,0.8    s-0.6,1.2-0.6,2.2c0,1,0.2,1.7,0.6,2.2c0.4,0.5,1,0.8,1.7,0.8s1.3-0.3,1.7-0.8C241.7,108.7,241.9,108,241.9,107.1z"/> 		<path style="display:inline;" d="M250.5,110.7h-1.3l-2.4-2.9h-1.4v2.9h-1v-7.3h2c0.4,0,0.8,0,1.1,0.1s0.6,0.2,0.8,0.3    c0.3,0.2,0.5,0.4,0.6,0.6c0.1,0.3,0.2,0.6,0.2,1c0,0.5-0.1,1-0.4,1.3c-0.3,0.4-0.6,0.6-1.1,0.8L250.5,110.7z M248.2,105.5    c0-0.2,0-0.4-0.1-0.6s-0.2-0.3-0.4-0.4c-0.1-0.1-0.3-0.2-0.5-0.2c-0.2,0-0.4-0.1-0.7-0.1h-1.1v2.7h1c0.3,0,0.6,0,0.8-0.1    c0.2-0.1,0.4-0.2,0.6-0.3c0.1-0.1,0.3-0.3,0.3-0.5C248.2,106,248.2,105.7,248.2,105.5z"/> 		<path style="display:inline;" d="M257.5,110.1c-0.4,0.2-0.8,0.3-1.3,0.5c-0.5,0.1-0.9,0.2-1.4,0.2c-0.6,0-1.1-0.1-1.6-0.2    s-0.9-0.4-1.2-0.7c-0.3-0.3-0.6-0.7-0.8-1.2s-0.3-1-0.3-1.7c0-1.2,0.3-2.1,1-2.8c0.7-0.7,1.6-1,2.8-1c0.4,0,0.8,0,1.3,0.1    s0.9,0.3,1.4,0.5v1.1h-0.1c-0.1-0.1-0.2-0.2-0.4-0.3c-0.2-0.1-0.4-0.2-0.6-0.3c-0.2-0.1-0.5-0.2-0.8-0.3c-0.3-0.1-0.6-0.1-1-0.1    c-0.8,0-1.5,0.3-1.9,0.8s-0.7,1.2-0.7,2.1c0,0.9,0.2,1.7,0.7,2.2s1.2,0.8,2,0.8c0.3,0,0.6,0,0.9-0.1c0.3-0.1,0.6-0.1,0.8-0.2v-1.8    h-1.9V107h2.9V110.1z"/> 		<path style="display:inline;" d="M264.9,110.7h-1l-0.7-2H260l-0.7,2h-1l2.6-7.3h1.3L264.9,110.7z M262.8,107.8l-1.3-3.6l-1.3,3.6    H262.8z"/> 	</g> 	<g style="display:none;"> 		<path style="display:inline;" d="M203.1,254.3h-2.6v6.4h-1v-6.4H197v-0.9h6.2V254.3z"/> 		<path style="display:inline;" d="M206.7,260.7h-2.9v-0.7h1v-5.8h-1v-0.7h2.9v0.7h-1v5.8h1V260.7z"/> 		<path style="display:inline;" d="M213.1,260.7h-4.8v-7.3h4.8v0.9h-3.8v2h3.8v0.9h-3.8v2.7h3.8V260.7z"/> 		<path style="display:inline;" d="M220.6,260.7h-1.3l-2.4-2.9h-1.4v2.9h-1v-7.3h2c0.4,0,0.8,0,1.1,0.1s0.6,0.2,0.8,0.3    c0.3,0.2,0.5,0.4,0.6,0.6c0.1,0.3,0.2,0.6,0.2,1c0,0.5-0.1,1-0.4,1.3c-0.3,0.4-0.6,0.6-1.1,0.8L220.6,260.7z M218.4,255.5    c0-0.2,0-0.4-0.1-0.6s-0.2-0.3-0.4-0.4c-0.1-0.1-0.3-0.2-0.5-0.2c-0.2,0-0.4-0.1-0.7-0.1h-1.1v2.7h1c0.3,0,0.6,0,0.8-0.1    s0.4-0.2,0.6-0.3c0.1-0.1,0.3-0.3,0.3-0.5C218.4,256,218.4,255.7,218.4,255.5z"/> 		<path style="display:inline;" d="M227.6,260.7h-1.3l-2.4-2.9h-1.4v2.9h-1v-7.3h2c0.4,0,0.8,0,1.1,0.1s0.6,0.2,0.8,0.3    c0.3,0.2,0.5,0.4,0.6,0.6c0.1,0.3,0.2,0.6,0.2,1c0,0.5-0.1,1-0.4,1.3c-0.3,0.4-0.6,0.6-1.1,0.8L227.6,260.7z M225.3,255.5    c0-0.2,0-0.4-0.1-0.6s-0.2-0.3-0.4-0.4c-0.1-0.1-0.3-0.2-0.5-0.2c-0.2,0-0.4-0.1-0.7-0.1h-1.1v2.7h1c0.3,0,0.6,0,0.8-0.1    c0.2-0.1,0.4-0.2,0.6-0.3c0.1-0.1,0.3-0.3,0.3-0.5C225.3,256,225.3,255.7,225.3,255.5z"/> 		<path style="display:inline;" d="M234.3,260.7h-1l-0.7-2h-3.1l-0.7,2h-1l2.6-7.3h1.3L234.3,260.7z M232.2,257.8l-1.3-3.6l-1.3,3.6    H232.2z"/> 		<path style="display:inline;" d="M245,257c0,0.7-0.1,1.3-0.4,1.8s-0.7,1-1.2,1.3c-0.3,0.2-0.7,0.4-1.1,0.4    c-0.4,0.1-0.9,0.1-1.6,0.1h-1.8v-7.3h1.8c0.7,0,1.3,0.1,1.7,0.2s0.8,0.2,1.1,0.4c0.5,0.3,0.9,0.7,1.2,1.2S245,256.3,245,257z     M244,257c0-0.6-0.1-1-0.3-1.4c-0.2-0.4-0.5-0.7-0.9-0.9c-0.3-0.2-0.6-0.3-0.9-0.3c-0.3-0.1-0.7-0.1-1.2-0.1h-0.9v5.6h0.9    c0.5,0,0.9,0,1.2-0.1s0.7-0.2,1-0.4c0.4-0.2,0.6-0.5,0.8-0.9C243.9,258.1,244,257.6,244,257z"/> 		<path style="display:inline;" d="M251.4,260.7h-4.8v-7.3h4.8v0.9h-3.8v2h3.8v0.9h-3.8v2.7h3.8V260.7z"/> 		<path style="display:inline;" d="M262.1,260.1c-0.2,0.1-0.3,0.2-0.5,0.2c-0.1,0.1-0.3,0.1-0.6,0.2c-0.2,0.1-0.4,0.1-0.6,0.2    c-0.2,0-0.5,0.1-0.8,0.1c-0.5,0-1-0.1-1.4-0.2c-0.4-0.1-0.8-0.4-1.1-0.7c-0.3-0.3-0.6-0.7-0.7-1.2c-0.2-0.5-0.3-1-0.3-1.7    c0-0.6,0.1-1.1,0.3-1.6c0.2-0.5,0.4-0.9,0.7-1.2c0.3-0.3,0.7-0.6,1.1-0.7c0.4-0.2,0.9-0.2,1.5-0.2c0.4,0,0.8,0,1.2,0.1    c0.4,0.1,0.8,0.3,1.3,0.5v1.1H262c-0.4-0.3-0.8-0.6-1.2-0.7c-0.4-0.2-0.8-0.2-1.3-0.2c-0.4,0-0.7,0.1-1,0.2    c-0.3,0.1-0.6,0.3-0.8,0.6c-0.2,0.2-0.4,0.6-0.5,0.9c-0.1,0.4-0.2,0.8-0.2,1.3c0,0.5,0.1,1,0.2,1.3c0.1,0.4,0.3,0.7,0.5,0.9    c0.2,0.2,0.5,0.4,0.8,0.5c0.3,0.1,0.6,0.2,1,0.2c0.5,0,0.9-0.1,1.3-0.2c0.4-0.2,0.8-0.4,1.1-0.7h0.1V260.1z"/> 		<path style="display:inline;" d="M269.2,260.7h-1l-0.7-2h-3.1l-0.7,2h-1l2.6-7.3h1.3L269.2,260.7z M267.1,257.8l-1.3-3.6l-1.3,3.6    H267.1z"/> 		<path style="display:inline;" d="M276.7,260.7h-1v-6.3l-2,4.3h-0.6l-2-4.3v6.3h-0.9v-7.3h1.3l1.9,4l1.9-4h1.3V260.7z"/> 		<path style="display:inline;" d="M283.4,255.6c0,0.3-0.1,0.6-0.2,0.9c-0.1,0.3-0.3,0.5-0.5,0.7c-0.3,0.3-0.5,0.4-0.9,0.6    c-0.3,0.1-0.8,0.2-1.3,0.2h-1v2.7h-1v-7.3h2c0.4,0,0.8,0,1.1,0.1s0.6,0.2,0.8,0.3c0.3,0.2,0.5,0.4,0.6,0.7    S283.4,255.2,283.4,255.6z M282.4,255.6c0-0.3,0-0.5-0.1-0.7s-0.2-0.3-0.4-0.5c-0.2-0.1-0.3-0.2-0.5-0.2s-0.5-0.1-0.8-0.1h-1v2.9    h0.8c0.4,0,0.7,0,1-0.1c0.2-0.1,0.4-0.2,0.6-0.3c0.2-0.2,0.3-0.3,0.3-0.5S282.4,255.8,282.4,255.6z"/> 		<path style="display:inline;" d="M290.1,254.2c0.3,0.3,0.5,0.7,0.7,1.2s0.2,1,0.2,1.6s-0.1,1.1-0.2,1.6s-0.4,0.9-0.7,1.2    c-0.3,0.3-0.7,0.6-1.1,0.7s-0.9,0.2-1.4,0.2c-0.5,0-1-0.1-1.4-0.3c-0.4-0.2-0.8-0.4-1.1-0.7s-0.5-0.7-0.7-1.2    c-0.2-0.5-0.2-1-0.2-1.6c0-0.6,0.1-1.1,0.2-1.6c0.2-0.5,0.4-0.9,0.7-1.2c0.3-0.3,0.6-0.6,1.1-0.7c0.4-0.2,0.9-0.3,1.4-0.3    c0.5,0,1,0.1,1.4,0.3S289.8,253.9,290.1,254.2z M290,257c0-0.9-0.2-1.7-0.6-2.2c-0.4-0.5-1-0.8-1.7-0.8c-0.7,0-1.3,0.3-1.7,0.8    c-0.4,0.5-0.6,1.2-0.6,2.2c0,1,0.2,1.7,0.6,2.2s1,0.8,1.7,0.8s1.3-0.3,1.7-0.8S290,258,290,257z"/> 		<path style="display:inline;" d="M297.9,258.6c0,0.3-0.1,0.6-0.2,0.8c-0.1,0.3-0.3,0.5-0.6,0.7c-0.3,0.2-0.6,0.4-0.9,0.5    s-0.8,0.2-1.3,0.2c-0.5,0-1,0-1.4-0.1c-0.4-0.1-0.8-0.2-1.3-0.4V259h0.1c0.4,0.3,0.8,0.5,1.3,0.7s0.9,0.2,1.4,0.2    c0.6,0,1.1-0.1,1.4-0.3c0.3-0.2,0.5-0.5,0.5-0.9c0-0.3-0.1-0.6-0.2-0.7c-0.2-0.2-0.4-0.3-0.7-0.4c-0.2-0.1-0.5-0.1-0.8-0.2    c-0.3,0-0.6-0.1-0.9-0.2c-0.6-0.1-1.1-0.4-1.4-0.7c-0.3-0.3-0.5-0.8-0.5-1.3c0-0.6,0.3-1.1,0.8-1.5c0.5-0.4,1.2-0.6,2-0.6    c0.5,0,1,0,1.4,0.1c0.4,0.1,0.8,0.2,1.1,0.4v1.1h-0.1c-0.3-0.2-0.6-0.4-1.1-0.6c-0.5-0.2-0.9-0.2-1.4-0.2c-0.5,0-0.9,0.1-1.2,0.3    c-0.3,0.2-0.5,0.5-0.5,0.8c0,0.3,0.1,0.5,0.2,0.7s0.4,0.3,0.8,0.4c0.2,0,0.5,0.1,0.9,0.2s0.7,0.1,1,0.2c0.5,0.1,0.9,0.4,1.2,0.6    S297.9,258.1,297.9,258.6z"/> 		<path style="display:inline;" d="M302.2,257.9h-3v-0.9h3V257.9z"/> 		<path style="display:inline;" d="M202.9,271.7h-1v-6.3l-2,4.3h-0.6l-2-4.3v6.3h-0.9v-7.3h1.3l1.9,4l1.9-4h1.3V271.7z"/> 		<path style="display:inline;" d="M209.6,271.7h-4.8v-7.3h4.8v0.9h-3.8v2h3.8v0.9h-3.8v2.7h3.8V271.7z"/> 		<path style="display:inline;" d="M217.3,268.1c0,0.7-0.1,1.3-0.4,1.8s-0.7,1-1.1,1.3c-0.3,0.2-0.7,0.4-1.1,0.4    c-0.4,0.1-0.9,0.1-1.6,0.1h-1.8v-7.3h1.8c0.7,0,1.3,0.1,1.7,0.2s0.8,0.2,1.1,0.4c0.5,0.3,0.9,0.7,1.2,1.2    C217.2,266.7,217.3,267.4,217.3,268.1z M216.3,268c0-0.6-0.1-1-0.3-1.4c-0.2-0.4-0.5-0.7-0.9-0.9c-0.3-0.2-0.6-0.3-0.9-0.3    s-0.7-0.1-1.2-0.1h-0.9v5.6h0.9c0.5,0,0.9,0,1.2-0.1s0.7-0.2,1-0.4c0.4-0.2,0.6-0.5,0.8-0.9S216.3,268.6,216.3,268z"/> 		<path style="display:inline;" d="M221.4,271.7h-2.9v-0.7h1v-5.8h-1v-0.7h2.9v0.7h-1v5.8h1V271.7z"/> 		<path style="display:inline;" d="M228.6,271.7h-1.2l-3.4-6.5v6.5h-0.9v-7.3h1.5l3.1,5.9v-5.9h0.9V271.7z"/> 		<path style="display:inline;" d="M236.3,271.7h-1l-0.7-2h-3.1l-0.7,2h-1l2.6-7.3h1.3L236.3,271.7z M234.3,268.8l-1.3-3.6l-1.3,3.6    H234.3z"/> 		<path style="display:inline;" d="M247.1,268.1c0,0.7-0.1,1.3-0.4,1.8s-0.7,1-1.1,1.3c-0.3,0.2-0.7,0.4-1.1,0.4    c-0.4,0.1-0.9,0.1-1.6,0.1h-1.8v-7.3h1.8c0.7,0,1.3,0.1,1.7,0.2c0.4,0.1,0.8,0.2,1.1,0.4c0.5,0.3,0.9,0.7,1.2,1.2    C246.9,266.7,247.1,267.4,247.1,268.1z M246.1,268c0-0.6-0.1-1-0.3-1.4c-0.2-0.4-0.5-0.7-0.9-0.9c-0.3-0.2-0.6-0.3-0.9-0.3    s-0.7-0.1-1.2-0.1h-0.9v5.6h0.9c0.5,0,0.9,0,1.2-0.1s0.7-0.2,1-0.4c0.4-0.2,0.6-0.5,0.8-0.9S246.1,268.6,246.1,268z"/> 		<path style="display:inline;" d="M253.4,271.7h-4.8v-7.3h4.8v0.9h-3.8v2h3.8v0.9h-3.8v2.7h3.8V271.7z"/> 		<path style="display:inline;" d="M264.5,271.7h-1.3l-2.4-2.9h-1.4v2.9h-1v-7.3h2c0.4,0,0.8,0,1.1,0.1s0.6,0.2,0.8,0.3    c0.3,0.2,0.5,0.4,0.6,0.6c0.1,0.3,0.2,0.6,0.2,1c0,0.5-0.1,1-0.4,1.3c-0.3,0.4-0.6,0.6-1.1,0.8L264.5,271.7z M262.2,266.5    c0-0.2,0-0.4-0.1-0.6s-0.2-0.3-0.4-0.4c-0.1-0.1-0.3-0.2-0.5-0.2c-0.2,0-0.4-0.1-0.7-0.1h-1.1v2.7h1c0.3,0,0.6,0,0.8-0.1    c0.2-0.1,0.4-0.2,0.6-0.3c0.1-0.1,0.3-0.3,0.3-0.5C262.2,267,262.2,266.7,262.2,266.5z"/> 		<path style="display:inline;" d="M268,271.7h-2.9v-0.7h1v-5.8h-1v-0.7h2.9v0.7h-1v5.8h1V271.7z"/> 		<path style="display:inline;" d="M275,265.3c0.3,0.3,0.5,0.7,0.7,1.2c0.2,0.5,0.2,1,0.2,1.6s-0.1,1.1-0.2,1.6s-0.4,0.9-0.7,1.2    c-0.3,0.3-0.7,0.6-1.1,0.7c-0.4,0.2-0.9,0.2-1.4,0.2c-0.5,0-1-0.1-1.4-0.3c-0.4-0.2-0.8-0.4-1.1-0.7s-0.5-0.7-0.7-1.2    s-0.2-1-0.2-1.6c0-0.6,0.1-1.1,0.2-1.6c0.2-0.5,0.4-0.9,0.7-1.2c0.3-0.3,0.6-0.6,1.1-0.7c0.4-0.2,0.9-0.3,1.4-0.3    c0.5,0,1,0.1,1.4,0.3C274.4,264.7,274.8,264.9,275,265.3z M275,268.1c0-0.9-0.2-1.7-0.6-2.2s-1-0.8-1.7-0.8    c-0.7,0-1.3,0.3-1.7,0.8c-0.4,0.5-0.6,1.2-0.6,2.2c0,1,0.2,1.7,0.6,2.2c0.4,0.5,1,0.8,1.7,0.8s1.3-0.3,1.7-0.8    C274.7,269.7,275,269,275,268.1z"/> 		<path style="display:inline;" d="M282.8,269.6c0,0.3-0.1,0.6-0.2,0.8s-0.3,0.5-0.6,0.7c-0.3,0.2-0.6,0.4-0.9,0.5s-0.8,0.2-1.3,0.2    c-0.5,0-1,0-1.4-0.1s-0.8-0.2-1.3-0.4V270h0.1c0.4,0.3,0.8,0.5,1.3,0.7c0.5,0.2,0.9,0.2,1.4,0.2c0.6,0,1.1-0.1,1.4-0.3    c0.3-0.2,0.5-0.5,0.5-0.9c0-0.3-0.1-0.6-0.2-0.7c-0.2-0.2-0.4-0.3-0.7-0.4c-0.2-0.1-0.5-0.1-0.8-0.2c-0.3,0-0.6-0.1-0.9-0.2    c-0.6-0.1-1.1-0.4-1.4-0.7c-0.3-0.3-0.5-0.8-0.5-1.3c0-0.6,0.3-1.1,0.8-1.5c0.5-0.4,1.2-0.6,2-0.6c0.5,0,1,0,1.4,0.1    c0.4,0.1,0.8,0.2,1.1,0.4v1.1h-0.1c-0.3-0.2-0.6-0.4-1.1-0.6c-0.5-0.2-0.9-0.2-1.4-0.2c-0.5,0-0.9,0.1-1.2,0.3s-0.5,0.5-0.5,0.8    c0,0.3,0.1,0.5,0.2,0.7c0.2,0.2,0.4,0.3,0.8,0.4c0.2,0,0.5,0.1,0.9,0.2c0.4,0.1,0.7,0.1,1,0.2c0.5,0.1,0.9,0.4,1.2,0.6    S282.8,269.1,282.8,269.6z"/> 		<path style="display:inline;" d="M289.1,271.7h-4.8v-7.3h4.8v0.9h-3.8v2h3.8v0.9h-3.8v2.7h3.8V271.7z"/> 		<path style="display:inline;" d="M296.3,271.2c-0.2,0.1-0.3,0.2-0.5,0.2s-0.3,0.1-0.6,0.2c-0.2,0.1-0.4,0.1-0.6,0.2    c-0.2,0-0.5,0.1-0.8,0.1c-0.5,0-1-0.1-1.4-0.2c-0.4-0.1-0.8-0.4-1.1-0.7c-0.3-0.3-0.6-0.7-0.7-1.2c-0.2-0.5-0.3-1-0.3-1.7    c0-0.6,0.1-1.1,0.3-1.6s0.4-0.9,0.7-1.2c0.3-0.3,0.7-0.6,1.1-0.7c0.4-0.2,0.9-0.2,1.5-0.2c0.4,0,0.8,0,1.2,0.1    c0.4,0.1,0.8,0.3,1.3,0.5v1.1h-0.1c-0.4-0.3-0.8-0.6-1.2-0.7c-0.4-0.2-0.8-0.2-1.3-0.2c-0.4,0-0.7,0.1-1,0.2    c-0.3,0.1-0.6,0.3-0.8,0.6c-0.2,0.2-0.4,0.6-0.5,0.9c-0.1,0.4-0.2,0.8-0.2,1.3c0,0.5,0.1,1,0.2,1.3c0.1,0.4,0.3,0.7,0.5,0.9    c0.2,0.2,0.5,0.4,0.8,0.5c0.3,0.1,0.6,0.2,1,0.2c0.5,0,0.9-0.1,1.3-0.2c0.4-0.2,0.8-0.4,1.1-0.7h0.1V271.2z"/> 		<path style="display:inline;" d="M303.1,265.3c0.3,0.3,0.5,0.7,0.7,1.2c0.2,0.5,0.2,1,0.2,1.6s-0.1,1.1-0.2,1.6s-0.4,0.9-0.7,1.2    c-0.3,0.3-0.7,0.6-1.1,0.7s-0.9,0.2-1.4,0.2c-0.5,0-1-0.1-1.4-0.3c-0.4-0.2-0.8-0.4-1.1-0.7s-0.5-0.7-0.7-1.2    c-0.2-0.5-0.2-1-0.2-1.6c0-0.6,0.1-1.1,0.2-1.6c0.2-0.5,0.4-0.9,0.7-1.2c0.3-0.3,0.6-0.6,1.1-0.7c0.4-0.2,0.9-0.3,1.4-0.3    c0.5,0,1,0.1,1.4,0.3S302.8,264.9,303.1,265.3z M303,268.1c0-0.9-0.2-1.7-0.6-2.2c-0.4-0.5-1-0.8-1.7-0.8c-0.7,0-1.3,0.3-1.7,0.8    c-0.4,0.5-0.6,1.2-0.6,2.2c0,1,0.2,1.7,0.6,2.2c0.4,0.5,1,0.8,1.7,0.8s1.3-0.3,1.7-0.8C302.8,269.7,303,269,303,268.1z"/> 	</g> 	<g> 		<path d="M166.5,133.3h-0.9V127l-1.9,4.3h-0.5l-1.9-4.3v6.3h-0.9V126h1.2l1.8,4l1.8-4h1.3V133.3z"/> 		<path d="M172.3,133.3h-0.9v-0.6c-0.1,0.1-0.2,0.1-0.3,0.2s-0.3,0.2-0.4,0.2c-0.1,0.1-0.3,0.1-0.5,0.2c-0.2,0.1-0.4,0.1-0.7,0.1    c-0.5,0-0.9-0.2-1.2-0.5c-0.3-0.3-0.5-0.7-0.5-1.2c0-0.4,0.1-0.7,0.3-1c0.2-0.3,0.4-0.5,0.7-0.6c0.3-0.1,0.7-0.2,1.1-0.3    s0.9-0.1,1.4-0.1v-0.1c0-0.2,0-0.4-0.1-0.5c-0.1-0.1-0.2-0.2-0.3-0.3c-0.1-0.1-0.3-0.1-0.4-0.2s-0.4,0-0.5,0c-0.2,0-0.5,0-0.8,0.1    s-0.6,0.2-0.9,0.3h0v-0.9c0.2,0,0.4-0.1,0.7-0.2s0.6-0.1,0.9-0.1c0.4,0,0.7,0,0.9,0.1c0.3,0.1,0.5,0.2,0.7,0.3    c0.2,0.1,0.3,0.3,0.4,0.6c0.1,0.2,0.2,0.5,0.2,0.9V133.3z M171.5,131.9v-1.5c-0.3,0-0.6,0-0.9,0.1c-0.4,0-0.6,0.1-0.9,0.1    c-0.2,0.1-0.5,0.2-0.6,0.3s-0.2,0.4-0.2,0.7c0,0.3,0.1,0.5,0.3,0.7c0.2,0.2,0.5,0.2,0.8,0.2c0.3,0,0.6-0.1,0.8-0.2    C171,132.3,171.2,132.1,171.5,131.9z"/> 		<path d="M178.4,127.8l-3,7.5h-0.9l1-2.3l-2.1-5.2h0.9l1.6,4l1.6-4H178.4z"/> 		<path d="M183.8,130.6c0,0.9-0.2,1.6-0.6,2.1s-1,0.8-1.7,0.8c-0.7,0-1.3-0.3-1.7-0.8s-0.6-1.2-0.6-2.1s0.2-1.6,0.6-2.1    s1-0.8,1.7-0.8c0.7,0,1.3,0.3,1.7,0.8S183.8,129.7,183.8,130.6z M182.9,130.6c0-0.7-0.1-1.2-0.4-1.6c-0.3-0.3-0.6-0.5-1.1-0.5    c-0.5,0-0.8,0.2-1.1,0.5c-0.3,0.3-0.4,0.9-0.4,1.6c0,0.7,0.1,1.2,0.4,1.6c0.3,0.4,0.6,0.5,1.1,0.5c0.5,0,0.8-0.2,1.1-0.5    C182.8,131.8,182.9,131.3,182.9,130.6z"/> 		<path d="M188.4,128.8L188.4,128.8c-0.2,0-0.3-0.1-0.4-0.1s-0.3,0-0.4,0c-0.3,0-0.5,0.1-0.8,0.2s-0.5,0.3-0.7,0.5v3.9h-0.9v-5.5    h0.9v0.8c0.3-0.3,0.6-0.5,0.9-0.6s0.5-0.2,0.8-0.2c0.2,0,0.3,0,0.3,0c0.1,0,0.2,0,0.3,0V128.8z"/> 		<path d="M193.4,132.7c0,0.9-0.2,1.6-0.6,2s-1,0.6-1.8,0.6c-0.3,0-0.5,0-0.8-0.1c-0.3,0-0.5-0.1-0.8-0.2v-0.9h0    c0.1,0.1,0.4,0.1,0.7,0.2c0.3,0.1,0.6,0.1,0.9,0.1c0.3,0,0.5,0,0.7-0.1s0.3-0.2,0.5-0.3c0.1-0.1,0.2-0.3,0.2-0.5    c0-0.2,0.1-0.4,0.1-0.6v-0.5c-0.3,0.2-0.5,0.4-0.7,0.5c-0.2,0.1-0.5,0.2-0.9,0.2c-0.6,0-1.1-0.2-1.5-0.7s-0.5-1.1-0.5-2    c0-0.5,0.1-0.9,0.2-1.2s0.3-0.6,0.5-0.9c0.2-0.2,0.4-0.4,0.7-0.5c0.3-0.1,0.6-0.2,0.9-0.2c0.3,0,0.5,0,0.7,0.1    c0.2,0.1,0.4,0.2,0.6,0.3l0.1-0.2h0.8V132.7z M192.5,131.8v-3c-0.2-0.1-0.4-0.2-0.6-0.2s-0.4-0.1-0.6-0.1c-0.5,0-0.9,0.2-1.1,0.5    c-0.3,0.3-0.4,0.8-0.4,1.5c0,0.6,0.1,1.1,0.3,1.4c0.2,0.3,0.5,0.5,1,0.5c0.3,0,0.5-0.1,0.8-0.2C192.1,132.1,192.3,132,192.5,131.8    z"/> 		<path d="M199.1,133.3h-0.9v-0.6c-0.1,0.1-0.2,0.1-0.3,0.2s-0.3,0.2-0.4,0.2c-0.1,0.1-0.3,0.1-0.5,0.2c-0.2,0.1-0.4,0.1-0.7,0.1    c-0.5,0-0.9-0.2-1.2-0.5c-0.3-0.3-0.5-0.7-0.5-1.2c0-0.4,0.1-0.7,0.3-1s0.4-0.5,0.7-0.6c0.3-0.1,0.7-0.2,1.1-0.3s0.9-0.1,1.4-0.1    v-0.1c0-0.2,0-0.4-0.1-0.5c-0.1-0.1-0.2-0.2-0.3-0.3c-0.1-0.1-0.3-0.1-0.4-0.2c-0.2,0-0.4,0-0.5,0c-0.2,0-0.5,0-0.8,0.1    c-0.3,0.1-0.6,0.2-0.9,0.3h0v-0.9c0.2,0,0.4-0.1,0.7-0.2s0.6-0.1,0.9-0.1c0.4,0,0.7,0,0.9,0.1c0.3,0.1,0.5,0.2,0.7,0.3    c0.2,0.1,0.3,0.3,0.4,0.6c0.1,0.2,0.2,0.5,0.2,0.9V133.3z M198.2,131.9v-1.5c-0.3,0-0.6,0-0.9,0.1s-0.6,0.1-0.9,0.1    c-0.2,0.1-0.5,0.2-0.6,0.3s-0.2,0.4-0.2,0.7c0,0.3,0.1,0.5,0.3,0.7c0.2,0.2,0.5,0.2,0.8,0.2c0.3,0,0.6-0.1,0.8-0.2    C197.8,132.3,198,132.1,198.2,131.9z"/> 	</g> 	<g> 		<path d="M290.8,163.5l-2.5,7.3h-1.2l-2.5-7.3h1l2.2,6.4l2.2-6.4H290.8z"/> 		<path d="M292.7,164.4h-1v-1h1V164.4z M292.7,170.8h-0.9v-5.5h0.9V170.8z"/> 		<path d="M295.3,170.8h-0.9v-7.6h0.9V170.8z"/> 		<path d="M297.9,170.8H297v-7.6h0.9V170.8z"/> 		<path d="M303.6,170.8h-0.9v-0.6c-0.1,0.1-0.2,0.1-0.3,0.2s-0.3,0.2-0.4,0.2c-0.1,0.1-0.3,0.1-0.5,0.2c-0.2,0.1-0.4,0.1-0.7,0.1    c-0.5,0-0.9-0.2-1.2-0.5c-0.3-0.3-0.5-0.7-0.5-1.2c0-0.4,0.1-0.7,0.3-1s0.4-0.5,0.7-0.6c0.3-0.1,0.7-0.2,1.1-0.3    c0.4-0.1,0.9-0.1,1.4-0.1V167c0-0.2,0-0.4-0.1-0.5s-0.2-0.2-0.3-0.3c-0.1-0.1-0.3-0.1-0.4-0.2c-0.2,0-0.4,0-0.5,0    c-0.2,0-0.5,0-0.8,0.1c-0.3,0.1-0.6,0.2-0.9,0.3h0v-0.9c0.2,0,0.4-0.1,0.7-0.2c0.3-0.1,0.6-0.1,0.9-0.1c0.4,0,0.7,0,0.9,0.1    s0.5,0.2,0.7,0.3c0.2,0.1,0.3,0.3,0.4,0.6s0.2,0.5,0.2,0.9V170.8z M302.7,169.4v-1.5c-0.3,0-0.6,0-0.9,0.1s-0.6,0.1-0.9,0.1    c-0.2,0.1-0.5,0.2-0.6,0.3c-0.2,0.2-0.2,0.4-0.2,0.7c0,0.3,0.1,0.5,0.3,0.7s0.5,0.2,0.8,0.2c0.3,0,0.6-0.1,0.8-0.2    C302.3,169.8,302.5,169.6,302.7,169.4z"/> 		<path d="M306.1,170.8h-0.9v-7.6h0.9V170.8z"/> 		<path d="M312.2,168.1c0,0.9-0.2,1.6-0.6,2.1s-1,0.8-1.7,0.8c-0.7,0-1.3-0.3-1.7-0.8c-0.4-0.5-0.6-1.2-0.6-2.1s0.2-1.6,0.6-2.1    c0.4-0.5,1-0.8,1.7-0.8c0.7,0,1.3,0.3,1.7,0.8S312.2,167.2,312.2,168.1z M311.3,168.1c0-0.7-0.1-1.2-0.4-1.6    c-0.3-0.3-0.6-0.5-1.1-0.5c-0.5,0-0.8,0.2-1.1,0.5s-0.4,0.9-0.4,1.6c0,0.7,0.1,1.2,0.4,1.6c0.3,0.4,0.6,0.5,1.1,0.5    c0.5,0,0.8-0.2,1.1-0.5S311.3,168.8,311.3,168.1z M311.3,162.6l-1.3,1.8h-0.7l0.8-1.8H311.3z"/> 		<path d="M317.9,170.8H317v-3.1c0-0.3,0-0.5,0-0.7c0-0.2-0.1-0.4-0.2-0.5c-0.1-0.1-0.2-0.2-0.3-0.3c-0.1-0.1-0.3-0.1-0.6-0.1    c-0.2,0-0.5,0.1-0.7,0.2c-0.3,0.1-0.5,0.3-0.7,0.5v4.1h-0.9v-5.5h0.9v0.6c0.3-0.2,0.5-0.4,0.8-0.6c0.3-0.1,0.6-0.2,0.9-0.2    c0.6,0,1,0.2,1.3,0.5c0.3,0.4,0.4,0.9,0.4,1.5V170.8z"/> 		<path d="M289.5,180.8h-0.9v-0.6c-0.2,0.2-0.5,0.4-0.8,0.5s-0.6,0.2-0.9,0.2c-0.6,0-1.1-0.3-1.5-0.8s-0.5-1.2-0.5-2.1    c0-0.5,0.1-0.9,0.2-1.2c0.1-0.4,0.3-0.7,0.5-0.9c0.2-0.2,0.5-0.4,0.7-0.6c0.3-0.1,0.6-0.2,0.9-0.2c0.3,0,0.5,0,0.7,0.1    c0.2,0.1,0.4,0.2,0.7,0.3v-2.4h0.9V180.8z M288.7,179.4v-3.1c-0.2-0.1-0.4-0.2-0.6-0.2s-0.4-0.1-0.6-0.1c-0.5,0-0.9,0.2-1.1,0.5    s-0.4,0.9-0.4,1.5c0,0.6,0.1,1.1,0.3,1.5s0.5,0.5,1,0.5c0.2,0,0.5-0.1,0.7-0.2C288.2,179.8,288.4,179.6,288.7,179.4z"/> 		<path d="M295.5,178.2h-3.8c0,0.3,0,0.6,0.1,0.9s0.2,0.5,0.4,0.6c0.2,0.2,0.3,0.3,0.6,0.4s0.5,0.1,0.7,0.1c0.4,0,0.7-0.1,1.1-0.2    s0.6-0.3,0.8-0.4h0v1c-0.3,0.1-0.6,0.2-0.9,0.3s-0.6,0.1-1,0.1c-0.9,0-1.5-0.2-2-0.7c-0.5-0.5-0.7-1.2-0.7-2.1    c0-0.9,0.2-1.6,0.7-2.1c0.5-0.5,1.1-0.8,1.8-0.8c0.7,0,1.2,0.2,1.6,0.6c0.4,0.4,0.6,1,0.6,1.8V178.2z M294.7,177.5    c0-0.5-0.1-0.9-0.3-1.1c-0.2-0.3-0.6-0.4-1-0.4c-0.5,0-0.8,0.1-1.1,0.4s-0.4,0.6-0.5,1.1H294.7z"/> 		<path d="M305.6,180.3c-0.2,0.1-0.3,0.2-0.5,0.2c-0.1,0.1-0.3,0.1-0.5,0.2c-0.2,0.1-0.4,0.1-0.6,0.2s-0.5,0.1-0.7,0.1    c-0.5,0-1-0.1-1.4-0.2c-0.4-0.1-0.8-0.4-1.1-0.7c-0.3-0.3-0.5-0.7-0.7-1.2c-0.2-0.5-0.2-1-0.2-1.7c0-0.6,0.1-1.1,0.2-1.6    s0.4-0.9,0.7-1.2c0.3-0.3,0.6-0.6,1.1-0.7s0.9-0.2,1.4-0.2c0.4,0,0.7,0,1.1,0.1c0.4,0.1,0.8,0.3,1.2,0.5v1.1h-0.1    c-0.4-0.3-0.8-0.6-1.1-0.7s-0.8-0.2-1.2-0.2c-0.3,0-0.7,0.1-0.9,0.2s-0.5,0.3-0.7,0.6c-0.2,0.2-0.4,0.6-0.5,0.9    c-0.1,0.4-0.2,0.8-0.2,1.3c0,0.5,0.1,1,0.2,1.3c0.1,0.4,0.3,0.7,0.5,0.9c0.2,0.2,0.5,0.4,0.8,0.5c0.3,0.1,0.6,0.2,0.9,0.2    c0.4,0,0.9-0.1,1.2-0.2s0.7-0.4,1.1-0.7h0.1V180.3z"/> 		<path d="M310.8,180.8h-0.9v-0.6c-0.1,0.1-0.2,0.1-0.3,0.2s-0.3,0.2-0.4,0.2c-0.1,0.1-0.3,0.1-0.5,0.2c-0.2,0.1-0.4,0.1-0.7,0.1    c-0.5,0-0.9-0.2-1.2-0.5s-0.5-0.7-0.5-1.2c0-0.4,0.1-0.7,0.3-1c0.2-0.3,0.4-0.5,0.7-0.6c0.3-0.1,0.7-0.2,1.1-0.3    c0.4-0.1,0.9-0.1,1.4-0.1V177c0-0.2,0-0.4-0.1-0.5s-0.2-0.2-0.3-0.3c-0.1-0.1-0.3-0.1-0.4-0.2c-0.2,0-0.4,0-0.5,0    c-0.2,0-0.5,0-0.8,0.1s-0.6,0.2-0.9,0.3h0v-0.9c0.2,0,0.4-0.1,0.7-0.2c0.3-0.1,0.6-0.1,0.9-0.1c0.4,0,0.7,0,0.9,0.1    c0.3,0.1,0.5,0.2,0.7,0.3c0.2,0.1,0.3,0.3,0.4,0.6s0.2,0.5,0.2,0.9V180.8z M309.9,179.4v-1.5c-0.3,0-0.6,0-0.9,0.1    s-0.6,0.1-0.9,0.1c-0.2,0.1-0.5,0.2-0.6,0.3c-0.2,0.2-0.2,0.4-0.2,0.7c0,0.3,0.1,0.5,0.3,0.7c0.2,0.2,0.5,0.2,0.8,0.2    c0.3,0,0.6-0.1,0.8-0.2S309.7,179.6,309.9,179.4z"/> 		<path d="M320,180.8h-0.9v-3.1c0-0.2,0-0.5,0-0.7c0-0.2-0.1-0.4-0.1-0.5c-0.1-0.1-0.2-0.2-0.3-0.3c-0.1-0.1-0.3-0.1-0.6-0.1    c-0.2,0-0.5,0.1-0.7,0.2s-0.5,0.3-0.7,0.5c0,0.1,0,0.2,0,0.3s0,0.2,0,0.3v3.5h-0.9v-3.1c0-0.2,0-0.5,0-0.7c0-0.2-0.1-0.4-0.1-0.5    c-0.1-0.1-0.2-0.2-0.3-0.3c-0.1-0.1-0.3-0.1-0.6-0.1c-0.2,0-0.5,0.1-0.7,0.2s-0.5,0.3-0.7,0.5v4.1h-0.9v-5.5h0.9v0.6    c0.3-0.2,0.5-0.4,0.8-0.6c0.3-0.1,0.6-0.2,0.9-0.2c0.4,0,0.6,0.1,0.9,0.2c0.2,0.2,0.4,0.4,0.5,0.6c0.4-0.3,0.7-0.5,1-0.7    s0.6-0.2,0.9-0.2c0.6,0,1,0.2,1.3,0.5c0.3,0.4,0.4,0.9,0.4,1.5V180.8z"/> 		<path d="M326.2,178c0,0.4-0.1,0.8-0.2,1.2c-0.1,0.4-0.3,0.7-0.5,0.9c-0.2,0.2-0.4,0.4-0.7,0.6s-0.6,0.2-0.9,0.2    c-0.3,0-0.5,0-0.7-0.1s-0.4-0.2-0.7-0.3v2.3h-0.9v-7.5h0.9v0.6c0.2-0.2,0.5-0.4,0.8-0.5c0.3-0.1,0.6-0.2,0.9-0.2    c0.6,0,1.1,0.2,1.5,0.7C326,176.4,326.2,177.1,326.2,178z M325.3,178c0-0.7-0.1-1.1-0.3-1.5s-0.5-0.5-1-0.5    c-0.2,0-0.5,0.1-0.8,0.2s-0.5,0.3-0.7,0.4v3.1c0.2,0.1,0.5,0.2,0.6,0.2s0.4,0.1,0.6,0.1c0.5,0,0.9-0.2,1.1-0.5    S325.3,178.7,325.3,178z"/> 		<path d="M331.9,178.1c0,0.9-0.2,1.6-0.6,2.1s-1,0.8-1.7,0.8c-0.7,0-1.3-0.3-1.7-0.8c-0.4-0.5-0.6-1.2-0.6-2.1s0.2-1.6,0.6-2.1    c0.4-0.5,1-0.8,1.7-0.8c0.7,0,1.3,0.3,1.7,0.8S331.9,177.2,331.9,178.1z M331,178.1c0-0.7-0.1-1.2-0.4-1.6    c-0.3-0.3-0.6-0.5-1.1-0.5c-0.5,0-0.8,0.2-1.1,0.5c-0.3,0.3-0.4,0.9-0.4,1.6c0,0.7,0.1,1.2,0.4,1.6c0.3,0.4,0.6,0.5,1.1,0.5    c0.5,0,0.8-0.2,1.1-0.5C330.9,179.3,331,178.8,331,178.1z"/> 		<path d="M336.6,178.3c0.2,0.2,0.3,0.6,0.3,1c0,0.5-0.2,0.9-0.6,1.2c-0.4,0.3-0.9,0.5-1.6,0.5c-0.4,0-0.7,0-1-0.1    c-0.3-0.1-0.6-0.2-0.8-0.3v-1h0c0.3,0.2,0.6,0.4,0.9,0.5s0.7,0.2,1,0.2c0.4,0,0.7-0.1,0.9-0.2c0.2-0.1,0.3-0.3,0.3-0.6    c0-0.2-0.1-0.4-0.2-0.5c-0.1-0.1-0.3-0.2-0.7-0.3c-0.1,0-0.3-0.1-0.5-0.1s-0.4-0.1-0.5-0.1c-0.5-0.1-0.8-0.3-1-0.6    c-0.2-0.2-0.3-0.5-0.3-0.9c0-0.2,0-0.4,0.1-0.6c0.1-0.2,0.2-0.4,0.4-0.5c0.2-0.2,0.4-0.3,0.7-0.4c0.3-0.1,0.6-0.1,0.9-0.1    c0.3,0,0.6,0,0.9,0.1s0.6,0.2,0.8,0.3v1h0c-0.2-0.2-0.5-0.3-0.8-0.4c-0.3-0.1-0.6-0.2-0.9-0.2c-0.3,0-0.6,0.1-0.8,0.2    c-0.2,0.1-0.3,0.3-0.3,0.6c0,0.2,0.1,0.4,0.2,0.5c0.1,0.1,0.3,0.2,0.6,0.3c0.2,0,0.3,0.1,0.5,0.1s0.4,0.1,0.5,0.1    C336.1,177.9,336.4,178,336.6,178.3L336.6,178.3z"/> 	</g> 	<g> 		<path d="M213,230.2c0,0.4-0.1,0.7-0.2,1c-0.1,0.3-0.3,0.5-0.5,0.7c-0.3,0.2-0.5,0.4-0.9,0.5s-0.7,0.1-1.2,0.1h-2.4v-7.3h2    c0.5,0,0.9,0,1.1,0.1c0.2,0,0.5,0.1,0.7,0.2c0.3,0.1,0.4,0.3,0.5,0.5c0.1,0.2,0.2,0.5,0.2,0.8c0,0.3-0.1,0.6-0.2,0.9    c-0.2,0.2-0.4,0.4-0.7,0.6v0c0.5,0.1,0.8,0.3,1.1,0.6C212.9,229.3,213,229.7,213,230.2z M211.5,226.9c0-0.2,0-0.3-0.1-0.4    c-0.1-0.1-0.1-0.2-0.3-0.3c-0.1-0.1-0.3-0.1-0.5-0.2c-0.2,0-0.5,0-0.8,0h-1.1v2.1h1.2c0.3,0,0.5,0,0.7,0c0.2,0,0.3-0.1,0.5-0.2    s0.2-0.2,0.3-0.4C211.5,227.3,211.5,227.2,211.5,226.9z M212.1,230.3c0-0.3,0-0.5-0.1-0.7s-0.2-0.3-0.5-0.4    c-0.1-0.1-0.3-0.1-0.5-0.2c-0.2,0-0.5,0-0.8,0h-1.4v2.7h1.2c0.4,0,0.7,0,1-0.1s0.5-0.1,0.6-0.2c0.2-0.1,0.3-0.3,0.4-0.4    S212.1,230.5,212.1,230.3z"/> 		<path d="M218.6,229.7c0,0.9-0.2,1.6-0.6,2.1s-1,0.8-1.7,0.8c-0.7,0-1.3-0.3-1.7-0.8c-0.4-0.5-0.6-1.2-0.6-2.1s0.2-1.6,0.6-2.1    c0.4-0.5,1-0.8,1.7-0.8c0.7,0,1.3,0.3,1.7,0.8C218.4,228.1,218.6,228.8,218.6,229.7z M217.8,229.7c0-0.7-0.1-1.2-0.4-1.6    c-0.3-0.3-0.6-0.5-1.1-0.5c-0.5,0-0.8,0.2-1.1,0.5c-0.3,0.3-0.4,0.9-0.4,1.6c0,0.7,0.1,1.2,0.4,1.6c0.3,0.4,0.6,0.5,1.1,0.5    c0.5,0,0.8-0.2,1.1-0.5C217.6,230.9,217.8,230.4,217.8,229.7z"/> 		<path d="M220.9,232.5H220v-7.6h0.9V232.5z"/> 		<path d="M226.6,232.5h-0.9v-0.6c-0.1,0.1-0.2,0.1-0.3,0.2c-0.1,0.1-0.3,0.2-0.4,0.2c-0.1,0.1-0.3,0.1-0.5,0.2    c-0.2,0-0.4,0.1-0.7,0.1c-0.5,0-0.9-0.2-1.2-0.5c-0.3-0.3-0.5-0.7-0.5-1.2c0-0.4,0.1-0.7,0.3-1c0.2-0.3,0.4-0.5,0.7-0.6    c0.3-0.1,0.7-0.2,1.1-0.3s0.9-0.1,1.4-0.1v-0.1c0-0.2,0-0.4-0.1-0.5c-0.1-0.1-0.2-0.2-0.3-0.3c-0.1-0.1-0.3-0.1-0.4-0.2    c-0.2,0-0.4,0-0.5,0c-0.2,0-0.5,0-0.8,0.1c-0.3,0.1-0.6,0.2-0.9,0.3h0v-0.9c0.2,0,0.4-0.1,0.7-0.2s0.6-0.1,0.9-0.1    c0.4,0,0.7,0,0.9,0.1c0.3,0.1,0.5,0.2,0.7,0.3c0.2,0.1,0.3,0.3,0.4,0.6s0.2,0.5,0.2,0.9V232.5z M225.7,231.1v-1.5    c-0.3,0-0.6,0-0.9,0.1s-0.6,0.1-0.9,0.1c-0.2,0.1-0.5,0.2-0.6,0.3c-0.2,0.2-0.2,0.4-0.2,0.7c0,0.3,0.1,0.5,0.3,0.7    c0.2,0.2,0.5,0.2,0.8,0.2c0.3,0,0.6-0.1,0.8-0.2C225.3,231.4,225.5,231.3,225.7,231.1z"/> 		<path d="M232.6,232.5h-0.9v-3.1c0-0.3,0-0.5,0-0.7s-0.1-0.4-0.2-0.5c-0.1-0.1-0.2-0.2-0.3-0.3c-0.1-0.1-0.3-0.1-0.6-0.1    c-0.2,0-0.5,0.1-0.7,0.2c-0.3,0.1-0.5,0.3-0.7,0.5v4.1h-0.9V227h0.9v0.6c0.3-0.2,0.6-0.4,0.8-0.6s0.6-0.2,0.9-0.2    c0.6,0,1,0.2,1.3,0.5c0.3,0.4,0.4,0.9,0.4,1.5V232.5z M232.4,224.5c0,0.5-0.2,0.9-0.4,1.1c-0.2,0.3-0.5,0.4-0.8,0.4    c-0.2,0-0.3,0-0.5-0.1c-0.1-0.1-0.3-0.2-0.4-0.3c-0.1-0.1-0.3-0.2-0.4-0.3c-0.1-0.1-0.2-0.1-0.3-0.1c-0.2,0-0.3,0.1-0.4,0.2    s-0.1,0.3-0.1,0.6h-0.6c0-0.5,0.1-0.9,0.4-1.1c0.2-0.3,0.5-0.4,0.8-0.4c0.2,0,0.3,0,0.4,0.1c0.1,0.1,0.3,0.2,0.4,0.3    c0.1,0.1,0.3,0.2,0.4,0.3c0.1,0.1,0.2,0.1,0.3,0.1c0.2,0,0.3-0.1,0.4-0.2c0.1-0.1,0.1-0.3,0.1-0.6H232.4z"/> 		<path d="M238.6,229.7c0,0.9-0.2,1.6-0.6,2.1s-1,0.8-1.7,0.8c-0.7,0-1.3-0.3-1.7-0.8c-0.4-0.5-0.6-1.2-0.6-2.1s0.2-1.6,0.6-2.1    c0.4-0.5,1-0.8,1.7-0.8c0.7,0,1.3,0.3,1.7,0.8C238.4,228.1,238.6,228.8,238.6,229.7z M237.7,229.7c0-0.7-0.1-1.2-0.4-1.6    c-0.3-0.3-0.6-0.5-1.1-0.5c-0.5,0-0.8,0.2-1.1,0.5c-0.3,0.3-0.4,0.9-0.4,1.6c0,0.7,0.1,1.2,0.4,1.6c0.3,0.4,0.6,0.5,1.1,0.5    c0.5,0,0.8-0.2,1.1-0.5C237.6,230.9,237.7,230.4,237.7,229.7z"/> 		<path d="M243.3,229.9c0.2,0.2,0.3,0.6,0.3,1c0,0.5-0.2,0.9-0.6,1.2c-0.4,0.3-0.9,0.5-1.6,0.5c-0.4,0-0.7,0-1-0.1    c-0.3-0.1-0.6-0.2-0.8-0.3v-1h0c0.3,0.2,0.6,0.4,0.9,0.5c0.3,0.1,0.7,0.2,1,0.2c0.4,0,0.7-0.1,0.9-0.2c0.2-0.1,0.3-0.3,0.3-0.6    c0-0.2-0.1-0.4-0.2-0.5c-0.1-0.1-0.3-0.2-0.7-0.3c-0.1,0-0.3-0.1-0.5-0.1s-0.4-0.1-0.5-0.1c-0.5-0.1-0.8-0.3-1-0.6    c-0.2-0.2-0.3-0.5-0.3-0.9c0-0.2,0-0.4,0.1-0.6c0.1-0.2,0.2-0.4,0.4-0.5c0.2-0.2,0.4-0.3,0.7-0.4c0.3-0.1,0.6-0.1,0.9-0.1    c0.3,0,0.6,0,0.9,0.1c0.3,0.1,0.6,0.2,0.8,0.3v1h0c-0.2-0.2-0.5-0.3-0.8-0.4c-0.3-0.1-0.6-0.2-0.9-0.2c-0.3,0-0.6,0.1-0.8,0.2    c-0.2,0.1-0.3,0.3-0.3,0.6c0,0.2,0.1,0.4,0.2,0.5c0.1,0.1,0.3,0.2,0.6,0.3c0.2,0,0.3,0.1,0.5,0.1c0.2,0,0.4,0.1,0.5,0.1    C242.8,229.5,243.1,229.7,243.3,229.9L243.3,229.9z"/> 		<path d="M196.2,242.5h-0.9v-0.6c-0.2,0.2-0.5,0.4-0.8,0.5c-0.3,0.1-0.6,0.2-0.9,0.2c-0.6,0-1.1-0.3-1.5-0.8s-0.5-1.2-0.5-2.1    c0-0.5,0.1-0.9,0.2-1.2s0.3-0.7,0.5-0.9c0.2-0.2,0.5-0.4,0.7-0.6s0.6-0.2,0.9-0.2c0.3,0,0.5,0,0.7,0.1c0.2,0.1,0.4,0.2,0.7,0.3    v-2.4h0.9V242.5z M195.4,241.1V238c-0.2-0.1-0.4-0.2-0.6-0.2s-0.4-0.1-0.6-0.1c-0.5,0-0.9,0.2-1.1,0.5c-0.3,0.4-0.4,0.9-0.4,1.5    c0,0.6,0.1,1.1,0.3,1.5c0.2,0.3,0.5,0.5,1,0.5c0.2,0,0.5-0.1,0.7-0.2C194.9,241.4,195.1,241.3,195.4,241.1z"/> 		<path d="M202.3,239.8h-3.8c0,0.3,0,0.6,0.1,0.9s0.2,0.5,0.4,0.6c0.2,0.2,0.4,0.3,0.6,0.4c0.2,0.1,0.5,0.1,0.7,0.1    c0.4,0,0.7-0.1,1.1-0.2c0.4-0.1,0.6-0.3,0.8-0.4h0v1c-0.3,0.1-0.6,0.2-0.9,0.3c-0.3,0.1-0.6,0.1-1,0.1c-0.9,0-1.5-0.2-2-0.7    c-0.5-0.5-0.7-1.2-0.7-2.1c0-0.9,0.2-1.6,0.7-2.1s1.1-0.8,1.8-0.8c0.7,0,1.2,0.2,1.6,0.6c0.4,0.4,0.6,1,0.6,1.8V239.8z     M201.4,239.1c0-0.5-0.1-0.9-0.3-1.1s-0.6-0.4-1-0.4c-0.5,0-0.8,0.1-1.1,0.4s-0.4,0.6-0.5,1.1H201.4z"/> 		<path d="M212.3,241.9c-0.2,0.1-0.3,0.2-0.5,0.2s-0.3,0.1-0.5,0.2c-0.2,0.1-0.4,0.1-0.6,0.2s-0.5,0.1-0.7,0.1c-0.5,0-1-0.1-1.4-0.2    c-0.4-0.1-0.8-0.4-1.1-0.7c-0.3-0.3-0.5-0.7-0.7-1.2c-0.2-0.5-0.2-1-0.2-1.7c0-0.6,0.1-1.1,0.2-1.6c0.2-0.5,0.4-0.9,0.7-1.2    c0.3-0.3,0.6-0.6,1.1-0.7c0.4-0.2,0.9-0.2,1.4-0.2c0.4,0,0.7,0,1.1,0.1s0.8,0.3,1.2,0.5v1.1h-0.1c-0.4-0.3-0.8-0.6-1.1-0.7    c-0.4-0.2-0.8-0.2-1.2-0.2c-0.3,0-0.7,0.1-0.9,0.2c-0.3,0.1-0.5,0.3-0.7,0.6c-0.2,0.2-0.4,0.6-0.5,0.9c-0.1,0.4-0.2,0.8-0.2,1.3    c0,0.5,0.1,1,0.2,1.3s0.3,0.7,0.5,0.9c0.2,0.2,0.5,0.4,0.8,0.5c0.3,0.1,0.6,0.2,0.9,0.2c0.4,0,0.9-0.1,1.2-0.2    c0.4-0.2,0.7-0.4,1.1-0.7h0.1V241.9z"/> 		<path d="M217.5,242.5h-0.9v-0.6c-0.1,0.1-0.2,0.1-0.3,0.2c-0.1,0.1-0.3,0.2-0.4,0.2c-0.1,0.1-0.3,0.1-0.5,0.2    c-0.2,0-0.4,0.1-0.7,0.1c-0.5,0-0.9-0.2-1.2-0.5c-0.3-0.3-0.5-0.7-0.5-1.2c0-0.4,0.1-0.7,0.3-1c0.2-0.3,0.4-0.5,0.7-0.6    c0.3-0.1,0.7-0.2,1.1-0.3s0.9-0.1,1.4-0.1v-0.1c0-0.2,0-0.4-0.1-0.5s-0.2-0.2-0.3-0.3c-0.1-0.1-0.3-0.1-0.4-0.2s-0.4,0-0.5,0    c-0.2,0-0.5,0-0.8,0.1s-0.6,0.2-0.9,0.3h0v-0.9c0.2,0,0.4-0.1,0.7-0.2c0.3-0.1,0.6-0.1,0.9-0.1c0.4,0,0.7,0,0.9,0.1    s0.5,0.2,0.7,0.3c0.2,0.1,0.3,0.3,0.4,0.6s0.2,0.5,0.2,0.9V242.5z M216.6,241.1v-1.5c-0.3,0-0.6,0-0.9,0.1s-0.6,0.1-0.9,0.1    c-0.2,0.1-0.5,0.2-0.6,0.3c-0.2,0.2-0.2,0.4-0.2,0.7c0,0.3,0.1,0.5,0.3,0.7c0.2,0.2,0.5,0.2,0.8,0.2c0.3,0,0.6-0.1,0.8-0.2    C216.2,241.4,216.4,241.3,216.6,241.1z"/> 		<path d="M226.7,242.5h-0.9v-3.1c0-0.2,0-0.5,0-0.7s-0.1-0.4-0.1-0.5c-0.1-0.1-0.2-0.2-0.3-0.3s-0.3-0.1-0.6-0.1    c-0.2,0-0.5,0.1-0.7,0.2c-0.2,0.1-0.5,0.3-0.7,0.5c0,0.1,0,0.2,0,0.3c0,0.1,0,0.2,0,0.3v3.5h-0.9v-3.1c0-0.2,0-0.5,0-0.7    c0-0.2-0.1-0.4-0.1-0.5c-0.1-0.1-0.2-0.2-0.3-0.3c-0.1-0.1-0.3-0.1-0.6-0.1c-0.2,0-0.5,0.1-0.7,0.2s-0.5,0.3-0.7,0.5v4.1h-0.9V237    h0.9v0.6c0.3-0.2,0.5-0.4,0.8-0.6c0.3-0.1,0.6-0.2,0.9-0.2c0.4,0,0.6,0.1,0.9,0.2s0.4,0.4,0.5,0.6c0.4-0.3,0.7-0.5,1-0.7    c0.3-0.1,0.6-0.2,0.9-0.2c0.6,0,1,0.2,1.3,0.5c0.3,0.4,0.4,0.9,0.4,1.5V242.5z"/> 		<path d="M232.9,239.7c0,0.4-0.1,0.8-0.2,1.2s-0.3,0.7-0.5,0.9c-0.2,0.2-0.4,0.4-0.7,0.6s-0.6,0.2-0.9,0.2c-0.3,0-0.5,0-0.7-0.1    s-0.4-0.2-0.7-0.3v2.3h-0.9V237h0.9v0.6c0.2-0.2,0.5-0.4,0.8-0.5c0.3-0.1,0.6-0.2,0.9-0.2c0.6,0,1.1,0.2,1.5,0.7    C232.7,238.1,232.9,238.8,232.9,239.7z M232,239.7c0-0.7-0.1-1.1-0.3-1.5c-0.2-0.3-0.5-0.5-1-0.5c-0.3,0-0.5,0.1-0.8,0.2    c-0.3,0.1-0.5,0.3-0.7,0.4v3.1c0.2,0.1,0.5,0.2,0.6,0.2s0.4,0.1,0.6,0.1c0.5,0,0.9-0.2,1.1-0.5C231.9,240.9,232,240.4,232,239.7z"/> 		<path d="M238.6,239.7c0,0.9-0.2,1.6-0.6,2.1s-1,0.8-1.7,0.8c-0.7,0-1.3-0.3-1.7-0.8c-0.4-0.5-0.6-1.2-0.6-2.1s0.2-1.6,0.6-2.1    c0.4-0.5,1-0.8,1.7-0.8c0.7,0,1.3,0.3,1.7,0.8C238.4,238.1,238.6,238.8,238.6,239.7z M237.7,239.7c0-0.7-0.1-1.2-0.4-1.6    c-0.3-0.3-0.6-0.5-1.1-0.5c-0.5,0-0.8,0.2-1.1,0.5c-0.3,0.3-0.4,0.9-0.4,1.6c0,0.7,0.1,1.2,0.4,1.6c0.3,0.4,0.6,0.5,1.1,0.5    c0.5,0,0.8-0.2,1.1-0.5C237.6,240.9,237.7,240.4,237.7,239.7z"/> 		<path d="M243.3,239.9c0.2,0.2,0.3,0.6,0.3,1c0,0.5-0.2,0.9-0.6,1.2c-0.4,0.3-0.9,0.5-1.6,0.5c-0.4,0-0.7,0-1-0.1    c-0.3-0.1-0.6-0.2-0.8-0.3v-1h0c0.3,0.2,0.6,0.4,0.9,0.5c0.3,0.1,0.7,0.2,1,0.2c0.4,0,0.7-0.1,0.9-0.2c0.2-0.1,0.3-0.3,0.3-0.6    c0-0.2-0.1-0.4-0.2-0.5c-0.1-0.1-0.3-0.2-0.7-0.3c-0.1,0-0.3-0.1-0.5-0.1s-0.4-0.1-0.5-0.1c-0.5-0.1-0.8-0.3-1-0.6    c-0.2-0.2-0.3-0.5-0.3-0.9c0-0.2,0-0.4,0.1-0.6s0.2-0.4,0.4-0.5c0.2-0.2,0.4-0.3,0.7-0.4c0.3-0.1,0.6-0.1,0.9-0.1    c0.3,0,0.6,0,0.9,0.1c0.3,0.1,0.6,0.2,0.8,0.3v1h0c-0.2-0.2-0.5-0.3-0.8-0.4c-0.3-0.1-0.6-0.2-0.9-0.2c-0.3,0-0.6,0.1-0.8,0.2    c-0.2,0.1-0.3,0.3-0.3,0.6c0,0.2,0.1,0.4,0.2,0.5c0.1,0.1,0.3,0.2,0.6,0.3c0.2,0,0.3,0.1,0.5,0.1c0.2,0,0.4,0.1,0.5,0.1    C242.8,239.5,243.1,239.7,243.3,239.9L243.3,239.9z"/> 	</g> 	<g> 		<path d="M262,313.1h-0.9v-6.3l-1.9,4.3h-0.5l-1.9-4.3v6.3h-0.9v-7.3h1.2l1.8,4l1.8-4h1.3V313.1z"/> 		<path d="M268.1,310.5h-3.8c0,0.3,0,0.6,0.1,0.9c0.1,0.2,0.2,0.5,0.4,0.6c0.2,0.2,0.3,0.3,0.6,0.4c0.2,0.1,0.5,0.1,0.7,0.1    c0.4,0,0.7-0.1,1.1-0.2c0.4-0.1,0.6-0.3,0.8-0.4h0v1c-0.3,0.1-0.6,0.2-0.9,0.3s-0.6,0.1-1,0.1c-0.9,0-1.5-0.2-2-0.7    c-0.5-0.5-0.7-1.2-0.7-2.1c0-0.9,0.2-1.6,0.7-2.1s1.1-0.8,1.8-0.8c0.7,0,1.2,0.2,1.6,0.6s0.6,1,0.6,1.8V310.5z M267.3,309.8    c0-0.5-0.1-0.9-0.3-1.1c-0.2-0.3-0.6-0.4-1-0.4c-0.5,0-0.8,0.1-1.1,0.4c-0.3,0.3-0.4,0.6-0.5,1.1H267.3z"/> 		<path d="M273.6,313.1h-0.9v-0.6c-0.2,0.2-0.5,0.4-0.8,0.5s-0.6,0.2-0.9,0.2c-0.6,0-1.1-0.3-1.5-0.8c-0.4-0.5-0.5-1.2-0.5-2.1    c0-0.5,0.1-0.9,0.2-1.2c0.1-0.4,0.3-0.7,0.5-0.9c0.2-0.2,0.5-0.4,0.7-0.6s0.6-0.2,0.9-0.2c0.3,0,0.5,0,0.7,0.1    c0.2,0.1,0.4,0.2,0.7,0.3v-2.4h0.9V313.1z M272.8,311.8v-3.1c-0.2-0.1-0.4-0.2-0.6-0.2s-0.4-0.1-0.6-0.1c-0.5,0-0.9,0.2-1.1,0.5    c-0.3,0.4-0.4,0.9-0.4,1.5c0,0.6,0.1,1.1,0.3,1.5s0.5,0.5,1,0.5c0.2,0,0.5-0.1,0.7-0.2C272.3,312.1,272.5,312,272.8,311.8z"/> 		<path d="M276.3,306.8h-1v-1h1V306.8z M276.2,313.1h-0.9v-5.5h0.9V313.1z"/> 		<path d="M282.2,313.1h-0.9V310c0-0.3,0-0.5,0-0.7c0-0.2-0.1-0.4-0.2-0.5c-0.1-0.1-0.2-0.2-0.3-0.3c-0.1-0.1-0.3-0.1-0.6-0.1    c-0.2,0-0.5,0.1-0.7,0.2c-0.3,0.1-0.5,0.3-0.7,0.5v4.1h-0.9v-5.5h0.9v0.6c0.3-0.2,0.5-0.4,0.8-0.6c0.3-0.1,0.6-0.2,0.9-0.2    c0.6,0,1,0.2,1.3,0.5c0.3,0.4,0.4,0.9,0.4,1.5V313.1z"/> 		<path d="M287.9,313.1h-0.9v-0.6c-0.1,0.1-0.2,0.1-0.3,0.2c-0.1,0.1-0.3,0.2-0.4,0.2c-0.1,0.1-0.3,0.1-0.5,0.2    c-0.2,0-0.4,0.1-0.7,0.1c-0.5,0-0.9-0.2-1.2-0.5s-0.5-0.7-0.5-1.2c0-0.4,0.1-0.7,0.3-1c0.2-0.3,0.4-0.5,0.7-0.6    c0.3-0.1,0.7-0.2,1.1-0.3c0.4-0.1,0.9-0.1,1.4-0.1v-0.1c0-0.2,0-0.4-0.1-0.5s-0.2-0.2-0.3-0.3c-0.1-0.1-0.3-0.1-0.4-0.2    c-0.2,0-0.4,0-0.5,0c-0.2,0-0.5,0-0.8,0.1c-0.3,0.1-0.6,0.2-0.9,0.3h0v-0.9c0.2,0,0.4-0.1,0.7-0.2s0.6-0.1,0.9-0.1    c0.4,0,0.7,0,0.9,0.1c0.3,0.1,0.5,0.2,0.7,0.3c0.2,0.1,0.3,0.3,0.4,0.6s0.2,0.5,0.2,0.9V313.1z M287.1,311.8v-1.5    c-0.3,0-0.6,0-0.9,0.1s-0.6,0.1-0.9,0.1c-0.2,0.1-0.5,0.2-0.6,0.3c-0.2,0.2-0.2,0.4-0.2,0.7c0,0.3,0.1,0.5,0.3,0.7    c0.2,0.2,0.5,0.2,0.8,0.2c0.3,0,0.6-0.1,0.8-0.2C286.6,312.1,286.8,312,287.1,311.8z"/> 		<path d="M297.1,313.1h-0.9v-0.6c-0.2,0.2-0.5,0.4-0.8,0.5s-0.6,0.2-0.9,0.2c-0.6,0-1.1-0.3-1.5-0.8s-0.5-1.2-0.5-2.1    c0-0.5,0.1-0.9,0.2-1.2c0.1-0.4,0.3-0.7,0.5-0.9c0.2-0.2,0.5-0.4,0.7-0.6s0.6-0.2,0.9-0.2c0.3,0,0.5,0,0.7,0.1    c0.2,0.1,0.4,0.2,0.7,0.3v-2.4h0.9V313.1z M296.2,311.8v-3.1c-0.2-0.1-0.4-0.2-0.6-0.2s-0.4-0.1-0.6-0.1c-0.5,0-0.9,0.2-1.1,0.5    c-0.3,0.4-0.4,0.9-0.4,1.5c0,0.6,0.1,1.1,0.3,1.5s0.5,0.5,1,0.5c0.2,0,0.5-0.1,0.7-0.2C295.8,312.1,296,312,296.2,311.8z"/> 		<path d="M303.1,310.5h-3.8c0,0.3,0,0.6,0.1,0.9c0.1,0.2,0.2,0.5,0.4,0.6c0.2,0.2,0.3,0.3,0.6,0.4c0.2,0.1,0.5,0.1,0.7,0.1    c0.4,0,0.7-0.1,1.1-0.2c0.4-0.1,0.6-0.3,0.8-0.4h0v1c-0.3,0.1-0.6,0.2-0.9,0.3s-0.6,0.1-1,0.1c-0.9,0-1.5-0.2-2-0.7    c-0.5-0.5-0.7-1.2-0.7-2.1c0-0.9,0.2-1.6,0.7-2.1s1.1-0.8,1.8-0.8c0.7,0,1.2,0.2,1.6,0.6s0.6,1,0.6,1.8V310.5z M302.3,309.8    c0-0.5-0.1-0.9-0.3-1.1c-0.2-0.3-0.6-0.4-1-0.4c-0.5,0-0.8,0.1-1.1,0.4s-0.4,0.6-0.5,1.1H302.3z"/> 		<path d="M274.1,323.1h-1.2l-2.3-2.9h-1.3v2.9h-0.9v-7.3h1.9c0.4,0,0.8,0,1,0.1c0.3,0.1,0.5,0.2,0.7,0.3c0.2,0.2,0.4,0.4,0.6,0.6    c0.1,0.3,0.2,0.6,0.2,1c0,0.5-0.1,1-0.4,1.3c-0.2,0.4-0.6,0.6-1,0.8L274.1,323.1z M271.9,317.9c0-0.2,0-0.4-0.1-0.6    c-0.1-0.2-0.2-0.3-0.3-0.4c-0.1-0.1-0.3-0.2-0.5-0.2c-0.2,0-0.4-0.1-0.6-0.1h-1.1v2.7h0.9c0.3,0,0.5,0,0.8-0.1    c0.2-0.1,0.4-0.2,0.5-0.3c0.1-0.1,0.2-0.3,0.3-0.5C271.9,318.4,271.9,318.2,271.9,317.9z"/> 		<path d="M275.8,316.8h-1v-1h1V316.8z M275.8,323.1h-0.9v-5.5h0.9V323.1z"/> 		<path d="M281.9,320.4c0,0.9-0.2,1.6-0.6,2.1s-1,0.8-1.7,0.8c-0.7,0-1.3-0.3-1.7-0.8c-0.4-0.5-0.6-1.2-0.6-2.1s0.2-1.6,0.6-2.1    c0.4-0.5,1-0.8,1.7-0.8c0.7,0,1.3,0.3,1.7,0.8C281.6,318.8,281.9,319.5,281.9,320.4z M281,320.4c0-0.7-0.1-1.2-0.4-1.6    c-0.3-0.3-0.6-0.5-1.1-0.5c-0.5,0-0.8,0.2-1.1,0.5c-0.3,0.3-0.4,0.9-0.4,1.6c0,0.7,0.1,1.2,0.4,1.6c0.3,0.4,0.6,0.5,1.1,0.5    c0.5,0,0.8-0.2,1.1-0.5C280.8,321.6,281,321.1,281,320.4z"/> 		<path d="M286.6,320.6c0.2,0.2,0.3,0.6,0.3,1c0,0.5-0.2,0.9-0.6,1.2c-0.4,0.3-0.9,0.5-1.6,0.5c-0.4,0-0.7,0-1-0.1    c-0.3-0.1-0.6-0.2-0.8-0.3v-1h0c0.3,0.2,0.6,0.4,0.9,0.5c0.3,0.1,0.7,0.2,1,0.2c0.4,0,0.7-0.1,0.9-0.2c0.2-0.1,0.3-0.3,0.3-0.6    c0-0.2-0.1-0.4-0.2-0.5s-0.3-0.2-0.7-0.3c-0.1,0-0.3-0.1-0.5-0.1s-0.4-0.1-0.5-0.1c-0.5-0.1-0.8-0.3-1-0.6    c-0.2-0.2-0.3-0.5-0.3-0.9c0-0.2,0-0.4,0.1-0.6s0.2-0.4,0.4-0.5c0.2-0.2,0.4-0.3,0.7-0.4c0.3-0.1,0.6-0.1,0.9-0.1    c0.3,0,0.6,0,0.9,0.1c0.3,0.1,0.6,0.2,0.8,0.3v1h0c-0.2-0.2-0.5-0.3-0.8-0.4c-0.3-0.1-0.6-0.2-0.9-0.2c-0.3,0-0.6,0.1-0.8,0.2    c-0.2,0.1-0.3,0.3-0.3,0.6c0,0.2,0.1,0.4,0.2,0.5c0.1,0.1,0.3,0.2,0.6,0.3c0.2,0,0.3,0.1,0.5,0.1s0.4,0.1,0.5,0.1    C286,320.2,286.3,320.4,286.6,320.6L286.6,320.6z"/> 		<path d="M292.4,320.5h-3.8c0,0.3,0,0.6,0.1,0.9c0.1,0.2,0.2,0.5,0.4,0.6c0.2,0.2,0.3,0.3,0.6,0.4c0.2,0.1,0.5,0.1,0.7,0.1    c0.4,0,0.7-0.1,1.1-0.2c0.4-0.1,0.6-0.3,0.8-0.4h0v1c-0.3,0.1-0.6,0.2-0.9,0.3s-0.6,0.1-1,0.1c-0.9,0-1.5-0.2-2-0.7    c-0.5-0.5-0.7-1.2-0.7-2.1c0-0.9,0.2-1.6,0.7-2.1s1.1-0.8,1.8-0.8c0.7,0,1.2,0.2,1.6,0.6s0.6,1,0.6,1.8V320.5z M291.6,319.8    c0-0.5-0.1-0.9-0.3-1.1c-0.2-0.3-0.6-0.4-1-0.4c-0.5,0-0.8,0.1-1.1,0.4c-0.3,0.3-0.4,0.6-0.5,1.1H291.6z"/> 		<path d="M297.6,322.8c-0.3,0.1-0.6,0.3-0.8,0.3c-0.3,0.1-0.5,0.1-0.8,0.1c-0.4,0-0.7-0.1-1-0.2c-0.3-0.1-0.6-0.3-0.8-0.5    c-0.2-0.2-0.4-0.5-0.5-0.9s-0.2-0.8-0.2-1.3c0-0.9,0.2-1.6,0.7-2.1s1.1-0.8,1.8-0.8c0.3,0,0.6,0,0.9,0.1s0.5,0.2,0.8,0.3v1h0    c-0.3-0.2-0.5-0.4-0.8-0.5s-0.6-0.2-0.8-0.2c-0.5,0-0.9,0.2-1.2,0.5c-0.3,0.3-0.4,0.9-0.4,1.5c0,0.7,0.1,1.2,0.4,1.5    c0.3,0.4,0.7,0.5,1.2,0.5c0.2,0,0.4,0,0.5-0.1s0.3-0.1,0.5-0.2c0.1-0.1,0.2-0.1,0.4-0.2c0.1-0.1,0.2-0.1,0.3-0.2h0V322.8z"/> 		<path d="M303.1,320.4c0,0.9-0.2,1.6-0.6,2.1s-1,0.8-1.7,0.8c-0.7,0-1.3-0.3-1.7-0.8c-0.4-0.5-0.6-1.2-0.6-2.1s0.2-1.6,0.6-2.1    c0.4-0.5,1-0.8,1.7-0.8c0.7,0,1.3,0.3,1.7,0.8C302.9,318.8,303.1,319.5,303.1,320.4z M302.2,320.4c0-0.7-0.1-1.2-0.4-1.6    c-0.3-0.3-0.6-0.5-1.1-0.5c-0.5,0-0.8,0.2-1.1,0.5c-0.3,0.3-0.4,0.9-0.4,1.6c0,0.7,0.1,1.2,0.4,1.6c0.3,0.4,0.6,0.5,1.1,0.5    c0.5,0,0.8-0.2,1.1-0.5C302,321.6,302.2,321.1,302.2,320.4z"/> 	</g> 	<g> 		<path d="M223.1,371.1c-0.2,0.1-0.3,0.2-0.5,0.2c-0.1,0.1-0.3,0.1-0.5,0.2c-0.2,0.1-0.4,0.1-0.6,0.2c-0.2,0-0.5,0.1-0.7,0.1    c-0.5,0-1-0.1-1.4-0.2c-0.4-0.1-0.8-0.4-1.1-0.7c-0.3-0.3-0.5-0.7-0.7-1.2c-0.2-0.5-0.2-1-0.2-1.7c0-0.6,0.1-1.1,0.2-1.6    c0.2-0.5,0.4-0.9,0.7-1.2c0.3-0.3,0.6-0.6,1.1-0.7c0.4-0.2,0.9-0.2,1.4-0.2c0.4,0,0.7,0,1.1,0.1c0.4,0.1,0.8,0.3,1.2,0.5v1.1H223    c-0.4-0.3-0.8-0.6-1.1-0.7s-0.8-0.2-1.2-0.2c-0.3,0-0.7,0.1-0.9,0.2c-0.3,0.1-0.5,0.3-0.7,0.6c-0.2,0.2-0.4,0.6-0.5,0.9    c-0.1,0.4-0.2,0.8-0.2,1.3c0,0.5,0.1,1,0.2,1.3s0.3,0.7,0.5,0.9c0.2,0.2,0.5,0.4,0.8,0.5c0.3,0.1,0.6,0.2,0.9,0.2    c0.4,0,0.9-0.1,1.2-0.2s0.7-0.4,1.1-0.7h0.1V371.1z"/> 		<path d="M228.3,371.6h-0.9V371c-0.1,0.1-0.2,0.1-0.3,0.2c-0.1,0.1-0.3,0.2-0.4,0.2c-0.1,0.1-0.3,0.1-0.5,0.2    c-0.2,0-0.4,0.1-0.7,0.1c-0.5,0-0.9-0.2-1.2-0.5c-0.3-0.3-0.5-0.7-0.5-1.2c0-0.4,0.1-0.7,0.3-1c0.2-0.3,0.4-0.5,0.7-0.6    c0.3-0.1,0.7-0.2,1.1-0.3c0.4-0.1,0.9-0.1,1.4-0.1v-0.1c0-0.2,0-0.4-0.1-0.5c-0.1-0.1-0.2-0.2-0.3-0.3c-0.1-0.1-0.3-0.1-0.4-0.2    c-0.2,0-0.4,0-0.5,0c-0.2,0-0.5,0-0.8,0.1c-0.3,0.1-0.6,0.2-0.9,0.3h0v-0.9c0.2,0,0.4-0.1,0.7-0.2s0.6-0.1,0.9-0.1    c0.4,0,0.7,0,0.9,0.1s0.5,0.2,0.7,0.3c0.2,0.1,0.3,0.3,0.4,0.6c0.1,0.2,0.2,0.5,0.2,0.9V371.6z M227.4,370.3v-1.5    c-0.3,0-0.6,0-0.9,0.1s-0.6,0.1-0.9,0.1c-0.2,0.1-0.5,0.2-0.6,0.3c-0.2,0.2-0.2,0.4-0.2,0.7c0,0.3,0.1,0.5,0.3,0.7    c0.2,0.2,0.5,0.2,0.8,0.2c0.3,0,0.6-0.1,0.8-0.2C227,370.6,227.2,370.5,227.4,370.3z"/> 		<path d="M233.3,369.1c0.2,0.2,0.3,0.6,0.3,1c0,0.5-0.2,0.9-0.6,1.2c-0.4,0.3-0.9,0.5-1.6,0.5c-0.4,0-0.7,0-1-0.1    c-0.3-0.1-0.6-0.2-0.8-0.3v-1h0c0.3,0.2,0.6,0.4,0.9,0.5c0.3,0.1,0.7,0.2,1,0.2c0.4,0,0.7-0.1,0.9-0.2c0.2-0.1,0.3-0.3,0.3-0.6    c0-0.2-0.1-0.4-0.2-0.5c-0.1-0.1-0.3-0.2-0.7-0.3c-0.1,0-0.3-0.1-0.5-0.1s-0.4-0.1-0.5-0.1c-0.5-0.1-0.8-0.3-1-0.6    c-0.2-0.2-0.3-0.5-0.3-0.9c0-0.2,0-0.4,0.1-0.6s0.2-0.4,0.4-0.5c0.2-0.2,0.4-0.3,0.7-0.4c0.3-0.1,0.6-0.1,0.9-0.1    c0.3,0,0.6,0,0.9,0.1c0.3,0.1,0.6,0.2,0.8,0.3v1h0c-0.2-0.2-0.5-0.3-0.8-0.4c-0.3-0.1-0.6-0.2-0.9-0.2c-0.3,0-0.6,0.1-0.8,0.2    c-0.2,0.1-0.3,0.3-0.3,0.6c0,0.2,0.1,0.4,0.2,0.5c0.1,0.1,0.3,0.2,0.6,0.3c0.2,0,0.3,0.1,0.5,0.1c0.2,0,0.4,0.1,0.5,0.1    C232.8,368.7,233.1,368.9,233.3,369.1L233.3,369.1z"/> 		<path d="M237.6,371.6c-0.2,0-0.3,0.1-0.5,0.1s-0.4,0-0.5,0c-0.5,0-0.9-0.1-1.2-0.4s-0.4-0.8-0.4-1.4v-2.9h-0.6v-0.8h0.6v-1.6h0.9    v1.6h1.8v0.8h-1.8v2.5c0,0.3,0,0.5,0,0.7c0,0.2,0.1,0.3,0.1,0.5c0.1,0.1,0.2,0.2,0.3,0.3c0.1,0.1,0.3,0.1,0.5,0.1    c0.1,0,0.3,0,0.4-0.1c0.2,0,0.3-0.1,0.3-0.1h0V371.6z"/> 		<path d="M241.8,367.2L241.8,367.2c-0.2,0-0.3-0.1-0.4-0.1c-0.1,0-0.3,0-0.4,0c-0.3,0-0.5,0.1-0.8,0.2c-0.3,0.1-0.5,0.3-0.7,0.5    v3.9h-0.9v-5.5h0.9v0.8c0.3-0.3,0.6-0.5,0.9-0.6c0.3-0.1,0.5-0.2,0.8-0.2c0.2,0,0.3,0,0.3,0c0.1,0,0.2,0,0.3,0V367.2z"/> 		<path d="M247,368.9c0,0.9-0.2,1.6-0.6,2.1s-1,0.8-1.7,0.8c-0.7,0-1.3-0.3-1.7-0.8c-0.4-0.5-0.6-1.2-0.6-2.1s0.2-1.6,0.6-2.1    c0.4-0.5,1-0.8,1.7-0.8c0.7,0,1.3,0.3,1.7,0.8C246.8,367.3,247,368,247,368.9z M246.1,368.9c0-0.7-0.1-1.2-0.4-1.6    c-0.3-0.3-0.6-0.5-1.1-0.5c-0.5,0-0.8,0.2-1.1,0.5c-0.3,0.3-0.4,0.9-0.4,1.6c0,0.7,0.1,1.2,0.4,1.6c0.3,0.4,0.6,0.5,1.1,0.5    c0.5,0,0.8-0.2,1.1-0.5C246,370.1,246.1,369.6,246.1,368.9z"/> 		<path d="M255.9,371.6H255v-3.1c0-0.2,0-0.5,0-0.7c0-0.2-0.1-0.4-0.1-0.5c-0.1-0.1-0.2-0.2-0.3-0.3c-0.1-0.1-0.3-0.1-0.6-0.1    c-0.2,0-0.5,0.1-0.7,0.2c-0.2,0.1-0.5,0.3-0.7,0.5c0,0.1,0,0.2,0,0.3c0,0.1,0,0.2,0,0.3v3.5h-0.9v-3.1c0-0.2,0-0.5,0-0.7    c0-0.2-0.1-0.4-0.1-0.5c-0.1-0.1-0.2-0.2-0.3-0.3c-0.1-0.1-0.3-0.1-0.6-0.1c-0.2,0-0.5,0.1-0.7,0.2c-0.2,0.1-0.5,0.3-0.7,0.5v4.1    h-0.9v-5.5h0.9v0.6c0.3-0.2,0.5-0.4,0.8-0.6c0.3-0.1,0.6-0.2,0.9-0.2c0.4,0,0.6,0.1,0.9,0.2c0.2,0.2,0.4,0.4,0.5,0.6    c0.4-0.3,0.7-0.5,1-0.7c0.3-0.1,0.6-0.2,0.9-0.2c0.6,0,1,0.2,1.3,0.5c0.3,0.4,0.4,0.9,0.4,1.5V371.6z"/> 		<path d="M262,368.9c0,0.9-0.2,1.6-0.6,2.1s-1,0.8-1.7,0.8c-0.7,0-1.3-0.3-1.7-0.8c-0.4-0.5-0.6-1.2-0.6-2.1s0.2-1.6,0.6-2.1    c0.4-0.5,1-0.8,1.7-0.8c0.7,0,1.3,0.3,1.7,0.8C261.7,367.3,262,368,262,368.9z M261.1,368.9c0-0.7-0.1-1.2-0.4-1.6    c-0.3-0.3-0.6-0.5-1.1-0.5c-0.5,0-0.8,0.2-1.1,0.5c-0.3,0.3-0.4,0.9-0.4,1.6c0,0.7,0.1,1.2,0.4,1.6c0.3,0.4,0.6,0.5,1.1,0.5    c0.5,0,0.8-0.2,1.1-0.5C260.9,370.1,261.1,369.6,261.1,368.9z"/> 		<path d="M267.6,371.6h-0.9v-3.1c0-0.3,0-0.5,0-0.7s-0.1-0.4-0.2-0.5c-0.1-0.1-0.2-0.2-0.3-0.3c-0.1-0.1-0.3-0.1-0.6-0.1    c-0.2,0-0.5,0.1-0.7,0.2c-0.3,0.1-0.5,0.3-0.7,0.5v4.1h-0.9v-5.5h0.9v0.6c0.3-0.2,0.6-0.4,0.8-0.6s0.6-0.2,0.9-0.2    c0.6,0,1,0.2,1.3,0.5s0.4,0.9,0.4,1.5V371.6z"/> 		<path d="M272,371.6c-0.2,0-0.3,0.1-0.5,0.1s-0.4,0-0.5,0c-0.5,0-0.9-0.1-1.2-0.4c-0.3-0.3-0.4-0.8-0.4-1.4v-2.9h-0.6v-0.8h0.6    v-1.6h0.9v1.6h1.8v0.8h-1.8v2.5c0,0.3,0,0.5,0,0.7c0,0.2,0.1,0.3,0.1,0.5c0.1,0.1,0.2,0.2,0.3,0.3c0.1,0.1,0.3,0.1,0.5,0.1    c0.1,0,0.3,0,0.4-0.1c0.2,0,0.3-0.1,0.3-0.1h0V371.6z"/> 		<path d="M277.3,369h-3.8c0,0.3,0,0.6,0.1,0.9c0.1,0.2,0.2,0.5,0.4,0.6c0.2,0.2,0.3,0.3,0.6,0.4c0.2,0.1,0.5,0.1,0.7,0.1    c0.4,0,0.7-0.1,1.1-0.2c0.4-0.1,0.6-0.3,0.8-0.4h0v1c-0.3,0.1-0.6,0.2-0.9,0.3s-0.6,0.1-1,0.1c-0.9,0-1.5-0.2-2-0.7    c-0.5-0.5-0.7-1.2-0.7-2.1c0-0.9,0.2-1.6,0.7-2.1s1.1-0.8,1.8-0.8c0.7,0,1.2,0.2,1.6,0.6s0.6,1,0.6,1.8V369z M276.5,368.3    c0-0.5-0.1-0.9-0.3-1.1c-0.2-0.3-0.6-0.4-1-0.4c-0.5,0-0.8,0.1-1.1,0.4c-0.3,0.3-0.4,0.6-0.5,1.1H276.5z"/> 	</g> </g> <g id="llegenda"> 	<g> 	</g> 	<line style="fill:none;stroke:#9A9A9A;stroke-width:2;stroke-miterlimit:10;" x1="232.2" y1="-188.2" x2="232.2" y2="-158.7"/> 	<line style="fill:none;stroke:#9A9A9A;stroke-miterlimit:10;" x1="265.6" y1="-188.2" x2="265.6" y2="-158.7"/> 	<g> 		<path d="M239.9-177.8h0.9v7.1h-0.9V-177.8z"/> 		<path d="M243.2-176.9c0,0.3-0.2,0.5-0.6,0.5c-0.3,0-0.5-0.2-0.5-0.5s0.2-0.5,0.6-0.5C243-177.4,243.2-177.2,243.2-176.9z     M242.3-170.7v-4.8h0.9v4.8H242.3z"/> 		<path d="M244.6-174.2c0-0.5,0-0.9,0-1.3h0.8l0.1,0.8h0c0.2-0.4,0.8-0.9,1.6-0.9c0.7,0,1.7,0.4,1.7,2.1v2.9h-0.9v-2.8    c0-0.8-0.3-1.4-1.1-1.4c-0.6,0-1,0.4-1.2,0.9c0,0.1-0.1,0.3-0.1,0.4v2.9h-0.9V-174.2z"/> 	</g> 	<line style="fill:none;stroke:#696969;stroke-width:2;stroke-miterlimit:10;" x1="232.2" y1="-148.6" x2="232.2" y2="-119.1"/> 	<g> 		<path d="M239.9-138.2h0.9v7.1h-0.9V-138.2z"/> 		<path d="M243.2-137.3c0,0.3-0.2,0.5-0.6,0.5c-0.3,0-0.5-0.2-0.5-0.5s0.2-0.5,0.6-0.5C243-137.8,243.2-137.6,243.2-137.3z     M242.3-131.1v-4.8h0.9v4.8H242.3z"/> 		<path d="M244.6-134.6c0-0.5,0-0.9,0-1.3h0.8l0.1,0.8h0c0.2-0.4,0.8-0.9,1.6-0.9c0.7,0,1.7,0.4,1.7,2.1v2.9h-0.9v-2.8    c0-0.8-0.3-1.4-1.1-1.4c-0.6,0-1,0.4-1.2,0.9c0,0.1-0.1,0.3-0.1,0.4v2.9h-0.9V-134.6z"/> 	</g> 	<rect x="226.8" y="-212.7" style="fill:#BFBFBF;" width="16.3" height="15.3"/> 	<rect x="226.8" y="-240.4" style="fill:#DCE9FB;" width="16.3" height="15.3"/> 	<rect x="195.4" y="-240.4" style="fill:#D0E0A4;" width="16.3" height="15.3"/> 	<g> 		<path d="M252.3-203.4v-4.2h-0.7v-0.7h0.7v-0.2c0-0.7,0.2-1.3,0.6-1.7c0.3-0.3,0.8-0.4,1.2-0.4c0.3,0,0.6,0.1,0.8,0.1l-0.1,0.7    c-0.1-0.1-0.3-0.1-0.6-0.1c-0.8,0-0.9,0.6-0.9,1.4v0.3h1.2v0.7h-1.2v4.2H252.3z"/> 		<path d="M259.4-205.9c0,1.8-1.2,2.6-2.4,2.6c-1.3,0-2.3-1-2.3-2.5c0-1.6,1.1-2.6,2.4-2.6C258.5-208.3,259.4-207.3,259.4-205.9z     M255.6-205.8c0,1.1,0.6,1.9,1.5,1.9c0.8,0,1.5-0.8,1.5-1.9c0-0.8-0.4-1.8-1.4-1.8C256-207.7,255.6-206.7,255.6-205.8z"/> 		<path d="M260.5-206.9c0-0.5,0-0.9,0-1.3h0.8l0,0.8h0c0.2-0.4,0.8-0.9,1.6-0.9c0.7,0,1.7,0.4,1.7,2.1v2.9h-0.9v-2.8    c0-0.8-0.3-1.4-1.1-1.4c-0.6,0-1,0.4-1.2,0.9c0,0.1-0.1,0.3-0.1,0.4v2.9h-0.9V-206.9z"/> 		<path d="M266-204.3c0.3,0.2,0.7,0.3,1.2,0.3c0.6,0,0.9-0.3,0.9-0.7c0-0.4-0.3-0.6-0.9-0.9c-0.9-0.3-1.3-0.8-1.3-1.4    c0-0.8,0.6-1.4,1.7-1.4c0.5,0,0.9,0.1,1.2,0.3l-0.2,0.6c-0.2-0.1-0.5-0.3-1-0.3c-0.5,0-0.8,0.3-0.8,0.7c0,0.4,0.3,0.6,0.9,0.8    c0.8,0.3,1.3,0.7,1.3,1.4c0,0.9-0.7,1.5-1.8,1.5c-0.5,0-1-0.1-1.4-0.3L266-204.3z"/> 	</g> 	<g> 		<path d="M252.2-234.3c0-0.5,0-0.9,0-1.3h0.8l0,0.8h0c0.3-0.5,0.7-0.9,1.5-0.9c0.6,0,1.1,0.4,1.4,1h0c0.2-0.3,0.3-0.5,0.5-0.6    c0.3-0.2,0.6-0.3,1.1-0.3c0.6,0,1.6,0.4,1.6,2.1v2.8h-0.9v-2.7c0-0.9-0.3-1.5-1-1.5c-0.5,0-0.9,0.4-1,0.8c0,0.1-0.1,0.3-0.1,0.4v3    h-0.9v-2.9c0-0.8-0.3-1.3-1-1.3c-0.5,0-0.9,0.4-1.1,0.9c0,0.1-0.1,0.3-0.1,0.4v2.9h-0.9V-234.3z"/> 		<path d="M264-231.9c0,0.4,0,0.8,0.1,1.2h-0.8l-0.1-0.6h0c-0.3,0.4-0.8,0.7-1.5,0.7c-1,0-1.5-0.7-1.5-1.4c0-1.2,1-1.8,2.9-1.8v-0.1    c0-0.4-0.1-1.1-1.1-1.1c-0.5,0-0.9,0.1-1.3,0.4l-0.2-0.6c0.4-0.3,1-0.4,1.6-0.4c1.5,0,1.8,1,1.8,2V-231.9z M263.1-233.2    c-1,0-2,0.1-2,1.1c0,0.6,0.4,0.8,0.8,0.8c0.6,0,1-0.4,1.2-0.8c0-0.1,0-0.2,0-0.3V-233.2z"/> 		<path d="M265.4-234.1c0-0.6,0-1.1,0-1.5h0.8l0,1h0c0.2-0.6,0.8-1.1,1.3-1.1c0.1,0,0.2,0,0.2,0v0.8c-0.1,0-0.2,0-0.3,0    c-0.6,0-1.1,0.5-1.2,1.1c0,0.1,0,0.3,0,0.4v2.6h-0.9V-234.1z"/> 	</g> 	<circle style="fill-rule:evenodd;clip-rule:evenodd;fill:#5B7EBD;" cx="211.7" cy="-133.8" r="2.4"/> 	 		<rect x="151.4" y="-212.7" style="fill:#BFBFBF;stroke:#696969;stroke-width:2;stroke-miterlimit:10;" width="16.3" height="15.3"/> 	 		<rect x="177.6" y="-212.7" style="fill:#FFFBF0;stroke:#9A9A9A;stroke-width:2;stroke-miterlimit:10;" width="16.3" height="15.3"/> 	<rect x="168.3" y="-182.1" style="opacity:0.7;fill:#FFFBF0;" width="51" height="17.5"/> 	 		<rect x="279.7" y="-225.1" style="fill-rule:evenodd;clip-rule:evenodd;fill:#FFFBF0;stroke:#9A9A9A;stroke-miterlimit:10;" width="32.5" height="12.2"/> 	<g> 		<rect x="281.8" y="-222.7" style="fill-rule:evenodd;clip-rule:evenodd;fill:none;" width="29.7" height="9.1"/> 		<path style="fill:#1A171B;" d="M288.7-215.9h-1.5v-3.9l-1.1,2.5h-1l-1.1-2.5v3.9h-1.4v-5.9h1.8l1.3,2.9l1.3-2.9h1.8V-215.9z"/> 		<path style="fill:#1A171B;" d="M292.9-217.9h-3v-1.1h3V-217.9z"/> 		<path style="fill:#1A171B;" d="M298.3-215.9h-3.9v-1h1.2v-3.1h-1.2v-1c0.2,0,0.4,0,0.5,0c0.2,0,0.3-0.1,0.4-0.1    c0.1-0.1,0.2-0.2,0.3-0.3s0.1-0.2,0.1-0.4h1.3v4.9h1.2V-215.9z"/> 		<path style="fill:#1A171B;" d="M304.4-218.8c0,0.5,0,0.9-0.1,1.3c-0.1,0.4-0.2,0.7-0.4,1c-0.2,0.3-0.4,0.4-0.7,0.6    c-0.3,0.1-0.7,0.2-1.1,0.2c-0.4,0-0.8-0.1-1.1-0.2c-0.3-0.1-0.6-0.3-0.8-0.6c-0.2-0.3-0.3-0.6-0.4-1c-0.1-0.4-0.1-0.8-0.1-1.3    c0-0.5,0-1,0.1-1.3c0.1-0.4,0.2-0.7,0.4-1c0.2-0.3,0.4-0.5,0.8-0.6c0.3-0.1,0.7-0.2,1.1-0.2c0.4,0,0.8,0.1,1.1,0.2    c0.3,0.1,0.6,0.3,0.7,0.6c0.2,0.3,0.3,0.6,0.4,1C304.3-219.7,304.4-219.3,304.4-218.8z M302.9-218.8c0-0.7-0.1-1.2-0.2-1.5    c-0.1-0.3-0.4-0.5-0.7-0.5c-0.3,0-0.6,0.2-0.7,0.5c-0.1,0.3-0.2,0.8-0.2,1.5c0,0.7,0.1,1.2,0.2,1.5c0.1,0.3,0.4,0.5,0.7,0.5    c0.3,0,0.5-0.2,0.7-0.5C302.8-217.6,302.9-218.1,302.9-218.8z"/> 		<path style="fill:#1A171B;" d="M310.1-218.8c0,0.5,0,0.9-0.1,1.3c-0.1,0.4-0.2,0.7-0.4,1c-0.2,0.3-0.4,0.4-0.7,0.6    c-0.3,0.1-0.7,0.2-1.1,0.2c-0.4,0-0.8-0.1-1.1-0.2c-0.3-0.1-0.6-0.3-0.8-0.6c-0.2-0.3-0.3-0.6-0.4-1c-0.1-0.4-0.1-0.8-0.1-1.3    c0-0.5,0-1,0.1-1.3c0.1-0.4,0.2-0.7,0.4-1c0.2-0.3,0.4-0.5,0.8-0.6c0.3-0.1,0.7-0.2,1.1-0.2c0.4,0,0.8,0.1,1.1,0.2    c0.3,0.1,0.6,0.3,0.7,0.6c0.2,0.3,0.3,0.6,0.4,1C310.1-219.7,310.1-219.3,310.1-218.8z M308.6-218.8c0-0.7-0.1-1.2-0.2-1.5    c-0.1-0.3-0.4-0.5-0.7-0.5c-0.3,0-0.6,0.2-0.7,0.5c-0.1,0.3-0.2,0.8-0.2,1.5c0,0.7,0.1,1.2,0.2,1.5c0.1,0.3,0.4,0.5,0.7,0.5    c0.3,0,0.5-0.2,0.7-0.5C308.5-217.6,308.6-218.1,308.6-218.8z"/> 	</g> </g> </svg>