<svg xmlns="http://www.w3.org/2000/svg" xmlns:xlink="http://www.w3.org/1999/xlink" version="1.1" x="0px" y="0px" width="450px" height="450px" viewBox="0 0 450 450" style="enable-background:new 0 0 450 450;" xml:space="preserve"> <g id="Capa_9"> 	<rect x="-15.6" y="-18.1" style="fill:#DCE9FB;" width="476" height="478"/> </g> <g id="color_provincies"> 	<a> 		<path style="fill-rule:evenodd;clip-rule:evenodd;fill:#BFBFBF;stroke:#696969;stroke-width:2;stroke-miterlimit:10;" d="    M513.7,281.8c-0.3,0.1-44.9-21.1-43.2-19.2c-4.6-5.3,6.6-7.6,10.7,10.7c-12.3,4.3-50.3,9.3-65,12.1c-16.7,3.3,4.8,35-13.7,22.4    c0,0-5.4,4.5-5.4,4.5c-5.8-6.5-13.7-9.9-19.5-14.8c-32,25.4-22.5,9.6-37.3,20c-19.9,14-9.8,15.1-18.3,32.9    c-8.4,17.7-24,30.5-31.6,47.4c-5.7,12.7,4.8,17.7,1.1,27.8c-2.4,6.6-17.1,7.5-22.2,12.6c0,3.1,0.7,4.3,0.5,6.6    c-2.3,0.6-23,0.5-25.4,4.5c-6.5,10.7,1.6,16.8,8.3,14.8c-1.9,3.4-2.5,5.3-4.5,8c-4.8-7.5-6.4-9.1-10.2,2.5    c8.9,3.6,5.3,17.5,18.2,17.5c85.9,0.3,171.9,0.6,257.8,0.9C513.9,422.6,513.8,352.2,513.7,281.8L513.7,281.8z"/> 	</a> </g> <g id="comarques_A_corunya"> 	<path style="fill:#BFBFBF;stroke:#696969;stroke-width:2;stroke-miterlimit:10;" d="M237.2,400.3   C237.5,398.1,237.1,400.5,237.2,400.3L237.2,400.3z"/> 	<path style="fill:#BFBFBF;stroke:#696969;stroke-width:2;stroke-miterlimit:10;" d="M237.4,400.7"/> 	<path style="fill:#BFBFBF;stroke:#696969;stroke-width:2;stroke-miterlimit:10;" d="M113.5,244.6"/> 	<a> 		<path style="fill:#BFBFBF;stroke:#696969;stroke-width:2;stroke-miterlimit:10;" d="M66.8,92.4c-2.3-15.7,6.7-23.5,17-31.4    c6.5,4.5,13.1,5.4,18.4,10.4c10-2.6,15.8-8.6,9.7-19.3c3.1-0.3,6.2-0.6,9.4-0.8c-4-14.5,5.5-15,2.9-28.3c3.7-1.7,9.8-2.9,14.4-2.7    c3.7,6.9,11.3,18.4,22,22C172.7,46.4,189.4,20.4,191,0c1.6-21.1,35.1-47.9,33.3-77.8c12.1,1.4,21,12,30.9,10.5    c3.7-0.6,4.9-17.1,11.4-19.8c5.7-2.3,16.6,7.4,27.1,2.2c1.4,11.4,5.8,9.1,17.6,6.2c-11.5,18.7,30.4,8.4,41.4,24.9    c16.9,25.4-11.9,35.9-22.2,48.6c-1.4,1.7,10.2,11.7,6.4,13.7c-8.8,4.6-12.4,24.6-12.4,24.6s-51.5-21-61.9-0.5    c-19.6-25.9-19.6,26.1-16,34.2c-9.3,3.3-18.5,1.7-27.3-3.2c-0.4,2.4-0.7,4.8-1.1,7.2c-0.7,1.6-12.2,1-17.5,1.1    c3.9,7.7,10,21.8,6,31.3c-0.9,2-40.3,14.2-17.1,24c0,2.7-3.8,16-12.1,19c-20.2-10-72.1-20.2-36.2,18.5    c-6.9,4.5-9.4,12.1-14.7,16.6c13.4,2.7,19.6,17.4,23.2,34.7c1.7,7.9,7.6,28.8,5.1,32.5c-2.4,3.6-15.6-18.2-18.4-23    c7.2,16.7-0.6,25.6-12.9,21.8c-11.1-3.4-9.1-14.5-13.4-23.4c-0.7,1.3-0.4,5.6-0.9,6.2c-8,2.5-18.9,13.5-30.4,8.6    c15.8,25.7,5.4,17-10.8,33.4c-7.8,7.9,8.6,12.9-8.5,13.4c-5.9,0.2-5.8-20.4-16.7-12.6c-3.6-13.5-8.6-25.6-15-37.6    c-10.4-19.5-11-0.9,3-13.8c35.2-32.6-15-42.9-12.7-78.4c2.1-1.5,2.7,2,4.6,1.4c-0.9-4.3-0.5-9.7-1.2-14c7.9-1.2,8.7-6.5,13.7-13.8    C35.3,116.9,48.7,84.7,66.8,92.4z"/> 	</a> 	<path style="fill:#BFBFBF;stroke:#696969;stroke-width:2;stroke-miterlimit:10;" d="M19.2,168.3"/> 	<a> 		<path style="fill:#BFBFBF;stroke:#696969;stroke-width:2;stroke-miterlimit:10;" d="M234.2-76c-3.3-0.6-37.3,55.6-42.3,76.1    c-3.3,13.5-8.3,40.4-30.4,42.4c-5.1,0.5-20.9-16.2-22.9-22.3c-4.6-0.2-10.7,1-14.4,2.7c2.6,13.3-6.9,13.8-2.9,28.3    c-3.1,0.3-6.2,0.6-9.4,0.8c6,10.8,0.3,16.7-9.7,19.3c-5.3-5.1-11.9-5.9-18.4-10.4c-10.3,7.9-19.3,15.6-17,31.4    C46.2,86.9,32.8,121,32.8,121c-7.7-3.5-13.9-5-20.1-8c-5.9-1.8-19.8-31.4-25.9-42.7c-3.2,1.8,4.7-93,9.9-106.9    c57.6-0.8,178-54,114-17.3"/> 	</a> 	<a> 		<path style="fill:#BFBFBF;stroke:#696969;stroke-width:2;stroke-miterlimit:10;" d="M407.3-13.7c0,0-0.9,54.9,13.8,65.1l8-3.7    c0,0,9,21.3,24.8,26.2s6.6-84,6.6-84L407.3-13.7z"/> 	</a> 	<a> 		<path style="fill:#BFBFBF;stroke:#696969;stroke-width:2;stroke-miterlimit:10;" d="M329.9-15.1l77.5,1.4c0,0-0.9,57.4,13.8,65.1    l8-3.7c0,0,10,22.8,26.8,26.4v206l-26.2,3.6c0,0-5.9-16.4,3-20.7c0,0-0.7-7.5-8.6-7.5s-28.9,0.7-28.9,0.7l-0.4-21.8l11.1-3.9    c0,0-21.2-26.7-25.4-16.6s-11,8.7-22.8,4.8s-7.7-16.6-19.2-23.8s-33.9-14.1-50,3.8l0,0l-51.4-23.9c0,0,12.5-1.8,15.3-4.3    s24.8-10.4,24.8-10.4s6.3,8.6,11.3,2.6s8.9-15.7,8.9-15.7s-5-11.1,1.4-12.9s20.5-8,20.5-8l7.4,10.5l5.5-1.9l-3.6-10.3    c0,0,7.7,4.3,13.8,1.8s9.3-16.8,4.3-17.8s0,0,0,0l11.4-15.7c0,0,10.4,7.9,15,2.9s3.6-17.8-3.2-21.1s-18.2-5.4-17.8-12.9    s-2.9-13.6-11.4-18.6s-16.8-10-16.8-10s5-19.3,11.4-23.2s-4.3-12.5-5-13.9S329.9-15.1,329.9-15.1z"/> 	</a> 	<a> 		<path style="fill:#BFBFBF;stroke:#696969;stroke-width:2;stroke-miterlimit:10;" d="M288.5,198.7c0,0,13.9-17.8,33.2-11.4    s23.9,11.8,28.2,24.6c0,0,1.8,7.9,13.6,8.9s12.1,1.8,14.6-3.2s3.6-9.3,11.4-4.6s16.4,17.5,16.4,17.5l-11.1,3.9l0.4,21.8l31.8-1.1    c0,0,4.7,0.7,5.7,7.9c0,0-6.7,3.8-4.7,11.8c2.1,8.2,1.6,8.9,1.6,8.9s-20.2,2.8-19.5,6.8c1.4,7.5,0.7,22.8-2.1,20.7    s-6.4-2.9-8.2-1.1s-2.8,2.3-2.8,2.3l-19.5-14.8c0,0-14.8,14.3-24.8,15.4s-25.3,10-26.4,24.6s-23.6,40.7-23.6,40.7l-10.7-3.2    c0,0-13.2,12.9-20.3,13.2s-21.4-5.4-16.8-11.1s4.3-13.9,4.3-13.9s-8.9-2.1-10.7-6.1s-10-17.5-10-17.5v22.8h-6.1l-8.2,19.6    l16.4,8.2c0,0,1.4,8.6-2.5,7.1s-10.7-2.5-12.1,1.8c-1.4,4.3-3.9,14.6,0,16.4s-1.1,4.3-4.3,2.5s-4.3-6.8-8.6-6.4s-11.8-1.8-7.1-5.7    s12.9-8.9,7.1-13.9s-16.8-8.9-17.1-2.5s-27.5,21.4-26.4,30.3s12.5,5.7,12.5,10.4s2.9,10.7-8.9,9.6s-11.4-0.7-17.5,4.6    s-3.9,15.7-3.9,15.7L58.2,460c0,0-3.9-13.9,1.8-13.6s11.8-4.6,8.2-9.6s-3.2-10.7,1.4-10.7s8.9,0.7,8.9,0.7l42.8-24.9l-7.3-4    l25.1-9.6c0,0,5.8-49.2,23.5-69.9c11.9-14,0,0,0,0s10.6,6.1,14.1-2.5s2.1-16.4,2.1-16.4l10.4,3.2l27.8-6.1    c0,0,25.5,13.8,30.8,14.4s16-2.3,16-2.3l22.8-25.9c0,0,12.9,2.1,7.1-3.6s-16.2-10.5-11.5-20.6l0,0l-10.6-1.4    c0,0,12.1-10.8,11.4-11.9c-2.6-4-8.1-16.8-2.2-26.4S288.5,198.7,288.5,198.7"/> 	</a> </g> <g id="noia_x2C__a_barcala"> 	<a> 		<path style="fill-rule:evenodd;clip-rule:evenodd;fill:#FFFBF0;stroke:#9A9A9A;stroke-width:2;stroke-miterlimit:10;" d="    M194.7,192.8c2.5,13.8-18.2,52.8-19.6,27.4c-10.3,6.3-13,16.6-19.2,26c-2.1-20.2-12.6-64.4-29.3-64.7c5.3-4.6,7.8-12.1,14.7-16.6    c-35.9-38.8,16-28.5,36.2-18.5c14.5-5.3,9.5-41.8,32.2-21.1c2.6-3.4,3.6-6.4,4.5-6.6c1.2-0.3,8.2,0.7,8.2,0.7    c-14.8,31.3,8.4,49.7,30.4,62.4c-7.7,2.4-10.1,2.8-19.9,8.2c3.3,9.5,2.8,10.1-5.9,16.7c-5.2-4.3-8.3-3-13.2-2.3    C213.6,204.4,197.5,207.5,194.7,192.8z"/> 	</a> 	<a> 		<path style="fill-rule:evenodd;clip-rule:evenodd;fill:#FFFBF0;stroke:#9A9A9A;stroke-width:2;stroke-miterlimit:10;" d="    M79.2,426.4c-0.5-17.4,9.9-18.3,14.1-33c4.4-15.2,2-24.9,0.9-38.6c11.7-5.7,8.9-24.4,12.3-33.5c3.6-9.5,15.5-18.7,21.8-25.4    c12.1-12.8,18.2-8.2,31.3-21.6c7.9-8.1,13.1-44.1,28.3-14.9c-19.1-2,5.5,75-24.6,58.5c-7.4,7.3-24.3,56.3-23.5,69.9    c0,0-13.7,6-24.2,10c0,0,3.6,2,6.3,3.8C121.9,401.6,85.9,422.7,79.2,426.4L79.2,426.4z"/> 	</a> 	<a> 		<path style="fill-rule:evenodd;clip-rule:evenodd;fill:#FFFBF0;stroke:#9A9A9A;stroke-width:2;stroke-miterlimit:10;" d="    M173.2,248.5c9.2-18.6,29-10.3,33.8,6.7c1.5-14.1-13.8-19.2-11.1-30.1c3-12.3,21.4-29,31-18.5c8.7-6.6,9.2-7.2,5.9-16.7    c11.1-7.9,39.3-17.3,35,8.4c0.9-2.3-11.5,3-11.1,2.9c-16,4.8-0.9,3.7-8.9,14c-3.8,4.9-12.2,16-13.7,19.1    c-12.6-0.1-16,12.3-17.6,29c-13-8.8-17.6,1-16.4,15.3C181,266.2,191,253.9,173.2,248.5L173.2,248.5z"/> 	</a> 	<a> 		<path style="fill-rule:evenodd;clip-rule:evenodd;fill:#FFFBF0;stroke:#9A9A9A;stroke-width:2;stroke-miterlimit:10;" d="    M245.6,67c0,0-3.2-41.8,6.1-41.8s10.9,7.5,10.9,7.5s5.9-12.5,18.8-10s29.6,3.9,42.5,10.4S352,47,352,59.9c0,0-4.6,4.6,11.1,11.8    s13.6,16.8,10,22.5s-15-1.4-15-1.4l-11.8,16.8c0,0-10-6.8-15.7-2.1s-12.5,7.5-19.3-4.6l-19.6,5.4c0,0,0.2-13-4.9-17.7    c0,0-11.5,9.5-17.6,1.7s-14.7-18.4-23.6-18.1l5.7-4.4L245.6,67z"/> 	</a> 	<a> 		<path style="fill-rule:evenodd;clip-rule:evenodd;fill:#FFFBF0;stroke:#9A9A9A;stroke-width:2;stroke-miterlimit:10;" d="    M219.4,63.7c0,0,18.1,7.3,26.3,3.3l5.7,2.5l-5.7,4.4c0,0,10.9-0.4,17.7,9.2s8.4,13.6,14.1,12.1s9.4-4.9,9.4-4.9s5.6,6.7,4.9,17.7    l19.6-5.4c0,0,3.9,10,11.8,8.6s7.1-7.5,15-5.7s8.6,2.9,8.6,2.9s7.1,11.8-1.8,17.1s-13.6,0-13.6,0l1.1,8.9l-5.7,2.2l-7.4-9.5    l-20.4,7c0,0-4.3,2.5-3.2,7.1s1.8,5.7,1.8,5.7s-6.8,16.1-11.1,17.5s-9.2-4.3-9.2-4.3l-35.7,15.1c0,0-37.8-19.1-19.2-55.8l-8.1,0    l-4.5,5.8c0,0-7.6-9.4-13.3-5.1s-6.8,7.1-6.8,7.1s-13.6-5-6.1-10.7s23.2-13.3,23.2-13.3s1.6-22.3-6.9-31.5l17.6,0.1L219.4,63.7z"/> 	</a> 	<a> 		<path style="fill-rule:evenodd;clip-rule:evenodd;fill:#FFFBF0;stroke:#9A9A9A;stroke-width:2;stroke-miterlimit:10;" d="    M268.1,189.4l20,8.6c0,0-2.5,13.2-5,16.4s-7.9,10.4-3.2,21.8s3.9,10,3.9,10l-13.6,11.4l11.8,0.7c0,0-4.3,6.1,1.8,11.4    s14.6,11.1,11.4,12.5s-7.9,0.7-7.9,0.7l-23.2,24.6c0,0-12.1,4.6-16.1,3.9s-31.4-15.3-31.4-15.3l-27.1,7.1l-9.6-4.3    c0,0-5.7-37.5,5.7-40.3c0,0,5.4,14.7,14.5,19.9c0,0-0.9-21.6,8.7-19.1c2.9,0.7,7.7,3.8,7.7,3.8s-2.8-28.1,17.6-29    c0,0,8.6-14.5,13.6-20.5s-3.2-11.1,2.5-11.8s17.5-4.6,17.5-4.6L268.1,189.4z"/> 	</a> </g> <g id="bl"> 	<rect x="87.1" y="311.9" style="opacity:0.6;fill:#FFFBF0;" width="51" height="10.1"/> </g> <g id="text_comarques"> 	<g> 		<rect x="457.1" y="11.1" style="fill-rule:evenodd;clip-rule:evenodd;fill:none;" width="167.8" height="11"/> 		<path style="fill:#1A171B;" d="M465.2,19.6h-1.9l-0.5-1.5h-2.7l-0.5,1.5h-1.9l2.7-7.3h2.2L465.2,19.6z M462.3,16.8l-0.9-2.6    l-0.9,2.6H462.3z"/> 		<path style="fill:#1A171B;" d="M470.2,15.8H470c-0.1,0-0.2,0-0.4-0.1s-0.3,0-0.4,0c-0.3,0-0.5,0-0.7,0c-0.2,0-0.4,0.1-0.6,0.2v3.7    h-1.8v-5.5h1.8v0.8c0.4-0.3,0.7-0.6,1-0.7c0.3-0.1,0.5-0.2,0.8-0.2c0.1,0,0.1,0,0.2,0c0.1,0,0.1,0,0.2,0V15.8z"/> 		<path style="fill:#1A171B;" d="M475.9,19.6h-5.2v-1.1l2.9-3.1h-2.8v-1.3h5v1.1l-2.8,3.1h2.9V19.6z"/> 		<path style="fill:#1A171B;" d="M482.6,19.6h-1.8V19c-0.3,0.2-0.6,0.4-0.9,0.6s-0.6,0.2-1,0.2c-0.6,0-1.1-0.2-1.4-0.5    c-0.3-0.3-0.5-0.9-0.5-1.5v-3.6h1.8v2.7c0,0.3,0,0.5,0,0.7c0,0.2,0.1,0.3,0.1,0.5c0.1,0.1,0.2,0.2,0.3,0.3    c0.1,0.1,0.3,0.1,0.5,0.1c0.1,0,0.3,0,0.5-0.1s0.4-0.1,0.5-0.2v-3.9h1.8V19.6z M481.4,11.4L481.4,11.4l-1.7,1.9h-1.2l1.2-1.9    H481.4z"/> 		<path style="fill:#1A171B;" d="M487.6,19c-0.1,0.1-0.2,0.2-0.4,0.3s-0.3,0.2-0.4,0.2c-0.2,0.1-0.4,0.1-0.5,0.2s-0.4,0.1-0.6,0.1    c-0.5,0-1-0.2-1.3-0.5s-0.5-0.7-0.5-1.2c0-0.4,0.1-0.7,0.3-1s0.4-0.5,0.8-0.6c0.3-0.1,0.7-0.3,1.2-0.3s1-0.1,1.5-0.1v0    c0-0.3-0.1-0.5-0.4-0.6s-0.6-0.2-1.1-0.2c-0.3,0-0.6,0.1-0.9,0.2s-0.6,0.2-0.7,0.2h-0.2v-1.3c0.2,0,0.5-0.1,0.9-0.2    c0.4-0.1,0.8-0.1,1.3-0.1c1,0,1.7,0.2,2.2,0.5c0.4,0.3,0.7,0.8,0.7,1.4v3.7h-1.7V19z M487.6,18.1V17c-0.2,0-0.5,0-0.8,0.1    c-0.3,0-0.5,0.1-0.6,0.1c-0.2,0.1-0.3,0.1-0.4,0.2c-0.1,0.1-0.1,0.2-0.1,0.4c0,0.1,0,0.2,0,0.3c0,0.1,0.1,0.1,0.1,0.2    c0.1,0.1,0.2,0.1,0.3,0.1s0.3,0,0.5,0c0.2,0,0.4,0,0.5-0.1C487.3,18.4,487.4,18.3,487.6,18.1z"/> 		<path style="fill:#1A171B;" d="M493.1,17.7l-1.8,3.7h-1.1l1-3.7H493.1z"/> 		<path style="fill:#1A171B;" d="M505.1,15.9c0,1.2-0.3,2.1-1,2.8s-1.6,1-2.8,1c-1.2,0-2.1-0.3-2.7-1s-1-1.6-1-2.8    c0-1.2,0.3-2.1,1-2.8s1.6-1,2.7-1c1.2,0,2.1,0.3,2.7,1S505.1,14.8,505.1,15.9z M502.6,17.8c0.2-0.2,0.3-0.5,0.4-0.8    s0.1-0.7,0.1-1.1c0-0.4-0.1-0.8-0.2-1.1s-0.2-0.6-0.4-0.7c-0.2-0.2-0.4-0.3-0.6-0.4c-0.2-0.1-0.4-0.1-0.7-0.1    c-0.2,0-0.5,0-0.7,0.1c-0.2,0.1-0.4,0.2-0.6,0.4c-0.2,0.2-0.3,0.4-0.4,0.8c-0.1,0.3-0.2,0.7-0.2,1.1c0,0.4,0,0.8,0.1,1.1    c0.1,0.3,0.2,0.6,0.4,0.7s0.4,0.3,0.6,0.4s0.4,0.1,0.7,0.1s0.5,0,0.7-0.1S502.5,18,502.6,17.8z"/> 		<path style="fill:#1A171B;" d="M510.4,15.8h-0.2c-0.1,0-0.2,0-0.4-0.1s-0.3,0-0.4,0c-0.3,0-0.5,0-0.7,0c-0.2,0-0.4,0.1-0.6,0.2    v3.7h-1.8v-5.5h1.8v0.8c0.4-0.3,0.7-0.6,1-0.7c0.3-0.1,0.5-0.2,0.8-0.2c0.1,0,0.1,0,0.2,0c0.1,0,0.1,0,0.2,0V15.8z"/> 		<path style="fill:#1A171B;" d="M516.8,19.6H515V19c-0.3,0.2-0.6,0.4-0.8,0.5s-0.6,0.2-0.9,0.2c-0.7,0-1.2-0.3-1.6-0.8    c-0.4-0.5-0.6-1.2-0.6-2.1c0-0.5,0.1-0.9,0.2-1.2s0.3-0.7,0.6-0.9c0.2-0.2,0.5-0.4,0.8-0.6s0.6-0.2,0.9-0.2c0.3,0,0.6,0,0.8,0.1    c0.2,0.1,0.4,0.2,0.6,0.3V12h1.8V19.6z M515,18.1v-2.7c-0.1-0.1-0.3-0.1-0.4-0.1s-0.3,0-0.4,0c-0.5,0-0.8,0.1-1,0.4    s-0.3,0.7-0.3,1.2c0,0.5,0.1,0.9,0.3,1.2c0.2,0.2,0.5,0.4,0.9,0.4c0.2,0,0.3,0,0.5-0.1C514.7,18.2,514.9,18.2,515,18.1z"/> 		<path style="fill:#1A171B;" d="M523.8,17.2h-4c0,0.4,0.2,0.8,0.5,1c0.3,0.2,0.7,0.3,1.3,0.3c0.4,0,0.7-0.1,1.1-0.2    s0.6-0.3,0.8-0.4h0.2v1.4c-0.4,0.2-0.8,0.3-1.1,0.3s-0.7,0.1-1.2,0.1c-1.1,0-1.9-0.2-2.5-0.7s-0.9-1.2-0.9-2.1    c0-0.9,0.3-1.6,0.8-2.2c0.6-0.5,1.3-0.8,2.3-0.8c0.9,0,1.6,0.2,2,0.7s0.7,1.1,0.7,1.9V17.2z M522.1,16.1c0-0.4-0.1-0.6-0.3-0.8    S521.4,15,521,15c-0.3,0-0.6,0.1-0.8,0.3s-0.3,0.5-0.4,0.8H522.1z"/> 		<path style="fill:#1A171B;" d="M529.8,17.8c0,0.6-0.3,1-0.8,1.4s-1.2,0.5-2.1,0.5c-0.5,0-0.9,0-1.3-0.1s-0.7-0.2-1-0.3v-1.4h0.2    c0.1,0.1,0.2,0.1,0.3,0.2c0.1,0.1,0.3,0.2,0.5,0.2c0.2,0.1,0.4,0.1,0.6,0.2s0.5,0.1,0.7,0.1c0.3,0,0.6,0,0.8-0.1s0.2-0.2,0.2-0.3    c0-0.1,0-0.2-0.1-0.3s-0.3-0.1-0.6-0.2c-0.1,0-0.3-0.1-0.5-0.1c-0.2,0-0.4-0.1-0.6-0.1c-0.5-0.1-0.9-0.3-1.1-0.6s-0.4-0.6-0.4-1    c0-0.5,0.3-1,0.7-1.3c0.5-0.4,1.2-0.5,2-0.5c0.4,0,0.8,0,1.2,0.1c0.4,0.1,0.7,0.2,0.9,0.3v1.4h-0.2c-0.3-0.2-0.6-0.3-0.9-0.4    c-0.3-0.1-0.7-0.2-1-0.2c-0.3,0-0.5,0-0.7,0.1c-0.2,0.1-0.3,0.2-0.3,0.3c0,0.1,0,0.2,0.1,0.3s0.3,0.1,0.6,0.2    c0.2,0,0.4,0.1,0.6,0.1c0.2,0,0.4,0.1,0.6,0.1c0.5,0.1,0.8,0.3,1,0.6S529.8,17.5,529.8,17.8z"/> 		<path style="fill:#1A171B;" d="M533.2,17.7l-1.8,3.7h-1.1l1-3.7H533.2z"/> 		<path style="fill:#1A171B;" d="M543.8,13.7h-2.3v5.9h-1.9v-5.9h-2.3v-1.4h6.4V13.7z"/> 		<path style="fill:#1A171B;" d="M550.2,17.2h-4c0,0.4,0.2,0.8,0.5,1c0.3,0.2,0.7,0.3,1.3,0.3c0.4,0,0.7-0.1,1.1-0.2    s0.6-0.3,0.8-0.4h0.2v1.4c-0.4,0.2-0.8,0.3-1.1,0.3s-0.7,0.1-1.2,0.1c-1.1,0-1.9-0.2-2.5-0.7s-0.9-1.2-0.9-2.1    c0-0.9,0.3-1.6,0.8-2.2c0.6-0.5,1.3-0.8,2.3-0.8c0.9,0,1.6,0.2,2,0.7s0.7,1.1,0.7,1.9V17.2z M548.5,16.1c0-0.4-0.1-0.6-0.3-0.8    s-0.4-0.3-0.8-0.3c-0.3,0-0.6,0.1-0.8,0.3s-0.3,0.5-0.4,0.8H548.5z"/> 		<path style="fill:#1A171B;" d="M555.5,15.8h-0.2c-0.1,0-0.2,0-0.4-0.1s-0.3,0-0.4,0c-0.3,0-0.5,0-0.7,0c-0.2,0-0.4,0.1-0.6,0.2    v3.7h-1.8v-5.5h1.8v0.8c0.4-0.3,0.7-0.6,1-0.7c0.3-0.1,0.5-0.2,0.8-0.2c0.1,0,0.1,0,0.2,0c0.1,0,0.1,0,0.2,0V15.8z"/> 		<path style="fill:#1A171B;" d="M560.4,15.8h-0.2c-0.1,0-0.2,0-0.4-0.1s-0.3,0-0.4,0c-0.3,0-0.5,0-0.7,0c-0.2,0-0.4,0.1-0.6,0.2    v3.7h-1.8v-5.5h1.8v0.8c0.4-0.3,0.7-0.6,1-0.7c0.3-0.1,0.5-0.2,0.8-0.2c0.1,0,0.1,0,0.2,0c0.1,0,0.1,0,0.2,0V15.8z"/> 		<path style="fill:#1A171B;" d="M564.7,19c-0.1,0.1-0.2,0.2-0.4,0.3s-0.3,0.2-0.4,0.2c-0.2,0.1-0.4,0.1-0.5,0.2s-0.4,0.1-0.6,0.1    c-0.5,0-1-0.2-1.3-0.5S561,18.5,561,18c0-0.4,0.1-0.7,0.3-1s0.4-0.5,0.8-0.6c0.3-0.1,0.7-0.3,1.2-0.3s1-0.1,1.5-0.1v0    c0-0.3-0.1-0.5-0.4-0.6s-0.6-0.2-1.1-0.2c-0.3,0-0.6,0.1-0.9,0.2s-0.6,0.2-0.7,0.2h-0.2v-1.3c0.2,0,0.5-0.1,0.9-0.2    c0.4-0.1,0.8-0.1,1.3-0.1c1,0,1.7,0.2,2.2,0.5c0.4,0.3,0.7,0.8,0.7,1.4v3.7h-1.7V19z M564.7,18.1V17c-0.2,0-0.5,0-0.8,0.1    c-0.3,0-0.5,0.1-0.6,0.1c-0.2,0.1-0.3,0.1-0.4,0.2c-0.1,0.1-0.1,0.2-0.1,0.4c0,0.1,0,0.2,0,0.3c0,0.1,0.1,0.1,0.1,0.2    c0.1,0.1,0.2,0.1,0.3,0.1s0.3,0,0.5,0c0.2,0,0.4,0,0.5-0.1C564.5,18.4,564.6,18.3,564.7,18.1z"/> 		<path style="fill:#1A171B;" d="M576.9,19.6h-1.8V19c-0.3,0.2-0.6,0.4-0.8,0.5s-0.6,0.2-0.9,0.2c-0.7,0-1.2-0.3-1.6-0.8    c-0.4-0.5-0.6-1.2-0.6-2.1c0-0.5,0.1-0.9,0.2-1.2s0.3-0.7,0.6-0.9c0.2-0.2,0.5-0.4,0.8-0.6s0.6-0.2,0.9-0.2c0.3,0,0.6,0,0.8,0.1    c0.2,0.1,0.4,0.2,0.6,0.3V12h1.8V19.6z M575.1,18.1v-2.7c-0.1-0.1-0.3-0.1-0.4-0.1s-0.3,0-0.4,0c-0.5,0-0.8,0.1-1,0.4    s-0.3,0.7-0.3,1.2c0,0.5,0.1,0.9,0.3,1.2c0.2,0.2,0.5,0.4,0.9,0.4c0.2,0,0.3,0,0.5-0.1C574.8,18.2,575,18.2,575.1,18.1z"/> 		<path style="fill:#1A171B;" d="M583.9,17.2h-4c0,0.4,0.2,0.8,0.5,1c0.3,0.2,0.7,0.3,1.3,0.3c0.4,0,0.7-0.1,1.1-0.2    s0.6-0.3,0.8-0.4h0.2v1.4c-0.4,0.2-0.8,0.3-1.1,0.3s-0.7,0.1-1.2,0.1c-1.1,0-1.9-0.2-2.5-0.7s-0.9-1.2-0.9-2.1    c0-0.9,0.3-1.6,0.8-2.2c0.6-0.5,1.3-0.8,2.3-0.8c0.9,0,1.6,0.2,2,0.7s0.7,1.1,0.7,1.9V17.2z M582.2,16.1c0-0.4-0.1-0.6-0.3-0.8    s-0.4-0.3-0.8-0.3c-0.3,0-0.6,0.1-0.8,0.3s-0.3,0.5-0.4,0.8H582.2z"/> 		<path style="fill:#1A171B;" d="M596.3,19.6h-1.9v-4.9l-1.3,3.2h-1.3l-1.3-3.2v4.9h-1.8v-7.3h2.2l1.6,3.6l1.6-3.6h2.2V19.6z"/> 		<path style="fill:#1A171B;" d="M603.5,17.2h-4c0,0.4,0.2,0.8,0.5,1c0.3,0.2,0.7,0.3,1.3,0.3c0.4,0,0.7-0.1,1.1-0.2    s0.6-0.3,0.8-0.4h0.2v1.4c-0.4,0.2-0.8,0.3-1.1,0.3s-0.7,0.1-1.2,0.1c-1.1,0-1.9-0.2-2.5-0.7s-0.9-1.2-0.9-2.1    c0-0.9,0.3-1.6,0.8-2.2c0.6-0.5,1.3-0.8,2.3-0.8c0.9,0,1.6,0.2,2,0.7s0.7,1.1,0.7,1.9V17.2z M601.7,16.1c0-0.4-0.1-0.6-0.3-0.8    S601,15,600.6,15c-0.3,0-0.6,0.1-0.8,0.3s-0.3,0.5-0.4,0.8H601.7z"/> 		<path style="fill:#1A171B;" d="M606.5,19.6h-1.8V12h1.8V19.6z"/> 		<path style="fill:#1A171B;" d="M609.9,13.3h-1.9V12h1.9V13.3z M609.9,19.6h-1.8v-5.5h1.8V19.6z"/> 		<path style="fill:#1A171B;" d="M616.9,19.6h-1.8V19c-0.3,0.2-0.6,0.4-0.8,0.5s-0.6,0.2-0.9,0.2c-0.7,0-1.2-0.3-1.6-0.8    c-0.4-0.5-0.6-1.2-0.6-2.1c0-0.5,0.1-0.9,0.2-1.2s0.3-0.7,0.6-0.9c0.2-0.2,0.5-0.4,0.8-0.6s0.6-0.2,0.9-0.2c0.3,0,0.6,0,0.8,0.1    c0.2,0.1,0.4,0.2,0.6,0.3V12h1.8V19.6z M615.1,18.1v-2.7c-0.1-0.1-0.3-0.1-0.4-0.1s-0.3,0-0.4,0c-0.5,0-0.8,0.1-1,0.4    s-0.3,0.7-0.3,1.2c0,0.5,0.1,0.9,0.3,1.2c0.2,0.2,0.5,0.4,0.9,0.4c0.2,0,0.3,0,0.5-0.1C614.8,18.2,615,18.2,615.1,18.1z"/> 		<path style="fill:#1A171B;" d="M623.9,17.2h-4c0,0.4,0.2,0.8,0.5,1c0.3,0.2,0.7,0.3,1.3,0.3c0.4,0,0.7-0.1,1.1-0.2    s0.6-0.3,0.8-0.4h0.2v1.4c-0.4,0.2-0.8,0.3-1.1,0.3s-0.7,0.1-1.2,0.1c-1.1,0-1.9-0.2-2.5-0.7s-0.9-1.2-0.9-2.1    c0-0.9,0.3-1.6,0.8-2.2c0.6-0.5,1.3-0.8,2.3-0.8c0.9,0,1.6,0.2,2,0.7s0.7,1.1,0.7,1.9V17.2z M622.2,16.1c0-0.4-0.1-0.6-0.3-0.8    s-0.4-0.3-0.8-0.3c-0.3,0-0.6,0.1-0.8,0.3s-0.3,0.5-0.4,0.8H622.2z"/> 	</g> 	<g> 		<rect x="216.5" y="320.9" style="fill-rule:evenodd;clip-rule:evenodd;fill:none;" width="97.4" height="11"/> 		<path style="fill:#1A171B;" d="M225,325.8c0,1.2-0.3,2.1-1,2.8c-0.7,0.7-1.6,1-2.8,1c-1.2,0-2.1-0.3-2.7-1c-0.7-0.7-1-1.6-1-2.8    c0-1.2,0.3-2.1,1-2.8c0.7-0.7,1.6-1,2.7-1c1.2,0,2.1,0.3,2.7,1C224.6,323.7,225,324.6,225,325.8z M222.5,327.6    c0.2-0.2,0.3-0.5,0.4-0.8c0.1-0.3,0.1-0.7,0.1-1.1c0-0.4-0.1-0.8-0.2-1.1s-0.2-0.6-0.4-0.7c-0.2-0.2-0.4-0.3-0.6-0.4    c-0.2-0.1-0.4-0.1-0.7-0.1c-0.2,0-0.5,0-0.7,0.1c-0.2,0.1-0.4,0.2-0.6,0.4c-0.2,0.2-0.3,0.4-0.4,0.8c-0.1,0.3-0.2,0.7-0.2,1.1    c0,0.4,0,0.8,0.1,1.1c0.1,0.3,0.2,0.6,0.4,0.7s0.4,0.3,0.6,0.4s0.4,0.1,0.7,0.1s0.5,0,0.7-0.1    C222.1,327.9,222.3,327.8,222.5,327.6z"/> 		<path style="fill:#1A171B;" d="M236,327.2c0,0.4-0.1,0.7-0.2,0.9c-0.1,0.3-0.3,0.5-0.6,0.7c-0.3,0.2-0.6,0.4-0.9,0.5    c-0.3,0.1-0.8,0.1-1.3,0.1h-3.2v-7.3h2.8c0.6,0,1,0,1.3,0.1c0.3,0,0.5,0.1,0.8,0.3c0.3,0.1,0.5,0.3,0.6,0.6    c0.1,0.2,0.2,0.5,0.2,0.8c0,0.4-0.1,0.7-0.3,0.9c-0.2,0.3-0.4,0.5-0.8,0.6v0c0.5,0.1,0.9,0.3,1.1,0.6    C235.9,326.3,236,326.7,236,327.2z M233.6,324.2c0-0.1,0-0.2-0.1-0.4c-0.1-0.1-0.2-0.2-0.3-0.3c-0.1-0.1-0.3-0.1-0.5-0.1    c-0.2,0-0.5,0-0.9,0h-0.2v1.5h0.3c0.3,0,0.5,0,0.8,0s0.4,0,0.5-0.1c0.2-0.1,0.3-0.2,0.3-0.3C233.6,324.5,233.6,324.3,233.6,324.2z     M234.1,327.1c0-0.2,0-0.4-0.1-0.5c-0.1-0.1-0.2-0.2-0.5-0.3c-0.1,0-0.3-0.1-0.6-0.1c-0.3,0-0.5,0-0.8,0h-0.4v1.8h0.1    c0.5,0,0.9,0,1.1,0s0.4,0,0.6-0.1c0.2-0.1,0.3-0.2,0.4-0.3C234.1,327.5,234.1,327.3,234.1,327.1z"/> 		<path style="fill:#1A171B;" d="M240.7,328.8c-0.1,0.1-0.2,0.2-0.4,0.3s-0.3,0.2-0.4,0.2c-0.2,0.1-0.4,0.1-0.5,0.2    c-0.2,0-0.4,0.1-0.6,0.1c-0.5,0-1-0.2-1.3-0.5s-0.5-0.7-0.5-1.2c0-0.4,0.1-0.7,0.3-1s0.4-0.5,0.8-0.6c0.3-0.1,0.7-0.3,1.2-0.3    s1-0.1,1.5-0.1v0c0-0.3-0.1-0.5-0.4-0.6c-0.2-0.1-0.6-0.2-1.1-0.2c-0.3,0-0.6,0.1-0.9,0.2c-0.3,0.1-0.6,0.2-0.7,0.2h-0.2V324    c0.2,0,0.5-0.1,0.9-0.2c0.4-0.1,0.8-0.1,1.3-0.1c1,0,1.7,0.2,2.2,0.5c0.4,0.3,0.7,0.8,0.7,1.4v3.7h-1.7V328.8z M240.7,328v-1.1    c-0.2,0-0.5,0-0.8,0.1c-0.3,0-0.5,0.1-0.6,0.1c-0.2,0.1-0.3,0.1-0.4,0.2c-0.1,0.1-0.1,0.2-0.1,0.4c0,0.1,0,0.2,0,0.3    c0,0.1,0.1,0.1,0.1,0.2c0.1,0.1,0.2,0.1,0.3,0.1c0.1,0,0.3,0,0.5,0c0.2,0,0.4,0,0.5-0.1C240.4,328.2,240.5,328.1,240.7,328z"/> 		<path style="fill:#1A171B;" d="M248,325.6h-0.2c-0.1,0-0.2,0-0.4-0.1s-0.3,0-0.4,0c-0.3,0-0.5,0-0.7,0c-0.2,0-0.4,0.1-0.6,0.2v3.7    H244v-5.5h1.8v0.8c0.4-0.3,0.7-0.6,1-0.7c0.3-0.1,0.5-0.2,0.8-0.2c0.1,0,0.1,0,0.2,0c0.1,0,0.1,0,0.2,0V325.6z"/> 		<path style="fill:#1A171B;" d="M254.7,326.6c0,0.9-0.2,1.6-0.7,2.1c-0.5,0.5-1.1,0.8-1.8,0.8c-0.3,0-0.6,0-0.8-0.1    c-0.2-0.1-0.5-0.2-0.7-0.3l-0.1,0.3H249v-7.6h1.8v2.7c0.3-0.2,0.5-0.4,0.8-0.5s0.6-0.2,1-0.2c0.7,0,1.2,0.3,1.6,0.7    C254.5,325,254.7,325.7,254.7,326.6z M252.9,326.6c0-0.5-0.1-0.9-0.2-1.1c-0.2-0.3-0.5-0.4-0.9-0.4c-0.2,0-0.3,0-0.5,0.1    c-0.2,0-0.3,0.1-0.5,0.2v2.7c0.1,0,0.2,0.1,0.4,0.1c0.1,0,0.3,0,0.4,0c0.5,0,0.8-0.1,1-0.4C252.8,327.6,252.9,327.2,252.9,326.6z"/> 		<path style="fill:#1A171B;" d="M259.3,328.8c-0.1,0.1-0.2,0.2-0.4,0.3s-0.3,0.2-0.4,0.2c-0.2,0.1-0.4,0.1-0.5,0.2    c-0.2,0-0.4,0.1-0.6,0.1c-0.5,0-1-0.2-1.3-0.5s-0.5-0.7-0.5-1.2c0-0.4,0.1-0.7,0.3-1s0.4-0.5,0.8-0.6c0.3-0.1,0.7-0.3,1.2-0.3    s1-0.1,1.5-0.1v0c0-0.3-0.1-0.5-0.4-0.6c-0.2-0.1-0.6-0.2-1.1-0.2c-0.3,0-0.6,0.1-0.9,0.2c-0.3,0.1-0.6,0.2-0.7,0.2h-0.2V324    c0.2,0,0.5-0.1,0.9-0.2c0.4-0.1,0.8-0.1,1.3-0.1c1,0,1.7,0.2,2.2,0.5c0.4,0.3,0.7,0.8,0.7,1.4v3.7h-1.7V328.8z M259.3,328v-1.1    c-0.2,0-0.5,0-0.8,0.1c-0.3,0-0.5,0.1-0.6,0.1c-0.2,0.1-0.3,0.1-0.4,0.2c-0.1,0.1-0.1,0.2-0.1,0.4c0,0.1,0,0.2,0,0.3    c0,0.1,0.1,0.1,0.1,0.2c0.1,0.1,0.2,0.1,0.3,0.1c0.1,0,0.3,0,0.5,0c0.2,0,0.4,0,0.5-0.1C259,328.2,259.2,328.1,259.3,328z"/> 		<path style="fill:#1A171B;" d="M268.2,329.4h-1.8v-2.7c0-0.2,0-0.4,0-0.7c0-0.2-0.1-0.4-0.1-0.5c-0.1-0.1-0.2-0.2-0.3-0.3    c-0.1-0.1-0.3-0.1-0.5-0.1c-0.2,0-0.3,0-0.5,0.1c-0.2,0.1-0.3,0.1-0.5,0.2v3.9h-1.8v-5.5h1.8v0.6c0.3-0.2,0.6-0.4,0.9-0.6    c0.3-0.1,0.6-0.2,1-0.2c0.6,0,1.1,0.2,1.4,0.5s0.5,0.9,0.5,1.5V329.4z"/> 		<path style="fill:#1A171B;" d="M273.1,328.8c-0.1,0.1-0.2,0.2-0.4,0.3s-0.3,0.2-0.4,0.2c-0.2,0.1-0.4,0.1-0.5,0.2    c-0.2,0-0.4,0.1-0.6,0.1c-0.5,0-1-0.2-1.3-0.5s-0.5-0.7-0.5-1.2c0-0.4,0.1-0.7,0.3-1s0.4-0.5,0.8-0.6c0.3-0.1,0.7-0.3,1.2-0.3    s1-0.1,1.5-0.1v0c0-0.3-0.1-0.5-0.4-0.6c-0.2-0.1-0.6-0.2-1.1-0.2c-0.3,0-0.6,0.1-0.9,0.2c-0.3,0.1-0.6,0.2-0.7,0.2h-0.2V324    c0.2,0,0.5-0.1,0.9-0.2c0.4-0.1,0.8-0.1,1.3-0.1c1,0,1.7,0.2,2.2,0.5c0.4,0.3,0.7,0.8,0.7,1.4v3.7h-1.7V328.8z M273.1,328v-1.1    c-0.2,0-0.5,0-0.8,0.1c-0.3,0-0.5,0.1-0.6,0.1c-0.2,0.1-0.3,0.1-0.4,0.2c-0.1,0.1-0.1,0.2-0.1,0.4c0,0.1,0,0.2,0,0.3    c0,0.1,0.1,0.1,0.1,0.2c0.1,0.1,0.2,0.1,0.3,0.1c0.1,0,0.3,0,0.5,0c0.2,0,0.4,0,0.5-0.1C272.8,328.2,273,328.1,273.1,328z"/> 		<path style="fill:#1A171B;" d="M278.7,327.5l-1.8,3.7h-1.1l1-3.7H278.7z"/> 		<path style="fill:#1A171B;" d="M290.7,325.8c0,1.2-0.3,2.1-1,2.8c-0.7,0.7-1.6,1-2.8,1c-1.2,0-2.1-0.3-2.7-1c-0.7-0.7-1-1.6-1-2.8    c0-1.2,0.3-2.1,1-2.8c0.7-0.7,1.6-1,2.7-1c1.2,0,2.1,0.3,2.7,1C290.3,323.7,290.7,324.6,290.7,325.8z M288.2,327.6    c0.2-0.2,0.3-0.5,0.4-0.8c0.1-0.3,0.1-0.7,0.1-1.1c0-0.4-0.1-0.8-0.2-1.1s-0.2-0.6-0.4-0.7c-0.2-0.2-0.4-0.3-0.6-0.4    c-0.2-0.1-0.4-0.1-0.7-0.1c-0.2,0-0.5,0-0.7,0.1c-0.2,0.1-0.4,0.2-0.6,0.4c-0.2,0.2-0.3,0.4-0.4,0.8c-0.1,0.3-0.2,0.7-0.2,1.1    c0,0.4,0,0.8,0.1,1.1c0.1,0.3,0.2,0.6,0.4,0.7s0.4,0.3,0.6,0.4s0.4,0.1,0.7,0.1s0.5,0,0.7-0.1C287.8,327.9,288,327.8,288.2,327.6z    "/> 		<path style="fill:#1A171B;" d="M301.3,327.1c0,0.7-0.3,1.3-0.9,1.7c-0.6,0.4-1.4,0.7-2.5,0.7c-0.6,0-1.1-0.1-1.6-0.2    c-0.4-0.1-0.9-0.2-1.3-0.4v-1.7h0.2c0.4,0.3,0.8,0.5,1.3,0.7c0.5,0.2,0.9,0.2,1.4,0.2c0.1,0,0.3,0,0.4,0s0.3-0.1,0.5-0.1    c0.1-0.1,0.3-0.1,0.4-0.2c0.1-0.1,0.1-0.2,0.1-0.4c0-0.2-0.1-0.3-0.2-0.4c-0.1-0.1-0.3-0.2-0.6-0.3c-0.3-0.1-0.6-0.1-0.9-0.2    c-0.3-0.1-0.6-0.1-0.9-0.2c-0.6-0.2-1.1-0.5-1.3-0.8c-0.3-0.3-0.4-0.8-0.4-1.3c0-0.7,0.3-1.2,0.9-1.7c0.6-0.4,1.4-0.6,2.3-0.6    c0.5,0,1,0,1.4,0.1c0.5,0.1,0.9,0.2,1.2,0.3v1.7h-0.2c-0.3-0.2-0.7-0.4-1.1-0.6c-0.4-0.2-0.9-0.2-1.3-0.2c-0.2,0-0.3,0-0.5,0    c-0.2,0-0.3,0.1-0.4,0.1c-0.1,0-0.2,0.1-0.3,0.2c-0.1,0.1-0.1,0.2-0.1,0.3c0,0.2,0.1,0.3,0.2,0.4c0.1,0.1,0.4,0.2,0.8,0.3    c0.3,0.1,0.5,0.1,0.8,0.2c0.2,0.1,0.5,0.1,0.8,0.2c0.6,0.2,1,0.4,1.2,0.7C301.2,326.2,301.3,326.6,301.3,327.1z"/> 		<path style="fill:#1A171B;" d="M305.8,328.8c-0.1,0.1-0.2,0.2-0.4,0.3s-0.3,0.2-0.4,0.2c-0.2,0.1-0.4,0.1-0.5,0.2    c-0.2,0-0.4,0.1-0.6,0.1c-0.5,0-1-0.2-1.3-0.5s-0.5-0.7-0.5-1.2c0-0.4,0.1-0.7,0.3-1s0.4-0.5,0.8-0.6c0.3-0.1,0.7-0.3,1.2-0.3    s1-0.1,1.5-0.1v0c0-0.3-0.1-0.5-0.4-0.6c-0.2-0.1-0.6-0.2-1.1-0.2c-0.3,0-0.6,0.1-0.9,0.2c-0.3,0.1-0.6,0.2-0.7,0.2h-0.2V324    c0.2,0,0.5-0.1,0.9-0.2c0.4-0.1,0.8-0.1,1.3-0.1c1,0,1.7,0.2,2.2,0.5c0.4,0.3,0.7,0.8,0.7,1.4v3.7h-1.7V328.8z M305.8,328v-1.1    c-0.2,0-0.5,0-0.8,0.1c-0.3,0-0.5,0.1-0.6,0.1c-0.2,0.1-0.3,0.1-0.4,0.2c-0.1,0.1-0.1,0.2-0.1,0.4c0,0.1,0,0.2,0,0.3    c0,0.1,0.1,0.1,0.1,0.2c0.1,0.1,0.2,0.1,0.3,0.1c0.1,0,0.3,0,0.5,0c0.2,0,0.4,0,0.5-0.1C305.5,328.2,305.7,328.1,305.8,328z"/> 		<path style="fill:#1A171B;" d="M313.2,325.6H313c-0.1,0-0.2,0-0.4-0.1s-0.3,0-0.4,0c-0.3,0-0.5,0-0.7,0c-0.2,0-0.4,0.1-0.6,0.2    v3.7h-1.8v-5.5h1.8v0.8c0.4-0.3,0.7-0.6,1-0.7c0.3-0.1,0.5-0.2,0.8-0.2c0.1,0,0.1,0,0.2,0c0.1,0,0.1,0,0.2,0V325.6z"/> 	</g> 	<g> 		<rect x="367.6" y="138.1" style="fill-rule:evenodd;clip-rule:evenodd;fill:none;" width="50.4" height="11"/> 		<path style="fill:#1A171B;" d="M374.9,144.3c0,0.7-0.3,1.3-0.9,1.7c-0.6,0.4-1.4,0.7-2.5,0.7c-0.6,0-1.1-0.1-1.6-0.2    c-0.4-0.1-0.9-0.2-1.3-0.4v-1.7h0.2c0.4,0.3,0.8,0.5,1.3,0.7c0.5,0.2,0.9,0.2,1.4,0.2c0.1,0,0.3,0,0.4,0s0.3-0.1,0.5-0.1    c0.1-0.1,0.3-0.1,0.4-0.2c0.1-0.1,0.1-0.2,0.1-0.4c0-0.2-0.1-0.3-0.2-0.4c-0.1-0.1-0.3-0.2-0.6-0.3c-0.3-0.1-0.6-0.1-0.9-0.2    c-0.3-0.1-0.6-0.1-0.9-0.2c-0.6-0.2-1.1-0.5-1.3-0.8c-0.3-0.3-0.4-0.8-0.4-1.3c0-0.7,0.3-1.2,0.9-1.7c0.6-0.4,1.4-0.6,2.3-0.6    c0.5,0,1,0,1.4,0.1c0.5,0.1,0.9,0.2,1.2,0.3v1.7h-0.2c-0.3-0.2-0.7-0.4-1.1-0.6c-0.4-0.2-0.9-0.2-1.3-0.2c-0.2,0-0.3,0-0.5,0    c-0.2,0-0.3,0.1-0.4,0.1c-0.1,0-0.2,0.1-0.3,0.2s-0.1,0.2-0.1,0.3c0,0.2,0.1,0.3,0.2,0.4s0.4,0.2,0.8,0.3c0.3,0.1,0.5,0.1,0.8,0.2    c0.2,0.1,0.5,0.1,0.8,0.2c0.6,0.2,1,0.4,1.2,0.7C374.8,143.4,374.9,143.8,374.9,144.3z"/> 		<path style="fill:#1A171B;" d="M379.4,146c-0.1,0.1-0.2,0.2-0.4,0.3s-0.3,0.2-0.4,0.2c-0.2,0.1-0.4,0.1-0.5,0.2s-0.4,0.1-0.6,0.1    c-0.5,0-1-0.2-1.3-0.5s-0.5-0.7-0.5-1.2c0-0.4,0.1-0.7,0.3-1s0.4-0.5,0.8-0.6c0.3-0.1,0.7-0.3,1.2-0.3s1-0.1,1.5-0.1v0    c0-0.3-0.1-0.5-0.4-0.6s-0.6-0.2-1.1-0.2c-0.3,0-0.6,0.1-0.9,0.2s-0.6,0.2-0.7,0.2h-0.2v-1.3c0.2,0,0.5-0.1,0.9-0.2    c0.4-0.1,0.8-0.1,1.3-0.1c1,0,1.7,0.2,2.2,0.5c0.4,0.3,0.7,0.8,0.7,1.4v3.7h-1.7V146z M379.4,145.2v-1.1c-0.2,0-0.5,0-0.8,0.1    c-0.3,0-0.5,0.1-0.6,0.1c-0.2,0.1-0.3,0.1-0.4,0.2c-0.1,0.1-0.1,0.2-0.1,0.4c0,0.1,0,0.2,0,0.3c0,0.1,0.1,0.1,0.1,0.2    c0.1,0.1,0.2,0.1,0.3,0.1s0.3,0,0.5,0c0.2,0,0.4,0,0.5-0.1C379.1,145.4,379.3,145.3,379.4,145.2z"/> 		<path style="fill:#1A171B;" d="M388.3,146.6h-1.8v-2.7c0-0.2,0-0.4,0-0.7s-0.1-0.4-0.1-0.5c-0.1-0.1-0.2-0.2-0.3-0.3    c-0.1-0.1-0.3-0.1-0.5-0.1c-0.2,0-0.3,0-0.5,0.1c-0.2,0.1-0.3,0.1-0.5,0.2v3.9h-1.8v-5.5h1.8v0.6c0.3-0.2,0.6-0.4,0.9-0.6    c0.3-0.1,0.6-0.2,1-0.2c0.6,0,1.1,0.2,1.4,0.5s0.5,0.9,0.5,1.5V146.6z"/> 		<path style="fill:#1A171B;" d="M393.4,146.6c-0.2,0-0.4,0.1-0.6,0.1c-0.2,0-0.5,0-0.8,0c-0.7,0-1.2-0.1-1.5-0.4    c-0.3-0.3-0.5-0.8-0.5-1.4v-2.6h-0.7v-1.2h0.7v-1.6h1.8v1.6h1.6v1.2h-1.6v1.9c0,0.2,0,0.4,0,0.5c0,0.1,0,0.3,0.1,0.4    c0,0.1,0.1,0.2,0.2,0.3c0.1,0.1,0.3,0.1,0.5,0.1c0.1,0,0.2,0,0.4-0.1s0.3-0.1,0.3-0.1h0.1V146.6z"/> 		<path style="fill:#1A171B;" d="M396.3,140.4h-1.9V139h1.9V140.4z M396.2,146.6h-1.8v-5.5h1.8V146.6z"/> 		<path style="fill:#1A171B;" d="M401.2,146c-0.1,0.1-0.2,0.2-0.4,0.3s-0.3,0.2-0.4,0.2c-0.2,0.1-0.4,0.1-0.5,0.2s-0.4,0.1-0.6,0.1    c-0.5,0-1-0.2-1.3-0.5s-0.5-0.7-0.5-1.2c0-0.4,0.1-0.7,0.3-1s0.4-0.5,0.8-0.6c0.3-0.1,0.7-0.3,1.2-0.3s1-0.1,1.5-0.1v0    c0-0.3-0.1-0.5-0.4-0.6s-0.6-0.2-1.1-0.2c-0.3,0-0.6,0.1-0.9,0.2s-0.6,0.2-0.7,0.2h-0.2v-1.3c0.2,0,0.5-0.1,0.9-0.2    c0.4-0.1,0.8-0.1,1.3-0.1c1,0,1.7,0.2,2.2,0.5c0.4,0.3,0.7,0.8,0.7,1.4v3.7h-1.7V146z M401.2,145.2v-1.1c-0.2,0-0.5,0-0.8,0.1    c-0.3,0-0.5,0.1-0.6,0.1c-0.2,0.1-0.3,0.1-0.4,0.2c-0.1,0.1-0.1,0.2-0.1,0.4c0,0.1,0,0.2,0,0.3c0,0.1,0.1,0.1,0.1,0.2    c0.1,0.1,0.2,0.1,0.3,0.1s0.3,0,0.5,0c0.2,0,0.4,0,0.5-0.1C400.9,145.4,401,145.3,401.2,145.2z"/> 		<path style="fill:#1A171B;" d="M409.9,146c0,0.5-0.1,0.9-0.2,1.3s-0.4,0.6-0.6,0.8c-0.3,0.2-0.6,0.3-1,0.4    c-0.4,0.1-0.8,0.1-1.3,0.1c-0.4,0-0.8,0-1.1-0.1c-0.4,0-0.7-0.1-1-0.2v-1.4h0.2c0.2,0.1,0.5,0.2,0.8,0.2c0.3,0.1,0.6,0.1,0.8,0.1    c0.3,0,0.6,0,0.8-0.1s0.4-0.1,0.5-0.3c0.1-0.1,0.2-0.2,0.2-0.4c0-0.2,0.1-0.4,0.1-0.6V146c-0.2,0.2-0.4,0.3-0.7,0.4    s-0.5,0.2-0.9,0.2c-0.8,0-1.4-0.2-1.8-0.7s-0.6-1.2-0.6-2.1c0-0.5,0.1-0.8,0.2-1.2s0.3-0.6,0.5-0.9c0.2-0.2,0.5-0.4,0.8-0.5    c0.3-0.1,0.6-0.2,1-0.2c0.3,0,0.6,0,0.8,0.1s0.5,0.2,0.7,0.3l0.1-0.2h1.7V146z M408.1,144.9v-2.5c-0.1,0-0.2-0.1-0.4-0.1    c-0.1,0-0.3,0-0.4,0c-0.5,0-0.8,0.1-1,0.4s-0.3,0.6-0.3,1.1c0,0.5,0.1,0.9,0.3,1.1s0.5,0.3,0.9,0.3c0.2,0,0.3,0,0.5-0.1    S408,145,408.1,144.9z"/> 		<path style="fill:#1A171B;" d="M417.1,143.9c0,0.9-0.3,1.6-0.8,2.1c-0.5,0.5-1.3,0.8-2.2,0.8s-1.7-0.3-2.2-0.8    c-0.5-0.5-0.8-1.2-0.8-2.1c0-0.9,0.3-1.6,0.8-2.1c0.5-0.5,1.3-0.8,2.2-0.8c1,0,1.7,0.3,2.2,0.8C416.9,142.3,417.1,143,417.1,143.9    z M415,145.2c0.1-0.1,0.2-0.3,0.3-0.5c0.1-0.2,0.1-0.5,0.1-0.8c0-0.3,0-0.6-0.1-0.8s-0.1-0.4-0.2-0.5c-0.1-0.1-0.2-0.2-0.4-0.3    s-0.3-0.1-0.5-0.1s-0.3,0-0.5,0.1c-0.1,0-0.3,0.1-0.4,0.3c-0.1,0.1-0.2,0.3-0.3,0.5c-0.1,0.2-0.1,0.5-0.1,0.8c0,0.3,0,0.6,0.1,0.8    s0.1,0.4,0.2,0.5c0.1,0.1,0.2,0.2,0.4,0.3c0.1,0.1,0.3,0.1,0.5,0.1c0.2,0,0.3,0,0.5-0.1C414.8,145.4,414.9,145.3,415,145.2z"/> 	</g> 	<g> 		<rect x="114" y="78" style="fill-rule:evenodd;clip-rule:evenodd;fill:none;" width="76.2" height="11"/> 		<path style="fill:#1A171B;" d="M123.1,86.5h-1.9v-4.9l-1.3,3.2h-1.3l-1.3-3.2v4.9h-1.8v-7.3h2.2l1.6,3.6l1.6-3.6h2.2V86.5z"/> 		<path style="fill:#1A171B;" d="M130.3,86.5h-1.8v-0.6c-0.3,0.2-0.6,0.4-0.9,0.6s-0.6,0.2-1,0.2c-0.6,0-1.1-0.2-1.4-0.5    c-0.3-0.3-0.5-0.9-0.5-1.5V81h1.8v2.7c0,0.3,0,0.5,0,0.7c0,0.2,0.1,0.3,0.1,0.5c0.1,0.1,0.2,0.2,0.3,0.3c0.1,0.1,0.3,0.1,0.5,0.1    c0.1,0,0.3,0,0.5-0.1s0.4-0.1,0.5-0.2V81h1.8V86.5z"/> 		<path style="fill:#1A171B;" d="M136,82.7h-0.2c-0.1,0-0.2,0-0.4-0.1s-0.3,0-0.4,0c-0.3,0-0.5,0-0.7,0c-0.2,0-0.4,0.1-0.6,0.2v3.7    H132V81h1.8v0.8c0.4-0.3,0.7-0.6,1-0.7c0.3-0.1,0.5-0.2,0.8-0.2c0.1,0,0.1,0,0.2,0c0.1,0,0.1,0,0.2,0V82.7z"/> 		<path style="fill:#1A171B;" d="M142.6,83.8c0,0.9-0.3,1.6-0.8,2.1c-0.5,0.5-1.3,0.8-2.2,0.8s-1.7-0.3-2.2-0.8    c-0.5-0.5-0.8-1.2-0.8-2.1c0-0.9,0.3-1.6,0.8-2.1c0.5-0.5,1.3-0.8,2.2-0.8c1,0,1.7,0.3,2.2,0.8C142.3,82.2,142.6,82.9,142.6,83.8z     M140.4,85.1c0.1-0.1,0.2-0.3,0.3-0.5c0.1-0.2,0.1-0.5,0.1-0.8c0-0.3,0-0.6-0.1-0.8s-0.1-0.4-0.2-0.5c-0.1-0.1-0.2-0.2-0.4-0.3    s-0.3-0.1-0.5-0.1s-0.3,0-0.5,0.1c-0.1,0-0.3,0.1-0.4,0.3c-0.1,0.1-0.2,0.3-0.3,0.5c-0.1,0.2-0.1,0.5-0.1,0.8c0,0.3,0,0.6,0.1,0.8    s0.1,0.4,0.2,0.5c0.1,0.1,0.2,0.2,0.4,0.3c0.1,0.1,0.3,0.1,0.5,0.1c0.2,0,0.3,0,0.5-0.1C140.2,85.3,140.3,85.2,140.4,85.1z"/> 		<path style="fill:#1A171B;" d="M148.6,84.8c0,0.6-0.3,1-0.8,1.4s-1.2,0.5-2.1,0.5c-0.5,0-0.9,0-1.3-0.1s-0.7-0.2-1-0.3v-1.4h0.2    c0.1,0.1,0.2,0.1,0.3,0.2c0.1,0.1,0.3,0.2,0.5,0.2c0.2,0.1,0.4,0.1,0.6,0.2s0.5,0.1,0.7,0.1c0.3,0,0.6,0,0.8-0.1s0.2-0.2,0.2-0.3    c0-0.1,0-0.2-0.1-0.3s-0.3-0.1-0.6-0.2c-0.1,0-0.3-0.1-0.5-0.1c-0.2,0-0.4-0.1-0.6-0.1c-0.5-0.1-0.9-0.3-1.1-0.6s-0.4-0.6-0.4-1    c0-0.5,0.3-1,0.8-1.3c0.5-0.4,1.2-0.5,2-0.5c0.4,0,0.8,0,1.2,0.1c0.4,0.1,0.7,0.2,0.9,0.3v1.4h-0.2c-0.3-0.2-0.6-0.3-0.9-0.4    c-0.3-0.1-0.7-0.2-1-0.2c-0.3,0-0.5,0-0.7,0.1c-0.2,0.1-0.3,0.2-0.3,0.3c0,0.1,0,0.2,0.1,0.3s0.3,0.1,0.6,0.2    c0.2,0,0.4,0.1,0.6,0.1c0.2,0,0.4,0.1,0.6,0.1c0.5,0.1,0.8,0.3,1,0.6S148.6,84.4,148.6,84.8z"/> 		<path style="fill:#1A171B;" d="M152,84.6l-1.8,3.7h-1.1l1-3.7H152z"/> 		<path style="fill:#1A171B;" d="M163.5,86.5h-2.2l-1.6-2.4l-1.6,2.4h-2.1l2.6-3.7l-2.5-3.6h2.2l1.5,2.3l1.6-2.3h2.1l-2.5,3.5    L163.5,86.5z"/> 		<path style="fill:#1A171B;" d="M167.8,85.9c-0.1,0.1-0.2,0.2-0.4,0.3s-0.3,0.2-0.4,0.2c-0.2,0.1-0.4,0.1-0.5,0.2s-0.4,0.1-0.6,0.1    c-0.5,0-1-0.2-1.3-0.5s-0.5-0.7-0.5-1.2c0-0.4,0.1-0.7,0.3-1s0.4-0.5,0.8-0.6c0.3-0.1,0.7-0.3,1.2-0.3s1-0.1,1.5-0.1v0    c0-0.3-0.1-0.5-0.4-0.6s-0.6-0.2-1.1-0.2c-0.3,0-0.6,0.1-0.9,0.2s-0.6,0.2-0.7,0.2h-0.2v-1.3c0.2,0,0.5-0.1,0.9-0.2    c0.4-0.1,0.8-0.1,1.3-0.1c1,0,1.7,0.2,2.2,0.5c0.4,0.3,0.7,0.8,0.7,1.4v3.7h-1.7V85.9z M167.8,85.1v-1.1c-0.2,0-0.5,0-0.8,0.1    c-0.3,0-0.5,0.1-0.6,0.1c-0.2,0.1-0.3,0.1-0.4,0.2c-0.1,0.1-0.1,0.2-0.1,0.4c0,0.1,0,0.2,0,0.3c0,0.1,0.1,0.1,0.1,0.2    c0.1,0.1,0.2,0.1,0.3,0.1s0.3,0,0.5,0c0.2,0,0.4,0,0.5-0.1C167.5,85.3,167.6,85.2,167.8,85.1z"/> 		<path style="fill:#1A171B;" d="M172.9,86.5h-1.8v-7.6h1.8V86.5z"/> 		<path style="fill:#1A171B;" d="M176.3,86.5h-1.8v-7.6h1.8V86.5z"/> 		<path style="fill:#1A171B;" d="M181.3,85.9c-0.1,0.1-0.2,0.2-0.4,0.3s-0.3,0.2-0.4,0.2c-0.2,0.1-0.4,0.1-0.5,0.2s-0.4,0.1-0.6,0.1    c-0.5,0-1-0.2-1.3-0.5s-0.5-0.7-0.5-1.2c0-0.4,0.1-0.7,0.3-1s0.4-0.5,0.8-0.6c0.3-0.1,0.7-0.3,1.2-0.3s1-0.1,1.5-0.1v0    c0-0.3-0.1-0.5-0.4-0.6s-0.6-0.2-1.1-0.2c-0.3,0-0.6,0.1-0.9,0.2s-0.6,0.2-0.7,0.2H178v-1.3c0.2,0,0.5-0.1,0.9-0.2    c0.4-0.1,0.8-0.1,1.3-0.1c1,0,1.7,0.2,2.2,0.5c0.4,0.3,0.7,0.8,0.7,1.4v3.7h-1.7V85.9z M181.3,85.1v-1.1c-0.2,0-0.5,0-0.8,0.1    c-0.3,0-0.5,0.1-0.6,0.1c-0.2,0.1-0.3,0.1-0.4,0.2c-0.1,0.1-0.1,0.2-0.1,0.4c0,0.1,0,0.2,0,0.3c0,0.1,0.1,0.1,0.1,0.2    c0.1,0.1,0.2,0.1,0.3,0.1s0.3,0,0.5,0c0.2,0,0.4,0,0.5-0.1C181,85.3,181.1,85.2,181.3,85.1z"/> 		<path style="fill:#1A171B;" d="M189.4,84.8c0,0.6-0.3,1-0.8,1.4s-1.2,0.5-2.1,0.5c-0.5,0-0.9,0-1.3-0.1s-0.7-0.2-1-0.3v-1.4h0.2    c0.1,0.1,0.2,0.1,0.3,0.2c0.1,0.1,0.3,0.2,0.5,0.2c0.2,0.1,0.4,0.1,0.6,0.2s0.5,0.1,0.7,0.1c0.3,0,0.6,0,0.8-0.1s0.2-0.2,0.2-0.3    c0-0.1,0-0.2-0.1-0.3s-0.3-0.1-0.6-0.2c-0.1,0-0.3-0.1-0.5-0.1c-0.2,0-0.4-0.1-0.6-0.1c-0.5-0.1-0.9-0.3-1.1-0.6s-0.4-0.6-0.4-1    c0-0.5,0.3-1,0.7-1.3c0.5-0.4,1.2-0.5,2-0.5c0.4,0,0.8,0,1.2,0.1c0.4,0.1,0.7,0.2,0.9,0.3v1.4H189c-0.3-0.2-0.6-0.3-0.9-0.4    c-0.3-0.1-0.7-0.2-1-0.2c-0.3,0-0.5,0-0.7,0.1c-0.2,0.1-0.3,0.2-0.3,0.3c0,0.1,0,0.2,0.1,0.3s0.3,0.1,0.6,0.2    c0.2,0,0.4,0.1,0.6,0.1c0.2,0,0.4,0.1,0.6,0.1c0.5,0.1,0.8,0.3,1,0.6S189.4,84.4,189.4,84.8z"/> 	</g> 	<g> 		<rect x="8.7" y="5.6" style="fill-rule:evenodd;clip-rule:evenodd;fill:none;" width="145.1" height="11"/> 		<path style="fill:#1A171B;" d="M15.4,8.2H12v1.4h3.1V11H12v3.1h-1.9V6.8h5.2V8.2z"/> 		<path style="fill:#1A171B;" d="M18.4,7.8h-1.9V6.5h1.9V7.8z M18.3,14.1h-1.8V8.6h1.8V14.1z"/> 		<path style="fill:#1A171B;" d="M24.7,12.4c0,0.6-0.3,1-0.8,1.4s-1.2,0.5-2.1,0.5c-0.5,0-0.9,0-1.3-0.1s-0.7-0.2-1-0.3v-1.4h0.2    c0.1,0.1,0.2,0.1,0.3,0.2c0.1,0.1,0.3,0.2,0.5,0.2c0.2,0.1,0.4,0.1,0.6,0.2s0.5,0.1,0.7,0.1c0.3,0,0.6,0,0.8-0.1s0.2-0.2,0.2-0.3    c0-0.1,0-0.2-0.1-0.3s-0.3-0.1-0.6-0.2c-0.1,0-0.3-0.1-0.5-0.1c-0.2,0-0.4-0.1-0.6-0.1c-0.5-0.1-0.9-0.3-1.1-0.6s-0.4-0.6-0.4-1    c0-0.5,0.3-1,0.8-1.3c0.5-0.4,1.2-0.5,2-0.5c0.4,0,0.8,0,1.2,0.1c0.4,0.1,0.7,0.2,0.9,0.3v1.4h-0.2c-0.3-0.2-0.6-0.3-0.9-0.4    c-0.3-0.1-0.7-0.2-1-0.2c-0.3,0-0.5,0-0.7,0.1c-0.2,0.1-0.3,0.2-0.3,0.3c0,0.1,0,0.2,0.1,0.3s0.3,0.1,0.6,0.2    c0.2,0,0.4,0.1,0.6,0.1c0.2,0,0.4,0.1,0.6,0.1c0.5,0.1,0.8,0.3,1,0.6S24.7,12,24.7,12.4z"/> 		<path style="fill:#1A171B;" d="M29.4,14.1c-0.2,0-0.4,0.1-0.6,0.1c-0.2,0-0.5,0-0.8,0c-0.7,0-1.2-0.1-1.5-0.4    C26.2,13.5,26,13,26,12.4V9.8h-0.7V8.6H26V7.1h1.8v1.6h1.6v1.2h-1.6v1.9c0,0.2,0,0.4,0,0.5c0,0.1,0,0.3,0.1,0.4    c0,0.1,0.1,0.2,0.2,0.3c0.1,0.1,0.3,0.1,0.5,0.1c0.1,0,0.2,0,0.4-0.1s0.3-0.1,0.3-0.1h0.1V14.1z"/> 		<path style="fill:#1A171B;" d="M35.9,11.7h-4c0,0.4,0.2,0.8,0.5,1c0.3,0.2,0.7,0.3,1.3,0.3c0.4,0,0.7-0.1,1.1-0.2s0.6-0.3,0.8-0.4    h0.2v1.4c-0.4,0.2-0.8,0.3-1.1,0.3s-0.7,0.1-1.2,0.1c-1.1,0-1.9-0.2-2.5-0.7s-0.9-1.2-0.9-2.1c0-0.9,0.3-1.6,0.8-2.2    c0.6-0.5,1.3-0.8,2.3-0.8c0.9,0,1.6,0.2,2,0.7s0.7,1.1,0.7,1.9V11.7z M34.1,10.7c0-0.4-0.1-0.6-0.3-0.8S33.4,9.6,33,9.6    c-0.3,0-0.6,0.1-0.8,0.3s-0.3,0.5-0.4,0.8H34.1z"/> 		<path style="fill:#1A171B;" d="M41.1,10.3h-0.2c-0.1,0-0.2,0-0.4-0.1s-0.3,0-0.4,0c-0.3,0-0.5,0-0.7,0c-0.2,0-0.4,0.1-0.6,0.2v3.7    h-1.8V8.6h1.8v0.8c0.4-0.3,0.7-0.6,1-0.7c0.3-0.1,0.5-0.2,0.8-0.2c0.1,0,0.1,0,0.2,0c0.1,0,0.1,0,0.2,0V10.3z"/> 		<path style="fill:#1A171B;" d="M46,10.3h-0.2c-0.1,0-0.2,0-0.4-0.1s-0.3,0-0.4,0c-0.3,0-0.5,0-0.7,0c-0.2,0-0.4,0.1-0.6,0.2v3.7    h-1.8V8.6h1.8v0.8c0.4-0.3,0.7-0.6,1-0.7c0.3-0.1,0.5-0.2,0.8-0.2c0.1,0,0.1,0,0.2,0c0.1,0,0.1,0,0.2,0V10.3z"/> 		<path style="fill:#1A171B;" d="M50.4,13.5c-0.1,0.1-0.2,0.2-0.4,0.3S49.7,14,49.6,14c-0.2,0.1-0.4,0.1-0.5,0.2s-0.4,0.1-0.6,0.1    c-0.5,0-1-0.2-1.3-0.5s-0.5-0.7-0.5-1.2c0-0.4,0.1-0.7,0.3-1s0.4-0.5,0.8-0.6c0.3-0.1,0.7-0.3,1.2-0.3s1-0.1,1.5-0.1v0    c0-0.3-0.1-0.5-0.4-0.6s-0.6-0.2-1.1-0.2c-0.3,0-0.6,0.1-0.9,0.2s-0.6,0.2-0.7,0.2h-0.2V8.7c0.2,0,0.5-0.1,0.9-0.2    c0.4-0.1,0.8-0.1,1.3-0.1c1,0,1.7,0.2,2.2,0.5c0.4,0.3,0.7,0.8,0.7,1.4v3.7h-1.7V13.5z M50.4,12.7v-1.1c-0.2,0-0.5,0-0.8,0.1    c-0.3,0-0.5,0.1-0.6,0.1c-0.2,0.1-0.3,0.1-0.4,0.2c-0.1,0.1-0.1,0.2-0.1,0.4c0,0.1,0,0.2,0,0.3c0,0.1,0.1,0.1,0.1,0.2    c0.1,0.1,0.2,0.1,0.3,0.1s0.3,0,0.5,0c0.2,0,0.4,0,0.5-0.1C50.1,12.9,50.2,12.8,50.4,12.7z"/> 		<path style="fill:#1A171B;" d="M55.9,12.2l-1.8,3.7h-1.1l1-3.7H55.9z"/> 		<path style="fill:#1A171B;" d="M66.5,8.2h-2.3v5.9h-1.9V8.2h-2.3V6.8h6.4V8.2z"/> 		<path style="fill:#1A171B;" d="M73,11.7h-4c0,0.4,0.2,0.8,0.5,1c0.3,0.2,0.7,0.3,1.3,0.3c0.4,0,0.7-0.1,1.1-0.2s0.6-0.3,0.8-0.4    h0.2v1.4c-0.4,0.2-0.8,0.3-1.1,0.3s-0.7,0.1-1.2,0.1c-1.1,0-1.9-0.2-2.5-0.7s-0.9-1.2-0.9-2.1c0-0.9,0.3-1.6,0.8-2.2    c0.6-0.5,1.3-0.8,2.3-0.8c0.9,0,1.6,0.2,2,0.7s0.7,1.1,0.7,1.9V11.7z M71.2,10.7c0-0.4-0.1-0.6-0.3-0.8s-0.4-0.3-0.8-0.3    c-0.3,0-0.6,0.1-0.8,0.3s-0.3,0.5-0.4,0.8H71.2z"/> 		<path style="fill:#1A171B;" d="M78.2,10.3H78c-0.1,0-0.2,0-0.4-0.1s-0.3,0-0.4,0c-0.3,0-0.5,0-0.7,0c-0.2,0-0.4,0.1-0.6,0.2v3.7    h-1.8V8.6H76v0.8c0.4-0.3,0.7-0.6,1-0.7c0.3-0.1,0.5-0.2,0.8-0.2c0.1,0,0.1,0,0.2,0c0.1,0,0.1,0,0.2,0V10.3z"/> 		<path style="fill:#1A171B;" d="M83.2,10.3H83c-0.1,0-0.2,0-0.4-0.1s-0.3,0-0.4,0c-0.3,0-0.5,0-0.7,0c-0.2,0-0.4,0.1-0.6,0.2v3.7    h-1.8V8.6h1.8v0.8c0.4-0.3,0.7-0.6,1-0.7c0.3-0.1,0.5-0.2,0.8-0.2c0.1,0,0.1,0,0.2,0c0.1,0,0.1,0,0.2,0V10.3z"/> 		<path style="fill:#1A171B;" d="M87.5,13.5c-0.1,0.1-0.2,0.2-0.4,0.3S86.8,14,86.7,14c-0.2,0.1-0.4,0.1-0.5,0.2s-0.4,0.1-0.6,0.1    c-0.5,0-1-0.2-1.3-0.5s-0.5-0.7-0.5-1.2c0-0.4,0.1-0.7,0.3-1s0.4-0.5,0.8-0.6c0.3-0.1,0.7-0.3,1.2-0.3s1-0.1,1.5-0.1v0    c0-0.3-0.1-0.5-0.4-0.6S86.5,9.7,86,9.7c-0.3,0-0.6,0.1-0.9,0.2s-0.6,0.2-0.7,0.2h-0.2V8.7c0.2,0,0.5-0.1,0.9-0.2    c0.4-0.1,0.8-0.1,1.3-0.1c1,0,1.7,0.2,2.2,0.5c0.4,0.3,0.7,0.8,0.7,1.4v3.7h-1.7V13.5z M87.5,12.7v-1.1c-0.2,0-0.5,0-0.8,0.1    c-0.3,0-0.5,0.1-0.6,0.1c-0.2,0.1-0.3,0.1-0.4,0.2c-0.1,0.1-0.1,0.2-0.1,0.4c0,0.1,0,0.2,0,0.3c0,0.1,0.1,0.1,0.1,0.2    c0.1,0.1,0.2,0.1,0.3,0.1s0.3,0,0.5,0c0.2,0,0.4,0,0.5-0.1C87.2,12.9,87.3,12.8,87.5,12.7z"/> 		<path style="fill:#1A171B;" d="M99.6,14.1h-1.8v-0.6c-0.3,0.2-0.6,0.4-0.8,0.5s-0.6,0.2-0.9,0.2c-0.7,0-1.2-0.3-1.6-0.8    c-0.4-0.5-0.6-1.2-0.6-2.1c0-0.5,0.1-0.9,0.2-1.2s0.3-0.7,0.6-0.9c0.2-0.2,0.5-0.4,0.8-0.6s0.6-0.2,0.9-0.2c0.3,0,0.6,0,0.8,0.1    c0.2,0.1,0.4,0.2,0.6,0.3V6.5h1.8V14.1z M97.8,12.6V9.9c-0.1-0.1-0.3-0.1-0.4-0.1s-0.3,0-0.4,0c-0.5,0-0.8,0.1-1,0.4    s-0.3,0.7-0.3,1.2c0,0.5,0.1,0.9,0.3,1.2c0.2,0.2,0.5,0.4,0.9,0.4c0.2,0,0.3,0,0.5-0.1C97.5,12.8,97.7,12.7,97.8,12.6z"/> 		<path style="fill:#1A171B;" d="M106.6,11.7h-4c0,0.4,0.2,0.8,0.5,1c0.3,0.2,0.7,0.3,1.3,0.3c0.4,0,0.7-0.1,1.1-0.2    s0.6-0.3,0.8-0.4h0.2v1.4c-0.4,0.2-0.8,0.3-1.1,0.3s-0.7,0.1-1.2,0.1c-1.1,0-1.9-0.2-2.5-0.7s-0.9-1.2-0.9-2.1    c0-0.9,0.3-1.6,0.8-2.2c0.6-0.5,1.3-0.8,2.3-0.8c0.9,0,1.6,0.2,2,0.7s0.7,1.1,0.7,1.9V11.7z M104.9,10.7c0-0.4-0.1-0.6-0.3-0.8    s-0.4-0.3-0.8-0.3c-0.3,0-0.6,0.1-0.8,0.3s-0.3,0.5-0.4,0.8H104.9z"/> 		<path style="fill:#1A171B;" d="M117.2,11.8c0,0.7-0.3,1.3-0.9,1.7c-0.6,0.4-1.4,0.7-2.5,0.7c-0.6,0-1.1-0.1-1.6-0.2    c-0.4-0.1-0.9-0.2-1.3-0.4v-1.7h0.2c0.4,0.3,0.8,0.5,1.3,0.7c0.5,0.2,0.9,0.2,1.4,0.2c0.1,0,0.3,0,0.4,0s0.3-0.1,0.5-0.1    c0.1-0.1,0.3-0.1,0.4-0.2c0.1-0.1,0.1-0.2,0.1-0.4c0-0.2-0.1-0.3-0.2-0.4c-0.1-0.1-0.3-0.2-0.6-0.3c-0.3-0.1-0.6-0.1-0.9-0.2    c-0.3-0.1-0.6-0.1-0.9-0.2c-0.6-0.2-1.1-0.5-1.3-0.8C111.2,9.9,111,9.5,111,9c0-0.7,0.3-1.2,0.9-1.7c0.6-0.4,1.4-0.6,2.3-0.6    c0.5,0,1,0,1.4,0.1c0.5,0.1,0.9,0.2,1.2,0.3v1.7h-0.2c-0.3-0.2-0.7-0.4-1.1-0.6c-0.4-0.2-0.9-0.2-1.3-0.2c-0.2,0-0.3,0-0.5,0    c-0.2,0-0.3,0.1-0.4,0.1c-0.1,0-0.2,0.1-0.3,0.2S113,8.6,113,8.8c0,0.2,0.1,0.3,0.2,0.4s0.4,0.2,0.8,0.3c0.3,0.1,0.5,0.1,0.8,0.2    c0.2,0.1,0.5,0.1,0.8,0.2c0.6,0.2,1,0.4,1.2,0.7C117.1,10.9,117.2,11.3,117.2,11.8z"/> 		<path style="fill:#1A171B;" d="M124,11.4c0,0.9-0.3,1.6-0.8,2.1c-0.5,0.5-1.3,0.8-2.2,0.8s-1.7-0.3-2.2-0.8    c-0.5-0.5-0.8-1.2-0.8-2.1c0-0.9,0.3-1.6,0.8-2.1c0.5-0.5,1.3-0.8,2.2-0.8c1,0,1.7,0.3,2.2,0.8C123.7,9.8,124,10.5,124,11.4z     M121.8,12.7c0.1-0.1,0.2-0.3,0.3-0.5c0.1-0.2,0.1-0.5,0.1-0.8c0-0.3,0-0.6-0.1-0.8s-0.1-0.4-0.2-0.5c-0.1-0.1-0.2-0.2-0.4-0.3    s-0.3-0.1-0.5-0.1s-0.3,0-0.5,0.1c-0.1,0-0.3,0.1-0.4,0.3c-0.1,0.1-0.2,0.3-0.3,0.5c-0.1,0.2-0.1,0.5-0.1,0.8c0,0.3,0,0.6,0.1,0.8    s0.1,0.4,0.2,0.5c0.1,0.1,0.2,0.2,0.4,0.3c0.1,0.1,0.3,0.1,0.5,0.1c0.2,0,0.3,0,0.5-0.1C121.6,12.9,121.7,12.8,121.8,12.7z"/> 		<path style="fill:#1A171B;" d="M130.8,14.1H129v-2.7c0-0.2,0-0.4,0-0.7s-0.1-0.4-0.1-0.5c-0.1-0.1-0.2-0.2-0.3-0.3    c-0.1-0.1-0.3-0.1-0.5-0.1c-0.2,0-0.3,0-0.5,0.1c-0.2,0.1-0.3,0.1-0.5,0.2v3.9h-1.8V8.6h1.8v0.6c0.3-0.2,0.6-0.4,0.9-0.6    c0.3-0.1,0.6-0.2,1-0.2c0.6,0,1.1,0.2,1.4,0.5s0.5,0.9,0.5,1.5V14.1z"/> 		<path style="fill:#1A171B;" d="M137.8,11.7h-4c0,0.4,0.2,0.8,0.5,1c0.3,0.2,0.7,0.3,1.3,0.3c0.4,0,0.7-0.1,1.1-0.2    s0.6-0.3,0.8-0.4h0.2v1.4c-0.4,0.2-0.8,0.3-1.1,0.3s-0.7,0.1-1.2,0.1c-1.1,0-1.9-0.2-2.5-0.7s-0.9-1.2-0.9-2.1    c0-0.9,0.3-1.6,0.8-2.2c0.6-0.5,1.3-0.8,2.3-0.8c0.9,0,1.6,0.2,2,0.7s0.7,1.1,0.7,1.9V11.7z M136,10.7c0-0.4-0.1-0.6-0.3-0.8    s-0.4-0.3-0.8-0.3c-0.3,0-0.6,0.1-0.8,0.3s-0.3,0.5-0.4,0.8H136z"/> 		<path style="fill:#1A171B;" d="M140.8,7.8H139V6.5h1.9V7.8z M140.8,14.1H139V8.6h1.8V14.1z"/> 		<path style="fill:#1A171B;" d="M146.4,10.3h-0.2c-0.1,0-0.2,0-0.4-0.1s-0.3,0-0.4,0c-0.3,0-0.5,0-0.7,0c-0.2,0-0.4,0.1-0.6,0.2    v3.7h-1.8V8.6h1.8v0.8c0.4-0.3,0.7-0.6,1-0.7c0.3-0.1,0.5-0.2,0.8-0.2c0.1,0,0.1,0,0.2,0c0.1,0,0.1,0,0.2,0V10.3z"/> 		<path style="fill:#1A171B;" d="M150.7,13.5c-0.1,0.1-0.2,0.2-0.4,0.3S150.1,14,150,14c-0.2,0.1-0.4,0.1-0.5,0.2s-0.4,0.1-0.6,0.1    c-0.5,0-1-0.2-1.3-0.5S147,13,147,12.5c0-0.4,0.1-0.7,0.3-1s0.4-0.5,0.8-0.6c0.3-0.1,0.7-0.3,1.2-0.3s1-0.1,1.5-0.1v0    c0-0.3-0.1-0.5-0.4-0.6s-0.6-0.2-1.1-0.2c-0.3,0-0.6,0.1-0.9,0.2s-0.6,0.2-0.7,0.2h-0.2V8.7c0.2,0,0.5-0.1,0.9-0.2    c0.4-0.1,0.8-0.1,1.3-0.1c1,0,1.7,0.2,2.2,0.5c0.4,0.3,0.7,0.8,0.7,1.4v3.7h-1.7V13.5z M150.7,12.7v-1.1c-0.2,0-0.5,0-0.8,0.1    c-0.3,0-0.5,0.1-0.6,0.1c-0.2,0.1-0.3,0.1-0.4,0.2c-0.1,0.1-0.1,0.2-0.1,0.4c0,0.1,0,0.2,0,0.3c0,0.1,0.1,0.1,0.1,0.2    c0.1,0.1,0.2,0.1,0.3,0.1s0.3,0,0.5,0c0.2,0,0.4,0,0.5-0.1C150.4,12.9,150.6,12.8,150.7,12.7z"/> 	</g> </g> <g id="text-municipis"> 	<g> 		<rect x="287.2" y="62.8" style="fill-rule:evenodd;clip-rule:evenodd;fill:none;" width="34.6" height="11"/> 		<path style="fill:#1A171B;" d="M293.5,71.3h-1l-0.7-2h-3l-0.7,2h-0.9l2.5-7.3h1.2L293.5,71.3z M291.6,68.4l-1.2-3.6l-1.2,3.6    H291.6z"/> 		<path style="fill:#1A171B;" d="M303.1,69c0,0.4-0.1,0.7-0.2,1c-0.1,0.3-0.3,0.5-0.5,0.7c-0.3,0.2-0.5,0.4-0.9,0.5    c-0.3,0.1-0.7,0.1-1.2,0.1h-2.4V64h2c0.5,0,0.9,0,1.1,0.1s0.5,0.1,0.7,0.2c0.3,0.1,0.4,0.3,0.5,0.5c0.1,0.2,0.2,0.5,0.2,0.8    c0,0.3-0.1,0.6-0.2,0.9s-0.4,0.4-0.7,0.6v0c0.5,0.1,0.8,0.3,1.1,0.6S303.1,68.5,303.1,69z M301.5,65.8c0-0.2,0-0.3-0.1-0.4    c-0.1-0.1-0.1-0.2-0.3-0.3c-0.1-0.1-0.3-0.1-0.5-0.2s-0.5,0-0.8,0h-1.1v2.1h1.2c0.3,0,0.5,0,0.7,0c0.2,0,0.3-0.1,0.5-0.2    s0.2-0.2,0.3-0.4C301.5,66.2,301.5,66,301.5,65.8z M302.1,69.1c0-0.3,0-0.5-0.1-0.7s-0.2-0.3-0.5-0.4c-0.1-0.1-0.3-0.1-0.5-0.2    s-0.5,0-0.8,0h-1.4v2.7h1.2c0.4,0,0.7,0,1-0.1c0.3,0,0.5-0.1,0.6-0.2c0.2-0.1,0.3-0.3,0.4-0.4S302.1,69.3,302.1,69.1z"/> 		<path style="fill:#1A171B;" d="M308.3,71.3h-0.9v-0.6c-0.1,0.1-0.2,0.1-0.3,0.2s-0.3,0.2-0.4,0.2c-0.1,0.1-0.3,0.1-0.5,0.2    s-0.4,0.1-0.7,0.1c-0.5,0-0.9-0.2-1.2-0.5c-0.3-0.3-0.5-0.7-0.5-1.2c0-0.4,0.1-0.7,0.3-1s0.4-0.5,0.7-0.6c0.3-0.1,0.7-0.2,1.1-0.3    c0.4-0.1,0.9-0.1,1.4-0.1v-0.1c0-0.2,0-0.4-0.1-0.5c-0.1-0.1-0.2-0.2-0.3-0.3c-0.1-0.1-0.3-0.1-0.4-0.2c-0.2,0-0.4,0-0.5,0    c-0.2,0-0.5,0-0.8,0.1c-0.3,0.1-0.6,0.2-0.9,0.3h0v-0.9c0.2,0,0.4-0.1,0.7-0.2c0.3-0.1,0.6-0.1,0.9-0.1c0.4,0,0.7,0,0.9,0.1    s0.5,0.2,0.7,0.3c0.2,0.1,0.3,0.3,0.4,0.6s0.2,0.5,0.2,0.9V71.3z M307.4,69.9v-1.5c-0.3,0-0.6,0-0.9,0.1s-0.6,0.1-0.9,0.1    c-0.2,0.1-0.5,0.2-0.6,0.3c-0.2,0.2-0.2,0.4-0.2,0.7c0,0.3,0.1,0.5,0.3,0.7s0.5,0.2,0.8,0.2c0.3,0,0.6-0.1,0.8-0.2    C307,70.3,307.2,70.1,307.4,69.9z"/> 		<path style="fill:#1A171B;" d="M314.3,71.3h-0.9v-3.1c0-0.3,0-0.5,0-0.7c0-0.2-0.1-0.4-0.2-0.5c-0.1-0.1-0.2-0.2-0.3-0.3    s-0.3-0.1-0.6-0.1c-0.2,0-0.5,0.1-0.7,0.2c-0.3,0.1-0.5,0.3-0.7,0.5v4.1H310v-5.5h0.9v0.6c0.3-0.2,0.6-0.4,0.8-0.6    s0.6-0.2,0.9-0.2c0.6,0,1,0.2,1.3,0.5c0.3,0.4,0.4,0.9,0.4,1.5V71.3z M314.1,63.4c0,0.5-0.2,0.9-0.4,1.1s-0.5,0.4-0.8,0.4    c-0.2,0-0.3,0-0.5-0.1s-0.3-0.2-0.4-0.3c-0.1-0.1-0.3-0.2-0.4-0.3s-0.2-0.1-0.3-0.1c-0.2,0-0.3,0.1-0.4,0.2s-0.1,0.3-0.1,0.6h-0.6    c0-0.5,0.1-0.9,0.4-1.1s0.5-0.4,0.8-0.4c0.2,0,0.3,0,0.4,0.1c0.1,0.1,0.3,0.2,0.4,0.3c0.1,0.1,0.3,0.2,0.4,0.3s0.2,0.1,0.3,0.1    c0.2,0,0.3-0.1,0.4-0.2s0.1-0.3,0.1-0.6H314.1z"/> 		<path style="fill:#1A171B;" d="M319.9,71.3h-0.9v-0.6c-0.1,0.1-0.2,0.1-0.3,0.2s-0.3,0.2-0.4,0.2c-0.1,0.1-0.3,0.1-0.5,0.2    s-0.4,0.1-0.7,0.1c-0.5,0-0.9-0.2-1.2-0.5c-0.3-0.3-0.5-0.7-0.5-1.2c0-0.4,0.1-0.7,0.3-1s0.4-0.5,0.7-0.6c0.3-0.1,0.7-0.2,1.1-0.3    c0.4-0.1,0.9-0.1,1.4-0.1v-0.1c0-0.2,0-0.4-0.1-0.5c-0.1-0.1-0.2-0.2-0.3-0.3c-0.1-0.1-0.3-0.1-0.4-0.2c-0.2,0-0.4,0-0.5,0    c-0.2,0-0.5,0-0.8,0.1c-0.3,0.1-0.6,0.2-0.9,0.3h0v-0.9c0.2,0,0.4-0.1,0.7-0.2c0.3-0.1,0.6-0.1,0.9-0.1c0.4,0,0.7,0,0.9,0.1    s0.5,0.2,0.7,0.3c0.2,0.1,0.3,0.3,0.4,0.6s0.2,0.5,0.2,0.9V71.3z M319.1,69.9v-1.5c-0.3,0-0.6,0-0.9,0.1s-0.6,0.1-0.9,0.1    c-0.2,0.1-0.5,0.2-0.6,0.3c-0.2,0.2-0.2,0.4-0.2,0.7c0,0.3,0.1,0.5,0.3,0.7s0.5,0.2,0.8,0.2c0.3,0,0.6-0.1,0.8-0.2    C318.6,70.3,318.9,70.1,319.1,69.9z"/> 	</g> 	<g> 		<rect x="239.6" y="121.1" style="fill-rule:evenodd;clip-rule:evenodd;fill:none;" width="41.5" height="11"/> 		<path style="fill:#1A171B;" d="M245.7,129.6h-1.1l-3.3-6.5v6.5h-0.9v-7.3h1.4l3,5.9v-5.9h0.9V129.6z"/> 		<path style="fill:#1A171B;" d="M251.8,127H248c0,0.3,0,0.6,0.1,0.9c0.1,0.2,0.2,0.5,0.4,0.6c0.2,0.2,0.4,0.3,0.6,0.4    s0.5,0.1,0.7,0.1c0.4,0,0.7-0.1,1.1-0.2c0.4-0.1,0.6-0.3,0.8-0.4h0v1c-0.3,0.1-0.6,0.2-0.9,0.3c-0.3,0.1-0.6,0.1-1,0.1    c-0.9,0-1.5-0.2-2-0.7s-0.7-1.2-0.7-2.1c0-0.9,0.2-1.6,0.7-2.1s1.1-0.8,1.8-0.8c0.7,0,1.2,0.2,1.6,0.6s0.6,1,0.6,1.8V127z     M251,126.3c0-0.5-0.1-0.9-0.3-1.1c-0.2-0.3-0.6-0.4-1-0.4c-0.5,0-0.8,0.1-1.1,0.4s-0.4,0.6-0.5,1.1H251z"/> 		<path style="fill:#1A171B;" d="M257.3,129c0,0.9-0.2,1.6-0.6,2c-0.4,0.4-1,0.6-1.8,0.6c-0.3,0-0.5,0-0.8-0.1s-0.5-0.1-0.8-0.2    v-0.9h0c0.1,0.1,0.4,0.1,0.7,0.2s0.6,0.1,0.9,0.1c0.3,0,0.5,0,0.7-0.1c0.2-0.1,0.3-0.2,0.5-0.3c0.1-0.1,0.2-0.3,0.2-0.5    s0.1-0.4,0.1-0.6v-0.5c-0.3,0.2-0.5,0.4-0.8,0.5s-0.5,0.2-0.9,0.2c-0.6,0-1.1-0.2-1.5-0.7c-0.4-0.5-0.5-1.1-0.5-2    c0-0.5,0.1-0.9,0.2-1.2c0.1-0.3,0.3-0.6,0.5-0.9c0.2-0.2,0.4-0.4,0.7-0.5s0.6-0.2,0.9-0.2c0.3,0,0.5,0,0.8,0.1    c0.2,0.1,0.4,0.2,0.6,0.3l0.1-0.2h0.8V129z M256.5,128.1v-3c-0.2-0.1-0.4-0.2-0.6-0.2c-0.2,0-0.4-0.1-0.6-0.1    c-0.5,0-0.9,0.2-1.1,0.5c-0.3,0.3-0.4,0.8-0.4,1.5c0,0.6,0.1,1.1,0.3,1.4s0.5,0.5,1,0.5c0.3,0,0.5-0.1,0.8-0.2    S256.2,128.3,256.5,128.1z"/> 		<path style="fill:#1A171B;" d="M262.2,125.2L262.2,125.2c-0.2,0-0.3-0.1-0.4-0.1c-0.1,0-0.3,0-0.4,0c-0.3,0-0.5,0.1-0.8,0.2    c-0.3,0.1-0.5,0.3-0.7,0.5v3.9H259v-5.5h0.9v0.8c0.3-0.3,0.6-0.5,0.9-0.6c0.3-0.1,0.5-0.2,0.8-0.2c0.2,0,0.3,0,0.3,0    c0.1,0,0.2,0,0.3,0V125.2z"/> 		<path style="fill:#1A171B;" d="M267.4,127h-3.8c0,0.3,0,0.6,0.1,0.9c0.1,0.2,0.2,0.5,0.4,0.6c0.2,0.2,0.4,0.3,0.6,0.4    s0.5,0.1,0.7,0.1c0.4,0,0.7-0.1,1.1-0.2c0.4-0.1,0.6-0.3,0.8-0.4h0v1c-0.3,0.1-0.6,0.2-0.9,0.3c-0.3,0.1-0.6,0.1-1,0.1    c-0.9,0-1.5-0.2-2-0.7s-0.7-1.2-0.7-2.1c0-0.9,0.2-1.6,0.7-2.1s1.1-0.8,1.8-0.8c0.7,0,1.2,0.2,1.6,0.6s0.6,1,0.6,1.8V127z     M266.5,126.3c0-0.5-0.1-0.9-0.3-1.1c-0.2-0.3-0.6-0.4-1-0.4c-0.5,0-0.8,0.1-1.1,0.4s-0.4,0.6-0.5,1.1H266.5z"/> 		<path style="fill:#1A171B;" d="M269.6,123.2h-1v-1h1V123.2z M269.6,129.6h-0.9v-5.5h0.9V129.6z"/> 		<path style="fill:#1A171B;" d="M274.5,125.2L274.5,125.2c-0.2,0-0.3-0.1-0.4-0.1c-0.1,0-0.3,0-0.4,0c-0.3,0-0.5,0.1-0.8,0.2    c-0.3,0.1-0.5,0.3-0.7,0.5v3.9h-0.9v-5.5h0.9v0.8c0.3-0.3,0.6-0.5,0.9-0.6c0.3-0.1,0.5-0.2,0.8-0.2c0.2,0,0.3,0,0.3,0    c0.1,0,0.2,0,0.3,0V125.2z"/> 		<path style="fill:#1A171B;" d="M279.2,129.6h-0.9V129c-0.1,0.1-0.2,0.1-0.3,0.2s-0.3,0.2-0.4,0.2c-0.1,0.1-0.3,0.1-0.5,0.2    s-0.4,0.1-0.7,0.1c-0.5,0-0.9-0.2-1.2-0.5c-0.3-0.3-0.5-0.7-0.5-1.2c0-0.4,0.1-0.7,0.3-1s0.4-0.5,0.7-0.6c0.3-0.1,0.7-0.2,1.1-0.3    c0.4-0.1,0.9-0.1,1.4-0.1v-0.1c0-0.2,0-0.4-0.1-0.5c-0.1-0.1-0.2-0.2-0.3-0.3c-0.1-0.1-0.3-0.1-0.4-0.2c-0.2,0-0.4,0-0.5,0    c-0.2,0-0.5,0-0.8,0.1c-0.3,0.1-0.6,0.2-0.9,0.3h0v-0.9c0.2,0,0.4-0.1,0.7-0.2c0.3-0.1,0.6-0.1,0.9-0.1c0.4,0,0.7,0,0.9,0.1    s0.5,0.2,0.7,0.3c0.2,0.1,0.3,0.3,0.4,0.6s0.2,0.5,0.2,0.9V129.6z M278.3,128.3v-1.5c-0.3,0-0.6,0-0.9,0.1s-0.6,0.1-0.9,0.1    c-0.2,0.1-0.5,0.2-0.6,0.3c-0.2,0.2-0.2,0.4-0.2,0.7c0,0.3,0.1,0.5,0.3,0.7s0.5,0.2,0.8,0.2c0.3,0,0.6-0.1,0.8-0.2    C277.9,128.6,278.1,128.4,278.3,128.3z"/> 	</g> 	<g> 		<rect x="175.3" y="167.4" style="fill-rule:evenodd;clip-rule:evenodd;fill:none;" width="28.7" height="11"/> 		<path style="fill:#1A171B;" d="M181.4,169.5c0.3,0.3,0.5,0.7,0.6,1.2s0.2,1,0.2,1.6s-0.1,1.1-0.2,1.6s-0.4,0.9-0.6,1.2    c-0.3,0.3-0.6,0.6-1,0.7s-0.8,0.2-1.3,0.2c-0.5,0-0.9-0.1-1.3-0.3c-0.4-0.2-0.7-0.4-1-0.7c-0.3-0.3-0.5-0.7-0.6-1.2    c-0.1-0.5-0.2-1-0.2-1.6c0-0.6,0.1-1.1,0.2-1.6s0.4-0.9,0.6-1.2c0.3-0.3,0.6-0.6,1-0.7s0.8-0.3,1.3-0.3c0.5,0,0.9,0.1,1.3,0.3    C180.7,168.9,181.1,169.2,181.4,169.5z M181.3,172.3c0-0.9-0.2-1.7-0.6-2.2c-0.4-0.5-0.9-0.8-1.6-0.8c-0.7,0-1.2,0.3-1.6,0.8    s-0.6,1.2-0.6,2.2c0,1,0.2,1.7,0.6,2.2c0.4,0.5,1,0.8,1.6,0.8s1.2-0.3,1.6-0.8C181.1,174,181.3,173.2,181.3,172.3z"/> 		<path style="fill:#1A171B;" d="M187.9,175.9H187v-0.6c-0.3,0.2-0.6,0.4-0.8,0.6s-0.6,0.2-0.9,0.2c-0.5,0-1-0.2-1.3-0.5    c-0.3-0.4-0.5-0.9-0.5-1.5v-3.5h0.9v3.1c0,0.3,0,0.5,0,0.7c0,0.2,0.1,0.4,0.2,0.5c0.1,0.1,0.2,0.2,0.3,0.3    c0.1,0.1,0.3,0.1,0.6,0.1c0.2,0,0.5-0.1,0.7-0.2c0.3-0.1,0.5-0.3,0.7-0.5v-4.1h0.9V175.9z"/> 		<path style="fill:#1A171B;" d="M192.3,175.9c-0.2,0-0.3,0.1-0.5,0.1s-0.4,0-0.5,0c-0.5,0-0.9-0.1-1.2-0.4    c-0.3-0.3-0.4-0.8-0.4-1.4v-2.9H189v-0.8h0.6v-1.6h0.9v1.6h1.8v0.8h-1.8v2.5c0,0.3,0,0.5,0,0.7c0,0.2,0.1,0.3,0.1,0.5    c0.1,0.1,0.2,0.2,0.3,0.3c0.1,0.1,0.3,0.1,0.5,0.1c0.1,0,0.3,0,0.4-0.1c0.2,0,0.3-0.1,0.3-0.1h0V175.9z"/> 		<path style="fill:#1A171B;" d="M197.6,173.3h-3.8c0,0.3,0,0.6,0.1,0.9c0.1,0.2,0.2,0.5,0.4,0.6c0.2,0.2,0.4,0.3,0.6,0.4    s0.5,0.1,0.7,0.1c0.4,0,0.7-0.1,1.1-0.2c0.4-0.1,0.6-0.3,0.8-0.4h0v1c-0.3,0.1-0.6,0.2-0.9,0.3c-0.3,0.1-0.6,0.1-1,0.1    c-0.9,0-1.5-0.2-2-0.7s-0.7-1.2-0.7-2.1c0-0.9,0.2-1.6,0.7-2.1s1.1-0.8,1.8-0.8c0.7,0,1.2,0.2,1.6,0.6s0.6,1,0.6,1.8V173.3z     M196.8,172.6c0-0.5-0.1-0.9-0.3-1.1c-0.2-0.3-0.6-0.4-1-0.4c-0.5,0-0.8,0.1-1.1,0.4s-0.4,0.6-0.5,1.1H196.8z"/> 		<path style="fill:#1A171B;" d="M202.6,174.4c0,0.5-0.2,0.9-0.6,1.2c-0.4,0.3-0.9,0.5-1.6,0.5c-0.4,0-0.7,0-1-0.1s-0.6-0.2-0.8-0.3    v-1h0c0.3,0.2,0.6,0.4,0.9,0.5c0.3,0.1,0.7,0.2,1,0.2c0.4,0,0.7-0.1,0.9-0.2c0.2-0.1,0.3-0.3,0.3-0.6c0-0.2-0.1-0.4-0.2-0.5    s-0.3-0.2-0.7-0.3c-0.1,0-0.3-0.1-0.5-0.1c-0.2,0-0.4-0.1-0.5-0.1c-0.5-0.1-0.8-0.3-1-0.6s-0.3-0.5-0.3-0.9c0-0.2,0-0.4,0.1-0.6    s0.2-0.4,0.4-0.5c0.2-0.2,0.4-0.3,0.7-0.4c0.3-0.1,0.6-0.1,0.9-0.1c0.3,0,0.6,0,0.9,0.1s0.6,0.2,0.8,0.3v1h0    c-0.2-0.2-0.5-0.3-0.8-0.4c-0.3-0.1-0.6-0.2-0.9-0.2c-0.3,0-0.6,0.1-0.8,0.2s-0.3,0.3-0.3,0.6c0,0.2,0.1,0.4,0.2,0.5    c0.1,0.1,0.3,0.2,0.6,0.3c0.2,0,0.3,0.1,0.5,0.1s0.4,0.1,0.5,0.1c0.4,0.1,0.7,0.3,0.9,0.5C202.5,173.6,202.6,174,202.6,174.4z"/> 	</g> 	<g> 		<rect x="209" y="220.5" style="fill-rule:evenodd;clip-rule:evenodd;fill:none;" width="22.1" height="11"/> 		<path style="fill:#1A171B;" d="M215.2,229H214l-3.3-6.5v6.5h-0.9v-7.3h1.4l3,5.9v-5.9h0.9V229z"/> 		<path style="fill:#1A171B;" d="M221.3,226.3c0,0.9-0.2,1.6-0.6,2.1s-1,0.8-1.7,0.8c-0.7,0-1.3-0.3-1.7-0.8s-0.6-1.2-0.6-2.1    s0.2-1.6,0.6-2.1s1-0.8,1.7-0.8c0.7,0,1.3,0.3,1.7,0.8S221.3,225.4,221.3,226.3z M220.4,226.3c0-0.7-0.1-1.2-0.4-1.6    s-0.6-0.5-1.1-0.5c-0.5,0-0.8,0.2-1.1,0.5s-0.4,0.9-0.4,1.6c0,0.7,0.1,1.2,0.4,1.6c0.3,0.4,0.6,0.5,1.1,0.5c0.5,0,0.8-0.2,1.1-0.5    C220.3,227.5,220.4,227,220.4,226.3z"/> 		<path style="fill:#1A171B;" d="M223.6,222.7h-1v-1h1V222.7z M223.5,229h-0.9v-5.5h0.9V229z"/> 		<path style="fill:#1A171B;" d="M229.2,229h-0.9v-0.6c-0.1,0.1-0.2,0.1-0.3,0.2c-0.1,0.1-0.3,0.2-0.4,0.2c-0.1,0.1-0.3,0.1-0.5,0.2    c-0.2,0.1-0.4,0.1-0.7,0.1c-0.5,0-0.9-0.2-1.2-0.5c-0.3-0.3-0.5-0.7-0.5-1.2c0-0.4,0.1-0.7,0.3-1c0.2-0.3,0.4-0.5,0.7-0.6    c0.3-0.1,0.7-0.2,1.1-0.3c0.4-0.1,0.9-0.1,1.4-0.1v-0.1c0-0.2,0-0.4-0.1-0.5c-0.1-0.1-0.2-0.2-0.3-0.3c-0.1-0.1-0.3-0.1-0.4-0.2    c-0.2,0-0.4,0-0.5,0c-0.2,0-0.5,0-0.8,0.1c-0.3,0.1-0.6,0.2-0.9,0.3h0v-0.9c0.2,0,0.4-0.1,0.7-0.2c0.3-0.1,0.6-0.1,0.9-0.1    c0.4,0,0.7,0,0.9,0.1s0.5,0.2,0.7,0.3c0.2,0.1,0.3,0.3,0.4,0.6s0.2,0.5,0.2,0.9V229z M228.4,227.7v-1.5c-0.3,0-0.6,0-0.9,0.1    s-0.6,0.1-0.9,0.1c-0.2,0.1-0.5,0.2-0.6,0.3c-0.2,0.2-0.2,0.4-0.2,0.7c0,0.3,0.1,0.5,0.3,0.7c0.2,0.2,0.5,0.2,0.8,0.2    c0.3,0,0.6-0.1,0.8-0.2C227.9,228,228.2,227.9,228.4,227.7z"/> 	</g> 	<g> 		<rect x="224.1" y="261.8" style="fill-rule:evenodd;clip-rule:evenodd;fill:none;" width="43.4" height="11"/> 		<path style="fill:#1A171B;" d="M229.4,270.3H225V263h0.9v6.4h3.4V270.3z"/> 		<path style="fill:#1A171B;" d="M234.6,267.5c0,0.9-0.2,1.6-0.6,2.1s-1,0.8-1.7,0.8c-0.7,0-1.3-0.3-1.7-0.8s-0.6-1.2-0.6-2.1    s0.2-1.6,0.6-2.1c0.4-0.5,1-0.8,1.7-0.8c0.7,0,1.3,0.3,1.7,0.8C234.4,265.9,234.6,266.6,234.6,267.5z M233.7,267.5    c0-0.7-0.1-1.2-0.4-1.6c-0.3-0.3-0.6-0.5-1.1-0.5c-0.5,0-0.8,0.2-1.1,0.5c-0.3,0.3-0.4,0.9-0.4,1.6c0,0.7,0.1,1.2,0.4,1.6    c0.3,0.4,0.6,0.5,1.1,0.5c0.5,0,0.8-0.2,1.1-0.5C233.6,268.7,233.7,268.2,233.7,267.5z"/> 		<path style="fill:#1A171B;" d="M240.2,270.3h-0.9v-0.6c-0.3,0.2-0.6,0.4-0.8,0.6s-0.6,0.2-0.9,0.2c-0.5,0-1-0.2-1.3-0.5    c-0.3-0.3-0.5-0.9-0.5-1.5v-3.5h0.9v3.1c0,0.3,0,0.5,0,0.7c0,0.2,0.1,0.4,0.2,0.5c0.1,0.1,0.2,0.2,0.3,0.3    c0.1,0.1,0.3,0.1,0.6,0.1c0.2,0,0.5-0.1,0.7-0.2c0.3-0.1,0.5-0.3,0.7-0.5v-4.1h0.9V270.3z"/> 		<path style="fill:#1A171B;" d="M245.6,268.7c0,0.5-0.2,0.9-0.6,1.2c-0.4,0.3-0.9,0.5-1.6,0.5c-0.4,0-0.7,0-1-0.1    c-0.3-0.1-0.6-0.2-0.8-0.3v-1h0c0.3,0.2,0.6,0.4,0.9,0.5c0.3,0.1,0.7,0.2,1,0.2c0.4,0,0.7-0.1,0.9-0.2c0.2-0.1,0.3-0.3,0.3-0.6    c0-0.2-0.1-0.4-0.2-0.5s-0.3-0.2-0.7-0.3c-0.1,0-0.3-0.1-0.5-0.1c-0.2,0-0.4-0.1-0.5-0.1c-0.5-0.1-0.8-0.3-1-0.6    c-0.2-0.2-0.3-0.5-0.3-0.9c0-0.2,0-0.4,0.1-0.6s0.2-0.4,0.4-0.5c0.2-0.2,0.4-0.3,0.7-0.4c0.3-0.1,0.6-0.1,0.9-0.1    c0.3,0,0.6,0,0.9,0.1c0.3,0.1,0.6,0.2,0.8,0.3v1h0c-0.2-0.2-0.5-0.3-0.8-0.4c-0.3-0.1-0.6-0.2-0.9-0.2c-0.3,0-0.6,0.1-0.8,0.2    c-0.2,0.1-0.3,0.3-0.3,0.6c0,0.2,0.1,0.4,0.2,0.5c0.1,0.1,0.3,0.2,0.6,0.3c0.2,0,0.3,0.1,0.5,0.1s0.4,0.1,0.5,0.1    c0.4,0.1,0.7,0.3,0.9,0.5C245.5,268,245.6,268.3,245.6,268.7z"/> 		<path style="fill:#1A171B;" d="M250.8,270.3H250v-0.6c-0.1,0.1-0.2,0.1-0.3,0.2c-0.1,0.1-0.3,0.2-0.4,0.2    c-0.1,0.1-0.3,0.1-0.5,0.2c-0.2,0.1-0.4,0.1-0.7,0.1c-0.5,0-0.9-0.2-1.2-0.5c-0.3-0.3-0.5-0.7-0.5-1.2c0-0.4,0.1-0.7,0.3-1    c0.2-0.3,0.4-0.5,0.7-0.6c0.3-0.1,0.7-0.2,1.1-0.3c0.4-0.1,0.9-0.1,1.4-0.1v-0.1c0-0.2,0-0.4-0.1-0.5c-0.1-0.1-0.2-0.2-0.3-0.3    c-0.1-0.1-0.3-0.1-0.4-0.2c-0.2,0-0.4,0-0.5,0c-0.2,0-0.5,0-0.8,0.1c-0.3,0.1-0.6,0.2-0.9,0.3h0v-0.9c0.2,0,0.4-0.1,0.7-0.2    c0.3-0.1,0.6-0.1,0.9-0.1c0.4,0,0.7,0,0.9,0.1c0.3,0.1,0.5,0.2,0.7,0.3c0.2,0.1,0.3,0.3,0.4,0.6s0.2,0.5,0.2,0.9V270.3z     M250,268.9v-1.5c-0.3,0-0.6,0-0.9,0.1s-0.6,0.1-0.9,0.1c-0.2,0.1-0.5,0.2-0.6,0.3c-0.2,0.2-0.2,0.4-0.2,0.7    c0,0.3,0.1,0.5,0.3,0.7c0.2,0.2,0.5,0.2,0.8,0.2c0.3,0,0.6-0.1,0.8-0.2C249.5,269.2,249.8,269.1,250,268.9z"/> 		<path style="fill:#1A171B;" d="M260,270.3h-0.9v-3.1c0-0.2,0-0.5,0-0.7c0-0.2-0.1-0.4-0.1-0.5c-0.1-0.1-0.2-0.2-0.3-0.3    c-0.1-0.1-0.3-0.1-0.6-0.1c-0.2,0-0.5,0.1-0.7,0.2c-0.2,0.1-0.5,0.3-0.7,0.5c0,0.1,0,0.2,0,0.3c0,0.1,0,0.2,0,0.3v3.5h-0.9v-3.1    c0-0.2,0-0.5,0-0.7c0-0.2-0.1-0.4-0.1-0.5c-0.1-0.1-0.2-0.2-0.3-0.3c-0.1-0.1-0.3-0.1-0.6-0.1c-0.2,0-0.5,0.1-0.7,0.2    c-0.2,0.1-0.5,0.3-0.7,0.5v4.1h-0.9v-5.5h0.9v0.6c0.3-0.2,0.5-0.4,0.8-0.6c0.3-0.1,0.6-0.2,0.9-0.2c0.4,0,0.6,0.1,0.9,0.2    c0.2,0.2,0.4,0.4,0.5,0.6c0.4-0.3,0.7-0.5,1-0.7c0.3-0.1,0.6-0.2,0.9-0.2c0.6,0,1,0.2,1.3,0.5c0.3,0.4,0.4,0.9,0.4,1.5V270.3z"/> 		<path style="fill:#1A171B;" d="M266,267.6h-3.8c0,0.3,0,0.6,0.1,0.9c0.1,0.2,0.2,0.5,0.4,0.6c0.2,0.2,0.4,0.3,0.6,0.4    s0.5,0.1,0.7,0.1c0.4,0,0.7-0.1,1.1-0.2c0.4-0.1,0.6-0.3,0.8-0.4h0v1c-0.3,0.1-0.6,0.2-0.9,0.3c-0.3,0.1-0.6,0.1-1,0.1    c-0.9,0-1.5-0.2-2-0.7c-0.5-0.5-0.7-1.2-0.7-2.1c0-0.9,0.2-1.6,0.7-2.1s1.1-0.8,1.8-0.8c0.7,0,1.2,0.2,1.6,0.6s0.6,1,0.6,1.8    V267.6z M265.2,266.9c0-0.5-0.1-0.9-0.3-1.1c-0.2-0.3-0.6-0.4-1-0.4c-0.5,0-0.8,0.1-1.1,0.4s-0.4,0.6-0.5,1.1H265.2z"/> 	</g> 	<g> 		<rect x="87.9" y="313.5" style="fill-rule:evenodd;clip-rule:evenodd;fill:none;" width="63.7" height="11"/> 		<path style="fill:#1A171B;" d="M93.3,317c0,0.3-0.1,0.6-0.2,0.9c-0.1,0.3-0.3,0.5-0.4,0.7c-0.2,0.3-0.5,0.4-0.8,0.6    c-0.3,0.1-0.7,0.2-1.2,0.2h-0.9v2.7h-0.9v-7.3h1.9c0.4,0,0.8,0,1,0.1c0.3,0.1,0.5,0.2,0.8,0.3c0.3,0.2,0.5,0.4,0.6,0.7    C93.3,316.2,93.3,316.5,93.3,317z M92.4,317c0-0.3,0-0.5-0.1-0.7s-0.2-0.3-0.4-0.5c-0.1-0.1-0.3-0.2-0.5-0.2    c-0.2,0-0.4-0.1-0.7-0.1h-0.9v2.9h0.8c0.4,0,0.7,0,0.9-0.1c0.2-0.1,0.4-0.2,0.6-0.3c0.1-0.2,0.2-0.3,0.3-0.5    C92.3,317.4,92.4,317.2,92.4,317z"/> 		<path style="fill:#1A171B;" d="M98.7,319.3c0,0.9-0.2,1.6-0.6,2.1s-1,0.8-1.7,0.8c-0.7,0-1.3-0.3-1.7-0.8s-0.6-1.2-0.6-2.1    s0.2-1.6,0.6-2.1c0.4-0.5,1-0.8,1.7-0.8c0.7,0,1.3,0.3,1.7,0.8C98.4,317.7,98.7,318.4,98.7,319.3z M97.8,319.3    c0-0.7-0.1-1.2-0.4-1.6c-0.3-0.3-0.6-0.5-1.1-0.5c-0.5,0-0.8,0.2-1.1,0.5c-0.3,0.3-0.4,0.9-0.4,1.6c0,0.7,0.1,1.2,0.4,1.6    c0.3,0.4,0.6,0.5,1.1,0.5c0.5,0,0.8-0.2,1.1-0.5C97.6,320.5,97.8,320,97.8,319.3z"/> 		<path style="fill:#1A171B;" d="M103.2,317.6L103.2,317.6c-0.2,0-0.3-0.1-0.4-0.1c-0.1,0-0.3,0-0.4,0c-0.3,0-0.5,0.1-0.8,0.2    c-0.3,0.1-0.5,0.3-0.7,0.5v3.9H100v-5.5h0.9v0.8c0.3-0.3,0.6-0.5,0.9-0.6c0.3-0.1,0.5-0.2,0.8-0.2c0.2,0,0.3,0,0.3,0    c0.1,0,0.2,0,0.3,0V317.6z"/> 		<path style="fill:#1A171B;" d="M106.7,322c-0.2,0-0.3,0.1-0.5,0.1s-0.4,0-0.5,0c-0.5,0-0.9-0.1-1.2-0.4c-0.3-0.3-0.4-0.8-0.4-1.4    v-2.9h-0.6v-0.8h0.6V315h0.9v1.6h1.8v0.8h-1.8v2.5c0,0.3,0,0.5,0,0.7c0,0.2,0.1,0.3,0.1,0.5c0.1,0.1,0.2,0.2,0.3,0.3    c0.1,0.1,0.3,0.1,0.5,0.1c0.1,0,0.3,0,0.4-0.1c0.2,0,0.3-0.1,0.3-0.1h0V322z"/> 		<path style="fill:#1A171B;" d="M112.2,319.3c0,0.9-0.2,1.6-0.6,2.1s-1,0.8-1.7,0.8c-0.7,0-1.3-0.3-1.7-0.8s-0.6-1.2-0.6-2.1    s0.2-1.6,0.6-2.1c0.4-0.5,1-0.8,1.7-0.8c0.7,0,1.3,0.3,1.7,0.8C111.9,317.7,112.2,318.4,112.2,319.3z M111.3,319.3    c0-0.7-0.1-1.2-0.4-1.6c-0.3-0.3-0.6-0.5-1.1-0.5c-0.5,0-0.8,0.2-1.1,0.5c-0.3,0.3-0.4,0.9-0.4,1.6c0,0.7,0.1,1.2,0.4,1.6    c0.3,0.4,0.6,0.5,1.1,0.5c0.5,0,0.8-0.2,1.1-0.5C111.1,320.5,111.3,320,111.3,319.3z"/> 		<path style="fill:#1A171B;" d="M122.7,318.4c0,0.7-0.1,1.3-0.4,1.8s-0.6,1-1.1,1.3c-0.3,0.2-0.7,0.4-1,0.4    c-0.4,0.1-0.9,0.1-1.5,0.1h-1.7v-7.3h1.7c0.7,0,1.2,0.1,1.6,0.2c0.4,0.1,0.7,0.2,1,0.4c0.5,0.3,0.8,0.7,1.1,1.2    C122.6,317.1,122.7,317.7,122.7,318.4z M121.7,318.4c0-0.6-0.1-1-0.3-1.4s-0.5-0.7-0.8-0.9c-0.3-0.2-0.6-0.3-0.9-0.3    c-0.3-0.1-0.7-0.1-1.1-0.1h-0.9v5.6h0.9c0.4,0,0.8,0,1.2-0.1c0.3-0.1,0.6-0.2,0.9-0.4c0.3-0.2,0.6-0.5,0.8-0.9    S121.7,319,121.7,318.4z"/> 		<path style="fill:#1A171B;" d="M128.5,319.3c0,0.9-0.2,1.6-0.6,2.1s-1,0.8-1.7,0.8c-0.7,0-1.3-0.3-1.7-0.8s-0.6-1.2-0.6-2.1    s0.2-1.6,0.6-2.1c0.4-0.5,1-0.8,1.7-0.8c0.7,0,1.3,0.3,1.7,0.8C128.3,317.7,128.5,318.4,128.5,319.3z M127.6,319.3    c0-0.7-0.1-1.2-0.4-1.6c-0.3-0.3-0.6-0.5-1.1-0.5c-0.5,0-0.8,0.2-1.1,0.5c-0.3,0.3-0.4,0.9-0.4,1.6c0,0.7,0.1,1.2,0.4,1.6    c0.3,0.4,0.6,0.5,1.1,0.5c0.5,0,0.8-0.2,1.1-0.5C127.5,320.5,127.6,320,127.6,319.3z"/> 		<path style="fill:#1A171B;" d="M138.2,320c0,0.3-0.1,0.6-0.2,0.8c-0.1,0.3-0.3,0.5-0.5,0.7c-0.2,0.2-0.5,0.4-0.9,0.5    c-0.3,0.1-0.7,0.2-1.2,0.2c-0.5,0-0.9,0-1.3-0.1c-0.4-0.1-0.8-0.2-1.2-0.4v-1.2h0.1c0.3,0.3,0.7,0.5,1.2,0.7    c0.5,0.2,0.9,0.2,1.3,0.2c0.6,0,1-0.1,1.3-0.3s0.5-0.5,0.5-0.9c0-0.3-0.1-0.6-0.2-0.7s-0.4-0.3-0.7-0.4c-0.2-0.1-0.5-0.1-0.8-0.2    c-0.3,0-0.6-0.1-0.9-0.2c-0.6-0.1-1.1-0.4-1.4-0.7c-0.3-0.3-0.4-0.8-0.4-1.3c0-0.6,0.2-1.1,0.7-1.5c0.5-0.4,1.1-0.6,1.9-0.6    c0.5,0,0.9,0,1.3,0.1c0.4,0.1,0.8,0.2,1.1,0.4v1.1h-0.1c-0.3-0.2-0.6-0.4-1-0.6c-0.4-0.2-0.9-0.2-1.3-0.2c-0.5,0-0.9,0.1-1.2,0.3    s-0.4,0.5-0.4,0.8c0,0.3,0.1,0.5,0.2,0.7s0.4,0.3,0.8,0.4c0.2,0,0.5,0.1,0.8,0.2c0.4,0.1,0.7,0.1,0.9,0.2c0.5,0.1,0.9,0.4,1.2,0.6    C138.1,319,138.2,319.4,138.2,320z"/> 		<path style="fill:#1A171B;" d="M144,319.3c0,0.9-0.2,1.6-0.6,2.1s-1,0.8-1.7,0.8c-0.7,0-1.3-0.3-1.7-0.8s-0.6-1.2-0.6-2.1    s0.2-1.6,0.6-2.1c0.4-0.5,1-0.8,1.7-0.8c0.7,0,1.3,0.3,1.7,0.8C143.8,317.7,144,318.4,144,319.3z M143.1,319.3    c0-0.7-0.1-1.2-0.4-1.6c-0.3-0.3-0.6-0.5-1.1-0.5c-0.5,0-0.8,0.2-1.1,0.5c-0.3,0.3-0.4,0.9-0.4,1.6c0,0.7,0.1,1.2,0.4,1.6    c0.3,0.4,0.6,0.5,1.1,0.5c0.5,0,0.8-0.2,1.1-0.5C143,320.5,143.1,320,143.1,319.3z"/> 		<path style="fill:#1A171B;" d="M149.7,322h-0.9v-3.1c0-0.3,0-0.5,0-0.7c0-0.2-0.1-0.4-0.2-0.5c-0.1-0.1-0.2-0.2-0.3-0.3    c-0.1-0.1-0.3-0.1-0.6-0.1c-0.2,0-0.5,0.1-0.7,0.2c-0.3,0.1-0.5,0.3-0.7,0.5v4.1h-0.9v-5.5h0.9v0.6c0.3-0.2,0.6-0.4,0.8-0.6    s0.6-0.2,0.9-0.2c0.6,0,1,0.2,1.3,0.5c0.3,0.4,0.4,0.9,0.4,1.5V322z"/> 	</g> </g> <g id="text-provincies"> 	<g> 		<rect x="331.5" y="407" style="fill-rule:evenodd;clip-rule:evenodd;fill:none;" width="77.4" height="11"/> 		<path style="fill:#1A171B;" d="M345,410.5c0,0.3-0.1,0.6-0.2,1c-0.1,0.3-0.3,0.6-0.5,0.8c-0.3,0.3-0.6,0.5-1,0.6    c-0.4,0.1-0.8,0.2-1.3,0.2h-1.2v2.4H339v-7.3h3.1c0.5,0,0.9,0,1.2,0.1c0.3,0.1,0.6,0.2,0.8,0.4c0.3,0.2,0.5,0.4,0.7,0.7    C344.9,409.7,345,410.1,345,410.5z M343,410.5c0-0.2-0.1-0.4-0.2-0.5c-0.1-0.1-0.2-0.3-0.4-0.3c-0.2-0.1-0.4-0.1-0.6-0.1    c-0.2,0-0.4,0-0.7,0h-0.3v2.2h0.5c0.3,0,0.6,0,0.8-0.1c0.2,0,0.4-0.1,0.5-0.2c0.1-0.1,0.2-0.2,0.3-0.4    C343,410.9,343,410.7,343,410.5z"/> 		<path style="fill:#1A171B;" d="M351.8,412.7c0,0.9-0.3,1.6-0.8,2.1c-0.5,0.5-1.3,0.8-2.2,0.8s-1.7-0.3-2.2-0.8    c-0.5-0.5-0.8-1.2-0.8-2.1c0-0.9,0.3-1.6,0.8-2.1c0.5-0.5,1.3-0.8,2.2-0.8c1,0,1.7,0.3,2.2,0.8    C351.5,411.1,351.8,411.8,351.8,412.7z M349.6,414.1c0.1-0.1,0.2-0.3,0.3-0.5c0.1-0.2,0.1-0.5,0.1-0.8c0-0.3,0-0.6-0.1-0.8    s-0.1-0.4-0.2-0.5c-0.1-0.1-0.2-0.2-0.4-0.3s-0.3-0.1-0.5-0.1s-0.3,0-0.5,0.1c-0.1,0-0.3,0.1-0.4,0.3c-0.1,0.1-0.2,0.3-0.3,0.5    c-0.1,0.2-0.1,0.5-0.1,0.8c0,0.3,0,0.6,0.1,0.8c0.1,0.2,0.1,0.4,0.2,0.5c0.1,0.1,0.2,0.2,0.4,0.3c0.1,0.1,0.3,0.1,0.5,0.1    c0.2,0,0.3,0,0.5-0.1C349.4,414.3,349.5,414.2,349.6,414.1z"/> 		<path style="fill:#1A171B;" d="M358.6,415.5h-1.8v-2.7c0-0.2,0-0.4,0-0.7c0-0.2-0.1-0.4-0.1-0.5c-0.1-0.1-0.2-0.2-0.3-0.3    c-0.1-0.1-0.3-0.1-0.5-0.1c-0.2,0-0.3,0-0.5,0.1c-0.2,0.1-0.3,0.1-0.5,0.2v3.9h-1.8V410h1.8v0.6c0.3-0.2,0.6-0.4,0.9-0.6    c0.3-0.1,0.6-0.2,1-0.2c0.6,0,1.1,0.2,1.4,0.5s0.5,0.9,0.5,1.5V415.5z"/> 		<path style="fill:#1A171B;" d="M363.7,415.4c-0.2,0-0.4,0.1-0.6,0.1c-0.2,0-0.5,0-0.8,0c-0.7,0-1.2-0.1-1.5-0.4    c-0.3-0.3-0.5-0.8-0.5-1.4v-2.6h-0.7V410h0.7v-1.6h1.8v1.6h1.6v1.2h-1.6v1.9c0,0.2,0,0.4,0,0.5s0,0.3,0.1,0.4    c0,0.1,0.1,0.2,0.2,0.3c0.1,0.1,0.3,0.1,0.5,0.1c0.1,0,0.2,0,0.4-0.1s0.3-0.1,0.3-0.1h0.1V415.4z"/> 		<path style="fill:#1A171B;" d="M370.1,413h-4c0,0.4,0.2,0.8,0.5,1c0.3,0.2,0.7,0.3,1.3,0.3c0.4,0,0.7-0.1,1.1-0.2s0.6-0.3,0.8-0.4    h0.2v1.4c-0.4,0.2-0.8,0.3-1.1,0.3s-0.7,0.1-1.2,0.1c-1.1,0-1.9-0.2-2.5-0.7s-0.9-1.2-0.9-2.1c0-0.9,0.3-1.6,0.8-2.2    c0.6-0.5,1.3-0.8,2.3-0.8c0.9,0,1.6,0.2,2,0.7c0.4,0.5,0.7,1.1,0.7,1.9V413z M368.4,412c0-0.4-0.1-0.6-0.3-0.8s-0.4-0.3-0.8-0.3    c-0.3,0-0.6,0.1-0.8,0.3s-0.3,0.5-0.4,0.8H368.4z"/> 		<path style="fill:#1A171B;" d="M376.9,410l-2.1,5.5h-2l-2.1-5.5h1.9l1.3,3.8l1.3-3.8H376.9z"/> 		<path style="fill:#1A171B;" d="M383.3,413h-4c0,0.4,0.2,0.8,0.5,1c0.3,0.2,0.7,0.3,1.3,0.3c0.4,0,0.7-0.1,1.1-0.2s0.6-0.3,0.8-0.4    h0.2v1.4c-0.4,0.2-0.8,0.3-1.1,0.3s-0.7,0.1-1.2,0.1c-1.1,0-1.9-0.2-2.5-0.7s-0.9-1.2-0.9-2.1c0-0.9,0.3-1.6,0.8-2.2    c0.6-0.5,1.3-0.8,2.3-0.8c0.9,0,1.6,0.2,2,0.7c0.4,0.5,0.7,1.1,0.7,1.9V413z M381.5,412c0-0.4-0.1-0.6-0.3-0.8s-0.4-0.3-0.8-0.3    c-0.3,0-0.6,0.1-0.8,0.3s-0.3,0.5-0.4,0.8H381.5z"/> 		<path style="fill:#1A171B;" d="M389.9,415.5h-1.8v-0.6c-0.3,0.2-0.6,0.4-0.8,0.5s-0.6,0.2-0.9,0.2c-0.7,0-1.2-0.3-1.6-0.8    c-0.4-0.5-0.6-1.2-0.6-2.1c0-0.5,0.1-0.9,0.2-1.2c0.1-0.4,0.3-0.7,0.6-0.9c0.2-0.2,0.5-0.4,0.8-0.6c0.3-0.1,0.6-0.2,0.9-0.2    c0.3,0,0.6,0,0.8,0.1c0.2,0.1,0.4,0.2,0.6,0.3v-2.3h1.8V415.5z M388.1,414v-2.7c-0.1-0.1-0.3-0.1-0.4-0.1s-0.3,0-0.4,0    c-0.5,0-0.8,0.1-1,0.4s-0.3,0.7-0.3,1.2c0,0.5,0.1,0.9,0.3,1.2c0.2,0.2,0.5,0.4,0.9,0.4c0.2,0,0.3,0,0.5-0.1S388,414.1,388.1,414z    "/> 		<path style="fill:#1A171B;" d="M395.5,411.7h-0.2c-0.1,0-0.2,0-0.4-0.1s-0.3,0-0.4,0c-0.3,0-0.5,0-0.7,0c-0.2,0-0.4,0.1-0.6,0.2    v3.7h-1.8V410h1.8v0.8c0.4-0.3,0.7-0.6,1-0.7c0.3-0.1,0.5-0.2,0.8-0.2c0.1,0,0.1,0,0.2,0c0.1,0,0.1,0,0.2,0V411.7z"/> 		<path style="fill:#1A171B;" d="M399.8,414.9c-0.1,0.1-0.2,0.2-0.4,0.3s-0.3,0.2-0.4,0.2c-0.2,0.1-0.4,0.1-0.5,0.2    c-0.2,0-0.4,0.1-0.6,0.1c-0.5,0-1-0.2-1.3-0.5s-0.5-0.7-0.5-1.2c0-0.4,0.1-0.7,0.3-1s0.4-0.5,0.8-0.6c0.3-0.1,0.7-0.3,1.2-0.3    s1-0.1,1.5-0.1v0c0-0.3-0.1-0.5-0.4-0.6c-0.2-0.1-0.6-0.2-1.1-0.2c-0.3,0-0.6,0.1-0.9,0.2c-0.3,0.1-0.6,0.2-0.7,0.2h-0.2v-1.3    c0.2,0,0.5-0.1,0.9-0.2c0.4-0.1,0.8-0.1,1.3-0.1c1,0,1.7,0.2,2.2,0.5c0.4,0.3,0.7,0.8,0.7,1.4v3.7h-1.7V414.9z M399.8,414v-1.1    c-0.2,0-0.5,0-0.8,0.1c-0.3,0-0.5,0.1-0.6,0.1c-0.2,0.1-0.3,0.1-0.4,0.2c-0.1,0.1-0.1,0.2-0.1,0.4c0,0.1,0,0.2,0,0.3    c0,0.1,0.1,0.1,0.1,0.2c0.1,0.1,0.2,0.1,0.3,0.1c0.1,0,0.3,0,0.5,0c0.2,0,0.4,0,0.5-0.1C399.5,414.2,399.7,414.1,399.8,414z"/> 	</g> </g> <g id="llegenda"> 	<line style="fill:none;stroke:#9A9A9A;stroke-width:2;stroke-miterlimit:10;" x1="-209" y1="21.5" x2="-209" y2="51"/> 	<line style="fill:none;stroke:#9A9A9A;stroke-miterlimit:10;" x1="-175.6" y1="21.5" x2="-175.6" y2="51"/> 	<g> 		<path d="M-201.3,31.9h0.9V39h-0.9V31.9z"/> 		<path d="M-198,32.8c0,0.3-0.2,0.5-0.6,0.5c-0.3,0-0.5-0.2-0.5-0.5s0.2-0.5,0.5-0.5C-198.2,32.3-198,32.5-198,32.8z M-198.9,39    v-4.8h0.9V39H-198.9z"/> 		<path d="M-196.6,35.5c0-0.5,0-0.9,0-1.3h0.8l0,0.8h0c0.2-0.4,0.8-0.9,1.6-0.9c0.7,0,1.7,0.4,1.7,2.1V39h-0.9v-2.8    c0-0.8-0.3-1.4-1.1-1.4c-0.6,0-1,0.4-1.2,0.9c0,0.1-0.1,0.3-0.1,0.4V39h-0.9V35.5z"/> 	</g> 	<line style="fill:none;stroke:#696969;stroke-width:2;stroke-miterlimit:10;" x1="-209" y1="61.1" x2="-209" y2="90.6"/> 	<g> 		<path d="M-201.3,71.5h0.9v7.1h-0.9V71.5z"/> 		<path d="M-198,72.4c0,0.3-0.2,0.5-0.6,0.5c-0.3,0-0.5-0.2-0.5-0.5s0.2-0.5,0.5-0.5C-198.2,71.9-198,72.1-198,72.4z M-198.9,78.6    v-4.8h0.9v4.8H-198.9z"/> 		<path d="M-196.6,75.1c0-0.5,0-0.9,0-1.3h0.8l0,0.8h0c0.2-0.4,0.8-0.9,1.6-0.9c0.7,0,1.7,0.4,1.7,2.1v2.9h-0.9v-2.8    c0-0.8-0.3-1.4-1.1-1.4c-0.6,0-1,0.4-1.2,0.9c0,0.1-0.1,0.3-0.1,0.4v2.9h-0.9V75.1z"/> 	</g> 	<rect x="-214.4" y="-3.1" style="fill:#BFBFBF;" width="16.3" height="15.3"/> 	<rect x="-214.4" y="-30.7" style="fill:#DCE9FB;" width="16.3" height="15.3"/> 	<rect x="-245.8" y="-30.7" style="fill:#D0E0A4;" width="16.3" height="15.3"/> 	<g> 		<path d="M-188.9,6.3V2.1h-0.7V1.4h0.7V1.2c0-0.7,0.2-1.3,0.6-1.7c0.3-0.3,0.8-0.4,1.2-0.4c0.3,0,0.6,0.1,0.7,0.1l-0.1,0.7    c-0.1-0.1-0.3-0.1-0.6-0.1c-0.7,0-0.9,0.6-0.9,1.4v0.3h1.2v0.7h-1.2v4.2H-188.9z"/> 		<path d="M-181.8,3.8c0,1.8-1.2,2.6-2.4,2.6c-1.3,0-2.3-1-2.3-2.5c0-1.6,1.1-2.6,2.4-2.6C-182.7,1.3-181.8,2.4-181.8,3.8z     M-185.6,3.9c0,1.1,0.6,1.9,1.5,1.9c0.8,0,1.5-0.8,1.5-1.9c0-0.8-0.4-1.8-1.4-1.8C-185.2,2-185.6,3-185.6,3.9z"/> 		<path d="M-180.7,2.8c0-0.5,0-0.9,0-1.3h0.8l0,0.8h0c0.2-0.4,0.8-0.9,1.6-0.9c0.7,0,1.7,0.4,1.7,2.1v2.9h-0.9V3.5    c0-0.8-0.3-1.4-1.1-1.4c-0.6,0-1,0.4-1.2,0.9c0,0.1-0.1,0.3-0.1,0.4v2.9h-0.9V2.8z"/> 		<path d="M-175.2,5.4c0.3,0.2,0.7,0.3,1.2,0.3c0.6,0,0.9-0.3,0.9-0.7c0-0.4-0.3-0.6-0.9-0.9c-0.9-0.3-1.3-0.8-1.3-1.4    c0-0.8,0.6-1.4,1.7-1.4c0.5,0,0.9,0.1,1.2,0.3l-0.2,0.6c-0.2-0.1-0.5-0.3-1-0.3c-0.5,0-0.8,0.3-0.8,0.7c0,0.4,0.3,0.6,0.9,0.8    c0.8,0.3,1.3,0.7,1.3,1.4c0,0.9-0.7,1.5-1.8,1.5c-0.5,0-1-0.1-1.4-0.3L-175.2,5.4z"/> 	</g> 	<g> 		<path d="M-188.9-24.6c0-0.5,0-0.9,0-1.3h0.8l0,0.8h0c0.3-0.5,0.7-0.9,1.5-0.9c0.6,0,1.1,0.4,1.4,1h0c0.1-0.3,0.4-0.5,0.5-0.6    c0.3-0.2,0.6-0.3,1.1-0.3c0.6,0,1.6,0.4,1.6,2.1v2.8h-0.9v-2.7c0-0.9-0.3-1.5-1-1.5c-0.5,0-0.9,0.4-1,0.8c0,0.1-0.1,0.3-0.1,0.4v3    h-0.9v-2.9c0-0.8-0.3-1.3-1-1.3c-0.5,0-0.9,0.4-1.1,0.9c-0.1,0.1-0.1,0.3-0.1,0.4v2.9h-0.9V-24.6z"/> 		<path d="M-177.2-22.2c0,0.4,0,0.8,0.1,1.2h-0.8l-0.1-0.6h0c-0.3,0.4-0.8,0.7-1.5,0.7c-1,0-1.5-0.7-1.5-1.4c0-1.2,1-1.8,2.9-1.8    v-0.1c0-0.4-0.1-1.1-1.1-1.1c-0.5,0-0.9,0.1-1.3,0.4l-0.2-0.6c0.4-0.3,1-0.4,1.6-0.4c1.5,0,1.8,1,1.8,2V-22.2z M-178.1-23.5    c-1,0-2,0.1-2,1.1c0,0.6,0.4,0.8,0.8,0.8c0.6,0,1-0.4,1.2-0.8c0-0.1,0-0.2,0-0.3V-23.5z"/> 		<path d="M-175.8-24.4c0-0.6,0-1.1,0-1.5h0.8l0,1h0c0.2-0.6,0.8-1.1,1.3-1.1c0.1,0,0.2,0,0.2,0v0.8c-0.1,0-0.2,0-0.3,0    c-0.6,0-1.1,0.5-1.2,1.1c0,0.1,0,0.3,0,0.4v2.6h-0.9V-24.4z"/> 	</g> 	<circle style="fill-rule:evenodd;clip-rule:evenodd;fill:#5B7EBD;" cx="-209" cy="105.7" r="2.4"/> 	<rect x="-289.8" y="-3.1" style="fill:#BFBFBF;stroke:#696969;stroke-width:2;stroke-miterlimit:10;" width="16.3" height="15.3"/> 	<rect x="-263.6" y="-3.1" style="fill:#FFFBF0;stroke:#9A9A9A;stroke-width:2;stroke-miterlimit:10;" width="16.3" height="15.3"/> 	<rect x="-272.9" y="27.5" style="opacity:0.6;fill:#FFFBF0;" width="51" height="17.5"/> </g> </svg>