<svg xmlns="http://www.w3.org/2000/svg" xmlns:xlink="http://www.w3.org/1999/xlink" version="1.1" x="0px" y="0px" width="450px" height="450px" viewBox="0 0 450 450" style="enable-background:new 0 0 450 450;" xml:space="preserve">
<g id="Capa_7">
	<a xlink:href="Bergueda">
		<path style="fill:#BFBFBF;" d="M30,5.5l1,6.2l-0.3,3l9.2-2.3l9.2-0.8l-0.7,5l1.5,5.3l2.3,6.8l2,4.2l2,4.2l1,4.8l4.2-1.7l7-0.2    l6.8,1.5c0,0,6.8,2.5,7.3,2.8s6.5,4,7,4.3s5.3,4.3,5.3,4.3l3,2.3l2.8,1l-0.2,2.7l-3.3,3c0,0-2.8,2.3-3.7,2.7s-4.2,2.8-4.2,2.8    l-1.5,2.8l-1,5.5l-0.2,3.7l-1.2,4.3l1.4,2.7l3,0.7l1.7,1.5l2,2.8l0.8,2.7l0.2,2.8l-1.3,1l-2.5-3.7L87.2,93l-3.3,2.7l-1.2,2.7    c0,0,0.2,3.8,0.3,4.3s1.8,2.7,1.8,2.7l-2.3,0l-3.8-1.5l-3.5-2.7l-2.8-4c0,0-3.2-3.3-3.7-3.5s-3-1.2-3-1.2l-2.3,0.2    c0,0-1.5,3.5-1.8,4s-1.3,5-1.5,6.3s0,4-0.2,6s-1.2,14.7-1.2,14.7l-1.5,5.8c0,0-0.2,4.7-0.5,5.7s-1.5,6.3-2.2,7.8s-3,8.3-3.5,9.2    s3,0.3,3,0.3l3.7,1.3c0,0,2.7,2.7,2.7,3.2s0.7,7.2,0.7,7.7s-3.8,14-3.8,14s-2.3,7.2-2.7,7.7s-4.8,9.8-5.5,10.8s-4.3,9.3-4.3,9.3    l-0.3,2.8l4.3,4l0.7,2.7l-12.8,5.8l-1,6.7l-2.2,7.3l-0.2,6.2c0,0,1.7,2.5,2.2,3.5s7,4.5,7,4.5l-2,4l-2.7-0.2l-3.8-2.7l-3.8-5.5    l-2.5-7.5l-1.8-7l-2.3-7.3l-1.2-5.7l-3.2-5.5l-3.2-3.5c0,0-6,1.3-6.8,1.8s-5.7,4.3-5.7,4.3L0,218.7V0h30.5L30,5.5z"/>
	</a>
	<a xlink:href="Girona">
		<path style="fill:#BFBFBF;" d="M31.3,3v4.5v5.8l4.5-0.3c0,0,5.5-1.3,6.8-1s6.5-0.5,6.5-0.5l-0.8,6.8c0,0,2.3,5.5,2.8,6.8    s2.8,5.7,3,6.8s2.2,5.3,2.2,5.3l1.1,3.5c0,0,5.5-0.8,6.5-0.5s6,0.8,6.8,1s6.5,0.8,6.5,0.8s5.5,3.3,6.8,4S90,49.3,91,50    s5.3,5,5.3,5l7-5.6c0,0,4.1-1.8,4.8-1.8s5.3-0.6,5.9-0.4s4.3,3.6,5,4.4s4.4,6.4,4.8,6.9s3.3,7.3,3.4,7.7s5.6,5.1,6.4,5.4    s7.5,0.2,8.1-0.2s8.9-8,8.9-8s8.8-6.8,9-6.9s9.3-1.9,9.8-1.9s12.4,1.1,12.4,1.1l14.1,2.8c0,0,4-4.2,4.4-4.3s7.4-3,8.2-3    s17.8,1.8,17.8,1.8l10.7-2.1l3.3-3.9c0,0,5.9,2.9,6.3,3.3s9.5,7.3,9.5,7.3l4.6,1.1l1.8,9c0,0-1.4,9.7-1.5,9.9s-3.4,8.7-3.4,8.7    l8.2-5.6l8.8-3.9l7.1-1.9c0,0,6.8-1.3,7.1-1.3s6.8,0.6,6.8,0.6l9.3,1.6l7.5,3.5l8.1,3.4l9.5,5.3l-2.9,6.3l0.8,9.5    c0,0,2.9,7.1,3.3,7.6s4.3,7.6,4.8,7.8s7.7,5.1,7.7,5.1l10.1-0.8l8.5-5.3l7-4.2l4.3-0.1l7,9.8l4.7-2.7l2.9,0.6l1.3,4.6l0.3,10.6    l-0.8,5.1l2.8,4.2l6.4,3.5l3.8,3.8l-0.2,4.8l-4.4,4.9l-3.5,5l1,2.9l5.1,2.7l-0.3,2.5l-2.9,3.3l-4,1.8l-14.6,4.2    c0,0-0.3,1.5-0.3,1.8s11.2,9.3,11.2,9.3l0.8,0.8l-3.1,5c0,0-0.8,2.2-1.1,2.7s-5.2,5.8-5.2,5.8l-4.6,1.8l-6.6,0.3    c0,0-5.2-1.6-6.3-1.8s-8-1.9-8.6-2s-4.7,2.7-4.7,2.7l-0.4,2.6l2.8,2l3.7,7.6l0.1,3.3l2.3,5.3c0,0,1.9,3.3,2.2,3.5s3.5,1.4,4.1,1.3    s4.8-2.8,4.8-2.8l7.1,4.8l6.4,6.3l3.4,4.9l0.5,6.3c0,0-3.2,4.8-3.7,5.1s-5.6,4.6-5.8,4.8s-2.4,3.4-2.4,3.4l-7,8.2l-9.8,7.5    l-4.7-0.1l-4.4-3.1l-3-2.3l-10.9,1.3l-4.6,3.2l-8.3,8.6l-5.3,7.1l-3.2-1.3l-5.7-10.5l-3.1,1.4c0,0-3.5,0.3-4.2-0.1    s-7.4-2.7-7.8-2.8s-5.8-1.2-5.8-1.2s-6.8,3.6-7.2,4s-2.3,4.8-2.3,4.8l-0.8,3.2c0,0,2.3,5.8,2.3,6.1s0.9,3.9,1,4.3s0,4.8,0,4.8    l-2.4,2.7l1,4.5l3.1,3.2l3.5,3.3l3.7,4.8l2.2,6.3l-0.3,7.7l1.1,5.8l2.3,4.5c0,0,5.4,5.7,5.7,5.8s4.9,2.4,4.9,2.4l7.7-1.3l3.1-2.1    l4.3,1l6.5,1.8c0,0,9,0.3,9.6,0.2s4.3-0.1,4.3-0.1l6.7,0.3l6.7,2.6l3.3,4.6c0,0,3.2,4.2,3.4,4.5s3.6,4.6,3.8,4.7s5.8,1.1,5.8,1.1    l3.3-1.4l3.9-1.8c0,0-0.5,4.3-0.5,4.6s0.6,6.5,0.8,6.8s2.9,3.7,3.6,4.1s8.1,2.8,8.6,2.9s8.6,1.7,8.9,1.8s5.4,2.1,5.4,2.1l4.9,3    c0,0,1.6,3.1,1.6,3.3s-0.3,7.1-0.3,7.4s0.9,4.7,1.3,4.9s3.8,3.7,4.2,3.9s3.3,2.7,3.3,2.7l0.4,4.8l0.3,5.4c0,0,1.4,3.6,1.6,3.7    s6.6,2,6.8,2.1s7.9-1.1,8.8-1.2s6.1-1.4,6.3-1.4s5.9-0.8,5.9-0.8l1.6-0.4L449.8,0H31.1L31.3,3z"/>
	</a>
	<a xlink:href="moianes">
		<path style="fill:#BFBFBF;" d="M146.1,259.2c0.9,1.9,1.7,3.6,1.7,3.6l0.1,5.3c0,0-0.6,4.3-0.4,4.9s1.1,7.2,1.1,7.2l-2.1,5.8    c0,0-5.7,1.7-6.3,1.8s-3.2-0.3-3.2-0.3l-0.1,3.8l2.3,4.4l2.6,6.3l1.2,4.3l3.3,4.8l3.6,3.8l5,2.9c3.1-3.9,8.8-4.9,13.2-2.6    c2.9,1.5,3.8,2.9,6.5,1.1c2.9-1.9,3.2-2.6,4.5-5.9c0.7,2.8,3,7.5,2.5,10.3c-0.9,4.6-0.3,6.1,1.4,10.5c3.9-3,2.2,5.4,1.9,6.5    c-0.9,3.8-1.3,8-3.5,11.4c-1.3,2-1.8,2.7-1.9,5.1c-0.1,1.7,0.2,3-0.9,4.4c-1.8,2.4-4.5,5.3-6.3,7.7l-0.7-1l2.5,5.6l2.3,7.8l2,7.3    l1.6,11.4l-0.3,14.1l-0.3,7.3l2.3,6.3l8.2,6.4c0,0,9.3,2,9.5,2.1s4,1.2,4,1.2l13.9-1.3l-1.2-0.3c0.7,0.4,1.2,0.8,1.3,1.4    c0.3,1.1-0.6,10.6-0.8,17c-0.1,2.6,1.4,4.5,0.7,5.4L216,463l-151-1.5L64.3,448c-2-2.8-11-12-13.7-13.3c-1.8-0.8-0.6-4.5-0.6-7.1    c0-1.1-0.3-2.1-0.4-3.2c-0.1-1.2,0.1-2.4-0.5-3.1c-1.1-1.2-2.2-1.5-3-2.1c-1.5-1.1-2.7-2.2-3.6-3c-0.9-0.8-3.5-3.5-5.2-4.1    c-1.6-0.5-2.1-0.6-2.7-0.6c-5.5,1.5-12.7,2-16.8,4.5c-8.8,5.4-16.5,4.2-21.1-0.8l-1-27.6c2.2-0.7,4.4-1.5,6.5-2.4    c6.9-3,13.6-0.9,20.6-4.9c12.7-7.2,30.2-16.2,45.2-15.1c0.1,0,0.3,0,0.3,0s-0.2,0-0.3,0c7.7-3.8,2.5-1.4,5.6-9.6    c0.1-0.4-0.2-1.2-0.3-1.6c-0.5-1.8-3.5-0.1-4.5-2.4c-1.3-3-12-5.2-12-5.2c-1.8-1.1-5.6-10.8-10.5-12.9c-4.1-1.8-9.9-1.7-14.3-2.4    c-0.7-2.6-1.9-5.6-0.7-9.3c1.6-4.9,20.6-18.9,28.5-23.6c-1.7-4.7-4-10.4-1-11.3c-1.5-3.6-0.5-7.1,0-10.9c0.5-3.9-3.7-6.9-2.5-10.3    c4.2-11.9,7.2,7.2,23.8,6.7c0.2,0,1.3,0,2.6,0l0-0.3l4,2.3l6.1,0.9c0,0,6.4-2.9,6.7-3.1s3.7-3.4,3.7-3.4l4.7-4.8l1.2-0.1    c-1.6,10.5,32,1.7,34.8-4.6L146.1,259.2z"/>
	</a>
	<a xlink:href="valles oriental">
		<path style="fill:#BFBFBF;" d="M457.3,438.7l-7.3-1.4l-1.6,0.4c0,0-5.8,0.8-5.9,0.8s-5.4,1.3-6.3,1.4s-8.6,1.3-8.8,1.2    s-6.6-1.9-6.8-2.1s-1.6-3.7-1.6-3.7l-0.3-5.4l-0.4-4.8c0,0-2.9-2.5-3.3-2.7s-3.9-3.6-4.2-3.9s-1.3-4.6-1.3-4.9s0.3-7.3,0.3-7.4    s-1.6-3.3-1.6-3.3l-4.9-3c0,0-5.1-2-5.4-2.1s-8.5-1.7-8.9-1.8s-7.9-2.5-8.6-2.9s-3.4-3.8-3.6-4.1s-0.8-6.4-0.8-6.8    s0.5-4.6,0.5-4.6l-3.9,1.8l-3.3,1.4c0,0-5.6-1-5.8-1.1s-3.5-4.4-3.8-4.7s-3.4-4.5-3.4-4.5l-3.3-4.6l-6.7-2.6l-6.7-0.3    c0,0-3.7,0.1-4.3,0.1s-9.6-0.2-9.6-0.2l-6.5-1.8l-4.3-1l-0.9,0.6c-4.6,5.5-13.1,15.7-11.2,19.9c4.6,10.2-7.6,26.5-18.7,19.3    c-9.9-6.4-8.5-23.4-21.9-31.2c-3.6-2.1-28.7,16.1-27.2-5.7l-1.7,0c-4,10.7-16.3,17.3-12.3,30.7c6.5,21.5,11.1,32.9,10.8,34.9    c-0.1,1.3-6.6,3.5-15,4.6c0.3,0.3,0.5,0.6,0.6,0.9c0.3,1.1-0.6,10.6-0.8,17c-0.1,2.6,1.4,4.5,0.7,5.4L216,463l0,0l3.5,0.4L461,464    l0.3-17.3L457.3,438.7z"/>
	</a>
	<a xlink:href="Bages">
		<path style="fill:#BFBFBF;" d="M0,207v11.7l3.3-3.3c0,0,4.8-3.8,5.7-4.3s6.8-1.8,6.8-1.8l3.2,3.5l3.2,5.5l1.2,5.7l2.3,7.3l1.8,7    l2.5,7.5l3.8,5.5l3.8,2.7l2.7,0.2l2-4c0,0-6.5-3.5-7-4.5s-2.2-3.5-2.2-3.5l0.2-6.2l2.2-7.3l1-6.7l12.8-5.8l-0.7-2.7l-4.3-4    l0.2-1.9c13.1-2.9,32.4,7.2,27,21.6c-5.8,15.3,15.7,34.4,11.2,43.1l0,0.3c-1.4,0-2.4,0-2.6,0c-16.6,0.4-19.6-18.6-23.8-6.7    c-1.2,3.4,2.9,6.3,2.5,10.3c-0.5,3.9-1.5,7.3,0,10.9c-3,0.8-0.7,6.6,1,11.3c-7.9,4.7-26.9,18.7-28.5,23.6    c-1.2,3.8-0.1,6.8,0.7,9.3c4.4,0.7,10.3,0.6,14.3,2.4c4.9,2.1,8.6,11.8,10.5,12.9c0,0,10.7,2.2,12,5.2c1,2.3,4,0.6,4.5,2.4    c0.1,0.3,0.5,1.2,0.3,1.6c-3.1,8.2,2.1,5.8-5.6,9.6c-15-1.1-32.5,7.9-45.2,15.1c-7,4-13.7,1.9-20.6,4.9c-2.2,0.9-4.3,1.7-6.5,2.4    l1,27.6c4.7,5,12.3,6.3,21.1,0.8c4.1-2.5,11.3-3.1,16.8-4.5c0.5,0.1,1.1,0.2,2.7,0.6c1.7,0.5,4.3,3.3,5.2,4.1    c0.9,0.8,2.1,1.9,3.6,3c0.9,0.6,1.9,1,3,2.1c0.6,0.6,0.4,1.8,0.5,3.1c0.1,1.1,0.4,2.1,0.4,3.2c-0.1,2.6-1.3,6.3,0.6,7.1    c2.7,1.2,11.7,10.5,13.7,13.3l0.7,13.5l-81,1.5l-2-256L0,207z"/>
	</a>
</g>
<g id="Limit_comarcal">
	<a xlink:href="Bergueda">
		<path style="fill:none;stroke:#696969;stroke-width:2;stroke-miterlimit:10;" d="M30,5.5l1,6.2l-0.3,3l9.2-2.3l9.2-0.8l-0.7,5    l1.5,5.3l2.3,6.8l2,4.2l2,4.2l1,4.8l4.2-1.7l7-0.2l6.8,1.5c0,0,6.8,2.5,7.3,2.8s6.5,4,7,4.3s5.3,4.3,5.3,4.3l3,2.3l2.8,1l-0.2,2.7    l-3.3,3c0,0-2.8,2.3-3.7,2.7s-4.2,2.8-4.2,2.8l-1.5,2.8l-1,5.5l-0.2,3.7l-1.2,4.3l1.4,2.7l3,0.7l1.7,1.5l2,2.8l0.8,2.7l0.2,2.8    l-1.3,1l-2.5-3.7L87.2,93l-3.3,2.7l-1.2,2.7c0,0,0.2,3.8,0.3,4.3s1.8,2.7,1.8,2.7l-2.3,0l-3.8-1.5l-3.5-2.7l-2.8-4    c0,0-3.2-3.3-3.7-3.5s-3-1.2-3-1.2l-2.3,0.2c0,0-1.5,3.5-1.8,4s-1.3,5-1.5,6.3s0,4-0.2,6s-1.2,14.7-1.2,14.7l-1.5,5.8    c0,0-0.2,4.7-0.5,5.7s-1.5,6.3-2.2,7.8s-3,8.3-3.5,9.2s3,0.3,3,0.3l3.7,1.3c0,0,2.7,2.7,2.7,3.2s0.7,7.2,0.7,7.7s-3.8,14-3.8,14    s-2.3,7.2-2.7,7.7s-4.8,9.8-5.5,10.8s-4.3,9.3-4.3,9.3l-0.3,2.8l4.3,4l0.7,2.7l-12.8,5.8l-1,6.7l-2.2,7.3l-0.2,6.2    c0,0,1.7,2.5,2.2,3.5s7,4.5,7,4.5l-2,4l-2.7-0.2l-3.8-2.7l-3.8-5.5l-2.5-7.5l-1.8-7l-2.3-7.3l-1.2-5.7l-3.2-5.5l-3.2-3.5    c0,0-6,1.3-6.8,1.8s-5.7,4.3-5.7,4.3L0,218.7V0h30.5L30,5.5z"/>
	</a>
	<a xlink:href="Girona">
		<path style="fill:none;stroke:#696969;stroke-width:2;stroke-miterlimit:10;" d="M31.3,3v4.5v5.8l4.5-0.3c0,0,5.5-1.3,6.8-1    s6.5-0.5,6.5-0.5l-0.8,6.8c0,0,2.3,5.5,2.8,6.8s2.8,5.7,3,6.8s2.2,5.3,2.2,5.3l1.1,3.5c0,0,5.5-0.8,6.5-0.5s6,0.8,6.8,1    s6.5,0.8,6.5,0.8s5.5,3.3,6.8,4S90,49.3,91,50s5.3,5,5.3,5l7-5.6c0,0,4.1-1.8,4.8-1.8s5.3-0.6,5.9-0.4s4.3,3.6,5,4.4    s4.4,6.4,4.8,6.9s3.3,7.3,3.4,7.7s5.6,5.1,6.4,5.4s7.5,0.2,8.1-0.2s8.9-8,8.9-8s8.8-6.8,9-6.9s9.3-1.9,9.8-1.9s12.4,1.1,12.4,1.1    l14.1,2.8c0,0,4-4.2,4.4-4.3s7.4-3,8.2-3s17.8,1.8,17.8,1.8l10.7-2.1l3.3-3.9c0,0,5.9,2.9,6.3,3.3s9.5,7.3,9.5,7.3l4.6,1.1l1.8,9    c0,0-1.4,9.7-1.5,9.9s-3.4,8.7-3.4,8.7l8.2-5.6l8.8-3.9l7.1-1.9c0,0,6.8-1.3,7.1-1.3s6.8,0.6,6.8,0.6l9.3,1.6l7.5,3.5l8.1,3.4    l9.5,5.3l-2.9,6.3l0.8,9.5c0,0,2.9,7.1,3.3,7.6s4.3,7.6,4.8,7.8s7.7,5.1,7.7,5.1l10.1-0.8l8.5-5.3l7-4.2l4.3-0.1l7,9.8l4.7-2.7    l2.9,0.6l1.3,4.6l0.3,10.6l-0.8,5.1l2.8,4.2l6.4,3.5l3.8,3.8l-0.2,4.8l-4.4,4.9l-3.5,5l1,2.9l5.1,2.7l-0.3,2.5l-2.9,3.3l-4,1.8    l-14.6,4.2c0,0-0.3,1.5-0.3,1.8s11.2,9.3,11.2,9.3l0.8,0.8l-3.1,5c0,0-0.8,2.2-1.1,2.7s-5.2,5.8-5.2,5.8l-4.6,1.8l-6.6,0.3    c0,0-5.2-1.6-6.3-1.8s-8-1.9-8.6-2s-4.7,2.7-4.7,2.7l-0.4,2.6l2.8,2l3.7,7.6l0.1,3.3l2.3,5.3c0,0,1.9,3.3,2.2,3.5s3.5,1.4,4.1,1.3    s4.8-2.8,4.8-2.8l7.1,4.8l6.4,6.3l3.4,4.9l0.5,6.3c0,0-3.2,4.8-3.7,5.1s-5.6,4.6-5.8,4.8s-2.4,3.4-2.4,3.4l-7,8.2l-9.8,7.5    l-4.7-0.1l-4.4-3.1l-3-2.3l-10.9,1.3l-4.6,3.2l-8.3,8.6l-5.3,7.1l-3.2-1.3l-5.7-10.5l-3.1,1.4c0,0-3.5,0.3-4.2-0.1    s-7.4-2.7-7.8-2.8s-5.8-1.2-5.8-1.2s-6.8,3.6-7.2,4s-2.3,4.8-2.3,4.8l-0.8,3.2c0,0,2.3,5.8,2.3,6.1s0.9,3.9,1,4.3s0,4.8,0,4.8    l-2.4,2.7l1,4.5l3.1,3.2l3.5,3.3l3.7,4.8l2.2,6.3l-0.3,7.7l1.1,5.8l2.3,4.5c0,0,5.4,5.7,5.7,5.8s4.9,2.4,4.9,2.4l7.7-1.3l3.1-2.1    l4.3,1l6.5,1.8c0,0,9,0.3,9.6,0.2s4.3-0.1,4.3-0.1l6.7,0.3l6.7,2.6l3.3,4.6c0,0,3.2,4.2,3.4,4.5s3.6,4.6,3.8,4.7s5.8,1.1,5.8,1.1    l3.3-1.4l3.9-1.8c0,0-0.5,4.3-0.5,4.6s0.6,6.5,0.8,6.8s2.9,3.7,3.6,4.1s8.1,2.8,8.6,2.9s8.6,1.7,8.9,1.8s5.4,2.1,5.4,2.1l4.9,3    c0,0,1.6,3.1,1.6,3.3s-0.3,7.1-0.3,7.4s0.9,4.7,1.3,4.9s3.8,3.7,4.2,3.9s3.3,2.7,3.3,2.7l0.4,4.8l0.3,5.4c0,0,1.4,3.6,1.6,3.7    s6.6,2,6.8,2.1s7.9-1.1,8.8-1.2s6.1-1.4,6.3-1.4s5.9-0.8,5.9-0.8l1.6-0.4L449.8,0H31.1L31.3,3z"/>
	</a>
	<a xlink:href="Bages">
		<path style="fill:none;stroke:#696969;stroke-width:2;stroke-miterlimit:10;" d="M146.1,259.2c0.9,1.9,1.7,3.6,1.7,3.6l0.1,5.3    c0,0-0.6,4.3-0.4,4.9s1.1,7.2,1.1,7.2l-2.1,5.8c0,0-5.7,1.7-6.3,1.8s-3.2-0.3-3.2-0.3l-0.1,3.8l2.3,4.4l2.6,6.3l1.2,4.3l3.3,4.8    l3.6,3.8l5,2.9c3.1-3.9,8.8-4.9,13.2-2.6c2.9,1.5,3.8,2.9,6.5,1.1c2.9-1.9,3.2-2.6,4.5-5.9c0.7,2.8,3,7.5,2.5,10.3    c-0.9,4.6-0.3,6.1,1.4,10.5c3.9-3,2.2,5.4,1.9,6.5c-0.9,3.8-1.3,8-3.5,11.4c-1.3,2-1.8,2.7-1.9,5.1c-0.1,1.7,0.2,3-0.9,4.4    c-1.8,2.4-4.5,5.3-6.3,7.7l-0.7-1l2.5,5.6l2.3,7.8l2,7.3l1.6,11.4l-0.3,14.1l-0.3,7.3l2.3,6.3l8.2,6.4c0,0,9.3,2,9.5,2.1    s4,1.2,4,1.2l13.9-1.3l-1.2-0.3c0.7,0.4,1.2,0.8,1.3,1.4c0.3,1.1-0.6,10.6-0.8,17c-0.1,2.6,1.4,4.5,0.7,5.4L216,463l-151-1.5    L64.3,448c-2-2.8-11-12-13.7-13.3c-1.8-0.8-0.6-4.5-0.6-7.1c0-1.1-0.3-2.1-0.4-3.2c-0.1-1.2,0.1-2.4-0.5-3.1    c-1.1-1.2-2.2-1.5-3-2.1c-1.5-1.1-2.7-2.2-3.6-3c-0.9-0.8-3.5-3.5-5.2-4.1c-1.6-0.5-2.1-0.6-2.7-0.6c-5.5,1.5-12.7,2-16.8,4.5    c-8.8,5.4-16.5,4.2-21.1-0.8l-1-27.6c2.2-0.7,4.4-1.5,6.5-2.4c6.9-3,13.6-0.9,20.6-4.9c12.7-7.2,30.2-16.2,45.2-15.1    c0.1,0,0.3,0,0.3,0s-0.2,0-0.3,0c7.7-3.8,2.5-1.4,5.6-9.6c0.1-0.4-0.2-1.2-0.3-1.6c-0.5-1.8-3.5-0.1-4.5-2.4c-1.3-3-12-5.2-12-5.2    c-1.8-1.1-5.6-10.8-10.5-12.9c-4.1-1.8-9.9-1.7-14.3-2.4c-0.7-2.6-1.9-5.6-0.7-9.3c1.6-4.9,20.6-18.9,28.5-23.6    c-1.7-4.7-4-10.4-1-11.3c-1.5-3.6-0.5-7.1,0-10.9c0.5-3.9-3.7-6.9-2.5-10.3c4.2-11.9,7.2,7.2,23.8,6.7c0.2,0,1.3,0,2.6,0l0-0.3    l4,2.3l6.1,0.9c0,0,6.4-2.9,6.7-3.1s3.7-3.4,3.7-3.4l4.7-4.8l1.2-0.1c-1.6,10.5,32,1.7,34.8-4.6L146.1,259.2z"/>
	</a>
	<path style="fill:none;stroke:#696969;stroke-width:2;stroke-miterlimit:10;" d="M457.3,438.7l-7.3-1.4l-1.6,0.4   c0,0-5.8,0.8-5.9,0.8s-5.4,1.3-6.3,1.4s-8.6,1.3-8.8,1.2s-6.6-1.9-6.8-2.1s-1.6-3.7-1.6-3.7l-0.3-5.4l-0.4-4.8c0,0-2.9-2.5-3.3-2.7   s-3.9-3.6-4.2-3.9s-1.3-4.6-1.3-4.9s0.3-7.3,0.3-7.4s-1.6-3.3-1.6-3.3l-4.9-3c0,0-5.1-2-5.4-2.1s-8.5-1.7-8.9-1.8s-7.9-2.5-8.6-2.9   s-3.4-3.8-3.6-4.1s-0.8-6.4-0.8-6.8s0.5-4.6,0.5-4.6l-3.9,1.8l-3.3,1.4c0,0-5.6-1-5.8-1.1s-3.5-4.4-3.8-4.7s-3.4-4.5-3.4-4.5   l-3.3-4.6l-6.7-2.6l-6.7-0.3c0,0-3.7,0.1-4.3,0.1s-9.6-0.2-9.6-0.2l-6.5-1.8l-4.3-1l-0.9,0.6c-4.6,5.5-13.1,15.7-11.2,19.9   c4.6,10.2-7.6,26.5-18.7,19.3c-9.9-6.4-8.5-23.4-21.9-31.2c-3.6-2.1-28.7,16.1-27.2-5.7l-1.7,0c-4,10.7-16.3,17.3-12.3,30.7   c6.5,21.5,11.1,32.9,10.8,34.9c-0.1,1.3-6.6,3.5-15,4.6c0.3,0.3,0.5,0.6,0.6,0.9c0.3,1.1-0.6,10.6-0.8,17c-0.1,2.6,1.4,4.5,0.7,5.4   L216,463l0,0l3.5,0.4L461,464l0.3-17.3L457.3,438.7z"/>
	<path style="fill:none;stroke:#696969;stroke-width:2;stroke-miterlimit:10;" d="M0,207v11.7l3.3-3.3c0,0,4.8-3.8,5.7-4.3   s6.8-1.8,6.8-1.8l3.2,3.5l3.2,5.5l1.2,5.7l2.3,7.3l1.8,7l2.5,7.5l3.8,5.5l3.8,2.7l2.7,0.2l2-4c0,0-6.5-3.5-7-4.5s-2.2-3.5-2.2-3.5   l0.2-6.2l2.2-7.3l1-6.7l12.8-5.8l-0.7-2.7l-4.3-4l0.2-1.9c13.1-2.9,32.4,7.2,27,21.6c-5.8,15.3,15.7,34.4,11.2,43.1l0,0.3   c-1.4,0-2.4,0-2.6,0c-16.6,0.4-19.6-18.6-23.8-6.7c-1.2,3.4,2.9,6.3,2.5,10.3c-0.5,3.9-1.5,7.3,0,10.9c-3,0.8-0.7,6.6,1,11.3   c-7.9,4.7-26.9,18.7-28.5,23.6c-1.2,3.8-0.1,6.8,0.7,9.3c4.4,0.7,10.3,0.6,14.3,2.4c4.9,2.1,8.6,11.8,10.5,12.9   c0,0,10.7,2.2,12,5.2c1,2.3,4,0.6,4.5,2.4c0.1,0.3,0.5,1.2,0.3,1.6c-3.1,8.2,2.1,5.8-5.6,9.6c-15-1.1-32.5,7.9-45.2,15.1   c-7,4-13.7,1.9-20.6,4.9c-2.2,0.9-4.3,1.7-6.5,2.4l1,27.6c4.7,5,12.3,6.3,21.1,0.8c4.1-2.5,11.3-3.1,16.8-4.5   c0.5,0.1,1.1,0.2,2.7,0.6c1.7,0.5,4.3,3.3,5.2,4.1c0.9,0.8,2.1,1.9,3.6,3c0.9,0.6,1.9,1,3,2.1c0.6,0.6,0.4,1.8,0.5,3.1   c0.1,1.1,0.4,2.1,0.4,3.2c-0.1,2.6-1.3,6.3,0.6,7.1c2.7,1.2,11.7,10.5,13.7,13.3l0.7,13.5l-81,1.5l-2-256L0,207z"/>
</g>
<g id="fons_x005F_municipi">
	<a xlink:href="Osona Nord-oest">
		<path style="fill:#FFFBF0;stroke:#9A9A9A;stroke-width:2;stroke-linecap:round;stroke-linejoin:arcs;stroke-miterlimit:10;" d="    M224.8,186.8c7.5,1.5,24.6,5.8,30,10.1c3.7,8.1-0.2,19.8-1.6,20.9c-2.1,1.7-5.2,1.6-9.9,2.8c-7.8,1.9-24.7,11.3-25.4,22.8    c-2,0.1-21-2.6-20.6-2.7c-13,3.8-7,7.1-15.8,3.8c-17.5-6.5-24.7,1.7-33.3,19.6c-4.9-11.1-11.4-22.3,0.2-31.8    c-24.2-7.3-44.9,58.5-65.7,40c4.5-8.8-16.9-27.8-11.2-43.1c5.6-14.9-15.5-25.3-28.5-21.2c2.9-1.5,33.7-61.8,7.5-54.5    c8.4-16.3,7.7-33.6,9.9-51.2c3.4-28,16.1,10.4,24.4,3.2c-8.3-6.3,4.5-20.8,8.7-5.8c6.1-8.6-10.3-13.5-8.1-15.7    c2.4-0.9,0.5-10.3,2.9-16c1.3-1.5,21.1-10.8,7.9-12.8c33.8-33.1,23.3,45.5,56.1,6.2c12.6-15.1,52.3,1.2,57.7,0.3    c11.2-0.1,3.9,22.4,3.6,28.5c3.4-1,10.4,0.2,17.6,1.3c5,0.8,10,2.5,14.2,5.9c-3.3,1.4-31.9,24.6-27.8,26.1    c4.9,1.8,16.3,11.2,2.7,7.3l0,2.6c2.5,2.8,7,5,9.7,7.6c0.3,6.1-11.4-0.9-12.5-2.3c-8.9,9.3,13.1,16.5,13,16.7    C229.1,163.6,216.5,180.4,224.8,186.8L224.8,186.8z"/>
	</a>
	<a xlink:href="Osona Nord-est">
		<path style="fill:#FFFBF0;stroke:#9A9A9A;stroke-width:2;stroke-linecap:round;stroke-linejoin:arcs;stroke-miterlimit:10;" d="    M296.8,243.2c7.5,2.9-2.5,10.1-6,9.7c-10.3-1.2-16.8-4.7-30-9.2c-14.4-5-15.9-7.8-14.9-22.3c0.1-1.1,7.8-3.2,8.4-4.2    c4.7-7.5,0.8-19.7,0.5-20.2c-34.7-10.7-40.3-4.9-24.9-43.2c-0.8-0.1-21.5-5.5-12.2-15.3c1.9,2.5,9.7,8,12.6,3.7    c1.5-2.2-9.2-9.1-9.8-11.6c13.6,4,2.2-5.4-2.7-7.3c-4.1-1.5,24.5-24.7,27.8-26.1c-3.7-4.2-26.1-8.8-31.9-7.2    c0.4-7.3,2.4-14.3,2.3-21.7c-0.1-11.1-14.1-4.8-20.3-10.4c14.2-14.7,31.1,3.7,44.4-10.5c4.7-0.8,16.2,14.1,20.2,10.3    c4,9.6,1,20.3-3.4,29.1c28.5-22.7,47.6-12.5,72.4,0.9c-8.6,9.4,4,38.1,17.2,36.8c15.4-1.5,24.3-20.1,30.6-5.3    c1.8,4.1,1.9,2.7,2.9,4.4c14.7-11.6,7.1,17.4,8.5,18.9c4.7,6.3,18.4,8,11.1,17.2c-2.8,3.5-12.7,10.8,0.3,13.9    c-5.1,16.2-41,3.5-10.7,23.1c-4,7.3-5.9,16.4-18.4,16.2c-7.6-0.1-21.4-9.9-22.2,1.5c8.6,0.1,5,31.6,20.5,19.5    c7.6,5.7,25.3,16.9,11.7,28.6c-6.9,5.9-17.6,24.1-28.3,22.9c-6.6-0.8-18.6-23.3-13.6-28.1c9.1-8.7-24.7-16.1-27.3-9.2    c-0.1,0.3-0.6,1.1-0.6,1.1C308.7,246.8,298.2,241.1,296.8,243.2C304.3,246.1,296.8,243.2,296.8,243.2z"/>
	</a>
	<path style="fill:#FFFBF0;stroke:#9A9A9A;stroke-width:2;stroke-linecap:round;stroke-linejoin:arcs;stroke-miterlimit:10;" d="   M145,259.3"/>
	<a xlink:href="Osona Sud">
		<path style="fill:#FFFBF0;stroke:#9A9A9A;stroke-width:2;stroke-linecap:round;stroke-linejoin:arcs;stroke-miterlimit:10;" d="    M148.5,263.2c-0.1,0.3-0.2,0.6-0.3,0.9c-0.1,0.4-0.3,0.8-0.4,1.3l0,2.7c0,0-0.2,1.5-0.3,2.8c0.1,1.6,0.2,3.2,0.4,4.8    c0.3,2,0.6,4.5,0.6,4.5l-0.8,2.1c-0.2,0.8-0.4,1.6-0.8,2.3l-0.5,1.4c0,0-0.5,0.2-1.2,0.4c-0.8,0.5-1.9,0.8-3.3,0.9    c-0.9,0.2-1.6,0.4-1.7,0.5c-0.6,0.1-3.2-0.3-3.2-0.3l-0.1,3.4c0.7,1.2,1.3,2.4,1.8,3.7l0.5,1l2.6,6.3l0.7,2.5    c2,4.6,4.7,8.8,9.9,11.5c0.9,0.5,1.8,1,2.6,1.6c3.2-3.8,8.7-4.8,13.1-2.5c2.9,1.5,3.8,2.9,6.5,1.1c2.9-1.9,3.2-2.6,4.5-5.9    c0.7,2.8,3,7.5,2.5,10.3c-0.9,4.6-0.3,6.1,1.4,10.5c3.9-3,2.2,5.4,1.9,6.5c-0.9,3.8-1.3,8-3.5,11.4c-1.3,2-1.8,2.7-1.9,5.1    c-0.1,1.7,0.2,3-0.9,4.4c-1.7,2.3-4.4,5.2-6.2,7.5c3.8,8.3,6.1,16.8,7,27.3l0.6,4.1l-0.1,5.8c0,3.1-0.1,6.4-0.3,9.9l-0.1,3.4    c0,1.2,0.1,2.3,0.3,3.3l1.7,4.7c0.1,0.3,0.3,0.5,0.5,0.8l7.9,6.2c0,0,9.3,2,9.5,2.1c0.1,0,1.1,0.3,2.1,0.6    c1.9,0.2,3.9,0.2,5.8,0.2l9.4-0.9c-0.2-0.1-0.4-0.2-0.6-0.3l1.2,0.3l-0.7,0.1c0.1,0,0.1,0.1,0.2,0.2c8.4-1.1,15-3.4,15-4.6    c0.4-2-4.3-13.4-10.8-34.9c0,0.1,0,0.1,0,0.1c0,0.1,0,0.2,0.1,0.2c0,0,0,0,0,0c0,0,0-0.1-0.1-0.2c0-0.1,0-0.1,0-0.1    c-4-13.4,8.3-20,12.3-30.7l1.7,0c-1.5,21.7,23.6,3.6,27.2,5.7c13.4,7.8,12,24.8,21.9,31.2c11.1,7.2,23.3-9.1,18.7-19.3    c-2.1-4.8,9.1-17.2,12.8-21.8c-12,13.7-26.9-5.7-25.5-17.5c1.6-14.3-10-14.5-13.4-26.2c9.5-5.1-5.8-15.9,1.9-24.6    c11.7-13.1,21.5,5.2,28.5-2.8c1.7,0.4,3.2,10.6,8.9,13c2-5.5,10-12.1,14.6-17.2c4.4-4.9,15.2-1.5,15.2-5.3    c-11.7-16.9-8.2-18.3-5.6-23c1.7-4.7-5-7.3-12.1-9c-7.1-1.6-14.7-2.3-16.9,2.4c-3-3.4-4.4-3.1-5.7-3.7c-1.7-0.7-3.3-1.5-7.9-1.8    c0.4,2.2,0.2,1.4,2.6,1.9c0.2,1.6-2.5,6.8-8.3,7.1c-7.4,0.3-15.5-3-24.8-6.5c-10.3-3.9-21.3-8.4-21-15.5    c1.1-23.5-30.1,4.1-28.3,12.9c-4.1,0.1-20.3-3.8-23.5-1.4c-12.3,9.1-11.1-0.9-25.8,0.7c-12.2,5.6-15.7,9.2-19.8,19.9l-3.3-3.3    l0.6,0c-0.9-2-1.9-4.2-2-4.5c-0.2-0.7-2.3-6.8-2.3-7.3s1.3-8.1,1.3-8.1l5.8-7.4l-5.1-0.3c0,0-7.3,2-7.5,2.1s-3.9,3.3-4.3,3.8    s-4.8,3.9-4.8,3.9l-5.5,6.3l-4,4.9l-9.8,11.4l1.2-0.1c-1.6,10.5,32,1.7,34.8-4.6l1.3-0.1L148.5,263.2z"/>
	</a>
	<path style="fill:none;stroke:#00FFFF;stroke-miterlimit:10;" d="M68.3,365.3c0-0.1-0.2,0-0.3,0C68.1,365.3,68.3,365.4,68.3,365.3z   "/>
</g>
<g id="text_x005F_exterior">
	<g>
		<rect x="346" y="49.4" style="fill-rule:evenodd;clip-rule:evenodd;fill:none;" width="46.2" height="11"/>
		<path d="M357.8,59.2c-0.3,0.1-0.8,0.3-1.3,0.4s-1.1,0.2-1.6,0.2c-1.2,0-2.2-0.3-2.9-1s-1-1.6-1-2.8c0-1.1,0.4-2,1.1-2.7s1.7-1,3-1    c0.5,0,0.9,0,1.4,0.1s0.9,0.3,1.4,0.5v1.7h-0.2c-0.1-0.1-0.2-0.2-0.4-0.3s-0.3-0.2-0.5-0.3c-0.2-0.1-0.4-0.2-0.7-0.3    c-0.3-0.1-0.5-0.1-0.8-0.1c-0.3,0-0.6,0-0.9,0.1s-0.5,0.2-0.7,0.4c-0.2,0.2-0.4,0.4-0.5,0.7c-0.1,0.3-0.2,0.6-0.2,1    c0,0.8,0.2,1.4,0.6,1.8s1.1,0.6,1.9,0.6c0.1,0,0.2,0,0.2,0c0.1,0,0.2,0,0.2,0V57h-1.5v-1.4h3.4V59.2z"/>
		<path d="M361.2,53.3h-1.9V52h1.9V53.3z M361.2,59.6h-1.8v-5.5h1.8V59.6z"/>
		<path d="M366.8,55.8h-0.2c-0.1,0-0.2,0-0.4-0.1s-0.3,0-0.4,0c-0.3,0-0.5,0-0.7,0c-0.2,0-0.4,0.1-0.6,0.2v3.7h-1.8v-5.5h1.8v0.8    c0.4-0.3,0.7-0.6,1-0.7c0.3-0.1,0.5-0.2,0.8-0.2c0.1,0,0.1,0,0.2,0c0.1,0,0.1,0,0.2,0V55.8z"/>
		<path d="M373.4,56.8c0,0.9-0.3,1.6-0.8,2.1c-0.5,0.5-1.3,0.8-2.2,0.8s-1.7-0.3-2.2-0.8c-0.5-0.5-0.8-1.2-0.8-2.1    c0-0.9,0.3-1.6,0.8-2.1c0.5-0.5,1.3-0.8,2.2-0.8c1,0,1.7,0.3,2.2,0.8C373.1,55.2,373.4,55.9,373.4,56.8z M371.2,58.2    c0.1-0.1,0.2-0.3,0.3-0.5c0.1-0.2,0.1-0.5,0.1-0.8c0-0.3,0-0.6-0.1-0.8s-0.1-0.4-0.2-0.5c-0.1-0.1-0.2-0.2-0.4-0.3    s-0.3-0.1-0.5-0.1s-0.3,0-0.5,0.1c-0.1,0-0.3,0.1-0.4,0.3c-0.1,0.1-0.2,0.3-0.3,0.5c-0.1,0.2-0.1,0.5-0.1,0.8c0,0.3,0,0.6,0.1,0.8    s0.1,0.4,0.2,0.5c0.1,0.1,0.2,0.2,0.4,0.3c0.1,0.1,0.3,0.1,0.5,0.1c0.2,0,0.3,0,0.5-0.1C371,58.4,371.1,58.3,371.2,58.2z"/>
		<path d="M380.2,59.6h-1.8v-2.7c0-0.2,0-0.4,0-0.7s-0.1-0.4-0.1-0.5c-0.1-0.1-0.2-0.2-0.3-0.3c-0.1-0.1-0.3-0.1-0.5-0.1    c-0.2,0-0.3,0-0.5,0.1c-0.2,0.1-0.3,0.1-0.5,0.2v3.9h-1.8v-5.5h1.8v0.6c0.3-0.2,0.6-0.4,0.9-0.6c0.3-0.1,0.6-0.2,1-0.2    c0.6,0,1.1,0.2,1.4,0.5s0.5,0.9,0.5,1.5V59.6z"/>
		<path d="M385.1,59c-0.1,0.1-0.2,0.2-0.4,0.3s-0.3,0.2-0.4,0.2c-0.2,0.1-0.4,0.1-0.5,0.2s-0.4,0.1-0.6,0.1c-0.5,0-1-0.2-1.3-0.5    s-0.5-0.7-0.5-1.2c0-0.4,0.1-0.7,0.3-1s0.4-0.5,0.8-0.6c0.3-0.1,0.7-0.3,1.2-0.3s1-0.1,1.5-0.1v0c0-0.3-0.1-0.5-0.4-0.6    s-0.6-0.2-1.1-0.2c-0.3,0-0.6,0.1-0.9,0.2s-0.6,0.2-0.7,0.2h-0.2v-1.3c0.2,0,0.5-0.1,0.9-0.2c0.4-0.1,0.8-0.1,1.3-0.1    c1,0,1.7,0.2,2.2,0.5c0.4,0.3,0.7,0.8,0.7,1.4v3.7h-1.7V59z M385.1,58.1V57c-0.2,0-0.5,0-0.8,0.1c-0.3,0-0.5,0.1-0.6,0.1    c-0.2,0.1-0.3,0.1-0.4,0.2c-0.1,0.1-0.1,0.2-0.1,0.4c0,0.1,0,0.2,0,0.3c0,0.1,0.1,0.1,0.1,0.2c0.1,0.1,0.2,0.1,0.3,0.1    s0.3,0,0.5,0c0.2,0,0.4,0,0.5-0.1C384.8,58.4,385,58.3,385.1,58.1z"/>
	</g>
	<g>
		<path d="M279.4,421.5l-2.7,7.3h-2.1l-2.7-7.3h2l1.8,5.1l1.8-5.1H279.4z"/>
		<path d="M283.7,428.2c-0.1,0.1-0.2,0.2-0.4,0.3c-0.1,0.1-0.3,0.2-0.4,0.2c-0.2,0.1-0.4,0.1-0.5,0.2c-0.2,0-0.4,0.1-0.6,0.1    c-0.5,0-1-0.2-1.3-0.5s-0.5-0.7-0.5-1.2c0-0.4,0.1-0.7,0.3-1c0.2-0.3,0.4-0.5,0.8-0.6c0.3-0.1,0.7-0.3,1.2-0.3    c0.5-0.1,1-0.1,1.5-0.1v0c0-0.3-0.1-0.5-0.4-0.6c-0.2-0.1-0.6-0.2-1.1-0.2c-0.3,0-0.6,0.1-0.9,0.2c-0.3,0.1-0.6,0.2-0.7,0.2h-0.2    v-1.3c0.2,0,0.5-0.1,0.9-0.2c0.4-0.1,0.8-0.1,1.3-0.1c1,0,1.7,0.2,2.2,0.5s0.7,0.8,0.7,1.4v3.7h-1.7V428.2z M283.7,427.3v-1.1    c-0.2,0-0.5,0-0.8,0.1c-0.3,0-0.5,0.1-0.6,0.1c-0.2,0.1-0.3,0.1-0.4,0.2s-0.1,0.2-0.1,0.4c0,0.1,0,0.2,0,0.3s0.1,0.1,0.1,0.2    c0.1,0.1,0.2,0.1,0.3,0.1c0.1,0,0.3,0,0.5,0c0.2,0,0.4,0,0.5-0.1C283.4,427.5,283.6,427.4,283.7,427.3z"/>
		<path d="M288.8,428.8h-1.8v-7.6h1.8V428.8z"/>
		<path d="M292.2,428.8h-1.8v-7.6h1.8V428.8z"/>
		<path d="M299.3,426.3h-4c0,0.4,0.2,0.8,0.5,1s0.7,0.3,1.3,0.3c0.4,0,0.7-0.1,1.1-0.2c0.3-0.1,0.6-0.3,0.8-0.4h0.2v1.4    c-0.4,0.2-0.8,0.3-1.1,0.3s-0.7,0.1-1.2,0.1c-1.1,0-1.9-0.2-2.5-0.7s-0.9-1.2-0.9-2.1c0-0.9,0.3-1.6,0.8-2.2    c0.6-0.5,1.3-0.8,2.3-0.8c0.9,0,1.6,0.2,2,0.7c0.4,0.5,0.7,1.1,0.7,1.9V426.3z M297.6,422.5h-1.2l-1.7-1.8v-0.1h1.7L297.6,422.5z     M297.5,425.3c0-0.4-0.1-0.6-0.3-0.8c-0.2-0.2-0.4-0.3-0.8-0.3c-0.3,0-0.6,0.1-0.8,0.3c-0.2,0.2-0.3,0.5-0.4,0.8H297.5z"/>
		<path d="M305.3,427c0,0.6-0.3,1-0.8,1.4s-1.2,0.5-2.1,0.5c-0.5,0-0.9,0-1.3-0.1s-0.7-0.2-1-0.3V427h0.2c0.1,0.1,0.2,0.1,0.3,0.2    c0.1,0.1,0.3,0.2,0.5,0.2c0.2,0.1,0.4,0.1,0.6,0.2s0.5,0.1,0.7,0.1c0.3,0,0.6,0,0.8-0.1c0.2-0.1,0.2-0.2,0.2-0.3    c0-0.1,0-0.2-0.1-0.3c-0.1-0.1-0.3-0.1-0.6-0.2c-0.1,0-0.3-0.1-0.5-0.1c-0.2,0-0.4-0.1-0.6-0.1c-0.5-0.1-0.9-0.3-1.1-0.6    c-0.2-0.3-0.4-0.6-0.4-1c0-0.5,0.3-1,0.7-1.3c0.5-0.4,1.2-0.5,2-0.5c0.4,0,0.8,0,1.2,0.1s0.7,0.2,0.9,0.3v1.4h-0.2    c-0.3-0.2-0.6-0.3-0.9-0.4c-0.3-0.1-0.7-0.2-1-0.2c-0.3,0-0.5,0-0.7,0.1c-0.2,0.1-0.3,0.2-0.3,0.3c0,0.1,0,0.2,0.1,0.3    s0.3,0.1,0.6,0.2c0.2,0,0.4,0.1,0.6,0.1c0.2,0,0.4,0.1,0.6,0.1c0.5,0.1,0.8,0.3,1,0.6S305.3,426.6,305.3,427z"/>
		<path d="M317,425.1c0,1.2-0.3,2.1-1,2.8c-0.7,0.7-1.6,1-2.8,1c-1.2,0-2.1-0.3-2.7-1c-0.7-0.7-1-1.6-1-2.8c0-1.2,0.3-2.1,1-2.8    s1.6-1,2.7-1c1.2,0,2.1,0.3,2.7,1C316.7,423,317,423.9,317,425.1z M314.6,427c0.2-0.2,0.3-0.5,0.4-0.8c0.1-0.3,0.1-0.7,0.1-1.1    c0-0.4,0-0.8-0.2-1.1c-0.1-0.3-0.2-0.6-0.4-0.7c-0.2-0.2-0.4-0.3-0.6-0.4c-0.2-0.1-0.4-0.1-0.7-0.1c-0.2,0-0.5,0-0.7,0.1    s-0.4,0.2-0.6,0.4c-0.2,0.2-0.3,0.4-0.4,0.8c-0.1,0.3-0.2,0.7-0.2,1.1c0,0.4,0,0.8,0.1,1.1c0.1,0.3,0.2,0.6,0.4,0.7    c0.2,0.2,0.4,0.3,0.6,0.4c0.2,0.1,0.4,0.1,0.7,0.1c0.2,0,0.5,0,0.7-0.1C314.2,427.3,314.4,427.2,314.6,427z"/>
		<path d="M322.3,424.9h-0.2c-0.1,0-0.2,0-0.4-0.1c-0.2,0-0.3,0-0.4,0c-0.3,0-0.5,0-0.7,0s-0.4,0.1-0.6,0.2v3.7h-1.8v-5.5h1.8v0.8    c0.4-0.3,0.7-0.6,1-0.7c0.3-0.1,0.5-0.2,0.8-0.2c0.1,0,0.1,0,0.2,0s0.1,0,0.2,0V424.9z"/>
		<path d="M325.2,422.5h-1.9v-1.3h1.9V422.5z M325.1,428.8h-1.8v-5.5h1.8V428.8z"/>
		<path d="M332.2,426.3h-4c0,0.4,0.2,0.8,0.5,1s0.7,0.3,1.3,0.3c0.4,0,0.7-0.1,1.1-0.2c0.3-0.1,0.6-0.3,0.8-0.4h0.2v1.4    c-0.4,0.2-0.8,0.3-1.1,0.3s-0.7,0.1-1.2,0.1c-1.1,0-1.9-0.2-2.5-0.7s-0.9-1.2-0.9-2.1c0-0.9,0.3-1.6,0.8-2.2    c0.6-0.5,1.3-0.8,2.3-0.8c0.9,0,1.6,0.2,2,0.7c0.4,0.5,0.7,1.1,0.7,1.9V426.3z M330.4,425.3c0-0.4-0.1-0.6-0.3-0.8    c-0.2-0.2-0.4-0.3-0.8-0.3c-0.3,0-0.6,0.1-0.8,0.3c-0.2,0.2-0.3,0.5-0.4,0.8H330.4z"/>
		<path d="M338.9,428.8h-1.8V426c0-0.2,0-0.4,0-0.7s-0.1-0.4-0.1-0.5c-0.1-0.1-0.2-0.2-0.3-0.3c-0.1-0.1-0.3-0.1-0.5-0.1    c-0.2,0-0.3,0-0.5,0.1c-0.2,0.1-0.3,0.1-0.5,0.2v3.9h-1.8v-5.5h1.8v0.6c0.3-0.2,0.6-0.4,0.9-0.6c0.3-0.1,0.6-0.2,1-0.2    c0.6,0,1.1,0.2,1.4,0.5s0.5,0.9,0.5,1.5V428.8z"/>
		<path d="M344,428.7c-0.2,0-0.4,0.1-0.6,0.1c-0.2,0-0.5,0-0.8,0c-0.7,0-1.2-0.1-1.5-0.4c-0.3-0.3-0.5-0.8-0.5-1.4v-2.6h-0.7v-1.2    h0.7v-1.6h1.8v1.6h1.6v1.2h-1.6v1.9c0,0.2,0,0.4,0,0.5s0,0.3,0.1,0.4c0,0.1,0.1,0.2,0.2,0.3c0.1,0.1,0.3,0.1,0.5,0.1    c0.1,0,0.2,0,0.4-0.1s0.3-0.1,0.3-0.1h0.1V428.7z"/>
		<path d="M348.4,428.2c-0.1,0.1-0.2,0.2-0.4,0.3c-0.1,0.1-0.3,0.2-0.4,0.2c-0.2,0.1-0.4,0.1-0.5,0.2c-0.2,0-0.4,0.1-0.6,0.1    c-0.5,0-1-0.2-1.3-0.5s-0.5-0.7-0.5-1.2c0-0.4,0.1-0.7,0.3-1c0.2-0.3,0.4-0.5,0.8-0.6c0.3-0.1,0.7-0.3,1.2-0.3    c0.5-0.1,1-0.1,1.5-0.1v0c0-0.3-0.1-0.5-0.4-0.6c-0.2-0.1-0.6-0.2-1.1-0.2c-0.3,0-0.6,0.1-0.9,0.2c-0.3,0.1-0.6,0.2-0.7,0.2h-0.2    v-1.3c0.2,0,0.5-0.1,0.9-0.2c0.4-0.1,0.8-0.1,1.3-0.1c1,0,1.7,0.2,2.2,0.5s0.7,0.8,0.7,1.4v3.7h-1.7V428.2z M348.4,427.3v-1.1    c-0.2,0-0.5,0-0.8,0.1c-0.3,0-0.5,0.1-0.6,0.1c-0.2,0.1-0.3,0.1-0.4,0.2s-0.1,0.2-0.1,0.4c0,0.1,0,0.2,0,0.3s0.1,0.1,0.1,0.2    c0.1,0.1,0.2,0.1,0.3,0.1c0.1,0,0.3,0,0.5,0c0.2,0,0.4,0,0.5-0.1C348.1,427.5,348.3,427.4,348.4,427.3z"/>
		<path d="M353.5,428.8h-1.8v-7.6h1.8V428.8z"/>
	</g>
	<g>
		<path d="M15.8,282.9c0,0.4-0.1,0.7-0.2,0.9s-0.3,0.5-0.6,0.7c-0.3,0.2-0.6,0.4-0.9,0.5s-0.8,0.1-1.3,0.1H9.6v-7.3h2.8    c0.6,0,1,0,1.3,0.1s0.5,0.1,0.8,0.3c0.3,0.1,0.5,0.3,0.6,0.6c0.1,0.2,0.2,0.5,0.2,0.8c0,0.4-0.1,0.7-0.3,0.9    c-0.2,0.3-0.4,0.5-0.8,0.6v0c0.5,0.1,0.9,0.3,1.1,0.6S15.8,282.4,15.8,282.9z M13.4,279.9c0-0.1,0-0.2-0.1-0.4s-0.2-0.2-0.3-0.3    c-0.1-0.1-0.3-0.1-0.5-0.1c-0.2,0-0.5,0-0.9,0h-0.2v1.5h0.3c0.3,0,0.5,0,0.8,0s0.4,0,0.5-0.1c0.2-0.1,0.3-0.2,0.3-0.3    C13.4,280.2,13.4,280,13.4,279.9z M13.9,282.8c0-0.2,0-0.4-0.1-0.5c-0.1-0.1-0.2-0.2-0.5-0.3c-0.1,0-0.3-0.1-0.6-0.1s-0.5,0-0.8,0    h-0.4v1.8h0.1c0.5,0,0.9,0,1.1,0c0.2,0,0.4,0,0.6-0.1c0.2-0.1,0.3-0.2,0.4-0.3C13.8,283.2,13.9,283,13.9,282.8z"/>
		<path d="M20.4,284.5c-0.1,0.1-0.2,0.2-0.4,0.3c-0.1,0.1-0.3,0.2-0.4,0.2c-0.2,0.1-0.4,0.1-0.5,0.2c-0.2,0-0.4,0.1-0.6,0.1    c-0.5,0-1-0.2-1.3-0.5s-0.5-0.7-0.5-1.2c0-0.4,0.1-0.7,0.3-1c0.2-0.3,0.4-0.5,0.8-0.6c0.3-0.1,0.7-0.3,1.2-0.3    c0.5-0.1,1-0.1,1.5-0.1v0c0-0.3-0.1-0.5-0.4-0.6c-0.2-0.1-0.6-0.2-1.1-0.2c-0.3,0-0.6,0.1-0.9,0.2c-0.3,0.1-0.6,0.2-0.7,0.2h-0.2    v-1.3c0.2,0,0.5-0.1,0.9-0.2c0.4-0.1,0.8-0.1,1.3-0.1c1,0,1.7,0.2,2.2,0.5c0.4,0.3,0.7,0.8,0.7,1.4v3.7h-1.7V284.5z M20.4,283.6    v-1.1c-0.2,0-0.5,0-0.8,0.1c-0.3,0-0.5,0.1-0.6,0.1c-0.2,0.1-0.3,0.1-0.4,0.2s-0.1,0.2-0.1,0.4c0,0.1,0,0.2,0,0.3s0.1,0.1,0.1,0.2    c0.1,0.1,0.2,0.1,0.3,0.1c0.1,0,0.3,0,0.5,0c0.2,0,0.4,0,0.5-0.1C20.2,283.9,20.3,283.8,20.4,283.6z"/>
		<path d="M29.1,284.5c0,0.5-0.1,0.9-0.2,1.3s-0.4,0.6-0.6,0.8c-0.3,0.2-0.6,0.3-1,0.4c-0.4,0.1-0.8,0.1-1.3,0.1    c-0.4,0-0.8,0-1.1-0.1c-0.4,0-0.7-0.1-1-0.2v-1.4h0.2c0.2,0.1,0.5,0.2,0.8,0.2c0.3,0.1,0.6,0.1,0.8,0.1c0.3,0,0.6,0,0.8-0.1    c0.2-0.1,0.4-0.1,0.5-0.3c0.1-0.1,0.2-0.2,0.2-0.4c0-0.2,0.1-0.4,0.1-0.6v-0.1c-0.2,0.2-0.4,0.3-0.7,0.4s-0.5,0.2-0.9,0.2    c-0.8,0-1.4-0.2-1.8-0.7c-0.4-0.5-0.6-1.2-0.6-2.1c0-0.5,0.1-0.8,0.2-1.2c0.1-0.3,0.3-0.6,0.5-0.9c0.2-0.2,0.5-0.4,0.8-0.5    c0.3-0.1,0.6-0.2,1-0.2c0.3,0,0.6,0,0.8,0.1c0.2,0.1,0.5,0.2,0.7,0.3l0.1-0.2h1.7V284.5z M27.4,283.4v-2.5c-0.1,0-0.2-0.1-0.4-0.1    c-0.1,0-0.3,0-0.4,0c-0.5,0-0.8,0.1-1,0.4c-0.2,0.3-0.3,0.6-0.3,1.1c0,0.5,0.1,0.9,0.3,1.1c0.2,0.2,0.5,0.3,0.9,0.3    c0.2,0,0.3,0,0.5-0.1S27.2,283.4,27.4,283.4z"/>
		<path d="M36.2,282.7h-4c0,0.4,0.2,0.8,0.5,1c0.3,0.2,0.7,0.3,1.3,0.3c0.4,0,0.7-0.1,1.1-0.2c0.3-0.1,0.6-0.3,0.8-0.4h0.2v1.4    c-0.4,0.2-0.8,0.3-1.1,0.3s-0.7,0.1-1.2,0.1c-1.1,0-1.9-0.2-2.5-0.7s-0.9-1.2-0.9-2.1c0-0.9,0.3-1.6,0.8-2.2    c0.6-0.5,1.3-0.8,2.3-0.8c0.9,0,1.6,0.2,2,0.7c0.4,0.5,0.7,1.1,0.7,1.9V282.7z M34.5,281.6c0-0.4-0.1-0.6-0.3-0.8    c-0.2-0.2-0.4-0.3-0.8-0.3c-0.3,0-0.6,0.1-0.8,0.3c-0.2,0.2-0.3,0.5-0.4,0.8H34.5z"/>
		<path d="M42.2,283.3c0,0.6-0.3,1-0.8,1.4c-0.5,0.3-1.2,0.5-2.1,0.5c-0.5,0-0.9,0-1.3-0.1c-0.4-0.1-0.7-0.2-1-0.3v-1.4h0.2    c0.1,0.1,0.2,0.1,0.3,0.2c0.1,0.1,0.3,0.2,0.5,0.2c0.2,0.1,0.4,0.1,0.6,0.2c0.2,0.1,0.5,0.1,0.7,0.1c0.3,0,0.6,0,0.8-0.1    c0.2-0.1,0.2-0.2,0.2-0.3c0-0.1,0-0.2-0.1-0.3c-0.1-0.1-0.3-0.1-0.6-0.2c-0.1,0-0.3-0.1-0.5-0.1c-0.2,0-0.4-0.1-0.6-0.1    c-0.5-0.1-0.9-0.3-1.1-0.6c-0.2-0.3-0.4-0.6-0.4-1c0-0.5,0.2-1,0.7-1.3c0.5-0.4,1.2-0.5,2-0.5c0.4,0,0.8,0,1.2,0.1    c0.4,0.1,0.7,0.2,0.9,0.3v1.4h-0.2c-0.3-0.2-0.6-0.3-0.9-0.4c-0.3-0.1-0.7-0.2-1-0.2c-0.3,0-0.5,0-0.7,0.1    c-0.2,0.1-0.3,0.2-0.3,0.3c0,0.1,0,0.2,0.1,0.3s0.3,0.1,0.6,0.2c0.2,0,0.4,0.1,0.6,0.1c0.2,0,0.4,0.1,0.6,0.1    c0.5,0.1,0.8,0.3,1,0.6C42.1,282.6,42.2,283,42.2,283.3z"/>
	</g>
	<g>
		<path d="M11.8,87.6c0,0.4-0.1,0.7-0.2,0.9c-0.1,0.3-0.3,0.5-0.6,0.7c-0.3,0.2-0.6,0.4-0.9,0.5c-0.3,0.1-0.8,0.1-1.3,0.1H5.6v-7.3    h2.8c0.6,0,1,0,1.3,0.1c0.3,0,0.5,0.1,0.8,0.3c0.3,0.1,0.5,0.3,0.6,0.6c0.1,0.2,0.2,0.5,0.2,0.8c0,0.4-0.1,0.7-0.3,0.9    s-0.4,0.5-0.8,0.6v0c0.5,0.1,0.9,0.3,1.1,0.6C11.7,86.8,11.8,87.1,11.8,87.6z M9.4,84.6c0-0.1,0-0.2-0.1-0.4    C9.3,84.2,9.2,84.1,9,84c-0.1-0.1-0.3-0.1-0.5-0.1c-0.2,0-0.5,0-0.9,0H7.5v1.5h0.3c0.3,0,0.5,0,0.8,0c0.2,0,0.4,0,0.5-0.1    c0.2-0.1,0.3-0.2,0.3-0.3C9.4,84.9,9.4,84.8,9.4,84.6z M9.9,87.6c0-0.2,0-0.4-0.1-0.5c-0.1-0.1-0.2-0.2-0.5-0.3    c-0.1,0-0.3-0.1-0.6-0.1c-0.3,0-0.5,0-0.8,0H7.5v1.8h0.1c0.5,0,0.9,0,1.1,0c0.2,0,0.4,0,0.6-0.1c0.2-0.1,0.3-0.2,0.4-0.3    C9.9,87.9,9.9,87.8,9.9,87.6z"/>
		<path d="M18.5,87.4h-4c0,0.4,0.2,0.8,0.5,1c0.3,0.2,0.7,0.3,1.3,0.3c0.4,0,0.7-0.1,1.1-0.2c0.3-0.1,0.6-0.3,0.8-0.4h0.2v1.4    c-0.4,0.2-0.8,0.3-1.1,0.3C17,90,16.6,90,16.2,90c-1.1,0-1.9-0.2-2.5-0.7c-0.6-0.5-0.9-1.2-0.9-2.1c0-0.9,0.3-1.6,0.8-2.2    c0.6-0.5,1.3-0.8,2.3-0.8c0.9,0,1.6,0.2,2,0.7c0.4,0.5,0.7,1.1,0.7,1.9V87.4z M16.8,86.4c0-0.4-0.1-0.6-0.3-0.8    c-0.2-0.2-0.4-0.3-0.8-0.3c-0.3,0-0.6,0.1-0.8,0.3c-0.2,0.2-0.3,0.5-0.4,0.8H16.8z"/>
		<path d="M23.8,86h-0.2c-0.1,0-0.2,0-0.4-0.1c-0.2,0-0.3,0-0.4,0c-0.3,0-0.5,0-0.7,0c-0.2,0-0.4,0.1-0.6,0.2v3.7h-1.8v-5.5h1.8v0.8    c0.4-0.3,0.7-0.6,1-0.7c0.3-0.1,0.5-0.2,0.8-0.2c0.1,0,0.1,0,0.2,0c0.1,0,0.1,0,0.2,0V86z"/>
		<path d="M30.1,89.2c0,0.5-0.1,0.9-0.2,1.3s-0.4,0.6-0.6,0.8c-0.3,0.2-0.6,0.3-1,0.4c-0.4,0.1-0.8,0.1-1.3,0.1    c-0.4,0-0.8,0-1.1-0.1c-0.4,0-0.7-0.1-1-0.2v-1.4h0.2c0.2,0.1,0.5,0.2,0.8,0.2c0.3,0.1,0.6,0.1,0.8,0.1c0.3,0,0.6,0,0.8-0.1    c0.2-0.1,0.4-0.1,0.5-0.3c0.1-0.1,0.2-0.2,0.2-0.4c0-0.2,0.1-0.4,0.1-0.6v-0.1c-0.2,0.2-0.4,0.3-0.7,0.4c-0.3,0.1-0.5,0.2-0.9,0.2    c-0.8,0-1.4-0.2-1.8-0.7c-0.4-0.5-0.6-1.2-0.6-2.1c0-0.5,0.1-0.8,0.2-1.2c0.1-0.3,0.3-0.6,0.5-0.9c0.2-0.2,0.5-0.4,0.8-0.5    c0.3-0.1,0.6-0.2,1-0.2c0.3,0,0.6,0,0.8,0.1c0.2,0.1,0.5,0.2,0.7,0.3l0.1-0.2h1.7V89.2z M28.3,88.1v-2.5c-0.1,0-0.2-0.1-0.4-0.1    c-0.1,0-0.3,0-0.4,0c-0.5,0-0.8,0.1-1,0.4c-0.2,0.3-0.3,0.6-0.3,1.1c0,0.5,0.1,0.9,0.3,1.1c0.2,0.2,0.5,0.3,0.9,0.3    c0.2,0,0.3,0,0.5-0.1C28,88.3,28.2,88.2,28.3,88.1z"/>
		<path d="M37.2,89.9h-1.8v-0.6c-0.3,0.2-0.6,0.4-0.9,0.6c-0.3,0.1-0.6,0.2-1,0.2c-0.6,0-1.1-0.2-1.4-0.5c-0.3-0.3-0.5-0.9-0.5-1.5    v-3.6h1.8v2.7c0,0.3,0,0.5,0,0.7c0,0.2,0.1,0.3,0.1,0.5c0.1,0.1,0.2,0.2,0.3,0.3c0.1,0.1,0.3,0.1,0.5,0.1c0.1,0,0.3,0,0.5-0.1    c0.2-0.1,0.4-0.1,0.5-0.2v-3.9h1.8V89.9z"/>
		<path d="M44.3,87.4h-4c0,0.4,0.2,0.8,0.5,1c0.3,0.2,0.7,0.3,1.3,0.3c0.4,0,0.7-0.1,1.1-0.2c0.3-0.1,0.6-0.3,0.8-0.4h0.2v1.4    c-0.4,0.2-0.8,0.3-1.1,0.3C42.7,90,42.3,90,41.9,90c-1.1,0-1.9-0.2-2.5-0.7c-0.6-0.5-0.9-1.2-0.9-2.1c0-0.9,0.3-1.6,0.8-2.2    c0.6-0.5,1.3-0.8,2.3-0.8c0.9,0,1.6,0.2,2,0.7c0.4,0.5,0.7,1.1,0.7,1.9V87.4z M42.5,86.4c0-0.4-0.1-0.6-0.3-0.8    c-0.2-0.2-0.4-0.3-0.8-0.3c-0.3,0-0.6,0.1-0.8,0.3c-0.2,0.2-0.3,0.5-0.4,0.8H42.5z"/>
		<path d="M50.8,89.9h-1.8v-0.6c-0.3,0.2-0.6,0.4-0.8,0.5S47.7,90,47.3,90c-0.7,0-1.2-0.3-1.6-0.8c-0.4-0.5-0.6-1.2-0.6-2.1    c0-0.5,0.1-0.9,0.2-1.2c0.1-0.4,0.3-0.7,0.6-0.9c0.2-0.2,0.5-0.4,0.8-0.6c0.3-0.1,0.6-0.2,0.9-0.2c0.3,0,0.6,0,0.8,0.1    c0.2,0.1,0.4,0.2,0.6,0.3v-2.3h1.8V89.9z M49.1,88.3v-2.7c-0.1-0.1-0.3-0.1-0.4-0.1c-0.1,0-0.3,0-0.4,0c-0.5,0-0.8,0.1-1,0.4    s-0.3,0.7-0.3,1.2c0,0.5,0.1,0.9,0.3,1.2c0.2,0.2,0.5,0.4,0.9,0.4c0.2,0,0.3,0,0.5-0.1S48.9,88.4,49.1,88.3z"/>
		<path d="M55.8,89.3c-0.1,0.1-0.2,0.2-0.4,0.3c-0.1,0.1-0.3,0.2-0.4,0.2c-0.2,0.1-0.4,0.1-0.5,0.2c-0.2,0-0.4,0.1-0.6,0.1    c-0.5,0-1-0.2-1.3-0.5s-0.5-0.7-0.5-1.2c0-0.4,0.1-0.7,0.3-1s0.4-0.5,0.8-0.6c0.3-0.1,0.7-0.3,1.2-0.3c0.5-0.1,1-0.1,1.5-0.1v0    c0-0.3-0.1-0.5-0.4-0.6c-0.2-0.1-0.6-0.2-1.1-0.2c-0.3,0-0.6,0.1-0.9,0.2s-0.6,0.2-0.7,0.2h-0.2v-1.3c0.2,0,0.5-0.1,0.9-0.2    c0.4-0.1,0.8-0.1,1.3-0.1c1,0,1.7,0.2,2.2,0.5s0.7,0.8,0.7,1.4v3.7h-1.7V89.3z M56.2,83.6H55l-1.7-1.8v-0.1H55L56.2,83.6z     M55.8,88.4v-1.1c-0.2,0-0.5,0-0.8,0.1s-0.5,0.1-0.6,0.1c-0.2,0.1-0.3,0.1-0.4,0.2c-0.1,0.1-0.1,0.2-0.1,0.4c0,0.1,0,0.2,0,0.3    s0.1,0.1,0.1,0.2c0.1,0.1,0.2,0.1,0.3,0.1s0.3,0,0.5,0c0.2,0,0.4,0,0.5-0.1S55.7,88.5,55.8,88.4z"/>
	</g>
	<g>
		<path d="M95.5,400h-1.9v-4.9l-1.3,3.2H91l-1.3-3.2v4.9h-1.8v-7.3H90l1.6,3.6l1.6-3.6h2.2V400z"/>
		<path d="M102.8,397.3c0,0.9-0.3,1.6-0.8,2.1c-0.5,0.5-1.3,0.8-2.2,0.8s-1.7-0.3-2.2-0.8c-0.5-0.5-0.8-1.2-0.8-2.1    c0-0.9,0.3-1.6,0.8-2.1s1.3-0.8,2.2-0.8c1,0,1.7,0.3,2.2,0.8S102.8,396.4,102.8,397.3z M100.7,398.6c0.1-0.1,0.2-0.3,0.3-0.5    c0.1-0.2,0.1-0.5,0.1-0.8c0-0.3,0-0.6-0.1-0.8s-0.1-0.4-0.2-0.5c-0.1-0.1-0.2-0.2-0.4-0.3s-0.3-0.1-0.5-0.1s-0.3,0-0.5,0.1    s-0.3,0.1-0.4,0.3c-0.1,0.1-0.2,0.3-0.3,0.5s-0.1,0.5-0.1,0.8c0,0.3,0,0.6,0.1,0.8c0.1,0.2,0.1,0.4,0.2,0.5    c0.1,0.1,0.2,0.2,0.4,0.3s0.3,0.1,0.5,0.1c0.2,0,0.3,0,0.5-0.1C100.5,398.8,100.6,398.7,100.7,398.6z"/>
		<path d="M105.9,393.7h-1.9v-1.3h1.9V393.7z M105.9,400h-1.8v-5.5h1.8V400z"/>
		<path d="M110.8,399.4c-0.1,0.1-0.2,0.2-0.4,0.3s-0.3,0.2-0.4,0.2c-0.2,0.1-0.4,0.1-0.5,0.2c-0.2,0-0.4,0.1-0.6,0.1    c-0.5,0-1-0.2-1.3-0.5s-0.5-0.7-0.5-1.2c0-0.4,0.1-0.7,0.3-1s0.4-0.5,0.8-0.6c0.3-0.1,0.7-0.3,1.2-0.3s1-0.1,1.5-0.1v0    c0-0.3-0.1-0.5-0.4-0.6c-0.2-0.1-0.6-0.2-1.1-0.2c-0.3,0-0.6,0.1-0.9,0.2c-0.3,0.1-0.6,0.2-0.7,0.2h-0.2v-1.3    c0.2,0,0.5-0.1,0.9-0.2c0.4-0.1,0.8-0.1,1.3-0.1c1,0,1.7,0.2,2.2,0.5c0.4,0.3,0.7,0.8,0.7,1.4v3.7h-1.7V399.4z M110.8,398.6v-1.1    c-0.2,0-0.5,0-0.8,0.1s-0.5,0.1-0.6,0.1c-0.2,0.1-0.3,0.1-0.4,0.2s-0.1,0.2-0.1,0.4c0,0.1,0,0.2,0,0.3s0.1,0.1,0.1,0.2    c0.1,0.1,0.2,0.1,0.3,0.1c0.1,0,0.3,0,0.5,0c0.2,0,0.4,0,0.5-0.1C110.5,398.8,110.7,398.7,110.8,398.6z"/>
		<path d="M119.7,400h-1.8v-2.7c0-0.2,0-0.4,0-0.7c0-0.2-0.1-0.4-0.1-0.5c-0.1-0.1-0.2-0.2-0.3-0.3s-0.3-0.1-0.5-0.1    c-0.2,0-0.3,0-0.5,0.1s-0.3,0.1-0.5,0.2v3.9h-1.8v-5.5h1.8v0.6c0.3-0.2,0.6-0.4,0.9-0.6c0.3-0.1,0.6-0.2,1-0.2    c0.6,0,1.1,0.2,1.4,0.5c0.3,0.3,0.5,0.9,0.5,1.5V400z"/>
		<path d="M126.7,397.6h-4c0,0.4,0.2,0.8,0.5,1s0.7,0.3,1.3,0.3c0.4,0,0.7-0.1,1.1-0.2s0.6-0.3,0.8-0.4h0.2v1.4    c-0.4,0.2-0.8,0.3-1.1,0.3s-0.7,0.1-1.2,0.1c-1.1,0-1.9-0.2-2.5-0.7s-0.9-1.2-0.9-2.1c0-0.9,0.3-1.6,0.8-2.2    c0.6-0.5,1.3-0.8,2.3-0.8c0.9,0,1.6,0.2,2,0.7c0.4,0.5,0.7,1.1,0.7,1.9V397.6z M125.1,393.7h-1.2l-1.7-1.8v-0.1h1.7L125.1,393.7z     M125,396.6c0-0.4-0.1-0.6-0.3-0.8s-0.4-0.3-0.8-0.3c-0.3,0-0.6,0.1-0.8,0.3s-0.3,0.5-0.4,0.8H125z"/>
		<path d="M132.7,398.3c0,0.6-0.3,1-0.8,1.4c-0.5,0.3-1.2,0.5-2.1,0.5c-0.5,0-0.9,0-1.3-0.1s-0.7-0.2-1-0.3v-1.4h0.2    c0.1,0.1,0.2,0.1,0.3,0.2c0.1,0.1,0.3,0.2,0.5,0.2c0.2,0.1,0.4,0.1,0.6,0.2c0.2,0.1,0.5,0.1,0.7,0.1c0.3,0,0.6,0,0.8-0.1    c0.2-0.1,0.2-0.2,0.2-0.3c0-0.1,0-0.2-0.1-0.3c-0.1-0.1-0.3-0.1-0.6-0.2c-0.1,0-0.3-0.1-0.5-0.1c-0.2,0-0.4-0.1-0.6-0.1    c-0.5-0.1-0.9-0.3-1.1-0.6c-0.2-0.3-0.4-0.6-0.4-1c0-0.5,0.3-1,0.7-1.3c0.5-0.4,1.2-0.5,2-0.5c0.4,0,0.8,0,1.2,0.1    c0.4,0.1,0.7,0.2,0.9,0.3v1.4h-0.2c-0.3-0.2-0.6-0.3-0.9-0.4c-0.3-0.1-0.7-0.2-1-0.2c-0.3,0-0.5,0-0.7,0.1s-0.3,0.2-0.3,0.3    c0,0.1,0,0.2,0.1,0.3s0.3,0.1,0.6,0.2c0.2,0,0.4,0.1,0.6,0.1c0.2,0,0.4,0.1,0.6,0.1c0.5,0.1,0.8,0.3,1,0.6    C132.6,397.6,132.7,397.9,132.7,398.3z"/>
	</g>
</g>
<g id="text_x005F_municipi">
	<g style="display:none;">
		<path style="display:inline;" d="M107.7,133.6c0.3,0.3,0.5,0.7,0.7,1.2c0.2,0.5,0.2,1,0.2,1.6s-0.1,1.1-0.2,1.6s-0.4,0.9-0.7,1.2    c-0.3,0.3-0.7,0.6-1.1,0.7c-0.4,0.2-0.9,0.2-1.4,0.2c-0.5,0-1-0.1-1.4-0.3c-0.4-0.2-0.8-0.4-1.1-0.7s-0.5-0.7-0.7-1.2    s-0.2-1-0.2-1.6c0-0.6,0.1-1.1,0.2-1.6s0.4-0.9,0.7-1.2c0.3-0.3,0.6-0.6,1.1-0.7s0.9-0.3,1.4-0.3c0.5,0,1,0.1,1.4,0.3    S107.4,133.2,107.7,133.6z M107.6,136.4c0-0.9-0.2-1.7-0.6-2.2c-0.4-0.5-1-0.8-1.7-0.8c-0.7,0-1.3,0.3-1.7,0.8    c-0.4,0.5-0.6,1.2-0.6,2.2c0,1,0.2,1.7,0.6,2.2s1,0.8,1.7,0.8s1.3-0.3,1.7-0.8C107.4,138,107.6,137.3,107.6,136.4z"/>
		<path style="display:inline;" d="M113.6,137.5c0.2,0.2,0.3,0.6,0.3,1c0,0.5-0.2,0.9-0.6,1.2c-0.4,0.3-1,0.5-1.7,0.5    c-0.4,0-0.8,0-1.1-0.1s-0.6-0.2-0.8-0.3v-1h0c0.3,0.2,0.6,0.4,1,0.5c0.4,0.1,0.7,0.2,1,0.2c0.4,0,0.7-0.1,0.9-0.2    c0.2-0.1,0.3-0.3,0.3-0.6c0-0.2-0.1-0.4-0.2-0.5c-0.1-0.1-0.4-0.2-0.7-0.3c-0.1,0-0.3-0.1-0.5-0.1s-0.4-0.1-0.6-0.1    c-0.5-0.1-0.8-0.3-1-0.6s-0.3-0.5-0.3-0.9c0-0.2,0-0.4,0.1-0.6s0.2-0.4,0.4-0.5c0.2-0.2,0.4-0.3,0.7-0.4c0.3-0.1,0.6-0.1,0.9-0.1    c0.3,0,0.7,0,1,0.1c0.3,0.1,0.6,0.2,0.8,0.3v1h0c-0.2-0.2-0.5-0.3-0.9-0.4c-0.3-0.1-0.7-0.2-1-0.2c-0.3,0-0.6,0.1-0.8,0.2    c-0.2,0.1-0.3,0.3-0.3,0.6c0,0.2,0.1,0.4,0.2,0.5c0.1,0.1,0.4,0.2,0.7,0.3c0.2,0,0.4,0.1,0.6,0.1s0.4,0.1,0.5,0.1    C113.1,137.1,113.4,137.2,113.6,137.5L113.6,137.5z"/>
		<path style="display:inline;" d="M120,137.3c0,0.9-0.2,1.6-0.7,2.1s-1.1,0.8-1.8,0.8c-0.8,0-1.4-0.3-1.8-0.8s-0.7-1.2-0.7-2.1    s0.2-1.6,0.7-2.1s1.1-0.8,1.8-0.8c0.8,0,1.4,0.3,1.8,0.8S120,136.4,120,137.3z M119,137.3c0-0.7-0.1-1.2-0.4-1.6s-0.7-0.5-1.2-0.5    c-0.5,0-0.9,0.2-1.2,0.5s-0.4,0.9-0.4,1.6c0,0.7,0.1,1.2,0.4,1.6s0.7,0.5,1.2,0.5c0.5,0,0.9-0.2,1.1-0.5S119,138,119,137.3z"/>
		<path style="display:inline;" d="M125.9,140H125v-3.1c0-0.3,0-0.5,0-0.7s-0.1-0.4-0.2-0.5c-0.1-0.1-0.2-0.2-0.4-0.3    s-0.4-0.1-0.6-0.1c-0.3,0-0.5,0.1-0.8,0.2s-0.5,0.3-0.8,0.5v4.1h-0.9v-5.5h0.9v0.6c0.3-0.2,0.6-0.4,0.9-0.6s0.6-0.2,0.9-0.2    c0.6,0,1,0.2,1.3,0.5s0.5,0.9,0.5,1.5V140z"/>
		<path style="display:inline;" d="M131.9,140H131v-0.6c-0.1,0.1-0.2,0.1-0.3,0.2c-0.1,0.1-0.3,0.2-0.4,0.2    c-0.2,0.1-0.3,0.1-0.5,0.2c-0.2,0.1-0.4,0.1-0.7,0.1c-0.5,0-0.9-0.2-1.3-0.5s-0.5-0.7-0.5-1.2c0-0.4,0.1-0.7,0.3-1    c0.2-0.3,0.4-0.5,0.8-0.6c0.3-0.1,0.7-0.2,1.2-0.3c0.5-0.1,1-0.1,1.5-0.1v-0.1c0-0.2,0-0.4-0.1-0.5s-0.2-0.2-0.3-0.3    c-0.1-0.1-0.3-0.1-0.5-0.2c-0.2,0-0.4,0-0.6,0c-0.2,0-0.5,0-0.8,0.1c-0.3,0.1-0.6,0.2-0.9,0.3h0v-0.9c0.2,0,0.4-0.1,0.8-0.2    c0.3-0.1,0.7-0.1,1-0.1c0.4,0,0.7,0,1,0.1c0.3,0.1,0.5,0.2,0.7,0.3c0.2,0.1,0.4,0.3,0.5,0.6s0.2,0.5,0.2,0.9V140z M131,138.6v-1.5    c-0.3,0-0.6,0-1,0.1c-0.4,0-0.7,0.1-0.9,0.1c-0.3,0.1-0.5,0.2-0.6,0.3c-0.2,0.2-0.2,0.4-0.2,0.7c0,0.3,0.1,0.5,0.3,0.7    c0.2,0.2,0.5,0.2,0.9,0.2c0.3,0,0.6-0.1,0.9-0.2C130.6,139,130.8,138.8,131,138.6z"/>
		<path style="display:inline;" d="M142.9,140h-1.2l-3.4-6.5v6.5h-0.9v-7.3h1.5l3.1,5.9v-5.9h0.9V140z"/>
		<path style="display:inline;" d="M149.4,137.3c0,0.9-0.2,1.6-0.7,2.1c-0.5,0.5-1.1,0.8-1.8,0.8c-0.8,0-1.4-0.3-1.8-0.8    s-0.7-1.2-0.7-2.1s0.2-1.6,0.7-2.1s1.1-0.8,1.8-0.8c0.8,0,1.4,0.3,1.8,0.8C149.1,135.7,149.4,136.4,149.4,137.3z M148.4,137.3    c0-0.7-0.1-1.2-0.4-1.6c-0.3-0.3-0.7-0.5-1.2-0.5c-0.5,0-0.9,0.2-1.2,0.5c-0.3,0.3-0.4,0.9-0.4,1.6c0,0.7,0.1,1.2,0.4,1.6    c0.3,0.4,0.7,0.5,1.2,0.5c0.5,0,0.9-0.2,1.1-0.5S148.4,138,148.4,137.3z"/>
		<path style="display:inline;" d="M154.2,135.5L154.2,135.5c-0.2,0-0.3-0.1-0.4-0.1c-0.1,0-0.3,0-0.5,0c-0.3,0-0.6,0.1-0.8,0.2    s-0.5,0.3-0.8,0.5v3.9h-0.9v-5.5h0.9v0.8c0.4-0.3,0.7-0.5,1-0.6s0.6-0.2,0.9-0.2c0.2,0,0.3,0,0.3,0c0.1,0,0.2,0,0.3,0V135.5z"/>
		<path style="display:inline;" d="M159.5,140h-0.9v-0.6c-0.3,0.2-0.5,0.4-0.8,0.5c-0.3,0.1-0.6,0.2-0.9,0.2c-0.7,0-1.2-0.3-1.6-0.8    c-0.4-0.5-0.6-1.2-0.6-2.1c0-0.5,0.1-0.9,0.2-1.2s0.3-0.7,0.5-0.9c0.2-0.2,0.5-0.4,0.8-0.6c0.3-0.1,0.6-0.2,0.9-0.2    c0.3,0,0.5,0,0.8,0.1c0.2,0.1,0.5,0.2,0.7,0.3v-2.4h0.9V140z M158.6,138.6v-3.1c-0.2-0.1-0.5-0.2-0.7-0.2s-0.4-0.1-0.6-0.1    c-0.5,0-0.9,0.2-1.2,0.5c-0.3,0.4-0.4,0.9-0.4,1.5c0,0.6,0.1,1.1,0.3,1.5c0.2,0.3,0.6,0.5,1.1,0.5c0.3,0,0.5-0.1,0.8-0.2    C158.1,139,158.3,138.8,158.6,138.6z"/>
		<path style="display:inline;" d="M164.2,137.3h-3v-0.9h3V137.3z"/>
		<path style="display:inline;" d="M170.5,137.3c0,0.9-0.2,1.6-0.7,2.1c-0.5,0.5-1.1,0.8-1.8,0.8c-0.8,0-1.4-0.3-1.8-0.8    s-0.7-1.2-0.7-2.1s0.2-1.6,0.7-2.1s1.1-0.8,1.8-0.8c0.8,0,1.4,0.3,1.8,0.8C170.2,135.7,170.5,136.4,170.5,137.3z M169.5,137.3    c0-0.7-0.1-1.2-0.4-1.6c-0.3-0.3-0.7-0.5-1.2-0.5c-0.5,0-0.9,0.2-1.2,0.5c-0.3,0.3-0.4,0.9-0.4,1.6c0,0.7,0.1,1.2,0.4,1.6    c0.3,0.4,0.7,0.5,1.2,0.5c0.5,0,0.9-0.2,1.1-0.5S169.5,138,169.5,137.3z"/>
		<path style="display:inline;" d="M176.5,137.4h-4c0,0.3,0.1,0.6,0.2,0.9c0.1,0.2,0.2,0.5,0.4,0.6c0.2,0.2,0.4,0.3,0.6,0.4    c0.2,0.1,0.5,0.1,0.8,0.1c0.4,0,0.7-0.1,1.1-0.2s0.6-0.3,0.8-0.4h0v1c-0.3,0.1-0.6,0.2-0.9,0.3s-0.7,0.1-1,0.1    c-0.9,0-1.6-0.2-2.1-0.7s-0.8-1.2-0.8-2.1c0-0.9,0.2-1.6,0.7-2.1c0.5-0.5,1.1-0.8,1.9-0.8c0.7,0,1.3,0.2,1.7,0.6    c0.4,0.4,0.6,1,0.6,1.8V137.4z M175.6,136.7c0-0.5-0.1-0.9-0.4-1.1s-0.6-0.4-1.1-0.4c-0.5,0-0.9,0.1-1.2,0.4    c-0.3,0.3-0.5,0.6-0.5,1.1H175.6z"/>
		<path style="display:inline;" d="M181.4,137.5c0.2,0.2,0.3,0.6,0.3,1c0,0.5-0.2,0.9-0.6,1.2c-0.4,0.3-1,0.5-1.7,0.5    c-0.4,0-0.8,0-1.1-0.1c-0.3-0.1-0.6-0.2-0.8-0.3v-1h0c0.3,0.2,0.6,0.4,1,0.5c0.4,0.1,0.7,0.2,1,0.2c0.4,0,0.7-0.1,0.9-0.2    c0.2-0.1,0.3-0.3,0.3-0.6c0-0.2-0.1-0.4-0.2-0.5c-0.1-0.1-0.4-0.2-0.7-0.3c-0.1,0-0.3-0.1-0.5-0.1s-0.4-0.1-0.6-0.1    c-0.5-0.1-0.8-0.3-1-0.6s-0.3-0.5-0.3-0.9c0-0.2,0-0.4,0.1-0.6s0.2-0.4,0.4-0.5c0.2-0.2,0.4-0.3,0.7-0.4c0.3-0.1,0.6-0.1,0.9-0.1    c0.3,0,0.7,0,1,0.1c0.3,0.1,0.6,0.2,0.8,0.3v1h0c-0.2-0.2-0.5-0.3-0.9-0.4c-0.3-0.1-0.7-0.2-1-0.2c-0.3,0-0.6,0.1-0.8,0.2    c-0.2,0.1-0.3,0.3-0.3,0.6c0,0.2,0.1,0.4,0.2,0.5c0.1,0.1,0.4,0.2,0.7,0.3c0.2,0,0.4,0.1,0.6,0.1s0.4,0.1,0.5,0.1    C180.8,137.1,181.2,137.2,181.4,137.5L181.4,137.5z"/>
		<path style="display:inline;" d="M185.9,139.9c-0.2,0-0.4,0.1-0.6,0.1s-0.4,0-0.5,0c-0.6,0-1-0.1-1.3-0.4    c-0.3-0.3-0.4-0.8-0.4-1.4v-2.9h-0.6v-0.8h0.6V133h0.9v1.6h1.9v0.8H184v2.5c0,0.3,0,0.5,0,0.7c0,0.2,0.1,0.3,0.1,0.5    c0.1,0.1,0.2,0.2,0.3,0.3c0.1,0.1,0.3,0.1,0.6,0.1c0.1,0,0.3,0,0.5-0.1c0.2,0,0.3-0.1,0.4-0.1h0V139.9z"/>
	</g>
	<g style="display:none;">
		<path style="display:inline;" d="M195.6,310.9c0.3,0.3,0.5,0.7,0.7,1.2c0.2,0.5,0.2,1,0.2,1.6s-0.1,1.1-0.2,1.6s-0.4,0.9-0.7,1.2    c-0.3,0.3-0.7,0.6-1.1,0.7c-0.4,0.2-0.9,0.2-1.4,0.2c-0.5,0-1-0.1-1.4-0.3s-0.8-0.4-1.1-0.7s-0.5-0.7-0.7-1.2s-0.2-1-0.2-1.6    c0-0.6,0.1-1.1,0.2-1.6c0.2-0.5,0.4-0.9,0.7-1.2c0.3-0.3,0.6-0.6,1.1-0.7s0.9-0.3,1.4-0.3c0.5,0,1,0.1,1.4,0.3    S195.3,310.6,195.6,310.9z M195.5,313.7c0-0.9-0.2-1.7-0.6-2.2c-0.4-0.5-1-0.8-1.7-0.8c-0.7,0-1.3,0.3-1.7,0.8s-0.6,1.2-0.6,2.2    c0,1,0.2,1.7,0.6,2.2c0.4,0.5,1,0.8,1.7,0.8s1.3-0.3,1.7-0.8C195.3,315.4,195.5,314.7,195.5,313.7z"/>
		<path style="display:inline;" d="M201.6,314.8c0.2,0.2,0.3,0.6,0.3,1c0,0.5-0.2,0.9-0.6,1.2c-0.4,0.3-1,0.5-1.7,0.5    c-0.4,0-0.8,0-1.1-0.1c-0.3-0.1-0.6-0.2-0.8-0.3v-1h0c0.3,0.2,0.6,0.4,1,0.5c0.4,0.1,0.7,0.2,1,0.2c0.4,0,0.7-0.1,0.9-0.2    c0.2-0.1,0.3-0.3,0.3-0.6c0-0.2-0.1-0.4-0.2-0.5c-0.1-0.1-0.4-0.2-0.7-0.3c-0.1,0-0.3-0.1-0.5-0.1s-0.4-0.1-0.6-0.1    c-0.5-0.1-0.8-0.3-1-0.6c-0.2-0.2-0.3-0.5-0.3-0.9c0-0.2,0-0.4,0.1-0.6s0.2-0.4,0.4-0.5c0.2-0.2,0.4-0.3,0.7-0.4    c0.3-0.1,0.6-0.1,0.9-0.1c0.3,0,0.7,0,1,0.1c0.3,0.1,0.6,0.2,0.8,0.3v1h0c-0.2-0.2-0.5-0.3-0.9-0.4c-0.3-0.1-0.7-0.2-1-0.2    c-0.3,0-0.6,0.1-0.8,0.2c-0.2,0.1-0.3,0.3-0.3,0.6c0,0.2,0.1,0.4,0.2,0.5c0.1,0.1,0.4,0.2,0.7,0.3c0.2,0,0.4,0.1,0.6,0.1    s0.4,0.1,0.5,0.1C201,314.4,201.3,314.6,201.6,314.8L201.6,314.8z"/>
		<path style="display:inline;" d="M207.9,314.6c0,0.9-0.2,1.6-0.7,2.1s-1.1,0.8-1.8,0.8c-0.8,0-1.4-0.3-1.8-0.8s-0.7-1.2-0.7-2.1    s0.2-1.6,0.7-2.1c0.5-0.5,1.1-0.8,1.8-0.8c0.8,0,1.4,0.3,1.8,0.8C207.6,313.1,207.9,313.8,207.9,314.6z M206.9,314.6    c0-0.7-0.1-1.2-0.4-1.6c-0.3-0.3-0.7-0.5-1.2-0.5c-0.5,0-0.9,0.2-1.2,0.5c-0.3,0.3-0.4,0.9-0.4,1.6c0,0.7,0.1,1.2,0.4,1.6    c0.3,0.4,0.7,0.5,1.2,0.5c0.5,0,0.9-0.2,1.1-0.5C206.8,315.9,206.9,315.3,206.9,314.6z"/>
		<path style="display:inline;" d="M213.8,317.4h-0.9v-3.1c0-0.3,0-0.5,0-0.7s-0.1-0.4-0.2-0.5c-0.1-0.1-0.2-0.2-0.4-0.3    c-0.2-0.1-0.4-0.1-0.6-0.1c-0.3,0-0.5,0.1-0.8,0.2s-0.5,0.3-0.8,0.5v4.1h-0.9v-5.5h0.9v0.6c0.3-0.2,0.6-0.4,0.9-0.6    c0.3-0.1,0.6-0.2,0.9-0.2c0.6,0,1,0.2,1.3,0.5s0.5,0.9,0.5,1.5V317.4z"/>
		<path style="display:inline;" d="M219.9,317.4h-0.9v-0.6c-0.1,0.1-0.2,0.1-0.3,0.2c-0.1,0.1-0.3,0.2-0.4,0.2    c-0.2,0.1-0.3,0.1-0.5,0.2c-0.2,0-0.4,0.1-0.7,0.1c-0.5,0-0.9-0.2-1.3-0.5s-0.5-0.7-0.5-1.2c0-0.4,0.1-0.7,0.3-1    c0.2-0.3,0.4-0.5,0.8-0.6c0.3-0.1,0.7-0.2,1.2-0.3c0.5-0.1,1-0.1,1.5-0.1v-0.1c0-0.2,0-0.4-0.1-0.5s-0.2-0.2-0.3-0.3    c-0.1-0.1-0.3-0.1-0.5-0.2c-0.2,0-0.4,0-0.6,0c-0.2,0-0.5,0-0.8,0.1c-0.3,0.1-0.6,0.2-0.9,0.3h0V312c0.2,0,0.4-0.1,0.8-0.2    c0.3-0.1,0.7-0.1,1-0.1c0.4,0,0.7,0,1,0.1c0.3,0.1,0.5,0.2,0.7,0.3c0.2,0.1,0.4,0.3,0.5,0.6s0.2,0.5,0.2,0.9V317.4z M218.9,316    v-1.5c-0.3,0-0.6,0-1,0.1c-0.4,0-0.7,0.1-0.9,0.1c-0.3,0.1-0.5,0.2-0.6,0.3c-0.2,0.2-0.2,0.4-0.2,0.7c0,0.3,0.1,0.5,0.3,0.7    c0.2,0.2,0.5,0.2,0.9,0.2c0.3,0,0.6-0.1,0.9-0.2C218.5,316.4,218.7,316.2,218.9,316z"/>
		<path style="display:inline;" d="M230.5,315.3c0,0.3-0.1,0.6-0.2,0.8s-0.3,0.5-0.6,0.7c-0.3,0.2-0.6,0.4-0.9,0.5s-0.8,0.2-1.3,0.2    c-0.5,0-1,0-1.4-0.1c-0.4-0.1-0.8-0.2-1.3-0.4v-1.2h0.1c0.4,0.3,0.8,0.5,1.3,0.7c0.5,0.2,0.9,0.2,1.4,0.2c0.6,0,1.1-0.1,1.4-0.3    c0.3-0.2,0.5-0.5,0.5-0.9c0-0.3-0.1-0.6-0.2-0.7c-0.2-0.2-0.4-0.3-0.7-0.4c-0.2-0.1-0.5-0.1-0.8-0.2s-0.6-0.1-0.9-0.2    c-0.6-0.1-1.1-0.4-1.4-0.7c-0.3-0.3-0.5-0.8-0.5-1.3c0-0.6,0.3-1.1,0.8-1.5c0.5-0.4,1.2-0.6,2-0.6c0.5,0,1,0,1.4,0.1    c0.4,0.1,0.8,0.2,1.1,0.4v1.1h-0.1c-0.3-0.2-0.6-0.4-1.1-0.6c-0.5-0.2-0.9-0.2-1.4-0.2c-0.5,0-0.9,0.1-1.2,0.3s-0.5,0.5-0.5,0.8    c0,0.3,0.1,0.5,0.2,0.7s0.4,0.3,0.8,0.4c0.2,0,0.5,0.1,0.9,0.2c0.4,0.1,0.7,0.1,1,0.2c0.5,0.1,0.9,0.4,1.2,0.6    S230.5,314.8,230.5,315.3z"/>
		<path style="display:inline;" d="M236.5,317.4h-0.9v-0.6c-0.3,0.2-0.6,0.4-0.9,0.6s-0.6,0.2-0.9,0.2c-0.6,0-1-0.2-1.3-0.5    c-0.3-0.4-0.5-0.9-0.5-1.5v-3.5h0.9v3.1c0,0.3,0,0.5,0,0.7c0,0.2,0.1,0.4,0.2,0.5c0.1,0.1,0.2,0.2,0.3,0.3    c0.1,0.1,0.3,0.1,0.6,0.1c0.2,0,0.5-0.1,0.8-0.2s0.5-0.3,0.8-0.5v-4.1h0.9V317.4z"/>
		<path style="display:inline;" d="M242.7,317.4h-0.9v-0.6c-0.3,0.2-0.5,0.4-0.8,0.5s-0.6,0.2-0.9,0.2c-0.7,0-1.2-0.3-1.5-0.8    c-0.4-0.5-0.6-1.2-0.6-2.1c0-0.5,0.1-0.9,0.2-1.2s0.3-0.7,0.5-0.9c0.2-0.2,0.5-0.4,0.8-0.6c0.3-0.1,0.6-0.2,0.9-0.2    c0.3,0,0.5,0,0.8,0.1c0.2,0.1,0.5,0.2,0.7,0.3v-2.4h0.9V317.4z M241.8,316v-3.1c-0.2-0.1-0.5-0.2-0.7-0.2s-0.4-0.1-0.6-0.1    c-0.5,0-0.9,0.2-1.2,0.5c-0.3,0.4-0.4,0.9-0.4,1.5c0,0.6,0.1,1.1,0.3,1.5c0.2,0.3,0.6,0.5,1.1,0.5c0.3,0,0.5-0.1,0.8-0.2    C241.3,316.4,241.6,316.2,241.8,316z"/>
	</g>
	<g style="display:none;">
		<path style="display:inline;" d="M286,148.1c0.3,0.3,0.5,0.7,0.7,1.2c0.2,0.5,0.2,1,0.2,1.6s-0.1,1.1-0.2,1.6s-0.4,0.9-0.7,1.2    c-0.3,0.3-0.7,0.6-1.1,0.7c-0.4,0.2-0.9,0.2-1.4,0.2c-0.5,0-1-0.1-1.4-0.3c-0.4-0.2-0.8-0.4-1.1-0.7s-0.5-0.7-0.7-1.2    c-0.2-0.5-0.2-1-0.2-1.6c0-0.6,0.1-1.1,0.2-1.6c0.2-0.5,0.4-0.9,0.7-1.2c0.3-0.3,0.6-0.6,1.1-0.7s0.9-0.3,1.4-0.3    c0.5,0,1,0.1,1.4,0.3S285.7,147.8,286,148.1z M285.9,150.9c0-0.9-0.2-1.7-0.6-2.2s-1-0.8-1.7-0.8c-0.7,0-1.3,0.3-1.7,0.8    c-0.4,0.5-0.6,1.2-0.6,2.2c0,1,0.2,1.7,0.6,2.2c0.4,0.5,1,0.8,1.7,0.8s1.3-0.3,1.7-0.8C285.7,152.6,285.9,151.8,285.9,150.9z"/>
		<path style="display:inline;" d="M291.9,152c0.2,0.2,0.3,0.6,0.3,1c0,0.5-0.2,0.9-0.6,1.2s-1,0.5-1.7,0.5c-0.4,0-0.8,0-1.1-0.1    c-0.3-0.1-0.6-0.2-0.8-0.3v-1h0c0.3,0.2,0.6,0.4,1,0.5c0.4,0.1,0.7,0.2,1,0.2c0.4,0,0.7-0.1,0.9-0.2c0.2-0.1,0.3-0.3,0.3-0.6    c0-0.2-0.1-0.4-0.2-0.5c-0.1-0.1-0.4-0.2-0.7-0.3c-0.1,0-0.3-0.1-0.5-0.1s-0.4-0.1-0.6-0.1c-0.5-0.1-0.8-0.3-1-0.6    c-0.2-0.2-0.3-0.5-0.3-0.9c0-0.2,0-0.4,0.1-0.6s0.2-0.4,0.4-0.5c0.2-0.2,0.4-0.3,0.7-0.4c0.3-0.1,0.6-0.1,0.9-0.1    c0.3,0,0.7,0,1,0.1c0.3,0.1,0.6,0.2,0.8,0.3v1h0c-0.2-0.2-0.5-0.3-0.9-0.4c-0.3-0.1-0.7-0.2-1-0.2c-0.3,0-0.6,0.1-0.8,0.2    c-0.2,0.1-0.3,0.3-0.3,0.6c0,0.2,0.1,0.4,0.2,0.5c0.1,0.1,0.4,0.2,0.7,0.3c0.2,0,0.4,0.1,0.6,0.1s0.4,0.1,0.5,0.1    C291.4,151.6,291.7,151.7,291.9,152L291.9,152z"/>
		<path style="display:inline;" d="M298.2,151.8c0,0.9-0.2,1.6-0.7,2.1c-0.5,0.5-1.1,0.8-1.8,0.8c-0.8,0-1.4-0.3-1.8-0.8    s-0.7-1.2-0.7-2.1s0.2-1.6,0.7-2.1c0.5-0.5,1.1-0.8,1.8-0.8c0.8,0,1.4,0.3,1.8,0.8C298,150.2,298.2,150.9,298.2,151.8z     M297.3,151.8c0-0.7-0.1-1.2-0.4-1.6c-0.3-0.3-0.7-0.5-1.2-0.5c-0.5,0-0.9,0.2-1.2,0.5c-0.3,0.3-0.4,0.9-0.4,1.6    c0,0.7,0.1,1.2,0.4,1.6c0.3,0.4,0.7,0.5,1.2,0.5c0.5,0,0.9-0.2,1.1-0.5C297.1,153,297.3,152.5,297.3,151.8z"/>
		<path style="display:inline;" d="M304.2,154.5h-0.9v-3.1c0-0.3,0-0.5,0-0.7s-0.1-0.4-0.2-0.5c-0.1-0.1-0.2-0.2-0.4-0.3    c-0.2-0.1-0.4-0.1-0.6-0.1c-0.3,0-0.5,0.1-0.8,0.2s-0.5,0.3-0.8,0.5v4.1h-0.9v-5.5h0.9v0.6c0.3-0.2,0.6-0.4,0.9-0.6    s0.6-0.2,0.9-0.2c0.6,0,1,0.2,1.3,0.5s0.5,0.9,0.5,1.5V154.5z"/>
		<path style="display:inline;" d="M310.2,154.5h-0.9v-0.6c-0.1,0.1-0.2,0.1-0.3,0.2c-0.1,0.1-0.3,0.2-0.4,0.2    c-0.2,0.1-0.3,0.1-0.5,0.2c-0.2,0.1-0.4,0.1-0.7,0.1c-0.5,0-0.9-0.2-1.3-0.5s-0.5-0.7-0.5-1.2c0-0.4,0.1-0.7,0.3-1    c0.2-0.3,0.4-0.5,0.8-0.6c0.3-0.1,0.7-0.2,1.2-0.3c0.5-0.1,1-0.1,1.5-0.1v-0.1c0-0.2,0-0.4-0.1-0.5s-0.2-0.2-0.3-0.3    c-0.1-0.1-0.3-0.1-0.5-0.2c-0.2,0-0.4,0-0.6,0c-0.2,0-0.5,0-0.8,0.1c-0.3,0.1-0.6,0.2-0.9,0.3h0v-0.9c0.2,0,0.4-0.1,0.8-0.2    c0.3-0.1,0.7-0.1,1-0.1c0.4,0,0.7,0,1,0.1c0.3,0.1,0.5,0.2,0.7,0.3c0.2,0.1,0.4,0.3,0.5,0.6s0.2,0.5,0.2,0.9V154.5z M309.3,153.2    v-1.5c-0.3,0-0.6,0-1,0.1c-0.4,0-0.7,0.1-0.9,0.1c-0.3,0.1-0.5,0.2-0.6,0.3c-0.2,0.2-0.2,0.4-0.2,0.7c0,0.3,0.1,0.5,0.3,0.7    c0.2,0.2,0.5,0.2,0.9,0.2c0.3,0,0.6-0.1,0.9-0.2C308.8,153.5,309.1,153.3,309.3,153.2z"/>
		<path style="display:inline;" d="M321.1,154.5h-1.2l-3.4-6.5v6.5h-0.9v-7.3h1.5l3.1,5.9v-5.9h0.9V154.5z"/>
		<path style="display:inline;" d="M327.6,151.8c0,0.9-0.2,1.6-0.7,2.1c-0.5,0.5-1.1,0.8-1.8,0.8c-0.8,0-1.4-0.3-1.8-0.8    s-0.7-1.2-0.7-2.1s0.2-1.6,0.7-2.1c0.5-0.5,1.1-0.8,1.8-0.8c0.8,0,1.4,0.3,1.8,0.8C327.4,150.2,327.6,150.9,327.6,151.8z     M326.7,151.8c0-0.7-0.1-1.2-0.4-1.6c-0.3-0.3-0.7-0.5-1.2-0.5c-0.5,0-0.9,0.2-1.2,0.5c-0.3,0.3-0.4,0.9-0.4,1.6    c0,0.7,0.1,1.2,0.4,1.6c0.3,0.4,0.7,0.5,1.2,0.5c0.5,0,0.9-0.2,1.1-0.5C326.6,153,326.7,152.5,326.7,151.8z"/>
		<path style="display:inline;" d="M332.5,150.1L332.5,150.1c-0.2,0-0.3-0.1-0.4-0.1c-0.1,0-0.3,0-0.5,0c-0.3,0-0.6,0.1-0.8,0.2    c-0.3,0.1-0.5,0.3-0.8,0.5v3.9h-0.9v-5.5h0.9v0.8c0.4-0.3,0.7-0.5,1-0.6s0.6-0.2,0.9-0.2c0.2,0,0.3,0,0.3,0c0.1,0,0.2,0,0.3,0    V150.1z"/>
		<path style="display:inline;" d="M337.8,154.5h-0.9v-0.6c-0.3,0.2-0.5,0.4-0.8,0.5c-0.3,0.1-0.6,0.2-0.9,0.2    c-0.7,0-1.2-0.3-1.6-0.8s-0.6-1.2-0.6-2.1c0-0.5,0.1-0.9,0.2-1.2s0.3-0.7,0.5-0.9c0.2-0.2,0.5-0.4,0.8-0.6s0.6-0.2,0.9-0.2    c0.3,0,0.5,0,0.8,0.1c0.2,0.1,0.5,0.2,0.7,0.3v-2.4h0.9V154.5z M336.8,153.2V150c-0.2-0.1-0.5-0.2-0.7-0.2s-0.4-0.1-0.6-0.1    c-0.5,0-0.9,0.2-1.2,0.5c-0.3,0.4-0.4,0.9-0.4,1.5c0,0.6,0.1,1.1,0.3,1.5c0.2,0.3,0.6,0.5,1.1,0.5c0.3,0,0.5-0.1,0.8-0.2    C336.4,153.5,336.6,153.3,336.8,153.2z"/>
		<path style="display:inline;" d="M342.5,151.8h-3v-0.9h3V151.8z"/>
		<path style="display:inline;" d="M348.7,151.9h-4c0,0.3,0.1,0.6,0.2,0.9s0.2,0.5,0.4,0.6c0.2,0.2,0.4,0.3,0.6,0.4    c0.2,0.1,0.5,0.1,0.8,0.1c0.4,0,0.7-0.1,1.1-0.2c0.4-0.1,0.6-0.3,0.8-0.4h0v1c-0.3,0.1-0.6,0.2-0.9,0.3s-0.7,0.1-1,0.1    c-0.9,0-1.6-0.2-2.1-0.7c-0.5-0.5-0.8-1.2-0.8-2.1c0-0.9,0.2-1.6,0.7-2.1c0.5-0.5,1.1-0.8,1.9-0.8c0.7,0,1.3,0.2,1.7,0.6    c0.4,0.4,0.6,1,0.6,1.8V151.9z M347.8,151.2c0-0.5-0.1-0.9-0.4-1.1s-0.6-0.4-1.1-0.4c-0.5,0-0.9,0.1-1.2,0.4    c-0.3,0.3-0.5,0.6-0.5,1.1H347.8z"/>
		<path style="display:inline;" d="M353.6,152c0.2,0.2,0.3,0.6,0.3,1c0,0.5-0.2,0.9-0.6,1.2s-1,0.5-1.7,0.5c-0.4,0-0.8,0-1.1-0.1    c-0.3-0.1-0.6-0.2-0.8-0.3v-1h0c0.3,0.2,0.6,0.4,1,0.5c0.4,0.1,0.7,0.2,1,0.2c0.4,0,0.7-0.1,0.9-0.2c0.2-0.1,0.3-0.3,0.3-0.6    c0-0.2-0.1-0.4-0.2-0.5c-0.1-0.1-0.4-0.2-0.7-0.3c-0.1,0-0.3-0.1-0.5-0.1s-0.4-0.1-0.6-0.1c-0.5-0.1-0.8-0.3-1-0.6    c-0.2-0.2-0.3-0.5-0.3-0.9c0-0.2,0-0.4,0.1-0.6s0.2-0.4,0.4-0.5c0.2-0.2,0.4-0.3,0.7-0.4c0.3-0.1,0.6-0.1,0.9-0.1    c0.3,0,0.7,0,1,0.1c0.3,0.1,0.6,0.2,0.8,0.3v1h0c-0.2-0.2-0.5-0.3-0.9-0.4c-0.3-0.1-0.7-0.2-1-0.2c-0.3,0-0.6,0.1-0.8,0.2    c-0.2,0.1-0.3,0.3-0.3,0.6c0,0.2,0.1,0.4,0.2,0.5c0.1,0.1,0.4,0.2,0.7,0.3c0.2,0,0.4,0.1,0.6,0.1s0.4,0.1,0.5,0.1    C353.1,151.6,353.4,151.7,353.6,152L353.6,152z"/>
		<path style="display:inline;" d="M358.1,154.5c-0.2,0-0.4,0.1-0.6,0.1s-0.4,0-0.5,0c-0.6,0-1-0.1-1.3-0.4    c-0.3-0.3-0.4-0.8-0.4-1.4v-2.9h-0.6v-0.8h0.6v-1.6h0.9v1.6h1.9v0.8h-1.9v2.5c0,0.3,0,0.5,0,0.7c0,0.2,0.1,0.3,0.1,0.5    c0.1,0.1,0.2,0.2,0.3,0.3c0.1,0.1,0.3,0.1,0.6,0.1c0.1,0,0.3,0,0.5-0.1c0.2,0,0.3-0.1,0.4-0.1h0V154.5z"/>
	</g>
	<g>
		<path d="M271.5,111.2c0,0.3-0.1,0.6-0.2,0.8c-0.1,0.3-0.3,0.5-0.5,0.7c-0.2,0.2-0.5,0.4-0.9,0.5c-0.3,0.1-0.7,0.2-1.2,0.2    c-0.5,0-0.9,0-1.3-0.1s-0.8-0.2-1.2-0.4v-1.2h0.1c0.3,0.3,0.7,0.5,1.2,0.7c0.5,0.2,0.9,0.2,1.3,0.2c0.6,0,1-0.1,1.3-0.3    s0.5-0.5,0.5-0.9c0-0.3-0.1-0.6-0.2-0.7c-0.1-0.2-0.4-0.3-0.7-0.4c-0.2-0.1-0.5-0.1-0.8-0.2c-0.3,0-0.6-0.1-0.9-0.2    c-0.6-0.1-1.1-0.4-1.4-0.7s-0.4-0.8-0.4-1.3c0-0.6,0.2-1.1,0.7-1.5c0.5-0.4,1.1-0.6,1.9-0.6c0.5,0,0.9,0,1.3,0.1s0.8,0.2,1.1,0.4    v1.1h-0.1c-0.3-0.2-0.6-0.4-1-0.6s-0.9-0.2-1.3-0.2c-0.5,0-0.9,0.1-1.2,0.3s-0.4,0.5-0.4,0.8c0,0.3,0.1,0.5,0.2,0.7    c0.1,0.2,0.4,0.3,0.8,0.4c0.2,0,0.5,0.1,0.8,0.2c0.4,0.1,0.7,0.1,0.9,0.2c0.5,0.1,0.9,0.4,1.2,0.6    C271.4,110.2,271.5,110.6,271.5,111.2z"/>
		<path d="M276.9,113.2h-0.9v-0.6c-0.1,0.1-0.2,0.1-0.3,0.2s-0.3,0.2-0.4,0.2c-0.1,0.1-0.3,0.1-0.5,0.2s-0.4,0.1-0.7,0.1    c-0.5,0-0.9-0.2-1.2-0.5c-0.3-0.3-0.5-0.7-0.5-1.2c0-0.4,0.1-0.7,0.3-1s0.4-0.5,0.7-0.6c0.3-0.1,0.7-0.2,1.1-0.3    c0.4-0.1,0.9-0.1,1.4-0.1v-0.1c0-0.2,0-0.4-0.1-0.5s-0.2-0.2-0.3-0.3c-0.1-0.1-0.3-0.1-0.4-0.2c-0.2,0-0.4,0-0.5,0    c-0.2,0-0.5,0-0.8,0.1c-0.3,0.1-0.6,0.2-0.9,0.3h0v-0.9c0.2,0,0.4-0.1,0.7-0.2c0.3-0.1,0.6-0.1,0.9-0.1c0.4,0,0.7,0,0.9,0.1    c0.3,0.1,0.5,0.2,0.7,0.3c0.2,0.1,0.3,0.3,0.4,0.6c0.1,0.2,0.2,0.5,0.2,0.9V113.2z M276.1,111.9v-1.5c-0.3,0-0.6,0-0.9,0.1    c-0.4,0-0.6,0.1-0.9,0.1c-0.2,0.1-0.5,0.2-0.6,0.3c-0.2,0.2-0.2,0.4-0.2,0.7c0,0.3,0.1,0.5,0.3,0.7c0.2,0.2,0.5,0.2,0.8,0.2    c0.3,0,0.6-0.1,0.8-0.2C275.6,112.2,275.9,112.1,276.1,111.9z"/>
		<path d="M282.9,113.2h-0.9v-3.1c0-0.3,0-0.5,0-0.7c0-0.2-0.1-0.4-0.2-0.5c-0.1-0.1-0.2-0.2-0.3-0.3s-0.3-0.1-0.6-0.1    c-0.2,0-0.5,0.1-0.7,0.2c-0.3,0.1-0.5,0.3-0.7,0.5v4.1h-0.9v-5.5h0.9v0.6c0.3-0.2,0.6-0.4,0.8-0.6c0.3-0.1,0.6-0.2,0.9-0.2    c0.6,0,1,0.2,1.3,0.5c0.3,0.4,0.4,0.9,0.4,1.5V113.2z"/>
		<path d="M287.3,113.2c-0.2,0-0.3,0.1-0.5,0.1s-0.4,0-0.5,0c-0.5,0-0.9-0.1-1.2-0.4c-0.3-0.3-0.4-0.8-0.4-1.4v-2.9H284v-0.8h0.6    v-1.6h0.9v1.6h1.8v0.8h-1.8v2.5c0,0.3,0,0.5,0,0.7c0,0.2,0.1,0.3,0.1,0.5c0.1,0.1,0.2,0.2,0.3,0.3c0.1,0.1,0.3,0.1,0.5,0.1    c0.1,0,0.3,0,0.4-0.1c0.2,0,0.3-0.1,0.3-0.1h0V113.2z"/>
		<path d="M296.2,108.2c0,0.3-0.1,0.6-0.2,0.9c-0.1,0.3-0.3,0.5-0.4,0.7c-0.2,0.3-0.5,0.4-0.8,0.6c-0.3,0.1-0.7,0.2-1.2,0.2h-0.9    v2.7h-0.9V106h1.9c0.4,0,0.8,0,1,0.1s0.5,0.2,0.8,0.3c0.3,0.2,0.5,0.4,0.6,0.7C296.1,107.4,296.2,107.7,296.2,108.2z M295.3,108.2    c0-0.3,0-0.5-0.1-0.7s-0.2-0.3-0.4-0.5c-0.1-0.1-0.3-0.2-0.5-0.2s-0.4-0.1-0.7-0.1h-0.9v2.9h0.8c0.4,0,0.7,0,0.9-0.1    c0.2-0.1,0.4-0.2,0.6-0.3c0.1-0.2,0.2-0.3,0.3-0.5C295.2,108.6,295.3,108.4,295.3,108.2z"/>
		<path d="M301.4,110.6h-3.8c0,0.3,0,0.6,0.1,0.9c0.1,0.2,0.2,0.5,0.4,0.6c0.2,0.2,0.3,0.3,0.6,0.4c0.2,0.1,0.5,0.1,0.7,0.1    c0.4,0,0.7-0.1,1.1-0.2s0.6-0.3,0.8-0.4h0v1c-0.3,0.1-0.6,0.2-0.9,0.3s-0.6,0.1-1,0.1c-0.9,0-1.5-0.2-2-0.7    c-0.5-0.5-0.7-1.2-0.7-2.1c0-0.9,0.2-1.6,0.7-2.1c0.5-0.5,1.1-0.8,1.8-0.8c0.7,0,1.2,0.2,1.6,0.6s0.6,1,0.6,1.8V110.6z     M300.6,109.9c0-0.5-0.1-0.9-0.3-1.1c-0.2-0.3-0.6-0.4-1-0.4c-0.5,0-0.8,0.1-1.1,0.4c-0.3,0.3-0.4,0.6-0.5,1.1H300.6z"/>
		<path d="M306,108.8L306,108.8c-0.2,0-0.3-0.1-0.4-0.1s-0.3,0-0.4,0c-0.3,0-0.5,0.1-0.8,0.2c-0.2,0.1-0.5,0.3-0.7,0.5v3.9h-0.9    v-5.5h0.9v0.8c0.3-0.3,0.6-0.5,0.9-0.6c0.3-0.1,0.5-0.2,0.8-0.2c0.2,0,0.3,0,0.3,0c0.1,0,0.2,0,0.3,0V108.8z"/>
		<path d="M311.1,110.6h-3.8c0,0.3,0,0.6,0.1,0.9c0.1,0.2,0.2,0.5,0.4,0.6c0.2,0.2,0.4,0.3,0.6,0.4s0.5,0.1,0.7,0.1    c0.4,0,0.7-0.1,1.1-0.2c0.4-0.1,0.6-0.3,0.8-0.4h0v1c-0.3,0.1-0.6,0.2-0.9,0.3c-0.3,0.1-0.6,0.1-1,0.1c-0.9,0-1.5-0.2-2-0.7    s-0.7-1.2-0.7-2.1c0-0.9,0.2-1.6,0.7-2.1c0.5-0.5,1.1-0.8,1.8-0.8c0.7,0,1.2,0.2,1.6,0.6s0.6,1,0.6,1.8V110.6z M310.3,109.9    c0-0.5-0.1-0.9-0.3-1.1c-0.2-0.3-0.6-0.4-1-0.4c-0.5,0-0.8,0.1-1.1,0.4c-0.3,0.3-0.4,0.6-0.5,1.1H310.3z"/>
		<path d="M270.6,123.2h-0.9v-0.6c-0.2,0.2-0.5,0.4-0.8,0.5c-0.3,0.1-0.6,0.2-0.9,0.2c-0.6,0-1.1-0.3-1.5-0.8    c-0.4-0.5-0.5-1.2-0.5-2.1c0-0.5,0.1-0.9,0.2-1.2s0.3-0.7,0.5-0.9c0.2-0.2,0.5-0.4,0.7-0.6c0.3-0.1,0.6-0.2,0.9-0.2    c0.3,0,0.5,0,0.7,0.1c0.2,0.1,0.4,0.2,0.7,0.3v-2.4h0.9V123.2z M269.8,121.9v-3.1c-0.2-0.1-0.4-0.2-0.6-0.2    c-0.2,0-0.4-0.1-0.6-0.1c-0.5,0-0.9,0.2-1.1,0.5c-0.3,0.4-0.4,0.9-0.4,1.5c0,0.6,0.1,1.1,0.3,1.5c0.2,0.3,0.5,0.5,1,0.5    c0.2,0,0.5-0.1,0.7-0.2S269.5,122.1,269.8,121.9z"/>
		<path d="M276.6,120.6h-3.8c0,0.3,0,0.6,0.1,0.9c0.1,0.2,0.2,0.5,0.4,0.6c0.2,0.2,0.3,0.3,0.6,0.4s0.5,0.1,0.7,0.1    c0.4,0,0.7-0.1,1.1-0.2c0.4-0.1,0.6-0.3,0.8-0.4h0v1c-0.3,0.1-0.6,0.2-0.9,0.3c-0.3,0.1-0.6,0.1-1,0.1c-0.9,0-1.5-0.2-2-0.7    s-0.7-1.2-0.7-2.1c0-0.9,0.2-1.6,0.7-2.1c0.5-0.5,1.1-0.8,1.8-0.8c0.7,0,1.2,0.2,1.6,0.6s0.6,1,0.6,1.8V120.6z M275.8,119.9    c0-0.5-0.1-0.9-0.3-1.1c-0.2-0.3-0.6-0.4-1-0.4c-0.5,0-0.8,0.1-1.1,0.4c-0.3,0.3-0.4,0.6-0.5,1.1H275.8z"/>
		<path d="M286.3,116.8h-2.5v6.4h-0.9v-6.4h-2.5V116h5.8V116.8z"/>
		<path d="M290.5,120.5c0,0.9-0.2,1.6-0.6,2.1c-0.4,0.5-1,0.8-1.7,0.8c-0.7,0-1.3-0.3-1.7-0.8c-0.4-0.5-0.6-1.2-0.6-2.1    s0.2-1.6,0.6-2.1c0.4-0.5,1-0.8,1.7-0.8c0.7,0,1.3,0.3,1.7,0.8S290.5,119.6,290.5,120.5z M289.6,120.5c0-0.7-0.1-1.2-0.4-1.6    c-0.3-0.3-0.6-0.5-1.1-0.5c-0.5,0-0.8,0.2-1.1,0.5s-0.4,0.9-0.4,1.6c0,0.7,0.1,1.2,0.4,1.6c0.3,0.4,0.6,0.5,1.1,0.5    c0.5,0,0.8-0.2,1.1-0.5S289.6,121.2,289.6,120.5z"/>
		<path d="M295.1,118.8L295.1,118.8c-0.2,0-0.3-0.1-0.4-0.1c-0.1,0-0.3,0-0.4,0c-0.3,0-0.5,0.1-0.8,0.2s-0.5,0.3-0.7,0.5v3.9h-0.9    v-5.5h0.9v0.8c0.3-0.3,0.6-0.5,0.9-0.6c0.3-0.1,0.5-0.2,0.8-0.2c0.2,0,0.3,0,0.3,0c0.1,0,0.2,0,0.3,0V118.8z"/>
		<path d="M300.2,120.6h-3.8c0,0.3,0,0.6,0.1,0.9s0.2,0.5,0.4,0.6c0.2,0.2,0.3,0.3,0.6,0.4s0.5,0.1,0.7,0.1c0.4,0,0.7-0.1,1.1-0.2    s0.6-0.3,0.8-0.4h0v1c-0.3,0.1-0.6,0.2-0.9,0.3s-0.6,0.1-1,0.1c-0.9,0-1.5-0.2-2-0.7c-0.5-0.5-0.7-1.2-0.7-2.1    c0-0.9,0.2-1.6,0.7-2.1c0.5-0.5,1.1-0.8,1.8-0.8c0.7,0,1.2,0.2,1.6,0.6c0.4,0.4,0.6,1,0.6,1.8V120.6z M299.3,119.9    c0-0.5-0.1-0.9-0.3-1.1c-0.2-0.3-0.6-0.4-1-0.4c-0.5,0-0.8,0.1-1.1,0.4c-0.3,0.3-0.4,0.6-0.5,1.1H299.3z"/>
		<path d="M302.4,123.2h-0.9v-7.6h0.9V123.2z"/>
		<path d="M305,123.2h-0.9v-7.6h0.9V123.2z"/>
		<path d="M311.1,120.5c0,0.9-0.2,1.6-0.6,2.1c-0.4,0.5-1,0.8-1.7,0.8c-0.7,0-1.3-0.3-1.7-0.8c-0.4-0.5-0.6-1.2-0.6-2.1    s0.2-1.6,0.6-2.1c0.4-0.5,1-0.8,1.7-0.8c0.7,0,1.3,0.3,1.7,0.8S311.1,119.6,311.1,120.5z M310.2,120.5c0-0.7-0.1-1.2-0.4-1.6    c-0.3-0.3-0.6-0.5-1.1-0.5c-0.5,0-0.8,0.2-1.1,0.5s-0.4,0.9-0.4,1.6c0,0.7,0.1,1.2,0.4,1.6c0.3,0.4,0.6,0.5,1.1,0.5    c0.5,0,0.8-0.2,1.1-0.5C310,121.7,310.2,121.2,310.2,120.5z M310.1,115l-1.3,1.8h-0.7l0.8-1.8H310.1z"/>
	</g>
	<g>
		<path d="M253.9,176.1H253v-6.3l-1.9,4.3h-0.5l-1.9-4.3v6.3h-0.9v-7.3h1.2l1.8,4l1.8-4h1.3V176.1z"/>
		<path d="M259.7,176.1h-0.9v-0.6c-0.1,0.1-0.2,0.1-0.3,0.2c-0.1,0.1-0.3,0.2-0.4,0.2c-0.1,0.1-0.3,0.1-0.5,0.2    c-0.2,0.1-0.4,0.1-0.7,0.1c-0.5,0-0.9-0.2-1.2-0.5s-0.5-0.7-0.5-1.2c0-0.4,0.1-0.7,0.3-1c0.2-0.3,0.4-0.5,0.7-0.6    c0.3-0.1,0.7-0.2,1.1-0.3c0.4-0.1,0.9-0.1,1.4-0.1v-0.1c0-0.2,0-0.4-0.1-0.5s-0.2-0.2-0.3-0.3c-0.1-0.1-0.3-0.1-0.4-0.2    c-0.2,0-0.4,0-0.5,0c-0.2,0-0.5,0-0.8,0.1c-0.3,0.1-0.6,0.2-0.9,0.3h0v-0.9c0.2,0,0.4-0.1,0.7-0.2s0.6-0.1,0.9-0.1    c0.4,0,0.7,0,0.9,0.1c0.3,0.1,0.5,0.2,0.7,0.3c0.2,0.1,0.3,0.3,0.4,0.6s0.2,0.5,0.2,0.9V176.1z M258.9,174.8v-1.5    c-0.3,0-0.6,0-0.9,0.1s-0.6,0.1-0.9,0.1c-0.2,0.1-0.5,0.2-0.6,0.3c-0.2,0.2-0.2,0.4-0.2,0.7c0,0.3,0.1,0.5,0.3,0.7    c0.2,0.2,0.5,0.2,0.8,0.2c0.3,0,0.6-0.1,0.8-0.2C258.4,175.1,258.6,175,258.9,174.8z"/>
		<path d="M265.7,176.1h-0.9V173c0-0.3,0-0.5,0-0.7s-0.1-0.4-0.2-0.5c-0.1-0.1-0.2-0.2-0.3-0.3s-0.3-0.1-0.6-0.1    c-0.2,0-0.5,0.1-0.7,0.2c-0.3,0.1-0.5,0.3-0.7,0.5v4.1h-0.9v-5.5h0.9v0.6c0.3-0.2,0.6-0.4,0.8-0.6s0.6-0.2,0.9-0.2    c0.6,0,1,0.2,1.3,0.5s0.4,0.9,0.4,1.5V176.1z"/>
		<path d="M268.3,176.1h-0.9v-7.6h0.9V176.1z"/>
		<path d="M270.8,176.1H270v-7.6h0.9V176.1z"/>
		<path d="M276.9,173.5h-3.8c0,0.3,0,0.6,0.1,0.9c0.1,0.2,0.2,0.5,0.4,0.6c0.2,0.2,0.4,0.3,0.6,0.4s0.5,0.1,0.7,0.1    c0.4,0,0.7-0.1,1.1-0.2c0.4-0.1,0.6-0.3,0.8-0.4h0v1c-0.3,0.1-0.6,0.2-0.9,0.3s-0.6,0.1-1,0.1c-0.9,0-1.5-0.2-2-0.7    c-0.5-0.5-0.7-1.2-0.7-2.1c0-0.9,0.2-1.6,0.7-2.1s1.1-0.8,1.8-0.8c0.7,0,1.2,0.2,1.6,0.6s0.6,1,0.6,1.8V173.5z M276,172.8    c0-0.5-0.1-0.9-0.3-1.1c-0.2-0.3-0.6-0.4-1-0.4c-0.5,0-0.8,0.1-1.1,0.4s-0.4,0.6-0.5,1.1H276z"/>
		<path d="M282.5,176.1h-0.9v-0.6c-0.3,0.2-0.6,0.4-0.8,0.6c-0.3,0.1-0.6,0.2-0.9,0.2c-0.5,0-1-0.2-1.3-0.5    c-0.3-0.4-0.5-0.9-0.5-1.5v-3.5h0.9v3.1c0,0.3,0,0.5,0,0.7c0,0.2,0.1,0.4,0.2,0.5c0.1,0.1,0.2,0.2,0.3,0.3s0.3,0.1,0.6,0.1    c0.2,0,0.5-0.1,0.7-0.2c0.3-0.1,0.5-0.3,0.7-0.5v-4.1h0.9V176.1z"/>
	</g>
	<g>
		<path d="M274.5,212.5H272v6.4h-0.9v-6.4h-2.5v-0.9h5.8V212.5z"/>
		<path d="M278.2,218.9h-0.9v-0.6c-0.1,0.1-0.2,0.1-0.3,0.2s-0.3,0.2-0.4,0.2c-0.1,0.1-0.3,0.1-0.5,0.2s-0.4,0.1-0.7,0.1    c-0.5,0-0.9-0.2-1.2-0.5c-0.3-0.3-0.5-0.7-0.5-1.2c0-0.4,0.1-0.7,0.3-1s0.4-0.5,0.7-0.6c0.3-0.1,0.7-0.2,1.1-0.3    c0.4-0.1,0.9-0.1,1.4-0.1v-0.1c0-0.2,0-0.4-0.1-0.5s-0.2-0.2-0.3-0.3c-0.1-0.1-0.3-0.1-0.4-0.2c-0.2,0-0.4,0-0.5,0    c-0.2,0-0.5,0-0.8,0.1c-0.3,0.1-0.6,0.2-0.9,0.3h0v-0.9c0.2,0,0.4-0.1,0.7-0.2c0.3-0.1,0.6-0.1,0.9-0.1c0.4,0,0.7,0,0.9,0.1    s0.5,0.2,0.7,0.3c0.2,0.1,0.3,0.3,0.4,0.6s0.2,0.5,0.2,0.9V218.9z M277.3,217.6V216c-0.3,0-0.6,0-0.9,0.1s-0.6,0.1-0.9,0.1    c-0.2,0.1-0.5,0.2-0.6,0.3c-0.2,0.2-0.2,0.4-0.2,0.7c0,0.3,0.1,0.5,0.3,0.7s0.5,0.2,0.8,0.2c0.3,0,0.6-0.1,0.8-0.2    C276.9,217.9,277.1,217.7,277.3,217.6z"/>
		<path d="M284.3,213.4l-2.1,5.5h-0.9l-2.1-5.5h0.9l1.6,4.3l1.6-4.3H284.3z"/>
		<path d="M289.7,216.3h-3.8c0,0.3,0,0.6,0.1,0.9s0.2,0.5,0.4,0.6c0.2,0.2,0.3,0.3,0.6,0.4s0.5,0.1,0.7,0.1c0.4,0,0.7-0.1,1.1-0.2    s0.6-0.3,0.8-0.4h0v1c-0.3,0.1-0.6,0.2-0.9,0.3c-0.3,0.1-0.6,0.1-1,0.1c-0.9,0-1.5-0.2-2-0.7c-0.5-0.5-0.7-1.2-0.7-2.1    c0-0.9,0.2-1.6,0.7-2.1s1.1-0.8,1.8-0.8c0.7,0,1.2,0.2,1.6,0.6s0.6,1,0.6,1.8V216.3z M288.9,215.6c0-0.5-0.1-0.9-0.3-1.1    c-0.2-0.3-0.6-0.4-1-0.4c-0.5,0-0.8,0.1-1.1,0.4s-0.4,0.6-0.5,1.1H288.9z M288.1,212.5h-0.7l-1.3-1.8h1.1L288.1,212.5z"/>
		<path d="M294.3,214.4L294.3,214.4c-0.2,0-0.3-0.1-0.4-0.1c-0.1,0-0.3,0-0.4,0c-0.3,0-0.5,0.1-0.8,0.2s-0.5,0.3-0.7,0.5v3.9H291    v-5.5h0.9v0.8c0.3-0.3,0.6-0.5,0.9-0.6c0.3-0.1,0.5-0.2,0.8-0.2c0.2,0,0.3,0,0.3,0s0.2,0,0.3,0V214.4z"/>
		<path d="M299.4,218.9h-0.9v-3.1c0-0.3,0-0.5,0-0.7s-0.1-0.4-0.2-0.5c-0.1-0.1-0.2-0.2-0.3-0.3s-0.3-0.1-0.6-0.1    c-0.2,0-0.5,0.1-0.7,0.2c-0.3,0.1-0.5,0.3-0.7,0.5v4.1h-0.9v-5.5h0.9v0.6c0.3-0.2,0.6-0.4,0.8-0.6s0.6-0.2,0.9-0.2    c0.6,0,1,0.2,1.3,0.5s0.4,0.9,0.4,1.5V218.9z"/>
		<path d="M305.4,216.2c0,0.9-0.2,1.6-0.6,2.1s-1,0.8-1.7,0.8c-0.7,0-1.3-0.3-1.7-0.8s-0.6-1.2-0.6-2.1s0.2-1.6,0.6-2.1    s1-0.8,1.7-0.8c0.7,0,1.3,0.3,1.7,0.8S305.4,215.3,305.4,216.2z M304.6,216.2c0-0.7-0.1-1.2-0.4-1.6s-0.6-0.5-1.1-0.5    c-0.5,0-0.8,0.2-1.1,0.5s-0.4,0.9-0.4,1.6c0,0.7,0.1,1.2,0.4,1.6s0.6,0.5,1.1,0.5c0.5,0,0.8-0.2,1.1-0.5    C304.4,217.4,304.6,216.9,304.6,216.2z"/>
		<path d="M307.7,218.9h-0.9v-7.6h0.9V218.9z"/>
		<path d="M313.7,216.3h-3.8c0,0.3,0,0.6,0.1,0.9s0.2,0.5,0.4,0.6c0.2,0.2,0.3,0.3,0.6,0.4c0.2,0.1,0.5,0.1,0.7,0.1    c0.4,0,0.7-0.1,1.1-0.2s0.6-0.3,0.8-0.4h0v1c-0.3,0.1-0.6,0.2-0.9,0.3s-0.6,0.1-1,0.1c-0.9,0-1.5-0.2-2-0.7    c-0.5-0.5-0.7-1.2-0.7-2.1c0-0.9,0.2-1.6,0.7-2.1c0.5-0.5,1.1-0.8,1.8-0.8c0.7,0,1.2,0.2,1.6,0.6c0.4,0.4,0.6,1,0.6,1.8V216.3z     M312.9,215.6c0-0.5-0.1-0.9-0.3-1.1c-0.2-0.3-0.6-0.4-1-0.4c-0.5,0-0.8,0.1-1.1,0.4s-0.4,0.6-0.5,1.1H312.9z"/>
		<path d="M318.4,216.4c0.2,0.2,0.3,0.6,0.3,1c0,0.5-0.2,0.9-0.6,1.2c-0.4,0.3-0.9,0.5-1.6,0.5c-0.4,0-0.7,0-1-0.1s-0.6-0.2-0.8-0.3    v-1h0c0.3,0.2,0.6,0.4,0.9,0.5c0.3,0.1,0.7,0.2,1,0.2c0.4,0,0.7-0.1,0.9-0.2c0.2-0.1,0.3-0.3,0.3-0.6c0-0.2-0.1-0.4-0.2-0.5    c-0.1-0.1-0.3-0.2-0.7-0.3c-0.1,0-0.3-0.1-0.5-0.1s-0.4-0.1-0.5-0.1c-0.5-0.1-0.8-0.3-1-0.6c-0.2-0.2-0.3-0.5-0.3-0.9    c0-0.2,0-0.4,0.1-0.6s0.2-0.4,0.4-0.5c0.2-0.2,0.4-0.3,0.7-0.4c0.3-0.1,0.6-0.1,0.9-0.1c0.3,0,0.6,0,0.9,0.1s0.6,0.2,0.8,0.3v1h0    c-0.2-0.2-0.5-0.3-0.8-0.4c-0.3-0.1-0.6-0.2-0.9-0.2c-0.3,0-0.6,0.1-0.8,0.2c-0.2,0.1-0.3,0.3-0.3,0.6c0,0.2,0.1,0.4,0.2,0.5    c0.1,0.1,0.3,0.2,0.6,0.3c0.2,0,0.3,0.1,0.5,0.1c0.2,0,0.4,0.1,0.5,0.1C317.8,216,318.1,216.1,318.4,216.4L318.4,216.4z"/>
	</g>
	<g>
		<path d="M150.3,96.3c0,0.3-0.1,0.6-0.2,0.8s-0.3,0.5-0.5,0.7c-0.2,0.2-0.5,0.4-0.9,0.5s-0.7,0.2-1.2,0.2c-0.5,0-0.9,0-1.3-0.1    c-0.4-0.1-0.8-0.2-1.2-0.4v-1.2h0.1c0.3,0.3,0.7,0.5,1.2,0.7s0.9,0.2,1.3,0.2c0.6,0,1-0.1,1.3-0.3c0.3-0.2,0.5-0.5,0.5-0.9    c0-0.3-0.1-0.6-0.2-0.7c-0.1-0.2-0.4-0.3-0.7-0.4c-0.2-0.1-0.5-0.1-0.8-0.2c-0.3,0-0.6-0.1-0.9-0.2c-0.6-0.1-1.1-0.4-1.4-0.7    c-0.3-0.3-0.4-0.8-0.4-1.3c0-0.6,0.2-1.1,0.7-1.5c0.5-0.4,1.1-0.6,1.9-0.6c0.5,0,0.9,0,1.3,0.1c0.4,0.1,0.8,0.2,1.1,0.4v1.1H150    c-0.3-0.2-0.6-0.4-1-0.6c-0.4-0.2-0.9-0.2-1.3-0.2c-0.5,0-0.9,0.1-1.2,0.3s-0.4,0.5-0.4,0.8c0,0.3,0.1,0.5,0.2,0.7    c0.1,0.2,0.4,0.3,0.8,0.4c0.2,0,0.5,0.1,0.8,0.2c0.4,0.1,0.7,0.1,0.9,0.2c0.5,0.1,0.9,0.4,1.2,0.6S150.3,95.7,150.3,96.3z"/>
		<path d="M155.7,98.3h-0.9v-0.6c-0.1,0.1-0.2,0.1-0.3,0.2s-0.3,0.2-0.4,0.2c-0.1,0.1-0.3,0.1-0.5,0.2c-0.2,0.1-0.4,0.1-0.7,0.1    c-0.5,0-0.9-0.2-1.2-0.5c-0.3-0.3-0.5-0.7-0.5-1.2c0-0.4,0.1-0.7,0.3-1c0.2-0.3,0.4-0.5,0.7-0.6c0.3-0.1,0.7-0.2,1.1-0.3    c0.4-0.1,0.9-0.1,1.4-0.1v-0.1c0-0.2,0-0.4-0.1-0.5s-0.2-0.2-0.3-0.3c-0.1-0.1-0.3-0.1-0.4-0.2s-0.4,0-0.5,0c-0.2,0-0.5,0-0.8,0.1    c-0.3,0.1-0.6,0.2-0.9,0.3h0V93c0.2,0,0.4-0.1,0.7-0.2s0.6-0.1,0.9-0.1c0.4,0,0.7,0,0.9,0.1s0.5,0.2,0.7,0.3    c0.2,0.1,0.3,0.3,0.4,0.6s0.2,0.5,0.2,0.9V98.3z M154.8,97v-1.5c-0.3,0-0.6,0-0.9,0.1s-0.6,0.1-0.9,0.1c-0.2,0.1-0.5,0.2-0.6,0.3    s-0.2,0.4-0.2,0.7c0,0.3,0.1,0.5,0.3,0.7c0.2,0.2,0.5,0.2,0.8,0.2c0.3,0,0.6-0.1,0.8-0.2C154.4,97.3,154.6,97.2,154.8,97z"/>
		<path d="M161.7,98.3h-0.9v-3.1c0-0.3,0-0.5,0-0.7c0-0.2-0.1-0.4-0.2-0.5c-0.1-0.1-0.2-0.2-0.3-0.3s-0.3-0.1-0.6-0.1    c-0.2,0-0.5,0.1-0.7,0.2s-0.5,0.3-0.7,0.5v4.1h-0.9v-5.5h0.9v0.6c0.3-0.2,0.6-0.4,0.8-0.6c0.3-0.1,0.6-0.2,0.9-0.2    c0.6,0,1,0.2,1.3,0.5c0.3,0.4,0.4,0.9,0.4,1.5V98.3z"/>
		<path d="M166,98.3c-0.2,0-0.3,0.1-0.5,0.1c-0.2,0-0.4,0-0.5,0c-0.5,0-0.9-0.1-1.2-0.4c-0.3-0.3-0.4-0.8-0.4-1.4v-2.9h-0.6v-0.8    h0.6v-1.6h0.9v1.6h1.8v0.8h-1.8v2.5c0,0.3,0,0.5,0,0.7s0.1,0.3,0.1,0.5c0.1,0.1,0.2,0.2,0.3,0.3c0.1,0.1,0.3,0.1,0.5,0.1    c0.1,0,0.3,0,0.4-0.1s0.3-0.1,0.3-0.1h0V98.3z"/>
		<path d="M175.9,98.3h-1l-0.7-2h-3l-0.7,2h-0.9l2.5-7.3h1.2L175.9,98.3z M174,95.5l-1.2-3.6l-1.2,3.6H174z"/>
		<path d="M181.1,97.7c0,0.9-0.2,1.6-0.6,2c-0.4,0.4-1,0.6-1.8,0.6c-0.3,0-0.5,0-0.8-0.1c-0.3,0-0.5-0.1-0.8-0.2v-0.9h0    c0.1,0.1,0.4,0.1,0.7,0.2s0.6,0.1,0.9,0.1c0.3,0,0.5,0,0.7-0.1s0.3-0.2,0.5-0.3c0.1-0.1,0.2-0.3,0.2-0.5c0-0.2,0.1-0.4,0.1-0.6    v-0.5c-0.3,0.2-0.5,0.4-0.8,0.5c-0.2,0.1-0.5,0.2-0.9,0.2c-0.6,0-1.1-0.2-1.5-0.7c-0.4-0.5-0.5-1.1-0.5-2c0-0.5,0.1-0.9,0.2-1.2    s0.3-0.6,0.5-0.9c0.2-0.2,0.4-0.4,0.7-0.5s0.6-0.2,0.9-0.2c0.3,0,0.5,0,0.7,0.1s0.4,0.2,0.6,0.3l0.1-0.2h0.8V97.7z M180.2,96.8v-3    c-0.2-0.1-0.4-0.2-0.6-0.2c-0.2,0-0.4-0.1-0.6-0.1c-0.5,0-0.9,0.2-1.1,0.5c-0.3,0.3-0.4,0.8-0.4,1.5c0,0.6,0.1,1.1,0.3,1.4    s0.5,0.5,1,0.5c0.3,0,0.5-0.1,0.8-0.2C179.7,97.1,180,97,180.2,96.8z"/>
		<path d="M187,98.3h-0.9v-0.6c-0.3,0.2-0.6,0.4-0.8,0.6c-0.3,0.1-0.6,0.2-0.9,0.2c-0.5,0-1-0.2-1.3-0.5c-0.3-0.4-0.5-0.9-0.5-1.5    v-3.5h0.9V96c0,0.3,0,0.5,0,0.7c0,0.2,0.1,0.4,0.2,0.5c0.1,0.1,0.2,0.2,0.3,0.3s0.3,0.1,0.6,0.1c0.2,0,0.5-0.1,0.7-0.2    s0.5-0.3,0.7-0.5v-4.1h0.9V98.3z"/>
		<path d="M192.1,95.8c0.2,0.2,0.3,0.6,0.3,1c0,0.5-0.2,0.9-0.6,1.2s-0.9,0.5-1.6,0.5c-0.4,0-0.7,0-1-0.1s-0.6-0.2-0.8-0.3v-1h0    c0.3,0.2,0.6,0.4,0.9,0.5s0.7,0.2,1,0.2c0.4,0,0.7-0.1,0.9-0.2s0.3-0.3,0.3-0.6c0-0.2-0.1-0.4-0.2-0.5c-0.1-0.1-0.3-0.2-0.7-0.3    c-0.1,0-0.3-0.1-0.5-0.1c-0.2,0-0.4-0.1-0.5-0.1c-0.5-0.1-0.8-0.3-1-0.6c-0.2-0.2-0.3-0.5-0.3-0.9c0-0.2,0-0.4,0.1-0.6    s0.2-0.4,0.4-0.5c0.2-0.2,0.4-0.3,0.7-0.4s0.6-0.1,0.9-0.1c0.3,0,0.6,0,0.9,0.1s0.6,0.2,0.8,0.3v1h0c-0.2-0.2-0.5-0.3-0.8-0.4    s-0.6-0.2-0.9-0.2c-0.3,0-0.6,0.1-0.8,0.2s-0.3,0.3-0.3,0.6c0,0.2,0.1,0.4,0.2,0.5c0.1,0.1,0.3,0.2,0.6,0.3c0.2,0,0.3,0.1,0.5,0.1    c0.2,0,0.4,0.1,0.5,0.1C191.6,95.4,191.9,95.6,192.1,95.8L192.1,95.8z"/>
		<path d="M196.3,98.3c-0.2,0-0.3,0.1-0.5,0.1s-0.4,0-0.5,0c-0.5,0-0.9-0.1-1.2-0.4s-0.4-0.8-0.4-1.4v-2.9h-0.6v-0.8h0.6v-1.6h0.9    v1.6h1.8v0.8h-1.8v2.5c0,0.3,0,0.5,0,0.7c0,0.2,0.1,0.3,0.1,0.5c0.1,0.1,0.2,0.2,0.3,0.3c0.1,0.1,0.3,0.1,0.5,0.1    c0.1,0,0.3,0,0.4-0.1c0.2,0,0.3-0.1,0.3-0.1h0V98.3z"/>
		<path d="M199.2,90.2L198,92h-0.7l0.8-1.8H199.2z M198.3,98.3h-0.9v-5.5h0.9V98.3z"/>
		<path d="M148.9,108.3H148v-0.6c-0.2,0.2-0.5,0.4-0.8,0.5s-0.6,0.2-0.9,0.2c-0.6,0-1.1-0.3-1.5-0.8c-0.4-0.5-0.5-1.2-0.5-2.1    c0-0.5,0.1-0.9,0.2-1.2s0.3-0.7,0.5-0.9c0.2-0.2,0.5-0.4,0.7-0.6c0.3-0.1,0.6-0.2,0.9-0.2c0.3,0,0.5,0,0.7,0.1    c0.2,0.1,0.4,0.2,0.7,0.3v-2.4h0.9V108.3z M148,107v-3.1c-0.2-0.1-0.4-0.2-0.6-0.2s-0.4-0.1-0.6-0.1c-0.5,0-0.9,0.2-1.1,0.5    c-0.3,0.4-0.4,0.9-0.4,1.5c0,0.6,0.1,1.1,0.3,1.5c0.2,0.3,0.5,0.5,1,0.5c0.2,0,0.5-0.1,0.7-0.2C147.6,107.3,147.8,107.2,148,107z"/>
		<path d="M154.9,105.7h-3.8c0,0.3,0,0.6,0.1,0.9c0.1,0.2,0.2,0.5,0.4,0.6c0.2,0.2,0.4,0.3,0.6,0.4c0.2,0.1,0.5,0.1,0.7,0.1    c0.4,0,0.7-0.1,1.1-0.2c0.4-0.1,0.6-0.3,0.8-0.4h0v1c-0.3,0.1-0.6,0.2-0.9,0.3s-0.6,0.1-1,0.1c-0.9,0-1.5-0.2-2-0.7    s-0.7-1.2-0.7-2.1c0-0.9,0.2-1.6,0.7-2.1c0.5-0.5,1.1-0.8,1.8-0.8c0.7,0,1.2,0.2,1.6,0.6c0.4,0.4,0.6,1,0.6,1.8V105.7z M154,105    c0-0.5-0.1-0.9-0.3-1.1s-0.6-0.4-1-0.4c-0.5,0-0.8,0.1-1.1,0.4s-0.4,0.6-0.5,1.1H154z"/>
		<path d="M164,108.3h-4.3v-7.3h0.9v6.4h3.4V108.3z"/>
		<path d="M165.7,108.3h-0.9v-7.6h0.9V108.3z"/>
		<path d="M171.7,108.3h-0.9v-0.6c-0.3,0.2-0.6,0.4-0.8,0.6s-0.6,0.2-0.9,0.2c-0.5,0-1-0.2-1.3-0.5c-0.3-0.4-0.5-0.9-0.5-1.5v-3.5    h0.9v3.1c0,0.3,0,0.5,0,0.7c0,0.2,0.1,0.4,0.2,0.5c0.1,0.1,0.2,0.2,0.3,0.3s0.3,0.1,0.6,0.1c0.2,0,0.5-0.1,0.7-0.2    s0.5-0.3,0.7-0.5v-4.1h0.9V108.3z"/>
		<path d="M177.2,108c-0.1,0-0.2,0.1-0.3,0.1c-0.1,0.1-0.2,0.1-0.3,0.1c0,0.1,0,0.1,0,0.2s0,0.2,0,0.3c0,0.5-0.1,0.9-0.4,1.2    s-0.6,0.4-1.1,0.4c-0.1,0-0.3,0-0.4,0c-0.2,0-0.3-0.1-0.5-0.1v-0.8h0c0.1,0,0.2,0.1,0.3,0.1s0.3,0.1,0.4,0.1    c0.3,0,0.6-0.1,0.7-0.2s0.2-0.3,0.2-0.6c0-0.1,0-0.1,0-0.2c0-0.1,0-0.1,0-0.2c0,0-0.1,0-0.1,0c0,0-0.1,0-0.2,0    c-0.4,0-0.7-0.1-1-0.2c-0.3-0.1-0.6-0.3-0.8-0.5c-0.2-0.2-0.4-0.5-0.5-0.9s-0.2-0.8-0.2-1.3c0-0.9,0.2-1.6,0.7-2.1    s1.1-0.8,1.8-0.8c0.3,0,0.6,0,0.9,0.1c0.3,0.1,0.5,0.2,0.8,0.3v1h0c-0.3-0.2-0.5-0.4-0.8-0.5c-0.3-0.1-0.6-0.2-0.8-0.2    c-0.5,0-0.9,0.2-1.2,0.5c-0.3,0.4-0.4,0.9-0.4,1.5c0,0.7,0.1,1.2,0.4,1.5s0.7,0.5,1.2,0.5c0.2,0,0.4,0,0.5-0.1s0.3-0.1,0.5-0.2    c0.1-0.1,0.2-0.1,0.4-0.2c0.1-0.1,0.2-0.1,0.3-0.2h0V108z"/>
		<path d="M182.3,108.3h-0.9v-0.6c-0.1,0.1-0.2,0.1-0.3,0.2c-0.1,0.1-0.3,0.2-0.4,0.2c-0.1,0.1-0.3,0.1-0.5,0.2    c-0.2,0.1-0.4,0.1-0.7,0.1c-0.5,0-0.9-0.2-1.2-0.5c-0.3-0.3-0.5-0.7-0.5-1.2c0-0.4,0.1-0.7,0.3-1c0.2-0.3,0.4-0.5,0.7-0.6    c0.3-0.1,0.7-0.2,1.1-0.3s0.9-0.1,1.4-0.1v-0.1c0-0.2,0-0.4-0.1-0.5s-0.2-0.2-0.3-0.3c-0.1-0.1-0.3-0.1-0.4-0.2s-0.4,0-0.5,0    c-0.2,0-0.5,0-0.8,0.1c-0.3,0.1-0.6,0.2-0.9,0.3h0V103c0.2,0,0.4-0.1,0.7-0.2c0.3-0.1,0.6-0.1,0.9-0.1c0.4,0,0.7,0,0.9,0.1    s0.5,0.2,0.7,0.3c0.2,0.1,0.3,0.3,0.4,0.6s0.2,0.5,0.2,0.9V108.3z M181.4,107v-1.5c-0.3,0-0.6,0-0.9,0.1s-0.6,0.1-0.9,0.1    c-0.2,0.1-0.5,0.2-0.6,0.3s-0.2,0.4-0.2,0.7c0,0.3,0.1,0.5,0.3,0.7s0.5,0.2,0.8,0.2c0.3,0,0.6-0.1,0.8-0.2    C181,107.3,181.2,107.2,181.4,107z"/>
		<path d="M188.3,108.3h-0.9v-3.1c0-0.3,0-0.5,0-0.7c0-0.2-0.1-0.4-0.2-0.5c-0.1-0.1-0.2-0.2-0.3-0.3s-0.3-0.1-0.6-0.1    c-0.2,0-0.5,0.1-0.7,0.2s-0.5,0.3-0.7,0.5v4.1H184v-5.5h0.9v0.6c0.3-0.2,0.6-0.4,0.8-0.6s0.6-0.2,0.9-0.2c0.6,0,1,0.2,1.3,0.5    c0.3,0.4,0.4,0.9,0.4,1.5V108.3z"/>
		<path d="M194.3,105.7h-3.8c0,0.3,0,0.6,0.1,0.9s0.2,0.5,0.4,0.6c0.2,0.2,0.4,0.3,0.6,0.4c0.2,0.1,0.5,0.1,0.7,0.1    c0.4,0,0.7-0.1,1.1-0.2c0.4-0.1,0.6-0.3,0.8-0.4h0v1c-0.3,0.1-0.6,0.2-0.9,0.3c-0.3,0.1-0.6,0.1-1,0.1c-0.9,0-1.5-0.2-2-0.7    s-0.7-1.2-0.7-2.1c0-0.9,0.2-1.6,0.7-2.1s1.1-0.8,1.8-0.8c0.7,0,1.2,0.2,1.6,0.6c0.4,0.4,0.6,1,0.6,1.8V105.7z M193.4,105    c0-0.5-0.1-0.9-0.3-1.1s-0.6-0.4-1-0.4c-0.5,0-0.8,0.1-1.1,0.4s-0.4,0.6-0.5,1.1H193.4z M192.6,102h-0.7l-1.3-1.8h1.1L192.6,102z"/>
		<path d="M198.9,105.8c0.2,0.2,0.3,0.6,0.3,1c0,0.5-0.2,0.9-0.6,1.2s-0.9,0.5-1.6,0.5c-0.4,0-0.7,0-1-0.1s-0.6-0.2-0.8-0.3v-1h0    c0.3,0.2,0.6,0.4,0.9,0.5s0.7,0.2,1,0.2c0.4,0,0.7-0.1,0.9-0.2c0.2-0.1,0.3-0.3,0.3-0.6c0-0.2-0.1-0.4-0.2-0.5    c-0.1-0.1-0.3-0.2-0.7-0.3c-0.1,0-0.3-0.1-0.5-0.1c-0.2,0-0.4-0.1-0.5-0.1c-0.5-0.1-0.8-0.3-1-0.6s-0.3-0.5-0.3-0.9    c0-0.2,0-0.4,0.1-0.6c0.1-0.2,0.2-0.4,0.4-0.5c0.2-0.2,0.4-0.3,0.7-0.4s0.6-0.1,0.9-0.1c0.3,0,0.6,0,0.9,0.1    c0.3,0.1,0.6,0.2,0.8,0.3v1h0c-0.2-0.2-0.5-0.3-0.8-0.4s-0.6-0.2-0.9-0.2c-0.3,0-0.6,0.1-0.8,0.2s-0.3,0.3-0.3,0.6    c0,0.2,0.1,0.4,0.2,0.5c0.1,0.1,0.3,0.2,0.6,0.3c0.2,0,0.3,0.1,0.5,0.1c0.2,0,0.4,0.1,0.5,0.1    C198.4,105.4,198.7,105.6,198.9,105.8L198.9,105.8z"/>
	</g>
	<g>
		<path d="M89,174.8c0.3,0.3,0.5,0.7,0.6,1.2c0.1,0.5,0.2,1,0.2,1.6s-0.1,1.1-0.2,1.6c-0.2,0.5-0.4,0.9-0.6,1.2    c-0.3,0.3-0.6,0.6-1,0.7s-0.8,0.2-1.3,0.2c-0.5,0-0.9-0.1-1.3-0.3c-0.4-0.2-0.7-0.4-1-0.7s-0.5-0.7-0.6-1.2s-0.2-1-0.2-1.6    c0-0.6,0.1-1.1,0.2-1.6c0.1-0.5,0.4-0.9,0.6-1.2c0.3-0.3,0.6-0.6,1-0.7s0.8-0.3,1.3-0.3c0.5,0,0.9,0.1,1.3,0.3    C88.4,174.3,88.8,174.5,89,174.8z M89,177.6c0-0.9-0.2-1.7-0.6-2.2s-0.9-0.8-1.6-0.8c-0.7,0-1.2,0.3-1.6,0.8s-0.6,1.2-0.6,2.2    c0,1,0.2,1.7,0.6,2.2c0.4,0.5,1,0.8,1.6,0.8c0.7,0,1.2-0.3,1.6-0.8C88.8,179.3,89,178.6,89,177.6z"/>
		<path d="M92.2,181.2h-0.9v-7.6h0.9V181.2z"/>
		<path d="M98.3,178.5c0,0.9-0.2,1.6-0.6,2.1s-1,0.8-1.7,0.8c-0.7,0-1.3-0.3-1.7-0.8c-0.4-0.5-0.6-1.2-0.6-2.1s0.2-1.6,0.6-2.1    c0.4-0.5,1-0.8,1.7-0.8c0.7,0,1.3,0.3,1.7,0.8S98.3,177.6,98.3,178.5z M97.4,178.5c0-0.7-0.1-1.2-0.4-1.6    c-0.3-0.3-0.6-0.5-1.1-0.5c-0.5,0-0.8,0.2-1.1,0.5s-0.4,0.9-0.4,1.6c0,0.7,0.1,1.2,0.4,1.6c0.3,0.4,0.6,0.5,1.1,0.5    c0.5,0,0.8-0.2,1.1-0.5S97.4,179.2,97.4,178.5z"/>
		<path d="M103,178.7c0.2,0.2,0.3,0.6,0.3,1c0,0.5-0.2,0.9-0.6,1.2s-0.9,0.5-1.6,0.5c-0.4,0-0.7,0-1-0.1s-0.6-0.2-0.8-0.3v-1h0    c0.3,0.2,0.6,0.4,0.9,0.5s0.7,0.2,1,0.2c0.4,0,0.7-0.1,0.9-0.2s0.3-0.3,0.3-0.6c0-0.2-0.1-0.4-0.2-0.5s-0.3-0.2-0.7-0.3    c-0.1,0-0.3-0.1-0.5-0.1c-0.2,0-0.4-0.1-0.5-0.1c-0.5-0.1-0.8-0.3-1-0.6c-0.2-0.2-0.3-0.5-0.3-0.9c0-0.2,0-0.4,0.1-0.6    c0.1-0.2,0.2-0.4,0.4-0.5c0.2-0.2,0.4-0.3,0.7-0.4s0.6-0.1,0.9-0.1c0.3,0,0.6,0,0.9,0.1c0.3,0.1,0.6,0.2,0.8,0.3v1h0    c-0.2-0.2-0.5-0.3-0.8-0.4c-0.3-0.1-0.6-0.2-0.9-0.2c-0.3,0-0.6,0.1-0.8,0.2s-0.3,0.3-0.3,0.6c0,0.2,0.1,0.4,0.2,0.5    c0.1,0.1,0.3,0.2,0.6,0.3c0.2,0,0.3,0.1,0.5,0.1c0.2,0,0.4,0.1,0.5,0.1C102.4,178.3,102.7,178.5,103,178.7L103,178.7z"/>
		<path d="M107.2,181.2c-0.2,0-0.3,0.1-0.5,0.1s-0.4,0-0.5,0c-0.5,0-0.9-0.1-1.2-0.4c-0.3-0.3-0.4-0.8-0.4-1.4v-2.9H104v-0.8h0.6    v-1.6h0.9v1.6h1.8v0.8h-1.8v2.5c0,0.3,0,0.5,0,0.7s0.1,0.3,0.1,0.5c0.1,0.1,0.2,0.2,0.3,0.3c0.1,0.1,0.3,0.1,0.5,0.1    c0.1,0,0.3,0,0.4-0.1s0.3-0.1,0.3-0.1h0V181.2z"/>
	</g>
	<g>
		<path d="M154.4,149.2c0,0.3-0.1,0.6-0.2,0.8s-0.3,0.5-0.5,0.7c-0.2,0.2-0.5,0.4-0.9,0.5s-0.7,0.2-1.2,0.2c-0.5,0-0.9,0-1.3-0.1    c-0.4-0.1-0.8-0.2-1.2-0.4v-1.2h0.1c0.3,0.3,0.7,0.5,1.2,0.7s0.9,0.2,1.3,0.2c0.6,0,1-0.1,1.3-0.3c0.3-0.2,0.5-0.5,0.5-0.9    c0-0.3-0.1-0.6-0.2-0.7c-0.1-0.2-0.4-0.3-0.7-0.4c-0.2-0.1-0.5-0.1-0.8-0.2c-0.3,0-0.6-0.1-0.9-0.2c-0.6-0.1-1.1-0.4-1.4-0.7    c-0.3-0.3-0.4-0.8-0.4-1.3c0-0.6,0.2-1.1,0.7-1.5c0.5-0.4,1.1-0.6,1.9-0.6c0.5,0,0.9,0,1.3,0.1c0.4,0.1,0.8,0.2,1.1,0.4v1.1H154    c-0.3-0.2-0.6-0.4-1-0.6c-0.4-0.2-0.9-0.2-1.3-0.2c-0.5,0-0.9,0.1-1.2,0.3s-0.4,0.5-0.4,0.8c0,0.3,0.1,0.5,0.2,0.7    c0.1,0.2,0.4,0.3,0.8,0.4c0.2,0,0.5,0.1,0.8,0.2c0.4,0.1,0.7,0.1,0.9,0.2c0.5,0.1,0.9,0.4,1.2,0.6S154.4,148.7,154.4,149.2z"/>
		<path d="M159.8,151.3h-0.9v-0.6c-0.1,0.1-0.2,0.1-0.3,0.2s-0.3,0.2-0.4,0.2c-0.1,0.1-0.3,0.1-0.5,0.2c-0.2,0.1-0.4,0.1-0.7,0.1    c-0.5,0-0.9-0.2-1.2-0.5c-0.3-0.3-0.5-0.7-0.5-1.2c0-0.4,0.1-0.7,0.3-1c0.2-0.3,0.4-0.5,0.7-0.6c0.3-0.1,0.7-0.2,1.1-0.3    c0.4-0.1,0.9-0.1,1.4-0.1v-0.1c0-0.2,0-0.4-0.1-0.5s-0.2-0.2-0.3-0.3c-0.1-0.1-0.3-0.1-0.4-0.2s-0.4,0-0.5,0c-0.2,0-0.5,0-0.8,0.1    c-0.3,0.1-0.6,0.2-0.9,0.3h0v-0.9c0.2,0,0.4-0.1,0.7-0.2s0.6-0.1,0.9-0.1c0.4,0,0.7,0,0.9,0.1s0.5,0.2,0.7,0.3    c0.2,0.1,0.3,0.3,0.4,0.6s0.2,0.5,0.2,0.9V151.3z M158.9,149.9v-1.5c-0.3,0-0.6,0-0.9,0.1s-0.6,0.1-0.9,0.1    c-0.2,0.1-0.5,0.2-0.6,0.3c-0.2,0.2-0.2,0.4-0.2,0.7c0,0.3,0.1,0.5,0.3,0.7s0.5,0.2,0.8,0.2c0.3,0,0.6-0.1,0.8-0.2    C158.5,150.3,158.7,150.1,158.9,149.9z"/>
		<path d="M165.8,151.3h-0.9v-3.1c0-0.3,0-0.5,0-0.7c0-0.2-0.1-0.4-0.2-0.5c-0.1-0.1-0.2-0.2-0.3-0.3s-0.3-0.1-0.6-0.1    c-0.2,0-0.5,0.1-0.7,0.2s-0.5,0.3-0.7,0.5v4.1h-0.9v-5.5h0.9v0.6c0.3-0.2,0.6-0.4,0.8-0.6s0.6-0.2,0.9-0.2c0.6,0,1,0.2,1.3,0.5    c0.3,0.4,0.4,0.9,0.4,1.5V151.3z"/>
		<path d="M170.1,151.2c-0.2,0-0.3,0.1-0.5,0.1s-0.4,0-0.5,0c-0.5,0-0.9-0.1-1.2-0.4c-0.3-0.3-0.4-0.8-0.4-1.4v-2.9h-0.6v-0.8h0.6    v-1.6h0.9v1.6h1.8v0.8h-1.8v2.5c0,0.3,0,0.5,0,0.7s0.1,0.3,0.1,0.5c0.1,0.1,0.2,0.2,0.3,0.3c0.1,0.1,0.3,0.1,0.5,0.1    c0.1,0,0.3,0,0.4-0.1s0.3-0.1,0.3-0.1h0V151.2z"/>
		<path d="M179.8,151.3h-0.9v-3.6h-3.4v3.6h-0.9V144h0.9v2.9h3.4V144h0.9V151.3z"/>
		<path d="M182.5,144.9h-1v-1h1V144.9z M182.5,151.3h-0.9v-5.5h0.9V151.3z"/>
		<path d="M188.7,148.5c0,0.4-0.1,0.8-0.2,1.2c-0.1,0.4-0.3,0.7-0.5,0.9c-0.2,0.2-0.4,0.4-0.7,0.6c-0.3,0.1-0.6,0.2-0.9,0.2    c-0.3,0-0.5,0-0.7-0.1c-0.2-0.1-0.4-0.2-0.7-0.3v2.3h-0.9v-7.5h0.9v0.6c0.2-0.2,0.5-0.4,0.8-0.5c0.3-0.1,0.6-0.2,0.9-0.2    c0.6,0,1.1,0.2,1.5,0.7S188.7,147.6,188.7,148.5z M187.8,148.5c0-0.7-0.1-1.1-0.3-1.5c-0.2-0.3-0.5-0.5-1-0.5    c-0.2,0-0.5,0.1-0.8,0.2c-0.3,0.1-0.5,0.3-0.7,0.4v3.1c0.2,0.1,0.5,0.2,0.6,0.2c0.2,0,0.4,0.1,0.6,0.1c0.5,0,0.9-0.2,1.1-0.5    S187.8,149.2,187.8,148.5z"/>
		<path d="M194.5,148.6c0,0.9-0.2,1.6-0.6,2.1s-1,0.8-1.7,0.8c-0.7,0-1.3-0.3-1.7-0.8s-0.6-1.2-0.6-2.1s0.2-1.6,0.6-2.1    s1-0.8,1.7-0.8c0.7,0,1.3,0.3,1.7,0.8S194.5,147.7,194.5,148.6z M193.6,148.6c0-0.7-0.1-1.2-0.4-1.6c-0.3-0.3-0.6-0.5-1.1-0.5    c-0.5,0-0.8,0.2-1.1,0.5c-0.3,0.3-0.4,0.9-0.4,1.6c0,0.7,0.1,1.2,0.4,1.6c0.3,0.4,0.6,0.5,1.1,0.5c0.5,0,0.8-0.2,1.1-0.5    C193.4,149.8,193.6,149.2,193.6,148.6z M192.6,144.9h-0.7l-1.3-1.8h1.1L192.6,144.9z"/>
		<path d="M196.7,151.3h-0.9v-7.6h0.9V151.3z"/>
		<path d="M199.3,144.9h-1v-1h1V144.9z M199.3,151.3h-0.9v-5.5h0.9V151.3z"/>
		<path d="M203.6,151.2c-0.2,0-0.3,0.1-0.5,0.1s-0.4,0-0.5,0c-0.5,0-0.9-0.1-1.2-0.4c-0.3-0.3-0.4-0.8-0.4-1.4v-2.9h-0.6v-0.8h0.6    v-1.6h0.9v1.6h1.8v0.8h-1.8v2.5c0,0.3,0,0.5,0,0.7s0.1,0.3,0.1,0.5c0.1,0.1,0.2,0.2,0.3,0.3c0.1,0.1,0.3,0.1,0.5,0.1    c0.1,0,0.3,0,0.4-0.1s0.3-0.1,0.3-0.1h0V151.2z"/>
		<path d="M154.1,161.3h-0.9v-0.6c-0.2,0.2-0.5,0.4-0.8,0.5c-0.3,0.1-0.6,0.2-0.9,0.2c-0.6,0-1.1-0.3-1.5-0.8    c-0.4-0.5-0.5-1.2-0.5-2.1c0-0.5,0.1-0.9,0.2-1.2s0.3-0.7,0.5-0.9c0.2-0.2,0.5-0.4,0.7-0.6c0.3-0.1,0.6-0.2,0.9-0.2    c0.3,0,0.5,0,0.7,0.1c0.2,0.1,0.4,0.2,0.7,0.3v-2.4h0.9V161.3z M153.3,159.9v-3.1c-0.2-0.1-0.4-0.2-0.6-0.2s-0.4-0.1-0.6-0.1    c-0.5,0-0.9,0.2-1.1,0.5s-0.4,0.9-0.4,1.5c0,0.6,0.1,1.1,0.3,1.5s0.5,0.5,1,0.5c0.2,0,0.5-0.1,0.7-0.2S153,160.1,153.3,159.9z"/>
		<path d="M160.1,158.6h-3.8c0,0.3,0,0.6,0.1,0.9c0.1,0.2,0.2,0.5,0.4,0.6c0.2,0.2,0.3,0.3,0.6,0.4c0.2,0.1,0.5,0.1,0.7,0.1    c0.4,0,0.7-0.1,1.1-0.2s0.6-0.3,0.8-0.4h0v1c-0.3,0.1-0.6,0.2-0.9,0.3s-0.6,0.1-1,0.1c-0.9,0-1.5-0.2-2-0.7s-0.7-1.2-0.7-2.1    c0-0.9,0.2-1.6,0.7-2.1c0.5-0.5,1.1-0.8,1.8-0.8c0.7,0,1.2,0.2,1.6,0.6c0.4,0.4,0.6,1,0.6,1.8V158.6z M159.3,157.9    c0-0.5-0.1-0.9-0.3-1.1s-0.6-0.4-1-0.4c-0.5,0-0.8,0.1-1.1,0.4s-0.4,0.6-0.5,1.1H159.3z"/>
		<path d="M170.3,154l-2.5,7.3h-1.2l-2.5-7.3h1l2.2,6.4l2.2-6.4H170.3z"/>
		<path d="M175.2,158.6c0,0.9-0.2,1.6-0.6,2.1s-1,0.8-1.7,0.8c-0.7,0-1.3-0.3-1.7-0.8s-0.6-1.2-0.6-2.1s0.2-1.6,0.6-2.1    s1-0.8,1.7-0.8c0.7,0,1.3,0.3,1.7,0.8S175.2,157.7,175.2,158.6z M174.3,158.6c0-0.7-0.1-1.2-0.4-1.6c-0.3-0.3-0.6-0.5-1.1-0.5    c-0.5,0-0.8,0.2-1.1,0.5c-0.3,0.3-0.4,0.9-0.4,1.6c0,0.7,0.1,1.2,0.4,1.6c0.3,0.4,0.6,0.5,1.1,0.5c0.5,0,0.8-0.2,1.1-0.5    C174.1,159.8,174.3,159.2,174.3,158.6z"/>
		<path d="M177.4,161.3h-0.9v-7.6h0.9V161.3z"/>
		<path d="M181.8,161.2c-0.2,0-0.3,0.1-0.5,0.1s-0.4,0-0.5,0c-0.5,0-0.9-0.1-1.2-0.4c-0.3-0.3-0.4-0.8-0.4-1.4v-2.9h-0.6v-0.8h0.6    v-1.6h0.9v1.6h1.8v0.8H180v2.5c0,0.3,0,0.5,0,0.7s0.1,0.3,0.1,0.5c0.1,0.1,0.2,0.2,0.3,0.3c0.1,0.1,0.3,0.1,0.5,0.1    c0.1,0,0.3,0,0.4-0.1s0.3-0.1,0.3-0.1h0V161.2z"/>
		<path d="M186,156.8L186,156.8c-0.2,0-0.3-0.1-0.4-0.1s-0.3,0-0.4,0c-0.3,0-0.5,0.1-0.8,0.2s-0.5,0.3-0.7,0.5v3.9h-0.9v-5.5h0.9    v0.8c0.3-0.3,0.6-0.5,0.9-0.6s0.5-0.2,0.8-0.2c0.2,0,0.3,0,0.3,0c0.1,0,0.2,0,0.3,0V156.8z"/>
		<path d="M191.2,158.6h-3.8c0,0.3,0,0.6,0.1,0.9c0.1,0.2,0.2,0.5,0.4,0.6c0.2,0.2,0.3,0.3,0.6,0.4c0.2,0.1,0.5,0.1,0.7,0.1    c0.4,0,0.7-0.1,1.1-0.2s0.6-0.3,0.8-0.4h0v1c-0.3,0.1-0.6,0.2-0.9,0.3c-0.3,0.1-0.6,0.1-1,0.1c-0.9,0-1.5-0.2-2-0.7    s-0.7-1.2-0.7-2.1c0-0.9,0.2-1.6,0.7-2.1s1.1-0.8,1.8-0.8c0.7,0,1.2,0.2,1.6,0.6s0.6,1,0.6,1.8V158.6z M190.3,157.9    c0-0.5-0.1-0.9-0.3-1.1c-0.2-0.3-0.6-0.4-1-0.4c-0.5,0-0.8,0.1-1.1,0.4c-0.3,0.3-0.4,0.6-0.5,1.1H190.3z"/>
		<path d="M196.7,160.7c0,0.9-0.2,1.6-0.6,2c-0.4,0.4-1,0.6-1.8,0.6c-0.3,0-0.5,0-0.8-0.1c-0.3,0-0.5-0.1-0.8-0.2v-0.9h0    c0.1,0.1,0.4,0.1,0.7,0.2s0.6,0.1,0.9,0.1c0.3,0,0.5,0,0.7-0.1c0.2-0.1,0.3-0.2,0.5-0.3c0.1-0.1,0.2-0.3,0.2-0.5    c0-0.2,0.1-0.4,0.1-0.6v-0.5c-0.3,0.2-0.5,0.4-0.8,0.5c-0.2,0.1-0.5,0.2-0.9,0.2c-0.6,0-1.1-0.2-1.5-0.7c-0.4-0.5-0.5-1.1-0.5-2    c0-0.5,0.1-0.9,0.2-1.2s0.3-0.6,0.5-0.9c0.2-0.2,0.4-0.4,0.7-0.5s0.6-0.2,0.9-0.2c0.3,0,0.5,0,0.8,0.1s0.4,0.2,0.6,0.3l0.1-0.2    h0.8V160.7z M195.8,159.8v-3c-0.2-0.1-0.4-0.2-0.6-0.2c-0.2,0-0.4-0.1-0.6-0.1c-0.5,0-0.9,0.2-1.1,0.5c-0.3,0.3-0.4,0.8-0.4,1.5    c0,0.6,0.1,1.1,0.3,1.4s0.5,0.5,1,0.5c0.3,0,0.5-0.1,0.8-0.2C195.4,160.1,195.6,160,195.8,159.8z"/>
		<path d="M202.4,161.3h-0.9v-0.6c-0.1,0.1-0.2,0.1-0.3,0.2s-0.3,0.2-0.4,0.2c-0.1,0.1-0.3,0.1-0.5,0.2c-0.2,0.1-0.4,0.1-0.7,0.1    c-0.5,0-0.9-0.2-1.2-0.5c-0.3-0.3-0.5-0.7-0.5-1.2c0-0.4,0.1-0.7,0.3-1c0.2-0.3,0.4-0.5,0.7-0.6c0.3-0.1,0.7-0.2,1.1-0.3    c0.4-0.1,0.9-0.1,1.4-0.1v-0.1c0-0.2,0-0.4-0.1-0.5s-0.2-0.2-0.3-0.3c-0.1-0.1-0.3-0.1-0.4-0.2s-0.4,0-0.5,0c-0.2,0-0.5,0-0.8,0.1    c-0.3,0.1-0.6,0.2-0.9,0.3h0v-0.9c0.2,0,0.4-0.1,0.7-0.2s0.6-0.1,0.9-0.1c0.4,0,0.7,0,0.9,0.1s0.5,0.2,0.7,0.3    c0.2,0.1,0.3,0.3,0.4,0.6s0.2,0.5,0.2,0.9V161.3z M201.5,159.9v-1.5c-0.3,0-0.6,0-0.9,0.1s-0.6,0.1-0.9,0.1    c-0.2,0.1-0.5,0.2-0.6,0.3s-0.2,0.4-0.2,0.7c0,0.3,0.1,0.5,0.3,0.7c0.2,0.2,0.5,0.2,0.8,0.2c0.3,0,0.6-0.1,0.8-0.2    C201.1,160.3,201.3,160.1,201.5,159.9z M200.9,154.9h-0.7l-1.3-1.8h1.1L200.9,154.9z"/>
	</g>
	<g>
		<path d="M195.4,215.9c-0.4,0.2-0.8,0.3-1.2,0.5c-0.4,0.1-0.9,0.2-1.3,0.2c-0.5,0-1-0.1-1.5-0.2c-0.4-0.2-0.8-0.4-1.1-0.7    c-0.3-0.3-0.6-0.7-0.7-1.2s-0.3-1-0.3-1.7c0-1.2,0.3-2.1,1-2.8s1.5-1,2.6-1c0.4,0,0.8,0,1.2,0.1c0.4,0.1,0.8,0.3,1.3,0.5v1.1h-0.1    c-0.1-0.1-0.2-0.2-0.4-0.3s-0.4-0.2-0.5-0.3c-0.2-0.1-0.5-0.2-0.7-0.3c-0.3-0.1-0.6-0.1-0.9-0.1c-0.8,0-1.4,0.3-1.8,0.8    c-0.4,0.5-0.7,1.2-0.7,2.1c0,0.9,0.2,1.7,0.7,2.2c0.5,0.5,1.1,0.8,1.9,0.8c0.3,0,0.6,0,0.9-0.1c0.3-0.1,0.6-0.1,0.8-0.2v-1.8h-1.8    v-0.8h2.7V215.9z"/>
		<path d="M201.2,216.4h-0.9v-0.6c-0.3,0.2-0.6,0.4-0.8,0.6c-0.3,0.1-0.6,0.2-0.9,0.2c-0.5,0-1-0.2-1.3-0.5    c-0.3-0.4-0.5-0.9-0.5-1.5V211h0.9v3.1c0,0.3,0,0.5,0,0.7c0,0.2,0.1,0.4,0.2,0.5c0.1,0.1,0.2,0.2,0.3,0.3c0.1,0.1,0.3,0.1,0.6,0.1    c0.2,0,0.5-0.1,0.7-0.2c0.3-0.1,0.5-0.3,0.7-0.5V211h0.9V216.4z"/>
		<path d="M206.2,212L206.2,212c-0.2,0-0.3-0.1-0.4-0.1s-0.3,0-0.4,0c-0.3,0-0.5,0.1-0.8,0.2s-0.5,0.3-0.7,0.5v3.9h-0.9V211h0.9v0.8    c0.3-0.3,0.6-0.5,0.9-0.6s0.5-0.2,0.8-0.2c0.2,0,0.3,0,0.3,0s0.2,0,0.3,0V212z"/>
		<path d="M211.5,213.7c0,0.5-0.1,0.9-0.2,1.2c-0.1,0.4-0.3,0.7-0.5,0.9c-0.2,0.3-0.5,0.5-0.7,0.6c-0.3,0.1-0.5,0.2-0.9,0.2    c-0.3,0-0.5,0-0.8-0.1c-0.2-0.1-0.4-0.2-0.6-0.3l-0.1,0.3H207v-7.6h0.9v2.7c0.2-0.2,0.5-0.4,0.8-0.5c0.3-0.1,0.6-0.2,0.9-0.2    c0.6,0,1.1,0.2,1.4,0.7C211.3,212.1,211.5,212.8,211.5,213.7z M210.6,213.7c0-0.7-0.1-1.1-0.3-1.5c-0.2-0.3-0.5-0.5-1-0.5    c-0.3,0-0.5,0.1-0.8,0.2s-0.5,0.3-0.7,0.4v3.1c0.2,0.1,0.5,0.2,0.6,0.2c0.2,0,0.4,0.1,0.6,0.1c0.5,0,0.9-0.2,1.1-0.5    S210.6,214.4,210.6,213.7z"/>
	</g>
	<g>
		<path d="M213.3,259l-2.5,7.3h-1.2l-2.5-7.3h1l2.2,6.4l2.2-6.4H213.3z"/>
		<path d="M215.2,259.9h-1v-1h1V259.9z M215.2,266.3h-0.9v-5.5h0.9V266.3z"/>
		<path d="M220.7,265.9c-0.3,0.1-0.6,0.3-0.8,0.3c-0.3,0.1-0.5,0.1-0.8,0.1c-0.4,0-0.7-0.1-1-0.2c-0.3-0.1-0.6-0.3-0.8-0.5    c-0.2-0.2-0.4-0.5-0.5-0.9s-0.2-0.8-0.2-1.3c0-0.9,0.2-1.6,0.7-2.1c0.5-0.5,1.1-0.8,1.8-0.8c0.3,0,0.6,0,0.9,0.1    c0.3,0.1,0.5,0.2,0.8,0.3v1h0c-0.3-0.2-0.5-0.4-0.8-0.5c-0.3-0.1-0.6-0.2-0.8-0.2c-0.5,0-0.9,0.2-1.2,0.5    c-0.3,0.3-0.4,0.9-0.4,1.5c0,0.7,0.1,1.2,0.4,1.5c0.3,0.4,0.7,0.5,1.2,0.5c0.2,0,0.4,0,0.5-0.1c0.2,0,0.3-0.1,0.5-0.2    c0.1-0.1,0.2-0.1,0.4-0.2c0.1-0.1,0.2-0.1,0.3-0.2h0V265.9z"/>
	</g>
	<g>
		<path d="M170.9,297.7H170v-6.3l-1.9,4.3h-0.5l-1.9-4.3v6.3h-0.9v-7.3h1.2l1.8,4l1.8-4h1.3V297.7z"/>
		<path d="M176.9,297.7h-0.9v-0.6c-0.3,0.2-0.6,0.4-0.8,0.6s-0.6,0.2-0.9,0.2c-0.5,0-1-0.2-1.3-0.5c-0.3-0.3-0.5-0.9-0.5-1.5v-3.5    h0.9v3.1c0,0.3,0,0.5,0,0.7c0,0.2,0.1,0.4,0.2,0.5c0.1,0.1,0.2,0.2,0.3,0.3s0.3,0.1,0.6,0.1c0.2,0,0.5-0.1,0.7-0.2    s0.5-0.3,0.7-0.5v-4.1h0.9V297.7z"/>
		<path d="M183,297.7h-0.9v-3.1c0-0.3,0-0.5,0-0.7c0-0.2-0.1-0.4-0.2-0.5c-0.1-0.1-0.2-0.2-0.3-0.3c-0.1-0.1-0.3-0.1-0.6-0.1    c-0.2,0-0.5,0.1-0.7,0.2c-0.3,0.1-0.5,0.3-0.7,0.5v4.1h-0.9v-5.5h0.9v0.6c0.3-0.2,0.6-0.4,0.8-0.6s0.6-0.2,0.9-0.2    c0.6,0,1,0.2,1.3,0.5c0.3,0.4,0.4,0.9,0.4,1.5V297.7z"/>
		<path d="M187.3,297.6c-0.2,0-0.3,0.1-0.5,0.1s-0.4,0-0.5,0c-0.5,0-0.9-0.1-1.2-0.4s-0.4-0.8-0.4-1.4V293h-0.6v-0.8h0.6v-1.6h0.9    v1.6h1.8v0.8h-1.8v2.5c0,0.3,0,0.5,0,0.7c0,0.2,0.1,0.3,0.1,0.5c0.1,0.1,0.2,0.2,0.3,0.3c0.1,0.1,0.3,0.1,0.5,0.1    c0.1,0,0.3,0,0.4-0.1s0.3-0.1,0.3-0.1h0V297.6z"/>
		<path d="M192.4,297.7h-0.9v-0.6c-0.1,0.1-0.2,0.1-0.3,0.2c-0.1,0.1-0.3,0.2-0.4,0.2c-0.1,0.1-0.3,0.1-0.5,0.2    c-0.2,0.1-0.4,0.1-0.7,0.1c-0.5,0-0.9-0.2-1.2-0.5c-0.3-0.3-0.5-0.7-0.5-1.2c0-0.4,0.1-0.7,0.3-1c0.2-0.3,0.4-0.5,0.7-0.6    c0.3-0.1,0.7-0.2,1.1-0.3s0.9-0.1,1.4-0.1v-0.1c0-0.2,0-0.4-0.1-0.5c-0.1-0.1-0.2-0.2-0.3-0.3c-0.1-0.1-0.3-0.1-0.4-0.2    s-0.4,0-0.5,0c-0.2,0-0.5,0-0.8,0.1s-0.6,0.2-0.9,0.3h0v-0.9c0.2,0,0.4-0.1,0.7-0.2c0.3-0.1,0.6-0.1,0.9-0.1c0.4,0,0.7,0,0.9,0.1    c0.3,0.1,0.5,0.2,0.7,0.3c0.2,0.1,0.3,0.3,0.4,0.6s0.2,0.5,0.2,0.9V297.7z M191.5,296.3v-1.5c-0.3,0-0.6,0-0.9,0.1    s-0.6,0.1-0.9,0.1c-0.2,0.1-0.5,0.2-0.6,0.3c-0.2,0.2-0.2,0.4-0.2,0.7c0,0.3,0.1,0.5,0.3,0.7c0.2,0.2,0.5,0.2,0.8,0.2    c0.3,0,0.6-0.1,0.8-0.2C191,296.6,191.3,296.5,191.5,296.3z"/>
		<path d="M198.3,297.7h-0.9v-3.1c0-0.3,0-0.5,0-0.7s-0.1-0.4-0.2-0.5c-0.1-0.1-0.2-0.2-0.3-0.3c-0.1-0.1-0.3-0.1-0.6-0.1    c-0.2,0-0.5,0.1-0.7,0.2c-0.3,0.1-0.5,0.3-0.7,0.5v4.1H194v-5.5h0.9v0.6c0.3-0.2,0.6-0.4,0.8-0.6s0.6-0.2,0.9-0.2    c0.6,0,1,0.2,1.3,0.5c0.3,0.4,0.4,0.9,0.4,1.5V297.7z"/>
		<path d="M204.4,292.2l-3,7.5h-0.9l1-2.3l-2.1-5.2h0.9l1.6,4l1.6-4H204.4z"/>
		<path d="M209.8,294.9c0,0.9-0.2,1.6-0.6,2.1s-1,0.8-1.7,0.8c-0.7,0-1.3-0.3-1.7-0.8s-0.6-1.2-0.6-2.1s0.2-1.6,0.6-2.1    c0.4-0.5,1-0.8,1.7-0.8c0.7,0,1.3,0.3,1.7,0.8C209.6,293.4,209.8,294.1,209.8,294.9z M208.9,294.9c0-0.7-0.1-1.2-0.4-1.6    c-0.3-0.3-0.6-0.5-1.1-0.5c-0.5,0-0.8,0.2-1.1,0.5c-0.3,0.3-0.4,0.9-0.4,1.6c0,0.7,0.1,1.2,0.4,1.6c0.3,0.4,0.6,0.5,1.1,0.5    c0.5,0,0.8-0.2,1.1-0.5C208.8,296.2,208.9,295.6,208.9,294.9z"/>
		<path d="M212,297.7h-0.9v-7.6h0.9V297.7z"/>
		<path d="M217.7,297.7h-0.9v-0.6c-0.1,0.1-0.2,0.1-0.3,0.2c-0.1,0.1-0.3,0.2-0.4,0.2c-0.1,0.1-0.3,0.1-0.5,0.2    c-0.2,0.1-0.4,0.1-0.7,0.1c-0.5,0-0.9-0.2-1.2-0.5c-0.3-0.3-0.5-0.7-0.5-1.2c0-0.4,0.1-0.7,0.3-1c0.2-0.3,0.4-0.5,0.7-0.6    c0.3-0.1,0.7-0.2,1.1-0.3s0.9-0.1,1.4-0.1v-0.1c0-0.2,0-0.4-0.1-0.5c-0.1-0.1-0.2-0.2-0.3-0.3c-0.1-0.1-0.3-0.1-0.4-0.2    c-0.2,0-0.4,0-0.5,0c-0.2,0-0.5,0-0.8,0.1c-0.3,0.1-0.6,0.2-0.9,0.3h0v-0.9c0.2,0,0.4-0.1,0.7-0.2s0.6-0.1,0.9-0.1    c0.4,0,0.7,0,0.9,0.1c0.3,0.1,0.5,0.2,0.7,0.3c0.2,0.1,0.3,0.3,0.4,0.6s0.2,0.5,0.2,0.9V297.7z M216.9,296.3v-1.5    c-0.3,0-0.6,0-0.9,0.1s-0.6,0.1-0.9,0.1c-0.2,0.1-0.5,0.2-0.6,0.3c-0.2,0.2-0.2,0.4-0.2,0.7c0,0.3,0.1,0.5,0.3,0.7    c0.2,0.2,0.5,0.2,0.8,0.2c0.3,0,0.6-0.1,0.8-0.2C216.4,296.6,216.7,296.5,216.9,296.3z"/>
	</g>
	<g>
		<path d="M246.5,340.7c0,0.3-0.1,0.6-0.2,0.8c-0.1,0.3-0.3,0.5-0.5,0.7c-0.2,0.2-0.5,0.4-0.9,0.5c-0.3,0.1-0.7,0.2-1.2,0.2    c-0.5,0-0.9,0-1.3-0.1c-0.4-0.1-0.8-0.2-1.2-0.4v-1.2h0.1c0.3,0.3,0.7,0.5,1.2,0.7c0.5,0.2,0.9,0.2,1.3,0.2c0.6,0,1-0.1,1.3-0.3    s0.5-0.5,0.5-0.9c0-0.3-0.1-0.6-0.2-0.7s-0.4-0.3-0.7-0.4c-0.2-0.1-0.5-0.1-0.8-0.2c-0.3,0-0.6-0.1-0.9-0.2    c-0.6-0.1-1.1-0.4-1.4-0.7c-0.3-0.3-0.4-0.8-0.4-1.3c0-0.6,0.2-1.1,0.7-1.5c0.5-0.4,1.1-0.6,1.9-0.6c0.5,0,0.9,0,1.3,0.1    c0.4,0.1,0.8,0.2,1.1,0.4v1.1h-0.1c-0.3-0.2-0.6-0.4-1-0.6c-0.4-0.2-0.9-0.2-1.3-0.2c-0.5,0-0.9,0.1-1.2,0.3s-0.4,0.5-0.4,0.8    c0,0.3,0.1,0.5,0.2,0.7s0.4,0.3,0.8,0.4c0.2,0,0.5,0.1,0.8,0.2c0.4,0.1,0.7,0.1,0.9,0.2c0.5,0.1,0.9,0.4,1.2,0.6    C246.4,339.8,246.5,340.2,246.5,340.7z"/>
		<path d="M252.2,340.2h-3.8c0,0.3,0,0.6,0.1,0.9c0.1,0.2,0.2,0.5,0.4,0.6c0.2,0.2,0.4,0.3,0.6,0.4s0.5,0.1,0.7,0.1    c0.4,0,0.7-0.1,1.1-0.2c0.4-0.1,0.6-0.3,0.8-0.4h0v1c-0.3,0.1-0.6,0.2-0.9,0.3c-0.3,0.1-0.6,0.1-1,0.1c-0.9,0-1.5-0.2-2-0.7    c-0.5-0.5-0.7-1.2-0.7-2.1c0-0.9,0.2-1.6,0.7-2.1s1.1-0.8,1.8-0.8c0.7,0,1.2,0.2,1.6,0.6s0.6,1,0.6,1.8V340.2z M251.4,339.5    c0-0.5-0.1-0.9-0.3-1.1c-0.2-0.3-0.6-0.4-1-0.4c-0.5,0-0.8,0.1-1.1,0.4s-0.4,0.6-0.5,1.1H251.4z"/>
		<path d="M258,337.4l-2.1,5.5H255l-2.1-5.5h0.9l1.6,4.3l1.6-4.3H258z"/>
		<path d="M262.9,342.8h-0.9v-0.6c-0.1,0.1-0.2,0.1-0.3,0.2c-0.1,0.1-0.3,0.2-0.4,0.2c-0.1,0.1-0.3,0.1-0.5,0.2    c-0.2,0-0.4,0.1-0.7,0.1c-0.5,0-0.9-0.2-1.2-0.5c-0.3-0.3-0.5-0.7-0.5-1.2c0-0.4,0.1-0.7,0.3-1c0.2-0.3,0.4-0.5,0.7-0.6    c0.3-0.1,0.7-0.2,1.1-0.3c0.4-0.1,0.9-0.1,1.4-0.1v-0.1c0-0.2,0-0.4-0.1-0.5c-0.1-0.1-0.2-0.2-0.3-0.3c-0.1-0.1-0.3-0.1-0.4-0.2    c-0.2,0-0.4,0-0.5,0c-0.2,0-0.5,0-0.8,0.1c-0.3,0.1-0.6,0.2-0.9,0.3h0v-0.9c0.2,0,0.4-0.1,0.7-0.2c0.3-0.1,0.6-0.1,0.9-0.1    c0.4,0,0.7,0,0.9,0.1s0.5,0.2,0.7,0.3c0.2,0.1,0.3,0.3,0.4,0.6c0.1,0.2,0.2,0.5,0.2,0.9V342.8z M262.1,341.5V340    c-0.3,0-0.6,0-0.9,0.1s-0.6,0.1-0.9,0.1c-0.2,0.1-0.5,0.2-0.6,0.3c-0.2,0.2-0.2,0.4-0.2,0.7c0,0.3,0.1,0.5,0.3,0.7    c0.2,0.2,0.5,0.2,0.8,0.2c0.3,0,0.6-0.1,0.8-0.2C261.6,341.8,261.8,341.7,262.1,341.5z"/>
	</g>
	<g>
		<path d="M185.2,369.7c-0.2,0.1-0.3,0.2-0.5,0.2c-0.1,0.1-0.3,0.1-0.5,0.2c-0.2,0.1-0.4,0.1-0.6,0.2c-0.2,0-0.5,0.1-0.7,0.1    c-0.5,0-1-0.1-1.4-0.2c-0.4-0.1-0.8-0.4-1.1-0.7c-0.3-0.3-0.5-0.7-0.7-1.2c-0.2-0.5-0.2-1-0.2-1.7c0-0.6,0.1-1.1,0.2-1.6    s0.4-0.9,0.7-1.2c0.3-0.3,0.6-0.6,1.1-0.7c0.4-0.2,0.9-0.2,1.4-0.2c0.4,0,0.7,0,1.1,0.1c0.4,0.1,0.8,0.3,1.2,0.5v1.1h-0.1    c-0.4-0.3-0.8-0.6-1.1-0.7s-0.8-0.2-1.2-0.2c-0.3,0-0.7,0.1-0.9,0.2c-0.3,0.1-0.5,0.3-0.7,0.6c-0.2,0.2-0.4,0.6-0.5,0.9    c-0.1,0.4-0.2,0.8-0.2,1.3c0,0.5,0.1,1,0.2,1.3s0.3,0.7,0.5,0.9c0.2,0.2,0.5,0.4,0.8,0.5c0.3,0.1,0.6,0.2,0.9,0.2    c0.4,0,0.9-0.1,1.2-0.2c0.4-0.2,0.7-0.4,1.1-0.7h0.1V369.7z"/>
		<path d="M190.7,367.6h-3.8c0,0.3,0,0.6,0.1,0.9c0.1,0.2,0.2,0.5,0.4,0.6c0.2,0.2,0.3,0.3,0.6,0.4c0.2,0.1,0.5,0.1,0.7,0.1    c0.4,0,0.7-0.1,1.1-0.2c0.4-0.1,0.6-0.3,0.8-0.4h0v1c-0.3,0.1-0.6,0.2-0.9,0.3c-0.3,0.1-0.6,0.1-1,0.1c-0.9,0-1.5-0.2-2-0.7    c-0.5-0.5-0.7-1.2-0.7-2.1c0-0.9,0.2-1.6,0.7-2.1s1.1-0.8,1.8-0.8c0.7,0,1.2,0.2,1.6,0.6c0.4,0.4,0.6,1,0.6,1.8V367.6z     M189.9,366.9c0-0.5-0.1-0.9-0.3-1.1c-0.2-0.3-0.6-0.4-1-0.4c-0.5,0-0.8,0.1-1.1,0.4c-0.3,0.3-0.4,0.6-0.5,1.1H189.9z"/>
		<path d="M196.4,370.2h-0.9v-3.1c0-0.3,0-0.5,0-0.7c0-0.2-0.1-0.4-0.2-0.5c-0.1-0.1-0.2-0.2-0.3-0.3c-0.1-0.1-0.3-0.1-0.6-0.1    c-0.2,0-0.5,0.1-0.7,0.2s-0.5,0.3-0.7,0.5v4.1h-0.9v-5.5h0.9v0.6c0.3-0.2,0.6-0.4,0.8-0.6s0.6-0.2,0.9-0.2c0.6,0,1,0.2,1.3,0.5    c0.3,0.4,0.4,0.9,0.4,1.5V370.2z"/>
		<path d="M200.7,370.2c-0.2,0-0.3,0.1-0.5,0.1s-0.4,0-0.5,0c-0.5,0-0.9-0.1-1.2-0.4c-0.3-0.3-0.4-0.8-0.4-1.4v-2.9h-0.6v-0.8h0.6    v-1.6h0.9v1.6h1.8v0.8h-1.8v2.5c0,0.3,0,0.5,0,0.7s0.1,0.3,0.1,0.5c0.1,0.1,0.2,0.2,0.3,0.3c0.1,0.1,0.3,0.1,0.5,0.1    c0.1,0,0.3,0,0.4-0.1s0.3-0.1,0.3-0.1h0V370.2z"/>
		<path d="M206.1,367.6h-3.8c0,0.3,0,0.6,0.1,0.9c0.1,0.2,0.2,0.5,0.4,0.6c0.2,0.2,0.3,0.3,0.6,0.4c0.2,0.1,0.5,0.1,0.7,0.1    c0.4,0,0.7-0.1,1.1-0.2c0.4-0.1,0.6-0.3,0.8-0.4h0v1c-0.3,0.1-0.6,0.2-0.9,0.3c-0.3,0.1-0.6,0.1-1,0.1c-0.9,0-1.5-0.2-2-0.7    c-0.5-0.5-0.7-1.2-0.7-2.1c0-0.9,0.2-1.6,0.7-2.1s1.1-0.8,1.8-0.8c0.7,0,1.2,0.2,1.6,0.6s0.6,1,0.6,1.8V367.6z M205.2,366.9    c0-0.5-0.1-0.9-0.3-1.1c-0.2-0.3-0.6-0.4-1-0.4c-0.5,0-0.8,0.1-1.1,0.4c-0.3,0.3-0.4,0.6-0.5,1.1H205.2z"/>
		<path d="M208.3,370.2h-0.9v-7.6h0.9V370.2z"/>
		<path d="M210.9,370.2H210v-7.6h0.9V370.2z"/>
		<path d="M216.9,367.6h-3.8c0,0.3,0,0.6,0.1,0.9s0.2,0.5,0.4,0.6c0.2,0.2,0.4,0.3,0.6,0.4c0.2,0.1,0.5,0.1,0.7,0.1    c0.4,0,0.7-0.1,1.1-0.2c0.4-0.1,0.6-0.3,0.8-0.4h0v1c-0.3,0.1-0.6,0.2-0.9,0.3c-0.3,0.1-0.6,0.1-1,0.1c-0.9,0-1.5-0.2-2-0.7    c-0.5-0.5-0.7-1.2-0.7-2.1c0-0.9,0.2-1.6,0.7-2.1s1.1-0.8,1.8-0.8c0.7,0,1.2,0.2,1.6,0.6s0.6,1,0.6,1.8V367.6z M216,366.9    c0-0.5-0.1-0.9-0.3-1.1s-0.6-0.4-1-0.4c-0.5,0-0.8,0.1-1.1,0.4s-0.4,0.6-0.5,1.1H216z"/>
		<path d="M221.6,367.7c0.2,0.2,0.3,0.6,0.3,1c0,0.5-0.2,0.9-0.6,1.2s-0.9,0.5-1.6,0.5c-0.4,0-0.7,0-1-0.1c-0.3-0.1-0.6-0.2-0.8-0.3    v-1h0c0.3,0.2,0.6,0.4,0.9,0.5c0.3,0.1,0.7,0.2,1,0.2c0.4,0,0.7-0.1,0.9-0.2s0.3-0.3,0.3-0.6c0-0.2-0.1-0.4-0.2-0.5    s-0.3-0.2-0.7-0.3c-0.1,0-0.3-0.1-0.5-0.1s-0.4-0.1-0.5-0.1c-0.5-0.1-0.8-0.3-1-0.6c-0.2-0.2-0.3-0.5-0.3-0.9c0-0.2,0-0.4,0.1-0.6    c0.1-0.2,0.2-0.4,0.4-0.5c0.2-0.2,0.4-0.3,0.7-0.4c0.3-0.1,0.6-0.1,0.9-0.1c0.3,0,0.6,0,0.9,0.1c0.3,0.1,0.6,0.2,0.8,0.3v1h0    c-0.2-0.2-0.5-0.3-0.8-0.4c-0.3-0.1-0.6-0.2-0.9-0.2c-0.3,0-0.6,0.1-0.8,0.2c-0.2,0.1-0.3,0.3-0.3,0.6c0,0.2,0.1,0.4,0.2,0.5    c0.1,0.1,0.3,0.2,0.6,0.3c0.2,0,0.3,0.1,0.5,0.1s0.4,0.1,0.5,0.1C221,367.3,221.3,367.5,221.6,367.7L221.6,367.7z"/>
	</g>
</g>
<g id="bullets">
	<g>
		<circle style="fill:#5B7EBD;" cx="290.9" cy="98.7" r="2.4"/>
	</g>
	<g>
		<circle style="fill:#5B7EBD;" cx="240.2" cy="174.2" r="2.4"/>
	</g>
	<g>
		<circle style="fill:#5B7EBD;" cx="272.9" cy="224.9" r="2.4"/>
	</g>
	<g>
		<circle style="fill:#5B7EBD;" cx="210.9" cy="152.2" r="2.4"/>
	</g>
	<g>
		<circle style="fill:#5B7EBD;" cx="137.6" cy="100.1" r="2.4"/>
	</g>
	<g>
		<circle style="fill:#5B7EBD;" cx="113.6" cy="177.6" r="2.4"/>
	</g>
	<g>
		<circle style="fill:#5B7EBD;" cx="216.9" cy="214.2" r="2.4"/>
	</g>
	<g>
		<circle style="fill:#5B7EBD;" cx="212.9" cy="250.9" r="2.4"/>
	</g>
	<g>
		<circle style="fill:#5B7EBD;" cx="155.9" cy="294.4" r="2.4"/>
	</g>
	<g>
		<circle style="fill:#5B7EBD;" cx="194.4" cy="377.9" r="2.4"/>
	</g>
	<g>
		<circle style="fill:#5B7EBD;" cx="258.4" cy="329.9" r="2.4"/>
	</g>
</g>
<g id="llegenda">
	<line style="fill:none;stroke:#9A9A9A;stroke-width:2;stroke-miterlimit:10;" x1="82.7" y1="-104.4" x2="82.7" y2="-74.9"/>
	<g>
		<path d="M90.5-94h0.9v7.1h-0.9V-94z"/>
		<path d="M93.8-93.1c0,0.3-0.2,0.5-0.6,0.5c-0.3,0-0.5-0.2-0.5-0.5s0.2-0.5,0.5-0.5C93.6-93.7,93.8-93.4,93.8-93.1z M92.8-86.9    v-4.8h0.9v4.8H92.8z"/>
		<path d="M95.2-90.4c0-0.5,0-0.9,0-1.3h0.8l0,0.8h0c0.2-0.4,0.8-0.9,1.6-0.9c0.7,0,1.7,0.4,1.7,2.1v2.9h-0.9v-2.8    c0-0.8-0.3-1.4-1.1-1.4c-0.6,0-1,0.4-1.2,0.9c0,0.1-0.1,0.3-0.1,0.4v2.9h-0.9V-90.4z"/>
	</g>
	<line style="fill:none;stroke:#696969;stroke-width:2;stroke-miterlimit:10;" x1="82.7" y1="-64.8" x2="82.7" y2="-35.3"/>
	<g>
		<path d="M90.5-54.4h0.9v7.1h-0.9V-54.4z"/>
		<path d="M93.8-53.5c0,0.3-0.2,0.5-0.6,0.5c-0.3,0-0.5-0.2-0.5-0.5s0.2-0.5,0.5-0.5C93.6-54.1,93.8-53.8,93.8-53.5z M92.8-47.3    v-4.8h0.9v4.8H92.8z"/>
		<path d="M95.2-50.9c0-0.5,0-0.9,0-1.3h0.8l0,0.8h0c0.2-0.4,0.8-0.9,1.6-0.9c0.7,0,1.7,0.4,1.7,2.1v2.9h-0.9v-2.8    c0-0.8-0.3-1.4-1.1-1.4c-0.6,0-1,0.4-1.2,0.9c0,0.1-0.1,0.3-0.1,0.4v2.9h-0.9V-50.9z"/>
	</g>
	<rect x="77.4" y="-129" style="fill:#BFBFBF;" width="16.3" height="15.3"/>
	<rect x="77.4" y="-156.7" style="fill:#DCE9FB;" width="16.3" height="15.3"/>
	<g>
		<path d="M102.9-119.7v-4.2h-0.7v-0.7h0.7v-0.2c0-0.7,0.2-1.3,0.6-1.7c0.3-0.3,0.8-0.4,1.2-0.4c0.3,0,0.6,0.1,0.7,0.1l-0.1,0.7    c-0.1-0.1-0.3-0.1-0.6-0.1c-0.7,0-0.9,0.6-0.9,1.4v0.3h1.2v0.7h-1.2v4.2H102.9z"/>
		<path d="M110-122.1c0,1.8-1.2,2.6-2.4,2.6c-1.3,0-2.3-1-2.3-2.5c0-1.6,1.1-2.6,2.4-2.6C109-124.6,110-123.6,110-122.1z     M106.2-122.1c0,1.1,0.6,1.9,1.5,1.9c0.8,0,1.5-0.8,1.5-1.9c0-0.8-0.4-1.8-1.4-1.8C106.6-123.9,106.2-123,106.2-122.1z"/>
		<path d="M111.1-123.2c0-0.5,0-0.9,0-1.3h0.8l0,0.8h0c0.2-0.4,0.8-0.9,1.6-0.9c0.7,0,1.7,0.4,1.7,2.1v2.9h-0.9v-2.8    c0-0.8-0.3-1.4-1.1-1.4c-0.6,0-1,0.4-1.2,0.9c0,0.1-0.1,0.3-0.1,0.4v2.9h-0.9V-123.2z"/>
		<path d="M116.5-120.6c0.3,0.2,0.7,0.3,1.2,0.3c0.6,0,0.9-0.3,0.9-0.7c0-0.4-0.3-0.6-0.9-0.9c-0.9-0.3-1.3-0.8-1.3-1.4    c0-0.8,0.6-1.4,1.7-1.4c0.5,0,0.9,0.1,1.2,0.3l-0.2,0.6c-0.2-0.1-0.5-0.3-1-0.3c-0.5,0-0.8,0.3-0.8,0.7c0,0.4,0.3,0.6,0.9,0.8    c0.8,0.3,1.3,0.7,1.3,1.4c0,0.9-0.7,1.5-1.8,1.5c-0.5,0-1-0.1-1.4-0.3L116.5-120.6z"/>
	</g>
	<g>
		<path d="M102.8-150.5c0-0.5,0-0.9,0-1.3h0.8l0,0.8h0c0.3-0.5,0.7-0.9,1.5-0.9c0.6,0,1.1,0.4,1.4,1h0c0.1-0.3,0.4-0.5,0.5-0.6    c0.3-0.2,0.6-0.3,1.1-0.3c0.6,0,1.6,0.4,1.6,2.1v2.8h-0.9v-2.7c0-0.9-0.3-1.5-1-1.5c-0.5,0-0.9,0.4-1,0.8c0,0.1-0.1,0.3-0.1,0.4v3    h-0.9v-2.9c0-0.8-0.3-1.3-1-1.3c-0.5,0-0.9,0.4-1.1,0.9c-0.1,0.1-0.1,0.3-0.1,0.4v2.9h-0.9V-150.5z"/>
		<path d="M114.6-148.2c0,0.4,0,0.8,0.1,1.2h-0.8l-0.1-0.6h0c-0.3,0.4-0.8,0.7-1.5,0.7c-1,0-1.5-0.7-1.5-1.4c0-1.2,1-1.8,2.9-1.8    v-0.1c0-0.4-0.1-1.1-1.1-1.1c-0.5,0-0.9,0.1-1.3,0.4l-0.2-0.6c0.4-0.3,1-0.4,1.6-0.4c1.5,0,1.8,1,1.8,2V-148.2z M113.7-149.5    c-1,0-2,0.1-2,1.1c0,0.6,0.4,0.8,0.8,0.8c0.6,0,1-0.4,1.2-0.8c0-0.1,0-0.2,0-0.3V-149.5z"/>
		<path d="M116-150.3c0-0.6,0-1.1,0-1.5h0.8l0,1h0c0.2-0.6,0.8-1.1,1.3-1.1c0.1,0,0.2,0,0.2,0v0.8c-0.1,0-0.2,0-0.3,0    c-0.6,0-1.1,0.5-1.2,1.1c0,0.1,0,0.3,0,0.4v2.6H116V-150.3z"/>
	</g>
	<circle style="fill-rule:evenodd;clip-rule:evenodd;fill:#5B7EBD;" cx="82.7" cy="-20.2" r="2.4"/>
	<rect x="52.9" y="-129" style="fill:#BFBFBF;stroke:#9A9A9A;stroke-width:2;stroke-miterlimit:10;" width="16.3" height="15.3"/>
	<rect x="28.1" y="-129" style="fill:#FFFBF0;stroke:#9A9A9A;stroke-width:2;stroke-miterlimit:10;" width="16.3" height="15.3"/>
	<rect x="18.9" y="-98.4" style="opacity:0.6;fill:#FFFBF0;" width="51" height="17.5"/>
</g>
</svg>