<svg xmlns="http://www.w3.org/2000/svg" xmlns:xlink="http://www.w3.org/1999/xlink" version="1.1" x="0px" y="0px" width="449.9px" height="449.9px" viewBox="0 0 449.9 449.9" style="enable-background:new 0 0 449.9 449.9;" xml:space="preserve"> <g id="Capa_7"> 	<rect x="-15.7" y="-16.4" style="fill-rule:evenodd;clip-rule:evenodd;fill:#DCE9FB;" width="479.8" height="477.7"/> </g> <g id="Castrillon"> 	<a> 		<path style="fill-rule:evenodd;clip-rule:evenodd;fill:#DCE9FB;" d="M60.6,112.9l5.7-11.3l4.3,1.6l0.6,2.4c0,0-0.3,3.2-0.6,3.3    S60.6,112.9,60.6,112.9l-0.4,9.2l7-0.2c0,0,5.9-1,6.6-1.1s5.5-1.6,5.7-1.6s12.3-6.8,12.3-6.8s1.5,7.6,1.5,8s0.1,5.1,0.3,5.5    s2.3,4.8,2.4,5.3s3.2,2.5,4.2,2.5s6.3,0.1,6.3,0.1l6.9-1.1l0.8,0.1c0,0,4.5,2.8,4.7,3.1s3.9,2.8,4.3,3.1s2.4,2.3,2.8,2.5    s3,1.5,3.4,1.5s1.6,0.3,2.3-0.1s1.6-0.9,1.7-1.4s0.4-3.6,0.4-3.8s0.9-2.9,0.9-2.9l8.1-3.8l2.9-0.8c0,0,2.1,1.1,2.9,1.1    s4.1-0.6,5.4-0.9s4.2-1.5,4.8-1.8s2.9-1.6,3.9-1.8s2.1-0.7,2.6-0.6s8.4,1.9,8.4,1.9l2.4-0.8c0,0,1.4-0.1,1.5,0.4s1.2,3.1,1.4,3.4    s2.1,1.5,2.8,1.8s3.4,1,4.1,1.1s4.1-0.1,5-0.3s2.9-1.1,3.3-1.2s3.5-1.6,3.8-1.8s4.5-2.8,4.8-3s3.6-3.2,3.8-3.4s3.3-3.8,3.5-3.9    s2.2-2.8,2.6-3.4s1.7-4.2,1.7-4.6s-0.1-3.8-0.1-4.3s-0.3-1.6,0-1.9s2.3-2.6,2.5-2.9s2.6-2.7,2.6-2.7l10.4,2.6l2.2,0.4l2.3,0.3    l1.6,3.6l2.6,12.2c0,0,0.4,4.8,0.4,5.1s-0.3,3.3-0.3,3.3s-1.6,1.3-2.1,1.3s-5.3,1.3-5.9,1.5s-3.8,1.5-3.8,1.5l-2.6,9.4l-0.1,1.9    l-9.6,3.1c0,0-6.6,2.8-6.9,2.9s-4.3,2.3-4.4,2.4s-1.5,2.8-1.5,2.8l-0.8,3.6l0,12.5l0.8,15.3l-0.1,4.2l-1.8,2.3l-2.9,3l0.6,2    c0,0,1,2.1,1.1,2.4s0.9,2.4,0.9,2.4l0.5,8l-0.2,5.8c0,0-0.3,7.6-0.3,7.8s0.2,4,0.2,4l1.6,4.4l1.5,1.5l2.8,1.5l3.4,0.8l2.1,0.3    l-1.4,2.5l-2.7,3.1l-1.8,2.8l-6.2,14l-0.7,4.6l-2.2,2.6l-4.2,2.8l-3.6,3l-8.7,5.3l-5.5,2.4l-5.7,2.8l-22,8.9c0,0-5.8,1.8-6,1.8    s-6.5,1.6-6.5,1.6s-5.8,2-6,2s-3.8,1.7-3.8,1.7l-2,3.3c0,0-2.3,1.3-2.5,1.3s-4.9,1.3-4.9,1.3l-3,2.5l-3.5,4.2c0,0-3.8,3.1-4.1,3.2    s-3,2-3,2s-2.2-1-2.4-1s-3.5-3.4-3.5-3.4l-1.8-1.8l-7.5-12.5l-4.1-9.4l-1.8-5.3l-0.8-5.3c0,0,0.5-2.9,0.8-3.3s1.2-2.1,1.2-2.1    l5.2-14.2l1.8-4.5c0,0,0.6-2.8,0.6-3s0.1-5.5,0.1-5.5l-1.2-6.6c0,0-1.2-2.7-1.3-3s-1.8-3.7-2.2-4.3s-3-4-3-4l-2.3-2.3l-8.5-8.1    l-6.3-4.9l-4.6-4l-3-3.2l-2.5-2.5l-5-6.8l-1.7-4.2c0,0-0.9-4.9-0.9-5.4s-0.3-4.9-0.3-4.9l2.2-8l-12.3-2l-1.7-3.1l-0.3-8.6l1.8-5.1    c0,0,2.6-1.3,3-1.5s3.9-1.9,4-1.9s3.1-1.1,3.1-1.1l7.4-5.4c0,0,4.8-4.7,4.8-4.9s2.5-4.8,2.5-4.8s-0.6-6.3-0.6-6.5s0-5.5,0-5.5    L60.6,112.9z"/> 	</a> </g> <g id="color_comarques_x5F_joan_x5F_2"> 	<path style="fill:#BFBFBF;stroke:#696969;stroke-width:2;stroke-miterlimit:10;" d="M-13.2,317.3c-0.6-1.8-1.8-2.6-3.6-2.5   C-18.5,317.4-14.7,318.2-13.2,317.3C-14,316.1-15,318.4-13.2,317.3z"/> 	<path style="fill:#BFBFBF;stroke:#696969;stroke-width:2;stroke-miterlimit:10;" d="M-7.7,250.2C-4.9,244.9-17.9,254.3-7.7,250.2   C-7.1,249.1-9.8,251-7.7,250.2z"/> 	<a> 		<path style="fill:#BFBFBF;stroke:#696969;stroke-width:2;stroke-miterlimit:10;" d="M91.4,244.4c-8.7-17.7-12.5-24.4-28.5-35.5    c-12.1-8.5-20.4-20.7-14-36.6c-0.6-0.4-13.3-1.8-13.3-1.8c0-0.7-1.7-7.9-2.9-14.7c-6.3,1.6-12.6,5.1-16.5,10    c-8.4,10.2-13-0.2-19.6-0.1c0.1,9.2,2.1,27.3-2.3,33.5c-5.2,7.3,11.8,24.5,3.6,29.5c-5.3,3.3-25.9,2.5-25.9,2.8    c1.4,5.2,32.3,23.9,21.6,27.1c-3.9-2.7-4.4-7.6-10.7-9.3c0.1,13.2,14.5,7.7,11.3,24.7c-2.6,13.9,1.3,19.9-8.9,32.4    c-4.5,5.5,5.5,9.4,0,17.8c-4.2,6.4-20.7-6.3-25.7-7.2c-2.3-0.4-13.4-3-14.4-1.3c-5.6,9.4,4.5,11.7,2.7,16.1    c-11.5,0.1-10.9-9.7-6.6-16.1c7.9-11.8,24.2,5.3,31.4,5.3c15.8-0.1,6.6,3.4,6.4-9.4c-0.1-9.2,13.5-16.1,13.4-27.2    c0-4.9,1.7-18.3-2.9-20.8c-6.3-3.5-21.4-20.6-20.7-26.9c2.5-21.2,13-0.2,27.1-12.8c-0.1-6-22.2-26.3-12.3-31.4    c9.5-4.8,12.3-32.6,3.4-27c-3.4,2.1-4.3,8.1-9.5,5.4c-1.8-0.9-7.5,8.4-13.3,8.4c-6.6,0.1-3.7-1.5-11.3-3.2    c-6.4,0.1-3.2,12.1-12.3,5.7c-4.6,6.9-12.7,1.9-19.8,2.5c0.2,77.5,9.7,152.6,16.3,229.6c3-4.7,7-16,12.7-16.7    c7.9-0.9,14.4-4.5,8-12.5c6.3-3.2,18.6-6.4,21-13.3c0.6-1.8,21.9-12.1,25.9-15.3c12-9.6,15.2-4.7,29.5,1.2    c10.7,4.4,1.6-42.3,21-38.6c18.3,3.5,12-10.8,22.8-20.6c12.6-11.5-3.4-10.7,3.8-28C87.8,255.9,88,253.3,91.4,244.4L91.4,244.4z"/> 	</a> 	<a> 		<path style="fill:#BFBFBF;stroke:#696969;stroke-width:2;stroke-miterlimit:10;" d="M185.2,486.8c18.5-0.1,37-0.3,55.4-0.4    c24.7-0.3,4.8-1.7,8.5-12.7c5-14.8,14-30.9-17.1-27.1c-4.4,0.5-7.1,1.8-9.9-1.1c-5.4-5.5-9.3-18.5-12-28    c-4-14.3-10.6-15.1-24.8-28c-3.4-3-0.9-9.9-3.2-10.8c-5.4-2.2-8.1-4.7-8.1-4.7c-12-0.7-22-3.4-32.4-1.4    c-5.1,1-14.5-13.3-17.9-17.1c-3.8-4.1-15.7,2.4-16.9-3.1c-2.1-9.4-2.3-15-9-21.8c-9.5-9.6,5-9.3-0.1-16    c-5.7-7.3-10.7-13.6-13.1-22.8c-4.7,5-12.6,10.7-14.6,17.4c-3.8,12.8-10.1,10.6-14.9,9.6c-16.9-3.8-13.5,25-15.8,33    c-3,10.7-10.2,3.5-19.9-0.5c-9.8-4-38.9,15.1-40.7,20.2c-2.4,6.9-14.7,10.1-21,13.3c9.2,11.6-9.3,11.1-14.1,18.6    c-13.8,22-3.3,58-2.6,83.6C22.6,487,103.9,487.3,185.2,486.8C207.4,486.7,103.9,487.3,185.2,486.8z"/> 	</a> 	<a> 		<path style="fill-rule:evenodd;clip-rule:evenodd;fill:#BFBFBF;stroke:#696969;stroke-width:2;stroke-miterlimit:10;" d="    M526.1,237.6c0-1.3,0-2.6,0-4c-17.2,10.4-31.9,24.7-49.4,31.7c-9.2,3.7-15.6,6.5-24,10c-9.1,3.9-22.9,17.2-28.7,11.5    c-3.5,5.4-8.6,8.1-8.3,17.6c0.4,10.7,8.6,6.8,4.5,28.6c5.4-1.4,9.2-0.2,11.8,7.7c2.3,7.1,9.1,1.7,13.9,7.9    c5.5,7,19.9,19.1,25.8,16.7c-4,15.5,10.4,28.5,23.9,31c19.3,3.6,18.3,21.2,32.4,27.3C527.5,361.6,526.9,299.6,526.1,237.6    C526.1,236.3,526.9,299.6,526.1,237.6z"/> 	</a> 	<a> 		<path style="fill:#BFBFBF;stroke:#696969;stroke-width:2;stroke-miterlimit:10;" d="M183.6,379.1c-3.9,12.1,17.1,21.2,22.7,30.2    c5.6,9.1,10,33.4,14.2,36.4c6.9,4.9,40.8-7.6,32.6,16.3c-13.1,38.5,43.5,23.7,67.3,23.3c-1.4-0.9-2.8-1.8-4.2-2.7    c4.6-7.8,10.6-7.3,13.7,0.4c2.9,7.1,65.1,0.5,75,0.2c24.7-0.7,49.4-1.6,74.1-2.7c12.3-0.5,24.7-1.1,37-1.7    c19.8-1,12.2-16.4,12.1-33.4c-0.1-15.9-6.1-44.2-27.1-48.1c-15.1-2.8-34.3-12.6-29.3-32c-14.1,5.7-23.9-20-30.5-20.8    c-15.7-1.8-2.8-10.5-18-12.5c-6.8-0.9-8.7,16.4-15.5,22.6c-5.8,5.2-15.9-5.5-18.9-7.7c-10.6-7.9-21.7,16.8-32.3,10.8    c-11.7-6.7-24.1-16.8-35.8-23.4c-15.4-8.8-30-2.9-40.1-16.9c-9.7-13.4-38.5,9.5-48.2,15.7c-12.2,7.8-5.8-4.9-14.2-3    c-5.4,1.2-20.4,10.3-22.1,15.6c-3.5,11-5.3,17.3-16.5,21.6C169.8,371.1,173.5,378.1,183.6,379.1L183.6,379.1z"/> 	</a> 	<path style="fill:#BFBFBF;stroke:#696969;stroke-width:2;stroke-miterlimit:10;" d="M476.3,56.4c-1.5,1.1,2.9,3.3,4.4,2.3   C480.6,57.8,478.9,56,476.3,56.4z"/> 	<path style="fill:#BFBFBF;stroke:#696969;stroke-width:2;stroke-miterlimit:10;" d="M392.3-35.2c-0.1-6.1-3.5,0.4-3.5,1.4   C390.1-32,391.3-32.5,392.3-35.2C392.3-35.7,392.3-33.6,392.3-35.2z"/> 	<a> 		<path style="fill:#BFBFBF;stroke:#696969;stroke-width:2;stroke-miterlimit:10;" d="M524.7,120.9c-1.6-3-9.1-8.5-11.9-10.3    c-3.8-2.5,3.1-11,0.5-15.8c0,0-8.3,4.4-7.9,4.4c-0.3,0-8.6-14.9-8.3-13.8c-1.9-7.4,3.5-4.7,4.2-11.8c-3-3-2.9-2.6-5.3-6.4    c-4,0-4.5,6.3-7.2,6.3c-2.5,0-3.7-12.2-11.5-12.1c-9.4,0.1-2.7-0.1-7.4-5.9c-2,0-5.5,1.1-7.1-2.8c6-3.5,24.7-39.2,11.5-39.1    c-5.8,0.1-1.1,10.7-9.2,3.4c0.3,0-9.4-0.2-8.7,0.5c-0.1-5,4.7-7.5,0.8-12.6c-1.5,0-14.7,1.3-19.2-1.2c-1.1,1.7-3.2,17.2-5.9,17.2    c-6.1,0.1,4.8-32.1-5.1-32c-6.7,0.1-1.1,3.2-6.5,0.3c-0.6-0.7-11.7-4.4-11.6-4.4c1.2,18.2-19.6,6.6-19.7-2    c0-2.1,3.8-14.8-2.5-14.8c-2.4-4.8-7.6-6.1-7.7-14.1c0,2-23.6-1.8-25.3,7c-2.6,13.4-1,18-0.9,30.7c0.1,9.5-4.2,14.8-13.1,14.1    c8.1,0.6-18.7,13-18.7,13c0.9,1.4,2.2,2.5,3.8,3.2c-4.7,4.8-1.3,2.4-7,3.6c-0.9,5.6-1.4,6.7-8,3.4c-5.6,11.5-12-7-19.3-4.8    c0,1.2,0,5.5-3.5,4.4c-0.3-2-0.8-8.3-4-7.2c-1,9.5-5,7.5-11.7,10.5c-4.1,0-11.9-6.1-11.8,2.3c0,4.4,6.4,13.6,6,15.4    c-2.9,0-7.1,6.2-6.7,10c9.7,9.2-8.1,22.5-15.9,27c-2.6,1.5-15.8-1.2-20.8-1.1c-6,0.1-9.8,2.2-15.6,6.6c5.6,7.6,31.8,9.3,42.2,12.9    c-0.3-6.7,3.7-9.6,10.7-9.7c-3,5.5-2.3,11,2.5,14.3c-4.8,1.7-11.3,7.6-6.7,13.1c1.6,1.9,16.3-0.4,19.2-0.5    c0.1,33.9,53.4,11.5,45.5,44.5c-1.1,4.6-7.9,12.3-6.5,15.8c1.2,3.1,16.4,9.3,19.2,7.5c12.3-8.3,23.4,3.7,34.9,9.9    c10.4,5.6-9.5,20.3-16.4,35.6c-4.4,9.8,4,26,13.9,36.6c10.7,11.4,18.3,17,31.1,25.9c17.6,12.3,17.9,7.5,28.1-10.6    c5.4,5.2,23.7-9.4,32.9-13.3c8.9-3.8,18.4-11.2,27.8-14.3c16.4-5.4,22.1-12.8,36.1-22.1C537.1,226.3,524.9,142,524.7,120.9    C524.6,120.7,525.2,158.5,524.7,120.9z"/> 	</a> 	<path style="fill:#BFBFBF;stroke:#696969;stroke-width:2;stroke-miterlimit:10;" d="M381.8-52.1C374.1-52.1,384.5-47,381.8-52.1   C381.5-52.1,382.9-50.1,381.8-52.1z"/> </g> <g id="color_c._aviles"> 	<a> 		<path style="fill-rule:evenodd;clip-rule:evenodd;fill:#FFFBF0;stroke:#9A9A9A;stroke-width:2;stroke-miterlimit:10;" d="    M233.8,103.7c4.7,0.3,6.6,3.4,8.7,9.7c1.1-0.1,0.2-0.2,1.2-0.3c0-1.9,0-3.9,0-5.8c11,17.4-6.2,56.5,12.4,70    c-0.8-2-4.2-32.4-4-41.5c0.1-7.2-1.1-21.4,3.6-27.4c-7.3-5.5-10.7-13.5,3.5-13.6c-3,5.5-2.3,11,2.5,14.3c-2.1,0.6-5.9,8.5-3.4,13    c1.2,2.1,13-0.4,15.9-0.5c-4.8,34.5,68.3,6.8,39,60.2c-2.8,5-6.8-1.4-27.6,39.2c-5.8,11.3-6.5,5.9-14.7,12.4    c-8.8,7-1.4,10.6-14.3,7.6c-10.3-2.4-20.7-4.4-30.8-7.2c-9.7-2.7-13.5,4.2-16.4,3.4c-12.2-3.4-11.4-10.3-9.3-19.6    c1.6-7.3-5.3-23.4-2.5-24.6c11.3-4.7-5.6-36.1,8.9-43.8c10.5-5.6,16.4-2.2,18.6-10.8c2.4-9.2,4.2-6.5,13.3-10.2    C238.3,128.5,236.4,113.2,233.8,103.7z"/> 	</a> 	<path style="fill-rule:evenodd;clip-rule:evenodd;fill:#FFFBF0;stroke:#9A9A9A;stroke-width:2;stroke-miterlimit:10;" d="   M60.3,112.7c0-1.9,6-11.7,6-11.7c-0.3-0.6,4.5,3.2,4.5,3.2C74.1,110.6,63.1,112.5,60.3,112.7C60.3,111.4,60.3,112.7,60.3,112.7z"/> 	<path style="fill-rule:evenodd;clip-rule:evenodd;fill:#FFFBF0;stroke:#9A9A9A;stroke-width:2;stroke-miterlimit:10;" d="   M35.5,171.1c-2.7-15.1-3.6-16,9.7-22c6.7-3.2,10.7-7,15.1-13.2c1.8-2.6-0.7-13.7,0-13.7c6.1-0.1,16.1-1.5,19.5-3.4   c1.4-0.8,11.6-6.6,11.8-6.6c1.2,3.4,0.4,21.1,8.4,21c1.5,0,12.1,0.7,12.8-1c5.1-0.1,21.2,22.3,21,2.5c0.7-0.2,11.2-5.3,12.3-5.3   c2.8,4.2,17.5-3.3,18.4-3.3c4.9-0.1,5.9,3.4,13.2,0.9c3.5,19.1,42-4.7,36.7-19.9c2.7-4,3.3-2.8,4.8-7.5c2.7,2.1,11.3,3.8,14.7,4   c3.1,2.9,7.1,24.2,4.5,24.8c-12.4,3.1-11.3,0.4-14.3,15.5c0,0-16.4,3.7-21.1,8.6c-3.7,3.8-1.2,27.6-1,35.7   c0.1,6.6-7.1,3.3-3.8,10.1c7.1,14.6-7.8,38.5,13.6,38.2c-7.9,8.7-11.5,22.6-14,28.4c-5.6,13.1-30.9,19-44,24.6   c-4.7,2-28.9,7.1-29.8,10c-2,6.6-10.2,4.1-13.7,10.1c-5.6,9.5-8.8,9.4-15.8,0.3c-5.1-6.6-17.3-27.3-14.2-35.6   c5.5-14.6,13.7-25.1,6.8-39.3c-11-22.4-50.1-32.5-37.9-62.8C44.7,171.9,39.7,170.6,35.5,171.1L35.5,171.1z"/> 	<a> 		<path style="fill-rule:evenodd;clip-rule:evenodd;fill:#FFFBF0;stroke:#9A9A9A;stroke-width:2;stroke-miterlimit:10;" d="    M313.1,182c4.5,2.3,14.8,10.4,19.2,7.5c7.6-5.1,12.8-4.3,20.5,0.3c3.5,2.1,20.5,12.5,18.7,15.2c-6.9,10-13.8,20-20.7,30    c-12.7,18.3,50.6,78.3,64.4,67.4c2.6,14.4,11.3,10.9,5.8,27.1c-1.8,5.2-9.4,24.8-14,26.6c-8.8,3.3-13.7-10.3-23.2-10.8    c-3.2-0.1-23.5,14.7-22.3,15.4c-18.5-10.5-40.4-29.3-61.7-31.9c-19.2-2.3-11.5-8.7-24.7-14.2c-16.7-7-14.4,14-20.3-9.9    c-1.8-7.5-8.4-31.4-14.7-35.8c-8.6-6-23.1,1.3-31,4.3c-22.7,8.5-4.1-43.7,13.8-39.5c12.5,2.9,25,5.9,37.6,8.8    c5.1,1.2,4.2-0.1,6.9-5c4.2-7.8,8.3-3.3,13.1-8.6C292.9,214.8,297.9,187.9,313.1,182L313.1,182z"/> 	</a> 	<a> 		<path style="fill-rule:evenodd;clip-rule:evenodd;fill:#FFFBF0;stroke:#9A9A9A;stroke-width:2;stroke-miterlimit:10;" d="    M99.4,316.7c9.5-1.6,9.4-11.2,20.4-13.6c5.8-1.3,2.1-4.9,7.9-6.1c9.7-2,54-16.2,68.9-31.2c6.2,17.3,24.5-2.2,37.6-0.6    c14.7,1.8,21.4,38.1,26.2,51c0,0-20.5,12.1-31.6,19.2c-7.1,4.5-5.4-6.5-10.5-5.4c-4.8,1.1-18.2,10.2-20.4,14.6    c-3.7,7.3-3.5,11.8-8.7,17.1c-4,4.1-16.3,5.5-15.5,10.7c0.8,4.7-24.4-1.4-31.9,0c-4.6,0.9-11.8-10.4-14.7-13.6    c-6.4-6.9-14.7-0.2-19.7-4.7c-4.4-4-1-15.2-5.7-19.9C94.9,327.6,88.6,323.9,99.4,316.7L99.4,316.7z"/> 	</a> </g> <g id="text-comarques"> 	<g> 		 			<rect x="332.4" y="82.5" transform="matrix(-1 -7.453759e-005 7.453759e-005 -1 736.8146 178.6613)" style="fill-rule:evenodd;clip-rule:evenodd;fill:none;" width="72" height="13.6"/> 		<path style="fill:#1A171B;" d="M340.2,91.2c-0.5,0-1-0.1-1.5-0.2c-0.5-0.2-0.9-0.4-1.2-0.7c-0.3-0.3-0.6-0.7-0.8-1.2    s-0.3-1-0.3-1.6c0-0.6,0.1-1.1,0.3-1.6s0.4-0.9,0.8-1.2c0.3-0.3,0.7-0.6,1.2-0.7c0.5-0.2,1-0.3,1.5-0.3c0.3,0,0.6,0,0.8,0.1    c0.2,0,0.5,0.1,0.7,0.1c0.2,0.1,0.4,0.1,0.6,0.2c0.2,0.1,0.3,0.1,0.5,0.2l0,1.8h-0.2c-0.1-0.1-0.2-0.2-0.3-0.3    c-0.1-0.1-0.3-0.2-0.5-0.3c-0.2-0.1-0.4-0.2-0.6-0.3s-0.4-0.1-0.7-0.1c-0.3,0-0.5,0-0.8,0.1c-0.2,0.1-0.5,0.2-0.7,0.4    c-0.2,0.2-0.3,0.4-0.5,0.7c-0.1,0.3-0.2,0.7-0.2,1.1c0,0.5,0.1,0.8,0.2,1.1c0.1,0.3,0.3,0.5,0.5,0.7c0.2,0.2,0.4,0.3,0.7,0.4    c0.2,0.1,0.5,0.1,0.7,0.1c0.2,0,0.5,0,0.7-0.1c0.2-0.1,0.4-0.2,0.6-0.3c0.2-0.1,0.3-0.2,0.4-0.3s0.2-0.2,0.3-0.3h0.2v1.7    c-0.2,0.1-0.4,0.2-0.5,0.2s-0.3,0.1-0.5,0.2c-0.2,0.1-0.5,0.1-0.7,0.2S340.6,91.2,340.2,91.2z"/> 		<path style="fill:#1A171B;" d="M347.4,90.5c-0.1,0.1-0.2,0.2-0.4,0.3s-0.3,0.2-0.4,0.2c-0.2,0.1-0.4,0.1-0.5,0.2s-0.4,0.1-0.6,0.1    c-0.5,0-1-0.2-1.3-0.5c-0.4-0.3-0.5-0.7-0.5-1.2c0-0.4,0.1-0.7,0.3-1c0.2-0.3,0.4-0.5,0.8-0.6c0.3-0.1,0.7-0.3,1.2-0.3    s1-0.1,1.5-0.1v0c0-0.3-0.1-0.5-0.4-0.6s-0.6-0.2-1.1-0.2c-0.3,0-0.6,0.1-0.9,0.2s-0.6,0.2-0.7,0.2h-0.2v-1.3    c0.2,0,0.5-0.1,0.9-0.2c0.4-0.1,0.8-0.1,1.3-0.1c1,0,1.7,0.2,2.2,0.5s0.7,0.8,0.7,1.4V91h-1.7V90.5z M347.4,89.6v-1.1    c-0.2,0-0.5,0-0.8,0.1c-0.3,0-0.5,0.1-0.6,0.1c-0.2,0.1-0.3,0.1-0.4,0.2s-0.1,0.2-0.1,0.4c0,0.1,0,0.2,0,0.3    c0,0.1,0.1,0.1,0.1,0.2c0.1,0.1,0.2,0.1,0.3,0.1s0.3,0,0.5,0c0.2,0,0.4,0,0.5-0.1S347.2,89.7,347.4,89.6z"/> 		<path style="fill:#1A171B;" d="M356.5,88.2c0,0.9-0.2,1.6-0.7,2.1c-0.5,0.5-1.1,0.8-1.8,0.8c-0.3,0-0.6,0-0.8-0.1    c-0.2-0.1-0.5-0.2-0.7-0.3l-0.1,0.3h-1.7l0-7.6h1.8l0,2.7c0.3-0.2,0.5-0.4,0.8-0.5s0.6-0.2,1-0.2c0.7,0,1.2,0.3,1.6,0.7    C356.3,86.7,356.5,87.4,356.5,88.2z M354.6,88.3c0-0.5-0.1-0.9-0.2-1.1c-0.2-0.3-0.5-0.4-0.9-0.4c-0.2,0-0.3,0-0.5,0.1    c-0.2,0.1-0.3,0.1-0.5,0.2v2.7c0.1,0,0.2,0.1,0.4,0.1c0.1,0,0.3,0,0.4,0c0.5,0,0.8-0.1,1-0.4S354.6,88.8,354.6,88.3z"/> 		<path style="fill:#1A171B;" d="M363.3,88.3c0,0.9-0.3,1.6-0.8,2.1c-0.5,0.5-1.3,0.8-2.2,0.8s-1.7-0.3-2.2-0.8    c-0.5-0.5-0.8-1.2-0.8-2.1c0-0.9,0.3-1.6,0.8-2.1c0.5-0.5,1.3-0.8,2.2-0.8c1,0,1.7,0.3,2.2,0.8C363.1,86.7,363.3,87.4,363.3,88.3z     M361.2,89.6c0.1-0.1,0.2-0.3,0.3-0.5c0.1-0.2,0.1-0.5,0.1-0.8c0-0.3,0-0.6-0.1-0.8s-0.1-0.4-0.2-0.5c-0.1-0.1-0.2-0.2-0.4-0.3    s-0.3-0.1-0.5-0.1s-0.3,0-0.5,0.1s-0.3,0.1-0.4,0.3c-0.1,0.1-0.2,0.3-0.3,0.5s-0.1,0.5-0.1,0.8c0,0.3,0,0.6,0.1,0.8    s0.1,0.4,0.2,0.5c0.1,0.1,0.2,0.2,0.4,0.3c0.1,0.1,0.3,0.1,0.5,0.1c0.2,0,0.3,0,0.5-0.1C360.9,89.9,361.1,89.8,361.2,89.6z"/> 		<path style="fill:#1A171B;" d="M374.1,86.1c0,0.3-0.1,0.6-0.2,1s-0.3,0.6-0.5,0.8c-0.3,0.3-0.6,0.5-1,0.6s-0.8,0.2-1.3,0.2H370    v2.4l-1.9,0l0-7.3l3.1,0c0.5,0,0.9,0,1.2,0.1s0.6,0.2,0.8,0.4c0.3,0.2,0.5,0.4,0.7,0.7S374.1,85.7,374.1,86.1z M372.2,86.1    c0-0.2-0.1-0.4-0.2-0.5s-0.2-0.3-0.4-0.3c-0.2-0.1-0.4-0.1-0.6-0.1s-0.4,0-0.7,0H370v2.2h0.5c0.3,0,0.6,0,0.8-0.1    c0.2,0,0.4-0.1,0.5-0.2c0.1-0.1,0.2-0.2,0.3-0.4S372.2,86.3,372.2,86.1z"/> 		<path style="fill:#1A171B;" d="M380.7,88.6l-4,0c0,0.4,0.2,0.8,0.5,1c0.3,0.2,0.7,0.3,1.3,0.3c0.4,0,0.7-0.1,1.1-0.2    s0.6-0.3,0.8-0.4l0.2,0v1.4c-0.4,0.2-0.8,0.3-1.1,0.3s-0.7,0.1-1.2,0.1c-1.1,0-1.9-0.2-2.5-0.7s-0.9-1.2-0.9-2.1    c0-0.9,0.3-1.6,0.8-2.2c0.6-0.5,1.3-0.8,2.3-0.8c0.9,0,1.6,0.2,2,0.7c0.4,0.5,0.7,1.1,0.7,1.9V88.6z M379,87.6    c0-0.4-0.1-0.6-0.3-0.8s-0.4-0.3-0.8-0.3c-0.3,0-0.6,0.1-0.8,0.3s-0.3,0.5-0.4,0.8H379z"/> 		<path style="fill:#1A171B;" d="M387.5,91.1l-1.8,0v-2.7c0-0.2,0-0.4,0-0.7s-0.1-0.4-0.1-0.5c-0.1-0.1-0.2-0.2-0.3-0.3    c-0.1-0.1-0.3-0.1-0.5-0.1c-0.2,0-0.3,0-0.5,0.1c-0.2,0.1-0.3,0.1-0.5,0.2v3.9H382v-5.5h1.8v0.6c0.3-0.2,0.6-0.4,0.9-0.6    c0.3-0.1,0.6-0.2,1-0.2c0.6,0,1.1,0.2,1.4,0.5s0.5,0.9,0.5,1.5V91.1z M386.9,83.2c0,0.6-0.2,1-0.4,1.2c-0.2,0.3-0.6,0.4-1,0.4    c-0.2,0-0.3,0-0.4-0.1c-0.1-0.1-0.3-0.1-0.4-0.2c-0.1-0.1-0.2-0.1-0.3-0.2s-0.2-0.1-0.3-0.1c-0.2,0-0.3,0.1-0.3,0.2    s-0.1,0.3-0.1,0.4h-1.1c0-0.5,0.2-0.9,0.4-1.2c0.3-0.3,0.6-0.4,1-0.4c0.2,0,0.3,0,0.4,0.1s0.3,0.1,0.4,0.2    c0.1,0.1,0.2,0.1,0.3,0.2s0.2,0.1,0.3,0.1c0.2,0,0.3-0.1,0.3-0.2s0.1-0.2,0.1-0.4L386.9,83.2z"/> 		<path style="fill:#1A171B;" d="M392.4,90.5c-0.1,0.1-0.2,0.2-0.4,0.3s-0.3,0.2-0.4,0.2c-0.2,0.1-0.4,0.1-0.5,0.2s-0.4,0.1-0.6,0.1    c-0.5,0-1-0.2-1.3-0.5s-0.5-0.7-0.5-1.2c0-0.4,0.1-0.7,0.3-1s0.4-0.5,0.8-0.6c0.3-0.1,0.7-0.3,1.2-0.3s1-0.1,1.5-0.1v0    c0-0.3-0.1-0.5-0.4-0.6s-0.6-0.2-1.1-0.2c-0.3,0-0.6,0.1-0.9,0.2s-0.6,0.2-0.7,0.2h-0.2v-1.3c0.2,0,0.5-0.1,0.9-0.2    c0.4-0.1,0.8-0.1,1.3-0.1c1,0,1.7,0.2,2.2,0.5s0.7,0.8,0.7,1.4v3.7l-1.7,0V90.5z M392.4,89.6v-1.1c-0.2,0-0.5,0-0.8,0.1    c-0.3,0-0.5,0.1-0.6,0.1c-0.2,0.1-0.3,0.1-0.4,0.2s-0.1,0.2-0.1,0.4c0,0.1,0,0.2,0,0.3c0,0.1,0.1,0.1,0.1,0.2    c0.1,0.1,0.2,0.1,0.3,0.1s0.3,0,0.5,0c0.2,0,0.4,0,0.5-0.1S392.3,89.7,392.4,89.6z"/> 		<path style="fill:#1A171B;" d="M400.6,89.3c0,0.6-0.3,1-0.8,1.4s-1.2,0.5-2.1,0.5c-0.5,0-0.9,0-1.3-0.1s-0.7-0.2-1-0.3v-1.4h0.2    c0.1,0.1,0.2,0.1,0.3,0.2c0.1,0.1,0.3,0.2,0.5,0.2c0.2,0.1,0.4,0.1,0.6,0.2s0.5,0.1,0.7,0.1c0.3,0,0.6,0,0.8-0.1s0.2-0.2,0.2-0.3    c0-0.1,0-0.2-0.1-0.3s-0.3-0.1-0.6-0.2c-0.1,0-0.3-0.1-0.5-0.1c-0.2,0-0.4-0.1-0.6-0.1c-0.5-0.1-0.9-0.3-1.1-0.6s-0.4-0.6-0.4-1    c0-0.5,0.3-1,0.8-1.3c0.5-0.4,1.2-0.5,2-0.5c0.4,0,0.8,0,1.2,0.1s0.7,0.2,0.9,0.3v1.4h-0.2c-0.3-0.2-0.6-0.3-0.9-0.4    c-0.3-0.1-0.7-0.2-1-0.2c-0.3,0-0.5,0-0.7,0.1c-0.2,0.1-0.3,0.2-0.3,0.3c0,0.1,0,0.2,0.1,0.3s0.3,0.1,0.6,0.2    c0.2,0,0.4,0.1,0.6,0.1c0.2,0,0.4,0.1,0.6,0.1c0.5,0.1,0.8,0.3,1,0.6S400.6,88.9,400.6,89.3z"/> 	</g> 	<g> 		<polygon style="fill-rule:evenodd;clip-rule:evenodd;fill:none;" points="4.9,240.1 86.1,240.1 86.1,273.7 4.9,273.6   "/> 		<path style="fill:#1A171B;" d="M25.3,248.7c-0.5,0-1-0.1-1.5-0.2c-0.5-0.2-0.9-0.4-1.2-0.7s-0.6-0.7-0.8-1.2    c-0.2-0.5-0.3-1-0.3-1.6c0-0.6,0.1-1.1,0.3-1.6s0.4-0.9,0.8-1.2c0.3-0.3,0.7-0.6,1.2-0.7c0.5-0.2,1-0.3,1.5-0.3    c0.3,0,0.6,0,0.8,0.1s0.5,0.1,0.7,0.1c0.2,0.1,0.4,0.1,0.6,0.2c0.2,0.1,0.3,0.1,0.5,0.2v1.8h-0.2c-0.1-0.1-0.2-0.2-0.3-0.3    c-0.1-0.1-0.3-0.2-0.5-0.3c-0.2-0.1-0.4-0.2-0.6-0.3s-0.4-0.1-0.7-0.1c-0.3,0-0.5,0-0.8,0.1s-0.5,0.2-0.7,0.4    c-0.2,0.2-0.3,0.4-0.5,0.7c-0.1,0.3-0.2,0.7-0.2,1.1c0,0.5,0.1,0.8,0.2,1.1c0.1,0.3,0.3,0.5,0.5,0.7c0.2,0.2,0.4,0.3,0.7,0.4    s0.5,0.1,0.7,0.1c0.2,0,0.5,0,0.7-0.1c0.2-0.1,0.4-0.2,0.6-0.3c0.2-0.1,0.3-0.2,0.4-0.3c0.1-0.1,0.2-0.2,0.3-0.3h0.2l0,1.7    c-0.2,0.1-0.4,0.2-0.5,0.2s-0.3,0.1-0.5,0.2c-0.2,0.1-0.5,0.1-0.7,0.2S25.7,248.7,25.3,248.7z"/> 		<path style="fill:#1A171B;" d="M34.8,245.9c0,0.9-0.3,1.6-0.8,2.1c-0.5,0.5-1.3,0.8-2.2,0.8s-1.7-0.3-2.2-0.8    c-0.5-0.5-0.8-1.2-0.8-2.1c0-0.9,0.3-1.6,0.8-2.1s1.3-0.8,2.2-0.8c1,0,1.7,0.3,2.2,0.8S34.8,244.9,34.8,245.9z M32.6,247.2    c0.1-0.1,0.2-0.3,0.3-0.5c0.1-0.2,0.1-0.5,0.1-0.8c0-0.3,0-0.6-0.1-0.8s-0.1-0.4-0.2-0.5c-0.1-0.1-0.2-0.2-0.4-0.3    s-0.3-0.1-0.5-0.1s-0.3,0-0.5,0.1s-0.3,0.1-0.4,0.3c-0.1,0.1-0.2,0.3-0.3,0.5s-0.1,0.5-0.1,0.8c0,0.3,0,0.6,0.1,0.8    c0.1,0.2,0.1,0.4,0.2,0.5c0.1,0.1,0.2,0.2,0.4,0.3s0.3,0.1,0.5,0.1c0.2,0,0.3,0,0.5-0.1S32.5,247.3,32.6,247.2z"/> 		<path style="fill:#1A171B;" d="M41.4,244.7l0,3.9h-1.8l0-2.7c0-0.3,0-0.5,0-0.7c0-0.2,0-0.3-0.1-0.5s-0.1-0.2-0.3-0.3    s-0.3-0.1-0.5-0.1c-0.2,0-0.3,0-0.5,0.1c-0.2,0.1-0.3,0.1-0.4,0.2l0,3.9H36l0-5.5h1.8v0.6c0.3-0.2,0.6-0.4,0.9-0.6    s0.6-0.2,0.9-0.2c0.4,0,0.7,0.1,1,0.2s0.5,0.4,0.6,0.7c0.4-0.3,0.7-0.5,1-0.7s0.7-0.3,1-0.3c0.6,0,1,0.2,1.3,0.5s0.5,0.9,0.5,1.5    l0,3.6h-1.8l0-2.7c0-0.3,0-0.5,0-0.7s0-0.3-0.1-0.5c-0.1-0.1-0.1-0.2-0.3-0.3s-0.3-0.1-0.5-0.1c-0.1,0-0.3,0-0.4,0.1    C41.7,244.5,41.6,244.6,41.4,244.7z"/> 		<path style="fill:#1A171B;" d="M49.9,248c-0.1,0.1-0.2,0.2-0.4,0.3s-0.3,0.2-0.4,0.2c-0.2,0.1-0.4,0.1-0.5,0.2    c-0.2,0-0.4,0.1-0.6,0.1c-0.5,0-1-0.2-1.3-0.5s-0.5-0.7-0.5-1.2c0-0.4,0.1-0.7,0.3-1s0.4-0.5,0.8-0.6c0.3-0.1,0.7-0.3,1.2-0.3    s1-0.1,1.5-0.1v0c0-0.3-0.1-0.5-0.4-0.6c-0.2-0.1-0.6-0.2-1.1-0.2c-0.3,0-0.6,0-0.9,0.2s-0.6,0.2-0.7,0.2h-0.2v-1.3    c0.2,0,0.5-0.1,0.9-0.2c0.4-0.1,0.8-0.1,1.3-0.1c1,0,1.7,0.2,2.2,0.5s0.7,0.8,0.7,1.4l0,3.7h-1.7V248z M49.9,247.2l0-1.1    c-0.2,0-0.5,0-0.8,0.1s-0.5,0.1-0.6,0.1c-0.2,0.1-0.3,0.1-0.4,0.2s-0.1,0.2-0.1,0.4c0,0.1,0,0.2,0,0.3s0.1,0.1,0.1,0.2    c0.1,0.1,0.2,0.1,0.3,0.1c0.1,0,0.3,0,0.5,0c0.2,0,0.4,0,0.5-0.1C49.6,247.4,49.8,247.3,49.9,247.2z"/> 		<path style="fill:#1A171B;" d="M57.2,244.8h-0.2c-0.1,0-0.2,0-0.4-0.1c-0.2,0-0.3,0-0.4,0c-0.3,0-0.5,0-0.7,0    c-0.2,0-0.4,0.1-0.6,0.2l0,3.7h-1.8l0-5.5H55v0.8c0.4-0.3,0.7-0.6,1-0.7c0.3-0.1,0.5-0.2,0.8-0.2c0.1,0,0.1,0,0.2,0s0.1,0,0.2,0    V244.8z"/> 		<path style="fill:#1A171B;" d="M61.1,248.7c-0.5,0-0.9-0.1-1.3-0.2c-0.4-0.1-0.7-0.3-1-0.5c-0.3-0.2-0.5-0.5-0.7-0.9    c-0.2-0.4-0.2-0.8-0.2-1.3c0-0.5,0.1-1,0.3-1.3s0.4-0.7,0.7-0.9c0.3-0.2,0.6-0.4,1-0.5c0.4-0.1,0.8-0.2,1.2-0.2c0.4,0,0.7,0,1,0.1    s0.6,0.2,0.9,0.3v1.5h-0.2c-0.1-0.1-0.2-0.1-0.2-0.2c-0.1-0.1-0.2-0.2-0.4-0.2c-0.1-0.1-0.3-0.1-0.4-0.2c-0.2,0-0.3-0.1-0.6-0.1    c-0.5,0-0.8,0.1-1.1,0.4c-0.3,0.3-0.4,0.7-0.4,1.2c0,0.5,0.1,0.9,0.4,1.2c0.3,0.3,0.6,0.4,1.1,0.4c0.2,0,0.4,0,0.6-0.1    c0.2,0,0.3-0.1,0.4-0.2c0.1-0.1,0.2-0.1,0.3-0.2c0.1-0.1,0.2-0.1,0.2-0.2H63v1.5c-0.3,0.1-0.6,0.2-0.9,0.3    C61.8,248.7,61.5,248.7,61.1,248.7z"/> 		<path style="fill:#1A171B;" d="M67.4,248c-0.1,0.1-0.2,0.2-0.4,0.3s-0.3,0.2-0.4,0.2c-0.2,0.1-0.4,0.1-0.5,0.2    c-0.2,0-0.4,0.1-0.6,0.1c-0.5,0-1-0.2-1.3-0.5s-0.5-0.7-0.5-1.2c0-0.4,0.1-0.7,0.3-1s0.4-0.5,0.8-0.6c0.3-0.1,0.7-0.3,1.2-0.3    s1-0.1,1.5-0.1v0c0-0.3-0.1-0.5-0.4-0.6c-0.2-0.1-0.6-0.2-1.1-0.2c-0.3,0-0.6,0.1-0.9,0.2s-0.6,0.2-0.7,0.2h-0.2v-1.3    c0.2,0,0.5-0.1,0.9-0.2c0.4-0.1,0.8-0.1,1.3-0.1c1,0,1.7,0.2,2.2,0.5s0.7,0.8,0.7,1.4l0,3.7h-1.7V248z M67.4,247.2l0-1.1    c-0.2,0-0.5,0-0.8,0.1s-0.5,0.1-0.6,0.1c-0.2,0.1-0.3,0.1-0.4,0.2s-0.1,0.2-0.1,0.4c0,0.1,0,0.2,0,0.3s0.1,0.1,0.1,0.2    c0.1,0.1,0.2,0.1,0.3,0.1c0.1,0,0.3,0,0.5,0c0.2,0,0.4,0,0.5-0.1C67.2,247.4,67.3,247.3,67.4,247.2z"/> 		<path style="fill:#1A171B;" d="M36.3,259.6l-1.9,0l-0.5-1.5h-2.7l-0.5,1.5h-1.9l2.7-7.3h2.2L36.3,259.6z M33.4,256.8l-0.9-2.6    l-0.9,2.6H33.4z"/> 		<path style="fill:#1A171B;" d="M42.8,254.1l-2.1,5.5h-2l-2.1-5.5h1.9l1.3,3.8l1.3-3.8H42.8z"/> 		<path style="fill:#1A171B;" d="M45.6,253.3h-1.9l0-1.3h1.9L45.6,253.3z M45.5,259.6h-1.8l0-5.5h1.8L45.5,259.6z"/> 		<path style="fill:#1A171B;" d="M49,259.6l-1.8,0l0-7.6l1.8,0L49,259.6z"/> 		<path style="fill:#1A171B;" d="M56,257.2h-4c0,0.4,0.2,0.8,0.5,1s0.7,0.3,1.3,0.3c0.4,0,0.7-0.1,1.1-0.2s0.6-0.3,0.8-0.4h0.2    l0,1.4c-0.4,0.2-0.8,0.3-1.1,0.3s-0.7,0.1-1.2,0.1c-1.1,0-1.9-0.2-2.5-0.7c-0.6-0.5-0.9-1.2-0.9-2.1c0-0.9,0.3-1.6,0.8-2.2    c0.6-0.5,1.3-0.8,2.3-0.8c0.9,0,1.6,0.2,2,0.7c0.4,0.5,0.7,1.1,0.7,1.9V257.2z M54.3,256.2c0-0.4-0.1-0.6-0.3-0.8    s-0.4-0.3-0.8-0.3c-0.3,0-0.6,0.1-0.8,0.3s-0.3,0.5-0.4,0.8H54.3z M55,251.4L55,251.4l-1.7,1.9h-1.2l1.2-1.9H55z"/> 		<path style="fill:#1A171B;" d="M62,257.9c0,0.6-0.3,1-0.8,1.4c-0.5,0.3-1.2,0.5-2.1,0.5c-0.5,0-0.9,0-1.3-0.1s-0.7-0.2-1-0.3    l0-1.4h0.2c0.1,0.1,0.2,0.1,0.3,0.2s0.3,0.2,0.5,0.2c0.2,0.1,0.4,0.1,0.6,0.2s0.5,0.1,0.7,0.1c0.3,0,0.6,0,0.8-0.1    c0.2-0.1,0.2-0.2,0.2-0.3c0-0.1,0-0.2-0.1-0.3s-0.3-0.1-0.6-0.2c-0.1,0-0.3-0.1-0.5-0.1s-0.4-0.1-0.6-0.1    c-0.5-0.1-0.9-0.3-1.1-0.6c-0.2-0.3-0.4-0.6-0.4-1c0-0.5,0.3-1,0.7-1.3c0.5-0.3,1.2-0.5,2-0.5c0.4,0,0.8,0,1.2,0.1    s0.7,0.2,0.9,0.3v1.4h-0.2c-0.3-0.2-0.6-0.3-0.9-0.4s-0.7-0.2-1-0.2c-0.3,0-0.5,0-0.7,0.1s-0.3,0.2-0.3,0.3c0,0.1,0,0.2,0.1,0.3    s0.3,0.1,0.6,0.2c0.2,0,0.4,0.1,0.6,0.1c0.2,0,0.4,0.1,0.6,0.1c0.5,0.1,0.8,0.3,1,0.6S62,257.5,62,257.9z"/> 	</g> 	<g> 		<polygon style="fill-rule:evenodd;clip-rule:evenodd;fill:none;" points="278.2,407.9 385,407.9 385,421.5 278.2,421.5   "/> 		<path style="fill:#1A171B;" d="M286,416.6c-0.5,0-1-0.1-1.5-0.2c-0.5-0.2-0.9-0.4-1.2-0.7c-0.3-0.3-0.6-0.7-0.8-1.2    c-0.2-0.5-0.3-1-0.3-1.6c0-0.6,0.1-1.1,0.3-1.6c0.2-0.5,0.4-0.9,0.8-1.2c0.3-0.3,0.7-0.6,1.2-0.7s1-0.3,1.5-0.3    c0.3,0,0.6,0,0.8,0.1c0.2,0,0.5,0.1,0.7,0.1c0.2,0.1,0.4,0.1,0.6,0.2c0.2,0.1,0.3,0.1,0.5,0.2v1.8h-0.2c-0.1-0.1-0.2-0.2-0.3-0.3    c-0.1-0.1-0.3-0.2-0.5-0.3c-0.2-0.1-0.4-0.2-0.6-0.3c-0.2-0.1-0.4-0.1-0.7-0.1c-0.3,0-0.5,0-0.8,0.1c-0.2,0.1-0.5,0.2-0.7,0.4    c-0.2,0.2-0.3,0.4-0.5,0.7c-0.1,0.3-0.2,0.7-0.2,1.1c0,0.5,0.1,0.8,0.2,1.1c0.1,0.3,0.3,0.5,0.5,0.7c0.2,0.2,0.4,0.3,0.7,0.4    s0.5,0.1,0.7,0.1c0.2,0,0.5,0,0.7-0.1c0.2-0.1,0.4-0.2,0.6-0.3c0.2-0.1,0.3-0.2,0.4-0.3c0.1-0.1,0.3-0.2,0.3-0.3h0.2v1.7    c-0.2,0.1-0.4,0.2-0.5,0.2s-0.3,0.1-0.5,0.2c-0.2,0.1-0.5,0.1-0.7,0.2C286.6,416.6,286.4,416.6,286,416.6z"/> 		<path style="fill:#1A171B;" d="M295.4,413.7c0,0.9-0.3,1.6-0.8,2.1c-0.5,0.5-1.3,0.8-2.2,0.8c-1,0-1.7-0.3-2.2-0.8    c-0.5-0.5-0.8-1.2-0.8-2.1c0-0.9,0.3-1.6,0.8-2.1s1.3-0.8,2.2-0.8c1,0,1.7,0.3,2.2,0.8C295.2,412.1,295.4,412.8,295.4,413.7z     M293.3,415c0.1-0.1,0.2-0.3,0.3-0.5c0.1-0.2,0.1-0.5,0.1-0.8c0-0.3,0-0.6-0.1-0.8s-0.1-0.4-0.2-0.5c-0.1-0.1-0.2-0.2-0.4-0.3    s-0.3-0.1-0.5-0.1c-0.2,0-0.3,0-0.5,0.1c-0.1,0-0.3,0.1-0.4,0.3c-0.1,0.1-0.2,0.3-0.3,0.5c-0.1,0.2-0.1,0.5-0.1,0.8    c0,0.3,0,0.6,0.1,0.8s0.1,0.4,0.2,0.5c0.1,0.1,0.2,0.2,0.4,0.3c0.1,0.1,0.3,0.1,0.5,0.1c0.2,0,0.3,0,0.5-0.1    S293.2,415.2,293.3,415z"/> 		<path style="fill:#1A171B;" d="M302.1,412.6l0,3.9h-1.8v-2.7c0-0.3,0-0.5,0-0.7c0-0.2,0-0.3-0.1-0.5s-0.1-0.2-0.3-0.3    c-0.1-0.1-0.3-0.1-0.5-0.1c-0.2,0-0.3,0-0.5,0.1c-0.2,0.1-0.3,0.1-0.4,0.2v3.9h-1.8l0-5.5h1.8v0.6c0.3-0.2,0.6-0.4,0.9-0.6    c0.3-0.1,0.6-0.2,0.9-0.2c0.4,0,0.7,0.1,1,0.2s0.5,0.4,0.6,0.7c0.4-0.3,0.7-0.5,1-0.7c0.3-0.2,0.7-0.3,1-0.3c0.6,0,1,0.2,1.3,0.5    s0.5,0.9,0.5,1.5v3.6l-1.8,0l0-2.7c0-0.3,0-0.5,0-0.7c0-0.2,0-0.3-0.1-0.5c-0.1-0.1-0.1-0.2-0.3-0.3c-0.1-0.1-0.3-0.1-0.5-0.1    c-0.1,0-0.3,0-0.4,0.1C302.4,412.4,302.3,412.4,302.1,412.6z"/> 		<path style="fill:#1A171B;" d="M310.6,415.9c-0.1,0.1-0.2,0.2-0.4,0.3c-0.1,0.1-0.3,0.2-0.4,0.2c-0.2,0.1-0.4,0.1-0.5,0.2    c-0.2,0-0.4,0.1-0.6,0.1c-0.5,0-1-0.2-1.3-0.5s-0.5-0.7-0.5-1.2c0-0.4,0.1-0.7,0.3-1c0.2-0.3,0.4-0.5,0.8-0.6    c0.3-0.1,0.7-0.3,1.2-0.3c0.5-0.1,1-0.1,1.5-0.1v0c0-0.3-0.1-0.5-0.4-0.6c-0.2-0.1-0.6-0.2-1.1-0.2c-0.3,0-0.6,0.1-0.9,0.2    c-0.3,0.1-0.6,0.2-0.7,0.2h-0.2v-1.3c0.2,0,0.5-0.1,0.9-0.2c0.4-0.1,0.8-0.1,1.3-0.1c1,0,1.7,0.2,2.2,0.5c0.4,0.3,0.7,0.8,0.7,1.4    v3.7h-1.7V415.9z M310.6,415l0-1.1c-0.2,0-0.5,0-0.8,0.1c-0.3,0-0.5,0.1-0.6,0.1c-0.2,0.1-0.3,0.1-0.4,0.2    c-0.1,0.1-0.1,0.2-0.1,0.4c0,0.1,0,0.2,0,0.3s0.1,0.1,0.1,0.2c0.1,0.1,0.2,0.1,0.3,0.1c0.1,0,0.3,0,0.5,0c0.2,0,0.4,0,0.5-0.1    C310.3,415.2,310.5,415.1,310.6,415z"/> 		<path style="fill:#1A171B;" d="M317.9,412.6h-0.2c-0.1,0-0.2,0-0.4-0.1s-0.3,0-0.4,0c-0.3,0-0.5,0-0.7,0c-0.2,0-0.4,0.1-0.6,0.2    v3.7H314l0-5.5h1.8v0.8c0.4-0.3,0.7-0.6,1-0.7c0.3-0.1,0.5-0.2,0.8-0.2c0.1,0,0.1,0,0.2,0c0.1,0,0.1,0,0.2,0V412.6z"/> 		<path style="fill:#1A171B;" d="M321.8,416.6c-0.5,0-0.9-0.1-1.3-0.2c-0.4-0.1-0.7-0.3-1-0.5c-0.3-0.2-0.5-0.5-0.7-0.9    s-0.2-0.8-0.2-1.3c0-0.5,0.1-1,0.3-1.3c0.2-0.4,0.4-0.7,0.7-0.9c0.3-0.2,0.6-0.4,1-0.5c0.4-0.1,0.8-0.2,1.2-0.2c0.4,0,0.7,0,1,0.1    c0.3,0.1,0.6,0.2,0.9,0.3v1.5h-0.3c-0.1-0.1-0.2-0.1-0.2-0.2s-0.2-0.2-0.4-0.2c-0.1-0.1-0.3-0.1-0.4-0.2c-0.2,0-0.3-0.1-0.6-0.1    c-0.5,0-0.8,0.1-1.1,0.4s-0.4,0.7-0.4,1.2c0,0.5,0.1,0.9,0.4,1.2c0.3,0.3,0.6,0.4,1.1,0.4c0.2,0,0.4,0,0.6-0.1    c0.2,0,0.3-0.1,0.4-0.2c0.1-0.1,0.2-0.1,0.3-0.2s0.2-0.1,0.2-0.2h0.2v1.5c-0.3,0.1-0.6,0.2-0.9,0.3    C322.5,416.6,322.2,416.6,321.8,416.6z"/> 		<path style="fill:#1A171B;" d="M328.1,415.9c-0.1,0.1-0.2,0.2-0.4,0.3c-0.1,0.1-0.3,0.2-0.4,0.2c-0.2,0.1-0.4,0.1-0.5,0.2    c-0.2,0-0.4,0.1-0.6,0.1c-0.5,0-1-0.2-1.3-0.5s-0.5-0.7-0.5-1.2c0-0.4,0.1-0.7,0.3-1c0.2-0.3,0.4-0.5,0.8-0.6    c0.3-0.1,0.7-0.3,1.2-0.3c0.5-0.1,1-0.1,1.5-0.1v0c0-0.3-0.1-0.5-0.4-0.6c-0.2-0.1-0.6-0.2-1.1-0.2c-0.3,0-0.6,0.1-0.9,0.2    c-0.3,0.1-0.6,0.2-0.7,0.2h-0.2v-1.3c0.2,0,0.5-0.1,0.9-0.2c0.4-0.1,0.8-0.1,1.3-0.1c1,0,1.7,0.2,2.2,0.5c0.4,0.3,0.7,0.8,0.7,1.4    l0,3.7l-1.7,0V415.9z M328.1,415v-1.1c-0.2,0-0.5,0-0.8,0.1c-0.3,0-0.5,0.1-0.6,0.1c-0.2,0.1-0.3,0.1-0.4,0.2    c-0.1,0.1-0.1,0.2-0.1,0.4c0,0.1,0,0.2,0,0.3s0.1,0.1,0.1,0.2c0.1,0.1,0.2,0.1,0.3,0.1c0.1,0,0.3,0,0.5,0c0.2,0,0.4,0,0.5-0.1    C327.8,415.2,328,415.1,328.1,415z"/> 		<path style="fill:#1A171B;" d="M340.3,416.5h-1.8v-0.6c-0.3,0.2-0.6,0.4-0.8,0.5s-0.6,0.2-0.9,0.2c-0.7,0-1.2-0.3-1.6-0.8    c-0.4-0.5-0.6-1.2-0.6-2.1c0-0.5,0.1-0.9,0.2-1.2c0.1-0.4,0.3-0.7,0.6-0.9c0.2-0.2,0.5-0.4,0.8-0.6c0.3-0.1,0.6-0.2,0.9-0.2    c0.3,0,0.6,0,0.8,0.1c0.2,0.1,0.4,0.2,0.6,0.3v-2.3h1.8V416.5z M338.5,414.9l0-2.7c-0.1-0.1-0.3-0.1-0.4-0.1s-0.3,0-0.4,0    c-0.5,0-0.8,0.1-1,0.4c-0.2,0.3-0.3,0.7-0.3,1.2c0,0.5,0.1,0.9,0.3,1.2s0.5,0.4,0.9,0.4c0.2,0,0.3,0,0.5-0.1    C338.2,415.1,338.4,415,338.5,414.9z"/> 		<path style="fill:#1A171B;" d="M347.3,414h-4c0,0.4,0.2,0.8,0.5,1c0.3,0.2,0.7,0.3,1.3,0.3c0.4,0,0.7-0.1,1.1-0.2    c0.3-0.1,0.6-0.3,0.8-0.4h0.2v1.4c-0.4,0.2-0.8,0.3-1.1,0.3s-0.7,0.1-1.2,0.1c-1.1,0-1.9-0.2-2.5-0.7s-0.9-1.2-0.9-2.1    c0-0.9,0.3-1.6,0.8-2.2c0.6-0.5,1.3-0.8,2.3-0.8c0.9,0,1.6,0.2,2,0.7c0.4,0.5,0.7,1.1,0.7,1.9V414z M345.6,413    c0-0.4-0.1-0.6-0.3-0.8c-0.2-0.2-0.4-0.3-0.8-0.3c-0.3,0-0.6,0.1-0.8,0.3c-0.2,0.2-0.3,0.5-0.4,0.8H345.6z"/> 		<path style="fill:#1A171B;" d="M350.3,416.5h-1.8v-7.6h1.8L350.3,416.5z"/> 		<path style="fill:#1A171B;" d="M362.1,416.5h-1.8l-3.1-5v5h-1.7v-7.3h2.2l2.7,4.2v-4.2h1.7V416.5z"/> 		<path style="fill:#1A171B;" d="M369.5,413.7c0,0.9-0.3,1.6-0.8,2.1c-0.5,0.5-1.3,0.8-2.2,0.8c-1,0-1.7-0.3-2.2-0.8    c-0.5-0.5-0.8-1.2-0.8-2.1c0-0.9,0.3-1.6,0.8-2.1s1.3-0.8,2.2-0.8c1,0,1.7,0.3,2.2,0.8C369.2,412.1,369.5,412.8,369.5,413.7z     M367.3,415c0.1-0.1,0.2-0.3,0.3-0.5c0.1-0.2,0.1-0.5,0.1-0.8c0-0.3,0-0.6-0.1-0.8s-0.1-0.4-0.2-0.5c-0.1-0.1-0.2-0.2-0.4-0.3    s-0.3-0.1-0.5-0.1c-0.2,0-0.3,0-0.5,0.1c-0.1,0-0.3,0.1-0.4,0.3c-0.1,0.1-0.2,0.3-0.3,0.5c-0.1,0.2-0.1,0.5-0.1,0.8    c0,0.3,0,0.6,0.1,0.8s0.1,0.4,0.2,0.5c0.1,0.1,0.2,0.2,0.4,0.3c0.1,0.1,0.3,0.1,0.5,0.1c0.2,0,0.3,0,0.5-0.1    S367.2,415.2,367.3,415z"/> 		<path style="fill:#1A171B;" d="M374.7,412.6h-0.2c-0.1,0-0.2,0-0.4-0.1s-0.3,0-0.4,0c-0.3,0-0.5,0-0.7,0s-0.4,0.1-0.6,0.2l0,3.7    h-1.8V411h1.8v0.8c0.4-0.3,0.7-0.6,1-0.7c0.3-0.1,0.5-0.2,0.8-0.2c0.1,0,0.1,0,0.2,0s0.1,0,0.2,0V412.6z"/> 		<path style="fill:#1A171B;" d="M379,415.9c-0.1,0.1-0.2,0.2-0.4,0.3c-0.1,0.1-0.3,0.2-0.4,0.2c-0.2,0.1-0.4,0.1-0.5,0.2    c-0.2,0-0.4,0.1-0.6,0.1c-0.5,0-1-0.2-1.3-0.5s-0.5-0.7-0.5-1.2c0-0.4,0.1-0.7,0.3-1c0.2-0.3,0.4-0.5,0.8-0.6    c0.3-0.1,0.7-0.3,1.2-0.3c0.5-0.1,1-0.1,1.5-0.1v0c0-0.3-0.1-0.5-0.4-0.6c-0.2-0.1-0.6-0.2-1.1-0.2c-0.3,0-0.6,0-0.9,0.2    c-0.3,0.1-0.6,0.2-0.7,0.2h-0.2v-1.3c0.2,0,0.5-0.1,0.9-0.2c0.4-0.1,0.8-0.1,1.3-0.1c1,0,1.7,0.2,2.2,0.5c0.4,0.3,0.7,0.8,0.7,1.4    l0,3.7H379V415.9z M379,415v-1.1c-0.2,0-0.5,0-0.8,0.1c-0.3,0-0.5,0.1-0.6,0.1c-0.2,0.1-0.3,0.1-0.4,0.2c-0.1,0.1-0.1,0.2-0.1,0.4    c0,0.1,0,0.2,0,0.3s0.1,0.1,0.1,0.2c0.1,0.1,0.2,0.1,0.3,0.1c0.1,0,0.3,0,0.5,0c0.2,0,0.4,0,0.5-0.1    C378.7,415.2,378.9,415.1,379,415z"/> 	</g> 	<g> 		 			<rect x="48.1" y="412.7" transform="matrix(-1 -6.881555e-005 6.881555e-005 -1 181.3383 839.0316)" style="fill-rule:evenodd;clip-rule:evenodd;fill:none;" width="85.1" height="13.6"/> 		<path style="fill:#1A171B;" d="M58.1,417.6c0,1.2-0.3,2.1-1,2.8c-0.7,0.7-1.6,1-2.8,1c-1.2,0-2.1-0.3-2.7-1c-0.7-0.7-1-1.6-1-2.8    c0-1.2,0.3-2.1,1-2.8s1.6-1,2.7-1c1.2,0,2.1,0.3,2.7,1S58.1,416.4,58.1,417.6z M55.6,419.5c0.2-0.2,0.3-0.5,0.4-0.8    c0.1-0.3,0.1-0.7,0.1-1.1c0-0.4-0.1-0.8-0.2-1.1s-0.2-0.6-0.4-0.7c-0.2-0.2-0.4-0.3-0.6-0.4s-0.4-0.1-0.7-0.1    c-0.2,0-0.5,0-0.7,0.1s-0.4,0.2-0.6,0.4c-0.2,0.2-0.3,0.4-0.4,0.8c-0.1,0.3-0.2,0.7-0.2,1.1c0,0.4,0.1,0.8,0.1,1.1    c0.1,0.3,0.2,0.6,0.4,0.7s0.4,0.3,0.6,0.4s0.4,0.1,0.7,0.1s0.5,0,0.7-0.1S55.4,419.6,55.6,419.5z"/> 		<path style="fill:#1A171B;" d="M64.9,415.8l-2.1,5.5h-2l-2.1-5.5l1.9,0l1.3,3.8l1.3-3.8H64.9z"/> 		<path style="fill:#1A171B;" d="M67.7,415h-1.9v-1.3h1.9V415z M67.6,421.2h-1.8l0-5.5h1.8L67.6,421.2z"/> 		<path style="fill:#1A171B;" d="M74.7,418.8l-4,0c0,0.4,0.2,0.8,0.5,1s0.7,0.3,1.3,0.3c0.4,0,0.7-0.1,1.1-0.2s0.6-0.3,0.8-0.4h0.2    v1.4c-0.4,0.2-0.8,0.3-1.1,0.3s-0.7,0.1-1.2,0.1c-1.1,0-1.9-0.2-2.5-0.7s-0.9-1.2-0.9-2.1c0-0.9,0.3-1.6,0.8-2.2    c0.6-0.5,1.3-0.8,2.3-0.8c0.9,0,1.6,0.2,2,0.7c0.4,0.5,0.7,1.1,0.7,1.9V418.8z M73,417.8c0-0.4-0.1-0.6-0.3-0.8s-0.4-0.3-0.8-0.3    c-0.3,0-0.6,0.1-0.8,0.3s-0.3,0.5-0.4,0.8L73,417.8z"/> 		<path style="fill:#1A171B;" d="M81.3,421.2h-1.8v-0.6c-0.3,0.2-0.6,0.4-0.8,0.5s-0.6,0.2-0.9,0.2c-0.7,0-1.2-0.3-1.6-0.8    c-0.4-0.5-0.6-1.2-0.6-2.1c0-0.5,0.1-0.9,0.2-1.2c0.1-0.4,0.3-0.7,0.6-0.9c0.2-0.2,0.5-0.4,0.8-0.6c0.3-0.1,0.6-0.2,0.9-0.2    c0.3,0,0.6,0,0.8,0.1c0.2,0.1,0.4,0.2,0.6,0.3v-2.3h1.8L81.3,421.2z M79.5,419.7l0-2.7c-0.1-0.1-0.3-0.1-0.4-0.1s-0.3,0-0.4,0    c-0.5,0-0.8,0.1-1,0.4c-0.2,0.3-0.3,0.7-0.3,1.2c0,0.5,0.1,0.9,0.3,1.2s0.5,0.4,0.9,0.4c0.2,0,0.3,0,0.5-0.1    C79.2,419.9,79.4,419.8,79.5,419.7z"/> 		<path style="fill:#1A171B;" d="M88.5,418.5c0,0.9-0.3,1.6-0.8,2.1c-0.5,0.5-1.3,0.8-2.2,0.8s-1.7-0.3-2.2-0.8    c-0.5-0.5-0.8-1.2-0.8-2.1c0-0.9,0.3-1.6,0.8-2.1s1.3-0.8,2.2-0.8c1,0,1.7,0.3,2.2,0.8S88.5,417.6,88.5,418.5z M86.4,419.8    c0.1-0.1,0.2-0.3,0.3-0.5c0.1-0.2,0.1-0.5,0.1-0.8c0-0.3,0-0.6-0.1-0.8c-0.1-0.2-0.1-0.4-0.2-0.5c-0.1-0.1-0.2-0.2-0.4-0.3    s-0.3-0.1-0.5-0.1s-0.3,0-0.5,0.1s-0.3,0.1-0.4,0.3c-0.1,0.1-0.2,0.3-0.3,0.5c-0.1,0.2-0.1,0.5-0.1,0.8c0,0.3,0,0.6,0.1,0.8    s0.1,0.4,0.2,0.5c0.1,0.1,0.2,0.2,0.4,0.3s0.3,0.1,0.5,0.1c0.2,0,0.3,0,0.5-0.1S86.3,420,86.4,419.8z"/> 		<path style="fill:#1A171B;" d="M96.6,421.4c-0.5,0-1-0.1-1.5-0.2s-0.9-0.4-1.2-0.7s-0.6-0.7-0.8-1.2s-0.3-1-0.3-1.6    c0-0.6,0.1-1.1,0.3-1.6s0.4-0.9,0.8-1.2c0.3-0.3,0.7-0.6,1.2-0.7s1-0.3,1.5-0.3c0.3,0,0.6,0,0.8,0.1s0.5,0.1,0.7,0.1    c0.2,0.1,0.4,0.1,0.6,0.2c0.2,0.1,0.3,0.1,0.5,0.2v1.8H99c-0.1-0.1-0.2-0.2-0.3-0.3c-0.1-0.1-0.3-0.2-0.5-0.3    c-0.2-0.1-0.4-0.2-0.6-0.3s-0.4-0.1-0.7-0.1c-0.3,0-0.5,0-0.8,0.1s-0.5,0.2-0.7,0.4c-0.2,0.2-0.3,0.4-0.5,0.7    c-0.1,0.3-0.2,0.7-0.2,1.1c0,0.5,0.1,0.8,0.2,1.1c0.1,0.3,0.3,0.5,0.5,0.7c0.2,0.2,0.4,0.3,0.7,0.4s0.5,0.1,0.7,0.1    c0.2,0,0.5,0,0.7-0.1c0.2-0.1,0.4-0.2,0.6-0.3c0.2-0.1,0.3-0.2,0.4-0.3c0.1-0.1,0.2-0.2,0.3-0.3h0.2v1.7c-0.2,0.1-0.4,0.2-0.5,0.2    s-0.3,0.1-0.5,0.2c-0.2,0.1-0.5,0.1-0.7,0.2S97,421.4,96.6,421.4z"/> 		<path style="fill:#1A171B;" d="M103.8,420.7c-0.1,0.1-0.2,0.2-0.4,0.3s-0.3,0.2-0.4,0.2c-0.2,0.1-0.4,0.1-0.5,0.2    c-0.2,0-0.4,0.1-0.6,0.1c-0.5,0-1-0.2-1.3-0.5s-0.5-0.7-0.5-1.2c0-0.4,0.1-0.7,0.3-1s0.4-0.5,0.8-0.6c0.3-0.1,0.7-0.3,1.2-0.3    s1-0.1,1.5-0.1v0c0-0.3-0.1-0.5-0.4-0.6c-0.2-0.1-0.6-0.2-1.1-0.2c-0.3,0-0.6,0.1-0.9,0.2s-0.6,0.2-0.7,0.2h-0.2v-1.3    c0.2,0,0.5-0.1,0.9-0.2c0.4-0.1,0.8-0.1,1.3-0.1c1,0,1.7,0.2,2.2,0.5s0.7,0.8,0.7,1.4l0,3.7h-1.7V420.7z M103.8,419.8v-1.1    c-0.2,0-0.5,0-0.8,0.1s-0.5,0.1-0.6,0.1c-0.2,0.1-0.3,0.1-0.4,0.2s-0.1,0.2-0.1,0.4c0,0.1,0,0.2,0,0.3s0.1,0.1,0.1,0.2    c0.1,0.1,0.2,0.1,0.3,0.1c0.1,0,0.3,0,0.5,0c0.2,0,0.4,0,0.5-0.1C103.5,420,103.6,419.9,103.8,419.8z"/> 		<path style="fill:#1A171B;" d="M112.9,418.4c0,0.5-0.1,0.9-0.2,1.2c-0.1,0.4-0.3,0.7-0.5,0.9c-0.2,0.3-0.5,0.4-0.8,0.6    s-0.6,0.2-1,0.2c-0.3,0-0.6,0-0.8-0.1c-0.2-0.1-0.4-0.2-0.7-0.3v2.3h-1.8l0-7.5h1.8v0.6c0.3-0.2,0.5-0.4,0.8-0.5s0.6-0.2,1-0.2    c0.7,0,1.2,0.3,1.6,0.8C112.7,416.9,112.9,417.6,112.9,418.4z M111,418.5c0-0.5-0.1-0.9-0.3-1.2c-0.2-0.2-0.5-0.4-0.9-0.4    c-0.2,0-0.3,0-0.5,0.1c-0.2,0.1-0.3,0.1-0.5,0.2l0,2.8c0.1,0,0.2,0.1,0.4,0.1s0.3,0,0.4,0c0.5,0,0.8-0.1,1-0.4    C110.9,419.4,111,419,111,418.5z"/> 		<path style="fill:#1A171B;" d="M115.9,415h-1.9v-1.3h1.9V415z M115.9,421.2h-1.8l0-5.5h1.8L115.9,421.2z"/> 		<path style="fill:#1A171B;" d="M121.1,421.2c-0.2,0-0.4,0.1-0.6,0.1c-0.2,0-0.5,0-0.8,0c-0.7,0-1.2-0.1-1.5-0.4s-0.5-0.8-0.5-1.4    l0-2.6h-0.7v-1.2h0.7v-1.6h1.8v1.6h1.6v1.2h-1.6l0,1.9c0,0.2,0,0.4,0,0.5s0,0.3,0.1,0.4c0,0.1,0.1,0.2,0.2,0.3    c0.1,0.1,0.3,0.1,0.5,0.1c0.1,0,0.2,0,0.4-0.1c0.1,0,0.3-0.1,0.3-0.1h0.1V421.2z"/> 		<path style="fill:#1A171B;" d="M125.4,420.7c-0.1,0.1-0.2,0.2-0.4,0.3s-0.3,0.2-0.4,0.2c-0.2,0.1-0.4,0.1-0.5,0.2    c-0.2,0-0.4,0.1-0.6,0.1c-0.5,0-1-0.2-1.3-0.5s-0.5-0.7-0.5-1.2c0-0.4,0.1-0.7,0.3-1s0.4-0.5,0.8-0.6c0.3-0.1,0.7-0.3,1.2-0.3    s1-0.1,1.5-0.1v0c0-0.3-0.1-0.5-0.4-0.6c-0.2-0.1-0.6-0.2-1.1-0.2c-0.3,0-0.6,0.1-0.9,0.2s-0.6,0.2-0.7,0.2h-0.2v-1.3    c0.2,0,0.5-0.1,0.9-0.2c0.4-0.1,0.8-0.1,1.3-0.1c1,0,1.7,0.2,2.2,0.5s0.7,0.8,0.7,1.4l0,3.7h-1.7V420.7z M125.4,419.8v-1.1    c-0.2,0-0.5,0-0.8,0.1s-0.5,0.1-0.6,0.1c-0.2,0.1-0.3,0.1-0.4,0.2s-0.1,0.2-0.1,0.4c0,0.1,0,0.2,0,0.3s0.1,0.1,0.1,0.2    c0.1,0.1,0.2,0.1,0.3,0.1c0.1,0,0.3,0,0.5,0c0.2,0,0.4,0,0.5-0.1C125.1,420,125.3,419.9,125.4,419.8z"/> 		<path style="fill:#1A171B;" d="M130.5,421.2h-1.8l0-7.6h1.8L130.5,421.2z"/> 	</g> </g> <g id="text-municipis"> 	<g> 		<rect x="119.7" y="209.3" style="fill-rule:evenodd;clip-rule:evenodd;fill:none;" width="48.1" height="11"/> 		<path d="M126.3,217.3c-0.2,0.1-0.3,0.2-0.5,0.2c-0.1,0.1-0.3,0.1-0.6,0.2c-0.2,0.1-0.4,0.1-0.6,0.2c-0.2,0-0.5,0.1-0.8,0.1    c-0.5,0-1-0.1-1.4-0.2s-0.8-0.4-1.1-0.7c-0.3-0.3-0.6-0.7-0.7-1.2s-0.3-1-0.3-1.7c0-0.6,0.1-1.1,0.3-1.6c0.2-0.5,0.4-0.9,0.7-1.2    c0.3-0.3,0.7-0.6,1.1-0.7c0.4-0.2,0.9-0.2,1.5-0.2c0.4,0,0.8,0,1.2,0.1c0.4,0.1,0.8,0.3,1.3,0.5v1.1h-0.1    c-0.4-0.3-0.8-0.6-1.2-0.7c-0.4-0.2-0.8-0.2-1.3-0.2c-0.4,0-0.7,0.1-1,0.2s-0.6,0.3-0.8,0.6c-0.2,0.2-0.4,0.6-0.5,0.9    c-0.1,0.4-0.2,0.8-0.2,1.3c0,0.5,0.1,1,0.2,1.3c0.1,0.4,0.3,0.7,0.5,0.9c0.2,0.2,0.5,0.4,0.8,0.5s0.6,0.2,1,0.2    c0.5,0,0.9-0.1,1.3-0.2c0.4-0.2,0.8-0.4,1.1-0.7h0.1V217.3z"/> 		<path d="M131.8,217.8h-0.9v-0.6c-0.1,0.1-0.2,0.1-0.3,0.2s-0.3,0.2-0.4,0.2c-0.2,0.1-0.3,0.1-0.5,0.2c-0.2,0.1-0.4,0.1-0.7,0.1    c-0.5,0-0.9-0.2-1.3-0.5c-0.3-0.3-0.5-0.7-0.5-1.2c0-0.4,0.1-0.7,0.3-1s0.4-0.5,0.8-0.6c0.3-0.1,0.7-0.2,1.2-0.3s1-0.1,1.5-0.1    V214c0-0.2,0-0.4-0.1-0.5s-0.2-0.2-0.3-0.3c-0.1-0.1-0.3-0.1-0.5-0.2c-0.2,0-0.4,0-0.6,0c-0.2,0-0.5,0-0.8,0.1    c-0.3,0.1-0.6,0.2-0.9,0.3h0v-0.9c0.2,0,0.4-0.1,0.8-0.2s0.7-0.1,1-0.1c0.4,0,0.7,0,1,0.1s0.5,0.2,0.7,0.3    c0.2,0.1,0.4,0.3,0.5,0.6s0.2,0.5,0.2,0.9V217.8z M130.9,216.4v-1.5c-0.3,0-0.6,0-1,0.1c-0.4,0-0.7,0.1-0.9,0.1    c-0.3,0.1-0.5,0.2-0.6,0.3c-0.2,0.2-0.2,0.4-0.2,0.7c0,0.3,0.1,0.5,0.3,0.7c0.2,0.2,0.5,0.2,0.9,0.2c0.3,0,0.6-0.1,0.9-0.2    C130.4,216.8,130.7,216.6,130.9,216.4z"/> 		<path d="M137.5,216.2c0,0.5-0.2,0.9-0.6,1.2s-1,0.5-1.7,0.5c-0.4,0-0.8,0-1.1-0.1s-0.6-0.2-0.8-0.3v-1h0c0.3,0.2,0.6,0.4,1,0.5    c0.4,0.1,0.7,0.2,1,0.2c0.4,0,0.7-0.1,0.9-0.2c0.2-0.1,0.3-0.3,0.3-0.6c0-0.2-0.1-0.4-0.2-0.5c-0.1-0.1-0.4-0.2-0.7-0.3    c-0.1,0-0.3-0.1-0.5-0.1s-0.4-0.1-0.6-0.1c-0.5-0.1-0.8-0.3-1-0.6s-0.3-0.5-0.3-0.9c0-0.2,0-0.4,0.1-0.6s0.2-0.4,0.4-0.5    c0.2-0.2,0.4-0.3,0.7-0.4c0.3-0.1,0.6-0.1,0.9-0.1c0.3,0,0.7,0,1,0.1s0.6,0.2,0.8,0.3v1h0c-0.2-0.2-0.5-0.3-0.9-0.4    c-0.3-0.1-0.7-0.2-1-0.2c-0.3,0-0.6,0.1-0.8,0.2s-0.3,0.3-0.3,0.6c0,0.2,0.1,0.4,0.2,0.5c0.1,0.1,0.4,0.2,0.7,0.3    c0.2,0,0.4,0.1,0.6,0.1s0.4,0.1,0.5,0.1c0.4,0.1,0.8,0.3,1,0.5C137.4,215.5,137.5,215.8,137.5,216.2z"/> 		<path d="M141.6,217.7c-0.2,0-0.4,0.1-0.6,0.1c-0.2,0-0.4,0-0.5,0c-0.6,0-1-0.1-1.3-0.4c-0.3-0.3-0.4-0.8-0.4-1.4v-2.9h-0.6v-0.8    h0.6v-1.6h0.9v1.6h1.9v0.8h-1.9v2.5c0,0.3,0,0.5,0,0.7c0,0.2,0.1,0.3,0.1,0.5c0.1,0.1,0.2,0.2,0.3,0.3c0.1,0.1,0.3,0.1,0.6,0.1    c0.2,0,0.3,0,0.5-0.1c0.2,0,0.3-0.1,0.4-0.1h0V217.7z"/> 		<path d="M146.1,213.3L146.1,213.3c-0.2,0-0.3-0.1-0.4-0.1s-0.3,0-0.5,0c-0.3,0-0.6,0.1-0.8,0.2s-0.5,0.3-0.8,0.5v3.9h-0.9v-5.5    h0.9v0.8c0.4-0.3,0.7-0.5,1-0.6s0.6-0.2,0.9-0.2c0.2,0,0.3,0,0.3,0c0.1,0,0.2,0,0.3,0V213.3z"/> 		<path d="M148,211.4h-1v-1h1V211.4z M147.9,217.8H147v-5.5h0.9V217.8z"/> 		<path d="M150.7,217.8h-0.9v-7.6h0.9V217.8z"/> 		<path d="M153.4,217.8h-0.9v-7.6h0.9V217.8z"/> 		<path d="M159.9,215.1c0,0.9-0.2,1.6-0.7,2.1s-1.1,0.8-1.8,0.8c-0.8,0-1.4-0.3-1.8-0.8s-0.7-1.2-0.7-2.1s0.2-1.6,0.7-2.1    s1.1-0.8,1.8-0.8c0.8,0,1.4,0.3,1.8,0.8S159.9,214.2,159.9,215.1z M158.9,215.1c0-0.7-0.1-1.2-0.4-1.6c-0.3-0.3-0.7-0.5-1.2-0.5    c-0.5,0-0.9,0.2-1.2,0.5c-0.3,0.3-0.4,0.9-0.4,1.6c0,0.7,0.1,1.2,0.4,1.6c0.3,0.4,0.7,0.5,1.2,0.5c0.5,0,0.9-0.2,1.2-0.5    C158.8,216.3,158.9,215.7,158.9,215.1z M158.9,209.6l-1.3,1.8h-0.7l0.9-1.8H158.9z"/> 		<path d="M165.9,217.8h-0.9v-3.1c0-0.3,0-0.5,0-0.7s-0.1-0.4-0.2-0.5c-0.1-0.1-0.2-0.2-0.4-0.3s-0.4-0.1-0.6-0.1    c-0.3,0-0.5,0.1-0.8,0.2s-0.5,0.3-0.8,0.5v4.1h-0.9v-5.5h0.9v0.6c0.3-0.2,0.6-0.4,0.9-0.6c0.3-0.1,0.6-0.2,0.9-0.2    c0.6,0,1,0.2,1.3,0.5s0.5,0.9,0.5,1.5V217.8z"/> 	</g> 	<g> 		<rect x="234.7" y="202.6" style="fill-rule:evenodd;clip-rule:evenodd;fill:none;" width="30.3" height="11"/> 		<path d="M241.4,211.1h-1l-0.7-2h-3.1l-0.7,2h-1l2.6-7.3h1.3L241.4,211.1z M239.4,208.2l-1.3-3.6l-1.3,3.6H239.4z"/> 		<path d="M247,205.6l-2.2,5.5h-0.9l-2.2-5.5h1l1.7,4.3l1.7-4.3H247z"/> 		<path d="M249.2,204.7h-1v-1h1V204.7z M249.1,211.1h-0.9v-5.5h0.9V211.1z"/> 		<path d="M251.9,211.1h-0.9v-7.6h0.9V211.1z"/> 		<path d="M258.2,208.4h-4c0,0.3,0,0.6,0.2,0.9c0.1,0.2,0.2,0.5,0.4,0.6c0.2,0.2,0.4,0.3,0.6,0.4c0.2,0.1,0.5,0.1,0.8,0.1    c0.4,0,0.7-0.1,1.1-0.2c0.4-0.1,0.6-0.3,0.8-0.4h0v1c-0.3,0.1-0.6,0.2-0.9,0.3s-0.7,0.1-1,0.1c-0.9,0-1.6-0.2-2.1-0.7    c-0.5-0.5-0.8-1.2-0.8-2.1c0-0.9,0.2-1.6,0.7-2.1s1.1-0.8,1.9-0.8c0.7,0,1.3,0.2,1.7,0.6c0.4,0.4,0.6,1,0.6,1.8V208.4z     M257.4,207.7c0-0.5-0.1-0.9-0.4-1.1c-0.2-0.3-0.6-0.4-1.1-0.4c-0.5,0-0.9,0.1-1.2,0.4c-0.3,0.3-0.5,0.6-0.5,1.1H257.4z     M257.5,202.9l-1.3,1.8h-0.7l0.9-1.8H257.5z"/> 		<path d="M263.5,209.5c0,0.5-0.2,0.9-0.6,1.2s-1,0.5-1.7,0.5c-0.4,0-0.8,0-1.1-0.1s-0.6-0.2-0.8-0.3v-1h0c0.3,0.2,0.6,0.4,1,0.5    c0.4,0.1,0.7,0.2,1,0.2c0.4,0,0.7-0.1,0.9-0.2c0.2-0.1,0.3-0.3,0.3-0.6c0-0.2-0.1-0.4-0.2-0.5c-0.1-0.1-0.4-0.2-0.7-0.3    c-0.1,0-0.3-0.1-0.5-0.1s-0.4-0.1-0.6-0.1c-0.5-0.1-0.8-0.3-1-0.6s-0.3-0.5-0.3-0.9c0-0.2,0-0.4,0.1-0.6s0.2-0.4,0.4-0.5    c0.2-0.2,0.4-0.3,0.7-0.4c0.3-0.1,0.6-0.1,0.9-0.1c0.3,0,0.7,0,1,0.1s0.6,0.2,0.8,0.3v1h0c-0.2-0.2-0.5-0.3-0.9-0.4    c-0.3-0.1-0.7-0.2-1-0.2c-0.3,0-0.6,0.1-0.8,0.2s-0.3,0.3-0.3,0.6c0,0.2,0.1,0.4,0.2,0.5c0.1,0.1,0.4,0.2,0.7,0.3    c0.2,0,0.4,0.1,0.6,0.1s0.4,0.1,0.5,0.1c0.4,0.1,0.8,0.3,1,0.5C263.4,208.8,263.5,209.1,263.5,209.5z"/> 	</g> 	<g> 		<rect x="262.8" y="274.5" style="fill-rule:evenodd;clip-rule:evenodd;fill:none;" width="100.1" height="11"/> 		<path d="M269.4,282.5c-0.2,0.1-0.3,0.2-0.5,0.2c-0.1,0.1-0.3,0.1-0.6,0.2c-0.2,0.1-0.4,0.1-0.6,0.2c-0.2,0-0.5,0.1-0.8,0.1    c-0.5,0-1-0.1-1.4-0.2c-0.4-0.1-0.8-0.4-1.1-0.7c-0.3-0.3-0.6-0.7-0.7-1.2c-0.2-0.5-0.3-1-0.3-1.7c0-0.6,0.1-1.1,0.3-1.6    c0.2-0.5,0.4-0.9,0.7-1.2c0.3-0.3,0.7-0.6,1.1-0.7c0.4-0.2,0.9-0.2,1.5-0.2c0.4,0,0.8,0,1.2,0.1c0.4,0.1,0.8,0.3,1.3,0.5v1.1h-0.1    c-0.4-0.3-0.8-0.6-1.2-0.7c-0.4-0.2-0.8-0.2-1.3-0.2c-0.4,0-0.7,0.1-1,0.2c-0.3,0.1-0.6,0.3-0.8,0.6c-0.2,0.2-0.4,0.6-0.5,0.9    c-0.1,0.4-0.2,0.8-0.2,1.3c0,0.5,0.1,1,0.2,1.3c0.1,0.4,0.3,0.7,0.5,0.9c0.2,0.2,0.5,0.4,0.8,0.5c0.3,0.1,0.6,0.2,1,0.2    c0.5,0,0.9-0.1,1.3-0.2c0.4-0.2,0.8-0.4,1.1-0.7h0.1V282.5z"/> 		<path d="M275.4,280.3c0,0.9-0.2,1.6-0.7,2.1s-1.1,0.8-1.8,0.8c-0.8,0-1.4-0.3-1.8-0.8s-0.7-1.2-0.7-2.1s0.2-1.6,0.7-2.1    c0.5-0.5,1.1-0.8,1.8-0.8c0.8,0,1.4,0.3,1.8,0.8C275.1,278.7,275.4,279.4,275.4,280.3z M274.4,280.3c0-0.7-0.1-1.2-0.4-1.6    c-0.3-0.3-0.7-0.5-1.2-0.5c-0.5,0-0.9,0.2-1.2,0.5c-0.3,0.3-0.4,0.9-0.4,1.6c0,0.7,0.1,1.2,0.4,1.6c0.3,0.4,0.7,0.5,1.2,0.5    c0.5,0,0.9-0.2,1.2-0.5C274.3,281.5,274.4,281,274.4,280.3z"/> 		<path d="M280.2,278.6L280.2,278.6c-0.2,0-0.3-0.1-0.4-0.1c-0.1,0-0.3,0-0.5,0c-0.3,0-0.6,0.1-0.8,0.2c-0.3,0.1-0.5,0.3-0.8,0.5    v3.9h-0.9v-5.5h0.9v0.8c0.4-0.3,0.7-0.5,1-0.6c0.3-0.1,0.6-0.2,0.9-0.2c0.2,0,0.3,0,0.3,0c0.1,0,0.2,0,0.3,0V278.6z"/> 		<path d="M285.8,277.6l-2.2,5.5h-0.9l-2.2-5.5h1l1.7,4.3l1.7-4.3H285.8z"/> 		<path d="M291.5,280.4h-4c0,0.3,0,0.6,0.2,0.9c0.1,0.3,0.2,0.5,0.4,0.6c0.2,0.2,0.4,0.3,0.6,0.4c0.2,0.1,0.5,0.1,0.8,0.1    c0.4,0,0.7-0.1,1.1-0.2c0.4-0.1,0.6-0.3,0.8-0.4h0v1c-0.3,0.1-0.6,0.2-0.9,0.3s-0.7,0.1-1,0.1c-0.9,0-1.6-0.2-2.1-0.7    c-0.5-0.5-0.8-1.2-0.8-2.1c0-0.9,0.2-1.6,0.7-2.1s1.1-0.8,1.9-0.8c0.7,0,1.3,0.2,1.7,0.6c0.4,0.4,0.6,1,0.6,1.8V280.4z     M290.6,279.7c0-0.5-0.1-0.9-0.4-1.1c-0.2-0.3-0.6-0.4-1.1-0.4c-0.5,0-0.9,0.1-1.2,0.4c-0.3,0.3-0.5,0.6-0.5,1.1H290.6z"/> 		<path d="M296.3,278.6L296.3,278.6c-0.2,0-0.3-0.1-0.4-0.1c-0.1,0-0.3,0-0.5,0c-0.3,0-0.6,0.1-0.8,0.2c-0.3,0.1-0.5,0.3-0.8,0.5    v3.9h-0.9v-5.5h0.9v0.8c0.4-0.3,0.7-0.5,1-0.6c0.3-0.1,0.6-0.2,0.9-0.2c0.2,0,0.3,0,0.3,0c0.1,0,0.2,0,0.3,0V278.6z"/> 		<path d="M301.2,283h-0.9v-0.6c-0.1,0.1-0.2,0.1-0.3,0.2c-0.1,0.1-0.3,0.2-0.4,0.2c-0.2,0.1-0.3,0.1-0.5,0.2    c-0.2,0-0.4,0.1-0.7,0.1c-0.5,0-0.9-0.2-1.3-0.5c-0.3-0.3-0.5-0.7-0.5-1.2c0-0.4,0.1-0.7,0.3-1c0.2-0.3,0.4-0.5,0.8-0.6    c0.3-0.1,0.7-0.2,1.2-0.3s1-0.1,1.5-0.1v-0.1c0-0.2,0-0.4-0.1-0.5s-0.2-0.2-0.3-0.3c-0.1-0.1-0.3-0.1-0.5-0.2c-0.2,0-0.4,0-0.6,0    c-0.2,0-0.5,0-0.8,0.1c-0.3,0.1-0.6,0.2-0.9,0.3h0v-0.9c0.2,0,0.4-0.1,0.8-0.2s0.7-0.1,1-0.1c0.4,0,0.7,0,1,0.1    c0.3,0.1,0.5,0.2,0.7,0.3c0.2,0.2,0.4,0.3,0.5,0.6s0.2,0.5,0.2,0.9V283z M300.3,281.7v-1.5c-0.3,0-0.6,0-1,0.1    c-0.4,0-0.7,0.1-0.9,0.1c-0.3,0.1-0.5,0.2-0.6,0.3c-0.2,0.2-0.2,0.4-0.2,0.7c0,0.3,0.1,0.5,0.3,0.7c0.2,0.2,0.5,0.2,0.9,0.2    c0.3,0,0.6-0.1,0.9-0.2C299.8,282,300.1,281.9,300.3,281.7z"/> 		<path d="M310.9,283H310v-0.6c-0.3,0.2-0.5,0.4-0.8,0.5c-0.3,0.1-0.6,0.2-0.9,0.2c-0.7,0-1.2-0.3-1.6-0.8s-0.6-1.2-0.6-2.1    c0-0.5,0.1-0.9,0.2-1.2s0.3-0.7,0.5-0.9c0.2-0.2,0.5-0.4,0.8-0.6c0.3-0.1,0.6-0.2,0.9-0.2c0.3,0,0.5,0,0.8,0.1    c0.2,0.1,0.5,0.2,0.7,0.3v-2.4h0.9V283z M310,281.7v-3.1c-0.2-0.1-0.5-0.2-0.7-0.2s-0.4-0.1-0.6-0.1c-0.5,0-0.9,0.2-1.2,0.5    c-0.3,0.4-0.4,0.9-0.4,1.5c0,0.6,0.1,1.1,0.3,1.5c0.2,0.3,0.6,0.5,1.1,0.5c0.3,0,0.5-0.1,0.8-0.2C309.5,282,309.8,281.9,310,281.7    z"/> 		<path d="M317.3,280.4h-4c0,0.3,0,0.6,0.2,0.9c0.1,0.3,0.2,0.5,0.4,0.6c0.2,0.2,0.4,0.3,0.6,0.4c0.2,0.1,0.5,0.1,0.8,0.1    c0.4,0,0.7-0.1,1.1-0.2c0.4-0.1,0.6-0.3,0.8-0.4h0v1c-0.3,0.1-0.6,0.2-0.9,0.3s-0.7,0.1-1,0.1c-0.9,0-1.6-0.2-2.1-0.7    c-0.5-0.5-0.8-1.2-0.8-2.1c0-0.9,0.2-1.6,0.7-2.1s1.1-0.8,1.9-0.8c0.7,0,1.3,0.2,1.7,0.6c0.4,0.4,0.6,1,0.6,1.8V280.4z     M316.4,279.7c0-0.5-0.1-0.9-0.4-1.1c-0.2-0.3-0.6-0.4-1.1-0.4c-0.5,0-0.9,0.1-1.2,0.4c-0.3,0.3-0.5,0.6-0.5,1.1H316.4z"/> 		<path d="M328,283h-1l-0.7-2h-3.1l-0.7,2h-1l2.6-7.3h1.3L328,283z M326,280.2l-1.3-3.6l-1.3,3.6H326z"/> 		<path d="M333,281.5c0,0.5-0.2,0.9-0.6,1.2s-1,0.5-1.7,0.5c-0.4,0-0.8,0-1.1-0.1c-0.3-0.1-0.6-0.2-0.8-0.3v-1h0    c0.3,0.2,0.6,0.4,1,0.5c0.4,0.1,0.7,0.2,1,0.2c0.4,0,0.7-0.1,0.9-0.2c0.2-0.1,0.3-0.3,0.3-0.6c0-0.2-0.1-0.4-0.2-0.5    c-0.1-0.1-0.4-0.2-0.7-0.3c-0.1,0-0.3-0.1-0.5-0.1s-0.4-0.1-0.6-0.1c-0.5-0.1-0.8-0.3-1-0.6c-0.2-0.2-0.3-0.5-0.3-0.9    c0-0.2,0-0.4,0.1-0.6s0.2-0.4,0.4-0.5c0.2-0.2,0.4-0.3,0.7-0.4c0.3-0.1,0.6-0.1,0.9-0.1c0.3,0,0.7,0,1,0.1    c0.3,0.1,0.6,0.2,0.8,0.3v1h0c-0.2-0.2-0.5-0.3-0.9-0.4c-0.3-0.1-0.7-0.2-1-0.2c-0.3,0-0.6,0.1-0.8,0.2c-0.2,0.1-0.3,0.3-0.3,0.6    c0,0.2,0.1,0.4,0.2,0.5c0.1,0.1,0.4,0.2,0.7,0.3c0.2,0,0.4,0.1,0.6,0.1s0.4,0.1,0.5,0.1c0.4,0.1,0.8,0.3,1,0.5    C332.8,280.7,333,281.1,333,281.5z"/> 		<path d="M337.1,283c-0.2,0-0.4,0.1-0.6,0.1c-0.2,0-0.4,0-0.5,0c-0.6,0-1-0.2-1.3-0.4c-0.3-0.3-0.4-0.8-0.4-1.4v-2.9h-0.6v-0.8h0.6    V276h0.9v1.6h1.9v0.8h-1.9v2.5c0,0.3,0,0.5,0,0.7c0,0.2,0.1,0.3,0.1,0.5c0.1,0.1,0.2,0.2,0.3,0.3c0.1,0.1,0.3,0.1,0.6,0.1    c0.2,0,0.3,0,0.5-0.1c0.2,0,0.3-0.1,0.4-0.1h0V283z"/> 		<path d="M342.7,283h-0.9v-0.6c-0.3,0.2-0.6,0.4-0.9,0.6s-0.6,0.2-0.9,0.2c-0.6,0-1-0.2-1.3-0.5c-0.3-0.4-0.5-0.9-0.5-1.5v-3.5h0.9    v3.1c0,0.3,0,0.5,0,0.7c0,0.2,0.1,0.4,0.2,0.5c0.1,0.1,0.2,0.2,0.3,0.3s0.3,0.1,0.6,0.1c0.2,0,0.5-0.1,0.8-0.2    c0.3-0.1,0.5-0.3,0.8-0.5v-4.1h0.9V283z"/> 		<path d="M348,278.6L348,278.6c-0.2,0-0.3-0.1-0.4-0.1c-0.1,0-0.3,0-0.5,0c-0.3,0-0.6,0.1-0.8,0.2c-0.3,0.1-0.5,0.3-0.8,0.5v3.9    h-0.9v-5.5h0.9v0.8c0.4-0.3,0.7-0.5,1-0.6c0.3-0.1,0.6-0.2,0.9-0.2c0.2,0,0.3,0,0.3,0c0.1,0,0.2,0,0.3,0V278.6z"/> 		<path d="M349.8,276.7h-1v-1h1V276.7z M349.7,283h-0.9v-5.5h0.9V283z"/> 		<path d="M355.8,283h-0.9v-0.6c-0.1,0.1-0.2,0.1-0.3,0.2c-0.1,0.1-0.3,0.2-0.4,0.2c-0.2,0.1-0.3,0.1-0.5,0.2    c-0.2,0-0.4,0.1-0.7,0.1c-0.5,0-0.9-0.2-1.3-0.5c-0.3-0.3-0.5-0.7-0.5-1.2c0-0.4,0.1-0.7,0.3-1c0.2-0.3,0.4-0.5,0.8-0.6    c0.3-0.1,0.7-0.2,1.2-0.3s1-0.1,1.5-0.1v-0.1c0-0.2,0-0.4-0.1-0.5s-0.2-0.2-0.3-0.3c-0.1-0.1-0.3-0.1-0.5-0.2c-0.2,0-0.4,0-0.6,0    c-0.2,0-0.5,0-0.8,0.1c-0.3,0.1-0.6,0.2-0.9,0.3h0v-0.9c0.2,0,0.4-0.1,0.8-0.2s0.7-0.1,1-0.1c0.4,0,0.7,0,1,0.1    c0.3,0.1,0.5,0.2,0.7,0.3c0.2,0.2,0.4,0.3,0.5,0.6s0.2,0.5,0.2,0.9V283z M354.9,281.7v-1.5c-0.3,0-0.6,0-1,0.1    c-0.4,0-0.7,0.1-0.9,0.1c-0.3,0.1-0.5,0.2-0.6,0.3c-0.2,0.2-0.2,0.4-0.2,0.7c0,0.3,0.1,0.5,0.3,0.7c0.2,0.2,0.5,0.2,0.9,0.2    c0.3,0,0.6-0.1,0.9-0.2C354.4,282,354.7,281.9,354.9,281.7z"/> 		<path d="M361.5,281.5c0,0.5-0.2,0.9-0.6,1.2s-1,0.5-1.7,0.5c-0.4,0-0.8,0-1.1-0.1c-0.3-0.1-0.6-0.2-0.8-0.3v-1h0    c0.3,0.2,0.6,0.4,1,0.5c0.4,0.1,0.7,0.2,1,0.2c0.4,0,0.7-0.1,0.9-0.2c0.2-0.1,0.3-0.3,0.3-0.6c0-0.2-0.1-0.4-0.2-0.5    c-0.1-0.1-0.4-0.2-0.7-0.3c-0.1,0-0.3-0.1-0.5-0.1s-0.4-0.1-0.6-0.1c-0.5-0.1-0.8-0.3-1-0.6c-0.2-0.2-0.3-0.5-0.3-0.9    c0-0.2,0-0.4,0.1-0.6s0.2-0.4,0.4-0.5c0.2-0.2,0.4-0.3,0.7-0.4c0.3-0.1,0.6-0.1,0.9-0.1c0.3,0,0.7,0,1,0.1    c0.3,0.1,0.6,0.2,0.8,0.3v1h0c-0.2-0.2-0.5-0.3-0.9-0.4c-0.3-0.1-0.7-0.2-1-0.2c-0.3,0-0.6,0.1-0.8,0.2c-0.2,0.1-0.3,0.3-0.3,0.6    c0,0.2,0.1,0.4,0.2,0.5c0.1,0.1,0.4,0.2,0.7,0.3c0.2,0,0.4,0.1,0.6,0.1s0.4,0.1,0.5,0.1c0.4,0.1,0.8,0.3,1,0.5    C361.4,280.7,361.5,281.1,361.5,281.5z"/> 	</g> 	<g> 		<rect x="167.1" y="316.6" style="fill-rule:evenodd;clip-rule:evenodd;fill:none;" width="22" height="11"/> 		<path d="M170.6,325.1h-2.9v-0.7h1v-5.8h-1v-0.7h2.9v0.7h-1v5.8h1V325.1z"/> 		<path d="M173.1,325.1h-0.9v-7.6h0.9V325.1z"/> 		<path d="M175.8,325.1h-0.9v-7.6h0.9V325.1z"/> 		<path d="M181.9,325.1H181v-0.6c-0.1,0.1-0.2,0.1-0.3,0.2c-0.1,0.1-0.3,0.2-0.4,0.2c-0.2,0.1-0.3,0.1-0.5,0.2    c-0.2,0-0.4,0.1-0.7,0.1c-0.5,0-0.9-0.2-1.3-0.5c-0.3-0.3-0.5-0.7-0.5-1.2c0-0.4,0.1-0.7,0.3-1c0.2-0.3,0.4-0.5,0.8-0.6    c0.3-0.1,0.7-0.2,1.2-0.3s1-0.1,1.5-0.1v-0.1c0-0.2,0-0.4-0.1-0.5s-0.2-0.2-0.3-0.3c-0.1-0.1-0.3-0.1-0.5-0.2c-0.2,0-0.4,0-0.6,0    c-0.2,0-0.5,0-0.8,0.1c-0.3,0.1-0.6,0.2-0.9,0.3h0v-0.9c0.2,0,0.4-0.1,0.8-0.2s0.7-0.1,1-0.1c0.4,0,0.7,0,1,0.1    c0.3,0.1,0.5,0.2,0.7,0.3c0.2,0.2,0.4,0.3,0.5,0.6s0.2,0.5,0.2,0.9V325.1z M181,323.8v-1.5c-0.3,0-0.6,0-1,0.1    c-0.4,0-0.7,0.1-0.9,0.1c-0.3,0.1-0.5,0.2-0.6,0.3c-0.2,0.2-0.2,0.4-0.2,0.7c0,0.3,0.1,0.5,0.3,0.7c0.2,0.2,0.5,0.2,0.9,0.2    c0.3,0,0.6-0.1,0.9-0.2C180.5,324.1,180.8,324,181,323.8z"/> 		<path d="M187.6,323.6c0,0.5-0.2,0.9-0.6,1.2s-1,0.5-1.7,0.5c-0.4,0-0.8,0-1.1-0.1c-0.3-0.1-0.6-0.2-0.8-0.3v-1h0    c0.3,0.2,0.6,0.4,1,0.5c0.4,0.1,0.7,0.2,1,0.2c0.4,0,0.7-0.1,0.9-0.2c0.2-0.1,0.3-0.3,0.3-0.6c0-0.2-0.1-0.4-0.2-0.5    c-0.1-0.1-0.4-0.2-0.7-0.3c-0.1,0-0.3-0.1-0.5-0.1s-0.4-0.1-0.6-0.1c-0.5-0.1-0.8-0.3-1-0.6c-0.2-0.2-0.3-0.5-0.3-0.9    c0-0.2,0-0.4,0.1-0.6s0.2-0.4,0.4-0.5c0.2-0.2,0.4-0.3,0.7-0.4c0.3-0.1,0.6-0.1,0.9-0.1c0.3,0,0.7,0,1,0.1    c0.3,0.1,0.6,0.2,0.8,0.3v1h0c-0.2-0.2-0.5-0.3-0.9-0.4c-0.3-0.1-0.7-0.2-1-0.2c-0.3,0-0.6,0.1-0.8,0.2c-0.2,0.1-0.3,0.3-0.3,0.6    c0,0.2,0.1,0.4,0.2,0.5c0.1,0.1,0.4,0.2,0.7,0.3c0.2,0,0.4,0.1,0.6,0.1s0.4,0.1,0.5,0.1c0.4,0.1,0.8,0.3,1,0.5    C187.5,322.9,187.6,323.2,187.6,323.6z"/> 	</g> </g> <g id="llegenda"> 	<line style="fill:none;stroke:#9A9A9A;stroke-width:2;stroke-miterlimit:10;" x1="169" y1="-156.5" x2="169" y2="-127"/> 	<line style="fill:none;stroke:#9A9A9A;stroke-miterlimit:10;" x1="202.4" y1="-156.5" x2="202.4" y2="-127"/> 	<g> 		<path d="M176.7-146.1h0.9v7.1h-0.9V-146.1z"/> 		<path d="M180.1-145.2c0,0.3-0.2,0.5-0.6,0.5c-0.3,0-0.5-0.2-0.5-0.5s0.2-0.5,0.5-0.5C179.9-145.7,180.1-145.5,180.1-145.2z     M179.1-139v-4.8h0.9v4.8H179.1z"/> 		<path d="M181.4-142.5c0-0.5,0-0.9,0-1.3h0.8l0,0.8h0c0.2-0.4,0.8-0.9,1.6-0.9c0.7,0,1.7,0.4,1.7,2.1v2.9h-0.9v-2.8    c0-0.8-0.3-1.4-1.1-1.4c-0.6,0-1,0.4-1.2,0.9c0,0.1-0.1,0.3-0.1,0.4v2.9h-0.9V-142.5z"/> 	</g> 	<line style="fill:none;stroke:#696969;stroke-width:2;stroke-miterlimit:10;" x1="169" y1="-116.9" x2="169" y2="-87.4"/> 	<g> 		<path d="M176.7-106.5h0.9v7.1h-0.9V-106.5z"/> 		<path d="M180.1-105.6c0,0.3-0.2,0.5-0.6,0.5c-0.3,0-0.5-0.2-0.5-0.5s0.2-0.5,0.5-0.5C179.9-106.2,180.1-105.9,180.1-105.6z     M179.1-99.4v-4.8h0.9v4.8H179.1z"/> 		<path d="M181.4-102.9c0-0.5,0-0.9,0-1.3h0.8l0,0.8h0c0.2-0.4,0.8-0.9,1.6-0.9c0.7,0,1.7,0.4,1.7,2.1v2.9h-0.9v-2.8    c0-0.8-0.3-1.4-1.1-1.4c-0.6,0-1,0.4-1.2,0.9c0,0.1-0.1,0.3-0.1,0.4v2.9h-0.9V-102.9z"/> 	</g> 	<rect x="163.6" y="-181.1" style="fill:#BFBFBF;" width="16.3" height="15.3"/> 	<rect x="163.6" y="-208.7" style="fill:#DCE9FB;" width="16.3" height="15.3"/> 	<rect x="132.3" y="-208.7" style="fill:#D0E0A4;" width="16.3" height="15.3"/> 	<g> 		<path d="M189.2-171.7v-4.2h-0.7v-0.7h0.7v-0.2c0-0.7,0.2-1.3,0.6-1.7c0.3-0.3,0.8-0.4,1.2-0.4c0.3,0,0.6,0.1,0.7,0.1l-0.1,0.7    c-0.1-0.1-0.3-0.1-0.6-0.1c-0.7,0-0.9,0.6-0.9,1.4v0.3h1.2v0.7H190v4.2H189.2z"/> 		<path d="M196.3-174.2c0,1.8-1.2,2.6-2.4,2.6c-1.3,0-2.3-1-2.3-2.5c0-1.6,1.1-2.6,2.4-2.6C195.3-176.7,196.3-175.7,196.3-174.2z     M192.4-174.1c0,1.1,0.6,1.9,1.5,1.9c0.8,0,1.5-0.8,1.5-1.9c0-0.8-0.4-1.8-1.4-1.8C192.9-176,192.4-175.1,192.4-174.1z"/> 		<path d="M197.4-175.3c0-0.5,0-0.9,0-1.3h0.8l0,0.8h0c0.2-0.4,0.8-0.9,1.6-0.9c0.7,0,1.7,0.4,1.7,2.1v2.9h-0.9v-2.8    c0-0.8-0.3-1.4-1.1-1.4c-0.6,0-1,0.4-1.2,0.9c0,0.1-0.1,0.3-0.1,0.4v2.9h-0.9V-175.3z"/> 		<path d="M202.8-172.6c0.3,0.2,0.7,0.3,1.2,0.3c0.6,0,0.9-0.3,0.9-0.7c0-0.4-0.3-0.6-0.9-0.9c-0.9-0.3-1.3-0.8-1.3-1.4    c0-0.8,0.6-1.4,1.7-1.4c0.5,0,0.9,0.1,1.2,0.3l-0.2,0.6c-0.2-0.1-0.5-0.3-1-0.3c-0.5,0-0.8,0.3-0.8,0.7c0,0.4,0.3,0.6,0.9,0.8    c0.8,0.3,1.3,0.7,1.3,1.4c0,0.9-0.7,1.5-1.8,1.5c-0.5,0-1-0.1-1.4-0.3L202.8-172.6z"/> 	</g> 	<g> 		<path d="M189.1-202.6c0-0.5,0-0.9,0-1.3h0.8l0,0.8h0c0.3-0.5,0.7-0.9,1.5-0.9c0.6,0,1.1,0.4,1.4,1h0c0.1-0.3,0.4-0.5,0.5-0.6    c0.3-0.2,0.6-0.3,1.1-0.3c0.6,0,1.6,0.4,1.6,2.1v2.8h-0.9v-2.7c0-0.9-0.3-1.5-1-1.5c-0.5,0-0.9,0.4-1,0.8c0,0.1-0.1,0.3-0.1,0.4v3    h-0.9v-2.9c0-0.8-0.3-1.3-1-1.3c-0.5,0-0.9,0.4-1.1,0.9c-0.1,0.1-0.1,0.3-0.1,0.4v2.9h-0.9V-202.6z"/> 		<path d="M200.8-200.2c0,0.4,0,0.8,0.1,1.2h-0.8l-0.1-0.6h0c-0.3,0.4-0.8,0.7-1.5,0.7c-1,0-1.5-0.7-1.5-1.4c0-1.2,1-1.8,2.9-1.8    v-0.1c0-0.4-0.1-1.1-1.1-1.1c-0.5,0-0.9,0.1-1.3,0.4l-0.2-0.6c0.4-0.3,1-0.4,1.6-0.4c1.5,0,1.8,1,1.8,2V-200.2z M200-201.5    c-1,0-2,0.1-2,1.1c0,0.6,0.4,0.8,0.8,0.8c0.6,0,1-0.4,1.2-0.8c0-0.1,0-0.2,0-0.3V-201.5z"/> 		<path d="M202.2-202.4c0-0.6,0-1.1,0-1.5h0.8l0,1h0c0.2-0.6,0.8-1.1,1.3-1.1c0.1,0,0.2,0,0.2,0v0.8c-0.1,0-0.2,0-0.3,0    c-0.6,0-1.1,0.5-1.2,1.1c0,0.1,0,0.3,0,0.4v2.6h-0.9V-202.4z"/> 	</g> 	<circle style="fill-rule:evenodd;clip-rule:evenodd;fill:#5B7EBD;" cx="169" cy="-72.3" r="2.4"/> 	<rect x="88.2" y="-181.1" style="fill:#BFBFBF;stroke:#696969;stroke-width:2;stroke-miterlimit:10;" width="16.3" height="15.3"/> 	 		<rect x="114.4" y="-181.1" style="fill:#FFFBF0;stroke:#9A9A9A;stroke-width:2;stroke-miterlimit:10;" width="16.3" height="15.3"/> 	<rect x="105.1" y="-150.5" style="opacity:0.6;fill:#FFFBF0;" width="51" height="17.5"/> </g> </svg>