<svg xmlns="http://www.w3.org/2000/svg" xmlns:xlink="http://www.w3.org/1999/xlink" version="1.1" x="0px" y="0px" width="450px" height="450px" viewBox="0 0 450 450" style="enable-background:new 0 0 450 450;" xml:space="preserve">
<g id="Capa_10">
	<rect x="-27.2" y="-15.8" style="fill:#DCE9FB;" width="521.3" height="489.3"/>
</g>
<g id="provincies_x5F_joan_x5F_2">
	<a xlink:href="OURENSE">
		<path style="fill:#BFBFBF;stroke:#696969;stroke-width:2;stroke-miterlimit:10;" d="M260-7.5l9,49c0,0,1,10.4-3,12.4s0,0,0,0    s1.5,4.6,1,8.1s-2.8,8.6-2.8,8.6s30.3,32.9,37.8,35.4s10.8,0.4,10.8,0.4l-5.3,28.6l-0.8,3.8l-2.3,1.3c0,0,5,31.9,16.5,35.4    s8.7,4,8.7,4s4.5,14,14,13.5l0,0c0,0,28.2-23.7,43.5-14s-7.5,2-5,9s4.5,17.5-3,19s-9.5,5.5-9.5,5.5s10.6,0,10.3,9S376,241,382,242    c4.1,0.7,9.4,1.6,9.8,4.3c0.2,1.3-2,3-3.8,5.3c-5.5,7-26,23-26,23s6,7.5,6,14.5s-5.3,73.8,9.3,73.8s30-21.8,48-14.3    s32,30.3,30.5,50.8s-15.7,24.1-26.7,24.1s-13.9,6.3-17.3,12.4c-5.1,8.9-31.5,12.5-31.5,12.5l0.2,12.3l92-0.5l8-474.5L260-7.5"/>
	</a>
	<path style="fill:#63605F;stroke:#696969;stroke-width:2;stroke-miterlimit:10;" d="M-9.8,434.5c0,0,15.7-13,17.3-22   S14.8,381,32,378.1s48.5-0.2,50.8-1.6s3.7-3.3,3.7-3.3s3,3.7,13-2.3s14-12,11-15.7s-3-4.7,1.3-4.7s45.3-3.7,48.7-5.7   s4.3-4.3,4.3-4.3s12.3,7.3,13.7,9.7s4.3,6.7,7.7,5.7s21.3-11,23.7-9s4,7.3,7.7,4.3s9.7-12,9.7-12s5-4,11-1.7s22.3,8,23,4.3   s-1-14.3,4.5-15.7s24.2-8.7,26.2-12s10.3-13,12.3-11.3s8.8,4.7,10.3,2.7s0-14,0-14s6.3-3.3,9-4s24,3.3,28,1.3s10.5-14.3,10.5-14.3   s6.2,4.7,6,13.5s-3.8,72.8,7.5,74.8s29.3-19.7,45.3-15.3s34.7,22,34.7,47.7s-15,27.7-20.3,28.3s-15.3-2-19.7,6.7s-9.3,11.3-14.7,13   s-20.3,5.8-20.3,5.8v10.5l-390,13.7L-9.8,434.5"/>
</g>
<g id="comarques_1">
	<a xlink:href="O Mino Baixo">
		<path style="fill:#BFBFBF;stroke:#696969;stroke-width:2;stroke-miterlimit:10;" d="M-17.2,318.5c8.8,1.4,34.9-1.5,43.2-3.7    c-2,5.6-0.9,7.6-4.4,12.3c11,6.7,0.3,21,24.2,18.1c-13,16.8,13.7,21.7,24.5,9.2c2.6,7.8,7.7,10.1,16,9.9c-1.3,13.6-1.4,14-14.4,14    c-14.7,0-24.2-2-40,0.7c-29,5-12.5,49.8-54.2,62.1c0-37.3-1-83-1-120.3L-17.2,318.5z"/>
	</a>
	<a xlink:href="Pontevedra - comarca">
		<path style="fill:#BFBFBF;stroke:#696969;stroke-width:2;stroke-miterlimit:10;" d="M-14.5-5.5l-1,135c0,0,24,3.5,25-1.5    s-7-15.5-1.5-22s19.5-13.5,15-17.5s-0.5-21,7-20S45.5,78,45.5,78s5.7-10,19.1-1.5l12.2-28c0,0,8.2,6,11.2,15.5s5.6,16.4,5.6,16.4    s38.9-10.9,45.9-4.9s6,3,8.5-0.5s17.5-24,24.5-18s7,18.5,12.5,18.5s19-2.1,19-2.1s-2-25.9,36-25.9c0,0,21-2.1,26,6.4    c0,0,4.5-6.4,2.5-14.4s-8.5-47-8.5-47L-14.5-5.5z"/>
	</a>
	<a xlink:href="Vigo -comarca">
		<path style="fill:#BFBFBF;stroke:#696969;stroke-width:2;stroke-miterlimit:10;" d="M-7.8,145.2c0,0,24.3-14.3,29-12    s14.3,5.3,18-2s-2-20-2-20l5.7-18.3L45.5,78c0,0,6-7.5,11-5.5s8.1,4,8.1,4l12.2-28c0,0,7,5.3,10.7,13.7s6.1,18.3,6.1,18.3    s37.2-9.9,44.5-5.9s4.8,7.5,7.3,4s18.7-27.7,27-21.5s7,18.5,14,18.5s17.5-2.1,17.5-2.1s-0.5-26.6,34.9-25.9s30,13.6,25.3,23.1    s-23,26.2-28,25.5s-9.3-3.3-11.7,0c-1,1.5-7.6,7.7-12.3,14.3c-5.8,8.2-9.9,16.9-9.9,16.9s-8.2-3.1-10.6-5.1s-31.6,18.6-40.6,16.2    s-7.7-6.2-7.7-6.2s-11.4,6.2-12.5,10s-14.1,14.5-21.8,16.9c-3.5,1.1-12.1,5.4-18.7,10.3c-7.7,5.8-13.1,12.4-13.1,12.4    s3.8,18-0.6,29.6c-2.6,7-7.9,11.4-11.1,15.8c-2.2,3-3.1,6.4-2.9,8.6c0.1,2.4,0.5,10.7,1.7,18.2c1.4,9.2,3.7,17.8,5,20.5    c1.5,3.2,14.3,13.6,23.4,21.8c5.2,4.7,9.3,8.2,9.3,8.2s-2.5,4.9-3.7,9.8c-0.9,3.5-0.6,6.8-0.5,8.8c0.2,4.7-6.5-0.5-6.5,14.2    s-4.3,27-4.3,27s-10.3,1.3-13-3s-3.8-6.7-3.8-6.7s-9.2,8.7-17.2,7.1s-14.3-2.3-9-15c0,0-10.2,0.9-13-2.3c-6.7-7.7-5.1-17-9.6-17    l3.6-11.3c0,0-36.7,4.7-42.3,2.7S-7.8,145.2-7.8,145.2z"/>
	</a>
</g>
<g id="esp_x5F_muni_x5F_1101">
	<a xlink:href="Ponteareas">
		<path style="fill-rule:evenodd;clip-rule:evenodd;fill:#FFFBF0;stroke:#9A9A9A;stroke-width:2;stroke-miterlimit:10;" d="    M77.4,181.9c11-16.8,40.3-26.5,40.3-26.5s6.3,21.4,13.5,26c-2.5,2.1-6.5,2.9-6.7,5.3c-0.4,5.5,0.6,13.7,3.7,19.2    c2.8,4.9,7.8,7.4,8.4,7.7c6.9,3.3,15-2,14.2,4.9c-0.4,3.5,8.4,8.9,10.3,12.9c9-2.4,16.4-6.9,15.7-18.6    c1.7,14.3,14.3,18.8,17.4,28.5c0.7,2,11.1,5.3,11,7l-4.4,11.5c0,0-22.6,4.7-26,4.4c-0.1,10.3-9.7,9.9-9.7,9.9s-2.1-8.9-4-9.6    c-16.5-6.1-9,13.3-9.5,22.6c-5.8-7.5-19-8.6-25.7-0.7c-7.6,8.8-0.1,21.6-0.3,31.2c-17.5-1.8-25.5-16.2-37.1-26.5    c-8.5-7.5-21.2-13.5-21.5-23.5c-0.3-10.7-10.2-35.5,1.2-42.9C77.7,218.7,80.8,192.5,77.4,181.9L77.4,181.9z"/>
	</a>
	<g>
		<a xlink:href="Mondariz-Balneario">
			<path style="fill-rule:evenodd;clip-rule:evenodd;fill:#FFFBF0;stroke:#9A9A9A;stroke-width:2;stroke-miterlimit:10;" d="     M126.6,184.9c3.5-2.5,8.4-4.7,12.4-3.2c8,3.1,11.9,9.1,17.3,18.5c0,0-0.4,1.5-0.2,4.1c0.3,2.7-3,8-4.9,9.8     c-3.8,3.6-11.1,1.3-11.1,1.2c-6.1-2.7-9.3-4.2-11.8-9.3c-2.9-5.7-3.7-13.9-3.7-19.2L126.6,184.9z"/>
		</a>
	</g>
	<a xlink:href="As Neves">
		<path style="fill-rule:evenodd;clip-rule:evenodd;fill:#FFFBF0;stroke:#9A9A9A;stroke-width:2;stroke-miterlimit:10;" d="    M227.7,255c3.4-0.9,13.1,8.5,14.5,19.6c0.4,3.5-1.8,35.2-2.4,36.2c-2.7,4.1-20.6,52.9-27.8,39.3c-6.6-12.3-21.9,13.3-30.8,3.3    c-7.3-8.3-25.7-8.6-12-27.3c6-8.2,16.3-7.3,5-20.7c-5-5.8,4.4-28.6-8.2-23.7c-0.4-2.5-0.8-5.1-1.1-7.6c10,0.7,10.1-9.9,10.1-9.9    S215.1,257.2,227.7,255z"/>
	</a>
	<a xlink:href="Arbo">
		<g>
			<a xlink:href="O Pazo">
				<path style="fill-rule:evenodd;clip-rule:evenodd;fill:#FFFBF0;stroke:#9A9A9A;stroke-width:2;stroke-miterlimit:10;" d="      M242.6,276c-0.3-0.3,28,0.8,28,0.8c4.5-0.8,5.5-6.7,9.4-7.1c14.2-1.2,18.2,10.8,21.8,16.8c8.7-3,17.5,7.9,14.2,18      c-2.6,7.9-9.2-1.8-12.9,0.3c-5.1,2.8-8.5,9.3-12.4,12.1c-7.5,5.5-19,5-25,10.3c-6.1,5.3,2.2,19.4-11.5,17.3      c-9.7-1.5-16-8.3-27-4.3l12.3-28.9C239.2,310.5,243.3,288.1,242.6,276L242.6,276z"/>
			</a>
		</g>
	</a>
	<a xlink:href="Salvaterra de Mino">
		<path style="fill-rule:evenodd;clip-rule:evenodd;fill:#FFFBF0;stroke:#9A9A9A;stroke-width:2;stroke-miterlimit:10;" d="    M165.2,274.2c0.4,2.5,0.8,5.1,1.1,7.6c8.2-3.2,8.2,10.2,6.7,18c-1.3,6.7,15.3,12.5-0.3,23.2c-13.1,9-1.5,21.3-17.2,22.9    c-11.7,1.2-23.2,3.4-34.9,3.9c-25.1,0.9-2.3,4-11,13.6c-5,5.5-21.5,16.5-24.8,7.8c-0.3-0.8,6.3-24.7,6.6-27.1c1-8-3.5-17.8,6.9-19    c-1.7-6.8,0.7-15.7,3.8-22c6.6,6.1,14,12.5,23,13.5c0.3-9.6-7.3-22.4,0.3-31.2c6.8-7.8,19.9-6.7,25.7,0.7c0.5-8.6-6.5-19,2.6-22.8    C162.4,259.9,166.8,266.2,165.2,274.2L165.2,274.2z"/>
	</a>
	<a xlink:href="Crecente">
		<path style="fill-rule:evenodd;clip-rule:evenodd;fill:#FFFBF0;stroke:#9A9A9A;stroke-width:2;stroke-miterlimit:10;" d="    M343.5,192c0,0,29.5-22,43.5-14s-6.5,5-5,9s8.5,14-3,19s-11,7-11,7s11.5-4.5,11,10s-2.5,18,5.5,19.5s10,3,2.5,10s-25,22-25,22    s-4,15.5-14,15.5s-22-6.5-33.5,1.5c0,0-3-6.5-12.5-4.5l-5.8-10.8c0,0,26.3-4.7,26.3-22.7c0,0,22.9,1,23.5-14.5    c0.5-13.2-23.5-12.7-10.8-34.8C343.2,190.2,343.5,192,343.5,192z"/>
	</a>
	<a xlink:href="A Caniza">
		<path style="fill-rule:evenodd;clip-rule:evenodd;fill:#FFFBF0;stroke:#9A9A9A;stroke-width:2;stroke-miterlimit:10;" d="    M305,137.5c0,0,1.5,39,24.5,41c0,0,4.5,12,14,13.5c0,0-20,24.5-6.5,33.5s9,20.5,2.5,24s-17,4-17,4s-1.5,13-10.5,17.5    s-15.5,6-15.5,6s-9-9-16.5-7.3s-4,6.8-11,6.8s-26.4-1.5-26.4-1.5s-7.9-17.7-13.5-19.6l-29.1,4.5l5.4-11.5l39.7-6.5l8.3-16.4    c0,0,10.2-4,6.2-11.5s3-40,3-40s13-7,18-16S305,137.5,305,137.5z"/>
	</a>
	<a xlink:href="Covelo">
		<path style="fill-rule:evenodd;clip-rule:evenodd;fill:#FFFBF0;stroke:#9A9A9A;stroke-width:2;stroke-miterlimit:10;" d="    M202,127.4c0,0,20-34.9,25.5-33.4s8.5,4.5,14,0.5s22.7-23.9,22.7-23.9S297,105,302,106s10.8,0.4,10.8,0.4l-5.3,28.6    c0,0,0.3,5.2-3.1,5.1s-19.9,10.4-23.9,18.9s-18,16-18,16s-5.5,36.5-3,40s-1.5,9-4.5,10.5s-10,17.4-10,17.4l-16.5-16.2    c0,0-13,12.2-21.5,2.2s11.3-27,2.9-38s-11.9-1-8.9-14.5S202,127.4,202,127.4z"/>
	</a>
	<a xlink:href="Mondariz">
		<path style="fill-rule:evenodd;clip-rule:evenodd;fill:#FFFBF0;stroke:#9A9A9A;stroke-width:2;stroke-miterlimit:10;" d="    M117.7,155.4c0,0,11.3-7.8,13.2-13.1s12.5-10,12.5-10s2.4,10.2,13.9,5.2s33.8-16.3,33.8-16.3s8.1,6.5,11.2,6.1    c0,0,1.5,41.6-0.5,46.6s-4.5,9,1.5,11s12,6.5,7,20.5s-7.5,23.5,2.5,26.5s16-5.2,16-5.2l16.5,16.2l-40,5.5l-11.1-6.6    c0,0-3.9-8.8-9.9-13.3c-6-4.5-7.5-11.5-7.5-11.5s-2.5,13.2-15.8,14.9c0,0-10.2-9.8-10.2-11.4s1.4-7.3,1.4-7.3s5.1-6.7,4-13    c-1.2-6.9-9.7-13.8-12.1-15.4c-5.8-3.8-13-3-13-3S119.6,172.4,117.7,155.4z"/>
	</a>
</g>
<g id="bl">
	<rect x="97" y="191.7" style="opacity:0.6;fill:#FFFBF0;" width="51" height="17.5"/>
</g>
<g id="text_x5F_ciutats">
	<g>
		<g>
			<path style="fill:#1A171B;" d="M275.9,233.4h-1l-0.7-2l-3,0l-0.7,2h-0.9l2.5-7.3h1.2L275.9,233.4z M273.9,230.5l-1.2-3.6     l-1.2,3.6H273.9z"/>
			<path style="fill:#1A171B;" d="M285.5,232.9c-0.2,0.1-0.3,0.2-0.5,0.2c-0.1,0.1-0.3,0.1-0.5,0.2c-0.2,0.1-0.4,0.1-0.6,0.2     s-0.5,0.1-0.7,0.1c-0.5,0-1-0.1-1.4-0.2c-0.4-0.1-0.8-0.4-1.1-0.7c-0.3-0.3-0.5-0.7-0.7-1.2c-0.2-0.5-0.3-1-0.3-1.7     c0-0.6,0.1-1.1,0.2-1.6c0.2-0.5,0.4-0.9,0.7-1.2c0.3-0.3,0.6-0.6,1.1-0.7c0.4-0.2,0.9-0.2,1.4-0.2c0.4,0,0.7,0,1.1,0.1     c0.4,0.1,0.8,0.3,1.2,0.5v1.1h-0.1c-0.4-0.3-0.8-0.6-1.1-0.7s-0.8-0.2-1.2-0.2c-0.3,0-0.7,0.1-0.9,0.2s-0.5,0.3-0.7,0.6     c-0.2,0.2-0.4,0.6-0.5,0.9c-0.1,0.4-0.2,0.8-0.2,1.3c0,0.5,0.1,1,0.2,1.3s0.3,0.7,0.5,0.9c0.2,0.2,0.5,0.4,0.8,0.5     c0.3,0.1,0.6,0.2,0.9,0.2c0.4,0,0.9-0.1,1.2-0.2s0.7-0.4,1.1-0.7h0.1V232.9z"/>
			<path style="fill:#1A171B;" d="M290.8,233.4h-0.9v-0.6c-0.1,0.1-0.2,0.1-0.3,0.2c-0.1,0.1-0.3,0.2-0.4,0.2     c-0.1,0.1-0.3,0.1-0.5,0.2c-0.2,0.1-0.4,0.1-0.7,0.1c-0.5,0-0.9-0.2-1.2-0.5c-0.3-0.3-0.5-0.7-0.5-1.2c0-0.4,0.1-0.7,0.3-1     c0.2-0.3,0.4-0.5,0.7-0.6c0.3-0.1,0.7-0.2,1.1-0.3c0.4-0.1,0.9-0.1,1.4-0.1v-0.1c0-0.2,0-0.4-0.1-0.5c-0.1-0.1-0.2-0.2-0.3-0.3     c-0.1-0.1-0.3-0.1-0.4-0.2c-0.2,0-0.4,0-0.5,0c-0.2,0-0.5,0-0.8,0.1c-0.3,0.1-0.6,0.2-0.9,0.3h0v-0.9c0.2,0,0.4-0.1,0.7-0.2     s0.6-0.1,0.9-0.1c0.4,0,0.7,0,0.9,0.1c0.3,0.1,0.5,0.2,0.7,0.3c0.2,0.1,0.3,0.3,0.4,0.6c0.1,0.2,0.2,0.5,0.2,0.9L290.8,233.4z      M289.9,232.1l0-1.5c-0.3,0-0.6,0-0.9,0.1s-0.6,0.1-0.9,0.1c-0.2,0.1-0.5,0.2-0.6,0.3c-0.2,0.2-0.2,0.4-0.2,0.7     c0,0.3,0.1,0.5,0.3,0.7c0.2,0.2,0.5,0.2,0.8,0.2c0.3,0,0.6-0.1,0.8-0.2C289.5,232.4,289.7,232.2,289.9,232.1z"/>
			<path style="fill:#1A171B;" d="M296.7,233.4h-0.9l0-3.1c0-0.3,0-0.5,0-0.7c0-0.2-0.1-0.4-0.2-0.5c-0.1-0.1-0.2-0.2-0.3-0.3     c-0.1-0.1-0.3-0.1-0.6-0.1c-0.2,0-0.5,0.1-0.7,0.2c-0.3,0.1-0.5,0.3-0.7,0.5l0,4.1l-0.9,0l0-5.5l0.9,0v0.6     c0.3-0.2,0.6-0.4,0.8-0.6c0.3-0.1,0.6-0.2,0.9-0.2c0.6,0,1,0.2,1.3,0.5c0.3,0.4,0.4,0.9,0.4,1.5L296.7,233.4z M296.5,225.5     c0,0.5-0.2,0.9-0.4,1.1c-0.2,0.3-0.5,0.4-0.8,0.4c-0.2,0-0.3,0-0.5-0.1s-0.3-0.2-0.4-0.3c-0.1-0.1-0.3-0.2-0.4-0.3     s-0.2-0.1-0.3-0.1c-0.2,0-0.3,0.1-0.4,0.2s-0.1,0.3-0.1,0.6h-0.6c0-0.5,0.1-0.9,0.4-1.1s0.5-0.4,0.8-0.4c0.2,0,0.3,0,0.4,0.1     c0.1,0.1,0.3,0.2,0.4,0.3c0.1,0.1,0.3,0.2,0.4,0.3s0.2,0.1,0.3,0.1c0.2,0,0.3-0.1,0.4-0.2s0.1-0.3,0.1-0.6H296.5z"/>
			<path style="fill:#1A171B;" d="M299.4,227l-1,0v-1l1,0V227z M299.3,233.4l-0.9,0l0-5.5l0.9,0L299.3,233.4z"/>
			<path style="fill:#1A171B;" d="M304.8,233.4l-4.2,0v-0.7l3-4l-2.9,0V228l4,0v0.7l-3,4l3.1,0V233.4z"/>
			<path style="fill:#1A171B;" d="M310,233.4h-0.9v-0.6c-0.1,0.1-0.2,0.1-0.3,0.2c-0.1,0.1-0.3,0.2-0.4,0.2     c-0.1,0.1-0.3,0.1-0.5,0.2s-0.4,0.1-0.7,0.1c-0.5,0-0.9-0.2-1.2-0.5c-0.3-0.3-0.5-0.7-0.5-1.2c0-0.4,0.1-0.7,0.3-1     c0.2-0.3,0.4-0.5,0.7-0.6c0.3-0.1,0.7-0.2,1.1-0.3c0.4-0.1,0.9-0.1,1.4-0.1v-0.1c0-0.2,0-0.4-0.1-0.5c-0.1-0.1-0.2-0.2-0.3-0.3     c-0.1-0.1-0.3-0.1-0.4-0.2c-0.2,0-0.4,0-0.5,0c-0.2,0-0.5,0-0.8,0.1c-0.3,0.1-0.6,0.2-0.9,0.3h0v-0.9c0.2,0,0.4-0.1,0.7-0.2     s0.6-0.1,0.9-0.1c0.4,0,0.7,0,0.9,0.1c0.3,0.1,0.5,0.2,0.7,0.3c0.2,0.1,0.3,0.3,0.4,0.6c0.1,0.2,0.2,0.5,0.2,0.9L310,233.4z      M309.1,232.1l0-1.5c-0.3,0-0.6,0-0.9,0.1s-0.6,0.1-0.9,0.1c-0.2,0.1-0.5,0.2-0.6,0.3c-0.2,0.2-0.2,0.4-0.2,0.7     c0,0.3,0.1,0.5,0.3,0.7c0.2,0.2,0.5,0.2,0.8,0.2c0.3,0,0.6-0.1,0.8-0.2C308.7,232.4,308.9,232.3,309.1,232.1z"/>
		</g>
	</g>
	<g>
		<g>
			<path style="fill:#1A171B;" d="M239.4,144.5c-0.2,0.1-0.3,0.2-0.5,0.2s-0.3,0.1-0.5,0.2c-0.2,0.1-0.4,0.1-0.6,0.2     s-0.5,0.1-0.7,0.1c-0.5,0-1-0.1-1.4-0.2s-0.8-0.4-1.1-0.7c-0.3-0.3-0.5-0.7-0.7-1.2c-0.2-0.5-0.3-1-0.3-1.7     c0-0.6,0.1-1.1,0.2-1.6c0.2-0.5,0.4-0.9,0.7-1.2c0.3-0.3,0.6-0.6,1.1-0.7s0.9-0.2,1.4-0.2c0.4,0,0.7,0,1.1,0.1     c0.4,0.1,0.8,0.3,1.2,0.5v1.1h-0.1c-0.4-0.3-0.8-0.6-1.1-0.7c-0.4-0.2-0.8-0.2-1.2-0.2c-0.3,0-0.7,0.1-0.9,0.2     c-0.3,0.1-0.5,0.3-0.7,0.6c-0.2,0.2-0.4,0.6-0.5,0.9c-0.1,0.4-0.2,0.8-0.2,1.3c0,0.5,0.1,1,0.2,1.3s0.3,0.7,0.5,0.9     c0.2,0.2,0.5,0.4,0.8,0.5c0.3,0.1,0.6,0.2,0.9,0.2c0.4,0,0.9-0.1,1.2-0.2c0.4-0.2,0.7-0.4,1.1-0.7h0.1V144.5z"/>
			<path style="fill:#1A171B;" d="M245,142.3c0,0.9-0.2,1.6-0.6,2.1c-0.4,0.5-1,0.8-1.7,0.8c-0.7,0-1.3-0.3-1.7-0.8     s-0.6-1.2-0.6-2.1s0.2-1.6,0.6-2.1c0.4-0.5,1-0.8,1.7-0.8c0.7,0,1.3,0.3,1.7,0.8C244.8,140.7,245,141.4,245,142.3z M244.1,142.3     c0-0.7-0.1-1.2-0.4-1.6c-0.3-0.3-0.6-0.5-1.1-0.5c-0.5,0-0.8,0.2-1.1,0.5s-0.4,0.9-0.4,1.6c0,0.7,0.1,1.2,0.4,1.6     c0.3,0.4,0.6,0.5,1.1,0.5c0.5,0,0.8-0.2,1.1-0.5C243.9,143.5,244.1,143,244.1,142.3z"/>
			<path style="fill:#1A171B;" d="M250.7,139.6l-2.1,5.5h-0.9l-2.1-5.5l0.9,0l1.6,4.3l1.6-4.3L250.7,139.6z"/>
			<path style="fill:#1A171B;" d="M256.1,142.4l-3.8,0c0,0.3,0,0.6,0.1,0.9s0.2,0.5,0.4,0.6c0.2,0.2,0.4,0.3,0.6,0.4     c0.2,0.1,0.5,0.1,0.7,0.1c0.4,0,0.7-0.1,1.1-0.2c0.4-0.1,0.6-0.3,0.8-0.4h0v1c-0.3,0.1-0.6,0.2-0.9,0.3c-0.3,0.1-0.6,0.1-1,0.1     c-0.9,0-1.5-0.2-2-0.7c-0.5-0.5-0.7-1.2-0.7-2.1c0-0.9,0.2-1.6,0.7-2.1c0.5-0.5,1.1-0.8,1.8-0.8c0.7,0,1.2,0.2,1.6,0.6     c0.4,0.4,0.6,1,0.6,1.8V142.4z M255.2,141.7c0-0.5-0.1-0.9-0.3-1.1c-0.2-0.3-0.6-0.4-1-0.4c-0.5,0-0.8,0.1-1.1,0.4     c-0.3,0.3-0.4,0.6-0.5,1.1L255.2,141.7z"/>
			<path style="fill:#1A171B;" d="M258.3,145l-0.9,0l0-7.6l0.9,0L258.3,145z"/>
			<path style="fill:#1A171B;" d="M264.4,142.3c0,0.9-0.2,1.6-0.6,2.1s-1,0.8-1.7,0.8c-0.7,0-1.3-0.3-1.7-0.8s-0.6-1.2-0.6-2.1     s0.2-1.6,0.6-2.1c0.4-0.5,1-0.8,1.7-0.8c0.7,0,1.3,0.3,1.7,0.8C264.2,140.7,264.4,141.4,264.4,142.3z M263.5,142.3     c0-0.7-0.1-1.2-0.4-1.6c-0.3-0.3-0.6-0.5-1.1-0.5c-0.5,0-0.8,0.2-1.1,0.5c-0.3,0.3-0.4,0.9-0.4,1.6c0,0.7,0.1,1.2,0.4,1.6     s0.6,0.5,1.1,0.5c0.5,0,0.8-0.2,1.1-0.5C263.3,143.5,263.5,143,263.5,142.3z"/>
		</g>
	</g>
	<g>
		<g>
			<path style="fill:#1A171B;" d="M151.2,169.2l-0.9,0l0-6.3l-1.9,4.3l-0.5,0l-1.9-4.3l0,6.3h-0.9l0-7.3l1.2,0l1.8,4l1.8-4l1.3,0     L151.2,169.2z"/>
			<path style="fill:#1A171B;" d="M157.4,166.4c0,0.9-0.2,1.6-0.6,2.1s-1,0.8-1.7,0.8c-0.7,0-1.3-0.3-1.7-0.8s-0.6-1.2-0.6-2.1     c0-0.9,0.2-1.6,0.6-2.1c0.4-0.5,1-0.8,1.7-0.8c0.7,0,1.3,0.3,1.7,0.8C157.2,164.9,157.4,165.6,157.4,166.4z M156.5,166.4     c0-0.7-0.1-1.2-0.4-1.6c-0.3-0.3-0.6-0.5-1.1-0.5c-0.5,0-0.8,0.2-1.1,0.5c-0.3,0.3-0.4,0.9-0.4,1.6c0,0.7,0.1,1.2,0.4,1.6     c0.3,0.4,0.6,0.5,1.1,0.5c0.5,0,0.8-0.2,1.1-0.5C156.4,167.7,156.5,167.1,156.5,166.4z"/>
			<path style="fill:#1A171B;" d="M163,169.2h-0.9l0-3.1c0-0.3,0-0.5,0-0.7c0-0.2-0.1-0.4-0.2-0.5c-0.1-0.1-0.2-0.2-0.3-0.3     c-0.1-0.1-0.3-0.1-0.6-0.1c-0.2,0-0.5,0.1-0.7,0.2c-0.3,0.1-0.5,0.3-0.7,0.5l0,4.1h-0.9l0-5.5h0.9l0,0.6c0.3-0.2,0.6-0.4,0.8-0.6     s0.6-0.2,0.9-0.2c0.6,0,1,0.2,1.3,0.5c0.3,0.4,0.4,0.9,0.4,1.5L163,169.2z"/>
			<path style="fill:#1A171B;" d="M168.9,169.2H168l0-0.6c-0.2,0.2-0.5,0.4-0.8,0.5c-0.3,0.1-0.6,0.2-0.9,0.2     c-0.6,0-1.1-0.3-1.5-0.8c-0.4-0.5-0.5-1.2-0.5-2.1c0-0.5,0.1-0.9,0.2-1.2c0.1-0.4,0.3-0.7,0.5-0.9c0.2-0.2,0.5-0.4,0.7-0.6     c0.3-0.1,0.6-0.2,0.9-0.2c0.3,0,0.5,0,0.7,0.1c0.2,0.1,0.4,0.2,0.7,0.3l0-2.4l0.9,0L168.9,169.2z M168,167.8l0-3.1     c-0.2-0.1-0.4-0.2-0.6-0.2c-0.2,0-0.4-0.1-0.6-0.1c-0.5,0-0.9,0.2-1.1,0.5c-0.3,0.4-0.4,0.9-0.4,1.5c0,0.6,0.1,1.1,0.3,1.5     c0.2,0.3,0.5,0.5,1,0.5c0.2,0,0.5-0.1,0.7-0.2C167.6,168.2,167.8,168,168,167.8z"/>
			<path style="fill:#1A171B;" d="M174.6,169.2h-0.9v-0.6c-0.1,0.1-0.2,0.1-0.3,0.2c-0.1,0.1-0.3,0.2-0.4,0.2     c-0.1,0.1-0.3,0.1-0.5,0.2c-0.2,0.1-0.4,0.1-0.7,0.1c-0.5,0-0.9-0.2-1.2-0.5c-0.3-0.3-0.5-0.7-0.5-1.2c0-0.4,0.1-0.7,0.3-1     c0.2-0.3,0.4-0.5,0.7-0.6c0.3-0.1,0.7-0.2,1.1-0.3c0.4-0.1,0.9-0.1,1.4-0.1v-0.1c0-0.2,0-0.4-0.1-0.5s-0.2-0.2-0.3-0.3     c-0.1-0.1-0.3-0.1-0.4-0.2c-0.2,0-0.4,0-0.5,0c-0.2,0-0.5,0-0.8,0.1s-0.6,0.2-0.9,0.3h0l0-0.9c0.2,0,0.4-0.1,0.7-0.2     s0.6-0.1,0.9-0.1c0.4,0,0.7,0,0.9,0.1c0.3,0.1,0.5,0.2,0.7,0.3c0.2,0.1,0.3,0.3,0.4,0.6c0.1,0.2,0.2,0.5,0.2,0.9L174.6,169.2z      M173.7,167.8l0-1.5c-0.3,0-0.6,0-0.9,0.1c-0.4,0-0.6,0.1-0.9,0.1c-0.2,0.1-0.5,0.2-0.6,0.3s-0.2,0.4-0.2,0.7     c0,0.3,0.1,0.5,0.3,0.7c0.2,0.2,0.5,0.2,0.8,0.2c0.3,0,0.6-0.1,0.8-0.2C173.3,168.2,173.5,168,173.7,167.8z"/>
			<path style="fill:#1A171B;" d="M179.5,164.7L179.5,164.7c-0.2,0-0.3-0.1-0.4-0.1s-0.3,0-0.4,0c-0.3,0-0.5,0.1-0.8,0.2     c-0.2,0.1-0.5,0.3-0.7,0.5l0,3.9l-0.9,0l0-5.5l0.9,0l0,0.8c0.3-0.3,0.6-0.5,0.9-0.6c0.3-0.1,0.5-0.2,0.8-0.2c0.2,0,0.3,0,0.3,0     c0.1,0,0.2,0,0.3,0L179.5,164.7z"/>
			<path style="fill:#1A171B;" d="M181.2,162.8l-1,0l0-1l1,0V162.8z M181.2,169.2h-0.9l0-5.5l0.9,0L181.2,169.2z"/>
			<path style="fill:#1A171B;" d="M186.6,169.2l-4.2,0l0-0.7l3-4l-2.9,0v-0.8l4,0v0.7l-3,4l3.1,0L186.6,169.2z"/>
		</g>
	</g>
	<g>
		<g>
			<path style="fill:#1A171B;" d="M192.4,304.5l-1,0l-0.7-2l-3,0l-0.7,2h-0.9l2.5-7.3l1.2,0L192.4,304.5z M190.5,301.6l-1.2-3.6     l-1.2,3.6L190.5,301.6z"/>
			<path style="fill:#1A171B;" d="M197,302.9c0,0.5-0.2,0.9-0.6,1.2s-0.9,0.5-1.6,0.5c-0.4,0-0.7,0-1-0.1c-0.3-0.1-0.6-0.2-0.8-0.3     l0-1h0c0.3,0.2,0.6,0.4,0.9,0.5c0.3,0.1,0.7,0.2,1,0.2c0.4,0,0.7-0.1,0.9-0.2s0.3-0.3,0.3-0.6c0-0.2-0.1-0.4-0.2-0.5     c-0.1-0.1-0.3-0.2-0.7-0.3c-0.1,0-0.3-0.1-0.5-0.1c-0.2,0-0.4-0.1-0.5-0.1c-0.5-0.1-0.8-0.3-1-0.6c-0.2-0.2-0.3-0.5-0.3-0.9     c0-0.2,0-0.4,0.1-0.6c0.1-0.2,0.2-0.4,0.4-0.5c0.2-0.2,0.4-0.3,0.7-0.4c0.3-0.1,0.6-0.1,0.9-0.1c0.3,0,0.6,0,0.9,0.1     c0.3,0.1,0.6,0.2,0.8,0.3l0,1h0c-0.2-0.2-0.5-0.3-0.8-0.4c-0.3-0.1-0.6-0.2-0.9-0.2c-0.3,0-0.6,0.1-0.8,0.2     c-0.2,0.1-0.3,0.3-0.3,0.6c0,0.2,0.1,0.4,0.2,0.5c0.1,0.1,0.3,0.2,0.6,0.3c0.2,0,0.3,0.1,0.5,0.1c0.2,0,0.4,0.1,0.5,0.1     c0.4,0.1,0.7,0.3,0.9,0.5C196.9,302.2,197,302.5,197,302.9z"/>
			<path style="fill:#1A171B;" d="M206.9,304.5h-1.1l-3.3-6.5l0,6.5h-0.9l0-7.3h1.4l3,5.9l0-5.9h0.9L206.9,304.5z"/>
			<path style="fill:#1A171B;" d="M213,301.9l-3.8,0c0,0.3,0,0.6,0.1,0.9c0.1,0.2,0.2,0.5,0.4,0.6c0.2,0.2,0.4,0.3,0.6,0.4     c0.2,0.1,0.5,0.1,0.7,0.1c0.4,0,0.7-0.1,1.1-0.2c0.4-0.1,0.6-0.3,0.8-0.4h0l0,1c-0.3,0.1-0.6,0.2-0.9,0.3s-0.6,0.1-1,0.1     c-0.9,0-1.5-0.2-2-0.7c-0.5-0.5-0.7-1.2-0.7-2.1c0-0.9,0.2-1.6,0.7-2.1c0.5-0.5,1.1-0.8,1.8-0.8c0.7,0,1.2,0.2,1.6,0.6     c0.4,0.4,0.6,1,0.6,1.8V301.9z M212.1,301.2c0-0.5-0.1-0.9-0.3-1.1c-0.2-0.3-0.6-0.4-1-0.4c-0.5,0-0.8,0.1-1.1,0.4     c-0.3,0.3-0.4,0.6-0.5,1.1L212.1,301.2z"/>
			<path style="fill:#1A171B;" d="M218.8,299l-2.1,5.5l-0.9,0l-2.1-5.5h0.9l1.6,4.3l1.6-4.3H218.8z"/>
			<path style="fill:#1A171B;" d="M224.1,301.9l-3.8,0c0,0.3,0,0.6,0.1,0.9c0.1,0.2,0.2,0.5,0.4,0.6c0.2,0.2,0.4,0.3,0.6,0.4     c0.2,0.1,0.5,0.1,0.7,0.1c0.4,0,0.7-0.1,1.1-0.2c0.4-0.1,0.6-0.3,0.8-0.4h0l0,1c-0.3,0.1-0.6,0.2-0.9,0.3s-0.6,0.1-1,0.1     c-0.9,0-1.5-0.2-2-0.7c-0.5-0.5-0.7-1.2-0.7-2.1c0-0.9,0.2-1.6,0.7-2.1c0.5-0.5,1.1-0.8,1.8-0.8c0.7,0,1.2,0.2,1.6,0.6     c0.4,0.4,0.6,1,0.6,1.8V301.9z M223.3,301.2c0-0.5-0.1-0.9-0.3-1.1c-0.2-0.3-0.6-0.4-1-0.4c-0.5,0-0.8,0.1-1.1,0.4     c-0.3,0.3-0.4,0.6-0.5,1.1L223.3,301.2z"/>
			<path style="fill:#1A171B;" d="M229.1,302.9c0,0.5-0.2,0.9-0.6,1.2c-0.4,0.3-0.9,0.5-1.6,0.5c-0.4,0-0.7,0-1-0.1     c-0.3-0.1-0.6-0.2-0.8-0.3l0-1h0c0.3,0.2,0.6,0.4,0.9,0.5c0.3,0.1,0.7,0.2,1,0.2c0.4,0,0.7-0.1,0.9-0.2c0.2-0.1,0.3-0.3,0.3-0.6     c0-0.2-0.1-0.4-0.2-0.5c-0.1-0.1-0.3-0.2-0.7-0.3c-0.1,0-0.3-0.1-0.5-0.1c-0.2,0-0.4-0.1-0.5-0.1c-0.5-0.1-0.8-0.3-1-0.6     c-0.2-0.2-0.3-0.5-0.3-0.9c0-0.2,0-0.4,0.1-0.6c0.1-0.2,0.2-0.4,0.4-0.5c0.2-0.2,0.4-0.3,0.7-0.4c0.3-0.1,0.6-0.1,0.9-0.1     c0.3,0,0.6,0,0.9,0.1c0.3,0.1,0.6,0.2,0.8,0.3l0,1h0c-0.2-0.2-0.5-0.3-0.8-0.4c-0.3-0.1-0.6-0.2-0.9-0.2c-0.3,0-0.6,0.1-0.8,0.2     c-0.2,0.1-0.3,0.3-0.3,0.6c0,0.2,0.1,0.4,0.2,0.5c0.1,0.1,0.3,0.2,0.6,0.3c0.2,0,0.3,0.1,0.5,0.1s0.4,0.1,0.5,0.1     c0.4,0.1,0.7,0.3,0.9,0.5C229,302.2,229.1,302.5,229.1,302.9z"/>
		</g>
	</g>
	<g>
		<g>
			<path style="fill:#1A171B;" d="M333.9,263.7c-0.2,0.1-0.3,0.2-0.5,0.2c-0.1,0.1-0.3,0.1-0.5,0.2c-0.2,0.1-0.4,0.1-0.6,0.2     s-0.5,0.1-0.7,0.1c-0.5,0-1-0.1-1.4-0.2c-0.4-0.1-0.8-0.4-1.1-0.7c-0.3-0.3-0.5-0.7-0.7-1.2c-0.2-0.5-0.3-1-0.3-1.7     c0-0.6,0.1-1.1,0.2-1.6s0.4-0.9,0.7-1.2c0.3-0.3,0.6-0.6,1.1-0.7c0.4-0.2,0.9-0.2,1.4-0.2c0.4,0,0.7,0,1.1,0.1     c0.4,0.1,0.8,0.3,1.2,0.5v1.1h-0.1c-0.4-0.3-0.8-0.6-1.1-0.7s-0.8-0.2-1.2-0.2c-0.3,0-0.7,0.1-0.9,0.2c-0.3,0.1-0.5,0.3-0.7,0.6     c-0.2,0.2-0.4,0.6-0.5,0.9c-0.1,0.4-0.2,0.8-0.2,1.3c0,0.5,0.1,1,0.2,1.3c0.1,0.4,0.3,0.7,0.5,0.9c0.2,0.2,0.5,0.4,0.8,0.5     c0.3,0.1,0.6,0.2,0.9,0.2c0.4,0,0.9-0.1,1.2-0.2s0.7-0.4,1.1-0.7h0.1L333.9,263.7z"/>
			<path style="fill:#1A171B;" d="M338.3,259.8L338.3,259.8c-0.2,0-0.3-0.1-0.4-0.1c-0.1,0-0.3,0-0.4,0c-0.3,0-0.5,0.1-0.8,0.2     c-0.3,0.1-0.5,0.3-0.7,0.5l0,3.9h-0.9l0-5.5h0.9v0.8c0.3-0.3,0.6-0.5,0.9-0.6c0.3-0.1,0.5-0.2,0.8-0.2c0.2,0,0.3,0,0.3,0     c0.1,0,0.2,0,0.3,0V259.8z"/>
			<path style="fill:#1A171B;" d="M343.5,261.6l-3.8,0c0,0.3,0,0.6,0.1,0.9c0.1,0.2,0.2,0.5,0.4,0.6c0.2,0.2,0.4,0.3,0.6,0.4     s0.5,0.1,0.7,0.1c0.4,0,0.7-0.1,1.1-0.2c0.4-0.1,0.6-0.3,0.8-0.4h0l0,1c-0.3,0.1-0.6,0.2-0.9,0.3c-0.3,0.1-0.6,0.1-1,0.1     c-0.9,0-1.5-0.2-2-0.7c-0.5-0.5-0.7-1.2-0.7-2.1c0-0.9,0.2-1.6,0.7-2.1c0.5-0.5,1.1-0.8,1.8-0.8c0.7,0,1.2,0.2,1.6,0.6     s0.6,1,0.6,1.8V261.6z M342.6,260.9c0-0.5-0.1-0.9-0.3-1.1c-0.2-0.3-0.6-0.4-1-0.4c-0.5,0-0.8,0.1-1.1,0.4s-0.4,0.6-0.5,1.1     L342.6,260.9z"/>
			<path style="fill:#1A171B;" d="M348.6,263.9c-0.3,0.1-0.6,0.3-0.8,0.3c-0.3,0.1-0.5,0.1-0.8,0.1c-0.4,0-0.7-0.1-1-0.2     c-0.3-0.1-0.6-0.3-0.8-0.5c-0.2-0.2-0.4-0.5-0.5-0.9s-0.2-0.8-0.2-1.3c0-0.9,0.2-1.6,0.7-2.1c0.5-0.5,1.1-0.8,1.8-0.8     c0.3,0,0.6,0,0.9,0.1s0.5,0.2,0.8,0.3v1h0c-0.3-0.2-0.5-0.4-0.8-0.5s-0.6-0.2-0.8-0.2c-0.5,0-0.9,0.2-1.2,0.5     c-0.3,0.3-0.4,0.9-0.4,1.5c0,0.7,0.1,1.2,0.4,1.5c0.3,0.4,0.7,0.5,1.2,0.5c0.2,0,0.4,0,0.5-0.1s0.3-0.1,0.5-0.2     c0.1-0.1,0.2-0.1,0.4-0.2c0.1-0.1,0.2-0.1,0.3-0.2h0L348.6,263.9z"/>
			<path style="fill:#1A171B;" d="M354,261.6l-3.8,0c0,0.3,0,0.6,0.1,0.9c0.1,0.2,0.2,0.5,0.4,0.6c0.2,0.2,0.4,0.3,0.6,0.4     c0.2,0.1,0.5,0.1,0.7,0.1c0.4,0,0.7-0.1,1.1-0.2c0.4-0.1,0.6-0.3,0.8-0.4h0l0,1c-0.3,0.1-0.6,0.2-0.9,0.3c-0.3,0.1-0.6,0.1-1,0.1     c-0.9,0-1.5-0.2-2-0.7c-0.5-0.5-0.7-1.2-0.7-2.1c0-0.9,0.2-1.6,0.7-2.1s1.1-0.8,1.8-0.8c0.7,0,1.2,0.2,1.6,0.6s0.6,1,0.6,1.8     V261.6z M353.2,260.9c0-0.5-0.1-0.9-0.3-1.1c-0.2-0.3-0.6-0.4-1-0.4c-0.5,0-0.8,0.1-1.1,0.4s-0.4,0.6-0.5,1.1L353.2,260.9z"/>
			<path style="fill:#1A171B;" d="M359.6,264.2h-0.9l0-3.1c0-0.3,0-0.5,0-0.7c0-0.2-0.1-0.4-0.2-0.5c-0.1-0.1-0.2-0.2-0.3-0.3     c-0.1-0.1-0.3-0.1-0.6-0.1c-0.2,0-0.5,0.1-0.7,0.2c-0.3,0.1-0.5,0.3-0.7,0.5l0,4.1h-0.9l0-5.5h0.9v0.6c0.3-0.2,0.6-0.4,0.8-0.6     s0.6-0.2,0.9-0.2c0.6,0,1,0.2,1.3,0.5c0.3,0.4,0.4,0.9,0.4,1.5L359.6,264.2z"/>
			<path style="fill:#1A171B;" d="M364,264.2c-0.2,0-0.3,0.1-0.5,0.1s-0.4,0-0.5,0c-0.5,0-0.9-0.1-1.2-0.4c-0.3-0.3-0.4-0.8-0.4-1.4     l0-2.9h-0.6v-0.8h0.6v-1.6h0.9v1.6l1.8,0v0.8l-1.8,0l0,2.5c0,0.3,0,0.5,0,0.7c0,0.2,0.1,0.3,0.1,0.5c0.1,0.1,0.2,0.2,0.3,0.3     c0.1,0.1,0.3,0.1,0.5,0.1c0.1,0,0.3,0,0.4-0.1c0.2,0,0.3-0.1,0.3-0.1h0L364,264.2z"/>
			<path style="fill:#1A171B;" d="M369.3,261.6l-3.8,0c0,0.3,0,0.6,0.1,0.9c0.1,0.2,0.2,0.5,0.4,0.6c0.2,0.2,0.4,0.3,0.6,0.4     c0.2,0.1,0.5,0.1,0.7,0.1c0.4,0,0.7-0.1,1.1-0.2c0.4-0.1,0.6-0.3,0.8-0.4h0l0,1c-0.3,0.1-0.6,0.2-0.9,0.3c-0.3,0.1-0.6,0.1-1,0.1     c-0.9,0-1.5-0.2-2-0.7c-0.5-0.5-0.7-1.2-0.7-2.1c0-0.9,0.2-1.6,0.7-2.1s1.1-0.8,1.8-0.8c0.7,0,1.2,0.2,1.6,0.6s0.6,1,0.6,1.8     V261.6z M368.5,260.9c0-0.5-0.1-0.9-0.3-1.1c-0.2-0.3-0.6-0.4-1-0.4c-0.5,0-0.8,0.1-1.1,0.4s-0.4,0.6-0.5,1.1L368.5,260.9z"/>
		</g>
	</g>
	<g>
		<g>
			<path style="fill:#1A171B;" d="M100.4,240.3c0,0.3-0.1,0.6-0.2,0.9c-0.1,0.3-0.3,0.5-0.4,0.7c-0.2,0.3-0.5,0.4-0.8,0.6     c-0.3,0.1-0.7,0.2-1.2,0.2h-0.9l0,2.7l-0.9,0l0-7.3l1.9,0c0.4,0,0.8,0,1,0.1c0.3,0.1,0.5,0.2,0.8,0.3c0.3,0.2,0.5,0.4,0.6,0.7     C100.4,239.5,100.4,239.9,100.4,240.3z M99.5,240.3c0-0.3,0-0.5-0.1-0.7c-0.1-0.2-0.2-0.3-0.4-0.5c-0.1-0.1-0.3-0.2-0.5-0.2     c-0.2,0-0.4-0.1-0.7-0.1h-0.9l0,2.9h0.8c0.4,0,0.7,0,0.9-0.1c0.2-0.1,0.4-0.2,0.6-0.3c0.1-0.2,0.2-0.3,0.3-0.5     C99.5,240.7,99.5,240.6,99.5,240.3z"/>
			<path style="fill:#1A171B;" d="M105.7,242.7c0,0.9-0.2,1.6-0.6,2.1c-0.4,0.5-1,0.8-1.7,0.8c-0.7,0-1.3-0.3-1.7-0.8     s-0.6-1.2-0.6-2.1c0-0.9,0.2-1.6,0.6-2.1c0.4-0.5,1-0.8,1.7-0.8c0.7,0,1.3,0.3,1.7,0.8C105.5,241.1,105.7,241.8,105.7,242.7z      M104.8,242.7c0-0.7-0.1-1.2-0.4-1.6c-0.3-0.3-0.6-0.5-1.1-0.5c-0.5,0-0.8,0.2-1.1,0.5s-0.4,0.9-0.4,1.6c0,0.7,0.1,1.2,0.4,1.6     c0.3,0.4,0.6,0.5,1.1,0.5c0.5,0,0.8-0.2,1.1-0.5C104.7,243.9,104.8,243.4,104.8,242.7z"/>
			<path style="fill:#1A171B;" d="M111.4,245.4h-0.9l0-3.1c0-0.3,0-0.5,0-0.7s-0.1-0.4-0.2-0.5c-0.1-0.1-0.2-0.2-0.3-0.3     c-0.1-0.1-0.3-0.1-0.6-0.1c-0.2,0-0.5,0.1-0.7,0.2c-0.3,0.1-0.5,0.3-0.7,0.5l0,4.1h-0.9l0-5.5h0.9v0.6c0.3-0.2,0.6-0.4,0.8-0.6     c0.3-0.1,0.6-0.2,0.9-0.2c0.6,0,1,0.2,1.3,0.5c0.3,0.4,0.4,0.9,0.4,1.5L111.4,245.4z"/>
			<path style="fill:#1A171B;" d="M115.7,245.3c-0.2,0-0.3,0.1-0.5,0.1c-0.2,0-0.4,0-0.5,0c-0.5,0-0.9-0.1-1.2-0.4     c-0.3-0.3-0.4-0.8-0.4-1.4l0-2.9h-0.6l0-0.8h0.6l0-1.6h0.9l0,1.6l1.8,0l0,0.8l-1.8,0l0,2.5c0,0.3,0,0.5,0,0.7s0.1,0.3,0.1,0.5     c0.1,0.1,0.2,0.2,0.3,0.3c0.1,0.1,0.3,0.1,0.5,0.1c0.1,0,0.3,0,0.4-0.1c0.2,0,0.3-0.1,0.3-0.1h0L115.7,245.3z"/>
			<path style="fill:#1A171B;" d="M121.1,242.8l-3.8,0c0,0.3,0,0.6,0.1,0.9c0.1,0.2,0.2,0.5,0.4,0.6c0.2,0.2,0.4,0.3,0.6,0.4     c0.2,0.1,0.5,0.1,0.7,0.1c0.4,0,0.7-0.1,1.1-0.2c0.4-0.1,0.6-0.3,0.8-0.4h0l0,1c-0.3,0.1-0.6,0.2-0.9,0.3c-0.3,0.1-0.6,0.1-1,0.1     c-0.9,0-1.5-0.2-2-0.7s-0.7-1.2-0.7-2.1c0-0.9,0.2-1.6,0.7-2.1c0.5-0.5,1.1-0.8,1.8-0.8c0.7,0,1.2,0.2,1.6,0.6     c0.4,0.4,0.6,1,0.6,1.8V242.8z M120.3,242.1c0-0.5-0.1-0.9-0.3-1.1c-0.2-0.3-0.6-0.4-1-0.4c-0.5,0-0.8,0.1-1.1,0.4     c-0.3,0.3-0.4,0.6-0.5,1.1L120.3,242.1z"/>
			<path style="fill:#1A171B;" d="M126.4,245.4h-0.9v-0.6c-0.1,0.1-0.2,0.1-0.3,0.2c-0.1,0.1-0.3,0.2-0.4,0.2     c-0.1,0.1-0.3,0.1-0.5,0.2c-0.2,0.1-0.4,0.1-0.7,0.1c-0.5,0-0.9-0.2-1.2-0.5c-0.3-0.3-0.5-0.7-0.5-1.2c0-0.4,0.1-0.7,0.3-1     c0.2-0.3,0.4-0.5,0.7-0.6c0.3-0.1,0.7-0.2,1.1-0.3s0.9-0.1,1.4-0.1v-0.1c0-0.2,0-0.4-0.1-0.5s-0.2-0.2-0.3-0.3     c-0.1-0.1-0.3-0.1-0.4-0.2s-0.4,0-0.5,0c-0.2,0-0.5,0-0.8,0.1s-0.6,0.2-0.9,0.3h0v-0.9c0.2,0,0.4-0.1,0.7-0.2     c0.3-0.1,0.6-0.1,0.9-0.1c0.4,0,0.7,0,0.9,0.1c0.3,0.1,0.5,0.2,0.7,0.3c0.2,0.2,0.3,0.3,0.4,0.6c0.1,0.2,0.2,0.5,0.2,0.9     L126.4,245.4z M125.6,244.1v-1.5c-0.3,0-0.6,0-0.9,0.1s-0.6,0.1-0.9,0.1c-0.2,0.1-0.5,0.2-0.6,0.3c-0.2,0.2-0.2,0.4-0.2,0.7     c0,0.3,0.1,0.5,0.3,0.7c0.2,0.2,0.5,0.2,0.8,0.2c0.3,0,0.6-0.1,0.8-0.2C125.1,244.4,125.3,244.2,125.6,244.1z"/>
			<path style="fill:#1A171B;" d="M131.3,240.9L131.3,240.9c-0.2,0-0.3-0.1-0.4-0.1c-0.1,0-0.3,0-0.4,0c-0.3,0-0.5,0.1-0.8,0.2     c-0.2,0.1-0.5,0.3-0.7,0.5l0,3.9h-0.9l0-5.5h0.9v0.8c0.3-0.3,0.6-0.5,0.9-0.6s0.5-0.2,0.8-0.2c0.2,0,0.3,0,0.3,0     c0.1,0,0.2,0,0.3,0V240.9z"/>
			<path style="fill:#1A171B;" d="M136.4,242.8l-3.8,0c0,0.3,0,0.6,0.1,0.9c0.1,0.2,0.2,0.5,0.4,0.6c0.2,0.2,0.3,0.3,0.6,0.4     c0.2,0.1,0.5,0.1,0.7,0.1c0.4,0,0.7-0.1,1.1-0.2c0.4-0.1,0.6-0.3,0.8-0.4h0v1c-0.3,0.1-0.6,0.2-0.9,0.3c-0.3,0.1-0.6,0.1-1,0.1     c-0.9,0-1.5-0.2-2-0.7s-0.7-1.2-0.7-2.1c0-0.9,0.2-1.6,0.7-2.1c0.5-0.5,1.1-0.8,1.8-0.8c0.7,0,1.2,0.2,1.6,0.6     c0.4,0.4,0.6,1,0.6,1.8L136.4,242.8z M135.6,242.1c0-0.5-0.1-0.9-0.3-1.1s-0.6-0.4-1-0.4c-0.5,0-0.8,0.1-1.1,0.4     c-0.3,0.3-0.4,0.6-0.5,1.1L135.6,242.1z"/>
			<path style="fill:#1A171B;" d="M141.8,245.4h-0.9v-0.6c-0.1,0.1-0.2,0.1-0.3,0.2c-0.1,0.1-0.3,0.2-0.4,0.2     c-0.1,0.1-0.3,0.1-0.5,0.2c-0.2,0.1-0.4,0.1-0.7,0.1c-0.5,0-0.9-0.2-1.2-0.5c-0.3-0.3-0.5-0.7-0.5-1.2c0-0.4,0.1-0.7,0.3-1     c0.2-0.3,0.4-0.5,0.7-0.6c0.3-0.1,0.7-0.2,1.1-0.3c0.4-0.1,0.9-0.1,1.4-0.1v-0.1c0-0.2,0-0.4-0.1-0.5s-0.2-0.2-0.3-0.3     c-0.1-0.1-0.3-0.1-0.4-0.2c-0.2,0-0.4,0-0.5,0c-0.2,0-0.5,0-0.8,0.1c-0.3,0.1-0.6,0.2-0.9,0.3h0l0-0.9c0.2,0,0.4-0.1,0.7-0.2     c0.3-0.1,0.6-0.1,0.9-0.1c0.4,0,0.7,0,0.9,0.1s0.5,0.2,0.7,0.3c0.2,0.2,0.3,0.3,0.4,0.6c0.1,0.2,0.2,0.5,0.2,0.9L141.8,245.4z      M140.9,244.1l0-1.5c-0.3,0-0.6,0-0.9,0.1c-0.4,0-0.6,0.1-0.9,0.1c-0.2,0.1-0.5,0.2-0.6,0.3s-0.2,0.4-0.2,0.7     c0,0.3,0.1,0.5,0.3,0.7c0.2,0.2,0.5,0.2,0.8,0.2c0.3,0,0.6-0.1,0.8-0.2C140.4,244.4,140.7,244.2,140.9,244.1z"/>
			<path style="fill:#1A171B;" d="M147.1,243.8c0,0.5-0.2,0.9-0.6,1.2c-0.4,0.3-0.9,0.5-1.6,0.5c-0.4,0-0.7,0-1-0.1     c-0.3-0.1-0.6-0.2-0.8-0.3l0-1h0c0.3,0.2,0.6,0.4,0.9,0.5c0.3,0.1,0.7,0.2,1,0.2c0.4,0,0.7-0.1,0.9-0.2s0.3-0.3,0.3-0.6     c0-0.2-0.1-0.4-0.2-0.5c-0.1-0.1-0.3-0.2-0.7-0.3c-0.1,0-0.3-0.1-0.5-0.1c-0.2,0-0.4-0.1-0.5-0.1c-0.5-0.1-0.8-0.3-1-0.6     c-0.2-0.2-0.3-0.5-0.3-0.9c0-0.2,0-0.4,0.1-0.6s0.2-0.4,0.4-0.5c0.2-0.2,0.4-0.3,0.7-0.4c0.3-0.1,0.6-0.1,0.9-0.1     c0.3,0,0.6,0,0.9,0.1c0.3,0.1,0.6,0.2,0.8,0.3l0,1h0c-0.2-0.2-0.5-0.3-0.8-0.4c-0.3-0.1-0.6-0.2-0.9-0.2c-0.3,0-0.6,0.1-0.8,0.2     c-0.2,0.1-0.3,0.3-0.3,0.6c0,0.2,0.1,0.4,0.2,0.5c0.1,0.1,0.3,0.2,0.6,0.3c0.2,0,0.3,0.1,0.5,0.1c0.2,0,0.4,0.1,0.5,0.1     c0.4,0.1,0.7,0.3,0.9,0.5C147,243.1,147.1,243.4,147.1,243.8z"/>
		</g>
	</g>
	<g>
		<g>
			<path style="fill:#1A171B;" d="M263.6,304.7h-1l-0.7-2l-3,0l-0.7,2h-0.9l2.5-7.3h1.2L263.6,304.7z M261.7,301.8l-1.2-3.6     l-1.2,3.6H261.7z"/>
			<path style="fill:#1A171B;" d="M267.8,300.2L267.8,300.2c-0.2,0-0.3-0.1-0.4-0.1c-0.1,0-0.3,0-0.4,0c-0.3,0-0.5,0.1-0.8,0.2     c-0.3,0.1-0.5,0.3-0.7,0.5l0,3.9l-0.9,0l0-5.5l0.9,0v0.8c0.3-0.3,0.6-0.5,0.9-0.6c0.3-0.1,0.5-0.2,0.8-0.2c0.2,0,0.3,0,0.3,0     c0.1,0,0.2,0,0.3,0V300.2z"/>
			<path style="fill:#1A171B;" d="M273.1,301.9c0,0.5-0.1,0.9-0.2,1.2c-0.1,0.4-0.3,0.7-0.5,0.9c-0.2,0.3-0.5,0.5-0.7,0.6     c-0.3,0.1-0.5,0.2-0.9,0.2c-0.3,0-0.5,0-0.8-0.1c-0.2-0.1-0.4-0.2-0.6-0.3l-0.1,0.3h-0.8l0-7.6h0.9l0,2.7     c0.2-0.2,0.5-0.4,0.8-0.5c0.3-0.1,0.6-0.2,0.9-0.2c0.6,0,1.1,0.2,1.4,0.7C273,300.3,273.1,301,273.1,301.9z M272.2,301.9     c0-0.7-0.1-1.1-0.3-1.5s-0.5-0.5-1-0.5c-0.3,0-0.5,0.1-0.8,0.2c-0.3,0.1-0.5,0.3-0.7,0.4l0,3.1c0.2,0.1,0.5,0.2,0.6,0.2     s0.4,0.1,0.6,0.1c0.5,0,0.9-0.2,1.1-0.5C272.1,303.2,272.2,302.7,272.2,301.9z"/>
			<path style="fill:#1A171B;" d="M278.9,302c0,0.9-0.2,1.6-0.6,2.1s-1,0.8-1.7,0.8c-0.7,0-1.3-0.3-1.7-0.8     c-0.4-0.5-0.6-1.2-0.6-2.1c0-0.9,0.2-1.6,0.6-2.1c0.4-0.5,1-0.8,1.7-0.8c0.7,0,1.3,0.3,1.7,0.8     C278.7,300.4,278.9,301.1,278.9,302z M278,302c0-0.7-0.1-1.2-0.4-1.6c-0.3-0.3-0.6-0.5-1.1-0.5c-0.5,0-0.8,0.2-1.1,0.5     c-0.3,0.3-0.4,0.9-0.4,1.6c0,0.7,0.1,1.2,0.4,1.6c0.3,0.4,0.6,0.5,1.1,0.5c0.5,0,0.8-0.2,1.1-0.5C277.9,303.2,278,302.7,278,302z     "/>
		</g>
	</g>
</g>
<g id="text-comarques">
	<g>
		<g>
			<path style="fill:#1A171B;" d="M105.2,31.4l-1.9,0l-0.5-1.5l-2.7,0l-0.5,1.5l-1.9,0l2.7-7.3l2.2,0L105.2,31.4z M103.1,21.4     L103.1,21.4l-1.7,1.9l-1.2,0l1.2-1.9L103.1,21.4z M102.3,28.6l-0.9-2.6l-0.9,2.6L102.3,28.6z"/>
			<path style="fill:#1A171B;" d="M110.1,27.6H110c-0.1,0-0.2,0-0.4-0.1c-0.2,0-0.3,0-0.4,0c-0.3,0-0.5,0-0.7,0     c-0.2,0-0.4,0.1-0.6,0.2l0,3.7l-1.8,0l0-5.5l1.8,0l0,0.8c0.4-0.3,0.7-0.6,1-0.7c0.3-0.1,0.5-0.2,0.8-0.2c0.1,0,0.1,0,0.2,0     c0.1,0,0.1,0,0.2,0L110.1,27.6z"/>
			<path style="fill:#1A171B;" d="M116.5,29l-4,0c0,0.4,0.2,0.8,0.5,1c0.3,0.2,0.7,0.3,1.3,0.3c0.4,0,0.7-0.1,1.1-0.2     c0.3-0.1,0.6-0.3,0.8-0.4l0.2,0l0,1.4c-0.4,0.2-0.8,0.3-1.1,0.3s-0.7,0.1-1.2,0.1c-1.1,0-1.9-0.2-2.5-0.7     c-0.6-0.5-0.9-1.2-0.9-2.1c0-0.9,0.3-1.6,0.8-2.2s1.3-0.8,2.3-0.8c0.9,0,1.6,0.2,2,0.7s0.7,1.1,0.7,1.9V29z M114.8,28     c0-0.4-0.1-0.6-0.3-0.8c-0.2-0.2-0.4-0.3-0.8-0.3c-0.3,0-0.6,0.1-0.8,0.3c-0.2,0.2-0.3,0.5-0.4,0.8L114.8,28z"/>
			<path style="fill:#1A171B;" d="M121.1,30.9c-0.1,0.1-0.2,0.2-0.4,0.3c-0.1,0.1-0.3,0.2-0.4,0.2c-0.2,0.1-0.4,0.1-0.5,0.2     c-0.2,0-0.4,0.1-0.6,0.1c-0.5,0-1-0.2-1.3-0.5c-0.4-0.3-0.5-0.7-0.5-1.2c0-0.4,0.1-0.7,0.3-1c0.2-0.3,0.4-0.5,0.8-0.6     c0.3-0.1,0.7-0.3,1.2-0.3c0.5-0.1,1-0.1,1.5-0.1v0c0-0.3-0.1-0.5-0.4-0.6c-0.2-0.1-0.6-0.2-1.1-0.2c-0.3,0-0.6,0.1-0.9,0.2     c-0.3,0.1-0.6,0.2-0.7,0.2h-0.2l0-1.3c0.2,0,0.5-0.1,0.9-0.2c0.4-0.1,0.8-0.1,1.3-0.1c1,0,1.7,0.2,2.2,0.5s0.7,0.8,0.7,1.4l0,3.7     l-1.7,0V30.9z M121.1,30l0-1.1c-0.2,0-0.5,0-0.8,0.1c-0.3,0-0.5,0.1-0.6,0.1c-0.2,0.1-0.3,0.1-0.4,0.2s-0.1,0.2-0.1,0.4     c0,0.1,0,0.2,0,0.3c0,0.1,0.1,0.1,0.1,0.2c0.1,0.1,0.2,0.1,0.3,0.1c0.1,0,0.3,0,0.5,0c0.2,0,0.4,0,0.5-0.1S121,30.1,121.1,30z"/>
			<path style="fill:#1A171B;" d="M133.2,31.4l-1.8,0l0-0.6c-0.3,0.2-0.6,0.4-0.8,0.5c-0.3,0.1-0.6,0.2-0.9,0.2     c-0.7,0-1.2-0.3-1.6-0.8c-0.4-0.5-0.6-1.2-0.6-2.1c0-0.5,0.1-0.9,0.2-1.2c0.1-0.4,0.3-0.7,0.6-0.9c0.2-0.2,0.5-0.4,0.8-0.6     c0.3-0.1,0.6-0.2,0.9-0.2c0.3,0,0.6,0,0.8,0.1c0.2,0.1,0.4,0.2,0.6,0.3l0-2.3l1.8,0L133.2,31.4z M131.4,29.9l0-2.7     c-0.1-0.1-0.3-0.1-0.4-0.1s-0.3,0-0.4,0c-0.5,0-0.8,0.1-1,0.4s-0.3,0.7-0.3,1.2c0,0.5,0.1,0.9,0.3,1.2c0.2,0.2,0.5,0.4,0.9,0.4     c0.2,0,0.3,0,0.5-0.1C131.1,30.1,131.3,30,131.4,29.9z"/>
			<path style="fill:#1A171B;" d="M140.3,29l-4,0c0,0.4,0.2,0.8,0.5,1c0.3,0.2,0.7,0.3,1.3,0.3c0.4,0,0.7-0.1,1.1-0.2     c0.3-0.1,0.6-0.3,0.8-0.4h0.2l0,1.4c-0.4,0.2-0.8,0.3-1.1,0.3c-0.4,0.1-0.7,0.1-1.2,0.1c-1.1,0-1.9-0.2-2.5-0.7     c-0.6-0.5-0.9-1.2-0.9-2.1c0-0.9,0.3-1.6,0.8-2.2s1.3-0.8,2.3-0.8c0.9,0,1.6,0.2,2,0.7c0.4,0.5,0.7,1.1,0.7,1.9V29z M138.5,28     c0-0.4-0.1-0.6-0.3-0.8c-0.2-0.2-0.4-0.3-0.8-0.3c-0.3,0-0.6,0.1-0.8,0.3c-0.2,0.2-0.3,0.5-0.4,0.8L138.5,28z"/>
			<path style="fill:#1A171B;" d="M151,26.5c0,0.3-0.1,0.6-0.2,1c-0.1,0.3-0.3,0.6-0.5,0.8c-0.3,0.3-0.6,0.5-1,0.6     c-0.4,0.1-0.8,0.2-1.3,0.2l-1.2,0l0,2.4l-1.9,0l0-7.3l3.1,0c0.5,0,0.9,0,1.2,0.1s0.6,0.2,0.8,0.4c0.3,0.2,0.5,0.4,0.7,0.7     C150.9,25.7,151,26.1,151,26.5z M149.1,26.5c0-0.2-0.1-0.4-0.2-0.5s-0.2-0.3-0.4-0.3c-0.2-0.1-0.4-0.1-0.6-0.1s-0.4,0-0.7,0h-0.3     l0,2.2l0.5,0c0.3,0,0.6,0,0.8-0.1c0.2,0,0.4-0.1,0.5-0.2c0.1-0.1,0.2-0.2,0.3-0.4S149.1,26.7,149.1,26.5z"/>
			<path style="fill:#1A171B;" d="M157.9,28.7c0,0.9-0.3,1.6-0.8,2.1c-0.5,0.5-1.3,0.8-2.2,0.8c-1,0-1.7-0.3-2.2-0.8     s-0.8-1.2-0.8-2.1c0-0.9,0.3-1.6,0.8-2.1c0.5-0.5,1.3-0.8,2.2-0.8c1,0,1.7,0.3,2.2,0.8C157.6,27.1,157.9,27.8,157.9,28.7z      M155.7,30c0.1-0.1,0.2-0.3,0.3-0.5c0.1-0.2,0.1-0.5,0.1-0.8c0-0.3,0-0.6-0.1-0.8c-0.1-0.2-0.1-0.4-0.2-0.5     c-0.1-0.1-0.2-0.2-0.4-0.3c-0.1-0.1-0.3-0.1-0.5-0.1c-0.2,0-0.3,0-0.5,0.1s-0.3,0.1-0.4,0.3c-0.1,0.1-0.2,0.3-0.3,0.5     c-0.1,0.2-0.1,0.5-0.1,0.8c0,0.3,0,0.6,0.1,0.8c0.1,0.2,0.1,0.4,0.2,0.5c0.1,0.1,0.2,0.2,0.4,0.3c0.1,0.1,0.3,0.1,0.5,0.1     c0.2,0,0.3,0,0.5-0.1C155.5,30.3,155.6,30.2,155.7,30z"/>
			<path style="fill:#1A171B;" d="M164.6,31.5l-1.8,0l0-2.7c0-0.2,0-0.4,0-0.7s-0.1-0.4-0.1-0.5c-0.1-0.1-0.2-0.2-0.3-0.3     c-0.1-0.1-0.3-0.1-0.5-0.1c-0.2,0-0.3,0-0.5,0.1c-0.2,0.1-0.3,0.1-0.5,0.2l0,3.9l-1.8,0l0-5.5l1.8,0v0.6c0.3-0.2,0.6-0.4,0.9-0.6     s0.6-0.2,1-0.2c0.6,0,1.1,0.2,1.4,0.5s0.5,0.9,0.5,1.5L164.6,31.5z"/>
			<path style="fill:#1A171B;" d="M169.7,31.4c-0.2,0-0.4,0.1-0.6,0.1s-0.5,0-0.8,0c-0.7,0-1.2-0.1-1.5-0.4     c-0.3-0.3-0.5-0.8-0.5-1.4l0-2.6h-0.7l0-1.2h0.7l0-1.6l1.8,0l0,1.6l1.6,0l0,1.2l-1.6,0l0,1.9c0,0.2,0,0.4,0,0.5     c0,0.1,0,0.3,0.1,0.4c0,0.1,0.1,0.2,0.2,0.3s0.3,0.1,0.5,0.1c0.1,0,0.2,0,0.4-0.1c0.1,0,0.3-0.1,0.3-0.1h0.1L169.7,31.4z"/>
			<path style="fill:#1A171B;" d="M176.2,29l-4,0c0,0.4,0.2,0.8,0.5,1c0.3,0.2,0.7,0.3,1.3,0.3c0.4,0,0.7-0.1,1.1-0.2     c0.3-0.1,0.6-0.3,0.8-0.4h0.2l0,1.4c-0.4,0.2-0.8,0.3-1.1,0.3c-0.4,0.1-0.7,0.1-1.2,0.1c-1.1,0-1.9-0.2-2.5-0.7     c-0.6-0.5-0.9-1.2-0.9-2.1c0-0.9,0.3-1.6,0.8-2.2c0.6-0.5,1.3-0.8,2.3-0.8c0.9,0,1.6,0.2,2,0.7c0.4,0.5,0.7,1.1,0.7,1.9L176.2,29     z M174.4,28c0-0.4-0.1-0.6-0.3-0.8c-0.2-0.2-0.4-0.3-0.8-0.3c-0.3,0-0.6,0.1-0.8,0.3c-0.2,0.2-0.3,0.5-0.4,0.8L174.4,28z"/>
			<path style="fill:#1A171B;" d="M183,26l-2.1,5.5l-2,0l-2.1-5.5l1.9,0l1.3,3.8l1.3-3.8L183,26z"/>
			<path style="fill:#1A171B;" d="M189.3,29l-4,0c0,0.4,0.2,0.8,0.5,1s0.7,0.3,1.3,0.3c0.4,0,0.7-0.1,1.1-0.2s0.6-0.3,0.8-0.4h0.2     l0,1.4c-0.4,0.2-0.8,0.3-1.1,0.3c-0.4,0.1-0.7,0.1-1.2,0.1c-1.1,0-1.9-0.2-2.5-0.7c-0.6-0.5-0.9-1.2-0.9-2.1     c0-0.9,0.3-1.6,0.8-2.2s1.3-0.8,2.3-0.8c0.9,0,1.6,0.2,2,0.7s0.7,1.1,0.7,1.9V29z M187.6,28c0-0.4-0.1-0.6-0.3-0.8     c-0.2-0.2-0.4-0.3-0.8-0.3c-0.3,0-0.6,0.1-0.8,0.3c-0.2,0.2-0.3,0.5-0.4,0.8L187.6,28z"/>
			<path style="fill:#1A171B;" d="M195.9,31.5l-1.8,0v-0.6c-0.3,0.2-0.6,0.4-0.8,0.5c-0.3,0.1-0.6,0.2-0.9,0.2     c-0.7,0-1.2-0.3-1.6-0.8c-0.4-0.5-0.6-1.2-0.6-2.1c0-0.5,0.1-0.9,0.2-1.2c0.1-0.4,0.3-0.7,0.6-0.9c0.2-0.2,0.5-0.4,0.8-0.6     c0.3-0.1,0.6-0.2,0.9-0.2c0.3,0,0.6,0,0.8,0.1c0.2,0.1,0.4,0.2,0.6,0.3l0-2.3l1.8,0L195.9,31.5z M194.1,30l0-2.7     c-0.1-0.1-0.3-0.1-0.4-0.1c-0.1,0-0.3,0-0.4,0c-0.5,0-0.8,0.1-1,0.4s-0.3,0.7-0.3,1.2c0,0.5,0.1,0.9,0.3,1.2     c0.2,0.2,0.5,0.4,0.9,0.4c0.2,0,0.3,0,0.5-0.1C193.9,30.1,194,30.1,194.1,30z"/>
			<path style="fill:#1A171B;" d="M201.5,27.7h-0.2c-0.1,0-0.2,0-0.4-0.1c-0.2,0-0.3,0-0.4,0c-0.3,0-0.5,0-0.7,0     c-0.2,0-0.4,0.1-0.6,0.2l0,3.7l-1.8,0l0-5.5l1.8,0l0,0.8c0.4-0.3,0.7-0.6,1-0.7c0.3-0.1,0.5-0.2,0.8-0.2c0.1,0,0.1,0,0.2,0     c0.1,0,0.1,0,0.2,0L201.5,27.7z"/>
			<path style="fill:#1A171B;" d="M205.9,30.9c-0.1,0.1-0.2,0.2-0.4,0.3c-0.1,0.1-0.3,0.2-0.4,0.2c-0.2,0.1-0.4,0.1-0.5,0.2     c-0.2,0-0.4,0.1-0.6,0.1c-0.5,0-1-0.2-1.3-0.5c-0.4-0.3-0.5-0.7-0.5-1.2c0-0.4,0.1-0.7,0.3-1c0.2-0.3,0.4-0.5,0.8-0.6     c0.3-0.1,0.7-0.3,1.2-0.3c0.5-0.1,1-0.1,1.5-0.1v0c0-0.3-0.1-0.5-0.4-0.6c-0.2-0.1-0.6-0.2-1.1-0.2c-0.3,0-0.6,0.1-0.9,0.2     c-0.3,0.1-0.6,0.2-0.7,0.2h-0.2l0-1.3c0.2,0,0.5-0.1,0.9-0.2c0.4-0.1,0.8-0.1,1.3-0.1c1,0,1.7,0.2,2.2,0.5s0.7,0.8,0.7,1.4l0,3.7     l-1.7,0L205.9,30.9z M205.9,30l0-1.1c-0.2,0-0.5,0-0.8,0.1c-0.3,0-0.5,0.1-0.6,0.1c-0.2,0.1-0.3,0.1-0.4,0.2s-0.1,0.2-0.1,0.4     c0,0.1,0,0.2,0,0.3c0,0.1,0.1,0.1,0.1,0.2c0.1,0.1,0.2,0.1,0.3,0.1c0.1,0,0.3,0,0.5,0c0.2,0,0.4,0,0.5-0.1S205.7,30.1,205.9,30z"/>
		</g>
	</g>
	<g>
		<g>
			<path style="fill:#1A171B;" d="M17.3,164.4l-1.9,0l-0.5-1.5l-2.7,0l-0.5,1.5l-1.9,0l2.7-7.3l2.2,0L17.3,164.4z M15.2,154.4     L15.2,154.4l-1.7,1.9l-1.2,0l1.2-1.9L15.2,154.4z M14.4,161.6l-0.9-2.6l-0.9,2.6L14.4,161.6z"/>
			<path style="fill:#1A171B;" d="M22.3,160.6l-0.2,0c-0.1,0-0.2,0-0.4-0.1c-0.2,0-0.3,0-0.4,0c-0.3,0-0.5,0-0.7,0     c-0.2,0-0.4,0.1-0.6,0.2l0,3.7l-1.8,0l0-5.5l1.8,0v0.8c0.4-0.3,0.7-0.6,1-0.7c0.3-0.1,0.5-0.2,0.8-0.2c0.1,0,0.1,0,0.2,0     c0.1,0,0.1,0,0.2,0L22.3,160.6z"/>
			<path style="fill:#1A171B;" d="M28.6,162l-4,0c0,0.4,0.2,0.8,0.5,1s0.7,0.3,1.3,0.3c0.4,0,0.7-0.1,1.1-0.2     c0.3-0.1,0.6-0.3,0.8-0.4h0.2l0,1.4c-0.4,0.2-0.8,0.3-1.1,0.3c-0.4,0.1-0.7,0.1-1.2,0.1c-1.1,0-1.9-0.2-2.5-0.7     c-0.6-0.5-0.9-1.2-0.9-2.1c0-0.9,0.3-1.6,0.8-2.2c0.6-0.5,1.3-0.8,2.3-0.8c0.9,0,1.6,0.2,2,0.7c0.4,0.5,0.7,1.1,0.7,1.9L28.6,162     z M26.9,160.9c0-0.4-0.1-0.6-0.3-0.8c-0.2-0.2-0.4-0.3-0.8-0.3c-0.3,0-0.6,0.1-0.8,0.3c-0.2,0.2-0.3,0.5-0.4,0.8L26.9,160.9z"/>
			<path style="fill:#1A171B;" d="M33.2,163.8c-0.1,0.1-0.2,0.2-0.4,0.3c-0.1,0.1-0.3,0.2-0.4,0.2c-0.2,0.1-0.4,0.1-0.5,0.2     s-0.4,0.1-0.6,0.1c-0.5,0-1-0.2-1.3-0.5c-0.4-0.3-0.5-0.7-0.5-1.2c0-0.4,0.1-0.7,0.3-1s0.4-0.5,0.8-0.6c0.3-0.1,0.7-0.3,1.2-0.3     s1-0.1,1.5-0.1v0c0-0.3-0.1-0.5-0.4-0.6c-0.2-0.1-0.6-0.2-1.1-0.2c-0.3,0-0.6,0.1-0.9,0.2c-0.3,0.1-0.6,0.2-0.7,0.2H30l0-1.3     c0.2,0,0.5-0.1,0.9-0.2c0.4-0.1,0.8-0.1,1.3-0.1c1,0,1.7,0.2,2.2,0.5s0.7,0.8,0.7,1.4l0,3.7l-1.7,0L33.2,163.8z M33.2,163l0-1.1     c-0.2,0-0.5,0-0.8,0.1c-0.3,0-0.5,0.1-0.6,0.1c-0.2,0.1-0.3,0.1-0.4,0.2s-0.1,0.2-0.1,0.4c0,0.1,0,0.2,0,0.3     c0,0.1,0.1,0.1,0.1,0.2c0.1,0.1,0.2,0.1,0.3,0.1s0.3,0,0.5,0c0.2,0,0.4,0,0.5-0.1C32.9,163.2,33.1,163.1,33.2,163z"/>
			<path style="fill:#1A171B;" d="M45.3,164.4l-1.8,0l0-0.6c-0.3,0.2-0.6,0.4-0.8,0.5c-0.3,0.1-0.6,0.2-0.9,0.2     c-0.7,0-1.2-0.3-1.6-0.8c-0.4-0.5-0.6-1.2-0.6-2.1c0-0.5,0.1-0.9,0.2-1.2s0.3-0.7,0.6-0.9c0.2-0.2,0.5-0.4,0.8-0.6     c0.3-0.1,0.6-0.2,0.9-0.2c0.3,0,0.6,0,0.8,0.1c0.2,0.1,0.4,0.2,0.6,0.3l0-2.3l1.8,0L45.3,164.4z M43.6,162.9l0-2.7     c-0.1-0.1-0.3-0.1-0.4-0.1s-0.3,0-0.4,0c-0.5,0-0.8,0.1-1,0.4c-0.2,0.3-0.3,0.7-0.3,1.2c0,0.5,0.1,0.9,0.3,1.2     c0.2,0.2,0.5,0.4,0.9,0.4c0.2,0,0.3,0,0.5-0.1C43.3,163.1,43.4,163,43.6,162.9z"/>
			<path style="fill:#1A171B;" d="M52.4,162l-4,0c0,0.4,0.2,0.8,0.5,1s0.7,0.3,1.3,0.3c0.4,0,0.7-0.1,1.1-0.2     c0.3-0.1,0.6-0.3,0.8-0.4h0.2l0,1.4c-0.4,0.2-0.8,0.3-1.1,0.3s-0.7,0.1-1.2,0.1c-1.1,0-1.9-0.2-2.5-0.7c-0.6-0.5-0.9-1.2-0.9-2.1     c0-0.9,0.3-1.6,0.8-2.2s1.3-0.8,2.3-0.8c0.9,0,1.6,0.2,2,0.7s0.7,1.1,0.7,1.9L52.4,162z M50.6,161c0-0.4-0.1-0.6-0.3-0.8     c-0.2-0.2-0.4-0.3-0.8-0.3c-0.3,0-0.6,0.1-0.8,0.3c-0.2,0.2-0.3,0.5-0.4,0.8L50.6,161z"/>
			<path style="fill:#1A171B;" d="M63.7,157.1l-2.6,7.3l-2.1,0l-2.7-7.3l2,0l1.8,5.1l1.8-5.1L63.7,157.1z"/>
			<path style="fill:#1A171B;" d="M66.5,158.1l-1.9,0l0-1.3l1.9,0L66.5,158.1z M66.4,164.4l-1.8,0l0-5.5l1.8,0L66.4,164.4z"/>
			<path style="fill:#1A171B;" d="M73.4,163.8c0,0.5-0.1,0.9-0.2,1.3c-0.1,0.4-0.4,0.6-0.6,0.8c-0.3,0.2-0.6,0.3-1,0.4     c-0.4,0.1-0.8,0.1-1.3,0.1c-0.4,0-0.8,0-1.1-0.1s-0.7-0.1-1-0.2l0-1.4l0.2,0c0.2,0.1,0.5,0.2,0.8,0.2s0.6,0.1,0.8,0.1     c0.3,0,0.6,0,0.8-0.1c0.2-0.1,0.4-0.1,0.5-0.3c0.1-0.1,0.2-0.2,0.2-0.4s0.1-0.4,0.1-0.6v-0.1c-0.2,0.2-0.4,0.3-0.7,0.4     c-0.3,0.1-0.5,0.2-0.9,0.2c-0.8,0-1.4-0.2-1.8-0.7c-0.4-0.5-0.6-1.2-0.6-2.1c0-0.5,0.1-0.8,0.2-1.2c0.1-0.3,0.3-0.6,0.5-0.9     c0.2-0.2,0.5-0.4,0.8-0.5s0.6-0.2,1-0.2c0.3,0,0.6,0,0.8,0.1c0.2,0.1,0.5,0.2,0.7,0.3l0.1-0.2l1.7,0L73.4,163.8z M71.7,162.7     l0-2.5c-0.1,0-0.2-0.1-0.4-0.1s-0.3,0-0.4,0c-0.5,0-0.8,0.1-1,0.4c-0.2,0.3-0.3,0.6-0.3,1.1c0,0.5,0.1,0.9,0.3,1.1     c0.2,0.2,0.5,0.3,0.9,0.3c0.2,0,0.3,0,0.5-0.1C71.4,162.8,71.5,162.8,71.7,162.7z"/>
			<path style="fill:#1A171B;" d="M80.7,161.7c0,0.9-0.3,1.6-0.8,2.1c-0.5,0.5-1.3,0.8-2.2,0.8c-1,0-1.7-0.3-2.2-0.8     c-0.5-0.5-0.8-1.2-0.8-2.1c0-0.9,0.3-1.6,0.8-2.1s1.3-0.8,2.2-0.8c1,0,1.7,0.3,2.2,0.8C80.4,160.1,80.7,160.8,80.7,161.7z      M78.5,163c0.1-0.1,0.2-0.3,0.3-0.5c0.1-0.2,0.1-0.5,0.1-0.8c0-0.3,0-0.6-0.1-0.8c-0.1-0.2-0.1-0.4-0.2-0.5     c-0.1-0.1-0.2-0.2-0.4-0.3s-0.3-0.1-0.5-0.1s-0.3,0-0.5,0.1s-0.3,0.1-0.4,0.3c-0.1,0.1-0.2,0.3-0.3,0.5s-0.1,0.5-0.1,0.8     c0,0.3,0,0.6,0.1,0.8s0.1,0.4,0.2,0.5c0.1,0.1,0.2,0.2,0.4,0.3s0.3,0.1,0.5,0.1c0.2,0,0.3,0,0.5-0.1S78.4,163.1,78.5,163z"/>
		</g>
	</g>
	<g>
		<g>
			<path style="fill:#1A171B;" d="M12.9,372.4H11v-4.9l-1.3,3.2H8.4L7,367.6v4.9H5.3v-7.3h2.2l1.6,3.6l1.6-3.6h2.2V372.4z"/>
			<path style="fill:#1A171B;" d="M16.5,366.2h-1.9v-1.3h1.9V366.2z M16.4,372.4h-1.8V367h1.8V372.4z"/>
			<path style="fill:#1A171B;" d="M23.6,372.4h-1.8v-2.7c0-0.2,0-0.4,0-0.7s-0.1-0.4-0.1-0.5c-0.1-0.1-0.2-0.2-0.3-0.3     c-0.1-0.1-0.3-0.1-0.5-0.1c-0.2,0-0.3,0-0.5,0.1c-0.2,0.1-0.3,0.1-0.5,0.3v3.9h-1.8V367h1.8v0.6c0.3-0.2,0.6-0.4,0.9-0.6     c0.3-0.1,0.6-0.2,1-0.2c0.6,0,1.1,0.2,1.4,0.5c0.3,0.3,0.5,0.9,0.5,1.5V372.4z M23,364.5c0,0.5-0.2,1-0.4,1.2     c-0.2,0.3-0.6,0.4-1,0.4c-0.2,0-0.3,0-0.4-0.1c-0.1-0.1-0.3-0.1-0.4-0.2c-0.1-0.1-0.2-0.1-0.3-0.2s-0.2-0.1-0.3-0.1     c-0.2,0-0.3,0.1-0.3,0.2c-0.1,0.1-0.1,0.3-0.1,0.4h-1.1c0-0.5,0.2-0.9,0.4-1.2s0.6-0.4,1-0.4c0.2,0,0.3,0,0.4,0.1     s0.3,0.1,0.4,0.2c0.1,0.1,0.2,0.1,0.3,0.2s0.2,0.1,0.3,0.1c0.2,0,0.3-0.1,0.3-0.2c0.1-0.1,0.1-0.2,0.1-0.4H23z"/>
			<path style="fill:#1A171B;" d="M30.8,369.7c0,0.9-0.3,1.6-0.8,2.1c-0.5,0.5-1.3,0.8-2.2,0.8s-1.7-0.3-2.2-0.8s-0.8-1.2-0.8-2.1     c0-0.9,0.3-1.6,0.8-2.1s1.3-0.8,2.2-0.8c1,0,1.7,0.3,2.2,0.8C30.5,368.1,30.8,368.8,30.8,369.7z M28.6,371     c0.1-0.1,0.2-0.3,0.3-0.5s0.1-0.5,0.1-0.8c0-0.3,0-0.6-0.1-0.8c-0.1-0.2-0.1-0.4-0.2-0.5c-0.1-0.1-0.2-0.2-0.4-0.3     c-0.1-0.1-0.3-0.1-0.5-0.1s-0.3,0-0.5,0.1c-0.1,0-0.3,0.1-0.4,0.3c-0.1,0.1-0.2,0.3-0.3,0.5c-0.1,0.2-0.1,0.5-0.1,0.8     c0,0.3,0,0.6,0.1,0.8s0.1,0.4,0.2,0.5c0.1,0.1,0.2,0.2,0.4,0.3s0.3,0.1,0.5,0.1c0.2,0,0.3,0,0.5-0.1S28.5,371.2,28.6,371z"/>
			<path style="fill:#1A171B;" d="M41.8,370.2c0,0.4-0.1,0.7-0.2,0.9c-0.1,0.3-0.3,0.5-0.6,0.7c-0.3,0.2-0.6,0.4-0.9,0.5     c-0.3,0.1-0.8,0.1-1.3,0.1h-3.2v-7.3h2.8c0.6,0,1,0,1.3,0.1c0.3,0,0.5,0.1,0.8,0.3c0.3,0.1,0.5,0.3,0.6,0.6     c0.1,0.2,0.2,0.5,0.2,0.8c0,0.4-0.1,0.7-0.3,0.9s-0.4,0.5-0.8,0.6v0c0.5,0.1,0.9,0.3,1.1,0.6C41.7,369.3,41.8,369.7,41.8,370.2z      M39.4,367.2c0-0.1,0-0.2-0.1-0.4c-0.1-0.1-0.2-0.2-0.3-0.3c-0.1-0.1-0.3-0.1-0.5-0.1s-0.5,0-0.9,0h-0.2v1.5h0.3     c0.3,0,0.5,0,0.8,0s0.4,0,0.5-0.1c0.2-0.1,0.3-0.2,0.3-0.3S39.4,367.4,39.4,367.2z M39.9,370.2c0-0.2,0-0.4-0.1-0.5     s-0.2-0.2-0.5-0.3c-0.1,0-0.3-0.1-0.6-0.1c-0.3,0-0.5,0-0.8,0h-0.4v1.8h0.1c0.5,0,0.9,0,1.1,0c0.2,0,0.4,0,0.6-0.1     c0.2-0.1,0.3-0.2,0.4-0.3C39.8,370.5,39.9,370.4,39.9,370.2z"/>
			<path style="fill:#1A171B;" d="M46.4,371.9c-0.1,0.1-0.2,0.2-0.4,0.3c-0.1,0.1-0.3,0.2-0.4,0.2c-0.2,0.1-0.4,0.1-0.5,0.2     s-0.4,0.1-0.6,0.1c-0.5,0-1-0.2-1.3-0.5s-0.5-0.7-0.5-1.2c0-0.4,0.1-0.7,0.3-1s0.4-0.5,0.8-0.6c0.3-0.1,0.7-0.3,1.2-0.3     c0.5-0.1,1-0.1,1.5-0.1v0c0-0.3-0.1-0.5-0.4-0.6S45.5,368,45,368c-0.3,0-0.6,0.1-0.9,0.2s-0.6,0.2-0.7,0.2h-0.2v-1.3     c0.2,0,0.5-0.1,0.9-0.2c0.4-0.1,0.8-0.1,1.3-0.1c1,0,1.7,0.2,2.2,0.5s0.7,0.8,0.7,1.4v3.7h-1.7V371.9z M46.4,371v-1.1     c-0.2,0-0.5,0-0.8,0.1c-0.3,0-0.5,0.1-0.6,0.1c-0.2,0.1-0.3,0.1-0.4,0.2s-0.1,0.2-0.1,0.4c0,0.1,0,0.2,0,0.3     c0,0.1,0.1,0.1,0.1,0.2c0.1,0.1,0.2,0.1,0.3,0.1s0.3,0,0.5,0c0.2,0,0.4,0,0.5-0.1C46.1,371.2,46.3,371.1,46.4,371z"/>
			<path style="fill:#1A171B;" d="M51.6,366.2h-1.9v-1.3h1.9V366.2z M51.5,372.4h-1.8V367h1.8V372.4z"/>
			<path style="fill:#1A171B;" d="M58.9,372.4h-2.1l-1.2-1.6l-1.2,1.6h-2l2.2-2.7l-2.1-2.7h2.1l1.2,1.6l1.2-1.6h2l-2.1,2.7     L58.9,372.4z"/>
			<path style="fill:#1A171B;" d="M65.5,369.7c0,0.9-0.3,1.6-0.8,2.1c-0.5,0.5-1.3,0.8-2.2,0.8s-1.7-0.3-2.2-0.8s-0.8-1.2-0.8-2.1     c0-0.9,0.3-1.6,0.8-2.1s1.3-0.8,2.2-0.8c1,0,1.7,0.3,2.2,0.8C65.2,368.1,65.5,368.8,65.5,369.7z M63.3,371     c0.1-0.1,0.2-0.3,0.3-0.5s0.1-0.5,0.1-0.8c0-0.3,0-0.6-0.1-0.8c-0.1-0.2-0.1-0.4-0.2-0.5c-0.1-0.1-0.2-0.2-0.4-0.3     c-0.1-0.1-0.3-0.1-0.5-0.1s-0.3,0-0.5,0.1c-0.1,0-0.3,0.1-0.4,0.3c-0.1,0.1-0.2,0.3-0.3,0.5c-0.1,0.2-0.1,0.5-0.1,0.8     c0,0.3,0,0.6,0.1,0.8s0.1,0.4,0.2,0.5c0.1,0.1,0.2,0.2,0.4,0.3s0.3,0.1,0.5,0.1c0.2,0,0.3,0,0.5-0.1S63.2,371.2,63.3,371z"/>
		</g>
	</g>
</g>
<g id="text-municipis">
	<g>
		<rect x="104.7" y="321" style="fill:none;" width="51.6" height="21"/>
		<path d="M110.9,329.4c0,0.3-0.1,0.6-0.2,0.8s-0.3,0.5-0.6,0.7c-0.3,0.2-0.6,0.4-0.9,0.5s-0.8,0.2-1.3,0.2c-0.5,0-1,0-1.4-0.1    s-0.8-0.2-1.3-0.4v-1.2h0.1c0.4,0.3,0.8,0.5,1.3,0.7s0.9,0.2,1.4,0.2c0.6,0,1.1-0.1,1.4-0.3c0.3-0.2,0.5-0.5,0.5-0.9    c0-0.3-0.1-0.6-0.2-0.7c-0.2-0.2-0.4-0.3-0.7-0.4c-0.2-0.1-0.5-0.1-0.8-0.2c-0.3,0-0.6-0.1-0.9-0.2c-0.6-0.1-1.1-0.4-1.4-0.7    c-0.3-0.3-0.5-0.8-0.5-1.3c0-0.6,0.3-1.1,0.8-1.5c0.5-0.4,1.2-0.6,2-0.6c0.5,0,1,0,1.4,0.1c0.4,0.1,0.8,0.2,1.1,0.4v1.1h-0.1    c-0.3-0.2-0.6-0.4-1.1-0.6c-0.5-0.2-0.9-0.2-1.4-0.2c-0.5,0-0.9,0.1-1.2,0.3s-0.5,0.5-0.5,0.8c0,0.3,0.1,0.5,0.2,0.7    s0.4,0.3,0.8,0.4c0.2,0,0.5,0.1,0.9,0.2c0.4,0.1,0.7,0.1,1,0.2c0.5,0.1,0.9,0.4,1.2,0.6S110.9,328.9,110.9,329.4z"/>
		<path d="M116.7,331.5h-0.9v-0.6c-0.1,0.1-0.2,0.1-0.3,0.2c-0.1,0.1-0.3,0.2-0.4,0.2c-0.2,0.1-0.3,0.1-0.5,0.2    c-0.2,0-0.4,0.1-0.7,0.1c-0.5,0-0.9-0.2-1.3-0.5s-0.5-0.7-0.5-1.2c0-0.4,0.1-0.7,0.3-1c0.2-0.3,0.4-0.5,0.8-0.6    c0.3-0.1,0.7-0.2,1.2-0.3c0.5-0.1,1-0.1,1.5-0.1v-0.1c0-0.2,0-0.4-0.1-0.5s-0.2-0.2-0.3-0.3c-0.1-0.1-0.3-0.1-0.5-0.2    c-0.2,0-0.4,0-0.6,0c-0.2,0-0.5,0-0.8,0.1c-0.3,0.1-0.6,0.2-0.9,0.3h0v-0.9c0.2,0,0.4-0.1,0.8-0.2c0.3-0.1,0.7-0.1,1-0.1    c0.4,0,0.7,0,1,0.1c0.3,0.1,0.5,0.2,0.7,0.3c0.2,0.1,0.4,0.3,0.5,0.6s0.2,0.5,0.2,0.9V331.5z M115.7,330.2v-1.5    c-0.3,0-0.6,0-1,0.1c-0.4,0-0.7,0.1-0.9,0.1c-0.3,0.1-0.5,0.2-0.6,0.3c-0.2,0.2-0.2,0.4-0.2,0.7c0,0.3,0.1,0.5,0.3,0.7    c0.2,0.2,0.5,0.2,0.9,0.2c0.3,0,0.6-0.1,0.9-0.2C115.3,330.5,115.5,330.4,115.7,330.2z"/>
		<path d="M119.4,331.5h-0.9v-7.6h0.9V331.5z"/>
		<path d="M125.9,326.1l-2.2,5.5h-0.9l-2.2-5.5h1l1.7,4.3l1.7-4.3H125.9z"/>
		<path d="M131.1,331.5h-0.9v-0.6c-0.1,0.1-0.2,0.1-0.3,0.2c-0.1,0.1-0.3,0.2-0.4,0.2c-0.2,0.1-0.3,0.1-0.5,0.2    c-0.2,0-0.4,0.1-0.7,0.1c-0.5,0-0.9-0.2-1.3-0.5s-0.5-0.7-0.5-1.2c0-0.4,0.1-0.7,0.3-1c0.2-0.3,0.4-0.5,0.8-0.6    c0.3-0.1,0.7-0.2,1.2-0.3c0.5-0.1,1-0.1,1.5-0.1v-0.1c0-0.2,0-0.4-0.1-0.5s-0.2-0.2-0.3-0.3c-0.1-0.1-0.3-0.1-0.5-0.2    c-0.2,0-0.4,0-0.6,0c-0.2,0-0.5,0-0.8,0.1c-0.3,0.1-0.6,0.2-0.9,0.3h0v-0.9c0.2,0,0.4-0.1,0.8-0.2c0.3-0.1,0.7-0.1,1-0.1    c0.4,0,0.7,0,1,0.1c0.3,0.1,0.5,0.2,0.7,0.3c0.2,0.1,0.4,0.3,0.5,0.6s0.2,0.5,0.2,0.9V331.5z M130.2,330.2v-1.5    c-0.3,0-0.6,0-1,0.1c-0.4,0-0.7,0.1-0.9,0.1c-0.3,0.1-0.5,0.2-0.6,0.3c-0.2,0.2-0.2,0.4-0.2,0.7c0,0.3,0.1,0.5,0.3,0.7    c0.2,0.2,0.5,0.2,0.9,0.2c0.3,0,0.6-0.1,0.9-0.2C129.7,330.5,130,330.4,130.2,330.2z"/>
		<path d="M135.7,331.5c-0.2,0-0.4,0.1-0.6,0.1c-0.2,0-0.4,0-0.5,0c-0.6,0-1-0.1-1.3-0.4c-0.3-0.3-0.4-0.8-0.4-1.4v-2.9h-0.6v-0.8    h0.6v-1.6h0.9v1.6h1.9v0.8h-1.9v2.5c0,0.3,0,0.5,0,0.7c0,0.2,0.1,0.3,0.1,0.5c0.1,0.1,0.2,0.2,0.3,0.3c0.1,0.1,0.3,0.1,0.6,0.1    c0.1,0,0.3,0,0.5-0.1c0.2,0,0.3-0.1,0.4-0.1h0V331.5z"/>
		<path d="M141.4,328.9h-4c0,0.3,0.1,0.6,0.2,0.9c0.1,0.3,0.2,0.5,0.4,0.6c0.2,0.2,0.4,0.3,0.6,0.4c0.2,0.1,0.5,0.1,0.8,0.1    c0.4,0,0.7-0.1,1.1-0.2c0.4-0.1,0.6-0.3,0.8-0.4h0v1c-0.3,0.1-0.6,0.2-0.9,0.3s-0.7,0.1-1,0.1c-0.9,0-1.6-0.2-2.1-0.7    c-0.5-0.5-0.8-1.2-0.8-2.1c0-0.9,0.2-1.6,0.7-2.1c0.5-0.5,1.1-0.8,1.9-0.8c0.7,0,1.3,0.2,1.7,0.6c0.4,0.4,0.6,1,0.6,1.8V328.9z     M140.5,328.2c0-0.5-0.1-0.9-0.4-1.1s-0.6-0.4-1.1-0.4c-0.5,0-0.9,0.1-1.2,0.4c-0.3,0.3-0.5,0.6-0.5,1.1H140.5z"/>
		<path d="M146.2,327.1L146.2,327.1c-0.2,0-0.3-0.1-0.4-0.1c-0.1,0-0.3,0-0.5,0c-0.3,0-0.6,0.1-0.8,0.2c-0.3,0.1-0.5,0.3-0.8,0.5    v3.9h-0.9v-5.5h0.9v0.8c0.4-0.3,0.7-0.5,1-0.6c0.3-0.1,0.6-0.2,0.9-0.2c0.2,0,0.3,0,0.3,0c0.1,0,0.2,0,0.3,0V327.1z"/>
		<path d="M150.5,327.1L150.5,327.1c-0.2,0-0.3-0.1-0.4-0.1c-0.1,0-0.3,0-0.5,0c-0.3,0-0.6,0.1-0.8,0.2c-0.3,0.1-0.5,0.3-0.8,0.5    v3.9h-0.9v-5.5h0.9v0.8c0.4-0.3,0.7-0.5,1-0.6c0.3-0.1,0.6-0.2,0.9-0.2c0.2,0,0.3,0,0.3,0c0.1,0,0.2,0,0.3,0V327.1z"/>
		<path d="M155.4,331.5h-0.9v-0.6c-0.1,0.1-0.2,0.1-0.3,0.2c-0.1,0.1-0.3,0.2-0.4,0.2c-0.2,0.1-0.3,0.1-0.5,0.2    c-0.2,0-0.4,0.1-0.7,0.1c-0.5,0-0.9-0.2-1.3-0.5s-0.5-0.7-0.5-1.2c0-0.4,0.1-0.7,0.3-1c0.2-0.3,0.4-0.5,0.8-0.6    c0.3-0.1,0.7-0.2,1.2-0.3c0.5-0.1,1-0.1,1.5-0.1v-0.1c0-0.2,0-0.4-0.1-0.5s-0.2-0.2-0.3-0.3c-0.1-0.1-0.3-0.1-0.5-0.2    c-0.2,0-0.4,0-0.6,0c-0.2,0-0.5,0-0.8,0.1c-0.3,0.1-0.6,0.2-0.9,0.3h0v-0.9c0.2,0,0.4-0.1,0.8-0.2c0.3-0.1,0.7-0.1,1-0.1    c0.4,0,0.7,0,1,0.1c0.3,0.1,0.5,0.2,0.7,0.3c0.2,0.1,0.4,0.3,0.5,0.6s0.2,0.5,0.2,0.9V331.5z M154.5,330.2v-1.5    c-0.3,0-0.6,0-1,0.1c-0.4,0-0.7,0.1-0.9,0.1c-0.3,0.1-0.5,0.2-0.6,0.3c-0.2,0.2-0.2,0.4-0.2,0.7c0,0.3,0.1,0.5,0.3,0.7    c0.2,0.2,0.5,0.2,0.9,0.2c0.3,0,0.6-0.1,0.9-0.2C154,330.5,154.2,330.4,154.5,330.2z"/>
		<path d="M116.2,341.5h-0.9v-0.6c-0.3,0.2-0.5,0.4-0.8,0.5c-0.3,0.1-0.6,0.2-0.9,0.2c-0.7,0-1.2-0.3-1.6-0.8    c-0.4-0.5-0.6-1.2-0.6-2.1c0-0.5,0.1-0.9,0.2-1.2s0.3-0.7,0.5-0.9c0.2-0.2,0.5-0.4,0.8-0.6c0.3-0.1,0.6-0.2,0.9-0.2    c0.3,0,0.5,0,0.8,0.1c0.2,0.1,0.5,0.2,0.7,0.3v-2.4h0.9V341.5z M115.3,340.2V337c-0.2-0.1-0.5-0.2-0.7-0.2s-0.4-0.1-0.6-0.1    c-0.5,0-0.9,0.2-1.2,0.5c-0.3,0.4-0.4,0.9-0.4,1.5c0,0.6,0.1,1.1,0.3,1.5c0.2,0.3,0.6,0.5,1.1,0.5c0.3,0,0.5-0.1,0.8-0.2    C114.8,340.5,115,340.4,115.3,340.2z"/>
		<path d="M122.5,338.9h-4c0,0.3,0.1,0.6,0.2,0.9c0.1,0.3,0.2,0.5,0.4,0.6c0.2,0.2,0.4,0.3,0.6,0.4c0.2,0.1,0.5,0.1,0.8,0.1    c0.4,0,0.7-0.1,1.1-0.2c0.4-0.1,0.6-0.3,0.8-0.4h0v1c-0.3,0.1-0.6,0.2-0.9,0.3s-0.7,0.1-1,0.1c-0.9,0-1.6-0.2-2.1-0.7    c-0.5-0.5-0.8-1.2-0.8-2.1c0-0.9,0.2-1.6,0.7-2.1c0.5-0.5,1.1-0.8,1.9-0.8c0.7,0,1.3,0.2,1.7,0.6c0.4,0.4,0.6,1,0.6,1.8V338.9z     M121.7,338.2c0-0.5-0.1-0.9-0.4-1.1s-0.6-0.4-1.1-0.4c-0.5,0-0.9,0.1-1.2,0.4c-0.3,0.3-0.5,0.6-0.5,1.1H121.7z"/>
		<path d="M134,341.5h-1v-6.3l-2,4.3h-0.6l-2-4.3v6.3h-0.9v-7.3h1.3l1.9,4l1.9-4h1.3V341.5z"/>
		<path d="M136.9,335.2h-1v-1h1V335.2z M136.8,341.5h-0.9v-5.5h0.9V341.5z"/>
		<path d="M143.2,341.5h-0.9v-3.1c0-0.3,0-0.5,0-0.7c0-0.2-0.1-0.4-0.2-0.5c-0.1-0.1-0.2-0.2-0.4-0.3c-0.2-0.1-0.4-0.1-0.6-0.1    c-0.3,0-0.5,0.1-0.8,0.2s-0.5,0.3-0.8,0.5v4.1h-0.9v-5.5h0.9v0.6c0.3-0.2,0.6-0.4,0.9-0.6c0.3-0.1,0.6-0.2,0.9-0.2    c0.6,0,1,0.2,1.3,0.5c0.3,0.4,0.5,0.9,0.5,1.5V341.5z M143,333.6c0,0.5-0.2,0.9-0.4,1.1s-0.5,0.4-0.9,0.4c-0.2,0-0.3,0-0.5-0.1    c-0.1-0.1-0.3-0.2-0.4-0.3c-0.2-0.1-0.3-0.2-0.4-0.3c-0.1-0.1-0.2-0.1-0.3-0.1c-0.2,0-0.3,0.1-0.4,0.2c-0.1,0.1-0.1,0.3-0.1,0.6    h-0.6c0-0.5,0.2-0.9,0.4-1.1c0.2-0.3,0.5-0.4,0.8-0.4c0.2,0,0.3,0,0.5,0.1c0.2,0.1,0.3,0.2,0.4,0.3c0.2,0.1,0.3,0.2,0.4,0.3    c0.1,0.1,0.2,0.1,0.3,0.1c0.2,0,0.3-0.1,0.4-0.2s0.1-0.3,0.2-0.6H143z"/>
		<path d="M149.6,338.8c0,0.9-0.2,1.6-0.7,2.1c-0.5,0.5-1.1,0.8-1.8,0.8c-0.8,0-1.4-0.3-1.8-0.8s-0.7-1.2-0.7-2.1s0.2-1.6,0.7-2.1    c0.5-0.5,1.1-0.8,1.8-0.8c0.8,0,1.4,0.3,1.8,0.8C149.4,337.2,149.6,337.9,149.6,338.8z M148.7,338.8c0-0.7-0.1-1.2-0.4-1.6    c-0.3-0.3-0.7-0.5-1.2-0.5c-0.5,0-0.9,0.2-1.2,0.5c-0.3,0.3-0.4,0.9-0.4,1.6c0,0.7,0.1,1.2,0.4,1.6c0.3,0.4,0.7,0.5,1.2,0.5    c0.5,0,0.9-0.2,1.1-0.5C148.5,340,148.7,339.5,148.7,338.8z"/>
	</g>
	<g>
		<rect x="97.6" y="188.1" style="fill:none;" width="49.8" height="21"/>
		<path d="M105,198.6h-1v-6.3l-2,4.3h-0.6l-2-4.3v6.3h-0.9v-7.3h1.3l1.9,4l1.9-4h1.3V198.6z"/>
		<path d="M111.5,195.9c0,0.9-0.2,1.6-0.7,2.1c-0.5,0.5-1.1,0.8-1.8,0.8c-0.8,0-1.4-0.3-1.8-0.8c-0.5-0.5-0.7-1.2-0.7-2.1    s0.2-1.6,0.7-2.1c0.5-0.5,1.1-0.8,1.8-0.8c0.8,0,1.4,0.3,1.8,0.8C111.3,194.3,111.5,195,111.5,195.9z M110.6,195.9    c0-0.7-0.1-1.2-0.4-1.6s-0.7-0.5-1.2-0.5c-0.5,0-0.9,0.2-1.2,0.5s-0.4,0.9-0.4,1.6c0,0.7,0.1,1.2,0.4,1.6s0.7,0.5,1.2,0.5    c0.5,0,0.9-0.2,1.1-0.5C110.5,197.1,110.6,196.6,110.6,195.9z"/>
		<path d="M117.5,198.6h-0.9v-3.1c0-0.3,0-0.5,0-0.7s-0.1-0.4-0.2-0.5c-0.1-0.1-0.2-0.2-0.4-0.3s-0.4-0.1-0.6-0.1    c-0.3,0-0.5,0.1-0.8,0.2s-0.5,0.3-0.8,0.5v4.1H113v-5.5h0.9v0.6c0.3-0.2,0.6-0.4,0.9-0.6s0.6-0.2,0.9-0.2c0.6,0,1,0.2,1.3,0.5    s0.5,0.9,0.5,1.5V198.6z"/>
		<path d="M123.7,198.6h-0.9v-0.6c-0.3,0.2-0.5,0.4-0.8,0.5c-0.3,0.1-0.6,0.2-0.9,0.2c-0.7,0-1.2-0.3-1.5-0.8s-0.6-1.2-0.6-2.1    c0-0.5,0.1-0.9,0.2-1.2s0.3-0.7,0.5-0.9c0.2-0.2,0.5-0.4,0.8-0.6s0.6-0.2,0.9-0.2c0.3,0,0.5,0,0.8,0.1s0.5,0.2,0.7,0.3V191h0.9    V198.6z M122.8,197.3v-3.1c-0.2-0.1-0.5-0.2-0.7-0.2s-0.4-0.1-0.6-0.1c-0.5,0-0.9,0.2-1.2,0.5c-0.3,0.4-0.4,0.9-0.4,1.5    c0,0.6,0.1,1.1,0.3,1.5c0.2,0.3,0.6,0.5,1.1,0.5c0.3,0,0.5-0.1,0.8-0.2C122.3,197.6,122.6,197.5,122.8,197.3z"/>
		<path d="M129.7,198.6h-0.9V198c-0.1,0.1-0.2,0.1-0.3,0.2c-0.1,0.1-0.3,0.2-0.4,0.2c-0.2,0.1-0.3,0.1-0.5,0.2    c-0.2,0.1-0.4,0.1-0.7,0.1c-0.5,0-0.9-0.2-1.2-0.5c-0.3-0.3-0.5-0.7-0.5-1.2c0-0.4,0.1-0.7,0.3-1s0.4-0.5,0.8-0.6    c0.3-0.1,0.7-0.2,1.2-0.3s1-0.1,1.5-0.1v-0.1c0-0.2,0-0.4-0.1-0.5c-0.1-0.1-0.2-0.2-0.3-0.3c-0.1-0.1-0.3-0.1-0.5-0.2    s-0.4,0-0.6,0c-0.2,0-0.5,0-0.8,0.1s-0.6,0.2-0.9,0.3h0v-0.9c0.2,0,0.4-0.1,0.8-0.2s0.7-0.1,1-0.1c0.4,0,0.7,0,1,0.1    s0.5,0.2,0.7,0.3c0.2,0.1,0.4,0.3,0.5,0.6c0.1,0.2,0.2,0.5,0.2,0.9V198.6z M128.8,197.3v-1.5c-0.3,0-0.6,0-1,0.1    c-0.4,0-0.7,0.1-0.9,0.1c-0.3,0.1-0.5,0.2-0.6,0.3s-0.2,0.4-0.2,0.7c0,0.3,0.1,0.5,0.3,0.7c0.2,0.2,0.5,0.2,0.9,0.2    c0.3,0,0.6-0.1,0.9-0.2S128.6,197.5,128.8,197.3z"/>
		<path d="M134.9,194.2L134.9,194.2c-0.2,0-0.3-0.1-0.4-0.1c-0.1,0-0.3,0-0.5,0c-0.3,0-0.6,0.1-0.8,0.2c-0.3,0.1-0.5,0.3-0.8,0.5    v3.9h-0.9v-5.5h0.9v0.8c0.4-0.3,0.7-0.5,1-0.6s0.6-0.2,0.9-0.2c0.2,0,0.3,0,0.3,0c0.1,0,0.2,0,0.3,0V194.2z"/>
		<path d="M136.8,192.3h-1v-1h1V192.3z M136.7,198.6h-0.9v-5.5h0.9V198.6z"/>
		<path d="M142.5,198.6h-4.4v-0.7l3.2-4h-3.1v-0.8h4.3v0.7l-3.2,4h3.3V198.6z"/>
		<path d="M146.6,195.9h-3V195h3V195.9z"/>
		<path d="M106.9,206.4c0,0.4-0.1,0.7-0.2,1s-0.3,0.5-0.6,0.7c-0.3,0.2-0.6,0.4-0.9,0.5c-0.3,0.1-0.7,0.1-1.2,0.1h-2.6v-7.3h2.2    c0.5,0,0.9,0,1.2,0.1s0.5,0.1,0.8,0.2c0.3,0.1,0.5,0.3,0.6,0.5c0.1,0.2,0.2,0.5,0.2,0.8c0,0.3-0.1,0.6-0.3,0.9    c-0.2,0.2-0.4,0.4-0.7,0.6v0c0.5,0.1,0.9,0.3,1.2,0.6S106.9,205.9,106.9,206.4z M105.2,203.1c0-0.2,0-0.3-0.1-0.4    s-0.2-0.2-0.3-0.3c-0.2-0.1-0.3-0.1-0.6-0.2c-0.2,0-0.5,0-0.8,0h-1.2v2.1h1.2c0.3,0,0.5,0,0.7,0c0.2,0,0.3-0.1,0.5-0.2    s0.3-0.2,0.3-0.4C105.2,203.5,105.2,203.3,105.2,203.1z M105.8,206.4c0-0.3,0-0.5-0.1-0.7s-0.2-0.3-0.5-0.4    c-0.2-0.1-0.3-0.1-0.6-0.2s-0.5,0-0.8,0h-1.5v2.7h1.3c0.4,0,0.8,0,1-0.1s0.5-0.1,0.7-0.2c0.2-0.1,0.3-0.3,0.4-0.4    C105.8,206.9,105.8,206.7,105.8,206.4z"/>
		<path d="M112.4,208.6h-0.9V208c-0.1,0.1-0.2,0.1-0.3,0.2c-0.1,0.1-0.3,0.2-0.4,0.2c-0.2,0.1-0.3,0.1-0.5,0.2    c-0.2,0.1-0.4,0.1-0.7,0.1c-0.5,0-0.9-0.2-1.2-0.5c-0.3-0.3-0.5-0.7-0.5-1.2c0-0.4,0.1-0.7,0.3-1s0.4-0.5,0.8-0.6    c0.3-0.1,0.7-0.2,1.2-0.3c0.5-0.1,1-0.1,1.5-0.1v-0.1c0-0.2,0-0.4-0.1-0.5s-0.2-0.2-0.3-0.3c-0.1-0.1-0.3-0.1-0.5-0.2    s-0.4,0-0.6,0c-0.2,0-0.5,0-0.8,0.1c-0.3,0.1-0.6,0.2-0.9,0.3h0v-0.9c0.2,0,0.4-0.1,0.8-0.2s0.7-0.1,1-0.1c0.4,0,0.7,0,1,0.1    c0.3,0.1,0.5,0.2,0.7,0.3c0.2,0.1,0.4,0.3,0.5,0.6s0.2,0.5,0.2,0.9V208.6z M111.5,207.3v-1.5c-0.3,0-0.6,0-1,0.1s-0.7,0.1-0.9,0.1    c-0.3,0.1-0.5,0.2-0.6,0.3s-0.2,0.4-0.2,0.7c0,0.3,0.1,0.5,0.3,0.7c0.2,0.2,0.5,0.2,0.9,0.2c0.3,0,0.6-0.1,0.9-0.2    C111,207.6,111.2,207.5,111.5,207.3z"/>
		<path d="M115.1,208.6h-0.9V201h0.9V208.6z"/>
		<path d="M121.5,208.6h-0.9v-3.1c0-0.3,0-0.5,0-0.7s-0.1-0.4-0.2-0.5c-0.1-0.1-0.2-0.2-0.4-0.3s-0.4-0.1-0.6-0.1    c-0.3,0-0.5,0.1-0.8,0.2c-0.3,0.1-0.5,0.3-0.8,0.5v4.1h-0.9v-5.5h0.9v0.6c0.3-0.2,0.6-0.4,0.9-0.6c0.3-0.1,0.6-0.2,0.9-0.2    c0.6,0,1,0.2,1.3,0.5s0.5,0.9,0.5,1.5V208.6z"/>
		<path d="M127.8,206h-4c0,0.3,0.1,0.6,0.2,0.9c0.1,0.2,0.2,0.5,0.4,0.6c0.2,0.2,0.4,0.3,0.6,0.4c0.2,0.1,0.5,0.1,0.8,0.1    c0.4,0,0.7-0.1,1.1-0.2s0.6-0.3,0.8-0.4h0v1c-0.3,0.1-0.6,0.2-0.9,0.3c-0.3,0.1-0.7,0.1-1,0.1c-0.9,0-1.6-0.2-2.1-0.7    c-0.5-0.5-0.8-1.2-0.8-2.1c0-0.9,0.2-1.6,0.7-2.1s1.1-0.8,1.9-0.8c0.7,0,1.3,0.2,1.7,0.6c0.4,0.4,0.6,1,0.6,1.8V206z M126.9,205.3    c0-0.5-0.1-0.9-0.4-1.1c-0.2-0.3-0.6-0.4-1.1-0.4c-0.5,0-0.9,0.1-1.2,0.4s-0.5,0.6-0.5,1.1H126.9z"/>
		<path d="M133.4,208.6h-0.9V208c-0.1,0.1-0.2,0.1-0.3,0.2c-0.1,0.1-0.3,0.2-0.4,0.2c-0.2,0.1-0.3,0.1-0.5,0.2    c-0.2,0.1-0.4,0.1-0.7,0.1c-0.5,0-0.9-0.2-1.2-0.5c-0.3-0.3-0.5-0.7-0.5-1.2c0-0.4,0.1-0.7,0.3-1s0.4-0.5,0.8-0.6    c0.3-0.1,0.7-0.2,1.2-0.3s1-0.1,1.5-0.1v-0.1c0-0.2,0-0.4-0.1-0.5c-0.1-0.1-0.2-0.2-0.3-0.3c-0.1-0.1-0.3-0.1-0.5-0.2    s-0.4,0-0.6,0c-0.2,0-0.5,0-0.8,0.1s-0.6,0.2-0.9,0.3h0v-0.9c0.2,0,0.4-0.1,0.8-0.2s0.7-0.1,1-0.1c0.4,0,0.7,0,1,0.1    s0.5,0.2,0.7,0.3c0.2,0.1,0.4,0.3,0.5,0.6c0.1,0.2,0.2,0.5,0.2,0.9V208.6z M132.5,207.3v-1.5c-0.3,0-0.6,0-1,0.1    c-0.4,0-0.7,0.1-0.9,0.1c-0.3,0.1-0.5,0.2-0.6,0.3s-0.2,0.4-0.2,0.7c0,0.3,0.1,0.5,0.3,0.7c0.2,0.2,0.5,0.2,0.9,0.2    c0.3,0,0.6-0.1,0.9-0.2S132.3,207.5,132.5,207.3z"/>
		<path d="M138.6,204.2L138.6,204.2c-0.2,0-0.3-0.1-0.4-0.1c-0.1,0-0.3,0-0.5,0c-0.3,0-0.6,0.1-0.8,0.2c-0.3,0.1-0.5,0.3-0.8,0.5    v3.9h-0.9v-5.5h0.9v0.8c0.4-0.3,0.7-0.5,1-0.6s0.6-0.2,0.9-0.2c0.2,0,0.3,0,0.3,0c0.1,0,0.2,0,0.3,0V204.2z"/>
		<path d="M140.4,202.3h-1v-1h1V202.3z M140.4,208.6h-0.9v-5.5h0.9V208.6z"/>
		<path d="M146.8,205.9c0,0.9-0.2,1.6-0.7,2.1s-1.1,0.8-1.8,0.8c-0.8,0-1.4-0.3-1.8-0.8c-0.5-0.5-0.7-1.2-0.7-2.1s0.2-1.6,0.7-2.1    c0.5-0.5,1.1-0.8,1.8-0.8c0.8,0,1.4,0.3,1.8,0.8S146.8,205,146.8,205.9z M145.9,205.9c0-0.7-0.1-1.2-0.4-1.6s-0.7-0.5-1.2-0.5    c-0.5,0-0.9,0.2-1.2,0.5s-0.4,0.9-0.4,1.6c0,0.7,0.1,1.2,0.4,1.6c0.3,0.4,0.7,0.5,1.2,0.5c0.5,0,0.9-0.2,1.1-0.5    C145.7,207.1,145.9,206.6,145.9,205.9z"/>
	</g>
</g>
<g id="text_x5F_exterior">
	<g>
		<g>
			<path style="fill:#1A171B;" d="M199.6,399.2c0,0.3-0.1,0.6-0.2,1c-0.1,0.3-0.3,0.6-0.5,0.8c-0.3,0.3-0.6,0.5-1,0.6     s-0.8,0.2-1.3,0.2l-1.2,0l0,2.4l-1.9,0l0-7.3l3.1,0c0.5,0,0.9,0,1.2,0.1c0.3,0.1,0.6,0.2,0.8,0.4c0.3,0.2,0.5,0.4,0.7,0.7     C199.5,398.5,199.6,398.8,199.6,399.2z M197.7,399.3c0-0.2-0.1-0.4-0.2-0.5c-0.1-0.1-0.2-0.3-0.4-0.3c-0.2-0.1-0.4-0.1-0.6-0.1     s-0.4,0-0.7,0h-0.3l0,2.2h0.5c0.3,0,0.6,0,0.8-0.1c0.2,0,0.4-0.1,0.5-0.2c0.1-0.1,0.2-0.2,0.3-0.4S197.7,399.5,197.7,399.3z"/>
			<path style="fill:#1A171B;" d="M206.5,401.5c0,0.9-0.3,1.6-0.8,2.1c-0.5,0.5-1.3,0.8-2.2,0.8c-1,0-1.7-0.3-2.2-0.8     s-0.8-1.2-0.8-2.1c0-0.9,0.3-1.6,0.8-2.1c0.5-0.5,1.3-0.8,2.2-0.8c1,0,1.7,0.3,2.2,0.8C206.2,399.9,206.5,400.6,206.5,401.5z      M204.3,402.8c0.1-0.1,0.2-0.3,0.3-0.5c0.1-0.2,0.1-0.5,0.1-0.8c0-0.3,0-0.6-0.1-0.8c-0.1-0.2-0.1-0.4-0.2-0.5     c-0.1-0.1-0.2-0.2-0.4-0.3c-0.1-0.1-0.3-0.1-0.5-0.1s-0.3,0-0.5,0.1c-0.1,0-0.3,0.1-0.4,0.3c-0.1,0.1-0.2,0.3-0.3,0.5     s-0.1,0.5-0.1,0.8c0,0.3,0,0.6,0.1,0.8s0.1,0.4,0.2,0.5c0.1,0.1,0.2,0.2,0.4,0.3c0.1,0.1,0.3,0.1,0.5,0.1c0.2,0,0.3,0,0.5-0.1     C204.1,403,204.2,402.9,204.3,402.8z"/>
			<path style="fill:#1A171B;" d="M211.7,400.4h-0.2c-0.1,0-0.2,0-0.4-0.1c-0.2,0-0.3,0-0.4,0c-0.3,0-0.5,0-0.7,0     c-0.2,0-0.4,0.1-0.6,0.2l0,3.7l-1.8,0l0-5.5l1.8,0l0,0.8c0.4-0.3,0.7-0.6,1-0.7c0.3-0.1,0.5-0.2,0.8-0.2c0.1,0,0.1,0,0.2,0     c0.1,0,0.1,0,0.2,0L211.7,400.4z"/>
			<path style="fill:#1A171B;" d="M216.2,404.2c-0.2,0-0.4,0.1-0.6,0.1c-0.2,0-0.5,0-0.8,0c-0.7,0-1.2-0.1-1.5-0.4     c-0.3-0.3-0.5-0.8-0.5-1.4l0-2.6h-0.7l0-1.2h0.7l0-1.6l1.8,0l0,1.6h1.6l0,1.2h-1.6l0,1.9c0,0.2,0,0.4,0,0.5c0,0.1,0,0.3,0.1,0.4     c0,0.1,0.1,0.2,0.2,0.3c0.1,0.1,0.3,0.1,0.5,0.1c0.1,0,0.2,0,0.4-0.1c0.1,0,0.3-0.1,0.3-0.1h0.1L216.2,404.2z"/>
			<path style="fill:#1A171B;" d="M222.7,404.2l-1.8,0l0-0.6c-0.3,0.2-0.6,0.4-0.9,0.6c-0.3,0.1-0.6,0.2-1,0.2     c-0.6,0-1.1-0.2-1.4-0.5c-0.3-0.3-0.5-0.9-0.5-1.5l0-3.6h1.8l0,2.7c0,0.3,0,0.5,0,0.7s0.1,0.3,0.1,0.5c0.1,0.1,0.2,0.2,0.3,0.3     c0.1,0.1,0.3,0.1,0.5,0.1c0.1,0,0.3,0,0.5-0.1c0.2-0.1,0.4-0.1,0.5-0.2l0-3.9l1.8,0L222.7,404.2z"/>
			<path style="fill:#1A171B;" d="M229.7,403.6c0,0.5-0.1,0.9-0.2,1.3c-0.1,0.4-0.4,0.6-0.6,0.8c-0.3,0.2-0.6,0.3-1,0.4     c-0.4,0.1-0.8,0.1-1.3,0.1c-0.4,0-0.8,0-1.1-0.1c-0.4,0-0.7-0.1-1-0.2l0-1.4l0.2,0c0.2,0.1,0.5,0.2,0.8,0.2s0.6,0.1,0.8,0.1     c0.3,0,0.6,0,0.8-0.1s0.4-0.1,0.5-0.3c0.1-0.1,0.2-0.2,0.2-0.4c0-0.2,0.1-0.4,0.1-0.6v-0.1c-0.2,0.2-0.4,0.3-0.7,0.4     c-0.3,0.1-0.5,0.2-0.9,0.2c-0.8,0-1.4-0.2-1.8-0.7c-0.4-0.5-0.6-1.2-0.6-2.1c0-0.5,0.1-0.8,0.2-1.2c0.1-0.3,0.3-0.6,0.5-0.9     c0.2-0.2,0.5-0.4,0.8-0.5c0.3-0.1,0.6-0.2,1-0.2c0.3,0,0.6,0,0.8,0.1s0.5,0.2,0.7,0.3l0.1-0.2l1.7,0L229.7,403.6z M227.9,402.5     l0-2.5c-0.1,0-0.2-0.1-0.4-0.1c-0.1,0-0.3,0-0.4,0c-0.5,0-0.8,0.1-1,0.4c-0.2,0.3-0.3,0.6-0.3,1.1c0,0.5,0.1,0.9,0.3,1.1     c0.2,0.2,0.5,0.3,0.9,0.3c0.2,0,0.3,0,0.5-0.1C227.6,402.7,227.8,402.6,227.9,402.5z"/>
			<path style="fill:#1A171B;" d="M234.7,403.6c-0.1,0.1-0.2,0.2-0.4,0.3c-0.1,0.1-0.3,0.2-0.4,0.2c-0.2,0.1-0.4,0.1-0.5,0.2     c-0.2,0-0.4,0.1-0.6,0.1c-0.5,0-1-0.2-1.3-0.5s-0.5-0.7-0.5-1.2c0-0.4,0.1-0.7,0.3-1s0.4-0.5,0.8-0.6c0.3-0.1,0.7-0.3,1.2-0.3     c0.5-0.1,1-0.1,1.5-0.1v0c0-0.3-0.1-0.5-0.4-0.6c-0.2-0.1-0.6-0.2-1.1-0.2c-0.3,0-0.6,0.1-0.9,0.2c-0.3,0.1-0.6,0.2-0.7,0.2h-0.2     l0-1.3c0.2,0,0.5-0.1,0.9-0.2c0.4-0.1,0.8-0.1,1.3-0.1c1,0,1.7,0.2,2.2,0.5c0.4,0.3,0.7,0.8,0.7,1.4l0,3.7l-1.7,0V403.6z      M234.7,402.8l0-1.1c-0.2,0-0.5,0-0.8,0.1c-0.3,0-0.5,0.1-0.6,0.1c-0.2,0.1-0.3,0.1-0.4,0.2s-0.1,0.2-0.1,0.4c0,0.1,0,0.2,0,0.3     s0.1,0.1,0.1,0.2c0.1,0.1,0.2,0.1,0.3,0.1c0.1,0,0.3,0,0.5,0c0.2,0,0.4,0,0.5-0.1S234.5,402.9,234.7,402.8z"/>
			<path style="fill:#1A171B;" d="M239.8,404.2H238l0-7.6l1.8,0L239.8,404.2z"/>
		</g>
	</g>
	<g>
		<rect x="357.9" y="106.4" style="fill:none;" width="53.7" height="11"/>
		<path style="fill:#1A171B;" d="M369.3,113.5c0,1.2-0.3,2.1-1,2.8s-1.6,1-2.8,1c-1.2,0-2.1-0.3-2.7-1s-1-1.6-1-2.8    c0-1.2,0.3-2.1,1-2.8s1.6-1,2.7-1c1.2,0,2.1,0.3,2.7,1C368.9,111.4,369.3,112.3,369.3,113.5z M366.8,115.3    c0.2-0.2,0.3-0.5,0.4-0.8s0.1-0.7,0.1-1.1c0-0.4-0.1-0.8-0.2-1.1c-0.1-0.3-0.2-0.6-0.4-0.7c-0.2-0.2-0.4-0.3-0.6-0.4    c-0.2-0.1-0.4-0.1-0.7-0.1c-0.2,0-0.5,0-0.7,0.1s-0.4,0.2-0.6,0.4c-0.2,0.2-0.3,0.4-0.4,0.8s-0.2,0.7-0.2,1.1c0,0.4,0,0.8,0.1,1.1    c0.1,0.3,0.2,0.6,0.4,0.7c0.2,0.2,0.4,0.3,0.6,0.4c0.2,0.1,0.4,0.1,0.7,0.1c0.2,0,0.5,0,0.7-0.1    C366.4,115.6,366.6,115.5,366.8,115.3z"/>
		<path style="fill:#1A171B;" d="M376.1,117.1h-1.8v-0.6c-0.3,0.2-0.6,0.4-0.9,0.6s-0.6,0.2-1,0.2c-0.6,0-1.1-0.2-1.4-0.5    c-0.3-0.3-0.5-0.9-0.5-1.5v-3.6h1.8v2.7c0,0.3,0,0.5,0,0.7c0,0.2,0.1,0.3,0.1,0.5c0.1,0.1,0.2,0.2,0.3,0.3    c0.1,0.1,0.3,0.1,0.5,0.1c0.1,0,0.3,0,0.5-0.1c0.2-0.1,0.4-0.1,0.5-0.2v-3.9h1.8V117.1z"/>
		<path style="fill:#1A171B;" d="M381.7,113.3h-0.2c-0.1,0-0.2,0-0.4-0.1s-0.3,0-0.4,0c-0.3,0-0.5,0-0.7,0c-0.2,0-0.4,0.1-0.6,0.2    v3.7h-1.8v-5.5h1.8v0.8c0.4-0.3,0.7-0.6,1-0.7c0.3-0.1,0.5-0.2,0.8-0.2c0.1,0,0.1,0,0.2,0s0.1,0,0.2,0V113.3z"/>
		<path style="fill:#1A171B;" d="M388.1,114.7h-4c0,0.4,0.2,0.8,0.5,1c0.3,0.2,0.7,0.3,1.3,0.3c0.4,0,0.7-0.1,1.1-0.2    c0.3-0.1,0.6-0.3,0.8-0.4h0.2v1.4c-0.4,0.2-0.8,0.3-1.1,0.3s-0.7,0.1-1.2,0.1c-1.1,0-1.9-0.2-2.5-0.7s-0.9-1.2-0.9-2.1    c0-0.9,0.3-1.6,0.8-2.2c0.6-0.5,1.3-0.8,2.3-0.8c0.9,0,1.6,0.2,2,0.7s0.7,1.1,0.7,1.9V114.7z M386.4,113.6c0-0.4-0.1-0.6-0.3-0.8    c-0.2-0.2-0.4-0.3-0.8-0.3c-0.3,0-0.6,0.1-0.8,0.3c-0.2,0.2-0.3,0.5-0.4,0.8H386.4z"/>
		<path style="fill:#1A171B;" d="M394.9,117.1h-1.8v-2.7c0-0.2,0-0.4,0-0.7c0-0.2-0.1-0.4-0.1-0.5c-0.1-0.1-0.2-0.2-0.3-0.3    c-0.1-0.1-0.3-0.1-0.5-0.1c-0.2,0-0.3,0-0.5,0.1c-0.2,0.1-0.3,0.1-0.5,0.2v3.9h-1.8v-5.5h1.8v0.6c0.3-0.2,0.6-0.4,0.9-0.6    s0.6-0.2,1-0.2c0.6,0,1.1,0.2,1.4,0.5s0.5,0.9,0.5,1.5V117.1z"/>
		<path style="fill:#1A171B;" d="M401.2,115.3c0,0.6-0.3,1-0.8,1.4s-1.2,0.5-2.1,0.5c-0.5,0-0.9,0-1.3-0.1c-0.4-0.1-0.7-0.2-1-0.3    v-1.4h0.2c0.1,0.1,0.2,0.1,0.3,0.2c0.1,0.1,0.3,0.2,0.5,0.2c0.2,0.1,0.4,0.1,0.6,0.2c0.2,0.1,0.5,0.1,0.7,0.1c0.3,0,0.6,0,0.8-0.1    s0.2-0.2,0.2-0.3c0-0.1,0-0.2-0.1-0.3s-0.3-0.1-0.6-0.2c-0.1,0-0.3-0.1-0.5-0.1c-0.2,0-0.4-0.1-0.6-0.1c-0.5-0.1-0.9-0.3-1.1-0.6    c-0.2-0.3-0.4-0.6-0.4-1c0-0.5,0.3-1,0.7-1.3c0.5-0.4,1.2-0.5,2-0.5c0.4,0,0.8,0,1.2,0.1s0.7,0.2,0.9,0.3v1.4h-0.2    c-0.3-0.2-0.6-0.3-0.9-0.4c-0.3-0.1-0.7-0.2-1-0.2c-0.3,0-0.5,0-0.7,0.1c-0.2,0.1-0.3,0.2-0.3,0.3c0,0.1,0,0.2,0.1,0.3    s0.3,0.1,0.6,0.2c0.2,0,0.4,0.1,0.6,0.1c0.2,0,0.4,0.1,0.6,0.1c0.5,0.1,0.8,0.3,1,0.6C401.1,114.6,401.2,115,401.2,115.3z"/>
		<path style="fill:#1A171B;" d="M407.8,114.7h-4c0,0.4,0.2,0.8,0.5,1c0.3,0.2,0.7,0.3,1.3,0.3c0.4,0,0.7-0.1,1.1-0.2    c0.3-0.1,0.6-0.3,0.8-0.4h0.2v1.4c-0.4,0.2-0.8,0.3-1.1,0.3s-0.7,0.1-1.2,0.1c-1.1,0-1.9-0.2-2.5-0.7s-0.9-1.2-0.9-2.1    c0-0.9,0.3-1.6,0.8-2.2c0.6-0.5,1.3-0.8,2.3-0.8c0.9,0,1.6,0.2,2,0.7s0.7,1.1,0.7,1.9V114.7z M406.1,113.6c0-0.4-0.1-0.6-0.3-0.8    c-0.2-0.2-0.4-0.3-0.8-0.3c-0.3,0-0.6,0.1-0.8,0.3c-0.2,0.2-0.3,0.5-0.4,0.8H406.1z"/>
	</g>
</g>
<g id="llegenda">
	<line style="fill:none;stroke:#9A9A9A;stroke-width:2;stroke-miterlimit:10;" x1="-150.6" y1="74.9" x2="-150.6" y2="104.4"/>
	<line style="fill:none;stroke:#9A9A9A;stroke-miterlimit:10;" x1="-117.2" y1="74.9" x2="-117.2" y2="104.4"/>
	<g>
		<path d="M-142.9,85.3h0.9v7.1h-0.9V85.3z"/>
		<path d="M-139.6,86.2c0,0.3-0.2,0.5-0.6,0.5c-0.3,0-0.5-0.2-0.5-0.5s0.2-0.5,0.5-0.5C-139.8,85.6-139.6,85.9-139.6,86.2z     M-140.5,92.4v-4.8h0.9v4.8H-140.5z"/>
		<path d="M-138.2,88.9c0-0.5,0-0.9,0-1.3h0.8l0,0.8h0c0.2-0.4,0.8-0.9,1.6-0.9c0.7,0,1.7,0.4,1.7,2.1v2.9h-0.9v-2.8    c0-0.8-0.3-1.4-1.1-1.4c-0.6,0-1,0.4-1.2,0.9c0,0.1-0.1,0.3-0.1,0.4v2.9h-0.9V88.9z"/>
	</g>
	<line style="fill:none;stroke:#696969;stroke-width:2;stroke-miterlimit:10;" x1="-150.6" y1="114.5" x2="-150.6" y2="144"/>
	<g>
		<path d="M-142.9,124.9h0.9v7.1h-0.9V124.9z"/>
		<path d="M-139.6,125.8c0,0.3-0.2,0.5-0.6,0.5c-0.3,0-0.5-0.2-0.5-0.5s0.2-0.5,0.5-0.5C-139.8,125.2-139.6,125.5-139.6,125.8z     M-140.5,132v-4.8h0.9v4.8H-140.5z"/>
		<path d="M-138.2,128.5c0-0.5,0-0.9,0-1.3h0.8l0,0.8h0c0.2-0.4,0.8-0.9,1.6-0.9c0.7,0,1.7,0.4,1.7,2.1v2.9h-0.9v-2.8    c0-0.8-0.3-1.4-1.1-1.4c-0.6,0-1,0.4-1.2,0.9c0,0.1-0.1,0.3-0.1,0.4v2.9h-0.9V128.5z"/>
	</g>
	<rect x="-156" y="50.3" style="fill:#BFBFBF;" width="16.3" height="15.3"/>
	<rect x="-156" y="22.6" style="fill:#DCE9FB;" width="16.3" height="15.3"/>
	<rect x="-187.4" y="22.6" style="fill:#D0E0A4;" width="16.3" height="15.3"/>
	<g>
		<path d="M-130.5,59.6v-4.2h-0.7v-0.7h0.7v-0.2c0-0.7,0.2-1.3,0.6-1.7c0.3-0.3,0.8-0.4,1.2-0.4c0.3,0,0.6,0.1,0.7,0.1l-0.1,0.7    c-0.1-0.1-0.3-0.1-0.6-0.1c-0.7,0-0.9,0.6-0.9,1.4v0.3h1.2v0.7h-1.2v4.2H-130.5z"/>
		<path d="M-123.4,57.2c0,1.8-1.2,2.6-2.4,2.6c-1.3,0-2.3-1-2.3-2.5c0-1.6,1.1-2.6,2.4-2.6C-124.3,54.7-123.4,55.7-123.4,57.2z     M-127.2,57.2c0,1.1,0.6,1.9,1.5,1.9c0.8,0,1.5-0.8,1.5-1.9c0-0.8-0.4-1.8-1.4-1.8C-126.8,55.4-127.2,56.3-127.2,57.2z"/>
		<path d="M-122.3,56.1c0-0.5,0-0.9,0-1.3h0.8l0,0.8h0c0.2-0.4,0.8-0.9,1.6-0.9c0.7,0,1.7,0.4,1.7,2.1v2.9h-0.9v-2.8    c0-0.8-0.3-1.4-1.1-1.4c-0.6,0-1,0.4-1.2,0.9c0,0.1-0.1,0.3-0.1,0.4v2.9h-0.9V56.1z"/>
		<path d="M-116.8,58.8c0.3,0.2,0.7,0.3,1.2,0.3c0.6,0,0.9-0.3,0.9-0.7c0-0.4-0.3-0.6-0.9-0.9c-0.9-0.3-1.3-0.8-1.3-1.4    c0-0.8,0.6-1.4,1.7-1.4c0.5,0,0.9,0.1,1.2,0.3l-0.2,0.6c-0.2-0.1-0.5-0.3-1-0.3c-0.5,0-0.8,0.3-0.8,0.7c0,0.4,0.3,0.6,0.9,0.8    c0.8,0.3,1.3,0.7,1.3,1.4c0,0.9-0.7,1.5-1.8,1.5c-0.5,0-1-0.1-1.4-0.3L-116.8,58.8z"/>
	</g>
	<g>
		<path d="M-130.5,28.8c0-0.5,0-0.9,0-1.3h0.8l0,0.8h0c0.3-0.5,0.7-0.9,1.5-0.9c0.6,0,1.1,0.4,1.4,1h0c0.1-0.3,0.4-0.5,0.5-0.6    c0.3-0.2,0.6-0.3,1.1-0.3c0.6,0,1.6,0.4,1.6,2.1v2.8h-0.9v-2.7c0-0.9-0.3-1.5-1-1.5c-0.5,0-0.9,0.4-1,0.8c0,0.1-0.1,0.3-0.1,0.4v3    h-0.9v-2.9c0-0.8-0.3-1.3-1-1.3c-0.5,0-0.9,0.4-1.1,0.9c-0.1,0.1-0.1,0.3-0.1,0.4v2.9h-0.9V28.8z"/>
		<path d="M-118.8,31.2c0,0.4,0,0.8,0.1,1.2h-0.8l-0.1-0.6h0c-0.3,0.4-0.8,0.7-1.5,0.7c-1,0-1.5-0.7-1.5-1.4c0-1.2,1-1.8,2.9-1.8    v-0.1c0-0.4-0.1-1.1-1.1-1.1c-0.5,0-0.9,0.1-1.3,0.4l-0.2-0.6c0.4-0.3,1-0.4,1.6-0.4c1.5,0,1.8,1,1.8,2V31.2z M-119.7,29.8    c-1,0-2,0.1-2,1.1c0,0.6,0.4,0.8,0.8,0.8c0.6,0,1-0.4,1.2-0.8c0-0.1,0-0.2,0-0.3V29.8z"/>
		<path d="M-117.4,29c0-0.6,0-1.1,0-1.5h0.8l0,1h0c0.2-0.6,0.8-1.1,1.3-1.1c0.1,0,0.2,0,0.2,0v0.8c-0.1,0-0.2,0-0.3,0    c-0.6,0-1.1,0.5-1.2,1.1c0,0.1,0,0.3,0,0.4v2.6h-0.9V29z"/>
	</g>
	<circle style="fill-rule:evenodd;clip-rule:evenodd;fill:#5B7EBD;" cx="-150.6" cy="159.1" r="2.4"/>
	<rect x="-231.4" y="50.3" style="fill:#BFBFBF;stroke:#696969;stroke-width:2;stroke-miterlimit:10;" width="16.3" height="15.3"/>
	<rect x="-205.2" y="50.3" style="fill:#FFFBF0;stroke:#9A9A9A;stroke-width:2;stroke-miterlimit:10;" width="16.3" height="15.3"/>
	<rect x="-214.5" y="80.9" style="opacity:0.6;fill:#FFFBF0;" width="51" height="17.5"/>
</g>
</svg>