<svg xmlns="http://www.w3.org/2000/svg" xmlns:xlink="http://www.w3.org/1999/xlink" version="1.1" x="0px" y="0px" width="450px" height="450px" viewBox="0 0 450 450" style="enable-background:new 0 0 450 450;" xml:space="preserve">
<g id="Color_fons">
	<a xlink:href="Zuya">
		<path style="fill:#BFBFBF;stroke:#696969;stroke-width:2;stroke-linejoin:arcs;stroke-miterlimit:10;" d="M468,292.5    c6.2,60.2,12.4,120.4,18.7,180.7c-15.4,0.2-30.9,0.5-46.3,0.7c-20.1,0.3-27.7,5.9-35.7-12.7c-1.2-2.8-6.7-13.7-9.6-15.6    c-7.2-4.7-13.8,2-20.6,0.9c-9.2-1.5-7.8-9.2-14-12.9c-6.7-4-16.7-5.3-24.1-7.7c6.3,32.5-49.7-0.3-49.4-2.3    c1.3-9.7,3.1-24.2,4.6-33.9c1.3-8-2.2-9.2,6.1-9.3c6-0.1,1.7-4.9,2.8-7.6c2.1-4.8,8.3-22.2,3-27.9c-1-1,3.2-9.7,5.3-11.7    c8.3-8.1,20.3-18.4,25.2-20.7c3.6-1.7,11,1,14-2c4.8-4.8,0.4-18-0.2-20.6c16.6-6.4,19.9-5.6,30.9-18.6c-1.5-0.2-1.8-1.3-3.3-1.4    C395.1,249.2,451.3,286.4,468,292.5L468,292.5z"/>
	</a>
	<a xlink:href="Burgos">
		<path style="fill:#BFBFBF;stroke:#696969;stroke-width:2;stroke-linejoin:arcs;stroke-miterlimit:10;" d="M238.3,469.1    c-47.2,2.1-94.4,4.3-141.6,6.4c1.8-12.1,0.4-36.3,9.6-44.7c-16.3-5-32.5-13.2-49-15.9c-12.3-2-19.3,3.1-27.2,0.3    c-2.3-15.4-20,1.7-19.9,12.5c0.1,9.6-21.2,27.2-28.2,35.6c-1.6-71.5-3.1-142.9-4.7-214.4c-1.4-64.9-9.4-134.5,4-198.2    c11,9.7,28.1,22.1,41,40.5c0,0,17.1-13,17.2-13.4c2.1,8.1,7.8,11.9,15.4,13.4c11.8,2.4,7.5-3.3,17-7.8    c16.2-7.7,37.9-2.4,37.7,20.1c-14.6,3.1-20.1,7.4-24.8,17c-1.8,3.7,4.8,7,3.2,9.5c-4.8,7.3-10.8,14.6-14.6,22.5    c-6.2,13-5.1,16.3,8.5,24c5.1,2.9,9.9,5.3,15.6,8.8c2,1.2,8-7,12.1-8.4c7,10.4,12.6,17.8,2.1,26.2c-8.3,6.6-12.1,15.3-19.7,26.7    c4,2.6,18.6,8.5,20.2,10.8c1.9,2.7-2.8,18.5-1,24.7c-1.2-0.2-4.7-2.3-5.8-2.5c0.2,5.4,2.4,31.3,3,31.2c-5.3,8.2-23,3.2-29.1,0.7    c-0.2,5-1.6,7.1-6.6,8.9c16.3,19.9,32.5,19.9,55.1,21.8c7.5,0.6,27.6,6.1,33,7.7c7.6,2.3,14.7-1.1,17.1-8.9    c6.4,3.5,9.6,5.2,15.9,6.7c2.9,0.7,0.8,6.8,3.6,10.1c4.9,5.7,14.8,22,22.5,19.2c-2.5,5.1-9.5,16,0.2,21.8    c3.9,2.3,17.9,9.5,17.4,13.1c-0.5,3.4,3.3,6.6,6.5,8c7.4,3.2,17.2,0.5,23.6,3.4c3.7,1.7,9.5,12.2,11.5,16    c1.3,2.5-10.8,9.3-13.5,14.3c-6.2,11-5.3-1.5-13.8,8.9C245.3,453.6,243.5,460.3,238.3,469.1L238.3,469.1z"/>
	</a>
	<a xlink:href="Vizcaya Bizkaia">
		
			<path style="fill-rule:evenodd;clip-rule:evenodd;fill:#BFBFBF;stroke:#696969;stroke-width:2;stroke-linejoin:arcs;stroke-miterlimit:10;" d="    M375.9,268c-1.3,1.6-17.1-9.5-24.6-13.7c-23.6-13.5-14.6-20.2-30.8-26.2c0.6-2.6,1-5.3-1.5-8.5c-5.6-7-19-14.6-19-14.6    l-49.6,109.5c0,0,14.9,3.4,22.5,6.3c1.5,0.6-4.4,6.2-4.8,11.8c-0.4,6,4.7,11.8,6.6,12.4c3.1,1,11.8-2.3,16.5-6    c3.6-2.8,3.2-6.2,5.2-5.5c6.3,2.4,10.4,4.7,9.3,6.8c-3.4,6-11.8,10.1-22.5,11.8c-7.7,1.2-17,0.2-24.3,1.5    c-3.1,0.5-1.4,7.4-4.4,7.7c-11.2,1.3-20.6-0.1-26.9-0.5c-5.2-0.3-8.4,0.6-8.5,0.5c-0.3-0.1-3.6,0.2-9-4.5c-4.1-3.6-9.9-11.5-14-16    c-2.2-2.4,0.6-6.6-1.8-8.8c-5.1-4.6-10-3.5-14.8-7c-2.1-1.6-2.2,4.1-5.5,6.8c-3.6,2.9-10.4,2.8-11.3,0.5c-1-2.6,0.4-10.7,5.8-15.5    c6.1-5.5,16.6-7.9,21.8-14.3c5.4-6.6,2.7-15.8,3.3-17c1.2-2.7,4.9-8.1,8.3-12.3c1.7-2.1,2.7-5,4.5-4.8c2.5,0.3,1,2.8,3.8,4.4    c2.8,1.7,14.3-4.5,18.3-2.9c2.7,1.1-2.1,10-0.3,11.1c2.9,1.8,6.5,1,8.9,1.1c1.5,0,2,1.6,3.2,0.5c2.9-2.7-12.5,18.8-15.5,21.5    c-2.7,2.4,6.3,6,14.5,8.2c5.3,1.4,11.4,2.1,11.4,2.1L300,205c0,0-11.3-5.7-12-6c-0.2-0.1,0.7-4.4,6.4-12.1    c4.1-5.5,12.9-17.8,16.6-24.2c4.1-7.2,8.1-15.7,14.4-20.7c-4.5-6.1-6.7-14.6-11.5-24.3c-7.2-14.5-5-12.4,1.4-27.9    c-22-10.8-28-21.7-35.7-44.6c-7,4.3-19.4,6.5-28.2,8.5c-7.5,1.7-8.8-8.9-12.1-17.2c-1.8-8.1-11.6-16.7-22.9-2.4    c8.4,4.8,11.2,6.4,18.9,9.9c-0.7,3-0.9,6.8,3.6,10.3c0.2,0.2-3.9,5.3-3.8,10c0.3,10-0.9,14.3-5.8,28.2    c-4.8,13.5-1.4,8.6-19.7,12.2c-9.9,2-20,4.9-25.9,13.6c-4.6,6.7-8.4,10.6-15.6,2.5c-8.3-9.4-17.9,9.4-26.5,9.6    c-8.2,0.2-12.3-9.6-16.2-15.5c-4.2-6.4-11.6-4-14-12.1c-1.1,0.8-0.9,0-2,0.8c0.1-21.6-21.9-27.2-37.9-20.5    c-5.7,2.4-5.9,10.5-12.8,9c-9.2-1.9-16.8-4-19.6-14.3L22.2,91.2c0,0-23.5-29.8-37.4-37.1c-5.6-2.9,5-65.9,4.8-65.9    c44.2-0.9,88.3-1.8,132.5-2.7c116.2-2.4,232.5-4.8,348.7-7.2c-1,104.7-1.9,209.4-2.9,314.1C441.8,282.9,403.6,253.3,375.9,268    L375.9,268z"/>
	</a>
	<a xlink:href="Anana">
		
			<path style="fill-rule:evenodd;clip-rule:evenodd;fill:#BFBFBF;stroke:#696969;stroke-width:2;stroke-linejoin:arcs;stroke-miterlimit:10;" d="    M244.8,456.1c3.3-6.7,7.1-13.3,11.1-15.1c6.8-3,4.3,5.3,9.6-4.3c2-3.6,11.8-13,15.6-13.6c8-1.3,57.4,37.2,55.1,2.7    c7.4,2.4,17.4,3.7,24.1,7.7c8.5,5.1,6.7,15.1,19.7,11.2c22-6.7,22.3,11.2,30.1,29.6l0,0c-57.5-1.2-115-2.3-172.5-3.5    c1.7-3,3.8-8,6.2-13.1L99,458.2c0.7-9.6,1.2-21.8,7.3-27.3c-18-5.5-34.8-13.6-53.2-16.6c-11.1-1.8-15.2,3.8-23.1,1    c-0.7-4.9-5.3-8.4-10.4-4.7c-10.3,7.6-9.7,8.3-9.5,21c0.1,5.3-25.2,28.3-30,34c7.4,4.5,14.8,8.9,22.1,13.4l0,0    c27.2-1,54.4-2,81.7-3c12.7-0.5,12.5,1.4,14.4-11.3c0.2-1.3,0.4-2.8,0.5-4.3"/>
	</a>
</g>
<g id="Limit_municipis">
	<a xlink:href="Llodio Laudio">
		
			<path style="fill-rule:evenodd;clip-rule:evenodd;fill:#FFFBF0;stroke:#9A9A9A;stroke-width:2;stroke-linejoin:arcs;stroke-miterlimit:10;" d="    M286.3,61.6l-4.1,9.9l5.7,7.1l-56.4,66.6l5.7,6.5c0,0-1.7,11.9,7.6,13l42.9,33.9l38.4-57.5l-16.7-34.3l6-17.2    C315.4,89.7,294.8,77.4,286.3,61.6z"/>
	</a>
	<a xlink:href="Okondo">
		
			<path style="fill-rule:evenodd;clip-rule:evenodd;fill:#FFFBF0;stroke:#9A9A9A;stroke-width:2;stroke-linejoin:arcs;stroke-miterlimit:10;" d="    M286,61l-6.3-15.9c0,0-24.2,9.4-30.2,7.9S240,38.5,240,38.5S237,23,226.5,26s-10.1,7.7-10.1,7.7L235.5,45c0,0-1.8,4.4,3.6,9.2    c0,0-5.1,1.8-3.6,9.8s-9.5,38.5-9.5,38.5s-34.4-1.6-46.8,21.1l7.7,3.5c0,0-11.3,15.6,20,15.9c13.8,0.1,17.2-5.5,17.2-5.5l7.3,7.6    l56.4-66.6l-5.7-7.1L286,61z"/>
	</a>
	<a xlink:href="Artziniega">
		
			<path style="fill-rule:evenodd;clip-rule:evenodd;fill:#FFFBF0;stroke:#9A9A9A;stroke-width:2;stroke-linejoin:arcs;stroke-miterlimit:10;" d="    M144,129.3c0,0-7.1,2.6-12.4-7.8c-5.2-10.4-16.9-14.3-16.9-14.3l-3.3-5.2l-4.2,1.6c0,0-20.7,4.9-23.7,19.4l4.8,5.7    c0,0-24.7,32.2-17.9,40.1c6.8,7.8,28,16.9,28,16.9l11.1-8.7c0,0,8.8,11.3,6.9,20.4l19.5-14.3C135.9,183.1,147.9,157.7,144,129.3z"/>
	</a>
	<a xlink:href="Ayala Aiara">
		
			<path style="fill-rule:evenodd;clip-rule:evenodd;fill:#FFFBF0;stroke:#9A9A9A;stroke-width:2;stroke-linejoin:arcs;stroke-miterlimit:10;" d="    M179.2,123.6c0,0-5.9,2.5-9.2-1.1c-3.3-3.6-5.9-7.8-12-2.6c-6.2,5.2-14,9.4-14,9.4s2,30-8.1,53.7c0,0-33.3,21.6-44,46.8l20.6,10.9    c0,0-4.2,18.9-2.6,23.4l-4.6-1.3c0,0,1.6,29.6,2.6,31.3c1,1.6-14.1,6.4-28.7,0.6c0,0-3.2,8.2-7.1,9.2c0,0,8.8,21.2,57,21.8    c0,0,24.7,4.2,34.2,8.1c0,0-2.9-13.7,8.5-19.5c11.4-5.9,16.9-6.9,19.2-12c4.1-9,1.9-12.4,2.8-16.6c0.5-2.4,11.3-16,12.9-18.6    c0.9-1.5,0,3.9,3.3,6.2c4,2.8,19.2-4,19.2-4s-2.8,10.2-0.6,12.5c1.9,2.1,11.3,0.3,11.3,0.3s2.9-5.5,2.4-22.1    c-0.3-9.4,16-22.8,16-22.8l-2.6-23.8l2-2.9l1.9,7.4l28.5-19.3l-42.9-33.9c0,0-8.3-1.5-7.6-13l-13-14.1c0,0-7.9,8.2-26.1,5.2    c-18.2-2.9-11.1-15.6-11.1-15.6L179.2,123.6z"/>
	</a>
	
		<path style="fill-rule:evenodd;clip-rule:evenodd;fill:#FFFBF0;stroke:#9A9A9A;stroke-width:2;stroke-linejoin:arcs;stroke-miterlimit:10;" d="   M287.7,198.6l-28.5,19.3l-1.9-6.4l-2,2l2.6,23.8c0,0-16,11.7-15.6,25.1c0.3,13.4-0.3,23.8-17.6,41c0,0-3.6,4.9,8.5,7.5   c12,2.6,41,10.1,41,10.1s-14,12.4,0.3,24.1c0,0,15.1-0.7,20.6-10.9l11,2.8c0,0,23.8-25.7,30.9-24.7c7.2,1,13,2,13-7.2   c0-9.1-2.4-15-2.4-15s28.9-8.9,32.1-19.6c0,0-39.5-20.5-45-30.2c-5.5-9.8-14.3-12.4-14.3-12.4S327.8,216,287.7,198.6z"/>
	
		<path style="fill-rule:evenodd;clip-rule:evenodd;fill:#FFFBF0;stroke:#9A9A9A;stroke-width:2;stroke-linejoin:arcs;stroke-miterlimit:10;" d="   M302.9,344.3c0,0-12.7,8.5-26.4,8.5c-13.7,0-16-2.7-19,0.8c-1.5,1.8,0.3,6.5-3.1,7.7c-5.1,1.8-34.5-1-34.5-1s-9.1,15.3-3.9,18.9   c5.2,3.6,20.5,14.3,20.5,14.3s-3.3,11.7,21.5,11.7c0,0,11.2-4.6,20.4,17.4l8.5,1.1l6.3-42.9l8.5-0.3l-1.2-7.6   C300.4,372.8,313,344.3,302.9,344.3z"/>
</g>
<g id="Amurrio">
	<a xlink:href="Amurrio">
		<path style="fill-rule:evenodd;clip-rule:evenodd;fill:none;" d="M305.3,337.8c0,0,1.9-2.3,3.5-4.5c1.4-2,7.3-6.6,7.3-6.6l3.9-4    l5.9-5l4.5-3l4.4-2.1l7,0.4l5.4-0.8l1.9-1.8l1.4-2.6v-7l-1.1-7.6l-0.8-3.8c0,0,2.6-1.3,3.1-1.4s11.1-3.9,11.1-3.9l4.3-2.5l4.8-2.9    l3.3-2.3l3.8-4.4l1.2-1.8l-12.2-6.8L346.4,250l-8.3-5.5l-2.4-3.6l-2.3-3.6l-3.6-4l-5.4-4l-4-1.1l0.5-2.3l-0.9-3.8l-2.6-5.1    l-4.3-4.5l-5.6-3.9l-5.6-3l-6.3-2.9l-3.9-2.6l-4-1.4l-4.7,3.9l-14.8,9.1l-9.5,6.3l-1.3-3.8l-1.8,0.8l2.3,22.1l-7.3,7.6l-7.1,9.1    l-1.6,4.5l-0.1,3.6l0.3,9l-1.4,8.3l-2.5,7.3l-4,6.5c0,0-4.6,6.3-4.8,6.3s-3.6,3.1-3.6,3.1s-1.6,3.2-1.4,3.4s1.9,2.9,2.4,3.1    s6,2.2,6.3,2.3s6,1.4,6,1.4s9.6,1.7,9.9,1.8s7.9,1.8,7.9,1.8l6.7,2.3c0,0,4.7,1.1,4.9,1.1s6.4,1.4,6.4,1.4l-4.2,4.9l-1.2,2.8    l-1.6,5.6c0,0,1,3.6,1.1,3.9s3,5.2,3,5.2l2.5,1.8l4.6-0.5c0,0,6.1-1.9,6.4-2.1s5.1-2.9,5.1-2.9l2.3-2.3l2.2-3l6.8,1.6L305.3,337.8    c0,0,0.6,1.4,0.4,2.3c-0.3,1-3.6,4.6-3.6,4.6l-7,4.2l-14.3,3.5c0,0-6.2,0.2-6.7,0.2s-16,0.7-16,0.7l-1.3,2.9l-0.6,3.9    c0,0-1.4,1.3-2.5,1.5s-9.9,0.2-9.9,0.2l-9.7-0.6l-14.2-0.8l-2.6,4.2l-3,8.9l0.3,2.7l1.4,3l3.7,2.8l4.8,3.1l9.7,6.9l1.6,1.1    l0.9,2.5c0,0,0.9,2.8,1.1,3s1.8,2.4,2.1,2.6s2.4,1.1,2.8,1.3s5.4,1.7,5.7,1.8s3.4,0.8,4.1,0.9s5.9,0.4,5.9,0.4l1.9-0.4l3.2,0.6    l4.8,1.9c0,0,2.7,3.1,2.9,3.3s3.3,4.4,3.3,4.4s1.9,2.9,2,3.2s1.3,2.9,1.3,2.9l1.7,1.4l4.8,0.6l2.2,0.1l1.4-4.4l1.1-10.8l1.3-8.6    l1.7-11.4l1.6-7.4l7.8-0.4l-1-6.9l3.5-8.8l2.3-7.6l1.1-3.6l0.3-4.1l-0.9-3.4l-4.4-1.3"/>
	</a>
</g>
<g id="Municipis">
	<g>
		<path d="M241.6,83.5c0.3,0.3,0.5,0.7,0.7,1.2c0.2,0.5,0.2,1,0.2,1.6c0,0.6-0.1,1.1-0.2,1.6s-0.4,0.9-0.7,1.2    c-0.3,0.3-0.7,0.6-1.1,0.7c-0.4,0.2-0.9,0.2-1.4,0.2c-0.5,0-1-0.1-1.4-0.3c-0.4-0.2-0.8-0.4-1.1-0.7s-0.5-0.7-0.7-1.2    c-0.2-0.5-0.2-1-0.2-1.6c0-0.6,0.1-1.1,0.2-1.6c0.2-0.5,0.4-0.9,0.7-1.2c0.3-0.3,0.6-0.6,1.1-0.7c0.4-0.2,0.9-0.3,1.4-0.3    c0.5,0,1,0.1,1.4,0.3S241.3,83.2,241.6,83.5z M241.5,86.3c0-0.9-0.2-1.7-0.6-2.2c-0.4-0.5-1-0.8-1.7-0.8c-0.7,0-1.3,0.3-1.7,0.8    c-0.4,0.5-0.6,1.2-0.6,2.2c0,1,0.2,1.7,0.6,2.2c0.4,0.5,1,0.8,1.7,0.8s1.3-0.3,1.7-0.8C241.3,88,241.5,87.3,241.5,86.3z"/>
		<path d="M248.9,90h-1.2l-2.2-2.4l-0.6,0.6V90H244v-7.6h0.9v4.9l2.7-2.7h1.2l-2.5,2.5L248.9,90z"/>
		<path d="M254.4,87.2c0,0.9-0.2,1.6-0.7,2.1c-0.5,0.5-1.1,0.8-1.8,0.8c-0.8,0-1.4-0.3-1.8-0.8c-0.5-0.5-0.7-1.2-0.7-2.1    s0.2-1.6,0.7-2.1c0.5-0.5,1.1-0.8,1.8-0.8c0.8,0,1.4,0.3,1.8,0.8C254.2,85.6,254.4,86.3,254.4,87.2z M253.5,87.2    c0-0.7-0.1-1.2-0.4-1.6c-0.3-0.3-0.7-0.5-1.2-0.5c-0.5,0-0.9,0.2-1.2,0.5c-0.3,0.3-0.4,0.9-0.4,1.6c0,0.7,0.1,1.2,0.4,1.6    c0.3,0.4,0.7,0.5,1.2,0.5c0.5,0,0.9-0.2,1.1-0.5C253.3,88.4,253.5,87.9,253.5,87.2z"/>
		<path d="M260.4,90h-0.9v-3.1c0-0.3,0-0.5,0-0.7c0-0.2-0.1-0.4-0.2-0.5c-0.1-0.1-0.2-0.2-0.4-0.3c-0.2-0.1-0.4-0.1-0.6-0.1    c-0.3,0-0.5,0.1-0.8,0.2c-0.3,0.1-0.5,0.3-0.8,0.5V90h-0.9v-5.5h0.9v0.6c0.3-0.2,0.6-0.4,0.9-0.6c0.3-0.1,0.6-0.2,0.9-0.2    c0.6,0,1,0.2,1.3,0.5c0.3,0.4,0.5,0.9,0.5,1.5V90z"/>
		<path d="M266.6,90h-0.9v-0.6c-0.3,0.2-0.5,0.4-0.8,0.5c-0.3,0.1-0.6,0.2-0.9,0.2c-0.7,0-1.2-0.3-1.6-0.8c-0.4-0.5-0.6-1.2-0.6-2.1    c0-0.5,0.1-0.9,0.2-1.2s0.3-0.7,0.5-0.9c0.2-0.2,0.5-0.4,0.8-0.6c0.3-0.1,0.6-0.2,0.9-0.2c0.3,0,0.5,0,0.8,0.1    c0.2,0.1,0.5,0.2,0.7,0.3v-2.4h0.9V90z M265.7,88.6v-3.1c-0.2-0.1-0.5-0.2-0.7-0.2c-0.2,0-0.4-0.1-0.6-0.1c-0.5,0-0.9,0.2-1.2,0.5    c-0.3,0.4-0.4,0.9-0.4,1.5c0,0.6,0.1,1.1,0.3,1.5c0.2,0.3,0.6,0.5,1.1,0.5c0.3,0,0.5-0.1,0.8-0.2    C265.2,88.9,265.4,88.8,265.7,88.6z"/>
		<path d="M273,87.2c0,0.9-0.2,1.6-0.7,2.1c-0.5,0.5-1.1,0.8-1.8,0.8c-0.8,0-1.4-0.3-1.8-0.8c-0.5-0.5-0.7-1.2-0.7-2.1    s0.2-1.6,0.7-2.1c0.5-0.5,1.1-0.8,1.8-0.8c0.8,0,1.4,0.3,1.8,0.8C272.8,85.6,273,86.3,273,87.2z M272.1,87.2    c0-0.7-0.1-1.2-0.4-1.6c-0.3-0.3-0.7-0.5-1.2-0.5c-0.5,0-0.9,0.2-1.2,0.5c-0.3,0.3-0.4,0.9-0.4,1.6c0,0.7,0.1,1.2,0.4,1.6    c0.3,0.4,0.7,0.5,1.2,0.5c0.5,0,0.9-0.2,1.1-0.5C271.9,88.4,272.1,87.9,272.1,87.2z"/>
	</g>
	<g>
		<rect x="240.7" y="135.7" style="fill-rule:evenodd;clip-rule:evenodd;fill:none;" width="79.8" height="12.8"/>
		<path d="M249.2,146.2h-4.6V139h1v6.4h3.6V146.2z"/>
		<path d="M251,146.2h-0.9v-7.6h0.9V146.2z"/>
		<path d="M257.5,143.5c0,0.9-0.2,1.6-0.7,2.1c-0.5,0.5-1.1,0.8-1.8,0.8c-0.8,0-1.4-0.3-1.8-0.8s-0.7-1.2-0.7-2.1s0.2-1.6,0.7-2.1    s1.1-0.8,1.8-0.8c0.8,0,1.4,0.3,1.8,0.8C257.2,141.9,257.5,142.6,257.5,143.5z M256.5,143.5c0-0.7-0.1-1.2-0.4-1.6    c-0.3-0.3-0.7-0.5-1.2-0.5c-0.5,0-0.9,0.2-1.2,0.5c-0.3,0.3-0.4,0.9-0.4,1.6c0,0.7,0.1,1.2,0.4,1.6c0.3,0.4,0.7,0.5,1.2,0.5    c0.5,0,0.9-0.2,1.2-0.5S256.5,144.2,256.5,143.5z"/>
		<path d="M263.3,146.2h-0.9v-0.6c-0.3,0.2-0.5,0.4-0.8,0.5c-0.3,0.1-0.6,0.2-0.9,0.2c-0.7,0-1.2-0.3-1.5-0.8    c-0.4-0.5-0.6-1.2-0.6-2.1c0-0.5,0.1-0.9,0.2-1.2s0.3-0.7,0.5-0.9c0.2-0.2,0.5-0.4,0.8-0.6c0.3-0.1,0.6-0.2,0.9-0.2    c0.3,0,0.5,0,0.8,0.1c0.2,0.1,0.5,0.2,0.7,0.3v-2.4h0.9V146.2z M262.4,144.9v-3.1c-0.2-0.1-0.5-0.2-0.7-0.2s-0.4-0.1-0.6-0.1    c-0.5,0-0.9,0.2-1.2,0.5c-0.3,0.4-0.4,0.9-0.4,1.5c0,0.6,0.1,1.1,0.3,1.5c0.2,0.3,0.6,0.5,1.1,0.5c0.3,0,0.5-0.1,0.8-0.2    C261.9,145.2,262.2,145.1,262.4,144.9z"/>
		<path d="M266.1,139.9h-1v-1h1V139.9z M266.1,146.2h-0.9v-5.5h0.9V146.2z"/>
		<path d="M272.5,143.5c0,0.9-0.2,1.6-0.7,2.1s-1.1,0.8-1.8,0.8c-0.8,0-1.4-0.3-1.8-0.8s-0.7-1.2-0.7-2.1s0.2-1.6,0.7-2.1    s1.1-0.8,1.8-0.8c0.8,0,1.4,0.3,1.8,0.8S272.5,142.6,272.5,143.5z M271.6,143.5c0-0.7-0.1-1.2-0.4-1.6s-0.7-0.5-1.2-0.5    c-0.5,0-0.9,0.2-1.2,0.5c-0.3,0.3-0.4,0.9-0.4,1.6c0,0.7,0.1,1.2,0.4,1.6s0.7,0.5,1.2,0.5c0.5,0,0.9-0.2,1.2-0.5    S271.6,144.2,271.6,143.5z"/>
		<path d="M280.3,143.5h-3v-0.9h3V143.5z"/>
		<path d="M290.2,146.2h-4.6V139h1v6.4h3.6V146.2z"/>
		<path d="M295.3,146.2h-0.9v-0.6c-0.1,0.1-0.2,0.1-0.3,0.2c-0.1,0.1-0.3,0.2-0.4,0.2c-0.2,0.1-0.3,0.1-0.5,0.2s-0.4,0.1-0.7,0.1    c-0.5,0-0.9-0.2-1.3-0.5s-0.5-0.7-0.5-1.2c0-0.4,0.1-0.7,0.3-1c0.2-0.3,0.4-0.5,0.8-0.6c0.3-0.1,0.7-0.2,1.2-0.3s1-0.1,1.5-0.1    v-0.1c0-0.2,0-0.4-0.1-0.5s-0.2-0.2-0.3-0.3c-0.1-0.1-0.3-0.1-0.5-0.2c-0.2,0-0.4,0-0.6,0c-0.2,0-0.5,0-0.8,0.1s-0.6,0.2-0.9,0.3    h0v-0.9c0.2,0,0.4-0.1,0.8-0.2s0.7-0.1,1-0.1c0.4,0,0.7,0,1,0.1c0.3,0.1,0.5,0.2,0.7,0.3c0.2,0.1,0.4,0.3,0.5,0.6s0.2,0.5,0.2,0.9    V146.2z M294.4,144.9v-1.5c-0.3,0-0.6,0-1,0.1c-0.4,0-0.7,0.1-0.9,0.1c-0.3,0.1-0.5,0.2-0.6,0.3s-0.2,0.4-0.2,0.7    c0,0.3,0.1,0.5,0.3,0.7s0.5,0.2,0.9,0.2c0.3,0,0.6-0.1,0.9-0.2C293.9,145.2,294.2,145.1,294.4,144.9z"/>
		<path d="M301.6,146.2h-0.9v-0.6c-0.3,0.2-0.6,0.4-0.9,0.6s-0.6,0.2-0.9,0.2c-0.6,0-1-0.2-1.3-0.5c-0.3-0.4-0.5-0.9-0.5-1.5v-3.5    h0.9v3.1c0,0.3,0,0.5,0,0.7c0,0.2,0.1,0.4,0.2,0.5c0.1,0.1,0.2,0.2,0.3,0.3c0.1,0.1,0.3,0.1,0.6,0.1c0.2,0,0.5-0.1,0.8-0.2    c0.3-0.1,0.5-0.3,0.8-0.5v-4.1h0.9V146.2z"/>
		<path d="M307.8,146.2h-0.9v-0.6c-0.3,0.2-0.5,0.4-0.8,0.5c-0.3,0.1-0.6,0.2-0.9,0.2c-0.7,0-1.2-0.3-1.6-0.8    c-0.4-0.5-0.6-1.2-0.6-2.1c0-0.5,0.1-0.9,0.2-1.2s0.3-0.7,0.5-0.9c0.2-0.2,0.5-0.4,0.8-0.6s0.6-0.2,0.9-0.2c0.3,0,0.5,0,0.8,0.1    c0.2,0.1,0.5,0.2,0.7,0.3v-2.4h0.9V146.2z M306.9,144.9v-3.1c-0.2-0.1-0.5-0.2-0.7-0.2s-0.4-0.1-0.6-0.1c-0.5,0-0.9,0.2-1.2,0.5    c-0.3,0.4-0.4,0.9-0.4,1.5c0,0.6,0.1,1.1,0.3,1.5c0.2,0.3,0.6,0.5,1.1,0.5c0.3,0,0.5-0.1,0.8-0.2    C306.4,145.2,306.7,145.1,306.9,144.9z"/>
		<path d="M310.6,139.9h-1v-1h1V139.9z M310.6,146.2h-0.9v-5.5h0.9V146.2z"/>
		<path d="M317,143.5c0,0.9-0.2,1.6-0.7,2.1c-0.5,0.5-1.1,0.8-1.8,0.8c-0.8,0-1.4-0.3-1.8-0.8s-0.7-1.2-0.7-2.1s0.2-1.6,0.7-2.1    s1.1-0.8,1.8-0.8c0.8,0,1.4,0.3,1.8,0.8C316.8,141.9,317,142.6,317,143.5z M316.1,143.5c0-0.7-0.1-1.2-0.4-1.6    c-0.3-0.3-0.7-0.5-1.2-0.5c-0.5,0-0.9,0.2-1.2,0.5s-0.4,0.9-0.4,1.6c0,0.7,0.1,1.2,0.4,1.6c0.3,0.4,0.7,0.5,1.2,0.5    c0.5,0,0.9-0.2,1.1-0.5S316.1,144.2,316.1,143.5z"/>
	</g>
	<g>
		<path d="M91.1,153.7h-1l-0.7-2h-3.1l-0.7,2h-1l2.6-7.3h1.3L91.1,153.7z M89.1,150.8l-1.3-3.6l-1.3,3.6H89.1z"/>
		<path d="M95.5,149.2L95.5,149.2c-0.2,0-0.3-0.1-0.4-0.1c-0.1,0-0.3,0-0.5,0c-0.3,0-0.6,0.1-0.8,0.2c-0.3,0.1-0.5,0.3-0.8,0.5v3.9    h-0.9v-5.5h0.9v0.8c0.4-0.3,0.7-0.5,1-0.6c0.3-0.1,0.6-0.2,0.9-0.2c0.2,0,0.3,0,0.3,0c0.1,0,0.2,0,0.3,0V149.2z"/>
		<path d="M99.2,153.6c-0.2,0-0.4,0.1-0.6,0.1c-0.2,0-0.4,0-0.5,0c-0.6,0-1-0.1-1.3-0.4c-0.3-0.3-0.4-0.8-0.4-1.4V149h-0.6v-0.8h0.6    v-1.6h0.9v1.6h1.9v0.8h-1.9v2.5c0,0.3,0,0.5,0,0.7c0,0.2,0.1,0.3,0.1,0.5c0.1,0.1,0.2,0.2,0.3,0.3c0.1,0.1,0.3,0.1,0.6,0.1    c0.1,0,0.3,0,0.5-0.1c0.2,0,0.3-0.1,0.4-0.1h0V153.6z"/>
		<path d="M104.3,153.7h-4.4V153l3.2-4H100v-0.8h4.3v0.7l-3.2,4h3.3V153.7z"/>
		<path d="M106.6,147.3h-1v-1h1V147.3z M106.5,153.7h-0.9v-5.5h0.9V153.7z"/>
		<path d="M112.9,153.7H112v-3.1c0-0.3,0-0.5,0-0.7s-0.1-0.4-0.2-0.5c-0.1-0.1-0.2-0.2-0.4-0.3c-0.2-0.1-0.4-0.1-0.6-0.1    c-0.3,0-0.5,0.1-0.8,0.2c-0.3,0.1-0.5,0.3-0.8,0.5v4.1h-0.9v-5.5h0.9v0.6c0.3-0.2,0.6-0.4,0.9-0.6c0.3-0.1,0.6-0.2,0.9-0.2    c0.6,0,1,0.2,1.3,0.5c0.3,0.4,0.5,0.9,0.5,1.5V153.7z"/>
		<path d="M115.7,147.3h-1v-1h1V147.3z M115.6,153.7h-0.9v-5.5h0.9V153.7z"/>
		<path d="M122,151h-4c0,0.3,0.1,0.6,0.2,0.9c0.1,0.2,0.2,0.5,0.4,0.6c0.2,0.2,0.4,0.3,0.6,0.4c0.2,0.1,0.5,0.1,0.8,0.1    c0.4,0,0.7-0.1,1.1-0.2c0.4-0.1,0.6-0.3,0.8-0.4h0v1c-0.3,0.1-0.6,0.2-0.9,0.3c-0.3,0.1-0.7,0.1-1,0.1c-0.9,0-1.6-0.2-2.1-0.7    c-0.5-0.5-0.8-1.2-0.8-2.1c0-0.9,0.2-1.6,0.7-2.1c0.5-0.5,1.1-0.8,1.9-0.8c0.7,0,1.3,0.2,1.7,0.6c0.4,0.4,0.6,1,0.6,1.8V151z     M121.1,150.3c0-0.5-0.1-0.9-0.4-1.1s-0.6-0.4-1.1-0.4c-0.5,0-0.9,0.1-1.2,0.4c-0.3,0.3-0.5,0.6-0.5,1.1H121.1z"/>
		<path d="M127.8,153c0,0.9-0.2,1.6-0.6,2c-0.4,0.4-1.1,0.6-1.9,0.6c-0.3,0-0.6,0-0.8-0.1c-0.3,0-0.5-0.1-0.8-0.2v-0.9h0    c0.1,0.1,0.4,0.1,0.7,0.2c0.3,0.1,0.7,0.1,1,0.1c0.3,0,0.6,0,0.8-0.1c0.2-0.1,0.4-0.2,0.5-0.3c0.1-0.1,0.2-0.3,0.2-0.5    c0-0.2,0.1-0.4,0.1-0.6v-0.5c-0.3,0.2-0.5,0.4-0.8,0.5c-0.3,0.1-0.6,0.2-1,0.2c-0.7,0-1.2-0.2-1.6-0.7c-0.4-0.5-0.6-1.1-0.6-2    c0-0.5,0.1-0.9,0.2-1.2c0.1-0.3,0.3-0.6,0.5-0.9c0.2-0.2,0.5-0.4,0.8-0.5c0.3-0.1,0.6-0.2,0.9-0.2c0.3,0,0.6,0,0.8,0.1    c0.2,0.1,0.4,0.2,0.7,0.3l0.1-0.2h0.9V153z M126.9,152.2v-3c-0.2-0.1-0.5-0.2-0.7-0.2c-0.2,0-0.4-0.1-0.6-0.1    c-0.5,0-0.9,0.2-1.2,0.5c-0.3,0.3-0.4,0.8-0.4,1.5c0,0.6,0.1,1.1,0.3,1.4c0.2,0.3,0.6,0.5,1.1,0.5c0.3,0,0.5-0.1,0.8-0.2    C126.4,152.5,126.6,152.3,126.9,152.2z"/>
		<path d="M133.8,153.7h-0.9v-0.6c-0.1,0.1-0.2,0.1-0.3,0.2c-0.1,0.1-0.3,0.2-0.4,0.2c-0.2,0.1-0.3,0.1-0.5,0.2    c-0.2,0.1-0.4,0.1-0.7,0.1c-0.5,0-0.9-0.2-1.2-0.5c-0.3-0.3-0.5-0.7-0.5-1.2c0-0.4,0.1-0.7,0.3-1c0.2-0.3,0.4-0.5,0.8-0.6    c0.3-0.1,0.7-0.2,1.2-0.3c0.5-0.1,1-0.1,1.5-0.1v-0.1c0-0.2,0-0.4-0.1-0.5s-0.2-0.2-0.3-0.3c-0.1-0.1-0.3-0.1-0.5-0.2    c-0.2,0-0.4,0-0.6,0c-0.2,0-0.5,0-0.8,0.1c-0.3,0.1-0.6,0.2-0.9,0.3h0v-0.9c0.2,0,0.4-0.1,0.8-0.2c0.3-0.1,0.7-0.1,1-0.1    c0.4,0,0.7,0,1,0.1c0.3,0.1,0.5,0.2,0.7,0.3c0.2,0.1,0.4,0.3,0.5,0.6c0.1,0.2,0.2,0.5,0.2,0.9V153.7z M132.9,152.3v-1.5    c-0.3,0-0.6,0-1,0.1c-0.4,0-0.7,0.1-0.9,0.1c-0.3,0.1-0.5,0.2-0.6,0.3c-0.2,0.2-0.2,0.4-0.2,0.7c0,0.3,0.1,0.5,0.3,0.7    c0.2,0.2,0.5,0.2,0.9,0.2c0.3,0,0.6-0.1,0.9-0.2C132.4,152.6,132.7,152.5,132.9,152.3z"/>
	</g>
	<g>
		<rect x="147" y="212.9" style="fill-rule:evenodd;clip-rule:evenodd;fill:none;" width="72.6" height="11"/>
		<path d="M157.8,223.5h-1l-0.7-2h-3.1l-0.7,2h-1l2.6-7.3h1.3L157.8,223.5z M155.8,220.6l-1.3-3.6l-1.3,3.6H155.8z"/>
		<path d="M163.3,218l-3.2,7.5h-1l1-2.3L158,218h1l1.7,4l1.7-4H163.3z"/>
		<path d="M168.6,223.5h-0.9v-0.6c-0.1,0.1-0.2,0.1-0.3,0.2s-0.3,0.2-0.4,0.2c-0.2,0.1-0.3,0.1-0.5,0.2s-0.4,0.1-0.7,0.1    c-0.5,0-0.9-0.2-1.3-0.5s-0.5-0.7-0.5-1.2c0-0.4,0.1-0.7,0.3-1s0.4-0.5,0.8-0.6c0.3-0.1,0.7-0.2,1.2-0.3s1-0.1,1.5-0.1v-0.1    c0-0.2,0-0.4-0.1-0.5s-0.2-0.2-0.3-0.3c-0.1-0.1-0.3-0.1-0.5-0.2s-0.4,0-0.6,0c-0.2,0-0.5,0-0.8,0.1s-0.6,0.2-0.9,0.3h0v-0.9    c0.2,0,0.4-0.1,0.8-0.2s0.7-0.1,1-0.1c0.4,0,0.7,0,1,0.1s0.5,0.2,0.7,0.3c0.2,0.1,0.4,0.3,0.5,0.6s0.2,0.5,0.2,0.9V223.5z     M167.7,222.1v-1.5c-0.3,0-0.6,0-1,0.1s-0.7,0.1-0.9,0.1c-0.3,0.1-0.5,0.2-0.6,0.3s-0.2,0.4-0.2,0.7c0,0.3,0.1,0.5,0.3,0.7    s0.5,0.2,0.9,0.2c0.3,0,0.6-0.1,0.9-0.2S167.4,222.3,167.7,222.1z"/>
		<path d="M171.3,223.5h-0.9v-7.6h0.9V223.5z"/>
		<path d="M177.3,223.5h-0.9v-0.6c-0.1,0.1-0.2,0.1-0.3,0.2c-0.1,0.1-0.3,0.2-0.4,0.2c-0.2,0.1-0.3,0.1-0.5,0.2    c-0.2,0.1-0.4,0.1-0.7,0.1c-0.5,0-0.9-0.2-1.3-0.5s-0.5-0.7-0.5-1.2c0-0.4,0.1-0.7,0.3-1c0.2-0.3,0.4-0.5,0.8-0.6    c0.3-0.1,0.7-0.2,1.2-0.3c0.5-0.1,1-0.1,1.5-0.1v-0.1c0-0.2,0-0.4-0.1-0.5s-0.2-0.2-0.3-0.3c-0.1-0.1-0.3-0.1-0.5-0.2    c-0.2,0-0.4,0-0.6,0c-0.2,0-0.5,0-0.8,0.1c-0.3,0.1-0.6,0.2-0.9,0.3h0v-0.9c0.2,0,0.4-0.1,0.8-0.2c0.3-0.1,0.7-0.1,1-0.1    c0.4,0,0.7,0,1,0.1c0.3,0.1,0.5,0.2,0.7,0.3c0.2,0.1,0.4,0.3,0.5,0.6s0.2,0.5,0.2,0.9V223.5z M176.4,222.1v-1.5    c-0.3,0-0.6,0-1,0.1c-0.4,0-0.7,0.1-0.9,0.1c-0.3,0.1-0.5,0.2-0.6,0.3c-0.2,0.2-0.2,0.4-0.2,0.7c0,0.3,0.1,0.5,0.3,0.7    c0.2,0.2,0.5,0.2,0.9,0.2c0.3,0,0.6-0.1,0.9-0.2C175.9,222.4,176.2,222.3,176.4,222.1z"/>
		<path d="M185.5,220.7h-3v-0.9h3V220.7z"/>
		<path d="M196.5,223.5h-1l-0.7-2h-3.1l-0.7,2h-1l2.6-7.3h1.3L196.5,223.5z M194.4,220.6l-1.3-3.6l-1.3,3.6H194.4z"/>
		<path d="M198.5,217.1h-1v-1h1V217.1z M198.4,223.5h-0.9V218h0.9V223.5z"/>
		<path d="M204.5,223.5h-0.9v-0.6c-0.1,0.1-0.2,0.1-0.3,0.2s-0.3,0.2-0.4,0.2c-0.2,0.1-0.3,0.1-0.5,0.2s-0.4,0.1-0.7,0.1    c-0.5,0-0.9-0.2-1.3-0.5s-0.5-0.7-0.5-1.2c0-0.4,0.1-0.7,0.3-1s0.4-0.5,0.8-0.6c0.3-0.1,0.7-0.2,1.2-0.3s1-0.1,1.5-0.1v-0.1    c0-0.2,0-0.4-0.1-0.5s-0.2-0.2-0.3-0.3c-0.1-0.1-0.3-0.1-0.5-0.2s-0.4,0-0.6,0c-0.2,0-0.5,0-0.8,0.1s-0.6,0.2-0.9,0.3h0v-0.9    c0.2,0,0.4-0.1,0.8-0.2s0.7-0.1,1-0.1c0.4,0,0.7,0,1,0.1s0.5,0.2,0.7,0.3c0.2,0.1,0.4,0.3,0.5,0.6s0.2,0.5,0.2,0.9V223.5z     M203.6,222.1v-1.5c-0.3,0-0.6,0-1,0.1s-0.7,0.1-0.9,0.1c-0.3,0.1-0.5,0.2-0.6,0.3s-0.2,0.4-0.2,0.7c0,0.3,0.1,0.5,0.3,0.7    s0.5,0.2,0.9,0.2c0.3,0,0.6-0.1,0.9-0.2S203.3,222.3,203.6,222.1z"/>
		<path d="M209.7,219L209.7,219c-0.2,0-0.3-0.1-0.4-0.1c-0.1,0-0.3,0-0.5,0c-0.3,0-0.6,0.1-0.8,0.2s-0.5,0.3-0.8,0.5v3.9h-0.9V218    h0.9v0.8c0.4-0.3,0.7-0.5,1-0.6s0.6-0.2,0.9-0.2c0.2,0,0.3,0,0.3,0c0.1,0,0.2,0,0.3,0V219z"/>
		<path d="M214.6,223.5h-0.9v-0.6c-0.1,0.1-0.2,0.1-0.3,0.2c-0.1,0.1-0.3,0.2-0.4,0.2c-0.2,0.1-0.3,0.1-0.5,0.2    c-0.2,0.1-0.4,0.1-0.7,0.1c-0.5,0-0.9-0.2-1.3-0.5s-0.5-0.7-0.5-1.2c0-0.4,0.1-0.7,0.3-1c0.2-0.3,0.4-0.5,0.8-0.6    c0.3-0.1,0.7-0.2,1.2-0.3c0.5-0.1,1-0.1,1.5-0.1v-0.1c0-0.2,0-0.4-0.1-0.5s-0.2-0.2-0.3-0.3c-0.1-0.1-0.3-0.1-0.5-0.2    c-0.2,0-0.4,0-0.6,0c-0.2,0-0.5,0-0.8,0.1c-0.3,0.1-0.6,0.2-0.9,0.3h0v-0.9c0.2,0,0.4-0.1,0.8-0.2c0.3-0.1,0.7-0.1,1-0.1    c0.4,0,0.7,0,1,0.1c0.3,0.1,0.5,0.2,0.7,0.3c0.2,0.1,0.4,0.3,0.5,0.6s0.2,0.5,0.2,0.9V223.5z M213.7,222.1v-1.5    c-0.3,0-0.6,0-1,0.1c-0.4,0-0.7,0.1-0.9,0.1c-0.3,0.1-0.5,0.2-0.6,0.3c-0.2,0.2-0.2,0.4-0.2,0.7c0,0.3,0.1,0.5,0.3,0.7    c0.2,0.2,0.5,0.2,0.9,0.2c0.3,0,0.6-0.1,0.9-0.2C213.2,222.4,213.4,222.3,213.7,222.1z"/>
	</g>
	<g>
		<path d="M282.9,277.8h-1l-0.7-2H278l-0.7,2h-1l2.6-7.3h1.3L282.9,277.8z M280.8,274.9l-1.3-3.6l-1.3,3.6H280.8z"/>
		<path d="M291.9,277.8h-0.9v-3.1c0-0.2,0-0.5,0-0.7c0-0.2-0.1-0.4-0.1-0.5c-0.1-0.1-0.2-0.2-0.3-0.3c-0.1-0.1-0.3-0.1-0.6-0.1    c-0.3,0-0.5,0.1-0.8,0.2c-0.3,0.1-0.5,0.3-0.8,0.5c0,0.1,0,0.2,0,0.3c0,0.1,0,0.2,0,0.3v3.5h-0.9v-3.1c0-0.2,0-0.5,0-0.7    c0-0.2-0.1-0.4-0.1-0.5c-0.1-0.1-0.2-0.2-0.3-0.3c-0.1-0.1-0.3-0.1-0.6-0.1c-0.3,0-0.5,0.1-0.8,0.2c-0.3,0.1-0.5,0.3-0.8,0.5v4.1    h-0.9v-5.5h0.9v0.6c0.3-0.2,0.6-0.4,0.9-0.6c0.3-0.1,0.6-0.2,0.9-0.2c0.4,0,0.7,0.1,0.9,0.2c0.3,0.2,0.5,0.4,0.6,0.6    c0.4-0.3,0.7-0.5,1-0.7c0.3-0.1,0.6-0.2,1-0.2c0.6,0,1,0.2,1.3,0.5c0.3,0.4,0.4,0.9,0.4,1.5V277.8z"/>
		<path d="M298.1,277.8h-0.9v-0.6c-0.3,0.2-0.6,0.4-0.9,0.6c-0.3,0.1-0.6,0.2-0.9,0.2c-0.6,0-1-0.2-1.3-0.5    c-0.3-0.3-0.5-0.9-0.5-1.5v-3.5h0.9v3.1c0,0.3,0,0.5,0,0.7c0,0.2,0.1,0.4,0.2,0.5c0.1,0.1,0.2,0.2,0.3,0.3    c0.1,0.1,0.3,0.1,0.6,0.1c0.2,0,0.5-0.1,0.8-0.2c0.3-0.1,0.5-0.3,0.8-0.5v-4.1h0.9V277.8z"/>
		<path d="M303.4,273.3L303.4,273.3c-0.2,0-0.3-0.1-0.4-0.1c-0.1,0-0.3,0-0.5,0c-0.3,0-0.6,0.1-0.8,0.2c-0.3,0.1-0.5,0.3-0.8,0.5    v3.9H300v-5.5h0.9v0.8c0.4-0.3,0.7-0.5,1-0.6s0.6-0.2,0.9-0.2c0.2,0,0.3,0,0.3,0c0.1,0,0.2,0,0.3,0V273.3z"/>
		<path d="M307.6,273.3L307.6,273.3c-0.2,0-0.3-0.1-0.4-0.1c-0.1,0-0.3,0-0.5,0c-0.3,0-0.6,0.1-0.8,0.2c-0.3,0.1-0.5,0.3-0.8,0.5    v3.9h-0.9v-5.5h0.9v0.8c0.4-0.3,0.7-0.5,1-0.6s0.6-0.2,0.9-0.2c0.2,0,0.3,0,0.3,0c0.1,0,0.2,0,0.3,0V273.3z"/>
		<path d="M309.5,271.4h-1v-1h1V271.4z M309.4,277.8h-0.9v-5.5h0.9V277.8z"/>
		<path d="M315.9,275.1c0,0.9-0.2,1.6-0.7,2.1c-0.5,0.5-1.1,0.8-1.8,0.8c-0.8,0-1.4-0.3-1.8-0.8c-0.5-0.5-0.7-1.2-0.7-2.1    s0.2-1.6,0.7-2.1c0.5-0.5,1.1-0.8,1.8-0.8c0.8,0,1.4,0.3,1.8,0.8C315.7,273.5,315.9,274.2,315.9,275.1z M314.9,275.1    c0-0.7-0.1-1.2-0.4-1.6c-0.3-0.3-0.7-0.5-1.2-0.5c-0.5,0-0.9,0.2-1.2,0.5c-0.3,0.3-0.4,0.9-0.4,1.6c0,0.7,0.1,1.2,0.4,1.6    c0.3,0.4,0.7,0.5,1.2,0.5c0.5,0,0.9-0.2,1.1-0.5C314.8,276.3,314.9,275.8,314.9,275.1z"/>
	</g>
</g>
<g id="text_x005F_exterior">
	<g>
		<rect x="25.3" y="235.1" style="fill-rule:evenodd;clip-rule:evenodd;fill:none;" width="47.3" height="11"/>
		<path d="M36.3,243.6c0,0.4-0.1,0.7-0.2,0.9s-0.3,0.5-0.6,0.7c-0.3,0.2-0.6,0.4-0.9,0.5s-0.8,0.1-1.3,0.1h-3.2v-7.3h2.8    c0.6,0,1,0,1.3,0.1s0.5,0.1,0.8,0.3c0.3,0.1,0.5,0.3,0.6,0.6c0.1,0.2,0.2,0.5,0.2,0.8c0,0.4-0.1,0.7-0.3,0.9    c-0.2,0.3-0.4,0.5-0.8,0.6v0c0.5,0.1,0.9,0.3,1.1,0.6S36.3,243.1,36.3,243.6z M33.9,240.6c0-0.1,0-0.2-0.1-0.4s-0.2-0.2-0.3-0.3    c-0.1-0.1-0.3-0.1-0.5-0.1c-0.2,0-0.5,0-0.9,0H32v1.5h0.3c0.3,0,0.5,0,0.8,0s0.4,0,0.5-0.1c0.2-0.1,0.3-0.2,0.3-0.3    C33.9,240.9,33.9,240.8,33.9,240.6z M34.4,243.6c0-0.2,0-0.4-0.1-0.5c-0.1-0.1-0.2-0.2-0.5-0.3c-0.1,0-0.3-0.1-0.6-0.1    s-0.5,0-0.8,0H32v1.8h0.1c0.5,0,0.9,0,1.1,0c0.2,0,0.4,0,0.6-0.1c0.2-0.1,0.3-0.2,0.4-0.3C34.3,243.9,34.4,243.8,34.4,243.6z"/>
		<path d="M43.1,245.8h-1.8v-0.6c-0.3,0.2-0.6,0.4-0.9,0.6c-0.3,0.1-0.6,0.2-1,0.2c-0.6,0-1.1-0.2-1.4-0.5s-0.5-0.9-0.5-1.5v-3.6    h1.8v2.7c0,0.3,0,0.5,0,0.7c0,0.2,0.1,0.3,0.1,0.5c0.1,0.1,0.2,0.2,0.3,0.3s0.3,0.1,0.5,0.1c0.1,0,0.3,0,0.5-0.1s0.4-0.1,0.5-0.2    v-3.9h1.8V245.8z"/>
		<path d="M48.7,242h-0.2c-0.1,0-0.2,0-0.4-0.1c-0.2,0-0.3,0-0.4,0c-0.3,0-0.5,0-0.7,0c-0.2,0-0.4,0.1-0.6,0.2v3.7h-1.8v-5.5h1.8    v0.8c0.4-0.3,0.7-0.6,1-0.7c0.3-0.1,0.5-0.2,0.8-0.2c0.1,0,0.1,0,0.2,0s0.1,0,0.2,0V242z"/>
		<path d="M55,245.2c0,0.5-0.1,0.9-0.2,1.3s-0.4,0.6-0.6,0.8c-0.3,0.2-0.6,0.3-1,0.4c-0.4,0.1-0.8,0.1-1.3,0.1c-0.4,0-0.8,0-1.1-0.1    s-0.7-0.1-1-0.2v-1.4h0.2c0.2,0.1,0.5,0.2,0.8,0.2c0.3,0.1,0.6,0.1,0.8,0.1c0.3,0,0.6,0,0.8-0.1c0.2-0.1,0.4-0.1,0.5-0.3    c0.1-0.1,0.2-0.2,0.2-0.4s0.1-0.4,0.1-0.6v-0.1c-0.2,0.2-0.4,0.3-0.7,0.4s-0.5,0.2-0.9,0.2c-0.8,0-1.4-0.2-1.8-0.7    c-0.4-0.5-0.6-1.2-0.6-2.1c0-0.5,0.1-0.8,0.2-1.2c0.1-0.3,0.3-0.6,0.5-0.9c0.2-0.2,0.5-0.4,0.8-0.5c0.3-0.1,0.6-0.2,1-0.2    c0.3,0,0.6,0,0.8,0.1c0.2,0.1,0.5,0.2,0.7,0.3l0.1-0.2H55V245.2z M53.3,244.1v-2.5c-0.1,0-0.2-0.1-0.4-0.1c-0.1,0-0.3,0-0.4,0    c-0.5,0-0.8,0.1-1,0.4c-0.2,0.3-0.3,0.6-0.3,1.1c0,0.5,0.1,0.9,0.3,1.1c0.2,0.2,0.5,0.3,0.9,0.3c0.2,0,0.3,0,0.5-0.1    S53.1,244.2,53.3,244.1z"/>
		<path d="M62.3,243.1c0,0.9-0.3,1.6-0.8,2.1c-0.5,0.5-1.3,0.8-2.2,0.8s-1.7-0.3-2.2-0.8c-0.5-0.5-0.8-1.2-0.8-2.1    c0-0.9,0.3-1.6,0.8-2.1s1.3-0.8,2.2-0.8c1,0,1.7,0.3,2.2,0.8S62.3,242.2,62.3,243.1z M60.1,244.4c0.1-0.1,0.2-0.3,0.3-0.5    c0.1-0.2,0.1-0.5,0.1-0.8c0-0.3,0-0.6-0.1-0.8s-0.1-0.4-0.2-0.5c-0.1-0.1-0.2-0.2-0.4-0.3s-0.3-0.1-0.5-0.1s-0.3,0-0.5,0.1    s-0.3,0.1-0.4,0.3c-0.1,0.1-0.2,0.3-0.3,0.5s-0.1,0.5-0.1,0.8c0,0.3,0,0.6,0.1,0.8c0.1,0.2,0.1,0.4,0.2,0.5    c0.1,0.1,0.2,0.2,0.4,0.3s0.3,0.1,0.5,0.1c0.2,0,0.3,0,0.5-0.1C59.9,244.6,60,244.6,60.1,244.4z"/>
		<path d="M68.3,244.1c0,0.6-0.3,1-0.8,1.4c-0.5,0.3-1.2,0.5-2.1,0.5c-0.5,0-0.9,0-1.3-0.1s-0.7-0.2-1-0.3v-1.4h0.2    c0.1,0.1,0.2,0.1,0.3,0.2c0.1,0.1,0.3,0.2,0.5,0.2c0.2,0.1,0.4,0.1,0.6,0.2c0.2,0.1,0.5,0.1,0.7,0.1c0.3,0,0.6,0,0.8-0.1    c0.2-0.1,0.2-0.2,0.2-0.3c0-0.1,0-0.2-0.1-0.3c-0.1-0.1-0.3-0.1-0.6-0.2c-0.1,0-0.3-0.1-0.5-0.1c-0.2,0-0.4-0.1-0.6-0.1    c-0.5-0.1-0.9-0.3-1.1-0.6c-0.2-0.3-0.4-0.6-0.4-1c0-0.5,0.3-1,0.7-1.3c0.5-0.4,1.2-0.5,2-0.5c0.4,0,0.8,0,1.2,0.1    c0.4,0.1,0.7,0.2,0.9,0.3v1.4h-0.2c-0.3-0.2-0.6-0.3-0.9-0.4c-0.3-0.1-0.7-0.2-1-0.2c-0.3,0-0.5,0-0.7,0.1s-0.3,0.2-0.3,0.3    c0,0.1,0,0.2,0.1,0.3s0.3,0.1,0.6,0.2c0.2,0,0.4,0.1,0.6,0.1c0.2,0,0.4,0.1,0.6,0.1c0.5,0.1,0.8,0.3,1,0.6    C68.2,243.4,68.3,243.7,68.3,244.1z"/>
	</g>
	<g>
		<rect x="29" y="428.6" style="fill-rule:evenodd;clip-rule:evenodd;fill:none;" width="45.2" height="15.3"/>
		<path d="M41.6,439.3h-1.9l-0.5-1.5h-2.7l-0.5,1.5h-1.9l2.7-7.3h2.2L41.6,439.3z M38.7,436.5l-0.9-2.6l-0.9,2.6H38.7z"/>
		<path d="M48,439.3h-1.8v-2.7c0-0.2,0-0.4,0-0.7c0-0.2-0.1-0.4-0.1-0.5c-0.1-0.1-0.2-0.2-0.3-0.3c-0.1-0.1-0.3-0.1-0.5-0.1    c-0.2,0-0.3,0-0.5,0.1c-0.2,0.1-0.3,0.1-0.5,0.2v3.9h-1.8v-5.5h1.8v0.6c0.3-0.2,0.6-0.4,0.9-0.6s0.6-0.2,1-0.2    c0.6,0,1.1,0.2,1.4,0.5c0.3,0.3,0.5,0.9,0.5,1.5V439.3z M47.5,431.4c0,0.5-0.2,1-0.4,1.2c-0.2,0.3-0.6,0.4-1,0.4    c-0.2,0-0.3,0-0.4-0.1c-0.1-0.1-0.3-0.1-0.4-0.2c-0.1-0.1-0.2-0.1-0.3-0.2c-0.1-0.1-0.2-0.1-0.3-0.1c-0.2,0-0.3,0.1-0.3,0.2    s-0.1,0.3-0.1,0.4h-1.1c0-0.5,0.2-0.9,0.4-1.2c0.3-0.3,0.6-0.4,1-0.4c0.2,0,0.3,0,0.4,0.1c0.1,0.1,0.3,0.1,0.4,0.2    c0.1,0.1,0.2,0.1,0.3,0.2c0.1,0.1,0.2,0.1,0.3,0.1c0.2,0,0.3-0.1,0.3-0.2s0.1-0.2,0.1-0.4H47.5z"/>
		<path d="M53,438.7c-0.1,0.1-0.2,0.2-0.4,0.3c-0.1,0.1-0.3,0.2-0.4,0.2c-0.2,0.1-0.4,0.1-0.5,0.2c-0.2,0-0.4,0.1-0.6,0.1    c-0.5,0-1-0.2-1.3-0.5s-0.5-0.7-0.5-1.2c0-0.4,0.1-0.7,0.3-1c0.2-0.3,0.4-0.5,0.8-0.6c0.3-0.1,0.7-0.3,1.2-0.3    c0.5-0.1,1-0.1,1.5-0.1v0c0-0.3-0.1-0.5-0.4-0.6c-0.2-0.1-0.6-0.2-1.1-0.2c-0.3,0-0.6,0.1-0.9,0.2c-0.3,0.1-0.6,0.2-0.7,0.2h-0.2    v-1.3c0.2,0,0.5-0.1,0.9-0.2c0.4-0.1,0.8-0.1,1.3-0.1c1,0,1.7,0.2,2.2,0.5c0.4,0.3,0.7,0.8,0.7,1.4v3.7H53V438.7z M53,437.9v-1.1    c-0.2,0-0.5,0-0.8,0.1c-0.3,0-0.5,0.1-0.6,0.1c-0.2,0.1-0.3,0.1-0.4,0.2s-0.1,0.2-0.1,0.4c0,0.1,0,0.2,0,0.3s0.1,0.1,0.1,0.2    c0.1,0.1,0.2,0.1,0.3,0.1c0.1,0,0.3,0,0.5,0c0.2,0,0.4,0,0.5-0.1C52.7,438.1,52.8,438,53,437.9z"/>
		<path d="M61.8,439.3h-1.8v-2.7c0-0.2,0-0.4,0-0.7c0-0.2-0.1-0.4-0.1-0.5c-0.1-0.1-0.2-0.2-0.3-0.3c-0.1-0.1-0.3-0.1-0.5-0.1    c-0.2,0-0.3,0-0.5,0.1c-0.2,0.1-0.3,0.1-0.5,0.2v3.9h-1.8v-5.5h1.8v0.6c0.3-0.2,0.6-0.4,0.9-0.6s0.6-0.2,1-0.2    c0.6,0,1.1,0.2,1.4,0.5c0.3,0.3,0.5,0.9,0.5,1.5V439.3z"/>
		<path d="M66.8,438.7c-0.1,0.1-0.2,0.2-0.4,0.3c-0.1,0.1-0.3,0.2-0.4,0.2c-0.2,0.1-0.4,0.1-0.5,0.2c-0.2,0-0.4,0.1-0.6,0.1    c-0.5,0-1-0.2-1.3-0.5s-0.5-0.7-0.5-1.2c0-0.4,0.1-0.7,0.3-1c0.2-0.3,0.4-0.5,0.8-0.6c0.3-0.1,0.7-0.3,1.2-0.3    c0.5-0.1,1-0.1,1.5-0.1v0c0-0.3-0.1-0.5-0.4-0.6c-0.2-0.1-0.6-0.2-1.1-0.2c-0.3,0-0.6,0.1-0.9,0.2c-0.3,0.1-0.6,0.2-0.7,0.2h-0.2    v-1.3c0.2,0,0.5-0.1,0.9-0.2c0.4-0.1,0.8-0.1,1.3-0.1c1,0,1.7,0.2,2.2,0.5c0.4,0.3,0.7,0.8,0.7,1.4v3.7h-1.7V438.7z M66.8,437.9    v-1.1c-0.2,0-0.5,0-0.8,0.1c-0.3,0-0.5,0.1-0.6,0.1c-0.2,0.1-0.3,0.1-0.4,0.2s-0.1,0.2-0.1,0.4c0,0.1,0,0.2,0,0.3s0.1,0.1,0.1,0.2    c0.1,0.1,0.2,0.1,0.3,0.1c0.1,0,0.3,0,0.5,0c0.2,0,0.4,0,0.5-0.1C66.5,438.1,66.6,438,66.8,437.9z"/>
	</g>
	<g>
		<rect x="344" y="53.4" style="fill-rule:evenodd;clip-rule:evenodd;fill:none;" width="66" height="25"/>
		<path d="M358.7,56.8l-2.7,7.3h-2.1l-2.7-7.3h2l1.8,5.1l1.8-5.1H358.7z"/>
		<path d="M361.4,57.8h-1.9v-1.3h1.9V57.8z M361.4,64.1h-1.8v-5.5h1.8V64.1z"/>
		<path d="M367.8,64.1h-5.2v-1.1l2.9-3.1h-2.8v-1.3h5v1.1l-2.8,3.1h2.9V64.1z"/>
		<path d="M374.8,64.1h-2l-1.5-2.4l-0.5,0.6v1.8H369v-7.6h1.8V61l1.9-2.4h2l-2,2.4L374.8,64.1z"/>
		<path d="M379,63.5c-0.1,0.1-0.2,0.2-0.4,0.3c-0.1,0.1-0.3,0.2-0.4,0.2c-0.2,0.1-0.4,0.1-0.5,0.2s-0.4,0.1-0.6,0.1    c-0.5,0-1-0.2-1.3-0.5s-0.5-0.7-0.5-1.2c0-0.4,0.1-0.7,0.3-1c0.2-0.3,0.4-0.5,0.8-0.6c0.3-0.1,0.7-0.3,1.2-0.3    c0.5-0.1,1-0.1,1.5-0.1v0c0-0.3-0.1-0.5-0.4-0.6c-0.2-0.1-0.6-0.2-1.1-0.2c-0.3,0-0.6,0.1-0.9,0.2c-0.3,0.1-0.6,0.2-0.7,0.2h-0.2    v-1.3c0.2,0,0.5-0.1,0.9-0.2s0.8-0.1,1.3-0.1c1,0,1.7,0.2,2.2,0.5s0.7,0.8,0.7,1.4v3.7H379V63.5z M379,62.6v-1.1    c-0.2,0-0.5,0-0.8,0.1c-0.3,0-0.5,0.1-0.6,0.1c-0.2,0.1-0.3,0.1-0.4,0.2s-0.1,0.2-0.1,0.4c0,0.1,0,0.2,0,0.3    c0,0.1,0.1,0.1,0.1,0.2c0.1,0.1,0.2,0.1,0.3,0.1c0.1,0,0.3,0,0.5,0c0.2,0,0.4,0,0.5-0.1S378.9,62.8,379,62.6z"/>
		<path d="M384.9,62.1l1.3-3.5h1.8l-3,7.5H383l0.9-2.1l-2.1-5.4h1.8L384.9,62.1z"/>
		<path d="M392.2,63.5c-0.1,0.1-0.2,0.2-0.4,0.3c-0.1,0.1-0.3,0.2-0.4,0.2c-0.2,0.1-0.4,0.1-0.5,0.2s-0.4,0.1-0.6,0.1    c-0.5,0-1-0.2-1.3-0.5s-0.5-0.7-0.5-1.2c0-0.4,0.1-0.7,0.3-1c0.2-0.3,0.4-0.5,0.8-0.6c0.3-0.1,0.7-0.3,1.2-0.3    c0.5-0.1,1-0.1,1.5-0.1v0c0-0.3-0.1-0.5-0.4-0.6c-0.2-0.1-0.6-0.2-1.1-0.2c-0.3,0-0.6,0.1-0.9,0.2c-0.3,0.1-0.6,0.2-0.7,0.2H389    v-1.3c0.2,0,0.5-0.1,0.9-0.2s0.8-0.1,1.3-0.1c1,0,1.7,0.2,2.2,0.5s0.7,0.8,0.7,1.4v3.7h-1.7V63.5z M392.2,62.6v-1.1    c-0.2,0-0.5,0-0.8,0.1c-0.3,0-0.5,0.1-0.6,0.1c-0.2,0.1-0.3,0.1-0.4,0.2s-0.1,0.2-0.1,0.4c0,0.1,0,0.2,0,0.3    c0,0.1,0.1,0.1,0.1,0.2c0.1,0.1,0.2,0.1,0.3,0.1c0.1,0,0.3,0,0.5,0c0.2,0,0.4,0,0.5-0.1S392.1,62.8,392.2,62.6z"/>
		<path d="M402.4,61.5h-3.7v-1.4h3.7V61.5z"/>
		<path d="M364,72.9c0,0.4-0.1,0.7-0.2,0.9c-0.1,0.3-0.3,0.5-0.6,0.7c-0.3,0.2-0.6,0.4-0.9,0.5c-0.3,0.1-0.8,0.1-1.3,0.1h-3.2v-7.3    h2.8c0.6,0,1,0,1.3,0.1s0.5,0.1,0.8,0.3c0.3,0.1,0.5,0.3,0.6,0.6c0.1,0.2,0.2,0.5,0.2,0.8c0,0.4-0.1,0.7-0.3,0.9s-0.4,0.5-0.8,0.6    v0c0.5,0.1,0.9,0.3,1.1,0.6C363.8,72,364,72.4,364,72.9z M361.6,69.9c0-0.1,0-0.2-0.1-0.4c-0.1-0.1-0.2-0.2-0.3-0.3    c-0.1-0.1-0.3-0.1-0.5-0.1s-0.5,0-0.9,0h-0.2v1.5h0.3c0.3,0,0.5,0,0.8,0c0.2,0,0.4,0,0.5-0.1c0.2-0.1,0.3-0.2,0.3-0.3    C361.5,70.2,361.6,70,361.6,69.9z M362,72.8c0-0.2,0-0.4-0.1-0.5c-0.1-0.1-0.2-0.2-0.5-0.3c-0.1,0-0.3-0.1-0.6-0.1    c-0.3,0-0.5,0-0.8,0h-0.4v1.8h0.1c0.5,0,0.9,0,1.1,0c0.2,0,0.4,0,0.6-0.1c0.2-0.1,0.3-0.2,0.4-0.3C362,73.2,362,73,362,72.8z"/>
		<path d="M367.1,68.8h-1.9v-1.3h1.9V68.8z M367,75.1h-1.8v-5.5h1.8V75.1z"/>
		<path d="M373.4,75.1h-5.2V74l2.9-3.1h-2.8v-1.3h5v1.1l-2.8,3.1h2.9V75.1z"/>
		<path d="M380.5,75.1h-2l-1.5-2.4l-0.5,0.6v1.8h-1.8v-7.6h1.8V72l1.9-2.4h2l-2,2.4L380.5,75.1z"/>
		<path d="M384.7,74.5c-0.1,0.1-0.2,0.2-0.4,0.3c-0.1,0.1-0.3,0.2-0.4,0.2c-0.2,0.1-0.4,0.1-0.5,0.2c-0.2,0-0.4,0.1-0.6,0.1    c-0.5,0-1-0.2-1.3-0.5s-0.5-0.7-0.5-1.2c0-0.4,0.1-0.7,0.3-1c0.2-0.3,0.4-0.5,0.8-0.6c0.3-0.1,0.7-0.3,1.2-0.3    c0.5-0.1,1-0.1,1.5-0.1v0c0-0.3-0.1-0.5-0.4-0.6c-0.2-0.1-0.6-0.2-1.1-0.2c-0.3,0-0.6,0.1-0.9,0.2c-0.3,0.1-0.6,0.2-0.7,0.2h-0.2    v-1.3c0.2,0,0.5-0.1,0.9-0.2c0.4-0.1,0.8-0.1,1.3-0.1c1,0,1.7,0.2,2.2,0.5s0.7,0.8,0.7,1.4v3.7h-1.7V74.5z M384.7,73.7v-1.1    c-0.2,0-0.5,0-0.8,0.1c-0.3,0-0.5,0.1-0.6,0.1c-0.2,0.1-0.3,0.1-0.4,0.2s-0.1,0.2-0.1,0.4c0,0.1,0,0.2,0,0.3s0.1,0.1,0.1,0.2    c0.1,0.1,0.2,0.1,0.3,0.1c0.1,0,0.3,0,0.5,0c0.2,0,0.4,0,0.5-0.1C384.4,73.9,384.5,73.8,384.7,73.7z"/>
		<path d="M389.8,68.8H388v-1.3h1.9V68.8z M389.8,75.1H388v-5.5h1.8V75.1z"/>
		<path d="M394.8,74.5c-0.1,0.1-0.2,0.2-0.4,0.3c-0.1,0.1-0.3,0.2-0.4,0.2c-0.2,0.1-0.4,0.1-0.5,0.2c-0.2,0-0.4,0.1-0.6,0.1    c-0.5,0-1-0.2-1.3-0.5S391,74,391,73.5c0-0.4,0.1-0.7,0.3-1c0.2-0.3,0.4-0.5,0.8-0.6c0.3-0.1,0.7-0.3,1.2-0.3    c0.5-0.1,1-0.1,1.5-0.1v0c0-0.3-0.1-0.5-0.4-0.6c-0.2-0.1-0.6-0.2-1.1-0.2c-0.3,0-0.6,0.1-0.9,0.2c-0.3,0.1-0.6,0.2-0.7,0.2h-0.2    v-1.3c0.2,0,0.5-0.1,0.9-0.2c0.4-0.1,0.8-0.1,1.3-0.1c1,0,1.7,0.2,2.2,0.5s0.7,0.8,0.7,1.4v3.7h-1.7V74.5z M394.8,73.7v-1.1    c-0.2,0-0.5,0-0.8,0.1c-0.3,0-0.5,0.1-0.6,0.1c-0.2,0.1-0.3,0.1-0.4,0.2s-0.1,0.2-0.1,0.4c0,0.1,0,0.2,0,0.3s0.1,0.1,0.1,0.2    c0.1,0.1,0.2,0.1,0.3,0.1c0.1,0,0.3,0,0.5,0c0.2,0,0.4,0,0.5-0.1C394.5,73.9,394.6,73.8,394.8,73.7z"/>
	</g>
	<g>
		<rect x="364" y="357.3" style="fill-rule:evenodd;clip-rule:evenodd;fill:none;" width="27.3" height="11"/>
		<path d="M370.6,368h-6.1v-1.4l3.6-4.5h-3.4v-1.4h5.7v1.4l-3.6,4.5h3.8V368z"/>
		<path d="M377.2,368h-1.8v-0.6c-0.3,0.2-0.6,0.4-0.9,0.6c-0.3,0.1-0.6,0.2-1,0.2c-0.6,0-1.1-0.2-1.4-0.5c-0.3-0.3-0.5-0.9-0.5-1.5    v-3.6h1.8v2.7c0,0.3,0,0.5,0,0.7c0,0.2,0.1,0.3,0.1,0.5c0.1,0.1,0.2,0.2,0.3,0.3s0.3,0.1,0.5,0.1c0.1,0,0.3,0,0.5-0.1    c0.2-0.1,0.4-0.1,0.5-0.2v-3.9h1.8V368z"/>
		<path d="M381.3,366.1l1.3-3.5h1.8l-3,7.5h-1.9l0.9-2.1l-2.1-5.4h1.8L381.3,366.1z"/>
		<path d="M388.7,367.4c-0.1,0.1-0.2,0.2-0.4,0.3c-0.1,0.1-0.3,0.2-0.4,0.2c-0.2,0.1-0.4,0.1-0.5,0.2c-0.2,0-0.4,0.1-0.6,0.1    c-0.5,0-1-0.2-1.3-0.5s-0.5-0.7-0.5-1.2c0-0.4,0.1-0.7,0.3-1c0.2-0.3,0.4-0.5,0.8-0.6c0.3-0.1,0.7-0.3,1.2-0.3    c0.5-0.1,1-0.1,1.5-0.1v0c0-0.3-0.1-0.5-0.4-0.6c-0.2-0.1-0.6-0.2-1.1-0.2c-0.3,0-0.6,0.1-0.9,0.2c-0.3,0.1-0.6,0.2-0.7,0.2h-0.2    v-1.3c0.2,0,0.5-0.1,0.9-0.2c0.4-0.1,0.8-0.1,1.3-0.1c1,0,1.7,0.2,2.2,0.5c0.4,0.3,0.7,0.8,0.7,1.4v3.7h-1.7V367.4z M388.7,366.6    v-1.1c-0.2,0-0.5,0-0.8,0.1c-0.3,0-0.5,0.1-0.6,0.1c-0.2,0.1-0.3,0.1-0.4,0.2s-0.1,0.2-0.1,0.4c0,0.1,0,0.2,0,0.3s0.1,0.1,0.1,0.2    c0.1,0.1,0.2,0.1,0.3,0.1c0.1,0,0.3,0,0.5,0c0.2,0,0.4,0,0.5-0.1C388.4,366.8,388.6,366.7,388.7,366.6z"/>
	</g>
	<g>
	</g>
	<g>
	</g>
	<g>
	</g>
	<g>
	</g>
	<g>
	</g>
	<g>
	</g>
	<g>
	</g>
	<g>
	</g>
	<g>
	</g>
	<g>
	</g>
	<g>
	</g>
	<g>
	</g>
</g>
</svg>