<svg xmlns="http://www.w3.org/2000/svg" xmlns:xlink="http://www.w3.org/1999/xlink" version="1.1" x="0px" y="0px" width="450px" height="450px" viewBox="0 0 450 450" style="enable-background:new 0 0 450 450;" xml:space="preserve"> <g id="color_provincies"> 	<a> 		<path style="fill-rule:evenodd;clip-rule:evenodd;fill:#BFBFBF;stroke:#696969;stroke-width:2;stroke-miterlimit:10;" d="    M-9.9,723.5c-2.8-13.5-10.9-22.7-23.9-23c-11.1-0.3-18.7,11.2-23.9,7.9c-3.6-3.8-6.3-9.3-8.4-11.5c7-4.9,6.9-11.6,4.8-17.5    c10,4.6,30.8,9,35.8-6.4c0.9,0.4,1.9,0.7,2.8,1.1c-0.3,1.4-0.6,2.7-0.9,4.1c4.6-6.1,3.6-6.1,3.8-12c-0.9,0.9-1.7,1.8-2.6,2.6    c-1.7-8.2,6.3-9.4,14.2-12.1c-0.6,2.2-1.2,4.4-1.9,6.6c1.1-0.9,3.1-3.1,4.2-3.9c11.8,5.2,6.9,17.5,6.2,25.8    c5.2,5.5-16.5,11.7-7.3,28.4c6.8-1.5,11.5-6.2,13.9-10.9c-0.2,1.1-0.5,2.1-0.7,3.2c0.5-1.2,2.7-3.7,3.6-5.7c1.5,2.5,1.9,4.2,2.7,6    c2.2-2.8,3.1-0.9,3.3-6.4c2.2,2.4,1.9,3.1,2.7,5.8c5.3-4.4,7.8-0.2,12.8,4.4c-0.6-7,2.2-20.8-10.1-19.5c5.5-4.5,3.6-18.8,7-27.5    c1.1,1.9,3.1,3.4,4.5,6.7c1.4-1.4,2.7-2.9,4.1-4.3c-0.1,0.8-0.2,1.6-0.3,2.5c3.4-1.8,5.2-4.4,8.1-9.2c-4.8,0.8-2.4-2.2-7,2.6    c-1.5-4.4-2.6-3.1-4.5-5.1c-1.2-6.2,2.7-3.6-2.2-4.6c0.9-2.3,0.9-3.6,1.3-6.5c0.2,1.3,0.5,2.6,0.7,3.9c1-4.3,2.5-1.7-1.1-5.1    c0.4-0.5,3.9-2,3.7-1.5c-0.3-6.7,1.2-7.3-0.4-10.5c1.2-0.9,2.4-1.7,3.7-2.6c-0.4-1-0.9-2-1.3-3c-3.2,5.2-8,9.7-11.9,13.4    c0.7-6.7,0.1-19.2,2.2-22.6c-2.3-5.5-6.1-10.2-10.5-13.1c1.1-12.2,10.5-12.9,11.3-0.7c3.3-4.2,3.4-6.2,3.6-11    c-6.2,1.9-7.8,0.5-9.6-1c-0.3-1.6,0.4-2.1,2.2-1.4c-2-6,0-11.6,4.2-16.5c6,5.2,14.8,6.1,18-2.7c1.6,1.1,3.2,2.3,4.9,3.4    c-0.9-1.6-1.8-3.2-2.6-4.8c5.8-0.6,11.8-7.3,10.7-16.5c5.7,5.4,2.3,4.7,8.7,3.3c-0.2,1.1-0.3,2.2-0.5,3.3c3.9-2.9,3-2.7,3.4-6.5    c2.4,0.4,1,2.2,2.5-0.8c-1-0.5-2-1.1-3-1.6c1.3,0.2,2.6,0.5,3.9,0.7c-0.5-6.4-3.9-11.1-9.7-13.7c13.9-20.4,37.2-41.5,43.6-69.4    c2.1-9.3-6.3-29.6,14.1-31.1c12.5-0.9,39.7-14.1,43.7-21.3c5.6,6.2,15.6,8,21.1,16c1.8-2,3.9-2.9,5.9-4.9    c15,14.6,3.5-18.1,13.1-25.7c2.9-2.3,29.6-2.4,35.5-3.7c-7-10.1,3.2-20.8,5.8-11.1c3.1,11.4,11.6,0.8,14.5,1.6    c9.9,2.8,3,0.5,13.3-2.8c12.4-3.9,20.7,8.5,30.7,14.5c5.8,3.5,17.3-4.6,24.1-2.8c4.8,1.3,7.5,3.2,10.8-1.1    c3.7-4.8,13.4-4,13.9-4.7c-1.4,2.1,0.6-41.9,14.1-27.1c2-2-1.8-12.4,7.7-11.5c0.7,4.6,15.9,10.3,19.8,9.4    c7.8-1.8,7.7-14.1,20-14.3c-1.5-9,3.8-29.5-1.6-35.3c-2.8-3-8.2,4.2-7.4-5.8c0.5-5.5,7.3-9.3,10.9-9.8c0.5,3.9,1.8,10.9,2.9,11.6    c0.9-0.7,5.5-9.9,8.3-15.6c5.5,11.9,0.9,18.5,17.2,17.4c-10.5,10.4,5.8,18.9,15.1,17.7c-4.6-7.5,3.2-17.5,9-20.4    c2.4-1.2,15.3-7.7,12.3,1c-3.2,9.5,7.9-1.8,8.3-1.6c17.6,7.3,31.3,12.6,11.7-10.2c1.1-1,8.2-3.3,8.3-3.4    c-4.8,5.4,13.2-7.8,9.9-6.2c4.2-2.1,22.8-16.9,26.3-1.8c1.4,6.2,12.4,5.3,16.7,5.8c4.7,0.5,0.3,5.6,5.1,5c4-0.5,8-6.4,12.8-7.7    c-0.1,4.6,2.3,6.4,3,9.8c6.9-5.3,1.8-2.7,9-4.1c0.4-2.8-0.7-2.7,1.4-5.1c6.1,3.6,7.8-6.2,15.5-5.2c8.4,1.1,11.3,7.7,17.9,12.3    c-2.1,2.3-0.3,1-3.4,2.6c4.1,4.3-0.1,4.7,8.1,3.7c3.3,11.8,25.4-11.5,34.1-12.2c5.2-0.4,20.7,6.6,22.6,5.2    c9.8-7.2,10.4-4.1,20,4.1c-11.6,12.9-18.6,25.3-19.3,42.7c-0.9,19.5,6.5,22.7,16,38c5.8,9.3,17,24.3,26.8,28.5    c6.5,2.8,15.3,1.5,20.9,4.8c8.2,4.9,16.7,13.1,26.4,12.4c0.9,5.5,6.8,21.4-1.2,23.4c-8.7,2.1-2.4,8.6-7.8,10.5    c-9.8,3.4-13.8,11.7-10,22.1c3.9,10.9,0.2,20.2-1.9,31.5c-5.5,30.3-19.5,75.1-59.2,76.6c-8.8,0.3-14.1-10.2-21.5-3.2    c-4.4,4.2-8.9,24.1-13.3,26.3c-11.1,5.5-10-3.8-16.5-5.8c-9.5-3-8.5-3.5-17.1,0.5c-3.5,1.7-19-4.7-23.9-7.1    c-2.7-1.3-19.4,1.9-24.4,2.7c-3.4,0.6-24.9,4.3-24.9,4.3c-9-7.2-11.4-15.8-19.4-23.3c-7.4,3.6-13.2,8.7-8.2,16    c-9.5,2.2-13.5,7.7-19,14.9c-9.3,12.4-5.1,5.8-17.3,4.6c-13-1.2-20.8,17.8-30.5,18.8c-3.4,0.4-12.3,23.7-17.5,26.3    c-9.3,4.7-26.5,5-38.7,3.8c1,13.8-12.8,14-20.4,5.3c11.1,15.2,27.6,29.6,21.3,48.9"/> 	</a> 	<path style="fill-rule:evenodd;clip-rule:evenodd;fill:#FFFBF0;" d="M134,723.3"/> 	<polygon style="fill-rule:evenodd;clip-rule:evenodd;fill:#FFFBF0;" points="5.4,609.5 -2.8,611.1 -4.1,613.2 -4.6,619.6    -2.4,631.8 -4.7,629.6 -6.4,629.8 -5.4,632.1 -7.1,631 -8.8,632.7 -9.2,630.9 -10.2,632.7 -11.2,631.9 -9.9,629.6 -11.6,627    -14.5,628.3 -16.8,627 -16.6,622.4 -13.7,620.9 -13,624.4 -11.6,622 -11.2,623.9 -10.1,622.8 -7.9,624.3 -9,618.6 -14.9,615.7    -12.7,609 -12.1,610.6 -9.2,610 -11.1,604.1 -10.6,602 -8.2,601.2 -8.8,599.4 -6.1,598.1 -6.9,593.5 -8.3,594.8 -8.2,591.7    -10.6,591.4 -12.1,596.5 -15,597.1 -19.9,593.6 -23.4,587.4 -23.3,584.7 -21.7,586.3 -18.7,584.9 -17.3,583.6 -17.7,580.3    -14.8,580.9 -12,578.6 -10.4,579.7 -9.8,588.3 -6.2,590.8 -1.4,588.8 -1.1,585.6 4.1,587.3 4.5,590.5 1,591.9 3.5,597.5 1.6,598.7    1.6,600.8 -0.7,600.9 0.6,606.1 5.9,608.2 7.3,609.9  "/> 	<polygon style="fill-rule:evenodd;clip-rule:evenodd;fill:#FFFBF0;" points="58.7,538.1 56,536.1 57.6,531 61.5,530.8 64.5,526.1    63.9,527.9 65.9,533  "/> 	<polygon style="fill-rule:evenodd;clip-rule:evenodd;fill:#FFFBF0;" points="21.2,670 18.7,669.5 21,661.8  "/> 	<polygon style="fill-rule:evenodd;clip-rule:evenodd;fill:#FFFBF0;" points="14.8,658.6 13.7,661 15.9,664 15.5,666.5 14.3,669.9    12.6,669 11.7,672.3 13,674.2 10.4,678.4 6.4,676.9 5.8,671.5 7.3,667.3 11.1,665.1 12.7,660.8 11.4,658.3  "/> 	<polygon style="fill-rule:evenodd;clip-rule:evenodd;fill:#FFFBF0;" points="-41.6,611.6 -43.6,610 -42.8,606.9 -39.7,609.8  "/> 	<polygon style="fill-rule:evenodd;clip-rule:evenodd;fill:#FFFBF0;" points="-31.3,618.6 -34,615.9 -33.5,613.9 -33,615.2    -29.4,611.5 -29.1,614.8 -31.7,616.6  "/> </g> <g id="comarques_A_corunya"> 	<a> 		<path style="fill:#BFBFBF;stroke:#696969;stroke-width:2;stroke-miterlimit:10;" d="M693.9,259.3c-5.1,6.9-7.3,13.1-12.3,19.8    c-6.8,9.3,0.5,4.4-13.4,10.8c-6.9,3.2-31.4,21.9-34.1,12.2c-8.2,1-4,0.6-8.1-3.7c3.2-1.6,1.3-0.3,3.4-2.6    c-6.6-4.6-9.5-11.3-17.9-12.3c-7.7-1-9.4,8.9-15.5,5.2c-2.1,2.3-1,2.2-1.4,5.1c-7.1,1.4-2.1-1.2-9,4.1c-0.7-3.4-3.1-5.2-3-9.8    c-11.4,3.1-9.1,8.6-16.5,3.6c-3-2-13-3.2-17.7-5.1c-12.5-4.9-11.3-12.2-24.9-1.2c-2.6,2.1-6.4,13.9-10.4,9.1    c-3.8-4.6-7-0.2-9.6,1.9c3.3,3.9,17.4,13.3,10.2,18.7c-9.3,6.9-16.8-7.3-20.7-8.2c-3.3-0.8-6.4,4.2-10.3,3.6    c0.9,0.1-0.4-11.8-8.6-5.5c-6.5,4.9-17.4,13.8-11.9,22.7c-9.3,1.2-25.6-7.3-15.1-17.7c-16.3,1.1-11.7-5.4-17.2-17.4    c-2.7,5.7-5.9,13.4-8.3,15.6c-1.5-1-2.4-7.7-2.9-11.6c-10.1,1.4-15.2,18.3-6,13.8c6.8-3.2,6.3,26.1,3.8,31.8    c-6.4-2.7-6.8-9.2-3.8-15.5l-5.5-3.7c-2.5,12.7-14.7,3.5-16,5.2c-5.4,6.8-16.2-3.4-21.5-6.7c-25.9,12.5-6.5-39.9-7.5-42    c-2.3-4.9,7-9.6,5.5-16c-1.7-7.3-8.6-14.5-18.7-11.7c4.7-8.2,5.6-38,1.2-45.6c-5.4-9.2,16.7-40.7,20.2-45.2c-1-0.6-28,5.3-38.7,4    c-5.7-0.7-27.2-15.7-34.2-12.4c-9.6-13.2-28.4-11.5-27.7-3.8c-0.5,9.4,4.4,13.8,10.1,14.9c-3.6,5.3-1.6,4.8-9.1,7.7    c-5.6,2.2,0.2,5.1-2.7,8c-14.8,15.1-9.6,4.7-18.5-3c-12.2-10.5-27.1-10.7-25.6-32c-6,2.4-6.6-0.2-10.2,5.4    c-9.6-7.1-10.5-15.9-9.6-26.6c0.7-8.7-2.9-13.3-4-22.9c-2.2-18.5-4-30.7,7.3-48.7c-18.1-3.8-15.1-10.7-28.2-19.6    c-9.9-6.8-19.5,5.7-26.8,12.5c-16.1-0.6-21.6-33.1-15.9-39.8c18.6-21.8,38.7-6.4,43.9,14.6c7.7-8.6,15.9-19.1,18.9-29.8    c3.6-13.2,15.4-11.1,22.4-24.2c-23.6-10.5,1.9-17.1,13.6-17.4c8.9-0.2,18.7-24.1,29.4-8.3c12.9-15.5,11.3-22,32.4-29.6    c5.8-2.1,14.2,5.4,17.4-0.6c2.9-5.5,5.4-10.5,8.7-16.7c7.8-14.7,36.3-3.5,43.6,5.9c8.6,11.2-5.3,41.7-8.8,52.9    c11.4-1.7,22.8-6.8,32.2,0.6c9,7,4.3,13.5,8.1,21.9c6.5,14,28.1,1.7,31.8-4.5c5.7-9.5,6-11.1,17.7-1.9c6.5,5.1,2.2,29.7,12.8,26.6    c5.6-1.6,13-2.4,18.1-5.2c3.5-1.9,1.3-11,6.1-11.7c13.1-2,21.7,10.3,30.5,18.1c11-14.6,35.2-13.5,37.1,9.6    c0.8,9.5-0.6,18.4-0.8,27.9c-0.1,5.8,3.2,19,0.6,24.3c-6.6,13.2-3,21.3,3.5,22c3.4,0.4,7.7-7.2,13.5-7.5c8.5-0.4,12.6,2.5,17,9.2    c0.2-1.5,0.4-3.1,0.6-4.6c12,23.9,37.2-12.7,43.8,18.1c14.2-1.5,18.6-14.9,15.5-26.9c-2.2-8.9,8.6-7,8-11.9    c-1-8.7-8.7-18-16.1-9.3c-8.8-15-9.5-26.9-16.2-41.8c7.2-0.8,12.3,6.1,13.8,12.8c5.1,22.9,16.2,1.6,27,14    c6.1,6.9,37.7-38.5,44.2-44.1c1.1,2.7,2.2,5.5,3.4,8.2c3-2.4,7.9-2.2,10.9-4.6c2.6,11.9,4.2,24.7,13.2,33.8    c17.3,17.6-10.9,16.9-13.6,32.2c-0.4,2.4,13.3,33.9,12,33.9c2.4,0,10.7,30.3,10.8,36.6c0.1,11.5,6.3,20.4,5.7,33.3    c-0.7,14.3,0.4,35.7-13.4,43.6c-5.5,3.1-12.9,5.7-14.9,12.4c-1.5,5,9.1,11.7,4.6,16.3C715.5,243.5,709.4,257.4,693.9,259.3    L693.9,259.3z"/> 	</a> 	<polygon style="fill:#FFFBF0;" points="15,526.9 14.3,525.8 14.9,526 15.6,526.1 15.6,527 15,527  "/> 	<path style="fill:#FFFBF0;" d="M15.2,527.3"/> 	<polygon style="fill:#FFFBF0;" points="-120.6,676.2 -120,677.6 -118.6,679 -117.5,680.2 -117,681.4 -115.3,682.2 -114.9,683    -114.9,684.2 -114.3,685.4 -114.5,686.9 -113.5,688.6 -113.3,689.2 -112.7,690.4 -111.6,691.4 -109.4,692.8 -108.8,693.6    -109.9,694.3 -110.5,695.3 -111.4,696.1 -111.9,695.2 -112.4,695.8 -113.4,697.3 -113.9,697.6 -113.8,696.5 -114.7,696.5    -116,698.4 -116.8,700.1 -118.1,699.6 -118.7,698.7 -119.5,699 -120.3,698.3 -120.8,699.4 -121.4,698.3 -121.7,695.6 -122.8,694.3    -123,693.3 -122.5,692.3 -121.9,691.9 -121.9,691.3 -122.8,690.8 -123.7,691.5 -123.7,690.9 -124,688.2 -124.5,687.4 -124.7,686.6    -123.7,685.1 -123.7,684.4 -124.1,683.3 -124.1,680.9 -123.3,679.8 -123.5,679 -124.1,678.7 -123.1,678 -121.3,678.4 -121,677.6    -121.2,676.6  "/> 	<polygon style="fill:#FFFBF0;" points="-143.3,648 -143.7,647.4 -143.1,647.7  "/> 	<polygon style="fill:#FFFBF0;" points="-106.2,673.7 -106.8,673.2 -107.4,673 -107.4,672.3 -107.9,671.5 -107.1,671.6    -106.5,672.3 -105.8,673  "/> 	<path style="fill:#FFFBF0;" d="M-121,673.9"/> 	<path style="fill:#FFFBF0;" d="M-120.8,674.3"/> 	<polygon style="fill:#FFFBF0;" points="-120.8,674.4 -121.1,673.8 -120.5,673.9  "/> 	<path style="fill:#FFFBF0;" d="M-112.9,668.5"/> 	<polygon style="fill:#FFFBF0;" points="-113.3,669.1 -113.5,668.4 -112.8,668.4 -113,669  "/> 	<polygon style="fill:#FFFBF0;" points="-109.6,666.8 -109.5,666.2 -109.4,666.8  "/> 	<polygon style="fill:#FFFBF0;" points="-146.1,652 -146.7,651.4 -147.4,650.1 -147.2,649.3 -146.6,649.3 -146.2,650.1    -146.1,650.7 -145.9,651.5  "/> 	<polygon style="fill:#FFFBF0;" points="-116.4,640.1 -116.7,639.4 -116,639.2 -116.1,640  "/> 	<path style="fill:#FFFBF0;" d="M-142.9,640.7l0.4,0.6L-142.9,640.7z"/> 	<polygon style="fill:#FFFBF0;" points="-144,640.4 -143.8,639.7 -143.2,639.6 -143.6,640.2  "/> 	<polygon style="fill:#FFFBF0;" points="-145.9,640.4 -145.8,639.8 -145.7,640.3  "/> 	<polygon style="fill:#FFFBF0;" points="-114.6,643.7 -115.1,642.8 -115.6,641.3 -114.9,640.8 -114.5,641.3 -114,642.9  "/> 	<polygon style="fill:#FFFBF0;" points="-112.6,645.2 -113.3,644.8 -113.6,644.2 -113,644 -112.3,644.7  "/> 	<polygon style="fill:#FFFBF0;" points="-145.3,648.5 -145.9,648 -145.7,647.4 -144.9,647.8 -145.2,648.4  "/> 	<polygon style="fill:#FFFBF0;" points="-112.1,648.5 -112.2,647.8 -111.6,647.6 -111.8,648.3  "/> 	<polygon style="fill:#FFFBF0;" points="-116.9,662.3 -117,661.7 -116.4,661.4 -116.4,662  "/> 	<polygon style="fill:#FFFBF0;" points="-121,663.8 -121.6,663.2 -121.1,662.5 -120.7,663.2  "/> 	<polygon style="fill:#FFFBF0;" points="-111.4,665.7 -112.3,665.1 -113,665 -113.3,664.1 -113.5,663.1 -114.2,662.1 -114.5,661.6    -114.3,660.9 -113.3,660.4 -112.4,660.6 -111.9,661.5 -111.6,662.4 -111.3,663.2 -111.1,663.8 -110.9,664.5 -111.1,665.3  "/> 	<polygon style="fill:#FFFBF0;" points="-111,671 -111.5,669.8 -110.8,669.9 -110.6,670.8  "/> 	<polygon style="fill:#FFFBF0;" points="-120,671.9 -120.6,671.3 -119.9,671.4  "/> 	<polygon style="fill:#FFFBF0;" points="-104.2,676 -104.7,675.4 -104.1,675.6  "/> 	<polygon style="fill:#FFFBF0;" points="-87.5,398.4 -88,398.7 -87.7,399.4 -88.3,398.9  "/> 	<polygon style="fill:#FFFBF0;" points="-78.3,368.6 -78.1,367 -78.3,366.2 -79.7,365.8 -80,367 -80.2,365.8 -78.5,365.8 -78.1,367    -77.8,368.4 -79.7,367.5 -78.6,368.3  "/> 	<polygon style="fill:#FFFBF0;" points="-118.6,357.9 -118.6,358.7 -119.1,357.9  "/> 	<path style="fill:#FFFBF0;" d="M-118.6,358.7"/> 	<polygon style="fill:#FFFBF0;" points="-223.6,335.5 -224.3,334.9 -224.3,333.7 -223.6,333.5 -223.1,334.2 -223.3,335.2  "/> 	<polygon style="fill:#FFFBF0;" points="-252.3,250.8 -252.8,249.1 -252.1,249.7 -251.9,250.5  "/> 	<polygon style="fill:#FFFBF0;" points="-250.3,250.5 -250.7,249.9 -249.9,250.1  "/> 	<polygon style="fill:#FFFBF0;" points="-249,251.7 -250,251.3 -249.3,251  "/> 	<polygon style="fill:#FFFBF0;" points="-250.6,254.4 -251.3,253.5 -251.4,252.3 -250.6,252 -250.2,252.7 -250,253.6  "/> 	<polygon style="fill:#FFFBF0;" points="-252.5,253.8 -253.2,253.3 -252.8,252.6  "/> 	<polygon style="fill:#FFFBF0;" points="-248.3,254.8 -249,254.7 -249,253.9 -248.2,253.6  "/> 	<polygon style="fill:#FFFBF0;" points="-237.7,266.8 -238,265.9 -237.1,265.9 -237,266.5  "/> 	<polygon style="fill:#FFFBF0;" points="-236.5,268.2 -236.6,267.3 -236.2,268  "/> 	<path style="fill:#FFFBF0;" d="M-237.5,269l-0.3-0.8L-237.5,269z"/> 	<path style="fill:#FFFBF0;" d="M-238.2,270.3l-0.3-0.8L-238.2,270.3z"/> 	<polygon style="fill:#FFFBF0;" points="-240.4,270.7 -240.4,270 -240,270.6  "/> 	<polygon style="fill:#FFFBF0;" points="-238.2,273.6 -238.8,273.2 -238,273  "/> 	<path style="fill:#FFFBF0;" d="M-220.4,276.2"/> 	<polygon style="fill:#FFFBF0;" points="-212.6,289.9 -213.1,289.3 -213.3,288.5 -212.6,288.4 -212.2,289.3  "/> 	<polygon style="fill:#FFFBF0;" points="-222.1,328.1 -221.7,326.3 -221.7,325.5 -220.9,325 -220.5,325.6 -221.6,327.7  "/> 	<polygon style="fill:#BFBFBF;stroke:#696969;stroke-width:2;stroke-miterlimit:10;" points="28.5,-248.6 27.4,-249.4 27.5,-250.2    27.8,-250.9 28.7,-251.3 29.5,-250.8 30.2,-249.9 30.4,-248.8  "/> 	<polygon style="fill:#BFBFBF;stroke:#696969;stroke-width:2;stroke-miterlimit:10;" points="20.1,-250.9 19.2,-251.7 18.3,-253.1    18.5,-254.4 18.1,-255.2 16.9,-256.3 16.5,-257 17.1,-259.1 18,-258.1 18.7,-257.4 19.7,-257.5 20.4,-258 22.2,-258.8 23.5,-258.8    24.4,-259.4 24.9,-258.4 26.3,-257.6 26.7,-256.4 26.5,-254 25.7,-253.6 24.5,-252.6 23,-251.9  "/> 	<polygon style="fill:#BFBFBF;stroke:#696969;stroke-width:2;stroke-miterlimit:10;" points="28.8,-252.3 27.9,-252.7 27.5,-253.4    27.5,-256.3 27.5,-258 28.1,-258.3 29,-257.5 30.3,-256.2 30.6,-255.3 30.9,-253.7 30.8,-253.1 30.1,-252.7  "/> 	<polygon style="fill:#FFFBF0;" points="-45.5,-121.5 -46.6,-122.4 -45.7,-122.9 -45,-122.6  "/> 	<polygon style="fill:#FFFBF0;" points="-57.7,-120.3 -58.1,-121.3 -57.6,-122.3 -57.1,-121.5 -57.2,-120.9  "/> 	<polygon style="fill:#FFFBF0;" points="-67.6,-148.6 -67.4,-150.2 -66.8,-149.8  "/> 	<polygon style="fill:#FFFBF0;" points="-89.3,-159.1 -90,-159.1 -90.1,-159.8 -89.1,-159.8  "/> 	<path style="fill:#BFBFBF;stroke:#696969;stroke-width:2;stroke-miterlimit:10;" d="M-31.2-199l0.3-0.6L-31.2-199z"/> 	<a> 		<path style="fill:#BFBFBF;stroke:#696969;stroke-width:2;stroke-miterlimit:10;" d="M-10.3,10.8l43.7,11.5L48.2-6    c0,0,36,21.5,49.1,26.2s41.4,12.1,41.4,12.1s-8.5-22.3-0.7-28s16.2-9.1,16.2-9.1S170.1-3,174.1,6.4s7.1,12.1,7.1,12.1L199-8.7    l-2-17.5l-214.7-1.7L-10.3,10.8z"/> 	</a> 	<a> 		<path style="fill:#BFBFBF;stroke:#696969;stroke-width:2;stroke-miterlimit:10;" d="M-11.7,10.1l45.1,12.1L48.2-6    c0,0,36.3,22.5,49.1,26.2s41.4,12.1,41.4,12.1s5.4,5.7,5.4,9.8s-4.4,28.6-6.1,29.3c-11.7,4.7-16.2,5.4-18.8,9.1s-4.7,8.4,1.3,14.8    s-2,10.8-2.7,16.8s-3.4,21.5-3.4,21.5s-71.3-30.9-71-5.7c0,0-11.1-8.8-18.5-1c-10.1,10.5,1,12.5,0.3,22.2S23,164.2,23,164.2    l-38-1.7L-11.7,10.1z"/> 	</a> 	<a> 		<path style="fill:#BFBFBF;stroke:#696969;stroke-width:2;stroke-miterlimit:10;" d="M-15,162.6l38,1.7c0,0,5-18.5,1-22.2    s-5-12.5,3.4-17.2s16.2,3,16.2,3s-0.7-12.8,16.5-10.1s54.5,13.8,54.5,13.8s20.5,2,26.9,33l0,0l18.8,6.7c0,0,9.1,32.3-1.3,30.3    s-13.2-9.7-13.2-9.7s-5.6,3.1-7.1,21c-1.6,19.6-6.6,27.4-19.4,22l-0.3,4.7l-7.7,3l-6.1-11.1c0,0-32.3,5-27.3,12.8    s8.1,18.5,1.7,21.2s-17.3,10.4-19.9,5c-1.5-3.1-1.5-3.1-1.5-3.1s-36.9,12.2-28.8,18.3c11.7,8.8,15.1,8.1,25.2,15.1    s15.1,7.7,15.1,7.7L61,334.2c0,0,9.8,19.9,4.7,27.9c-5.4,8.4-5,21.9,9.4,34.3c0,0-9.4-1.3-14.5,8.8s-3.4,27.6-28.9,24.9    S-17.1,415-17.1,415L-15,162.6z"/> 	</a> 	<a> 		<path style="fill:#BFBFBF;stroke:#696969;stroke-width:2;stroke-miterlimit:10;" d="M69.4,310c0,0,7.1-14.1,19.5-14.5    s14.6,3.8,14.6,3.8s22.4-4.8,21.4,2.6s-2.7,23.6,16.2,28.9s34.7-9.5,34.7-9.5l11,5.2l0.3,11.8l14.8,6.1c0,0-3.4,3.7-10.1,3.4    s-13.8,0.3-9.8,5.4s5.4,5.7,5.4,5.7l-1.7,12.5c0,0,18.8-5,29.3-0.7s11,8,11,8s-7.3,2.4-4.6,8.5s5.7,10.8,5.7,10.8    s-22.5,2.7-23.6,7.1c-1.9,8.2-1.3,27.6-4.7,26.2s-5.5-4.1-5.5-4.1l-5.9,4.9c0,0-4.2-7.2-9.2-8.5s-11.9-7.5-11.9-7.5    s-11.7,13.5-25.5,17.9s-30.6,4.7-31.6,14.5s-0.7,20-0.7,20l-126.6-7.6l0.7-45.8c0,0,26.6,11.4,44.4,14.1s27.9-3,29.6-12.8    s4.7-21.5,18.2-19.9c0,0-15.5-13.5-12.5-25.2s7.4-15.5,4.4-22.5s-5.4-15.8-5.4-15.8L69.4,310"/> 	</a> </g> <g id="santiago"> 	<a> 		<path style="fill-rule:evenodd;clip-rule:evenodd;fill:#FFFBF0;stroke:#9A9A9A;stroke-width:2;stroke-miterlimit:10;" d="    M143.1,41.8l-4,30.3c0,0-22.9,1-21.5,14.1s8.7,11.1,5,16.5s-8.1,28.9-8.1,28.9s18.8,0.7,26.9,33l41.1,20.5l31.2-35    c0,0-10.2-6.9-9-16.8s-8.1-57.5-4.4-66s7-15.4,7-15.4s-17.4-4.4-19.8-12.8s-16.2-13.5-22.9-7.1s-14.5,13.1-14.5,13.1L143.1,41.8z"/> 	</a> 	<a> 		<path style="fill-rule:evenodd;clip-rule:evenodd;fill:#FFFBF0;stroke:#9A9A9A;stroke-width:2;stroke-miterlimit:10;" d="    M213.7,150.1l-31.2,35c0,0,5.7,9.4,13.5,7.7s10.8-7.4,14.8,4.4s5.6,22.4,5.6,22.4s-26.4-5.6-26.8,1.4s4,15.8,1.7,24.2    s-7.7,18.4-7.7,18.4l47.8,30.1c0,0,23.6-7.4,27.9,0.7s8,18.8,8,18.8l27.3,1.6c0,0,20.1-19.4,17.1-26.1s-11.1-18.5-2.4-21.9    s40.7-13.8,40.7-13.8s7-38.8,0-46.7s22.1-47,22.1-47s-30.9,5.5-39.3,5.5s-15.8-8.4-24.9-11.1s-10.6-0.9-10.6-0.9    s-10.9-11.9-20.3-10.2s-10.8,15.7-4,18.5s6.7,2.8,6.7,2.8s-2.1,6.8-9.1,7.7s0.7,3.3-2.7,8s-10.8,11.8-11.4,6.7    s-6.7-14.8-14.8-18.5s-18.5-15.8-16.8-22.9S213.7,150.1,213.7,150.1z"/> 	</a> 	<a> 		<path style="fill-rule:evenodd;clip-rule:evenodd;fill:#FFFBF0;stroke:#9A9A9A;stroke-width:2;stroke-miterlimit:10;" d="    M350.1,253.1l-38,13.1c0,0-7.1-0.3-6.1,7.1s8.1,15.1,5.7,19.5S294.9,316,294.9,316s8.1,12.1,7.7,20.9s-3.3,12.1-3.3,12.1    s11.7,0.6,13.2,9.2l16.3-18.3l41.1,14.5l7-1.7c0,0,13,13.1,19.8,9.4s14.3-15.3,20-14.3l-0.4-6.5c0,0-10.1-4.7-4-14.5l-5.2-3.5    c0,0-1.2,6.2-7.6,5.2s-8.1-1.7-10.8,1.3s-19.2-8.1-19.2-8.1s-12.1,5-12.1-3.7s4.7-38.3,4.7-38.3s12.5-15.2,2.7-23.3    S350.1,253.1,350.1,253.1z"/> 	</a> 	<a> 		<path style="fill-rule:evenodd;clip-rule:evenodd;fill:#FFFBF0;stroke:#9A9A9A;stroke-width:2;stroke-miterlimit:10;" d="    M267,312.3l27.6,2.6c0,0,13.9,18.8,4.7,34c0,0,10.7,0.6,13.2,9.2l16.3-18.3l41.1,14.5c0,0,2.4,9.8-0.3,10.8s-6.1-6.7-9.4,1    s-5,25.1-5,25.1s-6.9-0.4-13.9,4.7s-5.7-0.2-14.8,1.2s-12.5,8.1-18.8,4s-21.5-14.8-27.3-14.5s-6.2-3.5-6.2-3.5s0.8-22.9,3.5-20.9    s2.4,9.6,6.4,7.9s13.1-7.1,1-12.8s-10.4-8.7-9.1-15.1s-1.5-8.1-4.5-6.1s-13.9-4.1-10.9-6.3s9.6-6.3,7.7-8.2    C265.6,319,267,312.3,267,312.3z"/> 	</a> 	<a> 		<path style="fill-rule:evenodd;clip-rule:evenodd;fill:#FFFBF0;stroke:#9A9A9A;stroke-width:2;stroke-miterlimit:10;" d="    M185,316.5l45-22.7c0,0,24.2-7.4,29.3,0.7s8,18.8,8,18.8s-1.3,5,0.7,7.1s0.7,3.7-0.7,4.7s-9.8,5.7-5,8.4s7.1,3.7,10.4,1.7    s3.4,1.3,3.4,3.4s-3.4,13.5,4.7,16.5s13.1,6.7,9.1,11.1s-8.1,6.1-9.1,3s-3.7-11.1-4.7-3.4s-2.4,18.5-0.3,19.5s-7.1,4.7-7.1,4.7    s-6.4-2.7-10.1-0.3s-8.3,3.2-9.4,0s-6.4-10.8-8.4-4s1.5,12,1.5,12l-15.9,1.2c0,0-11-15.9-0.1-20.2c0,0-7.3-9.4-21.8-8.4    s-18.8,2-18.8,2s4.7-12.5,0.3-15.1s-5.7-10.1-0.7-9.8s16.5,1.3,16.8-3l-16-6.5C186.1,337.7,187.8,319.4,185,316.5z"/> 	</a> 	<a> 		<path style="fill-rule:evenodd;clip-rule:evenodd;fill:#FFFBF0;stroke:#9A9A9A;stroke-width:2;stroke-miterlimit:10;" d="    M161.6,175l20.9,10.1c0,0,6.1,8.1,10.8,7.4s11.8-5.5,15.1-0.7c5.7,8.4,7.9,27.8,7.9,27.8s-28.1-7.3-27.4,3.1s5.4,14.1,2.4,22.5    s-7.7,18.4-7.7,18.4l47.8,30.1l-45.1,23.6c0,0-12.1-6.1-10.4-12.5s-2.4-1-3.7,0s-4.4,1.7-3.7-6.4s-0.2-13.6-7.8-12    c0,0-8.3-13.9-6.6-16.2s8.4-8.4-2-14.8s-32.1,10.3-32.1,10.3l-9.9-19.9l9-6.2l0.3-4.7c0,0,12.1,5,15.5-3.7s2.2-34.9,11-39.3    c0,0,11.2,13.1,15.2,8S161.6,175,161.6,175z"/> 	</a> 	<a> 		<path style="fill-rule:evenodd;clip-rule:evenodd;fill:#FFFBF0;stroke:#9A9A9A;stroke-width:2;stroke-miterlimit:10;" d="    M58.2,267.4c0,0-0.9,8.5,10.6,3.5s16.8-8.1,13.5-15.1s-8.7-14.1-2.7-16.8s25.6-7.4,25.6-7.4l14.7,34.2c0,0,17.9-13.6,27.3-11.6    s12.8,8.7,9.8,12.5s-5,3.4-3,8.4s6.6,11.5,6.6,11.5s8.5-1.8,8.2,6.6s-1.3,14.8,3.4,11.8s2.7-6.1,3.7,0s10.4,12.5,10.4,12.5    l0.7,9.1l-11-5.2c0,0-19.3,15.9-34.7,9.5s-18.8-18.2-17.5-25.6s-2.7-7.1-5.7-7.1s-14.3,1.1-14.3,1.1s-10.9-8.5-22-1.1    S69.4,310,69.4,310l-43.1-24.2c0,0-1.7-3.7,2.7-5.7S58.2,267.4,58.2,267.4z"/> 	</a> </g> <g id="text_comarques"> 	<g> 		<rect x="237.1" y="52.1" style="fill-rule:evenodd;clip-rule:evenodd;fill:none;" width="167.8" height="11"/> 		<path style="fill:#1A171B;" d="M245.3,60.6h-1.9l-0.5-1.5h-2.7l-0.5,1.5h-1.9l2.7-7.3h2.2L245.3,60.6z M242.4,57.8l-0.9-2.6    l-0.9,2.6H242.4z"/> 		<path style="fill:#1A171B;" d="M250.2,56.7H250c-0.1,0-0.2,0-0.4-0.1s-0.3,0-0.4,0c-0.3,0-0.5,0-0.7,0c-0.2,0-0.4,0.1-0.6,0.2v3.7    h-1.8v-5.5h1.8v0.8c0.4-0.3,0.7-0.6,1-0.7c0.3-0.1,0.5-0.2,0.8-0.2c0.1,0,0.1,0,0.2,0c0.1,0,0.1,0,0.2,0V56.7z"/> 		<path style="fill:#1A171B;" d="M255.9,60.6h-5.2v-1.1l2.9-3.1h-2.8v-1.3h5v1.1l-2.8,3.1h2.9V60.6z"/> 		<path style="fill:#1A171B;" d="M262.6,60.6h-1.8V60c-0.3,0.2-0.6,0.4-0.9,0.6s-0.6,0.2-1,0.2c-0.6,0-1.1-0.2-1.4-0.5    c-0.3-0.3-0.5-0.9-0.5-1.5v-3.6h1.8v2.7c0,0.3,0,0.5,0,0.7c0,0.2,0.1,0.3,0.1,0.5c0.1,0.1,0.2,0.2,0.3,0.3    c0.1,0.1,0.3,0.1,0.5,0.1c0.1,0,0.3,0,0.5-0.1s0.4-0.1,0.5-0.2v-3.9h1.8V60.6z M261.5,52.4L261.5,52.4l-1.7,1.9h-1.2l1.2-1.9    H261.5z"/> 		<path style="fill:#1A171B;" d="M267.6,60c-0.1,0.1-0.2,0.2-0.4,0.3s-0.3,0.2-0.4,0.2c-0.2,0.1-0.4,0.1-0.5,0.2s-0.4,0.1-0.6,0.1    c-0.5,0-1-0.2-1.3-0.5s-0.5-0.7-0.5-1.2c0-0.4,0.1-0.7,0.3-1s0.4-0.5,0.8-0.6c0.3-0.1,0.7-0.3,1.2-0.3s1-0.1,1.5-0.1v0    c0-0.3-0.1-0.5-0.4-0.6s-0.6-0.2-1.1-0.2c-0.3,0-0.6,0.1-0.9,0.2s-0.6,0.2-0.7,0.2h-0.2v-1.3c0.2,0,0.5-0.1,0.9-0.2    c0.4-0.1,0.8-0.1,1.3-0.1c1,0,1.7,0.2,2.2,0.5c0.4,0.3,0.7,0.8,0.7,1.4v3.7h-1.7V60z M267.6,59.1V58c-0.2,0-0.5,0-0.8,0.1    c-0.3,0-0.5,0.1-0.6,0.1c-0.2,0.1-0.3,0.1-0.4,0.2c-0.1,0.1-0.1,0.2-0.1,0.4c0,0.1,0,0.2,0,0.3c0,0.1,0.1,0.1,0.1,0.2    c0.1,0.1,0.2,0.1,0.3,0.1s0.3,0,0.5,0c0.2,0,0.4,0,0.5-0.1C267.3,59.3,267.5,59.2,267.6,59.1z"/> 		<path style="fill:#1A171B;" d="M273.2,58.6l-1.8,3.7h-1.1l1-3.7H273.2z"/> 		<path style="fill:#1A171B;" d="M285.2,56.9c0,1.2-0.3,2.1-1,2.8s-1.6,1-2.8,1c-1.2,0-2.1-0.3-2.7-1s-1-1.6-1-2.8    c0-1.2,0.3-2.1,1-2.8s1.6-1,2.7-1c1.2,0,2.1,0.3,2.7,1S285.2,55.8,285.2,56.9z M282.7,58.8c0.2-0.2,0.3-0.5,0.4-0.8    s0.1-0.7,0.1-1.1c0-0.4-0.1-0.8-0.2-1.1s-0.2-0.6-0.4-0.7c-0.2-0.2-0.4-0.3-0.6-0.4c-0.2-0.1-0.4-0.1-0.7-0.1    c-0.2,0-0.5,0-0.7,0.1c-0.2,0.1-0.4,0.2-0.6,0.4c-0.2,0.2-0.3,0.4-0.4,0.8c-0.1,0.3-0.2,0.7-0.2,1.1c0,0.4,0,0.8,0.1,1.1    c0.1,0.3,0.2,0.6,0.4,0.7s0.4,0.3,0.6,0.4s0.4,0.1,0.7,0.1s0.5,0,0.7-0.1S282.5,59,282.7,58.8z"/> 		<path style="fill:#1A171B;" d="M290.5,56.7h-0.2c-0.1,0-0.2,0-0.4-0.1s-0.3,0-0.4,0c-0.3,0-0.5,0-0.7,0c-0.2,0-0.4,0.1-0.6,0.2    v3.7h-1.8v-5.5h1.8v0.8c0.4-0.3,0.7-0.6,1-0.7c0.3-0.1,0.5-0.2,0.8-0.2c0.1,0,0.1,0,0.2,0c0.1,0,0.1,0,0.2,0V56.7z"/> 		<path style="fill:#1A171B;" d="M296.8,60.6H295V60c-0.3,0.2-0.6,0.4-0.8,0.5s-0.6,0.2-0.9,0.2c-0.7,0-1.2-0.3-1.6-0.8    c-0.4-0.5-0.6-1.2-0.6-2.1c0-0.5,0.1-0.9,0.2-1.2s0.3-0.7,0.6-0.9c0.2-0.2,0.5-0.4,0.8-0.6s0.6-0.2,0.9-0.2c0.3,0,0.6,0,0.8,0.1    c0.2,0.1,0.4,0.2,0.6,0.3V53h1.8V60.6z M295,59v-2.7c-0.1-0.1-0.3-0.1-0.4-0.1s-0.3,0-0.4,0c-0.5,0-0.8,0.1-1,0.4    s-0.3,0.7-0.3,1.2c0,0.5,0.1,0.9,0.3,1.2c0.2,0.2,0.5,0.4,0.9,0.4c0.2,0,0.3,0,0.5-0.1C294.8,59.2,294.9,59.1,295,59z"/> 		<path style="fill:#1A171B;" d="M303.9,58.1h-4c0,0.4,0.2,0.8,0.5,1c0.3,0.2,0.7,0.3,1.3,0.3c0.4,0,0.7-0.1,1.1-0.2    s0.6-0.3,0.8-0.4h0.2v1.4c-0.4,0.2-0.8,0.3-1.1,0.3s-0.7,0.1-1.2,0.1c-1.1,0-1.9-0.2-2.5-0.7s-0.9-1.2-0.9-2.1    c0-0.9,0.3-1.6,0.8-2.2c0.6-0.5,1.3-0.8,2.3-0.8c0.9,0,1.6,0.2,2,0.7s0.7,1.1,0.7,1.9V58.1z M302.1,57.1c0-0.4-0.1-0.6-0.3-0.8    S301.4,56,301,56c-0.3,0-0.6,0.1-0.8,0.3s-0.3,0.5-0.4,0.8H302.1z"/> 		<path style="fill:#1A171B;" d="M309.9,58.8c0,0.6-0.3,1-0.8,1.4s-1.2,0.5-2.1,0.5c-0.5,0-0.9,0-1.3-0.1s-0.7-0.2-1-0.3v-1.4h0.2    c0.1,0.1,0.2,0.1,0.3,0.2c0.1,0.1,0.3,0.2,0.5,0.2c0.2,0.1,0.4,0.1,0.6,0.2s0.5,0.1,0.7,0.1c0.3,0,0.6,0,0.8-0.1s0.2-0.2,0.2-0.3    c0-0.1,0-0.2-0.1-0.3s-0.3-0.1-0.6-0.2c-0.1,0-0.3-0.1-0.5-0.1c-0.2,0-0.4-0.1-0.6-0.1c-0.5-0.1-0.9-0.3-1.1-0.6s-0.4-0.6-0.4-1    c0-0.5,0.3-1,0.7-1.3c0.5-0.4,1.2-0.5,2-0.5c0.4,0,0.8,0,1.2,0.1c0.4,0.1,0.7,0.2,0.9,0.3v1.4h-0.2c-0.3-0.2-0.6-0.3-0.9-0.4    c-0.3-0.1-0.7-0.2-1-0.2c-0.3,0-0.5,0-0.7,0.1c-0.2,0.1-0.3,0.2-0.3,0.3c0,0.1,0,0.2,0.1,0.3s0.3,0.1,0.6,0.2    c0.2,0,0.4,0.1,0.6,0.1c0.2,0,0.4,0.1,0.6,0.1c0.5,0.1,0.8,0.3,1,0.6S309.9,58.4,309.9,58.8z"/> 		<path style="fill:#1A171B;" d="M313.2,58.6l-1.8,3.7h-1.1l1-3.7H313.2z"/> 		<path style="fill:#1A171B;" d="M323.9,54.7h-2.3v5.9h-1.9v-5.9h-2.3v-1.4h6.4V54.7z"/> 		<path style="fill:#1A171B;" d="M330.3,58.1h-4c0,0.4,0.2,0.8,0.5,1c0.3,0.2,0.7,0.3,1.3,0.3c0.4,0,0.7-0.1,1.1-0.2    s0.6-0.3,0.8-0.4h0.2v1.4c-0.4,0.2-0.8,0.3-1.1,0.3s-0.7,0.1-1.2,0.1c-1.1,0-1.9-0.2-2.5-0.7s-0.9-1.2-0.9-2.1    c0-0.9,0.3-1.6,0.8-2.2c0.6-0.5,1.3-0.8,2.3-0.8c0.9,0,1.6,0.2,2,0.7s0.7,1.1,0.7,1.9V58.1z M328.5,57.1c0-0.4-0.1-0.6-0.3-0.8    s-0.4-0.3-0.8-0.3c-0.3,0-0.6,0.1-0.8,0.3s-0.3,0.5-0.4,0.8H328.5z"/> 		<path style="fill:#1A171B;" d="M335.5,56.7h-0.2c-0.1,0-0.2,0-0.4-0.1s-0.3,0-0.4,0c-0.3,0-0.5,0-0.7,0c-0.2,0-0.4,0.1-0.6,0.2    v3.7h-1.8v-5.5h1.8v0.8c0.4-0.3,0.7-0.6,1-0.7c0.3-0.1,0.5-0.2,0.8-0.2c0.1,0,0.1,0,0.2,0c0.1,0,0.1,0,0.2,0V56.7z"/> 		<path style="fill:#1A171B;" d="M340.5,56.7h-0.2c-0.1,0-0.2,0-0.4-0.1s-0.3,0-0.4,0c-0.3,0-0.5,0-0.7,0c-0.2,0-0.4,0.1-0.6,0.2    v3.7h-1.8v-5.5h1.8v0.8c0.4-0.3,0.7-0.6,1-0.7c0.3-0.1,0.5-0.2,0.8-0.2c0.1,0,0.1,0,0.2,0c0.1,0,0.1,0,0.2,0V56.7z"/> 		<path style="fill:#1A171B;" d="M344.8,60c-0.1,0.1-0.2,0.2-0.4,0.3s-0.3,0.2-0.4,0.2c-0.2,0.1-0.4,0.1-0.5,0.2s-0.4,0.1-0.6,0.1    c-0.5,0-1-0.2-1.3-0.5s-0.5-0.7-0.5-1.2c0-0.4,0.1-0.7,0.3-1s0.4-0.5,0.8-0.6c0.3-0.1,0.7-0.3,1.2-0.3s1-0.1,1.5-0.1v0    c0-0.3-0.1-0.5-0.4-0.6s-0.6-0.2-1.1-0.2c-0.3,0-0.6,0.1-0.9,0.2s-0.6,0.2-0.7,0.2h-0.2v-1.3c0.2,0,0.5-0.1,0.9-0.2    c0.4-0.1,0.8-0.1,1.3-0.1c1,0,1.7,0.2,2.2,0.5c0.4,0.3,0.7,0.8,0.7,1.4v3.7h-1.7V60z M344.8,59.1V58c-0.2,0-0.5,0-0.8,0.1    c-0.3,0-0.5,0.1-0.6,0.1c-0.2,0.1-0.3,0.1-0.4,0.2c-0.1,0.1-0.1,0.2-0.1,0.4c0,0.1,0,0.2,0,0.3c0,0.1,0.1,0.1,0.1,0.2    c0.1,0.1,0.2,0.1,0.3,0.1s0.3,0,0.5,0c0.2,0,0.4,0,0.5-0.1C344.5,59.3,344.7,59.2,344.8,59.1z"/> 		<path style="fill:#1A171B;" d="M356.9,60.6h-1.8V60c-0.3,0.2-0.6,0.4-0.8,0.5s-0.6,0.2-0.9,0.2c-0.7,0-1.2-0.3-1.6-0.8    c-0.4-0.5-0.6-1.2-0.6-2.1c0-0.5,0.1-0.9,0.2-1.2s0.3-0.7,0.6-0.9c0.2-0.2,0.5-0.4,0.8-0.6s0.6-0.2,0.9-0.2c0.3,0,0.6,0,0.8,0.1    c0.2,0.1,0.4,0.2,0.6,0.3V53h1.8V60.6z M355.1,59v-2.7c-0.1-0.1-0.3-0.1-0.4-0.1s-0.3,0-0.4,0c-0.5,0-0.8,0.1-1,0.4    s-0.3,0.7-0.3,1.2c0,0.5,0.1,0.9,0.3,1.2c0.2,0.2,0.5,0.4,0.9,0.4c0.2,0,0.3,0,0.5-0.1C354.8,59.2,355,59.1,355.1,59z"/> 		<path style="fill:#1A171B;" d="M364,58.1h-4c0,0.4,0.2,0.8,0.5,1c0.3,0.2,0.7,0.3,1.3,0.3c0.4,0,0.7-0.1,1.1-0.2s0.6-0.3,0.8-0.4    h0.2v1.4c-0.4,0.2-0.8,0.3-1.1,0.3s-0.7,0.1-1.2,0.1c-1.1,0-1.9-0.2-2.5-0.7s-0.9-1.2-0.9-2.1c0-0.9,0.3-1.6,0.8-2.2    c0.6-0.5,1.3-0.8,2.3-0.8c0.9,0,1.6,0.2,2,0.7s0.7,1.1,0.7,1.9V58.1z M362.2,57.1c0-0.4-0.1-0.6-0.3-0.8s-0.4-0.3-0.8-0.3    c-0.3,0-0.6,0.1-0.8,0.3s-0.3,0.5-0.4,0.8H362.2z"/> 		<path style="fill:#1A171B;" d="M376.3,60.6h-1.9v-4.9l-1.3,3.2h-1.3l-1.3-3.2v4.9h-1.8v-7.3h2.2l1.6,3.6l1.6-3.6h2.2V60.6z"/> 		<path style="fill:#1A171B;" d="M383.5,58.1h-4c0,0.4,0.2,0.8,0.5,1c0.3,0.2,0.7,0.3,1.3,0.3c0.4,0,0.7-0.1,1.1-0.2    s0.6-0.3,0.8-0.4h0.2v1.4c-0.4,0.2-0.8,0.3-1.1,0.3s-0.7,0.1-1.2,0.1c-1.1,0-1.9-0.2-2.5-0.7s-0.9-1.2-0.9-2.1    c0-0.9,0.3-1.6,0.8-2.2c0.6-0.5,1.3-0.8,2.3-0.8c0.9,0,1.6,0.2,2,0.7s0.7,1.1,0.7,1.9V58.1z M381.7,57.1c0-0.4-0.1-0.6-0.3-0.8    S381,56,380.7,56c-0.3,0-0.6,0.1-0.8,0.3s-0.3,0.5-0.4,0.8H381.7z"/> 		<path style="fill:#1A171B;" d="M386.5,60.6h-1.8V53h1.8V60.6z"/> 		<path style="fill:#1A171B;" d="M390,54.3h-1.9V53h1.9V54.3z M389.9,60.6h-1.8v-5.5h1.8V60.6z"/> 		<path style="fill:#1A171B;" d="M396.9,60.6h-1.8V60c-0.3,0.2-0.6,0.4-0.8,0.5s-0.6,0.2-0.9,0.2c-0.7,0-1.2-0.3-1.6-0.8    c-0.4-0.5-0.6-1.2-0.6-2.1c0-0.5,0.1-0.9,0.2-1.2s0.3-0.7,0.6-0.9c0.2-0.2,0.5-0.4,0.8-0.6s0.6-0.2,0.9-0.2c0.3,0,0.6,0,0.8,0.1    c0.2,0.1,0.4,0.2,0.6,0.3V53h1.8V60.6z M395.1,59v-2.7c-0.1-0.1-0.3-0.1-0.4-0.1s-0.3,0-0.4,0c-0.5,0-0.8,0.1-1,0.4    s-0.3,0.7-0.3,1.2c0,0.5,0.1,0.9,0.3,1.2c0.2,0.2,0.5,0.4,0.9,0.4c0.2,0,0.3,0,0.5-0.1C394.8,59.2,395,59.1,395.1,59z"/> 		<path style="fill:#1A171B;" d="M404,58.1h-4c0,0.4,0.2,0.8,0.5,1c0.3,0.2,0.7,0.3,1.3,0.3c0.4,0,0.7-0.1,1.1-0.2s0.6-0.3,0.8-0.4    h0.2v1.4c-0.4,0.2-0.8,0.3-1.1,0.3s-0.7,0.1-1.2,0.1c-1.1,0-1.9-0.2-2.5-0.7s-0.9-1.2-0.9-2.1c0-0.9,0.3-1.6,0.8-2.2    c0.6-0.5,1.3-0.8,2.3-0.8c0.9,0,1.6,0.2,2,0.7s0.7,1.1,0.7,1.9V58.1z M402.2,57.1c0-0.4-0.1-0.6-0.3-0.8s-0.4-0.3-0.8-0.3    c-0.3,0-0.6,0.1-0.8,0.3s-0.3,0.5-0.4,0.8H402.2z"/> 	</g> 	<g> 		<rect x="84" y="389.8" style="fill-rule:evenodd;clip-rule:evenodd;fill:none;" width="97.4" height="11"/> 		<path style="fill:#1A171B;" d="M92.5,394.7c0,1.2-0.3,2.1-1,2.8c-0.7,0.7-1.6,1-2.8,1c-1.2,0-2.1-0.3-2.7-1c-0.7-0.7-1-1.6-1-2.8    c0-1.2,0.3-2.1,1-2.8c0.7-0.7,1.6-1,2.7-1c1.2,0,2.1,0.3,2.7,1C92.2,392.6,92.5,393.5,92.5,394.7z M90,396.5    c0.2-0.2,0.3-0.5,0.4-0.8c0.1-0.3,0.1-0.7,0.1-1.1c0-0.4-0.1-0.8-0.2-1.1s-0.2-0.6-0.4-0.7c-0.2-0.2-0.4-0.3-0.6-0.4    c-0.2-0.1-0.4-0.1-0.7-0.1c-0.2,0-0.5,0-0.7,0.1c-0.2,0.1-0.4,0.2-0.6,0.4c-0.2,0.2-0.3,0.4-0.4,0.8c-0.1,0.3-0.2,0.7-0.2,1.1    c0,0.4,0,0.8,0.1,1.1c0.1,0.3,0.2,0.6,0.4,0.7s0.4,0.3,0.6,0.4s0.4,0.1,0.7,0.1s0.5,0,0.7-0.1C89.7,396.9,89.9,396.7,90,396.5z"/> 		<path style="fill:#1A171B;" d="M103.6,396.1c0,0.4-0.1,0.7-0.2,0.9c-0.1,0.3-0.3,0.5-0.6,0.7c-0.3,0.2-0.6,0.4-0.9,0.5    c-0.3,0.1-0.8,0.1-1.3,0.1h-3.2V391h2.8c0.6,0,1,0,1.3,0.1c0.3,0,0.5,0.1,0.8,0.3c0.3,0.1,0.5,0.3,0.6,0.6    c0.1,0.2,0.2,0.5,0.2,0.8c0,0.4-0.1,0.7-0.3,0.9c-0.2,0.3-0.4,0.5-0.8,0.6v0c0.5,0.1,0.9,0.3,1.1,0.6    C103.5,395.2,103.6,395.6,103.6,396.1z M101.2,393.1c0-0.1,0-0.2-0.1-0.4c-0.1-0.1-0.2-0.2-0.3-0.3c-0.1-0.1-0.3-0.1-0.5-0.1    c-0.2,0-0.5,0-0.9,0h-0.2v1.5h0.3c0.3,0,0.5,0,0.8,0s0.4,0,0.5-0.1c0.2-0.1,0.3-0.2,0.3-0.3C101.2,393.4,101.2,393.3,101.2,393.1z     M101.7,396.1c0-0.2,0-0.4-0.1-0.5c-0.1-0.1-0.2-0.2-0.5-0.3c-0.1,0-0.3-0.1-0.6-0.1c-0.3,0-0.5,0-0.8,0h-0.4v1.8h0.1    c0.5,0,0.9,0,1.1,0s0.4,0,0.6-0.1c0.2-0.1,0.3-0.2,0.4-0.3C101.6,396.4,101.7,396.2,101.7,396.1z"/> 		<path style="fill:#1A171B;" d="M108.2,397.7c-0.1,0.1-0.2,0.2-0.4,0.3s-0.3,0.2-0.4,0.2c-0.2,0.1-0.4,0.1-0.5,0.2    c-0.2,0-0.4,0.1-0.6,0.1c-0.5,0-1-0.2-1.3-0.5s-0.5-0.7-0.5-1.2c0-0.4,0.1-0.7,0.3-1s0.4-0.5,0.8-0.6c0.3-0.1,0.7-0.3,1.2-0.3    s1-0.1,1.5-0.1v0c0-0.3-0.1-0.5-0.4-0.6c-0.2-0.1-0.6-0.2-1.1-0.2c-0.3,0-0.6,0.1-0.9,0.2c-0.3,0.1-0.6,0.2-0.7,0.2H105v-1.3    c0.2,0,0.5-0.1,0.9-0.2c0.4-0.1,0.8-0.1,1.3-0.1c1,0,1.7,0.2,2.2,0.5c0.4,0.3,0.7,0.8,0.7,1.4v3.7h-1.7V397.7z M108.2,396.9v-1.1    c-0.2,0-0.5,0-0.8,0.1c-0.3,0-0.5,0.1-0.6,0.1c-0.2,0.1-0.3,0.1-0.4,0.2c-0.1,0.1-0.1,0.2-0.1,0.4c0,0.1,0,0.2,0,0.3    c0,0.1,0.1,0.1,0.1,0.2c0.1,0.1,0.2,0.1,0.3,0.1c0.1,0,0.3,0,0.5,0c0.2,0,0.4,0,0.5-0.1C107.9,397.1,108.1,397,108.2,396.9z"/> 		<path style="fill:#1A171B;" d="M115.6,394.5h-0.2c-0.1,0-0.2,0-0.4-0.1s-0.3,0-0.4,0c-0.3,0-0.5,0-0.7,0c-0.2,0-0.4,0.1-0.6,0.2    v3.7h-1.8v-5.5h1.8v0.8c0.4-0.3,0.7-0.6,1-0.7c0.3-0.1,0.5-0.2,0.8-0.2c0.1,0,0.1,0,0.2,0c0.1,0,0.1,0,0.2,0V394.5z"/> 		<path style="fill:#1A171B;" d="M122.3,395.5c0,0.9-0.2,1.6-0.7,2.1c-0.5,0.5-1.1,0.8-1.8,0.8c-0.3,0-0.6,0-0.8-0.1    c-0.2-0.1-0.5-0.2-0.7-0.3l-0.1,0.3h-1.7v-7.6h1.8v2.7c0.3-0.2,0.5-0.4,0.8-0.5s0.6-0.2,1-0.2c0.7,0,1.2,0.3,1.6,0.7    C122.1,393.9,122.3,394.6,122.3,395.5z M120.5,395.5c0-0.5-0.1-0.9-0.2-1.1c-0.2-0.3-0.5-0.4-0.9-0.4c-0.2,0-0.3,0-0.5,0.1    c-0.2,0-0.3,0.1-0.5,0.2v2.7c0.1,0,0.2,0.1,0.4,0.1c0.1,0,0.3,0,0.4,0c0.5,0,0.8-0.1,1-0.4C120.3,396.5,120.5,396.1,120.5,395.5z"/> 		<path style="fill:#1A171B;" d="M126.9,397.7c-0.1,0.1-0.2,0.2-0.4,0.3s-0.3,0.2-0.4,0.2c-0.2,0.1-0.4,0.1-0.5,0.2    c-0.2,0-0.4,0.1-0.6,0.1c-0.5,0-1-0.2-1.3-0.5s-0.5-0.7-0.5-1.2c0-0.4,0.1-0.7,0.3-1s0.4-0.5,0.8-0.6c0.3-0.1,0.7-0.3,1.2-0.3    s1-0.1,1.5-0.1v0c0-0.3-0.1-0.5-0.4-0.6c-0.2-0.1-0.6-0.2-1.1-0.2c-0.3,0-0.6,0.1-0.9,0.2c-0.3,0.1-0.6,0.2-0.7,0.2h-0.2v-1.3    c0.2,0,0.5-0.1,0.9-0.2c0.4-0.1,0.8-0.1,1.3-0.1c1,0,1.7,0.2,2.2,0.5c0.4,0.3,0.7,0.8,0.7,1.4v3.7h-1.7V397.7z M126.9,396.9v-1.1    c-0.2,0-0.5,0-0.8,0.1c-0.3,0-0.5,0.1-0.6,0.1c-0.2,0.1-0.3,0.1-0.4,0.2c-0.1,0.1-0.1,0.2-0.1,0.4c0,0.1,0,0.2,0,0.3    c0,0.1,0.1,0.1,0.1,0.2c0.1,0.1,0.2,0.1,0.3,0.1c0.1,0,0.3,0,0.5,0c0.2,0,0.4,0,0.5-0.1C126.6,397.1,126.7,397,126.9,396.9z"/> 		<path style="fill:#1A171B;" d="M135.7,398.3H134v-2.7c0-0.2,0-0.4,0-0.7c0-0.2-0.1-0.4-0.1-0.5c-0.1-0.1-0.2-0.2-0.3-0.3    c-0.1-0.1-0.3-0.1-0.5-0.1c-0.2,0-0.3,0-0.5,0.1c-0.2,0.1-0.3,0.1-0.5,0.2v3.9h-1.8v-5.5h1.8v0.6c0.3-0.2,0.6-0.4,0.9-0.6    c0.3-0.1,0.6-0.2,1-0.2c0.6,0,1.1,0.2,1.4,0.5s0.5,0.9,0.5,1.5V398.3z"/> 		<path style="fill:#1A171B;" d="M140.7,397.7c-0.1,0.1-0.2,0.2-0.4,0.3s-0.3,0.2-0.4,0.2c-0.2,0.1-0.4,0.1-0.5,0.2    c-0.2,0-0.4,0.1-0.6,0.1c-0.5,0-1-0.2-1.3-0.5s-0.5-0.7-0.5-1.2c0-0.4,0.1-0.7,0.3-1s0.4-0.5,0.8-0.6c0.3-0.1,0.7-0.3,1.2-0.3    s1-0.1,1.5-0.1v0c0-0.3-0.1-0.5-0.4-0.6c-0.2-0.1-0.6-0.2-1.1-0.2c-0.3,0-0.6,0.1-0.9,0.2c-0.3,0.1-0.6,0.2-0.7,0.2h-0.2v-1.3    c0.2,0,0.5-0.1,0.9-0.2c0.4-0.1,0.8-0.1,1.3-0.1c1,0,1.7,0.2,2.2,0.5c0.4,0.3,0.7,0.8,0.7,1.4v3.7h-1.7V397.7z M140.7,396.9v-1.1    c-0.2,0-0.5,0-0.8,0.1c-0.3,0-0.5,0.1-0.6,0.1c-0.2,0.1-0.3,0.1-0.4,0.2c-0.1,0.1-0.1,0.2-0.1,0.4c0,0.1,0,0.2,0,0.3    c0,0.1,0.1,0.1,0.1,0.2c0.1,0.1,0.2,0.1,0.3,0.1c0.1,0,0.3,0,0.5,0c0.2,0,0.4,0,0.5-0.1C140.4,397.1,140.5,397,140.7,396.9z"/> 		<path style="fill:#1A171B;" d="M146.2,396.4l-1.8,3.7h-1.1l1-3.7H146.2z"/> 		<path style="fill:#1A171B;" d="M158.2,394.7c0,1.2-0.3,2.1-1,2.8c-0.7,0.7-1.6,1-2.8,1c-1.2,0-2.1-0.3-2.7-1c-0.7-0.7-1-1.6-1-2.8    c0-1.2,0.3-2.1,1-2.8c0.7-0.7,1.6-1,2.7-1c1.2,0,2.1,0.3,2.7,1C157.9,392.6,158.2,393.5,158.2,394.7z M155.7,396.5    c0.2-0.2,0.3-0.5,0.4-0.8c0.1-0.3,0.1-0.7,0.1-1.1c0-0.4-0.1-0.8-0.2-1.1s-0.2-0.6-0.4-0.7c-0.2-0.2-0.4-0.3-0.6-0.4    c-0.2-0.1-0.4-0.1-0.7-0.1c-0.2,0-0.5,0-0.7,0.1c-0.2,0.1-0.4,0.2-0.6,0.4c-0.2,0.2-0.3,0.4-0.4,0.8c-0.1,0.3-0.2,0.7-0.2,1.1    c0,0.4,0,0.8,0.1,1.1c0.1,0.3,0.2,0.6,0.4,0.7s0.4,0.3,0.6,0.4s0.4,0.1,0.7,0.1s0.5,0,0.7-0.1    C155.4,396.9,155.6,396.7,155.7,396.5z"/> 		<path style="fill:#1A171B;" d="M168.9,396c0,0.7-0.3,1.3-0.9,1.7c-0.6,0.4-1.4,0.7-2.5,0.7c-0.6,0-1.1-0.1-1.6-0.2    c-0.4-0.1-0.9-0.2-1.3-0.4v-1.7h0.2c0.4,0.3,0.8,0.5,1.3,0.7c0.5,0.2,0.9,0.2,1.4,0.2c0.1,0,0.3,0,0.4,0s0.3-0.1,0.5-0.1    c0.1-0.1,0.3-0.1,0.4-0.2c0.1-0.1,0.1-0.2,0.1-0.4c0-0.2-0.1-0.3-0.2-0.4c-0.1-0.1-0.3-0.2-0.6-0.3c-0.3-0.1-0.6-0.1-0.9-0.2    c-0.3-0.1-0.6-0.1-0.9-0.2c-0.6-0.2-1.1-0.5-1.3-0.8c-0.3-0.3-0.4-0.8-0.4-1.3c0-0.7,0.3-1.2,0.9-1.7c0.6-0.4,1.4-0.6,2.3-0.6    c0.5,0,1,0,1.4,0.1c0.5,0.1,0.9,0.2,1.2,0.3v1.7h-0.2c-0.3-0.2-0.7-0.4-1.1-0.6c-0.4-0.2-0.9-0.2-1.3-0.2c-0.2,0-0.3,0-0.5,0    c-0.2,0-0.3,0.1-0.4,0.1c-0.1,0-0.2,0.1-0.3,0.2c-0.1,0.1-0.1,0.2-0.1,0.3c0,0.2,0.1,0.3,0.2,0.4c0.1,0.1,0.4,0.2,0.8,0.3    c0.3,0.1,0.5,0.1,0.8,0.2c0.2,0.1,0.5,0.1,0.8,0.2c0.6,0.2,1,0.4,1.2,0.7C168.8,395.1,168.9,395.5,168.9,396z"/> 		<path style="fill:#1A171B;" d="M173.4,397.7c-0.1,0.1-0.2,0.2-0.4,0.3s-0.3,0.2-0.4,0.2c-0.2,0.1-0.4,0.1-0.5,0.2    c-0.2,0-0.4,0.1-0.6,0.1c-0.5,0-1-0.2-1.3-0.5s-0.5-0.7-0.5-1.2c0-0.4,0.1-0.7,0.3-1s0.4-0.5,0.8-0.6c0.3-0.1,0.7-0.3,1.2-0.3    s1-0.1,1.5-0.1v0c0-0.3-0.1-0.5-0.4-0.6c-0.2-0.1-0.6-0.2-1.1-0.2c-0.3,0-0.6,0.1-0.9,0.2c-0.3,0.1-0.6,0.2-0.7,0.2h-0.2v-1.3    c0.2,0,0.5-0.1,0.9-0.2c0.4-0.1,0.8-0.1,1.3-0.1c1,0,1.7,0.2,2.2,0.5c0.4,0.3,0.7,0.8,0.7,1.4v3.7h-1.7V397.7z M173.4,396.9v-1.1    c-0.2,0-0.5,0-0.8,0.1c-0.3,0-0.5,0.1-0.6,0.1c-0.2,0.1-0.3,0.1-0.4,0.2c-0.1,0.1-0.1,0.2-0.1,0.4c0,0.1,0,0.2,0,0.3    c0,0.1,0.1,0.1,0.1,0.2c0.1,0.1,0.2,0.1,0.3,0.1c0.1,0,0.3,0,0.5,0c0.2,0,0.4,0,0.5-0.1C173.1,397.1,173.3,397,173.4,396.9z"/> 		<path style="fill:#1A171B;" d="M180.7,394.5h-0.2c-0.1,0-0.2,0-0.4-0.1s-0.3,0-0.4,0c-0.3,0-0.5,0-0.7,0c-0.2,0-0.4,0.1-0.6,0.2    v3.7h-1.8v-5.5h1.8v0.8c0.4-0.3,0.7-0.6,1-0.7c0.3-0.1,0.5-0.2,0.8-0.2c0.1,0,0.1,0,0.2,0c0.1,0,0.1,0,0.2,0V394.5z"/> 	</g> 	<g> 		<rect x="30.2" y="189.4" style="fill-rule:evenodd;clip-rule:evenodd;fill:none;" width="86.6" height="11"/> 		<path style="fill:#1A171B;" d="M38.3,197.9h-1.8l-3.1-5v5h-1.7v-7.3h2.2l2.7,4.2v-4.2h1.7V197.9z"/> 		<path style="fill:#1A171B;" d="M45.6,195.2c0,0.9-0.3,1.6-0.8,2.1c-0.5,0.5-1.3,0.8-2.2,0.8s-1.7-0.3-2.2-0.8    c-0.5-0.5-0.8-1.2-0.8-2.1c0-0.9,0.3-1.6,0.8-2.1c0.5-0.5,1.3-0.8,2.2-0.8c1,0,1.7,0.3,2.2,0.8C45.4,193.6,45.6,194.3,45.6,195.2z     M43.5,196.5c0.1-0.1,0.2-0.3,0.3-0.5c0.1-0.2,0.1-0.5,0.1-0.8c0-0.3,0-0.6-0.1-0.8s-0.1-0.4-0.2-0.5c-0.1-0.1-0.2-0.2-0.4-0.3    s-0.3-0.1-0.5-0.1s-0.3,0-0.5,0.1c-0.1,0-0.3,0.1-0.4,0.3c-0.1,0.1-0.2,0.3-0.3,0.5c-0.1,0.2-0.1,0.5-0.1,0.8c0,0.3,0,0.6,0.1,0.8    s0.1,0.4,0.2,0.5c0.1,0.1,0.2,0.2,0.4,0.3c0.1,0.1,0.3,0.1,0.5,0.1c0.2,0,0.3,0,0.5-0.1C43.2,196.7,43.4,196.6,43.5,196.5z"/> 		<path style="fill:#1A171B;" d="M48.7,191.7h-1.9v-1.3h1.9V191.7z M48.7,197.9h-1.8v-5.5h1.8V197.9z"/> 		<path style="fill:#1A171B;" d="M53.6,197.3c-0.1,0.1-0.2,0.2-0.4,0.3s-0.3,0.2-0.4,0.2c-0.2,0.1-0.4,0.1-0.5,0.2s-0.4,0.1-0.6,0.1    c-0.5,0-1-0.2-1.3-0.5s-0.5-0.7-0.5-1.2c0-0.4,0.1-0.7,0.3-1s0.4-0.5,0.8-0.6c0.3-0.1,0.7-0.3,1.2-0.3s1-0.1,1.5-0.1v0    c0-0.3-0.1-0.5-0.4-0.6s-0.6-0.2-1.1-0.2c-0.3,0-0.6,0.1-0.9,0.2s-0.6,0.2-0.7,0.2h-0.2v-1.3c0.2,0,0.5-0.1,0.9-0.2    c0.4-0.1,0.8-0.1,1.3-0.1c1,0,1.7,0.2,2.2,0.5c0.4,0.3,0.7,0.8,0.7,1.4v3.7h-1.7V197.3z M53.6,196.5v-1.1c-0.2,0-0.5,0-0.8,0.1    c-0.3,0-0.5,0.1-0.6,0.1c-0.2,0.1-0.3,0.1-0.4,0.2c-0.1,0.1-0.1,0.2-0.1,0.4c0,0.1,0,0.2,0,0.3c0,0.1,0.1,0.1,0.1,0.2    c0.1,0.1,0.2,0.1,0.3,0.1s0.3,0,0.5,0c0.2,0,0.4,0,0.5-0.1C53.3,196.7,53.5,196.6,53.6,196.5z"/> 		<path style="fill:#1A171B;" d="M59.2,196l-1.8,3.7h-1.1l1-3.7H59.2z"/> 		<path style="fill:#1A171B;" d="M70.8,197.9h-1.9l-0.5-1.5h-2.7l-0.5,1.5h-1.9l2.7-7.3h2.2L70.8,197.9z M67.9,195.1l-0.9-2.6    l-0.9,2.6H67.9z"/> 		<path style="fill:#1A171B;" d="M81.5,195.7c0,0.4-0.1,0.7-0.2,0.9c-0.1,0.3-0.3,0.5-0.6,0.7c-0.3,0.2-0.6,0.4-0.9,0.5    c-0.3,0.1-0.8,0.1-1.3,0.1h-3.2v-7.3h2.8c0.6,0,1,0,1.3,0.1c0.3,0,0.5,0.1,0.8,0.3c0.3,0.1,0.5,0.3,0.6,0.6    c0.1,0.2,0.2,0.5,0.2,0.8c0,0.4-0.1,0.7-0.3,0.9s-0.4,0.5-0.8,0.6v0c0.5,0.1,0.9,0.3,1.1,0.6C81.4,194.8,81.5,195.2,81.5,195.7z     M79.1,192.7c0-0.1,0-0.2-0.1-0.4c-0.1-0.1-0.2-0.2-0.3-0.3c-0.1-0.1-0.3-0.1-0.5-0.1c-0.2,0-0.5,0-0.9,0h-0.2v1.5h0.3    c0.3,0,0.5,0,0.8,0s0.4,0,0.5-0.1c0.2-0.1,0.3-0.2,0.3-0.3S79.1,192.9,79.1,192.7z M79.6,195.7c0-0.2,0-0.4-0.1-0.5    c-0.1-0.1-0.2-0.2-0.5-0.3c-0.1,0-0.3-0.1-0.6-0.1c-0.3,0-0.5,0-0.8,0h-0.4v1.8h0.1c0.5,0,0.9,0,1.1,0s0.4,0,0.6-0.1    c0.2-0.1,0.3-0.2,0.4-0.3S79.6,195.8,79.6,195.7z"/> 		<path style="fill:#1A171B;" d="M86.1,197.3c-0.1,0.1-0.2,0.2-0.4,0.3s-0.3,0.2-0.4,0.2c-0.2,0.1-0.4,0.1-0.5,0.2s-0.4,0.1-0.6,0.1    c-0.5,0-1-0.2-1.3-0.5s-0.5-0.7-0.5-1.2c0-0.4,0.1-0.7,0.3-1s0.4-0.5,0.8-0.6c0.3-0.1,0.7-0.3,1.2-0.3s1-0.1,1.5-0.1v0    c0-0.3-0.1-0.5-0.4-0.6s-0.6-0.2-1.1-0.2c-0.3,0-0.6,0.1-0.9,0.2s-0.6,0.2-0.7,0.2h-0.2v-1.3c0.2,0,0.5-0.1,0.9-0.2    c0.4-0.1,0.8-0.1,1.3-0.1c1,0,1.7,0.2,2.2,0.5c0.4,0.3,0.7,0.8,0.7,1.4v3.7h-1.7V197.3z M86.1,196.5v-1.1c-0.2,0-0.5,0-0.8,0.1    c-0.3,0-0.5,0.1-0.6,0.1c-0.2,0.1-0.3,0.1-0.4,0.2c-0.1,0.1-0.1,0.2-0.1,0.4c0,0.1,0,0.2,0,0.3c0,0.1,0.1,0.1,0.1,0.2    c0.1,0.1,0.2,0.1,0.3,0.1s0.3,0,0.5,0c0.2,0,0.4,0,0.5-0.1C85.8,196.7,86,196.6,86.1,196.5z"/> 		<path style="fill:#1A171B;" d="M93.5,194.1h-0.2c-0.1,0-0.2,0-0.4-0.1s-0.3,0-0.4,0c-0.3,0-0.5,0-0.7,0c-0.2,0-0.4,0.1-0.6,0.2    v3.7h-1.8v-5.5h1.8v0.8c0.4-0.3,0.7-0.6,1-0.7c0.3-0.1,0.5-0.2,0.8-0.2c0.1,0,0.1,0,0.2,0c0.1,0,0.1,0,0.2,0V194.1z"/> 		<path style="fill:#1A171B;" d="M97.3,198.1c-0.5,0-0.9-0.1-1.3-0.2c-0.4-0.1-0.7-0.3-1-0.5c-0.3-0.2-0.5-0.5-0.7-0.9    s-0.2-0.8-0.2-1.3c0-0.5,0.1-1,0.3-1.3c0.2-0.4,0.4-0.7,0.7-0.9c0.3-0.2,0.6-0.4,1-0.5s0.8-0.2,1.2-0.2c0.4,0,0.7,0,1,0.1    s0.6,0.2,0.9,0.3v1.5h-0.2c-0.1-0.1-0.2-0.1-0.2-0.2s-0.2-0.2-0.4-0.2c-0.1-0.1-0.3-0.1-0.4-0.2s-0.3-0.1-0.6-0.1    c-0.5,0-0.8,0.1-1.1,0.4s-0.4,0.7-0.4,1.2c0,0.5,0.1,0.9,0.4,1.2c0.3,0.3,0.6,0.4,1.1,0.4c0.2,0,0.4,0,0.6-0.1    c0.2-0.1,0.3-0.1,0.4-0.2c0.1-0.1,0.2-0.1,0.3-0.2c0.1-0.1,0.2-0.1,0.2-0.2h0.2v1.5c-0.3,0.1-0.6,0.2-0.9,0.3    C98,198,97.7,198.1,97.3,198.1z"/> 		<path style="fill:#1A171B;" d="M103.7,197.3c-0.1,0.1-0.2,0.2-0.4,0.3s-0.3,0.2-0.4,0.2c-0.2,0.1-0.4,0.1-0.5,0.2    s-0.4,0.1-0.6,0.1c-0.5,0-1-0.2-1.3-0.5s-0.5-0.7-0.5-1.2c0-0.4,0.1-0.7,0.3-1s0.4-0.5,0.8-0.6c0.3-0.1,0.7-0.3,1.2-0.3    s1-0.1,1.5-0.1v0c0-0.3-0.1-0.5-0.4-0.6s-0.6-0.2-1.1-0.2c-0.3,0-0.6,0.1-0.9,0.2s-0.6,0.2-0.7,0.2h-0.2v-1.3    c0.2,0,0.5-0.1,0.9-0.2c0.4-0.1,0.8-0.1,1.3-0.1c1,0,1.7,0.2,2.2,0.5c0.4,0.3,0.7,0.8,0.7,1.4v3.7h-1.7V197.3z M103.7,196.5v-1.1    c-0.2,0-0.5,0-0.8,0.1c-0.3,0-0.5,0.1-0.6,0.1c-0.2,0.1-0.3,0.1-0.4,0.2c-0.1,0.1-0.1,0.2-0.1,0.4c0,0.1,0,0.2,0,0.3    c0,0.1,0.1,0.1,0.1,0.2c0.1,0.1,0.2,0.1,0.3,0.1s0.3,0,0.5,0c0.2,0,0.4,0,0.5-0.1C103.4,196.7,103.5,196.6,103.7,196.5z"/> 		<path style="fill:#1A171B;" d="M108.8,197.9H107v-7.6h1.8V197.9z"/> 		<path style="fill:#1A171B;" d="M113.8,197.3c-0.1,0.1-0.2,0.2-0.4,0.3s-0.3,0.2-0.4,0.2c-0.2,0.1-0.4,0.1-0.5,0.2    s-0.4,0.1-0.6,0.1c-0.5,0-1-0.2-1.3-0.5s-0.5-0.7-0.5-1.2c0-0.4,0.1-0.7,0.3-1s0.4-0.5,0.8-0.6c0.3-0.1,0.7-0.3,1.2-0.3    s1-0.1,1.5-0.1v0c0-0.3-0.1-0.5-0.4-0.6s-0.6-0.2-1.1-0.2c-0.3,0-0.6,0.1-0.9,0.2s-0.6,0.2-0.7,0.2h-0.2v-1.3    c0.2,0,0.5-0.1,0.9-0.2c0.4-0.1,0.8-0.1,1.3-0.1c1,0,1.7,0.2,2.2,0.5c0.4,0.3,0.7,0.8,0.7,1.4v3.7h-1.7V197.3z M113.8,196.5v-1.1    c-0.2,0-0.5,0-0.8,0.1c-0.3,0-0.5,0.1-0.6,0.1c-0.2,0.1-0.3,0.1-0.4,0.2c-0.1,0.1-0.1,0.2-0.1,0.4c0,0.1,0,0.2,0,0.3    c0,0.1,0.1,0.1,0.1,0.2c0.1,0.1,0.2,0.1,0.3,0.1s0.3,0,0.5,0c0.2,0,0.4,0,0.5-0.1C113.5,196.7,113.6,196.6,113.8,196.5z"/> 	</g> 	<g> 		<rect x="33.7" y="70.7" style="fill-rule:evenodd;clip-rule:evenodd;fill:none;" width="76.2" height="11"/> 		<path style="fill:#1A171B;" d="M42.8,79.2h-1.9v-4.9l-1.3,3.2h-1.3l-1.3-3.2v4.9h-1.8V72h2.2l1.6,3.6l1.6-3.6h2.2V79.2z"/> 		<path style="fill:#1A171B;" d="M50,79.2h-1.8v-0.6c-0.3,0.2-0.6,0.4-0.9,0.6s-0.6,0.2-1,0.2c-0.6,0-1.1-0.2-1.4-0.5    c-0.3-0.3-0.5-0.9-0.5-1.5v-3.6h1.8v2.7c0,0.3,0,0.5,0,0.7c0,0.2,0.1,0.3,0.1,0.5c0.1,0.1,0.2,0.2,0.3,0.3    c0.1,0.1,0.3,0.1,0.5,0.1c0.1,0,0.3,0,0.5-0.1s0.4-0.1,0.5-0.2v-3.9H50V79.2z"/> 		<path style="fill:#1A171B;" d="M55.6,75.4h-0.2c-0.1,0-0.2,0-0.4-0.1s-0.3,0-0.4,0c-0.3,0-0.5,0-0.7,0c-0.2,0-0.4,0.1-0.6,0.2v3.7    h-1.8v-5.5h1.8v0.8c0.4-0.3,0.7-0.6,1-0.7c0.3-0.1,0.5-0.2,0.8-0.2c0.1,0,0.1,0,0.2,0c0.1,0,0.1,0,0.2,0V75.4z"/> 		<path style="fill:#1A171B;" d="M62.2,76.5c0,0.9-0.3,1.6-0.8,2.1c-0.5,0.5-1.3,0.8-2.2,0.8s-1.7-0.3-2.2-0.8    c-0.5-0.5-0.8-1.2-0.8-2.1c0-0.9,0.3-1.6,0.8-2.1c0.5-0.5,1.3-0.8,2.2-0.8c1,0,1.7,0.3,2.2,0.8C62,74.9,62.2,75.6,62.2,76.5z     M60.1,77.8c0.1-0.1,0.2-0.3,0.3-0.5c0.1-0.2,0.1-0.5,0.1-0.8c0-0.3,0-0.6-0.1-0.8s-0.1-0.4-0.2-0.5c-0.1-0.1-0.2-0.2-0.4-0.3    s-0.3-0.1-0.5-0.1s-0.3,0-0.5,0.1c-0.1,0-0.3,0.1-0.4,0.3c-0.1,0.1-0.2,0.3-0.3,0.5c-0.1,0.2-0.1,0.5-0.1,0.8c0,0.3,0,0.6,0.1,0.8    s0.1,0.4,0.2,0.5c0.1,0.1,0.2,0.2,0.4,0.3c0.1,0.1,0.3,0.1,0.5,0.1c0.2,0,0.3,0,0.5-0.1C59.8,78,60,78,60.1,77.8z"/> 		<path style="fill:#1A171B;" d="M68.2,77.5c0,0.6-0.3,1-0.8,1.4s-1.2,0.5-2.1,0.5c-0.5,0-0.9,0-1.3-0.1s-0.7-0.2-1-0.3v-1.4h0.2    c0.1,0.1,0.2,0.1,0.3,0.2c0.1,0.1,0.3,0.2,0.5,0.2c0.2,0.1,0.4,0.1,0.6,0.2s0.5,0.1,0.7,0.1c0.3,0,0.6,0,0.8-0.1s0.2-0.2,0.2-0.3    c0-0.1,0-0.2-0.1-0.3s-0.3-0.1-0.6-0.2c-0.1,0-0.3-0.1-0.5-0.1c-0.2,0-0.4-0.1-0.6-0.1c-0.5-0.1-0.9-0.3-1.1-0.6s-0.4-0.6-0.4-1    c0-0.5,0.3-1,0.7-1.3c0.5-0.4,1.2-0.5,2-0.5c0.4,0,0.8,0,1.2,0.1c0.4,0.1,0.7,0.2,0.9,0.3v1.4h-0.2c-0.3-0.2-0.6-0.3-0.9-0.4    c-0.3-0.1-0.7-0.2-1-0.2c-0.3,0-0.5,0-0.7,0.1c-0.2,0.1-0.3,0.2-0.3,0.3c0,0.1,0,0.2,0.1,0.3s0.3,0.1,0.6,0.2    c0.2,0,0.4,0.1,0.6,0.1c0.2,0,0.4,0.1,0.6,0.1c0.5,0.1,0.8,0.3,1,0.6S68.2,77.1,68.2,77.5z"/> 		<path style="fill:#1A171B;" d="M71.6,77.3L69.8,81h-1.1l1-3.7H71.6z"/> 		<path style="fill:#1A171B;" d="M83.1,79.2H81l-1.6-2.4l-1.6,2.4h-2.1l2.6-3.7L75.8,72H78l1.5,2.3L81,72h2.1l-2.5,3.5L83.1,79.2z"/> 		<path style="fill:#1A171B;" d="M87.4,78.7c-0.1,0.1-0.2,0.2-0.4,0.3s-0.3,0.2-0.4,0.2c-0.2,0.1-0.4,0.1-0.5,0.2s-0.4,0.1-0.6,0.1    c-0.5,0-1-0.2-1.3-0.5s-0.5-0.7-0.5-1.2c0-0.4,0.1-0.7,0.3-1s0.4-0.5,0.8-0.6c0.3-0.1,0.7-0.3,1.2-0.3s1-0.1,1.5-0.1v0    c0-0.3-0.1-0.5-0.4-0.6s-0.6-0.2-1.1-0.2c-0.3,0-0.6,0.1-0.9,0.2s-0.6,0.2-0.7,0.2h-0.2v-1.3c0.2,0,0.5-0.1,0.9-0.2    c0.4-0.1,0.8-0.1,1.3-0.1c1,0,1.7,0.2,2.2,0.5c0.4,0.3,0.7,0.8,0.7,1.4v3.7h-1.7V78.7z M87.4,77.8v-1.1c-0.2,0-0.5,0-0.8,0.1    c-0.3,0-0.5,0.1-0.6,0.1c-0.2,0.1-0.3,0.1-0.4,0.2c-0.1,0.1-0.1,0.2-0.1,0.4c0,0.1,0,0.2,0,0.3c0,0.1,0.1,0.1,0.1,0.2    c0.1,0.1,0.2,0.1,0.3,0.1s0.3,0,0.5,0c0.2,0,0.4,0,0.5-0.1C87.1,78,87.3,77.9,87.4,77.8z"/> 		<path style="fill:#1A171B;" d="M92.5,79.2h-1.8v-7.6h1.8V79.2z"/> 		<path style="fill:#1A171B;" d="M95.9,79.2h-1.8v-7.6h1.8V79.2z"/> 		<path style="fill:#1A171B;" d="M100.9,78.7c-0.1,0.1-0.2,0.2-0.4,0.3s-0.3,0.2-0.4,0.2c-0.2,0.1-0.4,0.1-0.5,0.2s-0.4,0.1-0.6,0.1    c-0.5,0-1-0.2-1.3-0.5s-0.5-0.7-0.5-1.2c0-0.4,0.1-0.7,0.3-1s0.4-0.5,0.8-0.6c0.3-0.1,0.7-0.3,1.2-0.3s1-0.1,1.5-0.1v0    c0-0.3-0.1-0.5-0.4-0.6s-0.6-0.2-1.1-0.2c-0.3,0-0.6,0.1-0.9,0.2s-0.6,0.2-0.7,0.2h-0.2v-1.3c0.2,0,0.5-0.1,0.9-0.2    c0.4-0.1,0.8-0.1,1.3-0.1c1,0,1.7,0.2,2.2,0.5c0.4,0.3,0.7,0.8,0.7,1.4v3.7h-1.7V78.7z M100.9,77.8v-1.1c-0.2,0-0.5,0-0.8,0.1    c-0.3,0-0.5,0.1-0.6,0.1c-0.2,0.1-0.3,0.1-0.4,0.2C99,77.2,99,77.3,99,77.5c0,0.1,0,0.2,0,0.3c0,0.1,0.1,0.1,0.1,0.2    c0.1,0.1,0.2,0.1,0.3,0.1s0.3,0,0.5,0c0.2,0,0.4,0,0.5-0.1C100.6,78,100.8,77.9,100.9,77.8z"/> 		<path style="fill:#1A171B;" d="M109,77.5c0,0.6-0.3,1-0.8,1.4s-1.2,0.5-2.1,0.5c-0.5,0-0.9,0-1.3-0.1s-0.7-0.2-1-0.3v-1.4h0.2    c0.1,0.1,0.2,0.1,0.3,0.2c0.1,0.1,0.3,0.2,0.5,0.2c0.2,0.1,0.4,0.1,0.6,0.2s0.5,0.1,0.7,0.1c0.3,0,0.6,0,0.8-0.1s0.2-0.2,0.2-0.3    c0-0.1,0-0.2-0.1-0.3s-0.3-0.1-0.6-0.2c-0.1,0-0.3-0.1-0.5-0.1c-0.2,0-0.4-0.1-0.6-0.1c-0.5-0.1-0.9-0.3-1.1-0.6s-0.4-0.6-0.4-1    c0-0.5,0.3-1,0.8-1.3c0.5-0.4,1.2-0.5,2-0.5c0.4,0,0.8,0,1.2,0.1c0.4,0.1,0.7,0.2,0.9,0.3v1.4h-0.2c-0.3-0.2-0.6-0.3-0.9-0.4    c-0.3-0.1-0.7-0.2-1-0.2c-0.3,0-0.5,0-0.7,0.1c-0.2,0.1-0.3,0.2-0.3,0.3c0,0.1,0,0.2,0.1,0.3s0.3,0.1,0.6,0.2    c0.2,0,0.4,0.1,0.6,0.1c0.2,0,0.4,0.1,0.6,0.1c0.5,0.1,0.8,0.3,1,0.6S109,77.1,109,77.5z"/> 	</g> 	<g> 		<rect x="-152.1" y="-0.4" style="fill-rule:evenodd;clip-rule:evenodd;fill:none;" width="145.1" height="11"/> 		<path style="fill:#1A171B;" d="M-145.4,2.2h-3.3v1.4h3.1V5h-3.1v3.1h-1.9V0.8h5.2V2.2z"/> 		<path style="fill:#1A171B;" d="M-142.4,1.8h-1.9V0.5h1.9V1.8z M-142.5,8.1h-1.8V2.6h1.8V8.1z"/> 		<path style="fill:#1A171B;" d="M-136,6.3c0,0.6-0.3,1-0.8,1.4s-1.2,0.5-2.1,0.5c-0.5,0-0.9,0-1.3-0.1s-0.7-0.2-1-0.3V6.4h0.2    c0.1,0.1,0.2,0.1,0.3,0.2c0.1,0.1,0.3,0.2,0.5,0.2c0.2,0.1,0.4,0.1,0.6,0.2s0.5,0.1,0.7,0.1c0.3,0,0.6,0,0.8-0.1s0.2-0.2,0.2-0.3    c0-0.1,0-0.2-0.1-0.3s-0.3-0.1-0.6-0.2c-0.1,0-0.3-0.1-0.5-0.1c-0.2,0-0.4-0.1-0.6-0.1c-0.5-0.1-0.9-0.3-1.1-0.6s-0.4-0.6-0.4-1    c0-0.5,0.3-1,0.8-1.3c0.5-0.4,1.2-0.5,2-0.5c0.4,0,0.8,0,1.2,0.1c0.4,0.1,0.7,0.2,0.9,0.3v1.4h-0.2c-0.3-0.2-0.6-0.3-0.9-0.4    c-0.3-0.1-0.7-0.2-1-0.2c-0.3,0-0.5,0-0.7,0.1c-0.2,0.1-0.3,0.2-0.3,0.3c0,0.1,0,0.2,0.1,0.3s0.3,0.1,0.6,0.2    c0.2,0,0.4,0.1,0.6,0.1c0.2,0,0.4,0.1,0.6,0.1c0.5,0.1,0.8,0.3,1,0.6S-136,6-136,6.3z"/> 		<path style="fill:#1A171B;" d="M-131.4,8c-0.2,0-0.4,0.1-0.6,0.1c-0.2,0-0.5,0-0.8,0c-0.7,0-1.2-0.1-1.5-0.4    c-0.3-0.3-0.5-0.8-0.5-1.4V3.8h-0.7V2.6h0.7V1h1.8v1.6h1.6v1.2h-1.6v1.9c0,0.2,0,0.4,0,0.5c0,0.1,0,0.3,0.1,0.4    c0,0.1,0.1,0.2,0.2,0.3c0.1,0.1,0.3,0.1,0.5,0.1c0.1,0,0.2,0,0.4-0.1s0.3-0.1,0.3-0.1h0.1V8z"/> 		<path style="fill:#1A171B;" d="M-124.9,5.7h-4c0,0.4,0.2,0.8,0.5,1c0.3,0.2,0.7,0.3,1.3,0.3c0.4,0,0.7-0.1,1.1-0.2    s0.6-0.3,0.8-0.4h0.2v1.4c-0.4,0.2-0.8,0.3-1.1,0.3s-0.7,0.1-1.2,0.1c-1.1,0-1.9-0.2-2.5-0.7s-0.9-1.2-0.9-2.1    c0-0.9,0.3-1.6,0.8-2.2c0.6-0.5,1.3-0.8,2.3-0.8c0.9,0,1.6,0.2,2,0.7s0.7,1.1,0.7,1.9V5.7z M-126.7,4.6c0-0.4-0.1-0.6-0.3-0.8    s-0.4-0.3-0.8-0.3c-0.3,0-0.6,0.1-0.8,0.3s-0.3,0.5-0.4,0.8H-126.7z"/> 		<path style="fill:#1A171B;" d="M-119.7,4.3h-0.2c-0.1,0-0.2,0-0.4-0.1s-0.3,0-0.4,0c-0.3,0-0.5,0-0.7,0c-0.2,0-0.4,0.1-0.6,0.2    v3.7h-1.8V2.6h1.8v0.8c0.4-0.3,0.7-0.6,1-0.7c0.3-0.1,0.5-0.2,0.8-0.2c0.1,0,0.1,0,0.2,0c0.1,0,0.1,0,0.2,0V4.3z"/> 		<path style="fill:#1A171B;" d="M-114.7,4.3h-0.2c-0.1,0-0.2,0-0.4-0.1s-0.3,0-0.4,0c-0.3,0-0.5,0-0.7,0c-0.2,0-0.4,0.1-0.6,0.2    v3.7h-1.8V2.6h1.8v0.8c0.4-0.3,0.7-0.6,1-0.7c0.3-0.1,0.5-0.2,0.8-0.2c0.1,0,0.1,0,0.2,0c0.1,0,0.1,0,0.2,0V4.3z"/> 		<path style="fill:#1A171B;" d="M-110.4,7.5c-0.1,0.1-0.2,0.2-0.4,0.3s-0.3,0.2-0.4,0.2c-0.2,0.1-0.4,0.1-0.5,0.2s-0.4,0.1-0.6,0.1    c-0.5,0-1-0.2-1.3-0.5s-0.5-0.7-0.5-1.2c0-0.4,0.1-0.7,0.3-1s0.4-0.5,0.8-0.6c0.3-0.1,0.7-0.3,1.2-0.3s1-0.1,1.5-0.1v0    c0-0.3-0.1-0.5-0.4-0.6s-0.6-0.2-1.1-0.2c-0.3,0-0.6,0.1-0.9,0.2s-0.6,0.2-0.7,0.2h-0.2V2.7c0.2,0,0.5-0.1,0.9-0.2    c0.4-0.1,0.8-0.1,1.3-0.1c1,0,1.7,0.2,2.2,0.5c0.4,0.3,0.7,0.8,0.7,1.4v3.7h-1.7V7.5z M-110.4,6.7V5.5c-0.2,0-0.5,0-0.8,0.1    c-0.3,0-0.5,0.1-0.6,0.1c-0.2,0.1-0.3,0.1-0.4,0.2c-0.1,0.1-0.1,0.2-0.1,0.4c0,0.1,0,0.2,0,0.3c0,0.1,0.1,0.1,0.1,0.2    c0.1,0.1,0.2,0.1,0.3,0.1s0.3,0,0.5,0c0.2,0,0.4,0,0.5-0.1C-110.7,6.9-110.6,6.8-110.4,6.7z"/> 		<path style="fill:#1A171B;" d="M-104.9,6.2l-1.8,3.7h-1.1l1-3.7H-104.9z"/> 		<path style="fill:#1A171B;" d="M-94.2,2.2h-2.3v5.9h-1.9V2.2h-2.3V0.8h6.4V2.2z"/> 		<path style="fill:#1A171B;" d="M-87.8,5.7h-4c0,0.4,0.2,0.8,0.5,1C-91,6.9-90.6,7-90,7c0.4,0,0.7-0.1,1.1-0.2s0.6-0.3,0.8-0.4h0.2    v1.4c-0.4,0.2-0.8,0.3-1.1,0.3s-0.7,0.1-1.2,0.1c-1.1,0-1.9-0.2-2.5-0.7s-0.9-1.2-0.9-2.1c0-0.9,0.3-1.6,0.8-2.2    c0.6-0.5,1.3-0.8,2.3-0.8c0.9,0,1.6,0.2,2,0.7s0.7,1.1,0.7,1.9V5.7z M-89.6,4.6c0-0.4-0.1-0.6-0.3-0.8s-0.4-0.3-0.8-0.3    c-0.3,0-0.6,0.1-0.8,0.3s-0.3,0.5-0.4,0.8H-89.6z"/> 		<path style="fill:#1A171B;" d="M-82.6,4.3h-0.2c-0.1,0-0.2,0-0.4-0.1s-0.3,0-0.4,0c-0.3,0-0.5,0-0.7,0c-0.2,0-0.4,0.1-0.6,0.2v3.7    h-1.8V2.6h1.8v0.8c0.4-0.3,0.7-0.6,1-0.7c0.3-0.1,0.5-0.2,0.8-0.2c0.1,0,0.1,0,0.2,0c0.1,0,0.1,0,0.2,0V4.3z"/> 		<path style="fill:#1A171B;" d="M-77.6,4.3h-0.2c-0.1,0-0.2,0-0.4-0.1s-0.3,0-0.4,0c-0.3,0-0.5,0-0.7,0c-0.2,0-0.4,0.1-0.6,0.2v3.7    h-1.8V2.6h1.8v0.8c0.4-0.3,0.7-0.6,1-0.7c0.3-0.1,0.5-0.2,0.8-0.2c0.1,0,0.1,0,0.2,0c0.1,0,0.1,0,0.2,0V4.3z"/> 		<path style="fill:#1A171B;" d="M-73.3,7.5c-0.1,0.1-0.2,0.2-0.4,0.3s-0.3,0.2-0.4,0.2c-0.2,0.1-0.4,0.1-0.5,0.2s-0.4,0.1-0.6,0.1    c-0.5,0-1-0.2-1.3-0.5S-77,7-77,6.5c0-0.4,0.1-0.7,0.3-1s0.4-0.5,0.8-0.6c0.3-0.1,0.7-0.3,1.2-0.3s1-0.1,1.5-0.1v0    c0-0.3-0.1-0.5-0.4-0.6s-0.6-0.2-1.1-0.2c-0.3,0-0.6,0.1-0.9,0.2S-76.3,4-76.4,4h-0.2V2.7c0.2,0,0.5-0.1,0.9-0.2    c0.4-0.1,0.8-0.1,1.3-0.1c1,0,1.7,0.2,2.2,0.5c0.4,0.3,0.7,0.8,0.7,1.4v3.7h-1.7V7.5z M-73.3,6.7V5.5c-0.2,0-0.5,0-0.8,0.1    c-0.3,0-0.5,0.1-0.6,0.1C-74.9,5.8-75,5.8-75.1,6c-0.1,0.1-0.1,0.2-0.1,0.4c0,0.1,0,0.2,0,0.3c0,0.1,0.1,0.1,0.1,0.2    C-75,6.9-74.9,7-74.8,7s0.3,0,0.5,0c0.2,0,0.4,0,0.5-0.1C-73.6,6.9-73.5,6.8-73.3,6.7z"/> 		<path style="fill:#1A171B;" d="M-61.2,8.1H-63V7.5c-0.3,0.2-0.6,0.4-0.8,0.5s-0.6,0.2-0.9,0.2c-0.7,0-1.2-0.3-1.6-0.8    c-0.4-0.5-0.6-1.2-0.6-2.1c0-0.5,0.1-0.9,0.2-1.2s0.3-0.7,0.6-0.9c0.2-0.2,0.5-0.4,0.8-0.6s0.6-0.2,0.9-0.2c0.3,0,0.6,0,0.8,0.1    c0.2,0.1,0.4,0.2,0.6,0.3V0.5h1.8V8.1z M-63,6.6V3.9c-0.1-0.1-0.3-0.1-0.4-0.1s-0.3,0-0.4,0c-0.5,0-0.8,0.1-1,0.4    s-0.3,0.7-0.3,1.2c0,0.5,0.1,0.9,0.3,1.2c0.2,0.2,0.5,0.4,0.9,0.4c0.2,0,0.3,0,0.5-0.1C-63.3,6.8-63.1,6.7-63,6.6z"/> 		<path style="fill:#1A171B;" d="M-54.1,5.7h-4c0,0.4,0.2,0.8,0.5,1c0.3,0.2,0.7,0.3,1.3,0.3c0.4,0,0.7-0.1,1.1-0.2s0.6-0.3,0.8-0.4    h0.2v1.4c-0.4,0.2-0.8,0.3-1.1,0.3s-0.7,0.1-1.2,0.1c-1.1,0-1.9-0.2-2.5-0.7s-0.9-1.2-0.9-2.1c0-0.9,0.3-1.6,0.8-2.2    c0.6-0.5,1.3-0.8,2.3-0.8c0.9,0,1.6,0.2,2,0.7s0.7,1.1,0.7,1.9V5.7z M-55.9,4.6c0-0.4-0.1-0.6-0.3-0.8s-0.4-0.3-0.8-0.3    c-0.3,0-0.6,0.1-0.8,0.3s-0.3,0.5-0.4,0.8H-55.9z"/> 		<path style="fill:#1A171B;" d="M-43.6,5.8c0,0.7-0.3,1.3-0.9,1.7C-45.1,8-45.9,8.2-47,8.2c-0.6,0-1.1-0.1-1.6-0.2    C-49,8-49.4,7.8-49.8,7.7V5.9h0.2c0.4,0.3,0.8,0.5,1.3,0.7c0.5,0.2,0.9,0.2,1.4,0.2c0.1,0,0.3,0,0.4,0s0.3-0.1,0.5-0.1    c0.1-0.1,0.3-0.1,0.4-0.2c0.1-0.1,0.1-0.2,0.1-0.4c0-0.2-0.1-0.3-0.2-0.4c-0.1-0.1-0.3-0.2-0.6-0.3c-0.3-0.1-0.6-0.1-0.9-0.2    c-0.3-0.1-0.6-0.1-0.9-0.2c-0.6-0.2-1.1-0.5-1.3-0.8c-0.3-0.3-0.4-0.8-0.4-1.3c0-0.7,0.3-1.2,0.9-1.7c0.6-0.4,1.4-0.6,2.3-0.6    c0.5,0,1,0,1.4,0.1c0.5,0.1,0.9,0.2,1.2,0.3v1.7h-0.2c-0.3-0.2-0.7-0.4-1.1-0.6C-45.6,2.1-46,2-46.4,2c-0.2,0-0.3,0-0.5,0    c-0.2,0-0.3,0.1-0.4,0.1c-0.1,0-0.2,0.1-0.3,0.2s-0.1,0.2-0.1,0.3c0,0.2,0.1,0.3,0.2,0.4s0.4,0.2,0.8,0.3c0.3,0.1,0.5,0.1,0.8,0.2    c0.2,0.1,0.5,0.1,0.8,0.2c0.6,0.2,1,0.4,1.2,0.7C-43.7,4.9-43.6,5.3-43.6,5.8z"/> 		<path style="fill:#1A171B;" d="M-36.8,5.3c0,0.9-0.3,1.6-0.8,2.1c-0.5,0.5-1.3,0.8-2.2,0.8S-41.5,8-42,7.5    c-0.5-0.5-0.8-1.2-0.8-2.1c0-0.9,0.3-1.6,0.8-2.1c0.5-0.5,1.3-0.8,2.2-0.8c1,0,1.7,0.3,2.2,0.8C-37,3.7-36.8,4.4-36.8,5.3z     M-38.9,6.7c0.1-0.1,0.2-0.3,0.3-0.5c0.1-0.2,0.1-0.5,0.1-0.8c0-0.3,0-0.6-0.1-0.8s-0.1-0.4-0.2-0.5c-0.1-0.1-0.2-0.2-0.4-0.3    s-0.3-0.1-0.5-0.1s-0.3,0-0.5,0.1c-0.1,0-0.3,0.1-0.4,0.3c-0.1,0.1-0.2,0.3-0.3,0.5C-40.9,4.7-41,5-41,5.4c0,0.3,0,0.6,0.1,0.8    s0.1,0.4,0.2,0.5c0.1,0.1,0.2,0.2,0.4,0.3C-40.1,7-40,7-39.8,7c0.2,0,0.3,0,0.5-0.1C-39.2,6.9-39,6.8-38.9,6.7z"/> 		<path style="fill:#1A171B;" d="M-30,8.1h-1.8V5.4c0-0.2,0-0.4,0-0.7s-0.1-0.4-0.1-0.5C-32,4.1-32.1,4-32.2,4    c-0.1-0.1-0.3-0.1-0.5-0.1c-0.2,0-0.3,0-0.5,0.1c-0.2,0.1-0.3,0.1-0.5,0.2v3.9h-1.8V2.6h1.8v0.6c0.3-0.2,0.6-0.4,0.9-0.6    c0.3-0.1,0.6-0.2,1-0.2c0.6,0,1.1,0.2,1.4,0.5S-30,3.8-30,4.5V8.1z"/> 		<path style="fill:#1A171B;" d="M-23,5.7h-4c0,0.4,0.2,0.8,0.5,1c0.3,0.2,0.7,0.3,1.3,0.3c0.4,0,0.7-0.1,1.1-0.2s0.6-0.3,0.8-0.4    h0.2v1.4c-0.4,0.2-0.8,0.3-1.1,0.3s-0.7,0.1-1.2,0.1c-1.1,0-1.9-0.2-2.5-0.7s-0.9-1.2-0.9-2.1c0-0.9,0.3-1.6,0.8-2.2    c0.6-0.5,1.3-0.8,2.3-0.8c0.9,0,1.6,0.2,2,0.7S-23,4.2-23,5.1V5.7z M-24.7,4.6c0-0.4-0.1-0.6-0.3-0.8s-0.4-0.3-0.8-0.3    c-0.3,0-0.6,0.1-0.8,0.3S-27,4.3-27,4.6H-24.7z"/> 		<path style="fill:#1A171B;" d="M-19.9,1.8h-1.9V0.5h1.9V1.8z M-20,8.1h-1.8V2.6h1.8V8.1z"/> 		<path style="fill:#1A171B;" d="M-14.4,4.3h-0.2c-0.1,0-0.2,0-0.4-0.1s-0.3,0-0.4,0c-0.3,0-0.5,0-0.7,0c-0.2,0-0.4,0.1-0.6,0.2v3.7    h-1.8V2.6h1.8v0.8c0.4-0.3,0.7-0.6,1-0.7c0.3-0.1,0.5-0.2,0.8-0.2c0.1,0,0.1,0,0.2,0c0.1,0,0.1,0,0.2,0V4.3z"/> 		<path style="fill:#1A171B;" d="M-10,7.5c-0.1,0.1-0.2,0.2-0.4,0.3s-0.3,0.2-0.4,0.2c-0.2,0.1-0.4,0.1-0.5,0.2s-0.4,0.1-0.6,0.1    c-0.5,0-1-0.2-1.3-0.5s-0.5-0.7-0.5-1.2c0-0.4,0.1-0.7,0.3-1s0.4-0.5,0.8-0.6c0.3-0.1,0.7-0.3,1.2-0.3s1-0.1,1.5-0.1v0    c0-0.3-0.1-0.5-0.4-0.6s-0.6-0.2-1.1-0.2c-0.3,0-0.6,0.1-0.9,0.2S-13,4-13.1,4h-0.2V2.7c0.2,0,0.5-0.1,0.9-0.2    c0.4-0.1,0.8-0.1,1.3-0.1c1,0,1.7,0.2,2.2,0.5c0.4,0.3,0.7,0.8,0.7,1.4v3.7H-10V7.5z M-10,6.7V5.5c-0.2,0-0.5,0-0.8,0.1    c-0.3,0-0.5,0.1-0.6,0.1c-0.2,0.1-0.3,0.1-0.4,0.2C-11.9,6.1-12,6.2-12,6.4c0,0.1,0,0.2,0,0.3c0,0.1,0.1,0.1,0.1,0.2    c0.1,0.1,0.2,0.1,0.3,0.1s0.3,0,0.5,0c0.2,0,0.4,0,0.5-0.1C-10.3,6.9-10.2,6.8-10,6.7z"/> 	</g> 	<g> 		<rect x="74.5" y="7" style="fill-rule:evenodd;clip-rule:evenodd;fill:none;" width="69" height="11"/> 		<path style="fill:#1A171B;" d="M82.2,13.3c0,0.4-0.1,0.7-0.2,0.9c-0.1,0.3-0.3,0.5-0.6,0.7c-0.3,0.2-0.6,0.4-0.9,0.5    c-0.3,0.1-0.8,0.1-1.3,0.1H76V8.2h2.8c0.6,0,1,0,1.3,0.1c0.3,0,0.5,0.1,0.8,0.3c0.3,0.1,0.5,0.3,0.6,0.6c0.1,0.2,0.2,0.5,0.2,0.8    c0,0.4-0.1,0.7-0.3,0.9s-0.4,0.5-0.8,0.6v0c0.5,0.1,0.9,0.3,1.1,0.6C82.1,12.4,82.2,12.8,82.2,13.3z M79.8,10.3    c0-0.1,0-0.2-0.1-0.4c-0.1-0.1-0.2-0.2-0.3-0.3c-0.1-0.1-0.3-0.1-0.5-0.1c-0.2,0-0.5,0-0.9,0h-0.2v1.5h0.3c0.3,0,0.5,0,0.8,0    s0.4,0,0.5-0.1c0.2-0.1,0.3-0.2,0.3-0.3S79.8,10.4,79.8,10.3z M80.3,13.2c0-0.2,0-0.4-0.1-0.5c-0.1-0.1-0.2-0.2-0.5-0.3    c-0.1,0-0.3-0.1-0.6-0.1c-0.3,0-0.5,0-0.8,0h-0.4v1.8H78c0.5,0,0.9,0,1.1,0s0.4,0,0.6-0.1c0.2-0.1,0.3-0.2,0.4-0.3    S80.3,13.4,80.3,13.2z"/> 		<path style="fill:#1A171B;" d="M88.9,13.1h-4c0,0.4,0.2,0.8,0.5,1c0.3,0.2,0.7,0.3,1.3,0.3c0.4,0,0.7-0.1,1.1-0.2s0.6-0.3,0.8-0.4    h0.2v1.4c-0.4,0.2-0.8,0.3-1.1,0.3s-0.7,0.1-1.2,0.1c-1.1,0-1.9-0.2-2.5-0.7s-0.9-1.2-0.9-2.1c0-0.9,0.3-1.6,0.8-2.2    c0.6-0.5,1.3-0.8,2.3-0.8c0.9,0,1.6,0.2,2,0.7s0.7,1.1,0.7,1.9V13.1z M87.2,12c0-0.4-0.1-0.6-0.3-0.8s-0.4-0.3-0.8-0.3    c-0.3,0-0.6,0.1-0.8,0.3s-0.3,0.5-0.4,0.8H87.2z"/> 		<path style="fill:#1A171B;" d="M94.1,11.7H94c-0.1,0-0.2,0-0.4-0.1s-0.3,0-0.4,0c-0.3,0-0.5,0-0.7,0c-0.2,0-0.4,0.1-0.6,0.2v3.7    h-1.8V10h1.8v0.8c0.4-0.3,0.7-0.6,1-0.7c0.3-0.1,0.5-0.2,0.8-0.2c0.1,0,0.1,0,0.2,0c0.1,0,0.1,0,0.2,0V11.7z"/> 		<path style="fill:#1A171B;" d="M100.5,14.9c0,0.5-0.1,0.9-0.2,1.3s-0.4,0.6-0.6,0.8c-0.3,0.2-0.6,0.3-1,0.4    c-0.4,0.1-0.8,0.1-1.3,0.1c-0.4,0-0.8,0-1.1-0.1c-0.4,0-0.7-0.1-1-0.2v-1.4h0.2c0.2,0.1,0.5,0.2,0.8,0.2c0.3,0.1,0.6,0.1,0.8,0.1    c0.3,0,0.6,0,0.8-0.1s0.4-0.1,0.5-0.3c0.1-0.1,0.2-0.2,0.2-0.4c0-0.2,0.1-0.4,0.1-0.6v-0.1c-0.2,0.2-0.4,0.3-0.7,0.4    s-0.5,0.2-0.9,0.2c-0.8,0-1.4-0.2-1.8-0.7s-0.6-1.2-0.6-2.1c0-0.5,0.1-0.8,0.2-1.2s0.3-0.6,0.5-0.9c0.2-0.2,0.5-0.4,0.8-0.5    c0.3-0.1,0.6-0.2,1-0.2c0.3,0,0.6,0,0.8,0.1s0.5,0.2,0.7,0.3l0.1-0.2h1.7V14.9z M98.7,13.8v-2.5c-0.1,0-0.2-0.1-0.4-0.1    c-0.1,0-0.3,0-0.4,0c-0.5,0-0.8,0.1-1,0.4s-0.3,0.6-0.3,1.1c0,0.5,0.1,0.9,0.3,1.1s0.5,0.3,0.9,0.3c0.2,0,0.3,0,0.5-0.1    S98.5,13.9,98.7,13.8z"/> 		<path style="fill:#1A171B;" d="M105.4,14.9c-0.1,0.1-0.2,0.2-0.4,0.3s-0.3,0.2-0.4,0.2c-0.2,0.1-0.4,0.1-0.5,0.2s-0.4,0.1-0.6,0.1    c-0.5,0-1-0.2-1.3-0.5s-0.5-0.7-0.5-1.2c0-0.4,0.1-0.7,0.3-1s0.4-0.5,0.8-0.6c0.3-0.1,0.7-0.3,1.2-0.3s1-0.1,1.5-0.1v0    c0-0.3-0.1-0.5-0.4-0.6s-0.6-0.2-1.1-0.2c-0.3,0-0.6,0.1-0.9,0.2s-0.6,0.2-0.7,0.2h-0.2v-1.3c0.2,0,0.5-0.1,0.9-0.2    c0.4-0.1,0.8-0.1,1.3-0.1c1,0,1.7,0.2,2.2,0.5c0.4,0.3,0.7,0.8,0.7,1.4v3.7h-1.7V14.9z M105.4,14.1v-1.1c-0.2,0-0.5,0-0.8,0.1    c-0.3,0-0.5,0.1-0.6,0.1c-0.2,0.1-0.3,0.1-0.4,0.2c-0.1,0.1-0.1,0.2-0.1,0.4c0,0.1,0,0.2,0,0.3c0,0.1,0.1,0.1,0.1,0.2    c0.1,0.1,0.2,0.1,0.3,0.1s0.3,0,0.5,0c0.2,0,0.4,0,0.5-0.1C105.1,14.3,105.3,14.2,105.4,14.1z"/> 		<path style="fill:#1A171B;" d="M114.3,15.5h-1.8v-2.7c0-0.2,0-0.4,0-0.7s-0.1-0.4-0.1-0.5c-0.1-0.1-0.2-0.2-0.3-0.3    c-0.1-0.1-0.3-0.1-0.5-0.1c-0.2,0-0.3,0-0.5,0.1c-0.2,0.1-0.3,0.1-0.5,0.2v3.9h-1.8V10h1.8v0.6c0.3-0.2,0.6-0.4,0.9-0.6    c0.3-0.1,0.6-0.2,1-0.2c0.6,0,1.1,0.2,1.4,0.5s0.5,0.9,0.5,1.5V15.5z"/> 		<path style="fill:#1A171B;" d="M119.4,15.4c-0.2,0-0.4,0.1-0.6,0.1c-0.2,0-0.5,0-0.8,0c-0.7,0-1.2-0.1-1.5-0.4    c-0.3-0.3-0.5-0.8-0.5-1.4v-2.6h-0.7V10h0.7V8.4h1.8V10h1.6v1.2h-1.6v1.9c0,0.2,0,0.4,0,0.5c0,0.1,0,0.3,0.1,0.4    c0,0.1,0.1,0.2,0.2,0.3c0.1,0.1,0.3,0.1,0.5,0.1c0.1,0,0.2,0,0.4-0.1s0.3-0.1,0.3-0.1h0.1V15.4z"/> 		<path style="fill:#1A171B;" d="M122.3,9.2h-1.9V7.9h1.9V9.2z M122.2,15.5h-1.8V10h1.8V15.5z"/> 		<path style="fill:#1A171B;" d="M129.4,15.5h-1.8v-2.7c0-0.2,0-0.4,0-0.7s-0.1-0.4-0.1-0.5c-0.1-0.1-0.2-0.2-0.3-0.3    c-0.1-0.1-0.3-0.1-0.5-0.1c-0.2,0-0.3,0-0.5,0.1c-0.2,0.1-0.3,0.1-0.5,0.2v3.9h-1.8V10h1.8v0.6c0.3-0.2,0.6-0.4,0.9-0.6    c0.3-0.1,0.6-0.2,1-0.2c0.6,0,1.1,0.2,1.4,0.5s0.5,0.9,0.5,1.5V15.5z M128.8,7.6c0,0.6-0.2,1-0.4,1.2c-0.2,0.3-0.6,0.4-1,0.4    c-0.2,0-0.3,0-0.4-0.1c-0.1-0.1-0.3-0.1-0.4-0.2c-0.1-0.1-0.2-0.1-0.3-0.2c-0.1-0.1-0.2-0.1-0.3-0.1c-0.2,0-0.3,0.1-0.3,0.2    c-0.1,0.1-0.1,0.3-0.1,0.4h-1.1c0-0.5,0.2-0.9,0.4-1.2c0.3-0.3,0.6-0.4,1-0.4c0.2,0,0.3,0,0.4,0.1s0.3,0.1,0.4,0.2    c0.1,0.1,0.2,0.1,0.3,0.2s0.2,0.1,0.3,0.1c0.2,0,0.3-0.1,0.3-0.2s0.1-0.2,0.1-0.4H128.8z"/> 		<path style="fill:#1A171B;" d="M136.6,12.7c0,0.9-0.3,1.6-0.8,2.1c-0.5,0.5-1.3,0.8-2.2,0.8s-1.7-0.3-2.2-0.8    c-0.5-0.5-0.8-1.2-0.8-2.1c0-0.9,0.3-1.6,0.8-2.1c0.5-0.5,1.3-0.8,2.2-0.8c1,0,1.7,0.3,2.2,0.8C136.4,11.1,136.6,11.8,136.6,12.7z     M134.5,14.1c0.1-0.1,0.2-0.3,0.3-0.5c0.1-0.2,0.1-0.5,0.1-0.8c0-0.3,0-0.6-0.1-0.8s-0.1-0.4-0.2-0.5c-0.1-0.1-0.2-0.2-0.4-0.3    s-0.3-0.1-0.5-0.1s-0.3,0-0.5,0.1c-0.1,0-0.3,0.1-0.4,0.3c-0.1,0.1-0.2,0.3-0.3,0.5c-0.1,0.2-0.1,0.5-0.1,0.8c0,0.3,0,0.6,0.1,0.8    s0.1,0.4,0.2,0.5c0.1,0.1,0.2,0.2,0.4,0.3c0.1,0.1,0.3,0.1,0.5,0.1c0.2,0,0.3,0,0.5-0.1C134.2,14.3,134.4,14.2,134.5,14.1z"/> 		<path style="fill:#1A171B;" d="M142.6,13.7c0,0.6-0.3,1-0.8,1.4s-1.2,0.5-2.1,0.5c-0.5,0-0.9,0-1.3-0.1s-0.7-0.2-1-0.3v-1.4h0.2    c0.1,0.1,0.2,0.1,0.3,0.2c0.1,0.1,0.3,0.2,0.5,0.2c0.2,0.1,0.4,0.1,0.6,0.2s0.5,0.1,0.7,0.1c0.3,0,0.6,0,0.8-0.1s0.2-0.2,0.2-0.3    c0-0.1,0-0.2-0.1-0.3s-0.3-0.1-0.6-0.2c-0.1,0-0.3-0.1-0.5-0.1c-0.2,0-0.4-0.1-0.6-0.1c-0.5-0.1-0.9-0.3-1.1-0.6s-0.4-0.6-0.4-1    c0-0.5,0.3-1,0.8-1.3c0.5-0.4,1.2-0.5,2-0.5c0.4,0,0.8,0,1.2,0.1c0.4,0.1,0.7,0.2,0.9,0.3v1.4h-0.2c-0.3-0.2-0.6-0.3-0.9-0.4    c-0.3-0.1-0.7-0.2-1-0.2c-0.3,0-0.5,0-0.7,0.1c-0.2,0.1-0.3,0.2-0.3,0.3c0,0.1,0,0.2,0.1,0.3s0.3,0.1,0.6,0.2    c0.2,0,0.4,0.1,0.6,0.1c0.2,0,0.4,0.1,0.6,0.1c0.5,0.1,0.8,0.3,1,0.6S142.6,13.4,142.6,13.7z"/> 	</g> </g> <g id="text-municipis"> 	<g> 		<rect x="210" y="230.1" style="fill-rule:evenodd;clip-rule:evenodd;fill:none;" width="116.7" height="11"/> 		<path style="fill:#1A171B;" d="M215.9,236.5c0,0.3-0.1,0.6-0.2,0.8c-0.1,0.3-0.3,0.5-0.5,0.7c-0.2,0.2-0.5,0.4-0.9,0.5    c-0.3,0.1-0.7,0.2-1.2,0.2c-0.5,0-0.9,0-1.3-0.1c-0.4-0.1-0.8-0.2-1.2-0.4v-1.2h0.1c0.3,0.3,0.7,0.5,1.2,0.7    c0.5,0.2,0.9,0.2,1.3,0.2c0.6,0,1-0.1,1.3-0.3s0.5-0.5,0.5-0.9c0-0.3-0.1-0.6-0.2-0.7s-0.4-0.3-0.7-0.4c-0.2-0.1-0.5-0.1-0.8-0.2    c-0.3,0-0.6-0.1-0.9-0.2c-0.6-0.1-1.1-0.4-1.4-0.7c-0.3-0.3-0.4-0.8-0.4-1.3c0-0.6,0.2-1.1,0.7-1.5c0.5-0.4,1.1-0.6,1.9-0.6    c0.5,0,0.9,0,1.3,0.1c0.4,0.1,0.8,0.2,1.1,0.4v1.1h-0.1c-0.3-0.2-0.6-0.4-1-0.6c-0.4-0.2-0.9-0.2-1.3-0.2c-0.5,0-0.9,0.1-1.2,0.3    s-0.4,0.5-0.4,0.8c0,0.3,0.1,0.5,0.2,0.7s0.4,0.3,0.8,0.4c0.2,0,0.5,0.1,0.8,0.2c0.4,0.1,0.7,0.1,0.9,0.2c0.5,0.1,0.9,0.4,1.2,0.6    C215.8,235.6,215.9,236,215.9,236.5z"/> 		<path style="fill:#1A171B;" d="M221.3,238.6h-0.9V238c-0.1,0.1-0.2,0.1-0.3,0.2c-0.1,0.1-0.3,0.2-0.4,0.2    c-0.1,0.1-0.3,0.1-0.5,0.2c-0.2,0.1-0.4,0.1-0.7,0.1c-0.5,0-0.9-0.2-1.2-0.5c-0.3-0.3-0.5-0.7-0.5-1.2c0-0.4,0.1-0.7,0.3-1    c0.2-0.3,0.4-0.5,0.7-0.6c0.3-0.1,0.7-0.2,1.1-0.3c0.4-0.1,0.9-0.1,1.4-0.1v-0.1c0-0.2,0-0.4-0.1-0.5c-0.1-0.1-0.2-0.2-0.3-0.3    c-0.1-0.1-0.3-0.1-0.4-0.2c-0.2,0-0.4,0-0.5,0c-0.2,0-0.5,0-0.8,0.1c-0.3,0.1-0.6,0.2-0.9,0.3h0v-0.9c0.2,0,0.4-0.1,0.7-0.2    c0.3-0.1,0.6-0.1,0.9-0.1c0.4,0,0.7,0,0.9,0.1c0.3,0.1,0.5,0.2,0.7,0.3c0.2,0.1,0.3,0.3,0.4,0.6s0.2,0.5,0.2,0.9V238.6z     M220.4,237.2v-1.5c-0.3,0-0.6,0-0.9,0.1s-0.6,0.1-0.9,0.1c-0.2,0.1-0.5,0.2-0.6,0.3c-0.2,0.2-0.2,0.4-0.2,0.7    c0,0.3,0.1,0.5,0.3,0.7c0.2,0.2,0.5,0.2,0.8,0.2c0.3,0,0.6-0.1,0.8-0.2C220,237.5,220.2,237.4,220.4,237.2z"/> 		<path style="fill:#1A171B;" d="M227.3,238.6h-0.9v-3.1c0-0.3,0-0.5,0-0.7c0-0.2-0.1-0.4-0.2-0.5c-0.1-0.1-0.2-0.2-0.3-0.3    c-0.1-0.1-0.3-0.1-0.6-0.1c-0.2,0-0.5,0.1-0.7,0.2c-0.3,0.1-0.5,0.3-0.7,0.5v4.1H223v-5.5h0.9v0.6c0.3-0.2,0.6-0.4,0.8-0.6    s0.6-0.2,0.9-0.2c0.6,0,1,0.2,1.3,0.5c0.3,0.4,0.4,0.9,0.4,1.5V238.6z"/> 		<path style="fill:#1A171B;" d="M231.6,238.5c-0.2,0-0.3,0.1-0.5,0.1s-0.4,0-0.5,0c-0.5,0-0.9-0.1-1.2-0.4    c-0.3-0.3-0.4-0.8-0.4-1.4v-2.9h-0.6v-0.8h0.6v-1.6h0.9v1.6h1.8v0.8h-1.8v2.5c0,0.3,0,0.5,0,0.7c0,0.2,0.1,0.3,0.1,0.5    c0.1,0.1,0.2,0.2,0.3,0.3c0.1,0.1,0.3,0.1,0.5,0.1c0.1,0,0.3,0,0.4-0.1c0.2,0,0.3-0.1,0.3-0.1h0V238.5z"/> 		<path style="fill:#1A171B;" d="M233.6,232.2h-1v-1h1V232.2z M233.6,238.6h-0.9v-5.5h0.9V238.6z"/> 		<path style="fill:#1A171B;" d="M239.3,238.6h-0.9V238c-0.1,0.1-0.2,0.1-0.3,0.2c-0.1,0.1-0.3,0.2-0.4,0.2    c-0.1,0.1-0.3,0.1-0.5,0.2c-0.2,0.1-0.4,0.1-0.7,0.1c-0.5,0-0.9-0.2-1.2-0.5c-0.3-0.3-0.5-0.7-0.5-1.2c0-0.4,0.1-0.7,0.3-1    c0.2-0.3,0.4-0.5,0.7-0.6c0.3-0.1,0.7-0.2,1.1-0.3c0.4-0.1,0.9-0.1,1.4-0.1v-0.1c0-0.2,0-0.4-0.1-0.5c-0.1-0.1-0.2-0.2-0.3-0.3    c-0.1-0.1-0.3-0.1-0.4-0.2c-0.2,0-0.4,0-0.5,0c-0.2,0-0.5,0-0.8,0.1c-0.3,0.1-0.6,0.2-0.9,0.3h0v-0.9c0.2,0,0.4-0.1,0.7-0.2    c0.3-0.1,0.6-0.1,0.9-0.1c0.4,0,0.7,0,0.9,0.1c0.3,0.1,0.5,0.2,0.7,0.3c0.2,0.1,0.3,0.3,0.4,0.6s0.2,0.5,0.2,0.9V238.6z     M238.4,237.2v-1.5c-0.3,0-0.6,0-0.9,0.1s-0.6,0.1-0.9,0.1c-0.2,0.1-0.5,0.2-0.6,0.3c-0.2,0.2-0.2,0.4-0.2,0.7    c0,0.3,0.1,0.5,0.3,0.7c0.2,0.2,0.5,0.2,0.8,0.2c0.3,0,0.6-0.1,0.8-0.2C238,237.5,238.2,237.4,238.4,237.2z"/> 		<path style="fill:#1A171B;" d="M245.1,237.9c0,0.9-0.2,1.6-0.6,2c-0.4,0.4-1,0.6-1.8,0.6c-0.3,0-0.5,0-0.8-0.1    c-0.3,0-0.5-0.1-0.8-0.2v-0.9h0c0.1,0.1,0.4,0.1,0.7,0.2c0.3,0.1,0.6,0.1,0.9,0.1c0.3,0,0.5,0,0.7-0.1c0.2-0.1,0.3-0.2,0.5-0.3    c0.1-0.1,0.2-0.3,0.2-0.5s0.1-0.4,0.1-0.6v-0.5c-0.3,0.2-0.5,0.4-0.8,0.5c-0.2,0.1-0.5,0.2-0.9,0.2c-0.6,0-1.1-0.2-1.5-0.7    c-0.4-0.5-0.5-1.1-0.5-2c0-0.5,0.1-0.9,0.2-1.2c0.1-0.3,0.3-0.6,0.5-0.9c0.2-0.2,0.4-0.4,0.7-0.5c0.3-0.1,0.6-0.2,0.9-0.2    c0.3,0,0.5,0,0.8,0.1c0.2,0.1,0.4,0.2,0.6,0.3l0.1-0.2h0.8V237.9z M244.3,237.1v-3c-0.2-0.1-0.4-0.2-0.6-0.2    c-0.2,0-0.4-0.1-0.6-0.1c-0.5,0-0.9,0.2-1.1,0.5c-0.3,0.3-0.4,0.8-0.4,1.5c0,0.6,0.1,1.1,0.3,1.4s0.5,0.5,1,0.5    c0.3,0,0.5-0.1,0.8-0.2C243.8,237.4,244,237.2,244.3,237.1z"/> 		<path style="fill:#1A171B;" d="M251.2,235.8c0,0.9-0.2,1.6-0.6,2.1s-1,0.8-1.7,0.8c-0.7,0-1.3-0.3-1.7-0.8s-0.6-1.2-0.6-2.1    s0.2-1.6,0.6-2.1c0.4-0.5,1-0.8,1.7-0.8c0.7,0,1.3,0.3,1.7,0.8C251,234.2,251.2,235,251.2,235.8z M250.3,235.8    c0-0.7-0.1-1.2-0.4-1.6c-0.3-0.3-0.6-0.5-1.1-0.5c-0.5,0-0.8,0.2-1.1,0.5c-0.3,0.3-0.4,0.9-0.4,1.6c0,0.7,0.1,1.2,0.4,1.6    c0.3,0.4,0.6,0.5,1.1,0.5c0.5,0,0.8-0.2,1.1-0.5C250.2,237,250.3,236.5,250.3,235.8z"/> 		<path style="fill:#1A171B;" d="M260.1,238.6h-0.9V238c-0.2,0.2-0.5,0.4-0.8,0.5s-0.6,0.2-0.9,0.2c-0.6,0-1.1-0.3-1.5-0.8    c-0.4-0.5-0.5-1.2-0.5-2.1c0-0.5,0.1-0.9,0.2-1.2c0.1-0.4,0.3-0.7,0.5-0.9c0.2-0.2,0.5-0.4,0.7-0.6s0.6-0.2,0.9-0.2    c0.3,0,0.5,0,0.7,0.1c0.2,0.1,0.4,0.2,0.7,0.3V231h0.9V238.6z M259.2,237.2v-3.1c-0.2-0.1-0.4-0.2-0.6-0.2s-0.4-0.1-0.6-0.1    c-0.5,0-0.9,0.2-1.1,0.5s-0.4,0.9-0.4,1.5c0,0.6,0.1,1.1,0.3,1.5c0.2,0.3,0.5,0.5,1,0.5c0.2,0,0.5-0.1,0.7-0.2    C258.8,237.6,259,237.4,259.2,237.2z"/> 		<path style="fill:#1A171B;" d="M266.1,235.9h-3.8c0,0.3,0,0.6,0.1,0.9c0.1,0.2,0.2,0.5,0.4,0.6c0.2,0.2,0.4,0.3,0.6,0.4    s0.5,0.1,0.7,0.1c0.4,0,0.7-0.1,1.1-0.2c0.4-0.1,0.6-0.3,0.8-0.4h0v1c-0.3,0.1-0.6,0.2-0.9,0.3c-0.3,0.1-0.6,0.1-1,0.1    c-0.9,0-1.5-0.2-2-0.7c-0.5-0.5-0.7-1.2-0.7-2.1c0-0.9,0.2-1.6,0.7-2.1s1.1-0.8,1.8-0.8c0.7,0,1.2,0.2,1.6,0.6s0.6,1,0.6,1.8    V235.9z M265.3,235.2c0-0.5-0.1-0.9-0.3-1.1c-0.2-0.3-0.6-0.4-1-0.4c-0.5,0-0.8,0.1-1.1,0.4s-0.4,0.6-0.5,1.1H265.3z"/> 		<path style="fill:#1A171B;" d="M276.1,238c-0.2,0.1-0.3,0.2-0.5,0.2c-0.1,0.1-0.3,0.1-0.5,0.2c-0.2,0.1-0.4,0.1-0.6,0.2    c-0.2,0-0.5,0.1-0.7,0.1c-0.5,0-1-0.1-1.4-0.2c-0.4-0.1-0.8-0.4-1.1-0.7c-0.3-0.3-0.5-0.7-0.7-1.2c-0.2-0.5-0.3-1-0.3-1.7    c0-0.6,0.1-1.1,0.2-1.6s0.4-0.9,0.7-1.2c0.3-0.3,0.6-0.6,1.1-0.7c0.4-0.2,0.9-0.2,1.4-0.2c0.4,0,0.7,0,1.1,0.1    c0.4,0.1,0.8,0.3,1.2,0.5v1.1H276c-0.4-0.3-0.8-0.6-1.1-0.7s-0.8-0.2-1.2-0.2c-0.3,0-0.7,0.1-0.9,0.2c-0.3,0.1-0.5,0.3-0.7,0.6    c-0.2,0.2-0.4,0.6-0.5,0.9c-0.1,0.4-0.2,0.8-0.2,1.3c0,0.5,0.1,1,0.2,1.3c0.1,0.4,0.3,0.7,0.5,0.9c0.2,0.2,0.5,0.4,0.8,0.5    c0.3,0.1,0.6,0.2,0.9,0.2c0.4,0,0.9-0.1,1.2-0.2s0.7-0.4,1.1-0.7h0.1V238z"/> 		<path style="fill:#1A171B;" d="M281.7,235.8c0,0.9-0.2,1.6-0.6,2.1s-1,0.8-1.7,0.8c-0.7,0-1.3-0.3-1.7-0.8s-0.6-1.2-0.6-2.1    s0.2-1.6,0.6-2.1c0.4-0.5,1-0.8,1.7-0.8c0.7,0,1.3,0.3,1.7,0.8C281.5,234.2,281.7,235,281.7,235.8z M280.8,235.8    c0-0.7-0.1-1.2-0.4-1.6c-0.3-0.3-0.6-0.5-1.1-0.5c-0.5,0-0.8,0.2-1.1,0.5c-0.3,0.3-0.4,0.9-0.4,1.6c0,0.7,0.1,1.2,0.4,1.6    c0.3,0.4,0.6,0.5,1.1,0.5c0.5,0,0.8-0.2,1.1-0.5C280.7,237,280.8,236.5,280.8,235.8z"/> 		<path style="fill:#1A171B;" d="M290.6,238.6h-0.9v-3.1c0-0.2,0-0.5,0-0.7c0-0.2-0.1-0.4-0.1-0.5c-0.1-0.1-0.2-0.2-0.3-0.3    c-0.1-0.1-0.3-0.1-0.6-0.1c-0.2,0-0.5,0.1-0.7,0.2c-0.2,0.1-0.5,0.3-0.7,0.5c0,0.1,0,0.2,0,0.3c0,0.1,0,0.2,0,0.3v3.5h-0.9v-3.1    c0-0.2,0-0.5,0-0.7c0-0.2-0.1-0.4-0.1-0.5c-0.1-0.1-0.2-0.2-0.3-0.3c-0.1-0.1-0.3-0.1-0.6-0.1c-0.2,0-0.5,0.1-0.7,0.2    c-0.2,0.1-0.5,0.3-0.7,0.5v4.1h-0.9v-5.5h0.9v0.6c0.3-0.2,0.5-0.4,0.8-0.6c0.3-0.1,0.6-0.2,0.9-0.2c0.4,0,0.6,0.1,0.9,0.2    c0.2,0.2,0.4,0.4,0.5,0.6c0.4-0.3,0.7-0.5,1-0.7c0.3-0.1,0.6-0.2,0.9-0.2c0.6,0,1,0.2,1.3,0.5c0.3,0.4,0.4,0.9,0.4,1.5V238.6z"/> 		<path style="fill:#1A171B;" d="M296.8,235.8c0,0.4-0.1,0.8-0.2,1.2c-0.1,0.4-0.3,0.7-0.5,0.9c-0.2,0.2-0.4,0.4-0.7,0.6    c-0.3,0.1-0.6,0.2-0.9,0.2c-0.3,0-0.5,0-0.7-0.1c-0.2-0.1-0.4-0.2-0.7-0.3v2.3h-0.9v-7.5h0.9v0.6c0.2-0.2,0.5-0.4,0.8-0.5    c0.3-0.1,0.6-0.2,0.9-0.2c0.6,0,1.1,0.2,1.5,0.7C296.6,234.2,296.8,234.9,296.8,235.8z M295.9,235.8c0-0.7-0.1-1.1-0.3-1.5    c-0.2-0.3-0.5-0.5-1-0.5c-0.2,0-0.5,0.1-0.8,0.2c-0.3,0.1-0.5,0.3-0.7,0.4v3.1c0.2,0.1,0.5,0.2,0.6,0.2s0.4,0.1,0.6,0.1    c0.5,0,0.9-0.2,1.1-0.5C295.8,237,295.9,236.5,295.9,235.8z"/> 		<path style="fill:#1A171B;" d="M302.5,235.8c0,0.9-0.2,1.6-0.6,2.1s-1,0.8-1.7,0.8c-0.7,0-1.3-0.3-1.7-0.8s-0.6-1.2-0.6-2.1    s0.2-1.6,0.6-2.1c0.4-0.5,1-0.8,1.7-0.8c0.7,0,1.3,0.3,1.7,0.8C302.3,234.2,302.5,235,302.5,235.8z M301.6,235.8    c0-0.7-0.1-1.2-0.4-1.6c-0.3-0.3-0.6-0.5-1.1-0.5c-0.5,0-0.8,0.2-1.1,0.5c-0.3,0.3-0.4,0.9-0.4,1.6c0,0.7,0.1,1.2,0.4,1.6    c0.3,0.4,0.6,0.5,1.1,0.5c0.5,0,0.8-0.2,1.1-0.5C301.5,237,301.6,236.5,301.6,235.8z"/> 		<path style="fill:#1A171B;" d="M307.6,237c0,0.5-0.2,0.9-0.6,1.2c-0.4,0.3-0.9,0.5-1.6,0.5c-0.4,0-0.7,0-1-0.1    c-0.3-0.1-0.6-0.2-0.8-0.3v-1h0c0.3,0.2,0.6,0.4,0.9,0.5c0.3,0.1,0.7,0.2,1,0.2c0.4,0,0.7-0.1,0.9-0.2c0.2-0.1,0.3-0.3,0.3-0.6    c0-0.2-0.1-0.4-0.2-0.5s-0.3-0.2-0.7-0.3c-0.1,0-0.3-0.1-0.5-0.1c-0.2,0-0.4-0.1-0.5-0.1c-0.5-0.1-0.8-0.3-1-0.6    c-0.2-0.2-0.3-0.5-0.3-0.9c0-0.2,0-0.4,0.1-0.6s0.2-0.4,0.4-0.5c0.2-0.2,0.4-0.3,0.7-0.4c0.3-0.1,0.6-0.1,0.9-0.1    c0.3,0,0.6,0,0.9,0.1c0.3,0.1,0.6,0.2,0.8,0.3v1h0c-0.2-0.2-0.5-0.3-0.8-0.4c-0.3-0.1-0.6-0.2-0.9-0.2c-0.3,0-0.6,0.1-0.8,0.2    c-0.2,0.1-0.3,0.3-0.3,0.6c0,0.2,0.1,0.4,0.2,0.5c0.1,0.1,0.3,0.2,0.6,0.3c0.2,0,0.3,0.1,0.5,0.1s0.4,0.1,0.5,0.1    c0.4,0.1,0.7,0.3,0.9,0.5C307.5,236.3,307.6,236.6,307.6,237z"/> 		<path style="fill:#1A171B;" d="M311.5,238.5c-0.2,0-0.3,0.1-0.5,0.1s-0.4,0-0.5,0c-0.5,0-0.9-0.1-1.2-0.4    c-0.3-0.3-0.4-0.8-0.4-1.4v-2.9h-0.6v-0.8h0.6v-1.6h0.9v1.6h1.8v0.8h-1.8v2.5c0,0.3,0,0.5,0,0.7c0,0.2,0.1,0.3,0.1,0.5    c0.1,0.1,0.2,0.2,0.3,0.3c0.1,0.1,0.3,0.1,0.5,0.1c0.1,0,0.3,0,0.4-0.1c0.2,0,0.3-0.1,0.3-0.1h0V238.5z"/> 		<path style="fill:#1A171B;" d="M316.8,235.9H313c0,0.3,0,0.6,0.1,0.9c0.1,0.2,0.2,0.5,0.4,0.6c0.2,0.2,0.4,0.3,0.6,0.4    s0.5,0.1,0.7,0.1c0.4,0,0.7-0.1,1.1-0.2c0.4-0.1,0.6-0.3,0.8-0.4h0v1c-0.3,0.1-0.6,0.2-0.9,0.3c-0.3,0.1-0.6,0.1-1,0.1    c-0.9,0-1.5-0.2-2-0.7c-0.5-0.5-0.7-1.2-0.7-2.1c0-0.9,0.2-1.6,0.7-2.1s1.1-0.8,1.8-0.8c0.7,0,1.2,0.2,1.6,0.6s0.6,1,0.6,1.8    V235.9z M316,235.2c0-0.5-0.1-0.9-0.3-1.1c-0.2-0.3-0.6-0.4-1-0.4c-0.5,0-0.8,0.1-1.1,0.4s-0.4,0.6-0.5,1.1H316z"/> 		<path style="fill:#1A171B;" d="M319,238.6h-0.9V231h0.9V238.6z"/> 		<path style="fill:#1A171B;" d="M324.8,238.6h-0.9V238c-0.1,0.1-0.2,0.1-0.3,0.2c-0.1,0.1-0.3,0.2-0.4,0.2    c-0.1,0.1-0.3,0.1-0.5,0.2c-0.2,0.1-0.4,0.1-0.7,0.1c-0.5,0-0.9-0.2-1.2-0.5c-0.3-0.3-0.5-0.7-0.5-1.2c0-0.4,0.1-0.7,0.3-1    c0.2-0.3,0.4-0.5,0.7-0.6c0.3-0.1,0.7-0.2,1.1-0.3c0.4-0.1,0.9-0.1,1.4-0.1v-0.1c0-0.2,0-0.4-0.1-0.5c-0.1-0.1-0.2-0.2-0.3-0.3    c-0.1-0.1-0.3-0.1-0.4-0.2c-0.2,0-0.4,0-0.5,0c-0.2,0-0.5,0-0.8,0.1c-0.3,0.1-0.6,0.2-0.9,0.3h0v-0.9c0.2,0,0.4-0.1,0.7-0.2    c0.3-0.1,0.6-0.1,0.9-0.1c0.4,0,0.7,0,0.9,0.1c0.3,0.1,0.5,0.2,0.7,0.3c0.2,0.1,0.3,0.3,0.4,0.6s0.2,0.5,0.2,0.9V238.6z     M323.9,237.2v-1.5c-0.3,0-0.6,0-0.9,0.1s-0.6,0.1-0.9,0.1c-0.2,0.1-0.5,0.2-0.6,0.3c-0.2,0.2-0.2,0.4-0.2,0.7    c0,0.3,0.1,0.5,0.3,0.7c0.2,0.2,0.5,0.2,0.8,0.2c0.3,0,0.6-0.1,0.8-0.2C323.4,237.5,323.7,237.4,323.9,237.2z"/> 	</g> 	<g> 		<rect x="150" y="223.8" style="fill-rule:evenodd;clip-rule:evenodd;fill:none;" width="27.2" height="11"/> 		<path style="fill:#1A171B;" d="M156.3,232.3h-1l-0.7-2h-3l-0.7,2h-0.9l2.5-7.3h1.2L156.3,232.3z M154.4,229.4l-1.2-3.6l-1.2,3.6    H154.4z"/> 		<path style="fill:#1A171B;" d="M164.8,232.3h-0.9v-3.1c0-0.2,0-0.5,0-0.7c0-0.2-0.1-0.4-0.1-0.5c-0.1-0.1-0.2-0.2-0.3-0.3    c-0.1-0.1-0.3-0.1-0.6-0.1c-0.2,0-0.5,0.1-0.7,0.2c-0.2,0.1-0.5,0.3-0.7,0.5c0,0.1,0,0.2,0,0.3c0,0.1,0,0.2,0,0.3v3.5h-0.9v-3.1    c0-0.2,0-0.5,0-0.7c0-0.2-0.1-0.4-0.1-0.5c-0.1-0.1-0.2-0.2-0.3-0.3c-0.1-0.1-0.3-0.1-0.6-0.1c-0.2,0-0.5,0.1-0.7,0.2    c-0.2,0.1-0.5,0.3-0.7,0.5v4.1h-0.9v-5.5h0.9v0.6c0.3-0.2,0.5-0.4,0.8-0.6c0.3-0.1,0.6-0.2,0.9-0.2c0.4,0,0.6,0.1,0.9,0.2    c0.2,0.2,0.4,0.4,0.5,0.6c0.4-0.3,0.7-0.5,1-0.7c0.3-0.1,0.6-0.2,0.9-0.2c0.6,0,1,0.2,1.3,0.5c0.3,0.4,0.4,0.9,0.4,1.5V232.3z"/> 		<path style="fill:#1A171B;" d="M170.8,229.7H167c0,0.3,0,0.6,0.1,0.9c0.1,0.2,0.2,0.5,0.4,0.6c0.2,0.2,0.4,0.3,0.6,0.4    s0.5,0.1,0.7,0.1c0.4,0,0.7-0.1,1.1-0.2c0.4-0.1,0.6-0.3,0.8-0.4h0v1c-0.3,0.1-0.6,0.2-0.9,0.3c-0.3,0.1-0.6,0.1-1,0.1    c-0.9,0-1.5-0.2-2-0.7c-0.5-0.5-0.7-1.2-0.7-2.1c0-0.9,0.2-1.6,0.7-2.1s1.1-0.8,1.8-0.8c0.7,0,1.2,0.2,1.6,0.6s0.6,1,0.6,1.8    V229.7z M169.9,229c0-0.5-0.1-0.9-0.3-1.1c-0.2-0.3-0.6-0.4-1-0.4c-0.5,0-0.8,0.1-1.1,0.4s-0.4,0.6-0.5,1.1H169.9z"/> 		<path style="fill:#1A171B;" d="M175.8,230.7c0,0.5-0.2,0.9-0.6,1.2c-0.4,0.3-0.9,0.5-1.6,0.5c-0.4,0-0.7,0-1-0.1    c-0.3-0.1-0.6-0.2-0.8-0.3v-1h0c0.3,0.2,0.6,0.4,0.9,0.5c0.3,0.1,0.7,0.2,1,0.2c0.4,0,0.7-0.1,0.9-0.2c0.2-0.1,0.3-0.3,0.3-0.6    c0-0.2-0.1-0.4-0.2-0.5s-0.3-0.2-0.7-0.3c-0.1,0-0.3-0.1-0.5-0.1c-0.2,0-0.4-0.1-0.5-0.1c-0.5-0.1-0.8-0.3-1-0.6    c-0.2-0.2-0.3-0.5-0.3-0.9c0-0.2,0-0.4,0.1-0.6s0.2-0.4,0.4-0.5c0.2-0.2,0.4-0.3,0.7-0.4c0.3-0.1,0.6-0.1,0.9-0.1    c0.3,0,0.6,0,0.9,0.1c0.3,0.1,0.6,0.2,0.8,0.3v1h0c-0.2-0.2-0.5-0.3-0.8-0.4c-0.3-0.1-0.6-0.2-0.9-0.2c-0.3,0-0.6,0.1-0.8,0.2    c-0.2,0.1-0.3,0.3-0.3,0.6c0,0.2,0.1,0.4,0.2,0.5c0.1,0.1,0.3,0.2,0.6,0.3c0.2,0,0.3,0.1,0.5,0.1s0.4,0.1,0.5,0.1    c0.4,0.1,0.7,0.3,0.9,0.5C175.7,230,175.8,230.3,175.8,230.7z"/> 	</g> 	<g> 		<rect x="104.4" y="278" style="fill-rule:evenodd;clip-rule:evenodd;fill:none;" width="25.9" height="11"/> 		<path style="fill:#1A171B;" d="M110.5,284.2c0,0.4-0.1,0.7-0.2,1c-0.1,0.3-0.3,0.5-0.5,0.7c-0.3,0.2-0.5,0.4-0.9,0.5    c-0.3,0.1-0.7,0.1-1.2,0.1h-2.4v-7.3h2c0.5,0,0.9,0,1.1,0.1s0.5,0.1,0.7,0.2c0.3,0.1,0.4,0.3,0.5,0.5c0.1,0.2,0.2,0.5,0.2,0.8    c0,0.3-0.1,0.6-0.2,0.9c-0.2,0.2-0.4,0.4-0.7,0.6v0c0.5,0.1,0.8,0.3,1.1,0.6C110.4,283.3,110.5,283.7,110.5,284.2z M109,281    c0-0.2,0-0.3-0.1-0.4c-0.1-0.1-0.1-0.2-0.3-0.3c-0.1-0.1-0.3-0.1-0.5-0.2c-0.2,0-0.5,0-0.8,0h-1.1v2.1h1.2c0.3,0,0.5,0,0.7,0    c0.2,0,0.3-0.1,0.5-0.2s0.2-0.2,0.3-0.4C108.9,281.4,109,281.2,109,281z M109.6,284.3c0-0.3,0-0.5-0.1-0.7s-0.2-0.3-0.5-0.4    c-0.1-0.1-0.3-0.1-0.5-0.2c-0.2,0-0.5,0-0.8,0h-1.4v2.7h1.2c0.4,0,0.7,0,1-0.1c0.3,0,0.5-0.1,0.6-0.2c0.2-0.1,0.3-0.3,0.4-0.4    S109.6,284.5,109.6,284.3z"/> 		<path style="fill:#1A171B;" d="M114.9,282L114.9,282c-0.2,0-0.3-0.1-0.4-0.1c-0.1,0-0.3,0-0.4,0c-0.3,0-0.5,0.1-0.8,0.2    c-0.3,0.1-0.5,0.3-0.7,0.5v3.9h-0.9V281h0.9v0.8c0.3-0.3,0.6-0.5,0.9-0.6c0.3-0.1,0.5-0.2,0.8-0.2c0.2,0,0.3,0,0.3,0    c0.1,0,0.2,0,0.3,0V282z"/> 		<path style="fill:#1A171B;" d="M116.7,280.1h-1v-1h1V280.1z M116.6,286.5h-0.9V281h0.9V286.5z"/> 		<path style="fill:#1A171B;" d="M122.7,283.8c0,0.9-0.2,1.6-0.6,2.1s-1,0.8-1.7,0.8c-0.7,0-1.3-0.3-1.7-0.8s-0.6-1.2-0.6-2.1    s0.2-1.6,0.6-2.1c0.4-0.5,1-0.8,1.7-0.8c0.7,0,1.3,0.3,1.7,0.8C122.5,282.2,122.7,282.9,122.7,283.8z M121.9,283.8    c0-0.7-0.1-1.2-0.4-1.6c-0.3-0.3-0.6-0.5-1.1-0.5c-0.5,0-0.8,0.2-1.1,0.5c-0.3,0.3-0.4,0.9-0.4,1.6c0,0.7,0.1,1.2,0.4,1.6    c0.3,0.4,0.6,0.5,1.1,0.5c0.5,0,0.8-0.2,1.1-0.5C121.7,285,121.9,284.4,121.9,283.8z M121.8,278.3l-1.3,1.8h-0.7l0.8-1.8H121.8z"/> 		<path style="fill:#1A171B;" d="M128.4,286.5h-0.9v-3.1c0-0.3,0-0.5,0-0.7c0-0.2-0.1-0.4-0.2-0.5c-0.1-0.1-0.2-0.2-0.3-0.3    c-0.1-0.1-0.3-0.1-0.6-0.1c-0.2,0-0.5,0.1-0.7,0.2c-0.3,0.1-0.5,0.3-0.7,0.5v4.1h-0.9V281h0.9v0.6c0.3-0.2,0.6-0.4,0.8-0.6    s0.6-0.2,0.9-0.2c0.6,0,1,0.2,1.3,0.5c0.3,0.4,0.4,0.9,0.4,1.5V286.5z"/> 	</g> 	<g> 		<rect x="226.9" y="341.5" style="fill-rule:evenodd;clip-rule:evenodd;fill:none;" width="17.4" height="11"/> 		<path style="fill:#1A171B;" d="M232.7,343.6h-2.5v6.4h-0.9v-6.4h-2.5v-0.9h5.8V343.6z"/> 		<path style="fill:#1A171B;" d="M237.1,347.4h-3.8c0,0.3,0,0.6,0.1,0.9c0.1,0.2,0.2,0.5,0.4,0.6c0.2,0.2,0.4,0.3,0.6,0.4    s0.5,0.1,0.7,0.1c0.4,0,0.7-0.1,1.1-0.2c0.4-0.1,0.6-0.3,0.8-0.4h0v1c-0.3,0.1-0.6,0.2-0.9,0.3c-0.3,0.1-0.6,0.1-1,0.1    c-0.9,0-1.5-0.2-2-0.7c-0.5-0.5-0.7-1.2-0.7-2.1c0-0.9,0.2-1.6,0.7-2.1s1.1-0.8,1.8-0.8c0.7,0,1.2,0.2,1.6,0.6s0.6,1,0.6,1.8    V347.4z M236.2,346.7c0-0.5-0.1-0.9-0.3-1.1c-0.2-0.3-0.6-0.4-1-0.4c-0.5,0-0.8,0.1-1.1,0.4s-0.4,0.6-0.5,1.1H236.2z"/> 		<path style="fill:#1A171B;" d="M242.8,347.3c0,0.9-0.2,1.6-0.6,2.1s-1,0.8-1.7,0.8c-0.7,0-1.3-0.3-1.7-0.8s-0.6-1.2-0.6-2.1    s0.2-1.6,0.6-2.1c0.4-0.5,1-0.8,1.7-0.8c0.7,0,1.3,0.3,1.7,0.8C242.6,345.7,242.8,346.4,242.8,347.3z M241.9,347.3    c0-0.7-0.1-1.2-0.4-1.6c-0.3-0.3-0.6-0.5-1.1-0.5c-0.5,0-0.8,0.2-1.1,0.5c-0.3,0.3-0.4,0.9-0.4,1.6c0,0.7,0.1,1.2,0.4,1.6    c0.3,0.4,0.6,0.5,1.1,0.5c0.5,0,0.8-0.2,1.1-0.5C241.8,348.5,241.9,348,241.9,347.3z"/> 	</g> 	<g> 		<rect x="132.3" y="106.7" style="fill-rule:evenodd;clip-rule:evenodd;fill:none;" width="63.8" height="11"/> 		<path style="fill:#1A171B;" d="M138.6,107.9l-2.5,7.3h-1.2l-2.5-7.3h1l2.2,6.4l2.2-6.4H138.6z"/> 		<path style="fill:#1A171B;" d="M143.2,115.2h-0.9v-0.6c-0.1,0.1-0.2,0.1-0.3,0.2s-0.3,0.2-0.4,0.2c-0.1,0.1-0.3,0.1-0.5,0.2    s-0.4,0.1-0.7,0.1c-0.5,0-0.9-0.2-1.2-0.5c-0.3-0.3-0.5-0.7-0.5-1.2c0-0.4,0.1-0.7,0.3-1s0.4-0.5,0.7-0.6c0.3-0.1,0.7-0.2,1.1-0.3    c0.4-0.1,0.9-0.1,1.4-0.1v-0.1c0-0.2,0-0.4-0.1-0.5c-0.1-0.1-0.2-0.2-0.3-0.3c-0.1-0.1-0.3-0.1-0.4-0.2c-0.2,0-0.4,0-0.5,0    c-0.2,0-0.5,0-0.8,0.1c-0.3,0.1-0.6,0.2-0.9,0.3h0v-0.9c0.2,0,0.4-0.1,0.7-0.2c0.3-0.1,0.6-0.1,0.9-0.1c0.4,0,0.7,0,0.9,0.1    s0.5,0.2,0.7,0.3c0.2,0.1,0.3,0.3,0.4,0.6s0.2,0.5,0.2,0.9V115.2z M142.4,113.9v-1.5c-0.3,0-0.6,0-0.9,0.1s-0.6,0.1-0.9,0.1    c-0.2,0.1-0.5,0.2-0.6,0.3c-0.2,0.2-0.2,0.4-0.2,0.7c0,0.3,0.1,0.5,0.3,0.7s0.5,0.2,0.8,0.2c0.3,0,0.6-0.1,0.8-0.2    C141.9,114.2,142.1,114,142.4,113.9z"/> 		<path style="fill:#1A171B;" d="M145.8,115.2h-0.9v-7.6h0.9V115.2z"/> 		<path style="fill:#1A171B;" d="M155,115.2h-0.9v-0.6c-0.2,0.2-0.5,0.4-0.8,0.5s-0.6,0.2-0.9,0.2c-0.6,0-1.1-0.3-1.5-0.8    c-0.4-0.5-0.5-1.2-0.5-2.1c0-0.5,0.1-0.9,0.2-1.2c0.1-0.4,0.3-0.7,0.5-0.9c0.2-0.2,0.5-0.4,0.7-0.6s0.6-0.2,0.9-0.2    c0.3,0,0.5,0,0.7,0.1s0.4,0.2,0.7,0.3v-2.4h0.9V115.2z M154.1,113.9v-3.1c-0.2-0.1-0.4-0.2-0.6-0.2s-0.4-0.1-0.6-0.1    c-0.5,0-0.9,0.2-1.1,0.5s-0.4,0.9-0.4,1.5c0,0.6,0.1,1.1,0.3,1.5s0.5,0.5,1,0.5c0.2,0,0.5-0.1,0.7-0.2    C153.7,114.2,153.9,114,154.1,113.9z"/> 		<path style="fill:#1A171B;" d="M161.1,112.5c0,0.9-0.2,1.6-0.6,2.1s-1,0.8-1.7,0.8c-0.7,0-1.3-0.3-1.7-0.8s-0.6-1.2-0.6-2.1    s0.2-1.6,0.6-2.1s1-0.8,1.7-0.8c0.7,0,1.3,0.3,1.7,0.8S161.1,111.6,161.1,112.5z M160.2,112.5c0-0.7-0.1-1.2-0.4-1.6    s-0.6-0.5-1.1-0.5c-0.5,0-0.8,0.2-1.1,0.5s-0.4,0.9-0.4,1.6c0,0.7,0.1,1.2,0.4,1.6s0.6,0.5,1.1,0.5c0.5,0,0.8-0.2,1.1-0.5    C160.1,113.7,160.2,113.2,160.2,112.5z"/> 		<path style="fill:#1A171B;" d="M171.6,111.6c0,0.7-0.1,1.3-0.4,1.8s-0.6,1-1.1,1.3c-0.3,0.2-0.7,0.4-1,0.4    c-0.4,0.1-0.9,0.1-1.5,0.1h-1.7v-7.3h1.7c0.7,0,1.2,0.1,1.6,0.2s0.7,0.2,1,0.4c0.5,0.3,0.8,0.7,1.1,1.2    C171.5,110.3,171.6,110.9,171.6,111.6z M170.7,111.6c0-0.6-0.1-1-0.3-1.4s-0.5-0.7-0.8-0.9c-0.3-0.2-0.6-0.3-0.9-0.3    s-0.7-0.1-1.1-0.1h-0.9v5.6h0.9c0.4,0,0.8,0,1.2-0.1c0.3-0.1,0.6-0.2,0.9-0.4c0.3-0.2,0.6-0.5,0.8-0.9S170.7,112.1,170.7,111.6z"/> 		<path style="fill:#1A171B;" d="M177.3,115.2h-0.9v-0.6c-0.3,0.2-0.6,0.4-0.8,0.6s-0.6,0.2-0.9,0.2c-0.5,0-1-0.2-1.3-0.5    c-0.3-0.4-0.5-0.9-0.5-1.5v-3.5h0.9v3.1c0,0.3,0,0.5,0,0.7c0,0.2,0.1,0.4,0.2,0.5c0.1,0.1,0.2,0.2,0.3,0.3    c0.1,0.1,0.3,0.1,0.6,0.1c0.2,0,0.5-0.1,0.7-0.2c0.3-0.1,0.5-0.3,0.7-0.5v-4.1h0.9V115.2z"/> 		<path style="fill:#1A171B;" d="M183.6,112.4c0,0.5-0.1,0.9-0.2,1.2c-0.1,0.4-0.3,0.7-0.5,0.9c-0.2,0.3-0.5,0.5-0.7,0.6    s-0.5,0.2-0.9,0.2c-0.3,0-0.5,0-0.8-0.1s-0.4-0.2-0.6-0.3l-0.1,0.3H179v-7.6h0.9v2.7c0.2-0.2,0.5-0.4,0.8-0.5    c0.3-0.1,0.6-0.2,0.9-0.2c0.6,0,1.1,0.2,1.4,0.7C183.4,110.8,183.6,111.5,183.6,112.4z M182.7,112.5c0-0.7-0.1-1.1-0.3-1.5    s-0.5-0.5-1-0.5c-0.3,0-0.5,0.1-0.8,0.2c-0.3,0.1-0.5,0.3-0.7,0.4v3.1c0.2,0.1,0.5,0.2,0.6,0.2s0.4,0.1,0.6,0.1    c0.5,0,0.9-0.2,1.1-0.5S182.7,113.2,182.7,112.5z"/> 		<path style="fill:#1A171B;" d="M188.1,110.8L188.1,110.8c-0.2,0-0.3-0.1-0.4-0.1c-0.1,0-0.3,0-0.4,0c-0.3,0-0.5,0.1-0.8,0.2    c-0.3,0.1-0.5,0.3-0.7,0.5v3.9h-0.9v-5.5h0.9v0.8c0.3-0.3,0.6-0.5,0.9-0.6c0.3-0.1,0.5-0.2,0.8-0.2c0.2,0,0.3,0,0.3,0    c0.1,0,0.2,0,0.3,0V110.8z"/> 		<path style="fill:#1A171B;" d="M192.8,115.2h-0.9v-0.6c-0.1,0.1-0.2,0.1-0.3,0.2s-0.3,0.2-0.4,0.2c-0.1,0.1-0.3,0.1-0.5,0.2    s-0.4,0.1-0.7,0.1c-0.5,0-0.9-0.2-1.2-0.5c-0.3-0.3-0.5-0.7-0.5-1.2c0-0.4,0.1-0.7,0.3-1s0.4-0.5,0.7-0.6c0.3-0.1,0.7-0.2,1.1-0.3    c0.4-0.1,0.9-0.1,1.4-0.1v-0.1c0-0.2,0-0.4-0.1-0.5c-0.1-0.1-0.2-0.2-0.3-0.3c-0.1-0.1-0.3-0.1-0.4-0.2c-0.2,0-0.4,0-0.5,0    c-0.2,0-0.5,0-0.8,0.1c-0.3,0.1-0.6,0.2-0.9,0.3h0v-0.9c0.2,0,0.4-0.1,0.7-0.2c0.3-0.1,0.6-0.1,0.9-0.1c0.4,0,0.7,0,0.9,0.1    s0.5,0.2,0.7,0.3c0.2,0.1,0.3,0.3,0.4,0.6s0.2,0.5,0.2,0.9V115.2z M191.9,113.9v-1.5c-0.3,0-0.6,0-0.9,0.1s-0.6,0.1-0.9,0.1    c-0.2,0.1-0.5,0.2-0.6,0.3c-0.2,0.2-0.2,0.4-0.2,0.7c0,0.3,0.1,0.5,0.3,0.7s0.5,0.2,0.8,0.2c0.3,0,0.6-0.1,0.8-0.2    C191.5,114.2,191.7,114,191.9,113.9z"/> 	</g> 	<g> 		<rect x="309.1" y="323.5" style="fill-rule:evenodd;clip-rule:evenodd;fill:none;" width="50.7" height="11"/> 		<path style="fill:#1A171B;" d="M315.2,329.8c0,0.4-0.1,0.7-0.2,1c-0.1,0.3-0.3,0.5-0.5,0.7c-0.3,0.2-0.5,0.4-0.9,0.5    c-0.3,0.1-0.7,0.1-1.2,0.1h-2.4v-7.3h2c0.5,0,0.9,0,1.1,0.1s0.5,0.1,0.7,0.2c0.3,0.1,0.4,0.3,0.5,0.5c0.1,0.2,0.2,0.5,0.2,0.8    c0,0.3-0.1,0.6-0.2,0.9c-0.2,0.2-0.4,0.4-0.7,0.6v0c0.5,0.1,0.8,0.3,1.1,0.6C315.1,328.9,315.2,329.3,315.2,329.8z M313.7,326.5    c0-0.2,0-0.3-0.1-0.4c-0.1-0.1-0.1-0.2-0.3-0.3c-0.1-0.1-0.3-0.1-0.5-0.2c-0.2,0-0.5,0-0.8,0H311v2.1h1.2c0.3,0,0.5,0,0.7,0    c0.2,0,0.3-0.1,0.5-0.2s0.2-0.2,0.3-0.4C313.7,326.9,313.7,326.7,313.7,326.5z M314.3,329.8c0-0.3,0-0.5-0.1-0.7s-0.2-0.3-0.5-0.4    c-0.1-0.1-0.3-0.1-0.5-0.2c-0.2,0-0.5,0-0.8,0H311v2.7h1.2c0.4,0,0.7,0,1-0.1c0.3,0,0.5-0.1,0.6-0.2c0.2-0.1,0.3-0.3,0.4-0.4    S314.3,330.1,314.3,329.8z"/> 		<path style="fill:#1A171B;" d="M320.9,329.3c0,0.9-0.2,1.6-0.6,2.1s-1,0.8-1.7,0.8c-0.7,0-1.3-0.3-1.7-0.8s-0.6-1.2-0.6-2.1    s0.2-1.6,0.6-2.1c0.4-0.5,1-0.8,1.7-0.8c0.7,0,1.3,0.3,1.7,0.8C320.6,327.7,320.9,328.4,320.9,329.3z M320,329.3    c0-0.7-0.1-1.2-0.4-1.6c-0.3-0.3-0.6-0.5-1.1-0.5c-0.5,0-0.8,0.2-1.1,0.5c-0.3,0.3-0.4,0.9-0.4,1.6c0,0.7,0.1,1.2,0.4,1.6    c0.3,0.4,0.6,0.5,1.1,0.5c0.5,0,0.8-0.2,1.1-0.5C319.8,330.5,320,330,320,329.3z"/> 		<path style="fill:#1A171B;" d="M326.4,334h-0.9v-2.6c-0.3,0.2-0.5,0.4-0.8,0.5c-0.3,0.1-0.6,0.2-0.9,0.2c-0.6,0-1.1-0.3-1.5-0.8    c-0.4-0.5-0.5-1.2-0.5-2.1c0-0.5,0.1-0.9,0.2-1.2c0.1-0.4,0.3-0.7,0.5-0.9c0.2-0.2,0.4-0.4,0.7-0.6s0.6-0.2,0.9-0.2    c0.3,0,0.5,0,0.7,0.1s0.4,0.2,0.7,0.3l0.1-0.2h0.8V334z M325.5,330.6v-3.1c-0.2-0.1-0.5-0.2-0.6-0.2s-0.4-0.1-0.6-0.1    c-0.5,0-0.9,0.2-1.1,0.5c-0.3,0.4-0.4,0.9-0.4,1.5c0,0.6,0.1,1.1,0.3,1.5c0.2,0.3,0.5,0.5,1,0.5c0.3,0,0.5-0.1,0.8-0.2    C325.1,331,325.3,330.8,325.5,330.6z"/> 		<path style="fill:#1A171B;" d="M332.4,332h-0.9v-0.6c-0.3,0.2-0.6,0.4-0.8,0.6s-0.6,0.2-0.9,0.2c-0.5,0-1-0.2-1.3-0.5    c-0.3-0.4-0.5-0.9-0.5-1.5v-3.5h0.9v3.1c0,0.3,0,0.5,0,0.7c0,0.2,0.1,0.4,0.2,0.5c0.1,0.1,0.2,0.2,0.3,0.3    c0.1,0.1,0.3,0.1,0.6,0.1c0.2,0,0.5-0.1,0.7-0.2c0.3-0.1,0.5-0.3,0.7-0.5v-4.1h0.9V332z"/> 		<path style="fill:#1A171B;" d="M338.4,329.4h-3.8c0,0.3,0,0.6,0.1,0.9c0.1,0.3,0.2,0.5,0.4,0.6c0.2,0.2,0.4,0.3,0.6,0.4    s0.5,0.1,0.7,0.1c0.4,0,0.7-0.1,1.1-0.2c0.4-0.1,0.6-0.3,0.8-0.4h0v1c-0.3,0.1-0.6,0.2-0.9,0.3c-0.3,0.1-0.6,0.1-1,0.1    c-0.9,0-1.5-0.2-2-0.7c-0.5-0.5-0.7-1.2-0.7-2.1c0-0.9,0.2-1.6,0.7-2.1s1.1-0.8,1.8-0.8c0.7,0,1.2,0.2,1.6,0.6s0.6,1,0.6,1.8    V329.4z M337.5,328.7c0-0.5-0.1-0.9-0.3-1.1c-0.2-0.3-0.6-0.4-1-0.4c-0.5,0-0.8,0.1-1.1,0.4s-0.4,0.6-0.5,1.1H337.5z"/> 		<path style="fill:#1A171B;" d="M340.6,325.6h-1v-1h1V325.6z M340.6,332h-0.9v-5.5h0.9V332z"/> 		<path style="fill:#1A171B;" d="M346.8,332h-1.1l-1.5-2.1l-1.5,2.1h-1l2-2.7l-2-2.7h1.1l1.5,2.1l1.5-2.1h1l-2,2.7L346.8,332z"/> 		<path style="fill:#1A171B;" d="M352.3,329.3c0,0.9-0.2,1.6-0.6,2.1s-1,0.8-1.7,0.8c-0.7,0-1.3-0.3-1.7-0.8s-0.6-1.2-0.6-2.1    s0.2-1.6,0.6-2.1c0.4-0.5,1-0.8,1.7-0.8c0.7,0,1.3,0.3,1.7,0.8C352.1,327.7,352.3,328.4,352.3,329.3z M351.4,329.3    c0-0.7-0.1-1.2-0.4-1.6c-0.3-0.3-0.6-0.5-1.1-0.5c-0.5,0-0.8,0.2-1.1,0.5c-0.3,0.3-0.4,0.9-0.4,1.6c0,0.7,0.1,1.2,0.4,1.6    c0.3,0.4,0.6,0.5,1.1,0.5c0.5,0,0.8-0.2,1.1-0.5C351.3,330.5,351.4,330,351.4,329.3z M351.3,323.8l-1.3,1.8h-0.7l0.8-1.8H351.3z"/> 		<path style="fill:#1A171B;" d="M357.9,332h-0.9v-3.1c0-0.3,0-0.5,0-0.7c0-0.2-0.1-0.4-0.2-0.5c-0.1-0.1-0.2-0.2-0.3-0.3    c-0.1-0.1-0.3-0.1-0.6-0.1c-0.2,0-0.5,0.1-0.7,0.2c-0.3,0.1-0.5,0.3-0.7,0.5v4.1h-0.9v-5.5h0.9v0.6c0.3-0.2,0.6-0.4,0.8-0.6    s0.6-0.2,0.9-0.2c0.6,0,1,0.2,1.3,0.5c0.3,0.4,0.4,0.9,0.4,1.5V332z"/> 	</g> 	<g> 		<rect x="302.3" y="365.5" style="fill-rule:evenodd;clip-rule:evenodd;fill:none;" width="28.2" height="11"/> 		<path style="fill:#1A171B;" d="M308.6,366.7l-2.5,7.3h-1.2l-2.5-7.3h1l2.2,6.4l2.2-6.4H308.6z"/> 		<path style="fill:#1A171B;" d="M313.5,371.4h-3.8c0,0.3,0,0.6,0.1,0.9c0.1,0.2,0.2,0.5,0.4,0.6c0.2,0.2,0.4,0.3,0.6,0.4    s0.5,0.1,0.7,0.1c0.4,0,0.7-0.1,1.1-0.2c0.4-0.1,0.6-0.3,0.8-0.4h0v1c-0.3,0.1-0.6,0.2-0.9,0.3c-0.3,0.1-0.6,0.1-1,0.1    c-0.9,0-1.5-0.2-2-0.7c-0.5-0.5-0.7-1.2-0.7-2.1c0-0.9,0.2-1.6,0.7-2.1s1.1-0.8,1.8-0.8c0.7,0,1.2,0.2,1.6,0.6s0.6,1,0.6,1.8    V371.4z M312.7,370.7c0-0.5-0.1-0.9-0.3-1.1c-0.2-0.3-0.6-0.4-1-0.4c-0.5,0-0.8,0.1-1.1,0.4s-0.4,0.6-0.5,1.1H312.7z"/> 		<path style="fill:#1A171B;" d="M319,374h-0.9v-0.6c-0.2,0.2-0.5,0.4-0.8,0.5s-0.6,0.2-0.9,0.2c-0.6,0-1.1-0.3-1.5-0.8    c-0.4-0.5-0.5-1.2-0.5-2.1c0-0.5,0.1-0.9,0.2-1.2c0.1-0.4,0.3-0.7,0.5-0.9c0.2-0.2,0.5-0.4,0.7-0.6s0.6-0.2,0.9-0.2    c0.3,0,0.5,0,0.7,0.1c0.2,0.1,0.4,0.2,0.7,0.3v-2.4h0.9V374z M318.1,372.7v-3.1c-0.2-0.1-0.4-0.2-0.6-0.2s-0.4-0.1-0.6-0.1    c-0.5,0-0.9,0.2-1.1,0.5s-0.4,0.9-0.4,1.5c0,0.6,0.1,1.1,0.3,1.5c0.2,0.3,0.5,0.5,1,0.5c0.2,0,0.5-0.1,0.7-0.2    C317.7,373,317.9,372.8,318.1,372.7z"/> 		<path style="fill:#1A171B;" d="M323.9,369.5L323.9,369.5c-0.2,0-0.3-0.1-0.4-0.1c-0.1,0-0.3,0-0.4,0c-0.3,0-0.5,0.1-0.8,0.2    c-0.3,0.1-0.5,0.3-0.7,0.5v3.9h-0.9v-5.5h0.9v0.8c0.3-0.3,0.6-0.5,0.9-0.6c0.3-0.1,0.5-0.2,0.8-0.2c0.2,0,0.3,0,0.3,0    c0.1,0,0.2,0,0.3,0V369.5z"/> 		<path style="fill:#1A171B;" d="M328.6,374h-0.9v-0.6c-0.1,0.1-0.2,0.1-0.3,0.2c-0.1,0.1-0.3,0.2-0.4,0.2c-0.1,0.1-0.3,0.1-0.5,0.2    c-0.2,0.1-0.4,0.1-0.7,0.1c-0.5,0-0.9-0.2-1.2-0.5c-0.3-0.3-0.5-0.7-0.5-1.2c0-0.4,0.1-0.7,0.3-1c0.2-0.3,0.4-0.5,0.7-0.6    c0.3-0.1,0.7-0.2,1.1-0.3c0.4-0.1,0.9-0.1,1.4-0.1v-0.1c0-0.2,0-0.4-0.1-0.5c-0.1-0.1-0.2-0.2-0.3-0.3c-0.1-0.1-0.3-0.1-0.4-0.2    c-0.2,0-0.4,0-0.5,0c-0.2,0-0.5,0-0.8,0.1c-0.3,0.1-0.6,0.2-0.9,0.3h0v-0.9c0.2,0,0.4-0.1,0.7-0.2c0.3-0.1,0.6-0.1,0.9-0.1    c0.4,0,0.7,0,0.9,0.1c0.3,0.1,0.5,0.2,0.7,0.3c0.2,0.1,0.3,0.3,0.4,0.6s0.2,0.5,0.2,0.9V374z M327.8,372.7v-1.5    c-0.3,0-0.6,0-0.9,0.1s-0.6,0.1-0.9,0.1c-0.2,0.1-0.5,0.2-0.6,0.3c-0.2,0.2-0.2,0.4-0.2,0.7c0,0.3,0.1,0.5,0.3,0.7    c0.2,0.2,0.5,0.2,0.8,0.2c0.3,0,0.6-0.1,0.8-0.2C327.3,373,327.5,372.8,327.8,372.7z"/> 	</g> </g> <g id="text-provincies"> 	<g> 		<rect x="341.4" y="416.8" style="fill-rule:evenodd;clip-rule:evenodd;fill:none;" width="77.4" height="11"/> 		<path style="fill:#1A171B;" d="M354.9,420.4c0,0.3-0.1,0.6-0.2,1c-0.1,0.3-0.3,0.6-0.5,0.8c-0.3,0.3-0.6,0.5-1,0.6    c-0.4,0.1-0.8,0.2-1.3,0.2h-1.2v2.4h-1.9v-7.3h3.1c0.5,0,0.9,0,1.2,0.1c0.3,0.1,0.6,0.2,0.8,0.4c0.3,0.2,0.5,0.4,0.7,0.7    C354.8,419.6,354.9,420,354.9,420.4z M353,420.4c0-0.2-0.1-0.4-0.2-0.5c-0.1-0.1-0.2-0.3-0.4-0.3c-0.2-0.1-0.4-0.1-0.6-0.1    c-0.2,0-0.4,0-0.7,0h-0.3v2.2h0.5c0.3,0,0.6,0,0.8-0.1c0.2,0,0.4-0.1,0.5-0.2c0.1-0.1,0.2-0.2,0.3-0.4    C352.9,420.8,353,420.6,353,420.4z"/> 		<path style="fill:#1A171B;" d="M361.7,422.6c0,0.9-0.3,1.6-0.8,2.1c-0.5,0.5-1.3,0.8-2.2,0.8s-1.7-0.3-2.2-0.8    c-0.5-0.5-0.8-1.2-0.8-2.1c0-0.9,0.3-1.6,0.8-2.1c0.5-0.5,1.3-0.8,2.2-0.8c1,0,1.7,0.3,2.2,0.8C361.5,421,361.7,421.7,361.7,422.6    z M359.6,423.9c0.1-0.1,0.2-0.3,0.3-0.5c0.1-0.2,0.1-0.5,0.1-0.8c0-0.3,0-0.6-0.1-0.8s-0.1-0.4-0.2-0.5c-0.1-0.1-0.2-0.2-0.4-0.3    s-0.3-0.1-0.5-0.1s-0.3,0-0.5,0.1c-0.1,0-0.3,0.1-0.4,0.3c-0.1,0.1-0.2,0.3-0.3,0.5c-0.1,0.2-0.1,0.5-0.1,0.8c0,0.3,0,0.6,0.1,0.8    c0.1,0.2,0.1,0.4,0.2,0.5c0.1,0.1,0.2,0.2,0.4,0.3c0.1,0.1,0.3,0.1,0.5,0.1c0.2,0,0.3,0,0.5-0.1    C359.3,424.2,359.5,424.1,359.6,423.9z"/> 		<path style="fill:#1A171B;" d="M368.5,425.3h-1.8v-2.7c0-0.2,0-0.4,0-0.7c0-0.2-0.1-0.4-0.1-0.5c-0.1-0.1-0.2-0.2-0.3-0.3    c-0.1-0.1-0.3-0.1-0.5-0.1c-0.2,0-0.3,0-0.5,0.1c-0.2,0.1-0.3,0.1-0.5,0.2v3.9H363v-5.5h1.8v0.6c0.3-0.2,0.6-0.4,0.9-0.6    c0.3-0.1,0.6-0.2,1-0.2c0.6,0,1.1,0.2,1.4,0.5s0.5,0.9,0.5,1.5V425.3z"/> 		<path style="fill:#1A171B;" d="M373.6,425.3c-0.2,0-0.4,0.1-0.6,0.1s-0.5,0-0.8,0c-0.7,0-1.2-0.1-1.5-0.4    c-0.3-0.3-0.5-0.8-0.5-1.4v-2.6h-0.7v-1.2h0.7v-1.6h1.8v1.6h1.6v1.2H372v1.9c0,0.2,0,0.4,0,0.5c0,0.1,0,0.3,0.1,0.4    c0,0.1,0.1,0.2,0.2,0.3c0.1,0.1,0.3,0.1,0.5,0.1c0.1,0,0.2,0,0.4-0.1s0.3-0.1,0.3-0.1h0.1V425.3z"/> 		<path style="fill:#1A171B;" d="M380.1,422.9h-4c0,0.4,0.2,0.8,0.5,1c0.3,0.2,0.7,0.3,1.3,0.3c0.4,0,0.7-0.1,1.1-0.2    s0.6-0.3,0.8-0.4h0.2v1.4c-0.4,0.2-0.8,0.3-1.1,0.3s-0.7,0.1-1.2,0.1c-1.1,0-1.9-0.2-2.5-0.7s-0.9-1.2-0.9-2.1    c0-0.9,0.3-1.6,0.8-2.2c0.6-0.5,1.3-0.8,2.3-0.8c0.9,0,1.6,0.2,2,0.7c0.4,0.5,0.7,1.1,0.7,1.9V422.9z M378.3,421.9    c0-0.4-0.1-0.6-0.3-0.8s-0.4-0.3-0.8-0.3c-0.3,0-0.6,0.1-0.8,0.3s-0.3,0.5-0.4,0.8H378.3z"/> 		<path style="fill:#1A171B;" d="M386.8,419.9l-2.1,5.5h-2l-2.1-5.5h1.9l1.3,3.8l1.3-3.8H386.8z"/> 		<path style="fill:#1A171B;" d="M393.2,422.9h-4c0,0.4,0.2,0.8,0.5,1c0.3,0.2,0.7,0.3,1.3,0.3c0.4,0,0.7-0.1,1.1-0.2    s0.6-0.3,0.8-0.4h0.2v1.4c-0.4,0.2-0.8,0.3-1.1,0.3s-0.7,0.1-1.2,0.1c-1.1,0-1.9-0.2-2.5-0.7s-0.9-1.2-0.9-2.1    c0-0.9,0.3-1.6,0.8-2.2c0.6-0.5,1.3-0.8,2.3-0.8c0.9,0,1.6,0.2,2,0.7c0.4,0.5,0.7,1.1,0.7,1.9V422.9z M391.5,421.9    c0-0.4-0.1-0.6-0.3-0.8s-0.4-0.3-0.8-0.3c-0.3,0-0.6,0.1-0.8,0.3s-0.3,0.5-0.4,0.8H391.5z"/> 		<path style="fill:#1A171B;" d="M399.8,425.3H398v-0.6c-0.3,0.2-0.6,0.4-0.8,0.5s-0.6,0.2-0.9,0.2c-0.7,0-1.2-0.3-1.6-0.8    c-0.4-0.5-0.6-1.2-0.6-2.1c0-0.5,0.1-0.9,0.2-1.2c0.1-0.4,0.3-0.7,0.6-0.9c0.2-0.2,0.5-0.4,0.8-0.6c0.3-0.1,0.6-0.2,0.9-0.2    c0.3,0,0.6,0,0.8,0.1c0.2,0.1,0.4,0.2,0.6,0.3v-2.3h1.8V425.3z M398,423.8v-2.7c-0.1-0.1-0.3-0.1-0.4-0.1s-0.3,0-0.4,0    c-0.5,0-0.8,0.1-1,0.4s-0.3,0.7-0.3,1.2c0,0.5,0.1,0.9,0.3,1.2c0.2,0.2,0.5,0.4,0.9,0.4c0.2,0,0.3,0,0.5-0.1    C397.7,424,397.9,423.9,398,423.8z"/> 		<path style="fill:#1A171B;" d="M405.4,421.5h-0.2c-0.1,0-0.2,0-0.4-0.1s-0.3,0-0.4,0c-0.3,0-0.5,0-0.7,0c-0.2,0-0.4,0.1-0.6,0.2    v3.7h-1.8v-5.5h1.8v0.8c0.4-0.3,0.7-0.6,1-0.7c0.3-0.1,0.5-0.2,0.8-0.2c0.1,0,0.1,0,0.2,0c0.1,0,0.1,0,0.2,0V421.5z"/> 		<path style="fill:#1A171B;" d="M409.7,424.8c-0.1,0.1-0.2,0.2-0.4,0.3s-0.3,0.2-0.4,0.2c-0.2,0.1-0.4,0.1-0.5,0.2    c-0.2,0-0.4,0.1-0.6,0.1c-0.5,0-1-0.2-1.3-0.5s-0.5-0.7-0.5-1.2c0-0.4,0.1-0.7,0.3-1s0.4-0.5,0.8-0.6c0.3-0.1,0.7-0.3,1.2-0.3    s1-0.1,1.5-0.1v0c0-0.3-0.1-0.5-0.4-0.6c-0.2-0.1-0.6-0.2-1.1-0.2c-0.3,0-0.6,0.1-0.9,0.2c-0.3,0.1-0.6,0.2-0.7,0.2h-0.2V420    c0.2,0,0.5-0.1,0.9-0.2c0.4-0.1,0.8-0.1,1.3-0.1c1,0,1.7,0.2,2.2,0.5c0.4,0.3,0.7,0.8,0.7,1.4v3.7h-1.7V424.8z M409.7,423.9v-1.1    c-0.2,0-0.5,0-0.8,0.1c-0.3,0-0.5,0.1-0.6,0.1c-0.2,0.1-0.3,0.1-0.4,0.2c-0.1,0.1-0.1,0.2-0.1,0.4c0,0.1,0,0.2,0,0.3    c0,0.1,0.1,0.1,0.1,0.2c0.1,0.1,0.2,0.1,0.3,0.1c0.1,0,0.3,0,0.5,0c0.2,0,0.4,0,0.5-0.1C409.4,424.1,409.6,424,409.7,423.9z"/> 	</g> </g> <g id="llegenda"> 	<line style="fill:none;stroke:#9A9A9A;stroke-width:2;stroke-miterlimit:10;" x1="-190" y1="-218.5" x2="-190" y2="-189"/> 	<line style="fill:none;stroke:#9A9A9A;stroke-miterlimit:10;" x1="-156.6" y1="-218.5" x2="-156.6" y2="-189"/> 	<g> 		<path d="M-182.3-208.1h0.9v7.1h-0.9V-208.1z"/> 		<path d="M-179-207.2c0,0.3-0.2,0.5-0.6,0.5c-0.3,0-0.5-0.2-0.5-0.5s0.2-0.5,0.5-0.5C-179.2-207.7-179-207.5-179-207.2z     M-179.9-201v-4.8h0.9v4.8H-179.9z"/> 		<path d="M-177.6-204.5c0-0.5,0-0.9,0-1.3h0.8l0,0.8h0c0.2-0.4,0.8-0.9,1.6-0.9c0.7,0,1.7,0.4,1.7,2.1v2.9h-0.9v-2.8    c0-0.8-0.3-1.4-1.1-1.4c-0.6,0-1,0.4-1.2,0.9c0,0.1-0.1,0.3-0.1,0.4v2.9h-0.9V-204.5z"/> 	</g> 	<line style="fill:none;stroke:#696969;stroke-width:2;stroke-miterlimit:10;" x1="-190" y1="-178.9" x2="-190" y2="-149.4"/> 	<g> 		<path d="M-182.3-168.5h0.9v7.1h-0.9V-168.5z"/> 		<path d="M-179-167.6c0,0.3-0.2,0.5-0.6,0.5c-0.3,0-0.5-0.2-0.5-0.5s0.2-0.5,0.5-0.5C-179.2-168.1-179-167.9-179-167.6z     M-179.9-161.4v-4.8h0.9v4.8H-179.9z"/> 		<path d="M-177.6-164.9c0-0.5,0-0.9,0-1.3h0.8l0,0.8h0c0.2-0.4,0.8-0.9,1.6-0.9c0.7,0,1.7,0.4,1.7,2.1v2.9h-0.9v-2.8    c0-0.8-0.3-1.4-1.1-1.4c-0.6,0-1,0.4-1.2,0.9c0,0.1-0.1,0.3-0.1,0.4v2.9h-0.9V-164.9z"/> 	</g> 	<rect x="-195.4" y="-243.1" style="fill:#BFBFBF;" width="16.3" height="15.3"/> 	<rect x="-195.4" y="-270.7" style="fill:#DCE9FB;" width="16.3" height="15.3"/> 	<rect x="-226.8" y="-270.7" style="fill:#D0E0A4;" width="16.3" height="15.3"/> 	<g> 		<path d="M-169.9-233.7v-4.2h-0.7v-0.7h0.7v-0.2c0-0.7,0.2-1.3,0.6-1.7c0.3-0.3,0.8-0.4,1.2-0.4c0.3,0,0.6,0.1,0.7,0.1l-0.1,0.7    c-0.1-0.1-0.3-0.1-0.6-0.1c-0.7,0-0.9,0.6-0.9,1.4v0.3h1.2v0.7h-1.2v4.2H-169.9z"/> 		<path d="M-162.8-236.2c0,1.8-1.2,2.6-2.4,2.6c-1.3,0-2.3-1-2.3-2.5c0-1.6,1.1-2.6,2.4-2.6C-163.7-238.7-162.8-237.6-162.8-236.2z     M-166.6-236.1c0,1.1,0.6,1.9,1.5,1.9c0.8,0,1.5-0.8,1.5-1.9c0-0.8-0.4-1.8-1.4-1.8C-166.2-238-166.6-237-166.6-236.1z"/> 		<path d="M-161.7-237.2c0-0.5,0-0.9,0-1.3h0.8l0,0.8h0c0.2-0.4,0.8-0.9,1.6-0.9c0.7,0,1.7,0.4,1.7,2.1v2.9h-0.9v-2.8    c0-0.8-0.3-1.4-1.1-1.4c-0.6,0-1,0.4-1.2,0.9c0,0.1-0.1,0.3-0.1,0.4v2.9h-0.9V-237.2z"/> 		<path d="M-156.2-234.6c0.3,0.2,0.7,0.3,1.2,0.3c0.6,0,0.9-0.3,0.9-0.7c0-0.4-0.3-0.6-0.9-0.9c-0.9-0.3-1.3-0.8-1.3-1.4    c0-0.8,0.6-1.4,1.7-1.4c0.5,0,0.9,0.1,1.2,0.3l-0.2,0.6c-0.2-0.1-0.5-0.3-1-0.3c-0.5,0-0.8,0.3-0.8,0.7c0,0.4,0.3,0.6,0.9,0.8    c0.8,0.3,1.3,0.7,1.3,1.4c0,0.9-0.7,1.5-1.8,1.5c-0.5,0-1-0.1-1.4-0.3L-156.2-234.6z"/> 	</g> 	<g> 		<path d="M-169.9-264.6c0-0.5,0-0.9,0-1.3h0.8l0,0.8h0c0.3-0.5,0.7-0.9,1.5-0.9c0.6,0,1.1,0.4,1.4,1h0c0.1-0.3,0.4-0.5,0.5-0.6    c0.3-0.2,0.6-0.3,1.1-0.3c0.6,0,1.6,0.4,1.6,2.1v2.8h-0.9v-2.7c0-0.9-0.3-1.5-1-1.5c-0.5,0-0.9,0.4-1,0.8c0,0.1-0.1,0.3-0.1,0.4v3    h-0.9v-2.9c0-0.8-0.3-1.3-1-1.3c-0.5,0-0.9,0.4-1.1,0.9c-0.1,0.1-0.1,0.3-0.1,0.4v2.9h-0.9V-264.6z"/> 		<path d="M-158.2-262.2c0,0.4,0,0.8,0.1,1.2h-0.8l-0.1-0.6h0c-0.3,0.4-0.8,0.7-1.5,0.7c-1,0-1.5-0.7-1.5-1.4c0-1.2,1-1.8,2.9-1.8    v-0.1c0-0.4-0.1-1.1-1.1-1.1c-0.5,0-0.9,0.1-1.3,0.4l-0.2-0.6c0.4-0.3,1-0.4,1.6-0.4c1.5,0,1.8,1,1.8,2V-262.2z M-159.1-263.5    c-1,0-2,0.1-2,1.1c0,0.6,0.4,0.8,0.8,0.8c0.6,0,1-0.4,1.2-0.8c0-0.1,0-0.2,0-0.3V-263.5z"/> 		<path d="M-156.8-264.4c0-0.6,0-1.1,0-1.5h0.8l0,1h0c0.2-0.6,0.8-1.1,1.3-1.1c0.1,0,0.2,0,0.2,0v0.8c-0.1,0-0.2,0-0.3,0    c-0.6,0-1.1,0.5-1.2,1.1c0,0.1,0,0.3,0,0.4v2.6h-0.9V-264.4z"/> 	</g> 	<circle style="fill-rule:evenodd;clip-rule:evenodd;fill:#5B7EBD;" cx="-190" cy="-134.3" r="2.4"/> 	 		<rect x="-270.8" y="-243.1" style="fill:#BFBFBF;stroke:#696969;stroke-width:2;stroke-miterlimit:10;" width="16.3" height="15.3"/> 	 		<rect x="-244.6" y="-243.1" style="fill:#FFFBF0;stroke:#9A9A9A;stroke-width:2;stroke-miterlimit:10;" width="16.3" height="15.3"/> 	<rect x="-253.9" y="-212.5" style="opacity:0.6;fill:#FFFBF0;" width="51" height="17.5"/> </g> </svg>