<svg xmlns="http://www.w3.org/2000/svg" xmlns:xlink="http://www.w3.org/1999/xlink" version="1.1" x="0px" y="0px" width="450px" height="450px" viewBox="0 0 450 450" style="enable-background:new 0 0 450 450;" xml:space="preserve"> <g id="Capa_7"> 	<rect x="-32.6" y="-21.1" style="fill:#DCE9FB;" width="504" height="485"/> </g> <g id="comarques_A_corunya"> 	<polygon style="fill:#FFFBF0;" points="395.3,661.7 394.6,660.7 395.2,660.8 395.8,661 395.9,661.9 395.3,661.8  "/> 	<path style="fill:#FFFBF0;" d="M395.5,662.2"/> 	<path style="fill:#FFFBF0;" d="M294.7,535.7C294.1,536.4,293.7,536.8,294.7,535.7L294.7,535.7z"/> 	<path style="fill:#BFBFBF;stroke:#696969;stroke-width:2;stroke-miterlimit:10;" d="M132.9,390.8   C132.9,387.3,132.9,390.2,132.9,390.8L132.9,390.8z"/> 	<path style="fill:#BFBFBF;stroke:#696969;stroke-width:2;stroke-miterlimit:10;" d="M134.9,390.5   C134.9,389.4,134.9,390,134.9,390.5L134.9,390.5z"/> 	<path style="fill:#BFBFBF;stroke:#696969;stroke-width:2;stroke-miterlimit:10;" d="M136.2,391.7   C134.9,390.5,135.6,391.1,136.2,391.7L136.2,391.7z"/> 	<path style="fill:#BFBFBF;stroke:#696969;stroke-width:2;stroke-miterlimit:10;" d="M134.6,394.3   C134.4,391.4,134.4,391.8,134.6,394.3L134.6,394.3z"/> 	<path style="fill:#BFBFBF;stroke:#696969;stroke-width:2;stroke-miterlimit:10;" d="M132.8,393.8   C132.3,392.9,131.7,391.8,132.8,393.8L132.8,393.8z"/> 	<path style="fill:#BFBFBF;stroke:#696969;stroke-width:2;stroke-miterlimit:10;" d="M136.8,394.7   C136.5,393.9,136,392.9,136.8,394.7L136.8,394.7z"/> 	<path style="fill:#BFBFBF;stroke:#696969;stroke-width:2;stroke-miterlimit:10;" d="M147.3,406.5   C147.8,405.5,147.9,405.2,147.3,406.5L147.3,406.5z"/> 	<path style="fill:#BFBFBF;stroke:#696969;stroke-width:2;stroke-miterlimit:10;" d="M148.5,407.8   C148.5,405.7,148.5,407.7,148.5,407.8L148.5,407.8z"/> 	<path style="fill:#BFBFBF;stroke:#696969;stroke-width:2;stroke-miterlimit:10;" d="M147.5,408.6l-0.3-0.7L147.5,408.6z"/> 	<path style="fill:#BFBFBF;stroke:#696969;stroke-width:2;stroke-miterlimit:10;" d="M146.8,409.9l-0.3-0.7L146.8,409.9z"/> 	<path style="fill:#BFBFBF;stroke:#696969;stroke-width:2;stroke-miterlimit:10;" d="M144.7,410.3   C145.1,409.1,144.8,410.1,144.7,410.3L144.7,410.3z"/> 	<path style="fill:#BFBFBF;stroke:#696969;stroke-width:2;stroke-miterlimit:10;" d="M146.7,413.1   C146.5,412.3,146.5,412.4,146.7,413.1L146.7,413.1z"/> 	<path style="fill:#BFBFBF;stroke:#696969;stroke-width:2;stroke-miterlimit:10;" d="M164.3,415.7"/> 	<a> 		<path style="fill:#BFBFBF;stroke:#696969;stroke-width:2;stroke-miterlimit:10;" d="M316.4-5.3c0,0,4.1,22.3,8.6,24.8l-2.5,14.2    l7.1-2c0,0,5.1-17.2,11.1-16.2s1,19.8-9.6,21.3s-16.2,6.6-15.2-4.6c0,0-14.7-8.6-22.8-2s-0.5,12.7-11.7,9.6s2.5-9.1-8.1-14.2    s-2.5,7.6-2.5,7.6s-15.2,2.5-16.7,18.2s-15.7,23.3-27.4,21.3l-6.6,4.1c0,0,10,2.7,11.1,14.7c1.7,17.8,38,16.7,44.1,13.2    s12.5-10.4,12.5-10.4s0.2-16,7.8-15s22.4,13.4,22.4,13.4s6.9-23,15.1-18.5s8.1,4.6,8.1,4.6s-21.7,19.3,4.1,34.2l0,0    c0,0,17.8-24.5,58.3,12.2l0,0l-12.7,33.2l23.8,7.1l9.6-19.9c0,0,20.9,13.3,35.5,4.7s11.7-161.2,11.7-161.2L316.4-5.3z"/> 	</a> 	<a> 		<path style="fill:#BFBFBF;stroke:#696969;stroke-width:2;stroke-miterlimit:10;" d="M455.3,415.8l-17.6-8.7    c0,0-25.5,5.2-29.5,19.4c0,0,16.2,1.8,20.3,12.7s30.4,11.1,30.4,11.1L455.3,415.8z"/> 	</a> 	<a> 		<path style="fill:#BFBFBF;stroke:#696969;stroke-width:2;stroke-miterlimit:10;" d="M455.3,265.3c0,0-26.4-9.1-43.1,2.5    s-7.6,37.5-7.6,37.5l-47.6,4.6c0,0,13.8,38.1,0,39s-15.7,14.2-16.7,33.4s-8.3,10.2-8.3,10.2s-39.2-27.7-51.2-8l12.8,27.7    L280,429.5c0,0,14.7,5.9,15.2,13.2s0.5,21.3,3.5,21.3s150,3.5,150,3.5l-5.1-19.8c0,0-12.2-0.5-14.7-6.6s-7.1-13.2-20.8-14.7    c0,0-3.5-9.6,29.5-19.4l17.6,8.7V265.3z"/> 	</a> 	<a> 		<path style="fill:#BFBFBF;stroke:#696969;stroke-width:2;stroke-miterlimit:10;" d="M381.6,154.9l33.1,10.6l9.6-19.9    c0,0,18.3,12.3,33,5.7l-2,114c0,0-64.9-21.3-50.7,40l-47.6,4.6c0,0,13.2,34,0,39s-15.2,9.1-16.2,24.3s-2.9,25.9-8.8,19.3    s-40.2-26.1-51.2-8l12.8,27.7L280,429.5c0,0,15.2,5.9,15.2,13.2s2,17.7,2,17.7l-104.9-2.5c0,0,5.1-15.7-3-25.8s-11.7,0.5-11.7,0.5    s-30.2-22.9,2.1-66.9s0,0,0,0l26.2-34.9l8.7,4.6c0,0-4.4-15.2,18-33.2l0,0l19.5,11c0,0,21.2-11.3,12.1-18.4s3.4-7.4,7.5-7.4    s7.8-22.5,2.7-26.5l18.8-2.5c0,0-4.1,6.1,7.6,13.2s15.8,11.5,23.3,4.1s22.2-3.3,21.5-39.5c-0.2-11.6,0,0,0,0s-3.2-9.1,9.9-20.8    S381.4,165.1,381.6,154.9"/> 	</a> </g> <g id="fisterra_x2C__terra_soneira"> 	<a> 		<path style="fill-rule:evenodd;clip-rule:evenodd;fill:#FFFBF0;stroke:#9A9A9A;stroke-width:2;stroke-miterlimit:10;" d="    M171.6,360.1c-6,1.6-10.9,1.9-14.2-3c-7.2,2.8-8.7-13.7-11.5-19.1c-4.6-8.8-14.1-15.5-15.9-26.2l-9,5.4    c1.8,6.7-4.5,19.2-10.9,16.8c-4.6-1.7-3.2-21.3-2.4-25c-10.5,2.7-15.1-8.5-17.6-15.1c-4.9-12.5-11.2-0.1-14.7-9.5    c-2.4-6.4,8.2-22.8,13.8-28.2c0.3,1,4.1,5,4.6,7.3c10.2-4.5,22.8-17.2,29.3-2.2c3.1,7.2,14.6-5.5,14.6-5.5    c11-0.1,18,19.4,22.2,25.8c-13.7,9-3.3,30.1,5.9,36.5C178.4,327,168.5,348.4,171.6,360.1L171.6,360.1z"/> 	</a> 	<a> 		<path style="fill-rule:evenodd;clip-rule:evenodd;fill:#FFFBF0;stroke:#9A9A9A;stroke-width:2;stroke-miterlimit:10;" d="    M107.6,309.1c2.2,22.7-11.7,16.3-11.1,34.8c-35.8-14.8-9.9,42-27.6,47.9c-5.3,1.7-3-41.5-21.3-43.9c5-6.8,7.6-12.2,4.1-18    c-0.4,0,25.4-41.1,25.4-41.1C98.3,282.2,88.4,313.9,107.6,309.1L107.6,309.1z"/> 	</a> 	<a> 		<path style="fill-rule:evenodd;clip-rule:evenodd;fill:#FFFBF0;stroke:#9A9A9A;stroke-width:2;stroke-miterlimit:10;" d="    M119.9,317.5c3.3-1.8,6.5-3.6,9.8-5.4c0.4,11.6,5.4,21.3,4.3,31.9c-1.7,16.5-2.8,6-17.4,9.2c1.4-7.4-4.8-11.8-4.7-13.4    C112.2,334.4,123.4,328.4,119.9,317.5L119.9,317.5z"/> 	</a> 	<a> 		<path style="fill-rule:evenodd;clip-rule:evenodd;fill:#FFFBF0;stroke:#9A9A9A;stroke-width:2;stroke-miterlimit:10;" d="    M318.1,92.8c0,0-24-22-27.5-10.9s-2.7,12.5-2.7,12.5s22.5,34.2,32.1,23c0,0,6.1,10.6-3,13.7s-12.7,4.1-12.7,4.1l1,24.8    c0,0,17.7,11.1,12.2,25.3s-23.3,12.8-23.5,34.4c0,0.9-8.4,39.6-8.4,39.6l7.6-1c0,0-3.5,7.6,7.6,13.2s12.2,11.1,23.3,4.1    s20.1-8.7,21.8-27.4c1.2-13.2-3-23.3,10.6-32.9c0,0,22.8-28.9,24.8-59.3l9.6,2l13.2-32.4c0,0-36-34-59.8-13.2    c0,0-20.3-10.1-4.6-32.9c0,0-8.1-10.6-13.7-3S318.1,92.8,318.1,92.8z"/> 	</a> 	<a> 		<path style="fill-rule:evenodd;clip-rule:evenodd;fill:#FFFBF0;stroke:#9A9A9A;stroke-width:2;stroke-miterlimit:10;" d="    M218.1,77.3c0,0,11.7,2.5,12.7,10.6s2.5,15.7,22.3,17.2s22.8,0,25.8-3s9-7.8,9-7.8s23.5,33.7,32.1,23c0,0,6.1,10.1-3,13.7    s-12.7,4.1-12.7,4.1l1,24.8c0,0,19.3,9.6,12.2,25.3s-21.3,14.7-22.8,27.9s-9.1,46.1-9.1,46.1l-13.2,1.5l-36.2-13.6    c0,0,1.7-28.4-6.4-22.8c-8.1,5.6-15.1,11.5-18,5.5c-2.8-6-17.7-15-14.8-26.2c0,0,5.6-2.4,6.9-15.2c1.7-15.6-3.7-18.6-32.4-31.4    l-3-24.3c0,0-2.8-4.1,2-6.6c5.4-2.8,21.6-5.1,21.6-5.1l5.3,8.1c0,0-3.6-24.3,7.1-30.9S218.1,77.3,218.1,77.3z"/> 	</a> 	<a> 		<path style="fill-rule:evenodd;clip-rule:evenodd;fill:#FFFBF0;stroke:#9A9A9A;stroke-width:2;stroke-miterlimit:10;" d="    M115.3,100.1c0,0,16.2,6.1,22.3-7.1s3-25.8,11.1-22.3s9.6,2,15.2-4.1s4.6,4.1,12.7-1s11.1,0,17.2,4.6s7.6-4.6,12.7-1.5    s11.7,8.6,11.7,8.6s-3,15.2-9.1,18.2s-15.6,14.6-11.6,33.4l-5.3-8.1c0,0-18,2.6-21.6,5.1c-1.1,0.8-2.6,9.2-2.6,9.2l-4-7.2    l-11.1,2.5v-22.8c0,0-16.7,29.9-20.8,29.4s-1.5-8.1-5.1-7.6s-6.1,0-6.1-8.1S115.3,100.1,115.3,100.1z"/> 	</a> 	<a> 		<path style="fill-rule:evenodd;clip-rule:evenodd;fill:#FFFBF0;stroke:#9A9A9A;stroke-width:2;stroke-miterlimit:10;" d="    M79.3,269.4c0,0-1-12.2-8.1-12.2s-11.7-2-11.7-16.7s1-20.3-5.1-21.3s-7.6-13.2-3-13.2s8.1,15.7,15.7,11.7s22.3-15.7,18.8-26.9    s-8.6-22.3-0.5-21.8s2,9.6,6.1,6.1s20.8,5.1,18.2-2s-1-32.4,3-25.3s2,14.2,8.6,12.7s4.1,11.1,10.6,9.1s0-10.1,8.6-10.6    s13.2-2,13.2-10.1s-1-13.2,3-13.7s11.7-0.5,11.7-0.5l3,22.3c0,0,32.9,12.2,32.9,22.8s-2.2,23.9-7.4,23.9l-5.7,0    c0,0-1.5,9.6-7.1,9.6s-8.1-1.5-8.1,5.6s-1.2,22.9-1.2,22.9s-25.1-7.1-28.1-3.1s-8.6,18.7-8.6,18.7s-7.6,9.7-12.7,6.7    s-3.5-11.1-14.2-7.6s-17.5,7.4-17.5,7.4l-4.6-7.3L79.3,269.4z"/> 	</a> 	<a> 		<path style="fill-rule:evenodd;clip-rule:evenodd;fill:#FFFBF0;stroke:#9A9A9A;stroke-width:2;stroke-miterlimit:10;" d="    M138.1,257.1c0,0,3.5-22.2,14.2-20.7s22.6,5.1,22.6,5.1l1.2-22.9c0,0-3.7-6.4,3.4-6.4s10.8,1.8,11.8-8.8l5.7,0    c0,0-0.2,9.6,4.9,13.6s9.1,11.1,11.1,14.7s6.6-2,10.6-4.6c4.1-2.5,12.2-10.6,13.2,2.5s-0.7,17.3-0.7,17.3l39.2,14.2    c0,0,3,16.2-2,25.8c0,0-16.2,0-12.2,4.1s8.6,8.1,4.1,11.7S253.1,313,253.1,313l-21.3-11.7c0,0-22.8,19.3-17.2,34l-8.6-4.6    l-27.4,35.5l-7-6c0,0-1.1-7.1,0.4-22.8s-7.6-19.8-10.6-22.3s-16.8-25.3-1.6-33.2C159.8,281.8,148.5,255.4,138.1,257.1z"/> 	</a> </g> <g id="bl"> 	<rect x="104.1" y="338.9" style="opacity:0.6;fill:#FFFBF0;" width="51" height="10.1"/> </g> <g id="text_comarques"> 	<g> 		<rect x="325.6" y="587.1" style="fill-rule:evenodd;clip-rule:evenodd;fill:none;" width="97.4" height="11"/> 		<path style="fill:#1A171B;" d="M334.1,591.9c0,1.2-0.3,2.1-1,2.8c-0.7,0.7-1.6,1-2.8,1c-1.2,0-2.1-0.3-2.7-1c-0.7-0.7-1-1.6-1-2.8    c0-1.2,0.3-2.1,1-2.8c0.7-0.7,1.6-1,2.7-1c1.2,0,2.1,0.3,2.7,1C333.8,589.9,334.1,590.8,334.1,591.9z M331.7,593.8    c0.2-0.2,0.3-0.5,0.4-0.8c0.1-0.3,0.1-0.7,0.1-1.1c0-0.4-0.1-0.8-0.2-1.1s-0.2-0.6-0.4-0.7c-0.2-0.2-0.4-0.3-0.6-0.4    c-0.2-0.1-0.4-0.1-0.7-0.1c-0.2,0-0.5,0-0.7,0.1c-0.2,0.1-0.4,0.2-0.6,0.4c-0.2,0.2-0.3,0.4-0.4,0.8c-0.1,0.3-0.2,0.7-0.2,1.1    c0,0.4,0,0.8,0.1,1.1c0.1,0.3,0.2,0.6,0.4,0.7s0.4,0.3,0.6,0.4s0.4,0.1,0.7,0.1s0.5,0,0.7-0.1C331.3,594.1,331.5,594,331.7,593.8z    "/> 		<path style="fill:#1A171B;" d="M345.2,593.4c0,0.4-0.1,0.7-0.2,0.9c-0.1,0.3-0.3,0.5-0.6,0.7c-0.3,0.2-0.6,0.4-0.9,0.5    c-0.3,0.1-0.8,0.1-1.3,0.1H339v-7.3h2.8c0.6,0,1,0,1.3,0.1c0.3,0,0.5,0.1,0.8,0.3c0.3,0.1,0.5,0.3,0.6,0.6    c0.1,0.2,0.2,0.5,0.2,0.8c0,0.4-0.1,0.7-0.3,0.9c-0.2,0.3-0.4,0.5-0.8,0.6v0c0.5,0.1,0.9,0.3,1.1,0.6    C345.1,592.5,345.2,592.9,345.2,593.4z M342.8,590.4c0-0.1,0-0.2-0.1-0.4c-0.1-0.1-0.2-0.2-0.3-0.3c-0.1-0.1-0.3-0.1-0.5-0.1    c-0.2,0-0.5,0-0.9,0h-0.2v1.5h0.3c0.3,0,0.5,0,0.8,0s0.4,0,0.5-0.1c0.2-0.1,0.3-0.2,0.3-0.3C342.8,590.7,342.8,590.5,342.8,590.4z     M343.3,593.3c0-0.2,0-0.4-0.1-0.5c-0.1-0.1-0.2-0.2-0.5-0.3c-0.1,0-0.3-0.1-0.6-0.1c-0.3,0-0.5,0-0.8,0h-0.4v1.8h0.1    c0.5,0,0.9,0,1.1,0s0.4,0,0.6-0.1c0.2-0.1,0.3-0.2,0.4-0.3C343.2,593.7,343.3,593.5,343.3,593.3z"/> 		<path style="fill:#1A171B;" d="M349.8,595c-0.1,0.1-0.2,0.2-0.4,0.3s-0.3,0.2-0.4,0.2c-0.2,0.1-0.4,0.1-0.5,0.2    c-0.2,0-0.4,0.1-0.6,0.1c-0.5,0-1-0.2-1.3-0.5s-0.5-0.7-0.5-1.2c0-0.4,0.1-0.7,0.3-1s0.4-0.5,0.8-0.6c0.3-0.1,0.7-0.3,1.2-0.3    s1-0.1,1.5-0.1v0c0-0.3-0.1-0.5-0.4-0.6c-0.2-0.1-0.6-0.2-1.1-0.2c-0.3,0-0.6,0.1-0.9,0.2c-0.3,0.1-0.6,0.2-0.7,0.2h-0.2v-1.3    c0.2,0,0.5-0.1,0.9-0.2c0.4-0.1,0.8-0.1,1.3-0.1c1,0,1.7,0.2,2.2,0.5c0.4,0.3,0.7,0.8,0.7,1.4v3.7h-1.7V595z M349.8,594.1V593    c-0.2,0-0.5,0-0.8,0.1c-0.3,0-0.5,0.1-0.6,0.1c-0.2,0.1-0.3,0.1-0.4,0.2c-0.1,0.1-0.1,0.2-0.1,0.4c0,0.1,0,0.2,0,0.3    c0,0.1,0.1,0.1,0.1,0.2c0.1,0.1,0.2,0.1,0.3,0.1c0.1,0,0.3,0,0.5,0c0.2,0,0.4,0,0.5-0.1C349.5,594.4,349.7,594.3,349.8,594.1z"/> 		<path style="fill:#1A171B;" d="M357.2,591.8H357c-0.1,0-0.2,0-0.4-0.1s-0.3,0-0.4,0c-0.3,0-0.5,0-0.7,0c-0.2,0-0.4,0.1-0.6,0.2    v3.7h-1.8v-5.5h1.8v0.8c0.4-0.3,0.7-0.6,1-0.7c0.3-0.1,0.5-0.2,0.8-0.2c0.1,0,0.1,0,0.2,0c0.1,0,0.1,0,0.2,0V591.8z"/> 		<path style="fill:#1A171B;" d="M363.9,592.8c0,0.9-0.2,1.6-0.7,2.1c-0.5,0.5-1.1,0.8-1.8,0.8c-0.3,0-0.6,0-0.8-0.1    c-0.2-0.1-0.5-0.2-0.7-0.3l-0.1,0.3h-1.7V588h1.8v2.7c0.3-0.2,0.5-0.4,0.8-0.5s0.6-0.2,1-0.2c0.7,0,1.2,0.3,1.6,0.7    C363.7,591.2,363.9,591.9,363.9,592.8z M362.1,592.8c0-0.5-0.1-0.9-0.2-1.1c-0.2-0.3-0.5-0.4-0.9-0.4c-0.2,0-0.3,0-0.5,0.1    c-0.2,0-0.3,0.1-0.5,0.2v2.7c0.1,0,0.2,0.1,0.4,0.1c0.1,0,0.3,0,0.4,0c0.5,0,0.8-0.1,1-0.4C362,593.8,362.1,593.3,362.1,592.8z"/> 		<path style="fill:#1A171B;" d="M368.5,595c-0.1,0.1-0.2,0.2-0.4,0.3s-0.3,0.2-0.4,0.2c-0.2,0.1-0.4,0.1-0.5,0.2    c-0.2,0-0.4,0.1-0.6,0.1c-0.5,0-1-0.2-1.3-0.5s-0.5-0.7-0.5-1.2c0-0.4,0.1-0.7,0.3-1s0.4-0.5,0.8-0.6c0.3-0.1,0.7-0.3,1.2-0.3    s1-0.1,1.5-0.1v0c0-0.3-0.1-0.5-0.4-0.6c-0.2-0.1-0.6-0.2-1.1-0.2c-0.3,0-0.6,0.1-0.9,0.2c-0.3,0.1-0.6,0.2-0.7,0.2h-0.2v-1.3    c0.2,0,0.5-0.1,0.9-0.2c0.4-0.1,0.8-0.1,1.3-0.1c1,0,1.7,0.2,2.2,0.5c0.4,0.3,0.7,0.8,0.7,1.4v3.7h-1.7V595z M368.5,594.1V593    c-0.2,0-0.5,0-0.8,0.1c-0.3,0-0.5,0.1-0.6,0.1c-0.2,0.1-0.3,0.1-0.4,0.2c-0.1,0.1-0.1,0.2-0.1,0.4c0,0.1,0,0.2,0,0.3    c0,0.1,0.1,0.1,0.1,0.2c0.1,0.1,0.2,0.1,0.3,0.1c0.1,0,0.3,0,0.5,0c0.2,0,0.4,0,0.5-0.1C368.2,594.4,368.3,594.3,368.5,594.1z"/> 		<path style="fill:#1A171B;" d="M377.3,595.6h-1.8v-2.7c0-0.2,0-0.4,0-0.7c0-0.2-0.1-0.4-0.1-0.5c-0.1-0.1-0.2-0.2-0.3-0.3    c-0.1-0.1-0.3-0.1-0.5-0.1c-0.2,0-0.3,0-0.5,0.1c-0.2,0.1-0.3,0.1-0.5,0.2v3.9h-1.8v-5.5h1.8v0.6c0.3-0.2,0.6-0.4,0.9-0.6    c0.3-0.1,0.6-0.2,1-0.2c0.6,0,1.1,0.2,1.4,0.5s0.5,0.9,0.5,1.5V595.6z"/> 		<path style="fill:#1A171B;" d="M382.3,595c-0.1,0.1-0.2,0.2-0.4,0.3s-0.3,0.2-0.4,0.2c-0.2,0.1-0.4,0.1-0.5,0.2    c-0.2,0-0.4,0.1-0.6,0.1c-0.5,0-1-0.2-1.3-0.5s-0.5-0.7-0.5-1.2c0-0.4,0.1-0.7,0.3-1s0.4-0.5,0.8-0.6c0.3-0.1,0.7-0.3,1.2-0.3    s1-0.1,1.5-0.1v0c0-0.3-0.1-0.5-0.4-0.6c-0.2-0.1-0.6-0.2-1.1-0.2c-0.3,0-0.6,0.1-0.9,0.2c-0.3,0.1-0.6,0.2-0.7,0.2H379v-1.3    c0.2,0,0.5-0.1,0.9-0.2c0.4-0.1,0.8-0.1,1.3-0.1c1,0,1.7,0.2,2.2,0.5c0.4,0.3,0.7,0.8,0.7,1.4v3.7h-1.7V595z M382.3,594.1V593    c-0.2,0-0.5,0-0.8,0.1c-0.3,0-0.5,0.1-0.6,0.1c-0.2,0.1-0.3,0.1-0.4,0.2c-0.1,0.1-0.1,0.2-0.1,0.4c0,0.1,0,0.2,0,0.3    c0,0.1,0.1,0.1,0.1,0.2c0.1,0.1,0.2,0.1,0.3,0.1c0.1,0,0.3,0,0.5,0c0.2,0,0.4,0,0.5-0.1C382,594.4,382.1,594.3,382.3,594.1z"/> 		<path style="fill:#1A171B;" d="M387.8,593.7l-1.8,3.7H385l1-3.7H387.8z"/> 		<path style="fill:#1A171B;" d="M399.8,591.9c0,1.2-0.3,2.1-1,2.8c-0.7,0.7-1.6,1-2.8,1c-1.2,0-2.1-0.3-2.7-1c-0.7-0.7-1-1.6-1-2.8    c0-1.2,0.3-2.1,1-2.8c0.7-0.7,1.6-1,2.7-1c1.2,0,2.1,0.3,2.7,1C399.5,589.9,399.8,590.8,399.8,591.9z M397.4,593.8    c0.2-0.2,0.3-0.5,0.4-0.8c0.1-0.3,0.1-0.7,0.1-1.1c0-0.4-0.1-0.8-0.2-1.1s-0.2-0.6-0.4-0.7c-0.2-0.2-0.4-0.3-0.6-0.4    c-0.2-0.1-0.4-0.1-0.7-0.1c-0.2,0-0.5,0-0.7,0.1c-0.2,0.1-0.4,0.2-0.6,0.4c-0.2,0.2-0.3,0.4-0.4,0.8c-0.1,0.3-0.2,0.7-0.2,1.1    c0,0.4,0,0.8,0.1,1.1c0.1,0.3,0.2,0.6,0.4,0.7s0.4,0.3,0.6,0.4s0.4,0.1,0.7,0.1s0.5,0,0.7-0.1C397,594.1,397.2,594,397.4,593.8z"/> 		<path style="fill:#1A171B;" d="M410.5,593.3c0,0.7-0.3,1.3-0.9,1.7c-0.6,0.4-1.4,0.7-2.5,0.7c-0.6,0-1.1-0.1-1.6-0.2    c-0.4-0.1-0.9-0.2-1.3-0.4v-1.7h0.2c0.4,0.3,0.8,0.5,1.3,0.7c0.5,0.2,0.9,0.2,1.4,0.2c0.1,0,0.3,0,0.4,0s0.3-0.1,0.5-0.1    c0.1-0.1,0.3-0.1,0.4-0.2c0.1-0.1,0.1-0.2,0.1-0.4c0-0.2-0.1-0.3-0.2-0.4c-0.1-0.1-0.3-0.2-0.6-0.3c-0.3-0.1-0.6-0.1-0.9-0.2    c-0.3-0.1-0.6-0.1-0.9-0.2c-0.6-0.2-1.1-0.5-1.3-0.8c-0.3-0.3-0.4-0.8-0.4-1.3c0-0.7,0.3-1.2,0.9-1.7c0.6-0.4,1.4-0.6,2.3-0.6    c0.5,0,1,0,1.4,0.1c0.5,0.1,0.9,0.2,1.2,0.3v1.7H410c-0.3-0.2-0.7-0.4-1.1-0.6c-0.4-0.2-0.9-0.2-1.3-0.2c-0.2,0-0.3,0-0.5,0    c-0.2,0-0.3,0.1-0.4,0.1c-0.1,0-0.2,0.1-0.3,0.2c-0.1,0.1-0.1,0.2-0.1,0.3c0,0.2,0.1,0.3,0.2,0.4c0.1,0.1,0.4,0.2,0.8,0.3    c0.3,0.1,0.5,0.1,0.8,0.2c0.2,0.1,0.5,0.1,0.8,0.2c0.6,0.2,1,0.4,1.2,0.7C410.4,592.4,410.5,592.8,410.5,593.3z"/> 		<path style="fill:#1A171B;" d="M415,595c-0.1,0.1-0.2,0.2-0.4,0.3s-0.3,0.2-0.4,0.2c-0.2,0.1-0.4,0.1-0.5,0.2    c-0.2,0-0.4,0.1-0.6,0.1c-0.5,0-1-0.2-1.3-0.5s-0.5-0.7-0.5-1.2c0-0.4,0.1-0.7,0.3-1s0.4-0.5,0.8-0.6c0.3-0.1,0.7-0.3,1.2-0.3    s1-0.1,1.5-0.1v0c0-0.3-0.1-0.5-0.4-0.6c-0.2-0.1-0.6-0.2-1.1-0.2c-0.3,0-0.6,0.1-0.9,0.2c-0.3,0.1-0.6,0.2-0.7,0.2h-0.2v-1.3    c0.2,0,0.5-0.1,0.9-0.2c0.4-0.1,0.8-0.1,1.3-0.1c1,0,1.7,0.2,2.2,0.5c0.4,0.3,0.7,0.8,0.7,1.4v3.7H415V595z M415,594.1V593    c-0.2,0-0.5,0-0.8,0.1c-0.3,0-0.5,0.1-0.6,0.1c-0.2,0.1-0.3,0.1-0.4,0.2c-0.1,0.1-0.1,0.2-0.1,0.4c0,0.1,0,0.2,0,0.3    c0,0.1,0.1,0.1,0.1,0.2c0.1,0.1,0.2,0.1,0.3,0.1c0.1,0,0.3,0,0.5,0c0.2,0,0.4,0,0.5-0.1C414.7,594.4,414.9,594.3,415,594.1z"/> 		<path style="fill:#1A171B;" d="M422.3,591.8h-0.2c-0.1,0-0.2,0-0.4-0.1s-0.3,0-0.4,0c-0.3,0-0.5,0-0.7,0c-0.2,0-0.4,0.1-0.6,0.2    v3.7h-1.8v-5.5h1.8v0.8c0.4-0.3,0.7-0.6,1-0.7c0.3-0.1,0.5-0.2,0.8-0.2c0.1,0,0.1,0,0.2,0c0.1,0,0.1,0,0.2,0V591.8z"/> 	</g> 	<g> 		<rect x="398.6" y="412.8" style="fill-rule:evenodd;clip-rule:evenodd;fill:none;" width="50.4" height="11"/> 		<path style="fill:#1A171B;" d="M405.8,419c0,0.7-0.3,1.3-0.9,1.7c-0.6,0.4-1.4,0.7-2.5,0.7c-0.6,0-1.1-0.1-1.6-0.2    c-0.4-0.1-0.9-0.2-1.3-0.4v-1.7h0.2c0.4,0.3,0.8,0.5,1.3,0.7c0.5,0.2,0.9,0.2,1.4,0.2c0.1,0,0.3,0,0.4,0s0.3-0.1,0.5-0.1    c0.1-0.1,0.3-0.1,0.4-0.2c0.1-0.1,0.1-0.2,0.1-0.4c0-0.2-0.1-0.3-0.2-0.4c-0.1-0.1-0.3-0.2-0.6-0.3c-0.3-0.1-0.6-0.1-0.9-0.2    c-0.3-0.1-0.6-0.1-0.9-0.2c-0.6-0.2-1.1-0.5-1.3-0.8c-0.3-0.3-0.4-0.8-0.4-1.3c0-0.7,0.3-1.2,0.9-1.7c0.6-0.4,1.4-0.6,2.3-0.6    c0.5,0,1,0,1.4,0.1c0.5,0.1,0.9,0.2,1.2,0.3v1.7h-0.2c-0.3-0.2-0.7-0.4-1.1-0.6c-0.4-0.2-0.9-0.2-1.3-0.2c-0.2,0-0.3,0-0.5,0    c-0.2,0-0.3,0.1-0.4,0.1c-0.1,0-0.2,0.1-0.3,0.2c-0.1,0.1-0.1,0.2-0.1,0.3c0,0.2,0.1,0.3,0.2,0.4c0.1,0.1,0.4,0.2,0.8,0.3    c0.3,0.1,0.5,0.1,0.8,0.2c0.2,0.1,0.5,0.1,0.8,0.2c0.6,0.2,1,0.4,1.2,0.7C405.7,418.1,405.8,418.5,405.8,419z"/> 		<path style="fill:#1A171B;" d="M410.3,420.7c-0.1,0.1-0.2,0.2-0.4,0.3s-0.3,0.2-0.4,0.2c-0.2,0.1-0.4,0.1-0.5,0.2    c-0.2,0-0.4,0.1-0.6,0.1c-0.5,0-1-0.2-1.3-0.5s-0.5-0.7-0.5-1.2c0-0.4,0.1-0.7,0.3-1s0.4-0.5,0.8-0.6c0.3-0.1,0.7-0.3,1.2-0.3    s1-0.1,1.5-0.1v0c0-0.3-0.1-0.5-0.4-0.6c-0.2-0.1-0.6-0.2-1.1-0.2c-0.3,0-0.6,0.1-0.9,0.2c-0.3,0.1-0.6,0.2-0.7,0.2h-0.2v-1.3    c0.2,0,0.5-0.1,0.9-0.2c0.4-0.1,0.8-0.1,1.3-0.1c1,0,1.7,0.2,2.2,0.5c0.4,0.3,0.7,0.8,0.7,1.4v3.7h-1.7V420.7z M410.3,419.9v-1.1    c-0.2,0-0.5,0-0.8,0.1c-0.3,0-0.5,0.1-0.6,0.1c-0.2,0.1-0.3,0.1-0.4,0.2c-0.1,0.1-0.1,0.2-0.1,0.4c0,0.1,0,0.2,0,0.3    c0,0.1,0.1,0.1,0.1,0.2c0.1,0.1,0.2,0.1,0.3,0.1c0.1,0,0.3,0,0.5,0c0.2,0,0.4,0,0.5-0.1C410,420.1,410.2,420,410.3,419.9z"/> 		<path style="fill:#1A171B;" d="M419.2,421.3h-1.8v-2.7c0-0.2,0-0.4,0-0.7c0-0.2-0.1-0.4-0.1-0.5c-0.1-0.1-0.2-0.2-0.3-0.3    c-0.1-0.1-0.3-0.1-0.5-0.1c-0.2,0-0.3,0-0.5,0.1c-0.2,0.1-0.3,0.1-0.5,0.2v3.9h-1.8v-5.5h1.8v0.6c0.3-0.2,0.6-0.4,0.9-0.6    c0.3-0.1,0.6-0.2,1-0.2c0.6,0,1.1,0.2,1.4,0.5s0.5,0.9,0.5,1.5V421.3z"/> 		<path style="fill:#1A171B;" d="M424.3,421.3c-0.2,0-0.4,0.1-0.6,0.1c-0.2,0-0.5,0-0.8,0c-0.7,0-1.2-0.1-1.5-0.4    c-0.3-0.3-0.5-0.8-0.5-1.4V417h-0.7v-1.2h0.7v-1.6h1.8v1.6h1.6v1.2h-1.6v1.9c0,0.2,0,0.4,0,0.5s0,0.3,0.1,0.4    c0,0.1,0.1,0.2,0.2,0.3c0.1,0.1,0.3,0.1,0.5,0.1c0.1,0,0.2,0,0.4-0.1s0.3-0.1,0.3-0.1h0.1V421.3z"/> 		<path style="fill:#1A171B;" d="M427.2,415h-1.9v-1.3h1.9V415z M427.1,421.3h-1.8v-5.5h1.8V421.3z"/> 		<path style="fill:#1A171B;" d="M432.1,420.7c-0.1,0.1-0.2,0.2-0.4,0.3s-0.3,0.2-0.4,0.2c-0.2,0.1-0.4,0.1-0.5,0.2    c-0.2,0-0.4,0.1-0.6,0.1c-0.5,0-1-0.2-1.3-0.5s-0.5-0.7-0.5-1.2c0-0.4,0.1-0.7,0.3-1s0.4-0.5,0.8-0.6c0.3-0.1,0.7-0.3,1.2-0.3    s1-0.1,1.5-0.1v0c0-0.3-0.1-0.5-0.4-0.6c-0.2-0.1-0.6-0.2-1.1-0.2c-0.3,0-0.6,0.1-0.9,0.2c-0.3,0.1-0.6,0.2-0.7,0.2h-0.2v-1.3    c0.2,0,0.5-0.1,0.9-0.2c0.4-0.1,0.8-0.1,1.3-0.1c1,0,1.7,0.2,2.2,0.5c0.4,0.3,0.7,0.8,0.7,1.4v3.7h-1.7V420.7z M432.1,419.9v-1.1    c-0.2,0-0.5,0-0.8,0.1c-0.3,0-0.5,0.1-0.6,0.1c-0.2,0.1-0.3,0.1-0.4,0.2c-0.1,0.1-0.1,0.2-0.1,0.4c0,0.1,0,0.2,0,0.3    c0,0.1,0.1,0.1,0.1,0.2c0.1,0.1,0.2,0.1,0.3,0.1c0.1,0,0.3,0,0.5,0c0.2,0,0.4,0,0.5-0.1C431.8,420.1,432,420,432.1,419.9z"/> 		<path style="fill:#1A171B;" d="M440.8,420.7c0,0.5-0.1,0.9-0.2,1.3s-0.4,0.6-0.6,0.8c-0.3,0.2-0.6,0.3-1,0.4    c-0.4,0.1-0.8,0.1-1.3,0.1c-0.4,0-0.8,0-1.1-0.1c-0.4,0-0.7-0.1-1-0.2v-1.4h0.2c0.2,0.1,0.5,0.2,0.8,0.2c0.3,0.1,0.6,0.1,0.8,0.1    c0.3,0,0.6,0,0.8-0.1c0.2-0.1,0.4-0.1,0.5-0.3c0.1-0.1,0.2-0.2,0.2-0.4c0-0.2,0.1-0.4,0.1-0.6v-0.1c-0.2,0.2-0.4,0.3-0.7,0.4    s-0.5,0.2-0.9,0.2c-0.8,0-1.4-0.2-1.8-0.7s-0.6-1.2-0.6-2.1c0-0.5,0.1-0.8,0.2-1.2s0.3-0.6,0.5-0.9c0.2-0.2,0.5-0.4,0.8-0.5    c0.3-0.1,0.6-0.2,1-0.2c0.3,0,0.6,0,0.8,0.1c0.2,0.1,0.5,0.2,0.7,0.3l0.1-0.2h1.7V420.7z M439,419.6v-2.5c-0.1,0-0.2-0.1-0.4-0.1    c-0.1,0-0.3,0-0.4,0c-0.5,0-0.8,0.1-1,0.4c-0.2,0.3-0.3,0.6-0.3,1.1c0,0.5,0.1,0.9,0.3,1.1s0.5,0.3,0.9,0.3c0.2,0,0.3,0,0.5-0.1    S438.9,419.7,439,419.6z"/> 		<path style="fill:#1A171B;" d="M448.1,418.6c0,0.9-0.3,1.6-0.8,2.1c-0.5,0.5-1.3,0.8-2.2,0.8s-1.7-0.3-2.2-0.8    c-0.5-0.5-0.8-1.2-0.8-2.1c0-0.9,0.3-1.6,0.8-2.1c0.5-0.5,1.3-0.8,2.2-0.8c1,0,1.7,0.3,2.2,0.8C447.8,417,448.1,417.7,448.1,418.6    z M445.9,419.9c0.1-0.1,0.2-0.3,0.3-0.5c0.1-0.2,0.1-0.5,0.1-0.8c0-0.3,0-0.6-0.1-0.8s-0.1-0.4-0.2-0.5c-0.1-0.1-0.2-0.2-0.4-0.3    s-0.3-0.1-0.5-0.1s-0.3,0-0.5,0.1c-0.1,0-0.3,0.1-0.4,0.3c-0.1,0.1-0.2,0.3-0.3,0.5c-0.1,0.2-0.1,0.5-0.1,0.8c0,0.3,0,0.6,0.1,0.8    c0.1,0.2,0.1,0.4,0.2,0.5c0.1,0.1,0.2,0.2,0.4,0.3c0.1,0.1,0.3,0.1,0.5,0.1c0.2,0,0.3,0,0.5-0.1    C445.7,420.1,445.8,420,445.9,419.9z"/> 	</g> 	<g> 		<rect x="356" y="359.3" style="fill-rule:evenodd;clip-rule:evenodd;fill:none;" width="86.6" height="11"/> 		<path style="fill:#1A171B;" d="M364,367.8h-1.8l-3.1-5v5h-1.7v-7.3h2.2l2.7,4.2v-4.2h1.7V367.8z"/> 		<path style="fill:#1A171B;" d="M371.4,365.1c0,0.9-0.3,1.6-0.8,2.1c-0.5,0.5-1.3,0.8-2.2,0.8s-1.7-0.3-2.2-0.8    c-0.5-0.5-0.8-1.2-0.8-2.1c0-0.9,0.3-1.6,0.8-2.1c0.5-0.5,1.3-0.8,2.2-0.8c1,0,1.7,0.3,2.2,0.8    C371.1,363.5,371.4,364.2,371.4,365.1z M369.2,366.4c0.1-0.1,0.2-0.3,0.3-0.5c0.1-0.2,0.1-0.5,0.1-0.8c0-0.3,0-0.6-0.1-0.8    s-0.1-0.4-0.2-0.5c-0.1-0.1-0.2-0.2-0.4-0.3s-0.3-0.1-0.5-0.1s-0.3,0-0.5,0.1c-0.1,0-0.3,0.1-0.4,0.3c-0.1,0.1-0.2,0.3-0.3,0.5    c-0.1,0.2-0.1,0.5-0.1,0.8c0,0.3,0,0.6,0.1,0.8c0.1,0.2,0.1,0.4,0.2,0.5c0.1,0.1,0.2,0.2,0.4,0.3c0.1,0.1,0.3,0.1,0.5,0.1    c0.2,0,0.3,0,0.5-0.1C369,366.6,369.1,366.5,369.2,366.4z"/> 		<path style="fill:#1A171B;" d="M374.4,361.5h-1.9v-1.3h1.9V361.5z M374.4,367.8h-1.8v-5.5h1.8V367.8z"/> 		<path style="fill:#1A171B;" d="M379.4,367.2c-0.1,0.1-0.2,0.2-0.4,0.3s-0.3,0.2-0.4,0.2c-0.2,0.1-0.4,0.1-0.5,0.2    c-0.2,0-0.4,0.1-0.6,0.1c-0.5,0-1-0.2-1.3-0.5s-0.5-0.7-0.5-1.2c0-0.4,0.1-0.7,0.3-1s0.4-0.5,0.8-0.6c0.3-0.1,0.7-0.3,1.2-0.3    s1-0.1,1.5-0.1v0c0-0.3-0.1-0.5-0.4-0.6c-0.2-0.1-0.6-0.2-1.1-0.2c-0.3,0-0.6,0.1-0.9,0.2c-0.3,0.1-0.6,0.2-0.7,0.2h-0.2v-1.3    c0.2,0,0.5-0.1,0.9-0.2c0.4-0.1,0.8-0.1,1.3-0.1c1,0,1.7,0.2,2.2,0.5c0.4,0.3,0.7,0.8,0.7,1.4v3.7h-1.7V367.2z M379.4,366.4v-1.1    c-0.2,0-0.5,0-0.8,0.1c-0.3,0-0.5,0.1-0.6,0.1c-0.2,0.1-0.3,0.1-0.4,0.2c-0.1,0.1-0.1,0.2-0.1,0.4c0,0.1,0,0.2,0,0.3    c0,0.1,0.1,0.1,0.1,0.2c0.1,0.1,0.2,0.1,0.3,0.1c0.1,0,0.3,0,0.5,0c0.2,0,0.4,0,0.5-0.1C379.1,366.6,379.2,366.5,379.4,366.4z"/> 		<path style="fill:#1A171B;" d="M384.9,365.9l-1.8,3.7h-1.1l1-3.7H384.9z"/> 		<path style="fill:#1A171B;" d="M396.6,367.8h-1.9l-0.5-1.5h-2.7l-0.5,1.5H389l2.7-7.3h2.2L396.6,367.8z M393.7,365l-0.9-2.6    l-0.9,2.6H393.7z"/> 		<path style="fill:#1A171B;" d="M407.3,365.6c0,0.4-0.1,0.7-0.2,0.9c-0.1,0.3-0.3,0.5-0.6,0.7c-0.3,0.2-0.6,0.4-0.9,0.5    c-0.3,0.1-0.8,0.1-1.3,0.1H401v-7.3h2.8c0.6,0,1,0,1.3,0.1c0.3,0,0.5,0.1,0.8,0.3c0.3,0.1,0.5,0.3,0.6,0.6    c0.1,0.2,0.2,0.5,0.2,0.8c0,0.4-0.1,0.7-0.3,0.9c-0.2,0.3-0.4,0.5-0.8,0.6v0c0.5,0.1,0.9,0.3,1.1,0.6    C407.1,364.7,407.3,365.1,407.3,365.6z M404.9,362.6c0-0.1,0-0.2-0.1-0.4c-0.1-0.1-0.2-0.2-0.3-0.3c-0.1-0.1-0.3-0.1-0.5-0.1    c-0.2,0-0.5,0-0.9,0h-0.2v1.5h0.3c0.3,0,0.5,0,0.8,0s0.4,0,0.5-0.1c0.2-0.1,0.3-0.2,0.3-0.3C404.8,362.9,404.9,362.8,404.9,362.6z     M405.3,365.6c0-0.2,0-0.4-0.1-0.5c-0.1-0.1-0.2-0.2-0.5-0.3c-0.1,0-0.3-0.1-0.6-0.1c-0.3,0-0.5,0-0.8,0h-0.4v1.8h0.1    c0.5,0,0.9,0,1.1,0s0.4,0,0.6-0.1c0.2-0.1,0.3-0.2,0.4-0.3C405.3,365.9,405.3,365.7,405.3,365.6z"/> 		<path style="fill:#1A171B;" d="M411.9,367.2c-0.1,0.1-0.2,0.2-0.4,0.3s-0.3,0.2-0.4,0.2c-0.2,0.1-0.4,0.1-0.5,0.2    c-0.2,0-0.4,0.1-0.6,0.1c-0.5,0-1-0.2-1.3-0.5s-0.5-0.7-0.5-1.2c0-0.4,0.1-0.7,0.3-1s0.4-0.5,0.8-0.6c0.3-0.1,0.7-0.3,1.2-0.3    s1-0.1,1.5-0.1v0c0-0.3-0.1-0.5-0.4-0.6c-0.2-0.1-0.6-0.2-1.1-0.2c-0.3,0-0.6,0.1-0.9,0.2c-0.3,0.1-0.6,0.2-0.7,0.2h-0.2v-1.3    c0.2,0,0.5-0.1,0.9-0.2c0.4-0.1,0.8-0.1,1.3-0.1c1,0,1.7,0.2,2.2,0.5c0.4,0.3,0.7,0.8,0.7,1.4v3.7h-1.7V367.2z M411.9,366.4v-1.1    c-0.2,0-0.5,0-0.8,0.1c-0.3,0-0.5,0.1-0.6,0.1c-0.2,0.1-0.3,0.1-0.4,0.2c-0.1,0.1-0.1,0.2-0.1,0.4c0,0.1,0,0.2,0,0.3    c0,0.1,0.1,0.1,0.1,0.2c0.1,0.1,0.2,0.1,0.3,0.1c0.1,0,0.3,0,0.5,0c0.2,0,0.4,0,0.5-0.1C411.6,366.6,411.7,366.5,411.9,366.4z"/> 		<path style="fill:#1A171B;" d="M419.2,364h-0.2c-0.1,0-0.2,0-0.4-0.1s-0.3,0-0.4,0c-0.3,0-0.5,0-0.7,0c-0.2,0-0.4,0.1-0.6,0.2v3.7    h-1.8v-5.5h1.8v0.8c0.4-0.3,0.7-0.6,1-0.7c0.3-0.1,0.5-0.2,0.8-0.2c0.1,0,0.1,0,0.2,0c0.1,0,0.1,0,0.2,0V364z"/> 		<path style="fill:#1A171B;" d="M423.1,368c-0.5,0-0.9-0.1-1.3-0.2c-0.4-0.1-0.7-0.3-1-0.5c-0.3-0.2-0.5-0.5-0.7-0.9    s-0.2-0.8-0.2-1.3c0-0.5,0.1-1,0.3-1.3c0.2-0.4,0.4-0.7,0.7-0.9c0.3-0.2,0.6-0.4,1-0.5s0.8-0.2,1.2-0.2c0.4,0,0.7,0,1,0.1    s0.6,0.2,0.9,0.3v1.5h-0.2c-0.1-0.1-0.2-0.1-0.2-0.2s-0.2-0.2-0.4-0.2c-0.1-0.1-0.3-0.1-0.4-0.2c-0.2,0-0.3-0.1-0.6-0.1    c-0.5,0-0.8,0.1-1.1,0.4c-0.3,0.3-0.4,0.7-0.4,1.2c0,0.5,0.1,0.9,0.4,1.2c0.3,0.3,0.6,0.4,1.1,0.4c0.2,0,0.4,0,0.6-0.1    c0.2-0.1,0.3-0.1,0.4-0.2c0.1-0.1,0.2-0.1,0.3-0.2c0.1-0.1,0.2-0.1,0.2-0.2h0.2v1.5c-0.3,0.1-0.6,0.2-0.9,0.3    C423.8,367.9,423.4,368,423.1,368z"/> 		<path style="fill:#1A171B;" d="M429.4,367.2c-0.1,0.1-0.2,0.2-0.4,0.3s-0.3,0.2-0.4,0.2c-0.2,0.1-0.4,0.1-0.5,0.2    c-0.2,0-0.4,0.1-0.6,0.1c-0.5,0-1-0.2-1.3-0.5s-0.5-0.7-0.5-1.2c0-0.4,0.1-0.7,0.3-1s0.4-0.5,0.8-0.6c0.3-0.1,0.7-0.3,1.2-0.3    s1-0.1,1.5-0.1v0c0-0.3-0.1-0.5-0.4-0.6c-0.2-0.1-0.6-0.2-1.1-0.2c-0.3,0-0.6,0.1-0.9,0.2c-0.3,0.1-0.6,0.2-0.7,0.2h-0.2v-1.3    c0.2,0,0.5-0.1,0.9-0.2c0.4-0.1,0.8-0.1,1.3-0.1c1,0,1.7,0.2,2.2,0.5c0.4,0.3,0.7,0.8,0.7,1.4v3.7h-1.7V367.2z M429.4,366.4v-1.1    c-0.2,0-0.5,0-0.8,0.1c-0.3,0-0.5,0.1-0.6,0.1c-0.2,0.1-0.3,0.1-0.4,0.2c-0.1,0.1-0.1,0.2-0.1,0.4c0,0.1,0,0.2,0,0.3    c0,0.1,0.1,0.1,0.1,0.2c0.1,0.1,0.2,0.1,0.3,0.1c0.1,0,0.3,0,0.5,0c0.2,0,0.4,0,0.5-0.1C429.1,366.6,429.3,366.5,429.4,366.4z"/> 		<path style="fill:#1A171B;" d="M434.5,367.8h-1.8v-7.6h1.8V367.8z"/> 		<path style="fill:#1A171B;" d="M439.5,367.2c-0.1,0.1-0.2,0.2-0.4,0.3s-0.3,0.2-0.4,0.2c-0.2,0.1-0.4,0.1-0.5,0.2    c-0.2,0-0.4,0.1-0.6,0.1c-0.5,0-1-0.2-1.3-0.5s-0.5-0.7-0.5-1.2c0-0.4,0.1-0.7,0.3-1s0.4-0.5,0.8-0.6c0.3-0.1,0.7-0.3,1.2-0.3    s1-0.1,1.5-0.1v0c0-0.3-0.1-0.5-0.4-0.6c-0.2-0.1-0.6-0.2-1.1-0.2c-0.3,0-0.6,0.1-0.9,0.2c-0.3,0.1-0.6,0.2-0.7,0.2h-0.2v-1.3    c0.2,0,0.5-0.1,0.9-0.2c0.4-0.1,0.8-0.1,1.3-0.1c1,0,1.7,0.2,2.2,0.5c0.4,0.3,0.7,0.8,0.7,1.4v3.7h-1.7V367.2z M439.5,366.4v-1.1    c-0.2,0-0.5,0-0.8,0.1c-0.3,0-0.5,0.1-0.6,0.1c-0.2,0.1-0.3,0.1-0.4,0.2c-0.1,0.1-0.1,0.2-0.1,0.4c0,0.1,0,0.2,0,0.3    c0,0.1,0.1,0.1,0.1,0.2c0.1,0.1,0.2,0.1,0.3,0.1c0.1,0,0.3,0,0.5,0c0.2,0,0.4,0,0.5-0.1C439.2,366.6,439.4,366.5,439.5,366.4z"/> 	</g> 	<g> 		<rect x="293.5" y="292.8" style="fill-rule:evenodd;clip-rule:evenodd;fill:none;" width="76.2" height="11"/> 		<path style="fill:#1A171B;" d="M302.6,301.3h-1.9v-4.9l-1.3,3.2h-1.3l-1.3-3.2v4.9H295V294h2.2l1.6,3.6l1.6-3.6h2.2V301.3z"/> 		<path style="fill:#1A171B;" d="M309.8,301.3h-1.8v-0.6c-0.3,0.2-0.6,0.4-0.9,0.6c-0.3,0.1-0.6,0.2-1,0.2c-0.6,0-1.1-0.2-1.4-0.5    c-0.3-0.3-0.5-0.9-0.5-1.5v-3.6h1.8v2.7c0,0.3,0,0.5,0,0.7c0,0.2,0.1,0.3,0.1,0.5c0.1,0.1,0.2,0.2,0.3,0.3    c0.1,0.1,0.3,0.1,0.5,0.1c0.1,0,0.3,0,0.5-0.1s0.4-0.1,0.5-0.2v-3.9h1.8V301.3z"/> 		<path style="fill:#1A171B;" d="M315.5,297.5h-0.2c-0.1,0-0.2,0-0.4-0.1s-0.3,0-0.4,0c-0.3,0-0.5,0-0.7,0c-0.2,0-0.4,0.1-0.6,0.2    v3.7h-1.8v-5.5h1.8v0.8c0.4-0.3,0.7-0.6,1-0.7c0.3-0.1,0.5-0.2,0.8-0.2c0.1,0,0.1,0,0.2,0c0.1,0,0.1,0,0.2,0V297.5z"/> 		<path style="fill:#1A171B;" d="M322.1,298.6c0,0.9-0.3,1.6-0.8,2.1c-0.5,0.5-1.3,0.8-2.2,0.8s-1.7-0.3-2.2-0.8    c-0.5-0.5-0.8-1.2-0.8-2.1c0-0.9,0.3-1.6,0.8-2.1c0.5-0.5,1.3-0.8,2.2-0.8c1,0,1.7,0.3,2.2,0.8    C321.8,296.9,322.1,297.7,322.1,298.6z M319.9,299.9c0.1-0.1,0.2-0.3,0.3-0.5c0.1-0.2,0.1-0.5,0.1-0.8c0-0.3,0-0.6-0.1-0.8    s-0.1-0.4-0.2-0.5c-0.1-0.1-0.2-0.2-0.4-0.3s-0.3-0.1-0.5-0.1s-0.3,0-0.5,0.1c-0.1,0-0.3,0.1-0.4,0.3c-0.1,0.1-0.2,0.3-0.3,0.5    c-0.1,0.2-0.1,0.5-0.1,0.8c0,0.3,0,0.6,0.1,0.8c0.1,0.2,0.1,0.4,0.2,0.5c0.1,0.1,0.2,0.2,0.4,0.3c0.1,0.1,0.3,0.1,0.5,0.1    c0.2,0,0.3,0,0.5-0.1C319.7,300.1,319.8,300,319.9,299.9z"/> 		<path style="fill:#1A171B;" d="M328.1,299.6c0,0.6-0.3,1-0.8,1.4c-0.5,0.3-1.2,0.5-2.1,0.5c-0.5,0-0.9,0-1.3-0.1s-0.7-0.2-1-0.3    v-1.4h0.2c0.1,0.1,0.2,0.1,0.3,0.2c0.1,0.1,0.3,0.2,0.5,0.2c0.2,0.1,0.4,0.1,0.6,0.2c0.2,0.1,0.5,0.1,0.7,0.1c0.3,0,0.6,0,0.8-0.1    c0.2-0.1,0.2-0.2,0.2-0.3c0-0.1,0-0.2-0.1-0.3c-0.1-0.1-0.3-0.1-0.6-0.2c-0.1,0-0.3-0.1-0.5-0.1c-0.2,0-0.4-0.1-0.6-0.1    c-0.5-0.1-0.9-0.3-1.1-0.6c-0.2-0.3-0.4-0.6-0.4-1c0-0.5,0.3-1,0.8-1.3c0.5-0.3,1.2-0.5,2-0.5c0.4,0,0.8,0,1.2,0.1    c0.4,0.1,0.7,0.2,0.9,0.3v1.4h-0.2c-0.3-0.2-0.6-0.3-0.9-0.4c-0.3-0.1-0.7-0.2-1-0.2c-0.3,0-0.5,0-0.7,0.1    c-0.2,0.1-0.3,0.2-0.3,0.3c0,0.1,0,0.2,0.1,0.3s0.3,0.1,0.6,0.2c0.2,0,0.4,0.1,0.6,0.1c0.2,0,0.4,0.1,0.6,0.1    c0.5,0.1,0.8,0.3,1,0.6C328,298.9,328.1,299.2,328.1,299.6z"/> 		<path style="fill:#1A171B;" d="M331.4,299.4l-1.8,3.7h-1.1l1-3.7H331.4z"/> 		<path style="fill:#1A171B;" d="M343,301.3h-2.2l-1.6-2.4l-1.6,2.4h-2.1l2.6-3.7l-2.5-3.6h2.2l1.5,2.3l1.6-2.3h2.1l-2.5,3.5    L343,301.3z"/> 		<path style="fill:#1A171B;" d="M347.2,300.7c-0.1,0.1-0.2,0.2-0.4,0.3s-0.3,0.2-0.4,0.2c-0.2,0.1-0.4,0.1-0.5,0.2    c-0.2,0-0.4,0.1-0.6,0.1c-0.5,0-1-0.2-1.3-0.5s-0.5-0.7-0.5-1.2c0-0.4,0.1-0.7,0.3-1s0.4-0.5,0.8-0.6c0.3-0.1,0.7-0.3,1.2-0.3    s1-0.1,1.5-0.1v0c0-0.3-0.1-0.5-0.4-0.6c-0.2-0.1-0.6-0.2-1.1-0.2c-0.3,0-0.6,0.1-0.9,0.2c-0.3,0.1-0.6,0.2-0.7,0.2H344v-1.3    c0.2,0,0.5-0.1,0.9-0.2c0.4-0.1,0.8-0.1,1.3-0.1c1,0,1.7,0.2,2.2,0.5c0.4,0.3,0.7,0.8,0.7,1.4v3.7h-1.7V300.7z M347.2,299.9v-1.1    c-0.2,0-0.5,0-0.8,0.1c-0.3,0-0.5,0.1-0.6,0.1c-0.2,0.1-0.3,0.1-0.4,0.2c-0.1,0.1-0.1,0.2-0.1,0.4c0,0.1,0,0.2,0,0.3    c0,0.1,0.1,0.1,0.1,0.2c0.1,0.1,0.2,0.1,0.3,0.1c0.1,0,0.3,0,0.5,0c0.2,0,0.4,0,0.5-0.1C346.9,300.1,347.1,300,347.2,299.9z"/> 		<path style="fill:#1A171B;" d="M352.4,301.3h-1.8v-7.6h1.8V301.3z"/> 		<path style="fill:#1A171B;" d="M355.8,301.3H354v-7.6h1.8V301.3z"/> 		<path style="fill:#1A171B;" d="M360.8,300.7c-0.1,0.1-0.2,0.2-0.4,0.3s-0.3,0.2-0.4,0.2c-0.2,0.1-0.4,0.1-0.5,0.2    c-0.2,0-0.4,0.1-0.6,0.1c-0.5,0-1-0.2-1.3-0.5s-0.5-0.7-0.5-1.2c0-0.4,0.1-0.7,0.3-1s0.4-0.5,0.8-0.6c0.3-0.1,0.7-0.3,1.2-0.3    s1-0.1,1.5-0.1v0c0-0.3-0.1-0.5-0.4-0.6c-0.2-0.1-0.6-0.2-1.1-0.2c-0.3,0-0.6,0.1-0.9,0.2c-0.3,0.1-0.6,0.2-0.7,0.2h-0.2v-1.3    c0.2,0,0.5-0.1,0.9-0.2c0.4-0.1,0.8-0.1,1.3-0.1c1,0,1.7,0.2,2.2,0.5c0.4,0.3,0.7,0.8,0.7,1.4v3.7h-1.7V300.7z M360.8,299.9v-1.1    c-0.2,0-0.5,0-0.8,0.1c-0.3,0-0.5,0.1-0.6,0.1c-0.2,0.1-0.3,0.1-0.4,0.2c-0.1,0.1-0.1,0.2-0.1,0.4c0,0.1,0,0.2,0,0.3    c0,0.1,0.1,0.1,0.1,0.2c0.1,0.1,0.2,0.1,0.3,0.1c0.1,0,0.3,0,0.5,0c0.2,0,0.4,0,0.5-0.1C360.5,300.1,360.6,300,360.8,299.9z"/> 		<path style="fill:#1A171B;" d="M368.9,299.6c0,0.6-0.3,1-0.8,1.4c-0.5,0.3-1.2,0.5-2.1,0.5c-0.5,0-0.9,0-1.3-0.1s-0.7-0.2-1-0.3    v-1.4h0.2c0.1,0.1,0.2,0.1,0.3,0.2c0.1,0.1,0.3,0.2,0.5,0.2c0.2,0.1,0.4,0.1,0.6,0.2c0.2,0.1,0.5,0.1,0.7,0.1c0.3,0,0.6,0,0.8-0.1    c0.2-0.1,0.2-0.2,0.2-0.3c0-0.1,0-0.2-0.1-0.3c-0.1-0.1-0.3-0.1-0.6-0.2c-0.1,0-0.3-0.1-0.5-0.1c-0.2,0-0.4-0.1-0.6-0.1    c-0.5-0.1-0.9-0.3-1.1-0.6c-0.2-0.3-0.4-0.6-0.4-1c0-0.5,0.3-1,0.7-1.3c0.5-0.3,1.2-0.5,2-0.5c0.4,0,0.8,0,1.2,0.1    c0.4,0.1,0.7,0.2,0.9,0.3v1.4h-0.2c-0.3-0.2-0.6-0.3-0.9-0.4c-0.3-0.1-0.7-0.2-1-0.2c-0.3,0-0.5,0-0.7,0.1    c-0.2,0.1-0.3,0.2-0.3,0.3c0,0.1,0,0.2,0.1,0.3s0.3,0.1,0.6,0.2c0.2,0,0.4,0.1,0.6,0.1c0.2,0,0.4,0.1,0.6,0.1    c0.5,0.1,0.8,0.3,1,0.6C368.8,298.9,368.9,299.2,368.9,299.6z"/> 	</g> 	<g> 		<rect x="348.9" y="35.8" style="fill-rule:evenodd;clip-rule:evenodd;fill:none;" width="69" height="11"/> 		<path style="fill:#1A171B;" d="M356.6,42c0,0.4-0.1,0.7-0.2,0.9c-0.1,0.3-0.3,0.5-0.6,0.7c-0.3,0.2-0.6,0.4-0.9,0.5    c-0.3,0.1-0.8,0.1-1.3,0.1h-3.2V37h2.8c0.6,0,1,0,1.3,0.1c0.3,0,0.5,0.1,0.8,0.3c0.3,0.1,0.5,0.3,0.6,0.6c0.1,0.2,0.2,0.5,0.2,0.8    c0,0.4-0.1,0.7-0.3,0.9s-0.4,0.5-0.8,0.6v0c0.5,0.1,0.9,0.3,1.1,0.6C356.4,41.2,356.6,41.6,356.6,42z M354.2,39.1    c0-0.1,0-0.2-0.1-0.4c-0.1-0.1-0.2-0.2-0.3-0.3c-0.1-0.1-0.3-0.1-0.5-0.1c-0.2,0-0.5,0-0.9,0h-0.2v1.5h0.3c0.3,0,0.5,0,0.8,0    s0.4,0,0.5-0.1c0.2-0.1,0.3-0.2,0.3-0.3S354.2,39.2,354.2,39.1z M354.6,42c0-0.2,0-0.4-0.1-0.5c-0.1-0.1-0.2-0.2-0.5-0.3    c-0.1,0-0.3-0.1-0.6-0.1c-0.3,0-0.5,0-0.8,0h-0.4v1.8h0.1c0.5,0,0.9,0,1.1,0s0.4,0,0.6-0.1c0.2-0.1,0.3-0.2,0.4-0.3    S354.6,42.2,354.6,42z"/> 		<path style="fill:#1A171B;" d="M363.3,41.9h-4c0,0.4,0.2,0.8,0.5,1c0.3,0.2,0.7,0.3,1.3,0.3c0.4,0,0.7-0.1,1.1-0.2    s0.6-0.3,0.8-0.4h0.2V44c-0.4,0.2-0.8,0.3-1.1,0.3s-0.7,0.1-1.2,0.1c-1.1,0-1.9-0.2-2.5-0.7s-0.9-1.2-0.9-2.1    c0-0.9,0.3-1.6,0.8-2.2c0.6-0.5,1.3-0.8,2.3-0.8c0.9,0,1.6,0.2,2,0.7s0.7,1.1,0.7,1.9V41.9z M361.5,40.8c0-0.4-0.1-0.6-0.3-0.8    s-0.4-0.3-0.8-0.3c-0.3,0-0.6,0.1-0.8,0.3s-0.3,0.5-0.4,0.8H361.5z"/> 		<path style="fill:#1A171B;" d="M368.5,40.5h-0.2c-0.1,0-0.2,0-0.4-0.1s-0.3,0-0.4,0c-0.3,0-0.5,0-0.7,0c-0.2,0-0.4,0.1-0.6,0.2    v3.7h-1.8v-5.5h1.8v0.8c0.4-0.3,0.7-0.6,1-0.7c0.3-0.1,0.5-0.2,0.8-0.2c0.1,0,0.1,0,0.2,0c0.1,0,0.1,0,0.2,0V40.5z"/> 		<path style="fill:#1A171B;" d="M374.8,43.6c0,0.5-0.1,0.9-0.2,1.3s-0.4,0.6-0.6,0.8c-0.3,0.2-0.6,0.3-1,0.4    c-0.4,0.1-0.8,0.1-1.3,0.1c-0.4,0-0.8,0-1.1-0.1c-0.4,0-0.7-0.1-1-0.2v-1.4h0.2c0.2,0.1,0.5,0.2,0.8,0.2c0.3,0.1,0.6,0.1,0.8,0.1    c0.3,0,0.6,0,0.8-0.1s0.4-0.1,0.5-0.3c0.1-0.1,0.2-0.2,0.2-0.4c0-0.2,0.1-0.4,0.1-0.6v-0.1c-0.2,0.2-0.4,0.3-0.7,0.4    s-0.5,0.2-0.9,0.2c-0.8,0-1.4-0.2-1.8-0.7s-0.6-1.2-0.6-2.1c0-0.5,0.1-0.8,0.2-1.2s0.3-0.6,0.5-0.9c0.2-0.2,0.5-0.4,0.8-0.5    c0.3-0.1,0.6-0.2,1-0.2c0.3,0,0.6,0,0.8,0.1s0.5,0.2,0.7,0.3l0.1-0.2h1.7V43.6z M373.1,42.5v-2.5c-0.1,0-0.2-0.1-0.4-0.1    c-0.1,0-0.3,0-0.4,0c-0.5,0-0.8,0.1-1,0.4s-0.3,0.6-0.3,1.1c0,0.5,0.1,0.9,0.3,1.1s0.5,0.3,0.9,0.3c0.2,0,0.3,0,0.5-0.1    S372.9,42.6,373.1,42.5z"/> 		<path style="fill:#1A171B;" d="M379.8,43.7c-0.1,0.1-0.2,0.2-0.4,0.3s-0.3,0.2-0.4,0.2c-0.2,0.1-0.4,0.1-0.5,0.2s-0.4,0.1-0.6,0.1    c-0.5,0-1-0.2-1.3-0.5s-0.5-0.7-0.5-1.2c0-0.4,0.1-0.7,0.3-1s0.4-0.5,0.8-0.6c0.3-0.1,0.7-0.3,1.2-0.3s1-0.1,1.5-0.1v0    c0-0.3-0.1-0.5-0.4-0.6s-0.6-0.2-1.1-0.2c-0.3,0-0.6,0.1-0.9,0.2s-0.6,0.2-0.7,0.2h-0.2v-1.3c0.2,0,0.5-0.1,0.9-0.2    c0.4-0.1,0.8-0.1,1.3-0.1c1,0,1.7,0.2,2.2,0.5c0.4,0.3,0.7,0.8,0.7,1.4v3.7h-1.7V43.7z M379.8,42.8v-1.1c-0.2,0-0.5,0-0.8,0.1    c-0.3,0-0.5,0.1-0.6,0.1c-0.2,0.1-0.3,0.1-0.4,0.2c-0.1,0.1-0.1,0.2-0.1,0.4c0,0.1,0,0.2,0,0.3c0,0.1,0.1,0.1,0.1,0.2    c0.1,0.1,0.2,0.1,0.3,0.1s0.3,0,0.5,0c0.2,0,0.4,0,0.5-0.1C379.5,43.1,379.7,43,379.8,42.8z"/> 		<path style="fill:#1A171B;" d="M388.7,44.3h-1.8v-2.7c0-0.2,0-0.4,0-0.7s-0.1-0.4-0.1-0.5c-0.1-0.1-0.2-0.2-0.3-0.3    c-0.1-0.1-0.3-0.1-0.5-0.1c-0.2,0-0.3,0-0.5,0.1c-0.2,0.1-0.3,0.1-0.5,0.2v3.9h-1.8v-5.5h1.8v0.6c0.3-0.2,0.6-0.4,0.9-0.6    c0.3-0.1,0.6-0.2,1-0.2c0.6,0,1.1,0.2,1.4,0.5s0.5,0.9,0.5,1.5V44.3z"/> 		<path style="fill:#1A171B;" d="M393.8,44.2c-0.2,0-0.4,0.1-0.6,0.1c-0.2,0-0.5,0-0.8,0c-0.7,0-1.2-0.1-1.5-0.4    c-0.3-0.3-0.5-0.8-0.5-1.4V40h-0.7v-1.2h0.7v-1.6h1.8v1.6h1.6V40h-1.6v1.9c0,0.2,0,0.4,0,0.5c0,0.1,0,0.3,0.1,0.4    c0,0.1,0.1,0.2,0.2,0.3c0.1,0.1,0.3,0.1,0.5,0.1c0.1,0,0.2,0,0.4-0.1s0.3-0.1,0.3-0.1h0.1V44.2z"/> 		<path style="fill:#1A171B;" d="M396.7,38h-1.9v-1.3h1.9V38z M396.6,44.3h-1.8v-5.5h1.8V44.3z"/> 		<path style="fill:#1A171B;" d="M403.8,44.3H402v-2.7c0-0.2,0-0.4,0-0.7s-0.1-0.4-0.1-0.5c-0.1-0.1-0.2-0.2-0.3-0.3    c-0.1-0.1-0.3-0.1-0.5-0.1c-0.2,0-0.3,0-0.5,0.1c-0.2,0.1-0.3,0.1-0.5,0.2v3.9h-1.8v-5.5h1.8v0.6c0.3-0.2,0.6-0.4,0.9-0.6    c0.3-0.1,0.6-0.2,1-0.2c0.6,0,1.1,0.2,1.4,0.5s0.5,0.9,0.5,1.5V44.3z M403.2,36.4c0,0.6-0.2,1-0.4,1.2c-0.2,0.3-0.6,0.4-1,0.4    c-0.2,0-0.3,0-0.4-0.1c-0.1-0.1-0.3-0.1-0.4-0.2c-0.1-0.1-0.2-0.1-0.3-0.2c-0.1-0.1-0.2-0.1-0.3-0.1c-0.2,0-0.3,0.1-0.3,0.2    c-0.1,0.1-0.1,0.3-0.1,0.4h-1.1c0-0.5,0.2-0.9,0.4-1.2c0.3-0.3,0.6-0.4,1-0.4c0.2,0,0.3,0,0.4,0.1s0.3,0.1,0.4,0.2    c0.1,0.1,0.2,0.1,0.3,0.2s0.2,0.1,0.3,0.1c0.2,0,0.3-0.1,0.3-0.2s0.1-0.2,0.1-0.4H403.2z"/> 		<path style="fill:#1A171B;" d="M411,41.5c0,0.9-0.3,1.6-0.8,2.1c-0.5,0.5-1.3,0.8-2.2,0.8s-1.7-0.3-2.2-0.8    c-0.5-0.5-0.8-1.2-0.8-2.1c0-0.9,0.3-1.6,0.8-2.1c0.5-0.5,1.3-0.8,2.2-0.8c1,0,1.7,0.3,2.2,0.8C410.7,39.9,411,40.6,411,41.5z     M408.8,42.9c0.1-0.1,0.2-0.3,0.3-0.5c0.1-0.2,0.1-0.5,0.1-0.8c0-0.3,0-0.6-0.1-0.8s-0.1-0.4-0.2-0.5c-0.1-0.1-0.2-0.2-0.4-0.3    s-0.3-0.1-0.5-0.1s-0.3,0-0.5,0.1c-0.1,0-0.3,0.1-0.4,0.3c-0.1,0.1-0.2,0.3-0.3,0.5c-0.1,0.2-0.1,0.5-0.1,0.8c0,0.3,0,0.6,0.1,0.8    s0.1,0.4,0.2,0.5c0.1,0.1,0.2,0.2,0.4,0.3c0.1,0.1,0.3,0.1,0.5,0.1c0.2,0,0.3,0,0.5-0.1C408.6,43.1,408.7,43,408.8,42.9z"/> 		<path style="fill:#1A171B;" d="M417,42.5c0,0.6-0.3,1-0.8,1.4s-1.2,0.5-2.1,0.5c-0.5,0-0.9,0-1.3-0.1s-0.7-0.2-1-0.3v-1.4h0.2    c0.1,0.1,0.2,0.1,0.3,0.2c0.1,0.1,0.3,0.2,0.5,0.2c0.2,0.1,0.4,0.1,0.6,0.2s0.5,0.1,0.7,0.1c0.3,0,0.6,0,0.8-0.1s0.2-0.2,0.2-0.3    c0-0.1,0-0.2-0.1-0.3s-0.3-0.1-0.6-0.2c-0.1,0-0.3-0.1-0.5-0.1c-0.2,0-0.4-0.1-0.6-0.1c-0.5-0.1-0.9-0.3-1.1-0.6s-0.4-0.6-0.4-1    c0-0.5,0.3-1,0.8-1.3c0.5-0.4,1.2-0.5,2-0.5c0.4,0,0.8,0,1.2,0.1c0.4,0.1,0.7,0.2,0.9,0.3v1.4h-0.2c-0.3-0.2-0.6-0.3-0.9-0.4    c-0.3-0.1-0.7-0.2-1-0.2c-0.3,0-0.5,0-0.7,0.1c-0.2,0.1-0.3,0.2-0.3,0.3c0,0.1,0,0.2,0.1,0.3s0.3,0.1,0.6,0.2    c0.2,0,0.4,0.1,0.6,0.1c0.2,0,0.4,0.1,0.6,0.1c0.5,0.1,0.8,0.3,1,0.6S417,42.1,417,42.5z"/> 	</g> </g> <g id="text-municipis"> 	<g> 		<rect x="148.7" y="81.4" style="fill-rule:evenodd;clip-rule:evenodd;fill:none;" width="51.4" height="11"/> 		<path style="fill:#1A171B;" d="M154.9,89.3c-0.2,0.1-0.3,0.2-0.5,0.2c-0.1,0.1-0.3,0.1-0.5,0.2c-0.2,0.1-0.4,0.1-0.6,0.2    s-0.5,0.1-0.7,0.1c-0.5,0-1-0.1-1.4-0.2c-0.4-0.1-0.8-0.4-1.1-0.7c-0.3-0.3-0.5-0.7-0.7-1.2c-0.2-0.5-0.3-1-0.3-1.7    c0-0.6,0.1-1.1,0.2-1.6s0.4-0.9,0.7-1.2c0.3-0.3,0.6-0.6,1.1-0.7c0.4-0.2,0.9-0.2,1.4-0.2c0.4,0,0.7,0,1.1,0.1    c0.4,0.1,0.8,0.3,1.2,0.5v1.1h-0.1c-0.4-0.3-0.8-0.6-1.1-0.7s-0.8-0.2-1.2-0.2c-0.3,0-0.7,0.1-0.9,0.2s-0.5,0.3-0.7,0.6    c-0.2,0.2-0.4,0.6-0.5,0.9c-0.1,0.4-0.2,0.8-0.2,1.3c0,0.5,0.1,1,0.2,1.3c0.1,0.4,0.3,0.7,0.5,0.9c0.2,0.2,0.5,0.4,0.8,0.5    c0.3,0.1,0.6,0.2,0.9,0.2c0.4,0,0.9-0.1,1.2-0.2s0.7-0.4,1.1-0.7h0.1V89.3z"/> 		<path style="fill:#1A171B;" d="M160.1,89.9h-0.9v-0.6c-0.1,0.1-0.2,0.1-0.3,0.2s-0.3,0.2-0.4,0.2c-0.1,0.1-0.3,0.1-0.5,0.2    s-0.4,0.1-0.7,0.1c-0.5,0-0.9-0.2-1.2-0.5c-0.3-0.3-0.5-0.7-0.5-1.2c0-0.4,0.1-0.7,0.3-1s0.4-0.5,0.7-0.6c0.3-0.1,0.7-0.2,1.1-0.3    c0.4-0.1,0.9-0.1,1.4-0.1v-0.1c0-0.2,0-0.4-0.1-0.5c-0.1-0.1-0.2-0.2-0.3-0.3c-0.1-0.1-0.3-0.1-0.4-0.2c-0.2,0-0.4,0-0.5,0    c-0.2,0-0.5,0-0.8,0.1c-0.3,0.1-0.6,0.2-0.9,0.3h0v-0.9c0.2,0,0.4-0.1,0.7-0.2c0.3-0.1,0.6-0.1,0.9-0.1c0.4,0,0.7,0,0.9,0.1    s0.5,0.2,0.7,0.3c0.2,0.1,0.3,0.3,0.4,0.6s0.2,0.5,0.2,0.9V89.9z M159.3,88.5V87c-0.3,0-0.6,0-0.9,0.1s-0.6,0.1-0.9,0.1    c-0.2,0.1-0.5,0.2-0.6,0.3c-0.2,0.2-0.2,0.4-0.2,0.7c0,0.3,0.1,0.5,0.3,0.7s0.5,0.2,0.8,0.2c0.3,0,0.6-0.1,0.8-0.2    C158.8,88.8,159.1,88.7,159.3,88.5z"/> 		<path style="fill:#1A171B;" d="M169.3,89.9h-0.9v-3.1c0-0.2,0-0.5,0-0.7c0-0.2-0.1-0.4-0.1-0.5c-0.1-0.1-0.2-0.2-0.3-0.3    c-0.1-0.1-0.3-0.1-0.6-0.1c-0.2,0-0.5,0.1-0.7,0.2c-0.2,0.1-0.5,0.3-0.7,0.5c0,0.1,0,0.2,0,0.3c0,0.1,0,0.2,0,0.3v3.5h-0.9v-3.1    c0-0.2,0-0.5,0-0.7c0-0.2-0.1-0.4-0.1-0.5c-0.1-0.1-0.2-0.2-0.3-0.3c-0.1-0.1-0.3-0.1-0.6-0.1c-0.2,0-0.5,0.1-0.7,0.2    c-0.2,0.1-0.5,0.3-0.7,0.5v4.1h-0.9v-5.5h0.9V85c0.3-0.2,0.5-0.4,0.8-0.6c0.3-0.1,0.6-0.2,0.9-0.2c0.4,0,0.6,0.1,0.9,0.2    c0.2,0.2,0.4,0.4,0.5,0.6c0.4-0.3,0.7-0.5,1-0.7s0.6-0.2,0.9-0.2c0.6,0,1,0.2,1.3,0.5c0.3,0.4,0.4,0.9,0.4,1.5V89.9z"/> 		<path style="fill:#1A171B;" d="M175,89.9h-0.9v-0.6c-0.1,0.1-0.2,0.1-0.3,0.2s-0.3,0.2-0.4,0.2c-0.1,0.1-0.3,0.1-0.5,0.2    s-0.4,0.1-0.7,0.1c-0.5,0-0.9-0.2-1.2-0.5c-0.3-0.3-0.5-0.7-0.5-1.2c0-0.4,0.1-0.7,0.3-1s0.4-0.5,0.7-0.6c0.3-0.1,0.7-0.2,1.1-0.3    c0.4-0.1,0.9-0.1,1.4-0.1v-0.1c0-0.2,0-0.4-0.1-0.5c-0.1-0.1-0.2-0.2-0.3-0.3c-0.1-0.1-0.3-0.1-0.4-0.2c-0.2,0-0.4,0-0.5,0    c-0.2,0-0.5,0-0.8,0.1c-0.3,0.1-0.6,0.2-0.9,0.3h0v-0.9c0.2,0,0.4-0.1,0.7-0.2c0.3-0.1,0.6-0.1,0.9-0.1c0.4,0,0.7,0,0.9,0.1    s0.5,0.2,0.7,0.3c0.2,0.1,0.3,0.3,0.4,0.6s0.2,0.5,0.2,0.9V89.9z M174.2,88.5V87c-0.3,0-0.6,0-0.9,0.1s-0.6,0.1-0.9,0.1    c-0.2,0.1-0.5,0.2-0.6,0.3c-0.2,0.2-0.2,0.4-0.2,0.7c0,0.3,0.1,0.5,0.3,0.7s0.5,0.2,0.8,0.2c0.3,0,0.6-0.1,0.8-0.2    C173.7,88.8,173.9,88.7,174.2,88.5z"/> 		<path style="fill:#1A171B;" d="M179.9,85.4L179.9,85.4c-0.2,0-0.3-0.1-0.4-0.1c-0.1,0-0.3,0-0.4,0c-0.3,0-0.5,0.1-0.8,0.2    c-0.3,0.1-0.5,0.3-0.7,0.5v3.9h-0.9v-5.5h0.9v0.8c0.3-0.3,0.6-0.5,0.9-0.6c0.3-0.1,0.5-0.2,0.8-0.2c0.2,0,0.3,0,0.3,0    c0.1,0,0.2,0,0.3,0V85.4z"/> 		<path style="fill:#1A171B;" d="M181.7,83.5h-1v-1h1V83.5z M181.6,89.9h-0.9v-5.5h0.9V89.9z"/> 		<path style="fill:#1A171B;" d="M187.6,89.9h-0.9v-3.1c0-0.3,0-0.5,0-0.7c0-0.2-0.1-0.4-0.2-0.5c-0.1-0.1-0.2-0.2-0.3-0.3    s-0.3-0.1-0.6-0.1c-0.2,0-0.5,0.1-0.7,0.2c-0.3,0.1-0.5,0.3-0.7,0.5v4.1h-0.9v-5.5h0.9V85c0.3-0.2,0.6-0.4,0.8-0.6    s0.6-0.2,0.9-0.2c0.6,0,1,0.2,1.3,0.5c0.3,0.4,0.4,0.9,0.4,1.5V89.9z M187.4,82c0,0.5-0.2,0.9-0.4,1.1s-0.5,0.4-0.8,0.4    c-0.2,0-0.3,0-0.5-0.1s-0.3-0.2-0.4-0.3c-0.1-0.1-0.3-0.2-0.4-0.3s-0.2-0.1-0.3-0.1c-0.2,0-0.3,0.1-0.4,0.2s-0.1,0.3-0.1,0.6h-0.6    c0-0.5,0.1-0.9,0.4-1.1s0.5-0.4,0.8-0.4c0.2,0,0.3,0,0.4,0.1c0.1,0.1,0.3,0.2,0.4,0.3c0.1,0.1,0.3,0.2,0.4,0.3s0.2,0.1,0.3,0.1    c0.2,0,0.3-0.1,0.4-0.2s0.1-0.3,0.1-0.6H187.4z"/> 		<path style="fill:#1A171B;" d="M193.3,89.9h-0.9v-0.6c-0.1,0.1-0.2,0.1-0.3,0.2s-0.3,0.2-0.4,0.2c-0.1,0.1-0.3,0.1-0.5,0.2    s-0.4,0.1-0.7,0.1c-0.5,0-0.9-0.2-1.2-0.5c-0.3-0.3-0.5-0.7-0.5-1.2c0-0.4,0.1-0.7,0.3-1s0.4-0.5,0.7-0.6c0.3-0.1,0.7-0.2,1.1-0.3    c0.4-0.1,0.9-0.1,1.4-0.1v-0.1c0-0.2,0-0.4-0.1-0.5c-0.1-0.1-0.2-0.2-0.3-0.3c-0.1-0.1-0.3-0.1-0.4-0.2c-0.2,0-0.4,0-0.5,0    c-0.2,0-0.5,0-0.8,0.1c-0.3,0.1-0.6,0.2-0.9,0.3h0v-0.9c0.2,0,0.4-0.1,0.7-0.2c0.3-0.1,0.6-0.1,0.9-0.1c0.4,0,0.7,0,0.9,0.1    s0.5,0.2,0.7,0.3c0.2,0.1,0.3,0.3,0.4,0.6s0.2,0.5,0.2,0.9V89.9z M192.4,88.5V87c-0.3,0-0.6,0-0.9,0.1s-0.6,0.1-0.9,0.1    c-0.2,0.1-0.5,0.2-0.6,0.3c-0.2,0.2-0.2,0.4-0.2,0.7c0,0.3,0.1,0.5,0.3,0.7s0.5,0.2,0.8,0.2c0.3,0,0.6-0.1,0.8-0.2    C192,88.8,192.2,88.7,192.4,88.5z"/> 		<path style="fill:#1A171B;" d="M198.6,88.3c0,0.5-0.2,0.9-0.6,1.2c-0.4,0.3-0.9,0.5-1.6,0.5c-0.4,0-0.7,0-1-0.1s-0.6-0.2-0.8-0.3    v-1h0c0.3,0.2,0.6,0.4,0.9,0.5c0.3,0.1,0.7,0.2,1,0.2c0.4,0,0.7-0.1,0.9-0.2c0.2-0.1,0.3-0.3,0.3-0.6c0-0.2-0.1-0.4-0.2-0.5    s-0.3-0.2-0.7-0.3c-0.1,0-0.3-0.1-0.5-0.1c-0.2,0-0.4-0.1-0.5-0.1c-0.5-0.1-0.8-0.3-1-0.6s-0.3-0.5-0.3-0.9c0-0.2,0-0.4,0.1-0.6    s0.2-0.4,0.4-0.5c0.2-0.2,0.4-0.3,0.7-0.4c0.3-0.1,0.6-0.1,0.9-0.1c0.3,0,0.6,0,0.9,0.1s0.6,0.2,0.8,0.3v1h0    c-0.2-0.2-0.5-0.3-0.8-0.4c-0.3-0.1-0.6-0.2-0.9-0.2c-0.3,0-0.6,0.1-0.8,0.2s-0.3,0.3-0.3,0.6c0,0.2,0.1,0.4,0.2,0.5    c0.1,0.1,0.3,0.2,0.6,0.3c0.2,0,0.3,0.1,0.5,0.1s0.4,0.1,0.5,0.1c0.4,0.1,0.7,0.3,0.9,0.5C198.5,87.6,198.6,87.9,198.6,88.3z"/> 	</g> 	<g> 		<rect x="227.5" y="165.6" style="fill-rule:evenodd;clip-rule:evenodd;fill:none;" width="44.2" height="11"/> 		<path style="fill:#1A171B;" d="M233.9,166.8l-2.5,7.3h-1.2l-2.5-7.3h1l2.2,6.4l2.2-6.4H233.9z"/> 		<path style="fill:#1A171B;" d="M235.8,167.7h-1v-1h1V167.7z M235.7,174.1h-0.9v-5.5h0.9V174.1z"/> 		<path style="fill:#1A171B;" d="M244.9,174.1h-0.9v-3.1c0-0.2,0-0.5,0-0.7c0-0.2-0.1-0.4-0.1-0.5c-0.1-0.1-0.2-0.2-0.3-0.3    c-0.1-0.1-0.3-0.1-0.6-0.1c-0.2,0-0.5,0.1-0.7,0.2c-0.2,0.1-0.5,0.3-0.7,0.5c0,0.1,0,0.2,0,0.3c0,0.1,0,0.2,0,0.3v3.5h-0.9v-3.1    c0-0.2,0-0.5,0-0.7c0-0.2-0.1-0.4-0.1-0.5c-0.1-0.1-0.2-0.2-0.3-0.3c-0.1-0.1-0.3-0.1-0.6-0.1c-0.2,0-0.5,0.1-0.7,0.2    c-0.2,0.1-0.5,0.3-0.7,0.5v4.1h-0.9v-5.5h0.9v0.6c0.3-0.2,0.5-0.4,0.8-0.6c0.3-0.1,0.6-0.2,0.9-0.2c0.4,0,0.6,0.1,0.9,0.2    c0.2,0.2,0.4,0.4,0.5,0.6c0.4-0.3,0.7-0.5,1-0.7s0.6-0.2,0.9-0.2c0.6,0,1,0.2,1.3,0.5c0.3,0.4,0.4,0.9,0.4,1.5V174.1z"/> 		<path style="fill:#1A171B;" d="M247.5,167.7h-1v-1h1V167.7z M247.5,174.1h-0.9v-5.5h0.9V174.1z"/> 		<path style="fill:#1A171B;" d="M253.2,174.1h-0.9v-0.6c-0.1,0.1-0.2,0.1-0.3,0.2s-0.3,0.2-0.4,0.2c-0.1,0.1-0.3,0.1-0.5,0.2    s-0.4,0.1-0.7,0.1c-0.5,0-0.9-0.2-1.2-0.5c-0.3-0.3-0.5-0.7-0.5-1.2c0-0.4,0.1-0.7,0.3-1s0.4-0.5,0.7-0.6c0.3-0.1,0.7-0.2,1.1-0.3    c0.4-0.1,0.9-0.1,1.4-0.1v-0.1c0-0.2,0-0.4-0.1-0.5c-0.1-0.1-0.2-0.2-0.3-0.3c-0.1-0.1-0.3-0.1-0.4-0.2c-0.2,0-0.4,0-0.5,0    c-0.2,0-0.5,0-0.8,0.1c-0.3,0.1-0.6,0.2-0.9,0.3h0v-0.9c0.2,0,0.4-0.1,0.7-0.2c0.3-0.1,0.6-0.1,0.9-0.1c0.4,0,0.7,0,0.9,0.1    s0.5,0.2,0.7,0.3c0.2,0.1,0.3,0.3,0.4,0.6s0.2,0.5,0.2,0.9V174.1z M252.4,172.7v-1.5c-0.3,0-0.6,0-0.9,0.1s-0.6,0.1-0.9,0.1    c-0.2,0.1-0.5,0.2-0.6,0.3c-0.2,0.2-0.2,0.4-0.2,0.7c0,0.3,0.1,0.5,0.3,0.7s0.5,0.2,0.8,0.2c0.3,0,0.6-0.1,0.8-0.2    C251.9,173,252.1,172.9,252.4,172.7z"/> 		<path style="fill:#1A171B;" d="M259.2,174.1h-0.9v-3.1c0-0.3,0-0.5,0-0.7c0-0.2-0.1-0.4-0.2-0.5c-0.1-0.1-0.2-0.2-0.3-0.3    s-0.3-0.1-0.6-0.1c-0.2,0-0.5,0.1-0.7,0.2c-0.3,0.1-0.5,0.3-0.7,0.5v4.1h-0.9v-5.5h0.9v0.6c0.3-0.2,0.6-0.4,0.8-0.6    s0.6-0.2,0.9-0.2c0.6,0,1,0.2,1.3,0.5c0.3,0.4,0.4,0.9,0.4,1.5V174.1z"/> 		<path style="fill:#1A171B;" d="M264.6,174.1h-4.2v-0.7l3-4h-2.9v-0.8h4v0.7l-3,4h3.1V174.1z"/> 		<path style="fill:#1A171B;" d="M270.2,171.3c0,0.9-0.2,1.6-0.6,2.1s-1,0.8-1.7,0.8c-0.7,0-1.3-0.3-1.7-0.8s-0.6-1.2-0.6-2.1    s0.2-1.6,0.6-2.1s1-0.8,1.7-0.8c0.7,0,1.3,0.3,1.7,0.8S270.2,170.4,270.2,171.3z M269.3,171.3c0-0.7-0.1-1.2-0.4-1.6    s-0.6-0.5-1.1-0.5c-0.5,0-0.8,0.2-1.1,0.5s-0.4,0.9-0.4,1.6c0,0.7,0.1,1.2,0.4,1.6s0.6,0.5,1.1,0.5c0.5,0,0.8-0.2,1.1-0.5    C269.2,172.5,269.3,172,269.3,171.3z"/> 	</g> 	<g> 		<rect x="334.7" y="172.5" style="fill-rule:evenodd;clip-rule:evenodd;fill:none;" width="17.9" height="11"/> 		<path style="fill:#1A171B;" d="M340.6,181h-5.4v-0.9l4.2-5.5h-4.1v-0.9h5.1v0.9l-4.3,5.5h4.4V181z"/> 		<path style="fill:#1A171B;" d="M345.8,181h-0.9v-0.6c-0.1,0.1-0.2,0.1-0.3,0.2s-0.3,0.2-0.4,0.2c-0.1,0.1-0.3,0.1-0.5,0.2    s-0.4,0.1-0.7,0.1c-0.5,0-0.9-0.2-1.2-0.5c-0.3-0.3-0.5-0.7-0.5-1.2c0-0.4,0.1-0.7,0.3-1s0.4-0.5,0.7-0.6c0.3-0.1,0.7-0.2,1.1-0.3    c0.4-0.1,0.9-0.1,1.4-0.1v-0.1c0-0.2,0-0.4-0.1-0.5c-0.1-0.1-0.2-0.2-0.3-0.3c-0.1-0.1-0.3-0.1-0.4-0.2c-0.2,0-0.4,0-0.5,0    c-0.2,0-0.5,0-0.8,0.1c-0.3,0.1-0.6,0.2-0.9,0.3h0v-0.9c0.2,0,0.4-0.1,0.7-0.2c0.3-0.1,0.6-0.1,0.9-0.1c0.4,0,0.7,0,0.9,0.1    s0.5,0.2,0.7,0.3c0.2,0.1,0.3,0.3,0.4,0.6s0.2,0.5,0.2,0.9V181z M344.9,179.7v-1.5c-0.3,0-0.6,0-0.9,0.1s-0.6,0.1-0.9,0.1    c-0.2,0.1-0.5,0.2-0.6,0.3c-0.2,0.2-0.2,0.4-0.2,0.7c0,0.3,0.1,0.5,0.3,0.7s0.5,0.2,0.8,0.2c0.3,0,0.6-0.1,0.8-0.2    C344.5,180,344.7,179.8,344.9,179.7z"/> 		<path style="fill:#1A171B;" d="M351.2,179.4c0,0.5-0.2,0.9-0.6,1.2c-0.4,0.3-0.9,0.5-1.6,0.5c-0.4,0-0.7,0-1-0.1s-0.6-0.2-0.8-0.3    v-1h0c0.3,0.2,0.6,0.4,0.9,0.5c0.3,0.1,0.7,0.2,1,0.2c0.4,0,0.7-0.1,0.9-0.2c0.2-0.1,0.3-0.3,0.3-0.6c0-0.2-0.1-0.4-0.2-0.5    s-0.3-0.2-0.7-0.3c-0.1,0-0.3-0.1-0.5-0.1c-0.2,0-0.4-0.1-0.5-0.1c-0.5-0.1-0.8-0.3-1-0.6s-0.3-0.5-0.3-0.9c0-0.2,0-0.4,0.1-0.6    s0.2-0.4,0.4-0.5c0.2-0.2,0.4-0.3,0.7-0.4c0.3-0.1,0.6-0.1,0.9-0.1c0.3,0,0.6,0,0.9,0.1s0.6,0.2,0.8,0.3v1h0    c-0.2-0.2-0.5-0.3-0.8-0.4c-0.3-0.1-0.6-0.2-0.9-0.2c-0.3,0-0.6,0.1-0.8,0.2s-0.3,0.3-0.3,0.6c0,0.2,0.1,0.4,0.2,0.5    c0.1,0.1,0.3,0.2,0.6,0.3c0.2,0,0.3,0.1,0.5,0.1s0.4,0.1,0.5,0.1c0.4,0.1,0.7,0.3,0.9,0.5C351.1,178.7,351.2,179,351.2,179.4z"/> 	</g> 	<g> 		<rect x="117.9" y="197.5" style="fill-rule:evenodd;clip-rule:evenodd;fill:none;" width="28.9" height="11"/> 		<path style="fill:#1A171B;" d="M124.9,206H124v-6.3l-1.9,4.3h-0.5l-1.9-4.3v6.3h-0.9v-7.3h1.2l1.8,4l1.8-4h1.3V206z"/> 		<path style="fill:#1A171B;" d="M131,206h-0.9v-0.6c-0.3,0.2-0.6,0.4-0.8,0.6s-0.6,0.2-0.9,0.2c-0.5,0-1-0.2-1.3-0.5    c-0.3-0.4-0.5-0.9-0.5-1.5v-3.5h0.9v3.1c0,0.3,0,0.5,0,0.7c0,0.2,0.1,0.4,0.2,0.5c0.1,0.1,0.2,0.2,0.3,0.3    c0.1,0.1,0.3,0.1,0.6,0.1c0.2,0,0.5-0.1,0.7-0.2c0.3-0.1,0.5-0.3,0.7-0.5v-4.1h0.9V206z"/> 		<path style="fill:#1A171B;" d="M137.2,206h-1.1l-1.5-2.1l-1.5,2.1h-1l2-2.7l-2-2.7h1.1l1.5,2.1l1.5-2.1h1l-2,2.7L137.2,206z"/> 		<path style="fill:#1A171B;" d="M140.1,197.8l-1.3,1.8h-0.7l0.8-1.8H140.1z M139.2,206h-0.9v-5.5h0.9V206z"/> 		<path style="fill:#1A171B;" d="M144.9,206H144v-0.6c-0.1,0.1-0.2,0.1-0.3,0.2s-0.3,0.2-0.4,0.2c-0.1,0.1-0.3,0.1-0.5,0.2    s-0.4,0.1-0.7,0.1c-0.5,0-0.9-0.2-1.2-0.5c-0.3-0.3-0.5-0.7-0.5-1.2c0-0.4,0.1-0.7,0.3-1s0.4-0.5,0.7-0.6c0.3-0.1,0.7-0.2,1.1-0.3    c0.4-0.1,0.9-0.1,1.4-0.1v-0.1c0-0.2,0-0.4-0.1-0.5c-0.1-0.1-0.2-0.2-0.3-0.3c-0.1-0.1-0.3-0.1-0.4-0.2c-0.2,0-0.4,0-0.5,0    c-0.2,0-0.5,0-0.8,0.1c-0.3,0.1-0.6,0.2-0.9,0.3h0v-0.9c0.2,0,0.4-0.1,0.7-0.2c0.3-0.1,0.6-0.1,0.9-0.1c0.4,0,0.7,0,0.9,0.1    s0.5,0.2,0.7,0.3c0.2,0.1,0.3,0.3,0.4,0.6s0.2,0.5,0.2,0.9V206z M144,204.6v-1.5c-0.3,0-0.6,0-0.9,0.1s-0.6,0.1-0.9,0.1    c-0.2,0.1-0.5,0.2-0.6,0.3c-0.2,0.2-0.2,0.4-0.2,0.7c0,0.3,0.1,0.5,0.3,0.7s0.5,0.2,0.8,0.2c0.3,0,0.6-0.1,0.8-0.2    C143.6,205,143.8,204.8,144,204.6z"/> 	</g> 	<g> 		<rect x="190.8" y="277.8" style="fill-rule:evenodd;clip-rule:evenodd;fill:none;" width="41.7" height="11"/> 		<path style="fill:#1A171B;" d="M197.6,282.6c0,0.7-0.1,1.3-0.4,1.8s-0.6,1-1.1,1.3c-0.3,0.2-0.7,0.4-1,0.4    c-0.4,0.1-0.9,0.1-1.5,0.1h-1.7V279h1.7c0.7,0,1.2,0.1,1.6,0.2c0.4,0.1,0.7,0.2,1,0.4c0.5,0.3,0.8,0.7,1.1,1.2    C197.4,281.3,197.6,281.9,197.6,282.6z M196.6,282.6c0-0.6-0.1-1-0.3-1.4s-0.5-0.7-0.8-0.9c-0.3-0.2-0.6-0.3-0.9-0.3    c-0.3-0.1-0.7-0.1-1.1-0.1h-0.9v5.6h0.9c0.4,0,0.8,0,1.2-0.1c0.3-0.1,0.6-0.2,0.9-0.4c0.3-0.2,0.6-0.5,0.8-0.9    S196.6,283.2,196.6,282.6z"/> 		<path style="fill:#1A171B;" d="M203.3,286.3h-0.9v-0.6c-0.3,0.2-0.6,0.4-0.8,0.6s-0.6,0.2-0.9,0.2c-0.5,0-1-0.2-1.3-0.5    c-0.3-0.3-0.5-0.9-0.5-1.5v-3.5h0.9v3.1c0,0.3,0,0.5,0,0.7c0,0.2,0.1,0.4,0.2,0.5c0.1,0.1,0.2,0.2,0.3,0.3    c0.1,0.1,0.3,0.1,0.6,0.1c0.2,0,0.5-0.1,0.7-0.2c0.3-0.1,0.5-0.3,0.7-0.5v-4.1h0.9V286.3z"/> 		<path style="fill:#1A171B;" d="M212.5,286.3h-0.9v-3.1c0-0.2,0-0.5,0-0.7c0-0.2-0.1-0.4-0.1-0.5c-0.1-0.1-0.2-0.2-0.3-0.3    c-0.1-0.1-0.3-0.1-0.6-0.1c-0.2,0-0.5,0.1-0.7,0.2c-0.2,0.1-0.5,0.3-0.7,0.5c0,0.1,0,0.2,0,0.3c0,0.1,0,0.2,0,0.3v3.5h-0.9v-3.1    c0-0.2,0-0.5,0-0.7c0-0.2-0.1-0.4-0.1-0.5c-0.1-0.1-0.2-0.2-0.3-0.3c-0.1-0.1-0.3-0.1-0.6-0.1c-0.2,0-0.5,0.1-0.7,0.2    c-0.2,0.1-0.5,0.3-0.7,0.5v4.1H205v-5.5h0.9v0.6c0.3-0.2,0.5-0.4,0.8-0.6c0.3-0.1,0.6-0.2,0.9-0.2c0.4,0,0.6,0.1,0.9,0.2    c0.2,0.2,0.4,0.4,0.5,0.6c0.4-0.3,0.7-0.5,1-0.7c0.3-0.1,0.6-0.2,0.9-0.2c0.6,0,1,0.2,1.3,0.5c0.3,0.4,0.4,0.9,0.4,1.5V286.3z"/> 		<path style="fill:#1A171B;" d="M218.7,283.5c0,0.5-0.1,0.9-0.2,1.2c-0.1,0.4-0.3,0.7-0.5,0.9c-0.2,0.3-0.5,0.5-0.7,0.6    c-0.3,0.1-0.5,0.2-0.9,0.2c-0.3,0-0.5,0-0.8-0.1c-0.2-0.1-0.4-0.2-0.6-0.3l-0.1,0.3h-0.8v-7.6h0.9v2.7c0.2-0.2,0.5-0.4,0.8-0.5    c0.3-0.1,0.6-0.2,0.9-0.2c0.6,0,1.1,0.2,1.4,0.7C218.5,281.9,218.7,282.6,218.7,283.5z M217.8,283.5c0-0.7-0.1-1.1-0.3-1.5    c-0.2-0.3-0.5-0.5-1-0.5c-0.3,0-0.5,0.1-0.8,0.2c-0.3,0.1-0.5,0.3-0.7,0.4v3.1c0.2,0.1,0.5,0.2,0.6,0.2s0.4,0.1,0.6,0.1    c0.5,0,0.9-0.2,1.1-0.5C217.7,284.7,217.8,284.2,217.8,283.5z"/> 		<path style="fill:#1A171B;" d="M223.3,281.8L223.3,281.8c-0.2,0-0.3-0.1-0.4-0.1c-0.1,0-0.3,0-0.4,0c-0.3,0-0.5,0.1-0.8,0.2    c-0.3,0.1-0.5,0.3-0.7,0.5v3.9H220v-5.5h0.9v0.8c0.3-0.3,0.6-0.5,0.9-0.6c0.3-0.1,0.5-0.2,0.8-0.2c0.2,0,0.3,0,0.3,0    c0.1,0,0.2,0,0.3,0V281.8z"/> 		<path style="fill:#1A171B;" d="M225.9,278.1l-1.3,1.8H224l0.8-1.8H225.9z M225,286.3h-0.9v-5.5h0.9V286.3z"/> 		<path style="fill:#1A171B;" d="M230.7,286.3h-0.9v-0.6c-0.1,0.1-0.2,0.1-0.3,0.2c-0.1,0.1-0.3,0.2-0.4,0.2    c-0.1,0.1-0.3,0.1-0.5,0.2c-0.2,0.1-0.4,0.1-0.7,0.1c-0.5,0-0.9-0.2-1.2-0.5c-0.3-0.3-0.5-0.7-0.5-1.2c0-0.4,0.1-0.7,0.3-1    c0.2-0.3,0.4-0.5,0.7-0.6c0.3-0.1,0.7-0.2,1.1-0.3c0.4-0.1,0.9-0.1,1.4-0.1v-0.1c0-0.2,0-0.4-0.1-0.5c-0.1-0.1-0.2-0.2-0.3-0.3    c-0.1-0.1-0.3-0.1-0.4-0.2c-0.2,0-0.4,0-0.5,0c-0.2,0-0.5,0-0.8,0.1c-0.3,0.1-0.6,0.2-0.9,0.3h0v-0.9c0.2,0,0.4-0.1,0.7-0.2    c0.3-0.1,0.6-0.1,0.9-0.1c0.4,0,0.7,0,0.9,0.1c0.3,0.1,0.5,0.2,0.7,0.3c0.2,0.1,0.3,0.3,0.4,0.6s0.2,0.5,0.2,0.9V286.3z     M229.8,284.9v-1.5c-0.3,0-0.6,0-0.9,0.1s-0.6,0.1-0.9,0.1c-0.2,0.1-0.5,0.2-0.6,0.3c-0.2,0.2-0.2,0.4-0.2,0.7    c0,0.3,0.1,0.5,0.3,0.7c0.2,0.2,0.5,0.2,0.8,0.2c0.3,0,0.6-0.1,0.8-0.2C229.4,285.2,229.6,285.1,229.8,284.9z"/> 	</g> 	<g> 		<rect x="112.8" y="286.3" style="fill-rule:evenodd;clip-rule:evenodd;fill:none;" width="18.9" height="11"/> 		<path style="fill:#1A171B;" d="M119,294.3c-0.2,0.1-0.3,0.2-0.5,0.2c-0.1,0.1-0.3,0.1-0.5,0.2c-0.2,0.1-0.4,0.1-0.6,0.2    c-0.2,0-0.5,0.1-0.7,0.1c-0.5,0-1-0.1-1.4-0.2c-0.4-0.1-0.8-0.4-1.1-0.7c-0.3-0.3-0.5-0.7-0.7-1.2c-0.2-0.5-0.3-1-0.3-1.7    c0-0.6,0.1-1.1,0.2-1.6s0.4-0.9,0.7-1.2c0.3-0.3,0.6-0.6,1.1-0.7c0.4-0.2,0.9-0.2,1.4-0.2c0.4,0,0.7,0,1.1,0.1    c0.4,0.1,0.8,0.3,1.2,0.5v1.1H119c-0.4-0.3-0.8-0.6-1.1-0.7s-0.8-0.2-1.2-0.2c-0.3,0-0.7,0.1-0.9,0.2c-0.3,0.1-0.5,0.3-0.7,0.6    c-0.2,0.2-0.4,0.6-0.5,0.9c-0.1,0.4-0.2,0.8-0.2,1.3c0,0.5,0.1,1,0.2,1.3c0.1,0.4,0.3,0.7,0.5,0.9c0.2,0.2,0.5,0.4,0.8,0.5    c0.3,0.1,0.6,0.2,0.9,0.2c0.4,0,0.9-0.1,1.2-0.2s0.7-0.4,1.1-0.7h0.1V294.3z"/> 		<path style="fill:#1A171B;" d="M124.6,292.2h-3.8c0,0.3,0,0.6,0.1,0.9c0.1,0.3,0.2,0.5,0.4,0.6c0.2,0.2,0.4,0.3,0.6,0.4    s0.5,0.1,0.7,0.1c0.4,0,0.7-0.1,1.1-0.2c0.4-0.1,0.6-0.3,0.8-0.4h0v1c-0.3,0.1-0.6,0.2-0.9,0.3c-0.3,0.1-0.6,0.1-1,0.1    c-0.9,0-1.5-0.2-2-0.7c-0.5-0.5-0.7-1.2-0.7-2.1c0-0.9,0.2-1.6,0.7-2.1s1.1-0.8,1.8-0.8c0.7,0,1.2,0.2,1.6,0.6s0.6,1,0.6,1.8    V292.2z M123.7,291.5c0-0.5-0.1-0.9-0.3-1.1c-0.2-0.3-0.6-0.4-1-0.4c-0.5,0-0.8,0.1-1.1,0.4s-0.4,0.6-0.5,1.1H123.7z"/> 		<path style="fill:#1A171B;" d="M130.2,292.2h-3.8c0,0.3,0,0.6,0.1,0.9c0.1,0.3,0.2,0.5,0.4,0.6c0.2,0.2,0.4,0.3,0.6,0.4    s0.5,0.1,0.7,0.1c0.4,0,0.7-0.1,1.1-0.2c0.4-0.1,0.6-0.3,0.8-0.4h0v1c-0.3,0.1-0.6,0.2-0.9,0.3c-0.3,0.1-0.6,0.1-1,0.1    c-0.9,0-1.5-0.2-2-0.7c-0.5-0.5-0.7-1.2-0.7-2.1c0-0.9,0.2-1.6,0.7-2.1s1.1-0.8,1.8-0.8c0.7,0,1.2,0.2,1.6,0.6s0.6,1,0.6,1.8    V292.2z M129.4,291.5c0-0.5-0.1-0.9-0.3-1.1c-0.2-0.3-0.6-0.4-1-0.4c-0.5,0-0.8,0.1-1.1,0.4s-0.4,0.6-0.5,1.1H129.4z"/> 	</g> 	<g> 		<rect x="59" y="325.8" style="fill-rule:evenodd;clip-rule:evenodd;fill:none;" width="37" height="11"/> 		<path style="fill:#1A171B;" d="M64.3,327.9h-3.5v2.1h3v0.9h-3v3.5h-0.9V327h4.4V327.9z"/> 		<path style="fill:#1A171B;" d="M66.2,327.9h-1v-1h1V327.9z M66.1,334.3h-0.9v-5.5h0.9V334.3z"/> 		<path style="fill:#1A171B;" d="M71.5,332.7c0,0.5-0.2,0.9-0.6,1.2c-0.4,0.3-0.9,0.5-1.6,0.5c-0.4,0-0.7,0-1-0.1    c-0.3-0.1-0.6-0.2-0.8-0.3v-1h0c0.3,0.2,0.6,0.4,0.9,0.5c0.3,0.1,0.7,0.2,1,0.2c0.4,0,0.7-0.1,0.9-0.2c0.2-0.1,0.3-0.3,0.3-0.6    c0-0.2-0.1-0.4-0.2-0.5s-0.3-0.2-0.7-0.3c-0.1,0-0.3-0.1-0.5-0.1c-0.2,0-0.4-0.1-0.5-0.1c-0.5-0.1-0.8-0.3-1-0.6    c-0.2-0.2-0.3-0.5-0.3-0.9c0-0.2,0-0.4,0.1-0.6s0.2-0.4,0.4-0.5c0.2-0.2,0.4-0.3,0.7-0.4c0.3-0.1,0.6-0.1,0.9-0.1    c0.3,0,0.6,0,0.9,0.1c0.3,0.1,0.6,0.2,0.8,0.3v1h0c-0.2-0.2-0.5-0.3-0.8-0.4c-0.3-0.1-0.6-0.2-0.9-0.2c-0.3,0-0.6,0.1-0.8,0.2    c-0.2,0.1-0.3,0.3-0.3,0.6c0,0.2,0.1,0.4,0.2,0.5c0.1,0.1,0.3,0.2,0.6,0.3c0.2,0,0.3,0.1,0.5,0.1s0.4,0.1,0.5,0.1    c0.4,0.1,0.7,0.3,0.9,0.5C71.4,332,71.5,332.3,71.5,332.7z"/> 		<path style="fill:#1A171B;" d="M75.4,334.2c-0.2,0-0.3,0.1-0.5,0.1s-0.4,0-0.5,0c-0.5,0-0.9-0.1-1.2-0.4c-0.3-0.3-0.4-0.8-0.4-1.4    v-2.9h-0.6v-0.8h0.6v-1.6h0.9v1.6h1.8v0.8h-1.8v2.5c0,0.3,0,0.5,0,0.7c0,0.2,0.1,0.3,0.1,0.5c0.1,0.1,0.2,0.2,0.3,0.3    c0.1,0.1,0.3,0.1,0.5,0.1c0.1,0,0.3,0,0.4-0.1c0.2,0,0.3-0.1,0.3-0.1h0V334.2z"/> 		<path style="fill:#1A171B;" d="M80.8,331.6H77c0,0.3,0,0.6,0.1,0.9c0.1,0.2,0.2,0.5,0.4,0.6c0.2,0.2,0.4,0.3,0.6,0.4    s0.5,0.1,0.7,0.1c0.4,0,0.7-0.1,1.1-0.2c0.4-0.1,0.6-0.3,0.8-0.4h0v1c-0.3,0.1-0.6,0.2-0.9,0.3c-0.3,0.1-0.6,0.1-1,0.1    c-0.9,0-1.5-0.2-2-0.7c-0.5-0.5-0.7-1.2-0.7-2.1c0-0.9,0.2-1.6,0.7-2.1s1.1-0.8,1.8-0.8c0.7,0,1.2,0.2,1.6,0.6s0.6,1,0.6,1.8    V331.6z M80,330.9c0-0.5-0.1-0.9-0.3-1.1c-0.2-0.3-0.6-0.4-1-0.4c-0.5,0-0.8,0.1-1.1,0.4s-0.4,0.6-0.5,1.1H80z"/> 		<path style="fill:#1A171B;" d="M85.3,329.8L85.3,329.8c-0.2,0-0.3-0.1-0.4-0.1c-0.1,0-0.3,0-0.4,0c-0.3,0-0.5,0.1-0.8,0.2    c-0.3,0.1-0.5,0.3-0.7,0.5v3.9h-0.9v-5.5H83v0.8c0.3-0.3,0.6-0.5,0.9-0.6c0.3-0.1,0.5-0.2,0.8-0.2c0.2,0,0.3,0,0.3,0    c0.1,0,0.2,0,0.3,0V329.8z"/> 		<path style="fill:#1A171B;" d="M89.4,329.8L89.4,329.8c-0.2,0-0.3-0.1-0.4-0.1c-0.1,0-0.3,0-0.4,0c-0.3,0-0.5,0.1-0.8,0.2    c-0.3,0.1-0.5,0.3-0.7,0.5v3.9h-0.9v-5.5H87v0.8c0.3-0.3,0.6-0.5,0.9-0.6c0.3-0.1,0.5-0.2,0.8-0.2c0.2,0,0.3,0,0.3,0    c0.1,0,0.2,0,0.3,0V329.8z"/> 		<path style="fill:#1A171B;" d="M94.1,334.3h-0.9v-0.6c-0.1,0.1-0.2,0.1-0.3,0.2c-0.1,0.1-0.3,0.2-0.4,0.2    c-0.1,0.1-0.3,0.1-0.5,0.2c-0.2,0.1-0.4,0.1-0.7,0.1c-0.5,0-0.9-0.2-1.2-0.5c-0.3-0.3-0.5-0.7-0.5-1.2c0-0.4,0.1-0.7,0.3-1    c0.2-0.3,0.4-0.5,0.7-0.6c0.3-0.1,0.7-0.2,1.1-0.3c0.4-0.1,0.9-0.1,1.4-0.1v-0.1c0-0.2,0-0.4-0.1-0.5c-0.1-0.1-0.2-0.2-0.3-0.3    c-0.1-0.1-0.3-0.1-0.4-0.2c-0.2,0-0.4,0-0.5,0c-0.2,0-0.5,0-0.8,0.1c-0.3,0.1-0.6,0.2-0.9,0.3h0v-0.9c0.2,0,0.4-0.1,0.7-0.2    c0.3-0.1,0.6-0.1,0.9-0.1c0.4,0,0.7,0,0.9,0.1c0.3,0.1,0.5,0.2,0.7,0.3c0.2,0.1,0.3,0.3,0.4,0.6s0.2,0.5,0.2,0.9V334.3z     M93.2,332.9v-1.5c-0.3,0-0.6,0-0.9,0.1s-0.6,0.1-0.9,0.1c-0.2,0.1-0.5,0.2-0.6,0.3c-0.2,0.2-0.2,0.4-0.2,0.7    c0,0.3,0.1,0.5,0.3,0.7c0.2,0.2,0.5,0.2,0.8,0.2c0.3,0,0.6-0.1,0.8-0.2C92.8,333.2,93,333.1,93.2,332.9z"/> 	</g> 	<g> 		<rect x="104.3" y="338.8" style="fill-rule:evenodd;clip-rule:evenodd;fill:none;" width="48.5" height="11"/> 		<path style="fill:#1A171B;" d="M110.5,346.8c-0.2,0.1-0.3,0.2-0.5,0.2c-0.1,0.1-0.3,0.1-0.5,0.2c-0.2,0.1-0.4,0.1-0.6,0.2    c-0.2,0-0.5,0.1-0.7,0.1c-0.5,0-1-0.1-1.4-0.2c-0.4-0.1-0.8-0.4-1.1-0.7c-0.3-0.3-0.5-0.7-0.7-1.2c-0.2-0.5-0.3-1-0.3-1.7    c0-0.6,0.1-1.1,0.2-1.6s0.4-0.9,0.7-1.2c0.3-0.3,0.6-0.6,1.1-0.7c0.4-0.2,0.9-0.2,1.4-0.2c0.4,0,0.7,0,1.1,0.1    c0.4,0.1,0.8,0.3,1.2,0.5v1.1h-0.1c-0.4-0.3-0.8-0.6-1.1-0.7s-0.8-0.2-1.2-0.2c-0.3,0-0.7,0.1-0.9,0.2c-0.3,0.1-0.5,0.3-0.7,0.6    c-0.2,0.2-0.4,0.6-0.5,0.9c-0.1,0.4-0.2,0.8-0.2,1.3c0,0.5,0.1,1,0.2,1.3c0.1,0.4,0.3,0.7,0.5,0.9c0.2,0.2,0.5,0.4,0.8,0.5    c0.3,0.1,0.6,0.2,0.9,0.2c0.4,0,0.9-0.1,1.2-0.2s0.7-0.4,1.1-0.7h0.1V346.8z"/> 		<path style="fill:#1A171B;" d="M116.2,344.6c0,0.9-0.2,1.6-0.6,2.1s-1,0.8-1.7,0.8c-0.7,0-1.3-0.3-1.7-0.8s-0.6-1.2-0.6-2.1    s0.2-1.6,0.6-2.1c0.4-0.5,1-0.8,1.7-0.8c0.7,0,1.3,0.3,1.7,0.8C115.9,343,116.2,343.7,116.2,344.6z M115.3,344.6    c0-0.7-0.1-1.2-0.4-1.6c-0.3-0.3-0.6-0.5-1.1-0.5c-0.5,0-0.8,0.2-1.1,0.5c-0.3,0.3-0.4,0.9-0.4,1.6c0,0.7,0.1,1.2,0.4,1.6    c0.3,0.4,0.6,0.5,1.1,0.5c0.5,0,0.8-0.2,1.1-0.5C115.1,345.8,115.3,345.3,115.3,344.6z"/> 		<path style="fill:#1A171B;" d="M120.7,342.9L120.7,342.9c-0.2,0-0.3-0.1-0.4-0.1c-0.1,0-0.3,0-0.4,0c-0.3,0-0.5,0.1-0.8,0.2    c-0.3,0.1-0.5,0.3-0.7,0.5v3.9h-0.9v-5.5h0.9v0.8c0.3-0.3,0.6-0.5,0.9-0.6c0.3-0.1,0.5-0.2,0.8-0.2c0.2,0,0.3,0,0.3,0    c0.1,0,0.2,0,0.3,0V342.9z"/> 		<path style="fill:#1A171B;" d="M125.3,347c-0.3,0.1-0.6,0.3-0.8,0.3c-0.3,0.1-0.5,0.1-0.8,0.1c-0.4,0-0.7-0.1-1-0.2    c-0.3-0.1-0.6-0.3-0.8-0.5c-0.2-0.2-0.4-0.5-0.5-0.9s-0.2-0.8-0.2-1.3c0-0.9,0.2-1.6,0.7-2.1s1.1-0.8,1.8-0.8c0.3,0,0.6,0,0.9,0.1    s0.5,0.2,0.8,0.3v1h0c-0.3-0.2-0.5-0.4-0.8-0.5s-0.6-0.2-0.8-0.2c-0.5,0-0.9,0.2-1.2,0.5c-0.3,0.4-0.4,0.9-0.4,1.5    c0,0.7,0.1,1.2,0.4,1.5c0.3,0.4,0.7,0.5,1.2,0.5c0.2,0,0.4,0,0.5-0.1s0.3-0.1,0.5-0.2c0.1-0.1,0.2-0.1,0.4-0.2    c0.1-0.1,0.2-0.1,0.3-0.2h0V347z"/> 		<path style="fill:#1A171B;" d="M130.7,347.4h-0.9v-0.6c-0.3,0.2-0.6,0.4-0.8,0.6s-0.6,0.2-0.9,0.2c-0.5,0-1-0.2-1.3-0.5    c-0.3-0.3-0.5-0.9-0.5-1.5v-3.5h0.9v3.1c0,0.3,0,0.5,0,0.7c0,0.2,0.1,0.4,0.2,0.5c0.1,0.1,0.2,0.2,0.3,0.3    c0.1,0.1,0.3,0.1,0.6,0.1c0.2,0,0.5-0.1,0.7-0.2c0.3-0.1,0.5-0.3,0.7-0.5v-4.1h0.9V347.4z"/> 		<path style="fill:#1A171B;" d="M137,344.6c0,0.5-0.1,0.9-0.2,1.2c-0.1,0.4-0.3,0.7-0.5,0.9c-0.2,0.3-0.5,0.5-0.7,0.6    c-0.3,0.1-0.5,0.2-0.9,0.2c-0.3,0-0.5,0-0.8-0.1c-0.2-0.1-0.4-0.2-0.6-0.3l-0.1,0.3h-0.8v-7.6h0.9v2.7c0.2-0.2,0.5-0.4,0.8-0.5    c0.3-0.1,0.6-0.2,0.9-0.2c0.6,0,1.1,0.2,1.4,0.7C136.8,343,137,343.7,137,344.6z M136.1,344.6c0-0.7-0.1-1.1-0.3-1.5    c-0.2-0.3-0.5-0.5-1-0.5c-0.3,0-0.5,0.1-0.8,0.2c-0.3,0.1-0.5,0.3-0.7,0.4v3.1c0.2,0.1,0.5,0.2,0.6,0.2s0.4,0.1,0.6,0.1    c0.5,0,0.9-0.2,1.1-0.5C135.9,345.8,136.1,345.3,136.1,344.6z"/> 		<path style="fill:#1A171B;" d="M139.3,341h-1v-1h1V341z M139.2,347.4h-0.9v-5.5h0.9V347.4z"/> 		<path style="fill:#1A171B;" d="M145.3,344.6c0,0.9-0.2,1.6-0.6,2.1s-1,0.8-1.7,0.8c-0.7,0-1.3-0.3-1.7-0.8s-0.6-1.2-0.6-2.1    s0.2-1.6,0.6-2.1c0.4-0.5,1-0.8,1.7-0.8c0.7,0,1.3,0.3,1.7,0.8C145.1,343,145.3,343.7,145.3,344.6z M144.4,344.6    c0-0.7-0.1-1.2-0.4-1.6c-0.3-0.3-0.6-0.5-1.1-0.5c-0.5,0-0.8,0.2-1.1,0.5c-0.3,0.3-0.4,0.9-0.4,1.6c0,0.7,0.1,1.2,0.4,1.6    c0.3,0.4,0.6,0.5,1.1,0.5c0.5,0,0.8-0.2,1.1-0.5C144.3,345.8,144.4,345.3,144.4,344.6z M144.4,339.2l-1.3,1.8h-0.7l0.8-1.8H144.4z    "/> 		<path style="fill:#1A171B;" d="M151,347.4h-0.9v-3.1c0-0.3,0-0.5,0-0.7c0-0.2-0.1-0.4-0.2-0.5c-0.1-0.1-0.2-0.2-0.3-0.3    c-0.1-0.1-0.3-0.1-0.6-0.1c-0.2,0-0.5,0.1-0.7,0.2c-0.3,0.1-0.5,0.3-0.7,0.5v4.1h-0.9v-5.5h0.9v0.6c0.3-0.2,0.6-0.4,0.8-0.6    s0.6-0.2,0.9-0.2c0.6,0,1,0.2,1.3,0.5c0.3,0.4,0.4,0.9,0.4,1.5V347.4z"/> 	</g> </g> <g id="llegend"> 	<line style="fill:none;stroke:#9A9A9A;stroke-width:2;stroke-miterlimit:10;" x1="-204" y1="-87.5" x2="-204" y2="-58"/> 	<line style="fill:none;stroke:#9A9A9A;stroke-miterlimit:10;" x1="-170.6" y1="-87.5" x2="-170.6" y2="-58"/> 	<g> 		<path d="M-196.3-77.1h0.9v7.1h-0.9V-77.1z"/> 		<path d="M-193-76.2c0,0.3-0.2,0.5-0.6,0.5c-0.3,0-0.5-0.2-0.5-0.5s0.2-0.5,0.5-0.5C-193.2-76.7-193-76.5-193-76.2z M-193.9-70    v-4.8h0.9v4.8H-193.9z"/> 		<path d="M-191.6-73.5c0-0.5,0-0.9,0-1.3h0.8l0,0.8h0c0.2-0.4,0.8-0.9,1.6-0.9c0.7,0,1.7,0.4,1.7,2.1v2.9h-0.9v-2.8    c0-0.8-0.3-1.4-1.1-1.4c-0.6,0-1,0.4-1.2,0.9c0,0.1-0.1,0.3-0.1,0.4v2.9h-0.9V-73.5z"/> 	</g> 	<line style="fill:none;stroke:#696969;stroke-width:2;stroke-miterlimit:10;" x1="-204" y1="-47.9" x2="-204" y2="-18.4"/> 	<g> 		<path d="M-196.3-37.5h0.9v7.1h-0.9V-37.5z"/> 		<path d="M-193-36.6c0,0.3-0.2,0.5-0.6,0.5c-0.3,0-0.5-0.2-0.5-0.5s0.2-0.5,0.5-0.5C-193.2-37.1-193-36.9-193-36.6z M-193.9-30.4    v-4.8h0.9v4.8H-193.9z"/> 		<path d="M-191.6-33.9c0-0.5,0-0.9,0-1.3h0.8l0,0.8h0c0.2-0.4,0.8-0.9,1.6-0.9c0.7,0,1.7,0.4,1.7,2.1v2.9h-0.9v-2.8    c0-0.8-0.3-1.4-1.1-1.4c-0.6,0-1,0.4-1.2,0.9c0,0.1-0.1,0.3-0.1,0.4v2.9h-0.9V-33.9z"/> 	</g> 	<rect x="-209.4" y="-112.1" style="fill:#BFBFBF;" width="16.3" height="15.3"/> 	<rect x="-209.4" y="-139.7" style="fill:#DCE9FB;" width="16.3" height="15.3"/> 	<rect x="-240.8" y="-139.7" style="fill:#D0E0A4;" width="16.3" height="15.3"/> 	<g> 		<path d="M-183.9-102.7v-4.2h-0.7v-0.7h0.7v-0.2c0-0.7,0.2-1.3,0.6-1.7c0.3-0.3,0.8-0.4,1.2-0.4c0.3,0,0.6,0.1,0.7,0.1l-0.1,0.7    c-0.1-0.1-0.3-0.1-0.6-0.1c-0.7,0-0.9,0.6-0.9,1.4v0.3h1.2v0.7h-1.2v4.2H-183.9z"/> 		<path d="M-176.8-105.2c0,1.8-1.2,2.6-2.4,2.6c-1.3,0-2.3-1-2.3-2.5c0-1.6,1.1-2.6,2.4-2.6C-177.7-107.7-176.8-106.6-176.8-105.2z     M-180.6-105.1c0,1.1,0.6,1.9,1.5,1.9c0.8,0,1.5-0.8,1.5-1.9c0-0.8-0.4-1.8-1.4-1.8C-180.2-107-180.6-106-180.6-105.1z"/> 		<path d="M-175.7-106.2c0-0.5,0-0.9,0-1.3h0.8l0,0.8h0c0.2-0.4,0.8-0.9,1.6-0.9c0.7,0,1.7,0.4,1.7,2.1v2.9h-0.9v-2.8    c0-0.8-0.3-1.4-1.1-1.4c-0.6,0-1,0.4-1.2,0.9c0,0.1-0.1,0.3-0.1,0.4v2.9h-0.9V-106.2z"/> 		<path d="M-170.2-103.6c0.3,0.2,0.7,0.3,1.2,0.3c0.6,0,0.9-0.3,0.9-0.7c0-0.4-0.3-0.6-0.9-0.9c-0.9-0.3-1.3-0.8-1.3-1.4    c0-0.8,0.6-1.4,1.7-1.4c0.5,0,0.9,0.1,1.2,0.3l-0.2,0.6c-0.2-0.1-0.5-0.3-1-0.3c-0.5,0-0.8,0.3-0.8,0.7c0,0.4,0.3,0.6,0.9,0.8    c0.8,0.3,1.3,0.7,1.3,1.4c0,0.9-0.7,1.5-1.8,1.5c-0.5,0-1-0.1-1.4-0.3L-170.2-103.6z"/> 	</g> 	<g> 		<path d="M-183.9-133.6c0-0.5,0-0.9,0-1.3h0.8l0,0.8h0c0.3-0.5,0.7-0.9,1.5-0.9c0.6,0,1.1,0.4,1.4,1h0c0.1-0.3,0.4-0.5,0.5-0.6    c0.3-0.2,0.6-0.3,1.1-0.3c0.6,0,1.6,0.4,1.6,2.1v2.8h-0.9v-2.7c0-0.9-0.3-1.5-1-1.5c-0.5,0-0.9,0.4-1,0.8c0,0.1-0.1,0.3-0.1,0.4v3    h-0.9v-2.9c0-0.8-0.3-1.3-1-1.3c-0.5,0-0.9,0.4-1.1,0.9c-0.1,0.1-0.1,0.3-0.1,0.4v2.9h-0.9V-133.6z"/> 		<path d="M-172.2-131.2c0,0.4,0,0.8,0.1,1.2h-0.8l-0.1-0.6h0c-0.3,0.4-0.8,0.7-1.5,0.7c-1,0-1.5-0.7-1.5-1.4c0-1.2,1-1.8,2.9-1.8    v-0.1c0-0.4-0.1-1.1-1.1-1.1c-0.5,0-0.9,0.1-1.3,0.4l-0.2-0.6c0.4-0.3,1-0.4,1.6-0.4c1.5,0,1.8,1,1.8,2V-131.2z M-173.1-132.5    c-1,0-2,0.1-2,1.1c0,0.6,0.4,0.8,0.8,0.8c0.6,0,1-0.4,1.2-0.8c0-0.1,0-0.2,0-0.3V-132.5z"/> 		<path d="M-170.8-133.4c0-0.6,0-1.1,0-1.5h0.8l0,1h0c0.2-0.6,0.8-1.1,1.3-1.1c0.1,0,0.2,0,0.2,0v0.8c-0.1,0-0.2,0-0.3,0    c-0.6,0-1.1,0.5-1.2,1.1c0,0.1,0,0.3,0,0.4v2.6h-0.9V-133.4z"/> 	</g> 	<circle style="fill-rule:evenodd;clip-rule:evenodd;fill:#5B7EBD;" cx="-204" cy="-3.3" r="2.4"/> 	 		<rect x="-284.8" y="-112.1" style="fill:#BFBFBF;stroke:#696969;stroke-width:2;stroke-miterlimit:10;" width="16.3" height="15.3"/> 	 		<rect x="-258.6" y="-112.1" style="fill:#FFFBF0;stroke:#9A9A9A;stroke-width:2;stroke-miterlimit:10;" width="16.3" height="15.3"/> 	<rect x="-267.9" y="-81.5" style="opacity:0.6;fill:#FFFBF0;" width="51" height="17.5"/> </g> </svg>