<svg xmlns="http://www.w3.org/2000/svg" xmlns:xlink="http://www.w3.org/1999/xlink" version="1.1" x="0px" y="0px" width="450px" height="450px" viewBox="0 0 450 450" style="enable-background:new 0 0 450 450;" xml:space="preserve">
<g id="Fondo">
	<path style="display:none;fill:#BFBFBF;stroke:#696969;stroke-width:2;stroke-miterlimit:10;" d="M465,337c2.7,46.3,5.3,92.7,8,139   c-89.1,0-178.2,0-267.3,0c14.6-9.4,29.3-18.7,43.9-28.1c3.2-2,10.8-4.9,12-8.8c1.9-5.8,3.4-19.3,7.6-23.5   c12.1-12.3,30.4-6.3,43.1-1.1c10.9,4.5,20.6-25,30.4-9.3c7.2-8.9,21.8-26.2,34.7-16.8c3.5-8.8,15.3-3.2,23.4-1.1   c7.6,1.9,8.6-8.1,14.8-13.6c11.3-10.2,20.6-0.4,31.5-7C454.2,362.4,460.6,344.3,465,337L465,337z"/>
</g>
<g id="Color_fons">
	<path style="fill:#DCE9FB;" d="M-30.7-29.7c168.2-1.3,336.4-2.7,504.7-4c-1.1,20.7,6.6,70.7-12.1,81.4c-7.7,4.4-15.2,9.3-23.7,12.2   c0.5-0.2-13,1.9-13.4,2.1c-2.5,1.5-3.7,6.3-7.4,7.9c1.9-0.8-25.6,1.9-26,7.9c-0.1,1.6,6.3,1.8,1.7,5c-8.2,5.8-15.1,0-21.3-1.3   c-11.2-2.4-18.6-20.6-28-22.2c-7.4-1.2-4.6,18.8-4.6,18.8c-2.3,4.4-7.2-2.4-10-1.3c0.2-0.1-12.3,10.3-15.4,12.6   c-16.3,12.5-36.7,15.7-42.8,17.9c-11.6,4.3-10.3-9.9-15.1-9.6c-6.9,0.4,0.8,17.6,1.7,19.2c1.3,2.4,19.5,12.7,22.4,10.8   c6-3.9,13.3,3.9,14,8.8c0.6,4.3-1.5,6.3-4.6,9.2c-7,6.5-24.3,33.3-24.3,40.4c0,12.6,17.3,12.4,23.1,20.4   c-3.9,10.8,14.6,14.3,21.6,13c16.5-3,19.2-5.7,30.6,4.3c-1.1-0.4-2.2-0.8-3.3-1.3c-3.5-7.1-49.6,5.5-64.1,1.9   c-12.6-3.2-3.6-18.4-9.5-26.2c-12.7-16.9-21.9,4.5-29.4,10.1c-5.2-7.8-5.2-8.6-11.7-15.1c24,0,34.1-18.8,46.8-38.5   c-6.4,1.8-9.5,6.7-15.1,10.9c-0.6-0.6-1.1-1.1-1.7-1.7c2.5-4.8,5.6-9.3,9.2-13.4c-15.6-5-11.9-21.8-19.2-32.2   c-10.8-15.3-18.8-17.9-1.3-45.2c6.7-10.5,8.1-15.8,8-21.3c0-1.9-4.2-2.8,1.4-7.2c-12.6-0.2-29.4,1.1-35.9,17.7   c-0.8-0.3-2.4-2.2-2.4-2.2c-0.8,0.9-1.7,1.8-2.5,2.8c-0.5-1.3-1-2.5-1.5-3.8c-5.4,1.6-27,5.1-41.1,21.5c1.2-5.3-1.8-7.1-5.1-7.5   c-7.9,6.9-22.6,4.9-33.6,14.1c-0.1-0.8-0.2-1.5-0.3-2.3c-5.5,3.1-9.6,6.4-9.3,11.7c0.1,3.2-9.2,6-11.1,9.5   c-3.2-5.5-8.7-9.9-8.9-12.3c-4.6,6.3-9.4,12.4-14,18.3c-10.5-12.1-13.5,9.8-18.3,15.9c-0.8-4.7-2.8-4.9-4.7-8.8   c-2.7,0.9-1,0.2-3.2,0.4c-4.3,5.4-7.3,11.8-15,11.7c-0.4,4.9,0.2,16.4-6.3,19.9c-7.8,4.2-9.5,16.4-12.6,26.6   c-11.7,38.8-27.7,27-55.3,34.5C-30.7,132-30.7,51.2-30.7-29.7L-30.7-29.7z"/>
	<a xlink:href="Donostialdea">
		<path style="fill:#BFBFBF;stroke:#696969;stroke-width:2;stroke-miterlimit:10;" d="M215.5,476c-83.5,3.7-167,7.3-250.5,11    c1.3-81.9,2.6-163.8,3.9-245.6c0.1-5.5-2.9-23.8,0.5-28.5c6.3-9,33.8-5.1,42.7-11.7c10-7.4,11.9-26.7,17.2-37.9    c4.2-9,15.8-26,15.1-27.4c12.1,26.5,19.7,56.4,31.7,82.8c4.5,9.9,13.9,32.2,19.1,41.8c6.7,12.5,2.8,6.3-4.1,23.6    c22.7,2,35.1,35.8,54.8,44.9c14.4,6.7,29.5,13,43.9,19.7c9.4,4.4,22.1,27.8,32.3,30.8c31,9.2,49.6,27.1,46.8,37.5    c-3.5,13.1-5.1,21.6-15.6,29.7C240.6,456.5,228.1,466.2,215.5,476L215.5,476z"/>
	</a>
	<a xlink:href="Pais Vasco Frances Iparralde">
		<path style="fill:#BFBFBF;stroke:#696969;stroke-width:2;stroke-miterlimit:10;" d="M406.1,386.4c0.3-23.9-9.2-50.8-24-57.1    c8.7-7.1,3.4-10.8-2.3-17.3c-3.8-4.4,7.2-9.7,7.3-14.9c0.3-11.1,7.1-34.8-10-36.1c-20.1-1.5-28.5-2.2-31.7-23.7    c-3.4-22.8-15.9-21.1-35.8-17.4c-4.6,0.9-21.2-0.5-21.2-7.4c0-12.7-13.1-11.3-21.1-17.8c-9.2-7.4,9.8-40.2,16.9-45.8    c15.7-12.5,9.4-19.9-6.7-20.1c-3.8,0-18.8-9.4-20.1-11.7c-0.9-1.6-8.6-18.9-1.7-19.2c4.1-0.2,2.2,13.2,11.5,10.9    C311.2,98.4,329,77.1,329,77.1s7.8,5.6,10,1.3c0-0.1-2.8-20,4.6-18.8c9.4,1.5,16.8,19.8,28,22.2c6.2,1.3,13.1,7,21.3,1.3    c4.6-3.3-1.8-3.4-1.7-5c0.5-6.5,28.4-9.4,28.9-9.6c5.8-3.4,1.5-5.7,7.9-5.9c5.4-0.1,12-2.8,16.7-5c8.7-4.1,16.7-9.7,25.1-14.3    c0,71.6,1.7,143.2,2.7,214.8c0.4,29.6,0.7,52.7,1.2,82.3c0.1,10.2-15.3,25.7-38.5,26.3c-15.2,0.4-19.7,7.1-27.4,17.9L406.1,386.4z    "/>
	</a>
	<a xlink:href="Navarra Nafarroa">
		<path style="fill:#BFBFBF;stroke:#696969;stroke-width:2;stroke-miterlimit:10;" d="M473.9,340.3c1.1,48.9,2.3,97.8,3.4,146.7    c-77.1-12.3-184.8,1.3-261.9-11c13.2-8.3,45.9-35.9,50.6-50.6c4.5-13.9,2.2-10.5,16.3-14.1c18.7-4.8,29.2,8.4,36.4,3.6    c5.8-3.9,15.7-22.9,23.9-9.6c7.2-8.9,21.8-26.2,34.7-16.8c3.5-8.8,15.3-3.2,23.4-1.1c7.6,1.9,8.6-8.1,14.8-13.6    c11.8-10.7,20.9-4.9,34.3-10.2C459.2,359.9,466.8,347.4,473.9,340.3L473.9,340.3z"/>
	</a>
</g>
<g id="Limit_municipis">
	<a xlink:href="Hondarribia">
		<path id="Farcit_Hondarribia_1_" style="fill-rule:evenodd;clip-rule:evenodd;fill:#FFFBF0;" d="M250.4,45.2    c-8.1,6.5,4.8,9.5-4.7,23.5c-9.2,13.5-22.8,30.7-7.5,46.4c9.9,10.2,7.3,30.8,23.4,36c-3.6,4.1-6.7,8.5-9.2,13.4    c0.6,0.6,1.1,1.1,1.7,1.7c5.6-4.2,8.7-9.1,15.1-10.9c-12.8,19.7-22.9,38.5-46.8,38.5c2.3,1.7,4.5,3.4,6.8,5.1    c-7.8,5.5-7.2,11.5-17.2,15.4c-13.7,5.4-30,9.5-42.8,16.9c-11.9,7-22.6,18.8-33.3,27.7c-9.7,8.1-24.4,6.3-36.7,7.6    c-5.2,0.5-57.1-130.1-55.6-134.7c7.8,0.1,10.7-6.3,15-11.7c2.2-0.2,0.5,0.5,3.2-0.4c1.9,3.8,3.9,4.1,4.7,8.8    c4.8-6.1,7.9-28,18.3-15.9c4.7-5.9,9.5-12,14-18.3l8.9,12.3c1.9-3.4,11.2-6.2,11.1-9.5c-0.2-5.3,3.8-8.7,9.3-11.7    c0.1,0.8,0.2,1.5,0.3,2.3c11-9.1,25.7-7.1,33.6-14.1c4.4-0.1,5.6,5.5,5.1,7.5c7.9-4.8,1.2-9.6,41.1-21.5c0.5,1.3,1,2.5,1.5,3.8    c0.8-0.9,1.7-1.8,2.5-2.8c0,0,1.6,1.8,2.4,2.2c5.4-13.7,17.5-17,28.7-17.6l0.7-5.7c-1.8-0.4-3.1-1.1-3.8-2.6    c-0.1-1.6,5.7-2,6.7-1.5c0.6,2.4-0.3,3.6-2.9,4.1l-0.7,5.7C243.2,45.3,248.2,45.2,250.4,45.2z"/>
	</a>
	
		<path id="Contorn_illa_Hondarribia" style="fill-rule:evenodd;clip-rule:evenodd;fill:none;stroke:#9A9A9A;stroke-width:2;stroke-miterlimit:10;" d="   M243.8,39.8c2.6-0.5,3.6-1.9,3-4.3c-1-0.5-6.8-0.1-6.7,1.5C240.7,38.5,242,39.4,243.8,39.8z"/>
	
		<path id="Contorn_Hondarribia" style="fill-rule:evenodd;clip-rule:evenodd;fill:none;stroke:#9A9A9A;stroke-width:2;stroke-linejoin:arcs;stroke-miterlimit:10;" d="   M269.1,155.3c-6.4,1.8-9.5,6.7-15.1,10.9c-0.6-0.6-1.1-1.1-1.7-1.7c2.5-4.8,5.6-9.3,9.2-13.4c-16.1-5.1-13.5-25.8-23.4-36   c-15.3-15.7-1.7-32.9,7.5-46.4c9.5-14-3.4-17,4.7-23.5c-12.6-0.2-29.4,1.1-35.9,17.7c-0.8-0.3-2.4-2.2-2.4-2.2   c-0.8,0.9-1.7,1.8-2.5,2.8c-0.5-1.3-1-2.5-1.5-3.8c-39.9,11.9-33.1,16.7-41.1,21.5c0.5-2.1-0.6-7.6-5.1-7.5   c-7.9,6.9-22.6,4.9-33.6,14.1c-0.1-0.8-0.2-1.5-0.3-2.3c-5.5,3.1-9.6,6.4-9.3,11.7c0.1,3.2-9.2,6-11.1,9.5l-8.9-12.3   c-4.6,6.3-9.4,12.4-14,18.3c-10.5-12.1-13.5,9.8-18.3,15.9c-0.8-4.7-2.8-4.9-4.7-8.8c-2.7,0.9-1,0.2-3.2,0.4   c-4.3,5.4-7.3,11.8-15,11.7C41.9,136.4,93.8,267,99,266.5c12.3-1.3,27,0.5,36.7-7.6c10.6-8.8,21.3-20.7,33.3-27.7   c12.8-7.4,29-11.5,42.8-16.9c10.1-4,9.4-9.9,17.2-15.4c-2.3-1.7-4.5-3.4-6.8-5.1C246.2,193.8,256.3,175,269.1,155.3z"/>
	<a xlink:href="Irun">
		<path id="Farcit_Irun" style="fill:#FFFBF0;" d="M268,204.7c-0.5,2.7,3.4,8.3,5.6,8.1c1.8-1.5,1.1-4.4,0.8-5.6    c-0.8-3-2.7-4.4-5.6-4.1C268.3,203.5,268,204,268,204.7l-2.6-0.4c-0.3-3.5-1.3-6.1-4.9-8.2c-16.4-9.3-17,5.7-26.3,12.7    c-11-16.5-6.6-0.7-22.2,5.5c-13.7,5.4-30,9.5-42.8,16.9c-12.9,7.5-24.5,20.4-36,30c-7.7,6.4-25.3,4.4-35.1,5.4    c-2.3,5.8-4.7,11.6-7,17.4c23.1,2,35.6,37.7,56.3,47.4c13.3,6.2,31.2,11.1,42.9,19.9c11,8.4,16.9,18.8,29.1,26.6    c12.2,7.8,25.2,8.3,36.2,17.8c14.7,12.7,8.2,21.7,29.2,14.9c10.8-3.5,27.9,8.4,34.1,4.3c5.8-3.9,15.7-22.9,23.9-9.6    c7.2-8.9,21.8-26.2,34.7-16.8c5.2-12.8,35.2,9.4,29.9-8.4c-5.6-19-5.7-42.4-25.3-50.8c8.7-7.1,3.4-10.8-2.3-17.3    c-3.5-4.1,5.8-9.4,7.3-13.7c2-5.9,3.7-32.9-1.4-36c-8.9-5.6-29.4-1.1-34.5-8c-7.3-9.9-2.1-26-13-32.3c-10-5.3-32.6,2.3-50,4.3    l-0.9-2.2c0.5-0.6,2.1-2.1,2.5-3.5c0-1.4-8.1-13.8-8.1-13.8c-9.5-11.4-0.4,16.5,5.4,17.4l1,2.1c0,0-1,0.2-1.4,0.2    c-7.2,0.6-13.5-0.1-17.8-3.3c-5.6-4.2-3.2-12.3-3.7-18.8L268,204.7z"/>
	</a>
	<path id="Contorn_illa_Irun" style="fill:none;stroke:#9A9A9A;stroke-width:2;stroke-miterlimit:10;" d="M273.6,212.8   c1.8-1.5,1.1-4.4,0.8-5.6c-0.8-3-2.7-4.4-5.6-4.1C266.2,204.8,270.9,213,273.6,212.8z"/>
	<path id="Contorn_Irun" style="fill:none;stroke:#9A9A9A;stroke-width:2;stroke-linejoin:arcs;stroke-miterlimit:10;" d="   M407.4,380.1c-5.6-19-5.7-42.4-25.3-50.8c8.7-7.1,3.4-10.8-2.3-17.3c-3.5-4.1,5.8-9.4,7.3-13.7c2-5.9,3.7-32.9-1.4-36   c-8.9-5.6-29.4-1.1-34.5-8c-7.3-9.9-2.1-26-13-32.3c-10-5.3-32.6,2.3-50,4.3l-0.9-2.2c0.5-0.6,2.1-2.1,2.5-3.5   c0-1.4-8.1-13.8-8.1-13.8c-9.5-11.4-0.4,16.5,5.4,17.4l1,2.1c0,0-1,0.2-1.4,0.2c-7.2,0.6-13.5-0.1-17.8-3.3   c-8.6-6.5,1.9-21.1-8.6-27.1c-16.4-9.3-17,5.7-26.3,12.7c-11-16.5-6.6-0.7-22.2,5.5c-13.7,5.4-30,9.5-42.8,16.9   c-12.9,7.5-24.5,20.4-36,30c-7.7,6.4-25.3,4.4-35.1,5.4c-2.3,5.8-4.7,11.6-7,17.4c23.1,2,35.6,37.7,56.3,47.4   c13.3,6.2,31.2,11.1,42.9,19.9c11,8.4,16.9,18.8,29.1,26.6c12.2,7.8,25.2,8.3,36.2,17.8c14.7,12.7,8.2,21.7,29.2,14.9   c10.8-3.5,27.9,8.4,34.1,4.3c5.8-3.9,15.7-22.9,23.9-9.6c7.2-8.9,21.8-26.2,34.7-16.8C382.6,375.6,412.6,397.9,407.4,380.1z"/>
</g>
<g id="Municipis">
	<g>
		<path d="M130,159.1h-1v-3.6h-3.6v3.6h-1v-7.3h1v2.9h3.6v-2.9h1V159.1z"/>
		<path d="M136.6,156.4c0,0.9-0.2,1.6-0.7,2.1c-0.5,0.5-1.1,0.8-1.8,0.8c-0.8,0-1.4-0.3-1.8-0.8c-0.5-0.5-0.7-1.2-0.7-2.1    s0.2-1.6,0.7-2.1c0.5-0.5,1.1-0.8,1.8-0.8c0.8,0,1.4,0.3,1.8,0.8C136.3,154.8,136.6,155.5,136.6,156.4z M135.6,156.4    c0-0.7-0.1-1.2-0.4-1.6c-0.3-0.3-0.7-0.5-1.2-0.5c-0.5,0-0.9,0.2-1.2,0.5c-0.3,0.3-0.4,0.9-0.4,1.6c0,0.7,0.1,1.2,0.4,1.6    c0.3,0.4,0.7,0.5,1.2,0.5c0.5,0,0.9-0.2,1.1-0.5C135.5,157.6,135.6,157,135.6,156.4z"/>
		<path d="M142.5,159.1h-0.9V156c0-0.3,0-0.5,0-0.7s-0.1-0.4-0.2-0.5c-0.1-0.1-0.2-0.2-0.4-0.3c-0.2-0.1-0.4-0.1-0.6-0.1    c-0.3,0-0.5,0.1-0.8,0.2c-0.3,0.1-0.5,0.3-0.8,0.5v4.1H138v-5.5h0.9v0.6c0.3-0.2,0.6-0.4,0.9-0.6c0.3-0.1,0.6-0.2,0.9-0.2    c0.6,0,1,0.2,1.3,0.5c0.3,0.4,0.5,0.9,0.5,1.5V159.1z"/>
		<path d="M148.7,159.1h-0.9v-0.6c-0.3,0.2-0.5,0.4-0.8,0.5c-0.3,0.1-0.6,0.2-0.9,0.2c-0.7,0-1.2-0.3-1.6-0.8    c-0.4-0.5-0.6-1.2-0.6-2.1c0-0.5,0.1-0.9,0.2-1.2s0.3-0.7,0.5-0.9c0.2-0.2,0.5-0.4,0.8-0.6c0.3-0.1,0.6-0.2,0.9-0.2    c0.3,0,0.5,0,0.8,0.1c0.2,0.1,0.5,0.2,0.7,0.3v-2.4h0.9V159.1z M147.8,157.7v-3.1c-0.2-0.1-0.5-0.2-0.7-0.2    c-0.2,0-0.4-0.1-0.6-0.1c-0.5,0-0.9,0.2-1.2,0.5c-0.3,0.4-0.4,0.9-0.4,1.5c0,0.6,0.1,1.1,0.3,1.5c0.2,0.3,0.6,0.5,1.1,0.5    c0.3,0,0.5-0.1,0.8-0.2C147.3,158.1,147.6,157.9,147.8,157.7z"/>
		<path d="M154.8,159.1h-0.9v-0.6c-0.1,0.1-0.2,0.1-0.3,0.2c-0.1,0.1-0.3,0.2-0.4,0.2c-0.2,0.1-0.3,0.1-0.5,0.2    c-0.2,0.1-0.4,0.1-0.7,0.1c-0.5,0-0.9-0.2-1.3-0.5c-0.3-0.3-0.5-0.7-0.5-1.2c0-0.4,0.1-0.7,0.3-1c0.2-0.3,0.4-0.5,0.8-0.6    c0.3-0.1,0.7-0.2,1.2-0.3c0.5-0.1,1-0.1,1.5-0.1v-0.1c0-0.2,0-0.4-0.1-0.5s-0.2-0.2-0.3-0.3c-0.1-0.1-0.3-0.1-0.5-0.2    c-0.2,0-0.4,0-0.6,0c-0.2,0-0.5,0-0.8,0.1c-0.3,0.1-0.6,0.2-0.9,0.3h0v-0.9c0.2,0,0.4-0.1,0.8-0.2c0.3-0.1,0.7-0.1,1-0.1    c0.4,0,0.7,0,1,0.1c0.3,0.1,0.5,0.2,0.7,0.3c0.2,0.1,0.4,0.3,0.5,0.6c0.1,0.2,0.2,0.5,0.2,0.9V159.1z M153.9,157.7v-1.5    c-0.3,0-0.6,0-1,0.1c-0.4,0-0.7,0.1-0.9,0.1c-0.3,0.1-0.5,0.2-0.6,0.3c-0.2,0.2-0.2,0.4-0.2,0.7c0,0.3,0.1,0.5,0.3,0.7    c0.2,0.2,0.5,0.2,0.9,0.2c0.3,0,0.6-0.1,0.9-0.2C153.4,158.1,153.6,157.9,153.9,157.7z"/>
		<path d="M160,154.6L160,154.6c-0.2,0-0.3-0.1-0.4-0.1c-0.1,0-0.3,0-0.5,0c-0.3,0-0.6,0.1-0.8,0.2c-0.3,0.1-0.5,0.3-0.8,0.5v3.9    h-0.9v-5.5h0.9v0.8c0.4-0.3,0.7-0.5,1-0.6s0.6-0.2,0.9-0.2c0.2,0,0.3,0,0.3,0c0.1,0,0.2,0,0.3,0V154.6z"/>
		<path d="M164.2,154.6L164.2,154.6c-0.2,0-0.3-0.1-0.4-0.1c-0.1,0-0.3,0-0.5,0c-0.3,0-0.6,0.1-0.8,0.2c-0.3,0.1-0.5,0.3-0.8,0.5    v3.9h-0.9v-5.5h0.9v0.8c0.4-0.3,0.7-0.5,1-0.6s0.6-0.2,0.9-0.2c0.2,0,0.3,0,0.3,0c0.1,0,0.2,0,0.3,0V154.6z"/>
		<path d="M166.1,152.7h-1v-1h1V152.7z M166,159.1h-0.9v-5.5h0.9V159.1z"/>
		<path d="M172.6,156.3c0,0.5-0.1,0.9-0.2,1.2c-0.1,0.4-0.3,0.7-0.5,0.9c-0.2,0.3-0.5,0.5-0.8,0.6c-0.3,0.1-0.6,0.2-0.9,0.2    c-0.3,0-0.6,0-0.8-0.1c-0.2-0.1-0.5-0.2-0.7-0.3l-0.1,0.3h-0.9v-7.6h0.9v2.7c0.3-0.2,0.5-0.4,0.8-0.5c0.3-0.1,0.6-0.2,1-0.2    c0.6,0,1.2,0.2,1.5,0.7C172.5,154.7,172.6,155.4,172.6,156.3z M171.7,156.3c0-0.7-0.1-1.1-0.3-1.5s-0.6-0.5-1-0.5    c-0.3,0-0.5,0.1-0.8,0.2c-0.3,0.1-0.5,0.3-0.8,0.4v3.1c0.3,0.1,0.5,0.2,0.7,0.2c0.2,0,0.4,0.1,0.6,0.1c0.5,0,0.9-0.2,1.2-0.5    C171.5,157.6,171.7,157,171.7,156.3z"/>
		<path d="M175.1,152.7h-1v-1h1V152.7z M175,159.1h-0.9v-5.5h0.9V159.1z"/>
		<path d="M181,159.1h-0.9v-0.6c-0.1,0.1-0.2,0.1-0.3,0.2c-0.1,0.1-0.3,0.2-0.4,0.2c-0.2,0.1-0.3,0.1-0.5,0.2    c-0.2,0.1-0.4,0.1-0.7,0.1c-0.5,0-0.9-0.2-1.3-0.5c-0.3-0.3-0.5-0.7-0.5-1.2c0-0.4,0.1-0.7,0.3-1c0.2-0.3,0.4-0.5,0.8-0.6    c0.3-0.1,0.7-0.2,1.2-0.3c0.5-0.1,1-0.1,1.5-0.1v-0.1c0-0.2,0-0.4-0.1-0.5s-0.2-0.2-0.3-0.3c-0.1-0.1-0.3-0.1-0.5-0.2    c-0.2,0-0.4,0-0.6,0c-0.2,0-0.5,0-0.8,0.1c-0.3,0.1-0.6,0.2-0.9,0.3h0v-0.9c0.2,0,0.4-0.1,0.8-0.2c0.3-0.1,0.7-0.1,1-0.1    c0.4,0,0.7,0,1,0.1c0.3,0.1,0.5,0.2,0.7,0.3c0.2,0.1,0.4,0.3,0.5,0.6c0.1,0.2,0.2,0.5,0.2,0.9V159.1z M180.1,157.7v-1.5    c-0.3,0-0.6,0-1,0.1c-0.4,0-0.7,0.1-0.9,0.1c-0.3,0.1-0.5,0.2-0.6,0.3c-0.2,0.2-0.2,0.4-0.2,0.7c0,0.3,0.1,0.5,0.3,0.7    c0.2,0.2,0.5,0.2,0.9,0.2c0.3,0,0.6-0.1,0.9-0.2C179.7,158.1,179.9,157.9,180.1,157.7z"/>
	</g>
	<g>
		<path d="M264.4,309h-2.9v-0.7h1v-5.8h-1v-0.7h2.9v0.7h-1v5.8h1V309z"/>
		<path d="M269.4,304.6L269.4,304.6c-0.2,0-0.3-0.1-0.4-0.1c-0.1,0-0.3,0-0.5,0c-0.3,0-0.6,0.1-0.8,0.2c-0.3,0.1-0.5,0.3-0.8,0.5    v3.9H266v-5.5h0.9v0.8c0.4-0.3,0.7-0.5,1-0.6s0.6-0.2,0.9-0.2c0.2,0,0.3,0,0.3,0c0.1,0,0.2,0,0.3,0V304.6z"/>
		<path d="M274.8,309h-0.9v-0.6c-0.3,0.2-0.6,0.4-0.9,0.6c-0.3,0.1-0.6,0.2-0.9,0.2c-0.6,0-1-0.2-1.3-0.5c-0.3-0.3-0.5-0.9-0.5-1.5    v-3.5h0.9v3.1c0,0.3,0,0.5,0,0.7c0,0.2,0.1,0.4,0.2,0.5c0.1,0.1,0.2,0.2,0.3,0.3c0.1,0.1,0.3,0.1,0.6,0.1c0.2,0,0.5-0.1,0.8-0.2    c0.3-0.1,0.5-0.3,0.8-0.5v-4.1h0.9V309z"/>
		<path d="M281.1,309h-0.9v-3.1c0-0.3,0-0.5,0-0.7s-0.1-0.4-0.2-0.5c-0.1-0.1-0.2-0.2-0.4-0.3c-0.2-0.1-0.4-0.1-0.6-0.1    c-0.3,0-0.5,0.1-0.8,0.2c-0.3,0.1-0.5,0.3-0.8,0.5v4.1h-0.9v-5.5h0.9v0.6c0.3-0.2,0.6-0.4,0.9-0.6c0.3-0.1,0.6-0.2,0.9-0.2    c0.6,0,1,0.2,1.3,0.5c0.3,0.4,0.5,0.9,0.5,1.5V309z"/>
	</g>
</g>
<g id="text_x005F_exterior">
	<g>
		<rect x="300.3" y="424.6" style="fill-rule:evenodd;clip-rule:evenodd;fill:none;" width="126.3" height="16.9"/>
		<path d="M317.9,435.3h-1.8l-3.1-5v5h-1.7v-7.3h2.2l2.7,4.2v-4.2h1.7V435.3z"/>
		<path d="M323,434.8c-0.1,0.1-0.2,0.2-0.4,0.3c-0.1,0.1-0.3,0.2-0.4,0.2c-0.2,0.1-0.4,0.1-0.5,0.2c-0.2,0-0.4,0.1-0.6,0.1    c-0.5,0-1-0.2-1.3-0.5s-0.5-0.7-0.5-1.2c0-0.4,0.1-0.7,0.3-1c0.2-0.3,0.4-0.5,0.8-0.6c0.3-0.1,0.7-0.3,1.2-0.3    c0.5-0.1,1-0.1,1.5-0.1v0c0-0.3-0.1-0.5-0.4-0.6c-0.2-0.1-0.6-0.2-1.1-0.2c-0.3,0-0.6,0.1-0.9,0.2c-0.3,0.1-0.6,0.2-0.7,0.2h-0.2    V430c0.2,0,0.5-0.1,0.9-0.2c0.4-0.1,0.8-0.1,1.3-0.1c1,0,1.7,0.2,2.2,0.5c0.4,0.3,0.7,0.8,0.7,1.4v3.7H323V434.8z M323,433.9v-1.1    c-0.2,0-0.5,0-0.8,0.1c-0.3,0-0.5,0.1-0.6,0.1c-0.2,0.1-0.3,0.1-0.4,0.2s-0.1,0.2-0.1,0.4c0,0.1,0,0.2,0,0.3s0.1,0.1,0.1,0.2    c0.1,0.1,0.2,0.1,0.3,0.1c0.1,0,0.3,0,0.5,0c0.2,0,0.4,0,0.5-0.1C322.7,434.1,322.9,434,323,433.9z"/>
		<path d="M331.9,429.9l-2.1,5.5h-2l-2.1-5.5h1.9l1.3,3.8l1.3-3.8H331.9z"/>
		<path d="M336.2,434.8c-0.1,0.1-0.2,0.2-0.4,0.3c-0.1,0.1-0.3,0.2-0.4,0.2c-0.2,0.1-0.4,0.1-0.5,0.2c-0.2,0-0.4,0.1-0.6,0.1    c-0.5,0-1-0.2-1.3-0.5s-0.5-0.7-0.5-1.2c0-0.4,0.1-0.7,0.3-1c0.2-0.3,0.4-0.5,0.8-0.6c0.3-0.1,0.7-0.3,1.2-0.3    c0.5-0.1,1-0.1,1.5-0.1v0c0-0.3-0.1-0.5-0.4-0.6c-0.2-0.1-0.6-0.2-1.1-0.2c-0.3,0-0.6,0.1-0.9,0.2c-0.3,0.1-0.6,0.2-0.7,0.2h-0.2    V430c0.2,0,0.5-0.1,0.9-0.2c0.4-0.1,0.8-0.1,1.3-0.1c1,0,1.7,0.2,2.2,0.5c0.4,0.3,0.7,0.8,0.7,1.4v3.7h-1.7V434.8z M336.2,433.9    v-1.1c-0.2,0-0.5,0-0.8,0.1c-0.3,0-0.5,0.1-0.6,0.1c-0.2,0.1-0.3,0.1-0.4,0.2s-0.1,0.2-0.1,0.4c0,0.1,0,0.2,0,0.3s0.1,0.1,0.1,0.2    c0.1,0.1,0.2,0.1,0.3,0.1c0.1,0,0.3,0,0.5,0c0.2,0,0.4,0,0.5-0.1C335.9,434.1,336,434,336.2,433.9z"/>
		<path d="M343.5,431.5h-0.2c-0.1,0-0.2,0-0.4-0.1c-0.2,0-0.3,0-0.4,0c-0.3,0-0.5,0-0.7,0s-0.4,0.1-0.6,0.2v3.7h-1.8v-5.5h1.8v0.8    c0.4-0.3,0.7-0.6,1-0.7c0.3-0.1,0.5-0.2,0.8-0.2c0.1,0,0.1,0,0.2,0s0.1,0,0.2,0V431.5z"/>
		<path d="M348.5,431.5h-0.2c-0.1,0-0.2,0-0.4-0.1c-0.2,0-0.3,0-0.4,0c-0.3,0-0.5,0-0.7,0s-0.4,0.1-0.6,0.2v3.7h-1.8v-5.5h1.8v0.8    c0.4-0.3,0.7-0.6,1-0.7c0.3-0.1,0.5-0.2,0.8-0.2c0.1,0,0.1,0,0.2,0s0.1,0,0.2,0V431.5z"/>
		<path d="M352.8,434.8c-0.1,0.1-0.2,0.2-0.4,0.3c-0.1,0.1-0.3,0.2-0.4,0.2c-0.2,0.1-0.4,0.1-0.5,0.2c-0.2,0-0.4,0.1-0.6,0.1    c-0.5,0-1-0.2-1.3-0.5s-0.5-0.7-0.5-1.2c0-0.4,0.1-0.7,0.3-1c0.2-0.3,0.4-0.5,0.8-0.6c0.3-0.1,0.7-0.3,1.2-0.3    c0.5-0.1,1-0.1,1.5-0.1v0c0-0.3-0.1-0.5-0.4-0.6c-0.2-0.1-0.6-0.2-1.1-0.2c-0.3,0-0.6,0.1-0.9,0.2c-0.3,0.1-0.6,0.2-0.7,0.2h-0.2    V430c0.2,0,0.5-0.1,0.9-0.2c0.4-0.1,0.8-0.1,1.3-0.1c1,0,1.7,0.2,2.2,0.5c0.4,0.3,0.7,0.8,0.7,1.4v3.7h-1.7V434.8z M352.8,433.9    v-1.1c-0.2,0-0.5,0-0.8,0.1c-0.3,0-0.5,0.1-0.6,0.1c-0.2,0.1-0.3,0.1-0.4,0.2s-0.1,0.2-0.1,0.4c0,0.1,0,0.2,0,0.3s0.1,0.1,0.1,0.2    c0.1,0.1,0.2,0.1,0.3,0.1c0.1,0,0.3,0,0.5,0c0.2,0,0.4,0,0.5-0.1C352.5,434.1,352.7,434,352.8,433.9z"/>
		<path d="M363,432.8h-3.7v-1.4h3.7V432.8z"/>
		<path d="M374.5,435.3h-1.8l-3.1-5v5h-1.7v-7.3h2.2l2.7,4.2v-4.2h1.7V435.3z"/>
		<path d="M379.6,434.8c-0.1,0.1-0.2,0.2-0.4,0.3c-0.1,0.1-0.3,0.2-0.4,0.2c-0.2,0.1-0.4,0.1-0.5,0.2c-0.2,0-0.4,0.1-0.6,0.1    c-0.5,0-1-0.2-1.3-0.5s-0.5-0.7-0.5-1.2c0-0.4,0.1-0.7,0.3-1c0.2-0.3,0.4-0.5,0.8-0.6c0.3-0.1,0.7-0.3,1.2-0.3    c0.5-0.1,1-0.1,1.5-0.1v0c0-0.3-0.1-0.5-0.4-0.6c-0.2-0.1-0.6-0.2-1.1-0.2c-0.3,0-0.6,0.1-0.9,0.2c-0.3,0.1-0.6,0.2-0.7,0.2h-0.2    V430c0.2,0,0.5-0.1,0.9-0.2c0.4-0.1,0.8-0.1,1.3-0.1c1,0,1.7,0.2,2.2,0.5c0.4,0.3,0.7,0.8,0.7,1.4v3.7h-1.7V434.8z M379.6,433.9    v-1.1c-0.2,0-0.5,0-0.8,0.1c-0.3,0-0.5,0.1-0.6,0.1c-0.2,0.1-0.3,0.1-0.4,0.2s-0.1,0.2-0.1,0.4c0,0.1,0,0.2,0,0.3s0.1,0.1,0.1,0.2    c0.1,0.1,0.2,0.1,0.3,0.1c0.1,0,0.3,0,0.5,0c0.2,0,0.4,0,0.5-0.1C379.3,434.1,379.4,434,379.6,433.9z"/>
		<path d="M386.5,429h-0.1c-0.1,0-0.2,0-0.3-0.1s-0.3,0-0.4,0c-0.3,0-0.6,0.1-0.7,0.2c-0.1,0.1-0.2,0.4-0.2,0.7v0h1.4v1.2h-1.3v4.3    h-1.8V431h-0.8v-1.2h0.8v-0.2c0-0.7,0.2-1.2,0.5-1.5s0.9-0.5,1.6-0.5c0.3,0,0.5,0,0.7,0c0.2,0,0.4,0,0.6,0.1V429z"/>
		<path d="M390.5,434.8c-0.1,0.1-0.2,0.2-0.4,0.3c-0.1,0.1-0.3,0.2-0.4,0.2c-0.2,0.1-0.4,0.1-0.5,0.2c-0.2,0-0.4,0.1-0.6,0.1    c-0.5,0-1-0.2-1.3-0.5s-0.5-0.7-0.5-1.2c0-0.4,0.1-0.7,0.3-1c0.2-0.3,0.4-0.5,0.8-0.6c0.3-0.1,0.7-0.3,1.2-0.3    c0.5-0.1,1-0.1,1.5-0.1v0c0-0.3-0.1-0.5-0.4-0.6c-0.2-0.1-0.6-0.2-1.1-0.2c-0.3,0-0.6,0.1-0.9,0.2c-0.3,0.1-0.6,0.2-0.7,0.2h-0.2    V430c0.2,0,0.5-0.1,0.9-0.2c0.4-0.1,0.8-0.1,1.3-0.1c1,0,1.7,0.2,2.2,0.5c0.4,0.3,0.7,0.8,0.7,1.4v3.7h-1.7V434.8z M390.5,433.9    v-1.1c-0.2,0-0.5,0-0.8,0.1c-0.3,0-0.5,0.1-0.6,0.1c-0.2,0.1-0.3,0.1-0.4,0.2s-0.1,0.2-0.1,0.4c0,0.1,0,0.2,0,0.3s0.1,0.1,0.1,0.2    c0.1,0.1,0.2,0.1,0.3,0.1c0.1,0,0.3,0,0.5,0c0.2,0,0.4,0,0.5-0.1C390.2,434.1,390.3,434,390.5,433.9z"/>
		<path d="M397.8,431.5h-0.2c-0.1,0-0.2,0-0.4-0.1c-0.2,0-0.3,0-0.4,0c-0.3,0-0.5,0-0.7,0s-0.4,0.1-0.6,0.2v3.7h-1.8v-5.5h1.8v0.8    c0.4-0.3,0.7-0.6,1-0.7c0.3-0.1,0.5-0.2,0.8-0.2c0.1,0,0.1,0,0.2,0s0.1,0,0.2,0V431.5z"/>
		<path d="M402.8,431.5h-0.2c-0.1,0-0.2,0-0.4-0.1c-0.2,0-0.3,0-0.4,0c-0.3,0-0.5,0-0.7,0s-0.4,0.1-0.6,0.2v3.7h-1.8v-5.5h1.8v0.8    c0.4-0.3,0.7-0.6,1-0.7c0.3-0.1,0.5-0.2,0.8-0.2c0.1,0,0.1,0,0.2,0s0.1,0,0.2,0V431.5z"/>
		<path d="M409.4,432.6c0,0.9-0.3,1.6-0.8,2.1c-0.5,0.5-1.3,0.8-2.2,0.8c-1,0-1.7-0.3-2.2-0.8c-0.5-0.5-0.8-1.2-0.8-2.1    c0-0.9,0.3-1.6,0.8-2.1s1.3-0.8,2.2-0.8c1,0,1.7,0.3,2.2,0.8S409.4,431.7,409.4,432.6z M407.2,433.9c0.1-0.1,0.2-0.3,0.3-0.5    c0.1-0.2,0.1-0.5,0.1-0.8c0-0.3,0-0.6-0.1-0.8s-0.1-0.4-0.2-0.5c-0.1-0.1-0.2-0.2-0.4-0.3s-0.3-0.1-0.5-0.1c-0.2,0-0.3,0-0.5,0.1    s-0.3,0.1-0.4,0.3c-0.1,0.1-0.2,0.3-0.3,0.5s-0.1,0.5-0.1,0.8c0,0.3,0,0.6,0.1,0.8c0.1,0.2,0.1,0.4,0.2,0.5    c0.1,0.1,0.2,0.2,0.4,0.3s0.3,0.1,0.5,0.1c0.2,0,0.3,0,0.5-0.1C407,434.2,407.1,434.1,407.2,433.9z"/>
		<path d="M414,434.8c-0.1,0.1-0.2,0.2-0.4,0.3c-0.1,0.1-0.3,0.2-0.4,0.2c-0.2,0.1-0.4,0.1-0.5,0.2c-0.2,0-0.4,0.1-0.6,0.1    c-0.5,0-1-0.2-1.3-0.5s-0.5-0.7-0.5-1.2c0-0.4,0.1-0.7,0.3-1c0.2-0.3,0.4-0.5,0.8-0.6c0.3-0.1,0.7-0.3,1.2-0.3    c0.5-0.1,1-0.1,1.5-0.1v0c0-0.3-0.1-0.5-0.4-0.6c-0.2-0.1-0.6-0.2-1.1-0.2c-0.3,0-0.6,0.1-0.9,0.2c-0.3,0.1-0.6,0.2-0.7,0.2h-0.2    V430c0.2,0,0.5-0.1,0.9-0.2c0.4-0.1,0.8-0.1,1.3-0.1c1,0,1.7,0.2,2.2,0.5c0.4,0.3,0.7,0.8,0.7,1.4v3.7H414V434.8z M414,433.9v-1.1    c-0.2,0-0.5,0-0.8,0.1c-0.3,0-0.5,0.1-0.6,0.1c-0.2,0.1-0.3,0.1-0.4,0.2s-0.1,0.2-0.1,0.4c0,0.1,0,0.2,0,0.3s0.1,0.1,0.1,0.2    c0.1,0.1,0.2,0.1,0.3,0.1c0.1,0,0.3,0,0.5,0c0.2,0,0.4,0,0.5-0.1C413.7,434.1,413.8,434,414,433.9z"/>
	</g>
	<g>
		<rect x="28.2" y="366.9" style="fill-rule:evenodd;clip-rule:evenodd;fill:none;" width="131.8" height="11"/>
		<path d="M65.2,374c0,0.7-0.2,1.3-0.5,1.8c-0.3,0.5-0.7,0.9-1.2,1.2c-0.4,0.2-0.7,0.4-1.2,0.4s-0.9,0.1-1.5,0.1h-2.6v-7.3h2.6    c0.6,0,1.1,0,1.5,0.1c0.4,0.1,0.8,0.2,1.1,0.4c0.5,0.3,0.9,0.7,1.2,1.2C65,372.7,65.2,373.3,65.2,374z M63.2,374    c0-0.5-0.1-0.9-0.3-1.2c-0.2-0.3-0.5-0.6-0.8-0.8c-0.2-0.1-0.4-0.2-0.6-0.2c-0.2,0-0.5-0.1-0.9-0.1h-0.5v4.6h0.5    c0.4,0,0.8,0,1-0.1c0.2,0,0.4-0.1,0.6-0.2c0.3-0.2,0.6-0.5,0.8-0.8C63.1,374.9,63.2,374.5,63.2,374z"/>
		<path d="M72.1,374.9c0,0.9-0.3,1.6-0.8,2.1c-0.5,0.5-1.3,0.8-2.2,0.8s-1.7-0.3-2.2-0.8c-0.5-0.5-0.8-1.2-0.8-2.1    c0-0.9,0.3-1.6,0.8-2.1s1.3-0.8,2.2-0.8c1,0,1.7,0.3,2.2,0.8S72.1,374,72.1,374.9z M69.9,376.2c0.1-0.1,0.2-0.3,0.3-0.5    c0.1-0.2,0.1-0.5,0.1-0.8c0-0.3,0-0.6-0.1-0.8s-0.1-0.4-0.2-0.5c-0.1-0.1-0.2-0.2-0.4-0.3s-0.3-0.1-0.5-0.1s-0.3,0-0.5,0.1    s-0.3,0.1-0.4,0.3c-0.1,0.1-0.2,0.3-0.3,0.5s-0.1,0.5-0.1,0.8c0,0.3,0,0.6,0.1,0.8c0.1,0.2,0.1,0.4,0.2,0.5    c0.1,0.1,0.2,0.2,0.4,0.3s0.3,0.1,0.5,0.1c0.2,0,0.3,0,0.5-0.1C69.7,376.5,69.8,376.4,69.9,376.2z"/>
		<path d="M78.9,377.7h-1.8v-2.7c0-0.2,0-0.4,0-0.7c0-0.2-0.1-0.4-0.1-0.5c-0.1-0.1-0.2-0.2-0.3-0.3s-0.3-0.1-0.5-0.1    c-0.2,0-0.3,0-0.5,0.1s-0.3,0.1-0.5,0.2v3.9h-1.8v-5.5h1.8v0.6c0.3-0.2,0.6-0.4,0.9-0.6c0.3-0.1,0.6-0.2,1-0.2    c0.6,0,1.1,0.2,1.4,0.5c0.3,0.3,0.5,0.9,0.5,1.5V377.7z"/>
		<path d="M86.1,374.9c0,0.9-0.3,1.6-0.8,2.1c-0.5,0.5-1.3,0.8-2.2,0.8s-1.7-0.3-2.2-0.8c-0.5-0.5-0.8-1.2-0.8-2.1    c0-0.9,0.3-1.6,0.8-2.1s1.3-0.8,2.2-0.8c1,0,1.7,0.3,2.2,0.8S86.1,374,86.1,374.9z M83.9,376.2c0.1-0.1,0.2-0.3,0.3-0.5    c0.1-0.2,0.1-0.5,0.1-0.8c0-0.3,0-0.6-0.1-0.8s-0.1-0.4-0.2-0.5c-0.1-0.1-0.2-0.2-0.4-0.3s-0.3-0.1-0.5-0.1s-0.3,0-0.5,0.1    s-0.3,0.1-0.4,0.3c-0.1,0.1-0.2,0.3-0.3,0.5s-0.1,0.5-0.1,0.8c0,0.3,0,0.6,0.1,0.8c0.1,0.2,0.1,0.4,0.2,0.5    c0.1,0.1,0.2,0.2,0.4,0.3s0.3,0.1,0.5,0.1c0.2,0,0.3,0,0.5-0.1C83.7,376.5,83.8,376.4,83.9,376.2z"/>
		<path d="M92.1,375.9c0,0.6-0.3,1-0.8,1.4c-0.5,0.3-1.2,0.5-2.1,0.5c-0.5,0-0.9,0-1.3-0.1s-0.7-0.2-1-0.3v-1.4h0.2    c0.1,0.1,0.2,0.1,0.3,0.2c0.1,0.1,0.3,0.2,0.5,0.2c0.2,0.1,0.4,0.1,0.6,0.2c0.2,0.1,0.5,0.1,0.7,0.1c0.3,0,0.6,0,0.8-0.1    c0.2-0.1,0.2-0.2,0.2-0.3c0-0.1,0-0.2-0.1-0.3c-0.1-0.1-0.3-0.1-0.6-0.2c-0.1,0-0.3-0.1-0.5-0.1c-0.2,0-0.4-0.1-0.6-0.1    c-0.5-0.1-0.9-0.3-1.1-0.6c-0.2-0.3-0.4-0.6-0.4-1c0-0.5,0.3-1,0.7-1.3c0.5-0.3,1.2-0.5,2-0.5c0.4,0,0.8,0,1.2,0.1    c0.4,0.1,0.7,0.2,0.9,0.3v1.4h-0.2c-0.3-0.2-0.6-0.3-0.9-0.4c-0.3-0.1-0.7-0.2-1-0.2c-0.3,0-0.5,0-0.7,0.1s-0.3,0.2-0.3,0.3    c0,0.1,0,0.2,0.1,0.3s0.3,0.1,0.6,0.2c0.2,0,0.4,0.1,0.6,0.1c0.2,0,0.4,0.1,0.6,0.1c0.5,0.1,0.8,0.3,1,0.6    C92,375.2,92.1,375.5,92.1,375.9z"/>
		<path d="M96.8,377.6c-0.2,0-0.4,0.1-0.6,0.1c-0.2,0-0.5,0-0.8,0c-0.7,0-1.2-0.1-1.5-0.4s-0.5-0.8-0.5-1.4v-2.6h-0.7v-1.2h0.7v-1.6    h1.8v1.6h1.6v1.2h-1.6v1.9c0,0.2,0,0.4,0,0.5s0,0.3,0.1,0.4c0,0.1,0.1,0.2,0.2,0.3c0.1,0.1,0.3,0.1,0.5,0.1c0.1,0,0.2,0,0.4-0.1    c0.1,0,0.3-0.1,0.3-0.1h0.1V377.6z"/>
		<path d="M99.6,371.4h-1.9v-1.3h1.9V371.4z M99.6,377.7h-1.8v-5.5h1.8V377.7z"/>
		<path d="M104.6,377.1c-0.1,0.1-0.2,0.2-0.4,0.3s-0.3,0.2-0.4,0.2c-0.2,0.1-0.4,0.1-0.5,0.2c-0.2,0-0.4,0.1-0.6,0.1    c-0.5,0-1-0.2-1.3-0.5s-0.5-0.7-0.5-1.2c0-0.4,0.1-0.7,0.3-1s0.4-0.5,0.8-0.6c0.3-0.1,0.7-0.3,1.2-0.3s1-0.1,1.5-0.1v0    c0-0.3-0.1-0.5-0.4-0.6c-0.2-0.1-0.6-0.2-1.1-0.2c-0.3,0-0.6,0.1-0.9,0.2c-0.3,0.1-0.6,0.2-0.7,0.2h-0.2v-1.3    c0.2,0,0.5-0.1,0.9-0.2c0.4-0.1,0.8-0.1,1.3-0.1c1,0,1.7,0.2,2.2,0.5c0.4,0.3,0.7,0.8,0.7,1.4v3.7h-1.7V377.1z M104.6,376.2v-1.1    c-0.2,0-0.5,0-0.8,0.1s-0.5,0.1-0.6,0.1c-0.2,0.1-0.3,0.1-0.4,0.2s-0.1,0.2-0.1,0.4c0,0.1,0,0.2,0,0.3s0.1,0.1,0.1,0.2    c0.1,0.1,0.2,0.1,0.3,0.1c0.1,0,0.3,0,0.5,0c0.2,0,0.4,0,0.5-0.1C104.3,376.4,104.4,376.3,104.6,376.2z"/>
		<path d="M109.7,377.7h-1.8v-7.6h1.8V377.7z"/>
		<path d="M116.7,377.7h-1.8v-0.6c-0.3,0.2-0.6,0.4-0.8,0.5s-0.6,0.2-0.9,0.2c-0.7,0-1.2-0.3-1.6-0.8c-0.4-0.5-0.6-1.2-0.6-2.1    c0-0.5,0.1-0.9,0.2-1.2c0.1-0.4,0.3-0.7,0.6-0.9c0.2-0.2,0.5-0.4,0.8-0.6c0.3-0.1,0.6-0.2,0.9-0.2c0.3,0,0.6,0,0.8,0.1    c0.2,0.1,0.4,0.2,0.6,0.3v-2.3h1.8V377.7z M114.9,376.1v-2.7c-0.1-0.1-0.3-0.1-0.4-0.1c-0.1,0-0.3,0-0.4,0c-0.5,0-0.8,0.1-1,0.4    c-0.2,0.3-0.3,0.7-0.3,1.2c0,0.5,0.1,0.9,0.3,1.2s0.5,0.4,0.9,0.4c0.2,0,0.3,0,0.5-0.1C114.6,376.3,114.8,376.2,114.9,376.1z"/>
		<path d="M123.7,375.2h-4c0,0.4,0.2,0.8,0.5,1s0.7,0.3,1.3,0.3c0.4,0,0.7-0.1,1.1-0.2s0.6-0.3,0.8-0.4h0.2v1.4    c-0.4,0.2-0.8,0.3-1.1,0.3s-0.7,0.1-1.2,0.1c-1.1,0-1.9-0.2-2.5-0.7s-0.9-1.2-0.9-2.1c0-0.9,0.3-1.6,0.8-2.2    c0.6-0.5,1.3-0.8,2.3-0.8c0.9,0,1.6,0.2,2,0.7c0.4,0.5,0.7,1.1,0.7,1.9V375.2z M122,374.2c0-0.4-0.1-0.6-0.3-0.8s-0.4-0.3-0.8-0.3    c-0.3,0-0.6,0.1-0.8,0.3s-0.3,0.5-0.4,0.8H122z"/>
		<path d="M128.3,377.1c-0.1,0.1-0.2,0.2-0.4,0.3s-0.3,0.2-0.4,0.2c-0.2,0.1-0.4,0.1-0.5,0.2c-0.2,0-0.4,0.1-0.6,0.1    c-0.5,0-1-0.2-1.3-0.5s-0.5-0.7-0.5-1.2c0-0.4,0.1-0.7,0.3-1s0.4-0.5,0.8-0.6c0.3-0.1,0.7-0.3,1.2-0.3s1-0.1,1.5-0.1v0    c0-0.3-0.1-0.5-0.4-0.6c-0.2-0.1-0.6-0.2-1.1-0.2c-0.3,0-0.6,0.1-0.9,0.2c-0.3,0.1-0.6,0.2-0.7,0.2H125v-1.3    c0.2,0,0.5-0.1,0.9-0.2c0.4-0.1,0.8-0.1,1.3-0.1c1,0,1.7,0.2,2.2,0.5c0.4,0.3,0.7,0.8,0.7,1.4v3.7h-1.7V377.1z M128.3,376.2v-1.1    c-0.2,0-0.5,0-0.8,0.1s-0.5,0.1-0.6,0.1c-0.2,0.1-0.3,0.1-0.4,0.2s-0.1,0.2-0.1,0.4c0,0.1,0,0.2,0,0.3s0.1,0.1,0.1,0.2    c0.1,0.1,0.2,0.1,0.3,0.1c0.1,0,0.3,0,0.5,0c0.2,0,0.4,0,0.5-0.1C128,376.4,128.2,376.3,128.3,376.2z"/>
	</g>
	<g>
		<rect x="302.6" y="162.6" style="fill-rule:evenodd;clip-rule:evenodd;fill:none;" width="134.1" height="28.8"/>
		<path d="M319,168.3c0,0.3-0.1,0.6-0.2,1s-0.3,0.6-0.5,0.8c-0.3,0.3-0.6,0.5-1,0.6c-0.4,0.1-0.8,0.2-1.3,0.2h-1.2v2.4H313V166h3.1    c0.5,0,0.9,0,1.2,0.1c0.3,0.1,0.6,0.2,0.8,0.4c0.3,0.2,0.5,0.4,0.7,0.7C319,167.5,319,167.9,319,168.3z M317.1,168.4    c0-0.2-0.1-0.4-0.2-0.5s-0.2-0.3-0.4-0.3c-0.2-0.1-0.4-0.1-0.6-0.1s-0.4,0-0.7,0h-0.3v2.2h0.5c0.3,0,0.6,0,0.8-0.1    c0.2,0,0.4-0.1,0.5-0.2c0.1-0.1,0.2-0.2,0.3-0.4C317.1,168.7,317.1,168.6,317.1,168.4z"/>
		<path d="M323.6,172.7c-0.1,0.1-0.2,0.2-0.4,0.3s-0.3,0.2-0.4,0.2c-0.2,0.1-0.4,0.1-0.5,0.2s-0.4,0.1-0.6,0.1c-0.5,0-1-0.2-1.3-0.5    s-0.5-0.7-0.5-1.2c0-0.4,0.1-0.7,0.3-1s0.4-0.5,0.8-0.6c0.3-0.1,0.7-0.3,1.2-0.3s1-0.1,1.5-0.1v0c0-0.3-0.1-0.5-0.4-0.6    s-0.6-0.2-1.1-0.2c-0.3,0-0.6,0.1-0.9,0.2s-0.6,0.2-0.7,0.2h-0.2v-1.3c0.2,0,0.5-0.1,0.9-0.2c0.4-0.1,0.8-0.1,1.3-0.1    c1,0,1.7,0.2,2.2,0.5c0.4,0.3,0.7,0.8,0.7,1.4v3.7h-1.7V172.7z M323.6,171.9v-1.1c-0.2,0-0.5,0-0.8,0.1c-0.3,0-0.5,0.1-0.6,0.1    c-0.2,0.1-0.3,0.1-0.4,0.2c-0.1,0.1-0.1,0.2-0.1,0.4c0,0.1,0,0.2,0,0.3c0,0.1,0.1,0.1,0.1,0.2c0.1,0.1,0.2,0.1,0.3,0.1    s0.3,0,0.5,0c0.2,0,0.4,0,0.5-0.1C323.3,172.1,323.5,172,323.6,171.9z"/>
		<path d="M329.6,165.1L329.6,165.1l-1.7,1.9h-1.2l1.2-1.9H329.6z M328.7,173.3h-1.8v-5.5h1.8V173.3z"/>
		<path d="M335.1,171.6c0,0.6-0.3,1-0.8,1.4s-1.2,0.5-2.1,0.5c-0.5,0-0.9,0-1.3-0.1s-0.7-0.2-1-0.3v-1.4h0.2    c0.1,0.1,0.2,0.1,0.3,0.2c0.1,0.1,0.3,0.2,0.5,0.2c0.2,0.1,0.4,0.1,0.6,0.2s0.5,0.1,0.7,0.1c0.3,0,0.6,0,0.8-0.1s0.2-0.2,0.2-0.3    c0-0.1,0-0.2-0.1-0.3s-0.3-0.1-0.6-0.2c-0.1,0-0.3-0.1-0.5-0.1c-0.2,0-0.4-0.1-0.6-0.1c-0.5-0.1-0.9-0.3-1.1-0.6s-0.4-0.6-0.4-1    c0-0.5,0.3-1,0.7-1.3c0.5-0.4,1.2-0.5,2-0.5c0.4,0,0.8,0,1.2,0.1c0.4,0.1,0.7,0.2,0.9,0.3v1.4h-0.2c-0.3-0.2-0.6-0.3-0.9-0.4    c-0.3-0.1-0.7-0.2-1-0.2c-0.3,0-0.5,0-0.7,0.1c-0.2,0.1-0.3,0.2-0.3,0.3c0,0.1,0,0.2,0.1,0.3s0.3,0.1,0.6,0.2    c0.2,0,0.4,0.1,0.6,0.1c0.2,0,0.4,0.1,0.6,0.1c0.5,0.1,0.8,0.3,1,0.6S335.1,171.2,335.1,171.6z"/>
		<path d="M346.4,166l-2.7,7.3h-2.1L339,166h2l1.8,5.1l1.8-5.1H346.4z"/>
		<path d="M350.7,172.7c-0.1,0.1-0.2,0.2-0.4,0.3s-0.3,0.2-0.4,0.2c-0.2,0.1-0.4,0.1-0.5,0.2s-0.4,0.1-0.6,0.1c-0.5,0-1-0.2-1.3-0.5    s-0.5-0.7-0.5-1.2c0-0.4,0.1-0.7,0.3-1s0.4-0.5,0.8-0.6c0.3-0.1,0.7-0.3,1.2-0.3s1-0.1,1.5-0.1v0c0-0.3-0.1-0.5-0.4-0.6    s-0.6-0.2-1.1-0.2c-0.3,0-0.6,0.1-0.9,0.2s-0.6,0.2-0.7,0.2h-0.2v-1.3c0.2,0,0.5-0.1,0.9-0.2c0.4-0.1,0.8-0.1,1.3-0.1    c1,0,1.7,0.2,2.2,0.5c0.4,0.3,0.7,0.8,0.7,1.4v3.7h-1.7V172.7z M350.7,171.9v-1.1c-0.2,0-0.5,0-0.8,0.1c-0.3,0-0.5,0.1-0.6,0.1    c-0.2,0.1-0.3,0.1-0.4,0.2c-0.1,0.1-0.1,0.2-0.1,0.4c0,0.1,0,0.2,0,0.3c0,0.1,0.1,0.1,0.1,0.2c0.1,0.1,0.2,0.1,0.3,0.1    s0.3,0,0.5,0c0.2,0,0.4,0,0.5-0.1C350.4,172.1,350.5,172,350.7,171.9z"/>
		<path d="M358.8,171.6c0,0.6-0.3,1-0.8,1.4s-1.2,0.5-2.1,0.5c-0.5,0-0.9,0-1.3-0.1s-0.7-0.2-1-0.3v-1.4h0.2    c0.1,0.1,0.2,0.1,0.3,0.2c0.1,0.1,0.3,0.2,0.5,0.2c0.2,0.1,0.4,0.1,0.6,0.2s0.5,0.1,0.7,0.1c0.3,0,0.6,0,0.8-0.1s0.2-0.2,0.2-0.3    c0-0.1,0-0.2-0.1-0.3s-0.3-0.1-0.6-0.2c-0.1,0-0.3-0.1-0.5-0.1c-0.2,0-0.4-0.1-0.6-0.1c-0.5-0.1-0.9-0.3-1.1-0.6s-0.4-0.6-0.4-1    c0-0.5,0.3-1,0.8-1.3c0.5-0.4,1.2-0.5,2-0.5c0.4,0,0.8,0,1.2,0.1c0.4,0.1,0.7,0.2,0.9,0.3v1.4h-0.2c-0.3-0.2-0.6-0.3-0.9-0.4    c-0.3-0.1-0.7-0.2-1-0.2c-0.3,0-0.5,0-0.7,0.1c-0.2,0.1-0.3,0.2-0.3,0.3c0,0.1,0,0.2,0.1,0.3s0.3,0.1,0.6,0.2    c0.2,0,0.4,0.1,0.6,0.1c0.2,0,0.4,0.1,0.6,0.1c0.5,0.1,0.8,0.3,1,0.6S358.8,171.2,358.8,171.6z"/>
		<path d="M362.8,173.4c-0.5,0-0.9-0.1-1.3-0.2c-0.4-0.1-0.7-0.3-1-0.5c-0.3-0.2-0.5-0.5-0.7-0.9s-0.2-0.8-0.2-1.3    c0-0.5,0.1-1,0.3-1.3c0.2-0.4,0.4-0.7,0.7-0.9c0.3-0.2,0.6-0.4,1-0.5s0.8-0.2,1.2-0.2c0.4,0,0.7,0,1,0.1s0.6,0.2,0.9,0.3v1.5h-0.2    c-0.1-0.1-0.2-0.1-0.2-0.2s-0.2-0.2-0.4-0.2c-0.1-0.1-0.3-0.1-0.4-0.2s-0.3-0.1-0.6-0.1c-0.5,0-0.8,0.1-1.1,0.4s-0.4,0.7-0.4,1.2    c0,0.5,0.1,0.9,0.4,1.2c0.3,0.3,0.6,0.4,1.1,0.4c0.2,0,0.4,0,0.6-0.1c0.2-0.1,0.3-0.1,0.4-0.2c0.1-0.1,0.2-0.1,0.3-0.2    c0.1-0.1,0.2-0.1,0.2-0.2h0.2v1.5c-0.3,0.1-0.6,0.2-0.9,0.3C363.5,173.4,363.2,173.4,362.8,173.4z"/>
		<path d="M371.5,170.6c0,0.9-0.3,1.6-0.8,2.1c-0.5,0.5-1.3,0.8-2.2,0.8s-1.7-0.3-2.2-0.8c-0.5-0.5-0.8-1.2-0.8-2.1    c0-0.9,0.3-1.6,0.8-2.1c0.5-0.5,1.3-0.8,2.2-0.8c1,0,1.7,0.3,2.2,0.8C371.2,168.9,371.5,169.7,371.5,170.6z M369.3,171.9    c0.1-0.1,0.2-0.3,0.3-0.5c0.1-0.2,0.1-0.5,0.1-0.8c0-0.3,0-0.6-0.1-0.8s-0.1-0.4-0.2-0.5c-0.1-0.1-0.2-0.2-0.4-0.3    s-0.3-0.1-0.5-0.1s-0.3,0-0.5,0.1c-0.1,0-0.3,0.1-0.4,0.3c-0.1,0.1-0.2,0.3-0.3,0.5c-0.1,0.2-0.1,0.5-0.1,0.8c0,0.3,0,0.6,0.1,0.8    s0.1,0.4,0.2,0.5c0.1,0.1,0.2,0.2,0.4,0.3c0.1,0.1,0.3,0.1,0.5,0.1c0.2,0,0.3,0,0.5-0.1C369.1,172.1,369.2,172,369.3,171.9z"/>
		<path d="M381.4,167.4h-3.3v1.4h3.1v1.4h-3.1v3.1h-1.9V166h5.2V167.4z"/>
		<path d="M386.6,169.5h-0.2c-0.1,0-0.2,0-0.4-0.1s-0.3,0-0.4,0c-0.3,0-0.5,0-0.7,0c-0.2,0-0.4,0.1-0.6,0.2v3.7h-1.8v-5.5h1.8v0.8    c0.4-0.3,0.7-0.6,1-0.7c0.3-0.1,0.5-0.2,0.8-0.2c0.1,0,0.1,0,0.2,0c0.1,0,0.1,0,0.2,0V169.5z"/>
		<path d="M390.9,172.7c-0.1,0.1-0.2,0.2-0.4,0.3s-0.3,0.2-0.4,0.2c-0.2,0.1-0.4,0.1-0.5,0.2s-0.4,0.1-0.6,0.1c-0.5,0-1-0.2-1.3-0.5    s-0.5-0.7-0.5-1.2c0-0.4,0.1-0.7,0.3-1s0.4-0.5,0.8-0.6c0.3-0.1,0.7-0.3,1.2-0.3s1-0.1,1.5-0.1v0c0-0.3-0.1-0.5-0.4-0.6    s-0.6-0.2-1.1-0.2c-0.3,0-0.6,0.1-0.9,0.2s-0.6,0.2-0.7,0.2h-0.2v-1.3c0.2,0,0.5-0.1,0.9-0.2c0.4-0.1,0.8-0.1,1.3-0.1    c1,0,1.7,0.2,2.2,0.5c0.4,0.3,0.7,0.8,0.7,1.4v3.7h-1.7V172.7z M390.9,171.9v-1.1c-0.2,0-0.5,0-0.8,0.1c-0.3,0-0.5,0.1-0.6,0.1    c-0.2,0.1-0.3,0.1-0.4,0.2c-0.1,0.1-0.1,0.2-0.1,0.4c0,0.1,0,0.2,0,0.3c0,0.1,0.1,0.1,0.1,0.2c0.1,0.1,0.2,0.1,0.3,0.1    s0.3,0,0.5,0c0.2,0,0.4,0,0.5-0.1C390.6,172.1,390.8,172,390.9,171.9z"/>
		<path d="M399.8,173.3H398v-2.7c0-0.2,0-0.4,0-0.7s-0.1-0.4-0.1-0.5c-0.1-0.1-0.2-0.2-0.3-0.3c-0.1-0.1-0.3-0.1-0.5-0.1    c-0.2,0-0.3,0-0.5,0.1c-0.2,0.1-0.3,0.1-0.5,0.2v3.9h-1.8v-5.5h1.8v0.6c0.3-0.2,0.6-0.4,0.9-0.6c0.3-0.1,0.6-0.2,1-0.2    c0.6,0,1.1,0.2,1.4,0.5s0.5,0.9,0.5,1.5V173.3z"/>
		<path d="M404.3,173.4c-0.5,0-0.9-0.1-1.3-0.2c-0.4-0.1-0.7-0.3-1-0.5c-0.3-0.2-0.5-0.5-0.7-0.9s-0.2-0.8-0.2-1.3    c0-0.5,0.1-1,0.3-1.3c0.2-0.4,0.4-0.7,0.7-0.9c0.3-0.2,0.6-0.4,1-0.5s0.8-0.2,1.2-0.2c0.4,0,0.7,0,1,0.1s0.6,0.2,0.9,0.3v1.5h-0.2    c-0.1-0.1-0.2-0.1-0.2-0.2s-0.2-0.2-0.4-0.2c-0.1-0.1-0.3-0.1-0.4-0.2s-0.3-0.1-0.6-0.1c-0.5,0-0.8,0.1-1.1,0.4s-0.4,0.7-0.4,1.2    c0,0.5,0.1,0.9,0.4,1.2c0.3,0.3,0.6,0.4,1.1,0.4c0.2,0,0.4,0,0.6-0.1c0.2-0.1,0.3-0.1,0.4-0.2c0.1-0.1,0.2-0.1,0.3-0.2    c0.1-0.1,0.2-0.1,0.2-0.2h0.2v1.5c-0.3,0.1-0.6,0.2-0.9,0.3C405,173.4,404.6,173.4,404.3,173.4z"/>
		<path d="M412.7,170.9h-4c0,0.4,0.2,0.8,0.5,1c0.3,0.2,0.7,0.3,1.3,0.3c0.4,0,0.7-0.1,1.1-0.2s0.6-0.3,0.8-0.4h0.2v1.4    c-0.4,0.2-0.8,0.3-1.1,0.3s-0.7,0.1-1.2,0.1c-1.1,0-1.9-0.2-2.5-0.7s-0.9-1.2-0.9-2.1c0-0.9,0.3-1.6,0.8-2.2    c0.6-0.5,1.3-0.8,2.3-0.8c0.9,0,1.6,0.2,2,0.7s0.7,1.1,0.7,1.9V170.9z M410.9,169.9c0-0.4-0.1-0.6-0.3-0.8s-0.4-0.3-0.8-0.3    c-0.3,0-0.6,0.1-0.8,0.3s-0.3,0.5-0.4,0.8H410.9z M411.7,165.1L411.7,165.1l-1.7,1.9h-1.2l1.2-1.9H411.7z"/>
		<path d="M418.7,171.6c0,0.6-0.3,1-0.8,1.4s-1.2,0.5-2.1,0.5c-0.5,0-0.9,0-1.3-0.1s-0.7-0.2-1-0.3v-1.4h0.2    c0.1,0.1,0.2,0.1,0.3,0.2c0.1,0.1,0.3,0.2,0.5,0.2c0.2,0.1,0.4,0.1,0.6,0.2s0.5,0.1,0.7,0.1c0.3,0,0.6,0,0.8-0.1s0.2-0.2,0.2-0.3    c0-0.1,0-0.2-0.1-0.3s-0.3-0.1-0.6-0.2c-0.1,0-0.3-0.1-0.5-0.1c-0.2,0-0.4-0.1-0.6-0.1c-0.5-0.1-0.9-0.3-1.1-0.6s-0.4-0.6-0.4-1    c0-0.5,0.3-1,0.8-1.3c0.5-0.4,1.2-0.5,2-0.5c0.4,0,0.8,0,1.2,0.1c0.4,0.1,0.7,0.2,0.9,0.3v1.4h-0.2c-0.3-0.2-0.6-0.3-0.9-0.4    c-0.3-0.1-0.7-0.2-1-0.2c-0.3,0-0.5,0-0.7,0.1c-0.2,0.1-0.3,0.2-0.3,0.3c0,0.1,0,0.2,0.1,0.3s0.3,0.1,0.6,0.2    c0.2,0,0.4,0.1,0.6,0.1c0.2,0,0.4,0.1,0.6,0.1c0.5,0.1,0.8,0.3,1,0.6S418.7,171.2,418.7,171.6z"/>
		<path d="M426.7,170.8H423v-1.4h3.7V170.8z"/>
		<path d="M348.1,184.3h-4.3V183h1.2v-4.7h-1.2V177h4.3v1.3h-1.2v4.7h1.2V184.3z"/>
		<path d="M355.3,181.5c0,0.5-0.1,0.9-0.2,1.2c-0.1,0.4-0.3,0.7-0.5,0.9c-0.2,0.3-0.5,0.4-0.8,0.6c-0.3,0.1-0.6,0.2-1,0.2    c-0.3,0-0.6,0-0.8-0.1c-0.2-0.1-0.4-0.2-0.7-0.3v2.3h-1.8v-7.5h1.8v0.6c0.3-0.2,0.5-0.4,0.8-0.5c0.3-0.1,0.6-0.2,1-0.2    c0.7,0,1.2,0.3,1.6,0.8C355.1,179.9,355.3,180.6,355.3,181.5z M353.5,181.5c0-0.5-0.1-0.9-0.3-1.2c-0.2-0.2-0.5-0.4-0.9-0.4    c-0.2,0-0.3,0-0.5,0.1c-0.2,0.1-0.3,0.1-0.5,0.2v2.8c0.1,0,0.2,0.1,0.4,0.1c0.1,0,0.3,0,0.4,0c0.5,0,0.8-0.1,1-0.4    S353.5,182.1,353.5,181.5z"/>
		<path d="M359.9,183.7c-0.1,0.1-0.2,0.2-0.4,0.3c-0.1,0.1-0.3,0.2-0.4,0.2c-0.2,0.1-0.4,0.1-0.5,0.2c-0.2,0-0.4,0.1-0.6,0.1    c-0.5,0-1-0.2-1.3-0.5s-0.5-0.7-0.5-1.2c0-0.4,0.1-0.7,0.3-1s0.4-0.5,0.8-0.6c0.3-0.1,0.7-0.3,1.2-0.3c0.5-0.1,1-0.1,1.5-0.1v0    c0-0.3-0.1-0.5-0.4-0.6c-0.2-0.1-0.6-0.2-1.1-0.2c-0.3,0-0.6,0.1-0.9,0.2s-0.6,0.2-0.7,0.2h-0.2v-1.3c0.2,0,0.5-0.1,0.9-0.2    c0.4-0.1,0.8-0.1,1.3-0.1c1,0,1.7,0.2,2.2,0.5c0.4,0.3,0.7,0.8,0.7,1.4v3.7h-1.7V183.7z M359.9,182.9v-1.1c-0.2,0-0.5,0-0.8,0.1    s-0.5,0.1-0.6,0.1c-0.2,0.1-0.3,0.1-0.4,0.2c-0.1,0.1-0.1,0.2-0.1,0.4c0,0.1,0,0.2,0,0.3s0.1,0.1,0.1,0.2c0.1,0.1,0.2,0.1,0.3,0.1    s0.3,0,0.5,0c0.2,0,0.4,0,0.5-0.1C359.6,183.1,359.7,183,359.9,182.9z"/>
		<path d="M367.2,180.5h-0.2c-0.1,0-0.2,0-0.4-0.1c-0.2,0-0.3,0-0.4,0c-0.3,0-0.5,0-0.7,0c-0.2,0-0.4,0.1-0.6,0.2v3.7h-1.8v-5.5h1.8    v0.8c0.4-0.3,0.7-0.6,1-0.7c0.3-0.1,0.5-0.2,0.8-0.2c0.1,0,0.1,0,0.2,0c0.1,0,0.1,0,0.2,0V180.5z"/>
		<path d="M372.2,180.5H372c-0.1,0-0.2,0-0.4-0.1c-0.2,0-0.3,0-0.4,0c-0.3,0-0.5,0-0.7,0c-0.2,0-0.4,0.1-0.6,0.2v3.7h-1.8v-5.5h1.8    v0.8c0.4-0.3,0.7-0.6,1-0.7c0.3-0.1,0.5-0.2,0.8-0.2c0.1,0,0.1,0,0.2,0c0.1,0,0.1,0,0.2,0V180.5z"/>
		<path d="M376.5,183.7c-0.1,0.1-0.2,0.2-0.4,0.3c-0.1,0.1-0.3,0.2-0.4,0.2c-0.2,0.1-0.4,0.1-0.5,0.2c-0.2,0-0.4,0.1-0.6,0.1    c-0.5,0-1-0.2-1.3-0.5s-0.5-0.7-0.5-1.2c0-0.4,0.1-0.7,0.3-1s0.4-0.5,0.8-0.6c0.3-0.1,0.7-0.3,1.2-0.3c0.5-0.1,1-0.1,1.5-0.1v0    c0-0.3-0.1-0.5-0.4-0.6c-0.2-0.1-0.6-0.2-1.1-0.2c-0.3,0-0.6,0.1-0.9,0.2s-0.6,0.2-0.7,0.2h-0.2v-1.3c0.2,0,0.5-0.1,0.9-0.2    c0.4-0.1,0.8-0.1,1.3-0.1c1,0,1.7,0.2,2.2,0.5c0.4,0.3,0.7,0.8,0.7,1.4v3.7h-1.7V183.7z M376.5,182.9v-1.1c-0.2,0-0.5,0-0.8,0.1    s-0.5,0.1-0.6,0.1c-0.2,0.1-0.3,0.1-0.4,0.2c-0.1,0.1-0.1,0.2-0.1,0.4c0,0.1,0,0.2,0,0.3s0.1,0.1,0.1,0.2c0.1,0.1,0.2,0.1,0.3,0.1    s0.3,0,0.5,0c0.2,0,0.4,0,0.5-0.1C376.2,183.1,376.4,183,376.5,182.9z"/>
		<path d="M381.6,184.3h-1.8v-7.6h1.8V184.3z"/>
		<path d="M388.6,184.3h-1.8v-0.6c-0.3,0.2-0.6,0.4-0.8,0.5s-0.6,0.2-0.9,0.2c-0.7,0-1.2-0.3-1.6-0.8c-0.4-0.5-0.6-1.2-0.6-2.1    c0-0.5,0.1-0.9,0.2-1.2c0.1-0.4,0.3-0.7,0.6-0.9c0.2-0.2,0.5-0.4,0.8-0.6c0.3-0.1,0.6-0.2,0.9-0.2c0.3,0,0.6,0,0.8,0.1    c0.2,0.1,0.4,0.2,0.6,0.3v-2.3h1.8V184.3z M386.9,182.8v-2.7c-0.1-0.1-0.3-0.1-0.4-0.1c-0.1,0-0.3,0-0.4,0c-0.5,0-0.8,0.1-1,0.4    s-0.3,0.7-0.3,1.2c0,0.5,0.1,0.9,0.3,1.2c0.2,0.2,0.5,0.4,0.9,0.4c0.2,0,0.3,0,0.5-0.1C386.6,183,386.7,182.9,386.9,182.8z"/>
		<path d="M395.7,181.9h-4c0,0.4,0.2,0.8,0.5,1c0.3,0.2,0.7,0.3,1.3,0.3c0.4,0,0.7-0.1,1.1-0.2c0.3-0.1,0.6-0.3,0.8-0.4h0.2v1.4    c-0.4,0.2-0.8,0.3-1.1,0.3c-0.4,0.1-0.7,0.1-1.2,0.1c-1.1,0-1.9-0.2-2.5-0.7c-0.6-0.5-0.9-1.2-0.9-2.1c0-0.9,0.3-1.6,0.8-2.2    c0.6-0.5,1.3-0.8,2.3-0.8c0.9,0,1.6,0.2,2,0.7c0.4,0.5,0.7,1.1,0.7,1.9V181.9z M393.9,180.9c0-0.4-0.1-0.6-0.3-0.8    s-0.4-0.3-0.8-0.3c-0.3,0-0.6,0.1-0.8,0.3s-0.3,0.5-0.4,0.8H393.9z"/>
	</g>
	<g>
	</g>
	<g>
	</g>
	<g>
	</g>
	<g>
	</g>
	<g>
	</g>
	<g>
	</g>
	<g>
	</g>
	<g>
	</g>
	<g>
	</g>
	<g>
	</g>
	<g>
	</g>
	<g>
	</g>
</g>
</svg>