<svg xmlns="http://www.w3.org/2000/svg" xmlns:xlink="http://www.w3.org/1999/xlink" version="1.1" x="0px" y="0px" width="450px" height="450px" viewBox="0 0 450 450" style="enable-background:new 0 0 450 450;" xml:space="preserve">
<g id="Capa_10">
	<rect x="-17.8" y="-17.2" style="fill-rule:evenodd;clip-rule:evenodd;fill:#DCE9FB;" width="481.3" height="479.3"/>
</g>
<g id="provincies_x5F_joan_x5F_2">
	<path style="fill:#BFBFBF;stroke:#696969;stroke-width:2;stroke-miterlimit:10;" d="M199.8-40.8c-3.1,7.3-17.1,50.7-23.4,50.7   c-5.6-0.1,3.8,9.3,5.2,10.7c4.4,4.1,24,0.5,14.2,16c-19.9-13.6-14.8,10.7-21.3,15.7c-3,2.3,12.4,24.3-6.8,12.6   c-0.7,1.7-7.3-12.5-14.3-5.2c-4.8-3.8-1.5-7.8-6.6,1.3c-0.2-12.1,17.2-24.6,12.7-34.1c-3.5-7.4-20.6-17.9-28.4-1.1   c-9,10.8-23.3,29.1-30,29.3C80.8,79.2,118,77,112.9,93.5c-7.7-2-13.8,0.3-15.5,8.3c-2.6-6.6,0.5-2.7-7.2-1.7   C77,84.6,68.7,116.7,64.5,120.6c-6-4.8-33.2,3-23.5,11.7c-0.1,2.2,11.5,21.9-4.2,36c-10.3,9.2-27.2,8.8-13.8,26.9   c-3-7.1-10.9-8.3-9.7-7c-8.7,3-24.9-2.9-39.3-4.4c-10.8-1.1-5.4-26.3-5.4-35.5c0-58.5,0-117,0-175.6c0-13.9-1.5-12.9,12.3-12.9   c25.3-0.1,50.5-0.1,75.8-0.2C104.4-40.6,152.1-40.7,199.8-40.8L199.8-40.8z"/>
	<path style="fill:#BFBFBF;stroke:#696969;stroke-width:2;stroke-miterlimit:10;" d="M311.5-38.8c-3.1,15.1-9.2,33.6-19.7,45.4   c-9,6.1-12.3-0.2-23.2-4.1c-2.4,14.8-21.4,22.1-31.6,23.1c-4-2.7-13.6-14.4-20.8-11.9c-1-2.6-2.8-7.1-2.9-7.4   c5.2-4.3,13-51.3,16.1-51.1c24,2,47.9,4,71.9,5.9H311.5z"/>
	<path style="fill:#BFBFBF;stroke:#696969;stroke-width:2;stroke-miterlimit:10;" d="M25.5,214.3c0.2,2,0.4,4,0.6,6   c-3.2-2.6-3.4-3.1-5.1-7.4C22.5,213.4,24,213.9,25.5,214.3L25.5,214.3z"/>
	<path style="fill:#BFBFBF;stroke:#696969;stroke-width:2;stroke-miterlimit:10;" d="M18.6,265.5l-3.4-0.6c-3.9-4.9-4.2-4.8-4-10.9   c-5.2-3.4-4.4-14.4,2.5-19.3c7.4,6.8,5.8,18.1,15.2,22.1C25.4,258.8,22.3,262.8,18.6,265.5L18.6,265.5z"/>
</g>
<g id="Capa_11">
	<a xlink:href="A Coruna">
		<path style="fill:none;" d="M-23.5,100l-6,63.5l9.5,35l20-10l9.8,0.8l4.5-1.3l2.3,0.8l4.8,3.3l1,22.2l-8.7,20.6l-5.2,6.5l-0.6,3    c0,0,0,3.8,0.1,4.5s1.4,4.6,1.7,4.8s1.2,0.9,1.2,0.9s1.1,4.6,1.2,5s0.4,2.3,1.3,2.9s2.8,3,3.1,3.2s2.3,0.3,2.3,0.3    s3.3-2.8,3.6-2.8s4.1-3.8,4.1-3.8l3.3-2.5c0,0-3.5-1.8-4.1-2.4s-4.7-5.3-4.7-5.8s-1.1-3.3-1.2-4s-1.9-5.2-2.4-5.8    s-3.5-4.2-3.5-4.2l8.5-20.4l0.9,2.9l2.9,2.7c0,0,0.3-4.8,0.3-5.1s-4.1-0.5-4.1-0.5l-1-22.2c0,0-2.3-3.8-2.3-4s-1.2-3.5-1-4    s0.7-4.3,1.3-4.5s4.9-3.8,5.3-3.8s4.1-2.1,4.4-2.2s3.3-1.9,3.3-1.9s5-4.4,5.5-4.8s4.5-5.4,4.5-5.4s2.6-8.9,2.6-9.4s0-7.8-0.1-8.5    s-2.4-8-2.4-8l-2.5-6.4l0.8-4.5c0,0,4.3-2.9,4.9-3.1s9.9-3.4,10.5-3.4s5.9,0.8,5.9,0.8L65,120l7.8-15.4l4.4-6.1l5.5-2.4l4.8,0.5    l2.1,2.5c0,0,1.4,0.8,1.9,0.6s4.1-1.1,4.1-1.1s0.6,1.4,1.4,1.9s2.1-3.3,2.1-3.3l3.8-3.3c0,0,6.5-1.5,6.9-1.4s2,0.1,2.5,0.1    s1-2.4,1-2.4l-0.4-4l-3-3.3c0,0-4.8-3.8-5.1-3.9s-6-3.9-6-3.9L95.5,71l-0.8-3.5c0,0,1.1-3.5,1.3-4s1.9-3.9,1.9-3.9l3.3-4.6    c0,0,3.7-1.4,4.2-1.6s8-6.8,8-6.8s3.6-4.9,4-5.3s4.8-5.5,4.8-5.5l4.5-5c0,0,2.4-3.1,2.8-3.3s1.8-2.8,1.8-2.8l2.6-4    c0,0,2.5-2.3,3.3-2.8s5-1.8,5.5-1.8s6,1.1,6,1.1s6.1,2.6,6.4,3.4s4.1,5.9,4.1,5.9l1.1,3.5l-2.1,6.4l-5.9,9.3l-4.3,8.5l-1.4,4.4    l3.8-2.6l2.1,2.8h2.3c0,0,2.5-1.5,3-1.5s3.8,1.4,3.8,1.4l1.6,1.6l2.3,1.9l2,1.9l6.9,3.8l3.4,0.4l0.4-1.6l-1-4.3c0,0-1.3-3.6-1.3-4    s-1.1-4.5-1.1-4.5s0.4-2.6,0.9-2.9s1.3-1.3,1.4-1.6s1.1-5.1,1.1-5.1s0.9-3.1,1-3.5s1.9-4.4,1.9-4.4l2-3.1c0,0,3-1.4,3.6-1.4    s4.8,2,5,2.4s4.5,2.2,4.5,2.2l2.3-4.8l0.4-2.9c0,0-0.9-2.9-1.5-3.1s-3.9-1.5-4.6-1.8s-4.1-1.4-4.9-1.5s-4.8-1.3-4.8-1.3    s-2-2-2.3-2.4s-5.1-5.6-5.1-5.6s-1.1-3.5-0.8-3.5s2.9-0.4,2.9-0.4s2.6-2.5,3.1-3.1s4-8,4.5-8.5s4.4-10.4,4.6-10.8s30.8-2,30.8-2    l-5.3,17.8l-1.9,3.5c0,0,2.1,3,2.1,3.9s0.8,3.5,0.8,3.5s1.9-0.8,2.4-0.8s4.8,1.5,5.3,2s5.3,3,5.3,3s2.5,2.3,3.2,3.5    s4.6,4.3,4.6,4.3s4.5-0.5,5.2-1s6.8-2.5,7.7-2.7s10.5-5.5,10.5-5.5l3.8-4l3.2-5.5l1.3-4.5l4.7,2.3c0,0,5.8,3,6.3,3s5,1.3,5,1.3    l6.2-2l3.8-3.3l5.3-6.3l-6-7c0,0-59.2-17.2-60.8-16.8s-102,11.8-102.8,11.8s-62.8-2.3-62.8-2.3L-18-9.5L-23.5,100z"/>
	</a>
</g>
<g id="comarques_1">
	<a xlink:href="Caldas, Tabeiros, Deza">
		<path style="fill:#BFBFBF;stroke:#696969;stroke-width:2;stroke-miterlimit:10;" d="M525.8,181.8c-13.3,3-26.6,5.9-39.8,8.9    c-7.4,1.7-32.8,12.1-39.8,8.9c-13.2-5.9-20-61.5-12.3-69.4c-10.7-2.5-21.2-1.8-26.4,10c-16.3-14.4-25.7,3-36.1,16.3    c-7.8,10-1.2,5.5-13.8,13.5c-5.4,3.4-15.7,7.6-18.4-2.4c-3.1-11.8,12.3-22.3,12.3-31.4c0-1.3-3-6.6-14.4-14.3    c-3.2-2.2-18.2-7.9-25.1-3.7c0,0,20.5-76,29.7-85.7c-9.5-3.4-14.3,3.8-19.8,3.7c-12-0.4-9.6-4.1-19.4-11.9    c-13.3-10.6-7.8-5.1-3.9-17.6c4.3-13.6,8.5-27.2,12.8-40.8c5.8-18.6,16.3-11.2,35.2-9.8c32.7,2.5,65.4,5,98.1,7.5    c5.8,0.4,36.4-1.1,37.7,5.2c4.5,21.9,9,43.8,13.4,65.7C505.8,83.7,515.8,132.8,525.8,181.8L525.8,181.8z"/>
	</a>
	<a xlink:href="Pontevedra - Comarca">
		<path style="fill:#BFBFBF;stroke:#696969;stroke-width:2;stroke-miterlimit:10;" d="M517.8,432.5c-18.4,0.5-51.7,8.1-67.8-0.1    c-11.8-6-36.5,4.3-37.4-7.1c-27.8,6.4-9.1,39.1-4.1,56.6c-19.8,1.1-39.6,2.2-59.3,3.3c-0.4-16.2-0.9-32.3-1.3-48.5    c-0.1-5.4,11.8-15.2,14.5-20.5c6.1-12.1,12.5-27.2,5.4-39.7c-5.1-9-14.6-14.3-21.4-21.8c0.7,0.5,45.8-34.9,37.2-42.8    c-3.6,5-4.3,7.7-15.8,15.2c-16.2,4.3-16.3-16-18.3-26.4c-9.7,8.5-13.6,15.5-23.3,24.2c-4.9,4.4-24.2,6.7-30,12.3    c-2.1,2-20.4,32-17.9,8.5c0.7-6.4,0.4-17.5,0.4-17.5s6.2-18.4,9.3-27.6c9.6,10.3,21.1-2.9,22.5-16c1-9.5,23.7-36,25.9-40.6    c4.5-9.6,9.3,2.6,14.8-4c6-7.4-5-8.7-0.7-23.8c4.4-15.2,3.1-18,14.5-27.6c7.4-6.3,6.7-17.1,1-24.1c0,0,22.4-47,41.5-24.2    c5.2-11.8,15.7-12.5,26.4-10c-9.9,10.2,1.9,55.3,10.2,66.5c6.9,9.3,67.6-12.5,80.5-15.6C522.3,264.9,520.1,348.7,517.8,432.5    L517.8,432.5z"/>
	</a>
	<path style="fill:#BFBFBF;stroke:#696969;stroke-width:2;stroke-miterlimit:10;" d="M330.4,345.7   C323.6,333.2,335.3,335.2,330.4,345.7L330.4,345.7z"/>
	<path style="fill-rule:evenodd;clip-rule:evenodd;fill:#BFBFBF;stroke:#696969;stroke-width:2;stroke-miterlimit:10;" d="   M90.8,434.3c0.4-2.8,0.8-5.6,1.3-8.5c1.4,0.1,2.8,0.2,4.1,0.3C97.6,433.7,93.4,431.2,90.8,434.3L90.8,434.3z"/>
	<path style="fill-rule:evenodd;clip-rule:evenodd;fill:#BFBFBF;stroke:#696969;stroke-width:2;stroke-miterlimit:10;" d="   M83.9,417.7c-1.5-4.8,0.9-5.2-3.5-9.1c0.7-5.8,2.4-11.4,9.3-8.1c2.8-13.2-6.4-15.3,0.1-27.9c1.8-3.5,8.8-5.9,8.5-15.8   c2.1,1.8,4.2,3.7,6.3,5.5c1.1-2,4.4-6.1,4.8-7.1c1.8,7.3-14.2,53.5-18.4,62c-1.1-1.2-2.1-2.5-3.2-3.7   C86.5,414.9,85.2,416.3,83.9,417.7L83.9,417.7z"/>
	<path style="fill-rule:evenodd;clip-rule:evenodd;fill:#BFBFBF;stroke:#696969;stroke-width:2;stroke-miterlimit:10;" d="   M202.5,485.2c1.5-12.2,3-24.3,4.5-36.5c-7.1-0.7-7.7-2.7-12-7.4c7.1-8.3,23.8,2.1,36.1,0c7-1.2,3.1,20.2,3.2,25.7   C234.6,479.1,212.8,481.3,202.5,485.2L202.5,485.2z"/>
	<path style="fill-rule:evenodd;clip-rule:evenodd;fill:#BFBFBF;stroke:#696969;stroke-width:2;stroke-miterlimit:10;" d="   M228.5,485.8c10.9-11.7,33.7-46.8,49.6-46.6c4,0.1,19.5-42.1,22.3-49.2c6.1,2.2,24.3-25,33-32c-0.5,1.4,10.8,6.5,13.7-2.9   c10.7,9.4,24.2,18.5,24.5,28.5c1.2,37.3-24.1,43.7-23.7,53.2c0.6,16.8,1.3,33.5,1.9,50.3C309.4,486.7,268.9,486.3,228.5,485.8   L228.5,485.8z"/>
	<a xlink:href="O Morrazo">
		<path style="fill-rule:evenodd;clip-rule:evenodd;fill:none;" d="M348.3,451.8l0.3-3.3l-0.5-10.5v-2.7l2.2-4.7    c0,0,2.3-3.3,2.8-3.7s3.5-2.8,4-3.3s2.8-3.2,3.7-4.2s1.8-3,2.5-4s3.7-7.5,4.3-8.7s2.5-6.7,2.5-6.7s1.3-6.2,1.5-7.7    s-0.3-8.1-0.1-8.8s-0.3-4.7-0.4-5.3s-4.8-6.5-4.8-6.5l-6.2-5.5l-10.7-9.8l-2.4-1.4l-1.6,2.7c0,0-4.2,2.5-5,2.5s-5-0.3-5-0.3    l-2.8-1.5l-26.3,28.8l-3.3,2.3l-2.6,0.4l-9.8,24.8l-5.2,11.5l-5,9.7l-1.8,3l-4,0.5l-4.8,1.8l-7.2,5l-4,3.7l-6.7,6.3l-24.7,30    l-2.5-8l6.7-4.5l2.3-4l0.5-5.7c0,0,0.2-5.5,0.5-6.2s1-6.2,1-6.2s0.3-0.7,0-1.8s-1.8-8.3-1.8-8.3l-2.8-0.4l-3.5,0.2l-5.5-0.3    c0,0-6-0.8-7-0.8s-5.8-1.3-7-1.3s-6.7-0.5-6.7-0.5l-4.8,0.5l-1.6,2.3l2,2.7l2.7,2.8l3.7,1.2L96.4,429.9l-4.6-13.6l8.8-24.7l4.2-13    l4.5-19.5l-0.2-1.8l-3,3.3l-1.6,1.6l-3.3-2.6l-1.8-1l-2.2,3.5l-3.5,6.2l-4.2,3.5l-2.5,7.7l0.7,5.2l0.8,3.5c0,0,2,5.2,1.7,5.7    s-0.3,5.7-0.3,5.7l-1.5,1l-3.5-0.7l-2.3,1.8l-1.8,2.5l-0.7,3.7l1.2,1.7l1.5,1.8l0.2,4.3l0.9,2.1l3.9-4.2l4,2.8l4.6,13.6l-0.2-3.5    l-4-1l-1.4,8.9l3.9-2.6l1.7-1.8L203.3,448l2.5,0.7l0.3,5.2l-3.8,30.5l12-2.5l6.8-2.3l3.7-1.2l2.5,8l122.5,0.8L348.3,451.8z"/>
	</a>
</g>
<g id="esp_x5F_muni_x5F_1101">
	<a xlink:href="Vilagarcia de Arousa">
		<g>
			<a xlink:href="Villagarcia de Arousa ">
				<path style="fill-rule:evenodd;clip-rule:evenodd;fill:#FFFBF0;stroke:#9A9A9A;stroke-width:2;stroke-miterlimit:10;" d="      M260.5,54.1c0.7-1.3,1.4-2.7,2.2-4.1"/>
			</a>
		</g>
	</a>
	<a xlink:href="Vilagarcia de Arousa">
		<g>
			<path style="fill-rule:evenodd;clip-rule:evenodd;fill:#FFFBF0;stroke:#9A9A9A;stroke-width:2;stroke-miterlimit:10;" d="     M250.5,57.3c-5.3-7,1.4-10.7,7.6-15.8C260.9,48.3,258.8,54.6,250.5,57.3L250.5,57.3z"/>
			<a xlink:href="Vilagarca de Arousa">
				<path style="fill-rule:evenodd;clip-rule:evenodd;fill:#FFFBF0;stroke:#9A9A9A;stroke-width:2;stroke-miterlimit:10;" d="      M259,49.5c-0.3,1.2-0.9,2.4-1.7,3.4"/>
			</a>
			<a xlink:href="Vilagarca de Arousa">
				<path style="fill-rule:evenodd;clip-rule:evenodd;fill:#FFFBF0;stroke:#9A9A9A;stroke-width:2;stroke-miterlimit:10;" d="      M257.3,52.9c0.6-2.4,2-8.6,0.8-11.4c-6.3,5.1-12.9,8.8-7.6,15.8l0,0C253.6,56.3,255.9,54.8,257.3,52.9l3.2,1.2      c-0.5,0.9-1,1.8-1.4,2.7c20.9,11.3,10.8,22.1,8.8,22.8c-2,2.7-13.3,4.7-15.7-2.7c1.5,8.5-17.1,23.4-17.1,23.4      c10.7,11.4-12.7,35,8.9,33c7.4-0.7,9-8.1,9-10.8c9,5.9,17.7,4.3,27.3,5.3c-4.6,5.8-8,14.7-0.8,19.3c8.9,5.7,10.5,8.7,11.9,1.7      c1-5-8.7-12.4-6.4-14.8c0.6-0.6,21.5-14.9,27-15.7c0,0,22.1-79.9,29.7-85.7c-12.4-4.5-15.4,6.2-24.8,3.7      c-1.5-0.4-21.9-17.9-25-20.3l0,0c-12.4,5.3-24.4,25.3-31.4,38.2L257.3,52.9z"/>
			</a>
		</g>
	</a>
	<a xlink:href="Vilanova de Arousa">
		<g>
			<a xlink:href="Vilanova de Arousa">
				<path style="fill-rule:evenodd;clip-rule:evenodd;fill:#FFFBF0;stroke:#9A9A9A;stroke-width:2;stroke-miterlimit:10;" d="      M337.1,121.9c5.3,4.7,10.6,9.3,15.8,14c-6.1,0.1-10.9,0.2-17.5-3.3c-4,8.5-38,11.4-35.2,31.5c-15.1,6.3-34.4-10.7-38.7,2.8      c-3.7,11.4-4.4,21.5-12.8,10.1c-4.5-6.1-2.8-14.1-7.8-18.2c-9.2,7.6-23.1,7.1-32.1,12.9c-0.8-3.5-4.9-24.5-12.7-27.4      c3-14,14.8-18.5,14.9-0.9c4.6-3.3,6.7-8.9,4.7-14.4c-7.8,3.8-12.6-18-4.2-24.9c7.1,7.1,20.1,7.9,23.7-3.6      c10.8,11.5-12.6,36.4,8.7,33.1c4.9-0.8,9.2-8.2,9.2-10.9c9,5.9,17.7,4.3,27.3,5.3c-5.4,6.8-6.9,17.9,3.2,22.2      c19.9,8.5-2.3-13-0.1-15.1C302.4,116.8,324,111.1,337.1,121.9L337.1,121.9z"/>
			</a>
		</g>
	</a>
	<g>
		<a xlink:href="A Illa de Arousa">
			<path style="fill-rule:evenodd;clip-rule:evenodd;fill:#FFFBF0;stroke:#9A9A9A;stroke-width:2;stroke-miterlimit:10;" d="     M180.5,151.1c-18.3-1.9-13.3,18.1-10.3,29.3c0,0-10.2,2.2-10.2,1.2c-2.3-5.1-15-4.7-4.6-15.6c0,0,3.8,3.4,7.5,4.5     c-3.7-7.1-11.4-12.1-6.2-20.1c3.2,2.1,0.1,1.3,4.5,1.3c-5.3-12.3-0.7-24.2-1.8-24.3c-3.1,16.1-16.1,0.2-16.7-8.8     c6.9,0.2,5.3,1.3,7.4-5.8c12.9-5.9,13.9,25.3,21.9,7c8.7,3,8.1,3.6,2.7,8.3c3.7,5.9,3.1,10.2-2.2,11.9     C173.5,144.7,183.8,153.1,180.5,151.1L180.5,151.1z"/>
		</a>
	</g>
	<a xlink:href="Meis">
		<g>
			<a xlink:href="Meis">
				<path style="fill-rule:evenodd;clip-rule:evenodd;fill:#FFFBF0;stroke:#9A9A9A;stroke-width:2;stroke-miterlimit:10;" d="      M352.9,135.9c-2.3,7.5-16.7,24-13.8,31.7c5.4,14.4,26.8-3.2,26.8-3.2c9.7,14.8,3.8,20.1-10.6,32.2c-1.8,10.4-5,24.1-5.6,26.5      c-1.3,5.5,6.1,9.6,2.1,14.9c-6.6,8.8-9.7,0.7-13.1,3.9c-9.7,9.1-12.6,22.9-23.9,32.8c-6.5,5.7-3.4,22.4-13.1,27.3      c-11.5,5.9-13.2-1.1-18.8-8.6c-11.6-15.6-15-52.5-14.8-59.6c15.2-2,5.6-18.4,13.2-24.2c8.2-6.2,14.9-10.2,25.3-8.6      c1.6-22,21.4-23.7,25.2-29.4c-6.6-2.7-19.6-24-27.4-19.7c9.8-11.8,29.5-13.8,31-20.5C335.4,131.6,346.8,136,352.9,135.9      L352.9,135.9z"/>
			</a>
		</g>
	</a>
	<g>
		<path style="fill-rule:evenodd;clip-rule:evenodd;fill:#FFFBF0;stroke:#9A9A9A;stroke-width:2;stroke-miterlimit:10;" d="    M118.7,153.9c-0.4-2.7-4-2-1.5-6.2C123.2,150.8,118.3,151.5,118.7,153.9L118.7,153.9z"/>
		<path style="fill-rule:evenodd;clip-rule:evenodd;fill:#FFFBF0;stroke:#9A9A9A;stroke-width:2;stroke-miterlimit:10;" d="    M118.7,153.9c-0.4-2.7-4-2-1.5-6.2C123.2,150.8,118.3,151.5,118.7,153.9L118.7,153.9z"/>
	</g>
	<g>
		<path style="fill-rule:evenodd;clip-rule:evenodd;fill:#FFFBF0;stroke:#9A9A9A;stroke-width:2;stroke-miterlimit:10;" d="    M132.3,163.1c-2-2.6-4.2-2.8-3-6.3c-2,0.9,4.8-2.9,5.4-3.1C134.2,157.6,133.7,160.1,132.3,163.1L132.3,163.1z"/>
		<path style="fill-rule:evenodd;clip-rule:evenodd;fill:#FFFBF0;stroke:#9A9A9A;stroke-width:2;stroke-miterlimit:10;" d="    M132.3,163.1c-2-2.6-4.2-2.8-3-6.3c-2,0.9,4.8-2.9,5.4-3.1C134.2,157.6,133.7,160.1,132.3,163.1L132.3,163.1z"/>
	</g>
	<a xlink:href="Ribadumia">
		<g>
			<a xlink:href="Ribadumia">
				<path style="fill-rule:evenodd;clip-rule:evenodd;fill:#FFFBF0;stroke:#9A9A9A;stroke-width:2;stroke-miterlimit:10;" d="      M304.4,152.1c10.8-6,14.9,15.7,28.1,19.7c-9.8,10-22.9,11.5-25.9,29.4c-8-1.3-16.5,3.3-23.1,8.3c-11.7,8.9,2.3,21.6-15.4,24.4      c1.5,4.5-0.1,6.5,0.7,11.1c-3.9-7.9-22.7-11.4-28.4-9.7c-2.7-9.1-2.2-17.8-10.5-21.7c15.6-14.9,21.2,8.4,27,0.5      c4.7-6.4,4.9-30.9,4.9-30.9c16.9,15.8,21-18.1,21-18.1c-0.4,0.4,16.4-0.6,17.6-1.1C297.5,156.5,301.7,156.1,304.4,152.1      L304.4,152.1z"/>
			</a>
		</g>
	</a>
	<a xlink:href="Cambados">
		<g>
			<a xlink:href="Cambados">
				<path style="fill-rule:evenodd;clip-rule:evenodd;fill:#FFFBF0;stroke:#9A9A9A;stroke-width:2;stroke-miterlimit:10;" d="      M283.3,164.1c-0.4,12.2-8.4,30.8-21.6,19.1c-0.5,5.1,0.4,43.8-12.7,30c-8.6-9-21.1-2.5-26.1,6c-1.5-1.6-8.8-12.7-8.8-12.7      c0.2-2.2,5-5.2,1.2-10.1c2.3-3,1.5-1,4.9-2c-0.6-2.5,4.5-20,2.6-21.2c-4.1,2.9-11.1,11.8-15.6,17.6c0-3.3-0.8-15.4,1.5-18.3      c5.6-7.1,24.2-7.3,32.3-14.1c4.8,4,6.6,29.1,16.4,21.8c5-3.7,0-15.1,10-18.3c3.1-1,9.9,0.5,13.7,2H283.3z"/>
			</a>
		</g>
	</a>
	<a xlink:href="Meano">
		<g>
			<a xlink:href="Meano">
				<path style="fill-rule:evenodd;clip-rule:evenodd;fill:#FFFBF0;stroke:#9A9A9A;stroke-width:2;stroke-miterlimit:10;" d="      M268.8,245c1.7,7.4,7.5,35.1,9.2,38.6c8.1,17.2,13.4,13.8,6.4,27.9c-1.9,3.8-3.1,17-7.9,16.5c-5.2-0.5-16.8,3.8-19.4,3.3      c-10.7-2.2-22.6-13.7-22.8-27.6c-5.6,1.4-11.2,2.8-16.7,4.2c-2-8.8-4-17.6-6-26.5c1,0.7,1.6-7.8,6.5-8.7c24-4.2,22-38.8,22-38.8      C250.2,235.2,263.6,234.5,268.8,245L268.8,245z"/>
			</a>
		</g>
	</a>
	<a xlink:href="Sanxenxo">
		<g>
			<a xlink:href="Sanxenxo">
				<path style="fill-rule:evenodd;clip-rule:evenodd;fill:#FFFBF0;stroke:#9A9A9A;stroke-width:2;stroke-miterlimit:10;" d="      M164.3,288.1c8.7-1.3,20.3-19.6,25.6-9.6c2.3-3.3,7.3-4.6,7.9-0.8c11.5-14.1,17.7,21.4,19.8,30.2c5.6-1.4,11.2-2.8,16.7-4.2      c0.2,12.7,8.4,16.4,17.5,25c3.5,3.3,20.1-2.5,27-0.4c-1.1,10.1,5.1,41.8-13,35.5c-0.8,4.1-3.6,6-4.7,9.4      c-3.9-9.7-36.1-30.7-54.3,1.2c-6.8-4.7-5.5-2.8-12.2,3.3c-3.3-5.8-9.2-23.6-18-17.3c-1.5-6.9-3.9-16.5-10.3-22      c-6.2-5.3-13.7-2-11.5-12.2C154.8,326.3,160.4,297,164.3,288.1L164.3,288.1z"/>
			</a>
		</g>
	</a>
	<a xlink:href="O Grove">
		<g>
			<path style="fill-rule:evenodd;clip-rule:evenodd;fill:#FFFBF0;stroke:#9A9A9A;stroke-width:2;stroke-miterlimit:10;" d="     M201.2,230.6c0.1,1-4.5-4.1-0.3-10.8C201.7,219.5,204.4,226.2,201.2,230.6L201.2,230.6z"/>
			<path style="fill-rule:evenodd;clip-rule:evenodd;fill:#FFFBF0;stroke:#9A9A9A;stroke-width:2;stroke-miterlimit:10;" d="     M240,233.9c4,10.7-3.5,31.7-14.1,36.7c-22.2,10.5-4-15.5-24.6-12.9c13.6-8.3,0.7-9.4,1.7-16.8c1.1-8,5.2-11.2,7.5-19.3     c1.4,2.9,4.2,4,5.9,8.8c1.8-1.9,5.6-7.6,6.4-8.9C234,193.5,240,233.9,240,233.9z"/>
			<path style="fill-rule:evenodd;clip-rule:evenodd;fill:#FFFBF0;stroke:#9A9A9A;stroke-width:2;stroke-miterlimit:10;" d="     M192.9,215.6c1.2,4.9-0.8,19-2.4,20.4c-18,15-0.7-15.9-2.1-20.9C189.9,215.3,191.4,215.5,192.9,215.6L192.9,215.6z"/>
			<path style="fill-rule:evenodd;clip-rule:evenodd;fill:#FFFBF0;stroke:#9A9A9A;stroke-width:2;stroke-miterlimit:10;" d="     M164.3,288.1c-0.7,4.3-2.6,8.6-3.8,12.8c-2.2-12.2-20.2-41.1-48.4-28.2c-6.1,2.8-3.8,18.3-12.9,5.8c-0.5,0.9-8.5-10.9-12.5-12.5     c12.3-6.8,5.7-14.5,6.4-23c39.5,15.5,52.2-15,51.1-13.8c-8-10.8,19.8-9.7,21.7-12.2c13.9,6.5,11.2,23.7,8.1,33.9     c5.8,4.9-3.8,14.2-8.6,13.8C155.7,263.8,162.8,284.6,164.3,288.1L164.3,288.1z"/>
		</g>
	</a>
	<a xlink:href="A illa de Arousa">
		<path style="fill-rule:evenodd;clip-rule:evenodd;fill:none;" d="M150.8,112.2l-1.7,3.2l-0.7,3l-2.5,1l-2-0.5c0,0,0.2,5,0.3,5.5    s3.2,5.5,3.2,5.5l3,3.7c0,0,3.8,1.3,4.5,1.3s3.5-1.5,3.5-1.5s0.3,3.7,0.3,4.3s1,4.2,1,4.7s-0.5,3.8-0.5,3.8l-25,10.6l-3.6-1.3    l-1.8,2.2l-10.2-5.7l0.8-3.2l-3-1.3c0,0,0.3,2.8,0.3,3.3s1.8,1.2,1.8,1.2l10.2,5.7c0,0,1.3,2.8,1.8,3.3s0.8,2.1,1.6,2.1    s1.5-4.6,1.5-4.6l0.5-1.7l25-10.6l1.3,3.2l0.6,2.4l-3.1-0.2L157,151l-1.2,4l-0.8,2.5l2.5,4.7l3,6.2l1.3,1.8l-5.3-2.8l-1.3-0.3    l-4.3,5.2l1.3,2.6l1.4,1.8l3.1,1.6l2.3,1.5l1.2,2l4.8,0l5.4-1.2c0,0-1-2.7-1-3.5s-1.1-6.5-1.1-6.5s-0.5-3.1-0.5-3.6    s-0.3-3.8-0.3-4.5s0-4.6,0-4.6l4-5.1l4.8-1.1l4.4-0.3l-4.3-4.1l-2.1-4.1l-1.4-2.1l1.5-1.4l1.6-1.3l1-2.5v-3.1l-1-2.8l-0.4-1.6    l1.8-2.9l1.3-1.8l-1.8-1.3c0,0-1.5-1.3-1.9-1.3s-2.9-1.3-2.9-1.3s-1.2,3.1-1.5,3.4s-3.1,2.4-3.1,2.4s-1.9-1.1-2.3-1.8    s-1.9-2.4-1.9-2.4s-1.3-2.1-1.6-2.4s-1.8-2.4-2.1-2.9s-1.5-2.6-2-2.9s-4.4-1.1-4.4-1.1L150.8,112.2z"/>
	</a>
</g>
<g id="Capa_12">
	<a xlink:href="O Grove">
		<path style="fill-rule:evenodd;clip-rule:evenodd;fill:none;" d="M165.3,264.6l4.7-1.9l4.7-4.3l1.3-3.8l-1.8-4.8l1.5-5.3l0.5-6.4    l6.4,1.7l3.4-0.2l5-3.2l2.2-11.5l5.8,1.7l1.5,3h1.5l1.1-2.3l4.6,0.3l-3,7.7l-2,5c0,0,0.3,3.2,0.7,3.8s2,3.5,2,3.5l2.7,2.7l-1.3,3    l-4.8,4.2l5.5,0.3l2.7,1.8l2,3.7l1.8,5.5l0.3,3.5c0,0,1.8,1,2.8,0.8s6-0.8,6-0.8l5.3-2.8l3.8-3l3.2-5c0,0,2.8-5.7,3.2-6.2    s2.2-5.7,2.2-5.7s0.5-4.8,0.5-5.7s0.2-6.2,0.2-7.2s-1.7-8.2-1.7-8.2l-2.3-7l-3-7.7l-3.7-1.8c0,0-1.8,1.2-2.7,1.5s-2.8,2.7-3.3,3.7    s-1.8,4.5-1.8,4.5s-3.5,5.2-4.2,5.8s-2.2,3.1-2.2,3.1l-1.6-3.3l-2.2-3.2c0,0-2.2-5.7-2.2-3.3s-2.8,6.7-2.8,6.7l-4.6-0.3l-1.3-4.7    l-1.5-1l-1.3,5l-5.8-1.7l-0.2-8.5l-4-0.8l-0.3,2.2l-3.7,10l-2.5,7l0.1,5.1l-6.4-1.7l-0.7-8.9l-1.7-4.7l-3.7-5.2l-3.7-1.7l-5.8,1    l-10.2,1.8l-5.8,1.3l-1.2,2.2l-0.7,2.2c0,0,1.4,2.5,1.2,3.2s-0.9,2.8-0.9,2.8l-6,6.2l-5,3.8l-6,3.3l-8.5,1.5l-6.2,0.2h-6    l-11.8-3.7l-0.7,3.4l0.5,3.6l0.4,2.9l0.1,4.3l-1.9,4l-2,2.5l-2.5,1.1l-1.5,1.3l2.9,1.5l2.8,2.1l2.5,3.5l3,3.4l4.5,5l2.5,1.5    l1.9-0.8l2.1-4.3l2.1-3.8c0,0,1.5-1.6,1.7-1.9s10.1-2.9,10.1-2.9s2.9-0.5,3.6-0.4s4.6,0.9,5.1,1s6.3,1.1,6.3,1.1l4.9,2.6l5.4,5.3    l5.3,5.3l1.9,2.6c0,0,2.4,4.6,2.6,5s3.1,7.8,3.1,7.8l3.9-12.4l-2.8-9.8l-0.9-3l-0.3-5.1c0,0,0.5-3.9,0.9-4    S165.3,264.6,165.3,264.6z"/>
	</a>
</g>
<g id="bl">
	<rect x="124.8" y="129.9" style="opacity:0.6;fill:#FFFBF0;" width="44.4" height="10.1"/>
	<rect x="130.8" y="139.6" style="opacity:0.6;fill:#FFFBF0;" width="36.4" height="12.7"/>
	<rect x="293.5" y="172.9" style="opacity:0.6;fill:#FFFBF0;" width="44.4" height="10.1"/>
	<rect x="163.8" y="229.2" style="opacity:0.6;fill:#FFFBF0;" width="51" height="10.8"/>
	<rect x="205.2" y="189.9" style="opacity:0.6;fill:#FFFBF0;" width="51" height="12.1"/>
</g>
<g id="text_x5F_ciutats">
	<g>
		<g>
			<path d="M261.3,91.2l-2.6,7.3l-1.3,0l-2.6-7.3h1l2.3,6.4l2.3-6.4L261.3,91.2z"/>
			<path d="M263.4,92.1l-1,0l0-1l1,0L263.4,92.1z M263.3,98.4l-0.9,0l0-5.5l0.9,0L263.3,98.4z"/>
			<path d="M266,98.4h-0.9l0-7.6h0.9L266,98.4z"/>
			<path d="M272.1,98.4l-0.9,0v-0.6c-0.1,0.1-0.2,0.1-0.3,0.2c-0.1,0.1-0.3,0.2-0.4,0.2c-0.2,0.1-0.3,0.1-0.5,0.2s-0.4,0.1-0.7,0.1     c-0.5,0-0.9-0.2-1.3-0.5s-0.5-0.7-0.5-1.2c0-0.4,0.1-0.7,0.3-1c0.2-0.3,0.4-0.5,0.8-0.6c0.3-0.1,0.7-0.2,1.2-0.3s1-0.1,1.5-0.1     v-0.1c0-0.2,0-0.4-0.1-0.5s-0.2-0.2-0.3-0.3c-0.1-0.1-0.3-0.1-0.5-0.2c-0.2,0-0.4,0-0.6,0c-0.2,0-0.5,0-0.8,0.1     c-0.3,0.1-0.6,0.2-0.9,0.3h0v-0.9c0.2,0,0.4-0.1,0.8-0.2s0.7-0.1,1-0.1c0.4,0,0.7,0,1,0.1c0.3,0.1,0.5,0.2,0.7,0.3     c0.2,0.1,0.4,0.3,0.5,0.6c0.1,0.2,0.2,0.5,0.2,0.9L272.1,98.4z M271.2,97.1l0-1.5c-0.3,0-0.6,0-1,0.1c-0.4,0-0.7,0.1-0.9,0.1     c-0.3,0.1-0.5,0.2-0.6,0.3c-0.2,0.2-0.2,0.4-0.2,0.7c0,0.3,0.1,0.5,0.3,0.7s0.5,0.2,0.9,0.2c0.3,0,0.6-0.1,0.9-0.2     S271,97.3,271.2,97.1z"/>
			<path d="M278.3,97.8c0,0.9-0.2,1.6-0.6,2c-0.4,0.4-1.1,0.6-1.9,0.6c-0.3,0-0.6,0-0.8-0.1c-0.3,0-0.5-0.1-0.8-0.2v-0.9h0     c0.1,0.1,0.4,0.1,0.7,0.2s0.7,0.1,1,0.1c0.3,0,0.6,0,0.8-0.1s0.4-0.2,0.5-0.3c0.1-0.1,0.2-0.3,0.2-0.5s0.1-0.4,0.1-0.6v-0.5     c-0.3,0.2-0.5,0.4-0.8,0.5c-0.3,0.1-0.6,0.2-1,0.2c-0.7,0-1.2-0.2-1.5-0.7c-0.4-0.5-0.6-1.1-0.6-2c0-0.5,0.1-0.9,0.2-1.2     s0.3-0.6,0.5-0.9c0.2-0.2,0.5-0.4,0.8-0.5c0.3-0.1,0.6-0.2,0.9-0.2c0.3,0,0.6,0,0.8,0.1c0.2,0.1,0.4,0.2,0.7,0.3l0.1-0.2l0.9,0     L278.3,97.8z M277.4,96.9l0-3c-0.2-0.1-0.5-0.2-0.7-0.2c-0.2,0-0.4-0.1-0.6-0.1c-0.5,0-0.9,0.2-1.2,0.5c-0.3,0.3-0.4,0.8-0.4,1.5     c0,0.6,0.1,1.1,0.3,1.4s0.6,0.5,1.1,0.5c0.3,0,0.5-0.1,0.8-0.2S277.2,97.1,277.4,96.9z"/>
			<path d="M284.3,98.4l-0.9,0v-0.6c-0.1,0.1-0.2,0.1-0.3,0.2c-0.1,0.1-0.3,0.2-0.4,0.2c-0.2,0.1-0.3,0.1-0.5,0.2s-0.4,0.1-0.7,0.1     c-0.5,0-0.9-0.2-1.3-0.5s-0.5-0.7-0.5-1.2c0-0.4,0.1-0.7,0.3-1c0.2-0.3,0.4-0.5,0.8-0.6c0.3-0.1,0.7-0.2,1.2-0.3     c0.5-0.1,1-0.1,1.5-0.1v-0.1c0-0.2,0-0.4-0.1-0.5s-0.2-0.2-0.3-0.3c-0.1-0.1-0.3-0.1-0.5-0.2c-0.2,0-0.4,0-0.6,0     c-0.2,0-0.5,0-0.8,0.1s-0.6,0.2-0.9,0.3h0v-0.9c0.2,0,0.4-0.1,0.8-0.2s0.7-0.1,1-0.1c0.4,0,0.7,0,1,0.1c0.3,0.1,0.5,0.2,0.7,0.3     c0.2,0.1,0.4,0.3,0.5,0.6c0.1,0.2,0.2,0.5,0.2,0.9L284.3,98.4z M283.4,97.1l0-1.5c-0.3,0-0.6,0-1,0.1c-0.4,0-0.7,0.1-0.9,0.1     c-0.3,0.1-0.5,0.2-0.6,0.3c-0.2,0.2-0.2,0.4-0.2,0.7c0,0.3,0.1,0.5,0.3,0.7s0.5,0.2,0.9,0.2c0.3,0,0.6-0.1,0.9-0.2     S283.2,97.3,283.4,97.1z"/>
			<path d="M289.5,94L289.5,94c-0.2,0-0.3-0.1-0.4-0.1c-0.1,0-0.3,0-0.5,0c-0.3,0-0.6,0.1-0.8,0.2s-0.5,0.3-0.8,0.5l0,3.9l-0.9,0     l0-5.5l0.9,0v0.8c0.4-0.3,0.7-0.5,1-0.6c0.3-0.1,0.6-0.2,0.9-0.2c0.2,0,0.3,0,0.3,0c0.1,0,0.2,0,0.3,0V94z"/>
			<path d="M294.4,98.1c-0.3,0.1-0.6,0.3-0.9,0.3c-0.3,0.1-0.6,0.1-0.9,0.1c-0.4,0-0.8-0.1-1.1-0.2s-0.6-0.3-0.8-0.5     c-0.2-0.2-0.4-0.5-0.6-0.9s-0.2-0.8-0.2-1.3c0-0.9,0.2-1.6,0.7-2.1c0.5-0.5,1.1-0.8,1.9-0.8c0.3,0,0.6,0,0.9,0.1     c0.3,0.1,0.6,0.2,0.8,0.3v1h0c-0.3-0.2-0.6-0.4-0.9-0.5s-0.6-0.2-0.9-0.2c-0.5,0-0.9,0.2-1.2,0.5c-0.3,0.4-0.5,0.9-0.5,1.5     c0,0.7,0.1,1.2,0.4,1.5c0.3,0.4,0.7,0.5,1.2,0.5c0.2,0,0.4,0,0.6-0.1s0.4-0.1,0.5-0.2c0.1-0.1,0.3-0.1,0.4-0.2s0.2-0.1,0.3-0.2h0     V98.1z"/>
			<path d="M297.5,90.3l-1.3,1.8h-0.7l0.9-1.8L297.5,90.3z M296.5,98.4h-0.9l0-5.5h0.9L296.5,98.4z"/>
			<path d="M302.6,98.4h-0.9v-0.6c-0.1,0.1-0.2,0.1-0.3,0.2c-0.1,0.1-0.3,0.2-0.4,0.2c-0.2,0.1-0.3,0.1-0.5,0.2s-0.4,0.1-0.7,0.1     c-0.5,0-0.9-0.2-1.3-0.5s-0.5-0.7-0.5-1.2c0-0.4,0.1-0.7,0.3-1c0.2-0.3,0.4-0.5,0.8-0.6c0.3-0.1,0.7-0.2,1.2-0.3s1-0.1,1.5-0.1     v-0.1c0-0.2,0-0.4-0.1-0.5s-0.2-0.2-0.3-0.3c-0.1-0.1-0.3-0.1-0.5-0.2c-0.2,0-0.4,0-0.6,0c-0.2,0-0.5,0-0.8,0.1s-0.6,0.2-0.9,0.3     h0v-0.9c0.2,0,0.4-0.1,0.8-0.2c0.3-0.1,0.7-0.1,1-0.1c0.4,0,0.7,0,1,0.1c0.3,0.1,0.5,0.2,0.7,0.3c0.2,0.1,0.4,0.3,0.5,0.6     c0.1,0.2,0.2,0.5,0.2,0.9L302.6,98.4z M301.7,97.1l0-1.5c-0.3,0-0.6,0-1,0.1c-0.4,0-0.7,0.1-0.9,0.1c-0.3,0.1-0.5,0.2-0.6,0.3     c-0.2,0.2-0.2,0.4-0.2,0.7c0,0.3,0.1,0.5,0.3,0.7s0.5,0.2,0.9,0.2c0.3,0,0.6-0.1,0.9-0.2C301.2,97.4,301.4,97.3,301.7,97.1z"/>
		</g>
		<g>
			<path d="M258.3,108.4h-0.9v-0.6c-0.3,0.2-0.5,0.4-0.8,0.5c-0.3,0.1-0.6,0.2-0.9,0.2c-0.7,0-1.2-0.3-1.5-0.8     c-0.4-0.5-0.6-1.2-0.6-2.1c0-0.5,0.1-0.9,0.2-1.2c0.1-0.4,0.3-0.7,0.5-0.9c0.2-0.2,0.5-0.4,0.8-0.6c0.3-0.1,0.6-0.2,0.9-0.2     c0.3,0,0.5,0,0.8,0.1c0.2,0.1,0.5,0.2,0.7,0.3v-2.4h0.9L258.3,108.4z M257.4,107.1l0-3.1c-0.2-0.1-0.5-0.2-0.7-0.2     c-0.2,0-0.4-0.1-0.6-0.1c-0.5,0-0.9,0.2-1.2,0.5c-0.3,0.4-0.4,0.9-0.4,1.5c0,0.6,0.1,1.1,0.3,1.5s0.6,0.5,1.1,0.5     c0.3,0,0.5-0.1,0.8-0.2S257.2,107.3,257.4,107.1z"/>
			<path d="M264.7,105.8l-4,0c0,0.3,0.1,0.6,0.2,0.9s0.2,0.5,0.4,0.6c0.2,0.2,0.4,0.3,0.6,0.4c0.2,0.1,0.5,0.1,0.8,0.1     c0.4,0,0.7-0.1,1.1-0.2s0.6-0.3,0.8-0.4h0v1c-0.3,0.1-0.6,0.2-0.9,0.3s-0.7,0.1-1,0.1c-0.9,0-1.6-0.2-2.1-0.7     c-0.5-0.5-0.8-1.2-0.8-2.1c0-0.9,0.2-1.6,0.7-2.1c0.5-0.5,1.1-0.8,1.9-0.8c0.7,0,1.3,0.2,1.7,0.6c0.4,0.4,0.6,1,0.6,1.8V105.8z      M263.8,105.1c0-0.5-0.1-0.9-0.4-1.1s-0.6-0.4-1.1-0.4c-0.5,0-0.9,0.1-1.2,0.4c-0.3,0.3-0.5,0.6-0.5,1.1L263.8,105.1z"/>
			<path d="M275.4,108.4h-1l-0.7-2l-3.1,0l-0.7,2l-1,0l2.6-7.3h1.3L275.4,108.4z M273.4,105.6l-1.3-3.6l-1.3,3.6L273.4,105.6z"/>
			<path d="M279.9,104L279.9,104c-0.2,0-0.3-0.1-0.4-0.1c-0.1,0-0.3,0-0.5,0c-0.3,0-0.6,0.1-0.8,0.2s-0.5,0.3-0.8,0.5l0,3.9h-0.9     l0-5.5h0.9v0.8c0.4-0.3,0.7-0.5,1-0.6s0.6-0.2,0.9-0.2c0.2,0,0.3,0,0.3,0c0.1,0,0.2,0,0.3,0V104z"/>
			<path d="M285.4,105.7c0,0.9-0.2,1.6-0.7,2.1s-1.1,0.8-1.8,0.8c-0.8,0-1.4-0.3-1.8-0.8s-0.7-1.2-0.7-2.1s0.2-1.6,0.7-2.1     c0.5-0.5,1.1-0.8,1.8-0.8c0.8,0,1.4,0.3,1.8,0.8C285.1,104.1,285.4,104.8,285.4,105.7z M284.4,105.7c0-0.7-0.1-1.2-0.4-1.6     c-0.3-0.3-0.7-0.5-1.2-0.5c-0.5,0-0.9,0.2-1.2,0.5c-0.3,0.3-0.4,0.9-0.4,1.6c0,0.7,0.1,1.2,0.4,1.6c0.3,0.4,0.7,0.5,1.2,0.5     c0.5,0,0.9-0.2,1.2-0.5C284.3,106.9,284.4,106.4,284.4,105.7z"/>
			<path d="M291.3,108.4h-0.9v-0.6c-0.3,0.2-0.6,0.4-0.9,0.6s-0.6,0.2-0.9,0.2c-0.6,0-1-0.2-1.3-0.5s-0.5-0.9-0.5-1.5l0-3.5h0.9     l0,3.1c0,0.3,0,0.5,0,0.7s0.1,0.4,0.2,0.5c0.1,0.1,0.2,0.2,0.3,0.3c0.1,0.1,0.3,0.1,0.6,0.1c0.2,0,0.5-0.1,0.8-0.2     c0.3-0.1,0.5-0.3,0.8-0.5l0-4.1h0.9L291.3,108.4z"/>
			<path d="M297,106.9c0,0.5-0.2,0.9-0.6,1.2c-0.4,0.3-1,0.5-1.7,0.5c-0.4,0-0.8,0-1.1-0.1s-0.6-0.2-0.8-0.3v-1h0     c0.3,0.2,0.6,0.4,1,0.5s0.7,0.2,1,0.2c0.4,0,0.7-0.1,0.9-0.2s0.3-0.3,0.3-0.6c0-0.2-0.1-0.4-0.2-0.5s-0.4-0.2-0.7-0.3     c-0.1,0-0.3-0.1-0.5-0.1c-0.2,0-0.4-0.1-0.6-0.1c-0.5-0.1-0.8-0.3-1-0.6s-0.3-0.5-0.3-0.9c0-0.2,0-0.4,0.1-0.6     c0.1-0.2,0.2-0.4,0.4-0.5c0.2-0.2,0.4-0.3,0.7-0.4c0.3-0.1,0.6-0.1,0.9-0.1c0.3,0,0.7,0,1,0.1c0.3,0.1,0.6,0.2,0.8,0.3v1h0     c-0.2-0.2-0.5-0.3-0.9-0.4c-0.3-0.1-0.7-0.2-1-0.2c-0.3,0-0.6,0.1-0.8,0.2c-0.2,0.1-0.3,0.3-0.3,0.6c0,0.2,0.1,0.4,0.2,0.5     c0.1,0.1,0.4,0.2,0.7,0.3c0.2,0,0.4,0.1,0.6,0.1s0.4,0.1,0.5,0.1c0.4,0.1,0.8,0.3,1,0.5C296.9,106.1,297,106.5,297,106.9z"/>
			<path d="M302.6,108.4h-0.9v-0.6c-0.1,0.1-0.2,0.1-0.3,0.2c-0.1,0.1-0.3,0.2-0.4,0.2c-0.2,0.1-0.3,0.1-0.5,0.2s-0.4,0.1-0.7,0.1     c-0.5,0-0.9-0.2-1.3-0.5s-0.5-0.7-0.5-1.2c0-0.4,0.1-0.7,0.3-1c0.2-0.3,0.4-0.5,0.8-0.6c0.3-0.1,0.7-0.2,1.2-0.3s1-0.1,1.5-0.1     l0-0.1c0-0.2,0-0.4-0.1-0.5s-0.2-0.2-0.3-0.3c-0.1-0.1-0.3-0.1-0.5-0.2c-0.2,0-0.4,0-0.6,0c-0.2,0-0.5,0-0.8,0.1     s-0.6,0.2-0.9,0.3h0v-0.9c0.2,0,0.4-0.1,0.8-0.2c0.3-0.1,0.7-0.1,1-0.1c0.4,0,0.7,0,1,0.1c0.3,0.1,0.5,0.2,0.7,0.3     c0.2,0.1,0.4,0.3,0.5,0.6c0.1,0.2,0.2,0.5,0.2,0.9L302.6,108.4z M301.7,107.1v-1.5c-0.3,0-0.6,0-1,0.1c-0.4,0-0.7,0.1-0.9,0.1     c-0.3,0.1-0.5,0.2-0.6,0.3s-0.2,0.4-0.2,0.7c0,0.3,0.1,0.5,0.3,0.7s0.5,0.2,0.9,0.2c0.3,0,0.6-0.1,0.9-0.2     C301.2,107.4,301.4,107.3,301.7,107.1z"/>
		</g>
	</g>
	<g>
		<g>
			<path d="M213.1,198.5c-0.2,0.1-0.3,0.2-0.5,0.2c-0.1,0.1-0.3,0.1-0.6,0.2c-0.2,0.1-0.4,0.1-0.6,0.2c-0.2,0-0.5,0.1-0.8,0.1     c-0.5,0-1-0.1-1.4-0.2s-0.8-0.4-1.1-0.7c-0.3-0.3-0.6-0.7-0.7-1.2c-0.2-0.5-0.3-1-0.3-1.7c0-0.6,0.1-1.1,0.3-1.6     c0.2-0.5,0.4-0.9,0.7-1.2c0.3-0.3,0.7-0.6,1.1-0.7s0.9-0.2,1.5-0.2c0.4,0,0.8,0,1.2,0.1c0.4,0.1,0.8,0.3,1.3,0.5l0,1.1h-0.1     c-0.4-0.3-0.8-0.6-1.2-0.7c-0.4-0.2-0.8-0.2-1.3-0.2c-0.4,0-0.7,0.1-1,0.2s-0.6,0.3-0.8,0.6c-0.2,0.2-0.4,0.6-0.5,0.9     c-0.1,0.4-0.2,0.8-0.2,1.3c0,0.5,0.1,1,0.2,1.3c0.1,0.4,0.3,0.7,0.5,0.9c0.2,0.2,0.5,0.4,0.8,0.5c0.3,0.1,0.6,0.2,1,0.2     c0.5,0,0.9-0.1,1.3-0.2c0.4-0.2,0.8-0.4,1.1-0.7h0.1V198.5z"/>
			<path d="M218.7,199.1l-0.9,0v-0.6c-0.1,0.1-0.2,0.1-0.3,0.2s-0.3,0.2-0.4,0.2c-0.2,0.1-0.3,0.1-0.5,0.2s-0.4,0.1-0.7,0.1     c-0.5,0-0.9-0.2-1.3-0.5s-0.5-0.7-0.5-1.2c0-0.4,0.1-0.7,0.3-1s0.4-0.5,0.8-0.6c0.3-0.1,0.7-0.2,1.2-0.3c0.5-0.1,1-0.1,1.5-0.1     v-0.1c0-0.2,0-0.4-0.1-0.5s-0.2-0.2-0.3-0.3c-0.1-0.1-0.3-0.1-0.5-0.2c-0.2,0-0.4,0-0.6,0c-0.2,0-0.5,0-0.8,0.1s-0.6,0.2-0.9,0.3     h0v-0.9c0.2,0,0.4-0.1,0.8-0.2s0.7-0.1,1-0.1c0.4,0,0.7,0,1,0.1s0.5,0.2,0.7,0.3c0.2,0.1,0.4,0.3,0.5,0.6     c0.1,0.2,0.2,0.5,0.2,0.9L218.7,199.1z M217.8,197.7l0-1.5c-0.3,0-0.6,0-1,0.1s-0.7,0.1-0.9,0.1c-0.3,0.1-0.5,0.2-0.6,0.3     s-0.2,0.4-0.2,0.7c0,0.3,0.1,0.5,0.3,0.7s0.5,0.2,0.9,0.2c0.3,0,0.6-0.1,0.9-0.2S217.5,197.9,217.8,197.7z"/>
			<path d="M228.4,199.1h-0.9l0-3.1c0-0.2,0-0.5,0-0.7s-0.1-0.4-0.1-0.5c-0.1-0.1-0.2-0.2-0.3-0.3c-0.1-0.1-0.3-0.1-0.6-0.1     c-0.3,0-0.5,0.1-0.8,0.2c-0.3,0.1-0.5,0.3-0.8,0.5c0,0.1,0,0.2,0,0.3c0,0.1,0,0.2,0,0.3l0,3.5l-0.9,0l0-3.1c0-0.2,0-0.5,0-0.7     c0-0.2-0.1-0.4-0.1-0.5c-0.1-0.1-0.2-0.2-0.3-0.3c-0.1-0.1-0.3-0.1-0.6-0.1c-0.3,0-0.5,0.1-0.8,0.2c-0.3,0.1-0.5,0.3-0.8,0.5     l0,4.1l-0.9,0l0-5.5l0.9,0v0.6c0.3-0.2,0.6-0.4,0.9-0.6c0.3-0.1,0.6-0.2,0.9-0.2c0.4,0,0.7,0.1,0.9,0.2s0.5,0.4,0.6,0.6     c0.4-0.3,0.7-0.5,1-0.7c0.3-0.1,0.6-0.2,1-0.2c0.6,0,1,0.2,1.3,0.5c0.3,0.4,0.4,0.9,0.4,1.5L228.4,199.1z"/>
			<path d="M235,196.3c0,0.5-0.1,0.9-0.2,1.2c-0.1,0.4-0.3,0.7-0.5,0.9c-0.2,0.3-0.5,0.5-0.8,0.6s-0.6,0.2-0.9,0.2     c-0.3,0-0.6,0-0.8-0.1s-0.5-0.2-0.7-0.3l-0.1,0.3h-0.9l0-7.6l0.9,0l0,2.7c0.3-0.2,0.5-0.4,0.8-0.5c0.3-0.1,0.6-0.2,1-0.2     c0.6,0,1.2,0.2,1.5,0.7C234.8,194.7,235,195.4,235,196.3z M234,196.3c0-0.7-0.1-1.1-0.3-1.5s-0.6-0.5-1-0.5     c-0.3,0-0.5,0.1-0.8,0.2c-0.3,0.1-0.5,0.3-0.8,0.4v3.1c0.3,0.1,0.5,0.2,0.7,0.2c0.2,0,0.4,0.1,0.6,0.1c0.5,0,0.9-0.2,1.2-0.5     C233.9,197.6,234,197,234,196.3z"/>
			<path d="M240.6,199.1h-0.9v-0.6c-0.1,0.1-0.2,0.1-0.3,0.2c-0.1,0.1-0.3,0.2-0.4,0.2c-0.2,0.1-0.3,0.1-0.5,0.2s-0.4,0.1-0.7,0.1     c-0.5,0-0.9-0.2-1.3-0.5s-0.5-0.7-0.5-1.2c0-0.4,0.1-0.7,0.3-1c0.2-0.3,0.4-0.5,0.8-0.6c0.3-0.1,0.7-0.2,1.2-0.3s1-0.1,1.5-0.1     v-0.1c0-0.2,0-0.4-0.1-0.5c-0.1-0.1-0.2-0.2-0.3-0.3c-0.1-0.1-0.3-0.1-0.5-0.2c-0.2,0-0.4,0-0.6,0c-0.2,0-0.5,0-0.8,0.1     c-0.3,0.1-0.6,0.2-0.9,0.3h0l0-0.9c0.2,0,0.4-0.1,0.8-0.2c0.3-0.1,0.7-0.1,1-0.1c0.4,0,0.7,0,1,0.1c0.3,0.1,0.5,0.2,0.7,0.3     c0.2,0.1,0.4,0.3,0.5,0.6c0.1,0.2,0.2,0.5,0.2,0.9L240.6,199.1z M239.7,197.7v-1.5c-0.3,0-0.6,0-1,0.1c-0.4,0-0.7,0.1-0.9,0.1     c-0.3,0.1-0.5,0.2-0.6,0.3s-0.2,0.4-0.2,0.7c0,0.3,0.1,0.5,0.3,0.7c0.2,0.2,0.5,0.2,0.9,0.2c0.3,0,0.6-0.1,0.9-0.2     C239.3,198.1,239.5,197.9,239.7,197.7z"/>
			<path d="M246.8,199.1l-0.9,0v-0.6c-0.3,0.2-0.5,0.4-0.8,0.5s-0.6,0.2-0.9,0.2c-0.7,0-1.2-0.3-1.5-0.8c-0.4-0.5-0.6-1.2-0.6-2.1     c0-0.5,0.1-0.9,0.2-1.2s0.3-0.7,0.5-0.9c0.2-0.2,0.5-0.4,0.8-0.6c0.3-0.1,0.6-0.2,0.9-0.2c0.3,0,0.5,0,0.8,0.1     c0.2,0.1,0.5,0.2,0.7,0.3v-2.4l0.9,0L246.8,199.1z M245.9,197.7v-3.1c-0.2-0.1-0.5-0.2-0.7-0.2c-0.2,0-0.4-0.1-0.6-0.1     c-0.5,0-0.9,0.2-1.2,0.5c-0.3,0.4-0.4,0.9-0.4,1.5c0,0.6,0.1,1.1,0.3,1.5c0.2,0.3,0.6,0.5,1.1,0.5c0.3,0,0.5-0.1,0.8-0.2     C245.4,198.1,245.7,197.9,245.9,197.7z"/>
			<path d="M253.3,196.3c0,0.9-0.2,1.6-0.7,2.1c-0.5,0.5-1.1,0.8-1.8,0.8c-0.8,0-1.4-0.3-1.8-0.8c-0.5-0.5-0.7-1.2-0.7-2.1     s0.2-1.6,0.7-2.1c0.5-0.5,1.1-0.8,1.8-0.8c0.8,0,1.4,0.3,1.8,0.8C253.1,194.8,253.3,195.5,253.3,196.3z M252.3,196.3     c0-0.7-0.1-1.2-0.4-1.6c-0.3-0.3-0.7-0.5-1.2-0.5c-0.5,0-0.9,0.2-1.2,0.5c-0.3,0.3-0.4,0.9-0.4,1.6c0,0.7,0.1,1.2,0.4,1.6     c0.3,0.4,0.7,0.5,1.2,0.5c0.5,0,0.9-0.2,1.1-0.5C252.2,197.6,252.3,197,252.3,196.3z"/>
			<path d="M258.6,197.5c0,0.5-0.2,0.9-0.6,1.2c-0.4,0.3-1,0.5-1.7,0.5c-0.4,0-0.8,0-1.1-0.1s-0.6-0.2-0.8-0.3l0-1h0     c0.3,0.2,0.6,0.4,1,0.5c0.4,0.1,0.7,0.2,1,0.2c0.4,0,0.7-0.1,0.9-0.2c0.2-0.1,0.3-0.3,0.3-0.6c0-0.2-0.1-0.4-0.2-0.5     s-0.4-0.2-0.7-0.3c-0.1,0-0.3-0.1-0.5-0.1s-0.4-0.1-0.6-0.1c-0.5-0.1-0.8-0.3-1-0.6s-0.3-0.5-0.3-0.9c0-0.2,0-0.4,0.1-0.6     c0.1-0.2,0.2-0.4,0.4-0.5c0.2-0.2,0.4-0.3,0.7-0.4c0.3-0.1,0.6-0.1,0.9-0.1c0.3,0,0.7,0,1,0.1c0.3,0.1,0.6,0.2,0.8,0.3l0,1h0     c-0.2-0.2-0.5-0.3-0.9-0.4c-0.3-0.1-0.7-0.2-1-0.2c-0.3,0-0.6,0.1-0.8,0.2c-0.2,0.1-0.3,0.3-0.3,0.6c0,0.2,0.1,0.4,0.2,0.5     c0.1,0.1,0.4,0.2,0.7,0.3c0.2,0,0.4,0.1,0.6,0.1c0.2,0,0.4,0.1,0.5,0.1c0.4,0.1,0.8,0.3,1,0.5     C258.5,196.8,258.6,197.1,258.6,197.5z"/>
		</g>
	</g>
	<g>
		<g>
			<path d="M175.3,231.2c0.3,0.3,0.5,0.7,0.7,1.2c0.2,0.5,0.2,1,0.2,1.6c0,0.6-0.1,1.1-0.2,1.6c-0.2,0.5-0.4,0.9-0.7,1.2     c-0.3,0.3-0.7,0.6-1.1,0.7c-0.4,0.2-0.9,0.2-1.4,0.2c-0.5,0-1-0.1-1.4-0.3c-0.4-0.2-0.8-0.4-1.1-0.7s-0.5-0.7-0.7-1.2     s-0.2-1-0.2-1.6c0-0.6,0.1-1.1,0.2-1.6c0.2-0.5,0.4-0.9,0.7-1.2c0.3-0.3,0.6-0.6,1.1-0.7c0.4-0.2,0.9-0.3,1.4-0.3     c0.5,0,1,0.1,1.4,0.3C174.7,230.6,175,230.9,175.3,231.2z M175.2,234c0-0.9-0.2-1.7-0.6-2.2c-0.4-0.5-1-0.8-1.7-0.8     c-0.7,0-1.3,0.3-1.7,0.8s-0.6,1.2-0.6,2.2c0,1,0.2,1.7,0.6,2.2c0.4,0.5,1,0.8,1.7,0.8s1.3-0.3,1.7-0.8     C175,235.7,175.2,235,175.2,234z"/>
			<path d="M187.4,237.1c-0.4,0.2-0.8,0.3-1.3,0.5c-0.5,0.1-0.9,0.2-1.4,0.2c-0.6,0-1.1-0.1-1.6-0.2c-0.5-0.2-0.9-0.4-1.2-0.7     c-0.3-0.3-0.6-0.7-0.8-1.2c-0.2-0.5-0.3-1-0.3-1.7c0-1.2,0.3-2.1,1-2.8c0.7-0.7,1.6-1,2.8-1c0.4,0,0.8,0.1,1.3,0.1     c0.4,0.1,0.9,0.3,1.4,0.5v1.1h-0.1c-0.1-0.1-0.2-0.2-0.4-0.3s-0.4-0.2-0.6-0.3c-0.2-0.1-0.5-0.2-0.8-0.3c-0.3-0.1-0.6-0.1-1-0.1     c-0.8,0-1.5,0.3-1.9,0.8c-0.5,0.5-0.7,1.2-0.7,2.1c0,0.9,0.2,1.7,0.7,2.2c0.5,0.5,1.2,0.8,2,0.8c0.3,0,0.6,0,0.9-0.1     c0.3-0.1,0.6-0.1,0.8-0.2l0-1.8h-1.9V234l2.9,0L187.4,237.1z"/>
			<path d="M192.4,233.2L192.4,233.2c-0.2,0-0.3-0.1-0.4-0.1c-0.1,0-0.3,0-0.5,0c-0.3,0-0.6,0.1-0.8,0.2c-0.3,0.1-0.5,0.3-0.8,0.5     l0,3.9H189l0-5.5l0.9,0l0,0.8c0.4-0.3,0.7-0.5,1-0.6c0.3-0.1,0.6-0.2,0.9-0.2c0.2,0,0.3,0,0.3,0c0.1,0,0.2,0,0.3,0V233.2z"/>
			<path d="M197.9,234.9c0,0.9-0.2,1.6-0.7,2.1c-0.5,0.5-1.1,0.8-1.8,0.8c-0.8,0-1.4-0.3-1.8-0.8c-0.5-0.5-0.7-1.2-0.7-2.1     c0-0.9,0.2-1.6,0.7-2.1s1.1-0.8,1.8-0.8c0.8,0,1.4,0.3,1.8,0.8S197.9,234,197.9,234.9z M196.9,234.9c0-0.7-0.1-1.2-0.4-1.6     s-0.7-0.5-1.2-0.5c-0.5,0-0.9,0.2-1.2,0.5c-0.3,0.3-0.4,0.9-0.4,1.6c0,0.7,0.1,1.2,0.4,1.6c0.3,0.4,0.7,0.5,1.2,0.5     c0.5,0,0.9-0.2,1.1-0.5C196.8,236.1,196.9,235.6,196.9,234.9z"/>
		</g>
		<g>
			<path d="M204,232.2l-2.2,5.5h-0.9l-2.2-5.5h1l1.7,4.3l1.7-4.3H204z"/>
		</g>
		<g>
			<path d="M209.6,235l-4,0c0,0.3,0.1,0.6,0.2,0.9s0.2,0.5,0.4,0.6c0.2,0.2,0.4,0.3,0.6,0.4c0.2,0.1,0.5,0.1,0.8,0.1     c0.4,0,0.7-0.1,1.1-0.2c0.4-0.1,0.6-0.3,0.8-0.4h0v1c-0.3,0.1-0.6,0.2-0.9,0.3s-0.7,0.1-1,0.1c-0.9,0-1.6-0.2-2.1-0.7     s-0.8-1.2-0.8-2.1c0-0.9,0.2-1.6,0.7-2.1c0.5-0.5,1.1-0.8,1.9-0.8c0.7,0,1.3,0.2,1.7,0.6s0.6,1,0.6,1.8V235z M208.7,234.3     c0-0.5-0.1-0.9-0.4-1.1s-0.6-0.4-1.1-0.4c-0.5,0-0.9,0.1-1.2,0.4c-0.3,0.3-0.5,0.6-0.5,1.1L208.7,234.3z"/>
		</g>
	</g>
	<g>
		<g>
			<path d="M187.5,337c0,0.3-0.1,0.6-0.2,0.8c-0.1,0.3-0.3,0.5-0.6,0.7c-0.3,0.2-0.6,0.4-0.9,0.5s-0.8,0.2-1.3,0.2     c-0.5,0-1,0-1.4-0.1c-0.4-0.1-0.8-0.2-1.3-0.4l0-1.2h0.1c0.4,0.3,0.8,0.5,1.3,0.7c0.5,0.2,0.9,0.3,1.4,0.3c0.6,0,1.1-0.1,1.4-0.3     c0.3-0.2,0.5-0.5,0.5-0.9c0-0.3-0.1-0.6-0.2-0.7s-0.4-0.3-0.7-0.4c-0.2-0.1-0.5-0.1-0.8-0.2c-0.3,0-0.6-0.1-0.9-0.2     c-0.6-0.1-1.1-0.4-1.4-0.7c-0.3-0.3-0.5-0.8-0.5-1.3c0-0.6,0.3-1.1,0.8-1.5c0.5-0.4,1.2-0.6,2-0.6c0.5,0,1,0,1.4,0.1     c0.4,0.1,0.8,0.2,1.1,0.4l0,1.1h-0.1c-0.3-0.2-0.6-0.4-1.1-0.6c-0.5-0.2-0.9-0.2-1.4-0.2c-0.5,0-0.9,0.1-1.2,0.3     s-0.5,0.5-0.5,0.8c0,0.3,0.1,0.5,0.2,0.7c0.2,0.2,0.4,0.3,0.8,0.4c0.2,0,0.5,0.1,0.9,0.2c0.4,0.1,0.7,0.1,1,0.2     c0.5,0.1,0.9,0.4,1.2,0.6C187.4,336.1,187.5,336.5,187.5,337z"/>
			<path d="M193.3,339.1h-0.9l0-0.6c-0.1,0.1-0.2,0.1-0.3,0.2c-0.1,0.1-0.3,0.2-0.4,0.2c-0.2,0.1-0.3,0.1-0.5,0.2     c-0.2,0-0.4,0.1-0.7,0.1c-0.5,0-0.9-0.2-1.3-0.5c-0.3-0.3-0.5-0.7-0.5-1.2c0-0.4,0.1-0.7,0.3-1c0.2-0.3,0.4-0.5,0.8-0.6     c0.3-0.1,0.7-0.2,1.2-0.3c0.5-0.1,1-0.1,1.5-0.1v-0.1c0-0.2,0-0.4-0.1-0.5c-0.1-0.1-0.2-0.2-0.3-0.3c-0.1-0.1-0.3-0.1-0.5-0.2     c-0.2,0-0.4,0-0.6,0c-0.2,0-0.5,0-0.8,0.1c-0.3,0.1-0.6,0.2-0.9,0.3h0v-0.9c0.2,0,0.4-0.1,0.8-0.2c0.3-0.1,0.7-0.1,1-0.1     c0.4,0,0.7,0,1,0.1c0.3,0.1,0.5,0.2,0.7,0.3c0.2,0.2,0.4,0.3,0.5,0.6c0.1,0.2,0.2,0.5,0.2,0.9L193.3,339.1z M192.4,337.7l0-1.5     c-0.3,0-0.6,0-1,0.1c-0.4,0-0.7,0.1-0.9,0.1c-0.3,0.1-0.5,0.2-0.6,0.3c-0.2,0.2-0.2,0.4-0.2,0.7c0,0.3,0.1,0.5,0.3,0.7     c0.2,0.2,0.5,0.2,0.9,0.2c0.3,0,0.6-0.1,0.9-0.2S192.1,337.9,192.4,337.7z"/>
			<path d="M199.6,339.1h-0.9l0-3.1c0-0.3,0-0.5,0-0.7s-0.1-0.4-0.2-0.5c-0.1-0.1-0.2-0.2-0.4-0.3c-0.2-0.1-0.4-0.1-0.6-0.1     c-0.3,0-0.5,0.1-0.8,0.2c-0.3,0.1-0.5,0.3-0.8,0.5l0,4.1H195l0-5.5h0.9v0.6c0.3-0.2,0.6-0.4,0.9-0.6c0.3-0.1,0.6-0.2,0.9-0.2     c0.6,0,1,0.2,1.3,0.5c0.3,0.4,0.5,0.9,0.5,1.5L199.6,339.1z"/>
			<path d="M206.1,339.1l-1.2,0l-1.5-2.1l-1.6,2.1l-1.1,0l2.1-2.7l-2.1-2.7l1.2,0l1.5,2.1l1.5-2.1l1.1,0l-2.1,2.7L206.1,339.1z"/>
		</g>
		<g>
			<path d="M211.7,336.5l-4,0c0,0.3,0.1,0.6,0.2,0.9s0.2,0.5,0.4,0.6c0.2,0.2,0.4,0.3,0.6,0.4c0.2,0.1,0.5,0.1,0.8,0.1     c0.4,0,0.7-0.1,1.1-0.2c0.4-0.1,0.6-0.3,0.8-0.4h0v1c-0.3,0.1-0.6,0.2-0.9,0.3s-0.7,0.1-1,0.1c-0.9,0-1.6-0.2-2.1-0.7     s-0.8-1.2-0.8-2.1c0-0.9,0.2-1.6,0.7-2.1c0.5-0.5,1.1-0.8,1.9-0.8c0.7,0,1.3,0.2,1.7,0.6s0.6,1,0.6,1.8V336.5z M210.8,335.8     c0-0.5-0.1-0.9-0.4-1.1s-0.6-0.4-1.1-0.4c-0.5,0-0.9,0.1-1.2,0.4c-0.3,0.3-0.5,0.6-0.5,1.1L210.8,335.8z"/>
			<path d="M217.7,339.1l-0.9,0l0-3.1c0-0.3,0-0.5,0-0.7s-0.1-0.4-0.2-0.5c-0.1-0.1-0.2-0.2-0.4-0.3c-0.2-0.1-0.4-0.1-0.6-0.1     c-0.3,0-0.5,0.1-0.8,0.2s-0.5,0.3-0.8,0.5l0,4.1h-0.9l0-5.5l0.9,0v0.6c0.3-0.2,0.6-0.4,0.9-0.6c0.3-0.1,0.6-0.2,0.9-0.2     c0.6,0,1,0.2,1.3,0.5c0.3,0.4,0.5,0.9,0.5,1.5L217.7,339.1z"/>
			<path d="M224.2,339.1H223l-1.5-2.1l-1.6,2.1h-1.1l2.1-2.7l-2.1-2.7h1.2l1.5,2.1l1.5-2.1h1.1l-2.1,2.7L224.2,339.1z"/>
		</g>
		<g>
			<path d="M229.9,336.4c0,0.9-0.2,1.6-0.7,2.1c-0.5,0.5-1.1,0.8-1.8,0.8c-0.8,0-1.4-0.3-1.8-0.8c-0.5-0.5-0.7-1.2-0.7-2.1     c0-0.9,0.2-1.6,0.7-2.1c0.5-0.5,1.1-0.8,1.8-0.8c0.8,0,1.4,0.3,1.8,0.8C229.7,334.8,229.9,335.5,229.9,336.4z M228.9,336.4     c0-0.7-0.1-1.2-0.4-1.6c-0.3-0.3-0.7-0.5-1.2-0.5c-0.5,0-0.9,0.2-1.2,0.5c-0.3,0.3-0.4,0.9-0.4,1.6c0,0.7,0.1,1.2,0.4,1.6     c0.3,0.4,0.7,0.5,1.2,0.5c0.5,0,0.9-0.2,1.2-0.5C228.8,337.6,228.9,337.1,228.9,336.4z"/>
		</g>
	</g>
</g>
<g id="text-comarques">
	<g>
		<g>
			<path style="fill:#1A171B;" d="M310.3,403.5c0,1.2-0.3,2.1-1,2.8c-0.7,0.7-1.6,1-2.8,1c-1.2,0-2.1-0.3-2.7-1s-1-1.6-1-2.8     c0-1.2,0.3-2.1,1-2.8c0.7-0.7,1.6-1,2.7-1c1.2,0,2.1,0.3,2.7,1C310,401.4,310.3,402.3,310.3,403.5z M307.9,405.4     c0.2-0.2,0.3-0.5,0.4-0.8c0.1-0.3,0.1-0.7,0.1-1.1c0-0.4-0.1-0.8-0.2-1.1s-0.2-0.6-0.4-0.7c-0.2-0.2-0.4-0.3-0.6-0.4     c-0.2-0.1-0.4-0.1-0.7-0.1c-0.2,0-0.5,0-0.7,0.1s-0.4,0.2-0.6,0.4c-0.2,0.2-0.3,0.4-0.4,0.8c-0.1,0.3-0.2,0.7-0.2,1.1     c0,0.4,0,0.8,0.2,1.1c0.1,0.3,0.2,0.6,0.4,0.7s0.4,0.3,0.6,0.4s0.4,0.1,0.7,0.1s0.5,0,0.7-0.1S307.7,405.5,307.9,405.4z"/>
			<path style="fill:#1A171B;" d="M322.8,407.2H321l0-4.9l-1.3,3.2h-1.3l-1.3-3.2l0,4.9h-1.8l0-7.3h2.2l1.6,3.6l1.6-3.6l2.2,0     L322.8,407.2z"/>
			<path style="fill:#1A171B;" d="M330.2,404.4c0,0.9-0.3,1.6-0.8,2.1c-0.5,0.5-1.3,0.8-2.2,0.8c-1,0-1.7-0.3-2.2-0.8     c-0.5-0.5-0.8-1.2-0.8-2.1c0-0.9,0.3-1.6,0.8-2.1c0.5-0.5,1.3-0.8,2.2-0.8c1,0,1.7,0.3,2.2,0.8S330.2,403.5,330.2,404.4z      M328,405.7c0.1-0.1,0.2-0.3,0.3-0.5c0.1-0.2,0.1-0.5,0.1-0.8c0-0.3,0-0.6-0.1-0.8s-0.1-0.4-0.2-0.5c-0.1-0.1-0.2-0.2-0.4-0.3     s-0.3-0.1-0.5-0.1s-0.3,0-0.5,0.1s-0.3,0.1-0.4,0.3c-0.1,0.1-0.2,0.3-0.3,0.5s-0.1,0.5-0.1,0.8c0,0.3,0,0.6,0.1,0.8     s0.1,0.4,0.2,0.5c0.1,0.1,0.2,0.2,0.4,0.3c0.1,0.1,0.3,0.1,0.5,0.1c0.2,0,0.3,0,0.5-0.1C327.8,406,327.9,405.9,328,405.7z"/>
			<path style="fill:#1A171B;" d="M335.4,403.3h-0.2c-0.1,0-0.2,0-0.4-0.1c-0.2,0-0.3,0-0.4,0c-0.3,0-0.5,0-0.7,0     c-0.2,0-0.4,0.1-0.6,0.2l0,3.7h-1.8l0-5.5h1.8v0.8c0.4-0.3,0.7-0.6,1-0.7c0.3-0.1,0.5-0.2,0.8-0.2c0.1,0,0.1,0,0.2,0     c0.1,0,0.1,0,0.2,0V403.3z"/>
			<path style="fill:#1A171B;" d="M340.4,403.3h-0.2c-0.1,0-0.2,0-0.4-0.1c-0.2,0-0.3,0-0.4,0c-0.3,0-0.5,0-0.7,0     c-0.2,0-0.4,0.1-0.6,0.2l0,3.7h-1.8l0-5.5h1.8v0.8c0.4-0.3,0.7-0.6,1-0.7c0.3-0.1,0.5-0.2,0.8-0.2c0.1,0,0.1,0,0.2,0     c0.1,0,0.1,0,0.2,0V403.3z"/>
			<path style="fill:#1A171B;" d="M344.7,406.6c-0.1,0.1-0.2,0.2-0.4,0.3s-0.3,0.2-0.4,0.2c-0.2,0.1-0.4,0.1-0.5,0.2     c-0.2,0-0.4,0.1-0.6,0.1c-0.5,0-1-0.2-1.3-0.5s-0.5-0.7-0.5-1.2c0-0.4,0.1-0.7,0.3-1c0.2-0.3,0.4-0.5,0.8-0.6     c0.3-0.1,0.7-0.3,1.2-0.3s1-0.1,1.5-0.1v0c0-0.3-0.1-0.5-0.4-0.6c-0.2-0.1-0.6-0.2-1.1-0.2c-0.3,0-0.6,0.1-0.9,0.2     s-0.6,0.2-0.7,0.2h-0.2v-1.3c0.2,0,0.5-0.1,0.9-0.2c0.4-0.1,0.8-0.1,1.3-0.1c1,0,1.7,0.2,2.2,0.5c0.4,0.3,0.7,0.8,0.7,1.4l0,3.7     l-1.7,0V406.6z M344.7,405.7l0-1.1c-0.2,0-0.5,0-0.8,0.1s-0.5,0.1-0.6,0.1c-0.2,0.1-0.3,0.1-0.4,0.2s-0.1,0.2-0.1,0.4     c0,0.1,0,0.2,0,0.3s0.1,0.1,0.1,0.2c0.1,0.1,0.2,0.1,0.3,0.1c0.1,0,0.3,0,0.5,0c0.2,0,0.4,0,0.5-0.1S344.6,405.8,344.7,405.7z"/>
			<path style="fill:#1A171B;" d="M352.8,407.2l-5.2,0V406l2.9-3.1l-2.8,0v-1.3l5,0v1.1l-2.8,3.1l2.9,0V407.2z"/>
			<path style="fill:#1A171B;" d="M359.6,404.4c0,0.9-0.3,1.6-0.8,2.1c-0.5,0.5-1.3,0.8-2.2,0.8c-1,0-1.7-0.3-2.2-0.8     c-0.5-0.5-0.8-1.2-0.8-2.1c0-0.9,0.3-1.6,0.8-2.1c0.5-0.5,1.3-0.8,2.2-0.8c1,0,1.7,0.3,2.2,0.8     C359.4,402.8,359.6,403.5,359.6,404.4z M357.5,405.8c0.1-0.1,0.2-0.3,0.3-0.5c0.1-0.2,0.1-0.5,0.1-0.8c0-0.3,0-0.6-0.1-0.8     s-0.1-0.4-0.2-0.5c-0.1-0.1-0.2-0.2-0.4-0.3s-0.3-0.1-0.5-0.1s-0.3,0-0.5,0.1s-0.3,0.1-0.4,0.3c-0.1,0.1-0.2,0.3-0.3,0.5     s-0.1,0.5-0.1,0.8c0,0.3,0,0.6,0.1,0.8s0.1,0.4,0.2,0.5c0.1,0.1,0.2,0.2,0.4,0.3c0.1,0.1,0.3,0.1,0.5,0.1c0.2,0,0.3,0,0.5-0.1     C357.2,406,357.4,405.9,357.5,405.8z"/>
		</g>
	</g>
	<g>
		<g>
			<path style="fill:#1A171B;" d="M317.1,20.8c-0.5,0-1-0.1-1.5-0.2c-0.5-0.2-0.9-0.4-1.2-0.7s-0.6-0.7-0.8-1.2     c-0.2-0.5-0.3-1-0.3-1.6c0-0.6,0.1-1.1,0.3-1.6c0.2-0.5,0.4-0.9,0.8-1.2c0.3-0.3,0.7-0.6,1.2-0.7c0.5-0.2,1-0.3,1.5-0.3     c0.3,0,0.6,0,0.8,0.1c0.2,0,0.5,0.1,0.7,0.1c0.2,0.1,0.4,0.1,0.6,0.2c0.2,0.1,0.3,0.1,0.5,0.2l0,1.8h-0.2     c-0.1-0.1-0.2-0.2-0.3-0.3s-0.3-0.2-0.5-0.3c-0.2-0.1-0.4-0.2-0.6-0.3c-0.2-0.1-0.4-0.1-0.7-0.1c-0.3,0-0.5,0-0.8,0.1     c-0.2,0.1-0.5,0.2-0.7,0.4c-0.2,0.2-0.3,0.4-0.5,0.7c-0.1,0.3-0.2,0.7-0.2,1.1c0,0.5,0.1,0.8,0.2,1.1c0.1,0.3,0.3,0.5,0.5,0.7     c0.2,0.2,0.4,0.3,0.7,0.4c0.2,0.1,0.5,0.1,0.7,0.1c0.2,0,0.5,0,0.7-0.1s0.4-0.2,0.6-0.3c0.2-0.1,0.3-0.2,0.4-0.3s0.2-0.2,0.3-0.3     h0.2l0,1.7c-0.2,0.1-0.4,0.2-0.5,0.2c-0.2,0.1-0.3,0.1-0.5,0.2c-0.2,0.1-0.5,0.1-0.7,0.2S317.5,20.8,317.1,20.8z"/>
			<path style="fill:#1A171B;" d="M324.3,20.1c-0.1,0.1-0.2,0.2-0.4,0.3c-0.1,0.1-0.3,0.2-0.4,0.2c-0.2,0.1-0.4,0.1-0.5,0.2     c-0.2,0-0.4,0.1-0.6,0.1c-0.5,0-1-0.2-1.3-0.5s-0.5-0.7-0.5-1.2c0-0.4,0.1-0.7,0.3-1c0.2-0.3,0.4-0.5,0.8-0.6     c0.3-0.1,0.7-0.3,1.2-0.3c0.5-0.1,1-0.1,1.5-0.1v0c0-0.3-0.1-0.5-0.4-0.6c-0.2-0.1-0.6-0.2-1.1-0.2c-0.3,0-0.6,0.1-0.9,0.2     s-0.6,0.2-0.7,0.2H321v-1.3c0.2,0,0.5-0.1,0.9-0.2s0.8-0.1,1.3-0.1c1,0,1.7,0.2,2.2,0.5s0.7,0.8,0.7,1.4l0,3.7l-1.7,0V20.1z      M324.3,19.3l0-1.1c-0.2,0-0.5,0-0.8,0.1c-0.3,0-0.5,0.1-0.6,0.1c-0.2,0.1-0.3,0.1-0.4,0.2s-0.1,0.2-0.1,0.4c0,0.1,0,0.2,0,0.3     s0.1,0.1,0.1,0.2c0.1,0.1,0.2,0.1,0.3,0.1s0.3,0,0.5,0c0.2,0,0.4,0,0.5-0.1S324.1,19.4,324.3,19.3z"/>
			<path style="fill:#1A171B;" d="M329.4,20.7l-1.8,0l0-7.6l1.8,0L329.4,20.7z"/>
			<path style="fill:#1A171B;" d="M336.4,20.7l-1.8,0v-0.6c-0.3,0.2-0.6,0.4-0.8,0.5c-0.3,0.1-0.6,0.2-0.9,0.2     c-0.7,0-1.2-0.3-1.6-0.8c-0.4-0.5-0.6-1.2-0.6-2.1c0-0.5,0.1-0.9,0.2-1.2c0.1-0.4,0.3-0.7,0.6-0.9c0.2-0.2,0.5-0.4,0.8-0.6     c0.3-0.1,0.6-0.2,0.9-0.2c0.3,0,0.6,0,0.8,0.1c0.2,0.1,0.4,0.2,0.6,0.3l0-2.3l1.8,0L336.4,20.7z M334.6,19.2l0-2.7     c-0.1-0.1-0.3-0.1-0.4-0.1c-0.1,0-0.3,0-0.4,0c-0.5,0-0.8,0.1-1,0.4s-0.3,0.7-0.3,1.2c0,0.5,0.1,0.9,0.3,1.2     c0.2,0.2,0.5,0.4,0.9,0.4c0.2,0,0.3,0,0.5-0.1S334.5,19.3,334.6,19.2z"/>
			<path style="fill:#1A171B;" d="M341.4,20.1c-0.1,0.1-0.2,0.2-0.4,0.3c-0.1,0.1-0.3,0.2-0.4,0.2c-0.2,0.1-0.4,0.1-0.5,0.2     c-0.2,0-0.4,0.1-0.6,0.1c-0.5,0-1-0.2-1.3-0.5c-0.4-0.3-0.5-0.7-0.5-1.2c0-0.4,0.1-0.7,0.3-1c0.2-0.3,0.4-0.5,0.8-0.6     c0.3-0.1,0.7-0.3,1.2-0.3c0.5-0.1,1-0.1,1.5-0.1v0c0-0.3-0.1-0.5-0.4-0.6c-0.2-0.1-0.6-0.2-1.1-0.2c-0.3,0-0.6,0.1-0.9,0.2     s-0.6,0.2-0.7,0.2l-0.2,0v-1.3c0.2,0,0.5-0.1,0.9-0.2c0.4-0.1,0.8-0.1,1.3-0.1c1,0,1.7,0.2,2.2,0.5c0.4,0.3,0.7,0.8,0.7,1.4     l0,3.7l-1.7,0V20.1z M341.4,19.3v-1.1c-0.2,0-0.5,0-0.8,0.1c-0.3,0-0.5,0.1-0.6,0.1c-0.2,0.1-0.3,0.1-0.4,0.2     c-0.1,0.1-0.1,0.2-0.1,0.4c0,0.1,0,0.2,0,0.3s0.1,0.1,0.1,0.2c0.1,0.1,0.2,0.1,0.3,0.1s0.3,0,0.5,0c0.2,0,0.4,0,0.5-0.1     S341.2,19.4,341.4,19.3z"/>
			<path style="fill:#1A171B;" d="M349.5,19c0,0.6-0.3,1-0.8,1.4c-0.5,0.3-1.2,0.5-2.1,0.5c-0.5,0-0.9,0-1.3-0.1     c-0.4-0.1-0.7-0.2-1-0.3V19h0.2c0.1,0.1,0.2,0.1,0.3,0.2c0.1,0.1,0.3,0.2,0.5,0.2c0.2,0.1,0.4,0.1,0.6,0.2s0.5,0.1,0.7,0.1     c0.3,0,0.6,0,0.8-0.1s0.2-0.2,0.2-0.3c0-0.1,0-0.2-0.1-0.3s-0.3-0.1-0.6-0.2c-0.1,0-0.3-0.1-0.5-0.1c-0.2,0-0.4-0.1-0.6-0.1     c-0.5-0.1-0.9-0.3-1.1-0.6c-0.2-0.3-0.4-0.6-0.4-1c0-0.5,0.3-1,0.8-1.3c0.5-0.3,1.2-0.5,2-0.5c0.4,0,0.8,0,1.2,0.1     c0.4,0.1,0.7,0.2,0.9,0.3v1.4h-0.2c-0.3-0.2-0.6-0.3-0.9-0.4c-0.3-0.1-0.7-0.2-1-0.2c-0.3,0-0.5,0-0.7,0.1     c-0.2,0.1-0.3,0.2-0.3,0.3c0,0.1,0,0.2,0.1,0.3s0.3,0.1,0.6,0.2c0.2,0,0.4,0.1,0.6,0.1s0.4,0.1,0.6,0.1c0.5,0.1,0.8,0.3,1,0.6     S349.5,18.6,349.5,19z"/>
			<path style="fill:#1A171B;" d="M352.8,18.8l-1.8,3.7H350l1-3.7L352.8,18.8z"/>
			<path style="fill:#1A171B;" d="M363.5,14.8l-2.3,0l0,5.9l-1.9,0l0-5.9l-2.3,0v-1.4l6.4,0V14.8z"/>
			<path style="fill:#1A171B;" d="M367.8,20.1c-0.1,0.1-0.2,0.2-0.4,0.3c-0.1,0.1-0.3,0.2-0.4,0.2c-0.2,0.1-0.4,0.1-0.5,0.2     c-0.2,0-0.4,0.1-0.6,0.1c-0.5,0-1-0.2-1.3-0.5s-0.5-0.7-0.5-1.2c0-0.4,0.1-0.7,0.3-1s0.4-0.5,0.8-0.6c0.3-0.1,0.7-0.3,1.2-0.3     c0.5-0.1,1-0.1,1.5-0.1v0c0-0.3-0.1-0.5-0.4-0.6c-0.2-0.1-0.6-0.2-1.1-0.2c-0.3,0-0.6,0.1-0.9,0.2c-0.3,0.1-0.6,0.2-0.7,0.2h-0.2     l0-1.3c0.2,0,0.5-0.1,0.9-0.2c0.4-0.1,0.8-0.1,1.3-0.1c1,0,1.7,0.2,2.2,0.5s0.7,0.8,0.7,1.4l0,3.7l-1.7,0V20.1z M367.8,19.3v-1.1     c-0.2,0-0.5,0-0.8,0.1c-0.3,0-0.5,0.1-0.6,0.1c-0.2,0.1-0.3,0.1-0.4,0.2s-0.1,0.2-0.1,0.4c0,0.1,0,0.2,0,0.3     c0,0.1,0.1,0.1,0.1,0.2c0.1,0.1,0.2,0.1,0.3,0.1c0.1,0,0.3,0,0.5,0c0.2,0,0.4,0,0.5-0.1S367.7,19.4,367.8,19.3z"/>
			<path style="fill:#1A171B;" d="M376.9,17.9c0,0.9-0.2,1.6-0.7,2.1c-0.5,0.5-1.1,0.8-1.8,0.8c-0.3,0-0.6,0-0.8-0.1     c-0.2-0.1-0.5-0.2-0.7-0.3l-0.1,0.3l-1.7,0l0-7.6l1.8,0v2.7c0.3-0.2,0.5-0.4,0.8-0.5s0.6-0.2,1-0.2c0.7,0,1.2,0.3,1.6,0.7     C376.7,16.3,376.9,17,376.9,17.9z M375.1,17.9c0-0.5-0.1-0.9-0.2-1.1c-0.2-0.3-0.5-0.4-0.9-0.4c-0.2,0-0.3,0-0.5,0.1     c-0.2,0.1-0.3,0.1-0.5,0.2l0,2.7c0.1,0,0.2,0.1,0.4,0.1c0.1,0,0.3,0,0.4,0c0.5,0,0.8-0.1,1-0.4C375,18.9,375.1,18.5,375.1,17.9z"/>
			<path style="fill:#1A171B;" d="M383.6,18.3l-4,0c0,0.4,0.2,0.8,0.5,1s0.7,0.3,1.3,0.3c0.4,0,0.7-0.1,1.1-0.2     c0.3-0.1,0.6-0.3,0.8-0.4h0.2v1.4c-0.4,0.2-0.8,0.3-1.1,0.3c-0.4,0.1-0.7,0.1-1.2,0.1c-1.1,0-1.9-0.2-2.5-0.7s-0.9-1.2-0.9-2.1     c0-0.9,0.3-1.6,0.8-2.2s1.3-0.8,2.3-0.8c0.9,0,1.6,0.2,2,0.7c0.4,0.5,0.7,1.1,0.7,1.9V18.3z M381.8,17.3c0-0.4-0.1-0.6-0.3-0.8     c-0.2-0.2-0.4-0.3-0.8-0.3c-0.3,0-0.6,0.1-0.8,0.3c-0.2,0.2-0.3,0.5-0.4,0.8L381.8,17.3z"/>
			<path style="fill:#1A171B;" d="M386.6,14.4l-1.9,0v-1.3l1.9,0V14.4z M386.6,20.7l-1.8,0l0-5.5l1.8,0L386.6,20.7z"/>
			<path style="fill:#1A171B;" d="M392.2,16.9H392c-0.1,0-0.2,0-0.4-0.1c-0.2,0-0.3,0-0.4,0c-0.3,0-0.5,0-0.7,0     c-0.2,0-0.4,0.1-0.6,0.2l0,3.7l-1.8,0l0-5.5l1.8,0V16c0.4-0.3,0.7-0.6,1-0.7c0.3-0.1,0.5-0.2,0.8-0.2c0.1,0,0.1,0,0.2,0     c0.1,0,0.1,0,0.2,0V16.9z"/>
			<path style="fill:#1A171B;" d="M398.8,18c0,0.9-0.3,1.6-0.8,2.1c-0.5,0.5-1.3,0.8-2.2,0.8c-1,0-1.7-0.3-2.2-0.8     c-0.5-0.5-0.8-1.2-0.8-2.1c0-0.9,0.3-1.6,0.8-2.1c0.5-0.5,1.3-0.8,2.2-0.8c1,0,1.7,0.3,2.2,0.8C398.5,16.4,398.8,17.1,398.8,18z      M397.5,12.5L397.5,12.5l-1.7,1.9l-1.2,0l1.2-1.9L397.5,12.5z M396.6,19.3c0.1-0.1,0.2-0.3,0.3-0.5c0.1-0.2,0.1-0.5,0.1-0.8     c0-0.3,0-0.6-0.1-0.8c-0.1-0.2-0.1-0.4-0.2-0.5c-0.1-0.1-0.2-0.2-0.4-0.3c-0.1-0.1-0.3-0.1-0.5-0.1s-0.3,0-0.5,0.1     c-0.1,0-0.3,0.1-0.4,0.3c-0.1,0.1-0.2,0.3-0.3,0.5c-0.1,0.2-0.1,0.5-0.1,0.8c0,0.3,0,0.6,0.1,0.8c0.1,0.2,0.1,0.4,0.2,0.5     c0.1,0.1,0.2,0.2,0.4,0.3c0.1,0.1,0.3,0.1,0.5,0.1c0.2,0,0.3,0,0.5-0.1C396.4,19.5,396.5,19.4,396.6,19.3z"/>
			<path style="fill:#1A171B;" d="M404.8,19c0,0.6-0.3,1-0.8,1.4c-0.5,0.3-1.2,0.5-2.1,0.5c-0.5,0-0.9,0-1.3-0.1     c-0.4-0.1-0.7-0.2-1-0.3V19h0.2c0.1,0.1,0.2,0.1,0.3,0.2c0.1,0.1,0.3,0.2,0.5,0.2c0.2,0.1,0.4,0.1,0.6,0.2s0.5,0.1,0.7,0.1     c0.3,0,0.6,0,0.8-0.1s0.2-0.2,0.2-0.3c0-0.1,0-0.2-0.1-0.3s-0.3-0.1-0.6-0.2c-0.1,0-0.3-0.1-0.5-0.1c-0.2,0-0.4-0.1-0.6-0.1     c-0.5-0.1-0.9-0.3-1.1-0.6c-0.2-0.3-0.4-0.6-0.4-1c0-0.5,0.3-1,0.7-1.3c0.5-0.3,1.2-0.5,2-0.5c0.4,0,0.8,0,1.2,0.1     c0.4,0.1,0.7,0.2,0.9,0.3v1.4h-0.2c-0.3-0.2-0.6-0.3-0.9-0.4c-0.3-0.1-0.7-0.2-1-0.2c-0.3,0-0.5,0-0.7,0.1     c-0.2,0.1-0.3,0.2-0.3,0.3c0,0.1,0,0.2,0.1,0.3s0.3,0.1,0.6,0.2c0.2,0,0.4,0.1,0.6,0.1s0.4,0.1,0.6,0.1c0.5,0.1,0.8,0.3,1,0.6     C404.7,18.3,404.8,18.6,404.8,19z"/>
			<path style="fill:#1A171B;" d="M408.2,18.8l-1.8,3.7h-1.1l1-3.7L408.2,18.8z"/>
			<path style="fill:#1A171B;" d="M420,17.1c0,0.7-0.2,1.3-0.5,1.8c-0.3,0.5-0.7,0.9-1.2,1.2c-0.4,0.2-0.7,0.4-1.2,0.4     c-0.4,0.1-0.9,0.1-1.5,0.1l-2.6,0l0-7.3l2.6,0c0.6,0,1.1,0.1,1.5,0.1c0.4,0.1,0.8,0.2,1.1,0.4c0.5,0.3,0.9,0.7,1.2,1.2     C419.9,15.8,420,16.4,420,17.1z M418.1,17.1c0-0.5-0.1-0.9-0.3-1.2c-0.2-0.3-0.5-0.6-0.8-0.8c-0.2-0.1-0.4-0.2-0.6-0.2     c-0.2,0-0.5-0.1-0.9-0.1H415l0,4.6h0.5c0.4,0,0.8,0,1-0.1s0.4-0.1,0.6-0.2c0.3-0.2,0.6-0.5,0.8-0.8C418,18,418.1,17.6,418.1,17.1     z"/>
			<path style="fill:#1A171B;" d="M426.7,18.3l-4,0c0,0.4,0.2,0.8,0.5,1c0.3,0.2,0.7,0.3,1.3,0.3c0.4,0,0.7-0.1,1.1-0.2     c0.3-0.1,0.6-0.3,0.8-0.4h0.2l0,1.4c-0.4,0.2-0.8,0.3-1.1,0.3s-0.7,0.1-1.2,0.1c-1.1,0-1.9-0.2-2.5-0.7c-0.6-0.5-0.9-1.2-0.9-2.1     c0-0.9,0.3-1.6,0.8-2.2s1.3-0.8,2.3-0.8c0.9,0,1.6,0.2,2,0.7c0.4,0.5,0.7,1.1,0.7,1.9V18.3z M425,17.3c0-0.4-0.1-0.6-0.3-0.8     c-0.2-0.2-0.4-0.3-0.8-0.3c-0.3,0-0.6,0.1-0.8,0.3c-0.2,0.2-0.3,0.5-0.4,0.8L425,17.3z"/>
			<path style="fill:#1A171B;" d="M432.7,20.7l-5.2,0l0-1.1l2.9-3.1l-2.8,0l0-1.3l5,0l0,1.1l-2.8,3.1l2.9,0L432.7,20.7z"/>
			<path style="fill:#1A171B;" d="M437.3,20.1c-0.1,0.1-0.2,0.2-0.4,0.3c-0.1,0.1-0.3,0.2-0.4,0.2c-0.2,0.1-0.4,0.1-0.5,0.2     c-0.2,0-0.4,0.1-0.6,0.1c-0.5,0-1-0.2-1.3-0.5s-0.5-0.7-0.5-1.2c0-0.4,0.1-0.7,0.3-1s0.4-0.5,0.8-0.6c0.3-0.1,0.7-0.3,1.2-0.3     s1-0.1,1.5-0.1v0c0-0.3-0.1-0.5-0.4-0.6c-0.2-0.1-0.6-0.2-1.1-0.2c-0.3,0-0.6,0.1-0.9,0.2c-0.3,0.1-0.6,0.2-0.7,0.2H434l0-1.3     c0.2,0,0.5-0.1,0.9-0.2c0.4-0.1,0.8-0.1,1.3-0.1c1,0,1.7,0.2,2.2,0.5c0.4,0.3,0.7,0.8,0.7,1.4l0,3.7l-1.7,0V20.1z M437.3,19.3     v-1.1c-0.2,0-0.5,0-0.8,0.1c-0.3,0-0.5,0.1-0.6,0.1c-0.2,0.1-0.3,0.1-0.4,0.2s-0.1,0.2-0.1,0.4c0,0.1,0,0.2,0,0.3     c0,0.1,0.1,0.1,0.1,0.2c0.1,0.1,0.2,0.1,0.3,0.1c0.1,0,0.3,0,0.5,0c0.2,0,0.4,0,0.5-0.1S437.1,19.4,437.3,19.3z"/>
		</g>
	</g>
	<g>
		<g>
			<path style="fill:#1A171B;" d="M331,287.5l-1.9,0l-0.5-1.5l-2.7,0l-0.5,1.5h-1.9l2.7-7.3l2.2,0L331,287.5z M328.8,277.5     L328.8,277.5l-1.7,1.9l-1.2,0l1.2-1.9H328.8z M328.1,284.7l-0.9-2.6l-0.9,2.6L328.1,284.7z"/>
			<path style="fill:#1A171B;" d="M335.9,283.7h-0.2c-0.1,0-0.2,0-0.4-0.1c-0.2,0-0.3,0-0.4,0c-0.3,0-0.5,0-0.7,0     c-0.2,0-0.4,0.1-0.6,0.2l0,3.7h-1.8l0-5.5h1.8l0,0.8c0.4-0.3,0.7-0.6,1-0.7c0.3-0.1,0.5-0.2,0.8-0.2c0.1,0,0.1,0,0.2,0     c0.1,0,0.1,0,0.2,0L335.9,283.7z"/>
			<path style="fill:#1A171B;" d="M342.3,285.1l-4,0c0,0.4,0.2,0.8,0.5,1s0.7,0.3,1.3,0.3c0.4,0,0.7-0.1,1.1-0.2     c0.3-0.1,0.6-0.3,0.8-0.4h0.2l0,1.4c-0.4,0.2-0.8,0.3-1.1,0.3s-0.7,0.1-1.2,0.1c-1.1,0-1.9-0.2-2.5-0.7c-0.6-0.5-0.9-1.2-0.9-2.1     c0-0.9,0.3-1.6,0.8-2.2c0.6-0.5,1.3-0.8,2.3-0.8c0.9,0,1.6,0.2,2,0.7c0.5,0.5,0.7,1.1,0.7,1.9V285.1z M340.5,284     c0-0.4-0.1-0.6-0.3-0.8s-0.4-0.3-0.8-0.3c-0.3,0-0.6,0.1-0.8,0.3s-0.3,0.5-0.4,0.8H340.5z"/>
			<path style="fill:#1A171B;" d="M346.8,286.9c-0.1,0.1-0.2,0.2-0.4,0.3s-0.3,0.2-0.4,0.2c-0.2,0.1-0.4,0.1-0.5,0.2     c-0.2,0-0.4,0.1-0.6,0.1c-0.5,0-1-0.2-1.3-0.5s-0.5-0.7-0.5-1.2c0-0.4,0.1-0.7,0.3-1s0.4-0.5,0.8-0.6c0.3-0.1,0.7-0.3,1.2-0.3     s1-0.1,1.5-0.1v0c0-0.3-0.1-0.5-0.4-0.6c-0.2-0.1-0.6-0.2-1.1-0.2c-0.3,0-0.6,0.1-0.9,0.2c-0.3,0.1-0.6,0.2-0.7,0.2h-0.2l0-1.3     c0.2,0,0.5-0.1,0.9-0.2c0.4-0.1,0.8-0.1,1.3-0.1c1,0,1.7,0.2,2.2,0.5c0.4,0.3,0.7,0.8,0.7,1.4l0,3.7l-1.7,0V286.9z M346.8,286     v-1.1c-0.2,0-0.5,0-0.8,0.1s-0.5,0.1-0.6,0.1c-0.2,0.1-0.3,0.1-0.4,0.2s-0.1,0.2-0.1,0.4c0,0.1,0,0.2,0,0.3     c0,0.1,0.1,0.1,0.1,0.2c0.1,0.1,0.2,0.1,0.3,0.1c0.1,0,0.3,0,0.5,0c0.2,0,0.4,0,0.5-0.1S346.7,286.2,346.8,286z"/>
			<path style="fill:#1A171B;" d="M358.9,287.5l-1.8,0v-0.6c-0.3,0.2-0.6,0.4-0.8,0.5s-0.6,0.2-0.9,0.2c-0.7,0-1.2-0.3-1.6-0.8     c-0.4-0.5-0.6-1.2-0.6-2.1c0-0.5,0.1-0.9,0.2-1.2c0.1-0.4,0.3-0.7,0.6-0.9c0.2-0.2,0.5-0.4,0.8-0.6s0.6-0.2,0.9-0.2     c0.3,0,0.6,0,0.8,0.1c0.2,0.1,0.4,0.2,0.6,0.3v-2.3l1.8,0L358.9,287.5z M357.2,286v-2.7c-0.1-0.1-0.3-0.1-0.4-0.1s-0.3,0-0.4,0     c-0.5,0-0.8,0.1-1,0.4c-0.2,0.3-0.3,0.7-0.3,1.2c0,0.5,0.1,0.9,0.3,1.2c0.2,0.2,0.5,0.4,0.9,0.4c0.2,0,0.3,0,0.5-0.1     C356.9,286.2,357,286.1,357.2,286z"/>
			<path style="fill:#1A171B;" d="M366,285.1l-4,0c0,0.4,0.2,0.8,0.5,1s0.7,0.3,1.3,0.3c0.4,0,0.7-0.1,1.1-0.2     c0.3-0.1,0.6-0.3,0.8-0.4h0.2l0,1.4c-0.4,0.2-0.8,0.3-1.1,0.3c-0.4,0.1-0.7,0.1-1.2,0.1c-1.1,0-1.9-0.2-2.5-0.7     c-0.6-0.5-0.9-1.2-0.9-2.1c0-0.9,0.3-1.6,0.8-2.2c0.6-0.5,1.3-0.8,2.3-0.8c0.9,0,1.6,0.2,2,0.7c0.5,0.5,0.7,1.1,0.7,1.9V285.1z      M364.3,284c0-0.4-0.1-0.6-0.3-0.8s-0.4-0.3-0.8-0.3c-0.3,0-0.6,0.1-0.8,0.3s-0.3,0.5-0.4,0.8H364.3z"/>
			<path style="fill:#1A171B;" d="M376.8,282.5c0,0.3-0.1,0.6-0.2,1c-0.1,0.3-0.3,0.6-0.5,0.8c-0.3,0.3-0.6,0.5-1,0.6     s-0.8,0.2-1.3,0.2h-1.2l0,2.4l-1.9,0l0-7.3l3.1,0c0.5,0,0.9,0,1.2,0.1c0.3,0.1,0.6,0.2,0.8,0.4c0.3,0.2,0.5,0.4,0.7,0.7     C376.7,281.7,376.8,282.1,376.8,282.5z M374.8,282.6c0-0.2-0.1-0.4-0.2-0.5c-0.1-0.1-0.2-0.3-0.4-0.3c-0.2-0.1-0.4-0.1-0.6-0.1     c-0.2,0-0.4,0-0.7,0h-0.3l0,2.2h0.5c0.3,0,0.6,0,0.8-0.1c0.2,0,0.4-0.1,0.5-0.2c0.1-0.1,0.2-0.2,0.3-0.4S374.8,282.8,374.8,282.6     z"/>
			<path style="fill:#1A171B;" d="M383.6,284.8c0,0.9-0.3,1.6-0.8,2.1c-0.5,0.5-1.3,0.8-2.2,0.8s-1.7-0.3-2.2-0.8     c-0.5-0.5-0.8-1.2-0.8-2.1c0-0.9,0.3-1.6,0.8-2.1c0.5-0.5,1.3-0.8,2.2-0.8c1,0,1.7,0.3,2.2,0.8     C383.3,283.1,383.6,283.9,383.6,284.8z M381.4,286.1c0.1-0.1,0.2-0.3,0.3-0.5c0.1-0.2,0.1-0.5,0.1-0.8c0-0.3,0-0.6-0.1-0.8     s-0.1-0.4-0.2-0.5c-0.1-0.1-0.2-0.2-0.4-0.3s-0.3-0.1-0.5-0.1s-0.3,0-0.5,0.1s-0.3,0.1-0.4,0.3c-0.1,0.1-0.2,0.3-0.3,0.5     s-0.1,0.5-0.1,0.8c0,0.3,0,0.6,0.1,0.8s0.1,0.4,0.2,0.5c0.1,0.1,0.2,0.2,0.4,0.3c0.1,0.1,0.3,0.1,0.5,0.1c0.2,0,0.3,0,0.5-0.1     C381.2,286.3,381.3,286.2,381.4,286.1z"/>
			<path style="fill:#1A171B;" d="M390.4,287.5l-1.8,0l0-2.7c0-0.2,0-0.4,0-0.7s-0.1-0.4-0.1-0.5c-0.1-0.1-0.2-0.2-0.3-0.3     c-0.1-0.1-0.3-0.1-0.5-0.1c-0.2,0-0.3,0-0.5,0.1c-0.2,0.1-0.3,0.1-0.5,0.2l0,3.9l-1.8,0l0-5.5l1.8,0l0,0.6     c0.3-0.2,0.6-0.4,0.9-0.6c0.3-0.1,0.6-0.2,1-0.2c0.6,0,1.1,0.2,1.4,0.5c0.3,0.3,0.5,0.9,0.5,1.5L390.4,287.5z"/>
			<path style="fill:#1A171B;" d="M395.5,287.4c-0.2,0-0.4,0.1-0.6,0.1c-0.2,0-0.5,0-0.8,0c-0.7,0-1.2-0.1-1.5-0.4     c-0.3-0.3-0.5-0.8-0.5-1.4v-2.6h-0.7l0-1.2h0.7v-1.6l1.8,0v1.6h1.6l0,1.2h-1.6v1.9c0,0.2,0,0.4,0,0.5s0,0.3,0.1,0.4     c0,0.1,0.1,0.2,0.2,0.3c0.1,0.1,0.3,0.1,0.5,0.1c0.1,0,0.2,0,0.4-0.1s0.3-0.1,0.3-0.1h0.1V287.4z"/>
			<path style="fill:#1A171B;" d="M401.9,285.1l-4,0c0,0.4,0.2,0.8,0.5,1s0.7,0.3,1.3,0.3c0.4,0,0.7-0.1,1.1-0.2     c0.3-0.1,0.6-0.3,0.8-0.4h0.2l0,1.4c-0.4,0.2-0.8,0.3-1.1,0.3s-0.7,0.1-1.2,0.1c-1.1,0-1.9-0.2-2.5-0.7c-0.6-0.5-0.9-1.2-0.9-2.1     c0-0.9,0.3-1.6,0.8-2.2c0.6-0.5,1.3-0.8,2.3-0.8c0.9,0,1.6,0.2,2,0.7c0.5,0.5,0.7,1.1,0.7,1.9V285.1z M400.2,284     c0-0.4-0.1-0.6-0.3-0.8c-0.2-0.2-0.4-0.3-0.8-0.3c-0.3,0-0.6,0.1-0.8,0.3s-0.3,0.5-0.4,0.8L400.2,284z"/>
			<path style="fill:#1A171B;" d="M408.7,282l-2.1,5.5h-2l-2.1-5.5l1.9,0l1.3,3.8l1.3-3.8L408.7,282z"/>
			<path style="fill:#1A171B;" d="M415.1,285.1l-4,0c0,0.4,0.2,0.8,0.5,1s0.7,0.3,1.3,0.3c0.4,0,0.7-0.1,1.1-0.2     c0.3-0.1,0.6-0.3,0.8-0.4h0.2l0,1.4c-0.4,0.2-0.8,0.3-1.1,0.3c-0.4,0.1-0.7,0.1-1.2,0.1c-1.1,0-1.9-0.2-2.5-0.7     c-0.6-0.5-0.9-1.2-0.9-2.1c0-0.9,0.3-1.6,0.8-2.2c0.6-0.5,1.3-0.8,2.3-0.8c0.9,0,1.6,0.2,2,0.7c0.5,0.5,0.7,1.1,0.7,1.9V285.1z      M413.3,284.1c0-0.4-0.1-0.6-0.3-0.8s-0.4-0.3-0.8-0.3c-0.3,0-0.6,0.1-0.8,0.3s-0.3,0.5-0.4,0.8H413.3z"/>
			<path style="fill:#1A171B;" d="M421.6,287.5l-1.8,0v-0.6c-0.3,0.2-0.6,0.4-0.8,0.5s-0.6,0.2-0.9,0.2c-0.7,0-1.2-0.3-1.6-0.8     c-0.4-0.5-0.6-1.2-0.6-2.1c0-0.5,0.1-0.9,0.2-1.2c0.1-0.4,0.3-0.7,0.6-0.9c0.2-0.2,0.5-0.4,0.8-0.6s0.6-0.2,0.9-0.2     c0.3,0,0.6,0,0.8,0.1c0.2,0.1,0.4,0.2,0.6,0.3v-2.3l1.8,0L421.6,287.5z M419.9,286v-2.7c-0.1-0.1-0.3-0.1-0.4-0.1s-0.3,0-0.4,0     c-0.5,0-0.8,0.1-1,0.4c-0.2,0.3-0.3,0.7-0.3,1.2c0,0.5,0.1,0.9,0.3,1.2c0.2,0.2,0.5,0.4,0.9,0.4c0.2,0,0.3,0,0.5-0.1     C419.6,286.2,419.7,286.1,419.9,286z"/>
			<path style="fill:#1A171B;" d="M427.3,283.7h-0.2c-0.1,0-0.2,0-0.4-0.1c-0.2,0-0.3,0-0.4,0c-0.3,0-0.5,0-0.7,0     c-0.2,0-0.4,0.1-0.6,0.2l0,3.7l-1.8,0l0-5.5l1.8,0l0,0.8c0.4-0.3,0.7-0.6,1-0.7c0.3-0.1,0.5-0.2,0.8-0.2c0.1,0,0.1,0,0.2,0     c0.1,0,0.1,0,0.2,0L427.3,283.7z"/>
			<path style="fill:#1A171B;" d="M431.6,286.9c-0.1,0.1-0.2,0.2-0.4,0.3c-0.1,0.1-0.3,0.2-0.4,0.2c-0.2,0.1-0.4,0.1-0.5,0.2     c-0.2,0-0.4,0.1-0.6,0.1c-0.5,0-1-0.2-1.3-0.5s-0.5-0.7-0.5-1.2c0-0.4,0.1-0.7,0.3-1s0.4-0.5,0.8-0.6c0.3-0.1,0.7-0.3,1.2-0.3     s1-0.1,1.5-0.1v0c0-0.3-0.1-0.5-0.4-0.6c-0.2-0.1-0.6-0.2-1.1-0.2c-0.3,0-0.6,0.1-0.9,0.2s-0.6,0.2-0.7,0.2h-0.2l0-1.3     c0.2,0,0.5-0.1,0.9-0.2c0.4-0.1,0.8-0.1,1.3-0.1c1,0,1.7,0.2,2.2,0.5c0.4,0.3,0.7,0.8,0.7,1.4l0,3.7h-1.7V286.9z M431.6,286.1     v-1.1c-0.2,0-0.5,0-0.8,0.1s-0.5,0.1-0.6,0.1c-0.2,0.1-0.3,0.1-0.4,0.2s-0.1,0.2-0.1,0.4c0,0.1,0,0.2,0,0.3     c0,0.1,0.1,0.1,0.1,0.2c0.1,0.1,0.2,0.1,0.3,0.1c0.1,0,0.3,0,0.5,0c0.2,0,0.4,0,0.5-0.1S431.5,286.2,431.6,286.1z"/>
		</g>
	</g>
</g>
<g id="text_x5F_exterior">
	<g>
		<g>
			<path style="fill:#1A171B;" d="M40.7,44.4l-1.9,0L38.2,43l-2.7,0L35,44.4l-1.9,0l2.7-7.3l2.2,0L40.7,44.4z M37.8,41.6L36.9,39     L36,41.6L37.8,41.6z"/>
			<path style="fill:#1A171B;" d="M48.4,44.6c-0.5,0-1-0.1-1.5-0.2s-0.9-0.4-1.2-0.7c-0.3-0.3-0.6-0.7-0.8-1.2s-0.3-1-0.3-1.6     c0-0.6,0.1-1.1,0.3-1.6s0.4-0.9,0.8-1.2c0.3-0.3,0.7-0.6,1.2-0.7c0.5-0.2,1-0.3,1.5-0.3c0.3,0,0.6,0,0.8,0.1     c0.2,0,0.5,0.1,0.7,0.1c0.2,0.1,0.4,0.1,0.6,0.2c0.2,0.1,0.3,0.1,0.5,0.2l0,1.8h-0.2c-0.1-0.1-0.2-0.2-0.3-0.3     c-0.1-0.1-0.3-0.2-0.5-0.3c-0.2-0.1-0.4-0.2-0.6-0.3c-0.2-0.1-0.4-0.1-0.7-0.1c-0.3,0-0.5,0-0.8,0.1c-0.2,0.1-0.5,0.2-0.7,0.4     c-0.2,0.2-0.3,0.4-0.5,0.7c-0.1,0.3-0.2,0.7-0.2,1.1c0,0.5,0.1,0.8,0.2,1.1c0.1,0.3,0.3,0.5,0.5,0.7c0.2,0.2,0.4,0.3,0.7,0.4     c0.2,0.1,0.5,0.1,0.7,0.1c0.2,0,0.5,0,0.7-0.1c0.2-0.1,0.4-0.2,0.6-0.3c0.2-0.1,0.3-0.2,0.4-0.3s0.2-0.2,0.3-0.3H51l0,1.7     c-0.2,0.1-0.4,0.2-0.5,0.2c-0.2,0.1-0.3,0.1-0.5,0.2c-0.2,0.1-0.5,0.1-0.7,0.2C49.1,44.6,48.8,44.6,48.4,44.6z"/>
			<path style="fill:#1A171B;" d="M57.9,41.7c0,0.9-0.3,1.6-0.8,2.1c-0.5,0.5-1.3,0.8-2.2,0.8c-1,0-1.7-0.3-2.2-0.8     c-0.5-0.5-0.8-1.2-0.8-2.1c0-0.9,0.3-1.6,0.8-2.1c0.5-0.5,1.3-0.8,2.2-0.8c1,0,1.7,0.3,2.2,0.8S57.9,40.8,57.9,41.7z M55.7,43     c0.1-0.1,0.2-0.3,0.3-0.5c0.1-0.2,0.1-0.5,0.1-0.8c0-0.3,0-0.6-0.1-0.8c-0.1-0.2-0.1-0.4-0.2-0.5c-0.1-0.1-0.2-0.2-0.4-0.3     C55.2,40,55,40,54.9,40c-0.2,0-0.3,0-0.5,0.1c-0.1,0-0.3,0.1-0.4,0.3c-0.1,0.1-0.2,0.3-0.3,0.5s-0.1,0.5-0.1,0.8     c0,0.3,0,0.6,0.1,0.8c0.1,0.2,0.1,0.4,0.2,0.5c0.1,0.1,0.2,0.2,0.4,0.3c0.1,0.1,0.3,0.1,0.5,0.1c0.2,0,0.3,0,0.5-0.1     C55.5,43.3,55.6,43.2,55.7,43z"/>
			<path style="fill:#1A171B;" d="M63.1,40.6h-0.2c-0.1,0-0.2,0-0.4-0.1s-0.3,0-0.4,0c-0.3,0-0.5,0-0.7,0c-0.2,0-0.4,0.1-0.6,0.2     l0,3.7l-1.8,0l0-5.5l1.8,0v0.8c0.4-0.3,0.7-0.6,1-0.7s0.5-0.2,0.8-0.2c0.1,0,0.1,0,0.2,0c0.1,0,0.1,0,0.2,0L63.1,40.6z"/>
			<path style="fill:#1A171B;" d="M69.6,44.4l-1.8,0v-0.6c-0.3,0.2-0.6,0.4-0.9,0.6c-0.3,0.1-0.6,0.2-1,0.2c-0.6,0-1.1-0.2-1.4-0.5     c-0.3-0.3-0.5-0.9-0.5-1.5l0-3.6l1.8,0l0,2.7c0,0.3,0,0.5,0,0.7c0,0.2,0.1,0.3,0.1,0.5c0.1,0.1,0.2,0.2,0.3,0.3     c0.1,0.1,0.3,0.1,0.5,0.1c0.1,0,0.3,0,0.5-0.1s0.4-0.1,0.5-0.2l0-3.9l1.8,0L69.6,44.4z"/>
			<path style="fill:#1A171B;" d="M76.7,44.4l-1.8,0l0-2.7c0-0.2,0-0.4,0-0.7s-0.1-0.4-0.1-0.5c-0.1-0.1-0.2-0.2-0.3-0.3     c-0.1-0.1-0.3-0.1-0.5-0.1c-0.2,0-0.3,0-0.5,0.1c-0.2,0.1-0.3,0.1-0.5,0.2l0,3.9l-1.8,0l0-5.5l1.8,0v0.6c0.3-0.2,0.6-0.4,0.9-0.6     c0.3-0.1,0.6-0.2,1-0.2c0.6,0,1.1,0.2,1.4,0.5c0.3,0.3,0.5,0.9,0.5,1.5L76.7,44.4z M76.2,36.5c0,0.6-0.2,1-0.4,1.2     s-0.6,0.4-1,0.4c-0.2,0-0.3,0-0.4-0.1C74.2,38,74.1,38,74,37.9c-0.1-0.1-0.2-0.1-0.3-0.2s-0.2-0.1-0.3-0.1     c-0.2,0-0.3,0.1-0.3,0.2s-0.1,0.3-0.1,0.4l-1.1,0c0-0.5,0.2-0.9,0.4-1.2c0.3-0.3,0.6-0.4,1-0.4c0.2,0,0.3,0,0.4,0.1     c0.1,0.1,0.3,0.1,0.4,0.2c0.1,0.1,0.2,0.1,0.3,0.2c0.1,0.1,0.2,0.1,0.3,0.1c0.2,0,0.3-0.1,0.3-0.2c0.1-0.1,0.1-0.2,0.1-0.4     L76.2,36.5z"/>
			<path style="fill:#1A171B;" d="M81.7,43.9c-0.1,0.1-0.2,0.2-0.4,0.3c-0.1,0.1-0.3,0.2-0.4,0.2c-0.2,0.1-0.4,0.1-0.5,0.2     c-0.2,0-0.4,0.1-0.6,0.1c-0.5,0-1-0.2-1.3-0.5s-0.5-0.7-0.5-1.2c0-0.4,0.1-0.7,0.3-1c0.2-0.3,0.4-0.5,0.8-0.6     c0.3-0.1,0.7-0.3,1.2-0.3c0.5-0.1,1-0.1,1.5-0.1v0c0-0.3-0.1-0.5-0.4-0.6c-0.2-0.1-0.6-0.2-1.1-0.2c-0.3,0-0.6,0.1-0.9,0.2     c-0.3,0.1-0.6,0.2-0.7,0.2h-0.2l0-1.3c0.2,0,0.5-0.1,0.9-0.2c0.4-0.1,0.8-0.1,1.3-0.1c1,0,1.7,0.2,2.2,0.5     c0.4,0.3,0.7,0.8,0.7,1.4l0,3.7l-1.7,0V43.9z M81.7,43v-1.1c-0.2,0-0.5,0-0.8,0.1c-0.3,0-0.5,0.1-0.6,0.1     c-0.2,0.1-0.3,0.1-0.4,0.2s-0.1,0.2-0.1,0.4c0,0.1,0,0.2,0,0.3c0,0.1,0.1,0.1,0.1,0.2c0.1,0.1,0.2,0.1,0.3,0.1c0.1,0,0.3,0,0.5,0     c0.2,0,0.4,0,0.5-0.1C81.4,43.2,81.5,43.1,81.7,43z"/>
		</g>
	</g>
</g>
<g id="text-municipis">
	<g>
		<rect x="232.6" y="276.5" style="fill:none;" width="32.8" height="11"/>
		<path d="M240,286.5h-1v-6.3l-2,4.3h-0.6l-2-4.3v6.3h-0.9v-7.3h1.3l1.9,4l1.9-4h1.3V286.5z"/>
		<path d="M246.5,283.8h-4c0,0.3,0.1,0.6,0.2,0.9c0.1,0.2,0.2,0.5,0.4,0.6c0.2,0.2,0.4,0.3,0.6,0.4c0.2,0.1,0.5,0.1,0.8,0.1    c0.4,0,0.7-0.1,1.1-0.2c0.4-0.1,0.6-0.3,0.8-0.4h0v1c-0.3,0.1-0.6,0.2-0.9,0.3s-0.7,0.1-1,0.1c-0.9,0-1.6-0.2-2.1-0.7    c-0.5-0.5-0.8-1.2-0.8-2.1c0-0.9,0.2-1.6,0.7-2.1c0.5-0.5,1.1-0.8,1.9-0.8c0.7,0,1.3,0.2,1.7,0.6c0.4,0.4,0.6,1,0.6,1.8V283.8z     M245.6,283.1c0-0.5-0.1-0.9-0.4-1.1s-0.6-0.4-1.1-0.4c-0.5,0-0.9,0.1-1.2,0.4c-0.3,0.3-0.5,0.6-0.5,1.1H245.6z"/>
		<path d="M252.1,286.5h-0.9v-0.6c-0.1,0.1-0.2,0.1-0.3,0.2c-0.1,0.1-0.3,0.2-0.4,0.2c-0.2,0.1-0.3,0.1-0.5,0.2    c-0.2,0.1-0.4,0.1-0.7,0.1c-0.5,0-0.9-0.2-1.3-0.5s-0.5-0.7-0.5-1.2c0-0.4,0.1-0.7,0.3-1c0.2-0.3,0.4-0.5,0.8-0.6    c0.3-0.1,0.7-0.2,1.2-0.3s1-0.1,1.5-0.1v-0.1c0-0.2,0-0.4-0.1-0.5s-0.2-0.2-0.3-0.3c-0.1-0.1-0.3-0.1-0.5-0.2s-0.4,0-0.6,0    c-0.2,0-0.5,0-0.8,0.1c-0.3,0.1-0.6,0.2-0.9,0.3h0v-0.9c0.2,0,0.4-0.1,0.8-0.2s0.7-0.1,1-0.1c0.4,0,0.7,0,1,0.1    c0.3,0.1,0.5,0.2,0.7,0.3c0.2,0.1,0.4,0.3,0.5,0.6s0.2,0.5,0.2,0.9V286.5z M251.2,285.1v-1.5c-0.3,0-0.6,0-1,0.1    c-0.4,0-0.7,0.1-0.9,0.1c-0.3,0.1-0.5,0.2-0.6,0.3c-0.2,0.2-0.2,0.4-0.2,0.7c0,0.3,0.1,0.5,0.3,0.7c0.2,0.2,0.5,0.2,0.9,0.2    c0.3,0,0.6-0.1,0.9-0.2C250.7,285.5,251,285.3,251.2,285.1z"/>
		<path d="M258.4,286.5h-0.9v-3.1c0-0.3,0-0.5,0-0.7c0-0.2-0.1-0.4-0.2-0.5c-0.1-0.1-0.2-0.2-0.4-0.3c-0.2-0.1-0.4-0.1-0.6-0.1    c-0.3,0-0.5,0.1-0.8,0.2s-0.5,0.3-0.8,0.5v4.1h-0.9V281h0.9v0.6c0.3-0.2,0.6-0.4,0.9-0.6c0.3-0.1,0.6-0.2,0.9-0.2    c0.6,0,1,0.2,1.3,0.5c0.3,0.4,0.5,0.9,0.5,1.5V286.5z M258.2,278.6c0,0.5-0.2,0.9-0.4,1.1s-0.5,0.4-0.9,0.4c-0.2,0-0.3,0-0.5-0.1    c-0.2-0.1-0.3-0.2-0.4-0.3c-0.2-0.1-0.3-0.2-0.4-0.3c-0.1-0.1-0.2-0.1-0.3-0.1c-0.2,0-0.3,0.1-0.4,0.2s-0.1,0.3-0.1,0.6h-0.6    c0-0.5,0.2-0.9,0.4-1.1s0.5-0.4,0.8-0.4c0.2,0,0.3,0,0.5,0.1c0.2,0.1,0.3,0.2,0.4,0.3c0.2,0.1,0.3,0.2,0.4,0.3    c0.1,0.1,0.2,0.1,0.3,0.1c0.2,0,0.3-0.1,0.4-0.2s0.1-0.3,0.2-0.6H258.2z"/>
		<path d="M264.8,283.8c0,0.9-0.2,1.6-0.7,2.1s-1.1,0.8-1.8,0.8c-0.8,0-1.4-0.3-1.8-0.8s-0.7-1.2-0.7-2.1s0.2-1.6,0.7-2.1    c0.5-0.5,1.1-0.8,1.8-0.8c0.8,0,1.4,0.3,1.8,0.8C264.6,282.2,264.8,282.9,264.8,283.8z M263.9,283.8c0-0.7-0.1-1.2-0.4-1.6    c-0.3-0.3-0.7-0.5-1.2-0.5c-0.5,0-0.9,0.2-1.2,0.5c-0.3,0.3-0.4,0.9-0.4,1.6c0,0.7,0.1,1.2,0.4,1.6c0.3,0.4,0.7,0.5,1.2,0.5    c0.5,0,0.9-0.2,1.2-0.5C263.8,285,263.9,284.4,263.9,283.8z"/>
	</g>
	<g>
		<rect x="308" y="219.8" style="fill:none;" width="22.4" height="11"/>
		<path d="M315.5,229.8h-1v-6.3l-2,4.3h-0.6l-2-4.3v6.3H309v-7.3h1.3l1.9,4l1.9-4h1.3V229.8z"/>
		<path d="M321.9,227.2h-4c0,0.3,0.1,0.6,0.2,0.9c0.1,0.2,0.2,0.5,0.4,0.6c0.2,0.2,0.4,0.3,0.6,0.4c0.2,0.1,0.5,0.1,0.8,0.1    c0.4,0,0.7-0.1,1.1-0.2s0.6-0.3,0.8-0.4h0v1c-0.3,0.1-0.6,0.2-0.9,0.3s-0.7,0.1-1,0.1c-0.9,0-1.6-0.2-2.1-0.7    c-0.5-0.5-0.8-1.2-0.8-2.1c0-0.9,0.2-1.6,0.7-2.1c0.5-0.5,1.1-0.8,1.9-0.8c0.7,0,1.3,0.2,1.7,0.6c0.4,0.4,0.6,1,0.6,1.8V227.2z     M321.1,226.5c0-0.5-0.1-0.9-0.4-1.1c-0.2-0.3-0.6-0.4-1.1-0.4c-0.5,0-0.9,0.1-1.2,0.4c-0.3,0.3-0.5,0.6-0.5,1.1H321.1z"/>
		<path d="M324.3,223.4h-1v-1h1V223.4z M324.3,229.8h-0.9v-5.5h0.9V229.8z"/>
		<path d="M330,228.2c0,0.5-0.2,0.9-0.6,1.2c-0.4,0.3-1,0.5-1.7,0.5c-0.4,0-0.8,0-1.1-0.1s-0.6-0.2-0.8-0.3v-1h0    c0.3,0.2,0.6,0.4,1,0.5c0.4,0.1,0.7,0.2,1,0.2c0.4,0,0.7-0.1,0.9-0.2c0.2-0.1,0.3-0.3,0.3-0.6c0-0.2-0.1-0.4-0.2-0.5    c-0.1-0.1-0.4-0.2-0.7-0.3c-0.1,0-0.3-0.1-0.5-0.1s-0.4-0.1-0.6-0.1c-0.5-0.1-0.8-0.3-1-0.6c-0.2-0.2-0.3-0.5-0.3-0.9    c0-0.2,0-0.4,0.1-0.6c0.1-0.2,0.2-0.4,0.4-0.5c0.2-0.2,0.4-0.3,0.7-0.4s0.6-0.1,0.9-0.1c0.3,0,0.7,0,1,0.1s0.6,0.2,0.8,0.3v1h0    c-0.2-0.2-0.5-0.3-0.9-0.4c-0.3-0.1-0.7-0.2-1-0.2c-0.3,0-0.6,0.1-0.8,0.2c-0.2,0.1-0.3,0.3-0.3,0.6c0,0.2,0.1,0.4,0.2,0.5    c0.1,0.1,0.4,0.2,0.7,0.3c0.2,0,0.4,0.1,0.6,0.1c0.2,0,0.4,0.1,0.5,0.1c0.4,0.1,0.8,0.3,1,0.5C329.9,227.5,330,227.8,330,228.2z"/>
	</g>
	<g>
		<rect x="286.8" y="171.8" style="fill:none;" width="53" height="11"/>
		<path d="M293.8,182.3h-1.3l-2.4-2.9h-1.4v2.9h-1v-7.3h2c0.4,0,0.8,0,1.1,0.1s0.6,0.2,0.8,0.3c0.3,0.2,0.5,0.4,0.6,0.6    s0.2,0.6,0.2,1c0,0.5-0.1,1-0.4,1.3c-0.3,0.4-0.6,0.6-1.1,0.8L293.8,182.3z M291.5,177.1c0-0.2,0-0.4-0.1-0.6s-0.2-0.3-0.4-0.4    c-0.1-0.1-0.3-0.2-0.5-0.2c-0.2,0-0.4-0.1-0.7-0.1h-1.1v2.7h1c0.3,0,0.6,0,0.8-0.1c0.2-0.1,0.4-0.2,0.6-0.3    c0.1-0.1,0.3-0.3,0.3-0.5C291.5,177.6,291.5,177.4,291.5,177.1z"/>
		<path d="M295.6,176h-1v-1h1V176z M295.6,182.3h-0.9v-5.5h0.9V182.3z"/>
		<path d="M302.2,179.6c0,0.5-0.1,0.9-0.2,1.2c-0.1,0.4-0.3,0.7-0.5,0.9c-0.2,0.3-0.5,0.5-0.8,0.6c-0.3,0.1-0.6,0.2-0.9,0.2    c-0.3,0-0.6,0-0.8-0.1c-0.2-0.1-0.5-0.2-0.7-0.3l-0.1,0.3h-0.9v-7.6h0.9v2.7c0.3-0.2,0.5-0.4,0.8-0.5c0.3-0.1,0.6-0.2,1-0.2    c0.6,0,1.2,0.2,1.5,0.7S302.2,178.7,302.2,179.6z M301.3,179.6c0-0.7-0.1-1.1-0.3-1.5s-0.6-0.5-1-0.5c-0.3,0-0.5,0.1-0.8,0.2    c-0.3,0.1-0.5,0.3-0.8,0.4v3.1c0.3,0.1,0.5,0.2,0.7,0.2s0.4,0.1,0.6,0.1c0.5,0,0.9-0.2,1.2-0.5S301.3,180.3,301.3,179.6z"/>
		<path d="M307.9,182.3H307v-0.6c-0.1,0.1-0.2,0.1-0.3,0.2c-0.1,0.1-0.3,0.2-0.4,0.2c-0.2,0.1-0.3,0.1-0.5,0.2    c-0.2,0.1-0.4,0.1-0.7,0.1c-0.5,0-0.9-0.2-1.3-0.5c-0.3-0.3-0.5-0.7-0.5-1.2c0-0.4,0.1-0.7,0.3-1s0.4-0.5,0.8-0.6    c0.3-0.1,0.7-0.2,1.2-0.3s1-0.1,1.5-0.1v-0.1c0-0.2,0-0.4-0.1-0.5c-0.1-0.1-0.2-0.2-0.3-0.3c-0.1-0.1-0.3-0.1-0.5-0.2    c-0.2,0-0.4,0-0.6,0c-0.2,0-0.5,0-0.8,0.1s-0.6,0.2-0.9,0.3h0V177c0.2,0,0.4-0.1,0.8-0.2s0.7-0.1,1-0.1c0.4,0,0.7,0,1,0.1    c0.3,0.1,0.5,0.2,0.7,0.3c0.2,0.1,0.4,0.3,0.5,0.6s0.2,0.5,0.2,0.9V182.3z M307,181v-1.5c-0.3,0-0.6,0-1,0.1    c-0.4,0-0.7,0.1-0.9,0.1c-0.3,0.1-0.5,0.2-0.6,0.3s-0.2,0.4-0.2,0.7c0,0.3,0.1,0.5,0.3,0.7c0.2,0.2,0.5,0.2,0.9,0.2    c0.3,0,0.6-0.1,0.9-0.2C306.5,181.3,306.7,181.2,307,181z"/>
		<path d="M314.1,182.3h-0.9v-0.6c-0.3,0.2-0.5,0.4-0.8,0.5c-0.3,0.1-0.6,0.2-0.9,0.2c-0.7,0-1.2-0.3-1.6-0.8s-0.6-1.2-0.6-2.1    c0-0.5,0.1-0.9,0.2-1.2s0.3-0.7,0.5-0.9c0.2-0.2,0.5-0.4,0.8-0.6s0.6-0.2,0.9-0.2c0.3,0,0.5,0,0.8,0.1c0.2,0.1,0.5,0.2,0.7,0.3    v-2.4h0.9V182.3z M313.2,181v-3.1c-0.2-0.1-0.5-0.2-0.7-0.2c-0.2,0-0.4-0.1-0.6-0.1c-0.5,0-0.9,0.2-1.2,0.5    c-0.3,0.4-0.4,0.9-0.4,1.5c0,0.6,0.1,1.1,0.3,1.5c0.2,0.3,0.6,0.5,1.1,0.5c0.3,0,0.5-0.1,0.8-0.2    C312.7,181.3,312.9,181.2,313.2,181z"/>
		<path d="M320.4,182.3h-0.9v-0.6c-0.3,0.2-0.6,0.4-0.9,0.6s-0.6,0.2-0.9,0.2c-0.6,0-1-0.2-1.3-0.5s-0.5-0.9-0.5-1.5v-3.5h0.9v3.1    c0,0.3,0,0.5,0,0.7c0,0.2,0.1,0.4,0.2,0.5c0.1,0.1,0.2,0.2,0.3,0.3c0.1,0.1,0.3,0.1,0.6,0.1c0.2,0,0.5-0.1,0.8-0.2    c0.3-0.1,0.5-0.3,0.8-0.5v-4.1h0.9V182.3z"/>
		<path d="M330.2,182.3h-0.9v-3.1c0-0.2,0-0.5,0-0.7c0-0.2-0.1-0.4-0.1-0.5c-0.1-0.1-0.2-0.2-0.3-0.3c-0.1-0.1-0.3-0.1-0.6-0.1    c-0.3,0-0.5,0.1-0.8,0.2c-0.3,0.1-0.5,0.3-0.8,0.5c0,0.1,0,0.2,0,0.3s0,0.2,0,0.3v3.5h-0.9v-3.1c0-0.2,0-0.5,0-0.7    s-0.1-0.4-0.1-0.5c-0.1-0.1-0.2-0.2-0.3-0.3c-0.1-0.1-0.3-0.1-0.6-0.1c-0.3,0-0.5,0.1-0.8,0.2c-0.3,0.1-0.5,0.3-0.8,0.5v4.1h-0.9    v-5.5h0.9v0.6c0.3-0.2,0.6-0.4,0.9-0.6s0.6-0.2,0.9-0.2c0.4,0,0.7,0.1,0.9,0.2s0.5,0.4,0.6,0.6c0.4-0.3,0.7-0.5,1-0.7    c0.3-0.1,0.6-0.2,1-0.2c0.6,0,1,0.2,1.3,0.5s0.4,0.9,0.4,1.5V182.3z"/>
		<path d="M332.9,176h-1v-1h1V176z M332.9,182.3h-0.9v-5.5h0.9V182.3z"/>
		<path d="M338.9,182.3H338v-0.6c-0.1,0.1-0.2,0.1-0.3,0.2c-0.1,0.1-0.3,0.2-0.4,0.2c-0.2,0.1-0.3,0.1-0.5,0.2    c-0.2,0.1-0.4,0.1-0.7,0.1c-0.5,0-0.9-0.2-1.3-0.5c-0.3-0.3-0.5-0.7-0.5-1.2c0-0.4,0.1-0.7,0.3-1s0.4-0.5,0.8-0.6    c0.3-0.1,0.7-0.2,1.2-0.3s1-0.1,1.5-0.1v-0.1c0-0.2,0-0.4-0.1-0.5s-0.2-0.2-0.3-0.3c-0.1-0.1-0.3-0.1-0.5-0.2c-0.2,0-0.4,0-0.6,0    c-0.2,0-0.5,0-0.8,0.1c-0.3,0.1-0.6,0.2-0.9,0.3h0V177c0.2,0,0.4-0.1,0.8-0.2s0.7-0.1,1-0.1c0.4,0,0.7,0,1,0.1s0.5,0.2,0.7,0.3    c0.2,0.1,0.4,0.3,0.5,0.6s0.2,0.5,0.2,0.9V182.3z M338,181v-1.5c-0.3,0-0.6,0-1,0.1c-0.4,0-0.7,0.1-0.9,0.1    c-0.3,0.1-0.5,0.2-0.6,0.3s-0.2,0.4-0.2,0.7c0,0.3,0.1,0.5,0.3,0.7c0.2,0.2,0.5,0.2,0.9,0.2c0.3,0,0.6-0.1,0.9-0.2    C337.5,181.3,337.8,181.2,338,181z"/>
	</g>
	<g>
		<rect x="124.1" y="128.5" style="fill:none;" width="41.8" height="21"/>
		<path d="M130.8,139h-1l-0.7-2h-3.1l-0.7,2h-1l2.6-7.3h1.3L130.8,139z M128.7,136.1l-1.3-3.6l-1.3,3.6H128.7z"/>
		<path d="M138,139h-2.9v-0.7h1v-5.8h-1v-0.7h2.9v0.7h-1v5.8h1V139z"/>
		<path d="M140.5,139h-0.9v-7.6h0.9V139z"/>
		<path d="M143.2,139h-0.9v-7.6h0.9V139z"/>
		<path d="M149.3,139h-0.9v-0.6c-0.1,0.1-0.2,0.1-0.3,0.2c-0.1,0.1-0.3,0.2-0.4,0.2c-0.2,0.1-0.3,0.1-0.5,0.2    c-0.2,0.1-0.4,0.1-0.7,0.1c-0.5,0-0.9-0.2-1.3-0.5s-0.5-0.7-0.5-1.2c0-0.4,0.1-0.7,0.3-1c0.2-0.3,0.4-0.5,0.8-0.6    c0.3-0.1,0.7-0.2,1.2-0.3c0.5-0.1,1-0.1,1.5-0.1v-0.1c0-0.2,0-0.4-0.1-0.5s-0.2-0.2-0.3-0.3c-0.1-0.1-0.3-0.1-0.5-0.2    c-0.2,0-0.4,0-0.6,0c-0.2,0-0.5,0-0.8,0.1s-0.6,0.2-0.9,0.3h0v-0.9c0.2,0,0.4-0.1,0.8-0.2c0.3-0.1,0.7-0.1,1-0.1    c0.4,0,0.7,0,1,0.1c0.3,0.1,0.5,0.2,0.7,0.3c0.2,0.1,0.4,0.3,0.5,0.6c0.1,0.2,0.2,0.5,0.2,0.9V139z M148.4,137.6v-1.5    c-0.3,0-0.6,0-1,0.1s-0.7,0.1-0.9,0.1c-0.3,0.1-0.5,0.2-0.6,0.3c-0.2,0.2-0.2,0.4-0.2,0.7c0,0.3,0.1,0.5,0.3,0.7    c0.2,0.2,0.5,0.2,0.9,0.2c0.3,0,0.6-0.1,0.9-0.2S148.1,137.8,148.4,137.6z"/>
		<path d="M159,139h-0.9v-0.6c-0.3,0.2-0.5,0.4-0.8,0.5s-0.6,0.2-0.9,0.2c-0.7,0-1.2-0.3-1.6-0.8c-0.4-0.5-0.6-1.2-0.6-2.1    c0-0.5,0.1-0.9,0.2-1.2s0.3-0.7,0.5-0.9c0.2-0.2,0.5-0.4,0.8-0.6c0.3-0.1,0.6-0.2,0.9-0.2c0.3,0,0.5,0,0.8,0.1    c0.2,0.1,0.5,0.2,0.7,0.3v-2.4h0.9V139z M158.1,137.6v-3.1c-0.2-0.1-0.5-0.2-0.7-0.2s-0.4-0.1-0.6-0.1c-0.5,0-0.9,0.2-1.2,0.5    s-0.4,0.9-0.4,1.5c0,0.6,0.1,1.1,0.3,1.5c0.2,0.3,0.6,0.5,1.1,0.5c0.3,0,0.5-0.1,0.8-0.2S157.8,137.8,158.1,137.6z"/>
		<path d="M165.4,136.4h-4c0,0.3,0.1,0.6,0.2,0.9c0.1,0.2,0.2,0.5,0.4,0.6c0.2,0.2,0.4,0.3,0.6,0.4c0.2,0.1,0.5,0.1,0.8,0.1    c0.4,0,0.7-0.1,1.1-0.2c0.4-0.1,0.6-0.3,0.8-0.4h0v1c-0.3,0.1-0.6,0.2-0.9,0.3s-0.7,0.1-1,0.1c-0.9,0-1.6-0.2-2.1-0.7    c-0.5-0.5-0.8-1.2-0.8-2.1c0-0.9,0.2-1.6,0.7-2.1s1.1-0.8,1.9-0.8c0.7,0,1.3,0.2,1.7,0.6c0.4,0.4,0.6,1,0.6,1.8V136.4z     M164.5,135.6c0-0.5-0.1-0.9-0.4-1.1s-0.6-0.4-1.1-0.4c-0.5,0-0.9,0.1-1.2,0.4s-0.5,0.6-0.5,1.1H164.5z"/>
		<path d="M137.9,149h-1l-0.7-2H133l-0.7,2h-1l2.6-7.3h1.3L137.9,149z M135.8,146.1l-1.3-3.6l-1.3,3.6H135.8z"/>
		<path d="M142.3,144.5L142.3,144.5c-0.2,0-0.3-0.1-0.4-0.1c-0.1,0-0.3,0-0.5,0c-0.3,0-0.6,0.1-0.8,0.2c-0.3,0.1-0.5,0.3-0.8,0.5    v3.9h-0.9v-5.5h0.9v0.8c0.4-0.3,0.7-0.5,1-0.6c0.3-0.1,0.6-0.2,0.9-0.2c0.2,0,0.3,0,0.3,0c0.1,0,0.2,0,0.3,0V144.5z"/>
		<path d="M147.8,146.3c0,0.9-0.2,1.6-0.7,2.1s-1.1,0.8-1.8,0.8c-0.8,0-1.4-0.3-1.8-0.8c-0.5-0.5-0.7-1.2-0.7-2.1s0.2-1.6,0.7-2.1    c0.5-0.5,1.1-0.8,1.8-0.8c0.8,0,1.4,0.3,1.8,0.8S147.8,145.4,147.8,146.3z M146.9,146.3c0-0.7-0.1-1.2-0.4-1.6    c-0.3-0.3-0.7-0.5-1.2-0.5c-0.5,0-0.9,0.2-1.2,0.5c-0.3,0.3-0.4,0.9-0.4,1.6c0,0.7,0.1,1.2,0.4,1.6c0.3,0.4,0.7,0.5,1.2,0.5    c0.5,0,0.9-0.2,1.2-0.5C146.7,147.5,146.9,146.9,146.9,146.3z"/>
		<path d="M153.8,149h-0.9v-0.6c-0.3,0.2-0.6,0.4-0.9,0.6c-0.3,0.1-0.6,0.2-0.9,0.2c-0.6,0-1-0.2-1.3-0.5c-0.3-0.4-0.5-0.9-0.5-1.5    v-3.5h0.9v3.1c0,0.3,0,0.5,0,0.7c0,0.2,0.1,0.4,0.2,0.5c0.1,0.1,0.2,0.2,0.3,0.3c0.1,0.1,0.3,0.1,0.6,0.1c0.2,0,0.5-0.1,0.8-0.2    c0.3-0.1,0.5-0.3,0.8-0.5v-4.1h0.9V149z"/>
		<path d="M159.5,147.4c0,0.5-0.2,0.9-0.6,1.2c-0.4,0.3-1,0.5-1.7,0.5c-0.4,0-0.8,0-1.1-0.1s-0.6-0.2-0.8-0.3v-1h0    c0.3,0.2,0.6,0.4,1,0.5s0.7,0.2,1,0.2c0.4,0,0.7-0.1,0.9-0.2s0.3-0.3,0.3-0.6c0-0.2-0.1-0.4-0.2-0.5c-0.1-0.1-0.4-0.2-0.7-0.3    c-0.1,0-0.3-0.1-0.5-0.1s-0.4-0.1-0.6-0.1c-0.5-0.1-0.8-0.3-1-0.6s-0.3-0.5-0.3-0.9c0-0.2,0-0.4,0.1-0.6c0.1-0.2,0.2-0.4,0.4-0.5    c0.2-0.2,0.4-0.3,0.7-0.4c0.3-0.1,0.6-0.1,0.9-0.1c0.3,0,0.7,0,1,0.1c0.3,0.1,0.6,0.2,0.8,0.3v1h0c-0.2-0.2-0.5-0.3-0.9-0.4    s-0.7-0.2-1-0.2c-0.3,0-0.6,0.1-0.8,0.2c-0.2,0.1-0.3,0.3-0.3,0.6c0,0.2,0.1,0.4,0.2,0.5c0.1,0.1,0.4,0.2,0.7,0.3    c0.2,0,0.4,0.1,0.6,0.1c0.2,0,0.4,0.1,0.5,0.1c0.4,0.1,0.8,0.3,1,0.5C159.4,146.7,159.5,147,159.5,147.4z"/>
		<path d="M165,149h-0.9v-0.6c-0.1,0.1-0.2,0.1-0.3,0.2c-0.1,0.1-0.3,0.2-0.4,0.2c-0.2,0.1-0.3,0.1-0.5,0.2s-0.4,0.1-0.7,0.1    c-0.5,0-0.9-0.2-1.3-0.5c-0.3-0.3-0.5-0.7-0.5-1.2c0-0.4,0.1-0.7,0.3-1c0.2-0.3,0.4-0.5,0.8-0.6c0.3-0.1,0.7-0.2,1.2-0.3    s1-0.1,1.5-0.1v-0.1c0-0.2,0-0.4-0.1-0.5s-0.2-0.2-0.3-0.3c-0.1-0.1-0.3-0.1-0.5-0.2c-0.2,0-0.4,0-0.6,0c-0.2,0-0.5,0-0.8,0.1    s-0.6,0.2-0.9,0.3h0v-0.9c0.2,0,0.4-0.1,0.8-0.2s0.7-0.1,1-0.1c0.4,0,0.7,0,1,0.1s0.5,0.2,0.7,0.3c0.2,0.1,0.4,0.3,0.5,0.6    s0.2,0.5,0.2,0.9V149z M164.1,147.6v-1.5c-0.3,0-0.6,0-1,0.1c-0.4,0-0.7,0.1-0.9,0.1c-0.3,0.1-0.5,0.2-0.6,0.3    c-0.2,0.2-0.2,0.4-0.2,0.7c0,0.3,0.1,0.5,0.3,0.7s0.5,0.2,0.9,0.2c0.3,0,0.6-0.1,0.9-0.2S163.9,147.8,164.1,147.6z"/>
	</g>
	<g>
		<rect x="221.7" y="133.5" style="fill:none;" width="50.5" height="21"/>
		<path d="M232.5,136.2l-2.6,7.3h-1.3l-2.6-7.3h1l2.3,6.4l2.3-6.4H232.5z"/>
		<path d="M234.5,137.1h-1v-1h1V137.1z M234.5,143.5h-0.9V138h0.9V143.5z"/>
		<path d="M237.2,143.5h-0.9v-7.6h0.9V143.5z"/>
		<path d="M243.3,143.5h-0.9v-0.6c-0.1,0.1-0.2,0.1-0.3,0.2c-0.1,0.1-0.3,0.2-0.4,0.2c-0.2,0.1-0.3,0.1-0.5,0.2    c-0.2,0.1-0.4,0.1-0.7,0.1c-0.5,0-0.9-0.2-1.3-0.5s-0.5-0.7-0.5-1.2c0-0.4,0.1-0.7,0.3-1s0.4-0.5,0.8-0.6c0.3-0.1,0.7-0.2,1.2-0.3    c0.5-0.1,1-0.1,1.5-0.1v-0.1c0-0.2,0-0.4-0.1-0.5s-0.2-0.2-0.3-0.3c-0.1-0.1-0.3-0.1-0.5-0.2c-0.2,0-0.4,0-0.6,0    c-0.2,0-0.5,0-0.8,0.1s-0.6,0.2-0.9,0.3h0v-0.9c0.2,0,0.4-0.1,0.8-0.2s0.7-0.1,1-0.1c0.4,0,0.7,0,1,0.1c0.3,0.1,0.5,0.2,0.7,0.3    c0.2,0.1,0.4,0.3,0.5,0.6s0.2,0.5,0.2,0.9V143.5z M242.3,142.1v-1.5c-0.3,0-0.6,0-1,0.1c-0.4,0-0.7,0.1-0.9,0.1    c-0.3,0.1-0.5,0.2-0.6,0.3s-0.2,0.4-0.2,0.7c0,0.3,0.1,0.5,0.3,0.7s0.5,0.2,0.9,0.2c0.3,0,0.6-0.1,0.9-0.2    C241.9,142.5,242.1,142.3,242.3,142.1z"/>
		<path d="M249.6,143.5h-0.9v-3.1c0-0.3,0-0.5,0-0.7s-0.1-0.4-0.2-0.5c-0.1-0.1-0.2-0.2-0.4-0.3c-0.2-0.1-0.4-0.1-0.6-0.1    c-0.3,0-0.5,0.1-0.8,0.2s-0.5,0.3-0.8,0.5v4.1H245V138h0.9v0.6c0.3-0.2,0.6-0.4,0.9-0.6c0.3-0.1,0.6-0.2,0.9-0.2    c0.6,0,1,0.2,1.3,0.5s0.5,0.9,0.5,1.5V143.5z"/>
		<path d="M256,140.8c0,0.9-0.2,1.6-0.7,2.1s-1.1,0.8-1.8,0.8c-0.8,0-1.4-0.3-1.8-0.8s-0.7-1.2-0.7-2.1s0.2-1.6,0.7-2.1    s1.1-0.8,1.8-0.8c0.8,0,1.4,0.3,1.8,0.8S256,139.9,256,140.8z M255.1,140.8c0-0.7-0.1-1.2-0.4-1.6c-0.3-0.3-0.7-0.5-1.2-0.5    c-0.5,0-0.9,0.2-1.2,0.5s-0.4,0.9-0.4,1.6c0,0.7,0.1,1.2,0.4,1.6c0.3,0.4,0.7,0.5,1.2,0.5c0.5,0,0.9-0.2,1.2-0.5    S255.1,141.4,255.1,140.8z"/>
		<path d="M262.1,138l-2.2,5.5h-0.9l-2.2-5.5h1l1.7,4.3l1.7-4.3H262.1z"/>
		<path d="M267.3,143.5h-0.9v-0.6c-0.1,0.1-0.2,0.1-0.3,0.2c-0.1,0.1-0.3,0.2-0.4,0.2c-0.2,0.1-0.3,0.1-0.5,0.2    c-0.2,0.1-0.4,0.1-0.7,0.1c-0.5,0-0.9-0.2-1.3-0.5s-0.5-0.7-0.5-1.2c0-0.4,0.1-0.7,0.3-1c0.2-0.3,0.4-0.5,0.8-0.6    c0.3-0.1,0.7-0.2,1.2-0.3s1-0.1,1.5-0.1v-0.1c0-0.2,0-0.4-0.1-0.5s-0.2-0.2-0.3-0.3c-0.1-0.1-0.3-0.1-0.5-0.2s-0.4,0-0.6,0    c-0.2,0-0.5,0-0.8,0.1c-0.3,0.1-0.6,0.2-0.9,0.3h0v-0.9c0.2,0,0.4-0.1,0.8-0.2s0.7-0.1,1-0.1c0.4,0,0.7,0,1,0.1    c0.3,0.1,0.5,0.2,0.7,0.3c0.2,0.1,0.4,0.3,0.5,0.6s0.2,0.5,0.2,0.9V143.5z M266.4,142.1v-1.5c-0.3,0-0.6,0-1,0.1    c-0.4,0-0.7,0.1-0.9,0.1c-0.3,0.1-0.5,0.2-0.6,0.3s-0.2,0.4-0.2,0.7c0,0.3,0.1,0.5,0.3,0.7c0.2,0.2,0.5,0.2,0.9,0.2    c0.3,0,0.6-0.1,0.9-0.2S266.2,142.3,266.4,142.1z"/>
		<path d="M227.1,153.5h-0.9v-0.6c-0.3,0.2-0.5,0.4-0.8,0.5c-0.3,0.1-0.6,0.2-0.9,0.2c-0.7,0-1.2-0.3-1.6-0.8s-0.6-1.2-0.6-2.1    c0-0.5,0.1-0.9,0.2-1.2s0.3-0.7,0.5-0.9c0.2-0.2,0.5-0.4,0.8-0.6c0.3-0.1,0.6-0.2,0.9-0.2c0.3,0,0.5,0,0.8,0.1    c0.2,0.1,0.5,0.2,0.7,0.3v-2.4h0.9V153.5z M226.1,152.1V149c-0.2-0.1-0.5-0.2-0.7-0.2s-0.4-0.1-0.6-0.1c-0.5,0-0.9,0.2-1.2,0.5    s-0.4,0.9-0.4,1.5c0,0.6,0.1,1.1,0.3,1.5c0.2,0.3,0.6,0.5,1.1,0.5c0.3,0,0.5-0.1,0.8-0.2C225.7,152.5,225.9,152.3,226.1,152.1z"/>
		<path d="M233.4,150.8h-4c0,0.3,0.1,0.6,0.2,0.9s0.2,0.5,0.4,0.6c0.2,0.2,0.4,0.3,0.6,0.4s0.5,0.1,0.8,0.1c0.4,0,0.7-0.1,1.1-0.2    s0.6-0.3,0.8-0.4h0v1c-0.3,0.1-0.6,0.2-0.9,0.3s-0.7,0.1-1,0.1c-0.9,0-1.6-0.2-2.1-0.7s-0.8-1.2-0.8-2.1c0-0.9,0.2-1.6,0.7-2.1    c0.5-0.5,1.1-0.8,1.9-0.8c0.7,0,1.3,0.2,1.7,0.6c0.4,0.4,0.6,1,0.6,1.8V150.8z M232.5,150.1c0-0.5-0.1-0.9-0.4-1.1    s-0.6-0.4-1.1-0.4c-0.5,0-0.9,0.1-1.2,0.4c-0.3,0.3-0.5,0.6-0.5,1.1H232.5z"/>
		<path d="M244.2,153.5h-1l-0.7-2h-3.1l-0.7,2h-1l2.6-7.3h1.3L244.2,153.5z M242.1,150.6l-1.3-3.6l-1.3,3.6H242.1z"/>
		<path d="M248.6,149L248.6,149c-0.2,0-0.3-0.1-0.4-0.1s-0.3,0-0.5,0c-0.3,0-0.6,0.1-0.8,0.2s-0.5,0.3-0.8,0.5v3.9h-0.9V148h0.9v0.8    c0.4-0.3,0.7-0.5,1-0.6s0.6-0.2,0.9-0.2c0.2,0,0.3,0,0.3,0c0.1,0,0.2,0,0.3,0V149z"/>
		<path d="M254.1,150.8c0,0.9-0.2,1.6-0.7,2.1s-1.1,0.8-1.8,0.8c-0.8,0-1.4-0.3-1.8-0.8c-0.5-0.5-0.7-1.2-0.7-2.1s0.2-1.6,0.7-2.1    c0.5-0.5,1.1-0.8,1.8-0.8c0.8,0,1.4,0.3,1.8,0.8S254.1,149.9,254.1,150.8z M253.2,150.8c0-0.7-0.1-1.2-0.4-1.6    c-0.3-0.3-0.7-0.5-1.2-0.5c-0.5,0-0.9,0.2-1.2,0.5s-0.4,0.9-0.4,1.6c0,0.7,0.1,1.2,0.4,1.6c0.3,0.4,0.7,0.5,1.2,0.5    c0.5,0,0.9-0.2,1.2-0.5S253.2,151.4,253.2,150.8z"/>
		<path d="M260.1,153.5h-0.9v-0.6c-0.3,0.2-0.6,0.4-0.9,0.6s-0.6,0.2-0.9,0.2c-0.6,0-1-0.2-1.3-0.5s-0.5-0.9-0.5-1.5V148h0.9v3.1    c0,0.3,0,0.5,0,0.7s0.1,0.4,0.2,0.5c0.1,0.1,0.2,0.2,0.3,0.3c0.1,0.1,0.3,0.1,0.6,0.1c0.2,0,0.5-0.1,0.8-0.2    c0.3-0.1,0.5-0.3,0.8-0.5V148h0.9V153.5z"/>
		<path d="M265.8,151.9c0,0.5-0.2,0.9-0.6,1.2c-0.4,0.3-1,0.5-1.7,0.5c-0.4,0-0.8,0-1.1-0.1s-0.6-0.2-0.8-0.3v-1h0    c0.3,0.2,0.6,0.4,1,0.5c0.4,0.1,0.7,0.2,1,0.2c0.4,0,0.7-0.1,0.9-0.2c0.2-0.1,0.3-0.3,0.3-0.6c0-0.2-0.1-0.4-0.2-0.5    c-0.1-0.1-0.4-0.2-0.7-0.3c-0.1,0-0.3-0.1-0.5-0.1s-0.4-0.1-0.6-0.1c-0.5-0.1-0.8-0.3-1-0.6s-0.3-0.5-0.3-0.9c0-0.2,0-0.4,0.1-0.6    s0.2-0.4,0.4-0.5c0.2-0.2,0.4-0.3,0.7-0.4c0.3-0.1,0.6-0.1,0.9-0.1c0.3,0,0.7,0,1,0.1s0.6,0.2,0.8,0.3v1h0    c-0.2-0.2-0.5-0.3-0.9-0.4c-0.3-0.1-0.7-0.2-1-0.2c-0.3,0-0.6,0.1-0.8,0.2s-0.3,0.3-0.3,0.6c0,0.2,0.1,0.4,0.2,0.5    c0.1,0.1,0.4,0.2,0.7,0.3c0.2,0,0.4,0.1,0.6,0.1s0.4,0.1,0.5,0.1c0.4,0.1,0.8,0.3,1,0.5C265.6,151.2,265.8,151.5,265.8,151.9z"/>
		<path d="M271.3,153.5h-0.9v-0.6c-0.1,0.1-0.2,0.1-0.3,0.2c-0.1,0.1-0.3,0.2-0.4,0.2c-0.2,0.1-0.3,0.1-0.5,0.2    c-0.2,0.1-0.4,0.1-0.7,0.1c-0.5,0-0.9-0.2-1.3-0.5s-0.5-0.7-0.5-1.2c0-0.4,0.1-0.7,0.3-1s0.4-0.5,0.8-0.6c0.3-0.1,0.7-0.2,1.2-0.3    s1-0.1,1.5-0.1v-0.1c0-0.2,0-0.4-0.1-0.5s-0.2-0.2-0.3-0.3c-0.1-0.1-0.3-0.1-0.5-0.2s-0.4,0-0.6,0c-0.2,0-0.5,0-0.8,0.1    c-0.3,0.1-0.6,0.2-0.9,0.3h0v-0.9c0.2,0,0.4-0.1,0.8-0.2s0.7-0.1,1-0.1c0.4,0,0.7,0,1,0.1c0.3,0.1,0.5,0.2,0.7,0.3    c0.2,0.1,0.4,0.3,0.5,0.6s0.2,0.5,0.2,0.9V153.5z M270.4,152.1v-1.5c-0.3,0-0.6,0-1,0.1c-0.4,0-0.7,0.1-0.9,0.1    c-0.3,0.1-0.5,0.2-0.6,0.3s-0.2,0.4-0.2,0.7c0,0.3,0.1,0.5,0.3,0.7c0.2,0.2,0.5,0.2,0.9,0.2c0.3,0,0.6-0.1,0.9-0.2    S270.2,152.3,270.4,152.1z"/>
	</g>
</g>
<g id="llegenda">
	<line style="fill:none;stroke:#9A9A9A;stroke-width:2;stroke-miterlimit:10;" x1="-93" y1="135.9" x2="-93" y2="165.4"/>
	<line style="fill:none;stroke:#9A9A9A;stroke-miterlimit:10;" x1="-59.5" y1="135.9" x2="-59.5" y2="165.4"/>
	<g>
		<path d="M-85.2,146.3h0.9v7.1h-0.9V146.3z"/>
		<path d="M-81.9,147.2c0,0.3-0.2,0.5-0.6,0.5c-0.3,0-0.5-0.2-0.5-0.5s0.2-0.5,0.5-0.5C-82.1,146.6-81.9,146.9-81.9,147.2z     M-82.9,153.4v-4.8h0.9v4.8H-82.9z"/>
		<path d="M-80.5,149.9c0-0.5,0-0.9,0-1.3h0.8l0,0.8h0c0.2-0.4,0.8-0.9,1.6-0.9c0.7,0,1.7,0.4,1.7,2.1v2.9h-0.9v-2.8    c0-0.8-0.3-1.4-1.1-1.4c-0.6,0-1,0.4-1.2,0.9c0,0.1-0.1,0.3-0.1,0.4v2.9h-0.9V149.9z"/>
	</g>
	<line style="fill:none;stroke:#696969;stroke-width:2;stroke-miterlimit:10;" x1="-93" y1="175.5" x2="-93" y2="205"/>
	<g>
		<path d="M-85.2,185.9h0.9v7.1h-0.9V185.9z"/>
		<path d="M-81.9,186.8c0,0.3-0.2,0.5-0.6,0.5c-0.3,0-0.5-0.2-0.5-0.5s0.2-0.5,0.5-0.5C-82.1,186.2-81.9,186.5-81.9,186.8z     M-82.9,193v-4.8h0.9v4.8H-82.9z"/>
		<path d="M-80.5,189.5c0-0.5,0-0.9,0-1.3h0.8l0,0.8h0c0.2-0.4,0.8-0.9,1.6-0.9c0.7,0,1.7,0.4,1.7,2.1v2.9h-0.9v-2.8    c0-0.8-0.3-1.4-1.1-1.4c-0.6,0-1,0.4-1.2,0.9c0,0.1-0.1,0.3-0.1,0.4v2.9h-0.9V189.5z"/>
	</g>
	<rect x="-98.3" y="111.3" style="fill:#BFBFBF;" width="16.3" height="15.3"/>
	<rect x="-98.3" y="83.6" style="fill:#DCE9FB;" width="16.3" height="15.3"/>
	<rect x="-129.7" y="83.6" style="fill:#D0E0A4;" width="16.3" height="15.3"/>
	<g>
		<path d="M-72.8,120.6v-4.2h-0.7v-0.7h0.7v-0.2c0-0.7,0.2-1.3,0.6-1.7c0.3-0.3,0.8-0.4,1.2-0.4c0.3,0,0.6,0.1,0.7,0.1l-0.1,0.7    c-0.1-0.1-0.3-0.1-0.6-0.1c-0.7,0-0.9,0.6-0.9,1.4v0.3h1.2v0.7h-1.2v4.2H-72.8z"/>
		<path d="M-65.7,118.2c0,1.8-1.2,2.6-2.4,2.6c-1.3,0-2.3-1-2.3-2.5c0-1.6,1.1-2.6,2.4-2.6C-66.6,115.7-65.7,116.7-65.7,118.2z     M-69.5,118.2c0,1.1,0.6,1.9,1.5,1.9c0.8,0,1.5-0.8,1.5-1.9c0-0.8-0.4-1.8-1.4-1.8C-69.1,116.4-69.5,117.3-69.5,118.2z"/>
		<path d="M-64.6,117.1c0-0.5,0-0.9,0-1.3h0.8l0,0.8h0c0.2-0.4,0.8-0.9,1.6-0.9c0.7,0,1.7,0.4,1.7,2.1v2.9h-0.9v-2.8    c0-0.8-0.3-1.4-1.1-1.4c-0.6,0-1,0.4-1.2,0.9c0,0.1-0.1,0.3-0.1,0.4v2.9h-0.9V117.1z"/>
		<path d="M-59.2,119.8c0.3,0.2,0.7,0.3,1.2,0.3c0.6,0,0.9-0.3,0.9-0.7c0-0.4-0.3-0.6-0.9-0.9c-0.9-0.3-1.3-0.8-1.3-1.4    c0-0.8,0.6-1.4,1.7-1.4c0.5,0,0.9,0.1,1.2,0.3l-0.2,0.6c-0.2-0.1-0.5-0.3-1-0.3c-0.5,0-0.8,0.3-0.8,0.7c0,0.4,0.3,0.6,0.9,0.8    c0.8,0.3,1.3,0.7,1.3,1.4c0,0.9-0.7,1.5-1.8,1.5c-0.5,0-1-0.1-1.4-0.3L-59.2,119.8z"/>
	</g>
	<g>
		<path d="M-72.9,89.8c0-0.5,0-0.9,0-1.3h0.8l0,0.8h0c0.3-0.5,0.7-0.9,1.5-0.9c0.6,0,1.1,0.4,1.4,1h0c0.1-0.3,0.4-0.5,0.5-0.6    c0.3-0.2,0.6-0.3,1.1-0.3c0.6,0,1.6,0.4,1.6,2.1v2.8h-0.9v-2.7c0-0.9-0.3-1.5-1-1.5c-0.5,0-0.9,0.4-1,0.8c0,0.1-0.1,0.3-0.1,0.4v3    h-0.9v-2.9c0-0.8-0.3-1.3-1-1.3c-0.5,0-0.9,0.4-1.1,0.9c-0.1,0.1-0.1,0.3-0.1,0.4v2.9h-0.9V89.8z"/>
		<path d="M-61.1,92.2c0,0.4,0,0.8,0.1,1.2h-0.8l-0.1-0.6h0c-0.3,0.4-0.8,0.7-1.5,0.7c-1,0-1.5-0.7-1.5-1.4c0-1.2,1-1.8,2.9-1.8    v-0.1c0-0.4-0.1-1.1-1.1-1.1c-0.5,0-0.9,0.1-1.3,0.4l-0.2-0.6c0.4-0.3,1-0.4,1.6-0.4c1.5,0,1.8,1,1.8,2V92.2z M-62,90.8    c-1,0-2,0.1-2,1.1c0,0.6,0.4,0.8,0.8,0.8c0.6,0,1-0.4,1.2-0.8c0-0.1,0-0.2,0-0.3V90.8z"/>
		<path d="M-59.7,90c0-0.6,0-1.1,0-1.5h0.8l0,1h0c0.2-0.6,0.8-1.1,1.3-1.1c0.1,0,0.2,0,0.2,0v0.8c-0.1,0-0.2,0-0.3,0    c-0.6,0-1.1,0.5-1.2,1.1c0,0.1,0,0.3,0,0.4v2.6h-0.9V90z"/>
	</g>
	<circle style="fill-rule:evenodd;clip-rule:evenodd;fill:#5B7EBD;" cx="-93" cy="220.1" r="2.4"/>
	
		<rect x="-173.8" y="111.3" style="fill:#BFBFBF;stroke:#696969;stroke-width:2;stroke-miterlimit:10;" width="16.3" height="15.3"/>
	
		<rect x="-147.6" y="111.3" style="fill:#FFFBF0;stroke:#9A9A9A;stroke-width:2;stroke-miterlimit:10;" width="16.3" height="15.3"/>
	<rect x="-156.8" y="141.9" style="opacity:0.6;fill:#FFFBF0;" width="51" height="17.5"/>
</g>
</svg>