<svg xmlns="http://www.w3.org/2000/svg" xmlns:xlink="http://www.w3.org/1999/xlink" version="1.1" x="0px" y="0px" width="450px" height="450px" viewBox="0 0 450 450" style="enable-background:new 0 0 450 450;" xml:space="preserve">
<g id="Color_fons">
	<path style="fill:#DCE9FB;" d="M450,130.2c1.4-2-10.5,24.5-5.3,8.6C445,135.6,447,132.1,450,130.2C450,130.2,448.6,131.1,450,130.2   z M450,90.3C449.8,90.9,449.3,92.9,450,90.3L450,90.3z M84.4-17.4c129.3-2.4,258.5-4.9,387.8-7.3c-0.8,33.4-1.6,66.8-2.3,100.1   c-0.5,21.7-21.2,10.9-36.4,13c1.4,7.9-12.7,7.7-12.2,8.4c-12.3,3.4-24.5,11.5-40.6,10.4c-12.1-0.8-22.3-5.1-31.1-8.6   c-3.2,5.3-9.7,6.5-15.3,2c-9.5,10.8-22.8-9.1-32.4-9.4c-10-0.4-14.2,10.6-26.5,8.6c-0.6-0.3,2.6-3.6-2.6-9.3   c-6.7-7.2-21-2.2-21.2-14.8c-4.2,1-19.8,5.1-21.2,6.2c1.3-4.2,1.4-5.3,5.7-7c2.6-19.1-39.8-26.6-51.2-31.7   c1.3,13.3-14.5,2.3-15.2,3.9c-1.6-1.8,8.5-8.1,8.9-8.2c0,0-6.8-5.8-9.3-6.9c-6.4-4.2-17.5-8.4-25.2-9.3c-10.4-1.2-9.2,1-20.9-2   C97.3,14.1,100.1,10.6,84.4-17.4L84.4-17.4z"/>
	<a xlink:href="Vizcaya Bizkaia">
		<path style="fill:#BFBFBF;stroke:#696969;stroke-width:2;stroke-linejoin:arcs;stroke-miterlimit:10;" d="M-16.3-17.4    c14.5,0,95.8-8.7,101.5,1.5c4.3,7.6,10.4,21.2,15.2,26c7.7,7.8,4.2,1.8,12.9,4.9c9.9,3.5,20.6,6.9,25.9,6.9    C159,22,173.4,37.4,178.3,39c-3,1-9.1,4.3-8.9,8.2c1.6,1.3,10.4,1.9,15.6,2.4c-12.9,2.4-42.6,47.5-44.5,56.7    c-0.9,4.7-6.2,17.2-2.1,20.5c8,6.3,14.4,10.3,18.8,19.4c5.3,10.9,15.9,19.8,16.5,22c0.9,3.4-4,8.2-7.1,14.5    c-3.9,7.8-27.4,19.3-25.7,27c3.9,18.5,5.5,11.5-10,25.3c-11.2,9.9-28,34.9-30.1,35.8c-14.7,6-45.2,1.7-52-4.4    c-5.2,7.7-9.9,21.7-8.3,31c1,6.1,3.9,10.7,7.9,16c8.1,10.8,12.4,7,12.6,7.5c1.7,5.3-4.2,35.1-7.7,44c-3.9,9.8,16.8,16.8,10.7,25.6    c-7,10.1-23.7,7-33.1,9.8c-7.8,2.3-10.6,9.3,1.2,25.7c8.1,11.3,2,34.5,0.8,35.7c-10.7,10.6-30,0.9-45.1,1.3    C-13.5,303-14.9,142.8-16.3-17.4L-16.3-17.4z"/>
	</a>
	<a xlink:href="Urola Kosta">
		
			<path style="fill-rule:evenodd;clip-rule:evenodd;fill:#BFBFBF;stroke:#696969;stroke-width:2;stroke-linejoin:arcs;stroke-miterlimit:10;" d="    M263.2,460.8c-0.8-7-1.7-14-2.5-21c-1.1-9,7.8-6.2,3.3-18.1c-2.9-7.5,5-14.1,4.6-21.5c0,0-15.7-19.3-16.6-20.5    c-3.5-4.9,9-13.8,8-20.6c-1.4-8.8,9.6-12.2,7.5-18.2c-3.1-9.1-6.3-11.9-1.7-20.3c4.7-8.7,7.6-18.7,7.7-25.5    c25.8-9.3,27.5-10.7,30.5-23c3.7-14.8,11.8-21,13.7-18.4c6.7,8.9,16.6,19.4,21.7,22.5c13.7,8.5,26.1,17.8,32.7,10.9    c13.7-14.3,26.4-32.6,37.8-46.7c-4.4-4-1.9-11.3-5.5-13.4c-9-5.3-16.6-1.7-26.6-1.5c-14.1,0.3-4.4-39.5,5.3-51.1    c6.6-7.9,19-34,27.3-38.6c26.4-14.4-6.7-20.9-19.8-28.4c10.8-1.3,22.1-8.5,30.4-10.8c-0.5-0.7,13.6-0.5,12.2-8.4    c11.1-1.5,22-0.9,34.7-2.1c-2.5,6.1-8.6,9.8-11,16.3c-2.2,6.1,1.5,20.1,1.2,29.1c-0.5,14.2-0.6,28.4-0.6,42.7    c-0.2,69.5,0.1,139,0.3,208.4c0.1,22.6,0.2,45.3,0.3,67.9c0.1,14.5-12.4,8.5-25.6,8.6C376.2,459.8,319.7,460.3,263.2,460.8    L263.2,460.8z"/>
	</a>
	<a xlink:href="Debagoiena">
		<path style="fill:#BFBFBF;stroke:#696969;stroke-width:2;stroke-miterlimit:10;" d="M64.9,389.5c-0.4-8.8,6.9-16.9,14.7-3.6    c6.3,10.7,9.4,12.4,20.5,17.5c7.1,3.3,15-13.8,23.9-15.5c8.5-1.6,16.9,5.4,23.1,7.8c-0.9,1.3-1.8,2.6-2.7,3.9    c10.2,0.3,16.2-2.7,22,2.9c7,6.7,11-2,15.6-0.6c8.7,2.7,14,10.3,22.9,3.8c5.6,8.1,25.8-8,34.1-12.5c5.4-3,12.1-9.2,12.1-16    c0-1.4,17.5,24.2,17.5,23c0.4,7.4-7.5,14-4.6,21.5c5,12.9-3.1,6.4-3.5,16.4c-0.3,7.8,2,16.3,2.9,24c-76.4-0.5-152.9-1-229.3-1.6    c1.4-7.4,4.1-18.6,2.7-25.9c-1.4-7.3-13-15.9-12.7-23.8c0.7-19.8,23.6-5.1,39.4-19.7L64.9,389.5z"/>
	</a>
</g>
<g id="Limit_municipis">
	<a xlink:href="Mutriku">
		
			<path style="fill-rule:evenodd;clip-rule:evenodd;fill:#FFFBF0;stroke:#9A9A9A;stroke-width:2;stroke-linejoin:arcs;stroke-miterlimit:10;" d="    M181,50.9c3.2-3.4,3.4-2.5,3.7-7.6c9.8,6.1,53.8,12.5,51.2,31.7c-4.4,1.7-4.5,2.8-5.7,7c1.3-1.1,17-5.2,21.2-6.2    c0.2,10.6,18.2,7.3,22.8,15.7c5,9.3-3,45.8-13.8,21.2c-8.2,6.4-10,25.3,0.1,29.9c-1.4,2-2.8,3.9-4.2,5.9c-16.2-17.3-7,16.5-8.7,20    c-8.8-8.8-13.1,0.7-23.5,1.2c-9.5,0.4-10.8-5.4-21.7-0.7c-17.5,7.4-20.2-4.9-27.9-0.8c-0.3,0.2-0.6-0.4-0.9-0.6    c-7.5-5.7-13.1-14.9-16.1-21.2c-4.2-8.7-19.8-12.9-20.6-20.8C134,96.3,171.8,56.8,181,50.9L181,50.9z"/>
	</a>
	<a xlink:href="Deba">
		
			<path style="fill-rule:evenodd;clip-rule:evenodd;fill:#FFFBF0;stroke:#9A9A9A;stroke-width:2;stroke-linejoin:arcs;stroke-miterlimit:10;" d="    M391.3,108.5c15,5.9,44.3,13.8,19.3,27.5c-8.4,4.6-21,30.4-26.5,39c-6.6,10.2-19.6,37.4-8.4,49c4.9,5.1,22-4.2,29.1,2.3    c5.3,4.9-0.2,9.2,5.3,14.2c-6.7,8.3-35.1,55.4-46.5,50c-11.6-5.5-23-12.1-32-20.4c-5.8-5.4-19.6-25.6-26-28.2    c-10.8-4.5-19.6-8.5-19.2-19.6c0.5-12.6-11.1-27.5-20.7-37.9c-7-7.6-18.1-9.2-19.1-19.3c-0.3-3.1-6.3-33.7,9.6-16.8    c1.4-2,2.8-3.9,4.2-5.9c-10.1-4.6-8.3-23.5-0.1-29.9c9.4,21.3,15.9-2.3,16.9-13.1c12.3,2,14.5-8.7,24.5-8.3    c9.6,0.4,22.9,20.2,32.4,9.4c5.7,4.6,12.1,3.4,15.3-2C361.4,103.4,376.3,106.4,391.3,108.5L391.3,108.5z"/>
	</a>
	<a xlink:href="Elgoibar">
		
			<path style="fill-rule:evenodd;clip-rule:evenodd;fill:#FFFBF0;stroke:#9A9A9A;stroke-width:2;stroke-linejoin:arcs;stroke-miterlimit:10;" d="    M143,224.2c0,0,21.8,3,29.1,2c15.4-2.2,16.1-0.5,24.3-2.2c13.9-2.9,15,10.5,22.7,11.3c16.4,1.7,14.5,4.4,23.1,15.7    c4.1,5.4,14.7,8.1,18.7,13.5c3.6,4.7,17.7,29,10.9,44.6c-6.1,13.9-9.6,15.7-4.8,29.7c3.8,11.2-8.3,10.9-6.9,20.3    c0.9,6.2-8.8,19-9.6,18.4c-18.4-12.5-37-25.3-56.6-34.7c-37.3-17.9-30.6-12.5-50.2-3.2c8-20.3,1.2-27.2-10.8-44.6    c-4.9-7-32.1-22.7-31.4-24.8C102,268.5,130,228.9,143,224.2z"/>
	</a>
	<a xlink:href="Mendaro">
		
			<path style="fill-rule:evenodd;clip-rule:evenodd;fill:#FFFBF0;stroke:#9A9A9A;stroke-width:2;stroke-linejoin:arcs;stroke-miterlimit:10;" d="    M173.9,168.1c8.4-2.6,12.7,4.1,20.2,3.2c10.8-1.3,11.7-6.7,24.4-2c8.5,3.1,19.6-9,26.5-3c5,4.3,10.6,8.9,16.6,13.5    c10.7,8.1,26.5,29.3,24.7,42.6c-2.2,17,24.4,14.1,30.7,30.6c-11.7,5.6-11.4,21.1-17.8,30.6c-1.2,1.8-20.3,11.5-26.3,12.9    c-1.8-13.3-10.9-34.6-23.8-39.9c-8.3-3.4-13.7-18.1-21.2-19c-21-2.6-12.5-8.6-25.1-13.1c-7.7-2.7-58.2,8-60.2-1    c-3.8-17.1-3.8-16.2,9.6-27.5c10.4-8.7,14.4-13.5,20.5-25.7L173.9,168.1z"/>
	</a>
	<a xlink:href="Eibar">
		
			<path style="fill-rule:evenodd;clip-rule:evenodd;fill:#FFFBF0;stroke:#9A9A9A;stroke-width:2;stroke-linejoin:arcs;stroke-miterlimit:10;" d="    M48.9,266.4c4.6,4.1,37.1,9.9,52,4.4c3.2-1.2,10.4,7,16.2,11.2c9.2,6.6,19,13.8,24.1,24.2c8.2,16.7,8.2,16.8,2.5,33.6    c-3.5,10.2-11,49.3-11,49.3s-6.9-3.4-13.3,1.2c-17.8,12.8-7.9,20.1-30.4,7.3c-7.5-4.3-17.1-29.8-24.1-9.7    c-1.9-4.1-12.4-18.1-12.6-20.4c-0.6-5.4,6-17.8,6.7-24.5c0.6-5.7,1.1-11.4,1.7-17.1c1-10-3-0.5-6.6-6.2    C49.1,312.2,27.6,304.5,48.9,266.4z"/>
	</a>
	<a xlink:href="Soraluze Placencia de Las Armas">
		
			<path style="fill-rule:evenodd;clip-rule:evenodd;fill:#FFFBF0;stroke:#9A9A9A;stroke-width:2;stroke-linejoin:arcs;stroke-miterlimit:10;" d="    M143.6,339.7c4.8-2.3,14.5-9.7,19.6-9.3c17.2,1.4,87.2,45,87.8,47.9c0.8,3.8-3.3,10.1-9.1,13.3c-8.6,4.7-31.3,22.5-37,14.2    c-7.7,5.6-13,0.8-20.5-2.7c-4.5-2.1-8.1,3.2-13.9,1.7c-4.3-1.1-5.4-4.7-8.4-5.2c-8.1-1.4-9.5,0.2-17.7,0c0.9-1.3,1.8-2.6,2.7-3.9    c-5-0.6-7.8-3.4-14.5-6.7C132.6,389,138,354.4,143.6,339.7L143.6,339.7z"/>
	</a>
</g>
<g id="Municipis">
	<g>
		<path d="M188.4,120.3h-1V114l-2,4.3h-0.6l-2-4.3v6.3H182V113h1.3l1.9,4l1.9-4h1.3V120.3z"/>
		<path d="M194.8,120.3h-0.9v-0.6c-0.3,0.2-0.6,0.4-0.9,0.6s-0.6,0.2-0.9,0.2c-0.6,0-1-0.2-1.3-0.5c-0.3-0.3-0.5-0.9-0.5-1.5v-3.5    h0.9v3.1c0,0.3,0,0.5,0,0.7c0,0.2,0.1,0.4,0.2,0.5c0.1,0.1,0.2,0.2,0.3,0.3c0.1,0.1,0.3,0.1,0.6,0.1c0.2,0,0.5-0.1,0.8-0.2    c0.3-0.1,0.5-0.3,0.8-0.5v-4.1h0.9V120.3z"/>
		<path d="M199.5,120.2c-0.2,0-0.4,0.1-0.6,0.1c-0.2,0-0.4,0-0.5,0c-0.6,0-1-0.1-1.3-0.4c-0.3-0.3-0.4-0.8-0.4-1.4v-2.9H196v-0.8    h0.6v-1.6h0.9v1.6h1.9v0.8h-1.9v2.5c0,0.3,0,0.5,0,0.7c0,0.2,0.1,0.3,0.1,0.5c0.1,0.1,0.2,0.2,0.3,0.3c0.1,0.1,0.3,0.1,0.6,0.1    c0.1,0,0.3,0,0.5-0.1c0.2,0,0.3-0.1,0.4-0.1h0V120.2z"/>
		<path d="M204,115.8L204,115.8c-0.2,0-0.3-0.1-0.4-0.1c-0.1,0-0.3,0-0.5,0c-0.3,0-0.6,0.1-0.8,0.2c-0.3,0.1-0.5,0.3-0.8,0.5v3.9    h-0.9v-5.5h0.9v0.8c0.4-0.3,0.7-0.5,1-0.6s0.6-0.2,0.9-0.2c0.2,0,0.3,0,0.3,0c0.1,0,0.2,0,0.3,0V115.8z"/>
		<path d="M205.8,113.9h-1v-1h1V113.9z M205.8,120.3h-0.9v-5.5h0.9V120.3z"/>
		<path d="M212.5,120.3h-1.2l-2.2-2.4l-0.6,0.6v1.8h-0.9v-7.6h0.9v4.9l2.7-2.7h1.2l-2.5,2.5L212.5,120.3z"/>
		<path d="M218,120.3h-0.9v-0.6c-0.3,0.2-0.6,0.4-0.9,0.6s-0.6,0.2-0.9,0.2c-0.6,0-1-0.2-1.3-0.5c-0.3-0.3-0.5-0.9-0.5-1.5v-3.5h0.9    v3.1c0,0.3,0,0.5,0,0.7c0,0.2,0.1,0.4,0.2,0.5c0.1,0.1,0.2,0.2,0.3,0.3c0.1,0.1,0.3,0.1,0.6,0.1c0.2,0,0.5-0.1,0.8-0.2    c0.3-0.1,0.5-0.3,0.8-0.5v-4.1h0.9V120.3z"/>
	</g>
	<g>
		<path d="M318.5,170.9c0,0.7-0.1,1.3-0.4,1.8s-0.7,1-1.1,1.3c-0.3,0.2-0.7,0.4-1.1,0.4c-0.4,0.1-0.9,0.1-1.6,0.1h-1.8v-7.3h1.8    c0.7,0,1.3,0.1,1.7,0.2c0.4,0.1,0.8,0.2,1.1,0.4c0.5,0.3,0.9,0.7,1.2,1.2C318.3,169.5,318.5,170.2,318.5,170.9z M317.4,170.8    c0-0.6-0.1-1-0.3-1.4c-0.2-0.4-0.5-0.7-0.9-0.9c-0.3-0.2-0.6-0.3-0.9-0.3s-0.7-0.1-1.2-0.1h-0.9v5.6h0.9c0.5,0,0.9,0,1.2-0.1    s0.7-0.2,1-0.4c0.4-0.2,0.6-0.5,0.8-0.9C317.3,171.9,317.4,171.4,317.4,170.8z"/>
		<path d="M324.5,171.9h-4c0,0.3,0.1,0.6,0.2,0.9c0.1,0.2,0.2,0.5,0.4,0.6c0.2,0.2,0.4,0.3,0.6,0.4c0.2,0.1,0.5,0.1,0.8,0.1    c0.4,0,0.7-0.1,1.1-0.2c0.4-0.1,0.6-0.3,0.8-0.4h0v1c-0.3,0.1-0.6,0.2-0.9,0.3s-0.7,0.1-1,0.1c-0.9,0-1.6-0.2-2.1-0.7    c-0.5-0.5-0.8-1.2-0.8-2.1c0-0.9,0.2-1.6,0.7-2.1c0.5-0.5,1.1-0.8,1.9-0.8c0.7,0,1.3,0.2,1.7,0.6c0.4,0.4,0.6,1,0.6,1.8V171.9z     M323.6,171.2c0-0.5-0.1-0.9-0.4-1.1s-0.6-0.4-1.1-0.4c-0.5,0-0.9,0.1-1.2,0.4c-0.3,0.3-0.5,0.6-0.5,1.1H323.6z"/>
		<path d="M330.7,171.7c0,0.5-0.1,0.9-0.2,1.2c-0.1,0.4-0.3,0.7-0.5,0.9c-0.2,0.3-0.5,0.5-0.8,0.6c-0.3,0.1-0.6,0.2-0.9,0.2    c-0.3,0-0.6,0-0.8-0.1c-0.2-0.1-0.5-0.2-0.7-0.3l-0.1,0.3h-0.9v-7.6h0.9v2.7c0.3-0.2,0.5-0.4,0.8-0.5c0.3-0.1,0.6-0.2,1-0.2    c0.6,0,1.2,0.2,1.5,0.7C330.5,170.1,330.7,170.8,330.7,171.7z M329.8,171.7c0-0.7-0.1-1.1-0.3-1.5s-0.6-0.5-1-0.5    c-0.3,0-0.5,0.1-0.8,0.2c-0.3,0.1-0.5,0.3-0.8,0.4v3.1c0.3,0.1,0.5,0.2,0.7,0.2c0.2,0,0.4,0.1,0.6,0.1c0.5,0,0.9-0.2,1.2-0.5    C329.6,173,329.8,172.5,329.8,171.7z"/>
		<path d="M336.4,174.5h-0.9v-0.6c-0.1,0.1-0.2,0.1-0.3,0.2c-0.1,0.1-0.3,0.2-0.4,0.2c-0.2,0.1-0.3,0.1-0.5,0.2    c-0.2,0.1-0.4,0.1-0.7,0.1c-0.5,0-0.9-0.2-1.3-0.5c-0.3-0.3-0.5-0.7-0.5-1.2c0-0.4,0.1-0.7,0.3-1c0.2-0.3,0.4-0.5,0.8-0.6    c0.3-0.1,0.7-0.2,1.2-0.3c0.5-0.1,1-0.1,1.5-0.1v-0.1c0-0.2,0-0.4-0.1-0.5s-0.2-0.2-0.3-0.3c-0.1-0.1-0.3-0.1-0.5-0.2    c-0.2,0-0.4,0-0.6,0c-0.2,0-0.5,0-0.8,0.1c-0.3,0.1-0.6,0.2-0.9,0.3h0v-0.9c0.2,0,0.4-0.1,0.8-0.2c0.3-0.1,0.7-0.1,1-0.1    c0.4,0,0.7,0,1,0.1c0.3,0.1,0.5,0.2,0.7,0.3c0.2,0.1,0.4,0.3,0.5,0.6c0.1,0.2,0.2,0.5,0.2,0.9V174.5z M335.5,173.1v-1.5    c-0.3,0-0.6,0-1,0.1c-0.4,0-0.7,0.1-0.9,0.1c-0.3,0.1-0.5,0.2-0.6,0.3c-0.2,0.2-0.2,0.4-0.2,0.7c0,0.3,0.1,0.5,0.3,0.7    c0.2,0.2,0.5,0.2,0.9,0.2c0.3,0,0.6-0.1,0.9-0.2C335,173.5,335.2,173.3,335.5,173.1z"/>
	</g>
	<g>
		<path d="M221.8,213.4h-1v-6.3l-2,4.3h-0.6l-2-4.3v6.3h-0.9v-7.3h1.3l1.9,4l1.9-4h1.3V213.4z"/>
		<path d="M228.3,210.7h-4c0,0.3,0.1,0.6,0.2,0.9c0.1,0.2,0.2,0.5,0.4,0.6c0.2,0.2,0.4,0.3,0.6,0.4c0.2,0.1,0.5,0.1,0.8,0.1    c0.4,0,0.7-0.1,1.1-0.2c0.4-0.1,0.6-0.3,0.8-0.4h0v1c-0.3,0.1-0.6,0.2-0.9,0.3s-0.7,0.1-1,0.1c-0.9,0-1.6-0.2-2.1-0.7    c-0.5-0.5-0.8-1.2-0.8-2.1c0-0.9,0.2-1.6,0.7-2.1c0.5-0.5,1.1-0.8,1.9-0.8c0.7,0,1.3,0.2,1.7,0.6c0.4,0.4,0.6,1,0.6,1.8V210.7z     M227.4,210c0-0.5-0.1-0.9-0.4-1.1s-0.6-0.4-1.1-0.4c-0.5,0-0.9,0.1-1.2,0.4c-0.3,0.3-0.5,0.6-0.5,1.1H227.4z"/>
		<path d="M234.2,213.4h-0.9v-3.1c0-0.3,0-0.5,0-0.7s-0.1-0.4-0.2-0.5c-0.1-0.1-0.2-0.2-0.4-0.3c-0.2-0.1-0.4-0.1-0.6-0.1    c-0.3,0-0.5,0.1-0.8,0.2c-0.3,0.1-0.5,0.3-0.8,0.5v4.1h-0.9v-5.5h0.9v0.6c0.3-0.2,0.6-0.4,0.9-0.6c0.3-0.1,0.6-0.2,0.9-0.2    c0.6,0,1,0.2,1.3,0.5c0.3,0.4,0.5,0.9,0.5,1.5V213.4z"/>
		<path d="M240.4,213.4h-0.9v-0.6c-0.3,0.2-0.5,0.4-0.8,0.5c-0.3,0.1-0.6,0.2-0.9,0.2c-0.7,0-1.2-0.3-1.6-0.8    c-0.4-0.5-0.6-1.2-0.6-2.1c0-0.5,0.1-0.9,0.2-1.2s0.3-0.7,0.5-0.9c0.2-0.2,0.5-0.4,0.8-0.6c0.3-0.1,0.6-0.2,0.9-0.2    c0.3,0,0.5,0,0.8,0.1c0.2,0.1,0.5,0.2,0.7,0.3v-2.4h0.9V213.4z M239.5,212v-3.1c-0.2-0.1-0.5-0.2-0.7-0.2c-0.2,0-0.4-0.1-0.6-0.1    c-0.5,0-0.9,0.2-1.2,0.5c-0.3,0.4-0.4,0.9-0.4,1.5c0,0.6,0.1,1.1,0.3,1.5c0.2,0.3,0.6,0.5,1.1,0.5c0.3,0,0.5-0.1,0.8-0.2    C239,212.4,239.3,212.2,239.5,212z"/>
		<path d="M246.5,213.4h-0.9v-0.6c-0.1,0.1-0.2,0.1-0.3,0.2c-0.1,0.1-0.3,0.2-0.4,0.2c-0.2,0.1-0.3,0.1-0.5,0.2    c-0.2,0.1-0.4,0.1-0.7,0.1c-0.5,0-0.9-0.2-1.3-0.5c-0.3-0.3-0.5-0.7-0.5-1.2c0-0.4,0.1-0.7,0.3-1c0.2-0.3,0.4-0.5,0.8-0.6    c0.3-0.1,0.7-0.2,1.2-0.3c0.5-0.1,1-0.1,1.5-0.1v-0.1c0-0.2,0-0.4-0.1-0.5s-0.2-0.2-0.3-0.3c-0.1-0.1-0.3-0.1-0.5-0.2    c-0.2,0-0.4,0-0.6,0c-0.2,0-0.5,0-0.8,0.1c-0.3,0.1-0.6,0.2-0.9,0.3h0V208c0.2,0,0.4-0.1,0.8-0.2c0.3-0.1,0.7-0.1,1-0.1    c0.4,0,0.7,0,1,0.1c0.3,0.1,0.5,0.2,0.7,0.3c0.2,0.1,0.4,0.3,0.5,0.6c0.1,0.2,0.2,0.5,0.2,0.9V213.4z M245.5,212v-1.5    c-0.3,0-0.6,0-1,0.1c-0.4,0-0.7,0.1-0.9,0.1c-0.3,0.1-0.5,0.2-0.6,0.3c-0.2,0.2-0.2,0.4-0.2,0.7c0,0.3,0.1,0.5,0.3,0.7    c0.2,0.2,0.5,0.2,0.9,0.2c0.3,0,0.6-0.1,0.9-0.2C245.1,212.4,245.3,212.2,245.5,212z"/>
		<path d="M251.6,208.9L251.6,208.9c-0.2,0-0.3-0.1-0.4-0.1c-0.1,0-0.3,0-0.5,0c-0.3,0-0.6,0.1-0.8,0.2c-0.3,0.1-0.5,0.3-0.8,0.5    v3.9h-0.9v-5.5h0.9v0.8c0.4-0.3,0.7-0.5,1-0.6s0.6-0.2,0.9-0.2c0.2,0,0.3,0,0.3,0c0.1,0,0.2,0,0.3,0V208.9z"/>
		<path d="M257.2,210.6c0,0.9-0.2,1.6-0.7,2.1c-0.5,0.5-1.1,0.8-1.8,0.8c-0.8,0-1.4-0.3-1.8-0.8c-0.5-0.5-0.7-1.2-0.7-2.1    s0.2-1.6,0.7-2.1c0.5-0.5,1.1-0.8,1.8-0.8c0.8,0,1.4,0.3,1.8,0.8C256.9,209.1,257.2,209.8,257.2,210.6z M256.2,210.6    c0-0.7-0.1-1.2-0.4-1.6c-0.3-0.3-0.7-0.5-1.2-0.5c-0.5,0-0.9,0.2-1.2,0.5c-0.3,0.3-0.4,0.9-0.4,1.6c0,0.7,0.1,1.2,0.4,1.6    c0.3,0.4,0.7,0.5,1.2,0.5c0.5,0,0.9-0.2,1.1-0.5C256.1,211.9,256.2,211.3,256.2,210.6z"/>
	</g>
	<g>
		<path d="M182.4,291.2h-4.8v-7.3h4.8v0.9h-3.8v2h3.8v0.9h-3.8v2.7h3.8V291.2z"/>
		<path d="M184.8,291.2h-0.9v-7.6h0.9V291.2z"/>
		<path d="M191,290.6c0,0.9-0.2,1.6-0.6,2c-0.4,0.4-1.1,0.6-1.9,0.6c-0.3,0-0.6,0-0.8-0.1c-0.3,0-0.5-0.1-0.8-0.2v-0.9h0    c0.1,0.1,0.4,0.1,0.7,0.2c0.3,0.1,0.7,0.1,1,0.1c0.3,0,0.6,0,0.8-0.1c0.2-0.1,0.4-0.2,0.5-0.3c0.1-0.1,0.2-0.3,0.2-0.5    c0-0.2,0.1-0.4,0.1-0.6v-0.5c-0.3,0.2-0.5,0.4-0.8,0.5c-0.3,0.1-0.6,0.2-1,0.2c-0.7,0-1.2-0.2-1.6-0.7c-0.4-0.5-0.6-1.1-0.6-2    c0-0.5,0.1-0.9,0.2-1.2c0.1-0.3,0.3-0.6,0.5-0.9c0.2-0.2,0.5-0.4,0.8-0.5c0.3-0.1,0.6-0.2,0.9-0.2c0.3,0,0.6,0,0.8,0.1    c0.2,0.1,0.4,0.2,0.7,0.3l0.1-0.2h0.9V290.6z M190.1,289.7v-3c-0.2-0.1-0.5-0.2-0.7-0.2c-0.2,0-0.4-0.1-0.6-0.1    c-0.5,0-0.9,0.2-1.2,0.5c-0.3,0.3-0.4,0.8-0.4,1.5c0,0.6,0.1,1.1,0.3,1.4c0.2,0.3,0.6,0.5,1.1,0.5c0.3,0,0.5-0.1,0.8-0.2    S189.9,289.9,190.1,289.7z"/>
		<path d="M197.5,288.5c0,0.9-0.2,1.6-0.7,2.1c-0.5,0.5-1.1,0.8-1.8,0.8c-0.8,0-1.4-0.3-1.8-0.8c-0.5-0.5-0.7-1.2-0.7-2.1    s0.2-1.6,0.7-2.1c0.5-0.5,1.1-0.8,1.8-0.8c0.8,0,1.4,0.3,1.8,0.8C197.3,286.9,197.5,287.6,197.5,288.5z M196.5,288.5    c0-0.7-0.1-1.2-0.4-1.6c-0.3-0.3-0.7-0.5-1.2-0.5c-0.5,0-0.9,0.2-1.2,0.5c-0.3,0.3-0.4,0.9-0.4,1.6c0,0.7,0.1,1.2,0.4,1.6    c0.3,0.4,0.7,0.5,1.2,0.5c0.5,0,0.9-0.2,1.1-0.5C196.4,289.7,196.5,289.2,196.5,288.5z"/>
		<path d="M199.9,284.9h-1v-1h1V284.9z M199.8,291.2h-0.9v-5.5h0.9V291.2z"/>
		<path d="M206.4,288.4c0,0.5-0.1,0.9-0.2,1.2c-0.1,0.4-0.3,0.7-0.5,0.9c-0.2,0.3-0.5,0.5-0.8,0.6c-0.3,0.1-0.6,0.2-0.9,0.2    c-0.3,0-0.6,0-0.8-0.1c-0.2-0.1-0.5-0.2-0.7-0.3l-0.1,0.3h-0.9v-7.6h0.9v2.7c0.3-0.2,0.5-0.4,0.8-0.5c0.3-0.1,0.6-0.2,1-0.2    c0.6,0,1.2,0.2,1.5,0.7C206.3,286.8,206.4,287.5,206.4,288.4z M205.5,288.5c0-0.7-0.1-1.1-0.3-1.5s-0.6-0.5-1-0.5    c-0.3,0-0.5,0.1-0.8,0.2c-0.3,0.1-0.5,0.3-0.8,0.4v3.1c0.3,0.1,0.5,0.2,0.7,0.2c0.2,0,0.4,0.1,0.6,0.1c0.5,0,0.9-0.2,1.2-0.5    C205.4,289.7,205.5,289.2,205.5,288.5z"/>
		<path d="M212.1,291.2h-0.9v-0.6c-0.1,0.1-0.2,0.1-0.3,0.2c-0.1,0.1-0.3,0.2-0.4,0.2c-0.2,0.1-0.3,0.1-0.5,0.2    c-0.2,0.1-0.4,0.1-0.7,0.1c-0.5,0-0.9-0.2-1.3-0.5c-0.3-0.3-0.5-0.7-0.5-1.2c0-0.4,0.1-0.7,0.3-1c0.2-0.3,0.4-0.5,0.8-0.6    c0.3-0.1,0.7-0.2,1.2-0.3c0.5-0.1,1-0.1,1.5-0.1v-0.1c0-0.2,0-0.4-0.1-0.5s-0.2-0.2-0.3-0.3c-0.1-0.1-0.3-0.1-0.5-0.2    c-0.2,0-0.4,0-0.6,0c-0.2,0-0.5,0-0.8,0.1c-0.3,0.1-0.6,0.2-0.9,0.3h0v-0.9c0.2,0,0.4-0.1,0.8-0.2c0.3-0.1,0.7-0.1,1-0.1    c0.4,0,0.7,0,1,0.1c0.3,0.1,0.5,0.2,0.7,0.3c0.2,0.1,0.4,0.3,0.5,0.6c0.1,0.2,0.2,0.5,0.2,0.9V291.2z M211.2,289.9v-1.5    c-0.3,0-0.6,0-1,0.1c-0.4,0-0.7,0.1-0.9,0.1c-0.3,0.1-0.5,0.2-0.6,0.3c-0.2,0.2-0.2,0.4-0.2,0.7c0,0.3,0.1,0.5,0.3,0.7    c0.2,0.2,0.5,0.2,0.9,0.2c0.3,0,0.6-0.1,0.9-0.2C210.7,290.2,211,290.1,211.2,289.9z"/>
		<path d="M217.3,286.8L217.3,286.8c-0.2,0-0.3-0.1-0.4-0.1c-0.1,0-0.3,0-0.5,0c-0.3,0-0.6,0.1-0.8,0.2c-0.3,0.1-0.5,0.3-0.8,0.5    v3.9h-0.9v-5.5h0.9v0.8c0.4-0.3,0.7-0.5,1-0.6s0.6-0.2,0.9-0.2c0.2,0,0.3,0,0.3,0c0.1,0,0.2,0,0.3,0V286.8z"/>
	</g>
	<g>
		<path d="M94.4,336.1h-4.8v-7.3h4.8v0.9h-3.8v2h3.8v0.9h-3.8v2.7h3.8V336.1z"/>
		<path d="M96.9,329.8h-1v-1h1V329.8z M96.8,336.1h-0.9v-5.5h0.9V336.1z"/>
		<path d="M103.4,333.4c0,0.5-0.1,0.9-0.2,1.2c-0.1,0.4-0.3,0.7-0.5,0.9c-0.2,0.3-0.5,0.5-0.8,0.6c-0.3,0.1-0.6,0.2-0.9,0.2    c-0.3,0-0.6,0-0.8-0.1c-0.2-0.1-0.5-0.2-0.7-0.3l-0.1,0.3h-0.9v-7.6h0.9v2.7c0.3-0.2,0.5-0.4,0.8-0.5c0.3-0.1,0.6-0.2,1-0.2    c0.6,0,1.2,0.2,1.5,0.7C103.2,331.8,103.4,332.5,103.4,333.4z M102.5,333.4c0-0.7-0.1-1.1-0.3-1.5s-0.6-0.5-1-0.5    c-0.3,0-0.5,0.1-0.8,0.2c-0.3,0.1-0.5,0.3-0.8,0.4v3.1c0.3,0.1,0.5,0.2,0.7,0.2c0.2,0,0.4,0.1,0.6,0.1c0.5,0,0.9-0.2,1.2-0.5    C102.3,334.6,102.5,334.1,102.5,333.4z"/>
		<path d="M109.1,336.1h-0.9v-0.6c-0.1,0.1-0.2,0.1-0.3,0.2c-0.1,0.1-0.3,0.2-0.4,0.2c-0.2,0.1-0.3,0.1-0.5,0.2    c-0.2,0.1-0.4,0.1-0.7,0.1c-0.5,0-0.9-0.2-1.3-0.5c-0.3-0.3-0.5-0.7-0.5-1.2c0-0.4,0.1-0.7,0.3-1c0.2-0.3,0.4-0.5,0.8-0.6    c0.3-0.1,0.7-0.2,1.2-0.3c0.5-0.1,1-0.1,1.5-0.1v-0.1c0-0.2,0-0.4-0.1-0.5s-0.2-0.2-0.3-0.3c-0.1-0.1-0.3-0.1-0.5-0.2    c-0.2,0-0.4,0-0.6,0c-0.2,0-0.5,0-0.8,0.1c-0.3,0.1-0.6,0.2-0.9,0.3h0v-0.9c0.2,0,0.4-0.1,0.8-0.2c0.3-0.1,0.7-0.1,1-0.1    c0.4,0,0.7,0,1,0.1c0.3,0.1,0.5,0.2,0.7,0.3c0.2,0.1,0.4,0.3,0.5,0.6c0.1,0.2,0.2,0.5,0.2,0.9V336.1z M108.2,334.8v-1.5    c-0.3,0-0.6,0-1,0.1c-0.4,0-0.7,0.1-0.9,0.1c-0.3,0.1-0.5,0.2-0.6,0.3c-0.2,0.2-0.2,0.4-0.2,0.7c0,0.3,0.1,0.5,0.3,0.7    c0.2,0.2,0.5,0.2,0.9,0.2c0.3,0,0.6-0.1,0.9-0.2C107.7,335.1,107.9,335,108.2,334.8z"/>
		<path d="M114.3,331.7L114.3,331.7c-0.2,0-0.3-0.1-0.4-0.1c-0.1,0-0.3,0-0.5,0c-0.3,0-0.6,0.1-0.8,0.2c-0.3,0.1-0.5,0.3-0.8,0.5    v3.9h-0.9v-5.5h0.9v0.8c0.4-0.3,0.7-0.5,1-0.6s0.6-0.2,0.9-0.2c0.2,0,0.3,0,0.3,0c0.1,0,0.2,0,0.3,0V331.7z"/>
	</g>
	<g>
		<rect x="153.6" y="359.1" style="fill-rule:evenodd;clip-rule:evenodd;fill:none;" width="62" height="31"/>
		<path d="M167,367.6c0,0.3-0.1,0.6-0.2,0.8s-0.3,0.5-0.6,0.7c-0.3,0.2-0.6,0.4-0.9,0.5s-0.8,0.2-1.3,0.2c-0.5,0-1,0-1.4-0.1    s-0.8-0.2-1.3-0.4V368h0.1c0.4,0.3,0.8,0.5,1.3,0.7s0.9,0.2,1.4,0.2c0.6,0,1.1-0.1,1.4-0.3s0.5-0.5,0.5-0.9c0-0.3-0.1-0.6-0.2-0.7    s-0.4-0.3-0.7-0.4c-0.2-0.1-0.5-0.1-0.8-0.2s-0.6-0.1-0.9-0.2c-0.6-0.1-1.1-0.4-1.4-0.7c-0.3-0.3-0.5-0.8-0.5-1.3    c0-0.6,0.3-1.1,0.8-1.5c0.5-0.4,1.2-0.6,2-0.6c0.5,0,1,0,1.4,0.1s0.8,0.2,1.1,0.4v1.1h-0.1c-0.3-0.2-0.6-0.4-1.1-0.6    c-0.5-0.2-0.9-0.2-1.4-0.2c-0.5,0-0.9,0.1-1.2,0.3s-0.5,0.5-0.5,0.8c0,0.3,0.1,0.5,0.2,0.7s0.4,0.3,0.8,0.4c0.2,0,0.5,0.1,0.9,0.2    s0.7,0.1,1,0.2c0.5,0.1,0.9,0.4,1.2,0.6S167,367.1,167,367.6z"/>
		<path d="M173.1,366.9c0,0.9-0.2,1.6-0.7,2.1s-1.1,0.8-1.8,0.8c-0.8,0-1.4-0.3-1.8-0.8s-0.7-1.2-0.7-2.1s0.2-1.6,0.7-2.1    c0.5-0.5,1.1-0.8,1.8-0.8c0.8,0,1.4,0.3,1.8,0.8C172.9,365.3,173.1,366,173.1,366.9z M172.1,366.9c0-0.7-0.1-1.2-0.4-1.6    c-0.3-0.3-0.7-0.5-1.2-0.5c-0.5,0-0.9,0.2-1.2,0.5c-0.3,0.3-0.4,0.9-0.4,1.6c0,0.7,0.1,1.2,0.4,1.6c0.3,0.4,0.7,0.5,1.2,0.5    c0.5,0,0.9-0.2,1.1-0.5C172,368.1,172.1,367.6,172.1,366.9z"/>
		<path d="M177.9,365.2L177.9,365.2c-0.2,0-0.3-0.1-0.4-0.1c-0.1,0-0.3,0-0.5,0c-0.3,0-0.6,0.1-0.8,0.2c-0.3,0.1-0.5,0.3-0.8,0.5    v3.9h-0.9v-5.5h0.9v0.8c0.4-0.3,0.7-0.5,1-0.6c0.3-0.1,0.6-0.2,0.9-0.2c0.2,0,0.3,0,0.3,0c0.1,0,0.2,0,0.3,0V365.2z"/>
		<path d="M182.8,369.7h-0.9v-0.6c-0.1,0.1-0.2,0.1-0.3,0.2c-0.1,0.1-0.3,0.2-0.4,0.2c-0.2,0.1-0.3,0.1-0.5,0.2    c-0.2,0-0.4,0.1-0.7,0.1c-0.5,0-0.9-0.2-1.3-0.5s-0.5-0.7-0.5-1.2c0-0.4,0.1-0.7,0.3-1c0.2-0.3,0.4-0.5,0.8-0.6    c0.3-0.1,0.7-0.2,1.2-0.3s1-0.1,1.5-0.1v-0.1c0-0.2,0-0.4-0.1-0.5s-0.2-0.2-0.3-0.3c-0.1-0.1-0.3-0.1-0.5-0.2s-0.4,0-0.6,0    c-0.2,0-0.5,0-0.8,0.1c-0.3,0.1-0.6,0.2-0.9,0.3h0v-0.9c0.2,0,0.4-0.1,0.8-0.2s0.7-0.1,1-0.1c0.4,0,0.7,0,1,0.1    c0.3,0.1,0.5,0.2,0.7,0.3c0.2,0.1,0.4,0.3,0.5,0.6s0.2,0.5,0.2,0.9V369.7z M181.9,368.3v-1.5c-0.3,0-0.6,0-1,0.1s-0.7,0.1-0.9,0.1    c-0.3,0.1-0.5,0.2-0.6,0.3c-0.2,0.2-0.2,0.4-0.2,0.7c0,0.3,0.1,0.5,0.3,0.7c0.2,0.2,0.5,0.2,0.9,0.2c0.3,0,0.6-0.1,0.9-0.2    C181.4,368.6,181.7,368.5,181.9,368.3z"/>
		<path d="M185.5,369.7h-0.9v-7.6h0.9V369.7z"/>
		<path d="M191.9,369.7H191V369c-0.3,0.2-0.6,0.4-0.9,0.6s-0.6,0.2-0.9,0.2c-0.6,0-1-0.2-1.3-0.5c-0.3-0.4-0.5-0.9-0.5-1.5v-3.5h0.9    v3.1c0,0.3,0,0.5,0,0.7c0,0.2,0.1,0.4,0.2,0.5c0.1,0.1,0.2,0.2,0.3,0.3s0.3,0.1,0.6,0.1c0.2,0,0.5-0.1,0.8-0.2s0.5-0.3,0.8-0.5    v-4.1h0.9V369.7z"/>
		<path d="M197.6,369.7h-4.4V369l3.2-4h-3.1v-0.8h4.3v0.7l-3.2,4h3.3V369.7z"/>
		<path d="M203.4,367h-4c0,0.3,0.1,0.6,0.2,0.9c0.1,0.3,0.2,0.5,0.4,0.6c0.2,0.2,0.4,0.3,0.6,0.4s0.5,0.1,0.8,0.1    c0.4,0,0.7-0.1,1.1-0.2c0.4-0.1,0.6-0.3,0.8-0.4h0v1c-0.3,0.1-0.6,0.2-0.9,0.3s-0.7,0.1-1,0.1c-0.9,0-1.6-0.2-2.1-0.7    c-0.5-0.5-0.8-1.2-0.8-2.1c0-0.9,0.2-1.6,0.7-2.1s1.1-0.8,1.9-0.8c0.7,0,1.3,0.2,1.7,0.6s0.6,1,0.6,1.8V367z M202.5,366.3    c0-0.5-0.1-0.9-0.4-1.1s-0.6-0.4-1.1-0.4c-0.5,0-0.9,0.1-1.2,0.4s-0.5,0.6-0.5,1.1H202.5z"/>
		<path d="M207.7,366.9h-3V366h3V366.9z"/>
		<path d="M159.3,374.6c0,0.3-0.1,0.6-0.2,0.9c-0.1,0.3-0.3,0.5-0.5,0.7c-0.3,0.3-0.5,0.4-0.9,0.6c-0.3,0.1-0.8,0.2-1.3,0.2h-1v2.7    h-1v-7.3h2c0.4,0,0.8,0,1.1,0.1c0.3,0.1,0.6,0.2,0.8,0.3c0.3,0.2,0.5,0.4,0.6,0.7S159.3,374.2,159.3,374.6z M158.3,374.6    c0-0.3,0-0.5-0.1-0.7s-0.2-0.3-0.4-0.5c-0.2-0.1-0.3-0.2-0.5-0.2c-0.2,0-0.5-0.1-0.8-0.1h-1v2.9h0.8c0.4,0,0.7,0,1-0.1    c0.2-0.1,0.4-0.2,0.6-0.3c0.2-0.2,0.3-0.3,0.3-0.5S158.3,374.8,158.3,374.6z"/>
		<path d="M161.5,379.7h-0.9v-7.6h0.9V379.7z"/>
		<path d="M167.5,379.7h-0.9v-0.6c-0.1,0.1-0.2,0.1-0.3,0.2c-0.1,0.1-0.3,0.2-0.4,0.2c-0.2,0.1-0.3,0.1-0.5,0.2    c-0.2,0-0.4,0.1-0.7,0.1c-0.5,0-0.9-0.2-1.3-0.5s-0.5-0.7-0.5-1.2c0-0.4,0.1-0.7,0.3-1c0.2-0.3,0.4-0.5,0.8-0.6    c0.3-0.1,0.7-0.2,1.2-0.3s1-0.1,1.5-0.1v-0.1c0-0.2,0-0.4-0.1-0.5s-0.2-0.2-0.3-0.3c-0.1-0.1-0.3-0.1-0.5-0.2s-0.4,0-0.6,0    c-0.2,0-0.5,0-0.8,0.1c-0.3,0.1-0.6,0.2-0.9,0.3h0v-0.9c0.2,0,0.4-0.1,0.8-0.2s0.7-0.1,1-0.1c0.4,0,0.7,0,1,0.1    c0.3,0.1,0.5,0.2,0.7,0.3c0.2,0.1,0.4,0.3,0.5,0.6s0.2,0.5,0.2,0.9V379.7z M166.6,378.3v-1.5c-0.3,0-0.6,0-1,0.1s-0.7,0.1-0.9,0.1    c-0.3,0.1-0.5,0.2-0.6,0.3c-0.2,0.2-0.2,0.4-0.2,0.7c0,0.3,0.1,0.5,0.3,0.7c0.2,0.2,0.5,0.2,0.9,0.2c0.3,0,0.6-0.1,0.9-0.2    C166.1,378.6,166.4,378.5,166.6,378.3z"/>
		<path d="M173.3,379.3c-0.3,0.1-0.6,0.3-0.9,0.3s-0.6,0.1-0.9,0.1c-0.4,0-0.8-0.1-1.1-0.2c-0.3-0.1-0.6-0.3-0.8-0.5    c-0.2-0.2-0.4-0.5-0.6-0.9s-0.2-0.8-0.2-1.3c0-0.9,0.2-1.6,0.7-2.1s1.1-0.8,1.9-0.8c0.3,0,0.6,0,0.9,0.1s0.6,0.2,0.8,0.3v1h0    c-0.3-0.2-0.6-0.4-0.9-0.5s-0.6-0.2-0.9-0.2c-0.5,0-0.9,0.2-1.2,0.5c-0.3,0.3-0.5,0.9-0.5,1.5c0,0.7,0.1,1.2,0.4,1.5    c0.3,0.4,0.7,0.5,1.2,0.5c0.2,0,0.4,0,0.6-0.1s0.4-0.1,0.5-0.2c0.1-0.1,0.3-0.1,0.4-0.2c0.1-0.1,0.2-0.1,0.3-0.2h0V379.3z"/>
		<path d="M179.1,377h-4c0,0.3,0.1,0.6,0.2,0.9c0.1,0.3,0.2,0.5,0.4,0.6c0.2,0.2,0.4,0.3,0.6,0.4s0.5,0.1,0.8,0.1    c0.4,0,0.7-0.1,1.1-0.2c0.4-0.1,0.6-0.3,0.8-0.4h0v1c-0.3,0.1-0.6,0.2-0.9,0.3s-0.7,0.1-1,0.1c-0.9,0-1.6-0.2-2.1-0.7    c-0.5-0.5-0.8-1.2-0.8-2.1c0-0.9,0.2-1.6,0.7-2.1s1.1-0.8,1.9-0.8c0.7,0,1.3,0.2,1.7,0.6s0.6,1,0.6,1.8V377z M178.2,376.3    c0-0.5-0.1-0.9-0.4-1.1s-0.6-0.4-1.1-0.4c-0.5,0-0.9,0.1-1.2,0.4s-0.5,0.6-0.5,1.1H178.2z"/>
		<path d="M185,379.7h-0.9v-3.1c0-0.3,0-0.5,0-0.7c0-0.2-0.1-0.4-0.2-0.5c-0.1-0.1-0.2-0.2-0.4-0.3c-0.2-0.1-0.4-0.1-0.6-0.1    c-0.3,0-0.5,0.1-0.8,0.2s-0.5,0.3-0.8,0.5v4.1h-0.9v-5.5h0.9v0.6c0.3-0.2,0.6-0.4,0.9-0.6s0.6-0.2,0.9-0.2c0.6,0,1,0.2,1.3,0.5    s0.5,0.9,0.5,1.5V379.7z"/>
		<path d="M190.8,379.3c-0.3,0.1-0.6,0.3-0.9,0.3s-0.6,0.1-0.9,0.1c-0.4,0-0.8-0.1-1.1-0.2c-0.3-0.1-0.6-0.3-0.8-0.5    c-0.2-0.2-0.4-0.5-0.6-0.9s-0.2-0.8-0.2-1.3c0-0.9,0.2-1.6,0.7-2.1s1.1-0.8,1.9-0.8c0.3,0,0.6,0,0.9,0.1s0.6,0.2,0.8,0.3v1h0    c-0.3-0.2-0.6-0.4-0.9-0.5s-0.6-0.2-0.9-0.2c-0.5,0-0.9,0.2-1.2,0.5c-0.3,0.3-0.5,0.9-0.5,1.5c0,0.7,0.1,1.2,0.4,1.5    c0.3,0.4,0.7,0.5,1.2,0.5c0.2,0,0.4,0,0.6-0.1s0.4-0.1,0.5-0.2c0.1-0.1,0.3-0.1,0.4-0.2c0.1-0.1,0.2-0.1,0.3-0.2h0V379.3z"/>
		<path d="M193,373.3h-1v-1h1V373.3z M192.9,379.7H192v-5.5h0.9V379.7z"/>
		<path d="M199,379.7h-0.9v-0.6c-0.1,0.1-0.2,0.1-0.3,0.2c-0.1,0.1-0.3,0.2-0.4,0.2c-0.2,0.1-0.3,0.1-0.5,0.2    c-0.2,0-0.4,0.1-0.7,0.1c-0.5,0-0.9-0.2-1.3-0.5s-0.5-0.7-0.5-1.2c0-0.4,0.1-0.7,0.3-1c0.2-0.3,0.4-0.5,0.8-0.6    c0.3-0.1,0.7-0.2,1.2-0.3s1-0.1,1.5-0.1v-0.1c0-0.2,0-0.4-0.1-0.5s-0.2-0.2-0.3-0.3c-0.1-0.1-0.3-0.1-0.5-0.2s-0.4,0-0.6,0    c-0.2,0-0.5,0-0.8,0.1c-0.3,0.1-0.6,0.2-0.9,0.3h0v-0.9c0.2,0,0.4-0.1,0.8-0.2s0.7-0.1,1-0.1c0.4,0,0.7,0,1,0.1    c0.3,0.1,0.5,0.2,0.7,0.3c0.2,0.1,0.4,0.3,0.5,0.6s0.2,0.5,0.2,0.9V379.7z M198.1,378.3v-1.5c-0.3,0-0.6,0-1,0.1s-0.7,0.1-0.9,0.1    c-0.3,0.1-0.5,0.2-0.6,0.3c-0.2,0.2-0.2,0.4-0.2,0.7c0,0.3,0.1,0.5,0.3,0.7c0.2,0.2,0.5,0.2,0.9,0.2c0.3,0,0.6-0.1,0.9-0.2    C197.6,378.6,197.8,378.5,198.1,378.3z"/>
		<path d="M208.7,379.7h-0.9v-0.6c-0.3,0.2-0.5,0.4-0.8,0.5s-0.6,0.2-0.9,0.2c-0.7,0-1.2-0.3-1.6-0.8s-0.6-1.2-0.6-2.1    c0-0.5,0.1-0.9,0.2-1.2s0.3-0.7,0.5-0.9c0.2-0.2,0.5-0.4,0.8-0.6s0.6-0.2,0.9-0.2c0.3,0,0.5,0,0.8,0.1c0.2,0.1,0.5,0.2,0.7,0.3    v-2.4h0.9V379.7z M207.8,378.3v-3.1c-0.2-0.1-0.5-0.2-0.7-0.2s-0.4-0.1-0.6-0.1c-0.5,0-0.9,0.2-1.2,0.5s-0.4,0.9-0.4,1.5    c0,0.6,0.1,1.1,0.3,1.5c0.2,0.3,0.6,0.5,1.1,0.5c0.3,0,0.5-0.1,0.8-0.2C207.3,378.6,207.5,378.5,207.8,378.3z"/>
		<path d="M215.1,377h-4c0,0.3,0.1,0.6,0.2,0.9c0.1,0.3,0.2,0.5,0.4,0.6c0.2,0.2,0.4,0.3,0.6,0.4s0.5,0.1,0.8,0.1    c0.4,0,0.7-0.1,1.1-0.2c0.4-0.1,0.6-0.3,0.8-0.4h0v1c-0.3,0.1-0.6,0.2-0.9,0.3s-0.7,0.1-1,0.1c-0.9,0-1.6-0.2-2.1-0.7    c-0.5-0.5-0.8-1.2-0.8-2.1c0-0.9,0.2-1.6,0.7-2.1s1.1-0.8,1.9-0.8c0.7,0,1.3,0.2,1.7,0.6s0.6,1,0.6,1.8V377z M214.2,376.3    c0-0.5-0.1-0.9-0.4-1.1s-0.6-0.4-1.1-0.4c-0.5,0-0.9,0.1-1.2,0.4s-0.5,0.6-0.5,1.1H214.2z"/>
		<path d="M164,389.7h-4.6v-7.3h1v6.4h3.6V389.7z"/>
		<path d="M169.1,389.7h-0.9v-0.6c-0.1,0.1-0.2,0.1-0.3,0.2c-0.1,0.1-0.3,0.2-0.4,0.2c-0.2,0.1-0.3,0.1-0.5,0.2    c-0.2,0-0.4,0.1-0.7,0.1c-0.5,0-0.9-0.2-1.3-0.5s-0.5-0.7-0.5-1.2c0-0.4,0.1-0.7,0.3-1c0.2-0.3,0.4-0.5,0.8-0.6    c0.3-0.1,0.7-0.2,1.2-0.3s1-0.1,1.5-0.1v-0.1c0-0.2,0-0.4-0.1-0.5s-0.2-0.2-0.3-0.3c-0.1-0.1-0.3-0.1-0.5-0.2s-0.4,0-0.6,0    c-0.2,0-0.5,0-0.8,0.1c-0.3,0.1-0.6,0.2-0.9,0.3h0v-0.9c0.2,0,0.4-0.1,0.8-0.2s0.7-0.1,1-0.1c0.4,0,0.7,0,1,0.1    c0.3,0.1,0.5,0.2,0.7,0.3c0.2,0.1,0.4,0.3,0.5,0.6s0.2,0.5,0.2,0.9V389.7z M168.2,388.3v-1.5c-0.3,0-0.6,0-1,0.1s-0.7,0.1-0.9,0.1    c-0.3,0.1-0.5,0.2-0.6,0.3c-0.2,0.2-0.2,0.4-0.2,0.7c0,0.3,0.1,0.5,0.3,0.7c0.2,0.2,0.5,0.2,0.9,0.2c0.3,0,0.6-0.1,0.9-0.2    C167.7,388.6,168,388.5,168.2,388.3z"/>
		<path d="M174.8,388.1c0,0.5-0.2,0.9-0.6,1.2s-1,0.5-1.7,0.5c-0.4,0-0.8,0-1.1-0.1c-0.3-0.1-0.6-0.2-0.8-0.3v-1h0    c0.3,0.2,0.6,0.4,1,0.5c0.4,0.1,0.7,0.2,1,0.2c0.4,0,0.7-0.1,0.9-0.2s0.3-0.3,0.3-0.6c0-0.2-0.1-0.4-0.2-0.5s-0.4-0.2-0.7-0.3    c-0.1,0-0.3-0.1-0.5-0.1s-0.4-0.1-0.6-0.1c-0.5-0.1-0.8-0.3-1-0.6c-0.2-0.2-0.3-0.5-0.3-0.9c0-0.2,0-0.4,0.1-0.6s0.2-0.4,0.4-0.5    c0.2-0.2,0.4-0.3,0.7-0.4c0.3-0.1,0.6-0.1,0.9-0.1c0.3,0,0.7,0,1,0.1c0.3,0.1,0.6,0.2,0.8,0.3v1h0c-0.2-0.2-0.5-0.3-0.9-0.4    c-0.3-0.1-0.7-0.2-1-0.2c-0.3,0-0.6,0.1-0.8,0.2c-0.2,0.1-0.3,0.3-0.3,0.6c0,0.2,0.1,0.4,0.2,0.5c0.1,0.1,0.4,0.2,0.7,0.3    c0.2,0,0.4,0.1,0.6,0.1s0.4,0.1,0.5,0.1c0.4,0.1,0.8,0.3,1,0.5C174.7,387.4,174.8,387.7,174.8,388.1z"/>
		<path d="M185.4,389.7h-1l-0.7-2h-3.1l-0.7,2h-1l2.6-7.3h1.3L185.4,389.7z M183.4,386.8l-1.3-3.6l-1.3,3.6H183.4z"/>
		<path d="M189.8,385.2L189.8,385.2c-0.2,0-0.3-0.1-0.4-0.1c-0.1,0-0.3,0-0.5,0c-0.3,0-0.6,0.1-0.8,0.2c-0.3,0.1-0.5,0.3-0.8,0.5    v3.9h-0.9v-5.5h0.9v0.8c0.4-0.3,0.7-0.5,1-0.6c0.3-0.1,0.6-0.2,0.9-0.2c0.2,0,0.3,0,0.3,0c0.1,0,0.2,0,0.3,0V385.2z"/>
		<path d="M198.7,389.7h-0.9v-3.1c0-0.2,0-0.5,0-0.7s-0.1-0.4-0.1-0.5c-0.1-0.1-0.2-0.2-0.3-0.3s-0.3-0.1-0.6-0.1    c-0.3,0-0.5,0.1-0.8,0.2c-0.3,0.1-0.5,0.3-0.8,0.5c0,0.1,0,0.2,0,0.3c0,0.1,0,0.2,0,0.3v3.5h-0.9v-3.1c0-0.2,0-0.5,0-0.7    c0-0.2-0.1-0.4-0.1-0.5c-0.1-0.1-0.2-0.2-0.3-0.3c-0.1-0.1-0.3-0.1-0.6-0.1c-0.3,0-0.5,0.1-0.8,0.2s-0.5,0.3-0.8,0.5v4.1h-0.9    v-5.5h0.9v0.6c0.3-0.2,0.6-0.4,0.9-0.6s0.6-0.2,0.9-0.2c0.4,0,0.7,0.1,0.9,0.2s0.5,0.4,0.6,0.6c0.4-0.3,0.7-0.5,1-0.7    c0.3-0.1,0.6-0.2,1-0.2c0.6,0,1,0.2,1.3,0.5c0.3,0.4,0.4,0.9,0.4,1.5V389.7z"/>
		<path d="M204.7,389.7h-0.9v-0.6c-0.1,0.1-0.2,0.1-0.3,0.2c-0.1,0.1-0.3,0.2-0.4,0.2c-0.2,0.1-0.3,0.1-0.5,0.2    c-0.2,0-0.4,0.1-0.7,0.1c-0.5,0-0.9-0.2-1.3-0.5s-0.5-0.7-0.5-1.2c0-0.4,0.1-0.7,0.3-1c0.2-0.3,0.4-0.5,0.8-0.6    c0.3-0.1,0.7-0.2,1.2-0.3s1-0.1,1.5-0.1v-0.1c0-0.2,0-0.4-0.1-0.5s-0.2-0.2-0.3-0.3c-0.1-0.1-0.3-0.1-0.5-0.2s-0.4,0-0.6,0    c-0.2,0-0.5,0-0.8,0.1c-0.3,0.1-0.6,0.2-0.9,0.3h0v-0.9c0.2,0,0.4-0.1,0.8-0.2s0.7-0.1,1-0.1c0.4,0,0.7,0,1,0.1    c0.3,0.1,0.5,0.2,0.7,0.3c0.2,0.1,0.4,0.3,0.5,0.6s0.2,0.5,0.2,0.9V389.7z M203.8,388.3v-1.5c-0.3,0-0.6,0-1,0.1s-0.7,0.1-0.9,0.1    c-0.3,0.1-0.5,0.2-0.6,0.3c-0.2,0.2-0.2,0.4-0.2,0.7c0,0.3,0.1,0.5,0.3,0.7c0.2,0.2,0.5,0.2,0.9,0.2c0.3,0,0.6-0.1,0.9-0.2    C203.3,388.6,203.5,388.5,203.8,388.3z"/>
		<path d="M210.3,388.1c0,0.5-0.2,0.9-0.6,1.2s-1,0.5-1.7,0.5c-0.4,0-0.8,0-1.1-0.1c-0.3-0.1-0.6-0.2-0.8-0.3v-1h0    c0.3,0.2,0.6,0.4,1,0.5c0.4,0.1,0.7,0.2,1,0.2c0.4,0,0.7-0.1,0.9-0.2s0.3-0.3,0.3-0.6c0-0.2-0.1-0.4-0.2-0.5s-0.4-0.2-0.7-0.3    c-0.1,0-0.3-0.1-0.5-0.1s-0.4-0.1-0.6-0.1c-0.5-0.1-0.8-0.3-1-0.6c-0.2-0.2-0.3-0.5-0.3-0.9c0-0.2,0-0.4,0.1-0.6s0.2-0.4,0.4-0.5    c0.2-0.2,0.4-0.3,0.7-0.4c0.3-0.1,0.6-0.1,0.9-0.1c0.3,0,0.7,0,1,0.1c0.3,0.1,0.6,0.2,0.8,0.3v1h0c-0.2-0.2-0.5-0.3-0.9-0.4    c-0.3-0.1-0.7-0.2-1-0.2c-0.3,0-0.6,0.1-0.8,0.2c-0.2,0.1-0.3,0.3-0.3,0.6c0,0.2,0.1,0.4,0.2,0.5c0.1,0.1,0.4,0.2,0.7,0.3    c0.2,0,0.4,0.1,0.6,0.1s0.4,0.1,0.5,0.1c0.4,0.1,0.8,0.3,1,0.5C210.2,387.4,210.3,387.7,210.3,388.1z"/>
	</g>
</g>
<g id="text_x005F_exterior">
	<g>
		<rect x="43.9" y="147.4" style="fill-rule:evenodd;clip-rule:evenodd;fill:none;" width="69" height="23.8"/>
		<path d="M60,150.8l-2.7,7.3h-2.1l-2.7-7.3h2l1.8,5.1l1.8-5.1H60z"/>
		<path d="M62.8,151.8h-1.9v-1.3h1.9V151.8z M62.7,158.1h-1.8v-5.5h1.8V158.1z"/>
		<path d="M69.1,158.1h-5.2V157l2.9-3.1h-2.8v-1.3h5v1.1l-2.8,3.1h2.9V158.1z"/>
		<path d="M76.1,158.1h-2l-1.5-2.4l-0.5,0.6v1.8h-1.8v-7.6h1.8v4.5l1.9-2.4h2l-2,2.4L76.1,158.1z"/>
		<path d="M80.4,157.5c-0.1,0.1-0.2,0.2-0.4,0.3s-0.3,0.2-0.4,0.2c-0.2,0.1-0.4,0.1-0.5,0.2s-0.4,0.1-0.6,0.1c-0.5,0-1-0.2-1.3-0.5    s-0.5-0.7-0.5-1.2c0-0.4,0.1-0.7,0.3-1s0.4-0.5,0.8-0.6c0.3-0.1,0.7-0.3,1.2-0.3s1-0.1,1.5-0.1v0c0-0.3-0.1-0.5-0.4-0.6    s-0.6-0.2-1.1-0.2c-0.3,0-0.6,0.1-0.9,0.2s-0.6,0.2-0.7,0.2h-0.2v-1.3c0.2,0,0.5-0.1,0.9-0.2s0.8-0.1,1.3-0.1c1,0,1.7,0.2,2.2,0.5    s0.7,0.8,0.7,1.4v3.7h-1.7V157.5z M80.4,156.7v-1.1c-0.2,0-0.5,0-0.8,0.1c-0.3,0-0.5,0.1-0.6,0.1c-0.2,0.1-0.3,0.1-0.4,0.2    s-0.1,0.2-0.1,0.4c0,0.1,0,0.2,0,0.3c0,0.1,0.1,0.1,0.1,0.2c0.1,0.1,0.2,0.1,0.3,0.1s0.3,0,0.5,0c0.2,0,0.4,0,0.5-0.1    S80.2,156.8,80.4,156.7z"/>
		<path d="M86.2,156.2l1.3-3.5h1.8l-3,7.5h-1.9l0.9-2.1l-2.1-5.4h1.8L86.2,156.2z"/>
		<path d="M93.5,157.5c-0.1,0.1-0.2,0.2-0.4,0.3s-0.3,0.2-0.4,0.2c-0.2,0.1-0.4,0.1-0.5,0.2s-0.4,0.1-0.6,0.1c-0.5,0-1-0.2-1.3-0.5    s-0.5-0.7-0.5-1.2c0-0.4,0.1-0.7,0.3-1s0.4-0.5,0.8-0.6c0.3-0.1,0.7-0.3,1.2-0.3s1-0.1,1.5-0.1v0c0-0.3-0.1-0.5-0.4-0.6    s-0.6-0.2-1.1-0.2c-0.3,0-0.6,0.1-0.9,0.2s-0.6,0.2-0.7,0.2h-0.2v-1.3c0.2,0,0.5-0.1,0.9-0.2s0.8-0.1,1.3-0.1c1,0,1.7,0.2,2.2,0.5    s0.7,0.8,0.7,1.4v3.7h-1.7V157.5z M93.5,156.7v-1.1c-0.2,0-0.5,0-0.8,0.1c-0.3,0-0.5,0.1-0.6,0.1c-0.2,0.1-0.3,0.1-0.4,0.2    s-0.1,0.2-0.1,0.4c0,0.1,0,0.2,0,0.3c0,0.1,0.1,0.1,0.1,0.2c0.1,0.1,0.2,0.1,0.3,0.1s0.3,0,0.5,0c0.2,0,0.4,0,0.5-0.1    S93.4,156.8,93.5,156.7z"/>
		<path d="M103.8,155.6H100v-1.4h3.7V155.6z"/>
		<path d="M65.3,166.9c0,0.4-0.1,0.7-0.2,0.9c-0.1,0.3-0.3,0.5-0.6,0.7c-0.3,0.2-0.6,0.4-0.9,0.5c-0.3,0.1-0.8,0.1-1.3,0.1h-3.2    v-7.3h2.8c0.6,0,1,0,1.3,0.1s0.5,0.1,0.8,0.3c0.3,0.1,0.5,0.3,0.6,0.6c0.1,0.2,0.2,0.5,0.2,0.8c0,0.4-0.1,0.7-0.3,0.9    s-0.4,0.5-0.8,0.6v0c0.5,0.1,0.9,0.3,1.1,0.6C65.1,166,65.3,166.4,65.3,166.9z M62.9,163.9c0-0.1,0-0.2-0.1-0.4    c-0.1-0.1-0.2-0.2-0.3-0.3c-0.1-0.1-0.3-0.1-0.5-0.1s-0.5,0-0.9,0h-0.2v1.5h0.3c0.3,0,0.5,0,0.8,0s0.4,0,0.5-0.1    c0.2-0.1,0.3-0.2,0.3-0.3C62.9,164.2,62.9,164.1,62.9,163.9z M63.3,166.9c0-0.2,0-0.4-0.1-0.5c-0.1-0.1-0.2-0.2-0.5-0.3    c-0.1,0-0.3-0.1-0.6-0.1c-0.3,0-0.5,0-0.8,0h-0.4v1.8h0.1c0.5,0,0.9,0,1.1,0c0.2,0,0.4,0,0.6-0.1c0.2-0.1,0.3-0.2,0.4-0.3    C63.3,167.2,63.3,167,63.3,166.9z"/>
		<path d="M68.4,162.9h-1.9v-1.3h1.9V162.9z M68.3,169.1h-1.8v-5.5h1.8V169.1z"/>
		<path d="M74.7,169.1h-5.2V168l2.9-3.1h-2.8v-1.3h5v1.1l-2.8,3.1h2.9V169.1z"/>
		<path d="M81.8,169.1h-2l-1.5-2.4l-0.5,0.6v1.8H76v-7.6h1.8v4.5l1.9-2.4h2l-2,2.4L81.8,169.1z"/>
		<path d="M86,168.5c-0.1,0.1-0.2,0.2-0.4,0.3c-0.1,0.1-0.3,0.2-0.4,0.2c-0.2,0.1-0.4,0.1-0.5,0.2c-0.2,0-0.4,0.1-0.6,0.1    c-0.5,0-1-0.2-1.3-0.5s-0.5-0.7-0.5-1.2c0-0.4,0.1-0.7,0.3-1s0.4-0.5,0.8-0.6c0.3-0.1,0.7-0.3,1.2-0.3c0.5-0.1,1-0.1,1.5-0.1v0    c0-0.3-0.1-0.5-0.4-0.6c-0.2-0.1-0.6-0.2-1.1-0.2c-0.3,0-0.6,0.1-0.9,0.2s-0.6,0.2-0.7,0.2h-0.2v-1.3c0.2,0,0.5-0.1,0.9-0.2    c0.4-0.1,0.8-0.1,1.3-0.1c1,0,1.7,0.2,2.2,0.5s0.7,0.8,0.7,1.4v3.7H86V168.5z M86,167.7v-1.1c-0.2,0-0.5,0-0.8,0.1    s-0.5,0.1-0.6,0.1c-0.2,0.1-0.3,0.1-0.4,0.2s-0.1,0.2-0.1,0.4c0,0.1,0,0.2,0,0.3s0.1,0.1,0.1,0.2c0.1,0.1,0.2,0.1,0.3,0.1    s0.3,0,0.5,0c0.2,0,0.4,0,0.5-0.1C85.7,167.9,85.9,167.8,86,167.7z"/>
		<path d="M91.2,162.9h-1.9v-1.3h1.9V162.9z M91.1,169.1h-1.8v-5.5h1.8V169.1z"/>
		<path d="M96.1,168.5c-0.1,0.1-0.2,0.2-0.4,0.3c-0.1,0.1-0.3,0.2-0.4,0.2c-0.2,0.1-0.4,0.1-0.5,0.2c-0.2,0-0.4,0.1-0.6,0.1    c-0.5,0-1-0.2-1.3-0.5s-0.5-0.7-0.5-1.2c0-0.4,0.1-0.7,0.3-1s0.4-0.5,0.8-0.6c0.3-0.1,0.7-0.3,1.2-0.3c0.5-0.1,1-0.1,1.5-0.1v0    c0-0.3-0.1-0.5-0.4-0.6c-0.2-0.1-0.6-0.2-1.1-0.2c-0.3,0-0.6,0.1-0.9,0.2s-0.6,0.2-0.7,0.2h-0.2v-1.3c0.2,0,0.5-0.1,0.9-0.2    c0.4-0.1,0.8-0.1,1.3-0.1c1,0,1.7,0.2,2.2,0.5s0.7,0.8,0.7,1.4v3.7h-1.7V168.5z M96.1,167.7v-1.1c-0.2,0-0.5,0-0.8,0.1    s-0.5,0.1-0.6,0.1c-0.2,0.1-0.3,0.1-0.4,0.2s-0.1,0.2-0.1,0.4c0,0.1,0,0.2,0,0.3s0.1,0.1,0.1,0.2c0.1,0.1,0.2,0.1,0.3,0.1    s0.3,0,0.5,0c0.2,0,0.4,0,0.5-0.1C95.8,167.9,96,167.8,96.1,167.7z"/>
	</g>
	<g>
		<rect x="327.8" y="353.6" style="fill-rule:evenodd;clip-rule:evenodd;fill:none;" width="66.2" height="11"/>
		<path d="M335.6,361.7c0,0.9-0.3,1.6-0.8,2.1s-1.4,0.7-2.4,0.7s-1.9-0.2-2.4-0.7c-0.5-0.5-0.8-1.2-0.8-2.1v-4.6h1.9v4.5    c0,0.5,0.1,0.9,0.3,1.1s0.6,0.4,1,0.4c0.5,0,0.8-0.1,1-0.4c0.2-0.2,0.3-0.6,0.3-1.1v-4.5h1.9V361.7z"/>
		<path d="M341.2,360.6H341c-0.1,0-0.2,0-0.4-0.1s-0.3,0-0.4,0c-0.3,0-0.5,0-0.7,0c-0.2,0-0.4,0.1-0.6,0.2v3.7h-1.8v-5.5h1.8v0.8    c0.4-0.3,0.7-0.6,1-0.7c0.3-0.1,0.5-0.2,0.8-0.2c0.1,0,0.1,0,0.2,0c0.1,0,0.1,0,0.2,0V360.6z"/>
		<path d="M347.8,361.6c0,0.9-0.3,1.6-0.8,2.1c-0.5,0.5-1.3,0.8-2.2,0.8s-1.7-0.3-2.2-0.8c-0.5-0.5-0.8-1.2-0.8-2.1    c0-0.9,0.3-1.6,0.8-2.1c0.5-0.5,1.3-0.8,2.2-0.8c1,0,1.7,0.3,2.2,0.8C347.5,360,347.8,360.7,347.8,361.6z M345.6,363    c0.1-0.1,0.2-0.3,0.3-0.5c0.1-0.2,0.1-0.5,0.1-0.8c0-0.3,0-0.6-0.1-0.8s-0.1-0.4-0.2-0.5c-0.1-0.1-0.2-0.2-0.4-0.3    s-0.3-0.1-0.5-0.1s-0.3,0-0.5,0.1c-0.1,0-0.3,0.1-0.4,0.3c-0.1,0.1-0.2,0.3-0.3,0.5c-0.1,0.2-0.1,0.5-0.1,0.8c0,0.3,0,0.6,0.1,0.8    c0.1,0.2,0.1,0.4,0.2,0.5c0.1,0.1,0.2,0.2,0.4,0.3c0.1,0.1,0.3,0.1,0.5,0.1c0.2,0,0.3,0,0.5-0.1    C345.4,363.2,345.5,363.1,345.6,363z"/>
		<path d="M350.8,364.4h-1.8v-7.6h1.8V364.4z"/>
		<path d="M355.8,363.8c-0.1,0.1-0.2,0.2-0.4,0.3s-0.3,0.2-0.4,0.2c-0.2,0.1-0.4,0.1-0.5,0.2c-0.2,0-0.4,0.1-0.6,0.1    c-0.5,0-1-0.2-1.3-0.5s-0.5-0.7-0.5-1.2c0-0.4,0.1-0.7,0.3-1s0.4-0.5,0.8-0.6c0.3-0.1,0.7-0.3,1.2-0.3s1-0.1,1.5-0.1v0    c0-0.3-0.1-0.5-0.4-0.6c-0.2-0.1-0.6-0.2-1.1-0.2c-0.3,0-0.6,0.1-0.9,0.2c-0.3,0.1-0.6,0.2-0.7,0.2h-0.2V359    c0.2,0,0.5-0.1,0.9-0.2c0.4-0.1,0.8-0.1,1.3-0.1c1,0,1.7,0.2,2.2,0.5c0.4,0.3,0.7,0.8,0.7,1.4v3.7h-1.7V363.8z M355.8,362.9v-1.1    c-0.2,0-0.5,0-0.8,0.1s-0.5,0.1-0.6,0.1c-0.2,0.1-0.3,0.1-0.4,0.2c-0.1,0.1-0.1,0.2-0.1,0.4c0,0.1,0,0.2,0,0.3s0.1,0.1,0.1,0.2    c0.1,0.1,0.2,0.1,0.3,0.1c0.1,0,0.3,0,0.5,0c0.2,0,0.4,0,0.5-0.1C355.5,363.1,355.7,363,355.8,362.9z"/>
		<path d="M369.5,364.4h-2.3l-2.2-2.9l-0.4,0.5v2.4h-1.9v-7.3h1.9v3.3l2.6-3.3h2.2l-2.8,3.4L369.5,364.4z"/>
		<path d="M375.9,361.6c0,0.9-0.3,1.6-0.8,2.1c-0.5,0.5-1.3,0.8-2.2,0.8s-1.7-0.3-2.2-0.8c-0.5-0.5-0.8-1.2-0.8-2.1    c0-0.9,0.3-1.6,0.8-2.1c0.5-0.5,1.3-0.8,2.2-0.8c1,0,1.7,0.3,2.2,0.8C375.6,360,375.9,360.7,375.9,361.6z M373.7,363    c0.1-0.1,0.2-0.3,0.3-0.5c0.1-0.2,0.1-0.5,0.1-0.8c0-0.3,0-0.6-0.1-0.8s-0.1-0.4-0.2-0.5c-0.1-0.1-0.2-0.2-0.4-0.3    s-0.3-0.1-0.5-0.1s-0.3,0-0.5,0.1c-0.1,0-0.3,0.1-0.4,0.3c-0.1,0.1-0.2,0.3-0.3,0.5c-0.1,0.2-0.1,0.5-0.1,0.8c0,0.3,0,0.6,0.1,0.8    c0.1,0.2,0.1,0.4,0.2,0.5c0.1,0.1,0.2,0.2,0.4,0.3c0.1,0.1,0.3,0.1,0.5,0.1c0.2,0,0.3,0,0.5-0.1    C373.5,363.2,373.6,363.1,373.7,363z"/>
		<path d="M381.9,362.6c0,0.6-0.3,1-0.8,1.4c-0.5,0.3-1.2,0.5-2.1,0.5c-0.5,0-0.9,0-1.3-0.1s-0.7-0.2-1-0.3v-1.4h0.2    c0.1,0.1,0.2,0.1,0.3,0.2c0.1,0.1,0.3,0.2,0.5,0.2c0.2,0.1,0.4,0.1,0.6,0.2c0.2,0.1,0.5,0.1,0.7,0.1c0.3,0,0.6,0,0.8-0.1    c0.2-0.1,0.2-0.2,0.2-0.3c0-0.1,0-0.2-0.1-0.3c-0.1-0.1-0.3-0.1-0.6-0.2c-0.1,0-0.3-0.1-0.5-0.1c-0.2,0-0.4-0.1-0.6-0.1    c-0.5-0.1-0.9-0.3-1.1-0.6c-0.2-0.3-0.4-0.6-0.4-1c0-0.5,0.3-1,0.8-1.3c0.5-0.3,1.2-0.5,2-0.5c0.4,0,0.8,0,1.2,0.1    c0.4,0.1,0.7,0.2,0.9,0.3v1.4h-0.2c-0.3-0.2-0.6-0.3-0.9-0.4c-0.3-0.1-0.7-0.2-1-0.2c-0.3,0-0.5,0-0.7,0.1    c-0.2,0.1-0.3,0.2-0.3,0.3c0,0.1,0,0.2,0.1,0.3s0.3,0.1,0.6,0.2c0.2,0,0.4,0.1,0.6,0.1c0.2,0,0.4,0.1,0.6,0.1    c0.5,0.1,0.8,0.3,1,0.6C381.8,361.9,381.9,362.2,381.9,362.6z"/>
		<path d="M386.6,364.3c-0.2,0-0.4,0.1-0.6,0.1c-0.2,0-0.5,0-0.8,0c-0.7,0-1.2-0.1-1.5-0.4c-0.3-0.3-0.5-0.8-0.5-1.4v-2.6h-0.7v-1.2    h0.7v-1.6h1.8v1.6h1.6v1.2h-1.6v1.9c0,0.2,0,0.4,0,0.5s0,0.3,0.1,0.4c0,0.1,0.1,0.2,0.2,0.3c0.1,0.1,0.3,0.1,0.5,0.1    c0.1,0,0.2,0,0.4-0.1s0.3-0.1,0.3-0.1h0.1V364.3z"/>
		<path d="M391,363.8c-0.1,0.1-0.2,0.2-0.4,0.3s-0.3,0.2-0.4,0.2c-0.2,0.1-0.4,0.1-0.5,0.2c-0.2,0-0.4,0.1-0.6,0.1    c-0.5,0-1-0.2-1.3-0.5s-0.5-0.7-0.5-1.2c0-0.4,0.1-0.7,0.3-1s0.4-0.5,0.8-0.6c0.3-0.1,0.7-0.3,1.2-0.3s1-0.1,1.5-0.1v0    c0-0.3-0.1-0.5-0.4-0.6c-0.2-0.1-0.6-0.2-1.1-0.2c-0.3,0-0.6,0.1-0.9,0.2c-0.3,0.1-0.6,0.2-0.7,0.2h-0.2V359    c0.2,0,0.5-0.1,0.9-0.2c0.4-0.1,0.8-0.1,1.3-0.1c1,0,1.7,0.2,2.2,0.5c0.4,0.3,0.7,0.8,0.7,1.4v3.7H391V363.8z M391,362.9v-1.1    c-0.2,0-0.5,0-0.8,0.1s-0.5,0.1-0.6,0.1c-0.2,0.1-0.3,0.1-0.4,0.2c-0.1,0.1-0.1,0.2-0.1,0.4c0,0.1,0,0.2,0,0.3s0.1,0.1,0.1,0.2    c0.1,0.1,0.2,0.1,0.3,0.1c0.1,0,0.3,0,0.5,0c0.2,0,0.4,0,0.5-0.1C390.7,363.1,390.8,363,391,362.9z"/>
	</g>
	<g>
		<rect x="118" y="424.5" style="fill-rule:evenodd;clip-rule:evenodd;fill:none;" width="66.6" height="11"/>
		<path d="M125.9,431.6c0,0.7-0.2,1.3-0.5,1.8c-0.3,0.5-0.7,0.9-1.2,1.2c-0.4,0.2-0.7,0.4-1.2,0.4s-0.9,0.1-1.5,0.1H119V428h2.6    c0.6,0,1.1,0,1.5,0.1c0.4,0.1,0.8,0.2,1.1,0.4c0.5,0.3,0.9,0.7,1.2,1.2C125.8,430.3,125.9,430.9,125.9,431.6z M124,431.6    c0-0.5-0.1-0.9-0.3-1.2c-0.2-0.3-0.5-0.6-0.8-0.8c-0.2-0.1-0.4-0.2-0.6-0.2c-0.2,0-0.5-0.1-0.9-0.1h-0.5v4.6h0.5    c0.4,0,0.8,0,1-0.1c0.2,0,0.4-0.1,0.6-0.2c0.3-0.2,0.6-0.5,0.8-0.8C123.9,432.5,124,432.1,124,431.6z"/>
		<path d="M132.6,432.8h-4c0,0.4,0.2,0.8,0.5,1s0.7,0.3,1.3,0.3c0.4,0,0.7-0.1,1.1-0.2s0.6-0.3,0.8-0.4h0.2v1.4    c-0.4,0.2-0.8,0.3-1.1,0.3s-0.7,0.1-1.2,0.1c-1.1,0-1.9-0.2-2.5-0.7s-0.9-1.2-0.9-2.1c0-0.9,0.3-1.6,0.8-2.2    c0.6-0.5,1.3-0.8,2.3-0.8c0.9,0,1.6,0.2,2,0.7c0.4,0.5,0.7,1.1,0.7,1.9V432.8z M130.9,431.8c0-0.4-0.1-0.6-0.3-0.8    s-0.4-0.3-0.8-0.3c-0.3,0-0.6,0.1-0.8,0.3s-0.3,0.5-0.4,0.8H130.9z"/>
		<path d="M139.6,432.4c0,0.9-0.2,1.6-0.7,2.1c-0.5,0.5-1.1,0.8-1.8,0.8c-0.3,0-0.6,0-0.8-0.1s-0.5-0.2-0.7-0.3l-0.1,0.3h-1.7v-7.6    h1.8v2.7c0.3-0.2,0.5-0.4,0.8-0.5s0.6-0.2,1-0.2c0.7,0,1.2,0.3,1.6,0.7C139.4,430.8,139.6,431.5,139.6,432.4z M137.8,432.5    c0-0.5-0.1-0.9-0.2-1.1c-0.2-0.3-0.5-0.4-0.9-0.4c-0.2,0-0.3,0-0.5,0.1c-0.2,0.1-0.3,0.1-0.5,0.2v2.7c0.1,0,0.2,0.1,0.4,0.1    s0.3,0,0.4,0c0.5,0,0.8-0.1,1-0.4C137.7,433.4,137.8,433,137.8,432.5z"/>
		<path d="M144.2,434.7c-0.1,0.1-0.2,0.2-0.4,0.3s-0.3,0.2-0.4,0.2c-0.2,0.1-0.4,0.1-0.5,0.2c-0.2,0-0.4,0.1-0.6,0.1    c-0.5,0-1-0.2-1.3-0.5s-0.5-0.7-0.5-1.2c0-0.4,0.1-0.7,0.3-1s0.4-0.5,0.8-0.6c0.3-0.1,0.7-0.3,1.2-0.3s1-0.1,1.5-0.1v0    c0-0.3-0.1-0.5-0.4-0.6c-0.2-0.1-0.6-0.2-1.1-0.2c-0.3,0-0.6,0.1-0.9,0.2c-0.3,0.1-0.6,0.2-0.7,0.2h-0.2v-1.3    c0.2,0,0.5-0.1,0.9-0.2c0.4-0.1,0.8-0.1,1.3-0.1c1,0,1.7,0.2,2.2,0.5c0.4,0.3,0.7,0.8,0.7,1.4v3.7h-1.7V434.7z M144.2,433.8v-1.1    c-0.2,0-0.5,0-0.8,0.1s-0.5,0.1-0.6,0.1c-0.2,0.1-0.3,0.1-0.4,0.2s-0.1,0.2-0.1,0.4c0,0.1,0,0.2,0,0.3s0.1,0.1,0.1,0.2    c0.1,0.1,0.2,0.1,0.3,0.1c0.1,0,0.3,0,0.5,0c0.2,0,0.4,0,0.5-0.1C143.9,434,144.1,433.9,144.2,433.8z"/>
		<path d="M152.9,434.6c0,0.5-0.1,0.9-0.2,1.3s-0.4,0.6-0.6,0.8c-0.3,0.2-0.6,0.3-1,0.4c-0.4,0.1-0.8,0.1-1.3,0.1    c-0.4,0-0.8,0-1.1-0.1s-0.7-0.1-1-0.2v-1.4h0.2c0.2,0.1,0.5,0.2,0.8,0.2c0.3,0.1,0.6,0.1,0.8,0.1c0.3,0,0.6,0,0.8-0.1    c0.2-0.1,0.4-0.1,0.5-0.3c0.1-0.1,0.2-0.2,0.2-0.4s0.1-0.4,0.1-0.6v-0.1c-0.2,0.2-0.4,0.3-0.7,0.4s-0.5,0.2-0.9,0.2    c-0.8,0-1.4-0.2-1.8-0.7c-0.4-0.5-0.6-1.2-0.6-2.1c0-0.5,0.1-0.8,0.2-1.2c0.1-0.3,0.3-0.6,0.5-0.9c0.2-0.2,0.5-0.4,0.8-0.5    c0.3-0.1,0.6-0.2,1-0.2c0.3,0,0.6,0,0.8,0.1c0.2,0.1,0.5,0.2,0.7,0.3l0.1-0.2h1.7V434.6z M151.1,433.5V431c-0.1,0-0.2-0.1-0.4-0.1    c-0.1,0-0.3,0-0.4,0c-0.5,0-0.8,0.1-1,0.4c-0.2,0.3-0.3,0.6-0.3,1.1c0,0.5,0.1,0.9,0.3,1.1c0.2,0.2,0.5,0.3,0.9,0.3    c0.2,0,0.3,0,0.5-0.1S151,433.6,151.1,433.5z"/>
		<path d="M160.1,432.5c0,0.9-0.3,1.6-0.8,2.1c-0.5,0.5-1.3,0.8-2.2,0.8s-1.7-0.3-2.2-0.8c-0.5-0.5-0.8-1.2-0.8-2.1    c0-0.9,0.3-1.6,0.8-2.1s1.3-0.8,2.2-0.8c1,0,1.7,0.3,2.2,0.8S160.1,431.6,160.1,432.5z M158,433.8c0.1-0.1,0.2-0.3,0.3-0.5    c0.1-0.2,0.1-0.5,0.1-0.8c0-0.3,0-0.6-0.1-0.8s-0.1-0.4-0.2-0.5c-0.1-0.1-0.2-0.2-0.4-0.3s-0.3-0.1-0.5-0.1s-0.3,0-0.5,0.1    s-0.3,0.1-0.4,0.3c-0.1,0.1-0.2,0.3-0.3,0.5s-0.1,0.5-0.1,0.8c0,0.3,0,0.6,0.1,0.8c0.1,0.2,0.1,0.4,0.2,0.5    c0.1,0.1,0.2,0.2,0.4,0.3s0.3,0.1,0.5,0.1c0.2,0,0.3,0,0.5-0.1C157.8,434,157.9,434,158,433.8z"/>
		<path d="M163.2,429h-1.9v-1.3h1.9V429z M163.2,435.2h-1.8v-5.5h1.8V435.2z"/>
		<path d="M170.2,432.8h-4c0,0.4,0.2,0.8,0.5,1s0.7,0.3,1.3,0.3c0.4,0,0.7-0.1,1.1-0.2s0.6-0.3,0.8-0.4h0.2v1.4    c-0.4,0.2-0.8,0.3-1.1,0.3s-0.7,0.1-1.2,0.1c-1.1,0-1.9-0.2-2.5-0.7s-0.9-1.2-0.9-2.1c0-0.9,0.3-1.6,0.8-2.2    c0.6-0.5,1.3-0.8,2.3-0.8c0.9,0,1.6,0.2,2,0.7c0.4,0.5,0.7,1.1,0.7,1.9V432.8z M168.5,431.8c0-0.4-0.1-0.6-0.3-0.8    s-0.4-0.3-0.8-0.3c-0.3,0-0.6,0.1-0.8,0.3s-0.3,0.5-0.4,0.8H168.5z"/>
		<path d="M177,435.2h-1.8v-2.7c0-0.2,0-0.4,0-0.7c0-0.2-0.1-0.4-0.1-0.5c-0.1-0.1-0.2-0.2-0.3-0.3s-0.3-0.1-0.5-0.1    c-0.2,0-0.3,0-0.5,0.1s-0.3,0.1-0.5,0.2v3.9h-1.8v-5.5h1.8v0.6c0.3-0.2,0.6-0.4,0.9-0.6c0.3-0.1,0.6-0.2,1-0.2    c0.6,0,1.1,0.2,1.4,0.5c0.3,0.3,0.5,0.9,0.5,1.5V435.2z"/>
		<path d="M181.9,434.7c-0.1,0.1-0.2,0.2-0.4,0.3s-0.3,0.2-0.4,0.2c-0.2,0.1-0.4,0.1-0.5,0.2c-0.2,0-0.4,0.1-0.6,0.1    c-0.5,0-1-0.2-1.3-0.5s-0.5-0.7-0.5-1.2c0-0.4,0.1-0.7,0.3-1s0.4-0.5,0.8-0.6c0.3-0.1,0.7-0.3,1.2-0.3s1-0.1,1.5-0.1v0    c0-0.3-0.1-0.5-0.4-0.6c-0.2-0.1-0.6-0.2-1.1-0.2c-0.3,0-0.6,0.1-0.9,0.2c-0.3,0.1-0.6,0.2-0.7,0.2h-0.2v-1.3    c0.2,0,0.5-0.1,0.9-0.2c0.4-0.1,0.8-0.1,1.3-0.1c1,0,1.7,0.2,2.2,0.5c0.4,0.3,0.7,0.8,0.7,1.4v3.7h-1.7V434.7z M181.9,433.8v-1.1    c-0.2,0-0.5,0-0.8,0.1s-0.5,0.1-0.6,0.1c-0.2,0.1-0.3,0.1-0.4,0.2s-0.1,0.2-0.1,0.4c0,0.1,0,0.2,0,0.3s0.1,0.1,0.1,0.2    c0.1,0.1,0.2,0.1,0.3,0.1c0.1,0,0.3,0,0.5,0c0.2,0,0.4,0,0.5-0.1C181.6,434,181.8,433.9,181.9,433.8z"/>
	</g>
	<g>
	</g>
	<g>
	</g>
	<g>
	</g>
	<g>
	</g>
	<g>
	</g>
	<g>
	</g>
	<g>
	</g>
	<g>
	</g>
	<g>
	</g>
	<g>
	</g>
	<g>
	</g>
	<g>
	</g>
</g>
</svg>