<svg xmlns="http://www.w3.org/2000/svg" xmlns:xlink="http://www.w3.org/1999/xlink" version="1.1" x="0px" y="0px" width="450px" height="450px" viewBox="0 0 450 450" style="enable-background:new 0 0 450 450;" xml:space="preserve"> <g id="exterior"> 	<a> 		<path style="fill-rule:evenodd;clip-rule:evenodd;fill:#BFBFBF;stroke:#696969;stroke-width:2;stroke-miterlimit:10;" d="    M355.8,263.7l17.3-21c0,0,5.2-24.7,1.8-36.5s-6.1-15.8-6.1-15.8s5.7,0,9.4-4.1s8.7-11.3,8.7-11.3s38.1,19.4,72.4,22L459,355.8    l-36.2-7.4l2.7-23.9c0,0,11.8-1.1,12.5-9.6s-2.9-18.4-2.9-18.4l-28.4,3.3c0,0-33.5-29.5-40.5-28.4S355.8,263.7,355.8,263.7"/> 	</a> 	<a> 		<path style="fill-rule:evenodd;clip-rule:evenodd;fill:#BFBFBF;stroke:#696969;stroke-width:2;stroke-miterlimit:10;" d="    M-27.8,268.6l36.9-9.7c0,0,29.1,23.2,30.9,28s3.7,6.3,9.9,6.3s34.3-8.1,45.7-1.5s9.9,9.2,9.9,9.2l35.8,0.8c0,0,26.8,3.6,27.2,8.4    s0.2,10.3,0.2,10.3s7.6,3.3,11.6,0.7s5.2-5.5,8.1-6.3s37.9-4.8,49.7-5.2s47.5,0,47.5,0l10.3,19.9c0,0,14.7,0.4,19.5,3.3    s19.9,24.7,26.9,23.6s16.6-4.8,16.6-4.8l13.4-8.4c0,0,20.1,3.6,26.7,4.3s23.5,0.7,23.5,0.7l36.2,7.4L454.2,456l-459.4-1.5    L-27.8,268.6z"/> 	</a> 	<a> 		<path style="fill-rule:evenodd;clip-rule:evenodd;fill:#BFBFBF;stroke:#696969;stroke-width:2;stroke-miterlimit:10;" d="    M-19.7,151.6l37.6,6l3.7,11.6c0,0,16.2-9.8,16.5,7.5s4.1,30.6,4.1,30.6L18,253.2l-8.9,5.7l-29.5,7.7L-19.7,151.6z"/> 	</a> 	<a> 		<path style="fill-rule:evenodd;clip-rule:evenodd;fill:#BFBFBF;stroke:#696969;stroke-width:2;stroke-miterlimit:10;" d="    M-17.1-6.7l0.7,158.4l34.3,5.9c0,0,14.7-8.1,23.2-18.1s9.2-15.5,9.6-21.7s5.2-12.9,9.3-15.4s10.6-7.1,10.6-7.1l17.7,8.6    c0,0,5.7-0.6,12.2,0.2c8.1,1.1,17.7,4.1,21.1,8.9c6.2,8.6,15.4,21.1,15.4,21.1l12.2,11.4c0,0,13.3,1.1,19.5,4.8s13.3,7.7,13.3,7.7    l10,0.5c0,0,7.3-11.6,4.7-13.8s-14.4-10.3-9.9-15.8c1-1.2,1.7-3.3,5.1-4.6c7-2.6,19.8-4.1,31-3.9l0,0l12.4-23.8    c0,0-9.4-19.6,2-21.5s59-6.3,63.4-22.5s5-19.3,5-19.3l29.3-4.8l-41.6-39.6L-17.1-6.7z"/> 	</a> 	<a> 		<path style="fill-rule:evenodd;clip-rule:evenodd;fill:#BFBFBF;stroke:#696969;stroke-width:2;stroke-miterlimit:10;" d="    M293.2-11.2l41.6,39.6l-29.3,4.8c0,0-3.1,20.4-8.6,24.9S281,68.4,265.2,71s-32.1,1.1-33.2,9.2s3.2,16.3,3.2,16.3l-12.4,23.8h2.6    c0,0,17.2-5.4,28.6-2.1s15.2,7.6,15.2,7.6l41.9,12l40.8,17.2c0,0-9.4,23.4,4.6,30.8s12.3,4.4,12.3,4.4s3.5,0,6.5-1.5    s11.6-13.9,11.6-13.9s42.2,21.6,72.4,22L457.8-3.4L293.2-11.2z"/> 	</a> </g> <g id="municipis"> 	<a> 		<path style="fill-rule:evenodd;clip-rule:evenodd;fill:#FFFBF0;stroke:#9A9A9A;stroke-width:2;stroke-miterlimit:10;" d="    M279.7,224.4l32.9-62.4l-5.8-5.1l4.2-19l40.8,17.2c0,0-12.4,29.7,16.9,35.2c0,0,14.6,12.9,4.3,52.3l-17.3,21L279.7,224.4z"/> 	</a> 	<a> 		<path style="fill-rule:evenodd;clip-rule:evenodd;fill:#FFFBF0;stroke:#9A9A9A;stroke-width:2;stroke-miterlimit:10;" d="    M284.3,310.1l13.6-7.7c0,0-5.9-23.9-4.4-30.9s8.7-16.9,8.7-16.9l17-0.1l6.3-7.4l31.4,16.1c0,0,1,9.3,9.1,8.2s40.5,28.4,40.5,28.4    l29.5-4.8c0,0,4.1,21.7,1.8,24.3s-12.5,5.2-12.5,5.2l-2.7,23.9c0,0-34.5,1.8-50.2-5c0,0-21.2,17.2-33.3,13.1s-16.6-24.7-30.2-25.1    s-14.4-2.2-14.4-2.2L284.3,310.1z"/> 	</a> 	<a> 		<path style="fill-rule:evenodd;clip-rule:evenodd;fill:#FFFBF0;stroke:#9A9A9A;stroke-width:2;stroke-miterlimit:10;" d="    M141.5,301.7l0.6-19.3c0,0,8.5,1.1,8.5-4.4s1.5-26.9,1.5-26.9l18.8-5.2c0,0,20-6,21.4-14.4c0,0-8.5-13.2-7-32s-3.3-41.6-3.3-41.6    l10,0.5c0,0,21.7,20.2,48.6,39s39.3,26.9,39.3,26.9l45.8,22.8l-6.3,7.4l-17,0.1c0,0-9.5,12.5-8.4,22s4.1,25.8,4.1,25.8l-13.6,7.7    c0,0-92.5-1.5-98,7.4s-17.5,3-17.5,3s0.9-11.8-2.7-12.5S141.5,301.7,141.5,301.7z"/> 	</a> 	<a> 		<path style="fill-rule:evenodd;clip-rule:evenodd;fill:#FFFBF0;stroke:#9A9A9A;stroke-width:2;stroke-miterlimit:10;" d="    M9.1,258.9l8.9-5.7l23.1-46.9c0,0,18.8,20.1,30.6,19.2c9.6-0.7,33.7-15.9,33.7-15.9s23.1-0.4,37.1,16.4c0,0,3.6-12.3,7.3-10.1    s19.2,31.3,19.2,31.3l-16.9,4.1c0,0,0.4,26.2-2.6,28.7s-7.4,2.6-7.4,2.6l-0.6,19.3l-35.8-0.8c0,0-4.8-11.4-26.9-10.3    s-34.6,6.6-37.9-1.5S9.1,258.9,9.1,258.9z"/> 	</a> 	<a> 		<path style="fill-rule:evenodd;clip-rule:evenodd;fill:#FFFBF0;stroke:#9A9A9A;stroke-width:2;stroke-miterlimit:10;" d="    M136.9,134l-31.7,43.1c0,0,2.6,26,0.2,32.3c0,0,23.1,1.1,37.1,16.4c0,0,4.7-14.9,8.4-9.7s18.1,30.9,18.1,30.9s21.1-5.7,23.2-15.5    c0,0-7-13.2-7-21.7s0.4-36.8-3.3-52c0,0-16.6-12.9-32.8-12.5L136.9,134z"/> 	</a> 	<a> 		<path style="fill-rule:evenodd;clip-rule:evenodd;fill:#FFFBF0;stroke:#9A9A9A;stroke-width:2;stroke-miterlimit:10;" d="    M105.5,209.4c0,0,2.7-18.7-0.2-32.3l31.7-43.1l-15.4-21.1c0,0-11.2-11.3-33.3-9.1l-17.7-8.6c0,0-20.6,10.1-19.9,22.6    s-10.7,28-32.8,39.8l3.7,11.6c0,0,16.2-8.7,16.5,7.5s2.9,29.5,2.9,29.5s19.9,20.3,30.6,19.2S105.5,209.4,105.5,209.4z"/> 	</a> 	<a> 		<path style="fill-rule:evenodd;clip-rule:evenodd;fill:#FFFBF0;stroke:#9A9A9A;stroke-width:2;stroke-miterlimit:10;" d="    M279.7,224.4c0,0-74.1-47.7-87.8-65.9l4.7-13.8c0,0-19.9-13.6-5.9-19.9s34.6-4.4,34.6-4.4s26.2-10.7,43.8,5.5l41.9,12l-4.2,19    l5.8,5.1L279.7,224.4z"/> 	</a> </g> <g id="textos"> 	<g> 		<rect x="55.9" y="151.5" style="fill-rule:evenodd;clip-rule:evenodd;fill:none;" width="36.7" height="11"/> 		<path d="M62.4,159.8c0,0.4-0.1,0.7-0.2,1c-0.1,0.3-0.3,0.5-0.6,0.7c-0.3,0.2-0.6,0.4-0.9,0.5c-0.3,0.1-0.7,0.1-1.2,0.1h-2.6v-7.3    h2.2c0.5,0,0.9,0,1.2,0.1c0.3,0,0.5,0.1,0.8,0.2c0.3,0.1,0.5,0.3,0.6,0.5c0.1,0.2,0.2,0.5,0.2,0.8c0,0.3-0.1,0.6-0.3,0.9    s-0.4,0.4-0.7,0.6v0c0.5,0.1,0.9,0.3,1.2,0.6C62.3,158.9,62.4,159.3,62.4,159.8z M60.8,156.5c0-0.2,0-0.3-0.1-0.4    s-0.2-0.2-0.3-0.3c-0.2-0.1-0.3-0.1-0.6-0.2c-0.2,0-0.5,0-0.8,0h-1.2v2.1h1.2c0.3,0,0.5,0,0.7,0c0.2,0,0.3-0.1,0.5-0.2    c0.2-0.1,0.3-0.2,0.3-0.4S60.8,156.7,60.8,156.5z M61.4,159.8c0-0.3,0-0.5-0.1-0.7c-0.1-0.2-0.2-0.3-0.5-0.4    c-0.2-0.1-0.3-0.1-0.6-0.2c-0.2,0-0.5,0-0.8,0h-1.5v2.7h1.3c0.4,0,0.8,0,1-0.1c0.3,0,0.5-0.1,0.7-0.2c0.2-0.1,0.3-0.3,0.4-0.4    C61.4,160.3,61.4,160.1,61.4,159.8z"/> 		<path d="M68.3,159.4h-4c0,0.3,0.1,0.6,0.2,0.9c0.1,0.2,0.2,0.5,0.4,0.6c0.2,0.2,0.4,0.3,0.6,0.4c0.2,0.1,0.5,0.1,0.8,0.1    c0.4,0,0.7-0.1,1.1-0.2c0.4-0.1,0.6-0.3,0.8-0.4h0v1c-0.3,0.1-0.6,0.2-0.9,0.3c-0.3,0.1-0.7,0.1-1,0.1c-0.9,0-1.6-0.2-2.1-0.7    c-0.5-0.5-0.8-1.2-0.8-2.1c0-0.9,0.2-1.6,0.7-2.1s1.1-0.8,1.9-0.8c0.7,0,1.3,0.2,1.7,0.6c0.4,0.4,0.6,1,0.6,1.8V159.4z     M67.4,158.7c0-0.5-0.1-0.9-0.4-1.1c-0.2-0.3-0.6-0.4-1.1-0.4c-0.5,0-0.9,0.1-1.2,0.4c-0.3,0.3-0.5,0.7-0.5,1.1H67.4z"/> 		<path d="M74.2,162h-0.9v-3.1c0-0.3,0-0.5,0-0.7c0-0.2-0.1-0.4-0.2-0.5c-0.1-0.1-0.2-0.2-0.4-0.3c-0.2-0.1-0.4-0.1-0.6-0.1    c-0.3,0-0.5,0.1-0.8,0.2c-0.3,0.1-0.5,0.3-0.8,0.5v4.1h-0.9v-5.5h0.9v0.6c0.3-0.2,0.6-0.4,0.9-0.6c0.3-0.1,0.6-0.2,0.9-0.2    c0.6,0,1,0.2,1.3,0.5c0.3,0.4,0.5,0.9,0.5,1.5V162z"/> 		<path d="M80.5,162h-0.9v-0.6c-0.3,0.2-0.6,0.4-0.9,0.6c-0.3,0.1-0.6,0.2-0.9,0.2c-0.6,0-1-0.2-1.3-0.5c-0.3-0.4-0.5-0.9-0.5-1.5    v-3.5h0.9v3.1c0,0.3,0,0.5,0,0.7c0,0.2,0.1,0.4,0.2,0.5c0.1,0.1,0.2,0.2,0.3,0.3c0.1,0.1,0.3,0.1,0.6,0.1c0.2,0,0.5-0.1,0.8-0.2    c0.3-0.1,0.5-0.3,0.8-0.5v-4.1h0.9V162z"/> 		<path d="M86.3,162h-4.4v-0.7l3.2-4h-3.1v-0.8h4.3v0.7l-3.2,4h3.3V162z"/> 		<path d="M91.8,162h-0.9v-0.6c-0.1,0.1-0.2,0.1-0.3,0.2c-0.1,0.1-0.3,0.2-0.4,0.2c-0.2,0.1-0.3,0.1-0.5,0.2    c-0.2,0.1-0.4,0.1-0.7,0.1c-0.5,0-0.9-0.2-1.2-0.5c-0.3-0.3-0.5-0.7-0.5-1.2c0-0.4,0.1-0.7,0.3-1s0.4-0.5,0.8-0.6    c0.3-0.1,0.7-0.2,1.2-0.3c0.5-0.1,1-0.1,1.5-0.1v-0.1c0-0.2,0-0.4-0.1-0.5s-0.2-0.2-0.3-0.3c-0.1-0.1-0.3-0.1-0.5-0.2    s-0.4,0-0.6,0c-0.2,0-0.5,0-0.8,0.1c-0.3,0.1-0.6,0.2-0.9,0.3h0v-0.9c0.2,0,0.4-0.1,0.8-0.2s0.7-0.1,1-0.1c0.4,0,0.7,0,1,0.1    s0.5,0.2,0.7,0.3c0.2,0.1,0.4,0.3,0.5,0.6s0.2,0.5,0.2,0.9V162z M90.9,160.7v-1.5c-0.3,0-0.6,0-1,0.1c-0.4,0-0.7,0.1-0.9,0.1    c-0.3,0.1-0.5,0.2-0.6,0.3c-0.2,0.2-0.2,0.4-0.2,0.7c0,0.3,0.1,0.5,0.3,0.7c0.2,0.2,0.5,0.2,0.9,0.2c0.3,0,0.6-0.1,0.9-0.2    C90.4,161,90.6,160.8,90.9,160.7z"/> 	</g> 	<g> 		<path d="M244.9,163.8h-4.6v-7.3h1v6.4h3.6V163.8z"/> 		<path d="M250.3,163.8h-0.9v-0.6c-0.3,0.2-0.6,0.4-0.9,0.6s-0.6,0.2-0.9,0.2c-0.6,0-1-0.2-1.3-0.5c-0.3-0.4-0.5-0.9-0.5-1.5v-3.5    h0.9v3.1c0,0.3,0,0.5,0,0.7c0,0.2,0.1,0.4,0.2,0.5c0.1,0.1,0.2,0.2,0.3,0.3c0.1,0.1,0.3,0.1,0.6,0.1c0.2,0,0.5-0.1,0.8-0.2    c0.3-0.1,0.5-0.3,0.8-0.5v-4.1h0.9V163.8z"/> 		<path d="M256.2,163.5c-0.3,0.1-0.6,0.3-0.9,0.3c-0.3,0.1-0.6,0.1-0.9,0.1c-0.4,0-0.8-0.1-1.1-0.2s-0.6-0.3-0.8-0.5    c-0.2-0.2-0.4-0.5-0.6-0.9s-0.2-0.8-0.2-1.3c0-0.9,0.2-1.6,0.7-2.1s1.1-0.8,1.9-0.8c0.3,0,0.6,0,0.9,0.1s0.6,0.2,0.8,0.3v1h0    c-0.3-0.2-0.6-0.4-0.9-0.5c-0.3-0.1-0.6-0.2-0.9-0.2c-0.5,0-0.9,0.2-1.2,0.5s-0.5,0.9-0.5,1.5c0,0.7,0.1,1.2,0.4,1.5    c0.3,0.4,0.7,0.5,1.2,0.5c0.2,0,0.4,0,0.6-0.1s0.4-0.1,0.5-0.2c0.1-0.1,0.3-0.1,0.4-0.2c0.1-0.1,0.2-0.1,0.3-0.2h0V163.5z"/> 		<path d="M258.3,157.5h-1v-1h1V157.5z M258.3,163.8h-0.9v-5.5h0.9V163.8z"/> 		<path d="M261,163.8h-0.9v-7.6h0.9V163.8z"/> 		<path d="M263.8,163.8h-0.9v-7.6h0.9V163.8z"/> 		<path d="M270.2,161.1c0,0.9-0.2,1.6-0.7,2.1c-0.5,0.5-1.1,0.8-1.8,0.8c-0.8,0-1.4-0.3-1.8-0.8s-0.7-1.2-0.7-2.1    c0-0.9,0.2-1.6,0.7-2.1c0.5-0.5,1.1-0.8,1.8-0.8c0.8,0,1.4,0.3,1.8,0.8C270,159.5,270.2,160.2,270.2,161.1z M269.3,161.1    c0-0.7-0.1-1.2-0.4-1.6s-0.7-0.5-1.2-0.5c-0.5,0-0.9,0.2-1.2,0.5c-0.3,0.3-0.4,0.9-0.4,1.6c0,0.7,0.1,1.2,0.4,1.6s0.7,0.5,1.2,0.5    c0.5,0,0.9-0.2,1.1-0.5C269.1,162.3,269.3,161.8,269.3,161.1z"/> 	</g> 	<g> 		<path d="M318.8,208.1h-4.6v-7.3h1v6.4h3.6V208.1z"/> 		<path d="M324.2,208.1h-0.9v-0.6c-0.3,0.2-0.6,0.4-0.9,0.6c-0.3,0.1-0.6,0.2-0.9,0.2c-0.6,0-1-0.2-1.3-0.5    c-0.3-0.4-0.5-0.9-0.5-1.5v-3.5h0.9v3.1c0,0.3,0,0.5,0,0.7c0,0.2,0.1,0.4,0.2,0.5c0.1,0.1,0.2,0.2,0.3,0.3    c0.1,0.1,0.3,0.1,0.6,0.1c0.2,0,0.5-0.1,0.8-0.2c0.3-0.1,0.5-0.3,0.8-0.5v-4.1h0.9V208.1z"/> 		<path d="M330.7,202.6l-3.2,7.5h-1l1-2.3l-2.2-5.2h1l1.7,4l1.7-4H330.7z"/> 		<path d="M336.4,205.4h-4c0,0.3,0.1,0.6,0.2,0.9c0.1,0.2,0.2,0.5,0.4,0.6c0.2,0.2,0.4,0.3,0.6,0.4s0.5,0.1,0.8,0.1    c0.4,0,0.7-0.1,1.1-0.2s0.6-0.3,0.8-0.4h0v1c-0.3,0.1-0.6,0.2-0.9,0.3c-0.3,0.1-0.7,0.1-1,0.1c-0.9,0-1.6-0.2-2.1-0.7    c-0.5-0.5-0.8-1.2-0.8-2.1c0-0.9,0.2-1.6,0.7-2.1s1.1-0.8,1.9-0.8c0.7,0,1.3,0.2,1.7,0.6s0.6,1,0.6,1.8V205.4z M335.5,204.7    c0-0.5-0.1-0.9-0.4-1.1c-0.2-0.3-0.6-0.4-1.1-0.4c-0.5,0-0.9,0.1-1.2,0.4s-0.5,0.6-0.5,1.1H335.5z"/> 		<path d="M342.2,207.5c0,0.9-0.2,1.6-0.6,2c-0.4,0.4-1.1,0.6-1.9,0.6c-0.3,0-0.6,0-0.8-0.1c-0.3,0-0.5-0.1-0.8-0.2V209h0    c0.1,0.1,0.4,0.1,0.7,0.2c0.3,0.1,0.7,0.1,1,0.1c0.3,0,0.6,0,0.8-0.1c0.2-0.1,0.4-0.2,0.5-0.3c0.1-0.1,0.2-0.3,0.2-0.5    s0.1-0.4,0.1-0.6v-0.5c-0.3,0.2-0.5,0.4-0.8,0.5s-0.6,0.2-1,0.2c-0.7,0-1.2-0.2-1.5-0.7c-0.4-0.5-0.6-1.1-0.6-2    c0-0.5,0.1-0.9,0.2-1.2c0.1-0.3,0.3-0.6,0.5-0.9c0.2-0.2,0.5-0.4,0.8-0.5c0.3-0.1,0.6-0.2,0.9-0.2c0.3,0,0.6,0,0.8,0.1    s0.4,0.2,0.7,0.3l0.1-0.2h0.9V207.5z M341.3,206.6v-3c-0.2-0.1-0.5-0.2-0.7-0.2c-0.2,0-0.4-0.1-0.6-0.1c-0.5,0-0.9,0.2-1.2,0.5    c-0.3,0.3-0.4,0.8-0.4,1.5c0,0.6,0.1,1.1,0.3,1.4c0.2,0.3,0.6,0.5,1.1,0.5c0.3,0,0.5-0.1,0.8-0.2    C340.8,206.9,341.1,206.7,341.3,206.6z"/> 		<path d="M348.7,205.3c0,0.9-0.2,1.6-0.7,2.1c-0.5,0.5-1.1,0.8-1.8,0.8c-0.8,0-1.4-0.3-1.8-0.8c-0.5-0.5-0.7-1.2-0.7-2.1    c0-0.9,0.2-1.6,0.7-2.1c0.5-0.5,1.1-0.8,1.8-0.8c0.8,0,1.4,0.3,1.8,0.8C348.4,203.8,348.7,204.5,348.7,205.3z M347.7,205.3    c0-0.7-0.1-1.2-0.4-1.6s-0.7-0.5-1.2-0.5c-0.5,0-0.9,0.2-1.2,0.5c-0.3,0.3-0.4,0.9-0.4,1.6c0,0.7,0.1,1.2,0.4,1.6s0.7,0.5,1.2,0.5    c0.5,0,0.9-0.2,1.1-0.5C347.6,206.6,347.7,206,347.7,205.3z"/> 	</g> 	<g> 		<path d="M131.5,183c-0.2,0.1-0.3,0.2-0.5,0.2c-0.1,0.1-0.3,0.1-0.6,0.2c-0.2,0.1-0.4,0.1-0.6,0.2s-0.5,0.1-0.8,0.1    c-0.5,0-1-0.1-1.4-0.2c-0.4-0.1-0.8-0.4-1.1-0.7c-0.3-0.3-0.6-0.7-0.7-1.2c-0.2-0.5-0.3-1-0.3-1.7c0-0.6,0.1-1.1,0.3-1.6    c0.2-0.5,0.4-0.9,0.7-1.2c0.3-0.3,0.7-0.6,1.1-0.7c0.4-0.2,0.9-0.2,1.5-0.2c0.4,0,0.8,0,1.2,0.1c0.4,0.1,0.8,0.3,1.3,0.5v1.1h-0.1    c-0.4-0.3-0.8-0.6-1.2-0.7c-0.4-0.2-0.8-0.2-1.3-0.2c-0.4,0-0.7,0.1-1,0.2c-0.3,0.1-0.6,0.3-0.8,0.6c-0.2,0.2-0.4,0.6-0.5,0.9    c-0.1,0.4-0.2,0.8-0.2,1.3c0,0.5,0.1,1,0.2,1.3s0.3,0.7,0.5,0.9c0.2,0.2,0.5,0.4,0.8,0.5s0.6,0.2,1,0.2c0.5,0,0.9-0.1,1.3-0.2    c0.4-0.2,0.8-0.4,1.1-0.7h0.1V183z"/> 		<path d="M137,183.5h-0.9V183c-0.1,0.1-0.2,0.1-0.3,0.2c-0.1,0.1-0.3,0.2-0.4,0.2c-0.2,0.1-0.3,0.1-0.5,0.2    c-0.2,0.1-0.4,0.1-0.7,0.1c-0.5,0-0.9-0.2-1.2-0.5c-0.3-0.3-0.5-0.7-0.5-1.2c0-0.4,0.1-0.7,0.3-1s0.4-0.5,0.8-0.6    c0.3-0.1,0.7-0.2,1.2-0.3s1-0.1,1.5-0.1v-0.1c0-0.2,0-0.4-0.1-0.5s-0.2-0.2-0.3-0.3c-0.1-0.1-0.3-0.1-0.5-0.2s-0.4,0-0.6,0    c-0.2,0-0.5,0-0.8,0.1s-0.6,0.2-0.9,0.3h0v-0.9c0.2,0,0.4-0.1,0.8-0.2s0.7-0.1,1-0.1c0.4,0,0.7,0,1,0.1c0.3,0.1,0.5,0.2,0.7,0.3    c0.2,0.1,0.4,0.3,0.5,0.6s0.2,0.5,0.2,0.9V183.5z M136.1,182.2v-1.5c-0.3,0-0.6,0-1,0.1c-0.4,0-0.7,0.1-0.9,0.1    c-0.3,0.1-0.5,0.2-0.6,0.3c-0.2,0.2-0.2,0.4-0.2,0.7c0,0.3,0.1,0.5,0.3,0.7c0.2,0.2,0.5,0.2,0.9,0.2c0.3,0,0.6-0.1,0.9-0.2    C135.6,182.5,135.9,182.4,136.1,182.2z"/> 		<path d="M142.3,181c0.2,0.2,0.3,0.6,0.3,1c0,0.5-0.2,0.9-0.6,1.2c-0.4,0.3-1,0.5-1.7,0.5c-0.4,0-0.8,0-1.1-0.1    c-0.3-0.1-0.6-0.2-0.8-0.3v-1h0c0.3,0.2,0.6,0.4,1,0.5c0.4,0.1,0.7,0.2,1,0.2c0.4,0,0.7-0.1,0.9-0.2s0.3-0.3,0.3-0.6    c0-0.2-0.1-0.4-0.2-0.5s-0.4-0.2-0.7-0.3c-0.1,0-0.3-0.1-0.5-0.1c-0.2,0-0.4-0.1-0.6-0.1c-0.5-0.1-0.8-0.3-1-0.6    c-0.2-0.2-0.3-0.5-0.3-0.9c0-0.2,0-0.4,0.1-0.6c0.1-0.2,0.2-0.4,0.4-0.5c0.2-0.2,0.4-0.3,0.7-0.4c0.3-0.1,0.6-0.1,0.9-0.1    c0.3,0,0.7,0,1,0.1c0.3,0.1,0.6,0.2,0.8,0.3v1h0c-0.2-0.2-0.5-0.3-0.9-0.4c-0.3-0.1-0.7-0.2-1-0.2c-0.3,0-0.6,0.1-0.8,0.2    c-0.2,0.1-0.3,0.3-0.3,0.6c0,0.2,0.1,0.4,0.2,0.5c0.1,0.1,0.4,0.2,0.7,0.3c0.2,0,0.4,0.1,0.6,0.1s0.4,0.1,0.5,0.1    C141.8,180.6,142.1,180.8,142.3,181L142.3,181z"/> 		<path d="M146.8,183.5c-0.2,0-0.4,0.1-0.6,0.1s-0.4,0-0.5,0c-0.6,0-1-0.1-1.3-0.4c-0.3-0.3-0.4-0.8-0.4-1.4v-2.9h-0.6v-0.8h0.6    v-1.6h0.9v1.6h1.9v0.8h-1.9v2.5c0,0.3,0,0.5,0,0.7c0,0.2,0.1,0.3,0.1,0.5c0.1,0.1,0.2,0.2,0.3,0.3c0.1,0.1,0.3,0.1,0.6,0.1    c0.1,0,0.3,0,0.5-0.1s0.3-0.1,0.4-0.1h0V183.5z"/> 		<path d="M151.3,179.1L151.3,179.1c-0.2,0-0.3-0.1-0.4-0.1c-0.1,0-0.3,0-0.5,0c-0.3,0-0.6,0.1-0.8,0.2s-0.5,0.3-0.8,0.5v3.9h-0.9    v-5.5h0.9v0.8c0.4-0.3,0.7-0.5,1-0.6s0.6-0.2,0.9-0.2c0.2,0,0.3,0,0.3,0c0.1,0,0.2,0,0.3,0V179.1z"/> 		<path d="M153.2,177.2h-1v-1h1V177.2z M153.1,183.5h-0.9v-5.5h0.9V183.5z"/> 		<path d="M155.8,183.5h-0.9v-7.6h0.9V183.5z"/> 		<path d="M158.6,183.5h-0.9v-7.6h0.9V183.5z"/> 		<path d="M165,180.8c0,0.9-0.2,1.6-0.7,2.1c-0.5,0.5-1.1,0.8-1.8,0.8c-0.8,0-1.4-0.3-1.8-0.8c-0.5-0.5-0.7-1.2-0.7-2.1    c0-0.9,0.2-1.6,0.7-2.1c0.5-0.5,1.1-0.8,1.8-0.8c0.8,0,1.4,0.3,1.8,0.8C164.8,179.2,165,179.9,165,180.8z M164.1,180.8    c0-0.7-0.1-1.2-0.4-1.6c-0.3-0.3-0.7-0.5-1.2-0.5c-0.5,0-0.9,0.2-1.2,0.5s-0.4,0.9-0.4,1.6c0,0.7,0.1,1.2,0.4,1.6s0.7,0.5,1.2,0.5    c0.5,0,0.9-0.2,1.1-0.5C164,182,164.1,181.5,164.1,180.8z"/> 		<path d="M122.9,193.5H122V193c-0.3,0.2-0.5,0.4-0.8,0.5c-0.3,0.1-0.6,0.2-0.9,0.2c-0.7,0-1.2-0.3-1.5-0.8    c-0.4-0.5-0.6-1.2-0.6-2.1c0-0.5,0.1-0.9,0.2-1.2c0.1-0.4,0.3-0.7,0.5-0.9c0.2-0.2,0.5-0.4,0.8-0.6s0.6-0.2,0.9-0.2    c0.3,0,0.5,0,0.8,0.1c0.2,0.1,0.5,0.2,0.7,0.3v-2.4h0.9V193.5z M122,192.2v-3.1c-0.2-0.1-0.5-0.2-0.7-0.2c-0.2,0-0.4-0.1-0.6-0.1    c-0.5,0-0.9,0.2-1.2,0.5c-0.3,0.4-0.4,0.9-0.4,1.5c0,0.6,0.1,1.1,0.3,1.5c0.2,0.3,0.6,0.5,1.1,0.5c0.3,0,0.5-0.1,0.8-0.2    C121.5,192.5,121.8,192.4,122,192.2z"/> 		<path d="M129.3,190.9h-4c0,0.3,0.1,0.6,0.2,0.9c0.1,0.2,0.2,0.5,0.4,0.6c0.2,0.2,0.4,0.3,0.6,0.4s0.5,0.1,0.8,0.1    c0.4,0,0.7-0.1,1.1-0.2c0.4-0.1,0.6-0.3,0.8-0.4h0v1c-0.3,0.1-0.6,0.2-0.9,0.3s-0.7,0.1-1,0.1c-0.9,0-1.6-0.2-2.1-0.7    c-0.5-0.5-0.8-1.2-0.8-2.1c0-0.9,0.2-1.6,0.7-2.1s1.1-0.8,1.9-0.8c0.7,0,1.3,0.2,1.7,0.6c0.4,0.4,0.6,1,0.6,1.8V190.9z     M128.4,190.2c0-0.5-0.1-0.9-0.4-1.1c-0.2-0.3-0.6-0.4-1.1-0.4c-0.5,0-0.9,0.1-1.2,0.4s-0.5,0.6-0.5,1.1H128.4z"/> 		<path d="M139.9,193c-0.2,0.1-0.3,0.2-0.5,0.2c-0.1,0.1-0.3,0.1-0.6,0.2c-0.2,0.1-0.4,0.1-0.6,0.2c-0.2,0-0.5,0.1-0.8,0.1    c-0.5,0-1-0.1-1.4-0.2c-0.4-0.1-0.8-0.4-1.1-0.7c-0.3-0.3-0.6-0.7-0.7-1.2c-0.2-0.5-0.3-1-0.3-1.7c0-0.6,0.1-1.1,0.3-1.6    c0.2-0.5,0.4-0.9,0.7-1.2c0.3-0.3,0.7-0.6,1.1-0.7s0.9-0.2,1.5-0.2c0.4,0,0.8,0,1.2,0.1c0.4,0.1,0.8,0.3,1.3,0.5v1.1h-0.1    c-0.4-0.3-0.8-0.6-1.2-0.7c-0.4-0.2-0.8-0.2-1.3-0.2c-0.4,0-0.7,0.1-1,0.2c-0.3,0.1-0.6,0.3-0.8,0.6c-0.2,0.2-0.4,0.6-0.5,0.9    c-0.1,0.4-0.2,0.8-0.2,1.3c0,0.5,0.1,1,0.2,1.3c0.1,0.4,0.3,0.7,0.5,0.9c0.2,0.2,0.5,0.4,0.8,0.5s0.6,0.2,1,0.2    c0.5,0,0.9-0.1,1.3-0.2s0.8-0.4,1.1-0.7h0.1V193z"/> 		<path d="M145.4,193.5h-0.9V193c-0.1,0.1-0.2,0.1-0.3,0.2c-0.1,0.1-0.3,0.2-0.4,0.2c-0.2,0.1-0.3,0.1-0.5,0.2    c-0.2,0.1-0.4,0.1-0.7,0.1c-0.5,0-0.9-0.2-1.2-0.5c-0.3-0.3-0.5-0.7-0.5-1.2c0-0.4,0.1-0.7,0.3-1s0.4-0.5,0.8-0.6    c0.3-0.1,0.7-0.2,1.2-0.3c0.5-0.1,1-0.1,1.5-0.1v-0.1c0-0.2,0-0.4-0.1-0.5s-0.2-0.2-0.3-0.3c-0.1-0.1-0.3-0.1-0.5-0.2    c-0.2,0-0.4,0-0.6,0c-0.2,0-0.5,0-0.8,0.1c-0.3,0.1-0.6,0.2-0.9,0.3h0v-0.9c0.2,0,0.4-0.1,0.8-0.2s0.7-0.1,1-0.1    c0.4,0,0.7,0,1,0.1s0.5,0.2,0.7,0.3c0.2,0.1,0.4,0.3,0.5,0.6c0.1,0.2,0.2,0.5,0.2,0.9V193.5z M144.5,192.2v-1.5    c-0.3,0-0.6,0-1,0.1c-0.4,0-0.7,0.1-0.9,0.1c-0.3,0.1-0.5,0.2-0.6,0.3c-0.2,0.2-0.2,0.4-0.2,0.7c0,0.3,0.1,0.5,0.3,0.7    c0.2,0.2,0.5,0.2,0.9,0.2c0.3,0,0.6-0.1,0.9-0.2C144,192.5,144.3,192.4,144.5,192.2z"/> 		<path d="M152,190.8c0,0.5-0.1,0.9-0.2,1.2c-0.1,0.4-0.3,0.7-0.5,0.9c-0.2,0.3-0.5,0.5-0.8,0.6c-0.3,0.1-0.6,0.2-0.9,0.2    c-0.3,0-0.6,0-0.8-0.1c-0.2-0.1-0.5-0.2-0.7-0.3l-0.1,0.3h-0.9v-7.6h0.9v2.7c0.3-0.2,0.5-0.4,0.8-0.5s0.6-0.2,1-0.2    c0.6,0,1.2,0.2,1.5,0.7S152,189.9,152,190.8z M151,190.8c0-0.7-0.1-1.1-0.3-1.5c-0.2-0.3-0.6-0.5-1-0.5c-0.3,0-0.5,0.1-0.8,0.2    c-0.3,0.1-0.5,0.3-0.8,0.4v3.1c0.3,0.1,0.5,0.2,0.7,0.2s0.4,0.1,0.6,0.1c0.5,0,0.9-0.2,1.2-0.5C150.9,192,151,191.5,151,190.8z"/> 		<path d="M156.8,189.1L156.8,189.1c-0.2,0-0.3-0.1-0.4-0.1s-0.3,0-0.5,0c-0.3,0-0.6,0.1-0.8,0.2c-0.3,0.1-0.5,0.3-0.8,0.5v3.9h-0.9    v-5.5h0.9v0.8c0.4-0.3,0.7-0.5,1-0.6s0.6-0.2,0.9-0.2c0.2,0,0.3,0,0.3,0c0.1,0,0.2,0,0.3,0V189.1z"/> 		<path d="M162.3,190.9h-4c0,0.3,0.1,0.6,0.2,0.9c0.1,0.2,0.2,0.5,0.4,0.6c0.2,0.2,0.4,0.3,0.6,0.4s0.5,0.1,0.8,0.1    c0.4,0,0.7-0.1,1.1-0.2c0.4-0.1,0.6-0.3,0.8-0.4h0v1c-0.3,0.1-0.6,0.2-0.9,0.3s-0.7,0.1-1,0.1c-0.9,0-1.6-0.2-2.1-0.7    c-0.5-0.5-0.8-1.2-0.8-2.1c0-0.9,0.2-1.6,0.7-2.1s1.1-0.8,1.9-0.8c0.7,0,1.3,0.2,1.7,0.6c0.4,0.4,0.6,1,0.6,1.8V190.9z     M161.4,190.2c0-0.5-0.1-0.9-0.4-1.1c-0.2-0.3-0.6-0.4-1.1-0.4c-0.5,0-0.9,0.1-1.2,0.4s-0.5,0.6-0.5,1.1H161.4z"/> 		<path d="M167,189.1L167,189.1c-0.2,0-0.3-0.1-0.4-0.1s-0.3,0-0.5,0c-0.3,0-0.6,0.1-0.8,0.2c-0.3,0.1-0.5,0.3-0.8,0.5v3.9h-0.9    v-5.5h0.9v0.8c0.4-0.3,0.7-0.5,1-0.6c0.3-0.1,0.6-0.2,0.9-0.2c0.2,0,0.3,0,0.3,0c0.1,0,0.2,0,0.3,0V189.1z"/> 		<path d="M172,193.5H171V193c-0.1,0.1-0.2,0.1-0.3,0.2c-0.1,0.1-0.3,0.2-0.4,0.2c-0.2,0.1-0.3,0.1-0.5,0.2    c-0.2,0.1-0.4,0.1-0.7,0.1c-0.5,0-0.9-0.2-1.2-0.5c-0.3-0.3-0.5-0.7-0.5-1.2c0-0.4,0.1-0.7,0.3-1c0.2-0.3,0.4-0.5,0.8-0.6    c0.3-0.1,0.7-0.2,1.2-0.3c0.5-0.1,1-0.1,1.5-0.1v-0.1c0-0.2,0-0.4-0.1-0.5c-0.1-0.1-0.2-0.2-0.3-0.3c-0.1-0.1-0.3-0.1-0.5-0.2    c-0.2,0-0.4,0-0.6,0c-0.2,0-0.5,0-0.8,0.1s-0.6,0.2-0.9,0.3h0v-0.9c0.2,0,0.4-0.1,0.8-0.2s0.7-0.1,1-0.1c0.4,0,0.7,0,1,0.1    s0.5,0.2,0.7,0.3c0.2,0.1,0.4,0.3,0.5,0.6c0.1,0.2,0.2,0.5,0.2,0.9V193.5z M171,192.2v-1.5c-0.3,0-0.6,0-1,0.1    c-0.4,0-0.7,0.1-0.9,0.1c-0.3,0.1-0.5,0.2-0.6,0.3c-0.2,0.2-0.2,0.4-0.2,0.7c0,0.3,0.1,0.5,0.3,0.7c0.2,0.2,0.5,0.2,0.9,0.2    c0.3,0,0.6-0.1,0.9-0.2S170.8,192.4,171,192.2z"/> 	</g> 	<g> 		<path d="M215.9,256.1h-2.6v6.4h-1v-6.4h-2.6v-0.9h6.2V256.1z"/> 		<path d="M219.2,258L219.2,258c-0.2,0-0.3-0.1-0.4-0.1c-0.1,0-0.3,0-0.5,0c-0.3,0-0.6,0.1-0.8,0.2c-0.3,0.1-0.5,0.3-0.8,0.5v3.9    h-0.9V257h0.9v0.8c0.4-0.3,0.7-0.5,1-0.6s0.6-0.2,0.9-0.2c0.2,0,0.3,0,0.3,0c0.1,0,0.2,0,0.3,0V258z"/> 		<path d="M224.6,262.5h-0.9v-0.6c-0.3,0.2-0.6,0.4-0.9,0.6c-0.3,0.1-0.6,0.2-0.9,0.2c-0.6,0-1-0.2-1.3-0.5    c-0.3-0.3-0.5-0.9-0.5-1.5V257h0.9v3.1c0,0.3,0,0.5,0,0.7c0,0.2,0.1,0.4,0.2,0.5c0.1,0.1,0.2,0.2,0.3,0.3c0.1,0.1,0.3,0.1,0.6,0.1    c0.2,0,0.5-0.1,0.8-0.2c0.3-0.1,0.5-0.3,0.8-0.5V257h0.9V262.5z"/> 		<path d="M230.4,262.2c-0.3,0.1-0.6,0.3-0.9,0.3s-0.6,0.1-0.9,0.1c-0.4,0-0.8-0.1-1.1-0.2c-0.3-0.1-0.6-0.3-0.8-0.5    c-0.2-0.2-0.4-0.5-0.6-0.9c-0.1-0.4-0.2-0.8-0.2-1.3c0-0.9,0.2-1.6,0.7-2.1c0.5-0.5,1.1-0.8,1.9-0.8c0.3,0,0.6,0,0.9,0.1    s0.6,0.2,0.8,0.3v1h0c-0.3-0.2-0.6-0.4-0.9-0.5s-0.6-0.2-0.9-0.2c-0.5,0-0.9,0.2-1.2,0.5s-0.5,0.9-0.5,1.5c0,0.7,0.1,1.2,0.4,1.5    c0.3,0.4,0.7,0.5,1.2,0.5c0.2,0,0.4,0,0.6-0.1c0.2,0,0.4-0.1,0.5-0.2c0.1-0.1,0.3-0.1,0.4-0.2c0.1-0.1,0.2-0.1,0.3-0.2h0V262.2z"/> 		<path d="M236.1,262.5h-0.9v-3.1c0-0.3,0-0.5,0-0.7s-0.1-0.4-0.2-0.5c-0.1-0.1-0.2-0.2-0.4-0.3c-0.2-0.1-0.4-0.1-0.6-0.1    c-0.3,0-0.5,0.1-0.8,0.2s-0.5,0.3-0.8,0.5v4.1h-0.9v-7.6h0.9v2.8c0.3-0.2,0.6-0.4,0.9-0.6c0.3-0.1,0.6-0.2,0.9-0.2    c0.6,0,1,0.2,1.3,0.5c0.3,0.4,0.5,0.9,0.5,1.5V262.5z"/> 		<path d="M242.1,262.5h-0.9v-0.6c-0.1,0.1-0.2,0.1-0.3,0.2c-0.1,0.1-0.3,0.2-0.4,0.2c-0.2,0.1-0.3,0.1-0.5,0.2    c-0.2,0-0.4,0.1-0.7,0.1c-0.5,0-0.9-0.2-1.2-0.5c-0.3-0.3-0.5-0.7-0.5-1.2c0-0.4,0.1-0.7,0.3-1c0.2-0.3,0.4-0.5,0.8-0.6    c0.3-0.1,0.7-0.2,1.2-0.3c0.5-0.1,1-0.1,1.5-0.1v-0.1c0-0.2,0-0.4-0.1-0.5c-0.1-0.1-0.2-0.2-0.3-0.3c-0.1-0.1-0.3-0.1-0.5-0.2    c-0.2,0-0.4,0-0.6,0c-0.2,0-0.5,0-0.8,0.1c-0.3,0.1-0.6,0.2-0.9,0.3h0v-0.9c0.2,0,0.4-0.1,0.8-0.2c0.3-0.1,0.7-0.1,1-0.1    c0.4,0,0.7,0,1,0.1c0.3,0.1,0.5,0.2,0.7,0.3c0.2,0.1,0.4,0.3,0.5,0.6c0.1,0.2,0.2,0.5,0.2,0.9V262.5z M241.2,261.2v-1.5    c-0.3,0-0.6,0-1,0.1c-0.4,0-0.7,0.1-0.9,0.1c-0.3,0.1-0.5,0.2-0.6,0.3c-0.2,0.2-0.2,0.4-0.2,0.7c0,0.3,0.1,0.5,0.3,0.7    s0.5,0.2,0.9,0.2c0.3,0,0.6-0.1,0.9-0.2C240.8,261.5,241,261.3,241.2,261.2z"/> 		<path d="M247.5,260c0.2,0.2,0.3,0.6,0.3,1c0,0.5-0.2,0.9-0.6,1.2c-0.4,0.3-1,0.5-1.7,0.5c-0.4,0-0.8,0-1.1-0.1    c-0.3-0.1-0.6-0.2-0.8-0.3v-1h0c0.3,0.2,0.6,0.4,1,0.5s0.7,0.2,1,0.2c0.4,0,0.7-0.1,0.9-0.2c0.2-0.1,0.3-0.3,0.3-0.6    c0-0.2-0.1-0.4-0.2-0.5c-0.1-0.1-0.4-0.2-0.7-0.3c-0.1,0-0.3-0.1-0.5-0.1s-0.4-0.1-0.6-0.1c-0.5-0.1-0.8-0.3-1-0.6    s-0.3-0.5-0.3-0.9c0-0.2,0-0.4,0.1-0.6c0.1-0.2,0.2-0.4,0.4-0.5c0.2-0.2,0.4-0.3,0.7-0.4s0.6-0.1,0.9-0.1c0.3,0,0.7,0,1,0.1    c0.3,0.1,0.6,0.2,0.8,0.3v1h0c-0.2-0.2-0.5-0.3-0.9-0.4c-0.3-0.1-0.7-0.2-1-0.2c-0.3,0-0.6,0.1-0.8,0.2c-0.2,0.1-0.3,0.3-0.3,0.6    c0,0.2,0.1,0.4,0.2,0.5c0.1,0.1,0.4,0.2,0.7,0.3c0.2,0,0.4,0.1,0.6,0.1s0.4,0.1,0.5,0.1C246.9,259.6,247.2,259.7,247.5,260    L247.5,260z"/> 	</g> 	<g> 		<path d="M70.4,257.1h-4.8v-7.3h4.8v0.9h-3.8v2h3.8v0.9h-3.8v2.7h3.8V257.1z"/> 		<path d="M76.4,257.1h-0.9V254c0-0.3,0-0.5,0-0.7s-0.1-0.4-0.2-0.5c-0.1-0.1-0.2-0.2-0.4-0.3c-0.2-0.1-0.4-0.1-0.6-0.1    c-0.3,0-0.5,0.1-0.8,0.2c-0.3,0.1-0.5,0.3-0.8,0.5v4.1h-0.9v-5.5h0.9v0.6c0.3-0.2,0.6-0.4,0.9-0.6c0.3-0.1,0.6-0.2,0.9-0.2    c0.6,0,1,0.2,1.3,0.5c0.3,0.4,0.5,0.9,0.5,1.5V257.1z"/> 		<path d="M82.2,256.7c-0.3,0.1-0.6,0.3-0.9,0.3s-0.6,0.1-0.9,0.1c-0.4,0-0.8-0.1-1.1-0.2c-0.3-0.1-0.6-0.3-0.8-0.5    c-0.2-0.2-0.4-0.5-0.6-0.9c-0.1-0.4-0.2-0.8-0.2-1.3c0-0.9,0.2-1.6,0.7-2.1c0.5-0.5,1.1-0.8,1.9-0.8c0.3,0,0.6,0,0.9,0.1    c0.3,0.1,0.6,0.2,0.8,0.3v1h0c-0.3-0.2-0.6-0.4-0.9-0.5c-0.3-0.1-0.6-0.2-0.9-0.2c-0.5,0-0.9,0.2-1.2,0.5s-0.5,0.9-0.5,1.5    c0,0.7,0.1,1.2,0.4,1.5s0.7,0.5,1.2,0.5c0.2,0,0.4,0,0.6-0.1s0.4-0.1,0.5-0.2c0.1-0.1,0.3-0.1,0.4-0.2c0.1-0.1,0.2-0.1,0.3-0.2h0    V256.7z"/> 		<path d="M84.3,250.7h-1v-1h1V250.7z M84.3,257.1h-0.9v-5.5h0.9V257.1z"/> 		<path d="M90.6,257.1h-0.9V254c0-0.3,0-0.5,0-0.7s-0.1-0.4-0.2-0.5c-0.1-0.1-0.2-0.2-0.4-0.3c-0.2-0.1-0.4-0.1-0.6-0.1    c-0.3,0-0.5,0.1-0.8,0.2c-0.3,0.1-0.5,0.3-0.8,0.5v4.1h-0.9v-5.5H87v0.6c0.3-0.2,0.6-0.4,0.9-0.6c0.3-0.1,0.6-0.2,0.9-0.2    c0.6,0,1,0.2,1.3,0.5c0.3,0.4,0.5,0.9,0.5,1.5V257.1z"/> 		<path d="M97,254.4h-4c0,0.3,0.1,0.6,0.2,0.9c0.1,0.2,0.2,0.5,0.4,0.6c0.2,0.2,0.4,0.3,0.6,0.4s0.5,0.1,0.8,0.1    c0.4,0,0.7-0.1,1.1-0.2c0.4-0.1,0.6-0.3,0.8-0.4h0v1c-0.3,0.1-0.6,0.2-0.9,0.3s-0.7,0.1-1,0.1c-0.9,0-1.6-0.2-2.1-0.7    c-0.5-0.5-0.8-1.2-0.8-2.1c0-0.9,0.2-1.6,0.7-2.1s1.1-0.8,1.9-0.8c0.7,0,1.3,0.2,1.7,0.6c0.4,0.4,0.6,1,0.6,1.8V254.4z     M96.1,253.7c0-0.5-0.1-0.9-0.4-1.1c-0.2-0.3-0.6-0.4-1.1-0.4c-0.5,0-0.9,0.1-1.2,0.4s-0.5,0.7-0.5,1.1H96.1z"/> 		<path d="M102.8,257.1h-0.9v-0.6c-0.3,0.2-0.5,0.4-0.8,0.5c-0.3,0.1-0.6,0.2-0.9,0.2c-0.7,0-1.2-0.3-1.5-0.8    c-0.4-0.5-0.6-1.2-0.6-2.1c0-0.5,0.1-0.9,0.2-1.2c0.1-0.4,0.3-0.7,0.5-0.9c0.2-0.2,0.5-0.4,0.8-0.6c0.3-0.1,0.6-0.2,0.9-0.2    c0.3,0,0.5,0,0.8,0.1s0.5,0.2,0.7,0.3v-2.4h0.9V257.1z M101.9,255.7v-3.1c-0.2-0.1-0.5-0.2-0.7-0.2c-0.2,0-0.4-0.1-0.6-0.1    c-0.5,0-0.9,0.2-1.2,0.5c-0.3,0.4-0.4,0.9-0.4,1.5c0,0.6,0.1,1.1,0.3,1.5c0.2,0.3,0.6,0.5,1.1,0.5c0.3,0,0.5-0.1,0.8-0.2    C101.4,256,101.6,255.9,101.9,255.7z"/> 		<path d="M109.2,254.3c0,0.9-0.2,1.6-0.7,2.1c-0.5,0.5-1.1,0.8-1.8,0.8c-0.8,0-1.4-0.3-1.8-0.8c-0.5-0.5-0.7-1.2-0.7-2.1    c0-0.9,0.2-1.6,0.7-2.1c0.5-0.5,1.1-0.8,1.8-0.8c0.8,0,1.4,0.3,1.8,0.8C109,252.7,109.2,253.4,109.2,254.3z M108.3,254.3    c0-0.7-0.1-1.2-0.4-1.6s-0.7-0.5-1.2-0.5c-0.5,0-0.9,0.2-1.2,0.5s-0.4,0.9-0.4,1.6c0,0.7,0.1,1.2,0.4,1.6s0.7,0.5,1.2,0.5    c0.5,0,0.9-0.2,1.1-0.5C108.1,255.5,108.3,255,108.3,254.3z"/> 	</g> 	<g> 		<path d="M328.3,315.6c-0.2,0.1-0.3,0.2-0.5,0.2c-0.1,0.1-0.3,0.1-0.6,0.2c-0.2,0.1-0.4,0.1-0.6,0.2c-0.2,0-0.5,0.1-0.8,0.1    c-0.5,0-1-0.1-1.4-0.2c-0.4-0.1-0.8-0.4-1.1-0.7c-0.3-0.3-0.6-0.7-0.7-1.2c-0.2-0.5-0.3-1-0.3-1.7c0-0.6,0.1-1.1,0.3-1.6    c0.2-0.5,0.4-0.9,0.7-1.2c0.3-0.3,0.7-0.6,1.1-0.7s0.9-0.2,1.5-0.2c0.4,0,0.8,0,1.2,0.1s0.8,0.3,1.3,0.5v1.1h-0.1    c-0.4-0.3-0.8-0.6-1.2-0.7c-0.4-0.2-0.8-0.2-1.3-0.2c-0.4,0-0.7,0.1-1,0.2c-0.3,0.1-0.6,0.3-0.8,0.6c-0.2,0.2-0.4,0.6-0.5,0.9    c-0.1,0.4-0.2,0.8-0.2,1.3c0,0.5,0.1,1,0.2,1.3c0.1,0.4,0.3,0.7,0.5,0.9c0.2,0.2,0.5,0.4,0.8,0.5c0.3,0.1,0.6,0.2,1,0.2    c0.5,0,0.9-0.1,1.3-0.2c0.4-0.2,0.8-0.4,1.1-0.7h0.1V315.6z"/> 		<path d="M333.8,316.1h-0.9v-0.6c-0.1,0.1-0.2,0.1-0.3,0.2c-0.1,0.1-0.3,0.2-0.4,0.2c-0.2,0.1-0.3,0.1-0.5,0.2    c-0.2,0-0.4,0.1-0.7,0.1c-0.5,0-0.9-0.2-1.2-0.5c-0.3-0.3-0.5-0.7-0.5-1.2c0-0.4,0.1-0.7,0.3-1c0.2-0.3,0.4-0.5,0.8-0.6    c0.3-0.1,0.7-0.2,1.2-0.3c0.5-0.1,1-0.1,1.5-0.1v-0.1c0-0.2,0-0.4-0.1-0.5s-0.2-0.2-0.3-0.3c-0.1-0.1-0.3-0.1-0.5-0.2    c-0.2,0-0.4,0-0.6,0c-0.2,0-0.5,0-0.8,0.1c-0.3,0.1-0.6,0.2-0.9,0.3h0v-0.9c0.2,0,0.4-0.1,0.8-0.2c0.3-0.1,0.7-0.1,1-0.1    c0.4,0,0.7,0,1,0.1c0.3,0.1,0.5,0.2,0.7,0.3c0.2,0.1,0.4,0.3,0.5,0.6c0.1,0.2,0.2,0.5,0.2,0.9V316.1z M332.9,314.8v-1.5    c-0.3,0-0.6,0-1,0.1c-0.4,0-0.7,0.1-0.9,0.1c-0.3,0.1-0.5,0.2-0.6,0.3c-0.2,0.2-0.2,0.4-0.2,0.7c0,0.3,0.1,0.5,0.3,0.7    s0.5,0.2,0.9,0.2c0.3,0,0.6-0.1,0.9-0.2C332.4,315.1,332.7,314.9,332.9,314.8z"/> 		<path d="M339.2,313.6c0.2,0.2,0.3,0.6,0.3,1c0,0.5-0.2,0.9-0.6,1.2c-0.4,0.3-1,0.5-1.7,0.5c-0.4,0-0.8,0-1.1-0.1    c-0.3-0.1-0.6-0.2-0.8-0.3v-1h0c0.3,0.2,0.6,0.4,1,0.5s0.7,0.2,1,0.2c0.4,0,0.7-0.1,0.9-0.2c0.2-0.1,0.3-0.3,0.3-0.6    c0-0.2-0.1-0.4-0.2-0.5c-0.1-0.1-0.4-0.2-0.7-0.3c-0.1,0-0.3-0.1-0.5-0.1s-0.4-0.1-0.6-0.1c-0.5-0.1-0.8-0.3-1-0.6    s-0.3-0.5-0.3-0.9c0-0.2,0-0.4,0.1-0.6c0.1-0.2,0.2-0.4,0.4-0.5c0.2-0.2,0.4-0.3,0.7-0.4s0.6-0.1,0.9-0.1c0.3,0,0.7,0,1,0.1    c0.3,0.1,0.6,0.2,0.8,0.3v1h0c-0.2-0.2-0.5-0.3-0.9-0.4c-0.3-0.1-0.7-0.2-1-0.2c-0.3,0-0.6,0.1-0.8,0.2c-0.2,0.1-0.3,0.3-0.3,0.6    c0,0.2,0.1,0.4,0.2,0.5c0.1,0.1,0.4,0.2,0.7,0.3c0.2,0,0.4,0.1,0.6,0.1c0.2,0,0.4,0.1,0.5,0.1    C338.6,313.2,338.9,313.3,339.2,313.6L339.2,313.6z"/> 		<path d="M343.6,316.1c-0.2,0-0.4,0.1-0.6,0.1s-0.4,0-0.5,0c-0.6,0-1-0.1-1.3-0.4c-0.3-0.3-0.4-0.8-0.4-1.4v-2.9h-0.6v-0.8h0.6    v-1.6h0.9v1.6h1.9v0.8h-1.9v2.5c0,0.3,0,0.5,0,0.7c0,0.2,0.1,0.3,0.1,0.5c0.1,0.1,0.2,0.2,0.3,0.3c0.1,0.1,0.3,0.1,0.6,0.1    c0.1,0,0.3,0,0.5-0.1c0.2,0,0.3-0.1,0.4-0.1h0V316.1z"/> 		<path d="M348.1,311.7L348.1,311.7c-0.2,0-0.3-0.1-0.4-0.1c-0.1,0-0.3,0-0.5,0c-0.3,0-0.6,0.1-0.8,0.2c-0.3,0.1-0.5,0.3-0.8,0.5    v3.9h-0.9v-5.5h0.9v0.8c0.4-0.3,0.7-0.5,1-0.6c0.3-0.1,0.6-0.2,0.9-0.2c0.2,0,0.3,0,0.3,0s0.2,0,0.3,0V311.7z"/> 		<path d="M353.7,313.4c0,0.9-0.2,1.6-0.7,2.1c-0.5,0.5-1.1,0.8-1.8,0.8c-0.8,0-1.4-0.3-1.8-0.8c-0.5-0.5-0.7-1.2-0.7-2.1    c0-0.9,0.2-1.6,0.7-2.1c0.5-0.5,1.1-0.8,1.8-0.8c0.8,0,1.4,0.3,1.8,0.8C353.4,311.8,353.7,312.5,353.7,313.4z M352.7,313.4    c0-0.7-0.1-1.2-0.4-1.6s-0.7-0.5-1.2-0.5c-0.5,0-0.9,0.2-1.2,0.5c-0.3,0.3-0.4,0.9-0.4,1.6c0,0.7,0.1,1.2,0.4,1.6    c0.3,0.4,0.7,0.5,1.2,0.5c0.5,0,0.9-0.2,1.1-0.5C352.6,314.6,352.7,314.1,352.7,313.4z"/> 		<path d="M359.1,315.8c-0.3,0.1-0.6,0.3-0.9,0.3c-0.3,0.1-0.6,0.1-0.9,0.1c-0.4,0-0.8-0.1-1.1-0.2c-0.3-0.1-0.6-0.3-0.8-0.5    c-0.2-0.2-0.4-0.5-0.6-0.9s-0.2-0.8-0.2-1.3c0-0.9,0.2-1.6,0.7-2.1c0.5-0.5,1.1-0.8,1.9-0.8c0.3,0,0.6,0,0.9,0.1    c0.3,0.1,0.6,0.2,0.8,0.3v1h0c-0.3-0.2-0.6-0.4-0.9-0.5c-0.3-0.1-0.6-0.2-0.9-0.2c-0.5,0-0.9,0.2-1.2,0.5    c-0.3,0.3-0.5,0.9-0.5,1.5c0,0.7,0.1,1.2,0.4,1.5c0.3,0.4,0.7,0.5,1.2,0.5c0.2,0,0.4,0,0.6-0.1c0.2,0,0.4-0.1,0.5-0.2    c0.1-0.1,0.3-0.1,0.4-0.2c0.1-0.1,0.2-0.1,0.3-0.2h0V315.8z"/> 		<path d="M364.9,313.4c0,0.9-0.2,1.6-0.7,2.1c-0.5,0.5-1.1,0.8-1.8,0.8c-0.8,0-1.4-0.3-1.8-0.8c-0.5-0.5-0.7-1.2-0.7-2.1    c0-0.9,0.2-1.6,0.7-2.1c0.5-0.5,1.1-0.8,1.8-0.8c0.8,0,1.4,0.3,1.8,0.8C364.7,311.8,364.9,312.5,364.9,313.4z M364,313.4    c0-0.7-0.1-1.2-0.4-1.6s-0.7-0.5-1.2-0.5c-0.5,0-0.9,0.2-1.2,0.5c-0.3,0.3-0.4,0.9-0.4,1.6c0,0.7,0.1,1.2,0.4,1.6    c0.3,0.4,0.7,0.5,1.2,0.5c0.5,0,0.9-0.2,1.1-0.5C363.8,314.6,364,314.1,364,313.4z"/> 		<path d="M370.9,316.1H370V313c0-0.3,0-0.5,0-0.7s-0.1-0.4-0.2-0.5c-0.1-0.1-0.2-0.2-0.4-0.3c-0.2-0.1-0.4-0.1-0.6-0.1    c-0.3,0-0.5,0.1-0.8,0.2c-0.3,0.1-0.5,0.3-0.8,0.5v4.1h-0.9v-5.5h0.9v0.6c0.3-0.2,0.6-0.4,0.9-0.6c0.3-0.1,0.6-0.2,0.9-0.2    c0.6,0,1,0.2,1.3,0.5c0.3,0.4,0.5,0.9,0.5,1.5V316.1z"/> 		<path d="M375.5,316.1c-0.2,0-0.4,0.1-0.6,0.1c-0.2,0-0.4,0-0.5,0c-0.6,0-1-0.1-1.3-0.4c-0.3-0.3-0.4-0.8-0.4-1.4v-2.9h-0.6v-0.8    h0.6v-1.6h0.9v1.6h1.9v0.8h-1.9v2.5c0,0.3,0,0.5,0,0.7s0.1,0.3,0.1,0.5c0.1,0.1,0.2,0.2,0.3,0.3s0.3,0.1,0.6,0.1    c0.2,0,0.3,0,0.5-0.1s0.3-0.1,0.4-0.1h0V316.1z"/> 		<path d="M380,311.7L380,311.7c-0.2,0-0.3-0.1-0.4-0.1c-0.1,0-0.3,0-0.5,0c-0.3,0-0.6,0.1-0.8,0.2c-0.3,0.1-0.5,0.3-0.8,0.5v3.9    h-0.9v-5.5h0.9v0.8c0.4-0.3,0.7-0.5,1-0.6s0.6-0.2,0.9-0.2c0.2,0,0.3,0,0.3,0s0.2,0,0.3,0V311.7z"/> 		<path d="M381.9,309.7h-1v-1h1V309.7z M381.8,316.1h-0.9v-5.5h0.9V316.1z"/> 		<path d="M388,315.5c0,0.9-0.2,1.6-0.6,2c-0.4,0.4-1.1,0.7-1.9,0.7c-0.3,0-0.6,0-0.8-0.1c-0.3,0-0.5-0.1-0.8-0.2V317h0    c0.1,0.1,0.4,0.1,0.7,0.2c0.3,0.1,0.7,0.1,1,0.1c0.3,0,0.6,0,0.8-0.1s0.4-0.2,0.5-0.3c0.1-0.1,0.2-0.3,0.2-0.5    c0-0.2,0.1-0.4,0.1-0.6v-0.5c-0.3,0.2-0.5,0.4-0.8,0.5c-0.3,0.1-0.6,0.2-1,0.2c-0.7,0-1.2-0.2-1.5-0.7s-0.6-1.1-0.6-2    c0-0.5,0.1-0.9,0.2-1.2s0.3-0.6,0.5-0.9c0.2-0.2,0.5-0.4,0.8-0.5s0.6-0.2,0.9-0.2c0.3,0,0.6,0,0.8,0.1c0.2,0.1,0.4,0.2,0.7,0.3    l0.1-0.2h0.9V315.5z M387.1,314.6v-3c-0.2-0.1-0.5-0.2-0.7-0.2c-0.2,0-0.4-0.1-0.6-0.1c-0.5,0-0.9,0.2-1.2,0.5s-0.4,0.8-0.4,1.5    c0,0.6,0.1,1.1,0.3,1.4c0.2,0.3,0.6,0.5,1.1,0.5c0.3,0,0.5-0.1,0.8-0.2C386.7,314.9,386.9,314.8,387.1,314.6z"/> 		<path d="M394.5,313.4c0,0.9-0.2,1.6-0.7,2.1c-0.5,0.5-1.1,0.8-1.8,0.8c-0.8,0-1.4-0.3-1.8-0.8c-0.5-0.5-0.7-1.2-0.7-2.1    c0-0.9,0.2-1.6,0.7-2.1c0.5-0.5,1.1-0.8,1.8-0.8c0.8,0,1.4,0.3,1.8,0.8C394.3,311.8,394.5,312.5,394.5,313.4z M393.5,313.4    c0-0.7-0.1-1.2-0.4-1.6s-0.7-0.5-1.2-0.5c-0.5,0-0.9,0.2-1.2,0.5c-0.3,0.3-0.4,0.9-0.4,1.6c0,0.7,0.1,1.2,0.4,1.6    c0.3,0.4,0.7,0.5,1.2,0.5c0.5,0,0.9-0.2,1.1-0.5C393.4,314.6,393.5,314.1,393.5,313.4z"/> 	</g> 	<g> 		<path d="M134.5,49.8c0,0.4-0.1,0.7-0.2,0.9s-0.3,0.5-0.6,0.7c-0.3,0.2-0.6,0.4-0.9,0.5S132,52,131.4,52h-3.2v-7.3h2.8    c0.6,0,1,0,1.3,0.1s0.5,0.1,0.8,0.3c0.3,0.1,0.5,0.3,0.6,0.6s0.2,0.5,0.2,0.8c0,0.4-0.1,0.7-0.3,0.9s-0.4,0.5-0.8,0.6v0    c0.5,0.1,0.9,0.3,1.1,0.6S134.5,49.3,134.5,49.8z M132.1,46.8c0-0.1,0-0.2-0.1-0.4s-0.2-0.2-0.3-0.3c-0.1-0.1-0.3-0.1-0.5-0.1    s-0.5,0-0.9,0h-0.2v1.5h0.3c0.3,0,0.5,0,0.8,0s0.4,0,0.5-0.1c0.2-0.1,0.3-0.2,0.3-0.3S132.1,46.9,132.1,46.8z M132.5,49.7    c0-0.2,0-0.4-0.1-0.5s-0.2-0.2-0.5-0.3c-0.1,0-0.3-0.1-0.6-0.1s-0.5,0-0.8,0h-0.4v1.8h0.1c0.5,0,0.9,0,1.1,0c0.2,0,0.4,0,0.6-0.1    c0.2-0.1,0.3-0.2,0.4-0.3C132.5,50.1,132.5,49.9,132.5,49.7z"/> 		<path d="M137.6,45.7h-1.9v-1.3h1.9V45.7z M137.5,52h-1.8v-5.5h1.8V52z"/> 		<path d="M144.6,49.6h-4c0,0.4,0.2,0.8,0.5,1s0.7,0.3,1.3,0.3c0.4,0,0.7-0.1,1.1-0.2s0.6-0.3,0.8-0.4h0.2v1.4    c-0.4,0.2-0.8,0.3-1.1,0.3s-0.7,0.1-1.2,0.1c-1.1,0-1.9-0.2-2.5-0.7s-0.9-1.2-0.9-2.1c0-0.9,0.3-1.6,0.8-2.2s1.3-0.8,2.3-0.8    c0.9,0,1.6,0.2,2,0.7s0.7,1.1,0.7,1.9V49.6z M142.9,48.6c0-0.4-0.1-0.6-0.3-0.8s-0.4-0.3-0.8-0.3c-0.3,0-0.6,0.1-0.8,0.3    s-0.3,0.5-0.4,0.8H142.9z"/> 		<path d="M149.8,48.2h-0.2c-0.1,0-0.2,0-0.4-0.1c-0.2,0-0.3,0-0.4,0c-0.3,0-0.5,0-0.7,0c-0.2,0-0.4,0.1-0.6,0.2V52h-1.8v-5.5h1.8    v0.8c0.4-0.3,0.7-0.6,1-0.7c0.3-0.1,0.5-0.2,0.8-0.2c0.1,0,0.1,0,0.2,0s0.1,0,0.2,0V48.2z"/> 		<path d="M155.5,52h-5.2v-1.1l2.9-3.1h-2.8v-1.3h5v1.1l-2.8,3.1h2.9V52z"/> 		<path d="M162.4,49.3c0,0.9-0.3,1.6-0.8,2.1s-1.3,0.8-2.2,0.8s-1.7-0.3-2.2-0.8s-0.8-1.2-0.8-2.1c0-0.9,0.3-1.6,0.8-2.1    s1.3-0.8,2.2-0.8c1,0,1.7,0.3,2.2,0.8S162.4,48.4,162.4,49.3z M160.2,50.6c0.1-0.1,0.2-0.3,0.3-0.5s0.1-0.5,0.1-0.8    c0-0.3,0-0.6-0.1-0.8s-0.1-0.4-0.2-0.5c-0.1-0.1-0.2-0.2-0.4-0.3s-0.3-0.1-0.5-0.1s-0.3,0-0.5,0.1s-0.3,0.1-0.4,0.3    c-0.1,0.1-0.2,0.3-0.3,0.5s-0.1,0.5-0.1,0.8c0,0.3,0,0.6,0.1,0.8s0.1,0.4,0.2,0.5c0.1,0.1,0.2,0.2,0.4,0.3s0.3,0.1,0.5,0.1    c0.2,0,0.3,0,0.5-0.1S160.1,50.7,160.2,50.6z"/> 	</g> 	<g> 		<path d="M312.5,95.4c-0.1,0.1-0.2,0.2-0.4,0.3s-0.3,0.2-0.4,0.2c-0.2,0.1-0.4,0.1-0.5,0.2s-0.4,0.1-0.6,0.1c-0.5,0-1-0.2-1.3-0.5    s-0.5-0.7-0.5-1.2c0-0.4,0.1-0.7,0.3-1s0.4-0.5,0.8-0.6c0.3-0.1,0.7-0.3,1.2-0.3s1-0.1,1.5-0.1v0c0-0.3-0.1-0.5-0.4-0.6    s-0.6-0.2-1.1-0.2c-0.3,0-0.6,0.1-0.9,0.2s-0.6,0.2-0.7,0.2h-0.2v-1.3c0.2,0,0.5-0.1,0.9-0.2c0.4-0.1,0.8-0.1,1.3-0.1    c1,0,1.7,0.2,2.2,0.5c0.4,0.3,0.7,0.8,0.7,1.4V96h-1.7V95.4z M313.4,87.8L313.4,87.8l-1.7,1.9h-1.2l1.2-1.9H313.4z M312.5,94.6    v-1.1c-0.2,0-0.5,0-0.8,0.1c-0.3,0-0.5,0.1-0.6,0.1c-0.2,0.1-0.3,0.1-0.4,0.2c-0.1,0.1-0.1,0.2-0.1,0.4c0,0.1,0,0.2,0,0.3    c0,0.1,0.1,0.1,0.1,0.2c0.1,0.1,0.2,0.1,0.3,0.1s0.3,0,0.5,0c0.2,0,0.4,0,0.5-0.1C312.2,94.8,312.3,94.7,312.5,94.6z"/> 		<path d="M319.8,92.2h-0.2c-0.1,0-0.2,0-0.4-0.1s-0.3,0-0.4,0c-0.3,0-0.5,0-0.7,0s-0.4,0.1-0.6,0.2V96h-1.8v-5.5h1.8v0.8    c0.4-0.3,0.7-0.6,1-0.7c0.3-0.1,0.5-0.2,0.8-0.2c0.1,0,0.1,0,0.2,0s0.1,0,0.2,0V92.2z"/> 		<path d="M326.2,93.6h-4c0,0.4,0.2,0.8,0.5,1c0.3,0.2,0.7,0.3,1.3,0.3c0.4,0,0.7-0.1,1.1-0.2s0.6-0.3,0.8-0.4h0.2v1.4    c-0.4,0.2-0.8,0.3-1.1,0.3s-0.7,0.1-1.2,0.1c-1.1,0-1.9-0.2-2.5-0.7s-0.9-1.2-0.9-2.1c0-0.9,0.3-1.6,0.8-2.2    c0.6-0.5,1.3-0.8,2.3-0.8c0.9,0,1.6,0.2,2,0.7s0.7,1.1,0.7,1.9V93.6z M324.5,92.6c0-0.4-0.1-0.6-0.3-0.8s-0.4-0.3-0.8-0.3    c-0.3,0-0.6,0.1-0.8,0.3s-0.3,0.5-0.4,0.8H324.5z"/> 		<path d="M330.8,95.4c-0.1,0.1-0.2,0.2-0.4,0.3s-0.3,0.2-0.4,0.2c-0.2,0.1-0.4,0.1-0.5,0.2s-0.4,0.1-0.6,0.1c-0.5,0-1-0.2-1.3-0.5    s-0.5-0.7-0.5-1.2c0-0.4,0.1-0.7,0.3-1s0.4-0.5,0.8-0.6c0.3-0.1,0.7-0.3,1.2-0.3s1-0.1,1.5-0.1v0c0-0.3-0.1-0.5-0.4-0.6    s-0.6-0.2-1.1-0.2c-0.3,0-0.6,0.1-0.9,0.2s-0.6,0.2-0.7,0.2h-0.2v-1.3c0.2,0,0.5-0.1,0.9-0.2c0.4-0.1,0.8-0.1,1.3-0.1    c1,0,1.7,0.2,2.2,0.5c0.4,0.3,0.7,0.8,0.7,1.4V96h-1.7V95.4z M330.8,94.6v-1.1c-0.2,0-0.5,0-0.8,0.1c-0.3,0-0.5,0.1-0.6,0.1    c-0.2,0.1-0.3,0.1-0.4,0.2c-0.1,0.1-0.1,0.2-0.1,0.4c0,0.1,0,0.2,0,0.3c0,0.1,0.1,0.1,0.1,0.2c0.1,0.1,0.2,0.1,0.3,0.1    s0.3,0,0.5,0c0.2,0,0.4,0,0.5-0.1C330.5,94.8,330.6,94.7,330.8,94.6z"/> 		<path d="M342.9,96h-1.8v-0.6c-0.3,0.2-0.6,0.4-0.8,0.5s-0.6,0.2-0.9,0.2c-0.7,0-1.2-0.3-1.6-0.8c-0.4-0.5-0.6-1.2-0.6-2.1    c0-0.5,0.1-0.9,0.2-1.2s0.3-0.7,0.6-0.9c0.2-0.2,0.5-0.4,0.8-0.6s0.6-0.2,0.9-0.2c0.3,0,0.6,0,0.8,0.1c0.2,0.1,0.4,0.2,0.6,0.3    v-2.3h1.8V96z M341.1,94.5v-2.7c-0.1-0.1-0.3-0.1-0.4-0.1c-0.1,0-0.3,0-0.4,0c-0.5,0-0.8,0.1-1,0.4s-0.3,0.7-0.3,1.2    c0,0.5,0.1,0.9,0.3,1.2c0.2,0.2,0.5,0.4,0.9,0.4c0.2,0,0.3,0,0.5-0.1C340.8,94.7,341,94.6,341.1,94.5z"/> 		<path d="M349.9,93.6h-4c0,0.4,0.2,0.8,0.5,1c0.3,0.2,0.7,0.3,1.3,0.3c0.4,0,0.7-0.1,1.1-0.2s0.6-0.3,0.8-0.4h0.2v1.4    c-0.4,0.2-0.8,0.3-1.1,0.3s-0.7,0.1-1.2,0.1c-1.1,0-1.9-0.2-2.5-0.7s-0.9-1.2-0.9-2.1c0-0.9,0.3-1.6,0.8-2.2    c0.6-0.5,1.3-0.8,2.3-0.8c0.9,0,1.6,0.2,2,0.7s0.7,1.1,0.7,1.9V93.6z M348.2,92.6c0-0.4-0.1-0.6-0.3-0.8s-0.4-0.3-0.8-0.3    c-0.3,0-0.6,0.1-0.8,0.3s-0.3,0.5-0.4,0.8H348.2z"/> 		<path d="M361.4,96h-1.9l-0.5-1.5h-2.7l-0.5,1.5h-1.9l2.7-7.3h2.2L361.4,96z M358.5,93.2l-0.9-2.6l-0.9,2.6H358.5z"/> 		<path d="M367.1,94.3c0,0.6-0.3,1-0.8,1.4s-1.2,0.5-2.1,0.5c-0.5,0-0.9,0-1.3-0.1s-0.7-0.2-1-0.3v-1.4h0.2c0.1,0.1,0.2,0.1,0.3,0.2    c0.1,0.1,0.3,0.2,0.5,0.2c0.2,0.1,0.4,0.1,0.6,0.2s0.5,0.1,0.7,0.1c0.3,0,0.6,0,0.8-0.1s0.2-0.2,0.2-0.3c0-0.1,0-0.2-0.1-0.3    s-0.3-0.1-0.6-0.2c-0.1,0-0.3-0.1-0.5-0.1c-0.2,0-0.4-0.1-0.6-0.1c-0.5-0.1-0.9-0.3-1.1-0.6s-0.4-0.6-0.4-1c0-0.5,0.3-1,0.7-1.3    c0.5-0.4,1.2-0.5,2-0.5c0.4,0,0.8,0,1.2,0.1c0.4,0.1,0.7,0.2,0.9,0.3v1.4h-0.2c-0.3-0.2-0.6-0.3-0.9-0.4c-0.3-0.1-0.7-0.2-1-0.2    c-0.3,0-0.5,0-0.7,0.1c-0.2,0.1-0.3,0.2-0.3,0.3c0,0.1,0,0.2,0.1,0.3s0.3,0.1,0.6,0.2c0.2,0,0.4,0.1,0.6,0.1    c0.2,0,0.4,0.1,0.6,0.1c0.5,0.1,0.8,0.3,1,0.6S367.1,93.9,367.1,94.3z"/> 		<path d="M371.8,96c-0.2,0-0.4,0.1-0.6,0.1c-0.2,0-0.5,0-0.8,0c-0.7,0-1.2-0.1-1.5-0.4c-0.3-0.3-0.5-0.8-0.5-1.4v-2.6h-0.7v-1.2    h0.7v-1.6h1.8v1.6h1.6v1.2h-1.6v1.9c0,0.2,0,0.4,0,0.5c0,0.1,0,0.3,0.1,0.4c0,0.1,0.1,0.2,0.2,0.3s0.3,0.1,0.5,0.1    c0.1,0,0.2,0,0.4-0.1c0.1,0,0.3-0.1,0.3-0.1h0.1V96z"/> 		<path d="M378.5,93.3c0,0.9-0.3,1.6-0.8,2.1c-0.5,0.5-1.3,0.8-2.2,0.8s-1.7-0.3-2.2-0.8c-0.5-0.5-0.8-1.2-0.8-2.1    c0-0.9,0.3-1.6,0.8-2.1c0.5-0.5,1.3-0.8,2.2-0.8c1,0,1.7,0.3,2.2,0.8C378.2,91.6,378.5,92.4,378.5,93.3z M376.3,94.6    c0.1-0.1,0.2-0.3,0.3-0.5c0.1-0.2,0.1-0.5,0.1-0.8c0-0.3,0-0.6-0.1-0.8s-0.1-0.4-0.2-0.5c-0.1-0.1-0.2-0.2-0.4-0.3    s-0.3-0.1-0.5-0.1s-0.3,0-0.5,0.1c-0.1,0-0.3,0.1-0.4,0.3c-0.1,0.1-0.2,0.3-0.3,0.5c-0.1,0.2-0.1,0.5-0.1,0.8c0,0.3,0,0.6,0.1,0.8    s0.1,0.4,0.2,0.5c0.1,0.1,0.2,0.2,0.4,0.3c0.1,0.1,0.3,0.1,0.5,0.1c0.2,0,0.3,0,0.5-0.1C376.1,94.8,376.2,94.7,376.3,94.6z"/> 		<path d="M383.7,92.2h-0.2c-0.1,0-0.2,0-0.4-0.1s-0.3,0-0.4,0c-0.3,0-0.5,0-0.7,0s-0.4,0.1-0.6,0.2V96h-1.8v-5.5h1.8v0.8    c0.4-0.3,0.7-0.6,1-0.7c0.3-0.1,0.5-0.2,0.8-0.2c0.1,0,0.1,0,0.2,0s0.1,0,0.2,0V92.2z"/> 		<path d="M390,95.4c0,0.5-0.1,0.9-0.2,1.3s-0.4,0.6-0.6,0.8c-0.3,0.2-0.6,0.3-1,0.4c-0.4,0.1-0.8,0.1-1.3,0.1c-0.4,0-0.8,0-1.1-0.1    c-0.4,0-0.7-0.1-1-0.2v-1.4h0.2c0.2,0.1,0.5,0.2,0.8,0.2s0.6,0.1,0.8,0.1c0.3,0,0.6,0,0.8-0.1s0.4-0.1,0.5-0.3    c0.1-0.1,0.2-0.2,0.2-0.4s0.1-0.4,0.1-0.6v-0.1c-0.2,0.2-0.4,0.3-0.7,0.4s-0.5,0.2-0.9,0.2c-0.8,0-1.4-0.2-1.8-0.7    s-0.6-1.2-0.6-2.1c0-0.5,0.1-0.8,0.2-1.2s0.3-0.6,0.5-0.9c0.2-0.2,0.5-0.4,0.8-0.5c0.3-0.1,0.6-0.2,1-0.2c0.3,0,0.6,0,0.8,0.1    s0.5,0.2,0.7,0.3l0.1-0.2h1.7V95.4z M388.3,94.3v-2.5c-0.1,0-0.2-0.1-0.4-0.1c-0.1,0-0.3,0-0.4,0c-0.5,0-0.8,0.1-1,0.4    s-0.3,0.6-0.3,1.1c0,0.5,0.1,0.9,0.3,1.1c0.2,0.2,0.5,0.3,0.9,0.3c0.2,0,0.3,0,0.5-0.1S388.1,94.4,388.3,94.3z"/> 		<path d="M395,95.4c-0.1,0.1-0.2,0.2-0.4,0.3s-0.3,0.2-0.4,0.2c-0.2,0.1-0.4,0.1-0.5,0.2s-0.4,0.1-0.6,0.1c-0.5,0-1-0.2-1.3-0.5    s-0.5-0.7-0.5-1.2c0-0.4,0.1-0.7,0.3-1s0.4-0.5,0.8-0.6c0.3-0.1,0.7-0.3,1.2-0.3s1-0.1,1.5-0.1v0c0-0.3-0.1-0.5-0.4-0.6    s-0.6-0.2-1.1-0.2c-0.3,0-0.6,0.1-0.9,0.2s-0.6,0.2-0.7,0.2h-0.2v-1.3c0.2,0,0.5-0.1,0.9-0.2c0.4-0.1,0.8-0.1,1.3-0.1    c1,0,1.7,0.2,2.2,0.5c0.4,0.3,0.7,0.8,0.7,1.4V96H395V95.4z M395,94.6v-1.1c-0.2,0-0.5,0-0.8,0.1c-0.3,0-0.5,0.1-0.6,0.1    c-0.2,0.1-0.3,0.1-0.4,0.2c-0.1,0.1-0.1,0.2-0.1,0.4c0,0.1,0,0.2,0,0.3c0,0.1,0.1,0.1,0.1,0.2c0.1,0.1,0.2,0.1,0.3,0.1    s0.3,0,0.5,0c0.2,0,0.4,0,0.5-0.1C394.7,94.8,394.9,94.7,395,94.6z"/> 	</g> 	<g> 		<path d="M186.2,386.7h-6.1v-1.4l3.6-4.5h-3.4v-1.4h5.7v1.4l-3.6,4.5h3.8V386.7z"/> 		<path d="M190.7,386.1c-0.1,0.1-0.2,0.2-0.4,0.3c-0.1,0.1-0.3,0.2-0.4,0.2c-0.2,0.1-0.4,0.1-0.5,0.2s-0.4,0.1-0.6,0.1    c-0.5,0-1-0.2-1.3-0.5s-0.5-0.7-0.5-1.2c0-0.4,0.1-0.7,0.3-1s0.4-0.5,0.8-0.6c0.3-0.1,0.7-0.3,1.2-0.3c0.5-0.1,1-0.1,1.5-0.1v0    c0-0.3-0.1-0.5-0.4-0.6s-0.6-0.2-1.1-0.2c-0.3,0-0.6,0.1-0.9,0.2s-0.6,0.2-0.7,0.2h-0.2v-1.3c0.2,0,0.5-0.1,0.9-0.2    s0.8-0.1,1.3-0.1c1,0,1.7,0.2,2.2,0.5s0.7,0.8,0.7,1.4v3.7h-1.7V386.1z M190.7,385.2v-1.1c-0.2,0-0.5,0-0.8,0.1s-0.5,0.1-0.6,0.1    c-0.2,0.1-0.3,0.1-0.4,0.2s-0.1,0.2-0.1,0.4c0,0.1,0,0.2,0,0.3c0,0.1,0.1,0.1,0.1,0.2c0.1,0.1,0.2,0.1,0.3,0.1s0.3,0,0.5,0    c0.2,0,0.4,0,0.5-0.1S190.6,385.3,190.7,385.2z"/> 		<path d="M199.5,382.8v3.9h-1.8v-2.7c0-0.3,0-0.5,0-0.7s0-0.3-0.1-0.5s-0.1-0.2-0.3-0.3s-0.3-0.1-0.5-0.1c-0.2,0-0.3,0-0.5,0.1    s-0.3,0.1-0.4,0.2v3.9h-1.8v-5.5h1.8v0.6c0.3-0.2,0.6-0.4,0.9-0.6c0.3-0.1,0.6-0.2,0.9-0.2c0.4,0,0.7,0.1,1,0.2s0.5,0.4,0.6,0.7    c0.4-0.3,0.7-0.5,1-0.7c0.3-0.2,0.7-0.3,1-0.3c0.6,0,1,0.2,1.3,0.5c0.3,0.4,0.5,0.9,0.5,1.5v3.6h-1.8v-2.7c0-0.3,0-0.5,0-0.7    s0-0.3-0.1-0.5c-0.1-0.1-0.1-0.2-0.3-0.3s-0.3-0.1-0.5-0.1c-0.1,0-0.3,0-0.4,0.1S199.7,382.7,199.5,382.8z"/> 		<path d="M210.3,383.9c0,0.9-0.3,1.6-0.8,2.1s-1.3,0.8-2.2,0.8s-1.7-0.3-2.2-0.8s-0.8-1.2-0.8-2.1c0-0.9,0.3-1.6,0.8-2.1    s1.3-0.8,2.2-0.8c1,0,1.7,0.3,2.2,0.8C210,382.3,210.3,383,210.3,383.9z M208.1,385.3c0.1-0.1,0.2-0.3,0.3-0.5s0.1-0.5,0.1-0.8    c0-0.3,0-0.6-0.1-0.8c-0.1-0.2-0.1-0.4-0.2-0.5c-0.1-0.1-0.2-0.2-0.4-0.3c-0.1-0.1-0.3-0.1-0.5-0.1s-0.3,0-0.5,0.1    c-0.1,0-0.3,0.1-0.4,0.3c-0.1,0.1-0.2,0.3-0.3,0.5c-0.1,0.2-0.1,0.5-0.1,0.8c0,0.3,0,0.6,0.1,0.8s0.1,0.4,0.2,0.5    c0.1,0.1,0.2,0.2,0.4,0.3s0.3,0.1,0.5,0.1c0.2,0,0.3,0,0.5-0.1S208,385.4,208.1,385.3z"/> 		<path d="M215.5,382.9h-0.2c-0.1,0-0.2,0-0.4-0.1c-0.2,0-0.3,0-0.4,0c-0.3,0-0.5,0-0.7,0c-0.2,0-0.4,0.1-0.6,0.2v3.7h-1.8v-5.5h1.8    v0.8c0.4-0.3,0.7-0.6,1-0.7c0.3-0.1,0.5-0.2,0.8-0.2c0.1,0,0.1,0,0.2,0c0.1,0,0.1,0,0.2,0V382.9z"/> 		<path d="M219.8,386.1c-0.1,0.1-0.2,0.2-0.4,0.3c-0.1,0.1-0.3,0.2-0.4,0.2c-0.2,0.1-0.4,0.1-0.5,0.2s-0.4,0.1-0.6,0.1    c-0.5,0-1-0.2-1.3-0.5s-0.5-0.7-0.5-1.2c0-0.4,0.1-0.7,0.3-1s0.4-0.5,0.8-0.6c0.3-0.1,0.7-0.3,1.2-0.3c0.5-0.1,1-0.1,1.5-0.1v0    c0-0.3-0.1-0.5-0.4-0.6s-0.6-0.2-1.1-0.2c-0.3,0-0.6,0.1-0.9,0.2s-0.6,0.2-0.7,0.2h-0.2v-1.3c0.2,0,0.5-0.1,0.9-0.2    s0.8-0.1,1.3-0.1c1,0,1.7,0.2,2.2,0.5s0.7,0.8,0.7,1.4v3.7h-1.7V386.1z M219.8,385.2v-1.1c-0.2,0-0.5,0-0.8,0.1s-0.5,0.1-0.6,0.1    c-0.2,0.1-0.3,0.1-0.4,0.2s-0.1,0.2-0.1,0.4c0,0.1,0,0.2,0,0.3c0,0.1,0.1,0.1,0.1,0.2c0.1,0.1,0.2,0.1,0.3,0.1s0.3,0,0.5,0    c0.2,0,0.4,0,0.5-0.1S219.7,385.3,219.8,385.2z"/> 	</g> 	<g> 		<path d="M392.5,252h-5.2v-7.3h1.9v5.9h3.4V252z"/> 		<path d="M396.9,251.4c-0.1,0.1-0.2,0.2-0.4,0.3c-0.1,0.1-0.3,0.2-0.4,0.2c-0.2,0.1-0.4,0.1-0.5,0.2s-0.4,0.1-0.6,0.1    c-0.5,0-1-0.2-1.3-0.5s-0.5-0.7-0.5-1.2c0-0.4,0.1-0.7,0.3-1c0.2-0.3,0.4-0.5,0.8-0.6c0.3-0.1,0.7-0.3,1.2-0.3    c0.5-0.1,1-0.1,1.5-0.1v0c0-0.3-0.1-0.5-0.4-0.6c-0.2-0.1-0.6-0.2-1.1-0.2c-0.3,0-0.6,0.1-0.9,0.2c-0.3,0.1-0.6,0.2-0.7,0.2h-0.2    v-1.3c0.2,0,0.5-0.1,0.9-0.2s0.8-0.1,1.3-0.1c1,0,1.7,0.2,2.2,0.5s0.7,0.8,0.7,1.4v3.7h-1.7V251.4z M396.9,250.6v-1.1    c-0.2,0-0.5,0-0.8,0.1c-0.3,0-0.5,0.1-0.6,0.1c-0.2,0.1-0.3,0.1-0.4,0.2s-0.1,0.2-0.1,0.4c0,0.1,0,0.2,0,0.3s0.1,0.1,0.1,0.2    c0.1,0.1,0.2,0.1,0.3,0.1c0.1,0,0.3,0,0.5,0c0.2,0,0.4,0,0.5-0.1S396.7,250.7,396.9,250.6z"/> 		<path d="M410,249.8c0,0.4-0.1,0.7-0.2,0.9c-0.1,0.3-0.3,0.5-0.6,0.7c-0.3,0.2-0.6,0.4-0.9,0.5c-0.3,0.1-0.8,0.1-1.3,0.1h-3.2v-7.3    h2.8c0.6,0,1,0,1.3,0.1s0.5,0.1,0.8,0.3c0.3,0.1,0.5,0.3,0.6,0.6s0.2,0.5,0.2,0.8c0,0.4-0.1,0.7-0.3,0.9s-0.4,0.5-0.8,0.6v0    c0.5,0.1,0.9,0.3,1.1,0.6C409.8,248.9,410,249.3,410,249.8z M407.5,246.8c0-0.1,0-0.2-0.1-0.4c-0.1-0.1-0.2-0.2-0.3-0.3    c-0.1-0.1-0.3-0.1-0.5-0.1s-0.5,0-0.9,0h-0.2v1.5h0.3c0.3,0,0.5,0,0.8,0c0.2,0,0.4,0,0.5-0.1c0.2-0.1,0.3-0.2,0.3-0.3    C407.5,247.1,407.5,246.9,407.5,246.8z M408,249.7c0-0.2,0-0.4-0.1-0.5s-0.2-0.2-0.5-0.3c-0.1,0-0.3-0.1-0.6-0.1    c-0.3,0-0.5,0-0.8,0h-0.4v1.8h0.1c0.5,0,0.9,0,1.1,0c0.2,0,0.4,0,0.6-0.1c0.2-0.1,0.3-0.2,0.4-0.3C408,250.1,408,249.9,408,249.7z    "/> 		<path d="M414.6,251.4c-0.1,0.1-0.2,0.2-0.4,0.3c-0.1,0.1-0.3,0.2-0.4,0.2c-0.2,0.1-0.4,0.1-0.5,0.2s-0.4,0.1-0.6,0.1    c-0.5,0-1-0.2-1.3-0.5s-0.5-0.7-0.5-1.2c0-0.4,0.1-0.7,0.3-1c0.2-0.3,0.4-0.5,0.8-0.6c0.3-0.1,0.7-0.3,1.2-0.3    c0.5-0.1,1-0.1,1.5-0.1v0c0-0.3-0.1-0.5-0.4-0.6c-0.2-0.1-0.6-0.2-1.1-0.2c-0.3,0-0.6,0.1-0.9,0.2c-0.3,0.1-0.6,0.2-0.7,0.2h-0.2    v-1.3c0.2,0,0.5-0.1,0.9-0.2s0.8-0.1,1.3-0.1c1,0,1.7,0.2,2.2,0.5s0.7,0.8,0.7,1.4v3.7h-1.7V251.4z M414.6,250.6v-1.1    c-0.2,0-0.5,0-0.8,0.1c-0.3,0-0.5,0.1-0.6,0.1c-0.2,0.1-0.3,0.1-0.4,0.2s-0.1,0.2-0.1,0.4c0,0.1,0,0.2,0,0.3s0.1,0.1,0.1,0.2    c0.1,0.1,0.2,0.1,0.3,0.1c0.1,0,0.3,0,0.5,0c0.2,0,0.4,0,0.5-0.1S414.4,250.7,414.6,250.6z"/> 		<path d="M423.4,252h-1.8v-2.7c0-0.2,0-0.4,0-0.7c0-0.2-0.1-0.4-0.1-0.5c-0.1-0.1-0.2-0.2-0.3-0.3c-0.1-0.1-0.3-0.1-0.5-0.1    c-0.2,0-0.3,0-0.5,0.1c-0.2,0.1-0.3,0.1-0.5,0.2v3.9h-1.8v-5.5h1.8v0.6c0.3-0.2,0.6-0.4,0.9-0.6c0.3-0.1,0.6-0.2,1-0.2    c0.6,0,1.1,0.2,1.4,0.5c0.3,0.3,0.5,0.9,0.5,1.5V252z M422.9,244.1c0,0.6-0.2,1-0.4,1.2s-0.6,0.4-1,0.4c-0.2,0-0.3,0-0.4-0.1    s-0.3-0.1-0.4-0.2c-0.1-0.1-0.2-0.1-0.3-0.2s-0.2-0.1-0.3-0.1c-0.2,0-0.3,0.1-0.3,0.2c-0.1,0.1-0.1,0.3-0.1,0.4h-1.1    c0-0.5,0.2-0.9,0.4-1.2s0.6-0.4,1-0.4c0.2,0,0.3,0,0.4,0.1c0.1,0.1,0.3,0.1,0.4,0.2c0.1,0.1,0.2,0.1,0.3,0.2    c0.1,0.1,0.2,0.1,0.3,0.1c0.2,0,0.3-0.1,0.3-0.2c0.1-0.1,0.1-0.2,0.1-0.4H422.9z"/> 		<path d="M430.5,249.6h-4c0,0.4,0.2,0.8,0.5,1c0.3,0.2,0.7,0.3,1.3,0.3c0.4,0,0.7-0.1,1.1-0.2c0.3-0.1,0.6-0.3,0.8-0.4h0.2v1.4    c-0.4,0.2-0.8,0.3-1.1,0.3c-0.4,0.1-0.7,0.1-1.2,0.1c-1.1,0-1.9-0.2-2.5-0.7c-0.6-0.5-0.9-1.2-0.9-2.1c0-0.9,0.3-1.6,0.8-2.2    s1.3-0.8,2.3-0.8c0.9,0,1.6,0.2,2,0.7s0.7,1.1,0.7,1.9V249.6z M428.7,248.6c0-0.4-0.1-0.6-0.3-0.8c-0.2-0.2-0.4-0.3-0.8-0.3    c-0.3,0-0.6,0.1-0.8,0.3c-0.2,0.2-0.3,0.5-0.4,0.8H428.7z"/> 		<path d="M436.4,252h-5.2v-1.1l2.9-3.1h-2.8v-1.3h5v1.1l-2.8,3.1h2.9V252z"/> 		<path d="M441,251.4c-0.1,0.1-0.2,0.2-0.4,0.3c-0.1,0.1-0.3,0.2-0.4,0.2c-0.2,0.1-0.4,0.1-0.5,0.2s-0.4,0.1-0.6,0.1    c-0.5,0-1-0.2-1.3-0.5s-0.5-0.7-0.5-1.2c0-0.4,0.1-0.7,0.3-1c0.2-0.3,0.4-0.5,0.8-0.6c0.3-0.1,0.7-0.3,1.2-0.3    c0.5-0.1,1-0.1,1.5-0.1v0c0-0.3-0.1-0.5-0.4-0.6c-0.2-0.1-0.6-0.2-1.1-0.2c-0.3,0-0.6,0.1-0.9,0.2c-0.3,0.1-0.6,0.2-0.7,0.2h-0.2    v-1.3c0.2,0,0.5-0.1,0.9-0.2s0.8-0.1,1.3-0.1c1,0,1.7,0.2,2.2,0.5s0.7,0.8,0.7,1.4v3.7H441V251.4z M441,250.6v-1.1    c-0.2,0-0.5,0-0.8,0.1c-0.3,0-0.5,0.1-0.6,0.1c-0.2,0.1-0.3,0.1-0.4,0.2s-0.1,0.2-0.1,0.4c0,0.1,0,0.2,0,0.3s0.1,0.1,0.1,0.2    c0.1,0.1,0.2,0.1,0.3,0.1c0.1,0,0.3,0,0.5,0c0.2,0,0.4,0,0.5-0.1S440.8,250.7,441,250.6z"/> 	</g> 	<g> 		<path d="M-77,200.4c0,1.2-0.3,2.1-1,2.8s-1.6,1-2.8,1c-1.2,0-2.1-0.3-2.7-1s-1-1.6-1-2.8c0-1.2,0.3-2.1,1-2.8s1.6-1,2.7-1    c1.2,0,2.1,0.3,2.7,1S-77,199.2-77,200.4z M-79.5,202.2c0.2-0.2,0.3-0.5,0.4-0.8s0.1-0.7,0.1-1.1c0-0.4-0.1-0.8-0.2-1.1    s-0.2-0.6-0.4-0.7c-0.2-0.2-0.4-0.3-0.6-0.4s-0.4-0.1-0.7-0.1c-0.2,0-0.5,0-0.7,0.1s-0.4,0.2-0.6,0.4c-0.2,0.2-0.3,0.4-0.4,0.8    s-0.2,0.7-0.2,1.1c0,0.4,0,0.8,0.1,1.1s0.2,0.6,0.4,0.7s0.4,0.3,0.6,0.4s0.4,0.1,0.7,0.1s0.5,0,0.7-0.1S-79.7,202.4-79.5,202.2z"/> 		<path d="M-70.2,204H-72v-0.6c-0.3,0.2-0.6,0.4-0.9,0.6c-0.3,0.1-0.6,0.2-1,0.2c-0.6,0-1.1-0.2-1.4-0.5s-0.5-0.9-0.5-1.5v-3.6h1.8    v2.7c0,0.3,0,0.5,0,0.7s0.1,0.3,0.1,0.5c0.1,0.1,0.2,0.2,0.3,0.3s0.3,0.1,0.5,0.1c0.1,0,0.3,0,0.5-0.1s0.4-0.1,0.5-0.2v-3.9h1.8    V204z"/> 		<path d="M-64.6,200.2h-0.2c-0.1,0-0.2,0-0.4-0.1c-0.2,0-0.3,0-0.4,0c-0.3,0-0.5,0-0.7,0c-0.2,0-0.4,0.1-0.6,0.2v3.7h-1.8v-5.5h1.8    v0.8c0.4-0.3,0.7-0.6,1-0.7c0.3-0.1,0.5-0.2,0.8-0.2c0.1,0,0.1,0,0.2,0s0.1,0,0.2,0V200.2z"/> 		<path d="M-58.2,201.6h-4c0,0.4,0.2,0.8,0.5,1s0.7,0.3,1.3,0.3c0.4,0,0.7-0.1,1.1-0.2s0.6-0.3,0.8-0.4h0.2v1.4    c-0.4,0.2-0.8,0.3-1.1,0.3s-0.7,0.1-1.2,0.1c-1.1,0-1.9-0.2-2.5-0.7s-0.9-1.2-0.9-2.1c0-0.9,0.3-1.6,0.8-2.2s1.3-0.8,2.3-0.8    c0.9,0,1.6,0.2,2,0.7s0.7,1.1,0.7,1.9V201.6z M-59.9,200.6c0-0.4-0.1-0.6-0.3-0.8s-0.4-0.3-0.8-0.3c-0.3,0-0.6,0.1-0.8,0.3    s-0.3,0.5-0.4,0.8H-59.9z"/> 		<path d="M-51.4,204h-1.8v-2.7c0-0.2,0-0.4,0-0.7s-0.1-0.4-0.1-0.5c-0.1-0.1-0.2-0.2-0.3-0.3s-0.3-0.1-0.5-0.1    c-0.2,0-0.3,0-0.5,0.1s-0.3,0.1-0.5,0.2v3.9h-1.8v-5.5h1.8v0.6c0.3-0.2,0.6-0.4,0.9-0.6c0.3-0.1,0.6-0.2,1-0.2    c0.6,0,1.1,0.2,1.4,0.5c0.3,0.3,0.5,0.9,0.5,1.5V204z"/> 		<path d="M-45,202.3c0,0.6-0.3,1-0.8,1.4s-1.2,0.5-2.1,0.5c-0.5,0-0.9,0-1.3-0.1s-0.7-0.2-1-0.3v-1.4h0.2c0.1,0.1,0.2,0.1,0.3,0.2    s0.3,0.2,0.5,0.2c0.2,0.1,0.4,0.1,0.6,0.2s0.5,0.1,0.7,0.1c0.3,0,0.6,0,0.8-0.1s0.2-0.2,0.2-0.3c0-0.1,0-0.2-0.1-0.3    s-0.3-0.1-0.6-0.2c-0.1,0-0.3-0.1-0.5-0.1s-0.4-0.1-0.6-0.1c-0.5-0.1-0.9-0.3-1.1-0.6s-0.4-0.6-0.4-1c0-0.5,0.3-1,0.7-1.3    s1.2-0.5,2-0.5c0.4,0,0.8,0,1.2,0.1s0.7,0.2,0.9,0.3v1.4h-0.2c-0.3-0.2-0.6-0.3-0.9-0.4s-0.7-0.2-1-0.2c-0.3,0-0.5,0-0.7,0.1    s-0.3,0.2-0.3,0.3c0,0.1,0,0.2,0.1,0.3s0.3,0.1,0.6,0.2c0.2,0,0.4,0.1,0.6,0.1s0.4,0.1,0.6,0.1c0.5,0.1,0.8,0.3,1,0.6    S-45,201.9-45,202.3z"/> 		<path d="M-38.5,201.6h-4c0,0.4,0.2,0.8,0.5,1s0.7,0.3,1.3,0.3c0.4,0,0.7-0.1,1.1-0.2s0.6-0.3,0.8-0.4h0.2v1.4    c-0.4,0.2-0.8,0.3-1.1,0.3s-0.7,0.1-1.2,0.1c-1.1,0-1.9-0.2-2.5-0.7s-0.9-1.2-0.9-2.1c0-0.9,0.3-1.6,0.8-2.2s1.3-0.8,2.3-0.8    c0.9,0,1.6,0.2,2,0.7s0.7,1.1,0.7,1.9V201.6z M-40.2,200.6c0-0.4-0.1-0.6-0.3-0.8s-0.4-0.3-0.8-0.3c-0.3,0-0.6,0.1-0.8,0.3    s-0.3,0.5-0.4,0.8H-40.2z"/> 	</g> </g> <g id="llegenda"> 	<line style="fill:none;stroke:#9A9A9A;stroke-width:2;stroke-miterlimit:10;" x1="-135.8" y1="56.6" x2="-135.8" y2="86.1"/> 	<line style="fill:none;stroke:#9A9A9A;stroke-miterlimit:10;" x1="-102.4" y1="56.6" x2="-102.4" y2="86.1"/> 	<g> 		<path d="M-128,67h0.9v7.1h-0.9V67z"/> 		<path d="M-124.7,67.9c0,0.3-0.2,0.5-0.6,0.5c-0.3,0-0.5-0.2-0.5-0.5s0.2-0.5,0.5-0.5C-124.9,67.3-124.7,67.6-124.7,67.9z     M-125.7,74.1v-4.8h0.9v4.8H-125.7z"/> 		<path d="M-123.3,70.6c0-0.5,0-0.9,0-1.3h0.8l0,0.8h0c0.2-0.4,0.8-0.9,1.6-0.9c0.7,0,1.7,0.4,1.7,2.1v2.9h-0.9v-2.8    c0-0.8-0.3-1.4-1.1-1.4c-0.6,0-1,0.4-1.2,0.9c0,0.1-0.1,0.3-0.1,0.4v2.9h-0.9V70.6z"/> 	</g> 	<line style="fill:none;stroke:#696969;stroke-width:2;stroke-miterlimit:10;" x1="-135.8" y1="96.2" x2="-135.8" y2="125.7"/> 	<g> 		<path d="M-128,106.6h0.9v7.1h-0.9V106.6z"/> 		<path d="M-124.7,107.5c0,0.3-0.2,0.5-0.6,0.5c-0.3,0-0.5-0.2-0.5-0.5s0.2-0.5,0.5-0.5C-124.9,106.9-124.7,107.2-124.7,107.5z     M-125.7,113.7v-4.8h0.9v4.8H-125.7z"/> 		<path d="M-123.3,110.1c0-0.5,0-0.9,0-1.3h0.8l0,0.8h0c0.2-0.4,0.8-0.9,1.6-0.9c0.7,0,1.7,0.4,1.7,2.1v2.9h-0.9v-2.8    c0-0.8-0.3-1.4-1.1-1.4c-0.6,0-1,0.4-1.2,0.9c0,0.1-0.1,0.3-0.1,0.4v2.9h-0.9V110.1z"/> 	</g> 	<rect x="-141.1" y="32" style="fill:#BFBFBF;" width="16.3" height="15.3"/> 	<rect x="-141.1" y="4.3" style="fill:#DCE9FB;" width="16.3" height="15.3"/> 	<rect x="-172.5" y="4.3" style="fill:#D0E0A4;" width="16.3" height="15.3"/> 	<g> 		<path d="M-115.6,41.3v-4.2h-0.7v-0.7h0.7v-0.2c0-0.7,0.2-1.3,0.6-1.7c0.3-0.3,0.8-0.4,1.2-0.4c0.3,0,0.6,0.1,0.7,0.1l-0.1,0.7    c-0.1-0.1-0.3-0.1-0.6-0.1c-0.7,0-0.9,0.6-0.9,1.4v0.3h1.2v0.7h-1.2v4.2H-115.6z"/> 		<path d="M-108.5,38.9c0,1.8-1.2,2.6-2.4,2.6c-1.3,0-2.3-1-2.3-2.5c0-1.6,1.1-2.6,2.4-2.6C-109.5,36.4-108.5,37.4-108.5,38.9z     M-112.3,38.9c0,1.1,0.6,1.9,1.5,1.9c0.8,0,1.5-0.8,1.5-1.9c0-0.8-0.4-1.8-1.4-1.8C-111.9,37.1-112.3,38-112.3,38.9z"/> 		<path d="M-107.4,37.8c0-0.5,0-0.9,0-1.3h0.8l0,0.8h0c0.2-0.4,0.8-0.9,1.6-0.9c0.7,0,1.7,0.4,1.7,2.1v2.9h-0.9v-2.8    c0-0.8-0.3-1.4-1.1-1.4c-0.6,0-1,0.4-1.2,0.9c0,0.1-0.1,0.3-0.1,0.4v2.9h-0.9V37.8z"/> 		<path d="M-102,40.5c0.3,0.2,0.7,0.3,1.2,0.3c0.6,0,0.9-0.3,0.9-0.7c0-0.4-0.3-0.6-0.9-0.9c-0.9-0.3-1.3-0.8-1.3-1.4    c0-0.8,0.6-1.4,1.7-1.4c0.5,0,0.9,0.1,1.2,0.3l-0.2,0.6c-0.2-0.1-0.5-0.3-1-0.3c-0.5,0-0.8,0.3-0.8,0.7c0,0.4,0.3,0.6,0.9,0.8    c0.8,0.3,1.3,0.7,1.3,1.4c0,0.9-0.7,1.5-1.8,1.5c-0.5,0-1-0.1-1.4-0.3L-102,40.5z"/> 	</g> 	<g> 		<path d="M-115.7,10.5c0-0.5,0-0.9,0-1.3h0.8l0,0.8h0c0.3-0.5,0.7-0.9,1.5-0.9c0.6,0,1.1,0.4,1.4,1h0c0.1-0.3,0.4-0.5,0.5-0.6    c0.3-0.2,0.6-0.3,1.1-0.3c0.6,0,1.6,0.4,1.6,2.1V14h-0.9v-2.7c0-0.9-0.3-1.5-1-1.5c-0.5,0-0.9,0.4-1,0.8c0,0.1-0.1,0.3-0.1,0.4v3    h-0.9v-2.9c0-0.8-0.3-1.3-1-1.3c-0.5,0-0.9,0.4-1.1,0.9c-0.1,0.1-0.1,0.3-0.1,0.4V14h-0.9V10.5z"/> 		<path d="M-103.9,12.8c0,0.4,0,0.8,0.1,1.2h-0.8l-0.1-0.6h0c-0.3,0.4-0.8,0.7-1.5,0.7c-1,0-1.5-0.7-1.5-1.4c0-1.2,1-1.8,2.9-1.8    v-0.1c0-0.4-0.1-1.1-1.1-1.1c-0.5,0-0.9,0.1-1.3,0.4l-0.2-0.6c0.4-0.3,1-0.4,1.6-0.4c1.5,0,1.8,1,1.8,2V12.8z M-104.8,11.5    c-1,0-2,0.1-2,1.1c0,0.6,0.4,0.8,0.8,0.8c0.6,0,1-0.4,1.2-0.8c0-0.1,0-0.2,0-0.3V11.5z"/> 		<path d="M-102.5,10.7c0-0.6,0-1.1,0-1.5h0.8l0,1h0c0.2-0.6,0.8-1.1,1.3-1.1c0.1,0,0.2,0,0.2,0v0.8c-0.1,0-0.2,0-0.3,0    c-0.6,0-1.1,0.5-1.2,1.1c0,0.1,0,0.3,0,0.4V14h-0.9V10.7z"/> 	</g> 	<circle style="fill-rule:evenodd;clip-rule:evenodd;fill:#5B7EBD;" cx="-135.8" cy="140.8" r="2.4"/> 	<rect x="-216.6" y="32" style="fill:#BFBFBF;stroke:#696969;stroke-width:2;stroke-miterlimit:10;" width="16.3" height="15.3"/> 	<rect x="-190.4" y="32" style="fill:#FFFBF0;stroke:#9A9A9A;stroke-width:2;stroke-miterlimit:10;" width="16.3" height="15.3"/> 	<rect x="-199.6" y="69.3" style="opacity:0.6;fill:#FFFBF0;" width="51" height="10.8"/> </g> </svg>