<svg xmlns="http://www.w3.org/2000/svg" xmlns:xlink="http://www.w3.org/1999/xlink" version="1.1" x="0px" y="0px" width="450px" height="450px" viewBox="0 0 450 450" style="enable-background:new 0 0 450 450;" xml:space="preserve">
<g id="exterior">
	<a xlink:href="Serrania Media">
		<path style="fill-rule:evenodd;clip-rule:evenodd;fill:#BFBFBF;stroke:#696969;stroke-width:2;stroke-miterlimit:10;" d="    M423.7,126.7c0,0-17.8,32-11.4,45.6c6.4,13.5,17.8,30.6,17.8,30.6l2.1,66.2c0,0,8.5,10,4.3,14.2c-4.3,4.3-9.3,15-5.7,27.1    c3.6,12.1,2.1,34.9-4.3,33.5c-6.4-1.4-8.8-30-20.1-30.3c-11.3-0.3,0,0,0,0l-6.3,7.5c0,0-4.3-21.4-21.4-12.8    c-17.1,8.5-12.1,26.4-10.7,36.3s10,22.1,10,22.1l-23.3,31.4l-24.2,20.6l10,35.8l122.1,4.9l-6.4-299.8    C456.5,159.5,446.5,131,423.7,126.7"/>
	</a>
	<a xlink:href="Serrania Alta">
		<path style="fill-rule:evenodd;clip-rule:evenodd;fill:#BFBFBF;stroke:#696969;stroke-width:2;stroke-miterlimit:10;" d="    M401.7,72.3l22,54.4c0,0,22.1,2.8,32.8,32.7l10-128.2c0,0-15.7,11.4-29.2,7.8c-13.5-3.6-24.7-12.9-24.7-12.9L401.7,72.3"/>
	</a>
	<a xlink:href="Mancha Alta">
		<path style="fill-rule:evenodd;clip-rule:evenodd;fill:#BFBFBF;stroke:#696969;stroke-width:2;stroke-miterlimit:10;" d="    M-22.1,403.1l52.7-21.4l43.4,1.4c0,0,12.1,20.7,20.7,18.5c8.5-2.1,36.3-36.3,36.3-36.3l7.4-0.4l0.3,19.1l28.5-2.8l11.5-12.4    l40.6,22.1l15.7-1.4c0,0,15-17.1,24.9-12.2c10,5,22.1,19.9,22.1,19.9s16.4-11.4,41.3-9.3c24.9,2.1,34.4,9.9,34.4,9.9l-27,20.7    l10,35.8l-356.5,8.5L-22.1,403.1z"/>
	</a>
	<a xlink:href="MADRID">
		<path style="fill-rule:evenodd;clip-rule:evenodd;fill:#BFBFBF;stroke:#696969;stroke-width:2;stroke-miterlimit:10;" d="    M-22.1,257.1c0,0,32-6.4,33.5,4.3C12.8,272,22,307.6,22,307.6l-6.1,4.1l5.4,26.5l-10,5l19.2,38.5l-52.7,21.4L-22.1,257.1z"/>
	</a>
	<a xlink:href="GUADALAJARA">
		<path style="fill-rule:evenodd;clip-rule:evenodd;fill:#BFBFBF;stroke:#696969;stroke-width:2;stroke-miterlimit:10;" d="    M-22.1,257.1c0,0,31.3-4.3,33.5,4.3c2.1,8.5,10.7,46.3,10.7,46.3l-6.1,4.1l5.4,26.5c0,0,4.3-0.7,13.5,0.7s16.3,3.5,16.3,3.5    s0.8-40.6,8.7-34.9c7.8,5.7,31.3,36.3,46.3,32c15-4.3,24.9-29.9,24.9-29.9l14.2,1.4c0,0,3-7.3,5-18.4c1.1-6.3,2.2-10.9,2.5-19    c0.1-3.2-1.2-9.6-1.5-15.8c-0.5-8.5-1.2-20.5-0.8-29.5c1.5-29.8,6.6-59.3,6.6-59.3s21.5-17.2,20.2-13.3    c-1.3,3.9-3.6,23.5,12.1,28.5c6.3,2,6.2,0,7.3-1.7c1.7-2.4,2.5-5.5,2.5-5.5s27.1-23.9,47.8-23.2c20.7,0.7,35.1,19.1,45.8,16.3    c10.7-2.8,7.8-23.6,1.3-28.6c-6.4-5-12.4-5.8-12.4-5.8L287,121c0,0-3.3-11.7-1.4-17.1c1.2-3.4,5-6.4,5-6.4s7.1,16.4,22.1,13.5    c3.6-0.7,11.7-4,16.9-5.8c16.3-5.8,32.7-14.2,27.3-21.3c-7.1-9.3-13.5-15.7-12.8-23.5c0.7-7.8,7.1-12.8,7.1-12.8s25,5.1,22.8,12.1    c-2.2,7.1-5.7,14.9,8.5,14.9s19.3-2.4,19.3-2.4l10.9-46.1c0,0,24.7,23.6,45.4,9.3l1.4-46.3H-11.4L-22.1,257.1z"/>
	</a>
</g>
<g id="municipis_sureste">
	<a xlink:href="Area de Huete">
		<path style="fill:#FFFBF0;stroke:#9A9A9A;stroke-width:2;stroke-miterlimit:10;" d="M202.8,256.2l3-0.5c0,0,2.1-11.4,8.5-9.3    c6.4,2.1,34.3,32.4,49.1,34.1c13.4,1.5,49.1-22.1,49.1-22.1l119.7,10.8c0,0,9.3,10,4.3,14.2c-5,4.3-9.3,17.1-5.7,27.1    s2.8,34.2-4.3,33.5c-7.1-0.7-8.1-28.5-20.1-30.3l-6.3,7.5c0,0-7.8-20.7-24.2-10.7c-16.4,10-6.4,49.9,2.1,56.3L357.7,398    c0,0-37.3-22.7-75.7-0.6c0,0-17.8-20.7-25.6-20.7c-7.8,0-21.4,12.9-21.4,12.9l-15.7,1.4l-40.6-22.1c0,0-14.2-22.1,1.4-28.5    C195.8,334,202.8,256.2,202.8,256.2"/>
	</a>
</g>
<g id="municipis_noreste">
	<a xlink:href="Area de Priego">
		<path style="fill:#FFFBF0;stroke:#9A9A9A;stroke-width:2;stroke-miterlimit:10;" d="M205.8,255.6l-10.2,0.6l-1.9-22.7    c0,0,11.4-19.9,11.4-33.5c0-13.5-5.8-22.9-5.8-22.9s28.6-25.6,50-22.7c21.4,2.8,35.6,19.9,44.9,15c9.3-5,10-28.6-12.4-33.5    L287,121c0,0-7.8-13.5,3.6-23.5c0,0,10,18.5,22.1,13.5c12.1-5,52.7-15.7,44.2-27.1s-21.4-22.1-5.7-36.3c0,0,25.7,2.9,22.8,12.1    c-2.9,9.2-3.6,14.9,8.5,14.9c12.1,0,19.3-2.4,19.3-2.4l22,54.4c0,0-21.3,31.3-9.2,50.6c12.1,19.2,15.7,25.6,15.7,25.6l2.1,66.2    l-119.7-10.8c0,0-35.8,23.7-49.1,22.1c-14.8-1.8-43.4-34.1-49.1-34.1S205.8,255.6,205.8,255.6z"/>
	</a>
</g>
<g id="municipis_oeste">
	<a xlink:href="Area de Barajas de Melo">
		<path style="fill:#FFFBF0;stroke:#9A9A9A;stroke-width:2;stroke-miterlimit:10;" d="M199.2,177.2c0,0,15.1,22.9-5.6,56.3l1.9,22.7    l7.2-0.1c0,0-6.2,70-17.6,80.7c-11.4,10.7-15.7,7.1-12.1,17.1c3.6,10,5.7,15,5.7,15l-11.5,12.4l-28.5,2.8l-0.3-19.1    c0,0-7.4-1.7-7.4,0.4s-27.8,42-40.6,35.6c-12.8-6.4-10.7-17.8-16.4-17.8c-5.7,0-43.4-1.4-43.4-1.4l-19.2-38.5c0,0,10-8.5,21.4-6.4    c11.4,2.1,18.4,5.7,18.4,5.7s0.1-41.3,8.7-34.9c8.5,6.4,29.9,36.3,46.3,32c16.4-4.3,24.9-29.9,24.9-29.9l14.2,1.4    c0,0,10.7-19.9,6.4-54.1c-4.3-34.2,5.4-87.9,5.4-87.9s22.6-21.9,18.9-9.4c-3.7,12.5,11.9,26,16.2,26    C196.5,185.8,199.2,177.2,199.2,177.2z"/>
	</a>
</g>
<g id="text">
	<g>
		<rect x="106.2" y="68.7" style="fill-rule:evenodd;clip-rule:evenodd;fill:none;" width="83.1" height="11"/>
		<path d="M113.6,79c-0.3,0.1-0.8,0.3-1.3,0.4s-1.1,0.2-1.6,0.2c-1.2,0-2.2-0.3-2.9-1s-1-1.6-1-2.8c0-1.1,0.4-2,1.1-2.7s1.7-1,3-1    c0.5,0,0.9,0,1.4,0.1s0.9,0.3,1.4,0.5v1.7h-0.2c-0.1-0.1-0.2-0.2-0.4-0.3s-0.3-0.2-0.5-0.3c-0.2-0.1-0.4-0.2-0.7-0.3    s-0.5-0.1-0.8-0.1c-0.3,0-0.6,0-0.9,0.1s-0.5,0.2-0.7,0.4c-0.2,0.2-0.4,0.4-0.5,0.7s-0.2,0.6-0.2,1c0,0.8,0.2,1.4,0.6,1.8    s1.1,0.6,1.9,0.6c0.1,0,0.2,0,0.2,0s0.2,0,0.2,0v-1.4h-1.5v-1.4h3.4V79z"/>
		<path d="M120.6,79.4h-1.8v-0.6c-0.3,0.2-0.6,0.4-0.9,0.6c-0.3,0.1-0.6,0.2-1,0.2c-0.6,0-1.1-0.2-1.4-0.5s-0.5-0.9-0.5-1.5v-3.6    h1.8v2.7c0,0.3,0,0.5,0,0.7s0.1,0.3,0.1,0.5c0.1,0.1,0.2,0.2,0.3,0.3s0.3,0.1,0.5,0.1c0.1,0,0.3,0,0.5-0.1s0.4-0.1,0.5-0.2v-3.9    h1.8V79.4z"/>
		<path d="M125.6,78.8c-0.1,0.1-0.2,0.2-0.4,0.3s-0.3,0.2-0.4,0.2c-0.2,0.1-0.4,0.1-0.5,0.2s-0.4,0.1-0.6,0.1c-0.5,0-1-0.2-1.3-0.5    s-0.5-0.7-0.5-1.2c0-0.4,0.1-0.7,0.3-1s0.4-0.5,0.8-0.6c0.3-0.1,0.7-0.3,1.2-0.3s1-0.1,1.5-0.1v0c0-0.3-0.1-0.5-0.4-0.6    s-0.6-0.2-1.1-0.2c-0.3,0-0.6,0.1-0.9,0.2s-0.6,0.2-0.7,0.2h-0.2v-1.3c0.2,0,0.5-0.1,0.9-0.2s0.8-0.1,1.3-0.1c1,0,1.7,0.2,2.2,0.5    s0.7,0.8,0.7,1.4v3.7h-1.7V78.8z M125.6,78v-1.1c-0.2,0-0.5,0-0.8,0.1c-0.3,0-0.5,0.1-0.6,0.1c-0.2,0.1-0.3,0.1-0.4,0.2    s-0.1,0.2-0.1,0.4c0,0.1,0,0.2,0,0.3c0,0.1,0.1,0.1,0.1,0.2c0.1,0.1,0.2,0.1,0.3,0.1s0.3,0,0.5,0c0.2,0,0.4,0,0.5-0.1    S125.5,78.1,125.6,78z"/>
		<path d="M134.3,79.4h-1.8v-0.6c-0.3,0.2-0.6,0.4-0.8,0.5s-0.6,0.2-0.9,0.2c-0.7,0-1.2-0.3-1.6-0.8c-0.4-0.5-0.6-1.2-0.6-2.1    c0-0.5,0.1-0.9,0.2-1.2c0.1-0.4,0.3-0.7,0.6-0.9c0.2-0.2,0.5-0.4,0.8-0.6s0.6-0.2,0.9-0.2c0.3,0,0.6,0,0.8,0.1    c0.2,0.1,0.4,0.2,0.6,0.3v-2.3h1.8V79.4z M132.5,77.9v-2.7c-0.1-0.1-0.3-0.1-0.4-0.1c-0.1,0-0.3,0-0.4,0c-0.5,0-0.8,0.1-1,0.4    s-0.3,0.7-0.3,1.2c0,0.5,0.1,0.9,0.3,1.2c0.2,0.2,0.5,0.4,0.9,0.4c0.2,0,0.3,0,0.5-0.1C132.2,78.1,132.4,78,132.5,77.9z"/>
		<path d="M139.3,78.8c-0.1,0.1-0.2,0.2-0.4,0.3s-0.3,0.2-0.4,0.2c-0.2,0.1-0.4,0.1-0.5,0.2s-0.4,0.1-0.6,0.1c-0.5,0-1-0.2-1.3-0.5    s-0.5-0.7-0.5-1.2c0-0.4,0.1-0.7,0.3-1s0.4-0.5,0.8-0.6c0.3-0.1,0.7-0.3,1.2-0.3s1-0.1,1.5-0.1v0c0-0.3-0.1-0.5-0.4-0.6    s-0.6-0.2-1.1-0.2c-0.3,0-0.6,0.1-0.9,0.2s-0.6,0.2-0.7,0.2H136v-1.3c0.2,0,0.5-0.1,0.9-0.2s0.8-0.1,1.3-0.1c1,0,1.7,0.2,2.2,0.5    s0.7,0.8,0.7,1.4v3.7h-1.7V78.8z M139.3,78v-1.1c-0.2,0-0.5,0-0.8,0.1c-0.3,0-0.5,0.1-0.6,0.1c-0.2,0.1-0.3,0.1-0.4,0.2    s-0.1,0.2-0.1,0.4c0,0.1,0,0.2,0,0.3c0,0.1,0.1,0.1,0.1,0.2c0.1,0.1,0.2,0.1,0.3,0.1s0.3,0,0.5,0c0.2,0,0.4,0,0.5-0.1    S139.1,78.1,139.3,78z"/>
		<path d="M144.4,79.4h-1.8v-7.6h1.8V79.4z"/>
		<path d="M149.4,78.8c-0.1,0.1-0.2,0.2-0.4,0.3s-0.3,0.2-0.4,0.2c-0.2,0.1-0.4,0.1-0.5,0.2s-0.4,0.1-0.6,0.1c-0.5,0-1-0.2-1.3-0.5    s-0.5-0.7-0.5-1.2c0-0.4,0.1-0.7,0.3-1s0.4-0.5,0.8-0.6c0.3-0.1,0.7-0.3,1.2-0.3s1-0.1,1.5-0.1v0c0-0.3-0.1-0.5-0.4-0.6    s-0.6-0.2-1.1-0.2c-0.3,0-0.6,0.1-0.9,0.2s-0.6,0.2-0.7,0.2h-0.2v-1.3c0.2,0,0.5-0.1,0.9-0.2s0.8-0.1,1.3-0.1c1,0,1.7,0.2,2.2,0.5    s0.7,0.8,0.7,1.4v3.7h-1.7V78.8z M149.4,78v-1.1c-0.2,0-0.5,0-0.8,0.1c-0.3,0-0.5,0.1-0.6,0.1c-0.2,0.1-0.3,0.1-0.4,0.2    s-0.1,0.2-0.1,0.4c0,0.1,0,0.2,0,0.3c0,0.1,0.1,0.1,0.1,0.2c0.1,0.1,0.2,0.1,0.3,0.1s0.3,0,0.5,0c0.2,0,0.4,0,0.5-0.1    S149.2,78.1,149.4,78z"/>
		<path d="M155.1,79.5c0,0.6-0.2,1.1-0.6,1.4s-0.9,0.5-1.5,0.5c-0.3,0-0.6,0-0.9,0s-0.5-0.1-0.6-0.1v-1.3h0.1c0.1,0,0.2,0.1,0.4,0.1    s0.3,0,0.3,0c0.3,0,0.6-0.1,0.7-0.3s0.2-0.5,0.2-1v-3.8h-1v-1.2h2.8V79.5z M155.1,73.2h-1.9v-1.3h1.9V73.2z"/>
		<path d="M160.1,78.8c-0.1,0.1-0.2,0.2-0.4,0.3s-0.3,0.2-0.4,0.2c-0.2,0.1-0.4,0.1-0.5,0.2s-0.4,0.1-0.6,0.1c-0.5,0-1-0.2-1.3-0.5    s-0.5-0.7-0.5-1.2c0-0.4,0.1-0.7,0.3-1s0.4-0.5,0.8-0.6c0.3-0.1,0.7-0.3,1.2-0.3s1-0.1,1.5-0.1v0c0-0.3-0.1-0.5-0.4-0.6    s-0.6-0.2-1.1-0.2c-0.3,0-0.6,0.1-0.9,0.2s-0.6,0.2-0.7,0.2h-0.2v-1.3c0.2,0,0.5-0.1,0.9-0.2s0.8-0.1,1.3-0.1c1,0,1.7,0.2,2.2,0.5    s0.7,0.8,0.7,1.4v3.7h-1.7V78.8z M160.1,78v-1.1c-0.2,0-0.5,0-0.8,0.1c-0.3,0-0.5,0.1-0.6,0.1c-0.2,0.1-0.3,0.1-0.4,0.2    s-0.1,0.2-0.1,0.4c0,0.1,0,0.2,0,0.3c0,0.1,0.1,0.1,0.1,0.2c0.1,0.1,0.2,0.1,0.3,0.1s0.3,0,0.5,0c0.2,0,0.4,0,0.5-0.1    S159.9,78.1,160.1,78z"/>
		<path d="M167.4,75.6h-0.2c-0.1,0-0.2,0-0.4-0.1c-0.2,0-0.3,0-0.4,0c-0.3,0-0.5,0-0.7,0c-0.2,0-0.4,0.1-0.6,0.2v3.7h-1.8v-5.5h1.8    v0.8c0.4-0.3,0.7-0.6,1-0.7c0.3-0.1,0.5-0.2,0.8-0.2c0.1,0,0.1,0,0.2,0s0.1,0,0.2,0V75.6z"/>
		<path d="M171.7,78.8c-0.1,0.1-0.2,0.2-0.4,0.3s-0.3,0.2-0.4,0.2c-0.2,0.1-0.4,0.1-0.5,0.2s-0.4,0.1-0.6,0.1c-0.5,0-1-0.2-1.3-0.5    s-0.5-0.7-0.5-1.2c0-0.4,0.1-0.7,0.3-1s0.4-0.5,0.8-0.6c0.3-0.1,0.7-0.3,1.2-0.3s1-0.1,1.5-0.1v0c0-0.3-0.1-0.5-0.4-0.6    s-0.6-0.2-1.1-0.2c-0.3,0-0.6,0.1-0.9,0.2s-0.6,0.2-0.7,0.2h-0.2v-1.3c0.2,0,0.5-0.1,0.9-0.2s0.8-0.1,1.3-0.1c1,0,1.7,0.2,2.2,0.5    s0.7,0.8,0.7,1.4v3.7h-1.7V78.8z M171.7,78v-1.1c-0.2,0-0.5,0-0.8,0.1c-0.3,0-0.5,0.1-0.6,0.1c-0.2,0.1-0.3,0.1-0.4,0.2    s-0.1,0.2-0.1,0.4c0,0.1,0,0.2,0,0.3c0,0.1,0.1,0.1,0.1,0.2c0.1,0.1,0.2,0.1,0.3,0.1s0.3,0,0.5,0c0.2,0,0.4,0,0.5-0.1    S171.6,78.1,171.7,78z"/>
	</g>
	<g>
		<path d="M157.8,421.8h-1.9v-4.9l-1.3,3.2h-1.3l-1.3-3.2v4.9h-1.8v-7.3h2.2l1.6,3.6l1.6-3.6h2.2V421.8z"/>
		<path d="M162.9,421.2c-0.1,0.1-0.2,0.2-0.4,0.3c-0.1,0.1-0.3,0.2-0.4,0.2c-0.2,0.1-0.4,0.1-0.5,0.2c-0.2,0-0.4,0.1-0.6,0.1    c-0.5,0-1-0.2-1.3-0.5s-0.5-0.7-0.5-1.2c0-0.4,0.1-0.7,0.3-1c0.2-0.3,0.4-0.5,0.8-0.6c0.3-0.1,0.7-0.3,1.2-0.3    c0.5-0.1,1-0.1,1.5-0.1v0c0-0.3-0.1-0.5-0.4-0.6c-0.2-0.1-0.6-0.2-1.1-0.2c-0.3,0-0.6,0.1-0.9,0.2c-0.3,0.1-0.6,0.2-0.7,0.2h-0.2    v-1.3c0.2,0,0.5-0.1,0.9-0.2c0.4-0.1,0.8-0.1,1.3-0.1c1,0,1.7,0.2,2.2,0.5s0.7,0.8,0.7,1.4v3.7h-1.7V421.2z M162.9,420.3v-1.1    c-0.2,0-0.5,0-0.8,0.1c-0.3,0-0.5,0.1-0.6,0.1c-0.2,0.1-0.3,0.1-0.4,0.2s-0.1,0.2-0.1,0.4c0,0.1,0,0.2,0,0.3s0.1,0.1,0.1,0.2    c0.1,0.1,0.2,0.1,0.3,0.1c0.1,0,0.3,0,0.5,0c0.2,0,0.4,0,0.5-0.1S162.7,420.4,162.9,420.3z"/>
		<path d="M171.7,421.8H170V419c0-0.2,0-0.4,0-0.7c0-0.2-0.1-0.4-0.1-0.5c-0.1-0.1-0.2-0.2-0.3-0.3c-0.1-0.1-0.3-0.1-0.5-0.1    c-0.2,0-0.3,0-0.5,0.1c-0.2,0.1-0.3,0.1-0.5,0.2v3.9h-1.8v-5.5h1.8v0.6c0.3-0.2,0.6-0.4,0.9-0.6c0.3-0.1,0.6-0.2,1-0.2    c0.6,0,1.1,0.2,1.4,0.5c0.3,0.3,0.5,0.9,0.5,1.5V421.8z"/>
		<path d="M176.2,421.9c-0.5,0-0.9-0.1-1.3-0.2c-0.4-0.1-0.7-0.3-1-0.5c-0.3-0.2-0.5-0.5-0.7-0.9c-0.2-0.4-0.2-0.8-0.2-1.3    c0-0.5,0.1-1,0.3-1.3c0.2-0.4,0.4-0.7,0.7-0.9c0.3-0.2,0.6-0.4,1-0.5c0.4-0.1,0.8-0.2,1.2-0.2c0.4,0,0.7,0,1,0.1    c0.3,0.1,0.6,0.2,0.9,0.3v1.5h-0.2c-0.1-0.1-0.2-0.1-0.2-0.2s-0.2-0.2-0.4-0.2c-0.1-0.1-0.3-0.1-0.4-0.2c-0.2,0-0.3-0.1-0.6-0.1    c-0.5,0-0.8,0.1-1.1,0.4c-0.3,0.3-0.4,0.7-0.4,1.2c0,0.5,0.1,0.9,0.4,1.2s0.6,0.4,1.1,0.4c0.2,0,0.4,0,0.6-0.1    c0.2-0.1,0.3-0.1,0.4-0.2c0.1-0.1,0.2-0.1,0.3-0.2c0.1-0.1,0.2-0.1,0.2-0.2h0.2v1.5c-0.3,0.1-0.6,0.2-0.9,0.3    C176.9,421.9,176.6,421.9,176.2,421.9z"/>
		<path d="M184.7,421.8H183V419c0-0.2,0-0.4,0-0.7c0-0.2-0.1-0.4-0.1-0.5c-0.1-0.1-0.2-0.2-0.3-0.3c-0.1-0.1-0.3-0.1-0.5-0.1    c-0.2,0-0.3,0-0.5,0.1c-0.2,0.1-0.3,0.1-0.5,0.2v3.9h-1.8v-7.6h1.8v2.7c0.3-0.2,0.6-0.4,0.9-0.6c0.3-0.1,0.6-0.2,1-0.2    c0.6,0,1.1,0.2,1.4,0.5c0.3,0.3,0.5,0.9,0.5,1.5V421.8z"/>
		<path d="M189.7,421.2c-0.1,0.1-0.2,0.2-0.4,0.3c-0.1,0.1-0.3,0.2-0.4,0.2c-0.2,0.1-0.4,0.1-0.5,0.2c-0.2,0-0.4,0.1-0.6,0.1    c-0.5,0-1-0.2-1.3-0.5s-0.5-0.7-0.5-1.2c0-0.4,0.1-0.7,0.3-1c0.2-0.3,0.4-0.5,0.8-0.6c0.3-0.1,0.7-0.3,1.2-0.3    c0.5-0.1,1-0.1,1.5-0.1v0c0-0.3-0.1-0.5-0.4-0.6c-0.2-0.1-0.6-0.2-1.1-0.2c-0.3,0-0.6,0.1-0.9,0.2c-0.3,0.1-0.6,0.2-0.7,0.2h-0.2    v-1.3c0.2,0,0.5-0.1,0.9-0.2c0.4-0.1,0.8-0.1,1.3-0.1c1,0,1.7,0.2,2.2,0.5s0.7,0.8,0.7,1.4v3.7h-1.7V421.2z M189.7,420.3v-1.1    c-0.2,0-0.5,0-0.8,0.1c-0.3,0-0.5,0.1-0.6,0.1c-0.2,0.1-0.3,0.1-0.4,0.2s-0.1,0.2-0.1,0.4c0,0.1,0,0.2,0,0.3s0.1,0.1,0.1,0.2    c0.1,0.1,0.2,0.1,0.3,0.1c0.1,0,0.3,0,0.5,0c0.2,0,0.4,0,0.5-0.1S189.5,420.4,189.7,420.3z"/>
		<path d="M203.3,421.8h-1.9l-0.5-1.5h-2.7l-0.5,1.5h-1.9l2.7-7.3h2.2L203.3,421.8z M200.4,419l-0.9-2.6l-0.9,2.6H200.4z"/>
		<path d="M206,421.8h-1.8v-7.6h1.8V421.8z"/>
		<path d="M211.1,421.7c-0.2,0-0.4,0.1-0.6,0.1c-0.2,0-0.5,0-0.8,0c-0.7,0-1.2-0.1-1.5-0.4c-0.3-0.3-0.5-0.8-0.5-1.4v-2.6H207v-1.2    h0.7v-1.6h1.8v1.6h1.6v1.2h-1.6v1.9c0,0.2,0,0.4,0,0.5c0,0.1,0,0.3,0.1,0.4c0,0.1,0.1,0.2,0.2,0.3s0.3,0.1,0.5,0.1    c0.1,0,0.2,0,0.4-0.1s0.3-0.1,0.3-0.1h0.1V421.7z"/>
		<path d="M215.5,421.2c-0.1,0.1-0.2,0.2-0.4,0.3c-0.1,0.1-0.3,0.2-0.4,0.2c-0.2,0.1-0.4,0.1-0.5,0.2c-0.2,0-0.4,0.1-0.6,0.1    c-0.5,0-1-0.2-1.3-0.5s-0.5-0.7-0.5-1.2c0-0.4,0.1-0.7,0.3-1c0.2-0.3,0.4-0.5,0.8-0.6c0.3-0.1,0.7-0.3,1.2-0.3    c0.5-0.1,1-0.1,1.5-0.1v0c0-0.3-0.1-0.5-0.4-0.6c-0.2-0.1-0.6-0.2-1.1-0.2c-0.3,0-0.6,0.1-0.9,0.2c-0.3,0.1-0.6,0.2-0.7,0.2h-0.2    v-1.3c0.2,0,0.5-0.1,0.9-0.2c0.4-0.1,0.8-0.1,1.3-0.1c1,0,1.7,0.2,2.2,0.5s0.7,0.8,0.7,1.4v3.7h-1.7V421.2z M215.5,420.3v-1.1    c-0.2,0-0.5,0-0.8,0.1c-0.3,0-0.5,0.1-0.6,0.1c-0.2,0.1-0.3,0.1-0.4,0.2s-0.1,0.2-0.1,0.4c0,0.1,0,0.2,0,0.3s0.1,0.1,0.1,0.2    c0.1,0.1,0.2,0.1,0.3,0.1c0.1,0,0.3,0,0.5,0c0.2,0,0.4,0,0.5-0.1S215.4,420.4,215.5,420.3z"/>
	</g>
	<g>
		<path d="M360.6,429.2c0,0.7-0.3,1.3-0.9,1.7c-0.6,0.4-1.4,0.7-2.5,0.7c-0.6,0-1.1-0.1-1.6-0.2c-0.4-0.1-0.9-0.2-1.3-0.4v-1.7h0.2    c0.4,0.3,0.8,0.5,1.3,0.7c0.5,0.2,0.9,0.2,1.4,0.2c0.1,0,0.3,0,0.4,0s0.3-0.1,0.5-0.1c0.1-0.1,0.3-0.1,0.4-0.2s0.1-0.2,0.1-0.4    c0-0.2-0.1-0.3-0.2-0.4c-0.1-0.1-0.3-0.2-0.6-0.3c-0.3-0.1-0.6-0.1-0.9-0.2c-0.3-0.1-0.6-0.1-0.9-0.2c-0.6-0.2-1.1-0.5-1.3-0.8    c-0.3-0.3-0.4-0.8-0.4-1.3c0-0.7,0.3-1.2,0.9-1.7c0.6-0.4,1.4-0.6,2.3-0.6c0.5,0,1,0,1.4,0.1c0.5,0.1,0.9,0.2,1.2,0.3v1.7h-0.2    c-0.3-0.2-0.7-0.4-1.1-0.6c-0.4-0.2-0.9-0.2-1.3-0.2c-0.2,0-0.3,0-0.5,0c-0.2,0-0.3,0.1-0.4,0.1c-0.1,0-0.2,0.1-0.3,0.2    c-0.1,0.1-0.1,0.2-0.1,0.3c0,0.2,0.1,0.3,0.2,0.4s0.4,0.2,0.8,0.3c0.3,0.1,0.5,0.1,0.8,0.2c0.2,0.1,0.5,0.1,0.8,0.2    c0.6,0.2,1,0.4,1.2,0.7C360.5,428.3,360.6,428.7,360.6,429.2z"/>
		<path d="M367.2,429h-4c0,0.4,0.2,0.8,0.5,1c0.3,0.2,0.7,0.3,1.3,0.3c0.4,0,0.7-0.1,1.1-0.2c0.3-0.1,0.6-0.3,0.8-0.4h0.2v1.4    c-0.4,0.2-0.8,0.3-1.1,0.3s-0.7,0.1-1.2,0.1c-1.1,0-1.9-0.2-2.5-0.7c-0.6-0.5-0.9-1.2-0.9-2.1c0-0.9,0.3-1.6,0.8-2.2    c0.6-0.5,1.3-0.8,2.3-0.8c0.9,0,1.6,0.2,2,0.7c0.4,0.5,0.7,1.1,0.7,1.9V429z M365.4,428c0-0.4-0.1-0.6-0.3-0.8    c-0.2-0.2-0.4-0.3-0.8-0.3c-0.3,0-0.6,0.1-0.8,0.3c-0.2,0.2-0.3,0.5-0.4,0.8H365.4z"/>
		<path d="M372.4,427.6h-0.2c-0.1,0-0.2,0-0.4-0.1c-0.2,0-0.3,0-0.4,0c-0.3,0-0.5,0-0.7,0c-0.2,0-0.4,0.1-0.6,0.2v3.7h-1.8V426h1.8    v0.8c0.4-0.3,0.7-0.6,1-0.7c0.3-0.1,0.5-0.2,0.8-0.2c0.1,0,0.1,0,0.2,0c0.1,0,0.1,0,0.2,0V427.6z"/>
		<path d="M377.4,427.6h-0.2c-0.1,0-0.2,0-0.4-0.1c-0.2,0-0.3,0-0.4,0c-0.3,0-0.5,0-0.7,0c-0.2,0-0.4,0.1-0.6,0.2v3.7h-1.8V426h1.8    v0.8c0.4-0.3,0.7-0.6,1-0.7c0.3-0.1,0.5-0.2,0.8-0.2c0.1,0,0.1,0,0.2,0c0.1,0,0.1,0,0.2,0V427.6z"/>
		<path d="M381.7,430.9c-0.1,0.1-0.2,0.2-0.4,0.3c-0.1,0.1-0.3,0.2-0.4,0.2c-0.2,0.1-0.4,0.1-0.5,0.2c-0.2,0-0.4,0.1-0.6,0.1    c-0.5,0-1-0.2-1.3-0.5s-0.5-0.7-0.5-1.2c0-0.4,0.1-0.7,0.3-1c0.2-0.3,0.4-0.5,0.8-0.6c0.3-0.1,0.7-0.3,1.2-0.3    c0.5-0.1,1-0.1,1.5-0.1v0c0-0.3-0.1-0.5-0.4-0.6c-0.2-0.1-0.6-0.2-1.1-0.2c-0.3,0-0.6,0.1-0.9,0.2c-0.3,0.1-0.6,0.2-0.7,0.2h-0.2    v-1.3c0.2,0,0.5-0.1,0.9-0.2c0.4-0.1,0.8-0.1,1.3-0.1c1,0,1.7,0.2,2.2,0.5s0.7,0.8,0.7,1.4v3.7h-1.7V430.9z M381.7,430v-1.1    c-0.2,0-0.5,0-0.8,0.1c-0.3,0-0.5,0.1-0.6,0.1c-0.2,0.1-0.3,0.1-0.4,0.2s-0.1,0.2-0.1,0.4c0,0.1,0,0.2,0,0.3s0.1,0.1,0.1,0.2    c0.1,0.1,0.2,0.1,0.3,0.1c0.1,0,0.3,0,0.5,0c0.2,0,0.4,0,0.5-0.1S381.6,430.1,381.7,430z"/>
		<path d="M390.6,431.5h-1.8v-2.7c0-0.2,0-0.4,0-0.7c0-0.2-0.1-0.4-0.1-0.5c-0.1-0.1-0.2-0.2-0.3-0.3c-0.1-0.1-0.3-0.1-0.5-0.1    c-0.2,0-0.3,0-0.5,0.1c-0.2,0.1-0.3,0.1-0.5,0.2v3.9h-1.8V426h1.8v0.6c0.3-0.2,0.6-0.4,0.9-0.6c0.3-0.1,0.6-0.2,1-0.2    c0.6,0,1.1,0.2,1.4,0.5c0.3,0.3,0.5,0.9,0.5,1.5V431.5z"/>
		<path d="M394.8,423.3L394.8,423.3l-1.7,1.9h-1.2l1.2-1.9H394.8z M393.9,431.5h-1.8V426h1.8V431.5z"/>
		<path d="M398.9,430.9c-0.1,0.1-0.2,0.2-0.4,0.3c-0.1,0.1-0.3,0.2-0.4,0.2c-0.2,0.1-0.4,0.1-0.5,0.2c-0.2,0-0.4,0.1-0.6,0.1    c-0.5,0-1-0.2-1.3-0.5s-0.5-0.7-0.5-1.2c0-0.4,0.1-0.7,0.3-1c0.2-0.3,0.4-0.5,0.8-0.6c0.3-0.1,0.7-0.3,1.2-0.3    c0.5-0.1,1-0.1,1.5-0.1v0c0-0.3-0.1-0.5-0.4-0.6c-0.2-0.1-0.6-0.2-1.1-0.2c-0.3,0-0.6,0.1-0.9,0.2c-0.3,0.1-0.6,0.2-0.7,0.2h-0.2    v-1.3c0.2,0,0.5-0.1,0.9-0.2c0.4-0.1,0.8-0.1,1.3-0.1c1,0,1.7,0.2,2.2,0.5s0.7,0.8,0.7,1.4v3.7h-1.7V430.9z M398.9,430v-1.1    c-0.2,0-0.5,0-0.8,0.1c-0.3,0-0.5,0.1-0.6,0.1c-0.2,0.1-0.3,0.1-0.4,0.2s-0.1,0.2-0.1,0.4c0,0.1,0,0.2,0,0.3s0.1,0.1,0.1,0.2    c0.1,0.1,0.2,0.1,0.3,0.1c0.1,0,0.3,0,0.5,0c0.2,0,0.4,0,0.5-0.1S398.8,430.1,398.9,430z"/>
		<path d="M413.4,431.5h-1.9v-4.9l-1.3,3.2h-1.3l-1.3-3.2v4.9h-1.8v-7.3h2.2l1.6,3.6l1.6-3.6h2.2V431.5z"/>
		<path d="M420.6,429h-4c0,0.4,0.2,0.8,0.5,1c0.3,0.2,0.7,0.3,1.3,0.3c0.4,0,0.7-0.1,1.1-0.2c0.3-0.1,0.6-0.3,0.8-0.4h0.2v1.4    c-0.4,0.2-0.8,0.3-1.1,0.3s-0.7,0.1-1.2,0.1c-1.1,0-1.9-0.2-2.5-0.7c-0.6-0.5-0.9-1.2-0.9-2.1c0-0.9,0.3-1.6,0.8-2.2    c0.6-0.5,1.3-0.8,2.3-0.8c0.9,0,1.6,0.2,2,0.7c0.4,0.5,0.7,1.1,0.7,1.9V429z M418.8,428c0-0.4-0.1-0.6-0.3-0.8    c-0.2-0.2-0.4-0.3-0.8-0.3c-0.3,0-0.6,0.1-0.8,0.3c-0.2,0.2-0.3,0.5-0.4,0.8H418.8z"/>
		<path d="M427.2,431.5h-1.8v-0.6c-0.3,0.2-0.6,0.4-0.8,0.5s-0.6,0.2-0.9,0.2c-0.7,0-1.2-0.3-1.6-0.8c-0.4-0.5-0.6-1.2-0.6-2.1    c0-0.5,0.1-0.9,0.2-1.2c0.1-0.4,0.3-0.7,0.6-0.9c0.2-0.2,0.5-0.4,0.8-0.6c0.3-0.1,0.6-0.2,0.9-0.2c0.3,0,0.6,0,0.8,0.1    c0.2,0.1,0.4,0.2,0.6,0.3v-2.3h1.8V431.5z M425.4,429.9v-2.7c-0.1-0.1-0.3-0.1-0.4-0.1c-0.1,0-0.3,0-0.4,0c-0.5,0-0.8,0.1-1,0.4    s-0.3,0.7-0.3,1.2c0,0.5,0.1,0.9,0.3,1.2s0.5,0.4,0.9,0.4c0.2,0,0.3,0,0.5-0.1C425.1,430.1,425.3,430,425.4,429.9z"/>
		<path d="M430.6,425.2h-1.9v-1.3h1.9V425.2z M430.6,431.5h-1.8V426h1.8V431.5z"/>
		<path d="M435.6,430.9c-0.1,0.1-0.2,0.2-0.4,0.3c-0.1,0.1-0.3,0.2-0.4,0.2c-0.2,0.1-0.4,0.1-0.5,0.2c-0.2,0-0.4,0.1-0.6,0.1    c-0.5,0-1-0.2-1.3-0.5s-0.5-0.7-0.5-1.2c0-0.4,0.1-0.7,0.3-1c0.2-0.3,0.4-0.5,0.8-0.6c0.3-0.1,0.7-0.3,1.2-0.3    c0.5-0.1,1-0.1,1.5-0.1v0c0-0.3-0.1-0.5-0.4-0.6c-0.2-0.1-0.6-0.2-1.1-0.2c-0.3,0-0.6,0.1-0.9,0.2c-0.3,0.1-0.6,0.2-0.7,0.2h-0.2    v-1.3c0.2,0,0.5-0.1,0.9-0.2c0.4-0.1,0.8-0.1,1.3-0.1c1,0,1.7,0.2,2.2,0.5s0.7,0.8,0.7,1.4v3.7h-1.7V430.9z M435.6,430v-1.1    c-0.2,0-0.5,0-0.8,0.1c-0.3,0-0.5,0.1-0.6,0.1c-0.2,0.1-0.3,0.1-0.4,0.2s-0.1,0.2-0.1,0.4c0,0.1,0,0.2,0,0.3s0.1,0.1,0.1,0.2    c0.1,0.1,0.2,0.1,0.3,0.1c0.1,0,0.3,0,0.5,0c0.2,0,0.4,0,0.5-0.1S435.4,430.1,435.6,430z"/>
	</g>
	<g>
		<rect x="393" y="50.3" style="fill-rule:evenodd;clip-rule:evenodd;fill:none;" width="60" height="26.9"/>
		<path d="M406,58.7c0,0.7-0.3,1.3-0.9,1.7s-1.4,0.7-2.5,0.7c-0.6,0-1.1-0.1-1.6-0.2s-0.9-0.2-1.3-0.4v-1.7h0.2    c0.4,0.3,0.8,0.5,1.3,0.7s0.9,0.2,1.4,0.2c0.1,0,0.3,0,0.4,0s0.3-0.1,0.5-0.1c0.1-0.1,0.3-0.1,0.4-0.2s0.1-0.2,0.1-0.4    c0-0.2-0.1-0.3-0.2-0.4s-0.3-0.2-0.6-0.3c-0.3-0.1-0.6-0.1-0.9-0.2s-0.6-0.1-0.9-0.2c-0.6-0.2-1.1-0.5-1.3-0.8s-0.4-0.8-0.4-1.3    c0-0.7,0.3-1.2,0.9-1.7s1.4-0.6,2.3-0.6c0.5,0,1,0,1.4,0.1s0.9,0.2,1.2,0.3v1.7h-0.2c-0.3-0.2-0.7-0.4-1.1-0.6s-0.9-0.2-1.3-0.2    c-0.2,0-0.3,0-0.5,0s-0.3,0.1-0.4,0.1c-0.1,0-0.2,0.1-0.3,0.2c-0.1,0.1-0.1,0.2-0.1,0.3c0,0.2,0.1,0.3,0.2,0.4s0.4,0.2,0.8,0.3    c0.3,0.1,0.5,0.1,0.8,0.2s0.5,0.1,0.8,0.2c0.6,0.2,1,0.4,1.2,0.7S406,58.2,406,58.7z"/>
		<path d="M412.6,58.6h-4c0,0.4,0.2,0.8,0.5,1s0.7,0.3,1.3,0.3c0.4,0,0.7-0.1,1.1-0.2c0.3-0.1,0.6-0.3,0.8-0.4h0.2v1.4    c-0.4,0.2-0.8,0.3-1.1,0.3s-0.7,0.1-1.2,0.1c-1.1,0-1.9-0.2-2.5-0.7s-0.9-1.2-0.9-2.1c0-0.9,0.3-1.6,0.8-2.2s1.3-0.8,2.3-0.8    c0.9,0,1.6,0.2,2,0.7s0.7,1.1,0.7,1.9V58.6z M410.8,57.5c0-0.4-0.1-0.6-0.3-0.8c-0.2-0.2-0.4-0.3-0.8-0.3c-0.3,0-0.6,0.1-0.8,0.3    c-0.2,0.2-0.3,0.5-0.4,0.8H410.8z"/>
		<path d="M417.8,57.2h-0.2c-0.1,0-0.2,0-0.4-0.1c-0.2,0-0.3,0-0.4,0c-0.3,0-0.5,0-0.7,0s-0.4,0.1-0.6,0.2V61h-1.8v-5.5h1.8v0.8    c0.4-0.3,0.7-0.6,1-0.7s0.5-0.2,0.8-0.2c0.1,0,0.1,0,0.2,0s0.1,0,0.2,0V57.2z"/>
		<path d="M422.7,57.2h-0.2c-0.1,0-0.2,0-0.4-0.1c-0.2,0-0.3,0-0.4,0c-0.3,0-0.5,0-0.7,0s-0.4,0.1-0.6,0.2V61h-1.8v-5.5h1.8v0.8    c0.4-0.3,0.7-0.6,1-0.7s0.5-0.2,0.8-0.2c0.1,0,0.1,0,0.2,0s0.1,0,0.2,0V57.2z"/>
		<path d="M427.1,60.4c-0.1,0.1-0.2,0.2-0.4,0.3c-0.1,0.1-0.3,0.2-0.4,0.2c-0.2,0.1-0.4,0.1-0.5,0.2s-0.4,0.1-0.6,0.1    c-0.5,0-1-0.2-1.3-0.5s-0.5-0.7-0.5-1.2c0-0.4,0.1-0.7,0.3-1c0.2-0.3,0.4-0.5,0.8-0.6c0.3-0.1,0.7-0.3,1.2-0.3    c0.5-0.1,1-0.1,1.5-0.1v0c0-0.3-0.1-0.5-0.4-0.6c-0.2-0.1-0.6-0.2-1.1-0.2c-0.3,0-0.6,0.1-0.9,0.2c-0.3,0.1-0.6,0.2-0.7,0.2h-0.2    v-1.3c0.2,0,0.5-0.1,0.9-0.2s0.8-0.1,1.3-0.1c1,0,1.7,0.2,2.2,0.5s0.7,0.8,0.7,1.4V61h-1.7V60.4z M427.1,59.5v-1.1    c-0.2,0-0.5,0-0.8,0.1c-0.3,0-0.5,0.1-0.6,0.1c-0.2,0.1-0.3,0.1-0.4,0.2s-0.1,0.2-0.1,0.4c0,0.1,0,0.2,0,0.3    c0,0.1,0.1,0.1,0.1,0.2c0.1,0.1,0.2,0.1,0.3,0.1c0.1,0,0.3,0,0.5,0c0.2,0,0.4,0,0.5-0.1S426.9,59.7,427.1,59.5z"/>
		<path d="M435.9,61h-1.8v-2.7c0-0.2,0-0.4,0-0.7c0-0.2-0.1-0.4-0.1-0.5c-0.1-0.1-0.2-0.2-0.3-0.3s-0.3-0.1-0.5-0.1    c-0.2,0-0.3,0-0.5,0.1s-0.3,0.1-0.5,0.2V61h-1.8v-5.5h1.8v0.6c0.3-0.2,0.6-0.4,0.9-0.6c0.3-0.1,0.6-0.2,1-0.2    c0.6,0,1.1,0.2,1.4,0.5c0.3,0.3,0.5,0.9,0.5,1.5V61z"/>
		<path d="M440.1,52.8L440.1,52.8l-1.7,1.9h-1.2l1.2-1.9H440.1z M439.3,61h-1.8v-5.5h1.8V61z"/>
		<path d="M444.3,60.4c-0.1,0.1-0.2,0.2-0.4,0.3c-0.1,0.1-0.3,0.2-0.4,0.2c-0.2,0.1-0.4,0.1-0.5,0.2s-0.4,0.1-0.6,0.1    c-0.5,0-1-0.2-1.3-0.5s-0.5-0.7-0.5-1.2c0-0.4,0.1-0.7,0.3-1c0.2-0.3,0.4-0.5,0.8-0.6c0.3-0.1,0.7-0.3,1.2-0.3    c0.5-0.1,1-0.1,1.5-0.1v0c0-0.3-0.1-0.5-0.4-0.6c-0.2-0.1-0.6-0.2-1.1-0.2c-0.3,0-0.6,0.1-0.9,0.2c-0.3,0.1-0.6,0.2-0.7,0.2H441    v-1.3c0.2,0,0.5-0.1,0.9-0.2s0.8-0.1,1.3-0.1c1,0,1.7,0.2,2.2,0.5s0.7,0.8,0.7,1.4V61h-1.7V60.4z M444.3,59.5v-1.1    c-0.2,0-0.5,0-0.8,0.1c-0.3,0-0.5,0.1-0.6,0.1c-0.2,0.1-0.3,0.1-0.4,0.2s-0.1,0.2-0.1,0.4c0,0.1,0,0.2,0,0.3    c0,0.1,0.1,0.1,0.1,0.2c0.1,0.1,0.2,0.1,0.3,0.1c0.1,0,0.3,0,0.5,0c0.2,0,0.4,0,0.5-0.1S444.1,59.7,444.3,59.5z"/>
		<path d="M419.5,72h-1.9l-0.5-1.5h-2.7l-0.5,1.5h-1.9l2.7-7.3h2.2L419.5,72z M416.6,69.2l-0.9-2.6l-0.9,2.6H416.6z"/>
		<path d="M422.2,72h-1.8v-7.6h1.8V72z"/>
		<path d="M427.3,71.9c-0.2,0-0.4,0.1-0.6,0.1c-0.2,0-0.5,0-0.8,0c-0.7,0-1.2-0.1-1.5-0.4c-0.3-0.3-0.5-0.8-0.5-1.4v-2.6h-0.7v-1.2    h0.7v-1.6h1.8v1.6h1.6v1.2h-1.6v1.9c0,0.2,0,0.4,0,0.5s0,0.3,0.1,0.4c0,0.1,0.1,0.2,0.2,0.3c0.1,0.1,0.3,0.1,0.5,0.1    c0.1,0,0.2,0,0.4-0.1s0.3-0.1,0.3-0.1h0.1V71.9z"/>
		<path d="M431.7,71.4c-0.1,0.1-0.2,0.2-0.4,0.3c-0.1,0.1-0.3,0.2-0.4,0.2c-0.2,0.1-0.4,0.1-0.5,0.2c-0.2,0-0.4,0.1-0.6,0.1    c-0.5,0-1-0.2-1.3-0.5s-0.5-0.7-0.5-1.2c0-0.4,0.1-0.7,0.3-1s0.4-0.5,0.8-0.6c0.3-0.1,0.7-0.3,1.2-0.3c0.5-0.1,1-0.1,1.5-0.1v0    c0-0.3-0.1-0.5-0.4-0.6c-0.2-0.1-0.6-0.2-1.1-0.2c-0.3,0-0.6,0.1-0.9,0.2s-0.6,0.2-0.7,0.2h-0.2v-1.3c0.2,0,0.5-0.1,0.9-0.2    c0.4-0.1,0.8-0.1,1.3-0.1c1,0,1.7,0.2,2.2,0.5c0.4,0.3,0.7,0.8,0.7,1.4V72h-1.7V71.4z M431.7,70.6v-1.1c-0.2,0-0.5,0-0.8,0.1    s-0.5,0.1-0.6,0.1c-0.2,0.1-0.3,0.1-0.4,0.2c-0.1,0.1-0.1,0.2-0.1,0.4c0,0.1,0,0.2,0,0.3c0,0.1,0.1,0.1,0.1,0.2    c0.1,0.1,0.2,0.1,0.3,0.1s0.3,0,0.5,0c0.2,0,0.4,0,0.5-0.1C431.4,70.8,431.6,70.7,431.7,70.6z"/>
	</g>
	<circle style="fill:#5B7EBD;" cx="170" cy="200.2" r="2.4"/>
	<circle style="fill:#5B7EBD;" cx="242" cy="182.5" r="2.4"/>
	<circle style="fill:#5B7EBD;" cx="387.7" cy="156" r="2.4"/>
	<circle style="fill:#5B7EBD;" cx="202.9" cy="342.1" r="2.4"/>
	<circle style="fill:#5B7EBD;" cx="393.6" cy="270.9" r="2.4"/>
	<circle style="fill:#5B7EBD;" cx="345.6" cy="197.9" r="2.4"/>
	<circle style="fill:#5B7EBD;" cx="390.6" cy="81.4" r="2.4"/>
	<g>
		<path d="M368.3,93.9h-1l-0.7-2h-3.1l-0.7,2h-1l2.6-7.3h1.3L368.3,93.9z M366.2,91.1l-1.3-3.6l-1.3,3.6H366.2z"/>
		<path d="M370.2,93.9h-0.9v-7.6h0.9V93.9z"/>
		<path d="M376.1,93.6c-0.3,0.1-0.6,0.3-0.9,0.3c-0.3,0.1-0.6,0.1-0.9,0.1c-0.4,0-0.8-0.1-1.1-0.2c-0.3-0.1-0.6-0.3-0.8-0.5    c-0.2-0.2-0.4-0.5-0.6-0.9c-0.1-0.4-0.2-0.8-0.2-1.3c0-0.9,0.2-1.6,0.7-2.1c0.5-0.5,1.1-0.8,1.9-0.8c0.3,0,0.6,0,0.9,0.1    c0.3,0.1,0.6,0.2,0.8,0.3v1h0c-0.3-0.2-0.6-0.4-0.9-0.5s-0.6-0.2-0.9-0.2c-0.5,0-0.9,0.2-1.2,0.5c-0.3,0.3-0.5,0.9-0.5,1.5    c0,0.7,0.1,1.2,0.4,1.5c0.3,0.4,0.7,0.5,1.2,0.5c0.2,0,0.4,0,0.6-0.1c0.2,0,0.4-0.1,0.5-0.2c0.1-0.1,0.3-0.1,0.4-0.2    c0.1-0.1,0.2-0.1,0.3-0.2h0V93.6z"/>
		<path d="M381.5,93.9h-0.9v-0.6c-0.1,0.1-0.2,0.1-0.3,0.2c-0.1,0.1-0.3,0.2-0.4,0.2c-0.2,0.1-0.3,0.1-0.5,0.2    c-0.2,0.1-0.4,0.1-0.7,0.1c-0.5,0-0.9-0.2-1.3-0.5c-0.3-0.3-0.5-0.7-0.5-1.2c0-0.4,0.1-0.7,0.3-1c0.2-0.3,0.4-0.5,0.8-0.6    c0.3-0.1,0.7-0.2,1.2-0.3c0.5-0.1,1-0.1,1.5-0.1v-0.1c0-0.2,0-0.4-0.1-0.5s-0.2-0.2-0.3-0.3c-0.1-0.1-0.3-0.1-0.5-0.2    c-0.2,0-0.4,0-0.6,0c-0.2,0-0.5,0-0.8,0.1c-0.3,0.1-0.6,0.2-0.9,0.3h0v-0.9c0.2,0,0.4-0.1,0.8-0.2c0.3-0.1,0.7-0.1,1-0.1    c0.4,0,0.7,0,1,0.1c0.3,0.1,0.5,0.2,0.7,0.3c0.2,0.1,0.4,0.3,0.5,0.6c0.1,0.2,0.2,0.5,0.2,0.9V93.9z M380.6,92.6v-1.5    c-0.3,0-0.6,0-1,0.1c-0.4,0-0.7,0.1-0.9,0.1c-0.3,0.1-0.5,0.2-0.6,0.3c-0.2,0.2-0.2,0.4-0.2,0.7c0,0.3,0.1,0.5,0.3,0.7    c0.2,0.2,0.5,0.2,0.9,0.2c0.3,0,0.6-0.1,0.9-0.2C380.1,92.9,380.3,92.7,380.6,92.6z"/>
		<path d="M387.8,93.9h-0.9v-3.1c0-0.3,0-0.5,0-0.7s-0.1-0.4-0.2-0.5c-0.1-0.1-0.2-0.2-0.4-0.3c-0.2-0.1-0.4-0.1-0.6-0.1    c-0.3,0-0.5,0.1-0.8,0.2c-0.3,0.1-0.5,0.3-0.8,0.5v4.1h-0.9v-5.5h0.9v0.6c0.3-0.2,0.6-0.4,0.9-0.6c0.3-0.1,0.6-0.2,0.9-0.2    c0.6,0,1,0.2,1.3,0.5c0.3,0.4,0.5,0.9,0.5,1.5V93.9z"/>
		<path d="M392.4,93.9c-0.2,0-0.4,0.1-0.6,0.1c-0.2,0-0.4,0-0.5,0c-0.6,0-1-0.1-1.3-0.4c-0.3-0.3-0.4-0.8-0.4-1.4v-2.9H389v-0.8h0.6    v-1.6h0.9v1.6h1.9v0.8h-1.9v2.5c0,0.3,0,0.5,0,0.7c0,0.2,0.1,0.3,0.1,0.5c0.1,0.1,0.2,0.2,0.3,0.3c0.1,0.1,0.3,0.1,0.6,0.1    c0.1,0,0.3,0,0.5-0.1c0.2,0,0.3-0.1,0.4-0.1h0V93.9z"/>
		<path d="M398,93.9h-0.9v-0.6c-0.3,0.2-0.6,0.4-0.9,0.6s-0.6,0.2-0.9,0.2c-0.6,0-1-0.2-1.3-0.5c-0.3-0.3-0.5-0.9-0.5-1.5v-3.5h0.9    v3.1c0,0.3,0,0.5,0,0.7c0,0.2,0.1,0.4,0.2,0.5c0.1,0.1,0.2,0.2,0.3,0.3c0.1,0.1,0.3,0.1,0.6,0.1c0.2,0,0.5-0.1,0.8-0.2    c0.3-0.1,0.5-0.3,0.8-0.5v-4.1h0.9V93.9z"/>
		<path d="M404.3,93.9h-0.9v-0.6c-0.3,0.2-0.5,0.4-0.8,0.5c-0.3,0.1-0.6,0.2-0.9,0.2c-0.7,0-1.2-0.3-1.6-0.8    c-0.4-0.5-0.6-1.2-0.6-2.1c0-0.5,0.1-0.9,0.2-1.2s0.3-0.7,0.5-0.9c0.2-0.2,0.5-0.4,0.8-0.6c0.3-0.1,0.6-0.2,0.9-0.2    c0.3,0,0.5,0,0.8,0.1c0.2,0.1,0.5,0.2,0.7,0.3v-2.4h0.9V93.9z M403.4,92.6v-3.1c-0.2-0.1-0.5-0.2-0.7-0.2c-0.2,0-0.4-0.1-0.6-0.1    c-0.5,0-0.9,0.2-1.2,0.5c-0.3,0.4-0.4,0.9-0.4,1.5c0,0.6,0.1,1.1,0.3,1.5c0.2,0.3,0.6,0.5,1.1,0.5c0.3,0,0.5-0.1,0.8-0.2    C402.9,92.9,403.1,92.8,403.4,92.6z"/>
	</g>
	<g>
		<path d="M330.1,190.3c-0.2,0.1-0.3,0.2-0.5,0.2c-0.1,0.1-0.3,0.1-0.6,0.2c-0.2,0.1-0.4,0.1-0.6,0.2c-0.2,0-0.5,0.1-0.8,0.1    c-0.5,0-1-0.1-1.4-0.2c-0.4-0.1-0.8-0.4-1.1-0.7c-0.3-0.3-0.6-0.7-0.7-1.2c-0.2-0.5-0.3-1-0.3-1.7c0-0.6,0.1-1.1,0.3-1.6    c0.2-0.5,0.4-0.9,0.7-1.2c0.3-0.3,0.7-0.6,1.1-0.7c0.4-0.2,0.9-0.2,1.5-0.2c0.4,0,0.8,0,1.2,0.1c0.4,0.1,0.8,0.3,1.3,0.5v1.1H330    c-0.4-0.3-0.8-0.6-1.2-0.7c-0.4-0.2-0.8-0.2-1.3-0.2c-0.4,0-0.7,0.1-1,0.2c-0.3,0.1-0.6,0.3-0.8,0.6c-0.2,0.2-0.4,0.6-0.5,0.9    c-0.1,0.4-0.2,0.8-0.2,1.3c0,0.5,0.1,1,0.2,1.3c0.1,0.4,0.3,0.7,0.5,0.9c0.2,0.2,0.5,0.4,0.8,0.5c0.3,0.1,0.6,0.2,1,0.2    c0.5,0,0.9-0.1,1.3-0.2c0.4-0.2,0.8-0.4,1.1-0.7h0.1V190.3z"/>
		<path d="M335.6,190.8h-0.9v-0.6c-0.1,0.1-0.2,0.1-0.3,0.2c-0.1,0.1-0.3,0.2-0.4,0.2c-0.2,0.1-0.3,0.1-0.5,0.2    c-0.2,0.1-0.4,0.1-0.7,0.1c-0.5,0-0.9-0.2-1.3-0.5c-0.3-0.3-0.5-0.7-0.5-1.2c0-0.4,0.1-0.7,0.3-1c0.2-0.3,0.4-0.5,0.8-0.6    c0.3-0.1,0.7-0.2,1.2-0.3c0.5-0.1,1-0.1,1.5-0.1v-0.1c0-0.2,0-0.4-0.1-0.5s-0.2-0.2-0.3-0.3c-0.1-0.1-0.3-0.1-0.5-0.2    c-0.2,0-0.4,0-0.6,0c-0.2,0-0.5,0-0.8,0.1c-0.3,0.1-0.6,0.2-0.9,0.3h0v-0.9c0.2,0,0.4-0.1,0.8-0.2c0.3-0.1,0.7-0.1,1-0.1    c0.4,0,0.7,0,1,0.1c0.3,0.1,0.5,0.2,0.7,0.3c0.2,0.1,0.4,0.3,0.5,0.6c0.1,0.2,0.2,0.5,0.2,0.9V190.8z M334.7,189.5v-1.5    c-0.3,0-0.6,0-1,0.1c-0.4,0-0.7,0.1-0.9,0.1c-0.3,0.1-0.5,0.2-0.6,0.3c-0.2,0.2-0.2,0.4-0.2,0.7c0,0.3,0.1,0.5,0.3,0.7    c0.2,0.2,0.5,0.2,0.9,0.2c0.3,0,0.6-0.1,0.9-0.2C334.2,189.8,334.5,189.6,334.7,189.5z"/>
		<path d="M341.9,190.8H341v-3.1c0-0.3,0-0.5,0-0.7s-0.1-0.4-0.2-0.5c-0.1-0.1-0.2-0.2-0.4-0.3c-0.2-0.1-0.4-0.1-0.6-0.1    c-0.3,0-0.5,0.1-0.8,0.2c-0.3,0.1-0.5,0.3-0.8,0.5v4.1h-0.9v-5.5h0.9v0.6c0.3-0.2,0.6-0.4,0.9-0.6c0.3-0.1,0.6-0.2,0.9-0.2    c0.6,0,1,0.2,1.3,0.5c0.3,0.4,0.5,0.9,0.5,1.5V190.8z M341.7,182.9c0,0.5-0.2,0.9-0.4,1.1c-0.2,0.3-0.5,0.4-0.9,0.4    c-0.2,0-0.3,0-0.5-0.1c-0.1-0.1-0.3-0.2-0.4-0.3c-0.2-0.1-0.3-0.2-0.4-0.3c-0.1-0.1-0.2-0.1-0.3-0.1c-0.2,0-0.3,0.1-0.4,0.2    c-0.1,0.1-0.1,0.3-0.1,0.6h-0.6c0-0.5,0.2-0.9,0.4-1.1c0.2-0.3,0.5-0.4,0.8-0.4c0.2,0,0.3,0,0.5,0.1s0.3,0.2,0.4,0.3    c0.2,0.1,0.3,0.2,0.4,0.3c0.1,0.1,0.2,0.1,0.3,0.1c0.2,0,0.3-0.1,0.4-0.2c0.1-0.1,0.1-0.3,0.2-0.6H341.7z"/>
		<path d="M347.9,190.8H347v-0.6c-0.1,0.1-0.2,0.1-0.3,0.2c-0.1,0.1-0.3,0.2-0.4,0.2c-0.2,0.1-0.3,0.1-0.5,0.2    c-0.2,0.1-0.4,0.1-0.7,0.1c-0.5,0-0.9-0.2-1.3-0.5c-0.3-0.3-0.5-0.7-0.5-1.2c0-0.4,0.1-0.7,0.3-1c0.2-0.3,0.4-0.5,0.8-0.6    c0.3-0.1,0.7-0.2,1.2-0.3c0.5-0.1,1-0.1,1.5-0.1v-0.1c0-0.2,0-0.4-0.1-0.5s-0.2-0.2-0.3-0.3c-0.1-0.1-0.3-0.1-0.5-0.2    c-0.2,0-0.4,0-0.6,0c-0.2,0-0.5,0-0.8,0.1c-0.3,0.1-0.6,0.2-0.9,0.3h0v-0.9c0.2,0,0.4-0.1,0.8-0.2c0.3-0.1,0.7-0.1,1-0.1    c0.4,0,0.7,0,1,0.1c0.3,0.1,0.5,0.2,0.7,0.3c0.2,0.1,0.4,0.3,0.5,0.6c0.1,0.2,0.2,0.5,0.2,0.9V190.8z M347,189.5v-1.5    c-0.3,0-0.6,0-1,0.1c-0.4,0-0.7,0.1-0.9,0.1c-0.3,0.1-0.5,0.2-0.6,0.3c-0.2,0.2-0.2,0.4-0.2,0.7c0,0.3,0.1,0.5,0.3,0.7    c0.2,0.2,0.5,0.2,0.9,0.2c0.3,0,0.6-0.1,0.9-0.2C346.6,189.8,346.8,189.6,347,189.5z"/>
		<path d="M354.3,185.4l-2.2,5.5h-0.9l-2.2-5.5h1l1.7,4.3l1.7-4.3H354.3z"/>
		<path d="M360,188.2h-4c0,0.3,0.1,0.6,0.2,0.9c0.1,0.2,0.2,0.5,0.4,0.6c0.2,0.2,0.4,0.3,0.6,0.4c0.2,0.1,0.5,0.1,0.8,0.1    c0.4,0,0.7-0.1,1.1-0.2c0.4-0.1,0.6-0.3,0.8-0.4h0v1c-0.3,0.1-0.6,0.2-0.9,0.3s-0.7,0.1-1,0.1c-0.9,0-1.6-0.2-2.1-0.7    c-0.5-0.5-0.8-1.2-0.8-2.1c0-0.9,0.2-1.6,0.7-2.1c0.5-0.5,1.1-0.8,1.9-0.8c0.7,0,1.3,0.2,1.7,0.6c0.4,0.4,0.6,1,0.6,1.8V188.2z     M359.1,187.5c0-0.5-0.1-0.9-0.4-1.1s-0.6-0.4-1.1-0.4c-0.5,0-0.9,0.1-1.2,0.4c-0.3,0.3-0.5,0.6-0.5,1.1H359.1z"/>
		<path d="M364.8,186.4L364.8,186.4c-0.2,0-0.3-0.1-0.4-0.1c-0.1,0-0.3,0-0.5,0c-0.3,0-0.6,0.1-0.8,0.2c-0.3,0.1-0.5,0.3-0.8,0.5    v3.9h-0.9v-5.5h0.9v0.8c0.4-0.3,0.7-0.5,1-0.6s0.6-0.2,0.9-0.2c0.2,0,0.3,0,0.3,0c0.1,0,0.2,0,0.3,0V186.4z"/>
		<path d="M369.7,190.8h-0.9v-0.6c-0.1,0.1-0.2,0.1-0.3,0.2c-0.1,0.1-0.3,0.2-0.4,0.2c-0.2,0.1-0.3,0.1-0.5,0.2    c-0.2,0.1-0.4,0.1-0.7,0.1c-0.5,0-0.9-0.2-1.3-0.5c-0.3-0.3-0.5-0.7-0.5-1.2c0-0.4,0.1-0.7,0.3-1c0.2-0.3,0.4-0.5,0.8-0.6    c0.3-0.1,0.7-0.2,1.2-0.3c0.5-0.1,1-0.1,1.5-0.1v-0.1c0-0.2,0-0.4-0.1-0.5s-0.2-0.2-0.3-0.3c-0.1-0.1-0.3-0.1-0.5-0.2    c-0.2,0-0.4,0-0.6,0c-0.2,0-0.5,0-0.8,0.1c-0.3,0.1-0.6,0.2-0.9,0.3h0v-0.9c0.2,0,0.4-0.1,0.8-0.2c0.3-0.1,0.7-0.1,1-0.1    c0.4,0,0.7,0,1,0.1c0.3,0.1,0.5,0.2,0.7,0.3c0.2,0.1,0.4,0.3,0.5,0.6c0.1,0.2,0.2,0.5,0.2,0.9V190.8z M368.8,189.5v-1.5    c-0.3,0-0.6,0-1,0.1c-0.4,0-0.7,0.1-0.9,0.1c-0.3,0.1-0.5,0.2-0.6,0.3c-0.2,0.2-0.2,0.4-0.2,0.7c0,0.3,0.1,0.5,0.3,0.7    c0.2,0.2,0.5,0.2,0.9,0.2c0.3,0,0.6-0.1,0.9-0.2C368.3,189.8,368.6,189.6,368.8,189.5z"/>
		<path d="M375.1,188.3c0.2,0.2,0.3,0.6,0.3,1c0,0.5-0.2,0.9-0.6,1.2c-0.4,0.3-1,0.5-1.7,0.5c-0.4,0-0.8,0-1.1-0.1    c-0.3-0.1-0.6-0.2-0.8-0.3v-1h0c0.3,0.2,0.6,0.4,1,0.5c0.4,0.1,0.7,0.2,1,0.2c0.4,0,0.7-0.1,0.9-0.2c0.2-0.1,0.3-0.3,0.3-0.6    c0-0.2-0.1-0.4-0.2-0.5c-0.1-0.1-0.4-0.2-0.7-0.3c-0.1,0-0.3-0.1-0.5-0.1s-0.4-0.1-0.6-0.1c-0.5-0.1-0.8-0.3-1-0.6    c-0.2-0.2-0.3-0.5-0.3-0.9c0-0.2,0-0.4,0.1-0.6c0.1-0.2,0.2-0.4,0.4-0.5c0.2-0.2,0.4-0.3,0.7-0.4c0.3-0.1,0.6-0.1,0.9-0.1    c0.3,0,0.7,0,1,0.1c0.3,0.1,0.6,0.2,0.8,0.3v1h0c-0.2-0.2-0.5-0.3-0.9-0.4c-0.3-0.1-0.7-0.2-1-0.2c-0.3,0-0.6,0.1-0.8,0.2    c-0.2,0.1-0.3,0.3-0.3,0.6c0,0.2,0.1,0.4,0.2,0.5c0.1,0.1,0.4,0.2,0.7,0.3c0.2,0,0.4,0.1,0.6,0.1s0.4,0.1,0.5,0.1    C374.5,187.9,374.8,188,375.1,188.3L375.1,188.3z"/>
	</g>
	<g>
		<path d="M221,195.3c-0.2,0.1-0.3,0.2-0.5,0.2c-0.1,0.1-0.3,0.1-0.6,0.2c-0.2,0.1-0.4,0.1-0.6,0.2c-0.2,0-0.5,0.1-0.8,0.1    c-0.5,0-1-0.1-1.4-0.2c-0.4-0.1-0.8-0.4-1.1-0.7c-0.3-0.3-0.6-0.7-0.7-1.2c-0.2-0.5-0.3-1-0.3-1.7c0-0.6,0.1-1.1,0.3-1.6    c0.2-0.5,0.4-0.9,0.7-1.2c0.3-0.3,0.7-0.6,1.1-0.7c0.4-0.2,0.9-0.2,1.5-0.2c0.4,0,0.8,0,1.2,0.1c0.4,0.1,0.8,0.3,1.3,0.5v1.1H221    c-0.4-0.3-0.8-0.6-1.2-0.7c-0.4-0.2-0.8-0.2-1.3-0.2c-0.4,0-0.7,0.1-1,0.2c-0.3,0.1-0.6,0.3-0.8,0.6c-0.2,0.2-0.4,0.6-0.5,0.9    c-0.1,0.4-0.2,0.8-0.2,1.3c0,0.5,0.1,1,0.2,1.3c0.1,0.4,0.3,0.7,0.5,0.9c0.2,0.2,0.5,0.4,0.8,0.5c0.3,0.1,0.6,0.2,1,0.2    c0.5,0,0.9-0.1,1.3-0.2c0.4-0.2,0.8-0.4,1.1-0.7h0.1V195.3z"/>
		<path d="M226.6,195.8h-0.9v-0.6c-0.1,0.1-0.2,0.1-0.3,0.2c-0.1,0.1-0.3,0.2-0.4,0.2c-0.2,0.1-0.3,0.1-0.5,0.2    c-0.2,0.1-0.4,0.1-0.7,0.1c-0.5,0-0.9-0.2-1.3-0.5c-0.3-0.3-0.5-0.7-0.5-1.2c0-0.4,0.1-0.7,0.3-1c0.2-0.3,0.4-0.5,0.8-0.6    c0.3-0.1,0.7-0.2,1.2-0.3c0.5-0.1,1-0.1,1.5-0.1V192c0-0.2,0-0.4-0.1-0.5s-0.2-0.2-0.3-0.3c-0.1-0.1-0.3-0.1-0.5-0.2    c-0.2,0-0.4,0-0.6,0c-0.2,0-0.5,0-0.8,0.1c-0.3,0.1-0.6,0.2-0.9,0.3h0v-0.9c0.2,0,0.4-0.1,0.8-0.2c0.3-0.1,0.7-0.1,1-0.1    c0.4,0,0.7,0,1,0.1c0.3,0.1,0.5,0.2,0.7,0.3c0.2,0.1,0.4,0.3,0.5,0.6c0.1,0.2,0.2,0.5,0.2,0.9V195.8z M225.7,194.4v-1.5    c-0.3,0-0.6,0-1,0.1c-0.4,0-0.7,0.1-0.9,0.1c-0.3,0.1-0.5,0.2-0.6,0.3c-0.2,0.2-0.2,0.4-0.2,0.7c0,0.3,0.1,0.5,0.3,0.7    c0.2,0.2,0.5,0.2,0.9,0.2c0.3,0,0.6-0.1,0.9-0.2C225.2,194.8,225.4,194.6,225.7,194.4z"/>
		<path d="M232.9,195.8H232v-3.1c0-0.3,0-0.5,0-0.7s-0.1-0.4-0.2-0.5c-0.1-0.1-0.2-0.2-0.4-0.3c-0.2-0.1-0.4-0.1-0.6-0.1    c-0.3,0-0.5,0.1-0.8,0.2c-0.3,0.1-0.5,0.3-0.8,0.5v4.1h-0.9v-5.5h0.9v0.6c0.3-0.2,0.6-0.4,0.9-0.6c0.3-0.1,0.6-0.2,0.9-0.2    c0.6,0,1,0.2,1.3,0.5c0.3,0.4,0.5,0.9,0.5,1.5V195.8z M232.7,187.9c0,0.5-0.2,0.9-0.4,1.1c-0.2,0.3-0.5,0.4-0.9,0.4    c-0.2,0-0.3,0-0.5-0.1c-0.1-0.1-0.3-0.2-0.4-0.3c-0.2-0.1-0.3-0.2-0.4-0.3c-0.1-0.1-0.2-0.1-0.3-0.1c-0.2,0-0.3,0.1-0.4,0.2    c-0.1,0.1-0.1,0.3-0.1,0.6h-0.6c0-0.5,0.2-0.9,0.4-1.1c0.2-0.3,0.5-0.4,0.8-0.4c0.2,0,0.3,0,0.5,0.1s0.3,0.2,0.4,0.3    c0.2,0.1,0.3,0.2,0.4,0.3c0.1,0.1,0.2,0.1,0.3,0.1c0.2,0,0.3-0.1,0.4-0.2c0.1-0.1,0.1-0.3,0.2-0.6H232.7z"/>
		<path d="M238.9,195.8H238v-0.6c-0.1,0.1-0.2,0.1-0.3,0.2c-0.1,0.1-0.3,0.2-0.4,0.2c-0.2,0.1-0.3,0.1-0.5,0.2    c-0.2,0.1-0.4,0.1-0.7,0.1c-0.5,0-0.9-0.2-1.3-0.5c-0.3-0.3-0.5-0.7-0.5-1.2c0-0.4,0.1-0.7,0.3-1c0.2-0.3,0.4-0.5,0.8-0.6    c0.3-0.1,0.7-0.2,1.2-0.3c0.5-0.1,1-0.1,1.5-0.1V192c0-0.2,0-0.4-0.1-0.5s-0.2-0.2-0.3-0.3c-0.1-0.1-0.3-0.1-0.5-0.2    c-0.2,0-0.4,0-0.6,0c-0.2,0-0.5,0-0.8,0.1c-0.3,0.1-0.6,0.2-0.9,0.3h0v-0.9c0.2,0,0.4-0.1,0.8-0.2c0.3-0.1,0.7-0.1,1-0.1    c0.4,0,0.7,0,1,0.1c0.3,0.1,0.5,0.2,0.7,0.3c0.2,0.1,0.4,0.3,0.5,0.6c0.1,0.2,0.2,0.5,0.2,0.9V195.8z M238,194.4v-1.5    c-0.3,0-0.6,0-1,0.1c-0.4,0-0.7,0.1-0.9,0.1c-0.3,0.1-0.5,0.2-0.6,0.3c-0.2,0.2-0.2,0.4-0.2,0.7c0,0.3,0.1,0.5,0.3,0.7    c0.2,0.2,0.5,0.2,0.9,0.2c0.3,0,0.6-0.1,0.9-0.2C237.5,194.8,237.8,194.6,238,194.4z"/>
		<path d="M245.3,190.3l-2.2,5.5h-0.9l-2.2-5.5h1l1.7,4.3l1.7-4.3H245.3z"/>
		<path d="M251,193.2h-4c0,0.3,0.1,0.6,0.2,0.9c0.1,0.2,0.2,0.5,0.4,0.6c0.2,0.2,0.4,0.3,0.6,0.4c0.2,0.1,0.5,0.1,0.8,0.1    c0.4,0,0.7-0.1,1.1-0.2c0.4-0.1,0.6-0.3,0.8-0.4h0v1c-0.3,0.1-0.6,0.2-0.9,0.3s-0.7,0.1-1,0.1c-0.9,0-1.6-0.2-2.1-0.7    c-0.5-0.5-0.8-1.2-0.8-2.1c0-0.9,0.2-1.6,0.7-2.1c0.5-0.5,1.1-0.8,1.9-0.8c0.7,0,1.3,0.2,1.7,0.6c0.4,0.4,0.6,1,0.6,1.8V193.2z     M250.1,192.4c0-0.5-0.1-0.9-0.4-1.1s-0.6-0.4-1.1-0.4c-0.5,0-0.9,0.1-1.2,0.4c-0.3,0.3-0.5,0.6-0.5,1.1H250.1z"/>
		<path d="M255.8,191.3L255.8,191.3c-0.2,0-0.3-0.1-0.4-0.1c-0.1,0-0.3,0-0.5,0c-0.3,0-0.6,0.1-0.8,0.2c-0.3,0.1-0.5,0.3-0.8,0.5    v3.9h-0.9v-5.5h0.9v0.8c0.4-0.3,0.7-0.5,1-0.6s0.6-0.2,0.9-0.2c0.2,0,0.3,0,0.3,0c0.1,0,0.2,0,0.3,0V191.3z"/>
		<path d="M261.2,195.8h-0.9v-0.6c-0.3,0.2-0.6,0.4-0.9,0.6s-0.6,0.2-0.9,0.2c-0.6,0-1-0.2-1.3-0.5c-0.3-0.3-0.5-0.9-0.5-1.5v-3.5    h0.9v3.1c0,0.3,0,0.5,0,0.7c0,0.2,0.1,0.4,0.2,0.5c0.1,0.1,0.2,0.2,0.3,0.3c0.1,0.1,0.3,0.1,0.6,0.1c0.2,0,0.5-0.1,0.8-0.2    c0.3-0.1,0.5-0.3,0.8-0.5v-4.1h0.9V195.8z"/>
		<path d="M267.5,193.2h-4c0,0.3,0.1,0.6,0.2,0.9c0.1,0.2,0.2,0.5,0.4,0.6c0.2,0.2,0.4,0.3,0.6,0.4c0.2,0.1,0.5,0.1,0.8,0.1    c0.4,0,0.7-0.1,1.1-0.2c0.4-0.1,0.6-0.3,0.8-0.4h0v1c-0.3,0.1-0.6,0.2-0.9,0.3s-0.7,0.1-1,0.1c-0.9,0-1.6-0.2-2.1-0.7    c-0.5-0.5-0.8-1.2-0.8-2.1c0-0.9,0.2-1.6,0.7-2.1c0.5-0.5,1.1-0.8,1.9-0.8c0.7,0,1.3,0.2,1.7,0.6c0.4,0.4,0.6,1,0.6,1.8V193.2z     M266.7,192.4c0-0.5-0.1-0.9-0.4-1.1s-0.6-0.4-1.1-0.4c-0.5,0-0.9,0.1-1.2,0.4c-0.3,0.3-0.5,0.6-0.5,1.1H266.7z"/>
		<path d="M269.9,195.8H269v-7.6h0.9V195.8z"/>
		<path d="M275.9,195.8H275v-0.6c-0.1,0.1-0.2,0.1-0.3,0.2c-0.1,0.1-0.3,0.2-0.4,0.2c-0.2,0.1-0.3,0.1-0.5,0.2    c-0.2,0.1-0.4,0.1-0.7,0.1c-0.5,0-0.9-0.2-1.3-0.5c-0.3-0.3-0.5-0.7-0.5-1.2c0-0.4,0.1-0.7,0.3-1c0.2-0.3,0.4-0.5,0.8-0.6    c0.3-0.1,0.7-0.2,1.2-0.3c0.5-0.1,1-0.1,1.5-0.1V192c0-0.2,0-0.4-0.1-0.5s-0.2-0.2-0.3-0.3c-0.1-0.1-0.3-0.1-0.5-0.2    c-0.2,0-0.4,0-0.6,0c-0.2,0-0.5,0-0.8,0.1c-0.3,0.1-0.6,0.2-0.9,0.3h0v-0.9c0.2,0,0.4-0.1,0.8-0.2c0.3-0.1,0.7-0.1,1-0.1    c0.4,0,0.7,0,1,0.1c0.3,0.1,0.5,0.2,0.7,0.3c0.2,0.1,0.4,0.3,0.5,0.6c0.1,0.2,0.2,0.5,0.2,0.9V195.8z M275,194.4v-1.5    c-0.3,0-0.6,0-1,0.1c-0.4,0-0.7,0.1-0.9,0.1c-0.3,0.1-0.5,0.2-0.6,0.3c-0.2,0.2-0.2,0.4-0.2,0.7c0,0.3,0.1,0.5,0.3,0.7    c0.2,0.2,0.5,0.2,0.9,0.2c0.3,0,0.6-0.1,0.9-0.2C274.5,194.8,274.8,194.6,275,194.4z"/>
		<path d="M281.2,193.3c0.2,0.2,0.3,0.6,0.3,1c0,0.5-0.2,0.9-0.6,1.2c-0.4,0.3-1,0.5-1.7,0.5c-0.4,0-0.8,0-1.1-0.1s-0.6-0.2-0.8-0.3    v-1h0c0.3,0.2,0.6,0.4,1,0.5c0.4,0.1,0.7,0.2,1,0.2c0.4,0,0.7-0.1,0.9-0.2c0.2-0.1,0.3-0.3,0.3-0.6c0-0.2-0.1-0.4-0.2-0.5    c-0.1-0.1-0.4-0.2-0.7-0.3c-0.1,0-0.3-0.1-0.5-0.1s-0.4-0.1-0.6-0.1c-0.5-0.1-0.8-0.3-1-0.6c-0.2-0.2-0.3-0.5-0.3-0.9    c0-0.2,0-0.4,0.1-0.6c0.1-0.2,0.2-0.4,0.4-0.5c0.2-0.2,0.4-0.3,0.7-0.4c0.3-0.1,0.6-0.1,0.9-0.1c0.3,0,0.7,0,1,0.1    c0.3,0.1,0.6,0.2,0.8,0.3v1h0c-0.2-0.2-0.5-0.3-0.9-0.4c-0.3-0.1-0.7-0.2-1-0.2c-0.3,0-0.6,0.1-0.8,0.2c-0.2,0.1-0.3,0.3-0.3,0.6    c0,0.2,0.1,0.4,0.2,0.5c0.1,0.1,0.4,0.2,0.7,0.3c0.2,0,0.4,0.1,0.6,0.1s0.4,0.1,0.5,0.1C280.7,192.9,281,193,281.2,193.3    L281.2,193.3z"/>
	</g>
	<g>
		<path d="M162.6,211c0,0.4-0.1,0.7-0.2,1c-0.1,0.3-0.3,0.5-0.6,0.7c-0.3,0.2-0.6,0.4-0.9,0.5c-0.3,0.1-0.7,0.1-1.2,0.1h-2.6V206    h2.2c0.5,0,0.9,0,1.2,0.1s0.5,0.1,0.8,0.2c0.3,0.1,0.5,0.3,0.6,0.5c0.1,0.2,0.2,0.5,0.2,0.8c0,0.3-0.1,0.6-0.3,0.9    c-0.2,0.2-0.4,0.4-0.7,0.6v0c0.5,0.1,0.9,0.3,1.2,0.6C162.4,210.1,162.6,210.5,162.6,211z M160.9,207.7c0-0.2,0-0.3-0.1-0.4    c-0.1-0.1-0.2-0.2-0.3-0.3c-0.2-0.1-0.3-0.1-0.6-0.2c-0.2,0-0.5,0-0.8,0h-1.2v2.1h1.3c0.3,0,0.5,0,0.7,0c0.2,0,0.3-0.1,0.5-0.2    c0.2-0.1,0.3-0.2,0.3-0.4C160.9,208.1,160.9,208,160.9,207.7z M161.6,211.1c0-0.3,0-0.5-0.1-0.7c-0.1-0.2-0.2-0.3-0.5-0.4    c-0.2-0.1-0.3-0.1-0.6-0.2c-0.2,0-0.5,0-0.8,0h-1.5v2.7h1.3c0.4,0,0.8,0,1-0.1c0.3,0,0.5-0.1,0.7-0.2c0.2-0.1,0.3-0.3,0.4-0.4    C161.5,211.5,161.6,211.3,161.6,211.1z"/>
		<path d="M168.4,213.3h-0.9v-0.6c-0.3,0.2-0.6,0.4-0.9,0.6s-0.6,0.2-0.9,0.2c-0.6,0-1-0.2-1.3-0.5c-0.3-0.3-0.5-0.9-0.5-1.5v-3.5    h0.9v3.1c0,0.3,0,0.5,0,0.7c0,0.2,0.1,0.4,0.2,0.5c0.1,0.1,0.2,0.2,0.3,0.3c0.1,0.1,0.3,0.1,0.6,0.1c0.2,0,0.5-0.1,0.8-0.2    c0.3-0.1,0.5-0.3,0.8-0.5v-4.1h0.9V213.3z"/>
		<path d="M174.8,210.6h-4c0,0.3,0.1,0.6,0.2,0.9c0.1,0.2,0.2,0.5,0.4,0.6c0.2,0.2,0.4,0.3,0.6,0.4c0.2,0.1,0.5,0.1,0.8,0.1    c0.4,0,0.7-0.1,1.1-0.2c0.4-0.1,0.6-0.3,0.8-0.4h0v1c-0.3,0.1-0.6,0.2-0.9,0.3s-0.7,0.1-1,0.1c-0.9,0-1.6-0.2-2.1-0.7    c-0.5-0.5-0.8-1.2-0.8-2.1c0-0.9,0.2-1.6,0.7-2.1c0.5-0.5,1.1-0.8,1.9-0.8c0.7,0,1.3,0.2,1.7,0.6c0.4,0.4,0.6,1,0.6,1.8V210.6z     M173.9,209.9c0-0.5-0.1-0.9-0.4-1.1s-0.6-0.4-1.1-0.4c-0.5,0-0.9,0.1-1.2,0.4c-0.3,0.3-0.5,0.6-0.5,1.1H173.9z"/>
		<path d="M180.7,213.3h-0.9v-3.1c0-0.3,0-0.5,0-0.7s-0.1-0.4-0.2-0.5c-0.1-0.1-0.2-0.2-0.4-0.3c-0.2-0.1-0.4-0.1-0.6-0.1    c-0.3,0-0.5,0.1-0.8,0.2c-0.3,0.1-0.5,0.3-0.8,0.5v4.1h-0.9v-5.5h0.9v0.6c0.3-0.2,0.6-0.4,0.9-0.6c0.3-0.1,0.6-0.2,0.9-0.2    c0.6,0,1,0.2,1.3,0.5c0.3,0.4,0.5,0.9,0.5,1.5V213.3z"/>
		<path d="M186.9,213.3H186v-0.6c-0.3,0.2-0.5,0.4-0.8,0.5c-0.3,0.1-0.6,0.2-0.9,0.2c-0.7,0-1.2-0.3-1.6-0.8    c-0.4-0.5-0.6-1.2-0.6-2.1c0-0.5,0.1-0.9,0.2-1.2s0.3-0.7,0.5-0.9c0.2-0.2,0.5-0.4,0.8-0.6c0.3-0.1,0.6-0.2,0.9-0.2    c0.3,0,0.5,0,0.8,0.1c0.2,0.1,0.5,0.2,0.7,0.3v-2.4h0.9V213.3z M186,211.9v-3.1c-0.2-0.1-0.5-0.2-0.7-0.2c-0.2,0-0.4-0.1-0.6-0.1    c-0.5,0-0.9,0.2-1.2,0.5c-0.3,0.4-0.4,0.9-0.4,1.5c0,0.6,0.1,1.1,0.3,1.5c0.2,0.3,0.6,0.5,1.1,0.5c0.3,0,0.5-0.1,0.8-0.2    C185.5,212.2,185.8,212.1,186,211.9z"/>
		<path d="M190.7,205.1l-1.3,1.8h-0.7l0.9-1.8H190.7z M189.6,213.3h-0.9v-5.5h0.9V213.3z"/>
		<path d="M195.7,213.3h-0.9v-0.6c-0.1,0.1-0.2,0.1-0.3,0.2c-0.1,0.1-0.3,0.2-0.4,0.2c-0.2,0.1-0.3,0.1-0.5,0.2    c-0.2,0.1-0.4,0.1-0.7,0.1c-0.5,0-0.9-0.2-1.3-0.5c-0.3-0.3-0.5-0.7-0.5-1.2c0-0.4,0.1-0.7,0.3-1c0.2-0.3,0.4-0.5,0.8-0.6    c0.3-0.1,0.7-0.2,1.2-0.3c0.5-0.1,1-0.1,1.5-0.1v-0.1c0-0.2,0-0.4-0.1-0.5s-0.2-0.2-0.3-0.3c-0.1-0.1-0.3-0.1-0.5-0.2    c-0.2,0-0.4,0-0.6,0c-0.2,0-0.5,0-0.8,0.1c-0.3,0.1-0.6,0.2-0.9,0.3h0v-0.9c0.2,0,0.4-0.1,0.8-0.2c0.3-0.1,0.7-0.1,1-0.1    c0.4,0,0.7,0,1,0.1c0.3,0.1,0.5,0.2,0.7,0.3c0.2,0.1,0.4,0.3,0.5,0.6c0.1,0.2,0.2,0.5,0.2,0.9V213.3z M194.8,211.9v-1.5    c-0.3,0-0.6,0-1,0.1c-0.4,0-0.7,0.1-0.9,0.1c-0.3,0.1-0.5,0.2-0.6,0.3c-0.2,0.2-0.2,0.4-0.2,0.7c0,0.3,0.1,0.5,0.3,0.7    c0.2,0.2,0.5,0.2,0.9,0.2c0.3,0,0.6-0.1,0.9-0.2C194.3,212.2,194.6,212.1,194.8,211.9z"/>
	</g>
	<g>
		<path d="M240.2,298.8h-4.6v-7.3h1v6.4h3.6V298.8z"/>
		<path d="M245.3,298.8h-0.9v-0.6c-0.1,0.1-0.2,0.1-0.3,0.2c-0.1,0.1-0.3,0.2-0.4,0.2c-0.2,0.1-0.3,0.1-0.5,0.2    c-0.2,0.1-0.4,0.1-0.7,0.1c-0.5,0-0.9-0.2-1.3-0.5c-0.3-0.3-0.5-0.7-0.5-1.2c0-0.4,0.1-0.7,0.3-1c0.2-0.3,0.4-0.5,0.8-0.6    c0.3-0.1,0.7-0.2,1.2-0.3c0.5-0.1,1-0.1,1.5-0.1v-0.1c0-0.2,0-0.4-0.1-0.5s-0.2-0.2-0.3-0.3c-0.1-0.1-0.3-0.1-0.5-0.2    c-0.2,0-0.4,0-0.6,0c-0.2,0-0.5,0-0.8,0.1c-0.3,0.1-0.6,0.2-0.9,0.3h0v-0.9c0.2,0,0.4-0.1,0.8-0.2c0.3-0.1,0.7-0.1,1-0.1    c0.4,0,0.7,0,1,0.1c0.3,0.1,0.5,0.2,0.7,0.3c0.2,0.1,0.4,0.3,0.5,0.6c0.1,0.2,0.2,0.5,0.2,0.9V298.8z M244.4,297.5v-1.5    c-0.3,0-0.6,0-1,0.1c-0.4,0-0.7,0.1-0.9,0.1c-0.3,0.1-0.5,0.2-0.6,0.3c-0.2,0.2-0.2,0.4-0.2,0.7c0,0.3,0.1,0.5,0.3,0.7    c0.2,0.2,0.5,0.2,0.9,0.2c0.3,0,0.6-0.1,0.9-0.2C243.9,297.8,244.2,297.6,244.4,297.5z"/>
		<path d="M255.4,293.7c0,0.3-0.1,0.6-0.2,0.9c-0.1,0.3-0.3,0.5-0.5,0.7c-0.3,0.3-0.5,0.4-0.9,0.6c-0.3,0.1-0.8,0.2-1.3,0.2h-1v2.7    h-1v-7.3h2c0.4,0,0.8,0,1.1,0.1s0.6,0.2,0.8,0.3c0.3,0.2,0.5,0.4,0.6,0.7C255.3,293,255.4,293.3,255.4,293.7z M254.4,293.8    c0-0.3,0-0.5-0.1-0.7s-0.2-0.3-0.4-0.5c-0.2-0.1-0.3-0.2-0.5-0.2s-0.5-0.1-0.8-0.1h-1v2.9h0.8c0.4,0,0.7,0,1-0.1    c0.2-0.1,0.4-0.2,0.6-0.3c0.2-0.2,0.3-0.3,0.3-0.5C254.4,294.2,254.4,294,254.4,293.8z"/>
		<path d="M260.9,296.2h-4c0,0.3,0.1,0.6,0.2,0.9c0.1,0.2,0.2,0.5,0.4,0.6c0.2,0.2,0.4,0.3,0.6,0.4c0.2,0.1,0.5,0.1,0.8,0.1    c0.4,0,0.7-0.1,1.1-0.2c0.4-0.1,0.6-0.3,0.8-0.4h0v1c-0.3,0.1-0.6,0.2-0.9,0.3s-0.7,0.1-1,0.1c-0.9,0-1.6-0.2-2.1-0.7    c-0.5-0.5-0.8-1.2-0.8-2.1c0-0.9,0.2-1.6,0.7-2.1c0.5-0.5,1.1-0.8,1.9-0.8c0.7,0,1.3,0.2,1.7,0.6c0.4,0.4,0.6,1,0.6,1.8V296.2z     M260,295.5c0-0.5-0.1-0.9-0.4-1.1s-0.6-0.4-1.1-0.4c-0.5,0-0.9,0.1-1.2,0.4c-0.3,0.3-0.5,0.6-0.5,1.1H260z"/>
		<path d="M265.7,294.3L265.7,294.3c-0.2,0-0.3-0.1-0.4-0.1c-0.1,0-0.3,0-0.5,0c-0.3,0-0.6,0.1-0.8,0.2c-0.3,0.1-0.5,0.3-0.8,0.5    v3.9h-0.9v-5.5h0.9v0.8c0.4-0.3,0.7-0.5,1-0.6s0.6-0.2,0.9-0.2c0.2,0,0.3,0,0.3,0c0.1,0,0.2,0,0.3,0V294.3z"/>
		<path d="M270.7,298.8h-0.9v-0.6c-0.1,0.1-0.2,0.1-0.3,0.2c-0.1,0.1-0.3,0.2-0.4,0.2c-0.2,0.1-0.3,0.1-0.5,0.2    c-0.2,0.1-0.4,0.1-0.7,0.1c-0.5,0-0.9-0.2-1.3-0.5c-0.3-0.3-0.5-0.7-0.5-1.2c0-0.4,0.1-0.7,0.3-1c0.2-0.3,0.4-0.5,0.8-0.6    c0.3-0.1,0.7-0.2,1.2-0.3c0.5-0.1,1-0.1,1.5-0.1v-0.1c0-0.2,0-0.4-0.1-0.5s-0.2-0.2-0.3-0.3c-0.1-0.1-0.3-0.1-0.5-0.2    c-0.2,0-0.4,0-0.6,0c-0.2,0-0.5,0-0.8,0.1c-0.3,0.1-0.6,0.2-0.9,0.3h0v-0.9c0.2,0,0.4-0.1,0.8-0.2c0.3-0.1,0.7-0.1,1-0.1    c0.4,0,0.7,0,1,0.1c0.3,0.1,0.5,0.2,0.7,0.3c0.2,0.1,0.4,0.3,0.5,0.6c0.1,0.2,0.2,0.5,0.2,0.9V298.8z M269.7,297.5v-1.5    c-0.3,0-0.6,0-1,0.1c-0.4,0-0.7,0.1-0.9,0.1c-0.3,0.1-0.5,0.2-0.6,0.3c-0.2,0.2-0.2,0.4-0.2,0.7c0,0.3,0.1,0.5,0.3,0.7    c0.2,0.2,0.5,0.2,0.9,0.2c0.3,0,0.6-0.1,0.9-0.2C269.3,297.8,269.5,297.6,269.7,297.5z"/>
		<path d="M273.4,298.8h-0.9v-7.6h0.9V298.8z"/>
		<path d="M279.7,296.2h-4c0,0.3,0.1,0.6,0.2,0.9c0.1,0.2,0.2,0.5,0.4,0.6c0.2,0.2,0.4,0.3,0.6,0.4c0.2,0.1,0.5,0.1,0.8,0.1    c0.4,0,0.7-0.1,1.1-0.2c0.4-0.1,0.6-0.3,0.8-0.4h0v1c-0.3,0.1-0.6,0.2-0.9,0.3s-0.7,0.1-1,0.1c-0.9,0-1.6-0.2-2.1-0.7    c-0.5-0.5-0.8-1.2-0.8-2.1c0-0.9,0.2-1.6,0.7-2.1c0.5-0.5,1.1-0.8,1.9-0.8c0.7,0,1.3,0.2,1.7,0.6c0.4,0.4,0.6,1,0.6,1.8V296.2z     M278.8,295.5c0-0.5-0.1-0.9-0.4-1.1s-0.6-0.4-1.1-0.4c-0.5,0-0.9,0.1-1.2,0.4c-0.3,0.3-0.5,0.6-0.5,1.1H278.8z"/>
		<path d="M282.8,298.9c0,0.6-0.2,1.1-0.5,1.4c-0.3,0.3-0.8,0.5-1.3,0.5c-0.1,0-0.3,0-0.5,0c-0.2,0-0.4-0.1-0.5-0.1v-0.9h0    c0.1,0,0.2,0.1,0.4,0.1c0.2,0,0.3,0.1,0.5,0.1c0.2,0,0.4,0,0.6-0.1c0.1-0.1,0.3-0.2,0.3-0.3c0.1-0.1,0.1-0.3,0.1-0.5    c0-0.2,0-0.4,0-0.7v-4.4h-1.1v-0.8h2.1V298.9z M282.8,292.4h-1v-1h1V292.4z"/>
		<path d="M288.8,298.8h-0.9v-0.6c-0.1,0.1-0.2,0.1-0.3,0.2c-0.1,0.1-0.3,0.2-0.4,0.2c-0.2,0.1-0.3,0.1-0.5,0.2    c-0.2,0.1-0.4,0.1-0.7,0.1c-0.5,0-0.9-0.2-1.3-0.5c-0.3-0.3-0.5-0.7-0.5-1.2c0-0.4,0.1-0.7,0.3-1c0.2-0.3,0.4-0.5,0.8-0.6    c0.3-0.1,0.7-0.2,1.2-0.3c0.5-0.1,1-0.1,1.5-0.1v-0.1c0-0.2,0-0.4-0.1-0.5s-0.2-0.2-0.3-0.3c-0.1-0.1-0.3-0.1-0.5-0.2    c-0.2,0-0.4,0-0.6,0c-0.2,0-0.5,0-0.8,0.1c-0.3,0.1-0.6,0.2-0.9,0.3h0v-0.9c0.2,0,0.4-0.1,0.8-0.2c0.3-0.1,0.7-0.1,1-0.1    c0.4,0,0.7,0,1,0.1c0.3,0.1,0.5,0.2,0.7,0.3c0.2,0.1,0.4,0.3,0.5,0.6c0.1,0.2,0.2,0.5,0.2,0.9V298.8z M287.9,297.5v-1.5    c-0.3,0-0.6,0-1,0.1c-0.4,0-0.7,0.1-0.9,0.1c-0.3,0.1-0.5,0.2-0.6,0.3c-0.2,0.2-0.2,0.4-0.2,0.7c0,0.3,0.1,0.5,0.3,0.7    c0.2,0.2,0.5,0.2,0.9,0.2c0.3,0,0.6-0.1,0.9-0.2C287.4,297.8,287.7,297.6,287.9,297.5z"/>
	</g>
	<g>
		<path d="M195.7,356.3h-1v-3.6h-3.6v3.6h-1V349h1v2.9h3.6V349h1V356.3z"/>
		<path d="M202.1,356.3h-0.9v-0.6c-0.3,0.2-0.6,0.4-0.9,0.6s-0.6,0.2-0.9,0.2c-0.6,0-1-0.2-1.3-0.5c-0.3-0.3-0.5-0.9-0.5-1.5v-3.5    h0.9v3.1c0,0.3,0,0.5,0,0.7c0,0.2,0.1,0.4,0.2,0.5c0.1,0.1,0.2,0.2,0.3,0.3c0.1,0.1,0.3,0.1,0.6,0.1c0.2,0,0.5-0.1,0.8-0.2    c0.3-0.1,0.5-0.3,0.8-0.5v-4.1h0.9V356.3z"/>
		<path d="M208.4,353.6h-4c0,0.3,0.1,0.6,0.2,0.9c0.1,0.2,0.2,0.5,0.4,0.6c0.2,0.2,0.4,0.3,0.6,0.4c0.2,0.1,0.5,0.1,0.8,0.1    c0.4,0,0.7-0.1,1.1-0.2c0.4-0.1,0.6-0.3,0.8-0.4h0v1c-0.3,0.1-0.6,0.2-0.9,0.3s-0.7,0.1-1,0.1c-0.9,0-1.6-0.2-2.1-0.7    c-0.5-0.5-0.8-1.2-0.8-2.1c0-0.9,0.2-1.6,0.7-2.1c0.5-0.5,1.1-0.8,1.9-0.8c0.7,0,1.3,0.2,1.7,0.6c0.4,0.4,0.6,1,0.6,1.8V353.6z     M207.5,352.9c0-0.5-0.1-0.9-0.4-1.1s-0.6-0.4-1.1-0.4c-0.5,0-0.9,0.1-1.2,0.4c-0.3,0.3-0.5,0.6-0.5,1.1H207.5z"/>
		<path d="M212.7,356.2c-0.2,0-0.4,0.1-0.6,0.1c-0.2,0-0.4,0-0.5,0c-0.6,0-1-0.1-1.3-0.4c-0.3-0.3-0.4-0.8-0.4-1.4v-2.9h-0.6v-0.8    h0.6v-1.6h0.9v1.6h1.9v0.8h-1.9v2.5c0,0.3,0,0.5,0,0.7c0,0.2,0.1,0.3,0.1,0.5c0.1,0.1,0.2,0.2,0.3,0.3c0.1,0.1,0.3,0.1,0.6,0.1    c0.1,0,0.3,0,0.5-0.1c0.2,0,0.3-0.1,0.4-0.1h0V356.2z"/>
		<path d="M218.3,353.6h-4c0,0.3,0.1,0.6,0.2,0.9c0.1,0.2,0.2,0.5,0.4,0.6c0.2,0.2,0.4,0.3,0.6,0.4c0.2,0.1,0.5,0.1,0.8,0.1    c0.4,0,0.7-0.1,1.1-0.2c0.4-0.1,0.6-0.3,0.8-0.4h0v1c-0.3,0.1-0.6,0.2-0.9,0.3s-0.7,0.1-1,0.1c-0.9,0-1.6-0.2-2.1-0.7    c-0.5-0.5-0.8-1.2-0.8-2.1c0-0.9,0.2-1.6,0.7-2.1c0.5-0.5,1.1-0.8,1.9-0.8c0.7,0,1.3,0.2,1.7,0.6c0.4,0.4,0.6,1,0.6,1.8V353.6z     M217.4,352.9c0-0.5-0.1-0.9-0.4-1.1s-0.6-0.4-1.1-0.4c-0.5,0-0.9,0.1-1.2,0.4c-0.3,0.3-0.5,0.6-0.5,1.1H217.4z"/>
	</g>
	<g>
		<path d="M378.8,277l-2.6,7.3h-1.3l-2.6-7.3h1l2.3,6.4l2.3-6.4H378.8z"/>
		<path d="M380.8,277.9h-1v-1h1V277.9z M380.7,284.2h-0.9v-5.5h0.9V284.2z"/>
		<path d="M383.5,284.2h-0.9v-7.6h0.9V284.2z"/>
		<path d="M386.2,284.2h-0.9v-7.6h0.9V284.2z"/>
		<path d="M392.2,284.2h-0.9v-0.6c-0.1,0.1-0.2,0.1-0.3,0.2c-0.1,0.1-0.3,0.2-0.4,0.2c-0.2,0.1-0.3,0.1-0.5,0.2    c-0.2,0.1-0.4,0.1-0.7,0.1c-0.5,0-0.9-0.2-1.3-0.5c-0.3-0.3-0.5-0.7-0.5-1.2c0-0.4,0.1-0.7,0.3-1c0.2-0.3,0.4-0.5,0.8-0.6    c0.3-0.1,0.7-0.2,1.2-0.3c0.5-0.1,1-0.1,1.5-0.1v-0.1c0-0.2,0-0.4-0.1-0.5s-0.2-0.2-0.3-0.3c-0.1-0.1-0.3-0.1-0.5-0.2    c-0.2,0-0.4,0-0.6,0c-0.2,0-0.5,0-0.8,0.1c-0.3,0.1-0.6,0.2-0.9,0.3h0v-0.9c0.2,0,0.4-0.1,0.8-0.2c0.3-0.1,0.7-0.1,1-0.1    c0.4,0,0.7,0,1,0.1c0.3,0.1,0.5,0.2,0.7,0.3c0.2,0.1,0.4,0.3,0.5,0.6c0.1,0.2,0.2,0.5,0.2,0.9V284.2z M391.3,282.9v-1.5    c-0.3,0-0.6,0-1,0.1c-0.4,0-0.7,0.1-0.9,0.1c-0.3,0.1-0.5,0.2-0.6,0.3c-0.2,0.2-0.2,0.4-0.2,0.7c0,0.3,0.1,0.5,0.3,0.7    c0.2,0.2,0.5,0.2,0.9,0.2c0.3,0,0.6-0.1,0.9-0.2C390.9,283.2,391.1,283.1,391.3,282.9z"/>
		<path d="M397.4,279.8L397.4,279.8c-0.2,0-0.3-0.1-0.4-0.1c-0.1,0-0.3,0-0.5,0c-0.3,0-0.6,0.1-0.8,0.2c-0.3,0.1-0.5,0.3-0.8,0.5    v3.9H394v-5.5h0.9v0.8c0.4-0.3,0.7-0.5,1-0.6s0.6-0.2,0.9-0.2c0.2,0,0.3,0,0.3,0c0.1,0,0.2,0,0.3,0V279.8z"/>
		<path d="M406.2,284.2h-0.9v-0.6c-0.3,0.2-0.5,0.4-0.8,0.5c-0.3,0.1-0.6,0.2-0.9,0.2c-0.7,0-1.2-0.3-1.6-0.8    c-0.4-0.5-0.6-1.2-0.6-2.1c0-0.5,0.1-0.9,0.2-1.2s0.3-0.7,0.5-0.9c0.2-0.2,0.5-0.4,0.8-0.6c0.3-0.1,0.6-0.2,0.9-0.2    c0.3,0,0.5,0,0.8,0.1c0.2,0.1,0.5,0.2,0.7,0.3v-2.4h0.9V284.2z M405.3,282.9v-3.1c-0.2-0.1-0.5-0.2-0.7-0.2    c-0.2,0-0.4-0.1-0.6-0.1c-0.5,0-0.9,0.2-1.2,0.5c-0.3,0.4-0.4,0.9-0.4,1.5c0,0.6,0.1,1.1,0.3,1.5c0.2,0.3,0.6,0.5,1.1,0.5    c0.3,0,0.5-0.1,0.8-0.2C404.8,283.2,405.1,283.1,405.3,282.9z"/>
		<path d="M412.6,281.6h-4c0,0.3,0.1,0.6,0.2,0.9c0.1,0.2,0.2,0.5,0.4,0.6c0.2,0.2,0.4,0.3,0.6,0.4c0.2,0.1,0.5,0.1,0.8,0.1    c0.4,0,0.7-0.1,1.1-0.2c0.4-0.1,0.6-0.3,0.8-0.4h0v1c-0.3,0.1-0.6,0.2-0.9,0.3s-0.7,0.1-1,0.1c-0.9,0-1.6-0.2-2.1-0.7    c-0.5-0.5-0.8-1.2-0.8-2.1c0-0.9,0.2-1.6,0.7-2.1c0.5-0.5,1.1-0.8,1.9-0.8c0.7,0,1.3,0.2,1.7,0.6c0.4,0.4,0.6,1,0.6,1.8V281.6z     M411.7,280.9c0-0.5-0.1-0.9-0.4-1.1s-0.6-0.4-1.1-0.4c-0.5,0-0.9,0.1-1.2,0.4c-0.3,0.3-0.5,0.6-0.5,1.1H411.7z"/>
		<path d="M339.8,290.6c0,0.7-0.1,1.3-0.4,1.8s-0.7,1-1.1,1.3c-0.3,0.2-0.7,0.4-1.1,0.4c-0.4,0.1-0.9,0.1-1.6,0.1h-1.8V287h1.8    c0.7,0,1.3,0.1,1.7,0.2c0.4,0.1,0.8,0.2,1.1,0.4c0.5,0.3,0.9,0.7,1.2,1.2C339.7,289.3,339.8,289.9,339.8,290.6z M338.8,290.6    c0-0.6-0.1-1-0.3-1.4c-0.2-0.4-0.5-0.7-0.9-0.9c-0.3-0.2-0.6-0.3-0.9-0.3s-0.7-0.1-1.2-0.1h-0.9v5.6h0.9c0.5,0,0.9,0,1.2-0.1    s0.7-0.2,1-0.4c0.4-0.2,0.6-0.5,0.8-0.9C338.7,291.6,338.8,291.1,338.8,290.6z"/>
		<path d="M346,291.5c0,0.9-0.2,1.6-0.7,2.1c-0.5,0.5-1.1,0.8-1.8,0.8c-0.8,0-1.4-0.3-1.8-0.8c-0.5-0.5-0.7-1.2-0.7-2.1    s0.2-1.6,0.7-2.1c0.5-0.5,1.1-0.8,1.8-0.8c0.8,0,1.4,0.3,1.8,0.8C345.7,289.9,346,290.6,346,291.5z M345,291.5    c0-0.7-0.1-1.2-0.4-1.6c-0.3-0.3-0.7-0.5-1.2-0.5c-0.5,0-0.9,0.2-1.2,0.5c-0.3,0.3-0.4,0.9-0.4,1.6c0,0.7,0.1,1.2,0.4,1.6    c0.3,0.4,0.7,0.5,1.2,0.5c0.5,0,0.9-0.2,1.1-0.5C344.9,292.7,345,292.2,345,291.5z"/>
		<path d="M355.4,294.2h-0.9v-3.1c0-0.2,0-0.5,0-0.7c0-0.2-0.1-0.4-0.1-0.5c-0.1-0.1-0.2-0.2-0.3-0.3c-0.1-0.1-0.3-0.1-0.6-0.1    c-0.3,0-0.5,0.1-0.8,0.2c-0.3,0.1-0.5,0.3-0.8,0.5c0,0.1,0,0.2,0,0.3c0,0.1,0,0.2,0,0.3v3.5h-0.9v-3.1c0-0.2,0-0.5,0-0.7    c0-0.2-0.1-0.4-0.1-0.5c-0.1-0.1-0.2-0.2-0.3-0.3c-0.1-0.1-0.3-0.1-0.6-0.1c-0.3,0-0.5,0.1-0.8,0.2c-0.3,0.1-0.5,0.3-0.8,0.5v4.1    h-0.9v-5.5h0.9v0.6c0.3-0.2,0.6-0.4,0.9-0.6c0.3-0.1,0.6-0.2,0.9-0.2c0.4,0,0.7,0.1,0.9,0.2s0.5,0.4,0.6,0.6    c0.4-0.3,0.7-0.5,1-0.7c0.3-0.1,0.6-0.2,1-0.2c0.6,0,1,0.2,1.3,0.5c0.3,0.4,0.4,0.9,0.4,1.5V294.2z"/>
		<path d="M358.1,287.9h-1v-1h1V287.9z M358.1,294.2h-0.9v-5.5h0.9V294.2z"/>
		<path d="M364.4,294.2h-0.9v-3.1c0-0.3,0-0.5,0-0.7s-0.1-0.4-0.2-0.5c-0.1-0.1-0.2-0.2-0.4-0.3c-0.2-0.1-0.4-0.1-0.6-0.1    c-0.3,0-0.5,0.1-0.8,0.2c-0.3,0.1-0.5,0.3-0.8,0.5v4.1h-0.9v-5.5h0.9v0.6c0.3-0.2,0.6-0.4,0.9-0.6c0.3-0.1,0.6-0.2,0.9-0.2    c0.6,0,1,0.2,1.3,0.5c0.3,0.4,0.5,0.9,0.5,1.5V294.2z"/>
		<path d="M370.6,293.6c0,0.9-0.2,1.6-0.6,2c-0.4,0.4-1.1,0.6-1.9,0.6c-0.3,0-0.6,0-0.8-0.1c-0.3,0-0.5-0.1-0.8-0.2v-0.9h0    c0.1,0.1,0.4,0.1,0.7,0.2c0.3,0.1,0.7,0.1,1,0.1c0.3,0,0.6,0,0.8-0.1c0.2-0.1,0.4-0.2,0.5-0.3c0.1-0.1,0.2-0.3,0.2-0.5    c0-0.2,0.1-0.4,0.1-0.6v-0.5c-0.3,0.2-0.5,0.4-0.8,0.5c-0.3,0.1-0.6,0.2-1,0.2c-0.7,0-1.2-0.2-1.6-0.7c-0.4-0.5-0.6-1.1-0.6-2    c0-0.5,0.1-0.9,0.2-1.2c0.1-0.3,0.3-0.6,0.5-0.9c0.2-0.2,0.5-0.4,0.8-0.5c0.3-0.1,0.6-0.2,0.9-0.2c0.3,0,0.6,0,0.8,0.1    c0.2,0.1,0.4,0.2,0.7,0.3l0.1-0.2h0.9V293.6z M369.7,292.7v-3c-0.2-0.1-0.5-0.2-0.7-0.2c-0.2,0-0.4-0.1-0.6-0.1    c-0.5,0-0.9,0.2-1.2,0.5c-0.3,0.3-0.4,0.8-0.4,1.5c0,0.6,0.1,1.1,0.3,1.4c0.2,0.3,0.6,0.5,1.1,0.5c0.3,0,0.5-0.1,0.8-0.2    S369.5,292.9,369.7,292.7z"/>
		<path d="M377.1,291.5c0,0.9-0.2,1.6-0.7,2.1c-0.5,0.5-1.1,0.8-1.8,0.8c-0.8,0-1.4-0.3-1.8-0.8c-0.5-0.5-0.7-1.2-0.7-2.1    s0.2-1.6,0.7-2.1c0.5-0.5,1.1-0.8,1.8-0.8c0.8,0,1.4,0.3,1.8,0.8C376.8,289.9,377.1,290.6,377.1,291.5z M376.1,291.5    c0-0.7-0.1-1.2-0.4-1.6c-0.3-0.3-0.7-0.5-1.2-0.5c-0.5,0-0.9,0.2-1.2,0.5c-0.3,0.3-0.4,0.9-0.4,1.6c0,0.7,0.1,1.2,0.4,1.6    c0.3,0.4,0.7,0.5,1.2,0.5c0.5,0,0.9-0.2,1.1-0.5C376,292.7,376.1,292.2,376.1,291.5z"/>
		<path d="M388.2,293.7c-0.4,0.2-0.8,0.3-1.3,0.5c-0.5,0.1-0.9,0.2-1.4,0.2c-0.6,0-1.1-0.1-1.6-0.2c-0.5-0.2-0.9-0.4-1.2-0.7    c-0.3-0.3-0.6-0.7-0.8-1.2c-0.2-0.5-0.3-1-0.3-1.7c0-1.2,0.3-2.1,1-2.8c0.7-0.7,1.6-1,2.8-1c0.4,0,0.8,0,1.3,0.1    c0.4,0.1,0.9,0.3,1.4,0.5v1.1h-0.1c-0.1-0.1-0.2-0.2-0.4-0.3c-0.2-0.1-0.4-0.2-0.6-0.3c-0.2-0.1-0.5-0.2-0.8-0.3    c-0.3-0.1-0.6-0.1-1-0.1c-0.8,0-1.5,0.3-1.9,0.8s-0.7,1.2-0.7,2.1c0,0.9,0.2,1.7,0.7,2.2c0.5,0.5,1.2,0.8,2,0.8    c0.3,0,0.6,0,0.9-0.1c0.3-0.1,0.6-0.1,0.8-0.2v-1.8h-1.9v-0.8h2.9V293.7z"/>
		<path d="M394,294.2h-0.9v-0.6c-0.1,0.1-0.2,0.1-0.3,0.2c-0.1,0.1-0.3,0.2-0.4,0.2c-0.2,0.1-0.3,0.1-0.5,0.2    c-0.2,0.1-0.4,0.1-0.7,0.1c-0.5,0-0.9-0.2-1.3-0.5c-0.3-0.3-0.5-0.7-0.5-1.2c0-0.4,0.1-0.7,0.3-1c0.2-0.3,0.4-0.5,0.8-0.6    c0.3-0.1,0.7-0.2,1.2-0.3c0.5-0.1,1-0.1,1.5-0.1v-0.1c0-0.2,0-0.4-0.1-0.5s-0.2-0.2-0.3-0.3c-0.1-0.1-0.3-0.1-0.5-0.2    c-0.2,0-0.4,0-0.6,0c-0.2,0-0.5,0-0.8,0.1c-0.3,0.1-0.6,0.2-0.9,0.3h0v-0.9c0.2,0,0.4-0.1,0.8-0.2c0.3-0.1,0.7-0.1,1-0.1    c0.4,0,0.7,0,1,0.1c0.3,0.1,0.5,0.2,0.7,0.3c0.2,0.1,0.4,0.3,0.5,0.6c0.1,0.2,0.2,0.5,0.2,0.9V294.2z M393.1,292.9v-1.5    c-0.3,0-0.6,0-1,0.1c-0.4,0-0.7,0.1-0.9,0.1c-0.3,0.1-0.5,0.2-0.6,0.3c-0.2,0.2-0.2,0.4-0.2,0.7c0,0.3,0.1,0.5,0.3,0.7    c0.2,0.2,0.5,0.2,0.9,0.2c0.3,0,0.6-0.1,0.9-0.2C392.6,293.2,392.9,293.1,393.1,292.9z"/>
		<path d="M399.2,289.8L399.2,289.8c-0.2,0-0.3-0.1-0.4-0.1c-0.1,0-0.3,0-0.5,0c-0.3,0-0.6,0.1-0.8,0.2c-0.3,0.1-0.5,0.3-0.8,0.5    v3.9h-0.9v-5.5h0.9v0.8c0.4-0.3,0.7-0.5,1-0.6s0.6-0.2,0.9-0.2c0.2,0,0.3,0,0.3,0c0.1,0,0.2,0,0.3,0V289.8z"/>
		<path d="M404.1,293.9c-0.3,0.1-0.6,0.3-0.9,0.3c-0.3,0.1-0.6,0.1-0.9,0.1c-0.4,0-0.8-0.1-1.1-0.2c-0.3-0.1-0.6-0.3-0.8-0.5    c-0.2-0.2-0.4-0.5-0.6-0.9c-0.1-0.4-0.2-0.8-0.2-1.3c0-0.9,0.2-1.6,0.7-2.1c0.5-0.5,1.1-0.8,1.9-0.8c0.3,0,0.6,0,0.9,0.1    c0.3,0.1,0.6,0.2,0.8,0.3v1h0c-0.3-0.2-0.6-0.4-0.9-0.5s-0.6-0.2-0.9-0.2c-0.5,0-0.9,0.2-1.2,0.5c-0.3,0.3-0.5,0.9-0.5,1.5    c0,0.7,0.1,1.2,0.4,1.5c0.3,0.4,0.7,0.5,1.2,0.5c0.2,0,0.4,0,0.6-0.1c0.2,0,0.4-0.1,0.5-0.2c0.1-0.1,0.3-0.1,0.4-0.2    c0.1-0.1,0.2-0.1,0.3-0.2h0V293.9z"/>
		<path d="M407.2,286l-1.3,1.8h-0.7l0.9-1.8H407.2z M406.2,294.2h-0.9v-5.5h0.9V294.2z"/>
		<path d="M412.2,294.2h-0.9v-0.6c-0.1,0.1-0.2,0.1-0.3,0.2c-0.1,0.1-0.3,0.2-0.4,0.2c-0.2,0.1-0.3,0.1-0.5,0.2    c-0.2,0.1-0.4,0.1-0.7,0.1c-0.5,0-0.9-0.2-1.3-0.5c-0.3-0.3-0.5-0.7-0.5-1.2c0-0.4,0.1-0.7,0.3-1c0.2-0.3,0.4-0.5,0.8-0.6    c0.3-0.1,0.7-0.2,1.2-0.3c0.5-0.1,1-0.1,1.5-0.1v-0.1c0-0.2,0-0.4-0.1-0.5s-0.2-0.2-0.3-0.3c-0.1-0.1-0.3-0.1-0.5-0.2    c-0.2,0-0.4,0-0.6,0c-0.2,0-0.5,0-0.8,0.1c-0.3,0.1-0.6,0.2-0.9,0.3h0v-0.9c0.2,0,0.4-0.1,0.8-0.2c0.3-0.1,0.7-0.1,1-0.1    c0.4,0,0.7,0,1,0.1c0.3,0.1,0.5,0.2,0.7,0.3c0.2,0.1,0.4,0.3,0.5,0.6c0.1,0.2,0.2,0.5,0.2,0.9V294.2z M411.3,292.9v-1.5    c-0.3,0-0.6,0-1,0.1c-0.4,0-0.7,0.1-0.9,0.1c-0.3,0.1-0.5,0.2-0.6,0.3c-0.2,0.2-0.2,0.4-0.2,0.7c0,0.3,0.1,0.5,0.3,0.7    c0.2,0.2,0.5,0.2,0.9,0.2c0.3,0,0.6-0.1,0.9-0.2C410.8,293.2,411.1,293.1,411.3,292.9z"/>
	</g>
	<circle style="fill:#5B7EBD;" cx="62.4" cy="365.3" r="2.4"/>
	<g>
		<path d="M47.7,355c0,0.4-0.1,0.7-0.2,1c-0.1,0.3-0.3,0.5-0.6,0.7c-0.3,0.2-0.6,0.4-0.9,0.5c-0.3,0.1-0.7,0.1-1.2,0.1h-2.6V350h2.2    c0.5,0,0.9,0,1.2,0.1s0.5,0.1,0.8,0.2c0.3,0.1,0.5,0.3,0.6,0.5c0.1,0.2,0.2,0.5,0.2,0.8c0,0.3-0.1,0.6-0.3,0.9    c-0.2,0.2-0.4,0.4-0.7,0.6v0c0.5,0.1,0.9,0.3,1.2,0.6C47.6,354.1,47.7,354.5,47.7,355z M46.1,351.7c0-0.2,0-0.3-0.1-0.4    c-0.1-0.1-0.2-0.2-0.3-0.3c-0.2-0.1-0.3-0.1-0.6-0.2c-0.2,0-0.5,0-0.8,0h-1.2v2.1h1.3c0.3,0,0.5,0,0.7,0c0.2,0,0.3-0.1,0.5-0.2    c0.2-0.1,0.3-0.2,0.3-0.4C46,352.1,46.1,352,46.1,351.7z M46.7,355.1c0-0.3,0-0.5-0.1-0.7c-0.1-0.2-0.2-0.3-0.5-0.4    c-0.2-0.1-0.3-0.1-0.6-0.2c-0.2,0-0.5,0-0.8,0h-1.5v2.7h1.3c0.4,0,0.8,0,1-0.1c0.3,0,0.5-0.1,0.7-0.2c0.2-0.1,0.3-0.3,0.4-0.4    C46.7,355.5,46.7,355.3,46.7,355.1z"/>
		<path d="M53.2,357.3h-0.9v-0.6c-0.1,0.1-0.2,0.1-0.3,0.2c-0.1,0.1-0.3,0.2-0.4,0.2c-0.2,0.1-0.3,0.1-0.5,0.2    c-0.2,0.1-0.4,0.1-0.7,0.1c-0.5,0-0.9-0.2-1.3-0.5c-0.3-0.3-0.5-0.7-0.5-1.2c0-0.4,0.1-0.7,0.3-1c0.2-0.3,0.4-0.5,0.8-0.6    c0.3-0.1,0.7-0.2,1.2-0.3c0.5-0.1,1-0.1,1.5-0.1v-0.1c0-0.2,0-0.4-0.1-0.5s-0.2-0.2-0.3-0.3c-0.1-0.1-0.3-0.1-0.5-0.2    c-0.2,0-0.4,0-0.6,0c-0.2,0-0.5,0-0.8,0.1c-0.3,0.1-0.6,0.2-0.9,0.3h0v-0.9c0.2,0,0.4-0.1,0.8-0.2c0.3-0.1,0.7-0.1,1-0.1    c0.4,0,0.7,0,1,0.1c0.3,0.1,0.5,0.2,0.7,0.3c0.2,0.1,0.4,0.3,0.5,0.6c0.1,0.2,0.2,0.5,0.2,0.9V357.3z M52.3,355.9v-1.5    c-0.3,0-0.6,0-1,0.1c-0.4,0-0.7,0.1-0.9,0.1c-0.3,0.1-0.5,0.2-0.6,0.3c-0.2,0.2-0.2,0.4-0.2,0.7c0,0.3,0.1,0.5,0.3,0.7    c0.2,0.2,0.5,0.2,0.9,0.2c0.3,0,0.6-0.1,0.9-0.2C51.9,356.2,52.1,356.1,52.3,355.9z"/>
		<path d="M58.4,352.8L58.4,352.8c-0.2,0-0.3-0.1-0.4-0.1c-0.1,0-0.3,0-0.5,0c-0.3,0-0.6,0.1-0.8,0.2c-0.3,0.1-0.5,0.3-0.8,0.5v3.9    H55v-5.5h0.9v0.8c0.4-0.3,0.7-0.5,1-0.6s0.6-0.2,0.9-0.2c0.2,0,0.3,0,0.3,0c0.1,0,0.2,0,0.3,0V352.8z"/>
		<path d="M63.3,357.3h-0.9v-0.6c-0.1,0.1-0.2,0.1-0.3,0.2c-0.1,0.1-0.3,0.2-0.4,0.2c-0.2,0.1-0.3,0.1-0.5,0.2    c-0.2,0.1-0.4,0.1-0.7,0.1c-0.5,0-0.9-0.2-1.3-0.5c-0.3-0.3-0.5-0.7-0.5-1.2c0-0.4,0.1-0.7,0.3-1c0.2-0.3,0.4-0.5,0.8-0.6    c0.3-0.1,0.7-0.2,1.2-0.3c0.5-0.1,1-0.1,1.5-0.1v-0.1c0-0.2,0-0.4-0.1-0.5s-0.2-0.2-0.3-0.3c-0.1-0.1-0.3-0.1-0.5-0.2    c-0.2,0-0.4,0-0.6,0c-0.2,0-0.5,0-0.8,0.1c-0.3,0.1-0.6,0.2-0.9,0.3h0v-0.9c0.2,0,0.4-0.1,0.8-0.2c0.3-0.1,0.7-0.1,1-0.1    c0.4,0,0.7,0,1,0.1c0.3,0.1,0.5,0.2,0.7,0.3c0.2,0.1,0.4,0.3,0.5,0.6c0.1,0.2,0.2,0.5,0.2,0.9V357.3z M62.4,355.9v-1.5    c-0.3,0-0.6,0-1,0.1c-0.4,0-0.7,0.1-0.9,0.1c-0.3,0.1-0.5,0.2-0.6,0.3c-0.2,0.2-0.2,0.4-0.2,0.7c0,0.3,0.1,0.5,0.3,0.7    c0.2,0.2,0.5,0.2,0.9,0.2c0.3,0,0.6-0.1,0.9-0.2C61.9,356.2,62.2,356.1,62.4,355.9z"/>
		<path d="M66.7,357.4c0,0.6-0.2,1.1-0.5,1.4c-0.3,0.3-0.8,0.5-1.3,0.5c-0.1,0-0.3,0-0.5,0c-0.2,0-0.4-0.1-0.5-0.1v-0.9h0    c0.1,0,0.2,0.1,0.4,0.1c0.2,0,0.3,0.1,0.5,0.1c0.2,0,0.4,0,0.6-0.1c0.1-0.1,0.3-0.2,0.3-0.3c0.1-0.1,0.1-0.3,0.1-0.5    c0-0.2,0-0.4,0-0.7v-4.4h-1.1v-0.8h2.1V357.4z M66.8,350.9h-1v-1h1V350.9z"/>
		<path d="M72.8,357.3h-0.9v-0.6c-0.1,0.1-0.2,0.1-0.3,0.2c-0.1,0.1-0.3,0.2-0.4,0.2c-0.2,0.1-0.3,0.1-0.5,0.2    c-0.2,0.1-0.4,0.1-0.7,0.1c-0.5,0-0.9-0.2-1.3-0.5c-0.3-0.3-0.5-0.7-0.5-1.2c0-0.4,0.1-0.7,0.3-1c0.2-0.3,0.4-0.5,0.8-0.6    c0.3-0.1,0.7-0.2,1.2-0.3c0.5-0.1,1-0.1,1.5-0.1v-0.1c0-0.2,0-0.4-0.1-0.5s-0.2-0.2-0.3-0.3c-0.1-0.1-0.3-0.1-0.5-0.2    c-0.2,0-0.4,0-0.6,0c-0.2,0-0.5,0-0.8,0.1c-0.3,0.1-0.6,0.2-0.9,0.3h0v-0.9c0.2,0,0.4-0.1,0.8-0.2c0.3-0.1,0.7-0.1,1-0.1    c0.4,0,0.7,0,1,0.1c0.3,0.1,0.5,0.2,0.7,0.3c0.2,0.1,0.4,0.3,0.5,0.6c0.1,0.2,0.2,0.5,0.2,0.9V357.3z M71.9,355.9v-1.5    c-0.3,0-0.6,0-1,0.1c-0.4,0-0.7,0.1-0.9,0.1c-0.3,0.1-0.5,0.2-0.6,0.3c-0.2,0.2-0.2,0.4-0.2,0.7c0,0.3,0.1,0.5,0.3,0.7    c0.2,0.2,0.5,0.2,0.9,0.2c0.3,0,0.6-0.1,0.9-0.2C71.4,356.2,71.6,356.1,71.9,355.9z"/>
		<path d="M78.1,354.7c0.2,0.2,0.3,0.6,0.3,1c0,0.5-0.2,0.9-0.6,1.2c-0.4,0.3-1,0.5-1.7,0.5c-0.4,0-0.8,0-1.1-0.1s-0.6-0.2-0.8-0.3    v-1h0c0.3,0.2,0.6,0.4,1,0.5c0.4,0.1,0.7,0.2,1,0.2c0.4,0,0.7-0.1,0.9-0.2c0.2-0.1,0.3-0.3,0.3-0.6c0-0.2-0.1-0.4-0.2-0.5    c-0.1-0.1-0.4-0.2-0.7-0.3c-0.1,0-0.3-0.1-0.5-0.1s-0.4-0.1-0.6-0.1c-0.5-0.1-0.8-0.3-1-0.6c-0.2-0.2-0.3-0.5-0.3-0.9    c0-0.2,0-0.4,0.1-0.6c0.1-0.2,0.2-0.4,0.4-0.5c0.2-0.2,0.4-0.3,0.7-0.4c0.3-0.1,0.6-0.1,0.9-0.1c0.3,0,0.7,0,1,0.1    c0.3,0.1,0.6,0.2,0.8,0.3v1h0c-0.2-0.2-0.5-0.3-0.9-0.4c-0.3-0.1-0.7-0.2-1-0.2c-0.3,0-0.6,0.1-0.8,0.2c-0.2,0.1-0.3,0.3-0.3,0.6    c0,0.2,0.1,0.4,0.2,0.5c0.1,0.1,0.4,0.2,0.7,0.3c0.2,0,0.4,0.1,0.6,0.1s0.4,0.1,0.5,0.1C77.5,354.3,77.9,354.5,78.1,354.7    L78.1,354.7z"/>
		<path d="M87.7,357.3h-0.9v-0.6c-0.3,0.2-0.5,0.4-0.8,0.5c-0.3,0.1-0.6,0.2-0.9,0.2c-0.7,0-1.2-0.3-1.6-0.8    c-0.4-0.5-0.6-1.2-0.6-2.1c0-0.5,0.1-0.9,0.2-1.2s0.3-0.7,0.5-0.9c0.2-0.2,0.5-0.4,0.8-0.6c0.3-0.1,0.6-0.2,0.9-0.2    c0.3,0,0.5,0,0.8,0.1c0.2,0.1,0.5,0.2,0.7,0.3v-2.4h0.9V357.3z M86.8,355.9v-3.1c-0.2-0.1-0.5-0.2-0.7-0.2c-0.2,0-0.4-0.1-0.6-0.1    c-0.5,0-0.9,0.2-1.2,0.5c-0.3,0.4-0.4,0.9-0.4,1.5c0,0.6,0.1,1.1,0.3,1.5c0.2,0.3,0.6,0.5,1.1,0.5c0.3,0,0.5-0.1,0.8-0.2    C86.3,356.2,86.6,356.1,86.8,355.9z"/>
		<path d="M94.1,354.6h-4c0,0.3,0.1,0.6,0.2,0.9c0.1,0.2,0.2,0.5,0.4,0.6c0.2,0.2,0.4,0.3,0.6,0.4c0.2,0.1,0.5,0.1,0.8,0.1    c0.4,0,0.7-0.1,1.1-0.2c0.4-0.1,0.6-0.3,0.8-0.4h0v1c-0.3,0.1-0.6,0.2-0.9,0.3s-0.7,0.1-1,0.1c-0.9,0-1.6-0.2-2.1-0.7    c-0.5-0.5-0.8-1.2-0.8-2.1c0-0.9,0.2-1.6,0.7-2.1c0.5-0.5,1.1-0.8,1.9-0.8c0.7,0,1.3,0.2,1.7,0.6c0.4,0.4,0.6,1,0.6,1.8V354.6z     M93.2,353.9c0-0.5-0.1-0.9-0.4-1.1s-0.6-0.4-1.1-0.4c-0.5,0-0.9,0.1-1.2,0.4c-0.3,0.3-0.5,0.6-0.5,1.1H93.2z"/>
		<path d="M105.5,357.3h-1V351l-2,4.3H102l-2-4.3v6.3h-0.9V350h1.3l1.9,4l1.9-4h1.3V357.3z"/>
		<path d="M112,354.6h-4c0,0.3,0.1,0.6,0.2,0.9c0.1,0.2,0.2,0.5,0.4,0.6c0.2,0.2,0.4,0.3,0.6,0.4c0.2,0.1,0.5,0.1,0.8,0.1    c0.4,0,0.7-0.1,1.1-0.2c0.4-0.1,0.6-0.3,0.8-0.4h0v1c-0.3,0.1-0.6,0.2-0.9,0.3s-0.7,0.1-1,0.1c-0.9,0-1.6-0.2-2.1-0.7    c-0.5-0.5-0.8-1.2-0.8-2.1c0-0.9,0.2-1.6,0.7-2.1c0.5-0.5,1.1-0.8,1.9-0.8c0.7,0,1.3,0.2,1.7,0.6c0.4,0.4,0.6,1,0.6,1.8V354.6z     M111.1,353.9c0-0.5-0.1-0.9-0.4-1.1s-0.6-0.4-1.1-0.4c-0.5,0-0.9,0.1-1.2,0.4c-0.3,0.3-0.5,0.6-0.5,1.1H111.1z"/>
		<path d="M114.3,357.3h-0.9v-7.6h0.9V357.3z"/>
		<path d="M120.8,354.5c0,0.9-0.2,1.6-0.7,2.1c-0.5,0.5-1.1,0.8-1.8,0.8c-0.8,0-1.4-0.3-1.8-0.8c-0.5-0.5-0.7-1.2-0.7-2.1    s0.2-1.6,0.7-2.1c0.5-0.5,1.1-0.8,1.8-0.8c0.8,0,1.4,0.3,1.8,0.8C120.5,352.9,120.8,353.6,120.8,354.5z M119.8,354.5    c0-0.7-0.1-1.2-0.4-1.6c-0.3-0.3-0.7-0.5-1.2-0.5c-0.5,0-0.9,0.2-1.2,0.5c-0.3,0.3-0.4,0.9-0.4,1.6c0,0.7,0.1,1.2,0.4,1.6    c0.3,0.4,0.7,0.5,1.2,0.5c0.5,0,0.9-0.2,1.1-0.5C119.7,355.7,119.8,355.2,119.8,354.5z"/>
	</g>
	<circle style="fill:#5B7EBD;" cx="220.7" cy="221.6" r="2.4"/>
	<g>
		<path d="M232.7,215.5l-2.6,7.3h-1.3l-2.6-7.3h1l2.3,6.4l2.3-6.4H232.7z"/>
		<path d="M234.8,216.4h-1v-1h1V216.4z M234.7,222.8h-0.9v-5.5h0.9V222.8z"/>
		<path d="M237.5,222.8h-0.9v-7.6h0.9V222.8z"/>
		<path d="M240.2,222.8h-0.9v-7.6h0.9V222.8z"/>
		<path d="M246.2,222.8h-0.9v-0.6c-0.1,0.1-0.2,0.1-0.3,0.2c-0.1,0.1-0.3,0.2-0.4,0.2c-0.2,0.1-0.3,0.1-0.5,0.2    c-0.2,0.1-0.4,0.1-0.7,0.1c-0.5,0-0.9-0.2-1.3-0.5c-0.3-0.3-0.5-0.7-0.5-1.2c0-0.4,0.1-0.7,0.3-1c0.2-0.3,0.4-0.5,0.8-0.6    c0.3-0.1,0.7-0.2,1.2-0.3c0.5-0.1,1-0.1,1.5-0.1V219c0-0.2,0-0.4-0.1-0.5s-0.2-0.2-0.3-0.3c-0.1-0.1-0.3-0.1-0.5-0.2    c-0.2,0-0.4,0-0.6,0c-0.2,0-0.5,0-0.8,0.1c-0.3,0.1-0.6,0.2-0.9,0.3h0v-0.9c0.2,0,0.4-0.1,0.8-0.2c0.3-0.1,0.7-0.1,1-0.1    c0.4,0,0.7,0,1,0.1c0.3,0.1,0.5,0.2,0.7,0.3c0.2,0.1,0.4,0.3,0.5,0.6c0.1,0.2,0.2,0.5,0.2,0.9V222.8z M245.3,221.4v-1.5    c-0.3,0-0.6,0-1,0.1c-0.4,0-0.7,0.1-0.9,0.1c-0.3,0.1-0.5,0.2-0.6,0.3c-0.2,0.2-0.2,0.4-0.2,0.7c0,0.3,0.1,0.5,0.3,0.7    c0.2,0.2,0.5,0.2,0.9,0.2c0.3,0,0.6-0.1,0.9-0.2C244.9,221.8,245.1,221.6,245.3,221.4z"/>
		<path d="M248.9,222.8H248v-7.6h0.9V222.8z"/>
		<path d="M255.6,220c0,0.5-0.1,0.9-0.2,1.2c-0.1,0.4-0.3,0.7-0.5,0.9c-0.2,0.3-0.5,0.5-0.8,0.6c-0.3,0.1-0.6,0.2-0.9,0.2    c-0.3,0-0.6,0-0.8-0.1c-0.2-0.1-0.5-0.2-0.7-0.3l-0.1,0.3h-0.9v-7.6h0.9v2.7c0.3-0.2,0.5-0.4,0.8-0.5c0.3-0.1,0.6-0.2,1-0.2    c0.6,0,1.2,0.2,1.5,0.7C255.4,218.4,255.6,219.1,255.6,220z M254.6,220c0-0.7-0.1-1.1-0.3-1.5s-0.6-0.5-1-0.5    c-0.3,0-0.5,0.1-0.8,0.2c-0.3,0.1-0.5,0.3-0.8,0.4v3.1c0.3,0.1,0.5,0.2,0.7,0.2c0.2,0,0.4,0.1,0.6,0.1c0.5,0,0.9-0.2,1.2-0.5    C254.5,221.3,254.6,220.8,254.6,220z"/>
		<path d="M261.2,222.8h-0.9v-0.6c-0.1,0.1-0.2,0.1-0.3,0.2c-0.1,0.1-0.3,0.2-0.4,0.2c-0.2,0.1-0.3,0.1-0.5,0.2    c-0.2,0.1-0.4,0.1-0.7,0.1c-0.5,0-0.9-0.2-1.3-0.5c-0.3-0.3-0.5-0.7-0.5-1.2c0-0.4,0.1-0.7,0.3-1c0.2-0.3,0.4-0.5,0.8-0.6    c0.3-0.1,0.7-0.2,1.2-0.3c0.5-0.1,1-0.1,1.5-0.1V219c0-0.2,0-0.4-0.1-0.5s-0.2-0.2-0.3-0.3c-0.1-0.1-0.3-0.1-0.5-0.2    c-0.2,0-0.4,0-0.6,0c-0.2,0-0.5,0-0.8,0.1c-0.3,0.1-0.6,0.2-0.9,0.3h0v-0.9c0.2,0,0.4-0.1,0.8-0.2c0.3-0.1,0.7-0.1,1-0.1    c0.4,0,0.7,0,1,0.1c0.3,0.1,0.5,0.2,0.7,0.3c0.2,0.1,0.4,0.3,0.5,0.6c0.1,0.2,0.2,0.5,0.2,0.9V222.8z M260.3,221.4v-1.5    c-0.3,0-0.6,0-1,0.1c-0.4,0-0.7,0.1-0.9,0.1c-0.3,0.1-0.5,0.2-0.6,0.3c-0.2,0.2-0.2,0.4-0.2,0.7c0,0.3,0.1,0.5,0.3,0.7    c0.2,0.2,0.5,0.2,0.9,0.2c0.3,0,0.6-0.1,0.9-0.2C259.8,221.8,260.1,221.6,260.3,221.4z"/>
		<path d="M230.9,232.8H230v-0.6c-0.3,0.2-0.5,0.4-0.8,0.5c-0.3,0.1-0.6,0.2-0.9,0.2c-0.7,0-1.2-0.3-1.6-0.8    c-0.4-0.5-0.6-1.2-0.6-2.1c0-0.5,0.1-0.9,0.2-1.2s0.3-0.7,0.5-0.9c0.2-0.2,0.5-0.4,0.8-0.6c0.3-0.1,0.6-0.2,0.9-0.2    c0.3,0,0.5,0,0.8,0.1c0.2,0.1,0.5,0.2,0.7,0.3v-2.4h0.9V232.8z M230,231.4v-3.1c-0.2-0.1-0.5-0.2-0.7-0.2c-0.2,0-0.4-0.1-0.6-0.1    c-0.5,0-0.9,0.2-1.2,0.5c-0.3,0.4-0.4,0.9-0.4,1.5c0,0.6,0.1,1.1,0.3,1.5c0.2,0.3,0.6,0.5,1.1,0.5c0.3,0,0.5-0.1,0.8-0.2    C229.5,231.8,229.7,231.6,230,231.4z"/>
		<path d="M237.2,230.2h-4c0,0.3,0.1,0.6,0.2,0.9c0.1,0.2,0.2,0.5,0.4,0.6c0.2,0.2,0.4,0.3,0.6,0.4c0.2,0.1,0.5,0.1,0.8,0.1    c0.4,0,0.7-0.1,1.1-0.2c0.4-0.1,0.6-0.3,0.8-0.4h0v1c-0.3,0.1-0.6,0.2-0.9,0.3s-0.7,0.1-1,0.1c-0.9,0-1.6-0.2-2.1-0.7    c-0.5-0.5-0.8-1.2-0.8-2.1c0-0.9,0.2-1.6,0.7-2.1c0.5-0.5,1.1-0.8,1.9-0.8c0.7,0,1.3,0.2,1.7,0.6c0.4,0.4,0.6,1,0.6,1.8V230.2z     M236.4,229.5c0-0.5-0.1-0.9-0.4-1.1s-0.6-0.4-1.1-0.4c-0.5,0-0.9,0.1-1.2,0.4c-0.3,0.3-0.5,0.6-0.5,1.1H236.4z"/>
		<path d="M239.6,232.8h-0.9v-7.6h0.9V232.8z"/>
		<path d="M251,232.8h-1.3l-2.4-2.9h-1.4v2.9h-1v-7.3h2c0.4,0,0.8,0,1.1,0.1c0.3,0.1,0.6,0.2,0.8,0.3c0.3,0.2,0.5,0.4,0.6,0.6    c0.1,0.3,0.2,0.6,0.2,1c0,0.5-0.1,1-0.4,1.3c-0.3,0.4-0.6,0.6-1.1,0.8L251,232.8z M248.7,227.6c0-0.2,0-0.4-0.1-0.6    s-0.2-0.3-0.4-0.4c-0.1-0.1-0.3-0.2-0.5-0.2c-0.2,0-0.4-0.1-0.7-0.1h-1.1v2.7h1c0.3,0,0.6,0,0.8-0.1c0.2-0.1,0.4-0.2,0.6-0.3    c0.1-0.1,0.3-0.3,0.3-0.5C248.7,228.1,248.7,227.8,248.7,227.6z"/>
		<path d="M256.2,230.2h-4c0,0.3,0.1,0.6,0.2,0.9c0.1,0.2,0.2,0.5,0.4,0.6c0.2,0.2,0.4,0.3,0.6,0.4c0.2,0.1,0.5,0.1,0.8,0.1    c0.4,0,0.7-0.1,1.1-0.2c0.4-0.1,0.6-0.3,0.8-0.4h0v1c-0.3,0.1-0.6,0.2-0.9,0.3s-0.7,0.1-1,0.1c-0.9,0-1.6-0.2-2.1-0.7    c-0.5-0.5-0.8-1.2-0.8-2.1c0-0.9,0.2-1.6,0.7-2.1c0.5-0.5,1.1-0.8,1.9-0.8c0.7,0,1.3,0.2,1.7,0.6c0.4,0.4,0.6,1,0.6,1.8V230.2z     M255.3,229.5c0-0.5-0.1-0.9-0.4-1.1s-0.6-0.4-1.1-0.4c-0.5,0-0.9,0.1-1.2,0.4c-0.3,0.3-0.5,0.6-0.5,1.1H255.3z"/>
		<path d="M262.3,227.3l-3.2,7.5h-1l1-2.3l-2.2-5.2h1l1.7,4l1.7-4H262.3z"/>
	</g>
	<circle style="fill:#5B7EBD;" cx="348.8" cy="341.8" r="2.4"/>
	<g>
		<path d="M331.4,347l-2.6,7.3h-1.3l-2.6-7.3h1l2.3,6.4l2.3-6.4H331.4z"/>
		<path d="M333.4,347.9h-1v-1h1V347.9z M333.3,354.2h-0.9v-5.5h0.9V354.2z"/>
		<path d="M336.1,354.2h-0.9v-7.6h0.9V354.2z"/>
		<path d="M338.8,354.2h-0.9v-7.6h0.9V354.2z"/>
		<path d="M344.9,354.2H344v-0.6c-0.1,0.1-0.2,0.1-0.3,0.2c-0.1,0.1-0.3,0.2-0.4,0.2c-0.2,0.1-0.3,0.1-0.5,0.2    c-0.2,0.1-0.4,0.1-0.7,0.1c-0.5,0-0.9-0.2-1.3-0.5c-0.3-0.3-0.5-0.7-0.5-1.2c0-0.4,0.1-0.7,0.3-1c0.2-0.3,0.4-0.5,0.8-0.6    c0.3-0.1,0.7-0.2,1.2-0.3c0.5-0.1,1-0.1,1.5-0.1v-0.1c0-0.2,0-0.4-0.1-0.5s-0.2-0.2-0.3-0.3c-0.1-0.1-0.3-0.1-0.5-0.2    c-0.2,0-0.4,0-0.6,0c-0.2,0-0.5,0-0.8,0.1c-0.3,0.1-0.6,0.2-0.9,0.3h0v-0.9c0.2,0,0.4-0.1,0.8-0.2c0.3-0.1,0.7-0.1,1-0.1    c0.4,0,0.7,0,1,0.1c0.3,0.1,0.5,0.2,0.7,0.3c0.2,0.1,0.4,0.3,0.5,0.6c0.1,0.2,0.2,0.5,0.2,0.9V354.2z M344,352.9v-1.5    c-0.3,0-0.6,0-1,0.1c-0.4,0-0.7,0.1-0.9,0.1c-0.3,0.1-0.5,0.2-0.6,0.3c-0.2,0.2-0.2,0.4-0.2,0.7c0,0.3,0.1,0.5,0.3,0.7    c0.2,0.2,0.5,0.2,0.9,0.2c0.3,0,0.6-0.1,0.9-0.2C343.5,353.2,343.7,353.1,344,352.9z"/>
		<path d="M350,349.8L350,349.8c-0.2,0-0.3-0.1-0.4-0.1c-0.1,0-0.3,0-0.5,0c-0.3,0-0.6,0.1-0.8,0.2c-0.3,0.1-0.5,0.3-0.8,0.5v3.9    h-0.9v-5.5h0.9v0.8c0.4-0.3,0.7-0.5,1-0.6s0.6-0.2,0.9-0.2c0.2,0,0.3,0,0.3,0c0.1,0,0.2,0,0.3,0V349.8z"/>
		<path d="M359.1,348.8l-3.2,7.5h-1l1-2.3l-2.2-5.2h1l1.7,4l1.7-4H359.1z"/>
		<path d="M330,357l-2.6,7.3h-1.3l-2.6-7.3h1l2.3,6.4l2.3-6.4H330z"/>
		<path d="M335.1,361.6h-4c0,0.3,0.1,0.6,0.2,0.9c0.1,0.2,0.2,0.5,0.4,0.6c0.2,0.2,0.4,0.3,0.6,0.4c0.2,0.1,0.5,0.1,0.8,0.1    c0.4,0,0.7-0.1,1.1-0.2c0.4-0.1,0.6-0.3,0.8-0.4h0v1c-0.3,0.1-0.6,0.2-0.9,0.3s-0.7,0.1-1,0.1c-0.9,0-1.6-0.2-2.1-0.7    c-0.5-0.5-0.8-1.2-0.8-2.1c0-0.9,0.2-1.6,0.7-2.1c0.5-0.5,1.1-0.8,1.9-0.8c0.7,0,1.3,0.2,1.7,0.6c0.4,0.4,0.6,1,0.6,1.8V361.6z     M334.2,360.9c0-0.5-0.1-0.9-0.4-1.1s-0.6-0.4-1.1-0.4c-0.5,0-0.9,0.1-1.2,0.4c-0.3,0.3-0.5,0.6-0.5,1.1H334.2z"/>
		<path d="M337.4,364.2h-0.9v-7.6h0.9V364.2z"/>
		<path d="M343.5,364.2h-0.9v-0.6c-0.1,0.1-0.2,0.1-0.3,0.2c-0.1,0.1-0.3,0.2-0.4,0.2c-0.2,0.1-0.3,0.1-0.5,0.2    c-0.2,0.1-0.4,0.1-0.7,0.1c-0.5,0-0.9-0.2-1.3-0.5c-0.3-0.3-0.5-0.7-0.5-1.2c0-0.4,0.1-0.7,0.3-1c0.2-0.3,0.4-0.5,0.8-0.6    c0.3-0.1,0.7-0.2,1.2-0.3c0.5-0.1,1-0.1,1.5-0.1v-0.1c0-0.2,0-0.4-0.1-0.5s-0.2-0.2-0.3-0.3c-0.1-0.1-0.3-0.1-0.5-0.2    c-0.2,0-0.4,0-0.6,0c-0.2,0-0.5,0-0.8,0.1c-0.3,0.1-0.6,0.2-0.9,0.3h0v-0.9c0.2,0,0.4-0.1,0.8-0.2c0.3-0.1,0.7-0.1,1-0.1    c0.4,0,0.7,0,1,0.1c0.3,0.1,0.5,0.2,0.7,0.3c0.2,0.1,0.4,0.3,0.5,0.6c0.1,0.2,0.2,0.5,0.2,0.9V364.2z M342.6,362.9v-1.5    c-0.3,0-0.6,0-1,0.1c-0.4,0-0.7,0.1-0.9,0.1c-0.3,0.1-0.5,0.2-0.6,0.3c-0.2,0.2-0.2,0.4-0.2,0.7c0,0.3,0.1,0.5,0.3,0.7    c0.2,0.2,0.5,0.2,0.9,0.2c0.3,0,0.6-0.1,0.9-0.2C342.1,363.2,342.3,363.1,342.6,362.9z"/>
		<path d="M348.8,361.7c0.2,0.2,0.3,0.6,0.3,1c0,0.5-0.2,0.9-0.6,1.2c-0.4,0.3-1,0.5-1.7,0.5c-0.4,0-0.8,0-1.1-0.1s-0.6-0.2-0.8-0.3    v-1h0c0.3,0.2,0.6,0.4,1,0.5c0.4,0.1,0.7,0.2,1,0.2c0.4,0,0.7-0.1,0.9-0.2c0.2-0.1,0.3-0.3,0.3-0.6c0-0.2-0.1-0.4-0.2-0.5    c-0.1-0.1-0.4-0.2-0.7-0.3c-0.1,0-0.3-0.1-0.5-0.1s-0.4-0.1-0.6-0.1c-0.5-0.1-0.8-0.3-1-0.6c-0.2-0.2-0.3-0.5-0.3-0.9    c0-0.2,0-0.4,0.1-0.6c0.1-0.2,0.2-0.4,0.4-0.5c0.2-0.2,0.4-0.3,0.7-0.4c0.3-0.1,0.6-0.1,0.9-0.1c0.3,0,0.7,0,1,0.1    c0.3,0.1,0.6,0.2,0.8,0.3v1h0c-0.2-0.2-0.5-0.3-0.9-0.4c-0.3-0.1-0.7-0.2-1-0.2c-0.3,0-0.6,0.1-0.8,0.2c-0.2,0.1-0.3,0.3-0.3,0.6    c0,0.2,0.1,0.4,0.2,0.5c0.1,0.1,0.4,0.2,0.7,0.3c0.2,0,0.4,0.1,0.6,0.1s0.4,0.1,0.5,0.1C348.2,361.3,348.6,361.5,348.8,361.7    L348.8,361.7z"/>
		<path d="M354.5,363.9c-0.3,0.1-0.6,0.3-0.9,0.3c-0.3,0.1-0.6,0.1-0.9,0.1c-0.4,0-0.8-0.1-1.1-0.2c-0.3-0.1-0.6-0.3-0.8-0.5    c-0.2-0.2-0.4-0.5-0.6-0.9c-0.1-0.4-0.2-0.8-0.2-1.3c0-0.9,0.2-1.6,0.7-2.1c0.5-0.5,1.1-0.8,1.9-0.8c0.3,0,0.6,0,0.9,0.1    c0.3,0.1,0.6,0.2,0.8,0.3v1h0c-0.3-0.2-0.6-0.4-0.9-0.5s-0.6-0.2-0.9-0.2c-0.5,0-0.9,0.2-1.2,0.5c-0.3,0.3-0.5,0.9-0.5,1.5    c0,0.7,0.1,1.2,0.4,1.5c0.3,0.4,0.7,0.5,1.2,0.5c0.2,0,0.4,0,0.6-0.1c0.2,0,0.4-0.1,0.5-0.2c0.1-0.1,0.3-0.1,0.4-0.2    c0.1-0.1,0.2-0.1,0.3-0.2h0V363.9z"/>
		<path d="M360.3,361.5c0,0.9-0.2,1.6-0.7,2.1c-0.5,0.5-1.1,0.8-1.8,0.8c-0.8,0-1.4-0.3-1.8-0.8c-0.5-0.5-0.7-1.2-0.7-2.1    s0.2-1.6,0.7-2.1c0.5-0.5,1.1-0.8,1.8-0.8c0.8,0,1.4,0.3,1.8,0.8C360.1,359.9,360.3,360.6,360.3,361.5z M359.4,361.5    c0-0.7-0.1-1.2-0.4-1.6c-0.3-0.3-0.7-0.5-1.2-0.5c-0.5,0-0.9,0.2-1.2,0.5c-0.3,0.3-0.4,0.9-0.4,1.6c0,0.7,0.1,1.2,0.4,1.6    c0.3,0.4,0.7,0.5,1.2,0.5c0.5,0,0.9-0.2,1.1-0.5C359.2,362.7,359.4,362.2,359.4,361.5z"/>
	</g>
	<g style="display:none;">
		<path style="display:inline;" d="M158.2,290.1h-1l-0.7-2h-3.1l-0.7,2h-1l2.6-7.3h1.3L158.2,290.1z M156.2,287.2l-1.3-3.6l-1.3,3.6    H156.2z"/>
		<path style="display:inline;" d="M160.2,290.1h-0.9v-7.6h0.9V290.1z"/>
		<path style="display:inline;" d="M166,289.7c-0.3,0.1-0.6,0.3-0.9,0.3c-0.3,0.1-0.6,0.1-0.9,0.1c-0.4,0-0.8-0.1-1.1-0.2    c-0.3-0.1-0.6-0.3-0.8-0.5c-0.2-0.2-0.4-0.5-0.6-0.9c-0.1-0.4-0.2-0.8-0.2-1.3c0-0.9,0.2-1.6,0.7-2.1c0.5-0.5,1.1-0.8,1.9-0.8    c0.3,0,0.6,0,0.9,0.1c0.3,0.1,0.6,0.2,0.8,0.3v1h0c-0.3-0.2-0.6-0.4-0.9-0.5s-0.6-0.2-0.9-0.2c-0.5,0-0.9,0.2-1.2,0.5    c-0.3,0.3-0.5,0.9-0.5,1.5c0,0.7,0.1,1.2,0.4,1.5c0.3,0.4,0.7,0.5,1.2,0.5c0.2,0,0.4,0,0.6-0.1c0.2,0,0.4-0.1,0.5-0.2    c0.1-0.1,0.3-0.1,0.4-0.2c0.1-0.1,0.2-0.1,0.3-0.2h0V289.7z"/>
		<path style="display:inline;" d="M171.4,290.1h-0.9v-0.6c-0.1,0.1-0.2,0.1-0.3,0.2c-0.1,0.1-0.3,0.2-0.4,0.2    c-0.2,0.1-0.3,0.1-0.5,0.2c-0.2,0.1-0.4,0.1-0.7,0.1c-0.5,0-0.9-0.2-1.3-0.5c-0.3-0.3-0.5-0.7-0.5-1.2c0-0.4,0.1-0.7,0.3-1    c0.2-0.3,0.4-0.5,0.8-0.6c0.3-0.1,0.7-0.2,1.2-0.3c0.5-0.1,1-0.1,1.5-0.1v-0.1c0-0.2,0-0.4-0.1-0.5s-0.2-0.2-0.3-0.3    c-0.1-0.1-0.3-0.1-0.5-0.2c-0.2,0-0.4,0-0.6,0c-0.2,0-0.5,0-0.8,0.1c-0.3,0.1-0.6,0.2-0.9,0.3h0v-0.9c0.2,0,0.4-0.1,0.8-0.2    c0.3-0.1,0.7-0.1,1-0.1c0.4,0,0.7,0,1,0.1c0.3,0.1,0.5,0.2,0.7,0.3c0.2,0.1,0.4,0.3,0.5,0.6c0.1,0.2,0.2,0.5,0.2,0.9V290.1z     M170.5,288.7v-1.5c-0.3,0-0.6,0-1,0.1c-0.4,0-0.7,0.1-0.9,0.1c-0.3,0.1-0.5,0.2-0.6,0.3c-0.2,0.2-0.2,0.4-0.2,0.7    c0,0.3,0.1,0.5,0.3,0.7c0.2,0.2,0.5,0.2,0.9,0.2c0.3,0,0.6-0.1,0.9-0.2C170,289,170.3,288.9,170.5,288.7z"/>
		<path style="display:inline;" d="M176.6,285.6L176.6,285.6c-0.2,0-0.3-0.1-0.4-0.1c-0.1,0-0.3,0-0.5,0c-0.3,0-0.6,0.1-0.8,0.2    c-0.3,0.1-0.5,0.3-0.8,0.5v3.9h-0.9v-5.5h0.9v0.8c0.4-0.3,0.7-0.5,1-0.6s0.6-0.2,0.9-0.2c0.2,0,0.3,0,0.3,0c0.1,0,0.2,0,0.3,0    V285.6z"/>
		<path style="display:inline;" d="M180.9,285.6L180.9,285.6c-0.2,0-0.3-0.1-0.4-0.1c-0.1,0-0.3,0-0.5,0c-0.3,0-0.6,0.1-0.8,0.2    c-0.3,0.1-0.5,0.3-0.8,0.5v3.9h-0.9v-5.5h0.9v0.8c0.4-0.3,0.7-0.5,1-0.6s0.6-0.2,0.9-0.2c0.2,0,0.3,0,0.3,0c0.1,0,0.2,0,0.3,0    V285.6z"/>
		<path style="display:inline;" d="M182.7,283.7h-1v-1h1V283.7z M182.7,290.1h-0.9v-5.5h0.9V290.1z"/>
		<path style="display:inline;" d="M188.7,290.1h-0.9v-0.6c-0.1,0.1-0.2,0.1-0.3,0.2c-0.1,0.1-0.3,0.2-0.4,0.2    c-0.2,0.1-0.3,0.1-0.5,0.2c-0.2,0.1-0.4,0.1-0.7,0.1c-0.5,0-0.9-0.2-1.3-0.5c-0.3-0.3-0.5-0.7-0.5-1.2c0-0.4,0.1-0.7,0.3-1    c0.2-0.3,0.4-0.5,0.8-0.6c0.3-0.1,0.7-0.2,1.2-0.3c0.5-0.1,1-0.1,1.5-0.1v-0.1c0-0.2,0-0.4-0.1-0.5s-0.2-0.2-0.3-0.3    c-0.1-0.1-0.3-0.1-0.5-0.2c-0.2,0-0.4,0-0.6,0c-0.2,0-0.5,0-0.8,0.1c-0.3,0.1-0.6,0.2-0.9,0.3h0v-0.9c0.2,0,0.4-0.1,0.8-0.2    c0.3-0.1,0.7-0.1,1-0.1c0.4,0,0.7,0,1,0.1c0.3,0.1,0.5,0.2,0.7,0.3c0.2,0.1,0.4,0.3,0.5,0.6c0.1,0.2,0.2,0.5,0.2,0.9V290.1z     M187.8,288.7v-1.5c-0.3,0-0.6,0-1,0.1c-0.4,0-0.7,0.1-0.9,0.1c-0.3,0.1-0.5,0.2-0.6,0.3c-0.2,0.2-0.2,0.4-0.2,0.7    c0,0.3,0.1,0.5,0.3,0.7c0.2,0.2,0.5,0.2,0.9,0.2c0.3,0,0.6-0.1,0.9-0.2C187.3,289,187.6,288.9,187.8,288.7z"/>
		<path style="display:inline;" d="M193.4,287.3h-3v-0.9h3V287.3z"/>
		<path style="display:inline;" d="M159,297.8c0,0.4-0.1,0.7-0.2,1c-0.1,0.3-0.3,0.5-0.6,0.7c-0.3,0.2-0.6,0.4-0.9,0.5    c-0.3,0.1-0.7,0.1-1.2,0.1h-2.6v-7.3h2.2c0.5,0,0.9,0,1.2,0.1s0.5,0.1,0.8,0.2c0.3,0.1,0.5,0.3,0.6,0.5c0.1,0.2,0.2,0.5,0.2,0.8    c0,0.3-0.1,0.6-0.3,0.9c-0.2,0.2-0.4,0.4-0.7,0.6v0c0.5,0.1,0.9,0.3,1.2,0.6C158.9,296.9,159,297.3,159,297.8z M157.4,294.5    c0-0.2,0-0.3-0.1-0.4c-0.1-0.1-0.2-0.2-0.3-0.3c-0.2-0.1-0.3-0.1-0.6-0.2c-0.2,0-0.5,0-0.8,0h-1.2v2.1h1.3c0.3,0,0.5,0,0.7,0    c0.2,0,0.3-0.1,0.5-0.2c0.2-0.1,0.3-0.2,0.3-0.4C157.4,294.9,157.4,294.8,157.4,294.5z M158,297.9c0-0.3,0-0.5-0.1-0.7    c-0.1-0.2-0.2-0.3-0.5-0.4c-0.2-0.1-0.3-0.1-0.6-0.2c-0.2,0-0.5,0-0.8,0h-1.5v2.7h1.3c0.4,0,0.8,0,1-0.1c0.3,0,0.5-0.1,0.7-0.2    c0.2-0.1,0.3-0.3,0.4-0.4C158,298.3,158,298.1,158,297.9z"/>
		<path style="display:inline;" d="M164.9,300.1h-0.9v-0.6c-0.3,0.2-0.6,0.4-0.9,0.6c-0.3,0.1-0.6,0.2-0.9,0.2c-0.6,0-1-0.2-1.3-0.5    c-0.3-0.3-0.5-0.9-0.5-1.5v-3.5h0.9v3.1c0,0.3,0,0.5,0,0.7c0,0.2,0.1,0.4,0.2,0.5c0.1,0.1,0.2,0.2,0.3,0.3    c0.1,0.1,0.3,0.1,0.6,0.1c0.2,0,0.5-0.1,0.8-0.2c0.3-0.1,0.5-0.3,0.8-0.5v-4.1h0.9V300.1z"/>
		<path style="display:inline;" d="M171.2,297.4h-4c0,0.3,0.1,0.6,0.2,0.9c0.1,0.2,0.2,0.5,0.4,0.6c0.2,0.2,0.4,0.3,0.6,0.4    c0.2,0.1,0.5,0.1,0.8,0.1c0.4,0,0.7-0.1,1.1-0.2c0.4-0.1,0.6-0.3,0.8-0.4h0v1c-0.3,0.1-0.6,0.2-0.9,0.3s-0.7,0.1-1,0.1    c-0.9,0-1.6-0.2-2.1-0.7c-0.5-0.5-0.8-1.2-0.8-2.1c0-0.9,0.2-1.6,0.7-2.1c0.5-0.5,1.1-0.8,1.9-0.8c0.7,0,1.3,0.2,1.7,0.6    c0.4,0.4,0.6,1,0.6,1.8V297.4z M170.3,296.7c0-0.5-0.1-0.9-0.4-1.1s-0.6-0.4-1.1-0.4c-0.5,0-0.9,0.1-1.2,0.4    c-0.3,0.3-0.5,0.6-0.5,1.1H170.3z"/>
		<path style="display:inline;" d="M177.2,300.1h-0.9V297c0-0.3,0-0.5,0-0.7s-0.1-0.4-0.2-0.5c-0.1-0.1-0.2-0.2-0.4-0.3    c-0.2-0.1-0.4-0.1-0.6-0.1c-0.3,0-0.5,0.1-0.8,0.2c-0.3,0.1-0.5,0.3-0.8,0.5v4.1h-0.9v-5.5h0.9v0.6c0.3-0.2,0.6-0.4,0.9-0.6    c0.3-0.1,0.6-0.2,0.9-0.2c0.6,0,1,0.2,1.3,0.5c0.3,0.4,0.5,0.9,0.5,1.5V300.1z"/>
		<path style="display:inline;" d="M183.4,300.1h-0.9v-0.6c-0.3,0.2-0.5,0.4-0.8,0.5c-0.3,0.1-0.6,0.2-0.9,0.2    c-0.7,0-1.2-0.3-1.6-0.8c-0.4-0.5-0.6-1.2-0.6-2.1c0-0.5,0.1-0.9,0.2-1.2s0.3-0.7,0.5-0.9c0.2-0.2,0.5-0.4,0.8-0.6    c0.3-0.1,0.6-0.2,0.9-0.2c0.3,0,0.5,0,0.8,0.1c0.2,0.1,0.5,0.2,0.7,0.3v-2.4h0.9V300.1z M182.5,298.7v-3.1    c-0.2-0.1-0.5-0.2-0.7-0.2c-0.2,0-0.4-0.1-0.6-0.1c-0.5,0-0.9,0.2-1.2,0.5c-0.3,0.4-0.4,0.9-0.4,1.5c0,0.6,0.1,1.1,0.3,1.5    c0.2,0.3,0.6,0.5,1.1,0.5c0.3,0,0.5-0.1,0.8-0.2C182,299,182.2,298.9,182.5,298.7z"/>
		<path style="display:inline;" d="M187.1,291.9l-1.3,1.8h-0.7l0.9-1.8H187.1z M186.1,300.1h-0.9v-5.5h0.9V300.1z"/>
		<path style="display:inline;" d="M192.2,300.1h-0.9v-0.6c-0.1,0.1-0.2,0.1-0.3,0.2c-0.1,0.1-0.3,0.2-0.4,0.2    c-0.2,0.1-0.3,0.1-0.5,0.2c-0.2,0.1-0.4,0.1-0.7,0.1c-0.5,0-0.9-0.2-1.3-0.5c-0.3-0.3-0.5-0.7-0.5-1.2c0-0.4,0.1-0.7,0.3-1    c0.2-0.3,0.4-0.5,0.8-0.6c0.3-0.1,0.7-0.2,1.2-0.3c0.5-0.1,1-0.1,1.5-0.1v-0.1c0-0.2,0-0.4-0.1-0.5s-0.2-0.2-0.3-0.3    c-0.1-0.1-0.3-0.1-0.5-0.2c-0.2,0-0.4,0-0.6,0c-0.2,0-0.5,0-0.8,0.1c-0.3,0.1-0.6,0.2-0.9,0.3h0v-0.9c0.2,0,0.4-0.1,0.8-0.2    c0.3-0.1,0.7-0.1,1-0.1c0.4,0,0.7,0,1,0.1c0.3,0.1,0.5,0.2,0.7,0.3c0.2,0.1,0.4,0.3,0.5,0.6c0.1,0.2,0.2,0.5,0.2,0.9V300.1z     M191.3,298.7v-1.5c-0.3,0-0.6,0-1,0.1c-0.4,0-0.7,0.1-0.9,0.1c-0.3,0.1-0.5,0.2-0.6,0.3c-0.2,0.2-0.2,0.4-0.2,0.7    c0,0.3,0.1,0.5,0.3,0.7c0.2,0.2,0.5,0.2,0.9,0.2c0.3,0,0.6-0.1,0.9-0.2C190.8,299,191,298.9,191.3,298.7z"/>
	</g>
	<g style="display:none;">
		<path style="display:inline;" d="M312.7,162.1h-1l-0.7-2h-3.1l-0.7,2h-1l2.6-7.3h1.3L312.7,162.1z M310.7,159.2l-1.3-3.6l-1.3,3.6    H310.7z"/>
		<path style="display:inline;" d="M314.7,162.1h-0.9v-7.6h0.9V162.1z"/>
		<path style="display:inline;" d="M320.5,161.7c-0.3,0.1-0.6,0.3-0.9,0.3c-0.3,0.1-0.6,0.1-0.9,0.1c-0.4,0-0.8-0.1-1.1-0.2    c-0.3-0.1-0.6-0.3-0.8-0.5c-0.2-0.2-0.4-0.5-0.6-0.9c-0.1-0.4-0.2-0.8-0.2-1.3c0-0.9,0.2-1.6,0.7-2.1c0.5-0.5,1.1-0.8,1.9-0.8    c0.3,0,0.6,0,0.9,0.1c0.3,0.1,0.6,0.2,0.8,0.3v1h0c-0.3-0.2-0.6-0.4-0.9-0.5s-0.6-0.2-0.9-0.2c-0.5,0-0.9,0.2-1.2,0.5    c-0.3,0.3-0.5,0.9-0.5,1.5c0,0.7,0.1,1.2,0.4,1.5c0.3,0.4,0.7,0.5,1.2,0.5c0.2,0,0.4,0,0.6-0.1c0.2,0,0.4-0.1,0.5-0.2    c0.1-0.1,0.3-0.1,0.4-0.2c0.1-0.1,0.2-0.1,0.3-0.2h0V161.7z"/>
		<path style="display:inline;" d="M325.9,162.1H325v-0.6c-0.1,0.1-0.2,0.1-0.3,0.2c-0.1,0.1-0.3,0.2-0.4,0.2    c-0.2,0.1-0.3,0.1-0.5,0.2c-0.2,0.1-0.4,0.1-0.7,0.1c-0.5,0-0.9-0.2-1.3-0.5c-0.3-0.3-0.5-0.7-0.5-1.2c0-0.4,0.1-0.7,0.3-1    c0.2-0.3,0.4-0.5,0.8-0.6c0.3-0.1,0.7-0.2,1.2-0.3c0.5-0.1,1-0.1,1.5-0.1v-0.1c0-0.2,0-0.4-0.1-0.5s-0.2-0.2-0.3-0.3    c-0.1-0.1-0.3-0.1-0.5-0.2c-0.2,0-0.4,0-0.6,0c-0.2,0-0.5,0-0.8,0.1c-0.3,0.1-0.6,0.2-0.9,0.3h0v-0.9c0.2,0,0.4-0.1,0.8-0.2    c0.3-0.1,0.7-0.1,1-0.1c0.4,0,0.7,0,1,0.1c0.3,0.1,0.5,0.2,0.7,0.3c0.2,0.1,0.4,0.3,0.5,0.6c0.1,0.2,0.2,0.5,0.2,0.9V162.1z     M325,160.7v-1.5c-0.3,0-0.6,0-1,0.1c-0.4,0-0.7,0.1-0.9,0.1c-0.3,0.1-0.5,0.2-0.6,0.3c-0.2,0.2-0.2,0.4-0.2,0.7    c0,0.3,0.1,0.5,0.3,0.7c0.2,0.2,0.5,0.2,0.9,0.2c0.3,0,0.6-0.1,0.9-0.2C324.6,161,324.8,160.9,325,160.7z"/>
		<path style="display:inline;" d="M331.1,157.6L331.1,157.6c-0.2,0-0.3-0.1-0.4-0.1c-0.1,0-0.3,0-0.5,0c-0.3,0-0.6,0.1-0.8,0.2    c-0.3,0.1-0.5,0.3-0.8,0.5v3.9h-0.9v-5.5h0.9v0.8c0.4-0.3,0.7-0.5,1-0.6s0.6-0.2,0.9-0.2c0.2,0,0.3,0,0.3,0c0.1,0,0.2,0,0.3,0    V157.6z"/>
		<path style="display:inline;" d="M335.4,157.6L335.4,157.6c-0.2,0-0.3-0.1-0.4-0.1c-0.1,0-0.3,0-0.5,0c-0.3,0-0.6,0.1-0.8,0.2    c-0.3,0.1-0.5,0.3-0.8,0.5v3.9H332v-5.5h0.9v0.8c0.4-0.3,0.7-0.5,1-0.6s0.6-0.2,0.9-0.2c0.2,0,0.3,0,0.3,0c0.1,0,0.2,0,0.3,0    V157.6z"/>
		<path style="display:inline;" d="M337.2,155.7h-1v-1h1V155.7z M337.2,162.1h-0.9v-5.5h0.9V162.1z"/>
		<path style="display:inline;" d="M343.2,162.1h-0.9v-0.6c-0.1,0.1-0.2,0.1-0.3,0.2c-0.1,0.1-0.3,0.2-0.4,0.2    c-0.2,0.1-0.3,0.1-0.5,0.2c-0.2,0.1-0.4,0.1-0.7,0.1c-0.5,0-0.9-0.2-1.3-0.5c-0.3-0.3-0.5-0.7-0.5-1.2c0-0.4,0.1-0.7,0.3-1    c0.2-0.3,0.4-0.5,0.8-0.6c0.3-0.1,0.7-0.2,1.2-0.3c0.5-0.1,1-0.1,1.5-0.1v-0.1c0-0.2,0-0.4-0.1-0.5s-0.2-0.2-0.3-0.3    c-0.1-0.1-0.3-0.1-0.5-0.2c-0.2,0-0.4,0-0.6,0c-0.2,0-0.5,0-0.8,0.1c-0.3,0.1-0.6,0.2-0.9,0.3h0v-0.9c0.2,0,0.4-0.1,0.8-0.2    c0.3-0.1,0.7-0.1,1-0.1c0.4,0,0.7,0,1,0.1c0.3,0.1,0.5,0.2,0.7,0.3c0.2,0.1,0.4,0.3,0.5,0.6c0.1,0.2,0.2,0.5,0.2,0.9V162.1z     M342.3,160.7v-1.5c-0.3,0-0.6,0-1,0.1c-0.4,0-0.7,0.1-0.9,0.1c-0.3,0.1-0.5,0.2-0.6,0.3c-0.2,0.2-0.2,0.4-0.2,0.7    c0,0.3,0.1,0.5,0.3,0.7c0.2,0.2,0.5,0.2,0.9,0.2c0.3,0,0.6-0.1,0.9-0.2C341.8,161,342.1,160.9,342.3,160.7z"/>
		<path style="display:inline;" d="M347.9,159.3h-3v-0.9h3V159.3z"/>
		<path style="display:inline;" d="M355.2,161.5c-0.2,0.1-0.3,0.2-0.5,0.2c-0.1,0.1-0.3,0.1-0.6,0.2c-0.2,0.1-0.4,0.1-0.6,0.2    c-0.2,0-0.5,0.1-0.8,0.1c-0.5,0-1-0.1-1.4-0.2c-0.4-0.1-0.8-0.4-1.1-0.7c-0.3-0.3-0.6-0.7-0.7-1.2c-0.2-0.5-0.3-1-0.3-1.7    c0-0.6,0.1-1.1,0.3-1.6c0.2-0.5,0.4-0.9,0.7-1.2c0.3-0.3,0.7-0.6,1.1-0.7c0.4-0.2,0.9-0.2,1.5-0.2c0.4,0,0.8,0,1.2,0.1    c0.4,0.1,0.8,0.3,1.3,0.5v1.1h-0.1c-0.4-0.3-0.8-0.6-1.2-0.7c-0.4-0.2-0.8-0.2-1.3-0.2c-0.4,0-0.7,0.1-1,0.2    c-0.3,0.1-0.6,0.3-0.8,0.6c-0.2,0.2-0.4,0.6-0.5,0.9c-0.1,0.4-0.2,0.8-0.2,1.3c0,0.5,0.1,1,0.2,1.3c0.1,0.4,0.3,0.7,0.5,0.9    c0.2,0.2,0.5,0.4,0.8,0.5c0.3,0.1,0.6,0.2,1,0.2c0.5,0,0.9-0.1,1.3-0.2c0.4-0.2,0.8-0.4,1.1-0.7h0.1V161.5z"/>
		<path style="display:inline;" d="M360.8,162.1h-0.9v-0.6c-0.1,0.1-0.2,0.1-0.3,0.2c-0.1,0.1-0.3,0.2-0.4,0.2    c-0.2,0.1-0.3,0.1-0.5,0.2c-0.2,0.1-0.4,0.1-0.7,0.1c-0.5,0-0.9-0.2-1.3-0.5c-0.3-0.3-0.5-0.7-0.5-1.2c0-0.4,0.1-0.7,0.3-1    c0.2-0.3,0.4-0.5,0.8-0.6c0.3-0.1,0.7-0.2,1.2-0.3c0.5-0.1,1-0.1,1.5-0.1v-0.1c0-0.2,0-0.4-0.1-0.5s-0.2-0.2-0.3-0.3    c-0.1-0.1-0.3-0.1-0.5-0.2c-0.2,0-0.4,0-0.6,0c-0.2,0-0.5,0-0.8,0.1c-0.3,0.1-0.6,0.2-0.9,0.3h0v-0.9c0.2,0,0.4-0.1,0.8-0.2    c0.3-0.1,0.7-0.1,1-0.1c0.4,0,0.7,0,1,0.1c0.3,0.1,0.5,0.2,0.7,0.3c0.2,0.1,0.4,0.3,0.5,0.6c0.1,0.2,0.2,0.5,0.2,0.9V162.1z     M359.9,160.7v-1.5c-0.3,0-0.6,0-1,0.1c-0.4,0-0.7,0.1-0.9,0.1c-0.3,0.1-0.5,0.2-0.6,0.3c-0.2,0.2-0.2,0.4-0.2,0.7    c0,0.3,0.1,0.5,0.3,0.7c0.2,0.2,0.5,0.2,0.9,0.2c0.3,0,0.6-0.1,0.9-0.2C359.4,161,359.6,160.9,359.9,160.7z"/>
		<path style="display:inline;" d="M367.1,162.1h-0.9V159c0-0.3,0-0.5,0-0.7s-0.1-0.4-0.2-0.5c-0.1-0.1-0.2-0.2-0.4-0.3    c-0.2-0.1-0.4-0.1-0.6-0.1c-0.3,0-0.5,0.1-0.8,0.2c-0.3,0.1-0.5,0.3-0.8,0.5v4.1h-0.9v-5.5h0.9v0.6c0.3-0.2,0.6-0.4,0.9-0.6    c0.3-0.1,0.6-0.2,0.9-0.2c0.6,0,1,0.2,1.3,0.5c0.3,0.4,0.5,0.9,0.5,1.5V162.1z M366.9,154.2c0,0.5-0.2,0.9-0.4,1.1    c-0.2,0.3-0.5,0.4-0.9,0.4c-0.2,0-0.3,0-0.5-0.1c-0.1-0.1-0.3-0.2-0.4-0.3c-0.2-0.1-0.3-0.2-0.4-0.3c-0.1-0.1-0.2-0.1-0.3-0.1    c-0.2,0-0.3,0.1-0.4,0.2c-0.1,0.1-0.1,0.3-0.1,0.6h-0.6c0-0.5,0.2-0.9,0.4-1.1c0.2-0.3,0.5-0.4,0.8-0.4c0.2,0,0.3,0,0.5,0.1    s0.3,0.2,0.4,0.3c0.2,0.1,0.3,0.2,0.4,0.3c0.1,0.1,0.2,0.1,0.3,0.1c0.2,0,0.3-0.1,0.4-0.2c0.1-0.1,0.1-0.3,0.2-0.6H366.9z"/>
		<path style="display:inline;" d="M373.1,162.1h-0.9v-0.6c-0.1,0.1-0.2,0.1-0.3,0.2c-0.1,0.1-0.3,0.2-0.4,0.2    c-0.2,0.1-0.3,0.1-0.5,0.2c-0.2,0.1-0.4,0.1-0.7,0.1c-0.5,0-0.9-0.2-1.3-0.5c-0.3-0.3-0.5-0.7-0.5-1.2c0-0.4,0.1-0.7,0.3-1    c0.2-0.3,0.4-0.5,0.8-0.6c0.3-0.1,0.7-0.2,1.2-0.3c0.5-0.1,1-0.1,1.5-0.1v-0.1c0-0.2,0-0.4-0.1-0.5s-0.2-0.2-0.3-0.3    c-0.1-0.1-0.3-0.1-0.5-0.2c-0.2,0-0.4,0-0.6,0c-0.2,0-0.5,0-0.8,0.1c-0.3,0.1-0.6,0.2-0.9,0.3h0v-0.9c0.2,0,0.4-0.1,0.8-0.2    c0.3-0.1,0.7-0.1,1-0.1c0.4,0,0.7,0,1,0.1c0.3,0.1,0.5,0.2,0.7,0.3c0.2,0.1,0.4,0.3,0.5,0.6c0.1,0.2,0.2,0.5,0.2,0.9V162.1z     M372.2,160.7v-1.5c-0.3,0-0.6,0-1,0.1c-0.4,0-0.7,0.1-0.9,0.1c-0.3,0.1-0.5,0.2-0.6,0.3c-0.2,0.2-0.2,0.4-0.2,0.7    c0,0.3,0.1,0.5,0.3,0.7c0.2,0.2,0.5,0.2,0.9,0.2c0.3,0,0.6-0.1,0.9-0.2C371.7,161,372,160.9,372.2,160.7z"/>
		<path style="display:inline;" d="M379.5,156.6l-2.2,5.5h-0.9l-2.2-5.5h1l1.7,4.3l1.7-4.3H379.5z"/>
		<path style="display:inline;" d="M385.2,159.4h-4c0,0.3,0.1,0.6,0.2,0.9c0.1,0.2,0.2,0.5,0.4,0.6c0.2,0.2,0.4,0.3,0.6,0.4    c0.2,0.1,0.5,0.1,0.8,0.1c0.4,0,0.7-0.1,1.1-0.2c0.4-0.1,0.6-0.3,0.8-0.4h0v1c-0.3,0.1-0.6,0.2-0.9,0.3s-0.7,0.1-1,0.1    c-0.9,0-1.6-0.2-2.1-0.7c-0.5-0.5-0.8-1.2-0.8-2.1c0-0.9,0.2-1.6,0.7-2.1c0.5-0.5,1.1-0.8,1.9-0.8c0.7,0,1.3,0.2,1.7,0.6    c0.4,0.4,0.6,1,0.6,1.8V159.4z M384.3,158.7c0-0.5-0.1-0.9-0.4-1.1s-0.6-0.4-1.1-0.4c-0.5,0-0.9,0.1-1.2,0.4    c-0.3,0.3-0.5,0.6-0.5,1.1H384.3z"/>
		<path style="display:inline;" d="M390,157.6L390,157.6c-0.2,0-0.3-0.1-0.4-0.1c-0.1,0-0.3,0-0.5,0c-0.3,0-0.6,0.1-0.8,0.2    c-0.3,0.1-0.5,0.3-0.8,0.5v3.9h-0.9v-5.5h0.9v0.8c0.4-0.3,0.7-0.5,1-0.6s0.6-0.2,0.9-0.2c0.2,0,0.3,0,0.3,0c0.1,0,0.2,0,0.3,0    V157.6z"/>
		<path style="display:inline;" d="M394.9,162.1H394v-0.6c-0.1,0.1-0.2,0.1-0.3,0.2c-0.1,0.1-0.3,0.2-0.4,0.2    c-0.2,0.1-0.3,0.1-0.5,0.2c-0.2,0.1-0.4,0.1-0.7,0.1c-0.5,0-0.9-0.2-1.3-0.5c-0.3-0.3-0.5-0.7-0.5-1.2c0-0.4,0.1-0.7,0.3-1    c0.2-0.3,0.4-0.5,0.8-0.6c0.3-0.1,0.7-0.2,1.2-0.3c0.5-0.1,1-0.1,1.5-0.1v-0.1c0-0.2,0-0.4-0.1-0.5s-0.2-0.2-0.3-0.3    c-0.1-0.1-0.3-0.1-0.5-0.2c-0.2,0-0.4,0-0.6,0c-0.2,0-0.5,0-0.8,0.1c-0.3,0.1-0.6,0.2-0.9,0.3h0v-0.9c0.2,0,0.4-0.1,0.8-0.2    c0.3-0.1,0.7-0.1,1-0.1c0.4,0,0.7,0,1,0.1c0.3,0.1,0.5,0.2,0.7,0.3c0.2,0.1,0.4,0.3,0.5,0.6c0.1,0.2,0.2,0.5,0.2,0.9V162.1z     M394,160.7v-1.5c-0.3,0-0.6,0-1,0.1c-0.4,0-0.7,0.1-0.9,0.1c-0.3,0.1-0.5,0.2-0.6,0.3c-0.2,0.2-0.2,0.4-0.2,0.7    c0,0.3,0.1,0.5,0.3,0.7c0.2,0.2,0.5,0.2,0.9,0.2c0.3,0,0.6-0.1,0.9-0.2C393.5,161,393.7,160.9,394,160.7z"/>
		<path style="display:inline;" d="M400.2,159.5c0.2,0.2,0.3,0.6,0.3,1c0,0.5-0.2,0.9-0.6,1.2c-0.4,0.3-1,0.5-1.7,0.5    c-0.4,0-0.8,0-1.1-0.1s-0.6-0.2-0.8-0.3v-1h0c0.3,0.2,0.6,0.4,1,0.5c0.4,0.1,0.7,0.2,1,0.2c0.4,0,0.7-0.1,0.9-0.2    c0.2-0.1,0.3-0.3,0.3-0.6c0-0.2-0.1-0.4-0.2-0.5c-0.1-0.1-0.4-0.2-0.7-0.3c-0.1,0-0.3-0.1-0.5-0.1s-0.4-0.1-0.6-0.1    c-0.5-0.1-0.8-0.3-1-0.6c-0.2-0.2-0.3-0.5-0.3-0.9c0-0.2,0-0.4,0.1-0.6c0.1-0.2,0.2-0.4,0.4-0.5c0.2-0.2,0.4-0.3,0.7-0.4    c0.3-0.1,0.6-0.1,0.9-0.1c0.3,0,0.7,0,1,0.1c0.3,0.1,0.6,0.2,0.8,0.3v1h0c-0.2-0.2-0.5-0.3-0.9-0.4c-0.3-0.1-0.7-0.2-1-0.2    c-0.3,0-0.6,0.1-0.8,0.2c-0.2,0.1-0.3,0.3-0.3,0.6c0,0.2,0.1,0.4,0.2,0.5c0.1,0.1,0.4,0.2,0.7,0.3c0.2,0,0.4,0.1,0.6,0.1    s0.4,0.1,0.5,0.1C399.6,159.1,400,159.3,400.2,159.5L400.2,159.5z"/>
	</g>
	<g style="display:none;">
		<path style="display:inline;" d="M248.4,326.8h-1l-0.7-2h-3.1l-0.7,2h-1l2.6-7.3h1.3L248.4,326.8z M246.3,324l-1.3-3.6l-1.3,3.6    H246.3z"/>
		<path style="display:inline;" d="M250.3,326.8h-0.9v-7.6h0.9V326.8z"/>
		<path style="display:inline;" d="M256.2,326.5c-0.3,0.1-0.6,0.3-0.9,0.3c-0.3,0.1-0.6,0.1-0.9,0.1c-0.4,0-0.8-0.1-1.1-0.2    c-0.3-0.1-0.6-0.3-0.8-0.5c-0.2-0.2-0.4-0.5-0.6-0.9c-0.1-0.4-0.2-0.8-0.2-1.3c0-0.9,0.2-1.6,0.7-2.1c0.5-0.5,1.1-0.8,1.9-0.8    c0.3,0,0.6,0,0.9,0.1c0.3,0.1,0.6,0.2,0.8,0.3v1h0c-0.3-0.2-0.6-0.4-0.9-0.5s-0.6-0.2-0.9-0.2c-0.5,0-0.9,0.2-1.2,0.5    c-0.3,0.3-0.5,0.9-0.5,1.5c0,0.7,0.1,1.2,0.4,1.5c0.3,0.4,0.7,0.5,1.2,0.5c0.2,0,0.4,0,0.6-0.1c0.2,0,0.4-0.1,0.5-0.2    c0.1-0.1,0.3-0.1,0.4-0.2c0.1-0.1,0.2-0.1,0.3-0.2h0V326.5z"/>
		<path style="display:inline;" d="M261.6,326.8h-0.9v-0.6c-0.1,0.1-0.2,0.1-0.3,0.2c-0.1,0.1-0.3,0.2-0.4,0.2    c-0.2,0.1-0.3,0.1-0.5,0.2c-0.2,0.1-0.4,0.1-0.7,0.1c-0.5,0-0.9-0.2-1.3-0.5c-0.3-0.3-0.5-0.7-0.5-1.2c0-0.4,0.1-0.7,0.3-1    c0.2-0.3,0.4-0.5,0.8-0.6c0.3-0.1,0.7-0.2,1.2-0.3c0.5-0.1,1-0.1,1.5-0.1v-0.1c0-0.2,0-0.4-0.1-0.5s-0.2-0.2-0.3-0.3    c-0.1-0.1-0.3-0.1-0.5-0.2c-0.2,0-0.4,0-0.6,0c-0.2,0-0.5,0-0.8,0.1c-0.3,0.1-0.6,0.2-0.9,0.3h0v-0.9c0.2,0,0.4-0.1,0.8-0.2    c0.3-0.1,0.7-0.1,1-0.1c0.4,0,0.7,0,1,0.1c0.3,0.1,0.5,0.2,0.7,0.3c0.2,0.1,0.4,0.3,0.5,0.6c0.1,0.2,0.2,0.5,0.2,0.9V326.8z     M260.7,325.5V324c-0.3,0-0.6,0-1,0.1c-0.4,0-0.7,0.1-0.9,0.1c-0.3,0.1-0.5,0.2-0.6,0.3c-0.2,0.2-0.2,0.4-0.2,0.7    c0,0.3,0.1,0.5,0.3,0.7c0.2,0.2,0.5,0.2,0.9,0.2c0.3,0,0.6-0.1,0.9-0.2C260.2,325.8,260.4,325.7,260.7,325.5z"/>
		<path style="display:inline;" d="M266.8,322.4L266.8,322.4c-0.2,0-0.3-0.1-0.4-0.1c-0.1,0-0.3,0-0.5,0c-0.3,0-0.6,0.1-0.8,0.2    c-0.3,0.1-0.5,0.3-0.8,0.5v3.9h-0.9v-5.5h0.9v0.8c0.4-0.3,0.7-0.5,1-0.6s0.6-0.2,0.9-0.2c0.2,0,0.3,0,0.3,0c0.1,0,0.2,0,0.3,0    V322.4z"/>
		<path style="display:inline;" d="M271,322.4L271,322.4c-0.2,0-0.3-0.1-0.4-0.1c-0.1,0-0.3,0-0.5,0c-0.3,0-0.6,0.1-0.8,0.2    c-0.3,0.1-0.5,0.3-0.8,0.5v3.9h-0.9v-5.5h0.9v0.8c0.4-0.3,0.7-0.5,1-0.6s0.6-0.2,0.9-0.2c0.2,0,0.3,0,0.3,0c0.1,0,0.2,0,0.3,0    V322.4z"/>
		<path style="display:inline;" d="M272.9,320.5h-1v-1h1V320.5z M272.8,326.8h-0.9v-5.5h0.9V326.8z"/>
		<path style="display:inline;" d="M278.9,326.8H278v-0.6c-0.1,0.1-0.2,0.1-0.3,0.2c-0.1,0.1-0.3,0.2-0.4,0.2    c-0.2,0.1-0.3,0.1-0.5,0.2c-0.2,0.1-0.4,0.1-0.7,0.1c-0.5,0-0.9-0.2-1.3-0.5c-0.3-0.3-0.5-0.7-0.5-1.2c0-0.4,0.1-0.7,0.3-1    c0.2-0.3,0.4-0.5,0.8-0.6c0.3-0.1,0.7-0.2,1.2-0.3c0.5-0.1,1-0.1,1.5-0.1v-0.1c0-0.2,0-0.4-0.1-0.5s-0.2-0.2-0.3-0.3    c-0.1-0.1-0.3-0.1-0.5-0.2c-0.2,0-0.4,0-0.6,0c-0.2,0-0.5,0-0.8,0.1c-0.3,0.1-0.6,0.2-0.9,0.3h0v-0.9c0.2,0,0.4-0.1,0.8-0.2    c0.3-0.1,0.7-0.1,1-0.1c0.4,0,0.7,0,1,0.1c0.3,0.1,0.5,0.2,0.7,0.3c0.2,0.1,0.4,0.3,0.5,0.6c0.1,0.2,0.2,0.5,0.2,0.9V326.8z     M278,325.5V324c-0.3,0-0.6,0-1,0.1c-0.4,0-0.7,0.1-0.9,0.1c-0.3,0.1-0.5,0.2-0.6,0.3c-0.2,0.2-0.2,0.4-0.2,0.7    c0,0.3,0.1,0.5,0.3,0.7c0.2,0.2,0.5,0.2,0.9,0.2c0.3,0,0.6-0.1,0.9-0.2C277.5,325.8,277.7,325.7,278,325.5z"/>
		<path style="display:inline;" d="M283.5,324.1h-3v-0.9h3V324.1z"/>
		<path style="display:inline;" d="M290.8,326.8h-1v-3.6h-3.6v3.6h-1v-7.3h1v2.9h3.6v-2.9h1V326.8z"/>
		<path style="display:inline;" d="M297.2,326.8h-0.9v-0.6c-0.3,0.2-0.6,0.4-0.9,0.6c-0.3,0.1-0.6,0.2-0.9,0.2c-0.6,0-1-0.2-1.3-0.5    c-0.3-0.3-0.5-0.9-0.5-1.5v-3.5h0.9v3.1c0,0.3,0,0.5,0,0.7c0,0.2,0.1,0.4,0.2,0.5c0.1,0.1,0.2,0.2,0.3,0.3    c0.1,0.1,0.3,0.1,0.6,0.1c0.2,0,0.5-0.1,0.8-0.2c0.3-0.1,0.5-0.3,0.8-0.5v-4.1h0.9V326.8z"/>
		<path style="display:inline;" d="M303.6,324.2h-4c0,0.3,0.1,0.6,0.2,0.9c0.1,0.2,0.2,0.5,0.4,0.6c0.2,0.2,0.4,0.3,0.6,0.4    c0.2,0.1,0.5,0.1,0.8,0.1c0.4,0,0.7-0.1,1.1-0.2c0.4-0.1,0.6-0.3,0.8-0.4h0v1c-0.3,0.1-0.6,0.2-0.9,0.3s-0.7,0.1-1,0.1    c-0.9,0-1.6-0.2-2.1-0.7c-0.5-0.5-0.8-1.2-0.8-2.1c0-0.9,0.2-1.6,0.7-2.1c0.5-0.5,1.1-0.8,1.9-0.8c0.7,0,1.3,0.2,1.7,0.6    c0.4,0.4,0.6,1,0.6,1.8V324.2z M302.7,323.5c0-0.5-0.1-0.9-0.4-1.1s-0.6-0.4-1.1-0.4c-0.5,0-0.9,0.1-1.2,0.4    c-0.3,0.3-0.5,0.6-0.5,1.1H302.7z"/>
		<path style="display:inline;" d="M307.8,326.8c-0.2,0-0.4,0.1-0.6,0.1c-0.2,0-0.4,0-0.5,0c-0.6,0-1-0.1-1.3-0.4    c-0.3-0.3-0.4-0.8-0.4-1.4v-2.9h-0.6v-0.8h0.6v-1.6h0.9v1.6h1.9v0.8h-1.9v2.5c0,0.3,0,0.5,0,0.7c0,0.2,0.1,0.3,0.1,0.5    c0.1,0.1,0.2,0.2,0.3,0.3c0.1,0.1,0.3,0.1,0.6,0.1c0.1,0,0.3,0,0.5-0.1c0.2,0,0.3-0.1,0.4-0.1h0V326.8z"/>
		<path style="display:inline;" d="M313.5,324.2h-4c0,0.3,0.1,0.6,0.2,0.9c0.1,0.2,0.2,0.5,0.4,0.6c0.2,0.2,0.4,0.3,0.6,0.4    c0.2,0.1,0.5,0.1,0.8,0.1c0.4,0,0.7-0.1,1.1-0.2c0.4-0.1,0.6-0.3,0.8-0.4h0v1c-0.3,0.1-0.6,0.2-0.9,0.3s-0.7,0.1-1,0.1    c-0.9,0-1.6-0.2-2.1-0.7c-0.5-0.5-0.8-1.2-0.8-2.1c0-0.9,0.2-1.6,0.7-2.1c0.5-0.5,1.1-0.8,1.9-0.8c0.7,0,1.3,0.2,1.7,0.6    c0.4,0.4,0.6,1,0.6,1.8V324.2z M312.6,323.5c0-0.5-0.1-0.9-0.4-1.1s-0.6-0.4-1.1-0.4c-0.5,0-0.9,0.1-1.2,0.4    c-0.3,0.3-0.5,0.6-0.5,1.1H312.6z"/>
	</g>
	<g>
		<rect x="351.4" y="140.8" style="fill-rule:evenodd;clip-rule:evenodd;fill:none;" width="52.4" height="11"/>
		<path d="M357.1,146.3c0,0.3-0.1,0.6-0.2,0.9c-0.1,0.3-0.3,0.5-0.5,0.7c-0.3,0.3-0.5,0.4-0.9,0.6s-0.8,0.2-1.3,0.2h-1v2.7h-1v-7.3    h2c0.4,0,0.8,0,1.1,0.1s0.6,0.2,0.8,0.3c0.3,0.2,0.5,0.4,0.6,0.7C357,145.5,357.1,145.8,357.1,146.3z M356.1,146.3    c0-0.3,0-0.5-0.1-0.7s-0.2-0.3-0.4-0.5c-0.2-0.1-0.3-0.2-0.5-0.2c-0.2,0-0.5-0.1-0.8-0.1h-1v2.9h0.8c0.4,0,0.7,0,1-0.1    s0.4-0.2,0.6-0.3c0.2-0.2,0.3-0.3,0.3-0.5C356.1,146.7,356.1,146.5,356.1,146.3z"/>
		<path d="M361.7,146.9L361.7,146.9c-0.2,0-0.3-0.1-0.4-0.1c-0.1,0-0.3,0-0.5,0c-0.3,0-0.6,0.1-0.8,0.2s-0.5,0.3-0.8,0.5v3.9h-0.9    v-5.5h0.9v0.8c0.4-0.3,0.7-0.5,1-0.6c0.3-0.1,0.6-0.2,0.9-0.2c0.2,0,0.3,0,0.3,0s0.2,0,0.3,0V146.9z"/>
		<path d="M363.5,145h-1v-1h1V145z M363.5,151.3h-0.9v-5.5h0.9V151.3z"/>
		<path d="M369.9,148.7h-4c0,0.3,0.1,0.6,0.2,0.9s0.2,0.5,0.4,0.6c0.2,0.2,0.4,0.3,0.6,0.4c0.2,0.1,0.5,0.1,0.8,0.1    c0.4,0,0.7-0.1,1.1-0.2c0.4-0.1,0.6-0.3,0.8-0.4h0v1c-0.3,0.1-0.6,0.2-0.9,0.3s-0.7,0.1-1,0.1c-0.9,0-1.6-0.2-2.1-0.7    s-0.8-1.2-0.8-2.1c0-0.9,0.2-1.6,0.7-2.1c0.5-0.5,1.1-0.8,1.9-0.8c0.7,0,1.3,0.2,1.7,0.6c0.4,0.4,0.6,1,0.6,1.8V148.7z M369,148    c0-0.5-0.1-0.9-0.4-1.1c-0.2-0.3-0.6-0.4-1.1-0.4c-0.5,0-0.9,0.1-1.2,0.4c-0.3,0.3-0.5,0.6-0.5,1.1H369z"/>
		<path d="M375.7,150.7c0,0.9-0.2,1.6-0.6,2s-1.1,0.6-1.9,0.6c-0.3,0-0.6,0-0.8-0.1c-0.3,0-0.5-0.1-0.8-0.2v-0.9h0    c0.1,0.1,0.4,0.1,0.7,0.2s0.7,0.1,1,0.1c0.3,0,0.6,0,0.8-0.1s0.4-0.2,0.5-0.3c0.1-0.1,0.2-0.3,0.2-0.5s0.1-0.4,0.1-0.6v-0.5    c-0.3,0.2-0.5,0.4-0.8,0.5c-0.3,0.1-0.6,0.2-1,0.2c-0.7,0-1.2-0.2-1.5-0.7c-0.4-0.5-0.6-1.1-0.6-2c0-0.5,0.1-0.9,0.2-1.2    c0.1-0.3,0.3-0.6,0.5-0.9c0.2-0.2,0.5-0.4,0.8-0.5s0.6-0.2,0.9-0.2c0.3,0,0.6,0,0.8,0.1c0.2,0.1,0.4,0.2,0.7,0.3l0.1-0.2h0.9    V150.7z M374.8,149.8v-3c-0.2-0.1-0.5-0.2-0.7-0.2c-0.2,0-0.4-0.1-0.6-0.1c-0.5,0-0.9,0.2-1.2,0.5s-0.4,0.8-0.4,1.5    c0,0.6,0.1,1.1,0.3,1.4s0.6,0.5,1.1,0.5c0.3,0,0.5-0.1,0.8-0.2C374.3,150.2,374.5,150,374.8,149.8z"/>
		<path d="M382.1,148.6c0,0.9-0.2,1.6-0.7,2.1s-1.1,0.8-1.8,0.8c-0.8,0-1.4-0.3-1.8-0.8c-0.5-0.5-0.7-1.2-0.7-2.1s0.2-1.6,0.7-2.1    c0.5-0.5,1.1-0.8,1.8-0.8c0.8,0,1.4,0.3,1.8,0.8S382.1,147.7,382.1,148.6z M381.2,148.6c0-0.7-0.1-1.2-0.4-1.6s-0.7-0.5-1.2-0.5    c-0.5,0-0.9,0.2-1.2,0.5c-0.3,0.3-0.4,0.9-0.4,1.6c0,0.7,0.1,1.2,0.4,1.6s0.7,0.5,1.2,0.5c0.5,0,0.9-0.2,1.2-0.5    C381.1,149.8,381.2,149.3,381.2,148.6z"/>
	</g>
	<circle style="fill:#5B7EBD;" cx="268.6" cy="289.9" r="2.4"/>
	<g>
	</g>
	<g>
	</g>
	<g>
	</g>
	<g>
	</g>
	<g>
	</g>
	<g>
	</g>
	<g>
	</g>
	<g>
	</g>
	<g>
	</g>
	<g>
	</g>
	<g>
	</g>
	<g>
	</g>
</g>
</svg>