<svg xmlns="http://www.w3.org/2000/svg" xmlns:xlink="http://www.w3.org/1999/xlink" version="1.1" x="0px" y="0px" width="450px" height="450px" viewBox="0 0 450 450" style="enable-background:new 0 0 450 450;" xml:space="preserve"> <g id="Guías"> </g> <g id="color_comarques"> 	<path style="fill:#BFBFBF;stroke:#696969;stroke-width:2;stroke-miterlimit:10;" d="M-81.4-125.4c2.6,0,5.2,0.1,7.8,0.1   c-2.3-2.2-5.1-3.3-7.8-4.3C-81.4-128.2-81.4-126.8-81.4-125.4C-78.7-125.4-81.4-125.4-81.4-125.4z"/> 	<path style="fill:#BFBFBF;stroke:#696969;stroke-width:2;stroke-miterlimit:10;" d="M-82.4,197.8c0-6.4,0-12.8,0-19.2   C-86.2,183.5-87.2,192.3-82.4,197.8L-82.4,197.8z"/> 	<a> 		<path style="fill:#BFBFBF;stroke:#696969;stroke-width:2;stroke-miterlimit:10;" d="M90.9,16.3C81.8,3.7,69.9-2.1,69.1-17.7    c-0.6-10.7-7.1-24.7,0.8-31.1c-5.3-2-26.3-12.4-31.2-7.5C33.4-51,22.5-33.4,16.6-34.1C9.9-34.8,3.2-50-5.2-50.6    c-4.2-0.3-15.9-10.1-15.1-15.4c1.5-9.1-11.3-5.5-15.9-9.3c-11-9-12.6-0.1-17.9-13.8c-8.8-22.9,0.5-35.1-27.3-35.5    c0,62.7,0,125.3,0,188c0,37,0,74,0,111c0,17.2-2.8,30.3,15.9,37.9c11.7,4.7,20.6,10.5,32,17.3c12.1,7.3,10.4-12.2,16.1-9.3    c11.9,6.1,17,23.5,26.9,30.1c4.7,3.1,11.2,1.3,15.6,4.1c4.6,2.9,6.5,8.5,9.4,12.7c7.4,11.1,14.6,3.2,13.1-10.6    c-3.4-30.7,2.6-29.2,3.4-47.3c0.5-10-5.8-29,13.3-18.6c8.5,4.6,24.3,17.8,24.1,26.5c10.2-3.2,2-13.3,1.1-19.6    c-0.8-5.8-0.4-13.2-1.7-19.6c-3.3-15.9-2.3-38.7-6.9-52.7c0,0,45.3-5.3,45.8-4.4C126.7,121.1,119.9,56.4,90.9,16.3z"/> 	</a> </g> <g id="color_exterior"> 	<a> 		<path style="fill:#BFBFBF;stroke:#696969;stroke-width:2;stroke-miterlimit:10;" d="M422.5-41.8c-0.8-11.4,3.6-18.1-2.3-29.6    C402.6-62,369.2-56.7,370-85c0.1-3,8.6-6.2,6.2-9.2c-2.7-3.4-5-3.2-7.5-7.5c-2.5-4.4-4.9-11.9-9.6-14.2    c-11.9-5.6,10.3-10.8-12.7-10.9c-139.6-0.2-278.9,4.4-418.5,2.4c17.5-1.5,12.9,22,18.1,35.4c5.3,13.7,6.9,4.8,17.9,13.8    c4.7,3.8,17.5,0.2,15.9,9.3c-0.9,5.3,10.8,15.1,15.1,15.4c8.4,0.6,15,15.7,21.7,16.5c5.9,0.7,16.8-16.9,22.1-22.2    c4.9-4.9,25.9,5.5,31.2,7.5c-9.7,7.9,2.6,28.4,1.5,41.7c-0.3,3.3,43.1,31.7,53.3,121.7c1.9,16.7,22.6,18.1,41,27    c-12.8-13.8-9.6-25.5-11-38.9c14.9,7.8,15.8,21.8,25.5,28c7.9,5,31.8,7.1,37.7,2.7c5,8.4,13.5,1.9,16.4,3.3c0,0,8.1-24.3,11.1-27    c12-10.8,11-6,22.2-18c3.9-4.2,2.4,11.5,17,6.5c5.3-1.8,11.8-5.5,16.8-8.8c0,0,9.7-13.3,12.2-16c3-3.3,29.8-0.5,55.3,11.2    c0,0-0.2,2.6,6-9c15-27.8-21-53.7,6.2-53.1c17.3,0.4,21.3,6.2,34.3-20.4C424.7-16.9,440.6-22.1,422.5-41.8L422.5-41.8z"/> 	</a> 	<a> 		<path style="fill:#BFBFBF;stroke:#696969;stroke-width:2;stroke-miterlimit:10;" d="M198.8,506.3c44.2,0,88.4,0.5,132.6,2.6    c-1.1-1-2.3-1.9-3.4-2.9c10.7-6.4,4.3-21,9-29.9c4.7-8.9,8.6-11.6,11.6-21.4c1.2-4,5.3-14.6,9.9-18.3c-4.3-0.4-12.5-26-20.5-32.4    c-7.3-5.9,8.6-7,10.8-6.6c-7.8-6-15.7-6.6-21.1-16.4c-3,8-13.3,6.2-7-3.5c-2.7,1.3-5.2,0.5-8.7,3.7c-4.2-7.3,5.9-5.2,5.7-10    c-0.3-7.3-10.7-2.6-6.5-13.8c-12.7,3-27.4-0.7-38.4,5c-10.2,5.3-19-6.5-31-8.1c-13.4-1.8-23.3-1.4-30.6,9.1    c-5.2,7.5,0.8,13-10.1,17.8c-7.7-14.3-19.4-24.9-26.6-39.4c-4.5-9.1-5.4-20.1-6.9-20.9c-4.7-2.4-19.6-10-25.3-12    c-7.3-2.6-10.3-8.5-17.6-6.2c-7.8,2.4-20.6-0.9-26.6-6.1c-21.8-19.2-26.4-24.5-47.4-26.7c-9.3-1-10.5,6.3-17.3-4.3    c-6.5-10.2-7.2-12.9-19.2-14.6c-11.8-1.7-19.3-32-33.1-31.4c-5.8,0.3-1,12.8-11.1,13.3c-3.2,0.2-15.7-11.1-19-13.7    c-6.5-5.1-12.1-4.2-19.3-8.2c-5.5-3-7.9-8.3-13.1-12.1c0,101.6,0,203.3,0,304.9C-81.4,508.6,170,506.3,198.8,506.3    C236.8,506.3,198.8,506.3,198.8,506.3z"/> 	</a> 	<a> 		<path style="fill:#BFBFBF;stroke:#696969;stroke-width:2;stroke-miterlimit:10;" d="M301,326.7c-4.3,8.7-6.6,17.1,2.4,22    c0.4,0.2,5.1,3.2,5.9,4.8c1.5,3.1,1.9,3.8,1.3,7.4c-0.9,5.7,6,6.4,6,6.5c-0.2,6.2-8.4,7.4-4.7,13.8c3.6-3.2,6.1-2.4,8.7-3.7    c-6.3,9.7,4,11.5,7,3.5c5.3,9.8,13.3,10.3,21.1,16.4c-4.8-0.9-11.8-1.3-13.2,4.3c-0.6,2.4,13.9,33.9,22.9,34.8    c-2.7,2.2-10,15.9-10,17.2c0.5,11.2-6.9,13.7-11.6,22.5c-4.7,8.9,1.8,23.5-9,29.9c11.3,12.9,156.4,4.5,156.3,0.6    c-0.5-22.4-1-44.8-1.5-67.3c-1.6-73.6-3.2-147.2-4.8-220.8c-0.1-3.5-0.7-42.5-1.9-42.2c-5.2,1-15.3-31.1-26.1-31.2    c-14.8-0.2-15.1,9.3-16.5,15c-2.5,10.8,5.7,26.5-8.2,30c-10.4,2.6-24.5-12.5-24,0.7c0.3,8.4-3.2,20,1.2,30.5c0,0-6.2,0.3-9.3-0.7    c1.4,4.9,0.5,11.2-5,8.7c-14.3-6.5-18.6,2-22.2,8.2c-1,1.8-1.8,9-2.2,11.7c-2.5,20.5-6.3,50.3-35.3,44.7    c7.6,19.8-13.1,13.9-25,12.8C290.8,314.7,304.6,317.6,301,326.7L301,326.7z"/> 	</a> 	<a> 		<path style="fill:#BFBFBF;stroke:#696969;stroke-width:2;stroke-miterlimit:10;" d="M356.5-126.7c-2.1,8.8,7.9,17.5,12.2,25    c0.1,0.2,6.8,7.4,6.7,6.5c1,4.9-5.2,5.5-5.4,10.2c-0.8,28.4,32.6,23,50.2,13.6c2.1,4.1,6.7,50.3,11.8,48.1    c-17.7,7.8-15.5,42.9-36.9,46.4c-7.2,1.2-18.3-4.1-23.1,2.1c-5.5,7.1,10.3,22.1,5,45.2c-2.8,12-20.3,23.4-11,31.5    c10,8.7,15.2,7.7,25,18.8c10.9,12.4-14.3,21.2-9.5,29.4c2.3,3.8,7.5,2.9,10.5,5.8c4.9,4.7-1.6,8.7-0.3,12.6    c2.7,8,5.2,13.3,10.2,16.5c5.1,3.2,12.7,4.3,20.2,5.2c24.5,3.1-2.4-38.2,23.3-44.7c5.5-1.4,9.4-1.1,14.4,4.6    c4.1,4.7,14.2,19.4,15.2,26.4c0.7-0.1,1.3-0.3,2-0.4c-1.3-59-2.6-118-3.9-176.9c-0.7-33-1.4-66.1-2.2-99.1    c-0.1-6.5-0.3-13.1-0.4-19.6C470.6-124.9,366.5-126.6,356.5-126.7C356.5-126.7,394.7-126.4,356.5-126.7z"/> 	</a> </g> <g id="bajo_aragon"> 	<a> 		<path style="fill-rule:evenodd;clip-rule:evenodd;fill:#FFFBF0;stroke:#9A9A9A;stroke-width:2;stroke-miterlimit:10;" d="    M316.9,70.4c18.9,3.1,36.2,3.5,52.5,14.2c-12.3,19.7,3.9,21.7,15.7,29.9c17.3,12,4.9,18.5,0.1,26.3c-10.5,17.4,14.4,8.5,7.9,24.6    c-2.7,6.6-8.8,3.9-12.7,9.4c-2.6,3.7-4,9.6-3.8,12.3c-2.5-2-5.1-5.5-13.2-7.8c-11.6-3.3-30.1-4-40,6.8c-1.5,1.7-1.8,3.5-3.1,5.7    c-3.9,6.8,3.6,13.9,1.5,16.6c-6.9,9.1-18.9-0.4-26.6-3c-15.9-5.5-25.4,7.4-25.2,7.4c-5.3-0.5-27.6-3.4-38.5-21.6    c-0.6-1-5.4-13-6.1-17.5c1.1-16.2,10.9,2.1,16.9-7.8c4.4-7.2-6.1-26.4-8-28.9c-1.5-1.9,7.9-22.6,9.6-25.1    c6.3-9,16.6-9.7,21.8-19.3c3.9-7.1,8.7,8.9,14.6,7.1c2.9-0.9,16.9-7.2,20.7-9.9C303.4,81.9,316.9,70.4,316.9,70.4z"/> 	</a> 	<a> 		<path style="fill-rule:evenodd;clip-rule:evenodd;fill:#FFFBF0;stroke:#9A9A9A;stroke-width:2;stroke-miterlimit:10;" d="    M80.9,125.6c5.1,0.3,46.4-3.3,45.8-4.4c5.3,10.1,28.1,15.2,38.9,20.5c-12.8-13.8-9.6-25.5-11-38.9c14.9,7.8,15.8,21.8,25.5,28    c7.9,5,31.8,7.1,37.7,2.7c4.2,7,8.4,1.8,14.8,3.1c4.6,0.9,12.1,20.5,11,25.5c-3.5,15.5-13.8,0.6-16.5,5.6    c-3.6,6.5,4.3,14.7,4.6,22.6c-15.8-3.6,1.8,18.9-4.7,34.8c-3.2,7.9,4.2,49.3,8.3,53.1c-20.1-14.4-30,14.1-38.1,23.7    c-4.8,5.8-17.9,20.9-21.3,6.1c-6.6,1.4-4.5,6.2-7,11.5c-3,6.5-34.4-18.9-44.4-16.7c-20.7,4.6-29.7-10.2-35.3-15.3    c-10.9-9.8-30.1-21.6-45.2-16c-1-0.3,3.6-12.8,3.1-19.5c-0.8-11.2,5.6-7.3,15.6-9.3c16.8-3.3,27.2-17.3,42.8-26.3    c-3.6-4.1-6-19.7-14.3-18.8c-4.1,0.4-3.3-13.4-3.8-17.4C86.3,170.9,81.8,152.2,80.9,125.6L80.9,125.6z"/> 	</a> 	<a> 		<path style="fill-rule:evenodd;clip-rule:evenodd;fill:#FFFBF0;stroke:#9A9A9A;stroke-width:2;stroke-miterlimit:10;" d="    M391.8,168.4c4.5,11.4,13,14.6,9.9,26.4c-2.1,8.2-1.3,16.2,1.7,27.2c0,0.1-7-0.4-10.1-1.4c4.5,15.8-8.5,7.6-15.6,7.3    c-3.6-0.1-11.2,12.5-11.2,5.5c0-2-5.8-23.1-10.4-23.2c-7.5-0.1,1.1,9-2.9,16.3c-5.6,10.3-28.4-15.1-31.5-21    c-14.3-27.7,35.5-38.5,54.5-19.3C377,179.8,377.5,172.2,391.8,168.4L391.8,168.4z"/> 	</a> 	<a> 		<path style="fill-rule:evenodd;clip-rule:evenodd;fill:#FFFBF0;stroke:#9A9A9A;stroke-width:2;stroke-miterlimit:10;" d="    M270,212.6c-2.2,5.3-9.4,16.6-5.9,22.8c3.3,5.9,24.1,14,27.7,14.7c2.7,0.5-4.1,22.8,24.4,29.1c2.5,0.6,13.5,12.1,14.3,17.2    c3.1,18.6-17.1,11.7-27.3,10.8c0,0-56.8-35.3-68.3-30.1c-5.4-1.6-9.1-37.6-9.2-46.8c0-2.4,5.2-14,2.7-20.2    c-5-12.4-5.9-30.9,7.5-15.1C244.7,205.4,256,210.4,270,212.6L270,212.6z"/> 	</a> 	<a> 		<path style="fill-rule:evenodd;clip-rule:evenodd;fill:#FFFBF0;stroke:#9A9A9A;stroke-width:2;stroke-miterlimit:10;" d="    M270,212.6c3.6-10.2,19.5-9,21.9-8.6c11.3,2,19.5,13.1,30.8,3.2c3.7,3,19,20.8,23.2,21c5.6,0.2,9.9-2.7,7.9-9    c-3.3-10.6,2.2-14.3,8.5-1.8c8.6,16.8,1.7,44.9-5.5,62c-3.1,7.3-13.7,19.9-27.6,14.4c-3.8-2.9-10-11.4-11.4-12.9    c-3.8-6.1-18.9,5-26.4-28.9c-0.7-3.2-24-10.6-27.4-16.5C260.5,229.3,267.8,218,270,212.6L270,212.6z"/> 	</a> 	<a> 		<path style="fill-rule:evenodd;clip-rule:evenodd;fill:#FFFBF0;stroke:#9A9A9A;stroke-width:2;stroke-miterlimit:10;" d="    M304.1,306.6c-1.1,0.4-8.9,5.8-3.7,11.8c4.5,5.3-1.9,14.4-1.6,21.7c0.7,13.6,12.7,3.1,12.3,17.3c-12.7,3-27.4-0.7-38.4,5    c-10.2,5.3-19-6.5-31-8.1c-13.4-1.8-23.3-1.4-30.6,9.1c-5.2,7.5,0.8,13-10.1,17.8c-7.2-13.4-18.7-22.7-24.9-36.4    c-9.7-21.2-12.3-34.3,0-36.9c3.6,15.5,18.4-2.6,23.8-9.1c13.3-15.9,12.2-32.9,35-21.8C242.4,267.9,304.1,306.6,304.1,306.6z"/> 	</a> 	<a> 		<path style="fill-rule:evenodd;clip-rule:evenodd;fill:#FFFBF0;stroke:#9A9A9A;stroke-width:2;stroke-miterlimit:10;" d="    M89.5,197.9c10.9-1.1,11.3,13.3,16.2,18.6c-8.2,4.7-19.4,13-25.4,20.2c-4.8,5.7-26.1,6.8-33.5,8.6c-3.2-11,0.9-21.3,3.4-32    c1.8-7.5-3.9-18.9,1.7-23.6c10.4-8.8,36.7,19.9,36.6,27.9C101.5,213.3,86.1,205.8,89.5,197.9L89.5,197.9z"/> 	</a> </g> <g id="BL"> 	<rect x="39.9" y="216" style="opacity:0.7;fill:#FFFBF0;" width="37.4" height="9.6"/> </g> <g id="text_comarques"> 	<g> 		<rect x="12.3" y="49.7" style="fill-rule:evenodd;clip-rule:evenodd;fill:none;" width="78.5" height="44"/> 		<path style="fill:#1A171B;" d="M27.3,58.2H25l-2-2.7h-0.9v2.7h-1.9V51h3.1c0.4,0,0.8,0,1.1,0.1s0.6,0.2,0.9,0.3    c0.3,0.2,0.5,0.4,0.7,0.6c0.2,0.3,0.2,0.6,0.2,1c0,0.5-0.1,1-0.4,1.3c-0.2,0.3-0.6,0.6-1.1,0.8L27.3,58.2z M24.4,53.2    c0-0.2,0-0.3-0.1-0.5s-0.2-0.2-0.4-0.3c-0.1-0.1-0.3-0.1-0.4-0.1s-0.4,0-0.6,0h-0.7v2h0.6c0.3,0,0.5,0,0.8,0s0.4-0.1,0.5-0.2    c0.1-0.1,0.2-0.2,0.3-0.3C24.4,53.6,24.4,53.4,24.4,53.2z"/> 		<path style="fill:#1A171B;" d="M29.9,52H28v-1.3h1.9V52z M29.8,58.2h-1.8v-5.5h1.8V58.2z"/> 		<path style="fill:#1A171B;" d="M37.2,55.4c0,0.9-0.2,1.6-0.7,2.1c-0.5,0.5-1.1,0.8-1.8,0.8c-0.3,0-0.6,0-0.8-0.1    c-0.2-0.1-0.5-0.2-0.7-0.3l-0.1,0.3h-1.7v-7.6h1.8v2.7c0.3-0.2,0.5-0.4,0.8-0.5s0.6-0.2,1-0.2c0.7,0,1.2,0.3,1.6,0.7    S37.2,54.5,37.2,55.4z M35.4,55.5c0-0.5-0.1-0.9-0.2-1.1c-0.2-0.3-0.5-0.4-0.9-0.4c-0.2,0-0.3,0-0.5,0.1c-0.2,0.1-0.3,0.1-0.5,0.2    V57c0.1,0,0.2,0.1,0.4,0.1c0.1,0,0.3,0,0.4,0c0.5,0,0.8-0.1,1-0.4S35.4,56,35.4,55.5z"/> 		<path style="fill:#1A171B;" d="M43.9,55.8h-4c0,0.4,0.2,0.8,0.5,1c0.3,0.2,0.7,0.3,1.3,0.3c0.4,0,0.7-0.1,1.1-0.2s0.6-0.3,0.8-0.4    h0.2v1.4c-0.4,0.2-0.8,0.3-1.1,0.3s-0.7,0.1-1.2,0.1c-1.1,0-1.9-0.2-2.5-0.7s-0.9-1.2-0.9-2.1c0-0.9,0.3-1.6,0.8-2.2    c0.6-0.5,1.3-0.8,2.3-0.8c0.9,0,1.6,0.2,2,0.7s0.7,1.1,0.7,1.9V55.8z M42.1,54.8c0-0.4-0.1-0.6-0.3-0.8s-0.4-0.3-0.8-0.3    c-0.3,0-0.6,0.1-0.8,0.3s-0.3,0.5-0.4,0.8H42.1z"/> 		<path style="fill:#1A171B;" d="M49.1,54.4h-0.2c-0.1,0-0.2,0-0.4-0.1s-0.3,0-0.4,0c-0.3,0-0.5,0-0.7,0c-0.2,0-0.4,0.1-0.6,0.2v3.7    h-1.8v-5.5h1.8v0.8c0.4-0.3,0.7-0.6,1-0.7c0.3-0.1,0.5-0.2,0.8-0.2c0.1,0,0.1,0,0.2,0c0.1,0,0.1,0,0.2,0V54.4z"/> 		<path style="fill:#1A171B;" d="M53.4,57.7c-0.1,0.1-0.2,0.2-0.4,0.3s-0.3,0.2-0.4,0.2c-0.2,0.1-0.4,0.1-0.5,0.2s-0.4,0.1-0.6,0.1    c-0.5,0-1-0.2-1.3-0.5s-0.5-0.7-0.5-1.2c0-0.4,0.1-0.7,0.3-1s0.4-0.5,0.8-0.6c0.3-0.1,0.7-0.3,1.2-0.3s1-0.1,1.5-0.1v0    c0-0.3-0.1-0.5-0.4-0.6s-0.6-0.2-1.1-0.2c-0.3,0-0.6,0.1-0.9,0.2s-0.6,0.2-0.7,0.2h-0.2v-1.3c0.2,0,0.5-0.1,0.9-0.2    c0.4-0.1,0.8-0.1,1.3-0.1c1,0,1.7,0.2,2.2,0.5c0.4,0.3,0.7,0.8,0.7,1.4v3.7h-1.7V57.7z M53.4,56.8v-1.1c-0.2,0-0.5,0-0.8,0.1    c-0.3,0-0.5,0.1-0.6,0.1c-0.2,0.1-0.3,0.1-0.4,0.2c-0.1,0.1-0.1,0.2-0.1,0.4c0,0.1,0,0.2,0,0.3c0,0.1,0.1,0.1,0.1,0.2    c0.1,0.1,0.2,0.1,0.3,0.1s0.3,0,0.5,0c0.2,0,0.4,0,0.5-0.1C53.1,57,53.3,56.9,53.4,56.8z"/> 		<path style="fill:#1A171B;" d="M65.9,55.4c0,0.9-0.2,1.6-0.7,2.1c-0.5,0.5-1.1,0.8-1.8,0.8c-0.3,0-0.6,0-0.8-0.1    c-0.2-0.1-0.5-0.2-0.7-0.3l-0.1,0.3h-1.7v-7.6h1.8v2.7c0.3-0.2,0.5-0.4,0.8-0.5s0.6-0.2,1-0.2c0.7,0,1.2,0.3,1.6,0.7    S65.9,54.5,65.9,55.4z M64.1,55.5c0-0.5-0.1-0.9-0.2-1.1c-0.2-0.3-0.5-0.4-0.9-0.4c-0.2,0-0.3,0-0.5,0.1c-0.2,0.1-0.3,0.1-0.5,0.2    V57c0.1,0,0.2,0.1,0.4,0.1c0.1,0,0.3,0,0.4,0c0.5,0,0.8-0.1,1-0.4S64.1,56,64.1,55.5z"/> 		<path style="fill:#1A171B;" d="M70.5,57.7c-0.1,0.1-0.2,0.2-0.4,0.3s-0.3,0.2-0.4,0.2c-0.2,0.1-0.4,0.1-0.5,0.2s-0.4,0.1-0.6,0.1    c-0.5,0-1-0.2-1.3-0.5s-0.5-0.7-0.5-1.2c0-0.4,0.1-0.7,0.3-1s0.4-0.5,0.8-0.6c0.3-0.1,0.7-0.3,1.2-0.3s1-0.1,1.5-0.1v0    c0-0.3-0.1-0.5-0.4-0.6s-0.6-0.2-1.1-0.2c-0.3,0-0.6,0.1-0.9,0.2s-0.6,0.2-0.7,0.2h-0.2v-1.3c0.2,0,0.5-0.1,0.9-0.2    c0.4-0.1,0.8-0.1,1.3-0.1c1,0,1.7,0.2,2.2,0.5c0.4,0.3,0.7,0.8,0.7,1.4v3.7h-1.7V57.7z M70.5,56.8v-1.1c-0.2,0-0.5,0-0.8,0.1    c-0.3,0-0.5,0.1-0.6,0.1c-0.2,0.1-0.3,0.1-0.4,0.2c-0.1,0.1-0.1,0.2-0.1,0.4c0,0.1,0,0.2,0,0.3c0,0.1,0.1,0.1,0.1,0.2    c0.1,0.1,0.2,0.1,0.3,0.1s0.3,0,0.5,0c0.2,0,0.4,0,0.5-0.1C70.2,57,70.4,56.9,70.5,56.8z"/> 		<path style="fill:#1A171B;" d="M76.2,58.3c0,0.6-0.2,1.1-0.6,1.4s-0.9,0.5-1.5,0.5c-0.3,0-0.6,0-0.9,0c-0.3,0-0.5-0.1-0.6-0.1    v-1.3h0.1c0.1,0,0.2,0.1,0.4,0.1c0.1,0,0.3,0,0.3,0c0.3,0,0.6-0.1,0.7-0.3c0.1-0.2,0.2-0.5,0.2-1v-3.8h-1v-1.2h2.8V58.3z M76.2,52    h-1.9v-1.3h1.9V52z"/> 		<path style="fill:#1A171B;" d="M81.2,57.7c-0.1,0.1-0.2,0.2-0.4,0.3s-0.3,0.2-0.4,0.2c-0.2,0.1-0.4,0.1-0.5,0.2s-0.4,0.1-0.6,0.1    c-0.5,0-1-0.2-1.3-0.5s-0.5-0.7-0.5-1.2c0-0.4,0.1-0.7,0.3-1s0.4-0.5,0.8-0.6c0.3-0.1,0.7-0.3,1.2-0.3s1-0.1,1.5-0.1v0    c0-0.3-0.1-0.5-0.4-0.6s-0.6-0.2-1.1-0.2c-0.3,0-0.6,0.1-0.9,0.2s-0.6,0.2-0.7,0.2h-0.2v-1.3c0.2,0,0.5-0.1,0.9-0.2    c0.4-0.1,0.8-0.1,1.3-0.1c1,0,1.7,0.2,2.2,0.5c0.4,0.3,0.7,0.8,0.7,1.4v3.7h-1.7V57.7z M81.2,56.8v-1.1c-0.2,0-0.5,0-0.8,0.1    c-0.3,0-0.5,0.1-0.6,0.1c-0.2,0.1-0.3,0.1-0.4,0.2c-0.1,0.1-0.1,0.2-0.1,0.4c0,0.1,0,0.2,0,0.3c0,0.1,0.1,0.1,0.1,0.2    c0.1,0.1,0.2,0.1,0.3,0.1s0.3,0,0.5,0c0.2,0,0.4,0,0.5-0.1C80.9,57,81.1,56.9,81.2,56.8z"/> 		<path style="fill:#1A171B;" d="M32.9,69.3h-1.8v-0.6c-0.3,0.2-0.6,0.4-0.8,0.5s-0.6,0.2-0.9,0.2c-0.7,0-1.2-0.3-1.6-0.8    c-0.4-0.5-0.6-1.2-0.6-2.1c0-0.5,0.1-0.9,0.2-1.2s0.3-0.7,0.6-0.9c0.2-0.2,0.5-0.4,0.8-0.6s0.6-0.2,0.9-0.2c0.3,0,0.6,0,0.8,0.1    c0.2,0.1,0.4,0.2,0.6,0.3v-2.3h1.8V69.3z M31.1,67.7V65C31,65,30.8,65,30.7,64.9s-0.3,0-0.4,0c-0.5,0-0.8,0.1-1,0.4    s-0.3,0.7-0.3,1.2c0,0.5,0.1,0.9,0.3,1.2c0.2,0.2,0.5,0.4,0.9,0.4c0.2,0,0.3,0,0.5-0.1C30.8,67.9,31,67.8,31.1,67.7z"/> 		<path style="fill:#1A171B;" d="M39.9,66.8h-4c0,0.4,0.2,0.8,0.5,1c0.3,0.2,0.7,0.3,1.3,0.3c0.4,0,0.7-0.1,1.1-0.2s0.6-0.3,0.8-0.4    h0.2v1.4c-0.4,0.2-0.8,0.3-1.1,0.3s-0.7,0.1-1.2,0.1c-1.1,0-1.9-0.2-2.5-0.7s-0.9-1.2-0.9-2.1c0-0.9,0.3-1.6,0.8-2.2    c0.6-0.5,1.3-0.8,2.3-0.8c0.9,0,1.6,0.2,2,0.7s0.7,1.1,0.7,1.9V66.8z M38.2,65.8c0-0.4-0.1-0.6-0.3-0.8s-0.4-0.3-0.8-0.3    c-0.3,0-0.6,0.1-0.8,0.3s-0.3,0.5-0.4,0.8H38.2z"/> 		<path style="fill:#1A171B;" d="M42.9,69.3h-1.8v-7.6h1.8V69.3z"/> 		<path style="fill:#1A171B;" d="M53.3,69.3h-5.3V62h5.3v1.4H50v1.3h3.1v1.4H50v1.8h3.4V69.3z"/> 		<path style="fill:#1A171B;" d="M60.5,66.4c0,0.9-0.2,1.6-0.7,2.1c-0.5,0.5-1.1,0.8-1.8,0.8c-0.3,0-0.6,0-0.8-0.1    c-0.2-0.1-0.5-0.2-0.7-0.3l-0.1,0.3h-1.7v-7.6h1.8v2.7c0.3-0.2,0.5-0.4,0.8-0.5s0.6-0.2,1-0.2c0.7,0,1.2,0.3,1.6,0.7    S60.5,65.6,60.5,66.4z M58.7,66.5c0-0.5-0.1-0.9-0.2-1.1C58.3,65.1,58,65,57.6,65c-0.2,0-0.3,0-0.5,0.1c-0.2,0.1-0.3,0.1-0.5,0.2    V68c0.1,0,0.2,0.1,0.4,0.1c0.1,0,0.3,0,0.4,0c0.5,0,0.8-0.1,1-0.4S58.7,67,58.7,66.5z"/> 		<path style="fill:#1A171B;" d="M65.8,65.4h-0.2c-0.1,0-0.2,0-0.4-0.1s-0.3,0-0.4,0c-0.3,0-0.5,0-0.7,0c-0.2,0-0.4,0.1-0.6,0.2v3.7    h-1.8v-5.5h1.8v0.8c0.4-0.3,0.7-0.6,1-0.7c0.3-0.1,0.5-0.2,0.8-0.2c0.1,0,0.1,0,0.2,0c0.1,0,0.1,0,0.2,0V65.4z"/> 		<path style="fill:#1A171B;" d="M72.4,66.5c0,0.9-0.3,1.6-0.8,2.1c-0.5,0.5-1.3,0.8-2.2,0.8s-1.7-0.3-2.2-0.8    c-0.5-0.5-0.8-1.2-0.8-2.1c0-0.9,0.3-1.6,0.8-2.1c0.5-0.5,1.3-0.8,2.2-0.8c1,0,1.7,0.3,2.2,0.8C72.1,64.9,72.4,65.6,72.4,66.5z     M70.2,67.8c0.1-0.1,0.2-0.3,0.3-0.5c0.1-0.2,0.1-0.5,0.1-0.8c0-0.3,0-0.6-0.1-0.8s-0.1-0.4-0.2-0.5c-0.1-0.1-0.2-0.2-0.4-0.3    s-0.3-0.1-0.5-0.1s-0.3,0-0.5,0.1c-0.1,0-0.3,0.1-0.4,0.3c-0.1,0.1-0.2,0.3-0.3,0.5c-0.1,0.2-0.1,0.5-0.1,0.8c0,0.3,0,0.6,0.1,0.8    s0.1,0.4,0.2,0.5c0.1,0.1,0.2,0.2,0.4,0.3c0.1,0.1,0.3,0.1,0.5,0.1c0.2,0,0.3,0,0.5-0.1C70,68.1,70.1,68,70.2,67.8z"/> 		<path style="fill:#1A171B;" d="M75.8,67.3l-1.8,3.7H73l1-3.7H75.8z"/> 		<path style="fill:#1A171B;" d="M19,80.3h-5.2V73h1.9v5.9H19V80.3z"/> 		<path style="fill:#1A171B;" d="M25.6,77.5c0,0.9-0.3,1.6-0.8,2.1c-0.5,0.5-1.3,0.8-2.2,0.8s-1.7-0.3-2.2-0.8    c-0.5-0.5-0.8-1.2-0.8-2.1c0-0.9,0.3-1.6,0.8-2.1c0.5-0.5,1.3-0.8,2.2-0.8c1,0,1.7,0.3,2.2,0.8C25.4,75.9,25.6,76.6,25.6,77.5z     M23.5,78.9c0.1-0.1,0.2-0.3,0.3-0.5c0.1-0.2,0.1-0.5,0.1-0.8c0-0.3,0-0.6-0.1-0.8s-0.1-0.4-0.2-0.5c-0.1-0.1-0.2-0.2-0.4-0.3    s-0.3-0.1-0.5-0.1s-0.3,0-0.5,0.1c-0.1,0-0.3,0.1-0.4,0.3c-0.1,0.1-0.2,0.3-0.3,0.5c-0.1,0.2-0.1,0.5-0.1,0.8c0,0.3,0,0.6,0.1,0.8    s0.1,0.4,0.2,0.5c0.1,0.1,0.2,0.2,0.4,0.3c0.1,0.1,0.3,0.1,0.5,0.1c0.2,0,0.3,0,0.5-0.1C23.3,79.1,23.4,79,23.5,78.9z"/> 		<path style="fill:#1A171B;" d="M31.7,78.5c0,0.6-0.3,1-0.8,1.4s-1.2,0.5-2.1,0.5c-0.5,0-0.9,0-1.3-0.1s-0.7-0.2-1-0.3v-1.4h0.2    c0.1,0.1,0.2,0.1,0.3,0.2c0.1,0.1,0.3,0.2,0.5,0.2c0.2,0.1,0.4,0.1,0.6,0.2s0.5,0.1,0.7,0.1c0.3,0,0.6,0,0.8-0.1s0.2-0.2,0.2-0.3    c0-0.1,0-0.2-0.1-0.3s-0.3-0.1-0.6-0.2c-0.1,0-0.3-0.1-0.5-0.1c-0.2,0-0.4-0.1-0.6-0.1c-0.5-0.1-0.9-0.3-1.1-0.6s-0.4-0.6-0.4-1    c0-0.5,0.3-1,0.8-1.3c0.5-0.4,1.2-0.5,2-0.5c0.4,0,0.8,0,1.2,0.1c0.4,0.1,0.7,0.2,0.9,0.3v1.4h-0.2c-0.3-0.2-0.6-0.3-0.9-0.4    c-0.3-0.1-0.7-0.2-1-0.2c-0.3,0-0.5,0-0.7,0.1c-0.2,0.1-0.3,0.2-0.3,0.3c0,0.1,0,0.2,0.1,0.3s0.3,0.1,0.6,0.2    c0.2,0,0.4,0.1,0.6,0.1c0.2,0,0.4,0.1,0.6,0.1c0.5,0.1,0.8,0.3,1,0.6S31.7,78.1,31.7,78.5z"/> 		<path style="fill:#1A171B;" d="M44,80.3h-1.9v-4.9l-1.3,3.2h-1.3l-1.3-3.2v4.9h-1.8V73h2.2l1.6,3.6l1.6-3.6H44V80.3z"/> 		<path style="fill:#1A171B;" d="M51.3,77.5c0,0.9-0.3,1.6-0.8,2.1c-0.5,0.5-1.3,0.8-2.2,0.8s-1.7-0.3-2.2-0.8    c-0.5-0.5-0.8-1.2-0.8-2.1c0-0.9,0.3-1.6,0.8-2.1c0.5-0.5,1.3-0.8,2.2-0.8c1,0,1.7,0.3,2.2,0.8C51.1,75.9,51.3,76.6,51.3,77.5z     M49.2,78.9c0.1-0.1,0.2-0.3,0.3-0.5c0.1-0.2,0.1-0.5,0.1-0.8c0-0.3,0-0.6-0.1-0.8s-0.1-0.4-0.2-0.5c-0.1-0.1-0.2-0.2-0.4-0.3    s-0.3-0.1-0.5-0.1s-0.3,0-0.5,0.1c-0.1,0-0.3,0.1-0.4,0.3c-0.1,0.1-0.2,0.3-0.3,0.5c-0.1,0.2-0.1,0.5-0.1,0.8c0,0.3,0,0.6,0.1,0.8    s0.1,0.4,0.2,0.5c0.1,0.1,0.2,0.2,0.4,0.3c0.1,0.1,0.3,0.1,0.5,0.1c0.2,0,0.3,0,0.5-0.1C49,79.1,49.1,79,49.2,78.9z"/> 		<path style="fill:#1A171B;" d="M58.1,80.3h-1.8v-2.7c0-0.2,0-0.4,0-0.7s-0.1-0.4-0.1-0.5c-0.1-0.1-0.2-0.2-0.3-0.3    c-0.1-0.1-0.3-0.1-0.5-0.1c-0.2,0-0.3,0-0.5,0.1c-0.2,0.1-0.3,0.1-0.5,0.2v3.9h-1.8v-5.5h1.8v0.6c0.3-0.2,0.6-0.4,0.9-0.6    c0.3-0.1,0.6-0.2,1-0.2c0.6,0,1.1,0.2,1.4,0.5s0.5,0.9,0.5,1.5V80.3z"/> 		<path style="fill:#1A171B;" d="M65.1,77.8h-4c0,0.4,0.2,0.8,0.5,1c0.3,0.2,0.7,0.3,1.3,0.3c0.4,0,0.7-0.1,1.1-0.2s0.6-0.3,0.8-0.4    H65V80c-0.4,0.2-0.8,0.3-1.1,0.3s-0.7,0.1-1.2,0.1c-1.1,0-1.9-0.2-2.5-0.7s-0.9-1.2-0.9-2.1c0-0.9,0.3-1.6,0.8-2.2    c0.6-0.5,1.3-0.8,2.3-0.8c0.9,0,1.6,0.2,2,0.7s0.7,1.1,0.7,1.9V77.8z M63.4,76.8c0-0.4-0.1-0.6-0.3-0.8s-0.4-0.3-0.8-0.3    c-0.3,0-0.6,0.1-0.8,0.3s-0.3,0.5-0.4,0.8H63.4z"/> 		<path style="fill:#1A171B;" d="M71.7,79.6c0,0.5-0.1,0.9-0.2,1.3s-0.4,0.6-0.6,0.8c-0.3,0.2-0.6,0.3-1,0.4    c-0.4,0.1-0.8,0.1-1.3,0.1c-0.4,0-0.8,0-1.1-0.1c-0.4,0-0.7-0.1-1-0.2v-1.4h0.2c0.2,0.1,0.5,0.2,0.8,0.2c0.3,0.1,0.6,0.1,0.8,0.1    c0.3,0,0.6,0,0.8-0.1s0.4-0.1,0.5-0.3c0.1-0.1,0.2-0.2,0.2-0.4c0-0.2,0.1-0.4,0.1-0.6v-0.1c-0.2,0.2-0.4,0.3-0.7,0.4    s-0.5,0.2-0.9,0.2c-0.8,0-1.4-0.2-1.8-0.7S66,78.3,66,77.4c0-0.5,0.1-0.8,0.2-1.2s0.3-0.6,0.5-0.9c0.2-0.2,0.5-0.4,0.8-0.5    c0.3-0.1,0.6-0.2,1-0.2c0.3,0,0.6,0,0.8,0.1s0.5,0.2,0.7,0.3l0.1-0.2h1.7V79.6z M69.9,78.5v-2.5c-0.1,0-0.2-0.1-0.4-0.1    c-0.1,0-0.3,0-0.4,0c-0.5,0-0.8,0.1-1,0.4s-0.3,0.6-0.3,1.1c0,0.5,0.1,0.9,0.3,1.1s0.5,0.3,0.9,0.3c0.2,0,0.3,0,0.5-0.1    S69.8,78.6,69.9,78.5z"/> 		<path style="fill:#1A171B;" d="M77.3,76.5h-0.2c-0.1,0-0.2,0-0.4-0.1s-0.3,0-0.4,0c-0.3,0-0.5,0-0.7,0c-0.2,0-0.4,0.1-0.6,0.2v3.7    h-1.8v-5.5h1.8v0.8c0.4-0.3,0.7-0.6,1-0.7c0.3-0.1,0.5-0.2,0.8-0.2c0.1,0,0.1,0,0.2,0c0.1,0,0.1,0,0.2,0V76.5z"/> 		<path style="fill:#1A171B;" d="M83.9,77.5c0,0.9-0.3,1.6-0.8,2.1c-0.5,0.5-1.3,0.8-2.2,0.8s-1.7-0.3-2.2-0.8    c-0.5-0.5-0.8-1.2-0.8-2.1c0-0.9,0.3-1.6,0.8-2.1c0.5-0.5,1.3-0.8,2.2-0.8c1,0,1.7,0.3,2.2,0.8C83.7,75.9,83.9,76.6,83.9,77.5z     M81.8,78.9c0.1-0.1,0.2-0.3,0.3-0.5c0.1-0.2,0.1-0.5,0.1-0.8c0-0.3,0-0.6-0.1-0.8s-0.1-0.4-0.2-0.5c-0.1-0.1-0.2-0.2-0.4-0.3    s-0.3-0.1-0.5-0.1s-0.3,0-0.5,0.1c-0.1,0-0.3,0.1-0.4,0.3c-0.1,0.1-0.2,0.3-0.3,0.5c-0.1,0.2-0.1,0.5-0.1,0.8c0,0.3,0,0.6,0.1,0.8    s0.1,0.4,0.2,0.5c0.1,0.1,0.2,0.2,0.4,0.3c0.1,0.1,0.3,0.1,0.5,0.1c0.2,0,0.3,0,0.5-0.1C81.5,79.1,81.7,79,81.8,78.9z"/> 		<path style="fill:#1A171B;" d="M90,78.5c0,0.6-0.3,1-0.8,1.4s-1.2,0.5-2.1,0.5c-0.5,0-0.9,0-1.3-0.1s-0.7-0.2-1-0.3v-1.4H85    c0.1,0.1,0.2,0.1,0.3,0.2c0.1,0.1,0.3,0.2,0.5,0.2c0.2,0.1,0.4,0.1,0.6,0.2s0.5,0.1,0.7,0.1c0.3,0,0.6,0,0.8-0.1s0.2-0.2,0.2-0.3    c0-0.1,0-0.2-0.1-0.3s-0.3-0.1-0.6-0.2c-0.1,0-0.3-0.1-0.5-0.1c-0.2,0-0.4-0.1-0.6-0.1c-0.5-0.1-0.9-0.3-1.1-0.6s-0.4-0.6-0.4-1    c0-0.5,0.3-1,0.7-1.3c0.5-0.4,1.2-0.5,2-0.5c0.4,0,0.8,0,1.2,0.1c0.4,0.1,0.7,0.2,0.9,0.3v1.4h-0.2c-0.3-0.2-0.6-0.3-0.9-0.4    c-0.3-0.1-0.7-0.2-1-0.2c-0.3,0-0.5,0-0.7,0.1c-0.2,0.1-0.3,0.2-0.3,0.3c0,0.1,0,0.2,0.1,0.3s0.3,0.1,0.6,0.2    c0.2,0,0.4,0.1,0.6,0.1c0.2,0,0.4,0.1,0.6,0.1c0.5,0.1,0.8,0.3,1,0.6S90,78.1,90,78.5z"/> 		<path style="fill:#1A171B;" d="M23.3,91.3h-1.8v-0.6c-0.3,0.2-0.6,0.4-0.8,0.5s-0.6,0.2-0.9,0.2c-0.7,0-1.2-0.3-1.6-0.8    c-0.4-0.5-0.6-1.2-0.6-2.1c0-0.5,0.1-0.9,0.2-1.2s0.3-0.7,0.6-0.9c0.2-0.2,0.5-0.4,0.8-0.6s0.6-0.2,0.9-0.2c0.3,0,0.6,0,0.8,0.1    c0.2,0.1,0.4,0.2,0.6,0.3v-2.3h1.8V91.3z M21.6,89.8v-2.7C21.4,87,21.3,87,21.2,87s-0.3,0-0.4,0c-0.5,0-0.8,0.1-1,0.4    s-0.3,0.7-0.3,1.2c0,0.5,0.1,0.9,0.3,1.2c0.2,0.2,0.5,0.4,0.9,0.4c0.2,0,0.3,0,0.5-0.1C21.3,89.9,21.4,89.9,21.6,89.8z"/> 		<path style="fill:#1A171B;" d="M30.4,88.9h-4c0,0.4,0.2,0.8,0.5,1c0.3,0.2,0.7,0.3,1.3,0.3c0.4,0,0.7-0.1,1.1-0.2s0.6-0.3,0.8-0.4    h0.2V91c-0.4,0.2-0.8,0.3-1.1,0.3s-0.7,0.1-1.2,0.1c-1.1,0-1.9-0.2-2.5-0.7s-0.9-1.2-0.9-2.1c0-0.9,0.3-1.6,0.8-2.2    c0.6-0.5,1.3-0.8,2.3-0.8c0.9,0,1.6,0.2,2,0.7s0.7,1.1,0.7,1.9V88.9z M28.6,87.8c0-0.4-0.1-0.6-0.3-0.8s-0.4-0.3-0.8-0.3    c-0.3,0-0.6,0.1-0.8,0.3s-0.3,0.5-0.4,0.8H28.6z"/> 		<path style="fill:#1A171B;" d="M40.8,91.3h-6.1v-1.4l3.6-4.5h-3.4V84h5.7v1.4l-3.6,4.5h3.8V91.3z"/> 		<path style="fill:#1A171B;" d="M45.3,90.7c-0.1,0.1-0.2,0.2-0.4,0.3s-0.3,0.2-0.4,0.2c-0.2,0.1-0.4,0.1-0.5,0.2s-0.4,0.1-0.6,0.1    c-0.5,0-1-0.2-1.3-0.5s-0.5-0.7-0.5-1.2c0-0.4,0.1-0.7,0.3-1s0.4-0.5,0.8-0.6c0.3-0.1,0.7-0.3,1.2-0.3s1-0.1,1.5-0.1v0    c0-0.3-0.1-0.5-0.4-0.6s-0.6-0.2-1.1-0.2c-0.3,0-0.6,0.1-0.9,0.2s-0.6,0.2-0.7,0.2H42v-1.3c0.2,0,0.5-0.1,0.9-0.2    c0.4-0.1,0.8-0.1,1.3-0.1c1,0,1.7,0.2,2.2,0.5c0.4,0.3,0.7,0.8,0.7,1.4v3.7h-1.7V90.7z M45.3,89.8v-1.1c-0.2,0-0.5,0-0.8,0.1    c-0.3,0-0.5,0.1-0.6,0.1c-0.2,0.1-0.3,0.1-0.4,0.2c-0.1,0.1-0.1,0.2-0.1,0.4c0,0.1,0,0.2,0,0.3c0,0.1,0.1,0.1,0.1,0.2    c0.1,0.1,0.2,0.1,0.3,0.1s0.3,0,0.5,0c0.2,0,0.4,0,0.5-0.1C45,90.1,45.1,90,45.3,89.8z"/> 		<path style="fill:#1A171B;" d="M52.6,87.5h-0.2c-0.1,0-0.2,0-0.4-0.1s-0.3,0-0.4,0c-0.3,0-0.5,0-0.7,0c-0.2,0-0.4,0.1-0.6,0.2v3.7    h-1.8v-5.5h1.8v0.8c0.4-0.3,0.7-0.6,1-0.7c0.3-0.1,0.5-0.2,0.8-0.2c0.1,0,0.1,0,0.2,0c0.1,0,0.1,0,0.2,0V87.5z"/> 		<path style="fill:#1A171B;" d="M56.9,90.7c-0.1,0.1-0.2,0.2-0.4,0.3s-0.3,0.2-0.4,0.2c-0.2,0.1-0.4,0.1-0.5,0.2s-0.4,0.1-0.6,0.1    c-0.5,0-1-0.2-1.3-0.5s-0.5-0.7-0.5-1.2c0-0.4,0.1-0.7,0.3-1s0.4-0.5,0.8-0.6c0.3-0.1,0.7-0.3,1.2-0.3s1-0.1,1.5-0.1v0    c0-0.3-0.1-0.5-0.4-0.6s-0.6-0.2-1.1-0.2c-0.3,0-0.6,0.1-0.9,0.2s-0.6,0.2-0.7,0.2h-0.2v-1.3c0.2,0,0.5-0.1,0.9-0.2    c0.4-0.1,0.8-0.1,1.3-0.1c1,0,1.7,0.2,2.2,0.5c0.4,0.3,0.7,0.8,0.7,1.4v3.7h-1.7V90.7z M56.9,89.8v-1.1c-0.2,0-0.5,0-0.8,0.1    c-0.3,0-0.5,0.1-0.6,0.1c-0.2,0.1-0.3,0.1-0.4,0.2C55,89.3,55,89.4,55,89.6c0,0.1,0,0.2,0,0.3c0,0.1,0.1,0.1,0.1,0.2    c0.1,0.1,0.2,0.1,0.3,0.1s0.3,0,0.5,0c0.2,0,0.4,0,0.5-0.1C56.6,90.1,56.8,90,56.9,89.8z"/> 		<path style="fill:#1A171B;" d="M65.6,90.6c0,0.5-0.1,0.9-0.2,1.3s-0.4,0.6-0.6,0.8c-0.3,0.2-0.6,0.3-1,0.4    c-0.4,0.1-0.8,0.1-1.3,0.1c-0.4,0-0.8,0-1.1-0.1c-0.4,0-0.7-0.1-1-0.2v-1.4h0.2c0.2,0.1,0.5,0.2,0.8,0.2c0.3,0.1,0.6,0.1,0.8,0.1    c0.3,0,0.6,0,0.8-0.1s0.4-0.1,0.5-0.3c0.1-0.1,0.2-0.2,0.2-0.4c0-0.2,0.1-0.4,0.1-0.6v-0.1c-0.2,0.2-0.4,0.3-0.7,0.4    s-0.5,0.2-0.9,0.2c-0.8,0-1.4-0.2-1.8-0.7s-0.6-1.2-0.6-2.1c0-0.5,0.1-0.8,0.2-1.2s0.3-0.6,0.5-0.9c0.2-0.2,0.5-0.4,0.8-0.5    c0.3-0.1,0.6-0.2,1-0.2c0.3,0,0.6,0,0.8,0.1s0.5,0.2,0.7,0.3l0.1-0.2h1.7V90.6z M63.9,89.6v-2.5c-0.1,0-0.2-0.1-0.4-0.1    c-0.1,0-0.3,0-0.4,0c-0.5,0-0.8,0.1-1,0.4s-0.3,0.6-0.3,1.1c0,0.5,0.1,0.9,0.3,1.1s0.5,0.3,0.9,0.3c0.2,0,0.3,0,0.5-0.1    S63.7,89.6,63.9,89.6z"/> 		<path style="fill:#1A171B;" d="M72.9,88.5c0,0.9-0.3,1.6-0.8,2.1c-0.5,0.5-1.3,0.8-2.2,0.8s-1.7-0.3-2.2-0.8    c-0.5-0.5-0.8-1.2-0.8-2.1c0-0.9,0.3-1.6,0.8-2.1c0.5-0.5,1.3-0.8,2.2-0.8c1,0,1.7,0.3,2.2,0.8C72.6,86.9,72.9,87.6,72.9,88.5z     M70.7,89.9c0.1-0.1,0.2-0.3,0.3-0.5c0.1-0.2,0.1-0.5,0.1-0.8c0-0.3,0-0.6-0.1-0.8s-0.1-0.4-0.2-0.5c-0.1-0.1-0.2-0.2-0.4-0.3    s-0.3-0.1-0.5-0.1s-0.3,0-0.5,0.1c-0.1,0-0.3,0.1-0.4,0.3c-0.1,0.1-0.2,0.3-0.3,0.5c-0.1,0.2-0.1,0.5-0.1,0.8c0,0.3,0,0.6,0.1,0.8    s0.1,0.4,0.2,0.5c0.1,0.1,0.2,0.2,0.4,0.3c0.1,0.1,0.3,0.1,0.5,0.1c0.2,0,0.3,0,0.5-0.1C70.5,90.1,70.6,90,70.7,89.9z"/> 		<path style="fill:#1A171B;" d="M78.9,91.3h-5.2v-1.1l2.9-3.1h-2.8v-1.3h5v1.1L76,90h2.9V91.3z"/> 		<path style="fill:#1A171B;" d="M83.4,90.7c-0.1,0.1-0.2,0.2-0.4,0.3s-0.3,0.2-0.4,0.2c-0.2,0.1-0.4,0.1-0.5,0.2s-0.4,0.1-0.6,0.1    c-0.5,0-1-0.2-1.3-0.5s-0.5-0.7-0.5-1.2c0-0.4,0.1-0.7,0.3-1s0.4-0.5,0.8-0.6c0.3-0.1,0.7-0.3,1.2-0.3s1-0.1,1.5-0.1v0    c0-0.3-0.1-0.5-0.4-0.6s-0.6-0.2-1.1-0.2c-0.3,0-0.6,0.1-0.9,0.2s-0.6,0.2-0.7,0.2h-0.2v-1.3c0.2,0,0.5-0.1,0.9-0.2    c0.4-0.1,0.8-0.1,1.3-0.1c1,0,1.7,0.2,2.2,0.5c0.4,0.3,0.7,0.8,0.7,1.4v3.7h-1.7V90.7z M83.4,89.8v-1.1c-0.2,0-0.5,0-0.8,0.1    c-0.3,0-0.5,0.1-0.6,0.1c-0.2,0.1-0.3,0.1-0.4,0.2c-0.1,0.1-0.1,0.2-0.1,0.4c0,0.1,0,0.2,0,0.3c0,0.1,0.1,0.1,0.1,0.2    c0.1,0.1,0.2,0.1,0.3,0.1s0.3,0,0.5,0c0.2,0,0.4,0,0.5-0.1C83.1,90.1,83.3,90,83.4,89.8z"/> 	</g> </g> <g id="text_x5F_exterior"> 	<g> 		<rect x="210.6" y="33.8" style="fill-rule:evenodd;clip-rule:evenodd;fill:none;" width="46.5" height="11"/> 		<path style="fill:#1A171B;" d="M221,42.3h-1.9v-3.2h-2.8v3.2h-1.9V35h1.9v2.7h2.8V35h1.9V42.3z"/> 		<path style="fill:#1A171B;" d="M228.2,42.3h-1.8v-0.6c-0.3,0.2-0.6,0.4-0.9,0.6s-0.6,0.2-1,0.2c-0.6,0-1.1-0.2-1.4-0.5    c-0.3-0.3-0.5-0.9-0.5-1.5v-3.6h1.8v2.7c0,0.3,0,0.5,0,0.7c0,0.2,0.1,0.3,0.1,0.5c0.1,0.1,0.2,0.2,0.3,0.3    c0.1,0.1,0.3,0.1,0.5,0.1c0.1,0,0.3,0,0.5-0.1s0.4-0.1,0.5-0.2v-3.9h1.8V42.3z"/> 		<path style="fill:#1A171B;" d="M235.3,39.9h-4c0,0.4,0.2,0.8,0.5,1c0.3,0.2,0.7,0.3,1.3,0.3c0.4,0,0.7-0.1,1.1-0.2    s0.6-0.3,0.8-0.4h0.2V42c-0.4,0.2-0.8,0.3-1.1,0.3s-0.7,0.1-1.2,0.1c-1.1,0-1.9-0.2-2.5-0.7s-0.9-1.2-0.9-2.1    c0-0.9,0.3-1.6,0.8-2.2c0.6-0.5,1.3-0.8,2.3-0.8c0.9,0,1.6,0.2,2,0.7s0.7,1.1,0.7,1.9V39.9z M233.6,38.8c0-0.4-0.1-0.6-0.3-0.8    s-0.4-0.3-0.8-0.3c-0.3,0-0.6,0.1-0.8,0.3s-0.3,0.5-0.4,0.8H233.6z"/> 		<path style="fill:#1A171B;" d="M241.3,40.5c0,0.6-0.3,1-0.8,1.4s-1.2,0.5-2.1,0.5c-0.5,0-0.9,0-1.3-0.1s-0.7-0.2-1-0.3v-1.4h0.2    c0.1,0.1,0.2,0.1,0.3,0.2c0.1,0.1,0.3,0.2,0.5,0.2c0.2,0.1,0.4,0.1,0.6,0.2s0.5,0.1,0.7,0.1c0.3,0,0.6,0,0.8-0.1s0.2-0.2,0.2-0.3    c0-0.1,0-0.2-0.1-0.3s-0.3-0.1-0.6-0.2c-0.1,0-0.3-0.1-0.5-0.1c-0.2,0-0.4-0.1-0.6-0.1c-0.5-0.1-0.9-0.3-1.1-0.6s-0.4-0.6-0.4-1    c0-0.5,0.3-1,0.8-1.3c0.5-0.3,1.2-0.5,2-0.5c0.4,0,0.8,0,1.2,0.1c0.4,0.1,0.7,0.2,0.9,0.3v1.4h-0.2c-0.3-0.2-0.6-0.3-0.9-0.4    c-0.3-0.1-0.7-0.2-1-0.2c-0.3,0-0.5,0-0.7,0.1c-0.2,0.1-0.3,0.2-0.3,0.3c0,0.1,0,0.2,0.1,0.3s0.3,0.1,0.6,0.2    c0.2,0,0.4,0.1,0.6,0.1c0.2,0,0.4,0.1,0.6,0.1c0.5,0.1,0.8,0.3,1,0.6S241.3,40.1,241.3,40.5z"/> 		<path style="fill:#1A171B;" d="M245.3,42.4c-0.5,0-0.9-0.1-1.3-0.2c-0.4-0.1-0.7-0.3-1-0.5c-0.3-0.2-0.5-0.5-0.7-0.9    s-0.2-0.8-0.2-1.3c0-0.5,0.1-1,0.3-1.3c0.2-0.4,0.4-0.7,0.7-0.9c0.3-0.2,0.6-0.4,1-0.5s0.8-0.2,1.2-0.2c0.4,0,0.7,0,1,0.1    s0.6,0.2,0.9,0.3v1.5h-0.2c-0.1-0.1-0.2-0.1-0.2-0.2s-0.2-0.2-0.4-0.2c-0.1-0.1-0.3-0.1-0.4-0.2c-0.2,0-0.3-0.1-0.6-0.1    c-0.5,0-0.8,0.1-1.1,0.4s-0.4,0.7-0.4,1.2c0,0.5,0.1,0.9,0.4,1.2c0.3,0.3,0.6,0.4,1.1,0.4c0.2,0,0.4,0,0.6-0.1    c0.2-0.1,0.3-0.1,0.4-0.2c0.1-0.1,0.2-0.1,0.3-0.2c0.1-0.1,0.2-0.1,0.2-0.2h0.2V42c-0.3,0.1-0.6,0.2-0.9,0.3    C246,42.4,245.7,42.4,245.3,42.4z"/> 		<path style="fill:#1A171B;" d="M251.7,41.7c-0.1,0.1-0.2,0.2-0.4,0.3s-0.3,0.2-0.4,0.2c-0.2,0.1-0.4,0.1-0.5,0.2s-0.4,0.1-0.6,0.1    c-0.5,0-1-0.2-1.3-0.5s-0.5-0.7-0.5-1.2c0-0.4,0.1-0.7,0.3-1s0.4-0.5,0.8-0.6c0.3-0.1,0.7-0.3,1.2-0.3s1-0.1,1.5-0.1v0    c0-0.3-0.1-0.5-0.4-0.6c-0.2-0.1-0.6-0.2-1.1-0.2c-0.3,0-0.6,0.1-0.9,0.2s-0.6,0.2-0.7,0.2h-0.2v-1.3c0.2,0,0.5-0.1,0.9-0.2    c0.4-0.1,0.8-0.1,1.3-0.1c1,0,1.7,0.2,2.2,0.5c0.4,0.3,0.7,0.8,0.7,1.4v3.7h-1.7V41.7z M251.7,40.8v-1.1c-0.2,0-0.5,0-0.8,0.1    c-0.3,0-0.5,0.1-0.6,0.1c-0.2,0.1-0.3,0.1-0.4,0.2c-0.1,0.1-0.1,0.2-0.1,0.4c0,0.1,0,0.2,0,0.3c0,0.1,0.1,0.1,0.1,0.2    c0.1,0.1,0.2,0.1,0.3,0.1s0.3,0,0.5,0c0.2,0,0.4,0,0.5-0.1C251.4,41.1,251.5,41,251.7,40.8z"/> 	</g> 	<g> 		<rect x="362.9" y="330" style="fill-rule:evenodd;clip-rule:evenodd;fill:none;" width="71.8" height="11"/> 		<path style="fill:#1A171B;" d="M376.5,332.6h-2.3v5.9h-1.9v-5.9h-2.3v-1.4h6.4V332.6z"/> 		<path style="fill:#1A171B;" d="M380.9,337.9c-0.1,0.1-0.2,0.2-0.4,0.3s-0.3,0.2-0.4,0.2c-0.2,0.1-0.4,0.1-0.5,0.2    c-0.2,0-0.4,0.1-0.6,0.1c-0.5,0-1-0.2-1.3-0.5s-0.5-0.7-0.5-1.2c0-0.4,0.1-0.7,0.3-1s0.4-0.5,0.8-0.6c0.3-0.1,0.7-0.3,1.2-0.3    s1-0.1,1.5-0.1v0c0-0.3-0.1-0.5-0.4-0.6c-0.2-0.1-0.6-0.2-1.1-0.2c-0.3,0-0.6,0.1-0.9,0.2c-0.3,0.1-0.6,0.2-0.7,0.2h-0.2v-1.3    c0.2,0,0.5-0.1,0.9-0.2c0.4-0.1,0.8-0.1,1.3-0.1c1,0,1.7,0.2,2.2,0.5c0.4,0.3,0.7,0.8,0.7,1.4v3.7h-1.7V337.9z M380.9,337v-1.1    c-0.2,0-0.5,0-0.8,0.1c-0.3,0-0.5,0.1-0.6,0.1c-0.2,0.1-0.3,0.1-0.4,0.2c-0.1,0.1-0.1,0.2-0.1,0.4c0,0.1,0,0.2,0,0.3    c0,0.1,0.1,0.1,0.1,0.2c0.1,0.1,0.2,0.1,0.3,0.1c0.1,0,0.3,0,0.5,0c0.2,0,0.4,0,0.5-0.1C380.6,337.3,380.7,337.2,380.9,337z"/> 		<path style="fill:#1A171B;" d="M388.2,334.7h-0.2c-0.1,0-0.2,0-0.4-0.1s-0.3,0-0.4,0c-0.3,0-0.5,0-0.7,0c-0.2,0-0.4,0.1-0.6,0.2    v3.7h-1.8V333h1.8v0.8c0.4-0.3,0.7-0.6,1-0.7c0.3-0.1,0.5-0.2,0.8-0.2c0.1,0,0.1,0,0.2,0c0.1,0,0.1,0,0.2,0V334.7z"/> 		<path style="fill:#1A171B;" d="M393.2,334.7H393c-0.1,0-0.2,0-0.4-0.1s-0.3,0-0.4,0c-0.3,0-0.5,0-0.7,0c-0.2,0-0.4,0.1-0.6,0.2    v3.7h-1.8V333h1.8v0.8c0.4-0.3,0.7-0.6,1-0.7c0.3-0.1,0.5-0.2,0.8-0.2c0.1,0,0.1,0,0.2,0c0.1,0,0.1,0,0.2,0V334.7z"/> 		<path style="fill:#1A171B;" d="M397.5,337.9c-0.1,0.1-0.2,0.2-0.4,0.3s-0.3,0.2-0.4,0.2c-0.2,0.1-0.4,0.1-0.5,0.2    c-0.2,0-0.4,0.1-0.6,0.1c-0.5,0-1-0.2-1.3-0.5s-0.5-0.7-0.5-1.2c0-0.4,0.1-0.7,0.3-1s0.4-0.5,0.8-0.6c0.3-0.1,0.7-0.3,1.2-0.3    s1-0.1,1.5-0.1v0c0-0.3-0.1-0.5-0.4-0.6c-0.2-0.1-0.6-0.2-1.1-0.2c-0.3,0-0.6,0.1-0.9,0.2c-0.3,0.1-0.6,0.2-0.7,0.2h-0.2v-1.3    c0.2,0,0.5-0.1,0.9-0.2c0.4-0.1,0.8-0.1,1.3-0.1c1,0,1.7,0.2,2.2,0.5c0.4,0.3,0.7,0.8,0.7,1.4v3.7h-1.7V337.9z M397.5,337v-1.1    c-0.2,0-0.5,0-0.8,0.1c-0.3,0-0.5,0.1-0.6,0.1c-0.2,0.1-0.3,0.1-0.4,0.2c-0.1,0.1-0.1,0.2-0.1,0.4c0,0.1,0,0.2,0,0.3    c0,0.1,0.1,0.1,0.1,0.2c0.1,0.1,0.2,0.1,0.3,0.1c0.1,0,0.3,0,0.5,0c0.2,0,0.4,0,0.5-0.1C397.2,337.3,397.4,337.2,397.5,337z"/> 		<path style="fill:#1A171B;" d="M406.2,337.9c0,0.5-0.1,0.9-0.2,1.3s-0.4,0.6-0.6,0.8c-0.3,0.2-0.6,0.3-1,0.4    c-0.4,0.1-0.8,0.1-1.3,0.1c-0.4,0-0.8,0-1.1-0.1c-0.4,0-0.7-0.1-1-0.2v-1.4h0.2c0.2,0.1,0.5,0.2,0.8,0.2c0.3,0.1,0.6,0.1,0.8,0.1    c0.3,0,0.6,0,0.8-0.1c0.2-0.1,0.4-0.1,0.5-0.3c0.1-0.1,0.2-0.2,0.2-0.4c0-0.2,0.1-0.4,0.1-0.6v-0.1c-0.2,0.2-0.4,0.3-0.7,0.4    s-0.5,0.2-0.9,0.2c-0.8,0-1.4-0.2-1.8-0.7s-0.6-1.2-0.6-2.1c0-0.5,0.1-0.8,0.2-1.2s0.3-0.6,0.5-0.9c0.2-0.2,0.5-0.4,0.8-0.5    c0.3-0.1,0.6-0.2,1-0.2c0.3,0,0.6,0,0.8,0.1c0.2,0.1,0.5,0.2,0.7,0.3l0.1-0.2h1.7V337.9z M404.4,336.8v-2.5    c-0.1,0-0.2-0.1-0.4-0.1c-0.1,0-0.3,0-0.4,0c-0.5,0-0.8,0.1-1,0.4c-0.2,0.3-0.3,0.6-0.3,1.1c0,0.5,0.1,0.9,0.3,1.1    s0.5,0.3,0.9,0.3c0.2,0,0.3,0,0.5-0.1S404.3,336.8,404.4,336.8z"/> 		<path style="fill:#1A171B;" d="M413.5,335.7c0,0.9-0.3,1.6-0.8,2.1c-0.5,0.5-1.3,0.8-2.2,0.8s-1.7-0.3-2.2-0.8    c-0.5-0.5-0.8-1.2-0.8-2.1c0-0.9,0.3-1.6,0.8-2.1c0.5-0.5,1.3-0.8,2.2-0.8c1,0,1.7,0.3,2.2,0.8    C413.2,334.1,413.5,334.8,413.5,335.7z M411.3,337.1c0.1-0.1,0.2-0.3,0.3-0.5c0.1-0.2,0.1-0.5,0.1-0.8c0-0.3,0-0.6-0.1-0.8    s-0.1-0.4-0.2-0.5c-0.1-0.1-0.2-0.2-0.4-0.3s-0.3-0.1-0.5-0.1s-0.3,0-0.5,0.1c-0.1,0-0.3,0.1-0.4,0.3c-0.1,0.1-0.2,0.3-0.3,0.5    c-0.1,0.2-0.1,0.5-0.1,0.8c0,0.3,0,0.6,0.1,0.8c0.1,0.2,0.1,0.4,0.2,0.5c0.1,0.1,0.2,0.2,0.4,0.3c0.1,0.1,0.3,0.1,0.5,0.1    c0.2,0,0.3,0,0.5-0.1C411.1,337.3,411.2,337.2,411.3,337.1z"/> 		<path style="fill:#1A171B;" d="M420.2,338.5h-1.8v-2.7c0-0.2,0-0.4,0-0.7c0-0.2-0.1-0.4-0.1-0.5c-0.1-0.1-0.2-0.2-0.3-0.3    c-0.1-0.1-0.3-0.1-0.5-0.1c-0.2,0-0.3,0-0.5,0.1c-0.2,0.1-0.3,0.1-0.5,0.2v3.9h-1.8V333h1.8v0.6c0.3-0.2,0.6-0.4,0.9-0.6    c0.3-0.1,0.6-0.2,1-0.2c0.6,0,1.1,0.2,1.4,0.5s0.5,0.9,0.5,1.5V338.5z"/> 		<path style="fill:#1A171B;" d="M425.2,337.9c-0.1,0.1-0.2,0.2-0.4,0.3s-0.3,0.2-0.4,0.2c-0.2,0.1-0.4,0.1-0.5,0.2    c-0.2,0-0.4,0.1-0.6,0.1c-0.5,0-1-0.2-1.3-0.5s-0.5-0.7-0.5-1.2c0-0.4,0.1-0.7,0.3-1s0.4-0.5,0.8-0.6c0.3-0.1,0.7-0.3,1.2-0.3    s1-0.1,1.5-0.1v0c0-0.3-0.1-0.5-0.4-0.6c-0.2-0.1-0.6-0.2-1.1-0.2c-0.3,0-0.6,0.1-0.9,0.2c-0.3,0.1-0.6,0.2-0.7,0.2h-0.2v-1.3    c0.2,0,0.5-0.1,0.9-0.2c0.4-0.1,0.8-0.1,1.3-0.1c1,0,1.7,0.2,2.2,0.5c0.4,0.3,0.7,0.8,0.7,1.4v3.7h-1.7V337.9z M425.2,337v-1.1    c-0.2,0-0.5,0-0.8,0.1c-0.3,0-0.5,0.1-0.6,0.1c-0.2,0.1-0.3,0.1-0.4,0.2c-0.1,0.1-0.1,0.2-0.1,0.4c0,0.1,0,0.2,0,0.3    c0,0.1,0.1,0.1,0.1,0.2c0.1,0.1,0.2,0.1,0.3,0.1c0.1,0,0.3,0,0.5,0c0.2,0,0.4,0,0.5-0.1C424.9,337.3,425,337.2,425.2,337z"/> 	</g> 	<g> 		<rect x="398.6" y="54.6" style="fill-rule:evenodd;clip-rule:evenodd;fill:none;" width="42.1" height="11"/> 		<path style="fill:#1A171B;" d="M409.1,63.1h-5.2v-7.3h1.9v5.9h3.4V63.1z"/> 		<path style="fill:#1A171B;" d="M411.9,63.1h-1.8v-7.6h1.8V63.1z"/> 		<path style="fill:#1A171B;" d="M418.9,60.6h-4c0,0.4,0.2,0.8,0.5,1c0.3,0.2,0.7,0.3,1.3,0.3c0.4,0,0.7-0.1,1.1-0.2    s0.6-0.3,0.8-0.4h0.2v1.4c-0.4,0.2-0.8,0.3-1.1,0.3s-0.7,0.1-1.2,0.1c-1.1,0-1.9-0.2-2.5-0.7s-0.9-1.2-0.9-2.1    c0-0.9,0.3-1.6,0.8-2.2c0.6-0.5,1.3-0.8,2.3-0.8c0.9,0,1.6,0.2,2,0.7s0.7,1.1,0.7,1.9V60.6z M417.2,59.6c0-0.4-0.1-0.6-0.3-0.8    s-0.4-0.3-0.8-0.3c-0.3,0-0.6,0.1-0.8,0.3s-0.3,0.5-0.4,0.8H417.2z"/> 		<path style="fill:#1A171B;" d="M422,56.8h-1.9v-1.3h1.9V56.8z M421.9,63.1h-1.8v-5.5h1.8V63.1z"/> 		<path style="fill:#1A171B;" d="M428.9,63.1h-1.8v-0.6c-0.3,0.2-0.6,0.4-0.8,0.5s-0.6,0.2-0.9,0.2c-0.7,0-1.2-0.3-1.6-0.8    c-0.4-0.5-0.6-1.2-0.6-2.1c0-0.5,0.1-0.9,0.2-1.2s0.3-0.7,0.6-0.9c0.2-0.2,0.5-0.4,0.8-0.6s0.6-0.2,0.9-0.2c0.3,0,0.6,0,0.8,0.1    c0.2,0.1,0.4,0.2,0.6,0.3v-2.3h1.8V63.1z M427.2,61.6v-2.7c-0.1-0.1-0.3-0.1-0.4-0.1s-0.3,0-0.4,0c-0.5,0-0.8,0.1-1,0.4    s-0.3,0.7-0.3,1.2c0,0.5,0.1,0.9,0.3,1.2c0.2,0.2,0.5,0.4,0.9,0.4c0.2,0,0.3,0,0.5-0.1C426.9,61.7,427,61.7,427.2,61.6z"/> 		<path style="fill:#1A171B;" d="M433.9,62.5c-0.1,0.1-0.2,0.2-0.4,0.3s-0.3,0.2-0.4,0.2c-0.2,0.1-0.4,0.1-0.5,0.2s-0.4,0.1-0.6,0.1    c-0.5,0-1-0.2-1.3-0.5s-0.5-0.7-0.5-1.2c0-0.4,0.1-0.7,0.3-1s0.4-0.5,0.8-0.6c0.3-0.1,0.7-0.3,1.2-0.3s1-0.1,1.5-0.1v0    c0-0.3-0.1-0.5-0.4-0.6s-0.6-0.2-1.1-0.2c-0.3,0-0.6,0.1-0.9,0.2S431,59,430.8,59h-0.2v-1.3c0.2,0,0.5-0.1,0.9-0.2    c0.4-0.1,0.8-0.1,1.3-0.1c1,0,1.7,0.2,2.2,0.5c0.4,0.3,0.7,0.8,0.7,1.4v3.7h-1.7V62.5z M433.9,61.6v-1.1c-0.2,0-0.5,0-0.8,0.1    c-0.3,0-0.5,0.1-0.6,0.1c-0.2,0.1-0.3,0.1-0.4,0.2c-0.1,0.1-0.1,0.2-0.1,0.4c0,0.1,0,0.2,0,0.3c0,0.1,0.1,0.1,0.1,0.2    c0.1,0.1,0.2,0.1,0.3,0.1s0.3,0,0.5,0c0.2,0,0.4,0,0.5-0.1C433.6,61.8,433.8,61.7,433.9,61.6z"/> 	</g> 	<g> 		<rect x="86.8" y="402.9" style="fill-rule:evenodd;clip-rule:evenodd;fill:none;" width="43.8" height="11"/> 		<path style="fill:#1A171B;" d="M97.5,405.5h-2.3v5.9h-1.9v-5.9h-2.3v-1.4h6.4V405.5z"/> 		<path style="fill:#1A171B;" d="M104,408.9h-4c0,0.4,0.2,0.8,0.5,1c0.3,0.2,0.7,0.3,1.3,0.3c0.4,0,0.7-0.1,1.1-0.2s0.6-0.3,0.8-0.4    h0.2v1.4c-0.4,0.2-0.8,0.3-1.1,0.3s-0.7,0.1-1.2,0.1c-1.1,0-1.9-0.2-2.5-0.7s-0.9-1.2-0.9-2.1c0-0.9,0.3-1.6,0.8-2.2    c0.6-0.5,1.3-0.8,2.3-0.8c0.9,0,1.6,0.2,2,0.7c0.4,0.5,0.7,1.1,0.7,1.9V408.9z M102.2,407.9c0-0.4-0.1-0.6-0.3-0.8    s-0.4-0.3-0.8-0.3c-0.3,0-0.6,0.1-0.8,0.3s-0.3,0.5-0.4,0.8H102.2z"/> 		<path style="fill:#1A171B;" d="M109.2,407.5H109c-0.1,0-0.2,0-0.4-0.1s-0.3,0-0.4,0c-0.3,0-0.5,0-0.7,0c-0.2,0-0.4,0.1-0.6,0.2    v3.7h-1.8v-5.5h1.8v0.8c0.4-0.3,0.7-0.6,1-0.7c0.3-0.1,0.5-0.2,0.8-0.2c0.1,0,0.1,0,0.2,0c0.1,0,0.1,0,0.2,0V407.5z"/> 		<path style="fill:#1A171B;" d="M115.7,411.4h-1.8v-0.6c-0.3,0.2-0.6,0.4-0.9,0.6c-0.3,0.1-0.6,0.2-1,0.2c-0.6,0-1.1-0.2-1.4-0.5    c-0.3-0.3-0.5-0.9-0.5-1.5v-3.6h1.8v2.7c0,0.3,0,0.5,0,0.7c0,0.2,0.1,0.3,0.1,0.5c0.1,0.1,0.2,0.2,0.3,0.3    c0.1,0.1,0.3,0.1,0.5,0.1c0.1,0,0.3,0,0.5-0.1s0.4-0.1,0.5-0.2v-3.9h1.8V411.4z"/> 		<path style="fill:#1A171B;" d="M122.7,408.9h-4c0,0.4,0.2,0.8,0.5,1c0.3,0.2,0.7,0.3,1.3,0.3c0.4,0,0.7-0.1,1.1-0.2    s0.6-0.3,0.8-0.4h0.2v1.4c-0.4,0.2-0.8,0.3-1.1,0.3s-0.7,0.1-1.2,0.1c-1.1,0-1.9-0.2-2.5-0.7s-0.9-1.2-0.9-2.1    c0-0.9,0.3-1.6,0.8-2.2c0.6-0.5,1.3-0.8,2.3-0.8c0.9,0,1.6,0.2,2,0.7c0.4,0.5,0.7,1.1,0.7,1.9V408.9z M121,407.9    c0-0.4-0.1-0.6-0.3-0.8s-0.4-0.3-0.8-0.3c-0.3,0-0.6,0.1-0.8,0.3s-0.3,0.5-0.4,0.8H121z"/> 		<path style="fill:#1A171B;" d="M125.7,411.4H124v-7.6h1.8V411.4z"/> 	</g> </g> <g id="text_bajo_aragon"> 	<g> 		<rect x="286.8" y="139.6" style="fill-rule:evenodd;clip-rule:evenodd;fill:none;" width="57.3" height="11"/> 		<path style="fill:#1A171B;" d="M293.8,148.1h-0.9v-6.3l-1.9,4.3h-0.5l-1.9-4.3v6.3h-0.9v-7.3h1.2l1.8,4l1.8-4h1.3V148.1z"/> 		<path style="fill:#1A171B;" d="M299.9,145.4h-3.8c0,0.3,0,0.6,0.1,0.9c0.1,0.2,0.2,0.5,0.4,0.6c0.2,0.2,0.4,0.3,0.6,0.4    s0.5,0.1,0.7,0.1c0.4,0,0.7-0.1,1.1-0.2c0.4-0.1,0.6-0.3,0.8-0.4h0v1c-0.3,0.1-0.6,0.2-0.9,0.3c-0.3,0.1-0.6,0.1-1,0.1    c-0.9,0-1.5-0.2-2-0.7s-0.7-1.2-0.7-2.1c0-0.9,0.2-1.6,0.7-2.1s1.1-0.8,1.8-0.8c0.7,0,1.2,0.2,1.6,0.6s0.6,1,0.6,1.8V145.4z     M299,144.7c0-0.5-0.1-0.9-0.3-1.1c-0.2-0.3-0.6-0.4-1-0.4c-0.5,0-0.8,0.1-1.1,0.4s-0.4,0.6-0.5,1.1H299z"/> 		<path style="fill:#1A171B;" d="M305.4,150.1h-0.9v-2.6c-0.3,0.2-0.5,0.4-0.8,0.5s-0.6,0.2-0.9,0.2c-0.6,0-1.1-0.3-1.5-0.7    c-0.4-0.5-0.5-1.2-0.5-2.1c0-0.5,0.1-0.9,0.2-1.2c0.1-0.4,0.3-0.7,0.5-0.9c0.2-0.2,0.4-0.4,0.7-0.6s0.6-0.2,0.9-0.2    c0.3,0,0.5,0,0.7,0.1s0.4,0.2,0.7,0.3l0.1-0.2h0.8V150.1z M304.5,146.7v-3.1c-0.2-0.1-0.5-0.2-0.6-0.2s-0.4-0.1-0.6-0.1    c-0.5,0-0.9,0.2-1.1,0.5c-0.3,0.4-0.4,0.9-0.4,1.5c0,0.6,0.1,1.1,0.3,1.5c0.2,0.3,0.5,0.5,1,0.5c0.3,0,0.5-0.1,0.8-0.2    C304.1,147,304.3,146.9,304.5,146.7z"/> 		<path style="fill:#1A171B;" d="M311.4,148.1h-0.9v-0.6c-0.3,0.2-0.6,0.4-0.8,0.6s-0.6,0.2-0.9,0.2c-0.5,0-1-0.2-1.3-0.5    c-0.3-0.4-0.5-0.9-0.5-1.5v-3.5h0.9v3.1c0,0.3,0,0.5,0,0.7c0,0.2,0.1,0.4,0.2,0.5c0.1,0.1,0.2,0.2,0.3,0.3    c0.1,0.1,0.3,0.1,0.6,0.1c0.2,0,0.5-0.1,0.7-0.2c0.3-0.1,0.5-0.3,0.7-0.5v-4.1h0.9V148.1z"/> 		<path style="fill:#1A171B;" d="M314,141.7h-1v-1h1V141.7z M314,148.1h-0.9v-5.5h0.9V148.1z"/> 		<path style="fill:#1A171B;" d="M320,148.1h-0.9V145c0-0.3,0-0.5,0-0.7c0-0.2-0.1-0.4-0.2-0.5c-0.1-0.1-0.2-0.2-0.3-0.3    s-0.3-0.1-0.6-0.1c-0.2,0-0.5,0.1-0.7,0.2c-0.3,0.1-0.5,0.3-0.7,0.5v4.1h-0.9v-5.5h0.9v0.6c0.3-0.2,0.6-0.4,0.8-0.6    s0.6-0.2,0.9-0.2c0.6,0,1,0.2,1.3,0.5c0.3,0.4,0.4,0.9,0.4,1.5V148.1z"/> 		<path style="fill:#1A171B;" d="M326,145.4h-3.8c0,0.3,0,0.6,0.1,0.9c0.1,0.2,0.2,0.5,0.4,0.6c0.2,0.2,0.4,0.3,0.6,0.4    s0.5,0.1,0.7,0.1c0.4,0,0.7-0.1,1.1-0.2c0.4-0.1,0.6-0.3,0.8-0.4h0v1c-0.3,0.1-0.6,0.2-0.9,0.3c-0.3,0.1-0.6,0.1-1,0.1    c-0.9,0-1.5-0.2-2-0.7s-0.7-1.2-0.7-2.1c0-0.9,0.2-1.6,0.7-2.1s1.1-0.8,1.8-0.8c0.7,0,1.2,0.2,1.6,0.6s0.6,1,0.6,1.8V145.4z     M325.1,144.7c0-0.5-0.1-0.9-0.3-1.1c-0.2-0.3-0.6-0.4-1-0.4c-0.5,0-0.8,0.1-1.1,0.4s-0.4,0.6-0.5,1.1H325.1z"/> 		<path style="fill:#1A171B;" d="M331.6,148.1h-0.9V145c0-0.3,0-0.5,0-0.7c0-0.2-0.1-0.4-0.2-0.5c-0.1-0.1-0.2-0.2-0.3-0.3    s-0.3-0.1-0.6-0.1c-0.2,0-0.5,0.1-0.7,0.2c-0.3,0.1-0.5,0.3-0.7,0.5v4.1h-0.9v-5.5h0.9v0.6c0.3-0.2,0.6-0.4,0.8-0.6    s0.6-0.2,0.9-0.2c0.6,0,1,0.2,1.3,0.5c0.3,0.4,0.4,0.9,0.4,1.5V148.1z"/> 		<path style="fill:#1A171B;" d="M337,148.1h-4.2v-0.7l3-4h-2.9v-0.8h4v0.7l-3,4h3.1V148.1z"/> 		<path style="fill:#1A171B;" d="M342.2,148.1h-0.9v-0.6c-0.1,0.1-0.2,0.1-0.3,0.2s-0.3,0.2-0.4,0.2c-0.1,0.1-0.3,0.1-0.5,0.2    s-0.4,0.1-0.7,0.1c-0.5,0-0.9-0.2-1.2-0.5c-0.3-0.3-0.5-0.7-0.5-1.2c0-0.4,0.1-0.7,0.3-1s0.4-0.5,0.7-0.6c0.3-0.1,0.7-0.2,1.1-0.3    c0.4-0.1,0.9-0.1,1.4-0.1v-0.1c0-0.2,0-0.4-0.1-0.5c-0.1-0.1-0.2-0.2-0.3-0.3c-0.1-0.1-0.3-0.1-0.4-0.2c-0.2,0-0.4,0-0.5,0    c-0.2,0-0.5,0-0.8,0.1c-0.3,0.1-0.6,0.2-0.9,0.3h0v-0.9c0.2,0,0.4-0.1,0.7-0.2c0.3-0.1,0.6-0.1,0.9-0.1c0.4,0,0.7,0,0.9,0.1    s0.5,0.2,0.7,0.3c0.2,0.1,0.3,0.3,0.4,0.6s0.2,0.5,0.2,0.9V148.1z M341.4,146.7v-1.5c-0.3,0-0.6,0-0.9,0.1s-0.6,0.1-0.9,0.1    c-0.2,0.1-0.5,0.2-0.6,0.3c-0.2,0.2-0.2,0.4-0.2,0.7c0,0.3,0.1,0.5,0.3,0.7s0.5,0.2,0.8,0.2c0.3,0,0.6-0.1,0.8-0.2    C340.9,147,341.2,146.9,341.4,146.7z"/> 	</g> 	<g> 		<rect x="142.6" y="208.1" style="fill-rule:evenodd;clip-rule:evenodd;fill:none;" width="29.7" height="11"/> 		<path style="fill:#1A171B;" d="M148.9,216.1c-0.2,0.1-0.3,0.2-0.5,0.2c-0.1,0.1-0.3,0.1-0.5,0.2c-0.2,0.1-0.4,0.1-0.6,0.2    s-0.5,0.1-0.7,0.1c-0.5,0-1-0.1-1.4-0.2c-0.4-0.1-0.8-0.4-1.1-0.7c-0.3-0.3-0.5-0.7-0.7-1.2c-0.2-0.5-0.3-1-0.3-1.7    c0-0.6,0.1-1.1,0.2-1.6s0.4-0.9,0.7-1.2c0.3-0.3,0.6-0.6,1.1-0.7c0.4-0.2,0.9-0.2,1.4-0.2c0.4,0,0.7,0,1.1,0.1    c0.4,0.1,0.8,0.3,1.2,0.5v1.1h-0.1c-0.4-0.3-0.8-0.6-1.1-0.7s-0.8-0.2-1.2-0.2c-0.3,0-0.7,0.1-0.9,0.2s-0.5,0.3-0.7,0.6    c-0.2,0.2-0.4,0.6-0.5,0.9c-0.1,0.4-0.2,0.8-0.2,1.3c0,0.5,0.1,1,0.2,1.3c0.1,0.4,0.3,0.7,0.5,0.9c0.2,0.2,0.5,0.4,0.8,0.5    c0.3,0.1,0.6,0.2,0.9,0.2c0.4,0,0.9-0.1,1.2-0.2s0.7-0.4,1.1-0.7h0.1V216.1z"/> 		<path style="fill:#1A171B;" d="M154.1,216.6h-0.9V216c-0.1,0.1-0.2,0.1-0.3,0.2s-0.3,0.2-0.4,0.2c-0.1,0.1-0.3,0.1-0.5,0.2    s-0.4,0.1-0.7,0.1c-0.5,0-0.9-0.2-1.2-0.5c-0.3-0.3-0.5-0.7-0.5-1.2c0-0.4,0.1-0.7,0.3-1s0.4-0.5,0.7-0.6c0.3-0.1,0.7-0.2,1.1-0.3    c0.4-0.1,0.9-0.1,1.4-0.1v-0.1c0-0.2,0-0.4-0.1-0.5c-0.1-0.1-0.2-0.2-0.3-0.3c-0.1-0.1-0.3-0.1-0.4-0.2c-0.2,0-0.4,0-0.5,0    c-0.2,0-0.5,0-0.8,0.1c-0.3,0.1-0.6,0.2-0.9,0.3h0v-0.9c0.2,0,0.4-0.1,0.7-0.2c0.3-0.1,0.6-0.1,0.9-0.1c0.4,0,0.7,0,0.9,0.1    s0.5,0.2,0.7,0.3c0.2,0.1,0.3,0.3,0.4,0.6s0.2,0.5,0.2,0.9V216.6z M153.2,215.2v-1.5c-0.3,0-0.6,0-0.9,0.1s-0.6,0.1-0.9,0.1    c-0.2,0.1-0.5,0.2-0.6,0.3c-0.2,0.2-0.2,0.4-0.2,0.7c0,0.3,0.1,0.5,0.3,0.7s0.5,0.2,0.8,0.2c0.3,0,0.6-0.1,0.8-0.2    C152.8,215.6,153,215.4,153.2,215.2z"/> 		<path style="fill:#1A171B;" d="M159.4,215c0,0.5-0.2,0.9-0.6,1.2c-0.4,0.3-0.9,0.5-1.6,0.5c-0.4,0-0.7,0-1-0.1s-0.6-0.2-0.8-0.3    v-1h0c0.3,0.2,0.6,0.4,0.9,0.5c0.3,0.1,0.7,0.2,1,0.2c0.4,0,0.7-0.1,0.9-0.2c0.2-0.1,0.3-0.3,0.3-0.6c0-0.2-0.1-0.4-0.2-0.5    s-0.3-0.2-0.7-0.3c-0.1,0-0.3-0.1-0.5-0.1c-0.2,0-0.4-0.1-0.5-0.1c-0.5-0.1-0.8-0.3-1-0.6s-0.3-0.5-0.3-0.9c0-0.2,0-0.4,0.1-0.6    s0.2-0.4,0.4-0.5c0.2-0.2,0.4-0.3,0.7-0.4c0.3-0.1,0.6-0.1,0.9-0.1c0.3,0,0.6,0,0.9,0.1s0.6,0.2,0.8,0.3v1h0    c-0.2-0.2-0.5-0.3-0.8-0.4c-0.3-0.1-0.6-0.2-0.9-0.2c-0.3,0-0.6,0.1-0.8,0.2s-0.3,0.3-0.3,0.6c0,0.2,0.1,0.4,0.2,0.5    c0.1,0.1,0.3,0.2,0.6,0.3c0.2,0,0.3,0.1,0.5,0.1s0.4,0.1,0.5,0.1c0.4,0.1,0.7,0.3,0.9,0.5C159.3,214.3,159.4,214.6,159.4,215z"/> 		<path style="fill:#1A171B;" d="M165.2,213.8c0,0.4-0.1,0.8-0.2,1.2c-0.1,0.4-0.3,0.7-0.5,0.9c-0.2,0.2-0.4,0.4-0.7,0.6    s-0.6,0.2-0.9,0.2c-0.3,0-0.5,0-0.7-0.1c-0.2-0.1-0.4-0.2-0.7-0.3v2.3h-0.9v-7.5h0.9v0.6c0.2-0.2,0.5-0.4,0.8-0.5    c0.3-0.1,0.6-0.2,0.9-0.2c0.6,0,1.1,0.2,1.5,0.7C165,212.2,165.2,212.9,165.2,213.8z M164.3,213.8c0-0.7-0.1-1.1-0.3-1.5    c-0.2-0.3-0.5-0.5-1-0.5c-0.2,0-0.5,0.1-0.8,0.2c-0.3,0.1-0.5,0.3-0.7,0.4v3.1c0.2,0.1,0.5,0.2,0.6,0.2s0.4,0.1,0.6,0.1    c0.5,0,0.9-0.2,1.1-0.5C164.2,215,164.3,214.5,164.3,213.8z"/> 		<path style="fill:#1A171B;" d="M170.9,214h-3.8c0,0.3,0,0.6,0.1,0.9c0.1,0.2,0.2,0.5,0.4,0.6c0.2,0.2,0.4,0.3,0.6,0.4    s0.5,0.1,0.7,0.1c0.4,0,0.7-0.1,1.1-0.2c0.4-0.1,0.6-0.3,0.8-0.4h0v1c-0.3,0.1-0.6,0.2-0.9,0.3c-0.3,0.1-0.6,0.1-1,0.1    c-0.9,0-1.5-0.2-2-0.7s-0.7-1.2-0.7-2.1c0-0.9,0.2-1.6,0.7-2.1s1.1-0.8,1.8-0.8c0.7,0,1.2,0.2,1.6,0.6s0.6,1,0.6,1.8V214z     M170,213.2c0-0.5-0.1-0.9-0.3-1.1c-0.2-0.3-0.6-0.4-1-0.4c-0.5,0-0.8,0.1-1.1,0.4s-0.4,0.6-0.5,1.1H170z"/> 	</g> 	<g> 		<rect x="353.9" y="194.7" style="fill-rule:evenodd;clip-rule:evenodd;fill:none;" width="29" height="11"/> 		<path style="fill:#1A171B;" d="M359.2,196.8h-3.5v2.1h3v0.9h-3v3.5h-0.9v-7.3h4.4V196.8z"/> 		<path style="fill:#1A171B;" d="M363.8,203.2h-0.9v-0.6c-0.1,0.1-0.2,0.1-0.3,0.2s-0.3,0.2-0.4,0.2c-0.1,0.1-0.3,0.1-0.5,0.2    s-0.4,0.1-0.7,0.1c-0.5,0-0.9-0.2-1.2-0.5c-0.3-0.3-0.5-0.7-0.5-1.2c0-0.4,0.1-0.7,0.3-1s0.4-0.5,0.7-0.6c0.3-0.1,0.7-0.2,1.1-0.3    c0.4-0.1,0.9-0.1,1.4-0.1v-0.1c0-0.2,0-0.4-0.1-0.5c-0.1-0.1-0.2-0.2-0.3-0.3c-0.1-0.1-0.3-0.1-0.4-0.2c-0.2,0-0.4,0-0.5,0    c-0.2,0-0.5,0-0.8,0.1c-0.3,0.1-0.6,0.2-0.9,0.3h0v-0.9c0.2,0,0.4-0.1,0.7-0.2c0.3-0.1,0.6-0.1,0.9-0.1c0.4,0,0.7,0,0.9,0.1    s0.5,0.2,0.7,0.3c0.2,0.1,0.3,0.3,0.4,0.6s0.2,0.5,0.2,0.9V203.2z M362.9,201.9v-1.5c-0.3,0-0.6,0-0.9,0.1s-0.6,0.1-0.9,0.1    c-0.2,0.1-0.5,0.2-0.6,0.3c-0.2,0.2-0.2,0.4-0.2,0.7c0,0.3,0.1,0.5,0.3,0.7s0.5,0.2,0.8,0.2c0.3,0,0.6-0.1,0.8-0.2    C362.5,202.2,362.7,202,362.9,201.9z"/> 		<path style="fill:#1A171B;" d="M369.9,197.8l-3,7.5h-0.9l1-2.3l-2.1-5.2h0.9l1.6,4l1.6-4H369.9z"/> 		<path style="fill:#1A171B;" d="M375.4,200.5c0,0.9-0.2,1.6-0.6,2.1s-1,0.8-1.7,0.8c-0.7,0-1.3-0.3-1.7-0.8s-0.6-1.2-0.6-2.1    s0.2-1.6,0.6-2.1s1-0.8,1.7-0.8c0.7,0,1.3,0.3,1.7,0.8S375.4,199.6,375.4,200.5z M374.5,200.5c0-0.7-0.1-1.2-0.4-1.6    s-0.6-0.5-1.1-0.5c-0.5,0-0.8,0.2-1.1,0.5s-0.4,0.9-0.4,1.6c0,0.7,0.1,1.2,0.4,1.6s0.6,0.5,1.1,0.5c0.5,0,0.8-0.2,1.1-0.5    C374.4,201.7,374.5,201.2,374.5,200.5z M374.4,195l-1.3,1.8h-0.7l0.8-1.8H374.4z"/> 		<path style="fill:#1A171B;" d="M381,203.2h-0.9v-3.1c0-0.3,0-0.5,0-0.7c0-0.2-0.1-0.4-0.2-0.5c-0.1-0.1-0.2-0.2-0.3-0.3    s-0.3-0.1-0.6-0.1c-0.2,0-0.5,0.1-0.7,0.2c-0.3,0.1-0.5,0.3-0.7,0.5v4.1h-0.9v-5.5h0.9v0.6c0.3-0.2,0.6-0.4,0.8-0.6    s0.6-0.2,0.9-0.2c0.6,0,1,0.2,1.3,0.5c0.3,0.4,0.4,0.9,0.4,1.5V203.2z"/> 	</g> 	<g> 		<rect x="42.1" y="216.1" style="fill-rule:evenodd;clip-rule:evenodd;fill:none;" width="43.3" height="11"/> 		<path style="fill:#1A171B;" d="M48.3,224.1c-0.2,0.1-0.3,0.2-0.5,0.2c-0.1,0.1-0.3,0.1-0.5,0.2c-0.2,0.1-0.4,0.1-0.6,0.2    s-0.5,0.1-0.7,0.1c-0.5,0-1-0.1-1.4-0.2c-0.4-0.1-0.8-0.4-1.1-0.7c-0.3-0.3-0.5-0.7-0.7-1.2c-0.2-0.5-0.3-1-0.3-1.7    c0-0.6,0.1-1.1,0.2-1.6s0.4-0.9,0.7-1.2c0.3-0.3,0.6-0.6,1.1-0.7c0.4-0.2,0.9-0.2,1.4-0.2c0.4,0,0.7,0,1.1,0.1    c0.4,0.1,0.8,0.3,1.2,0.5v1.1h-0.1c-0.4-0.3-0.8-0.6-1.1-0.7s-0.8-0.2-1.2-0.2c-0.3,0-0.7,0.1-0.9,0.2s-0.5,0.3-0.7,0.6    c-0.2,0.2-0.4,0.6-0.5,0.9c-0.1,0.4-0.2,0.8-0.2,1.3c0,0.5,0.1,1,0.2,1.3c0.1,0.4,0.3,0.7,0.5,0.9c0.2,0.2,0.5,0.4,0.8,0.5    c0.3,0.1,0.6,0.2,0.9,0.2c0.4,0,0.9-0.1,1.2-0.2s0.7-0.4,1.1-0.7h0.1V224.1z"/> 		<path style="fill:#1A171B;" d="M53.8,224.6H53v-3.1c0-0.3,0-0.5,0-0.7c0-0.2-0.1-0.4-0.2-0.5c-0.1-0.1-0.2-0.2-0.3-0.3    s-0.3-0.1-0.6-0.1c-0.2,0-0.5,0.1-0.7,0.2c-0.3,0.1-0.5,0.3-0.7,0.5v4.1h-0.9V217h0.9v2.7c0.3-0.2,0.6-0.4,0.8-0.6    s0.6-0.2,0.9-0.2c0.6,0,1,0.2,1.3,0.5c0.3,0.4,0.4,0.9,0.4,1.5V224.6z"/> 		<path style="fill:#1A171B;" d="M56.4,218.2h-1v-1h1V218.2z M56.4,224.6h-0.9v-5.5h0.9V224.6z"/> 		<path style="fill:#1A171B;" d="M62.6,221.8c0,0.4-0.1,0.8-0.2,1.2c-0.1,0.4-0.3,0.7-0.5,0.9c-0.2,0.2-0.4,0.4-0.7,0.6    s-0.6,0.2-0.9,0.2c-0.3,0-0.5,0-0.7-0.1c-0.2-0.1-0.4-0.2-0.7-0.3v2.3h-0.9v-7.5H59v0.6c0.2-0.2,0.5-0.4,0.8-0.5    c0.3-0.1,0.6-0.2,0.9-0.2c0.6,0,1.1,0.2,1.5,0.7C62.5,220.2,62.6,220.9,62.6,221.8z M61.7,221.8c0-0.7-0.1-1.1-0.3-1.5    c-0.2-0.3-0.5-0.5-1-0.5c-0.2,0-0.5,0.1-0.8,0.2c-0.3,0.1-0.5,0.3-0.7,0.4v3.1c0.2,0.1,0.5,0.2,0.6,0.2s0.4,0.1,0.6,0.1    c0.5,0,0.9-0.2,1.1-0.5C61.6,223,61.7,222.5,61.7,221.8z"/> 		<path style="fill:#1A171B;" d="M67.2,220.1L67.2,220.1c-0.2,0-0.3-0.1-0.4-0.1c-0.1,0-0.3,0-0.4,0c-0.3,0-0.5,0.1-0.8,0.2    c-0.3,0.1-0.5,0.3-0.7,0.5v3.9H64v-5.5h0.9v0.8c0.3-0.3,0.6-0.5,0.9-0.6c0.3-0.1,0.5-0.2,0.8-0.2c0.2,0,0.3,0,0.3,0    c0.1,0,0.2,0,0.3,0V220.1z"/> 		<path style="fill:#1A171B;" d="M71.9,224.6H71V224c-0.1,0.1-0.2,0.1-0.3,0.2s-0.3,0.2-0.4,0.2c-0.1,0.1-0.3,0.1-0.5,0.2    s-0.4,0.1-0.7,0.1c-0.5,0-0.9-0.2-1.2-0.5c-0.3-0.3-0.5-0.7-0.5-1.2c0-0.4,0.1-0.7,0.3-1s0.4-0.5,0.7-0.6c0.3-0.1,0.7-0.2,1.1-0.3    c0.4-0.1,0.9-0.1,1.4-0.1v-0.1c0-0.2,0-0.4-0.1-0.5c-0.1-0.1-0.2-0.2-0.3-0.3c-0.1-0.1-0.3-0.1-0.4-0.2c-0.2,0-0.4,0-0.5,0    c-0.2,0-0.5,0-0.8,0.1c-0.3,0.1-0.6,0.2-0.9,0.3h0v-0.9c0.2,0,0.4-0.1,0.7-0.2c0.3-0.1,0.6-0.1,0.9-0.1c0.4,0,0.7,0,0.9,0.1    s0.5,0.2,0.7,0.3c0.2,0.1,0.3,0.3,0.4,0.6s0.2,0.5,0.2,0.9V224.6z M71,223.3v-1.5c-0.3,0-0.6,0-0.9,0.1s-0.6,0.1-0.9,0.1    c-0.2,0.1-0.5,0.2-0.6,0.3c-0.2,0.2-0.2,0.4-0.2,0.7c0,0.3,0.1,0.5,0.3,0.7s0.5,0.2,0.8,0.2c0.3,0,0.6-0.1,0.8-0.2    C70.6,223.6,70.8,223.4,71,223.3z"/> 		<path style="fill:#1A171B;" d="M77.9,224.6H77v-3.1c0-0.3,0-0.5,0-0.7c0-0.2-0.1-0.4-0.2-0.5c-0.1-0.1-0.2-0.2-0.3-0.3    s-0.3-0.1-0.6-0.1c-0.2,0-0.5,0.1-0.7,0.2c-0.3,0.1-0.5,0.3-0.7,0.5v4.1h-0.9v-5.5h0.9v0.6c0.3-0.2,0.6-0.4,0.8-0.6    s0.6-0.2,0.9-0.2c0.6,0,1,0.2,1.3,0.5c0.3,0.4,0.4,0.9,0.4,1.5V224.6z"/> 		<path style="fill:#1A171B;" d="M83.5,224.6h-0.9V224c-0.1,0.1-0.2,0.1-0.3,0.2s-0.3,0.2-0.4,0.2c-0.1,0.1-0.3,0.1-0.5,0.2    s-0.4,0.1-0.7,0.1c-0.5,0-0.9-0.2-1.2-0.5c-0.3-0.3-0.5-0.7-0.5-1.2c0-0.4,0.1-0.7,0.3-1s0.4-0.5,0.7-0.6c0.3-0.1,0.7-0.2,1.1-0.3    c0.4-0.1,0.9-0.1,1.4-0.1v-0.1c0-0.2,0-0.4-0.1-0.5c-0.1-0.1-0.2-0.2-0.3-0.3c-0.1-0.1-0.3-0.1-0.4-0.2c-0.2,0-0.4,0-0.5,0    c-0.2,0-0.5,0-0.8,0.1c-0.3,0.1-0.6,0.2-0.9,0.3h0v-0.9c0.2,0,0.4-0.1,0.7-0.2c0.3-0.1,0.6-0.1,0.9-0.1c0.4,0,0.7,0,0.9,0.1    s0.5,0.2,0.7,0.3c0.2,0.1,0.3,0.3,0.4,0.6s0.2,0.5,0.2,0.9V224.6z M82.7,223.3v-1.5c-0.3,0-0.6,0-0.9,0.1s-0.6,0.1-0.9,0.1    c-0.2,0.1-0.5,0.2-0.6,0.3c-0.2,0.2-0.2,0.4-0.2,0.7c0,0.3,0.1,0.5,0.3,0.7s0.5,0.2,0.8,0.2c0.3,0,0.6-0.1,0.8-0.2    C82.2,223.6,82.5,223.4,82.7,223.3z"/> 	</g> 	<g> 		<rect x="250.9" y="253.1" style="fill-rule:evenodd;clip-rule:evenodd;fill:none;" width="32.9" height="11"/> 		<path style="fill:#1A171B;" d="M256.2,255.2h-3.5v2.1h3v0.9h-3v3.5h-0.9v-7.3h4.4V255.2z"/> 		<path style="fill:#1A171B;" d="M260.8,261.6h-0.9v-0.6c-0.1,0.1-0.2,0.1-0.3,0.2c-0.1,0.1-0.3,0.2-0.4,0.2    c-0.1,0.1-0.3,0.1-0.5,0.2c-0.2,0.1-0.4,0.1-0.7,0.1c-0.5,0-0.9-0.2-1.2-0.5c-0.3-0.3-0.5-0.7-0.5-1.2c0-0.4,0.1-0.7,0.3-1    c0.2-0.3,0.4-0.5,0.7-0.6c0.3-0.1,0.7-0.2,1.1-0.3c0.4-0.1,0.9-0.1,1.4-0.1v-0.1c0-0.2,0-0.4-0.1-0.5c-0.1-0.1-0.2-0.2-0.3-0.3    c-0.1-0.1-0.3-0.1-0.4-0.2c-0.2,0-0.4,0-0.5,0c-0.2,0-0.5,0-0.8,0.1c-0.3,0.1-0.6,0.2-0.9,0.3h0v-0.9c0.2,0,0.4-0.1,0.7-0.2    c0.3-0.1,0.6-0.1,0.9-0.1c0.4,0,0.7,0,0.9,0.1c0.3,0.1,0.5,0.2,0.7,0.3c0.2,0.1,0.3,0.3,0.4,0.6s0.2,0.5,0.2,0.9V261.6z     M259.9,260.3v-1.5c-0.3,0-0.6,0-0.9,0.1s-0.6,0.1-0.9,0.1c-0.2,0.1-0.5,0.2-0.6,0.3c-0.2,0.2-0.2,0.4-0.2,0.7    c0,0.3,0.1,0.5,0.3,0.7c0.2,0.2,0.5,0.2,0.8,0.2c0.3,0,0.6-0.1,0.8-0.2C259.5,260.6,259.7,260.5,259.9,260.3z"/> 		<path style="fill:#1A171B;" d="M267,258.9c0,0.5-0.1,0.9-0.2,1.2c-0.1,0.4-0.3,0.7-0.5,0.9c-0.2,0.3-0.5,0.5-0.7,0.6    c-0.3,0.1-0.5,0.2-0.9,0.2c-0.3,0-0.5,0-0.8-0.1c-0.2-0.1-0.4-0.2-0.6-0.3l-0.1,0.3h-0.8V254h0.9v2.7c0.2-0.2,0.5-0.4,0.8-0.5    c0.3-0.1,0.6-0.2,0.9-0.2c0.6,0,1.1,0.2,1.4,0.7C266.8,257.3,267,258,267,258.9z M266.1,258.9c0-0.7-0.1-1.1-0.3-1.5    c-0.2-0.3-0.5-0.5-1-0.5c-0.3,0-0.5,0.1-0.8,0.2c-0.3,0.1-0.5,0.3-0.7,0.4v3.1c0.2,0.1,0.5,0.2,0.6,0.2s0.4,0.1,0.6,0.1    c0.5,0,0.9-0.2,1.1-0.5C266,260.1,266.1,259.6,266.1,258.9z"/> 		<path style="fill:#1A171B;" d="M272.3,261.6h-0.9v-0.6c-0.1,0.1-0.2,0.1-0.3,0.2c-0.1,0.1-0.3,0.2-0.4,0.2    c-0.1,0.1-0.3,0.1-0.5,0.2c-0.2,0.1-0.4,0.1-0.7,0.1c-0.5,0-0.9-0.2-1.2-0.5c-0.3-0.3-0.5-0.7-0.5-1.2c0-0.4,0.1-0.7,0.3-1    c0.2-0.3,0.4-0.5,0.7-0.6c0.3-0.1,0.7-0.2,1.1-0.3c0.4-0.1,0.9-0.1,1.4-0.1v-0.1c0-0.2,0-0.4-0.1-0.5c-0.1-0.1-0.2-0.2-0.3-0.3    c-0.1-0.1-0.3-0.1-0.4-0.2c-0.2,0-0.4,0-0.5,0c-0.2,0-0.5,0-0.8,0.1c-0.3,0.1-0.6,0.2-0.9,0.3h0v-0.9c0.2,0,0.4-0.1,0.7-0.2    c0.3-0.1,0.6-0.1,0.9-0.1c0.4,0,0.7,0,0.9,0.1c0.3,0.1,0.5,0.2,0.7,0.3c0.2,0.1,0.3,0.3,0.4,0.6s0.2,0.5,0.2,0.9V261.6z     M271.5,260.3v-1.5c-0.3,0-0.6,0-0.9,0.1s-0.6,0.1-0.9,0.1c-0.2,0.1-0.5,0.2-0.6,0.3c-0.2,0.2-0.2,0.4-0.2,0.7    c0,0.3,0.1,0.5,0.3,0.7c0.2,0.2,0.5,0.2,0.8,0.2c0.3,0,0.6-0.1,0.8-0.2C271,260.6,271.3,260.5,271.5,260.3z"/> 		<path style="fill:#1A171B;" d="M277.2,257.2L277.2,257.2c-0.2,0-0.3-0.1-0.4-0.1c-0.1,0-0.3,0-0.4,0c-0.3,0-0.5,0.1-0.8,0.2    c-0.3,0.1-0.5,0.3-0.7,0.5v3.9H274v-5.5h0.9v0.8c0.3-0.3,0.6-0.5,0.9-0.6c0.3-0.1,0.5-0.2,0.8-0.2c0.2,0,0.3,0,0.3,0    c0.1,0,0.2,0,0.3,0V257.2z"/> 		<path style="fill:#1A171B;" d="M281.9,261.6h-0.9v-0.6c-0.1,0.1-0.2,0.1-0.3,0.2c-0.1,0.1-0.3,0.2-0.4,0.2    c-0.1,0.1-0.3,0.1-0.5,0.2c-0.2,0.1-0.4,0.1-0.7,0.1c-0.5,0-0.9-0.2-1.2-0.5c-0.3-0.3-0.5-0.7-0.5-1.2c0-0.4,0.1-0.7,0.3-1    c0.2-0.3,0.4-0.5,0.7-0.6c0.3-0.1,0.7-0.2,1.1-0.3c0.4-0.1,0.9-0.1,1.4-0.1v-0.1c0-0.2,0-0.4-0.1-0.5c-0.1-0.1-0.2-0.2-0.3-0.3    c-0.1-0.1-0.3-0.1-0.4-0.2c-0.2,0-0.4,0-0.5,0c-0.2,0-0.5,0-0.8,0.1c-0.3,0.1-0.6,0.2-0.9,0.3h0v-0.9c0.2,0,0.4-0.1,0.7-0.2    c0.3-0.1,0.6-0.1,0.9-0.1c0.4,0,0.7,0,0.9,0.1c0.3,0.1,0.5,0.2,0.7,0.3c0.2,0.1,0.3,0.3,0.4,0.6s0.2,0.5,0.2,0.9V261.6z     M281.1,260.3v-1.5c-0.3,0-0.6,0-0.9,0.1s-0.6,0.1-0.9,0.1c-0.2,0.1-0.5,0.2-0.6,0.3c-0.2,0.2-0.2,0.4-0.2,0.7    c0,0.3,0.1,0.5,0.3,0.7c0.2,0.2,0.5,0.2,0.8,0.2c0.3,0,0.6-0.1,0.8-0.2C280.6,260.6,280.8,260.5,281.1,260.3z"/> 	</g> 	<g> 		<rect x="308.4" y="240.2" style="fill-rule:evenodd;clip-rule:evenodd;fill:none;" width="41.9" height="11"/> 		<path style="fill:#1A171B;" d="M314.6,248.7h-1.1l-3.3-6.5v6.5h-0.9v-7.3h1.4l3,5.9v-5.9h0.9V248.7z"/> 		<path style="fill:#1A171B;" d="M320.7,246c0,0.9-0.2,1.6-0.6,2.1s-1,0.8-1.7,0.8c-0.7,0-1.3-0.3-1.7-0.8s-0.6-1.2-0.6-2.1    s0.2-1.6,0.6-2.1c0.4-0.5,1-0.8,1.7-0.8c0.7,0,1.3,0.3,1.7,0.8C320.5,244.4,320.7,245.1,320.7,246z M319.8,246    c0-0.7-0.1-1.2-0.4-1.6c-0.3-0.3-0.6-0.5-1.1-0.5c-0.5,0-0.8,0.2-1.1,0.5c-0.3,0.3-0.4,0.9-0.4,1.6c0,0.7,0.1,1.2,0.4,1.6    c0.3,0.4,0.6,0.5,1.1,0.5c0.5,0,0.8-0.2,1.1-0.5C319.7,247.2,319.8,246.7,319.8,246z"/> 		<path style="fill:#1A171B;" d="M326.4,248.7h-0.9v-3.1c0-0.3,0-0.5,0-0.7c0-0.2-0.1-0.4-0.2-0.5c-0.1-0.1-0.2-0.2-0.3-0.3    c-0.1-0.1-0.3-0.1-0.6-0.1c-0.2,0-0.5,0.1-0.7,0.2c-0.3,0.1-0.5,0.3-0.7,0.5v4.1h-0.9v-5.5h0.9v0.6c0.3-0.2,0.6-0.4,0.8-0.6    s0.6-0.2,0.9-0.2c0.6,0,1,0.2,1.3,0.5c0.3,0.4,0.4,0.9,0.4,1.5V248.7z"/> 		<path style="fill:#1A171B;" d="M332.1,248.7h-0.9v-0.6c-0.1,0.1-0.2,0.1-0.3,0.2c-0.1,0.1-0.3,0.2-0.4,0.2    c-0.1,0.1-0.3,0.1-0.5,0.2c-0.2,0-0.4,0.1-0.7,0.1c-0.5,0-0.9-0.2-1.2-0.5c-0.3-0.3-0.5-0.7-0.5-1.2c0-0.4,0.1-0.7,0.3-1    c0.2-0.3,0.4-0.5,0.7-0.6c0.3-0.1,0.7-0.2,1.1-0.3c0.4-0.1,0.9-0.1,1.4-0.1V245c0-0.2,0-0.4-0.1-0.5c-0.1-0.1-0.2-0.2-0.3-0.3    c-0.1-0.1-0.3-0.1-0.4-0.2c-0.2,0-0.4,0-0.5,0c-0.2,0-0.5,0-0.8,0.1c-0.3,0.1-0.6,0.2-0.9,0.3h0v-0.9c0.2,0,0.4-0.1,0.7-0.2    c0.3-0.1,0.6-0.1,0.9-0.1c0.4,0,0.7,0,0.9,0.1c0.3,0.1,0.5,0.2,0.7,0.3c0.2,0.2,0.3,0.3,0.4,0.6s0.2,0.5,0.2,0.9V248.7z     M331.2,247.4v-1.5c-0.3,0-0.6,0-0.9,0.1s-0.6,0.1-0.9,0.1c-0.2,0.1-0.5,0.2-0.6,0.3c-0.2,0.2-0.2,0.4-0.2,0.7    c0,0.3,0.1,0.5,0.3,0.7c0.2,0.2,0.5,0.2,0.8,0.2c0.3,0,0.6-0.1,0.8-0.2C330.7,247.7,331,247.6,331.2,247.4z"/> 		<path style="fill:#1A171B;" d="M337.4,247.1c0,0.5-0.2,0.9-0.6,1.2c-0.4,0.3-0.9,0.5-1.6,0.5c-0.4,0-0.7,0-1-0.1    c-0.3-0.1-0.6-0.2-0.8-0.3v-1h0c0.3,0.2,0.6,0.4,0.9,0.5c0.3,0.1,0.7,0.2,1,0.2c0.4,0,0.7-0.1,0.9-0.2c0.2-0.1,0.3-0.3,0.3-0.6    c0-0.2-0.1-0.4-0.2-0.5s-0.3-0.2-0.7-0.3c-0.1,0-0.3-0.1-0.5-0.1c-0.2,0-0.4-0.1-0.5-0.1c-0.5-0.1-0.8-0.3-1-0.6    c-0.2-0.2-0.3-0.5-0.3-0.9c0-0.2,0-0.4,0.1-0.6s0.2-0.4,0.4-0.5c0.2-0.2,0.4-0.3,0.7-0.4c0.3-0.1,0.6-0.1,0.9-0.1    c0.3,0,0.6,0,0.9,0.1c0.3,0.1,0.6,0.2,0.8,0.3v1h0c-0.2-0.2-0.5-0.3-0.8-0.4c-0.3-0.1-0.6-0.2-0.9-0.2c-0.3,0-0.6,0.1-0.8,0.2    c-0.2,0.1-0.3,0.3-0.3,0.6c0,0.2,0.1,0.4,0.2,0.5c0.1,0.1,0.3,0.2,0.6,0.3c0.2,0,0.3,0.1,0.5,0.1s0.4,0.1,0.5,0.1    c0.4,0.1,0.7,0.3,0.9,0.5C337.3,246.4,337.4,246.8,337.4,247.1z"/> 		<path style="fill:#1A171B;" d="M343.2,245.9c0,0.4-0.1,0.8-0.2,1.2c-0.1,0.4-0.3,0.7-0.5,0.9c-0.2,0.2-0.4,0.4-0.7,0.6    c-0.3,0.1-0.6,0.2-0.9,0.2c-0.3,0-0.5,0-0.7-0.1c-0.2-0.1-0.4-0.2-0.7-0.3v2.3h-0.9v-7.5h0.9v0.6c0.2-0.2,0.5-0.4,0.8-0.5    c0.3-0.1,0.6-0.2,0.9-0.2c0.6,0,1.1,0.2,1.5,0.7C343,244.4,343.2,245,343.2,245.9z M342.3,246c0-0.7-0.1-1.1-0.3-1.5    c-0.2-0.3-0.5-0.5-1-0.5c-0.2,0-0.5,0.1-0.8,0.2c-0.3,0.1-0.5,0.3-0.7,0.4v3.1c0.2,0.1,0.5,0.2,0.6,0.2s0.4,0.1,0.6,0.1    c0.5,0,0.9-0.2,1.1-0.5C342.2,247.1,342.3,246.6,342.3,246z"/> 		<path style="fill:#1A171B;" d="M348.8,246.1h-3.8c0,0.3,0,0.6,0.1,0.9c0.1,0.3,0.2,0.5,0.4,0.6c0.2,0.2,0.4,0.3,0.6,0.4    s0.5,0.1,0.7,0.1c0.4,0,0.7-0.1,1.1-0.2c0.4-0.1,0.6-0.3,0.8-0.4h0v1c-0.3,0.1-0.6,0.2-0.9,0.3c-0.3,0.1-0.6,0.1-1,0.1    c-0.9,0-1.5-0.2-2-0.7c-0.5-0.5-0.7-1.2-0.7-2.1c0-0.9,0.2-1.6,0.7-2.1s1.1-0.8,1.8-0.8c0.7,0,1.2,0.2,1.6,0.6s0.6,1,0.6,1.8    V246.1z M348,245.4c0-0.5-0.1-0.9-0.3-1.1c-0.2-0.3-0.6-0.4-1-0.4c-0.5,0-0.8,0.1-1.1,0.4s-0.4,0.6-0.5,1.1H348z"/> 	</g> 	<g> 		<rect x="226.2" y="318.4" style="fill-rule:evenodd;clip-rule:evenodd;fill:none;" width="31.2" height="11"/> 		<path style="fill:#1A171B;" d="M233.2,326.9h-0.9v-6.3l-1.9,4.3h-0.5l-1.9-4.3v6.3h-0.9v-7.3h1.2l1.8,4l1.8-4h1.3V326.9z"/> 		<path style="fill:#1A171B;" d="M239,326.9h-0.9v-0.6c-0.1,0.1-0.2,0.1-0.3,0.2c-0.1,0.1-0.3,0.2-0.4,0.2c-0.1,0.1-0.3,0.1-0.5,0.2    c-0.2,0.1-0.4,0.1-0.7,0.1c-0.5,0-0.9-0.2-1.2-0.5c-0.3-0.3-0.5-0.7-0.5-1.2c0-0.4,0.1-0.7,0.3-1c0.2-0.3,0.4-0.5,0.7-0.6    c0.3-0.1,0.7-0.2,1.1-0.3c0.4-0.1,0.9-0.1,1.4-0.1v-0.1c0-0.2,0-0.4-0.1-0.5c-0.1-0.1-0.2-0.2-0.3-0.3c-0.1-0.1-0.3-0.1-0.4-0.2    c-0.2,0-0.4,0-0.5,0c-0.2,0-0.5,0-0.8,0.1c-0.3,0.1-0.6,0.2-0.9,0.3h0v-0.9c0.2,0,0.4-0.1,0.7-0.2c0.3-0.1,0.6-0.1,0.9-0.1    c0.4,0,0.7,0,0.9,0.1c0.3,0.1,0.5,0.2,0.7,0.3c0.2,0.1,0.3,0.3,0.4,0.6s0.2,0.5,0.2,0.9V326.9z M238.2,325.5V324    c-0.3,0-0.6,0-0.9,0.1s-0.6,0.1-0.9,0.1c-0.2,0.1-0.5,0.2-0.6,0.3c-0.2,0.2-0.2,0.4-0.2,0.7c0,0.3,0.1,0.5,0.3,0.7    c0.2,0.2,0.5,0.2,0.8,0.2c0.3,0,0.6-0.1,0.8-0.2C237.7,325.8,237.9,325.7,238.2,325.5z"/> 		<path style="fill:#1A171B;" d="M245,324.2h-3.8c0,0.3,0,0.6,0.1,0.9c0.1,0.2,0.2,0.5,0.4,0.6c0.2,0.2,0.4,0.3,0.6,0.4    s0.5,0.1,0.7,0.1c0.4,0,0.7-0.1,1.1-0.2c0.4-0.1,0.6-0.3,0.8-0.4h0v1c-0.3,0.1-0.6,0.2-0.9,0.3c-0.3,0.1-0.6,0.1-1,0.1    c-0.9,0-1.5-0.2-2-0.7c-0.5-0.5-0.7-1.2-0.7-2.1c0-0.9,0.2-1.6,0.7-2.1s1.1-0.8,1.8-0.8c0.7,0,1.2,0.2,1.6,0.6s0.6,1,0.6,1.8    V324.2z M244.2,323.5c0-0.5-0.1-0.9-0.3-1.1c-0.2-0.3-0.6-0.4-1-0.4c-0.5,0-0.8,0.1-1.1,0.4s-0.4,0.6-0.5,1.1H244.2z"/> 		<path style="fill:#1A171B;" d="M247.2,326.9h-0.9v-7.6h0.9V326.9z"/> 		<path style="fill:#1A171B;" d="M249.8,326.9h-0.9v-7.6h0.9V326.9z"/> 		<path style="fill:#1A171B;" d="M255.5,326.9h-0.9v-0.6c-0.1,0.1-0.2,0.1-0.3,0.2c-0.1,0.1-0.3,0.2-0.4,0.2    c-0.1,0.1-0.3,0.1-0.5,0.2c-0.2,0.1-0.4,0.1-0.7,0.1c-0.5,0-0.9-0.2-1.2-0.5c-0.3-0.3-0.5-0.7-0.5-1.2c0-0.4,0.1-0.7,0.3-1    c0.2-0.3,0.4-0.5,0.7-0.6c0.3-0.1,0.7-0.2,1.1-0.3c0.4-0.1,0.9-0.1,1.4-0.1v-0.1c0-0.2,0-0.4-0.1-0.5c-0.1-0.1-0.2-0.2-0.3-0.3    c-0.1-0.1-0.3-0.1-0.4-0.2c-0.2,0-0.4,0-0.5,0c-0.2,0-0.5,0-0.8,0.1c-0.3,0.1-0.6,0.2-0.9,0.3h0v-0.9c0.2,0,0.4-0.1,0.7-0.2    c0.3-0.1,0.6-0.1,0.9-0.1c0.4,0,0.7,0,0.9,0.1c0.3,0.1,0.5,0.2,0.7,0.3c0.2,0.1,0.3,0.3,0.4,0.6s0.2,0.5,0.2,0.9V326.9z     M254.7,325.5V324c-0.3,0-0.6,0-0.9,0.1s-0.6,0.1-0.9,0.1c-0.2,0.1-0.5,0.2-0.6,0.3c-0.2,0.2-0.2,0.4-0.2,0.7    c0,0.3,0.1,0.5,0.3,0.7c0.2,0.2,0.5,0.2,0.8,0.2c0.3,0,0.6-0.1,0.8-0.2C254.2,325.8,254.4,325.7,254.7,325.5z"/> 	</g> </g> <g id="llegenda"> 	<line style="fill:none;stroke:#9A9A9A;stroke-width:2;stroke-miterlimit:10;" x1="220.6" y1="-230.1" x2="220.6" y2="-200.6"/> 	<g> 		<path d="M228.3-219.7h0.9v7.1h-0.9V-219.7z"/> 		<path d="M231.7-218.8c0,0.3-0.2,0.5-0.6,0.5c-0.3,0-0.5-0.2-0.5-0.5s0.2-0.5,0.5-0.5C231.4-219.4,231.7-219.1,231.7-218.8z     M230.7-212.6v-4.8h0.9v4.8H230.7z"/> 		<path d="M233-216.2c0-0.5,0-0.9,0-1.3h0.8l0,0.8h0c0.2-0.4,0.8-0.9,1.6-0.9c0.7,0,1.7,0.4,1.7,2.1v2.9h-0.9v-2.8    c0-0.8-0.3-1.4-1.1-1.4c-0.6,0-1,0.4-1.2,0.9c0,0.1-0.1,0.3-0.1,0.4v2.9H233V-216.2z"/> 	</g> 	<line style="fill:none;stroke:#696969;stroke-width:2;stroke-miterlimit:10;" x1="220.6" y1="-190.6" x2="220.6" y2="-161.1"/> 	<g> 		<path d="M228.3-180.1h0.9v7.1h-0.9V-180.1z"/> 		<path d="M231.7-179.2c0,0.3-0.2,0.5-0.6,0.5c-0.3,0-0.5-0.2-0.5-0.5s0.2-0.5,0.5-0.5C231.4-179.8,231.7-179.6,231.7-179.2z     M230.7-173.1v-4.8h0.9v4.8H230.7z"/> 		<path d="M233-176.6c0-0.5,0-0.9,0-1.3h0.8l0,0.8h0c0.2-0.4,0.8-0.9,1.6-0.9c0.7,0,1.7,0.4,1.7,2.1v2.9h-0.9v-2.8    c0-0.8-0.3-1.4-1.1-1.4c-0.6,0-1,0.4-1.2,0.9c0,0.1-0.1,0.3-0.1,0.4v2.9H233V-176.6z"/> 	</g> 	<rect x="215.2" y="-254.7" style="fill:#BFBFBF;" width="16.3" height="15.3"/> 	<rect x="215.2" y="-282.4" style="fill:#DCE9FB;" width="16.3" height="15.3"/> 	<g> 		<path d="M240.8-245.4v-4.2h-0.7v-0.7h0.7v-0.2c0-0.7,0.2-1.3,0.6-1.7c0.3-0.3,0.8-0.4,1.2-0.4c0.3,0,0.6,0.1,0.7,0.1l-0.1,0.7    c-0.1-0.1-0.3-0.1-0.6-0.1c-0.7,0-0.9,0.6-0.9,1.4v0.3h1.2v0.7h-1.2v4.2H240.8z"/> 		<path d="M247.8-247.8c0,1.8-1.2,2.6-2.4,2.6c-1.3,0-2.3-1-2.3-2.5c0-1.6,1.1-2.6,2.4-2.6C246.9-250.3,247.8-249.3,247.8-247.8z     M244-247.8c0,1.1,0.6,1.9,1.5,1.9c0.8,0,1.5-0.8,1.5-1.9c0-0.8-0.4-1.8-1.4-1.8C244.5-249.7,244-248.7,244-247.8z"/> 		<path d="M249-248.9c0-0.5,0-0.9,0-1.3h0.8l0.1,0.8h0c0.2-0.4,0.8-0.9,1.6-0.9c0.7,0,1.7,0.4,1.7,2.1v2.9h-0.9v-2.8    c0-0.8-0.3-1.4-1.1-1.4c-0.6,0-1,0.4-1.2,0.9c0,0.1-0.1,0.3-0.1,0.4v2.9H249V-248.9z"/> 		<path d="M254.4-246.3c0.3,0.2,0.7,0.3,1.2,0.3c0.6,0,0.9-0.3,0.9-0.7c0-0.4-0.3-0.6-0.9-0.9c-0.9-0.3-1.3-0.8-1.3-1.4    c0-0.8,0.6-1.4,1.7-1.4c0.5,0,0.9,0.1,1.2,0.3l-0.2,0.6c-0.2-0.1-0.5-0.3-1-0.3c-0.5,0-0.8,0.3-0.8,0.7c0,0.4,0.3,0.6,0.9,0.8    c0.8,0.3,1.3,0.7,1.3,1.4c0,0.9-0.7,1.5-1.8,1.5c-0.5,0-1-0.1-1.4-0.3L254.4-246.3z"/> 	</g> 	<g> 		<path d="M240.7-276.2c0-0.5,0-0.9,0-1.3h0.8l0,0.8h0c0.3-0.5,0.7-0.9,1.5-0.9c0.6,0,1.1,0.4,1.4,1h0c0.1-0.3,0.3-0.5,0.5-0.6    c0.3-0.2,0.6-0.3,1.1-0.3c0.6,0,1.6,0.4,1.6,2.1v2.8h-0.9v-2.7c0-0.9-0.3-1.5-1-1.5c-0.5,0-0.9,0.4-1,0.8c0,0.1-0.1,0.3-0.1,0.4v3    h-0.9v-2.9c0-0.8-0.3-1.3-1-1.3c-0.5,0-0.9,0.4-1.1,0.9c0,0.1-0.1,0.3-0.1,0.4v2.9h-0.9V-276.2z"/> 		<path d="M252.4-273.9c0,0.4,0,0.8,0.1,1.2h-0.8l-0.1-0.6h0c-0.3,0.4-0.8,0.7-1.5,0.7c-1,0-1.5-0.7-1.5-1.4c0-1.2,1-1.8,2.9-1.8    v-0.1c0-0.4-0.1-1.1-1.1-1.1c-0.5,0-0.9,0.1-1.3,0.4l-0.2-0.6c0.4-0.3,1-0.4,1.6-0.4c1.5,0,1.8,1,1.8,2V-273.9z M251.6-275.2    c-1,0-2,0.1-2,1.1c0,0.6,0.4,0.8,0.8,0.8c0.6,0,1-0.4,1.2-0.8c0-0.1,0-0.2,0-0.3V-275.2z"/> 		<path d="M253.8-276c0-0.6,0-1.1,0-1.5h0.8l0,1h0c0.2-0.6,0.8-1.1,1.3-1.1c0.1,0,0.2,0,0.2,0v0.8c-0.1,0-0.2,0-0.3,0    c-0.6,0-1.1,0.5-1.2,1.1c0,0.1,0,0.3,0,0.4v2.6h-0.9V-276z"/> 	</g> 	<circle style="fill-rule:evenodd;clip-rule:evenodd;fill:#5B7EBD;" cx="198.9" cy="-212.6" r="2.4"/> 	 		<rect x="190.8" y="-254.7" style="fill:#BFBFBF;stroke:#696969;stroke-width:2;stroke-miterlimit:10;" width="16.3" height="15.3"/> 	<rect x="166" y="-254.7" style="fill:#FFFBF0;stroke:#9A9A9A;stroke-width:2;stroke-miterlimit:10;" width="16.3" height="15.3"/> 	<rect x="168.9" y="-301.4" style="opacity:0.7;fill:#FFFBF0;" width="92.8" height="9.6"/> </g> </svg>