<svg xmlns="http://www.w3.org/2000/svg" xmlns:xlink="http://www.w3.org/1999/xlink" version="1.1" x="0px" y="0px" width="450px" height="450px" viewBox="0 0 450 450" style="enable-background:new 0 0 450 450;" xml:space="preserve"> <g id="Capa_7"> 	<rect style="fill:#BFBFBF;" width="450" height="450"/> </g> <g id="Mar"> 	<path style="fill:#DCE9FB;stroke:#696969;stroke-width:2;stroke-miterlimit:10;" d="M0,450c0-33.5,0.1-68.8,0-101.3   c8.6-6.1,27.1,2.2,31.3-3.8c1.7-2.6,7.8-3.6,13.2-5.8c-3.2,2.6,55.6-24.3,98.8-33.4c1.4-0.3,11.8,0.2,9.2,2.1   c1.7-4.1-1.9-2.5,1-4.3c-3.6,7.6,0.1,3.8,2.4,8.6c0.4-0.4-12.2,7.3-10.6,9.7c3.9,6,10.8-22,9.3-18.3c12.7-4,60.8-16.6,69.2-12.1   c3.6-11.6,29.6-24.2,45.6-25.1c3.7-4.4,58.1-7.8,57.8-7.9c4.7-1.3,46.2-17.7,46.3-17.7c0.5-0.1,35.5-13.5,38.5-16.3   c1.3-1.4,33.7-12.3,40.7-12.4c21.8-0.5-2.8,205.5-2.8,238C300,450,150,450,0,450L0,450z"/> </g> <g id="Limit_municipis"> 	<a> 		<path style="fill-rule:evenodd;clip-rule:evenodd;fill:#FFFBF0;stroke:#9A9A9A;stroke-width:2;stroke-miterlimit:10;" d="    M305.2,120.9c6.8,10.6-4.7,18.6,2.7,29.3c5.5,7.9,12,8.8,18.3,12.4c12.5,7.3,15.3,7,7.5,26.7c-1.2,3,1,5.7,1.5,6.5    c0,0-3.6,0.9-6.2,1.6c-4.8,1.3-6.8,6.5-6.4,12.1c-4.9,0.5-26.9-9.2-26.7,0.1c0.2,6.9-24.9-5.5-24-18.1c-19.3,7.7-4-28.9-19.6-23.4    c-10.2,3.6-7.6,4.6-18.9,1c-16.3-5.2-21.3-0.6-34.2,6.1c-15.9,8.2-20,20.2-29.1-2.3c-0.9-2.2-6.1-12.6-4.8-14.7    c4.7-7.7,11.1-5.6,18.9-10c-1.9-3.9-2.1-7.3,2.7-11.2c11.6-9.4-1.6-9.2,4.3-20.5c5.8-11.3,27.5-19.1,34.5-5.3    c2.1,4.2,35,4.7,41.5,5.8c9.2,1.6,27.4,10,35.7,3.5L305.2,120.9L305.2,120.9z"/> 	</a> 	<a> 		<path style="fill-rule:evenodd;clip-rule:evenodd;fill:#FFFBF0;stroke:#9A9A9A;stroke-width:2;stroke-miterlimit:10;" d="    M164.1,160.3c5.5,8.1,6.8,19.1,14.4,25.5c-30.2,7.7-9.3,24.3-28.4,26.6c-9.2,1.1-16.9-0.4-26.9-3c-7.9-2-15.3,6.5-30.6-3.3    c-1.5-0.9,0.7-17.9,16.8-35.2c1.9-2-2.6-7.4-2.6-7.5c13.1-21,31.1-10,50.2,0C158,158.6,160.5,162.2,164.1,160.3L164.1,160.3z"/> 	</a> 	<a> 		<path style="fill-rule:evenodd;clip-rule:evenodd;fill:#FFFBF0;stroke:#9A9A9A;stroke-width:2;stroke-miterlimit:10;" d="    M433.2,219.2c-6.8,1.5-19.1,1-19,8.9c-3.1,1.3-5.1,1.3-8.5,2.8c-6.4-4.9-30.3,15.9-29.3,9.8c-3.7,1.6-43.3,14-44.7,25.1    c-0.1,1-2.8,2.5-2.8,2.5c-7.9-6-12.9,1.9-23.2,2.5c-8.6-3.7-29.7-3-33.6,4.4c-2.4,0.1-4-1.8-3.7-1.9c-1.6-8.8-10.3-5.3-15.5,0.3    c-4.1-1.3-23.3,13.7-29,17.8c-4.5,1.6-28.2,0-32,6.4c-26.6,2.6-3.6-22.8,7.9-35.5c6.4,4.3,12.8,8.7,19.2,13    c6.3-16.7,17.2-28.6,31.8-38.3c10.8-7.3,44.4-7,36.3-25c10.8,0.3,6.1-6.5,13.5-7.2c8.8-0.7,12.8,5.6,22.1,4.6    c-1.4-19,23.1-9.8,31.2-16.2c3.4-2.7,2.1-9.3,9.3-6.7c11.4,4.1,13.1-0.2,21.4,0.8c5.7,0.7,7.1-10.5,13-11.7    c16-3.3,8.4,0.4,20.1,7.4c4.1,2.5,19.2,7.4,13.6,12.7C423.2,203.5,426.1,210.4,433.2,219.2C433,219.3,433.2,219.2,433.2,219.2z"/> 	</a> 	<a> 		<path style="fill-rule:evenodd;clip-rule:evenodd;fill:#FFFBF0;stroke:#9A9A9A;stroke-width:2;stroke-miterlimit:10;" d="    M173.9,299.6c-16-18.6-17.4-40.4-28.9-63.3c-15.7-31.3-18.5-24.2,5.1-23.8c14.3,0.3,5.8-11.1,14.5-19.8    c9.1-9.1,16.7-3.9,29.2-14.2c5.9-4.9,24.2-14.1,30.2-12.2c5.1,1.6,11.9,5.2,17.2,5.5c4.9,0.2,14.4-8.2,20-3.9    c4.7,3.7-6.7,29.1,10.8,23.6c-0.8,10.5,13.1,13.2,17,20c0.9,1.6,0.2,4.5-0.1,6.6c-1.5,8.7-18.5,11.9-26.8,15.6    c-20.7,9.1-34.9,19.5-43.2,41.7c-6.4-4.3-12.8-8.7-19.2-13c-6.5,13-22.2,17-19,35.3C177.4,295.6,175.3,299.4,173.9,299.6    L173.9,299.6z"/> 	</a> 	<a> 		<path style="fill-rule:evenodd;clip-rule:evenodd;fill:#FFFBF0;stroke:#9A9A9A;stroke-width:2;stroke-miterlimit:10;" d="    M174.2,300c-8.1,2.4-8.9-3.1-17.1,5.5c2,8-7.7,18.1-11.9,16.4c0,0,5.6-6.7,8-10.8c1.8-3.8-10.1,4.4-11.3,4.6    c-0.9-0.9-10.9-7.4-8.4-1.1c-1,0.2-2.1,0.5-3.1,0.7c-2.2-3.8-5.6-2.6-7.9,1.5c-13.7,5.4-39.9,10.2-40.4,11.4    c0.3,0.4,1.8-1.2-0.6,0.7c-6.3-25.8-12.5-51.5-18.8-77.3C59.6,238.9,85.8,200.4,99,207c11.7,5.9,19.8-1,29.7,3.3    c9.7,4.2,12.6,19.6,19.3,31.1C160.3,262.7,158.6,281.8,174.2,300C173.7,300.1,174.2,300,174.2,300z"/> 	</a> 	<a> 		<path style="fill-rule:evenodd;clip-rule:evenodd;fill:#FFFBF0;stroke:#9A9A9A;stroke-width:2;stroke-miterlimit:10;" d="    M31,341.1c-3.2-7.6-13.6-30.5,0.2-30.8c0.7,4.4,6.6,9.4,9.6,8.1c0,0,1.6-0.4,0.7-1.1c-14-11.2-5.1-29-11.6-40.3    c-9.6-16.7,18.7-20.5,32.5-26.1c6,24.5,17.7,54.5,18,78.4c2.4-1.4-2.5,2.4-4.3,3.8c-3.2,0.3-26.2,5.8-29.2,11.2    c-4.3,0-8.6,0.6-12.8,1.7c6.4-2,11-5.6,10.2-6.8c-2.1-0.2-5.9,3.8-9.8,5.4C36.1,342.4,34.5,339.7,31,341.1    C31,341.1,31.5,340.9,31,341.1z"/> 	</a> </g> <g id="Limit_comarcal"> 	<path style="fill-rule:evenodd;clip-rule:evenodd;fill:none;stroke:#696969;stroke-width:2;stroke-miterlimit:10;" d="M335.4,0.1   c-2.2,18.7,17.1,18.4,24.8,29.4c4,5.7,4.3,14.9,8.4,21.3c7.4,11.5,1.7,7.7-3.5,14.9c-3.1,4.4-10.5,11.9-16,11.5   c-17.5-1.2-6,5.2-11.7,9.6c-7.3,5.8-13.5,6.8-17.6,15.3c-3.9,8.3-4.9,17.7-14.6,18.7"/> 	<path style="fill-rule:evenodd;clip-rule:evenodd;fill:none;stroke:#696969;stroke-width:2;stroke-miterlimit:10;" d="M-0.3,191.7   c19.3-7.9,2.1-26.5,19.1-29.3L19,160c-6.4-6.4-12.8-2-19.3,1.1"/> 	<path style="fill-rule:evenodd;clip-rule:evenodd;fill:none;stroke:#696969;stroke-width:2;stroke-miterlimit:10;" d="M-0.3,226.7   c0.5-14,11-22.4,0-32.6"/> 	<path style="fill-rule:evenodd;clip-rule:evenodd;fill:none;stroke:#696969;stroke-width:2;stroke-miterlimit:10;" d="M-0.3,289.5   c15.7,1.8,13.7-15,25.9-21.7"/> 	 		<path style="display:none;fill-rule:evenodd;clip-rule:evenodd;fill:none;stroke:#85C329;stroke-width:2;stroke-linejoin:arcs;stroke-miterlimit:3.8637;" d="   M433.2,219.2c-0.2,0-0.4,0-0.6,0c-0.2-0.1-0.4,0.2-0.6,0.1c-0.2-0.2-0.5-0.1-0.7-0.1c-1.3,0.2-2.9,0.5-4.3,0.7   c-0.3,0.1-0.7,0.3-1,0.3c-0.8,0.3-1.7,0.2-2.4,0.5c-3.3,0.9-6.2,1.9-8.9,3.8c-0.5,0.5-1.3,1.2-1.3,1.6c0.1,0.2,0.1,0.7,0.2,0.9   l0.9,0.8l-0.3,0.3c-0.3-0.2-0.5-0.5-0.8-0.7c0,0-2,0.9-3.1,1.7c-0.7,0.5-1,0.8-1.6,1.3c-0.5,0.4-0.7,0.6-1.2,0.9   c-0.4,0.3-0.6,0.5-0.9,0.9c-0.3,0.3-0.6,0.4-1,0.4c-0.3,0-0.6,0.2-0.7,0c-0.1-0.2,0-0.3,0.1-0.4c0.2-0.3,0.8,0.2,1.1-0.1   c0.2-0.2,0.3-0.4,0.3-0.7l0.6-0.2c0.5-0.6,0.8-0.9,1.4-1.4c0.7-0.6,1.2-0.8,2-1.3c1-0.6,1.5-1,2.5-1.6l-0.9-2.3l-4.3,1.8l0.7,1.8   l-0.4,0.2l-0.7-1.8l-2.2,1l0.3,1.2l0.5-0.1l0.4,1.4l0.7,0l-1.2,0.6l-0.2,0.5l-0.3,0l0-0.7l0.5-0.3l-0.2-0.7l-0.4-0.3l-1.4,0.7   l0-0.3c0.1-0.1,0.1-0.3,0.2-0.3c0-0.1,0.1-0.2,0.1-0.3c-0.1-0.2-0.2-0.4-0.3-0.5c-0.5,0-1.3-0.6-1.9-0.3l-0.5-0.1   c-0.1,0-0.2,0.3-0.5,0.3c-1.1,1-2.5,1.5-3.8,2.3c-0.9,1-2.1,0.6-3.2,1.4c-0.3,0.1-0.5,0.2-0.8,0.2c-1-0.3-1.7,1.5-2.8,1.3   c-0.6,0-1.1,0.1-1.8,0.4c0,0,0.2-0.1,0,0c-0.5,0.5-1.5,0.3-2.1,0.9c-0.7,0.1-1.4,0.2-2.2,0.3l-0.7-0.1c-0.6-0.2-1.1,0.2-1.7,0.8   c-1.2,0.3-2.2,0.9-3.4,1.8c-0.4,0.6-0.7,1.3-1.1,1.9c-0.2,0.5-0.4,0.7-0.5,1.2c-0.4,1.3-0.6,2.9-1.4,4.1c-0.3,0.5-0.4,1-0.9,1.4   c-0.2,0.1-0.2,0.2-0.4,0.3c-0.4,0.2-0.7,0.3-1.2,0.1l-0.6,0l0-0.4l1.4,0c0.3-0.1,0.4-0.2,0.6-0.4c0.4-0.4,0.4-0.7,0.6-1.2   c0.7-1.5,1-2.4,1.3-4l-0.8-0.3l-0.3,1.3l-0.4-0.1l0.3-1.2l-0.8,0.2l-0.8,0.1l-0.3,0.5l0.6,0.4l-0.2,0.5l-0.9-0.5l-0.9,1.8l2.4,1.3   l-0.2,0.4l-2-1l-1.7,0.8l0.3-0.5c0,0,0.2,0,0.2-0.3c0,0,0-0.2-0.2-0.3l-0.4,0c-0.7,0.6-1.5,0.7-2.2,0.8c-0.4,0.7-1.5-1.7-2-1.5   l-0.3,0.1c-0.3-0.1-0.6,0.2-0.9,0.5l-0.5,0.1c-0.1-0.1-0.3-0.2-0.4-0.3c-0.1,0.3-0.6,0.2-0.9,0.3l-0.3,0.2   c-0.2,0.1-0.6,0.1-0.8,0.3c0.2-0.2-0.2-0.4-0.3-0.3c-0.9,0.5-1.2,1.5-2.1,2.2c-0.1,0-0.3,0-0.4,0c-0.6,0.5-1.3,0.2-1.8,0.8   c-0.4,0.3-0.8,0.3-1.1,0.4c0-0.1-0.1-0.2-0.3-0.4c-0.6-0.1-1,0.2-1.4,0.7c-0.9,0.2-1.4,2.4-2.4,2.9c-0.2,0.2-0.6,0.4-1,0.6   c-0.1,0-0.2,0-0.3,0c-1.8,0.7-3.7,0.6-5.2,2.1c-1.4,0.7-4.7,0.6-5.9,1.4c-0.9,0.5-1.9,0.6-2.7,1.1c-0.8,0.2-1.6,0.3-2.2,1   c-0.1-0.1-0.3-0.1-0.4-0.1c-0.1-0.1-0.3-0.2-0.3-0.2c-0.3,0.3-0.7,0.6-1,0.9c-0.2,0-0.4,0.4-0.5,0.4c0,0.1,0,0.3,0.1,0.5   c-0.1,0.4-0.1,0.7-0.1,1.1c0,0.7-0.9,1.5-1.5,1.8c-0.1,0.1-0.2,0.4-0.3,0.4c-0.1,0.1-0.2,0.2-0.3,0.3c-0.2,0.3-0.3,0.5-0.5,0.8   l1.8,2.9l-2.8,2.9l-0.2-0.4l0.3-0.2l0.5-0.1l0.4-0.4l0-0.4l0.6-0.5l0.4-0.1l0.6-0.6l-1.7-2.7c0,0-0.9,0-1,0   c-0.2,0.1-0.3,0.3-0.4,0.4c-0.2,0-0.3-0.1-0.4-0.1c-0.2,0.1-0.4,0.1-0.6,0.2c-0.3,0-0.4-0.3-0.6-0.4c-0.1,0.2-0.4,0.5-0.6,0.7   c-0.2-0.3-0.3-0.5-0.4-0.8c-0.6,0.1-1.1,0.2-1.7,0.4c-0.2,0.1-0.4,0.1-0.5,0.2c-0.4,0.1-0.3,0.4-0.5,0.8c0,0.2,0,0.4,0.1,0.6   c-0.2,0.2-0.4,0.5-0.4,0.9c0,0.1,0.1,0.2,0.2,0.3c-0.1,0.2-0.2,0.4-0.1,0.5c0,0.3,0,0.6,0,0.9c-0.3,0.1-0.5,0.4-0.7,0.5   c-0.2,0.2-0.4,0.5-0.5,0.8c-0.3,0.1-0.7,0.2-1.1,0.3c-0.2,0.1-0.5,0.3-0.7,0.5c-0.1-0.1-0.3-0.1-0.4-0.1l-0.5-0.3   c-0.5,0.4-1,0.5-1.7,0.4c-0.5,0.3-1.5,0.2-1.7,1.3c-0.2,0.2-0.3,0.3-0.6,0.5c-0.3-0.1-0.6-0.3-1-0.4c-0.2,0.2-0.4,0.5-0.6,0.7   c-0.8,0.2-1.6,0.3-2.8-0.3c-0.2-0.2-0.5,0.1-1,0.1c-0.2,0-0.3-0.1-0.7,0.1c-0.4,0.3-0.9-0.1-1.1,0.1c-0.2,0-0.5,0.1-0.6,0.1   c-0.2-0.1-0.4-0.2-0.8-0.5l-0.4-0.6c-0.4-0.2-0.8-0.4-1.2-0.5c-0.6,0.1-1.1,0.2-1.7,0.3c-0.4,0.7-1.1,0.2-1.5,0.7   c-0.3,0.2-0.7,0.5-1,0.8c-0.2,0.1-0.5,0-0.4-0.2l-0.3-0.4c-0.5-0.4-1.2-0.5-1.8-0.3c-0.2,0.5-0.5,0.8-0.8,0.9c0,0-0.3,0.1-0.5,0   c-0.2,0-0.4-0.1-0.4-0.1c0-0.4,0-0.9,0-1.3c0-0.1,0-0.3-0.5-0.3c0,0-0.1,0-0.3,0.3c-0.5,0.7-1.1,1.1-1.7,1.1l-0.3-0.4   c-0.1-0.2-0.5-0.1-0.5-0.3l-0.3-0.6c-0.3,0-0.5,0-0.8,0c-0.2,0-0.4,0.1-0.6,0.2c-0.3,0-0.5,0-0.8,0c-0.2-0.1-0.3-0.2-0.4-0.3   c-0.3-0.6-0.8-0.3-1.2-0.4c-0.9-0.3,0.3,0.1-0.6-0.3c-0.4,0.2-1-0.5-1.3,0.2c-0.3,0-0.6,0-0.9,0c-0.1-0.1-0.2-0.3-0.3-0.4   c-0.7,0-1.3-0.1-2-0.1c-0.4,0.2-0.8,0.2-1.1,0c0-0.2,0.1-0.3,0.2-0.4c0.2,0,0.4-0.5,0.4-0.7c-0.2-0.1-0.3-0.1-0.5-0.1   c-0.2,0.1-0.4,0.3-0.9,0.5c-0.3-0.1-2.8-1.8-3.1-1.9c-0.2,0-0.4,0.1-0.6,0.2c-0.4,0.3-0.7,0.3-1.1,0.9c-0.1,0.5-0.1,1-0.2,1.5   c-0.2,0.1-0.4,0.2-0.5,0.3c-0.1,0-0.4,0.1-0.3,0.4c0.1,1,0.1,2,0.2,3c-0.2,0-0.3,0.2-0.3,0.2c-1,0.4-1.8,0.9-2.8,1.5l-0.5,0.5   l-0.5-0.1l-0.2-0.6l0.8-0.7l0.3,0.5l2.7-1.5l-0.2-2l-1.5-1l-5.4,0.5l0.2,2.3l4-0.3l-0.1-0.5l0.8-0.1l0.1,1l-5.3,0.4l-0.2-3   l-0.1-0.3c0.1-0.1,0.2-0.3,0.3-0.4c0-0.3-0.1-0.5-0.1-0.8l-0.6-0.7c-0.2,0-0.4,0-0.7,0.1c-0.3-0.1-0.5-0.3-0.7-0.4   c-0.5,0.1-1.1,0.1-1.6,0.2c-0.3,0.2-0.5,0.4-1,0.5l-0.2-0.3c-0.2,0-0.3-0.1-0.5-0.1c-0.2-0.1-0.3,0-0.4,0.2   c-0.3-0.1-0.5-0.2-0.8-0.2c-0.1,0.1-0.3,0.3-0.4,0.4c-0.1,0-0.2,0.1-0.6,0.1c-0.3-0.1-0.5-0.2-0.7-0.3c-0.7,0.3-1.6,0.4-2.2,0.7   c-0.3,0.2-0.4,0.4-0.3,0.6l0.2,0.4c0.1,0.3-0.1,0.6-0.3,0.6c-0.1,0-0.3,0-0.4,0c-0.3,0.1-0.5,0.3-0.8,0.5c-0.6,0.1-1.1,0.5-1.6,0.5   c-0.2,0.2-0.3,0.4-0.5,0.6c-0.5,0.4-0.8,1-1.4,1.6c-0.7-0.2,0.3-0.9,0.3-1.2l-0.3-0.4c-0.3-0.3-0.5-0.3-0.5-0.4   c-0.1,0-0.2,0-0.3,0.1c-0.1,0.1-0.3-0.2-0.3-0.2c-0.2,0.3,0,0.8,0,1.1c-0.1,0.1-0.2,0.2-0.3,0.2c-0.2-0.3,0-1.1-0.3-1.4   c-0.1-0.1-0.5,0-0.8,0.1c-0.6,0.3-1.1,0.5-1.7,0.8c-0.3,0.2-0.6,0.4-0.8,0.4c-0.1,0.1-0.2,0.3-0.3,0.5l0.2,0.9l-0.1,0.1   c-0.2-0.3-0.5-0.7-0.7-0.9c-0.6,0.2-1.2,0.4-1.8,0.6c-0.7,0.6-1.7,0.8-1.9,1.6c0.2,0.2,0.2,0.5,0.4,0.7c0,0.4-0.1,0.2-0.2,0.5   c-0.2-0.4-0.4-0.9-0.9-1.4c-0.6,0.3-1.2,0.6-1.8,0.9c-0.2,0.2-0.4,0.3-0.6,0.4c-0.8-0.1-1.3,0.9-2.1,1.2c-0.1,0.4-0.1,0.9,0.2,1   c-0.1,0.2-0.4,0-0.4,0l-0.2-0.5c-0.2-0.1-0.4-0.3-0.6-0.4c-0.3,0.1-0.6,0.2-0.9,0.3c-0.6,0.4-1.3,0.3-1.8,1.2   c-0.3,0.3-0.9,0.4-1.2,1.1c0.1,0.1,0,0.6,0.1,0.7c0.1,0.1,0.3,0.2,0.4,0.3c0,0.2,0.4,0,0.2,0.3c-0.1,0.1-0.3,0.2-0.4,0.3   c-0.3,0.2-0.6,0.6-1,0.7c-0.4-0.1,0.1-0.6,0.3-0.6c0.3-0.1,0.5-0.3,0.4-0.5c-0.2-0.2-0.6-0.5-0.8-0.7c-0.3,0-0.6,0-0.8,0   c-0.3,0.1-0.5,0.3-0.7,0.4c-0.3,0.2-0.2,0.5-0.5,0.6c-0.2,0-0.4,0-0.6,0c-0.2,0.2-0.3,0.4-0.4,0.7c-0.2,0-0.5,0.1-0.7,0.1   c-0.2,0.3-0.4,0.5-0.6,0.8l0.2,0.8c0.2,0.1,0.5,0.2,0.7,0.4c0.3-0.4,0.5-0.4,1.1-0.5c-0.4,0.4-0.8,0.8-1.2,1.2   c-0.4,0.1-0.7,1.2-1.1,0.6c0.1-0.2,0.5-0.4,0.5-0.7c0-0.1-0.3-0.3-0.2-0.4c-0.2-0.1-0.3-0.5-0.5-0.6c-0.2-0.1-0.5,0.1-0.7-0.1   c-0.4,0.3-0.8,0.7-1.2,1.1c0,0.1,0,0.3,0,0.4c0.1,0.3-0.4,0.5-0.7,0.7c-0.1,0.3-0.4,0.4-0.4,0.6l0.1,0.5c-0.5,0.2,0,0.5-0.4,0.9   c0.2,0.1,0.4,0.2,0.6,0.3c0-0.4,0.1-0.4,0.5-0.3c-0.2,0.8-0.8,1.7-1.5,2.5c-0.7-0.4,0.6-0.8,0.4-1.3c-0.3-0.3-0.6-0.4-0.8-0.4   c-0.2,0.1-0.5,0.2-0.7,0.4c-0.4,0.3-0.3,0.7-0.1,1c0.3,0.2,0.4-0.4,0.8,0c-0.2,0.3-0.6,0.5-0.9,0.5c-0.9-0.4-0.7-0.8-1-1.5   c-0.1-0.1-0.2-0.7-0.3-0.7c-0.2,0-0.3,0-0.5,0.1c-1.2,1-2.7,0.4-3.8,1.9c-0.1-0.1-0.4-0.2-0.4-0.2c-0.4,0-0.8,0.1-1.2,0.2   c-0.6,0.3-1.3-0.7-2-0.7c-0.2,0-0.5,0-0.7,0.1c-1.1-0.7-1.7,0.2-2.5-0.2c-0.2,0-0.4,0.1-0.5,0.2c-0.5-0.1-0.9,0-1.2,0   c-0.4,0.1-0.7,0.4-0.8,0.3c-0.5,0.4-0.2,1.4-0.6,1.4c-0.4-0.1,0.1-1-0.5-0.9c-0.7,0-1.4,0.5-1.9,0.8c-0.3,0.4-0.5,0.4-0.5,0.5   c-0.3,0-0.5,0.1-0.8,0.2c-0.3-0.1-0.5,0-0.5,0c-0.3,0.1-0.5,0.3-0.8,0.4c-0.3,0.3-0.7,0.8-0.8,1.3c-0.2,0-0.3,0-0.5,0.1   c-0.1,0.1-0.1,0.2-0.2,0.6c-0.5-0.1-1.2-0.2-1.8-0.1c0.1-0.2,0.1-0.4,0.1-0.9c-0.2,0.1-0.4,0.1-0.7,0.2c-0.1,0.3-0.4,0.2-0.5,0.3   l-1.1-0.2c-0.4,0.2-0.7,0.3-1.1,0.5c-0.1,0.1-0.2,0.2-0.4,0.3l-0.2,0.8c0.1,0.2,0.1,0.3,0.1,0.5c-0.1,0.3-0.3,0.5-0.4,0.8l-1.3-0.1   c-0.2,0-0.4-0.4-0.5-0.4l-0.8,0.1l-0.4-0.2l-2.1,0.7c0.3,0.2,0.1,0.7-0.2,0.6l-0.5,0.1c0,0.1-0.2,0.3-0.1,0.3l0.2,0.4   c0.1,0,0,0.3-0.2,0.2l-0.9,0c-0.4-0.4-0.8,0.1-1.4-0.4c0.1-0.2,0.2-0.4,0.3-0.6l-0.5-0.4c-0.4-0.4-0.8-0.1-1.2-0.3   c-0.2,0.2-0.1,0.4-0.2,0.3l-1.4,0.1c-0.2-0.1-0.4-0.2-0.7-0.2c-0.2,0.1-0.5,0.2-0.7,0.3l-0.7-0.4c-0.4,0.1-0.6-0.4-0.9-0.3l-1.2,0   c-0.4,0-0.7-0.1-0.7-0.3l-0.7-0.1c-0.6,0.2-1.2,0.3-1.8,0.3c-0.2,0.2-0.4,0.5-0.8,0.8l0.1,0.3c-0.3,0.6-0.7,1.2-0.9,1.4   c-0.6,0.1-0.8,0.7-1.2,0.7l-1.9-0.1c-0.3-0.1-0.6-0.2-0.6-0.2c-0.1-0.3-0.2-0.7-0.4-1l-0.7-0.1c-0.5,0.3-1.3,0-1.7,0.7l-0.3,0   c-0.4-0.4-1-0.4-1.2-0.4c-0.1,0-0.3,0.1-0.7,0.1c-0.1,0.1-0.3,0.2-0.4,0.3l-0.8,0.1l-0.4,0l-0.5,0.3c-0.1,0,0-0.1-0.3-0.1   c-0.4,0.1-0.6,0.7-0.8,0.9c-0.1,0.1-0.2,0.1-0.4,0.2c-0.1,0.2-0.3,0.3-0.5,0.5l-0.5,0.2c-1.2,1.1-2.4,1.7-3.5,2.6   c-0.5,0.9-1.1,1.2-1.7,1.9l0,0l-1-2.9l-0.4,0.2l2.6,9.5l-4.9,1.5c0,0.7,0,1.2-0.3,1.8c-0.2,0.7-0.5,1-0.9,1.6   c-0.6,0.8-1.1,1.1-1.9,1.7c-0.8,0.6-1.3,0.9-2.2,1.4l-0.7,0.4c0.1,0.2,0.1,0.4-0.1,0.6c-0.2,0.3-0.8,0.2-1-0.1   c-0.2-0.3-0.1-0.6,0.1-0.9c0.2-0.2,0.5-0.2,0.8,0c1.4-0.7,2.2-1.2,3.3-2.3c0.8-0.7,1.3-1,1.8-2c0.4-0.9,0.4-1.5,0.4-2.4   c0-0.8-0.1-1.2-0.3-2l0.6-0.2l0.3,1.3l3.7-1.2l-0.9-3.2l-3.3,1l-0.1-0.7l3.2-1l-1.3-4.6l-0.6,0.1l0.2,0.5l-1.6,0.3l1,3.4l-1,0.4   l-1.2-3.6l-1.7,0.6l-1.5,0.1l-0.1-0.8l-3.7,1.1l0.3,1.6l3.5-1l0.2,0.8l-3.3,0.9l1.5,6.4l1.7-0.5c0-0.1,0-0.3,0.1-0.4   c0.2-0.2,0.5-0.1,0.6,0.1c0.1,0.2-0.1,0.4-0.3,0.5c-0.2,0.2-0.3,0.1-0.6,0.2c-0.7,0.3-1.1,0.4-1.8,0.6l-1.3,0.1l0.1,0.5l1.5,2.2   l-0.3,0.2l-2-2.6c0,0-0.7-1.1-0.6-1.8c0.1-0.5,0.6-0.6,0.7-1.1c0.1-0.6-0.5-1.1-0.4-1.4c-0.9-0.8-1-0.7-2.1-1   c-3.3-0.3-5.9-0.6-8.4,1.4c-0.3,0.3-0.3,0.4-0.5,0.9c0,0.4-0.1,0.7-0.1,1c0,0.3,0,0.6,0.1,0.7l0.1,0.4l1.5-0.3l0.1,0.3l-3.1,0.7   l-0.1-0.4l1.3-0.3l-0.1-0.4c0.1-0.3,0-0.4-0.1-0.6c-0.3-0.3-0.6-0.6-0.8-0.9c-0.3,0-0.3-0.6-0.6-0.7l-1.2-0.4   c-1,0.3-2.3-0.2-3.1,0.7c-0.3,0.4-0.5,0.7-0.8,1l-0.2,0.2l-0.4,0c-0.1,0.1-0.2,0.2-0.4,0.3l-0.7-0.1c0,0-0.5,0.3-0.7,0.4   c-0.3,0.3-0.8,0.7-1.3,1.6l0.2,0.4l1,0.3l0,0.3l-1.2-0.3l-0.3-0.6c-0.1,0-0.2,0-0.3,0c-0.4,0.1-0.9,0.3-1.3,0.4   c-0.5,0.6-1,0.8-1.1,1.4c-0.1,0.1-0.2,0.1-0.4,0.2c-0.1,0.2-0.2,0.4-0.3,0.6c-0.8,0.2-1.2,1-1.9,0.7l-0.5,0.2l-0.8-0.2   c-0.9-0.5-2,0-2.7-0.6c-0.5-0.2-0.7-0.2-1-0.3c-0.2,0.2-0.4,0.4-0.7,0.5c0.1-0.2-0.4-0.4-0.3-0.9l-0.5-0.1   c-0.7,0.3-1.6-0.1-2.1,0.1c-0.3,0-0.6-0.2-0.9-0.1c-0.3,0,0.1,1-0.2,1.1c-0.7-0.1-4.9-1.3-5.5-1.2c-0.2,0.1-0.3,0.3-0.5,0.4   c-1.1,0.3-1.9,1.4-2.8,1.5l0.2,1.1l-0.3,0.1l-0.2-1c-1,0-1.8,0.8-2.9,0.8c-0.1,0-0.2,0.1-0.3,0.2l0,1.3l-0.3,0l-0.3-1.1   c-0.4,0.1-1,0.4-1.6,0.6c-0.8-0.1-1.4,0.5-2.1,0.8c-0.6,0.6-1.2,0.6-1.8,1.1l-0.4,0.2l0.5,1.3l-1.2,0.5l0.5-0.4l-0.1-0.3   c0-0.1-0.1-0.2-0.1-0.3l-0.4-0.2c-0.5-0.1-1,0.1-1.4,0.7c-0.2,0.2-0.4,0.3-0.6,0.5c0.2,0-0.4,0.5-0.1,0.6c0.1,0.1,0.2,0.1,0.3,0.4   l0.4-0.3l0.2,0.3l-2,1.2l-0.1-0.3l0.3-0.4c0.3-0.1-0.2-0.2-0.2-0.3c-0.2-0.1-0.3-0.3-0.5-0.4c-0.2,0.2-0.4,0.1-0.6,0.3   c-0.1,0.1-0.3,0.2-0.5,0.3c0,0.2,0,0.4,0,0.6c0,0,0-0.2,0,0c0.1,0.1,0.3,0.5,0.2,0.7l0.4-0.2l0.2,0.3l-2.1,1.1l0-0.1l0.3-0.1   l0.2-0.4c0-0.1-0.1-0.3-0.2-0.4c0-0.1-0.2,0-0.4-0.2l-0.5-0.1c-0.4,0.1-0.6,0.3-0.8,0.5c-0.5,0.3-0.1,0.6-0.4,0.8   c-0.1,0.3-0.2,0.4-0.3,0.9c0.1,0.1,0.1,0.2,0.3,0.4c0.1,0.1,0.4-0.1,0.5-0.3l0.1,0.3l-1,0.7l-0.6-0.8l-0.3-0.3l-0.4,0   c-0.5,0.3-1,0.8-1.5,1.3l0.2,0.7l0.6,0.7l-0.1,0.1l-0.6-0.6l-0.4-0.7c-0.4-0.1-0.7,0.5-1.2,0.5c-0.5,0-0.7,0.8-1.3,0.7l-0.8,0.6   c-0.4,0.2-0.6,0.4-1,0.5c-0.3,0.1-0.9,0.3-0.9,0.3l-1.4,0.1l-0.1,0.4c-0.5,0.3,0.2,0.6-0.3,0.7c0-0.2-0.1-0.5-0.2-0.8   c0,0-7.2,2.3-7.7,2.3c-2-0.1-3.7,0.6-5.4,1.2c-1.6-0.1-2.7,0.7-4.2,1.1c-0.4,0.2-1,0-1.3,0.6c0,0.1,0.1,0.2,0.2,0.3   c-0.4-0.1-0.4-0.3-0.6-0.4l0.7-0.2c-0.1,0.2-0.2,0.5-0.1,0.6c-0.3,0-0.6-0.1-0.6-0.4c-0.3-0.2-0.9-1.4-0.7-0.3   c0.1,0.2,0.3,0.4,0.4,0.7c0.3,0.1,0.1,0.4,0.3,0.5c-0.2,0.1-0.3,0-0.4-0.2c-0.8-0.3-1.3,0.3-1.9,0.5c-0.2,0.3-0.5,0.7-0.7,1   c-0.1,0.5-0.3,1-0.2,1.4l0.5,0.2c0.3,0,0.5-0.1,1,0.1c0,0.1,0,0.2,0,0.4c-1.9,0-3.8,0.3-5.6,0.3c-2.3,0.4-4.7,0.9-7.2,1.3l-0.1-0.3   l7.1-1.4c0.5-0.2,0.7-0.4,1.1-0.7c0.7-0.6,0.9-1.1,1.4-1.8c0.3-0.4,0.4-0.7,0.7-1.2l0-1.4l-0.3,0.3l-0.4,0.4l-1.9,0.7l-2.5,0.3   l0-0.9l-2.4,0.1l-0.3,2.5c-0.1,0.4-0.2,0.6-0.4,0.9c-0.3,0.4-0.6,0.5-1,0.7c-0.3,0.2-0.5,0.3-0.8,0.4l0-0.4l1-0.5l0.2-0.4   c-0.1-0.8-0.5-1.3-0.9-1.7c-0.9-0.1-1.6-0.9-2.4-0.7c-0.5,0-1,0.1-1.4,0.3l-7-16.4l0.7-14.3l7.2-0.2l-0.4,5.9l9.2,2.2l-7.1-8.7   l-0.2-7.5l-4.9-7.1l3-15L25,268.3l6.7-4.9l30.8-12.4l3.6-8.4l-1.2-7.2l6.6-4.3l2.5-6.7l19-20.3l-0.5-3.3l3.8-3.1l0.3-9l13-17.5   l0.8-3.3l-3.3-4.2l4-9.6l8.7-2.6l15.2,0.5l22.3,11.7l0.6-2.7l6.4-0.5l4.9-8l9.8,0.1l5.5-4.1l-2.4-1.6l2.6-7.6l9.4-7.6l-3.1-5.9   l0.5-8.9l6.8-5.3l13.4-8.8l12.8,6l2.8,5.6l25-1l7.6,5.2l7.6-1.2l7.4,3.8l5-3.8l6.4,1.8l9.5,8.2l9.7-6.2l3.5,5.7l-5,17.4l5.7,8.3   l5.4,5.5l4.5,1.3l1.6-2.2l5.2,5.6l7.6-0.1l5,5l-5,21.9l2.8,4.3l15.4,1.2l4-3.2l-0.2-3.3l4.9-2.7l16.4,5.9l5.7-4.4l3.8,0.5l8.8-11.4   l14.7-3l7.7,10l14.9,8.7l0.9,1.9l-8.2,7.9l2.9,9.8L433.2,219.2z"/> </g> <g id="AH_Limitrofes"> 	<a> 		<path style="fill:none;" d="M28.3,269l0.5,5.3l2.8,4.8l1.8,7.8l-1.1,6.3l1.1,3.4l0.5,6.8l1.8,6.3l2.8,4.5l2.5,2.8l-3.3,1.5    l-4.3-2.3l-2-5.7l-2.2,0.2l-4,3.8l-0.5,6.8l1.3,7.3l2.8,6.3l1.5,5l2.3,1.8l-1,3.6l-3.5,2.1l-9,0.5l-8.8-1.3l-3.1,0.3L0,348V221.2    v-29.7V160l8-2.5l3.3-0.7l6,1.5l1.3,2.3l-1.5,2.2l-4.8,2.2c0,0-0.8,3.7-1,4.3s-1.2,6-1.2,6l-1,6.5L8,186.5l-8,5l1.5,5L4,200    l0.7,3.8L0,221.4v68.5l8.7-2.1l5.2-5.5l3.2-6.2l3.2-4.5l4.2-3.3l4.8-2L28.3,269z"/> 	</a> 	<a> 		<path style="fill:none;" d="M61.6,251.3l-3.5,1.8l-7,2.6l-9.5,2.5l-6.5,3.9l-6,4.3l-5.8,2l-2.8,3.8l-4.3,5.8l-4,6.4    c0,0-4,4.4-4.4,4.4s-8,1.3-8,1.3v-66l2.5-10l2.3-5.5l-0.5-7l-2.9-6L0,193.5l3.5-4l3.6-3l2.4-5.5l0.4-6.5l0.4-6.1l2.1-3.4l4.4-2.6    l2.3-0.9l-0.1-2.6l-4.1-1.9l-4.8-0.5l-5.6,2.1L0,160V0h335.8l-0.3,5l1.1,5.3c0,0,3.2,3.3,3.4,3.7s2.9,3.1,3.2,3.3s3.5,2.6,4.1,2.8    s4.6,2.1,4.9,2.3s5.2,3,5.4,3.3s2.5,2.7,2.8,3.1s1.8,4.3,2,4.7s1.1,3,1.3,3.5s0.8,4.7,1.1,5.4s1.7,4.3,2,4.9s2.5,4.3,2.7,4.8    s1.5,2.7,1.8,3.4s1.1,3.3,1,3.6s-5.8,6-5.8,6s-2,2.4-2.2,2.8s-1.8,3.1-2.6,3.5s-3.3,2.3-3.9,2.6s-4.3,2.5-4.6,2.7    s-2.3,0.3-3.8,0.5s-6.2-0.2-7.1,0.2s-3.8,1.3-3.6,1.8s0.5,3.5,0.6,4.1s-0.5,2.6-0.6,3s-3.5,2.2-3.8,2.7s-9.7,7.2-9.7,7.2    s-2.7,3-2.9,3.3s-2.9,6.3-3.2,6.4s-3.2,5.8-3.2,6.1s-2.9,5.2-3.2,5.4s-4.1,2.8-4.3,3s-3.7,0.6-4.7,0.8s-5.3,2-5.3,2l-12.1-1.1    c0,0-5.3-1-6-1.3s-5.3-1.5-6.5-1.8s-4.7-1.5-5.8-1.5s-5-0.5-6.4-0.5s-10.3-0.6-11.2-0.6s-14-1.7-14-1.7s-5.4-1-5.7-1.1    s-3.5-0.9-3.5-0.9s-2.7-2.2-2.8-2.4s-1.8-2.9-2.5-3.4s-4.3-2.2-5.2-2.3s-4.1-0.4-4.1-0.4s-8.7,2.3-9.1,2.3s-8.1,4.5-8.1,4.5    l-4.3,5.9l-1.4,4.3l0.2,4.1l0.9,2.7c0,0,0.7,1.8,0.7,2.2s-1.3,3.9-1.3,3.9l-5,4.8l-1.9,3.7l0.1,5.7l-4,2.9c0,0-5.9,1.8-6.9,2.1    s-4.3,2.3-4.5,2.6s-3.5,4.4-3.5,4.4l-2.3,1.5l-4-0.2l-1.2,2.7l-5.3-3.8l-11.5-5.2l-3.9-1.4l-12.8-2.1l-3.3,1.3l-5.1,1.9l-4.3,3.2    L107,163l2,4.3l0.3,3.1l-3.8,5.4l-4.8,6.1l-5.5,9.4l-2.2,7.3l-1.3,7.4l-5.2,4.3l-5.7,5l-5.2,5.2l-9,13.8l-3.2,7.7L61.6,251.3z"/> 	</a> 	<a> 		<path style="fill:none;" d="M448.2,212.8l-3.7,1.2l-9.5,1.8l-3.3,0.8l-3.8-5.2l-1.7-5.7c0,0,1.8-7.7,2.3-7.8s4-4,4-4s-0.3-2.7-1-3    s-4.7-3.3-4.7-3.3s-3.7-1.8-4.3-2.2s-3.5-2.2-4-2.5s-5.3-3.2-5.8-3.7s-3-3.5-3.8-3.7s-4-1-4.7-1s-4.7,0.9-6.6,1s-4,3.2-5.7,4.8    s-4,5.7-4,5.7l-3.3,1.2c0,0-4.2-0.5-5.6-0.3s-8.7,1.8-8.7,1.8L367,188l-6.3-2l-3.2,1.2l-2.3,3.7l-3.5,3.2l-4.7,1l-5.2,0.7h-5.7    l-2-2l-1-3l1.5-3.7l2.2-5.5c0,0,0.5-5.3,0.8-6.3s-0.7-5-0.7-5l-3.7-3.3l-5.5-3.7l-7-3.3l-9-5.3l-5.3-6.3l-1.3-6.5l0.8-4.2l0.8-5.2    l0.8-6l-1.2-5l6.2-4.3c0,0,1.7-2.7,1.9-2.9s1.8-3.6,2-4.2s1.7-4.4,2.2-5.1s2.4-5,2.7-5.5s2.5-3.6,3.1-3.9s3.8-3.3,4.3-3.5    s4.2-2.8,4.8-3.2s4.9-2.8,4.9-2.8s0.8-1.8,0.8-2.5s-0.5-4.3-0.5-4.3s2.3-1.8,2.5-1.8s3.1-0.1,3.6-0.2s4-0.4,4.7-0.4    s3.9-0.4,4.3-0.7s2.8-1.7,3.3-2.2s3-2.4,3.4-2.8s2.8-2.9,3-3.4s2.3-3.4,2.8-3.8s2.8-2.1,3-2.3s3-2,3-2l-0.8-3.7l-2.2-4l-2.7-4.8    l-1.8-6.9l-2.5-6.9l-2.8-4.9c0,0-3.8-4.2-4.5-4.3s-5.8-3.8-5.8-3.8l-6-3.1l-4.3-3.4l-2.5-4.2L335.5,5l0.3-5H450l0,212.2    L448.2,212.8z"/> 	</a> </g> <g id="bl"> 	<rect x="32.2" y="293.1" style="opacity:0.6;fill:#FFFBF0;" width="51" height="8.7"/> </g> <g id="text_x005F_Municipis"> 	<g> 		<path d="M38.8,300.6c-0.2,0.1-0.3,0.2-0.5,0.2c-0.1,0.1-0.3,0.1-0.6,0.2c-0.2,0.1-0.4,0.1-0.6,0.2c-0.2,0-0.5,0.1-0.8,0.1    c-0.5,0-1-0.1-1.4-0.2c-0.4-0.1-0.8-0.4-1.1-0.7c-0.3-0.3-0.6-0.7-0.7-1.2c-0.2-0.5-0.3-1-0.3-1.7c0-0.6,0.1-1.1,0.3-1.6    c0.2-0.5,0.4-0.9,0.7-1.2c0.3-0.3,0.7-0.6,1.1-0.7c0.4-0.2,0.9-0.2,1.5-0.2c0.4,0,0.8,0,1.2,0.1c0.4,0.1,0.8,0.3,1.3,0.5v1.1h-0.1    c-0.4-0.3-0.8-0.6-1.2-0.7c-0.4-0.2-0.8-0.2-1.3-0.2c-0.4,0-0.7,0.1-1,0.2c-0.3,0.1-0.6,0.3-0.8,0.6c-0.2,0.2-0.4,0.6-0.5,0.9    c-0.1,0.4-0.2,0.8-0.2,1.3c0,0.5,0.1,1,0.2,1.3c0.1,0.4,0.3,0.7,0.5,0.9c0.2,0.2,0.5,0.4,0.8,0.5c0.3,0.1,0.6,0.2,1,0.2    c0.5,0,0.9-0.1,1.3-0.2c0.4-0.2,0.8-0.4,1.1-0.7h0.1V300.6z"/> 		<path d="M44.6,301.1h-0.9v-0.6c-0.3,0.2-0.6,0.4-0.9,0.6s-0.6,0.2-0.9,0.2c-0.6,0-1-0.2-1.3-0.5c-0.3-0.4-0.5-0.9-0.5-1.5v-3.5    h0.9v3.1c0,0.3,0,0.5,0,0.7c0,0.2,0.1,0.4,0.2,0.5c0.1,0.1,0.2,0.2,0.3,0.3c0.1,0.1,0.3,0.1,0.6,0.1c0.2,0,0.5-0.1,0.8-0.2    c0.3-0.1,0.5-0.3,0.8-0.5v-4.1h0.9V301.1z"/> 		<path d="M51.2,298.3c0,0.5-0.1,0.9-0.2,1.2c-0.1,0.4-0.3,0.7-0.5,0.9c-0.2,0.3-0.5,0.5-0.8,0.6c-0.3,0.1-0.6,0.2-0.9,0.2    c-0.3,0-0.6,0-0.8-0.1s-0.5-0.2-0.7-0.3l-0.1,0.3h-0.9v-7.6h0.9v2.7c0.3-0.2,0.5-0.4,0.8-0.5c0.3-0.1,0.6-0.2,1-0.2    c0.6,0,1.2,0.2,1.5,0.7C51,296.7,51.2,297.4,51.2,298.3z M50.2,298.3c0-0.7-0.1-1.1-0.3-1.5s-0.6-0.5-1-0.5    c-0.3,0-0.5,0.1-0.8,0.2c-0.3,0.1-0.5,0.3-0.8,0.4v3.1c0.3,0.1,0.5,0.2,0.7,0.2s0.4,0.1,0.6,0.1c0.5,0,0.9-0.2,1.2-0.5    C50.1,299.6,50.2,299,50.2,298.3z"/> 		<path d="M57.2,298.4h-4c0,0.3,0.1,0.6,0.2,0.9c0.1,0.2,0.2,0.5,0.4,0.6c0.2,0.2,0.4,0.3,0.6,0.4c0.2,0.1,0.5,0.1,0.8,0.1    c0.4,0,0.7-0.1,1.1-0.2c0.4-0.1,0.6-0.3,0.8-0.4h0v1c-0.3,0.1-0.6,0.2-0.9,0.3s-0.7,0.1-1,0.1c-0.9,0-1.6-0.2-2.1-0.7    c-0.5-0.5-0.8-1.2-0.8-2.1c0-0.9,0.2-1.6,0.7-2.1c0.5-0.5,1.1-0.8,1.9-0.8c0.7,0,1.3,0.2,1.7,0.6c0.4,0.4,0.6,1,0.6,1.8V298.4z     M56.3,297.7c0-0.5-0.1-0.9-0.4-1.1s-0.6-0.4-1.1-0.4c-0.5,0-0.9,0.1-1.2,0.4c-0.3,0.3-0.5,0.6-0.5,1.1H56.3z"/> 		<path d="M59.5,301.1h-0.9v-7.6h0.9V301.1z"/> 		<path d="M62.2,301.1h-0.9v-7.6h0.9V301.1z"/> 		<path d="M68.6,298.4h-4c0,0.3,0.1,0.6,0.2,0.9c0.1,0.2,0.2,0.5,0.4,0.6c0.2,0.2,0.4,0.3,0.6,0.4c0.2,0.1,0.5,0.1,0.8,0.1    c0.4,0,0.7-0.1,1.1-0.2c0.4-0.1,0.6-0.3,0.8-0.4h0v1c-0.3,0.1-0.6,0.2-0.9,0.3s-0.7,0.1-1,0.1c-0.9,0-1.6-0.2-2.1-0.7    c-0.5-0.5-0.8-1.2-0.8-2.1c0-0.9,0.2-1.6,0.7-2.1c0.5-0.5,1.1-0.8,1.9-0.8c0.7,0,1.3,0.2,1.7,0.6c0.4,0.4,0.6,1,0.6,1.8V298.4z     M67.7,297.7c0-0.5-0.1-0.9-0.4-1.1s-0.6-0.4-1.1-0.4c-0.5,0-0.9,0.1-1.2,0.4c-0.3,0.3-0.5,0.6-0.5,1.1H67.7z"/> 		<path d="M73.6,298.5c0.2,0.2,0.3,0.6,0.3,1c0,0.5-0.2,0.9-0.6,1.2s-1,0.5-1.7,0.5c-0.4,0-0.8,0-1.1-0.1c-0.3-0.1-0.6-0.2-0.8-0.3    v-1h0c0.3,0.2,0.6,0.4,1,0.5c0.4,0.1,0.7,0.2,1,0.2c0.4,0,0.7-0.1,0.9-0.2s0.3-0.3,0.3-0.6c0-0.2-0.1-0.4-0.2-0.5    s-0.4-0.2-0.7-0.3c-0.1,0-0.3-0.1-0.5-0.1s-0.4-0.1-0.6-0.1c-0.5-0.1-0.8-0.3-1-0.6c-0.2-0.2-0.3-0.5-0.3-0.9c0-0.2,0-0.4,0.1-0.6    s0.2-0.4,0.4-0.5c0.2-0.2,0.4-0.3,0.7-0.4c0.3-0.1,0.6-0.1,0.9-0.1c0.3,0,0.7,0,1,0.1c0.3,0.1,0.6,0.2,0.8,0.3v1h0    c-0.2-0.2-0.5-0.3-0.9-0.4c-0.3-0.1-0.7-0.2-1-0.2c-0.3,0-0.6,0.1-0.8,0.2c-0.2,0.1-0.3,0.3-0.3,0.6c0,0.2,0.1,0.4,0.2,0.5    c0.1,0.1,0.4,0.2,0.7,0.3c0.2,0,0.4,0.1,0.6,0.1s0.4,0.1,0.5,0.1C73,298.1,73.3,298.3,73.6,298.5L73.6,298.5z"/> 	</g> 	<g> 		<path d="M236.4,138.2c0.3,0.3,0.5,0.7,0.7,1.2c0.2,0.5,0.2,1,0.2,1.6s-0.1,1.1-0.2,1.6s-0.4,0.9-0.7,1.2c-0.3,0.3-0.7,0.6-1.1,0.7    c-0.4,0.2-0.9,0.2-1.4,0.2c-0.5,0-1-0.1-1.4-0.3c-0.4-0.2-0.8-0.4-1.1-0.7s-0.5-0.7-0.7-1.2c-0.2-0.5-0.2-1-0.2-1.6    c0-0.6,0.1-1.1,0.2-1.6s0.4-0.9,0.7-1.2c0.3-0.3,0.6-0.6,1.1-0.7s0.9-0.3,1.4-0.3c0.5,0,1,0.1,1.4,0.3S236.1,137.9,236.4,138.2z     M236.4,141c0-0.9-0.2-1.7-0.6-2.2s-1-0.8-1.7-0.8c-0.7,0-1.3,0.3-1.7,0.8c-0.4,0.5-0.6,1.2-0.6,2.2c0,1,0.2,1.7,0.6,2.2    s1,0.8,1.7,0.8s1.3-0.3,1.7-0.8C236.1,142.7,236.4,142,236.4,141z"/> 		<path d="M239.7,144.6h-0.9V137h0.9V144.6z"/> 		<path d="M242.5,138.3h-1v-1h1V138.3z M242.5,144.6h-0.9v-5.5h0.9V144.6z"/> 		<path d="M249,139.2l-2.2,5.5h-0.9l-2.2-5.5h1l1.7,4.3l1.7-4.3H249z"/> 		<path d="M254.7,142h-4c0,0.3,0.1,0.6,0.2,0.9s0.2,0.5,0.4,0.6c0.2,0.2,0.4,0.3,0.6,0.4c0.2,0.1,0.5,0.1,0.8,0.1    c0.4,0,0.7-0.1,1.1-0.2s0.6-0.3,0.8-0.4h0v1c-0.3,0.1-0.6,0.2-0.9,0.3s-0.7,0.1-1,0.1c-0.9,0-1.6-0.2-2.1-0.7s-0.8-1.2-0.8-2.1    c0-0.9,0.2-1.6,0.7-2.1c0.5-0.5,1.1-0.8,1.9-0.8c0.7,0,1.3,0.2,1.7,0.6c0.4,0.4,0.6,1,0.6,1.8V142z M253.8,141.3    c0-0.5-0.1-0.9-0.4-1.1s-0.6-0.4-1.1-0.4c-0.5,0-0.9,0.1-1.2,0.4c-0.3,0.3-0.5,0.6-0.5,1.1H253.8z"/> 		<path d="M257,144.6h-0.9V137h0.9V144.6z"/> 		<path d="M259.8,144.6h-0.9V137h0.9V144.6z"/> 		<path d="M265.8,144.6h-0.9v-0.6c-0.1,0.1-0.2,0.1-0.3,0.2s-0.3,0.2-0.4,0.2c-0.2,0.1-0.3,0.1-0.5,0.2c-0.2,0.1-0.4,0.1-0.7,0.1    c-0.5,0-0.9-0.2-1.3-0.5s-0.5-0.7-0.5-1.2c0-0.4,0.1-0.7,0.3-1s0.4-0.5,0.8-0.6c0.3-0.1,0.7-0.2,1.2-0.3c0.5-0.1,1-0.1,1.5-0.1    v-0.1c0-0.2,0-0.4-0.1-0.5s-0.2-0.2-0.3-0.3c-0.1-0.1-0.3-0.1-0.5-0.2c-0.2,0-0.4,0-0.6,0c-0.2,0-0.5,0-0.8,0.1    c-0.3,0.1-0.6,0.2-0.9,0.3h0v-0.9c0.2,0,0.4-0.1,0.8-0.2c0.3-0.1,0.7-0.1,1-0.1c0.4,0,0.7,0,1,0.1s0.5,0.2,0.7,0.3    c0.2,0.1,0.4,0.3,0.5,0.6s0.2,0.5,0.2,0.9V144.6z M264.9,143.3v-1.5c-0.3,0-0.6,0-1,0.1s-0.7,0.1-0.9,0.1    c-0.3,0.1-0.5,0.2-0.6,0.3c-0.2,0.2-0.2,0.4-0.2,0.7c0,0.3,0.1,0.5,0.3,0.7c0.2,0.2,0.5,0.2,0.9,0.2c0.3,0,0.6-0.1,0.9-0.2    C264.4,143.6,264.7,143.5,264.9,143.3z"/> 	</g> 	<g> 		<path d="M120.5,185.8c-0.2,0.1-0.3,0.2-0.5,0.2c-0.1,0.1-0.3,0.1-0.6,0.2c-0.2,0.1-0.4,0.1-0.6,0.2c-0.2,0-0.5,0.1-0.8,0.1    c-0.5,0-1-0.1-1.4-0.2s-0.8-0.4-1.1-0.7c-0.3-0.3-0.6-0.7-0.7-1.2s-0.3-1-0.3-1.7c0-0.6,0.1-1.1,0.3-1.6s0.4-0.9,0.7-1.2    c0.3-0.3,0.7-0.6,1.1-0.7s0.9-0.2,1.5-0.2c0.4,0,0.8,0,1.2,0.1c0.4,0.1,0.8,0.3,1.3,0.5v1.1h-0.1c-0.4-0.3-0.8-0.6-1.2-0.7    c-0.4-0.2-0.8-0.2-1.3-0.2c-0.4,0-0.7,0.1-1,0.2s-0.6,0.3-0.8,0.6c-0.2,0.2-0.4,0.6-0.5,0.9s-0.2,0.8-0.2,1.3c0,0.5,0.1,1,0.2,1.3    s0.3,0.7,0.5,0.9c0.2,0.2,0.5,0.4,0.8,0.5s0.6,0.2,1,0.2c0.5,0,0.9-0.1,1.3-0.2c0.4-0.2,0.8-0.4,1.1-0.7h0.1V185.8z"/> 		<path d="M126,186.3h-0.9v-0.6c-0.1,0.1-0.2,0.1-0.3,0.2c-0.1,0.1-0.3,0.2-0.4,0.2c-0.2,0.1-0.3,0.1-0.5,0.2    c-0.2,0.1-0.4,0.1-0.7,0.1c-0.5,0-0.9-0.2-1.3-0.5s-0.5-0.7-0.5-1.2c0-0.4,0.1-0.7,0.3-1c0.2-0.3,0.4-0.5,0.8-0.6    c0.3-0.1,0.7-0.2,1.2-0.3c0.5-0.1,1-0.1,1.5-0.1v-0.1c0-0.2,0-0.4-0.1-0.5s-0.2-0.2-0.3-0.3c-0.1-0.1-0.3-0.1-0.5-0.2    c-0.2,0-0.4,0-0.6,0c-0.2,0-0.5,0-0.8,0.1c-0.3,0.1-0.6,0.2-0.9,0.3h0V181c0.2,0,0.4-0.1,0.8-0.2c0.3-0.1,0.7-0.1,1-0.1    c0.4,0,0.7,0,1,0.1c0.3,0.1,0.5,0.2,0.7,0.3c0.2,0.1,0.4,0.3,0.5,0.6s0.2,0.5,0.2,0.9V186.3z M125.1,185v-1.5c-0.3,0-0.6,0-1,0.1    c-0.4,0-0.7,0.1-0.9,0.1c-0.3,0.1-0.5,0.2-0.6,0.3c-0.2,0.2-0.2,0.4-0.2,0.7c0,0.3,0.1,0.5,0.3,0.7c0.2,0.2,0.5,0.2,0.9,0.2    c0.3,0,0.6-0.1,0.9-0.2C124.6,185.3,124.9,185.1,125.1,185z"/> 		<path d="M132.3,186.3h-0.9v-3.1c0-0.3,0-0.5,0-0.7s-0.1-0.4-0.2-0.5c-0.1-0.1-0.2-0.2-0.4-0.3c-0.2-0.1-0.4-0.1-0.6-0.1    c-0.3,0-0.5,0.1-0.8,0.2s-0.5,0.3-0.8,0.5v4.1h-0.9v-5.5h0.9v0.6c0.3-0.2,0.6-0.4,0.9-0.6c0.3-0.1,0.6-0.2,0.9-0.2    c0.6,0,1,0.2,1.3,0.5c0.3,0.4,0.5,0.9,0.5,1.5V186.3z"/> 		<path d="M138.7,180.9l-3.2,7.5h-1l1-2.3l-2.2-5.2h1l1.7,4l1.7-4H138.7z"/> 		<path d="M144.4,183.7h-4c0,0.3,0.1,0.6,0.2,0.9c0.1,0.2,0.2,0.5,0.4,0.6c0.2,0.2,0.4,0.3,0.6,0.4c0.2,0.1,0.5,0.1,0.8,0.1    c0.4,0,0.7-0.1,1.1-0.2s0.6-0.3,0.8-0.4h0v1c-0.3,0.1-0.6,0.2-0.9,0.3s-0.7,0.1-1,0.1c-0.9,0-1.6-0.2-2.1-0.7s-0.8-1.2-0.8-2.1    c0-0.9,0.2-1.6,0.7-2.1c0.5-0.5,1.1-0.8,1.9-0.8c0.7,0,1.3,0.2,1.7,0.6c0.4,0.4,0.6,1,0.6,1.8V183.7z M143.5,183    c0-0.5-0.1-0.9-0.4-1.1s-0.6-0.4-1.1-0.4c-0.5,0-0.9,0.1-1.2,0.4c-0.3,0.3-0.5,0.6-0.5,1.1H143.5z"/> 		<path d="M146.7,186.3h-0.9v-7.6h0.9V186.3z"/> 		<path d="M149.5,186.3h-0.9v-7.6h0.9V186.3z"/> 		<path d="M155.8,183.7h-4c0,0.3,0.1,0.6,0.2,0.9s0.2,0.5,0.4,0.6c0.2,0.2,0.4,0.3,0.6,0.4s0.5,0.1,0.8,0.1c0.4,0,0.7-0.1,1.1-0.2    s0.6-0.3,0.8-0.4h0v1c-0.3,0.1-0.6,0.2-0.9,0.3s-0.7,0.1-1,0.1c-0.9,0-1.6-0.2-2.1-0.7s-0.8-1.2-0.8-2.1c0-0.9,0.2-1.6,0.7-2.1    s1.1-0.8,1.9-0.8c0.7,0,1.3,0.2,1.7,0.6c0.4,0.4,0.6,1,0.6,1.8V183.7z M154.9,183c0-0.5-0.1-0.9-0.4-1.1s-0.6-0.4-1.1-0.4    c-0.5,0-0.9,0.1-1.2,0.4s-0.5,0.6-0.5,1.1H154.9z"/> 		<path d="M160.8,183.8c0.2,0.2,0.3,0.6,0.3,1c0,0.5-0.2,0.9-0.6,1.2c-0.4,0.3-1,0.5-1.7,0.5c-0.4,0-0.8,0-1.1-0.1s-0.6-0.2-0.8-0.3    v-1h0c0.3,0.2,0.6,0.4,1,0.5c0.4,0.1,0.7,0.2,1,0.2c0.4,0,0.7-0.1,0.9-0.2c0.2-0.1,0.3-0.3,0.3-0.6c0-0.2-0.1-0.4-0.2-0.5    c-0.1-0.1-0.4-0.2-0.7-0.3c-0.1,0-0.3-0.1-0.5-0.1s-0.4-0.1-0.6-0.1c-0.5-0.1-0.8-0.3-1-0.6s-0.3-0.5-0.3-0.9c0-0.2,0-0.4,0.1-0.6    s0.2-0.4,0.4-0.5c0.2-0.2,0.4-0.3,0.7-0.4c0.3-0.1,0.6-0.1,0.9-0.1c0.3,0,0.7,0,1,0.1c0.3,0.1,0.6,0.2,0.8,0.3v1h0    c-0.2-0.2-0.5-0.3-0.9-0.4c-0.3-0.1-0.7-0.2-1-0.2c-0.3,0-0.6,0.1-0.8,0.2c-0.2,0.1-0.3,0.3-0.3,0.6c0,0.2,0.1,0.4,0.2,0.5    c0.1,0.1,0.4,0.2,0.7,0.3c0.2,0,0.4,0.1,0.6,0.1s0.4,0.1,0.5,0.1C160.2,183.4,160.5,183.5,160.8,183.8L160.8,183.8z"/> 	</g> 	<g> 		<path d="M319.2,237.3c0,0.3-0.1,0.6-0.2,0.8s-0.3,0.5-0.6,0.7c-0.3,0.2-0.6,0.4-0.9,0.5s-0.8,0.2-1.3,0.2c-0.5,0-1,0-1.4-0.1    c-0.4-0.1-0.8-0.2-1.3-0.4v-1.2h0.1c0.4,0.3,0.8,0.5,1.3,0.7s0.9,0.2,1.4,0.2c0.6,0,1.1-0.1,1.4-0.3c0.3-0.2,0.5-0.5,0.5-0.9    c0-0.3-0.1-0.6-0.2-0.7c-0.2-0.2-0.4-0.3-0.7-0.4c-0.2-0.1-0.5-0.1-0.8-0.2c-0.3,0-0.6-0.1-0.9-0.2c-0.6-0.1-1.1-0.4-1.4-0.7    c-0.3-0.3-0.5-0.8-0.5-1.3c0-0.6,0.3-1.1,0.8-1.5c0.5-0.4,1.2-0.6,2-0.6c0.5,0,1,0,1.4,0.1s0.8,0.2,1.1,0.4v1.1h-0.1    c-0.3-0.2-0.6-0.4-1.1-0.6c-0.5-0.2-0.9-0.2-1.4-0.2c-0.5,0-0.9,0.1-1.2,0.3c-0.3,0.2-0.5,0.5-0.5,0.8c0,0.3,0.1,0.5,0.2,0.7    s0.4,0.3,0.8,0.4c0.2,0,0.5,0.1,0.9,0.2s0.7,0.1,1,0.2c0.5,0.1,0.9,0.4,1.2,0.6S319.2,236.8,319.2,237.3z"/> 		<path d="M321.7,233.1h-1v-1h1V233.1z M321.6,239.4h-0.9V234h0.9V239.4z"/> 		<path d="M326.3,239.4c-0.2,0-0.4,0.1-0.6,0.1s-0.4,0-0.5,0c-0.6,0-1-0.1-1.3-0.4c-0.3-0.3-0.4-0.8-0.4-1.4v-2.9h-0.6V234h0.6v-1.6    h0.9v1.6h1.9v0.8h-1.9v2.5c0,0.3,0,0.5,0,0.7c0,0.2,0.1,0.3,0.1,0.5c0.1,0.1,0.2,0.2,0.3,0.3c0.1,0.1,0.3,0.1,0.6,0.1    c0.1,0,0.3,0,0.5-0.1c0.2,0,0.3-0.1,0.4-0.1h0V239.4z"/> 		<path d="M331.8,238.8c0,0.9-0.2,1.6-0.6,2s-1.1,0.6-1.9,0.6c-0.3,0-0.6,0-0.8-0.1c-0.3,0-0.5-0.1-0.8-0.2v-0.9h0    c0.2,0.1,0.4,0.1,0.7,0.2c0.3,0.1,0.7,0.1,1,0.1c0.3,0,0.6,0,0.8-0.1s0.4-0.2,0.5-0.3c0.1-0.1,0.2-0.3,0.2-0.5s0.1-0.4,0.1-0.6    v-0.5c-0.3,0.2-0.5,0.4-0.8,0.5c-0.3,0.1-0.6,0.2-1,0.2c-0.7,0-1.2-0.2-1.5-0.7c-0.4-0.5-0.6-1.1-0.6-2c0-0.5,0.1-0.9,0.2-1.2    c0.1-0.3,0.3-0.6,0.5-0.9c0.2-0.2,0.5-0.4,0.8-0.5c0.3-0.1,0.6-0.2,0.9-0.2c0.3,0,0.6,0,0.8,0.1c0.2,0.1,0.4,0.2,0.7,0.3l0.1-0.2    h0.9V238.8z M330.9,237.9v-3c-0.2-0.1-0.5-0.2-0.7-0.2c-0.2,0-0.4-0.1-0.6-0.1c-0.5,0-0.9,0.2-1.2,0.5c-0.3,0.3-0.4,0.8-0.4,1.5    c0,0.6,0.1,1.1,0.3,1.4s0.6,0.5,1.1,0.5c0.3,0,0.5-0.1,0.8-0.2S330.7,238.1,330.9,237.9z"/> 		<path d="M338.2,236.8h-4c0,0.3,0,0.6,0.2,0.9c0.1,0.2,0.2,0.5,0.4,0.6c0.2,0.2,0.4,0.3,0.6,0.4s0.5,0.1,0.8,0.1    c0.4,0,0.7-0.1,1.1-0.2c0.4-0.1,0.6-0.3,0.8-0.4h0v1c-0.3,0.1-0.6,0.2-0.9,0.3s-0.7,0.1-1,0.1c-0.9,0-1.6-0.2-2.1-0.7    c-0.5-0.5-0.8-1.2-0.8-2.1c0-0.9,0.2-1.6,0.7-2.1s1.1-0.8,1.9-0.8c0.7,0,1.3,0.2,1.7,0.6s0.6,1,0.6,1.8V236.8z M337.3,236.1    c0-0.5-0.1-0.9-0.4-1.1s-0.6-0.4-1.1-0.4c-0.5,0-0.9,0.1-1.2,0.4s-0.5,0.6-0.5,1.1H337.3z"/> 		<path d="M343.1,236.9c0.2,0.2,0.3,0.6,0.3,1c0,0.5-0.2,0.9-0.6,1.2s-1,0.5-1.7,0.5c-0.4,0-0.8,0-1.1-0.1c-0.3-0.1-0.6-0.2-0.8-0.3    v-1h0c0.3,0.2,0.6,0.4,1,0.5c0.4,0.1,0.7,0.2,1,0.2c0.4,0,0.7-0.1,0.9-0.2c0.2-0.1,0.3-0.3,0.3-0.6c0-0.2-0.1-0.4-0.2-0.5    c-0.1-0.1-0.4-0.2-0.7-0.3c-0.1,0-0.3-0.1-0.5-0.1s-0.4-0.1-0.6-0.1c-0.5-0.1-0.8-0.3-1-0.6c-0.2-0.2-0.3-0.5-0.3-0.9    c0-0.2,0-0.4,0.1-0.6s0.2-0.4,0.4-0.5c0.2-0.2,0.4-0.3,0.7-0.4c0.3-0.1,0.6-0.1,0.9-0.1c0.3,0,0.7,0,1,0.1    c0.3,0.1,0.6,0.2,0.8,0.3v1h0c-0.2-0.2-0.5-0.3-0.9-0.4c-0.3-0.1-0.7-0.2-1-0.2c-0.3,0-0.6,0.1-0.8,0.2c-0.2,0.1-0.3,0.3-0.3,0.6    c0,0.2,0.1,0.4,0.2,0.5c0.1,0.1,0.4,0.2,0.7,0.3c0.2,0,0.4,0.1,0.6,0.1s0.4,0.1,0.5,0.1C342.6,236.5,342.9,236.7,343.1,236.9    L343.1,236.9z"/> 	</g> 	<g> 		<path d="M178.1,220.7c0,0.3-0.1,0.6-0.2,0.8s-0.3,0.5-0.6,0.7c-0.3,0.2-0.6,0.4-0.9,0.5s-0.8,0.2-1.3,0.2c-0.5,0-1,0-1.4-0.1    c-0.4-0.1-0.8-0.2-1.3-0.4v-1.2h0.1c0.4,0.3,0.8,0.5,1.3,0.7s0.9,0.2,1.4,0.2c0.6,0,1.1-0.1,1.4-0.3c0.3-0.2,0.5-0.5,0.5-0.9    c0-0.3-0.1-0.6-0.2-0.7c-0.2-0.2-0.4-0.3-0.7-0.4c-0.2-0.1-0.5-0.1-0.8-0.2c-0.3,0-0.6-0.1-0.9-0.2c-0.6-0.1-1.1-0.4-1.4-0.7    c-0.3-0.3-0.5-0.8-0.5-1.3c0-0.6,0.3-1.1,0.8-1.5c0.5-0.4,1.2-0.6,2-0.6c0.5,0,1,0,1.4,0.1c0.4,0.1,0.8,0.2,1.1,0.4v1.1h-0.1    c-0.3-0.2-0.6-0.4-1.1-0.6c-0.5-0.2-0.9-0.2-1.4-0.2c-0.5,0-0.9,0.1-1.2,0.3s-0.5,0.5-0.5,0.8c0,0.3,0.1,0.5,0.2,0.7    s0.4,0.3,0.8,0.4c0.2,0,0.5,0.1,0.9,0.2c0.4,0.1,0.7,0.1,1,0.2c0.5,0.1,0.9,0.4,1.2,0.6S178.1,220.1,178.1,220.7z"/> 		<path d="M183.8,222.7h-0.9v-0.6c-0.1,0.1-0.2,0.1-0.3,0.2c-0.1,0.1-0.3,0.2-0.4,0.2c-0.2,0.1-0.3,0.1-0.5,0.2s-0.4,0.1-0.7,0.1    c-0.5,0-0.9-0.2-1.3-0.5s-0.5-0.7-0.5-1.2c0-0.4,0.1-0.7,0.3-1c0.2-0.3,0.4-0.5,0.8-0.6c0.3-0.1,0.7-0.2,1.2-0.3s1-0.1,1.5-0.1    V219c0-0.2,0-0.4-0.1-0.5s-0.2-0.2-0.3-0.3c-0.1-0.1-0.3-0.1-0.5-0.2s-0.4,0-0.6,0c-0.2,0-0.5,0-0.8,0.1s-0.6,0.2-0.9,0.3h0v-0.9    c0.2,0,0.4-0.1,0.8-0.2s0.7-0.1,1-0.1c0.4,0,0.7,0,1,0.1s0.5,0.2,0.7,0.3c0.2,0.1,0.4,0.3,0.5,0.6s0.2,0.5,0.2,0.9V222.7z     M182.9,221.4v-1.5c-0.3,0-0.6,0-1,0.1s-0.7,0.1-0.9,0.1c-0.3,0.1-0.5,0.2-0.6,0.3c-0.2,0.2-0.2,0.4-0.2,0.7    c0,0.3,0.1,0.5,0.3,0.7c0.2,0.2,0.5,0.2,0.9,0.2c0.3,0,0.6-0.1,0.9-0.2C182.4,221.7,182.7,221.6,182.9,221.4z"/> 		<path d="M190.2,222.7h-0.9v-3.1c0-0.3,0-0.5,0-0.7s-0.1-0.4-0.2-0.5c-0.1-0.1-0.2-0.2-0.4-0.3c-0.2-0.1-0.4-0.1-0.6-0.1    c-0.3,0-0.5,0.1-0.8,0.2s-0.5,0.3-0.8,0.5v4.1h-0.9v-5.5h0.9v0.6c0.3-0.2,0.6-0.4,0.9-0.6c0.3-0.1,0.6-0.2,0.9-0.2    c0.6,0,1,0.2,1.3,0.5s0.5,0.9,0.5,1.5V222.7z"/> 		<path d="M194.8,222.7c-0.2,0-0.4,0.1-0.6,0.1c-0.2,0-0.4,0-0.5,0c-0.6,0-1-0.1-1.3-0.4c-0.3-0.3-0.4-0.8-0.4-1.4V218h-0.6v-0.8    h0.6v-1.6h0.9v1.6h1.9v0.8h-1.9v2.5c0,0.3,0,0.5,0,0.7c0,0.2,0.1,0.3,0.1,0.5c0.1,0.1,0.2,0.2,0.3,0.3c0.1,0.1,0.3,0.1,0.6,0.1    c0.1,0,0.3,0,0.5-0.1c0.2,0,0.3-0.1,0.4-0.1h0V222.7z"/> 		<path d="M204.2,217.7c0,0.3-0.1,0.6-0.2,0.9c-0.1,0.3-0.3,0.5-0.5,0.7c-0.3,0.3-0.5,0.4-0.9,0.6c-0.3,0.1-0.8,0.2-1.3,0.2h-1v2.7    h-1v-7.3h2c0.4,0,0.8,0,1.1,0.1c0.3,0.1,0.6,0.2,0.8,0.3c0.3,0.2,0.5,0.4,0.6,0.7S204.2,217.2,204.2,217.7z M203.2,217.7    c0-0.3,0-0.5-0.1-0.7s-0.2-0.3-0.4-0.5c-0.2-0.1-0.3-0.2-0.5-0.2s-0.5-0.1-0.8-0.1h-1v2.9h0.8c0.4,0,0.7,0,1-0.1    c0.2-0.1,0.4-0.2,0.6-0.3c0.2-0.2,0.3-0.3,0.3-0.5S203.2,217.9,203.2,217.7z"/> 		<path d="M209.7,220.1h-4c0,0.3,0.1,0.6,0.2,0.9c0.1,0.2,0.2,0.5,0.4,0.6c0.2,0.2,0.4,0.3,0.6,0.4c0.2,0.1,0.5,0.1,0.8,0.1    c0.4,0,0.7-0.1,1.1-0.2c0.4-0.1,0.6-0.3,0.8-0.4h0v1c-0.3,0.1-0.6,0.2-0.9,0.3s-0.7,0.1-1,0.1c-0.9,0-1.6-0.2-2.1-0.7    c-0.5-0.5-0.8-1.2-0.8-2.1c0-0.9,0.2-1.6,0.7-2.1c0.5-0.5,1.1-0.8,1.9-0.8c0.7,0,1.3,0.2,1.7,0.6c0.4,0.4,0.6,1,0.6,1.8V220.1z     M208.8,219.4c0-0.5-0.1-0.9-0.4-1.1s-0.6-0.4-1.1-0.4c-0.5,0-0.9,0.1-1.2,0.4c-0.3,0.3-0.5,0.6-0.5,1.1H208.8z"/> 		<path d="M214.5,218.3L214.5,218.3c-0.2,0-0.3-0.1-0.4-0.1c-0.1,0-0.3,0-0.5,0c-0.3,0-0.6,0.1-0.8,0.2c-0.3,0.1-0.5,0.3-0.8,0.5    v3.9h-0.9v-5.5h0.9v0.8c0.4-0.3,0.7-0.5,1-0.6s0.6-0.2,0.9-0.2c0.2,0,0.3,0,0.3,0c0.1,0,0.2,0,0.3,0V218.3z"/> 		<path d="M220,220.1h-4c0,0.3,0.1,0.6,0.2,0.9c0.1,0.2,0.2,0.5,0.4,0.6c0.2,0.2,0.4,0.3,0.6,0.4c0.2,0.1,0.5,0.1,0.8,0.1    c0.4,0,0.7-0.1,1.1-0.2c0.4-0.1,0.6-0.3,0.8-0.4h0v1c-0.3,0.1-0.6,0.2-0.9,0.3s-0.7,0.1-1,0.1c-0.9,0-1.6-0.2-2.1-0.7    c-0.5-0.5-0.8-1.2-0.8-2.1c0-0.9,0.2-1.6,0.7-2.1c0.5-0.5,1.1-0.8,1.9-0.8c0.7,0,1.3,0.2,1.7,0.6s0.6,1,0.6,1.8V220.1z     M219.1,219.4c0-0.5-0.1-0.9-0.4-1.1s-0.6-0.4-1.1-0.4c-0.5,0-0.9,0.1-1.2,0.4c-0.3,0.3-0.5,0.6-0.5,1.1H219.1z"/> 		<path d="M229.3,222.7h-0.9v-0.6c-0.3,0.2-0.5,0.4-0.8,0.5s-0.6,0.2-0.9,0.2c-0.7,0-1.2-0.3-1.5-0.8c-0.4-0.5-0.6-1.2-0.6-2.1    c0-0.5,0.1-0.9,0.2-1.2s0.3-0.7,0.5-0.9c0.2-0.2,0.5-0.4,0.8-0.6s0.6-0.2,0.9-0.2c0.3,0,0.5,0,0.8,0.1c0.2,0.1,0.5,0.2,0.7,0.3    v-2.4h0.9V222.7z M228.4,221.4v-3.1c-0.2-0.1-0.5-0.2-0.7-0.2s-0.4-0.1-0.6-0.1c-0.5,0-0.9,0.2-1.2,0.5c-0.3,0.4-0.4,0.9-0.4,1.5    c0,0.6,0.1,1.1,0.3,1.5c0.2,0.3,0.6,0.5,1.1,0.5c0.3,0,0.5-0.1,0.8-0.2C227.9,221.7,228.1,221.6,228.4,221.4z"/> 		<path d="M235.7,220.1h-4c0,0.3,0,0.6,0.2,0.9c0.1,0.2,0.2,0.5,0.4,0.6c0.2,0.2,0.4,0.3,0.6,0.4s0.5,0.1,0.8,0.1    c0.4,0,0.7-0.1,1.1-0.2c0.4-0.1,0.6-0.3,0.8-0.4h0v1c-0.3,0.1-0.6,0.2-0.9,0.3s-0.7,0.1-1,0.1c-0.9,0-1.6-0.2-2.1-0.7    c-0.5-0.5-0.8-1.2-0.8-2.1c0-0.9,0.2-1.6,0.7-2.1s1.1-0.8,1.9-0.8c0.7,0,1.3,0.2,1.7,0.6s0.6,1,0.6,1.8V220.1z M234.8,219.4    c0-0.5-0.1-0.9-0.4-1.1s-0.6-0.4-1.1-0.4c-0.5,0-0.9,0.1-1.2,0.4s-0.5,0.6-0.5,1.1H234.8z"/> 		<path d="M246.7,222.7h-1.3l-2.4-2.9h-1.4v2.9h-1v-7.3h2c0.4,0,0.8,0,1.1,0.1c0.3,0.1,0.6,0.2,0.8,0.3c0.3,0.2,0.5,0.4,0.6,0.6    c0.1,0.3,0.2,0.6,0.2,1c0,0.5-0.1,1-0.4,1.3c-0.3,0.4-0.6,0.6-1.1,0.8L246.7,222.7z M244.4,217.5c0-0.2,0-0.4-0.1-0.6    s-0.2-0.3-0.4-0.4c-0.1-0.1-0.3-0.2-0.5-0.2c-0.2,0-0.4-0.1-0.7-0.1h-1.1v2.7h1c0.3,0,0.6,0,0.8-0.1c0.2-0.1,0.4-0.2,0.6-0.3    c0.1-0.1,0.3-0.3,0.3-0.5C244.4,218,244.4,217.8,244.4,217.5z"/> 		<path d="M248.5,216.4h-1v-1h1V216.4z M248.4,222.7h-0.9v-5.5h0.9V222.7z"/> 		<path d="M255.1,220c0,0.5-0.1,0.9-0.2,1.2c-0.1,0.4-0.3,0.7-0.5,0.9c-0.2,0.3-0.5,0.5-0.8,0.6s-0.6,0.2-0.9,0.2    c-0.3,0-0.6,0-0.8-0.1s-0.5-0.2-0.7-0.3l-0.1,0.3h-0.9v-7.6h0.9v2.7c0.3-0.2,0.5-0.4,0.8-0.5c0.3-0.1,0.6-0.2,1-0.2    c0.6,0,1.2,0.2,1.5,0.7C254.9,218.4,255.1,219.1,255.1,220z M254.1,220c0-0.7-0.1-1.1-0.3-1.5s-0.6-0.5-1-0.5    c-0.3,0-0.5,0.1-0.8,0.2c-0.3,0.1-0.5,0.3-0.8,0.4v3.1c0.3,0.1,0.5,0.2,0.7,0.2c0.2,0,0.4,0.1,0.6,0.1c0.5,0,0.9-0.2,1.2-0.5    C254,221.2,254.1,220.7,254.1,220z"/> 		<path d="M261,220.1h-4c0,0.3,0,0.6,0.2,0.9c0.1,0.2,0.2,0.5,0.4,0.6c0.2,0.2,0.4,0.3,0.6,0.4s0.5,0.1,0.8,0.1    c0.4,0,0.7-0.1,1.1-0.2c0.4-0.1,0.6-0.3,0.8-0.4h0v1c-0.3,0.1-0.6,0.2-0.9,0.3s-0.7,0.1-1,0.1c-0.9,0-1.6-0.2-2.1-0.7    c-0.5-0.5-0.8-1.2-0.8-2.1c0-0.9,0.2-1.6,0.7-2.1s1.1-0.8,1.9-0.8c0.7,0,1.3,0.2,1.7,0.6s0.6,1,0.6,1.8V220.1z M260.2,219.4    c0-0.5-0.1-0.9-0.4-1.1s-0.6-0.4-1.1-0.4c-0.5,0-0.9,0.1-1.2,0.4s-0.5,0.6-0.5,1.1H260.2z"/> 		<path d="M266,220.2c0.2,0.2,0.3,0.6,0.3,1c0,0.5-0.2,0.9-0.6,1.2s-1,0.5-1.7,0.5c-0.4,0-0.8,0-1.1-0.1c-0.3-0.1-0.6-0.2-0.8-0.3    v-1h0c0.3,0.2,0.6,0.4,1,0.5c0.4,0.1,0.7,0.2,1,0.2c0.4,0,0.7-0.1,0.9-0.2c0.2-0.1,0.3-0.3,0.3-0.6c0-0.2-0.1-0.4-0.2-0.5    c-0.1-0.1-0.4-0.2-0.7-0.3c-0.1,0-0.3-0.1-0.5-0.1s-0.4-0.1-0.6-0.1c-0.5-0.1-0.8-0.3-1-0.6c-0.2-0.2-0.3-0.5-0.3-0.9    c0-0.2,0-0.4,0.1-0.6s0.2-0.4,0.4-0.5c0.2-0.2,0.4-0.3,0.7-0.4c0.3-0.1,0.6-0.1,0.9-0.1c0.3,0,0.7,0,1,0.1    c0.3,0.1,0.6,0.2,0.8,0.3v1h0c-0.2-0.2-0.5-0.3-0.9-0.4c-0.3-0.1-0.7-0.2-1-0.2c-0.3,0-0.6,0.1-0.8,0.2c-0.2,0.1-0.3,0.3-0.3,0.6    c0,0.2,0.1,0.4,0.2,0.5c0.1,0.1,0.4,0.2,0.7,0.3c0.2,0,0.4,0.1,0.6,0.1s0.4,0.1,0.5,0.1C265.4,219.8,265.8,220,266,220.2    L266,220.2z"/> 	</g> 	<g> 		<path d="M95.2,249.6l-2.6,7.3h-1.3l-2.6-7.3h1l2.3,6.4l2.3-6.4H95.2z"/> 		<path d="M97.2,250.5h-1v-1h1V250.5z M97.2,256.8h-0.9v-5.5h0.9V256.8z"/> 		<path d="M99.9,256.8H99v-7.6h0.9V256.8z"/> 		<path d="M106,256.8H105v-0.6c-0.1,0.1-0.2,0.1-0.3,0.2c-0.1,0.1-0.3,0.2-0.4,0.2c-0.2,0.1-0.3,0.1-0.5,0.2c-0.2,0-0.4,0.1-0.7,0.1    c-0.5,0-0.9-0.2-1.3-0.5s-0.5-0.7-0.5-1.2c0-0.4,0.1-0.7,0.3-1c0.2-0.3,0.4-0.5,0.8-0.6c0.3-0.1,0.7-0.2,1.2-0.3s1-0.1,1.5-0.1    v-0.1c0-0.2,0-0.4-0.1-0.5s-0.2-0.2-0.3-0.3c-0.1-0.1-0.3-0.1-0.5-0.2c-0.2,0-0.4,0-0.6,0c-0.2,0-0.5,0-0.8,0.1    c-0.3,0.1-0.6,0.2-0.9,0.3h0v-0.9c0.2,0,0.4-0.1,0.8-0.2s0.7-0.1,1-0.1c0.4,0,0.7,0,1,0.1c0.3,0.1,0.5,0.2,0.7,0.3    c0.2,0.1,0.4,0.3,0.5,0.6s0.2,0.5,0.2,0.9V256.8z M105,255.5V254c-0.3,0-0.6,0-1,0.1c-0.4,0-0.7,0.1-0.9,0.1    c-0.3,0.1-0.5,0.2-0.6,0.3c-0.2,0.2-0.2,0.4-0.2,0.7c0,0.3,0.1,0.5,0.3,0.7c0.2,0.2,0.5,0.2,0.9,0.2c0.3,0,0.6-0.1,0.9-0.2    C104.6,255.8,104.8,255.7,105,255.5z"/> 		<path d="M112.3,256.8h-0.9v-3.1c0-0.3,0-0.5,0-0.7c0-0.2-0.1-0.4-0.2-0.5c-0.1-0.1-0.2-0.2-0.4-0.3c-0.2-0.1-0.4-0.1-0.6-0.1    c-0.3,0-0.5,0.1-0.8,0.2s-0.5,0.3-0.8,0.5v4.1h-0.9v-5.5h0.9v0.6c0.3-0.2,0.6-0.4,0.9-0.6s0.6-0.2,0.9-0.2c0.6,0,1,0.2,1.3,0.5    s0.5,0.9,0.5,1.5V256.8z"/> 		<path d="M118.7,254.1c0,0.9-0.2,1.6-0.7,2.1c-0.5,0.5-1.1,0.8-1.8,0.8c-0.8,0-1.4-0.3-1.8-0.8s-0.7-1.2-0.7-2.1s0.2-1.6,0.7-2.1    c0.5-0.5,1.1-0.8,1.8-0.8c0.8,0,1.4,0.3,1.8,0.8C118.5,252.5,118.7,253.2,118.7,254.1z M117.8,254.1c0-0.7-0.1-1.2-0.4-1.6    c-0.3-0.3-0.7-0.5-1.2-0.5c-0.5,0-0.9,0.2-1.2,0.5c-0.3,0.3-0.4,0.9-0.4,1.6c0,0.7,0.1,1.2,0.4,1.6c0.3,0.4,0.7,0.5,1.2,0.5    c0.5,0,0.9-0.2,1.1-0.5C117.6,255.3,117.8,254.8,117.8,254.1z"/> 		<path d="M124.8,251.4l-2.2,5.5h-0.9l-2.2-5.5h1l1.7,4.3l1.7-4.3H124.8z"/> 		<path d="M130,256.8h-0.9v-0.6c-0.1,0.1-0.2,0.1-0.3,0.2c-0.1,0.1-0.3,0.2-0.4,0.2c-0.2,0.1-0.3,0.1-0.5,0.2    c-0.2,0-0.4,0.1-0.7,0.1c-0.5,0-0.9-0.2-1.3-0.5s-0.5-0.7-0.5-1.2c0-0.4,0.1-0.7,0.3-1c0.2-0.3,0.4-0.5,0.8-0.6    c0.3-0.1,0.7-0.2,1.2-0.3c0.5-0.1,1-0.1,1.5-0.1v-0.1c0-0.2,0-0.4-0.1-0.5s-0.2-0.2-0.3-0.3c-0.1-0.1-0.3-0.1-0.5-0.2    c-0.2,0-0.4,0-0.6,0c-0.2,0-0.5,0-0.8,0.1c-0.3,0.1-0.6,0.2-0.9,0.3h0v-0.9c0.2,0,0.4-0.1,0.8-0.2c0.3-0.1,0.7-0.1,1-0.1    c0.4,0,0.7,0,1,0.1c0.3,0.1,0.5,0.2,0.7,0.3c0.2,0.1,0.4,0.3,0.5,0.6s0.2,0.5,0.2,0.9V256.8z M129.1,255.5V254c-0.3,0-0.6,0-1,0.1    c-0.4,0-0.7,0.1-0.9,0.1c-0.3,0.1-0.5,0.2-0.6,0.3c-0.2,0.2-0.2,0.4-0.2,0.7c0,0.3,0.1,0.5,0.3,0.7c0.2,0.2,0.5,0.2,0.9,0.2    c0.3,0,0.6-0.1,0.9-0.2C128.6,255.8,128.9,255.7,129.1,255.5z"/> 		<path d="M86.8,260.5h-1v-1h1V260.5z M86.8,266.8h-0.9v-5.5h0.9V266.8z"/> 		<path d="M93,266.8h-0.9v-7.6H93V266.8z"/> 		<path d="M99.1,266.8h-0.9v-0.6c-0.1,0.1-0.2,0.1-0.3,0.2c-0.1,0.1-0.3,0.2-0.4,0.2c-0.2,0.1-0.3,0.1-0.5,0.2    c-0.2,0-0.4,0.1-0.7,0.1c-0.5,0-0.9-0.2-1.3-0.5s-0.5-0.7-0.5-1.2c0-0.4,0.1-0.7,0.3-1c0.2-0.3,0.4-0.5,0.8-0.6    c0.3-0.1,0.7-0.2,1.2-0.3s1-0.1,1.5-0.1v-0.1c0-0.2,0-0.4-0.1-0.5s-0.2-0.2-0.3-0.3c-0.1-0.1-0.3-0.1-0.5-0.2s-0.4,0-0.6,0    c-0.2,0-0.5,0-0.8,0.1c-0.3,0.1-0.6,0.2-0.9,0.3h0v-0.9c0.2,0,0.4-0.1,0.8-0.2s0.7-0.1,1-0.1c0.4,0,0.7,0,1,0.1    c0.3,0.1,0.5,0.2,0.7,0.3c0.2,0.1,0.4,0.3,0.5,0.6s0.2,0.5,0.2,0.9V266.8z M98.2,265.5V264c-0.3,0-0.6,0-1,0.1s-0.7,0.1-0.9,0.1    c-0.3,0.1-0.5,0.2-0.6,0.3c-0.2,0.2-0.2,0.4-0.2,0.7c0,0.3,0.1,0.5,0.3,0.7c0.2,0.2,0.5,0.2,0.9,0.2c0.3,0,0.6-0.1,0.9-0.2    C97.7,265.8,97.9,265.7,98.2,265.5z"/> 		<path d="M110.5,266.3c-0.4,0.2-0.8,0.3-1.3,0.5c-0.5,0.1-0.9,0.2-1.4,0.2c-0.6,0-1.1-0.1-1.6-0.2c-0.5-0.2-0.9-0.4-1.2-0.7    c-0.3-0.3-0.6-0.7-0.8-1.2c-0.2-0.5-0.3-1-0.3-1.7c0-1.2,0.3-2.1,1-2.8c0.7-0.7,1.6-1,2.8-1c0.4,0,0.8,0,1.3,0.1    c0.4,0.1,0.9,0.3,1.4,0.5v1.1h-0.1c-0.1-0.1-0.2-0.2-0.4-0.3c-0.2-0.1-0.4-0.2-0.6-0.3c-0.2-0.1-0.5-0.2-0.8-0.3    c-0.3-0.1-0.6-0.1-1-0.1c-0.8,0-1.5,0.3-1.9,0.8c-0.5,0.5-0.7,1.2-0.7,2.1c0,0.9,0.2,1.7,0.7,2.2c0.5,0.5,1.2,0.8,2,0.8    c0.3,0,0.6,0,0.9-0.1c0.3-0.1,0.6-0.1,0.8-0.2V264h-1.9v-0.8h2.9V266.3z"/> 		<path d="M116.7,264.2h-4c0,0.3,0.1,0.6,0.2,0.9c0.1,0.3,0.2,0.5,0.4,0.6c0.2,0.2,0.4,0.3,0.6,0.4s0.5,0.1,0.8,0.1    c0.4,0,0.7-0.1,1.1-0.2c0.4-0.1,0.6-0.3,0.8-0.4h0v1c-0.3,0.1-0.6,0.2-0.9,0.3s-0.7,0.1-1,0.1c-0.9,0-1.6-0.2-2.1-0.7    c-0.5-0.5-0.8-1.2-0.8-2.1c0-0.9,0.2-1.6,0.7-2.1c0.5-0.5,1.1-0.8,1.9-0.8c0.7,0,1.3,0.2,1.7,0.6s0.6,1,0.6,1.8V264.2z     M115.8,263.5c0-0.5-0.1-0.9-0.4-1.1s-0.6-0.4-1.1-0.4c-0.5,0-0.9,0.1-1.2,0.4s-0.5,0.6-0.5,1.1H115.8z"/> 		<path d="M119,266.8h-0.9v-7.6h0.9V266.8z"/> 		<path d="M123.6,266.8c-0.2,0-0.4,0.1-0.6,0.1c-0.2,0-0.4,0-0.5,0c-0.6,0-1-0.1-1.3-0.4c-0.3-0.3-0.4-0.8-0.4-1.4v-2.9h-0.6v-0.8    h0.6v-1.6h0.9v1.6h1.9v0.8h-1.9v2.5c0,0.3,0,0.5,0,0.7c0,0.2,0.1,0.3,0.1,0.5c0.1,0.1,0.2,0.2,0.3,0.3c0.1,0.1,0.3,0.1,0.6,0.1    c0.1,0,0.3,0,0.5-0.1c0.2,0,0.3-0.1,0.4-0.1h0V266.8z"/> 		<path d="M128.1,262.4L128.1,262.4c-0.2,0-0.3-0.1-0.4-0.1c-0.1,0-0.3,0-0.5,0c-0.3,0-0.6,0.1-0.8,0.2c-0.3,0.1-0.5,0.3-0.8,0.5    v3.9h-0.9v-5.5h0.9v0.8c0.4-0.3,0.7-0.5,1-0.6c0.3-0.1,0.6-0.2,0.9-0.2c0.2,0,0.3,0,0.3,0c0.1,0,0.2,0,0.3,0V262.4z"/> 		<path d="M133.5,266.8h-0.9v-0.6c-0.3,0.2-0.6,0.4-0.9,0.6s-0.6,0.2-0.9,0.2c-0.6,0-1-0.2-1.3-0.5c-0.3-0.4-0.5-0.9-0.5-1.5v-3.5    h0.9v3.1c0,0.3,0,0.5,0,0.7c0,0.2,0.1,0.4,0.2,0.5c0.1,0.1,0.2,0.2,0.3,0.3s0.3,0.1,0.6,0.1c0.2,0,0.5-0.1,0.8-0.2    s0.5-0.3,0.8-0.5v-4.1h0.9V266.8z M132.7,258.7l-1.3,1.8h-0.7l0.9-1.8H132.7z"/> 	</g> </g> <g id="text_x005F_exterior"> 	<g> 		<path d="M352.7,116c0,0.4-0.1,0.7-0.2,0.9s-0.3,0.5-0.6,0.7c-0.3,0.2-0.6,0.4-0.9,0.5c-0.3,0.1-0.8,0.1-1.3,0.1h-3.2v-7.3h2.8    c0.6,0,1,0,1.3,0.1c0.3,0,0.5,0.1,0.8,0.3c0.3,0.1,0.5,0.3,0.6,0.6c0.1,0.2,0.2,0.5,0.2,0.8c0,0.4-0.1,0.7-0.3,0.9    s-0.4,0.5-0.8,0.6v0c0.5,0.1,0.9,0.3,1.1,0.6S352.7,115.5,352.7,116z M350.3,113c0-0.1,0-0.2-0.1-0.4c-0.1-0.1-0.2-0.2-0.3-0.3    c-0.1-0.1-0.3-0.1-0.5-0.1c-0.2,0-0.5,0-0.9,0h-0.2v1.5h0.3c0.3,0,0.5,0,0.8,0s0.4,0,0.5-0.1c0.2-0.1,0.3-0.2,0.3-0.3    C350.2,113.3,350.3,113.1,350.3,113z M350.7,115.9c0-0.2,0-0.4-0.1-0.5c-0.1-0.1-0.2-0.2-0.5-0.3c-0.1,0-0.3-0.1-0.6-0.1    c-0.3,0-0.5,0-0.8,0h-0.4v1.8h0.1c0.5,0,0.9,0,1.1,0s0.4,0,0.6-0.1c0.2-0.1,0.3-0.2,0.4-0.3C350.7,116.3,350.7,116.1,350.7,115.9z    "/> 		<path d="M357.3,117.6c-0.1,0.1-0.2,0.2-0.4,0.3c-0.1,0.1-0.3,0.2-0.4,0.2c-0.2,0.1-0.4,0.1-0.5,0.2s-0.4,0.1-0.6,0.1    c-0.5,0-1-0.2-1.3-0.5s-0.5-0.7-0.5-1.2c0-0.4,0.1-0.7,0.3-1c0.2-0.3,0.4-0.5,0.8-0.6c0.3-0.1,0.7-0.3,1.2-0.3    c0.5-0.1,1-0.1,1.5-0.1v0c0-0.3-0.1-0.5-0.4-0.6c-0.2-0.1-0.6-0.2-1.1-0.2c-0.3,0-0.6,0.1-0.9,0.2c-0.3,0.1-0.6,0.2-0.7,0.2H354    v-1.3c0.2,0,0.5-0.1,0.9-0.2c0.4-0.1,0.8-0.1,1.3-0.1c1,0,1.7,0.2,2.2,0.5s0.7,0.8,0.7,1.4v3.7h-1.7V117.6z M357.3,116.8v-1.1    c-0.2,0-0.5,0-0.8,0.1c-0.3,0-0.5,0.1-0.6,0.1c-0.2,0.1-0.3,0.1-0.4,0.2s-0.1,0.2-0.1,0.4c0,0.1,0,0.2,0,0.3s0.1,0.1,0.1,0.2    c0.1,0.1,0.2,0.1,0.3,0.1c0.1,0,0.3,0,0.5,0c0.2,0,0.4,0,0.5-0.1S357.2,116.9,357.3,116.8z"/> 		<path d="M362.5,111.9h-1.9v-1.3h1.9V111.9z M362.4,118.2h-1.8v-5.5h1.8V118.2z"/> 		<path d="M369.8,118.2h-2.1l-1.2-1.6l-1.2,1.6h-2l2.2-2.7l-2.1-2.7h2.1l1.2,1.6l1.2-1.6h2l-2.1,2.7L369.8,118.2z"/> 		<path d="M379.5,118.2h-5.2v-7.3h1.9v5.9h3.4V118.2z"/> 		<path d="M382.3,118.2h-1.8v-7.6h1.8V118.2z"/> 		<path d="M389.6,115.4c0,0.9-0.3,1.6-0.8,2.1c-0.5,0.5-1.3,0.8-2.2,0.8c-1,0-1.7-0.3-2.2-0.8c-0.5-0.5-0.8-1.2-0.8-2.1    c0-0.9,0.3-1.6,0.8-2.1s1.3-0.8,2.2-0.8c1,0,1.7,0.3,2.2,0.8S389.6,114.5,389.6,115.4z M387.4,116.8c0.1-0.1,0.2-0.3,0.3-0.5    c0.1-0.2,0.1-0.5,0.1-0.8c0-0.3,0-0.6-0.1-0.8s-0.1-0.4-0.2-0.5c-0.1-0.1-0.2-0.2-0.4-0.3s-0.3-0.1-0.5-0.1c-0.2,0-0.3,0-0.5,0.1    s-0.3,0.1-0.4,0.3c-0.1,0.1-0.2,0.3-0.3,0.5s-0.1,0.5-0.1,0.8c0,0.3,0,0.6,0.1,0.8c0.1,0.2,0.1,0.4,0.2,0.5    c0.1,0.1,0.2,0.2,0.4,0.3s0.3,0.1,0.5,0.1c0.2,0,0.3,0,0.5-0.1S387.3,116.9,387.4,116.8z"/> 		<path d="M396.6,115.4c0,0.9-0.2,1.6-0.7,2.1s-1.1,0.8-1.8,0.8c-0.3,0-0.6,0-0.8-0.1c-0.2-0.1-0.5-0.2-0.7-0.3l-0.1,0.3h-1.7v-7.6    h1.8v2.7c0.3-0.2,0.5-0.4,0.8-0.5s0.6-0.2,1-0.2c0.7,0,1.2,0.3,1.6,0.7C396.4,113.8,396.6,114.5,396.6,115.4z M394.8,115.4    c0-0.5-0.1-0.9-0.2-1.1s-0.5-0.4-0.9-0.4c-0.2,0-0.3,0-0.5,0.1c-0.2,0.1-0.3,0.1-0.5,0.2v2.7c0.1,0,0.2,0.1,0.4,0.1    c0.1,0,0.3,0,0.4,0c0.5,0,0.8-0.1,1-0.4C394.6,116.4,394.8,116,394.8,115.4z"/> 		<path d="M401.8,114.4h-0.2c-0.1,0-0.2,0-0.4-0.1c-0.2,0-0.3,0-0.4,0c-0.3,0-0.5,0-0.7,0s-0.4,0.1-0.6,0.2v3.7h-1.8v-5.5h1.8v0.8    c0.4-0.3,0.7-0.6,1-0.7c0.3-0.1,0.5-0.2,0.8-0.2c0.1,0,0.1,0,0.2,0s0.1,0,0.2,0V114.4z"/> 		<path d="M408.2,115.8h-4c0,0.4,0.2,0.8,0.5,1s0.7,0.3,1.3,0.3c0.4,0,0.7-0.1,1.1-0.2c0.3-0.1,0.6-0.3,0.8-0.4h0.2v1.4    c-0.4,0.2-0.8,0.3-1.1,0.3s-0.7,0.1-1.2,0.1c-1.1,0-1.9-0.2-2.5-0.7s-0.9-1.2-0.9-2.1c0-0.9,0.3-1.6,0.8-2.2    c0.6-0.5,1.3-0.8,2.3-0.8c0.9,0,1.6,0.2,2,0.7c0.4,0.5,0.7,1.1,0.7,1.9V115.8z M406.5,114.7c0-0.4-0.1-0.6-0.3-0.8    c-0.2-0.2-0.4-0.3-0.8-0.3c-0.3,0-0.6,0.1-0.8,0.3c-0.2,0.2-0.3,0.5-0.4,0.8H406.5z"/> 		<path d="M414.8,117.6c0,0.5-0.1,0.9-0.2,1.3s-0.4,0.6-0.6,0.8c-0.3,0.2-0.6,0.3-1,0.4c-0.4,0.1-0.8,0.1-1.3,0.1    c-0.4,0-0.8,0-1.1-0.1c-0.4,0-0.7-0.1-1-0.2v-1.4h0.2c0.2,0.1,0.5,0.2,0.8,0.2c0.3,0.1,0.6,0.1,0.8,0.1c0.3,0,0.6,0,0.8-0.1    s0.4-0.1,0.5-0.3c0.1-0.1,0.2-0.2,0.2-0.4c0-0.2,0.1-0.4,0.1-0.6v-0.1c-0.2,0.2-0.4,0.3-0.7,0.4s-0.5,0.2-0.9,0.2    c-0.8,0-1.4-0.2-1.8-0.7s-0.6-1.2-0.6-2.1c0-0.5,0.1-0.8,0.2-1.2s0.3-0.6,0.5-0.9c0.2-0.2,0.5-0.4,0.8-0.5c0.3-0.1,0.6-0.2,1-0.2    c0.3,0,0.6,0,0.8,0.1c0.2,0.1,0.5,0.2,0.7,0.3l0.1-0.2h1.7V117.6z M413,116.5V114c-0.1,0-0.2-0.1-0.4-0.1c-0.1,0-0.3,0-0.4,0    c-0.5,0-0.8,0.1-1,0.4c-0.2,0.3-0.3,0.6-0.3,1.1c0,0.5,0.1,0.9,0.3,1.1c0.2,0.2,0.5,0.3,0.9,0.3c0.2,0,0.3,0,0.5-0.1    S412.9,116.5,413,116.5z"/> 		<path d="M419.8,117.6c-0.1,0.1-0.2,0.2-0.4,0.3c-0.1,0.1-0.3,0.2-0.4,0.2c-0.2,0.1-0.4,0.1-0.5,0.2s-0.4,0.1-0.6,0.1    c-0.5,0-1-0.2-1.3-0.5s-0.5-0.7-0.5-1.2c0-0.4,0.1-0.7,0.3-1c0.2-0.3,0.4-0.5,0.8-0.6c0.3-0.1,0.7-0.3,1.2-0.3    c0.5-0.1,1-0.1,1.5-0.1v0c0-0.3-0.1-0.5-0.4-0.6c-0.2-0.1-0.6-0.2-1.1-0.2c-0.3,0-0.6,0.1-0.9,0.2c-0.3,0.1-0.6,0.2-0.7,0.2h-0.2    v-1.3c0.2,0,0.5-0.1,0.9-0.2c0.4-0.1,0.8-0.1,1.3-0.1c1,0,1.7,0.2,2.2,0.5s0.7,0.8,0.7,1.4v3.7h-1.7V117.6z M419.8,116.8v-1.1    c-0.2,0-0.5,0-0.8,0.1c-0.3,0-0.5,0.1-0.6,0.1c-0.2,0.1-0.3,0.1-0.4,0.2s-0.1,0.2-0.1,0.4c0,0.1,0,0.2,0,0.3s0.1,0.1,0.1,0.2    c0.1,0.1,0.2,0.1,0.3,0.1c0.1,0,0.3,0,0.5,0c0.2,0,0.4,0,0.5-0.1S419.6,116.9,419.8,116.8z"/> 		<path d="M426.6,118.1c-0.2,0-0.4,0.1-0.6,0.1c-0.2,0-0.5,0-0.8,0c-0.7,0-1.2-0.1-1.5-0.4c-0.3-0.3-0.5-0.8-0.5-1.4v-2.6h-0.7v-1.2    h0.7v-1.6h1.8v1.6h1.6v1.2H425v1.9c0,0.2,0,0.4,0,0.5c0,0.1,0,0.3,0.1,0.4c0,0.1,0.1,0.2,0.2,0.3s0.3,0.1,0.5,0.1    c0.1,0,0.2,0,0.4-0.1s0.3-0.1,0.3-0.1h0.1V118.1z"/> 	</g> 	<g> 		<path d="M101.8,79.4h-1.9L99.4,78h-2.7l-0.5,1.5h-1.9l2.7-7.3h2.2L101.8,79.4z M99,76.6L98.1,74l-0.9,2.6H99z"/> 		<path d="M104.6,79.4h-1.8v-7.6h1.8V79.4z"/> 		<path d="M109.7,79.4c-0.2,0-0.4,0.1-0.6,0.1c-0.2,0-0.5,0-0.8,0c-0.7,0-1.2-0.1-1.5-0.4c-0.3-0.3-0.5-0.8-0.5-1.4v-2.6h-0.7V74    h0.7v-1.6h1.8V74h1.6v1.2h-1.6v1.9c0,0.2,0,0.4,0,0.5c0,0.1,0,0.3,0.1,0.4c0,0.1,0.1,0.2,0.2,0.3c0.1,0.1,0.3,0.1,0.5,0.1    c0.1,0,0.2,0,0.4-0.1c0.1,0,0.3-0.1,0.3-0.1h0.1V79.4z"/> 		<path d="M120.3,74.5c0,0.3-0.1,0.6-0.2,1c-0.1,0.3-0.3,0.6-0.5,0.8c-0.3,0.3-0.6,0.5-1,0.6s-0.8,0.2-1.3,0.2h-1.2v2.4h-1.9v-7.3    h3.1c0.5,0,0.9,0,1.2,0.1c0.3,0.1,0.6,0.2,0.8,0.4c0.3,0.2,0.5,0.4,0.7,0.7C120.2,73.7,120.3,74,120.3,74.5z M118.3,74.5    c0-0.2-0.1-0.4-0.2-0.5c-0.1-0.1-0.2-0.3-0.4-0.3c-0.2-0.1-0.4-0.1-0.6-0.1c-0.2,0-0.4,0-0.7,0h-0.3v2.2h0.5c0.3,0,0.6,0,0.8-0.1    c0.2,0,0.4-0.1,0.5-0.2c0.1-0.1,0.2-0.2,0.3-0.4S118.3,74.7,118.3,74.5z"/> 		<path d="M126.9,77h-4c0,0.4,0.2,0.8,0.5,1c0.3,0.2,0.7,0.3,1.3,0.3c0.4,0,0.7-0.1,1.1-0.2c0.3-0.1,0.6-0.3,0.8-0.4h0.2v1.4    c-0.4,0.2-0.8,0.3-1.1,0.3c-0.4,0.1-0.7,0.1-1.2,0.1c-1.1,0-1.9-0.2-2.5-0.7c-0.6-0.5-0.9-1.2-0.9-2.1c0-0.9,0.3-1.6,0.8-2.2    c0.6-0.5,1.3-0.8,2.3-0.8c0.9,0,1.6,0.2,2,0.7c0.4,0.5,0.7,1.1,0.7,1.9V77z M125.2,76c0-0.4-0.1-0.6-0.3-0.8s-0.4-0.3-0.8-0.3    c-0.3,0-0.6,0.1-0.8,0.3s-0.3,0.5-0.4,0.8H125.2z"/> 		<path d="M133.7,79.4h-1.8v-2.7c0-0.2,0-0.4,0-0.7s-0.1-0.4-0.1-0.5c-0.1-0.1-0.2-0.2-0.3-0.3c-0.1-0.1-0.3-0.1-0.5-0.1    c-0.2,0-0.3,0-0.5,0.1c-0.2,0.1-0.3,0.1-0.5,0.2v3.9h-1.8V74h1.8v0.6c0.3-0.2,0.6-0.4,0.9-0.6c0.3-0.1,0.6-0.2,1-0.2    c0.6,0,1.1,0.2,1.4,0.5c0.3,0.3,0.5,0.9,0.5,1.5V79.4z"/> 		<path d="M140.7,77h-4c0,0.4,0.2,0.8,0.5,1c0.3,0.2,0.7,0.3,1.3,0.3c0.4,0,0.7-0.1,1.1-0.2c0.3-0.1,0.6-0.3,0.8-0.4h0.2v1.4    c-0.4,0.2-0.8,0.3-1.1,0.3c-0.4,0.1-0.7,0.1-1.2,0.1c-1.1,0-1.9-0.2-2.5-0.7c-0.6-0.5-0.9-1.2-0.9-2.1c0-0.9,0.3-1.6,0.8-2.2    c0.6-0.5,1.3-0.8,2.3-0.8c0.9,0,1.6,0.2,2,0.7c0.4,0.5,0.7,1.1,0.7,1.9V77z M138.9,76c0-0.4-0.1-0.6-0.3-0.8    c-0.2-0.2-0.4-0.3-0.8-0.3c-0.3,0-0.6,0.1-0.8,0.3c-0.2,0.2-0.3,0.5-0.4,0.8H138.9z"/> 		<path d="M147.3,79.4h-1.8v-0.6c-0.3,0.2-0.6,0.4-0.8,0.5c-0.3,0.1-0.6,0.2-0.9,0.2c-0.7,0-1.2-0.3-1.6-0.8    c-0.4-0.5-0.6-1.2-0.6-2.1c0-0.5,0.1-0.9,0.2-1.2c0.1-0.4,0.3-0.7,0.6-0.9c0.2-0.2,0.5-0.4,0.8-0.6c0.3-0.1,0.6-0.2,0.9-0.2    c0.3,0,0.6,0,0.8,0.1c0.2,0.1,0.4,0.2,0.6,0.3v-2.3h1.8V79.4z M145.5,77.9v-2.7c-0.1-0.1-0.3-0.1-0.4-0.1c-0.1,0-0.3,0-0.4,0    c-0.5,0-0.8,0.1-1,0.4c-0.2,0.3-0.3,0.7-0.3,1.2c0,0.5,0.1,0.9,0.3,1.2s0.5,0.4,0.9,0.4c0.2,0,0.3,0,0.5-0.1    C145.2,78.1,145.4,78,145.5,77.9z"/> 		<path d="M154.3,77h-4c0,0.4,0.2,0.8,0.5,1c0.3,0.2,0.7,0.3,1.3,0.3c0.4,0,0.7-0.1,1.1-0.2c0.3-0.1,0.6-0.3,0.8-0.4h0.2v1.4    c-0.4,0.2-0.8,0.3-1.1,0.3c-0.4,0.1-0.7,0.1-1.2,0.1c-1.1,0-1.9-0.2-2.5-0.7c-0.6-0.5-0.9-1.2-0.9-2.1c0-0.9,0.3-1.6,0.8-2.2    c0.6-0.5,1.3-0.8,2.3-0.8c0.9,0,1.6,0.2,2,0.7c0.4,0.5,0.7,1.1,0.7,1.9V77z M152.7,73.2h-1.2l-1.7-1.8v-0.1h1.7L152.7,73.2z     M152.6,76c0-0.4-0.1-0.6-0.3-0.8s-0.4-0.3-0.8-0.3c-0.3,0-0.6,0.1-0.8,0.3s-0.3,0.5-0.4,0.8H152.6z"/> 		<path d="M160.3,77.7c0,0.6-0.3,1-0.8,1.4s-1.2,0.5-2.1,0.5c-0.5,0-0.9,0-1.3-0.1c-0.4-0.1-0.7-0.2-1-0.3v-1.4h0.2    c0.1,0.1,0.2,0.1,0.3,0.2s0.3,0.2,0.5,0.2c0.2,0.1,0.4,0.1,0.6,0.2c0.2,0.1,0.5,0.1,0.7,0.1c0.3,0,0.6,0,0.8-0.1    c0.2-0.1,0.2-0.2,0.2-0.3c0-0.1,0-0.2-0.1-0.3c-0.1-0.1-0.3-0.1-0.6-0.2c-0.1,0-0.3-0.1-0.5-0.1s-0.4-0.1-0.6-0.1    c-0.5-0.1-0.9-0.3-1.1-0.6c-0.2-0.3-0.4-0.6-0.4-1c0-0.5,0.3-1,0.7-1.3c0.5-0.3,1.2-0.5,2-0.5c0.4,0,0.8,0,1.2,0.1    s0.7,0.2,0.9,0.3v1.4h-0.2c-0.3-0.2-0.6-0.3-0.9-0.4s-0.7-0.2-1-0.2c-0.3,0-0.5,0-0.7,0.1s-0.3,0.2-0.3,0.3c0,0.1,0,0.2,0.1,0.3    s0.3,0.1,0.6,0.2c0.2,0,0.4,0.1,0.6,0.1s0.4,0.1,0.6,0.1c0.5,0.1,0.8,0.3,1,0.6C160.2,77,160.3,77.3,160.3,77.7z"/> 	</g> </g> <g id="llegenda"> 	<line style="fill:none;stroke:#9A9A9A;stroke-width:2;stroke-miterlimit:10;" x1="107.2" y1="-93.1" x2="107.2" y2="-63.6"/> 	<g> 		<path d="M114.9-82.7h0.9v7.1h-0.9V-82.7z"/> 		<path d="M118.2-81.8c0,0.3-0.2,0.5-0.6,0.5c-0.3,0-0.5-0.2-0.5-0.5s0.2-0.5,0.5-0.5C118-82.3,118.2-82.1,118.2-81.8z M117.3-75.6    v-4.8h0.9v4.8H117.3z"/> 		<path d="M119.6-79.1c0-0.5,0-0.9,0-1.3h0.8l0,0.8h0c0.2-0.4,0.8-0.9,1.6-0.9c0.7,0,1.7,0.4,1.7,2.1v2.9h-0.9v-2.8    c0-0.8-0.3-1.4-1.1-1.4c-0.6,0-1,0.4-1.2,0.9c0,0.1-0.1,0.3-0.1,0.4v2.9h-0.9V-79.1z"/> 	</g> 	<line style="fill:none;stroke:#696969;stroke-width:2;stroke-miterlimit:10;" x1="107.2" y1="-53.5" x2="107.2" y2="-24"/> 	<g> 		<path d="M114.9-43.1h0.9v7.1h-0.9V-43.1z"/> 		<path d="M118.2-42.2c0,0.3-0.2,0.5-0.6,0.5c-0.3,0-0.5-0.2-0.5-0.5s0.2-0.5,0.5-0.5C118-42.7,118.2-42.5,118.2-42.2z M117.3-36    v-4.8h0.9v4.8H117.3z"/> 		<path d="M119.6-39.5c0-0.5,0-0.9,0-1.3h0.8l0,0.8h0c0.2-0.4,0.8-0.9,1.6-0.9c0.7,0,1.7,0.4,1.7,2.1v2.9h-0.9v-2.8    c0-0.8-0.3-1.4-1.1-1.4c-0.6,0-1,0.4-1.2,0.9c0,0.1-0.1,0.3-0.1,0.4v2.9h-0.9V-39.5z"/> 	</g> 	<rect x="101.8" y="-117.7" style="fill:#BFBFBF;" width="16.3" height="15.3"/> 	<rect x="101.8" y="-145.3" style="fill:#DCE9FB;" width="16.3" height="15.3"/> 	<g> 		<path d="M127.3-108.3v-4.2h-0.7v-0.7h0.7v-0.2c0-0.7,0.2-1.3,0.6-1.7c0.3-0.3,0.8-0.4,1.2-0.4c0.3,0,0.6,0.1,0.7,0.1l-0.1,0.7    c-0.1-0.1-0.3-0.1-0.6-0.1c-0.7,0-0.9,0.6-0.9,1.4v0.3h1.2v0.7h-1.2v4.2H127.3z"/> 		<path d="M134.4-110.8c0,1.8-1.2,2.6-2.4,2.6c-1.3,0-2.3-1-2.3-2.5c0-1.6,1.1-2.6,2.4-2.6C133.5-113.3,134.4-112.3,134.4-110.8z     M130.6-110.7c0,1.1,0.6,1.9,1.5,1.9c0.8,0,1.5-0.8,1.5-1.9c0-0.8-0.4-1.8-1.4-1.8C131-112.6,130.6-111.7,130.6-110.7z"/> 		<path d="M135.5-111.9c0-0.5,0-0.9,0-1.3h0.8l0,0.8h0c0.2-0.4,0.8-0.9,1.6-0.9c0.7,0,1.7,0.4,1.7,2.1v2.9h-0.9v-2.8    c0-0.8-0.3-1.4-1.1-1.4c-0.6,0-1,0.4-1.2,0.9c0,0.1-0.1,0.3-0.1,0.4v2.9h-0.9V-111.9z"/> 		<path d="M141-109.2c0.3,0.2,0.7,0.3,1.2,0.3c0.6,0,0.9-0.3,0.9-0.7c0-0.4-0.3-0.6-0.9-0.9c-0.9-0.3-1.3-0.8-1.3-1.4    c0-0.8,0.6-1.4,1.7-1.4c0.5,0,0.9,0.1,1.2,0.3l-0.2,0.6c-0.2-0.1-0.5-0.3-1-0.3c-0.5,0-0.8,0.3-0.8,0.7c0,0.4,0.3,0.6,0.9,0.8    c0.8,0.3,1.3,0.7,1.3,1.4c0,0.9-0.7,1.5-1.8,1.5c-0.5,0-1-0.1-1.4-0.3L141-109.2z"/> 	</g> 	<g> 		<path d="M127.3-139.2c0-0.5,0-0.9,0-1.3h0.8l0,0.8h0c0.3-0.5,0.7-0.9,1.5-0.9c0.6,0,1.1,0.4,1.4,1h0c0.1-0.3,0.4-0.5,0.5-0.6    c0.3-0.2,0.6-0.3,1.1-0.3c0.6,0,1.6,0.4,1.6,2.1v2.8h-0.9v-2.7c0-0.9-0.3-1.5-1-1.5c-0.5,0-0.9,0.4-1,0.8c0,0.1-0.1,0.3-0.1,0.4v3    h-0.9v-2.9c0-0.8-0.3-1.3-1-1.3c-0.5,0-0.9,0.4-1.1,0.9c-0.1,0.1-0.1,0.3-0.1,0.4v2.9h-0.9V-139.2z"/> 		<path d="M139-136.8c0,0.4,0,0.8,0.1,1.2h-0.8l-0.1-0.6h0c-0.3,0.4-0.8,0.7-1.5,0.7c-1,0-1.5-0.7-1.5-1.4c0-1.2,1-1.8,2.9-1.8v-0.1    c0-0.4-0.1-1.1-1.1-1.1c-0.5,0-0.9,0.1-1.3,0.4l-0.2-0.6c0.4-0.3,1-0.4,1.6-0.4c1.5,0,1.8,1,1.8,2V-136.8z M138.1-138.1    c-1,0-2,0.1-2,1.1c0,0.6,0.4,0.8,0.8,0.8c0.6,0,1-0.4,1.2-0.8c0-0.1,0-0.2,0-0.3V-138.1z"/> 		<path d="M140.4-139c0-0.6,0-1.1,0-1.5h0.8l0,1h0c0.2-0.6,0.8-1.1,1.3-1.1c0.1,0,0.2,0,0.2,0v0.8c-0.1,0-0.2,0-0.3,0    c-0.6,0-1.1,0.5-1.2,1.1c0,0.1,0,0.3,0,0.4v2.6h-0.9V-139z"/> 	</g> 	<circle style="fill-rule:evenodd;clip-rule:evenodd;fill:#5B7EBD;" cx="107.2" cy="-8.9" r="2.4"/> 	<rect x="77.4" y="-117.7" style="fill:#BFBFBF;stroke:#9A9A9A;stroke-width:2;stroke-miterlimit:10;" width="16.3" height="15.3"/> 	<rect x="52.6" y="-117.7" style="fill:#FFFBF0;stroke:#9A9A9A;stroke-width:2;stroke-miterlimit:10;" width="16.3" height="15.3"/> 	<rect x="43.3" y="-87.1" style="opacity:0.6;fill:#FFFBF0;" width="51" height="17.5"/> </g> </svg>