<svg xmlns="http://www.w3.org/2000/svg" xmlns:xlink="http://www.w3.org/1999/xlink" version="1.1" x="0px" y="0px" width="450px" height="450px" viewBox="0 0 450 450" style="enable-background:new 0 0 450 450;" xml:space="preserve"> <g id="Capa_6"> 	<rect x="-68.3" y="-80.9" style="fill-rule:evenodd;clip-rule:evenodd;fill:#DCE9FB;" width="584.4" height="597.6"/> </g> <g id="color_comarques"> 	<path style="fill-rule:evenodd;clip-rule:evenodd;fill:#FFFBF0;" d="M301.7-145.2c0.8,0.4-0.6,2.5-0.8,2.9   c-0.1,0.2-1.5,1.4-1.6,0.8C298.9-142.7,300.3-145.8,301.7-145.2z"/> 	<path style="fill-rule:evenodd;clip-rule:evenodd;fill:#FFFBF0;" d="M316.5-107.3l-2.3-0.8C312.8-112,316.5-109.4,316.5-107.3z"/> 	<a> 		<path style="fill:#BFBFBF;stroke:#696969;stroke-width:2;stroke-miterlimit:10;" d="M505.6,52.8c0,0-41.6,28.8-60.1,27.2    l-8.7,44.2c0,0,10.3,2.1,20.5,10.3c10.3,8.2,9.8,12.8,1,19.5S444,167.4,444,167.4l-22.6-13.8L400.8,192l-9.2-2.6    c0,0-21.6,31.3-18,42.1c3.6,10.8,6.7,28.3,2.1,32.4c-4.6,4.1-14.4,10.3-10.3,13.9c4.1,3.6,10.7,9.8,10.7,9.8l-4,11.3l-9.6,10.7    l16.8,30.4c0,0-12.4,2.9-14.9,6.3c-2.5,3.4-9,5.8-15.8,0.8l-3.1,18.4l23.6,18.6c0,0-0.5-9.2,10.3-4.1c10.8,5.1,7.7,13.4,19.5,18    c11.8,4.6,16.4-6.7,20.5,1.5c4.1,8.2,7.2,17.5,14.4,23.1c7.2,5.6,13.4,8.7,11.3,14.9c-2.1,6.2-7.4,12.8-7.4,12.8l72.7,26.2    L505.6,52.8z"/> 	</a> 	<a> 		<path style="fill:#BFBFBF;stroke:#696969;stroke-width:2;stroke-miterlimit:10;" d="M-62,434.5c0,0,31.3-7.7,38-20    s54.8-59.3,54.8-59.3l78.6,40.6c0,0,4.2-6.2,8.6-3.2s13.6,9.2,20.8-1.1c7.2-10.3,2.1-24.1,36.5-10.3l11.3,9.8l-9.8,18l0.3,12.5    l13.4,3.7c0,0-0.2,12.6-6.2,14.1c-6,1.5-11.9,6.2-11.9,6.2l7,23.6c0,0,52.1-0.8,56.6-15.8c0,0,6.6,9.1,17.4,1.4    c10.8-7.7,19.5-15.4,22.1-9.8c2.6,5.7,10.8-2.6,13.9-10.8c3.1-8.2,9.8-22.1,9.8-22.1s28.3,11.8,33.4,2.1    c5.1-9.8-25.2-15.4-22.6-29.3c2.6-13.9,13.3-26.7,13.3-26.7l22.1,7.6l23.6,18.6c0,0,0-10.8,10.3-4.1c10.3,6.7,14.9,21.1,25.7,18.5    c10.8-2.6,11.8-4.6,14.4,1c2.6,5.7,6.7,19,14.4,23.1c7.7,4.1,13.9,9.2,11.3,14.9c-2.6,5.7-7.4,12.8-7.4,12.8l72.7,26.2l-1,31.8    l-565.5,4.6L-62,434.5z"/> 	</a> 	<a> 		<path style="fill-rule:evenodd;clip-rule:evenodd;fill:#BFBFBF;stroke:#696969;stroke-width:2;stroke-miterlimit:10;" d="    M-69.2,292.7c0,0,37.5,4.1,37.5-7.2c0,0-1.8-6,6.2-7.7c7.9-1.7,19.5-5.7,19.5-5.7l9.8,4.1l7.2,16.4c0,0,19-9.8,27.7,10.3    c8.7,20,11.6,25-5,27.4c0,0,4.8,18.3-2.8,24.7L-24,414.4c0,0-1,8.7-34.4,20L-69.2,292.7z"/> 	</a> 	<a> 		<path style="fill:#BFBFBF;stroke:#696969;stroke-width:2;stroke-miterlimit:10;" d="M-51.7,122.7l33.6-28.4l-15.1-13.7    c0,0,14.4-19,14.4-28.3l15.9,11.3c0,0,20-5.7,26.7-18S87-19.1,110.6-12.9l61.6-37l25.7,26.2L213.3-34c0,0,18,10.3,21.1,2.6    s0-26.2,0-26.2l80.6,3.1c0,0-8.7,17-6.2,29.8l-10.5,0.1L279.7-7.9c0,0,8.6,6.3,4,10.4c-4.6,4.1-25.2,24.1-25.2,24.1    S239,78,230.3,79c-8.7,1-13.9,5.3-13.9,5.3l-32.4,22.4c0,0-3.4,12.2-5.1,26.6c-1.3,11,0.2,19.8-0.3,24.2    c-0.7,6.3-3.5,11.1-6.4,13.6c-2.7,2.5-6.8,2-11.7,3c-6.1,1.3-13.2,4.1-21.8,2.3l-17.5-18c0,0-31.8,12.7-37.5,29.2    c-5.7,16.5-6.2,21.2-6.2,21.2l-18.9,1.7c0,0-4.4-8.8-13-6.6s-29.7,24.4-29.7,24.4L16,238l-14.6,0.2c0,0,7.5,30.4,2.4,38.1    l-9.8-4.1l-19.5,5.7c0,0-7.2,1.5-6.2,7.7s-9.8,8.7-20.5,8.2S-51.7,122.7-51.7,122.7z"/> 	</a> 	<a> 		<path style="fill-rule:evenodd;clip-rule:evenodd;fill:#BFBFBF;stroke:#696969;stroke-width:2;stroke-miterlimit:10;" d="    M-51.7,122.7l33.6-28.4l-15.1-13.7c0,0,14.4-19,14.4-28.3l15.9,11.3c0,0,20-6.2,25.7-16.4c5.6-10.3,57.5-62.7,87.8-60.1l61.6-37    l25.7,26.2L213.3-34c0,0,16.4,10.8,21.1,2.6s0-26.2,0-26.2l-291.8-7.2L-51.7,122.7z"/> 	</a> </g> <g id="c_x5F_pla_de_mallorca"> 	<a> 		<path style="fill-rule:evenodd;clip-rule:evenodd;fill:#FFFBF0;stroke:#9A9A9A;stroke-width:2;stroke-miterlimit:10;" d="    M311.2,297.4c7.3,14,11.8,9,27.2,6.4c11.5-2,33.7-4.9,32.8-4.7c0.9-0.1-5.1,7.4-8.8,10.5c7.8,8,11.8,20.5,16.8,30.4    c-5.9,1.6-10.6,2-14.9,6.3c-7,7.1-6.9,5.3-15.8,0.8c-1,6.1-2.1,12.3-3.1,18.4c-19.7-5.2-23.9-9-37.5-24.4    c-4.2-4.8-11.9-4.4-10.8-10.6c1.9-11.1,0.9-13.6-4.2-23.8C299.9,304.9,305.6,302,311.2,297.4L311.2,297.4z"/> 	</a> 	<a> 		<path style="fill:#FFFBF0;stroke:#9A9A9A;stroke-width:2;stroke-miterlimit:10;" d="M308.9-24.7l-10.5,0.1L279.7-7.9    c0,0,9.6,5.2,4,10.4c-5.6,5.1-25.2,24.1-25.2,24.1S241.1,73.9,232.9,78c-8.2,4.1-8.5,1.7-16.6,6l5.4,16.3l51.9,31.3l72.7-102.9    C346.2,28.7,311.9-8.8,308.9-24.7z"/> 	</a> 	<a> 		<path style="fill-rule:evenodd;clip-rule:evenodd;fill:#FFFBF0;stroke:#9A9A9A;stroke-width:2;stroke-miterlimit:10;" d="    M346.2,28.7l-72.7,102.9c0,0,3.6,7.7,8.2,6.1c4.6-1.6,6.2-2.1,9.8,1s22.6,28.3,36,23.1c13.4-5.1,33.9-26,33.9-26l15.2,6.5    c0,0,31.6-27.6,35.4-11.5c0,0-2.9,8.4,10.5,13c0,0,2.1-20,14.4-19.5l8.7-44.2C445.5,80,374.2,49.7,346.2,28.7z"/> 	</a> 	<a> 		<path style="fill-rule:evenodd;clip-rule:evenodd;fill:#FFFBF0;stroke:#9A9A9A;stroke-width:2;stroke-miterlimit:10;" d="    M273.5,131.5l-51.9-31.3L216.3,84l-32.2,22.8c0,0-10.1,39.6-4.1,50.9c2.3,4.4,11.5,6.3,18.9,10.7c17.9,10.9,40.7,23.2,40.7,23.2    L273.5,131.5z"/> 	</a> 	<a> 		<path style="fill-rule:evenodd;clip-rule:evenodd;fill:#FFFBF0;stroke:#9A9A9A;stroke-width:2;stroke-miterlimit:10;" d="    M239.5,191.5l34-60c0,0,3.5,8.6,9.7,5.5c6.2-3.1,10.8,2.6,16.9,9.8c6.2,7.2,16.4,19,29.3,13.4c12.8-5.6,31.9-24.4,31.9-24.4    l16.9,6.5l-16.6,19.6c0,0,0.1,12.8-6.5,12.8c-6.7,0-6.2-0.5-9.2,3.6c-3.1,4.1-8.7,11.8-11.3,8.2s-4.8-3.9-4.8-3.9l-75.5,15.7    L239.5,191.5z"/> 	</a> 	<a> 		<path style="fill-rule:evenodd;clip-rule:evenodd;fill:#FFFBF0;stroke:#9A9A9A;stroke-width:2;stroke-miterlimit:10;" d="    M296,218.2c0,0-14.4-20-7.7-27.7l41.4-8c0,0,3.3,6.5,8.4,3.4c5.1-3.1,7.7-12.3,14.4-12.3c6.7,0,9.1-11.7,9.1-11.7l14.9-19.6    c0,0,31.6-28.7,35.4-11.5c0,0-4.9-0.3-6.5,3.3c-1.5,3.6,0,8.7-6.2,10.3s-9.1,13.4-10.6,21.6c-1.5,8.2-36.8,88.4-65.5,60.1    l-5.1,3.6l-8.2-5.1c0,0,1-8.7-5.7-10.3C297.6,212.6,296,218.2,296,218.2z"/> 	</a> 	<a> 		<path style="fill-rule:evenodd;clip-rule:evenodd;fill:#FFFBF0;stroke:#9A9A9A;stroke-width:2;stroke-miterlimit:10;" d="    M274.1,243.6c0,0,22.4-16.7,21.9-25.4c0,0,0.5-7.2,8.2-4.1s5.7,10.3,5.7,10.3l8.2,5.1l5.1-3.6c0,0,7.8,10.3,23.2,2.5    s37-45.2,41.1-60.6c4.1-15.4,4.1-22.1,11.8-23.6s4.7-16.3,12.6-13.6c0,0-0.8,7.9,10.5,13c0,0,4.1-21.6,14.4-19.5    c10.3,2.1,35.4,13.9,24.7,26.2S444,167.4,444,167.4l-22.6-13.8L400.8,192l-9.2-2.6c0,0-20.5,30.3-18,42.1    c2.6,11.8,8.7,26.7,2.1,32.4s-13.9,8.7-10.3,13.9c3.6,5.1,10.7,9.8,10.7,9.8l-4,11.3c0,0-46.7,9.8-53.4,8.2    c-6.7-1.5-7.4-9.7-7.4-9.7L272.7,268C272.7,268,282,262.9,274.1,243.6z"/> 	</a> 	<a> 		<path style="fill-rule:evenodd;clip-rule:evenodd;fill:#FFFBF0;stroke:#9A9A9A;stroke-width:2;stroke-miterlimit:10;" d="    M179.9,157.6l-7.6,13.6c0,0,5.5,7.4,1.4,17.7c-4.1,10.3-14.9,19.5-6.2,27.2c8.7,7.7,65.5,47.8,65.5,47.8s5.9-6.2,0.9-10.9    l16.3-12.7c0,0,10.3,13.9,17,9.8c6.7-4.1,29.8-23.6,28.8-31.8c0,0-13.4-15.4-7.7-27.7l-34.1,7.7l-14.7-6.6L179.9,157.6z"/> 	</a> 	<a> 		<path style="fill-rule:evenodd;clip-rule:evenodd;fill:#FFFBF0;stroke:#9A9A9A;stroke-width:2;stroke-miterlimit:10;" d="    M172.4,171.2c0,0-6.6,2.1-14.5,3.6c-5.9,1.1-12.4,1.9-17.4,1.2l-5.5,5.7l-20.7,16.9c0,0,9.8,31.3,13.4,30.3s22.6-4.7,19.3,13.8    l13-2.7c0,0,4-10.1-2.6-15l10.4-8.9c0,0-6.7-4.6-2.1-11.3C171.3,196.5,181.7,179.2,172.4,171.2z"/> 	</a> 	<a> 		<path style="fill-rule:evenodd;clip-rule:evenodd;fill:#FFFBF0;stroke:#9A9A9A;stroke-width:2;stroke-miterlimit:10;" d="    M167.6,216.2l-10.4,8.9c0,0,11.9,11.6-10.7,35.8l13.3,17.5l6.6-7.4c0,0,19,19.2,24.8,7.7c0,0-3-10.5,10.9-11    c13.9-0.5,11.3,0.5,13.4-3.1c2.1-3.6,12.9,6.1,17.8-0.5L167.6,216.2z"/> 	</a> 	<a> 		<path style="fill-rule:evenodd;clip-rule:evenodd;fill:#FFFBF0;stroke:#9A9A9A;stroke-width:2;stroke-miterlimit:10;" d="    M114.2,198.7l20.7-16.9l4-5.2l-17.5-18c0,0-28.8,9.8-36,26.2c-7.2,16.4-7.7,24.1-7.7,24.1l-18.9,1.7c0,0-2.2-8.4-11.4-6.8    s-20.9,14.9-20.9,14.9s31.1,17,16,34.9l20.7,27.4c0,0,34-16.1,39.2-9.5s5.6,5.1,10.3,4.1c4.6-1,34.4-13.1,34.4-13.1    s12.6-16.1,12.7-22.6l-13,2.7c0,0,5.9-20.5-19.3-13.8C127.6,229,119.8,219.3,114.2,198.7z"/> 	</a> 	<a> 		<path style="fill-rule:evenodd;clip-rule:evenodd;fill:#FFFBF0;stroke:#9A9A9A;stroke-width:2;stroke-miterlimit:10;" d="    M38.7,303l24.5-21.9l-20.7-27.4c0,0,17.6-13-14.8-36.1l-11.6,11L16,238l-14.6,0.2c0,0,7.5,24.8,2.4,38.1l7.2,16.4    C11,292.7,26.9,282.4,38.7,303z"/> 	</a> 	<a> 		<path style="fill-rule:evenodd;clip-rule:evenodd;fill:#FFFBF0;stroke:#9A9A9A;stroke-width:2;stroke-miterlimit:10;" d="    M175.3,381.1c0,0,10.1-61-29.6-86l14.1-16.7l-12.7-15.7c0,0-36,15.7-40.6,13.6s-3.1-7.7-10.8-6.7c-7.7,1-32.5,11.5-32.5,11.5    L38.7,303c0,0,13.4,22.1,3.6,25.2s-8.6,2.2-8.6,2.2s4.8,17.2-2.8,24.7l78.6,40.6c0,0,1.7-7.9,11.9-1.8c10.3,6.2,13.9,2.6,18-4.6    C143.5,382.1,143,368.2,175.3,381.1z"/> 	</a> 	<a> 		<path style="fill-rule:evenodd;clip-rule:evenodd;fill:#FFFBF0;stroke:#9A9A9A;stroke-width:2;stroke-miterlimit:10;" d="    M175.3,381.1l11.3,9.8c0,0,6.2-29.3,71.9-51.9c0,0-17.5-42.1-28.8-40.1c-11.3,2.1-2.6,18-14.4,9.2s13.4-13.9,0.5-19    c-12.8-5.1-24.7-10.5-24.7-10.5s-0.9,5.4-8.1,3.9c-7.2-1.5-16.6-11.5-16.6-11.5l-20.7,24.1C145.7,295.1,182,314.8,175.3,381.1z"/> 	</a> 	<a> 		<path style="fill-rule:evenodd;clip-rule:evenodd;fill:#FFFBF0;stroke:#9A9A9A;stroke-width:2;stroke-miterlimit:10;" d="    M258.5,338.9c0,0-15.9-41.1-28.8-40.1c-12.8,1-2.1,19-14.4,9.2c-12.3-9.8,12.8-12.8,0.5-19s-24.7-10.5-24.7-10.5s-3-11,8.8-11    c11.8,0,12.8,0,15.4-3.1c2.6-3.1,12.4,5.1,17.8-0.5c5.4-5.6,0.9-10.9,0.9-10.9l16.3-12.7c0,0,8.2,12.8,17,9.8l7.2-4.6    c0,0,6.8,12.2-1.8,22.5l38.5,29.4c0,0-11.2,9-18.3,9.4c0,0,8.5,9.6,3.5,27.8L258.5,338.9z"/> 	</a> 	<a> 		<path style="fill-rule:evenodd;clip-rule:evenodd;fill:#FFFBF0;stroke:#9A9A9A;stroke-width:2;stroke-miterlimit:10;" d="    M186.6,390.8c0,0,9.8-32.4,71.9-51.9l37.9-4.4l7.9,3.3c0,0,14.4,16.4,20,20c0,0-22.1,23.6-12.3,34.4c9.8,10.8,27.7,14.4,20.5,21.6    s-33.4-2.1-33.4-2.1s-9.8,25.7-13.4,29.8s-8.2,8.2-9.2,5.6s-1-6.2-8.2-2.6c-7.2,3.6-18.8,20.8-32.3,8.3c0,0-1.1,13.8-56.6,15.8    l-7-23.6l11.9-6.2c0,0,6.1-1.5,6.2-14.1l-13.4-3.7l-0.3-12.5L186.6,390.8z"/> 	</a> </g> <g id="bl"> 	<rect x="8" y="253.6" style="opacity:0.6;fill:#FFFBF0;" width="54.5" height="12.9"/> 	<rect x="162.7" y="242.8" style="opacity:0.6;fill:#FFFBF0;" width="42.5" height="12.9"/> 	<rect x="291.2" y="172.6" style="opacity:0.6;fill:#FFFBF0;" width="42.5" height="10.1"/> </g> <g id="text_comarques"> 	<g> 		<rect x="392.6" y="240.4" style="fill-rule:evenodd;clip-rule:evenodd;fill:none;" width="52.9" height="13.2"/> 		<path style="fill:#1A171B;" d="M404.6,248.9h-5.2v-7.3h1.9v5.9h3.4V248.9z"/> 		<path style="fill:#1A171B;" d="M407.4,248.9h-1.8v-7.6h1.8V248.9z"/> 		<path style="fill:#1A171B;" d="M414.4,246.4h-4c0,0.4,0.2,0.8,0.5,1c0.3,0.2,0.7,0.3,1.3,0.3c0.4,0,0.7-0.1,1.1-0.2    s0.6-0.3,0.8-0.4h0.2v1.4c-0.4,0.2-0.8,0.3-1.1,0.3s-0.7,0.1-1.2,0.1c-1.1,0-1.9-0.2-2.5-0.7s-0.9-1.2-0.9-2.1    c0-0.9,0.3-1.6,0.8-2.2c0.6-0.5,1.3-0.8,2.3-0.8c0.9,0,1.6,0.2,2,0.7c0.4,0.5,0.7,1.1,0.7,1.9V246.4z M412.7,245.4    c0-0.4-0.1-0.6-0.3-0.8s-0.4-0.3-0.8-0.3c-0.3,0-0.6,0.1-0.8,0.3s-0.3,0.5-0.4,0.8H412.7z"/> 		<path style="fill:#1A171B;" d="M421.2,243.4l-2.1,5.5h-2l-2.1-5.5h1.9l1.3,3.8l1.3-3.8H421.2z"/> 		<path style="fill:#1A171B;" d="M425.5,248.3c-0.1,0.1-0.2,0.2-0.4,0.3s-0.3,0.2-0.4,0.2c-0.2,0.1-0.4,0.1-0.5,0.2    c-0.2,0-0.4,0.1-0.6,0.1c-0.5,0-1-0.2-1.3-0.5s-0.5-0.7-0.5-1.2c0-0.4,0.1-0.7,0.3-1s0.4-0.5,0.8-0.6c0.3-0.1,0.7-0.3,1.2-0.3    s1-0.1,1.5-0.1v0c0-0.3-0.1-0.5-0.4-0.6c-0.2-0.1-0.6-0.2-1.1-0.2c-0.3,0-0.6,0.1-0.9,0.2c-0.3,0.1-0.6,0.2-0.7,0.2h-0.2v-1.3    c0.2,0,0.5-0.1,0.9-0.2c0.4-0.1,0.8-0.1,1.3-0.1c1,0,1.7,0.2,2.2,0.5c0.4,0.3,0.7,0.8,0.7,1.4v3.7h-1.7V248.3z M425.5,247.4v-1.1    c-0.2,0-0.5,0-0.8,0.1c-0.3,0-0.5,0.1-0.6,0.1c-0.2,0.1-0.3,0.1-0.4,0.2c-0.1,0.1-0.1,0.2-0.1,0.4c0,0.1,0,0.2,0,0.3    c0,0.1,0.1,0.1,0.1,0.2c0.1,0.1,0.2,0.1,0.3,0.1c0.1,0,0.3,0,0.5,0c0.2,0,0.4,0,0.5-0.1C425.2,247.6,425.3,247.5,425.5,247.4z"/> 		<path style="fill:#1A171B;" d="M434.3,248.9h-1.8v-2.7c0-0.2,0-0.4,0-0.7c0-0.2-0.1-0.4-0.1-0.5c-0.1-0.1-0.2-0.2-0.3-0.3    c-0.1-0.1-0.3-0.1-0.5-0.1c-0.2,0-0.3,0-0.5,0.1c-0.2,0.1-0.3,0.1-0.5,0.2v3.9h-1.8v-5.5h1.8v0.6c0.3-0.2,0.6-0.4,0.9-0.6    c0.3-0.1,0.6-0.2,1-0.2c0.6,0,1.1,0.2,1.4,0.5s0.5,0.9,0.5,1.5V248.9z"/> 		<path style="fill:#1A171B;" d="M439.5,248.8c-0.2,0-0.4,0.1-0.6,0.1c-0.2,0-0.5,0-0.8,0c-0.7,0-1.2-0.1-1.5-0.4    c-0.3-0.3-0.5-0.8-0.5-1.4v-2.6h-0.7v-1.2h0.7v-1.6h1.8v1.6h1.6v1.2h-1.6v1.9c0,0.2,0,0.4,0,0.5s0,0.3,0.1,0.4    c0,0.1,0.1,0.2,0.2,0.3c0.1,0.1,0.3,0.1,0.5,0.1c0.1,0,0.2,0,0.4-0.1s0.3-0.1,0.3-0.1h0.1V248.8z"/> 	</g> 	<g> 		<rect x="55.7" y="423.1" style="fill-rule:evenodd;clip-rule:evenodd;fill:none;" width="43.9" height="11"/> 		<path style="fill:#1A171B;" d="M64.8,431.6h-1.9v-4.9l-1.3,3.2h-1.3l-1.3-3.2v4.9h-1.8v-7.3h2.2l1.6,3.6l1.6-3.6h2.2V431.6z"/> 		<path style="fill:#1A171B;" d="M68.3,425.3h-1.9V424h1.9V425.3z M68.3,431.6h-1.8v-5.5h1.8V431.6z"/> 		<path style="fill:#1A171B;" d="M75.3,430.9c0,0.5-0.1,0.9-0.2,1.3s-0.4,0.6-0.6,0.8c-0.3,0.2-0.6,0.3-1,0.4    c-0.4,0.1-0.8,0.1-1.3,0.1c-0.4,0-0.8,0-1.1-0.1c-0.4,0-0.7-0.1-1-0.2V432h0.2c0.2,0.1,0.5,0.2,0.8,0.2c0.3,0.1,0.6,0.1,0.8,0.1    c0.3,0,0.6,0,0.8-0.1c0.2-0.1,0.4-0.1,0.5-0.3c0.1-0.1,0.2-0.2,0.2-0.4c0-0.2,0.1-0.4,0.1-0.6v-0.1c-0.2,0.2-0.4,0.3-0.7,0.4    s-0.5,0.2-0.9,0.2c-0.8,0-1.4-0.2-1.8-0.7s-0.6-1.2-0.6-2.1c0-0.5,0.1-0.8,0.2-1.2s0.3-0.6,0.5-0.9c0.2-0.2,0.5-0.4,0.8-0.5    c0.3-0.1,0.6-0.2,1-0.2c0.3,0,0.6,0,0.8,0.1c0.2,0.1,0.5,0.2,0.7,0.3l0.1-0.2h1.7V430.9z M73.5,429.9v-2.5c-0.1,0-0.2-0.1-0.4-0.1    c-0.1,0-0.3,0-0.4,0c-0.5,0-0.8,0.1-1,0.4c-0.2,0.3-0.3,0.6-0.3,1.1c0,0.5,0.1,0.9,0.3,1.1s0.5,0.3,0.9,0.3c0.2,0,0.3,0,0.5-0.1    S73.4,429.9,73.5,429.9z"/> 		<path style="fill:#1A171B;" d="M79.3,431.7c0,0.6-0.2,1.1-0.6,1.4c-0.4,0.3-0.9,0.5-1.5,0.5c-0.3,0-0.6,0-0.9,0    c-0.3,0-0.5-0.1-0.6-0.1v-1.3h0.1c0.1,0,0.2,0.1,0.4,0.1c0.1,0,0.3,0,0.3,0c0.3,0,0.6-0.1,0.7-0.3c0.1-0.2,0.2-0.5,0.2-1v-3.8h-1    v-1.2h2.8V431.7z M79.3,425.3h-1.9V424h1.9V425.3z"/> 		<path style="fill:#1A171B;" d="M86.6,428.8c0,0.9-0.3,1.6-0.8,2.1c-0.5,0.5-1.3,0.8-2.2,0.8s-1.7-0.3-2.2-0.8    c-0.5-0.5-0.8-1.2-0.8-2.1c0-0.9,0.3-1.6,0.8-2.1c0.5-0.5,1.3-0.8,2.2-0.8c1,0,1.7,0.3,2.2,0.8C86.3,427.2,86.6,427.9,86.6,428.8z     M84.4,430.2c0.1-0.1,0.2-0.3,0.3-0.5c0.1-0.2,0.1-0.5,0.1-0.8c0-0.3,0-0.6-0.1-0.8s-0.1-0.4-0.2-0.5c-0.1-0.1-0.2-0.2-0.4-0.3    s-0.3-0.1-0.5-0.1s-0.3,0-0.5,0.1c-0.1,0-0.3,0.1-0.4,0.3c-0.1,0.1-0.2,0.3-0.3,0.5c-0.1,0.2-0.1,0.5-0.1,0.8c0,0.3,0,0.6,0.1,0.8    c0.1,0.2,0.1,0.4,0.2,0.5c0.1,0.1,0.2,0.2,0.4,0.3c0.1,0.1,0.3,0.1,0.5,0.1c0.2,0,0.3,0,0.5-0.1C84.2,430.4,84.3,430.3,84.4,430.2    z"/> 		<path style="fill:#1A171B;" d="M91.8,427.8h-0.2c-0.1,0-0.2,0-0.4-0.1s-0.3,0-0.4,0c-0.3,0-0.5,0-0.7,0c-0.2,0-0.4,0.1-0.6,0.2    v3.7h-1.8v-5.5h1.8v0.8c0.4-0.3,0.7-0.6,1-0.7c0.3-0.1,0.5-0.2,0.8-0.2c0.1,0,0.1,0,0.2,0c0.1,0,0.1,0,0.2,0V427.8z"/> 		<path style="fill:#1A171B;" d="M98.3,431.6h-1.8v-2.7c0-0.2,0-0.4,0-0.7c0-0.2-0.1-0.4-0.1-0.5c-0.1-0.1-0.2-0.2-0.3-0.3    c-0.1-0.1-0.3-0.1-0.5-0.1c-0.2,0-0.3,0-0.5,0.1c-0.2,0.1-0.3,0.1-0.5,0.2v3.9h-1.8v-5.5h1.8v0.6c0.3-0.2,0.6-0.4,0.9-0.6    c0.3-0.1,0.6-0.2,1-0.2c0.6,0,1.1,0.2,1.4,0.5s0.5,0.9,0.5,1.5V431.6z"/> 	</g> 	<g> 		<rect x="100.9" y="97.9" style="fill-rule:evenodd;clip-rule:evenodd;fill:none;" width="44.7" height="11"/> 		<path style="fill:#1A171B;" d="M109.3,106.4H107l-2-2.7h-0.9v2.7h-1.9v-7.3h3.1c0.4,0,0.8,0,1.1,0.1s0.6,0.2,0.9,0.3    c0.3,0.2,0.5,0.4,0.7,0.6c0.2,0.3,0.2,0.6,0.2,1c0,0.5-0.1,1-0.4,1.3c-0.3,0.3-0.6,0.6-1.1,0.8L109.3,106.4z M106.4,101.3    c0-0.2,0-0.3-0.1-0.5s-0.2-0.2-0.4-0.3c-0.1-0.1-0.3-0.1-0.4-0.1s-0.4,0-0.6,0h-0.7v2h0.6c0.3,0,0.5,0,0.8,0s0.4-0.1,0.5-0.2    c0.1-0.1,0.2-0.2,0.3-0.3C106.3,101.7,106.4,101.5,106.4,101.3z"/> 		<path style="fill:#1A171B;" d="M113.3,105.8c-0.1,0.1-0.2,0.2-0.4,0.3s-0.3,0.2-0.4,0.2c-0.2,0.1-0.4,0.1-0.5,0.2    s-0.4,0.1-0.6,0.1c-0.5,0-1-0.2-1.3-0.5s-0.5-0.7-0.5-1.2c0-0.4,0.1-0.7,0.3-1s0.4-0.5,0.8-0.6c0.3-0.1,0.7-0.3,1.2-0.3    s1-0.1,1.5-0.1v0c0-0.3-0.1-0.5-0.4-0.6s-0.6-0.2-1.1-0.2c-0.3,0-0.6,0.1-0.9,0.2s-0.6,0.2-0.7,0.2h-0.2V101    c0.2,0,0.5-0.1,0.9-0.2c0.4-0.1,0.8-0.1,1.3-0.1c1,0,1.7,0.2,2.2,0.5c0.4,0.3,0.7,0.8,0.7,1.4v3.7h-1.7V105.8z M113.3,104.9v-1.1    c-0.2,0-0.5,0-0.8,0.1c-0.3,0-0.5,0.1-0.6,0.1c-0.2,0.1-0.3,0.1-0.4,0.2c-0.1,0.1-0.1,0.2-0.1,0.4c0,0.1,0,0.2,0,0.3    c0,0.1,0.1,0.1,0.1,0.2c0.1,0.1,0.2,0.1,0.3,0.1s0.3,0,0.5,0c0.2,0,0.4,0,0.5-0.1C113.1,105.1,113.2,105.1,113.3,104.9z"/> 		<path style="fill:#1A171B;" d="M118.5,100.1h-1.9v-1.3h1.9V100.1z M118.5,106.4h-1.8v-5.5h1.8V106.4z"/> 		<path style="fill:#1A171B;" d="M125.5,105.7c0,0.5-0.1,0.9-0.2,1.3s-0.4,0.6-0.6,0.8c-0.3,0.2-0.6,0.3-1,0.4    c-0.4,0.1-0.8,0.1-1.3,0.1c-0.4,0-0.8,0-1.1-0.1c-0.4,0-0.7-0.1-1-0.2v-1.4h0.2c0.2,0.1,0.5,0.2,0.8,0.2c0.3,0.1,0.6,0.1,0.8,0.1    c0.3,0,0.6,0,0.8-0.1s0.4-0.1,0.5-0.3c0.1-0.1,0.2-0.2,0.2-0.4c0-0.2,0.1-0.4,0.1-0.6v-0.1c-0.2,0.2-0.4,0.3-0.7,0.4    s-0.5,0.2-0.9,0.2c-0.8,0-1.4-0.2-1.8-0.7s-0.6-1.2-0.6-2.1c0-0.5,0.1-0.8,0.2-1.2s0.3-0.6,0.5-0.9c0.2-0.2,0.5-0.4,0.8-0.5    c0.3-0.1,0.6-0.2,1-0.2c0.3,0,0.6,0,0.8,0.1s0.5,0.2,0.7,0.3l0.1-0.2h1.7V105.7z M123.7,104.6v-2.5c-0.1,0-0.2-0.1-0.4-0.1    c-0.1,0-0.3,0-0.4,0c-0.5,0-0.8,0.1-1,0.4s-0.3,0.6-0.3,1.1c0,0.5,0.1,0.9,0.3,1.1s0.5,0.3,0.9,0.3c0.2,0,0.3,0,0.5-0.1    S123.6,104.7,123.7,104.6z"/> 		<path style="fill:#1A171B;" d="M132.6,106.4h-1.8v-0.6c-0.3,0.2-0.6,0.4-0.9,0.6s-0.6,0.2-1,0.2c-0.6,0-1.1-0.2-1.4-0.5    c-0.3-0.3-0.5-0.9-0.5-1.5v-3.6h1.8v2.7c0,0.3,0,0.5,0,0.7c0,0.2,0.1,0.3,0.1,0.5c0.1,0.1,0.2,0.2,0.3,0.3    c0.1,0.1,0.3,0.1,0.5,0.1c0.1,0,0.3,0,0.5-0.1s0.4-0.1,0.5-0.2v-3.9h1.8V106.4z"/> 		<path style="fill:#1A171B;" d="M139.6,104h-4c0,0.4,0.2,0.8,0.5,1c0.3,0.2,0.7,0.3,1.3,0.3c0.4,0,0.7-0.1,1.1-0.2s0.6-0.3,0.8-0.4    h0.2v1.4c-0.4,0.2-0.8,0.3-1.1,0.3s-0.7,0.1-1.2,0.1c-1.1,0-1.9-0.2-2.5-0.7s-0.9-1.2-0.9-2.1c0-0.9,0.3-1.6,0.8-2.2    c0.6-0.5,1.3-0.8,2.3-0.8c0.9,0,1.6,0.2,2,0.7s0.7,1.1,0.7,1.9V104z M137.9,102.9c0-0.4-0.1-0.6-0.3-0.8s-0.4-0.3-0.8-0.3    c-0.3,0-0.6,0.1-0.8,0.3s-0.3,0.5-0.4,0.8H137.9z"/> 		<path style="fill:#1A171B;" d="M144.9,102.6h-0.2c-0.1,0-0.2,0-0.4-0.1s-0.3,0-0.4,0c-0.3,0-0.5,0-0.7,0c-0.2,0-0.4,0.1-0.6,0.2    v3.7h-1.8v-5.5h1.8v0.8c0.4-0.3,0.7-0.6,1-0.7c0.3-0.1,0.5-0.2,0.8-0.2c0.1,0,0.1,0,0.2,0c0.1,0,0.1,0,0.2,0V102.6z"/> 	</g> 	<g> 		<rect x="-42.5" y="-35.7" style="fill-rule:evenodd;clip-rule:evenodd;fill:none;" width="120.2" height="11"/> 		<path style="fill:#1A171B;" d="M-35.3-29.5c0,0.7-0.3,1.3-0.9,1.7c-0.6,0.4-1.4,0.7-2.5,0.7c-0.6,0-1.1-0.1-1.6-0.2    c-0.4-0.1-0.9-0.2-1.3-0.4v-1.7h0.2c0.4,0.3,0.8,0.5,1.3,0.7c0.5,0.2,0.9,0.2,1.4,0.2c0.1,0,0.3,0,0.4,0s0.3-0.1,0.5-0.1    c0.1-0.1,0.3-0.1,0.4-0.2c0.1-0.1,0.1-0.2,0.1-0.4c0-0.2-0.1-0.3-0.2-0.4c-0.1-0.1-0.3-0.2-0.6-0.3c-0.3-0.1-0.6-0.1-0.9-0.2    c-0.3-0.1-0.6-0.1-0.9-0.2c-0.6-0.2-1.1-0.5-1.3-0.8c-0.3-0.3-0.4-0.8-0.4-1.3c0-0.7,0.3-1.2,0.9-1.7c0.6-0.4,1.4-0.6,2.3-0.6    c0.5,0,1,0,1.4,0.1c0.5,0.1,0.9,0.2,1.2,0.3v1.7h-0.2c-0.3-0.2-0.7-0.4-1.1-0.6c-0.4-0.2-0.9-0.2-1.3-0.2c-0.2,0-0.3,0-0.5,0    c-0.2,0-0.3,0.1-0.4,0.1c-0.1,0-0.2,0.1-0.3,0.2s-0.1,0.2-0.1,0.3c0,0.2,0.1,0.3,0.2,0.4s0.4,0.2,0.8,0.3c0.3,0.1,0.5,0.1,0.8,0.2    c0.2,0.1,0.5,0.1,0.8,0.2c0.6,0.2,1,0.4,1.2,0.7C-35.4-30.4-35.3-30-35.3-29.5z"/> 		<path style="fill:#1A171B;" d="M-28.7-29.7h-4c0,0.4,0.2,0.8,0.5,1c0.3,0.2,0.7,0.3,1.3,0.3c0.4,0,0.7-0.1,1.1-0.2    s0.6-0.3,0.8-0.4h0.2v1.4c-0.4,0.2-0.8,0.3-1.1,0.3s-0.7,0.1-1.2,0.1c-1.1,0-1.9-0.2-2.5-0.7s-0.9-1.2-0.9-2.1    c0-0.9,0.3-1.6,0.8-2.2c0.6-0.5,1.3-0.8,2.3-0.8c0.9,0,1.6,0.2,2,0.7s0.7,1.1,0.7,1.9V-29.7z M-30.5-30.7c0-0.4-0.1-0.6-0.3-0.8    s-0.4-0.3-0.8-0.3c-0.3,0-0.6,0.1-0.8,0.3s-0.3,0.5-0.4,0.8H-30.5z"/> 		<path style="fill:#1A171B;" d="M-23.5-31h-0.2c-0.1,0-0.2,0-0.4-0.1s-0.3,0-0.4,0c-0.3,0-0.5,0-0.7,0c-0.2,0-0.4,0.1-0.6,0.2v3.7    h-1.8v-5.5h1.8v0.8c0.4-0.3,0.7-0.6,1-0.7c0.3-0.1,0.5-0.2,0.8-0.2c0.1,0,0.1,0,0.2,0c0.1,0,0.1,0,0.2,0V-31z"/> 		<path style="fill:#1A171B;" d="M-18.5-31h-0.2c-0.1,0-0.2,0-0.4-0.1s-0.3,0-0.4,0c-0.3,0-0.5,0-0.7,0c-0.2,0-0.4,0.1-0.6,0.2v3.7    h-1.8v-5.5h1.8v0.8c0.4-0.3,0.7-0.6,1-0.7c0.3-0.1,0.5-0.2,0.8-0.2c0.1,0,0.1,0,0.2,0c0.1,0,0.1,0,0.2,0V-31z"/> 		<path style="fill:#1A171B;" d="M-14.2-27.8c-0.1,0.1-0.2,0.2-0.4,0.3s-0.3,0.2-0.4,0.2c-0.2,0.1-0.4,0.1-0.5,0.2s-0.4,0.1-0.6,0.1    c-0.5,0-1-0.2-1.3-0.5s-0.5-0.7-0.5-1.2c0-0.4,0.1-0.7,0.3-1s0.4-0.5,0.8-0.6c0.3-0.1,0.7-0.3,1.2-0.3s1-0.1,1.5-0.1v0    c0-0.3-0.1-0.5-0.4-0.6s-0.6-0.2-1.1-0.2c-0.3,0-0.6,0.1-0.9,0.2s-0.6,0.2-0.7,0.2h-0.2v-1.3c0.2,0,0.5-0.1,0.9-0.2    c0.4-0.1,0.8-0.1,1.3-0.1c1,0,1.7,0.2,2.2,0.5c0.4,0.3,0.7,0.8,0.7,1.4v3.7h-1.7V-27.8z M-14.2-28.7v-1.1c-0.2,0-0.5,0-0.8,0.1    c-0.3,0-0.5,0.1-0.6,0.1c-0.2,0.1-0.3,0.1-0.4,0.2c-0.1,0.1-0.1,0.2-0.1,0.4c0,0.1,0,0.2,0,0.3c0,0.1,0.1,0.1,0.1,0.2    c0.1,0.1,0.2,0.1,0.3,0.1s0.3,0,0.5,0c0.2,0,0.4,0,0.5-0.1C-14.5-28.5-14.3-28.6-14.2-28.7z"/> 		<path style="fill:#1A171B;" d="M-2.1-27.2h-1.8v-0.6c-0.3,0.2-0.6,0.4-0.8,0.5s-0.6,0.2-0.9,0.2c-0.7,0-1.2-0.3-1.6-0.8    c-0.4-0.5-0.6-1.2-0.6-2.1c0-0.5,0.1-0.9,0.2-1.2s0.3-0.7,0.6-0.9c0.2-0.2,0.5-0.4,0.8-0.6s0.6-0.2,0.9-0.2c0.3,0,0.6,0,0.8,0.1    c0.2,0.1,0.4,0.2,0.6,0.3v-2.3h1.8V-27.2z M-3.9-28.7v-2.7c-0.1-0.1-0.3-0.1-0.4-0.1s-0.3,0-0.4,0c-0.5,0-0.8,0.1-1,0.4    S-6-30.5-6-30c0,0.5,0.1,0.9,0.3,1.2c0.2,0.2,0.5,0.4,0.9,0.4c0.2,0,0.3,0,0.5-0.1C-4.1-28.6-4-28.6-3.9-28.7z"/> 		<path style="fill:#1A171B;" d="M5-29.7h-4c0,0.4,0.2,0.8,0.5,1c0.3,0.2,0.7,0.3,1.3,0.3c0.4,0,0.7-0.1,1.1-0.2s0.6-0.3,0.8-0.4    h0.2v1.4c-0.4,0.2-0.8,0.3-1.1,0.3S3-27.1,2.6-27.1c-1.1,0-1.9-0.2-2.5-0.7s-0.9-1.2-0.9-2.1c0-0.9,0.3-1.6,0.8-2.2    c0.6-0.5,1.3-0.8,2.3-0.8c0.9,0,1.6,0.2,2,0.7S5-31.1,5-30.3V-29.7z M3.2-30.7c0-0.4-0.1-0.6-0.3-0.8s-0.4-0.3-0.8-0.3    c-0.3,0-0.6,0.1-0.8,0.3S1-31.1,0.9-30.7H3.2z"/> 		<path style="fill:#1A171B;" d="M15.4-33.1h-2.3v5.9h-1.9v-5.9H9v-1.4h6.4V-33.1z"/> 		<path style="fill:#1A171B;" d="M20.4-31h-0.2c-0.1,0-0.2,0-0.4-0.1s-0.3,0-0.4,0c-0.3,0-0.5,0-0.7,0c-0.2,0-0.4,0.1-0.6,0.2v3.7    h-1.8v-5.5h1.8v0.8c0.4-0.3,0.7-0.6,1-0.7c0.3-0.1,0.5-0.2,0.8-0.2c0.1,0,0.1,0,0.2,0c0.1,0,0.1,0,0.2,0V-31z"/> 		<path style="fill:#1A171B;" d="M24.7-27.8c-0.1,0.1-0.2,0.2-0.4,0.3s-0.3,0.2-0.4,0.2c-0.2,0.1-0.4,0.1-0.5,0.2s-0.4,0.1-0.6,0.1    c-0.5,0-1-0.2-1.3-0.5S21-28.3,21-28.8c0-0.4,0.1-0.7,0.3-1s0.4-0.5,0.8-0.6c0.3-0.1,0.7-0.3,1.2-0.3s1-0.1,1.5-0.1v0    c0-0.3-0.1-0.5-0.4-0.6s-0.6-0.2-1.1-0.2c-0.3,0-0.6,0.1-0.9,0.2s-0.6,0.2-0.7,0.2h-0.2v-1.3c0.2,0,0.5-0.1,0.9-0.2    c0.4-0.1,0.8-0.1,1.3-0.1c1,0,1.7,0.2,2.2,0.5c0.4,0.3,0.7,0.8,0.7,1.4v3.7h-1.7V-27.8z M24.7-28.7v-1.1c-0.2,0-0.5,0-0.8,0.1    c-0.3,0-0.5,0.1-0.6,0.1c-0.2,0.1-0.3,0.1-0.4,0.2c-0.1,0.1-0.1,0.2-0.1,0.4c0,0.1,0,0.2,0,0.3c0,0.1,0.1,0.1,0.1,0.2    c0.1,0.1,0.2,0.1,0.3,0.1s0.3,0,0.5,0c0.2,0,0.4,0,0.5-0.1C24.4-28.5,24.6-28.6,24.7-28.7z"/> 		<path style="fill:#1A171B;" d="M33.4-31.1v3.9h-1.8V-30c0-0.3,0-0.5,0-0.7s0-0.3-0.1-0.5s-0.1-0.2-0.3-0.3    c-0.1-0.1-0.3-0.1-0.5-0.1c-0.2,0-0.3,0-0.5,0.1s-0.3,0.1-0.4,0.2v3.9h-1.8v-5.5h1.8v0.6c0.3-0.2,0.6-0.4,0.9-0.6s0.6-0.2,0.9-0.2    c0.4,0,0.7,0.1,1,0.2c0.3,0.2,0.5,0.4,0.6,0.7c0.4-0.3,0.7-0.5,1-0.7c0.3-0.2,0.7-0.3,1-0.3c0.6,0,1,0.2,1.3,0.5    c0.3,0.4,0.5,0.9,0.5,1.5v3.6h-1.8V-30c0-0.3,0-0.5,0-0.7c0-0.2,0-0.3-0.1-0.5c-0.1-0.1-0.1-0.2-0.3-0.3s-0.3-0.1-0.5-0.1    c-0.1,0-0.3,0-0.4,0.1S33.7-31.2,33.4-31.1z"/> 		<path style="fill:#1A171B;" d="M44.1-27.2h-1.8v-0.6c-0.3,0.2-0.6,0.4-0.9,0.6s-0.6,0.2-1,0.2c-0.6,0-1.1-0.2-1.4-0.5    c-0.3-0.3-0.5-0.9-0.5-1.5v-3.6h1.8v2.7c0,0.3,0,0.5,0,0.7c0,0.2,0.1,0.3,0.1,0.5c0.1,0.1,0.2,0.2,0.3,0.3    c0.1,0.1,0.3,0.1,0.5,0.1c0.1,0,0.3,0,0.5-0.1s0.4-0.1,0.5-0.2v-3.9h1.8V-27.2z"/> 		<path style="fill:#1A171B;" d="M51.3-27.2h-1.8V-30c0-0.2,0-0.4,0-0.7s-0.1-0.4-0.1-0.5c-0.1-0.1-0.2-0.2-0.3-0.3    c-0.1-0.1-0.3-0.1-0.5-0.1c-0.2,0-0.3,0-0.5,0.1c-0.2,0.1-0.3,0.1-0.5,0.2v3.9h-1.8v-5.5h1.8v0.6c0.3-0.2,0.6-0.4,0.9-0.6    c0.3-0.1,0.6-0.2,1-0.2c0.6,0,1.1,0.2,1.4,0.5s0.5,0.9,0.5,1.5V-27.2z"/> 		<path style="fill:#1A171B;" d="M56.4-27.3c-0.2,0-0.4,0.1-0.6,0.1c-0.2,0-0.5,0-0.8,0c-0.7,0-1.2-0.1-1.5-0.4    C53.2-27.8,53-28.3,53-29v-2.6h-0.7v-1.2H53v-1.6h1.8v1.6h1.6v1.2h-1.6v1.9c0,0.2,0,0.4,0,0.5c0,0.1,0,0.3,0.1,0.4    c0,0.1,0.1,0.2,0.2,0.3c0.1,0.1,0.3,0.1,0.5,0.1c0.1,0,0.2,0,0.4-0.1s0.3-0.1,0.3-0.1h0.1V-27.3z"/> 		<path style="fill:#1A171B;" d="M60.8-27.8c-0.1,0.1-0.2,0.2-0.4,0.3s-0.3,0.2-0.4,0.2c-0.2,0.1-0.4,0.1-0.5,0.2s-0.4,0.1-0.6,0.1    c-0.5,0-1-0.2-1.3-0.5s-0.5-0.7-0.5-1.2c0-0.4,0.1-0.7,0.3-1s0.4-0.5,0.8-0.6c0.3-0.1,0.7-0.3,1.2-0.3s1-0.1,1.5-0.1v0    c0-0.3-0.1-0.5-0.4-0.6s-0.6-0.2-1.1-0.2c-0.3,0-0.6,0.1-0.9,0.2s-0.6,0.2-0.7,0.2h-0.2v-1.3c0.2,0,0.5-0.1,0.9-0.2    c0.4-0.1,0.8-0.1,1.3-0.1c1,0,1.7,0.2,2.2,0.5c0.4,0.3,0.7,0.8,0.7,1.4v3.7h-1.7V-27.8z M60.8-28.7v-1.1c-0.2,0-0.5,0-0.8,0.1    c-0.3,0-0.5,0.1-0.6,0.1c-0.2,0.1-0.3,0.1-0.4,0.2c-0.1,0.1-0.1,0.2-0.1,0.4c0,0.1,0,0.2,0,0.3c0,0.1,0.1,0.1,0.1,0.2    c0.1,0.1,0.2,0.1,0.3,0.1s0.3,0,0.5,0c0.2,0,0.4,0,0.5-0.1C60.5-28.5,60.7-28.6,60.8-28.7z"/> 		<path style="fill:#1A171B;" d="M69.7-27.2h-1.8V-30c0-0.2,0-0.4,0-0.7s-0.1-0.4-0.1-0.5c-0.1-0.1-0.2-0.2-0.3-0.3    c-0.1-0.1-0.3-0.1-0.5-0.1c-0.2,0-0.3,0-0.5,0.1c-0.2,0.1-0.3,0.1-0.5,0.2v3.9h-1.8v-5.5h1.8v0.6c0.3-0.2,0.6-0.4,0.9-0.6    c0.3-0.1,0.6-0.2,1-0.2c0.6,0,1.1,0.2,1.4,0.5s0.5,0.9,0.5,1.5V-27.2z"/> 		<path style="fill:#1A171B;" d="M74.6-27.8c-0.1,0.1-0.2,0.2-0.4,0.3s-0.3,0.2-0.4,0.2c-0.2,0.1-0.4,0.1-0.5,0.2s-0.4,0.1-0.6,0.1    c-0.5,0-1-0.2-1.3-0.5s-0.5-0.7-0.5-1.2c0-0.4,0.1-0.7,0.3-1s0.4-0.5,0.8-0.6c0.3-0.1,0.7-0.3,1.2-0.3s1-0.1,1.5-0.1v0    c0-0.3-0.1-0.5-0.4-0.6s-0.6-0.2-1.1-0.2c-0.3,0-0.6,0.1-0.9,0.2s-0.6,0.2-0.7,0.2h-0.2v-1.3c0.2,0,0.5-0.1,0.9-0.2    c0.4-0.1,0.8-0.1,1.3-0.1c1,0,1.7,0.2,2.2,0.5c0.4,0.3,0.7,0.8,0.7,1.4v3.7h-1.7V-27.8z M74.6-28.7v-1.1c-0.2,0-0.5,0-0.8,0.1    c-0.3,0-0.5,0.1-0.6,0.1c-0.2,0.1-0.3,0.1-0.4,0.2c-0.1,0.1-0.1,0.2-0.1,0.4c0,0.1,0,0.2,0,0.3c0,0.1,0.1,0.1,0.1,0.2    c0.1,0.1,0.2,0.1,0.3,0.1s0.3,0,0.5,0c0.2,0,0.4,0,0.5-0.1C74.3-28.5,74.5-28.6,74.6-28.7z"/> 	</g> 	<g> 		<rect x="3.7" y="312.7" style="fill-rule:evenodd;clip-rule:evenodd;fill:none;" width="35.7" height="11"/> 		<path style="fill:#1A171B;" d="M11.1,316.2c0,0.3-0.1,0.6-0.2,1c-0.1,0.3-0.3,0.6-0.5,0.8c-0.3,0.3-0.6,0.5-1,0.6    c-0.4,0.1-0.8,0.2-1.3,0.2H7v2.4H5.1v-7.3h3.1c0.5,0,0.9,0,1.2,0.1c0.3,0.1,0.6,0.2,0.8,0.4c0.3,0.2,0.5,0.4,0.7,0.7    C11.1,315.4,11.1,315.8,11.1,316.2z M9.2,316.2c0-0.2-0.1-0.4-0.2-0.5c-0.1-0.1-0.2-0.3-0.4-0.3c-0.2-0.1-0.4-0.1-0.6-0.1    c-0.2,0-0.4,0-0.7,0H7v2.2h0.5c0.3,0,0.6,0,0.8-0.1c0.2,0,0.4-0.1,0.5-0.2c0.1-0.1,0.2-0.2,0.3-0.4C9.2,316.6,9.2,316.5,9.2,316.2    z"/> 		<path style="fill:#1A171B;" d="M15.7,320.6c-0.1,0.1-0.2,0.2-0.4,0.3s-0.3,0.2-0.4,0.2c-0.2,0.1-0.4,0.1-0.5,0.2    c-0.2,0-0.4,0.1-0.6,0.1c-0.5,0-1-0.2-1.3-0.5s-0.5-0.7-0.5-1.2c0-0.4,0.1-0.7,0.3-1s0.4-0.5,0.8-0.6c0.3-0.1,0.7-0.3,1.2-0.3    s1-0.1,1.5-0.1v0c0-0.3-0.1-0.5-0.4-0.6c-0.2-0.1-0.6-0.2-1.1-0.2c-0.3,0-0.6,0.1-0.9,0.2c-0.3,0.1-0.6,0.2-0.7,0.2h-0.2v-1.3    c0.2,0,0.5-0.1,0.9-0.2c0.4-0.1,0.8-0.1,1.3-0.1c1,0,1.7,0.2,2.2,0.5c0.4,0.3,0.7,0.8,0.7,1.4v3.7h-1.7V320.6z M15.7,319.7v-1.1    c-0.2,0-0.5,0-0.8,0.1c-0.3,0-0.5,0.1-0.6,0.1c-0.2,0.1-0.3,0.1-0.4,0.2c-0.1,0.1-0.1,0.2-0.1,0.4c0,0.1,0,0.2,0,0.3    c0,0.1,0.1,0.1,0.1,0.2c0.1,0.1,0.2,0.1,0.3,0.1c0.1,0,0.3,0,0.5,0c0.2,0,0.4,0,0.5-0.1C15.4,320,15.5,319.9,15.7,319.7z"/> 		<path style="fill:#1A171B;" d="M20.8,321.2H19v-7.6h1.8V321.2z"/> 		<path style="fill:#1A171B;" d="M27.8,317.3v3.9h-1.8v-2.7c0-0.3,0-0.5,0-0.7c0-0.2,0-0.3-0.1-0.5s-0.1-0.2-0.3-0.3    c-0.1-0.1-0.3-0.1-0.5-0.1c-0.2,0-0.3,0-0.5,0.1c-0.2,0.1-0.3,0.1-0.4,0.2v3.9h-1.8v-5.5h1.8v0.6c0.3-0.2,0.6-0.4,0.9-0.6    s0.6-0.2,0.9-0.2c0.4,0,0.7,0.1,1,0.2c0.3,0.2,0.5,0.4,0.6,0.7c0.4-0.3,0.7-0.5,1-0.7c0.3-0.2,0.7-0.3,1-0.3c0.6,0,1,0.2,1.3,0.5    c0.3,0.4,0.5,0.9,0.5,1.5v3.6h-1.8v-2.7c0-0.3,0-0.5,0-0.7c0-0.2,0-0.3-0.1-0.5c-0.1-0.1-0.1-0.2-0.3-0.3    c-0.1-0.1-0.3-0.1-0.5-0.1c-0.1,0-0.3,0-0.4,0.1C28.2,317.1,28,317.2,27.8,317.3z"/> 		<path style="fill:#1A171B;" d="M36.4,320.6c-0.1,0.1-0.2,0.2-0.4,0.3s-0.3,0.2-0.4,0.2c-0.2,0.1-0.4,0.1-0.5,0.2    c-0.2,0-0.4,0.1-0.6,0.1c-0.5,0-1-0.2-1.3-0.5s-0.5-0.7-0.5-1.2c0-0.4,0.1-0.7,0.3-1s0.4-0.5,0.8-0.6c0.3-0.1,0.7-0.3,1.2-0.3    s1-0.1,1.5-0.1v0c0-0.3-0.1-0.5-0.4-0.6c-0.2-0.1-0.6-0.2-1.1-0.2c-0.3,0-0.6,0.1-0.9,0.2c-0.3,0.1-0.6,0.2-0.7,0.2h-0.2v-1.3    c0.2,0,0.5-0.1,0.9-0.2c0.4-0.1,0.8-0.1,1.3-0.1c1,0,1.7,0.2,2.2,0.5c0.4,0.3,0.7,0.8,0.7,1.4v3.7h-1.7V320.6z M36.4,319.7v-1.1    c-0.2,0-0.5,0-0.8,0.1c-0.3,0-0.5,0.1-0.6,0.1c-0.2,0.1-0.3,0.1-0.4,0.2c-0.1,0.1-0.1,0.2-0.1,0.4c0,0.1,0,0.2,0,0.3    c0,0.1,0.1,0.1,0.1,0.2c0.1,0.1,0.2,0.1,0.3,0.1c0.1,0,0.3,0,0.5,0c0.2,0,0.4,0,0.5-0.1C36.1,320,36.2,319.9,36.4,319.7z"/> 	</g> </g> <g id="text_municipis"> 	<g> 		<rect x="80.2" y="324.3" style="fill-rule:evenodd;clip-rule:evenodd;fill:none;" width="35.8" height="11"/> 		<path style="fill:#1A171B;" d="M86.5,332.8h-1l-0.7-2h-3l-0.7,2h-0.9l2.5-7.3H84L86.5,332.8z M84.6,330l-1.2-3.6l-1.2,3.6H84.6z"/> 		<path style="fill:#1A171B;" d="M88.4,332.8h-0.9v-7.6h0.9V332.8z"/> 		<path style="fill:#1A171B;" d="M94.3,332.2c0,0.9-0.2,1.6-0.6,2c-0.4,0.4-1,0.6-1.8,0.6c-0.3,0-0.5,0-0.8-0.1    c-0.3,0-0.5-0.1-0.8-0.2v-0.9h0c0.1,0.1,0.4,0.1,0.7,0.2c0.3,0.1,0.6,0.1,0.9,0.1c0.3,0,0.5,0,0.7-0.1c0.2-0.1,0.3-0.2,0.5-0.3    c0.1-0.1,0.2-0.3,0.2-0.5s0.1-0.4,0.1-0.6v-0.5c-0.3,0.2-0.5,0.4-0.8,0.5c-0.2,0.1-0.5,0.2-0.9,0.2c-0.6,0-1.1-0.2-1.5-0.7    c-0.4-0.5-0.5-1.1-0.5-2c0-0.5,0.1-0.9,0.2-1.2c0.1-0.3,0.3-0.6,0.5-0.9c0.2-0.2,0.4-0.4,0.7-0.5c0.3-0.1,0.6-0.2,0.9-0.2    c0.3,0,0.5,0,0.8,0.1c0.2,0.1,0.4,0.2,0.6,0.3l0.1-0.2h0.8V332.2z M93.4,331.3v-3c-0.2-0.1-0.4-0.2-0.6-0.2    c-0.2,0-0.4-0.1-0.6-0.1c-0.5,0-0.9,0.2-1.1,0.5c-0.3,0.3-0.4,0.8-0.4,1.5c0,0.6,0.1,1.1,0.3,1.4s0.5,0.5,1,0.5    c0.3,0,0.5-0.1,0.8-0.2C93,331.7,93.2,331.5,93.4,331.3z"/> 		<path style="fill:#1A171B;" d="M100,332.8h-0.9v-0.6c-0.1,0.1-0.2,0.1-0.3,0.2c-0.1,0.1-0.3,0.2-0.4,0.2c-0.1,0.1-0.3,0.1-0.5,0.2    c-0.2,0.1-0.4,0.1-0.7,0.1c-0.5,0-0.9-0.2-1.2-0.5c-0.3-0.3-0.5-0.7-0.5-1.2c0-0.4,0.1-0.7,0.3-1c0.2-0.3,0.4-0.5,0.7-0.6    c0.3-0.1,0.7-0.2,1.1-0.3c0.4-0.1,0.9-0.1,1.4-0.1v-0.1c0-0.2,0-0.4-0.1-0.5c-0.1-0.1-0.2-0.2-0.3-0.3c-0.1-0.1-0.3-0.1-0.4-0.2    c-0.2,0-0.4,0-0.5,0c-0.2,0-0.5,0-0.8,0.1c-0.3,0.1-0.6,0.2-0.9,0.3h0v-0.9c0.2,0,0.4-0.1,0.7-0.2c0.3-0.1,0.6-0.1,0.9-0.1    c0.4,0,0.7,0,0.9,0.1c0.3,0.1,0.5,0.2,0.7,0.3c0.2,0.1,0.3,0.3,0.4,0.6s0.2,0.5,0.2,0.9V332.8z M99.1,331.5V330    c-0.3,0-0.6,0-0.9,0.1s-0.6,0.1-0.9,0.1c-0.2,0.1-0.5,0.2-0.6,0.3c-0.2,0.2-0.2,0.4-0.2,0.7c0,0.3,0.1,0.5,0.3,0.7    c0.2,0.2,0.5,0.2,0.8,0.2c0.3,0,0.6-0.1,0.8-0.2C98.7,331.8,98.9,331.7,99.1,331.5z"/> 		<path style="fill:#1A171B;" d="M102.6,326.5h-1v-1h1V326.5z M102.5,332.8h-0.9v-5.5h0.9V332.8z"/> 		<path style="fill:#1A171B;" d="M108.4,332.8h-0.9v-0.6c-0.2,0.2-0.5,0.4-0.8,0.5s-0.6,0.2-0.9,0.2c-0.6,0-1.1-0.3-1.5-0.8    c-0.4-0.5-0.5-1.2-0.5-2.1c0-0.5,0.1-0.9,0.2-1.2c0.1-0.4,0.3-0.7,0.5-0.9c0.2-0.2,0.5-0.4,0.7-0.6s0.6-0.2,0.9-0.2    c0.3,0,0.5,0,0.7,0.1c0.2,0.1,0.4,0.2,0.7,0.3v-2.4h0.9V332.8z M107.6,331.5v-3.1c-0.2-0.1-0.4-0.2-0.6-0.2s-0.4-0.1-0.6-0.1    c-0.5,0-0.9,0.2-1.1,0.5s-0.4,0.9-0.4,1.5c0,0.6,0.1,1.1,0.3,1.5c0.2,0.3,0.5,0.5,1,0.5c0.2,0,0.5-0.1,0.7-0.2    C107.1,331.8,107.3,331.7,107.6,331.5z"/> 		<path style="fill:#1A171B;" d="M114.1,332.8h-0.9v-0.6c-0.1,0.1-0.2,0.1-0.3,0.2c-0.1,0.1-0.3,0.2-0.4,0.2    c-0.1,0.1-0.3,0.1-0.5,0.2c-0.2,0.1-0.4,0.1-0.7,0.1c-0.5,0-0.9-0.2-1.2-0.5c-0.3-0.3-0.5-0.7-0.5-1.2c0-0.4,0.1-0.7,0.3-1    c0.2-0.3,0.4-0.5,0.7-0.6c0.3-0.1,0.7-0.2,1.1-0.3c0.4-0.1,0.9-0.1,1.4-0.1v-0.1c0-0.2,0-0.4-0.1-0.5c-0.1-0.1-0.2-0.2-0.3-0.3    c-0.1-0.1-0.3-0.1-0.4-0.2c-0.2,0-0.4,0-0.5,0c-0.2,0-0.5,0-0.8,0.1c-0.3,0.1-0.6,0.2-0.9,0.3h0v-0.9c0.2,0,0.4-0.1,0.7-0.2    c0.3-0.1,0.6-0.1,0.9-0.1c0.4,0,0.7,0,0.9,0.1c0.3,0.1,0.5,0.2,0.7,0.3c0.2,0.1,0.3,0.3,0.4,0.6s0.2,0.5,0.2,0.9V332.8z     M113.3,331.5V330c-0.3,0-0.6,0-0.9,0.1s-0.6,0.1-0.9,0.1c-0.2,0.1-0.5,0.2-0.6,0.3c-0.2,0.2-0.2,0.4-0.2,0.7    c0,0.3,0.1,0.5,0.3,0.7c0.2,0.2,0.5,0.2,0.8,0.2c0.3,0,0.6-0.1,0.8-0.2C112.8,331.8,113.1,331.7,113.3,331.5z"/> 	</g> 	<g> 		<rect x="66.8" y="224.8" style="fill-rule:evenodd;clip-rule:evenodd;fill:none;" width="45.5" height="11"/> 		<path style="fill:#1A171B;" d="M72.7,231.2c0,0.3-0.1,0.6-0.2,0.8c-0.1,0.3-0.3,0.5-0.5,0.7c-0.2,0.2-0.5,0.4-0.9,0.5    c-0.3,0.1-0.7,0.2-1.2,0.2c-0.5,0-0.9,0-1.3-0.1c-0.4-0.1-0.8-0.2-1.2-0.4v-1.2h0.1c0.3,0.3,0.7,0.5,1.2,0.7    c0.5,0.2,0.9,0.2,1.3,0.2c0.6,0,1-0.1,1.3-0.3s0.5-0.5,0.5-0.9c0-0.3-0.1-0.6-0.2-0.7s-0.4-0.3-0.7-0.4c-0.2-0.1-0.5-0.1-0.8-0.2    c-0.3,0-0.6-0.1-0.9-0.2c-0.6-0.1-1.1-0.4-1.4-0.7c-0.3-0.3-0.4-0.8-0.4-1.3c0-0.6,0.2-1.1,0.7-1.5c0.5-0.4,1.1-0.6,1.9-0.6    c0.5,0,0.9,0,1.3,0.1c0.4,0.1,0.8,0.2,1.1,0.4v1.1h-0.1c-0.3-0.2-0.6-0.4-1-0.6c-0.4-0.2-0.9-0.2-1.3-0.2c-0.5,0-0.9,0.1-1.2,0.3    s-0.4,0.5-0.4,0.8c0,0.3,0.1,0.5,0.2,0.7s0.4,0.3,0.8,0.4c0.2,0,0.5,0.1,0.8,0.2c0.4,0.1,0.7,0.1,0.9,0.2c0.5,0.1,0.9,0.4,1.2,0.6    C72.6,230.3,72.7,230.7,72.7,231.2z"/> 		<path style="fill:#1A171B;" d="M78.4,230.6h-3.8c0,0.3,0,0.6,0.1,0.9c0.1,0.3,0.2,0.5,0.4,0.6c0.2,0.2,0.4,0.3,0.6,0.4    s0.5,0.1,0.7,0.1c0.4,0,0.7-0.1,1.1-0.2c0.4-0.1,0.6-0.3,0.8-0.4h0v1c-0.3,0.1-0.6,0.2-0.9,0.3c-0.3,0.1-0.6,0.1-1,0.1    c-0.9,0-1.5-0.2-2-0.7c-0.5-0.5-0.7-1.2-0.7-2.1c0-0.9,0.2-1.6,0.7-2.1s1.1-0.8,1.8-0.8c0.7,0,1.2,0.2,1.6,0.6s0.6,1,0.6,1.8    V230.6z M77.6,229.9c0-0.5-0.1-0.9-0.3-1.1c-0.2-0.3-0.6-0.4-1-0.4c-0.5,0-0.8,0.1-1.1,0.4s-0.4,0.6-0.5,1.1H77.6z"/> 		<path style="fill:#1A171B;" d="M84.1,233.3h-0.9v-3.1c0-0.3,0-0.5,0-0.7c0-0.2-0.1-0.4-0.2-0.5c-0.1-0.1-0.2-0.2-0.3-0.3    c-0.1-0.1-0.3-0.1-0.6-0.1c-0.2,0-0.5,0.1-0.7,0.2c-0.3,0.1-0.5,0.3-0.7,0.5v4.1h-0.9v-5.5h0.9v0.6c0.3-0.2,0.6-0.4,0.8-0.6    s0.6-0.2,0.9-0.2c0.6,0,1,0.2,1.3,0.5c0.3,0.4,0.4,0.9,0.4,1.5V233.3z"/> 		<path style="fill:#1A171B;" d="M89.5,232.9c-0.3,0.1-0.6,0.3-0.8,0.3c-0.3,0.1-0.5,0.1-0.8,0.1c-0.4,0-0.7-0.1-1-0.2    c-0.3-0.1-0.6-0.3-0.8-0.5c-0.2-0.2-0.4-0.5-0.5-0.9s-0.2-0.8-0.2-1.3c0-0.9,0.2-1.6,0.7-2.1s1.1-0.8,1.8-0.8c0.3,0,0.6,0,0.9,0.1    s0.5,0.2,0.8,0.3v1h0c-0.3-0.2-0.5-0.4-0.8-0.5s-0.6-0.2-0.8-0.2c-0.5,0-0.9,0.2-1.2,0.5c-0.3,0.3-0.4,0.9-0.4,1.5    c0,0.7,0.1,1.2,0.4,1.5c0.3,0.4,0.7,0.5,1.2,0.5c0.2,0,0.4,0,0.5-0.1s0.3-0.1,0.5-0.2c0.1-0.1,0.2-0.1,0.4-0.2    c0.1-0.1,0.2-0.1,0.3-0.2h0V232.9z"/> 		<path style="fill:#1A171B;" d="M95,230.6h-3.8c0,0.3,0,0.6,0.1,0.9c0.1,0.3,0.2,0.5,0.4,0.6c0.2,0.2,0.4,0.3,0.6,0.4    s0.5,0.1,0.7,0.1c0.4,0,0.7-0.1,1.1-0.2c0.4-0.1,0.6-0.3,0.8-0.4h0v1c-0.3,0.1-0.6,0.2-0.9,0.3c-0.3,0.1-0.6,0.1-1,0.1    c-0.9,0-1.5-0.2-2-0.7c-0.5-0.5-0.7-1.2-0.7-2.1c0-0.9,0.2-1.6,0.7-2.1s1.1-0.8,1.8-0.8c0.7,0,1.2,0.2,1.6,0.6s0.6,1,0.6,1.8    V230.6z M94.1,229.9c0-0.5-0.1-0.9-0.3-1.1c-0.2-0.3-0.6-0.4-1-0.4c-0.5,0-0.8,0.1-1.1,0.4s-0.4,0.6-0.5,1.1H94.1z"/> 		<path style="fill:#1A171B;" d="M97.2,233.3h-0.9v-7.6h0.9V233.3z"/> 		<path style="fill:#1A171B;" d="M99.8,233.3h-0.9v-7.6h0.9V233.3z"/> 		<path style="fill:#1A171B;" d="M105.5,233.3h-0.9v-0.6c-0.1,0.1-0.2,0.1-0.3,0.2c-0.1,0.1-0.3,0.2-0.4,0.2    c-0.1,0.1-0.3,0.1-0.5,0.2c-0.2,0-0.4,0.1-0.7,0.1c-0.5,0-0.9-0.2-1.2-0.5c-0.3-0.3-0.5-0.7-0.5-1.2c0-0.4,0.1-0.7,0.3-1    c0.2-0.3,0.4-0.5,0.7-0.6c0.3-0.1,0.7-0.2,1.1-0.3c0.4-0.1,0.9-0.1,1.4-0.1v-0.1c0-0.2,0-0.4-0.1-0.5c-0.1-0.1-0.2-0.2-0.3-0.3    c-0.1-0.1-0.3-0.1-0.4-0.2c-0.2,0-0.4,0-0.5,0c-0.2,0-0.5,0-0.8,0.1c-0.3,0.1-0.6,0.2-0.9,0.3h0v-0.9c0.2,0,0.4-0.1,0.7-0.2    c0.3-0.1,0.6-0.1,0.9-0.1c0.4,0,0.7,0,0.9,0.1c0.3,0.1,0.5,0.2,0.7,0.3c0.2,0.2,0.3,0.3,0.4,0.6s0.2,0.5,0.2,0.9V233.3z     M104.6,231.9v-1.5c-0.3,0-0.6,0-0.9,0.1s-0.6,0.1-0.9,0.1c-0.2,0.1-0.5,0.2-0.6,0.3c-0.2,0.2-0.2,0.4-0.2,0.7    c0,0.3,0.1,0.5,0.3,0.7c0.2,0.2,0.5,0.2,0.8,0.2c0.3,0,0.6-0.1,0.8-0.2C104.2,232.2,104.4,232.1,104.6,231.9z"/> 		<path style="fill:#1A171B;" d="M110.8,231.7c0,0.5-0.2,0.9-0.6,1.2c-0.4,0.3-0.9,0.5-1.6,0.5c-0.4,0-0.7,0-1-0.1    c-0.3-0.1-0.6-0.2-0.8-0.3v-1h0c0.3,0.2,0.6,0.4,0.9,0.5c0.3,0.1,0.7,0.2,1,0.2c0.4,0,0.7-0.1,0.9-0.2c0.2-0.1,0.3-0.3,0.3-0.6    c0-0.2-0.1-0.4-0.2-0.5s-0.3-0.2-0.7-0.3c-0.1,0-0.3-0.1-0.5-0.1c-0.2,0-0.4-0.1-0.5-0.1c-0.5-0.1-0.8-0.3-1-0.6    c-0.2-0.2-0.3-0.5-0.3-0.9c0-0.2,0-0.4,0.1-0.6s0.2-0.4,0.4-0.5c0.2-0.2,0.4-0.3,0.7-0.4c0.3-0.1,0.6-0.1,0.9-0.1    c0.3,0,0.6,0,0.9,0.1c0.3,0.1,0.6,0.2,0.8,0.3v1h0c-0.2-0.2-0.5-0.3-0.8-0.4c-0.3-0.1-0.6-0.2-0.9-0.2c-0.3,0-0.6,0.1-0.8,0.2    c-0.2,0.1-0.3,0.3-0.3,0.6c0,0.2,0.1,0.4,0.2,0.5c0.1,0.1,0.3,0.2,0.6,0.3c0.2,0,0.3,0.1,0.5,0.1s0.4,0.1,0.5,0.1    c0.4,0.1,0.7,0.3,0.9,0.5C110.7,231,110.8,231.3,110.8,231.7z"/> 	</g> 	<g> 		<rect x="9.2" y="254.6" style="fill-rule:evenodd;clip-rule:evenodd;fill:none;" width="69.6" height="11"/> 		<path style="fill:#1A171B;" d="M15.1,261c0,0.3-0.1,0.6-0.2,0.8c-0.1,0.3-0.3,0.5-0.5,0.7c-0.2,0.2-0.5,0.4-0.9,0.5    c-0.3,0.1-0.7,0.2-1.2,0.2c-0.5,0-0.9,0-1.3-0.1c-0.4-0.1-0.8-0.2-1.2-0.4v-1.2h0.1c0.3,0.3,0.7,0.5,1.2,0.7    c0.5,0.2,0.9,0.2,1.3,0.2c0.6,0,1-0.1,1.3-0.3s0.5-0.5,0.5-0.9c0-0.3-0.1-0.6-0.2-0.7s-0.4-0.3-0.7-0.4c-0.2-0.1-0.5-0.1-0.8-0.2    c-0.3,0-0.6-0.1-0.9-0.2c-0.6-0.1-1.1-0.4-1.4-0.7c-0.3-0.3-0.4-0.8-0.4-1.3c0-0.6,0.2-1.1,0.7-1.5c0.5-0.4,1.1-0.6,1.9-0.6    c0.5,0,0.9,0,1.3,0.1c0.4,0.1,0.8,0.2,1.1,0.4v1.1h-0.1c-0.3-0.2-0.6-0.4-1-0.6c-0.4-0.2-0.9-0.2-1.3-0.2c-0.5,0-0.9,0.1-1.2,0.3    s-0.4,0.5-0.4,0.8c0,0.3,0.1,0.5,0.2,0.7s0.4,0.3,0.8,0.4c0.2,0,0.5,0.1,0.8,0.2c0.4,0.1,0.7,0.1,0.9,0.2c0.5,0.1,0.9,0.4,1.2,0.6    C14.9,260.1,15.1,260.5,15.1,261z"/> 		<path style="fill:#1A171B;" d="M20.5,263.1h-0.9v-0.6c-0.1,0.1-0.2,0.1-0.3,0.2c-0.1,0.1-0.3,0.2-0.4,0.2    c-0.1,0.1-0.3,0.1-0.5,0.2c-0.2,0-0.4,0.1-0.7,0.1c-0.5,0-0.9-0.2-1.2-0.5c-0.3-0.3-0.5-0.7-0.5-1.2c0-0.4,0.1-0.7,0.3-1    c0.2-0.3,0.4-0.5,0.7-0.6c0.3-0.1,0.7-0.2,1.1-0.3c0.4-0.1,0.9-0.1,1.4-0.1v-0.1c0-0.2,0-0.4-0.1-0.5c-0.1-0.1-0.2-0.2-0.3-0.3    c-0.1-0.1-0.3-0.1-0.4-0.2c-0.2,0-0.4,0-0.5,0c-0.2,0-0.5,0-0.8,0.1c-0.3,0.1-0.6,0.2-0.9,0.3h0v-0.9c0.2,0,0.4-0.1,0.7-0.2    c0.3-0.1,0.6-0.1,0.9-0.1c0.4,0,0.7,0,0.9,0.1c0.3,0.1,0.5,0.2,0.7,0.3c0.2,0.2,0.3,0.3,0.4,0.6s0.2,0.5,0.2,0.9V263.1z     M19.6,261.7v-1.5c-0.3,0-0.6,0-0.9,0.1s-0.6,0.1-0.9,0.1c-0.2,0.1-0.5,0.2-0.6,0.3c-0.2,0.2-0.2,0.4-0.2,0.7    c0,0.3,0.1,0.5,0.3,0.7c0.2,0.2,0.5,0.2,0.8,0.2c0.3,0,0.6-0.1,0.8-0.2C19.2,262.1,19.4,261.9,19.6,261.7z"/> 		<path style="fill:#1A171B;" d="M26.5,263.1h-0.9V260c0-0.3,0-0.5,0-0.7c0-0.2-0.1-0.4-0.2-0.5c-0.1-0.1-0.2-0.2-0.3-0.3    c-0.1-0.1-0.3-0.1-0.6-0.1c-0.2,0-0.5,0.1-0.7,0.2c-0.3,0.1-0.5,0.3-0.7,0.5v4.1h-0.9v-5.5H23v0.6c0.3-0.2,0.6-0.4,0.8-0.6    s0.6-0.2,0.9-0.2c0.6,0,1,0.2,1.3,0.5c0.3,0.4,0.4,0.9,0.4,1.5V263.1z"/> 		<path style="fill:#1A171B;" d="M30.8,263c-0.2,0-0.3,0.1-0.5,0.1s-0.4,0-0.5,0c-0.5,0-0.9-0.2-1.2-0.4c-0.3-0.3-0.4-0.8-0.4-1.4    v-2.9h-0.6v-0.8h0.6v-1.6H29v1.6h1.8v0.8H29v2.5c0,0.3,0,0.5,0,0.7c0,0.2,0.1,0.3,0.1,0.5c0.1,0.1,0.2,0.2,0.3,0.3    c0.1,0.1,0.3,0.1,0.5,0.1c0.1,0,0.3,0,0.4-0.1c0.2,0,0.3-0.1,0.3-0.1h0V263z"/> 		<path style="fill:#1A171B;" d="M35.9,263.1H35v-0.6c-0.1,0.1-0.2,0.1-0.3,0.2c-0.1,0.1-0.3,0.2-0.4,0.2c-0.1,0.1-0.3,0.1-0.5,0.2    c-0.2,0-0.4,0.1-0.7,0.1c-0.5,0-0.9-0.2-1.2-0.5c-0.3-0.3-0.5-0.7-0.5-1.2c0-0.4,0.1-0.7,0.3-1c0.2-0.3,0.4-0.5,0.7-0.6    c0.3-0.1,0.7-0.2,1.1-0.3c0.4-0.1,0.9-0.1,1.4-0.1v-0.1c0-0.2,0-0.4-0.1-0.5c-0.1-0.1-0.2-0.2-0.3-0.3c-0.1-0.1-0.3-0.1-0.4-0.2    c-0.2,0-0.4,0-0.5,0c-0.2,0-0.5,0-0.8,0.1c-0.3,0.1-0.6,0.2-0.9,0.3h0v-0.9c0.2,0,0.4-0.1,0.7-0.2c0.3-0.1,0.6-0.1,0.9-0.1    c0.4,0,0.7,0,0.9,0.1c0.3,0.1,0.5,0.2,0.7,0.3c0.2,0.2,0.3,0.3,0.4,0.6s0.2,0.5,0.2,0.9V263.1z M35,261.7v-1.5    c-0.3,0-0.6,0-0.9,0.1s-0.6,0.1-0.9,0.1c-0.2,0.1-0.5,0.2-0.6,0.3c-0.2,0.2-0.2,0.4-0.2,0.7c0,0.3,0.1,0.5,0.3,0.7    c0.2,0.2,0.5,0.2,0.8,0.2c0.3,0,0.6-0.1,0.8-0.2C34.5,262.1,34.8,261.9,35,261.7z"/> 		<path style="fill:#1A171B;" d="M45.4,263.1h-4.5v-7.3h4.5v0.9h-3.6v2h3.6v0.9h-3.6v2.7h3.6V263.1z"/> 		<path style="fill:#1A171B;" d="M51.1,263.1h-0.9v-0.6c-0.3,0.2-0.6,0.4-0.8,0.6s-0.6,0.2-0.9,0.2c-0.5,0-1-0.2-1.3-0.5    c-0.3-0.4-0.5-0.9-0.5-1.5v-3.5h0.9v3.1c0,0.3,0,0.5,0,0.7c0,0.2,0.1,0.4,0.2,0.5c0.1,0.1,0.2,0.2,0.3,0.3    c0.1,0.1,0.3,0.1,0.6,0.1c0.2,0,0.5-0.1,0.7-0.2c0.3-0.1,0.5-0.3,0.7-0.5v-4.1h0.9V263.1z"/> 		<path style="fill:#1A171B;" d="M57,262.5c0,0.9-0.2,1.6-0.6,2c-0.4,0.4-1,0.6-1.8,0.6c-0.3,0-0.5,0-0.8-0.1    c-0.3,0-0.5-0.1-0.8-0.2V264h0c0.1,0.1,0.4,0.1,0.7,0.2c0.3,0.1,0.6,0.1,0.9,0.1c0.3,0,0.5,0,0.7-0.1c0.2-0.1,0.3-0.2,0.5-0.3    c0.1-0.1,0.2-0.3,0.2-0.5s0.1-0.4,0.1-0.6v-0.5c-0.3,0.2-0.5,0.4-0.8,0.5c-0.2,0.1-0.5,0.2-0.9,0.2c-0.6,0-1.1-0.2-1.5-0.7    c-0.4-0.5-0.5-1.1-0.5-2c0-0.5,0.1-0.9,0.2-1.2c0.1-0.3,0.3-0.6,0.5-0.9c0.2-0.2,0.4-0.4,0.7-0.5c0.3-0.1,0.6-0.2,0.9-0.2    c0.3,0,0.5,0,0.8,0.1c0.2,0.1,0.4,0.2,0.6,0.3l0.1-0.2H57V262.5z M56.1,261.6v-3c-0.2-0.1-0.4-0.2-0.6-0.2c-0.2,0-0.4-0.1-0.6-0.1    c-0.5,0-0.9,0.2-1.1,0.5c-0.3,0.3-0.4,0.8-0.4,1.5c0,0.6,0.1,1.1,0.3,1.4s0.5,0.5,1,0.5c0.3,0,0.5-0.1,0.8-0.2    C55.7,261.9,55.9,261.8,56.1,261.6z"/> 		<path style="fill:#1A171B;" d="M63,260.5h-3.8c0,0.3,0,0.6,0.1,0.9c0.1,0.3,0.2,0.5,0.4,0.6c0.2,0.2,0.4,0.3,0.6,0.4    s0.5,0.1,0.7,0.1c0.4,0,0.7-0.1,1.1-0.2c0.4-0.1,0.6-0.3,0.8-0.4h0v1c-0.3,0.1-0.6,0.2-0.9,0.3c-0.3,0.1-0.6,0.1-1,0.1    c-0.9,0-1.5-0.2-2-0.7c-0.5-0.5-0.7-1.2-0.7-2.1c0-0.9,0.2-1.6,0.7-2.1s1.1-0.8,1.8-0.8c0.7,0,1.2,0.2,1.6,0.6s0.6,1,0.6,1.8    V260.5z M62.2,259.8c0-0.5-0.1-0.9-0.3-1.1c-0.2-0.3-0.6-0.4-1-0.4c-0.5,0-0.8,0.1-1.1,0.4s-0.4,0.6-0.5,1.1H62.2z M61.3,256.7    h-0.7l-1.3-1.8h1.1L61.3,256.7z"/> 		<path style="fill:#1A171B;" d="M68.6,263.1h-0.9V260c0-0.3,0-0.5,0-0.7c0-0.2-0.1-0.4-0.2-0.5c-0.1-0.1-0.2-0.2-0.3-0.3    c-0.1-0.1-0.3-0.1-0.6-0.1c-0.2,0-0.5,0.1-0.7,0.2c-0.3,0.1-0.5,0.3-0.7,0.5v4.1h-0.9v-5.5h0.9v0.6c0.3-0.2,0.6-0.4,0.8-0.6    s0.6-0.2,0.9-0.2c0.6,0,1,0.2,1.3,0.5c0.3,0.4,0.4,0.9,0.4,1.5V263.1z"/> 		<path style="fill:#1A171B;" d="M71.2,256.7h-1v-1h1V256.7z M71.2,263.1h-0.9v-5.5h0.9V263.1z"/> 		<path style="fill:#1A171B;" d="M76.9,263.1H76v-0.6c-0.1,0.1-0.2,0.1-0.3,0.2c-0.1,0.1-0.3,0.2-0.4,0.2c-0.1,0.1-0.3,0.1-0.5,0.2    c-0.2,0-0.4,0.1-0.7,0.1c-0.5,0-0.9-0.2-1.2-0.5c-0.3-0.3-0.5-0.7-0.5-1.2c0-0.4,0.1-0.7,0.3-1c0.2-0.3,0.4-0.5,0.7-0.6    c0.3-0.1,0.7-0.2,1.1-0.3c0.4-0.1,0.9-0.1,1.4-0.1v-0.1c0-0.2,0-0.4-0.1-0.5c-0.1-0.1-0.2-0.2-0.3-0.3c-0.1-0.1-0.3-0.1-0.4-0.2    c-0.2,0-0.4,0-0.5,0c-0.2,0-0.5,0-0.8,0.1c-0.3,0.1-0.6,0.2-0.9,0.3h0v-0.9c0.2,0,0.4-0.1,0.7-0.2c0.3-0.1,0.6-0.1,0.9-0.1    c0.4,0,0.7,0,0.9,0.1c0.3,0.1,0.5,0.2,0.7,0.3c0.2,0.2,0.3,0.3,0.4,0.6s0.2,0.5,0.2,0.9V263.1z M76,261.7v-1.5    c-0.3,0-0.6,0-0.9,0.1s-0.6,0.1-0.9,0.1c-0.2,0.1-0.5,0.2-0.6,0.3c-0.2,0.2-0.2,0.4-0.2,0.7c0,0.3,0.1,0.5,0.3,0.7    c0.2,0.2,0.5,0.2,0.8,0.2c0.3,0,0.6-0.1,0.8-0.2C75.6,262.1,75.8,261.9,76,261.7z"/> 	</g> 	<g> 		<rect x="123.2" y="201.1" style="fill-rule:evenodd;clip-rule:evenodd;fill:none;" width="33.9" height="11"/> 		<path style="fill:#1A171B;" d="M129.4,209.1c-0.2,0.1-0.3,0.2-0.5,0.2c-0.1,0.1-0.3,0.1-0.5,0.2c-0.2,0.1-0.4,0.1-0.6,0.2    s-0.5,0.1-0.7,0.1c-0.5,0-1-0.1-1.4-0.2c-0.4-0.1-0.8-0.4-1.1-0.7c-0.3-0.3-0.5-0.7-0.7-1.2c-0.2-0.5-0.3-1-0.3-1.7    c0-0.6,0.1-1.1,0.2-1.6s0.4-0.9,0.7-1.2c0.3-0.3,0.6-0.6,1.1-0.7c0.4-0.2,0.9-0.2,1.4-0.2c0.4,0,0.7,0,1.1,0.1    c0.4,0.1,0.8,0.3,1.2,0.5v1.1h-0.1c-0.4-0.3-0.8-0.6-1.1-0.7s-0.8-0.2-1.2-0.2c-0.3,0-0.7,0.1-0.9,0.2s-0.5,0.3-0.7,0.6    c-0.2,0.2-0.4,0.6-0.5,0.9c-0.1,0.4-0.2,0.8-0.2,1.3c0,0.5,0.1,1,0.2,1.3c0.1,0.4,0.3,0.7,0.5,0.9c0.2,0.2,0.5,0.4,0.8,0.5    c0.3,0.1,0.6,0.2,0.9,0.2c0.4,0,0.9-0.1,1.2-0.2s0.7-0.4,1.1-0.7h0.1V209.1z"/> 		<path style="fill:#1A171B;" d="M135,206.9c0,0.9-0.2,1.6-0.6,2.1s-1,0.8-1.7,0.8c-0.7,0-1.3-0.3-1.7-0.8s-0.6-1.2-0.6-2.1    s0.2-1.6,0.6-2.1s1-0.8,1.7-0.8c0.7,0,1.3,0.3,1.7,0.8S135,206,135,206.9z M134.2,206.9c0-0.7-0.1-1.2-0.4-1.6s-0.6-0.5-1.1-0.5    c-0.5,0-0.8,0.2-1.1,0.5s-0.4,0.9-0.4,1.6c0,0.7,0.1,1.2,0.4,1.6s0.6,0.5,1.1,0.5c0.5,0,0.8-0.2,1.1-0.5    C134,208.1,134.2,207.6,134.2,206.9z"/> 		<path style="fill:#1A171B;" d="M140.1,208c0,0.5-0.2,0.9-0.6,1.2c-0.4,0.3-0.9,0.5-1.6,0.5c-0.4,0-0.7,0-1-0.1s-0.6-0.2-0.8-0.3    v-1h0c0.3,0.2,0.6,0.4,0.9,0.5c0.3,0.1,0.7,0.2,1,0.2c0.4,0,0.7-0.1,0.9-0.2c0.2-0.1,0.3-0.3,0.3-0.6c0-0.2-0.1-0.4-0.2-0.5    s-0.3-0.2-0.7-0.3c-0.1,0-0.3-0.1-0.5-0.1c-0.2,0-0.4-0.1-0.5-0.1c-0.5-0.1-0.8-0.3-1-0.6s-0.3-0.5-0.3-0.9c0-0.2,0-0.4,0.1-0.6    s0.2-0.4,0.4-0.5c0.2-0.2,0.4-0.3,0.7-0.4c0.3-0.1,0.6-0.1,0.9-0.1c0.3,0,0.6,0,0.9,0.1s0.6,0.2,0.8,0.3v1h0    c-0.2-0.2-0.5-0.3-0.8-0.4c-0.3-0.1-0.6-0.2-0.9-0.2c-0.3,0-0.6,0.1-0.8,0.2s-0.3,0.3-0.3,0.6c0,0.2,0.1,0.4,0.2,0.5    c0.1,0.1,0.3,0.2,0.6,0.3c0.2,0,0.3,0.1,0.5,0.1s0.4,0.1,0.5,0.1c0.4,0.1,0.7,0.3,0.9,0.5C140,207.3,140.1,207.6,140.1,208z"/> 		<path style="fill:#1A171B;" d="M144,209.5c-0.2,0-0.3,0.1-0.5,0.1s-0.4,0-0.5,0c-0.5,0-0.9-0.1-1.2-0.4c-0.3-0.3-0.4-0.8-0.4-1.4    v-2.9h-0.6v-0.8h0.6v-1.6h0.9v1.6h1.8v0.8h-1.8v2.5c0,0.3,0,0.5,0,0.7c0,0.2,0.1,0.3,0.1,0.5c0.1,0.1,0.2,0.2,0.3,0.3    c0.1,0.1,0.3,0.1,0.5,0.1c0.1,0,0.3,0,0.4-0.1c0.2,0,0.3-0.1,0.3-0.1h0V209.5z"/> 		<path style="fill:#1A171B;" d="M146,203.2h-1v-1h1V203.2z M145.9,209.6H145v-5.5h0.9V209.6z"/> 		<path style="fill:#1A171B;" d="M150.3,209.5c-0.2,0-0.3,0.1-0.5,0.1s-0.4,0-0.5,0c-0.5,0-0.9-0.1-1.2-0.4    c-0.3-0.3-0.4-0.8-0.4-1.4v-2.9h-0.6v-0.8h0.6v-1.6h0.9v1.6h1.8v0.8h-1.8v2.5c0,0.3,0,0.5,0,0.7c0,0.2,0.1,0.3,0.1,0.5    c0.1,0.1,0.2,0.2,0.3,0.3c0.1,0.1,0.3,0.1,0.5,0.1c0.1,0,0.3,0,0.4-0.1c0.2,0,0.3-0.1,0.3-0.1h0V209.5z"/> 		<path style="fill:#1A171B;" d="M155.8,209.6h-1.1l-1.5-2.1l-1.5,2.1h-1l2-2.7l-2-2.7h1.1l1.5,2.1l1.5-2.1h1l-2,2.7L155.8,209.6z"/> 	</g> 	<g> 		<rect x="213.3" y="132.2" style="fill-rule:evenodd;clip-rule:evenodd;fill:none;" width="23.4" height="11"/> 		<path style="fill:#1A171B;" d="M218.6,140.7h-4.3v-7.3h0.9v6.4h3.4V140.7z"/> 		<path style="fill:#1A171B;" d="M220.3,140.7h-0.9v-7.6h0.9V140.7z"/> 		<path style="fill:#1A171B;" d="M226.3,140.7h-0.9v-0.6c-0.3,0.2-0.6,0.4-0.8,0.6s-0.6,0.2-0.9,0.2c-0.5,0-1-0.2-1.3-0.5    c-0.3-0.4-0.5-0.9-0.5-1.5v-3.5h0.9v3.1c0,0.3,0,0.5,0,0.7c0,0.2,0.1,0.4,0.2,0.5c0.1,0.1,0.2,0.2,0.3,0.3    c0.1,0.1,0.3,0.1,0.6,0.1c0.2,0,0.5-0.1,0.7-0.2c0.3-0.1,0.5-0.3,0.7-0.5v-4.1h0.9V140.7z"/> 		<path style="fill:#1A171B;" d="M232.5,138c0,0.5-0.1,0.9-0.2,1.2c-0.1,0.4-0.3,0.7-0.5,0.9c-0.2,0.3-0.5,0.5-0.7,0.6    s-0.5,0.2-0.9,0.2c-0.3,0-0.5,0-0.8-0.1s-0.4-0.2-0.6-0.3l-0.1,0.3H228v-7.6h0.9v2.7c0.2-0.2,0.5-0.4,0.8-0.5    c0.3-0.1,0.6-0.2,0.9-0.2c0.6,0,1.1,0.2,1.4,0.7C232.4,136.4,232.5,137.1,232.5,138z M231.7,138c0-0.7-0.1-1.1-0.3-1.5    s-0.5-0.5-1-0.5c-0.3,0-0.5,0.1-0.8,0.2c-0.3,0.1-0.5,0.3-0.7,0.4v3.1c0.2,0.1,0.5,0.2,0.6,0.2s0.4,0.1,0.6,0.1    c0.5,0,0.9-0.2,1.1-0.5S231.7,138.7,231.7,138z"/> 		<path style="fill:#1A171B;" d="M235.7,132.6l-1.3,1.8h-0.7l0.8-1.8H235.7z M234.8,140.7h-0.9v-5.5h0.9V140.7z"/> 	</g> 	<g> 		<rect x="215.6" y="211.4" style="fill-rule:evenodd;clip-rule:evenodd;fill:none;" width="27.7" height="11"/> 		<path style="fill:#1A171B;" d="M221.5,217.9c0,0.3-0.1,0.6-0.2,0.8c-0.1,0.3-0.3,0.5-0.5,0.7c-0.2,0.2-0.5,0.4-0.9,0.5    c-0.3,0.1-0.7,0.2-1.2,0.2c-0.5,0-0.9,0-1.3-0.1c-0.4-0.1-0.8-0.2-1.2-0.4v-1.2h0.1c0.3,0.3,0.7,0.5,1.2,0.7    c0.5,0.2,0.9,0.2,1.3,0.2c0.6,0,1-0.1,1.3-0.3s0.5-0.5,0.5-0.9c0-0.3-0.1-0.6-0.2-0.7s-0.4-0.3-0.7-0.4c-0.2-0.1-0.5-0.1-0.8-0.2    c-0.3,0-0.6-0.1-0.9-0.2c-0.6-0.1-1.1-0.4-1.4-0.7s-0.4-0.8-0.4-1.3c0-0.6,0.2-1.1,0.7-1.5s1.1-0.6,1.9-0.6c0.5,0,0.9,0,1.3,0.1    c0.4,0.1,0.8,0.2,1.1,0.4v1.1h-0.1c-0.3-0.2-0.6-0.4-1-0.6c-0.4-0.2-0.9-0.2-1.3-0.2c-0.5,0-0.9,0.1-1.2,0.3s-0.4,0.5-0.4,0.8    c0,0.3,0.1,0.5,0.2,0.7s0.4,0.3,0.8,0.4c0.2,0,0.5,0.1,0.8,0.2c0.4,0.1,0.7,0.1,0.9,0.2c0.5,0.1,0.9,0.4,1.2,0.6    C221.4,216.9,221.5,217.4,221.5,217.9z"/> 		<path style="fill:#1A171B;" d="M223.8,213.6h-1v-1h1V213.6z M223.8,219.9h-0.9v-5.5h0.9V219.9z"/> 		<path style="fill:#1A171B;" d="M229.8,219.9h-0.9v-3.1c0-0.3,0-0.5,0-0.7c0-0.2-0.1-0.4-0.2-0.5c-0.1-0.1-0.2-0.2-0.3-0.3    s-0.3-0.1-0.6-0.1c-0.2,0-0.5,0.1-0.7,0.2c-0.3,0.1-0.5,0.3-0.7,0.5v4.1h-0.9v-5.5h0.9v0.6c0.3-0.2,0.6-0.4,0.8-0.6    s0.6-0.2,0.9-0.2c0.6,0,1,0.2,1.3,0.5c0.3,0.4,0.4,0.9,0.4,1.5V219.9z"/> 		<path style="fill:#1A171B;" d="M235.8,217.3H232c0,0.3,0,0.6,0.1,0.9c0.1,0.2,0.2,0.5,0.4,0.6c0.2,0.2,0.4,0.3,0.6,0.4    s0.5,0.1,0.7,0.1c0.4,0,0.7-0.1,1.1-0.2c0.4-0.1,0.6-0.3,0.8-0.4h0v1c-0.3,0.1-0.6,0.2-0.9,0.3c-0.3,0.1-0.6,0.1-1,0.1    c-0.9,0-1.5-0.2-2-0.7s-0.7-1.2-0.7-2.1c0-0.9,0.2-1.6,0.7-2.1s1.1-0.8,1.8-0.8c0.7,0,1.2,0.2,1.6,0.6s0.6,1,0.6,1.8V217.3z     M234.9,216.6c0-0.5-0.1-0.9-0.3-1.1c-0.2-0.3-0.6-0.4-1-0.4c-0.5,0-0.8,0.1-1.1,0.4s-0.4,0.6-0.5,1.1H234.9z"/> 		<path style="fill:#1A171B;" d="M241.4,219.9h-0.9v-0.6c-0.3,0.2-0.6,0.4-0.8,0.6s-0.6,0.2-0.9,0.2c-0.5,0-1-0.2-1.3-0.5    c-0.3-0.4-0.5-0.9-0.5-1.5v-3.5h0.9v3.1c0,0.3,0,0.5,0,0.7c0,0.2,0.1,0.4,0.2,0.5c0.1,0.1,0.2,0.2,0.3,0.3    c0.1,0.1,0.3,0.1,0.6,0.1c0.2,0,0.5-0.1,0.7-0.2c0.3-0.1,0.5-0.3,0.7-0.5v-4.1h0.9V219.9z"/> 	</g> 	<g> 		<rect x="159.8" y="243" style="fill-rule:evenodd;clip-rule:evenodd;fill:none;" width="48.2" height="21"/> 		<path style="fill:#1A171B;" d="M168.3,251.5h-4.3v-7.3h0.9v6.4h3.4V251.5z"/> 		<path style="fill:#1A171B;" d="M170,251.5h-0.9v-7.6h0.9V251.5z"/> 		<path style="fill:#1A171B;" d="M176.1,248.8c0,0.9-0.2,1.6-0.6,2.1s-1,0.8-1.7,0.8c-0.7,0-1.3-0.3-1.7-0.8s-0.6-1.2-0.6-2.1    s0.2-1.6,0.6-2.1c0.4-0.5,1-0.8,1.7-0.8c0.7,0,1.3,0.3,1.7,0.8C175.9,247.2,176.1,247.9,176.1,248.8z M175.2,248.8    c0-0.7-0.1-1.2-0.4-1.6c-0.3-0.3-0.6-0.5-1.1-0.5c-0.5,0-0.8,0.2-1.1,0.5c-0.3,0.3-0.4,0.9-0.4,1.6c0,0.7,0.1,1.2,0.4,1.6    c0.3,0.4,0.6,0.5,1.1,0.5c0.5,0,0.8-0.2,1.1-0.5C175.1,250,175.2,249.5,175.2,248.8z"/> 		<path style="fill:#1A171B;" d="M180.7,247.1L180.7,247.1c-0.2,0-0.3-0.1-0.4-0.1c-0.1,0-0.3,0-0.4,0c-0.3,0-0.5,0.1-0.8,0.2    c-0.3,0.1-0.5,0.3-0.7,0.5v3.9h-0.9v-5.5h0.9v0.8c0.3-0.3,0.6-0.5,0.9-0.6c0.3-0.1,0.5-0.2,0.8-0.2c0.2,0,0.3,0,0.3,0    c0.1,0,0.2,0,0.3,0V247.1z"/> 		<path style="fill:#1A171B;" d="M185.8,248.9H182c0,0.3,0,0.6,0.1,0.9c0.1,0.2,0.2,0.5,0.4,0.6c0.2,0.2,0.4,0.3,0.6,0.4    s0.5,0.1,0.7,0.1c0.4,0,0.7-0.1,1.1-0.2c0.4-0.1,0.6-0.3,0.8-0.4h0v1c-0.3,0.1-0.6,0.2-0.9,0.3c-0.3,0.1-0.6,0.1-1,0.1    c-0.9,0-1.5-0.2-2-0.7c-0.5-0.5-0.7-1.2-0.7-2.1c0-0.9,0.2-1.6,0.7-2.1s1.1-0.8,1.8-0.8c0.7,0,1.2,0.2,1.6,0.6s0.6,1,0.6,1.8    V248.9z M184.9,248.2c0-0.5-0.1-0.9-0.3-1.1c-0.2-0.3-0.6-0.4-1-0.4c-0.5,0-0.8,0.1-1.1,0.4s-0.4,0.6-0.5,1.1H184.9z"/> 		<path style="fill:#1A171B;" d="M189.8,251.5c-0.2,0-0.3,0.1-0.5,0.1s-0.4,0-0.5,0c-0.5,0-0.9-0.1-1.2-0.4    c-0.3-0.3-0.4-0.8-0.4-1.4v-2.9h-0.6v-0.8h0.6v-1.6h0.9v1.6h1.8v0.8H188v2.5c0,0.3,0,0.5,0,0.7c0,0.2,0.1,0.3,0.1,0.5    c0.1,0.1,0.2,0.2,0.3,0.3c0.1,0.1,0.3,0.1,0.5,0.1c0.1,0,0.3,0,0.4-0.1c0.2,0,0.3-0.1,0.3-0.1h0V251.5z"/> 		<path style="fill:#1A171B;" d="M198.3,251.5h-0.9v-0.6c-0.2,0.2-0.5,0.4-0.8,0.5s-0.6,0.2-0.9,0.2c-0.6,0-1.1-0.3-1.5-0.8    c-0.4-0.5-0.5-1.2-0.5-2.1c0-0.5,0.1-0.9,0.2-1.2c0.1-0.4,0.3-0.7,0.5-0.9c0.2-0.2,0.5-0.4,0.7-0.6s0.6-0.2,0.9-0.2    c0.3,0,0.5,0,0.7,0.1c0.2,0.1,0.4,0.2,0.7,0.3v-2.4h0.9V251.5z M197.5,250.2V247c-0.2-0.1-0.4-0.2-0.6-0.2s-0.4-0.1-0.6-0.1    c-0.5,0-0.9,0.2-1.1,0.5s-0.4,0.9-0.4,1.5c0,0.6,0.1,1.1,0.3,1.5c0.2,0.3,0.5,0.5,1,0.5c0.2,0,0.5-0.1,0.7-0.2    C197,250.5,197.2,250.4,197.5,250.2z"/> 		<path style="fill:#1A171B;" d="M204.4,248.9h-3.8c0,0.3,0,0.6,0.1,0.9c0.1,0.2,0.2,0.5,0.4,0.6c0.2,0.2,0.4,0.3,0.6,0.4    s0.5,0.1,0.7,0.1c0.4,0,0.7-0.1,1.1-0.2c0.4-0.1,0.6-0.3,0.8-0.4h0v1c-0.3,0.1-0.6,0.2-0.9,0.3c-0.3,0.1-0.6,0.1-1,0.1    c-0.9,0-1.5-0.2-2-0.7c-0.5-0.5-0.7-1.2-0.7-2.1c0-0.9,0.2-1.6,0.7-2.1s1.1-0.8,1.8-0.8c0.7,0,1.2,0.2,1.6,0.6s0.6,1,0.6,1.8    V248.9z M203.5,248.2c0-0.5-0.1-0.9-0.3-1.1c-0.2-0.3-0.6-0.4-1-0.4c-0.5,0-0.8,0.1-1.1,0.4s-0.4,0.6-0.5,1.1H203.5z"/> 		<path style="fill:#1A171B;" d="M166.7,254.3l-2.5,7.3H163l-2.5-7.3h1l2.2,6.4l2.2-6.4H166.7z"/> 		<path style="fill:#1A171B;" d="M168.6,255.2h-1v-1h1V255.2z M168.5,261.5h-0.9v-5.5h0.9V261.5z"/> 		<path style="fill:#1A171B;" d="M173.9,259.9c0,0.5-0.2,0.9-0.6,1.2c-0.4,0.3-0.9,0.5-1.6,0.5c-0.4,0-0.7,0-1-0.1    c-0.3-0.1-0.6-0.2-0.8-0.3v-1h0c0.3,0.2,0.6,0.4,0.9,0.5c0.3,0.1,0.7,0.2,1,0.2c0.4,0,0.7-0.1,0.9-0.2c0.2-0.1,0.3-0.3,0.3-0.6    c0-0.2-0.1-0.4-0.2-0.5s-0.3-0.2-0.7-0.3c-0.1,0-0.3-0.1-0.5-0.1c-0.2,0-0.4-0.1-0.5-0.1c-0.5-0.1-0.8-0.3-1-0.6    c-0.2-0.2-0.3-0.5-0.3-0.9c0-0.2,0-0.4,0.1-0.6s0.2-0.4,0.4-0.5c0.2-0.2,0.4-0.3,0.7-0.4c0.3-0.1,0.6-0.1,0.9-0.1    c0.3,0,0.6,0,0.9,0.1c0.3,0.1,0.6,0.2,0.8,0.3v1h0c-0.2-0.2-0.5-0.3-0.8-0.4c-0.3-0.1-0.6-0.2-0.9-0.2c-0.3,0-0.6,0.1-0.8,0.2    c-0.2,0.1-0.3,0.3-0.3,0.6c0,0.2,0.1,0.4,0.2,0.5c0.1,0.1,0.3,0.2,0.6,0.3c0.2,0,0.3,0.1,0.5,0.1s0.4,0.1,0.5,0.1    c0.4,0.1,0.7,0.3,0.9,0.5C173.8,259.2,173.9,259.6,173.9,259.9z"/> 		<path style="fill:#1A171B;" d="M177.8,261.5c-0.2,0-0.3,0.1-0.5,0.1s-0.4,0-0.5,0c-0.5,0-0.9-0.1-1.2-0.4    c-0.3-0.3-0.4-0.8-0.4-1.4v-2.9h-0.6v-0.8h0.6v-1.6h0.9v1.6h1.8v0.8H176v2.5c0,0.3,0,0.5,0,0.7c0,0.2,0.1,0.3,0.1,0.5    c0.1,0.1,0.2,0.2,0.3,0.3c0.1,0.1,0.3,0.1,0.5,0.1c0.1,0,0.3,0,0.4-0.1c0.2,0,0.3-0.1,0.3-0.1h0V261.5z"/> 		<path style="fill:#1A171B;" d="M182.9,261.5H182v-0.6c-0.1,0.1-0.2,0.1-0.3,0.2c-0.1,0.1-0.3,0.2-0.4,0.2    c-0.1,0.1-0.3,0.1-0.5,0.2c-0.2,0.1-0.4,0.1-0.7,0.1c-0.5,0-0.9-0.2-1.2-0.5c-0.3-0.3-0.5-0.7-0.5-1.2c0-0.4,0.1-0.7,0.3-1    c0.2-0.3,0.4-0.5,0.7-0.6c0.3-0.1,0.7-0.2,1.1-0.3c0.4-0.1,0.9-0.1,1.4-0.1v-0.1c0-0.2,0-0.4-0.1-0.5c-0.1-0.1-0.2-0.2-0.3-0.3    c-0.1-0.1-0.3-0.1-0.4-0.2c-0.2,0-0.4,0-0.5,0c-0.2,0-0.5,0-0.8,0.1c-0.3,0.1-0.6,0.2-0.9,0.3h0v-0.9c0.2,0,0.4-0.1,0.7-0.2    c0.3-0.1,0.6-0.1,0.9-0.1c0.4,0,0.7,0,0.9,0.1c0.3,0.1,0.5,0.2,0.7,0.3c0.2,0.1,0.3,0.3,0.4,0.6s0.2,0.5,0.2,0.9V261.5z     M182,260.2v-1.5c-0.3,0-0.6,0-0.9,0.1s-0.6,0.1-0.9,0.1c-0.2,0.1-0.5,0.2-0.6,0.3c-0.2,0.2-0.2,0.4-0.2,0.7    c0,0.3,0.1,0.5,0.3,0.7c0.2,0.2,0.5,0.2,0.8,0.2c0.3,0,0.6-0.1,0.8-0.2C181.6,260.5,181.8,260.4,182,260.2z"/> 		<path style="fill:#1A171B;" d="M185.4,261.5h-0.9v-7.6h0.9V261.5z"/> 		<path style="fill:#1A171B;" d="M191.5,258.9h-3.8c0,0.3,0,0.6,0.1,0.9c0.1,0.2,0.2,0.5,0.4,0.6c0.2,0.2,0.4,0.3,0.6,0.4    s0.5,0.1,0.7,0.1c0.4,0,0.7-0.1,1.1-0.2c0.4-0.1,0.6-0.3,0.8-0.4h0v1c-0.3,0.1-0.6,0.2-0.9,0.3c-0.3,0.1-0.6,0.1-1,0.1    c-0.9,0-1.5-0.2-2-0.7c-0.5-0.5-0.7-1.2-0.7-2.1c0-0.9,0.2-1.6,0.7-2.1s1.1-0.8,1.8-0.8c0.7,0,1.2,0.2,1.6,0.6s0.6,1,0.6,1.8    V258.9z M190.6,258.2c0-0.5-0.1-0.9-0.3-1.1c-0.2-0.3-0.6-0.4-1-0.4c-0.5,0-0.8,0.1-1.1,0.4s-0.4,0.6-0.5,1.1H190.6z"/> 		<path style="fill:#1A171B;" d="M197,260.9c0,0.9-0.2,1.6-0.6,2c-0.4,0.4-1,0.6-1.8,0.6c-0.3,0-0.5,0-0.8-0.1    c-0.3,0-0.5-0.1-0.8-0.2v-0.9h0c0.1,0.1,0.4,0.1,0.7,0.2c0.3,0.1,0.6,0.1,0.9,0.1c0.3,0,0.5,0,0.7-0.1c0.2-0.1,0.3-0.2,0.5-0.3    c0.1-0.1,0.2-0.3,0.2-0.5s0.1-0.4,0.1-0.6v-0.5c-0.3,0.2-0.5,0.4-0.8,0.5c-0.2,0.1-0.5,0.2-0.9,0.2c-0.6,0-1.1-0.2-1.5-0.7    c-0.4-0.5-0.5-1.1-0.5-2c0-0.5,0.1-0.9,0.2-1.2c0.1-0.3,0.3-0.6,0.5-0.9c0.2-0.2,0.4-0.4,0.7-0.5c0.3-0.1,0.6-0.2,0.9-0.2    c0.3,0,0.5,0,0.8,0.1c0.2,0.1,0.4,0.2,0.6,0.3l0.1-0.2h0.8V260.9z M196.1,260v-3c-0.2-0.1-0.4-0.2-0.6-0.2c-0.2,0-0.4-0.1-0.6-0.1    c-0.5,0-0.9,0.2-1.1,0.5c-0.3,0.3-0.4,0.8-0.4,1.5c0,0.6,0.1,1.1,0.3,1.4s0.5,0.5,1,0.5c0.3,0,0.5-0.1,0.8-0.2    C195.7,260.3,195.9,260.2,196.1,260z"/> 		<path style="fill:#1A171B;" d="M201.9,257.1L201.9,257.1c-0.2,0-0.3-0.1-0.4-0.1c-0.1,0-0.3,0-0.4,0c-0.3,0-0.5,0.1-0.8,0.2    c-0.3,0.1-0.5,0.3-0.7,0.5v3.9h-0.9v-5.5h0.9v0.8c0.3-0.3,0.6-0.5,0.9-0.6c0.3-0.1,0.5-0.2,0.8-0.2c0.2,0,0.3,0,0.3,0    c0.1,0,0.2,0,0.3,0V257.1z"/> 		<path style="fill:#1A171B;" d="M207,258.9h-3.8c0,0.3,0,0.6,0.1,0.9c0.1,0.2,0.2,0.5,0.4,0.6c0.2,0.2,0.4,0.3,0.6,0.4    s0.5,0.1,0.7,0.1c0.4,0,0.7-0.1,1.1-0.2c0.4-0.1,0.6-0.3,0.8-0.4h0v1c-0.3,0.1-0.6,0.2-0.9,0.3c-0.3,0.1-0.6,0.1-1,0.1    c-0.9,0-1.5-0.2-2-0.7c-0.5-0.5-0.7-1.2-0.7-2.1c0-0.9,0.2-1.6,0.7-2.1s1.1-0.8,1.8-0.8c0.7,0,1.2,0.2,1.6,0.6s0.6,1,0.6,1.8    V258.9z M206.2,258.2c0-0.5-0.1-0.9-0.3-1.1c-0.2-0.3-0.6-0.4-1-0.4c-0.5,0-0.8,0.1-1.1,0.4s-0.4,0.6-0.5,1.1H206.2z"/> 	</g> 	<g> 		<rect x="268.8" y="52.8" style="fill-rule:evenodd;clip-rule:evenodd;fill:none;" width="24.8" height="11"/> 		<path style="fill:#1A171B;" d="M275.9,61.3H275v-6.3l-1.9,4.3h-0.5l-1.9-4.3v6.3h-0.9v-7.3h1.2l1.8,4l1.8-4h1.3V61.3z"/> 		<path style="fill:#1A171B;" d="M281.9,61.3h-0.9v-0.6c-0.3,0.2-0.6,0.4-0.8,0.6s-0.6,0.2-0.9,0.2c-0.5,0-1-0.2-1.3-0.5    c-0.3-0.4-0.5-0.9-0.5-1.5v-3.5h0.9V59c0,0.3,0,0.5,0,0.7c0,0.2,0.1,0.4,0.2,0.5c0.1,0.1,0.2,0.2,0.3,0.3c0.1,0.1,0.3,0.1,0.6,0.1    c0.2,0,0.5-0.1,0.7-0.2c0.3-0.1,0.5-0.3,0.7-0.5v-4.1h0.9V61.3z"/> 		<path style="fill:#1A171B;" d="M286.9,56.9L286.9,56.9c-0.2,0-0.3-0.1-0.4-0.1c-0.1,0-0.3,0-0.4,0c-0.3,0-0.5,0.1-0.8,0.2    c-0.3,0.1-0.5,0.3-0.7,0.5v3.9h-0.9v-5.5h0.9v0.8c0.3-0.3,0.6-0.5,0.9-0.6c0.3-0.1,0.5-0.2,0.8-0.2c0.2,0,0.3,0,0.3,0    c0.1,0,0.2,0,0.3,0V56.9z"/> 		<path style="fill:#1A171B;" d="M292.1,58.6c0,0.9-0.2,1.6-0.6,2.1s-1,0.8-1.7,0.8c-0.7,0-1.3-0.3-1.7-0.8s-0.6-1.2-0.6-2.1    s0.2-1.6,0.6-2.1s1-0.8,1.7-0.8c0.7,0,1.3,0.3,1.7,0.8S292.1,57.7,292.1,58.6z M291.2,58.6c0-0.7-0.1-1.2-0.4-1.6    s-0.6-0.5-1.1-0.5c-0.5,0-0.8,0.2-1.1,0.5s-0.4,0.9-0.4,1.6c0,0.7,0.1,1.2,0.4,1.6s0.6,0.5,1.1,0.5c0.5,0,0.8-0.2,1.1-0.5    C291,59.8,291.2,59.3,291.2,58.6z"/> 	</g> 	<g> 		<rect x="339.3" y="85.5" style="fill-rule:evenodd;clip-rule:evenodd;fill:none;" width="77.9" height="11"/> 		<path style="fill:#1A171B;" d="M345.2,91.9c0,0.3-0.1,0.6-0.2,0.8c-0.1,0.3-0.3,0.5-0.5,0.7c-0.2,0.2-0.5,0.4-0.9,0.5    c-0.3,0.1-0.7,0.2-1.2,0.2c-0.5,0-0.9,0-1.3-0.1c-0.4-0.1-0.8-0.2-1.2-0.4v-1.2h0.1c0.3,0.3,0.7,0.5,1.2,0.7    c0.5,0.2,0.9,0.2,1.3,0.2c0.6,0,1-0.1,1.3-0.3s0.5-0.5,0.5-0.9c0-0.3-0.1-0.6-0.2-0.7s-0.4-0.3-0.7-0.4c-0.2-0.1-0.5-0.1-0.8-0.2    c-0.3,0-0.6-0.1-0.9-0.2c-0.6-0.1-1.1-0.4-1.4-0.7s-0.4-0.8-0.4-1.3c0-0.6,0.2-1.1,0.7-1.5s1.1-0.6,1.9-0.6c0.5,0,0.9,0,1.3,0.1    c0.4,0.1,0.8,0.2,1.1,0.4v1.1h-0.1c-0.3-0.2-0.6-0.4-1-0.6c-0.4-0.2-0.9-0.2-1.3-0.2c-0.5,0-0.9,0.1-1.2,0.3s-0.4,0.5-0.4,0.8    c0,0.3,0.1,0.5,0.2,0.7s0.4,0.3,0.8,0.4c0.2,0,0.5,0.1,0.8,0.2c0.4,0.1,0.7,0.1,0.9,0.2c0.5,0.1,0.9,0.4,1.2,0.6    C345.1,91,345.2,91.4,345.2,91.9z"/> 		<path style="fill:#1A171B;" d="M350.6,94h-0.9v-0.6c-0.1,0.1-0.2,0.1-0.3,0.2s-0.3,0.2-0.4,0.2c-0.1,0.1-0.3,0.1-0.5,0.2    s-0.4,0.1-0.7,0.1c-0.5,0-0.9-0.2-1.2-0.5c-0.3-0.3-0.5-0.7-0.5-1.2c0-0.4,0.1-0.7,0.3-1s0.4-0.5,0.7-0.6c0.3-0.1,0.7-0.2,1.1-0.3    c0.4-0.1,0.9-0.1,1.4-0.1v-0.1c0-0.2,0-0.4-0.1-0.5c-0.1-0.1-0.2-0.2-0.3-0.3c-0.1-0.1-0.3-0.1-0.4-0.2c-0.2,0-0.4,0-0.5,0    c-0.2,0-0.5,0-0.8,0.1c-0.3,0.1-0.6,0.2-0.9,0.3h0v-0.9c0.2,0,0.4-0.1,0.7-0.2c0.3-0.1,0.6-0.1,0.9-0.1c0.4,0,0.7,0,0.9,0.1    s0.5,0.2,0.7,0.3c0.2,0.1,0.3,0.3,0.4,0.6s0.2,0.5,0.2,0.9V94z M349.7,92.7v-1.5c-0.3,0-0.6,0-0.9,0.1s-0.6,0.1-0.9,0.1    c-0.2,0.1-0.5,0.2-0.6,0.3c-0.2,0.2-0.2,0.4-0.2,0.7c0,0.3,0.1,0.5,0.3,0.7s0.5,0.2,0.8,0.2c0.3,0,0.6-0.1,0.8-0.2    C349.3,93,349.5,92.8,349.7,92.7z"/> 		<path style="fill:#1A171B;" d="M356.6,94h-0.9v-3.1c0-0.3,0-0.5,0-0.7c0-0.2-0.1-0.4-0.2-0.5c-0.1-0.1-0.2-0.2-0.3-0.3    s-0.3-0.1-0.6-0.1c-0.2,0-0.5,0.1-0.7,0.2c-0.3,0.1-0.5,0.3-0.7,0.5V94h-0.9v-5.5h0.9v0.6c0.3-0.2,0.6-0.4,0.8-0.6    s0.6-0.2,0.9-0.2c0.6,0,1,0.2,1.3,0.5c0.3,0.4,0.4,0.9,0.4,1.5V94z"/> 		<path style="fill:#1A171B;" d="M360.9,93.9c-0.2,0-0.3,0.1-0.5,0.1s-0.4,0-0.5,0c-0.5,0-0.9-0.1-1.2-0.4c-0.3-0.3-0.4-0.8-0.4-1.4    v-2.9h-0.6v-0.8h0.6V87h0.9v1.6h1.8v0.8h-1.8v2.5c0,0.3,0,0.5,0,0.7c0,0.2,0.1,0.3,0.1,0.5c0.1,0.1,0.2,0.2,0.3,0.3    c0.1,0.1,0.3,0.1,0.5,0.1c0.1,0,0.3,0,0.4-0.1c0.2,0,0.3-0.1,0.3-0.1h0V93.9z"/> 		<path style="fill:#1A171B;" d="M366,94h-0.9v-0.6c-0.1,0.1-0.2,0.1-0.3,0.2s-0.3,0.2-0.4,0.2c-0.1,0.1-0.3,0.1-0.5,0.2    s-0.4,0.1-0.7,0.1c-0.5,0-0.9-0.2-1.2-0.5c-0.3-0.3-0.5-0.7-0.5-1.2c0-0.4,0.1-0.7,0.3-1s0.4-0.5,0.7-0.6c0.3-0.1,0.7-0.2,1.1-0.3    c0.4-0.1,0.9-0.1,1.4-0.1v-0.1c0-0.2,0-0.4-0.1-0.5c-0.1-0.1-0.2-0.2-0.3-0.3c-0.1-0.1-0.3-0.1-0.4-0.2c-0.2,0-0.4,0-0.5,0    c-0.2,0-0.5,0-0.8,0.1c-0.3,0.1-0.6,0.2-0.9,0.3h0v-0.9c0.2,0,0.4-0.1,0.7-0.2c0.3-0.1,0.6-0.1,0.9-0.1c0.4,0,0.7,0,0.9,0.1    s0.5,0.2,0.7,0.3c0.2,0.1,0.3,0.3,0.4,0.6s0.2,0.5,0.2,0.9V94z M365.1,92.7v-1.5c-0.3,0-0.6,0-0.9,0.1s-0.6,0.1-0.9,0.1    c-0.2,0.1-0.5,0.2-0.6,0.3c-0.2,0.2-0.2,0.4-0.2,0.7c0,0.3,0.1,0.5,0.3,0.7s0.5,0.2,0.8,0.2c0.3,0,0.6-0.1,0.8-0.2    C364.7,93,364.9,92.8,365.1,92.7z"/> 		<path style="fill:#1A171B;" d="M377.1,94h-0.9v-6.3l-1.9,4.3h-0.5l-1.9-4.3V94H371v-7.3h1.2l1.8,4l1.8-4h1.3V94z"/> 		<path style="fill:#1A171B;" d="M382.9,94h-0.9v-0.6c-0.1,0.1-0.2,0.1-0.3,0.2s-0.3,0.2-0.4,0.2c-0.1,0.1-0.3,0.1-0.5,0.2    s-0.4,0.1-0.7,0.1c-0.5,0-0.9-0.2-1.2-0.5c-0.3-0.3-0.5-0.7-0.5-1.2c0-0.4,0.1-0.7,0.3-1s0.4-0.5,0.7-0.6c0.3-0.1,0.7-0.2,1.1-0.3    c0.4-0.1,0.9-0.1,1.4-0.1v-0.1c0-0.2,0-0.4-0.1-0.5c-0.1-0.1-0.2-0.2-0.3-0.3c-0.1-0.1-0.3-0.1-0.4-0.2c-0.2,0-0.4,0-0.5,0    c-0.2,0-0.5,0-0.8,0.1c-0.3,0.1-0.6,0.2-0.9,0.3h0v-0.9c0.2,0,0.4-0.1,0.7-0.2c0.3-0.1,0.6-0.1,0.9-0.1c0.4,0,0.7,0,0.9,0.1    s0.5,0.2,0.7,0.3c0.2,0.1,0.3,0.3,0.4,0.6s0.2,0.5,0.2,0.9V94z M382.1,92.7v-1.5c-0.3,0-0.6,0-0.9,0.1s-0.6,0.1-0.9,0.1    c-0.2,0.1-0.5,0.2-0.6,0.3c-0.2,0.2-0.2,0.4-0.2,0.7c0,0.3,0.1,0.5,0.3,0.7s0.5,0.2,0.8,0.2c0.3,0,0.6-0.1,0.8-0.2    C381.6,93,381.8,92.8,382.1,92.7z"/> 		<path style="fill:#1A171B;" d="M387.8,89.5L387.8,89.5c-0.2,0-0.3-0.1-0.4-0.1c-0.1,0-0.3,0-0.4,0c-0.3,0-0.5,0.1-0.8,0.2    c-0.3,0.1-0.5,0.3-0.7,0.5V94h-0.9v-5.5h0.9v0.8c0.3-0.3,0.6-0.5,0.9-0.6c0.3-0.1,0.5-0.2,0.8-0.2c0.2,0,0.3,0,0.3,0    c0.1,0,0.2,0,0.3,0V89.5z"/> 		<path style="fill:#1A171B;" d="M392.8,93.4c0,0.9-0.2,1.6-0.6,2c-0.4,0.4-1,0.6-1.8,0.6c-0.3,0-0.5,0-0.8-0.1s-0.5-0.1-0.8-0.2    v-0.9h0c0.1,0.1,0.4,0.1,0.7,0.2s0.6,0.1,0.9,0.1c0.3,0,0.5,0,0.7-0.1c0.2-0.1,0.3-0.2,0.5-0.3c0.1-0.1,0.2-0.3,0.2-0.5    s0.1-0.4,0.1-0.6v-0.5c-0.3,0.2-0.5,0.4-0.8,0.5s-0.5,0.2-0.9,0.2c-0.6,0-1.1-0.2-1.5-0.7c-0.4-0.5-0.5-1.1-0.5-2    c0-0.5,0.1-0.9,0.2-1.2c0.1-0.3,0.3-0.6,0.5-0.9c0.2-0.2,0.4-0.4,0.7-0.5s0.6-0.2,0.9-0.2c0.3,0,0.5,0,0.8,0.1    c0.2,0.1,0.4,0.2,0.6,0.3l0.1-0.2h0.8V93.4z M391.9,92.5v-3c-0.2-0.1-0.4-0.2-0.6-0.2c-0.2,0-0.4-0.1-0.6-0.1    c-0.5,0-0.9,0.2-1.1,0.5c-0.3,0.3-0.4,0.8-0.4,1.5c0,0.6,0.1,1.1,0.3,1.4s0.5,0.5,1,0.5c0.3,0,0.5-0.1,0.8-0.2    S391.7,92.7,391.9,92.5z"/> 		<path style="fill:#1A171B;" d="M398.5,94h-0.9v-0.6c-0.1,0.1-0.2,0.1-0.3,0.2s-0.3,0.2-0.4,0.2c-0.1,0.1-0.3,0.1-0.5,0.2    s-0.4,0.1-0.7,0.1c-0.5,0-0.9-0.2-1.2-0.5c-0.3-0.3-0.5-0.7-0.5-1.2c0-0.4,0.1-0.7,0.3-1s0.4-0.5,0.7-0.6c0.3-0.1,0.7-0.2,1.1-0.3    c0.4-0.1,0.9-0.1,1.4-0.1v-0.1c0-0.2,0-0.4-0.1-0.5c-0.1-0.1-0.2-0.2-0.3-0.3c-0.1-0.1-0.3-0.1-0.4-0.2c-0.2,0-0.4,0-0.5,0    c-0.2,0-0.5,0-0.8,0.1c-0.3,0.1-0.6,0.2-0.9,0.3h0v-0.9c0.2,0,0.4-0.1,0.7-0.2c0.3-0.1,0.6-0.1,0.9-0.1c0.4,0,0.7,0,0.9,0.1    s0.5,0.2,0.7,0.3c0.2,0.1,0.3,0.3,0.4,0.6s0.2,0.5,0.2,0.9V94z M397.7,92.7v-1.5c-0.3,0-0.6,0-0.9,0.1s-0.6,0.1-0.9,0.1    c-0.2,0.1-0.5,0.2-0.6,0.3c-0.2,0.2-0.2,0.4-0.2,0.7c0,0.3,0.1,0.5,0.3,0.7s0.5,0.2,0.8,0.2c0.3,0,0.6-0.1,0.8-0.2    C397.2,93,397.4,92.8,397.7,92.7z"/> 		<path style="fill:#1A171B;" d="M401.1,94h-0.9v-7.6h0.9V94z"/> 		<path style="fill:#1A171B;" d="M403.7,87.6h-1v-1h1V87.6z M403.7,94h-0.9v-5.5h0.9V94z"/> 		<path style="fill:#1A171B;" d="M409.6,94h-0.9v-0.6c-0.2,0.2-0.5,0.4-0.8,0.5s-0.6,0.2-0.9,0.2c-0.6,0-1.1-0.3-1.5-0.8    c-0.4-0.5-0.5-1.2-0.5-2.1c0-0.5,0.1-0.9,0.2-1.2c0.1-0.4,0.3-0.7,0.5-0.9c0.2-0.2,0.5-0.4,0.7-0.6s0.6-0.2,0.9-0.2    c0.3,0,0.5,0,0.7,0.1s0.4,0.2,0.7,0.3v-2.4h0.9V94z M408.7,92.7v-3.1c-0.2-0.1-0.4-0.2-0.6-0.2s-0.4-0.1-0.6-0.1    c-0.5,0-0.9,0.2-1.1,0.5s-0.4,0.9-0.4,1.5c0,0.6,0.1,1.1,0.3,1.5s0.5,0.5,1,0.5c0.2,0,0.5-0.1,0.7-0.2    C408.2,93,408.5,92.8,408.7,92.7z"/> 		<path style="fill:#1A171B;" d="M415.3,94h-0.9v-0.6c-0.1,0.1-0.2,0.1-0.3,0.2s-0.3,0.2-0.4,0.2c-0.1,0.1-0.3,0.1-0.5,0.2    s-0.4,0.1-0.7,0.1c-0.5,0-0.9-0.2-1.2-0.5c-0.3-0.3-0.5-0.7-0.5-1.2c0-0.4,0.1-0.7,0.3-1s0.4-0.5,0.7-0.6c0.3-0.1,0.7-0.2,1.1-0.3    c0.4-0.1,0.9-0.1,1.4-0.1v-0.1c0-0.2,0-0.4-0.1-0.5c-0.1-0.1-0.2-0.2-0.3-0.3c-0.1-0.1-0.3-0.1-0.4-0.2c-0.2,0-0.4,0-0.5,0    c-0.2,0-0.5,0-0.8,0.1c-0.3,0.1-0.6,0.2-0.9,0.3h0v-0.9c0.2,0,0.4-0.1,0.7-0.2c0.3-0.1,0.6-0.1,0.9-0.1c0.4,0,0.7,0,0.9,0.1    s0.5,0.2,0.7,0.3c0.2,0.1,0.3,0.3,0.4,0.6s0.2,0.5,0.2,0.9V94z M414.4,92.7v-1.5c-0.3,0-0.6,0-0.9,0.1s-0.6,0.1-0.9,0.1    c-0.2,0.1-0.5,0.2-0.6,0.3c-0.2,0.2-0.2,0.4-0.2,0.7c0,0.3,0.1,0.5,0.3,0.7s0.5,0.2,0.8,0.2c0.3,0,0.6-0.1,0.8-0.2    C414,93,414.2,92.8,414.4,92.7z"/> 	</g> 	<g> 		<rect x="261" y="167.1" style="fill-rule:evenodd;clip-rule:evenodd;fill:none;" width="81.2" height="11"/> 		<path style="fill:#1A171B;" d="M268.1,175.6h-0.9v-6.3l-1.9,4.3h-0.5l-1.9-4.3v6.3H262v-7.3h1.2l1.8,4l1.8-4h1.3V175.6z"/> 		<path style="fill:#1A171B;" d="M273.8,175.6H273V175c-0.1,0.1-0.2,0.1-0.3,0.2s-0.3,0.2-0.4,0.2c-0.1,0.1-0.3,0.1-0.5,0.2    s-0.4,0.1-0.7,0.1c-0.5,0-0.9-0.2-1.2-0.5c-0.3-0.3-0.5-0.7-0.5-1.2c0-0.4,0.1-0.7,0.3-1s0.4-0.5,0.7-0.6c0.3-0.1,0.7-0.2,1.1-0.3    c0.4-0.1,0.9-0.1,1.4-0.1v-0.1c0-0.2,0-0.4-0.1-0.5c-0.1-0.1-0.2-0.2-0.3-0.3c-0.1-0.1-0.3-0.1-0.4-0.2c-0.2,0-0.4,0-0.5,0    c-0.2,0-0.5,0-0.8,0.1c-0.3,0.1-0.6,0.2-0.9,0.3h0v-0.9c0.2,0,0.4-0.1,0.7-0.2c0.3-0.1,0.6-0.1,0.9-0.1c0.4,0,0.7,0,0.9,0.1    s0.5,0.2,0.7,0.3c0.2,0.1,0.3,0.3,0.4,0.6s0.2,0.5,0.2,0.9V175.6z M273,174.2v-1.5c-0.3,0-0.6,0-0.9,0.1s-0.6,0.1-0.9,0.1    c-0.2,0.1-0.5,0.2-0.6,0.3c-0.2,0.2-0.2,0.4-0.2,0.7c0,0.3,0.1,0.5,0.3,0.7s0.5,0.2,0.8,0.2c0.3,0,0.6-0.1,0.8-0.2    C272.5,174.5,272.8,174.4,273,174.2z"/> 		<path style="fill:#1A171B;" d="M278.7,171.1L278.7,171.1c-0.2,0-0.3-0.1-0.4-0.1c-0.1,0-0.3,0-0.4,0c-0.3,0-0.5,0.1-0.8,0.2    c-0.3,0.1-0.5,0.3-0.7,0.5v3.9h-0.9v-5.5h0.9v0.8c0.3-0.3,0.6-0.5,0.9-0.6c0.3-0.1,0.5-0.2,0.8-0.2c0.2,0,0.3,0,0.3,0    c0.1,0,0.2,0,0.3,0V171.1z"/> 		<path style="fill:#1A171B;" d="M280.5,169.2h-1v-1h1V169.2z M280.4,175.6h-0.9v-5.5h0.9V175.6z"/> 		<path style="fill:#1A171B;" d="M286.2,175.6h-0.9V175c-0.1,0.1-0.2,0.1-0.3,0.2s-0.3,0.2-0.4,0.2c-0.1,0.1-0.3,0.1-0.5,0.2    s-0.4,0.1-0.7,0.1c-0.5,0-0.9-0.2-1.2-0.5c-0.3-0.3-0.5-0.7-0.5-1.2c0-0.4,0.1-0.7,0.3-1s0.4-0.5,0.7-0.6c0.3-0.1,0.7-0.2,1.1-0.3    c0.4-0.1,0.9-0.1,1.4-0.1v-0.1c0-0.2,0-0.4-0.1-0.5c-0.1-0.1-0.2-0.2-0.3-0.3c-0.1-0.1-0.3-0.1-0.4-0.2c-0.2,0-0.4,0-0.5,0    c-0.2,0-0.5,0-0.8,0.1c-0.3,0.1-0.6,0.2-0.9,0.3h0v-0.9c0.2,0,0.4-0.1,0.7-0.2c0.3-0.1,0.6-0.1,0.9-0.1c0.4,0,0.7,0,0.9,0.1    s0.5,0.2,0.7,0.3c0.2,0.1,0.3,0.3,0.4,0.6s0.2,0.5,0.2,0.9V175.6z M285.3,174.2v-1.5c-0.3,0-0.6,0-0.9,0.1s-0.6,0.1-0.9,0.1    c-0.2,0.1-0.5,0.2-0.6,0.3c-0.2,0.2-0.2,0.4-0.2,0.7c0,0.3,0.1,0.5,0.3,0.7s0.5,0.2,0.8,0.2c0.3,0,0.6-0.1,0.8-0.2    C284.8,174.5,285.1,174.4,285.3,174.2z"/> 		<path style="fill:#1A171B;" d="M295.3,175.6h-0.9V175c-0.2,0.2-0.5,0.4-0.8,0.5s-0.6,0.2-0.9,0.2c-0.6,0-1.1-0.3-1.5-0.8    c-0.4-0.5-0.5-1.2-0.5-2.1c0-0.5,0.1-0.9,0.2-1.2c0.1-0.4,0.3-0.7,0.5-0.9c0.2-0.2,0.5-0.4,0.7-0.6s0.6-0.2,0.9-0.2    c0.3,0,0.5,0,0.7,0.1s0.4,0.2,0.7,0.3V168h0.9V175.6z M294.5,174.2v-3.1c-0.2-0.1-0.4-0.2-0.6-0.2s-0.4-0.1-0.6-0.1    c-0.5,0-0.9,0.2-1.1,0.5s-0.4,0.9-0.4,1.5c0,0.6,0.1,1.1,0.3,1.5s0.5,0.5,1,0.5c0.2,0,0.5-0.1,0.7-0.2    C294,174.6,294.2,174.4,294.5,174.2z"/> 		<path style="fill:#1A171B;" d="M301.3,172.9h-3.8c0,0.3,0,0.6,0.1,0.9c0.1,0.2,0.2,0.5,0.4,0.6c0.2,0.2,0.4,0.3,0.6,0.4    s0.5,0.1,0.7,0.1c0.4,0,0.7-0.1,1.1-0.2c0.4-0.1,0.6-0.3,0.8-0.4h0v1c-0.3,0.1-0.6,0.2-0.9,0.3c-0.3,0.1-0.6,0.1-1,0.1    c-0.9,0-1.5-0.2-2-0.7s-0.7-1.2-0.7-2.1c0-0.9,0.2-1.6,0.7-2.1s1.1-0.8,1.8-0.8c0.7,0,1.2,0.2,1.6,0.6s0.6,1,0.6,1.8V172.9z     M300.5,172.2c0-0.5-0.1-0.9-0.3-1.1c-0.2-0.3-0.6-0.4-1-0.4c-0.5,0-0.8,0.1-1.1,0.4s-0.4,0.6-0.5,1.1H300.5z"/> 		<path style="fill:#1A171B;" d="M306.9,175.6H306V168h0.9V175.6z"/> 		<path style="fill:#1A171B;" d="M312.6,175.6h-0.9V175c-0.1,0.1-0.2,0.1-0.3,0.2s-0.3,0.2-0.4,0.2c-0.1,0.1-0.3,0.1-0.5,0.2    s-0.4,0.1-0.7,0.1c-0.5,0-0.9-0.2-1.2-0.5c-0.3-0.3-0.5-0.7-0.5-1.2c0-0.4,0.1-0.7,0.3-1s0.4-0.5,0.7-0.6c0.3-0.1,0.7-0.2,1.1-0.3    c0.4-0.1,0.9-0.1,1.4-0.1v-0.1c0-0.2,0-0.4-0.1-0.5c-0.1-0.1-0.2-0.2-0.3-0.3c-0.1-0.1-0.3-0.1-0.4-0.2c-0.2,0-0.4,0-0.5,0    c-0.2,0-0.5,0-0.8,0.1c-0.3,0.1-0.6,0.2-0.9,0.3h0v-0.9c0.2,0,0.4-0.1,0.7-0.2c0.3-0.1,0.6-0.1,0.9-0.1c0.4,0,0.7,0,0.9,0.1    s0.5,0.2,0.7,0.3c0.2,0.1,0.3,0.3,0.4,0.6s0.2,0.5,0.2,0.9V175.6z M311.7,174.2v-1.5c-0.3,0-0.6,0-0.9,0.1s-0.6,0.1-0.9,0.1    c-0.2,0.1-0.5,0.2-0.6,0.3c-0.2,0.2-0.2,0.4-0.2,0.7c0,0.3,0.1,0.5,0.3,0.7s0.5,0.2,0.8,0.2c0.3,0,0.6-0.1,0.8-0.2    C311.3,174.5,311.5,174.4,311.7,174.2z"/> 		<path style="fill:#1A171B;" d="M322.6,173.5c0,0.3-0.1,0.6-0.2,0.8c-0.1,0.3-0.3,0.5-0.5,0.7c-0.2,0.2-0.5,0.4-0.9,0.5    c-0.3,0.1-0.7,0.2-1.2,0.2c-0.5,0-0.9,0-1.3-0.1c-0.4-0.1-0.8-0.2-1.2-0.4v-1.2h0.1c0.3,0.3,0.7,0.5,1.2,0.7    c0.5,0.2,0.9,0.2,1.3,0.2c0.6,0,1-0.1,1.3-0.3s0.5-0.5,0.5-0.9c0-0.3-0.1-0.6-0.2-0.7s-0.4-0.3-0.7-0.4c-0.2-0.1-0.5-0.1-0.8-0.2    c-0.3,0-0.6-0.1-0.9-0.2c-0.6-0.1-1.1-0.4-1.4-0.7s-0.4-0.8-0.4-1.3c0-0.6,0.2-1.1,0.7-1.5s1.1-0.6,1.9-0.6c0.5,0,0.9,0,1.3,0.1    c0.4,0.1,0.8,0.2,1.1,0.4v1.1h-0.1c-0.3-0.2-0.6-0.4-1-0.6c-0.4-0.2-0.9-0.2-1.3-0.2c-0.5,0-0.9,0.1-1.2,0.3s-0.4,0.5-0.4,0.8    c0,0.3,0.1,0.5,0.2,0.7s0.4,0.3,0.8,0.4c0.2,0,0.5,0.1,0.8,0.2c0.4,0.1,0.7,0.1,0.9,0.2c0.5,0.1,0.9,0.4,1.2,0.6    C322.5,172.6,322.6,173,322.6,173.5z"/> 		<path style="fill:#1A171B;" d="M328,175.6h-0.9V175c-0.1,0.1-0.2,0.1-0.3,0.2s-0.3,0.2-0.4,0.2c-0.1,0.1-0.3,0.1-0.5,0.2    s-0.4,0.1-0.7,0.1c-0.5,0-0.9-0.2-1.2-0.5c-0.3-0.3-0.5-0.7-0.5-1.2c0-0.4,0.1-0.7,0.3-1s0.4-0.5,0.7-0.6c0.3-0.1,0.7-0.2,1.1-0.3    c0.4-0.1,0.9-0.1,1.4-0.1v-0.1c0-0.2,0-0.4-0.1-0.5c-0.1-0.1-0.2-0.2-0.3-0.3c-0.1-0.1-0.3-0.1-0.4-0.2c-0.2,0-0.4,0-0.5,0    c-0.2,0-0.5,0-0.8,0.1c-0.3,0.1-0.6,0.2-0.9,0.3h0v-0.9c0.2,0,0.4-0.1,0.7-0.2c0.3-0.1,0.6-0.1,0.9-0.1c0.4,0,0.7,0,0.9,0.1    s0.5,0.2,0.7,0.3c0.2,0.1,0.3,0.3,0.4,0.6s0.2,0.5,0.2,0.9V175.6z M327.2,174.2v-1.5c-0.3,0-0.6,0-0.9,0.1s-0.6,0.1-0.9,0.1    c-0.2,0.1-0.5,0.2-0.6,0.3c-0.2,0.2-0.2,0.4-0.2,0.7c0,0.3,0.1,0.5,0.3,0.7s0.5,0.2,0.8,0.2c0.3,0,0.6-0.1,0.8-0.2    C326.7,174.5,327,174.4,327.2,174.2z"/> 		<path style="fill:#1A171B;" d="M330.6,175.6h-0.9V168h0.9V175.6z"/> 		<path style="fill:#1A171B;" d="M336.6,175.6h-0.9V175c-0.3,0.2-0.6,0.4-0.8,0.6s-0.6,0.2-0.9,0.2c-0.5,0-1-0.2-1.3-0.5    c-0.3-0.4-0.5-0.9-0.5-1.5v-3.5h0.9v3.1c0,0.3,0,0.5,0,0.7c0,0.2,0.1,0.4,0.2,0.5c0.1,0.1,0.2,0.2,0.3,0.3    c0.1,0.1,0.3,0.1,0.6,0.1c0.2,0,0.5-0.1,0.7-0.2c0.3-0.1,0.5-0.3,0.7-0.5v-4.1h0.9V175.6z"/> 		<path style="fill:#1A171B;" d="M341,175.5c-0.2,0-0.3,0.1-0.5,0.1s-0.4,0-0.5,0c-0.5,0-0.9-0.1-1.2-0.4c-0.3-0.3-0.4-0.8-0.4-1.4    v-2.9h-0.6v-0.8h0.6v-1.6h0.9v1.6h1.8v0.8h-1.8v2.5c0,0.3,0,0.5,0,0.7c0,0.2,0.1,0.3,0.1,0.5c0.1,0.1,0.2,0.2,0.3,0.3    c0.1,0.1,0.3,0.1,0.5,0.1c0.1,0,0.3,0,0.4-0.1c0.2,0,0.3-0.1,0.3-0.1h0V175.5z"/> 	</g> 	<g> 		<rect x="316.5" y="263.5" style="fill-rule:evenodd;clip-rule:evenodd;fill:none;" width="25.5" height="11"/> 		<path style="fill:#1A171B;" d="M321.9,266.9c0,0.3-0.1,0.6-0.2,0.9c-0.1,0.3-0.3,0.5-0.4,0.7c-0.2,0.3-0.5,0.4-0.8,0.6    c-0.3,0.1-0.7,0.2-1.2,0.2h-0.9v2.7h-0.9v-7.3h1.9c0.4,0,0.8,0,1,0.1c0.3,0.1,0.5,0.2,0.8,0.3c0.3,0.2,0.5,0.4,0.6,0.7    C321.9,266.2,321.9,266.5,321.9,266.9z M321,267c0-0.3,0-0.5-0.1-0.7s-0.2-0.3-0.4-0.5c-0.1-0.1-0.3-0.2-0.5-0.2    c-0.2,0-0.4-0.1-0.7-0.1h-0.9v2.9h0.8c0.4,0,0.7,0,0.9-0.1c0.2-0.1,0.4-0.2,0.6-0.3c0.1-0.2,0.2-0.3,0.3-0.5    C321,267.4,321,267.2,321,267z"/> 		<path style="fill:#1A171B;" d="M327.2,269.4h-3.8c0,0.3,0,0.6,0.1,0.9c0.1,0.2,0.2,0.5,0.4,0.6c0.2,0.2,0.4,0.3,0.6,0.4    s0.5,0.1,0.7,0.1c0.4,0,0.7-0.1,1.1-0.2c0.4-0.1,0.6-0.3,0.8-0.4h0v1c-0.3,0.1-0.6,0.2-0.9,0.3c-0.3,0.1-0.6,0.1-1,0.1    c-0.9,0-1.5-0.2-2-0.7c-0.5-0.5-0.7-1.2-0.7-2.1c0-0.9,0.2-1.6,0.7-2.1s1.1-0.8,1.8-0.8c0.7,0,1.2,0.2,1.6,0.6s0.6,1,0.6,1.8    V269.4z M326.4,268.7c0-0.5-0.1-0.9-0.3-1.1c-0.2-0.3-0.6-0.4-1-0.4c-0.5,0-0.8,0.1-1.1,0.4s-0.4,0.6-0.5,1.1H326.4z"/> 		<path style="fill:#1A171B;" d="M331.2,272c-0.2,0-0.3,0.1-0.5,0.1s-0.4,0-0.5,0c-0.5,0-0.9-0.1-1.2-0.4c-0.3-0.3-0.4-0.8-0.4-1.4    v-2.9h-0.6v-0.8h0.6V265h0.9v1.6h1.8v0.8h-1.8v2.5c0,0.3,0,0.5,0,0.7c0,0.2,0.1,0.3,0.1,0.5c0.1,0.1,0.2,0.2,0.3,0.3    c0.1,0.1,0.3,0.1,0.5,0.1c0.1,0,0.3,0,0.4-0.1c0.2,0,0.3-0.1,0.3-0.1h0V272z"/> 		<path style="fill:#1A171B;" d="M335.5,267.6L335.5,267.6c-0.2,0-0.3-0.1-0.4-0.1c-0.1,0-0.3,0-0.4,0c-0.3,0-0.5,0.1-0.8,0.2    c-0.3,0.1-0.5,0.3-0.7,0.5v3.9h-0.9v-5.5h0.9v0.8c0.3-0.3,0.6-0.5,0.9-0.6c0.3-0.1,0.5-0.2,0.8-0.2c0.2,0,0.3,0,0.3,0    c0.1,0,0.2,0,0.3,0V267.6z"/> 		<path style="fill:#1A171B;" d="M340.1,272h-0.9v-0.6c-0.1,0.1-0.2,0.1-0.3,0.2c-0.1,0.1-0.3,0.2-0.4,0.2c-0.1,0.1-0.3,0.1-0.5,0.2    c-0.2,0.1-0.4,0.1-0.7,0.1c-0.5,0-0.9-0.2-1.2-0.5c-0.3-0.3-0.5-0.7-0.5-1.2c0-0.4,0.1-0.7,0.3-1c0.2-0.3,0.4-0.5,0.7-0.6    c0.3-0.1,0.7-0.2,1.1-0.3c0.4-0.1,0.9-0.1,1.4-0.1v-0.1c0-0.2,0-0.4-0.1-0.5c-0.1-0.1-0.2-0.2-0.3-0.3c-0.1-0.1-0.3-0.1-0.4-0.2    c-0.2,0-0.4,0-0.5,0c-0.2,0-0.5,0-0.8,0.1c-0.3,0.1-0.6,0.2-0.9,0.3h0v-0.9c0.2,0,0.4-0.1,0.7-0.2c0.3-0.1,0.6-0.1,0.9-0.1    c0.4,0,0.7,0,0.9,0.1c0.3,0.1,0.5,0.2,0.7,0.3c0.2,0.1,0.3,0.3,0.4,0.6s0.2,0.5,0.2,0.9V272z M339.3,270.7v-1.5    c-0.3,0-0.6,0-0.9,0.1s-0.6,0.1-0.9,0.1c-0.2,0.1-0.5,0.2-0.6,0.3c-0.2,0.2-0.2,0.4-0.2,0.7c0,0.3,0.1,0.5,0.3,0.7    c0.2,0.2,0.5,0.2,0.8,0.2c0.3,0,0.6-0.1,0.8-0.2C338.8,271,339.1,270.8,339.3,270.7z"/> 	</g> 	<g> 		<rect x="323.6" y="201.1" style="fill-rule:evenodd;clip-rule:evenodd;fill:none;" width="31.3" height="11"/> 		<path style="fill:#1A171B;" d="M329.9,209.6h-1l-0.7-2h-3l-0.7,2h-0.9l2.5-7.3h1.2L329.9,209.6z M328,206.7l-1.2-3.6l-1.2,3.6H328    z"/> 		<path style="fill:#1A171B;" d="M334.1,205.1L334.1,205.1c-0.2,0-0.3-0.1-0.4-0.1c-0.1,0-0.3,0-0.4,0c-0.3,0-0.5,0.1-0.8,0.2    c-0.3,0.1-0.5,0.3-0.7,0.5v3.9h-0.9v-5.5h0.9v0.8c0.3-0.3,0.6-0.5,0.9-0.6c0.3-0.1,0.5-0.2,0.8-0.2c0.2,0,0.3,0,0.3,0    c0.1,0,0.2,0,0.3,0V205.1z"/> 		<path style="fill:#1A171B;" d="M335.9,203.2h-1v-1h1V203.2z M335.8,209.6H335v-5.5h0.9V209.6z"/> 		<path style="fill:#1A171B;" d="M341.6,209.6h-0.9V209c-0.1,0.1-0.2,0.1-0.3,0.2s-0.3,0.2-0.4,0.2c-0.1,0.1-0.3,0.1-0.5,0.2    s-0.4,0.1-0.7,0.1c-0.5,0-0.9-0.2-1.2-0.5c-0.3-0.3-0.5-0.7-0.5-1.2c0-0.4,0.1-0.7,0.3-1s0.4-0.5,0.7-0.6c0.3-0.1,0.7-0.2,1.1-0.3    c0.4-0.1,0.9-0.1,1.4-0.1v-0.1c0-0.2,0-0.4-0.1-0.5c-0.1-0.1-0.2-0.2-0.3-0.3c-0.1-0.1-0.3-0.1-0.4-0.2c-0.2,0-0.4,0-0.5,0    c-0.2,0-0.5,0-0.8,0.1c-0.3,0.1-0.6,0.2-0.9,0.3h0v-0.9c0.2,0,0.4-0.1,0.7-0.2c0.3-0.1,0.6-0.1,0.9-0.1c0.4,0,0.7,0,0.9,0.1    s0.5,0.2,0.7,0.3c0.2,0.1,0.3,0.3,0.4,0.6s0.2,0.5,0.2,0.9V209.6z M340.7,208.2v-1.5c-0.3,0-0.6,0-0.9,0.1s-0.6,0.1-0.9,0.1    c-0.2,0.1-0.5,0.2-0.6,0.3c-0.2,0.2-0.2,0.4-0.2,0.7c0,0.3,0.1,0.5,0.3,0.7s0.5,0.2,0.8,0.2c0.3,0,0.6-0.1,0.8-0.2    C340.2,208.6,340.5,208.4,340.7,208.2z"/> 		<path style="fill:#1A171B;" d="M347.5,209.6h-0.9v-3.1c0-0.3,0-0.5,0-0.7c0-0.2-0.1-0.4-0.2-0.5c-0.1-0.1-0.2-0.2-0.3-0.3    s-0.3-0.1-0.6-0.1c-0.2,0-0.5,0.1-0.7,0.2c-0.3,0.1-0.5,0.3-0.7,0.5v4.1h-0.9v-5.5h0.9v0.6c0.3-0.2,0.6-0.4,0.8-0.6    s0.6-0.2,0.9-0.2c0.6,0,1,0.2,1.3,0.5c0.3,0.4,0.4,0.9,0.4,1.5V209.6z"/> 		<path style="fill:#1A171B;" d="M353.6,204.1l-3,7.5h-0.9l1-2.3l-2.1-5.2h0.9l1.6,4l1.6-4H353.6z"/> 	</g> 	<g> 		<rect x="229.4" y="284.1" style="fill-rule:evenodd;clip-rule:evenodd;fill:none;" width="47.9" height="11"/> 		<path style="fill:#1A171B;" d="M235.3,290.6c0,0.3-0.1,0.6-0.2,0.8c-0.1,0.3-0.3,0.5-0.5,0.7c-0.2,0.2-0.5,0.4-0.9,0.5    c-0.3,0.1-0.7,0.2-1.2,0.2c-0.5,0-0.9,0-1.3-0.1c-0.4-0.1-0.8-0.2-1.2-0.4V291h0.1c0.3,0.3,0.7,0.5,1.2,0.7    c0.5,0.2,0.9,0.2,1.3,0.2c0.6,0,1-0.1,1.3-0.3s0.5-0.5,0.5-0.9c0-0.3-0.1-0.6-0.2-0.7s-0.4-0.3-0.7-0.4c-0.2-0.1-0.5-0.1-0.8-0.2    c-0.3,0-0.6-0.1-0.9-0.2c-0.6-0.1-1.1-0.4-1.4-0.7c-0.3-0.3-0.4-0.8-0.4-1.3c0-0.6,0.2-1.1,0.7-1.5c0.5-0.4,1.1-0.6,1.9-0.6    c0.5,0,0.9,0,1.3,0.1c0.4,0.1,0.8,0.2,1.1,0.4v1.1h-0.1c-0.3-0.2-0.6-0.4-1-0.6c-0.4-0.2-0.9-0.2-1.3-0.2c-0.5,0-0.9,0.1-1.2,0.3    s-0.4,0.5-0.4,0.8c0,0.3,0.1,0.5,0.2,0.7s0.4,0.3,0.8,0.4c0.2,0,0.5,0.1,0.8,0.2c0.4,0.1,0.7,0.1,0.9,0.2c0.5,0.1,0.9,0.4,1.2,0.6    C235.2,289.6,235.3,290,235.3,290.6z"/> 		<path style="fill:#1A171B;" d="M240.7,292.6h-0.9V292c-0.1,0.1-0.2,0.1-0.3,0.2c-0.1,0.1-0.3,0.2-0.4,0.2    c-0.1,0.1-0.3,0.1-0.5,0.2c-0.2,0.1-0.4,0.1-0.7,0.1c-0.5,0-0.9-0.2-1.2-0.5c-0.3-0.3-0.5-0.7-0.5-1.2c0-0.4,0.1-0.7,0.3-1    c0.2-0.3,0.4-0.5,0.7-0.6c0.3-0.1,0.7-0.2,1.1-0.3c0.4-0.1,0.9-0.1,1.4-0.1v-0.1c0-0.2,0-0.4-0.1-0.5c-0.1-0.1-0.2-0.2-0.3-0.3    c-0.1-0.1-0.3-0.1-0.4-0.2c-0.2,0-0.4,0-0.5,0c-0.2,0-0.5,0-0.8,0.1c-0.3,0.1-0.6,0.2-0.9,0.3h0v-0.9c0.2,0,0.4-0.1,0.7-0.2    c0.3-0.1,0.6-0.1,0.9-0.1c0.4,0,0.7,0,0.9,0.1c0.3,0.1,0.5,0.2,0.7,0.3c0.2,0.1,0.3,0.3,0.4,0.6s0.2,0.5,0.2,0.9V292.6z     M239.8,291.3v-1.5c-0.3,0-0.6,0-0.9,0.1s-0.6,0.1-0.9,0.1c-0.2,0.1-0.5,0.2-0.6,0.3c-0.2,0.2-0.2,0.4-0.2,0.7    c0,0.3,0.1,0.5,0.3,0.7c0.2,0.2,0.5,0.2,0.8,0.2c0.3,0,0.6-0.1,0.8-0.2C239.4,291.6,239.6,291.5,239.8,291.3z"/> 		<path style="fill:#1A171B;" d="M246.7,292.6h-0.9v-3.1c0-0.3,0-0.5,0-0.7c0-0.2-0.1-0.4-0.2-0.5c-0.1-0.1-0.2-0.2-0.3-0.3    c-0.1-0.1-0.3-0.1-0.6-0.1c-0.2,0-0.5,0.1-0.7,0.2c-0.3,0.1-0.5,0.3-0.7,0.5v4.1h-0.9v-5.5h0.9v0.6c0.3-0.2,0.6-0.4,0.8-0.6    s0.6-0.2,0.9-0.2c0.6,0,1,0.2,1.3,0.5c0.3,0.4,0.4,0.9,0.4,1.5V292.6z"/> 		<path style="fill:#1A171B;" d="M251,292.6c-0.2,0-0.3,0.1-0.5,0.1s-0.4,0-0.5,0c-0.5,0-0.9-0.1-1.2-0.4c-0.3-0.3-0.4-0.8-0.4-1.4    v-2.9h-0.6v-0.8h0.6v-1.6h0.9v1.6h1.8v0.8h-1.8v2.5c0,0.3,0,0.5,0,0.7c0,0.2,0.1,0.3,0.1,0.5c0.1,0.1,0.2,0.2,0.3,0.3    c0.1,0.1,0.3,0.1,0.5,0.1c0.1,0,0.3,0,0.4-0.1c0.2,0,0.3-0.1,0.3-0.1h0V292.6z"/> 		<path style="fill:#1A171B;" d="M258,290.7c0,0.6-0.2,1.1-0.6,1.5c-0.4,0.3-0.9,0.5-1.5,0.5c-0.1,0-0.3,0-0.6,0    c-0.2,0-0.5-0.1-0.6-0.1v-0.9h0.1c0.1,0,0.3,0.1,0.5,0.1s0.4,0.1,0.6,0.1c0.3,0,0.5,0,0.7-0.1c0.2-0.1,0.3-0.2,0.4-0.3    c0.1-0.1,0.1-0.3,0.2-0.5s0-0.4,0-0.7v-4.2h-1.5v-0.8h2.4V290.7z"/> 		<path style="fill:#1A171B;" d="M264.1,289.9c0,0.9-0.2,1.6-0.6,2.1s-1,0.8-1.7,0.8c-0.7,0-1.3-0.3-1.7-0.8s-0.6-1.2-0.6-2.1    s0.2-1.6,0.6-2.1c0.4-0.5,1-0.8,1.7-0.8c0.7,0,1.3,0.3,1.7,0.8C263.9,288.3,264.1,289,264.1,289.9z M263.2,289.9    c0-0.7-0.1-1.2-0.4-1.6c-0.3-0.3-0.6-0.5-1.1-0.5c-0.5,0-0.8,0.2-1.1,0.5c-0.3,0.3-0.4,0.9-0.4,1.6c0,0.7,0.1,1.2,0.4,1.6    c0.3,0.4,0.6,0.5,1.1,0.5c0.5,0,0.8-0.2,1.1-0.5C263.1,291.1,263.2,290.6,263.2,289.9z"/> 		<path style="fill:#1A171B;" d="M269.4,292.6h-0.9V292c-0.1,0.1-0.2,0.1-0.3,0.2c-0.1,0.1-0.3,0.2-0.4,0.2    c-0.1,0.1-0.3,0.1-0.5,0.2c-0.2,0.1-0.4,0.1-0.7,0.1c-0.5,0-0.9-0.2-1.2-0.5c-0.3-0.3-0.5-0.7-0.5-1.2c0-0.4,0.1-0.7,0.3-1    c0.2-0.3,0.4-0.5,0.7-0.6c0.3-0.1,0.7-0.2,1.1-0.3c0.4-0.1,0.9-0.1,1.4-0.1v-0.1c0-0.2,0-0.4-0.1-0.5c-0.1-0.1-0.2-0.2-0.3-0.3    c-0.1-0.1-0.3-0.1-0.4-0.2c-0.2,0-0.4,0-0.5,0c-0.2,0-0.5,0-0.8,0.1c-0.3,0.1-0.6,0.2-0.9,0.3h0v-0.9c0.2,0,0.4-0.1,0.7-0.2    c0.3-0.1,0.6-0.1,0.9-0.1c0.4,0,0.7,0,0.9,0.1c0.3,0.1,0.5,0.2,0.7,0.3c0.2,0.1,0.3,0.3,0.4,0.6s0.2,0.5,0.2,0.9V292.6z     M268.6,291.3v-1.5c-0.3,0-0.6,0-0.9,0.1s-0.6,0.1-0.9,0.1c-0.2,0.1-0.5,0.2-0.6,0.3c-0.2,0.2-0.2,0.4-0.2,0.7    c0,0.3,0.1,0.5,0.3,0.7c0.2,0.2,0.5,0.2,0.8,0.2c0.3,0,0.6-0.1,0.8-0.2C268.1,291.6,268.3,291.5,268.6,291.3z"/> 		<path style="fill:#1A171B;" d="M275.4,292.6h-0.9v-3.1c0-0.3,0-0.5,0-0.7c0-0.2-0.1-0.4-0.2-0.5c-0.1-0.1-0.2-0.2-0.3-0.3    c-0.1-0.1-0.3-0.1-0.6-0.1c-0.2,0-0.5,0.1-0.7,0.2c-0.3,0.1-0.5,0.3-0.7,0.5v4.1h-0.9v-5.5h0.9v0.6c0.3-0.2,0.6-0.4,0.8-0.6    s0.6-0.2,0.9-0.2c0.6,0,1,0.2,1.3,0.5c0.3,0.4,0.4,0.9,0.4,1.5V292.6z"/> 	</g> 	<g> 		<rect x="179" y="320.6" style="fill-rule:evenodd;clip-rule:evenodd;fill:none;" width="39.7" height="11"/> 		<path style="fill:#1A171B;" d="M186,329.1h-0.9v-6.3l-1.9,4.3h-0.5l-1.9-4.3v6.3h-0.9v-7.3h1.2l1.8,4l1.8-4h1.3V329.1z"/> 		<path style="fill:#1A171B;" d="M192.2,326.4c0,0.9-0.2,1.6-0.6,2.1s-1,0.8-1.7,0.8c-0.7,0-1.3-0.3-1.7-0.8s-0.6-1.2-0.6-2.1    s0.2-1.6,0.6-2.1c0.4-0.5,1-0.8,1.7-0.8c0.7,0,1.3,0.3,1.7,0.8C192,324.8,192.2,325.5,192.2,326.4z M191.3,326.4    c0-0.7-0.1-1.2-0.4-1.6c-0.3-0.3-0.6-0.5-1.1-0.5c-0.5,0-0.8,0.2-1.1,0.5c-0.3,0.3-0.4,0.9-0.4,1.6c0,0.7,0.1,1.2,0.4,1.6    c0.3,0.4,0.6,0.5,1.1,0.5c0.5,0,0.8-0.2,1.1-0.5C191.2,327.6,191.3,327,191.3,326.4z"/> 		<path style="fill:#1A171B;" d="M197.9,329.1H197V326c0-0.3,0-0.5,0-0.7c0-0.2-0.1-0.4-0.2-0.5c-0.1-0.1-0.2-0.2-0.3-0.3    c-0.1-0.1-0.3-0.1-0.6-0.1c-0.2,0-0.5,0.1-0.7,0.2c-0.3,0.1-0.5,0.3-0.7,0.5v4.1h-0.9v-5.5h0.9v0.6c0.3-0.2,0.6-0.4,0.8-0.6    s0.6-0.2,0.9-0.2c0.6,0,1,0.2,1.3,0.5c0.3,0.4,0.4,0.9,0.4,1.5V329.1z"/> 		<path style="fill:#1A171B;" d="M202.2,329c-0.2,0-0.3,0.1-0.5,0.1s-0.4,0-0.5,0c-0.5,0-0.9-0.1-1.2-0.4c-0.3-0.3-0.4-0.8-0.4-1.4    v-2.9H199v-0.8h0.6v-1.6h0.9v1.6h1.8v0.8h-1.8v2.5c0,0.3,0,0.5,0,0.7c0,0.2,0.1,0.3,0.1,0.5c0.1,0.1,0.2,0.2,0.3,0.3    c0.1,0.1,0.3,0.1,0.5,0.1c0.1,0,0.3,0,0.4-0.1c0.2,0,0.3-0.1,0.3-0.1h0V329z"/> 		<path style="fill:#1A171B;" d="M207.5,329.1h-0.9v-0.6c-0.3,0.2-0.6,0.4-0.8,0.6s-0.6,0.2-0.9,0.2c-0.5,0-1-0.2-1.3-0.5    c-0.3-0.3-0.5-0.9-0.5-1.5v-3.5h0.9v3.1c0,0.3,0,0.5,0,0.7c0,0.2,0.1,0.4,0.2,0.5c0.1,0.1,0.2,0.2,0.3,0.3    c0.1,0.1,0.3,0.1,0.6,0.1c0.2,0,0.5-0.1,0.7-0.2c0.3-0.1,0.5-0.3,0.7-0.5v-4.1h0.9V329.1z"/> 		<path style="fill:#1A171B;" d="M209.3,322.7h-0.9v-1h0.9V322.7z M210.1,329.1h-0.9v-5.5h0.9V329.1z M210.9,322.7h-0.9v-1h0.9    V322.7z"/> 		<path style="fill:#1A171B;" d="M215,324.6L215,324.6c-0.2,0-0.3-0.1-0.4-0.1c-0.1,0-0.3,0-0.4,0c-0.3,0-0.5,0.1-0.8,0.2    c-0.3,0.1-0.5,0.3-0.7,0.5v3.9h-0.9v-5.5h0.9v0.8c0.3-0.3,0.6-0.5,0.9-0.6c0.3-0.1,0.5-0.2,0.8-0.2c0.2,0,0.3,0,0.3,0    c0.1,0,0.2,0,0.3,0V324.6z"/> 		<path style="fill:#1A171B;" d="M216.8,322.7h-1v-1h1V322.7z M216.7,329.1h-0.9v-5.5h0.9V329.1z"/> 	</g> 	<g> 		<rect x="230.7" y="391.5" style="fill-rule:evenodd;clip-rule:evenodd;fill:none;" width="40.6" height="11"/> 		<path style="fill:#1A171B;" d="M236.1,395c0,0.3-0.1,0.6-0.2,0.9c-0.1,0.3-0.3,0.5-0.4,0.7c-0.2,0.3-0.5,0.4-0.8,0.6    c-0.3,0.1-0.7,0.2-1.2,0.2h-0.9v2.7h-0.9v-7.3h1.9c0.4,0,0.8,0,1,0.1c0.3,0.1,0.5,0.2,0.8,0.3c0.3,0.2,0.5,0.4,0.6,0.7    C236,394.2,236.1,394.6,236.1,395z M235.2,395c0-0.3,0-0.5-0.1-0.7s-0.2-0.3-0.4-0.5c-0.1-0.1-0.3-0.2-0.5-0.2    c-0.2,0-0.4-0.1-0.7-0.1h-0.9v2.9h0.8c0.4,0,0.7,0,0.9-0.1c0.2-0.1,0.4-0.2,0.6-0.3c0.1-0.2,0.2-0.3,0.3-0.5    C235.1,395.4,235.2,395.2,235.2,395z"/> 		<path style="fill:#1A171B;" d="M241.5,397.3c0,0.9-0.2,1.6-0.6,2.1s-1,0.8-1.7,0.8c-0.7,0-1.3-0.3-1.7-0.8s-0.6-1.2-0.6-2.1    s0.2-1.6,0.6-2.1c0.4-0.5,1-0.8,1.7-0.8c0.7,0,1.3,0.3,1.7,0.8C241.2,395.7,241.5,396.4,241.5,397.3z M240.6,397.3    c0-0.7-0.1-1.2-0.4-1.6c-0.3-0.3-0.6-0.5-1.1-0.5c-0.5,0-0.8,0.2-1.1,0.5c-0.3,0.3-0.4,0.9-0.4,1.6c0,0.7,0.1,1.2,0.4,1.6    c0.3,0.4,0.6,0.5,1.1,0.5c0.5,0,0.8-0.2,1.1-0.5C240.4,398.5,240.6,398,240.6,397.3z"/> 		<path style="fill:#1A171B;" d="M246,395.6L246,395.6c-0.2,0-0.3-0.1-0.4-0.1c-0.1,0-0.3,0-0.4,0c-0.3,0-0.5,0.1-0.8,0.2    c-0.3,0.1-0.5,0.3-0.7,0.5v3.9h-0.9v-5.5h0.9v0.8c0.3-0.3,0.6-0.5,0.9-0.6c0.3-0.1,0.5-0.2,0.8-0.2c0.2,0,0.3,0,0.3,0    c0.1,0,0.2,0,0.3,0V395.6z"/> 		<path style="fill:#1A171B;" d="M250,395.6L250,395.6c-0.2,0-0.3-0.1-0.4-0.1c-0.1,0-0.3,0-0.4,0c-0.3,0-0.5,0.1-0.8,0.2    c-0.3,0.1-0.5,0.3-0.7,0.5v3.9h-0.9v-5.5h0.9v0.8c0.3-0.3,0.6-0.5,0.9-0.6c0.3-0.1,0.5-0.2,0.8-0.2c0.2,0,0.3,0,0.3,0    c0.1,0,0.2,0,0.3,0V395.6z"/> 		<path style="fill:#1A171B;" d="M255.2,397.4h-3.8c0,0.3,0,0.6,0.1,0.9c0.1,0.2,0.2,0.5,0.4,0.6c0.2,0.2,0.4,0.3,0.6,0.4    s0.5,0.1,0.7,0.1c0.4,0,0.7-0.1,1.1-0.2c0.4-0.1,0.6-0.3,0.8-0.4h0v1c-0.3,0.1-0.6,0.2-0.9,0.3c-0.3,0.1-0.6,0.1-1,0.1    c-0.9,0-1.5-0.2-2-0.7c-0.5-0.5-0.7-1.2-0.7-2.1c0-0.9,0.2-1.6,0.7-2.1s1.1-0.8,1.8-0.8c0.7,0,1.2,0.2,1.6,0.6s0.6,1,0.6,1.8    V397.4z M254.3,396.7c0-0.5-0.1-0.9-0.3-1.1c-0.2-0.3-0.6-0.4-1-0.4c-0.5,0-0.8,0.1-1.1,0.4s-0.4,0.6-0.5,1.1H254.3z"/> 		<path style="fill:#1A171B;" d="M259.7,395.6L259.7,395.6c-0.2,0-0.3-0.1-0.4-0.1c-0.1,0-0.3,0-0.4,0c-0.3,0-0.5,0.1-0.8,0.2    c-0.3,0.1-0.5,0.3-0.7,0.5v3.9h-0.9v-5.5h0.9v0.8c0.3-0.3,0.6-0.5,0.9-0.6c0.3-0.1,0.5-0.2,0.8-0.2c0.2,0,0.3,0,0.3,0    c0.1,0,0.2,0,0.3,0V395.6z"/> 		<path style="fill:#1A171B;" d="M264.8,397.4H261c0,0.3,0,0.6,0.1,0.9c0.1,0.2,0.2,0.5,0.4,0.6c0.2,0.2,0.4,0.3,0.6,0.4    s0.5,0.1,0.7,0.1c0.4,0,0.7-0.1,1.1-0.2c0.4-0.1,0.6-0.3,0.8-0.4h0v1c-0.3,0.1-0.6,0.2-0.9,0.3c-0.3,0.1-0.6,0.1-1,0.1    c-0.9,0-1.5-0.2-2-0.7c-0.5-0.5-0.7-1.2-0.7-2.1c0-0.9,0.2-1.6,0.7-2.1s1.1-0.8,1.8-0.8c0.7,0,1.2,0.2,1.6,0.6s0.6,1,0.6,1.8    V397.4z M264,396.7c0-0.5-0.1-0.9-0.3-1.1c-0.2-0.3-0.6-0.4-1-0.4c-0.5,0-0.8,0.1-1.1,0.4s-0.4,0.6-0.5,1.1H264z"/> 		<path style="fill:#1A171B;" d="M269.8,398.5c0,0.5-0.2,0.9-0.6,1.2c-0.4,0.3-0.9,0.5-1.6,0.5c-0.4,0-0.7,0-1-0.1    c-0.3-0.1-0.6-0.2-0.8-0.3v-1h0c0.3,0.2,0.6,0.4,0.9,0.5c0.3,0.1,0.7,0.2,1,0.2c0.4,0,0.7-0.1,0.9-0.2c0.2-0.1,0.3-0.3,0.3-0.6    c0-0.2-0.1-0.4-0.2-0.5s-0.3-0.2-0.7-0.3c-0.1,0-0.3-0.1-0.5-0.1c-0.2,0-0.4-0.1-0.5-0.1c-0.5-0.1-0.8-0.3-1-0.6    c-0.2-0.2-0.3-0.5-0.3-0.9c0-0.2,0-0.4,0.1-0.6s0.2-0.4,0.4-0.5c0.2-0.2,0.4-0.3,0.7-0.4c0.3-0.1,0.6-0.1,0.9-0.1    c0.3,0,0.6,0,0.9,0.1c0.3,0.1,0.6,0.2,0.8,0.3v1h0c-0.2-0.2-0.5-0.3-0.8-0.4c-0.3-0.1-0.6-0.2-0.9-0.2c-0.3,0-0.6,0.1-0.8,0.2    c-0.2,0.1-0.3,0.3-0.3,0.6c0,0.2,0.1,0.4,0.2,0.5c0.1,0.1,0.3,0.2,0.6,0.3c0.2,0,0.3,0.1,0.5,0.1s0.4,0.1,0.5,0.1    c0.4,0.1,0.7,0.3,0.9,0.5C269.7,397.8,269.8,398.1,269.8,398.5z"/> 	</g> 	<g> 		<rect x="308.5" y="315.6" style="fill-rule:evenodd;clip-rule:evenodd;fill:none;" width="51.2" height="21"/> 		<path style="fill:#1A171B;" d="M317.1,316.8l-2.5,7.3h-1.2l-2.5-7.3h1l2.2,6.4l2.2-6.4H317.1z"/> 		<path style="fill:#1A171B;" d="M319,317.7h-1v-1h1V317.7z M318.9,324.1h-0.9v-5.5h0.9V324.1z"/> 		<path style="fill:#1A171B;" d="M321.5,324.1h-0.9v-7.6h0.9V324.1z"/> 		<path style="fill:#1A171B;" d="M327.3,324.1h-0.9v-0.6c-0.1,0.1-0.2,0.1-0.3,0.2c-0.1,0.1-0.3,0.2-0.4,0.2    c-0.1,0.1-0.3,0.1-0.5,0.2c-0.2,0.1-0.4,0.1-0.7,0.1c-0.5,0-0.9-0.2-1.2-0.5c-0.3-0.3-0.5-0.7-0.5-1.2c0-0.4,0.1-0.7,0.3-1    c0.2-0.3,0.4-0.5,0.7-0.6c0.3-0.1,0.7-0.2,1.1-0.3c0.4-0.1,0.9-0.1,1.4-0.1v-0.1c0-0.2,0-0.4-0.1-0.5c-0.1-0.1-0.2-0.2-0.3-0.3    c-0.1-0.1-0.3-0.1-0.4-0.2c-0.2,0-0.4,0-0.5,0c-0.2,0-0.5,0-0.8,0.1c-0.3,0.1-0.6,0.2-0.9,0.3h0v-0.9c0.2,0,0.4-0.1,0.7-0.2    c0.3-0.1,0.6-0.1,0.9-0.1c0.4,0,0.7,0,0.9,0.1c0.3,0.1,0.5,0.2,0.7,0.3c0.2,0.1,0.3,0.3,0.4,0.6s0.2,0.5,0.2,0.9V324.1z     M326.4,322.7v-1.5c-0.3,0-0.6,0-0.9,0.1s-0.6,0.1-0.9,0.1c-0.2,0.1-0.5,0.2-0.6,0.3c-0.2,0.2-0.2,0.4-0.2,0.7    c0,0.3,0.1,0.5,0.3,0.7c0.2,0.2,0.5,0.2,0.8,0.2c0.3,0,0.6-0.1,0.8-0.2C325.9,323.1,326.2,322.9,326.4,322.7z"/> 		<path style="fill:#1A171B;" d="M331.7,317.4L331.7,317.4c-0.1,0-0.3-0.1-0.4-0.1c-0.2,0-0.3,0-0.4,0c-0.4,0-0.6,0.1-0.8,0.3    c-0.2,0.2-0.3,0.5-0.3,0.9v0.2h1.6v0.8h-1.5v4.7H329v-4.7h-0.6v-0.8h0.6v-0.2c0-0.6,0.2-1.1,0.5-1.5c0.3-0.3,0.7-0.5,1.3-0.5    c0.2,0,0.4,0,0.5,0s0.3,0,0.4,0.1V317.4z"/> 		<path style="fill:#1A171B;" d="M335.5,319.6L335.5,319.6c-0.2,0-0.3-0.1-0.4-0.1c-0.1,0-0.3,0-0.4,0c-0.3,0-0.5,0.1-0.8,0.2    c-0.3,0.1-0.5,0.3-0.7,0.5v3.9h-0.9v-5.5h0.9v0.8c0.3-0.3,0.6-0.5,0.9-0.6c0.3-0.1,0.5-0.2,0.8-0.2c0.2,0,0.3,0,0.3,0    c0.1,0,0.2,0,0.3,0V319.6z"/> 		<path style="fill:#1A171B;" d="M340.2,324.1h-0.9v-0.6c-0.1,0.1-0.2,0.1-0.3,0.2c-0.1,0.1-0.3,0.2-0.4,0.2    c-0.1,0.1-0.3,0.1-0.5,0.2c-0.2,0.1-0.4,0.1-0.7,0.1c-0.5,0-0.9-0.2-1.2-0.5c-0.3-0.3-0.5-0.7-0.5-1.2c0-0.4,0.1-0.7,0.3-1    c0.2-0.3,0.4-0.5,0.7-0.6c0.3-0.1,0.7-0.2,1.1-0.3c0.4-0.1,0.9-0.1,1.4-0.1v-0.1c0-0.2,0-0.4-0.1-0.5c-0.1-0.1-0.2-0.2-0.3-0.3    c-0.1-0.1-0.3-0.1-0.4-0.2c-0.2,0-0.4,0-0.5,0c-0.2,0-0.5,0-0.8,0.1c-0.3,0.1-0.6,0.2-0.9,0.3h0v-0.9c0.2,0,0.4-0.1,0.7-0.2    c0.3-0.1,0.6-0.1,0.9-0.1c0.4,0,0.7,0,0.9,0.1c0.3,0.1,0.5,0.2,0.7,0.3c0.2,0.1,0.3,0.3,0.4,0.6s0.2,0.5,0.2,0.9V324.1z     M339.3,322.7v-1.5c-0.3,0-0.6,0-0.9,0.1s-0.6,0.1-0.9,0.1c-0.2,0.1-0.5,0.2-0.6,0.3c-0.2,0.2-0.2,0.4-0.2,0.7    c0,0.3,0.1,0.5,0.3,0.7c0.2,0.2,0.5,0.2,0.8,0.2c0.3,0,0.6-0.1,0.8-0.2C338.8,323.1,339.1,322.9,339.3,322.7z"/> 		<path style="fill:#1A171B;" d="M346.1,324.1h-0.9V321c0-0.3,0-0.5,0-0.7c0-0.2-0.1-0.4-0.2-0.5c-0.1-0.1-0.2-0.2-0.3-0.3    c-0.1-0.1-0.3-0.1-0.6-0.1c-0.2,0-0.5,0.1-0.7,0.2c-0.3,0.1-0.5,0.3-0.7,0.5v4.1h-0.9v-5.5h0.9v0.6c0.3-0.2,0.6-0.4,0.8-0.6    s0.6-0.2,0.9-0.2c0.6,0,1,0.2,1.3,0.5c0.3,0.4,0.4,0.9,0.4,1.5V324.1z"/> 		<path style="fill:#1A171B;" d="M351.6,323.7c-0.3,0.1-0.6,0.3-0.8,0.3c-0.3,0.1-0.5,0.1-0.8,0.1c-0.4,0-0.7-0.1-1-0.2    c-0.3-0.1-0.6-0.3-0.8-0.5c-0.2-0.2-0.4-0.5-0.5-0.9s-0.2-0.8-0.2-1.3c0-0.9,0.2-1.6,0.7-2.1s1.1-0.8,1.8-0.8c0.3,0,0.6,0,0.9,0.1    s0.5,0.2,0.8,0.3v1h0c-0.3-0.2-0.5-0.4-0.8-0.5s-0.6-0.2-0.8-0.2c-0.5,0-0.9,0.2-1.2,0.5c-0.3,0.4-0.4,0.9-0.4,1.5    c0,0.7,0.1,1.2,0.4,1.5c0.3,0.4,0.7,0.5,1.2,0.5c0.2,0,0.4,0,0.5-0.1s0.3-0.1,0.5-0.2c0.1-0.1,0.2-0.1,0.4-0.2    c0.1-0.1,0.2-0.1,0.3-0.2h0V323.7z"/> 		<path style="fill:#1A171B;" d="M356.7,324.1h-0.9v-0.6c-0.1,0.1-0.2,0.1-0.3,0.2c-0.1,0.1-0.3,0.2-0.4,0.2    c-0.1,0.1-0.3,0.1-0.5,0.2c-0.2,0.1-0.4,0.1-0.7,0.1c-0.5,0-0.9-0.2-1.2-0.5c-0.3-0.3-0.5-0.7-0.5-1.2c0-0.4,0.1-0.7,0.3-1    c0.2-0.3,0.4-0.5,0.7-0.6c0.3-0.1,0.7-0.2,1.1-0.3c0.4-0.1,0.9-0.1,1.4-0.1v-0.1c0-0.2,0-0.4-0.1-0.5c-0.1-0.1-0.2-0.2-0.3-0.3    c-0.1-0.1-0.3-0.1-0.4-0.2c-0.2,0-0.4,0-0.5,0c-0.2,0-0.5,0-0.8,0.1c-0.3,0.1-0.6,0.2-0.9,0.3h0v-0.9c0.2,0,0.4-0.1,0.7-0.2    c0.3-0.1,0.6-0.1,0.9-0.1c0.4,0,0.7,0,0.9,0.1c0.3,0.1,0.5,0.2,0.7,0.3c0.2,0.1,0.3,0.3,0.4,0.6s0.2,0.5,0.2,0.9V324.1z     M355.9,322.7v-1.5c-0.3,0-0.6,0-0.9,0.1s-0.6,0.1-0.9,0.1c-0.2,0.1-0.5,0.2-0.6,0.3c-0.2,0.2-0.2,0.4-0.2,0.7    c0,0.3,0.1,0.5,0.3,0.7c0.2,0.2,0.5,0.2,0.8,0.2c0.3,0,0.6-0.1,0.8-0.2C355.4,323.1,355.7,322.9,355.9,322.7z"/> 		<path style="fill:#1A171B;" d="M314.1,334.1h-0.9v-0.6c-0.2,0.2-0.5,0.4-0.8,0.5s-0.6,0.2-0.9,0.2c-0.6,0-1.1-0.3-1.5-0.8    c-0.4-0.5-0.5-1.2-0.5-2.1c0-0.5,0.1-0.9,0.2-1.2c0.1-0.4,0.3-0.7,0.5-0.9c0.2-0.2,0.5-0.4,0.7-0.6s0.6-0.2,0.9-0.2    c0.3,0,0.5,0,0.7,0.1c0.2,0.1,0.4,0.2,0.7,0.3v-2.4h0.9V334.1z M313.2,332.7v-3.1c-0.2-0.1-0.4-0.2-0.6-0.2s-0.4-0.1-0.6-0.1    c-0.5,0-0.9,0.2-1.1,0.5s-0.4,0.9-0.4,1.5c0,0.6,0.1,1.1,0.3,1.5c0.2,0.3,0.5,0.5,1,0.5c0.2,0,0.5-0.1,0.7-0.2    C312.8,333.1,313,332.9,313.2,332.7z"/> 		<path style="fill:#1A171B;" d="M320.1,331.4h-3.8c0,0.3,0,0.6,0.1,0.9c0.1,0.2,0.2,0.5,0.4,0.6c0.2,0.2,0.4,0.3,0.6,0.4    s0.5,0.1,0.7,0.1c0.4,0,0.7-0.1,1.1-0.2c0.4-0.1,0.6-0.3,0.8-0.4h0v1c-0.3,0.1-0.6,0.2-0.9,0.3c-0.3,0.1-0.6,0.1-1,0.1    c-0.9,0-1.5-0.2-2-0.7c-0.5-0.5-0.7-1.2-0.7-2.1c0-0.9,0.2-1.6,0.7-2.1s1.1-0.8,1.8-0.8c0.7,0,1.2,0.2,1.6,0.6s0.6,1,0.6,1.8    V331.4z M319.3,330.7c0-0.5-0.1-0.9-0.3-1.1c-0.2-0.3-0.6-0.4-1-0.4c-0.5,0-0.8,0.1-1.1,0.4s-0.4,0.6-0.5,1.1H319.3z"/> 		<path style="fill:#1A171B;" d="M330,331.8c0,0.4-0.1,0.7-0.2,1c-0.1,0.3-0.3,0.5-0.5,0.7c-0.3,0.2-0.5,0.4-0.9,0.5    c-0.3,0.1-0.7,0.1-1.2,0.1h-2.4v-7.3h2c0.5,0,0.9,0,1.1,0.1s0.5,0.1,0.7,0.2c0.3,0.1,0.4,0.3,0.5,0.5c0.1,0.2,0.2,0.5,0.2,0.8    c0,0.3-0.1,0.6-0.2,0.9c-0.2,0.2-0.4,0.4-0.7,0.6v0c0.5,0.1,0.8,0.3,1.1,0.6C329.9,330.9,330,331.3,330,331.8z M328.5,328.6    c0-0.2,0-0.3-0.1-0.4c-0.1-0.1-0.1-0.2-0.3-0.3c-0.1-0.1-0.3-0.1-0.5-0.2c-0.2,0-0.5,0-0.8,0h-1.1v2.1h1.2c0.3,0,0.5,0,0.7,0    c0.2,0,0.3-0.1,0.5-0.2s0.2-0.2,0.3-0.4C328.4,329,328.5,328.8,328.5,328.6z M329,331.9c0-0.3,0-0.5-0.1-0.7s-0.2-0.3-0.5-0.4    c-0.1-0.1-0.3-0.1-0.5-0.2c-0.2,0-0.5,0-0.8,0h-1.4v2.7h1.2c0.4,0,0.7,0,1-0.1c0.3,0,0.5-0.1,0.6-0.2c0.2-0.1,0.3-0.3,0.4-0.4    S329,332.1,329,331.9z"/> 		<path style="fill:#1A171B;" d="M335.6,331.4c0,0.9-0.2,1.6-0.6,2.1s-1,0.8-1.7,0.8c-0.7,0-1.3-0.3-1.7-0.8s-0.6-1.2-0.6-2.1    s0.2-1.6,0.6-2.1c0.4-0.5,1-0.8,1.7-0.8c0.7,0,1.3,0.3,1.7,0.8C335.4,329.8,335.6,330.5,335.6,331.4z M334.7,331.4    c0-0.7-0.1-1.2-0.4-1.6c-0.3-0.3-0.6-0.5-1.1-0.5c-0.5,0-0.8,0.2-1.1,0.5c-0.3,0.3-0.4,0.9-0.4,1.6c0,0.7,0.1,1.2,0.4,1.6    c0.3,0.4,0.6,0.5,1.1,0.5c0.5,0,0.8-0.2,1.1-0.5C334.6,332.6,334.7,332,334.7,331.4z"/> 		<path style="fill:#1A171B;" d="M341.3,334.1h-0.9V331c0-0.3,0-0.5,0-0.7c0-0.2-0.1-0.4-0.2-0.5c-0.1-0.1-0.2-0.2-0.3-0.3    c-0.1-0.1-0.3-0.1-0.6-0.1c-0.2,0-0.5,0.1-0.7,0.2c-0.3,0.1-0.5,0.3-0.7,0.5v4.1H337v-5.5h0.9v0.6c0.3-0.2,0.6-0.4,0.8-0.6    s0.6-0.2,0.9-0.2c0.6,0,1,0.2,1.3,0.5c0.3,0.4,0.4,0.9,0.4,1.5V334.1z"/> 		<path style="fill:#1A171B;" d="M346.9,334.1h-0.9v-0.6c-0.1,0.1-0.2,0.1-0.3,0.2c-0.1,0.1-0.3,0.2-0.4,0.2    c-0.1,0.1-0.3,0.1-0.5,0.2c-0.2,0.1-0.4,0.1-0.7,0.1c-0.5,0-0.9-0.2-1.2-0.5c-0.3-0.3-0.5-0.7-0.5-1.2c0-0.4,0.1-0.7,0.3-1    c0.2-0.3,0.4-0.5,0.7-0.6c0.3-0.1,0.7-0.2,1.1-0.3c0.4-0.1,0.9-0.1,1.4-0.1v-0.1c0-0.2,0-0.4-0.1-0.5c-0.1-0.1-0.2-0.2-0.3-0.3    c-0.1-0.1-0.3-0.1-0.4-0.2c-0.2,0-0.4,0-0.5,0c-0.2,0-0.5,0-0.8,0.1c-0.3,0.1-0.6,0.2-0.9,0.3h0v-0.9c0.2,0,0.4-0.1,0.7-0.2    c0.3-0.1,0.6-0.1,0.9-0.1c0.4,0,0.7,0,0.9,0.1c0.3,0.1,0.5,0.2,0.7,0.3c0.2,0.1,0.3,0.3,0.4,0.6s0.2,0.5,0.2,0.9V334.1z     M346.1,332.7v-1.5c-0.3,0-0.6,0-0.9,0.1s-0.6,0.1-0.9,0.1c-0.2,0.1-0.5,0.2-0.6,0.3c-0.2,0.2-0.2,0.4-0.2,0.7    c0,0.3,0.1,0.5,0.3,0.7c0.2,0.2,0.5,0.2,0.8,0.2c0.3,0,0.6-0.1,0.8-0.2C345.6,333.1,345.9,332.9,346.1,332.7z"/> 		<path style="fill:#1A171B;" d="M352.9,334.1h-0.9V331c0-0.3,0-0.5,0-0.7c0-0.2-0.1-0.4-0.2-0.5c-0.1-0.1-0.2-0.2-0.3-0.3    c-0.1-0.1-0.3-0.1-0.6-0.1c-0.2,0-0.5,0.1-0.7,0.2c-0.3,0.1-0.5,0.3-0.7,0.5v4.1h-0.9v-5.5h0.9v0.6c0.3-0.2,0.6-0.4,0.8-0.6    s0.6-0.2,0.9-0.2c0.6,0,1,0.2,1.3,0.5c0.3,0.4,0.4,0.9,0.4,1.5V334.1z"/> 		<path style="fill:#1A171B;" d="M359,328.6l-3,7.5H355l1-2.3l-2.1-5.2h0.9l1.6,4l1.6-4H359z"/> 	</g> </g> <g id="llegenda"> 	<line style="fill:none;stroke:#9A9A9A;stroke-width:2;stroke-miterlimit:10;" x1="643.5" y1="239.5" x2="643.5" y2="269"/> 	<line style="fill:none;stroke:#9A9A9A;stroke-miterlimit:10;" x1="676.9" y1="239.5" x2="676.9" y2="269"/> 	<g> 		<path d="M651.2,249.9h0.9v7.1h-0.9V249.9z"/> 		<path d="M654.6,250.8c0,0.3-0.2,0.5-0.6,0.5c-0.3,0-0.5-0.2-0.5-0.5c0-0.3,0.2-0.5,0.5-0.5C654.4,250.3,654.6,250.5,654.6,250.8z     M653.6,257v-4.8h0.9v4.8H653.6z"/> 		<path d="M655.9,253.5c0-0.5,0-0.9,0-1.3h0.8l0,0.8h0c0.2-0.4,0.8-0.9,1.6-0.9c0.7,0,1.7,0.4,1.7,2.1v2.9h-0.9v-2.8    c0-0.8-0.3-1.4-1.1-1.4c-0.6,0-1,0.4-1.2,0.9c0,0.1-0.1,0.3-0.1,0.4v2.9h-0.9V253.5z"/> 	</g> 	<line style="fill:none;stroke:#696969;stroke-width:2;stroke-miterlimit:10;" x1="643.5" y1="279.1" x2="643.5" y2="308.6"/> 	<g> 		<path d="M651.2,289.5h0.9v7.1h-0.9V289.5z"/> 		<path d="M654.6,290.4c0,0.3-0.2,0.5-0.6,0.5c-0.3,0-0.5-0.2-0.5-0.5c0-0.3,0.2-0.5,0.5-0.5C654.4,289.8,654.6,290.1,654.6,290.4z     M653.6,296.6v-4.8h0.9v4.8H653.6z"/> 		<path d="M655.9,293.1c0-0.5,0-0.9,0-1.3h0.8l0,0.8h0c0.2-0.5,0.8-0.9,1.6-0.9c0.7,0,1.7,0.4,1.7,2.1v2.9h-0.9v-2.8    c0-0.8-0.3-1.4-1.1-1.4c-0.6,0-1,0.4-1.2,0.9c0,0.1-0.1,0.3-0.1,0.4v2.9h-0.9V293.1z"/> 	</g> 	<rect x="638.2" y="214.9" style="fill:#BFBFBF;" width="16.3" height="15.3"/> 	<rect x="638.2" y="187.3" style="fill:#DCE9FB;" width="16.3" height="15.3"/> 	<rect x="606.8" y="187.3" style="fill:#D0E0A4;" width="16.3" height="15.3"/> 	<g> 		<path d="M663.7,224.3v-4.2H663v-0.7h0.7v-0.2c0-0.7,0.2-1.3,0.6-1.7c0.3-0.3,0.8-0.4,1.2-0.4c0.3,0,0.6,0.1,0.7,0.1l-0.1,0.7    c-0.1-0.1-0.3-0.1-0.6-0.1c-0.7,0-0.9,0.6-0.9,1.4v0.3h1.2v0.7h-1.2v4.2H663.7z"/> 		<path d="M670.8,221.8c0,1.8-1.2,2.6-2.4,2.6c-1.3,0-2.3-1-2.3-2.5c0-1.6,1.1-2.6,2.4-2.6C669.8,219.3,670.8,220.3,670.8,221.8z     M666.9,221.9c0,1.1,0.6,1.9,1.5,1.9c0.8,0,1.5-0.8,1.5-1.9c0-0.8-0.4-1.8-1.4-1.8C667.4,220,666.9,220.9,666.9,221.9z"/> 		<path d="M671.9,220.7c0-0.5,0-0.9,0-1.3h0.8l0.1,0.8h0c0.2-0.4,0.8-0.9,1.6-0.9c0.7,0,1.7,0.4,1.7,2.1v2.9h-0.9v-2.8    c0-0.8-0.3-1.4-1.1-1.4c-0.6,0-1,0.4-1.2,0.9c0,0.1-0.1,0.3-0.1,0.4v2.9h-0.9V220.7z"/> 		<path d="M677.3,223.4c0.3,0.2,0.7,0.3,1.2,0.3c0.6,0,0.9-0.3,0.9-0.7c0-0.4-0.3-0.6-0.9-0.9c-0.9-0.3-1.3-0.8-1.3-1.4    c0-0.8,0.6-1.4,1.7-1.4c0.5,0,0.9,0.1,1.2,0.3l-0.2,0.6c-0.2-0.1-0.5-0.3-1-0.3c-0.5,0-0.8,0.3-0.8,0.7c0,0.4,0.3,0.6,0.9,0.8    c0.8,0.3,1.3,0.7,1.3,1.4c0,0.9-0.7,1.5-1.8,1.5c-0.5,0-1-0.1-1.4-0.3L677.3,223.4z"/> 	</g> 	<g> 		<path d="M663.6,193.4c0-0.5,0-0.9,0-1.3h0.8l0,0.8h0c0.3-0.5,0.7-0.9,1.5-0.9c0.6,0,1.1,0.4,1.4,1h0c0.1-0.3,0.3-0.5,0.5-0.6    c0.3-0.2,0.6-0.3,1.1-0.3c0.6,0,1.6,0.4,1.6,2.1v2.8h-0.9v-2.7c0-0.9-0.3-1.5-1-1.5c-0.5,0-0.9,0.4-1,0.8c0,0.1-0.1,0.3-0.1,0.4v3    h-0.9V194c0-0.8-0.3-1.3-1-1.3c-0.5,0-0.9,0.4-1.1,0.9c0,0.1-0.1,0.3-0.1,0.4v2.9h-0.9V193.4z"/> 		<path d="M675.3,195.8c0,0.4,0,0.8,0.1,1.2h-0.8l-0.1-0.6h0c-0.3,0.4-0.8,0.7-1.5,0.7c-1,0-1.5-0.7-1.5-1.4c0-1.2,1-1.8,2.9-1.8    v-0.1c0-0.4-0.1-1.1-1.1-1.1c-0.5,0-0.9,0.1-1.3,0.4l-0.2-0.6c0.4-0.3,1-0.4,1.6-0.4c1.5,0,1.8,1,1.8,2V195.8z M674.5,194.5    c-1,0-2,0.1-2,1.1c0,0.6,0.4,0.8,0.8,0.8c0.6,0,1-0.4,1.2-0.8c0-0.1,0-0.2,0-0.3V194.5z"/> 		<path d="M676.8,193.6c0-0.6,0-1.1,0-1.5h0.8l0,1h0c0.2-0.6,0.8-1.1,1.3-1.1c0.1,0,0.2,0,0.2,0v0.8c-0.1,0-0.2,0-0.3,0    c-0.6,0-1.1,0.5-1.2,1.1c0,0.1,0,0.3,0,0.4v2.6h-0.9V193.6z"/> 	</g> 	<circle style="fill-rule:evenodd;clip-rule:evenodd;fill:#5B7EBD;" cx="643.5" cy="323.7" r="2.4"/> 	<rect x="562.7" y="214.9" style="fill:#BFBFBF;stroke:#696969;stroke-width:2;stroke-miterlimit:10;" width="16.3" height="15.3"/> 	<rect x="588.9" y="214.9" style="fill:#FFFBF0;stroke:#9A9A9A;stroke-width:2;stroke-miterlimit:10;" width="16.3" height="15.3"/> 	<rect x="579.6" y="250.1" style="opacity:0.6;fill:#FFFBF0;" width="51" height="12.9"/> </g> </svg>