<svg xmlns="http://www.w3.org/2000/svg" xmlns:xlink="http://www.w3.org/1999/xlink" version="1.1" x="0px" y="0px" width="450px" height="450px" viewBox="0 0 450 450" style="enable-background:new 0 0 450 450;" xml:space="preserve">
<g id="Capa_8">
	<rect x="-13.5" y="-15.5" style="fill-rule:evenodd;clip-rule:evenodd;fill:#DCE9FB;" width="476" height="491"/>
</g>
<g id="comarques_1">
	<path style="fill:#BFBFBF;stroke:#696969;stroke-width:2;stroke-miterlimit:10;" d="M312.4,0.1c-5.9,6.9-20.9,8.1-23.9,13.4   c-2.5,4.4-17.6,30.2-22.3,14c0,0-1.8-56.1,0.6-57c8.4-3.2,34.1,4.3,46.3,4.8C315-24.5,310.5,0.1,312.4,0.1L312.4,0.1z"/>
	<path style="fill:#BFBFBF;stroke:#696969;stroke-width:2;stroke-miterlimit:10;" d="M449.9,130c-5.8,5.9-7.7,5.3-8.3-5.1   c-14.2,3.3-19.2,22.6-18.8,26.2c1,10.4,18.6,16-1.8,21c-5.5,1.3-7.8,7.6-7.7,12c-2.4-1.8-4.7-3.7-7.1-5.5   c-19.4,20.7,13.2,42-6.4,54.5c-28.8-32.7-39.9-71.3-39.9-71.3c-2.2-12.5-4-26,12.4-36.9c6.2-4.1,17.1-41.8,16.5-48.4   c-1.8-20.6-29.5-28.8-33.3-43.2c-2,1,14.1-11.6,23.9-21.9c4.3-4.5,9-7.5,14-9.4c5.1-1.9,11-34.8,16.7-35c11-0.5,66.4,0.8,78.5,0.8   c10,0-7.3,129.7-8.1,159.4C480.5,129.9,449.9,128.5,449.9,130L449.9,130z"/>
	<path style="fill:#BFBFBF;stroke:#696969;stroke-width:2;stroke-miterlimit:10;" d="M334.7,21.6C325.9,5.3,341.2,7.8,334.7,21.6   L334.7,21.6z"/>
	<path style="fill:#BFBFBF;stroke:#696969;stroke-width:2;stroke-miterlimit:10;" d="M23.3,136.7c1.7-6.7-1.2-11.8,7-10.6   C32,135.9,26.7,132.6,23.3,136.7L23.3,136.7z"/>
	<path style="fill:#BFBFBF;stroke:#696969;stroke-width:2;stroke-miterlimit:10;" d="M14.3,115.2c-2-6.2,1.2-6.8-4.5-11.9   c0.9-7.6,3.1-14.9,12.1-10.6c3.7-17.1-8.3-19.9,0.1-36.3C24.2,52,33.3,48.8,33,35.9c2.7,2.4,5.5,4.8,8.2,7.1   c1.5-3.1,5.4-7.5,6.3-9.2c2.4,10-11.5,30.9-15.1,41.9c-4.2,12.7-3,26.9-8.8,38.7c-1.4-1.6-2.8-3.2-4.2-4.8   C17.7,111.5,16,113.3,14.3,115.2L14.3,115.2z"/>
	<path style="fill:#BFBFBF;stroke:#696969;stroke-width:2;stroke-miterlimit:10;" d="M267.4,0.1c-1.4,12.7,6.8,53.2-16.7,44.9   c-1.1,5.4-4.7,7.8-6.1,12.2c-5.1-12.6-30.9-27.9-42.3-21.2c0.8,0.7,1.6,1.4,2.3,2.1c-5.9-5.2-13.5-7.2-17.7,3.3   c-6.4-3.2-9.2-2.9-3.2,3.5c-5.4,5.4-5.6,6.2-9.7,13.8c-5.9-6.9-11.4-4-15.8,4.3c-3.7-6.4-12.9-32.1-23.5-22.4   c-2.2-10.6-6.6-29.5-20.8-32c-9.4-1.6-12.5-3.1-12.1-4.3c0.9-2.7-8.6-43.1-1.2-43.1c43.9,0,123.2-1.2,167-1.2   C270.1-39.9,264.9,0.1,267.4,0.1L267.4,0.1z"/>
	<path style="fill-rule:evenodd;clip-rule:evenodd;fill:#BFBFBF;stroke:#696969;stroke-width:2;stroke-miterlimit:10;" d="M83.5,414   c-3.1-2.3-6.2-4.6-9.3-7c-11.9,14.1-15.4-7.9-17.9-20.7c3-1.4,2.1,0.1,5.3-3.1C66.2,397,93,402.4,83.5,414L83.5,414z"/>
	<path style="fill-rule:evenodd;clip-rule:evenodd;fill:#BFBFBF;stroke:#696969;stroke-width:2;stroke-miterlimit:10;" d="   M51.6,305.8c23.1-1.5,18.2,30.9,28,42.5c-16.1,2.9-1,12.4-6.4,19.5c-3.5,4.7-28.2,13.4-21.3-0.1c4.1-8,6.3-3.5,9.8-13.9   c2-5.9,0.4-5-0.4-14.6c-0.7-9.2,0.5-8.8-2.5-19.2C58.1,317.2,51.3,310.1,51.6,305.8L51.6,305.8z"/>
	<path style="fill-rule:evenodd;clip-rule:evenodd;fill:#BFBFBF;stroke:#696969;stroke-width:2;stroke-miterlimit:10;" d="   M205.6,399.5c-0.2-2.7-4.3-2.9,2.9-7C210.1,397.4,206.6,396.8,205.6,399.5L205.6,399.5z"/>
	<path style="fill-rule:evenodd;clip-rule:evenodd;fill:#BFBFBF;stroke:#696969;stroke-width:2;stroke-miterlimit:10;" d="   M179.9,474.1c4.4-10.8,3.8-49.6,8.1-56.7c4.2-6.8,13.3-0.5,18.9-10.5c1.2,1,2.4,2.1,3.6,3.1c0.3-4.6,1.7-5,1.3-8.5   c15-0.6,22.9-8.8,27.5-22c-0.6,1.7,3.4-39.4,11.3-25.6c1.6,2.9,14.9,1.7,17.8-1.3c9-9.5,4.8-12,21-13.3   c-8.2,1.6-15.8,9.5-14.4,13.1c0.7-0.1,14.1-3,14.7-2c3-3.9,15.9-29.1,18.3-25.7c5.8-2.7,14.6-1.6,14.4-0.1   c6.3-2.8,11.8-16.1,11.2-20c1.7-5.9,23.2-10.6,24.2-14.5c16.9-2.6,29.4-26.5,36.9-41c10.8-21.2,39.4-3.1,51.3-7.6   c-0.5-2,30.3-4.8,29.8-6.8c11.5,22.1,0,239.1-2,239.1c-86.5,0-190.8,9.7-277.3,9.7L179.9,474.1z"/>
	<path style="fill:#696969;" d="M-482.6,133.8c0.5-1,1.5-1.6,3.4-1.6"/>
	<path style="fill:#696969;" d="M-462.6,54.8c-1.6,4.1-3.8,8.5-5.8,12.6"/>
	<path style="fill:#696969;" d="M-378.1,28.9c-1.8-4-4.2-7.6-7.4-10.2"/>
	<path style="fill:none;" d="M-203.8,119.7c-0.7-0.8-3.5-3-4.1-3.8c-1.7,1.8-3.4,3.7-5.1,5.5l0,0c-2-6.2,1.2-6.8-4.5-11.9   c0.9-7.6,3.1-14.9,12.1-10.6c3.7-17.1-8.3-19.9,0.1-36.3c2.3-4.5,11.4-7.7,11.1-20.6c2.7,2.4,5.5,4.8,8.2,7.1   c1.5-3.1,5.4-7.5,6.3-9.2c0.9,3.8-6.3,21.7-8.6,27.4l89.7-39.2c-2.2-1.9-11.7-12.8-14.8-13.3c-9.4-1.6-12.5-3.1-12.1-4.3   c0.9-2.7-8.6-43.1-1.2-43.1c43.9,0,123.2-1.2,167-1.2c2.5,0-2.7,40-0.2,40l0,0c-1.4,12.7,6.8,53.2-16.7,44.9   c-1.1,5.4-4.7,7.8-6.1,12.2c-5.1-12.6-30.9-27.9-42.3-21.2c0.8,0.7,1.6,1.4,2.3,2.1c-5.9-5.2-13.5-7.2-17.7,3.3   c-6.4-3.2-9.2-2.9-3.2,3.5c-5.4,5.4-5.6,6.2-9.7,13.8c-5.9-6.9-11.4-4-15.8,4.3c-3.7-6.4-12.9-32.1-23.5-22.4   c-1.1-5-3.2-12.6-6-18.7l-89.7,39.2c-2.7,5.5-5.3,10.6-6.5,14.5c-3.8,11.7-2.8,24.4-7.1,35.6l3.4,14.1c0,0,0.8,0.5,1.6,0.6   c1.8,9.8-3.6,6.6-7,10.6l0,0c1-3.9,0.4-7.2,1.4-9.1l0.9-1.2l3.1-0.9l-3.4-14.1L-203.8,119.7z"/>
	<path style="fill:none;" d="M-202.8,119.7c-0.7-0.8-3.5-3-4.1-3.8c-1.7,1.8-3.4,3.7-5.1,5.5l0,0c-2-6.2,1.2-6.8-4.5-11.9   c0.9-7.6,3.1-14.9,12.1-10.6c3.7-17.1-8.3-19.9,0.1-36.3c2.3-4.5,11.4-7.7,11.1-20.6c2.7,2.4,5.5,4.8,8.2,7.1   c1.5-3.1,5.4-7.5,6.3-9.2c0.9,3.8-6.3,21.7-8.6,27.4l89.7-39.2c-2.2-1.9-11.7-12.8-14.8-13.3c-9.4-1.6-12.5-3.1-12.1-4.3   c0.9-2.7-8.6-43.1-1.2-43.1c43.9,0,123.2-1.2,167-1.2c2.5,0-2.7,40-0.2,40l0,0c-1.4,12.7,6.8,53.2-16.7,44.9   c-1.1,5.4-4.7,7.8-6.1,12.2c-5.1-12.6-30.9-27.9-42.3-21.2c0.8,0.7,1.6,1.4,2.3,2.1c-5.9-5.2-13.5-7.2-17.7,3.3   c-6.4-3.2-9.2-2.9-3.2,3.5c-5.4,5.4-5.6,6.2-9.7,13.8c-5.9-6.9-11.4-4-15.8,4.3c-3.7-6.4-12.9-32.1-23.5-22.4   c-1.1-5-3.2-12.6-6-18.7l-89.7,39.2c-2.7,5.5-5.3,10.6-6.5,14.5c-3.8,11.7-2.8,24.4-7.1,35.6l3.4,14.1c0,0,0.8,0.5,1.6,0.6   c1.8,9.8-3.6,6.6-7,10.6l0,0c1-3.9,0.4-7.2,1.4-9.1l0.9-1.2l3.1-0.9l-3.4-14.1L-202.8,119.7z"/>
	<path style="fill:none;" d="M-201.8,119.7c-0.7-0.8-3.5-3-4.1-3.8c-1.7,1.8-3.4,3.7-5.1,5.5l0,0c-2-6.2,1.2-6.8-4.5-11.9   c0.9-7.6,3.1-14.9,12.1-10.6c3.7-17.1-8.3-19.9,0.1-36.3c2.3-4.5,11.4-7.7,11.1-20.6c2.7,2.4,5.5,4.8,8.2,7.1   c1.5-3.1,5.4-7.5,6.3-9.2c0.9,3.8-6.3,21.7-8.6,27.4l89.7-39.2c-2.2-1.9-11.7-12.8-14.8-13.3c-9.4-1.6-12.5-3.1-12.1-4.3   c0.9-2.7-8.6-43.1-1.2-43.1c43.9,0,123.2-1.2,167-1.2c2.5,0-2.7,40-0.2,40l0,0c-1.4,12.7,6.8,53.2-16.7,44.9   c-1.1,5.4-4.7,7.8-6.1,12.2c-5.1-12.6-30.9-27.9-42.3-21.2c0.8,0.7,1.6,1.4,2.3,2.1c-5.9-5.2-13.5-7.2-17.7,3.3   c-6.4-3.2-9.2-2.9-3.2,3.5c-5.4,5.4-5.6,6.2-9.7,13.8c-5.9-6.9-11.4-4-15.8,4.3c-3.7-6.4-12.9-32.1-23.5-22.4   c-1.1-5-3.2-12.6-6-18.7l-89.7,39.2c-2.7,5.5-5.3,10.6-6.5,14.5c-3.8,11.7-2.8,24.4-7.1,35.6l3.4,14.1c0,0,0.8,0.5,1.6,0.6   c1.8,9.8-3.6,6.6-7,10.6l0,0c1-3.9,0.4-7.2,1.4-9.1l0.9-1.2l3.1-0.9l-3.4-14.1L-201.8,119.7z"/>
	<path style="fill:none;" d="M-200.8,119.7c-0.7-0.8-3.5-3-4.1-3.8c-1.7,1.8-3.4,3.7-5.1,5.5l0,0c-2-6.2,1.2-6.8-4.5-11.9   c0.9-7.6,3.1-14.9,12.1-10.6c3.7-17.1-8.3-19.9,0.1-36.3c2.3-4.5,11.4-7.7,11.1-20.6c2.7,2.4,5.5,4.8,8.2,7.1   c1.5-3.1,5.4-7.5,6.3-9.2c0.9,3.8-6.3,21.7-8.6,27.4l89.7-39.2c-2.2-1.9-11.7-12.8-14.8-13.3c-9.4-1.6-12.5-3.1-12.1-4.3   c0.9-2.7-8.6-43.1-1.2-43.1c43.9,0,123.2-1.2,167-1.2c2.5,0-2.7,40-0.2,40l0,0c-1.4,12.7,6.8,53.2-16.7,44.9   c-1.1,5.4-4.7,7.8-6.1,12.2c-5.1-12.6-30.9-27.9-42.3-21.2c0.8,0.7,1.6,1.4,2.3,2.1c-5.9-5.2-13.5-7.2-17.7,3.3   c-6.4-3.2-9.2-2.9-3.2,3.5c-5.4,5.4-5.6,6.2-9.7,13.8c-5.9-6.9-11.4-4-15.8,4.3c-3.7-6.4-12.9-32.1-23.5-22.4   c-1.1-5-3.2-12.6-6-18.7l-89.7,39.2c-2.7,5.5-5.3,10.6-6.5,14.5c-3.8,11.7-2.8,24.4-7.1,35.6l3.4,14.1c0,0,0.8,0.5,1.6,0.6   c1.8,9.8-3.6,6.6-7,10.6l0,0c1-3.9,0.4-7.2,1.4-9.1l0.9-1.2l3.1-0.9l-3.4-14.1L-200.8,119.7z"/>
	<path style="fill:none;" d="M-199.8,119.7c-0.7-0.8-3.5-3-4.1-3.8c-1.7,1.8-3.4,3.7-5.1,5.5l0,0c-2-6.2,1.2-6.8-4.5-11.9   c0.9-7.6,3.1-14.9,12.1-10.6c3.7-17.1-8.3-19.9,0.1-36.3c2.3-4.5,11.4-7.7,11.1-20.6c2.7,2.4,5.5,4.8,8.2,7.1   c1.5-3.1,5.4-7.5,6.3-9.2c0.9,3.8-6.3,21.7-8.6,27.4l89.7-39.2c-2.2-1.9-11.7-12.8-14.8-13.3c-9.4-1.6-12.5-3.1-12.1-4.3   c0.9-2.7-8.6-43.1-1.2-43.1c43.9,0,123.2-1.2,167-1.2c2.5,0-2.7,40-0.2,40l0,0c-1.4,12.7,6.8,53.2-16.7,44.9   c-1.1,5.4-4.7,7.8-6.1,12.2C16.1,50.8-9.6,35.5-21.1,42.3c0.8,0.7,1.6,1.4,2.3,2.1c-5.9-5.2-13.5-7.2-17.7,3.3   c-6.4-3.2-9.2-2.9-3.2,3.5c-5.4,5.4-5.6,6.2-9.7,13.8c-5.9-6.9-11.4-4-15.8,4.3c-3.7-6.4-12.9-32.1-23.5-22.4   c-1.1-5-3.2-12.6-6-18.7l-89.7,39.2c-2.7,5.5-5.3,10.6-6.5,14.5c-3.8,11.7-2.8,24.4-7.1,35.6l3.4,14.1c0,0,0.8,0.5,1.6,0.6   c1.8,9.8-3.6,6.6-7,10.6l0,0c1-3.9,0.4-7.2,1.4-9.1l0.9-1.2l3.1-0.9l-3.4-14.1L-199.8,119.7z"/>
	<path style="fill:none;" d="M-198.8,119.7c-0.7-0.8-3.5-3-4.1-3.8c-1.7,1.8-3.4,3.7-5.1,5.5l0,0c-2-6.2,1.2-6.8-4.5-11.9   c0.9-7.6,3.1-14.9,12.1-10.6c3.7-17.1-8.3-19.9,0.1-36.3c2.3-4.5,11.4-7.7,11.1-20.6c2.7,2.4,5.5,4.8,8.2,7.1   c1.5-3.1,5.4-7.5,6.3-9.2c0.9,3.8-6.3,21.7-8.6,27.4l89.7-39.2c-2.2-1.9-11.7-12.8-14.8-13.3c-9.4-1.6-12.5-3.1-12.1-4.3   c0.9-2.7-8.6-43.1-1.2-43.1c43.9,0,123.2-1.2,167-1.2c2.5,0-2.7,40-0.2,40l0,0c-1.4,12.7,6.8,53.2-16.7,44.9   c-1.1,5.4-4.7,7.8-6.1,12.2C17.1,50.8-8.6,35.5-20.1,42.3c0.8,0.7,1.6,1.4,2.3,2.1c-5.9-5.2-13.5-7.2-17.7,3.3   c-6.4-3.2-9.2-2.9-3.2,3.5c-5.4,5.4-5.6,6.2-9.7,13.8c-5.9-6.9-11.4-4-15.8,4.3c-3.7-6.4-12.9-32.1-23.5-22.4   c-1.1-5-3.2-12.6-6-18.7l-89.7,39.2c-2.7,5.5-5.3,10.6-6.5,14.5c-3.8,11.7-2.8,24.4-7.1,35.6l3.4,14.1c0,0,0.8,0.5,1.6,0.6   c1.8,9.8-3.6,6.6-7,10.6l0,0c1-3.9,0.4-7.2,1.4-9.1l0.9-1.2l3.1-0.9l-3.4-14.1L-198.8,119.7z"/>
	<path style="fill:none;" d="M-197.8,119.7c-0.7-0.8-3.5-3-4.1-3.8c-1.7,1.8-3.4,3.7-5.1,5.5l0,0c-2-6.2,1.2-6.8-4.5-11.9   c0.9-7.6,3.1-14.9,12.1-10.6c3.7-17.1-8.3-19.9,0.1-36.3c2.3-4.5,11.4-7.7,11.1-20.6c2.7,2.4,5.5,4.8,8.2,7.1   c1.5-3.1,5.4-7.5,6.3-9.2c0.9,3.8-6.3,21.7-8.6,27.4l89.7-39.2c-2.2-1.9-11.7-12.8-14.8-13.3c-9.4-1.6-12.5-3.1-12.1-4.3   c0.9-2.7-8.6-43.1-1.2-43.1c43.9,0,123.2-1.2,167-1.2c2.5,0-2.7,40-0.2,40l0,0c-1.4,12.7,6.8,53.2-16.7,44.9   c-1.1,5.4-4.7,7.8-6.1,12.2C18.1,50.8-7.6,35.5-19.1,42.3c0.8,0.7,1.6,1.4,2.3,2.1c-5.9-5.2-13.5-7.2-17.7,3.3   c-6.4-3.2-9.2-2.9-3.2,3.5c-5.4,5.4-5.6,6.2-9.7,13.8c-5.9-6.9-11.4-4-15.8,4.3c-3.7-6.4-12.9-32.1-23.5-22.4   c-1.1-5-3.2-12.6-6-18.7l-89.7,39.2c-2.7,5.5-5.3,10.6-6.5,14.5c-3.8,11.7-2.8,24.4-7.1,35.6l3.4,14.1c0,0,0.8,0.5,1.6,0.6   c1.8,9.8-3.6,6.6-7,10.6l0,0c1-3.9,0.4-7.2,1.4-9.1l0.9-1.2l3.1-0.9l-3.4-14.1L-197.8,119.7z"/>
	<path style="fill:none;" d="M-196.8,119.7c-0.7-0.8-3.5-3-4.1-3.8c-1.7,1.8-3.4,3.7-5.1,5.5l0,0c-2-6.2,1.2-6.8-4.5-11.9   c0.9-7.6,3.1-14.9,12.1-10.6c3.7-17.1-8.3-19.9,0.1-36.3c2.3-4.5,11.4-7.7,11.1-20.6c2.7,2.4,5.5,4.8,8.2,7.1   c1.5-3.1,5.4-7.5,6.3-9.2c0.9,3.8-6.3,21.7-8.6,27.4l89.7-39.2c-2.2-1.9-11.7-12.8-14.8-13.3c-9.4-1.6-12.5-3.1-12.1-4.3   c0.9-2.7-8.6-43.1-1.2-43.1c43.9,0,123.2-1.2,167-1.2c2.5,0-2.7,40-0.2,40l0,0c-1.4,12.7,6.8,53.2-16.7,44.9   c-1.1,5.4-4.7,7.8-6.1,12.2C19.1,50.8-6.6,35.5-18.1,42.3c0.8,0.7,1.6,1.4,2.3,2.1c-5.9-5.2-13.5-7.2-17.7,3.3   c-6.4-3.2-9.2-2.9-3.2,3.5c-5.4,5.4-5.6,6.2-9.7,13.8c-5.9-6.9-11.4-4-15.8,4.3c-3.7-6.4-12.9-32.1-23.5-22.4   c-1.1-5-3.2-12.6-6-18.7l-89.7,39.2c-2.7,5.5-5.3,10.6-6.5,14.5c-3.8,11.7-2.8,24.4-7.1,35.6l3.4,14.1c0,0,0.8,0.5,1.6,0.6   c1.8,9.8-3.6,6.6-7,10.6l0,0c1-3.9,0.4-7.2,1.4-9.1l0.9-1.2l3.1-0.9l-3.4-14.1L-196.8,119.7z"/>
	<path style="fill:none;" d="M-195.8,119.7c-0.7-0.8-3.5-3-4.1-3.8c-1.7,1.8-3.4,3.7-5.1,5.5l0,0c-2-6.2,1.2-6.8-4.5-11.9   c0.9-7.6,3.1-14.9,12.1-10.6c3.7-17.1-8.3-19.9,0.1-36.3c2.3-4.5,11.4-7.7,11.1-20.6c2.7,2.4,5.5,4.8,8.2,7.1   c1.5-3.1,5.4-7.5,6.3-9.2c0.9,3.8-6.3,21.7-8.6,27.4l89.7-39.2c-2.2-1.9-11.7-12.8-14.8-13.3c-9.4-1.6-12.5-3.1-12.1-4.3   c0.9-2.7-8.6-43.1-1.2-43.1c43.9,0,123.2-1.2,167-1.2c2.5,0-2.7,40-0.2,40l0,0c-1.4,12.7,6.8,53.2-16.7,44.9   c-1.1,5.4-4.7,7.8-6.1,12.2C20.1,50.8-5.6,35.5-17.1,42.3c0.8,0.7,1.6,1.4,2.3,2.1c-5.9-5.2-13.5-7.2-17.7,3.3   c-6.4-3.2-9.2-2.9-3.2,3.5c-5.4,5.4-5.6,6.2-9.7,13.8c-5.9-6.9-11.4-4-15.8,4.3c-3.7-6.4-12.9-32.1-23.5-22.4   c-1.1-5-3.2-12.6-6-18.7l-89.7,39.2c-2.7,5.5-5.3,10.6-6.5,14.5c-3.8,11.7-2.8,24.4-7.1,35.6l3.4,14.1c0,0,0.8,0.5,1.6,0.6   c1.8,9.8-3.6,6.6-7,10.6l0,0c1-3.9,0.4-7.2,1.4-9.1l0.9-1.2l3.1-0.9l-3.4-14.1L-195.8,119.7z"/>
	<path style="fill:none;" d="M-194.8,119.7c-0.7-0.8-3.5-3-4.1-3.8c-1.7,1.8-3.4,3.7-5.1,5.5l0,0c-2-6.2,1.2-6.8-4.5-11.9   c0.9-7.6,3.1-14.9,12.1-10.6c3.7-17.1-8.3-19.9,0.1-36.3c2.3-4.5,11.4-7.7,11.1-20.6c2.7,2.4,5.5,4.8,8.2,7.1   c1.5-3.1,5.4-7.5,6.3-9.2c0.9,3.8-6.3,21.7-8.6,27.4l89.7-39.2c-2.2-1.9-11.7-12.8-14.8-13.3c-9.4-1.6-12.5-3.1-12.1-4.3   c0.9-2.7-8.6-43.1-1.2-43.1c43.9,0,123.2-1.2,167-1.2c2.5,0-2.7,40-0.2,40l0,0c-1.4,12.7,6.8,53.2-16.7,44.9   c-1.1,5.4-4.7,7.8-6.1,12.2C21.1,50.8-4.6,35.5-16.1,42.3c0.8,0.7,1.6,1.4,2.3,2.1c-5.9-5.2-13.5-7.2-17.7,3.3   c-6.4-3.2-9.2-2.9-3.2,3.5c-5.4,5.4-5.6,6.2-9.7,13.8c-5.9-6.9-11.4-4-15.8,4.3c-3.7-6.4-12.9-32.1-23.5-22.4   c-1.1-5-3.2-12.6-6-18.7l-89.7,39.2c-2.7,5.5-5.3,10.6-6.5,14.5c-3.8,11.7-2.8,24.4-7.1,35.6l3.4,14.1c0,0,0.8,0.5,1.6,0.6   c1.8,9.8-3.6,6.6-7,10.6l0,0c1-3.9,0.4-7.2,1.4-9.1l0.9-1.2l3.1-0.9l-3.4-14.1L-194.8,119.7z"/>
	<path style="fill:none;" d="M-193.8,119.7c-0.7-0.8-3.5-3-4.1-3.8c-1.7,1.8-3.4,3.7-5.1,5.5l0,0c-2-6.2,1.2-6.8-4.5-11.9   c0.9-7.6,3.1-14.9,12.1-10.6c3.7-17.1-8.3-19.9,0.1-36.3c2.3-4.5,11.4-7.7,11.1-20.6c2.7,2.4,5.5,4.8,8.2,7.1   c1.5-3.1,5.4-7.5,6.3-9.2c0.9,3.8-6.3,21.7-8.6,27.4l89.7-39.2c-2.2-1.9-11.7-12.8-14.8-13.3c-9.4-1.6-12.5-3.1-12.1-4.3   c0.9-2.7-8.6-43.1-1.2-43.1c43.9,0,123.2-1.2,167-1.2c2.5,0-2.7,40-0.2,40l0,0c-1.4,12.7,6.8,53.2-16.7,44.9   c-1.1,5.4-4.7,7.8-6.1,12.2C22.1,50.8-3.6,35.5-15.1,42.3c0.8,0.7,1.6,1.4,2.3,2.1c-5.9-5.2-13.5-7.2-17.7,3.3   c-6.4-3.2-9.2-2.9-3.2,3.5c-5.4,5.4-5.6,6.2-9.7,13.8c-5.9-6.9-11.4-4-15.8,4.3c-3.7-6.4-12.9-32.1-23.5-22.4   c-1.1-5-3.2-12.6-6-18.7l-89.7,39.2c-2.7,5.5-5.3,10.6-6.5,14.5c-3.8,11.7-2.8,24.4-7.1,35.6l3.4,14.1c0,0,0.8,0.5,1.6,0.6   c1.8,9.8-3.6,6.6-7,10.6l0,0c1-3.9,0.4-7.2,1.4-9.1l0.9-1.2l3.1-0.9l-3.4-14.1L-193.8,119.7z"/>
	<path style="fill:none;" d="M-192.8,119.7c-0.7-0.8-3.5-3-4.1-3.8c-1.7,1.8-3.4,3.7-5.1,5.5l0,0c-2-6.2,1.2-6.8-4.5-11.9   c0.9-7.6,3.1-14.9,12.1-10.6c3.7-17.1-8.3-19.9,0.1-36.3c2.3-4.5,11.4-7.7,11.1-20.6c2.7,2.4,5.5,4.8,8.2,7.1   c1.5-3.1,5.4-7.5,6.3-9.2c0.9,3.8-6.3,21.7-8.6,27.4l89.7-39.2c-2.2-1.9-11.7-12.8-14.8-13.3c-9.4-1.6-12.5-3.1-12.1-4.3   c0.9-2.7-8.6-43.1-1.2-43.1c43.9,0,123.2-1.2,167-1.2c2.5,0-2.7,40-0.2,40l0,0c-1.4,12.7,6.8,53.2-16.7,44.9   c-1.1,5.4-4.7,7.8-6.1,12.2C23.1,50.8-2.6,35.5-14.1,42.3c0.8,0.7,1.6,1.4,2.3,2.1c-5.9-5.2-13.5-7.2-17.7,3.3   c-6.4-3.2-9.2-2.9-3.2,3.5c-5.4,5.4-5.6,6.2-9.7,13.8c-5.9-6.9-11.4-4-15.8,4.3c-3.7-6.4-12.9-32.1-23.5-22.4   c-1.1-5-3.2-12.6-6-18.7l-89.7,39.2c-2.7,5.5-5.3,10.6-6.5,14.5c-3.8,11.7-2.8,24.4-7.1,35.6l3.4,14.1c0,0,0.8,0.5,1.6,0.6   c1.8,9.8-3.6,6.6-7,10.6l0,0c1-3.9,0.4-7.2,1.4-9.1l0.9-1.2l3.1-0.9l-3.4-14.1L-192.8,119.7z"/>
	<path style="fill:none;" d="M-191.8,119.7c-0.7-0.8-3.5-3-4.1-3.8c-1.7,1.8-3.4,3.7-5.1,5.5l0,0c-2-6.2,1.2-6.8-4.5-11.9   c0.9-7.6,3.1-14.9,12.1-10.6c3.7-17.1-8.3-19.9,0.1-36.3c2.3-4.5,11.4-7.7,11.1-20.6c2.7,2.4,5.5,4.8,8.2,7.1   c1.5-3.1,5.4-7.5,6.3-9.2c0.9,3.8-6.3,21.7-8.6,27.4l89.7-39.2c-2.2-1.9-11.7-12.8-14.8-13.3c-9.4-1.6-12.5-3.1-12.1-4.3   c0.9-2.7-8.6-43.1-1.2-43.1c43.9,0,123.2-1.2,167-1.2c2.5,0-2.7,40-0.2,40l0,0c-1.4,12.7,6.8,53.2-16.7,44.9   c-1.1,5.4-4.7,7.8-6.1,12.2C24.1,50.8-1.6,35.5-13.1,42.3c0.8,0.7,1.6,1.4,2.3,2.1c-5.9-5.2-13.5-7.2-17.7,3.3   c-6.4-3.2-9.2-2.9-3.2,3.5c-5.4,5.4-5.6,6.2-9.7,13.8c-5.9-6.9-11.4-4-15.8,4.3c-3.7-6.4-12.9-32.1-23.5-22.4   c-1.1-5-3.2-12.6-6-18.7l-89.7,39.2c-2.7,5.5-5.3,10.6-6.5,14.5c-3.8,11.7-2.8,24.4-7.1,35.6l3.4,14.1c0,0,0.8,0.5,1.6,0.6   c1.8,9.8-3.6,6.6-7,10.6l0,0c1-3.9,0.4-7.2,1.4-9.1l0.9-1.2l3.1-0.9l-3.4-14.1L-191.8,119.7z"/>
	<path style="fill:none;" d="M-190.8,119.7c-0.7-0.8-3.5-3-4.1-3.8c-1.7,1.8-3.4,3.7-5.1,5.5l0,0c-2-6.2,1.2-6.8-4.5-11.9   c0.9-7.6,3.1-14.9,12.1-10.6c3.7-17.1-8.3-19.9,0.1-36.3c2.3-4.5,11.4-7.7,11.1-20.6c2.7,2.4,5.5,4.8,8.2,7.1   c1.5-3.1,5.4-7.5,6.3-9.2c0.9,3.8-6.3,21.7-8.6,27.4l89.7-39.2c-2.2-1.9-11.7-12.8-14.8-13.3c-9.4-1.6-12.5-3.1-12.1-4.3   c0.9-2.7-8.6-43.1-1.2-43.1c43.9,0,123.2-1.2,167-1.2c2.5,0-2.7,40-0.2,40l0,0c-1.4,12.7,6.8,53.2-16.7,44.9   c-1.1,5.4-4.7,7.8-6.1,12.2C25.1,50.8-0.6,35.5-12.1,42.3c0.8,0.7,1.6,1.4,2.3,2.1c-5.9-5.2-13.5-7.2-17.7,3.3   c-6.4-3.2-9.2-2.9-3.2,3.5c-5.4,5.4-5.6,6.2-9.7,13.8c-5.9-6.9-11.4-4-15.8,4.3c-3.7-6.4-12.9-32.1-23.5-22.4   c-1.1-5-3.2-12.6-6-18.7l-89.7,39.2c-2.7,5.5-5.3,10.6-6.5,14.5c-3.8,11.7-2.8,24.4-7.1,35.6l3.4,14.1c0,0,0.8,0.5,1.6,0.6   c1.8,9.8-3.6,6.6-7,10.6l0,0c1-3.9,0.4-7.2,1.4-9.1l0.9-1.2l3.1-0.9l-3.4-14.1L-190.8,119.7z"/>
	<path style="fill:none;" d="M-189.8,119.7c-0.7-0.8-3.5-3-4.1-3.8c-1.7,1.8-3.4,3.7-5.1,5.5l0,0c-2-6.2,1.2-6.8-4.5-11.9   c0.9-7.6,3.1-14.9,12.1-10.6c3.7-17.1-8.3-19.9,0.1-36.3c2.3-4.5,11.4-7.7,11.1-20.6c2.7,2.4,5.5,4.8,8.2,7.1   c1.5-3.1,5.4-7.5,6.3-9.2c0.9,3.8-6.3,21.7-8.6,27.4l89.7-39.2c-2.2-1.9-11.7-12.8-14.8-13.3c-9.4-1.6-12.5-3.1-12.1-4.3   c0.9-2.7-8.6-43.1-1.2-43.1c43.9,0,123.2-1.2,167-1.2c2.5,0-2.7,40-0.2,40l0,0c-1.4,12.7,6.8,53.2-16.7,44.9   c-1.1,5.4-4.7,7.8-6.1,12.2C26.1,50.8,0.4,35.5-11.1,42.3c0.8,0.7,1.6,1.4,2.3,2.1c-5.9-5.2-13.5-7.2-17.7,3.3   c-6.4-3.2-9.2-2.9-3.2,3.5c-5.4,5.4-5.6,6.2-9.7,13.8c-5.9-6.9-11.4-4-15.8,4.3c-3.7-6.4-12.9-32.1-23.5-22.4   c-1.1-5-3.2-12.6-6-18.7l-89.7,39.2c-2.7,5.5-5.3,10.6-6.5,14.5c-3.8,11.7-2.8,24.4-7.1,35.6l3.4,14.1c0,0,0.8,0.5,1.6,0.6   c1.8,9.8-3.6,6.6-7,10.6l0,0c1-3.9,0.4-7.2,1.4-9.1l0.9-1.2l3.1-0.9l-3.4-14.1L-189.8,119.7z"/>
	<path style="fill:none;" d="M-188.8,119.7c-0.7-0.8-3.5-3-4.1-3.8c-1.7,1.8-3.4,3.7-5.1,5.5l0,0c-2-6.2,1.2-6.8-4.5-11.9   c0.9-7.6,3.1-14.9,12.1-10.6c3.7-17.1-8.3-19.9,0.1-36.3c2.3-4.5,11.4-7.7,11.1-20.6c2.7,2.4,5.5,4.8,8.2,7.1   c1.5-3.1,5.4-7.5,6.3-9.2c0.9,3.8-6.3,21.7-8.6,27.4l89.7-39.2c-2.2-1.9-11.7-12.8-14.8-13.3c-9.4-1.6-12.5-3.1-12.1-4.3   c0.9-2.7-8.6-43.1-1.2-43.1c43.9,0,123.2-1.2,167-1.2c2.5,0-2.7,40-0.2,40l0,0c-1.4,12.7,6.8,53.2-16.7,44.9   c-1.1,5.4-4.7,7.8-6.1,12.2C27.1,50.8,1.4,35.5-10.1,42.3c0.8,0.7,1.6,1.4,2.3,2.1c-5.9-5.2-13.5-7.2-17.7,3.3   c-6.4-3.2-9.2-2.9-3.2,3.5c-5.4,5.4-5.6,6.2-9.7,13.8c-5.9-6.9-11.4-4-15.8,4.3c-3.7-6.4-12.9-32.1-23.5-22.4   c-1.1-5-3.2-12.6-6-18.7l-89.7,39.2c-2.7,5.5-5.3,10.6-6.5,14.5c-3.8,11.7-2.8,24.4-7.1,35.6l3.4,14.1c0,0,0.8,0.5,1.6,0.6   c1.8,9.8-3.6,6.6-7,10.6l0,0c1-3.9,0.4-7.2,1.4-9.1l0.9-1.2l3.1-0.9l-3.4-14.1L-188.8,119.7z"/>
	<path style="fill:none;" d="M-187.8,119.7c-0.7-0.8-3.5-3-4.1-3.8c-1.7,1.8-3.4,3.7-5.1,5.5l0,0c-2-6.2,1.2-6.8-4.5-11.9   c0.9-7.6,3.1-14.9,12.1-10.6c3.7-17.1-8.3-19.9,0.1-36.3c2.3-4.5,11.4-7.7,11.1-20.6c2.7,2.4,5.5,4.8,8.2,7.1   c1.5-3.1,5.4-7.5,6.3-9.2c0.9,3.8-6.3,21.7-8.6,27.4l89.7-39.2c-2.2-1.9-11.7-12.8-14.8-13.3c-9.4-1.6-12.5-3.1-12.1-4.3   c0.9-2.7-8.6-43.1-1.2-43.1c43.9,0,123.2-1.2,167-1.2c2.5,0-2.7,40-0.2,40l0,0c-1.4,12.7,6.8,53.2-16.7,44.9   c-1.1,5.4-4.7,7.8-6.1,12.2C28.1,50.8,2.4,35.5-9.1,42.3c0.8,0.7,1.6,1.4,2.3,2.1c-5.9-5.2-13.5-7.2-17.7,3.3   c-6.4-3.2-9.2-2.9-3.2,3.5c-5.4,5.4-5.6,6.2-9.7,13.8c-5.9-6.9-11.4-4-15.8,4.3c-3.7-6.4-12.9-32.1-23.5-22.4   c-1.1-5-3.2-12.6-6-18.7l-89.7,39.2c-2.7,5.5-5.3,10.6-6.5,14.5c-3.8,11.7-2.8,24.4-7.1,35.6l3.4,14.1c0,0,0.8,0.5,1.6,0.6   c1.8,9.8-3.6,6.6-7,10.6l0,0c1-3.9,0.4-7.2,1.4-9.1l0.9-1.2l3.1-0.9l-3.4-14.1L-187.8,119.7z"/>
	<path style="fill:none;" d="M-186.8,119.7c-0.7-0.8-3.5-3-4.1-3.8c-1.7,1.8-3.4,3.7-5.1,5.5l0,0c-2-6.2,1.2-6.8-4.5-11.9   c0.9-7.6,3.1-14.9,12.1-10.6c3.7-17.1-8.3-19.9,0.1-36.3c2.3-4.5,11.4-7.7,11.1-20.6c2.7,2.4,5.5,4.8,8.2,7.1   c1.5-3.1,5.4-7.5,6.3-9.2c0.9,3.8-6.3,21.7-8.6,27.4l89.7-39.2c-2.2-1.9-11.7-12.8-14.8-13.3c-9.4-1.6-12.5-3.1-12.1-4.3   c0.9-2.7-8.6-43.1-1.2-43.1c43.9,0,123.2-1.2,167-1.2c2.5,0-2.7,40-0.2,40l0,0c-1.4,12.7,6.8,53.2-16.7,44.9   c-1.1,5.4-4.7,7.8-6.1,12.2C29.1,50.8,3.4,35.5-8.1,42.3c0.8,0.7,1.6,1.4,2.3,2.1c-5.9-5.2-13.5-7.2-17.7,3.3   c-6.4-3.2-9.2-2.9-3.2,3.5c-5.4,5.4-5.6,6.2-9.7,13.8c-5.9-6.9-11.4-4-15.8,4.3c-3.7-6.4-12.9-32.1-23.5-22.4   c-1.1-5-3.2-12.6-6-18.7l-89.7,39.2c-2.7,5.5-5.3,10.6-6.5,14.5c-3.8,11.7-2.8,24.4-7.1,35.6l3.4,14.1c0,0,0.8,0.5,1.6,0.6   c1.8,9.8-3.6,6.6-7,10.6l0,0c1-3.9,0.4-7.2,1.4-9.1l0.9-1.2l3.1-0.9l-3.4-14.1L-186.8,119.7z"/>
	<a xlink:href="O SALNES">
		<path style="fill:none;" d="M23.7,113.7c-0.7-0.8-3.5-3-4.1-3.8c-1.7,1.8-3.4,3.7-5.1,5.5l0,0c-2-6.2,1.2-6.8-4.5-11.9    C10.9,96,13.1,88.7,22.1,93c3.7-17.1-8.3-19.9,0.1-36.3c2.3-4.5,11.4-7.7,11.1-20.6c2.7,2.4,5.5,4.8,8.2,7.1    c1.5-3.1,5.4-7.5,6.3-9.2c0.9,3.8-6.3,21.7-8.6,27.4l89.7-39.2c-2.2-1.9-11.7-12.8-14.8-13.3c-9.4-1.6-12.5-3.1-12.1-4.3    c0.9-2.7-8.6-43.1-1.2-43.1c43.9,0,123.2-1.2,167-1.2c2.5,0-2.7,40-0.2,40l0,0c-1.4,12.7,6.8,53.2-16.7,44.9    c-1.1,5.4-4.7,7.8-6.1,12.2c-5.1-12.6-30.9-27.9-42.3-21.2c0.8,0.7,1.6,1.4,2.3,2.1c-5.9-5.2-13.5-7.2-17.7,3.3    c-6.4-3.2-9.2-2.9-3.2,3.5c-5.4,5.4-5.6,6.2-9.7,13.8c-5.9-6.9-11.4-4-15.8,4.3c-3.7-6.4-12.9-32.1-23.5-22.4    c-1.1-5-3.2-12.6-6-18.7L39.1,61.5c-2.7,5.5-5.3,10.6-6.5,14.5c-3.8,11.7-2.8,24.4-7.1,35.6l3.4,14.1c0,0,0.8,0.5,1.6,0.6    c1.8,9.8-3.6,6.6-7,10.6l0,0c1-3.9,0.4-7.2,1.4-9.1l0.9-1.2l3.1-0.9l-3.4-14.1L23.7,113.7z"/>
	</a>
	<a xlink:href="Vigo - Comarca">
		<path style="fill-rule:evenodd;clip-rule:evenodd;fill:none;" d="M460,293l-0.5,74.5l3.5,53l-2,28l-3.5,9.5L348,465l-180.5-7    l-81-1.5L82,412.8l-7.7-5.8l-3.9,3l-3.3,1.2l-3-1l-2.3-4.2c0,0-2.3-8-2.7-8.5s-2.6-11.2-2.6-11.2l5.1-1.8l-1.2-10.3l-6.7,0.3    l-2.5-2.3l0.2-4.2l2-3.8l4.7-3.7l2.5-3.7l1.7-5.7l0.5-5l-1.7-9.8l-1.2-11.5l-2-6.8l-3.8-5.5l-2.5-7.2h2.2l5,1.5    c0,0,4.5,1.7,4.5,2.2s3.5,3.5,3.7,4.2s2,4.5,2.2,5.3s2.8,6.3,2.8,7.2s1.8,8.5,1.8,8.5s2.5,5.7,2.3,6.5s2,5.3,2,5.3l1.6,2.3    l-4.5,1.7l-2,1.3l-0.7,3l0.8,3.3c0,0,0.7,3,0.7,3.5s0.2,3.5,0.2,3.5l-1.8,3.5l-5,3.5l-7,2.5l1.2,10.3l5.2,5.8l4,4.8l5,3.2l4.2,2.3    l3.7,4.2l1.8,4l-3.3,4l4.5,43.7l96.3-4c0,0,2.3-18.2,2.3-19.3s1.8-12.5,1.8-12.5l3.3-5.7l6.7-1.7l4.8-1.3l4.3-3.7l0.7-1.4    l-1.2-7.5l-1-3l1.5-3l2.4-1.1l0.1,1.6c0,0,0.5,1.3-0.3,2.2s-2.7,3.3-2.7,3.3l1.2,7.5l1.6,1.1l2.2,0.3l1.1-6.8l2.7-0.6l5.8-1.3    l4-1.3c0,0,3-1.8,3.7-2.2s3.7-3.5,4.2-3.8s3.3-4.2,3.3-4.2l2.5-5.5c0,0,1.3-4,1.7-4.5s0.5-5.8,0.7-6.3s1.2-8.2,1.2-8.2l1.5-5.5    l1.8-4.5l1.8-2.5l1.5,0.5c0,0,1.5,0.8,1.8,1.3s1,1.7,1.5,1.8s2.5,0.5,4.3,0.5s4.3,0,5.2,0s3.5-0.7,4.3-0.8s3.3-2.3,3.3-2.3l3-3.5    l3.3-4.8c0,0,2.7-2.3,3.5-2.3s5.8-0.8,6.3-0.8s-3,2.2-3.5,2.5s-3.5,3-3.5,3l-2.8,3.3l0,2.9l14-2.4l16.6-25.3l4.1-0.5l4.8-0.9h4.6    l3.6,0.8l4-2.8c0,0,2.8-4.3,2.9-4.6s2.6-5.5,2.6-5.5s0.5-5.3,1-5.8s1.1-2.5,1.1-2.5l2.5-2.5c0,0,6.3-3.3,6.8-3.3s5.4-2.5,6.1-2.6    s4.3-1.6,4.6-1.8s3.6-2.4,3.6-2.4l2.9-1l3.8-1.6l4.1-2.1c0,0,3.1-3,3.6-3.3s3.9-3.5,3.9-3.5l2.5-3.3l2.1-2.3l9.6-16.6l3.7-7    l4.7-6.5c0,0,4.8-2.9,5.2-3s4.7-1.7,5.3-1.7s4.5-0.2,5.2-0.2s5.8,0.3,6.3,0.4s5.5,1.2,6.9,1.3s4.9,0.4,5.8,0.6s6.3,0.5,6.8,0.5    s5.7-0.5,5.7-0.5l2.1-1l5.8-0.4l6.1,1.5L460,293z"/>
	</a>
</g>
<g id="Capa_9">
	<a xlink:href="Pontevedra Comarca">
		<path style="fill:none;" d="M392.2,3.2L387,5l-16.2,14.8l-5.3,4.5l-5.7,4.5l-3.7,4l-19.4-17.5L334,9.8l-2.7,3.2l0.3,3.3L308.2,3.7    l4.3-3.6l-2.6-20.9c0,0-15-2.3-16.3-2.3s-26.7,1-26.7,1l0.8,22.5c0,0-0.8,26,0.2,29s3.5,3.8,3.5,3.8s6.8-3,9.7-8.5    c1.9-3.7,9.2-14.2,12-15.2c7-2.3,15.2-5.8,15.2-5.8l23.5,12.7l2.8,4.3l2.2-5.3l19.4,17.5c0,0,0.4,4.1,3.9,8.2    c3.2,3.7,9.1,6.1,10.2,7.5c2.3,3,7.7,9,11.7,13.3s5.7,5,6.3,11s-2,13.3-3.3,18.3s-1.3,12-4.3,19.3s-2.4,5.3-5.8,12.6    c-0.7,1.6-13.7,13.7-14.4,15c-2.3,4.6,0.9,13.3-0.1,19c-1.3,7.3,0.1,7.1,3.1,14.8S384,213,384,213l16.2,20.7c0,0,2.6-1.4,5.3-6.3    c3.8-6.8-5.4-25.4-5.4-28.3c0-1.5-1-5,0-9.1c0.9-3.9,3.7-8.2,5.3-10.1c2.4-2.9,6.2,5.2,7.5,2.4c1.9-4.2,1.3-2.2,3.5-7    c0.2-0.4,1.2-1.7,2.9-2.4c2.4-0.9,6-1.3,8.4-2.5c2.1-1,3-2.8,3.3-3.3c0.5-1-1.7-4.1-2-4.9c-1.8-4.9-6.3-4.2-5.3-14.9    s11.2-20.5,12.5-20.5c0.4,0,3.3-1.9,5.2-1.3c1.7,0.5,0.2,6.9,2.1,7.9c2.4,1.3,6.8-5,10.4-4.4c5.7,1,28.1,1.4,30.1-4.3    s-9.8-8.9-11.2-20.3s-3.7-29.7-4.3-34s-2.3-23.3-4.3-33.3s-5-27-6.7-33.3s0.3-11-6-11s-24.3,3.3-33.3,3.7s-21.4,1.3-21.4,1.3    l-3.3,4.2L392.2,3.2z"/>
	</a>
</g>
<g id="esp_x5F_muni_x5F_1101">
	<a xlink:href="Marin">
		<g>
			<a xlink:href="Marin">
				<path style="fill-rule:evenodd;clip-rule:evenodd;fill:#FFFBF0;stroke:#9A9A9A;stroke-width:2;stroke-miterlimit:10;" d="      M388.9,76.4c-3.3,9.6-5.4,27.5-11.4,41.5c-5,11.9-19.5,16.3-18.5,26.2c2.1,21.2,4.4,14.9-19.6,14.4c-20.2-0.4-22.7,2.1-28.7,19      c-3.7,10.4-17.3,4.4-17,3.2c1.1-4.8,1.4-17.8,0.1-20.5c-11.8-26-18.5-16.5-19.7-20.1c-6.3-19.1,17.2-45.2,21.7-60.8      c7.9,2.8,41.5-38,40.8-36.2c1.4,0.7,2.9,1.4,4.3,2.1c0.2-3,0.6-3.1,2.7-8.2c0.6,13.1,8.1,12.5,11.8,0.3      C368.2,48.3,385.9,58.3,388.9,76.4L388.9,76.4z"/>
			</a>
		</g>
	</a>
	<a xlink:href="Bueu">
		<g>
			<a xlink:href="Bueu">
				<path style="fill-rule:evenodd;clip-rule:evenodd;fill:#FFFBF0;stroke:#9A9A9A;stroke-width:2;stroke-miterlimit:10;" d="      M293.6,180.7c-7.1,7.7-15.4,11.8-21.9,19.7c-5.3,6.5-1.2,19.9-11.1,29.6c-8.5-10.1-23.7-3.7-36.1-17.8      c-3.6-4.1-31.2-3.5-41.9-2.4c3.2-9.8,5.5-18-5-19.2c0.9-7.4-0.8-16.8-4.1-23.8c-1.5-3.3,3.5-6.8,0.7-11.3      c-1.6-2.6-12.2-4.5-15.5-9.6c5.5-6.5,8.5-4.8,16.9-5.1c0.4,0,3.2,6.4,6.2,6.8c5.9,1,12.6-4.8,18.3-2c15.3,7.3,2.9,0,10.4,12.3      c6.1,10.1,17.7,9.6,17.7,9.6c9.3-5.4,23.2-18,34.7-24.2C283.1,132.2,302.2,156.8,293.6,180.7L293.6,180.7z"/>
			</a>
		</g>
	</a>
	<a xlink:href="Moana">
		<g>
			<a xlink:href="Moana">
				<path style="fill-rule:evenodd;clip-rule:evenodd;fill:#FFFBF0;stroke:#9A9A9A;stroke-width:2;stroke-miterlimit:10;" d="      M293.6,180.7c13,10.1,18.2-8.6,23.8-18.8c4-7.3,41.3-5.8,42.5-0.1c2.3,10.9,20.8,50.3,39.9,71.3c-7.1,0.5-19.2-1.1-25.6,1.9      c-1.5,0.7-7.1,11.4-7,11.4c-1.1,2.8-35.7,13.4-40.2,15.5c-2.1-8.1-4.2-16.2-6.2-24.3c-0.6,3.1-3.6,5.1-4,10.9      c-4.2-5.5-8.2-4.5-14.4-7.9c-6.1,6.5-8.4,14.4-5.4,22c-6.2,6.1-26,15.1-32.1,22.8c0,0-4.3-55.5-3-56.8c7-7.1,5.7-23.2,9.8-28.3      C278.3,192.4,286.5,188.4,293.6,180.7L293.6,180.7z"/>
			</a>
		</g>
	</a>
	<a xlink:href="Cangas">
		<g>
			<a xlink:href="Cangas">
				<path style="fill-rule:evenodd;clip-rule:evenodd;fill:#FFFBF0;stroke:#9A9A9A;stroke-width:2;stroke-miterlimit:10;" d="      M262,229.8c0,0,6.4,49.5,3,55.6c-10.3,17.9-27.3-14-35.6,2.7c1.2,0.1-4,16.9-3.2,21.9c-5.2,1.9-2.9,0.2-6.8,3.4      c-9.6-9.5-16.3-7.3-25.6-20.6c-6-8.5-12.3,11.1-19.6,12c-12.6,1.5-9.4-11.1-20-13.7c-22.6-5.6-27.2-2.7-31.4,22.1      c-8.8-6-3.6-5.2-12.7-6.6c1.8-9.1,2.6-5.8,6.9-15.9c6.3-14.9,2.9-19.7,5-34.6c1.7-12.3,5.5-49.6,12.3-58.1      c9.1,13.7,33.8,75,51.7,56.8c-6.8-2.9-10.9-37.9-5.3-44.3c4.2-4.8,35.9-2.4,41.8-0.6c3.4,1,8.2,9.7,18.2,11.9      c8.8,1.9,14.4,1.6,20,8.3L262,229.8z"/>
			</a>
		</g>
	</a>
</g>
<g id="text_x5F_ciutats">
	<g>
		<g>
			<path style="fill:#1A171B;" d="M209.2,260.7c-0.2,0.1-0.3,0.2-0.5,0.2s-0.3,0.1-0.5,0.2c-0.2,0.1-0.4,0.1-0.6,0.2     s-0.5,0.1-0.7,0.1c-0.5,0-1-0.1-1.4-0.2c-0.4-0.1-0.8-0.4-1.1-0.7c-0.3-0.3-0.5-0.7-0.7-1.2c-0.2-0.5-0.2-1-0.2-1.7     c0-0.6,0.1-1.1,0.2-1.6s0.4-0.9,0.7-1.2c0.3-0.3,0.6-0.6,1.1-0.7c0.4-0.2,0.9-0.2,1.4-0.2c0.4,0,0.7,0,1.1,0.1     c0.4,0.1,0.8,0.3,1.2,0.5v1.1h-0.1c-0.4-0.3-0.8-0.6-1.1-0.7c-0.4-0.2-0.8-0.2-1.2-0.2c-0.3,0-0.7,0.1-0.9,0.2     c-0.3,0.1-0.5,0.3-0.7,0.6c-0.2,0.2-0.4,0.6-0.5,0.9c-0.1,0.4-0.2,0.8-0.2,1.3c0,0.5,0.1,1,0.2,1.3s0.3,0.7,0.5,0.9     c0.2,0.2,0.5,0.4,0.8,0.5c0.3,0.1,0.6,0.2,0.9,0.2c0.4,0,0.9-0.1,1.2-0.2c0.4-0.2,0.7-0.4,1.1-0.7h0.1L209.2,260.7z"/>
			<path style="fill:#1A171B;" d="M214.5,261.2l-0.9,0v-0.6c-0.1,0.1-0.2,0.1-0.3,0.2c-0.1,0.1-0.3,0.2-0.4,0.2     c-0.1,0.1-0.3,0.1-0.5,0.2c-0.2,0.1-0.4,0.1-0.7,0.1c-0.5,0-0.9-0.2-1.2-0.5c-0.3-0.3-0.5-0.7-0.5-1.2c0-0.4,0.1-0.7,0.3-1     c0.2-0.3,0.4-0.5,0.7-0.6c0.3-0.1,0.7-0.2,1.1-0.3c0.4-0.1,0.9-0.1,1.4-0.1v-0.1c0-0.2,0-0.4-0.1-0.5s-0.2-0.2-0.3-0.3     c-0.1-0.1-0.3-0.1-0.4-0.2s-0.4,0-0.5,0c-0.2,0-0.5,0-0.8,0.1c-0.3,0.1-0.6,0.2-0.9,0.3h0l0-0.9c0.2,0,0.4-0.1,0.7-0.2     s0.6-0.1,0.9-0.1c0.4,0,0.7,0,0.9,0.1s0.5,0.2,0.7,0.3c0.2,0.1,0.3,0.3,0.4,0.6c0.1,0.2,0.2,0.5,0.2,0.9L214.5,261.2z      M213.6,259.9l0-1.5c-0.3,0-0.6,0-0.9,0.1s-0.6,0.1-0.9,0.1c-0.2,0.1-0.5,0.2-0.6,0.3c-0.2,0.2-0.2,0.4-0.2,0.7     c0,0.3,0.1,0.5,0.3,0.7c0.2,0.2,0.5,0.2,0.8,0.2c0.3,0,0.6-0.1,0.8-0.2C213.1,260.2,213.4,260,213.6,259.9z"/>
			<path style="fill:#1A171B;" d="M220.4,261.2h-0.9l0-3.1c0-0.3,0-0.5,0-0.7s-0.1-0.4-0.2-0.5c-0.1-0.1-0.2-0.2-0.3-0.3     c-0.1-0.1-0.3-0.1-0.6-0.1c-0.2,0-0.5,0.1-0.7,0.2c-0.3,0.1-0.5,0.3-0.7,0.5l0,4.1h-0.9l0-5.5h0.9v0.6c0.3-0.2,0.6-0.4,0.8-0.6     c0.3-0.1,0.6-0.2,0.9-0.2c0.6,0,1,0.2,1.3,0.5c0.3,0.4,0.4,0.9,0.4,1.5L220.4,261.2z"/>
			<path style="fill:#1A171B;" d="M226.3,260.6c0,0.9-0.2,1.6-0.6,2c-0.4,0.4-1,0.6-1.8,0.6c-0.3,0-0.5,0-0.8-0.1     c-0.3,0-0.5-0.1-0.8-0.2l0-0.9h0c0.1,0.1,0.4,0.1,0.7,0.2c0.3,0.1,0.6,0.1,0.9,0.1c0.3,0,0.5,0,0.7-0.1s0.3-0.2,0.5-0.3     c0.1-0.1,0.2-0.3,0.2-0.5c0-0.2,0.1-0.4,0.1-0.6v-0.5c-0.3,0.2-0.5,0.4-0.7,0.5c-0.2,0.1-0.5,0.2-0.9,0.2c-0.6,0-1.1-0.2-1.5-0.7     c-0.4-0.5-0.5-1.1-0.5-2c0-0.5,0.1-0.9,0.2-1.2c0.1-0.3,0.3-0.6,0.5-0.9c0.2-0.2,0.4-0.4,0.7-0.5c0.3-0.1,0.6-0.2,0.9-0.2     c0.3,0,0.5,0,0.7,0.1c0.2,0.1,0.4,0.2,0.6,0.3l0.1-0.2h0.8V260.6z M225.4,259.7l0-3c-0.2-0.1-0.4-0.2-0.6-0.2     c-0.2,0-0.4-0.1-0.6-0.1c-0.5,0-0.9,0.2-1.1,0.5c-0.3,0.3-0.4,0.8-0.4,1.5c0,0.6,0.1,1.1,0.3,1.4c0.2,0.3,0.5,0.5,1,0.5     c0.3,0,0.5,0,0.8-0.2C225,260,225.2,259.9,225.4,259.7z"/>
			<path style="fill:#1A171B;" d="M232,261.2h-0.9v-0.6c-0.1,0.1-0.2,0.1-0.3,0.2c-0.1,0.1-0.3,0.2-0.4,0.2     c-0.1,0.1-0.3,0.1-0.5,0.2s-0.4,0.1-0.7,0.1c-0.5,0-0.9-0.2-1.2-0.5c-0.3-0.3-0.5-0.7-0.5-1.2c0-0.4,0.1-0.7,0.3-1     c0.2-0.3,0.4-0.5,0.7-0.6c0.3-0.1,0.7-0.2,1.1-0.3c0.4-0.1,0.9-0.1,1.4-0.1v-0.1c0-0.2,0-0.4-0.1-0.5c-0.1-0.1-0.2-0.2-0.3-0.3     c-0.1-0.1-0.3-0.1-0.4-0.2c-0.2,0-0.4,0-0.5,0c-0.2,0-0.5,0-0.8,0.1c-0.3,0.1-0.6,0.2-0.9,0.3h0v-0.9c0.2,0,0.4-0.1,0.7-0.2     c0.3-0.1,0.6-0.1,0.9-0.1c0.4,0,0.7,0,0.9,0.1s0.5,0.2,0.7,0.3c0.2,0.1,0.3,0.3,0.4,0.6c0.1,0.2,0.2,0.5,0.2,0.9L232,261.2z      M231.1,259.9v-1.5c-0.3,0-0.6,0-0.9,0.1c-0.4,0-0.6,0.1-0.9,0.1c-0.2,0.1-0.5,0.2-0.6,0.3c-0.2,0.2-0.2,0.4-0.2,0.7     c0,0.3,0.1,0.5,0.3,0.7c0.2,0.2,0.5,0.2,0.8,0.2c0.3,0,0.6-0.1,0.8-0.2C230.7,260.2,230.9,260.1,231.1,259.9z"/>
			<path style="fill:#1A171B;" d="M237.4,259.6c0,0.5-0.2,0.9-0.6,1.2c-0.4,0.3-0.9,0.5-1.6,0.5c-0.4,0-0.7,0-1-0.1     c-0.3-0.1-0.6-0.2-0.8-0.3v-1h0c0.3,0.2,0.6,0.4,0.9,0.5c0.3,0.1,0.7,0.2,1,0.2c0.4,0,0.7-0.1,0.9-0.2c0.2-0.1,0.3-0.3,0.3-0.6     c0-0.2-0.1-0.4-0.2-0.5s-0.3-0.2-0.7-0.3c-0.1,0-0.3-0.1-0.5-0.1c-0.2,0-0.4-0.1-0.5-0.1c-0.5-0.1-0.8-0.3-1-0.6     c-0.2-0.2-0.3-0.5-0.3-0.9c0-0.2,0-0.4,0.1-0.6s0.2-0.4,0.4-0.5c0.2-0.2,0.4-0.3,0.7-0.4c0.3-0.1,0.6-0.1,0.9-0.1     c0.3,0,0.6,0,0.9,0.1c0.3,0.1,0.6,0.2,0.8,0.3v1h0c-0.2-0.2-0.5-0.3-0.8-0.4c-0.3-0.1-0.6-0.2-0.9-0.2c-0.3,0-0.6,0.1-0.8,0.2     c-0.2,0.1-0.3,0.3-0.3,0.6c0,0.2,0.1,0.4,0.2,0.5c0.1,0.1,0.3,0.2,0.6,0.3c0.2,0,0.3,0.1,0.5,0.1s0.4,0.1,0.5,0.1     c0.4,0.1,0.7,0.3,0.9,0.5C237.2,258.9,237.4,259.2,237.4,259.6z"/>
		</g>
	</g>
	<g>
		<g>
			<path style="fill:#1A171B;" d="M325,100.9l-0.9,0l0-6.3l-1.9,4.3l-0.5,0l-1.9-4.3l0,6.3l-0.9,0l0-7.3l1.2,0l1.8,4l1.8-4l1.3,0     L325,100.9z"/>
			<path style="fill:#1A171B;" d="M330.8,100.9h-0.9v-0.6c-0.1,0.1-0.2,0.1-0.3,0.2c-0.1,0.1-0.3,0.2-0.4,0.2     c-0.1,0.1-0.3,0.1-0.5,0.2s-0.4,0.1-0.7,0.1c-0.5,0-0.9-0.2-1.2-0.5c-0.3-0.3-0.5-0.7-0.5-1.2c0-0.4,0.1-0.7,0.3-1     c0.2-0.3,0.4-0.5,0.7-0.6c0.3-0.1,0.7-0.2,1.1-0.3c0.4-0.1,0.9-0.1,1.4-0.1v-0.1c0-0.2,0-0.4-0.1-0.5s-0.2-0.2-0.3-0.3     c-0.1-0.1-0.3-0.1-0.4-0.2c-0.2,0-0.4,0-0.5,0c-0.2,0-0.5,0-0.8,0.1s-0.6,0.2-0.9,0.3h0l0-0.9c0.2,0,0.4-0.1,0.7-0.2     c0.3-0.1,0.6-0.1,0.9-0.1c0.4,0,0.7,0,0.9,0.1c0.3,0.1,0.5,0.2,0.7,0.3c0.2,0.1,0.3,0.3,0.4,0.6s0.2,0.5,0.2,0.9L330.8,100.9z      M329.9,99.6v-1.5c-0.3,0-0.6,0-0.9,0.1c-0.4,0-0.6,0.1-0.9,0.1c-0.2,0.1-0.5,0.2-0.6,0.3c-0.2,0.2-0.2,0.4-0.2,0.7     c0,0.3,0.1,0.5,0.3,0.7c0.2,0.2,0.5,0.2,0.8,0.2c0.3,0,0.6-0.1,0.8-0.2C329.5,99.9,329.7,99.8,329.9,99.6z"/>
			<path style="fill:#1A171B;" d="M335.7,96.5L335.7,96.5c-0.2,0-0.3-0.1-0.4-0.1c-0.1,0-0.3,0-0.4,0c-0.3,0-0.5,0.1-0.8,0.2     c-0.3,0.1-0.5,0.3-0.7,0.5v3.9l-0.9,0l0-5.5h0.9v0.8c0.3-0.3,0.6-0.5,0.9-0.6c0.3-0.1,0.5-0.2,0.8-0.2c0.2,0,0.3,0,0.3,0     c0.1,0,0.2,0,0.3,0L335.7,96.5z"/>
			<path style="fill:#1A171B;" d="M338.3,92.8l-1.3,1.8h-0.7l0.8-1.8L338.3,92.8z M337.3,100.9h-0.9l0-5.5h0.9L337.3,100.9z"/>
			<path style="fill:#1A171B;" d="M343.4,100.9l-0.9,0l0-3.1c0-0.3,0-0.5,0-0.7c0-0.2-0.1-0.4-0.2-0.5c-0.1-0.1-0.2-0.2-0.3-0.3     c-0.1-0.1-0.3-0.1-0.6-0.1c-0.2,0-0.5,0.1-0.7,0.2c-0.3,0.1-0.5,0.3-0.7,0.5l0,4.1h-0.9l0-5.5h0.9v0.6c0.3-0.2,0.6-0.4,0.8-0.6     s0.6-0.2,0.9-0.2c0.6,0,1,0.2,1.3,0.5c0.3,0.4,0.4,0.9,0.4,1.5L343.4,100.9z"/>
		</g>
	</g>
</g>
<g id="text-comarques">
	<g>
		<g>
			<path style="fill:#1A171B;" d="M394.3,34l-1.9,0l-0.5-1.5l-2.7,0l-0.5,1.5l-1.9,0l2.7-7.3l2.2,0L394.3,34z M392.2,24L392.2,24     l-1.7,1.9l-1.2,0l1.2-1.9L392.2,24z M391.4,31.2l-0.9-2.6l-0.9,2.6H391.4z"/>
			<path style="fill:#1A171B;" d="M399.2,30.2H399c-0.1,0-0.2,0-0.4-0.1s-0.3,0-0.4,0c-0.3,0-0.5,0-0.7,0c-0.2,0-0.4,0.1-0.6,0.2V34     l-1.8,0l0-5.5l1.8,0v0.8c0.4-0.3,0.7-0.6,1-0.7c0.3-0.1,0.5-0.2,0.8-0.2c0.1,0,0.1,0,0.2,0c0.1,0,0.1,0,0.2,0V30.2z"/>
			<path style="fill:#1A171B;" d="M405.6,31.6l-4,0c0,0.4,0.2,0.8,0.5,1s0.7,0.3,1.3,0.3c0.4,0,0.7-0.1,1.1-0.2     c0.3-0.1,0.6-0.3,0.8-0.4h0.2v1.4c-0.4,0.2-0.8,0.3-1.1,0.3s-0.7,0.1-1.2,0.1c-1.1,0-1.9-0.2-2.5-0.7c-0.6-0.5-0.9-1.2-0.9-2.1     c0-0.9,0.3-1.6,0.8-2.2c0.6-0.5,1.3-0.8,2.3-0.8c0.9,0,1.6,0.2,2,0.7c0.4,0.5,0.7,1.1,0.7,1.9V31.6z M403.8,30.6     c0-0.4-0.1-0.6-0.3-0.8c-0.2-0.2-0.4-0.3-0.8-0.3c-0.3,0-0.6,0.1-0.8,0.3c-0.2,0.2-0.3,0.5-0.4,0.8L403.8,30.6z"/>
			<path style="fill:#1A171B;" d="M410.1,33.4c-0.1,0.1-0.2,0.2-0.4,0.3c-0.1,0.1-0.3,0.2-0.4,0.2c-0.2,0.1-0.4,0.1-0.5,0.2     s-0.4,0.1-0.6,0.1c-0.5,0-1-0.2-1.3-0.5c-0.4-0.3-0.5-0.7-0.5-1.2c0-0.4,0.1-0.7,0.3-1c0.2-0.3,0.4-0.5,0.8-0.6     c0.3-0.1,0.7-0.3,1.2-0.3c0.5-0.1,1-0.1,1.5-0.1v0c0-0.3-0.1-0.5-0.4-0.6c-0.2-0.1-0.6-0.2-1.1-0.2c-0.3,0-0.6,0.1-0.9,0.2     c-0.3,0.1-0.6,0.2-0.7,0.2h-0.2v-1.3c0.2,0,0.5-0.1,0.9-0.2s0.8-0.1,1.3-0.1c1,0,1.7,0.2,2.2,0.5c0.4,0.3,0.7,0.8,0.7,1.4V34     l-1.7,0V33.4z M410.1,32.6l0-1.1c-0.2,0-0.5,0-0.8,0.1c-0.3,0-0.5,0.1-0.6,0.1c-0.2,0.1-0.3,0.1-0.4,0.2     c-0.1,0.1-0.1,0.2-0.1,0.4c0,0.1,0,0.2,0,0.3c0,0.1,0.1,0.1,0.1,0.2c0.1,0.1,0.2,0.1,0.3,0.1c0.1,0,0.3,0,0.5,0     c0.2,0,0.4,0,0.5-0.1C409.8,32.8,410,32.7,410.1,32.6z"/>
			<path style="fill:#1A171B;" d="M422.3,34h-1.8v-0.6c-0.3,0.2-0.6,0.4-0.8,0.5s-0.6,0.2-0.9,0.2c-0.7,0-1.2-0.3-1.6-0.8     s-0.6-1.2-0.6-2.1c0-0.5,0.1-0.9,0.2-1.2s0.3-0.7,0.6-0.9c0.2-0.2,0.5-0.4,0.8-0.6c0.3-0.1,0.6-0.2,0.9-0.2c0.3,0,0.6,0,0.8,0.1     s0.4,0.2,0.6,0.3l0-2.3h1.8L422.3,34z M420.5,32.5v-2.7c-0.1-0.1-0.3-0.1-0.4-0.1s-0.3,0-0.4,0c-0.5,0-0.8,0.1-1,0.4     s-0.3,0.7-0.3,1.2c0,0.5,0.1,0.9,0.3,1.2c0.2,0.2,0.5,0.4,0.9,0.4c0.2,0,0.3,0,0.5-0.1C420.2,32.7,420.4,32.6,420.5,32.5z"/>
			<path style="fill:#1A171B;" d="M429.3,31.6l-4,0c0,0.4,0.2,0.8,0.5,1s0.7,0.3,1.3,0.3c0.4,0,0.7-0.1,1.1-0.2     c0.3-0.1,0.6-0.3,0.8-0.4h0.2v1.4c-0.4,0.2-0.8,0.3-1.1,0.3s-0.7,0.1-1.2,0.1c-1.1,0-1.9-0.2-2.5-0.7c-0.6-0.5-0.9-1.2-0.9-2.1     c0-0.9,0.3-1.6,0.8-2.2c0.6-0.5,1.3-0.8,2.3-0.8c0.9,0,1.6,0.2,2,0.7s0.7,1.1,0.7,1.9V31.6z M427.6,30.6c0-0.4-0.1-0.6-0.3-0.8     c-0.2-0.2-0.4-0.3-0.8-0.3c-0.3,0-0.6,0.1-0.8,0.3c-0.2,0.2-0.3,0.5-0.4,0.8L427.6,30.6z"/>
			<path style="fill:#1A171B;" d="M384.7,45c0,0.3-0.1,0.6-0.2,1c-0.1,0.3-0.3,0.6-0.5,0.8c-0.3,0.3-0.6,0.5-1,0.6     c-0.4,0.1-0.8,0.2-1.3,0.2h-1.2l0,2.4l-1.9,0l0-7.3l3.1,0c0.5,0,0.9,0,1.2,0.1c0.3,0.1,0.6,0.2,0.8,0.4c0.3,0.2,0.5,0.4,0.7,0.7     C384.6,44.2,384.7,44.6,384.7,45z M382.7,45.1c0-0.2-0.1-0.4-0.2-0.5c-0.1-0.1-0.2-0.3-0.4-0.3c-0.2-0.1-0.4-0.1-0.6-0.1     s-0.4,0-0.7,0h-0.3v2.2h0.5c0.3,0,0.6,0,0.8-0.1s0.4-0.1,0.5-0.2c0.1-0.1,0.2-0.2,0.3-0.4C382.7,45.4,382.7,45.3,382.7,45.1z"/>
			<path style="fill:#1A171B;" d="M391.5,47.3c0,0.9-0.3,1.6-0.8,2.1s-1.3,0.8-2.2,0.8c-1,0-1.7-0.3-2.2-0.8     c-0.5-0.5-0.8-1.2-0.8-2.1c0-0.9,0.3-1.6,0.8-2.1c0.5-0.5,1.3-0.8,2.2-0.8c1,0,1.7,0.3,2.2,0.8C391.2,45.6,391.5,46.4,391.5,47.3     z M389.3,48.6c0.1-0.1,0.2-0.3,0.3-0.5c0.1-0.2,0.1-0.5,0.1-0.8c0-0.3,0-0.6-0.1-0.8s-0.1-0.4-0.2-0.5c-0.1-0.1-0.2-0.2-0.4-0.3     s-0.3-0.1-0.5-0.1c-0.2,0-0.3,0-0.5,0.1c-0.1,0-0.3,0.1-0.4,0.3c-0.1,0.1-0.2,0.3-0.3,0.5c-0.1,0.2-0.1,0.5-0.1,0.8     c0,0.3,0,0.6,0.1,0.8c0.1,0.2,0.1,0.4,0.2,0.5c0.1,0.1,0.2,0.2,0.4,0.3s0.3,0.1,0.5,0.1c0.2,0,0.3,0,0.5-0.1     C389.1,48.8,389.2,48.7,389.3,48.6z"/>
			<path style="fill:#1A171B;" d="M398.3,50l-1.8,0l0-2.7c0-0.2,0-0.4,0-0.7c0-0.2-0.1-0.4-0.1-0.5c-0.1-0.1-0.2-0.2-0.3-0.3     c-0.1-0.1-0.3-0.1-0.5-0.1c-0.2,0-0.3,0-0.5,0.1s-0.3,0.1-0.5,0.2l0,3.9l-1.8,0l0-5.5l1.8,0v0.6c0.3-0.2,0.6-0.4,0.9-0.6     c0.3-0.1,0.6-0.2,1-0.2c0.6,0,1.1,0.2,1.4,0.5c0.3,0.3,0.5,0.9,0.5,1.5V50z"/>
			<path style="fill:#1A171B;" d="M403.4,50c-0.2,0-0.4,0.1-0.6,0.1c-0.2,0-0.5,0-0.8,0c-0.7,0-1.2-0.1-1.5-0.4     c-0.3-0.3-0.5-0.8-0.5-1.4v-2.6h-0.7l0-1.2h0.7v-1.6l1.8,0v1.6l1.6,0v1.2l-1.6,0v1.9c0,0.2,0,0.4,0,0.5c0,0.1,0,0.3,0.1,0.4     c0,0.1,0.1,0.2,0.2,0.3s0.3,0.1,0.5,0.1c0.1,0,0.2,0,0.4-0.1c0.1,0,0.3-0.1,0.3-0.1h0.1L403.4,50z"/>
			<path style="fill:#1A171B;" d="M409.8,47.6l-4,0c0,0.4,0.2,0.8,0.5,1s0.7,0.3,1.3,0.3c0.4,0,0.7-0.1,1.1-0.2     c0.3-0.1,0.6-0.3,0.8-0.4h0.2v1.4c-0.4,0.2-0.8,0.3-1.1,0.3s-0.7,0.1-1.2,0.1c-1.1,0-1.9-0.2-2.5-0.7c-0.6-0.5-0.9-1.2-0.9-2.1     c0-0.9,0.3-1.6,0.8-2.2c0.6-0.5,1.3-0.8,2.3-0.8c0.9,0,1.6,0.2,2,0.7c0.5,0.5,0.7,1.1,0.7,1.9V47.6z M408.1,46.6     c0-0.4-0.1-0.6-0.3-0.8c-0.2-0.2-0.4-0.3-0.8-0.3c-0.3,0-0.6,0.1-0.8,0.3c-0.2,0.2-0.3,0.5-0.4,0.8L408.1,46.6z"/>
			<path style="fill:#1A171B;" d="M416.6,44.5l-2.1,5.5l-2,0l-2.1-5.5l1.9,0l1.3,3.8l1.3-3.8L416.6,44.5z"/>
			<path style="fill:#1A171B;" d="M423,47.6l-4,0c0,0.4,0.2,0.8,0.5,1c0.3,0.2,0.7,0.3,1.3,0.3c0.4,0,0.7-0.1,1.1-0.2     c0.3-0.1,0.6-0.3,0.8-0.4h0.2v1.4c-0.4,0.2-0.8,0.3-1.1,0.3s-0.7,0.1-1.2,0.1c-1.1,0-1.9-0.2-2.5-0.7c-0.6-0.5-0.9-1.2-0.9-2.1     c0-0.9,0.3-1.6,0.8-2.2c0.6-0.5,1.3-0.8,2.3-0.8c0.9,0,1.6,0.2,2,0.7c0.4,0.5,0.7,1.1,0.7,1.9V47.6z M421.2,46.6     c0-0.4-0.1-0.6-0.3-0.8c-0.2-0.2-0.4-0.3-0.8-0.3c-0.3,0-0.6,0.1-0.8,0.3c-0.2,0.2-0.3,0.5-0.4,0.8L421.2,46.6z"/>
			<path style="fill:#1A171B;" d="M429.6,50l-1.8,0v-0.6c-0.3,0.2-0.6,0.4-0.8,0.5c-0.3,0.1-0.6,0.2-0.9,0.2c-0.7,0-1.2-0.3-1.6-0.8     c-0.4-0.5-0.6-1.2-0.6-2.1c0-0.5,0.1-0.9,0.2-1.2s0.3-0.7,0.6-0.9c0.2-0.2,0.5-0.4,0.8-0.6c0.3-0.1,0.6-0.2,0.9-0.2     c0.3,0,0.6,0,0.8,0.1c0.2,0.1,0.4,0.2,0.6,0.3v-2.3l1.8,0L429.6,50z M427.8,48.5v-2.7c-0.1-0.1-0.3-0.1-0.4-0.1s-0.3,0-0.4,0     c-0.5,0-0.8,0.1-1,0.4s-0.3,0.7-0.3,1.2c0,0.5,0.1,0.9,0.3,1.2c0.2,0.2,0.5,0.4,0.9,0.4c0.2,0,0.3,0,0.5-0.1     C427.5,48.7,427.7,48.6,427.8,48.5z"/>
			<path style="fill:#1A171B;" d="M435.2,46.2H435c-0.1,0-0.2,0-0.4-0.1s-0.3,0-0.4,0c-0.3,0-0.5,0-0.7,0c-0.2,0-0.4,0.1-0.6,0.2V50     l-1.8,0l0-5.5l1.8,0v0.8c0.4-0.3,0.7-0.6,1-0.7c0.3-0.1,0.5-0.2,0.8-0.2c0.1,0,0.1,0,0.2,0s0.1,0,0.2,0V46.2z"/>
			<path style="fill:#1A171B;" d="M439.5,49.4c-0.1,0.1-0.2,0.2-0.4,0.3c-0.1,0.1-0.3,0.2-0.4,0.2c-0.2,0.1-0.4,0.1-0.5,0.2     c-0.2,0-0.4,0.1-0.6,0.1c-0.5,0-1-0.2-1.3-0.5c-0.4-0.3-0.5-0.7-0.5-1.2c0-0.4,0.1-0.7,0.3-1c0.2-0.3,0.4-0.5,0.8-0.6     c0.3-0.1,0.7-0.3,1.2-0.3c0.5-0.1,1-0.1,1.5-0.1v0c0-0.3-0.1-0.5-0.4-0.6c-0.2-0.1-0.6-0.2-1.1-0.2c-0.3,0-0.6,0.1-0.9,0.2     c-0.3,0.1-0.6,0.2-0.7,0.2h-0.2v-1.3c0.2,0,0.5-0.1,0.9-0.2c0.4-0.1,0.8-0.1,1.3-0.1c1,0,1.7,0.2,2.2,0.5     c0.4,0.3,0.7,0.8,0.7,1.4V50l-1.7,0L439.5,49.4z M439.5,48.6v-1.1c-0.2,0-0.5,0-0.8,0.1c-0.3,0-0.5,0.1-0.6,0.1     c-0.2,0.1-0.3,0.1-0.4,0.2c-0.1,0.1-0.1,0.2-0.1,0.4c0,0.1,0,0.2,0,0.3c0,0.1,0.1,0.1,0.1,0.2c0.1,0.1,0.2,0.1,0.3,0.1     c0.1,0,0.3,0,0.5,0c0.2,0,0.4,0,0.5-0.1C439.2,48.8,439.4,48.7,439.5,48.6z"/>
		</g>
	</g>
	<g>
		<g>
			<path style="fill:#1A171B;" d="M182.3,11.5c0,1.2-0.3,2.1-1,2.8c-0.7,0.7-1.6,1-2.8,1c-1.2,0-2.1-0.3-2.7-1c-0.7-0.7-1-1.6-1-2.8     c0-1.2,0.3-2.1,1-2.8c0.7-0.7,1.6-1,2.7-1c1.2,0,2.1,0.3,2.7,1S182.3,10.3,182.3,11.5z M179.8,13.4c0.2-0.2,0.3-0.5,0.4-0.8     c0.1-0.3,0.1-0.7,0.1-1.1c0-0.4-0.1-0.8-0.2-1.1c-0.1-0.3-0.2-0.6-0.4-0.7c-0.2-0.2-0.4-0.3-0.6-0.4c-0.2-0.1-0.4-0.1-0.7-0.1     c-0.2,0-0.5,0-0.7,0.1c-0.2,0.1-0.4,0.2-0.6,0.4c-0.2,0.2-0.3,0.4-0.4,0.8c-0.1,0.3-0.2,0.7-0.2,1.1c0,0.4,0,0.8,0.1,1.1     c0.1,0.3,0.2,0.6,0.4,0.7c0.2,0.2,0.4,0.3,0.6,0.4c0.2,0.1,0.4,0.1,0.7,0.1c0.2,0,0.5,0,0.7-0.1     C179.5,13.7,179.6,13.5,179.8,13.4z"/>
			<path style="fill:#1A171B;" d="M193,12.9c0,0.7-0.3,1.3-0.9,1.7s-1.4,0.7-2.5,0.7c-0.6,0-1.1-0.1-1.6-0.2s-0.9-0.2-1.3-0.4l0-1.7     h0.2c0.4,0.3,0.8,0.5,1.3,0.7c0.5,0.2,0.9,0.2,1.4,0.2c0.1,0,0.3,0,0.4,0s0.3-0.1,0.5-0.1c0.1-0.1,0.3-0.1,0.4-0.2     s0.1-0.2,0.1-0.4c0-0.2-0.1-0.3-0.2-0.4c-0.1-0.1-0.3-0.2-0.6-0.3c-0.3-0.1-0.6-0.1-0.9-0.2c-0.3-0.1-0.6-0.1-0.9-0.2     c-0.6-0.2-1.1-0.5-1.3-0.8s-0.4-0.8-0.4-1.3c0-0.7,0.3-1.2,0.9-1.7s1.4-0.6,2.3-0.6c0.5,0,1,0,1.4,0.1c0.5,0.1,0.9,0.2,1.2,0.3     l0,1.7h-0.2c-0.3-0.2-0.7-0.4-1.1-0.6c-0.4-0.2-0.9-0.2-1.3-0.2c-0.2,0-0.3,0-0.5,0c-0.2,0-0.3,0.1-0.4,0.1     c-0.1,0-0.2,0.1-0.3,0.2c-0.1,0.1-0.1,0.2-0.1,0.3c0,0.2,0.1,0.3,0.2,0.4c0.1,0.1,0.4,0.2,0.8,0.3c0.3,0.1,0.5,0.1,0.8,0.2     c0.2,0.1,0.5,0.1,0.8,0.2c0.6,0.2,1,0.4,1.2,0.7C192.8,12,193,12.4,193,12.9z"/>
			<path style="fill:#1A171B;" d="M197.5,14.6c-0.1,0.1-0.2,0.2-0.4,0.3c-0.1,0.1-0.3,0.2-0.4,0.2c-0.2,0.1-0.4,0.1-0.5,0.2     c-0.2,0-0.4,0.1-0.6,0.1c-0.5,0-1-0.2-1.3-0.5s-0.5-0.7-0.5-1.2c0-0.4,0.1-0.7,0.3-1c0.2-0.3,0.4-0.5,0.8-0.6     c0.3-0.1,0.7-0.3,1.2-0.3c0.5-0.1,1-0.1,1.5-0.1v0c0-0.3-0.1-0.5-0.4-0.6s-0.6-0.2-1.1-0.2c-0.3,0-0.6,0.1-0.9,0.2     s-0.6,0.2-0.7,0.2h-0.2V9.8c0.2,0,0.5-0.1,0.9-0.2c0.4-0.1,0.8-0.1,1.3-0.1c1,0,1.7,0.2,2.2,0.5s0.7,0.8,0.7,1.4l0,3.7l-1.7,0     V14.6z M197.5,13.7v-1.1c-0.2,0-0.5,0-0.8,0.1c-0.3,0-0.5,0.1-0.6,0.1c-0.2,0.1-0.3,0.1-0.4,0.2s-0.1,0.2-0.1,0.4     c0,0.1,0,0.2,0,0.3s0.1,0.1,0.1,0.2c0.1,0.1,0.2,0.1,0.3,0.1c0.1,0,0.3,0,0.5,0c0.2,0,0.4,0,0.5-0.1S197.3,13.8,197.5,13.7z"/>
			<path style="fill:#1A171B;" d="M202.6,15.1l-1.8,0l0-7.6l1.8,0L202.6,15.1z"/>
			<path style="fill:#1A171B;" d="M209.8,15.1l-1.8,0l0-2.7c0-0.2,0-0.4,0-0.7c0-0.2-0.1-0.4-0.1-0.5c-0.1-0.1-0.2-0.2-0.3-0.3     c-0.1-0.1-0.3-0.1-0.5-0.1c-0.2,0-0.3,0-0.5,0.1c-0.2,0.1-0.3,0.1-0.5,0.2l0,3.9l-1.8,0l0-5.5l1.8,0v0.6c0.3-0.2,0.6-0.4,0.9-0.6     c0.3-0.1,0.6-0.2,1-0.2c0.6,0,1.1,0.2,1.4,0.5c0.3,0.3,0.5,0.9,0.5,1.5L209.8,15.1z"/>
			<path style="fill:#1A171B;" d="M216.8,12.7l-4,0c0,0.4,0.2,0.8,0.5,1c0.3,0.2,0.7,0.3,1.3,0.3c0.4,0,0.7-0.1,1.1-0.2     c0.3-0.1,0.6-0.3,0.8-0.4h0.2l0,1.4c-0.4,0.2-0.8,0.3-1.1,0.3c-0.4,0.1-0.7,0.1-1.2,0.1c-1.1,0-1.9-0.2-2.5-0.7     c-0.6-0.5-0.9-1.2-0.9-2.1c0-0.9,0.3-1.6,0.8-2.2c0.6-0.5,1.3-0.8,2.3-0.8c0.9,0,1.6,0.2,2,0.7c0.4,0.5,0.7,1.1,0.7,1.9V12.7z      M215,11.7c0-0.4-0.1-0.6-0.3-0.8s-0.4-0.3-0.8-0.3c-0.3,0-0.6,0.1-0.8,0.3s-0.3,0.5-0.4,0.8L215,11.7z M215.7,7L215.7,7L214,8.9     l-1.2,0L214,7H215.7z"/>
			<path style="fill:#1A171B;" d="M222.8,13.4c0,0.6-0.3,1-0.8,1.4s-1.2,0.5-2.1,0.5c-0.5,0-0.9,0-1.3-0.1c-0.4-0.1-0.7-0.2-1-0.3     l0-1.4h0.2c0.1,0.1,0.2,0.1,0.3,0.2c0.1,0.1,0.3,0.2,0.5,0.2c0.2,0.1,0.4,0.1,0.6,0.2c0.2,0.1,0.5,0.1,0.7,0.1     c0.3,0,0.6,0,0.8-0.1c0.2-0.1,0.2-0.2,0.2-0.3c0-0.1,0-0.2-0.1-0.3c-0.1-0.1-0.3-0.1-0.6-0.2c-0.1,0-0.3-0.1-0.5-0.1     s-0.4-0.1-0.6-0.1c-0.5-0.1-0.9-0.3-1.1-0.6c-0.2-0.3-0.4-0.6-0.4-1c0-0.5,0.2-1,0.7-1.3c0.5-0.4,1.2-0.5,2-0.5     c0.4,0,0.8,0,1.2,0.1c0.4,0.1,0.7,0.2,0.9,0.3v1.4h-0.2c-0.3-0.2-0.6-0.3-0.9-0.4s-0.7-0.2-1-0.2c-0.3,0-0.5,0-0.7,0.1     s-0.3,0.2-0.3,0.3c0,0.1,0,0.2,0.1,0.3s0.3,0.1,0.6,0.2c0.2,0,0.4,0.1,0.6,0.1c0.2,0,0.4,0.1,0.6,0.1c0.5,0.1,0.8,0.3,1,0.6     C222.7,12.7,222.8,13,222.8,13.4z"/>
		</g>
	</g>
	<g>
		<g>
			<path style="fill:#1A171B;" d="M328.6,392.4h-1.9l-0.5-1.5h-2.7l-0.5,1.5l-1.9,0l2.7-7.3h2.2L328.6,392.4z M326.5,382.4     L326.5,382.4l-1.7,1.9h-1.2l1.2-1.9H326.5z M325.7,389.6l-0.9-2.6l-0.9,2.6H325.7z"/>
			<path style="fill:#1A171B;" d="M333.5,388.6h-0.2c-0.1,0-0.2,0-0.4-0.1s-0.3,0-0.4,0c-0.3,0-0.5,0-0.7,0c-0.2,0-0.4,0.1-0.6,0.2     l0,3.7l-1.8,0l0-5.5l1.8,0v0.8c0.4-0.3,0.7-0.6,1-0.7c0.3-0.1,0.5-0.2,0.8-0.2c0.1,0,0.1,0,0.2,0c0.1,0,0.1,0,0.2,0V388.6z"/>
			<path style="fill:#1A171B;" d="M339.9,390l-4,0c0,0.4,0.2,0.8,0.5,1c0.3,0.2,0.7,0.3,1.3,0.3c0.4,0,0.7-0.1,1.1-0.2     s0.6-0.3,0.8-0.4h0.2v1.4c-0.4,0.2-0.8,0.3-1.1,0.3s-0.7,0.1-1.2,0.1c-1.1,0-1.9-0.2-2.5-0.7c-0.6-0.5-0.9-1.2-0.9-2.1     c0-0.9,0.3-1.6,0.8-2.2c0.6-0.5,1.3-0.8,2.3-0.8c0.9,0,1.6,0.2,2,0.7c0.4,0.5,0.7,1.1,0.7,1.9L339.9,390z M338.2,389     c0-0.4-0.1-0.6-0.3-0.8s-0.4-0.3-0.8-0.3c-0.3,0-0.6,0.1-0.8,0.3s-0.3,0.5-0.4,0.8H338.2z"/>
			<path style="fill:#1A171B;" d="M344.5,391.8c-0.1,0.1-0.2,0.2-0.4,0.3s-0.3,0.2-0.4,0.2c-0.2,0.1-0.4,0.1-0.5,0.2     c-0.2,0-0.4,0.1-0.6,0.1c-0.5,0-1-0.2-1.3-0.5s-0.5-0.7-0.5-1.2c0-0.4,0.1-0.7,0.3-1c0.2-0.3,0.4-0.5,0.8-0.6     c0.3-0.1,0.7-0.3,1.2-0.3s1-0.1,1.5-0.1v0c0-0.3-0.1-0.5-0.4-0.6c-0.2-0.1-0.6-0.2-1.1-0.2c-0.3,0-0.6,0.1-0.9,0.2     s-0.6,0.2-0.7,0.2h-0.2v-1.3c0.2,0,0.5-0.1,0.9-0.2c0.4-0.1,0.8-0.1,1.3-0.1c1,0,1.7,0.2,2.2,0.5s0.7,0.8,0.7,1.4l0,3.7h-1.7     V391.8z M344.5,391l0-1.1c-0.2,0-0.5,0-0.8,0.1s-0.5,0.1-0.6,0.1c-0.2,0.1-0.3,0.1-0.4,0.2s-0.1,0.2-0.1,0.4c0,0.1,0,0.2,0,0.3     s0.1,0.1,0.1,0.2c0.1,0.1,0.2,0.1,0.3,0.1c0.1,0,0.3,0,0.5,0c0.2,0,0.4,0,0.5-0.1C344.2,391.2,344.4,391.1,344.5,391z"/>
			<path style="fill:#1A171B;" d="M356.6,392.4h-1.8v-0.6c-0.3,0.2-0.6,0.4-0.8,0.5s-0.6,0.2-0.9,0.2c-0.7,0-1.2-0.3-1.6-0.8     c-0.4-0.5-0.6-1.2-0.6-2.1c0-0.5,0.1-0.9,0.2-1.2c0.1-0.4,0.3-0.7,0.6-0.9c0.2-0.2,0.5-0.4,0.8-0.6c0.3-0.1,0.6-0.2,0.9-0.2     c0.3,0,0.6,0,0.8,0.1c0.2,0.1,0.4,0.2,0.6,0.3l0-2.3h1.8L356.6,392.4z M354.8,390.9l0-2.7c-0.1-0.1-0.3-0.1-0.4-0.1s-0.3,0-0.4,0     c-0.5,0-0.8,0.1-1,0.4c-0.2,0.3-0.3,0.7-0.3,1.2c0,0.5,0.1,0.9,0.3,1.2c0.2,0.2,0.5,0.4,0.9,0.4c0.2,0,0.3,0,0.5-0.1     C354.5,391.1,354.7,391,354.8,390.9z"/>
			<path style="fill:#1A171B;" d="M363.7,390l-4,0c0,0.4,0.2,0.8,0.5,1c0.3,0.2,0.7,0.3,1.3,0.3c0.4,0,0.7-0.1,1.1-0.2     s0.6-0.3,0.8-0.4h0.2v1.4c-0.4,0.2-0.8,0.3-1.1,0.3c-0.4,0.1-0.7,0.1-1.2,0.1c-1.1,0-1.9-0.2-2.5-0.7s-0.9-1.2-0.9-2.1     c0-0.9,0.3-1.6,0.8-2.2c0.6-0.5,1.3-0.8,2.3-0.8c0.9,0,1.6,0.2,2,0.7c0.4,0.5,0.7,1.1,0.7,1.9L363.7,390z M361.9,389     c0-0.4-0.1-0.6-0.3-0.8s-0.4-0.3-0.8-0.3c-0.3,0-0.6,0.1-0.8,0.3s-0.3,0.5-0.4,0.8H361.9z"/>
			<path style="fill:#1A171B;" d="M375,385.2l-2.6,7.3l-2.1,0l-2.7-7.3h2l1.8,5.1l1.8-5.1H375z"/>
			<path style="fill:#1A171B;" d="M377.8,386.2h-1.9l0-1.3h1.9L377.8,386.2z M377.7,392.4H376l0-5.5h1.8L377.7,392.4z"/>
			<path style="fill:#1A171B;" d="M384.7,391.8c0,0.5-0.1,0.9-0.2,1.3s-0.4,0.6-0.6,0.8c-0.3,0.2-0.6,0.3-1,0.4     c-0.4,0.1-0.8,0.1-1.3,0.1c-0.4,0-0.8,0-1.1-0.1c-0.4,0-0.7-0.1-1-0.2v-1.4h0.2c0.2,0.1,0.5,0.2,0.8,0.2c0.3,0.1,0.6,0.1,0.8,0.1     c0.3,0,0.6,0,0.8-0.1c0.2-0.1,0.4-0.1,0.5-0.3c0.1-0.1,0.2-0.2,0.2-0.4s0.1-0.4,0.1-0.6v-0.1c-0.2,0.2-0.4,0.3-0.7,0.4     s-0.5,0.2-0.9,0.2c-0.8,0-1.4-0.2-1.8-0.7c-0.4-0.5-0.6-1.2-0.6-2.1c0-0.5,0.1-0.8,0.2-1.2s0.3-0.6,0.5-0.9     c0.2-0.2,0.5-0.4,0.8-0.5c0.3-0.1,0.6-0.2,1-0.2c0.3,0,0.6,0,0.8,0.1c0.2,0.1,0.5,0.2,0.7,0.3l0.1-0.2l1.7,0L384.7,391.8z      M382.9,390.7l0-2.5c-0.1,0-0.2-0.1-0.4-0.1c-0.1,0-0.3,0-0.4,0c-0.5,0-0.8,0.1-1,0.4c-0.2,0.3-0.3,0.6-0.3,1.1     c0,0.5,0.1,0.9,0.3,1.1s0.5,0.3,0.9,0.3c0.2,0,0.3,0,0.5-0.1S382.8,390.8,382.9,390.7z"/>
			<path style="fill:#1A171B;" d="M392,389.7c0,0.9-0.3,1.6-0.8,2.1c-0.5,0.5-1.3,0.8-2.2,0.8c-1,0-1.7-0.3-2.2-0.8     c-0.5-0.5-0.8-1.2-0.8-2.1c0-0.9,0.3-1.6,0.8-2.1c0.5-0.5,1.3-0.8,2.2-0.8c1,0,1.7,0.3,2.2,0.8S392,388.8,392,389.7z M389.8,391     c0.1-0.1,0.2-0.3,0.3-0.5c0.1-0.2,0.1-0.5,0.1-0.8c0-0.3,0-0.6-0.1-0.8s-0.1-0.4-0.2-0.5c-0.1-0.1-0.2-0.2-0.4-0.3     s-0.3-0.1-0.5-0.1s-0.3,0-0.5,0.1s-0.3,0.1-0.4,0.3c-0.1,0.1-0.2,0.3-0.3,0.5s-0.1,0.5-0.1,0.8c0,0.3,0,0.6,0.1,0.8     s0.1,0.4,0.2,0.5c0.1,0.1,0.2,0.2,0.4,0.3c0.1,0.1,0.3,0.1,0.5,0.1c0.2,0,0.3,0,0.5-0.1C389.6,391.2,389.7,391.2,389.8,391z"/>
		</g>
	</g>
</g>
<g id="text-municipis">
	<g>
		<rect x="233.9" y="178" style="fill:none;" width="25.5" height="11"/>
		<path d="M240.4,185.8c0,0.4-0.1,0.7-0.2,1s-0.3,0.5-0.6,0.7c-0.3,0.2-0.6,0.4-0.9,0.5s-0.7,0.1-1.2,0.1h-2.6v-7.3h2.2    c0.5,0,0.9,0,1.2,0.1s0.5,0.1,0.8,0.2c0.3,0.1,0.5,0.3,0.6,0.5c0.1,0.2,0.2,0.5,0.2,0.8c0,0.3-0.1,0.6-0.3,0.9    c-0.2,0.2-0.4,0.4-0.7,0.6v0c0.5,0.1,0.9,0.3,1.2,0.6S240.4,185.3,240.4,185.8z M238.8,182.5c0-0.2,0-0.3-0.1-0.4    s-0.2-0.2-0.3-0.3c-0.2-0.1-0.3-0.1-0.6-0.2c-0.2,0-0.5,0-0.8,0h-1.2v2.1h1.3c0.3,0,0.5,0,0.7,0c0.2,0,0.3-0.1,0.5-0.2    s0.3-0.2,0.3-0.4S238.8,182.7,238.8,182.5z M239.4,185.8c0-0.3,0-0.5-0.1-0.7s-0.2-0.3-0.5-0.4c-0.2-0.1-0.3-0.1-0.6-0.2    c-0.2,0-0.5,0-0.8,0h-1.5v2.7h1.3c0.4,0,0.8,0,1-0.1s0.5-0.1,0.7-0.2c0.2-0.1,0.3-0.3,0.4-0.4    C239.3,186.3,239.4,186.1,239.4,185.8z"/>
		<path d="M246.2,188h-0.9v-0.6c-0.3,0.2-0.6,0.4-0.9,0.6s-0.6,0.2-0.9,0.2c-0.6,0-1-0.2-1.3-0.5c-0.3-0.4-0.5-0.9-0.5-1.5v-3.5h0.9    v3.1c0,0.3,0,0.5,0,0.7s0.1,0.4,0.2,0.5c0.1,0.1,0.2,0.2,0.3,0.3s0.3,0.1,0.6,0.1c0.2,0,0.5-0.1,0.8-0.2c0.3-0.1,0.5-0.3,0.8-0.5    v-4.1h0.9V188z"/>
		<path d="M252.6,185.4h-4c0,0.3,0,0.6,0.2,0.9c0.1,0.2,0.2,0.5,0.4,0.6c0.2,0.2,0.4,0.3,0.6,0.4c0.2,0.1,0.5,0.1,0.8,0.1    c0.4,0,0.7-0.1,1.1-0.2c0.4-0.1,0.6-0.3,0.8-0.4h0v1c-0.3,0.1-0.6,0.2-0.9,0.3s-0.7,0.1-1,0.1c-0.9,0-1.6-0.2-2.1-0.7    c-0.5-0.5-0.8-1.2-0.8-2.1c0-0.9,0.2-1.6,0.7-2.1c0.5-0.5,1.1-0.8,1.9-0.8c0.7,0,1.3,0.2,1.7,0.6c0.4,0.4,0.6,1,0.6,1.8V185.4z     M251.7,184.7c0-0.5-0.1-0.9-0.4-1.1s-0.6-0.4-1.1-0.4c-0.5,0-0.9,0.1-1.2,0.4c-0.3,0.3-0.5,0.6-0.5,1.1H251.7z"/>
		<path d="M258.5,188h-0.9v-0.6c-0.3,0.2-0.6,0.4-0.9,0.6s-0.6,0.2-0.9,0.2c-0.6,0-1-0.2-1.3-0.5s-0.5-0.9-0.5-1.5v-3.5h0.9v3.1    c0,0.3,0,0.5,0,0.7c0,0.2,0.1,0.4,0.2,0.5c0.1,0.1,0.2,0.2,0.3,0.3c0.1,0.1,0.3,0.1,0.6,0.1c0.2,0,0.5-0.1,0.8-0.2    c0.3-0.1,0.5-0.3,0.8-0.5v-4.1h0.9V188z"/>
	</g>
	<g>
		<rect x="313" y="208" style="fill:none;" width="32.9" height="11"/>
		<path d="M320.5,218h-1v-6.3l-2,4.3h-0.6l-2-4.3v6.3H314v-7.3h1.3l1.9,4l1.9-4h1.3V218z"/>
		<path d="M327,215.3c0,0.9-0.2,1.6-0.7,2.1s-1.1,0.8-1.8,0.8c-0.8,0-1.4-0.3-1.8-0.8s-0.7-1.2-0.7-2.1s0.2-1.6,0.7-2.1    s1.1-0.8,1.8-0.8c0.8,0,1.4,0.3,1.8,0.8S327,214.4,327,215.3z M326,215.3c0-0.7-0.1-1.2-0.4-1.6c-0.3-0.3-0.7-0.5-1.2-0.5    c-0.5,0-0.9,0.2-1.2,0.5s-0.4,0.9-0.4,1.6c0,0.7,0.1,1.2,0.4,1.6c0.3,0.4,0.7,0.5,1.2,0.5c0.5,0,0.9-0.2,1.2-0.5    S326,215.9,326,215.3z"/>
		<path d="M332.7,218h-0.9v-0.6c-0.1,0.1-0.2,0.1-0.3,0.2c-0.1,0.1-0.3,0.2-0.4,0.2c-0.2,0.1-0.3,0.1-0.5,0.2    c-0.2,0.1-0.4,0.1-0.7,0.1c-0.5,0-0.9-0.2-1.3-0.5s-0.5-0.7-0.5-1.2c0-0.4,0.1-0.7,0.3-1c0.2-0.3,0.4-0.5,0.8-0.6    c0.3-0.1,0.7-0.2,1.2-0.3s1-0.1,1.5-0.1v-0.1c0-0.2,0-0.4-0.1-0.5s-0.2-0.2-0.3-0.3c-0.1-0.1-0.3-0.1-0.5-0.2s-0.4,0-0.6,0    c-0.2,0-0.5,0-0.8,0.1c-0.3,0.1-0.6,0.2-0.9,0.3h0v-0.9c0.2,0,0.4-0.1,0.8-0.2s0.7-0.1,1-0.1c0.4,0,0.7,0,1,0.1    c0.3,0.1,0.5,0.2,0.7,0.3c0.2,0.1,0.4,0.3,0.5,0.6s0.2,0.5,0.2,0.9V218z M331.7,216.6v-1.5c-0.3,0-0.6,0-1,0.1    c-0.4,0-0.7,0.1-0.9,0.1c-0.3,0.1-0.5,0.2-0.6,0.3s-0.2,0.4-0.2,0.7c0,0.3,0.1,0.5,0.3,0.7c0.2,0.2,0.5,0.2,0.9,0.2    c0.3,0,0.6-0.1,0.9-0.2S331.5,216.8,331.7,216.6z"/>
		<path d="M339,218h-0.9v-3.1c0-0.3,0-0.5,0-0.7s-0.1-0.4-0.2-0.5c-0.1-0.1-0.2-0.2-0.4-0.3s-0.4-0.1-0.6-0.1    c-0.3,0-0.5,0.1-0.8,0.2s-0.5,0.3-0.8,0.5v4.1h-0.9v-5.5h0.9v0.6c0.3-0.2,0.6-0.4,0.9-0.6c0.3-0.1,0.6-0.2,0.9-0.2    c0.6,0,1,0.2,1.3,0.5c0.3,0.4,0.5,0.9,0.5,1.5V218z M338.8,210.1c0,0.5-0.2,0.9-0.4,1.1s-0.5,0.4-0.9,0.4c-0.2,0-0.3,0-0.5-0.1    c-0.2-0.1-0.3-0.2-0.4-0.3c-0.2-0.1-0.3-0.2-0.4-0.3s-0.2-0.1-0.3-0.1c-0.2,0-0.3,0.1-0.4,0.2s-0.1,0.3-0.1,0.6h-0.6    c0-0.5,0.2-0.9,0.4-1.1s0.5-0.4,0.8-0.4c0.2,0,0.3,0,0.5,0.1s0.3,0.2,0.4,0.3c0.2,0.1,0.3,0.2,0.4,0.3c0.1,0.1,0.2,0.1,0.3,0.1    c0.2,0,0.3-0.1,0.4-0.2s0.1-0.3,0.2-0.6H338.8z"/>
		<path d="M345,218h-0.9v-0.6c-0.1,0.1-0.2,0.1-0.3,0.2c-0.1,0.1-0.3,0.2-0.4,0.2c-0.2,0.1-0.3,0.1-0.5,0.2    c-0.2,0.1-0.4,0.1-0.7,0.1c-0.5,0-0.9-0.2-1.3-0.5c-0.3-0.3-0.5-0.7-0.5-1.2c0-0.4,0.1-0.7,0.3-1s0.4-0.5,0.8-0.6    c0.3-0.1,0.7-0.2,1.2-0.3s1-0.1,1.5-0.1v-0.1c0-0.2,0-0.4-0.1-0.5s-0.2-0.2-0.3-0.3c-0.1-0.1-0.3-0.1-0.5-0.2c-0.2,0-0.4,0-0.6,0    c-0.2,0-0.5,0-0.8,0.1c-0.3,0.1-0.6,0.2-0.9,0.3h0v-0.9c0.2,0,0.4-0.1,0.8-0.2s0.7-0.1,1-0.1c0.4,0,0.7,0,1,0.1s0.5,0.2,0.7,0.3    c0.2,0.1,0.4,0.3,0.5,0.6s0.2,0.5,0.2,0.9V218z M344.1,216.6v-1.5c-0.3,0-0.6,0-1,0.1c-0.4,0-0.7,0.1-0.9,0.1    c-0.3,0.1-0.5,0.2-0.6,0.3s-0.2,0.4-0.2,0.7c0,0.3,0.1,0.5,0.3,0.7c0.2,0.2,0.5,0.2,0.9,0.2c0.3,0,0.6-0.1,0.9-0.2    C343.6,217,343.9,216.8,344.1,216.6z"/>
	</g>
</g>
<g id="llegenda">
	<line style="fill:none;stroke:#9A9A9A;stroke-width:2;stroke-miterlimit:10;" x1="-163.6" y1="172.9" x2="-163.6" y2="202.4"/>
	<line style="fill:none;stroke:#9A9A9A;stroke-miterlimit:10;" x1="-130.2" y1="172.9" x2="-130.2" y2="202.4"/>
	<g>
		<path d="M-155.9,183.3h0.9v7.1h-0.9V183.3z"/>
		<path d="M-152.6,184.2c0,0.3-0.2,0.5-0.6,0.5c-0.3,0-0.5-0.2-0.5-0.5s0.2-0.5,0.5-0.5C-152.8,183.6-152.6,183.9-152.6,184.2z     M-153.5,190.4v-4.8h0.9v4.8H-153.5z"/>
		<path d="M-151.2,186.9c0-0.5,0-0.9,0-1.3h0.8l0,0.8h0c0.2-0.4,0.8-0.9,1.6-0.9c0.7,0,1.7,0.4,1.7,2.1v2.9h-0.9v-2.8    c0-0.8-0.3-1.4-1.1-1.4c-0.6,0-1,0.4-1.2,0.9c0,0.1-0.1,0.3-0.1,0.4v2.9h-0.9V186.9z"/>
	</g>
	<line style="fill:none;stroke:#696969;stroke-width:2;stroke-miterlimit:10;" x1="-163.6" y1="212.5" x2="-163.6" y2="242"/>
	<g>
		<path d="M-155.9,222.9h0.9v7.1h-0.9V222.9z"/>
		<path d="M-152.6,223.8c0,0.3-0.2,0.5-0.6,0.5c-0.3,0-0.5-0.2-0.5-0.5s0.2-0.5,0.5-0.5C-152.8,223.2-152.6,223.5-152.6,223.8z     M-153.5,230v-4.8h0.9v4.8H-153.5z"/>
		<path d="M-151.2,226.5c0-0.5,0-0.9,0-1.3h0.8l0,0.8h0c0.2-0.5,0.8-0.9,1.6-0.9c0.7,0,1.7,0.4,1.7,2.1v2.9h-0.9v-2.8    c0-0.8-0.3-1.4-1.1-1.4c-0.6,0-1,0.4-1.2,0.9c0,0.1-0.1,0.3-0.1,0.4v2.9h-0.9V226.5z"/>
	</g>
	<rect x="-169" y="148.3" style="fill:#BFBFBF;" width="16.3" height="15.3"/>
	<rect x="-169" y="120.6" style="fill:#DCE9FB;" width="16.3" height="15.3"/>
	<rect x="-200.4" y="120.6" style="fill:#D0E0A4;" width="16.3" height="15.3"/>
	<g>
		<path d="M-143.5,157.6v-4.2h-0.7v-0.7h0.7v-0.2c0-0.7,0.2-1.3,0.6-1.7c0.3-0.3,0.8-0.4,1.2-0.4c0.3,0,0.6,0.1,0.7,0.1l-0.1,0.7    c-0.1-0.1-0.3-0.1-0.6-0.1c-0.7,0-0.9,0.6-0.9,1.4v0.3h1.2v0.7h-1.2v4.2H-143.5z"/>
		<path d="M-136.4,155.2c0,1.8-1.2,2.6-2.4,2.6c-1.3,0-2.3-1-2.3-2.5c0-1.6,1.1-2.6,2.4-2.6C-137.3,152.7-136.4,153.7-136.4,155.2z     M-140.2,155.2c0,1.1,0.6,1.9,1.5,1.9c0.8,0,1.5-0.8,1.5-1.9c0-0.8-0.4-1.8-1.4-1.8C-139.8,153.4-140.2,154.3-140.2,155.2z"/>
		<path d="M-135.3,154.1c0-0.5,0-0.9,0-1.3h0.8l0,0.8h0c0.2-0.4,0.8-0.9,1.6-0.9c0.7,0,1.7,0.4,1.7,2.1v2.9h-0.9v-2.8    c0-0.8-0.3-1.4-1.1-1.4c-0.6,0-1,0.4-1.2,0.9c0,0.1-0.1,0.3-0.1,0.4v2.9h-0.9V154.1z"/>
		<path d="M-129.8,156.8c0.3,0.2,0.7,0.3,1.2,0.3c0.6,0,0.9-0.3,0.9-0.7c0-0.4-0.3-0.6-0.9-0.9c-0.9-0.3-1.3-0.8-1.3-1.4    c0-0.8,0.6-1.4,1.7-1.4c0.5,0,0.9,0.1,1.2,0.3l-0.2,0.6c-0.2-0.1-0.5-0.3-1-0.3c-0.5,0-0.8,0.3-0.8,0.7c0,0.4,0.3,0.6,0.9,0.8    c0.8,0.3,1.3,0.7,1.3,1.4c0,0.9-0.7,1.5-1.8,1.5c-0.5,0-1-0.1-1.4-0.3L-129.8,156.8z"/>
	</g>
	<g>
		<path d="M-143.5,126.8c0-0.5,0-0.9,0-1.3h0.8l0,0.8h0c0.3-0.5,0.7-0.9,1.5-0.9c0.6,0,1.1,0.4,1.4,1h0c0.1-0.3,0.4-0.5,0.5-0.6    c0.3-0.2,0.6-0.3,1.1-0.3c0.6,0,1.6,0.4,1.6,2.1v2.8h-0.9v-2.7c0-0.9-0.3-1.5-1-1.5c-0.5,0-0.9,0.4-1,0.8c0,0.1-0.1,0.3-0.1,0.4v3    h-0.9v-2.9c0-0.8-0.3-1.3-1-1.3c-0.5,0-0.9,0.4-1.1,0.9c-0.1,0.1-0.1,0.3-0.1,0.4v2.9h-0.9V126.8z"/>
		<path d="M-131.8,129.2c0,0.4,0,0.8,0.1,1.2h-0.8l-0.1-0.6h0c-0.3,0.4-0.8,0.7-1.5,0.7c-1,0-1.5-0.7-1.5-1.4c0-1.2,1-1.8,2.9-1.8    v-0.1c0-0.4-0.1-1.1-1.1-1.1c-0.5,0-0.9,0.1-1.3,0.4l-0.2-0.6c0.4-0.3,1-0.4,1.6-0.4c1.5,0,1.8,1,1.8,2V129.2z M-132.7,127.8    c-1,0-2,0.1-2,1.1c0,0.6,0.4,0.8,0.8,0.8c0.6,0,1-0.4,1.2-0.8c0-0.1,0-0.2,0-0.3V127.8z"/>
		<path d="M-130.4,127c0-0.6,0-1.1,0-1.5h0.8l0,1h0c0.2-0.6,0.8-1.1,1.3-1.1c0.1,0,0.2,0,0.2,0v0.8c-0.1,0-0.2,0-0.3,0    c-0.6,0-1.1,0.5-1.2,1.1c0,0.1,0,0.3,0,0.4v2.6h-0.9V127z"/>
	</g>
	<circle style="fill-rule:evenodd;clip-rule:evenodd;fill:#5B7EBD;" cx="-163.6" cy="257.1" r="2.4"/>
	
		<rect x="-244.4" y="148.3" style="fill:#BFBFBF;stroke:#696969;stroke-width:2;stroke-miterlimit:10;" width="16.3" height="15.3"/>
	
		<rect x="-218.2" y="148.3" style="fill:#FFFBF0;stroke:#9A9A9A;stroke-width:2;stroke-miterlimit:10;" width="16.3" height="15.3"/>
	<rect x="-227.5" y="178.9" style="opacity:0.6;fill:#FFFBF0;" width="51" height="17.5"/>
</g>
</svg>