<svg xmlns="http://www.w3.org/2000/svg" xmlns:xlink="http://www.w3.org/1999/xlink" version="1.1" x="0px" y="0px" width="450px" height="450px" viewBox="0 0 450 450" style="enable-background:new 0 0 450 450;" xml:space="preserve"> <g id="Color_fons"> 	<a> 		<path style="fill:#BFBFBF;stroke:#696969;stroke-width:2;stroke-miterlimit:10;" d="M355-19.1c16,0.3,123.9-2.8,124.1,6.3    c1.1,48.9,2.2,97.9,3.3,146.8c2.5,113.3,5.1,226.6,7.6,339.9c-9.2,0-52.5,4.2-54-3.8c-2.4-13.4-3.8-21.6-19.9-27.1    c-13.6-4.6-68.1-16-60.2-37.3c-3.6-0.6-19.1-11.8-17.9-20.3c2.5-18.3,29.6-6.3,35.3-25c6.9-22.9,14.7-72.4,44.7-79.7    c-12.4-13.3-33.4-38.2-21.8-72.8c2.1-6.4,9.4-53.2,5.2-58c-9.5-10.8-25.5-9.3-27.2-18.8c-1.4-7.7-15.7-13.4-21-10.6    c8-26.8-26.8-30.4-28.8-45.1c13.3-5.2,30.5-22.4,24.8-29.6c-3.5-4.4-7.1-10.2-4.8-16.6C346.1,24.4,361.5-7.1,355-19.1L355-19.1z"/> 	</a> 	<a> 		<path style="fill:#BFBFBF;stroke:#696969;stroke-width:2;stroke-miterlimit:10;" d="M157.4,47.6c5-0.8,11.3,1.3,16.3,1.9    c-3.8,18.9-28.3,80.4-16.2,91.2c-19.2-15.1-24.5,12.9-26.9,26.5c10.4,0.3,9.8,3.9,17.9,9.1c-9,5.7-14.1,11.9-23.3,21.4    c-3.3-4.8-10.5-7.6-12.4-9.6c-5.1,9.5,2.8,4.4-7.8,9.1c2.6,12.2,11.4,19.9,14.7,31c2.5,8.2-1.2,17.5,3,27.5    c4.4,10.5,36.8,32,13.4,40.3c7.1,3.7,19.2,15.3,17.4,28.1c-1.1,8.3-20.9,14.9-19.5,16.9c5.6,7.5,26.2,12.8,34.2,11.6    c0.4,1.8,7.7,9.7,9.1,14.1c-8.4-0.5-16.4,0.5-18.7,3c-10.3,11.4-3.5,23.1,6.1,23.7c1.1,0.1-6.4,22.7-9.3,33.7    c-4.1,15.6-10.7,34.3-10.7,47c-42.7-1.7-83.2-3.5-125.9-5.2c-35-1.4-45.1,8.5-44.3-25.6c2.3-103.8,4.7-207.7,7-311.5    c1-43.3,1.9-86.5,2.9-129.8C-14.7-34.8,2-21.4,38.5-20.6c22.9,0.5,96.8,1.8,73.8,1.3c-3.8-0.1,1.9,36,5.3,44.2    C125.2,42.8,141.5,45.6,157.4,47.6L157.4,47.6z"/> 	</a> 	<a> 		<path style="fill-rule:evenodd;clip-rule:evenodd;fill:#BFBFBF;stroke:#696969;stroke-width:2;stroke-miterlimit:10;" d="    M177.4,366.7c-1-3.2-14.8-17.2-9.9-24.4c3.9-5.8,19.1-8.7,26.2-8.3c3.1,8.3,8.4,14.8,15.9,19.2    C202.5,362.5,190.6,369.3,177.4,366.7L177.4,366.7z"/> 	</a> 	<a> 		<path style="fill-rule:evenodd;clip-rule:evenodd;fill:#BFBFBF;stroke:#696969;stroke-width:2;stroke-miterlimit:10;" d="    M436.2,474c-96.3,0-192.5,0-288.8,0c-12.4,0,20.2-80.4,16.7-80.7c-24.3-1.8-8.8-46,16.3-20.3c-1.4,3-2.8,6.1-4.2,9.1    c23.4,4.9,31.1,19.7,57.2,20.3c18,0.4,25.8,15.1,35.5,21.5c3.1,2.1,10.9-12.9,12-29.2c1.6-23.1-6-12.8-15.9-28.1    c-5.9-9.2-1.3-19.1-7-23.5c-3.4-2.6-9.8,0.9-14.7-3.1c-0.8-0.6-20.5-23.4-21.6-27.6c-1-3.7,9-9.5,7.2-16.5    c-7.4-28.5,5.9-22.5,16.7-22.8c19.1-0.6,25.6-27.3,5.8-35.8c12.4-12.2,23.9-3.9,26.7-14.2c1.3-4.9,3-12.3,8.3-16.4    c5.4-4.2,23.2-3.6,26-9.7c2.5-5.3-22.1-25.4,17.4-37.6c-0.8-3.3,13.4-36.3,23.4-38.5c16.8-3.7,23.5,14.2,25.7,17.7    c2.2,2.1,21.7,3.9,24.3,15.1c0.3,1.4-6.1,50.8-7.6,57.1c-8.2,33.9,4.4,50.8,22.5,70.3c-30.6,7.4-36.9,53.2-43.4,75.2    c-6.9,23.6-30.3,13.3-36.2,26c-4.6,10,13.9,23.2,17.4,23.8c-4.1,18,24.9,25.3,42.5,30.3C417.4,441.7,435,435,436.2,474L436.2,474z    "/> 	</a> 	<a> 		<path style="fill:#BFBFBF;stroke:#696969;stroke-width:2;stroke-miterlimit:10;" d="M324.4,75.7c-23.9,0.5-17.5-24.1-41.2-27.4    c9.9-9.4-10.7-26.8-13.7-20.4c-4.7,10-30.8,16.3-44.3,28.4c-9.3-23-44.5-7.3-51.4-6.8c-56.8,4.7-62.8-30.9-62.8-68.5    c77.5,0,155,0,232.6,0c28.1,0,5.8,35.2,0.9,48.6c-4.6,12.7,10.6,16.6,6.5,25.4C348.9,58.8,331.1,75.8,324.4,75.7L324.4,75.7z"/> 	</a> </g> <g id="Limit_municipis"> 	<a> 		<path style="fill-rule:evenodd;clip-rule:evenodd;fill:#FFFBF0;stroke:#9A9A9A;stroke-width:2;stroke-miterlimit:10;" d="    M173.7,49.4c23.9-7.6,56.4-16.1,51.1,20.7c-30.1-8.2-28.1,54.7-28.1,54.7c-7.3,4.6-31.5,10-25.9,18.3c12.2,18-6.9,23.6-19.7,38.3    c-1.2,1.4,6.2,21.9,6.2,23.3c-0.1,1.8-23.3,29.5-36.6,41.1c1.6-15.3-11.9-31.1-15.6-48.5c10.6-4.7,2.7,0.4,7.8-9.1    c1.9,2,9.2,4.7,12.4,9.6c9.2-9.6,14.2-15.7,23.3-21.4c-8.1-5.1-7.5-8.8-17.9-9.1c2.4-13.7,7.7-41.6,26.9-26.5    C145.4,129.9,169.9,68.3,173.7,49.4L173.7,49.4z"/> 	</a> 	<a> 		<path style="fill-rule:evenodd;clip-rule:evenodd;fill:#FFFBF0;stroke:#9A9A9A;stroke-width:2;stroke-miterlimit:10;" d="    M324.3,75.7c2.9,21.2,44.8,14.5,25.4,48.3c-6.4,11.2-22,28.2-19.8,37.1c-11.9-0.3-28.9,15.4-19.4,28.1    c10.7,14.3-19.1,13.4-24.3,17.5c-9,7-5.9,26.7-19.6,24c-9.7-1.9-8.1,7.7-17.8,7.1c-3.2-0.2-14.8-4.6-16.4-4.9    c-19.7-3.9-48.8-1.2-70.1-14.2c-9.4-5.8-13-36.4-13-36.4c0.7-3.3,35.2-25.7,23.1-37c-10.7-10,23.2-18.8,24.2-20.4    c0,0-1.8-64.7,28.1-54.7c-6.3-18.8,24.1-28.2,37.3-34.5c5.6-2.7,5.1-12.4,13.9-8c8.8,4.4,12.3,9.7,7,20.7    C306.8,51.5,300.5,76.2,324.3,75.7L324.3,75.7z"/> 	</a> 	<a> 		<path style="fill-rule:evenodd;clip-rule:evenodd;fill:#FFFBF0;stroke:#9A9A9A;stroke-width:2;stroke-miterlimit:10;" d="    M251.3,237.2c18.9,6.6,15.6,34.2-3.8,35c-39.4,1.6-8.1,16.4-23.2,36.4c-5.3,7,12.9,26.1,18.9,31.3c5.2,4.6,10.6-2.3,15.8,4.9    c2.4,3.3,3.1,18.5,5.9,21.7c4.7,5.5,20.6,11.6,17,22.5c-1.1,3.4-6,44.1-16.2,32.9c-5.1-5.6-18.9-16.8-26-17    c-29.9-0.6-37.5-17.4-63.7-22.9c1.4-3,2.8-6.1,4.2-9.1c-3.6-2.1-10.5-6.9-10.5-6.9c16.2-0.9,29.7,0.6,39.7-13    c-7.5-4.4-12.8-10.8-15.9-19.2c-11.8-0.6-13.8,0.3-26.2,8.3c-7.1,4.6,8.2,11.4-7.1,11.6c-7.7,0.1-15.2-4.8-22.1-8.2    c-13.6-6.6,9.9-11.6,13-18.4c5.4-11.7-4.7-25.9-15.1-31.3c25.6-9-10.3-26.7-13.9-37.3c-5.9-17.5,0.3-13.3,7.8-22.1    c7.2-8.5,16-17.7,25.1-28.9C173,237.7,222.4,225.8,251.3,237.2L251.3,237.2z"/> 	</a> </g> <g id="Municipis"> 	<g> 		<path d="M164.8,114.4l-2.6,7.3h-1.3l-2.6-7.3h1l2.3,6.4l2.3-6.4H164.8z"/> 		<path d="M166.8,115.3h-1v-1h1V115.3z M166.7,121.6h-0.9v-5.5h0.9V121.6z"/> 		<path d="M169.5,121.6h-0.9V114h0.9V121.6z"/> 		<path d="M175.5,121.6h-0.9v-0.6c-0.1,0.1-0.2,0.1-0.3,0.2c-0.1,0.1-0.3,0.2-0.4,0.2c-0.2,0.1-0.3,0.1-0.5,0.2    c-0.2,0.1-0.4,0.1-0.7,0.1c-0.5,0-0.9-0.2-1.3-0.5s-0.5-0.7-0.5-1.2c0-0.4,0.1-0.7,0.3-1c0.2-0.3,0.4-0.5,0.8-0.6    c0.3-0.1,0.7-0.2,1.2-0.3c0.5-0.1,1-0.1,1.5-0.1v-0.1c0-0.2,0-0.4-0.1-0.5s-0.2-0.2-0.3-0.3c-0.1-0.1-0.3-0.1-0.5-0.2    c-0.2,0-0.4,0-0.6,0c-0.2,0-0.5,0-0.8,0.1c-0.3,0.1-0.6,0.2-0.9,0.3h0v-0.9c0.2,0,0.4-0.1,0.8-0.2c0.3-0.1,0.7-0.1,1-0.1    c0.4,0,0.7,0,1,0.1c0.3,0.1,0.5,0.2,0.7,0.3c0.2,0.1,0.4,0.3,0.5,0.6s0.2,0.5,0.2,0.9V121.6z M174.6,120.3v-1.5    c-0.3,0-0.6,0-1,0.1c-0.4,0-0.7,0.1-0.9,0.1c-0.3,0.1-0.5,0.2-0.6,0.3c-0.2,0.2-0.2,0.4-0.2,0.7c0,0.3,0.1,0.5,0.3,0.7    c0.2,0.2,0.5,0.2,0.9,0.2c0.3,0,0.6-0.1,0.9-0.2C174.1,120.6,174.4,120.5,174.6,120.3z"/> 		<path d="M178.2,121.6h-0.9V114h0.9V121.6z"/> 		<path d="M181,121.6H180V114h0.9V121.6z"/> 		<path d="M187.3,119h-4c0,0.3,0.1,0.6,0.2,0.9s0.2,0.5,0.4,0.6c0.2,0.2,0.4,0.3,0.6,0.4s0.5,0.1,0.8,0.1c0.4,0,0.7-0.1,1.1-0.2    s0.6-0.3,0.8-0.4h0v1c-0.3,0.1-0.6,0.2-0.9,0.3s-0.7,0.1-1,0.1c-0.9,0-1.6-0.2-2.1-0.7s-0.8-1.2-0.8-2.1c0-0.9,0.2-1.6,0.7-2.1    s1.1-0.8,1.9-0.8c0.7,0,1.3,0.2,1.7,0.6s0.6,1,0.6,1.8V119z M186.4,118.3c0-0.5-0.1-0.9-0.4-1.1s-0.6-0.4-1.1-0.4    c-0.5,0-0.9,0.1-1.2,0.4s-0.5,0.6-0.5,1.1H186.4z"/> 		<path d="M192.1,117.2L192.1,117.2c-0.2,0-0.3-0.1-0.4-0.1s-0.3,0-0.5,0c-0.3,0-0.6,0.1-0.8,0.2s-0.5,0.3-0.8,0.5v3.9h-0.9v-5.5    h0.9v0.8c0.4-0.3,0.7-0.5,1-0.6s0.6-0.2,0.9-0.2c0.2,0,0.3,0,0.3,0c0.1,0,0.2,0,0.3,0V117.2z"/> 	</g> 	<g> 		<path d="M226.4,142.2h-0.9v-7.6h0.9V142.2z"/> 		<path d="M232.4,142.2h-0.9v-0.6c-0.1,0.1-0.2,0.1-0.3,0.2c-0.1,0.1-0.3,0.2-0.4,0.2c-0.2,0.1-0.3,0.1-0.5,0.2s-0.4,0.1-0.7,0.1    c-0.5,0-0.9-0.2-1.3-0.5s-0.5-0.7-0.5-1.2c0-0.4,0.1-0.7,0.3-1c0.2-0.3,0.4-0.5,0.8-0.6c0.3-0.1,0.7-0.2,1.2-0.3s1-0.1,1.5-0.1    v-0.1c0-0.2,0-0.4-0.1-0.5s-0.2-0.2-0.3-0.3c-0.1-0.1-0.3-0.1-0.5-0.2s-0.4,0-0.6,0c-0.2,0-0.5,0-0.8,0.1s-0.6,0.2-0.9,0.3h0v-0.9    c0.2,0,0.4-0.1,0.8-0.2s0.7-0.1,1-0.1c0.4,0,0.7,0,1,0.1c0.3,0.1,0.5,0.2,0.7,0.3c0.2,0.1,0.4,0.3,0.5,0.6s0.2,0.5,0.2,0.9V142.2z     M231.5,140.9v-1.5c-0.3,0-0.6,0-1,0.1c-0.4,0-0.7,0.1-0.9,0.1c-0.3,0.1-0.5,0.2-0.6,0.3s-0.2,0.4-0.2,0.7c0,0.3,0.1,0.5,0.3,0.7    s0.5,0.2,0.9,0.2c0.3,0,0.6-0.1,0.9-0.2S231.3,141.1,231.5,140.9z"/> 		<path d="M243.5,135l-2.6,7.3h-1.3l-2.6-7.3h1l2.3,6.4l2.3-6.4H243.5z"/> 		<path d="M248.3,142.2h-0.9v-0.6c-0.1,0.1-0.2,0.1-0.3,0.2c-0.1,0.1-0.3,0.2-0.4,0.2c-0.2,0.1-0.3,0.1-0.5,0.2s-0.4,0.1-0.7,0.1    c-0.5,0-0.9-0.2-1.3-0.5s-0.5-0.7-0.5-1.2c0-0.4,0.1-0.7,0.3-1c0.2-0.3,0.4-0.5,0.8-0.6c0.3-0.1,0.7-0.2,1.2-0.3s1-0.1,1.5-0.1    v-0.1c0-0.2,0-0.4-0.1-0.5s-0.2-0.2-0.3-0.3c-0.1-0.1-0.3-0.1-0.5-0.2s-0.4,0-0.6,0c-0.2,0-0.5,0-0.8,0.1s-0.6,0.2-0.9,0.3h0v-0.9    c0.2,0,0.4-0.1,0.8-0.2s0.7-0.1,1-0.1c0.4,0,0.7,0,1,0.1c0.3,0.1,0.5,0.2,0.7,0.3c0.2,0.1,0.4,0.3,0.5,0.6s0.2,0.5,0.2,0.9V142.2z     M247.4,140.9v-1.5c-0.3,0-0.6,0-1,0.1c-0.4,0-0.7,0.1-0.9,0.1c-0.3,0.1-0.5,0.2-0.6,0.3s-0.2,0.4-0.2,0.7c0,0.3,0.1,0.5,0.3,0.7    s0.5,0.2,0.9,0.2c0.3,0,0.6-0.1,0.9-0.2S247.1,141.1,247.4,140.9z"/> 		<path d="M251,142.2h-0.9v-7.6h0.9V142.2z"/> 		<path d="M253.7,142.2h-0.9v-7.6h0.9V142.2z"/> 		<path d="M263.5,142.2h-0.9v-0.6c-0.3,0.2-0.5,0.4-0.8,0.5c-0.3,0.1-0.6,0.2-0.9,0.2c-0.7,0-1.2-0.3-1.5-0.8    c-0.4-0.5-0.6-1.2-0.6-2.1c0-0.5,0.1-0.9,0.2-1.2s0.3-0.7,0.5-0.9c0.2-0.2,0.5-0.4,0.8-0.6s0.6-0.2,0.9-0.2c0.3,0,0.5,0,0.8,0.1    c0.2,0.1,0.5,0.2,0.7,0.3v-2.4h0.9V142.2z M262.6,140.9v-3.1c-0.2-0.1-0.5-0.2-0.7-0.2s-0.4-0.1-0.6-0.1c-0.5,0-0.9,0.2-1.2,0.5    c-0.3,0.4-0.4,0.9-0.4,1.5c0,0.6,0.1,1.1,0.3,1.5c0.2,0.3,0.6,0.5,1.1,0.5c0.3,0,0.5-0.1,0.8-0.2    C262.1,141.2,262.3,141.1,262.6,140.9z"/> 		<path d="M269.8,139.6h-4c0,0.3,0.1,0.6,0.2,0.9s0.2,0.5,0.4,0.6c0.2,0.2,0.4,0.3,0.6,0.4c0.2,0.1,0.5,0.1,0.8,0.1    c0.4,0,0.7-0.1,1.1-0.2s0.6-0.3,0.8-0.4h0v1c-0.3,0.1-0.6,0.2-0.9,0.3s-0.7,0.1-1,0.1c-0.9,0-1.6-0.2-2.1-0.7s-0.8-1.2-0.8-2.1    c0-0.9,0.2-1.6,0.7-2.1c0.5-0.5,1.1-0.8,1.9-0.8c0.7,0,1.3,0.2,1.7,0.6c0.4,0.4,0.6,1,0.6,1.8V139.6z M268.9,138.9    c0-0.5-0.1-0.9-0.4-1.1s-0.6-0.4-1.1-0.4c-0.5,0-0.9,0.1-1.2,0.4c-0.3,0.3-0.5,0.6-0.5,1.1H268.9z"/> 		<path d="M280.3,140c0,0.4-0.1,0.7-0.2,1s-0.3,0.5-0.6,0.7c-0.3,0.2-0.6,0.4-0.9,0.5s-0.7,0.1-1.2,0.1h-2.6V135h2.2    c0.5,0,0.9,0,1.2,0.1s0.5,0.1,0.8,0.2c0.3,0.1,0.5,0.3,0.6,0.5c0.1,0.2,0.2,0.5,0.2,0.8c0,0.3-0.1,0.6-0.3,0.9s-0.4,0.4-0.7,0.6v0    c0.5,0.1,0.9,0.3,1.2,0.6S280.3,139.5,280.3,140z M278.7,136.7c0-0.2,0-0.3-0.1-0.4s-0.2-0.2-0.3-0.3c-0.2-0.1-0.3-0.1-0.6-0.2    c-0.2,0-0.5,0-0.8,0h-1.2v2.1h1.3c0.3,0,0.5,0,0.7,0c0.2,0,0.3-0.1,0.5-0.2c0.2-0.1,0.3-0.2,0.3-0.4S278.7,136.9,278.7,136.7z     M279.3,140c0-0.3,0-0.5-0.1-0.7s-0.2-0.3-0.5-0.4c-0.2-0.1-0.3-0.1-0.6-0.2s-0.5,0-0.8,0h-1.5v2.7h1.3c0.4,0,0.8,0,1-0.1    c0.3,0,0.5-0.1,0.7-0.2c0.2-0.1,0.3-0.3,0.4-0.4C279.3,140.5,279.3,140.3,279.3,140z"/> 		<path d="M286.3,139.5c0,0.9-0.2,1.6-0.7,2.1s-1.1,0.8-1.8,0.8c-0.8,0-1.4-0.3-1.8-0.8s-0.7-1.2-0.7-2.1s0.2-1.6,0.7-2.1    s1.1-0.8,1.8-0.8c0.8,0,1.4,0.3,1.8,0.8S286.3,138.6,286.3,139.5z M285.3,139.5c0-0.7-0.1-1.2-0.4-1.6s-0.7-0.5-1.2-0.5    c-0.5,0-0.9,0.2-1.2,0.5c-0.3,0.3-0.4,0.9-0.4,1.6c0,0.7,0.1,1.2,0.4,1.6s0.7,0.5,1.2,0.5c0.5,0,0.9-0.2,1.2-0.5    S285.3,140.2,285.3,139.5z"/> 		<path d="M289.6,134.1l-1.3,1.8h-0.7l0.9-1.8H289.6z M288.6,142.2h-0.9v-5.5h0.9V142.2z"/> 	</g> 	<g> 		<path d="M157.1,261.3h-4c0,0.3,0.1,0.6,0.2,0.9s0.2,0.5,0.4,0.6c0.2,0.2,0.4,0.3,0.6,0.4s0.5,0.1,0.8,0.1c0.4,0,0.7-0.1,1.1-0.2    c0.4-0.1,0.6-0.3,0.8-0.4h0v1c-0.3,0.1-0.6,0.2-0.9,0.3s-0.7,0.1-1,0.1c-0.9,0-1.6-0.2-2.1-0.7c-0.5-0.5-0.8-1.2-0.8-2.1    c0-0.9,0.2-1.6,0.7-2.1s1.1-0.8,1.9-0.8c0.7,0,1.3,0.2,1.7,0.6s0.6,1,0.6,1.8V261.3z M156.2,260.6c0-0.5-0.1-0.9-0.4-1.1    s-0.6-0.4-1.1-0.4c-0.5,0-0.9,0.1-1.2,0.4s-0.5,0.6-0.5,1.1H156.2z"/> 		<path d="M159.4,263.9h-0.9v-7.6h0.9V263.9z"/> 		<path d="M169.6,258.9c0,0.3-0.1,0.6-0.2,0.9c-0.1,0.3-0.3,0.5-0.5,0.7c-0.3,0.3-0.5,0.4-0.9,0.6c-0.3,0.1-0.8,0.2-1.3,0.2h-1v2.7    h-1v-7.3h2c0.4,0,0.8,0,1.1,0.1s0.6,0.2,0.8,0.3c0.3,0.2,0.5,0.4,0.6,0.7S169.6,258.4,169.6,258.9z M168.6,258.9    c0-0.3,0-0.5-0.1-0.7s-0.2-0.3-0.4-0.5c-0.2-0.1-0.3-0.2-0.5-0.2s-0.5-0.1-0.8-0.1h-1v2.9h0.8c0.4,0,0.7,0,1-0.1    c0.2-0.1,0.4-0.2,0.6-0.3c0.2-0.2,0.3-0.3,0.3-0.5S168.6,259.1,168.6,258.9z"/> 		<path d="M175.2,261.2c0,0.9-0.2,1.6-0.7,2.1c-0.5,0.5-1.1,0.8-1.8,0.8c-0.8,0-1.4-0.3-1.8-0.8s-0.7-1.2-0.7-2.1s0.2-1.6,0.7-2.1    c0.5-0.5,1.1-0.8,1.8-0.8c0.8,0,1.4,0.3,1.8,0.8C175,259.6,175.2,260.3,175.2,261.2z M174.2,261.2c0-0.7-0.1-1.2-0.4-1.6    c-0.3-0.3-0.7-0.5-1.2-0.5c-0.5,0-0.9,0.2-1.2,0.5c-0.3,0.3-0.4,0.9-0.4,1.6c0,0.7,0.1,1.2,0.4,1.6c0.3,0.4,0.7,0.5,1.2,0.5    c0.5,0,0.9-0.2,1.1-0.5C174.1,262.4,174.2,261.9,174.2,261.2z"/> 		<path d="M181.2,263.9h-0.9v-3.1c0-0.3,0-0.5,0-0.7s-0.1-0.4-0.2-0.5c-0.1-0.1-0.2-0.2-0.4-0.3c-0.2-0.1-0.4-0.1-0.6-0.1    c-0.3,0-0.5,0.1-0.8,0.2s-0.5,0.3-0.8,0.5v4.1h-0.9v-5.5h0.9v0.6c0.3-0.2,0.6-0.4,0.9-0.6c0.3-0.1,0.6-0.2,0.9-0.2    c0.6,0,1,0.2,1.3,0.5c0.3,0.4,0.5,0.9,0.5,1.5V263.9z"/> 		<path d="M185.8,263.9c-0.2,0-0.4,0.1-0.6,0.1c-0.2,0-0.4,0-0.5,0c-0.6,0-1-0.1-1.3-0.4c-0.3-0.3-0.4-0.8-0.4-1.4v-2.9h-0.6v-0.8    h0.6v-1.6h0.9v1.6h1.9v0.8h-1.9v2.5c0,0.3,0,0.5,0,0.7c0,0.2,0.1,0.3,0.1,0.5c0.1,0.1,0.2,0.2,0.3,0.3c0.1,0.1,0.3,0.1,0.6,0.1    c0.1,0,0.3,0,0.5-0.1c0.2,0,0.3-0.1,0.4-0.1h0V263.9z"/> 		<path d="M194.8,263.9h-0.9v-0.6c-0.3,0.2-0.5,0.4-0.8,0.5c-0.3,0.1-0.6,0.2-0.9,0.2c-0.7,0-1.2-0.3-1.6-0.8    c-0.4-0.5-0.6-1.2-0.6-2.1c0-0.5,0.1-0.9,0.2-1.2s0.3-0.7,0.5-0.9c0.2-0.2,0.5-0.4,0.8-0.6c0.3-0.1,0.6-0.2,0.9-0.2    c0.3,0,0.5,0,0.8,0.1c0.2,0.1,0.5,0.2,0.7,0.3v-2.4h0.9V263.9z M193.9,262.6v-3.1c-0.2-0.1-0.5-0.2-0.7-0.2s-0.4-0.1-0.6-0.1    c-0.5,0-0.9,0.2-1.2,0.5c-0.3,0.4-0.4,0.9-0.4,1.5c0,0.6,0.1,1.1,0.3,1.5c0.2,0.3,0.6,0.5,1.1,0.5c0.3,0,0.5-0.1,0.8-0.2    C193.4,262.9,193.7,262.8,193.9,262.6z"/> 		<path d="M201.2,261.3h-4c0,0.3,0.1,0.6,0.2,0.9c0.1,0.2,0.2,0.5,0.4,0.6c0.2,0.2,0.4,0.3,0.6,0.4c0.2,0.1,0.5,0.1,0.8,0.1    c0.4,0,0.7-0.1,1.1-0.2c0.4-0.1,0.6-0.3,0.8-0.4h0v1c-0.3,0.1-0.6,0.2-0.9,0.3s-0.7,0.1-1,0.1c-0.9,0-1.6-0.2-2.1-0.7    c-0.5-0.5-0.8-1.2-0.8-2.1c0-0.9,0.2-1.6,0.7-2.1c0.5-0.5,1.1-0.8,1.9-0.8c0.7,0,1.3,0.2,1.7,0.6c0.4,0.4,0.6,1,0.6,1.8V261.3z     M200.3,260.6c0-0.5-0.1-0.9-0.4-1.1s-0.6-0.4-1.1-0.4c-0.5,0-0.9,0.1-1.2,0.4c-0.3,0.3-0.5,0.6-0.5,1.1H200.3z"/> 		<path d="M211.5,261.9c0,0.3-0.1,0.6-0.2,0.8s-0.3,0.5-0.6,0.7c-0.3,0.2-0.6,0.4-0.9,0.5s-0.8,0.2-1.3,0.2c-0.5,0-1,0-1.4-0.1    c-0.4-0.1-0.8-0.2-1.3-0.4v-1.2h0.1c0.4,0.3,0.8,0.5,1.3,0.7c0.5,0.2,0.9,0.2,1.4,0.2c0.6,0,1.1-0.1,1.4-0.3    c0.3-0.2,0.5-0.5,0.5-0.9c0-0.3-0.1-0.6-0.2-0.7c-0.2-0.2-0.4-0.3-0.7-0.4c-0.2-0.1-0.5-0.1-0.8-0.2c-0.3,0-0.6-0.1-0.9-0.2    c-0.6-0.1-1.1-0.4-1.4-0.7c-0.3-0.3-0.5-0.8-0.5-1.3c0-0.6,0.3-1.1,0.8-1.5c0.5-0.4,1.2-0.6,2-0.6c0.5,0,1,0,1.4,0.1    c0.4,0.1,0.8,0.2,1.1,0.4v1.1h-0.1c-0.3-0.2-0.6-0.4-1.1-0.6c-0.5-0.2-0.9-0.2-1.4-0.2c-0.5,0-0.9,0.1-1.2,0.3    c-0.3,0.2-0.5,0.5-0.5,0.8c0,0.3,0.1,0.5,0.2,0.7s0.4,0.3,0.8,0.4c0.2,0,0.5,0.1,0.9,0.2c0.4,0.1,0.7,0.1,1,0.2    c0.5,0.1,0.9,0.4,1.2,0.6S211.5,261.3,211.5,261.9z"/> 		<path d="M217.5,263.9h-0.9v-0.6c-0.3,0.2-0.6,0.4-0.9,0.6s-0.6,0.2-0.9,0.2c-0.6,0-1-0.2-1.3-0.5c-0.3-0.4-0.5-0.9-0.5-1.5v-3.5    h0.9v3.1c0,0.3,0,0.5,0,0.7c0,0.2,0.1,0.4,0.2,0.5c0.1,0.1,0.2,0.2,0.3,0.3s0.3,0.1,0.6,0.1c0.2,0,0.5-0.1,0.8-0.2    s0.5-0.3,0.8-0.5v-4.1h0.9V263.9z"/> 		<path d="M223.8,261.3h-4c0,0.3,0.1,0.6,0.2,0.9c0.1,0.2,0.2,0.5,0.4,0.6c0.2,0.2,0.4,0.3,0.6,0.4c0.2,0.1,0.5,0.1,0.8,0.1    c0.4,0,0.7-0.1,1.1-0.2c0.4-0.1,0.6-0.3,0.8-0.4h0v1c-0.3,0.1-0.6,0.2-0.9,0.3s-0.7,0.1-1,0.1c-0.9,0-1.6-0.2-2.1-0.7    c-0.5-0.5-0.8-1.2-0.8-2.1c0-0.9,0.2-1.6,0.7-2.1c0.5-0.5,1.1-0.8,1.9-0.8c0.7,0,1.3,0.2,1.7,0.6c0.4,0.4,0.6,1,0.6,1.8V261.3z     M223,260.6c0-0.5-0.1-0.9-0.4-1.1s-0.6-0.4-1.1-0.4c-0.5,0-0.9,0.1-1.2,0.4c-0.3,0.3-0.5,0.6-0.5,1.1H223z"/> 		<path d="M228.6,259.5L228.6,259.5c-0.2,0-0.3-0.1-0.4-0.1s-0.3,0-0.5,0c-0.3,0-0.6,0.1-0.8,0.2c-0.3,0.1-0.5,0.3-0.8,0.5v3.9h-0.9    v-5.5h0.9v0.8c0.4-0.3,0.7-0.5,1-0.6s0.6-0.2,0.9-0.2c0.2,0,0.3,0,0.3,0c0.1,0,0.2,0,0.3,0V259.5z"/> 		<path d="M232.3,263.9c-0.2,0-0.4,0.1-0.6,0.1c-0.2,0-0.4,0-0.5,0c-0.6,0-1-0.1-1.3-0.4s-0.4-0.8-0.4-1.4v-2.9h-0.6v-0.8h0.6v-1.6    h0.9v1.6h1.9v0.8h-1.9v2.5c0,0.3,0,0.5,0,0.7s0.1,0.3,0.1,0.5c0.1,0.1,0.2,0.2,0.3,0.3c0.1,0.1,0.3,0.1,0.6,0.1    c0.1,0,0.3,0,0.5-0.1s0.3-0.1,0.4-0.1h0V263.9z"/> 	</g> </g> <g id="Text_x005F_exterior"> 	<g> 		<path d="M205.9,17.8l-2.7,7.3h-2.1l-2.7-7.3h2l1.8,5.1l1.8-5.1H205.9z"/> 		<path d="M210.2,24.5c-0.1,0.1-0.2,0.2-0.4,0.3c-0.1,0.1-0.3,0.2-0.4,0.2c-0.2,0.1-0.4,0.1-0.5,0.2s-0.4,0.1-0.6,0.1    c-0.5,0-1-0.2-1.3-0.5s-0.5-0.7-0.5-1.2c0-0.4,0.1-0.7,0.3-1c0.2-0.3,0.4-0.5,0.8-0.6c0.3-0.1,0.7-0.3,1.2-0.3    c0.5-0.1,1-0.1,1.5-0.1v0c0-0.3-0.1-0.5-0.4-0.6c-0.2-0.1-0.6-0.2-1.1-0.2c-0.3,0-0.6,0.1-0.9,0.2c-0.3,0.1-0.6,0.2-0.7,0.2h-0.2    v-1.3c0.2,0,0.5-0.1,0.9-0.2c0.4-0.1,0.8-0.1,1.3-0.1c1,0,1.7,0.2,2.2,0.5s0.7,0.8,0.7,1.4v3.7h-1.7V24.5z M210.2,23.6v-1.1    c-0.2,0-0.5,0-0.8,0.1c-0.3,0-0.5,0.1-0.6,0.1c-0.2,0.1-0.3,0.1-0.4,0.2s-0.1,0.2-0.1,0.4c0,0.1,0,0.2,0,0.3s0.1,0.1,0.1,0.2    c0.1,0.1,0.2,0.1,0.3,0.1c0.1,0,0.3,0,0.5,0c0.2,0,0.4,0,0.5-0.1S210,23.8,210.2,23.6z"/> 		<path d="M215.3,25.1h-1.8v-7.6h1.8V25.1z"/> 		<path d="M225.7,25.1h-1.8v-0.6c-0.3,0.2-0.6,0.4-0.8,0.5c-0.3,0.1-0.6,0.2-0.9,0.2c-0.7,0-1.2-0.3-1.6-0.8s-0.6-1.2-0.6-2.1    c0-0.5,0.1-0.9,0.2-1.2c0.1-0.4,0.3-0.7,0.6-0.9c0.2-0.2,0.5-0.4,0.8-0.6c0.3-0.1,0.6-0.2,0.9-0.2c0.3,0,0.6,0,0.8,0.1    c0.2,0.1,0.4,0.2,0.6,0.3v-2.3h1.8V25.1z M223.9,23.6v-2.7c-0.1-0.1-0.3-0.1-0.4-0.1c-0.1,0-0.3,0-0.4,0c-0.5,0-0.8,0.1-1,0.4    c-0.2,0.3-0.3,0.7-0.3,1.2c0,0.5,0.1,0.9,0.3,1.2s0.5,0.4,0.9,0.4c0.2,0,0.3,0,0.5-0.1C223.7,23.7,223.8,23.7,223.9,23.6z"/> 		<path d="M229,17.5l-0.3,2.9h-1.1l-0.3-2.9H229z"/> 		<path d="M237.5,25.1h-1.9l-0.5-1.5h-2.7l-0.5,1.5H230l2.7-7.3h2.2L237.5,25.1z M234.6,22.3l-0.9-2.6l-0.9,2.6H234.6z"/> 		<path d="M242.4,21.3h-0.2c-0.1,0-0.2,0-0.4-0.1c-0.2,0-0.3,0-0.4,0c-0.3,0-0.5,0-0.7,0c-0.2,0-0.4,0.1-0.6,0.2v3.7h-1.8v-5.5h1.8    v0.8c0.4-0.3,0.7-0.6,1-0.7c0.3-0.1,0.5-0.2,0.8-0.2c0.1,0,0.1,0,0.2,0c0.1,0,0.1,0,0.2,0V21.3z"/> 		<path d="M246.7,24.5c-0.1,0.1-0.2,0.2-0.4,0.3c-0.1,0.1-0.3,0.2-0.4,0.2c-0.2,0.1-0.4,0.1-0.5,0.2s-0.4,0.1-0.6,0.1    c-0.5,0-1-0.2-1.3-0.5S243,24,243,23.5c0-0.4,0.1-0.7,0.3-1c0.2-0.3,0.4-0.5,0.8-0.6c0.3-0.1,0.7-0.3,1.2-0.3    c0.5-0.1,1-0.1,1.5-0.1v0c0-0.3-0.1-0.5-0.4-0.6c-0.2-0.1-0.6-0.2-1.1-0.2c-0.3,0-0.6,0.1-0.9,0.2c-0.3,0.1-0.6,0.2-0.7,0.2h-0.2    v-1.3c0.2,0,0.5-0.1,0.9-0.2c0.4-0.1,0.8-0.1,1.3-0.1c1,0,1.7,0.2,2.2,0.5s0.7,0.8,0.7,1.4v3.7h-1.7V24.5z M246.7,23.6v-1.1    c-0.2,0-0.5,0-0.8,0.1c-0.3,0-0.5,0.1-0.6,0.1c-0.2,0.1-0.3,0.1-0.4,0.2s-0.1,0.2-0.1,0.4c0,0.1,0,0.2,0,0.3s0.1,0.1,0.1,0.2    c0.1,0.1,0.2,0.1,0.3,0.1c0.1,0,0.3,0,0.5,0c0.2,0,0.4,0,0.5-0.1S246.6,23.8,246.7,23.6z"/> 		<path d="M255.6,25.1h-1.8v-2.7c0-0.2,0-0.4,0-0.7c0-0.2-0.1-0.4-0.1-0.5c-0.1-0.1-0.2-0.2-0.3-0.3s-0.3-0.1-0.5-0.1    c-0.2,0-0.3,0-0.5,0.1s-0.3,0.1-0.5,0.2v3.9h-1.8v-5.5h1.8v0.6c0.3-0.2,0.6-0.4,0.9-0.6c0.3-0.1,0.6-0.2,1-0.2    c0.6,0,1.1,0.2,1.4,0.5c0.3,0.3,0.5,0.9,0.5,1.5V25.1z"/> 	</g> 	<g> 		<path d="M366.4,86.1c0,0.3-0.1,0.6-0.2,1c-0.1,0.3-0.3,0.6-0.5,0.8c-0.3,0.3-0.6,0.5-1,0.6s-0.8,0.2-1.3,0.2h-1.2v2.4h-1.9v-7.3    h3.1c0.5,0,0.9,0,1.2,0.1c0.3,0.1,0.6,0.2,0.8,0.4c0.3,0.2,0.5,0.4,0.7,0.7C366.3,85.3,366.4,85.7,366.4,86.1z M364.5,86.1    c0-0.2-0.1-0.4-0.2-0.5s-0.2-0.3-0.4-0.3c-0.2-0.1-0.4-0.1-0.6-0.1c-0.2,0-0.4,0-0.7,0h-0.3v2.2h0.5c0.3,0,0.6,0,0.8-0.1    c0.2,0,0.4-0.1,0.5-0.2c0.1-0.1,0.2-0.2,0.3-0.4S364.5,86.3,364.5,86.1z"/> 		<path d="M371,90.5c-0.1,0.1-0.2,0.2-0.4,0.3s-0.3,0.2-0.4,0.2c-0.2,0.1-0.4,0.1-0.5,0.2s-0.4,0.1-0.6,0.1c-0.5,0-1-0.2-1.3-0.5    s-0.5-0.7-0.5-1.2c0-0.4,0.1-0.7,0.3-1s0.4-0.5,0.8-0.6c0.3-0.1,0.7-0.3,1.2-0.3s1-0.1,1.5-0.1v0c0-0.3-0.1-0.5-0.4-0.6    c-0.2-0.1-0.6-0.2-1.1-0.2c-0.3,0-0.6,0.1-0.9,0.2S368,87,367.9,87h-0.2v-1.3c0.2,0,0.5-0.1,0.9-0.2c0.4-0.1,0.8-0.1,1.3-0.1    c1,0,1.7,0.2,2.2,0.5s0.7,0.8,0.7,1.4v3.7H371V90.5z M371,89.6v-1.1c-0.2,0-0.5,0-0.8,0.1c-0.3,0-0.5,0.1-0.6,0.1    c-0.2,0.1-0.3,0.1-0.4,0.2s-0.1,0.2-0.1,0.4c0,0.1,0,0.2,0,0.3s0.1,0.1,0.1,0.2c0.1,0.1,0.2,0.1,0.3,0.1c0.1,0,0.3,0,0.5,0    c0.2,0,0.4,0,0.5-0.1S370.8,89.8,371,89.6z"/> 		<path d="M376.1,91.1h-1.8v-7.6h1.8V91.1z"/> 		<path d="M379.5,91.1h-1.8v-7.6h1.8V91.1z"/> 		<path d="M384.5,90.5c-0.1,0.1-0.2,0.2-0.4,0.3c-0.1,0.1-0.3,0.2-0.4,0.2c-0.2,0.1-0.4,0.1-0.5,0.2s-0.4,0.1-0.6,0.1    c-0.5,0-1-0.2-1.3-0.5s-0.5-0.7-0.5-1.2c0-0.4,0.1-0.7,0.3-1c0.2-0.3,0.4-0.5,0.8-0.6c0.3-0.1,0.7-0.3,1.2-0.3    c0.5-0.1,1-0.1,1.5-0.1v0c0-0.3-0.1-0.5-0.4-0.6c-0.2-0.1-0.6-0.2-1.1-0.2c-0.3,0-0.6,0.1-0.9,0.2c-0.3,0.1-0.6,0.2-0.7,0.2h-0.2    v-1.3c0.2,0,0.5-0.1,0.9-0.2c0.4-0.1,0.8-0.1,1.3-0.1c1,0,1.7,0.2,2.2,0.5s0.7,0.8,0.7,1.4v3.7h-1.7V90.5z M384.5,89.6v-1.1    c-0.2,0-0.5,0-0.8,0.1c-0.3,0-0.5,0.1-0.6,0.1c-0.2,0.1-0.3,0.1-0.4,0.2s-0.1,0.2-0.1,0.4c0,0.1,0,0.2,0,0.3s0.1,0.1,0.1,0.2    c0.1,0.1,0.2,0.1,0.3,0.1c0.1,0,0.3,0,0.5,0c0.2,0,0.4,0,0.5-0.1S384.3,89.8,384.5,89.6z"/> 		<path d="M391.8,87.3h-0.2c-0.1,0-0.2,0-0.4-0.1c-0.2,0-0.3,0-0.4,0c-0.3,0-0.5,0-0.7,0s-0.4,0.1-0.6,0.2v3.7h-1.8v-5.5h1.8v0.8    c0.4-0.3,0.7-0.6,1-0.7c0.3-0.1,0.5-0.2,0.8-0.2c0.1,0,0.1,0,0.2,0s0.1,0,0.2,0V87.3z"/> 		<path d="M397.6,89.3c0,0.6-0.3,1-0.8,1.4s-1.2,0.5-2.1,0.5c-0.5,0-0.9,0-1.3-0.1c-0.4-0.1-0.7-0.2-1-0.3v-1.4h0.2    c0.1,0.1,0.2,0.1,0.3,0.2c0.1,0.1,0.3,0.2,0.5,0.2c0.2,0.1,0.4,0.1,0.6,0.2c0.2,0.1,0.5,0.1,0.7,0.1c0.3,0,0.6,0,0.8-0.1    c0.2-0.1,0.2-0.2,0.2-0.3c0-0.1,0-0.2-0.1-0.3c-0.1-0.1-0.3-0.1-0.6-0.2c-0.1,0-0.3-0.1-0.5-0.1c-0.2,0-0.4-0.1-0.6-0.1    c-0.5-0.1-0.9-0.3-1.1-0.6c-0.2-0.3-0.4-0.6-0.4-1c0-0.5,0.3-1,0.7-1.3c0.5-0.3,1.2-0.5,2-0.5c0.4,0,0.8,0,1.2,0.1    s0.7,0.2,0.9,0.3v1.4h-0.2c-0.3-0.2-0.6-0.3-0.9-0.4c-0.3-0.1-0.7-0.2-1-0.2c-0.3,0-0.5,0-0.7,0.1c-0.2,0.1-0.3,0.2-0.3,0.3    c0,0.1,0,0.2,0.1,0.3s0.3,0.1,0.6,0.2c0.2,0,0.4,0.1,0.6,0.1c0.2,0,0.4,0.1,0.6,0.1c0.5,0.1,0.8,0.3,1,0.6    C397.5,88.6,397.6,88.9,397.6,89.3z"/> 		<path d="M408.1,88.8c0,0.7-0.3,1.3-0.9,1.7c-0.6,0.4-1.4,0.7-2.5,0.7c-0.6,0-1.1-0.1-1.6-0.2c-0.4-0.1-0.9-0.2-1.3-0.4v-1.7h0.2    c0.4,0.3,0.8,0.5,1.3,0.7c0.5,0.2,0.9,0.2,1.4,0.2c0.1,0,0.3,0,0.4,0s0.3-0.1,0.5-0.1c0.1-0.1,0.3-0.1,0.4-0.2s0.1-0.2,0.1-0.4    c0-0.2-0.1-0.3-0.2-0.4c-0.1-0.1-0.3-0.2-0.6-0.3c-0.3-0.1-0.6-0.1-0.9-0.2c-0.3-0.1-0.6-0.1-0.9-0.2c-0.6-0.2-1.1-0.5-1.3-0.8    c-0.3-0.3-0.4-0.8-0.4-1.3c0-0.7,0.3-1.2,0.9-1.7c0.6-0.4,1.4-0.6,2.3-0.6c0.5,0,1,0,1.4,0.1c0.5,0.1,0.9,0.2,1.2,0.3v1.7h-0.2    c-0.3-0.2-0.7-0.4-1.1-0.6c-0.4-0.2-0.9-0.2-1.3-0.2c-0.2,0-0.3,0-0.5,0c-0.2,0-0.3,0.1-0.4,0.1c-0.1,0-0.2,0.1-0.3,0.2    c-0.1,0.1-0.1,0.2-0.1,0.3c0,0.2,0.1,0.3,0.2,0.4s0.4,0.2,0.8,0.3c0.3,0.1,0.5,0.1,0.8,0.2c0.2,0.1,0.5,0.1,0.8,0.2    c0.6,0.2,1,0.4,1.2,0.7C408,87.9,408.1,88.3,408.1,88.8z"/> 		<path d="M414.9,88.3c0,0.9-0.3,1.6-0.8,2.1c-0.5,0.5-1.3,0.8-2.2,0.8c-1,0-1.7-0.3-2.2-0.8c-0.5-0.5-0.8-1.2-0.8-2.1    c0-0.9,0.3-1.6,0.8-2.1s1.3-0.8,2.2-0.8c1,0,1.7,0.3,2.2,0.8S414.9,87.4,414.9,88.3z M412.7,89.7c0.1-0.1,0.2-0.3,0.3-0.5    c0.1-0.2,0.1-0.5,0.1-0.8c0-0.3,0-0.6-0.1-0.8s-0.1-0.4-0.2-0.5c-0.1-0.1-0.2-0.2-0.4-0.3s-0.3-0.1-0.5-0.1c-0.2,0-0.3,0-0.5,0.1    s-0.3,0.1-0.4,0.3c-0.1,0.1-0.2,0.3-0.3,0.5s-0.1,0.5-0.1,0.8c0,0.3,0,0.6,0.1,0.8c0.1,0.2,0.1,0.4,0.2,0.5    c0.1,0.1,0.2,0.2,0.4,0.3s0.3,0.1,0.5,0.1c0.2,0,0.3,0,0.5-0.1S412.6,89.8,412.7,89.7z"/> 		<path d="M421.9,88.3c0,0.9-0.2,1.6-0.7,2.1s-1.1,0.8-1.8,0.8c-0.3,0-0.6,0-0.8-0.1c-0.2-0.1-0.5-0.2-0.7-0.3l-0.1,0.3h-1.7v-7.6    h1.8v2.7c0.3-0.2,0.5-0.4,0.8-0.5s0.6-0.2,1-0.2c0.7,0,1.2,0.3,1.6,0.7C421.7,86.7,421.9,87.4,421.9,88.3z M420,88.3    c0-0.5-0.1-0.9-0.2-1.1s-0.5-0.4-0.9-0.4c-0.2,0-0.3,0-0.5,0.1c-0.2,0.1-0.3,0.1-0.5,0.2v2.7c0.1,0,0.2,0.1,0.4,0.1    c0.1,0,0.3,0,0.4,0c0.5,0,0.8-0.1,1-0.4C419.9,89.2,420,88.8,420,88.3z"/> 		<path d="M424.9,84.8h-1.9v-1.3h1.9V84.8z M424.9,91.1h-1.8v-5.5h1.8V91.1z"/> 		<path d="M430.5,87.3h-0.2c-0.1,0-0.2,0-0.4-0.1c-0.2,0-0.3,0-0.4,0c-0.3,0-0.5,0-0.7,0s-0.4,0.1-0.6,0.2v3.7h-1.8v-5.5h1.8v0.8    c0.4-0.3,0.7-0.6,1-0.7c0.3-0.1,0.5-0.2,0.8-0.2c0.1,0,0.1,0,0.2,0s0.1,0,0.2,0V87.3z"/> 		<path d="M434.8,90.5c-0.1,0.1-0.2,0.2-0.4,0.3c-0.1,0.1-0.3,0.2-0.4,0.2c-0.2,0.1-0.4,0.1-0.5,0.2s-0.4,0.1-0.6,0.1    c-0.5,0-1-0.2-1.3-0.5s-0.5-0.7-0.5-1.2c0-0.4,0.1-0.7,0.3-1c0.2-0.3,0.4-0.5,0.8-0.6c0.3-0.1,0.7-0.3,1.2-0.3    c0.5-0.1,1-0.1,1.5-0.1v0c0-0.3-0.1-0.5-0.4-0.6c-0.2-0.1-0.6-0.2-1.1-0.2c-0.3,0-0.6,0.1-0.9,0.2c-0.3,0.1-0.6,0.2-0.7,0.2h-0.2    v-1.3c0.2,0,0.5-0.1,0.9-0.2c0.4-0.1,0.8-0.1,1.3-0.1c1,0,1.7,0.2,2.2,0.5s0.7,0.8,0.7,1.4v3.7h-1.7V90.5z M435.2,84.8H434    l-1.7-1.8v-0.1h1.7L435.2,84.8z M434.8,89.6v-1.1c-0.2,0-0.5,0-0.8,0.1c-0.3,0-0.5,0.1-0.6,0.1c-0.2,0.1-0.3,0.1-0.4,0.2    s-0.1,0.2-0.1,0.4c0,0.1,0,0.2,0,0.3s0.1,0.1,0.1,0.2c0.1,0.1,0.2,0.1,0.3,0.1c0.1,0,0.3,0,0.5,0c0.2,0,0.4,0,0.5-0.1    S434.7,89.8,434.8,89.6z"/> 	</g> 	<g> 		<path d="M289.7,304.1c0,0.3-0.1,0.6-0.2,1c-0.1,0.3-0.3,0.6-0.5,0.8c-0.3,0.3-0.6,0.5-1,0.6s-0.8,0.2-1.3,0.2h-1.2v2.4h-1.9v-7.3    h3.1c0.5,0,0.9,0,1.2,0.1c0.3,0.1,0.6,0.2,0.8,0.4c0.3,0.2,0.5,0.4,0.7,0.7C289.6,303.3,289.7,303.7,289.7,304.1z M287.7,304.1    c0-0.2-0.1-0.4-0.2-0.5c-0.1-0.1-0.2-0.3-0.4-0.3c-0.2-0.1-0.4-0.1-0.6-0.1c-0.2,0-0.4,0-0.7,0h-0.3v2.2h0.5c0.3,0,0.6,0,0.8-0.1    c0.2,0,0.4-0.1,0.5-0.2c0.1-0.1,0.2-0.2,0.3-0.4S287.7,304.3,287.7,304.1z"/> 		<path d="M294.2,308.5c-0.1,0.1-0.2,0.2-0.4,0.3s-0.3,0.2-0.4,0.2c-0.2,0.1-0.4,0.1-0.5,0.2c-0.2,0-0.4,0.1-0.6,0.1    c-0.5,0-1-0.2-1.3-0.5s-0.5-0.7-0.5-1.2c0-0.4,0.1-0.7,0.3-1s0.4-0.5,0.8-0.6c0.3-0.1,0.7-0.3,1.2-0.3s1-0.1,1.5-0.1v0    c0-0.3-0.1-0.5-0.4-0.6c-0.2-0.1-0.6-0.2-1.1-0.2c-0.3,0-0.6,0.1-0.9,0.2s-0.6,0.2-0.7,0.2H291v-1.3c0.2,0,0.5-0.1,0.9-0.2    c0.4-0.1,0.8-0.1,1.3-0.1c1,0,1.7,0.2,2.2,0.5s0.7,0.8,0.7,1.4v3.7h-1.7V308.5z M294.2,307.6v-1.1c-0.2,0-0.5,0-0.8,0.1    s-0.5,0.1-0.6,0.1c-0.2,0.1-0.3,0.1-0.4,0.2s-0.1,0.2-0.1,0.4c0,0.1,0,0.2,0,0.3c0,0.1,0.1,0.1,0.1,0.2c0.1,0.1,0.2,0.1,0.3,0.1    c0.1,0,0.3,0,0.5,0c0.2,0,0.4,0,0.5-0.1C293.9,307.8,294.1,307.8,294.2,307.6z"/> 		<path d="M299.3,309.1h-1.8v-7.6h1.8V309.1z"/> 		<path d="M302.8,309.1H301v-7.6h1.8V309.1z"/> 		<path d="M307.7,308.5c-0.1,0.1-0.2,0.2-0.4,0.3c-0.1,0.1-0.3,0.2-0.4,0.2c-0.2,0.1-0.4,0.1-0.5,0.2c-0.2,0-0.4,0.1-0.6,0.1    c-0.5,0-1-0.2-1.3-0.5s-0.5-0.7-0.5-1.2c0-0.4,0.1-0.7,0.3-1c0.2-0.3,0.4-0.5,0.8-0.6c0.3-0.1,0.7-0.3,1.2-0.3    c0.5-0.1,1-0.1,1.5-0.1v0c0-0.3-0.1-0.5-0.4-0.6c-0.2-0.1-0.6-0.2-1.1-0.2c-0.3,0-0.6,0.1-0.9,0.2c-0.3,0.1-0.6,0.2-0.7,0.2h-0.2    v-1.3c0.2,0,0.5-0.1,0.9-0.2c0.4-0.1,0.8-0.1,1.3-0.1c1,0,1.7,0.2,2.2,0.5s0.7,0.8,0.7,1.4v3.7h-1.7V308.5z M307.7,307.6v-1.1    c-0.2,0-0.5,0-0.8,0.1c-0.3,0-0.5,0.1-0.6,0.1c-0.2,0.1-0.3,0.1-0.4,0.2s-0.1,0.2-0.1,0.4c0,0.1,0,0.2,0,0.3    c0,0.1,0.1,0.1,0.1,0.2c0.1,0.1,0.2,0.1,0.3,0.1c0.1,0,0.3,0,0.5,0c0.2,0,0.4,0,0.5-0.1C307.4,307.8,307.6,307.8,307.7,307.6z"/> 		<path d="M315.1,305.3h-0.2c-0.1,0-0.2,0-0.4-0.1c-0.2,0-0.3,0-0.4,0c-0.3,0-0.5,0-0.7,0s-0.4,0.1-0.6,0.2v3.7h-1.8v-5.5h1.8v0.8    c0.4-0.3,0.7-0.6,1-0.7c0.3-0.1,0.5-0.2,0.8-0.2c0.1,0,0.1,0,0.2,0s0.1,0,0.2,0V305.3z"/> 		<path d="M320.8,307.3c0,0.6-0.3,1-0.8,1.4s-1.2,0.5-2.1,0.5c-0.5,0-0.9,0-1.3-0.1c-0.4-0.1-0.7-0.2-1-0.3v-1.4h0.2    c0.1,0.1,0.2,0.1,0.3,0.2c0.1,0.1,0.3,0.2,0.5,0.2c0.2,0.1,0.4,0.1,0.6,0.2c0.2,0.1,0.5,0.1,0.7,0.1c0.3,0,0.6,0,0.8-0.1    c0.2-0.1,0.2-0.2,0.2-0.3c0-0.1,0-0.2-0.1-0.3c-0.1-0.1-0.3-0.1-0.6-0.2c-0.1,0-0.3-0.1-0.5-0.1c-0.2,0-0.4-0.1-0.6-0.1    c-0.5-0.1-0.9-0.3-1.1-0.6c-0.2-0.3-0.4-0.6-0.4-1c0-0.5,0.3-1,0.7-1.3c0.5-0.4,1.2-0.5,2-0.5c0.4,0,0.8,0,1.2,0.1    s0.7,0.2,0.9,0.3v1.4h-0.2c-0.3-0.2-0.6-0.3-0.9-0.4c-0.3-0.1-0.7-0.2-1-0.2c-0.3,0-0.5,0-0.7,0.1c-0.2,0.1-0.3,0.2-0.3,0.3    c0,0.1,0,0.2,0.1,0.3s0.3,0.1,0.6,0.2c0.2,0,0.4,0.1,0.6,0.1c0.2,0,0.4,0.1,0.6,0.1c0.5,0.1,0.8,0.3,1,0.6    C320.7,306.6,320.8,306.9,320.8,307.3z"/> 		<path d="M329.3,306.9c0,0.3-0.1,0.6-0.2,0.9s-0.3,0.5-0.5,0.7c-0.2,0.2-0.5,0.4-0.9,0.5s-0.8,0.2-1.2,0.2c-0.3,0-0.7,0-0.9,0    s-0.6-0.1-0.8-0.1v-1.5h0.2c0.2,0.1,0.3,0.1,0.5,0.2c0.2,0,0.4,0.1,0.6,0.1c0.3,0,0.6,0,0.8-0.1c0.2-0.1,0.3-0.2,0.4-0.4    c0.1-0.2,0.1-0.3,0.1-0.5c0-0.2,0-0.4,0-0.7v-2.9h-1.7v-1.3h3.5V306.9z"/> 		<path d="M336.4,309.1h-1.8v-0.6c-0.3,0.2-0.6,0.4-0.9,0.6c-0.3,0.1-0.6,0.2-1,0.2c-0.6,0-1.1-0.2-1.4-0.5    c-0.3-0.3-0.5-0.9-0.5-1.5v-3.6h1.8v2.7c0,0.3,0,0.5,0,0.7c0,0.2,0.1,0.3,0.1,0.5c0.1,0.1,0.2,0.2,0.3,0.3    c0.1,0.1,0.3,0.1,0.5,0.1c0.2,0,0.3,0,0.5-0.1c0.2-0.1,0.4-0.1,0.5-0.2v-3.9h1.8V309.1z"/> 		<path d="M342.8,307.3c0,0.6-0.3,1-0.8,1.4s-1.2,0.5-2.1,0.5c-0.5,0-0.9,0-1.3-0.1c-0.4-0.1-0.7-0.2-1-0.3v-1.4h0.2    c0.1,0.1,0.2,0.1,0.3,0.2c0.1,0.1,0.3,0.2,0.5,0.2c0.2,0.1,0.4,0.1,0.6,0.2c0.2,0.1,0.5,0.1,0.7,0.1c0.3,0,0.6,0,0.8-0.1    c0.2-0.1,0.2-0.2,0.2-0.3c0-0.1,0-0.2-0.1-0.3c-0.1-0.1-0.3-0.1-0.6-0.2c-0.1,0-0.3-0.1-0.5-0.1c-0.2,0-0.4-0.1-0.6-0.1    c-0.5-0.1-0.9-0.3-1.1-0.6c-0.2-0.3-0.4-0.6-0.4-1c0-0.5,0.3-1,0.8-1.3c0.5-0.4,1.2-0.5,2-0.5c0.4,0,0.8,0,1.2,0.1    s0.7,0.2,0.9,0.3v1.4h-0.2c-0.3-0.2-0.6-0.3-0.9-0.4c-0.3-0.1-0.7-0.2-1-0.2c-0.3,0-0.5,0-0.7,0.1c-0.2,0.1-0.3,0.2-0.3,0.3    c0,0.1,0,0.2,0.1,0.3s0.3,0.1,0.6,0.2c0.2,0,0.4,0.1,0.6,0.1c0.2,0,0.4,0.1,0.6,0.1c0.5,0.1,0.8,0.3,1,0.6    C342.7,306.6,342.8,306.9,342.8,307.3z"/> 		<path d="M348.8,307.3c0,0.6-0.3,1-0.8,1.4s-1.2,0.5-2.1,0.5c-0.5,0-0.9,0-1.3-0.1c-0.4-0.1-0.7-0.2-1-0.3v-1.4h0.2    c0.1,0.1,0.2,0.1,0.3,0.2s0.3,0.2,0.5,0.2c0.2,0.1,0.4,0.1,0.6,0.2c0.2,0.1,0.5,0.1,0.7,0.1c0.3,0,0.6,0,0.8-0.1    c0.2-0.1,0.2-0.2,0.2-0.3c0-0.1,0-0.2-0.1-0.3c-0.1-0.1-0.3-0.1-0.6-0.2c-0.1,0-0.3-0.1-0.5-0.1s-0.4-0.1-0.6-0.1    c-0.5-0.1-0.9-0.3-1.1-0.6c-0.2-0.3-0.4-0.6-0.4-1c0-0.5,0.2-1,0.7-1.3c0.5-0.4,1.2-0.5,2-0.5c0.4,0,0.8,0,1.2,0.1    s0.7,0.2,0.9,0.3v1.4h-0.2c-0.3-0.2-0.6-0.3-0.9-0.4s-0.7-0.2-1-0.2c-0.3,0-0.5,0-0.7,0.1s-0.3,0.2-0.3,0.3c0,0.1,0,0.2,0.1,0.3    s0.3,0.1,0.6,0.2c0.2,0,0.4,0.1,0.6,0.1s0.4,0.1,0.6,0.1c0.5,0.1,0.8,0.3,1,0.6C348.7,306.6,348.8,306.9,348.8,307.3z"/> 		<path d="M353.3,308.5c-0.1,0.1-0.2,0.2-0.4,0.3c-0.1,0.1-0.3,0.2-0.4,0.2c-0.2,0.1-0.4,0.1-0.5,0.2c-0.2,0-0.4,0.1-0.6,0.1    c-0.5,0-1-0.2-1.3-0.5s-0.5-0.7-0.5-1.2c0-0.4,0.1-0.7,0.3-1c0.2-0.3,0.4-0.5,0.8-0.6c0.3-0.1,0.7-0.3,1.2-0.3    c0.5-0.1,1-0.1,1.5-0.1v0c0-0.3-0.1-0.5-0.4-0.6c-0.2-0.1-0.6-0.2-1.1-0.2c-0.3,0-0.6,0.1-0.9,0.2c-0.3,0.1-0.6,0.2-0.7,0.2H350    v-1.3c0.2,0,0.5-0.1,0.9-0.2c0.4-0.1,0.8-0.1,1.3-0.1c1,0,1.7,0.2,2.2,0.5s0.7,0.8,0.7,1.4v3.7h-1.7V308.5z M353.7,302.8h-1.2    l-1.7-1.8v-0.1h1.7L353.7,302.8z M353.3,307.6v-1.1c-0.2,0-0.5,0-0.8,0.1c-0.3,0-0.5,0.1-0.6,0.1c-0.2,0.1-0.3,0.1-0.4,0.2    s-0.1,0.2-0.1,0.4c0,0.1,0,0.2,0,0.3c0,0.1,0.1,0.1,0.1,0.2c0.1,0.1,0.2,0.1,0.3,0.1c0.1,0,0.3,0,0.5,0c0.2,0,0.4,0,0.5-0.1    C353,307.8,353.1,307.8,353.3,307.6z"/> 	</g> 	<g> 		<rect x="38.8" y="228.3" style="fill-rule:evenodd;clip-rule:evenodd;fill:none;" width="45.5" height="11"/> 		<path d="M48.6,238.4h-1.9v-3.2H44v3.2h-1.9v-7.3H44v2.7h2.8v-2.7h1.9V238.4z"/> 		<path d="M55.9,238.4h-1.8v-0.6c-0.3,0.2-0.6,0.4-0.9,0.6c-0.3,0.1-0.6,0.2-1,0.2c-0.6,0-1.1-0.2-1.4-0.5s-0.5-0.9-0.5-1.5V233h1.8    v2.7c0,0.3,0,0.5,0,0.7c0,0.2,0.1,0.3,0.1,0.5c0.1,0.1,0.2,0.2,0.3,0.3s0.3,0.1,0.5,0.1c0.1,0,0.3,0,0.5-0.1s0.4-0.1,0.5-0.2V233    h1.8V238.4z"/> 		<path d="M62.9,236h-4c0,0.4,0.2,0.8,0.5,1s0.7,0.3,1.3,0.3c0.4,0,0.7-0.1,1.1-0.2s0.6-0.3,0.8-0.4h0.2v1.4    c-0.4,0.2-0.8,0.3-1.1,0.3s-0.7,0.1-1.2,0.1c-1.1,0-1.9-0.2-2.5-0.7s-0.9-1.2-0.9-2.1c0-0.9,0.3-1.6,0.8-2.2    c0.6-0.5,1.3-0.8,2.3-0.8c0.9,0,1.6,0.2,2,0.7c0.4,0.5,0.7,1.1,0.7,1.9V236z M61.2,235c0-0.4-0.1-0.6-0.3-0.8s-0.4-0.3-0.8-0.3    c-0.3,0-0.6,0.1-0.8,0.3s-0.3,0.5-0.4,0.8H61.2z"/> 		<path d="M68.9,236.7c0,0.6-0.3,1-0.8,1.4c-0.5,0.3-1.2,0.5-2.1,0.5c-0.5,0-0.9,0-1.3-0.1s-0.7-0.2-1-0.3v-1.4H64    c0.1,0.1,0.2,0.1,0.3,0.2c0.1,0.1,0.3,0.2,0.5,0.2c0.2,0.1,0.4,0.1,0.6,0.2c0.2,0.1,0.5,0.1,0.7,0.1c0.3,0,0.6,0,0.8-0.1    c0.2-0.1,0.2-0.2,0.2-0.3c0-0.1,0-0.2-0.1-0.3c-0.1-0.1-0.3-0.1-0.6-0.2c-0.1,0-0.3-0.1-0.5-0.1c-0.2,0-0.4-0.1-0.6-0.1    c-0.5-0.1-0.9-0.3-1.1-0.6c-0.2-0.3-0.4-0.6-0.4-1c0-0.5,0.3-1,0.7-1.3c0.5-0.4,1.2-0.5,2-0.5c0.4,0,0.8,0,1.2,0.1    c0.4,0.1,0.7,0.2,0.9,0.3v1.4h-0.2c-0.3-0.2-0.6-0.3-0.9-0.4c-0.3-0.1-0.7-0.2-1-0.2c-0.3,0-0.5,0-0.7,0.1s-0.3,0.2-0.3,0.3    c0,0.1,0,0.2,0.1,0.3s0.3,0.1,0.6,0.2c0.2,0,0.4,0.1,0.6,0.1c0.2,0,0.4,0.1,0.6,0.1c0.5,0.1,0.8,0.3,1,0.6    C68.8,236,68.9,236.3,68.9,236.7z"/> 		<path d="M73,238.6c-0.5,0-0.9-0.1-1.3-0.2s-0.7-0.3-1-0.5c-0.3-0.2-0.5-0.5-0.7-0.9s-0.2-0.8-0.2-1.3c0-0.5,0.1-1,0.3-1.3    s0.4-0.7,0.7-0.9c0.3-0.2,0.6-0.4,1-0.5s0.8-0.2,1.2-0.2c0.4,0,0.7,0,1,0.1s0.6,0.2,0.9,0.3v1.5h-0.2c-0.1-0.1-0.2-0.1-0.2-0.2    c-0.1-0.1-0.2-0.2-0.4-0.2c-0.1-0.1-0.3-0.1-0.4-0.2c-0.2,0-0.3-0.1-0.6-0.1c-0.5,0-0.8,0.1-1.1,0.4c-0.3,0.3-0.4,0.7-0.4,1.2    c0,0.5,0.1,0.9,0.4,1.2s0.6,0.4,1.1,0.4c0.2,0,0.4,0,0.6-0.1c0.2-0.1,0.3-0.1,0.4-0.2c0.1-0.1,0.2-0.1,0.3-0.2    c0.1-0.1,0.2-0.1,0.2-0.2h0.2v1.5c-0.3,0.1-0.6,0.2-0.9,0.3C73.7,238.6,73.3,238.6,73,238.6z"/> 		<path d="M79.3,237.9c-0.1,0.1-0.2,0.2-0.4,0.3s-0.3,0.2-0.4,0.2c-0.2,0.1-0.4,0.1-0.5,0.2c-0.2,0-0.4,0.1-0.6,0.1    c-0.5,0-1-0.2-1.3-0.5s-0.5-0.7-0.5-1.2c0-0.4,0.1-0.7,0.3-1s0.4-0.5,0.8-0.6c0.3-0.1,0.7-0.3,1.2-0.3s1-0.1,1.5-0.1v0    c0-0.3-0.1-0.5-0.4-0.6c-0.2-0.1-0.6-0.2-1.1-0.2c-0.3,0-0.6,0.1-0.9,0.2c-0.3,0.1-0.6,0.2-0.7,0.2h-0.2v-1.3    c0.2,0,0.5-0.1,0.9-0.2c0.4-0.1,0.8-0.1,1.3-0.1c1,0,1.7,0.2,2.2,0.5c0.4,0.3,0.7,0.8,0.7,1.4v3.7h-1.7V237.9z M79.3,237v-1.1    c-0.2,0-0.5,0-0.8,0.1s-0.5,0.1-0.6,0.1c-0.2,0.1-0.3,0.1-0.4,0.2s-0.1,0.2-0.1,0.4c0,0.1,0,0.2,0,0.3s0.1,0.1,0.1,0.2    c0.1,0.1,0.2,0.1,0.3,0.1c0.1,0,0.3,0,0.5,0c0.2,0,0.4,0,0.5-0.1C79,237.2,79.2,237.1,79.3,237z"/> 	</g> </g> <g id="llegenda"> 	<line style="fill:none;stroke:#9A9A9A;stroke-width:2;stroke-miterlimit:10;" x1="-146.2" y1="-36.6" x2="-146.2" y2="-7.1"/> 	<g> 		<path d="M-138.4-26.2h0.9v7.1h-0.9V-26.2z"/> 		<path d="M-135.1-25.3c0,0.3-0.2,0.5-0.6,0.5c-0.3,0-0.5-0.2-0.5-0.5s0.2-0.5,0.5-0.5C-135.3-25.8-135.1-25.6-135.1-25.3z     M-136.1-19.1v-4.8h0.9v4.8H-136.1z"/> 		<path d="M-133.8-22.6c0-0.5,0-0.9,0-1.3h0.8l0,0.8h0c0.2-0.4,0.8-0.9,1.6-0.9c0.7,0,1.7,0.4,1.7,2.1v2.9h-0.9v-2.8    c0-0.8-0.3-1.4-1.1-1.4c-0.6,0-1,0.4-1.2,0.9c0,0.1-0.1,0.3-0.1,0.4v2.9h-0.9V-22.6z"/> 	</g> 	<line style="fill:none;stroke:#696969;stroke-width:2;stroke-miterlimit:10;" x1="-146.2" y1="3" x2="-146.2" y2="32.5"/> 	<g> 		<path d="M-138.4,13.4h0.9v7.1h-0.9V13.4z"/> 		<path d="M-135.1,14.3c0,0.3-0.2,0.5-0.6,0.5c-0.3,0-0.5-0.2-0.5-0.5s0.2-0.5,0.5-0.5C-135.3,13.8-135.1,14-135.1,14.3z     M-136.1,20.5v-4.8h0.9v4.8H-136.1z"/> 		<path d="M-133.8,17c0-0.5,0-0.9,0-1.3h0.8l0,0.8h0c0.2-0.4,0.8-0.9,1.6-0.9c0.7,0,1.7,0.4,1.7,2.1v2.9h-0.9v-2.8    c0-0.8-0.3-1.4-1.1-1.4c-0.6,0-1,0.4-1.2,0.9c0,0.1-0.1,0.3-0.1,0.4v2.9h-0.9V17z"/> 	</g> 	<rect x="-151.5" y="-61.1" style="fill:#BFBFBF;" width="16.3" height="15.3"/> 	<rect x="-151.5" y="-88.8" style="fill:#DCE9FB;" width="16.3" height="15.3"/> 	<g> 		<path d="M-126-51.8V-56h-0.7v-0.7h0.7v-0.2c0-0.7,0.2-1.3,0.6-1.7c0.3-0.3,0.8-0.4,1.2-0.4c0.3,0,0.6,0.1,0.7,0.1l-0.1,0.7    c-0.1-0.1-0.3-0.1-0.6-0.1c-0.7,0-0.9,0.6-0.9,1.4v0.3h1.2v0.7h-1.2v4.2H-126z"/> 		<path d="M-118.9-54.3c0,1.8-1.2,2.6-2.4,2.6c-1.3,0-2.3-1-2.3-2.5c0-1.6,1.1-2.6,2.4-2.6C-119.9-56.8-118.9-55.7-118.9-54.3z     M-122.8-54.2c0,1.1,0.6,1.9,1.5,1.9c0.8,0,1.5-0.8,1.5-1.9c0-0.8-0.4-1.8-1.4-1.8C-122.3-56.1-122.8-55.1-122.8-54.2z"/> 		<path d="M-117.8-55.3c0-0.5,0-0.9,0-1.3h0.8l0,0.8h0c0.2-0.4,0.8-0.9,1.6-0.9c0.7,0,1.7,0.4,1.7,2.1v2.9h-0.9v-2.8    c0-0.8-0.3-1.4-1.1-1.4c-0.6,0-1,0.4-1.2,0.9c0,0.1-0.1,0.3-0.1,0.4v2.9h-0.9V-55.3z"/> 		<path d="M-112.4-52.7c0.3,0.2,0.7,0.3,1.2,0.3c0.6,0,0.9-0.3,0.9-0.7c0-0.4-0.3-0.6-0.9-0.9c-0.9-0.3-1.3-0.8-1.3-1.4    c0-0.8,0.6-1.4,1.7-1.4c0.5,0,0.9,0.1,1.2,0.3l-0.2,0.6c-0.2-0.1-0.5-0.3-1-0.3c-0.5,0-0.8,0.3-0.8,0.7c0,0.4,0.3,0.6,0.9,0.8    c0.8,0.3,1.3,0.7,1.3,1.4c0,0.9-0.7,1.5-1.8,1.5c-0.5,0-1-0.1-1.4-0.3L-112.4-52.7z"/> 	</g> 	<g> 		<path d="M-126.1-82.7c0-0.5,0-0.9,0-1.3h0.8l0,0.8h0c0.3-0.5,0.7-0.9,1.5-0.9c0.6,0,1.1,0.4,1.4,1h0c0.1-0.3,0.4-0.5,0.5-0.6    c0.3-0.2,0.6-0.3,1.1-0.3c0.6,0,1.6,0.4,1.6,2.1v2.8h-0.9v-2.7c0-0.9-0.3-1.5-1-1.5c-0.5,0-0.9,0.4-1,0.8c0,0.1-0.1,0.3-0.1,0.4v3    h-0.9V-82c0-0.8-0.3-1.3-1-1.3c-0.5,0-0.9,0.4-1.1,0.9c-0.1,0.1-0.1,0.3-0.1,0.4v2.9h-0.9V-82.7z"/> 		<path d="M-114.4-80.3c0,0.4,0,0.8,0.1,1.2h-0.8l-0.1-0.6h0c-0.3,0.4-0.8,0.7-1.5,0.7c-1,0-1.5-0.7-1.5-1.4c0-1.2,1-1.8,2.9-1.8    v-0.1c0-0.4-0.1-1.1-1.1-1.1c-0.5,0-0.9,0.1-1.3,0.4l-0.2-0.6c0.4-0.3,1-0.4,1.6-0.4c1.5,0,1.8,1,1.8,2V-80.3z M-115.2-81.6    c-1,0-2,0.1-2,1.1c0,0.6,0.4,0.8,0.8,0.8c0.6,0,1-0.4,1.2-0.8c0-0.1,0-0.2,0-0.3V-81.6z"/> 		<path d="M-112.9-82.5c0-0.6,0-1.1,0-1.5h0.8l0,1h0c0.2-0.6,0.8-1.1,1.3-1.1c0.1,0,0.2,0,0.2,0v0.8c-0.1,0-0.2,0-0.3,0    c-0.6,0-1.1,0.5-1.2,1.1c0,0.1,0,0.3,0,0.4v2.6h-0.9V-82.5z"/> 	</g> 	<circle style="fill-rule:evenodd;clip-rule:evenodd;fill:#5B7EBD;" cx="-167.9" cy="-19.1" r="2.4"/> 	<rect x="-176" y="-61.1" style="fill:#BFBFBF;stroke:#696969;stroke-width:2;stroke-miterlimit:10;" width="16.2" height="15.3"/> 	 		<rect x="-200.8" y="-61.1" style="fill:#FFFBF0;stroke:#9A9A9A;stroke-width:2;stroke-miterlimit:10;" width="16.3" height="15.3"/> 	<rect x="-197.9" y="-107.8" style="opacity:0.7;fill:#FFFBF0;" width="92.8" height="9.6"/> </g> </svg>