<svg xmlns="http://www.w3.org/2000/svg" xmlns:xlink="http://www.w3.org/1999/xlink" version="1.1" x="0px" y="0px" width="449.9px" height="449.9px" viewBox="0 0 449.9 449.9" style="enable-background:new 0 0 449.9 449.9;" xml:space="preserve"> <g id="provincies_x5F_joan_x5F_2"> 	<a> 		<path style="fill:#BFBFBF;stroke:#696969;stroke-width:2;stroke-miterlimit:10;" d="M526.2,556.4c10-61.2,8.7-123.6,5.7-185.3    c-1.4-28.2-4.3-48.1-26.7-35.7c-1.7,1,2,7-1.9,10c-3.8,3-13.4,6.5-18,7.1c-14.5,2-19.3-4.9-35.3-0.6c-25,6.8-2.2,25-11.7,40    c-4.8,7.6-15.3,7.2-23.5,6.9c-15.9-0.6-21.5-8.3-18.4-23.3c-30.1,16.7-23.5,30.4-28.8,35.3c-4.7,4.3-19.7,6.7-26.5,8.9    c20.9,10,8.3,25,1.4,39.9c-14.6-16.3-43,9.3-63.7,3.6c4.4,12.7-6.7,17.1-6.5,26.3c0.3,11.1,8.4,22.2,15.3,29.5    c10.4,11,27.5,17.6,23.6,37.4C382.8,556.4,454.5,556.4,526.2,556.4C537.9,484.3,526.2,556.4,526.2,556.4z"/> 	</a> 	<a> 		<path style="fill:#BFBFBF;stroke:#696969;stroke-width:2;stroke-miterlimit:10;" d="M202.1-14.8c-7.6,0.1-32.1-36.9-22.2-46.7    c-70.2,0.1-140.5,0.2-210.7,0.2c0,93.6,0,187.1,0.1,280.7c0,49.5,0,99,0,148.5c0,7.8-3.2,19,7.8,17.6    c10.3-1.3,10.7-12.8,19.2-15.3c4.4-1.3,21.3,4.1,26,5.5c5.6-8.1,16-10.9,20.1-20.5c3.5,6.9,26.6,28.9,32.3,29.4    c9.5,0.8-2.6-10.6-2.3-15.6c0.6-8.7,6.7-30.7,6.7-30.7c-0.5-1.8-1.3-2.1-3.5-4.3c-3-3-8-8.1-12.1-10.1c-5.3-2.7-10.7-2.9-11.9-3.3    c-5-1.6-8.9-1.6-11.5-3.9c-7.8-7-5.9-19.5-7.9-34.6c-0.7-5.2-3-13.7-5.4-22.6c-1-3.6-2.3-7.7-2.6-11.5c-0.5-6,0.5-14.2,3-18.4    c1.5-2.4,4.4-8.2,5-12.6c0.4-2.8-1.2-4.8-0.3-6.1c4.2-6.2,9.9-8.7,13.9-12.6c1.7-1.7,3.4-2.8,3.9-6c1.5-10.2,2.3-21.7,5.2-28    c1.5-3.1,1.3-4.2,3.9-5.4c5.2-2.5,15.7,0.4,28.6,9.6c2.5,1.8,3.1,5.5,2.3,8.6c-2.4,8.5-12.5,19,6.3,18.4    c9.1-0.3,23.8-13,36.9-13.1c-1.1-2.9-0.1-5.7,0.4-8.1c-2.8-0.9-5.7-6.1-8.5-7.6c1.1-3.3-3.1-18.2-8.8-36.9    c-3.2-10.6-7.3-23.2-8-33.8c-0.8-12.2,2.3-23.7,9-30c12.9-12.1,28.5,3.1,26.8-6.1c-0.9-4.7,0.2-7,2.1-9.3c2.2-2.7,5.4-5.3,9.5-7.9    c2.6-1.7,7.9-6.4,9.7-8.3c0.8-0.8,1.4-1.5,1.8-2.4c1.7-3.5,6.1-3.3,9.4-3.4c5.7-0.2,12.2,1.5,15.3-1.7c3.3-3.3-2.4-9.9-0.5-12.8    c6.7-10.8,12.3-8.8,16.8-23C203.9-10.3,204.3-12.5,202.1-14.8L202.1-14.8z"/> 	</a> 	<a> 		<path style="fill:#BFBFBF;stroke:#696969;stroke-width:2;stroke-miterlimit:10;" d="M-30.7,382.7c11.4,8.1,17.3-3.6,24.8-12.7    c4.1-4.9,21.9,3.8,28.1,5.6c5.6-8.1,16-10.9,20.1-20.5c4.6,9,26.4,28.7,32.3,29.4c8,0.9-2.8-12.9-2.3-15.6    c0.9-5.1,4.2-28,6.7-30.7c2.9-3.2,35.8-15.7,41-14.3c5.4,1.4,6.8,16.3,15.8,21.2c5.4,2.9,67.2,32,77.2,50.2    c2.5,4.5,0,11.5,27.2,35.2c9.1,7.9,27.8,21.9,36.1,31.9c10.5,12.7-5.4,23.2-1.5,38.7c1,4.2,19.9,30.7,24.2,29.5    c8.2-2.2,16.3,20.6,12.1,25.8c-3.5,4.4-41.3,0-46.7,0c-70.6,0-141.3,0-211.9,0c-24.1,0-48.2,0-72.3,0c-15.3,0-10.9-3.6-10.9-19.3    C-30.8,485.9-31.9,433-30.7,382.7L-30.7,382.7z"/> 	</a> </g> <g id="Copia_de_comarques_x5F_joan_x5F_2"> 	<a> 		<path style="fill:#BFBFBF;stroke:#696969;stroke-width:2;stroke-miterlimit:10;" d="M526.3,272.2c0.3-37.4-1.4-77.6-1.6-116.1    c-0.1-18.6-5.6-21.2-20.2-32.1c-9.9-7.4,1-11.5-16.5-11.5c-9.6,0-15.7,6.6-16.3,15.3c-13.9-24-38.8-4.6-44.6,14.2    c-5.4,17.6,2.3,29.4,14.3,45.1c-29,12.3-40.6,20.4-44.8,32.7c10.2,8.6,26.6,47.9,27.2,57.5c0,0,19-5.7,21.4,12.7    c11.6-26.3,36.3,2.8,25.7,24.6c10,2,19.2,2.1,25.5-5.7c11-13.6-0.4-20.3,7.7-34.5C516.4,278.8,521.2,265.5,526.3,272.2    L526.3,272.2z"/> 	</a> 	<a> 		<path style="fill:#BFBFBF;stroke:#696969;stroke-width:2;stroke-miterlimit:10;" d="M523.7,138c1.3-11-0.1-29.6,0.3-35.1    c-2,0.3-3.1,1.3-4.7,2.2c-0.6-1.4,0.1-2.3,1.9-2.7c-3.8-0.9-3-0.8-7.4-1.7c0.8-3.8,3.6-0.1-1.9-3.4c2.6-0.7,5.5-0.7,8.5-1.2    c-1.1-0.7-2.2-1.4-3.3-2.1c4.5-0.1,2.2-0.3,6.8,0.9c-1-2.6-2.6-4.4-3.3-6.9c-0.4-0.2,5.8,0.4,4,1.5c0-19.3,4.2-41.2-17.4-48.8    c-9.7-3.4-18.4,3.3-26.8-1.9c7.2-7.3,8.2-15.9,11.2-25.6c-9.1,0-18.5-3.2-22.2-11c-4.1,2.6-2.4,0.1-8.2,1.3    c-12.2-21.4-37.6-1.8-43.1-15.1c-1.3,1.2-2.6,2.3-4,3.5c-9.3-17.3-38.4,7.9-47.3,18.7c-6.8,8.2-7.6,19.5-15,28.9    c-3.8,4.8-19.6,12.6-20,14.1c-1,4,5.5,7.9,9.7,11.3c2.6,2.2,1.7,3.4,4.2,3.6c11.5,1.3,3.5,26.8,5.6,34.4    c11.8,43.5-9.8,11.9-15.7,35.5c-5.5-6.6-8.5-6.6-17.8-5.6c-0.1,20.6,41.2,54.9,41.7,57.3c1.6,7.7-10.1,18-4.7,21.9    c3.9,2.8,4.4,9.5,5.8,12.3c4.1-7.7,30.7-46.5,40-14.6c0.4,1.2,29.4-21.5,40.7-22.7c-12-15.7-19.7-27.5-14.3-45.1    c5.8-18.8,30.7-38.1,44.6-14.2c2.7-14.4,18.5-32.3,30.3-18.9C497.8,120.4,513.9,136.3,523.7,138L523.7,138z"/> 	</a> 	<path style="fill:#BFBFBF;stroke:#696969;stroke-width:2;stroke-miterlimit:10;" d="M523.8-17c-5.5-3.3-10.8-5.5-14.2-10.3   c1,1,10.2,5.4,14.2,8.7c-0.1-12.6,6.9-33.5-10-35c-9.8-0.8-11.6,0.5-7.8-8.5c-31.1,0-62.1,0.1-93.2,0.1c4,11.1-8.7,15.1-10.5,24.1   c-1.1,5.7,4.3,15.1,5.1,23.2c3.6,1.7,2.8,2.7,6.9,6.4c1.3-1.2,2.6-2.3,4-3.5c5.4,13.4,30.9-6.3,43.1,15.1c5.8-1.3,4.1,1.2,8.2-1.3   c3.7,7.8,13.1,11,22.2,11c-7.8-27-4-16.7,12.4-34.9C503.8-6.3,524.2,16.6,523.8-17C523.8-17,523.9-11.3,523.8-17z"/> 	<path style="fill:#BFBFBF;stroke:#696969;stroke-width:2;stroke-miterlimit:10;" d="M509.6-27.3c4,3.6,8.1,8.1,14.2,10.3   C523.8-22.1,510-27.2,509.6-27.3L509.6-27.3z"/> 	<path style="fill:#BFBFBF;stroke:#696969;stroke-width:2;stroke-miterlimit:10;" d="M517.3-53.2c2.1,0.9,4.1,1.8,6.2,2.8   C523.2-69.6,486.4-58.9,517.3-53.2L517.3-53.2z"/> 	<path style="fill:#BFBFBF;stroke:#696969;stroke-width:2;stroke-miterlimit:10;" d="M523.7,139.3   C524.3,137.7,525.4,134.7,523.7,139.3L523.7,139.3z"/> 	<path style="fill:#BFBFBF;stroke:#696969;stroke-width:2;stroke-miterlimit:10;" d="M524.5,54.2c-0.1-18.1-0.3-36.1-0.5-54.2   c-12.9,0.5-20.2-10.1-20-21.8c-4.2,4.7-23.4,12.3-18.8,19.9c8.2,13.5,6.6,29-4.8,40.7C494.9,47.7,507.8,39,524.5,54.2   C524.5,51.3,524.5,54.2,524.5,54.2z"/> 	<path style="fill:#BFBFBF;stroke:#696969;stroke-width:2;stroke-miterlimit:10;" d="M496.1,107.1c-6.1-8.8-9.8-4.6-11.7,5.3   c3.9,0.8,12.9,1.7,16.6,1.2c0.7-1.7,0-3.1,1-4.8C500,108.3,498,107.7,496.1,107.1L496.1,107.1z"/> 	<a> 		<path style="fill:#BFBFBF;stroke:#696969;stroke-width:2;stroke-miterlimit:10;" d="M527.7,293.7c-0.5-9.3-0.4-17.8-2.5-26.5    c-5.3,7.1-12.5,10.3-21,7.1c-8.1,14.1,3.2,20.9-7.7,34.5c-6.4,7.9-15.5,7.7-25.5,5.7c10.6-21.8-14.1-50.9-25.7-24.6    c-4.6-20.1-15.1-12-25.4-12.2c-5.7-0.1-5.2,13.7-11.2,5.5c-6.5-8.8-9.8-14.3-19.6-17.9c-9,9.9-24.5,25.4-37.6,53.8    c-2.8,6.1-13.7,11.9-23.5,11.3c-4.8-0.3-9.9-1.1-13-4.8c-1.8-2.2-2.5-6.2-3-9.6c-7.2,3.8-13.2-1.4-19.1-8.6    c-7.8,10.4-24.1,25.3-24.6,24.5c-2.4-4.6,11.9,18.1,6.8,20.2c-42.8,17.6-61,41.3-61.8,44.8c-3.1,13.2,36.2,40.6,46.4,50.1    c12,11.1,26.7,12.9,35.3,17.8c20.6,11.7,29.3-26.8,48.9-5c6.9-14.9,19.5-29.9-1.4-39.9c5.6-1.8,21-4.1,24.7-7.3    c4-3.4,7.1-25.2,28.5-35.8c-5.9,28.9,39.6,35.7,47.7,3.9c2.3-8.9-8.5-9.2-2.4-20.4c4.9-9,10.9-6.1,18.1-11.9    c5.7-4.7,19,5.3,27.5,4.1c24-3.4,18.6-34.4,43.8-16C529.2,322.3,528.4,308,527.7,293.7C527.3,286.6,528.4,307.9,527.7,293.7z"/> 	</a> 	<path style="fill:#BFBFBF;stroke:#696969;stroke-width:2;stroke-miterlimit:10;" d="M264.5-61.7c-27.9,0-55.7,0.1-83.6,0.1   c-3.3,3.1-11,13.3-4,14.4c14.9,2.3,15.2,28.3,21.5,33.5c21,17.3,34.8-1.3,52.4-14.9C245.3-44.9,259.9-49.5,264.5-61.7   C236.6-61.6,264.5-61.7,264.5-61.7z"/> 	<a> 		<path style="fill:#BFBFBF;stroke:#696969;stroke-width:2;stroke-miterlimit:10;" d="M412.8-61.9c-28.9,0-180.9-23.9-162.1,33.3    c-7.3,5.6-15.6,9.2-23.3,12.8C209.5-7.6,197,2.8,190.9,13.9c-1.5,2.2,2.5,10.9,0.6,12.5c-3.2,2.7-17,0.9-21.2,2.6    c-3.6,1.5-7.8,8-11,10.7c-2.4,2.1-18.8,7.4-16,22.9c13.3-13.5,16.3-7.4,22.8-6.3c-2,13.3,21,32.1,27.6,42.8    c4,6.6,6.2,1.2,14.2-0.1c3.4-0.5,6.9,1.8,13.4,2.6c8.8,3.5,27.3,11.8,30.7,17.7c2.4,4.1,4.4,18.1,6.5,23.4    c3.4,8.3,1.8,11.1,10.9,20c4-11.2,4.2-7,13.6-8.8c-0.3-1.1,1.4-8.6,6.9-19.1c8.9-17.1,24.7-41.6,35.1-53.8    c10.3-12.1,26.2-11,14-18.3C319,50.4,345.7,49.9,352,39.4c9.8-16.2,9-25,21.3-36.4c7.8-7.2,35.1-18.2,33.3-23.4    C400.3-39.3,418.4-46.4,412.8-61.9C363.3-61.8,412.8-61.9,412.8-61.9z"/> 	</a> </g> <g id="calatayud"> 	<a> 		<path style="fill:#FFFBF0;stroke:#9A9A9A;stroke-width:2;stroke-miterlimit:10;" d="M351.3,319.1c-7.4,15.5-41.1,15.9-39.6-3    c-7.2,3.8-13.2-1.4-19.1-8.6c-3.6,4.9-23,25.6-24.5,24.5c-17.6-12.5-80.2-62.7-48.5-73.9c-4.6-7.5-3.2-18.3,1.5-23.6    c-19.8-16.6,4-21.7,3.3-31c-1-12-63.5-69.7-47.3-84.4c19.5-17.7,30-34.3,75,0.2c3.8,2.9,2.5,26.1,17.5,43.4c4-11.2,4.2-7,13.6-8.8    c-2.8-11.2,44.7-87.4,60.9-85.8c13.8,1.4,7.5,17,6.8,26.3c-0.9,11.5,8.4,23.2,3.4,33.4c-2.5,5-15.3-2.3-18.6,10.8    c-5.5-6.6-8.5-6.6-17.8-5.6c-0.1,20.6,41.2,54.9,41.7,57.3c1.6,7.7-10.1,18-4.7,21.9c3.9,2.8,4.4,9.5,5.8,12.3    c4.1-7.7,20.2-28.4,28.3-27.9c13.1,0.8,14.4,15.8,7.6,23.3c10.2,8.6,33.9,59.4,25.3,58.2c-6.8-0.9-7.8,12.7-13.3,5.2    c-6.5-8.8-9.8-14.3-19.6-17.9C387.8,267,367.3,285.6,351.3,319.1z"/> 	</a> 	<a> 		<path style="fill:#FFFBF0;stroke:#9A9A9A;stroke-width:2;stroke-miterlimit:10;" d="M276.6,348c-1.3,7.4-13.3,10.3-23.1,14.9    c-23,10.8-22.3,16.4-39.8,32.1c-20.1-22.6-71.5-43.6-80.5-50.5c-6.3-4.9-9.4-19.5-13.1-20.7c-4.7-1.5-36.9,12-40,14.7    c-8.3-7.6-11.6-14.4-21.8-16.7c-13.4-2.9-22.8-3.1-23.5-17.1c-0.9-18.9-5.9-39.3-10-54c-4.8-16.8,9.9-29.6,7.2-36.2    c-3.2-7.8,15.3-14,18.3-22.9c2.4-7.3-0.3-29.1,9.1-33.6c4.4-2.1,26.6,6.4,29.8,11.7c4.4,7.5-7,18.4-3.3,22.8    c8.2,9.8,35.4-10.5,47.5-10.7c-1.1-2.9,0.3-5.1,0.7-7.5c-2.8-0.9-6.5-6.5-9.4-7.9c0.6-25.6-34.2-80-6-103.4    c5.1-4.3,20.7-0.1,24.6-1.2c7-1.8,7.4-15.6,23-5.7c-1.3,8.6,6.1,17.5,13.1,26.1c3.7,4.6,15.6,15.4,17.3,20.2    c0.3,0.7-18.4,13.7-21.7,19.6c-8.6,15,48.6,69.2,49.5,81.2c0.7,9.3-23.1,14.4-3.3,31c-4.7,5.3-6.1,16.1-1.5,23.6    c-27.3,11.1,18.6,49.1,49.3,73.3C268.9,331.3,277.6,342.9,276.6,348z"/> 	</a> </g> <g id="text_x5F_exterior"> 	<g> 		<rect x="40.5" y="106.1" style="fill-rule:evenodd;clip-rule:evenodd;fill:none;" width="32.3" height="10.8"/> 		<path style="fill:#1A171B;" d="M48.9,112.1c0,0.7-0.3,1.3-0.9,1.7s-1.4,0.7-2.5,0.7c-0.6,0-1.1-0.1-1.6-0.2    c-0.4-0.1-0.9-0.2-1.3-0.4v-1.7h0.2c0.4,0.3,0.8,0.5,1.3,0.7c0.5,0.2,0.9,0.2,1.4,0.2c0.1,0,0.3,0,0.4,0s0.3-0.1,0.5-0.1    c0.1-0.1,0.3-0.1,0.4-0.2s0.1-0.2,0.1-0.4c0-0.2-0.1-0.3-0.2-0.4s-0.3-0.2-0.6-0.3c-0.3-0.1-0.6-0.1-0.9-0.2s-0.6-0.1-0.9-0.2    c-0.6-0.2-1.1-0.5-1.3-0.8s-0.4-0.8-0.4-1.3c0-0.7,0.3-1.2,0.9-1.7c0.6-0.4,1.4-0.6,2.3-0.6c0.5,0,1,0,1.4,0.1s0.9,0.2,1.2,0.3    v1.7h-0.2c-0.3-0.2-0.7-0.4-1.1-0.6s-0.9-0.2-1.3-0.2c-0.2,0-0.3,0-0.5,0s-0.3,0.1-0.4,0.1c-0.1,0-0.2,0.1-0.3,0.2    s-0.1,0.2-0.1,0.3c0,0.2,0.1,0.3,0.2,0.4s0.4,0.2,0.8,0.3c0.3,0.1,0.5,0.1,0.8,0.2s0.5,0.1,0.8,0.2c0.6,0.2,1,0.4,1.2,0.7    S48.9,111.6,48.9,112.1z"/> 		<path style="fill:#1A171B;" d="M55.7,111.6c0,0.9-0.3,1.6-0.8,2.1s-1.3,0.8-2.2,0.8s-1.7-0.3-2.2-0.8s-0.8-1.2-0.8-2.1    c0-0.9,0.3-1.6,0.8-2.1s1.3-0.8,2.2-0.8c1,0,1.7,0.3,2.2,0.8S55.7,110.7,55.7,111.6z M53.5,113c0.1-0.1,0.2-0.3,0.3-0.5    s0.1-0.5,0.1-0.8c0-0.3,0-0.6-0.1-0.8s-0.1-0.4-0.2-0.5c-0.1-0.1-0.2-0.2-0.4-0.3s-0.3-0.1-0.5-0.1s-0.3,0-0.5,0.1    s-0.3,0.1-0.4,0.3c-0.1,0.1-0.2,0.3-0.3,0.5s-0.1,0.5-0.1,0.8c0,0.3,0,0.6,0.1,0.8s0.1,0.4,0.2,0.5c0.1,0.1,0.2,0.2,0.4,0.3    s0.3,0.1,0.5,0.1c0.2,0,0.3,0,0.5-0.1S53.4,113.1,53.5,113z"/> 		<path style="fill:#1A171B;" d="M60.9,110.6h-0.2c-0.1,0-0.2,0-0.4-0.1c-0.2,0-0.3,0-0.4,0c-0.3,0-0.5,0-0.7,0    c-0.2,0-0.4,0.1-0.6,0.2v3.7h-1.8v-5.5h1.8v0.8c0.4-0.3,0.7-0.6,1-0.7c0.3-0.1,0.5-0.2,0.8-0.2c0.1,0,0.1,0,0.2,0s0.1,0,0.2,0    V110.6z"/> 		<path style="fill:#1A171B;" d="M63.7,108.1h-1.9v-1.3h1.9V108.1z M63.7,114.4h-1.8v-5.5h1.8V114.4z"/> 		<path style="fill:#1A171B;" d="M68.6,113.8c-0.1,0.1-0.2,0.2-0.4,0.3s-0.3,0.2-0.4,0.2c-0.2,0.1-0.4,0.1-0.5,0.2s-0.4,0.1-0.6,0.1    c-0.5,0-1-0.2-1.3-0.5s-0.5-0.7-0.5-1.2c0-0.4,0.1-0.7,0.3-1s0.4-0.5,0.8-0.6c0.3-0.1,0.7-0.3,1.2-0.3s1-0.1,1.5-0.1v0    c0-0.3-0.1-0.5-0.4-0.6s-0.6-0.2-1.1-0.2c-0.3,0-0.6,0.1-0.9,0.2s-0.6,0.2-0.7,0.2h-0.2V109c0.2,0,0.5-0.1,0.9-0.2    s0.8-0.1,1.3-0.1c1,0,1.7,0.2,2.2,0.5s0.7,0.8,0.7,1.4v3.7h-1.7V113.8z M68.6,112.9v-1.1c-0.2,0-0.5,0-0.8,0.1    c-0.3,0-0.5,0.1-0.6,0.1c-0.2,0.1-0.3,0.1-0.4,0.2s-0.1,0.2-0.1,0.4c0,0.1,0,0.2,0,0.3c0,0.1,0.1,0.1,0.1,0.2    c0.1,0.1,0.2,0.1,0.3,0.1s0.3,0,0.5,0c0.2,0,0.4,0,0.5-0.1S68.5,113.1,68.6,112.9z"/> 	</g> 	<g> 		<rect x="75.4" y="415.9" style="fill-rule:evenodd;clip-rule:evenodd;fill:none;" width="69.4" height="10.8"/> 		<path style="fill:#1A171B;" d="M83.4,423.8c-0.3,0.1-0.8,0.3-1.3,0.4c-0.5,0.1-1.1,0.2-1.6,0.2c-1.2,0-2.2-0.3-2.9-1    c-0.7-0.7-1-1.6-1-2.8c0-1.1,0.4-2,1.1-2.7c0.7-0.7,1.7-1,3-1c0.5,0,0.9,0,1.4,0.1c0.4,0.1,0.9,0.3,1.4,0.5v1.7h-0.2    c-0.1-0.1-0.2-0.2-0.4-0.3c-0.2-0.1-0.3-0.2-0.5-0.3c-0.2-0.1-0.4-0.2-0.7-0.3s-0.5-0.1-0.8-0.1c-0.3,0-0.6,0-0.9,0.1    s-0.5,0.2-0.7,0.4c-0.2,0.2-0.4,0.4-0.5,0.7c-0.1,0.3-0.2,0.6-0.2,1c0,0.8,0.2,1.4,0.6,1.8s1.1,0.6,1.9,0.6c0.1,0,0.2,0,0.2,0    s0.2,0,0.2,0v-1.4h-1.5v-1.4h3.4V423.8z"/> 		<path style="fill:#1A171B;" d="M90.5,424.2l-1.8,0v-0.6c-0.3,0.2-0.6,0.4-0.9,0.6c-0.3,0.1-0.6,0.2-1,0.2c-0.6,0-1.1-0.2-1.4-0.5    S85,423,85,422.3v-3.6h1.8v2.7c0,0.3,0,0.5,0,0.7c0,0.2,0.1,0.3,0.1,0.5c0.1,0.1,0.2,0.2,0.3,0.3s0.3,0.1,0.5,0.1    c0.1,0,0.3,0,0.5-0.1s0.4-0.1,0.5-0.2v-3.9l1.8,0V424.2z"/> 		<path style="fill:#1A171B;" d="M95.5,423.7c-0.1,0.1-0.2,0.2-0.4,0.3s-0.3,0.2-0.4,0.2c-0.2,0.1-0.4,0.1-0.5,0.2    c-0.2,0-0.4,0.1-0.6,0.1c-0.5,0-1-0.2-1.3-0.5s-0.5-0.7-0.5-1.2c0-0.4,0.1-0.7,0.3-1s0.4-0.5,0.8-0.6c0.3-0.1,0.7-0.3,1.2-0.3    s1-0.1,1.5-0.1v0c0-0.3-0.1-0.5-0.4-0.6c-0.2-0.1-0.6-0.2-1.1-0.2c-0.3,0-0.6,0.1-0.9,0.2c-0.3,0.1-0.6,0.2-0.7,0.2h-0.2v-1.3    c0.2,0,0.5-0.1,0.9-0.2c0.4-0.1,0.8-0.1,1.3-0.1c1,0,1.7,0.2,2.2,0.5c0.4,0.3,0.7,0.8,0.7,1.4v3.7h-1.7V423.7z M95.5,422.8v-1.1    c-0.2,0-0.5,0-0.8,0.1s-0.5,0.1-0.6,0.1c-0.2,0.1-0.3,0.1-0.4,0.2s-0.1,0.2-0.1,0.4c0,0.1,0,0.2,0,0.3s0.1,0.1,0.1,0.2    c0.1,0.1,0.2,0.1,0.3,0.1c0.1,0,0.3,0,0.5,0c0.2,0,0.4,0,0.5-0.1C95.2,423,95.3,422.9,95.5,422.8z"/> 		<path style="fill:#1A171B;" d="M104.1,424.2h-1.8v-0.6c-0.3,0.2-0.6,0.4-0.8,0.5s-0.6,0.2-0.9,0.2c-0.7,0-1.2-0.3-1.6-0.8    c-0.4-0.5-0.6-1.2-0.6-2.1c0-0.5,0.1-0.9,0.2-1.2c0.1-0.4,0.3-0.7,0.6-0.9c0.2-0.2,0.5-0.4,0.8-0.6c0.3-0.1,0.6-0.2,0.9-0.2    c0.3,0,0.6,0,0.8,0.1c0.2,0.1,0.4,0.2,0.6,0.3v-2.3h1.8V424.2z M102.4,422.7V420c-0.1-0.1-0.3-0.1-0.4-0.1c-0.1,0-0.3,0-0.4,0    c-0.5,0-0.8,0.1-1,0.4c-0.2,0.3-0.3,0.7-0.3,1.2c0,0.5,0.1,0.9,0.3,1.2s0.5,0.4,0.9,0.4c0.2,0,0.3,0,0.5-0.1    C102.1,422.9,102.2,422.8,102.4,422.7z"/> 		<path style="fill:#1A171B;" d="M109.1,423.7c-0.1,0.1-0.2,0.2-0.4,0.3s-0.3,0.2-0.4,0.2c-0.2,0.1-0.4,0.1-0.5,0.2    c-0.2,0-0.4,0.1-0.6,0.1c-0.5,0-1-0.2-1.3-0.5s-0.5-0.7-0.5-1.2c0-0.4,0.1-0.7,0.3-1s0.4-0.5,0.8-0.6c0.3-0.1,0.7-0.3,1.2-0.3    s1-0.1,1.5-0.1v0c0-0.3-0.1-0.5-0.4-0.6c-0.2-0.1-0.6-0.2-1.1-0.2c-0.3,0-0.6,0.1-0.9,0.2c-0.3,0.1-0.6,0.2-0.7,0.2h-0.2v-1.3    c0.2,0,0.5-0.1,0.9-0.2c0.4-0.1,0.8-0.1,1.3-0.1c1,0,1.7,0.2,2.2,0.5c0.4,0.3,0.7,0.8,0.7,1.4v3.7h-1.7V423.7z M109.1,422.8v-1.1    c-0.2,0-0.5,0-0.8,0.1s-0.5,0.1-0.6,0.1c-0.2,0.1-0.3,0.1-0.4,0.2s-0.1,0.2-0.1,0.4c0,0.1,0,0.2,0,0.3s0.1,0.1,0.1,0.2    c0.1,0.1,0.2,0.1,0.3,0.1c0.1,0,0.3,0,0.5,0c0.2,0,0.4,0,0.5-0.1C108.8,423,109,422.9,109.1,422.8z"/> 		<path style="fill:#1A171B;" d="M114.2,424.2h-1.8v-7.6h1.8V424.2z"/> 		<path style="fill:#1A171B;" d="M119.2,423.7c-0.1,0.1-0.2,0.2-0.4,0.3s-0.3,0.2-0.4,0.2c-0.2,0.1-0.4,0.1-0.5,0.2    c-0.2,0-0.4,0.1-0.6,0.1c-0.5,0-1-0.2-1.3-0.5s-0.5-0.7-0.5-1.2c0-0.4,0.1-0.7,0.3-1s0.4-0.5,0.8-0.6c0.3-0.1,0.7-0.3,1.2-0.3    s1-0.1,1.5-0.1v0c0-0.3-0.1-0.5-0.4-0.6c-0.2-0.1-0.6-0.2-1.1-0.2c-0.3,0-0.6,0.1-0.9,0.2c-0.3,0.1-0.6,0.2-0.7,0.2H116v-1.3    c0.2,0,0.5-0.1,0.9-0.2c0.4-0.1,0.8-0.1,1.3-0.1c1,0,1.7,0.2,2.2,0.5c0.4,0.3,0.7,0.8,0.7,1.4v3.7h-1.7V423.7z M119.2,422.8v-1.1    c-0.2,0-0.5,0-0.8,0.1s-0.5,0.1-0.6,0.1c-0.2,0.1-0.3,0.1-0.4,0.2s-0.1,0.2-0.1,0.4c0,0.1,0,0.2,0,0.3s0.1,0.1,0.1,0.2    c0.1,0.1,0.2,0.1,0.3,0.1c0.1,0,0.3,0,0.5,0c0.2,0,0.4,0,0.5-0.1C118.9,423,119.1,422.9,119.2,422.8z"/> 		<path style="fill:#1A171B;" d="M125,424.3c0,0.6-0.2,1.1-0.6,1.4c-0.4,0.3-0.9,0.5-1.5,0.5c-0.3,0-0.6,0-0.9,0    c-0.3,0-0.5-0.1-0.6-0.1v-1.3h0.1c0.1,0,0.2,0.1,0.4,0.1s0.3,0,0.3,0c0.3,0,0.6-0.1,0.7-0.3s0.2-0.5,0.2-1v-3.8l-1,0v-1.2l2.8,0    V424.3z M125,418h-1.9v-1.3h1.9V418z"/> 		<path style="fill:#1A171B;" d="M129.9,423.7c-0.1,0.1-0.2,0.2-0.4,0.3s-0.3,0.2-0.4,0.2c-0.2,0.1-0.4,0.1-0.5,0.2    c-0.2,0-0.4,0.1-0.6,0.1c-0.5,0-1-0.2-1.3-0.5s-0.5-0.7-0.5-1.2c0-0.4,0.1-0.7,0.3-1s0.4-0.5,0.8-0.6c0.3-0.1,0.7-0.3,1.2-0.3    s1-0.1,1.5-0.1v0c0-0.3-0.1-0.5-0.4-0.6c-0.2-0.1-0.6-0.2-1.1-0.2c-0.3,0-0.6,0.1-0.9,0.2c-0.3,0.1-0.6,0.2-0.7,0.2h-0.2v-1.3    c0.2,0,0.5-0.1,0.9-0.2c0.4-0.1,0.8-0.1,1.3-0.1c1,0,1.7,0.2,2.2,0.5c0.4,0.3,0.7,0.8,0.7,1.4v3.7h-1.7V423.7z M129.9,422.8v-1.1    c-0.2,0-0.5,0-0.8,0.1s-0.5,0.1-0.6,0.1c-0.2,0.1-0.3,0.1-0.4,0.2s-0.1,0.2-0.1,0.4c0,0.1,0,0.2,0,0.3s0.1,0.1,0.1,0.2    c0.1,0.1,0.2,0.1,0.3,0.1c0.1,0,0.3,0,0.5,0c0.2,0,0.4,0,0.5-0.1C129.6,423,129.8,422.9,129.9,422.8z"/> 		<path style="fill:#1A171B;" d="M137.3,420.4h-0.2c-0.1,0-0.2,0-0.4-0.1c-0.2,0-0.3,0-0.4,0c-0.3,0-0.5,0-0.7,0    c-0.2,0-0.4,0.1-0.6,0.2v3.7h-1.8v-5.5h1.8v0.8c0.4-0.3,0.7-0.6,1-0.7c0.3-0.1,0.5-0.2,0.8-0.2c0.1,0,0.1,0,0.2,0s0.1,0,0.2,0    V420.4z"/> 		<path style="fill:#1A171B;" d="M141.6,423.7c-0.1,0.1-0.2,0.2-0.4,0.3s-0.3,0.2-0.4,0.2c-0.2,0.1-0.4,0.1-0.5,0.2    c-0.2,0-0.4,0.1-0.6,0.1c-0.5,0-1-0.2-1.3-0.5s-0.5-0.7-0.5-1.2c0-0.4,0.1-0.7,0.3-1s0.4-0.5,0.8-0.6c0.3-0.1,0.7-0.3,1.2-0.3    s1-0.1,1.5-0.1v0c0-0.3-0.1-0.5-0.4-0.6c-0.2-0.1-0.6-0.2-1.1-0.2c-0.3,0-0.6,0.1-0.9,0.2c-0.3,0.1-0.6,0.2-0.7,0.2h-0.2v-1.3    c0.2,0,0.5-0.1,0.9-0.2c0.4-0.1,0.8-0.1,1.3-0.1c1,0,1.7,0.2,2.2,0.5c0.4,0.3,0.7,0.8,0.7,1.4v3.7h-1.7V423.7z M141.6,422.8v-1.1    c-0.2,0-0.5,0-0.8,0.1s-0.5,0.1-0.6,0.1c-0.2,0.1-0.3,0.1-0.4,0.2s-0.1,0.2-0.1,0.4c0,0.1,0,0.2,0,0.3s0.1,0.1,0.1,0.2    c0.1,0.1,0.2,0.1,0.3,0.1c0.1,0,0.3,0,0.5,0c0.2,0,0.4,0,0.5-0.1C141.3,423,141.4,422.9,141.6,422.8z"/> 	</g> 	<g> 		<rect x="389.3" y="419.7" style="fill-rule:evenodd;clip-rule:evenodd;fill:none;" width="37.2" height="10.8"/> 		<path style="fill:#1A171B;" d="M396.6,422.1h-2.3v5.9h-1.9v-5.9h-2.3v-1.4h6.4V422.1z"/> 		<path style="fill:#1A171B;" d="M403.1,425.6h-4c0,0.4,0.2,0.8,0.5,1c0.3,0.2,0.7,0.3,1.3,0.3c0.4,0,0.7-0.1,1.1-0.2    c0.3-0.1,0.6-0.3,0.8-0.4h0.2v1.4c-0.4,0.2-0.8,0.3-1.1,0.3s-0.7,0.1-1.2,0.1c-1.1,0-1.9-0.2-2.5-0.7s-0.9-1.2-0.9-2.1    c0-0.9,0.3-1.6,0.8-2.2c0.6-0.5,1.3-0.8,2.3-0.8c0.9,0,1.6,0.2,2,0.7c0.4,0.5,0.7,1.1,0.7,1.9V425.6z M401.3,424.5    c0-0.4-0.1-0.6-0.3-0.8c-0.2-0.2-0.4-0.3-0.8-0.3c-0.3,0-0.6,0.1-0.8,0.3c-0.2,0.2-0.3,0.5-0.4,0.8H401.3z"/> 		<path style="fill:#1A171B;" d="M408.3,424.2h-0.2c-0.1,0-0.2,0-0.4-0.1s-0.3,0-0.4,0c-0.3,0-0.5,0-0.7,0c-0.2,0-0.4,0.1-0.6,0.2    v3.7h-1.8v-5.5h1.8v0.8c0.4-0.3,0.7-0.6,1-0.7c0.3-0.1,0.5-0.2,0.8-0.2c0.1,0,0.1,0,0.2,0c0.1,0,0.1,0,0.2,0V424.2z"/> 		<path style="fill:#1A171B;" d="M414.7,428H413v-0.6c-0.3,0.2-0.6,0.4-0.9,0.6c-0.3,0.1-0.6,0.2-1,0.2c-0.6,0-1.1-0.2-1.4-0.5    c-0.3-0.3-0.5-0.9-0.5-1.5v-3.6h1.8v2.7c0,0.3,0,0.5,0,0.7c0,0.2,0.1,0.3,0.1,0.5c0.1,0.1,0.2,0.2,0.3,0.3    c0.1,0.1,0.3,0.1,0.5,0.1c0.2,0,0.3,0,0.5-0.1c0.2-0.1,0.4-0.1,0.5-0.2v-3.9h1.8V428z"/> 		<path style="fill:#1A171B;" d="M421.8,425.6h-4c0,0.4,0.2,0.8,0.5,1s0.7,0.3,1.3,0.3c0.4,0,0.7-0.1,1.1-0.2    c0.3-0.1,0.6-0.3,0.8-0.4h0.2v1.4c-0.4,0.2-0.8,0.3-1.1,0.3s-0.7,0.1-1.2,0.1c-1.1,0-1.9-0.2-2.5-0.7s-0.9-1.2-0.9-2.1    c0-0.9,0.3-1.6,0.8-2.2c0.6-0.5,1.3-0.8,2.3-0.8c0.9,0,1.6,0.2,2,0.7c0.4,0.5,0.7,1.1,0.7,1.9V425.6z M420.1,424.5    c0-0.4-0.1-0.6-0.3-0.8c-0.2-0.2-0.4-0.3-0.8-0.3c-0.3,0-0.6,0.1-0.8,0.3c-0.2,0.2-0.3,0.5-0.4,0.8H420.1z"/> 		<path style="fill:#1A171B;" d="M424.8,428H423v-7.6h1.8V428z"/> 	</g> </g> <g id="text_comarques"> 	<g> 		<rect x="376.8" y="64.8" style="fill-rule:evenodd;clip-rule:evenodd;fill:none;" width="63.2" height="12.1"/> 		<path style="fill:#1A171B;" d="M386.1,65.9l-2.7,7.3h-2.1l-2.7-7.3h2l1.8,5.1l1.8-5.1H386.1z"/> 		<path style="fill:#1A171B;" d="M390.4,72.6c-0.1,0.1-0.2,0.2-0.4,0.3s-0.3,0.2-0.4,0.2c-0.2,0.1-0.4,0.1-0.5,0.2s-0.4,0.1-0.6,0.1    c-0.5,0-1-0.2-1.3-0.5s-0.5-0.7-0.5-1.2c0-0.4,0.1-0.7,0.3-1s0.4-0.5,0.8-0.6c0.3-0.1,0.7-0.3,1.2-0.3s1-0.1,1.5-0.1v0    c0-0.3-0.1-0.5-0.4-0.6s-0.6-0.2-1.1-0.2c-0.3,0-0.6,0.1-0.9,0.2s-0.6,0.2-0.7,0.2h-0.2v-1.3c0.2,0,0.5-0.1,0.9-0.2    c0.4-0.1,0.8-0.1,1.3-0.1c1,0,1.7,0.2,2.2,0.5c0.4,0.3,0.7,0.8,0.7,1.4v3.7h-1.7V72.6z M390.4,71.7v-1.1c-0.2,0-0.5,0-0.8,0.1    c-0.3,0-0.5,0.1-0.6,0.1c-0.2,0.1-0.3,0.1-0.4,0.2c-0.1,0.1-0.1,0.2-0.1,0.4c0,0.1,0,0.2,0,0.3c0,0.1,0.1,0.1,0.1,0.2    c0.1,0.1,0.2,0.1,0.3,0.1s0.3,0,0.5,0c0.2,0,0.4,0,0.5-0.1C390.1,71.9,390.3,71.8,390.4,71.7z"/> 		<path style="fill:#1A171B;" d="M395.5,73.1h-1.8v-7.6h1.8V73.1z"/> 		<path style="fill:#1A171B;" d="M402.5,73.1h-1.8v-0.6c-0.3,0.2-0.6,0.4-0.8,0.5s-0.6,0.2-0.9,0.2c-0.7,0-1.2-0.3-1.6-0.8    c-0.4-0.5-0.6-1.2-0.6-2.1c0-0.5,0.1-0.9,0.2-1.2s0.3-0.7,0.6-0.9c0.2-0.2,0.5-0.4,0.8-0.6s0.6-0.2,0.9-0.2c0.3,0,0.6,0,0.8,0.1    c0.2,0.1,0.4,0.2,0.6,0.3v-2.3h1.8V73.1z M400.8,71.6v-2.7c-0.1-0.1-0.3-0.1-0.4-0.1s-0.3,0-0.4,0c-0.5,0-0.8,0.1-1,0.4    s-0.3,0.7-0.3,1.2c0,0.5,0.1,0.9,0.3,1.2c0.2,0.2,0.5,0.4,0.9,0.4c0.2,0,0.3,0,0.5-0.1C400.5,71.8,400.6,71.7,400.8,71.6z"/> 		<path style="fill:#1A171B;" d="M409.6,70.7h-4c0,0.4,0.2,0.8,0.5,1c0.3,0.2,0.7,0.3,1.3,0.3c0.4,0,0.7-0.1,1.1-0.2    s0.6-0.3,0.8-0.4h0.2v1.4c-0.4,0.2-0.8,0.3-1.1,0.3s-0.7,0.1-1.2,0.1c-1.1,0-1.9-0.2-2.5-0.7s-0.9-1.2-0.9-2.1    c0-0.9,0.3-1.6,0.8-2.2c0.6-0.5,1.3-0.8,2.3-0.8c0.9,0,1.6,0.2,2,0.7s0.7,1.1,0.7,1.9V70.7z M407.8,69.7c0-0.4-0.1-0.6-0.3-0.8    s-0.4-0.3-0.8-0.3c-0.3,0-0.6,0.1-0.8,0.3s-0.3,0.5-0.4,0.8H407.8z"/> 		<path style="fill:#1A171B;" d="M413.2,73.2c0,0.6-0.2,1.1-0.6,1.4s-0.9,0.5-1.5,0.5c-0.3,0-0.6,0-0.9,0c-0.3,0-0.5-0.1-0.6-0.1    v-1.3h0.1c0.1,0,0.2,0.1,0.4,0.1c0.1,0,0.3,0,0.3,0c0.3,0,0.6-0.1,0.7-0.3c0.1-0.2,0.2-0.5,0.2-1v-3.8h-1v-1.2h2.8V73.2z     M413.2,66.9h-1.9v-1.3h1.9V66.9z"/> 		<path style="fill:#1A171B;" d="M418.2,72.6c-0.1,0.1-0.2,0.2-0.4,0.3s-0.3,0.2-0.4,0.2c-0.2,0.1-0.4,0.1-0.5,0.2s-0.4,0.1-0.6,0.1    c-0.5,0-1-0.2-1.3-0.5s-0.5-0.7-0.5-1.2c0-0.4,0.1-0.7,0.3-1s0.4-0.5,0.8-0.6c0.3-0.1,0.7-0.3,1.2-0.3s1-0.1,1.5-0.1v0    c0-0.3-0.1-0.5-0.4-0.6s-0.6-0.2-1.1-0.2c-0.3,0-0.6,0.1-0.9,0.2s-0.6,0.2-0.7,0.2h-0.2v-1.3c0.2,0,0.5-0.1,0.9-0.2    c0.4-0.1,0.8-0.1,1.3-0.1c1,0,1.7,0.2,2.2,0.5c0.4,0.3,0.7,0.8,0.7,1.4v3.7h-1.7V72.6z M418.2,71.7v-1.1c-0.2,0-0.5,0-0.8,0.1    c-0.3,0-0.5,0.1-0.6,0.1c-0.2,0.1-0.3,0.1-0.4,0.2c-0.1,0.1-0.1,0.2-0.1,0.4c0,0.1,0,0.2,0,0.3c0,0.1,0.1,0.1,0.1,0.2    c0.1,0.1,0.2,0.1,0.3,0.1s0.3,0,0.5,0c0.2,0,0.4,0,0.5-0.1C417.9,71.9,418,71.8,418.2,71.7z"/> 		<path style="fill:#1A171B;" d="M423.3,73.1h-1.8v-7.6h1.8V73.1z"/> 		<path style="fill:#1A171B;" d="M430.6,70.4c0,0.9-0.3,1.6-0.8,2.1c-0.5,0.5-1.3,0.8-2.2,0.8s-1.7-0.3-2.2-0.8    c-0.5-0.5-0.8-1.2-0.8-2.1c0-0.9,0.3-1.6,0.8-2.1c0.5-0.5,1.3-0.8,2.2-0.8c1,0,1.7,0.3,2.2,0.8C430.3,68.8,430.6,69.5,430.6,70.4z     M429.3,65L429.3,65l-1.7,1.9h-1.2l1.2-1.9H429.3z M428.4,71.7c0.1-0.1,0.2-0.3,0.3-0.5c0.1-0.2,0.1-0.5,0.1-0.8    c0-0.3,0-0.6-0.1-0.8s-0.1-0.4-0.2-0.5c-0.1-0.1-0.2-0.2-0.4-0.3s-0.3-0.1-0.5-0.1s-0.3,0-0.5,0.1c-0.1,0-0.3,0.1-0.4,0.3    c-0.1,0.1-0.2,0.3-0.3,0.5c-0.1,0.2-0.1,0.5-0.1,0.8c0,0.3,0,0.6,0.1,0.8s0.1,0.4,0.2,0.5c0.1,0.1,0.2,0.2,0.4,0.3    c0.1,0.1,0.3,0.1,0.5,0.1c0.2,0,0.3,0,0.5-0.1C428.2,71.9,428.3,71.9,428.4,71.7z"/> 		<path style="fill:#1A171B;" d="M437.3,73.1h-1.8v-2.7c0-0.2,0-0.4,0-0.7s-0.1-0.4-0.1-0.5c-0.1-0.1-0.2-0.2-0.3-0.3    c-0.1-0.1-0.3-0.1-0.5-0.1c-0.2,0-0.3,0-0.5,0.1c-0.2,0.1-0.3,0.1-0.5,0.2v3.9h-1.8v-5.5h1.8v0.6c0.3-0.2,0.6-0.4,0.9-0.6    c0.3-0.1,0.6-0.2,1-0.2c0.6,0,1.1,0.2,1.4,0.5s0.5,0.9,0.5,1.5V73.1z"/> 	</g> 	<g> 		<rect x="225.1" y="40.1" style="fill-rule:evenodd;clip-rule:evenodd;fill:none;" width="83.8" height="17.8"/> 		<path style="fill:#1A171B;" d="M256.6,48.4h-2.3l-2-2.7h-0.9v2.7h-1.9v-7.3h3.1c0.4,0,0.8,0,1.1,0.1s0.6,0.2,0.9,0.3    c0.3,0.2,0.5,0.4,0.7,0.6c0.2,0.3,0.2,0.6,0.2,1c0,0.5-0.1,1-0.4,1.3c-0.3,0.3-0.6,0.6-1.1,0.8L256.6,48.4z M253.7,43.4    c0-0.2,0-0.3-0.1-0.5s-0.2-0.2-0.4-0.3c-0.1-0.1-0.3-0.1-0.4-0.1s-0.4,0-0.6,0h-0.7v2h0.6c0.3,0,0.5,0,0.8,0s0.4-0.1,0.5-0.2    c0.1-0.1,0.2-0.2,0.3-0.3C253.6,43.7,253.7,43.6,253.7,43.4z"/> 		<path style="fill:#1A171B;" d="M259.1,42.1h-1.9v-1.3h1.9V42.1z M259.1,48.4h-1.8v-5.5h1.8V48.4z"/> 		<path style="fill:#1A171B;" d="M266.5,45.6c0,0.9-0.2,1.6-0.7,2.1c-0.5,0.5-1.1,0.8-1.8,0.8c-0.3,0-0.6,0-0.8-0.1    c-0.2-0.1-0.5-0.2-0.7-0.3l-0.1,0.3h-1.7v-7.6h1.8v2.7c0.3-0.2,0.5-0.4,0.8-0.5s0.6-0.2,1-0.2c0.7,0,1.2,0.3,1.6,0.7    S266.5,44.7,266.5,45.6z M264.6,45.6c0-0.5-0.1-0.9-0.2-1.1c-0.2-0.3-0.5-0.4-0.9-0.4c-0.2,0-0.3,0-0.5,0.1    c-0.2,0.1-0.3,0.1-0.5,0.2v2.7c0.1,0,0.2,0.1,0.4,0.1c0.1,0,0.3,0,0.4,0c0.5,0,0.8-0.1,1-0.4S264.6,46.2,264.6,45.6z"/> 		<path style="fill:#1A171B;" d="M273.1,46h-4c0,0.4,0.2,0.8,0.5,1c0.3,0.2,0.7,0.3,1.3,0.3c0.4,0,0.7-0.1,1.1-0.2s0.6-0.3,0.8-0.4    h0.2v1.4c-0.4,0.2-0.8,0.3-1.1,0.3s-0.7,0.1-1.2,0.1c-1.1,0-1.9-0.2-2.5-0.7s-0.9-1.2-0.9-2.1c0-0.9,0.3-1.6,0.8-2.2    c0.6-0.5,1.3-0.8,2.3-0.8c0.9,0,1.6,0.2,2,0.7s0.7,1.1,0.7,1.9V46z M271.4,45c0-0.4-0.1-0.6-0.3-0.8s-0.4-0.3-0.8-0.3    c-0.3,0-0.6,0.1-0.8,0.3s-0.3,0.5-0.4,0.8H271.4z"/> 		<path style="fill:#1A171B;" d="M278.3,44.6h-0.2c-0.1,0-0.2,0-0.4-0.1s-0.3,0-0.4,0c-0.3,0-0.5,0-0.7,0c-0.2,0-0.4,0.1-0.6,0.2    v3.7h-1.8v-5.5h1.8v0.8c0.4-0.3,0.7-0.6,1-0.7c0.3-0.1,0.5-0.2,0.8-0.2c0.1,0,0.1,0,0.2,0c0.1,0,0.1,0,0.2,0V44.6z"/> 		<path style="fill:#1A171B;" d="M282.7,47.8c-0.1,0.1-0.2,0.2-0.4,0.3s-0.3,0.2-0.4,0.2c-0.2,0.1-0.4,0.1-0.5,0.2s-0.4,0.1-0.6,0.1    c-0.5,0-1-0.2-1.3-0.5s-0.5-0.7-0.5-1.2c0-0.4,0.1-0.7,0.3-1s0.4-0.5,0.8-0.6c0.3-0.1,0.7-0.3,1.2-0.3s1-0.1,1.5-0.1v0    c0-0.3-0.1-0.5-0.4-0.6s-0.6-0.2-1.1-0.2c-0.3,0-0.6,0.1-0.9,0.2s-0.6,0.2-0.7,0.2h-0.2V43c0.2,0,0.5-0.1,0.9-0.2    c0.4-0.1,0.8-0.1,1.3-0.1c1,0,1.7,0.2,2.2,0.5c0.4,0.3,0.7,0.8,0.7,1.4v3.7h-1.7V47.8z M282.7,47v-1.1c-0.2,0-0.5,0-0.8,0.1    c-0.3,0-0.5,0.1-0.6,0.1c-0.2,0.1-0.3,0.1-0.4,0.2c-0.1,0.1-0.1,0.2-0.1,0.4c0,0.1,0,0.2,0,0.3c0,0.1,0.1,0.1,0.1,0.2    c0.1,0.1,0.2,0.1,0.3,0.1s0.3,0,0.5,0c0.2,0,0.4,0,0.5-0.1C282.4,47.2,282.5,47.1,282.7,47z"/> 		<path style="fill:#1A171B;" d="M238.6,57.2h-1.9l-0.5-1.5h-2.7l-0.5,1.5h-1.9l2.7-7.3h2.2L238.6,57.2z M235.7,54.4l-0.9-2.6    l-0.9,2.6H235.7z"/> 		<path style="fill:#1A171B;" d="M241.3,57.2h-1.8v-7.6h1.8V57.2z"/> 		<path style="fill:#1A171B;" d="M246.5,57.2c-0.2,0-0.4,0.1-0.6,0.1c-0.2,0-0.5,0-0.8,0c-0.7,0-1.2-0.1-1.5-0.4    c-0.3-0.3-0.5-0.8-0.5-1.4v-2.6h-0.7v-1.2h0.7v-1.6h1.8v1.6h1.6v1.2h-1.6v1.9c0,0.2,0,0.4,0,0.5c0,0.1,0,0.3,0.1,0.4    c0,0.1,0.1,0.2,0.2,0.3c0.1,0.1,0.3,0.1,0.5,0.1c0.1,0,0.2,0,0.4-0.1s0.3-0.1,0.3-0.1h0.1V57.2z"/> 		<path style="fill:#1A171B;" d="M250.8,56.6c-0.1,0.1-0.2,0.2-0.4,0.3s-0.3,0.2-0.4,0.2c-0.2,0.1-0.4,0.1-0.5,0.2s-0.4,0.1-0.6,0.1    c-0.5,0-1-0.2-1.3-0.5s-0.5-0.7-0.5-1.2c0-0.4,0.1-0.7,0.3-1s0.4-0.5,0.8-0.6c0.3-0.1,0.7-0.3,1.2-0.3s1-0.1,1.5-0.1v0    c0-0.3-0.1-0.5-0.4-0.6s-0.6-0.2-1.1-0.2c-0.3,0-0.6,0.1-0.9,0.2s-0.6,0.2-0.7,0.2h-0.2v-1.3c0.2,0,0.5-0.1,0.9-0.2    c0.4-0.1,0.8-0.1,1.3-0.1c1,0,1.7,0.2,2.2,0.5c0.4,0.3,0.7,0.8,0.7,1.4v3.7h-1.7V56.6z M250.8,55.8v-1.1c-0.2,0-0.5,0-0.8,0.1    c-0.3,0-0.5,0.1-0.6,0.1c-0.2,0.1-0.3,0.1-0.4,0.2c-0.1,0.1-0.1,0.2-0.1,0.4c0,0.1,0,0.2,0,0.3c0,0.1,0.1,0.1,0.1,0.2    c0.1,0.1,0.2,0.1,0.3,0.1s0.3,0,0.5,0c0.2,0,0.4,0,0.5-0.1C250.5,56,250.7,55.9,250.8,55.8z"/> 		<path style="fill:#1A171B;" d="M262.9,57.2h-1.8v-0.6c-0.3,0.2-0.6,0.4-0.8,0.5s-0.6,0.2-0.9,0.2c-0.7,0-1.2-0.3-1.6-0.8    c-0.4-0.5-0.6-1.2-0.6-2.1c0-0.5,0.1-0.9,0.2-1.2s0.3-0.7,0.6-0.9c0.2-0.2,0.5-0.4,0.8-0.6s0.6-0.2,0.9-0.2c0.3,0,0.6,0,0.8,0.1    c0.2,0.1,0.4,0.2,0.6,0.3v-2.3h1.8V57.2z M261.2,55.7V53c-0.1-0.1-0.3-0.1-0.4-0.1s-0.3,0-0.4,0c-0.5,0-0.8,0.1-1,0.4    S259,54,259,54.5c0,0.5,0.1,0.9,0.3,1.2c0.2,0.2,0.5,0.4,0.9,0.4c0.2,0,0.3,0,0.5-0.1C260.9,55.9,261,55.8,261.2,55.7z"/> 		<path style="fill:#1A171B;" d="M270,54.8h-4c0,0.4,0.2,0.8,0.5,1c0.3,0.2,0.7,0.3,1.3,0.3c0.4,0,0.7-0.1,1.1-0.2s0.6-0.3,0.8-0.4    h0.2v1.4c-0.4,0.2-0.8,0.3-1.1,0.3s-0.7,0.1-1.2,0.1c-1.1,0-1.9-0.2-2.5-0.7s-0.9-1.2-0.9-2.1c0-0.9,0.3-1.6,0.8-2.2    c0.6-0.5,1.3-0.8,2.3-0.8c0.9,0,1.6,0.2,2,0.7s0.7,1.1,0.7,1.9V54.8z M268.3,53.8c0-0.4-0.1-0.6-0.3-0.8s-0.4-0.3-0.8-0.3    c-0.3,0-0.6,0.1-0.8,0.3s-0.3,0.5-0.4,0.8H268.3z"/> 		<path style="fill:#1A171B;" d="M273,57.2h-1.8v-7.6h1.8V57.2z"/> 		<path style="fill:#1A171B;" d="M283.4,57.2h-5.3v-7.3h5.3v1.4H280v1.3h3.1V54H280v1.8h3.4V57.2z"/> 		<path style="fill:#1A171B;" d="M290.6,54.4c0,0.9-0.2,1.6-0.7,2.1c-0.5,0.5-1.1,0.8-1.8,0.8c-0.3,0-0.6,0-0.8-0.1    c-0.2-0.1-0.5-0.2-0.7-0.3l-0.1,0.3h-1.7v-7.6h1.8v2.7c0.3-0.2,0.5-0.4,0.8-0.5s0.6-0.2,1-0.2c0.7,0,1.2,0.3,1.6,0.7    S290.6,53.5,290.6,54.4z M288.8,54.4c0-0.5-0.1-0.9-0.2-1.1c-0.2-0.3-0.5-0.4-0.9-0.4c-0.2,0-0.3,0-0.5,0.1    c-0.2,0.1-0.3,0.1-0.5,0.2V56c0.1,0,0.2,0.1,0.4,0.1c0.1,0,0.3,0,0.4,0c0.5,0,0.8-0.1,1-0.4S288.8,55,288.8,54.4z"/> 		<path style="fill:#1A171B;" d="M295.9,53.4h-0.2c-0.1,0-0.2,0-0.4-0.1s-0.3,0-0.4,0c-0.3,0-0.5,0-0.7,0c-0.2,0-0.4,0.1-0.6,0.2    v3.7h-1.8v-5.5h1.8v0.8c0.4-0.3,0.7-0.6,1-0.7c0.3-0.1,0.5-0.2,0.8-0.2c0.1,0,0.1,0,0.2,0c0.1,0,0.1,0,0.2,0V53.4z"/> 		<path style="fill:#1A171B;" d="M302.5,54.5c0,0.9-0.3,1.6-0.8,2.1c-0.5,0.5-1.3,0.8-2.2,0.8s-1.7-0.3-2.2-0.8    c-0.5-0.5-0.8-1.2-0.8-2.1c0-0.9,0.3-1.6,0.8-2.1c0.5-0.5,1.3-0.8,2.2-0.8c1,0,1.7,0.3,2.2,0.8C302.2,52.9,302.5,53.6,302.5,54.5z     M300.3,55.8c0.1-0.1,0.2-0.3,0.3-0.5c0.1-0.2,0.1-0.5,0.1-0.8c0-0.3,0-0.6-0.1-0.8s-0.1-0.4-0.2-0.5c-0.1-0.1-0.2-0.2-0.4-0.3    s-0.3-0.1-0.5-0.1s-0.3,0-0.5,0.1c-0.1,0-0.3,0.1-0.4,0.3c-0.1,0.1-0.2,0.3-0.3,0.5c-0.1,0.2-0.1,0.5-0.1,0.8c0,0.3,0,0.6,0.1,0.8    s0.1,0.4,0.2,0.5c0.1,0.1,0.2,0.2,0.4,0.3c0.1,0.1,0.3,0.1,0.5,0.1c0.2,0,0.3,0,0.5-0.1C300.1,56,300.2,55.9,300.3,55.8z"/> 	</g> 	<g> 		<rect x="308.8" y="355" style="fill-rule:evenodd;clip-rule:evenodd;fill:none;" width="106.2" height="16.2"/> 		<path style="fill:#1A171B;" d="M317,363.5c-0.5,0-1-0.1-1.5-0.2c-0.5-0.2-0.9-0.4-1.2-0.7c-0.3-0.3-0.6-0.7-0.8-1.2    c-0.2-0.5-0.3-1-0.3-1.6c0-0.6,0.1-1.1,0.3-1.6s0.4-0.9,0.8-1.2c0.3-0.3,0.7-0.6,1.2-0.7c0.5-0.2,1-0.3,1.5-0.3    c0.3,0,0.6,0,0.8,0.1c0.2,0,0.5,0.1,0.7,0.1c0.2,0.1,0.4,0.1,0.6,0.2c0.2,0.1,0.3,0.1,0.5,0.2v1.8h-0.2c-0.1-0.1-0.2-0.2-0.3-0.3    c-0.1-0.1-0.3-0.2-0.5-0.3c-0.2-0.1-0.4-0.2-0.6-0.3s-0.4-0.1-0.7-0.1c-0.3,0-0.5,0-0.8,0.1s-0.5,0.2-0.7,0.4    c-0.2,0.2-0.3,0.4-0.5,0.7c-0.1,0.3-0.2,0.7-0.2,1.1c0,0.5,0.1,0.8,0.2,1.1c0.1,0.3,0.3,0.5,0.5,0.7c0.2,0.2,0.4,0.3,0.7,0.4    c0.2,0.1,0.5,0.1,0.7,0.1c0.2,0,0.5,0,0.7-0.1c0.2-0.1,0.4-0.2,0.6-0.3c0.2-0.1,0.3-0.2,0.4-0.3s0.2-0.2,0.3-0.3h0.2v1.7    c-0.2,0.1-0.4,0.2-0.5,0.2c-0.2,0.1-0.3,0.1-0.5,0.2c-0.2,0.1-0.5,0.1-0.7,0.2C317.6,363.4,317.4,363.5,317,363.5z"/> 		<path style="fill:#1A171B;" d="M324.2,362.7c-0.1,0.1-0.2,0.2-0.4,0.3c-0.1,0.1-0.3,0.2-0.4,0.2c-0.2,0.1-0.4,0.1-0.5,0.2    s-0.4,0.1-0.6,0.1c-0.5,0-1-0.2-1.3-0.5s-0.5-0.7-0.5-1.2c0-0.4,0.1-0.7,0.3-1s0.4-0.5,0.8-0.6c0.3-0.1,0.7-0.3,1.2-0.3    c0.5-0.1,1-0.1,1.5-0.1v0c0-0.3-0.1-0.5-0.4-0.6s-0.6-0.2-1.1-0.2c-0.3,0-0.6,0.1-0.9,0.2s-0.6,0.2-0.7,0.2h-0.2v-1.3    c0.2,0,0.5-0.1,0.9-0.2c0.4-0.1,0.8-0.1,1.3-0.1c1,0,1.7,0.2,2.2,0.5c0.4,0.3,0.7,0.8,0.7,1.4v3.7h-1.7V362.7z M324.2,361.9v-1.1    c-0.2,0-0.5,0-0.8,0.1s-0.5,0.1-0.6,0.1c-0.2,0.1-0.3,0.1-0.4,0.2c-0.1,0.1-0.1,0.2-0.1,0.4c0,0.1,0,0.2,0,0.3    c0,0.1,0.1,0.1,0.1,0.2c0.1,0.1,0.2,0.1,0.3,0.1s0.3,0,0.5,0c0.2,0,0.4,0,0.5-0.1C323.9,362.1,324,362,324.2,361.9z"/> 		<path style="fill:#1A171B;" d="M332.9,359.4v3.9h-1.8v-2.7c0-0.3,0-0.5,0-0.7s0-0.3-0.1-0.5s-0.1-0.2-0.3-0.3    c-0.1-0.1-0.3-0.1-0.5-0.1c-0.2,0-0.3,0-0.5,0.1s-0.3,0.1-0.4,0.2v3.9h-1.8v-5.5h1.8v0.6c0.3-0.2,0.6-0.4,0.9-0.6    c0.3-0.1,0.6-0.2,0.9-0.2c0.4,0,0.7,0.1,1,0.2c0.3,0.2,0.5,0.4,0.6,0.7c0.4-0.3,0.7-0.5,1-0.7c0.3-0.2,0.7-0.3,1-0.3    c0.6,0,1,0.2,1.3,0.5c0.3,0.4,0.5,0.9,0.5,1.5v3.6h-1.8v-2.7c0-0.3,0-0.5,0-0.7c0-0.2,0-0.3-0.1-0.5c-0.1-0.1-0.1-0.2-0.3-0.3    s-0.3-0.1-0.5-0.1c-0.1,0-0.3,0-0.4,0.1S333.1,359.3,332.9,359.4z"/> 		<path style="fill:#1A171B;" d="M343.8,360.5c0,0.5-0.1,0.9-0.2,1.2c-0.1,0.4-0.3,0.7-0.5,0.9c-0.2,0.3-0.5,0.4-0.8,0.6    c-0.3,0.1-0.6,0.2-1,0.2c-0.3,0-0.6,0-0.8-0.1s-0.4-0.2-0.7-0.3v2.3h-1.8v-7.5h1.8v0.6c0.3-0.2,0.5-0.4,0.8-0.5    c0.3-0.1,0.6-0.2,1-0.2c0.7,0,1.2,0.3,1.6,0.8C343.6,358.9,343.8,359.6,343.8,360.5z M342,360.5c0-0.5-0.1-0.9-0.3-1.2    c-0.2-0.2-0.5-0.4-0.9-0.4c-0.2,0-0.3,0-0.5,0.1c-0.2,0.1-0.3,0.1-0.5,0.2v2.8c0.1,0,0.2,0.1,0.4,0.1c0.1,0,0.3,0,0.4,0    c0.5,0,0.8-0.1,1-0.4S342,361.1,342,360.5z"/> 		<path style="fill:#1A171B;" d="M350.7,360.6c0,0.9-0.3,1.6-0.8,2.1c-0.5,0.5-1.3,0.8-2.2,0.8s-1.7-0.3-2.2-0.8    c-0.5-0.5-0.8-1.2-0.8-2.1c0-0.9,0.3-1.6,0.8-2.1c0.5-0.5,1.3-0.8,2.2-0.8c1,0,1.7,0.3,2.2,0.8C350.4,359,350.7,359.7,350.7,360.6    z M348.5,361.9c0.1-0.1,0.2-0.3,0.3-0.5c0.1-0.2,0.1-0.5,0.1-0.8c0-0.3,0-0.6-0.1-0.8c-0.1-0.2-0.1-0.4-0.2-0.5    c-0.1-0.1-0.2-0.2-0.4-0.3c-0.1-0.1-0.3-0.1-0.5-0.1s-0.3,0-0.5,0.1c-0.1,0-0.3,0.1-0.4,0.3c-0.1,0.1-0.2,0.3-0.3,0.5    c-0.1,0.2-0.1,0.5-0.1,0.8c0,0.3,0,0.6,0.1,0.8s0.1,0.4,0.2,0.5c0.1,0.1,0.2,0.2,0.4,0.3c0.1,0.1,0.3,0.1,0.5,0.1    c0.2,0,0.3,0,0.5-0.1C348.3,362.1,348.4,362,348.5,361.9z"/> 		<path style="fill:#1A171B;" d="M360.7,363.3H359v-0.6c-0.3,0.2-0.6,0.4-0.8,0.5s-0.6,0.2-0.9,0.2c-0.7,0-1.2-0.3-1.6-0.8    c-0.4-0.5-0.6-1.2-0.6-2.1c0-0.5,0.1-0.9,0.2-1.2s0.3-0.7,0.6-0.9c0.2-0.2,0.5-0.4,0.8-0.6s0.6-0.2,0.9-0.2c0.3,0,0.6,0,0.8,0.1    c0.2,0.1,0.4,0.2,0.6,0.3v-2.3h1.8V363.3z M359,361.8v-2.7c-0.1-0.1-0.3-0.1-0.4-0.1c-0.1,0-0.3,0-0.4,0c-0.5,0-0.8,0.1-1,0.4    c-0.2,0.3-0.3,0.7-0.3,1.2c0,0.5,0.1,0.9,0.3,1.2c0.2,0.2,0.5,0.4,0.9,0.4c0.2,0,0.3,0,0.5-0.1C358.7,362,358.8,361.9,359,361.8z"/> 		<path style="fill:#1A171B;" d="M367.8,360.9h-4c0,0.4,0.2,0.8,0.5,1c0.3,0.2,0.7,0.3,1.3,0.3c0.4,0,0.7-0.1,1.1-0.2    c0.3-0.1,0.6-0.3,0.8-0.4h0.2v1.4c-0.4,0.2-0.8,0.3-1.1,0.3c-0.4,0.1-0.7,0.1-1.2,0.1c-1.1,0-1.9-0.2-2.5-0.7    c-0.6-0.5-0.9-1.2-0.9-2.1c0-0.9,0.3-1.6,0.8-2.2c0.6-0.5,1.3-0.8,2.3-0.8c0.9,0,1.6,0.2,2,0.7s0.7,1.1,0.7,1.9V360.9z M366,359.9    c0-0.4-0.1-0.6-0.3-0.8s-0.4-0.3-0.8-0.3c-0.3,0-0.6,0.1-0.8,0.3s-0.3,0.5-0.4,0.8H366z"/> 		<path style="fill:#1A171B;" d="M379.4,359.7c0,0.7-0.2,1.3-0.5,1.8s-0.7,0.9-1.2,1.2c-0.4,0.2-0.7,0.4-1.2,0.4    c-0.4,0.1-0.9,0.1-1.5,0.1h-2.6V356h2.6c0.6,0,1.1,0.1,1.5,0.1s0.8,0.2,1.1,0.4c0.5,0.3,0.9,0.7,1.2,1.2    C379.3,358.4,379.4,359,379.4,359.7z M377.5,359.7c0-0.5-0.1-0.9-0.3-1.2c-0.2-0.3-0.4-0.6-0.8-0.8c-0.2-0.1-0.4-0.2-0.6-0.2    c-0.2,0-0.5-0.1-0.9-0.1h-0.5v4.6h0.5c0.4,0,0.8,0,1-0.1s0.4-0.1,0.6-0.2c0.3-0.2,0.6-0.5,0.8-0.8S377.5,360.2,377.5,359.7z"/> 		<path style="fill:#1A171B;" d="M384.1,362.7c-0.1,0.1-0.2,0.2-0.4,0.3c-0.1,0.1-0.3,0.2-0.4,0.2c-0.2,0.1-0.4,0.1-0.5,0.2    s-0.4,0.1-0.6,0.1c-0.5,0-1-0.2-1.3-0.5s-0.5-0.7-0.5-1.2c0-0.4,0.1-0.7,0.3-1s0.4-0.5,0.8-0.6c0.3-0.1,0.7-0.3,1.2-0.3    c0.5-0.1,1-0.1,1.5-0.1v0c0-0.3-0.1-0.5-0.4-0.6s-0.6-0.2-1.1-0.2c-0.3,0-0.6,0.1-0.9,0.2s-0.6,0.2-0.7,0.2h-0.2v-1.3    c0.2,0,0.5-0.1,0.9-0.2c0.4-0.1,0.8-0.1,1.3-0.1c1,0,1.7,0.2,2.2,0.5c0.4,0.3,0.7,0.8,0.7,1.4v3.7h-1.7V362.7z M384.1,361.9v-1.1    c-0.2,0-0.5,0-0.8,0.1s-0.5,0.1-0.6,0.1c-0.2,0.1-0.3,0.1-0.4,0.2c-0.1,0.1-0.1,0.2-0.1,0.4c0,0.1,0,0.2,0,0.3    c0,0.1,0.1,0.1,0.1,0.2c0.1,0.1,0.2,0.1,0.3,0.1s0.3,0,0.5,0c0.2,0,0.4,0,0.5-0.1C383.8,362.1,383.9,362,384.1,361.9z"/> 		<path style="fill:#1A171B;" d="M391.4,359.5h-0.2c-0.1,0-0.2,0-0.4-0.1c-0.2,0-0.3,0-0.4,0c-0.3,0-0.5,0-0.7,0    c-0.2,0-0.4,0.1-0.6,0.2v3.7h-1.8v-5.5h1.8v0.8c0.4-0.3,0.7-0.6,1-0.7c0.3-0.1,0.5-0.2,0.8-0.2c0.1,0,0.1,0,0.2,0    c0.1,0,0.1,0,0.2,0V359.5z"/> 		<path style="fill:#1A171B;" d="M398,360.6c0,0.9-0.3,1.6-0.8,2.1c-0.5,0.5-1.3,0.8-2.2,0.8s-1.7-0.3-2.2-0.8    c-0.5-0.5-0.8-1.2-0.8-2.1c0-0.9,0.3-1.6,0.8-2.1c0.5-0.5,1.3-0.8,2.2-0.8c1,0,1.7,0.3,2.2,0.8C397.7,359,398,359.7,398,360.6z     M395.8,361.9c0.1-0.1,0.2-0.3,0.3-0.5c0.1-0.2,0.1-0.5,0.1-0.8c0-0.3,0-0.6-0.1-0.8c-0.1-0.2-0.1-0.4-0.2-0.5    c-0.1-0.1-0.2-0.2-0.4-0.3c-0.1-0.1-0.3-0.1-0.5-0.1s-0.3,0-0.5,0.1c-0.1,0-0.3,0.1-0.4,0.3c-0.1,0.1-0.2,0.3-0.3,0.5    c-0.1,0.2-0.1,0.5-0.1,0.8c0,0.3,0,0.6,0.1,0.8s0.1,0.4,0.2,0.5c0.1,0.1,0.2,0.2,0.4,0.3c0.1,0.1,0.3,0.1,0.5,0.1    c0.2,0,0.3,0,0.5-0.1C395.6,362.1,395.7,362,395.8,361.9z"/> 		<path style="fill:#1A171B;" d="M402.1,363.5c-0.5,0-0.9-0.1-1.3-0.2c-0.4-0.1-0.7-0.3-1-0.5c-0.3-0.2-0.5-0.5-0.7-0.9    s-0.2-0.8-0.2-1.3c0-0.5,0.1-1,0.3-1.3c0.2-0.4,0.4-0.7,0.7-0.9c0.3-0.2,0.6-0.4,1-0.5s0.8-0.2,1.2-0.2c0.4,0,0.7,0,1,0.1    c0.3,0.1,0.6,0.2,0.9,0.3v1.5h-0.2c-0.1-0.1-0.2-0.1-0.2-0.2s-0.2-0.2-0.4-0.2c-0.1-0.1-0.3-0.1-0.4-0.2s-0.3-0.1-0.6-0.1    c-0.5,0-0.8,0.1-1.1,0.4s-0.4,0.7-0.4,1.2c0,0.5,0.1,0.9,0.4,1.2c0.3,0.3,0.6,0.4,1.1,0.4c0.2,0,0.4,0,0.6-0.1    c0.2,0,0.3-0.1,0.4-0.2c0.1-0.1,0.2-0.1,0.3-0.2c0.1-0.1,0.2-0.1,0.2-0.2h0.2v1.5c-0.3,0.1-0.6,0.2-0.9,0.3    C402.8,363.4,402.5,363.5,402.1,363.5z"/> 		<path style="fill:#1A171B;" d="M408.5,362.7c-0.1,0.1-0.2,0.2-0.4,0.3c-0.1,0.1-0.3,0.2-0.4,0.2c-0.2,0.1-0.4,0.1-0.5,0.2    s-0.4,0.1-0.6,0.1c-0.5,0-1-0.2-1.3-0.5s-0.5-0.7-0.5-1.2c0-0.4,0.1-0.7,0.3-1s0.4-0.5,0.8-0.6c0.3-0.1,0.7-0.3,1.2-0.3    c0.5-0.1,1-0.1,1.5-0.1v0c0-0.3-0.1-0.5-0.4-0.6s-0.6-0.2-1.1-0.2c-0.3,0-0.6,0.1-0.9,0.2s-0.6,0.2-0.7,0.2h-0.2v-1.3    c0.2,0,0.5-0.1,0.9-0.2c0.4-0.1,0.8-0.1,1.3-0.1c1,0,1.7,0.2,2.2,0.5c0.4,0.3,0.7,0.8,0.7,1.4v3.7h-1.7V362.7z M408.5,361.9v-1.1    c-0.2,0-0.5,0-0.8,0.1s-0.5,0.1-0.6,0.1c-0.2,0.1-0.3,0.1-0.4,0.2c-0.1,0.1-0.1,0.2-0.1,0.4c0,0.1,0,0.2,0,0.3    c0,0.1,0.1,0.1,0.1,0.2c0.1,0.1,0.2,0.1,0.3,0.1s0.3,0,0.5,0c0.2,0,0.4,0,0.5-0.1C408.2,362.1,408.3,362,408.5,361.9z"/> 	</g> </g> <g id="text_calatayud"> 	<g> 		<rect x="237.3" y="183.5" style="fill-rule:evenodd;clip-rule:evenodd;fill:none;" width="57.8" height="9"/> 		<path style="fill:#1A171B;" d="M243.5,191.3c-0.2,0.1-0.3,0.2-0.5,0.2c-0.1,0.1-0.3,0.1-0.5,0.2c-0.2,0.1-0.4,0.1-0.6,0.2    s-0.5,0.1-0.7,0.1c-0.5,0-1-0.1-1.4-0.2c-0.4-0.1-0.8-0.4-1.1-0.7c-0.3-0.3-0.5-0.7-0.7-1.2c-0.2-0.5-0.3-1-0.3-1.7    c0-0.6,0.1-1.1,0.2-1.6s0.4-0.9,0.7-1.2c0.3-0.3,0.6-0.6,1.1-0.7c0.4-0.2,0.9-0.2,1.4-0.2c0.4,0,0.7,0,1.1,0.1    c0.4,0.1,0.8,0.3,1.2,0.5v1.1h-0.1c-0.4-0.3-0.8-0.6-1.1-0.7s-0.8-0.2-1.2-0.2c-0.3,0-0.7,0.1-0.9,0.2s-0.5,0.3-0.7,0.6    c-0.2,0.2-0.4,0.6-0.5,0.9c-0.1,0.4-0.2,0.8-0.2,1.3c0,0.5,0.1,1,0.2,1.3c0.1,0.4,0.3,0.7,0.5,0.9c0.2,0.2,0.5,0.4,0.8,0.5    c0.3,0.1,0.6,0.2,0.9,0.2c0.4,0,0.9-0.1,1.2-0.2s0.7-0.4,1.1-0.7h0.1V191.3z"/> 		<path style="fill:#1A171B;" d="M248.8,191.9h-0.9v-0.6c-0.1,0.1-0.2,0.1-0.3,0.2s-0.3,0.2-0.4,0.2c-0.1,0.1-0.3,0.1-0.5,0.2    s-0.4,0.1-0.7,0.1c-0.5,0-0.9-0.2-1.2-0.5c-0.3-0.3-0.5-0.7-0.5-1.2c0-0.4,0.1-0.7,0.3-1s0.4-0.5,0.7-0.6c0.3-0.1,0.7-0.2,1.1-0.3    c0.4-0.1,0.9-0.1,1.4-0.1v-0.1c0-0.2,0-0.4-0.1-0.5c-0.1-0.1-0.2-0.2-0.3-0.3c-0.1-0.1-0.3-0.1-0.4-0.2c-0.2,0-0.4,0-0.5,0    c-0.2,0-0.5,0-0.8,0.1c-0.3,0.1-0.6,0.2-0.9,0.3h0v-0.9c0.2,0,0.4-0.1,0.7-0.2c0.3-0.1,0.6-0.1,0.9-0.1c0.4,0,0.7,0,0.9,0.1    s0.5,0.2,0.7,0.3c0.2,0.1,0.3,0.3,0.4,0.6s0.2,0.5,0.2,0.9V191.9z M247.9,190.5V189c-0.3,0-0.6,0-0.9,0.1s-0.6,0.1-0.9,0.1    c-0.2,0.1-0.5,0.2-0.6,0.3c-0.2,0.2-0.2,0.4-0.2,0.7c0,0.3,0.1,0.5,0.3,0.7s0.5,0.2,0.8,0.2c0.3,0,0.6-0.1,0.8-0.2    C247.4,190.8,247.7,190.7,247.9,190.5z"/> 		<path style="fill:#1A171B;" d="M251.3,191.9h-0.9v-7.6h0.9V191.9z"/> 		<path style="fill:#1A171B;" d="M257,191.9h-0.9v-0.6c-0.1,0.1-0.2,0.1-0.3,0.2s-0.3,0.2-0.4,0.2c-0.1,0.1-0.3,0.1-0.5,0.2    s-0.4,0.1-0.7,0.1c-0.5,0-0.9-0.2-1.2-0.5c-0.3-0.3-0.5-0.7-0.5-1.2c0-0.4,0.1-0.7,0.3-1s0.4-0.5,0.7-0.6c0.3-0.1,0.7-0.2,1.1-0.3    c0.4-0.1,0.9-0.1,1.4-0.1v-0.1c0-0.2,0-0.4-0.1-0.5c-0.1-0.1-0.2-0.2-0.3-0.3c-0.1-0.1-0.3-0.1-0.4-0.2c-0.2,0-0.4,0-0.5,0    c-0.2,0-0.5,0-0.8,0.1c-0.3,0.1-0.6,0.2-0.9,0.3h0v-0.9c0.2,0,0.4-0.1,0.7-0.2c0.3-0.1,0.6-0.1,0.9-0.1c0.4,0,0.7,0,0.9,0.1    s0.5,0.2,0.7,0.3c0.2,0.1,0.3,0.3,0.4,0.6s0.2,0.5,0.2,0.9V191.9z M256.2,190.5V189c-0.3,0-0.6,0-0.9,0.1s-0.6,0.1-0.9,0.1    c-0.2,0.1-0.5,0.2-0.6,0.3c-0.2,0.2-0.2,0.4-0.2,0.7c0,0.3,0.1,0.5,0.3,0.7s0.5,0.2,0.8,0.2c0.3,0,0.6-0.1,0.8-0.2    C255.7,190.8,255.9,190.7,256.2,190.5z"/> 		<path style="fill:#1A171B;" d="M261.4,191.8c-0.2,0-0.3,0.1-0.5,0.1s-0.4,0-0.5,0c-0.5,0-0.9-0.1-1.2-0.4    c-0.3-0.3-0.4-0.8-0.4-1.4v-2.9h-0.6v-0.8h0.6v-1.6h0.9v1.6h1.8v0.8h-1.8v2.5c0,0.3,0,0.5,0,0.7c0,0.2,0.1,0.3,0.1,0.5    c0.1,0.1,0.2,0.2,0.3,0.3c0.1,0.1,0.3,0.1,0.5,0.1c0.1,0,0.3,0,0.4-0.1c0.2,0,0.3-0.1,0.3-0.1h0V191.8z"/> 		<path style="fill:#1A171B;" d="M266.4,191.9h-0.9v-0.6c-0.1,0.1-0.2,0.1-0.3,0.2s-0.3,0.2-0.4,0.2c-0.1,0.1-0.3,0.1-0.5,0.2    s-0.4,0.1-0.7,0.1c-0.5,0-0.9-0.2-1.2-0.5c-0.3-0.3-0.5-0.7-0.5-1.2c0-0.4,0.1-0.7,0.3-1s0.4-0.5,0.7-0.6c0.3-0.1,0.7-0.2,1.1-0.3    c0.4-0.1,0.9-0.1,1.4-0.1v-0.1c0-0.2,0-0.4-0.1-0.5c-0.1-0.1-0.2-0.2-0.3-0.3c-0.1-0.1-0.3-0.1-0.4-0.2c-0.2,0-0.4,0-0.5,0    c-0.2,0-0.5,0-0.8,0.1c-0.3,0.1-0.6,0.2-0.9,0.3h0v-0.9c0.2,0,0.4-0.1,0.7-0.2c0.3-0.1,0.6-0.1,0.9-0.1c0.4,0,0.7,0,0.9,0.1    s0.5,0.2,0.7,0.3c0.2,0.1,0.3,0.3,0.4,0.6s0.2,0.5,0.2,0.9V191.9z M265.6,190.5V189c-0.3,0-0.6,0-0.9,0.1s-0.6,0.1-0.9,0.1    c-0.2,0.1-0.5,0.2-0.6,0.3c-0.2,0.2-0.2,0.4-0.2,0.7c0,0.3,0.1,0.5,0.3,0.7s0.5,0.2,0.8,0.2c0.3,0,0.6-0.1,0.8-0.2    C265.1,190.8,265.3,190.7,265.6,190.5z"/> 		<path style="fill:#1A171B;" d="M272.5,186.4l-3,7.5h-0.9l1-2.3l-2.1-5.2h0.9l1.6,4l1.6-4H272.5z"/> 		<path style="fill:#1A171B;" d="M277.9,191.9H277v-0.6c-0.3,0.2-0.6,0.4-0.8,0.6s-0.6,0.2-0.9,0.2c-0.5,0-1-0.2-1.3-0.5    c-0.3-0.4-0.5-0.9-0.5-1.5v-3.5h0.9v3.1c0,0.3,0,0.5,0,0.7c0,0.2,0.1,0.4,0.2,0.5c0.1,0.1,0.2,0.2,0.3,0.3    c0.1,0.1,0.3,0.1,0.6,0.1c0.2,0,0.5-0.1,0.7-0.2c0.3-0.1,0.5-0.3,0.7-0.5v-4.1h0.9V191.9z"/> 		<path style="fill:#1A171B;" d="M283.8,191.9h-0.9v-0.6c-0.2,0.2-0.5,0.4-0.8,0.5s-0.6,0.2-0.9,0.2c-0.6,0-1.1-0.3-1.5-0.8    c-0.4-0.5-0.5-1.2-0.5-2.1c0-0.5,0.1-0.9,0.2-1.2c0.1-0.4,0.3-0.7,0.5-0.9c0.2-0.2,0.5-0.4,0.7-0.6s0.6-0.2,0.9-0.2    c0.3,0,0.5,0,0.7,0.1s0.4,0.2,0.7,0.3v-2.4h0.9V191.9z M282.9,190.5v-3.1c-0.2-0.1-0.4-0.2-0.6-0.2s-0.4-0.1-0.6-0.1    c-0.5,0-0.9,0.2-1.1,0.5s-0.4,0.9-0.4,1.5c0,0.6,0.1,1.1,0.3,1.5s0.5,0.5,1,0.5c0.2,0,0.5-0.1,0.7-0.2    C282.5,190.9,282.7,190.7,282.9,190.5z"/> 	</g> 	<g> 		<rect x="166" y="199.9" style="fill-rule:evenodd;clip-rule:evenodd;fill:none;" width="63.4" height="9"/> 		<path style="fill:#1A171B;" d="M190.9,208.2h-1l-0.7-2h-3l-0.7,2h-0.9l2.5-7.3h1.2L190.9,208.2z M189,205.4l-1.2-3.6l-1.2,3.6H189    z"/> 		<path style="fill:#1A171B;" d="M194.5,208.2c-0.2,0-0.3,0.1-0.5,0.1s-0.4,0-0.5,0c-0.5,0-0.9-0.1-1.2-0.4    c-0.3-0.3-0.4-0.8-0.4-1.4v-2.9h-0.6v-0.8h0.6v-1.6h0.9v1.6h1.8v0.8h-1.8v2.5c0,0.3,0,0.5,0,0.7c0,0.2,0.1,0.3,0.1,0.5    c0.1,0.1,0.2,0.2,0.3,0.3c0.1,0.1,0.3,0.1,0.5,0.1c0.1,0,0.3,0,0.4-0.1c0.2,0,0.3-0.1,0.3-0.1h0V208.2z"/> 		<path style="fill:#1A171B;" d="M199.8,205.6H196c0,0.3,0,0.6,0.1,0.9c0.1,0.2,0.2,0.5,0.4,0.6c0.2,0.2,0.4,0.3,0.6,0.4    s0.5,0.1,0.7,0.1c0.4,0,0.7-0.1,1.1-0.2c0.4-0.1,0.6-0.3,0.8-0.4h0v1c-0.3,0.1-0.6,0.2-0.9,0.3c-0.3,0.1-0.6,0.1-1,0.1    c-0.9,0-1.5-0.2-2-0.7s-0.7-1.2-0.7-2.1c0-0.9,0.2-1.6,0.7-2.1s1.1-0.8,1.8-0.8c0.7,0,1.2,0.2,1.6,0.6s0.6,1,0.6,1.8V205.6z     M199,204.9c0-0.5-0.1-0.9-0.3-1.1c-0.2-0.3-0.6-0.4-1-0.4c-0.5,0-0.8,0.1-1.1,0.4s-0.4,0.6-0.5,1.1H199z"/> 		<path style="fill:#1A171B;" d="M205,207.9c-0.3,0.1-0.6,0.3-0.8,0.3c-0.3,0.1-0.5,0.1-0.8,0.1c-0.4,0-0.7-0.1-1-0.2    c-0.3-0.1-0.6-0.3-0.8-0.5c-0.2-0.2-0.4-0.5-0.5-0.9s-0.2-0.8-0.2-1.3c0-0.9,0.2-1.6,0.7-2.1s1.1-0.8,1.8-0.8c0.3,0,0.6,0,0.9,0.1    s0.5,0.2,0.8,0.3v1h0c-0.3-0.2-0.5-0.4-0.8-0.5s-0.6-0.2-0.8-0.2c-0.5,0-0.9,0.2-1.2,0.5c-0.3,0.4-0.4,0.9-0.4,1.5    c0,0.7,0.1,1.2,0.4,1.5s0.7,0.5,1.2,0.5c0.2,0,0.4,0,0.5-0.1s0.3-0.1,0.5-0.2c0.1-0.1,0.2-0.1,0.4-0.2c0.1-0.1,0.2-0.1,0.3-0.2h0    V207.9z"/> 		<path style="fill:#1A171B;" d="M210.1,208.2h-0.9v-0.6c-0.1,0.1-0.2,0.1-0.3,0.2s-0.3,0.2-0.4,0.2c-0.1,0.1-0.3,0.1-0.5,0.2    s-0.4,0.1-0.7,0.1c-0.5,0-0.9-0.2-1.2-0.5c-0.3-0.3-0.5-0.7-0.5-1.2c0-0.4,0.1-0.7,0.3-1s0.4-0.5,0.7-0.6c0.3-0.1,0.7-0.2,1.1-0.3    c0.4-0.1,0.9-0.1,1.4-0.1v-0.1c0-0.2,0-0.4-0.1-0.5c-0.1-0.1-0.2-0.2-0.3-0.3c-0.1-0.1-0.3-0.1-0.4-0.2c-0.2,0-0.4,0-0.5,0    c-0.2,0-0.5,0-0.8,0.1c-0.3,0.1-0.6,0.2-0.9,0.3h0v-0.9c0.2,0,0.4-0.1,0.7-0.2c0.3-0.1,0.6-0.1,0.9-0.1c0.4,0,0.7,0,0.9,0.1    s0.5,0.2,0.7,0.3c0.2,0.1,0.3,0.3,0.4,0.6s0.2,0.5,0.2,0.9V208.2z M209.2,206.9v-1.5c-0.3,0-0.6,0-0.9,0.1s-0.6,0.1-0.9,0.1    c-0.2,0.1-0.5,0.2-0.6,0.3c-0.2,0.2-0.2,0.4-0.2,0.7c0,0.3,0.1,0.5,0.3,0.7s0.5,0.2,0.8,0.2c0.3,0,0.6-0.1,0.8-0.2    C208.8,207.2,209,207.1,209.2,206.9z"/> 	</g> 	<circle style="fill-rule:evenodd;clip-rule:evenodd;fill:#5B7EBD;" cx="254.4" cy="200.4" r="2.4"/> 	<path style="fill-rule:evenodd;clip-rule:evenodd;fill:#C6C8C9;stroke:#FFFFDA;stroke-width:0.5669;stroke-miterlimit:3.8637;" d="   M167.7,209.3c-1.3-0.1-2.3-1.2-2.3-2.5"/> 	<circle style="fill-rule:evenodd;clip-rule:evenodd;fill:#5B7EBD;" cx="200.3" cy="214.9" r="2.4"/> </g> <g id="llegenda"> 	<line style="fill:none;stroke:#9A9A9A;stroke-width:2;stroke-miterlimit:10;" x1="361.5" y1="-183.5" x2="361.5" y2="-154"/> 	<g> 		<path d="M369.2-173.1h0.9v7.1h-0.9V-173.1z"/> 		<path d="M372.6-172.2c0,0.3-0.2,0.5-0.6,0.5c-0.3,0-0.5-0.2-0.5-0.5s0.2-0.5,0.5-0.5C372.4-172.8,372.6-172.5,372.6-172.2z     M371.6-166v-4.8h0.9v4.8H371.6z"/> 		<path d="M373.9-169.6c0-0.5,0-0.9,0-1.3h0.8l0,0.8h0c0.2-0.4,0.8-0.9,1.6-0.9c0.7,0,1.7,0.4,1.7,2.1v2.9h-0.9v-2.8    c0-0.8-0.3-1.4-1.1-1.4c-0.6,0-1,0.4-1.2,0.9c0,0.1-0.1,0.3-0.1,0.4v2.9h-0.9V-169.6z"/> 	</g> 	<line style="fill:none;stroke:#696969;stroke-width:2;stroke-miterlimit:10;" x1="361.5" y1="-144" x2="361.5" y2="-114.5"/> 	<g> 		<path d="M369.2-133.6h0.9v7.1h-0.9V-133.6z"/> 		<path d="M372.6-132.7c0,0.3-0.2,0.5-0.6,0.5c-0.3,0-0.5-0.2-0.5-0.5s0.2-0.5,0.5-0.5C372.4-133.2,372.6-133,372.6-132.7z     M371.6-126.5v-4.8h0.9v4.8H371.6z"/> 		<path d="M373.9-130c0-0.5,0-0.9,0-1.3h0.8l0,0.8h0c0.2-0.4,0.8-0.9,1.6-0.9c0.7,0,1.7,0.4,1.7,2.1v2.9h-0.9v-2.8    c0-0.8-0.3-1.4-1.1-1.4c-0.6,0-1,0.4-1.2,0.9c0,0.1-0.1,0.3-0.1,0.4v2.9h-0.9V-130z"/> 	</g> 	<rect x="356.2" y="-208.1" style="fill:#BFBFBF;" width="16.3" height="15.3"/> 	<rect x="356.2" y="-235.8" style="fill:#DCE9FB;" width="16.3" height="15.3"/> 	<g> 		<path d="M381.7-198.8v-4.2H381v-0.7h0.7v-0.2c0-0.7,0.2-1.3,0.6-1.7c0.3-0.3,0.8-0.4,1.2-0.4c0.3,0,0.6,0.1,0.8,0.1l-0.1,0.7    c-0.1-0.1-0.3-0.1-0.6-0.1c-0.8,0-0.9,0.6-0.9,1.4v0.3h1.2v0.7h-1.2v4.2H381.7z"/> 		<path d="M388.8-201.2c0,1.8-1.3,2.6-2.4,2.6c-1.3,0-2.3-1-2.3-2.5c0-1.6,1.1-2.6,2.4-2.6C387.8-203.7,388.8-202.7,388.8-201.2z     M384.9-201.2c0,1.1,0.6,1.9,1.5,1.9c0.8,0,1.5-0.8,1.5-1.9c0-0.8-0.4-1.8-1.4-1.8C385.4-203.1,384.9-202.1,384.9-201.2z"/> 		<path d="M389.9-202.3c0-0.5,0-0.9,0-1.3h0.8l0,0.8h0c0.2-0.4,0.8-0.9,1.6-0.9c0.7,0,1.7,0.4,1.7,2.1v2.9h-0.9v-2.8    c0-0.8-0.3-1.4-1.1-1.4c-0.6,0-1,0.4-1.2,0.9c0,0.1-0.1,0.3-0.1,0.4v2.9h-0.9V-202.3z"/> 		<path d="M395.3-199.7c0.3,0.2,0.7,0.3,1.2,0.3c0.6,0,0.9-0.3,0.9-0.7c0-0.4-0.3-0.6-0.9-0.9c-0.9-0.3-1.3-0.8-1.3-1.4    c0-0.8,0.6-1.4,1.7-1.4c0.5,0,0.9,0.1,1.2,0.3l-0.2,0.6c-0.2-0.1-0.5-0.3-1-0.3c-0.5,0-0.8,0.3-0.8,0.7c0,0.4,0.3,0.6,0.9,0.8    c0.8,0.3,1.3,0.7,1.3,1.4c0,0.9-0.7,1.5-1.8,1.5c-0.5,0-1-0.1-1.4-0.3L395.3-199.7z"/> 	</g> 	<g> 		<path d="M381.6-229.7c0-0.5,0-0.9,0-1.3h0.8l0,0.8h0c0.3-0.5,0.7-0.9,1.5-0.9c0.7,0,1.1,0.4,1.4,1h0c0.2-0.3,0.4-0.5,0.6-0.6    c0.3-0.2,0.6-0.3,1.1-0.3c0.7,0,1.6,0.4,1.6,2.1v2.8h-0.9v-2.7c0-0.9-0.3-1.5-1-1.5c-0.5,0-0.9,0.4-1,0.8c0,0.1-0.1,0.3-0.1,0.4v3    h-0.9v-2.9c0-0.8-0.3-1.3-1-1.3c-0.5,0-1,0.4-1.1,0.9c-0.1,0.1-0.1,0.3-0.1,0.4v2.9h-0.9V-229.7z"/> 		<path d="M393.3-227.3c0,0.4,0,0.8,0.1,1.2h-0.8l-0.1-0.6h0c-0.3,0.4-0.8,0.7-1.5,0.7c-1,0-1.5-0.7-1.5-1.4c0-1.2,1-1.8,2.9-1.8    v-0.1c0-0.4-0.1-1.1-1.1-1.1c-0.5,0-0.9,0.1-1.3,0.4l-0.2-0.6c0.4-0.3,1-0.4,1.6-0.4c1.5,0,1.8,1,1.8,2V-227.3z M392.5-228.6    c-1,0-2,0.1-2,1.1c0,0.6,0.4,0.8,0.8,0.8c0.6,0,1-0.4,1.2-0.8c0-0.1,0-0.2,0-0.3V-228.6z"/> 		<path d="M394.8-229.5c0-0.6,0-1.1,0-1.5h0.8l0,1h0c0.2-0.6,0.8-1.1,1.3-1.1c0.1,0,0.2,0,0.2,0v0.8c-0.1,0-0.2,0-0.3,0    c-0.6,0-1.1,0.5-1.2,1.1c0,0.1,0,0.3,0,0.4v2.6h-0.9V-229.5z"/> 	</g> 	<circle style="fill-rule:evenodd;clip-rule:evenodd;fill:#5B7EBD;" cx="339.8" cy="-166" r="2.4"/> 	 		<rect x="331.7" y="-208.1" style="fill:#BFBFBF;stroke:#696969;stroke-width:2;stroke-miterlimit:10;" width="16.3" height="15.3"/> 	 		<rect x="306.9" y="-208.1" style="fill:#FFFBF0;stroke:#9A9A9A;stroke-width:2;stroke-miterlimit:10;" width="16.3" height="15.3"/> 	<rect x="309.8" y="-254.8" style="opacity:0.7;fill:#FFFBF0;" width="92.8" height="9.6"/> </g> </svg>