<svg xmlns="http://www.w3.org/2000/svg" xmlns:xlink="http://www.w3.org/1999/xlink" version="1.1" x="0px" y="0px" width="449.9px" height="449.9px" viewBox="0 0 449.9 449.9" style="enable-background:new 0 0 449.9 449.9;" xml:space="preserve"> <g id="mar"> 	<rect x="-28" y="-26" style="fill-rule:evenodd;clip-rule:evenodd;fill:#DCE9FB;" width="500" height="504"/> </g> <g id="color_comarques_x5F_joan_x5F_2"> 	<path style="fill:#BFBFBF;stroke:#696969;stroke-width:2;stroke-miterlimit:10;" d="M-115.7,204.6c2.7-2.8,4.2-6.2,4.5-10.1   c4.1-1.3-1.6,2.3,5,2.2C-102.7,203.5-113.3,204-115.7,204.6C-115.7,203.3-115.7,204.6-115.7,204.6z"/> 	<a> 		<path style="fill:#BFBFBF;stroke:#696969;stroke-width:2;stroke-miterlimit:10;" d="M-140.5,263.1c-7.6-15.2,1.3-17.6,12-23.8    c2.2-1.3,22.9-25.2,12.9-25.1c8.1-0.1,21.8-10,31.3-10.1c5.6,16.3,7.2,15.7,19.3,25.6c4.8,0.2-0.4-5.5,1.9-5.6    c11.4-0.1,5.5,6.7,11,12.1c5.2-3.6,15.5-14.9,22.3-14.9c10,15,9.1-3.2,18.4-3.3c4.8-0.1,5.1,3.7,13.2,0.9    c4.6,25.1,38.4-19.1,39.8-29.5c12.8,1.6,21.2,0,21.6,13.3l4.6-3.5c2,24.2,10,64.1,10,64.1c10.1-12.5-3.9-54.3-3.9-72.5    c0-1.2,5.3-2.7,9.4-4c0.5,2.5,2.4,13.5,2.5,14.3c-9.6,8.2,12.9,17.9,21.6,23.2c5.5,3.4,20.7,7.2,29.6,13.1    c15.2,9.9,14,15.9,7.1,26.3c-9.8,14.8,11.5,19.2,22.5,19.5c2.7,0.1,15.2-2,17.4-1.8c2.7,0.3-1.9,4,0,4.7    c33.1,12.7-12.6,34.1-10.3,51.1c1.8,13.5,52.1,64.4,65.8,57c8.4,18.6-1.3,58.5-13.7,54.4c-21.3-7.1-20.7-10.6-26.3-7.7    c-15.4,8.1-9.3,16.4-34,2.4c-16.6-9.4-24.9-18-43.1-23c-13.9-3.8-18-20.3-24.8-16c-33.4,21-79.5,23.6-80,42.3    c-0.2,6-19.4,20.6-19.3,20.5c-2.1,0.7-32.8-1.5-34.2-2.3c-11.6-6.6-54.7-39.1-44-52c5.1-6.2-9.5-23.8-12.6-33.2    c-5.9-18.3,9.2-26.1,8-43.3c-2.3-35.5-52.5-32.4-42.5-72.2C-131.6,263.8-136.1,263.5-140.5,263.1L-140.5,263.1z"/> 	</a> 	<a> 		<path style="fill-rule:evenodd;clip-rule:evenodd;fill:#BFBFBF;stroke:#696969;stroke-width:2;stroke-miterlimit:10;" d="    M584.9,529.3c-23.7,7.5-50.8-22.8-70.3-27.4c-7.4-1.7-26.8-2.3-34.5,0.4c-17.8,6.2-24.4-10.2-36.8-23.1    c-8,14.6-19.7,23.5-32.2,33.9c-7.7-32.1-16.5,1-20.9,3c-11.6,5.2-28.5,4.8-39.6-1.3c-13.3-7.3-11.6-22.9-30.8-26.4    c-14.8-2.7-25.8-15.1-23.9-31c-10.8-2.5-19.8-11.7-27.2-20.4c-4.3-5-11.9,3.2-12.3-3c-0.7-11.6-14.2-9.8-15.4-7.7    c3.5-10.6-4.4-25.7-1.5-31.3c4.2-8.1,5.7-10.7,8.6-16c32.8,8.2,84.3-57.2,120.2-61.4c-1.3-2.4-2.6-4.8-3.9-7.1    c28.6-4,36.9-32.1,52.9-51.8c2.9-4.5,23.6-27.6,23.6-25c0.1,5.9-1.8,6-6.6,12.3c4.9-3.1,35.1,9,37.5,10.1    c-5.7-1.3-12.4,0.4-18.3,0.2c1.4,2.6,2.7,5.2,4.1,7.7c-4.6-8.3-11.6-12.5-21-12.4c2,2.8,9.6,10.3,8,10    c-6.6,11.6-5.4,14.9-5.7,17.2c5.9,1.7,6.9,3.7,12.5,4.9c-4.1-1.8-7.5,8.3-6,15.6c6.9-13.4,14.5-13.3,15-23.3    c1.7,1.2,3.5,2.3,5.2,3.5c-5.3,7.8-11.7,16.4-13.9,24.1c5.1-3.1,11.3-2.6,17.4-6.5c1.4,3.5,2.4,5.4,3.8,8.5    c1.1-0.8,2.1-1.5,3.2-2.3c-1.7,2,0.9-6.3,0.3-4.7c10.1,4.7,1.5,1.9,10.3-1.1c0.1,1-0.8,5.4-0.8,5.6c5.3-2.4,3.8-2.4,2.6-7    c0.6,0.1,4,4.4,5.6,5c-1.2-3.1-1.7-9.6-2.2-13.7c12.2-1.7,20.4,34.4,36.9,17.5c-5.6-22.8,35.2-20.7,43.5-36.3    c12.7,3.5,7.4,18.8,26.6,18.6c19.1-0.2,18.2,15.1,31.2,27c-18,18.3,17,17.3,15.8,33.1c-1.3,16.1,11.9,32.8,19.3,49.6    c-3.5-1-7.6,0.1-12.6-2c-2.4,15.4-10.8,23.7-20.7,34.7c-7.1,7.9-0.2,26.5,0,36.7c0.3,20.7,9.6,73.5-22.7,63.3"/> 	</a> 	<a> 		<path style="fill:#BFBFBF;stroke:#696969;stroke-width:2;stroke-miterlimit:10;" d="M42.4,525.4c-5.7-20.2-21.5-31.9-33.9-48    c-17.9-23.1-0.8-9,8.5-32.5c7-17.5,35.2-19.5,55.3-28.7c13.6-6.2,17.7-8,24.5-12.7c5.1-3.6,15.9,15.8,29,17.4    c14.6,1.8,56.2,38.7,63.5,27.7c14.8-22.3,26.1,1.7,39.3-0.3c9.4-1.4,8.1-21.5,15.7-24.7c6.2-2.5,11.1,2.9,11.8,6.7    c2.1,11.6,6.3,1.2,12.5,6.6c9.1,7.9,11.7,16.8,27.2,20.4c-1.9,15.9,9.1,28.2,23.9,31c19.1,3.5,17.5,19.1,30.8,26.4    c11.1,6.1,28,6.5,39.6,1.3c4.4-2,13.3-35.1,20.9-3c12.5-10.4,24.3-19.4,32.2-33.9c21.4,22.5,36.1,29.9,65.9,23.8    c27.9-5.7,45.4,35.9,75.6,26.3"/> 	</a> 	<line style="fill:#BFBFBF;stroke:#696969;stroke-width:2;stroke-miterlimit:10;" x1="609.3" y1="529.4" x2="629.2" y2="529.5"/> </g> <g id="color_cabo_Peñas"> 	<a> 		<path style="fill-rule:evenodd;clip-rule:evenodd;fill:#FFFBF0;stroke:#9A9A9A;stroke-width:2;stroke-miterlimit:10;" d="    M73.3,189.9c-0.2,2.2-0.5,4.4-0.7,6.6c-10.1-3.5-36.8-5.5-42.2-12.9c14-10.7,19.5-3.3,33.8-3.5c22.6-0.2,17.4-38.9,25.2-39    c2.7-11-18.2-17.5,5.8-17.7c0,0,9.7,0.3,11.7-10.5c3.4-1.2,3.4,5.2,4,7.2c3.4,1.1,3.5-3.2,3.5-4.4c12.6-3.8,30.9,20.4,30.6-5.4    c8.2-6.6,32.6-9.9,32.5-22.6C177.3,77,167,47,187.6,46.8c15.5-3.1,24.8,8.6,25,23.7c0.1,11.1,15.3,24,20.4,6.1    c2.5-1,14.7,4.2,18.1,4.2c9.8-0.1-0.8,32.1,5.1,32.1c2.8,0,4.8-15.6,5.9-17.3c4.5,2.6,16.7,1.3,19.2,1.2c4.4,5.7-0.8,7.4-0.8,12.6    c3.7,3.5,17.4-3.9,17.9-3.9c13.5-0.1-5.3,35.4-11.5,39.1c0.8,2,19.1,16.3,26,20.9c3.4,1.1,1.4-10.8,12.5,0.1    c-0.5,5.1-2.1,10-4.6,14.8c-1.1,2.1-4.4-5.8-4.6-3.3c-2.3,37.1-91,64-122,100.6c-8.6,10.2-33.6,8-39.8,5.1    c-33.1-15.5,4.4-19.9-9.8-38.7c-9.6-12.7-75.6-28.8-58.9-42.9c-0.1-0.8-2-11.8-2.5-14.3C79.9,187.9,76.6,188.9,73.3,189.9    L73.3,189.9z"/> 	</a> 	<a> 		<path style="fill-rule:evenodd;clip-rule:evenodd;fill:#FFFBF0;stroke:#9A9A9A;stroke-width:2;stroke-miterlimit:10;" d="    M318.1,176.8c6.2,5.5,10.7,14.3,11.4,14.3c0,0,7.5-4.2,7.9-4.4c3.7,6.7-3.9,28.8,13.4,28.7c11.3-0.1,12-4.1,12.1,12    c0.1,5.2,8.1-3.1,8.5-3.1c1.1,0,42.9,30.1,44.5,26.7c-10,20.4-25,55.7-51.5,59.5c1.3,2.4,2.6,4.8,3.9,7.1    c-35.9,4.3-87.4,69.6-120.2,61.4c-11.4,41.1-47.5-7.5-61.2-22.2c-10.9-11.7-21.4-16.1-11.6-30.4c9.4-13.6,31.9-31.2,7.9-40.9    c25-22.5,47.2-39.8,77.3-56c18.1-9.8,51.6-28.9,54.3-51.9L318.1,176.8z"/> 	</a> </g> <g id="text-comarques"> 	<g> 		 			<rect x="28.9" y="309.1" transform="matrix(-1 -7.334550e-005 7.334550e-005 -1 150.9612 631.7819)" style="fill-rule:evenodd;clip-rule:evenodd;fill:none;" width="93.1" height="13.6"/> 		<path style="fill:#1A171B;" d="M36.7,317.8c-0.5,0-1-0.1-1.5-0.2c-0.5-0.2-0.9-0.4-1.2-0.7s-0.6-0.7-0.8-1.2s-0.3-1-0.3-1.6    c0-0.6,0.1-1.1,0.3-1.6s0.4-0.9,0.8-1.2c0.3-0.3,0.7-0.6,1.2-0.7c0.5-0.2,1-0.3,1.5-0.3c0.3,0,0.6,0,0.8,0.1s0.5,0.1,0.7,0.1    c0.2,0.1,0.4,0.1,0.6,0.2c0.2,0.1,0.3,0.1,0.5,0.2v1.8h-0.2c-0.1-0.1-0.2-0.2-0.3-0.3c-0.1-0.1-0.3-0.2-0.5-0.3    c-0.2-0.1-0.4-0.2-0.6-0.3s-0.4-0.1-0.7-0.1c-0.3,0-0.5,0-0.8,0.1s-0.5,0.2-0.7,0.4c-0.2,0.2-0.3,0.4-0.5,0.7    c-0.1,0.3-0.2,0.7-0.2,1.1c0,0.5,0.1,0.8,0.2,1.1c0.1,0.3,0.3,0.5,0.5,0.7c0.2,0.2,0.4,0.3,0.7,0.4s0.5,0.1,0.7,0.1    c0.2,0,0.5,0,0.7-0.1c0.2-0.1,0.4-0.2,0.6-0.3c0.2-0.1,0.3-0.2,0.4-0.3c0.1-0.1,0.2-0.2,0.3-0.3h0.2v1.7c-0.2,0.1-0.4,0.2-0.5,0.2    s-0.3,0.1-0.5,0.2c-0.2,0.1-0.5,0.1-0.7,0.2S37.1,317.8,36.7,317.8z"/> 		<path style="fill:#1A171B;" d="M46.2,314.9c0,0.9-0.3,1.6-0.8,2.1c-0.5,0.5-1.3,0.8-2.2,0.8s-1.7-0.3-2.2-0.8    c-0.5-0.5-0.8-1.2-0.8-2.1c0-0.9,0.3-1.6,0.8-2.1s1.3-0.8,2.2-0.8c1,0,1.7,0.3,2.2,0.8S46.2,314,46.2,314.9z M44,316.2    c0.1-0.1,0.2-0.3,0.3-0.5c0.1-0.2,0.1-0.5,0.1-0.8c0-0.3,0-0.6-0.1-0.8c-0.1-0.2-0.1-0.4-0.2-0.5c-0.1-0.1-0.2-0.2-0.4-0.3    s-0.3-0.1-0.5-0.1s-0.3,0-0.5,0.1s-0.3,0.1-0.4,0.3c-0.1,0.1-0.2,0.3-0.3,0.5c-0.1,0.2-0.1,0.5-0.1,0.8c0,0.3,0,0.6,0.1,0.8    s0.1,0.4,0.2,0.5c0.1,0.1,0.2,0.2,0.4,0.3s0.3,0.1,0.5,0.1c0.2,0,0.3,0,0.5-0.1S43.9,316.3,44,316.2z"/> 		<path style="fill:#1A171B;" d="M52.8,313.7l0,3.9h-1.8v-2.7c0-0.3,0-0.5,0-0.7c0-0.2,0-0.3-0.1-0.5s-0.1-0.2-0.3-0.3    s-0.3-0.1-0.5-0.1c-0.2,0-0.3,0-0.5,0.1c-0.2,0.1-0.3,0.1-0.4,0.2l0,3.9l-1.8,0l0-5.5l1.8,0v0.6c0.3-0.2,0.6-0.4,0.9-0.6    s0.6-0.2,0.9-0.2c0.4,0,0.7,0.1,1,0.2s0.5,0.4,0.6,0.7c0.4-0.3,0.7-0.5,1-0.7s0.7-0.3,1-0.3c0.6,0,1,0.2,1.3,0.5s0.5,0.9,0.5,1.5    v3.6h-1.8v-2.7c0-0.3,0-0.5,0-0.7s0-0.3-0.1-0.5c-0.1-0.1-0.1-0.2-0.3-0.3s-0.3-0.1-0.5-0.1c-0.1,0-0.3,0-0.4,0.1    C53.2,313.5,53,313.6,52.8,313.7z"/> 		<path style="fill:#1A171B;" d="M61.4,317c-0.1,0.1-0.2,0.2-0.4,0.3s-0.3,0.2-0.4,0.2c-0.2,0.1-0.4,0.1-0.5,0.2    c-0.2,0-0.4,0.1-0.6,0.1c-0.5,0-1-0.2-1.3-0.5s-0.5-0.7-0.5-1.2c0-0.4,0.1-0.7,0.3-1s0.4-0.5,0.8-0.6c0.3-0.1,0.7-0.3,1.2-0.3    c0.5-0.1,1-0.1,1.5-0.1v0c0-0.3-0.1-0.5-0.4-0.6c-0.2-0.1-0.6-0.2-1.1-0.2c-0.3,0-0.6,0.1-0.9,0.2s-0.6,0.2-0.7,0.2h-0.2v-1.3    c0.2,0,0.5-0.1,0.9-0.2c0.4-0.1,0.8-0.1,1.3-0.1c1,0,1.7,0.2,2.2,0.5s0.7,0.8,0.7,1.4l0,3.7h-1.7V317z M61.4,316.2V315    c-0.2,0-0.5,0-0.8,0.1s-0.5,0.1-0.6,0.1c-0.2,0.1-0.3,0.1-0.4,0.2s-0.1,0.2-0.1,0.4c0,0.1,0,0.2,0,0.3s0.1,0.1,0.1,0.2    c0.1,0.1,0.2,0.1,0.3,0.1c0.1,0,0.3,0,0.5,0c0.2,0,0.4,0,0.5-0.1C61.1,316.4,61.2,316.3,61.4,316.2z"/> 		<path style="fill:#1A171B;" d="M68.7,313.8h-0.2c-0.1,0-0.2,0-0.4-0.1c-0.2,0-0.3,0-0.4,0c-0.3,0-0.5,0-0.7,0    c-0.2,0-0.4,0.1-0.6,0.2v3.7h-1.8l0-5.5h1.8v0.8c0.4-0.3,0.7-0.6,1-0.7c0.3-0.1,0.5-0.2,0.8-0.2c0.1,0,0.1,0,0.2,0s0.1,0,0.2,0    V313.8z"/> 		<path style="fill:#1A171B;" d="M72.5,317.8c-0.5,0-0.9-0.1-1.3-0.2s-0.7-0.3-1-0.5c-0.3-0.2-0.5-0.5-0.7-0.9s-0.2-0.8-0.2-1.3    c0-0.5,0.1-1,0.3-1.3c0.2-0.4,0.4-0.7,0.7-0.9c0.3-0.2,0.6-0.4,1-0.5s0.8-0.2,1.2-0.2c0.4,0,0.7,0,1,0.1s0.6,0.2,0.9,0.3v1.5h-0.2    c-0.1-0.1-0.2-0.1-0.2-0.2c-0.1-0.1-0.2-0.2-0.4-0.2c-0.1-0.1-0.3-0.1-0.4-0.2c-0.2,0-0.3-0.1-0.6-0.1c-0.5,0-0.8,0.1-1.1,0.4    c-0.3,0.3-0.4,0.7-0.4,1.2c0,0.5,0.1,0.9,0.4,1.2s0.6,0.4,1.1,0.4c0.2,0,0.4,0,0.6-0.1c0.2,0,0.3-0.1,0.4-0.2    c0.1-0.1,0.2-0.1,0.3-0.2c0.1-0.1,0.2-0.1,0.2-0.2h0.2v1.5c-0.3,0.1-0.6,0.2-0.9,0.3C73.2,317.7,72.9,317.8,72.5,317.8z"/> 		<path style="fill:#1A171B;" d="M78.9,317c-0.1,0.1-0.2,0.2-0.4,0.3s-0.3,0.2-0.4,0.2c-0.2,0.1-0.4,0.1-0.5,0.2    c-0.2,0-0.4,0.1-0.6,0.1c-0.5,0-1-0.2-1.3-0.5s-0.5-0.7-0.5-1.2c0-0.4,0.1-0.7,0.3-1s0.4-0.5,0.8-0.6c0.3-0.1,0.7-0.3,1.2-0.3    s1-0.1,1.5-0.1v0c0-0.3-0.1-0.5-0.4-0.6c-0.2-0.1-0.6-0.2-1.1-0.2c-0.3,0-0.6,0.1-0.9,0.2s-0.6,0.2-0.7,0.2h-0.2v-1.3    c0.2,0,0.5-0.1,0.9-0.2c0.4-0.1,0.8-0.1,1.3-0.1c1,0,1.7,0.2,2.2,0.5s0.7,0.8,0.7,1.4l0,3.7h-1.7V317z M78.9,316.2V315    c-0.2,0-0.5,0-0.8,0.1s-0.5,0.1-0.6,0.1c-0.2,0.1-0.3,0.1-0.4,0.2s-0.1,0.2-0.1,0.4c0,0.1,0,0.2,0,0.3s0.1,0.1,0.1,0.2    c0.1,0.1,0.2,0.1,0.3,0.1c0.1,0,0.3,0,0.5,0c0.2,0,0.4,0,0.5-0.1C78.6,316.4,78.8,316.3,78.9,316.2z"/> 		<path style="fill:#1A171B;" d="M92.5,317.6h-1.9l-0.5-1.5h-2.7l-0.5,1.5H85l2.7-7.3h2.2L92.5,317.6z M89.6,314.8l-0.9-2.6    l-0.9,2.6H89.6z"/> 		<path style="fill:#1A171B;" d="M99,312.1l-2.1,5.5l-2,0l-2.1-5.5h1.9l1.3,3.8l1.3-3.8H99z"/> 		<path style="fill:#1A171B;" d="M101.7,311.4h-1.9V310h1.9V311.4z M101.7,317.6h-1.8l0-5.5h1.8L101.7,317.6z"/> 		<path style="fill:#1A171B;" d="M105.1,317.6h-1.8l0-7.6h1.8L105.1,317.6z"/> 		<path style="fill:#1A171B;" d="M112.2,315.2l-4,0c0,0.4,0.2,0.8,0.5,1c0.3,0.2,0.7,0.3,1.3,0.3c0.4,0,0.7-0.1,1.1-0.2    s0.6-0.3,0.8-0.4h0.2v1.4c-0.4,0.2-0.8,0.3-1.1,0.3s-0.7,0.1-1.2,0.1c-1.1,0-1.9-0.2-2.5-0.7s-0.9-1.2-0.9-2.1    c0-0.9,0.3-1.6,0.8-2.2c0.6-0.5,1.3-0.8,2.3-0.8c0.9,0,1.6,0.2,2,0.7c0.4,0.5,0.7,1.1,0.7,1.9V315.2z M110.4,314.2    c0-0.4-0.1-0.6-0.3-0.8s-0.4-0.3-0.8-0.3c-0.3,0-0.6,0.1-0.8,0.3s-0.3,0.5-0.4,0.8L110.4,314.2z M111.1,309.4L111.1,309.4    l-1.7,1.9l-1.2,0l1.2-1.9H111.1z"/> 		<path style="fill:#1A171B;" d="M118.2,315.9c0,0.6-0.3,1-0.8,1.4s-1.2,0.5-2.1,0.5c-0.5,0-0.9,0-1.3-0.1s-0.7-0.2-1-0.3v-1.4h0.2    c0.1,0.1,0.2,0.1,0.3,0.2s0.3,0.2,0.5,0.2c0.2,0.1,0.4,0.1,0.6,0.2s0.5,0.1,0.7,0.1c0.3,0,0.6,0,0.8-0.1c0.2-0.1,0.2-0.2,0.2-0.3    c0-0.1,0-0.2-0.1-0.3c-0.1-0.1-0.3-0.1-0.6-0.2c-0.1,0-0.3-0.1-0.5-0.1s-0.4-0.1-0.6-0.1c-0.5-0.1-0.9-0.3-1.1-0.6    c-0.2-0.3-0.4-0.6-0.4-1c0-0.5,0.3-1,0.7-1.3c0.5-0.3,1.2-0.5,2-0.5c0.4,0,0.8,0,1.2,0.1s0.7,0.2,0.9,0.3v1.4h-0.2    c-0.3-0.2-0.6-0.3-0.9-0.4s-0.7-0.2-1-0.2c-0.3,0-0.5,0-0.7,0.1s-0.3,0.2-0.3,0.3c0,0.1,0,0.2,0.1,0.3c0.1,0.1,0.3,0.1,0.6,0.2    c0.2,0,0.4,0.1,0.6,0.1s0.4,0.1,0.6,0.1c0.5,0.1,0.8,0.3,1,0.6S118.2,315.5,118.2,315.9z"/> 	</g> 	<g> 		 			<rect x="44.2" y="432.9" transform="matrix(-1 -8.216699e-005 8.216699e-005 -1 195.2104 879.4436)" style="fill-rule:evenodd;clip-rule:evenodd;fill:none;" width="106.8" height="13.6"/> 		<path style="fill:#1A171B;" d="M52,441.6c-0.5,0-1-0.1-1.5-0.2s-0.9-0.4-1.2-0.7s-0.6-0.7-0.8-1.2s-0.3-1-0.3-1.6    c0-0.6,0.1-1.1,0.3-1.6c0.2-0.5,0.4-0.9,0.8-1.2c0.3-0.3,0.7-0.6,1.2-0.7s1-0.3,1.5-0.3c0.3,0,0.6,0,0.8,0.1s0.5,0.1,0.7,0.1    c0.2,0.1,0.4,0.1,0.6,0.2c0.2,0.1,0.3,0.1,0.5,0.2l0,1.8h-0.2c-0.1-0.1-0.2-0.2-0.3-0.3c-0.1-0.1-0.3-0.2-0.5-0.3    c-0.2-0.1-0.4-0.2-0.6-0.3s-0.4-0.1-0.7-0.1c-0.3,0-0.5,0-0.8,0.1s-0.5,0.2-0.7,0.4c-0.2,0.2-0.3,0.4-0.5,0.7    c-0.1,0.3-0.2,0.7-0.2,1.1c0,0.5,0.1,0.8,0.2,1.1c0.1,0.3,0.3,0.5,0.5,0.7c0.2,0.2,0.4,0.3,0.7,0.4s0.5,0.1,0.7,0.1    c0.2,0,0.5,0,0.7-0.1c0.2-0.1,0.4-0.2,0.6-0.3c0.2-0.1,0.3-0.2,0.4-0.3c0.1-0.1,0.2-0.2,0.3-0.3h0.2v1.7c-0.2,0.1-0.4,0.2-0.5,0.2    s-0.3,0.1-0.5,0.2c-0.2,0.1-0.5,0.1-0.7,0.2S52.3,441.6,52,441.6z"/> 		<path style="fill:#1A171B;" d="M61.4,438.7c0,0.9-0.3,1.6-0.8,2.1c-0.5,0.5-1.3,0.8-2.2,0.8s-1.7-0.3-2.2-0.8    c-0.5-0.5-0.8-1.2-0.8-2.1c0-0.9,0.3-1.6,0.8-2.1s1.3-0.8,2.2-0.8c1,0,1.7,0.3,2.2,0.8S61.4,437.8,61.4,438.7z M59.3,440    c0.1-0.1,0.2-0.3,0.3-0.5c0.1-0.2,0.1-0.5,0.1-0.8c0-0.3,0-0.6-0.1-0.8s-0.1-0.4-0.2-0.5c-0.1-0.1-0.2-0.2-0.4-0.3    s-0.3-0.1-0.5-0.1s-0.3,0-0.5,0.1s-0.3,0.1-0.4,0.3c-0.1,0.1-0.2,0.3-0.3,0.5s-0.1,0.5-0.1,0.8c0,0.3,0,0.6,0.1,0.8    s0.1,0.4,0.2,0.5c0.1,0.1,0.2,0.2,0.4,0.3s0.3,0.1,0.5,0.1c0.2,0,0.3,0,0.5-0.1S59.2,440.2,59.3,440z"/> 		<path style="fill:#1A171B;" d="M68.1,437.6v3.9h-1.8v-2.7c0-0.3,0-0.5,0-0.7c0-0.2,0-0.3-0.1-0.5s-0.1-0.2-0.3-0.3    s-0.3-0.1-0.5-0.1c-0.2,0-0.3,0-0.5,0.1c-0.2,0.1-0.3,0.1-0.4,0.2v3.9h-1.8l0-5.5h1.8l0,0.6c0.3-0.2,0.6-0.4,0.9-0.6    c0.3-0.1,0.6-0.2,0.9-0.2c0.4,0,0.7,0.1,1,0.2c0.3,0.2,0.5,0.4,0.6,0.7c0.4-0.3,0.7-0.5,1-0.7c0.3-0.2,0.7-0.3,1-0.3    c0.6,0,1,0.2,1.3,0.5c0.3,0.4,0.5,0.9,0.5,1.5v3.6h-1.8v-2.7c0-0.3,0-0.5,0-0.7s0-0.3-0.1-0.5c-0.1-0.1-0.1-0.2-0.3-0.3    s-0.3-0.1-0.5-0.1c-0.1,0-0.3,0-0.4,0.1C68.4,437.4,68.3,437.4,68.1,437.6z"/> 		<path style="fill:#1A171B;" d="M76.6,440.9c-0.1,0.1-0.2,0.2-0.4,0.3s-0.3,0.2-0.4,0.2c-0.2,0.1-0.4,0.1-0.5,0.2    c-0.2,0-0.4,0.1-0.6,0.1c-0.5,0-1-0.2-1.3-0.5s-0.5-0.7-0.5-1.2c0-0.4,0.1-0.7,0.3-1s0.4-0.5,0.8-0.6c0.3-0.1,0.7-0.3,1.2-0.3    s1-0.1,1.5-0.1v0c0-0.3-0.1-0.5-0.4-0.6c-0.2-0.1-0.6-0.2-1.1-0.2c-0.3,0-0.6,0.1-0.9,0.2s-0.6,0.2-0.7,0.2h-0.2v-1.3    c0.2,0,0.5-0.1,0.9-0.2c0.4-0.1,0.8-0.1,1.3-0.1c1,0,1.7,0.2,2.2,0.5c0.4,0.3,0.7,0.8,0.7,1.4v3.7h-1.7V440.9z M76.6,440v-1.1    c-0.2,0-0.5,0-0.8,0.1s-0.5,0.1-0.6,0.1c-0.2,0.1-0.3,0.1-0.4,0.2s-0.1,0.2-0.1,0.4c0,0.1,0,0.2,0,0.3s0.1,0.1,0.1,0.2    c0.1,0.1,0.2,0.1,0.3,0.1c0.1,0,0.3,0,0.5,0c0.2,0,0.4,0,0.5-0.1C76.3,440.2,76.5,440.1,76.6,440z"/> 		<path style="fill:#1A171B;" d="M83.9,437.6h-0.2c-0.1,0-0.2,0-0.4-0.1c-0.2,0-0.3,0-0.4,0c-0.3,0-0.5,0-0.7,0    c-0.2,0-0.4,0.1-0.6,0.2v3.7H80l0-5.5h1.8l0,0.8c0.4-0.3,0.7-0.6,1-0.7c0.3-0.1,0.5-0.2,0.8-0.2c0.1,0,0.1,0,0.2,0s0.1,0,0.2,0    L83.9,437.6z"/> 		<path style="fill:#1A171B;" d="M87.8,441.6c-0.5,0-0.9-0.1-1.3-0.2s-0.7-0.3-1-0.5c-0.3-0.2-0.5-0.5-0.7-0.9s-0.2-0.8-0.2-1.3    c0-0.5,0.1-1,0.3-1.3s0.4-0.7,0.7-0.9c0.3-0.2,0.6-0.4,1-0.5c0.4-0.1,0.8-0.2,1.2-0.2c0.4,0,0.7,0,1,0.1c0.3,0.1,0.6,0.2,0.9,0.3    v1.5h-0.2c-0.1-0.1-0.2-0.1-0.2-0.2c-0.1-0.1-0.2-0.2-0.4-0.2c-0.1-0.1-0.3-0.1-0.4-0.2c-0.2,0-0.3-0.1-0.6-0.1    c-0.5,0-0.8,0.1-1.1,0.4s-0.4,0.7-0.4,1.2c0,0.5,0.1,0.9,0.4,1.2s0.6,0.4,1.1,0.4c0.2,0,0.4,0,0.6-0.1c0.2,0,0.3-0.1,0.4-0.2    c0.1-0.1,0.2-0.1,0.3-0.2c0.1-0.1,0.2-0.1,0.2-0.2h0.2v1.5c-0.3,0.1-0.6,0.2-0.9,0.3C88.5,441.6,88.2,441.6,87.8,441.6z"/> 		<path style="fill:#1A171B;" d="M94.1,440.9c-0.1,0.1-0.2,0.2-0.4,0.3s-0.3,0.2-0.4,0.2c-0.2,0.1-0.4,0.1-0.5,0.2    c-0.2,0-0.4,0.1-0.6,0.1c-0.5,0-1-0.2-1.3-0.5s-0.5-0.7-0.5-1.2c0-0.4,0.1-0.7,0.3-1s0.4-0.5,0.8-0.6c0.3-0.1,0.7-0.3,1.2-0.3    s1-0.1,1.5-0.1v0c0-0.3-0.1-0.5-0.4-0.6c-0.2-0.1-0.6-0.2-1.1-0.2c-0.3,0-0.6,0.1-0.9,0.2s-0.6,0.2-0.7,0.2h-0.2v-1.3    c0.2,0,0.5-0.1,0.9-0.2c0.4-0.1,0.8-0.1,1.3-0.1c1,0,1.7,0.2,2.2,0.5c0.4,0.3,0.7,0.8,0.7,1.4v3.7h-1.7V440.9z M94.1,440v-1.1    c-0.2,0-0.5,0-0.8,0.1s-0.5,0.1-0.6,0.1c-0.2,0.1-0.3,0.1-0.4,0.2s-0.1,0.2-0.1,0.4c0,0.1,0,0.2,0,0.3s0.1,0.1,0.1,0.2    c0.1,0.1,0.2,0.1,0.3,0.1c0.1,0,0.3,0,0.5,0c0.2,0,0.4,0,0.5-0.1C93.8,440.2,94,440.1,94.1,440z"/> 		<path style="fill:#1A171B;" d="M106.2,441.5h-1.8v-0.6c-0.3,0.2-0.6,0.4-0.8,0.5s-0.6,0.2-0.9,0.2c-0.7,0-1.2-0.3-1.6-0.8    c-0.4-0.5-0.6-1.2-0.6-2.1c0-0.5,0.1-0.9,0.2-1.2c0.1-0.4,0.3-0.7,0.6-0.9c0.2-0.2,0.5-0.4,0.8-0.6c0.3-0.1,0.6-0.2,0.9-0.2    c0.3,0,0.6,0,0.8,0.1c0.2,0.1,0.4,0.2,0.6,0.3l0-2.3h1.8L106.2,441.5z M104.5,439.9v-2.7c-0.1-0.1-0.3-0.1-0.4-0.1s-0.3,0-0.4,0    c-0.5,0-0.8,0.1-1,0.4c-0.2,0.3-0.3,0.7-0.3,1.2c0,0.5,0.1,0.9,0.3,1.2s0.5,0.4,0.9,0.4c0.2,0,0.3,0,0.5-0.1    C104.2,440.1,104.3,440,104.5,439.9z"/> 		<path style="fill:#1A171B;" d="M113.3,439h-4c0,0.4,0.2,0.8,0.5,1s0.7,0.3,1.3,0.3c0.4,0,0.7-0.1,1.1-0.2s0.6-0.3,0.8-0.4h0.2v1.4    c-0.4,0.2-0.8,0.3-1.1,0.3s-0.7,0.1-1.2,0.1c-1.1,0-1.9-0.2-2.5-0.7c-0.6-0.5-0.9-1.2-0.9-2.1c0-0.9,0.3-1.6,0.8-2.2    c0.6-0.5,1.3-0.8,2.3-0.8c0.9,0,1.6,0.2,2,0.7c0.4,0.5,0.7,1.1,0.7,1.9V439z M111.6,438c0-0.4-0.1-0.6-0.3-0.8s-0.4-0.3-0.8-0.3    c-0.3,0-0.6,0.1-0.8,0.3s-0.3,0.5-0.4,0.8H111.6z"/> 		<path style="fill:#1A171B;" d="M116.3,441.5h-1.8l0-7.6h1.8L116.3,441.5z"/> 		<path style="fill:#1A171B;" d="M128.1,441.5h-1.8l-3.1-5v5h-1.7l0-7.3h2.2l2.7,4.2l0-4.2h1.7L128.1,441.5z"/> 		<path style="fill:#1A171B;" d="M135.5,438.7c0,0.9-0.3,1.6-0.8,2.1c-0.5,0.5-1.3,0.8-2.2,0.8c-1,0-1.7-0.3-2.2-0.8    c-0.5-0.5-0.8-1.2-0.8-2.1c0-0.9,0.3-1.6,0.8-2.1s1.3-0.8,2.2-0.8c1,0,1.7,0.3,2.2,0.8S135.5,437.8,135.5,438.7z M133.3,440    c0.1-0.1,0.2-0.3,0.3-0.5c0.1-0.2,0.1-0.5,0.1-0.8c0-0.3,0-0.6-0.1-0.8s-0.1-0.4-0.2-0.5c-0.1-0.1-0.2-0.2-0.4-0.3    s-0.3-0.1-0.5-0.1s-0.3,0-0.5,0.1s-0.3,0.1-0.4,0.3c-0.1,0.1-0.2,0.3-0.3,0.5s-0.1,0.5-0.1,0.8c0,0.3,0,0.6,0.1,0.8    s0.1,0.4,0.2,0.5c0.1,0.1,0.2,0.2,0.4,0.3s0.3,0.1,0.5,0.1c0.2,0,0.3,0,0.5-0.1S133.2,440.2,133.3,440z"/> 		<path style="fill:#1A171B;" d="M140.7,437.6h-0.2c-0.1,0-0.2,0-0.4-0.1c-0.2,0-0.3,0-0.4,0c-0.3,0-0.5,0-0.7,0    c-0.2,0-0.4,0.1-0.6,0.2v3.7h-1.8l0-5.5h1.8l0,0.8c0.4-0.3,0.7-0.6,1-0.7c0.3-0.1,0.5-0.2,0.8-0.2c0.1,0,0.1,0,0.2,0s0.1,0,0.2,0    L140.7,437.6z"/> 		<path style="fill:#1A171B;" d="M145,440.9c-0.1,0.1-0.2,0.2-0.4,0.3s-0.3,0.2-0.4,0.2c-0.2,0.1-0.4,0.1-0.5,0.2    c-0.2,0-0.4,0.1-0.6,0.1c-0.5,0-1-0.2-1.3-0.5s-0.5-0.7-0.5-1.2c0-0.4,0.1-0.7,0.3-1s0.4-0.5,0.8-0.6c0.3-0.1,0.7-0.3,1.2-0.3    s1-0.1,1.5-0.1v0c0-0.3-0.1-0.5-0.4-0.6c-0.2-0.1-0.6-0.2-1.1-0.2c-0.3,0-0.6,0.1-0.9,0.2s-0.6,0.2-0.7,0.2h-0.2v-1.3    c0.2,0,0.5-0.1,0.9-0.2c0.4-0.1,0.8-0.1,1.3-0.1c1,0,1.7,0.2,2.2,0.5c0.4,0.3,0.7,0.8,0.7,1.4v3.7l-1.7,0V440.9z M145,440v-1.1    c-0.2,0-0.5,0-0.8,0.1s-0.5,0.1-0.6,0.1c-0.2,0.1-0.3,0.1-0.4,0.2s-0.1,0.2-0.1,0.4c0,0.1,0,0.2,0,0.3s0.1,0.1,0.1,0.2    c0.1,0.1,0.2,0.1,0.3,0.1c0.1,0,0.3,0,0.5,0c0.2,0,0.4,0,0.5-0.1C144.7,440.2,144.9,440.1,145,440z"/> 	</g> 	<g> 		 			<rect x="331.5" y="382.3" transform="matrix(-1 -8.407434e-005 8.407434e-005 -1 744.2944 778.166)" style="fill-rule:evenodd;clip-rule:evenodd;fill:none;" width="81.4" height="13.6"/> 		<path style="fill:#1A171B;" d="M340.7,390.4c-0.3,0.1-0.8,0.3-1.3,0.4c-0.5,0.1-1.1,0.2-1.6,0.2c-1.2,0-2.2-0.3-2.9-1    c-0.7-0.7-1-1.6-1-2.8c0-1.1,0.4-2,1.1-2.7c0.7-0.7,1.7-1,3-1c0.5,0,0.9,0,1.4,0.1c0.4,0.1,0.9,0.3,1.4,0.5v1.7h-0.2    c-0.1-0.1-0.2-0.2-0.4-0.3c-0.2-0.1-0.3-0.2-0.5-0.3c-0.2-0.1-0.4-0.2-0.7-0.3c-0.3-0.1-0.5-0.1-0.8-0.1c-0.3,0-0.6,0-0.9,0.1    c-0.3,0.1-0.5,0.2-0.7,0.4c-0.2,0.2-0.4,0.4-0.5,0.7c-0.1,0.3-0.2,0.6-0.2,1c0,0.8,0.2,1.4,0.6,1.8c0.4,0.4,1.1,0.6,1.9,0.6    c0.1,0,0.2,0,0.2,0c0.1,0,0.2,0,0.2,0v-1.4h-1.5v-1.4h3.4V390.4z"/> 		<path style="fill:#1A171B;" d="M344.1,384.5h-1.9v-1.3h1.9V384.5z M344.1,390.8h-1.8v-5.5h1.8L344.1,390.8z"/> 		<path style="fill:#1A171B;" d="M348.1,390.9c0,0.6-0.2,1.1-0.6,1.4s-0.9,0.5-1.5,0.5c-0.3,0-0.6,0-0.9,0c-0.3,0-0.5-0.1-0.6-0.1    v-1.3h0.1c0.1,0,0.2,0.1,0.4,0.1s0.3,0,0.3,0c0.3,0,0.6-0.1,0.7-0.3s0.2-0.5,0.2-1l0-3.8h-1v-1.2h2.8V390.9z M348.1,384.5h-1.9    v-1.3h1.9V384.5z"/> 		<path style="fill:#1A171B;" d="M355.4,388.1c0,0.9-0.3,1.6-0.8,2.1c-0.5,0.5-1.3,0.8-2.2,0.8c-0.9,0-1.7-0.3-2.2-0.8    c-0.5-0.5-0.8-1.2-0.8-2.1c0-0.9,0.3-1.6,0.8-2.1c0.5-0.5,1.3-0.8,2.2-0.8c1,0,1.7,0.3,2.2,0.8    C355.1,386.4,355.4,387.2,355.4,388.1z M354.1,382.6L354.1,382.6l-1.7,1.9h-1.2l1.2-1.9L354.1,382.6z M353.2,389.4    c0.1-0.1,0.2-0.3,0.3-0.5c0.1-0.2,0.1-0.5,0.1-0.8c0-0.3,0-0.6-0.1-0.8s-0.1-0.4-0.2-0.5c-0.1-0.1-0.2-0.2-0.4-0.3    s-0.3-0.1-0.5-0.1c-0.2,0-0.3,0-0.5,0.1c-0.1,0-0.3,0.1-0.4,0.3c-0.1,0.1-0.2,0.3-0.3,0.5c-0.1,0.2-0.1,0.5-0.1,0.8    c0,0.3,0,0.6,0.1,0.8c0.1,0.2,0.1,0.4,0.2,0.5c0.1,0.1,0.2,0.2,0.4,0.3c0.1,0.1,0.3,0.1,0.5,0.1c0.2,0,0.3,0,0.5-0.1    S353.1,389.5,353.2,389.4z"/> 		<path style="fill:#1A171B;" d="M362.2,390.8h-1.8v-2.7c0-0.2,0-0.4,0-0.7c0-0.2-0.1-0.4-0.1-0.5c-0.1-0.1-0.2-0.2-0.3-0.3    s-0.3-0.1-0.5-0.1c-0.2,0-0.3,0-0.5,0.1c-0.2,0.1-0.3,0.1-0.5,0.2v3.9h-1.8l0-5.5h1.8v0.6c0.3-0.2,0.6-0.4,0.9-0.6    c0.3-0.1,0.6-0.2,1-0.2c0.6,0,1.1,0.2,1.4,0.5c0.3,0.3,0.5,0.9,0.5,1.5L362.2,390.8z"/> 		<path style="fill:#1A171B;" d="M370.6,390.9c-0.5,0-1-0.1-1.5-0.2c-0.5-0.2-0.9-0.4-1.2-0.7c-0.3-0.3-0.6-0.7-0.8-1.2    c-0.2-0.5-0.3-1-0.3-1.6c0-0.6,0.1-1.1,0.3-1.6c0.2-0.5,0.4-0.9,0.8-1.2c0.3-0.3,0.7-0.6,1.2-0.7s1-0.3,1.5-0.3    c0.3,0,0.6,0,0.8,0.1c0.2,0,0.5,0.1,0.7,0.1c0.2,0.1,0.4,0.1,0.6,0.2c0.2,0.1,0.3,0.1,0.5,0.2v1.8h-0.2c-0.1-0.1-0.2-0.2-0.3-0.3    c-0.1-0.1-0.3-0.2-0.5-0.3c-0.2-0.1-0.4-0.2-0.6-0.3c-0.2-0.1-0.4-0.1-0.7-0.1c-0.3,0-0.5,0-0.8,0.1c-0.2,0.1-0.5,0.2-0.7,0.4    c-0.2,0.2-0.3,0.4-0.5,0.7c-0.1,0.3-0.2,0.7-0.2,1.1c0,0.5,0.1,0.8,0.2,1.1c0.1,0.3,0.3,0.5,0.5,0.7c0.2,0.2,0.4,0.3,0.7,0.4    s0.5,0.1,0.7,0.1c0.2,0,0.5,0,0.7-0.1c0.2-0.1,0.4-0.2,0.6-0.3c0.2-0.1,0.3-0.2,0.4-0.3c0.1-0.1,0.3-0.2,0.3-0.3h0.2v1.7    c-0.2,0.1-0.4,0.2-0.5,0.2s-0.3,0.1-0.5,0.2c-0.2,0.1-0.5,0.1-0.7,0.2C371.2,390.9,370.9,390.9,370.6,390.9z"/> 		<path style="fill:#1A171B;" d="M380,388.1c0,0.9-0.3,1.6-0.8,2.1c-0.5,0.5-1.3,0.8-2.2,0.8c-1,0-1.7-0.3-2.2-0.8    c-0.5-0.5-0.8-1.2-0.8-2.1c0-0.9,0.3-1.6,0.8-2.1s1.3-0.8,2.2-0.8c1,0,1.7,0.3,2.2,0.8C379.8,386.4,380,387.2,380,388.1z     M377.9,389.4c0.1-0.1,0.2-0.3,0.3-0.5c0.1-0.2,0.1-0.5,0.1-0.8c0-0.3,0-0.6-0.1-0.8s-0.1-0.4-0.2-0.5c-0.1-0.1-0.2-0.2-0.4-0.3    c-0.1-0.1-0.3-0.1-0.5-0.1c-0.2,0-0.3,0-0.5,0.1c-0.1,0-0.3,0.1-0.4,0.3c-0.1,0.1-0.2,0.3-0.3,0.5c-0.1,0.2-0.1,0.5-0.1,0.8    c0,0.3,0,0.6,0.1,0.8c0.1,0.2,0.1,0.4,0.2,0.5c0.1,0.1,0.2,0.2,0.4,0.3s0.3,0.1,0.5,0.1c0.2,0,0.3,0,0.5-0.1    C377.6,389.6,377.8,389.5,377.9,389.4z"/> 		<path style="fill:#1A171B;" d="M386.8,390.8H385l0-2.7c0-0.2,0-0.4,0-0.7c0-0.2-0.1-0.4-0.1-0.5c-0.1-0.1-0.2-0.2-0.3-0.3    c-0.1-0.1-0.3-0.1-0.5-0.1c-0.2,0-0.3,0-0.5,0.1s-0.3,0.1-0.5,0.2l0,3.9h-1.8v-5.5h1.8v0.6c0.3-0.2,0.6-0.4,0.9-0.6s0.6-0.2,1-0.2    c0.6,0,1.1,0.2,1.4,0.5c0.3,0.3,0.5,0.9,0.5,1.5V390.8z"/> 		<path style="fill:#1A171B;" d="M391.3,390.9c-0.5,0-0.9-0.1-1.3-0.2c-0.4-0.1-0.7-0.3-1-0.5c-0.3-0.2-0.5-0.5-0.7-0.9    c-0.2-0.4-0.2-0.8-0.2-1.3c0-0.5,0.1-1,0.3-1.3c0.2-0.4,0.4-0.7,0.7-0.9c0.3-0.2,0.6-0.4,1-0.5c0.4-0.1,0.8-0.2,1.2-0.2    c0.4,0,0.7,0,1,0.1c0.3,0.1,0.6,0.2,0.9,0.3v1.5h-0.3c-0.1-0.1-0.2-0.1-0.2-0.2s-0.2-0.2-0.4-0.2c-0.1-0.1-0.3-0.1-0.4-0.2    c-0.2,0-0.3-0.1-0.6-0.1c-0.5,0-0.8,0.1-1.1,0.4s-0.4,0.7-0.4,1.2c0,0.5,0.1,0.9,0.4,1.2s0.6,0.4,1.1,0.4c0.2,0,0.4,0,0.6-0.1    c0.2,0,0.3-0.1,0.4-0.2c0.1-0.1,0.2-0.1,0.3-0.2c0.1-0.1,0.2-0.1,0.2-0.2h0.3v1.5c-0.3,0.1-0.6,0.2-0.9,0.3    C392,390.9,391.6,390.9,391.3,390.9z"/> 		<path style="fill:#1A171B;" d="M399.7,388.4h-4c0,0.4,0.2,0.8,0.5,1s0.7,0.3,1.3,0.3c0.4,0,0.7-0.1,1.1-0.2    c0.3-0.1,0.6-0.3,0.8-0.4h0.2l0,1.4c-0.4,0.2-0.8,0.3-1.1,0.3s-0.7,0.1-1.2,0.1c-1.1,0-1.9-0.2-2.5-0.7s-0.9-1.2-0.9-2.1    c0-0.9,0.3-1.6,0.8-2.2c0.6-0.5,1.3-0.8,2.3-0.8c0.9,0,1.6,0.2,2,0.7c0.4,0.5,0.7,1.1,0.7,1.9V388.4z M397.9,387.4    c0-0.4-0.1-0.6-0.3-0.8c-0.2-0.2-0.4-0.3-0.8-0.3c-0.3,0-0.6,0.1-0.8,0.3c-0.2,0.2-0.3,0.5-0.4,0.8H397.9z"/> 		<path style="fill:#1A171B;" d="M403.3,390.9c0,0.6-0.2,1.1-0.6,1.4s-0.9,0.5-1.5,0.5c-0.3,0-0.6,0-0.9,0c-0.3,0-0.5-0.1-0.6-0.1    v-1.3h0.1c0.1,0,0.2,0.1,0.4,0.1s0.3,0,0.3,0c0.3,0,0.6-0.1,0.7-0.3s0.2-0.5,0.2-1l0-3.8h-1v-1.2l2.8,0V390.9z M403.3,384.5    l-1.9,0v-1.3l1.9,0V384.5z"/> 		<path style="fill:#1A171B;" d="M410.6,388.1c0,0.9-0.3,1.6-0.8,2.1c-0.5,0.5-1.3,0.8-2.2,0.8c-0.9,0-1.7-0.3-2.2-0.8    c-0.5-0.5-0.8-1.2-0.8-2.1c0-0.9,0.3-1.6,0.8-2.1c0.5-0.5,1.3-0.8,2.2-0.8c1,0,1.7,0.3,2.2,0.8    C410.3,386.5,410.6,387.2,410.6,388.1z M408.4,389.4c0.1-0.1,0.2-0.3,0.3-0.5c0.1-0.2,0.1-0.5,0.1-0.8c0-0.3,0-0.6-0.1-0.8    s-0.1-0.4-0.2-0.5c-0.1-0.1-0.2-0.2-0.4-0.3s-0.3-0.1-0.5-0.1c-0.2,0-0.3,0-0.5,0.1c-0.1,0-0.3,0.1-0.4,0.3    c-0.1,0.1-0.2,0.3-0.3,0.5c-0.1,0.2-0.1,0.5-0.1,0.8c0,0.3,0,0.6,0.1,0.8c0.1,0.2,0.1,0.4,0.2,0.5c0.1,0.1,0.2,0.2,0.4,0.3    c0.1,0.1,0.3,0.1,0.5,0.1c0.2,0,0.3,0,0.5-0.1S408.3,389.5,408.4,389.4z"/> 	</g> </g> <g id="text-municipis"> 	<g> 		<rect x="176.2" y="164.2" style="fill-rule:evenodd;clip-rule:evenodd;fill:none;" width="32.5" height="11"/> 		<path d="M183.2,172.2c-0.4,0.2-0.8,0.3-1.3,0.5s-0.9,0.2-1.4,0.2c-0.6,0-1.1-0.1-1.6-0.2c-0.5-0.2-0.9-0.4-1.2-0.7    c-0.3-0.3-0.6-0.7-0.8-1.2c-0.2-0.5-0.3-1-0.3-1.7c0-1.2,0.3-2.1,1-2.8c0.7-0.7,1.6-1,2.8-1c0.4,0,0.8,0,1.3,0.1s0.9,0.3,1.4,0.5    v1.1h-0.1c-0.1-0.1-0.2-0.2-0.4-0.3s-0.4-0.2-0.6-0.3c-0.2-0.1-0.5-0.2-0.8-0.3s-0.6-0.1-1-0.1c-0.8,0-1.5,0.3-1.9,0.8    c-0.5,0.5-0.7,1.2-0.7,2.1c0,0.9,0.2,1.7,0.7,2.2s1.2,0.8,2,0.8c0.3,0,0.6,0,0.9-0.1c0.3-0.1,0.6-0.1,0.8-0.2v-1.8h-1.9V169h2.9    V172.2z"/> 		<path d="M189.5,170c0,0.9-0.2,1.6-0.7,2.1s-1.1,0.8-1.8,0.8c-0.8,0-1.4-0.3-1.8-0.8s-0.7-1.2-0.7-2.1s0.2-1.6,0.7-2.1    s1.1-0.8,1.8-0.8c0.8,0,1.4,0.3,1.8,0.8S189.5,169.1,189.5,170z M188.6,170c0-0.7-0.1-1.2-0.4-1.6c-0.3-0.3-0.7-0.5-1.2-0.5    c-0.5,0-0.9,0.2-1.2,0.5c-0.3,0.3-0.4,0.9-0.4,1.6c0,0.7,0.1,1.2,0.4,1.6c0.3,0.4,0.7,0.5,1.2,0.5c0.5,0,0.9-0.2,1.2-0.5    C188.4,171.2,188.6,170.7,188.6,170z"/> 		<path d="M194.9,172.7h-4.4V172l3.2-4h-3.1v-0.8h4.3v0.7l-3.2,4h3.3V172.7z"/> 		<path d="M200.8,170c0,0.9-0.2,1.6-0.7,2.1s-1.1,0.8-1.8,0.8c-0.8,0-1.4-0.3-1.8-0.8s-0.7-1.2-0.7-2.1s0.2-1.6,0.7-2.1    s1.1-0.8,1.8-0.8c0.8,0,1.4,0.3,1.8,0.8S200.8,169.1,200.8,170z M199.9,170c0-0.7-0.1-1.2-0.4-1.6c-0.3-0.3-0.7-0.5-1.2-0.5    c-0.5,0-0.9,0.2-1.2,0.5c-0.3,0.3-0.4,0.9-0.4,1.6c0,0.7,0.1,1.2,0.4,1.6c0.3,0.4,0.7,0.5,1.2,0.5c0.5,0,0.9-0.2,1.2-0.5    C199.7,171.2,199.9,170.7,199.9,170z M199.8,164.5l-1.3,1.8h-0.7l0.9-1.8H199.8z"/> 		<path d="M206.8,172.7h-0.9v-3.1c0-0.3,0-0.5,0-0.7s-0.1-0.4-0.2-0.5c-0.1-0.1-0.2-0.2-0.4-0.3s-0.4-0.1-0.6-0.1    c-0.3,0-0.5,0.1-0.8,0.2s-0.5,0.3-0.8,0.5v4.1h-0.9v-5.5h0.9v0.6c0.3-0.2,0.6-0.4,0.9-0.6c0.3-0.1,0.6-0.2,0.9-0.2    c0.6,0,1,0.2,1.3,0.5s0.5,0.9,0.5,1.5V172.7z"/> 	</g> 	<g> 		<rect x="278" y="284" style="fill-rule:evenodd;clip-rule:evenodd;fill:none;" width="41" height="11"/> 		<path d="M284.6,292c-0.2,0.1-0.3,0.2-0.5,0.2c-0.1,0.1-0.3,0.1-0.6,0.2c-0.2,0.1-0.4,0.1-0.6,0.2c-0.2,0-0.5,0.1-0.8,0.1    c-0.5,0-1-0.1-1.4-0.2c-0.4-0.1-0.8-0.4-1.1-0.7c-0.3-0.3-0.6-0.7-0.7-1.2c-0.2-0.5-0.3-1-0.3-1.7c0-0.6,0.1-1.1,0.3-1.6    c0.2-0.5,0.4-0.9,0.7-1.2c0.3-0.3,0.7-0.6,1.1-0.7c0.4-0.2,0.9-0.2,1.5-0.2c0.4,0,0.8,0,1.2,0.1c0.4,0.1,0.8,0.3,1.3,0.5v1.1h-0.1    c-0.4-0.3-0.8-0.6-1.2-0.7c-0.4-0.2-0.8-0.2-1.3-0.2c-0.4,0-0.7,0.1-1,0.2c-0.3,0.1-0.6,0.3-0.8,0.6c-0.2,0.2-0.4,0.6-0.5,0.9    c-0.1,0.4-0.2,0.8-0.2,1.3c0,0.5,0.1,1,0.2,1.3c0.1,0.4,0.3,0.7,0.5,0.9c0.2,0.2,0.5,0.4,0.8,0.5c0.3,0.1,0.6,0.2,1,0.2    c0.5,0,0.9-0.1,1.3-0.2c0.4-0.2,0.8-0.4,1.1-0.7h0.1V292z"/> 		<path d="M290.1,292.5h-0.9v-0.6c-0.1,0.1-0.2,0.1-0.3,0.2c-0.1,0.1-0.3,0.2-0.4,0.2c-0.2,0.1-0.3,0.1-0.5,0.2    c-0.2,0-0.4,0.1-0.7,0.1c-0.5,0-0.9-0.2-1.3-0.5c-0.3-0.3-0.5-0.7-0.5-1.2c0-0.4,0.1-0.7,0.3-1c0.2-0.3,0.4-0.5,0.8-0.6    c0.3-0.1,0.7-0.2,1.2-0.3s1-0.1,1.5-0.1v-0.1c0-0.2,0-0.4-0.1-0.5s-0.2-0.2-0.3-0.3c-0.1-0.1-0.3-0.1-0.5-0.2c-0.2,0-0.4,0-0.6,0    c-0.2,0-0.5,0-0.8,0.1c-0.3,0.1-0.6,0.2-0.9,0.3h0v-0.9c0.2,0,0.4-0.1,0.8-0.2s0.7-0.1,1-0.1c0.4,0,0.7,0,1,0.1    c0.3,0.1,0.5,0.2,0.7,0.3c0.2,0.2,0.4,0.3,0.5,0.6s0.2,0.5,0.2,0.9V292.5z M289.2,291.2v-1.5c-0.3,0-0.6,0-1,0.1    c-0.4,0-0.7,0.1-0.9,0.1c-0.3,0.1-0.5,0.2-0.6,0.3c-0.2,0.2-0.2,0.4-0.2,0.7c0,0.3,0.1,0.5,0.3,0.7c0.2,0.2,0.5,0.2,0.9,0.2    c0.3,0,0.6-0.1,0.9-0.2C288.8,291.5,289,291.3,289.2,291.2z"/> 		<path d="M295.3,288L295.3,288c-0.2,0-0.3-0.1-0.4-0.1c-0.1,0-0.3,0-0.5,0c-0.3,0-0.6,0.1-0.8,0.2c-0.3,0.1-0.5,0.3-0.8,0.5v3.9    h-0.9V287h0.9v0.8c0.4-0.3,0.7-0.5,1-0.6c0.3-0.1,0.6-0.2,0.9-0.2c0.2,0,0.3,0,0.3,0c0.1,0,0.2,0,0.3,0V288z"/> 		<path d="M299.6,288L299.6,288c-0.2,0-0.3-0.1-0.4-0.1c-0.1,0-0.3,0-0.5,0c-0.3,0-0.6,0.1-0.8,0.2c-0.3,0.1-0.5,0.3-0.8,0.5v3.9    h-0.9V287h0.9v0.8c0.4-0.3,0.7-0.5,1-0.6c0.3-0.1,0.6-0.2,0.9-0.2c0.2,0,0.3,0,0.3,0c0.1,0,0.2,0,0.3,0V288z"/> 		<path d="M305,289.9h-4c0,0.3,0,0.6,0.2,0.9c0.1,0.3,0.2,0.5,0.4,0.6c0.2,0.2,0.4,0.3,0.6,0.4c0.2,0.1,0.5,0.1,0.8,0.1    c0.4,0,0.7-0.1,1.1-0.2c0.4-0.1,0.6-0.3,0.8-0.4h0v1c-0.3,0.1-0.6,0.2-0.9,0.3s-0.7,0.1-1,0.1c-0.9,0-1.6-0.2-2.1-0.7    c-0.5-0.5-0.8-1.2-0.8-2.1c0-0.9,0.2-1.6,0.7-2.1s1.1-0.8,1.9-0.8c0.7,0,1.3,0.2,1.7,0.6c0.4,0.4,0.6,1,0.6,1.8V289.9z     M304.1,289.2c0-0.5-0.1-0.9-0.4-1.1c-0.2-0.3-0.6-0.4-1.1-0.4c-0.5,0-0.9,0.1-1.2,0.4c-0.3,0.3-0.5,0.6-0.5,1.1H304.1z"/> 		<path d="M311,292.5h-0.9v-3.1c0-0.3,0-0.5,0-0.7c0-0.2-0.1-0.4-0.2-0.5c-0.1-0.1-0.2-0.2-0.4-0.3c-0.2-0.1-0.4-0.1-0.6-0.1    c-0.3,0-0.5,0.1-0.8,0.2s-0.5,0.3-0.8,0.5v4.1h-0.9V287h0.9v0.6c0.3-0.2,0.6-0.4,0.9-0.6c0.3-0.1,0.6-0.2,0.9-0.2    c0.6,0,1,0.2,1.3,0.5s0.5,0.9,0.5,1.5V292.5z M310.8,284.6c0,0.5-0.2,0.9-0.4,1.1s-0.5,0.4-0.9,0.4c-0.2,0-0.3,0-0.5-0.1    c-0.2-0.1-0.3-0.2-0.4-0.3c-0.2-0.1-0.3-0.2-0.4-0.3c-0.1-0.1-0.2-0.1-0.3-0.1c-0.2,0-0.3,0.1-0.4,0.2s-0.1,0.3-0.1,0.6h-0.6    c0-0.5,0.2-0.9,0.4-1.1c0.2-0.3,0.5-0.4,0.8-0.4c0.2,0,0.3,0,0.5,0.1c0.2,0.1,0.3,0.2,0.4,0.3c0.2,0.1,0.3,0.2,0.4,0.3    c0.1,0.1,0.2,0.1,0.3,0.1c0.2,0,0.3-0.1,0.4-0.2c0.1-0.1,0.1-0.3,0.2-0.6H310.8z"/> 		<path d="M317.4,289.8c0,0.9-0.2,1.6-0.7,2.1s-1.1,0.8-1.8,0.8c-0.8,0-1.4-0.3-1.8-0.8s-0.7-1.2-0.7-2.1s0.2-1.6,0.7-2.1    c0.5-0.5,1.1-0.8,1.8-0.8c0.8,0,1.4,0.3,1.8,0.8C317.2,288.2,317.4,288.9,317.4,289.8z M316.4,289.8c0-0.7-0.1-1.2-0.4-1.6    c-0.3-0.3-0.7-0.5-1.2-0.5c-0.5,0-0.9,0.2-1.2,0.5c-0.3,0.3-0.4,0.9-0.4,1.6c0,0.7,0.1,1.2,0.4,1.6c0.3,0.4,0.7,0.5,1.2,0.5    c0.5,0,0.9-0.2,1.2-0.5C316.3,291,316.4,290.5,316.4,289.8z"/> 	</g> </g> <g id="Llegenda"> 	<line style="fill:none;stroke:#9A9A9A;stroke-width:2;stroke-miterlimit:10;" x1="260.9" y1="-211.4" x2="260.9" y2="-181.9"/> 	<line style="fill:none;stroke:#9A9A9A;stroke-miterlimit:10;" x1="294.3" y1="-211.4" x2="294.3" y2="-181.9"/> 	<g> 		<path d="M268.6-201h0.9v7.1h-0.9V-201z"/> 		<path d="M272-200.1c0,0.3-0.2,0.5-0.6,0.5c-0.3,0-0.5-0.2-0.5-0.5s0.2-0.5,0.6-0.5C271.7-200.7,272-200.4,272-200.1z M271-193.9    v-4.8h0.9v4.8H271z"/> 		<path d="M273.3-197.4c0-0.5,0-0.9,0-1.3h0.8l0.1,0.8h0c0.2-0.4,0.8-0.9,1.6-0.9c0.7,0,1.7,0.4,1.7,2.1v2.9h-0.9v-2.8    c0-0.8-0.3-1.4-1.1-1.4c-0.6,0-1,0.4-1.2,0.9c0,0.1-0.1,0.3-0.1,0.4v2.9h-0.9V-197.4z"/> 	</g> 	<line style="fill:none;stroke:#696969;stroke-width:2;stroke-miterlimit:10;" x1="260.9" y1="-171.8" x2="260.9" y2="-142.3"/> 	<g> 		<path d="M268.6-161.4h0.9v7.1h-0.9V-161.4z"/> 		<path d="M272-160.5c0,0.3-0.2,0.5-0.6,0.5c-0.3,0-0.5-0.2-0.5-0.5s0.2-0.5,0.6-0.5C271.7-161.1,272-160.8,272-160.5z M271-154.3    v-4.8h0.9v4.8H271z"/> 		<path d="M273.3-157.9c0-0.5,0-0.9,0-1.3h0.8l0.1,0.8h0c0.2-0.4,0.8-0.9,1.6-0.9c0.7,0,1.7,0.4,1.7,2.1v2.9h-0.9v-2.8    c0-0.8-0.3-1.4-1.1-1.4c-0.6,0-1,0.4-1.2,0.9c0,0.1-0.1,0.3-0.1,0.4v2.9h-0.9V-157.9z"/> 	</g> 	<rect x="255.5" y="-236" style="fill:#BFBFBF;" width="16.3" height="15.3"/> 	<rect x="255.5" y="-263.7" style="fill:#DCE9FB;" width="16.3" height="15.3"/> 	<rect x="224.2" y="-263.7" style="fill:#D0E0A4;" width="16.3" height="15.3"/> 	<g> 		<path d="M281.1-226.7v-4.2h-0.7v-0.7h0.7v-0.2c0-0.7,0.2-1.3,0.6-1.7c0.3-0.3,0.8-0.4,1.2-0.4c0.3,0,0.6,0.1,0.8,0.1l-0.1,0.7    c-0.1-0.1-0.3-0.1-0.6-0.1c-0.8,0-0.9,0.6-0.9,1.4v0.3h1.2v0.7h-1.2v4.2H281.1z"/> 		<path d="M288.1-229.1c0,1.8-1.2,2.6-2.4,2.6c-1.3,0-2.3-1-2.3-2.5c0-1.6,1.1-2.6,2.4-2.6C287.2-231.6,288.1-230.6,288.1-229.1z     M284.3-229.1c0,1.1,0.6,1.9,1.5,1.9c0.8,0,1.5-0.8,1.5-1.9c0-0.8-0.4-1.8-1.4-1.8C284.8-230.9,284.3-230,284.3-229.1z"/> 		<path d="M289.3-230.2c0-0.5,0-0.9,0-1.3h0.8l0,0.8h0c0.2-0.4,0.8-0.9,1.6-0.9c0.7,0,1.7,0.4,1.7,2.1v2.9h-0.9v-2.8    c0-0.8-0.3-1.4-1.1-1.4c-0.6,0-1,0.4-1.2,0.9c0,0.1-0.1,0.3-0.1,0.4v2.9h-0.9V-230.2z"/> 		<path d="M294.7-227.6c0.3,0.2,0.7,0.3,1.2,0.3c0.6,0,0.9-0.3,0.9-0.7c0-0.4-0.3-0.6-0.9-0.9c-0.9-0.3-1.3-0.8-1.3-1.4    c0-0.8,0.6-1.4,1.7-1.4c0.5,0,0.9,0.1,1.2,0.3l-0.2,0.6c-0.2-0.1-0.5-0.3-1-0.3c-0.5,0-0.8,0.3-0.8,0.7c0,0.4,0.3,0.6,0.9,0.8    c0.8,0.3,1.3,0.7,1.3,1.4c0,0.9-0.7,1.5-1.8,1.5c-0.5,0-1-0.1-1.4-0.3L294.7-227.6z"/> 	</g> 	<g> 		<path d="M281-257.5c0-0.5,0-0.9,0-1.3h0.8l0,0.8h0c0.3-0.5,0.7-0.9,1.5-0.9c0.6,0,1.1,0.4,1.4,1h0c0.2-0.3,0.3-0.5,0.5-0.6    c0.3-0.2,0.6-0.3,1.1-0.3c0.6,0,1.6,0.4,1.6,2.1v2.8H287v-2.7c0-0.9-0.3-1.5-1-1.5c-0.5,0-0.9,0.4-1,0.8c0,0.1-0.1,0.3-0.1,0.4v3    H284v-2.9c0-0.8-0.3-1.3-1-1.3c-0.5,0-0.9,0.4-1.1,0.9c0,0.1-0.1,0.3-0.1,0.4v2.9H281V-257.5z"/> 		<path d="M292.7-255.2c0,0.4,0,0.8,0.1,1.2H292l-0.1-0.6h0c-0.3,0.4-0.8,0.7-1.5,0.7c-1,0-1.5-0.7-1.5-1.4c0-1.2,1-1.8,2.9-1.8    v-0.1c0-0.4-0.1-1.1-1.1-1.1c-0.5,0-0.9,0.1-1.3,0.4l-0.2-0.6c0.4-0.3,1-0.4,1.6-0.4c1.5,0,1.8,1,1.8,2V-255.2z M291.9-256.5    c-1,0-2,0.1-2,1.1c0,0.6,0.4,0.8,0.8,0.8c0.6,0,1-0.4,1.2-0.8c0-0.1,0-0.2,0-0.3V-256.5z"/> 		<path d="M294.1-257.3c0-0.6,0-1.1,0-1.5h0.8l0,1h0c0.2-0.6,0.8-1.1,1.3-1.1c0.1,0,0.2,0,0.2,0v0.8c-0.1,0-0.2,0-0.3,0    c-0.6,0-1.1,0.5-1.2,1.1c0,0.1,0,0.3,0,0.4v2.6h-0.9V-257.3z"/> 	</g> 	<circle style="fill-rule:evenodd;clip-rule:evenodd;fill:#5B7EBD;" cx="260.9" cy="-127.2" r="2.4"/> 	<rect x="180.1" y="-236" style="fill:#BFBFBF;stroke:#696969;stroke-width:2;stroke-miterlimit:10;" width="16.3" height="15.3"/> 	<rect x="206.3" y="-236" style="fill:#FFFBF0;stroke:#9A9A9A;stroke-width:2;stroke-miterlimit:10;" width="16.3" height="15.3"/> 	<rect x="197" y="-205.4" style="opacity:0.6;fill:#FFFBF0;" width="51" height="17.5"/> </g> </svg>