<svg xmlns="http://www.w3.org/2000/svg" xmlns:xlink="http://www.w3.org/1999/xlink" version="1.1" x="0px" y="0px" width="450px" height="450px" viewBox="0 0 450 450" style="enable-background:new 0 0 450 450;" xml:space="preserve"> <g id="Capa_12"> 	<rect x="-21" y="-27" style="fill:#DCE9FB;" width="496" height="582"/> </g> <g id="color_exterior"> 	<a> 		<path style="fill:#BFBFBF;stroke:#696969;stroke-width:2;stroke-miterlimit:10;" d="M307-122c-63,0.3-126,0.7-189,1    c6.1,10.4,6.1,28,13.1,40.5c3.7,6.6,8.6,10.8,10,18.7c1.9,10.2-6.5,23.2-3,33.1c3.2,9.1,13.4,12,15.8,21.3    c1.4,5.5,4.1,9.5,6.2,14.9c3.2,8.1,8.7,31.5,12.8,40.2c3.6,7.2-10.8,45.1-12.6,53.5c-2.4,10.8-5.7,28.5-2.4,39.7    c8.3-9.2,47.9-22.1,49.5-10.7c8.4-0.2,23,16.4,29.9,22.9c4-11.8,9.1-23.4,14.1-34.8c3.2-7.3,9.9-25.3,15.3-29.9    c8-6.8,39.8-19.5,52.4-25c20-8.7,40-18.4,59.6-27.6c27.1-12.7,45.3-16.3,75.4-16.7c23.2-0.3,46.5-1.7,69.8-1.7    c13.3,0,26.6-1.1,39.9-1c15.1,0.1,24.3,4.9,26.8-11.3c1.9-12.5,5.1-24.9,7.7-37.3c0.8-3.8,11-2.7,11-5.2c0-28.8,0-57.6,0-86.4    C508.5-123.1,407.8-122.6,307-122C244-121.7,407.8-122.6,307-122z"/> 	</a> 	<a> 		<path style="fill:#BFBFBF;stroke:#696969;stroke-width:2;stroke-miterlimit:10;" d="M8.2,275.1c-0.3,2-1.3,3.4-1.3,5.3    c-7.5-1.4-15.3-0.8-23.1-2.2c-8.4-1.5-23.2-12.1-29.4-12c-8.6,0.2-17.8,16.6-25.5,22.2c-10.9,7.9-19.9,17.1-28.2,24.3    c-0.7-2.9-7.2-12.4-6.5-14.8c2.8-8.8,19.7-5.1,9.5-17c1-0.7,1.9-1.4,2.9-2c1.3,2.4,2.6,4.7,3.9,7.1c4-3,8-5.9,12-8.9    c-1.2-1.4-2.4-2.9-3.7-4.3c0.7-0.7,1.4-1.3,2.1-2c5.9,7.1,16.7-0.1,10.4-6.8c6.1,2.3,22.2-5,12.2-12.9c-0.5,1.3-3.3,3.6-3.7,3.9    c2.9-7.2,1.6-2.3-1.2-9c-1.1,1.4-2.1,2.9-3.2,4.3c2.6-6.2,0.6-2.9-0.1-7.8c-5.7,7.3-1.3,15.6-10,20.6c0.6-1.1,1.7-2.4,3.1-4.1    c-1.1-1.1-2.2-2.2-3.3-3.3c-10,11.5-3.1-9.3-1.4-7.2c-5.1-6.3-38.2,10.9-24.3,22.9c1.2-1,2.5-2.1,3.7-3.1c-1.5,1.4-3,2.8-4.5,4.3    c-8.9-8.7-2-12.7-1.6-20c0.6,1.4,2.2,3.2,2.5,4.6c7.6-7.1,15.1-10.9,24.1-13.5c-5.6-2.8-13.8-1.7-20.1,1.3    c-0.7-11.8,15.5-3.3,22.8-6.9c10.4-5.1,8.6-17.7,12.7-26.1c2.6-5.4,12.3-23.4,15.3-23.6c12.7-0.9,8.9-13.2,19.1-15.8    c20.8-5.4,33.9,42.1,36,51.3C13.4,239.6,11.7,258,8.2,275.1L8.2,275.1z"/> 	</a> 	<a> 		<path style="fill:#BFBFBF;stroke:#696969;stroke-width:2;stroke-miterlimit:10;" d="M141.7-23.3c-10.7-10.2,1.4-31.2-2.7-44.2    c-3.3-10.4-12.7-20-16.6-31.2c-2.4-6.9-3.1-12.7-3.5-20.2c-0.3-4.8-54.6-1.8-61.8-1.8c-65.4,0.3-130.7,0.5-196.1,0.6    c3.5,4.2,11.7,10.7,13.2,16.3c0.6,2.4-4,13.3-3.4,18.2c2.4,18.4,7,35,12.4,52.7c2.2,7.1,1.4,16,4.4,22.5    c3.4,7.5,11,12.2,14.2,20.1c3.7,9.2,12,22.6,12.1,32.6c0.1,5.7-6.2,17.4-13.8,23.8c-2.6,2.2,3.3,23.6,4.1,27.8    c8.9,0.8,19.1-18.7,24.5-25.9c0.7,13.3-3.2,28.3-3.4,42.2c-0.2,9.8,0.3,19.8,4.5,28.9c5.8,12.6,15.4,4.7,23,10.4    c13,9.7-3.4,25.4-1.9,39c17.8,2.2,10.4-12.9,22.9-16.1c12.2-3.2,17.7,10.1,22.8,16.2c3.8-3.6,7.4-8.6,11.6-12.9    c3.5-3.6,7.4-5.1,11.1-9.3c1.4-1.6,6.8-0.2,8.1-1.8c3.2-3.6,6.7-6.2,9.4-8.9c5.8-5.8,9.6-10,9.6-10c3.8-4.2,7.2-8.8,11.4-13.1    c2.2-2.2,9.4-7.5,10-10.8c0.6-3.3-8-5.1-5.8-10.4c2.1-4.9,15.9-8.6,20.5-15.6c10.3-15.4,7.1-38.4,14.7-55.5    c10.9-24.6,29-42.3,48.4-59.7C144.2-20.7,143-22,141.7-23.3L141.7-23.3z"/> 	</a> 	<a> 		<path style="fill:#BFBFBF;stroke:#696969;stroke-width:2;stroke-miterlimit:10;" d="M43.3,297.7c8.3,3,12.7,6.2,7.9,15    c5.7-16.4,6.8,3.6,13.2,7.5c0.2,0.3,1.1-1.4,0.8-1.4c-1.8-1.8-6.3-11.1-4.1-16.7c-0.4-5.9,14.8-17.8,14.1,6    c-2.9-2.3-6.8-0.4-6.8,0.2c-0.5-0.2,0.8,5.5,3.1,8.3c-1,0.9,3.3-8.4,13.5-0.7c1.7,1.2,66,41.4,66.1,46.8c-1.4-0.2,3.1-2.2,2.5-2    c-1.1,3.3,40.8,43.9,10.9,38.2c0.6,4.6,23.3,16.1,29.8,15.8c1.7-2.1-5.1-8.6-1.9-13.2c7.1,2,14.6,8.4,14.6,17.3    c0,6.2-8.6,10-6.9,13.8c1,2.4,11.9,1.5,14,2.6c-0.1-0.1,3,1.4,4.1,2.1c0.3,0.2,2.5,6.7,3.1,7.7c7.8,1.5,20.4,17,26.2,26.2    c3.9,6.3,10.5,12.6,13.7,17.8c0.1,0.2,3.1,2.6,3.8,3.9c0.8,1.5-4.5,6.3-5.3,7.2c8.4-1.6,8.3,9.2,15.3,11.1c0,0,0.7-2.5,0.6-2.5    c-5.9-4.5-1.2-8.9,6-5.9c5.6,2.3-3.1,5.5-3.7,5.5c3.4,4.9,9.3,11.5,14.8,18.5c-0.1,0.2,2.1-2.3,1.8-2.2    c-10.9-3.4-5.5-12.8-5.7-19.1c7.4,2.9,14.8,13.2,2.9,14.5c12,2.4,2.2-23.8,25.5-11.3c16.7,8.9,32.1,26.9,44.1,41.6    c11.2,13.8,21.2,28.5,32.1,42.5c4.9,6.3,9.3,14.1,14.9,19.9c7.9,8.1,3.2,10.9,17.6,11.1c27.3,0.4,54.5,1,81.8,1.6    c-14.2-18.2-24.8-39.9-39.9-55.9c-20.7-22-51.4-28.7-73-49.8c-24.1-23.6-58.8-50-91.6-62.1c-17.1-6.3-36.4-4.5-48.4-19.9    c-11.1-14.1-19.1-26.8-21.5-50c6.5,6.2,17.5,9.8,24.1,16c3.7,3.5,4.2-1.5,8.2-3.4c8.3-3.9,16.1-10.9,23.6-16.1    c6.9-4.7,24.2-15.8,28.5-20.3c2.9-3.1,1.1-4.8-8-11.8c-10.4-7.9-26.9-12.9-39.6-16.4c-11.6-3.2-23.9-4.3-35.3-8.5    c-10-3.7-19-12.2-20.4,4.8c-26.3-35.3-74.4-60.2-119.7-56.2c-12.2,1.1-21.3,8.4-32.8,11.1c-4.9,1.1-15.2,3.4-19.3,2    c-3.1-1-4.6,6.3-4.3,6.9L43.3,297.7z"/> 	</a> </g> <g id="color"> 	<a> 		<path style="fill:#FFFBF0;stroke:#9A9A9A;stroke-width:2;stroke-miterlimit:10;" d="M79.5,228.8c-21.8-1.5-56.4-2.5-69.6-2.7    c-2.4-17.8,29.5-52.2,29.5-52.2L68,187.7C68,187.7,76.8,215.9,79.5,228.8L79.5,228.8z"/> 	</a> 	<a> 		<path style="fill:#FFFBF0;stroke:#9A9A9A;stroke-width:2;stroke-miterlimit:10;" d="M53.1,226.8c-4.1,12.9-7.8,26-11.8,38.9    c-1.8,5.9-2.3,13.9-1.7,17.1c0.9,4.4,3.1,5.7-1.2,12c-7.2-4-20.5-17.6-24.1-4.7c5.6-9.4-6.4-7.8-6.8-9.4    c-1.3-4.4,1.1-14.8,1.5-19.6c1-11.6,1.5-21.8,1.1-35.9C10.8,225,53.1,226.8,53.1,226.8L53.1,226.8z"/> 	</a> 	<a> 		<path style="fill:#FFFBF0;stroke:#9A9A9A;stroke-width:2;stroke-miterlimit:10;" d="M-0.5,195.8c1.1-1-5.9-4.2-3.8-6.5    c8-8.7,22.5-27,31-23.9c0,0,6,3.5,14.2,7.7c-13.5,13.1-27.4,37.1-31.5,51.7C7.5,221.9-0.5,195.8-0.5,195.8L-0.5,195.8z"/> 	</a> 	<a> 		<path style="fill:#FFFBF0;stroke:#9A9A9A;stroke-width:2;stroke-miterlimit:10;" d="M439.5,244.7c-15.6,15.9-32.1,29.5-44.8,47.8    c-7,10.1-13.5,23-21.7,32c-14.4,15.9-38.1,25.5-55.4,38.7c0.7-9.7-29.8-21.3-39.2-24.8c-12.4-4.6-25.7-5.6-38.3-9.6    c-11.2-3.6-24.1-14.7-25.5,3.2c-10.5-19.2-49.1-40.7-49.1-40.7s3-7.2,4.6-14.8c2.8-12.9,6.1-25,5.1-36.5    c37.2,6.9,13.3-39.9-2.2-52.4c-6.3-5.1-5.7-13.2-7.8-20.1c-1.6-5.1-8.2-16.6-8-21.9c0.4-15.3,50.9-28.8,50.2-15.2    c8.4-0.2,23,16.5,29.9,23c5.6-16.7,13.2-33.2,20.6-49.2c7.2-15.6,6.6-18.2,25.2-25.8C313.4,66.1,342.5,51,373,39.1    c3.4,16.3,4.5,24.6,3.9,45.1c-0.6,20.3,5.4,110.4,6.2,116.6c1.8,12.2,8.8,33,19.6,37.7C413.9,243.5,428.5,239.2,439.5,244.7    L439.5,244.7z"/> 	</a> 	<a> 		<path style="fill:#FFFBF0;stroke:#9A9A9A;stroke-width:2;stroke-miterlimit:10;" d="M175.3,240c0.8,10.2-1,23.1-4.5,35    c-3.8,12.5-5.6,16.5-5.6,16.5c-12.6-5.9-36.6-15.4-62.5-16c4.1-28,8.4-59.6,1.4-88.1c-3.1-12.6-2.9-10.6-5.9-18.1    c-0.3-0.8,14.2-10.7,17.5-12.7c11.6-7.1,28.8-13.3,42.1-17c-1.6,8.6,4.8,14,7.4,22.2c2.8,8.7-0.5,19,7.9,25.8    C186.1,198.2,213.7,247.4,175.3,240z"/> 	</a> 	<a> 		<path style="fill:#FFFBF0;stroke:#9A9A9A;stroke-width:2;stroke-miterlimit:10;" d="M173.1,46.3c-11.5,0.5-27.8,20.3-35.2,26.5    c-2.4-4.7-4.4-9.7-5.6-14.8c-18.9,10.3-4.5,13.7-9.2,27.3c-3.9,11.4-26,31.2-34.2,40.5c-4.2-16.3-10.3-16.1-21.2-4    c-18.4-12.3,5.9-15.1,12.7-23.1c8.5-10,7.8-25.5,10.5-37.6c7.7-34.6,29.3-57.8,54.6-80.4c8.8,5.8,12.5,18.6,15,28.5    C163.8,22.2,168.1,33.3,173.1,46.3L173.1,46.3z"/> 	</a> 	<a> 		<path style="fill:#FFFBF0;stroke:#9A9A9A;stroke-width:2;stroke-miterlimit:10;" d="M173.5,53c-2.3,18.7-9.1,33.8-12,50.6    c-2.3,13-7.4,23.7-3.7,36.1c-21.5,6-42.2,17.8-59.5,30.5c-3.9-7.3-18.6-36.1-18.6-36.1c0.2-1.3,40.3-38.7,43.6-48.8    c4.6-14-10.2-16.8,9-27.2c1.2,5.1,3.2,10.1,5.6,14.8c9.6-8.1,22.4-26,35.2-26.5L173.5,53z"/> 	</a> 	<a> 		<path style="fill:#FFFBF0;stroke:#9A9A9A;stroke-width:2;stroke-miterlimit:10;" d="M106,193c-6.6,3.7-11.2,5.5-18.3,8.2    c-6.4-19.2-16.3-37.5-24.7-50l-8.9,9.5c-5.8-7.7-9.2-13.6-9.2-13.6s6.6-8,14.2-15.9c6.5-6.8,23.4-33.5,29.5-6.5l-9.3,9.7    c0,0,7.8,13.3,15.1,25.9C104.1,176.8,106,193,106,193z"/> 	</a> 	<a> 		<path style="fill:#FFFBF0;stroke:#9A9A9A;stroke-width:2;stroke-miterlimit:10;" d="M70.1,186.4c-4.9,3.3-28.5-12.6-43.3-21.1    c6.1-6.2,12.1-12.1,18.1-18.3l9.2,13.6l8.9-9.5c7.7,11.4,14.7,24.6,17.2,30.5L70.1,186.4z"/> 	</a> 	<a> 		<path style="fill:#FFFBF0;stroke:#9A9A9A;stroke-width:2;stroke-miterlimit:10;" d="M103.4,276c0,0-7.2-0.9-16.5,1.6    c-11.2,3-35.2,20-46.3,9.6c-8.3-7.8,12.1-60.3,12.1-60.3c5.7,0.4,21.1,1.6,26.8,2c-2.9-13.2-11.4-40.7-11.6-41c0,0,5.5-3.3,12.3-6    c2.9,6.5,6.5,14.7,7.7,18.8c7.1-2.7,14.6-5.1,17.7-9.5C112.4,222.7,103.4,276,103.4,276z"/> 	</a> 	<a> 		<path style="fill:#FFFBF0;stroke:#9A9A9A;stroke-width:2;stroke-miterlimit:10;" d="M473,19.1c0,0-54.6-6.4-100,20    c0,0,3.7,31.6,3.6,46.3c-0.1,15.5-1.5,147.2,25,152.8s37.9,6.5,37.9,6.5l-9,9.1l31.8,37.3L473,19.1z"/> 	</a> 	<a> 		<path style="fill:#FFFBF0;stroke:#9A9A9A;stroke-width:2;stroke-miterlimit:10;" d="M462.3,291.1l-31.8-37.3    c0,0-28.3,26.3-37.1,40.2s-20.6,36.1-43.3,48.4S259,404.8,259,404.8l-25.6-17c0,0,0.3,31.5,19.9,50s17,8.2,55.1,24.2    s76.2,32.5,76.2,32.5l103.5-8.2L462.3,291.1z"/> 	</a> </g> <g id="Parc-aeroport"> 	<polygon style="fill-rule:evenodd;clip-rule:evenodd;fill:#BEDF90;" points="45.9,264 42.8,263.4 48.1,246.3 54.8,228.3    62.2,229.2 59.2,248.8 55.9,248.4 53.4,264.5  "/> 	<path style="fill-rule:evenodd;clip-rule:evenodd;fill:#BEDF90;" d="M-9.1,183.2l20.2-25l6,4.7l-22.8,26c-1.4-1.9-1.4-3.4-2.8-5.1   C-8.7,183.6-8.9,183.4-9.1,183.2z"/> 	<path style="fill-rule:evenodd;clip-rule:evenodd;fill:#BEDF90;" d="M-150,241.1c0.1-3.3,0.1-6.6,0.1-10.8c0,0-0.1,0-0.1,0V241.1z"/> 	<polygon style="fill-rule:evenodd;clip-rule:evenodd;fill:#BEDF90;" points="49.4,120.9 52.8,128.1 44.3,136.3 39.5,131.8  "/> 	<polygon style="fill-rule:evenodd;clip-rule:evenodd;fill:#BEDF90;" points="7.3,99.5 14.6,99.9 10.5,112 6.6,111.8  "/> 	<path style="fill-rule:evenodd;clip-rule:evenodd;fill:#BEDF90;" d="M164-121.3c-0.4,0.3-0.7,0.6-1.1,1l9.4-1   C169.5-121.3,166.7-121.3,164-121.3z"/> 	<path style="fill-rule:evenodd;clip-rule:evenodd;fill:#BEDF90;" d="M186.3-34.2l3-0.1l13-12.4l2.9,5l-3.7,3.6   c-0.2,1.3-0.2,2.1,0.1,3.5c0.4,1.9,1.1,2.9,2.3,4.3c0.6,0.7,1,1,1.7,1.5l-14.5,11.7l1.7,5.8l-6.9,6.1l4.1,10.5l-2.2,1.1l7.7,12.8   l-5.5,4l-6.4-11.6l2.8-2.2l-5.5-9.4l-6.5,3.9l-3.3-5.9l4.1-3.3l3.6,5.7l1.9-6.6l5.1-11.5l2.9-4l2.2-1.7l-5.9-9.8L186.3-34.2z"/> 	<path style="fill-rule:evenodd;clip-rule:evenodd;fill:#BEDF90;" d="M253.9-58.4l4.8,5.5c-1,2.4-1.7,3.8-3.2,5.9   c-1.3,1.9-2.7,2.6-3.9,4.6c-1.3,2.2,0,4.9-2.2,6.1c-2.1,1.2-3.8-1.8-6.1-1.1c-2,0.6-2.3,2.3-4,3.5c-1.9,1.3-3,1.8-5.1,2.6   c-2.2,0.8-3.5,1.9-5.8,1.4c-2.2-0.5-2.9-2-4.4-3.6c-2-2.1-2.3-4-4-6.4c-1.2-1.7-2.5-2.2-3.3-4.1c-0.3-0.7-0.4-1.2-0.6-1.9l3.7-4   l6.2,11.9c1.1,1.4,2.2,2,4,2.2c1.9,0.2,3-0.5,4.7-1.4c2.4-1.2,3-2.9,5.1-4.6c1.8-1.4,3.2-1.7,4.8-3.3c2.2-2.1,3.2-3.6,4.4-6.4   c0.9-2.1,0.1-3.9,1.5-5.8c0.6-0.8,0.8-1.8,1.8-1.8C253.1-59.1,253.5-58.9,253.9-58.4z"/> 	<polygon style="fill-rule:evenodd;clip-rule:evenodd;fill:#BEDF90;" points="133.4,132.3 143.9,129 147.5,139.9 136.5,144.8  "/> 	 		<rect x="242.9" y="352.4" transform="matrix(-0.8406 0.5416 -0.5416 -0.8406 836.558 476.252)" style="fill:#D9DADB;" width="210.6" height="17.7"/> 	<polygon style="fill:#D9DADB;" points="356.6,441.7 520.2,336.4 529.8,351.2 366.2,456.6  "/> 	<polygon style="fill:#D9DADB;" points="388.1,348.5 276.9,420.3 284.1,431.5 308.7,415.6 331.3,455.1 418.1,399.3  "/> </g> <g id="ferrocarril"> 	<path style="fill-rule:evenodd;clip-rule:evenodd;fill:none;stroke:#D19FA1;stroke-width:1.0001;stroke-miterlimit:3.8637;" d="   M66.7,125.9C84.1,108,101.6,90,120,73.2c8.6-7.9,17.3-16.7,26.8-23.6c10.2-7.4,22.6-8.6,33.4-14.8c21.4-12.2,36.1-31.7,53-49.1   c17.9-18.4,35.4-37,52.7-56c12.8-14,25.2-28.3,37.5-42.7"/> 	 		<path style="fill-rule:evenodd;clip-rule:evenodd;fill:none;stroke:#D19FA1;stroke-width:2;stroke-miterlimit:3.8637;stroke-dasharray:1,3;" d="   M66.7,125.9C84.1,108,101.6,90,120,73.2c8.6-7.9,17.3-16.7,26.8-23.6c10.2-7.4,22.6-8.6,33.4-14.8c21.4-12.2,36.1-31.7,53-49.1   c17.9-18.4,35.4-37,52.7-56c12.8-14,25.2-28.3,37.5-42.7"/> 	<path style="fill-rule:evenodd;clip-rule:evenodd;fill:none;stroke:#D19FA1;stroke-width:1.0001;stroke-miterlimit:3.8637;" d="   M31.4,144.8c3.5-13.8,3.5-28.1-0.4-42.4c1.3-61.1-3.9-122.2,0-183.3c1.3-10.4,1.3-20.8,3.4-31.8"/> 	 		<path style="fill-rule:evenodd;clip-rule:evenodd;fill:none;stroke:#D19FA1;stroke-width:2;stroke-miterlimit:3.8637;stroke-dasharray:1,3;" d="   M31.4,144.8c3.5-13.8,3.5-28.1-0.4-42.4c1.3-61.1-3.9-122.2,0-183.3c1.3-10.4,1.3-20.8,3.4-31.8"/> </g> <g id="bl"> 	<path style="opacity:0.6;fill:#FFFBF0;" d="M147.5,265.7c0,0,26.1,9.5,33.1,14s38.1,31.1,38.1,31.1s10,10.4,14.4,18.7   s-2.5-4.1-2.5-4.1l-10.4,9.2c0,0-16.1-23.1-27.6-32.7s-37.5-24.8-57.2-28.6s-7-1.3-7-1.3l2.5-10.2L147.5,265.7"/> </g> <g id="carrers"> 	<path style="fill-rule:evenodd;clip-rule:evenodd;fill:none;stroke:#9A9A9A;stroke-miterlimit:10;" d="M113.2,65.7"/> 	<path style="fill-rule:evenodd;clip-rule:evenodd;fill:none;stroke:#9A9A9A;stroke-miterlimit:10;" d="M90.1,123.9"/> 	<path style="fill-rule:evenodd;clip-rule:evenodd;fill:none;stroke:#9A9A9A;stroke-miterlimit:10;" d="M7.7,273.8   c3.6-27.5-3-50.8,10.6-73.5C43,159.1,86.7,122.5,121.1,89.4c33-31.7,71.7-55.8,104-88.6c36-36.5,68.6-75.8,103.1-113.6"/> 	<path style="fill-rule:evenodd;clip-rule:evenodd;fill:none;stroke:#9A9A9A;stroke-miterlimit:10;" d="M-28.4,172.3   c6.2,2.1,11.9,5.2,17,9.3"/> 	<path style="fill-rule:evenodd;clip-rule:evenodd;fill:none;stroke:#9A9A9A;stroke-miterlimit:10;" d="M58.9,114.8   c22.4-10.3,28.2-43.1,33.6-64c6-23.6,17.8-44.9,38.7-58.2c19.1-12.2,42.4-34.1,57.2-51.3c17.4-20.3,42.4-36.6,62.8-53.8"/> 	<path style="fill-rule:evenodd;clip-rule:evenodd;fill:none;stroke:#9A9A9A;stroke-miterlimit:10;" d="M8.4,224.1   c30.1,0.5,60.3,0.5,90.2,4.4c15.9,15.9,53.5,6.7,74.1,13c21.3,0,44.4-2.4,65.1,3.7c24.9,7.3,48.1,22.2,74.9,21.5   c44.6-1.2,83.7-42.4,128.8-20.7c10.9,5.2,17.1,13.7,30.1,13.7c15.4,0,30.5,2.5,45.6,4.8c29.2,4.5,55.9-1.8,84.8-5.2"/> 	<path style="fill-rule:evenodd;clip-rule:evenodd;fill:none;stroke:#9A9A9A;stroke-miterlimit:10;" d="M499.9,615.8   c-20.6-35.7-46.5-56.9-81.5-77.5c-33.4-19.7-57.8-52.5-93.2-68.4c-30.1-13.5-81.4-25-91.5-61.3c-5.3-19.1-1.2-39.6-5.3-59   c-3.5-16.5-31-38.9-42.7-50.7c-19.3-19.3-79.2-34.3-104-20.8c-25.4,27.5-64.1-4.5-93.5-5.9c-18.5-0.9-27.1-7.4-38.2-21.7   c-13.9-17.9-24.3-12.9-44.5-11.2c-45.3,4-35.9,51.9-48.1,83.7"/> 	<path style="fill-rule:evenodd;clip-rule:evenodd;fill:none;stroke:#9A9A9A;stroke-miterlimit:10;" d="M-142.6,134.9   c11.4-10.8,26.1-17.2,38.7-26.4c16.3-11.8,26.6-30,38.4-45.8c22.8-30.7,65-44,84.9-4.1c18.1,36.1,47.8,61.2,71,93.5   c22.9,31.8,21.3,86.9,10.6,122.5"/> 	<path style="fill-rule:evenodd;clip-rule:evenodd;fill:none;stroke:#9A9A9A;stroke-miterlimit:10;" d="M229.9,363.4   c34.9-22.9,46.2-60,40.8-100.2c-6.2-46.3-1.6-95.9,4.6-142.1c2.8-20.4,13.9-36.4,23.3-54.1c10-18.9,0.3-45.6-2.2-65.5   c-6-48.2-23.4-79.3-74-89.7"/> 	<path style="fill-rule:evenodd;clip-rule:evenodd;fill:none;stroke:#9A9A9A;stroke-miterlimit:10;" d="M268.4,178.6"/> 	<path style="fill-rule:evenodd;clip-rule:evenodd;fill:none;stroke:#9A9A9A;stroke-miterlimit:10;" d="M222.4,240.9   c58.8-21.7,130.7-0.2,192.3-1.1"/> 	<path style="fill-rule:evenodd;clip-rule:evenodd;fill:none;stroke:#9A9A9A;stroke-miterlimit:10;" d="M-70.4,220.4   c1.9,0.5,3.8,0.9,5.6,1.4c-0.5-13.4,12.1-20.1,13.2-34.5"/> 	<path style="fill-rule:evenodd;clip-rule:evenodd;fill:none;stroke:#9A9A9A;stroke-miterlimit:10;" d="M-121.9-112.6   c14.2,23,16.4,55.5,24,81.2c9.1,30.9,26.1,58.2,43.1,85.2c15.3,24.3,13.1,54.6,18.5,81.9c2,10.2,10.8,28.7,7.4,38.8   c-5.3,15.9-13.6,12.5-27,14"/> 	<path style="fill-rule:evenodd;clip-rule:evenodd;fill:none;stroke:#9A9A9A;stroke-miterlimit:10;" d="M257.7,334.6   c-22.6-3.4-41.4-16.2-62.1-25.1"/> 	<path style="fill-rule:evenodd;clip-rule:evenodd;fill:none;stroke:#9A9A9A;stroke-miterlimit:10;" d="M231.2,361.9   c-12.3,11.5-32.9,30.5-43,5.4c-11.6-29-27.8-23.5-51.3-35.7c-15.8-8.2-31.2-13.4-46.1-22.9c-16.3-10.4-22.7-13.4-40.8-17.9"/> 	<path style="fill-rule:evenodd;clip-rule:evenodd;fill:none;stroke:#9A9A9A;stroke-miterlimit:10;" d="M208.3,379.3   c-2.8,5.6,23.2,28.8,27,33.9"/> 	<path style="fill-rule:evenodd;clip-rule:evenodd;fill:none;stroke:#9A9A9A;stroke-miterlimit:10;" d="M263.5,451   c13.8,6.2,25.8-1.5,35.9-10.5"/> 	<path style="fill-rule:evenodd;clip-rule:evenodd;fill:none;stroke:#9A9A9A;stroke-miterlimit:10;" d="M-33.8,158.7   c7-2.6,19.4-10.5,26.9-10c9.9,0.6,25.4,13.3,34.3,17.9c9.7,5.1,19.2,10.5,28.8,15.7c17,9.3,17.6,26.7,21.2,45.3"/> 	<path style="fill-rule:evenodd;clip-rule:evenodd;fill:none;stroke:#9A9A9A;stroke-miterlimit:10;" d="M10.1,215.4   c32.6-4.5,62.9-29.8,88.6-49"/> 	<path style="fill-rule:evenodd;clip-rule:evenodd;fill:none;stroke:#9A9A9A;stroke-miterlimit:10;" d="M263.8,442.6   c31.1,8.6,56.6-13.9,79.7-31.5c3-2.3,13.4-13.5,18.1-9c2.6,1,11.3,19.2,10.5,22.8c-5.7,24.3-49.4-0.2-62.6,14   c-13.4,14.5,8.4,14,9.1,29.8c0.5,12.1-1.2,24.3-2.2,36.4"/> </g> <g id="codis"> 	<g> 		 			<rect x="65.1" y="13.9" style="fill-rule:evenodd;clip-rule:evenodd;fill:#FFFBF0;stroke:#B1B3B4;stroke-miterlimit:3.8637;" width="41" height="16.2"/> 		<g> 			<rect x="66.9" y="17.2" style="fill-rule:evenodd;clip-rule:evenodd;fill:none;" width="37.9" height="11.7"/> 			<path style="fill:#1A171B;" d="M75.8,26.1h-1.9V21l-1.4,3.3h-1.3L69.7,21v5.1h-1.8v-7.6h2.3l1.7,3.8l1.7-3.8h2.3V26.1z"/> 			<path style="fill:#1A171B;" d="M81.1,25.5c-0.1,0.1-0.2,0.2-0.4,0.3s-0.3,0.2-0.4,0.2c-0.2,0.1-0.4,0.1-0.6,0.2     c-0.2,0-0.4,0.1-0.6,0.1c-0.5,0-1-0.2-1.4-0.5c-0.4-0.3-0.5-0.8-0.5-1.3c0-0.4,0.1-0.8,0.3-1c0.2-0.3,0.5-0.5,0.8-0.6     c0.3-0.2,0.8-0.3,1.3-0.3c0.5-0.1,1-0.1,1.6-0.1v0c0-0.3-0.1-0.5-0.4-0.7s-0.6-0.2-1.1-0.2c-0.3,0-0.6,0.1-1,0.2     c-0.3,0.1-0.6,0.2-0.7,0.2h-0.2v-1.4c0.2-0.1,0.5-0.1,0.9-0.2s0.9-0.1,1.3-0.1c1,0,1.8,0.2,2.3,0.5c0.5,0.3,0.7,0.8,0.7,1.5v3.9     h-1.8V25.5z M81.1,24.6v-1.2c-0.2,0-0.5,0-0.8,0.1c-0.3,0-0.5,0.1-0.7,0.1c-0.2,0.1-0.3,0.1-0.4,0.3c-0.1,0.1-0.1,0.3-0.1,0.4     c0,0.1,0,0.2,0,0.3c0,0.1,0.1,0.1,0.2,0.2c0.1,0.1,0.2,0.1,0.3,0.1s0.3,0,0.5,0c0.2,0,0.4,0,0.6-0.1C80.8,24.8,81,24.7,81.1,24.6     z"/> 			<path style="fill:#1A171B;" d="M88.2,23.5h-3.9V22h3.9V23.5z"/> 			<path style="fill:#1A171B;" d="M95.1,26.1h-5v-1.3h1.6v-4h-1.6v-1.2c0.2,0,0.5,0,0.7,0s0.4-0.1,0.6-0.1c0.2-0.1,0.3-0.2,0.4-0.3     c0.1-0.1,0.1-0.3,0.2-0.5h1.7v6.3h1.6V26.1z"/> 			<path style="fill:#1A171B;" d="M102.3,22.5c0.2,0.1,0.3,0.3,0.4,0.5c0.1,0.2,0.1,0.4,0.1,0.8c0,0.4-0.1,0.7-0.2,1     c-0.1,0.3-0.4,0.6-0.6,0.8c-0.3,0.2-0.6,0.4-1,0.5s-0.9,0.2-1.4,0.2c-0.6,0-1.2,0-1.6-0.1c-0.4-0.1-0.8-0.2-1.1-0.3v-1.7H97     c0.3,0.2,0.6,0.3,1,0.5c0.4,0.1,0.8,0.2,1.1,0.2c0.2,0,0.4,0,0.6,0c0.2,0,0.4-0.1,0.6-0.2c0.1-0.1,0.2-0.2,0.3-0.3     c0.1-0.1,0.1-0.3,0.1-0.5c0-0.2-0.1-0.4-0.2-0.5s-0.2-0.2-0.4-0.3c-0.2-0.1-0.4-0.1-0.6-0.1c-0.2,0-0.5,0-0.7,0h-0.4v-1.4H99     c0.3,0,0.5,0,0.7,0s0.4-0.1,0.5-0.1c0.1-0.1,0.3-0.1,0.3-0.3c0.1-0.1,0.1-0.3,0.1-0.5c0-0.2,0-0.3-0.1-0.4     c-0.1-0.1-0.2-0.2-0.3-0.2c-0.1-0.1-0.3-0.1-0.5-0.1c-0.2,0-0.3,0-0.5,0c-0.3,0-0.7,0.1-1,0.2c-0.4,0.1-0.7,0.3-1.1,0.5h-0.2     v-1.6c0.3-0.1,0.7-0.2,1.1-0.3c0.5-0.1,1-0.2,1.5-0.2c0.5,0,0.9,0,1.3,0.1s0.7,0.2,0.9,0.3c0.3,0.2,0.5,0.4,0.6,0.6     c0.1,0.2,0.2,0.5,0.2,0.8c0,0.4-0.1,0.8-0.4,1.1c-0.3,0.3-0.6,0.5-1,0.6v0.1c0.2,0,0.4,0.1,0.5,0.1     C101.9,22.3,102.1,22.4,102.3,22.5z"/> 		</g> 	</g> 	<g> 		 			<rect x="279.8" y="30" style="fill-rule:evenodd;clip-rule:evenodd;fill:#FFFBF0;stroke:#B1B3B4;stroke-miterlimit:3.8637;" width="41" height="16.2"/> 		<g> 			<rect x="281.6" y="33.3" style="fill-rule:evenodd;clip-rule:evenodd;fill:none;" width="37.9" height="11.7"/> 			<path style="fill:#1A171B;" d="M290.5,42.2h-1.9v-5.1l-1.4,3.3h-1.3l-1.4-3.3v5.1h-1.8v-7.6h2.3l1.7,3.8l1.7-3.8h2.3V42.2z"/> 			<path style="fill:#1A171B;" d="M295.8,41.6c-0.1,0.1-0.2,0.2-0.4,0.3s-0.3,0.2-0.4,0.2c-0.2,0.1-0.4,0.1-0.6,0.2     c-0.2,0-0.4,0.1-0.6,0.1c-0.5,0-1-0.2-1.4-0.5c-0.4-0.3-0.5-0.8-0.5-1.3c0-0.4,0.1-0.8,0.3-1c0.2-0.3,0.5-0.5,0.8-0.6     c0.3-0.2,0.8-0.3,1.3-0.3c0.5-0.1,1-0.1,1.6-0.1v0c0-0.3-0.1-0.5-0.4-0.7c-0.3-0.1-0.6-0.2-1.1-0.2c-0.3,0-0.6,0.1-1,0.2     c-0.3,0.1-0.6,0.2-0.7,0.2h-0.2v-1.4c0.2-0.1,0.5-0.1,0.9-0.2c0.4-0.1,0.9-0.1,1.3-0.1c1,0,1.8,0.2,2.3,0.5s0.7,0.8,0.7,1.5v3.9     h-1.8V41.6z M295.8,40.7v-1.2c-0.2,0-0.5,0-0.8,0.1c-0.3,0-0.5,0.1-0.7,0.1c-0.2,0.1-0.3,0.1-0.4,0.3c-0.1,0.1-0.1,0.3-0.1,0.4     c0,0.1,0,0.2,0,0.3s0.1,0.1,0.2,0.2c0.1,0.1,0.2,0.1,0.3,0.1s0.3,0,0.5,0c0.2,0,0.4,0,0.6-0.1C295.5,40.9,295.6,40.8,295.8,40.7z     "/> 			<path style="fill:#1A171B;" d="M302.8,39.5H299v-1.5h3.9V39.5z"/> 			<path style="fill:#1A171B;" d="M309.5,38.6c0.2,0.1,0.3,0.3,0.4,0.5c0.1,0.2,0.1,0.4,0.1,0.8c0,0.4-0.1,0.7-0.2,1     s-0.4,0.6-0.6,0.8c-0.3,0.2-0.6,0.4-1,0.5c-0.4,0.1-0.9,0.2-1.4,0.2c-0.6,0-1.2,0-1.6-0.1c-0.4-0.1-0.8-0.2-1.1-0.3v-1.7h0.2     c0.3,0.2,0.6,0.3,1,0.5c0.4,0.1,0.8,0.2,1.1,0.2c0.2,0,0.4,0,0.6,0s0.4-0.1,0.6-0.2c0.1-0.1,0.2-0.2,0.3-0.3s0.1-0.3,0.1-0.5     c0-0.2-0.1-0.4-0.2-0.5s-0.2-0.2-0.4-0.3c-0.2-0.1-0.4-0.1-0.6-0.1c-0.2,0-0.5,0-0.7,0h-0.4v-1.4h0.4c0.3,0,0.5,0,0.7,0     c0.2,0,0.4-0.1,0.5-0.1c0.1-0.1,0.3-0.1,0.3-0.3c0.1-0.1,0.1-0.3,0.1-0.5c0-0.2,0-0.3-0.1-0.4s-0.2-0.2-0.3-0.2     c-0.1-0.1-0.3-0.1-0.5-0.1c-0.2,0-0.3,0-0.5,0c-0.3,0-0.7,0.1-1,0.2c-0.4,0.1-0.7,0.3-1.1,0.5h-0.2v-1.6c0.3-0.1,0.7-0.2,1.1-0.3     c0.5-0.1,1-0.2,1.5-0.2c0.5,0,0.9,0,1.3,0.1c0.4,0.1,0.7,0.2,0.9,0.3c0.3,0.2,0.5,0.4,0.6,0.6c0.1,0.2,0.2,0.5,0.2,0.8     c0,0.4-0.1,0.8-0.4,1.1s-0.6,0.5-1,0.6v0.1c0.2,0,0.4,0.1,0.5,0.1C309.2,38.4,309.4,38.5,309.5,38.6z"/> 			<path style="fill:#1A171B;" d="M317.6,38.4c0,0.6-0.1,1.2-0.2,1.7c-0.1,0.5-0.3,0.9-0.5,1.2c-0.3,0.3-0.6,0.6-1,0.7     c-0.4,0.2-0.9,0.3-1.5,0.3c-0.6,0-1-0.1-1.4-0.3s-0.7-0.4-1-0.8c-0.3-0.3-0.4-0.7-0.5-1.2c-0.1-0.5-0.2-1.1-0.2-1.7     c0-0.7,0.1-1.2,0.2-1.7s0.3-0.9,0.5-1.2c0.3-0.3,0.6-0.6,1-0.7s0.9-0.2,1.4-0.2c0.6,0,1.1,0.1,1.5,0.3c0.4,0.2,0.7,0.4,1,0.8     c0.2,0.3,0.4,0.7,0.5,1.2C317.6,37.2,317.6,37.8,317.6,38.4z M315.6,38.4c0-0.9-0.1-1.6-0.3-2c-0.2-0.4-0.5-0.6-0.9-0.6     c-0.4,0-0.7,0.2-0.9,0.6c-0.2,0.4-0.3,1-0.3,2c0,0.9,0.1,1.5,0.3,1.9s0.5,0.6,0.9,0.6c0.4,0,0.7-0.2,0.9-0.6     S315.6,39.3,315.6,38.4z"/> 		</g> 	</g> </g> <g id="puntos_interés"> 	<g> 		<path style="fill-rule:evenodd;clip-rule:evenodd;fill:#1A171B;" d="M36.9,125.2c0-1.7,1.4-3,3-3h4.2c1.7,0,3,1.4,3,3v8.3    c0,1.7-1.4,3-3,3H40c-1.7,0-3-1.4-3-3V125.2z"/> 		<g> 			<circle style="fill-rule:evenodd;clip-rule:evenodd;fill:#FFFBF0;" cx="39.4" cy="133.5" r="1"/> 			<circle style="fill-rule:evenodd;clip-rule:evenodd;fill:#FFFBF0;" cx="44.8" cy="133.5" r="1"/> 		</g> 		<path style="fill-rule:evenodd;clip-rule:evenodd;fill:#FFFBF0;" d="M38.7,129h6.8v-2.9c0,0,0-1.3-1.2-1.3c-1.9,0-4.6,0-4.6,0    s-1,0.4-1,1.3C38.7,127,38.7,129,38.7,129z"/> 		<g> 			<polygon style="fill-rule:evenodd;clip-rule:evenodd;fill:#1A171B;" points="39.2,135.5 36.3,140.1 38.1,140.1 41.1,135.7    "/> 			<polygon style="fill-rule:evenodd;clip-rule:evenodd;fill:#1A171B;" points="45,135.5 47.8,140.1 46.1,140.1 43,135.7    "/> 		</g> 		<g> 			<circle style="fill-rule:evenodd;clip-rule:evenodd;fill:#1A171B;" cx="41.1" cy="122" r="0.8"/> 			<circle style="fill-rule:evenodd;clip-rule:evenodd;fill:#1A171B;" cx="43.1" cy="122" r="0.8"/> 		</g> 		<path style="fill-rule:evenodd;clip-rule:evenodd;fill:#FFFBF0;" d="M40.8,123.5c0-0.4,0.3-0.7,0.8-0.7h1.1c0.4,0,0.8,0.3,0.8,0.7    l0,0c0,0.4-0.3,0.7-0.8,0.7h-1.1C41.1,124.2,40.8,123.9,40.8,123.5L40.8,123.5z"/> 	</g> 	<path style="fill:#1A171B;" d="M250.9,89.2c-0.1,0.4-0.3,0.8-0.4,1h-1.2c-0.2-0.3-0.4-0.7-0.5-1.1l-2-0.1c0,1-0.1,1.4-0.2,2.4   c-0.1,1.2-0.2,1.9-0.4,3.1l4.2,3.5v1l-4.9-2.7L245,99l-0.5-2.7l-4.9,2.7v-1l4.2-3.5c-0.2-1.2-0.3-1.9-0.4-3.1   c-0.1-0.9-0.2-1.4-0.2-2.4l-2,0.1c-0.1,0.5-0.3,0.9-0.5,1.1h-1.2c-0.2-0.2-0.3-0.6-0.4-1l-5.1,0.3v-1.6l4.9-1.1   c0-0.6,0.1-1.1,0.2-1.5l2.1,0c0.1,0.3,0.1,0.6,0.2,1l1.9-0.4c0-0.8,0-0.8,0-1.3c0-0.9,0.1-1.4,0.2-2.3c0.1-0.9,0.1-1.4,0.4-2.3   c0.1-0.4,0.1-0.7,0.4-1.1c0.2-0.4,0.3-0.7,0.8-0.8h0.2c0.4,0,0.5,0.4,0.8,0.8c0.3,0.4,0.3,0.7,0.4,1.1c0.2,0.9,0.3,1.4,0.4,2.3   c0.1,0.9,0.2,1.4,0.2,2.3c0,0.5,0,0.5,0,1.3l1.8,0.4c0-0.3,0.1-0.7,0.2-0.9l2.1,0c0.1,0.4,0.2,0.9,0.2,1.5l5,1.1v1.6L250.9,89.2z"/> 	<path style="fill:#1A171B;" d="M356.1,401.7c-0.1,0.4-0.3,0.8-0.4,1h-1.2c-0.2-0.3-0.4-0.7-0.5-1.1l-2-0.1c0,1-0.1,1.4-0.2,2.4   c-0.1,1.2-0.2,1.9-0.4,3.1l4.2,3.5v1l-4.9-2.7l-0.5,2.7l-0.5-2.7l-4.9,2.7v-1l4.2-3.5c-0.2-1.2-0.3-1.9-0.4-3.1   c-0.1-0.9-0.2-1.4-0.2-2.4l-2,0.1c-0.1,0.5-0.3,0.9-0.5,1.1h-1.2c-0.2-0.2-0.3-0.6-0.4-1l-5.1,0.3v-1.6l4.9-1.1   c0-0.6,0.1-1.1,0.2-1.5l2.1,0c0.1,0.3,0.1,0.6,0.2,1l1.9-0.4c0-0.8,0-0.8,0-1.3c0-0.9,0.1-1.4,0.2-2.3c0.1-0.9,0.1-1.4,0.4-2.3   c0.1-0.4,0.1-0.7,0.4-1.1c0.2-0.4,0.3-0.7,0.8-0.8h0.2c0.4,0,0.5,0.4,0.8,0.8c0.3,0.4,0.3,0.7,0.4,1.1c0.2,0.9,0.3,1.4,0.4,2.3   c0.1,0.9,0.2,1.4,0.2,2.3c0,0.5,0,0.5,0,1.3l1.8,0.4c0-0.3,0.1-0.7,0.2-0.9l2.1,0c0.1,0.4,0.2,0.9,0.2,1.5l5,1.1v1.6L356.1,401.7z"/> 	<g> 		<g> 			<path style="fill-rule:evenodd;clip-rule:evenodd;fill:none;stroke:#1A171B;stroke-width:0.2835;stroke-miterlimit:3.8637;" d="     M281.8,345.8"/> 			 				<circle style="fill-rule:evenodd;clip-rule:evenodd;fill:#1A171B;stroke:#1A171B;stroke-miterlimit:3.8637;" cx="278.3" cy="338.3" r="9.4"/> 			<path style="fill-rule:evenodd;clip-rule:evenodd;fill:#FFFBF0;stroke:#1A171B;stroke-miterlimit:3.8637;" d="M270.8,338.3     c0-4.1,3.3-7.4,7.4-7.4c4.1,0,7.4,3.3,7.4,7.4c0,4.1-3.3,7.4-7.4,7.4C274.1,345.8,270.8,342.4,270.8,338.3z"/> 			<path style="fill-rule:evenodd;clip-rule:evenodd;fill:#FFFBF0;" d="M275.4,338.3c0-1.6,1.3-2.9,2.8-2.9c1.6,0,2.9,1.3,2.9,2.9     c0,1.6-1.3,2.9-2.9,2.9C276.7,341.2,275.4,339.9,275.4,338.3z"/> 		</g> 		<polygon style="fill:#1A171B;" points="283.9,343.9 279.9,342 278.4,346.2 276.8,342 272.8,343.8 274.7,339.8 270.5,338.3     274.7,336.8 272.8,332.7 276.9,334.6 278.4,330.4 279.9,334.6 284,332.8 282.1,336.8 286.3,338.3 282.1,339.8   "/> 	</g> 	<g> 		<polygon style="fill:#1A171B;stroke:#1A171B;stroke-width:0.25;stroke-miterlimit:3.8637;" points="43.8,208.5 5,219.4 5,197.6       "/> 		<path style="fill-rule:evenodd;clip-rule:evenodd;fill:#FFFBF0;" d="M33,206.7c-0.5,0.4-1,0.6-1.5,0.9l-0.4-0.5    c0.4-0.4,1-0.7,1.5-1h0.1L33,206.7z"/> 		<path style="fill-rule:evenodd;clip-rule:evenodd;fill:#FFFBF0;" d="M7.2,208c0,0.1-0.1,0.2-0.2,0.2c-0.1,0-0.2-0.1-0.2-0.2    c0-0.1,0-0.2,0.1-0.2C7.1,207.9,7.1,207.9,7.2,208z M8.9,207.7c0,0.2-0.1,0.4-0.2,0.6c-0.2-0.3-0.1-0.6,0-0.9    C9,207.4,8.9,207.5,8.9,207.7z M7.9,205.6l0,0.8c-0.3-0.1-0.7-0.2-1,0c-0.3,0.1-0.4,0.4-0.5,0.7c0,0.1,0,0.3,0.1,0.4    c0.2-0.1,0.4-0.2,0.6-0.2c0.3,0.1,0.6,0.3,0.7,0.6c0.1,0.2,0,0.4-0.1,0.5c-0.2,0.2-0.6,0.4-0.9,0.3c0,0.1,0.2,0.2,0.3,0.3    c0.3,0,0.7-0.1,1-0.2c0-0.8-0.2-2,0.7-2.4c0.2-0.1,0.4,0,0.6,0.2c0.5,0.8,0,1.7-0.2,2.4c0.2,0.2,0.4,0,0.6,0c0.1,0.1,0,0.4,0,0.6    c-0.2,0.1-0.5,0.2-0.7,0.2c-0.2-0.1-0.4-0.1-0.5-0.2c-0.5,0.3-1.2,0.5-1.8,0.3c-0.3-0.1-0.6-0.4-0.7-0.7c-0.1-0.3,0-0.6-0.1-0.9    c-0.3-0.5-0.3-1.1-0.1-1.6c0.2-0.6,0.8-0.9,1.4-0.9C7.4,205.5,7.7,205.5,7.9,205.6z"/> 		<path style="fill-rule:evenodd;clip-rule:evenodd;fill:#FFFBF0;" d="M14.4,208.6c0.1,0.1,0,0.1,0,0.2c-0.1,0.1-0.4,0.2-0.5,0    c-0.2-0.2-0.1-0.5-0.1-0.7C13.9,208.3,14.1,208.5,14.4,208.6z M14.6,207.8c0,0.1-0.1,0.1-0.1,0.1c-0.1,0-0.2-0.1-0.1-0.2    C14.4,207.7,14.6,207.7,14.6,207.8z M12.8,205.8l0,0.6c-0.4,0-0.9-0.1-1.3,0.1c-0.6,0.3-0.7,0.9-0.6,1.4c0.1,0.3,0.2,0.7,0.5,0.9    c0.3,0.2,0.6,0.2,1,0.2l0.6-0.3c0-0.3,0-0.5,0.2-0.7c0.1-0.2,0.3-0.1,0.5-0.1c0.1,0,0.1,0.1,0.1,0.1c0-0.2,0-0.5,0.1-0.6    c0.2-0.2,0.4-0.4,0.7-0.3c0.3,0.1,0.4,0.3,0.6,0.6c0.3,0,0.6,0.1,0.8,0.4c0.1-0.1,0.3-0.3,0.5-0.2c0.1,0.2,0,0.4,0,0.7    c-0.2,0-0.4,0.1-0.4,0.3v0.7l-0.6,0c-0.1-0.4,0.1-0.7-0.2-0.9l-0.2,0c-0.1,0.4-0.4,0.7-0.7,0.9c-0.3,0.1-0.8,0.1-1.1-0.1    c-0.6,0.4-1.5,0.7-2.2,0.3c-0.7-0.4-1-1.1-1-1.8c0-0.6,0.2-1.2,0.7-1.6C11.4,205.8,12,205.6,12.8,205.8L12.8,205.8z"/> 		<path style="fill-rule:evenodd;clip-rule:evenodd;fill:#FFFBF0;" d="M18.9,207.7c0,0.2-0.1,0.4-0.2,0.4c-0.1,0-0.1,0-0.1-0.1    C18.6,207.9,18.8,207.7,18.9,207.7z M17.7,206.4c0,0.5-0.1,1-0.1,1.6c0,0.1,0.1,0,0.2,0c0.2-0.5,0.6-1,1.2-0.9    c0.3,0,0.5,0.2,0.6,0.4c0.1,0.2,0,0.5-0.1,0.7c-0.2,0.3-0.6,0.5-0.9,0.6c0.1,0.2,0.3,0.3,0.5,0.3c0.2,0,0.4-0.1,0.6-0.2    c0,0.2,0.1,0.5,0,0.8c-0.3,0.3-0.8,0.2-1.2,0.1c-0.4-0.2-0.6-0.6-0.7-0.9c-0.1,0-0.1-0.1-0.2-0.1c-0.1,0.3,0,0.6-0.1,0.9l-0.6,0    l0-1.1l-0.1,0c0-0.2-0.2-0.7,0.2-0.7l0.1-1.5H17.7z"/> 		<path style="fill-rule:evenodd;clip-rule:evenodd;fill:#FFFBF0;" d="M21.5,209.2c0,0.3,0,0.8-0.1,1.2c-0.2-0.5-0.1-1,0-1.5    C21.4,208.9,21.5,209,21.5,209.2z M21.8,204.6c0.1,0.8,0.1,1.7,0.2,2.5c0.5,0,1,0.2,1.2,0.7c0.2-0.2,0.5-0.3,0.8-0.3    c0.5,0.1,0.7,0.6,0.7,1l0,1c-0.2,0-0.5,0-0.7,0c-0.2-0.4,0.2-1-0.3-1.2c-0.1,0-0.3,0.1-0.3,0.2l0,1.2h-0.7l-0.1-1.4    c-0.1-0.2-0.2-0.3-0.4-0.3c-0.1,0-0.1,0.1-0.2,0.2c0.1,1,0.3,2.4-0.4,3.2c-0.2,0.1-0.4,0.2-0.6,0.1c-0.7-0.7-0.6-2-0.3-2.8    c0.1-0.4,0.3-0.8,0.6-1.1l-0.2-2.8C21.3,204.6,21.5,204.6,21.8,204.6z"/> 		<path style="fill-rule:evenodd;clip-rule:evenodd;fill:#FFFBF0;" d="M26.7,210.4c0,0.1,0,0.1-0.1,0.2c-0.2,0-0.2-0.1-0.2-0.2    c0-0.1,0.1-0.1,0.1-0.1C26.6,210.2,26.6,210.3,26.7,210.4z M30.5,208.4c0,0.1-0.1,0.2-0.1,0.3c-0.2,0-0.2-0.1-0.2-0.2    c0-0.1,0-0.3,0.2-0.3C30.4,208.1,30.4,208.3,30.5,208.4z M28.6,207.8c0,0.1-0.1,0.3-0.2,0.3c-0.1-0.3-0.1-0.5,0-0.7    C28.6,207.1,28.6,207.7,28.6,207.8z M29.3,207c0.1,0.7-0.1,1.4-0.5,1.9c0.1,0.2,0.4,0.2,0.6,0.2l0.1-0.1c-0.1-0.4-0.2-1.1,0.2-1.4    c0.3-0.3,0.7-0.3,1.1-0.1c0.2,0.1,0.3,0.4,0.3,0.6c0,0.2-0.2,0.4,0,0.5c1-0.3,1.7-1.4,3-1.2c0.3,0.1,0.5,0.5,0.5,0.8    c0,0.6-0.4,1.1-0.9,1.4c-0.3,0.1-0.6,0.2-0.9,0.2c-0.1-0.2,0-0.5,0-0.8c0.3-0.1,0.8-0.3,0.9-0.6c0-0.1-0.1-0.3-0.2-0.3l-0.4,0.1    l-1.9,1.1c-0.3,0.1-0.6,0.1-0.9,0c-0.5,0.3-1.2,0.5-1.8,0.2c-0.1-0.1-0.3-0.2-0.4-0.3c-0.3,0.2-0.6,0.3-0.8,0.6    c0.1,0.5-0.1,0.9-0.5,1.3c-0.3,0.1-0.7,0.1-0.9,0c-0.3-0.1-0.4-0.5-0.4-0.7c0-0.5,0.4-0.9,0.9-1.1v-0.2c-0.4,0.1-0.9,0.4-1.3,0.1    c-0.2-0.2-0.3-0.5-0.3-0.7c0-0.5,0.4-0.9,0.9-1.1c0.4-0.2,0.8-0.4,1.3-0.4l0,0.7c-0.5,0.1-1.2,0.1-1.4,0.7c0,0.1-0.1,0.2,0.1,0.2    c0.3-0.1,0.6-0.4,0.8-0.7h0.7l0,1c0.1,0,0.3-0.1,0.4-0.1c-0.2-0.6-0.3-1.5,0.1-2c0.1-0.2,0.3-0.4,0.6-0.4    C28.8,206.5,29.2,206.6,29.3,207z"/> 	</g> 	<g> 		<polygon style="fill-rule:evenodd;clip-rule:evenodd;fill:none;" points="86.3,129.4 127,89.7 136.5,99.5 95.8,139.1   "/> 		<path style="fill:#898989;" d="M97.7,130.7c-0.1,0.2-0.2,0.4-0.2,0.5c-0.1,0.2-0.2,0.4-0.3,0.6c-0.1,0.2-0.2,0.4-0.4,0.6    c-0.1,0.2-0.3,0.4-0.6,0.6c-0.4,0.4-0.9,0.7-1.3,0.9c-0.5,0.2-0.9,0.3-1.4,0.3c-0.5,0-1-0.1-1.5-0.4c-0.5-0.2-1-0.6-1.5-1.1    c-0.5-0.5-0.8-1-1-1.5s-0.3-1-0.3-1.5c0-0.5,0.1-1,0.3-1.4c0.2-0.5,0.5-0.9,1-1.3c0.3-0.3,0.7-0.6,1-0.8c0.4-0.2,0.8-0.4,1.4-0.6    l0.9,0.9l-0.1,0.1c-0.6,0-1.1,0.2-1.5,0.3s-0.8,0.4-1.2,0.8c-0.3,0.3-0.5,0.6-0.6,0.9c-0.1,0.3-0.2,0.7-0.2,1    c0,0.4,0.1,0.7,0.3,1.1c0.2,0.4,0.5,0.8,0.8,1.2c0.4,0.4,0.8,0.7,1.2,0.9s0.8,0.3,1.1,0.3c0.4,0,0.7,0,1-0.2    c0.3-0.1,0.6-0.3,0.9-0.6c0.4-0.4,0.6-0.8,0.8-1.2c0.2-0.4,0.3-0.9,0.3-1.4l0.1-0.1L97.7,130.7z"/> 		<path style="fill:#898989;" d="M100.3,129l-0.9,0.9l-1.1-1.1l0.9-0.9L100.3,129z"/> 		<path style="fill:#898989;" d="M109.4,120.2l-0.8,0.8l-2.1-1l-2.5,2.4l1,2.1l-0.8,0.8l-3.5-7.8l1-1L109.4,120.2z M105.6,119.5    l-3.7-1.8l1.7,3.8L105.6,119.5z"/> 		<path style="fill:#898989;" d="M109.5,113.3L109.5,113.3c-0.2,0.1-0.3,0.2-0.4,0.3c-0.1,0.1-0.2,0.2-0.4,0.3    c-0.2,0.2-0.4,0.5-0.5,0.8c-0.1,0.3-0.2,0.6-0.2,1l3,3.1l-0.7,0.7l-4.2-4.3l0.7-0.7l0.6,0.6c0.1-0.5,0.2-0.9,0.3-1.2    c0.1-0.3,0.3-0.6,0.5-0.8c0.1-0.1,0.2-0.2,0.3-0.3c0.1,0,0.2-0.1,0.3-0.2L109.5,113.3z"/> 		<path style="fill:#898989;" d="M116.8,113l-0.7,0.7l-0.4-0.5c0,0.1,0,0.3-0.1,0.4c0,0.2-0.1,0.3-0.1,0.5c-0.1,0.2-0.2,0.4-0.3,0.6    c-0.1,0.2-0.3,0.4-0.5,0.6c-0.4,0.4-0.8,0.6-1.4,0.6s-1-0.2-1.4-0.6c-0.3-0.3-0.5-0.7-0.6-1c-0.1-0.3,0-0.7,0.1-1.1    c0.1-0.4,0.4-0.8,0.7-1.2c0.3-0.4,0.7-0.8,1.1-1.2l-0.1-0.1c-0.2-0.2-0.3-0.3-0.5-0.3s-0.3-0.1-0.5,0c-0.2,0-0.3,0.1-0.5,0.2    c-0.2,0.1-0.3,0.3-0.5,0.4c-0.2,0.2-0.4,0.4-0.6,0.7c-0.2,0.3-0.4,0.6-0.5,0.9l0,0l-0.7-0.7c0.1-0.2,0.3-0.4,0.5-0.7    s0.5-0.6,0.7-0.8c0.3-0.3,0.6-0.5,0.9-0.7c0.3-0.2,0.6-0.3,0.8-0.3c0.3,0,0.5,0,0.8,0.1c0.3,0.1,0.5,0.3,0.8,0.6L116.8,113z     M115,112.6l-1.2-1.2c-0.2,0.2-0.4,0.5-0.7,0.8c-0.3,0.3-0.5,0.6-0.6,0.8c-0.2,0.3-0.2,0.5-0.2,0.8c0,0.2,0.1,0.5,0.3,0.7    c0.2,0.2,0.5,0.4,0.8,0.3c0.3,0,0.6-0.2,0.9-0.5c0.3-0.2,0.4-0.5,0.6-0.8C114.9,113.3,115,113,115,112.6z"/> 		<path style="fill:#898989;" d="M121.2,107.8c0.7,0.7,1.1,1.4,1.1,2.1c0,0.7-0.3,1.3-1,2c-0.2,0.2-0.5,0.4-0.7,0.6    c-0.2,0.2-0.5,0.3-0.8,0.5l-0.7-0.7l0,0c0.2-0.1,0.4-0.2,0.7-0.4s0.6-0.4,0.9-0.6c0.2-0.2,0.4-0.5,0.5-0.7    c0.1-0.2,0.2-0.4,0.1-0.6c0-0.2-0.1-0.4-0.2-0.5c-0.1-0.2-0.2-0.4-0.4-0.5l-0.4-0.4c0,0.4-0.1,0.7-0.2,1c-0.1,0.3-0.3,0.6-0.6,0.9    c-0.5,0.5-1.1,0.7-1.8,0.6c-0.7-0.1-1.3-0.5-2-1.1c-0.4-0.4-0.6-0.7-0.8-1.1c-0.2-0.4-0.2-0.7-0.3-1.1c0-0.3,0.1-0.7,0.2-1    c0.1-0.3,0.3-0.6,0.6-0.8c0.2-0.2,0.5-0.4,0.7-0.5c0.2-0.1,0.5-0.2,0.8-0.3l-0.1-0.2l0.7-0.7L121.2,107.8z M119.8,107.8l-2.3-2.3    c-0.3,0.1-0.5,0.2-0.7,0.3s-0.4,0.3-0.5,0.4c-0.4,0.4-0.6,0.8-0.5,1.3c0,0.5,0.3,1,0.8,1.5c0.5,0.5,0.9,0.8,1.3,0.8    c0.4,0.1,0.8-0.1,1.2-0.4c0.2-0.2,0.4-0.5,0.5-0.7C119.7,108.4,119.7,108.1,119.8,107.8z"/> 		<path style="fill:#898989;" d="M119.7,97.6l0.4,2.5l-0.6,0.6l-0.7-2.1L119.7,97.6z M124.7,101.2c0.7,0.7,1,1.4,1.1,2.2    c0,0.8-0.2,1.4-0.9,2c-0.6,0.6-1.3,0.9-2,0.8c-0.8-0.1-1.5-0.4-2.2-1.1c-0.7-0.7-1-1.4-1.1-2.2c0-0.8,0.2-1.4,0.9-2    c0.6-0.6,1.3-0.9,2-0.8C123.3,100.1,124,100.5,124.7,101.2z M123.9,101.9c-0.5-0.6-1.1-0.9-1.5-0.9s-0.9,0.1-1.3,0.5    c-0.4,0.4-0.6,0.8-0.5,1.3c0,0.5,0.3,1,0.9,1.6c0.5,0.5,1,0.8,1.5,0.9c0.5,0.1,0.9-0.1,1.3-0.5c0.4-0.4,0.6-0.8,0.5-1.3    C124.7,102.9,124.4,102.4,123.9,101.9z"/> 	</g> 	<g> 		<path style="fill-rule:evenodd;clip-rule:evenodd;fill:none;" d="M117.6,268.9c27.3,3.2,59.1,17.5,68.1,24.6    c20.3,16.1,38.7,37.7,47.3,55.5c1.3,2.7,2.7,4,3.7,6.9c1.7,5.1,1.8,8.6,0.4,13.8l-0.4,10.5c0.2,3.4,0.5,5.3,1.6,8.5    c2.2,6.4,5.7,9,10.1,14.2c3,3.5,5.1,5.2,8.3,8.5"/> 		<path style="fill:#898989;" d="M138.7,273.1l-1.1-0.3l-0.2-2.4l-3.4-0.8l-1.3,2l-1-0.3l4.8-7l1.4,0.3L138.7,273.1z M137.3,269.5    l-0.4-4.1l-2.3,3.5L137.3,269.5z"/> 		<path style="fill:#898989;" d="M144.5,274.8l-1-0.3l0.2-0.6c-0.4,0.2-0.8,0.3-1.1,0.3c-0.3,0-0.7,0-1-0.1c-0.6-0.2-1-0.5-1.2-1    c-0.2-0.5-0.2-1.1,0-1.8l1.1-3.7l1,0.3l-1,3.3c-0.1,0.3-0.1,0.5-0.2,0.8c0,0.2,0,0.4,0,0.6c0,0.2,0.1,0.3,0.3,0.4s0.3,0.2,0.6,0.3    c0.3,0.1,0.5,0.1,0.9,0c0.3,0,0.7-0.1,1-0.3l1.3-4.3l1,0.3L144.5,274.8z"/> 		<path style="fill:#898989;" d="M149.4,276.3c-0.2,0-0.4,0-0.6-0.1c-0.2,0-0.4-0.1-0.6-0.1c-0.6-0.2-1-0.5-1.2-0.9    c-0.2-0.4-0.2-1,0-1.7l1-3l-0.6-0.2l0.3-0.8l0.6,0.2l0.5-1.6l1,0.3l-0.5,1.6l2,0.6l-0.3,0.8l-2-0.6l-0.8,2.6    c-0.1,0.3-0.2,0.5-0.2,0.7s0,0.3,0,0.5c0,0.2,0.1,0.3,0.2,0.4c0.1,0.1,0.3,0.2,0.6,0.3c0.2,0.1,0.3,0.1,0.5,0.1c0.2,0,0.3,0,0.4,0    l0.1,0L149.4,276.3z"/> 		<path style="fill:#898989;" d="M156.3,275.7c-0.3,0.9-0.8,1.6-1.5,1.9c-0.7,0.4-1.4,0.4-2.2,0.1c-0.8-0.3-1.3-0.8-1.6-1.5    c-0.3-0.7-0.3-1.5,0.1-2.4c0.3-0.9,0.8-1.6,1.5-1.9c0.7-0.4,1.4-0.4,2.2-0.1c0.8,0.3,1.3,0.8,1.6,1.5    C156.7,274,156.7,274.8,156.3,275.7z M155.4,275.3c0.3-0.7,0.3-1.3,0.2-1.8c-0.2-0.5-0.5-0.8-1-1c-0.5-0.2-1-0.1-1.4,0.1    c-0.4,0.3-0.7,0.7-1,1.5c-0.3,0.7-0.3,1.3-0.1,1.8c0.2,0.5,0.5,0.8,1,1c0.5,0.2,1,0.1,1.4-0.1    C154.8,276.5,155.1,276.1,155.4,275.3z"/> 		<path style="fill:#898989;" d="M163.7,275.3l-4.4,4.7l-0.9-0.4l-0.1-6.5l1,0.4l0,5.1l3.5-3.8L163.7,275.3z"/> 		<path style="fill:#898989;" d="M163.7,281.8l-0.9-0.4l2.3-5.5l0.9,0.4L163.7,281.8z M168.2,274l-2.1,1.3l-0.7-0.3l1.7-1.5    L168.2,274z"/> 		<path style="fill:#898989;" d="M169.8,284.5l-0.9-0.4l0.3-0.6c-0.1,0-0.3,0-0.4,0.1c-0.2,0-0.4,0.1-0.5,0.1c-0.2,0-0.4,0-0.6,0    s-0.5-0.1-0.7-0.2c-0.5-0.2-0.8-0.6-1-1.1c-0.2-0.5-0.2-1,0-1.5c0.2-0.4,0.4-0.7,0.7-0.9c0.3-0.2,0.6-0.3,1-0.3    c0.4,0,0.8,0.1,1.3,0.2s1,0.3,1.6,0.6l0.1-0.1c0.1-0.2,0.1-0.4,0.1-0.6c0-0.2-0.1-0.3-0.2-0.5c-0.1-0.1-0.2-0.3-0.4-0.4    c-0.2-0.1-0.4-0.2-0.6-0.3c-0.2-0.1-0.5-0.2-0.9-0.3c-0.3-0.1-0.7-0.1-1-0.1l0,0l0.4-0.9c0.2,0,0.5,0.1,0.9,0.2    c0.4,0.1,0.7,0.2,1,0.4c0.4,0.2,0.7,0.4,1,0.5c0.3,0.2,0.5,0.4,0.6,0.7c0.1,0.2,0.2,0.5,0.2,0.8s-0.1,0.6-0.2,1L169.8,284.5z     M169.5,282.8l0.7-1.5c-0.3-0.1-0.6-0.2-1-0.4c-0.4-0.1-0.7-0.2-1-0.3c-0.3,0-0.6,0-0.8,0.1c-0.2,0.1-0.4,0.3-0.5,0.5    c-0.1,0.3-0.2,0.6,0,0.8c0.1,0.2,0.4,0.5,0.8,0.6c0.3,0.1,0.6,0.2,1,0.2C168.9,282.9,169.2,282.8,169.5,282.8z"/> 		<path style="fill:#898989;" d="M179.3,289.4l-0.9-0.5l0.3-0.6c-0.4,0.1-0.7,0.1-1.1,0.1c-0.3,0-0.7-0.1-1-0.3    c-0.6-0.3-1-0.8-1.1-1.5c-0.1-0.7,0.1-1.5,0.5-2.3c0.2-0.4,0.5-0.8,0.8-1.1c0.3-0.3,0.6-0.5,1-0.6c0.3-0.1,0.7-0.2,1-0.1    s0.7,0.1,1,0.3c0.3,0.1,0.5,0.3,0.7,0.5c0.2,0.2,0.4,0.4,0.5,0.6l1.2-2.3l0.9,0.5L179.3,289.4z M179.1,287.6l1.6-3    c-0.2-0.2-0.4-0.4-0.5-0.6s-0.4-0.3-0.6-0.4c-0.5-0.3-1-0.3-1.4-0.1c-0.5,0.2-0.9,0.6-1.2,1.3c-0.3,0.6-0.5,1.2-0.4,1.6    c0,0.4,0.3,0.8,0.8,1c0.3,0.1,0.5,0.2,0.9,0.2C178.5,287.7,178.8,287.6,179.1,287.6z"/> 		<path style="fill:#898989;" d="M186.8,290.7l-3.7-2.4c-0.2,0.3-0.3,0.6-0.4,0.9c-0.1,0.3,0,0.6,0,0.8c0.1,0.2,0.2,0.5,0.3,0.7    c0.2,0.2,0.4,0.4,0.6,0.6c0.3,0.2,0.7,0.4,1.2,0.5c0.4,0.1,0.8,0.1,1,0.1l0,0l-0.6,0.9c-0.4-0.1-0.7-0.2-1.1-0.3    c-0.3-0.1-0.7-0.3-1-0.5c-0.8-0.5-1.3-1.2-1.5-1.9c-0.2-0.8,0-1.6,0.5-2.4c0.5-0.8,1.2-1.3,1.9-1.5c0.8-0.2,1.5-0.1,2.2,0.4    c0.7,0.4,1.1,1,1.2,1.6s-0.1,1.3-0.5,2L186.8,290.7z M186.4,289.5c0.3-0.4,0.4-0.9,0.3-1.3c-0.1-0.4-0.3-0.7-0.8-1    c-0.5-0.3-0.9-0.4-1.3-0.3s-0.8,0.3-1.1,0.7L186.4,289.5z"/> 		<path style="fill:#898989;" d="M193.3,299.9l-3.9-3.3l5.2-6.1l0.8,0.7l-4.6,5.4l3,2.6L193.3,299.9z"/> 		<path style="fill:#898989;" d="M199.7,301.8l-3.3-3c-0.2,0.3-0.4,0.5-0.5,0.8c-0.1,0.3-0.1,0.5-0.1,0.8c0,0.3,0.1,0.5,0.2,0.7    s0.3,0.5,0.5,0.7c0.3,0.3,0.7,0.5,1.1,0.6c0.4,0.2,0.7,0.2,1,0.2l0,0l-0.7,0.8c-0.3-0.1-0.7-0.3-1-0.4s-0.6-0.4-0.9-0.6    c-0.7-0.7-1.1-1.4-1.2-2.2s0.3-1.5,0.9-2.3c0.7-0.7,1.4-1.1,2.2-1.2c0.8-0.1,1.5,0.2,2.1,0.8c0.6,0.5,0.9,1.1,0.9,1.8    c0,0.6-0.3,1.3-0.9,1.9L199.7,301.8z M199.5,300.5c0.4-0.4,0.5-0.8,0.5-1.2c0-0.4-0.2-0.8-0.6-1.1c-0.4-0.4-0.8-0.5-1.3-0.5    s-0.9,0.2-1.2,0.5L199.5,300.5z"/> 		<path style="fill:#898989;" d="M206.8,304.3l-5.9,2.6l-0.7-0.7l2.4-6l0.8,0.8l-2,4.7l4.6-2.1L206.8,304.3z"/> 		<path style="fill:#898989;" d="M206.7,312.7L206,312l0.5-0.4c-0.1,0-0.3,0-0.4-0.1c-0.2,0-0.3-0.1-0.5-0.1    c-0.2-0.1-0.4-0.2-0.6-0.3c-0.2-0.1-0.4-0.3-0.6-0.5c-0.4-0.4-0.6-0.8-0.6-1.4c0-0.5,0.2-1,0.6-1.4c0.3-0.3,0.7-0.5,1-0.6    s0.7,0,1.1,0.1c0.4,0.2,0.8,0.4,1.2,0.7c0.4,0.3,0.8,0.7,1.2,1.1l0.1-0.1c0.2-0.2,0.3-0.3,0.3-0.5c0.1-0.2,0.1-0.3,0-0.5    c0-0.2-0.1-0.3-0.2-0.5c-0.1-0.2-0.3-0.3-0.4-0.5c-0.2-0.2-0.4-0.4-0.7-0.6c-0.3-0.2-0.6-0.4-0.9-0.5l0,0l0.7-0.7    c0.2,0.1,0.4,0.3,0.7,0.5c0.3,0.2,0.6,0.5,0.8,0.7c0.3,0.3,0.5,0.6,0.7,0.9c0.2,0.3,0.3,0.6,0.3,0.8c0,0.3,0,0.5-0.1,0.8    c-0.1,0.3-0.3,0.5-0.6,0.8L206.7,312.7z M207,311l1.2-1.2c-0.2-0.2-0.5-0.5-0.8-0.7c-0.3-0.3-0.6-0.5-0.8-0.6    c-0.3-0.2-0.5-0.2-0.8-0.2c-0.2,0-0.5,0.1-0.7,0.3c-0.2,0.2-0.4,0.5-0.3,0.8c0,0.3,0.2,0.6,0.5,0.9c0.2,0.3,0.5,0.4,0.8,0.6    C206.4,310.9,206.7,310.9,207,311z"/> 		<path style="fill:#898989;" d="M211.4,317.9l-0.7-0.7l2.5-2.3c0.2-0.2,0.4-0.4,0.5-0.6c0.2-0.2,0.3-0.4,0.3-0.5    c0.1-0.2,0-0.3,0-0.5s-0.2-0.4-0.4-0.6c-0.2-0.2-0.4-0.4-0.7-0.5c-0.3-0.1-0.6-0.2-1-0.3l-3.3,3l-0.7-0.7l4.4-4l0.7,0.7l-0.5,0.4    c0.4,0.1,0.8,0.2,1.1,0.3c0.3,0.2,0.6,0.4,0.9,0.6c0.4,0.5,0.6,1,0.6,1.5c-0.1,0.5-0.4,1-0.9,1.5L211.4,317.9z"/> 		<path style="fill:#898989;" d="M214.7,321.7c-0.2-0.1-0.3-0.2-0.5-0.4c-0.2-0.1-0.3-0.3-0.4-0.4c-0.4-0.5-0.6-0.9-0.5-1.4    c0-0.5,0.3-0.9,0.9-1.4l2.4-2.1l-0.4-0.5l0.6-0.6l0.4,0.5l1.3-1.1l0.7,0.8l-1.3,1.1l1.4,1.6l-0.6,0.6l-1.4-1.6l-2.1,1.8    c-0.2,0.2-0.4,0.4-0.5,0.5c-0.1,0.1-0.2,0.3-0.3,0.4c-0.1,0.2-0.1,0.3,0,0.5c0,0.1,0.2,0.3,0.3,0.5c0.1,0.1,0.2,0.2,0.4,0.3    c0.2,0.1,0.3,0.2,0.3,0.2l0,0L214.7,321.7z"/> 		<path style="fill:#898989;" d="M220.9,324.7l-2.8-3.4c-0.3,0.2-0.5,0.5-0.6,0.7c-0.1,0.3-0.2,0.5-0.2,0.8c0,0.3,0,0.5,0.1,0.8    c0.1,0.3,0.2,0.5,0.4,0.7c0.3,0.3,0.6,0.6,1,0.8c0.4,0.2,0.7,0.3,0.9,0.4l0,0l-0.9,0.7c-0.3-0.2-0.6-0.4-0.9-0.6    c-0.3-0.2-0.6-0.5-0.8-0.8c-0.6-0.8-0.9-1.5-0.8-2.3c0.1-0.8,0.5-1.5,1.3-2.1c0.8-0.6,1.5-0.9,2.3-0.8c0.8,0.1,1.5,0.4,2,1.1    c0.5,0.6,0.7,1.3,0.6,1.9s-0.5,1.2-1.2,1.8L220.9,324.7z M220.9,323.5c0.4-0.3,0.6-0.7,0.7-1.1c0.1-0.4-0.1-0.8-0.4-1.2    c-0.3-0.4-0.7-0.7-1.2-0.7c-0.4,0-0.9,0.1-1.3,0.3L220.9,323.5z"/> 	</g> 	<g> 		<path style="fill:#1A171B;" d="M59,246.8c0,0.4-0.1,0.7-0.2,1c-0.1,0.3-0.3,0.6-0.5,0.8c-0.3,0.3-0.6,0.5-1,0.6s-0.9,0.2-1.4,0.2    h-1.1v3h-1.1v-8h2.2c0.5,0,0.9,0,1.2,0.1c0.3,0.1,0.6,0.2,0.9,0.4c0.3,0.2,0.5,0.5,0.7,0.8C58.9,246,59,246.3,59,246.8z     M57.9,246.8c0-0.3,0-0.5-0.1-0.7c-0.1-0.2-0.2-0.4-0.4-0.5c-0.2-0.1-0.4-0.2-0.6-0.2c-0.2,0-0.5-0.1-0.8-0.1h-1.1v3.2h0.9    c0.4,0,0.8,0,1-0.1s0.5-0.2,0.7-0.4c0.2-0.2,0.3-0.4,0.4-0.5C57.8,247.3,57.9,247.1,57.9,246.8z"/> 		<path style="fill:#1A171B;" d="M64.7,252.4h-1v-0.6c-0.1,0.1-0.2,0.1-0.4,0.3s-0.3,0.2-0.4,0.3c-0.2,0.1-0.4,0.2-0.6,0.2    s-0.5,0.1-0.8,0.1c-0.5,0-1-0.2-1.4-0.5s-0.6-0.8-0.6-1.4c0-0.5,0.1-0.8,0.3-1.1c0.2-0.3,0.5-0.5,0.8-0.7c0.4-0.2,0.8-0.3,1.3-0.3    c0.5-0.1,1.1-0.1,1.6-0.1v-0.2c0-0.2,0-0.4-0.1-0.6c-0.1-0.2-0.2-0.3-0.3-0.4c-0.1-0.1-0.3-0.1-0.5-0.2c-0.2,0-0.4,0-0.6,0    c-0.3,0-0.6,0-0.9,0.1c-0.3,0.1-0.7,0.2-1,0.3h-0.1v-1c0.2-0.1,0.5-0.1,0.9-0.2s0.7-0.1,1.1-0.1c0.4,0,0.8,0,1.1,0.1    c0.3,0.1,0.6,0.2,0.8,0.4c0.2,0.2,0.4,0.4,0.5,0.6s0.2,0.6,0.2,1V252.4z M63.7,250.9v-1.7c-0.3,0-0.7,0-1.1,0.1s-0.7,0.1-1,0.2    c-0.3,0.1-0.5,0.2-0.7,0.4s-0.3,0.4-0.3,0.7c0,0.3,0.1,0.6,0.3,0.8c0.2,0.2,0.5,0.3,1,0.3c0.4,0,0.7-0.1,1-0.2    C63.2,251.3,63.5,251.1,63.7,250.9z"/> 		<path style="fill:#1A171B;" d="M70.4,247.5L70.4,247.5c-0.2,0-0.3-0.1-0.5-0.1c-0.1,0-0.3,0-0.5,0c-0.3,0-0.6,0.1-0.9,0.2    s-0.6,0.3-0.8,0.5v4.3h-1v-6h1v0.9c0.4-0.3,0.8-0.6,1.1-0.7c0.3-0.1,0.6-0.2,0.9-0.2c0.2,0,0.3,0,0.4,0c0.1,0,0.2,0,0.4,0.1V247.5    z"/> 		<path style="fill:#1A171B;" d="M75.8,252c-0.3,0.2-0.7,0.3-1,0.4c-0.3,0.1-0.6,0.1-1,0.1c-0.4,0-0.8-0.1-1.2-0.2    c-0.4-0.1-0.7-0.3-0.9-0.6c-0.3-0.3-0.5-0.6-0.6-1c-0.1-0.4-0.2-0.9-0.2-1.4c0-1,0.3-1.8,0.8-2.3s1.3-0.8,2.1-0.8    c0.3,0,0.7,0,1,0.1c0.3,0.1,0.6,0.2,0.9,0.4v1.1h-0.1c-0.3-0.2-0.6-0.4-1-0.6c-0.3-0.1-0.6-0.2-1-0.2c-0.6,0-1,0.2-1.4,0.6    c-0.3,0.4-0.5,1-0.5,1.7c0,0.7,0.2,1.3,0.5,1.7s0.8,0.6,1.4,0.6c0.2,0,0.4,0,0.6-0.1c0.2-0.1,0.4-0.1,0.6-0.2    c0.1-0.1,0.3-0.2,0.4-0.2c0.1-0.1,0.2-0.2,0.3-0.2h0.1V252z"/> 		<path style="fill:#1A171B;" d="M60.2,264.1h-1.4l-3.2-3.6l-0.8,0.8v2.7h-1.1v-8h1.1v4.2l3.9-4.2H60l-3.6,3.8L60.2,264.1z"/> 		<path style="fill:#1A171B;" d="M65,259.2L65,259.2c-0.2,0-0.3-0.1-0.5-0.1c-0.1,0-0.3,0-0.5,0c-0.3,0-0.6,0.1-0.9,0.2    s-0.6,0.3-0.8,0.5v4.3h-1v-6h1v0.9c0.4-0.3,0.8-0.6,1.1-0.7c0.3-0.1,0.6-0.2,0.9-0.2c0.2,0,0.3,0,0.4,0c0.1,0,0.2,0,0.4,0.1V259.2    z"/> 		<path style="fill:#1A171B;" d="M71,261.2h-4.4c0,0.4,0.1,0.7,0.2,1c0.1,0.3,0.3,0.5,0.5,0.7c0.2,0.2,0.4,0.3,0.7,0.4    s0.5,0.1,0.8,0.1c0.4,0,0.8-0.1,1.2-0.2c0.4-0.2,0.7-0.3,0.9-0.5h0.1v1.1c-0.3,0.1-0.7,0.3-1,0.4s-0.7,0.1-1.1,0.1    c-1,0-1.8-0.3-2.3-0.8c-0.6-0.5-0.8-1.3-0.8-2.3c0-1,0.3-1.8,0.8-2.3s1.2-0.9,2.1-0.9c0.8,0,1.4,0.2,1.9,0.7s0.7,1.1,0.7,2V261.2z     M70,260.4c0-0.5-0.1-0.9-0.4-1.2c-0.3-0.3-0.7-0.4-1.2-0.4c-0.5,0-1,0.2-1.3,0.5c-0.3,0.3-0.5,0.7-0.5,1.2H70z"/> 		<path style="fill:#1A171B;" d="M78,264.1h-1.3l-2.4-2.6l-0.7,0.6v2h-1v-8.4h1v5.4l2.9-3h1.3l-2.8,2.8L78,264.1z"/> 		<path style="fill:#1A171B;" d="M84.1,261.1c0,1-0.3,1.8-0.8,2.3c-0.5,0.6-1.2,0.8-2,0.8c-0.8,0-1.5-0.3-2-0.8    c-0.5-0.6-0.7-1.3-0.7-2.3c0-1,0.3-1.8,0.7-2.3c0.5-0.6,1.2-0.9,2-0.9c0.8,0,1.5,0.3,2,0.9C83.8,259.4,84.1,260.1,84.1,261.1z     M83,261.1c0-0.8-0.2-1.4-0.5-1.7s-0.7-0.6-1.3-0.6c-0.5,0-1,0.2-1.3,0.6s-0.5,1-0.5,1.7c0,0.8,0.2,1.3,0.5,1.7    c0.3,0.4,0.7,0.6,1.3,0.6c0.5,0,1-0.2,1.3-0.6C82.9,262.4,83,261.9,83,261.1z"/> 		<path style="fill:#1A171B;" d="M90.8,258.1l-2.4,6h-1l-2.4-6H86l1.9,4.8l1.8-4.8H90.8z"/> 		<path style="fill:#1A171B;" d="M93.2,257.1H92v-1h1.1V257.1z M93.1,264.1h-1v-6h1V264.1z"/> 		<path style="fill:#1A171B;" d="M99.5,263.7c-0.3,0.2-0.7,0.3-1,0.4c-0.3,0.1-0.6,0.1-1,0.1c-0.4,0-0.8-0.1-1.2-0.2    c-0.4-0.1-0.7-0.3-0.9-0.6c-0.3-0.3-0.5-0.6-0.6-1c-0.1-0.4-0.2-0.9-0.2-1.4c0-1,0.3-1.8,0.8-2.3s1.3-0.8,2.1-0.8    c0.3,0,0.7,0,1,0.1c0.3,0.1,0.6,0.2,0.9,0.4v1.1h-0.1c-0.3-0.2-0.6-0.4-1-0.6c-0.3-0.1-0.6-0.2-1-0.2c-0.6,0-1,0.2-1.4,0.6    c-0.3,0.4-0.5,1-0.5,1.7c0,0.7,0.2,1.3,0.5,1.7s0.8,0.6,1.4,0.6c0.2,0,0.4,0,0.6-0.1c0.2-0.1,0.4-0.1,0.6-0.2    c0.1-0.1,0.3-0.2,0.4-0.2c0.1-0.1,0.2-0.2,0.3-0.2h0.1V263.7z"/> 	</g> 	<g> 		<path style="fill:#1A171B;" d="M286.6,323.1h-1.1v-6.9l-2.2,4.7h-0.6l-2.2-4.7v6.9h-1v-8h1.4l2.1,4.5l2.1-4.5h1.5V323.1z"/> 		<path style="fill:#1A171B;" d="M293.6,320.2h-4.4c0,0.4,0.1,0.7,0.2,1c0.1,0.3,0.3,0.5,0.5,0.7c0.2,0.2,0.4,0.3,0.7,0.4    c0.3,0.1,0.5,0.1,0.8,0.1c0.4,0,0.8-0.1,1.2-0.2c0.4-0.2,0.7-0.3,0.9-0.5h0.1v1.1c-0.3,0.1-0.7,0.3-1,0.4    c-0.4,0.1-0.7,0.1-1.1,0.1c-1,0-1.8-0.3-2.3-0.8c-0.6-0.5-0.8-1.3-0.8-2.3c0-1,0.3-1.8,0.8-2.3c0.5-0.6,1.2-0.9,2.1-0.9    c0.8,0,1.4,0.2,1.9,0.7s0.7,1.1,0.7,2V320.2z M292.7,319.4c0-0.5-0.1-0.9-0.4-1.2c-0.3-0.3-0.7-0.4-1.2-0.4c-0.5,0-1,0.2-1.3,0.5    s-0.5,0.7-0.5,1.2H292.7z"/> 		<path style="fill:#1A171B;" d="M298.9,318.2L298.9,318.2c-0.2,0-0.4-0.1-0.5-0.1c-0.1,0-0.3,0-0.5,0c-0.3,0-0.6,0.1-0.9,0.2    s-0.6,0.3-0.8,0.5v4.3h-1v-6h1v0.9c0.4-0.3,0.8-0.6,1.1-0.7c0.3-0.1,0.6-0.2,0.9-0.2c0.2,0,0.3,0,0.4,0c0.1,0,0.2,0,0.4,0.1V318.2    z"/> 		<path style="fill:#1A171B;" d="M304.3,322.7c-0.3,0.2-0.7,0.3-1,0.4s-0.6,0.1-1,0.1c-0.4,0-0.8-0.1-1.2-0.2s-0.7-0.3-0.9-0.6    c-0.3-0.3-0.5-0.6-0.6-1s-0.2-0.9-0.2-1.4c0-1,0.3-1.8,0.8-2.3c0.5-0.6,1.3-0.8,2.1-0.8c0.3,0,0.7,0,1,0.1    c0.3,0.1,0.6,0.2,0.9,0.4v1.1h-0.1c-0.3-0.2-0.6-0.4-1-0.6c-0.3-0.1-0.6-0.2-1-0.2c-0.6,0-1,0.2-1.4,0.6c-0.3,0.4-0.5,1-0.5,1.7    c0,0.7,0.2,1.3,0.5,1.7c0.3,0.4,0.8,0.6,1.4,0.6c0.2,0,0.4,0,0.6-0.1c0.2-0.1,0.4-0.1,0.6-0.2c0.1-0.1,0.3-0.2,0.4-0.2    c0.1-0.1,0.2-0.2,0.3-0.2h0.1V322.7z"/> 		<path style="fill:#1A171B;" d="M310.3,323.1h-1v-0.6c-0.1,0.1-0.2,0.1-0.4,0.3c-0.2,0.1-0.3,0.2-0.4,0.3c-0.2,0.1-0.4,0.2-0.6,0.2    s-0.5,0.1-0.8,0.1c-0.5,0-1-0.2-1.4-0.5c-0.4-0.4-0.6-0.8-0.6-1.4c0-0.5,0.1-0.8,0.3-1.1s0.5-0.5,0.8-0.7c0.4-0.2,0.8-0.3,1.3-0.3    c0.5-0.1,1.1-0.1,1.6-0.1v-0.2c0-0.2,0-0.4-0.1-0.6c-0.1-0.2-0.2-0.3-0.3-0.4c-0.1-0.1-0.3-0.1-0.5-0.2c-0.2,0-0.4,0-0.6,0    c-0.3,0-0.6,0-0.9,0.1c-0.3,0.1-0.7,0.2-1,0.3h-0.1v-1c0.2-0.1,0.5-0.1,0.9-0.2s0.7-0.1,1.1-0.1c0.4,0,0.8,0,1.1,0.1    c0.3,0.1,0.6,0.2,0.8,0.4c0.2,0.2,0.4,0.4,0.5,0.6c0.1,0.3,0.2,0.6,0.2,1V323.1z M309.3,321.6v-1.7c-0.3,0-0.7,0-1.1,0.1    c-0.4,0-0.7,0.1-1,0.2c-0.3,0.1-0.5,0.2-0.7,0.4s-0.3,0.4-0.3,0.7c0,0.3,0.1,0.6,0.3,0.8c0.2,0.2,0.5,0.3,1,0.3    c0.4,0,0.7-0.1,1-0.2C308.7,321.9,309,321.8,309.3,321.6z"/> 		<path style="fill:#1A171B;" d="M317.5,320c0,0.5-0.1,0.9-0.2,1.3c-0.1,0.4-0.3,0.7-0.6,1c-0.2,0.3-0.5,0.5-0.8,0.6    c-0.3,0.1-0.7,0.2-1,0.2c-0.3,0-0.6,0-0.8-0.1c-0.3-0.1-0.5-0.2-0.8-0.3v2.5h-1v-8.2h1v0.6c0.3-0.2,0.6-0.4,0.9-0.6    s0.7-0.2,1.1-0.2c0.7,0,1.3,0.3,1.7,0.8C317.3,318.3,317.5,319,317.5,320z M316.4,320c0-0.7-0.1-1.3-0.4-1.6    c-0.2-0.4-0.6-0.5-1.1-0.5c-0.3,0-0.6,0.1-0.9,0.2s-0.6,0.3-0.8,0.5v3.4c0.3,0.1,0.5,0.2,0.7,0.3s0.4,0.1,0.7,0.1    c0.6,0,1-0.2,1.3-0.6C316.3,321.3,316.4,320.8,316.4,320z"/> 		<path style="fill:#1A171B;" d="M323.7,323.1h-1v-0.6c-0.1,0.1-0.2,0.1-0.4,0.3c-0.2,0.1-0.3,0.2-0.4,0.3c-0.2,0.1-0.4,0.2-0.6,0.2    s-0.5,0.1-0.8,0.1c-0.5,0-1-0.2-1.4-0.5c-0.4-0.4-0.6-0.8-0.6-1.4c0-0.5,0.1-0.8,0.3-1.1c0.2-0.3,0.5-0.5,0.8-0.7    c0.4-0.2,0.8-0.3,1.3-0.3c0.5-0.1,1.1-0.1,1.6-0.1v-0.2c0-0.2,0-0.4-0.1-0.6c-0.1-0.2-0.2-0.3-0.3-0.4c-0.1-0.1-0.3-0.1-0.5-0.2    c-0.2,0-0.4,0-0.6,0c-0.3,0-0.6,0-0.9,0.1c-0.3,0.1-0.7,0.2-1,0.3h-0.1v-1c0.2-0.1,0.5-0.1,0.9-0.2s0.7-0.1,1.1-0.1    c0.4,0,0.8,0,1.1,0.1c0.3,0.1,0.6,0.2,0.8,0.4c0.2,0.2,0.4,0.4,0.5,0.6c0.1,0.3,0.2,0.6,0.2,1V323.1z M322.7,321.6v-1.7    c-0.3,0-0.7,0-1.1,0.1c-0.4,0-0.7,0.1-1,0.2c-0.3,0.1-0.5,0.2-0.7,0.4s-0.3,0.4-0.3,0.7c0,0.3,0.1,0.6,0.3,0.8    c0.2,0.2,0.5,0.3,1,0.3c0.4,0,0.7-0.1,1-0.2C322.2,321.9,322.5,321.8,322.7,321.6z"/> 		<path style="fill:#1A171B;" d="M326.7,323.1h-1v-8.4h1V323.1z"/> 		<path style="fill:#1A171B;" d="M337.4,323.1h-1v-3.4c0-0.3,0-0.5,0-0.7c0-0.2-0.1-0.4-0.1-0.6c-0.1-0.2-0.2-0.3-0.4-0.3    c-0.2-0.1-0.4-0.1-0.7-0.1c-0.3,0-0.6,0.1-0.8,0.2c-0.3,0.1-0.6,0.3-0.8,0.5c0,0.1,0,0.2,0,0.3c0,0.1,0,0.2,0,0.3v3.8h-1v-3.4    c0-0.3,0-0.5,0-0.8c0-0.2-0.1-0.4-0.1-0.6c-0.1-0.2-0.2-0.3-0.4-0.3s-0.4-0.1-0.7-0.1c-0.3,0-0.6,0.1-0.8,0.2    c-0.3,0.1-0.6,0.3-0.8,0.5v4.5h-1v-6h1v0.7c0.3-0.3,0.6-0.5,0.9-0.6c0.3-0.1,0.6-0.2,1-0.2c0.4,0,0.8,0.1,1,0.3    c0.3,0.2,0.5,0.4,0.6,0.7c0.4-0.3,0.8-0.6,1.1-0.7c0.3-0.2,0.7-0.2,1.1-0.2c0.7,0,1.1,0.2,1.5,0.6c0.3,0.4,0.5,1,0.5,1.7V323.1z"/> 		<path style="fill:#1A171B;" d="M344,323.1h-1v-0.6c-0.1,0.1-0.2,0.1-0.4,0.3c-0.2,0.1-0.3,0.2-0.4,0.3c-0.2,0.1-0.4,0.2-0.6,0.2    s-0.5,0.1-0.8,0.1c-0.5,0-1-0.2-1.4-0.5c-0.4-0.4-0.6-0.8-0.6-1.4c0-0.5,0.1-0.8,0.3-1.1c0.2-0.3,0.5-0.5,0.8-0.7    c0.4-0.2,0.8-0.3,1.3-0.3c0.5-0.1,1.1-0.1,1.6-0.1v-0.2c0-0.2,0-0.4-0.1-0.6c-0.1-0.2-0.2-0.3-0.3-0.4c-0.1-0.1-0.3-0.1-0.5-0.2    c-0.2,0-0.4,0-0.6,0c-0.3,0-0.6,0-0.9,0.1c-0.3,0.1-0.7,0.2-1,0.3h-0.1v-1c0.2-0.1,0.5-0.1,0.9-0.2s0.7-0.1,1.1-0.1    c0.4,0,0.8,0,1.1,0.1c0.3,0.1,0.6,0.2,0.8,0.4c0.2,0.2,0.4,0.4,0.5,0.6c0.1,0.3,0.2,0.6,0.2,1V323.1z M343,321.6v-1.7    c-0.3,0-0.7,0-1.1,0.1c-0.4,0-0.7,0.1-1,0.2c-0.3,0.1-0.5,0.2-0.7,0.4s-0.3,0.4-0.3,0.7c0,0.3,0.1,0.6,0.3,0.8    c0.2,0.2,0.5,0.3,1,0.3c0.4,0,0.7-0.1,1-0.2C342.5,321.9,342.8,321.8,343,321.6z"/> 	</g> 	<g> 		<path style="fill:#1A171B;" d="M369.6,374.1h-1.1l-0.8-2.2h-3.5l-0.8,2.2h-1.1l2.9-8h1.4L369.6,374.1z M367.3,370.9l-1.4-3.9    l-1.4,3.9H367.3z"/> 		<path style="fill:#1A171B;" d="M375.7,371.2h-4.4c0,0.4,0.1,0.7,0.2,1c0.1,0.3,0.3,0.5,0.5,0.7c0.2,0.2,0.4,0.3,0.7,0.4    c0.3,0.1,0.5,0.1,0.8,0.1c0.4,0,0.8-0.1,1.2-0.2c0.4-0.2,0.7-0.3,0.9-0.5h0.1v1.1c-0.3,0.1-0.7,0.3-1,0.4    c-0.4,0.1-0.7,0.1-1.1,0.1c-1,0-1.8-0.3-2.3-0.8c-0.6-0.5-0.8-1.3-0.8-2.3c0-1,0.3-1.8,0.8-2.3c0.5-0.6,1.2-0.9,2.1-0.9    c0.8,0,1.4,0.2,1.9,0.7s0.7,1.1,0.7,2V371.2z M374.8,370.4c0-0.5-0.1-0.9-0.4-1.2c-0.3-0.3-0.7-0.4-1.2-0.4c-0.5,0-1,0.2-1.3,0.5    s-0.5,0.7-0.5,1.2H374.8z"/> 		<path style="fill:#1A171B;" d="M381,369.2L381,369.2c-0.2,0-0.4-0.1-0.5-0.1c-0.1,0-0.3,0-0.5,0c-0.3,0-0.6,0.1-0.9,0.2    s-0.6,0.3-0.8,0.5v4.3h-1v-6h1v0.9c0.4-0.3,0.8-0.6,1.1-0.7c0.3-0.1,0.6-0.2,0.9-0.2c0.2,0,0.3,0,0.4,0c0.1,0,0.2,0,0.4,0.1V369.2    z"/> 		<path style="fill:#1A171B;" d="M387.1,371.1c0,1-0.3,1.7-0.8,2.3c-0.5,0.6-1.2,0.8-2,0.8c-0.8,0-1.5-0.3-2-0.8    c-0.5-0.6-0.8-1.3-0.8-2.3s0.3-1.8,0.8-2.3c0.5-0.6,1.2-0.9,2-0.9c0.8,0,1.5,0.3,2,0.9C386.8,369.3,387.1,370.1,387.1,371.1z     M386,371.1c0-0.8-0.2-1.4-0.5-1.7c-0.3-0.4-0.7-0.6-1.3-0.6c-0.5,0-1,0.2-1.3,0.6s-0.5,1-0.5,1.7c0,0.8,0.2,1.3,0.5,1.7    c0.3,0.4,0.7,0.6,1.3,0.6c0.5,0,1-0.2,1.3-0.6C385.9,372.4,386,371.8,386,371.1z"/> 		<path style="fill:#1A171B;" d="M393.9,371c0,0.5-0.1,0.9-0.2,1.3c-0.1,0.4-0.3,0.7-0.6,1c-0.2,0.3-0.5,0.5-0.8,0.6    c-0.3,0.1-0.7,0.2-1,0.2c-0.3,0-0.6,0-0.8-0.1c-0.3-0.1-0.5-0.2-0.8-0.3v2.5h-1v-8.2h1v0.6c0.3-0.2,0.6-0.4,0.9-0.6    c0.3-0.2,0.7-0.2,1.1-0.2c0.7,0,1.3,0.3,1.7,0.8C393.7,369.3,393.9,370,393.9,371z M392.9,371c0-0.7-0.1-1.3-0.4-1.6    c-0.2-0.4-0.6-0.5-1.1-0.5c-0.3,0-0.6,0.1-0.9,0.2s-0.6,0.3-0.8,0.5v3.4c0.3,0.1,0.5,0.2,0.7,0.3c0.2,0,0.4,0.1,0.7,0.1    c0.6,0,1-0.2,1.3-0.6C392.7,372.3,392.9,371.8,392.9,371z"/> 		<path style="fill:#1A171B;" d="M400.5,374.1h-1v-0.7c-0.3,0.3-0.7,0.5-1,0.6c-0.3,0.1-0.7,0.2-1,0.2c-0.6,0-1.1-0.2-1.5-0.6    c-0.4-0.4-0.5-1-0.5-1.7v-3.9h1v3.4c0,0.3,0,0.6,0,0.8c0,0.2,0.1,0.4,0.2,0.6c0.1,0.2,0.2,0.3,0.4,0.3c0.2,0.1,0.4,0.1,0.7,0.1    c0.3,0,0.5-0.1,0.9-0.2c0.3-0.1,0.6-0.3,0.9-0.5v-4.5h1V374.1z"/> 		<path style="fill:#1A171B;" d="M407.5,371.2h-4.4c0,0.4,0.1,0.7,0.2,1c0.1,0.3,0.3,0.5,0.5,0.7c0.2,0.2,0.4,0.3,0.7,0.4    c0.3,0.1,0.5,0.1,0.8,0.1c0.4,0,0.8-0.1,1.2-0.2c0.4-0.2,0.7-0.3,0.9-0.5h0.1v1.1c-0.3,0.1-0.7,0.3-1,0.4    c-0.4,0.1-0.7,0.1-1.1,0.1c-1,0-1.8-0.3-2.3-0.8c-0.6-0.5-0.8-1.3-0.8-2.3c0-1,0.3-1.8,0.8-2.3c0.5-0.6,1.2-0.9,2.1-0.9    c0.8,0,1.4,0.2,1.9,0.7c0.4,0.5,0.7,1.1,0.7,2V371.2z M406.5,370.4c0-0.5-0.1-0.9-0.4-1.2c-0.3-0.3-0.7-0.4-1.2-0.4    c-0.5,0-1,0.2-1.3,0.5s-0.5,0.7-0.5,1.2H406.5z"/> 		<path style="fill:#1A171B;" d="M412.8,369.2L412.8,369.2c-0.2,0-0.4-0.1-0.5-0.1c-0.1,0-0.3,0-0.5,0c-0.3,0-0.6,0.1-0.9,0.2    c-0.3,0.1-0.6,0.3-0.8,0.5v4.3h-1v-6h1v0.9c0.4-0.3,0.8-0.6,1.1-0.7c0.3-0.1,0.6-0.2,0.9-0.2c0.2,0,0.3,0,0.4,0    c0.1,0,0.2,0,0.4,0.1V369.2z"/> 		<path style="fill:#1A171B;" d="M416.8,374c-0.2,0-0.4,0.1-0.6,0.1c-0.2,0-0.4,0-0.6,0c-0.6,0-1.1-0.2-1.4-0.5s-0.5-0.9-0.5-1.6    v-3.2H413v-0.8h0.7v-1.7h1v1.7h2.1v0.8h-2.1v2.7c0,0.3,0,0.6,0,0.7c0,0.2,0.1,0.3,0.2,0.5c0.1,0.1,0.2,0.2,0.3,0.3    s0.3,0.1,0.6,0.1c0.2,0,0.3,0,0.5-0.1c0.2,0,0.3-0.1,0.4-0.1h0.1V374z"/> 		<path style="fill:#1A171B;" d="M423.2,371.1c0,1-0.3,1.7-0.8,2.3c-0.5,0.6-1.2,0.8-2,0.8c-0.8,0-1.5-0.3-2-0.8    c-0.5-0.6-0.8-1.3-0.8-2.3s0.3-1.8,0.8-2.3c0.5-0.6,1.2-0.9,2-0.9c0.8,0,1.5,0.3,2,0.9C422.9,369.3,423.2,370.1,423.2,371.1z     M422.1,371.1c0-0.8-0.2-1.4-0.5-1.7c-0.3-0.4-0.7-0.6-1.3-0.6c-0.5,0-1,0.2-1.3,0.6s-0.5,1-0.5,1.7c0,0.8,0.2,1.3,0.5,1.7    c0.3,0.4,0.7,0.6,1.3,0.6c0.5,0,1-0.2,1.3-0.6C422,372.4,422.1,371.8,422.1,371.1z"/> 		<path style="fill:#1A171B;" d="M433.5,374.1h-1v-0.6c-0.3,0.3-0.6,0.4-0.9,0.6s-0.7,0.2-1,0.2c-0.7,0-1.3-0.3-1.7-0.8    c-0.4-0.6-0.6-1.3-0.6-2.3c0-0.5,0.1-1,0.2-1.4c0.1-0.4,0.3-0.7,0.6-1c0.2-0.3,0.5-0.5,0.9-0.6c0.3-0.1,0.7-0.2,1-0.2    c0.3,0,0.6,0,0.8,0.1s0.5,0.2,0.8,0.3v-2.6h1V374.1z M432.4,372.6v-3.4c-0.3-0.1-0.5-0.2-0.7-0.3c-0.2,0-0.4-0.1-0.7-0.1    c-0.6,0-1,0.2-1.3,0.6s-0.5,1-0.5,1.7c0,0.7,0.1,1.3,0.4,1.6c0.2,0.4,0.6,0.6,1.2,0.6c0.3,0,0.6-0.1,0.9-0.2    C431.9,372.9,432.2,372.8,432.4,372.6z"/> 		<path style="fill:#1A171B;" d="M440.5,371.2H436c0,0.4,0.1,0.7,0.2,1c0.1,0.3,0.3,0.5,0.5,0.7c0.2,0.2,0.4,0.3,0.7,0.4    c0.3,0.1,0.5,0.1,0.8,0.1c0.4,0,0.8-0.1,1.2-0.2c0.4-0.2,0.7-0.3,0.9-0.5h0.1v1.1c-0.3,0.1-0.7,0.3-1,0.4    c-0.4,0.1-0.7,0.1-1.1,0.1c-1,0-1.8-0.3-2.3-0.8c-0.6-0.5-0.8-1.3-0.8-2.3c0-1,0.3-1.8,0.8-2.3c0.5-0.6,1.2-0.9,2.1-0.9    c0.8,0,1.4,0.2,1.9,0.7c0.4,0.5,0.7,1.1,0.7,2V371.2z M439.5,370.4c0-0.5-0.1-0.9-0.4-1.2c-0.3-0.3-0.7-0.4-1.2-0.4    c-0.5,0-1,0.2-1.3,0.5s-0.5,0.7-0.5,1.2H439.5z"/> 		<path style="fill:#1A171B;" d="M368.3,383.5c0,0.3-0.1,0.6-0.2,0.9c-0.1,0.3-0.3,0.6-0.6,0.8c-0.3,0.2-0.6,0.4-1,0.5    c-0.4,0.1-0.8,0.2-1.4,0.2c-0.6,0-1.1-0.1-1.6-0.2s-0.9-0.3-1.4-0.5v-1.3h0.1c0.4,0.3,0.9,0.6,1.4,0.8c0.5,0.2,1,0.3,1.5,0.3    c0.7,0,1.2-0.1,1.5-0.4s0.6-0.6,0.6-1c0-0.4-0.1-0.6-0.3-0.8c-0.2-0.2-0.4-0.3-0.8-0.4c-0.3-0.1-0.6-0.1-0.9-0.2    c-0.3,0-0.6-0.1-1-0.2c-0.7-0.2-1.2-0.4-1.6-0.8s-0.5-0.8-0.5-1.4c0-0.7,0.3-1.2,0.8-1.6c0.6-0.4,1.3-0.6,2.2-0.6    c0.6,0,1.1,0.1,1.5,0.2s0.9,0.2,1.2,0.4v1.3h-0.1c-0.3-0.3-0.7-0.5-1.2-0.6c-0.5-0.2-1-0.3-1.5-0.3c-0.6,0-1,0.1-1.4,0.4    s-0.5,0.5-0.5,0.9c0,0.3,0.1,0.6,0.3,0.8s0.5,0.3,0.9,0.4c0.2,0,0.6,0.1,1,0.2c0.4,0.1,0.8,0.1,1.1,0.2c0.6,0.2,1,0.4,1.3,0.7    C368.2,382.5,368.3,382.9,368.3,383.5z"/> 		<path style="fill:#1A171B;" d="M375.1,382.8c0,1-0.3,1.7-0.8,2.3c-0.5,0.6-1.2,0.8-2,0.8c-0.8,0-1.5-0.3-2-0.8    c-0.5-0.6-0.7-1.3-0.7-2.3c0-1,0.3-1.8,0.7-2.3c0.5-0.6,1.2-0.9,2-0.9c0.8,0,1.5,0.3,2,0.9C374.8,381,375.1,381.8,375.1,382.8z     M374,382.8c0-0.8-0.2-1.4-0.5-1.7c-0.3-0.4-0.7-0.6-1.3-0.6c-0.5,0-1,0.2-1.3,0.6c-0.3,0.4-0.5,1-0.5,1.7c0,0.8,0.2,1.3,0.5,1.7    c0.3,0.4,0.7,0.6,1.3,0.6c0.5,0,1-0.2,1.3-0.6C373.9,384.1,374,383.5,374,382.8z"/> 		<path style="fill:#1A171B;" d="M381.6,385.8h-1v-3.4c0-0.3,0-0.5,0-0.8c0-0.2-0.1-0.4-0.2-0.6c-0.1-0.2-0.2-0.3-0.4-0.3    c-0.2-0.1-0.4-0.1-0.7-0.1c-0.3,0-0.6,0.1-0.9,0.2s-0.6,0.3-0.9,0.5v4.5h-1v-6h1v0.7c0.3-0.3,0.6-0.5,1-0.6s0.7-0.2,1-0.2    c0.6,0,1.1,0.2,1.5,0.6c0.3,0.4,0.5,1,0.5,1.7V385.8z"/> 		<path style="fill:#1A171B;" d="M393.4,383.5c0,0.3-0.1,0.6-0.2,0.9c-0.1,0.3-0.3,0.6-0.6,0.8c-0.3,0.2-0.6,0.4-1,0.5    c-0.4,0.1-0.8,0.2-1.4,0.2c-0.6,0-1.1-0.1-1.6-0.2c-0.5-0.1-0.9-0.3-1.4-0.5v-1.3h0.1c0.4,0.3,0.9,0.6,1.4,0.8s1,0.3,1.5,0.3    c0.7,0,1.2-0.1,1.5-0.4c0.4-0.2,0.5-0.6,0.5-1c0-0.4-0.1-0.6-0.3-0.8s-0.4-0.3-0.8-0.4c-0.3-0.1-0.6-0.1-0.9-0.2s-0.6-0.1-1-0.2    c-0.7-0.2-1.2-0.4-1.6-0.8s-0.5-0.8-0.5-1.4c0-0.7,0.3-1.2,0.8-1.6s1.3-0.6,2.2-0.6c0.6,0,1.1,0.1,1.5,0.2    c0.5,0.1,0.9,0.2,1.2,0.4v1.3H393c-0.3-0.3-0.7-0.5-1.2-0.6c-0.5-0.2-1-0.3-1.5-0.3c-0.6,0-1,0.1-1.4,0.4    c-0.3,0.2-0.5,0.5-0.5,0.9c0,0.3,0.1,0.6,0.3,0.8s0.5,0.3,0.9,0.4c0.2,0,0.6,0.1,1,0.2c0.4,0.1,0.8,0.1,1.1,0.2    c0.6,0.2,1,0.4,1.3,0.7C393.2,382.5,393.4,382.9,393.4,383.5z"/> 		<path style="fill:#1A171B;" d="M399.6,385.8h-1v-0.6c-0.1,0.1-0.2,0.1-0.4,0.3c-0.2,0.1-0.3,0.2-0.4,0.3c-0.2,0.1-0.4,0.2-0.6,0.2    c-0.2,0.1-0.5,0.1-0.8,0.1c-0.5,0-1-0.2-1.4-0.5s-0.6-0.8-0.6-1.4c0-0.5,0.1-0.8,0.3-1.1s0.5-0.5,0.8-0.7c0.4-0.2,0.8-0.3,1.3-0.3    c0.5-0.1,1.1-0.1,1.6-0.1v-0.2c0-0.2,0-0.4-0.1-0.6c-0.1-0.2-0.2-0.3-0.3-0.4c-0.1-0.1-0.3-0.1-0.5-0.2c-0.2,0-0.4,0-0.6,0    c-0.3,0-0.6,0-0.9,0.1c-0.3,0.1-0.7,0.2-1,0.3h-0.1v-1c0.2-0.1,0.5-0.1,0.9-0.2c0.4-0.1,0.7-0.1,1.1-0.1c0.4,0,0.8,0,1.1,0.1    c0.3,0.1,0.6,0.2,0.8,0.4c0.2,0.2,0.4,0.4,0.5,0.6c0.1,0.3,0.2,0.6,0.2,1V385.8z M398.6,384.3v-1.7c-0.3,0-0.7,0-1.1,0.1    c-0.4,0-0.7,0.1-1,0.2c-0.3,0.1-0.5,0.2-0.7,0.4c-0.2,0.2-0.3,0.4-0.3,0.7c0,0.3,0.1,0.6,0.3,0.8c0.2,0.2,0.5,0.3,1,0.3    c0.4,0,0.7-0.1,1-0.2C398.1,384.6,398.4,384.5,398.6,384.3z"/> 		<path style="fill:#1A171B;" d="M406.6,385.8h-1v-3.4c0-0.3,0-0.5,0-0.8c0-0.2-0.1-0.4-0.2-0.6c-0.1-0.2-0.2-0.3-0.4-0.3    c-0.2-0.1-0.4-0.1-0.7-0.1c-0.3,0-0.6,0.1-0.9,0.2s-0.6,0.3-0.9,0.5v4.5h-1v-6h1v0.7c0.3-0.3,0.6-0.5,1-0.6s0.7-0.2,1-0.2    c0.6,0,1.1,0.2,1.5,0.6c0.3,0.4,0.5,1,0.5,1.7V385.8z"/> 		<path style="fill:#1A171B;" d="M411.7,385.7c-0.2,0-0.4,0.1-0.6,0.1c-0.2,0-0.4,0-0.6,0c-0.6,0-1.1-0.2-1.4-0.5    c-0.3-0.3-0.5-0.9-0.5-1.6v-3.2h-0.7v-0.8h0.7V378h1v1.7h2.1v0.8h-2.1v2.7c0,0.3,0,0.6,0,0.7c0,0.2,0.1,0.3,0.2,0.5    c0.1,0.1,0.2,0.2,0.3,0.3c0.1,0.1,0.3,0.1,0.6,0.1c0.2,0,0.3,0,0.5-0.1c0.2,0,0.3-0.1,0.4-0.1h0.1V385.7z"/> 		<path style="fill:#1A171B;" d="M419.8,383.7c0,0.7-0.2,1.2-0.6,1.6s-1,0.6-1.7,0.6c-0.2,0-0.4,0-0.7,0s-0.5-0.1-0.7-0.1v-1h0.1    c0.1,0,0.3,0.1,0.5,0.2c0.2,0.1,0.4,0.1,0.7,0.1c0.3,0,0.6,0,0.8-0.1c0.2-0.1,0.3-0.2,0.4-0.3c0.1-0.1,0.2-0.3,0.2-0.5    c0-0.2,0-0.4,0-0.7v-4.7H417v-0.8h2.8V383.7z"/> 		<path style="fill:#1A171B;" d="M426.9,382.8c0,1-0.3,1.7-0.8,2.3s-1.2,0.8-2,0.8c-0.8,0-1.5-0.3-2-0.8c-0.5-0.6-0.7-1.3-0.7-2.3    c0-1,0.2-1.8,0.7-2.3c0.5-0.6,1.2-0.9,2-0.9c0.8,0,1.5,0.3,2,0.9C426.6,381,426.9,381.8,426.9,382.8z M425.8,382.8    c0-0.8-0.2-1.4-0.5-1.7c-0.3-0.4-0.7-0.6-1.3-0.6c-0.5,0-1,0.2-1.3,0.6c-0.3,0.4-0.5,1-0.5,1.7c0,0.8,0.2,1.3,0.5,1.7    c0.3,0.4,0.7,0.6,1.3,0.6c0.5,0,1-0.2,1.3-0.6C425.7,384.1,425.8,383.5,425.8,382.8z"/> 		<path style="fill:#1A171B;" d="M433.1,385.8h-1v-0.6c-0.1,0.1-0.2,0.1-0.4,0.3c-0.2,0.1-0.3,0.2-0.4,0.3c-0.2,0.1-0.4,0.2-0.6,0.2    c-0.2,0.1-0.5,0.1-0.8,0.1c-0.5,0-1-0.2-1.4-0.5c-0.4-0.4-0.6-0.8-0.6-1.4c0-0.5,0.1-0.8,0.3-1.1c0.2-0.3,0.5-0.5,0.8-0.7    c0.4-0.2,0.8-0.3,1.3-0.3c0.5-0.1,1.1-0.1,1.6-0.1v-0.2c0-0.2,0-0.4-0.1-0.6c-0.1-0.2-0.2-0.3-0.3-0.4c-0.1-0.1-0.3-0.1-0.5-0.2    c-0.2,0-0.4,0-0.6,0c-0.3,0-0.6,0-0.9,0.1c-0.3,0.1-0.7,0.2-1,0.3h-0.1v-1c0.2-0.1,0.5-0.1,0.9-0.2s0.7-0.1,1.1-0.1    c0.4,0,0.8,0,1.1,0.1c0.3,0.1,0.6,0.2,0.8,0.4c0.2,0.2,0.4,0.4,0.5,0.6s0.2,0.6,0.2,1V385.8z M432.1,384.3v-1.7    c-0.3,0-0.7,0-1.1,0.1c-0.4,0-0.7,0.1-1,0.2c-0.3,0.1-0.5,0.2-0.7,0.4c-0.2,0.2-0.3,0.4-0.3,0.7c0,0.3,0.1,0.6,0.3,0.8    s0.5,0.3,1,0.3c0.4,0,0.7-0.1,1-0.2S431.8,384.5,432.1,384.3z"/> 		<path style="fill:#1A171B;" d="M440,385.8h-1v-3.4c0-0.3,0-0.5,0-0.8c0-0.2-0.1-0.4-0.2-0.6c-0.1-0.2-0.2-0.3-0.4-0.3    c-0.2-0.1-0.4-0.1-0.7-0.1c-0.3,0-0.6,0.1-0.9,0.2s-0.6,0.3-0.9,0.5v4.5h-1v-6h1v0.7c0.3-0.3,0.6-0.5,1-0.6c0.3-0.1,0.7-0.2,1-0.2    c0.6,0,1.1,0.2,1.5,0.6s0.5,1,0.5,1.7V385.8z"/> 	</g> 	<g> 		<path style="fill:#1A171B;" d="M219,62.1h-1.1l-0.8-2.2h-3.5l-0.8,2.2h-1.1l2.9-8h1.4L219,62.1z M216.7,58.9l-1.4-3.9l-1.4,3.9    H216.7z"/> 		<path style="fill:#1A171B;" d="M225.1,59.2h-4.4c0,0.4,0.1,0.7,0.2,1c0.1,0.3,0.3,0.5,0.5,0.7c0.2,0.2,0.4,0.3,0.7,0.4    s0.5,0.1,0.8,0.1c0.4,0,0.8-0.1,1.2-0.2c0.4-0.2,0.7-0.3,0.9-0.5h0.1v1.1c-0.3,0.1-0.7,0.3-1,0.4s-0.7,0.1-1.1,0.1    c-1,0-1.8-0.3-2.3-0.8c-0.6-0.5-0.8-1.3-0.8-2.3c0-1,0.3-1.8,0.8-2.3s1.2-0.9,2.1-0.9c0.8,0,1.4,0.2,1.9,0.7s0.7,1.1,0.7,2V59.2z     M224.2,58.4c0-0.5-0.1-0.9-0.4-1.2c-0.3-0.3-0.7-0.4-1.2-0.4c-0.5,0-1,0.2-1.3,0.5s-0.5,0.7-0.5,1.2H224.2z"/> 		<path style="fill:#1A171B;" d="M230.4,57.2L230.4,57.2c-0.2,0-0.3-0.1-0.5-0.1c-0.1,0-0.3,0-0.5,0c-0.3,0-0.6,0.1-0.9,0.2    c-0.3,0.1-0.6,0.3-0.8,0.5v4.3h-1v-6h1v0.9c0.4-0.3,0.8-0.6,1.1-0.7c0.3-0.1,0.6-0.2,0.9-0.2c0.2,0,0.3,0,0.4,0    c0.1,0,0.2,0,0.4,0.1V57.2z"/> 		<path style="fill:#1A171B;" d="M236.5,59.1c0,1-0.3,1.7-0.8,2.3c-0.5,0.6-1.2,0.8-2,0.8c-0.8,0-1.5-0.3-2-0.8    c-0.5-0.6-0.7-1.3-0.7-2.3s0.3-1.8,0.7-2.3c0.5-0.6,1.2-0.9,2-0.9c0.8,0,1.5,0.3,2,0.9C236.2,57.3,236.5,58.1,236.5,59.1z     M235.4,59.1c0-0.8-0.2-1.4-0.5-1.7c-0.3-0.4-0.7-0.6-1.3-0.6c-0.5,0-1,0.2-1.3,0.6c-0.3,0.4-0.5,1-0.5,1.7c0,0.8,0.2,1.3,0.5,1.7    c0.3,0.4,0.7,0.6,1.3,0.6c0.5,0,1-0.2,1.3-0.6C235.3,60.4,235.4,59.8,235.4,59.1z"/> 		<path style="fill:#1A171B;" d="M243.3,59c0,0.5-0.1,0.9-0.2,1.3c-0.1,0.4-0.3,0.7-0.6,1c-0.2,0.3-0.5,0.5-0.8,0.6    c-0.3,0.1-0.7,0.2-1,0.2c-0.3,0-0.6,0-0.8-0.1c-0.3-0.1-0.5-0.2-0.8-0.3v2.5h-1v-8.2h1v0.6c0.3-0.2,0.6-0.4,0.9-0.6    c0.3-0.2,0.7-0.2,1.1-0.2c0.7,0,1.3,0.3,1.7,0.8C243.1,57.3,243.3,58,243.3,59z M242.3,59c0-0.7-0.1-1.3-0.4-1.6    c-0.2-0.4-0.6-0.5-1.1-0.5c-0.3,0-0.6,0.1-0.9,0.2s-0.6,0.3-0.8,0.5v3.4c0.3,0.1,0.5,0.2,0.7,0.3s0.4,0.1,0.7,0.1    c0.6,0,1-0.2,1.3-0.6S242.3,59.8,242.3,59z"/> 		<path style="fill:#1A171B;" d="M249.9,62.1h-1v-0.7c-0.3,0.3-0.7,0.5-1,0.6c-0.3,0.1-0.7,0.2-1,0.2c-0.6,0-1.1-0.2-1.5-0.6    c-0.4-0.4-0.5-0.9-0.5-1.7v-3.9h1v3.4c0,0.3,0,0.6,0,0.8c0,0.2,0.1,0.4,0.2,0.6c0.1,0.2,0.2,0.3,0.4,0.3c0.2,0.1,0.4,0.1,0.7,0.1    c0.3,0,0.5-0.1,0.9-0.2s0.6-0.3,0.9-0.5v-4.5h1V62.1z"/> 		<path style="fill:#1A171B;" d="M256.9,59.2h-4.4c0,0.4,0.1,0.7,0.2,1c0.1,0.3,0.3,0.5,0.5,0.7c0.2,0.2,0.4,0.3,0.7,0.4    s0.5,0.1,0.8,0.1c0.4,0,0.8-0.1,1.2-0.2c0.4-0.2,0.7-0.3,0.9-0.5h0.1v1.1c-0.3,0.1-0.7,0.3-1,0.4s-0.7,0.1-1.1,0.1    c-1,0-1.8-0.3-2.3-0.8c-0.6-0.5-0.8-1.3-0.8-2.3c0-1,0.3-1.8,0.8-2.3s1.2-0.9,2.1-0.9c0.8,0,1.4,0.2,1.9,0.7s0.7,1.1,0.7,2V59.2z     M255.9,58.4c0-0.5-0.1-0.9-0.4-1.2c-0.3-0.3-0.7-0.4-1.2-0.4c-0.5,0-1,0.2-1.3,0.5s-0.5,0.7-0.5,1.2H255.9z"/> 		<path style="fill:#1A171B;" d="M262.2,57.2L262.2,57.2c-0.2,0-0.3-0.1-0.5-0.1c-0.1,0-0.3,0-0.5,0c-0.3,0-0.6,0.1-0.9,0.2    c-0.3,0.1-0.6,0.3-0.8,0.5v4.3h-1v-6h1v0.9c0.4-0.3,0.8-0.6,1.1-0.7c0.3-0.1,0.6-0.2,0.9-0.2c0.2,0,0.3,0,0.4,0    c0.1,0,0.2,0,0.4,0.1V57.2z"/> 		<path style="fill:#1A171B;" d="M266.2,62c-0.2,0.1-0.4,0.1-0.6,0.1s-0.4,0-0.6,0c-0.6,0-1.1-0.2-1.4-0.5s-0.5-0.9-0.5-1.6v-3.2    h-0.7v-0.8h0.7v-1.7h1v1.7h2.1v0.8h-2.1v2.7c0,0.3,0,0.6,0,0.7c0,0.2,0.1,0.3,0.2,0.5c0.1,0.1,0.2,0.2,0.3,0.3    c0.1,0.1,0.3,0.1,0.6,0.1c0.2,0,0.3,0,0.5-0.1c0.2,0,0.3-0.1,0.4-0.1h0.1V62z"/> 		<path style="fill:#1A171B;" d="M272.6,59.1c0,1-0.3,1.7-0.8,2.3c-0.5,0.6-1.2,0.8-2,0.8c-0.8,0-1.5-0.3-2-0.8    c-0.5-0.6-0.7-1.3-0.7-2.3s0.3-1.8,0.7-2.3c0.5-0.6,1.2-0.9,2-0.9c0.8,0,1.5,0.3,2,0.9C272.3,57.3,272.6,58.1,272.6,59.1z     M271.5,59.1c0-0.8-0.2-1.4-0.5-1.7c-0.3-0.4-0.7-0.6-1.3-0.6c-0.5,0-1,0.2-1.3,0.6c-0.3,0.4-0.5,1-0.5,1.7c0,0.8,0.2,1.3,0.5,1.7    c0.3,0.4,0.7,0.6,1.3,0.6c0.5,0,1-0.2,1.3-0.6C271.4,60.4,271.5,59.8,271.5,59.1z"/> 		<path style="fill:#1A171B;" d="M282.8,62.1h-1v-0.6c-0.3,0.3-0.6,0.4-0.9,0.6s-0.7,0.2-1,0.2c-0.7,0-1.3-0.3-1.7-0.8    s-0.6-1.3-0.6-2.3c0-0.5,0.1-1,0.2-1.4c0.1-0.4,0.3-0.7,0.6-1c0.2-0.3,0.5-0.5,0.9-0.6s0.7-0.2,1-0.2c0.3,0,0.6,0,0.8,0.1    c0.2,0.1,0.5,0.2,0.8,0.3v-2.6h1V62.1z M281.8,60.6v-3.4c-0.3-0.1-0.5-0.2-0.7-0.3s-0.4-0.1-0.7-0.1c-0.6,0-1,0.2-1.3,0.6    s-0.5,1-0.5,1.7c0,0.7,0.1,1.3,0.4,1.6c0.2,0.4,0.6,0.6,1.2,0.6c0.3,0,0.6-0.1,0.9-0.2C281.3,60.9,281.6,60.8,281.8,60.6z"/> 		<path style="fill:#1A171B;" d="M289.9,59.2h-4.4c0,0.4,0.1,0.7,0.2,1c0.1,0.3,0.3,0.5,0.5,0.7c0.2,0.2,0.4,0.3,0.7,0.4    s0.5,0.1,0.8,0.1c0.4,0,0.8-0.1,1.2-0.2c0.4-0.2,0.7-0.3,0.9-0.5h0.1v1.1c-0.3,0.1-0.7,0.3-1,0.4s-0.7,0.1-1.1,0.1    c-1,0-1.8-0.3-2.3-0.8c-0.6-0.5-0.8-1.3-0.8-2.3c0-1,0.3-1.8,0.8-2.3s1.2-0.9,2.1-0.9c0.8,0,1.4,0.2,1.9,0.7s0.7,1.1,0.7,2V59.2z     M288.9,58.4c0-0.5-0.1-0.9-0.4-1.2c-0.3-0.3-0.7-0.4-1.2-0.4c-0.5,0-1,0.2-1.3,0.5s-0.5,0.7-0.5,1.2H288.9z"/> 		<path style="fill:#1A171B;" d="M229.3,71.5c0,0.3-0.1,0.6-0.2,0.9c-0.1,0.3-0.3,0.6-0.6,0.8c-0.3,0.2-0.6,0.4-1,0.5    c-0.4,0.1-0.8,0.2-1.4,0.2c-0.6,0-1.1-0.1-1.6-0.2s-0.9-0.3-1.4-0.5v-1.3h0.1c0.4,0.3,0.9,0.6,1.4,0.8c0.5,0.2,1,0.3,1.5,0.3    c0.7,0,1.2-0.1,1.5-0.4s0.6-0.6,0.6-1c0-0.4-0.1-0.6-0.3-0.8s-0.4-0.3-0.8-0.4c-0.3-0.1-0.6-0.1-0.9-0.2s-0.6-0.1-1-0.2    c-0.7-0.2-1.2-0.4-1.6-0.8c-0.3-0.4-0.5-0.8-0.5-1.4c0-0.7,0.3-1.2,0.8-1.6c0.6-0.4,1.3-0.6,2.2-0.6c0.6,0,1.1,0.1,1.5,0.2    s0.9,0.2,1.2,0.4v1.3h-0.1c-0.3-0.3-0.7-0.5-1.2-0.6c-0.5-0.2-1-0.3-1.5-0.3c-0.6,0-1,0.1-1.4,0.4s-0.5,0.5-0.5,0.9    c0,0.3,0.1,0.6,0.3,0.8s0.5,0.3,0.9,0.4c0.2,0.1,0.6,0.1,1,0.2s0.8,0.1,1.1,0.2c0.6,0.2,1,0.4,1.3,0.7S229.3,70.9,229.3,71.5z"/> 		<path style="fill:#1A171B;" d="M236.1,70.8c0,1-0.3,1.7-0.8,2.3c-0.5,0.6-1.2,0.8-2,0.8c-0.8,0-1.5-0.3-2-0.8    c-0.5-0.6-0.7-1.3-0.7-2.3s0.3-1.8,0.7-2.3c0.5-0.6,1.2-0.9,2-0.9c0.8,0,1.5,0.3,2,0.9C235.8,69,236.1,69.8,236.1,70.8z M235,70.8    c0-0.8-0.2-1.4-0.5-1.7c-0.3-0.4-0.7-0.6-1.3-0.6c-0.5,0-1,0.2-1.3,0.6c-0.3,0.4-0.5,1-0.5,1.7c0,0.8,0.2,1.3,0.5,1.7    c0.3,0.4,0.7,0.6,1.3,0.6c0.5,0,1-0.2,1.3-0.6C234.9,72.1,235,71.5,235,70.8z"/> 		<path style="fill:#1A171B;" d="M242.7,73.8h-1v-3.4c0-0.3,0-0.5,0-0.8c0-0.2-0.1-0.4-0.2-0.6c-0.1-0.2-0.2-0.3-0.4-0.3    c-0.2-0.1-0.4-0.1-0.7-0.1c-0.3,0-0.6,0.1-0.9,0.2s-0.6,0.3-0.9,0.5v4.5h-1v-6h1v0.7c0.3-0.3,0.6-0.5,1-0.6c0.3-0.1,0.7-0.2,1-0.2    c0.6,0,1.1,0.2,1.5,0.6s0.5,1,0.5,1.7V73.8z"/> 		<path style="fill:#1A171B;" d="M254.6,71.3c0,0.4-0.1,0.7-0.2,1.1s-0.4,0.6-0.6,0.8c-0.3,0.2-0.6,0.4-1,0.5    c-0.4,0.1-0.8,0.2-1.4,0.2h-2.8v-8h2.4c0.6,0,1,0,1.3,0.1c0.3,0,0.6,0.1,0.8,0.3c0.3,0.2,0.5,0.4,0.6,0.6c0.1,0.2,0.2,0.5,0.2,0.9    c0,0.4-0.1,0.7-0.3,1c-0.2,0.3-0.5,0.5-0.8,0.6v0c0.5,0.1,1,0.3,1.3,0.7C254.4,70.3,254.6,70.7,254.6,71.3z M252.8,67.7    c0-0.2,0-0.4-0.1-0.5s-0.2-0.2-0.3-0.3c-0.2-0.1-0.4-0.2-0.6-0.2c-0.2,0-0.5,0-0.9,0h-1.3V69h1.4c0.3,0,0.6,0,0.8-0.1    c0.2,0,0.4-0.1,0.5-0.2s0.3-0.2,0.4-0.4C252.8,68.1,252.8,67.9,252.8,67.7z M253.5,71.3c0-0.3,0-0.6-0.1-0.8s-0.3-0.4-0.5-0.5    c-0.2-0.1-0.4-0.1-0.6-0.2c-0.2,0-0.5,0-0.9,0h-1.7v3h1.4c0.5,0,0.8,0,1.1-0.1c0.3,0,0.5-0.1,0.7-0.3c0.2-0.1,0.3-0.3,0.4-0.5    C253.4,71.8,253.5,71.6,253.5,71.3z"/> 		<path style="fill:#1A171B;" d="M261.1,70.8c0,1-0.3,1.7-0.8,2.3c-0.5,0.6-1.2,0.8-2,0.8c-0.8,0-1.5-0.3-2-0.8    c-0.5-0.6-0.7-1.3-0.7-2.3s0.3-1.8,0.7-2.3c0.5-0.6,1.2-0.9,2-0.9c0.8,0,1.5,0.3,2,0.9C260.9,69,261.1,69.8,261.1,70.8z     M260.1,70.8c0-0.8-0.2-1.4-0.5-1.7c-0.3-0.4-0.7-0.6-1.3-0.6c-0.5,0-1,0.2-1.3,0.6c-0.3,0.4-0.5,1-0.5,1.7c0,0.8,0.2,1.3,0.5,1.7    c0.3,0.4,0.7,0.6,1.3,0.6c0.5,0,1-0.2,1.3-0.6C259.9,72.1,260.1,71.5,260.1,70.8z"/> 		<path style="fill:#1A171B;" d="M267.7,73.8h-1v-3.4c0-0.3,0-0.5,0-0.8c0-0.2-0.1-0.4-0.2-0.6c-0.1-0.2-0.2-0.3-0.4-0.3    c-0.2-0.1-0.4-0.1-0.7-0.1c-0.3,0-0.6,0.1-0.9,0.2s-0.6,0.3-0.9,0.5v4.5h-1v-6h1v0.7c0.3-0.3,0.6-0.5,1-0.6c0.3-0.1,0.7-0.2,1-0.2    c0.6,0,1.1,0.2,1.5,0.6s0.5,1,0.5,1.7V73.8z"/> 		<path style="fill:#1A171B;" d="M274.7,70.9h-4.4c0,0.4,0.1,0.7,0.2,1c0.1,0.3,0.3,0.5,0.5,0.7c0.2,0.2,0.4,0.3,0.7,0.4    s0.5,0.1,0.8,0.1c0.4,0,0.8-0.1,1.2-0.2c0.4-0.2,0.7-0.3,0.9-0.5h0.1v1.1c-0.3,0.1-0.7,0.3-1,0.4s-0.7,0.1-1.1,0.1    c-1,0-1.8-0.3-2.3-0.8c-0.6-0.5-0.8-1.3-0.8-2.3c0-1,0.3-1.8,0.8-2.3s1.2-0.9,2.1-0.9c0.8,0,1.4,0.2,1.9,0.7s0.7,1.1,0.7,2V70.9z     M273.7,70.1c0-0.5-0.1-0.9-0.4-1.2c-0.3-0.3-0.7-0.4-1.2-0.4c-0.5,0-1,0.2-1.3,0.5s-0.5,0.7-0.5,1.2H273.7z"/> 		<path style="fill:#1A171B;" d="M279.3,73.7c-0.2,0.1-0.4,0.1-0.6,0.1s-0.4,0-0.6,0c-0.6,0-1.1-0.2-1.4-0.5s-0.5-0.9-0.5-1.6v-3.2    h-0.7v-0.8h0.7V66h1v1.7h2.1v0.8h-2.1v2.7c0,0.3,0,0.6,0,0.7c0,0.2,0.1,0.3,0.2,0.5c0.1,0.1,0.2,0.2,0.3,0.3    c0.1,0.1,0.3,0.1,0.6,0.1c0.2,0,0.3,0,0.5-0.1c0.2,0,0.3-0.1,0.4-0.1h0.1V73.7z"/> 	</g> 	<g> 		<path style="fill:#898989;" d="M288.2,225.9c-0.2,0.1-0.4,0.1-0.5,0.2c-0.2,0.1-0.4,0.1-0.6,0.2c-0.2,0.1-0.5,0.1-0.7,0.1    c-0.3,0-0.5,0-0.8,0c-0.6,0-1.1-0.2-1.6-0.3c-0.5-0.2-0.9-0.5-1.2-0.8c-0.3-0.4-0.6-0.8-0.7-1.3c-0.2-0.5-0.2-1.2-0.2-1.8    c0-0.7,0.2-1.2,0.4-1.7c0.2-0.5,0.5-0.9,0.9-1.3c0.4-0.3,0.8-0.6,1.3-0.7c0.5-0.2,1-0.2,1.6-0.2c0.4,0,0.9,0.1,1.3,0.2    c0.4,0.1,0.9,0.3,1.4,0.6l-0.1,1.3l-0.1,0c-0.4-0.4-0.8-0.7-1.3-0.9s-0.9-0.3-1.4-0.3c-0.4,0-0.8,0-1.1,0.1    c-0.3,0.1-0.6,0.3-0.9,0.6c-0.3,0.3-0.5,0.6-0.6,1c-0.2,0.4-0.3,0.9-0.3,1.4c0,0.6,0,1,0.1,1.5c0.1,0.4,0.3,0.8,0.5,1    c0.2,0.3,0.5,0.5,0.8,0.6c0.3,0.1,0.7,0.2,1,0.3c0.5,0,1,0,1.5-0.2c0.5-0.1,0.9-0.4,1.3-0.7l0.1,0L288.2,225.9z"/> 		<path style="fill:#898989;" d="M291.3,226.7l-1.3-0.1l0.1-1.5l1.3,0.1L291.3,226.7z"/> 		<path style="fill:#898989;" d="M308.5,227.8l-1.1-0.1l0.4-6.9l-2.5,4.5l-0.6,0l-1.9-4.8l-0.4,6.9l-1-0.1l0.5-8l1.4,0.1l1.8,4.6    l2.3-4.3l1.5,0.1L308.5,227.8z"/> 		<path style="fill:#898989;" d="M315.2,228.2l-1-0.1l0-0.6c-0.1,0.1-0.2,0.1-0.4,0.2c-0.2,0.1-0.3,0.2-0.5,0.2    c-0.2,0.1-0.4,0.1-0.6,0.2c-0.2,0-0.5,0.1-0.8,0c-0.5,0-1-0.2-1.3-0.6c-0.4-0.4-0.5-0.8-0.5-1.4c0-0.5,0.2-0.8,0.4-1.1    c0.2-0.3,0.5-0.5,0.9-0.6c0.4-0.1,0.8-0.2,1.3-0.2c0.5,0,1.1,0,1.7,0l0-0.2c0-0.2,0-0.4-0.1-0.6c-0.1-0.2-0.2-0.3-0.3-0.4    c-0.1-0.1-0.3-0.2-0.5-0.2c-0.2,0-0.4-0.1-0.6-0.1c-0.3,0-0.6,0-0.9,0c-0.3,0-0.7,0.1-1,0.2l-0.1,0l0.1-1c0.2,0,0.5-0.1,0.9-0.1    c0.4,0,0.7,0,1.1,0c0.4,0,0.8,0.1,1.1,0.2c0.3,0.1,0.6,0.2,0.8,0.4c0.2,0.2,0.4,0.4,0.5,0.7c0.1,0.3,0.1,0.6,0.1,1L315.2,228.2z     M314.3,226.7l0.1-1.7c-0.3,0-0.7,0-1.1,0c-0.4,0-0.8,0-1,0.1c-0.3,0.1-0.5,0.2-0.7,0.3c-0.2,0.2-0.3,0.4-0.3,0.7    c0,0.3,0.1,0.6,0.3,0.8c0.2,0.2,0.5,0.3,0.9,0.3c0.4,0,0.7,0,1-0.1C313.8,227,314.1,226.8,314.3,226.7z"/> 		<path style="fill:#898989;" d="M322.2,228.6l-1-0.1l0.2-3.4c0-0.3,0-0.5,0-0.8c0-0.2-0.1-0.4-0.1-0.6c-0.1-0.2-0.2-0.3-0.4-0.4    c-0.2-0.1-0.4-0.1-0.6-0.2c-0.3,0-0.6,0-0.9,0.1c-0.3,0.1-0.6,0.3-0.9,0.5l-0.3,4.5l-1-0.1l0.4-6l1,0.1l0,0.7    c0.3-0.2,0.7-0.4,1-0.5c0.3-0.1,0.7-0.2,1-0.2c0.6,0,1.1,0.3,1.4,0.7c0.3,0.4,0.4,1,0.4,1.7L322.2,228.6z"/> 		<path style="fill:#898989;" d="M328.8,229l-1-0.1l0-0.6c-0.1,0.1-0.2,0.1-0.4,0.2c-0.2,0.1-0.3,0.2-0.5,0.2    c-0.2,0.1-0.4,0.1-0.6,0.2c-0.2,0-0.5,0.1-0.8,0c-0.5,0-1-0.2-1.3-0.6c-0.4-0.4-0.5-0.8-0.5-1.4c0-0.5,0.1-0.8,0.4-1.1    c0.2-0.3,0.5-0.5,0.9-0.6c0.4-0.1,0.8-0.2,1.3-0.2s1.1,0,1.7,0l0-0.2c0-0.2,0-0.4-0.1-0.6s-0.2-0.3-0.3-0.4    c-0.1-0.1-0.3-0.2-0.5-0.2c-0.2,0-0.4-0.1-0.6-0.1c-0.3,0-0.6,0-0.9,0c-0.3,0-0.7,0.1-1,0.2l-0.1,0l0.1-1c0.2,0,0.5-0.1,0.9-0.1    c0.4,0,0.7,0,1.1,0c0.4,0,0.8,0.1,1.1,0.2s0.6,0.2,0.8,0.4c0.2,0.2,0.4,0.4,0.5,0.7s0.1,0.6,0.1,1L328.8,229z M327.9,227.5    l0.1-1.7c-0.3,0-0.7,0-1.1,0s-0.8,0-1,0.1c-0.3,0.1-0.5,0.2-0.7,0.3c-0.2,0.2-0.3,0.4-0.3,0.7c0,0.3,0.1,0.6,0.3,0.8    c0.2,0.2,0.5,0.3,0.9,0.3c0.4,0,0.7,0,1-0.1C327.3,227.8,327.6,227.7,327.9,227.5z"/> 		<path style="fill:#898989;" d="M335.2,229.1c-0.3,0.1-0.7,0.2-1,0.3c-0.3,0.1-0.6,0.1-1,0.1c-0.4,0-0.8-0.1-1.2-0.3    c-0.4-0.1-0.7-0.4-0.9-0.6c-0.2-0.3-0.4-0.6-0.5-1c-0.1-0.4-0.2-0.9-0.1-1.4c0.1-1,0.4-1.7,1-2.3s1.3-0.8,2.2-0.7    c0.3,0,0.7,0.1,1,0.2c0.3,0.1,0.6,0.3,0.9,0.4l-0.1,1.1l-0.1,0c-0.3-0.3-0.6-0.5-0.9-0.6c-0.3-0.1-0.6-0.2-0.9-0.3    c-0.6,0-1,0.1-1.4,0.5c-0.4,0.4-0.6,0.9-0.6,1.7c0,0.7,0.1,1.3,0.4,1.7c0.3,0.4,0.7,0.6,1.3,0.7c0.2,0,0.4,0,0.6,0    c0.2,0,0.4-0.1,0.6-0.2c0.2-0.1,0.3-0.1,0.4-0.2c0.1-0.1,0.2-0.1,0.3-0.2l0.1,0L335.2,229.1z"/> 		<path style="fill:#898989;" d="M341.7,226.9c-0.1,1-0.4,1.7-0.9,2.3s-1.2,0.8-2.1,0.7c-0.8-0.1-1.5-0.4-2-1    c-0.5-0.6-0.7-1.4-0.6-2.4c0.1-1,0.4-1.7,0.9-2.3c0.5-0.5,1.2-0.8,2.1-0.7c0.8,0.1,1.5,0.4,2,1    C341.6,225.1,341.8,225.9,341.7,226.9z M340.7,226.8c0-0.8-0.1-1.4-0.3-1.8s-0.7-0.6-1.2-0.6c-0.5,0-1,0.1-1.3,0.5    c-0.3,0.4-0.5,0.9-0.6,1.7c0,0.8,0.1,1.3,0.3,1.7c0.3,0.4,0.7,0.6,1.2,0.7c0.5,0,1-0.1,1.3-0.5    C340.5,228.1,340.7,227.6,340.7,226.8z"/> 		<path style="fill:#898989;" d="M347.2,225.3L347.2,225.3c-0.2,0-0.3-0.1-0.5-0.1c-0.1,0-0.3,0-0.5-0.1c-0.3,0-0.6,0-0.9,0.1    c-0.3,0.1-0.6,0.3-0.9,0.5l-0.3,4.3l-1-0.1l0.4-6l1,0.1l-0.1,0.9c0.4-0.3,0.8-0.5,1.1-0.6c0.3-0.1,0.6-0.2,0.9-0.1    c0.2,0,0.3,0,0.4,0s0.2,0,0.4,0.1L347.2,225.3z"/> 	</g> </g> <g id="text-EXTERIOR"> 	<g> 		<rect x="309.7" y="2.2" style="fill-rule:evenodd;clip-rule:evenodd;fill:none;" width="63.3" height="14.4"/> 		<path style="fill:#1A171B;" d="M318.4,11.7h-2.5l-2.2-2.9h-1v2.9h-2.1v-8h3.5c0.5,0,0.9,0,1.2,0.1c0.3,0.1,0.7,0.2,1,0.3    c0.3,0.2,0.5,0.4,0.7,0.7c0.2,0.3,0.3,0.6,0.3,1.1c0,0.6-0.1,1.1-0.4,1.4c-0.3,0.4-0.7,0.7-1.2,0.9L318.4,11.7z M315.2,6.1    c0-0.2,0-0.4-0.1-0.5s-0.2-0.3-0.4-0.3c-0.1-0.1-0.3-0.1-0.5-0.1c-0.2,0-0.4,0-0.7,0h-0.7v2.2h0.6c0.3,0,0.6,0,0.8,0    s0.4-0.1,0.6-0.2c0.1-0.1,0.2-0.2,0.3-0.4C315.1,6.5,315.2,6.4,315.2,6.1z"/> 		<path style="fill:#1A171B;" d="M322.8,11c-0.1,0.1-0.2,0.2-0.4,0.3s-0.3,0.2-0.4,0.3c-0.2,0.1-0.4,0.1-0.6,0.2    c-0.2,0-0.4,0.1-0.7,0.1c-0.6,0-1.1-0.2-1.4-0.5s-0.6-0.8-0.6-1.4c0-0.4,0.1-0.8,0.3-1.1c0.2-0.3,0.5-0.5,0.8-0.7    c0.4-0.2,0.8-0.3,1.3-0.3c0.5-0.1,1.1-0.1,1.6-0.2v0c0-0.3-0.1-0.6-0.4-0.7c-0.3-0.1-0.7-0.2-1.2-0.2c-0.3,0-0.7,0.1-1,0.2    c-0.4,0.1-0.6,0.2-0.8,0.3h-0.2V5.8c0.2-0.1,0.5-0.1,1-0.2c0.5-0.1,0.9-0.1,1.4-0.1c1.1,0,1.9,0.2,2.4,0.5    c0.5,0.3,0.7,0.9,0.7,1.6v4.1h-1.9V11z M322.8,10.1V8.9c-0.3,0-0.5,0.1-0.8,0.1s-0.5,0.1-0.7,0.1c-0.2,0.1-0.3,0.1-0.4,0.3    c-0.1,0.1-0.2,0.3-0.2,0.5c0,0.1,0,0.2,0,0.3s0.1,0.2,0.2,0.2c0.1,0.1,0.2,0.1,0.3,0.2c0.1,0,0.3,0.1,0.5,0.1c0.2,0,0.4,0,0.6-0.1    C322.5,10.3,322.7,10.2,322.8,10.1z"/> 		<path style="fill:#1A171B;" d="M328.5,4.8h-2V3.3h2V4.8z M328.5,11.7h-1.9v-6h1.9V11.7z"/> 		<path style="fill:#1A171B;" d="M336.2,11c0,0.6-0.1,1-0.2,1.4c-0.2,0.4-0.4,0.7-0.7,0.9c-0.3,0.2-0.6,0.4-1.1,0.5    c-0.4,0.1-0.9,0.1-1.4,0.1c-0.4,0-0.8,0-1.2-0.1s-0.8-0.1-1.1-0.2v-1.5h0.2c0.2,0.1,0.5,0.2,0.9,0.3c0.3,0.1,0.6,0.1,0.9,0.1    c0.4,0,0.6,0,0.9-0.1c0.2-0.1,0.4-0.2,0.5-0.3c0.1-0.1,0.2-0.3,0.2-0.4c0-0.2,0.1-0.4,0.1-0.6V11c-0.2,0.2-0.5,0.3-0.8,0.5    c-0.3,0.1-0.6,0.2-0.9,0.2c-0.8,0-1.5-0.3-2-0.8s-0.7-1.3-0.7-2.3c0-0.5,0.1-0.9,0.2-1.3s0.3-0.7,0.6-0.9c0.2-0.3,0.5-0.4,0.9-0.6    s0.7-0.2,1.1-0.2c0.3,0,0.6,0,0.9,0.1c0.3,0.1,0.5,0.2,0.7,0.3l0.1-0.3h1.9V11z M334.2,9.8V7.1c-0.1,0-0.2-0.1-0.4-0.1    c-0.2,0-0.3,0-0.4,0c-0.5,0-0.9,0.1-1.1,0.4c-0.3,0.3-0.4,0.7-0.4,1.2c0,0.6,0.1,1,0.3,1.2c0.2,0.2,0.5,0.3,1,0.3    c0.2,0,0.4,0,0.6-0.1S334.1,9.9,334.2,9.8z"/> 		<path style="fill:#1A171B;" d="M344,11.7H342V11c-0.4,0.3-0.7,0.5-1,0.6c-0.3,0.1-0.7,0.2-1.1,0.2c-0.7,0-1.2-0.2-1.5-0.6    s-0.5-0.9-0.5-1.7V5.7h1.9v3c0,0.3,0,0.6,0,0.8c0,0.2,0.1,0.4,0.1,0.5c0.1,0.1,0.2,0.2,0.3,0.3s0.3,0.1,0.6,0.1    c0.2,0,0.3,0,0.5-0.1s0.4-0.2,0.6-0.3V5.7h1.9V11.7z"/> 		<path style="fill:#1A171B;" d="M351.8,9h-4.4c0,0.5,0.2,0.8,0.5,1.1s0.8,0.4,1.5,0.4c0.4,0,0.8-0.1,1.2-0.2s0.7-0.3,0.9-0.5h0.2    v1.6c-0.4,0.2-0.8,0.3-1.2,0.4s-0.8,0.1-1.3,0.1c-1.2,0-2.1-0.3-2.8-0.8s-1-1.3-1-2.3c0-1,0.3-1.8,0.9-2.4    c0.6-0.6,1.4-0.9,2.5-0.9c1,0,1.7,0.2,2.2,0.7c0.5,0.5,0.7,1.2,0.7,2.1V9z M349.8,7.9c0-0.4-0.1-0.7-0.3-0.9s-0.5-0.3-0.9-0.3    c-0.4,0-0.7,0.1-0.9,0.3s-0.4,0.5-0.4,0.9H349.8z"/> 		<path style="fill:#1A171B;" d="M357.5,7.5h-0.2c-0.1,0-0.2-0.1-0.4-0.1c-0.2,0-0.3,0-0.5,0c-0.3,0-0.5,0-0.7,0.1    c-0.2,0-0.4,0.1-0.7,0.2v4h-1.9v-6h1.9v0.9c0.4-0.4,0.8-0.6,1.1-0.7c0.3-0.1,0.6-0.2,0.9-0.2c0.1,0,0.1,0,0.2,0c0.1,0,0.2,0,0.2,0    V7.5z"/> 	</g> </g> <g id="text_districtes"> 	<g> 		<rect x="-51.8" y="226" style="fill-rule:evenodd;clip-rule:evenodd;fill:none;" width="49.9" height="14.4"/> 		<path style="fill:#1A171B;" d="M-46.3,237.3c-0.7,0-1.4-0.1-2-0.3c-0.6-0.2-1.1-0.5-1.5-0.9c-0.4-0.4-0.8-0.9-1-1.5    c-0.2-0.6-0.4-1.3-0.4-2.1c0-0.8,0.1-1.4,0.3-2s0.6-1.1,1-1.6c0.4-0.4,0.9-0.7,1.5-1s1.3-0.3,2-0.3c0.4,0,0.8,0,1.1,0.1    c0.3,0,0.6,0.1,0.9,0.2c0.3,0.1,0.5,0.2,0.8,0.3c0.2,0.1,0.4,0.2,0.6,0.3v2.3h-0.3c-0.1-0.1-0.3-0.2-0.4-0.4s-0.4-0.3-0.6-0.4    c-0.2-0.1-0.5-0.2-0.8-0.3c-0.3-0.1-0.6-0.1-0.9-0.1c-0.3,0-0.7,0.1-1,0.2s-0.6,0.3-0.9,0.5c-0.3,0.2-0.5,0.6-0.6,1    c-0.2,0.4-0.2,0.9-0.2,1.5c0,0.6,0.1,1.1,0.3,1.5c0.2,0.4,0.4,0.7,0.6,0.9c0.3,0.2,0.5,0.4,0.9,0.5s0.6,0.1,0.9,0.1    c0.3,0,0.6,0,0.9-0.1c0.3-0.1,0.6-0.2,0.8-0.4c0.2-0.1,0.4-0.3,0.6-0.4s0.3-0.3,0.4-0.4h0.3v2.3c-0.2,0.1-0.5,0.2-0.7,0.3    c-0.2,0.1-0.4,0.2-0.7,0.2c-0.3,0.1-0.6,0.2-0.9,0.2C-45.4,237.3-45.8,237.3-46.3,237.3z"/> 		<path style="fill:#1A171B;" d="M-34.2,234h-5.3c0,0.6,0.2,1,0.6,1.3c0.4,0.3,1,0.4,1.7,0.4c0.5,0,1-0.1,1.4-0.3    c0.5-0.2,0.8-0.4,1.1-0.6h0.3v1.8c-0.5,0.2-1,0.4-1.5,0.5c-0.5,0.1-1,0.1-1.5,0.1c-1.4,0-2.5-0.3-3.3-1s-1.1-1.6-1.1-2.8    c0-1.2,0.4-2.1,1.1-2.8c0.7-0.7,1.7-1,3-1c1.2,0,2,0.3,2.6,0.9c0.6,0.6,0.9,1.4,0.9,2.5V234z M-36.5,232.6c0-0.5-0.1-0.8-0.4-1.1    c-0.2-0.2-0.6-0.4-1.1-0.4c-0.4,0-0.8,0.1-1.1,0.3c-0.3,0.2-0.4,0.6-0.5,1.1H-36.5z"/> 		<path style="fill:#1A171B;" d="M-25.4,237.1h-2.3v-3.6c0-0.3,0-0.6,0-0.9c0-0.3-0.1-0.5-0.2-0.6c-0.1-0.2-0.2-0.3-0.4-0.3    s-0.4-0.1-0.7-0.1c-0.2,0-0.4,0-0.6,0.1c-0.2,0.1-0.4,0.2-0.7,0.3v5.1h-2.3V230h2.3v0.8c0.4-0.3,0.8-0.6,1.2-0.7s0.8-0.3,1.3-0.3    c0.8,0,1.4,0.2,1.8,0.7c0.4,0.5,0.7,1.1,0.7,2V237.1z"/> 		<path style="fill:#1A171B;" d="M-18.7,237.1c-0.2,0.1-0.5,0.1-0.8,0.1s-0.6,0.1-1,0.1c-0.9,0-1.6-0.2-2-0.5    c-0.4-0.4-0.7-1-0.7-1.9v-3.3h-0.9V230h0.9v-2h2.3v2h2.1v1.6h-2.1v2.5c0,0.3,0,0.5,0,0.7c0,0.2,0,0.4,0.1,0.5    c0.1,0.1,0.2,0.3,0.3,0.4c0.2,0.1,0.4,0.1,0.7,0.1c0.1,0,0.3,0,0.5-0.1c0.2-0.1,0.3-0.1,0.4-0.1h0.2V237.1z"/> 		<path style="fill:#1A171B;" d="M-12.1,232.1h-0.2c-0.1,0-0.3-0.1-0.5-0.1c-0.2,0-0.4,0-0.5,0c-0.3,0-0.6,0-0.9,0.1    c-0.3,0-0.5,0.1-0.8,0.2v4.8h-2.3V230h2.3v1.1c0.5-0.4,0.9-0.7,1.3-0.9c0.4-0.1,0.7-0.2,1-0.2c0.1,0,0.2,0,0.3,0    c0.1,0,0.2,0,0.3,0V232.1z"/> 		<path style="fill:#1A171B;" d="M-3.8,234H-9c0,0.6,0.2,1,0.6,1.3c0.4,0.3,1,0.4,1.7,0.4c0.5,0,1-0.1,1.4-0.3    c0.5-0.2,0.8-0.4,1.1-0.6h0.3v1.8c-0.5,0.2-1,0.4-1.5,0.5c-0.5,0.1-1,0.1-1.5,0.1c-1.4,0-2.5-0.3-3.3-1s-1.1-1.6-1.1-2.8    c0-1.2,0.4-2.1,1.1-2.8c0.7-0.7,1.7-1,3-1c1.2,0,2,0.3,2.6,0.9c0.6,0.6,0.9,1.4,0.9,2.5V234z M-6,232.6c0-0.5-0.1-0.8-0.4-1.1    c-0.2-0.2-0.6-0.4-1.1-0.4c-0.4,0-0.8,0.1-1.1,0.3c-0.3,0.2-0.4,0.6-0.5,1.1H-6z"/> 	</g> 	<g> 		<rect x="17.8" y="14.8" style="fill-rule:evenodd;clip-rule:evenodd;fill:none;" width="37" height="14.4"/> 		<path style="fill:#1A171B;" d="M26.1,24.3h-2l-3.4-5.5v5.5h-1.9v-8h2.5l2.9,4.6v-4.6h1.9V24.3z"/> 		<path style="fill:#1A171B;" d="M34.2,21.3c0,1-0.3,1.8-0.9,2.3c-0.6,0.6-1.4,0.9-2.4,0.9s-1.9-0.3-2.4-0.9    c-0.6-0.6-0.9-1.4-0.9-2.3c0-1,0.3-1.8,0.9-2.4c0.6-0.6,1.4-0.9,2.4-0.9c1.1,0,1.9,0.3,2.4,0.9C33.9,19.5,34.2,20.3,34.2,21.3z     M31.9,22.8c0.1-0.2,0.2-0.3,0.3-0.6c0.1-0.2,0.1-0.5,0.1-0.9c0-0.4,0-0.7-0.1-0.9S32,20,31.9,19.9c-0.1-0.1-0.3-0.3-0.4-0.3    s-0.3-0.1-0.5-0.1s-0.4,0-0.5,0.1c-0.1,0.1-0.3,0.2-0.4,0.3c-0.1,0.1-0.2,0.3-0.3,0.6c-0.1,0.2-0.1,0.5-0.1,0.9    c0,0.3,0,0.6,0.1,0.9c0.1,0.2,0.2,0.4,0.3,0.6c0.1,0.1,0.3,0.2,0.4,0.3c0.2,0.1,0.3,0.1,0.5,0.1c0.2,0,0.3,0,0.5-0.1    C31.6,23,31.7,22.9,31.9,22.8z"/> 		<path style="fill:#1A171B;" d="M40,20.1h-0.2c-0.1,0-0.2-0.1-0.4-0.1c-0.2,0-0.3,0-0.5,0c-0.3,0-0.5,0-0.7,0.1s-0.4,0.1-0.7,0.2v4    h-1.9v-6h1.9v0.9c0.4-0.4,0.8-0.6,1.1-0.7c0.3-0.1,0.6-0.2,0.9-0.2c0.1,0,0.1,0,0.2,0s0.2,0,0.2,0V20.1z"/> 		<path style="fill:#1A171B;" d="M47,24.3H45v-0.6c-0.3,0.3-0.6,0.5-0.9,0.6c-0.3,0.1-0.6,0.2-1,0.2c-0.7,0-1.3-0.3-1.8-0.8    s-0.7-1.3-0.7-2.3c0-0.5,0.1-1,0.2-1.4c0.1-0.4,0.4-0.7,0.6-1c0.2-0.3,0.5-0.5,0.9-0.6c0.3-0.1,0.7-0.2,1-0.2c0.4,0,0.7,0,0.9,0.1    c0.2,0.1,0.5,0.2,0.7,0.3V16H47V24.3z M45,22.7v-3c-0.1-0.1-0.3-0.1-0.4-0.1c-0.1,0-0.3,0-0.4,0c-0.5,0-0.9,0.2-1.1,0.5    c-0.3,0.3-0.4,0.8-0.4,1.3c0,0.6,0.1,1,0.3,1.3c0.2,0.3,0.5,0.4,1,0.4c0.2,0,0.4,0,0.6-0.1C44.7,22.9,44.9,22.8,45,22.7z"/> 	</g> 	<g> 		<rect x="68.3" y="380.5" style="fill-rule:evenodd;clip-rule:evenodd;fill:none;" width="115.2" height="14.7"/> 		<path style="fill:#1A171B;" d="M75.9,384.6c0,0.4-0.1,0.7-0.2,1s-0.3,0.6-0.5,0.9c-0.3,0.3-0.7,0.6-1.1,0.7    c-0.4,0.2-0.9,0.2-1.5,0.2h-1.3v2.6h-2.1v-8h3.4c0.5,0,0.9,0,1.3,0.1c0.3,0.1,0.7,0.2,0.9,0.4c0.3,0.2,0.6,0.5,0.7,0.8    C75.8,383.7,75.9,384.1,75.9,384.6z M73.7,384.6c0-0.2-0.1-0.4-0.2-0.6c-0.1-0.2-0.3-0.3-0.4-0.3c-0.2-0.1-0.4-0.1-0.6-0.1    s-0.5,0-0.8,0h-0.4v2.4h0.6c0.4,0,0.6,0,0.9-0.1c0.2,0,0.4-0.1,0.6-0.3c0.1-0.1,0.2-0.3,0.3-0.4C73.7,385,73.7,384.8,73.7,384.6z"/> 		<path style="fill:#1A171B;" d="M79.2,390h-1.9v-8.4h1.9V390z"/> 		<path style="fill:#1A171B;" d="M84.6,389.4c-0.1,0.1-0.2,0.2-0.4,0.3s-0.3,0.2-0.4,0.3c-0.2,0.1-0.4,0.2-0.6,0.2s-0.4,0.1-0.7,0.1    c-0.6,0-1.1-0.2-1.4-0.5c-0.4-0.4-0.6-0.8-0.6-1.4c0-0.4,0.1-0.8,0.3-1.1s0.5-0.5,0.8-0.7c0.4-0.2,0.8-0.3,1.3-0.3    s1.1-0.1,1.6-0.2v0c0-0.3-0.1-0.6-0.4-0.7s-0.7-0.2-1.2-0.2c-0.3,0-0.7,0.1-1,0.2c-0.4,0.1-0.6,0.2-0.8,0.3h-0.2v-1.5    c0.2-0.1,0.5-0.1,1-0.2c0.5-0.1,0.9-0.1,1.4-0.1c1.1,0,1.9,0.2,2.4,0.5c0.5,0.3,0.7,0.9,0.7,1.6v4.1h-1.9V389.4z M84.6,388.4v-1.3    c-0.3,0-0.5,0.1-0.8,0.1s-0.5,0.1-0.7,0.1c-0.2,0.1-0.3,0.1-0.4,0.3c-0.1,0.1-0.2,0.3-0.2,0.5c0,0.1,0,0.2,0,0.3s0.1,0.2,0.2,0.2    c0.1,0.1,0.2,0.1,0.3,0.2s0.3,0.1,0.5,0.1c0.2,0,0.4,0,0.6-0.1C84.3,388.7,84.5,388.6,84.6,388.4z"/> 		<path style="fill:#1A171B;" d="M92.2,390c-0.2,0.1-0.4,0.1-0.7,0.1s-0.5,0-0.9,0c-0.8,0-1.3-0.2-1.7-0.5c-0.4-0.3-0.6-0.8-0.6-1.6    v-2.8h-0.8V384h0.8v-1.7h1.9v1.7h1.8v1.3h-1.8v2.1c0,0.2,0,0.4,0,0.6c0,0.2,0,0.3,0.1,0.4c0.1,0.1,0.1,0.2,0.3,0.3    c0.1,0.1,0.3,0.1,0.6,0.1c0.1,0,0.2,0,0.4-0.1c0.2,0,0.3-0.1,0.3-0.1h0.2V390z"/> 		<path style="fill:#1A171B;" d="M96,390.1c0,0.7-0.2,1.2-0.6,1.6c-0.4,0.4-1,0.6-1.6,0.6c-0.4,0-0.7,0-1,0c-0.3,0-0.5-0.1-0.6-0.1    v-1.4h0.1c0.1,0,0.2,0.1,0.4,0.1s0.3,0,0.4,0c0.4,0,0.6-0.1,0.8-0.3c0.1-0.2,0.2-0.6,0.2-1.1v-4.2h-1.1V384H96V390.1z M96,383.1    h-2.1v-1.5H96V383.1z"/> 		<path style="fill:#1A171B;" d="M101.4,389.4c-0.1,0.1-0.2,0.2-0.4,0.3s-0.3,0.2-0.4,0.3c-0.2,0.1-0.4,0.2-0.6,0.2    s-0.4,0.1-0.7,0.1c-0.6,0-1.1-0.2-1.4-0.5c-0.4-0.4-0.6-0.8-0.6-1.4c0-0.4,0.1-0.8,0.3-1.1s0.5-0.5,0.8-0.7    c0.4-0.2,0.8-0.3,1.3-0.3s1.1-0.1,1.6-0.2v0c0-0.3-0.1-0.6-0.4-0.7s-0.7-0.2-1.2-0.2c-0.3,0-0.7,0.1-1,0.2    c-0.4,0.1-0.6,0.2-0.8,0.3h-0.2v-1.5c0.2-0.1,0.5-0.1,1-0.2c0.5-0.1,0.9-0.1,1.4-0.1c1.1,0,1.9,0.2,2.4,0.5    c0.5,0.3,0.7,0.9,0.7,1.6v4.1h-1.9V389.4z M101.4,388.4v-1.3c-0.3,0-0.5,0.1-0.8,0.1s-0.5,0.1-0.7,0.1c-0.2,0.1-0.3,0.1-0.4,0.3    c-0.1,0.1-0.2,0.3-0.2,0.5c0,0.1,0,0.2,0,0.3s0.1,0.2,0.2,0.2c0.1,0.1,0.2,0.1,0.3,0.2s0.3,0.1,0.5,0.1c0.2,0,0.4,0,0.6-0.1    C101.1,388.7,101.3,388.6,101.4,388.4z"/> 		<path style="fill:#1A171B;" d="M114.7,390h-1.9v-0.6c-0.3,0.3-0.6,0.5-0.9,0.6c-0.3,0.1-0.6,0.2-1,0.2c-0.7,0-1.3-0.3-1.8-0.8    c-0.4-0.6-0.7-1.3-0.7-2.3c0-0.5,0.1-1,0.2-1.4s0.4-0.7,0.6-1c0.2-0.3,0.5-0.5,0.9-0.6c0.3-0.1,0.7-0.2,1-0.2c0.4,0,0.7,0,0.9,0.1    c0.2,0.1,0.5,0.2,0.7,0.3v-2.6h1.9V390z M112.8,388.4v-3c-0.1-0.1-0.3-0.1-0.4-0.1s-0.3,0-0.4,0c-0.5,0-0.9,0.2-1.1,0.5    c-0.3,0.3-0.4,0.8-0.4,1.3c0,0.6,0.1,1,0.3,1.3c0.2,0.3,0.5,0.4,1,0.4c0.2,0,0.4,0,0.6-0.1C112.5,388.6,112.7,388.5,112.8,388.4z"/> 		<path style="fill:#1A171B;" d="M122.5,387.4h-4.4c0,0.5,0.2,0.8,0.5,1.1c0.3,0.3,0.8,0.4,1.5,0.4c0.4,0,0.8-0.1,1.2-0.2    s0.7-0.3,0.9-0.5h0.2v1.6c-0.4,0.2-0.8,0.3-1.2,0.4s-0.8,0.1-1.3,0.1c-1.2,0-2.1-0.3-2.8-0.8s-1-1.3-1-2.3c0-1,0.3-1.8,0.9-2.4    c0.6-0.6,1.4-0.9,2.5-0.9c1,0,1.7,0.2,2.2,0.7s0.7,1.2,0.7,2.1V387.4z M120.6,386.2c0-0.4-0.1-0.7-0.3-0.9s-0.5-0.3-0.9-0.3    c-0.4,0-0.7,0.1-0.9,0.3s-0.4,0.5-0.4,0.9H120.6z"/> 		<path style="fill:#1A171B;" d="M134.3,384.6c0,0.4-0.1,0.7-0.2,1s-0.3,0.6-0.5,0.9c-0.3,0.3-0.7,0.6-1.1,0.7    c-0.4,0.2-0.9,0.2-1.5,0.2h-1.3v2.6h-2.1v-8h3.4c0.5,0,0.9,0,1.3,0.1c0.3,0.1,0.7,0.2,0.9,0.4c0.3,0.2,0.6,0.5,0.7,0.8    C134.3,383.7,134.3,384.1,134.3,384.6z M132.2,384.6c0-0.2-0.1-0.4-0.2-0.6c-0.1-0.2-0.3-0.3-0.4-0.3c-0.2-0.1-0.4-0.1-0.6-0.1    s-0.5,0-0.8,0h-0.4v2.4h0.6c0.4,0,0.6,0,0.9-0.1c0.2,0,0.4-0.1,0.6-0.3c0.1-0.1,0.2-0.3,0.3-0.4    C132.2,385,132.2,384.8,132.2,384.6z"/> 		<path style="fill:#1A171B;" d="M139.4,389.4c-0.1,0.1-0.2,0.2-0.4,0.3s-0.3,0.2-0.4,0.3c-0.2,0.1-0.4,0.2-0.6,0.2    s-0.4,0.1-0.7,0.1c-0.6,0-1.1-0.2-1.4-0.5c-0.4-0.4-0.6-0.8-0.6-1.4c0-0.4,0.1-0.8,0.3-1.1s0.5-0.5,0.8-0.7    c0.4-0.2,0.8-0.3,1.3-0.3s1.1-0.1,1.6-0.2v0c0-0.3-0.1-0.6-0.4-0.7s-0.7-0.2-1.2-0.2c-0.3,0-0.7,0.1-1,0.2    c-0.4,0.1-0.6,0.2-0.8,0.3h-0.2v-1.5c0.2-0.1,0.5-0.1,1-0.2c0.5-0.1,0.9-0.1,1.4-0.1c1.1,0,1.9,0.2,2.4,0.5    c0.5,0.3,0.7,0.9,0.7,1.6v4.1h-1.9V389.4z M139.4,388.4v-1.3c-0.3,0-0.5,0.1-0.8,0.1s-0.5,0.1-0.7,0.1c-0.2,0.1-0.3,0.1-0.4,0.3    c-0.1,0.1-0.2,0.3-0.2,0.5c0,0.1,0,0.2,0,0.3s0.1,0.2,0.2,0.2c0.1,0.1,0.2,0.1,0.3,0.2s0.3,0.1,0.5,0.1c0.2,0,0.4,0,0.6-0.1    C139,388.7,139.2,388.6,139.4,388.4z"/> 		<path style="fill:#1A171B;" d="M145,390H143v-8.4h1.9V390z"/> 		<path style="fill:#1A171B;" d="M152.7,385.8v4.3h-1.9v-3c0-0.3,0-0.5,0-0.7s-0.1-0.4-0.1-0.5s-0.2-0.2-0.3-0.3    c-0.1-0.1-0.3-0.1-0.6-0.1c-0.2,0-0.4,0-0.6,0.1s-0.3,0.2-0.5,0.2v4.3h-1.9v-6h1.9v0.7c0.3-0.3,0.7-0.5,1-0.6    c0.3-0.1,0.6-0.2,1-0.2c0.4,0,0.7,0.1,1.1,0.3c0.3,0.2,0.5,0.4,0.7,0.8c0.4-0.3,0.8-0.6,1.1-0.8s0.7-0.3,1.1-0.3    c0.7,0,1.1,0.2,1.5,0.6c0.3,0.4,0.5,1,0.5,1.7v3.9h-1.9v-3c0-0.3,0-0.5,0-0.8c0-0.2-0.1-0.4-0.1-0.5c-0.1-0.1-0.2-0.2-0.3-0.3    c-0.1-0.1-0.3-0.1-0.6-0.1c-0.2,0-0.3,0-0.5,0.1S152.9,385.6,152.7,385.8z"/> 		<path style="fill:#1A171B;" d="M162.1,389.4c-0.1,0.1-0.2,0.2-0.4,0.3c-0.2,0.1-0.3,0.2-0.4,0.3c-0.2,0.1-0.4,0.2-0.6,0.2    s-0.4,0.1-0.7,0.1c-0.6,0-1.1-0.2-1.4-0.5c-0.4-0.4-0.6-0.8-0.6-1.4c0-0.4,0.1-0.8,0.3-1.1s0.5-0.5,0.8-0.7    c0.4-0.2,0.8-0.3,1.3-0.3s1.1-0.1,1.6-0.2v0c0-0.3-0.1-0.6-0.4-0.7c-0.3-0.1-0.7-0.2-1.2-0.2c-0.3,0-0.7,0.1-1,0.2    c-0.4,0.1-0.6,0.2-0.8,0.3h-0.2v-1.5c0.2-0.1,0.5-0.1,1-0.2c0.5-0.1,0.9-0.1,1.4-0.1c1.1,0,1.9,0.2,2.4,0.5    c0.5,0.3,0.7,0.9,0.7,1.6v4.1h-1.9V389.4z M162.1,388.4v-1.3c-0.3,0-0.5,0.1-0.8,0.1c-0.3,0-0.5,0.1-0.7,0.1    c-0.2,0.1-0.3,0.1-0.4,0.3c-0.1,0.1-0.2,0.3-0.2,0.5c0,0.1,0,0.2,0,0.3s0.1,0.2,0.2,0.2c0.1,0.1,0.2,0.1,0.3,0.2s0.3,0.1,0.5,0.1    c0.2,0,0.4,0,0.6-0.1C161.8,388.7,161.9,388.6,162.1,388.4z"/> 	</g> </g> <g id="llegenda"> 	<line style="fill:none;stroke:#9A9A9A;stroke-width:2;stroke-miterlimit:10;" x1="762.2" y1="-5.4" x2="762.2" y2="24.1"/> 	<line style="fill:none;stroke:#9A9A9A;stroke-miterlimit:10;" x1="795.6" y1="-5.4" x2="795.6" y2="24.1"/> 	<g> 		<path d="M770,5h0.9v7.1H770V5z"/> 		<path d="M773.3,5.9c0,0.3-0.2,0.5-0.6,0.5c-0.3,0-0.5-0.2-0.5-0.5s0.2-0.5,0.5-0.5C773.1,5.3,773.3,5.6,773.3,5.9z M772.3,12.1    V7.3h0.9v4.8H772.3z"/> 		<path d="M774.7,8.6c0-0.5,0-0.9,0-1.3h0.8l0,0.8h0c0.2-0.4,0.8-0.9,1.6-0.9c0.7,0,1.7,0.4,1.7,2.1v2.9h-0.9V9.3    c0-0.8-0.3-1.4-1.1-1.4c-0.6,0-1,0.4-1.2,0.9c0,0.1-0.1,0.3-0.1,0.4v2.9h-0.9V8.6z"/> 	</g> 	<line style="fill:none;stroke:#696969;stroke-width:2;stroke-miterlimit:10;" x1="762.2" y1="34.2" x2="762.2" y2="63.7"/> 	<g> 		<path d="M770,44.6h0.9v7.1H770V44.6z"/> 		<path d="M773.3,45.5c0,0.3-0.2,0.5-0.6,0.5c-0.3,0-0.5-0.2-0.5-0.5s0.2-0.5,0.5-0.5C773.1,44.9,773.3,45.2,773.3,45.5z     M772.3,51.7v-4.8h0.9v4.8H772.3z"/> 		<path d="M774.7,48.1c0-0.5,0-0.9,0-1.3h0.8l0,0.8h0c0.2-0.4,0.8-0.9,1.6-0.9c0.7,0,1.7,0.4,1.7,2.1v2.9h-0.9v-2.8    c0-0.8-0.3-1.4-1.1-1.4c-0.6,0-1,0.4-1.2,0.9c0,0.1-0.1,0.3-0.1,0.4v2.9h-0.9V48.1z"/> 	</g> 	<rect x="756.9" y="-30" style="fill:#BFBFBF;" width="16.3" height="15.3"/> 	<rect x="756.9" y="-57.7" style="fill:#DCE9FB;" width="16.3" height="15.3"/> 	<rect x="725.5" y="-57.7" style="fill:#D0E0A4;" width="16.3" height="15.3"/> 	<g> 		<path d="M782.4-20.7v-4.2h-0.7v-0.7h0.7v-0.2c0-0.7,0.2-1.3,0.6-1.7c0.3-0.3,0.8-0.4,1.2-0.4c0.3,0,0.6,0.1,0.7,0.1l-0.1,0.7    c-0.1-0.1-0.3-0.1-0.6-0.1c-0.7,0-0.9,0.6-0.9,1.4v0.3h1.2v0.7h-1.2v4.2H782.4z"/> 		<path d="M789.5-23.1c0,1.8-1.3,2.6-2.4,2.6c-1.3,0-2.3-1-2.3-2.5c0-1.6,1.1-2.6,2.4-2.6C788.5-25.6,789.5-24.6,789.5-23.1z     M785.7-23.1c0,1.1,0.6,1.9,1.5,1.9c0.8,0,1.5-0.8,1.5-1.9c0-0.8-0.4-1.8-1.4-1.8C786.1-24.9,785.7-24,785.7-23.1z"/> 		<path d="M790.6-24.2c0-0.5,0-0.9,0-1.3h0.8l0,0.8h0c0.2-0.4,0.8-0.9,1.6-0.9c0.7,0,1.7,0.4,1.7,2.1v2.9h-0.9v-2.8    c0-0.8-0.3-1.4-1.1-1.4c-0.6,0-1,0.4-1.2,0.9c0,0.1-0.1,0.3-0.1,0.4v2.9h-0.9V-24.2z"/> 		<path d="M796-21.5c0.3,0.2,0.7,0.3,1.2,0.3c0.6,0,0.9-0.3,0.9-0.7c0-0.4-0.3-0.6-0.9-0.9c-0.9-0.3-1.3-0.8-1.3-1.4    c0-0.8,0.6-1.4,1.7-1.4c0.5,0,0.9,0.1,1.2,0.3l-0.2,0.6c-0.2-0.1-0.5-0.3-1-0.3c-0.5,0-0.8,0.3-0.8,0.7c0,0.4,0.3,0.6,0.9,0.8    c0.8,0.3,1.3,0.7,1.3,1.4c0,0.9-0.7,1.5-1.8,1.5c-0.5,0-1-0.1-1.4-0.3L796-21.5z"/> 	</g> 	<g> 		<path d="M782.3-51.5c0-0.5,0-0.9,0-1.3h0.8l0,0.8h0c0.3-0.5,0.7-0.9,1.5-0.9c0.7,0,1.2,0.4,1.4,1h0c0.1-0.3,0.4-0.5,0.5-0.6    c0.3-0.2,0.6-0.3,1.1-0.3c0.6,0,1.6,0.4,1.6,2.1v2.8h-0.9v-2.7c0-0.9-0.3-1.5-1-1.5c-0.5,0-0.9,0.4-1,0.8c0,0.1-0.1,0.3-0.1,0.4v3    h-0.9v-2.9c0-0.8-0.3-1.3-1-1.3c-0.5,0-1,0.4-1.1,0.9c-0.1,0.1-0.1,0.3-0.1,0.4v2.9h-0.9V-51.5z"/> 		<path d="M794.1-49.2c0,0.4,0,0.8,0.1,1.2h-0.8l-0.1-0.6h0c-0.3,0.4-0.8,0.7-1.5,0.7c-1,0-1.5-0.7-1.5-1.4c0-1.2,1-1.8,2.9-1.8    v-0.1c0-0.4-0.1-1.1-1.1-1.1c-0.5,0-0.9,0.1-1.3,0.4l-0.2-0.6c0.4-0.3,1-0.4,1.6-0.4c1.5,0,1.8,1,1.8,2V-49.2z M793.2-50.5    c-1,0-2,0.1-2,1.1c0,0.6,0.4,0.8,0.8,0.8c0.6,0,1-0.4,1.2-0.8c0-0.1,0-0.2,0-0.3V-50.5z"/> 		<path d="M795.5-51.3c0-0.6,0-1.1,0-1.5h0.8l0,1h0c0.2-0.6,0.8-1.1,1.3-1.1c0.1,0,0.2,0,0.2,0v0.8c-0.1,0-0.2,0-0.3,0    c-0.6,0-1.1,0.5-1.2,1.1c0,0.1,0,0.3,0,0.4v2.6h-0.9V-51.3z"/> 	</g> 	<circle style="fill-rule:evenodd;clip-rule:evenodd;fill:#5B7EBD;" cx="762.2" cy="78.8" r="2.4"/> 	<rect x="681.4" y="-30" style="fill:#BFBFBF;stroke:#696969;stroke-width:2;stroke-miterlimit:10;" width="16.3" height="15.3"/> 	<rect x="707.6" y="-30" style="fill:#FFFBF0;stroke:#9A9A9A;stroke-width:2;stroke-miterlimit:10;" width="16.3" height="15.3"/> 	<rect x="698.4" y="0.6" style="opacity:0.6;fill:#FFFBF0;" width="51" height="17.5"/> </g> </svg>