<svg xmlns="http://www.w3.org/2000/svg" xmlns:xlink="http://www.w3.org/1999/xlink" version="1.1" x="0px" y="0px" width="449.9px" height="449.9px" viewBox="0 0 449.9 449.9" style="enable-background:new 0 0 449.9 449.9;" xml:space="preserve"> <g id="provincies_x5F_joan_x5F_2"> 	<a> 		<path style="fill:#BFBFBF;stroke:#696969;stroke-width:2;stroke-miterlimit:10;" d="M504.8,269.6c16.2,29.2-28.7,58-35.3,26.1    c-9,5.7-35,22.5-48.4,27c-12.5,4.2-26.5,2.1-39,3.3c-8.5,0.8-30.7,3.2-42.6,0c-7.1-1.9,4.2-19.5-26.5-4.9    c-5.9,2.8,2.2,27.7-12.4,34.1c-9.1,4-52-7.1-55.1,0.9c-3,7.7-4.7,21.1-8.1,28.4c-12.2-13-22.8,4.7-36.8,2.1    c-10.6-2-22.2-10-34.1-13.1c-7.5-2-11.8,2-19.4,0c-28.4-7.4-40.4-35.2-68.3-5.9c-5.9,6.3-10.8,28.8-13.3,37.8    c-5.9,20.7-5,29.3-30.9,31.7c-9.8,0.9-27.2,1.7-37.5-1.2c-11.5-3.2-5.6-16-20.4-12.2c-11.7,3-5.9,68-6.1,81.5    c179.8,2.3,359.7,1.2,539.5,2.6c0-80.9,0-161.7,0-242.6C508.4,266.8,506.6,268.2,504.8,269.6L504.8,269.6z"/> 	</a> </g> <g id="Copia_de_comarques_x5F_joan_x5F_2"> 	<a> 		<path style="fill-rule:evenodd;clip-rule:evenodd;fill:#BFBFBF;stroke:#696969;stroke-width:2;stroke-miterlimit:10;" d="    M25.5-40.2c5.8,4.4,28.5,12.6,31.5,20.6C62.3-5,77.1-17,83.8-9.3c4.1-5.2,9.9-7.6,13.1-13.8c2.1,9.2,46.8,19.7,53.5,20.6    c25.7,3.2,21.8,2.1,23-23.2c1-22.3-19.8-13.6-37.5-13.8C98.9-39.8,62.3-40.1,25.5-40.2C25.5-40.2,74.5-40,25.5-40.2z"/> 	</a> 	<a> 		<path style="fill:#BFBFBF;stroke:#696969;stroke-width:2;stroke-miterlimit:10;" d="M187.4,46.9c-2.7-0.9-4.7-1.9-8.6-2.7    c6.9-16.7-28.9-22.4-6.6-46.8c-15,0.9-68.8-8.1-75.4-20.4c-3.2,6.2-9,8.6-13.1,13.8c-6.3-7.3-8.6-9-18-5.7    c-4.7,1.6-29.4-10.8-29-15c1.2-12.5-25.6-5.4-28.2-5.3c-14.4,0.2-25.9-5-45.2-5c1.7,24.7,1.9,51.9,7.6,71.1c3.1-7.3,4.9-8,2.7-15    c4.4-0.4,7.9,0.6,14,4.6c-3.9,4.6-1.9,5.6-3.4,9.2c1.9,0.7,2.3-3,2.5-4.1c9.1,4.6,4.2,7.3,10.9,0.2c0.8,0.1,5.1,3.8,2.9,4.2    c5.8-4.4,8-3.5,13.7-4.5c-1.8,0.3-3.6,0.6-5.4,0.9c8.3,21.4,16.3,16.6,26.1,35.1c4.6,8.6,4.5,21.4,10.2,26.3    c6.8,6,22.8-6.5,22.3,10.1c2.8-0.7,23.5-7.7,23.5-7.6c0.6,5,18.4,10.9,14.2,10.8c10,0.1,6.9-6.7,12.7-8.7c8.7-3,25.4,22,37.5,12.1    c4.6-7.7-1.3-12.7,25.4-25.7c3-1.5,11-27,12.4-33C191.4,46.1,189.4,46.5,187.4,46.9L187.4,46.9z"/> 	</a> 	<a> 		<path style="fill-rule:evenodd;clip-rule:evenodd;fill:#BFBFBF;stroke:#696969;stroke-width:2;stroke-miterlimit:10;" d="    M67.8,93.6c-5.3-10.7-13-2.7-21.9-5.3c-2.3-0.7-8.6-24-11.1-28.8C34.1,58.1,12,33.7,9.1,26.2c1.8-0.3,3.6-0.6,5.4-0.9    c-5.7,1-7.8,0.2-13.7,4.5c2.2-0.4-2.1-4.1-2.9-4.2C-8.8,32.7-3.9,30-13,25.4c-0.2,1.1-0.6,4.8-2.5,4.1c1.5-3.7-0.5-4.6,3.4-9.2    c-6.1-4-9.6-5-14-4.6c2.2,7,0.3,7.7-2.7,15c-0.7-3.7-0.7-5.3-0.6-8.7c-0.1,0.1-3.7-1.4-3.5-0.8c1.5,29.7,2.6,59.5,3.4,89.3    c16.4-12.6,9.7,7.8,11.3,8.1c3.8,0.5,9.6-0.3,14.8,3.9c5.4,4.4,10.2,13.9,13.3,15.7c-0.8,0.7,7.2,3.9,16.2,5.4    c7.5,1.2,15.5,0.8,21.5,0.5c6-0.3,9.3,0.2,6.2-4.8c-1.2-1.9-2.6-5.7-5.8-8.5c0,0,9.7-28.1,14.4-36.5c1.4,1.5,2.8,3,4.3,4.5    C66.7,97.8,66,94.6,67.8,93.6L67.8,93.6z"/> 	</a> 	<a> 		<path style="fill:#BFBFBF;stroke:#696969;stroke-width:2;stroke-miterlimit:10;" d="M294.1,331.4c-4.1-16.4-24.6-40.1-35.9-49.5    c-3.7-3.1-16.6-1.5-26-9c-4.9-3.9-8.4-15.5-11.8-17.7c-12.4-7.9-71.1-19-71.9-21.4c-1.9-5.9-5.6-35-7.7-34.1    c-6.7,2.9-15.3-6-23.3-5.9c-17.9,0.3-12.3-34.8-22.2-41.8c-9.6-6.8-12.4,1.5-21.1-0.3c-9.8-2.1-16.9-9.2-16.1-9.6    c-23.7,6.1-50.6-1.9-48.3-4c-6.1-3.5-11.4-21.1-20.1-16.3c-12.4,6.8-4.6-10.8-6.4-10.9c-11.5-0.4-13.1-11.2-12.4,17    c1.2,46.6,1.7,93.3,1.7,139.9c0.1,57.6-0.3,98.5-1,157.3c18.2-7,19.8,14.9,36.2,14c11.2-0.6,24.6-1.4,34.7-2.8    c26.6-3.7,22.4-54.4,36.4-70c24.6-27.3,46.3,1.5,68.1,7.1c6.3,1.6,13.3-2.9,18.9-0.7c5.7,2.3,28.9,12.7,34.7,13.8    c7.3,1.3,28.2-11.2,36.8-2.1c3.1-6.5,6.1-27.7,10-30.9c2-1.7,29.5,1.7,35.8,1.9c28,1.1,24,2.7,28.9-34.4    C309.5,323.4,297.6,329.4,294.1,331.4z"/> 	</a> 	<a> 		<path style="fill:#BFBFBF;stroke:#696969;stroke-width:2;stroke-miterlimit:10;" d="M420.2-33.3c-27.1-11.5-73.4-4-103.7-4.3    c-48-0.5-95.9-1-143.9-1.5c1,9.3,0.5,18.1,0.1,27.5c-0.3,7.1-8.4,17.6-8.4,21.7c0.1,17.1,19.8,21.6,14.5,34.2    c6.4-0.1,7,3.4,14.6,1.5c-2,8.7-6.9,19.5-8.6,25.8c-3.1,11.8-28.4,13.1-25.9,30.7c0.3,2,21.7,28.5,22.5,29    c11.7,7.6,19.3,2,30.8,2.8c2-6.5,4.2-8,13.5-7c-0.3,7,1.4,15.9,4.3,23c1.6,0.2,9.7,0.6,13.3,0.2c-1.6-8.3,8-33,14.1-40.8    c5.8-7.4,19.6-11,23.2-19.5c3.5-8.4-2.6-29.5-3.4-39.1c10.7-0.6,24.7-1.6,33.1-8.6c7.7-6.4,9.2-16.4,15.6-23.4    c4.1-4.4,6.3-7.3,9.1-7.6c6.1-0.8,11.6,6.8,21.2,9.2c26.4,6.6,44.1-27.6,73.9-21C420-8.7,417.7-21,420.2-33.3L420.2-33.3z"/> 	</a> 	<a> 		<path style="fill:#BFBFBF;stroke:#696969;stroke-width:2;stroke-miterlimit:10;" d="M507.6-36.1c-13.2-0.1-131.7-8.9-77.5,35.6    c-29.9-6.5-47.6,27.7-73.9,21c-7.5-1.9-19.9-15.9-27.3-5.6c-19,26.4-12.8,33.7-51.6,36c1.7,19.3,9.4,30.1,0,43.9    c-5.6,8.2-15.9,9.4-21.8,17.2c-3.1,4.2-6.4,14.8-7.5,17.5c-3.2,7.5-11.2,20.9,2.6,25.5c2.4,0.8,1.7,9.9,5.8,11    c11.5,3.1,23.8,8.1,31.1-0.8c-1.1-3.2-0.7-5.9-2.5-9.4c8.1,0.7,15.6-1.6,21.8-6.8c4.1,15.6,7.9,18,15.6,21.7    c3.4,1.6,31.7-2.2,38.4-0.3c25.4,7.1,0.1,19.7,22,29.9c30.7,14.4,6.8,15.9,15.7,31.8c8.3,15,30.8-1,24.8,26.5    c-1.8,8.2,2.4,17.5,9.8,20.7c10.4,4.6,4.4,15.1,4.3,16.9c-0.1,3-9,24.6-9,24.6s37.3-22.7,41.3-25.2c6.3,30.7,47.4,5.8,36.8-22    c-2.8-7.3,3.8-50.1,3.8-61.9c0-52.8,0-105.7,0-158.5C510.2,29.5,518.4-15.6,507.6-36.1C504.4-36.1,507.6-36.1,507.6-36.1z"/> 	</a> </g> <g id="color__V._Nalón"> 	<a> 		<path style="fill-rule:evenodd;clip-rule:evenodd;fill:#FFFBF0;stroke:#9A9A9A;stroke-width:2;stroke-miterlimit:10;" d="    M151.3,106.6c5.7,15.3-22.8,18.9-32.5,31.7c22.5,1.2,9.3,41.1,11.8,57.8c-18.1,0.1-24.1-3.1-27-11.9c-3.8-11.6-0.1-41.5-25-32.4    c-7.3,2.6-30.2-14.7-31.1-20.3c-0.3-1.8,12.5-33.2,14.8-37.2c9.8,8.6,19.4-5.1,30.6-5c-4.5,0,10.2,10.3,11.5,10.6    c7.1,2,10.3-8.8,16-8.1C130.6,92.9,138.7,104.5,151.3,106.6L151.3,106.6z"/> 	</a> 	<a> 		<path style="fill-rule:evenodd;clip-rule:evenodd;fill:#FFFBF0;stroke:#9A9A9A;stroke-width:2;stroke-miterlimit:10;" d="    M159,102.2c14,11,16.5,29.5,35.1,33c-14.4,9.6-14.9,22.6-21.9,36.1c-6.9,13.3-8.3,12.7-19.8,20.8c-46.6,32.6-2.5-52.1-33.5-53.8    c9.7-12.8,34.1-17.2,32.5-31.7C152,106.3,158.8,102.9,159,102.2L159,102.2z"/> 	</a> 	<a> 		<path style="fill-rule:evenodd;clip-rule:evenodd;fill:#FFFBF0;stroke:#9A9A9A;stroke-width:2;stroke-miterlimit:10;" d="    M194,135.2c7.4-0.1,10.6-3.4,18.2-1.2c2-6.5,4.2-8,13.5-7c-0.3,7,1.4,15.9,4.3,23c10-4.4,27.5,4.8,25.2,18.7    c-4.1-0.7-5.6,0.9-8.6,1.2c1.7,5.7-25.3,84.3-27,84.5c-8.5,0.6-24.4-8.1-31.8-10.2c-10.3-3-36.9-4.7-40.5-9.8    c-3.4-4.8-0.6-30.6-6.5-34.6c0,0,23.5-17.7,27.9-24.6C176.9,162.5,180,144.5,194,135.2L194,135.2z"/> 	</a> 	<a> 		<path style="fill-rule:evenodd;clip-rule:evenodd;fill:#FFFBF0;stroke:#9A9A9A;stroke-width:2;stroke-miterlimit:10;" d="    M375.3,181.7c-9.6,20.8,19.3,18,24.9,29.9c1,2.1-6.1,13.9-1.9,20.6c5.4,8.5,20.9,4.8,25.5,11.2c7.2,10-10.2,27.7,9,36.1    c15.1,6.7,0.8,27.8-3.8,40.3c-2.8,7.6-66,9.6-73.3,7.2c-0.5-0.2-11.6,0.7-16.4-0.8c-3.7-1.1,2.4-9.5-14.5-9.7    c-9.6-0.1-21.1,12.7-30.9,14.9c-4.1-16.4-24.6-39.5-35.9-48.9c-5.6-4.6,24.2-44.4,26.3-55.2c1.1-5.5-7.2-25-1.8-33.3    c8.5-13.2,3.2-17.8-4.7-23c3.8-3,6-5,9.5-5.7c-1-2.9-1.3-6.2-2.5-9.4c8.1,0.7,15.6-1.6,21.8-6.8c4.1,15.6,9.1,21.6,23.7,21.1    c5.2-0.2,12.3-0.6,16.1-0.3C358.9,170.8,369.4,163.9,375.3,181.7L375.3,181.7z"/> 	</a> 	<a> 		<path style="fill-rule:evenodd;clip-rule:evenodd;fill:#FFFBF0;stroke:#9A9A9A;stroke-width:2;stroke-miterlimit:10;" d="    M282.1,173.2c12.6,12.5-0.1,18-0.6,22.2c-1.2,12.1,3.4,20.7,3,31.9c-0.1,1.7-27.8,53.4-27.8,53.4c-21.1,1.3-29.4-8.4-36.2-26.3    c-0.5-1.4,27.9-76.5,26.2-84.3c1.5-0.2,11.2-4.4,7.4-4C254.1,166,276.2,167.3,282.1,173.2z"/> 	</a> </g> <g id="BL"> 	<rect x="159.7" y="137.9" style="opacity:0.6;fill:#FFFBF0;" width="51" height="17.5"/> 	<rect x="223.7" y="217.3" style="opacity:0.6;fill:#FFFBF0;" width="68.4" height="9.3"/> </g> <g id="text_x5F_exterior"> 	<g> 		<rect x="284.4" y="402.8" style="fill-rule:evenodd;clip-rule:evenodd;fill:none;" width="31.5" height="14.4"/> 		<path style="fill:#1A171B;" d="M292.7,411.1h-5.2v-7.3h1.9v5.9h3.4V411.1z"/> 		<path style="fill:#1A171B;" d="M299.1,408.7h-4c0,0.4,0.2,0.8,0.5,1c0.3,0.2,0.7,0.3,1.3,0.3c0.4,0,0.7-0.1,1.1-0.2    s0.6-0.3,0.8-0.4h0.2v1.4c-0.4,0.2-0.8,0.3-1.1,0.3s-0.7,0.1-1.2,0.1c-1.1,0-1.9-0.2-2.5-0.7s-0.9-1.2-0.9-2.1    c0-0.9,0.3-1.6,0.8-2.2c0.6-0.5,1.3-0.8,2.3-0.8c0.9,0,1.6,0.2,2,0.7c0.4,0.5,0.7,1.1,0.7,1.9V408.7z M297.4,407.6    c0-0.4-0.1-0.6-0.3-0.8s-0.4-0.3-0.8-0.3c-0.3,0-0.6,0.1-0.8,0.3s-0.3,0.5-0.4,0.8H297.4z"/> 		<path style="fill:#1A171B;" d="M306,408.3c0,0.9-0.3,1.6-0.8,2.1c-0.5,0.5-1.3,0.8-2.2,0.8s-1.7-0.3-2.2-0.8    c-0.5-0.5-0.8-1.2-0.8-2.1c0-0.9,0.3-1.6,0.8-2.1c0.5-0.5,1.3-0.8,2.2-0.8c1,0,1.7,0.3,2.2,0.8S306,407.4,306,408.3z M304.7,402.9    L304.7,402.9l-1.7,1.9h-1.2l1.2-1.9H304.7z M303.8,409.7c0.1-0.1,0.2-0.3,0.3-0.5c0.1-0.2,0.1-0.5,0.1-0.8c0-0.3,0-0.6-0.1-0.8    s-0.1-0.4-0.2-0.5c-0.1-0.1-0.2-0.2-0.4-0.3s-0.3-0.1-0.5-0.1s-0.3,0-0.5,0.1s-0.3,0.1-0.4,0.3c-0.1,0.1-0.2,0.3-0.3,0.5    s-0.1,0.5-0.1,0.8c0,0.3,0,0.6,0.1,0.8s0.1,0.4,0.2,0.5c0.1,0.1,0.2,0.2,0.4,0.3c0.1,0.1,0.3,0.1,0.5,0.1c0.2,0,0.3,0,0.5-0.1    C303.6,409.9,303.7,409.8,303.8,409.7z"/> 		<path style="fill:#1A171B;" d="M312.7,411.1H311v-2.7c0-0.2,0-0.4,0-0.7s-0.1-0.4-0.1-0.5c-0.1-0.1-0.2-0.2-0.3-0.3    c-0.1-0.1-0.3-0.1-0.5-0.1c-0.2,0-0.3,0-0.5,0.1c-0.2,0.1-0.3,0.1-0.5,0.2v3.9h-1.8v-5.5h1.8v0.6c0.3-0.2,0.6-0.4,0.9-0.6    c0.3-0.1,0.6-0.2,1-0.2c0.6,0,1.1,0.2,1.4,0.5s0.5,0.9,0.5,1.5V411.1z"/> 	</g> </g> <g id="text-comarques"> 	<g> 		 			<rect x="59.4" y="293.2" transform="matrix(-1 -7.024606e-005 7.024606e-005 -1 216.2393 597.9392)" style="fill-rule:evenodd;clip-rule:evenodd;fill:none;" width="97.5" height="11.5"/> 		<path style="fill:#1A171B;" d="M69.8,301.1h-1.9v-4.9l-1.3,3.2h-1.3l-1.3-3.2v4.9h-1.8v-7.3h2.2l1.6,3.6l1.6-3.6h2.2V301.1z"/> 		<path style="fill:#1A171B;" d="M77.2,298.4c0,0.9-0.3,1.6-0.8,2.1c-0.5,0.5-1.3,0.8-2.2,0.8s-1.7-0.3-2.2-0.8    c-0.5-0.5-0.8-1.2-0.8-2.1c0-0.9,0.3-1.6,0.8-2.1s1.3-0.8,2.2-0.8c1,0,1.7,0.3,2.2,0.8S77.2,297.5,77.2,298.4z M75,299.7    c0.1-0.1,0.2-0.3,0.3-0.5c0.1-0.2,0.1-0.5,0.1-0.8c0-0.3,0-0.6-0.1-0.8s-0.1-0.4-0.2-0.5c-0.1-0.1-0.2-0.2-0.4-0.3    s-0.3-0.1-0.5-0.1s-0.3,0-0.5,0.1s-0.3,0.1-0.4,0.3c-0.1,0.1-0.2,0.3-0.3,0.5s-0.1,0.5-0.1,0.8c0,0.3,0,0.6,0.1,0.8    s0.1,0.4,0.2,0.5c0.1,0.1,0.2,0.2,0.4,0.3s0.3,0.1,0.5,0.1c0.2,0,0.3,0,0.5-0.1S74.9,299.9,75,299.7z"/> 		<path style="fill:#1A171B;" d="M83.9,301.1h-1.8v-2.7c0-0.2,0-0.4,0-0.7s-0.1-0.4-0.1-0.5c-0.1-0.1-0.2-0.2-0.3-0.3    s-0.3-0.1-0.5-0.1c-0.2,0-0.3,0-0.5,0.1s-0.3,0.1-0.5,0.2v3.9h-1.8v-5.5h1.8v0.6c0.3-0.2,0.6-0.4,0.9-0.6c0.3-0.1,0.6-0.2,1-0.2    c0.6,0,1.1,0.2,1.4,0.5c0.3,0.3,0.5,0.9,0.5,1.5V301.1z"/> 		<path style="fill:#1A171B;" d="M89.1,301.1c-0.2,0-0.4,0.1-0.6,0.1c-0.2,0-0.5,0-0.8,0c-0.7,0-1.2-0.1-1.5-0.4s-0.5-0.8-0.5-1.4    v-2.6h-0.7v-1.2h0.7v-1.6h1.8v1.6h1.6v1.2h-1.6v1.9c0,0.2,0,0.4,0,0.5s0,0.3,0.1,0.4c0,0.1,0.1,0.2,0.2,0.3    c0.1,0.1,0.3,0.1,0.5,0.1c0.1,0,0.2,0,0.4-0.1c0.1,0,0.3-0.1,0.3-0.1h0.1V301.1z"/> 		<path style="fill:#1A171B;" d="M93.4,300.6c-0.1,0.1-0.2,0.2-0.4,0.3s-0.3,0.2-0.4,0.2c-0.2,0.1-0.4,0.1-0.5,0.2    c-0.2,0-0.4,0.1-0.6,0.1c-0.5,0-1-0.2-1.3-0.5s-0.5-0.7-0.5-1.2c0-0.4,0.1-0.7,0.3-1s0.4-0.5,0.8-0.6c0.3-0.1,0.7-0.3,1.2-0.3    s1-0.1,1.5-0.1v0c0-0.3-0.1-0.5-0.4-0.6c-0.2-0.1-0.6-0.2-1.1-0.2c-0.3,0-0.6,0.1-0.9,0.2s-0.6,0.2-0.7,0.2h-0.2v-1.3    c0.2,0,0.5-0.1,0.9-0.2c0.4-0.1,0.8-0.1,1.3-0.1c1,0,1.7,0.2,2.2,0.5s0.7,0.8,0.7,1.4v3.7h-1.7V300.6z M93.4,299.7v-1.1    c-0.2,0-0.5,0-0.8,0.1s-0.5,0.1-0.6,0.1c-0.2,0.1-0.3,0.1-0.4,0.2s-0.1,0.2-0.1,0.4c0,0.1,0,0.2,0,0.3s0.1,0.1,0.1,0.2    c0.1,0.1,0.2,0.1,0.3,0.1c0.1,0,0.3,0,0.5,0c0.2,0,0.4,0,0.5-0.1C93.1,299.9,93.3,299.8,93.4,299.7z"/> 		<path style="fill:#1A171B;" d="M102.3,301.1h-1.8v-2.7c0-0.2,0-0.4,0-0.7s-0.1-0.4-0.1-0.5c-0.1-0.1-0.2-0.2-0.3-0.3    s-0.3-0.1-0.5-0.1c-0.2,0-0.3,0-0.5,0.1s-0.3,0.1-0.5,0.2v3.9h-1.8v-5.5h1.8v0.6c0.3-0.2,0.6-0.4,0.9-0.6c0.3-0.1,0.6-0.2,1-0.2    c0.6,0,1.1,0.2,1.4,0.5c0.3,0.3,0.5,0.9,0.5,1.5V301.1z M101.7,293.2c0,0.5-0.2,1-0.4,1.2c-0.2,0.3-0.6,0.4-1,0.4    c-0.2,0-0.3,0-0.4-0.1c-0.1-0.1-0.3-0.1-0.4-0.2c-0.1-0.1-0.2-0.1-0.3-0.2s-0.2-0.1-0.3-0.1c-0.2,0-0.3,0.1-0.3,0.2    s-0.1,0.3-0.1,0.4h-1.1c0-0.5,0.2-0.9,0.4-1.2s0.6-0.4,1-0.4c0.2,0,0.3,0,0.4,0.1c0.1,0.1,0.3,0.1,0.4,0.2    c0.1,0.1,0.2,0.1,0.3,0.2c0.1,0.1,0.2,0.1,0.3,0.1c0.2,0,0.3-0.1,0.3-0.2s0.1-0.2,0.1-0.4H101.7z"/> 		<path style="fill:#1A171B;" d="M107.2,300.6c-0.1,0.1-0.2,0.2-0.4,0.3s-0.3,0.2-0.4,0.2c-0.2,0.1-0.4,0.1-0.5,0.2    c-0.2,0-0.4,0.1-0.6,0.1c-0.5,0-1-0.2-1.3-0.5s-0.5-0.7-0.5-1.2c0-0.4,0.1-0.7,0.3-1s0.4-0.5,0.8-0.6c0.3-0.1,0.7-0.3,1.2-0.3    s1-0.1,1.5-0.1v0c0-0.3-0.1-0.5-0.4-0.6c-0.2-0.1-0.6-0.2-1.1-0.2c-0.3,0-0.6,0.1-0.9,0.2s-0.6,0.2-0.7,0.2H104v-1.3    c0.2,0,0.5-0.1,0.9-0.2c0.4-0.1,0.8-0.1,1.3-0.1c1,0,1.7,0.2,2.2,0.5s0.7,0.8,0.7,1.4v3.7h-1.7V300.6z M107.2,299.7v-1.1    c-0.2,0-0.5,0-0.8,0.1s-0.5,0.1-0.6,0.1c-0.2,0.1-0.3,0.1-0.4,0.2s-0.1,0.2-0.1,0.4c0,0.1,0,0.2,0,0.3s0.1,0.1,0.1,0.2    c0.1,0.1,0.2,0.1,0.3,0.1c0.1,0,0.3,0,0.5,0c0.2,0,0.4,0,0.5-0.1C106.9,299.9,107.1,299.8,107.2,299.7z"/> 		<path style="fill:#1A171B;" d="M117.4,301.3c-0.5,0-1-0.1-1.5-0.2s-0.9-0.4-1.2-0.7s-0.6-0.7-0.8-1.2s-0.3-1-0.3-1.6    c0-0.6,0.1-1.1,0.3-1.6s0.4-0.9,0.8-1.2c0.3-0.3,0.7-0.6,1.2-0.7s1-0.3,1.5-0.3c0.3,0,0.6,0,0.8,0.1s0.5,0.1,0.7,0.1    c0.2,0.1,0.4,0.1,0.6,0.2c0.2,0.1,0.3,0.1,0.5,0.2v1.8h-0.2c-0.1-0.1-0.2-0.2-0.3-0.3c-0.1-0.1-0.3-0.2-0.5-0.3    c-0.2-0.1-0.4-0.2-0.6-0.3s-0.4-0.1-0.7-0.1c-0.3,0-0.5,0-0.8,0.1s-0.5,0.2-0.7,0.4c-0.2,0.2-0.3,0.4-0.5,0.7    c-0.1,0.3-0.2,0.7-0.2,1.1c0,0.5,0.1,0.8,0.2,1.1c0.1,0.3,0.3,0.5,0.5,0.7c0.2,0.2,0.4,0.3,0.7,0.4s0.5,0.1,0.7,0.1    c0.2,0,0.5,0,0.7-0.1c0.2-0.1,0.4-0.2,0.6-0.3c0.2-0.1,0.3-0.2,0.4-0.3c0.1-0.1,0.2-0.2,0.3-0.3h0.2v1.7c-0.2,0.1-0.4,0.2-0.5,0.2    s-0.3,0.1-0.5,0.2c-0.2,0.1-0.5,0.1-0.7,0.2S117.8,301.3,117.4,301.3z"/> 		<path style="fill:#1A171B;" d="M126.6,298.7h-4c0,0.4,0.2,0.8,0.5,1s0.7,0.3,1.3,0.3c0.4,0,0.7-0.1,1.1-0.2s0.6-0.3,0.8-0.4h0.2    v1.4c-0.4,0.2-0.8,0.3-1.1,0.3s-0.7,0.1-1.2,0.1c-1.1,0-1.9-0.2-2.5-0.7s-0.9-1.2-0.9-2.1c0-0.9,0.3-1.6,0.8-2.2    c0.6-0.5,1.3-0.8,2.3-0.8c0.9,0,1.6,0.2,2,0.7c0.4,0.5,0.7,1.1,0.7,1.9V298.7z M124.9,297.7c0-0.4-0.1-0.6-0.3-0.8    s-0.4-0.3-0.8-0.3c-0.3,0-0.6,0.1-0.8,0.3s-0.3,0.5-0.4,0.8H124.9z"/> 		<path style="fill:#1A171B;" d="M133.4,301.1h-1.8v-2.7c0-0.2,0-0.4,0-0.7s-0.1-0.4-0.1-0.5c-0.1-0.1-0.2-0.2-0.3-0.3    s-0.3-0.1-0.5-0.1c-0.2,0-0.3,0-0.5,0.1s-0.3,0.1-0.5,0.2v3.9h-1.8v-5.5h1.8v0.6c0.3-0.2,0.6-0.4,0.9-0.6c0.3-0.1,0.6-0.2,1-0.2    c0.6,0,1.1,0.2,1.4,0.5c0.3,0.3,0.5,0.9,0.5,1.5V301.1z"/> 		<path style="fill:#1A171B;" d="M138.5,301.1c-0.2,0-0.4,0.1-0.6,0.1c-0.2,0-0.5,0-0.8,0c-0.7,0-1.2-0.1-1.5-0.4s-0.5-0.8-0.5-1.4    v-2.6h-0.7v-1.2h0.7v-1.6h1.8v1.6h1.6v1.2h-1.6v1.9c0,0.2,0,0.4,0,0.5s0,0.3,0.1,0.4c0,0.1,0.1,0.2,0.2,0.3    c0.1,0.1,0.3,0.1,0.5,0.1c0.1,0,0.2,0,0.4-0.1c0.1,0,0.3-0.1,0.3-0.1h0.1V301.1z"/> 		<path style="fill:#1A171B;" d="M143.5,297.3h-0.2c-0.1,0-0.2,0-0.4-0.1c-0.2,0-0.3,0-0.4,0c-0.3,0-0.5,0-0.7,0    c-0.2,0-0.4,0.1-0.6,0.2v3.7h-1.8v-5.5h1.8v0.8c0.4-0.3,0.7-0.6,1-0.7c0.3-0.1,0.5-0.2,0.8-0.2c0.1,0,0.1,0,0.2,0s0.1,0,0.2,0    V297.3z"/> 		<path style="fill:#1A171B;" d="M147.9,300.6c-0.1,0.1-0.2,0.2-0.4,0.3s-0.3,0.2-0.4,0.2c-0.2,0.1-0.4,0.1-0.5,0.2    c-0.2,0-0.4,0.1-0.6,0.1c-0.5,0-1-0.2-1.3-0.5s-0.5-0.7-0.5-1.2c0-0.4,0.1-0.7,0.3-1s0.4-0.5,0.8-0.6c0.3-0.1,0.7-0.3,1.2-0.3    s1-0.1,1.5-0.1v0c0-0.3-0.1-0.5-0.4-0.6c-0.2-0.1-0.6-0.2-1.1-0.2c-0.3,0-0.6,0.1-0.9,0.2s-0.6,0.2-0.7,0.2h-0.2v-1.3    c0.2,0,0.5-0.1,0.9-0.2c0.4-0.1,0.8-0.1,1.3-0.1c1,0,1.7,0.2,2.2,0.5s0.7,0.8,0.7,1.4v3.7h-1.7V300.6z M147.9,299.7v-1.1    c-0.2,0-0.5,0-0.8,0.1s-0.5,0.1-0.6,0.1c-0.2,0.1-0.3,0.1-0.4,0.2s-0.1,0.2-0.1,0.4c0,0.1,0,0.2,0,0.3s0.1,0.1,0.1,0.2    c0.1,0.1,0.2,0.1,0.3,0.1c0.1,0,0.3,0,0.5,0c0.2,0,0.4,0,0.5-0.1C147.6,299.9,147.7,299.8,147.9,299.7z"/> 		<path style="fill:#1A171B;" d="M153,301.1h-1.8v-7.6h1.8V301.1z"/> 	</g> 	<g> 		 			<rect x="189.2" y="27.5" transform="matrix(-1 -7.525285e-005 7.525285e-005 -1 495.2621 66.4014)" style="fill-rule:evenodd;clip-rule:evenodd;fill:none;" width="116.9" height="11.5"/> 		<path style="fill:#1A171B;" d="M195.2,35.5c-0.5,0-1-0.1-1.5-0.2s-0.9-0.4-1.2-0.7s-0.6-0.7-0.8-1.2s-0.3-1-0.3-1.6    c0-0.6,0.1-1.1,0.3-1.6s0.4-0.9,0.8-1.2c0.3-0.3,0.7-0.6,1.2-0.7s1-0.3,1.5-0.3c0.3,0,0.6,0,0.8,0.1s0.5,0.1,0.7,0.1    c0.2,0.1,0.4,0.1,0.6,0.2s0.3,0.1,0.5,0.2v1.8h-0.2c-0.1-0.1-0.2-0.2-0.3-0.3s-0.3-0.2-0.5-0.3c-0.2-0.1-0.4-0.2-0.6-0.3    s-0.4-0.1-0.7-0.1c-0.3,0-0.5,0-0.8,0.1c-0.2,0.1-0.5,0.2-0.7,0.4c-0.2,0.2-0.3,0.4-0.5,0.7c-0.1,0.3-0.2,0.7-0.2,1.1    c0,0.5,0.1,0.8,0.2,1.1c0.1,0.3,0.3,0.5,0.5,0.7c0.2,0.2,0.4,0.3,0.7,0.4c0.2,0.1,0.5,0.1,0.7,0.1c0.2,0,0.5,0,0.7-0.1    s0.4-0.2,0.6-0.3c0.2-0.1,0.3-0.2,0.4-0.3s0.2-0.2,0.3-0.3h0.2v1.7c-0.2,0.1-0.4,0.2-0.5,0.2s-0.3,0.1-0.5,0.2    c-0.2,0.1-0.5,0.1-0.7,0.2S195.6,35.5,195.2,35.5z"/> 		<path style="fill:#1A171B;" d="M204.7,32.6c0,0.9-0.3,1.6-0.8,2.1s-1.3,0.8-2.2,0.8s-1.7-0.3-2.2-0.8s-0.8-1.2-0.8-2.1    c0-0.9,0.3-1.6,0.8-2.1s1.3-0.8,2.2-0.8c1,0,1.7,0.3,2.2,0.8S204.7,31.7,204.7,32.6z M202.5,34c0.1-0.1,0.2-0.3,0.3-0.5    s0.1-0.5,0.1-0.8c0-0.3,0-0.6-0.1-0.8s-0.1-0.4-0.2-0.5c-0.1-0.1-0.2-0.2-0.4-0.3s-0.3-0.1-0.5-0.1s-0.3,0-0.5,0.1    s-0.3,0.1-0.4,0.3c-0.1,0.1-0.2,0.3-0.3,0.5s-0.1,0.5-0.1,0.8c0,0.3,0,0.6,0.1,0.8s0.1,0.4,0.2,0.5c0.1,0.1,0.2,0.2,0.4,0.3    s0.3,0.1,0.5,0.1c0.2,0,0.3,0,0.5-0.1S202.4,34.1,202.5,34z"/> 		<path style="fill:#1A171B;" d="M211.3,31.5v3.9h-1.8v-2.7c0-0.3,0-0.5,0-0.7s0-0.3-0.1-0.5s-0.1-0.2-0.3-0.3s-0.3-0.1-0.5-0.1    c-0.2,0-0.3,0-0.5,0.1s-0.3,0.1-0.4,0.2v3.9H206v-5.5h1.8v0.6c0.3-0.2,0.6-0.4,0.9-0.6s0.6-0.2,0.9-0.2c0.4,0,0.7,0.1,1,0.2    s0.5,0.4,0.6,0.7c0.4-0.3,0.7-0.5,1-0.7s0.7-0.3,1-0.3c0.6,0,1,0.2,1.3,0.5s0.5,0.9,0.5,1.5v3.6h-1.8v-2.7c0-0.3,0-0.5,0-0.7    s0-0.3-0.1-0.5c-0.1-0.1-0.1-0.2-0.3-0.3s-0.3-0.1-0.5-0.1c-0.1,0-0.3,0-0.4,0.1S211.5,31.4,211.3,31.5z"/> 		<path style="fill:#1A171B;" d="M219.9,34.8c-0.1,0.1-0.2,0.2-0.4,0.3s-0.3,0.2-0.4,0.2c-0.2,0.1-0.4,0.1-0.5,0.2s-0.4,0.1-0.6,0.1    c-0.5,0-1-0.2-1.3-0.5s-0.5-0.7-0.5-1.2c0-0.4,0.1-0.7,0.3-1s0.4-0.5,0.8-0.6c0.3-0.1,0.7-0.3,1.2-0.3s1-0.1,1.5-0.1v0    c0-0.3-0.1-0.5-0.4-0.6s-0.6-0.2-1.1-0.2c-0.3,0-0.6,0.1-0.9,0.2s-0.6,0.2-0.7,0.2h-0.2V30c0.2,0,0.5-0.1,0.9-0.2s0.8-0.1,1.3-0.1    c1,0,1.7,0.2,2.2,0.5s0.7,0.8,0.7,1.4v3.7h-1.7V34.8z M219.9,33.9v-1.1c-0.2,0-0.5,0-0.8,0.1c-0.3,0-0.5,0.1-0.6,0.1    c-0.2,0.1-0.3,0.1-0.4,0.2s-0.1,0.2-0.1,0.4c0,0.1,0,0.2,0,0.3c0,0.1,0.1,0.1,0.1,0.2c0.1,0.1,0.2,0.1,0.3,0.1s0.3,0,0.5,0    c0.2,0,0.4,0,0.5-0.1S219.7,34,219.9,33.9z"/> 		<path style="fill:#1A171B;" d="M227.2,31.6H227c-0.1,0-0.2,0-0.4-0.1c-0.2,0-0.3,0-0.4,0c-0.3,0-0.5,0-0.7,0    c-0.2,0-0.4,0.1-0.6,0.2v3.7h-1.8v-5.5h1.8v0.8c0.4-0.3,0.7-0.6,1-0.7c0.3-0.1,0.5-0.2,0.8-0.2c0.1,0,0.1,0,0.2,0s0.1,0,0.2,0    V31.6z"/> 		<path style="fill:#1A171B;" d="M231,35.5c-0.5,0-0.9-0.1-1.3-0.2s-0.7-0.3-1-0.5c-0.3-0.2-0.5-0.5-0.7-0.9    c-0.2-0.4-0.2-0.8-0.2-1.3c0-0.5,0.1-1,0.3-1.3s0.4-0.7,0.7-0.9c0.3-0.2,0.6-0.4,1-0.5c0.4-0.1,0.8-0.2,1.2-0.2c0.4,0,0.7,0,1,0.1    c0.3,0.1,0.6,0.2,0.9,0.3v1.5h-0.2c-0.1-0.1-0.2-0.1-0.2-0.2s-0.2-0.2-0.4-0.2c-0.1-0.1-0.3-0.1-0.4-0.2c-0.2,0-0.3-0.1-0.6-0.1    c-0.5,0-0.8,0.1-1.1,0.4s-0.4,0.7-0.4,1.2c0,0.5,0.1,0.9,0.4,1.2c0.3,0.3,0.6,0.4,1.1,0.4c0.2,0,0.4,0,0.6-0.1s0.3-0.1,0.4-0.2    c0.1-0.1,0.2-0.1,0.3-0.2c0.1-0.1,0.2-0.1,0.2-0.2h0.2v1.5c-0.3,0.1-0.6,0.2-0.9,0.3S231.4,35.5,231,35.5z"/> 		<path style="fill:#1A171B;" d="M237.4,34.8c-0.1,0.1-0.2,0.2-0.4,0.3c-0.1,0.1-0.3,0.2-0.4,0.2c-0.2,0.1-0.4,0.1-0.5,0.2    s-0.4,0.1-0.6,0.1c-0.5,0-1-0.2-1.3-0.5s-0.5-0.7-0.5-1.2c0-0.4,0.1-0.7,0.3-1c0.2-0.3,0.4-0.5,0.8-0.6c0.3-0.1,0.7-0.3,1.2-0.3    c0.5-0.1,1-0.1,1.5-0.1v0c0-0.3-0.1-0.5-0.4-0.6c-0.2-0.1-0.6-0.2-1.1-0.2c-0.3,0-0.6,0.1-0.9,0.2c-0.3,0.1-0.6,0.2-0.7,0.2h-0.2    V30c0.2,0,0.5-0.1,0.9-0.2s0.8-0.1,1.3-0.1c1,0,1.7,0.2,2.2,0.5s0.7,0.8,0.7,1.4v3.7h-1.7V34.8z M237.4,33.9v-1.1    c-0.2,0-0.5,0-0.8,0.1c-0.3,0-0.5,0.1-0.6,0.1c-0.2,0.1-0.3,0.1-0.4,0.2s-0.1,0.2-0.1,0.4c0,0.1,0,0.2,0,0.3    c0,0.1,0.1,0.1,0.1,0.2c0.1,0.1,0.2,0.1,0.3,0.1c0.1,0,0.3,0,0.5,0c0.2,0,0.4,0,0.5-0.1S237.3,34,237.4,33.9z"/> 		<path style="fill:#1A171B;" d="M249.5,35.4h-1.8v-0.6c-0.3,0.2-0.6,0.4-0.8,0.5s-0.6,0.2-0.9,0.2c-0.7,0-1.2-0.3-1.6-0.8    c-0.4-0.5-0.6-1.2-0.6-2.1c0-0.5,0.1-0.9,0.2-1.2s0.3-0.7,0.6-0.9c0.2-0.2,0.5-0.4,0.8-0.6s0.6-0.2,0.9-0.2c0.3,0,0.6,0,0.8,0.1    c0.2,0.1,0.4,0.2,0.6,0.3v-2.3h1.8V35.4z M247.7,33.9v-2.7c-0.1-0.1-0.3-0.1-0.4-0.1s-0.3,0-0.4,0c-0.5,0-0.8,0.1-1,0.4    s-0.3,0.7-0.3,1.2c0,0.5,0.1,0.9,0.3,1.2c0.2,0.2,0.5,0.4,0.9,0.4c0.2,0,0.3,0,0.5-0.1C247.4,34,247.6,34,247.7,33.9z"/> 		<path style="fill:#1A171B;" d="M256.6,32.9h-4c0,0.4,0.2,0.8,0.5,1c0.3,0.2,0.7,0.3,1.3,0.3c0.4,0,0.7-0.1,1.1-0.2    s0.6-0.3,0.8-0.4h0.2v1.4c-0.4,0.2-0.8,0.3-1.1,0.3s-0.7,0.1-1.2,0.1c-1.1,0-1.9-0.2-2.5-0.7s-0.9-1.2-0.9-2.1    c0-0.9,0.3-1.6,0.8-2.2c0.6-0.5,1.3-0.8,2.3-0.8c0.9,0,1.6,0.2,2,0.7s0.7,1.1,0.7,1.9V32.9z M254.8,31.9c0-0.4-0.1-0.6-0.3-0.8    s-0.4-0.3-0.8-0.3c-0.3,0-0.6,0.1-0.8,0.3s-0.3,0.5-0.4,0.8H254.8z"/> 		<path style="fill:#1A171B;" d="M263,35.4h-1.8v-7.6h1.8V35.4z"/> 		<path style="fill:#1A171B;" d="M268,34.8c-0.1,0.1-0.2,0.2-0.4,0.3s-0.3,0.2-0.4,0.2c-0.2,0.1-0.4,0.1-0.5,0.2s-0.4,0.1-0.6,0.1    c-0.5,0-1-0.2-1.3-0.5s-0.5-0.7-0.5-1.2c0-0.4,0.1-0.7,0.3-1s0.4-0.5,0.8-0.6c0.3-0.1,0.7-0.3,1.2-0.3s1-0.1,1.5-0.1v0    c0-0.3-0.1-0.5-0.4-0.6s-0.6-0.2-1.1-0.2c-0.3,0-0.6,0.1-0.9,0.2s-0.6,0.2-0.7,0.2h-0.2V30c0.2,0,0.5-0.1,0.9-0.2    c0.4-0.1,0.8-0.1,1.3-0.1c1,0,1.7,0.2,2.2,0.5s0.7,0.8,0.7,1.4v3.7H268V34.8z M268,33.9v-1.1c-0.2,0-0.5,0-0.8,0.1    c-0.3,0-0.5,0.1-0.6,0.1c-0.2,0.1-0.3,0.1-0.4,0.2s-0.1,0.2-0.1,0.4c0,0.1,0,0.2,0,0.3c0,0.1,0.1,0.1,0.1,0.2    c0.1,0.1,0.2,0.1,0.3,0.1s0.3,0,0.5,0c0.2,0,0.4,0,0.5-0.1S267.8,34,268,33.9z"/> 		<path style="fill:#1A171B;" d="M280.7,33.1c0,0.7-0.3,1.3-0.9,1.7c-0.6,0.4-1.4,0.7-2.5,0.7c-0.6,0-1.1-0.1-1.6-0.2    c-0.4-0.1-0.9-0.2-1.3-0.4v-1.7h0.2c0.4,0.3,0.8,0.5,1.3,0.7c0.5,0.2,0.9,0.2,1.4,0.2c0.1,0,0.3,0,0.4,0s0.3-0.1,0.5-0.1    c0.1-0.1,0.3-0.1,0.4-0.2s0.1-0.2,0.1-0.4c0-0.2-0.1-0.3-0.2-0.4c-0.1-0.1-0.3-0.2-0.6-0.3c-0.3-0.1-0.6-0.1-0.9-0.2    c-0.3-0.1-0.6-0.1-0.9-0.2c-0.6-0.2-1.1-0.5-1.3-0.8s-0.4-0.8-0.4-1.3c0-0.7,0.3-1.2,0.9-1.7c0.6-0.4,1.4-0.6,2.3-0.6    c0.5,0,1,0,1.4,0.1c0.5,0.1,0.9,0.2,1.2,0.3v1.7h-0.2c-0.3-0.2-0.7-0.4-1.1-0.6s-0.9-0.2-1.3-0.2c-0.2,0-0.3,0-0.5,0    c-0.2,0-0.3,0.1-0.4,0.1c-0.1,0-0.2,0.1-0.3,0.2s-0.1,0.2-0.1,0.3c0,0.2,0.1,0.3,0.2,0.4s0.4,0.2,0.8,0.3c0.3,0.1,0.5,0.1,0.8,0.2    c0.2,0.1,0.5,0.1,0.8,0.2c0.6,0.2,1,0.4,1.2,0.7C280.5,32.2,280.7,32.6,280.7,33.1z"/> 		<path style="fill:#1A171B;" d="M283.7,29.1h-1.9v-1.3h1.9V29.1z M283.6,35.4h-1.8v-5.5h1.8V35.4z"/> 		<path style="fill:#1A171B;" d="M290.6,35.4h-1.8v-0.6c-0.3,0.2-0.6,0.4-0.8,0.5s-0.6,0.2-0.9,0.2c-0.7,0-1.2-0.3-1.6-0.8    c-0.4-0.5-0.6-1.2-0.6-2.1c0-0.5,0.1-0.9,0.2-1.2s0.3-0.7,0.6-0.9c0.2-0.2,0.5-0.4,0.8-0.6s0.6-0.2,0.9-0.2c0.3,0,0.6,0,0.8,0.1    c0.2,0.1,0.4,0.2,0.6,0.3v-2.3h1.8V35.4z M288.8,33.9v-2.7c-0.1-0.1-0.3-0.1-0.4-0.1s-0.3,0-0.4,0c-0.5,0-0.8,0.1-1,0.4    s-0.3,0.7-0.3,1.2c0,0.5,0.1,0.9,0.3,1.2c0.2,0.2,0.5,0.4,0.9,0.4c0.2,0,0.3,0,0.5-0.1C288.5,34,288.7,34,288.8,33.9z"/> 		<path style="fill:#1A171B;" d="M296.2,31.6h-0.2c-0.1,0-0.2,0-0.4-0.1s-0.3,0-0.4,0c-0.3,0-0.5,0-0.7,0c-0.2,0-0.4,0.1-0.6,0.2    v3.7h-1.8v-5.5h1.8v0.8c0.4-0.3,0.7-0.6,1-0.7c0.3-0.1,0.5-0.2,0.8-0.2c0.1,0,0.1,0,0.2,0c0.1,0,0.1,0,0.2,0V31.6z"/> 		<path style="fill:#1A171B;" d="M300.5,34.8c-0.1,0.1-0.2,0.2-0.4,0.3s-0.3,0.2-0.4,0.2c-0.2,0.1-0.4,0.1-0.5,0.2s-0.4,0.1-0.6,0.1    c-0.5,0-1-0.2-1.3-0.5s-0.5-0.7-0.5-1.2c0-0.4,0.1-0.7,0.3-1s0.4-0.5,0.8-0.6c0.3-0.1,0.7-0.3,1.2-0.3s1-0.1,1.5-0.1v0    c0-0.3-0.1-0.5-0.4-0.6s-0.6-0.2-1.1-0.2c-0.3,0-0.6,0.1-0.9,0.2s-0.6,0.2-0.7,0.2h-0.2V30c0.2,0,0.5-0.1,0.9-0.2    c0.4-0.1,0.8-0.1,1.3-0.1c1,0,1.7,0.2,2.2,0.5s0.7,0.8,0.7,1.4v3.7h-1.7V34.8z M300.5,33.9v-1.1c-0.2,0-0.5,0-0.8,0.1    c-0.3,0-0.5,0.1-0.6,0.1c-0.2,0.1-0.3,0.1-0.4,0.2s-0.1,0.2-0.1,0.4c0,0.1,0,0.2,0,0.3c0,0.1,0.1,0.1,0.1,0.2    c0.1,0.1,0.2,0.1,0.3,0.1s0.3,0,0.5,0c0.2,0,0.4,0,0.5-0.1S300.4,34,300.5,33.9z"/> 	</g> 	<g> 		 			<rect x="47.1" y="44.7" transform="matrix(-1 -7.453759e-005 7.453759e-005 -1 198.8551 100.7887)" style="fill-rule:evenodd;clip-rule:evenodd;fill:none;" width="104.6" height="11.5"/> 		<path style="fill:#1A171B;" d="M53.7,53.3c-0.5,0-1-0.1-1.5-0.2s-0.9-0.4-1.2-0.7s-0.6-0.7-0.8-1.2s-0.3-1-0.3-1.6    c0-0.6,0.1-1.1,0.3-1.6s0.4-0.9,0.8-1.2c0.3-0.3,0.7-0.6,1.2-0.7s1-0.3,1.5-0.3c0.3,0,0.6,0,0.8,0.1s0.5,0.1,0.7,0.1    c0.2,0.1,0.4,0.1,0.6,0.2s0.3,0.1,0.5,0.2l0,1.8h-0.2c-0.1-0.1-0.2-0.2-0.3-0.3s-0.3-0.2-0.5-0.3c-0.2-0.1-0.4-0.2-0.6-0.3    s-0.4-0.1-0.7-0.1c-0.3,0-0.5,0-0.8,0.1c-0.2,0.1-0.5,0.2-0.7,0.4c-0.2,0.2-0.3,0.4-0.5,0.7C52,48.7,52,49.1,52,49.5    c0,0.5,0.1,0.8,0.2,1.1c0.1,0.3,0.3,0.5,0.5,0.7c0.2,0.2,0.4,0.3,0.7,0.4c0.2,0.1,0.5,0.1,0.7,0.1c0.2,0,0.5,0,0.7-0.1    s0.4-0.2,0.6-0.3c0.2-0.1,0.3-0.2,0.4-0.3s0.2-0.2,0.3-0.3h0.2v1.7c-0.2,0.1-0.4,0.2-0.5,0.2s-0.3,0.1-0.5,0.2    c-0.2,0.1-0.5,0.1-0.7,0.2S54.1,53.3,53.7,53.3z"/> 		<path style="fill:#1A171B;" d="M63.2,50.4c0,0.9-0.3,1.6-0.8,2.1s-1.3,0.8-2.2,0.8c-1,0-1.7-0.3-2.2-0.8s-0.8-1.2-0.8-2.1    c0-0.9,0.3-1.6,0.8-2.1s1.3-0.8,2.2-0.8c1,0,1.7,0.3,2.2,0.8S63.2,49.5,63.2,50.4z M61,51.7c0.1-0.1,0.2-0.3,0.3-0.5    s0.1-0.5,0.1-0.8c0-0.3,0-0.6-0.1-0.8s-0.1-0.4-0.2-0.5c-0.1-0.1-0.2-0.2-0.4-0.3c-0.1-0.1-0.3-0.1-0.5-0.1s-0.3,0-0.5,0.1    s-0.3,0.1-0.4,0.3c-0.1,0.1-0.2,0.3-0.3,0.5S59,50.1,59,50.4c0,0.3,0,0.6,0.1,0.8s0.1,0.4,0.2,0.5c0.1,0.1,0.2,0.2,0.4,0.3    s0.3,0.1,0.5,0.1c0.2,0,0.3,0,0.5-0.1C60.8,51.9,60.9,51.9,61,51.7z"/> 		<path style="fill:#1A171B;" d="M69.8,49.2v3.9H68v-2.7c0-0.3,0-0.5,0-0.7s0-0.3-0.1-0.5s-0.1-0.2-0.3-0.3    c-0.1-0.1-0.3-0.1-0.5-0.1c-0.2,0-0.3,0-0.5,0.1s-0.3,0.1-0.4,0.2v3.9h-1.8v-5.5h1.8v0.6c0.3-0.2,0.6-0.4,0.9-0.6s0.6-0.2,0.9-0.2    c0.4,0,0.7,0.1,1,0.2s0.5,0.4,0.6,0.7c0.4-0.3,0.7-0.5,1-0.7s0.7-0.3,1-0.3c0.6,0,1,0.2,1.3,0.5s0.5,0.9,0.5,1.5v3.6h-1.8v-2.7    c0-0.3,0-0.5,0-0.7s0-0.3-0.1-0.5c-0.1-0.1-0.1-0.2-0.3-0.3s-0.3-0.1-0.5-0.1c-0.1,0-0.3,0-0.4,0.1S70,49.1,69.8,49.2z"/> 		<path style="fill:#1A171B;" d="M78.4,52.6c-0.1,0.1-0.2,0.2-0.4,0.3s-0.3,0.2-0.4,0.2c-0.2,0.1-0.4,0.1-0.5,0.2s-0.4,0.1-0.6,0.1    c-0.5,0-1-0.2-1.3-0.5s-0.5-0.7-0.5-1.2c0-0.4,0.1-0.7,0.3-1s0.4-0.5,0.8-0.6c0.3-0.1,0.7-0.3,1.2-0.3s1-0.1,1.5-0.1v0    c0-0.3-0.1-0.5-0.4-0.6s-0.6-0.2-1.1-0.2c-0.3,0-0.6,0.1-0.9,0.2s-0.6,0.2-0.7,0.2h-0.2v-1.3c0.2,0,0.5-0.1,0.9-0.2    s0.8-0.1,1.3-0.1c1,0,1.7,0.2,2.2,0.5s0.7,0.8,0.7,1.4v3.7h-1.7V52.6z M78.4,51.7v-1.1c-0.2,0-0.5,0-0.8,0.1    c-0.3,0-0.5,0.1-0.6,0.1c-0.2,0.1-0.3,0.1-0.4,0.2s-0.1,0.2-0.1,0.4c0,0.1,0,0.2,0,0.3c0,0.1,0.1,0.1,0.1,0.2    c0.1,0.1,0.2,0.1,0.3,0.1s0.3,0,0.5,0c0.2,0,0.4,0,0.5-0.1S78.2,51.8,78.4,51.7z"/> 		<path style="fill:#1A171B;" d="M85.7,49.3h-0.2c-0.1,0-0.2,0-0.4-0.1c-0.2,0-0.3,0-0.4,0c-0.3,0-0.5,0-0.7,0    c-0.2,0-0.4,0.1-0.6,0.2v3.7h-1.8v-5.5h1.8v0.8c0.4-0.3,0.7-0.6,1-0.7c0.3-0.1,0.5-0.2,0.8-0.2c0.1,0,0.1,0,0.2,0s0.1,0,0.2,0    V49.3z"/> 		<path style="fill:#1A171B;" d="M89.5,53.3c-0.5,0-0.9-0.1-1.3-0.2s-0.7-0.3-1-0.5c-0.3-0.2-0.5-0.5-0.7-0.9s-0.2-0.8-0.2-1.3    c0-0.5,0.1-1,0.3-1.3s0.4-0.7,0.7-0.9c0.3-0.2,0.6-0.4,1-0.5c0.4-0.1,0.8-0.2,1.2-0.2c0.4,0,0.7,0,1,0.1s0.6,0.2,0.9,0.3v1.5h-0.2    c-0.1-0.1-0.2-0.1-0.2-0.2c-0.1-0.1-0.2-0.2-0.4-0.2c-0.1-0.1-0.3-0.1-0.4-0.2s-0.3-0.1-0.6-0.1c-0.5,0-0.8,0.1-1.1,0.4    c-0.3,0.3-0.4,0.7-0.4,1.2c0,0.5,0.1,0.9,0.4,1.2c0.3,0.3,0.6,0.4,1.1,0.4c0.2,0,0.4,0,0.6-0.1c0.2-0.1,0.3-0.1,0.4-0.2    c0.1-0.1,0.2-0.1,0.3-0.2c0.1-0.1,0.2-0.1,0.2-0.2h0.2v1.5c-0.3,0.1-0.6,0.2-0.9,0.3S89.9,53.3,89.5,53.3z"/> 		<path style="fill:#1A171B;" d="M95.9,52.6c-0.1,0.1-0.2,0.2-0.4,0.3c-0.1,0.1-0.3,0.2-0.4,0.2c-0.2,0.1-0.4,0.1-0.5,0.2    s-0.4,0.1-0.6,0.1c-0.5,0-1-0.2-1.3-0.5s-0.5-0.7-0.5-1.2c0-0.4,0.1-0.7,0.3-1s0.4-0.5,0.8-0.6c0.3-0.1,0.7-0.3,1.2-0.3    s1-0.1,1.5-0.1v0c0-0.3-0.1-0.5-0.4-0.6c-0.2-0.1-0.6-0.2-1.1-0.2c-0.3,0-0.6,0.1-0.9,0.2s-0.6,0.2-0.7,0.2h-0.2v-1.3    c0.2,0,0.5-0.1,0.9-0.2s0.8-0.1,1.3-0.1c1,0,1.7,0.2,2.2,0.5s0.7,0.8,0.7,1.4v3.7h-1.7V52.6z M95.9,51.7v-1.1    c-0.2,0-0.5,0-0.8,0.1c-0.3,0-0.5,0.1-0.6,0.1c-0.2,0.1-0.3,0.1-0.4,0.2s-0.1,0.2-0.1,0.4c0,0.1,0,0.2,0,0.3    c0,0.1,0.1,0.1,0.1,0.2c0.1,0.1,0.2,0.1,0.3,0.1s0.3,0,0.5,0c0.2,0,0.4,0,0.5-0.1S95.8,51.8,95.9,51.7z"/> 		<path style="fill:#1A171B;" d="M108,53.1h-1.8v-0.6c-0.3,0.2-0.6,0.4-0.8,0.5s-0.6,0.2-0.9,0.2c-0.7,0-1.2-0.3-1.6-0.8    c-0.4-0.5-0.6-1.2-0.6-2.1c0-0.5,0.1-0.9,0.2-1.2c0.1-0.4,0.3-0.7,0.6-0.9c0.2-0.2,0.5-0.4,0.8-0.6s0.6-0.2,0.9-0.2    c0.3,0,0.6,0,0.8,0.1c0.2,0.1,0.4,0.2,0.6,0.3l0-2.3h1.8L108,53.1z M106.2,51.6v-2.7c-0.1-0.1-0.3-0.1-0.4-0.1c-0.1,0-0.3,0-0.4,0    c-0.5,0-0.8,0.1-1,0.4s-0.3,0.7-0.3,1.2c0,0.5,0.1,0.9,0.3,1.2c0.2,0.2,0.5,0.4,0.9,0.4c0.2,0,0.3,0,0.5-0.1    C105.9,51.8,106.1,51.7,106.2,51.6z"/> 		<path style="fill:#1A171B;" d="M115.1,50.7h-4c0,0.4,0.2,0.8,0.5,1s0.7,0.3,1.3,0.3c0.4,0,0.7-0.1,1.1-0.2s0.6-0.3,0.8-0.4h0.2    v1.4c-0.4,0.2-0.8,0.3-1.1,0.3s-0.7,0.1-1.2,0.1c-1.1,0-1.9-0.2-2.5-0.7c-0.6-0.5-0.9-1.2-0.9-2.1c0-0.9,0.3-1.6,0.8-2.2    c0.6-0.5,1.3-0.8,2.3-0.8c0.9,0,1.6,0.2,2,0.7s0.7,1.1,0.7,1.9V50.7z M113.3,49.7c0-0.4-0.1-0.6-0.3-0.8s-0.4-0.3-0.8-0.3    c-0.3,0-0.6,0.1-0.8,0.3s-0.3,0.5-0.4,0.8H113.3z"/> 		<path style="fill:#1A171B;" d="M118.1,53.1l-1.8,0l0-7.6l1.8,0L118.1,53.1z"/> 		<path style="fill:#1A171B;" d="M129.8,53.1H128l-3.1-5v5l-1.7,0l0-7.3l2.2,0l2.7,4.2l0-4.2h1.7L129.8,53.1z"/> 		<path style="fill:#1A171B;" d="M137.2,50.4c0,0.9-0.3,1.6-0.8,2.1s-1.3,0.8-2.2,0.8s-1.7-0.3-2.2-0.8s-0.8-1.2-0.8-2.1    c0-0.9,0.3-1.6,0.8-2.1s1.3-0.8,2.2-0.8c1,0,1.7,0.3,2.2,0.8S137.2,49.5,137.2,50.4z M135,51.7c0.1-0.1,0.2-0.3,0.3-0.5    s0.1-0.5,0.1-0.8c0-0.3,0-0.6-0.1-0.8s-0.1-0.4-0.2-0.5c-0.1-0.1-0.2-0.2-0.4-0.3s-0.3-0.1-0.5-0.1s-0.3,0-0.5,0.1    s-0.3,0.1-0.4,0.3c-0.1,0.1-0.2,0.3-0.3,0.5s-0.1,0.5-0.1,0.8c0,0.3,0,0.6,0.1,0.8s0.1,0.4,0.2,0.5c0.1,0.1,0.2,0.2,0.4,0.3    s0.3,0.1,0.5,0.1c0.2,0,0.3,0,0.5-0.1S134.9,51.9,135,51.7z"/> 		<path style="fill:#1A171B;" d="M142.4,49.3h-0.2c-0.1,0-0.2,0-0.4-0.1c-0.2,0-0.3,0-0.4,0c-0.3,0-0.5,0-0.7,0    c-0.2,0-0.4,0.1-0.6,0.2v3.7h-1.8v-5.5h1.8v0.8c0.4-0.3,0.7-0.6,1-0.7c0.3-0.1,0.5-0.2,0.8-0.2c0.1,0,0.1,0,0.2,0s0.1,0,0.2,0    V49.3z"/> 		<path style="fill:#1A171B;" d="M146.8,52.6c-0.1,0.1-0.2,0.2-0.4,0.3s-0.3,0.2-0.4,0.2c-0.2,0.1-0.4,0.1-0.5,0.2s-0.4,0.1-0.6,0.1    c-0.5,0-1-0.2-1.3-0.5s-0.5-0.7-0.5-1.2c0-0.4,0.1-0.7,0.3-1s0.4-0.5,0.8-0.6c0.3-0.1,0.7-0.3,1.2-0.3s1-0.1,1.5-0.1v0    c0-0.3-0.1-0.5-0.4-0.6s-0.6-0.2-1.1-0.2c-0.3,0-0.6,0.1-0.9,0.2c-0.3,0.1-0.6,0.2-0.7,0.2h-0.2v-1.3c0.2,0,0.5-0.1,0.9-0.2    c0.4-0.1,0.8-0.1,1.3-0.1c1,0,1.7,0.2,2.2,0.5s0.7,0.8,0.7,1.4v3.7h-1.7V52.6z M146.8,51.7v-1.1c-0.2,0-0.5,0-0.8,0.1    c-0.3,0-0.5,0.1-0.6,0.1c-0.2,0.1-0.3,0.1-0.4,0.2s-0.1,0.2-0.1,0.4c0,0.1,0,0.2,0,0.3c0,0.1,0.1,0.1,0.1,0.2    c0.1,0.1,0.2,0.1,0.3,0.1s0.3,0,0.5,0c0.2,0,0.4,0,0.5-0.1S146.6,51.8,146.8,51.7z"/> 	</g> 	<g> 		 			<rect x="330.7" y="88.9" transform="matrix(-1 -7.310708e-005 7.310708e-005 -1 775.0048 189.3379)" style="fill-rule:evenodd;clip-rule:evenodd;fill:none;" width="113.6" height="11.5"/> 		<path style="fill:#1A171B;" d="M341.1,93.8c0,1.2-0.3,2.1-1,2.8c-0.7,0.7-1.6,1-2.8,1c-1.2,0-2.1-0.3-2.8-1c-0.7-0.7-1-1.6-1-2.8    c0-1.2,0.3-2.1,1-2.8s1.6-1,2.7-1c1.2,0,2.1,0.3,2.7,1C340.8,91.7,341.1,92.6,341.1,93.8z M338.6,95.6c0.2-0.2,0.3-0.5,0.4-0.8    s0.1-0.7,0.1-1.1c0-0.4-0.1-0.8-0.2-1.1s-0.2-0.6-0.4-0.7c-0.2-0.2-0.4-0.3-0.6-0.4c-0.2-0.1-0.4-0.1-0.7-0.1    c-0.2,0-0.5,0-0.7,0.1s-0.4,0.2-0.6,0.4c-0.2,0.2-0.3,0.4-0.4,0.8s-0.2,0.7-0.2,1.1c0,0.4,0,0.8,0.1,1.1c0.1,0.3,0.2,0.6,0.4,0.7    s0.4,0.3,0.6,0.4s0.4,0.1,0.7,0.1s0.5,0,0.7-0.1S338.5,95.8,338.6,95.6z"/> 		<path style="fill:#1A171B;" d="M346.4,93.6h-0.2c-0.1,0-0.2,0-0.4-0.1s-0.3,0-0.4,0c-0.3,0-0.5,0-0.7,0c-0.2,0-0.4,0.1-0.6,0.2    l0,3.7h-1.8l0-5.5h1.8v0.8c0.4-0.3,0.7-0.6,1-0.7c0.3-0.1,0.5-0.2,0.8-0.2c0.1,0,0.1,0,0.2,0c0.1,0,0.1,0,0.2,0V93.6z"/> 		<path style="fill:#1A171B;" d="M349.2,91.1h-1.9v-1.3h1.9V91.1z M349.2,97.4h-1.8l0-5.5h1.8L349.2,97.4z"/> 		<path style="fill:#1A171B;" d="M356.3,95l-4,0c0,0.4,0.2,0.8,0.5,1c0.3,0.2,0.7,0.3,1.3,0.3c0.4,0,0.7-0.1,1.1-0.2    s0.6-0.3,0.8-0.4h0.2l0,1.4c-0.4,0.2-0.8,0.3-1.1,0.3s-0.7,0.1-1.2,0.1c-1.1,0-1.9-0.2-2.5-0.7c-0.6-0.5-0.9-1.2-0.9-2.1    c0-0.9,0.3-1.6,0.8-2.2c0.6-0.5,1.3-0.8,2.3-0.8c0.9,0,1.6,0.2,2,0.7s0.7,1.1,0.7,1.9V95z M354.5,93.9c0-0.4-0.1-0.6-0.3-0.8    c-0.2-0.2-0.4-0.3-0.8-0.3c-0.3,0-0.6,0.1-0.8,0.3s-0.3,0.5-0.4,0.8L354.5,93.9z"/> 		<path style="fill:#1A171B;" d="M363,97.4h-1.8l0-2.7c0-0.2,0-0.4,0-0.7s-0.1-0.4-0.1-0.5c-0.1-0.1-0.2-0.2-0.3-0.3    c-0.1-0.1-0.3-0.1-0.5-0.1c-0.2,0-0.3,0-0.5,0.1c-0.2,0.1-0.3,0.1-0.5,0.2l0,3.9h-1.8l0-5.5h1.8v0.6c0.3-0.2,0.6-0.4,0.9-0.6    c0.3-0.1,0.6-0.2,1-0.2c0.6,0,1.1,0.2,1.4,0.5s0.5,0.9,0.5,1.5L363,97.4z"/> 		<path style="fill:#1A171B;" d="M368.1,97.3c-0.2,0-0.4,0.1-0.6,0.1c-0.2,0-0.5,0-0.8,0c-0.7,0-1.2-0.1-1.5-0.4s-0.5-0.8-0.5-1.4    v-2.6H364v-1.2h0.7v-1.6h1.8v1.6l1.6,0v1.2l-1.6,0v1.9c0,0.2,0,0.4,0,0.5c0,0.1,0,0.3,0.1,0.4c0,0.1,0.1,0.2,0.2,0.3    c0.1,0.1,0.3,0.1,0.5,0.1c0.1,0,0.2,0,0.4-0.1s0.3-0.1,0.3-0.1l0.1,0L368.1,97.3z"/> 		<path style="fill:#1A171B;" d="M374.6,95h-4c0,0.4,0.2,0.8,0.5,1c0.3,0.2,0.7,0.3,1.3,0.3c0.4,0,0.7-0.1,1.1-0.2s0.6-0.3,0.8-0.4    h0.2l0,1.4c-0.4,0.2-0.8,0.3-1.1,0.3s-0.7,0.1-1.2,0.1c-1.1,0-1.9-0.2-2.5-0.7c-0.6-0.5-0.9-1.2-0.9-2.1c0-0.9,0.3-1.6,0.8-2.2    c0.6-0.5,1.3-0.8,2.3-0.8c0.9,0,1.6,0.2,2,0.7s0.7,1.1,0.7,1.9V95z M372.8,94c0-0.4-0.1-0.6-0.3-0.8s-0.4-0.3-0.8-0.3    c-0.3,0-0.6,0.1-0.8,0.3s-0.3,0.5-0.4,0.8H372.8z"/> 		<path style="fill:#1A171B;" d="M384.6,97.4h-1.8l0-0.6c-0.3,0.2-0.6,0.4-0.8,0.5c-0.3,0.1-0.6,0.2-0.9,0.2c-0.7,0-1.2-0.3-1.6-0.8    c-0.4-0.5-0.6-1.2-0.6-2.1c0-0.5,0.1-0.9,0.2-1.2s0.3-0.7,0.6-0.9c0.2-0.2,0.5-0.4,0.8-0.6s0.6-0.2,0.9-0.2c0.3,0,0.6,0,0.8,0.1    c0.2,0.1,0.4,0.2,0.6,0.3v-2.3h1.8L384.6,97.4z M382.8,95.9v-2.7c-0.1-0.1-0.3-0.1-0.4-0.1s-0.3,0-0.4,0c-0.5,0-0.8,0.1-1,0.4    s-0.3,0.7-0.3,1.2c0,0.5,0.1,0.9,0.3,1.2c0.2,0.2,0.5,0.4,0.9,0.4c0.2,0,0.3,0,0.5-0.1C382.5,96.1,382.7,96,382.8,95.9z"/> 		<path style="fill:#1A171B;" d="M391.6,95l-4,0c0,0.4,0.2,0.8,0.5,1c0.3,0.2,0.7,0.3,1.3,0.3c0.4,0,0.7-0.1,1.1-0.2    s0.6-0.3,0.8-0.4h0.2l0,1.4c-0.4,0.2-0.8,0.3-1.1,0.3s-0.7,0.1-1.2,0.1c-1.1,0-1.9-0.2-2.5-0.7c-0.6-0.5-0.9-1.2-0.9-2.1    c0-0.9,0.3-1.6,0.8-2.2c0.6-0.5,1.3-0.8,2.3-0.8c0.9,0,1.6,0.2,2,0.7s0.7,1.1,0.7,1.9V95z M389.9,94c0-0.4-0.1-0.6-0.3-0.8    s-0.4-0.3-0.8-0.3c-0.3,0-0.6,0.1-0.8,0.3s-0.3,0.5-0.4,0.8L389.9,94z"/> 		<path style="fill:#1A171B;" d="M403.1,97.4l-1.9,0l-0.5-1.5H398l-0.5,1.5l-1.9,0l2.7-7.3h2.2L403.1,97.4z M400.2,94.6l-0.9-2.6    l-0.9,2.6H400.2z"/> 		<path style="fill:#1A171B;" d="M408.8,95.7c0,0.6-0.3,1-0.8,1.4c-0.5,0.3-1.2,0.5-2.1,0.5c-0.5,0-0.9,0-1.3-0.1s-0.7-0.2-1-0.3    l0-1.4h0.2c0.1,0.1,0.2,0.1,0.3,0.2c0.1,0.1,0.3,0.2,0.5,0.2c0.2,0.1,0.4,0.1,0.6,0.2s0.5,0.1,0.7,0.1c0.3,0,0.6,0,0.8-0.1    s0.2-0.2,0.2-0.3c0-0.1,0-0.2-0.1-0.3s-0.3-0.1-0.6-0.2c-0.1,0-0.3-0.1-0.5-0.1c-0.2,0-0.4-0.1-0.6-0.1c-0.5-0.1-0.9-0.3-1.1-0.6    s-0.4-0.6-0.4-1c0-0.5,0.3-1,0.7-1.3c0.5-0.4,1.2-0.5,2-0.5c0.4,0,0.8,0,1.2,0.1s0.7,0.2,0.9,0.3v1.4h-0.2    c-0.3-0.2-0.6-0.3-0.9-0.4c-0.3-0.1-0.7-0.2-1-0.2c-0.3,0-0.5,0-0.7,0.1c-0.2,0.1-0.3,0.2-0.3,0.3c0,0.1,0,0.2,0.1,0.3    s0.3,0.1,0.6,0.2c0.2,0,0.4,0.1,0.6,0.1c0.2,0,0.4,0.1,0.6,0.1c0.5,0.1,0.8,0.3,1,0.6S408.8,95.3,408.8,95.7z"/> 		<path style="fill:#1A171B;" d="M413.5,97.4c-0.2,0-0.4,0.1-0.6,0.1c-0.2,0-0.5,0-0.8,0c-0.7,0-1.2-0.1-1.5-0.4s-0.5-0.8-0.5-1.4    v-2.6l-0.7,0v-1.2l0.7,0v-1.6h1.8v1.6h1.6v1.2h-1.6v1.9c0,0.2,0,0.4,0,0.5c0,0.1,0,0.3,0.1,0.4c0,0.1,0.1,0.2,0.2,0.3    c0.1,0.1,0.3,0.1,0.5,0.1c0.1,0,0.2,0,0.4-0.1s0.3-0.1,0.3-0.1h0.1L413.5,97.4z"/> 		<path style="fill:#1A171B;" d="M420,97.4h-1.8l0-0.6c-0.3,0.2-0.6,0.4-0.9,0.6s-0.6,0.2-1,0.2c-0.6,0-1.1-0.2-1.4-0.5    s-0.5-0.9-0.5-1.5v-3.6h1.8v2.7c0,0.3,0,0.5,0,0.7c0,0.2,0.1,0.3,0.1,0.5c0.1,0.1,0.2,0.2,0.3,0.3c0.1,0.1,0.3,0.1,0.5,0.1    c0.1,0,0.3,0,0.5-0.1s0.4-0.1,0.5-0.2v-3.9h1.8L420,97.4z"/> 		<path style="fill:#1A171B;" d="M425.6,93.6h-0.2c-0.1,0-0.2,0-0.4-0.1s-0.3,0-0.4,0c-0.3,0-0.5,0-0.7,0c-0.2,0-0.4,0.1-0.6,0.2    l0,3.7h-1.8l0-5.5h1.8v0.8c0.4-0.3,0.7-0.6,1-0.7c0.3-0.1,0.5-0.2,0.8-0.2c0.1,0,0.1,0,0.2,0c0.1,0,0.1,0,0.2,0V93.6z"/> 		<path style="fill:#1A171B;" d="M428.4,91.1h-1.9v-1.3h1.9V91.1z M428.4,97.4h-1.8l0-5.5h1.8L428.4,97.4z"/> 		<path style="fill:#1A171B;" d="M433.4,96.8c-0.1,0.1-0.2,0.2-0.4,0.3c-0.1,0.1-0.3,0.2-0.4,0.2c-0.2,0.1-0.4,0.1-0.5,0.2    s-0.4,0.1-0.6,0.1c-0.5,0-1-0.2-1.3-0.5c-0.4-0.3-0.5-0.7-0.5-1.2c0-0.4,0.1-0.7,0.3-1s0.4-0.5,0.8-0.6c0.3-0.1,0.7-0.3,1.2-0.3    s1-0.1,1.5-0.1v0c0-0.3-0.1-0.5-0.4-0.6s-0.6-0.2-1.1-0.2c-0.3,0-0.6,0.1-0.9,0.2c-0.3,0.1-0.6,0.2-0.7,0.2h-0.2V92    c0.2,0,0.5-0.1,0.9-0.2c0.4-0.1,0.8-0.1,1.3-0.1c1,0,1.7,0.2,2.2,0.5s0.7,0.8,0.7,1.4l0,3.7h-1.7L433.4,96.8z M433.4,96v-1.1    c-0.2,0-0.5,0-0.8,0.1c-0.3,0-0.5,0.1-0.6,0.1c-0.2,0.1-0.3,0.1-0.4,0.2s-0.1,0.2-0.1,0.4c0,0.1,0,0.2,0,0.3    c0,0.1,0.1,0.1,0.1,0.2c0.1,0.1,0.2,0.1,0.3,0.1s0.3,0,0.5,0c0.2,0,0.4,0,0.5-0.1S433.2,96.1,433.4,96z"/> 		<path style="fill:#1A171B;" d="M441.5,95.7c0,0.6-0.3,1-0.8,1.4c-0.5,0.3-1.2,0.5-2.1,0.5c-0.5,0-0.9,0-1.3-0.1s-0.7-0.2-1-0.3    l0-1.4h0.2c0.1,0.1,0.2,0.1,0.3,0.2c0.1,0.1,0.3,0.2,0.5,0.2c0.2,0.1,0.4,0.1,0.6,0.2c0.2,0.1,0.5,0.1,0.7,0.1    c0.3,0,0.6,0,0.8-0.1s0.2-0.2,0.2-0.3c0-0.1,0-0.2-0.1-0.3s-0.3-0.1-0.6-0.2c-0.1,0-0.3-0.1-0.5-0.1c-0.2,0-0.4-0.1-0.6-0.1    c-0.5-0.1-0.9-0.3-1.1-0.6s-0.4-0.6-0.4-1c0-0.5,0.3-1,0.7-1.3c0.5-0.4,1.2-0.5,2-0.5c0.4,0,0.8,0,1.2,0.1s0.7,0.2,0.9,0.3v1.4    h-0.2c-0.3-0.2-0.6-0.3-0.9-0.4c-0.3-0.1-0.7-0.2-1-0.2c-0.3,0-0.5,0-0.7,0.1c-0.2,0.1-0.3,0.2-0.3,0.3c0,0.1,0,0.2,0.1,0.3    s0.3,0.1,0.6,0.2c0.2,0,0.4,0.1,0.6,0.1c0.2,0,0.4,0.1,0.6,0.1c0.5,0.1,0.8,0.3,1,0.6S441.5,95.3,441.5,95.7z"/> 	</g> 	<g> 		<polygon style="fill-rule:evenodd;clip-rule:evenodd;fill:none;" points="9.3,91.7 49.8,91.7 49.8,114.2 9.3,114.2   "/> 		<path style="fill:#1A171B;" d="M18.1,96.6c0,1.2-0.3,2.1-1,2.8s-1.6,1-2.8,1c-1.2,0-2.1-0.3-2.7-1s-1-1.6-1-2.8    c0-1.2,0.3-2.1,1-2.8s1.6-1,2.7-1c1.2,0,2.1,0.3,2.7,1S18.1,95.4,18.1,96.6z M15.6,98.4c0.2-0.2,0.3-0.5,0.4-0.8s0.1-0.7,0.1-1.1    c0-0.4-0.1-0.8-0.2-1.1s-0.2-0.6-0.4-0.7c-0.2-0.2-0.4-0.3-0.6-0.4s-0.4-0.1-0.7-0.1c-0.2,0-0.5,0-0.7,0.1s-0.4,0.2-0.6,0.4    c-0.2,0.2-0.3,0.4-0.4,0.8s-0.2,0.7-0.2,1.1c0,0.4,0,0.8,0.1,1.1s0.2,0.6,0.4,0.7s0.4,0.3,0.6,0.4s0.4,0.1,0.7,0.1s0.5,0,0.7-0.1    S15.4,98.6,15.6,98.4z"/> 		<path style="fill:#1A171B;" d="M24.9,94.7l-2.1,5.5h-2l-2.1-5.5h1.9l1.3,3.8l1.3-3.8L24.9,94.7z"/> 		<path style="fill:#1A171B;" d="M27.7,93.9h-1.9v-1.3h1.9V93.9z M27.7,100.2h-1.8v-5.5h1.8V100.2z"/> 		<path style="fill:#1A171B;" d="M34.7,97.8h-4c0,0.4,0.2,0.8,0.5,1s0.7,0.3,1.3,0.3c0.4,0,0.7-0.1,1.1-0.2s0.6-0.3,0.8-0.4h0.2v1.4    c-0.4,0.2-0.8,0.3-1.1,0.3s-0.7,0.1-1.2,0.1c-1.1,0-1.9-0.2-2.5-0.7c-0.6-0.5-0.9-1.2-0.9-2.1c0-0.9,0.3-1.6,0.8-2.2    c0.6-0.5,1.3-0.8,2.3-0.8c0.9,0,1.6,0.2,2,0.7s0.7,1.1,0.7,1.9V97.8z M33,96.7c0-0.4-0.1-0.6-0.3-0.8s-0.4-0.3-0.8-0.3    c-0.3,0-0.6,0.1-0.8,0.3s-0.3,0.5-0.4,0.8H33z"/> 		<path style="fill:#1A171B;" d="M41.3,100.2h-1.8v-0.6c-0.3,0.2-0.6,0.4-0.8,0.5s-0.6,0.2-0.9,0.2c-0.7,0-1.2-0.3-1.6-0.8    s-0.6-1.2-0.6-2.1c0-0.5,0.1-0.9,0.2-1.2c0.1-0.4,0.3-0.7,0.6-0.9c0.2-0.2,0.5-0.4,0.8-0.6c0.3-0.1,0.6-0.2,0.9-0.2    c0.3,0,0.6,0,0.8,0.1c0.2,0.1,0.4,0.2,0.6,0.3l0-2.3h1.8L41.3,100.2z M39.5,98.7V96c-0.1-0.1-0.3-0.1-0.4-0.1c-0.1,0-0.3,0-0.4,0    c-0.5,0-0.8,0.1-1,0.4s-0.3,0.7-0.3,1.2c0,0.5,0.1,0.9,0.3,1.2c0.2,0.2,0.5,0.4,0.9,0.4c0.2,0,0.3,0,0.5-0.1    C39.2,98.9,39.4,98.8,39.5,98.7z"/> 		<path style="fill:#1A171B;" d="M48.6,97.5c0,0.9-0.3,1.6-0.8,2.1s-1.3,0.8-2.2,0.8s-1.7-0.3-2.2-0.8s-0.8-1.2-0.8-2.1    c0-0.9,0.3-1.6,0.8-2.1s1.3-0.8,2.2-0.8c1,0,1.7,0.3,2.2,0.8S48.6,96.5,48.6,97.5z M46.4,98.8c0.1-0.1,0.2-0.3,0.3-0.5    s0.1-0.5,0.1-0.8c0-0.3,0-0.6-0.1-0.8s-0.1-0.4-0.2-0.5c-0.1-0.1-0.2-0.2-0.4-0.3s-0.3-0.1-0.5-0.1s-0.3,0-0.5,0.1    s-0.3,0.1-0.4,0.3c-0.1,0.1-0.2,0.3-0.3,0.5s-0.1,0.5-0.1,0.8c0,0.3,0,0.6,0.1,0.8s0.1,0.4,0.2,0.5c0.1,0.1,0.2,0.2,0.4,0.3    s0.3,0.1,0.5,0.1c0.2,0,0.3,0,0.5-0.1S46.3,98.9,46.4,98.8z"/> 		<path style="fill:#1A171B;" d="M14.3,111.3c-0.5,0-1-0.1-1.5-0.2s-0.9-0.4-1.2-0.7s-0.6-0.7-0.8-1.2s-0.3-1-0.3-1.6    c0-0.6,0.1-1.1,0.3-1.6s0.4-0.9,0.8-1.2c0.3-0.3,0.7-0.6,1.2-0.7s1-0.3,1.5-0.3c0.3,0,0.6,0,0.8,0.1s0.5,0.1,0.7,0.1    c0.2,0.1,0.4,0.1,0.6,0.2c0.2,0.1,0.3,0.1,0.5,0.2v1.8h-0.2c-0.1-0.1-0.2-0.2-0.3-0.3c-0.1-0.1-0.3-0.2-0.5-0.3    c-0.2-0.1-0.4-0.2-0.6-0.3s-0.4-0.1-0.7-0.1c-0.3,0-0.5,0-0.8,0.1c-0.2,0.1-0.5,0.2-0.7,0.4c-0.2,0.2-0.3,0.4-0.5,0.7    c-0.1,0.3-0.2,0.7-0.2,1.1c0,0.5,0.1,0.8,0.2,1.1c0.1,0.3,0.3,0.5,0.5,0.7c0.2,0.2,0.4,0.3,0.7,0.4c0.2,0.1,0.5,0.1,0.7,0.1    c0.2,0,0.5,0,0.7-0.1s0.4-0.2,0.6-0.3c0.2-0.1,0.3-0.2,0.4-0.3c0.1-0.1,0.2-0.2,0.3-0.3h0.2v1.7c-0.2,0.1-0.4,0.2-0.5,0.2    c-0.2,0.1-0.3,0.1-0.5,0.2c-0.2,0.1-0.5,0.1-0.7,0.2S14.6,111.3,14.3,111.3z"/> 		<path style="fill:#1A171B;" d="M21.4,110.6c-0.1,0.1-0.2,0.2-0.4,0.3s-0.3,0.2-0.4,0.2c-0.2,0.1-0.4,0.1-0.5,0.2s-0.4,0.1-0.6,0.1    c-0.5,0-1-0.2-1.3-0.5s-0.5-0.7-0.5-1.2c0-0.4,0.1-0.7,0.3-1c0.2-0.3,0.4-0.5,0.8-0.6c0.3-0.1,0.7-0.3,1.2-0.3s1-0.1,1.5-0.1v0    c0-0.3-0.1-0.5-0.4-0.6s-0.6-0.2-1.1-0.2c-0.3,0-0.6,0.1-0.9,0.2s-0.6,0.2-0.7,0.2h-0.2v-1.3c0.2,0,0.5-0.1,0.9-0.2    s0.8-0.1,1.3-0.1c1,0,1.7,0.2,2.2,0.5s0.7,0.8,0.7,1.4l0,3.7h-1.7V110.6z M21.4,109.8v-1.1c-0.2,0-0.5,0-0.8,0.1    c-0.3,0-0.5,0.1-0.6,0.1c-0.2,0.1-0.3,0.1-0.4,0.2s-0.1,0.2-0.1,0.4c0,0.1,0,0.2,0,0.3c0,0.1,0.1,0.1,0.1,0.2    c0.1,0.1,0.2,0.1,0.3,0.1s0.3,0,0.5,0c0.2,0,0.4,0,0.5-0.1S21.3,109.9,21.4,109.8z"/> 		<path style="fill:#1A171B;" d="M30.5,108.4c0,0.5-0.1,0.9-0.2,1.2c-0.1,0.4-0.3,0.7-0.5,0.9c-0.2,0.3-0.5,0.4-0.8,0.6    s-0.6,0.2-1,0.2c-0.3,0-0.6,0-0.8-0.1s-0.4-0.2-0.7-0.3v2.3h-1.8l0-7.5h1.8v0.6c0.3-0.2,0.5-0.4,0.8-0.5s0.6-0.2,1-0.2    c0.7,0,1.2,0.3,1.6,0.8C30.3,106.8,30.5,107.5,30.5,108.4z M28.7,108.4c0-0.5-0.1-0.9-0.3-1.2c-0.2-0.2-0.5-0.4-0.9-0.4    c-0.2,0-0.3,0-0.5,0.1c-0.2,0.1-0.3,0.1-0.5,0.2l0,2.8c0.1,0,0.2,0.1,0.4,0.1c0.1,0,0.3,0,0.4,0c0.5,0,0.8-0.1,1-0.4    C28.6,109.4,28.7,109,28.7,108.4z"/> 		<path style="fill:#1A171B;" d="M33.6,104.9h-1.9v-1.3h1.9V104.9z M33.6,111.2h-1.8l0-5.5h1.8L33.6,111.2z"/> 		<path style="fill:#1A171B;" d="M38.7,111.2c-0.2,0-0.4,0.1-0.6,0.1c-0.2,0-0.5,0-0.8,0c-0.7,0-1.2-0.1-1.5-0.4s-0.5-0.8-0.5-1.4    l0-2.6h-0.7v-1.2h0.7v-1.6h1.8v1.6l1.6,0v1.2l-1.6,0l0,1.9c0,0.2,0,0.4,0,0.5c0,0.1,0,0.3,0.1,0.4c0,0.1,0.1,0.2,0.2,0.3    s0.3,0.1,0.5,0.1c0.1,0,0.2,0,0.4-0.1c0.1,0,0.3-0.1,0.3-0.1h0.1V111.2z"/> 		<path style="fill:#1A171B;" d="M43.1,110.6c-0.1,0.1-0.2,0.2-0.4,0.3s-0.3,0.2-0.4,0.2c-0.2,0.1-0.4,0.1-0.5,0.2s-0.4,0.1-0.6,0.1    c-0.5,0-1-0.2-1.3-0.5s-0.5-0.7-0.5-1.2c0-0.4,0.1-0.7,0.3-1c0.2-0.3,0.4-0.5,0.8-0.6c0.3-0.1,0.7-0.3,1.2-0.3s1-0.1,1.5-0.1v0    c0-0.3-0.1-0.5-0.4-0.6s-0.6-0.2-1.1-0.2c-0.3,0-0.6,0.1-0.9,0.2s-0.6,0.2-0.7,0.2h-0.2v-1.3c0.2,0,0.5-0.1,0.9-0.2    s0.8-0.1,1.3-0.1c1,0,1.7,0.2,2.2,0.5c0.4,0.3,0.7,0.8,0.7,1.4l0,3.7l-1.7,0V110.6z M43.1,109.8v-1.1c-0.2,0-0.5,0-0.8,0.1    c-0.3,0-0.5,0.1-0.6,0.1c-0.2,0.1-0.3,0.1-0.4,0.2s-0.1,0.2-0.1,0.4c0,0.1,0,0.2,0,0.3c0,0.1,0.1,0.1,0.1,0.2    c0.1,0.1,0.2,0.1,0.3,0.1s0.3,0,0.5,0c0.2,0,0.4,0,0.5-0.1S42.9,109.9,43.1,109.8z"/> 		<path style="fill:#1A171B;" d="M48.2,111.2h-1.8l0-7.6h1.8L48.2,111.2z"/> 	</g> </g> <g id="text-municipis"> 	<g> 		<rect x="76.5" y="110.7" style="fill-rule:evenodd;clip-rule:evenodd;fill:none;" width="41.5" height="11"/> 		<path d="M82.1,119.2h-4.6v-7.3h1v6.4h3.6V119.2z"/> 		<path d="M87.2,119.2h-0.9v-0.6c-0.1,0.1-0.2,0.1-0.3,0.2s-0.3,0.2-0.4,0.2c-0.2,0.1-0.3,0.1-0.5,0.2c-0.2,0.1-0.4,0.1-0.7,0.1    c-0.5,0-0.9-0.2-1.3-0.5c-0.3-0.3-0.5-0.7-0.5-1.2c0-0.4,0.1-0.7,0.3-1s0.4-0.5,0.8-0.6c0.3-0.1,0.7-0.2,1.2-0.3s1-0.1,1.5-0.1    v-0.1c0-0.2,0-0.4-0.1-0.5s-0.2-0.2-0.3-0.3c-0.1-0.1-0.3-0.1-0.5-0.2c-0.2,0-0.4,0-0.6,0c-0.2,0-0.5,0-0.8,0.1    c-0.3,0.1-0.6,0.2-0.9,0.3h0v-0.9c0.2,0,0.4-0.1,0.8-0.2s0.7-0.1,1-0.1c0.4,0,0.7,0,1,0.1s0.5,0.2,0.7,0.3    c0.2,0.1,0.4,0.3,0.5,0.6s0.2,0.5,0.2,0.9V119.2z M86.3,117.9v-1.5c-0.3,0-0.6,0-1,0.1c-0.4,0-0.7,0.1-0.9,0.1    c-0.3,0.1-0.5,0.2-0.6,0.3c-0.2,0.2-0.2,0.4-0.2,0.7c0,0.3,0.1,0.5,0.3,0.7c0.2,0.2,0.5,0.2,0.9,0.2c0.3,0,0.6-0.1,0.9-0.2    C85.8,118.2,86.1,118.1,86.3,117.9z"/> 		<path d="M93.5,119.2h-0.9v-3.1c0-0.3,0-0.5,0-0.7s-0.1-0.4-0.2-0.5c-0.1-0.1-0.2-0.2-0.4-0.3s-0.4-0.1-0.6-0.1    c-0.3,0-0.5,0.1-0.8,0.2s-0.5,0.3-0.8,0.5v4.1H89v-5.5h0.9v0.6c0.3-0.2,0.6-0.4,0.9-0.6c0.3-0.1,0.6-0.2,0.9-0.2    c0.6,0,1,0.2,1.3,0.5s0.5,0.9,0.5,1.5V119.2z"/> 		<path d="M99.7,118.6c0,0.9-0.2,1.6-0.6,2s-1.1,0.6-1.9,0.6c-0.3,0-0.6,0-0.8-0.1c-0.3,0-0.5-0.1-0.8-0.2v-0.9h0    c0.1,0.1,0.4,0.1,0.7,0.2c0.3,0.1,0.7,0.1,1,0.1c0.3,0,0.6,0,0.8-0.1s0.4-0.2,0.5-0.3c0.1-0.1,0.2-0.3,0.2-0.5s0.1-0.4,0.1-0.6    v-0.5c-0.3,0.2-0.5,0.4-0.8,0.5c-0.3,0.1-0.6,0.2-1,0.2c-0.7,0-1.2-0.2-1.6-0.7s-0.6-1.1-0.6-2c0-0.5,0.1-0.9,0.2-1.2    s0.3-0.6,0.5-0.9c0.2-0.2,0.5-0.4,0.8-0.5s0.6-0.2,0.9-0.2c0.3,0,0.6,0,0.8,0.1c0.2,0.1,0.4,0.2,0.7,0.3l0.1-0.2h0.9V118.6z     M98.8,117.7v-3c-0.2-0.1-0.5-0.2-0.7-0.2s-0.4-0.1-0.6-0.1c-0.5,0-0.9,0.2-1.2,0.5s-0.4,0.8-0.4,1.5c0,0.6,0.1,1.1,0.3,1.4    s0.6,0.5,1.1,0.5c0.3,0,0.5-0.1,0.8-0.2S98.6,117.9,98.8,117.7z"/> 		<path d="M104.9,114.8L104.9,114.8c-0.2,0-0.3-0.1-0.4-0.1s-0.3,0-0.5,0c-0.3,0-0.6,0.1-0.8,0.2s-0.5,0.3-0.8,0.5v3.9h-0.9v-5.5    h0.9v0.8c0.4-0.3,0.7-0.5,1-0.6s0.6-0.2,0.9-0.2c0.2,0,0.3,0,0.3,0c0.1,0,0.2,0,0.3,0V114.8z"/> 		<path d="M110.4,116.6h-4c0,0.3,0,0.6,0.2,0.9c0.1,0.2,0.2,0.5,0.4,0.6c0.2,0.2,0.4,0.3,0.6,0.4c0.2,0.1,0.5,0.1,0.8,0.1    c0.4,0,0.7-0.1,1.1-0.2c0.4-0.1,0.6-0.3,0.8-0.4h0v1c-0.3,0.1-0.6,0.2-0.9,0.3s-0.7,0.1-1,0.1c-0.9,0-1.6-0.2-2.1-0.7    c-0.5-0.5-0.8-1.2-0.8-2.1c0-0.9,0.2-1.6,0.7-2.1s1.1-0.8,1.9-0.8c0.7,0,1.3,0.2,1.7,0.6c0.4,0.4,0.6,1,0.6,1.8V116.6z     M109.5,115.9c0-0.5-0.1-0.9-0.4-1.1c-0.2-0.3-0.6-0.4-1.1-0.4c-0.5,0-0.9,0.1-1.2,0.4c-0.3,0.3-0.5,0.6-0.5,1.1H109.5z"/> 		<path d="M116.4,116.5c0,0.9-0.2,1.6-0.7,2.1s-1.1,0.8-1.8,0.8c-0.8,0-1.4-0.3-1.8-0.8s-0.7-1.2-0.7-2.1s0.2-1.6,0.7-2.1    s1.1-0.8,1.8-0.8c0.8,0,1.4,0.3,1.8,0.8S116.4,115.6,116.4,116.5z M115.5,116.5c0-0.7-0.1-1.2-0.4-1.6c-0.3-0.3-0.7-0.5-1.2-0.5    c-0.5,0-0.9,0.2-1.2,0.5c-0.3,0.3-0.4,0.9-0.4,1.6c0,0.7,0.1,1.2,0.4,1.6c0.3,0.4,0.7,0.5,1.2,0.5c0.5,0,0.9-0.2,1.2-0.5    C115.3,117.7,115.5,117.2,115.5,116.5z"/> 	</g> 	<g> 		<rect x="133.2" y="134.7" style="fill-rule:evenodd;clip-rule:evenodd;fill:none;" width="76.6" height="21"/> 		<path d="M139.4,141.1c0,0.3-0.1,0.6-0.2,0.8s-0.3,0.5-0.6,0.7c-0.3,0.2-0.6,0.4-0.9,0.5c-0.3,0.1-0.8,0.2-1.3,0.2    c-0.5,0-1,0-1.4-0.1c-0.4-0.1-0.8-0.2-1.3-0.4v-1.2h0.1c0.4,0.3,0.8,0.5,1.3,0.7c0.5,0.2,0.9,0.2,1.4,0.2c0.6,0,1.1-0.1,1.4-0.3    c0.3-0.2,0.5-0.5,0.5-0.9c0-0.3-0.1-0.6-0.2-0.7c-0.2-0.2-0.4-0.3-0.7-0.4c-0.2-0.1-0.5-0.1-0.8-0.2s-0.6-0.1-0.9-0.2    c-0.6-0.1-1.1-0.4-1.4-0.7s-0.5-0.8-0.5-1.3c0-0.6,0.3-1.1,0.8-1.5s1.2-0.6,2-0.6c0.5,0,1,0,1.4,0.1s0.8,0.2,1.1,0.4v1.1h-0.1    c-0.3-0.2-0.6-0.4-1.1-0.6s-0.9-0.2-1.4-0.2c-0.5,0-0.9,0.1-1.2,0.3c-0.3,0.2-0.5,0.5-0.5,0.8c0,0.3,0.1,0.5,0.2,0.7    s0.4,0.3,0.8,0.4c0.2,0,0.5,0.1,0.9,0.2c0.4,0.1,0.7,0.1,1,0.2c0.5,0.1,0.9,0.4,1.2,0.6S139.4,140.6,139.4,141.1z"/> 		<path d="M145.2,143.2h-0.9v-0.6c-0.1,0.1-0.2,0.1-0.3,0.2s-0.3,0.2-0.4,0.2c-0.2,0.1-0.3,0.1-0.5,0.2c-0.2,0.1-0.4,0.1-0.7,0.1    c-0.5,0-0.9-0.2-1.3-0.5c-0.3-0.3-0.5-0.7-0.5-1.2c0-0.4,0.1-0.7,0.3-1s0.4-0.5,0.8-0.6c0.3-0.1,0.7-0.2,1.2-0.3s1-0.1,1.5-0.1    v-0.1c0-0.2,0-0.4-0.1-0.5s-0.2-0.2-0.3-0.3c-0.1-0.1-0.3-0.1-0.5-0.2c-0.2,0-0.4,0-0.6,0c-0.2,0-0.5,0-0.8,0.1    c-0.3,0.1-0.6,0.2-0.9,0.3h0v-0.9c0.2,0,0.4-0.1,0.8-0.2s0.7-0.1,1-0.1c0.4,0,0.7,0,1,0.1s0.5,0.2,0.7,0.3    c0.2,0.1,0.4,0.3,0.5,0.6s0.2,0.5,0.2,0.9V143.2z M144.3,141.9v-1.5c-0.3,0-0.6,0-1,0.1c-0.4,0-0.7,0.1-0.9,0.1    c-0.3,0.1-0.5,0.2-0.6,0.3c-0.2,0.2-0.2,0.4-0.2,0.7c0,0.3,0.1,0.5,0.3,0.7c0.2,0.2,0.5,0.2,0.9,0.2c0.3,0,0.6-0.1,0.9-0.2    C143.8,142.2,144,142,144.3,141.9z"/> 		<path d="M151.5,143.2h-0.9v-3.1c0-0.3,0-0.5,0-0.7s-0.1-0.4-0.2-0.5c-0.1-0.1-0.2-0.2-0.4-0.3s-0.4-0.1-0.6-0.1    c-0.3,0-0.5,0.1-0.8,0.2s-0.5,0.3-0.8,0.5v4.1h-0.9v-5.5h0.9v0.6c0.3-0.2,0.6-0.4,0.9-0.6c0.3-0.1,0.6-0.2,0.9-0.2    c0.6,0,1,0.2,1.3,0.5s0.5,0.9,0.5,1.5V143.2z"/> 		<path d="M163.3,143.2h-1v-6.3l-2,4.3h-0.6l-2-4.3v6.3h-0.9v-7.3h1.3l1.9,4l1.9-4h1.3V143.2z"/> 		<path d="M169.5,143.2h-0.9v-0.6c-0.1,0.1-0.2,0.1-0.3,0.2s-0.3,0.2-0.4,0.2c-0.2,0.1-0.3,0.1-0.5,0.2c-0.2,0.1-0.4,0.1-0.7,0.1    c-0.5,0-0.9-0.2-1.3-0.5c-0.3-0.3-0.5-0.7-0.5-1.2c0-0.4,0.1-0.7,0.3-1s0.4-0.5,0.8-0.6c0.3-0.1,0.7-0.2,1.2-0.3s1-0.1,1.5-0.1    v-0.1c0-0.2,0-0.4-0.1-0.5s-0.2-0.2-0.3-0.3c-0.1-0.1-0.3-0.1-0.5-0.2c-0.2,0-0.4,0-0.6,0c-0.2,0-0.5,0-0.8,0.1    c-0.3,0.1-0.6,0.2-0.9,0.3h0v-0.9c0.2,0,0.4-0.1,0.8-0.2s0.7-0.1,1-0.1c0.4,0,0.7,0,1,0.1s0.5,0.2,0.7,0.3    c0.2,0.1,0.4,0.3,0.5,0.6s0.2,0.5,0.2,0.9V143.2z M168.5,141.9v-1.5c-0.3,0-0.6,0-1,0.1c-0.4,0-0.7,0.1-0.9,0.1    c-0.3,0.1-0.5,0.2-0.6,0.3c-0.2,0.2-0.2,0.4-0.2,0.7c0,0.3,0.1,0.5,0.3,0.7c0.2,0.2,0.5,0.2,0.9,0.2c0.3,0,0.6-0.1,0.9-0.2    C168.1,142.2,168.3,142,168.5,141.9z"/> 		<path d="M174.6,138.8L174.6,138.8c-0.2,0-0.3-0.1-0.4-0.1s-0.3,0-0.5,0c-0.3,0-0.6,0.1-0.8,0.2s-0.5,0.3-0.8,0.5v3.9h-0.9v-5.5    h0.9v0.8c0.4-0.3,0.7-0.5,1-0.6s0.6-0.2,0.9-0.2c0.2,0,0.3,0,0.3,0c0.1,0,0.2,0,0.3,0V138.8z"/> 		<path d="M178.3,143.2c-0.2,0-0.4,0.1-0.6,0.1c-0.2,0-0.4,0-0.5,0c-0.6,0-1-0.1-1.3-0.4c-0.3-0.3-0.4-0.8-0.4-1.4v-2.9h-0.6v-0.8    h0.6v-1.6h0.9v1.6h1.9v0.8h-1.9v2.5c0,0.3,0,0.5,0,0.7c0,0.2,0.1,0.3,0.1,0.5c0.1,0.1,0.2,0.2,0.3,0.3c0.1,0.1,0.3,0.1,0.6,0.1    c0.2,0,0.3,0,0.5-0.1c0.2,0,0.3-0.1,0.4-0.1h0V143.2z"/> 		<path d="M181.4,135l-1.3,1.8h-0.7l0.9-1.8H181.4z M180.4,143.2h-0.9v-5.5h0.9V143.2z"/> 		<path d="M186.7,143.2h-0.9v-3.1c0-0.3,0-0.5,0-0.7s-0.1-0.4-0.2-0.5c-0.1-0.1-0.2-0.2-0.4-0.3s-0.4-0.1-0.6-0.1    c-0.3,0-0.5,0.1-0.8,0.2s-0.5,0.3-0.8,0.5v4.1h-0.9v-5.5h0.9v0.6c0.3-0.2,0.6-0.4,0.9-0.6c0.3-0.1,0.6-0.2,0.9-0.2    c0.6,0,1,0.2,1.3,0.5s0.5,0.9,0.5,1.5V143.2z"/> 		<path d="M138.5,153.2h-0.9v-0.6c-0.3,0.2-0.5,0.4-0.8,0.5c-0.3,0.1-0.6,0.2-0.9,0.2c-0.7,0-1.2-0.3-1.6-0.8s-0.6-1.2-0.6-2.1    c0-0.5,0.1-0.9,0.2-1.2s0.3-0.7,0.5-0.9c0.2-0.2,0.5-0.4,0.8-0.6c0.3-0.1,0.6-0.2,0.9-0.2c0.3,0,0.5,0,0.8,0.1    c0.2,0.1,0.5,0.2,0.7,0.3v-2.4h0.9V153.2z M137.6,151.9v-3.1c-0.2-0.1-0.5-0.2-0.7-0.2s-0.4-0.1-0.6-0.1c-0.5,0-0.9,0.2-1.2,0.5    c-0.3,0.4-0.4,0.9-0.4,1.5c0,0.6,0.1,1.1,0.3,1.5s0.6,0.5,1.1,0.5c0.3,0,0.5-0.1,0.8-0.2C137.1,152.2,137.4,152,137.6,151.9z"/> 		<path d="M144.9,150.6h-4c0,0.3,0,0.6,0.2,0.9c0.1,0.2,0.2,0.5,0.4,0.6c0.2,0.2,0.4,0.3,0.6,0.4c0.2,0.1,0.5,0.1,0.8,0.1    c0.4,0,0.7-0.1,1.1-0.2c0.4-0.1,0.6-0.3,0.8-0.4h0v1c-0.3,0.1-0.6,0.2-0.9,0.3s-0.7,0.1-1,0.1c-0.9,0-1.6-0.2-2.1-0.7    c-0.5-0.5-0.8-1.2-0.8-2.1c0-0.9,0.2-1.6,0.7-2.1s1.1-0.8,1.9-0.8c0.7,0,1.3,0.2,1.7,0.6c0.4,0.4,0.6,1,0.6,1.8V150.6z M144,149.9    c0-0.5-0.1-0.9-0.4-1.1c-0.2-0.3-0.6-0.4-1.1-0.4c-0.5,0-0.9,0.1-1.2,0.4c-0.3,0.3-0.5,0.6-0.5,1.1H144z"/> 		<path d="M147.2,153.2h-0.9v-7.6h0.9V153.2z"/> 		<path d="M158.6,153.2h-1.3l-2.4-2.9h-1.4v2.9h-1v-7.3h2c0.4,0,0.8,0,1.1,0.1s0.6,0.2,0.8,0.3c0.3,0.2,0.5,0.4,0.6,0.6    s0.2,0.6,0.2,1c0,0.5-0.1,1-0.4,1.3c-0.3,0.4-0.6,0.6-1.1,0.8L158.6,153.2z M156.4,148c0-0.2,0-0.4-0.1-0.6s-0.2-0.3-0.4-0.4    c-0.1-0.1-0.3-0.2-0.5-0.2c-0.2,0-0.4-0.1-0.7-0.1h-1.1v2.7h1c0.3,0,0.6,0,0.8-0.1c0.2-0.1,0.4-0.2,0.6-0.3    c0.1-0.1,0.3-0.3,0.3-0.5C156.3,148.5,156.4,148.3,156.4,148z"/> 		<path d="M163.9,150.6h-4c0,0.3,0,0.6,0.2,0.9c0.1,0.2,0.2,0.5,0.4,0.6c0.2,0.2,0.4,0.3,0.6,0.4c0.2,0.1,0.5,0.1,0.8,0.1    c0.4,0,0.7-0.1,1.1-0.2c0.4-0.1,0.6-0.3,0.8-0.4h0v1c-0.3,0.1-0.6,0.2-0.9,0.3s-0.7,0.1-1,0.1c-0.9,0-1.6-0.2-2.1-0.7    c-0.5-0.5-0.8-1.2-0.8-2.1c0-0.9,0.2-1.6,0.7-2.1s1.1-0.8,1.9-0.8c0.7,0,1.3,0.2,1.7,0.6c0.4,0.4,0.6,1,0.6,1.8V150.6z M163,149.9    c0-0.5-0.1-0.9-0.4-1.1c-0.2-0.3-0.6-0.4-1.1-0.4c-0.5,0-0.9,0.1-1.2,0.4c-0.3,0.3-0.5,0.6-0.5,1.1H163z"/> 		<path d="M170,147.8l-3.2,7.5h-1l1-2.3l-2.2-5.2h1l1.7,4l1.7-4H170z"/> 		<path d="M180.5,153.2h-1l-0.7-2h-3.1l-0.7,2h-1l2.6-7.3h1.3L180.5,153.2z M178.5,150.4l-1.3-3.6l-1.3,3.6H178.5z"/> 		<path d="M186,153.2h-0.9v-0.6c-0.3,0.2-0.6,0.4-0.9,0.6s-0.6,0.2-0.9,0.2c-0.6,0-1-0.2-1.3-0.5c-0.3-0.4-0.5-0.9-0.5-1.5v-3.5h0.9    v3.1c0,0.3,0,0.5,0,0.7c0,0.2,0.1,0.4,0.2,0.5c0.1,0.1,0.2,0.2,0.3,0.3s0.3,0.1,0.6,0.1c0.2,0,0.5-0.1,0.8-0.2    c0.3-0.1,0.5-0.3,0.8-0.5v-4.1h0.9V153.2z"/> 		<path d="M191.2,148.8L191.2,148.8c-0.2,0-0.3-0.1-0.4-0.1s-0.3,0-0.5,0c-0.3,0-0.6,0.1-0.8,0.2s-0.5,0.3-0.8,0.5v3.9h-0.9v-5.5    h0.9v0.8c0.4-0.3,0.7-0.5,1-0.6s0.6-0.2,0.9-0.2c0.2,0,0.3,0,0.3,0c0.1,0,0.2,0,0.3,0V148.8z"/> 		<path d="M196.7,150.6h-4c0,0.3,0,0.6,0.2,0.9c0.1,0.2,0.2,0.5,0.4,0.6c0.2,0.2,0.4,0.3,0.6,0.4c0.2,0.1,0.5,0.1,0.8,0.1    c0.4,0,0.7-0.1,1.1-0.2c0.4-0.1,0.6-0.3,0.8-0.4h0v1c-0.3,0.1-0.6,0.2-0.9,0.3s-0.7,0.1-1,0.1c-0.9,0-1.6-0.2-2.1-0.7    c-0.5-0.5-0.8-1.2-0.8-2.1c0-0.9,0.2-1.6,0.7-2.1s1.1-0.8,1.9-0.8c0.7,0,1.3,0.2,1.7,0.6c0.4,0.4,0.6,1,0.6,1.8V150.6z     M195.8,149.9c0-0.5-0.1-0.9-0.4-1.1c-0.2-0.3-0.6-0.4-1.1-0.4c-0.5,0-0.9,0.1-1.2,0.4c-0.3,0.3-0.5,0.6-0.5,1.1H195.8z"/> 		<path d="M199,153.2h-0.9v-7.6h0.9V153.2z"/> 		<path d="M201.8,146.8h-1v-1h1V146.8z M201.7,153.2h-0.9v-5.5h0.9V153.2z"/> 		<path d="M208.2,150.5c0,0.9-0.2,1.6-0.7,2.1s-1.1,0.8-1.8,0.8c-0.8,0-1.4-0.3-1.8-0.8s-0.7-1.2-0.7-2.1s0.2-1.6,0.7-2.1    s1.1-0.8,1.8-0.8c0.8,0,1.4,0.3,1.8,0.8S208.2,149.6,208.2,150.5z M207.3,150.5c0-0.7-0.1-1.2-0.4-1.6c-0.3-0.3-0.7-0.5-1.2-0.5    c-0.5,0-0.9,0.2-1.2,0.5c-0.3,0.3-0.4,0.9-0.4,1.6c0,0.7,0.1,1.2,0.4,1.6c0.3,0.4,0.7,0.5,1.2,0.5c0.5,0,0.9-0.2,1.2-0.5    C207.1,151.7,207.3,151.2,207.3,150.5z"/> 	</g> 	<g> 		<rect x="170.8" y="203.8" style="fill-rule:evenodd;clip-rule:evenodd;fill:none;" width="39.6" height="11"/> 		<path d="M176.3,212.3h-4.6V205h1v6.4h3.6V212.3z"/> 		<path d="M181.5,212.3h-0.9v-0.6c-0.1,0.1-0.2,0.1-0.3,0.2s-0.3,0.2-0.4,0.2c-0.2,0.1-0.3,0.1-0.5,0.2c-0.2,0.1-0.4,0.1-0.7,0.1    c-0.5,0-0.9-0.2-1.3-0.5c-0.3-0.3-0.5-0.7-0.5-1.2c0-0.4,0.1-0.7,0.3-1s0.4-0.5,0.8-0.6c0.3-0.1,0.7-0.2,1.2-0.3s1-0.1,1.5-0.1    v-0.1c0-0.2,0-0.4-0.1-0.5s-0.2-0.2-0.3-0.3c-0.1-0.1-0.3-0.1-0.5-0.2c-0.2,0-0.4,0-0.6,0c-0.2,0-0.5,0-0.8,0.1    c-0.3,0.1-0.6,0.2-0.9,0.3h0v-0.9c0.2,0,0.4-0.1,0.8-0.2s0.7-0.1,1-0.1c0.4,0,0.7,0,1,0.1s0.5,0.2,0.7,0.3    c0.2,0.1,0.4,0.3,0.5,0.6s0.2,0.5,0.2,0.9V212.3z M180.6,210.9v-1.5c-0.3,0-0.6,0-1,0.1c-0.4,0-0.7,0.1-0.9,0.1    c-0.3,0.1-0.5,0.2-0.6,0.3c-0.2,0.2-0.2,0.4-0.2,0.7c0,0.3,0.1,0.5,0.3,0.7c0.2,0.2,0.5,0.2,0.9,0.2c0.3,0,0.6-0.1,0.9-0.2    C180.1,211.2,180.3,211.1,180.6,210.9z"/> 		<path d="M187.9,206.8l-2.2,5.5h-0.9l-2.2-5.5h1l1.7,4.3l1.7-4.3H187.9z"/> 		<path d="M190.1,205.9h-1v-1h1V205.9z M190,212.3h-0.9v-5.5h0.9V212.3z"/> 		<path d="M196.1,212.3h-0.9v-0.6c-0.1,0.1-0.2,0.1-0.3,0.2s-0.3,0.2-0.4,0.2c-0.2,0.1-0.3,0.1-0.5,0.2c-0.2,0.1-0.4,0.1-0.7,0.1    c-0.5,0-0.9-0.2-1.3-0.5c-0.3-0.3-0.5-0.7-0.5-1.2c0-0.4,0.1-0.7,0.3-1s0.4-0.5,0.8-0.6c0.3-0.1,0.7-0.2,1.2-0.3s1-0.1,1.5-0.1    v-0.1c0-0.2,0-0.4-0.1-0.5s-0.2-0.2-0.3-0.3c-0.1-0.1-0.3-0.1-0.5-0.2c-0.2,0-0.4,0-0.6,0c-0.2,0-0.5,0-0.8,0.1    c-0.3,0.1-0.6,0.2-0.9,0.3h0v-0.9c0.2,0,0.4-0.1,0.8-0.2s0.7-0.1,1-0.1c0.4,0,0.7,0,1,0.1s0.5,0.2,0.7,0.3    c0.2,0.1,0.4,0.3,0.5,0.6s0.2,0.5,0.2,0.9V212.3z M195.2,210.9v-1.5c-0.3,0-0.6,0-1,0.1c-0.4,0-0.7,0.1-0.9,0.1    c-0.3,0.1-0.5,0.2-0.6,0.3c-0.2,0.2-0.2,0.4-0.2,0.7c0,0.3,0.1,0.5,0.3,0.7c0.2,0.2,0.5,0.2,0.9,0.2c0.3,0,0.6-0.1,0.9-0.2    C194.7,211.2,194.9,211.1,195.2,210.9z"/> 		<path d="M202.4,212.3h-0.9v-3.1c0-0.3,0-0.5,0-0.7s-0.1-0.4-0.2-0.5c-0.1-0.1-0.2-0.2-0.4-0.3s-0.4-0.1-0.6-0.1    c-0.3,0-0.5,0.1-0.8,0.2s-0.5,0.3-0.8,0.5v4.1h-0.9v-5.5h0.9v0.6c0.3-0.2,0.6-0.4,0.9-0.6c0.3-0.1,0.6-0.2,0.9-0.2    c0.6,0,1,0.2,1.3,0.5s0.5,0.9,0.5,1.5V212.3z"/> 		<path d="M208.4,212.3h-0.9v-0.6c-0.1,0.1-0.2,0.1-0.3,0.2s-0.3,0.2-0.4,0.2c-0.2,0.1-0.3,0.1-0.5,0.2c-0.2,0.1-0.4,0.1-0.7,0.1    c-0.5,0-0.9-0.2-1.3-0.5c-0.3-0.3-0.5-0.7-0.5-1.2c0-0.4,0.1-0.7,0.3-1s0.4-0.5,0.8-0.6c0.3-0.1,0.7-0.2,1.2-0.3s1-0.1,1.5-0.1    v-0.1c0-0.2,0-0.4-0.1-0.5s-0.2-0.2-0.3-0.3c-0.1-0.1-0.3-0.1-0.5-0.2c-0.2,0-0.4,0-0.6,0c-0.2,0-0.5,0-0.8,0.1    c-0.3,0.1-0.6,0.2-0.9,0.3h0v-0.9c0.2,0,0.4-0.1,0.8-0.2s0.7-0.1,1-0.1c0.4,0,0.7,0,1,0.1s0.5,0.2,0.7,0.3    c0.2,0.1,0.4,0.3,0.5,0.6s0.2,0.5,0.2,0.9V212.3z M207.5,210.9v-1.5c-0.3,0-0.6,0-1,0.1c-0.4,0-0.7,0.1-0.9,0.1    c-0.3,0.1-0.5,0.2-0.6,0.3c-0.2,0.2-0.2,0.4-0.2,0.7c0,0.3,0.1,0.5,0.3,0.7c0.2,0.2,0.5,0.2,0.9,0.2c0.3,0,0.6-0.1,0.9-0.2    C207,211.2,207.3,211.1,207.5,210.9z"/> 	</g> 	<g> 		<rect x="329.9" y="240.4" style="fill-rule:evenodd;clip-rule:evenodd;fill:none;" width="25.3" height="11"/> 		<path d="M336.5,248.4c-0.2,0.1-0.3,0.2-0.5,0.2c-0.1,0.1-0.3,0.1-0.6,0.2c-0.2,0.1-0.4,0.1-0.6,0.2c-0.2,0-0.5,0.1-0.8,0.1    c-0.5,0-1-0.1-1.4-0.2c-0.4-0.1-0.8-0.4-1.1-0.7c-0.3-0.3-0.6-0.7-0.7-1.2c-0.2-0.5-0.3-1-0.3-1.7c0-0.6,0.1-1.1,0.3-1.6    c0.2-0.5,0.4-0.9,0.7-1.2c0.3-0.3,0.7-0.6,1.1-0.7c0.4-0.2,0.9-0.2,1.5-0.2c0.4,0,0.8,0,1.2,0.1c0.4,0.1,0.8,0.3,1.3,0.5v1.1h-0.1    c-0.4-0.3-0.8-0.6-1.2-0.7c-0.4-0.2-0.8-0.2-1.3-0.2c-0.4,0-0.7,0.1-1,0.2c-0.3,0.1-0.6,0.3-0.8,0.6c-0.2,0.2-0.4,0.6-0.5,0.9    c-0.1,0.4-0.2,0.8-0.2,1.3c0,0.5,0.1,1,0.2,1.3c0.1,0.4,0.3,0.7,0.5,0.9c0.2,0.2,0.5,0.4,0.8,0.5c0.3,0.1,0.6,0.2,1,0.2    c0.5,0,0.9-0.1,1.3-0.2c0.4-0.2,0.8-0.4,1.1-0.7h0.1V248.4z"/> 		<path d="M342,248.9h-0.9v-0.6c-0.1,0.1-0.2,0.1-0.3,0.2c-0.1,0.1-0.3,0.2-0.4,0.2c-0.2,0.1-0.3,0.1-0.5,0.2    c-0.2,0.1-0.4,0.1-0.7,0.1c-0.5,0-0.9-0.2-1.3-0.5c-0.3-0.3-0.5-0.7-0.5-1.2c0-0.4,0.1-0.7,0.3-1c0.2-0.3,0.4-0.5,0.8-0.6    c0.3-0.1,0.7-0.2,1.2-0.3s1-0.1,1.5-0.1v-0.1c0-0.2,0-0.4-0.1-0.5s-0.2-0.2-0.3-0.3c-0.1-0.1-0.3-0.1-0.5-0.2c-0.2,0-0.4,0-0.6,0    c-0.2,0-0.5,0-0.8,0.1c-0.3,0.1-0.6,0.2-0.9,0.3h0v-0.9c0.2,0,0.4-0.1,0.8-0.2s0.7-0.1,1-0.1c0.4,0,0.7,0,1,0.1    c0.3,0.1,0.5,0.2,0.7,0.3c0.2,0.1,0.4,0.3,0.5,0.6s0.2,0.5,0.2,0.9V248.9z M341.1,247.6V246c-0.3,0-0.6,0-1,0.1    c-0.4,0-0.7,0.1-0.9,0.1c-0.3,0.1-0.5,0.2-0.6,0.3c-0.2,0.2-0.2,0.4-0.2,0.7c0,0.3,0.1,0.5,0.3,0.7c0.2,0.2,0.5,0.2,0.9,0.2    c0.3,0,0.6-0.1,0.9-0.2C340.6,247.9,340.8,247.7,341.1,247.6z"/> 		<path d="M347.7,247.3c0,0.5-0.2,0.9-0.6,1.2s-1,0.5-1.7,0.5c-0.4,0-0.8,0-1.1-0.1c-0.3-0.1-0.6-0.2-0.8-0.3v-1h0    c0.3,0.2,0.6,0.4,1,0.5c0.4,0.1,0.7,0.2,1,0.2c0.4,0,0.7-0.1,0.9-0.2c0.2-0.1,0.3-0.3,0.3-0.6c0-0.2-0.1-0.4-0.2-0.5    c-0.1-0.1-0.4-0.2-0.7-0.3c-0.1,0-0.3-0.1-0.5-0.1s-0.4-0.1-0.6-0.1c-0.5-0.1-0.8-0.3-1-0.6c-0.2-0.2-0.3-0.5-0.3-0.9    c0-0.2,0-0.4,0.1-0.6s0.2-0.4,0.4-0.5c0.2-0.2,0.4-0.3,0.7-0.4c0.3-0.1,0.6-0.1,0.9-0.1c0.3,0,0.7,0,1,0.1    c0.3,0.1,0.6,0.2,0.8,0.3v1h0c-0.2-0.2-0.5-0.3-0.9-0.4c-0.3-0.1-0.7-0.2-1-0.2c-0.3,0-0.6,0.1-0.8,0.2c-0.2,0.1-0.3,0.3-0.3,0.6    c0,0.2,0.1,0.4,0.2,0.5c0.1,0.1,0.4,0.2,0.7,0.3c0.2,0,0.4,0.1,0.6,0.1s0.4,0.1,0.5,0.1c0.4,0.1,0.8,0.3,1,0.5    C347.5,246.6,347.7,246.9,347.7,247.3z"/> 		<path d="M353.6,246.2c0,0.9-0.2,1.6-0.7,2.1s-1.1,0.8-1.8,0.8c-0.8,0-1.4-0.3-1.8-0.8s-0.7-1.2-0.7-2.1s0.2-1.6,0.7-2.1    c0.5-0.5,1.1-0.8,1.8-0.8c0.8,0,1.4,0.3,1.8,0.8C353.4,244.6,353.6,245.3,353.6,246.2z M352.7,246.2c0-0.7-0.1-1.2-0.4-1.6    c-0.3-0.3-0.7-0.5-1.2-0.5c-0.5,0-0.9,0.2-1.2,0.5c-0.3,0.3-0.4,0.9-0.4,1.6c0,0.7,0.1,1.2,0.4,1.6c0.3,0.4,0.7,0.5,1.2,0.5    c0.5,0,0.9-0.2,1.2-0.5C352.5,247.4,352.7,246.9,352.7,246.2z"/> 	</g> 	<g> 		<rect x="225.7" y="216.7" style="fill-rule:evenodd;clip-rule:evenodd;fill:none;" width="62" height="11"/> 		<path d="M232,223.1c0,0.3-0.1,0.6-0.2,0.8s-0.3,0.5-0.6,0.7c-0.3,0.2-0.6,0.4-0.9,0.5c-0.3,0.1-0.8,0.2-1.3,0.2    c-0.5,0-1,0-1.4-0.1c-0.4-0.1-0.8-0.2-1.3-0.4v-1.2h0.1c0.4,0.3,0.8,0.5,1.3,0.7c0.5,0.2,0.9,0.2,1.4,0.2c0.6,0,1.1-0.1,1.4-0.3    c0.3-0.2,0.5-0.5,0.5-0.9c0-0.3-0.1-0.6-0.2-0.7c-0.2-0.2-0.4-0.3-0.7-0.4c-0.2-0.1-0.5-0.1-0.8-0.2s-0.6-0.1-0.9-0.2    c-0.6-0.1-1.1-0.4-1.4-0.7s-0.5-0.8-0.5-1.3c0-0.6,0.3-1.1,0.8-1.5s1.2-0.6,2-0.6c0.5,0,1,0,1.4,0.1s0.8,0.2,1.1,0.4v1.1h-0.1    c-0.3-0.2-0.6-0.4-1.1-0.6s-0.9-0.2-1.4-0.2c-0.5,0-0.9,0.1-1.2,0.3c-0.3,0.2-0.5,0.5-0.5,0.8c0,0.3,0.1,0.5,0.2,0.7    s0.4,0.3,0.8,0.4c0.2,0,0.5,0.1,0.9,0.2c0.4,0.1,0.7,0.1,1,0.2c0.5,0.1,0.9,0.4,1.2,0.6S232,222.6,232,223.1z"/> 		<path d="M238.1,222.5c0,0.9-0.2,1.6-0.7,2.1s-1.1,0.8-1.8,0.8c-0.8,0-1.4-0.3-1.8-0.8s-0.7-1.2-0.7-2.1s0.2-1.6,0.7-2.1    s1.1-0.8,1.8-0.8c0.8,0,1.4,0.3,1.8,0.8S238.1,221.6,238.1,222.5z M237.1,222.5c0-0.7-0.1-1.2-0.4-1.6c-0.3-0.3-0.7-0.5-1.2-0.5    c-0.5,0-0.9,0.2-1.2,0.5c-0.3,0.3-0.4,0.9-0.4,1.6c0,0.7,0.1,1.2,0.4,1.6c0.3,0.4,0.7,0.5,1.2,0.5c0.5,0,0.9-0.2,1.2-0.5    C237,223.7,237.1,223.2,237.1,222.5z"/> 		<path d="M244.3,222.4c0,0.5-0.1,0.9-0.2,1.2s-0.3,0.7-0.5,0.9c-0.2,0.3-0.5,0.5-0.8,0.6c-0.3,0.1-0.6,0.2-0.9,0.2    c-0.3,0-0.6,0-0.8-0.1s-0.5-0.2-0.7-0.3l-0.1,0.3h-0.9v-7.6h0.9v2.7c0.3-0.2,0.5-0.4,0.8-0.5s0.6-0.2,1-0.2c0.6,0,1.2,0.2,1.5,0.7    S244.3,221.5,244.3,222.4z M243.4,222.5c0-0.7-0.1-1.1-0.3-1.5s-0.6-0.5-1-0.5c-0.3,0-0.5,0.1-0.8,0.2s-0.5,0.3-0.8,0.4v3.1    c0.3,0.1,0.5,0.2,0.7,0.2c0.2,0,0.4,0.1,0.6,0.1c0.5,0,0.9-0.2,1.2-0.5C243.2,223.7,243.4,223.2,243.4,222.5z"/> 		<path d="M249.2,220.8L249.2,220.8c-0.2,0-0.3-0.1-0.4-0.1s-0.3,0-0.5,0c-0.3,0-0.6,0.1-0.8,0.2s-0.5,0.3-0.8,0.5v3.9h-0.9v-5.5    h0.9v0.8c0.4-0.3,0.7-0.5,1-0.6s0.6-0.2,0.9-0.2c0.2,0,0.3,0,0.3,0c0.1,0,0.2,0,0.3,0V220.8z"/> 		<path d="M254.6,222.6h-4c0,0.3,0,0.6,0.2,0.9c0.1,0.2,0.2,0.5,0.4,0.6c0.2,0.2,0.4,0.3,0.6,0.4c0.2,0.1,0.5,0.1,0.8,0.1    c0.4,0,0.7-0.1,1.1-0.2c0.4-0.1,0.6-0.3,0.8-0.4h0v1c-0.3,0.1-0.6,0.2-0.9,0.3s-0.7,0.1-1,0.1c-0.9,0-1.6-0.2-2.1-0.7    c-0.5-0.5-0.8-1.2-0.8-2.1c0-0.9,0.2-1.6,0.7-2.1s1.1-0.8,1.9-0.8c0.7,0,1.3,0.2,1.7,0.6c0.4,0.4,0.6,1,0.6,1.8V222.6z     M253.7,221.9c0-0.5-0.1-0.9-0.4-1.1c-0.2-0.3-0.6-0.4-1.1-0.4c-0.5,0-0.9,0.1-1.2,0.4c-0.3,0.3-0.5,0.6-0.5,1.1H253.7z"/> 		<path d="M259.9,223.6c0,0.5-0.2,0.9-0.6,1.2s-1,0.5-1.7,0.5c-0.4,0-0.8,0-1.1-0.1s-0.6-0.2-0.8-0.3v-1h0c0.3,0.2,0.6,0.4,1,0.5    c0.4,0.1,0.7,0.2,1,0.2c0.4,0,0.7-0.1,0.9-0.2c0.2-0.1,0.3-0.3,0.3-0.6c0-0.2-0.1-0.4-0.2-0.5c-0.1-0.1-0.4-0.2-0.7-0.3    c-0.1,0-0.3-0.1-0.5-0.1s-0.4-0.1-0.6-0.1c-0.5-0.1-0.8-0.3-1-0.6s-0.3-0.5-0.3-0.9c0-0.2,0-0.4,0.1-0.6s0.2-0.4,0.4-0.5    c0.2-0.2,0.4-0.3,0.7-0.4c0.3-0.1,0.6-0.1,0.9-0.1c0.3,0,0.7,0,1,0.1s0.6,0.2,0.8,0.3v1h0c-0.2-0.2-0.5-0.3-0.9-0.4    c-0.3-0.1-0.7-0.2-1-0.2c-0.3,0-0.6,0.1-0.8,0.2s-0.3,0.3-0.3,0.6c0,0.2,0.1,0.4,0.2,0.5c0.1,0.1,0.4,0.2,0.7,0.3    c0.2,0,0.4,0.1,0.6,0.1s0.4,0.1,0.5,0.1c0.4,0.1,0.8,0.3,1,0.5C259.8,222.9,259.9,223.2,259.9,223.6z"/> 		<path d="M265.2,224.9c-0.3,0.1-0.6,0.3-0.9,0.3s-0.6,0.1-0.9,0.1c-0.4,0-0.8-0.1-1.1-0.2s-0.6-0.3-0.8-0.5    c-0.2-0.2-0.4-0.5-0.6-0.9c-0.1-0.4-0.2-0.8-0.2-1.3c0-0.9,0.2-1.6,0.7-2.1s1.1-0.8,1.9-0.8c0.3,0,0.6,0,0.9,0.1    c0.3,0.1,0.6,0.2,0.8,0.3v1h0c-0.3-0.2-0.6-0.4-0.9-0.5s-0.6-0.2-0.9-0.2c-0.5,0-0.9,0.2-1.2,0.5c-0.3,0.4-0.5,0.9-0.5,1.5    c0,0.7,0.1,1.2,0.4,1.5c0.3,0.4,0.7,0.5,1.2,0.5c0.2,0,0.4,0,0.6-0.1c0.2,0,0.4-0.1,0.5-0.2c0.1-0.1,0.3-0.1,0.4-0.2    s0.2-0.1,0.3-0.2h0V224.9z"/> 		<path d="M271.1,222.5c0,0.9-0.2,1.6-0.7,2.1s-1.1,0.8-1.8,0.8c-0.8,0-1.4-0.3-1.8-0.8s-0.7-1.2-0.7-2.1s0.2-1.6,0.7-2.1    s1.1-0.8,1.8-0.8c0.8,0,1.4,0.3,1.8,0.8S271.1,221.6,271.1,222.5z M270.1,222.5c0-0.7-0.1-1.2-0.4-1.6c-0.3-0.3-0.7-0.5-1.2-0.5    c-0.5,0-0.9,0.2-1.2,0.5c-0.3,0.3-0.4,0.9-0.4,1.6c0,0.7,0.1,1.2,0.4,1.6c0.3,0.4,0.7,0.5,1.2,0.5c0.5,0,0.9-0.2,1.2-0.5    C270,223.7,270.1,223.2,270.1,222.5z"/> 		<path d="M277.3,222.4c0,0.5-0.1,0.9-0.2,1.2s-0.3,0.7-0.5,0.9c-0.2,0.3-0.5,0.5-0.8,0.6c-0.3,0.1-0.6,0.2-0.9,0.2    c-0.3,0-0.6,0-0.8-0.1s-0.5-0.2-0.7-0.3l-0.1,0.3h-0.9v-7.6h0.9v2.7c0.3-0.2,0.5-0.4,0.8-0.5s0.6-0.2,1-0.2c0.6,0,1.2,0.2,1.5,0.7    S277.3,221.5,277.3,222.4z M276.3,222.5c0-0.7-0.1-1.1-0.3-1.5s-0.6-0.5-1-0.5c-0.3,0-0.5,0.1-0.8,0.2s-0.5,0.3-0.8,0.4v3.1    c0.3,0.1,0.5,0.2,0.7,0.2c0.2,0,0.4,0.1,0.6,0.1c0.5,0,0.9-0.2,1.2-0.5C276.2,223.7,276.3,223.2,276.3,222.5z"/> 		<path d="M279.7,218.8h-1v-1h1V218.8z M279.6,225.2h-0.9v-5.5h0.9V225.2z"/> 		<path d="M286.1,222.5c0,0.9-0.2,1.6-0.7,2.1s-1.1,0.8-1.8,0.8c-0.8,0-1.4-0.3-1.8-0.8s-0.7-1.2-0.7-2.1s0.2-1.6,0.7-2.1    s1.1-0.8,1.8-0.8c0.8,0,1.4,0.3,1.8,0.8S286.1,221.6,286.1,222.5z M285.2,222.5c0-0.7-0.1-1.2-0.4-1.6c-0.3-0.3-0.7-0.5-1.2-0.5    c-0.5,0-0.9,0.2-1.2,0.5c-0.3,0.3-0.4,0.9-0.4,1.6c0,0.7,0.1,1.2,0.4,1.6c0.3,0.4,0.7,0.5,1.2,0.5c0.5,0,0.9-0.2,1.2-0.5    C285,223.7,285.2,223.2,285.2,222.5z"/> 	</g> </g> <g id="llegenda"> 	<line style="fill:none;stroke:#9A9A9A;stroke-width:2;stroke-miterlimit:10;" x1="348.6" y1="-156.4" x2="348.6" y2="-126.9"/> 	<line style="fill:none;stroke:#9A9A9A;stroke-miterlimit:10;" x1="382" y1="-156.4" x2="382" y2="-126.9"/> 	<g> 		<path d="M356.3-146h0.9v7.1h-0.9V-146z"/> 		<path d="M359.7-145.1c0,0.3-0.2,0.5-0.6,0.5c-0.3,0-0.5-0.2-0.5-0.5s0.2-0.5,0.6-0.5C359.5-145.7,359.7-145.4,359.7-145.1z     M358.7-138.9v-4.8h0.9v4.8H358.7z"/> 		<path d="M361-142.4c0-0.5,0-0.9,0-1.3h0.8l0.1,0.8h0c0.2-0.4,0.8-0.9,1.6-0.9c0.7,0,1.7,0.4,1.7,2.1v2.9h-0.9v-2.8    c0-0.8-0.3-1.4-1.1-1.4c-0.6,0-1,0.4-1.2,0.9c0,0.1-0.1,0.3-0.1,0.4v2.9H361V-142.4z"/> 	</g> 	<line style="fill:none;stroke:#696969;stroke-width:2;stroke-miterlimit:10;" x1="348.6" y1="-116.8" x2="348.6" y2="-87.3"/> 	<g> 		<path d="M356.3-106.4h0.9v7.1h-0.9V-106.4z"/> 		<path d="M359.7-105.5c0,0.3-0.2,0.5-0.6,0.5c-0.3,0-0.5-0.2-0.5-0.5s0.2-0.5,0.6-0.5C359.5-106.1,359.7-105.8,359.7-105.5z     M358.7-99.3v-4.8h0.9v4.8H358.7z"/> 		<path d="M361-102.9c0-0.5,0-0.9,0-1.3h0.8l0.1,0.8h0c0.2-0.4,0.8-0.9,1.6-0.9c0.7,0,1.7,0.4,1.7,2.1v2.9h-0.9v-2.8    c0-0.8-0.3-1.4-1.1-1.4c-0.6,0-1,0.4-1.2,0.9c0,0.1-0.1,0.3-0.1,0.4v2.9H361V-102.9z"/> 	</g> 	<rect x="343.3" y="-181" style="fill:#BFBFBF;" width="16.2" height="15.3"/> 	<rect x="343.3" y="-208.7" style="fill:#DCE9FB;" width="16.2" height="15.3"/> 	<rect x="311.9" y="-208.7" style="fill:#D0E0A4;" width="16.3" height="15.3"/> 	<g> 		<path d="M368.8-171.7v-4.2h-0.7v-0.7h0.7v-0.2c0-0.7,0.2-1.3,0.6-1.7c0.3-0.3,0.8-0.4,1.2-0.4c0.3,0,0.6,0.1,0.8,0.1l-0.1,0.7    c-0.1-0.1-0.3-0.1-0.6-0.1c-0.8,0-0.9,0.6-0.9,1.4v0.3h1.2v0.7h-1.2v4.2H368.8z"/> 		<path d="M375.9-174.1c0,1.8-1.2,2.6-2.4,2.6c-1.3,0-2.3-1-2.3-2.5c0-1.6,1.1-2.6,2.4-2.6C374.9-176.6,375.9-175.6,375.9-174.1z     M372-174.1c0,1.1,0.6,1.9,1.5,1.9c0.8,0,1.5-0.8,1.5-1.9c0-0.8-0.4-1.8-1.4-1.8C372.5-175.9,372-175,372-174.1z"/> 		<path d="M377-175.2c0-0.5,0-0.9,0-1.3h0.8l0,0.8h0c0.2-0.4,0.8-0.9,1.6-0.9c0.7,0,1.7,0.4,1.7,2.1v2.9h-0.9v-2.8    c0-0.8-0.3-1.4-1.1-1.4c-0.6,0-1,0.4-1.2,0.9c0,0.1-0.1,0.3-0.1,0.4v2.9H377V-175.2z"/> 		<path d="M382.4-172.6c0.3,0.2,0.7,0.3,1.2,0.3c0.6,0,0.9-0.3,0.9-0.7c0-0.4-0.3-0.6-0.9-0.9c-0.9-0.3-1.3-0.8-1.3-1.4    c0-0.8,0.6-1.4,1.7-1.4c0.5,0,0.9,0.1,1.2,0.3l-0.2,0.6c-0.2-0.1-0.5-0.3-1-0.3c-0.5,0-0.8,0.3-0.8,0.7c0,0.4,0.3,0.6,0.9,0.8    c0.8,0.3,1.3,0.7,1.3,1.4c0,0.9-0.7,1.5-1.8,1.5c-0.5,0-1-0.1-1.4-0.3L382.4-172.6z"/> 	</g> 	<g> 		<path d="M368.7-202.5c0-0.5,0-0.9,0-1.3h0.8l0,0.8h0c0.3-0.5,0.7-0.9,1.5-0.9c0.6,0,1.1,0.4,1.4,1h0c0.2-0.3,0.3-0.5,0.5-0.6    c0.3-0.2,0.6-0.3,1.1-0.3c0.6,0,1.6,0.4,1.6,2.1v2.8h-0.9v-2.7c0-0.9-0.3-1.5-1-1.5c-0.5,0-0.9,0.4-1,0.8c0,0.1-0.1,0.3-0.1,0.4v3    h-0.9v-2.9c0-0.8-0.3-1.3-1-1.3c-0.5,0-0.9,0.4-1.1,0.9c0,0.1-0.1,0.3-0.1,0.4v2.9h-0.9V-202.5z"/> 		<path d="M380.4-200.2c0,0.4,0,0.8,0.1,1.2h-0.8l-0.1-0.6h0c-0.3,0.4-0.8,0.7-1.5,0.7c-1,0-1.5-0.7-1.5-1.4c0-1.2,1-1.8,2.9-1.8    v-0.1c0-0.4-0.1-1.1-1.1-1.1c-0.5,0-0.9,0.1-1.3,0.4l-0.2-0.6c0.4-0.3,1-0.4,1.6-0.4c1.5,0,1.8,1,1.8,2V-200.2z M379.6-201.5    c-1,0-2,0.1-2,1.1c0,0.6,0.4,0.8,0.8,0.8c0.6,0,1-0.4,1.2-0.8c0-0.1,0-0.2,0-0.3V-201.5z"/> 		<path d="M381.8-202.3c0-0.6,0-1.1,0-1.5h0.8l0,1h0c0.2-0.6,0.8-1.1,1.3-1.1c0.1,0,0.2,0,0.2,0v0.8c-0.1,0-0.2,0-0.3,0    c-0.6,0-1.1,0.5-1.2,1.1c0,0.1,0,0.3,0,0.4v2.6h-0.9V-202.3z"/> 	</g> 	<circle style="fill-rule:evenodd;clip-rule:evenodd;fill:#5B7EBD;" cx="348.6" cy="-72.2" r="2.4"/> 	<rect x="267.8" y="-181" style="fill:#BFBFBF;stroke:#696969;stroke-width:2;stroke-miterlimit:10;" width="16.3" height="15.3"/> 	<rect x="294" y="-181" style="fill:#FFFBF0;stroke:#9A9A9A;stroke-width:2;stroke-miterlimit:10;" width="16.3" height="15.3"/> 	<rect x="284.7" y="-150.4" style="opacity:0.6;fill:#FFFBF0;" width="51" height="17.5"/> </g> </svg>