<svg xmlns="http://www.w3.org/2000/svg" xmlns:xlink="http://www.w3.org/1999/xlink" version="1.1" x="0px" y="0px" width="450px" height="450px" viewBox="0 0 450 450" style="enable-background:new 0 0 450 450;" xml:space="preserve"> <g id="color_exterior"> 	<a> 		<path style="fill:#BFBFBF;stroke:#696969;stroke-width:2;stroke-miterlimit:10;" d="M367.8-119.8c-95.6-0.4-191.3-0.9-286.9-1.5    c8.3,18.4-9.3,23.5-23.7,15.1C53.3-94.1,33.8-84.7,58-75.9c-46,27.5,75.7,58.7,74.5,68.5c-0.1,1-1.9,11.8,4.7,13.7    C148.4,9.5,152.5,5.5,165,9c14,3.9-13.7,36.2-30.8,18.1c-2.2,8.5-7.9,54-14.7,73.7c-4.4,12.7-34,59.3-38.9,71.8    c-2.8,7-13.1,27.9-5.6,38.1c-4.3,5.2-44.1,39.7-31.7,57c4.6,6.4,7.6,6.8,20.2,11.8c4,1.6,0.2,16,7.4,16.2    c15.5,0.6-0.1-18.7,8.2-28.4c-15.8-12.2,8.1-49,23.6-48.9c7.2,0.1,10.2,16.6,17.7,10.7c12.1-9.7,12.9-15.9,24.1-4.7    c9.6,9.7,22.6,14.7,34.6,24.3c25.8-29.8,19.1-44.1,33.6-80.1c14.8-36.9,22.9-95.2,13.6-107.5c-10-13.3-8-37.2-5.6-45.1    c18.4,11.9,52.1,22.3,56.8,43.6c0.4,2-15.1,7.5-10.8,10.2c22.5,13.8,2.3,35.6,2.1,37c-0.8,5.3,3.8,19.6,5.6,27    c4.1,17,10.2,32.8,16.4,49.2c5.3,14-11.7,26-17.9,36.2c-5.6,9.1-7.7,30.7-20.9,29c2.8,29.4-1.9,58-0.6,87.6    c0.4,9.7,14.1,28.2,14.6,30.7c1.8,9,1.4,21.1-10.3,38.4c5,1.9,8.1,7.1,11.3,8.7c-29.5,3.8,13.1,27,3.8,32.6    c-21,12.6-2.9,25.7-4.4,43.4c-6.5,0.1-5.6,2.6-9.7,3.6c21.5,9.2-0.4,15.9,4.4,26c9.6,20.4,73.5,7.3,95.4,6.8    c48.8-1.1,97.6-2.3,146.4-3.5c24.4-0.6,48.8-1.2,73.2-1.8c0.8-24.2,1.6-48.5,2.4-72.7c6-189.1,6.6-378.1,9.8-567.2    C514.5-119.3,441.1-119.5,367.8-119.8C272.2-120.2,441.1-119.5,367.8-119.8z"/> 	</a> 	<path style="fill:#BFBFBF;stroke:#696969;stroke-width:2;stroke-miterlimit:10;" d="M214.4,430.5c7.1-2.6,10.6-6.7,18.3-6.4   c-2.4-23-26.8-73.4-52.2-67.5c-19.1,4.4-11.4,32.2,4.9,37C213.4,401.8,199.7,411.6,214.4,430.5L214.4,430.5z"/> 	<path style="fill:#BFBFBF;stroke:#696969;stroke-width:2;stroke-miterlimit:10;" d="M266,489.6c1.5-17.7-16.5-30.8,4.4-43.4   c9.3-5.6-33.3-28.7-3.8-32.6c-3.2-1.6-6.3-6.8-11.3-8.7c7.2-6.1,15.3-36.5,8.5-43.7c-13.8-14.3-12-38.6-12.8-56.8   c-4.6,2.1-9.1,7.2-14.3,8c-6.6,1-13.9,0-20.3,0.7c-2.1,0.2-4.5,1.4-6.3,1.9c-10.4,2.8-18.8,28.3-32.1,33.3   c-2.1,0.8-3.5,3.7-5.5,3.7c-14.2,0-16.2-14.1-24.4-33.4c-3.8-9,12.3-36.5,16.4-44.8c2.5-4.9,3.7-9.4,5.7-13c2-3.6,4.8-6.5,6-8.3   c3.8-5.8,2.4-5.4-12.6-16.5c-4.9-3.6-18.2-10.6-24.9-17.2c-6.9-6.9-13.5,11.1-20.9,10.4c-10.6-1-11.6-28.5-35.9,5.3   c-7.4,10.3-13.8,24.4-3,32.8c-7.9,9.3,5.7,26.5-5.2,28c-10.9,1.5-6.2-12.8-6.3-12.9c-7.6-5.3-12.8-6.3-20.2-10.7   c-20.6-12.3,18.8-50.5,27.6-61c-10.3-14,23.7-73.7,29-81.4C128.3,94,130,42.9,134.1,27.1C152.9,47,177,14.2,164.7,8   c-7.4-3.7-35.1,8.3-32.3-15.4c1.2-9.9-120.5-41-74.5-68.5c-24.2-8.8-4.7-18.2-0.8-30.3c10,5.9,20.1,8.1,25.1-2.9   c10.2-22.9-43.7-12.4-53.1-12.5c-17.2-0.1-34.4-0.2-51.7-0.3c-37-0.2-34.3-0.6-36.8,36.1c-2.8,42.4-6,84.8-9.3,127.2   c-12.7,164.3,10.2,329.5-6.7,493.3c113.3-1.9,226.5-4.1,339.8-6.6c-8.8-13.6,12.7-25.9-8.2-34.9C258.6,487.3,260.9,489.6,266,489.6   L266,489.6z"/> </g> <g id="AH_Capa"> 	<a> 		<path style="fill:none;" d="M263.9,451.6l4.3-4l3.5-2.3l-0.9-3.8l-1-2.6l-7.4-7.8l-2.3-3.2l-3.3-5.3l-0.6-1.9l0.3-2.7    c0,0,2.6-2.6,3-2.6s5.1-0.9,5.5-0.9s3.4-0.8,3.4-0.8l-5-3.2c0,0-1.8-1.3-2.1-1.6s-2.4-2.8-3.1-3.3s-3-0.8-3-0.8l2.4-3l2-2.4l1.1-2    l3.4-10.8l0.9-3.5l1.3-6c0,0,0.3-3.2,0.3-3.3s0-5.5,0-5.5l-1.1-4.4l-0.5-1.1l-1.4-2.4l-2.1-1.6l-2.6-3.6l-1.1-2.7l-1.2-2.3    l-1.8-5.4l-1-5l-0.6-3.8l-1.1-7.7l-0.9-21.3v-2.5l-2.1,0.2l-4.6,4.9l-10.6,3.3l-9.7,0l-7.9-0.1l-2.8,0.3l-5,1.8l-6.6,7l-6.3,7.6    l-4.9,7.1l-5.8,6.3l-7.2,6.3l-1.7,1.3l-3.4,1l1.1,6.6c0,0,4.9-1.2,5-1.2s4.8-0.9,4.8-0.9l3.8-0.8l4.8,0.7l3,2l3.5,3    c0,0,3.2,3.8,3.3,4s3.3,3.7,3.3,3.7l2.8,3.2l5.1,7.5l3.3,4.5l3.1,5.2l2.8,4.4l2.9,6l3.5,7l2.8,7.3l1,5l0.8,4.6l-18.3,6.6l-1.3-2.1    l-2-4.9l-1.7-8.9l-0.7-4.4l-1.2-4.1l-1.3-3.2l-3-1.5l-12.6-5.6l-5.5-1.7l-6.2-1.6l-3.6-1.5l-1.1-1l-0.9-3.9l-2.8-13.1l-1.2-8    c0,0,0.3-2.5,0.3-2.8s0.8-2.1,0.8-2.1l2.7-1.5l-1.1-6.6l-4.8-0.3c0,0-2-1.4-2.2-1.5s-4.3-4-4.3-4l-2.1-3l-1.9-4l-4.4-9.2l-1.6-4.6    l-2-5.6l-0.7-3.9l0.3-4.7l1.9-8.8l3.4-7.4l1.8-3.5l2.6-5.3l2.9-4.7l2.9-5.2l2-6.1l4.5-11l7.8-10.1l-0.4-1.8l-2.7-3.2l-6.5-4.3    l-10.8-7.1l-6.2-4l-4.6-3.2l-5.8-4.3l-3-2.8c0,0-2.4-1.3-2.8-1.2s-3.6,1.8-3.6,1.8l-2.5,1.9l-4.9,5.4l-4.3,2.5    c0,0-2.1,0.4-2.8,0.2s-3.5-1.6-3.5-1.6l-3.7-4.1l-3.8-3.3c0,0-2.3-1.8-2.8-1.8s-4.2-0.5-4.5-0.3s-2.9,1.8-3.2,2s-4,3.4-4,3.4    l-4.3,3.2l-4.5,6.8l-4.5,6.8l-3.8,7.7l-1.1,5.4l-0.5,5.8l1.4,3.6l2.1,3.5l1.8,1.3l-1.9,3.3l-0.6,5.7l1.1,6l1,5.3v4.7l-1.4,1.9    l-2.4,0.9l-4.8-0.1l-2.3-2.3l-0.8-4.6l0.9-3.8v-2.6l-5.6-3.1l-12.4-5.4l-3.2-2.2l-3.8-5.3l-0.7-4.1l1.2-8.7l3-5.4l4.8-8.1l6.3-8.3    l9.6-10.7l7.3-8.6l1.4-1.4l-1.8-2.9l-0.4-8.3l1.3-4.9l1.4-6.5l3.8-10.5l4.8-12.6l9.8-17.9l4.9-9l3.9-6.8l6.8-11.1l4.6-9l3.1-7.8    l4.6-12l4.1-17.8l3.1-17.8l1.6-8.8l2.1-15l1.1-4.4l3.1,2l5.1,2.8c0,0,3,0.4,3.4,0.4s4.1,0.1,4.5,0.1s5.4-2.4,6-2.5    s4.5-2.8,4.5-2.8l2.6-3.4l4.3-6.1l0.5-5l-1.5-3.9l-3.3-2c0,0-6.4-0.3-6.9-0.3s-5.5,0.3-6,0.4s-7.9-0.1-7.9-0.1l-5.1-1.6l-3.9-3    l-0.9-4.4l-136.4-5l-2,459l262,2L263.9,451.6z"/> 	</a> </g> <g id="color_comarques"> </g> <g id="hoya_de_huesca"> 	<path style="fill-rule:evenodd;clip-rule:evenodd;fill:#FFFBF0;stroke:#9A9A9A;stroke-width:2;stroke-miterlimit:10;" d="   M174.7,390.5c-1.2-7-9.4-30.3-2-32c15.5-3.6,18.4-6.4,27.9,5.6c13.7,17.3,29.7,37.5,32.1,60.1c-5.7,2-12.1,4.1-18.3,6.4   c-5.8-7.4-4-25.2-8.8-28.1C195.6,396.4,185.9,393.8,174.7,390.5L174.7,390.5z"/> 	<path style="fill-rule:evenodd;clip-rule:evenodd;fill:#FFFBF0;stroke:#9A9A9A;stroke-width:2;stroke-miterlimit:10;" d="   M164.5,273.8c7.5,12.2,12.7,22.9,26.7,28.8c4.7-8.9,7.3-20.7,10.4-28.9c7,16,32.1,28.3,49,27.5c-2.6,13.4-21.4,12.9-33.8,11.9   c-12.7-1-20.7,19-32.8,31.3c-19.9,20.2-27.3-4.5-34.3-21.1C142.7,306.8,157.7,289.6,164.5,273.8L164.5,273.8z"/> 	<a> 		<path style="fill-rule:evenodd;clip-rule:evenodd;fill:#FFFBF0;stroke:#9A9A9A;stroke-width:2;stroke-miterlimit:10;" d="    M211.5,170.9c11.6-0.3,21.1,5.9,29.8,13.3c16,13.5,23.9,6,22.6,29.7c-0.7,13.3-12.8,23.7-12.1,34.4c1,15.6,0.8,36.5-1.1,52.9    c-16.9,0.9-42-11.4-49-27.5c-3.1,8.2-5.7,20-10.4,28.9c-18.5-7.7-27.4-28.3-26.8-29.7c6-15.2,12.1-21,19.9-31.9    C200,219.1,200.4,193.1,211.5,170.9L211.5,170.9z"/> 	</a> 	<path style="fill-rule:evenodd;clip-rule:evenodd;fill:#FFFBF0;stroke:#9A9A9A;stroke-width:2;stroke-miterlimit:10;" d="   M211.5,170.9c12.8-32.1,19.1-64.1,18.7-98.6c-0.1-8.6-9.2-14.9-11.8-25c-1.8-6.7,0-24.1,2.2-31.3c18.4,11.9,52.1,22.3,56.8,43.6   c0.4,2-14.8,7.1-10.8,10.2c22.6,17.4,2.3,35.6,2.1,37c-0.8,5.3,3.8,19.6,5.6,27c4.1,17,10.2,32.8,16.4,49.2   c5.3,14-11.6,26-17.9,36.2c-5.6,9.1-7.7,30.7-20.9,29c-0.3-8.7,20.6-45.2,7.3-51.6C242.8,188.8,229.7,170.3,211.5,170.9   L211.5,170.9z"/> 	<a> 		<path style="fill-rule:evenodd;clip-rule:evenodd;fill:none;" d="M232.7,424.2l-18.3,6.4l-3.4-6.4l-0.3-4.8l-1.7-8.3l-1-5.7    l-2.4-2.9l-7.6-4l-16.3-5.8l-6.1-1.8l-1.1-1l-3.1-11.7l-0.8-8.2l-0.5-4.3l0.2-5l2.6-2.2l6.3-1l7.3-1.5l3.8-0.3l5,2l4.1,4.6    l-4.3-30.4l-5.2,6.2l-4.8,6c0,0-3.7,3-4.2,3.3s-5.2,3.6-5.2,3.6l-6.8,0.1l-4.5-1l-5.5-6.8l-6.5-11.8l-4.2-13.3l-0.5-7.8l3-8.5    l5-11.3l8.2-14.8l48-105.3l5.8-15.7l4.8-17.5l4-17.5l2.8-21.8l0.5-8.7l0.8-18l-2.5-4.8l-2.8-4.8l-5.3-8.3l-2-6.2v-6.5v-8.3l1.5-13    l1-3l5.7,3.3l5,2.7l6.3,2.8l4.5,2.3l5.3,3.3l5.7,2.7l5.7,3.5l6.7,4.8l5.5,5l3.2,4.3l2.5,5.2l0.8,3.6l-2.4,2.2c0,0-5.7,3.3-6.2,3.7    s-2.2,2-2.2,2l1.3,2.5c0,0,2.3,2,2.7,2.5s2.3,3.3,2.7,3.8s3,4.8,3,4.8s0.7,4.2,0.7,5s-0.3,5.7-0.3,5.7s-2.3,7.2-2.5,7.8    s-2.7,5-3.5,5.5s-2.5,3.2-2.5,3.2l1.8,7.8c0,0,1.3,6.3,1.5,7s3.3,12.7,3.3,12.7l4.7,16l4.7,11.2l5.7,17.3l1.5,7l0.5,5.8l-3.8,6.7    l-5.3,7.8l-5.5,5.7l-4.3,5.9l-2.8,6.7l-3.5,7.7l-2.2,6.7l-4,5.3l-5,2.3l-3.5-0.3l0.8-3.7l1.2-4.3l3.5-9.5l2.3-5.8l3-10.8l0.5-6.5    l-0.3-6.2l-1.8-3.2l-4.3-2.7l-5.5-3.3l-6.8-4.5l-6.3-4.8l-5-3.2l-5-3.8l-6.3-2.7l-5.8-0.7l-3.8-1.8l-48,105.3l6.3,9.5l7.8,9    l3.5,3.5l9.7,5.1l5.8-13.1l0.8-4.2l2.5-7.7l1.3-3.2l4.5,6.5l3.5,4.2l4.7,4l4.3,3.2l5,2.5c0,0,5.7,2.3,6.2,2.5s5.2,1.3,5.7,1.7    s6.7,1.2,7.5,1.5s6.8,0.7,6.8,0.7v2.3l-4.2,5.2c0,0-5.2,2.5-5.7,2.5s-5.2,1.5-5.2,1.5s-5.2,0.5-6.7,0.5s-9,0.3-9,0.3l-7.8,0.3    l-6.7,5l-3.8,5.5l-5.8,7.5l4.3,30.4l7.6,9.6l4.7,5.8l4.5,6.5l3.1,5.2c0,0,4.5,7.3,4.5,7.8s4.7,10.5,4.7,10.5s1.8,6,2,6.5    s1.2,6.8,1.2,6.8L232.7,424.2z"/> 	</a> </g> <g id="bl"> 	<rect x="184.9" y="202.2" style="opacity:0.7;fill:#FFFBF0;" width="66.5" height="9.6"/> 	<rect x="136.3" y="316.6" style="opacity:0.7;fill:#FFFBF0;" width="50.3" height="9.6"/> 	<rect x="166.7" y="367.9" style="opacity:0.7;fill:#FFFBF0;" width="34" height="13.8"/> 	<rect x="157.7" y="379.6" style="opacity:0.7;fill:#FFFBF0;" width="50.3" height="9.6"/> </g> <g id="text_comarques"> 	<g> 		<rect x="43.7" y="340.9" style="fill-rule:evenodd;clip-rule:evenodd;fill:none;" width="70.7" height="33"/> 		<path style="fill:#1A171B;" d="M49.2,349.5c-0.5,0-1-0.1-1.5-0.2c-0.5-0.2-0.8-0.4-1.2-0.7s-0.6-0.7-0.8-1.2    c-0.2-0.5-0.3-1-0.3-1.6c0-0.6,0.1-1.1,0.3-1.6s0.4-0.9,0.8-1.2c0.3-0.3,0.7-0.6,1.2-0.7c0.5-0.2,1-0.3,1.5-0.3    c0.3,0,0.6,0,0.8,0.1c0.2,0,0.5,0.1,0.7,0.1c0.2,0.1,0.4,0.1,0.6,0.2c0.2,0.1,0.3,0.1,0.5,0.2v1.8h-0.2c-0.1-0.1-0.2-0.2-0.3-0.3    c-0.1-0.1-0.3-0.2-0.5-0.3c-0.2-0.1-0.4-0.2-0.6-0.3c-0.2-0.1-0.4-0.1-0.7-0.1c-0.3,0-0.5,0-0.8,0.1c-0.2,0.1-0.5,0.2-0.7,0.4    c-0.2,0.2-0.3,0.4-0.5,0.7c-0.1,0.3-0.2,0.7-0.2,1.1c0,0.5,0.1,0.8,0.2,1.1c0.1,0.3,0.3,0.5,0.5,0.7c0.2,0.2,0.4,0.3,0.7,0.4    s0.5,0.1,0.7,0.1c0.2,0,0.5,0,0.7-0.1c0.2-0.1,0.4-0.2,0.6-0.3c0.2-0.1,0.3-0.2,0.4-0.3c0.1-0.1,0.2-0.2,0.3-0.3h0.2v1.7    c-0.2,0.1-0.4,0.2-0.5,0.2s-0.3,0.1-0.5,0.2c-0.2,0.1-0.5,0.1-0.7,0.2S49.6,349.5,49.2,349.5z"/> 		<path style="fill:#1A171B;" d="M54.9,343.1H53v-1.3h1.9V343.1z M54.8,349.4h-1.8v-5.5h1.8V349.4z"/> 		<path style="fill:#1A171B;" d="M62,349.4h-1.8v-2.7c0-0.2,0-0.4,0-0.7c0-0.2-0.1-0.4-0.1-0.5c-0.1-0.1-0.2-0.2-0.3-0.3    c-0.1-0.1-0.3-0.1-0.5-0.1c-0.2,0-0.3,0-0.5,0.1c-0.2,0.1-0.3,0.1-0.5,0.2v3.9h-1.8v-5.5h1.8v0.6c0.3-0.2,0.6-0.4,0.9-0.6    c0.3-0.1,0.6-0.2,1-0.2c0.6,0,1.1,0.2,1.4,0.5s0.5,0.9,0.5,1.5V349.4z"/> 		<path style="fill:#1A171B;" d="M66.4,349.5c-0.5,0-0.9-0.1-1.3-0.2c-0.4-0.1-0.7-0.3-1-0.5c-0.3-0.2-0.5-0.5-0.7-0.9    s-0.2-0.8-0.2-1.3c0-0.5,0.1-1,0.3-1.3c0.2-0.4,0.4-0.7,0.7-0.9c0.3-0.2,0.6-0.4,1-0.5s0.8-0.2,1.2-0.2c0.4,0,0.7,0,1,0.1    s0.6,0.2,0.9,0.3v1.5h-0.2c-0.1-0.1-0.2-0.1-0.2-0.2s-0.2-0.2-0.4-0.2c-0.1-0.1-0.3-0.1-0.4-0.2c-0.2,0-0.3-0.1-0.6-0.1    c-0.5,0-0.8,0.1-1.1,0.4c-0.3,0.3-0.4,0.7-0.4,1.2c0,0.5,0.1,0.9,0.4,1.2c0.3,0.3,0.6,0.4,1.1,0.4c0.2,0,0.4,0,0.6-0.1    c0.2-0.1,0.3-0.1,0.4-0.2c0.1-0.1,0.2-0.1,0.3-0.2c0.1-0.1,0.2-0.1,0.2-0.2h0.2v1.5c-0.3,0.1-0.6,0.2-0.9,0.3    C67.1,349.5,66.8,349.5,66.4,349.5z"/> 		<path style="fill:#1A171B;" d="M75.1,346.6c0,0.9-0.3,1.6-0.8,2.1c-0.5,0.5-1.3,0.8-2.2,0.8s-1.7-0.3-2.2-0.8    c-0.5-0.5-0.8-1.2-0.8-2.1c0-0.9,0.3-1.6,0.8-2.1c0.5-0.5,1.3-0.8,2.2-0.8c1,0,1.7,0.3,2.2,0.8C74.8,345,75.1,345.7,75.1,346.6z     M72.9,348c0.1-0.1,0.2-0.3,0.3-0.5c0.1-0.2,0.1-0.5,0.1-0.8c0-0.3,0-0.6-0.1-0.8s-0.1-0.4-0.2-0.5c-0.1-0.1-0.2-0.2-0.4-0.3    s-0.3-0.1-0.5-0.1s-0.3,0-0.5,0.1c-0.1,0-0.3,0.1-0.4,0.3c-0.1,0.1-0.2,0.3-0.3,0.5c-0.1,0.2-0.1,0.5-0.1,0.8c0,0.3,0,0.6,0.1,0.8    c0.1,0.2,0.1,0.4,0.2,0.5c0.1,0.1,0.2,0.2,0.4,0.3c0.1,0.1,0.3,0.1,0.5,0.1c0.2,0,0.3,0,0.5-0.1C72.7,348.2,72.8,348.1,72.9,348z"/> 		<path style="fill:#1A171B;" d="M86.4,342.1l-2.7,7.3h-2.1l-2.7-7.3h2l1.8,5.1l1.8-5.1H86.4z"/> 		<path style="fill:#1A171B;" d="M89.2,343.1h-1.9v-1.3h1.9V343.1z M89.2,349.4h-1.8v-5.5h1.8V349.4z"/> 		<path style="fill:#1A171B;" d="M92.6,349.4h-1.8v-7.6h1.8V349.4z"/> 		<path style="fill:#1A171B;" d="M96,349.4h-1.8v-7.6H96V349.4z"/> 		<path style="fill:#1A171B;" d="M101,348.8c-0.1,0.1-0.2,0.2-0.4,0.3s-0.3,0.2-0.4,0.2c-0.2,0.1-0.4,0.1-0.5,0.2    c-0.2,0-0.4,0.1-0.6,0.1c-0.5,0-1-0.2-1.3-0.5s-0.5-0.7-0.5-1.2c0-0.4,0.1-0.7,0.3-1s0.4-0.5,0.8-0.6c0.3-0.1,0.7-0.3,1.2-0.3    s1-0.1,1.5-0.1v0c0-0.3-0.1-0.5-0.4-0.6c-0.2-0.1-0.6-0.2-1.1-0.2c-0.3,0-0.6,0.1-0.9,0.2c-0.3,0.1-0.6,0.2-0.7,0.2h-0.2V344    c0.2,0,0.5-0.1,0.9-0.2c0.4-0.1,0.8-0.1,1.3-0.1c1,0,1.7,0.2,2.2,0.5c0.4,0.3,0.7,0.8,0.7,1.4v3.7H101V348.8z M101,347.9v-1.1    c-0.2,0-0.5,0-0.8,0.1c-0.3,0-0.5,0.1-0.6,0.1c-0.2,0.1-0.3,0.1-0.4,0.2c-0.1,0.1-0.1,0.2-0.1,0.4c0,0.1,0,0.2,0,0.3    c0,0.1,0.1,0.1,0.1,0.2c0.1,0.1,0.2,0.1,0.3,0.1c0.1,0,0.3,0,0.5,0c0.2,0,0.4,0,0.5-0.1C100.7,348.2,100.8,348.1,101,347.9z"/> 		<path style="fill:#1A171B;" d="M109.1,347.6c0,0.6-0.3,1-0.8,1.4c-0.5,0.3-1.2,0.5-2.1,0.5c-0.5,0-0.9,0-1.3-0.1s-0.7-0.2-1-0.3    v-1.4h0.2c0.1,0.1,0.2,0.1,0.3,0.2c0.1,0.1,0.3,0.2,0.5,0.2c0.2,0.1,0.4,0.1,0.6,0.2c0.2,0.1,0.5,0.1,0.7,0.1c0.3,0,0.6,0,0.8-0.1    c0.2-0.1,0.2-0.2,0.2-0.3c0-0.1,0-0.2-0.1-0.3c-0.1-0.1-0.3-0.1-0.6-0.2c-0.1,0-0.3-0.1-0.5-0.1c-0.2,0-0.4-0.1-0.6-0.1    c-0.5-0.1-0.9-0.3-1.1-0.6c-0.2-0.3-0.4-0.6-0.4-1c0-0.5,0.3-1,0.8-1.3c0.5-0.4,1.2-0.5,2-0.5c0.4,0,0.8,0,1.2,0.1    c0.4,0.1,0.7,0.2,0.9,0.3v1.4h-0.2c-0.3-0.2-0.6-0.3-0.9-0.4c-0.3-0.1-0.7-0.2-1-0.2c-0.3,0-0.5,0-0.7,0.1    c-0.2,0.1-0.3,0.2-0.3,0.3c0,0.1,0,0.2,0.1,0.3s0.3,0.1,0.6,0.2c0.2,0,0.4,0.1,0.6,0.1c0.2,0,0.4,0.1,0.6,0.1    c0.5,0.1,0.8,0.3,1,0.6C109,346.9,109.1,347.2,109.1,347.6z"/> 		<path style="fill:#1A171B;" d="M112.5,347.5l-1.8,3.7h-1.1l1-3.7H112.5z"/> 		<path style="fill:#1A171B;" d="M50.3,360.4h-5.2v-7.3H47v5.9h3.4V360.4z"/> 		<path style="fill:#1A171B;" d="M54.7,359.8c-0.1,0.1-0.2,0.2-0.4,0.3c-0.1,0.1-0.3,0.2-0.4,0.2c-0.2,0.1-0.4,0.1-0.5,0.2    s-0.4,0.1-0.6,0.1c-0.5,0-1-0.2-1.3-0.5s-0.5-0.7-0.5-1.2c0-0.4,0.1-0.7,0.3-1s0.4-0.5,0.8-0.6c0.3-0.1,0.7-0.3,1.2-0.3    c0.5-0.1,1-0.1,1.5-0.1v0c0-0.3-0.1-0.5-0.4-0.6s-0.6-0.2-1.1-0.2c-0.3,0-0.6,0.1-0.9,0.2s-0.6,0.2-0.7,0.2h-0.2V355    c0.2,0,0.5-0.1,0.9-0.2c0.4-0.1,0.8-0.1,1.3-0.1c1,0,1.7,0.2,2.2,0.5c0.4,0.3,0.7,0.8,0.7,1.4v3.7h-1.7V359.8z M54.7,359v-1.1    c-0.2,0-0.5,0-0.8,0.1c-0.3,0-0.5,0.1-0.6,0.1c-0.2,0.1-0.3,0.1-0.4,0.2c-0.1,0.1-0.1,0.2-0.1,0.4c0,0.1,0,0.2,0,0.3    s0.1,0.1,0.1,0.2c0.1,0.1,0.2,0.1,0.3,0.1s0.3,0,0.5,0c0.2,0,0.4,0,0.5-0.1C54.4,359.2,54.6,359.1,54.7,359z"/> 		<path style="fill:#1A171B;" d="M65.4,358.3c0,0.3-0.1,0.6-0.2,0.9s-0.3,0.5-0.5,0.7c-0.2,0.2-0.5,0.4-0.9,0.5s-0.8,0.2-1.2,0.2    c-0.3,0-0.7,0-0.9,0s-0.6-0.1-0.8-0.1v-1.5H61c0.2,0.1,0.3,0.1,0.5,0.2s0.4,0.1,0.6,0.1c0.3,0,0.6,0,0.8-0.1    c0.2-0.1,0.3-0.2,0.4-0.4c0.1-0.2,0.1-0.3,0.1-0.5s0-0.4,0-0.7v-2.9h-1.7v-1.3h3.5V358.3z"/> 		<path style="fill:#1A171B;" d="M70.3,359.8c-0.1,0.1-0.2,0.2-0.4,0.3c-0.1,0.1-0.3,0.2-0.4,0.2c-0.2,0.1-0.4,0.1-0.5,0.2    s-0.4,0.1-0.6,0.1c-0.5,0-1-0.2-1.3-0.5s-0.5-0.7-0.5-1.2c0-0.4,0.1-0.7,0.3-1s0.4-0.5,0.8-0.6c0.3-0.1,0.7-0.3,1.2-0.3    c0.5-0.1,1-0.1,1.5-0.1v0c0-0.3-0.1-0.5-0.4-0.6s-0.6-0.2-1.1-0.2c-0.3,0-0.6,0.1-0.9,0.2s-0.6,0.2-0.7,0.2h-0.2V355    c0.2,0,0.5-0.1,0.9-0.2c0.4-0.1,0.8-0.1,1.3-0.1c1,0,1.7,0.2,2.2,0.5c0.4,0.3,0.7,0.8,0.7,1.4v3.7h-1.7V359.8z M70.3,359v-1.1    c-0.2,0-0.5,0-0.8,0.1c-0.3,0-0.5,0.1-0.6,0.1c-0.2,0.1-0.3,0.1-0.4,0.2c-0.1,0.1-0.1,0.2-0.1,0.4c0,0.1,0,0.2,0,0.3    s0.1,0.1,0.1,0.2c0.1,0.1,0.2,0.1,0.3,0.1s0.3,0,0.5,0c0.2,0,0.4,0,0.5-0.1C70.1,359.2,70.2,359.1,70.3,359z"/> 		<path style="fill:#1A171B;" d="M76.6,360.5c-0.5,0-0.9-0.1-1.3-0.2c-0.4-0.1-0.7-0.3-1-0.5c-0.3-0.2-0.5-0.5-0.7-0.9    s-0.2-0.8-0.2-1.3c0-0.5,0.1-1,0.3-1.3c0.2-0.4,0.4-0.7,0.7-0.9c0.3-0.2,0.6-0.4,1-0.5s0.8-0.2,1.2-0.2c0.4,0,0.7,0,1,0.1    c0.3,0.1,0.6,0.2,0.9,0.3v1.5h-0.2c-0.1-0.1-0.2-0.1-0.2-0.2s-0.2-0.2-0.4-0.2c-0.1-0.1-0.3-0.1-0.4-0.2s-0.3-0.1-0.6-0.1    c-0.5,0-0.8,0.1-1.1,0.4s-0.4,0.7-0.4,1.2c0,0.5,0.1,0.9,0.4,1.2c0.3,0.3,0.6,0.4,1.1,0.4c0.2,0,0.4,0,0.6-0.1    c0.2-0.1,0.3-0.1,0.4-0.2c0.1-0.1,0.2-0.1,0.3-0.2c0.1-0.1,0.2-0.1,0.2-0.2h0.2v1.5c-0.3,0.1-0.6,0.2-0.9,0.3    C77.3,360.5,76.9,360.5,76.6,360.5z"/> 		<path style="fill:#1A171B;" d="M85,358h-4c0,0.4,0.2,0.8,0.5,1c0.3,0.2,0.7,0.3,1.3,0.3c0.4,0,0.7-0.1,1.1-0.2    c0.3-0.1,0.6-0.3,0.8-0.4h0.2v1.4c-0.4,0.2-0.8,0.3-1.1,0.3c-0.4,0.1-0.7,0.1-1.2,0.1c-1.1,0-1.9-0.2-2.5-0.7    c-0.6-0.5-0.9-1.2-0.9-2.1c0-0.9,0.3-1.6,0.8-2.2c0.6-0.5,1.3-0.8,2.3-0.8c0.9,0,1.6,0.2,2,0.7s0.7,1.1,0.7,1.9V358z M83.2,356.9    c0-0.4-0.1-0.6-0.3-0.8s-0.4-0.3-0.8-0.3c-0.3,0-0.6,0.1-0.8,0.3s-0.3,0.5-0.4,0.8H83.2z"/> 		<path style="fill:#1A171B;" d="M89.7,360.3c-0.2,0-0.4,0.1-0.6,0.1s-0.5,0-0.8,0c-0.7,0-1.2-0.1-1.5-0.4c-0.3-0.3-0.5-0.8-0.5-1.4    v-2.6h-0.7v-1.2h0.7v-1.6h1.8v1.6h1.6v1.2h-1.6v1.9c0,0.2,0,0.4,0,0.5c0,0.1,0,0.3,0.1,0.4c0,0.1,0.1,0.2,0.2,0.3    c0.1,0.1,0.3,0.1,0.5,0.1c0.1,0,0.2,0,0.4-0.1s0.3-0.1,0.3-0.1h0.1V360.3z"/> 		<path style="fill:#1A171B;" d="M94.1,359.8c-0.1,0.1-0.2,0.2-0.4,0.3c-0.1,0.1-0.3,0.2-0.4,0.2c-0.2,0.1-0.4,0.1-0.5,0.2    s-0.4,0.1-0.6,0.1c-0.5,0-1-0.2-1.3-0.5s-0.5-0.7-0.5-1.2c0-0.4,0.1-0.7,0.3-1s0.4-0.5,0.8-0.6c0.3-0.1,0.7-0.3,1.2-0.3    c0.5-0.1,1-0.1,1.5-0.1v0c0-0.3-0.1-0.5-0.4-0.6s-0.6-0.2-1.1-0.2c-0.3,0-0.6,0.1-0.9,0.2s-0.6,0.2-0.7,0.2h-0.2V355    c0.2,0,0.5-0.1,0.9-0.2c0.4-0.1,0.8-0.1,1.3-0.1c1,0,1.7,0.2,2.2,0.5c0.4,0.3,0.7,0.8,0.7,1.4v3.7h-1.7V359.8z M94.1,359v-1.1    c-0.2,0-0.5,0-0.8,0.1c-0.3,0-0.5,0.1-0.6,0.1c-0.2,0.1-0.3,0.1-0.4,0.2c-0.1,0.1-0.1,0.2-0.1,0.4c0,0.1,0,0.2,0,0.3    s0.1,0.1,0.1,0.2c0.1,0.1,0.2,0.1,0.3,0.1s0.3,0,0.5,0c0.2,0,0.4,0,0.5-0.1C93.8,359.2,94,359.1,94.1,359z"/> 		<path style="fill:#1A171B;" d="M103,360.4h-1.8v-2.7c0-0.2,0-0.4,0-0.7s-0.1-0.4-0.1-0.5c-0.1-0.1-0.2-0.2-0.3-0.3    c-0.1-0.1-0.3-0.1-0.5-0.1c-0.2,0-0.3,0-0.5,0.1c-0.2,0.1-0.3,0.1-0.5,0.2v3.9h-1.8v-5.5h1.8v0.6c0.3-0.2,0.6-0.4,0.9-0.6    c0.3-0.1,0.6-0.2,1-0.2c0.6,0,1.1,0.2,1.4,0.5c0.3,0.3,0.5,0.9,0.5,1.5V360.4z"/> 		<path style="fill:#1A171B;" d="M106.4,354.1h-1.9v-1.3h1.9V354.1z M106.4,360.4h-1.8v-5.5h1.8V360.4z"/> 		<path style="fill:#1A171B;" d="M111.3,359.8c-0.1,0.1-0.2,0.2-0.4,0.3c-0.1,0.1-0.3,0.2-0.4,0.2c-0.2,0.1-0.4,0.1-0.5,0.2    s-0.4,0.1-0.6,0.1c-0.5,0-1-0.2-1.3-0.5s-0.5-0.7-0.5-1.2c0-0.4,0.1-0.7,0.3-1s0.4-0.5,0.8-0.6c0.3-0.1,0.7-0.3,1.2-0.3    c0.5-0.1,1-0.1,1.5-0.1v0c0-0.3-0.1-0.5-0.4-0.6s-0.6-0.2-1.1-0.2c-0.3,0-0.6,0.1-0.9,0.2s-0.6,0.2-0.7,0.2h-0.2V355    c0.2,0,0.5-0.1,0.9-0.2c0.4-0.1,0.8-0.1,1.3-0.1c1,0,1.7,0.2,2.2,0.5c0.4,0.3,0.7,0.8,0.7,1.4v3.7h-1.7V359.8z M111.3,359v-1.1    c-0.2,0-0.5,0-0.8,0.1c-0.3,0-0.5,0.1-0.6,0.1c-0.2,0.1-0.3,0.1-0.4,0.2c-0.1,0.1-0.1,0.2-0.1,0.4c0,0.1,0,0.2,0,0.3    s0.1,0.1,0.1,0.2c0.1,0.1,0.2,0.1,0.3,0.1s0.3,0,0.5,0c0.2,0,0.4,0,0.5-0.1C111,359.2,111.2,359.1,111.3,359z"/> 		<path style="fill:#1A171B;" d="M50.8,371.4H49v-0.6c-0.3,0.2-0.6,0.4-0.8,0.5s-0.6,0.2-0.9,0.2c-0.7,0-1.2-0.3-1.6-0.8    c-0.4-0.5-0.6-1.2-0.6-2.1c0-0.5,0.1-0.9,0.2-1.2s0.3-0.7,0.6-0.9c0.2-0.2,0.5-0.4,0.8-0.6s0.6-0.2,0.9-0.2c0.3,0,0.6,0,0.8,0.1    c0.2,0.1,0.4,0.2,0.6,0.3v-2.3h1.8V371.4z M49,369.9v-2.7c-0.1-0.1-0.3-0.1-0.4-0.1c-0.1,0-0.3,0-0.4,0c-0.5,0-0.8,0.1-1,0.4    c-0.2,0.3-0.3,0.7-0.3,1.2c0,0.5,0.1,0.9,0.3,1.2c0.2,0.2,0.5,0.4,0.9,0.4c0.2,0,0.3,0,0.5-0.1C48.7,370.1,48.9,370,49,369.9z"/> 		<path style="fill:#1A171B;" d="M57.8,369h-4c0,0.4,0.2,0.8,0.5,1c0.3,0.2,0.7,0.3,1.3,0.3c0.4,0,0.7-0.1,1.1-0.2    c0.3-0.1,0.6-0.3,0.8-0.4h0.2v1.4c-0.4,0.2-0.8,0.3-1.1,0.3c-0.4,0.1-0.7,0.1-1.2,0.1c-1.1,0-1.9-0.2-2.5-0.7    c-0.6-0.5-0.9-1.2-0.9-2.1c0-0.9,0.3-1.6,0.8-2.2c0.6-0.5,1.3-0.8,2.3-0.8c0.9,0,1.6,0.2,2,0.7s0.7,1.1,0.7,1.9V369z M56.1,368    c0-0.4-0.1-0.6-0.3-0.8s-0.4-0.3-0.8-0.3c-0.3,0-0.6,0.1-0.8,0.3s-0.3,0.5-0.4,0.8H56.1z"/> 		<path style="fill:#1A171B;" d="M68.2,371.4h-6.1V370l3.6-4.5h-3.4v-1.4H68v1.4l-3.6,4.5h3.8V371.4z"/> 		<path style="fill:#1A171B;" d="M72.7,370.8c-0.1,0.1-0.2,0.2-0.4,0.3c-0.1,0.1-0.3,0.2-0.4,0.2c-0.2,0.1-0.4,0.1-0.5,0.2    s-0.4,0.1-0.6,0.1c-0.5,0-1-0.2-1.3-0.5s-0.5-0.7-0.5-1.2c0-0.4,0.1-0.7,0.3-1s0.4-0.5,0.8-0.6c0.3-0.1,0.7-0.3,1.2-0.3    c0.5-0.1,1-0.1,1.5-0.1v0c0-0.3-0.1-0.5-0.4-0.6s-0.6-0.2-1.1-0.2c-0.3,0-0.6,0.1-0.9,0.2s-0.6,0.2-0.7,0.2h-0.2V366    c0.2,0,0.5-0.1,0.9-0.2c0.4-0.1,0.8-0.1,1.3-0.1c1,0,1.7,0.2,2.2,0.5c0.4,0.3,0.7,0.8,0.7,1.4v3.7h-1.7V370.8z M72.7,370v-1.1    c-0.2,0-0.5,0-0.8,0.1s-0.5,0.1-0.6,0.1c-0.2,0.1-0.3,0.1-0.4,0.2c-0.1,0.1-0.1,0.2-0.1,0.4c0,0.1,0,0.2,0,0.3    c0,0.1,0.1,0.1,0.1,0.2c0.1,0.1,0.2,0.1,0.3,0.1s0.3,0,0.5,0c0.2,0,0.4,0,0.5-0.1C72.4,370.2,72.6,370.1,72.7,370z"/> 		<path style="fill:#1A171B;" d="M80.1,367.6h-0.2c-0.1,0-0.2,0-0.4-0.1c-0.2,0-0.3,0-0.4,0c-0.3,0-0.5,0-0.7,0    c-0.2,0-0.4,0.1-0.6,0.2v3.7h-1.8v-5.5h1.8v0.8c0.4-0.3,0.7-0.6,1-0.7c0.3-0.1,0.5-0.2,0.8-0.2c0.1,0,0.1,0,0.2,0    c0.1,0,0.1,0,0.2,0V367.6z"/> 		<path style="fill:#1A171B;" d="M84.4,370.8c-0.1,0.1-0.2,0.2-0.4,0.3c-0.1,0.1-0.3,0.2-0.4,0.2c-0.2,0.1-0.4,0.1-0.5,0.2    s-0.4,0.1-0.6,0.1c-0.5,0-1-0.2-1.3-0.5s-0.5-0.7-0.5-1.2c0-0.4,0.1-0.7,0.3-1s0.4-0.5,0.8-0.6c0.3-0.1,0.7-0.3,1.2-0.3    c0.5-0.1,1-0.1,1.5-0.1v0c0-0.3-0.1-0.5-0.4-0.6s-0.6-0.2-1.1-0.2c-0.3,0-0.6,0.1-0.9,0.2s-0.6,0.2-0.7,0.2h-0.2V366    c0.2,0,0.5-0.1,0.9-0.2c0.4-0.1,0.8-0.1,1.3-0.1c1,0,1.7,0.2,2.2,0.5c0.4,0.3,0.7,0.8,0.7,1.4v3.7h-1.7V370.8z M84.4,370v-1.1    c-0.2,0-0.5,0-0.8,0.1S83.1,369,83,369c-0.2,0.1-0.3,0.1-0.4,0.2c-0.1,0.1-0.1,0.2-0.1,0.4c0,0.1,0,0.2,0,0.3    c0,0.1,0.1,0.1,0.1,0.2c0.1,0.1,0.2,0.1,0.3,0.1s0.3,0,0.5,0c0.2,0,0.4,0,0.5-0.1C84.1,370.2,84.2,370.1,84.4,370z"/> 		<path style="fill:#1A171B;" d="M93.1,370.8c0,0.5-0.1,0.9-0.2,1.3s-0.4,0.6-0.6,0.8c-0.3,0.2-0.6,0.3-1,0.4    c-0.4,0.1-0.8,0.1-1.3,0.1c-0.4,0-0.8,0-1.1-0.1c-0.4,0-0.7-0.1-1-0.2v-1.4h0.2c0.2,0.1,0.5,0.2,0.8,0.2c0.3,0.1,0.6,0.1,0.8,0.1    c0.3,0,0.6,0,0.8-0.1s0.4-0.1,0.5-0.3c0.1-0.1,0.2-0.2,0.2-0.4c0-0.2,0.1-0.4,0.1-0.6v-0.1c-0.2,0.2-0.4,0.3-0.7,0.4    c-0.3,0.1-0.5,0.2-0.9,0.2c-0.8,0-1.4-0.2-1.8-0.7c-0.4-0.5-0.6-1.2-0.6-2.1c0-0.5,0.1-0.8,0.2-1.2c0.1-0.3,0.3-0.6,0.5-0.9    c0.2-0.2,0.5-0.4,0.8-0.5c0.3-0.1,0.6-0.2,1-0.2c0.3,0,0.6,0,0.8,0.1s0.5,0.2,0.7,0.3l0.1-0.2h1.7V370.8z M91.3,369.7v-2.5    c-0.1,0-0.2-0.1-0.4-0.1c-0.1,0-0.3,0-0.4,0c-0.5,0-0.8,0.1-1,0.4s-0.3,0.6-0.3,1.1c0,0.5,0.1,0.9,0.3,1.1    c0.2,0.2,0.5,0.3,0.9,0.3c0.2,0,0.3,0,0.5-0.1C91,369.8,91.2,369.8,91.3,369.7z"/> 		<path style="fill:#1A171B;" d="M100.3,368.7c0,0.9-0.3,1.6-0.8,2.1c-0.5,0.5-1.3,0.8-2.2,0.8s-1.7-0.3-2.2-0.8    c-0.5-0.5-0.8-1.2-0.8-2.1c0-0.9,0.3-1.6,0.8-2.1c0.5-0.5,1.3-0.8,2.2-0.8c1,0,1.7,0.3,2.2,0.8C100.1,367,100.3,367.8,100.3,368.7    z M98.2,370c0.1-0.1,0.2-0.3,0.3-0.5c0.1-0.2,0.1-0.5,0.1-0.8c0-0.3,0-0.6-0.1-0.8c-0.1-0.2-0.1-0.4-0.2-0.5    c-0.1-0.1-0.2-0.2-0.4-0.3c-0.1-0.1-0.3-0.1-0.5-0.1s-0.3,0-0.5,0.1c-0.1,0-0.3,0.1-0.4,0.3c-0.1,0.1-0.2,0.3-0.3,0.5    c-0.1,0.2-0.1,0.5-0.1,0.8c0,0.3,0,0.6,0.1,0.8s0.1,0.4,0.2,0.5c0.1,0.1,0.2,0.2,0.4,0.3c0.1,0.1,0.3,0.1,0.5,0.1    c0.2,0,0.3,0,0.5-0.1C98,370.2,98.1,370.1,98.2,370z"/> 		<path style="fill:#1A171B;" d="M106.3,371.4h-5.2v-1.1l2.9-3.1h-2.8v-1.3h5v1.1l-2.8,3.1h2.9V371.4z"/> 		<path style="fill:#1A171B;" d="M110.9,370.8c-0.1,0.1-0.2,0.2-0.4,0.3c-0.1,0.1-0.3,0.2-0.4,0.2c-0.2,0.1-0.4,0.1-0.5,0.2    s-0.4,0.1-0.6,0.1c-0.5,0-1-0.2-1.3-0.5s-0.5-0.7-0.5-1.2c0-0.4,0.1-0.7,0.3-1s0.4-0.5,0.8-0.6c0.3-0.1,0.7-0.3,1.2-0.3    c0.5-0.1,1-0.1,1.5-0.1v0c0-0.3-0.1-0.5-0.4-0.6s-0.6-0.2-1.1-0.2c-0.3,0-0.6,0.1-0.9,0.2s-0.6,0.2-0.7,0.2h-0.2V366    c0.2,0,0.5-0.1,0.9-0.2c0.4-0.1,0.8-0.1,1.3-0.1c1,0,1.7,0.2,2.2,0.5c0.4,0.3,0.7,0.8,0.7,1.4v3.7h-1.7V370.8z M110.9,370v-1.1    c-0.2,0-0.5,0-0.8,0.1s-0.5,0.1-0.6,0.1c-0.2,0.1-0.3,0.1-0.4,0.2c-0.1,0.1-0.1,0.2-0.1,0.4c0,0.1,0,0.2,0,0.3    c0,0.1,0.1,0.1,0.1,0.2c0.1,0.1,0.2,0.1,0.3,0.1s0.3,0,0.5,0c0.2,0,0.4,0,0.5-0.1C110.6,370.2,110.8,370.1,110.9,370z"/> 	</g> </g> <g id="text_x5F_exterior"> 	<g> 		<rect x="354" y="252.2" style="fill-rule:evenodd;clip-rule:evenodd;fill:none;" width="46.5" height="11"/> 		<path style="fill:#1A171B;" d="M364.4,260.7h-1.9v-3.2h-2.8v3.2h-1.9v-7.3h1.9v2.7h2.8v-2.7h1.9V260.7z"/> 		<path style="fill:#1A171B;" d="M371.6,260.7h-1.8v-0.6c-0.3,0.2-0.6,0.4-0.9,0.6c-0.3,0.1-0.6,0.2-1,0.2c-0.6,0-1.1-0.2-1.4-0.5    c-0.3-0.3-0.5-0.9-0.5-1.5v-3.6h1.8v2.7c0,0.3,0,0.5,0,0.7c0,0.2,0.1,0.3,0.1,0.5c0.1,0.1,0.2,0.2,0.3,0.3    c0.1,0.1,0.3,0.1,0.5,0.1c0.1,0,0.3,0,0.5-0.1s0.4-0.1,0.5-0.2v-3.9h1.8V260.7z"/> 		<path style="fill:#1A171B;" d="M378.7,258.3h-4c0,0.4,0.2,0.8,0.5,1c0.3,0.2,0.7,0.3,1.3,0.3c0.4,0,0.7-0.1,1.1-0.2    s0.6-0.3,0.8-0.4h0.2v1.4c-0.4,0.2-0.8,0.3-1.1,0.3s-0.7,0.1-1.2,0.1c-1.1,0-1.9-0.2-2.5-0.7s-0.9-1.2-0.9-2.1    c0-0.9,0.3-1.6,0.8-2.2c0.6-0.5,1.3-0.8,2.3-0.8c0.9,0,1.6,0.2,2,0.7c0.4,0.5,0.7,1.1,0.7,1.9V258.3z M376.9,257.3    c0-0.4-0.1-0.6-0.3-0.8s-0.4-0.3-0.8-0.3c-0.3,0-0.6,0.1-0.8,0.3s-0.3,0.5-0.4,0.8H376.9z"/> 		<path style="fill:#1A171B;" d="M384.7,259c0,0.6-0.3,1-0.8,1.4c-0.5,0.3-1.2,0.5-2.1,0.5c-0.5,0-0.9,0-1.3-0.1s-0.7-0.2-1-0.3V259    h0.2c0.1,0.1,0.2,0.1,0.3,0.2c0.1,0.1,0.3,0.2,0.5,0.2c0.2,0.1,0.4,0.1,0.6,0.2c0.2,0.1,0.5,0.1,0.7,0.1c0.3,0,0.6,0,0.8-0.1    c0.2-0.1,0.2-0.2,0.2-0.3c0-0.1,0-0.2-0.1-0.3c-0.1-0.1-0.3-0.1-0.6-0.2c-0.1,0-0.3-0.1-0.5-0.1c-0.2,0-0.4-0.1-0.6-0.1    c-0.5-0.1-0.9-0.3-1.1-0.6c-0.2-0.3-0.4-0.6-0.4-1c0-0.5,0.3-1,0.8-1.3c0.5-0.3,1.2-0.5,2-0.5c0.4,0,0.8,0,1.2,0.1    c0.4,0.1,0.7,0.2,0.9,0.3v1.4h-0.2c-0.3-0.2-0.6-0.3-0.9-0.4c-0.3-0.1-0.7-0.2-1-0.2c-0.3,0-0.5,0-0.7,0.1    c-0.2,0.1-0.3,0.2-0.3,0.3c0,0.1,0,0.2,0.1,0.3s0.3,0.1,0.6,0.2c0.2,0,0.4,0.1,0.6,0.1c0.2,0,0.4,0.1,0.6,0.1    c0.5,0.1,0.8,0.3,1,0.6C384.6,258.3,384.7,258.6,384.7,259z"/> 		<path style="fill:#1A171B;" d="M388.7,260.8c-0.5,0-0.9-0.1-1.3-0.2c-0.4-0.1-0.7-0.3-1-0.5c-0.3-0.2-0.5-0.5-0.7-0.9    s-0.2-0.8-0.2-1.3c0-0.5,0.1-1,0.3-1.3c0.2-0.4,0.4-0.7,0.7-0.9c0.3-0.2,0.6-0.4,1-0.5s0.8-0.2,1.2-0.2c0.4,0,0.7,0,1,0.1    s0.6,0.2,0.9,0.3v1.5h-0.2c-0.1-0.1-0.2-0.1-0.2-0.2s-0.2-0.2-0.4-0.2c-0.1-0.1-0.3-0.1-0.4-0.2c-0.2,0-0.3-0.1-0.6-0.1    c-0.5,0-0.8,0.1-1.1,0.4c-0.3,0.3-0.4,0.7-0.4,1.2c0,0.5,0.1,0.9,0.4,1.2c0.3,0.3,0.6,0.4,1.1,0.4c0.2,0,0.4,0,0.6-0.1    c0.2,0,0.3-0.1,0.4-0.2c0.1-0.1,0.2-0.1,0.3-0.2c0.1-0.1,0.2-0.1,0.2-0.2h0.2v1.5c-0.3,0.1-0.6,0.2-0.9,0.3    C389.4,260.8,389.1,260.8,388.7,260.8z"/> 		<path style="fill:#1A171B;" d="M395.1,260.1c-0.1,0.1-0.2,0.2-0.4,0.3s-0.3,0.2-0.4,0.2c-0.2,0.1-0.4,0.1-0.5,0.2    c-0.2,0-0.4,0.1-0.6,0.1c-0.5,0-1-0.2-1.3-0.5s-0.5-0.7-0.5-1.2c0-0.4,0.1-0.7,0.3-1s0.4-0.5,0.8-0.6c0.3-0.1,0.7-0.3,1.2-0.3    s1-0.1,1.5-0.1v0c0-0.3-0.1-0.5-0.4-0.6c-0.2-0.1-0.6-0.2-1.1-0.2c-0.3,0-0.6,0.1-0.9,0.2c-0.3,0.1-0.6,0.2-0.7,0.2h-0.2v-1.3    c0.2,0,0.5-0.1,0.9-0.2c0.4-0.1,0.8-0.1,1.3-0.1c1,0,1.7,0.2,2.2,0.5c0.4,0.3,0.7,0.8,0.7,1.4v3.7h-1.7V260.1z M395.1,259.3v-1.1    c-0.2,0-0.5,0-0.8,0.1c-0.3,0-0.5,0.1-0.6,0.1c-0.2,0.1-0.3,0.1-0.4,0.2c-0.1,0.1-0.1,0.2-0.1,0.4c0,0.1,0,0.2,0,0.3    c0,0.1,0.1,0.1,0.1,0.2c0.1,0.1,0.2,0.1,0.3,0.1c0.1,0,0.3,0,0.5,0c0.2,0,0.4,0,0.5-0.1C394.8,259.5,394.9,259.4,395.1,259.3z"/> 	</g> </g> <g id="text_Hoya_de_huesca"> 	<g> 		<rect x="220.8" y="146.4" style="fill-rule:evenodd;clip-rule:evenodd;fill:none;" width="54.3" height="22"/> 		<path style="fill:#1A171B;" d="M238.7,154.9h-1v-6.3l-2,4.3h-0.6l-2-4.3v6.3h-0.9v-7.3h1.3l1.9,4l1.9-4h1.3V154.9z"/> 		<path style="fill:#1A171B;" d="M245.1,154.9h-0.9v-0.6c-0.3,0.2-0.6,0.4-0.9,0.6s-0.6,0.2-0.9,0.2c-0.6,0-1-0.2-1.3-0.5    s-0.5-0.9-0.5-1.5v-3.5h0.9v3.1c0,0.3,0,0.5,0,0.7s0.1,0.4,0.2,0.5c0.1,0.1,0.2,0.2,0.3,0.3s0.3,0.1,0.6,0.1    c0.2,0,0.5-0.1,0.8-0.2c0.3-0.1,0.5-0.3,0.8-0.5v-4.1h0.9V154.9z"/> 		<path style="fill:#1A171B;" d="M250.3,150.4L250.3,150.4c-0.2,0-0.3-0.1-0.4-0.1c-0.1,0-0.3,0-0.5,0c-0.3,0-0.6,0.1-0.8,0.2    s-0.5,0.3-0.8,0.5v3.9h-0.9v-5.5h0.9v0.8c0.4-0.3,0.7-0.5,1-0.6c0.3-0.1,0.6-0.2,0.9-0.2c0.2,0,0.3,0,0.3,0s0.2,0,0.3,0V150.4z"/> 		<path style="fill:#1A171B;" d="M252.2,148.5h-1v-1h1V148.5z M252.1,154.9h-0.9v-5.5h0.9V154.9z"/> 		<path style="fill:#1A171B;" d="M254.9,154.9h-0.9v-7.6h0.9V154.9z"/> 		<path style="fill:#1A171B;" d="M257.6,154.9h-0.9v-7.6h0.9V154.9z"/> 		<path style="fill:#1A171B;" d="M264.1,152.1c0,0.9-0.2,1.6-0.7,2.1s-1.1,0.8-1.8,0.8c-0.8,0-1.4-0.3-1.8-0.8    c-0.5-0.5-0.7-1.2-0.7-2.1s0.2-1.6,0.7-2.1c0.5-0.5,1.1-0.8,1.8-0.8c0.8,0,1.4,0.3,1.8,0.8S264.1,151.3,264.1,152.1z M263.1,152.1    c0-0.7-0.1-1.2-0.4-1.6s-0.7-0.5-1.2-0.5c-0.5,0-0.9,0.2-1.2,0.5c-0.3,0.3-0.4,0.9-0.4,1.6c0,0.7,0.1,1.2,0.4,1.6s0.7,0.5,1.2,0.5    c0.5,0,0.9-0.2,1.2-0.5C263,153.4,263.1,152.8,263.1,152.1z"/> 		<path style="fill:#1A171B;" d="M226.6,165.9h-0.9v-0.6c-0.3,0.2-0.5,0.4-0.8,0.5s-0.6,0.2-0.9,0.2c-0.7,0-1.2-0.3-1.6-0.8    c-0.4-0.5-0.6-1.2-0.6-2.1c0-0.5,0.1-0.9,0.2-1.2c0.1-0.4,0.3-0.7,0.5-0.9c0.2-0.2,0.5-0.4,0.8-0.6c0.3-0.1,0.6-0.2,0.9-0.2    c0.3,0,0.5,0,0.8,0.1s0.5,0.2,0.7,0.3v-2.4h0.9V165.9z M225.7,164.5v-3.1c-0.2-0.1-0.5-0.2-0.7-0.2s-0.4-0.1-0.6-0.1    c-0.5,0-0.9,0.2-1.2,0.5s-0.4,0.9-0.4,1.5c0,0.6,0.1,1.1,0.3,1.5s0.6,0.5,1.1,0.5c0.3,0,0.5-0.1,0.8-0.2S225.5,164.7,225.7,164.5z    "/> 		<path style="fill:#1A171B;" d="M233,163.3h-4c0,0.3,0.1,0.6,0.2,0.9s0.2,0.5,0.4,0.6c0.2,0.2,0.4,0.3,0.6,0.4    c0.2,0.1,0.5,0.1,0.8,0.1c0.4,0,0.7-0.1,1.1-0.2c0.4-0.1,0.6-0.3,0.8-0.4h0v1c-0.3,0.1-0.6,0.2-0.9,0.3s-0.7,0.1-1,0.1    c-0.9,0-1.6-0.2-2.1-0.7s-0.8-1.2-0.8-2.1c0-0.9,0.2-1.6,0.7-2.1c0.5-0.5,1.1-0.8,1.9-0.8c0.7,0,1.3,0.2,1.7,0.6    c0.4,0.4,0.6,1,0.6,1.8V163.3z M232.1,162.6c0-0.5-0.1-0.9-0.4-1.1c-0.2-0.3-0.6-0.4-1.1-0.4c-0.5,0-0.9,0.1-1.2,0.4    c-0.3,0.3-0.5,0.6-0.5,1.1H232.1z"/> 		<path style="fill:#1A171B;" d="M244.1,165.3c-0.4,0.2-0.8,0.3-1.3,0.5c-0.5,0.1-0.9,0.2-1.4,0.2c-0.6,0-1.1-0.1-1.6-0.2    s-0.9-0.4-1.2-0.7c-0.3-0.3-0.6-0.7-0.8-1.2s-0.3-1-0.3-1.7c0-1.2,0.3-2.1,1-2.8c0.7-0.7,1.6-1,2.8-1c0.4,0,0.8,0,1.3,0.1    c0.4,0.1,0.9,0.3,1.4,0.5v1.1H244c-0.1-0.1-0.2-0.2-0.4-0.3s-0.4-0.2-0.6-0.3c-0.2-0.1-0.5-0.2-0.8-0.3c-0.3-0.1-0.6-0.1-1-0.1    c-0.8,0-1.5,0.3-1.9,0.8c-0.5,0.5-0.7,1.2-0.7,2.1c0,0.9,0.2,1.7,0.7,2.2s1.2,0.8,2,0.8c0.3,0,0.6,0,0.9-0.1    c0.3-0.1,0.6-0.1,0.8-0.2v-1.8h-1.9v-0.8h2.9V165.3z"/> 		<path style="fill:#1A171B;" d="M249.9,165.9H249v-0.6c-0.1,0.1-0.2,0.1-0.3,0.2c-0.1,0.1-0.3,0.2-0.4,0.2    c-0.2,0.1-0.3,0.1-0.5,0.2s-0.4,0.1-0.7,0.1c-0.5,0-0.9-0.2-1.3-0.5s-0.5-0.7-0.5-1.2c0-0.4,0.1-0.7,0.3-1    c0.2-0.3,0.4-0.5,0.8-0.6c0.3-0.1,0.7-0.2,1.2-0.3s1-0.1,1.5-0.1v-0.1c0-0.2,0-0.4-0.1-0.5c-0.1-0.1-0.2-0.2-0.3-0.3    c-0.1-0.1-0.3-0.1-0.5-0.2s-0.4,0-0.6,0c-0.2,0-0.5,0-0.8,0.1s-0.6,0.2-0.9,0.3h0v-0.9c0.2,0,0.4-0.1,0.8-0.2s0.7-0.1,1-0.1    c0.4,0,0.7,0,1,0.1c0.3,0.1,0.5,0.2,0.7,0.3c0.2,0.1,0.4,0.3,0.5,0.6s0.2,0.5,0.2,0.9V165.9z M249,164.5V163c-0.3,0-0.6,0-1,0.1    c-0.4,0-0.7,0.1-0.9,0.1c-0.3,0.1-0.5,0.2-0.6,0.3s-0.2,0.4-0.2,0.7c0,0.3,0.1,0.5,0.3,0.7s0.5,0.2,0.9,0.2c0.3,0,0.6-0.1,0.9-0.2    S248.8,164.7,249,164.5z M249.3,157.7l-1.3,1.8h-0.7l0.9-1.8H249.3z"/> 		<path style="fill:#1A171B;" d="M252.6,165.9h-0.9v-7.6h0.9V165.9z"/> 		<path style="fill:#1A171B;" d="M255.4,165.9h-0.9v-7.6h0.9V165.9z"/> 		<path style="fill:#1A171B;" d="M261.7,163.3h-4c0,0.3,0.1,0.6,0.2,0.9s0.2,0.5,0.4,0.6c0.2,0.2,0.4,0.3,0.6,0.4    c0.2,0.1,0.5,0.1,0.8,0.1c0.4,0,0.7-0.1,1.1-0.2c0.4-0.1,0.6-0.3,0.8-0.4h0v1c-0.3,0.1-0.6,0.2-0.9,0.3s-0.7,0.1-1,0.1    c-0.9,0-1.6-0.2-2.1-0.7s-0.8-1.2-0.8-2.1c0-0.9,0.2-1.6,0.7-2.1c0.5-0.5,1.1-0.8,1.9-0.8c0.7,0,1.3,0.2,1.7,0.6    c0.4,0.4,0.6,1,0.6,1.8V163.3z M260.8,162.6c0-0.5-0.1-0.9-0.4-1.1c-0.2-0.3-0.6-0.4-1.1-0.4c-0.5,0-0.9,0.1-1.2,0.4    c-0.3,0.3-0.5,0.6-0.5,1.1H260.8z"/> 		<path style="fill:#1A171B;" d="M267.6,165.3c0,0.9-0.2,1.6-0.6,2s-1.1,0.6-1.9,0.6c-0.3,0-0.6,0-0.8-0.1c-0.3,0-0.5-0.1-0.8-0.2    v-0.9h0c0.1,0.1,0.4,0.1,0.7,0.2s0.7,0.1,1,0.1c0.3,0,0.6,0,0.8-0.1s0.4-0.2,0.5-0.3c0.1-0.1,0.2-0.3,0.2-0.5s0.1-0.4,0.1-0.6    v-0.5c-0.3,0.2-0.5,0.4-0.8,0.5c-0.3,0.1-0.6,0.2-1,0.2c-0.7,0-1.2-0.2-1.6-0.7c-0.4-0.5-0.6-1.1-0.6-2c0-0.5,0.1-0.9,0.2-1.2    c0.1-0.3,0.3-0.6,0.5-0.9c0.2-0.2,0.5-0.4,0.8-0.5s0.6-0.2,0.9-0.2c0.3,0,0.6,0,0.8,0.1c0.2,0.1,0.4,0.2,0.7,0.3l0.1-0.2h0.9    V165.3z M266.6,164.4v-3c-0.2-0.1-0.5-0.2-0.7-0.2c-0.2,0-0.4-0.1-0.6-0.1c-0.5,0-0.9,0.2-1.2,0.5s-0.4,0.8-0.4,1.5    c0,0.6,0.1,1.1,0.3,1.4s0.6,0.5,1.1,0.5c0.3,0,0.5-0.1,0.8-0.2C266.2,164.7,266.4,164.6,266.6,164.4z"/> 		<path style="fill:#1A171B;" d="M274,163.2c0,0.9-0.2,1.6-0.7,2.1s-1.1,0.8-1.8,0.8c-0.8,0-1.4-0.3-1.8-0.8    c-0.5-0.5-0.7-1.2-0.7-2.1s0.2-1.6,0.7-2.1c0.5-0.5,1.1-0.8,1.8-0.8c0.8,0,1.4,0.3,1.8,0.8S274,162.3,274,163.2z M273.1,163.2    c0-0.7-0.1-1.2-0.4-1.6s-0.7-0.5-1.2-0.5c-0.5,0-0.9,0.2-1.2,0.5c-0.3,0.3-0.4,0.9-0.4,1.6c0,0.7,0.1,1.2,0.4,1.6s0.7,0.5,1.2,0.5    c0.5,0,0.9-0.2,1.1-0.5C272.9,164.4,273.1,163.9,273.1,163.2z"/> 	</g> 	<g> 		<rect x="185.7" y="202.6" style="fill-rule:evenodd;clip-rule:evenodd;fill:none;" width="66.6" height="22"/> 		<path style="fill:#1A171B;" d="M193,209c0,0.3-0.1,0.6-0.2,0.8c-0.1,0.3-0.3,0.5-0.6,0.7c-0.3,0.2-0.6,0.4-0.9,0.5    c-0.3,0.1-0.8,0.2-1.3,0.2c-0.5,0-1,0-1.4-0.1c-0.4-0.1-0.8-0.2-1.3-0.4v-1.2h0.1c0.4,0.3,0.8,0.5,1.3,0.7s0.9,0.2,1.4,0.2    c0.6,0,1.1-0.1,1.4-0.3c0.3-0.2,0.5-0.5,0.5-0.9c0-0.3-0.1-0.6-0.2-0.7c-0.2-0.2-0.4-0.3-0.7-0.4c-0.2-0.1-0.5-0.1-0.8-0.2    c-0.3,0-0.6-0.1-0.9-0.2c-0.6-0.1-1.1-0.4-1.4-0.7c-0.3-0.3-0.5-0.8-0.5-1.3c0-0.6,0.3-1.1,0.8-1.5s1.2-0.6,2-0.6    c0.5,0,1,0,1.4,0.1s0.8,0.2,1.1,0.4v1.1h-0.1c-0.3-0.2-0.6-0.4-1.1-0.6c-0.5-0.2-0.9-0.2-1.4-0.2c-0.5,0-0.9,0.1-1.2,0.3    c-0.3,0.2-0.5,0.5-0.5,0.8c0,0.3,0.1,0.5,0.2,0.7s0.4,0.3,0.8,0.4c0.2,0,0.5,0.1,0.9,0.2s0.7,0.1,1,0.2c0.5,0.1,0.9,0.4,1.2,0.6    S193,208.5,193,209z"/> 		<path style="fill:#1A171B;" d="M198.7,211.1h-0.9v-0.6c-0.1,0.1-0.2,0.1-0.3,0.2c-0.1,0.1-0.3,0.2-0.4,0.2    c-0.2,0.1-0.3,0.1-0.5,0.2s-0.4,0.1-0.7,0.1c-0.5,0-0.9-0.2-1.3-0.5s-0.5-0.7-0.5-1.2c0-0.4,0.1-0.7,0.3-1    c0.2-0.3,0.4-0.5,0.8-0.6c0.3-0.1,0.7-0.2,1.2-0.3s1-0.1,1.5-0.1v-0.1c0-0.2,0-0.4-0.1-0.5c-0.1-0.1-0.2-0.2-0.3-0.3    c-0.1-0.1-0.3-0.1-0.5-0.2s-0.4,0-0.6,0c-0.2,0-0.5,0-0.8,0.1s-0.6,0.2-0.9,0.3h0v-0.9c0.2,0,0.4-0.1,0.8-0.2s0.7-0.1,1-0.1    c0.4,0,0.7,0,1,0.1c0.3,0.1,0.5,0.2,0.7,0.3c0.2,0.1,0.4,0.3,0.5,0.6s0.2,0.5,0.2,0.9V211.1z M197.8,209.7v-1.5    c-0.3,0-0.6,0-1,0.1c-0.4,0-0.7,0.1-0.9,0.1c-0.3,0.1-0.5,0.2-0.6,0.3s-0.2,0.4-0.2,0.7c0,0.3,0.1,0.5,0.3,0.7s0.5,0.2,0.9,0.2    c0.3,0,0.6-0.1,0.9-0.2S197.6,209.9,197.8,209.7z"/> 		<path style="fill:#1A171B;" d="M205.1,211.1h-0.9V208c0-0.3,0-0.5,0-0.7s-0.1-0.4-0.2-0.5c-0.1-0.1-0.2-0.2-0.4-0.3    s-0.4-0.1-0.6-0.1c-0.3,0-0.5,0.1-0.8,0.2s-0.5,0.3-0.8,0.5v4.1h-0.9v-5.5h0.9v0.6c0.3-0.2,0.6-0.4,0.9-0.6s0.6-0.2,0.9-0.2    c0.6,0,1,0.2,1.3,0.5s0.5,0.9,0.5,1.5V211.1z"/> 		<path style="fill:#1A171B;" d="M209.7,211c-0.2,0-0.4,0.1-0.6,0.1c-0.2,0-0.4,0-0.5,0c-0.6,0-1-0.1-1.3-0.4s-0.4-0.8-0.4-1.4v-2.9    h-0.6v-0.8h0.6V204h0.9v1.6h1.9v0.8h-1.9v2.5c0,0.3,0,0.5,0,0.7s0.1,0.3,0.1,0.5c0.1,0.1,0.2,0.2,0.3,0.3c0.1,0.1,0.3,0.1,0.6,0.1    c0.1,0,0.3,0,0.5-0.1s0.3-0.1,0.4-0.1h0V211z"/> 		<path style="fill:#1A171B;" d="M215,211.1h-0.9v-0.6c-0.1,0.1-0.2,0.1-0.3,0.2c-0.1,0.1-0.3,0.2-0.4,0.2c-0.2,0.1-0.3,0.1-0.5,0.2    s-0.4,0.1-0.7,0.1c-0.5,0-0.9-0.2-1.3-0.5s-0.5-0.7-0.5-1.2c0-0.4,0.1-0.7,0.3-1c0.2-0.3,0.4-0.5,0.8-0.6c0.3-0.1,0.7-0.2,1.2-0.3    s1-0.1,1.5-0.1v-0.1c0-0.2,0-0.4-0.1-0.5c-0.1-0.1-0.2-0.2-0.3-0.3c-0.1-0.1-0.3-0.1-0.5-0.2s-0.4,0-0.6,0c-0.2,0-0.5,0-0.8,0.1    s-0.6,0.2-0.9,0.3h0v-0.9c0.2,0,0.4-0.1,0.8-0.2s0.7-0.1,1-0.1c0.4,0,0.7,0,1,0.1c0.3,0.1,0.5,0.2,0.7,0.3    c0.2,0.1,0.4,0.3,0.5,0.6s0.2,0.5,0.2,0.9V211.1z M214.1,209.7v-1.5c-0.3,0-0.6,0-1,0.1c-0.4,0-0.7,0.1-0.9,0.1    c-0.3,0.1-0.5,0.2-0.6,0.3s-0.2,0.4-0.2,0.7c0,0.3,0.1,0.5,0.3,0.7s0.5,0.2,0.9,0.2c0.3,0,0.6-0.1,0.9-0.2    S213.9,209.9,214.1,209.7z"/> 		<path style="fill:#1A171B;" d="M225.2,211.1h-4.8v-7.3h4.8v0.9h-3.8v2h3.8v0.9h-3.8v2.7h3.8V211.1z"/> 		<path style="fill:#1A171B;" d="M231.1,211.1h-0.9v-0.6c-0.3,0.2-0.6,0.4-0.9,0.6s-0.6,0.2-0.9,0.2c-0.6,0-1-0.2-1.3-0.5    s-0.5-0.9-0.5-1.5v-3.5h0.9v3.1c0,0.3,0,0.5,0,0.7s0.1,0.4,0.2,0.5c0.1,0.1,0.2,0.2,0.3,0.3s0.3,0.1,0.6,0.1    c0.2,0,0.5-0.1,0.8-0.2c0.3-0.1,0.5-0.3,0.8-0.5v-4.1h0.9V211.1z"/> 		<path style="fill:#1A171B;" d="M233.9,211.1H233v-7.6h0.9V211.1z"/> 		<path style="fill:#1A171B;" d="M239.9,211.1H239v-0.6c-0.1,0.1-0.2,0.1-0.3,0.2c-0.1,0.1-0.3,0.2-0.4,0.2    c-0.2,0.1-0.3,0.1-0.5,0.2s-0.4,0.1-0.7,0.1c-0.5,0-0.9-0.2-1.3-0.5s-0.5-0.7-0.5-1.2c0-0.4,0.1-0.7,0.3-1    c0.2-0.3,0.4-0.5,0.8-0.6c0.3-0.1,0.7-0.2,1.2-0.3s1-0.1,1.5-0.1v-0.1c0-0.2,0-0.4-0.1-0.5c-0.1-0.1-0.2-0.2-0.3-0.3    c-0.1-0.1-0.3-0.1-0.5-0.2s-0.4,0-0.6,0c-0.2,0-0.5,0-0.8,0.1s-0.6,0.2-0.9,0.3h0v-0.9c0.2,0,0.4-0.1,0.8-0.2s0.7-0.1,1-0.1    c0.4,0,0.7,0,1,0.1c0.3,0.1,0.5,0.2,0.7,0.3c0.2,0.1,0.4,0.3,0.5,0.6s0.2,0.5,0.2,0.9V211.1z M239,209.7v-1.5c-0.3,0-0.6,0-1,0.1    c-0.4,0-0.7,0.1-0.9,0.1c-0.3,0.1-0.5,0.2-0.6,0.3s-0.2,0.4-0.2,0.7c0,0.3,0.1,0.5,0.3,0.7s0.5,0.2,0.9,0.2c0.3,0,0.6-0.1,0.9-0.2    S238.8,209.9,239,209.7z"/> 		<path style="fill:#1A171B;" d="M242.6,211.1h-0.9v-7.6h0.9V211.1z"/> 		<path style="fill:#1A171B;" d="M245.4,204.7h-1v-1h1V204.7z M245.4,211.1h-0.9v-5.5h0.9V211.1z"/> 		<path style="fill:#1A171B;" d="M251.4,211.1h-0.9v-0.6c-0.1,0.1-0.2,0.1-0.3,0.2c-0.1,0.1-0.3,0.2-0.4,0.2    c-0.2,0.1-0.3,0.1-0.5,0.2s-0.4,0.1-0.7,0.1c-0.5,0-0.9-0.2-1.3-0.5s-0.5-0.7-0.5-1.2c0-0.4,0.1-0.7,0.3-1    c0.2-0.3,0.4-0.5,0.8-0.6c0.3-0.1,0.7-0.2,1.2-0.3s1-0.1,1.5-0.1v-0.1c0-0.2,0-0.4-0.1-0.5c-0.1-0.1-0.2-0.2-0.3-0.3    c-0.1-0.1-0.3-0.1-0.5-0.2s-0.4,0-0.6,0c-0.2,0-0.5,0-0.8,0.1s-0.6,0.2-0.9,0.3h0v-0.9c0.2,0,0.4-0.1,0.8-0.2s0.7-0.1,1-0.1    c0.4,0,0.7,0,1,0.1c0.3,0.1,0.5,0.2,0.7,0.3c0.2,0.1,0.4,0.3,0.5,0.6s0.2,0.5,0.2,0.9V211.1z M250.5,209.7v-1.5    c-0.3,0-0.6,0-1,0.1c-0.4,0-0.7,0.1-0.9,0.1c-0.3,0.1-0.5,0.2-0.6,0.3s-0.2,0.4-0.2,0.7c0,0.3,0.1,0.5,0.3,0.7s0.5,0.2,0.9,0.2    c0.3,0,0.6-0.1,0.9-0.2S250.3,209.9,250.5,209.7z"/> 		<path style="fill:#1A171B;" d="M204.4,222.1h-0.9v-0.6c-0.3,0.2-0.5,0.4-0.8,0.5s-0.6,0.2-0.9,0.2c-0.7,0-1.2-0.3-1.6-0.8    c-0.4-0.5-0.6-1.2-0.6-2.1c0-0.5,0.1-0.9,0.2-1.2c0.1-0.4,0.3-0.7,0.5-0.9c0.2-0.2,0.5-0.4,0.8-0.6c0.3-0.1,0.6-0.2,0.9-0.2    c0.3,0,0.5,0,0.8,0.1s0.5,0.2,0.7,0.3v-2.4h0.9V222.1z M203.5,220.7v-3.1c-0.2-0.1-0.5-0.2-0.7-0.2s-0.4-0.1-0.6-0.1    c-0.5,0-0.9,0.2-1.2,0.5s-0.4,0.9-0.4,1.5c0,0.6,0.1,1.1,0.3,1.5s0.6,0.5,1.1,0.5c0.3,0,0.5-0.1,0.8-0.2S203.3,220.9,203.5,220.7z    "/> 		<path style="fill:#1A171B;" d="M210.8,219.4h-4c0,0.3,0.1,0.6,0.2,0.9s0.2,0.5,0.4,0.6c0.2,0.2,0.4,0.3,0.6,0.4    c0.2,0.1,0.5,0.1,0.8,0.1c0.4,0,0.7-0.1,1.1-0.2c0.4-0.1,0.6-0.3,0.8-0.4h0v1c-0.3,0.1-0.6,0.2-0.9,0.3s-0.7,0.1-1,0.1    c-0.9,0-1.6-0.2-2.1-0.7s-0.8-1.2-0.8-2.1c0-0.9,0.2-1.6,0.7-2.1c0.5-0.5,1.1-0.8,1.9-0.8c0.7,0,1.3,0.2,1.7,0.6    c0.4,0.4,0.6,1,0.6,1.8V219.4z M209.9,218.7c0-0.5-0.1-0.9-0.4-1.1c-0.2-0.3-0.6-0.4-1.1-0.4c-0.5,0-0.9,0.1-1.2,0.4    c-0.3,0.3-0.5,0.6-0.5,1.1H209.9z"/> 		<path style="fill:#1A171B;" d="M221.8,221.5c-0.4,0.2-0.8,0.3-1.3,0.5c-0.5,0.1-0.9,0.2-1.4,0.2c-0.6,0-1.1-0.1-1.6-0.2    s-0.9-0.4-1.2-0.7c-0.3-0.3-0.6-0.7-0.8-1.2s-0.3-1-0.3-1.7c0-1.2,0.3-2.1,1-2.8c0.7-0.7,1.6-1,2.8-1c0.4,0,0.8,0,1.3,0.1    c0.4,0.1,0.9,0.3,1.4,0.5v1.1h-0.1c-0.1-0.1-0.2-0.2-0.4-0.3s-0.4-0.2-0.6-0.3c-0.2-0.1-0.5-0.2-0.8-0.3c-0.3-0.1-0.6-0.1-1-0.1    c-0.8,0-1.5,0.3-1.9,0.8c-0.5,0.5-0.7,1.2-0.7,2.1c0,0.9,0.2,1.7,0.7,2.2s1.2,0.8,2,0.8c0.3,0,0.6,0,0.9-0.1    c0.3-0.1,0.6-0.1,0.8-0.2v-1.8h-1.9v-0.8h2.9V221.5z"/> 		<path style="fill:#1A171B;" d="M227.7,222.1h-0.9v-0.6c-0.1,0.1-0.2,0.1-0.3,0.2c-0.1,0.1-0.3,0.2-0.4,0.2    c-0.2,0.1-0.3,0.1-0.5,0.2s-0.4,0.1-0.7,0.1c-0.5,0-0.9-0.2-1.3-0.5s-0.5-0.7-0.5-1.2c0-0.4,0.1-0.7,0.3-1    c0.2-0.3,0.4-0.5,0.8-0.6c0.3-0.1,0.7-0.2,1.2-0.3s1-0.1,1.5-0.1v-0.1c0-0.2,0-0.4-0.1-0.5c-0.1-0.1-0.2-0.2-0.3-0.3    c-0.1-0.1-0.3-0.1-0.5-0.2s-0.4,0-0.6,0c-0.2,0-0.5,0-0.8,0.1s-0.6,0.2-0.9,0.3h0v-0.9c0.2,0,0.4-0.1,0.8-0.2s0.7-0.1,1-0.1    c0.4,0,0.7,0,1,0.1c0.3,0.1,0.5,0.2,0.7,0.3c0.2,0.1,0.4,0.3,0.5,0.6s0.2,0.5,0.2,0.9V222.1z M226.8,220.7v-1.5    c-0.3,0-0.6,0-1,0.1c-0.4,0-0.7,0.1-0.9,0.1c-0.3,0.1-0.5,0.2-0.6,0.3s-0.2,0.4-0.2,0.7c0,0.3,0.1,0.5,0.3,0.7s0.5,0.2,0.9,0.2    c0.3,0,0.6-0.1,0.9-0.2S226.5,220.9,226.8,220.7z M227.1,213.9l-1.3,1.8H225l0.9-1.8H227.1z"/> 		<path style="fill:#1A171B;" d="M230.4,222.1h-0.9v-7.6h0.9V222.1z"/> 		<path style="fill:#1A171B;" d="M233.1,222.1h-0.9v-7.6h0.9V222.1z"/> 		<path style="fill:#1A171B;" d="M239.5,219.4h-4c0,0.3,0.1,0.6,0.2,0.9s0.2,0.5,0.4,0.6c0.2,0.2,0.4,0.3,0.6,0.4    c0.2,0.1,0.5,0.1,0.8,0.1c0.4,0,0.7-0.1,1.1-0.2c0.4-0.1,0.6-0.3,0.8-0.4h0v1c-0.3,0.1-0.6,0.2-0.9,0.3s-0.7,0.1-1,0.1    c-0.9,0-1.6-0.2-2.1-0.7s-0.8-1.2-0.8-2.1c0-0.9,0.2-1.6,0.7-2.1c0.5-0.5,1.1-0.8,1.9-0.8c0.7,0,1.3,0.2,1.7,0.6    c0.4,0.4,0.6,1,0.6,1.8V219.4z M238.6,218.7c0-0.5-0.1-0.9-0.4-1.1c-0.2-0.3-0.6-0.4-1.1-0.4c-0.5,0-0.9,0.1-1.2,0.4    c-0.3,0.3-0.5,0.6-0.5,1.1H238.6z"/> 		<path style="fill:#1A171B;" d="M245.3,221.4c0,0.9-0.2,1.6-0.6,2s-1.1,0.6-1.9,0.6c-0.3,0-0.6,0-0.8-0.1c-0.3,0-0.5-0.1-0.8-0.2    V223h0c0.1,0.1,0.4,0.1,0.7,0.2s0.7,0.1,1,0.1c0.3,0,0.6,0,0.8-0.1s0.4-0.2,0.5-0.3c0.1-0.1,0.2-0.3,0.2-0.5s0.1-0.4,0.1-0.6v-0.5    c-0.3,0.2-0.5,0.4-0.8,0.5c-0.3,0.1-0.6,0.2-1,0.2c-0.7,0-1.2-0.2-1.6-0.7c-0.4-0.5-0.6-1.1-0.6-2c0-0.5,0.1-0.9,0.2-1.2    c0.1-0.3,0.3-0.6,0.5-0.9c0.2-0.2,0.5-0.4,0.8-0.5s0.6-0.2,0.9-0.2c0.3,0,0.6,0,0.8,0.1c0.2,0.1,0.4,0.2,0.7,0.3l0.1-0.2h0.9    V221.4z M244.4,220.6v-3c-0.2-0.1-0.5-0.2-0.7-0.2c-0.2,0-0.4-0.1-0.6-0.1c-0.5,0-0.9,0.2-1.2,0.5s-0.4,0.8-0.4,1.5    c0,0.6,0.1,1.1,0.3,1.4s0.6,0.5,1.1,0.5c0.3,0,0.5-0.1,0.8-0.2C243.9,220.9,244.2,220.7,244.4,220.6z"/> 		<path style="fill:#1A171B;" d="M251.8,219.3c0,0.9-0.2,1.6-0.7,2.1s-1.1,0.8-1.8,0.8c-0.8,0-1.4-0.3-1.8-0.8    c-0.5-0.5-0.7-1.2-0.7-2.1s0.2-1.6,0.7-2.1c0.5-0.5,1.1-0.8,1.8-0.8c0.8,0,1.4,0.3,1.8,0.8S251.8,218.5,251.8,219.3z M250.8,219.3    c0-0.7-0.1-1.2-0.4-1.6s-0.7-0.5-1.2-0.5c-0.5,0-0.9,0.2-1.2,0.5c-0.3,0.3-0.4,0.9-0.4,1.6c0,0.7,0.1,1.2,0.4,1.6s0.7,0.5,1.2,0.5    c0.5,0,0.9-0.2,1.1-0.5C250.7,220.6,250.8,220,250.8,219.3z"/> 	</g> 	<g> 		<rect x="135.7" y="305.7" style="fill-rule:evenodd;clip-rule:evenodd;fill:none;" width="54.3" height="22"/> 		<path style="fill:#1A171B;" d="M164.1,314.2h-1v-6.3l-2,4.3h-0.6l-2-4.3v6.3h-0.9v-7.3h1.3l1.9,4l1.9-4h1.3V314.2z"/> 		<path style="fill:#1A171B;" d="M170.5,314.2h-0.9v-0.6c-0.3,0.2-0.6,0.4-0.9,0.6s-0.6,0.2-0.9,0.2c-0.6,0-1-0.2-1.3-0.5    c-0.3-0.4-0.5-0.9-0.5-1.5v-3.5h0.9v3.1c0,0.3,0,0.5,0,0.7c0,0.2,0.1,0.4,0.2,0.5c0.1,0.1,0.2,0.2,0.3,0.3s0.3,0.1,0.6,0.1    c0.2,0,0.5-0.1,0.8-0.2c0.3-0.1,0.5-0.3,0.8-0.5v-4.1h0.9V314.2z"/> 		<path style="fill:#1A171B;" d="M175.8,309.8L175.8,309.8c-0.2,0-0.3-0.1-0.4-0.1c-0.1,0-0.3,0-0.5,0c-0.3,0-0.6,0.1-0.8,0.2    c-0.3,0.1-0.5,0.3-0.8,0.5v3.9h-0.9v-5.5h0.9v0.8c0.4-0.3,0.7-0.5,1-0.6c0.3-0.1,0.6-0.2,0.9-0.2c0.2,0,0.3,0,0.3,0    c0.1,0,0.2,0,0.3,0V309.8z"/> 		<path style="fill:#1A171B;" d="M177.6,307.8h-1v-1h1V307.8z M177.5,314.2h-0.9v-5.5h0.9V314.2z"/> 		<path style="fill:#1A171B;" d="M180.3,314.2h-0.9v-7.6h0.9V314.2z"/> 		<path style="fill:#1A171B;" d="M183,314.2h-0.9v-7.6h0.9V314.2z"/> 		<path style="fill:#1A171B;" d="M189.5,311.5c0,0.9-0.2,1.6-0.7,2.1s-1.1,0.8-1.8,0.8c-0.8,0-1.4-0.3-1.8-0.8    c-0.5-0.5-0.7-1.2-0.7-2.1s0.2-1.6,0.7-2.1c0.5-0.5,1.1-0.8,1.8-0.8c0.8,0,1.4,0.3,1.8,0.8C189.3,309.9,189.5,310.6,189.5,311.5z     M188.6,311.5c0-0.7-0.1-1.2-0.4-1.6c-0.3-0.3-0.7-0.5-1.2-0.5c-0.5,0-0.9,0.2-1.2,0.5c-0.3,0.3-0.4,0.9-0.4,1.6    c0,0.7,0.1,1.2,0.4,1.6c0.3,0.4,0.7,0.5,1.2,0.5c0.5,0,0.9-0.2,1.1-0.5C188.4,312.7,188.6,312.2,188.6,311.5z"/> 		<path style="fill:#1A171B;" d="M142.1,325.2h-0.9v-0.6c-0.3,0.2-0.5,0.4-0.8,0.5s-0.6,0.2-0.9,0.2c-0.7,0-1.2-0.3-1.6-0.8    c-0.4-0.5-0.6-1.2-0.6-2.1c0-0.5,0.1-0.9,0.2-1.2c0.1-0.4,0.3-0.7,0.5-0.9c0.2-0.2,0.5-0.4,0.8-0.6c0.3-0.1,0.6-0.2,0.9-0.2    c0.3,0,0.5,0,0.8,0.1s0.5,0.2,0.7,0.3v-2.4h0.9V325.2z M141.2,323.9v-3.1c-0.2-0.1-0.5-0.2-0.7-0.2c-0.2,0-0.4-0.1-0.6-0.1    c-0.5,0-0.9,0.2-1.2,0.5c-0.3,0.4-0.4,0.9-0.4,1.5c0,0.6,0.1,1.1,0.3,1.5s0.6,0.5,1.1,0.5c0.3,0,0.5-0.1,0.8-0.2    S141,324.1,141.2,323.9z"/> 		<path style="fill:#1A171B;" d="M148.5,322.6h-4c0,0.3,0.1,0.6,0.2,0.9s0.2,0.5,0.4,0.6c0.2,0.2,0.4,0.3,0.6,0.4    c0.2,0.1,0.5,0.1,0.8,0.1c0.4,0,0.7-0.1,1.1-0.2c0.4-0.1,0.6-0.3,0.8-0.4h0v1c-0.3,0.1-0.6,0.2-0.9,0.3s-0.7,0.1-1,0.1    c-0.9,0-1.6-0.2-2.1-0.7s-0.8-1.2-0.8-2.1c0-0.9,0.2-1.6,0.7-2.1c0.5-0.5,1.1-0.8,1.9-0.8c0.7,0,1.3,0.2,1.7,0.6    c0.4,0.4,0.6,1,0.6,1.8V322.6z M147.6,321.9c0-0.5-0.1-0.9-0.4-1.1c-0.2-0.3-0.6-0.4-1.1-0.4c-0.5,0-0.9,0.1-1.2,0.4    c-0.3,0.3-0.5,0.7-0.5,1.1H147.6z"/> 		<path style="fill:#1A171B;" d="M159.6,324.7c-0.4,0.2-0.8,0.3-1.3,0.5c-0.5,0.1-0.9,0.2-1.4,0.2c-0.6,0-1.1-0.1-1.6-0.2    s-0.9-0.4-1.2-0.7c-0.3-0.3-0.6-0.7-0.8-1.2s-0.3-1-0.3-1.7c0-1.2,0.3-2.1,1-2.8c0.7-0.7,1.6-1,2.8-1c0.4,0,0.8,0.1,1.3,0.1    c0.4,0.1,0.9,0.3,1.4,0.5v1.1h-0.1c-0.1-0.1-0.2-0.2-0.4-0.3s-0.4-0.2-0.6-0.3c-0.2-0.1-0.5-0.2-0.8-0.3c-0.3-0.1-0.6-0.1-1-0.1    c-0.8,0-1.5,0.3-1.9,0.8c-0.5,0.5-0.7,1.2-0.7,2.1c0,0.9,0.2,1.7,0.7,2.2s1.2,0.8,2,0.8c0.3,0,0.6,0,0.9-0.1    c0.3-0.1,0.6-0.1,0.8-0.2v-1.8h-1.9v-0.8h2.9V324.7z"/> 		<path style="fill:#1A171B;" d="M165.4,325.2h-0.9v-0.6c-0.1,0.1-0.2,0.1-0.3,0.2c-0.1,0.1-0.3,0.2-0.4,0.2    c-0.2,0.1-0.3,0.1-0.5,0.2s-0.4,0.1-0.7,0.1c-0.5,0-0.9-0.2-1.3-0.5c-0.3-0.3-0.5-0.7-0.5-1.2c0-0.4,0.1-0.7,0.3-1    c0.2-0.3,0.4-0.5,0.8-0.6c0.3-0.1,0.7-0.2,1.2-0.3c0.5-0.1,1-0.1,1.5-0.1v-0.1c0-0.2,0-0.4-0.1-0.5c-0.1-0.1-0.2-0.2-0.3-0.3    c-0.1-0.1-0.3-0.1-0.5-0.2c-0.2,0-0.4,0-0.6,0c-0.2,0-0.5,0-0.8,0.1s-0.6,0.2-0.9,0.3h0v-0.9c0.2,0,0.4-0.1,0.8-0.2s0.7-0.1,1-0.1    c0.4,0,0.7,0,1,0.1c0.3,0.1,0.5,0.2,0.7,0.3c0.2,0.2,0.4,0.3,0.5,0.6c0.1,0.2,0.2,0.5,0.2,0.9V325.2z M164.5,323.9v-1.5    c-0.3,0-0.6,0-1,0.1c-0.4,0-0.7,0.1-0.9,0.1c-0.3,0.1-0.5,0.2-0.6,0.3s-0.2,0.4-0.2,0.7c0,0.3,0.1,0.5,0.3,0.7s0.5,0.2,0.9,0.2    c0.3,0,0.6-0.1,0.9-0.2S164.3,324.1,164.5,323.9z M164.8,317l-1.3,1.8h-0.7l0.9-1.8H164.8z"/> 		<path style="fill:#1A171B;" d="M168.1,325.2h-0.9v-7.6h0.9V325.2z"/> 		<path style="fill:#1A171B;" d="M170.8,325.2h-0.9v-7.6h0.9V325.2z"/> 		<path style="fill:#1A171B;" d="M177.2,322.6h-4c0,0.3,0.1,0.6,0.2,0.9s0.2,0.5,0.4,0.6c0.2,0.2,0.4,0.3,0.6,0.4    c0.2,0.1,0.5,0.1,0.8,0.1c0.4,0,0.7-0.1,1.1-0.2c0.4-0.1,0.6-0.3,0.8-0.4h0v1c-0.3,0.1-0.6,0.2-0.9,0.3s-0.7,0.1-1,0.1    c-0.9,0-1.6-0.2-2.1-0.7s-0.8-1.2-0.8-2.1c0-0.9,0.2-1.6,0.7-2.1c0.5-0.5,1.1-0.8,1.9-0.8c0.7,0,1.3,0.2,1.7,0.6    c0.4,0.4,0.6,1,0.6,1.8V322.6z M176.3,321.9c0-0.5-0.1-0.9-0.4-1.1c-0.2-0.3-0.6-0.4-1.1-0.4c-0.5,0-0.9,0.1-1.2,0.4    c-0.3,0.3-0.5,0.7-0.5,1.1H176.3z"/> 		<path style="fill:#1A171B;" d="M183,324.6c0,0.9-0.2,1.6-0.6,2c-0.4,0.4-1.1,0.7-1.9,0.7c-0.3,0-0.6,0-0.8-0.1    c-0.3,0-0.5-0.1-0.8-0.2v-0.9h0c0.1,0.1,0.4,0.1,0.7,0.2s0.7,0.1,1,0.1c0.3,0,0.6,0,0.8-0.1c0.2-0.1,0.4-0.2,0.5-0.3    c0.1-0.1,0.2-0.3,0.2-0.5c0-0.2,0.1-0.4,0.1-0.6v-0.5c-0.3,0.2-0.5,0.4-0.8,0.5c-0.3,0.1-0.6,0.2-1,0.2c-0.7,0-1.2-0.2-1.6-0.7    c-0.4-0.5-0.6-1.1-0.6-2c0-0.5,0.1-0.9,0.2-1.2c0.1-0.3,0.3-0.6,0.5-0.9c0.2-0.2,0.5-0.4,0.8-0.5s0.6-0.2,0.9-0.2    c0.3,0,0.6,0,0.8,0.1c0.2,0.1,0.4,0.2,0.7,0.3l0.1-0.2h0.9V324.6z M182.1,323.7v-3c-0.2-0.1-0.5-0.2-0.7-0.2    c-0.2,0-0.4-0.1-0.6-0.1c-0.5,0-0.9,0.2-1.2,0.5c-0.3,0.3-0.4,0.8-0.4,1.5c0,0.6,0.1,1.1,0.3,1.4c0.2,0.3,0.6,0.5,1.1,0.5    c0.3,0,0.5-0.1,0.8-0.2C181.7,324,181.9,323.9,182.1,323.7z"/> 		<path style="fill:#1A171B;" d="M189.5,322.5c0,0.9-0.2,1.6-0.7,2.1c-0.5,0.5-1.1,0.8-1.8,0.8c-0.8,0-1.4-0.3-1.8-0.8    c-0.5-0.5-0.7-1.2-0.7-2.1s0.2-1.6,0.7-2.1c0.5-0.5,1.1-0.8,1.8-0.8c0.8,0,1.4,0.3,1.8,0.8S189.5,321.6,189.5,322.5z M188.6,322.5    c0-0.7-0.1-1.2-0.4-1.6s-0.7-0.5-1.2-0.5c-0.5,0-0.9,0.2-1.2,0.5c-0.3,0.3-0.4,0.9-0.4,1.6c0,0.7,0.1,1.2,0.4,1.6s0.7,0.5,1.2,0.5    c0.5,0,0.9-0.2,1.1-0.5C188.4,323.7,188.6,323.2,188.6,322.5z"/> 	</g> 	<g> 		<rect x="157.6" y="368.1" style="fill-rule:evenodd;clip-rule:evenodd;fill:none;" width="54.3" height="22"/> 		<path style="fill:#1A171B;" d="M175.5,376.6h-1v-6.3l-2,4.3h-0.6l-2-4.3v6.3H169v-7.3h1.3l1.9,4l1.9-4h1.3V376.6z"/> 		<path style="fill:#1A171B;" d="M181.9,376.6H181V376c-0.3,0.2-0.6,0.4-0.9,0.6s-0.6,0.2-0.9,0.2c-0.6,0-1-0.2-1.3-0.5    c-0.3-0.4-0.5-0.9-0.5-1.5v-3.5h0.9v3.1c0,0.3,0,0.5,0,0.7c0,0.2,0.1,0.4,0.2,0.5c0.1,0.1,0.2,0.2,0.3,0.3s0.3,0.1,0.6,0.1    c0.2,0,0.5-0.1,0.8-0.2c0.3-0.1,0.5-0.3,0.8-0.5v-4.1h0.9V376.6z"/> 		<path style="fill:#1A171B;" d="M187.1,372.2L187.1,372.2c-0.2,0-0.3-0.1-0.4-0.1c-0.1,0-0.3,0-0.5,0c-0.3,0-0.6,0.1-0.8,0.2    c-0.3,0.1-0.5,0.3-0.8,0.5v3.9h-0.9v-5.5h0.9v0.8c0.4-0.3,0.7-0.5,1-0.6c0.3-0.1,0.6-0.2,0.9-0.2c0.2,0,0.3,0,0.3,0    c0.1,0,0.2,0,0.3,0V372.2z"/> 		<path style="fill:#1A171B;" d="M189,370.3h-1v-1h1V370.3z M188.9,376.6H188v-5.5h0.9V376.6z"/> 		<path style="fill:#1A171B;" d="M191.7,376.6h-0.9v-7.6h0.9V376.6z"/> 		<path style="fill:#1A171B;" d="M194.4,376.6h-0.9v-7.6h0.9V376.6z"/> 		<path style="fill:#1A171B;" d="M200.9,373.9c0,0.9-0.2,1.6-0.7,2.1s-1.1,0.8-1.8,0.8c-0.8,0-1.4-0.3-1.8-0.8    c-0.5-0.5-0.7-1.2-0.7-2.1s0.2-1.6,0.7-2.1c0.5-0.5,1.1-0.8,1.8-0.8c0.8,0,1.4,0.3,1.8,0.8C200.6,372.3,200.9,373,200.9,373.9z     M199.9,373.9c0-0.7-0.1-1.2-0.4-1.6c-0.3-0.3-0.7-0.5-1.2-0.5c-0.5,0-0.9,0.2-1.2,0.5c-0.3,0.3-0.4,0.9-0.4,1.6    c0,0.7,0.1,1.2,0.4,1.6c0.3,0.4,0.7,0.5,1.2,0.5c0.5,0,0.9-0.2,1.2-0.5C199.8,375.1,199.9,374.6,199.9,373.9z"/> 		<path style="fill:#1A171B;" d="M163.4,387.7h-0.9v-0.6c-0.3,0.2-0.5,0.4-0.8,0.5s-0.6,0.2-0.9,0.2c-0.7,0-1.2-0.3-1.6-0.8    c-0.4-0.5-0.6-1.2-0.6-2.1c0-0.5,0.1-0.9,0.2-1.2c0.1-0.4,0.3-0.7,0.5-0.9c0.2-0.2,0.5-0.4,0.8-0.6c0.3-0.1,0.6-0.2,0.9-0.2    c0.3,0,0.5,0,0.8,0.1s0.5,0.2,0.7,0.3v-2.4h0.9V387.7z M162.5,386.3v-3.1c-0.2-0.1-0.5-0.2-0.7-0.2c-0.2,0-0.4-0.1-0.6-0.1    c-0.5,0-0.9,0.2-1.2,0.5c-0.3,0.4-0.4,0.9-0.4,1.5c0,0.6,0.1,1.1,0.3,1.5s0.6,0.5,1.1,0.5c0.3,0,0.5-0.1,0.8-0.2    S162.3,386.5,162.5,386.3z"/> 		<path style="fill:#1A171B;" d="M169.8,385h-4c0,0.3,0.1,0.6,0.2,0.9s0.2,0.5,0.4,0.6c0.2,0.2,0.4,0.3,0.6,0.4    c0.2,0.1,0.5,0.1,0.8,0.1c0.4,0,0.7-0.1,1.1-0.2c0.4-0.1,0.6-0.3,0.8-0.4h0v1c-0.3,0.1-0.6,0.2-0.9,0.3s-0.7,0.1-1,0.1    c-0.9,0-1.6-0.2-2.1-0.7s-0.8-1.2-0.8-2.1c0-0.9,0.2-1.6,0.7-2.1c0.5-0.5,1.1-0.8,1.9-0.8c0.7,0,1.3,0.2,1.7,0.6    c0.4,0.4,0.6,1,0.6,1.8V385z M168.9,384.3c0-0.5-0.1-0.9-0.4-1.1c-0.2-0.3-0.6-0.4-1.1-0.4c-0.5,0-0.9,0.1-1.2,0.4    c-0.3,0.3-0.5,0.7-0.5,1.1H168.9z"/> 		<path style="fill:#1A171B;" d="M180.9,387.1c-0.4,0.2-0.8,0.3-1.3,0.5c-0.5,0.1-0.9,0.2-1.4,0.2c-0.6,0-1.1-0.1-1.6-0.2    s-0.9-0.4-1.2-0.7c-0.3-0.3-0.6-0.7-0.8-1.2s-0.3-1-0.3-1.7c0-1.2,0.3-2.1,1-2.8c0.7-0.7,1.6-1,2.8-1c0.4,0,0.8,0.1,1.3,0.1    c0.4,0.1,0.9,0.3,1.4,0.5v1.1h-0.1c-0.1-0.1-0.2-0.2-0.4-0.3s-0.4-0.2-0.6-0.3c-0.2-0.1-0.5-0.2-0.8-0.3c-0.3-0.1-0.6-0.1-1-0.1    c-0.8,0-1.5,0.3-1.9,0.8c-0.5,0.5-0.7,1.2-0.7,2.1c0,0.9,0.2,1.7,0.7,2.2s1.2,0.8,2,0.8c0.3,0,0.6,0,0.9-0.1    c0.3-0.1,0.6-0.1,0.8-0.2v-1.8H178V384h2.9V387.1z"/> 		<path style="fill:#1A171B;" d="M186.7,387.7h-0.9v-0.6c-0.1,0.1-0.2,0.1-0.3,0.2c-0.1,0.1-0.3,0.2-0.4,0.2    c-0.2,0.1-0.3,0.1-0.5,0.2s-0.4,0.1-0.7,0.1c-0.5,0-0.9-0.2-1.3-0.5c-0.3-0.3-0.5-0.7-0.5-1.2c0-0.4,0.1-0.7,0.3-1    c0.2-0.3,0.4-0.5,0.8-0.6c0.3-0.1,0.7-0.2,1.2-0.3c0.5-0.1,1-0.1,1.5-0.1v-0.1c0-0.2,0-0.4-0.1-0.5c-0.1-0.1-0.2-0.2-0.3-0.3    c-0.1-0.1-0.3-0.1-0.5-0.2c-0.2,0-0.4,0-0.6,0c-0.2,0-0.5,0-0.8,0.1s-0.6,0.2-0.9,0.3h0v-0.9c0.2,0,0.4-0.1,0.8-0.2s0.7-0.1,1-0.1    c0.4,0,0.7,0,1,0.1c0.3,0.1,0.5,0.2,0.7,0.3c0.2,0.2,0.4,0.3,0.5,0.6c0.1,0.2,0.2,0.5,0.2,0.9V387.7z M185.8,386.3v-1.5    c-0.3,0-0.6,0-1,0.1c-0.4,0-0.7,0.1-0.9,0.1c-0.3,0.1-0.5,0.2-0.6,0.3s-0.2,0.4-0.2,0.7c0,0.3,0.1,0.5,0.3,0.7s0.5,0.2,0.9,0.2    c0.3,0,0.6-0.1,0.9-0.2S185.6,386.5,185.8,386.3z M186.1,379.5l-1.3,1.8h-0.7l0.9-1.8H186.1z"/> 		<path style="fill:#1A171B;" d="M189.4,387.7h-0.9v-7.6h0.9V387.7z"/> 		<path style="fill:#1A171B;" d="M192.2,387.7h-0.9v-7.6h0.9V387.7z"/> 		<path style="fill:#1A171B;" d="M198.5,385h-4c0,0.3,0.1,0.6,0.2,0.9s0.2,0.5,0.4,0.6c0.2,0.2,0.4,0.3,0.6,0.4    c0.2,0.1,0.5,0.1,0.8,0.1c0.4,0,0.7-0.1,1.1-0.2c0.4-0.1,0.6-0.3,0.8-0.4h0v1c-0.3,0.1-0.6,0.2-0.9,0.3s-0.7,0.1-1,0.1    c-0.9,0-1.6-0.2-2.1-0.7s-0.8-1.2-0.8-2.1c0-0.9,0.2-1.6,0.7-2.1c0.5-0.5,1.1-0.8,1.9-0.8c0.7,0,1.3,0.2,1.7,0.6    c0.4,0.4,0.6,1,0.6,1.8V385z M197.6,384.3c0-0.5-0.1-0.9-0.4-1.1c-0.2-0.3-0.6-0.4-1.1-0.4c-0.5,0-0.9,0.1-1.2,0.4    c-0.3,0.3-0.5,0.7-0.5,1.1H197.6z"/> 		<path style="fill:#1A171B;" d="M204.4,387c0,0.9-0.2,1.6-0.6,2c-0.4,0.4-1.1,0.7-1.9,0.7c-0.3,0-0.6,0-0.8-0.1    c-0.3,0-0.5-0.1-0.8-0.2v-0.9h0c0.1,0.1,0.4,0.1,0.7,0.2s0.7,0.1,1,0.1c0.3,0,0.6,0,0.8-0.1c0.2-0.1,0.4-0.2,0.5-0.3    c0.1-0.1,0.2-0.3,0.2-0.5c0-0.2,0.1-0.4,0.1-0.6v-0.5c-0.3,0.2-0.5,0.4-0.8,0.5c-0.3,0.1-0.6,0.2-1,0.2c-0.7,0-1.2-0.2-1.6-0.7    c-0.4-0.5-0.6-1.1-0.6-2c0-0.5,0.1-0.9,0.2-1.2c0.1-0.3,0.3-0.6,0.5-0.9c0.2-0.2,0.5-0.4,0.8-0.5s0.6-0.2,0.9-0.2    c0.3,0,0.6,0,0.8,0.1c0.2,0.1,0.4,0.2,0.7,0.3l0.1-0.2h0.9V387z M203.4,386.2v-3c-0.2-0.1-0.5-0.2-0.7-0.2c-0.2,0-0.4-0.1-0.6-0.1    c-0.5,0-0.9,0.2-1.2,0.5c-0.3,0.3-0.4,0.8-0.4,1.5c0,0.6,0.1,1.1,0.3,1.4c0.2,0.3,0.6,0.5,1.1,0.5c0.3,0,0.5-0.1,0.8-0.2    C203,386.5,203.2,386.3,203.4,386.2z"/> 		<path style="fill:#1A171B;" d="M210.8,384.9c0,0.9-0.2,1.6-0.7,2.1c-0.5,0.5-1.1,0.8-1.8,0.8c-0.8,0-1.4-0.3-1.8-0.8    c-0.5-0.5-0.7-1.2-0.7-2.1s0.2-1.6,0.7-2.1c0.5-0.5,1.1-0.8,1.8-0.8c0.8,0,1.4,0.3,1.8,0.8S210.8,384,210.8,384.9z M209.9,384.9    c0-0.7-0.1-1.2-0.4-1.6s-0.7-0.5-1.2-0.5c-0.5,0-0.9,0.2-1.2,0.5c-0.3,0.3-0.4,0.9-0.4,1.6c0,0.7,0.1,1.2,0.4,1.6s0.7,0.5,1.2,0.5    c0.5,0,0.9-0.2,1.1-0.5C209.7,386.1,209.9,385.6,209.9,384.9z"/> 	</g> </g> <g id="llegenda"> 	<line style="fill:none;stroke:#9A9A9A;stroke-width:2;stroke-miterlimit:10;" x1="400" y1="-207.1" x2="400" y2="-177.6"/> 	<g> 		<path d="M407.7-196.7h0.9v7.1h-0.9V-196.7z"/> 		<path d="M411-195.8c0,0.3-0.2,0.5-0.6,0.5c-0.3,0-0.5-0.2-0.5-0.5s0.2-0.5,0.5-0.5C410.8-196.3,411-196.1,411-195.8z M410.1-189.6    v-4.8h0.9v4.8H410.1z"/> 		<path d="M412.4-193.1c0-0.5,0-0.9,0-1.3h0.8l0,0.8h0c0.2-0.4,0.8-0.9,1.6-0.9c0.7,0,1.7,0.4,1.7,2.1v2.9h-0.9v-2.8    c0-0.8-0.3-1.4-1.1-1.4c-0.6,0-1,0.4-1.2,0.9c0,0.1-0.1,0.3-0.1,0.4v2.9h-0.9V-193.1z"/> 	</g> 	<line style="fill:#BFBFBF;stroke:#696969;stroke-width:2;stroke-miterlimit:10;" x1="400" y1="-167.5" x2="400" y2="-138"/> 	<g> 		<path d="M407.7-157.1h0.9v7.1h-0.9V-157.1z"/> 		<path d="M411-156.2c0,0.3-0.2,0.5-0.6,0.5c-0.3,0-0.5-0.2-0.5-0.5s0.2-0.5,0.5-0.5C410.8-156.7,411-156.5,411-156.2z M410.1-150    v-4.8h0.9v4.8H410.1z"/> 		<path d="M412.4-153.5c0-0.5,0-0.9,0-1.3h0.8l0,0.8h0c0.2-0.4,0.8-0.9,1.6-0.9c0.7,0,1.7,0.4,1.7,2.1v2.9h-0.9v-2.8    c0-0.8-0.3-1.4-1.1-1.4c-0.6,0-1,0.4-1.2,0.9c0,0.1-0.1,0.3-0.1,0.4v2.9h-0.9V-153.5z"/> 	</g> 	<rect x="394.6" y="-231.7" style="fill:#BFBFBF;" width="16.3" height="15.3"/> 	<rect x="394.6" y="-259.3" style="fill:#DCE9FB;" width="16.3" height="15.3"/> 	<g> 		<path d="M420.2-222.3v-4.2h-0.7v-0.7h0.7v-0.2c0-0.7,0.2-1.3,0.6-1.7c0.3-0.3,0.8-0.4,1.2-0.4c0.3,0,0.6,0.1,0.7,0.1l-0.1,0.7    c-0.1-0.1-0.3-0.1-0.6-0.1c-0.7,0-0.9,0.6-0.9,1.4v0.3h1.2v0.7H421v4.2H420.2z"/> 		<path d="M427.2-224.8c0,1.8-1.3,2.6-2.4,2.6c-1.3,0-2.3-1-2.3-2.5c0-1.6,1.1-2.6,2.4-2.6C426.3-227.3,427.2-226.2,427.2-224.8z     M423.4-224.7c0,1.1,0.6,1.9,1.5,1.9c0.8,0,1.5-0.8,1.5-1.9c0-0.8-0.4-1.8-1.4-1.8C423.9-226.6,423.4-225.6,423.4-224.7z"/> 		<path d="M428.3-225.8c0-0.5,0-0.9,0-1.3h0.8l0,0.8h0c0.2-0.4,0.8-0.9,1.6-0.9c0.7,0,1.7,0.4,1.7,2.1v2.9h-0.9v-2.8    c0-0.8-0.3-1.4-1.1-1.4c-0.6,0-1,0.4-1.2,0.9c0,0.1-0.1,0.3-0.1,0.4v2.9h-0.9V-225.8z"/> 		<path d="M433.8-223.2c0.3,0.2,0.7,0.3,1.2,0.3c0.6,0,0.9-0.3,0.9-0.7c0-0.4-0.3-0.6-0.9-0.9c-0.9-0.3-1.3-0.8-1.3-1.4    c0-0.8,0.6-1.4,1.7-1.4c0.5,0,0.9,0.1,1.2,0.3l-0.2,0.6c-0.2-0.1-0.5-0.3-1-0.3c-0.5,0-0.8,0.3-0.8,0.7c0,0.4,0.3,0.6,0.9,0.8    c0.8,0.3,1.3,0.7,1.3,1.4c0,0.9-0.7,1.5-1.8,1.5c-0.5,0-1-0.1-1.4-0.3L433.8-223.2z"/> 	</g> 	<g> 		<path d="M420.1-253.2c0-0.5,0-0.9,0-1.3h0.8l0,0.8h0c0.3-0.5,0.7-0.9,1.5-0.9c0.7,0,1.2,0.4,1.4,1h0c0.1-0.3,0.4-0.5,0.5-0.6    c0.3-0.2,0.6-0.3,1.1-0.3c0.6,0,1.6,0.4,1.6,2.1v2.8h-0.9v-2.7c0-0.9-0.3-1.5-1-1.5c-0.5,0-0.9,0.4-1,0.8c0,0.1-0.1,0.3-0.1,0.4v3    h-0.9v-2.9c0-0.8-0.3-1.3-1-1.3c-0.5,0-1,0.4-1.1,0.9c-0.1,0.1-0.1,0.3-0.1,0.4v2.9h-0.9V-253.2z"/> 		<path d="M431.8-250.8c0,0.4,0,0.8,0.1,1.2h-0.8l-0.1-0.6h0c-0.3,0.4-0.8,0.7-1.5,0.7c-1,0-1.5-0.7-1.5-1.4c0-1.2,1-1.8,2.9-1.8    v-0.1c0-0.4-0.1-1.1-1.1-1.1c-0.5,0-0.9,0.1-1.3,0.4l-0.2-0.6c0.4-0.3,1-0.4,1.6-0.4c1.5,0,1.8,1,1.8,2V-250.8z M431-252.1    c-1,0-2,0.1-2,1.1c0,0.6,0.4,0.8,0.8,0.8c0.6,0,1-0.4,1.2-0.8c0-0.1,0-0.2,0-0.3V-252.1z"/> 		<path d="M433.2-253c0-0.6,0-1.1,0-1.5h0.8l0,1h0c0.2-0.6,0.8-1.1,1.3-1.1c0.1,0,0.2,0,0.2,0v0.8c-0.1,0-0.2,0-0.3,0    c-0.6,0-1.1,0.5-1.2,1.1c0,0.1,0,0.3,0,0.4v2.6h-0.9V-253z"/> 	</g> 	<circle style="fill-rule:evenodd;clip-rule:evenodd;fill:#5B7EBD;" cx="378.3" cy="-189.6" r="2.4"/> 	 		<rect x="370.2" y="-231.7" style="fill:#BFBFBF;stroke:#696969;stroke-width:2;stroke-miterlimit:10;" width="16.3" height="15.3"/> 	 		<rect x="345.4" y="-231.7" style="fill:#FFFBF0;stroke:#9A9A9A;stroke-width:2;stroke-miterlimit:10;" width="16.3" height="15.3"/> 	<rect x="348.2" y="-278.3" style="opacity:0.7;fill:#FFFBF0;" width="92.8" height="9.6"/> </g> </svg>