<svg xmlns="http://www.w3.org/2000/svg" xmlns:xlink="http://www.w3.org/1999/xlink" version="1.1" x="0px" y="0px" width="450px" height="450px" viewBox="0 0 450 450" style="enable-background:new 0 0 450 450;" xml:space="preserve"> <g id="Color_fons"> 	<a> 		<path style="fill:#BFBFBF;stroke:#696969;stroke-width:2;stroke-miterlimit:10;" d="M-9.4-10.3C30.5-10,70.5-9.7,110.4-9.4    c-5.2,0-12.2,23.5-1.7,32.6c-10.3,4.1-9.4,14.7-7.8,27.6c1.4,10.8-8.3,22.9-10.6,30.7c-1.6,5.6-25.6,41.7-9.7,46.5    c-1.6,10.2-30.9,34.2-32,37.6c-1.8-2.5-5.2-4-7.5-3.5c-6.1,1.3-13.2,11.6-14.8,18.8c-1.4,6,19,14.5,16.8,14.8    c1.4,2.8-0.9,10.1,0.9,16.7c0,0.1,0.5,4.4,1.8,7c1.4,3,3.7,4.4,3.9,4.5c-1.5,7.7-8.8,8.5-15.1,10.2c2.2,15.5-2.5,3.2-11.8,8.4    c-5.5,3.1,1.3,19.2-17,21.5C0,264.8-16,263-15.8,255.7c0.3-12.2,0.6-24.4,0.9-36.5C-13.1,142.7-11.2,66.2-9.4-10.3L-9.4-10.3z"/> 	</a> 	<a> 		<path style="fill:#BFBFBF;stroke:#696969;stroke-width:2;stroke-miterlimit:10;" d="M411.2,171.8c-6.6,0.7-14.4,11.4-23.1,13.1    c5.9-9,8.9-27.6,7.4-35.9c-0.8-4.4-3.2-7.3-4.9-10.8c-3.7-7.8-5-9.5-6.2-18.6c-2.1-15-3-32.2-12.1-37.6c-5.6-3.3-15.1-0.8-27,5.4    c-2.1-3.5,2.9-32.6-7.4-27.6c1.1-0.7,4.1-1.4,5.2-2.6c9-10,14.6-34.7,13.3-40c-1.9-8-15-5.1-10.6-16.5    c7.1-18.6,28.1-11.6,46.9-12.1c22.7-0.5,45.3-1.1,68-1.6c0,16.8,0,33.7,0,50.5c0,17.5-4.3,14.1-17.7,16.7    c-13.6,2.7-11.8,5.8-13.5,19.1c-1.4,11.1,9.2,19.7,17.7,14.4c-0.2,8.5-4.2,52.6-4.2,52.6c-6.9,1.2-23.8,7.6-24.1,7.9    C418.7,148.3,412.1,163.8,411.2,171.8L411.2,171.8z"/> 	</a> 	<a> 		<path style="fill:#BFBFBF;stroke:#696969;stroke-width:2;stroke-miterlimit:10;" d="M90.1,89c-2.1-13.3,8.6-21.1,10.5-33.8    c1.7-11.5-9.4-25.1,8.1-32c-11.7-4.2-4.3-33.5,2.6-33.5c23,0,46,0,68.9,0c56.6,0,113.1,0,169.7,0C346-1.5,339.4,10.1,353,13    c9.7,2-6.9,46.2-12,46.8c-2.5-0.4-6.3-0.8-9,0.8c-16.1,8.9-33.2,46.1-30.3,50.1c4.8,6.7,6.1,9.6,2.9,17.9    c-8.3,21.7-8.3-7-10.7-12.9c-9.9,0.7-27.9,0.6-30.6,10.1c-6.9-0.7-16.8-0.1-26.6-0.4c-8.6-0.3-17.1-1.6-23.3-1    c-3.1,0.3-0.6-0.6-1.3-2.7c-0.8-2.1-4.9-5.5-7.8-6.1C113.2,96.3,93.7,107.3,90.1,89L90.1,89z"/> 	</a> 	<a> 		<path style="fill-rule:evenodd;clip-rule:evenodd;fill:#BFBFBF;stroke:#696969;stroke-width:2;stroke-miterlimit:10;" d="    M-15.9,257.5c19.4,6.8,33.3,11.6,35.3-10.5c0.5-5.6,11.1-9.6,15.7-3.9c0.9,1.1,0.7,18.7,1.3,21.4c8.3,36.2,46.7,55.5,56.6,89.8    l16.8-2.6c6-15,12.2-4.9,16.8,4.4c3.2,6.5,3.3,9.3,3,15.8c-0.3,9.6-14.5,7.4-14.5,7.4l-4.8,15.5c0,0,15.9,35.8,16.7,35.9    c-24.3-4.9-8.4,28.7-7.1,42.1c-30.3-0.4-60.5-0.8-90.8-1.2c-14.7-0.2-29.5-0.4-44.2-0.6c-6.3-0.1-3.2-10.3-3.2-15.5    c0-39.9,0-79.8,0-119.7C-18.4,311.2-23.2,281.4-15.9,257.5L-15.9,257.5z"/> 	</a> 	<a> 		<path style="fill:#BFBFBF;stroke:#696969;stroke-width:2;stroke-miterlimit:10;" d="M236.9,439.9c-3.4,7.1,1.3,16.9,2.4,27.1    c-27,0.6-54,1.2-81.1,1.8c-3.2,0.1-20.8,2.5-21.2-1.2c-0.8-7.8-4.3-14.1-1.7-20.9C143.4,432.1,224.7,427.8,236.9,439.9    L236.9,439.9z"/> 	</a> 	<a> 		<path style="fill-rule:evenodd;clip-rule:evenodd;fill:#BFBFBF;stroke:#696969;stroke-width:2;stroke-miterlimit:10;" d="    M241.3,348.4c13.1,9.5,16.9,0.7,28.6-3.2c-5.4,4.8-10.8,9.5-16.2,14.3c7.1,0,9.3-4.1,16.2-0.9c7.6,3.6-1.7,11.2-1.5,15.7    c-4.8-5.9-9.6-6.9-13.6-0.6c9.5,6.1-14.2,40.6-13,41.3c-1.5,7.5-3.9,18.8-4.9,25c-12.2-12.1-87.4-7-99.6,4.6    c-1,0.9-2.1,5.7-1.3,13.8c1.6,14.7-2.8,11.7-17,14.4c-0.8-13.6-16.1-46.9,7.9-42.1c-0.8-0.2-16.7-35.9-16.7-35.9    c0.1,0.5,5.4-16.5,5.4-16.5s4.9,0.9,10.1-1.2c5.9-2.4,1.4-10.3,3.6-15.6c0,0,50.4-5.4,54.3-26.5c-2.2-0.3-4.4-0.6-6.6-0.9    c0.9-8.2,9.6-9.4,19-10.1c9.9-0.8,12.9,3.8,14.9,14.3C214.3,355.5,234.8,352.5,241.3,348.4L241.3,348.4z"/> 	</a> 	<a> 		<path style="fill:#BFBFBF;stroke:#696969;stroke-width:2;stroke-miterlimit:10;" d="M413,198.2c3.1-3.3,11.4-13.1,9.8-18.4    c-1.2-4.1-5-7.5-8-8.5c-1.6-0.5-2.9,2.1-3.6,0.4c-1.6-4.1,8.4-24.1,7.4-23.4c0.1-0.1,24.1-7.9,24.1-7.9s4-44.1,4.2-52.6    c-13.8,8.5-22.4-14.4-16.2-26.4c3.7-7.2,22.2-11.2,29.7-13.1c2.5,47.9,5,95.8,7.5,143.7c0.3,5-37.6,26.5-40.1,29.2    C423.9,214.6,426.8,194.4,413,198.2L413,198.2z"/> 	</a> 	<a> 		<path style="fill:#BFBFBF;stroke:#696969;stroke-width:2;stroke-miterlimit:10;" d="M472.6,468.5c-31.7,0-63.4,0-95.2,0    c-18.2,0-0.6-29.1-15.6-36.3c-9.6-4.6-14.8-4.8-19.1-13c-2.9-5.5,10.3-6.4,11.1-10.8c2.9-16.3,1-30.1-0.6-43.8    c7.5-4.1,5.5-15,11.7-22c-8.7-7.6-15.8,10.3-27.2,2.5c5.2-10.3,20.5-25.5,0.9-32.9l6.8-19.3c7.5-5.7,11.3-13.3,17.9-19.6    c10.9,6.6,25.8-19.5,33-27c7.7-8,11.6-18.2,14.8-31.2c0.3-1.2,2.3-15.5,2.3-15.5c-1.1-2.8,8.4-14.9,9.3-19.6    c-1.2,7-4.9,13.2-9.8,18.4c13.7-3.8,10.9,16.4,14.8,23c2.8-3.1,31.3-25.8,39.4-27.6C469.1,285.3,470.8,376.9,472.6,468.5    L472.6,468.5z"/> 	</a> 	<a> 		<path style="fill:#BFBFBF;stroke:#696969;stroke-width:2;stroke-miterlimit:10;" d="M291.3,257.8c-7.8-0.9-12.4,4.9-19.8,11.1    c-5.4-5.8-6.3-20.3,0.1-25.8C282.7,233.9,288.9,249.7,291.3,257.8z"/> 	</a> 	<a> 		<path style="fill:#BFBFBF;stroke:#696969;stroke-width:2;stroke-miterlimit:10;" d="M285.7,366.8c8.7-2.3,18.7-9.6,21.9-16.8    C298,351.2,286.5,357.9,285.7,366.8L285.7,366.8z"/> 	</a> 	<a> 		<path style="fill:#BFBFBF;stroke:#696969;stroke-width:2;stroke-miterlimit:10;" d="M341,293.4c2.6-2.2,5.1-5.1,8.7-5    c0,0-11.9,24.1-8.9,24.7c17.2,8.2,2.3,21.7-2.9,31.9c11.5,7.8,18.5-10.1,27.2-2.5c-6.2,7-4.2,17.9-11.7,22    c0.9,8,1.7,37.4,0.6,43.8c-0.7,3.9-10.5,4.7-10.8,6.9c-2.1,14.7,11.9,9.6,20.6,17.8c8.1,7.6,5.3,22.8,6.1,35.5    c-40.5-0.5-81-0.9-121.4-1.4c-22.6-0.3-9-40.2-6.6-52.2c-1.2-0.7,22.4-35.2,13-41.3c4-6.3,8.8-5.3,13.6,0.6    c-0.2-4.5,9.1-12.1,1.5-15.7c-6.8-3.2-9.1,1-16.2,0.9c5.4-4.8,10.8-9.5,16.2-14.3c-11.8,3.9-15.5,12.7-28.6,3.2    c5.3-4.5,6.1-11.2,4.9-18.2c-5,0.5-7-1.8-12-0.3c-6.6-8.7,7.3-20.2,12.7-28.4l28-0.8c0,0,32.5-60.4,33.9-58.1    c16.8,1.9,14.6,32.6,2.2,20.6c-9,12.5,2.4,11,12.4,14.9c0.4-1.7,12.6-17.4,14.3-9.3c1.4,6.8-16.5,12-2.8,26.1L341,293.4z"/> 	</a> </g> <g id="sub_x005F_comarca"> 	<a> 		<path style="fill:#FFFBF0;stroke:#9A9A9A;stroke-width:2;stroke-miterlimit:10;" d="M89.4,84.7c3.5,16.1,18.6,15.8,31.4,17    c5.1,0.5,77.7,10.8,83.4,13.9c11.8,6.4,12.2,11.3-10.4,7.8c0.1,5.5-6.5,13.4-4.8,16.6c2.2,3.9,16.4,1.5,20.8,2.3    c-1.1,9.9,10.3,8.9,10,18.7c51.6,7.3,25.5,38.4,36.8,45.8c-8.8-5.1-10.1,18.2-10.1,18.2c19,21.4,15.2,55.8,7.9,67.6    c-5.9,9.4-26.7,28.6-20,37.4c5-1.5,6.9,0.8,12,0.3c3.2,19.9-19.3,27-29.8,17.9c-4.8-4.2-6.2-9.8-6.6-15.7    c-0.8-10.6-30.4-11.2-32.8,1.5c2.2,0.3,4.4,0.6,6.6,0.9c-3.9,21.1-46.4,28.3-54.3,26.5c-6.2-1.4-10.3-33.1-19.5-9.8    c-1.9-0.5-16.8,2.6-16.8,2.6c-5.6-19.4-27.4-39.6-39-54.9c-8.3-11-14.6-21.5-17.7-34.9c-2.2-9.7-0.5-19.4-1.9-30.2    c6.3-1.7,12-2.1,15.1-10.2c-0.9-0.8-7.9-5.4-6.6-28.2c2.2-0.3-20.4-8-16.1-16.8c4.5-9.2,13.6-24.4,21.6-13.3    c1.1-3.4,30.4-27.3,32-37.6C66.7,124,82.8,93.2,89.4,84.7L89.4,84.7z"/> 	</a> 	<path style="fill-rule:evenodd;clip-rule:evenodd;fill:#FFFBF0;stroke:#9A9A9A;stroke-width:2;stroke-miterlimit:10;" d="   M291.3,257.8c-7.8-0.9-12.4,4.9-19.8,11.1c-5.4-5.8-6.3-20.3,0.1-25.8C283.8,233.9,288.9,249.7,291.3,257.8z"/> 	<a> 		<path style="fill-rule:evenodd;clip-rule:evenodd;fill:#FFFBF0;stroke:#9A9A9A;stroke-width:2;stroke-miterlimit:10;" d="    M274.4,303.4c3.1-3.6-23.9-0.3-26.1-0.9c10.4-22.7,13.1-29.3,10.2-53.2c-1.8-15.3-10.2-20.8-12-24.2c0,0-2.1-25.3,10.1-18.2    c-11.5-7.5,0.2-20.2-6.5-31.2c-4.4-7.3-17.4-11.8-30.4-14.6c0.3-9.8-11.1-8.8-10-18.7c-4-0.8-17.4,1.1-19.2-1.2    c-3.9-5,3.3-10.1,3.2-17.6c0,0,73.4,3.5,69.5,2.4c2.6-9.6,20.6-9.5,30.6-10.1c1.8,4.2,1.7,31.9,9.1,16.3c3.4-7.2,4.1-11-0.5-17.4    c-6.3-8.8,24.6-60.3,33.4-54.3c13.7-9.3,7.3,23.6,9.4,27.1c48.7-28.8,33.7,39.9,44.5,49.9c9.2,8.6,7.4,33.9-1.6,47.5    c8.3-1.6,26.5-22.8,33.4-7.8c4.2,9.1-5.8,13.5-8.5,21c-2.5,6.9-0.8,16.4-3.3,24.5c-4.7,14.9-35.2,57.3-46.3,50.6    c-10.3,10.1-26.8,37.4-34.8,11.9c-1.6-5,11.3-14.3,6.6-16.4c-4-1.8-11.7,10.6-11.7,10.6c-10-3.9-21.4-3.4-12.4-15.9    c12.5,12,13.1-18.7-2.2-20.6C305.5,251.1,280.8,295.9,274.4,303.4z"/> 	</a> </g> <g id="text_x005F_exterior"> 	<g> 		<rect x="14" y="100.8" style="fill-rule:evenodd;clip-rule:evenodd;fill:none;" width="45.5" height="11"/> 		<path d="M23.9,110.9H22v-3.2h-2.8v3.2h-1.9v-7.3h1.9v2.7H22v-2.7h1.9V110.9z"/> 		<path d="M31.1,110.9h-1.8v-0.6c-0.3,0.2-0.6,0.4-0.9,0.6c-0.3,0.1-0.6,0.2-1,0.2c-0.6,0-1.1-0.2-1.4-0.5s-0.5-0.9-0.5-1.5v-3.6    h1.8v2.7c0,0.3,0,0.5,0,0.7s0.1,0.3,0.1,0.5c0.1,0.1,0.2,0.2,0.3,0.3s0.3,0.1,0.5,0.1c0.1,0,0.3,0,0.5-0.1s0.4-0.1,0.5-0.2v-3.9    h1.8V110.9z"/> 		<path d="M38.2,108.5h-4c0,0.4,0.2,0.8,0.5,1s0.7,0.3,1.3,0.3c0.4,0,0.7-0.1,1.1-0.2s0.6-0.3,0.8-0.4h0.2v1.4    c-0.4,0.2-0.8,0.3-1.1,0.3s-0.7,0.1-1.2,0.1c-1.1,0-1.9-0.2-2.5-0.7s-0.9-1.2-0.9-2.1c0-0.9,0.3-1.6,0.8-2.2s1.3-0.8,2.3-0.8    c0.9,0,1.6,0.2,2,0.7s0.7,1.1,0.7,1.9V108.5z M36.4,107.5c0-0.4-0.1-0.6-0.3-0.8s-0.4-0.3-0.8-0.3c-0.3,0-0.6,0.1-0.8,0.3    s-0.3,0.5-0.4,0.8H36.4z"/> 		<path d="M44.2,109.2c0,0.6-0.3,1-0.8,1.4s-1.2,0.5-2.1,0.5c-0.5,0-0.9,0-1.3-0.1s-0.7-0.2-1-0.3v-1.4h0.2c0.1,0.1,0.2,0.1,0.3,0.2    s0.3,0.2,0.5,0.2c0.2,0.1,0.4,0.1,0.6,0.2s0.5,0.1,0.7,0.1c0.3,0,0.6,0,0.8-0.1s0.2-0.2,0.2-0.3c0-0.1,0-0.2-0.1-0.3    s-0.3-0.1-0.6-0.2c-0.1,0-0.3-0.1-0.5-0.1s-0.4-0.1-0.6-0.1c-0.5-0.1-0.9-0.3-1.1-0.6s-0.4-0.6-0.4-1c0-0.5,0.3-1,0.7-1.3    s1.2-0.5,2-0.5c0.4,0,0.8,0,1.2,0.1s0.7,0.2,0.9,0.3v1.4h-0.2c-0.3-0.2-0.6-0.3-0.9-0.4s-0.7-0.2-1-0.2c-0.3,0-0.5,0-0.7,0.1    s-0.3,0.2-0.3,0.3c0,0.1,0,0.2,0.1,0.3s0.3,0.1,0.6,0.2c0.2,0,0.4,0.1,0.6,0.1s0.4,0.1,0.6,0.1c0.5,0.1,0.8,0.3,1,0.6    S44.2,108.8,44.2,109.2z"/> 		<path d="M48.2,111.1c-0.5,0-0.9-0.1-1.3-0.2s-0.7-0.3-1-0.5c-0.3-0.2-0.5-0.5-0.7-0.9s-0.2-0.8-0.2-1.3c0-0.5,0.1-1,0.3-1.3    s0.4-0.7,0.7-0.9c0.3-0.2,0.6-0.4,1-0.5s0.8-0.2,1.2-0.2c0.4,0,0.7,0,1,0.1s0.6,0.2,0.9,0.3v1.5h-0.2c-0.1-0.1-0.2-0.1-0.2-0.2    c-0.1-0.1-0.2-0.2-0.4-0.2c-0.1-0.1-0.3-0.1-0.4-0.2s-0.3-0.1-0.6-0.1c-0.5,0-0.8,0.1-1.1,0.4s-0.4,0.7-0.4,1.2    c0,0.5,0.1,0.9,0.4,1.2s0.6,0.4,1.1,0.4c0.2,0,0.4,0,0.6-0.1c0.2-0.1,0.3-0.1,0.4-0.2c0.1-0.1,0.2-0.1,0.3-0.2    c0.1-0.1,0.2-0.1,0.2-0.2h0.2v1.5c-0.3,0.1-0.6,0.2-0.9,0.3S48.6,111.1,48.2,111.1z"/> 		<path d="M54.5,110.3c-0.1,0.1-0.2,0.2-0.4,0.3s-0.3,0.2-0.4,0.2c-0.2,0.1-0.4,0.1-0.5,0.2s-0.4,0.1-0.6,0.1c-0.5,0-1-0.2-1.3-0.5    s-0.5-0.7-0.5-1.2c0-0.4,0.1-0.7,0.3-1s0.4-0.5,0.8-0.6c0.3-0.1,0.7-0.3,1.2-0.3s1-0.1,1.5-0.1v0c0-0.3-0.1-0.5-0.4-0.6    s-0.6-0.2-1.1-0.2c-0.3,0-0.6,0.1-0.9,0.2s-0.6,0.2-0.7,0.2h-0.2v-1.3c0.2,0,0.5-0.1,0.9-0.2s0.8-0.1,1.3-0.1c1,0,1.7,0.2,2.2,0.5    s0.7,0.8,0.7,1.4v3.7h-1.7V110.3z M54.5,109.5v-1.1c-0.2,0-0.5,0-0.8,0.1c-0.3,0-0.5,0.1-0.6,0.1c-0.2,0.1-0.3,0.1-0.4,0.2    s-0.1,0.2-0.1,0.4c0,0.1,0,0.2,0,0.3c0,0.1,0.1,0.1,0.1,0.2c0.1,0.1,0.2,0.1,0.3,0.1s0.3,0,0.5,0c0.2,0,0.4,0,0.5-0.1    S54.4,109.6,54.5,109.5z"/> 	</g> 	<g> 		<path d="M190,50.8c0,0.3-0.1,0.6-0.2,1c-0.1,0.3-0.3,0.6-0.5,0.8c-0.3,0.3-0.6,0.5-1,0.6s-0.8,0.2-1.3,0.2h-1.2v2.4H184v-7.3h3.1    c0.5,0,0.9,0,1.2,0.1c0.3,0.1,0.6,0.2,0.8,0.4c0.3,0.2,0.5,0.4,0.7,0.7C189.9,50,190,50.4,190,50.8z M188,50.9    c0-0.2-0.1-0.4-0.2-0.5c-0.1-0.1-0.2-0.3-0.4-0.3c-0.2-0.1-0.4-0.1-0.6-0.1c-0.2,0-0.4,0-0.7,0h-0.3v2.2h0.5c0.3,0,0.6,0,0.8-0.1    c0.2,0,0.4-0.1,0.5-0.2c0.1-0.1,0.2-0.2,0.3-0.4S188,51.1,188,50.9z"/> 		<path d="M194.5,55.2c-0.1,0.1-0.2,0.2-0.4,0.3c-0.1,0.1-0.3,0.2-0.4,0.2c-0.2,0.1-0.4,0.1-0.5,0.2s-0.4,0.1-0.6,0.1    c-0.5,0-1-0.2-1.3-0.5s-0.5-0.7-0.5-1.2c0-0.4,0.1-0.7,0.3-1c0.2-0.3,0.4-0.5,0.8-0.6c0.3-0.1,0.7-0.3,1.2-0.3    c0.5-0.1,1-0.1,1.5-0.1v0c0-0.3-0.1-0.5-0.4-0.6c-0.2-0.1-0.6-0.2-1.1-0.2c-0.3,0-0.6,0.1-0.9,0.2c-0.3,0.1-0.6,0.2-0.7,0.2h-0.2    v-1.3c0.2,0,0.5-0.1,0.9-0.2c0.4-0.1,0.8-0.1,1.3-0.1c1,0,1.7,0.2,2.2,0.5s0.7,0.8,0.7,1.4v3.7h-1.7V55.2z M194.5,54.4v-1.1    c-0.2,0-0.5,0-0.8,0.1c-0.3,0-0.5,0.1-0.6,0.1c-0.2,0.1-0.3,0.1-0.4,0.2s-0.1,0.2-0.1,0.4c0,0.1,0,0.2,0,0.3    c0,0.1,0.1,0.1,0.1,0.2c0.1,0.1,0.2,0.1,0.3,0.1c0.1,0,0.3,0,0.5,0c0.2,0,0.4,0,0.5-0.1S194.4,54.5,194.5,54.4z"/> 		<path d="M199.6,55.8h-1.8v-7.6h1.8V55.8z"/> 		<path d="M203.1,55.8h-1.8v-7.6h1.8V55.8z"/> 		<path d="M208,55.2c-0.1,0.1-0.2,0.2-0.4,0.3c-0.1,0.1-0.3,0.2-0.4,0.2c-0.2,0.1-0.4,0.1-0.5,0.2s-0.4,0.1-0.6,0.1    c-0.5,0-1-0.2-1.3-0.5s-0.5-0.7-0.5-1.2c0-0.4,0.1-0.7,0.3-1c0.2-0.3,0.4-0.5,0.8-0.6c0.3-0.1,0.7-0.3,1.2-0.3    c0.5-0.1,1-0.1,1.5-0.1v0c0-0.3-0.1-0.5-0.4-0.6c-0.2-0.1-0.6-0.2-1.1-0.2c-0.3,0-0.6,0.1-0.9,0.2c-0.3,0.1-0.6,0.2-0.7,0.2h-0.2    v-1.3c0.2,0,0.5-0.1,0.9-0.2c0.4-0.1,0.8-0.1,1.3-0.1c1,0,1.7,0.2,2.2,0.5s0.7,0.8,0.7,1.4v3.7H208V55.2z M208,54.4v-1.1    c-0.2,0-0.5,0-0.8,0.1c-0.3,0-0.5,0.1-0.6,0.1c-0.2,0.1-0.3,0.1-0.4,0.2s-0.1,0.2-0.1,0.4c0,0.1,0,0.2,0,0.3    c0,0.1,0.1,0.1,0.1,0.2c0.1,0.1,0.2,0.1,0.3,0.1c0.1,0,0.3,0,0.5,0c0.2,0,0.4,0,0.5-0.1S207.9,54.5,208,54.4z"/> 		<path d="M215.4,52h-0.2c-0.1,0-0.2,0-0.4-0.1c-0.2,0-0.3,0-0.4,0c-0.3,0-0.5,0-0.7,0c-0.2,0-0.4,0.1-0.6,0.2v3.7h-1.8v-5.5h1.8    v0.8c0.4-0.3,0.7-0.6,1-0.7c0.3-0.1,0.5-0.2,0.8-0.2c0.1,0,0.1,0,0.2,0s0.1,0,0.2,0V52z"/> 		<path d="M221.1,54.1c0,0.6-0.3,1-0.8,1.4s-1.2,0.5-2.1,0.5c-0.5,0-0.9,0-1.3-0.1c-0.4-0.1-0.7-0.2-1-0.3v-1.4h0.2    c0.1,0.1,0.2,0.1,0.3,0.2c0.1,0.1,0.3,0.2,0.5,0.2c0.2,0.1,0.4,0.1,0.6,0.2c0.2,0.1,0.5,0.1,0.7,0.1c0.3,0,0.6,0,0.8-0.1    c0.2-0.1,0.2-0.2,0.2-0.3c0-0.1,0-0.2-0.1-0.3c-0.1-0.1-0.3-0.1-0.6-0.2c-0.1,0-0.3-0.1-0.5-0.1c-0.2,0-0.4-0.1-0.6-0.1    c-0.5-0.1-0.9-0.3-1.1-0.6c-0.2-0.3-0.4-0.6-0.4-1c0-0.5,0.2-1,0.7-1.3c0.5-0.3,1.2-0.5,2-0.5c0.4,0,0.8,0,1.2,0.1    s0.7,0.2,0.9,0.3v1.4h-0.2c-0.3-0.2-0.6-0.3-0.9-0.4c-0.3-0.1-0.7-0.2-1-0.2c-0.3,0-0.5,0-0.7,0.1c-0.2,0.1-0.3,0.2-0.3,0.3    c0,0.1,0,0.2,0.1,0.3s0.3,0.1,0.6,0.2c0.2,0,0.4,0.1,0.6,0.1c0.2,0,0.4,0.1,0.6,0.1c0.5,0.1,0.8,0.3,1,0.6    C221,53.4,221.1,53.7,221.1,54.1z"/> 		<path d="M229.6,53.7c0,0.3-0.1,0.6-0.2,0.9c-0.1,0.3-0.3,0.5-0.5,0.7c-0.2,0.2-0.5,0.4-0.9,0.5c-0.3,0.1-0.8,0.2-1.2,0.2    c-0.3,0-0.7,0-0.9,0c-0.3,0-0.6-0.1-0.8-0.1v-1.5h0.2c0.2,0.1,0.3,0.1,0.5,0.2c0.2,0.1,0.4,0.1,0.6,0.1c0.3,0,0.6,0,0.8-0.1    s0.3-0.2,0.4-0.4c0.1-0.2,0.1-0.3,0.1-0.5s0-0.4,0-0.7v-2.9h-1.7v-1.3h3.5V53.7z"/> 		<path d="M236.7,55.8H235v-0.6c-0.3,0.2-0.6,0.4-0.9,0.6s-0.6,0.2-1,0.2c-0.6,0-1.1-0.2-1.4-0.5c-0.3-0.3-0.5-0.9-0.5-1.5v-3.6h1.8    V53c0,0.3,0,0.5,0,0.7c0,0.2,0.1,0.3,0.1,0.5c0.1,0.1,0.2,0.2,0.3,0.3c0.1,0.1,0.3,0.1,0.5,0.1c0.1,0,0.3,0,0.5-0.1    c0.2-0.1,0.4-0.1,0.5-0.2v-3.9h1.8V55.8z"/> 		<path d="M243.2,54.1c0,0.6-0.3,1-0.8,1.4s-1.2,0.5-2.1,0.5c-0.5,0-0.9,0-1.3-0.1c-0.4-0.1-0.7-0.2-1-0.3v-1.4h0.2    c0.1,0.1,0.2,0.1,0.3,0.2c0.1,0.1,0.3,0.2,0.5,0.2c0.2,0.1,0.4,0.1,0.6,0.2c0.2,0.1,0.5,0.1,0.7,0.1c0.3,0,0.6,0,0.8-0.1    c0.2-0.1,0.2-0.2,0.2-0.3c0-0.1,0-0.2-0.1-0.3c-0.1-0.1-0.3-0.1-0.6-0.2c-0.1,0-0.3-0.1-0.5-0.1c-0.2,0-0.4-0.1-0.6-0.1    c-0.5-0.1-0.9-0.3-1.1-0.6c-0.2-0.3-0.4-0.6-0.4-1c0-0.5,0.3-1,0.7-1.3c0.5-0.3,1.2-0.5,2-0.5c0.4,0,0.8,0,1.2,0.1    s0.7,0.2,0.9,0.3v1.4h-0.2c-0.3-0.2-0.6-0.3-0.9-0.4c-0.3-0.1-0.7-0.2-1-0.2c-0.3,0-0.5,0-0.7,0.1c-0.2,0.1-0.3,0.2-0.3,0.3    c0,0.1,0,0.2,0.1,0.3s0.3,0.1,0.6,0.2c0.2,0,0.4,0.1,0.6,0.1c0.2,0,0.4,0.1,0.6,0.1c0.5,0.1,0.8,0.3,1,0.6    C243,53.4,243.2,53.7,243.2,54.1z"/> 		<path d="M249.1,54.1c0,0.6-0.3,1-0.8,1.4s-1.2,0.5-2.1,0.5c-0.5,0-0.9,0-1.3-0.1s-0.7-0.2-1-0.3v-1.4h0.2c0.1,0.1,0.2,0.1,0.3,0.2    c0.1,0.1,0.3,0.2,0.5,0.2c0.2,0.1,0.4,0.1,0.6,0.2s0.5,0.1,0.7,0.1c0.3,0,0.6,0,0.8-0.1c0.2-0.1,0.2-0.2,0.2-0.3    c0-0.1,0-0.2-0.1-0.3c-0.1-0.1-0.3-0.1-0.6-0.2c-0.1,0-0.3-0.1-0.5-0.1c-0.2,0-0.4-0.1-0.6-0.1c-0.5-0.1-0.9-0.3-1.1-0.6    c-0.2-0.3-0.4-0.6-0.4-1c0-0.5,0.3-1,0.8-1.3c0.5-0.3,1.2-0.5,2-0.5c0.4,0,0.8,0,1.2,0.1s0.7,0.2,0.9,0.3v1.4h-0.2    c-0.3-0.2-0.6-0.3-0.9-0.4c-0.3-0.1-0.7-0.2-1-0.2c-0.3,0-0.5,0-0.7,0.1c-0.2,0.1-0.3,0.2-0.3,0.3c0,0.1,0,0.2,0.1,0.3    s0.3,0.1,0.6,0.2c0.2,0,0.4,0.1,0.6,0.1c0.2,0,0.4,0.1,0.6,0.1c0.5,0.1,0.8,0.3,1,0.6S249.1,53.7,249.1,54.1z"/> 		<path d="M253.6,55.2c-0.1,0.1-0.2,0.2-0.4,0.3c-0.1,0.1-0.3,0.2-0.4,0.2c-0.2,0.1-0.4,0.1-0.5,0.2s-0.4,0.1-0.6,0.1    c-0.5,0-1-0.2-1.3-0.5s-0.5-0.7-0.5-1.2c0-0.4,0.1-0.7,0.3-1c0.2-0.3,0.4-0.5,0.8-0.6c0.3-0.1,0.7-0.3,1.2-0.3    c0.5-0.1,1-0.1,1.5-0.1v0c0-0.3-0.1-0.5-0.4-0.6c-0.2-0.1-0.6-0.2-1.1-0.2c-0.3,0-0.6,0.1-0.9,0.2c-0.3,0.1-0.6,0.2-0.7,0.2h-0.2    v-1.3c0.2,0,0.5-0.1,0.9-0.2c0.4-0.1,0.8-0.1,1.3-0.1c1,0,1.7,0.2,2.2,0.5s0.7,0.8,0.7,1.4v3.7h-1.7V55.2z M254,49.5h-1.2    l-1.7-1.8v-0.1h1.7L254,49.5z M253.6,54.4v-1.1c-0.2,0-0.5,0-0.8,0.1c-0.3,0-0.5,0.1-0.6,0.1c-0.2,0.1-0.3,0.1-0.4,0.2    s-0.1,0.2-0.1,0.4c0,0.1,0,0.2,0,0.3c0,0.1,0.1,0.1,0.1,0.2c0.1,0.1,0.2,0.1,0.3,0.1c0.1,0,0.3,0,0.5,0c0.2,0,0.4,0,0.5-0.1    S253.4,54.5,253.6,54.4z"/> 	</g> 	<g> 		<path d="M31.1,373.8c0,0.7-0.3,1.3-0.9,1.7c-0.6,0.4-1.4,0.7-2.5,0.7c-0.6,0-1.1-0.1-1.6-0.2c-0.4-0.1-0.9-0.2-1.3-0.4v-1.7h0.2    c0.4,0.3,0.8,0.5,1.3,0.7s0.9,0.2,1.4,0.2c0.1,0,0.3,0,0.4,0s0.3-0.1,0.5-0.1c0.1-0.1,0.3-0.1,0.4-0.2s0.1-0.2,0.1-0.4    c0-0.2-0.1-0.3-0.2-0.4c-0.1-0.1-0.3-0.2-0.6-0.3c-0.3-0.1-0.6-0.1-0.9-0.2c-0.3-0.1-0.6-0.1-0.9-0.2c-0.6-0.2-1.1-0.5-1.3-0.8    c-0.3-0.3-0.4-0.8-0.4-1.3c0-0.7,0.3-1.2,0.9-1.7c0.6-0.4,1.4-0.6,2.3-0.6c0.5,0,1,0,1.4,0.1s0.9,0.2,1.2,0.3v1.7h-0.2    c-0.3-0.2-0.7-0.4-1.1-0.6c-0.4-0.2-0.9-0.2-1.3-0.2c-0.2,0-0.3,0-0.5,0c-0.2,0-0.3,0.1-0.4,0.1c-0.1,0-0.2,0.1-0.3,0.2    c-0.1,0.1-0.1,0.2-0.1,0.3c0,0.2,0.1,0.3,0.2,0.4s0.4,0.2,0.8,0.3c0.3,0.1,0.5,0.1,0.8,0.2s0.5,0.1,0.8,0.2c0.6,0.2,1,0.4,1.2,0.7    C31,372.9,31.1,373.3,31.1,373.8z"/> 		<path d="M37.7,373.7h-4c0,0.4,0.2,0.8,0.5,1s0.7,0.3,1.3,0.3c0.4,0,0.7-0.1,1.1-0.2s0.6-0.3,0.8-0.4h0.2v1.4    c-0.4,0.2-0.8,0.3-1.1,0.3s-0.7,0.1-1.2,0.1c-1.1,0-1.9-0.2-2.5-0.7s-0.9-1.2-0.9-2.1c0-0.9,0.3-1.6,0.8-2.2    c0.6-0.5,1.3-0.8,2.3-0.8c0.9,0,1.6,0.2,2,0.7c0.4,0.5,0.7,1.1,0.7,1.9V373.7z M35.9,372.7c0-0.4-0.1-0.6-0.3-0.8    s-0.4-0.3-0.8-0.3c-0.3,0-0.6,0.1-0.8,0.3s-0.3,0.5-0.4,0.8H35.9z"/> 		<path d="M44.3,375.5c0,0.5-0.1,0.9-0.2,1.3s-0.4,0.6-0.6,0.8c-0.3,0.2-0.6,0.3-1,0.4c-0.4,0.1-0.8,0.1-1.3,0.1    c-0.4,0-0.8,0-1.1-0.1c-0.4,0-0.7-0.1-1-0.2v-1.4h0.2c0.2,0.1,0.5,0.2,0.8,0.2c0.3,0.1,0.6,0.1,0.8,0.1c0.3,0,0.6,0,0.8-0.1    c0.2-0.1,0.4-0.1,0.5-0.3c0.1-0.1,0.2-0.2,0.2-0.4s0.1-0.4,0.1-0.6v-0.1c-0.2,0.2-0.4,0.3-0.7,0.4c-0.3,0.1-0.5,0.2-0.9,0.2    c-0.8,0-1.4-0.2-1.8-0.7s-0.6-1.2-0.6-2.1c0-0.5,0.1-0.8,0.2-1.2c0.1-0.3,0.3-0.6,0.5-0.9c0.2-0.2,0.5-0.4,0.8-0.5    c0.3-0.1,0.6-0.2,1-0.2c0.3,0,0.6,0,0.8,0.1c0.2,0.1,0.5,0.2,0.7,0.3l0.1-0.2h1.7V375.5z M42.5,374.4v-2.5c-0.1,0-0.2-0.1-0.4-0.1    c-0.1,0-0.3,0-0.4,0c-0.5,0-0.8,0.1-1,0.4c-0.2,0.3-0.3,0.6-0.3,1.1c0,0.5,0.1,0.9,0.3,1.1c0.2,0.2,0.5,0.3,0.9,0.3    c0.2,0,0.3,0,0.5-0.1S42.4,374.5,42.5,374.4z"/> 		<path d="M49.9,372.3h-0.2c-0.1,0-0.2,0-0.4-0.1c-0.2,0-0.3,0-0.4,0c-0.3,0-0.5,0-0.7,0c-0.2,0-0.4,0.1-0.6,0.2v3.7h-1.8v-5.5h1.8    v0.8c0.4-0.3,0.7-0.6,1-0.7c0.3-0.1,0.5-0.2,0.8-0.2c0.1,0,0.1,0,0.2,0c0.1,0,0.1,0,0.2,0V372.3z"/> 		<path d="M52.7,369.8h-1.9v-1.3h1.9V369.8z M52.6,376.1h-1.8v-5.5h1.8V376.1z"/> 		<path d="M57.6,375.5c-0.1,0.1-0.2,0.2-0.4,0.3c-0.1,0.1-0.3,0.2-0.4,0.2c-0.2,0.1-0.4,0.1-0.5,0.2c-0.2,0-0.4,0.1-0.6,0.1    c-0.5,0-1-0.2-1.3-0.5s-0.5-0.7-0.5-1.2c0-0.4,0.1-0.7,0.3-1c0.2-0.3,0.4-0.5,0.8-0.6c0.3-0.1,0.7-0.3,1.2-0.3    c0.5-0.1,1-0.1,1.5-0.1v0c0-0.3-0.1-0.5-0.4-0.6c-0.2-0.1-0.6-0.2-1.1-0.2c-0.3,0-0.6,0.1-0.9,0.2c-0.3,0.1-0.6,0.2-0.7,0.2h-0.2    v-1.3c0.2,0,0.5-0.1,0.9-0.2c0.4-0.1,0.8-0.1,1.3-0.1c1,0,1.7,0.2,2.2,0.5s0.7,0.8,0.7,1.4v3.7h-1.7V375.5z M58,369.8h-1.2    l-1.7-1.8v-0.1h1.7L58,369.8z M57.6,374.7v-1.1c-0.2,0-0.5,0-0.8,0.1c-0.3,0-0.5,0.1-0.6,0.1c-0.2,0.1-0.3,0.1-0.4,0.2    s-0.1,0.2-0.1,0.4c0,0.1,0,0.2,0,0.3s0.1,0.1,0.1,0.2c0.1,0.1,0.2,0.1,0.3,0.1c0.1,0,0.3,0,0.5,0c0.2,0,0.4,0,0.5-0.1    C57.3,374.9,57.5,374.8,57.6,374.7z"/> 	</g> 	<g> 		<path d="M169.9,383.3c0,0.3-0.1,0.6-0.2,1c-0.1,0.3-0.3,0.6-0.5,0.8c-0.3,0.3-0.6,0.5-1,0.6s-0.8,0.2-1.3,0.2h-1.2v2.4h-1.9V381    h3.1c0.5,0,0.9,0,1.2,0.1c0.3,0.1,0.6,0.2,0.8,0.4c0.3,0.2,0.5,0.4,0.7,0.7C169.8,382.5,169.9,382.9,169.9,383.3z M167.9,383.4    c0-0.2-0.1-0.4-0.2-0.5c-0.1-0.1-0.2-0.3-0.4-0.3c-0.2-0.1-0.4-0.1-0.6-0.1c-0.2,0-0.4,0-0.7,0h-0.3v2.2h0.5c0.3,0,0.6,0,0.8-0.1    c0.2,0,0.4-0.1,0.5-0.2c0.1-0.1,0.2-0.2,0.3-0.4S167.9,383.6,167.9,383.4z"/> 		<path d="M172.9,388.3h-1.8v-7.6h1.8V388.3z"/> 		<path d="M177.8,387.7c-0.1,0.1-0.2,0.2-0.4,0.3c-0.1,0.1-0.3,0.2-0.4,0.2c-0.2,0.1-0.4,0.1-0.5,0.2c-0.2,0-0.4,0.1-0.6,0.1    c-0.5,0-1-0.2-1.3-0.5s-0.5-0.7-0.5-1.2c0-0.4,0.1-0.7,0.3-1c0.2-0.3,0.4-0.5,0.8-0.6c0.3-0.1,0.7-0.3,1.2-0.3    c0.5-0.1,1-0.1,1.5-0.1v0c0-0.3-0.1-0.5-0.4-0.6c-0.2-0.1-0.6-0.2-1.1-0.2c-0.3,0-0.6,0.1-0.9,0.2c-0.3,0.1-0.6,0.2-0.7,0.2h-0.2    v-1.3c0.2,0,0.5-0.1,0.9-0.2c0.4-0.1,0.8-0.1,1.3-0.1c1,0,1.7,0.2,2.2,0.5s0.7,0.8,0.7,1.4v3.7h-1.7V387.7z M177.8,386.9v-1.1    c-0.2,0-0.5,0-0.8,0.1c-0.3,0-0.5,0.1-0.6,0.1c-0.2,0.1-0.3,0.1-0.4,0.2s-0.1,0.2-0.1,0.4c0,0.1,0,0.2,0,0.3s0.1,0.1,0.1,0.2    c0.1,0.1,0.2,0.1,0.3,0.1c0.1,0,0.3,0,0.5,0c0.2,0,0.4,0,0.5-0.1C177.5,387.1,177.7,387,177.8,386.9z"/> 		<path d="M190,388.3h-1.8v-0.6c-0.3,0.2-0.6,0.4-0.8,0.5c-0.3,0.1-0.6,0.2-0.9,0.2c-0.7,0-1.2-0.3-1.6-0.8s-0.6-1.2-0.6-2.1    c0-0.5,0.1-0.9,0.2-1.2c0.1-0.4,0.3-0.7,0.6-0.9c0.2-0.2,0.5-0.4,0.8-0.6c0.3-0.1,0.6-0.2,0.9-0.2c0.3,0,0.6,0,0.8,0.1    c0.2,0.1,0.4,0.2,0.6,0.3v-2.3h1.8V388.3z M188.2,386.8v-2.7c-0.1-0.1-0.3-0.1-0.4-0.1c-0.1,0-0.3,0-0.4,0c-0.5,0-0.8,0.1-1,0.4    c-0.2,0.3-0.3,0.7-0.3,1.2c0,0.5,0.1,0.9,0.3,1.2s0.5,0.4,0.9,0.4c0.2,0,0.3,0,0.5-0.1C187.9,387,188.1,386.9,188.2,386.8z"/> 		<path d="M193.3,380.7l-0.3,2.9h-1.1l-0.3-2.9H193.3z"/> 		<path d="M201.4,385.7c0,0.9-0.3,1.6-0.8,2.1s-1.4,0.7-2.4,0.7s-1.9-0.2-2.4-0.7c-0.5-0.5-0.8-1.2-0.8-2.1V381h1.9v4.5    c0,0.5,0.1,0.9,0.3,1.1c0.2,0.2,0.6,0.4,1,0.4c0.5,0,0.8-0.1,1-0.4c0.2-0.2,0.3-0.6,0.3-1.1V381h1.9V385.7z"/> 		<path d="M207,384.5h-0.2c-0.1,0-0.2,0-0.4-0.1c-0.2,0-0.3,0-0.4,0c-0.3,0-0.5,0-0.7,0c-0.2,0-0.4,0.1-0.6,0.2v3.7h-1.8v-5.5h1.8    v0.8c0.4-0.3,0.7-0.6,1-0.7c0.3-0.1,0.5-0.2,0.8-0.2c0.1,0,0.1,0,0.2,0c0.1,0,0.1,0,0.2,0V384.5z"/> 		<path d="M213.4,387.7c0,0.5-0.1,0.9-0.2,1.3s-0.4,0.6-0.6,0.8c-0.3,0.2-0.6,0.3-1,0.4c-0.4,0.1-0.8,0.1-1.3,0.1    c-0.4,0-0.8,0-1.1-0.1c-0.4,0-0.7-0.1-1-0.2v-1.4h0.2c0.2,0.1,0.5,0.2,0.8,0.2c0.3,0.1,0.6,0.1,0.8,0.1c0.3,0,0.6,0,0.8-0.1    c0.2-0.1,0.4-0.1,0.5-0.3c0.1-0.1,0.2-0.2,0.2-0.4s0.1-0.4,0.1-0.6v-0.1c-0.2,0.2-0.4,0.3-0.7,0.4s-0.5,0.2-0.9,0.2    c-0.8,0-1.4-0.2-1.8-0.7s-0.6-1.2-0.6-2.1c0-0.5,0.1-0.8,0.2-1.2c0.1-0.3,0.3-0.6,0.5-0.9c0.2-0.2,0.5-0.4,0.8-0.5    c0.3-0.1,0.6-0.2,1-0.2c0.3,0,0.6,0,0.8,0.1c0.2,0.1,0.5,0.2,0.7,0.3l0.1-0.2h1.7V387.7z M211.6,386.6v-2.5    c-0.1,0-0.2-0.1-0.4-0.1c-0.1,0-0.3,0-0.4,0c-0.5,0-0.8,0.1-1,0.4c-0.2,0.3-0.3,0.6-0.3,1.1c0,0.5,0.1,0.9,0.3,1.1    c0.2,0.2,0.5,0.3,0.9,0.3c0.2,0,0.3,0,0.5-0.1S211.5,386.7,211.6,386.6z"/> 		<path d="M220.4,385.9h-4c0,0.4,0.2,0.8,0.5,1c0.3,0.2,0.7,0.3,1.3,0.3c0.4,0,0.7-0.1,1.1-0.2c0.3-0.1,0.6-0.3,0.8-0.4h0.2v1.4    c-0.4,0.2-0.8,0.3-1.1,0.3s-0.7,0.1-1.2,0.1c-1.1,0-1.9-0.2-2.5-0.7s-0.9-1.2-0.9-2.1c0-0.9,0.3-1.6,0.8-2.2    c0.6-0.5,1.3-0.8,2.3-0.8c0.9,0,1.6,0.2,2,0.7c0.4,0.5,0.7,1.1,0.7,1.9V385.9z M218.7,384.9c0-0.4-0.1-0.6-0.3-0.8    c-0.2-0.2-0.4-0.3-0.8-0.3c-0.3,0-0.6,0.1-0.8,0.3c-0.2,0.2-0.3,0.5-0.4,0.8H218.7z"/> 		<path d="M223.4,388.3h-1.8v-7.6h1.8V388.3z"/> 		<path d="M226.8,388.3h-1.8v-7.6h1.8V388.3z"/> 	</g> 	<g> 		<path d="M297.4,385c0,0.9-0.3,1.6-0.8,2.1s-1.4,0.7-2.4,0.7s-1.9-0.2-2.4-0.7c-0.5-0.5-0.8-1.2-0.8-2.1v-4.6h1.9v4.5    c0,0.5,0.1,0.9,0.3,1.1s0.6,0.4,1,0.4c0.5,0,0.8-0.1,1-0.4c0.2-0.2,0.3-0.6,0.3-1.1v-4.5h1.9V385z"/> 		<path d="M303,383.9h-0.2c-0.1,0-0.2,0-0.4-0.1s-0.3,0-0.4,0c-0.3,0-0.5,0-0.7,0c-0.2,0-0.4,0.1-0.6,0.2v3.7H299v-5.5h1.8v0.8    c0.4-0.3,0.7-0.6,1-0.7c0.3-0.1,0.5-0.2,0.8-0.2c0.1,0,0.1,0,0.2,0s0.1,0,0.2,0V383.9z"/> 		<path d="M309.3,387c0,0.5-0.1,0.9-0.2,1.3s-0.4,0.6-0.6,0.8c-0.3,0.2-0.6,0.3-1,0.4c-0.4,0.1-0.8,0.1-1.3,0.1    c-0.4,0-0.8,0-1.1-0.1c-0.4,0-0.7-0.1-1-0.2v-1.4h0.2c0.2,0.1,0.5,0.2,0.8,0.2c0.3,0.1,0.6,0.1,0.8,0.1c0.3,0,0.6,0,0.8-0.1    c0.2-0.1,0.4-0.1,0.5-0.3c0.1-0.1,0.2-0.2,0.2-0.4c0-0.2,0.1-0.4,0.1-0.6V387c-0.2,0.2-0.4,0.3-0.7,0.4s-0.5,0.2-0.9,0.2    c-0.8,0-1.4-0.2-1.8-0.7s-0.6-1.2-0.6-2.1c0-0.5,0.1-0.8,0.2-1.2s0.3-0.6,0.5-0.9c0.2-0.2,0.5-0.4,0.8-0.5c0.3-0.1,0.6-0.2,1-0.2    c0.3,0,0.6,0,0.8,0.1c0.2,0.1,0.5,0.2,0.7,0.3l0.1-0.2h1.7V387z M307.6,385.9v-2.5c-0.1,0-0.2-0.1-0.4-0.1s-0.3,0-0.4,0    c-0.5,0-0.8,0.1-1,0.4c-0.2,0.3-0.3,0.6-0.3,1.1c0,0.5,0.1,0.9,0.3,1.1s0.5,0.3,0.9,0.3c0.2,0,0.3,0,0.5-0.1    S307.4,386,307.6,385.9z"/> 		<path d="M316.4,385.3h-4c0,0.4,0.2,0.8,0.5,1c0.3,0.2,0.7,0.3,1.3,0.3c0.4,0,0.7-0.1,1.1-0.2c0.3-0.1,0.6-0.3,0.8-0.4h0.2v1.4    c-0.4,0.2-0.8,0.3-1.1,0.3s-0.7,0.1-1.2,0.1c-1.1,0-1.9-0.2-2.5-0.7s-0.9-1.2-0.9-2.1c0-0.9,0.3-1.6,0.8-2.2    c0.6-0.5,1.3-0.8,2.3-0.8c0.9,0,1.6,0.2,2,0.7c0.4,0.5,0.7,1.1,0.7,1.9V385.3z M314.7,384.2c0-0.4-0.1-0.6-0.3-0.8    c-0.2-0.2-0.4-0.3-0.8-0.3c-0.3,0-0.6,0.1-0.8,0.3c-0.2,0.2-0.3,0.5-0.4,0.8H314.7z"/> 		<path d="M319.4,387.7h-1.8v-7.6h1.8V387.7z"/> 		<path d="M322.8,387.7h-1.8v-7.6h1.8V387.7z"/> 	</g> 	<g> 		<path d="M385.3,321.1c0,0.7-0.3,1.3-0.9,1.7c-0.6,0.4-1.4,0.7-2.5,0.7c-0.6,0-1.1-0.1-1.6-0.2c-0.4-0.1-0.9-0.2-1.3-0.4v-1.7h0.2    c0.4,0.3,0.8,0.5,1.3,0.7c0.5,0.2,0.9,0.2,1.4,0.2c0.1,0,0.3,0,0.4,0s0.3-0.1,0.5-0.1c0.1-0.1,0.3-0.1,0.4-0.2s0.1-0.2,0.1-0.4    c0-0.2-0.1-0.3-0.2-0.4c-0.1-0.1-0.3-0.2-0.6-0.3c-0.3-0.1-0.6-0.1-0.9-0.2c-0.3-0.1-0.6-0.1-0.9-0.2c-0.6-0.2-1.1-0.5-1.3-0.8    c-0.3-0.3-0.4-0.8-0.4-1.3c0-0.7,0.3-1.2,0.9-1.7c0.6-0.4,1.4-0.6,2.3-0.6c0.5,0,1,0,1.4,0.1c0.5,0.1,0.9,0.2,1.2,0.3v1.7h-0.2    c-0.3-0.2-0.7-0.4-1.1-0.6c-0.4-0.2-0.9-0.2-1.3-0.2c-0.2,0-0.3,0-0.5,0c-0.2,0-0.3,0.1-0.4,0.1c-0.1,0-0.2,0.1-0.3,0.2    c-0.1,0.1-0.1,0.2-0.1,0.3c0,0.2,0.1,0.3,0.2,0.4s0.4,0.2,0.8,0.3c0.3,0.1,0.5,0.1,0.8,0.2c0.2,0.1,0.5,0.1,0.8,0.2    c0.6,0.2,1,0.4,1.2,0.7C385.2,320.2,385.3,320.6,385.3,321.1z"/> 		<path d="M391.9,321h-4c0,0.4,0.2,0.8,0.5,1s0.7,0.3,1.3,0.3c0.4,0,0.7-0.1,1.1-0.2c0.3-0.1,0.6-0.3,0.8-0.4h0.2v1.4    c-0.4,0.2-0.8,0.3-1.1,0.3s-0.7,0.1-1.2,0.1c-1.1,0-1.9-0.2-2.5-0.7s-0.9-1.2-0.9-2.1c0-0.9,0.3-1.6,0.8-2.2    c0.6-0.5,1.3-0.8,2.3-0.8c0.9,0,1.6,0.2,2,0.7c0.4,0.5,0.7,1.1,0.7,1.9V321z M390.1,320c0-0.4-0.1-0.6-0.3-0.8    c-0.2-0.2-0.4-0.3-0.8-0.3c-0.3,0-0.6,0.1-0.8,0.3c-0.2,0.2-0.3,0.5-0.4,0.8H390.1z"/> 		<path d="M398.5,322.8c0,0.5-0.1,0.9-0.2,1.3s-0.4,0.6-0.6,0.8c-0.3,0.2-0.6,0.3-1,0.4c-0.4,0.1-0.8,0.1-1.3,0.1    c-0.4,0-0.8,0-1.1-0.1c-0.4,0-0.7-0.1-1-0.2v-1.4h0.2c0.2,0.1,0.5,0.2,0.8,0.2c0.3,0.1,0.6,0.1,0.8,0.1c0.3,0,0.6,0,0.8-0.1    c0.2-0.1,0.4-0.1,0.5-0.3c0.1-0.1,0.2-0.2,0.2-0.4c0-0.2,0.1-0.4,0.1-0.6v-0.1c-0.2,0.2-0.4,0.3-0.7,0.4s-0.5,0.2-0.9,0.2    c-0.8,0-1.4-0.2-1.8-0.7s-0.6-1.2-0.6-2.1c0-0.5,0.1-0.8,0.2-1.2c0.1-0.3,0.3-0.6,0.5-0.9c0.2-0.2,0.5-0.4,0.8-0.5    c0.3-0.1,0.6-0.2,1-0.2c0.3,0,0.6,0,0.8,0.1c0.2,0.1,0.5,0.2,0.7,0.3l0.1-0.2h1.7V322.8z M396.7,321.7v-2.5    c-0.1,0-0.2-0.1-0.4-0.1c-0.1,0-0.3,0-0.4,0c-0.5,0-0.8,0.1-1,0.4c-0.2,0.3-0.3,0.6-0.3,1.1c0,0.5,0.1,0.9,0.3,1.1    c0.2,0.2,0.5,0.3,0.9,0.3c0.2,0,0.3,0,0.5-0.1S396.5,321.8,396.7,321.7z"/> 		<path d="M403.4,322.8c-0.1,0.1-0.2,0.2-0.4,0.3c-0.1,0.1-0.3,0.2-0.4,0.2c-0.2,0.1-0.4,0.1-0.5,0.2c-0.2,0-0.4,0.1-0.6,0.1    c-0.5,0-1-0.2-1.3-0.5s-0.5-0.7-0.5-1.2c0-0.4,0.1-0.7,0.3-1c0.2-0.3,0.4-0.5,0.8-0.6c0.3-0.1,0.7-0.3,1.2-0.3    c0.5-0.1,1-0.1,1.5-0.1v0c0-0.3-0.1-0.5-0.4-0.6c-0.2-0.1-0.6-0.2-1.1-0.2c-0.3,0-0.6,0.1-0.9,0.2c-0.3,0.1-0.6,0.2-0.7,0.2h-0.2    v-1.3c0.2,0,0.5-0.1,0.9-0.2c0.4-0.1,0.8-0.1,1.3-0.1c1,0,1.7,0.2,2.2,0.5s0.7,0.8,0.7,1.4v3.7h-1.7V322.8z M403.4,322v-1.1    c-0.2,0-0.5,0-0.8,0.1c-0.3,0-0.5,0.1-0.6,0.1c-0.2,0.1-0.3,0.1-0.4,0.2s-0.1,0.2-0.1,0.4c0,0.1,0,0.2,0,0.3s0.1,0.1,0.1,0.2    c0.1,0.1,0.2,0.1,0.3,0.1c0.1,0,0.3,0,0.5,0c0.2,0,0.4,0,0.5-0.1C403.1,322.2,403.3,322.1,403.4,322z"/> 		<path d="M410.8,319.6h-0.2c-0.1,0-0.2,0-0.4-0.1s-0.3,0-0.4,0c-0.3,0-0.5,0-0.7,0c-0.2,0-0.4,0.1-0.6,0.2v3.7h-1.8v-5.5h1.8v0.8    c0.4-0.3,0.7-0.6,1-0.7c0.3-0.1,0.5-0.2,0.8-0.2c0.1,0,0.1,0,0.2,0c0.1,0,0.1,0,0.2,0V319.6z"/> 		<path d="M415.7,319.6h-0.2c-0.1,0-0.2,0-0.4-0.1c-0.2,0-0.3,0-0.4,0c-0.3,0-0.5,0-0.7,0s-0.4,0.1-0.6,0.2v3.7h-1.8v-5.5h1.8v0.8    c0.4-0.3,0.7-0.6,1-0.7c0.3-0.1,0.5-0.2,0.8-0.2c0.1,0,0.1,0,0.2,0c0.1,0,0.1,0,0.2,0V319.6z"/> 		<path d="M420,322.8c-0.1,0.1-0.2,0.2-0.4,0.3c-0.1,0.1-0.3,0.2-0.4,0.2c-0.2,0.1-0.4,0.1-0.5,0.2c-0.2,0-0.4,0.1-0.6,0.1    c-0.5,0-1-0.2-1.3-0.5s-0.5-0.7-0.5-1.2c0-0.4,0.1-0.7,0.3-1c0.2-0.3,0.4-0.5,0.8-0.6c0.3-0.1,0.7-0.3,1.2-0.3    c0.5-0.1,1-0.1,1.5-0.1v0c0-0.3-0.1-0.5-0.4-0.6c-0.2-0.1-0.6-0.2-1.1-0.2c-0.3,0-0.6,0.1-0.9,0.2c-0.3,0.1-0.6,0.2-0.7,0.2h-0.2    v-1.3c0.2,0,0.5-0.1,0.9-0.2c0.4-0.1,0.8-0.1,1.3-0.1c1,0,1.7,0.2,2.2,0.5s0.7,0.8,0.7,1.4v3.7H420V322.8z M420,322v-1.1    c-0.2,0-0.5,0-0.8,0.1c-0.3,0-0.5,0.1-0.6,0.1c-0.2,0.1-0.3,0.1-0.4,0.2s-0.1,0.2-0.1,0.4c0,0.1,0,0.2,0,0.3s0.1,0.1,0.1,0.2    c0.1,0.1,0.2,0.1,0.3,0.1c0.1,0,0.3,0,0.5,0c0.2,0,0.4,0,0.5-0.1C419.8,322.2,419.9,322.1,420,322z"/> 	</g> 	<g> 		<path d="M377,65.3H375l-0.5-1.5h-2.7l-0.5,1.5h-1.9l2.7-7.3h2.2L377,65.3z M374.1,62.5l-0.9-2.6l-0.9,2.6H374.1z"/> 		<path d="M379.7,65.3h-1.8v-7.6h1.8V65.3z"/> 		<path d="M384.8,65.2c-0.2,0-0.4,0.1-0.6,0.1c-0.2,0-0.5,0-0.8,0c-0.7,0-1.2-0.1-1.5-0.4c-0.3-0.3-0.5-0.8-0.5-1.4V61h-0.7v-1.2    h0.7v-1.6h1.8v1.6h1.6V61h-1.6v1.9c0,0.2,0,0.4,0,0.5c0,0.1,0,0.3,0.1,0.4c0,0.1,0.1,0.2,0.2,0.3c0.1,0.1,0.3,0.1,0.5,0.1    c0.1,0,0.2,0,0.4-0.1s0.3-0.1,0.3-0.1h0.1V65.2z"/> 		<path d="M395.8,62.7c0,0.9-0.3,1.6-0.8,2.1s-1.4,0.7-2.4,0.7s-1.9-0.2-2.4-0.7s-0.8-1.2-0.8-2.1V58h1.9v4.5c0,0.5,0.1,0.9,0.3,1.1    c0.2,0.2,0.6,0.4,1,0.4c0.5,0,0.8-0.1,1-0.4s0.3-0.6,0.3-1.1V58h1.9V62.7z"/> 		<path d="M401.4,61.5h-0.2c-0.1,0-0.2,0-0.4-0.1c-0.2,0-0.3,0-0.4,0c-0.3,0-0.5,0-0.7,0s-0.4,0.1-0.6,0.2v3.7h-1.8v-5.5h1.8v0.8    c0.4-0.3,0.7-0.6,1-0.7c0.3-0.1,0.5-0.2,0.8-0.2c0.1,0,0.1,0,0.2,0s0.1,0,0.2,0V61.5z"/> 		<path d="M407.7,64.7c0,0.5-0.1,0.9-0.2,1.3s-0.4,0.6-0.6,0.8c-0.3,0.2-0.6,0.3-1,0.4c-0.4,0.1-0.8,0.1-1.3,0.1    c-0.4,0-0.8,0-1.1-0.1s-0.7-0.1-1-0.2v-1.4h0.2c0.2,0.1,0.5,0.2,0.8,0.2c0.3,0.1,0.6,0.1,0.8,0.1c0.3,0,0.6,0,0.8-0.1    c0.2-0.1,0.4-0.1,0.5-0.3c0.1-0.1,0.2-0.2,0.2-0.4c0-0.2,0.1-0.4,0.1-0.6v-0.1c-0.2,0.2-0.4,0.3-0.7,0.4s-0.5,0.2-0.9,0.2    c-0.8,0-1.4-0.2-1.8-0.7s-0.6-1.2-0.6-2.1c0-0.5,0.1-0.8,0.2-1.2c0.1-0.3,0.3-0.6,0.5-0.9c0.2-0.2,0.5-0.4,0.8-0.5s0.6-0.2,1-0.2    c0.3,0,0.6,0,0.8,0.1s0.5,0.2,0.7,0.3l0.1-0.2h1.7V64.7z M406,63.6v-2.5c-0.1,0-0.2-0.1-0.4-0.1c-0.1,0-0.3,0-0.4,0    c-0.5,0-0.8,0.1-1,0.4s-0.3,0.6-0.3,1.1c0,0.5,0.1,0.9,0.3,1.1c0.2,0.2,0.5,0.3,0.9,0.3c0.2,0,0.3,0,0.5-0.1S405.8,63.7,406,63.6z    "/> 		<path d="M414.8,62.9h-4c0,0.4,0.2,0.8,0.5,1s0.7,0.3,1.3,0.3c0.4,0,0.7-0.1,1.1-0.2c0.3-0.1,0.6-0.3,0.8-0.4h0.2V65    c-0.4,0.2-0.8,0.3-1.1,0.3s-0.7,0.1-1.2,0.1c-1.1,0-1.9-0.2-2.5-0.7s-0.9-1.2-0.9-2.1c0-0.9,0.3-1.6,0.8-2.2s1.3-0.8,2.3-0.8    c0.9,0,1.6,0.2,2,0.7s0.7,1.1,0.7,1.9V62.9z M413,61.8c0-0.4-0.1-0.6-0.3-0.8c-0.2-0.2-0.4-0.3-0.8-0.3c-0.3,0-0.6,0.1-0.8,0.3    c-0.2,0.2-0.3,0.5-0.4,0.8H413z"/> 		<path d="M417.8,65.3H416v-7.6h1.8V65.3z"/> 		<path d="M421.2,65.3h-1.8v-7.6h1.8V65.3z"/> 	</g> </g> <g id="topos_x005F_ok"> 	<circle style="fill:#5B7EBD;" cx="259.2" cy="184.1" r="2.4"/> 	<circle style="fill:#5B7EBD;" cx="157.6" cy="277.2" r="2.4"/> 	<circle style="fill:#5B7EBD;" cx="343.1" cy="204.2" r="2.4"/> 	<circle style="fill:#5B7EBD;" cx="196.6" cy="312.7" r="2.4"/> 	<circle style="fill:#5B7EBD;" cx="229.1" cy="309.7" r="2.4"/> </g> <g id="bl"> </g> <g id="text_x005F_ciutats"> 	<g> 		<path d="M261.5,176.1h-1l-0.7-2h-3l-0.7,2h-0.9l2.5-7.3h1.2L261.5,176.1z M259.6,173.3l-1.2-3.6l-1.2,3.6H259.6z"/> 		<path d="M265.7,171.7L265.7,171.7c-0.2,0-0.3-0.1-0.4-0.1c-0.1,0-0.3,0-0.4,0c-0.3,0-0.5,0.1-0.8,0.2c-0.2,0.1-0.5,0.3-0.7,0.5    v3.9h-0.9v-5.5h0.9v0.8c0.3-0.3,0.6-0.5,0.9-0.6c0.3-0.1,0.5-0.2,0.8-0.2c0.2,0,0.3,0,0.3,0c0.1,0,0.2,0,0.3,0V171.7z"/> 		<path d="M269.2,176.1c-0.2,0-0.3,0.1-0.5,0.1c-0.2,0-0.4,0-0.5,0c-0.5,0-0.9-0.1-1.2-0.4c-0.3-0.3-0.4-0.8-0.4-1.4v-2.9H266v-0.8    h0.6v-1.6h0.9v1.6h1.8v0.8h-1.8v2.5c0,0.3,0,0.5,0,0.7c0,0.2,0.1,0.3,0.1,0.5c0.1,0.1,0.2,0.2,0.3,0.3c0.1,0.1,0.3,0.1,0.5,0.1    c0.1,0,0.3,0,0.4-0.1c0.2,0,0.3-0.1,0.3-0.1h0V176.1z"/> 		<path d="M274.6,173.5h-3.8c0,0.3,0,0.6,0.1,0.9s0.2,0.5,0.4,0.6c0.2,0.2,0.3,0.3,0.6,0.4s0.5,0.1,0.7,0.1c0.4,0,0.7-0.1,1.1-0.2    c0.4-0.1,0.6-0.3,0.8-0.4h0v1c-0.3,0.1-0.6,0.2-0.9,0.3s-0.6,0.1-1,0.1c-0.9,0-1.5-0.2-2-0.7c-0.5-0.5-0.7-1.2-0.7-2.1    c0-0.9,0.2-1.6,0.7-2.1c0.5-0.5,1.1-0.8,1.8-0.8c0.7,0,1.2,0.2,1.6,0.6c0.4,0.4,0.6,1,0.6,1.8V173.5z M273.7,172.8    c0-0.5-0.1-0.9-0.3-1.1c-0.2-0.3-0.6-0.4-1-0.4c-0.5,0-0.8,0.1-1.1,0.4s-0.4,0.6-0.5,1.1H273.7z"/> 		<path d="M279.3,173.6c0.2,0.2,0.3,0.6,0.3,1c0,0.5-0.2,0.9-0.6,1.2c-0.4,0.3-0.9,0.5-1.6,0.5c-0.4,0-0.7,0-1-0.1    c-0.3-0.1-0.6-0.2-0.8-0.3v-1h0c0.3,0.2,0.6,0.4,0.9,0.5c0.3,0.1,0.7,0.2,1,0.2c0.4,0,0.7-0.1,0.9-0.2c0.2-0.1,0.3-0.3,0.3-0.6    c0-0.2-0.1-0.4-0.2-0.5c-0.1-0.1-0.3-0.2-0.7-0.3c-0.1,0-0.3-0.1-0.5-0.1s-0.4-0.1-0.5-0.1c-0.5-0.1-0.8-0.3-1-0.6    c-0.2-0.2-0.3-0.5-0.3-0.9c0-0.2,0-0.4,0.1-0.6c0.1-0.2,0.2-0.4,0.4-0.5c0.2-0.2,0.4-0.3,0.7-0.4c0.3-0.1,0.6-0.1,0.9-0.1    c0.3,0,0.6,0,0.9,0.1c0.3,0.1,0.6,0.2,0.8,0.3v1h0c-0.2-0.2-0.5-0.3-0.8-0.4c-0.3-0.1-0.6-0.2-0.9-0.2c-0.3,0-0.6,0.1-0.8,0.2    c-0.2,0.1-0.3,0.3-0.3,0.6c0,0.2,0.1,0.4,0.2,0.5c0.1,0.1,0.3,0.2,0.6,0.3c0.2,0,0.3,0.1,0.5,0.1c0.2,0,0.4,0.1,0.5,0.1    C278.7,173.2,279,173.4,279.3,173.6L279.3,173.6z"/> 		<path d="M284.8,176.1H284v-0.6c-0.1,0.1-0.2,0.1-0.3,0.2c-0.1,0.1-0.3,0.2-0.4,0.2c-0.1,0.1-0.3,0.1-0.5,0.2s-0.4,0.1-0.7,0.1    c-0.5,0-0.9-0.2-1.2-0.5s-0.5-0.7-0.5-1.2c0-0.4,0.1-0.7,0.3-1c0.2-0.3,0.4-0.5,0.7-0.6c0.3-0.1,0.7-0.2,1.1-0.3    c0.4-0.1,0.9-0.1,1.4-0.1v-0.1c0-0.2,0-0.4-0.1-0.5s-0.2-0.2-0.3-0.3c-0.1-0.1-0.3-0.1-0.4-0.2c-0.2,0-0.4,0-0.5,0    c-0.2,0-0.5,0-0.8,0.1s-0.6,0.2-0.9,0.3h0v-0.9c0.2,0,0.4-0.1,0.7-0.2c0.3-0.1,0.6-0.1,0.9-0.1c0.4,0,0.7,0,0.9,0.1    c0.3,0.1,0.5,0.2,0.7,0.3c0.2,0.1,0.3,0.3,0.4,0.6s0.2,0.5,0.2,0.9V176.1z M284,174.8v-1.5c-0.3,0-0.6,0-0.9,0.1s-0.6,0.1-0.9,0.1    c-0.3,0.1-0.5,0.2-0.6,0.3c-0.2,0.2-0.2,0.4-0.2,0.7c0,0.3,0.1,0.5,0.3,0.7c0.2,0.2,0.5,0.2,0.8,0.2c0.3,0,0.6-0.1,0.8-0.2    C283.5,175.1,283.7,175,284,174.8z"/> 		<path d="M294,176.1h-0.9v-0.6c-0.2,0.2-0.5,0.4-0.8,0.5s-0.6,0.2-0.9,0.2c-0.6,0-1.1-0.3-1.5-0.8s-0.5-1.2-0.5-2.1    c0-0.5,0.1-0.9,0.2-1.2c0.1-0.4,0.3-0.7,0.5-0.9c0.2-0.2,0.5-0.4,0.7-0.6s0.6-0.2,0.9-0.2c0.3,0,0.5,0,0.7,0.1    c0.2,0.1,0.4,0.2,0.7,0.3v-2.4h0.9V176.1z M293.1,174.8v-3.1c-0.2-0.1-0.4-0.2-0.6-0.2s-0.4-0.1-0.6-0.1c-0.5,0-0.9,0.2-1.1,0.5    c-0.3,0.4-0.4,0.9-0.4,1.5c0,0.6,0.1,1.1,0.3,1.5s0.5,0.5,1,0.5c0.2,0,0.5-0.1,0.7-0.2C292.7,175.1,292.9,175,293.1,174.8z"/> 		<path d="M300,173.5h-3.8c0,0.3,0,0.6,0.1,0.9c0.1,0.2,0.2,0.5,0.4,0.6c0.2,0.2,0.3,0.3,0.6,0.4c0.2,0.1,0.5,0.1,0.7,0.1    c0.4,0,0.7-0.1,1.1-0.2c0.4-0.1,0.6-0.3,0.8-0.4h0v1c-0.3,0.1-0.6,0.2-0.9,0.3s-0.6,0.1-1,0.1c-0.9,0-1.5-0.2-2-0.7    c-0.5-0.5-0.7-1.2-0.7-2.1c0-0.9,0.2-1.6,0.7-2.1s1.1-0.8,1.8-0.8c0.7,0,1.2,0.2,1.6,0.6s0.6,1,0.6,1.8V173.5z M299.2,172.8    c0-0.5-0.1-0.9-0.3-1.1c-0.2-0.3-0.6-0.4-1-0.4c-0.5,0-0.8,0.1-1.1,0.4s-0.4,0.6-0.5,1.1H299.2z"/> 		<path d="M309.7,174.1c0,0.3-0.1,0.6-0.2,0.8c-0.1,0.3-0.3,0.5-0.5,0.7c-0.2,0.2-0.5,0.4-0.9,0.5c-0.3,0.1-0.7,0.2-1.2,0.2    c-0.5,0-0.9,0-1.3-0.1s-0.8-0.2-1.2-0.4v-1.2h0.1c0.3,0.3,0.7,0.5,1.2,0.7s0.9,0.2,1.3,0.2c0.6,0,1-0.1,1.3-0.3s0.5-0.5,0.5-0.9    c0-0.3-0.1-0.6-0.2-0.7c-0.1-0.2-0.4-0.3-0.7-0.4c-0.2-0.1-0.5-0.1-0.8-0.2c-0.3,0-0.6-0.1-0.9-0.2c-0.6-0.1-1.1-0.4-1.4-0.7    c-0.3-0.3-0.4-0.8-0.4-1.3c0-0.6,0.2-1.1,0.7-1.5c0.5-0.4,1.1-0.6,1.8-0.6c0.5,0,0.9,0,1.3,0.1c0.4,0.1,0.8,0.2,1.1,0.4v1.1h-0.1    c-0.3-0.2-0.6-0.4-1-0.6c-0.4-0.2-0.9-0.2-1.3-0.2c-0.5,0-0.9,0.1-1.2,0.3s-0.4,0.5-0.4,0.8c0,0.3,0.1,0.5,0.2,0.7    c0.1,0.2,0.4,0.3,0.8,0.4c0.2,0,0.5,0.1,0.8,0.2c0.4,0.1,0.7,0.1,0.9,0.2c0.5,0.1,0.9,0.4,1.2,0.6    C309.6,173.1,309.7,173.5,309.7,174.1z"/> 		<path d="M315.4,173.5h-3.8c0,0.3,0,0.6,0.1,0.9c0.1,0.2,0.2,0.5,0.4,0.6c0.2,0.2,0.3,0.3,0.6,0.4c0.2,0.1,0.5,0.1,0.7,0.1    c0.4,0,0.7-0.1,1.1-0.2c0.4-0.1,0.6-0.3,0.8-0.4h0v1c-0.3,0.1-0.6,0.2-0.9,0.3s-0.6,0.1-1,0.1c-0.9,0-1.5-0.2-2-0.7    c-0.5-0.5-0.7-1.2-0.7-2.1c0-0.9,0.2-1.6,0.7-2.1s1.1-0.8,1.8-0.8c0.7,0,1.2,0.2,1.6,0.6s0.6,1,0.6,1.8V173.5z M314.6,172.8    c0-0.5-0.1-0.9-0.3-1.1c-0.2-0.3-0.6-0.4-1-0.4c-0.5,0-0.8,0.1-1.1,0.4c-0.3,0.3-0.4,0.6-0.5,1.1H314.6z"/> 		<path d="M320.9,175.5c0,0.9-0.2,1.6-0.6,2c-0.4,0.4-1,0.6-1.8,0.6c-0.3,0-0.5,0-0.8-0.1s-0.5-0.1-0.8-0.2V177h0    c0.1,0.1,0.4,0.1,0.7,0.2s0.6,0.1,0.9,0.1c0.3,0,0.5,0,0.7-0.1c0.2-0.1,0.3-0.2,0.5-0.3c0.1-0.1,0.2-0.3,0.2-0.5    c0-0.2,0.1-0.4,0.1-0.6v-0.5c-0.3,0.2-0.5,0.4-0.8,0.5c-0.2,0.1-0.5,0.2-0.9,0.2c-0.6,0-1.1-0.2-1.5-0.7c-0.4-0.5-0.5-1.1-0.5-2    c0-0.5,0.1-0.9,0.2-1.2c0.1-0.3,0.3-0.6,0.5-0.9c0.2-0.2,0.4-0.4,0.7-0.5c0.3-0.1,0.6-0.2,0.9-0.2c0.3,0,0.5,0,0.8,0.1    s0.4,0.2,0.6,0.3l0.1-0.2h0.8V175.5z M320.1,174.6v-3c-0.2-0.1-0.4-0.2-0.6-0.2c-0.2,0-0.4-0.1-0.6-0.1c-0.5,0-0.9,0.2-1.1,0.5    c-0.3,0.3-0.4,0.8-0.4,1.5c0,0.6,0.1,1.1,0.3,1.4s0.5,0.5,1,0.5c0.3,0,0.5-0.1,0.8-0.2S319.9,174.8,320.1,174.6z"/> 		<path d="M325.9,171.7L325.9,171.7c-0.2,0-0.3-0.1-0.4-0.1c-0.1,0-0.3,0-0.4,0c-0.3,0-0.5,0.1-0.8,0.2c-0.2,0.1-0.5,0.3-0.7,0.5    v3.9h-0.9v-5.5h0.9v0.8c0.3-0.3,0.6-0.5,0.9-0.6c0.3-0.1,0.5-0.2,0.8-0.2c0.2,0,0.3,0,0.3,0c0.1,0,0.2,0,0.3,0V171.7z"/> 		<path d="M331,173.5h-3.8c0,0.3,0,0.6,0.1,0.9c0.1,0.2,0.2,0.5,0.4,0.6c0.2,0.2,0.3,0.3,0.6,0.4c0.2,0.1,0.5,0.1,0.7,0.1    c0.4,0,0.7-0.1,1.1-0.2c0.4-0.1,0.6-0.3,0.8-0.4h0v1c-0.3,0.1-0.6,0.2-0.9,0.3s-0.6,0.1-1,0.1c-0.9,0-1.5-0.2-2-0.7    c-0.5-0.5-0.7-1.2-0.7-2.1c0-0.9,0.2-1.6,0.7-2.1s1.1-0.8,1.8-0.8c0.7,0,1.2,0.2,1.6,0.6s0.6,1,0.6,1.8V173.5z M330.1,172.8    c0-0.5-0.1-0.9-0.3-1.1s-0.6-0.4-1-0.4c-0.5,0-0.8,0.1-1.1,0.4s-0.4,0.6-0.5,1.1H330.1z"/> 	</g> 	<g> 		<path d="M139.8,266.9c0,0.4-0.1,0.7-0.2,1c-0.1,0.3-0.3,0.5-0.5,0.7c-0.3,0.2-0.5,0.4-0.9,0.5s-0.7,0.1-1.2,0.1h-2.4v-7.3h2    c0.5,0,0.9,0,1.1,0.1c0.2,0,0.5,0.1,0.7,0.2c0.3,0.1,0.4,0.3,0.5,0.5s0.2,0.5,0.2,0.8c0,0.3-0.1,0.6-0.2,0.9    c-0.2,0.2-0.4,0.4-0.7,0.6v0c0.5,0.1,0.8,0.3,1.1,0.6C139.6,266,139.8,266.4,139.8,266.9z M138.2,263.6c0-0.2,0-0.3-0.1-0.4    c-0.1-0.1-0.1-0.2-0.3-0.3c-0.1-0.1-0.3-0.1-0.5-0.2c-0.2,0-0.5,0-0.8,0h-1.1v2.1h1.2c0.3,0,0.5,0,0.7,0c0.2,0,0.3-0.1,0.5-0.2    s0.2-0.2,0.3-0.4C138.2,264,138.2,263.8,138.2,263.6z M138.8,266.9c0-0.3,0-0.5-0.1-0.7c-0.1-0.2-0.2-0.3-0.5-0.4    c-0.1-0.1-0.3-0.1-0.5-0.2c-0.2,0-0.5,0-0.8,0h-1.4v2.7h1.2c0.4,0,0.7,0,1-0.1s0.5-0.1,0.6-0.2c0.2-0.1,0.3-0.3,0.4-0.4    S138.8,267.2,138.8,266.9z"/> 		<path d="M145,269.1h-0.9v-0.6c-0.1,0.1-0.2,0.1-0.3,0.2c-0.1,0.1-0.3,0.2-0.4,0.2c-0.1,0.1-0.3,0.1-0.5,0.2    c-0.2,0-0.4,0.1-0.7,0.1c-0.5,0-0.9-0.2-1.2-0.5c-0.3-0.3-0.5-0.7-0.5-1.2c0-0.4,0.1-0.7,0.3-1c0.2-0.3,0.4-0.5,0.7-0.6    c0.3-0.1,0.7-0.2,1.1-0.3s0.9-0.1,1.4-0.1v-0.1c0-0.2,0-0.4-0.1-0.5c-0.1-0.1-0.2-0.2-0.3-0.3c-0.1-0.1-0.3-0.1-0.4-0.2    s-0.4,0-0.5,0c-0.2,0-0.5,0-0.8,0.1s-0.6,0.2-0.9,0.3h0v-0.9c0.2,0,0.4-0.1,0.7-0.2c0.3-0.1,0.6-0.1,0.9-0.1c0.4,0,0.7,0,0.9,0.1    c0.3,0.1,0.5,0.2,0.7,0.3c0.2,0.1,0.3,0.3,0.4,0.6c0.1,0.2,0.2,0.5,0.2,0.9V269.1z M144.1,267.8v-1.5c-0.3,0-0.6,0-0.9,0.1    c-0.4,0-0.6,0.1-0.9,0.1c-0.2,0.1-0.5,0.2-0.6,0.3c-0.2,0.2-0.2,0.4-0.2,0.7c0,0.3,0.1,0.5,0.3,0.7c0.2,0.2,0.5,0.2,0.8,0.2    c0.3,0,0.6-0.1,0.8-0.2C143.7,268.1,143.9,268,144.1,267.8z"/> 		<path d="M147.5,269.1h-0.9v-7.6h0.9V269.1z"/> 		<path d="M153.3,269.1h-0.9v-0.6c-0.1,0.1-0.2,0.1-0.3,0.2c-0.1,0.1-0.3,0.2-0.4,0.2c-0.1,0.1-0.3,0.1-0.5,0.2    c-0.2,0-0.4,0.1-0.7,0.1c-0.5,0-0.9-0.2-1.2-0.5c-0.3-0.3-0.5-0.7-0.5-1.2c0-0.4,0.1-0.7,0.3-1c0.2-0.3,0.4-0.5,0.7-0.6    c0.3-0.1,0.7-0.2,1.1-0.3s0.9-0.1,1.4-0.1v-0.1c0-0.2,0-0.4-0.1-0.5s-0.2-0.2-0.3-0.3c-0.1-0.1-0.3-0.1-0.4-0.2    c-0.2,0-0.4,0-0.5,0c-0.2,0-0.5,0-0.8,0.1c-0.3,0.1-0.6,0.2-0.9,0.3h0v-0.9c0.2,0,0.4-0.1,0.7-0.2s0.6-0.1,0.9-0.1    c0.4,0,0.7,0,0.9,0.1s0.5,0.2,0.7,0.3c0.2,0.1,0.3,0.3,0.4,0.6s0.2,0.5,0.2,0.9V269.1z M152.4,267.8v-1.5c-0.3,0-0.6,0-0.9,0.1    s-0.6,0.1-0.9,0.1c-0.2,0.1-0.5,0.2-0.6,0.3c-0.2,0.2-0.2,0.4-0.2,0.7c0,0.3,0.1,0.5,0.3,0.7c0.2,0.2,0.5,0.2,0.8,0.2    c0.3,0,0.6-0.1,0.8-0.2C151.9,268.1,152.2,268,152.4,267.8z"/> 		<path d="M159.1,268.5c0,0.9-0.2,1.6-0.6,2c-0.4,0.4-1,0.6-1.8,0.6c-0.3,0-0.5,0-0.8-0.1c-0.3,0-0.5-0.1-0.8-0.2V270h0    c0.1,0.1,0.4,0.1,0.7,0.2c0.3,0.1,0.6,0.1,0.9,0.1c0.3,0,0.5,0,0.7-0.1s0.3-0.2,0.5-0.3c0.1-0.1,0.2-0.3,0.2-0.5    c0-0.2,0.1-0.4,0.1-0.6v-0.5c-0.3,0.2-0.5,0.4-0.8,0.5c-0.2,0.1-0.5,0.2-0.9,0.2c-0.6,0-1.1-0.2-1.5-0.7c-0.4-0.5-0.5-1.1-0.5-2    c0-0.5,0.1-0.9,0.2-1.2c0.1-0.3,0.3-0.6,0.5-0.9c0.2-0.2,0.4-0.4,0.7-0.5c0.3-0.1,0.6-0.2,0.9-0.2c0.3,0,0.5,0,0.7,0.1    c0.2,0.1,0.4,0.2,0.6,0.3l0.1-0.2h0.8V268.5z M158.2,267.6v-3c-0.2-0.1-0.4-0.2-0.6-0.2c-0.2,0-0.4-0.1-0.6-0.1    c-0.5,0-0.9,0.2-1.1,0.5c-0.3,0.3-0.4,0.8-0.4,1.5c0,0.6,0.1,1.1,0.3,1.4s0.5,0.5,1,0.5c0.3,0,0.5-0.1,0.8-0.2    C157.8,267.9,158,267.8,158.2,267.6z"/> 		<path d="M165.1,269.1h-0.9v-0.6c-0.3,0.2-0.6,0.4-0.8,0.6c-0.3,0.1-0.6,0.2-0.9,0.2c-0.5,0-1-0.2-1.3-0.5    c-0.3-0.4-0.5-0.9-0.5-1.5v-3.5h0.9v3.1c0,0.3,0,0.5,0,0.7c0,0.2,0.1,0.4,0.2,0.5c0.1,0.1,0.2,0.2,0.3,0.3s0.3,0.1,0.6,0.1    c0.2,0,0.5-0.1,0.7-0.2s0.5-0.3,0.7-0.5v-4.1h0.9V269.1z"/> 		<path d="M171.1,266.5h-3.8c0,0.3,0,0.6,0.1,0.9c0.1,0.2,0.2,0.5,0.4,0.6c0.2,0.2,0.3,0.3,0.6,0.4c0.2,0.1,0.5,0.1,0.7,0.1    c0.4,0,0.7-0.1,1.1-0.2c0.4-0.1,0.6-0.3,0.8-0.4h0v1c-0.3,0.1-0.6,0.2-0.9,0.3s-0.6,0.1-1,0.1c-0.9,0-1.5-0.2-2-0.7    c-0.5-0.5-0.7-1.2-0.7-2.1c0-0.9,0.2-1.6,0.7-2.1c0.5-0.5,1.1-0.8,1.8-0.8c0.7,0,1.2,0.2,1.6,0.6c0.4,0.4,0.6,1,0.6,1.8V266.5z     M170.3,265.8c0-0.5-0.1-0.9-0.3-1.1s-0.6-0.4-1-0.4c-0.5,0-0.8,0.1-1.1,0.4s-0.4,0.6-0.5,1.1H170.3z"/> 		<path d="M175.7,264.7L175.7,264.7c-0.2,0-0.3-0.1-0.4-0.1s-0.3,0-0.4,0c-0.3,0-0.5,0.1-0.8,0.2c-0.2,0.1-0.5,0.3-0.7,0.5v3.9h-0.9    v-5.5h0.9v0.8c0.3-0.3,0.6-0.5,0.9-0.6s0.5-0.2,0.8-0.2c0.2,0,0.3,0,0.3,0c0.1,0,0.2,0,0.3,0V264.7z"/> 	</g> 	<g> 		<path d="M341.6,192.9c0,0.3-0.1,0.6-0.2,0.9c-0.1,0.3-0.3,0.5-0.4,0.7c-0.2,0.3-0.5,0.4-0.8,0.6s-0.7,0.2-1.2,0.2H338v2.7h-0.9    v-7.3h1.9c0.4,0,0.8,0,1,0.1s0.5,0.2,0.8,0.3c0.3,0.2,0.5,0.4,0.6,0.7C341.5,192.1,341.6,192.4,341.6,192.9z M340.6,192.9    c0-0.3,0-0.5-0.1-0.7s-0.2-0.3-0.4-0.5c-0.1-0.1-0.3-0.2-0.5-0.2s-0.4-0.1-0.7-0.1H338v2.9h0.8c0.4,0,0.7,0,0.9-0.1    c0.2-0.1,0.4-0.2,0.6-0.3c0.1-0.2,0.2-0.3,0.3-0.5C340.6,193.3,340.6,193.1,340.6,192.9z"/> 		<path d="M346.9,195.2c0,0.9-0.2,1.6-0.6,2.1c-0.4,0.5-1,0.8-1.7,0.8c-0.7,0-1.3-0.3-1.7-0.8c-0.4-0.5-0.6-1.2-0.6-2.1    s0.2-1.6,0.6-2.1c0.4-0.5,1-0.8,1.7-0.8c0.7,0,1.3,0.3,1.7,0.8S346.9,194.3,346.9,195.2z M346,195.2c0-0.7-0.1-1.2-0.4-1.6    c-0.3-0.3-0.6-0.5-1.1-0.5c-0.5,0-0.8,0.2-1.1,0.5s-0.4,0.9-0.4,1.6c0,0.7,0.1,1.2,0.4,1.6c0.3,0.4,0.6,0.5,1.1,0.5    c0.5,0,0.8-0.2,1.1-0.5S346,195.9,346,195.2z"/> 		<path d="M352.5,197.9h-0.9v-3.1c0-0.3,0-0.5,0-0.7c0-0.2-0.1-0.4-0.2-0.5c-0.1-0.1-0.2-0.2-0.3-0.3c-0.1-0.1-0.3-0.1-0.6-0.1    c-0.2,0-0.5,0.1-0.7,0.2c-0.3,0.1-0.5,0.3-0.7,0.5v4.1h-0.9v-5.5h0.9v0.6c0.3-0.2,0.6-0.4,0.8-0.6c0.3-0.1,0.6-0.2,0.9-0.2    c0.6,0,1,0.2,1.3,0.5c0.3,0.4,0.4,0.9,0.4,1.5V197.9z"/> 		<path d="M356.9,197.9c-0.2,0-0.3,0.1-0.5,0.1c-0.2,0-0.4,0-0.5,0c-0.5,0-0.9-0.1-1.2-0.4c-0.3-0.3-0.4-0.8-0.4-1.4v-2.9h-0.6v-0.8    h0.6v-1.6h0.9v1.6h1.8v0.8h-1.8v2.5c0,0.3,0,0.5,0,0.7c0,0.2,0.1,0.3,0.1,0.5c0.1,0.1,0.2,0.2,0.3,0.3s0.3,0.1,0.5,0.1    c0.1,0,0.3,0,0.4-0.1c0.2,0,0.3-0.1,0.3-0.1h0V197.9z"/> 		<path d="M361.3,195.4c0.2,0.2,0.3,0.6,0.3,1c0,0.5-0.2,0.9-0.6,1.2c-0.4,0.3-0.9,0.5-1.6,0.5c-0.4,0-0.7,0-1-0.1s-0.6-0.2-0.8-0.3    v-1h0c0.3,0.2,0.6,0.4,0.9,0.5s0.7,0.2,1,0.2c0.4,0,0.7-0.1,0.9-0.2c0.2-0.1,0.3-0.3,0.3-0.6c0-0.2-0.1-0.4-0.2-0.5    c-0.1-0.1-0.3-0.2-0.7-0.3c-0.1,0-0.3-0.1-0.5-0.1s-0.4-0.1-0.5-0.1c-0.5-0.1-0.8-0.3-1-0.6c-0.2-0.2-0.3-0.5-0.3-0.9    c0-0.2,0-0.4,0.1-0.6c0.1-0.2,0.2-0.4,0.4-0.5c0.2-0.2,0.4-0.3,0.7-0.4c0.3-0.1,0.6-0.1,0.9-0.1c0.3,0,0.6,0,0.9,0.1    c0.3,0.1,0.6,0.2,0.8,0.3v1h0c-0.2-0.2-0.5-0.3-0.8-0.4s-0.6-0.2-0.9-0.2c-0.3,0-0.6,0.1-0.8,0.2c-0.2,0.1-0.3,0.3-0.3,0.6    c0,0.2,0.1,0.4,0.2,0.5c0.1,0.1,0.3,0.2,0.6,0.3c0.2,0,0.3,0.1,0.5,0.1s0.4,0.1,0.5,0.1C360.7,195,361.1,195.2,361.3,195.4    L361.3,195.4z"/> 	</g> 	<g> 		<path d="M118.1,312.7c0,0.4-0.1,0.7-0.2,1c-0.1,0.3-0.3,0.5-0.5,0.7c-0.3,0.2-0.5,0.4-0.9,0.5s-0.7,0.1-1.2,0.1h-2.4v-7.3h2    c0.5,0,0.9,0,1.1,0.1s0.5,0.1,0.7,0.2c0.3,0.1,0.4,0.3,0.5,0.5c0.1,0.2,0.2,0.5,0.2,0.8c0,0.3-0.1,0.6-0.2,0.9    c-0.2,0.2-0.4,0.4-0.7,0.6v0c0.5,0.1,0.8,0.3,1.1,0.6C118,311.8,118.1,312.2,118.1,312.7z M116.6,309.4c0-0.2,0-0.3-0.1-0.4    c-0.1-0.1-0.1-0.2-0.3-0.3c-0.1-0.1-0.3-0.1-0.5-0.2c-0.2,0-0.5,0-0.8,0h-1.1v2.1h1.2c0.3,0,0.5,0,0.7,0c0.2,0,0.3-0.1,0.5-0.2    s0.2-0.2,0.3-0.4C116.5,309.8,116.6,309.6,116.6,309.4z M117.1,312.7c0-0.3,0-0.5-0.1-0.7c-0.1-0.2-0.2-0.3-0.5-0.4    c-0.1-0.1-0.3-0.1-0.5-0.2c-0.2,0-0.5,0-0.8,0h-1.4v2.7h1.2c0.4,0,0.7,0,1-0.1s0.5-0.1,0.6-0.2c0.2-0.1,0.3-0.3,0.4-0.4    S117.1,313,117.1,312.7z"/> 		<path d="M123.6,312.3h-3.8c0,0.3,0,0.6,0.1,0.9s0.2,0.5,0.4,0.6c0.2,0.2,0.4,0.3,0.6,0.4c0.2,0.1,0.5,0.1,0.7,0.1    c0.4,0,0.7-0.1,1.1-0.2c0.4-0.1,0.6-0.3,0.8-0.4h0v1c-0.3,0.1-0.6,0.2-0.9,0.3s-0.6,0.1-1,0.1c-0.9,0-1.5-0.2-2-0.7    c-0.5-0.5-0.7-1.2-0.7-2.1c0-0.9,0.2-1.6,0.7-2.1s1.1-0.8,1.8-0.8c0.7,0,1.2,0.2,1.6,0.6c0.4,0.4,0.6,1,0.6,1.8V312.3z     M122.8,311.6c0-0.5-0.1-0.9-0.3-1.1s-0.6-0.4-1-0.4c-0.5,0-0.8,0.1-1.1,0.4s-0.4,0.6-0.5,1.1H122.8z"/> 		<path d="M125.8,314.9H125v-7.6h0.9V314.9z"/> 		<path d="M128.4,314.9h-0.9v-7.6h0.9V314.9z"/> 		<path d="M133.9,314.6c-0.3,0.1-0.6,0.3-0.8,0.3c-0.3,0.1-0.5,0.1-0.8,0.1c-0.4,0-0.7-0.1-1-0.2c-0.3-0.1-0.6-0.3-0.8-0.5    c-0.2-0.2-0.4-0.5-0.5-0.9s-0.2-0.8-0.2-1.3c0-0.9,0.2-1.6,0.7-2.1c0.5-0.5,1.1-0.8,1.8-0.8c0.3,0,0.6,0,0.9,0.1s0.5,0.2,0.8,0.3    v1h0c-0.3-0.2-0.5-0.4-0.8-0.5c-0.3-0.1-0.6-0.2-0.8-0.2c-0.5,0-0.9,0.2-1.2,0.5c-0.3,0.3-0.4,0.9-0.4,1.5c0,0.7,0.1,1.2,0.4,1.5    c0.3,0.4,0.7,0.5,1.2,0.5c0.2,0,0.4,0,0.5-0.1c0.2,0,0.3-0.1,0.5-0.2c0.1-0.1,0.2-0.1,0.4-0.2c0.1-0.1,0.2-0.1,0.3-0.2h0V314.6z"/> 		<path d="M139.1,314.9h-0.9v-0.6c-0.1,0.1-0.2,0.1-0.3,0.2c-0.1,0.1-0.3,0.2-0.4,0.2c-0.1,0.1-0.3,0.1-0.5,0.2    c-0.2,0-0.4,0.1-0.7,0.1c-0.5,0-0.9-0.2-1.2-0.5c-0.3-0.3-0.5-0.7-0.5-1.2c0-0.4,0.1-0.7,0.3-1c0.2-0.3,0.4-0.5,0.7-0.6    c0.3-0.1,0.7-0.2,1.1-0.3s0.9-0.1,1.4-0.1v-0.1c0-0.2,0-0.4-0.1-0.5c-0.1-0.1-0.2-0.2-0.3-0.3c-0.1-0.1-0.3-0.1-0.4-0.2    c-0.2,0-0.4,0-0.5,0c-0.2,0-0.5,0-0.8,0.1c-0.3,0.1-0.6,0.2-0.9,0.3h0v-0.9c0.2,0,0.4-0.1,0.7-0.2s0.6-0.1,0.9-0.1    c0.4,0,0.7,0,0.9,0.1c0.3,0.1,0.5,0.2,0.7,0.3c0.2,0.1,0.3,0.3,0.4,0.6s0.2,0.5,0.2,0.9V314.9z M138.2,313.6v-1.5    c-0.3,0-0.6,0-0.9,0.1s-0.6,0.1-0.9,0.1c-0.2,0.1-0.5,0.2-0.6,0.3c-0.2,0.2-0.2,0.4-0.2,0.7c0,0.3,0.1,0.5,0.3,0.7    c0.2,0.2,0.5,0.2,0.8,0.2c0.3,0,0.6-0.1,0.8-0.2C137.7,313.9,138,313.8,138.2,313.6z"/> 		<path d="M141.7,308.6h-1v-1h1V308.6z M141.6,314.9h-0.9v-5.5h0.9V314.9z"/> 		<path d="M146.5,310.5L146.5,310.5c-0.2,0-0.3-0.1-0.4-0.1s-0.3,0-0.4,0c-0.3,0-0.5,0.1-0.8,0.2c-0.2,0.1-0.5,0.3-0.7,0.5v3.9h-0.9    v-5.5h0.9v0.8c0.3-0.3,0.6-0.5,0.9-0.6s0.5-0.2,0.8-0.2c0.2,0,0.3,0,0.3,0c0.1,0,0.2,0,0.3,0V310.5z"/> 		<path d="M151.7,312.3h-3.8c0,0.3,0,0.6,0.1,0.9c0.1,0.2,0.2,0.5,0.4,0.6c0.2,0.2,0.3,0.3,0.6,0.4c0.2,0.1,0.5,0.1,0.7,0.1    c0.4,0,0.7-0.1,1.1-0.2c0.4-0.1,0.6-0.3,0.8-0.4h0v1c-0.3,0.1-0.6,0.2-0.9,0.3s-0.6,0.1-1,0.1c-0.9,0-1.5-0.2-2-0.7    c-0.5-0.5-0.7-1.2-0.7-2.1c0-0.9,0.2-1.6,0.7-2.1c0.5-0.5,1.1-0.8,1.8-0.8c0.7,0,1.2,0.2,1.6,0.6c0.4,0.4,0.6,1,0.6,1.8V312.3z     M150.8,311.6c0-0.5-0.1-0.9-0.3-1.1s-0.6-0.4-1-0.4c-0.5,0-0.8,0.1-1.1,0.4s-0.4,0.6-0.5,1.1H150.8z"/> 		<path d="M160.5,314.9h-0.9v-0.6c-0.2,0.2-0.5,0.4-0.8,0.5c-0.3,0.1-0.6,0.2-0.9,0.2c-0.6,0-1.1-0.3-1.5-0.8s-0.5-1.2-0.5-2.1    c0-0.5,0.1-0.9,0.2-1.2s0.3-0.7,0.5-0.9c0.2-0.2,0.5-0.4,0.7-0.6s0.6-0.2,0.9-0.2c0.3,0,0.5,0,0.7,0.1c0.2,0.1,0.4,0.2,0.7,0.3    v-2.4h0.9V314.9z M159.6,313.6v-3.1c-0.2-0.1-0.4-0.2-0.6-0.2s-0.4-0.1-0.6-0.1c-0.5,0-0.9,0.2-1.1,0.5c-0.3,0.4-0.4,0.9-0.4,1.5    c0,0.6,0.1,1.1,0.3,1.5c0.2,0.3,0.5,0.5,1,0.5c0.2,0,0.5-0.1,0.7-0.2C159.2,313.9,159.4,313.8,159.6,313.6z"/> 		<path d="M163.1,307.3l-0.2,2.8h-0.6l-0.2-2.8H163.1z"/> 		<path d="M170,312c0,0.5-0.1,1-0.2,1.4c-0.1,0.4-0.3,0.7-0.5,1c-0.2,0.2-0.5,0.4-0.8,0.5s-0.7,0.2-1.1,0.2c-0.4,0-0.8-0.1-1.1-0.2    s-0.6-0.3-0.8-0.5c-0.2-0.3-0.4-0.6-0.5-1c-0.1-0.4-0.2-0.8-0.2-1.4v-4.4h0.9v4.4c0,0.4,0,0.7,0.1,0.9s0.1,0.4,0.3,0.6    c0.1,0.2,0.3,0.4,0.6,0.5c0.2,0.1,0.5,0.2,0.8,0.2c0.3,0,0.6-0.1,0.8-0.2c0.2-0.1,0.4-0.3,0.6-0.5c0.1-0.2,0.2-0.4,0.3-0.6    s0.1-0.5,0.1-0.9v-4.4h0.9V312z"/> 		<path d="M174.9,310.5L174.9,310.5c-0.2,0-0.3-0.1-0.4-0.1s-0.3,0-0.4,0c-0.3,0-0.5,0.1-0.8,0.2c-0.2,0.1-0.5,0.3-0.7,0.5v3.9h-0.9    v-5.5h0.9v0.8c0.3-0.3,0.6-0.5,0.9-0.6s0.5-0.2,0.8-0.2c0.2,0,0.3,0,0.3,0c0.1,0,0.2,0,0.3,0V310.5z"/> 		<path d="M179.9,314.3c0,0.9-0.2,1.6-0.6,2s-1,0.6-1.8,0.6c-0.3,0-0.5,0-0.8-0.1c-0.3,0-0.5-0.1-0.8-0.2v-0.9h0    c0.1,0.1,0.4,0.1,0.7,0.2c0.3,0.1,0.6,0.1,0.9,0.1c0.3,0,0.5,0,0.7-0.1s0.3-0.2,0.5-0.3c0.1-0.1,0.2-0.3,0.2-0.5    c0-0.2,0.1-0.4,0.1-0.6v-0.5c-0.3,0.2-0.5,0.4-0.7,0.5c-0.2,0.1-0.5,0.2-0.9,0.2c-0.6,0-1.1-0.2-1.5-0.7c-0.4-0.5-0.5-1.1-0.5-2    c0-0.5,0.1-0.9,0.2-1.2c0.1-0.3,0.3-0.6,0.5-0.9c0.2-0.2,0.4-0.4,0.7-0.5c0.3-0.1,0.6-0.2,0.9-0.2c0.3,0,0.5,0,0.7,0.1    c0.2,0.1,0.4,0.2,0.6,0.3l0.1-0.2h0.8V314.3z M179,313.4v-3c-0.2-0.1-0.4-0.2-0.6-0.2c-0.2,0-0.4-0.1-0.6-0.1    c-0.5,0-0.9,0.2-1.1,0.5s-0.4,0.8-0.4,1.5c0,0.6,0.1,1.1,0.3,1.4c0.2,0.3,0.5,0.5,1,0.5c0.3,0,0.5-0.1,0.8-0.2    C178.6,313.8,178.8,313.6,179,313.4z"/> 		<path d="M185.9,312.3h-3.8c0,0.3,0,0.6,0.1,0.9s0.2,0.5,0.4,0.6c0.2,0.2,0.4,0.3,0.6,0.4c0.2,0.1,0.5,0.1,0.7,0.1    c0.4,0,0.7-0.1,1.1-0.2c0.4-0.1,0.6-0.3,0.8-0.4h0v1c-0.3,0.1-0.6,0.2-0.9,0.3s-0.6,0.1-1,0.1c-0.9,0-1.5-0.2-2-0.7    c-0.5-0.5-0.7-1.2-0.7-2.1c0-0.9,0.2-1.6,0.7-2.1s1.1-0.8,1.8-0.8c0.7,0,1.2,0.2,1.6,0.6c0.4,0.4,0.6,1,0.6,1.8V312.3z     M185.1,311.6c0-0.5-0.1-0.9-0.3-1.1s-0.6-0.4-1-0.4c-0.5,0-0.8,0.1-1.1,0.4s-0.4,0.6-0.5,1.1H185.1z"/> 		<path d="M188.1,314.9h-0.9v-7.6h0.9V314.9z"/> 		<path d="M190.7,314.9h-0.9v-7.6h0.9V314.9z"/> 	</g> 	<g> 		<path d="M162.6,295.7c0,0.4-0.1,0.7-0.2,1c-0.1,0.3-0.3,0.5-0.5,0.7c-0.3,0.2-0.5,0.4-0.9,0.5s-0.7,0.1-1.2,0.1h-2.4v-7.3h2    c0.5,0,0.9,0,1.1,0.1c0.2,0,0.5,0.1,0.7,0.2c0.3,0.1,0.4,0.3,0.5,0.5c0.1,0.2,0.2,0.5,0.2,0.8c0,0.3-0.1,0.6-0.2,0.9    c-0.2,0.2-0.4,0.4-0.7,0.6v0c0.5,0.1,0.8,0.3,1.1,0.6C162.5,294.7,162.6,295.2,162.6,295.7z M161.1,292.4c0-0.2,0-0.3-0.1-0.4    c-0.1-0.1-0.1-0.2-0.3-0.3c-0.1-0.1-0.3-0.1-0.5-0.2c-0.2,0-0.5,0-0.8,0h-1.1v2.1h1.2c0.3,0,0.5,0,0.7,0c0.2,0,0.3-0.1,0.5-0.2    s0.2-0.2,0.3-0.4C161.1,292.8,161.1,292.6,161.1,292.4z M161.7,295.7c0-0.3,0-0.5-0.1-0.7c-0.1-0.2-0.2-0.3-0.5-0.4    c-0.1-0.1-0.3-0.1-0.5-0.2c-0.2,0-0.5,0-0.8,0h-1.4v2.7h1.2c0.4,0,0.7,0,1-0.1s0.5-0.1,0.6-0.2c0.2-0.1,0.3-0.3,0.4-0.4    S161.7,296,161.7,295.7z"/> 		<path d="M168.2,295.3h-3.8c0,0.3,0,0.6,0.1,0.9s0.2,0.5,0.4,0.6c0.2,0.2,0.4,0.3,0.6,0.4c0.2,0.1,0.5,0.1,0.7,0.1    c0.4,0,0.7-0.1,1.1-0.2c0.4-0.1,0.6-0.3,0.8-0.4h0v1c-0.3,0.1-0.6,0.2-0.9,0.3c-0.3,0.1-0.6,0.1-1,0.1c-0.9,0-1.5-0.2-2-0.7    c-0.5-0.5-0.7-1.2-0.7-2.1c0-0.9,0.2-1.6,0.7-2.1s1.1-0.8,1.8-0.8c0.7,0,1.2,0.2,1.6,0.6c0.4,0.4,0.6,1,0.6,1.8V295.3z     M167.3,294.6c0-0.5-0.1-0.9-0.3-1.1s-0.6-0.4-1-0.4c-0.5,0-0.8,0.1-1.1,0.4s-0.4,0.6-0.5,1.1H167.3z"/> 		<path d="M170.4,297.9h-0.9v-7.6h0.9V297.9z"/> 		<path d="M172.9,297.9h-0.9v-7.6h0.9V297.9z"/> 		<path d="M182.2,297.9h-0.9v-3.1c0-0.2,0-0.5,0-0.7s-0.1-0.4-0.1-0.5c-0.1-0.1-0.2-0.2-0.3-0.3s-0.3-0.1-0.6-0.1    c-0.2,0-0.5,0.1-0.7,0.2c-0.2,0.1-0.5,0.3-0.7,0.5c0,0.1,0,0.2,0,0.3c0,0.1,0,0.2,0,0.3v3.5H178v-3.1c0-0.2,0-0.5,0-0.7    c0-0.2-0.1-0.4-0.1-0.5c-0.1-0.1-0.2-0.2-0.3-0.3c-0.1-0.1-0.3-0.1-0.6-0.1c-0.2,0-0.5,0.1-0.7,0.2s-0.5,0.3-0.7,0.5v4.1h-0.9    v-5.5h0.9v0.6c0.3-0.2,0.5-0.4,0.8-0.6c0.3-0.1,0.6-0.2,0.9-0.2c0.4,0,0.6,0.1,0.9,0.2c0.2,0.2,0.4,0.4,0.5,0.6    c0.4-0.3,0.7-0.5,1-0.7c0.3-0.1,0.6-0.2,0.9-0.2c0.6,0,1,0.2,1.3,0.5c0.3,0.4,0.4,0.9,0.4,1.5V297.9z"/> 		<path d="M188.1,297.9h-0.9v-0.6c-0.3,0.2-0.6,0.4-0.8,0.6s-0.6,0.2-0.9,0.2c-0.5,0-1-0.2-1.3-0.5c-0.3-0.4-0.5-0.9-0.5-1.5v-3.5    h0.9v3.1c0,0.3,0,0.5,0,0.7c0,0.2,0.1,0.4,0.2,0.5c0.1,0.1,0.2,0.2,0.3,0.3s0.3,0.1,0.6,0.1c0.2,0,0.5-0.1,0.7-0.2    s0.5-0.3,0.7-0.5v-4.1h0.9V297.9z"/> 		<path d="M194.1,297.9h-0.9v-3.1c0-0.3,0-0.5,0-0.7c0-0.2-0.1-0.4-0.2-0.5c-0.1-0.1-0.2-0.2-0.3-0.3c-0.1-0.1-0.3-0.1-0.6-0.1    c-0.2,0-0.5,0.1-0.7,0.2c-0.3,0.1-0.5,0.3-0.7,0.5v4.1h-0.9v-5.5h0.9v0.6c0.3-0.2,0.6-0.4,0.8-0.6s0.6-0.2,0.9-0.2    c0.6,0,1,0.2,1.3,0.5c0.3,0.4,0.4,0.9,0.4,1.5V297.9z"/> 		<path d="M198.5,297.9c-0.2,0-0.3,0.1-0.5,0.1s-0.4,0-0.5,0c-0.5,0-0.9-0.1-1.2-0.4c-0.3-0.3-0.4-0.8-0.4-1.4v-2.9h-0.6v-0.8h0.6    v-1.6h0.9v1.6h1.8v0.8h-1.8v2.5c0,0.3,0,0.5,0,0.7c0,0.2,0.1,0.3,0.1,0.5c0.1,0.1,0.2,0.2,0.3,0.3c0.1,0.1,0.3,0.1,0.5,0.1    c0.1,0,0.3,0,0.4-0.1s0.3-0.1,0.3-0.1h0V297.9z"/> 		<path d="M207,297.9h-0.9v-0.6c-0.2,0.2-0.5,0.4-0.8,0.5c-0.3,0.1-0.6,0.2-0.9,0.2c-0.6,0-1.1-0.3-1.5-0.8s-0.5-1.2-0.5-2.1    c0-0.5,0.1-0.9,0.2-1.2c0.1-0.4,0.3-0.7,0.5-0.9c0.2-0.2,0.5-0.4,0.7-0.6s0.6-0.2,0.9-0.2c0.3,0,0.5,0,0.7,0.1    c0.2,0.1,0.4,0.2,0.7,0.3v-2.4h0.9V297.9z M206.2,296.6v-3.1c-0.2-0.1-0.4-0.2-0.6-0.2s-0.4-0.1-0.6-0.1c-0.5,0-0.9,0.2-1.1,0.5    c-0.3,0.4-0.4,0.9-0.4,1.5c0,0.6,0.1,1.1,0.3,1.5c0.2,0.3,0.5,0.5,1,0.5c0.2,0,0.5-0.1,0.7-0.2C205.7,296.9,206,296.7,206.2,296.6    z"/> 		<path d="M209.7,290.3l-0.2,2.8h-0.6l-0.2-2.8H209.7z"/> 		<path d="M216.5,295c0,0.5-0.1,1-0.2,1.4c-0.1,0.4-0.3,0.7-0.5,1c-0.2,0.2-0.5,0.4-0.8,0.5s-0.7,0.2-1.1,0.2    c-0.4,0-0.8-0.1-1.1-0.2s-0.6-0.3-0.8-0.5c-0.2-0.3-0.4-0.6-0.5-1c-0.1-0.4-0.2-0.8-0.2-1.4v-4.4h0.9v4.4c0,0.4,0,0.7,0.1,0.9    s0.1,0.4,0.3,0.6c0.1,0.2,0.3,0.4,0.6,0.5c0.2,0.1,0.5,0.2,0.8,0.2c0.3,0,0.6-0.1,0.8-0.2c0.2-0.1,0.4-0.3,0.6-0.5    c0.1-0.2,0.2-0.4,0.3-0.6s0.1-0.5,0.1-0.9v-4.4h0.9V295z"/> 		<path d="M221.4,293.4L221.4,293.4c-0.2,0-0.3-0.1-0.4-0.1s-0.3,0-0.4,0c-0.3,0-0.5,0.1-0.8,0.2c-0.2,0.1-0.5,0.3-0.7,0.5v3.9h-0.9    v-5.5h0.9v0.8c0.3-0.3,0.6-0.5,0.9-0.6s0.5-0.2,0.8-0.2c0.2,0,0.3,0,0.3,0c0.1,0,0.2,0,0.3,0V293.4z"/> 		<path d="M226.4,297.3c0,0.9-0.2,1.6-0.6,2c-0.4,0.4-1,0.6-1.8,0.6c-0.3,0-0.5,0-0.8-0.1c-0.3,0-0.5-0.1-0.8-0.2v-0.9h0    c0.1,0.1,0.4,0.1,0.7,0.2c0.3,0.1,0.6,0.1,0.9,0.1c0.3,0,0.5,0,0.7-0.1s0.3-0.2,0.5-0.3c0.1-0.1,0.2-0.3,0.2-0.5    c0-0.2,0.1-0.4,0.1-0.6v-0.5c-0.3,0.2-0.5,0.4-0.7,0.5c-0.2,0.1-0.5,0.2-0.9,0.2c-0.6,0-1.1-0.2-1.5-0.7c-0.4-0.5-0.5-1.1-0.5-2    c0-0.5,0.1-0.9,0.2-1.2c0.1-0.3,0.3-0.6,0.5-0.9c0.2-0.2,0.4-0.4,0.7-0.5c0.3-0.1,0.6-0.2,0.9-0.2c0.3,0,0.5,0,0.7,0.1    c0.2,0.1,0.4,0.2,0.6,0.3l0.1-0.2h0.8V297.3z M225.6,296.4v-3c-0.2-0.1-0.4-0.2-0.6-0.2c-0.2,0-0.4-0.1-0.6-0.1    c-0.5,0-0.9,0.2-1.1,0.5c-0.3,0.3-0.4,0.8-0.4,1.5c0,0.6,0.1,1.1,0.3,1.4c0.2,0.3,0.5,0.5,1,0.5c0.3,0,0.5-0.1,0.8-0.2    C225.1,296.7,225.3,296.6,225.6,296.4z"/> 		<path d="M232.4,295.3h-3.8c0,0.3,0,0.6,0.1,0.9s0.2,0.5,0.4,0.6c0.2,0.2,0.3,0.3,0.6,0.4s0.5,0.1,0.7,0.1c0.4,0,0.7-0.1,1.1-0.2    c0.4-0.1,0.6-0.3,0.8-0.4h0v1c-0.3,0.1-0.6,0.2-0.9,0.3c-0.3,0.1-0.6,0.1-1,0.1c-0.9,0-1.5-0.2-2-0.7c-0.5-0.5-0.7-1.2-0.7-2.1    c0-0.9,0.2-1.6,0.7-2.1s1.1-0.8,1.8-0.8c0.7,0,1.2,0.2,1.6,0.6s0.6,1,0.6,1.8V295.3z M231.6,294.6c0-0.5-0.1-0.9-0.3-1.1    c-0.2-0.3-0.6-0.4-1-0.4c-0.5,0-0.8,0.1-1.1,0.4s-0.4,0.6-0.5,1.1H231.6z"/> 		<path d="M234.6,297.9h-0.9v-7.6h0.9V297.9z"/> 		<path d="M237.2,297.9h-0.9v-7.6h0.9V297.9z"/> 	</g> </g> <g id="llegenda"> 	<line style="fill:none;stroke:#9A9A9A;stroke-width:2;stroke-miterlimit:10;" x1="-70.3" y1="-59.8" x2="-70.3" y2="-30.3"/> 	<g> 		<path d="M-62.6-49.4h0.9v7.1h-0.9V-49.4z"/> 		<path d="M-59.3-48.5c0,0.3-0.2,0.5-0.6,0.5c-0.3,0-0.5-0.2-0.5-0.5s0.2-0.5,0.5-0.5C-59.5-49-59.3-48.8-59.3-48.5z M-60.2-42.3    v-4.8h0.9v4.8H-60.2z"/> 		<path d="M-57.9-45.8c0-0.5,0-0.9,0-1.3h0.8l0,0.8h0c0.2-0.4,0.8-0.9,1.6-0.9c0.7,0,1.7,0.4,1.7,2.1v2.9h-0.9v-2.8    c0-0.8-0.3-1.4-1.1-1.4c-0.6,0-1,0.4-1.2,0.9c0,0.1-0.1,0.3-0.1,0.4v2.9h-0.9V-45.8z"/> 	</g> 	<line style="fill:none;stroke:#696969;stroke-width:2;stroke-miterlimit:10;" x1="-70.3" y1="-20.2" x2="-70.3" y2="9.3"/> 	<g> 		<path d="M-62.6-9.8h0.9v7.1h-0.9V-9.8z"/> 		<path d="M-59.3-8.9c0,0.3-0.2,0.5-0.6,0.5c-0.3,0-0.5-0.2-0.5-0.5s0.2-0.5,0.5-0.5C-59.5-9.4-59.3-9.2-59.3-8.9z M-60.2-2.7v-4.8    h0.9v4.8H-60.2z"/> 		<path d="M-57.9-6.2c0-0.5,0-0.9,0-1.3h0.8l0,0.8h0c0.2-0.4,0.8-0.9,1.6-0.9c0.7,0,1.7,0.4,1.7,2.1v2.9h-0.9v-2.8    c0-0.8-0.3-1.4-1.1-1.4c-0.6,0-1,0.4-1.2,0.9c0,0.1-0.1,0.3-0.1,0.4v2.9h-0.9V-6.2z"/> 	</g> 	<rect x="-75.7" y="-84.4" style="fill:#BFBFBF;" width="16.3" height="15.3"/> 	<rect x="-75.7" y="-112" style="fill:#DCE9FB;" width="16.3" height="15.3"/> 	<g> 		<path d="M-50.1-75v-4.2h-0.7v-0.7h0.7v-0.2c0-0.7,0.2-1.3,0.6-1.7c0.3-0.3,0.8-0.4,1.2-0.4c0.3,0,0.6,0.1,0.7,0.1l-0.1,0.7    c-0.1-0.1-0.3-0.1-0.6-0.1c-0.7,0-0.9,0.6-0.9,1.4v0.3h1.2v0.7h-1.2v4.2H-50.1z"/> 		<path d="M-43.1-77.5c0,1.8-1.2,2.6-2.4,2.6c-1.3,0-2.3-1-2.3-2.5c0-1.6,1.1-2.6,2.4-2.6C-44-80-43.1-79-43.1-77.5z M-46.9-77.4    c0,1.1,0.6,1.9,1.5,1.9c0.8,0,1.5-0.8,1.5-1.9c0-0.8-0.4-1.8-1.4-1.8C-46.4-79.3-46.9-78.3-46.9-77.4z"/> 		<path d="M-42-78.6c0-0.5,0-0.9,0-1.3h0.8l0,0.8h0c0.2-0.4,0.8-0.9,1.6-0.9c0.7,0,1.7,0.4,1.7,2.1v2.9h-0.9v-2.8    c0-0.8-0.3-1.4-1.1-1.4c-0.6,0-1,0.4-1.2,0.9c0,0.1-0.1,0.3-0.1,0.4v2.9H-42V-78.6z"/> 		<path d="M-36.5-75.9c0.3,0.2,0.7,0.3,1.2,0.3c0.6,0,0.9-0.3,0.9-0.7c0-0.4-0.3-0.6-0.9-0.9c-0.9-0.3-1.3-0.8-1.3-1.4    c0-0.8,0.6-1.4,1.7-1.4c0.5,0,0.9,0.1,1.2,0.3L-34-79c-0.2-0.1-0.5-0.3-1-0.3c-0.5,0-0.8,0.3-0.8,0.7c0,0.4,0.3,0.6,0.9,0.8    c0.8,0.3,1.3,0.7,1.3,1.4c0,0.9-0.7,1.5-1.8,1.5c-0.5,0-1-0.1-1.4-0.3L-36.5-75.9z"/> 	</g> 	<g> 		<path d="M-50.2-105.9c0-0.5,0-0.9,0-1.3h0.8l0,0.8h0c0.3-0.5,0.7-0.9,1.5-0.9c0.6,0,1.1,0.4,1.4,1h0c0.1-0.3,0.4-0.5,0.5-0.6    c0.3-0.2,0.6-0.3,1.1-0.3c0.6,0,1.6,0.4,1.6,2.1v2.8h-0.9v-2.7c0-0.9-0.3-1.5-1-1.5c-0.5,0-0.9,0.4-1,0.8c0,0.1-0.1,0.3-0.1,0.4v3    h-0.9v-2.9c0-0.8-0.3-1.3-1-1.3c-0.5,0-0.9,0.4-1.1,0.9c-0.1,0.1-0.1,0.3-0.1,0.4v2.9h-0.9V-105.9z"/> 		<path d="M-38.5-103.5c0,0.4,0,0.8,0.1,1.2h-0.8l-0.1-0.6h0c-0.3,0.4-0.8,0.7-1.5,0.7c-1,0-1.5-0.7-1.5-1.4c0-1.2,1-1.8,2.9-1.8    v-0.1c0-0.4-0.1-1.1-1.1-1.1c-0.5,0-0.9,0.1-1.3,0.4l-0.2-0.6c0.4-0.3,1-0.4,1.6-0.4c1.5,0,1.8,1,1.8,2V-103.5z M-39.3-104.8    c-1,0-2,0.1-2,1.1c0,0.6,0.4,0.8,0.8,0.8c0.6,0,1-0.4,1.2-0.8c0-0.1,0-0.2,0-0.3V-104.8z"/> 		<path d="M-37.1-105.7c0-0.6,0-1.1,0-1.5h0.8l0,1h0c0.2-0.6,0.8-1.1,1.3-1.1c0.1,0,0.2,0,0.2,0v0.8c-0.1,0-0.2,0-0.3,0    c-0.6,0-1.1,0.5-1.2,1.1c0,0.1,0,0.3,0,0.4v2.6h-0.9V-105.7z"/> 	</g> 	<circle style="fill-rule:evenodd;clip-rule:evenodd;fill:#5B7EBD;" cx="-92" cy="-42.3" r="2.4"/> 	 		<rect x="-100.1" y="-84.4" style="fill:#BFBFBF;stroke:#696969;stroke-width:2;stroke-miterlimit:10;" width="16.3" height="15.3"/> 	 		<rect x="-124.9" y="-84.4" style="fill:#FFFBF0;stroke:#9A9A9A;stroke-width:2;stroke-miterlimit:10;" width="16.3" height="15.3"/> 	<rect x="-122.1" y="-131" style="opacity:0.7;fill:#FFFBF0;" width="92.8" height="9.6"/> </g> </svg>