<svg xmlns="http://www.w3.org/2000/svg" xmlns:xlink="http://www.w3.org/1999/xlink" version="1.1" x="0px" y="0px" width="449.9px" height="449.9px" viewBox="0 0 449.9 449.9" style="enable-background:new 0 0 449.9 449.9;" xml:space="preserve"> <g id="Guías" style="display:none;"> </g> <g id="Mar"> 	<path style="fill-rule:evenodd;clip-rule:evenodd;fill:#80B3FF;" d="M-12.1-7.4h479v479h-479V-7.4z M360.9,94.9   c0.7,2.5,1.7,3.9,3.8,5.5c2.2,1.7,4.2,1.1,6.8,2.3c2.5,1.2,3.7,2.3,6,3.8c2.2,1.4,3.5,2.1,5.8,3.5c2.2,1.3,3.5,1.9,5.5,3.5   c2.8,2.3,4.5,3.9,6,7.3c1.4,3.1,1.8,5.1,1.5,8.5c-0.3,4-2.4,5.8-3.8,9.5c-0.9,2.5-2.8,3.9-2.3,6.5c0.3,1.5,1.7,2,2,3.5   c0.5,2.7-1.2,4.4-3,6.5c-2.4,2.8-5.2,2.4-8.3,4.5c-4.8,3.3-7.1,5.9-10.8,10.5c-2.3,2.9-4.6,4.3-5.3,8c-0.6,3.5,0.2,5.9,2,9   c1.5,2.7,4.8,2.7,5.5,5.8c0.4,1.6-0.5,2.6-0.3,4.3c0.5,2.7,3,3.3,3.8,6c0.8,3.1-0.2,5.1-0.8,8.3c-0.5,3.4-0.9,5.3-2,8.5   c-1.7,4.9-4.3,6.9-6,11.8c-0.6,1.5-0.9,2.4-1.3,4c-0.6,3.1,0.7,4.9,0.3,8c-0.5,3.4-3.1,4.8-3,8.3c0.1,3.1,3.3,4.4,3,7.5   c-0.2,2.1-0.6,3.4-2,5c-1.8,2-5.1,0.4-6.3,2.8c-0.7,1.4,0.1,2.5-0.3,4c-0.4,2.1-0.9,3.2-2,5c-1.5,2.3-4.6,2.1-5.3,4.8   c-0.3,1.1,0.5,2,0,3c-0.9,1.7-2.9,0.7-4.8,1.3c-3.8,1.2-5.9,2.1-9.3,4.3c-2.6,1.7-3.8,3.1-6.3,5c-1.4,1.1-0.7,3.1-1.8,3.9   c-0.6,0.4-3-0.4-3.7,0.1l-2,9.1l0.5-7.2l-4,0.6c-1.6,1.9-7.4,8.7-7.4,8.7l2.6,0.8l-0.9,1.6l-3.1-1.2l-1.2,1.6l0.7,3.3l-1.7,0.7   c0-1.4-0.4-2.3-1.3-3.3c-1.9-2-4.3-0.5-7,0c-3.4,0.6-4.9,2.4-8.3,3.5c-6.4,2.1-11.8-1.3-17,3c-2.3,1.9-2.9,3.6-4.8,6   c-1.6,2-2.1,3.5-4,5.3c-4,3.8-8.1,3.1-13,5.8c-2.6,1.4-3.8,2.8-6.5,4c-3.6,1.6-5.9,1.8-9.8,2.3c-4.2,0.5-6.6,0.3-10.8,0   c-1.9-0.1-2.9-0.5-4.8-0.5c-2.5,0-3.8,0.4-6.3,0.8c-6,0.9-9.7,0.6-15.3,3c-3.4,1.5-4.9,3.4-8.3,5c-4.6,2.2-8.5,0.8-12.5,4   c-2.7,2.1-4.1,3.8-5.5,7c-1.6,3.5-0.9,5.9-1.5,9.8c-0.4,2.7,0.6,4.8-1,7c-1.2,1.7-2.8,1.7-4.5,3c-4.6,3.4-7.6,5.5-10.3,10.5   c-1.1,2.1-1,3.7-2.3,5.8c-0.9,1.4-1.6,2.1-2.8,3.3c-1.8,1.8-3.1,2.6-5,4.3c-0.7,0.6-0.9,1.2-1.8,1.5c-2.3,0.8-0.3-4-1.3-6.3   c-1.3-3.1-2.3-5.3-5.3-6.8c-1.7-0.8-2.9-1.1-4.8-1c-2.3,0.1-3.2,1.8-5.5,2c-4.4,0.3-5.5-5.6-10-5.5c-2.7,0.1-4.1,1-6.5,2.3   c-1.4,0.8-1.9,1.8-3.5,2.3c-3.5,0.9-4.6-4.1-8.3-4.5c-2.6-0.3-4.3-0.1-6.8,1c-2.8,1.3-2.9,6.6-5.8,5.5c-1.7-0.7-1.9-2.1-2.8-3.8   c-1.9-3.8,0.6-6.9-0.5-11c-0.8-3-3-4.2-3.3-7.3c-0.2-2.5-0.4-4.4,1.3-6.3c1.3-1.6,2.9-1.4,4.8-2.3c3.2-1.5,6-1.2,8.3-4   c1.7-2,1.1-4,2.5-6.3c1.1-1.8,2.1-2.6,3.5-4.3c1-1.2,1.5-1.8,2.5-3c3.6-4.1,8.4-4.7,9.8-10c0.7-2.8-0.2-4.6-0.3-7.5   c-0.1-3.5,0.3-5.5,0-9c-0.2-2.1-1.1-3.2-0.8-5.3c0.2-1.6,1.1-2.2,1.5-3.8c0.9-3.7-1.5-5.9-1.3-9.8c0.1-2,0.6-3,0.8-5   c0.4-4.7-1.3-7.3-1-12c0.4-6.2,2.1-9.5,4.3-15.3c2.5-6.6,2.9-11.3,8-16.3c2.5-2.4,4.5-2.9,7.3-5c6.4-4.8,9.1-8.6,15-14   c2.2-2.1,3.2-3.7,5.8-5.3c2.8-1.7,5.3-0.8,8-2.8c3.3-2.4,2.4-6.4,5.8-8.8c4.4-3,8.6,0.4,13.8-1c3.4-0.9,4.8-3.9,8.3-3.5   c2.9,0.3,3.6,4,6.5,3.8c1.4-0.1,2.1-0.6,3.3-1.3c2.6-1.5,2.5-4.3,5-6c2.5-1.7,4.9-0.6,7.5-2.3c3.3-2.2,3.1-5.5,6-8.3   c2.2-2.1,3.7-3,6.3-4.5c2.9-1.7,6.3-0.5,7.8-3.5c0.8-1.7-0.2-3,0.5-4.8c0.8-1.8,1.6-2.7,3.3-3.8c2.9-1.9,6.6-3.2,8.8-0.5   c1.5,1.8-1.4,4.6,0.5,6c2,1.4,3.8-0.9,6-2c4.1-2.1,5-5.3,8.8-8c4.6-3.3,7.3-6.7,13-6.8c4-0.1,6.1,1.4,9.8,3   c5.3,2.3,7.6,4.7,12.5,7.8c2.8,1.8,4,3.9,7.3,4.5c5.5,1,8.4-3.2,12.8-6.8c4.5-3.6,7.4-5.9,9.5-11.3c1.3-3.3,1-5.5,1.5-9   c0.7-5.3-0.9-8.8,1.3-13.8c1.3-2.9,3.2-3.9,4.8-6.8c3.7-6.5,1-12.3,5.3-18.5c1.2-1.8,2.2-2.6,3.5-4.3c1.2-1.5,2.2-2.2,3-4   c1.1-2.4-0.2-4.4,1-6.8c1.9-3.6,5.7-2.9,8.8-5.5c2.4-2,3.6-3.3,5.5-5.8c0.9-1.2,0.8-3.6,2.3-3.3C360.6,92.4,360.2,93.1,360.9,94.9z    M341.9,59.1c-1.5-0.7-2.2-1.2-3.5-2.3c-2.1-1.8-1.7-5.3-4.5-5.5c-1.8-0.2-2.9,0.6-4.3,1.8c-2.5,2.2-0.9,5.2-2.3,8.3   c-1.1,2.5-2.9,3.4-3.5,6c-0.6,2.7,1,4.3,0.5,7c-0.2,1.3-0.5,2-1,3.3c-0.8,2.2-2.2,3-2.8,5.3c-0.5,2,0.4,3.3-0.3,5.3   c-0.8,2.3-2.2,3.1-4,4.8c-2.4,2.1-4.7,2.1-7,4.3c-1.5,1.4-3,2-3.3,4c-0.4,2.5,1.3,4.3,3.5,5.5c1.6,0.9,3.5-0.7,4.5,0.8   c0.6,0.8,0,1.7,0.5,2.5c1.5,2.2,3.3-3.2,6-3.3c0.8,0,1.2,0.3,2,0.3c3.7,0,3.8-5.2,7.5-6c2-0.4,3.3,0.7,5.3,0.3   c3.1-0.8,4.2-3,6.3-5.5c2.8-3.5,3-6.4,4.8-10.5c1.6-3.8,0.4-7.4,3.8-9.8c1.2-0.9,2.3-0.6,3.5-1.5c2.2-1.5,3.8-3.1,3.8-5.8   c0-1.7-0.6-2.6-1.5-4c-1.3-2.2-2.5-3.3-4.8-4.5C347.9,58,345.4,59.4,341.9,59.1z M317.1,46.4c0.2-2.3,2.4-4.6,0.5-6   c-1-0.7-1.8-0.5-3-0.5c-1.3,0-2.1-0.1-3.3,0.5c-2.6,1.5-0.8,4.8-0.3,7.8c0.3,1.7-0.4,3.8,1.3,4.3c1.2,0.3,2-0.4,3-1.3   C316.9,49.8,316.5,48,317.1,46.4z"/> </g> <g id="color-municipis"> 	<a> 		<path style="fill-rule:evenodd;clip-rule:evenodd;fill:#FFFBF0;" d="M230,275.1c2-1.2,3.9-1.2,5.9,0c0.9,0.6,1.3,1.2,2,2    c3.9,4.4,2.6,8.9,5.8,13.8c2.3,3.5,4.4,4.9,7,8.3c4.6,5.8,6.6,9.5,11,15.5c3.2,4.3,5,6.7,8.3,11c1.8-2.3,2.4-4.1,4.8-6    c3.1-2.5,6.2-2.4,9.5-2.3c-0.7-5.8-1-9.1-1.5-15c-0.4-4.5-0.1-7-0.8-11.5c-0.4-3.1-1.4-4.8-1.5-8c-0.1-2-1-3.7,0.3-5.3    c0.7-0.9,1.6-0.9,2.5-0.7c-1.7-3.1-2.9-4.9-5-7.8c-1.1-1.6-1.6-2.7-3-4c-4.8-4.4-10.1-0.6-16.5-1.5c-3.3-0.5-5.3-0.4-8.5-1.5    c-2.7-1-3.7-3-6.5-3.5c-2.4-0.4-4.3-0.1-6.5,0.9c-1.4,5.4-2.2,9.7-6.2,14.6C230.6,274.4,230.3,274.8,230,275.1z"/> 	</a> 	<a> 		<path style="fill-rule:evenodd;clip-rule:evenodd;fill:#FFFBF0;" d="M230,275.1c2-1.2,3.9-1.2,5.9,0c0.9,0.6,1.3,1.2,2,2    c3.9,4.4,2.6,8.9,5.8,13.8c2.3,3.5,4.4,4.9,7,8.3c4.6,5.8,6.6,9.5,11,15.5c3.2,4.3,5,6.7,8.3,11c-1.6,2-2.1,3.5-4,5.3    c-4,3.8-8.1,3.1-13,5.8c-2.6,1.4-3.8,2.8-6.5,4c-3.6,1.6-5.9,1.8-9.8,2.3c-4.2,0.5-6.6,0.3-10.8,0c-1.9-0.1-2.9-0.5-4.8-0.5    c-2.5,0-3.8,0.4-6.3,0.8c-4.3,0.6-7.5,0.6-10.9,1.5c-1.1-8.8-2.1-13.7-2.8-22.5c-0.4-5.2-1.3-8.1-0.8-13.3    c0.7-6.6,1.2-10.9,5.3-16.3c0.2-0.2,0.3-0.4,0.5-0.6c2.8-3.5,5.8-4.6,9.5-7.4C221,280.5,225.6,279.8,230,275.1z"/> 	</a> 	<a> 		<path style="fill-rule:evenodd;clip-rule:evenodd;fill:#FFFBF0;" d="M128.3,251.3c-1.4,0.8-2.7,1.6-4.2,3c-5.1,4.9-5.5,9.6-8,16.3    c-2.2,5.8-3.8,9.1-4.3,15.3c-0.3,4.7,1.4,7.3,1,12c-0.2,2-0.6,3-0.8,5c-0.2,3.8,2.1,6,1.3,9.8c-0.4,1.5-1.3,2.2-1.5,3.8    c-0.3,2,0.6,3.2,0.8,5.3c0.3,3.5-0.1,5.5,0,9c0.1,2.9,1,4.7,0.3,7.5c-1.3,5.3-6.2,5.9-9.8,10c-1,1.2-1.5,1.8-2.5,3    c-1.4,1.7-2.4,2.4-3.5,4.3c-1.4,2.2-0.8,4.2-2.5,6.3c-2.3,2.8-5,2.5-8.3,4c-1.8,0.9-3.4,0.7-4.8,2.3c-1.6,1.9-1.4,3.8-1.3,6.3    c0.2,3.1,2.4,4.3,3.3,7.3c1.1,4.1-1.4,7.2,0.5,11c0.8,1.6,1.1,3.1,2.8,3.8c2.9,1.1,2.9-4.2,5.8-5.5c2.4-1.1,4.1-1.3,6.8-1    c3.6,0.4,4.7,5.4,8.3,4.5c1.6-0.4,2.1-1.5,3.5-2.3c2.4-1.2,3.8-2.2,6.5-2.3c4.5-0.1,5.6,5.8,10,5.5c2.3-0.2,3.2-1.9,5.5-2    c1.9-0.1,3.1,0.2,4.8,1c3,1.5,4,3.7,5.3,6.8c1,2.3-1.1,7.1,1.3,6.3c0.8-0.3,1.1-0.9,1.8-1.5c1.9-1.7,3.2-2.4,5-4.3    c1.2-1.2,1.9-1.9,2.8-3.3c1.3-2,1.1-3.6,2.3-5.8c2.7-5,5.7-7.1,10.3-10.5c1.7-1.3,3.3-1.3,4.5-3c1.6-2.2,0.6-4.3,1-7    c0.6-3.8-0.1-6.2,1.5-9.8c1.4-3.2,2.8-4.9,5.5-7c4-3.2,7.9-1.8,12.5-4c3.4-1.6,4.8-3.5,8.3-5c1.5-0.7,2.9-1.1,4.3-1.5    c-1.1-8.8-2-13.7-2.8-22.5c-0.4-5.2-1.3-8.1-0.8-13.3c0.7-6.6,1.2-10.9,5.3-16.3c0.2-0.2,0.4-0.4,0.5-0.6    c-4.5-1.6-7.3-2.6-11.8-4.1c-8.8-2.9-14.6-2.2-22.8-6.5c-4.7-2.5-6.9-4.7-11.3-7.8c-7-4.9-11-7.6-18-12.5    C136.9,257.3,133.7,255.1,128.3,251.3z"/> 	</a> 	<a> 		<path style="fill-rule:evenodd;clip-rule:evenodd;fill:#FFFBF0;" d="M234.9,183.1c2.3,6.5,3.5,10.3,5.3,17    c1.7,6.7,2.9,10.4,3.8,17.3c0.7,5.9,1,9.3,0.5,15.3c-0.8,9.1-3.1,13.9-6,22.5c-0.5,1.5-0.9,3-1.3,4.3c-1.4,5.4-2.2,9.8-6.2,14.7    c-0.3,0.3-0.6,0.7-0.8,1c-4.3,4.7-9,5.5-14.4,9.5c-3.8,2.8-6.6,3.9-9.5,7.3c-4.5-1.6-7.3-2.6-11.8-4.1c-8.8-2.9-14.6-2.2-22.8-6.5    c-4.7-2.5-6.9-4.7-11.3-7.8c-7-4.9-11-7.6-18-12.5c-5.5-3.9-8.7-6-14-9.8c0.9-0.6,1.9-1.1,3-2c6.4-4.8,9.1-8.6,15-14    c2.2-2.1,3.2-3.7,5.8-5.3c2.8-1.7,5.3-0.8,8-2.8c3.3-2.4,2.4-6.4,5.8-8.8c4.4-3,8.6,0.4,13.8-1c3.4-0.9,4.8-3.9,8.3-3.5    c2.9,0.3,3.6,4,6.5,3.8c1.4-0.1,2.1-0.6,3.3-1.3c2.6-1.5,2.5-4.3,5-6c2.5-1.7,4.9-0.6,7.5-2.3c3.3-2.2,3.1-5.5,6-8.3    c2.2-2.1,3.7-3,6.3-4.5c2.9-1.7,6.3-0.5,7.8-3.5c0.8-1.7-0.2-3,0.5-4.8c0.8-1.8,1.6-2.7,3.3-3.8    C234.2,183.4,234.6,183.3,234.9,183.1z"/> 	</a> 	<a> 		<path style="fill-rule:evenodd;clip-rule:evenodd;fill:#FFFBF0;" d="M319.2,175.5c1.4-1.6,2.5-3.4,3.5-5.9c1.3-3.3,1-5.5,1.5-9    c0.7-5.3-0.9-8.8,1.3-13.8c1.3-2.9,3.2-3.9,4.8-6.8c3.7-6.5,1-12.3,5.3-18.5c1.2-1.8,2.2-2.6,3.5-4.3c1.2-1.5,2.2-2.2,3-4    c1.1-2.4-0.2-4.4,1-6.8c1.9-3.6,5.7-2.9,8.8-5.5c2.4-2,3.6-3.3,5.5-5.8c0.9-1.2,0.8-3.6,2.3-3.3c1.2,0.3,0.8,1,1.5,2.8    c0.7,2.5,1.7,3.9,3.8,5.5c2.2,1.7,4.2,1.1,6.8,2.3c2.5,1.2,3.7,2.3,6,3.8c2.2,1.4,3.5,2.1,5.8,3.5c2.2,1.3,3.5,1.9,5.5,3.5    c2.8,2.3,4.5,3.9,6,7.3c1.4,3.1,1.8,5.1,1.5,8.5c-0.3,4-2.4,5.8-3.8,9.5c-0.9,2.5-2.8,3.9-2.3,6.5c0.3,1.5,1.7,2,2,3.5    c0.5,2.7-1.2,4.4-3,6.5c-2.4,2.8-5.2,2.4-8.3,4.5c-4.8,3.3-7.1,5.9-10.8,10.5c-2.3,2.9-4.6,4.3-5.3,8c-0.6,3.5,0.2,5.9,2,9    c1.5,2.7,4.8,2.7,5.5,5.8c0.4,1.6-0.5,2.6-0.3,4.3c0.5,2.7,3,3.3,3.8,6c0.8,3.1-0.2,5.1-0.8,8.3c-0.2,1.3-0.4,2.4-0.6,3.5    c-4.3-1.8-6.9-2.6-11.1-4.5c-5.6-2.5-8.8-3.8-14-7c-3-1.8-4.9-2.6-7.5-5c-2.5-2.4-2.7-4.9-5.5-7c-3.8-2.8-8.1-0.2-11.8-3.3    c-1.9-1.6-2.9-2.8-4-5C319.3,180.4,319,178.3,319.2,175.5z"/> 	</a> 	<path style="fill-rule:evenodd;clip-rule:evenodd;fill:#FFFBF0;" d="M319,175.6c-0.2,2.8,0.3,4.8,1.6,7.5c1.1,2.2,2.1,3.4,4,5   c3.7,3,7.9,0.4,11.8,3.3c2.8,2.1,3,4.6,5.5,7c2.6,2.4,4.5,3.2,7.5,5c5.2,3.2,8.4,4.5,14,7c4.2,1.9,6.7,2.7,11,4.5   c-0.3,1.6-0.6,3.1-1.3,5c-1.7,4.9-4.3,6.9-6,11.8c-0.6,1.5-0.9,2.4-1.3,4c-0.6,3.1,0.7,4.9,0.3,8c-0.5,3.4-3.1,4.8-3,8.3   c0.1,3.1,3.3,4.4,3,7.5c-0.2,2.1-0.6,3.4-2,5c-1.8,2-5.1,0.4-6.3,2.8c-0.7,1.4,0.1,2.5-0.3,4c-0.4,2.1-0.9,3.2-2,5   c-1.5,2.3-4.6,2.1-5.3,4.8c-0.3,1.1,0.5,2,0,3c-0.9,1.7-2.9,0.7-4.8,1.3c-3.8,1.2-5.9,2.1-9.3,4.3c-2.6,1.7-3.8,3.1-6.3,5   c-1.4,1.1-0.7,3.1-1.8,3.9c-0.6,0.4-3-0.4-3.7,0.1l-2,9.1l0.5-7.2l-3.2,0.5c-0.3-0.9-0.5-1.6-0.8-2.6c-0.5-1.4-0.5-2.3-1.3-3.5   c-2.3-3.7-7.7,0.1-10.8-3c-1.3-1.3-1.9-2.3-2.5-4c-1.2-3.3,1.5-5.6,0.8-9c-0.4-1.8-0.2-3.5-1.8-4.5c-1.6-1.1-3.1,0-5,0.3   c-4.4,0.7-6.1,3.9-10.5,4.3c-1.8,0.1-3.5-1.2-5-1.7c-1.7-3.1-2.9-4.9-5-7.8c-1.1-1.6-1.6-2.7-3-4c-4.8-4.4-10.1-0.6-16.5-1.5   c-3.3-0.5-5.3-0.4-8.5-1.5c-2.7-1-3.7-3-6.5-3.5c-2.4-0.4-4.3-0.1-6.5,0.8c0.4-1.4,0.8-2.8,1.3-4.3c2.9-8.6,5.2-13.4,6-22.5   c0.5-5.9,0.2-9.3-0.5-15.3c-0.8-6.8-2-10.6-3.8-17.3c-1.8-6.7-3-10.5-5.3-17.1c2.7-1.5,5.9-2.3,7.8,0.1c1.5,1.8-1.4,4.6,0.5,6   c2,1.4,3.8-0.9,6-2c4.1-2.1,5-5.3,8.8-8c4.6-3.3,7.3-6.7,13-6.8c4-0.1,6.1,1.4,9.8,3c5.3,2.3,7.6,4.7,12.5,7.8   c2.8,1.8,4,3.9,7.3,4.5c5.5,1,8.4-3.2,12.8-6.8C315.6,178.9,317.4,177.5,319,175.6z"/> 	<path style="fill-rule:evenodd;clip-rule:evenodd;fill:#FFFBF0;" d="M316.4,49.5c0.1-0.2,0.1-0.4,0.2-0.6"/> 	<path style="fill-rule:evenodd;clip-rule:evenodd;fill:#FFFBF0;" d="M328.2,54.9c-0.6,1.9,0.1,4.2-0.9,6.5c-1.1,2.5-2.9,3.4-3.5,6   c-0.6,2.7,1,4.3,0.5,7c-0.2,1.3-0.5,2-1,3.3c-0.8,2.2-2.2,3-2.8,5.3c-0.5,2,0.4,3.3-0.3,5.3c-0.8,2.3-2.2,3.1-4,4.8   c-2.4,2.1-4.7,2.1-7,4.3c-1.5,1.4-3,2-3.3,4c-0.4,2.5,1.3,4.3,3.5,5.5c1.6,0.9,3.5-0.7,4.5,0.8c0.6,0.8,0,1.7,0.5,2.5   c1.5,2.2,3.3-3.2,6-3.3c0.8,0,1.2,0.3,2,0.3c3.7,0,3.8-5.2,7.5-6c2-0.4,3.3,0.7,5.3,0.3c3.1-0.8,4.2-3,6.3-5.5   c2.8-3.5,3-6.4,4.8-10.5c1.6-3.8,0.4-7.4,3.8-9.8c1.2-0.9,2.3-0.6,3.5-1.5c2.2-1.5,3.8-3.1,3.8-5.8c0-1.7-0.6-2.6-1.5-4   c-1.3-2.2-2.5-3.3-4.8-4.5c-3.2-1.6-5.7-0.2-9.3-0.5c-1.5-0.7-2.2-1.2-3.5-2.3c-2.1-1.8-1.7-5.3-4.5-5.5c-1.8-0.2-2.9,0.6-4.3,1.8   C329.2,53.5,328.5,54.4,328.2,54.9l-11.7-6c-0.2,0.6-0.6,1.8-1.2,2.2c-1,0.8-1.8,1.6-3,1.3c-1.7-0.5-1-2.5-1.3-4.3   c-0.5-3-2.4-6.2,0.3-7.8c1.1-0.6,2-0.5,3.3-0.5c1.2,0,2-0.2,3,0.5c1.9,1.4-0.3,3.7-0.5,6c-0.3,0.8-0.4,1.7-0.6,2.5"/> 	<a> 		<path style="fill-rule:evenodd;clip-rule:evenodd;fill:#FFFBF0;" d="M328.6,54.4c-0.1,0.2-0.2,0.3-0.2,0.5"/> 	</a> 	<a> 		<path style="fill-rule:evenodd;clip-rule:evenodd;fill:#FFFBF0;" d="M319.9,300.7l-0.8,0.1c-1.6,1.9-7.4,8.7-7.4,8.7l2.6,0.8    l-0.9,1.6l-3.1-1.2l-1.2,1.6l0.7,3.3l-1.7,0.7c0-1.4-0.4-2.3-1.3-3.3c-1.9-2-4.3-0.5-7,0c-3.4,0.6-4.9,2.4-8.3,3.5    c-2.6,0.9-5.1,0.8-7.5,0.8c-0.7-5.8-1-9.1-1.5-15c-0.4-4.5-0.1-7-0.8-11.5c-0.4-3.1-1.4-4.8-1.5-8c-0.1-2-1-3.7,0.3-5.3    c0.7-0.9,1.6-0.9,2.5-0.6c1.5,0.5,3.2,1.7,5,1.6c4.4-0.3,6.1-3.6,10.5-4.3c1.9-0.3,3.4-1.3,5-0.3c1.6,1,1.4,2.7,1.8,4.5    c0.7,3.4-1.9,5.7-0.8,9c0.6,1.7,1.2,2.7,2.5,4c3,3.1,8.4-0.7,10.8,3c0.8,1.2,0.8,2.1,1.3,3.5C319.5,299.1,319.6,299.8,319.9,300.7    z"/> 	</a> 	<a> 		<path style="fill-rule:evenodd;clip-rule:evenodd;fill:none;" d="M318.8,41l-2,6.3l12.1,5.8l3.4-1.6l2.4,0.5l2.4,2.9    c0,0,1.6,2,2.3,2.9s2.4,1.1,3,1.3s4.9,0.1,4.9,0.1l4.9,1.5l4.4,4.1l0.3,3.4l-0.6,4.1l-3.3,2l-3.9,2.5l-1.6,4.8l-2.8,7.8l-4.4,8.8    l-3.6,2.9l-3.5,0.4l-2.9-0.3c0,0-2.9,3-3.2,3.3s-1.9,2.1-1.9,2.1l-2.9,0.9l-3.1,0.1l-2.8,3l-8.2,74.3l9.3-7.5l2,3.6l2.6,5.1    l3.1,3.3l4.6,0.6l4.5,0.4l3.9,2.8c0,0,2,4,2.1,4.4s6.6,5.3,6.6,5.3l7.6,4.3l19.9,8.2l-1.6,6l-4.2,7.7l-2.7,7.1l0.2,4.6l-0.7,4.3    l-1.5,4.3l-1,3.5l1.8,4l1.2,4.7l-1.8,3.3l-3,1.3l-2.5,0.8l-1,4.6l-2,5l-4.2,2.6l-1.2,3.2l0.1,2l-2.6,1.2l-3.8,0.5l-5.2,2.3    l-5.2,3.3l-4.8,4.3l-0.5,2.7l-2.5,0l-1.3,2l-4.7-0.2l-1.9-5.4l-2.3-1.6l-7-0.2l-3.2-3.5l-0.5-3.5l1-5l-1.3-6.3l-3-1.2l-4.3,1.5    l-5.5,3c0,0-3.3,1.2-4.2,1s-3.8-1.7-3.8-1.7l-2.7-3.8l-4.2-6.2l-3.7-3.2l-3.5-1.3l-6.5,0.8l-6.5-0.2l-3.7-0.7l-5.3-1.8l-3.5-2    l-7.2,0.6l2-6.6l2.8-8.7l2-6.5l1-7.8l-0.7-8.5l-2.2-15l-3.8-11.2l-3.8-11.3l2.5-2l4.2,0.2l2.2,1.7l-0.7,3.2l0.5,1.3l2,0.8l4-1.9    l4-2.6l2.5-3.7c0,0,5.5-4.2,6.2-4.5s5-2.8,5-2.8l4.1-1.2l7.6,1.7l8.2,4.7l6.5,4.4l4.3,3.6c0,0,4.2,0.8,5.2,0.7s5.5-2.8,5.5-2.8    l8.2-74.3l-2.7-3.7H311l-2.8-1.2l-2.2-3.2l0.7-3.3c0,0,3.8-2.7,4.3-2.8s5.5-3.7,6-4s3.3-2.8,3.3-2.8l0.5-4.7L322,81l1.4-3.4l1-3.3    l-0.8-5.2l2-5l2.1-3.3l1.2-7.9l-12.1-5.8l-1.4,3.9l-3,1.3c0,0-1.6-2-1.6-2.7s-1.7-7.2-1.7-7.2s2.8-2.5,3.3-2.5S318.8,41,318.8,41z    "/> 	</a> </g> <g id="frnt-municipis"> 	<path style="fill-rule:evenodd;clip-rule:evenodd;fill:none;stroke:#9A9A9A;stroke-width:2;stroke-miterlimit:10;" d="M230,275.1   c2-1.2,3.9-1.2,5.9,0c0.9,0.6,1.3,1.2,2,2c3.9,4.4,2.6,8.9,5.8,13.8c2.3,3.5,4.4,4.9,7,8.3c4.6,5.8,6.6,9.5,11,15.5   c3.2,4.3,5,6.7,8.3,11c1.8-2.3,2.4-4.1,4.8-6c3.1-2.5,6.2-2.4,9.5-2.3c-0.7-5.8-1-9.1-1.5-15c-0.4-4.5-0.1-7-0.8-11.5   c-0.4-3.1-1.4-4.8-1.5-8c-0.1-2-1-3.7,0.3-5.3c0.7-0.9,1.6-0.9,2.5-0.7c-1.7-3.1-2.9-4.9-5-7.8c-1.1-1.6-1.6-2.7-3-4   c-4.8-4.4-10.1-0.6-16.5-1.5c-3.3-0.5-5.3-0.4-8.5-1.5c-2.7-1-3.7-3-6.5-3.5c-2.4-0.4-4.3-0.1-6.5,0.9c-1.4,5.4-2.2,9.7-6.2,14.6   C230.6,274.4,230.3,274.8,230,275.1z"/> 	<path style="fill-rule:evenodd;clip-rule:evenodd;fill:none;stroke:#9A9A9A;stroke-width:2;stroke-miterlimit:10;" d="M230,275.1   c2-1.2,3.9-1.2,5.9,0c0.9,0.6,1.3,1.2,2,2c3.9,4.4,2.6,8.9,5.8,13.8c2.3,3.5,4.4,4.9,7,8.3c4.6,5.8,6.6,9.5,11,15.5   c3.2,4.3,5,6.7,8.3,11c-1.6,2-2.1,3.5-4,5.3c-4,3.8-8.1,3.1-13,5.8c-2.6,1.4-3.8,2.8-6.5,4c-3.6,1.6-5.9,1.8-9.8,2.3   c-4.2,0.5-6.6,0.3-10.8,0c-1.9-0.1-2.9-0.5-4.8-0.5c-2.5,0-3.8,0.4-6.3,0.8c-4.3,0.6-7.5,0.6-10.9,1.5c-1.1-8.8-2.1-13.7-2.8-22.5   c-0.4-5.2-1.3-8.1-0.8-13.3c0.7-6.6,1.2-10.9,5.3-16.3c0.2-0.2,0.3-0.4,0.5-0.6c2.8-3.5,5.8-4.6,9.5-7.4   C221,280.5,225.6,279.8,230,275.1z"/> 	<path style="fill-rule:evenodd;clip-rule:evenodd;fill:none;stroke:#9A9A9A;stroke-width:2;stroke-miterlimit:10;" d="M128.3,251.3   c-1.4,0.8-2.7,1.6-4.2,3c-5.1,4.9-5.5,9.6-8,16.3c-2.2,5.8-3.8,9.1-4.3,15.3c-0.3,4.7,1.4,7.3,1,12c-0.2,2-0.6,3-0.8,5   c-0.2,3.8,2.1,6,1.3,9.8c-0.4,1.5-1.3,2.2-1.5,3.8c-0.3,2,0.6,3.2,0.8,5.3c0.3,3.5-0.1,5.5,0,9c0.1,2.9,1,4.7,0.3,7.5   c-1.3,5.3-6.2,5.9-9.8,10c-1,1.2-1.5,1.8-2.5,3c-1.4,1.7-2.4,2.4-3.5,4.3c-1.4,2.2-0.8,4.2-2.5,6.3c-2.3,2.8-5,2.5-8.3,4   c-1.8,0.9-3.4,0.7-4.8,2.3c-1.6,1.9-1.4,3.8-1.3,6.3c0.2,3.1,2.4,4.3,3.3,7.3c1.1,4.1-1.4,7.2,0.5,11c0.8,1.6,1.1,3.1,2.8,3.8   c2.9,1.1,2.9-4.2,5.8-5.5c2.4-1.1,4.1-1.3,6.8-1c3.6,0.4,4.7,5.4,8.3,4.5c1.6-0.4,2.1-1.5,3.5-2.3c2.4-1.2,3.8-2.2,6.5-2.3   c4.5-0.1,5.6,5.8,10,5.5c2.3-0.2,3.2-1.9,5.5-2c1.9-0.1,3.1,0.2,4.8,1c3,1.5,4,3.7,5.3,6.8c1,2.3-1.1,7.1,1.3,6.3   c0.8-0.3,1.1-0.9,1.8-1.5c1.9-1.7,3.2-2.4,5-4.3c1.2-1.2,1.9-1.9,2.8-3.3c1.3-2,1.1-3.6,2.3-5.8c2.7-5,5.7-7.1,10.3-10.5   c1.7-1.3,3.3-1.3,4.5-3c1.6-2.2,0.6-4.3,1-7c0.6-3.8-0.1-6.2,1.5-9.8c1.4-3.2,2.8-4.9,5.5-7c4-3.2,7.9-1.8,12.5-4   c3.4-1.6,4.8-3.5,8.3-5c1.5-0.7,2.9-1.1,4.3-1.5c-1.1-8.8-2-13.7-2.8-22.5c-0.4-5.2-1.3-8.1-0.8-13.3c0.7-6.6,1.2-10.9,5.3-16.3   c0.2-0.2,0.4-0.4,0.5-0.6c-4.5-1.6-7.3-2.6-11.8-4.1c-8.8-2.9-14.6-2.2-22.8-6.5c-4.7-2.5-6.9-4.7-11.3-7.8c-7-4.9-11-7.6-18-12.5   C136.9,257.3,133.7,255.1,128.3,251.3z"/> 	<path style="fill-rule:evenodd;clip-rule:evenodd;fill:none;stroke:#9A9A9A;stroke-width:2;stroke-miterlimit:10;" d="M234.9,183.1   c2.3,6.5,3.5,10.3,5.3,17c1.7,6.7,2.9,10.4,3.8,17.3c0.7,5.9,1,9.3,0.5,15.3c-0.8,9.1-3.1,13.9-6,22.5c-0.5,1.5-0.9,3-1.3,4.3   c-1.4,5.4-2.2,9.8-6.2,14.7c-0.3,0.3-0.6,0.7-0.8,1c-4.3,4.7-9,5.5-14.4,9.5c-3.8,2.8-6.6,3.9-9.5,7.3c-4.5-1.6-7.3-2.6-11.8-4.1   c-8.8-2.9-14.6-2.2-22.8-6.5c-4.7-2.5-6.9-4.7-11.3-7.8c-7-4.9-11-7.6-18-12.5c-5.5-3.9-8.7-6-14-9.8c0.9-0.6,1.9-1.1,3-2   c6.4-4.8,9.1-8.6,15-14c2.2-2.1,3.2-3.7,5.8-5.3c2.8-1.7,5.3-0.8,8-2.8c3.3-2.4,2.4-6.4,5.8-8.8c4.4-3,8.6,0.4,13.8-1   c3.4-0.9,4.8-3.9,8.3-3.5c2.9,0.3,3.6,4,6.5,3.8c1.4-0.1,2.1-0.6,3.3-1.3c2.6-1.5,2.5-4.3,5-6c2.5-1.7,4.9-0.6,7.5-2.3   c3.3-2.2,3.1-5.5,6-8.3c2.2-2.1,3.7-3,6.3-4.5c2.9-1.7,6.3-0.5,7.8-3.5c0.8-1.7-0.2-3,0.5-4.8c0.8-1.8,1.6-2.7,3.3-3.8   C234.2,183.4,234.6,183.3,234.9,183.1z"/> 	<path style="fill-rule:evenodd;clip-rule:evenodd;fill:none;stroke:#9A9A9A;stroke-width:2;stroke-miterlimit:10;" d="M319.2,175.5   c1.4-1.6,2.5-3.4,3.5-5.9c1.3-3.3,1-5.5,1.5-9c0.7-5.3-0.9-8.8,1.3-13.8c1.3-2.9,3.2-3.9,4.8-6.8c3.7-6.5,1-12.3,5.3-18.5   c1.2-1.8,2.2-2.6,3.5-4.3c1.2-1.5,2.2-2.2,3-4c1.1-2.4-0.2-4.4,1-6.8c1.9-3.6,5.7-2.9,8.8-5.5c2.4-2,3.6-3.3,5.5-5.8   c0.9-1.2,0.8-3.6,2.3-3.3c1.2,0.3,0.8,1,1.5,2.8c0.7,2.5,1.7,3.9,3.8,5.5c2.2,1.7,4.2,1.1,6.8,2.3c2.5,1.2,3.7,2.3,6,3.8   c2.2,1.4,3.5,2.1,5.8,3.5c2.2,1.3,3.5,1.9,5.5,3.5c2.8,2.3,4.5,3.9,6,7.3c1.4,3.1,1.8,5.1,1.5,8.5c-0.3,4-2.4,5.8-3.8,9.5   c-0.9,2.5-2.8,3.9-2.3,6.5c0.3,1.5,1.7,2,2,3.5c0.5,2.7-1.2,4.4-3,6.5c-2.4,2.8-5.2,2.4-8.3,4.5c-4.8,3.3-7.1,5.9-10.8,10.5   c-2.3,2.9-4.6,4.3-5.3,8c-0.6,3.5,0.2,5.9,2,9c1.5,2.7,4.8,2.7,5.5,5.8c0.4,1.6-0.5,2.6-0.3,4.3c0.5,2.7,3,3.3,3.8,6   c0.8,3.1-0.2,5.1-0.8,8.3c-0.2,1.3-0.4,2.4-0.6,3.5c-4.3-1.8-6.9-2.6-11.1-4.5c-5.6-2.5-8.8-3.8-14-7c-3-1.8-4.9-2.6-7.5-5   c-2.5-2.4-2.7-4.9-5.5-7c-3.8-2.8-8.1-0.2-11.8-3.3c-1.9-1.6-2.9-2.8-4-5C319.3,180.4,319,178.3,319.2,175.5z"/> 	<path style="fill-rule:evenodd;clip-rule:evenodd;fill:none;stroke:#9A9A9A;stroke-width:2;stroke-miterlimit:10;" d="M319,175.6   c-0.2,2.8,0.3,4.8,1.6,7.5c1.1,2.2,2.1,3.4,4,5c3.7,3,7.9,0.4,11.8,3.3c2.8,2.1,3,4.6,5.5,7c2.6,2.4,4.5,3.2,7.5,5   c5.2,3.2,8.4,4.5,14,7c4.2,1.9,6.7,2.7,11,4.5c-0.3,1.6-0.6,3.1-1.3,5c-1.7,4.9-4.3,6.9-6,11.8c-0.6,1.5-0.9,2.4-1.3,4   c-0.6,3.1,0.7,4.9,0.3,8c-0.5,3.4-3.1,4.8-3,8.3c0.1,3.1,3.3,4.4,3,7.5c-0.2,2.1-0.6,3.4-2,5c-1.8,2-5.1,0.4-6.3,2.8   c-0.7,1.4,0.1,2.5-0.3,4c-0.4,2.1-0.9,3.2-2,5c-1.5,2.3-4.6,2.1-5.3,4.8c-0.3,1.1,0.5,2,0,3c-0.9,1.7-2.9,0.7-4.8,1.3   c-3.8,1.2-5.9,2.1-9.3,4.3c-2.6,1.7-3.8,3.1-6.3,5c-1.4,1.1-0.7,3.1-1.8,3.9c-0.6,0.4-3-0.4-3.7,0.1l-2,9.1l0.5-7.2l-3.2,0.5   c-0.3-0.9-0.5-1.6-0.8-2.6c-0.5-1.4-0.5-2.3-1.3-3.5c-2.3-3.7-7.7,0.1-10.8-3c-1.3-1.3-1.9-2.3-2.5-4c-1.2-3.3,1.5-5.6,0.8-9   c-0.4-1.8-0.2-3.5-1.8-4.5c-1.6-1.1-3.1,0-5,0.3c-4.4,0.7-6.1,3.9-10.5,4.3c-1.8,0.1-3.5-1.2-5-1.7c-1.7-3.1-2.9-4.9-5-7.8   c-1.1-1.6-1.6-2.7-3-4c-4.8-4.4-10.1-0.6-16.5-1.5c-3.3-0.5-5.3-0.4-8.5-1.5c-2.7-1-3.7-3-6.5-3.5c-2.4-0.4-4.3-0.1-6.5,0.8   c0.4-1.4,0.8-2.8,1.3-4.3c2.9-8.6,5.2-13.4,6-22.5c0.5-5.9,0.2-9.3-0.5-15.3c-0.8-6.8-2-10.6-3.8-17.3c-1.8-6.7-3-10.5-5.3-17.1   c2.7-1.5,5.9-2.3,7.8,0.1c1.5,1.8-1.4,4.6,0.5,6c2,1.4,3.8-0.9,6-2c4.1-2.1,5-5.3,8.8-8c4.6-3.3,7.3-6.7,13-6.8   c4-0.1,6.1,1.4,9.8,3c5.3,2.3,7.6,4.7,12.5,7.8c2.8,1.8,4,3.9,7.3,4.5c5.5,1,8.4-3.2,12.8-6.8C315.6,178.9,317.4,177.5,319,175.6z"/> 	<a> 		<path style="fill-rule:evenodd;clip-rule:evenodd;fill:none;stroke:#9A9A9A;stroke-width:2;stroke-miterlimit:10;" d="M317.1,46.4    c0.2-2.3,2.4-4.6,0.5-6c-1-0.7-1.8-0.5-3-0.5c-1.3,0-2.1-0.1-3.3,0.5c-2.6,1.5-0.8,4.8-0.3,7.8c0.3,1.7-0.4,3.8,1.3,4.3    c1.2,0.3,2-0.4,3-1.3C316.9,49.8,316.5,48,317.1,46.4z"/> 	</a> 	<path style="fill-rule:evenodd;clip-rule:evenodd;fill:none;stroke:#9A9A9A;stroke-width:2;stroke-miterlimit:10;" d="M341.9,59.1   c-1.5-0.7-2.2-1.2-3.5-2.3c-2.1-1.8-1.7-5.3-4.5-5.5c-1.8-0.2-2.9,0.6-4.3,1.8c-2.5,2.2-0.9,5.2-2.3,8.3c-1.1,2.5-2.9,3.4-3.5,6   c-0.6,2.7,1,4.3,0.5,7c-0.2,1.3-0.5,2-1,3.3c-0.8,2.2-2.2,3-2.8,5.3c-0.5,2,0.4,3.3-0.3,5.3c-0.8,2.3-2.2,3.1-4,4.8   c-2.4,2.1-4.7,2.1-7,4.3c-1.5,1.4-3,2-3.3,4c-0.4,2.5,1.3,4.3,3.5,5.5c1.6,0.9,3.5-0.7,4.5,0.8c0.6,0.8,0,1.7,0.5,2.5   c1.5,2.2,3.3-3.2,6-3.3c0.8,0,1.2,0.3,2,0.3c3.7,0,3.8-5.2,7.5-6c2-0.4,3.3,0.7,5.3,0.3c3.1-0.8,4.2-3,6.3-5.5   c2.8-3.5,3-6.4,4.8-10.5c1.6-3.8,0.4-7.4,3.8-9.8c1.2-0.9,2.3-0.6,3.5-1.5c2.2-1.5,3.8-3.1,3.8-5.8c0-1.7-0.6-2.6-1.5-4   c-1.3-2.2-2.5-3.3-4.8-4.5C347.9,58,345.4,59.4,341.9,59.1z"/> 	<path style="fill-rule:evenodd;clip-rule:evenodd;fill:none;stroke:#9A9A9A;stroke-width:2;stroke-miterlimit:10;" d="M319.9,300.7   l-0.8,0.1c-1.6,1.9-7.4,8.7-7.4,8.7l2.6,0.8l-0.9,1.6l-3.1-1.2l-1.2,1.6l0.7,3.3l-1.7,0.7c0-1.4-0.4-2.3-1.3-3.3   c-1.9-2-4.3-0.5-7,0c-3.4,0.6-4.9,2.4-8.3,3.5c-2.6,0.9-5.1,0.8-7.5,0.8c-0.7-5.8-1-9.1-1.5-15c-0.4-4.5-0.1-7-0.8-11.5   c-0.4-3.1-1.4-4.8-1.5-8c-0.1-2-1-3.7,0.3-5.3c0.7-0.9,1.6-0.9,2.5-0.6c1.5,0.5,3.2,1.7,5,1.6c4.4-0.3,6.1-3.6,10.5-4.3   c1.9-0.3,3.4-1.3,5-0.3c1.6,1,1.4,2.7,1.8,4.5c0.7,3.4-1.9,5.7-0.8,9c0.6,1.7,1.2,2.7,2.5,4c3,3.1,8.4-0.7,10.8,3   c0.8,1.2,0.8,2.1,1.3,3.5C319.5,299.1,319.6,299.8,319.9,300.7z"/> 	<rect x="281.7" y="297.9" style="opacity:0.6;fill:#FFFBF0;" width="37.7" height="10.2"/> 	<rect x="238.2" y="282.2" style="opacity:0.6;fill:#FFFBF0;" width="48.7" height="10.5"/> </g> <g id="text_municipis"> 	<g> 		<rect x="348.6" y="139.8" style="fill-rule:evenodd;clip-rule:evenodd;fill:none;" width="26.1" height="11"/> 		<path style="fill:#1A171B;" d="M354.8,148.3h-0.9v-3.6h-3.4v3.6h-0.9V141h0.9v2.9h3.4V141h0.9V148.3z"/> 		<path style="fill:#1A171B;" d="M360.6,148.3h-0.9v-0.6c-0.1,0.1-0.2,0.1-0.3,0.2s-0.3,0.2-0.4,0.2c-0.1,0.1-0.3,0.1-0.5,0.2    s-0.4,0.1-0.7,0.1c-0.5,0-0.9-0.2-1.2-0.5c-0.3-0.3-0.5-0.7-0.5-1.2c0-0.4,0.1-0.7,0.3-1s0.4-0.5,0.7-0.6c0.3-0.1,0.7-0.2,1.1-0.3    c0.4-0.1,0.9-0.1,1.4-0.1v-0.1c0-0.2,0-0.4-0.1-0.5c-0.1-0.1-0.2-0.2-0.3-0.3c-0.1-0.1-0.3-0.1-0.4-0.2c-0.2,0-0.4,0-0.5,0    c-0.2,0-0.5,0-0.8,0.1c-0.3,0.1-0.6,0.2-0.9,0.3h0v-0.9c0.2,0,0.4-0.1,0.7-0.2c0.3-0.1,0.6-0.1,0.9-0.1c0.4,0,0.7,0,0.9,0.1    s0.5,0.2,0.7,0.3c0.2,0.1,0.3,0.3,0.4,0.6s0.2,0.5,0.2,0.9V148.3z M359.7,146.9v-1.5c-0.3,0-0.6,0-0.9,0.1s-0.6,0.1-0.9,0.1    c-0.2,0.1-0.5,0.2-0.6,0.3c-0.2,0.2-0.2,0.4-0.2,0.7c0,0.3,0.1,0.5,0.3,0.7s0.5,0.2,0.8,0.2c0.3,0,0.6-0.1,0.8-0.2    C359.3,147.3,359.5,147.1,359.7,146.9z"/> 		<path style="fill:#1A171B;" d="M365.5,143.8L365.5,143.8c-0.2,0-0.3-0.1-0.4-0.1c-0.1,0-0.3,0-0.4,0c-0.3,0-0.5,0.1-0.8,0.2    c-0.3,0.1-0.5,0.3-0.7,0.5v3.9h-0.9v-5.5h0.9v0.8c0.3-0.3,0.6-0.5,0.9-0.6c0.3-0.1,0.5-0.2,0.8-0.2c0.2,0,0.3,0,0.3,0    c0.1,0,0.2,0,0.3,0V143.8z"/> 		<path style="fill:#1A171B;" d="M368.1,140.1l-1.3,1.8h-0.7l0.8-1.8H368.1z M367.2,148.3h-0.9v-5.5h0.9V148.3z"/> 		<path style="fill:#1A171B;" d="M372.9,148.3H372v-0.6c-0.1,0.1-0.2,0.1-0.3,0.2s-0.3,0.2-0.4,0.2c-0.1,0.1-0.3,0.1-0.5,0.2    s-0.4,0.1-0.7,0.1c-0.5,0-0.9-0.2-1.2-0.5c-0.3-0.3-0.5-0.7-0.5-1.2c0-0.4,0.1-0.7,0.3-1s0.4-0.5,0.7-0.6c0.3-0.1,0.7-0.2,1.1-0.3    c0.4-0.1,0.9-0.1,1.4-0.1v-0.1c0-0.2,0-0.4-0.1-0.5c-0.1-0.1-0.2-0.2-0.3-0.3c-0.1-0.1-0.3-0.1-0.4-0.2c-0.2,0-0.4,0-0.5,0    c-0.2,0-0.5,0-0.8,0.1c-0.3,0.1-0.6,0.2-0.9,0.3h0v-0.9c0.2,0,0.4-0.1,0.7-0.2c0.3-0.1,0.6-0.1,0.9-0.1c0.4,0,0.7,0,0.9,0.1    s0.5,0.2,0.7,0.3c0.2,0.1,0.3,0.3,0.4,0.6s0.2,0.5,0.2,0.9V148.3z M372,146.9v-1.5c-0.3,0-0.6,0-0.9,0.1s-0.6,0.1-0.9,0.1    c-0.2,0.1-0.5,0.2-0.6,0.3c-0.2,0.2-0.2,0.4-0.2,0.7c0,0.3,0.1,0.5,0.3,0.7s0.5,0.2,0.8,0.2c0.3,0,0.6-0.1,0.8-0.2    C371.6,147.3,371.8,147.1,372,146.9z"/> 	</g> 	<g> 		<rect x="282.3" y="235.1" style="fill-rule:evenodd;clip-rule:evenodd;fill:none;" width="36.7" height="11"/> 		<path style="fill:#1A171B;" d="M288.1,237.2h-2.5v6.4h-0.9v-6.4h-2.5v-0.9h5.8V237.2z"/> 		<path style="fill:#1A171B;" d="M292.4,241h-3.8c0,0.3,0,0.6,0.1,0.9c0.1,0.3,0.2,0.5,0.4,0.6c0.2,0.2,0.4,0.3,0.6,0.4    s0.5,0.1,0.7,0.1c0.4,0,0.7-0.1,1.1-0.2c0.4-0.1,0.6-0.3,0.8-0.4h0v1c-0.3,0.1-0.6,0.2-0.9,0.3c-0.3,0.1-0.6,0.1-1,0.1    c-0.9,0-1.5-0.2-2-0.7c-0.5-0.5-0.7-1.2-0.7-2.1c0-0.9,0.2-1.6,0.7-2.1s1.1-0.8,1.8-0.8c0.7,0,1.2,0.2,1.6,0.6s0.6,1,0.6,1.8V241z     M291.6,240.3c0-0.5-0.1-0.9-0.3-1.1c-0.2-0.3-0.6-0.4-1-0.4c-0.5,0-0.8,0.1-1.1,0.4s-0.4,0.6-0.5,1.1H291.6z"/> 		<path style="fill:#1A171B;" d="M297.9,243c0,0.9-0.2,1.6-0.6,2c-0.4,0.4-1,0.6-1.8,0.6c-0.3,0-0.5,0-0.8-0.1    c-0.3,0-0.5-0.1-0.8-0.2v-0.9h0c0.1,0.1,0.4,0.1,0.7,0.2c0.3,0.1,0.6,0.1,0.9,0.1c0.3,0,0.5,0,0.7-0.1c0.2-0.1,0.3-0.2,0.5-0.3    c0.1-0.1,0.2-0.3,0.2-0.5s0.1-0.4,0.1-0.6v-0.5c-0.3,0.2-0.5,0.4-0.8,0.5c-0.2,0.1-0.5,0.2-0.9,0.2c-0.6,0-1.1-0.2-1.5-0.7    c-0.4-0.5-0.5-1.1-0.5-2c0-0.5,0.1-0.9,0.2-1.2c0.1-0.3,0.3-0.6,0.5-0.9c0.2-0.2,0.4-0.4,0.7-0.5c0.3-0.1,0.6-0.2,0.9-0.2    c0.3,0,0.5,0,0.8,0.1c0.2,0.1,0.4,0.2,0.6,0.3l0.1-0.2h0.8V243z M297,242.1v-3c-0.2-0.1-0.4-0.2-0.6-0.2c-0.2,0-0.4-0.1-0.6-0.1    c-0.5,0-0.9,0.2-1.1,0.5c-0.3,0.3-0.4,0.8-0.4,1.5c0,0.6,0.1,1.1,0.3,1.4s0.5,0.5,1,0.5c0.3,0,0.5-0.1,0.8-0.2    C296.6,242.5,296.8,242.3,297,242.1z"/> 		<path style="fill:#1A171B;" d="M303.9,243.6H303V243c-0.3,0.2-0.6,0.4-0.8,0.6s-0.6,0.2-0.9,0.2c-0.5,0-1-0.2-1.3-0.5    c-0.3-0.4-0.5-0.9-0.5-1.5v-3.5h0.9v3.1c0,0.3,0,0.5,0,0.7c0,0.2,0.1,0.4,0.2,0.5c0.1,0.1,0.2,0.2,0.3,0.3    c0.1,0.1,0.3,0.1,0.6,0.1c0.2,0,0.5-0.1,0.7-0.2c0.3-0.1,0.5-0.3,0.7-0.5v-4.1h0.9V243.6z"/> 		<path style="fill:#1A171B;" d="M306.5,237.3h-1v-1h1V237.3z M306.5,243.6h-0.9v-5.5h0.9V243.6z"/> 		<path style="fill:#1A171B;" d="M311.9,242.1c0,0.5-0.2,0.9-0.6,1.2c-0.4,0.3-0.9,0.5-1.6,0.5c-0.4,0-0.7,0-1-0.1    c-0.3-0.1-0.6-0.2-0.8-0.3v-1h0c0.3,0.2,0.6,0.4,0.9,0.5c0.3,0.1,0.7,0.2,1,0.2c0.4,0,0.7-0.1,0.9-0.2c0.2-0.1,0.3-0.3,0.3-0.6    c0-0.2-0.1-0.4-0.2-0.5s-0.3-0.2-0.7-0.3c-0.1,0-0.3-0.1-0.5-0.1c-0.2,0-0.4-0.1-0.5-0.1c-0.5-0.1-0.8-0.3-1-0.6    c-0.2-0.2-0.3-0.5-0.3-0.9c0-0.2,0-0.4,0.1-0.6s0.2-0.4,0.4-0.5c0.2-0.2,0.4-0.3,0.7-0.4c0.3-0.1,0.6-0.1,0.9-0.1    c0.3,0,0.6,0,0.9,0.1c0.3,0.1,0.6,0.2,0.8,0.3v1h0c-0.2-0.2-0.5-0.3-0.8-0.4c-0.3-0.1-0.6-0.2-0.9-0.2c-0.3,0-0.6,0.1-0.8,0.2    c-0.2,0.1-0.3,0.3-0.3,0.6c0,0.2,0.1,0.4,0.2,0.5c0.1,0.1,0.3,0.2,0.6,0.3c0.2,0,0.3,0.1,0.5,0.1s0.4,0.1,0.5,0.1    c0.4,0.1,0.7,0.3,0.9,0.5C311.8,241.4,311.9,241.7,311.9,242.1z"/> 		<path style="fill:#1A171B;" d="M317.4,241h-3.8c0,0.3,0,0.6,0.1,0.9c0.1,0.3,0.2,0.5,0.4,0.6c0.2,0.2,0.4,0.3,0.6,0.4    s0.5,0.1,0.7,0.1c0.4,0,0.7-0.1,1.1-0.2c0.4-0.1,0.6-0.3,0.8-0.4h0v1c-0.3,0.1-0.6,0.2-0.9,0.3c-0.3,0.1-0.6,0.1-1,0.1    c-0.9,0-1.5-0.2-2-0.7c-0.5-0.5-0.7-1.2-0.7-2.1c0-0.9,0.2-1.6,0.7-2.1s1.1-0.8,1.8-0.8c0.7,0,1.2,0.2,1.6,0.6s0.6,1,0.6,1.8V241z     M316.6,240.3c0-0.5-0.1-0.9-0.3-1.1c-0.2-0.3-0.6-0.4-1-0.4c-0.5,0-0.8,0.1-1.1,0.4s-0.4,0.6-0.5,1.1H316.6z"/> 	</g> 	<g> 		<rect x="186.9" y="242.2" style="fill-rule:evenodd;clip-rule:evenodd;fill:none;" width="30.1" height="11"/> 		<path style="fill:#1A171B;" d="M192.7,244.3h-2.5v6.4h-0.9v-6.4h-2.5v-0.9h5.8V244.3z"/> 		<path style="fill:#1A171B;" d="M194.5,244.4h-1v-1h1V244.4z M194.5,250.7h-0.9v-5.5h0.9V250.7z"/> 		<path style="fill:#1A171B;" d="M200.5,250.7h-0.9v-3.1c0-0.3,0-0.5,0-0.7c0-0.2-0.1-0.4-0.2-0.5c-0.1-0.1-0.2-0.2-0.3-0.3    c-0.1-0.1-0.3-0.1-0.6-0.1c-0.2,0-0.5,0.1-0.7,0.2c-0.3,0.1-0.5,0.3-0.7,0.5v4.1h-0.9v-5.5h0.9v0.6c0.3-0.2,0.6-0.4,0.8-0.6    s0.6-0.2,0.9-0.2c0.6,0,1,0.2,1.3,0.5c0.3,0.4,0.4,0.9,0.4,1.5V250.7z"/> 		<path style="fill:#1A171B;" d="M206.2,250.7h-0.9v-0.6c-0.1,0.1-0.2,0.1-0.3,0.2c-0.1,0.1-0.3,0.2-0.4,0.2    c-0.1,0.1-0.3,0.1-0.5,0.2c-0.2,0-0.4,0.1-0.7,0.1c-0.5,0-0.9-0.2-1.2-0.5c-0.3-0.3-0.5-0.7-0.5-1.2c0-0.4,0.1-0.7,0.3-1    c0.2-0.3,0.4-0.5,0.7-0.6c0.3-0.1,0.7-0.2,1.1-0.3c0.4-0.1,0.9-0.1,1.4-0.1V247c0-0.2,0-0.4-0.1-0.5c-0.1-0.1-0.2-0.2-0.3-0.3    c-0.1-0.1-0.3-0.1-0.4-0.2c-0.2,0-0.4,0-0.5,0c-0.2,0-0.5,0-0.8,0.1c-0.3,0.1-0.6,0.2-0.9,0.3h0v-0.9c0.2,0,0.4-0.1,0.7-0.2    c0.3-0.1,0.6-0.1,0.9-0.1c0.4,0,0.7,0,0.9,0.1c0.3,0.1,0.5,0.2,0.7,0.3c0.2,0.2,0.3,0.3,0.4,0.6s0.2,0.5,0.2,0.9V250.7z     M205.3,249.4v-1.5c-0.3,0-0.6,0-0.9,0.1s-0.6,0.1-0.9,0.1c-0.2,0.1-0.5,0.2-0.6,0.3c-0.2,0.2-0.2,0.4-0.2,0.7    c0,0.3,0.1,0.5,0.3,0.7c0.2,0.2,0.5,0.2,0.8,0.2c0.3,0,0.6-0.1,0.8-0.2C204.8,249.7,205.1,249.6,205.3,249.4z"/> 		<path style="fill:#1A171B;" d="M209.4,250.9c0,0.6-0.2,1.1-0.5,1.4s-0.7,0.5-1.2,0.5c-0.1,0-0.3,0-0.5,0c-0.2,0-0.4-0.1-0.5-0.1    v-0.9h0c0.1,0,0.2,0.1,0.3,0.1s0.3,0.1,0.4,0.1c0.2,0,0.4,0,0.5-0.1c0.1-0.1,0.2-0.2,0.3-0.3s0.1-0.3,0.1-0.5c0-0.2,0-0.4,0-0.7    v-4.4h-1.1v-0.8h1.9V250.9z M209.4,244.4h-1v-1h1V244.4z"/> 		<path style="fill:#1A171B;" d="M215.5,248c0,0.9-0.2,1.6-0.6,2.1s-1,0.8-1.7,0.8c-0.7,0-1.3-0.3-1.7-0.8s-0.6-1.2-0.6-2.1    s0.2-1.6,0.6-2.1c0.4-0.5,1-0.8,1.7-0.8c0.7,0,1.3,0.3,1.7,0.8C215.3,246.4,215.5,247.1,215.5,248z M214.6,248    c0-0.7-0.1-1.2-0.4-1.6c-0.3-0.3-0.6-0.5-1.1-0.5c-0.5,0-0.8,0.2-1.1,0.5c-0.3,0.3-0.4,0.9-0.4,1.6c0,0.7,0.1,1.2,0.4,1.6    c0.3,0.4,0.6,0.5,1.1,0.5c0.5,0,0.8-0.2,1.1-0.5C214.4,249.2,214.6,248.7,214.6,248z"/> 	</g> 	<g> 		<rect x="145.6" y="324.2" style="fill-rule:evenodd;clip-rule:evenodd;fill:none;" width="25.2" height="11"/> 		<path style="fill:#1A171B;" d="M151.4,325.4l-2.4,4.1v3.2h-0.9v-3.1l-2.4-4.2h1l1.9,3.3l1.9-3.3H151.4z"/> 		<path style="fill:#1A171B;" d="M155.8,332.7h-0.9v-0.6c-0.1,0.1-0.2,0.1-0.3,0.2c-0.1,0.1-0.3,0.2-0.4,0.2    c-0.1,0.1-0.3,0.1-0.5,0.2c-0.2,0.1-0.4,0.1-0.7,0.1c-0.5,0-0.9-0.2-1.2-0.5c-0.3-0.3-0.5-0.7-0.5-1.2c0-0.4,0.1-0.7,0.3-1    c0.2-0.3,0.4-0.5,0.7-0.6c0.3-0.1,0.7-0.2,1.1-0.3c0.4-0.1,0.9-0.1,1.4-0.1V329c0-0.2,0-0.4-0.1-0.5c-0.1-0.1-0.2-0.2-0.3-0.3    c-0.1-0.1-0.3-0.1-0.4-0.2c-0.2,0-0.4,0-0.5,0c-0.2,0-0.5,0-0.8,0.1c-0.3,0.1-0.6,0.2-0.9,0.3h0v-0.9c0.2,0,0.4-0.1,0.7-0.2    c0.3-0.1,0.6-0.1,0.9-0.1c0.4,0,0.7,0,0.9,0.1c0.3,0.1,0.5,0.2,0.7,0.3c0.2,0.1,0.3,0.3,0.4,0.6s0.2,0.5,0.2,0.9V332.7z     M154.9,331.4v-1.5c-0.3,0-0.6,0-0.9,0.1s-0.6,0.1-0.9,0.1c-0.2,0.1-0.5,0.2-0.6,0.3c-0.2,0.2-0.2,0.4-0.2,0.7    c0,0.3,0.1,0.5,0.3,0.7c0.2,0.2,0.5,0.2,0.8,0.2c0.3,0,0.6-0.1,0.8-0.2C154.5,331.7,154.7,331.5,154.9,331.4z"/> 		<path style="fill:#1A171B;" d="M158.4,326.3h-1v-1h1V326.3z M158.3,332.7h-0.9v-5.5h0.9V332.7z"/> 		<path style="fill:#1A171B;" d="M163.8,332.7h-4.2V332l3-4h-2.9v-0.8h4v0.7l-3,4h3.1V332.7z"/> 		<path style="fill:#1A171B;" d="M169,332.7h-0.9v-0.6c-0.1,0.1-0.2,0.1-0.3,0.2c-0.1,0.1-0.3,0.2-0.4,0.2c-0.1,0.1-0.3,0.1-0.5,0.2    c-0.2,0.1-0.4,0.1-0.7,0.1c-0.5,0-0.9-0.2-1.2-0.5c-0.3-0.3-0.5-0.7-0.5-1.2c0-0.4,0.1-0.7,0.3-1c0.2-0.3,0.4-0.5,0.7-0.6    c0.3-0.1,0.7-0.2,1.1-0.3c0.4-0.1,0.9-0.1,1.4-0.1V329c0-0.2,0-0.4-0.1-0.5c-0.1-0.1-0.2-0.2-0.3-0.3c-0.1-0.1-0.3-0.1-0.4-0.2    c-0.2,0-0.4,0-0.5,0c-0.2,0-0.5,0-0.8,0.1c-0.3,0.1-0.6,0.2-0.9,0.3h0v-0.9c0.2,0,0.4-0.1,0.7-0.2c0.3-0.1,0.6-0.1,0.9-0.1    c0.4,0,0.7,0,0.9,0.1c0.3,0.1,0.5,0.2,0.7,0.3c0.2,0.1,0.3,0.3,0.4,0.6s0.2,0.5,0.2,0.9V332.7z M168.1,331.4v-1.5    c-0.3,0-0.6,0-0.9,0.1s-0.6,0.1-0.9,0.1c-0.2,0.1-0.5,0.2-0.6,0.3c-0.2,0.2-0.2,0.4-0.2,0.7c0,0.3,0.1,0.5,0.3,0.7    c0.2,0.2,0.5,0.2,0.8,0.2c0.3,0,0.6-0.1,0.8-0.2C167.7,331.7,167.9,331.5,168.1,331.4z"/> 	</g> 	<g> 		<rect x="236" y="271.7" style="fill-rule:evenodd;clip-rule:evenodd;fill:none;" width="50.9" height="21"/> 		<path style="fill:#1A171B;" d="M258.3,278.1c0,0.3-0.1,0.6-0.2,0.8c-0.1,0.3-0.3,0.5-0.5,0.7c-0.2,0.2-0.5,0.4-0.9,0.5    c-0.3,0.1-0.7,0.2-1.2,0.2c-0.5,0-0.9,0-1.3-0.1c-0.4-0.1-0.8-0.2-1.2-0.4v-1.2h0.1c0.3,0.3,0.7,0.5,1.2,0.7    c0.5,0.2,0.9,0.2,1.3,0.2c0.6,0,1-0.1,1.3-0.3s0.5-0.5,0.5-0.9c0-0.3-0.1-0.6-0.2-0.7s-0.4-0.3-0.7-0.4c-0.2-0.1-0.5-0.1-0.8-0.2    c-0.3,0-0.6-0.1-0.9-0.2c-0.6-0.1-1.1-0.4-1.4-0.7c-0.3-0.3-0.4-0.8-0.4-1.3c0-0.6,0.2-1.1,0.7-1.5c0.5-0.4,1.1-0.6,1.9-0.6    c0.5,0,0.9,0,1.3,0.1c0.4,0.1,0.8,0.2,1.1,0.4v1.1h-0.1c-0.3-0.2-0.6-0.4-1-0.6c-0.4-0.2-0.9-0.2-1.3-0.2c-0.5,0-0.9,0.1-1.2,0.3    s-0.4,0.5-0.4,0.8c0,0.3,0.1,0.5,0.2,0.7s0.4,0.3,0.8,0.4c0.2,0,0.5,0.1,0.8,0.2c0.4,0.1,0.7,0.1,0.9,0.2c0.5,0.1,0.9,0.4,1.2,0.6    C258.2,277.2,258.3,277.6,258.3,278.1z"/> 		<path style="fill:#1A171B;" d="M263.7,280.2h-0.9v-0.6c-0.1,0.1-0.2,0.1-0.3,0.2c-0.1,0.1-0.3,0.2-0.4,0.2    c-0.1,0.1-0.3,0.1-0.5,0.2c-0.2,0-0.4,0.1-0.7,0.1c-0.5,0-0.9-0.2-1.2-0.5c-0.3-0.3-0.5-0.7-0.5-1.2c0-0.4,0.1-0.7,0.3-1    c0.2-0.3,0.4-0.5,0.7-0.6c0.3-0.1,0.7-0.2,1.1-0.3c0.4-0.1,0.9-0.1,1.4-0.1v-0.1c0-0.2,0-0.4-0.1-0.5c-0.1-0.1-0.2-0.2-0.3-0.3    c-0.1-0.1-0.3-0.1-0.4-0.2c-0.2,0-0.4,0-0.5,0c-0.2,0-0.5,0-0.8,0.1c-0.3,0.1-0.6,0.2-0.9,0.3h0v-0.9c0.2,0,0.4-0.1,0.7-0.2    c0.3-0.1,0.6-0.1,0.9-0.1c0.4,0,0.7,0,0.9,0.1c0.3,0.1,0.5,0.2,0.7,0.3c0.2,0.2,0.3,0.3,0.4,0.6s0.2,0.5,0.2,0.9V280.2z     M262.8,278.8v-1.5c-0.3,0-0.6,0-0.9,0.1s-0.6,0.1-0.9,0.1c-0.2,0.1-0.5,0.2-0.6,0.3c-0.2,0.2-0.2,0.4-0.2,0.7    c0,0.3,0.1,0.5,0.3,0.7c0.2,0.2,0.5,0.2,0.8,0.2c0.3,0,0.6-0.1,0.8-0.2C262.4,279.1,262.6,279,262.8,278.8z"/> 		<path style="fill:#1A171B;" d="M269.7,280.2h-0.9v-3.1c0-0.3,0-0.5,0-0.7c0-0.2-0.1-0.4-0.2-0.5c-0.1-0.1-0.2-0.2-0.3-0.3    c-0.1-0.1-0.3-0.1-0.6-0.1c-0.2,0-0.5,0.1-0.7,0.2c-0.3,0.1-0.5,0.3-0.7,0.5v4.1h-0.9v-5.5h0.9v0.6c0.3-0.2,0.6-0.4,0.8-0.6    s0.6-0.2,0.9-0.2c0.6,0,1,0.2,1.3,0.5c0.3,0.4,0.4,0.9,0.4,1.5V280.2z"/> 		<path style="fill:#1A171B;" d="M243.1,287.9c0,0.4-0.1,0.7-0.2,1c-0.1,0.3-0.3,0.5-0.5,0.7c-0.3,0.2-0.5,0.4-0.9,0.5    c-0.3,0.1-0.7,0.1-1.2,0.1H238v-7.3h2c0.5,0,0.9,0,1.1,0.1s0.5,0.1,0.7,0.2c0.3,0.1,0.4,0.3,0.5,0.5c0.1,0.2,0.2,0.5,0.2,0.8    c0,0.3-0.1,0.6-0.2,0.9c-0.2,0.2-0.4,0.4-0.7,0.6v0c0.5,0.1,0.8,0.3,1.1,0.6C243,287,243.1,287.4,243.1,287.9z M241.6,284.6    c0-0.2,0-0.3-0.1-0.4c-0.1-0.1-0.1-0.2-0.3-0.3c-0.1-0.1-0.3-0.1-0.5-0.2c-0.2,0-0.5,0-0.8,0h-1.1v2.1h1.2c0.3,0,0.5,0,0.7,0    c0.2,0,0.3-0.1,0.5-0.2s0.2-0.2,0.3-0.4C241.6,285,241.6,284.9,241.6,284.6z M242.2,288c0-0.3,0-0.5-0.1-0.7s-0.2-0.3-0.5-0.4    c-0.1-0.1-0.3-0.1-0.5-0.2c-0.2,0-0.5,0-0.8,0h-1.4v2.7h1.2c0.4,0,0.7,0,1-0.1c0.3,0,0.5-0.1,0.6-0.2c0.2-0.1,0.3-0.3,0.4-0.4    S242.2,288.2,242.2,288z"/> 		<path style="fill:#1A171B;" d="M248.4,290.2h-0.9v-0.6c-0.1,0.1-0.2,0.1-0.3,0.2c-0.1,0.1-0.3,0.2-0.4,0.2    c-0.1,0.1-0.3,0.1-0.5,0.2c-0.2,0-0.4,0.1-0.7,0.1c-0.5,0-0.9-0.2-1.2-0.5c-0.3-0.3-0.5-0.7-0.5-1.2c0-0.4,0.1-0.7,0.3-1    c0.2-0.3,0.4-0.5,0.7-0.6c0.3-0.1,0.7-0.2,1.1-0.3c0.4-0.1,0.9-0.1,1.4-0.1v-0.1c0-0.2,0-0.4-0.1-0.5c-0.1-0.1-0.2-0.2-0.3-0.3    c-0.1-0.1-0.3-0.1-0.4-0.2c-0.2,0-0.4,0-0.5,0c-0.2,0-0.5,0-0.8,0.1c-0.3,0.1-0.6,0.2-0.9,0.3h0v-0.9c0.2,0,0.4-0.1,0.7-0.2    c0.3-0.1,0.6-0.1,0.9-0.1c0.4,0,0.7,0,0.9,0.1c0.3,0.1,0.5,0.2,0.7,0.3c0.2,0.2,0.3,0.3,0.4,0.6s0.2,0.5,0.2,0.9V290.2z     M247.5,288.8v-1.5c-0.3,0-0.6,0-0.9,0.1s-0.6,0.1-0.9,0.1c-0.2,0.1-0.5,0.2-0.6,0.3c-0.2,0.2-0.2,0.4-0.2,0.7    c0,0.3,0.1,0.5,0.3,0.7c0.2,0.2,0.5,0.2,0.8,0.2c0.3,0,0.6-0.1,0.8-0.2C247.1,289.1,247.3,289,247.5,288.8z"/> 		<path style="fill:#1A171B;" d="M253.3,285.7L253.3,285.7c-0.2,0-0.3-0.1-0.4-0.1c-0.1,0-0.3,0-0.4,0c-0.3,0-0.5,0.1-0.8,0.2    c-0.3,0.1-0.5,0.3-0.7,0.5v3.9H250v-5.5h0.9v0.8c0.3-0.3,0.6-0.5,0.9-0.6c0.3-0.1,0.5-0.2,0.8-0.2c0.2,0,0.3,0,0.3,0    c0.1,0,0.2,0,0.3,0V285.7z"/> 		<path style="fill:#1A171B;" d="M256.8,290.1c-0.2,0-0.3,0.1-0.5,0.1s-0.4,0-0.5,0c-0.5,0-0.9-0.2-1.2-0.4    c-0.3-0.3-0.4-0.8-0.4-1.4v-2.9h-0.6v-0.8h0.6v-1.6h0.9v1.6h1.8v0.8H255v2.5c0,0.3,0,0.5,0,0.7c0,0.2,0.1,0.3,0.1,0.5    c0.1,0.1,0.2,0.2,0.3,0.3c0.1,0.1,0.3,0.1,0.5,0.1c0.1,0,0.3,0,0.4-0.1c0.2,0,0.3-0.1,0.3-0.1h0V290.1z"/> 		<path style="fill:#1A171B;" d="M262.2,287.4c0,0.9-0.2,1.6-0.6,2.1s-1,0.8-1.7,0.8c-0.7,0-1.3-0.3-1.7-0.8s-0.6-1.2-0.6-2.1    s0.2-1.6,0.6-2.1c0.4-0.5,1-0.8,1.7-0.8c0.7,0,1.3,0.3,1.7,0.8C262,285.8,262.2,286.5,262.2,287.4z M261.3,287.4    c0-0.7-0.1-1.2-0.4-1.6c-0.3-0.3-0.6-0.5-1.1-0.5c-0.5,0-0.8,0.2-1.1,0.5c-0.3,0.3-0.4,0.9-0.4,1.6c0,0.7,0.1,1.2,0.4,1.6    c0.3,0.4,0.6,0.5,1.1,0.5c0.5,0,0.8-0.2,1.1-0.5C261.2,288.6,261.3,288.1,261.3,287.4z"/> 		<path style="fill:#1A171B;" d="M264.4,290.2h-0.9v-7.6h0.9V290.2z"/> 		<path style="fill:#1A171B;" d="M270.5,287.4c0,0.9-0.2,1.6-0.6,2.1s-1,0.8-1.7,0.8c-0.7,0-1.3-0.3-1.7-0.8s-0.6-1.2-0.6-2.1    s0.2-1.6,0.6-2.1c0.4-0.5,1-0.8,1.7-0.8c0.7,0,1.3,0.3,1.7,0.8C270.3,285.8,270.5,286.5,270.5,287.4z M269.6,287.4    c0-0.7-0.1-1.2-0.4-1.6c-0.3-0.3-0.6-0.5-1.1-0.5c-0.5,0-0.8,0.2-1.1,0.5c-0.3,0.3-0.4,0.9-0.4,1.6c0,0.7,0.1,1.2,0.4,1.6    c0.3,0.4,0.6,0.5,1.1,0.5c0.5,0,0.8-0.2,1.1-0.5C269.5,288.6,269.6,288.1,269.6,287.4z"/> 		<path style="fill:#1A171B;" d="M279.4,290.2h-0.9v-3.1c0-0.2,0-0.5,0-0.7c0-0.2-0.1-0.4-0.1-0.5c-0.1-0.1-0.2-0.2-0.3-0.3    c-0.1-0.1-0.3-0.1-0.6-0.1c-0.2,0-0.5,0.1-0.7,0.2c-0.2,0.1-0.5,0.3-0.7,0.5c0,0.1,0,0.2,0,0.3c0,0.1,0,0.2,0,0.3v3.5h-0.9v-3.1    c0-0.2,0-0.5,0-0.7c0-0.2-0.1-0.4-0.1-0.5c-0.1-0.1-0.2-0.2-0.3-0.3c-0.1-0.1-0.3-0.1-0.6-0.1c-0.2,0-0.5,0.1-0.7,0.2    c-0.2,0.1-0.5,0.3-0.7,0.5v4.1h-0.9v-5.5h0.9v0.6c0.3-0.2,0.5-0.4,0.8-0.6c0.3-0.1,0.6-0.2,0.9-0.2c0.4,0,0.6,0.1,0.9,0.2    c0.2,0.2,0.4,0.4,0.5,0.6c0.4-0.3,0.7-0.5,1-0.7c0.3-0.1,0.6-0.2,0.9-0.2c0.6,0,1,0.2,1.3,0.5c0.3,0.4,0.4,0.9,0.4,1.5V290.2z"/> 		<path style="fill:#1A171B;" d="M285.4,287.5h-3.8c0,0.3,0,0.6,0.1,0.9c0.1,0.3,0.2,0.5,0.4,0.6c0.2,0.2,0.4,0.3,0.6,0.4    s0.5,0.1,0.7,0.1c0.4,0,0.7-0.1,1.1-0.2c0.4-0.1,0.6-0.3,0.8-0.4h0v1c-0.3,0.1-0.6,0.2-0.9,0.3c-0.3,0.1-0.6,0.1-1,0.1    c-0.9,0-1.5-0.2-2-0.7c-0.5-0.5-0.7-1.2-0.7-2.1c0-0.9,0.2-1.6,0.7-2.1s1.1-0.8,1.8-0.8c0.7,0,1.2,0.2,1.6,0.6s0.6,1,0.6,1.8    V287.5z M284.5,286.8c0-0.5-0.1-0.9-0.3-1.1c-0.2-0.3-0.6-0.4-1-0.4c-0.5,0-0.8,0.1-1.1,0.4s-0.4,0.6-0.5,1.1H284.5z M284.6,282    l-1.3,1.8h-0.7l0.8-1.8H284.6z"/> 	</g> 	<g> 		<rect x="281.7" y="297.5" style="fill-rule:evenodd;clip-rule:evenodd;fill:none;" width="37.7" height="11"/> 		<path style="fill:#1A171B;" d="M288.1,306h-1l-0.7-2h-3l-0.7,2h-0.9l2.5-7.3h1.2L288.1,306z M286.2,303.2l-1.2-3.6l-1.2,3.6H286.2    z"/> 		<path style="fill:#1A171B;" d="M292.3,301.6L292.3,301.6c-0.2,0-0.3-0.1-0.4-0.1c-0.1,0-0.3,0-0.4,0c-0.3,0-0.5,0.1-0.8,0.2    c-0.3,0.1-0.5,0.3-0.7,0.5v3.9h-0.9v-5.5h0.9v0.8c0.3-0.3,0.6-0.5,0.9-0.6c0.3-0.1,0.5-0.2,0.8-0.2c0.2,0,0.3,0,0.3,0    c0.1,0,0.2,0,0.3,0V301.6z"/> 		<path style="fill:#1A171B;" d="M296.3,301.6L296.3,301.6c-0.2,0-0.3-0.1-0.4-0.1c-0.1,0-0.3,0-0.4,0c-0.3,0-0.5,0.1-0.8,0.2    c-0.3,0.1-0.5,0.3-0.7,0.5v3.9h-0.9v-5.5h0.9v0.8c0.3-0.3,0.6-0.5,0.9-0.6c0.3-0.1,0.5-0.2,0.8-0.2c0.2,0,0.3,0,0.3,0    c0.1,0,0.2,0,0.3,0V301.6z"/> 		<path style="fill:#1A171B;" d="M301.4,303.4h-3.8c0,0.3,0,0.6,0.1,0.9c0.1,0.2,0.2,0.5,0.4,0.6c0.2,0.2,0.4,0.3,0.6,0.4    s0.5,0.1,0.7,0.1c0.4,0,0.7-0.1,1.1-0.2c0.4-0.1,0.6-0.3,0.8-0.4h0v1c-0.3,0.1-0.6,0.2-0.9,0.3c-0.3,0.1-0.6,0.1-1,0.1    c-0.9,0-1.5-0.2-2-0.7c-0.5-0.5-0.7-1.2-0.7-2.1c0-0.9,0.2-1.6,0.7-2.1s1.1-0.8,1.8-0.8c0.7,0,1.2,0.2,1.6,0.6s0.6,1,0.6,1.8    V303.4z M300.6,302.7c0-0.5-0.1-0.9-0.3-1.1c-0.2-0.3-0.6-0.4-1-0.4c-0.5,0-0.8,0.1-1.1,0.4s-0.4,0.6-0.5,1.1H300.6z"/> 		<path style="fill:#1A171B;" d="M306.6,305.7c-0.3,0.1-0.6,0.3-0.8,0.3c-0.3,0.1-0.5,0.1-0.8,0.1c-0.4,0-0.7-0.1-1-0.2    c-0.3-0.1-0.6-0.3-0.8-0.5c-0.2-0.2-0.4-0.5-0.5-0.9s-0.2-0.8-0.2-1.3c0-0.9,0.2-1.6,0.7-2.1s1.1-0.8,1.8-0.8c0.3,0,0.6,0,0.9,0.1    s0.5,0.2,0.8,0.3v1h0c-0.3-0.2-0.5-0.4-0.8-0.5s-0.6-0.2-0.8-0.2c-0.5,0-0.9,0.2-1.2,0.5c-0.3,0.4-0.4,0.9-0.4,1.5    c0,0.7,0.1,1.2,0.4,1.5c0.3,0.4,0.7,0.5,1.2,0.5c0.2,0,0.4,0,0.5-0.1s0.3-0.1,0.5-0.2c0.1-0.1,0.2-0.1,0.4-0.2    c0.1-0.1,0.2-0.1,0.3-0.2h0V305.7z"/> 		<path style="fill:#1A171B;" d="M308.6,299.6h-1v-1h1V299.6z M308.6,306h-0.9v-5.5h0.9V306z"/> 		<path style="fill:#1A171B;" d="M313,299.3L313,299.3c-0.1,0-0.3-0.1-0.4-0.1c-0.2,0-0.3,0-0.4,0c-0.4,0-0.6,0.1-0.8,0.3    c-0.2,0.2-0.3,0.5-0.3,0.9v0.2h1.6v0.8h-1.5v4.7h-0.9v-4.7h-0.6v-0.8h0.6v-0.2c0-0.6,0.2-1.1,0.5-1.5c0.3-0.3,0.7-0.5,1.3-0.5    c0.2,0,0.4,0,0.5,0s0.3,0,0.4,0.1V299.3z"/> 		<path style="fill:#1A171B;" d="M317.9,303.4h-3.8c0,0.3,0,0.6,0.1,0.9c0.1,0.2,0.2,0.5,0.4,0.6c0.2,0.2,0.4,0.3,0.6,0.4    s0.5,0.1,0.7,0.1c0.4,0,0.7-0.1,1.1-0.2c0.4-0.1,0.6-0.3,0.8-0.4h0v1c-0.3,0.1-0.6,0.2-0.9,0.3c-0.3,0.1-0.6,0.1-1,0.1    c-0.9,0-1.5-0.2-2-0.7c-0.5-0.5-0.7-1.2-0.7-2.1c0-0.9,0.2-1.6,0.7-2.1s1.1-0.8,1.8-0.8c0.7,0,1.2,0.2,1.6,0.6s0.6,1,0.6,1.8    V303.4z M317.1,302.7c0-0.5-0.1-0.9-0.3-1.1c-0.2-0.3-0.6-0.4-1-0.4c-0.5,0-0.8,0.1-1.1,0.4s-0.4,0.6-0.5,1.1H317.1z"/> 	</g> 	<g> 		<rect x="217.4" y="311" style="fill-rule:evenodd;clip-rule:evenodd;fill:none;" width="20.1" height="11"/> 		<path style="fill:#1A171B;" d="M223.2,313.1h-2.5v6.4h-0.9v-6.4h-2.5v-0.9h5.8V313.1z"/> 		<path style="fill:#1A171B;" d="M225.9,311.3l-1.3,1.8H224l0.8-1.8H225.9z M224.9,319.5h-0.9v-5.5h0.9V319.5z"/> 		<path style="fill:#1A171B;" d="M230.7,319.5h-0.9v-0.6c-0.1,0.1-0.2,0.1-0.3,0.2c-0.1,0.1-0.3,0.2-0.4,0.2    c-0.1,0.1-0.3,0.1-0.5,0.2c-0.2,0.1-0.4,0.1-0.7,0.1c-0.5,0-0.9-0.2-1.2-0.5c-0.3-0.3-0.5-0.7-0.5-1.2c0-0.4,0.1-0.7,0.3-1    c0.2-0.3,0.4-0.5,0.7-0.6c0.3-0.1,0.7-0.2,1.1-0.3c0.4-0.1,0.9-0.1,1.4-0.1v-0.1c0-0.2,0-0.4-0.1-0.5c-0.1-0.1-0.2-0.2-0.3-0.3    c-0.1-0.1-0.3-0.1-0.4-0.2c-0.2,0-0.4,0-0.5,0c-0.2,0-0.5,0-0.8,0.1c-0.3,0.1-0.6,0.2-0.9,0.3h0v-0.9c0.2,0,0.4-0.1,0.7-0.2    c0.3-0.1,0.6-0.1,0.9-0.1c0.4,0,0.7,0,0.9,0.1c0.3,0.1,0.5,0.2,0.7,0.3c0.2,0.1,0.3,0.3,0.4,0.6s0.2,0.5,0.2,0.9V319.5z     M229.8,318.2v-1.5c-0.3,0-0.6,0-0.9,0.1s-0.6,0.1-0.9,0.1c-0.2,0.1-0.5,0.2-0.6,0.3c-0.2,0.2-0.2,0.4-0.2,0.7    c0,0.3,0.1,0.5,0.3,0.7c0.2,0.2,0.5,0.2,0.8,0.2c0.3,0,0.6-0.1,0.8-0.2C229.4,318.5,229.6,318.3,229.8,318.2z"/> 		<path style="fill:#1A171B;" d="M236,317.9c0,0.5-0.2,0.9-0.6,1.2c-0.4,0.3-0.9,0.5-1.6,0.5c-0.4,0-0.7,0-1-0.1    c-0.3-0.1-0.6-0.2-0.8-0.3v-1h0c0.3,0.2,0.6,0.4,0.9,0.5c0.3,0.1,0.7,0.2,1,0.2c0.4,0,0.7-0.1,0.9-0.2c0.2-0.1,0.3-0.3,0.3-0.6    c0-0.2-0.1-0.4-0.2-0.5s-0.3-0.2-0.7-0.3c-0.1,0-0.3-0.1-0.5-0.1c-0.2,0-0.4-0.1-0.5-0.1c-0.5-0.1-0.8-0.3-1-0.6    c-0.2-0.2-0.3-0.5-0.3-0.9c0-0.2,0-0.4,0.1-0.6s0.2-0.4,0.4-0.5c0.2-0.2,0.4-0.3,0.7-0.4c0.3-0.1,0.6-0.1,0.9-0.1    c0.3,0,0.6,0,0.9,0.1c0.3,0.1,0.6,0.2,0.8,0.3v1h0c-0.2-0.2-0.5-0.3-0.8-0.4c-0.3-0.1-0.6-0.2-0.9-0.2c-0.3,0-0.6,0.1-0.8,0.2    c-0.2,0.1-0.3,0.3-0.3,0.6c0,0.2,0.1,0.4,0.2,0.5c0.1,0.1,0.3,0.2,0.6,0.3c0.2,0,0.3,0.1,0.5,0.1s0.4,0.1,0.5,0.1    c0.4,0.1,0.7,0.3,0.9,0.5C235.9,317.2,236,317.5,236,317.9z"/> 	</g> </g> </svg>