<svg xmlns="http://www.w3.org/2000/svg" xmlns:xlink="http://www.w3.org/1999/xlink" version="1.1" x="0px" y="0px" width="450px" height="450px" viewBox="0 0 450 450" style="enable-background:new 0 0 450 450;" xml:space="preserve"> <g id="Color_fons"> 	<a> 		<path style="fill:#BFBFBF;stroke:#696969;stroke-width:2;stroke-miterlimit:10;" d="M228-35.3c76,3.6,152,7.2,228,10.8    c22.2,1,14.6,53.7,8.6,71.9c-5,15.4-13.1,53,20.7,49.7c6.2,28.2-56.4,20.8-65,22.4c-4.3,0.8-9.5-17.2-18.5-22.2    c-0.6-0.3-1.2-1.1-1.8-1.3c-8.8-3-19.4-2.2-22.2,10.6c2.2,0.3,4.5,0.5,6.7,0.8c-7.4,21.1-26.1-2.2-29.8,17.6    c-8.2-2.9-20.4-0.9-23,14.1c-0.2,1.3-5.4-17.7-11.8-19.6c-8.3-2.5-16.6,5.7-27.2,9.9c-13.7-28.7-51.4-70-59.5-85.7    c-5-9.6-9-21.9-5.8-34.1c0.7-2.7,11.4-7.7,12.2-12.2C241.1-12.5,232.2-26.3,228-35.3L228-35.3z"/> 	</a> 	<a> 		<path style="fill:#BFBFBF;stroke:#696969;stroke-width:2;stroke-miterlimit:10;" d="M330.8,230.5c1.2,4.3,10.7,3,7-7.4    c1.9-0.7,7,1.1,7,1.1c2.6-4.8,7.2-6.8,11.8-6.3c6.5,0.7,12.8,5.2,13.4,5.1c6-1.1,13.9-12.8,20.5-14.4c3-0.7,6.1,1.7,8.2,6.6    c6.3-8.1,20.4-6.4,31-3.4c2.5,0.7,4,1.6,6.1,2.6c0,0,1,9.2,12.5,13.8c23.3,9.2,21.1-5.8,21.5,23.2c0.3,30.2,0.7,60.4,1,90.7    c0,1.9-20.8,13.2-24.8,17c-10.2,9.6-2.3,11.2-17.8,18.1c-15.4,6.9-47.9,12.3-51.5-8.5c-12,4.5-7,18.7-15.2,23.6    c-4.3,2.5-6.2-0.1-11-1.5c-2.9-0.9-13.5-2.9-18.9-1.2c-2.7,0.8-6.8,4.8-7.4,7.8c-0.2,1-2.6,5-8.4,6.7c-5.6,1.6-14.6,0.7-19.7,1.6    c-8.3,1.5-18.3,3.9-26.2,6.3c-11,3.4-16.4,1.5-20.9-0.2c-7.6-2.7-9.5-8.5-12.5-30.8c-3.4-25.4,3.4-24.3,18.5-38.8    c13.1-12.6-5.1-22.2,3.5-37.7c18.2,2.4,13.6-6.6,22.5-17c3.2-3.7,17.5,3.8,14.4-13.7c-0.3-1.6-4.9-3.6-3.2-4.6    c2.8-1.6,5.1-3.1,6.6-6.2c1.7-3.7,2.3-9,3.6-11.4c6,3.9,14.3,2.4,19.3-2.5c4-4,7.7-9,9.1-13C331.5,233.2,330.8,230.5,330.8,230.5z    "/> 	</a> 	<a> 		<path style="fill:#BFBFBF;stroke:#696969;stroke-width:2;stroke-miterlimit:10;" d="M125.3,466.7c-50.4,1.3-100.9,2.7-151.3,4    c0.2-35,0.4-70.1,0.6-105.1c0.1-12,22.6-12.6,29.6-21.7c6.6-8.6,8.3-6,8.1-0.2c-0.5,13.6,26.1-10.7,30.3-12.5    c16.8-7,34.3-1.5,55.5,2.3c-19.4,21.4,14.2,18.5,20.7,41.9c2.8,10.1-21.2,17.6-6.3,23.5C128.4,405.2,123.5,450,125.3,466.7    L125.3,466.7z"/> 	</a> 	<a> 		<path style="fill:#BFBFBF;stroke:#696969;stroke-width:2;stroke-miterlimit:10;" d="M-27.3-20c69.3-4.2,138.7-8.3,208-12.5    c24.5-1.5,43.5-11.5,53.8,11.8c14.9,34-10.2,16.8-8,38.5c-11-12.2-12.3,5.8-12.5,12.3c-0.1,3-0.8,5-2,6.8c-1.5,2.4-3,3.9-8.8,3    c-9.2-1.5-10.9-1-12.3,1c-9.2,12.9-10.4,23.2-19.1,37.7c-4.1,6.9-31.5,5.9-39.2,6.6c0.5,6.3-2.8,12.3-1.6,18.6c-1.9-2-3.9-4-5.8-6    c-3.7,5.1-40.4,51.8-29.5,57.4c18.9,9.7,11.6,26.9,10.9,36.6c-0.2,3.3,0.5,7.2,3.7,8.9c8.6,4.6,28,2.1,39.1-3.6    c0.6,1.7,3.1,4.2,3.3,6.1c0.5,5.2-2,5.3-1.7,8.4c0.1,0.8,1.4,1.5,1.7,2.9c0.6,2.2,1.7,5.3,3.5,9.9c6.2,16-2.8,26.3-13.7,40.1    c-1.9,2.4-3.8,5.4-5.8,8c-14,17.8-21.9-0.7-32.1,9c-1.2,1.1-2.5,5.4-1.9,8c1.5,6.5,8,13.6,7.8,16.6c-0.6,10.2-12.2,27.3-12.2,27.3    c-3,0-39.7-10.3-58.4-0.1c-8.8,4.8-23.3,19.5-26.8,12.7c-0.3-0.5-0.7-7-2.8-6.6c-3.3,0.6-5.4,5.2-7,6c-7.9,4.1-20,13.3-28.5,15.2    C-26.7,236.6-26,104-27.3-20L-27.3-20z"/> 	</a> 	<a> 		<path style="fill:#BFBFBF;stroke:#696969;stroke-width:2;stroke-miterlimit:10;" d="M123.3,425.8c1.6,0.5,3.6,2.9,6.7,4.3    c6.3,2.8,15.1,4.4,20-1.1c2.6-2.9,4.1-8.4,4.8-17c1.7-21.7,10.5-23.3,20.3-18.4c12,6,12.6,23.8,19.3,24.1    c5.1,0.2,12.4-1.2,16.9-6.9c2.2-2.8,2.4-12.7,5.5-14c3.8-1.6,11.1,5.7,15.4,5.2c2.3-0.2,2.3-5.1,3.7-8.2c0.5-1.1,0.9-4.4,2.1-3.7    c3.3,42.1,43.1,13.9,61.6,15.3c5.4,0.4,14.6-0.5,19.2-2.9c6.6-3.4,6.1-11.1,12.7-13.1c6.4-1.9,19.7,1.3,25.2,3.3    c11.5,4.2,8.9-19.9,20-24.1c4,22.8,32.6,14.1,48.7,7.8c3.6-1.4,3.8-0.9,8-2.6c10.2-4.1,2.5-6.1,7.1-10.3    c11.6-10.6,9.4-16,30.4-17.4c-0.6,21.3-1.1,42.7-1.7,64c-0.2,9.2,5.2,57.7-1.7,64c-12.4,11.4-93-2-109.3-2.3    c-60.3-1.3-120.7-2.6-181-3.9c-14-0.3-51.6,11.5-51.6-1.1C125.3,463.8,123.3,425.8,123.3,425.8z"/> 	</a> 	<a> 		<path style="fill:#BFBFBF;stroke:#696969;stroke-width:2;stroke-miterlimit:10;" d="M472.7,170c-1.1,19.8-2.6,42.8-3.7,62.5    c-26.6-1.1-33-10.7-33.9-18.5c0,0,9.9-6.1,9.9-26.1c0-0.9-4.9-3.7-4.6-6.1C441.7,169.3,452.6,170.6,472.7,170L472.7,170z"/> 	</a> 	<a> 		<path style="fill:#BFBFBF;stroke:#696969;stroke-width:2;stroke-miterlimit:10;" d="M331.4,141.2c1.3-9.2,6.9-22.2,23.3-16.4    c3.8-19.9,22.5,3.4,29.8-17.6c-2.2-0.3-4.5-0.5-6.7-0.8c2.3-10.7,11.4-13.3,21.7-11.1c9.1,1.9,15,25.2,20.9,24.1    c11.3-2,43.3,1.4,60.4,2.6c-4.3,25.6,2.2,47.7-25.7,48.6c-10.2,0.3-19.5,11.1-10.9,15.6c3.3,1.7,0.1,23.4-6.9,26.6    c-8.1,3.8-18.5-11.9-38.6,2.3c-7.5-17.6-18.2,5.4-27.3,7.5c-2.2,0.5-19.1-12.2-26.5,1.5c0,0-5.1-1.8-7-1.1    c1.7,12.1-4,9.4-10.6,4.4c-6.3-4.8-13.8-13-12.7-17.8c0.7-3.1,5.6-4.7,14.7-3.4c-1.6-8.5-14.3-30.1-15.3-36.3    c-2.1-12.7,5.3-14.8,11.1-18.3c1.6-1,3.5-0.5,4.7-2C331,148,331.4,144.3,331.4,141.2L331.4,141.2z"/> 	</a> </g> <g id="Capa-1"> 	<a> 		<path style="fill:#FFFBF0;stroke:#9A9A9A;stroke-width:2;stroke-miterlimit:10;" d="M258.3,234.3c-1.7,5.2-7.9,12.8-7.9,12.8    c0.6,1.1-97.4-42.9-97.4-42.9c-1.5-2.1-2.7-4.4-3.8-6.9c-7.8,6.5-41.6,10.2-43.2-1.8c-1.8-13.6,9.3-29.9-10.5-40    c-11-5.6,25.8-52.3,29.5-57.4c1.9,2,3.9,4,5.8,6c-1.1-6.3,2.1-12.3,1.6-18.6c5.3-0.5,31.6-0.9,35.6-4.1c6.2-5,19.7-38.9,24.4-41.6    c3.7-2.1,15.2,1.9,17.2,0c8.6-7.9,1.5-15.8,6.6-22.7c9.3-12.5,11.5,10.2,12.4,16.1c1.9,13,53,73.2,63.9,96.1l23.5-11.1    c5.7-4.1,23.5,29.5,10.5,33.6c-29,9-1.5,32.5,2.6,54.6c-35.3-4.9,2.3,26.2,2.3,24.2c-0.1,9-14.5,30.6-29.5,21    c-3,19.9-13.7,20.7-20.8,4.5C263.5,215.7,258.3,234.3,258.3,234.3z"/> 	</a> 	<a> 		<path style="fill:#FFFBF0;stroke:#9A9A9A;stroke-width:2;stroke-miterlimit:10;" d="M150.8,211.7c-0.4-2.4,1.3-6.2,1.7-8.4    c16.2,9.6,97.9,43.8,97.9,43.8c0.6,0.2,5-9,7.9-14c7.6-13.3,15,9.1,16.1,10.5c1,1.3,9.5,17.8,11,20.2c3.7,6.1,10.9,4.2,10.5,13.2    c-0.7,13.6-9.8,6.2-14.4,10.2c-9.4,8.1-5.5,19.3-23.1,17c-6.9,12.6,4.7,20.5,2,29.3c-4,13.1-25.4,19.2-24.6,31.5    c0.5,8.2,3.2,27.7-2.3,35c-3.8,5.1-11.6-6.2-16.8-3.3c-5.6,3.1-2.2,13.1-8.2,16.4c-29,15.9-13.1-13.1-35.5-20.4    c-31.3-10.2-4,44.2-34.9,39.3c-19.2-3-16.8-14.1-19.5-27.7c-1.3-6.5-8.3-3.8-10.6-8.9c-2.4-5.3,9-11.8,9.1-10.3    c-0.7-8.5,2.7-9.8-3.8-20.7c-3.4-5.8-20.5-10.1-21.8-17.4c-1-5.6,19.2-30.6,19-41.1c-0.1-5.8-13.6-17.2-5.9-24.6    c7.3-7,22.3,5.8,30.9-7.3c5-7.6,20.2-24.1,22.1-32.8C159.6,231.4,150.8,211.7,150.8,211.7z"/> 	</a> 	<g> 		<rect x="172.7" y="247.3" style="fill-rule:evenodd;clip-rule:evenodd;fill:none;" width="52.3" height="23.7"/> 		<path d="M182.7,251.4h-2.5v6.4h-0.9v-6.4h-2.5v-0.9h5.8V251.4z"/> 		<path d="M186.9,255.1c0,0.9-0.2,1.6-0.6,2.1s-1,0.8-1.7,0.8c-0.7,0-1.3-0.3-1.7-0.8c-0.4-0.5-0.6-1.2-0.6-2.1s0.2-1.6,0.6-2.1    c0.4-0.5,1-0.8,1.7-0.8c0.7,0,1.3,0.3,1.7,0.8C186.7,253.5,186.9,254.2,186.9,255.1z M186,255.1c0-0.7-0.1-1.2-0.4-1.6    c-0.3-0.3-0.6-0.5-1.1-0.5c-0.5,0-0.8,0.2-1.1,0.5c-0.3,0.3-0.4,0.9-0.4,1.6c0,0.7,0.1,1.2,0.4,1.6c0.3,0.4,0.6,0.5,1.1,0.5    c0.5,0,0.8-0.2,1.1-0.5C185.9,256.3,186,255.8,186,255.1z"/> 		<path d="M191.5,253.3L191.5,253.3c-0.2,0-0.3-0.1-0.4-0.1c-0.1,0-0.3,0-0.4,0c-0.3,0-0.5,0.1-0.8,0.2c-0.2,0.1-0.5,0.3-0.7,0.5    v3.9h-0.9v-5.5h0.9v0.8c0.3-0.3,0.6-0.5,0.9-0.6c0.3-0.1,0.5-0.2,0.8-0.2c0.2,0,0.3,0,0.3,0c0.1,0,0.2,0,0.3,0V253.3z"/> 		<path d="M195.5,253.3L195.5,253.3c-0.2,0-0.3-0.1-0.4-0.1c-0.1,0-0.3,0-0.4,0c-0.3,0-0.5,0.1-0.8,0.2c-0.2,0.1-0.5,0.3-0.7,0.5    v3.9h-0.9v-5.5h0.9v0.8c0.3-0.3,0.6-0.5,0.9-0.6c0.3-0.1,0.5-0.2,0.8-0.2c0.2,0,0.3,0,0.3,0c0.1,0,0.2,0,0.3,0V253.3z"/> 		<path d="M200.6,255.2h-3.8c0,0.3,0,0.6,0.1,0.9c0.1,0.3,0.2,0.5,0.4,0.6c0.2,0.2,0.3,0.3,0.6,0.4c0.2,0.1,0.5,0.1,0.7,0.1    c0.4,0,0.7-0.1,1.1-0.2c0.4-0.1,0.6-0.3,0.8-0.4h0v1c-0.3,0.1-0.6,0.2-0.9,0.3c-0.3,0.1-0.6,0.1-1,0.1c-0.9,0-1.5-0.2-2-0.7    c-0.5-0.5-0.7-1.2-0.7-2.1c0-0.9,0.2-1.6,0.7-2.1s1.1-0.8,1.8-0.8c0.7,0,1.2,0.2,1.6,0.6s0.6,1,0.6,1.8V255.2z M199.8,254.5    c0-0.5-0.1-0.9-0.3-1.1c-0.2-0.3-0.6-0.4-1-0.4c-0.5,0-0.8,0.1-1.1,0.4c-0.3,0.3-0.4,0.6-0.5,1.1H199.8z"/> 		<path d="M205.6,256.2c0,0.5-0.2,0.9-0.6,1.2s-0.9,0.5-1.6,0.5c-0.4,0-0.7,0-1-0.1c-0.3-0.1-0.6-0.2-0.8-0.3v-1h0    c0.3,0.2,0.6,0.4,0.9,0.5c0.3,0.1,0.7,0.2,1,0.2c0.4,0,0.7-0.1,0.9-0.2s0.3-0.3,0.3-0.6c0-0.2-0.1-0.4-0.2-0.5    c-0.1-0.1-0.3-0.2-0.7-0.3c-0.1,0-0.3-0.1-0.5-0.1c-0.2,0-0.4-0.1-0.5-0.1c-0.5-0.1-0.8-0.3-1-0.6c-0.2-0.2-0.3-0.5-0.3-0.9    c0-0.2,0-0.4,0.1-0.6s0.2-0.4,0.4-0.5c0.2-0.2,0.4-0.3,0.7-0.4c0.3-0.1,0.6-0.1,0.9-0.1c0.3,0,0.6,0,0.9,0.1    c0.3,0.1,0.6,0.2,0.8,0.3v1h0c-0.2-0.2-0.5-0.3-0.8-0.4c-0.3-0.1-0.6-0.2-0.9-0.2c-0.3,0-0.6,0.1-0.8,0.2    c-0.2,0.1-0.3,0.3-0.3,0.6c0,0.2,0.1,0.4,0.2,0.5c0.1,0.1,0.3,0.2,0.6,0.3c0.2,0,0.3,0.1,0.5,0.1c0.2,0,0.4,0.1,0.5,0.1    c0.4,0.1,0.7,0.3,0.9,0.5C205.5,255.5,205.6,255.8,205.6,256.2z"/> 		<path d="M214.4,257.8h-0.9v-0.6c-0.2,0.2-0.5,0.4-0.8,0.5c-0.3,0.1-0.6,0.2-0.9,0.2c-0.6,0-1.1-0.3-1.5-0.8s-0.5-1.2-0.5-2.1    c0-0.5,0.1-0.9,0.2-1.2c0.1-0.4,0.3-0.7,0.5-0.9c0.2-0.2,0.5-0.4,0.7-0.6s0.6-0.2,0.9-0.2c0.3,0,0.5,0,0.7,0.1    c0.2,0.1,0.4,0.2,0.7,0.3v-2.4h0.9V257.8z M213.5,256.5v-3.1c-0.2-0.1-0.4-0.2-0.6-0.2s-0.4-0.1-0.6-0.1c-0.5,0-0.9,0.2-1.1,0.5    c-0.3,0.4-0.4,0.9-0.4,1.5c0,0.6,0.1,1.1,0.3,1.5c0.2,0.3,0.5,0.5,1,0.5c0.2,0,0.5-0.1,0.7-0.2    C213.1,256.8,213.3,256.6,213.5,256.5z"/> 		<path d="M220.4,255.2h-3.8c0,0.3,0,0.6,0.1,0.9c0.1,0.3,0.2,0.5,0.4,0.6c0.2,0.2,0.4,0.3,0.6,0.4c0.2,0.1,0.5,0.1,0.7,0.1    c0.4,0,0.7-0.1,1.1-0.2c0.4-0.1,0.6-0.3,0.8-0.4h0v1c-0.3,0.1-0.6,0.2-0.9,0.3c-0.3,0.1-0.6,0.1-1,0.1c-0.9,0-1.5-0.2-2-0.7    c-0.5-0.5-0.7-1.2-0.7-2.1c0-0.9,0.2-1.6,0.7-2.1s1.1-0.8,1.8-0.8c0.7,0,1.2,0.2,1.6,0.6s0.6,1,0.6,1.8V255.2z M219.6,254.5    c0-0.5-0.1-0.9-0.3-1.1s-0.6-0.4-1-0.4c-0.5,0-0.8,0.1-1.1,0.4c-0.3,0.3-0.4,0.6-0.5,1.1H219.6z"/> 		<path d="M191,265.7c0,0.3-0.1,0.6-0.2,0.8s-0.3,0.5-0.5,0.7c-0.2,0.2-0.5,0.4-0.9,0.5s-0.7,0.2-1.2,0.2c-0.5,0-0.9,0-1.3-0.1    c-0.4-0.1-0.8-0.2-1.2-0.4v-1.2h0.1c0.3,0.3,0.7,0.5,1.2,0.7s0.9,0.2,1.3,0.2c0.6,0,1-0.1,1.3-0.3c0.3-0.2,0.5-0.5,0.5-0.9    c0-0.3-0.1-0.6-0.2-0.7s-0.4-0.3-0.7-0.4c-0.2-0.1-0.5-0.1-0.8-0.2c-0.3,0-0.6-0.1-0.9-0.2c-0.6-0.1-1.1-0.4-1.4-0.7    c-0.3-0.3-0.4-0.8-0.4-1.3c0-0.6,0.2-1.1,0.7-1.5c0.5-0.4,1.1-0.6,1.9-0.6c0.5,0,0.9,0,1.3,0.1c0.4,0.1,0.8,0.2,1.1,0.4v1.1h-0.1    c-0.3-0.2-0.6-0.4-1-0.6c-0.4-0.2-0.9-0.2-1.3-0.2c-0.5,0-0.9,0.1-1.2,0.3s-0.4,0.5-0.4,0.8c0,0.3,0.1,0.5,0.2,0.7    c0.1,0.2,0.4,0.3,0.8,0.4c0.2,0,0.5,0.1,0.8,0.2c0.4,0.1,0.7,0.1,0.9,0.2c0.5,0.1,0.9,0.4,1.2,0.6S191,265.2,191,265.7z"/> 		<path d="M196.7,265.2h-3.8c0,0.3,0,0.6,0.1,0.9c0.1,0.3,0.2,0.5,0.4,0.6c0.2,0.2,0.4,0.3,0.6,0.4s0.5,0.1,0.7,0.1    c0.4,0,0.7-0.1,1.1-0.2c0.4-0.1,0.6-0.3,0.8-0.4h0v1c-0.3,0.1-0.6,0.2-0.9,0.3s-0.6,0.1-1,0.1c-0.9,0-1.5-0.2-2-0.7    c-0.5-0.5-0.7-1.2-0.7-2.1c0-0.9,0.2-1.6,0.7-2.1c0.5-0.5,1.1-0.8,1.8-0.8c0.7,0,1.2,0.2,1.6,0.6c0.4,0.4,0.6,1,0.6,1.8V265.2z     M195.8,264.5c0-0.5-0.1-0.9-0.3-1.1s-0.6-0.4-1-0.4c-0.5,0-0.8,0.1-1.1,0.4s-0.4,0.6-0.5,1.1H195.8z"/> 		<path d="M202.2,267.2c0,0.9-0.2,1.6-0.6,2c-0.4,0.4-1,0.6-1.8,0.6c-0.3,0-0.5,0-0.8-0.1c-0.3,0-0.5-0.1-0.8-0.2v-0.9h0    c0.1,0.1,0.4,0.1,0.7,0.2c0.3,0.1,0.6,0.1,0.9,0.1c0.3,0,0.5,0,0.7-0.1s0.3-0.2,0.5-0.3c0.1-0.1,0.2-0.3,0.2-0.5    c0-0.2,0.1-0.4,0.1-0.6v-0.5c-0.3,0.2-0.5,0.4-0.8,0.5c-0.2,0.1-0.5,0.2-0.9,0.2c-0.6,0-1.1-0.2-1.5-0.7c-0.4-0.5-0.5-1.1-0.5-2    c0-0.5,0.1-0.9,0.2-1.2c0.1-0.3,0.3-0.6,0.5-0.9c0.2-0.2,0.4-0.4,0.7-0.5c0.3-0.1,0.6-0.2,0.9-0.2c0.3,0,0.5,0,0.8,0.1    c0.2,0.1,0.4,0.2,0.6,0.3l0.1-0.2h0.8V267.2z M201.3,266.3v-3c-0.2-0.1-0.4-0.2-0.6-0.2c-0.2,0-0.4-0.1-0.6-0.1    c-0.5,0-0.9,0.2-1.1,0.5s-0.4,0.8-0.4,1.5c0,0.6,0.1,1.1,0.3,1.4s0.5,0.5,1,0.5c0.3,0,0.5-0.1,0.8-0.2    C200.9,266.6,201.1,266.5,201.3,266.3z"/> 		<path d="M207.1,263.3L207.1,263.3c-0.2,0-0.3-0.1-0.4-0.1c-0.1,0-0.3,0-0.4,0c-0.3,0-0.5,0.1-0.8,0.2c-0.2,0.1-0.5,0.3-0.7,0.5    v3.9h-0.9v-5.5h0.9v0.8c0.3-0.3,0.6-0.5,0.9-0.6c0.3-0.1,0.5-0.2,0.8-0.2c0.2,0,0.3,0,0.3,0c0.1,0,0.2,0,0.3,0V263.3z"/> 		<path d="M212.2,265.2h-3.8c0,0.3,0,0.6,0.1,0.9c0.1,0.3,0.2,0.5,0.4,0.6c0.2,0.2,0.3,0.3,0.6,0.4c0.2,0.1,0.5,0.1,0.7,0.1    c0.4,0,0.7-0.1,1.1-0.2c0.4-0.1,0.6-0.3,0.8-0.4h0v1c-0.3,0.1-0.6,0.2-0.9,0.3s-0.6,0.1-1,0.1c-0.9,0-1.5-0.2-2-0.7    c-0.5-0.5-0.7-1.2-0.7-2.1c0-0.9,0.2-1.6,0.7-2.1c0.5-0.5,1.1-0.8,1.8-0.8c0.7,0,1.2,0.2,1.6,0.6c0.4,0.4,0.6,1,0.6,1.8V265.2z     M211.4,264.5c0-0.5-0.1-0.9-0.3-1.1s-0.6-0.4-1-0.4c-0.5,0-0.8,0.1-1.1,0.4s-0.4,0.6-0.5,1.1H211.4z"/> 	</g> </g> <g id="text_x005F_exterior"> 	<g> 		<rect x="20.8" y="400.7" style="fill-rule:evenodd;clip-rule:evenodd;fill:none;" width="61.6" height="11"/> 		<path d="M32.2,411.4h-6.1V410l3.6-4.5h-3.4v-1.4h5.7v1.4l-3.6,4.5h3.8V411.4z"/> 		<path d="M36.8,410.8c-0.1,0.1-0.2,0.2-0.4,0.3s-0.3,0.2-0.4,0.2c-0.2,0.1-0.4,0.1-0.5,0.2c-0.2,0-0.4,0.1-0.6,0.1    c-0.5,0-1-0.2-1.3-0.5s-0.5-0.7-0.5-1.2c0-0.4,0.1-0.7,0.3-1s0.4-0.5,0.8-0.6c0.3-0.1,0.7-0.3,1.2-0.3s1-0.1,1.5-0.1v0    c0-0.3-0.1-0.5-0.4-0.6c-0.2-0.1-0.6-0.2-1.1-0.2c-0.3,0-0.6,0.1-0.9,0.2c-0.3,0.1-0.6,0.2-0.7,0.2h-0.2V406    c0.2,0,0.5-0.1,0.9-0.2c0.4-0.1,0.8-0.1,1.3-0.1c1,0,1.7,0.2,2.2,0.5c0.4,0.3,0.7,0.8,0.7,1.4v3.7h-1.7V410.8z M36.8,409.9v-1.1    c-0.2,0-0.5,0-0.8,0.1s-0.5,0.1-0.6,0.1c-0.2,0.1-0.3,0.1-0.4,0.2s-0.1,0.2-0.1,0.4c0,0.1,0,0.2,0,0.3s0.1,0.1,0.1,0.2    c0.1,0.1,0.2,0.1,0.3,0.1c0.1,0,0.3,0,0.5,0c0.2,0,0.4,0,0.5-0.1C36.5,410.1,36.6,410.1,36.8,409.9z"/> 		<path d="M44.1,407.6h-0.2c-0.1,0-0.2,0-0.4-0.1c-0.2,0-0.3,0-0.4,0c-0.3,0-0.5,0-0.7,0c-0.2,0-0.4,0.1-0.6,0.2v3.7h-1.8v-5.5h1.8    v0.8c0.4-0.3,0.7-0.6,1-0.7c0.3-0.1,0.5-0.2,0.8-0.2c0.1,0,0.1,0,0.2,0s0.1,0,0.2,0V407.6z"/> 		<path d="M48.4,410.8c-0.1,0.1-0.2,0.2-0.4,0.3s-0.3,0.2-0.4,0.2c-0.2,0.1-0.4,0.1-0.5,0.2c-0.2,0-0.4,0.1-0.6,0.1    c-0.5,0-1-0.2-1.3-0.5s-0.5-0.7-0.5-1.2c0-0.4,0.1-0.7,0.3-1s0.4-0.5,0.8-0.6c0.3-0.1,0.7-0.3,1.2-0.3s1-0.1,1.5-0.1v0    c0-0.3-0.1-0.5-0.4-0.6c-0.2-0.1-0.6-0.2-1.1-0.2c-0.3,0-0.6,0.1-0.9,0.2c-0.3,0.1-0.6,0.2-0.7,0.2h-0.2V406    c0.2,0,0.5-0.1,0.9-0.2c0.4-0.1,0.8-0.1,1.3-0.1c1,0,1.7,0.2,2.2,0.5c0.4,0.3,0.7,0.8,0.7,1.4v3.7h-1.7V410.8z M48.4,409.9v-1.1    c-0.2,0-0.5,0-0.8,0.1S47.2,409,47,409c-0.2,0.1-0.3,0.1-0.4,0.2s-0.1,0.2-0.1,0.4c0,0.1,0,0.2,0,0.3s0.1,0.1,0.1,0.2    c0.1,0.1,0.2,0.1,0.3,0.1c0.1,0,0.3,0,0.5,0c0.2,0,0.4,0,0.5-0.1C48.1,410.1,48.3,410.1,48.4,409.9z"/> 		<path d="M57.1,410.7c0,0.5-0.1,0.9-0.2,1.3s-0.4,0.6-0.6,0.8c-0.3,0.2-0.6,0.3-1,0.4c-0.4,0.1-0.8,0.1-1.3,0.1    c-0.4,0-0.8,0-1.1-0.1s-0.7-0.1-1-0.2v-1.4h0.2c0.2,0.1,0.5,0.2,0.8,0.2c0.3,0.1,0.6,0.1,0.8,0.1c0.3,0,0.6,0,0.8-0.1    c0.2-0.1,0.4-0.1,0.5-0.3c0.1-0.1,0.2-0.2,0.2-0.4s0.1-0.4,0.1-0.6v-0.1c-0.2,0.2-0.4,0.3-0.7,0.4s-0.5,0.2-0.9,0.2    c-0.8,0-1.4-0.2-1.8-0.7c-0.4-0.5-0.6-1.2-0.6-2.1c0-0.5,0.1-0.8,0.2-1.2c0.1-0.3,0.3-0.6,0.5-0.9c0.2-0.2,0.5-0.4,0.8-0.5    c0.3-0.1,0.6-0.2,1-0.2c0.3,0,0.6,0,0.8,0.1c0.2,0.1,0.5,0.2,0.7,0.3l0.1-0.2h1.7V410.7z M55.4,409.6v-2.5c-0.1,0-0.2-0.1-0.4-0.1    c-0.1,0-0.3,0-0.4,0c-0.5,0-0.8,0.1-1,0.4c-0.2,0.3-0.3,0.6-0.3,1.1c0,0.5,0.1,0.9,0.3,1.1c0.2,0.2,0.5,0.3,0.9,0.3    c0.2,0,0.3,0,0.5-0.1S55.2,409.7,55.4,409.6z"/> 		<path d="M64.4,408.6c0,0.9-0.3,1.6-0.8,2.1c-0.5,0.5-1.3,0.8-2.2,0.8s-1.7-0.3-2.2-0.8c-0.5-0.5-0.8-1.2-0.8-2.1    c0-0.9,0.3-1.6,0.8-2.1s1.3-0.8,2.2-0.8c1,0,1.7,0.3,2.2,0.8S64.4,407.7,64.4,408.6z M62.2,410c0.1-0.1,0.2-0.3,0.3-0.5    c0.1-0.2,0.1-0.5,0.1-0.8c0-0.3,0-0.6-0.1-0.8s-0.1-0.4-0.2-0.5c-0.1-0.1-0.2-0.2-0.4-0.3s-0.3-0.1-0.5-0.1s-0.3,0-0.5,0.1    s-0.3,0.1-0.4,0.3c-0.1,0.1-0.2,0.3-0.3,0.5s-0.1,0.5-0.1,0.8c0,0.3,0,0.6,0.1,0.8c0.1,0.2,0.1,0.4,0.2,0.5    c0.1,0.1,0.2,0.2,0.4,0.3s0.3,0.1,0.5,0.1c0.2,0,0.3,0,0.5-0.1C62,410.2,62.1,410.1,62.2,410z"/> 		<path d="M70.4,411.4h-5.2v-1.1l2.9-3.1h-2.8v-1.3h5v1.1l-2.8,3.1h2.9V411.4z"/> 		<path d="M74.9,410.8c-0.1,0.1-0.2,0.2-0.4,0.3s-0.3,0.2-0.4,0.2c-0.2,0.1-0.4,0.1-0.5,0.2c-0.2,0-0.4,0.1-0.6,0.1    c-0.5,0-1-0.2-1.3-0.5s-0.5-0.7-0.5-1.2c0-0.4,0.1-0.7,0.3-1s0.4-0.5,0.8-0.6c0.3-0.1,0.7-0.3,1.2-0.3s1-0.1,1.5-0.1v0    c0-0.3-0.1-0.5-0.4-0.6c-0.2-0.1-0.6-0.2-1.1-0.2c-0.3,0-0.6,0.1-0.9,0.2c-0.3,0.1-0.6,0.2-0.7,0.2h-0.2V406    c0.2,0,0.5-0.1,0.9-0.2c0.4-0.1,0.8-0.1,1.3-0.1c1,0,1.7,0.2,2.2,0.5c0.4,0.3,0.7,0.8,0.7,1.4v3.7h-1.7V410.8z M74.9,409.9v-1.1    c-0.2,0-0.5,0-0.8,0.1s-0.5,0.1-0.6,0.1c-0.2,0.1-0.3,0.1-0.4,0.2s-0.1,0.2-0.1,0.4c0,0.1,0,0.2,0,0.3s0.1,0.1,0.1,0.2    c0.1,0.1,0.2,0.1,0.3,0.1c0.1,0,0.3,0,0.5,0c0.2,0,0.4,0,0.5-0.1C74.6,410.1,74.8,410.1,74.9,409.9z"/> 	</g> 	<g> 		<rect x="37.4" y="102.6" style="fill-rule:evenodd;clip-rule:evenodd;fill:none;" width="45.5" height="11"/> 		<path d="M47.3,113.3h-1.9v-3.2h-2.8v3.2h-1.9V106h1.9v2.7h2.8V106h1.9V113.3z"/> 		<path d="M54.5,113.3h-1.8v-0.6c-0.3,0.2-0.6,0.4-0.9,0.6c-0.3,0.1-0.6,0.2-1,0.2c-0.6,0-1.1-0.2-1.4-0.5s-0.5-0.9-0.5-1.5v-3.6    h1.8v2.7c0,0.3,0,0.5,0,0.7s0.1,0.3,0.1,0.5c0.1,0.1,0.2,0.2,0.3,0.3s0.3,0.1,0.5,0.1c0.1,0,0.3,0,0.5-0.1s0.4-0.1,0.5-0.2v-3.9    h1.8V113.3z"/> 		<path d="M61.6,110.9h-4c0,0.4,0.2,0.8,0.5,1s0.7,0.3,1.3,0.3c0.4,0,0.7-0.1,1.1-0.2s0.6-0.3,0.8-0.4h0.2v1.4    c-0.4,0.2-0.8,0.3-1.1,0.3s-0.7,0.1-1.2,0.1c-1.1,0-1.9-0.2-2.5-0.7s-0.9-1.2-0.9-2.1c0-0.9,0.3-1.6,0.8-2.2s1.3-0.8,2.3-0.8    c0.9,0,1.6,0.2,2,0.7s0.7,1.1,0.7,1.9V110.9z M59.8,109.9c0-0.4-0.1-0.6-0.3-0.8s-0.4-0.3-0.8-0.3c-0.3,0-0.6,0.1-0.8,0.3    s-0.3,0.5-0.4,0.8H59.8z"/> 		<path d="M67.6,111.6c0,0.6-0.3,1-0.8,1.4s-1.2,0.5-2.1,0.5c-0.5,0-0.9,0-1.3-0.1s-0.7-0.2-1-0.3v-1.4h0.2c0.1,0.1,0.2,0.1,0.3,0.2    s0.3,0.2,0.5,0.2c0.2,0.1,0.4,0.1,0.6,0.2s0.5,0.1,0.7,0.1c0.3,0,0.6,0,0.8-0.1s0.2-0.2,0.2-0.3c0-0.1,0-0.2-0.1-0.3    s-0.3-0.1-0.6-0.2c-0.1,0-0.3-0.1-0.5-0.1s-0.4-0.1-0.6-0.1c-0.5-0.1-0.9-0.3-1.1-0.6s-0.4-0.6-0.4-1c0-0.5,0.3-1,0.7-1.3    s1.2-0.5,2-0.5c0.4,0,0.8,0,1.2,0.1s0.7,0.2,0.9,0.3v1.4h-0.2c-0.3-0.2-0.6-0.3-0.9-0.4s-0.7-0.2-1-0.2c-0.3,0-0.5,0-0.7,0.1    s-0.3,0.2-0.3,0.3c0,0.1,0,0.2,0.1,0.3s0.3,0.1,0.6,0.2c0.2,0,0.4,0.1,0.6,0.1s0.4,0.1,0.6,0.1c0.5,0.1,0.8,0.3,1,0.6    S67.6,111.2,67.6,111.6z"/> 		<path d="M71.6,113.5c-0.5,0-0.9-0.1-1.3-0.2s-0.7-0.3-1-0.5c-0.3-0.2-0.5-0.5-0.7-0.9s-0.2-0.8-0.2-1.3c0-0.5,0.1-1,0.3-1.3    s0.4-0.7,0.7-0.9c0.3-0.2,0.6-0.4,1-0.5s0.8-0.2,1.2-0.2c0.4,0,0.7,0,1,0.1s0.6,0.2,0.9,0.3v1.5h-0.2c-0.1-0.1-0.2-0.1-0.2-0.2    c-0.1-0.1-0.2-0.2-0.4-0.2c-0.1-0.1-0.3-0.1-0.4-0.2s-0.3-0.1-0.6-0.1c-0.5,0-0.8,0.1-1.1,0.4s-0.4,0.7-0.4,1.2    c0,0.5,0.1,0.9,0.4,1.2s0.6,0.4,1.1,0.4c0.2,0,0.4,0,0.6-0.1c0.2-0.1,0.3-0.1,0.4-0.2c0.1-0.1,0.2-0.1,0.3-0.2    c0.1-0.1,0.2-0.1,0.2-0.2h0.2v1.5c-0.3,0.1-0.6,0.2-0.9,0.3S72,113.5,71.6,113.5z"/> 		<path d="M77.9,112.7c-0.1,0.1-0.2,0.2-0.4,0.3s-0.3,0.2-0.4,0.2c-0.2,0.1-0.4,0.1-0.5,0.2s-0.4,0.1-0.6,0.1c-0.5,0-1-0.2-1.3-0.5    s-0.5-0.7-0.5-1.2c0-0.4,0.1-0.7,0.3-1s0.4-0.5,0.8-0.6c0.3-0.1,0.7-0.3,1.2-0.3s1-0.1,1.5-0.1v0c0-0.3-0.1-0.5-0.4-0.6    s-0.6-0.2-1.1-0.2c-0.3,0-0.6,0.1-0.9,0.2s-0.6,0.2-0.7,0.2h-0.2v-1.3c0.2,0,0.5-0.1,0.9-0.2s0.8-0.1,1.3-0.1c1,0,1.7,0.2,2.2,0.5    s0.7,0.8,0.7,1.4v3.7h-1.7V112.7z M77.9,111.9v-1.1c-0.2,0-0.5,0-0.8,0.1c-0.3,0-0.5,0.1-0.6,0.1c-0.2,0.1-0.3,0.1-0.4,0.2    s-0.1,0.2-0.1,0.4c0,0.1,0,0.2,0,0.3c0,0.1,0.1,0.1,0.1,0.2c0.1,0.1,0.2,0.1,0.3,0.1s0.3,0,0.5,0c0.2,0,0.4,0,0.5-0.1    S77.8,112,77.9,111.9z"/> 	</g> 	<g> 		<rect x="278.8" y="427.7" style="fill-rule:evenodd;clip-rule:evenodd;fill:none;" width="70.9" height="11"/> 		<path d="M291.9,432.6h-2.3v5.9h-1.9v-5.9h-2.3v-1.4h6.4V432.6z"/> 		<path d="M296.3,437.9c-0.1,0.1-0.2,0.2-0.4,0.3s-0.3,0.2-0.4,0.2c-0.2,0.1-0.4,0.1-0.5,0.2c-0.2,0-0.4,0.1-0.6,0.1    c-0.5,0-1-0.2-1.3-0.5s-0.5-0.7-0.5-1.2c0-0.4,0.1-0.7,0.3-1s0.4-0.5,0.8-0.6c0.3-0.1,0.7-0.3,1.2-0.3s1-0.1,1.5-0.1v0    c0-0.3-0.1-0.5-0.4-0.6c-0.2-0.1-0.6-0.2-1.1-0.2c-0.3,0-0.6,0.1-0.9,0.2c-0.3,0.1-0.6,0.2-0.7,0.2H293v-1.3    c0.2,0,0.5-0.1,0.9-0.2c0.4-0.1,0.8-0.1,1.3-0.1c1,0,1.7,0.2,2.2,0.5c0.4,0.3,0.7,0.8,0.7,1.4v3.7h-1.7V437.9z M296.3,437v-1.1    c-0.2,0-0.5,0-0.8,0.1s-0.5,0.1-0.6,0.1c-0.2,0.1-0.3,0.1-0.4,0.2c-0.1,0.1-0.1,0.2-0.1,0.4c0,0.1,0,0.2,0,0.3s0.1,0.1,0.1,0.2    c0.1,0.1,0.2,0.1,0.3,0.1c0.1,0,0.3,0,0.5,0c0.2,0,0.4,0,0.5-0.1C296,437.2,296.2,437.1,296.3,437z"/> 		<path d="M303.6,434.6h-0.2c-0.1,0-0.2,0-0.4-0.1s-0.3,0-0.4,0c-0.3,0-0.5,0-0.7,0c-0.2,0-0.4,0.1-0.6,0.2v3.7h-1.8V433h1.8v0.8    c0.4-0.3,0.7-0.6,1-0.7c0.3-0.1,0.5-0.2,0.8-0.2c0.1,0,0.1,0,0.2,0c0.1,0,0.1,0,0.2,0V434.6z"/> 		<path d="M308.6,434.6h-0.2c-0.1,0-0.2,0-0.4-0.1s-0.3,0-0.4,0c-0.3,0-0.5,0-0.7,0c-0.2,0-0.4,0.1-0.6,0.2v3.7h-1.8V433h1.8v0.8    c0.4-0.3,0.7-0.6,1-0.7c0.3-0.1,0.5-0.2,0.8-0.2c0.1,0,0.1,0,0.2,0c0.1,0,0.1,0,0.2,0V434.6z"/> 		<path d="M312.9,437.9c-0.1,0.1-0.2,0.2-0.4,0.3s-0.3,0.2-0.4,0.2c-0.2,0.1-0.4,0.1-0.5,0.2c-0.2,0-0.4,0.1-0.6,0.1    c-0.5,0-1-0.2-1.3-0.5s-0.5-0.7-0.5-1.2c0-0.4,0.1-0.7,0.3-1s0.4-0.5,0.8-0.6c0.3-0.1,0.7-0.3,1.2-0.3s1-0.1,1.5-0.1v0    c0-0.3-0.1-0.5-0.4-0.6c-0.2-0.1-0.6-0.2-1.1-0.2c-0.3,0-0.6,0.1-0.9,0.2c-0.3,0.1-0.6,0.2-0.7,0.2h-0.2v-1.3    c0.2,0,0.5-0.1,0.9-0.2c0.4-0.1,0.8-0.1,1.3-0.1c1,0,1.7,0.2,2.2,0.5c0.4,0.3,0.7,0.8,0.7,1.4v3.7h-1.7V437.9z M312.9,437v-1.1    c-0.2,0-0.5,0-0.8,0.1s-0.5,0.1-0.6,0.1c-0.2,0.1-0.3,0.1-0.4,0.2c-0.1,0.1-0.1,0.2-0.1,0.4c0,0.1,0,0.2,0,0.3s0.1,0.1,0.1,0.2    c0.1,0.1,0.2,0.1,0.3,0.1c0.1,0,0.3,0,0.5,0c0.2,0,0.4,0,0.5-0.1C312.6,437.2,312.8,437.1,312.9,437z"/> 		<path d="M321.6,437.8c0,0.5-0.1,0.9-0.2,1.3s-0.4,0.6-0.6,0.8c-0.3,0.2-0.6,0.3-1,0.4c-0.4,0.1-0.8,0.1-1.3,0.1    c-0.4,0-0.8,0-1.1-0.1c-0.4,0-0.7-0.1-1-0.2v-1.4h0.2c0.2,0.1,0.5,0.2,0.8,0.2c0.3,0.1,0.6,0.1,0.8,0.1c0.3,0,0.6,0,0.8-0.1    c0.2-0.1,0.4-0.1,0.5-0.3c0.1-0.1,0.2-0.2,0.2-0.4c0-0.2,0.1-0.4,0.1-0.6v-0.1c-0.2,0.2-0.4,0.3-0.7,0.4s-0.5,0.2-0.9,0.2    c-0.8,0-1.4-0.2-1.8-0.7s-0.6-1.2-0.6-2.1c0-0.5,0.1-0.8,0.2-1.2s0.3-0.6,0.5-0.9c0.2-0.2,0.5-0.4,0.8-0.5c0.3-0.1,0.6-0.2,1-0.2    c0.3,0,0.6,0,0.8,0.1c0.2,0.1,0.5,0.2,0.7,0.3l0.1-0.2h1.7V437.8z M319.8,436.7v-2.5c-0.1,0-0.2-0.1-0.4-0.1c-0.1,0-0.3,0-0.4,0    c-0.5,0-0.8,0.1-1,0.4c-0.2,0.3-0.3,0.6-0.3,1.1c0,0.5,0.1,0.9,0.3,1.1s0.5,0.3,0.9,0.3c0.2,0,0.3,0,0.5-0.1    S319.7,436.8,319.8,436.7z"/> 		<path d="M328.9,435.7c0,0.9-0.3,1.6-0.8,2.1c-0.5,0.5-1.3,0.8-2.2,0.8s-1.7-0.3-2.2-0.8c-0.5-0.5-0.8-1.2-0.8-2.1    c0-0.9,0.3-1.6,0.8-2.1c0.5-0.5,1.3-0.8,2.2-0.8c1,0,1.7,0.3,2.2,0.8C328.6,434.1,328.9,434.8,328.9,435.7z M326.7,437    c0.1-0.1,0.2-0.3,0.3-0.5c0.1-0.2,0.1-0.5,0.1-0.8c0-0.3,0-0.6-0.1-0.8s-0.1-0.4-0.2-0.5c-0.1-0.1-0.2-0.2-0.4-0.3    s-0.3-0.1-0.5-0.1s-0.3,0-0.5,0.1c-0.1,0-0.3,0.1-0.4,0.3c-0.1,0.1-0.2,0.3-0.3,0.5c-0.1,0.2-0.1,0.5-0.1,0.8c0,0.3,0,0.6,0.1,0.8    c0.1,0.2,0.1,0.4,0.2,0.5c0.1,0.1,0.2,0.2,0.4,0.3c0.1,0.1,0.3,0.1,0.5,0.1c0.2,0,0.3,0,0.5-0.1    C326.5,437.2,326.6,437.2,326.7,437z"/> 		<path d="M335.6,438.4h-1.8v-2.7c0-0.2,0-0.4,0-0.7c0-0.2-0.1-0.4-0.1-0.5c-0.1-0.1-0.2-0.2-0.3-0.3c-0.1-0.1-0.3-0.1-0.5-0.1    c-0.2,0-0.3,0-0.5,0.1c-0.2,0.1-0.3,0.1-0.5,0.2v3.9h-1.8V433h1.8v0.6c0.3-0.2,0.6-0.4,0.9-0.6c0.3-0.1,0.6-0.2,1-0.2    c0.6,0,1.1,0.2,1.4,0.5s0.5,0.9,0.5,1.5V438.4z"/> 		<path d="M340.6,437.9c-0.1,0.1-0.2,0.2-0.4,0.3s-0.3,0.2-0.4,0.2c-0.2,0.1-0.4,0.1-0.5,0.2c-0.2,0-0.4,0.1-0.6,0.1    c-0.5,0-1-0.2-1.3-0.5s-0.5-0.7-0.5-1.2c0-0.4,0.1-0.7,0.3-1s0.4-0.5,0.8-0.6c0.3-0.1,0.7-0.3,1.2-0.3s1-0.1,1.5-0.1v0    c0-0.3-0.1-0.5-0.4-0.6c-0.2-0.1-0.6-0.2-1.1-0.2c-0.3,0-0.6,0.1-0.9,0.2c-0.3,0.1-0.6,0.2-0.7,0.2h-0.2v-1.3    c0.2,0,0.5-0.1,0.9-0.2c0.4-0.1,0.8-0.1,1.3-0.1c1,0,1.7,0.2,2.2,0.5c0.4,0.3,0.7,0.8,0.7,1.4v3.7h-1.7V437.9z M340.6,437v-1.1    c-0.2,0-0.5,0-0.8,0.1s-0.5,0.1-0.6,0.1c-0.2,0.1-0.3,0.1-0.4,0.2c-0.1,0.1-0.1,0.2-0.1,0.4c0,0.1,0,0.2,0,0.3s0.1,0.1,0.1,0.2    c0.1,0.1,0.2,0.1,0.3,0.1c0.1,0,0.3,0,0.5,0c0.2,0,0.4,0,0.5-0.1C340.3,437.2,340.4,437.1,340.6,437z"/> 	</g> 	<g> 		<path d="M330.9,55.9H329l-3.1-5v5h-1.7v-7.3h2.2l2.7,4.2v-4.2h1.7V55.9z"/> 		<path d="M338.2,53.1c0,0.9-0.3,1.6-0.8,2.1c-0.5,0.5-1.3,0.8-2.2,0.8s-1.7-0.3-2.2-0.8c-0.5-0.5-0.8-1.2-0.8-2.1    c0-0.9,0.3-1.6,0.8-2.1c0.5-0.5,1.3-0.8,2.2-0.8c1,0,1.7,0.3,2.2,0.8S338.2,52.2,338.2,53.1z M336.1,54.4c0.1-0.1,0.2-0.3,0.3-0.5    c0.1-0.2,0.1-0.5,0.1-0.8c0-0.3,0-0.6-0.1-0.8s-0.1-0.4-0.2-0.5c-0.1-0.1-0.2-0.2-0.4-0.3s-0.3-0.1-0.5-0.1s-0.3,0-0.5,0.1    s-0.3,0.1-0.4,0.3c-0.1,0.1-0.2,0.3-0.3,0.5s-0.1,0.5-0.1,0.8c0,0.3,0,0.6,0.1,0.8c0.1,0.2,0.1,0.4,0.2,0.5    c0.1,0.1,0.2,0.2,0.4,0.3c0.1,0.1,0.3,0.1,0.5,0.1c0.2,0,0.3,0,0.5-0.1C335.8,54.7,336,54.6,336.1,54.4z"/> 		<path d="M344.8,55.2c0,0.5-0.1,0.9-0.2,1.3s-0.4,0.6-0.6,0.8c-0.3,0.2-0.6,0.3-1,0.4s-0.8,0.1-1.3,0.1c-0.4,0-0.8,0-1.1-0.1    c-0.4,0-0.7-0.1-1-0.2v-1.4h0.2c0.2,0.1,0.5,0.2,0.8,0.2s0.6,0.1,0.8,0.1c0.3,0,0.6,0,0.8-0.1s0.4-0.1,0.5-0.3    c0.1-0.1,0.2-0.2,0.2-0.4c0-0.2,0.1-0.4,0.1-0.6v-0.1c-0.2,0.2-0.4,0.3-0.7,0.4s-0.5,0.2-0.9,0.2c-0.8,0-1.4-0.2-1.8-0.7    s-0.6-1.2-0.6-2.1c0-0.5,0.1-0.8,0.2-1.2c0.1-0.3,0.3-0.6,0.5-0.9c0.2-0.2,0.5-0.4,0.8-0.5c0.3-0.1,0.6-0.2,1-0.2    c0.3,0,0.6,0,0.8,0.1c0.2,0.1,0.5,0.2,0.7,0.3l0.1-0.2h1.7V55.2z M343.1,54.1v-2.5c-0.1,0-0.2-0.1-0.4-0.1c-0.1,0-0.3,0-0.4,0    c-0.5,0-0.8,0.1-1,0.4c-0.2,0.3-0.3,0.6-0.3,1.1c0,0.5,0.1,0.9,0.3,1.1c0.2,0.2,0.5,0.3,0.9,0.3c0.2,0,0.3,0,0.5-0.1    S342.9,54.2,343.1,54.1z"/> 		<path d="M351.9,55.9h-1.8v-0.6c-0.3,0.2-0.6,0.4-0.9,0.6c-0.3,0.1-0.6,0.2-1,0.2c-0.6,0-1.1-0.2-1.4-0.5c-0.3-0.3-0.5-0.9-0.5-1.5    v-3.6h1.8v2.7c0,0.3,0,0.5,0,0.7c0,0.2,0.1,0.3,0.1,0.5c0.1,0.1,0.2,0.2,0.3,0.3s0.3,0.1,0.5,0.1c0.1,0,0.3,0,0.5-0.1    c0.2-0.1,0.4-0.1,0.5-0.2v-3.9h1.8V55.9z"/> 		<path d="M359,53.4h-4c0,0.4,0.2,0.8,0.5,1s0.7,0.3,1.3,0.3c0.4,0,0.7-0.1,1.1-0.2c0.3-0.1,0.6-0.3,0.8-0.4h0.2v1.4    c-0.4,0.2-0.8,0.3-1.1,0.3S357,56,356.6,56c-1.1,0-1.9-0.2-2.5-0.7s-0.9-1.2-0.9-2.1c0-0.9,0.3-1.6,0.8-2.2    c0.6-0.5,1.3-0.8,2.3-0.8c0.9,0,1.6,0.2,2,0.7c0.4,0.5,0.7,1.1,0.7,1.9V53.4z M357.2,52.4c0-0.4-0.1-0.6-0.3-0.8    c-0.2-0.2-0.4-0.3-0.8-0.3c-0.3,0-0.6,0.1-0.8,0.3c-0.2,0.2-0.3,0.5-0.4,0.8H357.2z"/> 		<path d="M364.2,52h-0.2c-0.1,0-0.2,0-0.4-0.1s-0.3,0-0.4,0c-0.3,0-0.5,0-0.7,0c-0.2,0-0.4,0.1-0.6,0.2v3.7h-1.8v-5.5h1.8v0.8    c0.4-0.3,0.7-0.6,1-0.7c0.3-0.1,0.5-0.2,0.8-0.2c0.1,0,0.1,0,0.2,0s0.1,0,0.2,0V52z"/> 		<path d="M368.5,55.3c-0.1,0.1-0.2,0.2-0.4,0.3s-0.3,0.2-0.4,0.2c-0.2,0.1-0.4,0.1-0.5,0.2s-0.4,0.1-0.6,0.1c-0.5,0-1-0.2-1.3-0.5    s-0.5-0.7-0.5-1.2c0-0.4,0.1-0.7,0.3-1s0.4-0.5,0.8-0.6c0.3-0.1,0.7-0.3,1.2-0.3s1-0.1,1.5-0.1v0c0-0.3-0.1-0.5-0.4-0.6    c-0.2-0.1-0.6-0.2-1.1-0.2c-0.3,0-0.6,0.1-0.9,0.2s-0.6,0.2-0.7,0.2h-0.2v-1.3c0.2,0,0.5-0.1,0.9-0.2c0.4-0.1,0.8-0.1,1.3-0.1    c1,0,1.7,0.2,2.2,0.5s0.7,0.8,0.7,1.4v3.7h-1.7V55.3z M368.5,54.4v-1.1c-0.2,0-0.5,0-0.8,0.1c-0.3,0-0.5,0.1-0.6,0.1    c-0.2,0.1-0.3,0.1-0.4,0.2s-0.1,0.2-0.1,0.4c0,0.1,0,0.2,0,0.3c0,0.1,0.1,0.1,0.1,0.2c0.1,0.1,0.2,0.1,0.3,0.1c0.1,0,0.3,0,0.5,0    c0.2,0,0.4,0,0.5-0.1S368.4,54.5,368.5,54.4z"/> 	</g> 	<g> 		<path d="M370.5,157.8c0,0.3-0.1,0.6-0.2,1s-0.3,0.6-0.5,0.8c-0.3,0.3-0.6,0.5-1,0.6s-0.8,0.2-1.3,0.2h-1.2v2.4h-1.9v-7.3h3.1    c0.5,0,0.9,0,1.2,0.1s0.6,0.2,0.8,0.4c0.3,0.2,0.5,0.4,0.7,0.7C370.5,157,370.5,157.4,370.5,157.8z M368.6,157.9    c0-0.2-0.1-0.4-0.2-0.5c-0.1-0.1-0.2-0.3-0.4-0.3c-0.2-0.1-0.4-0.1-0.6-0.1c-0.2,0-0.4,0-0.7,0h-0.3v2.2h0.5c0.3,0,0.6,0,0.8-0.1    c0.2,0,0.4-0.1,0.5-0.2c0.1-0.1,0.2-0.2,0.3-0.4S368.6,158.1,368.6,157.9z"/> 		<path d="M373.5,162.8h-1.8v-7.6h1.8V162.8z"/> 		<path d="M378.5,162.2c-0.1,0.1-0.2,0.2-0.4,0.3c-0.1,0.1-0.3,0.2-0.4,0.2c-0.2,0.1-0.4,0.1-0.5,0.2c-0.2,0-0.4,0.1-0.6,0.1    c-0.5,0-1-0.2-1.3-0.5s-0.5-0.7-0.5-1.2c0-0.4,0.1-0.7,0.3-1s0.4-0.5,0.8-0.6c0.3-0.1,0.7-0.3,1.2-0.3c0.5-0.1,1-0.1,1.5-0.1v0    c0-0.3-0.1-0.5-0.4-0.6s-0.6-0.2-1.1-0.2c-0.3,0-0.6,0.1-0.9,0.2s-0.6,0.2-0.7,0.2h-0.2v-1.3c0.2,0,0.5-0.1,0.9-0.2    c0.4-0.1,0.8-0.1,1.3-0.1c1,0,1.7,0.2,2.2,0.5s0.7,0.8,0.7,1.4v3.7h-1.7V162.2z M378.5,161.4v-1.1c-0.2,0-0.5,0-0.8,0.1    c-0.3,0-0.5,0.1-0.6,0.1c-0.2,0.1-0.3,0.1-0.4,0.2s-0.1,0.2-0.1,0.4c0,0.1,0,0.2,0,0.3c0,0.1,0.1,0.1,0.1,0.2    c0.1,0.1,0.2,0.1,0.3,0.1s0.3,0,0.5,0c0.2,0,0.4,0,0.5-0.1C378.2,161.6,378.4,161.5,378.5,161.4z"/> 		<path d="M390.6,162.8h-1.8v-0.6c-0.3,0.2-0.6,0.4-0.8,0.5c-0.3,0.1-0.6,0.2-0.9,0.2c-0.7,0-1.2-0.3-1.6-0.8    c-0.4-0.5-0.6-1.2-0.6-2.1c0-0.5,0.1-0.9,0.2-1.2c0.1-0.4,0.3-0.7,0.6-0.9c0.2-0.2,0.5-0.4,0.8-0.6s0.6-0.2,0.9-0.2    c0.3,0,0.6,0,0.8,0.1c0.2,0.1,0.4,0.2,0.6,0.3v-2.3h1.8V162.8z M388.8,161.3v-2.7c-0.1-0.1-0.3-0.1-0.4-0.1c-0.1,0-0.3,0-0.4,0    c-0.5,0-0.8,0.1-1,0.4s-0.3,0.7-0.3,1.2c0,0.5,0.1,0.9,0.3,1.2c0.2,0.2,0.5,0.4,0.9,0.4c0.2,0,0.3,0,0.5-0.1    C388.6,161.5,388.7,161.4,388.8,161.3z"/> 		<path d="M393.9,155.2l-0.3,2.9h-1.1l-0.3-2.9H393.9z"/> 		<path d="M402.1,160.2c0,0.9-0.3,1.6-0.8,2.1s-1.4,0.7-2.4,0.7s-1.9-0.2-2.4-0.7c-0.5-0.5-0.8-1.2-0.8-2.1v-4.6h1.9v4.5    c0,0.5,0.1,0.9,0.3,1.1c0.2,0.2,0.6,0.4,1,0.4c0.5,0,0.8-0.1,1-0.4c0.2-0.2,0.3-0.6,0.3-1.1v-4.5h1.9V160.2z"/> 		<path d="M407.7,159h-0.2c-0.1,0-0.2,0-0.4-0.1c-0.2,0-0.3,0-0.4,0c-0.3,0-0.5,0-0.7,0c-0.2,0-0.4,0.1-0.6,0.2v3.7h-1.8v-5.5h1.8    v0.8c0.4-0.3,0.7-0.6,1-0.7c0.3-0.1,0.5-0.2,0.8-0.2c0.1,0,0.1,0,0.2,0c0.1,0,0.1,0,0.2,0V159z"/> 		<path d="M414,162.2c0,0.5-0.1,0.9-0.2,1.3s-0.4,0.6-0.6,0.8c-0.3,0.2-0.6,0.3-1,0.4c-0.4,0.1-0.8,0.1-1.3,0.1    c-0.4,0-0.8,0-1.1-0.1c-0.4,0-0.7-0.1-1-0.2v-1.4h0.2c0.2,0.1,0.5,0.2,0.8,0.2c0.3,0.1,0.6,0.1,0.8,0.1c0.3,0,0.6,0,0.8-0.1    c0.2-0.1,0.4-0.1,0.5-0.3c0.1-0.1,0.2-0.2,0.2-0.4c0-0.2,0.1-0.4,0.1-0.6v-0.1c-0.2,0.2-0.4,0.3-0.7,0.4c-0.3,0.1-0.5,0.2-0.9,0.2    c-0.8,0-1.4-0.2-1.8-0.7c-0.4-0.5-0.6-1.2-0.6-2.1c0-0.5,0.1-0.8,0.2-1.2c0.1-0.3,0.3-0.6,0.5-0.9c0.2-0.2,0.5-0.4,0.8-0.5    c0.3-0.1,0.6-0.2,1-0.2c0.3,0,0.6,0,0.8,0.1s0.5,0.2,0.7,0.3l0.1-0.2h1.7V162.2z M412.2,161.1v-2.5c-0.1,0-0.2-0.1-0.4-0.1    c-0.1,0-0.3,0-0.4,0c-0.5,0-0.8,0.1-1,0.4s-0.3,0.6-0.3,1.1c0,0.5,0.1,0.9,0.3,1.1c0.2,0.2,0.5,0.3,0.9,0.3c0.2,0,0.3,0,0.5-0.1    C412,161.2,412.1,161.2,412.2,161.1z"/> 		<path d="M421.1,160.4h-4c0,0.4,0.2,0.8,0.5,1c0.3,0.2,0.7,0.3,1.3,0.3c0.4,0,0.7-0.1,1.1-0.2c0.3-0.1,0.6-0.3,0.8-0.4h0.2v1.4    c-0.4,0.2-0.8,0.3-1.1,0.3c-0.4,0.1-0.7,0.1-1.2,0.1c-1.1,0-1.9-0.2-2.5-0.7c-0.6-0.5-0.9-1.2-0.9-2.1c0-0.9,0.3-1.6,0.8-2.2    s1.3-0.8,2.3-0.8c0.9,0,1.6,0.2,2,0.7s0.7,1.1,0.7,1.9V160.4z M419.3,159.3c0-0.4-0.1-0.6-0.3-0.8c-0.2-0.2-0.4-0.3-0.8-0.3    c-0.3,0-0.6,0.1-0.8,0.3c-0.2,0.2-0.3,0.5-0.4,0.8H419.3z"/> 		<path d="M424.1,162.8h-1.8v-7.6h1.8V162.8z"/> 		<path d="M427.5,162.8h-1.8v-7.6h1.8V162.8z"/> 	</g> 	<g> 		<path d="M351.7,310.9c-0.3,0.1-0.8,0.3-1.3,0.4c-0.5,0.1-1.1,0.2-1.6,0.2c-1.2,0-2.2-0.3-2.9-1c-0.7-0.7-1-1.6-1-2.8    c0-1.1,0.4-2,1.1-2.7c0.7-0.7,1.7-1,3-1c0.5,0,0.9,0,1.4,0.1c0.4,0.1,0.9,0.3,1.4,0.5v1.7h-0.2c-0.1-0.1-0.2-0.2-0.4-0.3    c-0.2-0.1-0.3-0.2-0.5-0.3c-0.2-0.1-0.4-0.2-0.7-0.3c-0.3-0.1-0.5-0.1-0.8-0.1c-0.3,0-0.6,0-0.9,0.1s-0.5,0.2-0.7,0.4    c-0.2,0.2-0.4,0.4-0.5,0.7c-0.1,0.3-0.2,0.6-0.2,1c0,0.8,0.2,1.4,0.6,1.8s1.1,0.6,1.9,0.6c0.1,0,0.2,0,0.2,0c0.1,0,0.2,0,0.2,0    v-1.4h-1.5v-1.4h3.4V310.9z"/> 		<path d="M356.6,310.7c-0.1,0.1-0.2,0.2-0.4,0.3c-0.1,0.1-0.3,0.2-0.4,0.2c-0.2,0.1-0.4,0.1-0.5,0.2c-0.2,0-0.4,0.1-0.6,0.1    c-0.5,0-1-0.2-1.3-0.5s-0.5-0.7-0.5-1.2c0-0.4,0.1-0.7,0.3-1c0.2-0.3,0.4-0.5,0.8-0.6c0.3-0.1,0.7-0.3,1.2-0.3    c0.5-0.1,1-0.1,1.5-0.1v0c0-0.3-0.1-0.5-0.4-0.6c-0.2-0.1-0.6-0.2-1.1-0.2c-0.3,0-0.6,0.1-0.9,0.2c-0.3,0.1-0.6,0.2-0.7,0.2h-0.2    v-1.3c0.2,0,0.5-0.1,0.9-0.2c0.4-0.1,0.8-0.1,1.3-0.1c1,0,1.7,0.2,2.2,0.5c0.4,0.3,0.7,0.8,0.7,1.4v3.7h-1.7V310.7z M356.6,309.8    v-1.1c-0.2,0-0.5,0-0.8,0.1c-0.3,0-0.5,0.1-0.6,0.1c-0.2,0.1-0.3,0.1-0.4,0.2s-0.1,0.2-0.1,0.4c0,0.1,0,0.2,0,0.3s0.1,0.1,0.1,0.2    c0.1,0.1,0.2,0.1,0.3,0.1c0.1,0,0.3,0,0.5,0c0.2,0,0.4,0,0.5-0.1C356.3,310.1,356.5,310,356.6,309.8z"/> 		<path d="M364,307.5h-0.2c-0.1,0-0.2,0-0.4-0.1c-0.2,0-0.3,0-0.4,0c-0.3,0-0.5,0-0.7,0c-0.2,0-0.4,0.1-0.6,0.2v3.7H360v-5.5h1.8    v0.8c0.4-0.3,0.7-0.6,1-0.7c0.3-0.1,0.5-0.2,0.8-0.2c0.1,0,0.1,0,0.2,0c0.1,0,0.1,0,0.2,0V307.5z"/> 		<path d="M368.9,307.5h-0.2c-0.1,0-0.2,0-0.4-0.1c-0.2,0-0.3,0-0.4,0c-0.3,0-0.5,0-0.7,0s-0.4,0.1-0.6,0.2v3.7H365v-5.5h1.8v0.8    c0.4-0.3,0.7-0.6,1-0.7c0.3-0.1,0.5-0.2,0.8-0.2c0.1,0,0.1,0,0.2,0s0.1,0,0.2,0V307.5z"/> 		<path d="M371.7,305h-1.9v-1.3h1.9V305z M371.7,311.3h-1.8v-5.5h1.8V311.3z"/> 		<path d="M378.7,310.7c0,0.5-0.1,0.9-0.2,1.3s-0.4,0.6-0.6,0.8c-0.3,0.2-0.6,0.3-1,0.4c-0.4,0.1-0.8,0.1-1.3,0.1    c-0.4,0-0.8,0-1.1-0.1s-0.7-0.1-1-0.2v-1.4h0.2c0.2,0.1,0.5,0.2,0.8,0.2c0.3,0.1,0.6,0.1,0.8,0.1c0.3,0,0.6,0,0.8-0.1    c0.2-0.1,0.4-0.1,0.5-0.3c0.1-0.1,0.2-0.2,0.2-0.4c0-0.2,0.1-0.4,0.1-0.6v-0.1c-0.2,0.2-0.4,0.3-0.7,0.4s-0.5,0.2-0.9,0.2    c-0.8,0-1.4-0.2-1.8-0.7s-0.6-1.2-0.6-2.1c0-0.5,0.1-0.8,0.2-1.2s0.3-0.6,0.5-0.9c0.2-0.2,0.5-0.4,0.8-0.5s0.6-0.2,1-0.2    c0.3,0,0.6,0,0.8,0.1c0.2,0.1,0.5,0.2,0.7,0.3l0.1-0.2h1.7V310.7z M376.9,309.6v-2.5c-0.1,0-0.2-0.1-0.4-0.1c-0.1,0-0.3,0-0.4,0    c-0.5,0-0.8,0.1-1,0.4c-0.2,0.3-0.3,0.6-0.3,1.1c0,0.5,0.1,0.9,0.3,1.1s0.5,0.3,0.9,0.3c0.2,0,0.3,0,0.5-0.1    C376.6,309.7,376.8,309.6,376.9,309.6z"/> 		<path d="M385.8,311.3H384v-0.6c-0.3,0.2-0.6,0.4-0.9,0.6c-0.3,0.1-0.6,0.2-1,0.2c-0.6,0-1.1-0.2-1.4-0.5c-0.3-0.3-0.5-0.9-0.5-1.5    v-3.6h1.8v2.7c0,0.3,0,0.5,0,0.7c0,0.2,0.1,0.3,0.1,0.5c0.1,0.1,0.2,0.2,0.3,0.3c0.1,0.1,0.3,0.1,0.5,0.1c0.2,0,0.3,0,0.5-0.1    c0.2-0.1,0.4-0.1,0.5-0.2v-3.9h1.8V311.3z"/> 		<path d="M392.9,308.9h-4c0,0.4,0.2,0.8,0.5,1c0.3,0.2,0.7,0.3,1.3,0.3c0.4,0,0.7-0.1,1.1-0.2s0.6-0.3,0.8-0.4h0.2v1.4    c-0.4,0.2-0.8,0.3-1.1,0.3s-0.7,0.1-1.2,0.1c-1.1,0-1.9-0.2-2.5-0.7s-0.9-1.2-0.9-2.1c0-0.9,0.3-1.6,0.8-2.2    c0.6-0.5,1.3-0.8,2.3-0.8c0.9,0,1.6,0.2,2,0.7c0.4,0.5,0.7,1.1,0.7,1.9V308.9z M391.1,307.8c0-0.4-0.1-0.6-0.3-0.8    s-0.4-0.3-0.8-0.3c-0.3,0-0.6,0.1-0.8,0.3s-0.3,0.5-0.4,0.8H391.1z"/> 		<path d="M398.9,309.5c0,0.6-0.3,1-0.8,1.4c-0.5,0.3-1.2,0.5-2.1,0.5c-0.5,0-0.9,0-1.3-0.1c-0.4-0.1-0.7-0.2-1-0.3v-1.4h0.2    c0.1,0.1,0.2,0.1,0.3,0.2c0.1,0.1,0.3,0.2,0.5,0.2c0.2,0.1,0.4,0.1,0.6,0.2c0.2,0.1,0.5,0.1,0.7,0.1c0.3,0,0.6,0,0.8-0.1    c0.2-0.1,0.2-0.2,0.2-0.3c0-0.1,0-0.2-0.1-0.3c-0.1-0.1-0.3-0.1-0.6-0.2c-0.1,0-0.3-0.1-0.5-0.1c-0.2,0-0.4-0.1-0.6-0.1    c-0.5-0.1-0.9-0.3-1.1-0.6c-0.2-0.3-0.4-0.6-0.4-1c0-0.5,0.2-1,0.7-1.3c0.5-0.4,1.2-0.5,2-0.5c0.4,0,0.8,0,1.2,0.1    c0.4,0.1,0.7,0.2,0.9,0.3v1.4h-0.2c-0.3-0.2-0.6-0.3-0.9-0.4c-0.3-0.1-0.7-0.2-1-0.2c-0.3,0-0.5,0-0.7,0.1s-0.3,0.2-0.3,0.3    c0,0.1,0,0.2,0.1,0.3s0.3,0.1,0.6,0.2c0.2,0,0.4,0.1,0.6,0.1c0.2,0,0.4,0.1,0.6,0.1c0.5,0.1,0.8,0.3,1,0.6    C398.7,308.8,398.9,309.2,398.9,309.5z"/> 	</g> </g> <g id="topos_x005F_ok"> 	<circle style="fill:#5B7EBD;" cx="265.2" cy="191" r="2.4"/> 	<circle style="fill:#5B7EBD;" cx="200" cy="220" r="2.4"/> 	<circle style="fill:#5B7EBD;" cx="151" cy="104.5" r="2.4"/> 	<circle style="fill:#5B7EBD;" cx="170.5" cy="289.5" r="2.4"/> 	<circle style="fill:#5B7EBD;" cx="185.5" cy="362.5" r="2.4"/> 	<circle style="fill:#5B7EBD;" cx="153" cy="317" r="2.4"/> 	<circle style="fill:#5B7EBD;" cx="193.1" cy="244.8" r="2.4"/> </g> <g id="text_x005F_ciutats"> 	<g> 		<path d="M239,191.9h-4.3v-7.3h0.9v6.4h3.4V191.9z"/> 		<path d="M240.7,191.9h-0.9v-7.6h0.9V191.9z"/> 		<path d="M246.8,189.2H243c0,0.3,0,0.6,0.1,0.9c0.1,0.2,0.2,0.5,0.4,0.6c0.2,0.2,0.4,0.3,0.6,0.4s0.5,0.1,0.7,0.1    c0.4,0,0.7-0.1,1.1-0.2c0.4-0.1,0.6-0.3,0.8-0.4h0v1c-0.3,0.1-0.6,0.2-0.9,0.3c-0.3,0.1-0.6,0.1-1,0.1c-0.9,0-1.5-0.2-2-0.7    s-0.7-1.2-0.7-2.1c0-0.9,0.2-1.6,0.7-2.1s1.1-0.8,1.8-0.8c0.7,0,1.2,0.2,1.6,0.6s0.6,1,0.6,1.8V189.2z M245.9,188.5    c0-0.5-0.1-0.9-0.3-1.1c-0.2-0.3-0.6-0.4-1-0.4c-0.5,0-0.8,0.1-1.1,0.4s-0.4,0.6-0.5,1.1H245.9z"/> 		<path d="M249,185.5h-1v-1h1V185.5z M249,191.9h-0.9v-5.5h0.9V191.9z"/> 		<path d="M254.9,191.9H254v-0.6c-0.3,0.2-0.5,0.4-0.8,0.5s-0.6,0.2-0.9,0.2c-0.6,0-1.1-0.3-1.5-0.8c-0.4-0.5-0.5-1.2-0.5-2.1    c0-0.5,0.1-0.9,0.2-1.2c0.1-0.4,0.3-0.7,0.5-0.9c0.2-0.2,0.5-0.4,0.7-0.6s0.6-0.2,0.9-0.2c0.3,0,0.5,0,0.7,0.1s0.4,0.2,0.7,0.3    v-2.4h0.9V191.9z M254,190.5v-3.1c-0.2-0.1-0.4-0.2-0.6-0.2s-0.4-0.1-0.6-0.1c-0.5,0-0.9,0.2-1.1,0.5c-0.3,0.4-0.4,0.9-0.4,1.5    c0,0.6,0.1,1.1,0.3,1.5s0.5,0.5,1,0.5c0.2,0,0.5-0.1,0.7-0.2C253.5,190.8,253.8,190.7,254,190.5z"/> 		<path d="M260.6,191.9h-0.9v-0.6c-0.1,0.1-0.2,0.1-0.3,0.2c-0.1,0.1-0.3,0.2-0.4,0.2c-0.1,0.1-0.3,0.1-0.5,0.2    c-0.2,0.1-0.4,0.1-0.7,0.1c-0.5,0-0.9-0.2-1.2-0.5s-0.5-0.7-0.5-1.2c0-0.4,0.1-0.7,0.3-1c0.2-0.3,0.4-0.5,0.7-0.6    c0.3-0.1,0.7-0.2,1.1-0.3c0.4-0.1,0.9-0.1,1.4-0.1v-0.1c0-0.2,0-0.4-0.1-0.5s-0.2-0.2-0.3-0.3c-0.1-0.1-0.3-0.1-0.4-0.2    c-0.2,0-0.4,0-0.5,0c-0.2,0-0.5,0-0.8,0.1c-0.3,0.1-0.6,0.2-0.9,0.3h0v-0.9c0.2,0,0.4-0.1,0.7-0.2s0.6-0.1,0.9-0.1    c0.4,0,0.7,0,0.9,0.1c0.3,0.1,0.5,0.2,0.7,0.3c0.2,0.1,0.3,0.3,0.4,0.6s0.2,0.5,0.2,0.9V191.9z M259.7,190.5V189    c-0.3,0-0.6,0-0.9,0.1s-0.6,0.1-0.9,0.1c-0.2,0.1-0.5,0.2-0.6,0.3c-0.2,0.2-0.2,0.4-0.2,0.7c0,0.3,0.1,0.5,0.3,0.7    c0.2,0.2,0.5,0.2,0.8,0.2c0.3,0,0.6-0.1,0.8-0.2C259.3,190.8,259.5,190.7,259.7,190.5z"/> 	</g> 	<g> 		<path d="M201.8,212.7h-1l-0.7-2h-3l-0.7,2h-0.9l2.5-7.3h1.2L201.8,212.7z M199.8,209.8l-1.2-3.6l-1.2,3.6H199.8z"/> 		<path d="M203.6,212.7h-0.9v-7.6h0.9V212.7z"/> 		<path d="M209.1,212.3c-0.3,0.1-0.6,0.3-0.8,0.3c-0.3,0.1-0.5,0.1-0.8,0.1c-0.4,0-0.7-0.1-1-0.2c-0.3-0.1-0.6-0.3-0.8-0.5    c-0.2-0.2-0.4-0.5-0.5-0.9s-0.2-0.8-0.2-1.3c0-0.9,0.2-1.6,0.7-2.1c0.5-0.5,1.1-0.8,1.8-0.8c0.3,0,0.6,0,0.9,0.1s0.5,0.2,0.8,0.3    v1h0c-0.3-0.2-0.5-0.4-0.8-0.5c-0.3-0.1-0.6-0.2-0.8-0.2c-0.5,0-0.9,0.2-1.2,0.5s-0.4,0.9-0.4,1.5c0,0.7,0.1,1.2,0.4,1.5    s0.7,0.5,1.2,0.5c0.2,0,0.4,0,0.5-0.1c0.2,0,0.3-0.1,0.5-0.2c0.1-0.1,0.2-0.1,0.4-0.2s0.2-0.1,0.3-0.2h0V212.3z"/> 		<path d="M214.3,212.7h-0.9v-0.6c-0.1,0.1-0.2,0.1-0.3,0.2s-0.3,0.2-0.4,0.2c-0.1,0.1-0.3,0.1-0.5,0.2c-0.2,0.1-0.4,0.1-0.7,0.1    c-0.5,0-0.9-0.2-1.2-0.5c-0.3-0.3-0.5-0.7-0.5-1.2c0-0.4,0.1-0.7,0.3-1s0.4-0.5,0.7-0.6c0.3-0.1,0.7-0.2,1.1-0.3s0.9-0.1,1.4-0.1    v-0.1c0-0.2,0-0.4-0.1-0.5c-0.1-0.1-0.2-0.2-0.3-0.3c-0.1-0.1-0.3-0.1-0.4-0.2c-0.2,0-0.4,0-0.5,0c-0.2,0-0.5,0-0.8,0.1    c-0.3,0.1-0.6,0.2-0.9,0.3h0v-0.9c0.2,0,0.4-0.1,0.7-0.2s0.6-0.1,0.9-0.1c0.4,0,0.7,0,0.9,0.1c0.3,0.1,0.5,0.2,0.7,0.3    c0.2,0.1,0.3,0.3,0.4,0.6s0.2,0.5,0.2,0.9V212.7z M213.4,211.3v-1.5c-0.3,0-0.6,0-0.9,0.1s-0.6,0.1-0.9,0.1    c-0.2,0.1-0.5,0.2-0.6,0.3s-0.2,0.4-0.2,0.7c0,0.3,0.1,0.5,0.3,0.7c0.2,0.2,0.5,0.2,0.8,0.2c0.3,0,0.6-0.1,0.8-0.2    C212.9,211.7,213.2,211.5,213.4,211.3z"/> 		<path d="M219.1,208.2L219.1,208.2c-0.2,0-0.3-0.1-0.4-0.1s-0.3,0-0.4,0c-0.3,0-0.5,0.1-0.8,0.2s-0.5,0.3-0.7,0.5v3.9h-0.9v-5.5    h0.9v0.8c0.3-0.3,0.6-0.5,0.9-0.6s0.5-0.2,0.8-0.2c0.2,0,0.3,0,0.3,0s0.2,0,0.3,0V208.2z"/> 		<path d="M223.2,208.2L223.2,208.2c-0.2,0-0.3-0.1-0.4-0.1s-0.3,0-0.4,0c-0.3,0-0.5,0.1-0.8,0.2s-0.5,0.3-0.7,0.5v3.9H220v-5.5h0.9    v0.8c0.3-0.3,0.6-0.5,0.9-0.6c0.3-0.1,0.5-0.2,0.8-0.2c0.2,0,0.3,0,0.3,0c0.1,0,0.2,0,0.3,0V208.2z"/> 		<path d="M228,212.7h-0.9v-0.6c-0.1,0.1-0.2,0.1-0.3,0.2s-0.3,0.2-0.4,0.2c-0.1,0.1-0.3,0.1-0.5,0.2c-0.2,0.1-0.4,0.1-0.7,0.1    c-0.5,0-0.9-0.2-1.2-0.5c-0.3-0.3-0.5-0.7-0.5-1.2c0-0.4,0.1-0.7,0.3-1c0.2-0.3,0.4-0.5,0.7-0.6c0.3-0.1,0.7-0.2,1.1-0.3    s0.9-0.1,1.4-0.1v-0.1c0-0.2,0-0.4-0.1-0.5c-0.1-0.1-0.2-0.2-0.3-0.3c-0.1-0.1-0.3-0.1-0.4-0.2c-0.2,0-0.4,0-0.5,0    c-0.2,0-0.5,0-0.8,0.1c-0.3,0.1-0.6,0.2-0.9,0.3h0v-0.9c0.2,0,0.4-0.1,0.7-0.2s0.6-0.1,0.9-0.1c0.4,0,0.7,0,0.9,0.1    s0.5,0.2,0.7,0.3c0.2,0.1,0.3,0.3,0.4,0.6s0.2,0.5,0.2,0.9V212.7z M227.1,211.3v-1.5c-0.3,0-0.6,0-0.9,0.1s-0.6,0.1-0.9,0.1    c-0.2,0.1-0.5,0.2-0.6,0.3s-0.2,0.4-0.2,0.7c0,0.3,0.1,0.5,0.3,0.7c0.2,0.2,0.5,0.2,0.8,0.2c0.3,0,0.6-0.1,0.8-0.2    C226.7,211.7,226.9,211.5,227.1,211.3z M226.5,206.3h-0.7l-1.3-1.8h1.1L226.5,206.3z"/> 		<path d="M233,210.2c0.2,0.2,0.3,0.6,0.3,1c0,0.5-0.2,0.9-0.6,1.2c-0.4,0.3-0.9,0.5-1.6,0.5c-0.4,0-0.7,0-1-0.1    c-0.3-0.1-0.6-0.2-0.8-0.3v-1h0c0.3,0.2,0.6,0.4,0.9,0.5c0.3,0.1,0.7,0.2,1,0.2c0.4,0,0.7-0.1,0.9-0.2c0.2-0.1,0.3-0.3,0.3-0.6    c0-0.2-0.1-0.4-0.2-0.5c-0.1-0.1-0.3-0.2-0.7-0.3c-0.1,0-0.3-0.1-0.5-0.1s-0.4-0.1-0.5-0.1c-0.5-0.1-0.8-0.3-1-0.6    s-0.3-0.5-0.3-0.9c0-0.2,0-0.4,0.1-0.6s0.2-0.4,0.4-0.5c0.2-0.2,0.4-0.3,0.7-0.4c0.3-0.1,0.6-0.1,0.9-0.1c0.3,0,0.6,0,0.9,0.1    s0.6,0.2,0.8,0.3v1h0c-0.2-0.2-0.5-0.3-0.8-0.4c-0.3-0.1-0.6-0.2-0.9-0.2c-0.3,0-0.6,0.1-0.8,0.2s-0.3,0.3-0.3,0.6    c0,0.2,0.1,0.4,0.2,0.5c0.1,0.1,0.3,0.2,0.6,0.3c0.2,0,0.3,0.1,0.5,0.1c0.2,0,0.4,0.1,0.5,0.1C232.5,209.8,232.8,209.9,233,210.2    L233,210.2z"/> 	</g> 	<g> 		<path d="M165.5,107h-1l-0.7-2h-3l-0.7,2h-0.9l2.5-7.3h1.2L165.5,107z M163.6,104.2l-1.2-3.6l-1.2,3.6H163.6z"/> 		<path d="M167.3,107h-0.9v-7.6h0.9V107z"/> 		<path d="M176.6,107h-0.9v-3.1c0-0.2,0-0.5,0-0.7s-0.1-0.4-0.1-0.5c-0.1-0.1-0.2-0.2-0.3-0.3s-0.3-0.1-0.6-0.1    c-0.2,0-0.5,0.1-0.7,0.2c-0.2,0.1-0.5,0.3-0.7,0.5c0,0.1,0,0.2,0,0.3c0,0.1,0,0.2,0,0.3v3.5h-0.9v-3.1c0-0.2,0-0.5,0-0.7    s-0.1-0.4-0.1-0.5c-0.1-0.1-0.2-0.2-0.3-0.3s-0.3-0.1-0.6-0.1c-0.2,0-0.5,0.1-0.7,0.2s-0.5,0.3-0.7,0.5v4.1h-0.9v-5.5h0.9v0.6    c0.3-0.2,0.5-0.4,0.8-0.6c0.3-0.1,0.6-0.2,0.9-0.2c0.4,0,0.6,0.1,0.9,0.2c0.2,0.2,0.4,0.4,0.5,0.6c0.4-0.3,0.7-0.5,1-0.7    s0.6-0.2,0.9-0.2c0.6,0,1,0.2,1.3,0.5s0.4,0.9,0.4,1.5V107z"/> 		<path d="M182.3,107h-0.9v-0.6c-0.1,0.1-0.2,0.1-0.3,0.2s-0.3,0.2-0.4,0.2c-0.1,0.1-0.3,0.1-0.5,0.2c-0.2,0.1-0.4,0.1-0.7,0.1    c-0.5,0-0.9-0.2-1.2-0.5c-0.3-0.3-0.5-0.7-0.5-1.2c0-0.4,0.1-0.7,0.3-1c0.2-0.3,0.4-0.5,0.7-0.6c0.3-0.1,0.7-0.2,1.1-0.3    s0.9-0.1,1.4-0.1v-0.1c0-0.2,0-0.4-0.1-0.5c-0.1-0.1-0.2-0.2-0.3-0.3c-0.1-0.1-0.3-0.1-0.4-0.2s-0.4,0-0.5,0c-0.2,0-0.5,0-0.8,0.1    c-0.3,0.1-0.6,0.2-0.9,0.3h0v-0.9c0.2,0,0.4-0.1,0.7-0.2s0.6-0.1,0.9-0.1c0.4,0,0.7,0,0.9,0.1c0.3,0.1,0.5,0.2,0.7,0.3    c0.2,0.1,0.3,0.3,0.4,0.6c0.1,0.2,0.2,0.5,0.2,0.9V107z M181.4,105.7v-1.5c-0.3,0-0.6,0-0.9,0.1s-0.6,0.1-0.9,0.1    c-0.2,0.1-0.5,0.2-0.6,0.3s-0.2,0.4-0.2,0.7c0,0.3,0.1,0.5,0.3,0.7c0.2,0.2,0.5,0.2,0.8,0.2c0.3,0,0.6-0.1,0.8-0.2    C180.9,106,181.2,105.9,181.4,105.7z"/> 		<path d="M187.7,106.7c-0.3,0.1-0.6,0.3-0.8,0.3c-0.3,0.1-0.5,0.1-0.8,0.1c-0.4,0-0.7-0.1-1-0.2c-0.3-0.1-0.6-0.3-0.8-0.5    c-0.2-0.2-0.4-0.5-0.5-0.9s-0.2-0.8-0.2-1.3c0-0.9,0.2-1.6,0.7-2.1c0.5-0.5,1.1-0.8,1.8-0.8c0.3,0,0.6,0,0.9,0.1s0.5,0.2,0.8,0.3    v1h0c-0.3-0.2-0.5-0.4-0.8-0.5c-0.3-0.1-0.6-0.2-0.8-0.2c-0.5,0-0.9,0.2-1.2,0.5s-0.4,0.9-0.4,1.5c0,0.7,0.1,1.2,0.4,1.5    s0.7,0.5,1.2,0.5c0.2,0,0.4,0,0.5-0.1c0.2,0,0.3-0.1,0.5-0.2c0.1-0.1,0.2-0.1,0.4-0.2s0.2-0.1,0.3-0.2h0V106.7z"/> 		<path d="M193.2,104.4h-3.8c0,0.3,0,0.6,0.1,0.9s0.2,0.5,0.4,0.6c0.2,0.2,0.4,0.3,0.6,0.4c0.2,0.1,0.5,0.1,0.7,0.1    c0.4,0,0.7-0.1,1.1-0.2c0.4-0.1,0.6-0.3,0.8-0.4h0v1c-0.3,0.1-0.6,0.2-0.9,0.3s-0.6,0.1-1,0.1c-0.9,0-1.5-0.2-2-0.7    s-0.7-1.2-0.7-2.1c0-0.9,0.2-1.6,0.7-2.1c0.5-0.5,1.1-0.8,1.8-0.8c0.7,0,1.2,0.2,1.6,0.6c0.4,0.4,0.6,1,0.6,1.8V104.4z     M192.3,103.7c0-0.5-0.1-0.9-0.3-1.1s-0.6-0.4-1-0.4c-0.5,0-0.8,0.1-1.1,0.4s-0.4,0.6-0.5,1.1H192.3z"/> 		<path d="M195.4,107h-0.9v-7.6h0.9V107z"/> 		<path d="M197.9,107h-0.9v-7.6h0.9V107z"/> 		<path d="M204,104.4h-3.8c0,0.3,0,0.6,0.1,0.9c0.1,0.2,0.2,0.5,0.4,0.6c0.2,0.2,0.3,0.3,0.6,0.4c0.2,0.1,0.5,0.1,0.7,0.1    c0.4,0,0.7-0.1,1.1-0.2s0.6-0.3,0.8-0.4h0v1c-0.3,0.1-0.6,0.2-0.9,0.3c-0.3,0.1-0.6,0.1-1,0.1c-0.9,0-1.5-0.2-2-0.7    s-0.7-1.2-0.7-2.1c0-0.9,0.2-1.6,0.7-2.1s1.1-0.8,1.8-0.8c0.7,0,1.2,0.2,1.6,0.6c0.4,0.4,0.6,1,0.6,1.8V104.4z M203.1,103.7    c0-0.5-0.1-0.9-0.3-1.1s-0.6-0.4-1-0.4c-0.5,0-0.8,0.1-1.1,0.4s-0.4,0.6-0.5,1.1H203.1z"/> 		<path d="M208.6,104.5c0.2,0.2,0.3,0.6,0.3,1c0,0.5-0.2,0.9-0.6,1.2s-0.9,0.5-1.6,0.5c-0.4,0-0.7,0-1-0.1c-0.3-0.1-0.6-0.2-0.8-0.3    v-1h0c0.3,0.2,0.6,0.4,0.9,0.5c0.3,0.1,0.7,0.2,1,0.2c0.4,0,0.7-0.1,0.9-0.2s0.3-0.3,0.3-0.6c0-0.2-0.1-0.4-0.2-0.5    c-0.1-0.1-0.3-0.2-0.7-0.3c-0.1,0-0.3-0.1-0.5-0.1c-0.2,0-0.4-0.1-0.5-0.1c-0.5-0.1-0.8-0.3-1-0.6c-0.2-0.2-0.3-0.5-0.3-0.9    c0-0.2,0-0.4,0.1-0.6c0.1-0.2,0.2-0.4,0.4-0.5c0.2-0.2,0.4-0.3,0.7-0.4s0.6-0.1,0.9-0.1c0.3,0,0.6,0,0.9,0.1s0.6,0.2,0.8,0.3v1h0    c-0.2-0.2-0.5-0.3-0.8-0.4s-0.6-0.2-0.9-0.2c-0.3,0-0.6,0.1-0.8,0.2c-0.2,0.1-0.3,0.3-0.3,0.6c0,0.2,0.1,0.4,0.2,0.5    c0.1,0.1,0.3,0.2,0.6,0.3c0.2,0,0.3,0.1,0.5,0.1c0.2,0,0.4,0.1,0.5,0.1C208.1,104.1,208.4,104.3,208.6,104.5L208.6,104.5z"/> 	</g> 	<g> 		<path d="M164.5,281h-1l-0.7-2h-3l-0.7,2h-0.9l2.5-7.3h1.2L164.5,281z M162.6,278.2l-1.2-3.6l-1.2,3.6H162.6z"/> 		<path d="M166.4,274.7h-1v-1h1V274.7z M166.4,281h-0.9v-5.5h0.9V281z"/> 		<path d="M170.8,281c-0.2,0-0.3,0.1-0.5,0.1c-0.2,0-0.4,0-0.5,0c-0.5,0-0.9-0.1-1.2-0.4s-0.4-0.8-0.4-1.4v-2.9h-0.6v-0.8h0.6V274    h0.9v1.6h1.8v0.8H169v2.5c0,0.3,0,0.5,0,0.7c0,0.2,0.1,0.3,0.1,0.5c0.1,0.1,0.2,0.2,0.3,0.3c0.1,0.1,0.3,0.1,0.5,0.1    c0.1,0,0.3,0,0.4-0.1s0.3-0.1,0.3-0.1h0V281z"/> 		<path d="M176.2,278.3c0,0.9-0.2,1.6-0.6,2.1s-1,0.8-1.7,0.8c-0.7,0-1.3-0.3-1.7-0.8s-0.6-1.2-0.6-2.1s0.2-1.6,0.6-2.1    c0.4-0.5,1-0.8,1.7-0.8c0.7,0,1.3,0.3,1.7,0.8C176,276.7,176.2,277.4,176.2,278.3z M175.3,278.3c0-0.7-0.1-1.2-0.4-1.6    c-0.3-0.3-0.6-0.5-1.1-0.5c-0.5,0-0.8,0.2-1.1,0.5c-0.3,0.3-0.4,0.9-0.4,1.6c0,0.7,0.1,1.2,0.4,1.6c0.3,0.4,0.6,0.5,1.1,0.5    c0.5,0,0.8-0.2,1.1-0.5C175.2,279.5,175.3,279,175.3,278.3z"/> 		<path d="M181.8,281H181v-3.1c0-0.3,0-0.5,0-0.7s-0.1-0.4-0.2-0.5c-0.1-0.1-0.2-0.2-0.3-0.3c-0.1-0.1-0.3-0.1-0.6-0.1    c-0.2,0-0.5,0.1-0.7,0.2c-0.3,0.1-0.5,0.3-0.7,0.5v4.1h-0.9v-5.5h0.9v0.6c0.3-0.2,0.6-0.4,0.8-0.6s0.6-0.2,0.9-0.2    c0.6,0,1,0.2,1.3,0.5c0.3,0.4,0.4,0.9,0.4,1.5V281z"/> 		<path d="M187.5,281h-0.9v-0.6c-0.1,0.1-0.2,0.1-0.3,0.2c-0.1,0.1-0.3,0.2-0.4,0.2c-0.1,0.1-0.3,0.1-0.5,0.2    c-0.2,0.1-0.4,0.1-0.7,0.1c-0.5,0-0.9-0.2-1.2-0.5c-0.3-0.3-0.5-0.7-0.5-1.2c0-0.4,0.1-0.7,0.3-1c0.2-0.3,0.4-0.5,0.7-0.6    c0.3-0.1,0.7-0.2,1.1-0.3s0.9-0.1,1.4-0.1v-0.1c0-0.2,0-0.4-0.1-0.5s-0.2-0.2-0.3-0.3c-0.1-0.1-0.3-0.1-0.4-0.2s-0.4,0-0.5,0    c-0.2,0-0.5,0-0.8,0.1c-0.3,0.1-0.6,0.2-0.9,0.3h0v-0.9c0.2,0,0.4-0.1,0.7-0.2c0.3-0.1,0.6-0.1,0.9-0.1c0.4,0,0.7,0,0.9,0.1    s0.5,0.2,0.7,0.3c0.2,0.1,0.3,0.3,0.4,0.6s0.2,0.5,0.2,0.9V281z M186.7,279.7v-1.5c-0.3,0-0.6,0-0.9,0.1s-0.6,0.1-0.9,0.1    c-0.2,0.1-0.5,0.2-0.6,0.3c-0.2,0.2-0.2,0.4-0.2,0.7c0,0.3,0.1,0.5,0.3,0.7c0.2,0.2,0.5,0.2,0.8,0.2c0.3,0,0.6-0.1,0.8-0.2    C186.2,280,186.4,279.9,186.7,279.7z"/> 	</g> 	<g> 		<path d="M178.6,375.4h-0.9v-6.3l-1.9,4.3h-0.5l-1.9-4.3v6.3h-0.9v-7.3h1.2l1.8,4l1.8-4h1.3V375.4z"/> 		<path d="M184.4,375.4h-0.9v-0.6c-0.1,0.1-0.2,0.1-0.3,0.2c-0.1,0.1-0.3,0.2-0.4,0.2c-0.1,0.1-0.3,0.1-0.5,0.2    c-0.2,0.1-0.4,0.1-0.7,0.1c-0.5,0-0.9-0.2-1.2-0.5c-0.3-0.3-0.5-0.7-0.5-1.2c0-0.4,0.1-0.7,0.3-1c0.2-0.3,0.4-0.5,0.7-0.6    c0.3-0.1,0.7-0.2,1.1-0.3s0.9-0.1,1.4-0.1v-0.1c0-0.2,0-0.4-0.1-0.5c-0.1-0.1-0.2-0.2-0.3-0.3c-0.1-0.1-0.3-0.1-0.4-0.2    s-0.4,0-0.5,0c-0.2,0-0.5,0-0.8,0.1c-0.3,0.1-0.6,0.2-0.9,0.3h0V370c0.2,0,0.4-0.1,0.7-0.2s0.6-0.1,0.9-0.1c0.4,0,0.7,0,0.9,0.1    c0.3,0.1,0.5,0.2,0.7,0.3c0.2,0.1,0.3,0.3,0.4,0.6c0.1,0.2,0.2,0.5,0.2,0.9V375.4z M183.5,374v-1.5c-0.3,0-0.6,0-0.9,0.1    s-0.6,0.1-0.9,0.1c-0.2,0.1-0.5,0.2-0.6,0.3c-0.2,0.2-0.2,0.4-0.2,0.7c0,0.3,0.1,0.5,0.3,0.7c0.2,0.2,0.5,0.2,0.8,0.2    c0.3,0,0.6-0.1,0.8-0.2C183.1,374.3,183.3,374.2,183.5,374z"/> 		<path d="M187,369h-1v-1h1V369z M186.9,375.4h-0.9v-5.5h0.9V375.4z"/> 		<path d="M192.6,375.4h-0.9v-0.6c-0.1,0.1-0.2,0.1-0.3,0.2c-0.1,0.1-0.3,0.2-0.4,0.2c-0.1,0.1-0.3,0.1-0.5,0.2    c-0.2,0.1-0.4,0.1-0.7,0.1c-0.5,0-0.9-0.2-1.2-0.5s-0.5-0.7-0.5-1.2c0-0.4,0.1-0.7,0.3-1c0.2-0.3,0.4-0.5,0.7-0.6    c0.3-0.1,0.7-0.2,1.1-0.3c0.4-0.1,0.9-0.1,1.4-0.1v-0.1c0-0.2,0-0.4-0.1-0.5s-0.2-0.2-0.3-0.3c-0.1-0.1-0.3-0.1-0.4-0.2    s-0.4,0-0.5,0c-0.2,0-0.5,0-0.8,0.1c-0.3,0.1-0.6,0.2-0.9,0.3h0V370c0.2,0,0.4-0.1,0.7-0.2s0.6-0.1,0.9-0.1c0.4,0,0.7,0,0.9,0.1    s0.5,0.2,0.7,0.3c0.2,0.1,0.3,0.3,0.4,0.6s0.2,0.5,0.2,0.9V375.4z M191.8,374v-1.5c-0.3,0-0.6,0-0.9,0.1s-0.6,0.1-0.9,0.1    c-0.2,0.1-0.5,0.2-0.6,0.3c-0.2,0.2-0.2,0.4-0.2,0.7c0,0.3,0.1,0.5,0.3,0.7c0.2,0.2,0.5,0.2,0.8,0.2c0.3,0,0.6-0.1,0.8-0.2    C191.3,374.3,191.6,374.2,191.8,374z"/> 		<path d="M195.2,375.4h-0.9v-7.6h0.9V375.4z"/> 		<path d="M200.3,372.8c0.2,0.2,0.3,0.6,0.3,1c0,0.5-0.2,0.9-0.6,1.2c-0.4,0.3-0.9,0.5-1.6,0.5c-0.4,0-0.7,0-1-0.1    c-0.3-0.1-0.6-0.2-0.8-0.3v-1h0c0.3,0.2,0.6,0.4,0.9,0.5c0.3,0.1,0.7,0.2,1,0.2c0.4,0,0.7-0.1,0.9-0.2s0.3-0.3,0.3-0.6    c0-0.2-0.1-0.4-0.2-0.5c-0.1-0.1-0.3-0.2-0.7-0.3c-0.1,0-0.3-0.1-0.5-0.1c-0.2,0-0.4-0.1-0.5-0.1c-0.5-0.1-0.8-0.3-1-0.6    c-0.2-0.2-0.3-0.5-0.3-0.9c0-0.2,0-0.4,0.1-0.6c0.1-0.2,0.2-0.4,0.4-0.5c0.2-0.2,0.4-0.3,0.7-0.4c0.3-0.1,0.6-0.1,0.9-0.1    c0.3,0,0.6,0,0.9,0.1c0.3,0.1,0.6,0.2,0.8,0.3v1h0c-0.2-0.2-0.5-0.3-0.8-0.4c-0.3-0.1-0.6-0.2-0.9-0.2c-0.3,0-0.6,0.1-0.8,0.2    c-0.2,0.1-0.3,0.3-0.3,0.6c0,0.2,0.1,0.4,0.2,0.5c0.1,0.1,0.3,0.2,0.6,0.3c0.2,0,0.3,0.1,0.5,0.1c0.2,0,0.4,0.1,0.5,0.1    C199.7,372.4,200,372.6,200.3,372.8L200.3,372.8z"/> 	</g> 	<g> 		<path d="M142.6,329.9c0,0.3-0.1,0.6-0.2,0.8s-0.3,0.5-0.5,0.7c-0.2,0.2-0.5,0.4-0.9,0.5s-0.7,0.2-1.2,0.2c-0.5,0-0.9,0-1.3-0.1    c-0.4-0.1-0.8-0.2-1.2-0.4v-1.2h0.1c0.3,0.3,0.7,0.5,1.2,0.7s0.9,0.2,1.3,0.2c0.6,0,1-0.1,1.3-0.3c0.3-0.2,0.5-0.5,0.5-0.9    c0-0.3-0.1-0.6-0.2-0.7c-0.1-0.2-0.4-0.3-0.7-0.4c-0.2-0.1-0.5-0.1-0.8-0.2c-0.3,0-0.6-0.1-0.9-0.2c-0.6-0.1-1.1-0.4-1.4-0.7    c-0.3-0.3-0.4-0.8-0.4-1.3c0-0.6,0.2-1.1,0.7-1.5c0.5-0.4,1.1-0.6,1.9-0.6c0.5,0,0.9,0,1.3,0.1c0.4,0.1,0.8,0.2,1.1,0.4v1.1h-0.1    c-0.3-0.2-0.6-0.4-1-0.6c-0.4-0.2-0.9-0.2-1.3-0.2c-0.5,0-0.9,0.1-1.2,0.3s-0.4,0.5-0.4,0.8c0,0.3,0.1,0.5,0.2,0.7    c0.1,0.2,0.4,0.3,0.8,0.4c0.2,0,0.5,0.1,0.8,0.2c0.4,0.1,0.7,0.1,0.9,0.2c0.5,0.1,0.9,0.4,1.2,0.6S142.6,329.4,142.6,329.9z"/> 		<path d="M148.3,329.4h-3.8c0,0.3,0,0.6,0.1,0.9c0.1,0.2,0.2,0.5,0.4,0.6c0.2,0.2,0.4,0.3,0.6,0.4s0.5,0.1,0.7,0.1    c0.4,0,0.7-0.1,1.1-0.2c0.4-0.1,0.6-0.3,0.8-0.4h0v1c-0.3,0.1-0.6,0.2-0.9,0.3s-0.6,0.1-1,0.1c-0.9,0-1.5-0.2-2-0.7    c-0.5-0.5-0.7-1.2-0.7-2.1c0-0.9,0.2-1.6,0.7-2.1c0.5-0.5,1.1-0.8,1.8-0.8c0.7,0,1.2,0.2,1.6,0.6c0.4,0.4,0.6,1,0.6,1.8V329.4z     M147.5,328.7c0-0.5-0.1-0.9-0.3-1.1s-0.6-0.4-1-0.4c-0.5,0-0.8,0.1-1.1,0.4s-0.4,0.6-0.5,1.1H147.5z"/> 		<path d="M152.9,327.6L152.9,327.6c-0.2,0-0.3-0.1-0.4-0.1s-0.3,0-0.4,0c-0.3,0-0.5,0.1-0.8,0.2c-0.2,0.1-0.5,0.3-0.7,0.5v3.9h-0.9    v-5.5h0.9v0.8c0.3-0.3,0.6-0.5,0.9-0.6s0.5-0.2,0.8-0.2c0.2,0,0.3,0,0.3,0c0.1,0,0.2,0,0.3,0V327.6z"/> 		<path d="M158.1,329.3c0,0.9-0.2,1.6-0.6,2.1s-1,0.8-1.7,0.8c-0.7,0-1.3-0.3-1.7-0.8s-0.6-1.2-0.6-2.1s0.2-1.6,0.6-2.1    c0.4-0.5,1-0.8,1.7-0.8c0.7,0,1.3,0.3,1.7,0.8C157.9,327.7,158.1,328.4,158.1,329.3z M157.2,329.3c0-0.7-0.1-1.2-0.4-1.6    c-0.3-0.3-0.6-0.5-1.1-0.5c-0.5,0-0.8,0.2-1.1,0.5c-0.3,0.3-0.4,0.9-0.4,1.6c0,0.7,0.1,1.2,0.4,1.6c0.3,0.4,0.6,0.5,1.1,0.5    c0.5,0,0.8-0.2,1.1-0.5C157.1,330.5,157.2,330,157.2,329.3z M156.2,325.7h-0.7l-1.3-1.8h1.1L156.2,325.7z"/> 		<path d="M162.8,329.5c0.2,0.2,0.3,0.6,0.3,1c0,0.5-0.2,0.9-0.6,1.2s-0.9,0.5-1.6,0.5c-0.4,0-0.7,0-1-0.1c-0.3-0.1-0.6-0.2-0.8-0.3    v-1h0c0.3,0.2,0.6,0.4,0.9,0.5c0.3,0.1,0.7,0.2,1,0.2c0.4,0,0.7-0.1,0.9-0.2s0.3-0.3,0.3-0.6c0-0.2-0.1-0.4-0.2-0.5    c-0.1-0.1-0.3-0.2-0.7-0.3c-0.1,0-0.3-0.1-0.5-0.1c-0.2,0-0.4-0.1-0.5-0.1c-0.5-0.1-0.8-0.3-1-0.6c-0.2-0.2-0.3-0.5-0.3-0.9    c0-0.2,0-0.4,0.1-0.6c0.1-0.2,0.2-0.4,0.4-0.5c0.2-0.2,0.4-0.3,0.7-0.4c0.3-0.1,0.6-0.1,0.9-0.1c0.3,0,0.6,0,0.9,0.1    c0.3,0.1,0.6,0.2,0.8,0.3v1h0c-0.2-0.2-0.5-0.3-0.8-0.4c-0.3-0.1-0.6-0.2-0.9-0.2c-0.3,0-0.6,0.1-0.8,0.2    c-0.2,0.1-0.3,0.3-0.3,0.6c0,0.2,0.1,0.4,0.2,0.5c0.1,0.1,0.3,0.2,0.6,0.3c0.2,0,0.3,0.1,0.5,0.1c0.2,0,0.4,0.1,0.5,0.1    C162.3,329.1,162.6,329.3,162.8,329.5L162.8,329.5z"/> 	</g> </g> <g id="llegenda"> 	<line style="fill:none;stroke:#9A9A9A;stroke-width:2;stroke-miterlimit:10;" x1="-92.4" y1="140.6" x2="-92.4" y2="170.1"/> 	<g> 		<path d="M-84.6,151h0.9v7.1h-0.9V151z"/> 		<path d="M-81.3,151.9c0,0.3-0.2,0.5-0.6,0.5c-0.3,0-0.5-0.2-0.5-0.5s0.2-0.5,0.5-0.5C-81.5,151.4-81.3,151.6-81.3,151.9z     M-82.3,158.1v-4.8h0.9v4.8H-82.3z"/> 		<path d="M-79.9,154.6c0-0.5,0-0.9,0-1.3h0.8l0,0.8h0c0.2-0.4,0.8-0.9,1.6-0.9c0.7,0,1.7,0.4,1.7,2.1v2.9h-0.9v-2.8    c0-0.8-0.3-1.4-1.1-1.4c-0.6,0-1,0.4-1.2,0.9c0,0.1-0.1,0.3-0.1,0.4v2.9h-0.9V154.6z"/> 	</g> 	<line style="fill:none;stroke:#696969;stroke-width:2;stroke-miterlimit:10;" x1="-92.4" y1="180.2" x2="-92.4" y2="209.7"/> 	<g> 		<path d="M-84.6,190.6h0.9v7.1h-0.9V190.6z"/> 		<path d="M-81.3,191.5c0,0.3-0.2,0.5-0.6,0.5c-0.3,0-0.5-0.2-0.5-0.5s0.2-0.5,0.5-0.5C-81.5,191-81.3,191.2-81.3,191.5z     M-82.3,197.7v-4.8h0.9v4.8H-82.3z"/> 		<path d="M-79.9,194.2c0-0.5,0-0.9,0-1.3h0.8l0,0.8h0c0.2-0.4,0.8-0.9,1.6-0.9c0.7,0,1.7,0.4,1.7,2.1v2.9h-0.9v-2.8    c0-0.8-0.3-1.4-1.1-1.4c-0.6,0-1,0.4-1.2,0.9c0,0.1-0.1,0.3-0.1,0.4v2.9h-0.9V194.2z"/> 	</g> 	<rect x="-97.7" y="116" style="fill:#BFBFBF;" width="16.3" height="15.3"/> 	<rect x="-97.7" y="88.4" style="fill:#DCE9FB;" width="16.3" height="15.3"/> 	<g> 		<path d="M-72.2,125.4v-4.2h-0.7v-0.7h0.7v-0.2c0-0.7,0.2-1.3,0.6-1.7c0.3-0.3,0.8-0.4,1.2-0.4c0.3,0,0.6,0.1,0.7,0.1l-0.1,0.7    c-0.1-0.1-0.3-0.1-0.6-0.1c-0.7,0-0.9,0.6-0.9,1.4v0.3h1.2v0.7h-1.2v4.2H-72.2z"/> 		<path d="M-65.1,122.9c0,1.8-1.2,2.6-2.4,2.6c-1.3,0-2.3-1-2.3-2.5c0-1.6,1.1-2.6,2.4-2.6C-66.1,120.4-65.1,121.4-65.1,122.9z     M-68.9,123c0,1.1,0.6,1.9,1.5,1.9c0.8,0,1.5-0.8,1.5-1.9c0-0.8-0.4-1.8-1.4-1.8C-68.5,121.1-68.9,122-68.9,123z"/> 		<path d="M-64,121.8c0-0.5,0-0.9,0-1.3h0.8l0,0.8h0c0.2-0.4,0.8-0.9,1.6-0.9c0.7,0,1.7,0.4,1.7,2.1v2.9h-0.9v-2.8    c0-0.8-0.3-1.4-1.1-1.4c-0.6,0-1,0.4-1.2,0.9c0,0.1-0.1,0.3-0.1,0.4v2.9H-64V121.8z"/> 		<path d="M-58.6,124.5c0.3,0.2,0.7,0.3,1.2,0.3c0.6,0,0.9-0.3,0.9-0.7c0-0.4-0.3-0.6-0.9-0.9c-0.9-0.3-1.3-0.8-1.3-1.4    c0-0.8,0.6-1.4,1.7-1.4c0.5,0,0.9,0.1,1.2,0.3l-0.2,0.6c-0.2-0.1-0.5-0.3-1-0.3c-0.5,0-0.8,0.3-0.8,0.7c0,0.4,0.3,0.6,0.9,0.8    c0.8,0.3,1.3,0.7,1.3,1.4c0,0.9-0.7,1.5-1.8,1.5c-0.5,0-1-0.1-1.4-0.3L-58.6,124.5z"/> 	</g> 	<g> 		<path d="M-72.3,94.5c0-0.5,0-0.9,0-1.3h0.8l0,0.8h0c0.3-0.5,0.7-0.9,1.5-0.9c0.6,0,1.1,0.4,1.4,1h0c0.1-0.3,0.4-0.5,0.5-0.6    c0.3-0.2,0.6-0.3,1.1-0.3c0.6,0,1.6,0.4,1.6,2.1V98h-0.9v-2.7c0-0.9-0.3-1.5-1-1.5c-0.5,0-0.9,0.4-1,0.8c0,0.1-0.1,0.3-0.1,0.4v3    h-0.9v-2.9c0-0.8-0.3-1.3-1-1.3c-0.5,0-0.9,0.4-1.1,0.9c-0.1,0.1-0.1,0.3-0.1,0.4V98h-0.9V94.5z"/> 		<path d="M-60.6,96.9c0,0.4,0,0.8,0.1,1.2h-0.8l-0.1-0.6h0c-0.3,0.4-0.8,0.7-1.5,0.7c-1,0-1.5-0.7-1.5-1.4c0-1.2,1-1.8,2.9-1.8    v-0.1c0-0.4-0.1-1.1-1.1-1.1c-0.5,0-0.9,0.1-1.3,0.4l-0.2-0.6c0.4-0.3,1-0.4,1.6-0.4c1.5,0,1.8,1,1.8,2V96.9z M-61.4,95.6    c-1,0-2,0.1-2,1.1c0,0.6,0.4,0.8,0.8,0.8c0.6,0,1-0.4,1.2-0.8c0-0.1,0-0.2,0-0.3V95.6z"/> 		<path d="M-59.1,94.7c0-0.6,0-1.1,0-1.5h0.8l0,1h0c0.2-0.6,0.8-1.1,1.3-1.1c0.1,0,0.2,0,0.2,0v0.8c-0.1,0-0.2,0-0.3,0    c-0.6,0-1.1,0.5-1.2,1.1c0,0.1,0,0.3,0,0.4V98h-0.9V94.7z"/> 	</g> 	<circle style="fill-rule:evenodd;clip-rule:evenodd;fill:#5B7EBD;" cx="-114.1" cy="158.1" r="2.4"/> 	<rect x="-122.2" y="116" style="fill:#BFBFBF;stroke:#696969;stroke-width:2;stroke-miterlimit:10;" width="16.3" height="15.3"/> 	<rect x="-147" y="116" style="fill:#FFFBF0;stroke:#9A9A9A;stroke-width:2;stroke-miterlimit:10;" width="16.3" height="15.3"/> 	<rect x="-144.1" y="69.4" style="opacity:0.7;fill:#FFFBF0;" width="92.8" height="9.6"/> </g> </svg>