<svg xmlns="http://www.w3.org/2000/svg" xmlns:xlink="http://www.w3.org/1999/xlink" version="1.1" x="0px" y="0px" width="450px" height="450px" viewBox="0 0 450 450" style="enable-background:new 0 0 450 450;" xml:space="preserve"> <g id="Color_fons"> 	<a> 		<path style="fill:#BFBFBF;stroke:#696969;stroke-width:2;stroke-miterlimit:10;" d="M-19.3,402c0,0,29.8-16.5,46.3,11.5l34-11    c0,0,7.5,14,2,23l1.9,43L-14,469L-19.3,402z"/> 	</a> 	<a> 		<path style="fill:#BFBFBF;stroke:#696969;stroke-width:2;stroke-miterlimit:10;" d="M64.9,468.5l-1.9-43c0,0,6-14-2-23    S21.5,369,21.5,369L36,335.5L27,274c0,0,23.5,0.5,36.5,5.5s33.8,6.5,37.7-0.7s5.8-9.8,5.8-9.8s22-6,34.5-1s14.5,9.5,14.5,9.5    l9-1.5c0,0-4.5,15.5,7.5,19.5s42.5,25.5,43.5,32s0,0,0,0s15,8,15.5,17.5s7,18.5,21,27.5s10.8,7.3,10.8,7.3S269,366.5,292,365    s21-2.5,21-2.5l-4.5-17.5l8.2-7.9l11.8,2.4l2-15.5l12.5-14.5l-0.8-16.5c0,0,18.8,10,18.8,14s2,6.5,7,6s5-7.5,8.5-5.5s6,7,6,7    s12.5-17.5,14-35.5s2-13.5,4.5-18s6.5-33,6.5-33l15.6,4.4c0,0,2.9-18.9,30.4-6.4s19.8,8.7,19.8,8.7L472,472L64.9,468.5z"/> 	</a> 	<a> 		<path style="fill:#BFBFBF;stroke:#696969;stroke-width:2;stroke-miterlimit:10;" d="M215.6-20.2L234,41.4l4.3,19.4    c0,0,6.2,3.8,15.7,3.3s10.5-6,35.5-5s21,2,21,2s2.4,30.1-8.6,33.5s0,0,0,0s13.6,6.5,26.1,7.5s0,0,0,0l26.6-40.5l18.8,10l-4.8,23.1    c0,0,34.3,12.3,31.3,30.3s-17.6,36.9-9.3,44.7s17.3,9.8,16.8,58.3l0,0l15.6,4.4c0,0,0.9-19.9,35.4-4.9s2,0,2,0L466-13L215.6-20.2z    "/> 	</a> 	<a> 		<path style="fill:#BFBFBF;stroke:#696969;stroke-width:2;stroke-miterlimit:10;" d="M-15.5-12.5l231.1-7.7L234,41.4    c0,0-14.1,4.6-18.3,16.1c-2.2,6-0.3,13.5,4.8,24c14.9,30.5,0,0,0,0l-40.1,16c0,0-27.5-11.5-32.5-8.5s-13.7,20.8-21.3,22.4    S89.5,119,86.5,117c-2-1.3,4.4-3.9,9.3-5.3c2.5-0.8,5,0.1,4.8-1.3c-0.2-2.2-8.9-0.5-8.9-0.5l-3.5-1.2l-3.3,1.9l-3.8-2.5l-7.6-1    c0,0,7.5,29,0,35s-12.7,4.2-12.7,4.2s-1,17.4,3.3,22.7c0.5,0.6,2.6,2.7,3.3,2.9c6,1.7,0,0,0,0l-6.5,7.9l-3.7,1.9    c0,0,3,0.4,4.1,1.3c2,1.7,5.4,4.8,8,9c2.7,4.3,4.8,10.3,3.3,15C69,218.5,39.5,269,39.5,269l-9,5.4L27,274l9,61.5L21.5,369    L61,402.5l-34,11c0,0-13.5-27-47-13S-15.5-12.5-15.5-12.5z"/> 	</a> </g> <g id="Limit_municipis"> 	<a> 		<path style="fill-rule:evenodd;clip-rule:evenodd;fill:#FFFBF0;stroke:#9A9A9A;stroke-width:2;stroke-miterlimit:10;" d="    M123.4,148.9c-6.5,11.1,7.1,36.6,7.9,45.6c-13.8,4.5-10.8,16.5-9.8,28.2c-8-2.2-13.1,19.6-12.5,27.9c1.1,15.7,0.9,12.5-7.8,28.3    c-7,12.5-58.4-6.5-70.7-4.3c8-4.4,10.1-9.8,14.2-15.6c3.7-5.4,28.5-54,28-52c2.8-11.2-5.4-22.2-15.7-25.3c4.1-2,6.5-7.6,10.5-9.8    c-10.2-8.7-5.4-14.2-6.6-25.6c23.3,0.8,14.3-24.1,13.1-39.4c5.4,1.2,7.6,0.4,11.5,3.6c1-1.7,5.2-2,6.3-0.5    c1.7-1.5,7.6-1.2,8.9,0.5c-4.7,0.8-17.6,5.6-14.1,6.6c11.7,2.5,29.6-4.9,40.2-5.6C126.5,110,123.4,148.9,123.4,148.9L123.4,148.9z    "/> 	</a> 	<a> 		<path style="fill-rule:evenodd;clip-rule:evenodd;fill:#FFFBF0;stroke:#9A9A9A;stroke-width:2;stroke-miterlimit:10;" d="    M220.6,81.5c0,0-18.6-28.2,13.4-40.1l4.3,19.4c0,0,7.7,7.8,21.2,1.8s51-1.5,51-1.5s2.4,29.1-8.6,33.5c0,0-26-8.3-25.9,9l0,0h-15.5    L220.6,81.5z"/> 	</a> 	<a> 		<path style="fill-rule:evenodd;clip-rule:evenodd;fill:#FFFBF0;stroke:#9A9A9A;stroke-width:2;stroke-miterlimit:10;" d="    M220.6,81.5l39.9,22H276c0,0-2.1-17.9,25.9-9c0,0,12.1,8,26.1,7.5l-2.5,28.5l-43.3,2.2l-7.2-11.5c0,0-7,14.7-14.5,18.7    c-2.8,1.5-4.9,4.2-5,7.3c-0.1,5.2,3.3,11.2,3.3,11.2l-41-17.5L220.6,81.5z"/> 	</a> 	<a> 		<path style="fill-rule:evenodd;clip-rule:evenodd;fill:#FFFBF0;stroke:#9A9A9A;stroke-width:2;stroke-miterlimit:10;" d="    M294.5,154c0,0-1.5,4.6-5,7.8c-4.3,3.9-10.4,8-19.5,5.3c-16.5-5-17.5-24.5-11.5-26s16.5-19.7,16.5-19.7l7.2,11.5l43.3-2.2L328,102    l26.6-40.5l18.8,10l-4.8,23.1c0,0,45.3,13.8,29.3,42.3s-7.3,32.7-7.3,32.7s22.8,4.8,16.8,58.3s-9,25.5-11,51s-14,35.5-14,35.5    s-7.5-10-9.5-4s-12.5,5-12.5-1S342.2,293,342.2,293s0.6-3.4-1.5-9.7c-3-9.1-9.9-22.4-16.7-25.3c0,0,5.7-33.7-4.7-43.1l6.5-31.6    L294.5,154z"/> 	</a> 	<a> 		<path style="fill-rule:evenodd;clip-rule:evenodd;fill:#FFFBF0;stroke:#9A9A9A;stroke-width:2;stroke-miterlimit:10;" d="    M217.8,141l39.2,15.5c0,0,5.5,12,17.5,12s20-14.5,20-14.5l31.3,29.3l-6.5,31.6c0,0-9.2-8.2-19-5.8S284.5,226,268,225    c0,0,2.4-17.6-6.6-19.3s-50.9-17.2-49.9-38.2C211.5,167.5,217.6,149,217.8,141z"/> 	</a> 	<a> 		<path style="fill-rule:evenodd;clip-rule:evenodd;fill:#FFFBF0;stroke:#9A9A9A;stroke-width:2;stroke-miterlimit:10;" d="    M126.7,111.4c0,0,7.8-4.9,15.3-15.9s11-9.5,25.5-2.5s14.2,3.9,20,1.5s33.1-13,33.1-13l-2.8,59.6c0,0-19.7,2.8-29,8.8    c-3,1.9-4.1,4.7-4.3,7.2c-0.2,3.7-2.7,4.6-3.8,5.8c-1.8,1.9-3.3,2.2-9.3,1.3c-18-3-23.1-26.3-23.1-26.3l-25,11.1L126.7,111.4z"/> 	</a> 	<a> 		<path style="fill-rule:evenodd;clip-rule:evenodd;fill:#FFFBF0;stroke:#9A9A9A;stroke-width:2;stroke-miterlimit:10;" d="    M211.5,167.5c0,0,3.5,19.5,26,28.5s31,8.5,31,19.5s0,10,0,10s-18-2-25,3s-15.5,19.5-36,10s-25-11.5-15.5-29s-3.5-21.5,4.5-27.5    S211.5,167.5,211.5,167.5z"/> 	</a> 	<a> 		<path style="fill-rule:evenodd;clip-rule:evenodd;fill:#FFFBF0;stroke:#9A9A9A;stroke-width:2;stroke-miterlimit:10;" d="M231,253    l19.3-2.6l9.3-25.8c0,0,15.4,0.9,21.4-3.1s18.7-23.2,38.3-6.6c0,0,10.7,4.1,4.7,43.1c0,0,15,9.5,18,33l1,18.5L330.5,324l-2,15.5    l-11.8-2.4l-8.2,7.9c0,0,1.5-18-9-22s-17.5-9-17.5-9s12.7-14.1,12.1-20.8l-39.6-0.2C254.5,293,238,285,231,253z"/> 	</a> 	<a> 		<path style="fill-rule:evenodd;clip-rule:evenodd;fill:#FFFBF0;stroke:#9A9A9A;stroke-width:2;stroke-miterlimit:10;" d="    M214.8,329.3l39.7-36.3l39.6,0.2c0,0-1.1,15.8-12.1,20.8c0,0,18.5,6.5,22.5,13s4,18,4,18l4.5,17.5c0,0-49.5,4.5-49.7,17.3    c0,0-33.8-15.8-31.3-29.8S214.8,329.3,214.8,329.3z"/> 	</a> 	<a> 		<path style="fill-rule:evenodd;clip-rule:evenodd;fill:#FFFBF0;stroke:#9A9A9A;stroke-width:2;stroke-miterlimit:10;" d="    M214.8,329.3l39.7-36.3c0,0-20-16.5-23.5-40c0,0-9-8.5-21.5-7.5s-54.5,6-44.5,30.5c0,0-9,16.5,7.5,19.5S214.1,322.6,214.8,329.3z"/> 	</a> 	<a> 		<path style="fill-rule:evenodd;clip-rule:evenodd;fill:#FFFBF0;stroke:#9A9A9A;stroke-width:2;stroke-miterlimit:10;" d="    M107.5,271c0,0-1.9-48.2,14-48.4c0,0-8.4-27.7,9.8-28.2c0,0-15-35.2-7.9-45.6l25.6-11.4c0,0,4,20,16.5,24.5s17.5,2,19.5-7.5    s32.8-13.5,32.8-13.5l-6.3,26.5c0,0-10.5,11-15,14.5s-2,7-0.5,11.5s-8,22.5-9,27s3.5,11.5,20.5,18s22,3,29-3.5s8.2-9.8,23.1-10.4    l-9.3,25.8L231,253c0,0-6-8.5-26.5-7.5S158,259,165,276l-9,1.5C156,277.5,137.5,256,107.5,271z"/> 	</a> </g> <g id="bl"> 	<rect x="57.1" y="146.3" style="opacity:0.6;fill:#FFFBF0;" width="51" height="13.5"/> 	<rect x="40.7" y="154.9" style="opacity:0.6;fill:#FFFBF0;" width="51" height="13.5"/> </g> <g id="Municipis"> 	<g> 		<path d="M165.7,116.4c0,0.3-0.1,0.6-0.2,0.8s-0.3,0.5-0.6,0.7c-0.3,0.2-0.6,0.4-0.9,0.5s-0.8,0.2-1.3,0.2c-0.5,0-1,0-1.4-0.1    c-0.4-0.1-0.8-0.2-1.3-0.4v-1.2h0.1c0.4,0.3,0.8,0.5,1.3,0.7c0.5,0.2,0.9,0.2,1.4,0.2c0.6,0,1.1-0.1,1.4-0.3    c0.3-0.2,0.5-0.5,0.5-0.9c0-0.3-0.1-0.6-0.2-0.7c-0.2-0.2-0.4-0.3-0.7-0.4c-0.2-0.1-0.5-0.1-0.8-0.2c-0.3,0-0.6-0.1-0.9-0.2    c-0.6-0.1-1.1-0.4-1.4-0.7c-0.3-0.3-0.5-0.8-0.5-1.3c0-0.6,0.3-1.1,0.8-1.5c0.5-0.4,1.2-0.6,2-0.6c0.5,0,1,0,1.4,0.1    c0.4,0.1,0.8,0.2,1.1,0.4v1.1h-0.1c-0.3-0.2-0.6-0.4-1.1-0.6c-0.5-0.2-0.9-0.2-1.4-0.2c-0.5,0-0.9,0.1-1.2,0.3    c-0.3,0.2-0.5,0.5-0.5,0.8c0,0.3,0.1,0.5,0.2,0.7s0.4,0.3,0.8,0.4c0.2,0,0.5,0.1,0.9,0.2c0.4,0.1,0.7,0.1,1,0.2    c0.5,0.1,0.9,0.4,1.2,0.6S165.7,115.8,165.7,116.4z"/> 		<path d="M171.7,115.8h-4c0,0.3,0.1,0.6,0.2,0.9s0.2,0.5,0.4,0.6c0.2,0.2,0.4,0.3,0.6,0.4s0.5,0.1,0.8,0.1c0.4,0,0.7-0.1,1.1-0.2    c0.4-0.1,0.6-0.3,0.8-0.4h0v1c-0.3,0.1-0.6,0.2-0.9,0.3s-0.7,0.1-1,0.1c-0.9,0-1.6-0.2-2.1-0.7c-0.5-0.5-0.8-1.2-0.8-2.1    c0-0.9,0.2-1.6,0.7-2.1s1.1-0.8,1.9-0.8c0.7,0,1.3,0.2,1.7,0.6c0.4,0.4,0.6,1,0.6,1.8V115.8z M170.8,115.1c0-0.5-0.1-0.9-0.4-1.1    s-0.6-0.4-1.1-0.4c-0.5,0-0.9,0.1-1.2,0.4s-0.5,0.6-0.5,1.1H170.8z"/> 		<path d="M176.5,114L176.5,114c-0.2,0-0.3-0.1-0.4-0.1c-0.1,0-0.3,0-0.5,0c-0.3,0-0.6,0.1-0.8,0.2c-0.3,0.1-0.5,0.3-0.8,0.5v3.9    h-0.9V113h0.9v0.8c0.4-0.3,0.7-0.5,1-0.6s0.6-0.2,0.9-0.2c0.2,0,0.3,0,0.3,0c0.1,0,0.2,0,0.3,0V114z"/> 		<path d="M178.4,112.1h-1v-1h1V112.1z M178.3,118.4h-0.9V113h0.9V118.4z"/> 		<path d="M184.7,118.4h-0.9v-3.1c0-0.3,0-0.5,0-0.7s-0.1-0.4-0.2-0.5c-0.1-0.1-0.2-0.2-0.4-0.3c-0.2-0.1-0.4-0.1-0.6-0.1    c-0.3,0-0.5,0.1-0.8,0.2s-0.5,0.3-0.8,0.5v4.1h-0.9V113h0.9v0.6c0.3-0.2,0.6-0.4,0.9-0.6s0.6-0.2,0.9-0.2c0.6,0,1,0.2,1.3,0.5    s0.5,0.9,0.5,1.5V118.4z"/> 		<path d="M191.1,113l-3.2,7.5h-1l1-2.3l-2.2-5.2h1l1.7,4l1.7-4H191.1z"/> 		<path d="M196.5,118.4h-0.9v-0.6c-0.1,0.1-0.2,0.1-0.3,0.2c-0.1,0.1-0.3,0.2-0.4,0.2c-0.2,0.1-0.3,0.1-0.5,0.2s-0.4,0.1-0.7,0.1    c-0.5,0-0.9-0.2-1.3-0.5s-0.5-0.7-0.5-1.2c0-0.4,0.1-0.7,0.3-1c0.2-0.3,0.4-0.5,0.8-0.6c0.3-0.1,0.7-0.2,1.2-0.3s1-0.1,1.5-0.1    v-0.1c0-0.2,0-0.4-0.1-0.5s-0.2-0.2-0.3-0.3c-0.1-0.1-0.3-0.1-0.5-0.2s-0.4,0-0.6,0c-0.2,0-0.5,0-0.8,0.1s-0.6,0.2-0.9,0.3h0v-0.9    c0.2,0,0.4-0.1,0.8-0.2s0.7-0.1,1-0.1c0.4,0,0.7,0,1,0.1s0.5,0.2,0.7,0.3c0.2,0.1,0.4,0.3,0.5,0.6s0.2,0.5,0.2,0.9V118.4z     M195.6,117.1v-1.5c-0.3,0-0.6,0-1,0.1s-0.7,0.1-0.9,0.1c-0.3,0.1-0.5,0.2-0.6,0.3c-0.2,0.2-0.2,0.4-0.2,0.7    c0,0.3,0.1,0.5,0.3,0.7c0.2,0.2,0.5,0.2,0.9,0.2c0.3,0,0.6-0.1,0.9-0.2C195.1,117.4,195.4,117.3,195.6,117.1z M195,112.1h-0.7    l-1.3-1.8h1.2L195,112.1z"/> 	</g> 	<g> 		<rect x="42.4" y="144.6" style="fill-rule:evenodd;clip-rule:evenodd;fill:none;" width="74.2" height="21"/> 		<path d="M63.8,153.1c0,0.3-0.1,0.6-0.2,0.8s-0.3,0.5-0.6,0.7c-0.3,0.2-0.6,0.4-0.9,0.5s-0.8,0.2-1.3,0.2c-0.5,0-1,0-1.4-0.1    s-0.8-0.2-1.3-0.4v-1.2h0.1c0.4,0.3,0.8,0.5,1.3,0.7s0.9,0.2,1.4,0.2c0.6,0,1.1-0.1,1.4-0.3c0.3-0.2,0.5-0.5,0.5-0.9    c0-0.3-0.1-0.6-0.2-0.7c-0.2-0.2-0.4-0.3-0.7-0.4c-0.2-0.1-0.5-0.1-0.8-0.2c-0.3,0-0.6-0.1-0.9-0.2c-0.6-0.1-1.1-0.4-1.4-0.7    s-0.5-0.8-0.5-1.3c0-0.6,0.3-1.1,0.8-1.5s1.2-0.6,2-0.6c0.5,0,1,0,1.4,0.1c0.4,0.1,0.8,0.2,1.1,0.4v1.1h-0.1    c-0.3-0.2-0.6-0.4-1.1-0.6c-0.5-0.2-0.9-0.2-1.4-0.2c-0.5,0-0.9,0.1-1.2,0.3s-0.5,0.5-0.5,0.8c0,0.3,0.1,0.5,0.2,0.7    s0.4,0.3,0.8,0.4c0.2,0,0.5,0.1,0.9,0.2c0.4,0.1,0.7,0.1,1,0.2c0.5,0.1,0.9,0.4,1.2,0.6S63.8,152.6,63.8,153.1z"/> 		<path d="M69.5,155.2h-0.9v-0.6c-0.1,0.1-0.2,0.1-0.3,0.2c-0.1,0.1-0.3,0.2-0.4,0.2c-0.2,0.1-0.3,0.1-0.5,0.2    c-0.2,0.1-0.4,0.1-0.7,0.1c-0.5,0-0.9-0.2-1.3-0.5s-0.5-0.7-0.5-1.2c0-0.4,0.1-0.7,0.3-1c0.2-0.3,0.4-0.5,0.8-0.6    c0.3-0.1,0.7-0.2,1.2-0.3c0.5-0.1,1-0.1,1.5-0.1v-0.1c0-0.2,0-0.4-0.1-0.5s-0.2-0.2-0.3-0.3c-0.1-0.1-0.3-0.1-0.5-0.2    c-0.2,0-0.4,0-0.6,0c-0.2,0-0.5,0-0.8,0.1c-0.3,0.1-0.6,0.2-0.9,0.3h0v-0.9c0.2,0,0.4-0.1,0.8-0.2c0.3-0.1,0.7-0.1,1-0.1    c0.4,0,0.7,0,1,0.1c0.3,0.1,0.5,0.2,0.7,0.3c0.2,0.1,0.4,0.3,0.5,0.6s0.2,0.5,0.2,0.9V155.2z M68.6,153.8v-1.5c-0.3,0-0.6,0-1,0.1    c-0.4,0-0.7,0.1-0.9,0.1c-0.3,0.1-0.5,0.2-0.6,0.3c-0.2,0.2-0.2,0.4-0.2,0.7c0,0.3,0.1,0.5,0.3,0.7c0.2,0.2,0.5,0.2,0.9,0.2    c0.3,0,0.6-0.1,0.9-0.2C68.1,154.1,68.4,154,68.6,153.8z"/> 		<path d="M75.8,155.2h-0.9V152c0-0.3,0-0.5,0-0.7s-0.1-0.4-0.2-0.5c-0.1-0.1-0.2-0.2-0.4-0.3c-0.2-0.1-0.4-0.1-0.6-0.1    c-0.3,0-0.5,0.1-0.8,0.2s-0.5,0.3-0.8,0.5v4.1h-0.9v-5.5h0.9v0.6c0.3-0.2,0.6-0.4,0.9-0.6c0.3-0.1,0.6-0.2,0.9-0.2    c0.6,0,1,0.2,1.3,0.5c0.3,0.4,0.5,0.9,0.5,1.5V155.2z"/> 		<path d="M80.4,155.1c-0.2,0-0.4,0.1-0.6,0.1c-0.2,0-0.4,0-0.5,0c-0.6,0-1-0.1-1.3-0.4c-0.3-0.3-0.4-0.8-0.4-1.4v-2.9H77v-0.8h0.6    v-1.6h0.9v1.6h1.9v0.8h-1.9v2.5c0,0.3,0,0.5,0,0.7c0,0.2,0.1,0.3,0.1,0.5c0.1,0.1,0.2,0.2,0.3,0.3c0.1,0.1,0.3,0.1,0.6,0.1    c0.1,0,0.3,0,0.5-0.1c0.2,0,0.3-0.1,0.4-0.1h0V155.1z"/> 		<path d="M91.6,155.2h-1v-6.3l-2,4.3H88l-2-4.3v6.3h-0.9v-7.3h1.3l1.9,4l1.9-4h1.3V155.2z"/> 		<path d="M94.5,148.8h-1v-1h1V148.8z M94.4,155.2h-0.9v-5.5h0.9V155.2z"/> 		<path d="M100.6,157.2h-0.9v-2.6c-0.3,0.2-0.6,0.4-0.8,0.5s-0.6,0.2-0.9,0.2c-0.6,0-1.2-0.3-1.6-0.7s-0.6-1.2-0.6-2.1    c0-0.5,0.1-0.9,0.2-1.2s0.3-0.7,0.5-0.9c0.2-0.2,0.5-0.4,0.8-0.6s0.6-0.2,0.9-0.2c0.3,0,0.6,0,0.8,0.1s0.5,0.2,0.7,0.3l0.1-0.2    h0.9V157.2z M99.7,153.8v-3.1c-0.3-0.1-0.5-0.2-0.7-0.2s-0.4-0.1-0.6-0.1c-0.5,0-0.9,0.2-1.2,0.5s-0.4,0.9-0.4,1.5    c0,0.6,0.1,1.1,0.3,1.5s0.6,0.5,1.1,0.5c0.3,0,0.5-0.1,0.8-0.2S99.5,154,99.7,153.8z"/> 		<path d="M107,155.2h-0.9v-0.6c-0.3,0.2-0.6,0.4-0.9,0.6s-0.6,0.2-0.9,0.2c-0.6,0-1-0.2-1.3-0.5c-0.3-0.4-0.5-0.9-0.5-1.5v-3.5h0.9    v3.1c0,0.3,0,0.5,0,0.7c0,0.2,0.1,0.4,0.2,0.5c0.1,0.1,0.2,0.2,0.3,0.3c0.1,0.1,0.3,0.1,0.6,0.1c0.2,0,0.5-0.1,0.8-0.2    c0.3-0.1,0.5-0.3,0.8-0.5v-4.1h0.9V155.2z"/> 		<path d="M113.3,152.5h-4c0,0.3,0.1,0.6,0.2,0.9c0.1,0.2,0.2,0.5,0.4,0.6c0.2,0.2,0.4,0.3,0.6,0.4c0.2,0.1,0.5,0.1,0.8,0.1    c0.4,0,0.7-0.1,1.1-0.2s0.6-0.3,0.8-0.4h0v1c-0.3,0.1-0.6,0.2-0.9,0.3s-0.7,0.1-1,0.1c-0.9,0-1.6-0.2-2.1-0.7s-0.8-1.2-0.8-2.1    c0-0.9,0.2-1.6,0.7-2.1c0.5-0.5,1.1-0.8,1.9-0.8c0.7,0,1.3,0.2,1.7,0.6c0.4,0.4,0.6,1,0.6,1.8V152.5z M112.5,151.8    c0-0.5-0.1-0.9-0.4-1.1s-0.6-0.4-1.1-0.4c-0.5,0-0.9,0.1-1.2,0.4c-0.3,0.3-0.5,0.6-0.5,1.1H112.5z"/> 		<path d="M115.7,155.2h-0.9v-7.6h0.9V155.2z"/> 		<path d="M47.7,165.2h-0.9v-0.6c-0.3,0.2-0.5,0.4-0.8,0.5c-0.3,0.1-0.6,0.2-0.9,0.2c-0.7,0-1.2-0.3-1.6-0.8s-0.6-1.2-0.6-2.1    c0-0.5,0.1-0.9,0.2-1.2s0.3-0.7,0.5-0.9c0.2-0.2,0.5-0.4,0.8-0.6s0.6-0.2,0.9-0.2c0.3,0,0.5,0,0.8,0.1c0.2,0.1,0.5,0.2,0.7,0.3    v-2.4h0.9V165.2z M46.8,163.8v-3.1c-0.2-0.1-0.5-0.2-0.7-0.2s-0.4-0.1-0.6-0.1c-0.5,0-0.9,0.2-1.2,0.5s-0.4,0.9-0.4,1.5    c0,0.6,0.1,1.1,0.3,1.5s0.6,0.5,1.1,0.5c0.3,0,0.5-0.1,0.8-0.2C46.3,164.1,46.6,164,46.8,163.8z"/> 		<path d="M54.1,162.5h-4c0,0.3,0.1,0.6,0.2,0.9c0.1,0.2,0.2,0.5,0.4,0.6c0.2,0.2,0.4,0.3,0.6,0.4c0.2,0.1,0.5,0.1,0.8,0.1    c0.4,0,0.7-0.1,1.1-0.2s0.6-0.3,0.8-0.4h0v1c-0.3,0.1-0.6,0.2-0.9,0.3s-0.7,0.1-1,0.1c-0.9,0-1.6-0.2-2.1-0.7s-0.8-1.2-0.8-2.1    c0-0.9,0.2-1.6,0.7-2.1c0.5-0.5,1.1-0.8,1.9-0.8c0.7,0,1.3,0.2,1.7,0.6c0.4,0.4,0.6,1,0.6,1.8V162.5z M53.2,161.8    c0-0.5-0.1-0.9-0.4-1.1s-0.6-0.4-1.1-0.4c-0.5,0-0.9,0.1-1.2,0.4c-0.3,0.3-0.5,0.6-0.5,1.1H53.2z"/> 		<path d="M64.7,164.6c-0.2,0.1-0.3,0.2-0.5,0.2c-0.1,0.1-0.3,0.1-0.6,0.2c-0.2,0.1-0.4,0.1-0.6,0.2c-0.2,0-0.5,0.1-0.8,0.1    c-0.5,0-1-0.1-1.4-0.2c-0.4-0.1-0.8-0.4-1.1-0.7c-0.3-0.3-0.6-0.7-0.7-1.2s-0.3-1-0.3-1.7c0-0.6,0.1-1.1,0.3-1.6    c0.2-0.5,0.4-0.9,0.7-1.2c0.3-0.3,0.7-0.6,1.1-0.7c0.4-0.2,0.9-0.2,1.5-0.2c0.4,0,0.8,0,1.2,0.1c0.4,0.1,0.8,0.3,1.3,0.5v1.1h-0.1    c-0.4-0.3-0.8-0.6-1.2-0.7c-0.4-0.2-0.8-0.2-1.3-0.2c-0.4,0-0.7,0.1-1,0.2c-0.3,0.1-0.6,0.3-0.8,0.6c-0.2,0.2-0.4,0.6-0.5,0.9    c-0.1,0.4-0.2,0.8-0.2,1.3c0,0.5,0.1,1,0.2,1.3c0.1,0.4,0.3,0.7,0.5,0.9c0.2,0.2,0.5,0.4,0.8,0.5c0.3,0.1,0.6,0.2,1,0.2    c0.5,0,0.9-0.1,1.3-0.2c0.4-0.2,0.8-0.4,1.1-0.7h0.1V164.6z"/> 		<path d="M70.2,165.2h-0.9v-0.6c-0.1,0.1-0.2,0.1-0.3,0.2c-0.1,0.1-0.3,0.2-0.4,0.2c-0.2,0.1-0.3,0.1-0.5,0.2    c-0.2,0.1-0.4,0.1-0.7,0.1c-0.5,0-0.9-0.2-1.3-0.5s-0.5-0.7-0.5-1.2c0-0.4,0.1-0.7,0.3-1c0.2-0.3,0.4-0.5,0.8-0.6    c0.3-0.1,0.7-0.2,1.2-0.3c0.5-0.1,1-0.1,1.5-0.1v-0.1c0-0.2,0-0.4-0.1-0.5s-0.2-0.2-0.3-0.3c-0.1-0.1-0.3-0.1-0.5-0.2    c-0.2,0-0.4,0-0.6,0c-0.2,0-0.5,0-0.8,0.1c-0.3,0.1-0.6,0.2-0.9,0.3h0v-0.9c0.2,0,0.4-0.1,0.8-0.2c0.3-0.1,0.7-0.1,1-0.1    c0.4,0,0.7,0,1,0.1c0.3,0.1,0.5,0.2,0.7,0.3c0.2,0.1,0.4,0.3,0.5,0.6s0.2,0.5,0.2,0.9V165.2z M69.3,163.8v-1.5c-0.3,0-0.6,0-1,0.1    c-0.4,0-0.7,0.1-0.9,0.1c-0.3,0.1-0.5,0.2-0.6,0.3c-0.2,0.2-0.2,0.4-0.2,0.7c0,0.3,0.1,0.5,0.3,0.7c0.2,0.2,0.5,0.2,0.9,0.2    c0.3,0,0.6-0.1,0.9-0.2C68.8,164.1,69.1,164,69.3,163.8z"/> 		<path d="M79.9,165.2H79V162c0-0.2,0-0.5,0-0.7s-0.1-0.4-0.1-0.5c-0.1-0.1-0.2-0.2-0.3-0.3s-0.3-0.1-0.6-0.1    c-0.3,0-0.5,0.1-0.8,0.2s-0.5,0.3-0.8,0.5c0,0.1,0,0.2,0,0.3s0,0.2,0,0.3v3.5h-0.9V162c0-0.2,0-0.5,0-0.7s-0.1-0.4-0.1-0.5    c-0.1-0.1-0.2-0.2-0.3-0.3s-0.3-0.1-0.6-0.1c-0.3,0-0.5,0.1-0.8,0.2c-0.3,0.1-0.5,0.3-0.8,0.5v4.1H72v-5.5h0.9v0.6    c0.3-0.2,0.6-0.4,0.9-0.6c0.3-0.1,0.6-0.2,0.9-0.2c0.4,0,0.7,0.1,0.9,0.2s0.5,0.4,0.6,0.6c0.4-0.3,0.7-0.5,1-0.7s0.6-0.2,1-0.2    c0.6,0,1,0.2,1.3,0.5s0.4,0.9,0.4,1.5V165.2z"/> 		<path d="M86.5,162.4c0,0.4-0.1,0.8-0.2,1.2s-0.3,0.7-0.5,0.9c-0.2,0.2-0.5,0.4-0.8,0.6s-0.6,0.2-0.9,0.2c-0.3,0-0.5,0-0.8-0.1    s-0.5-0.2-0.7-0.3v2.3h-0.9v-7.5h0.9v0.6c0.2-0.2,0.5-0.4,0.8-0.5s0.6-0.2,1-0.2c0.7,0,1.2,0.2,1.5,0.7S86.5,161.5,86.5,162.4z     M85.6,162.4c0-0.7-0.1-1.1-0.3-1.5s-0.6-0.5-1-0.5c-0.3,0-0.5,0.1-0.8,0.2s-0.5,0.3-0.8,0.4v3.1c0.3,0.1,0.5,0.2,0.7,0.2    s0.4,0.1,0.6,0.1c0.5,0,0.9-0.2,1.2-0.5S85.6,163.1,85.6,162.4z"/> 		<path d="M95.9,165.2H95V162c0-0.2,0-0.5,0-0.7c0-0.2-0.1-0.4-0.1-0.5c-0.1-0.1-0.2-0.2-0.3-0.3c-0.1-0.1-0.3-0.1-0.6-0.1    c-0.3,0-0.5,0.1-0.8,0.2c-0.3,0.1-0.5,0.3-0.8,0.5c0,0.1,0,0.2,0,0.3c0,0.1,0,0.2,0,0.3v3.5h-0.9V162c0-0.2,0-0.5,0-0.7    c0-0.2-0.1-0.4-0.1-0.5c-0.1-0.1-0.2-0.2-0.3-0.3c-0.1-0.1-0.3-0.1-0.6-0.1c-0.3,0-0.5,0.1-0.8,0.2c-0.3,0.1-0.5,0.3-0.8,0.5v4.1    h-0.9v-5.5h0.9v0.6c0.3-0.2,0.6-0.4,0.9-0.6c0.3-0.1,0.6-0.2,0.9-0.2c0.4,0,0.7,0.1,0.9,0.2s0.5,0.4,0.6,0.6    c0.4-0.3,0.7-0.5,1-0.7c0.3-0.1,0.6-0.2,1-0.2c0.6,0,1,0.2,1.3,0.5c0.3,0.4,0.4,0.9,0.4,1.5V165.2z"/> 		<path d="M101.9,165.2H101v-0.6c-0.1,0.1-0.2,0.1-0.3,0.2c-0.1,0.1-0.3,0.2-0.4,0.2c-0.2,0.1-0.3,0.1-0.5,0.2    c-0.2,0.1-0.4,0.1-0.7,0.1c-0.5,0-0.9-0.2-1.3-0.5s-0.5-0.7-0.5-1.2c0-0.4,0.1-0.7,0.3-1c0.2-0.3,0.4-0.5,0.8-0.6    c0.3-0.1,0.7-0.2,1.2-0.3c0.5-0.1,1-0.1,1.5-0.1v-0.1c0-0.2,0-0.4-0.1-0.5s-0.2-0.2-0.3-0.3c-0.1-0.1-0.3-0.1-0.5-0.2    c-0.2,0-0.4,0-0.6,0c-0.2,0-0.5,0-0.8,0.1c-0.3,0.1-0.6,0.2-0.9,0.3h0v-0.9c0.2,0,0.4-0.1,0.8-0.2c0.3-0.1,0.7-0.1,1-0.1    c0.4,0,0.7,0,1,0.1c0.3,0.1,0.5,0.2,0.7,0.3c0.2,0.1,0.4,0.3,0.5,0.6s0.2,0.5,0.2,0.9V165.2z M101,163.8v-1.5c-0.3,0-0.6,0-1,0.1    c-0.4,0-0.7,0.1-0.9,0.1c-0.3,0.1-0.5,0.2-0.6,0.3c-0.2,0.2-0.2,0.4-0.2,0.7c0,0.3,0.1,0.5,0.3,0.7c0.2,0.2,0.5,0.2,0.9,0.2    c0.3,0,0.6-0.1,0.9-0.2C100.5,164.1,100.8,164,101,163.8z"/> 		<path d="M105.3,165.3c0,0.6-0.2,1.1-0.5,1.4c-0.3,0.3-0.8,0.5-1.3,0.5c-0.1,0-0.3,0-0.5,0c-0.2,0-0.4-0.1-0.5-0.1v-0.9h0    c0.1,0,0.2,0.1,0.4,0.1c0.2,0,0.3,0.1,0.5,0.1c0.2,0,0.4,0,0.6-0.1c0.1-0.1,0.3-0.2,0.3-0.3c0.1-0.1,0.1-0.3,0.1-0.5    c0-0.2,0-0.4,0-0.7v-4.4h-1.1v-0.8h2.1V165.3z M105.4,158.8h-1v-1h1V158.8z"/> 		<path d="M111.8,162.4c0,0.9-0.2,1.6-0.7,2.1c-0.5,0.5-1.1,0.8-1.8,0.8c-0.8,0-1.4-0.3-1.8-0.8s-0.7-1.2-0.7-2.1s0.2-1.6,0.7-2.1    s1.1-0.8,1.8-0.8c0.8,0,1.4,0.3,1.8,0.8C111.5,160.8,111.8,161.5,111.8,162.4z M110.8,162.4c0-0.7-0.1-1.2-0.4-1.6    c-0.3-0.3-0.7-0.5-1.2-0.5c-0.5,0-0.9,0.2-1.2,0.5c-0.3,0.3-0.4,0.9-0.4,1.6c0,0.7,0.1,1.2,0.4,1.6c0.3,0.4,0.7,0.5,1.2,0.5    c0.5,0,0.9-0.2,1.1-0.5S110.8,163.1,110.8,162.4z"/> 		<path d="M116.6,160.7L116.6,160.7c-0.2,0-0.3-0.1-0.4-0.1s-0.3,0-0.5,0c-0.3,0-0.6,0.1-0.8,0.2s-0.5,0.3-0.8,0.5v3.9h-0.9v-5.5    h0.9v0.8c0.4-0.3,0.7-0.5,1-0.6s0.6-0.2,0.9-0.2c0.2,0,0.3,0,0.3,0s0.2,0,0.3,0V160.7z"/> 	</g> 	<g> 		<path d="M140.1,209.9c0,0.3-0.1,0.6-0.2,0.9c-0.1,0.3-0.3,0.5-0.5,0.7c-0.3,0.3-0.5,0.4-0.9,0.6c-0.3,0.1-0.8,0.2-1.3,0.2h-1v2.7    h-1v-7.3h2c0.4,0,0.8,0,1.1,0.1s0.6,0.2,0.8,0.3c0.3,0.2,0.5,0.4,0.6,0.7C140,209.1,140.1,209.4,140.1,209.9z M139.1,209.9    c0-0.3,0-0.5-0.1-0.7s-0.2-0.3-0.4-0.5c-0.2-0.1-0.3-0.2-0.5-0.2s-0.5-0.1-0.8-0.1h-1v2.9h0.8c0.4,0,0.7,0,1-0.1    c0.2-0.1,0.4-0.2,0.6-0.3c0.2-0.2,0.3-0.3,0.3-0.5C139,210.3,139.1,210.1,139.1,209.9z"/> 		<path d="M145.7,212.2c0,0.9-0.2,1.6-0.7,2.1c-0.5,0.5-1.1,0.8-1.8,0.8c-0.8,0-1.4-0.3-1.8-0.8c-0.5-0.5-0.7-1.2-0.7-2.1    s0.2-1.6,0.7-2.1c0.5-0.5,1.1-0.8,1.8-0.8c0.8,0,1.4,0.3,1.8,0.8C145.5,210.6,145.7,211.3,145.7,212.2z M144.7,212.2    c0-0.7-0.1-1.2-0.4-1.6c-0.3-0.3-0.7-0.5-1.2-0.5c-0.5,0-0.9,0.2-1.2,0.5c-0.3,0.3-0.4,0.9-0.4,1.6c0,0.7,0.1,1.2,0.4,1.6    c0.3,0.4,0.7,0.5,1.2,0.5c0.5,0,0.9-0.2,1.1-0.5C144.6,213.4,144.7,212.9,144.7,212.2z"/> 		<path d="M150.5,210.5L150.5,210.5c-0.2,0-0.3-0.1-0.4-0.1c-0.1,0-0.3,0-0.5,0c-0.3,0-0.6,0.1-0.8,0.2c-0.3,0.1-0.5,0.3-0.8,0.5    v3.9h-0.9v-5.5h0.9v0.8c0.4-0.3,0.7-0.5,1-0.6s0.6-0.2,0.9-0.2c0.2,0,0.3,0,0.3,0c0.1,0,0.2,0,0.3,0V210.5z"/> 		<path d="M155.8,216.9h-0.9v-2.6c-0.3,0.2-0.6,0.4-0.8,0.5c-0.3,0.1-0.6,0.2-0.9,0.2c-0.6,0-1.2-0.3-1.6-0.8    c-0.4-0.5-0.6-1.2-0.6-2.1c0-0.5,0.1-0.9,0.2-1.2c0.1-0.4,0.3-0.7,0.5-0.9c0.2-0.2,0.5-0.4,0.8-0.6c0.3-0.1,0.6-0.2,0.9-0.2    c0.3,0,0.6,0,0.8,0.1c0.2,0.1,0.5,0.2,0.7,0.3l0.1-0.2h0.9V216.9z M154.9,213.5v-3.1c-0.3-0.1-0.5-0.2-0.7-0.2    c-0.2,0-0.4-0.1-0.6-0.1c-0.5,0-0.9,0.2-1.2,0.5c-0.3,0.4-0.4,0.9-0.4,1.5c0,0.6,0.1,1.1,0.3,1.5c0.2,0.3,0.6,0.5,1.1,0.5    c0.3,0,0.5-0.1,0.8-0.2C154.4,213.9,154.7,213.7,154.9,213.5z"/> 		<path d="M162.1,214.9h-0.9v-0.6c-0.3,0.2-0.6,0.4-0.9,0.6c-0.3,0.1-0.6,0.2-0.9,0.2c-0.6,0-1-0.2-1.3-0.5    c-0.3-0.3-0.5-0.9-0.5-1.5v-3.5h0.9v3.1c0,0.3,0,0.5,0,0.7c0,0.2,0.1,0.4,0.2,0.5c0.1,0.1,0.2,0.2,0.3,0.3    c0.1,0.1,0.3,0.1,0.6,0.1c0.2,0,0.5-0.1,0.8-0.2c0.3-0.1,0.5-0.3,0.8-0.5v-4.1h0.9V214.9z"/> 		<path d="M168.5,212.3h-4c0,0.3,0.1,0.6,0.2,0.9c0.1,0.2,0.2,0.5,0.4,0.6c0.2,0.2,0.4,0.3,0.6,0.4c0.2,0.1,0.5,0.1,0.8,0.1    c0.4,0,0.7-0.1,1.1-0.2c0.4-0.1,0.6-0.3,0.8-0.4h0v1c-0.3,0.1-0.6,0.2-0.9,0.3s-0.7,0.1-1,0.1c-0.9,0-1.6-0.2-2.1-0.7    c-0.5-0.5-0.8-1.2-0.8-2.1c0-0.9,0.2-1.6,0.7-2.1c0.5-0.5,1.1-0.8,1.9-0.8c0.7,0,1.3,0.2,1.7,0.6c0.4,0.4,0.6,1,0.6,1.8V212.3z     M167.6,211.6c0-0.5-0.1-0.9-0.4-1.1s-0.6-0.4-1.1-0.4c-0.5,0-0.9,0.1-1.2,0.4c-0.3,0.3-0.5,0.6-0.5,1.1H167.6z"/> 		<path d="M173.3,210.5L173.3,210.5c-0.2,0-0.3-0.1-0.4-0.1c-0.1,0-0.3,0-0.5,0c-0.3,0-0.6,0.1-0.8,0.2c-0.3,0.1-0.5,0.3-0.8,0.5    v3.9h-0.9v-5.5h0.9v0.8c0.4-0.3,0.7-0.5,1-0.6c0.3-0.1,0.6-0.2,0.9-0.2c0.2,0,0.3,0,0.3,0c0.1,0,0.2,0,0.3,0V210.5z"/> 		<path d="M178.7,212.3h-4c0,0.3,0.1,0.6,0.2,0.9c0.1,0.2,0.2,0.5,0.4,0.6c0.2,0.2,0.4,0.3,0.6,0.4c0.2,0.1,0.5,0.1,0.8,0.1    c0.4,0,0.7-0.1,1.1-0.2c0.4-0.1,0.6-0.3,0.8-0.4h0v1c-0.3,0.1-0.6,0.2-0.9,0.3s-0.7,0.1-1,0.1c-0.9,0-1.6-0.2-2.1-0.7    c-0.5-0.5-0.8-1.2-0.8-2.1c0-0.9,0.2-1.6,0.7-2.1c0.5-0.5,1.1-0.8,1.9-0.8c0.7,0,1.3,0.2,1.7,0.6c0.4,0.4,0.6,1,0.6,1.8V212.3z     M177.8,211.6c0-0.5-0.1-0.9-0.4-1.1s-0.6-0.4-1.1-0.4c-0.5,0-0.9,0.1-1.2,0.4c-0.3,0.3-0.5,0.6-0.5,1.1H177.8z"/> 		<path d="M183.7,212.4c0.2,0.2,0.3,0.6,0.3,1c0,0.5-0.2,0.9-0.6,1.2c-0.4,0.3-1,0.5-1.7,0.5c-0.4,0-0.8,0-1.1-0.1    c-0.3-0.1-0.6-0.2-0.8-0.3v-1h0c0.3,0.2,0.6,0.4,1,0.5c0.4,0.1,0.7,0.2,1,0.2c0.4,0,0.7-0.1,0.9-0.2c0.2-0.1,0.3-0.3,0.3-0.6    c0-0.2-0.1-0.4-0.2-0.5c-0.1-0.1-0.4-0.2-0.7-0.3c-0.1,0-0.3-0.1-0.5-0.1s-0.4-0.1-0.6-0.1c-0.5-0.1-0.8-0.3-1-0.6    c-0.2-0.2-0.3-0.5-0.3-0.9c0-0.2,0-0.4,0.1-0.6c0.1-0.2,0.2-0.4,0.4-0.5c0.2-0.2,0.4-0.3,0.7-0.4c0.3-0.1,0.6-0.1,0.9-0.1    c0.3,0,0.7,0,1,0.1c0.3,0.1,0.6,0.2,0.8,0.3v1h0c-0.2-0.2-0.5-0.3-0.9-0.4c-0.3-0.1-0.7-0.2-1-0.2c-0.3,0-0.6,0.1-0.8,0.2    c-0.2,0.1-0.3,0.3-0.3,0.6c0,0.2,0.1,0.4,0.2,0.5c0.1,0.1,0.4,0.2,0.7,0.3c0.2,0,0.4,0.1,0.6,0.1s0.4,0.1,0.5,0.1    C183.1,212,183.5,212.2,183.7,212.4L183.7,212.4z"/> 	</g> 	<g> 		<path d="M209.6,212.7c0,0.4-0.1,0.7-0.2,1s-0.3,0.5-0.6,0.7c-0.3,0.2-0.6,0.4-0.9,0.5s-0.7,0.1-1.2,0.1h-2.6v-7.3h2.2    c0.5,0,0.9,0,1.2,0.1s0.5,0.1,0.8,0.2c0.3,0.1,0.5,0.3,0.6,0.5c0.1,0.2,0.2,0.5,0.2,0.8c0,0.3-0.1,0.6-0.3,0.9s-0.4,0.4-0.7,0.6v0    c0.5,0.1,0.9,0.3,1.2,0.6S209.6,212.2,209.6,212.7z M208,209.4c0-0.2,0-0.3-0.1-0.4s-0.2-0.2-0.3-0.3c-0.2-0.1-0.3-0.1-0.6-0.2    c-0.2,0-0.5,0-0.8,0h-1.2v2.1h1.3c0.3,0,0.5,0,0.7,0c0.2,0,0.3-0.1,0.5-0.2c0.2-0.1,0.3-0.2,0.3-0.4S208,209.6,208,209.4z     M208.6,212.7c0-0.3,0-0.5-0.1-0.7s-0.2-0.3-0.5-0.4c-0.2-0.1-0.3-0.1-0.6-0.2c-0.2,0-0.5,0-0.8,0h-1.5v2.7h1.3c0.4,0,0.8,0,1-0.1    c0.3,0,0.5-0.1,0.7-0.2c0.2-0.1,0.3-0.3,0.4-0.4C208.5,213.2,208.6,213,208.6,212.7z"/> 		<path d="M215.1,214.9h-0.9v-0.6c-0.1,0.1-0.2,0.1-0.3,0.2c-0.1,0.1-0.3,0.2-0.4,0.2c-0.2,0.1-0.3,0.1-0.5,0.2    c-0.2,0.1-0.4,0.1-0.7,0.1c-0.5,0-0.9-0.2-1.3-0.5s-0.5-0.7-0.5-1.2c0-0.4,0.1-0.7,0.3-1c0.2-0.3,0.4-0.5,0.8-0.6    c0.3-0.1,0.7-0.2,1.2-0.3c0.5-0.1,1-0.1,1.5-0.1v-0.1c0-0.2,0-0.4-0.1-0.5s-0.2-0.2-0.3-0.3c-0.1-0.1-0.3-0.1-0.5-0.2    c-0.2,0-0.4,0-0.6,0c-0.2,0-0.5,0-0.8,0.1c-0.3,0.1-0.6,0.2-0.9,0.3h0v-0.9c0.2,0,0.4-0.1,0.8-0.2c0.3-0.1,0.7-0.1,1-0.1    c0.4,0,0.7,0,1,0.1c0.3,0.1,0.5,0.2,0.7,0.3c0.2,0.1,0.4,0.3,0.5,0.6s0.2,0.5,0.2,0.9V214.9z M214.2,213.6v-1.5    c-0.3,0-0.6,0-1,0.1c-0.4,0-0.7,0.1-0.9,0.1c-0.3,0.1-0.5,0.2-0.6,0.3c-0.2,0.2-0.2,0.4-0.2,0.7c0,0.3,0.1,0.5,0.3,0.7    c0.2,0.2,0.5,0.2,0.9,0.2c0.3,0,0.6-0.1,0.9-0.2C213.7,213.9,214,213.8,214.2,213.6z"/> 		<path d="M221.4,214.9h-0.9v-3.1c0-0.3,0-0.5,0-0.7s-0.1-0.4-0.2-0.5c-0.1-0.1-0.2-0.2-0.4-0.3c-0.2-0.1-0.4-0.1-0.6-0.1    c-0.3,0-0.5,0.1-0.8,0.2s-0.5,0.3-0.8,0.5v4.1h-0.9v-5.5h0.9v0.6c0.3-0.2,0.6-0.4,0.9-0.6c0.3-0.1,0.6-0.2,0.9-0.2    c0.6,0,1,0.2,1.3,0.5c0.3,0.4,0.5,0.9,0.5,1.5V214.9z"/> 		<path d="M227.8,209.5l-3.2,7.5h-1l1-2.3l-2.2-5.2h1l1.7,4l1.7-4H227.8z"/> 		<path d="M233.6,212.2c0,0.9-0.2,1.6-0.7,2.1s-1.1,0.8-1.8,0.8c-0.8,0-1.4-0.3-1.8-0.8s-0.7-1.2-0.7-2.1s0.2-1.6,0.7-2.1    s1.1-0.8,1.8-0.8c0.8,0,1.4,0.3,1.8,0.8S233.6,211.3,233.6,212.2z M232.6,212.2c0-0.7-0.1-1.2-0.4-1.6s-0.7-0.5-1.2-0.5    c-0.5,0-0.9,0.2-1.2,0.5c-0.3,0.3-0.4,0.9-0.4,1.6c0,0.7,0.1,1.2,0.4,1.6s0.7,0.5,1.2,0.5c0.5,0,0.9-0.2,1.2-0.5    C232.5,213.4,232.6,212.9,232.6,212.2z"/> 		<path d="M235.9,214.9H235v-7.6h0.9V214.9z"/> 		<path d="M242.3,212.3h-4c0,0.3,0.1,0.6,0.2,0.9c0.1,0.2,0.2,0.5,0.4,0.6c0.2,0.2,0.4,0.3,0.6,0.4c0.2,0.1,0.5,0.1,0.8,0.1    c0.4,0,0.7-0.1,1.1-0.2s0.6-0.3,0.8-0.4h0v1c-0.3,0.1-0.6,0.2-0.9,0.3s-0.7,0.1-1,0.1c-0.9,0-1.6-0.2-2.1-0.7s-0.8-1.2-0.8-2.1    c0-0.9,0.2-1.6,0.7-2.1c0.5-0.5,1.1-0.8,1.9-0.8c0.7,0,1.3,0.2,1.7,0.6c0.4,0.4,0.6,1,0.6,1.8V212.3z M241.4,211.6    c0-0.5-0.1-0.9-0.4-1.1s-0.6-0.4-1.1-0.4c-0.5,0-0.9,0.1-1.2,0.4c-0.3,0.3-0.5,0.6-0.5,1.1H241.4z"/> 		<path d="M247.3,212.4c0.2,0.2,0.3,0.6,0.3,1c0,0.5-0.2,0.9-0.6,1.2c-0.4,0.3-1,0.5-1.7,0.5c-0.4,0-0.8,0-1.1-0.1s-0.6-0.2-0.8-0.3    v-1h0c0.3,0.2,0.6,0.4,1,0.5s0.7,0.2,1,0.2c0.4,0,0.7-0.1,0.9-0.2s0.3-0.3,0.3-0.6c0-0.2-0.1-0.4-0.2-0.5s-0.4-0.2-0.7-0.3    c-0.1,0-0.3-0.1-0.5-0.1s-0.4-0.1-0.6-0.1c-0.5-0.1-0.8-0.3-1-0.6s-0.3-0.5-0.3-0.9c0-0.2,0-0.4,0.1-0.6s0.2-0.4,0.4-0.5    c0.2-0.2,0.4-0.3,0.7-0.4c0.3-0.1,0.6-0.1,0.9-0.1c0.3,0,0.7,0,1,0.1c0.3,0.1,0.6,0.2,0.8,0.3v1h0c-0.2-0.2-0.5-0.3-0.9-0.4    s-0.7-0.2-1-0.2c-0.3,0-0.6,0.1-0.8,0.2s-0.3,0.3-0.3,0.6c0,0.2,0.1,0.4,0.2,0.5c0.1,0.1,0.4,0.2,0.7,0.3c0.2,0,0.4,0.1,0.6,0.1    s0.4,0.1,0.5,0.1C246.7,212,247,212.2,247.3,212.4L247.3,212.4z"/> 	</g> 	<g> 		<path d="M199.8,283.4c-0.2,0.1-0.3,0.2-0.5,0.2c-0.1,0.1-0.3,0.1-0.6,0.2c-0.2,0.1-0.4,0.1-0.6,0.2c-0.2,0-0.5,0.1-0.8,0.1    c-0.5,0-1-0.1-1.4-0.2c-0.4-0.1-0.8-0.4-1.1-0.7c-0.3-0.3-0.6-0.7-0.7-1.2c-0.2-0.5-0.3-1-0.3-1.7c0-0.6,0.1-1.1,0.3-1.6    s0.4-0.9,0.7-1.2c0.3-0.3,0.7-0.6,1.1-0.7c0.4-0.2,0.9-0.2,1.5-0.2c0.4,0,0.8,0,1.2,0.1c0.4,0.1,0.8,0.3,1.3,0.5v1.1h-0.1    c-0.4-0.3-0.8-0.6-1.2-0.7c-0.4-0.2-0.8-0.2-1.3-0.2c-0.4,0-0.7,0.1-1,0.2c-0.3,0.1-0.6,0.3-0.8,0.6c-0.2,0.2-0.4,0.6-0.5,0.9    c-0.1,0.4-0.2,0.8-0.2,1.3c0,0.5,0.1,1,0.2,1.3c0.1,0.4,0.3,0.7,0.5,0.9c0.2,0.2,0.5,0.4,0.8,0.5c0.3,0.1,0.6,0.2,1,0.2    c0.5,0,0.9-0.1,1.3-0.2c0.4-0.2,0.8-0.4,1.1-0.7h0.1V283.4z"/> 		<path d="M205.4,283.9h-0.9v-0.6c-0.1,0.1-0.2,0.1-0.3,0.2c-0.1,0.1-0.3,0.2-0.4,0.2c-0.2,0.1-0.3,0.1-0.5,0.2    c-0.2,0-0.4,0.1-0.7,0.1c-0.5,0-0.9-0.2-1.3-0.5s-0.5-0.7-0.5-1.2c0-0.4,0.1-0.7,0.3-1c0.2-0.3,0.4-0.5,0.8-0.6    c0.3-0.1,0.7-0.2,1.2-0.3c0.5-0.1,1-0.1,1.5-0.1v-0.1c0-0.2,0-0.4-0.1-0.5s-0.2-0.2-0.3-0.3c-0.1-0.1-0.3-0.1-0.5-0.2    c-0.2,0-0.4,0-0.6,0c-0.2,0-0.5,0-0.8,0.1c-0.3,0.1-0.6,0.2-0.9,0.3h0v-0.9c0.2,0,0.4-0.1,0.8-0.2c0.3-0.1,0.7-0.1,1-0.1    c0.4,0,0.7,0,1,0.1c0.3,0.1,0.5,0.2,0.7,0.3c0.2,0.1,0.4,0.3,0.5,0.6s0.2,0.5,0.2,0.9V283.9z M204.5,282.6V281c-0.3,0-0.6,0-1,0.1    c-0.4,0-0.7,0.1-0.9,0.1c-0.3,0.1-0.5,0.2-0.6,0.3c-0.2,0.2-0.2,0.4-0.2,0.7c0,0.3,0.1,0.5,0.3,0.7c0.2,0.2,0.5,0.2,0.9,0.2    c0.3,0,0.6-0.1,0.9-0.2C204,282.9,204.2,282.7,204.5,282.6z"/> 		<path d="M215.1,283.9h-0.9v-3.1c0-0.2,0-0.5,0-0.7c0-0.2-0.1-0.4-0.1-0.5c-0.1-0.1-0.2-0.2-0.3-0.3c-0.1-0.1-0.3-0.1-0.6-0.1    c-0.3,0-0.5,0.1-0.8,0.2c-0.3,0.1-0.5,0.3-0.8,0.5c0,0.1,0,0.2,0,0.3c0,0.1,0,0.2,0,0.3v3.5h-0.9v-3.1c0-0.2,0-0.5,0-0.7    c0-0.2-0.1-0.4-0.1-0.5c-0.1-0.1-0.2-0.2-0.3-0.3c-0.1-0.1-0.3-0.1-0.6-0.1c-0.3,0-0.5,0.1-0.8,0.2c-0.3,0.1-0.5,0.3-0.8,0.5v4.1    h-0.9v-5.5h0.9v0.6c0.3-0.2,0.6-0.4,0.9-0.6c0.3-0.1,0.6-0.2,0.9-0.2c0.4,0,0.7,0.1,0.9,0.2s0.5,0.4,0.6,0.6    c0.4-0.3,0.7-0.5,1-0.7c0.3-0.1,0.6-0.2,1-0.2c0.6,0,1,0.2,1.3,0.5c0.3,0.4,0.4,0.9,0.4,1.5V283.9z"/> 		<path d="M221.5,281.2c0,0.9-0.2,1.6-0.7,2.1c-0.5,0.5-1.1,0.8-1.8,0.8c-0.8,0-1.4-0.3-1.8-0.8s-0.7-1.2-0.7-2.1s0.2-1.6,0.7-2.1    c0.5-0.5,1.1-0.8,1.8-0.8c0.8,0,1.4,0.3,1.8,0.8C221.3,279.6,221.5,280.3,221.5,281.2z M220.6,281.2c0-0.7-0.1-1.2-0.4-1.6    c-0.3-0.3-0.7-0.5-1.2-0.5c-0.5,0-0.9,0.2-1.2,0.5c-0.3,0.3-0.4,0.9-0.4,1.6c0,0.7,0.1,1.2,0.4,1.6c0.3,0.4,0.7,0.5,1.2,0.5    c0.5,0,0.9-0.2,1.1-0.5C220.4,282.4,220.6,281.9,220.6,281.2z M220.5,275.7l-1.3,1.8h-0.7l0.9-1.8H220.5z"/> 		<path d="M226.5,281.4c0.2,0.2,0.3,0.6,0.3,1c0,0.5-0.2,0.9-0.6,1.2c-0.4,0.3-1,0.5-1.7,0.5c-0.4,0-0.8,0-1.1-0.1    c-0.3-0.1-0.6-0.2-0.8-0.3v-1h0c0.3,0.2,0.6,0.4,1,0.5c0.4,0.1,0.7,0.2,1,0.2c0.4,0,0.7-0.1,0.9-0.2c0.2-0.1,0.3-0.3,0.3-0.6    c0-0.2-0.1-0.4-0.2-0.5c-0.1-0.1-0.4-0.2-0.7-0.3c-0.1,0-0.3-0.1-0.5-0.1s-0.4-0.1-0.6-0.1c-0.5-0.1-0.8-0.3-1-0.6    c-0.2-0.2-0.3-0.5-0.3-0.9c0-0.2,0-0.4,0.1-0.6s0.2-0.4,0.4-0.5c0.2-0.2,0.4-0.3,0.7-0.4c0.3-0.1,0.6-0.1,0.9-0.1    c0.3,0,0.7,0,1,0.1c0.3,0.1,0.6,0.2,0.8,0.3v1h0c-0.2-0.2-0.5-0.3-0.9-0.4c-0.3-0.1-0.7-0.2-1-0.2c-0.3,0-0.6,0.1-0.8,0.2    c-0.2,0.1-0.3,0.3-0.3,0.6c0,0.2,0.1,0.4,0.2,0.5c0.1,0.1,0.4,0.2,0.7,0.3c0.2,0,0.4,0.1,0.6,0.1s0.4,0.1,0.5,0.1    C225.9,281,226.3,281.1,226.5,281.4L226.5,281.4z"/> 	</g> 	<g> 		<path d="M250.8,77.9c-0.2,0.1-0.3,0.2-0.5,0.2s-0.3,0.1-0.6,0.2c-0.2,0.1-0.4,0.1-0.6,0.2s-0.5,0.1-0.8,0.1c-0.5,0-1-0.1-1.4-0.2    s-0.8-0.4-1.1-0.7c-0.3-0.3-0.6-0.7-0.7-1.2s-0.3-1-0.3-1.7c0-0.6,0.1-1.1,0.3-1.6c0.2-0.5,0.4-0.9,0.7-1.2    c0.3-0.3,0.7-0.6,1.1-0.7s0.9-0.2,1.5-0.2c0.4,0,0.8,0,1.2,0.1s0.8,0.3,1.3,0.5v1.1h-0.1c-0.4-0.3-0.8-0.6-1.2-0.7    c-0.4-0.2-0.8-0.2-1.3-0.2c-0.4,0-0.7,0.1-1,0.2s-0.6,0.3-0.8,0.6c-0.2,0.2-0.4,0.6-0.5,0.9s-0.2,0.8-0.2,1.3c0,0.5,0.1,1,0.2,1.3    s0.3,0.7,0.5,0.9c0.2,0.2,0.5,0.4,0.8,0.5s0.6,0.2,1,0.2c0.5,0,0.9-0.1,1.3-0.2c0.4-0.2,0.8-0.4,1.1-0.7h0.1V77.9z"/> 		<path d="M255.5,73.9L255.5,73.9c-0.2,0-0.3-0.1-0.4-0.1c-0.1,0-0.3,0-0.5,0c-0.3,0-0.6,0.1-0.8,0.2s-0.5,0.3-0.8,0.5v3.9h-0.9    v-5.5h0.9v0.8c0.4-0.3,0.7-0.5,1-0.6s0.6-0.2,0.9-0.2c0.2,0,0.3,0,0.3,0s0.2,0,0.3,0V73.9z"/> 		<path d="M260.9,75.8h-4c0,0.3,0.1,0.6,0.2,0.9c0.1,0.2,0.2,0.5,0.4,0.6c0.2,0.2,0.4,0.3,0.6,0.4s0.5,0.1,0.8,0.1    c0.4,0,0.7-0.1,1.1-0.2s0.6-0.3,0.8-0.4h0v1c-0.3,0.1-0.6,0.2-0.9,0.3s-0.7,0.1-1,0.1c-0.9,0-1.6-0.2-2.1-0.7s-0.8-1.2-0.8-2.1    c0-0.9,0.2-1.6,0.7-2.1s1.1-0.8,1.9-0.8c0.7,0,1.3,0.2,1.7,0.6s0.6,1,0.6,1.8V75.8z M260.1,75.1c0-0.5-0.1-0.9-0.4-1.1    s-0.6-0.4-1.1-0.4c-0.5,0-0.9,0.1-1.2,0.4s-0.5,0.6-0.5,1.1H260.1z"/> 		<path d="M265.9,75.9c0.2,0.2,0.3,0.6,0.3,1c0,0.5-0.2,0.9-0.6,1.2c-0.4,0.3-1,0.5-1.7,0.5c-0.4,0-0.8,0-1.1-0.1s-0.6-0.2-0.8-0.3    v-1h0c0.3,0.2,0.6,0.4,1,0.5c0.4,0.1,0.7,0.2,1,0.2c0.4,0,0.7-0.1,0.9-0.2c0.2-0.1,0.3-0.3,0.3-0.6c0-0.2-0.1-0.4-0.2-0.5    c-0.1-0.1-0.4-0.2-0.7-0.3c-0.1,0-0.3-0.1-0.5-0.1s-0.4-0.1-0.6-0.1c-0.5-0.1-0.8-0.3-1-0.6s-0.3-0.5-0.3-0.9c0-0.2,0-0.4,0.1-0.6    s0.2-0.4,0.4-0.5c0.2-0.2,0.4-0.3,0.7-0.4c0.3-0.1,0.6-0.1,0.9-0.1c0.3,0,0.7,0,1,0.1c0.3,0.1,0.6,0.2,0.8,0.3v1h0    c-0.2-0.2-0.5-0.3-0.9-0.4c-0.3-0.1-0.7-0.2-1-0.2c-0.3,0-0.6,0.1-0.8,0.2c-0.2,0.1-0.3,0.3-0.3,0.6c0,0.2,0.1,0.4,0.2,0.5    c0.1,0.1,0.4,0.2,0.7,0.3c0.2,0,0.4,0.1,0.6,0.1s0.4,0.1,0.5,0.1C265.3,75.5,265.7,75.6,265.9,75.9L265.9,75.9z"/> 		<path d="M272.4,75.6c0,0.4-0.1,0.8-0.2,1.2s-0.3,0.7-0.5,0.9c-0.2,0.2-0.5,0.4-0.8,0.6c-0.3,0.1-0.6,0.2-0.9,0.2    c-0.3,0-0.5,0-0.8-0.1s-0.5-0.2-0.7-0.3v2.3h-0.9v-7.5h0.9v0.6c0.2-0.2,0.5-0.4,0.8-0.5c0.3-0.1,0.6-0.2,1-0.2    c0.7,0,1.2,0.2,1.5,0.7S272.4,74.7,272.4,75.6z M271.4,75.6c0-0.7-0.1-1.1-0.3-1.5s-0.6-0.5-1-0.5c-0.3,0-0.5,0.1-0.8,0.2    s-0.5,0.3-0.8,0.4v3.1c0.3,0.1,0.5,0.2,0.7,0.2c0.2,0,0.4,0.1,0.6,0.1c0.5,0,0.9-0.2,1.2-0.5S271.4,76.3,271.4,75.6z"/> 		<path d="M274.8,72h-1v-1h1V72z M274.7,78.4h-0.9v-5.5h0.9V78.4z"/> 		<path d="M280.8,78.4h-0.9v-0.6c-0.1,0.1-0.2,0.1-0.3,0.2c-0.1,0.1-0.3,0.2-0.4,0.2c-0.2,0.1-0.3,0.1-0.5,0.2    c-0.2,0.1-0.4,0.1-0.7,0.1c-0.5,0-0.9-0.2-1.3-0.5s-0.5-0.7-0.5-1.2c0-0.4,0.1-0.7,0.3-1s0.4-0.5,0.8-0.6c0.3-0.1,0.7-0.2,1.2-0.3    c0.5-0.1,1-0.1,1.5-0.1v-0.1c0-0.2,0-0.4-0.1-0.5s-0.2-0.2-0.3-0.3c-0.1-0.1-0.3-0.1-0.5-0.2c-0.2,0-0.4,0-0.6,0    c-0.2,0-0.5,0-0.8,0.1c-0.3,0.1-0.6,0.2-0.9,0.3h0v-0.9c0.2,0,0.4-0.1,0.8-0.2c0.3-0.1,0.7-0.1,1-0.1c0.4,0,0.7,0,1,0.1    c0.3,0.1,0.5,0.2,0.7,0.3c0.2,0.1,0.4,0.3,0.5,0.6s0.2,0.5,0.2,0.9V78.4z M279.8,77.1v-1.5c-0.3,0-0.6,0-1,0.1    c-0.4,0-0.7,0.1-0.9,0.1c-0.3,0.1-0.5,0.2-0.6,0.3c-0.2,0.2-0.2,0.4-0.2,0.7c0,0.3,0.1,0.5,0.3,0.7c0.2,0.2,0.5,0.2,0.9,0.2    c0.3,0,0.6-0.1,0.9-0.2C279.4,77.4,279.6,77.2,279.8,77.1z M279.2,72h-0.7l-1.3-1.8h1.2L279.2,72z"/> 	</g> 	<g> 		<path d="M230.8,118.4H226v-7.3h4.8v0.9H227v2h3.8v0.9H227v2.7h3.8V118.4z"/> 		<path d="M235.8,115.9c0.2,0.2,0.3,0.6,0.3,1c0,0.5-0.2,0.9-0.6,1.2c-0.4,0.3-1,0.5-1.7,0.5c-0.4,0-0.8,0-1.1-0.1    c-0.3-0.1-0.6-0.2-0.8-0.3v-1h0c0.3,0.2,0.6,0.4,1,0.5s0.7,0.2,1,0.2c0.4,0,0.7-0.1,0.9-0.2s0.3-0.3,0.3-0.6    c0-0.2-0.1-0.4-0.2-0.5s-0.4-0.2-0.7-0.3c-0.1,0-0.3-0.1-0.5-0.1s-0.4-0.1-0.6-0.1c-0.5-0.1-0.8-0.3-1-0.6    c-0.2-0.2-0.3-0.5-0.3-0.9c0-0.2,0-0.4,0.1-0.6c0.1-0.2,0.2-0.4,0.4-0.5c0.2-0.2,0.4-0.3,0.7-0.4c0.3-0.1,0.6-0.1,0.9-0.1    c0.3,0,0.7,0,1,0.1c0.3,0.1,0.6,0.2,0.8,0.3v1h0c-0.2-0.2-0.5-0.3-0.9-0.4s-0.7-0.2-1-0.2c-0.3,0-0.6,0.1-0.8,0.2    s-0.3,0.3-0.3,0.6c0,0.2,0.1,0.4,0.2,0.5c0.1,0.1,0.4,0.2,0.7,0.3c0.2,0,0.4,0.1,0.6,0.1s0.4,0.1,0.5,0.1    C235.3,115.5,235.6,115.7,235.8,115.9L235.8,115.9z"/> 		<path d="M242.3,115.6c0,0.4-0.1,0.8-0.2,1.2s-0.3,0.7-0.5,0.9c-0.2,0.2-0.5,0.4-0.8,0.6c-0.3,0.1-0.6,0.2-0.9,0.2    c-0.3,0-0.5,0-0.8-0.1s-0.5-0.2-0.7-0.3v2.3h-0.9V113h0.9v0.6c0.2-0.2,0.5-0.4,0.8-0.5c0.3-0.1,0.6-0.2,1-0.2    c0.7,0,1.2,0.2,1.5,0.7S242.3,114.8,242.3,115.6z M241.3,115.7c0-0.7-0.1-1.1-0.3-1.5s-0.6-0.5-1-0.5c-0.3,0-0.5,0.1-0.8,0.2    c-0.3,0.1-0.5,0.3-0.8,0.4v3.1c0.3,0.1,0.5,0.2,0.7,0.2c0.2,0,0.4,0.1,0.6,0.1c0.5,0,0.9-0.2,1.2-0.5    C241.2,116.9,241.3,116.3,241.3,115.7z"/> 		<path d="M248.4,115.7c0,0.9-0.2,1.6-0.7,2.1c-0.5,0.5-1.1,0.8-1.8,0.8c-0.8,0-1.4-0.3-1.8-0.8s-0.7-1.2-0.7-2.1s0.2-1.6,0.7-2.1    s1.1-0.8,1.8-0.8c0.8,0,1.4,0.3,1.8,0.8C248.1,114.1,248.4,114.8,248.4,115.7z M247.4,115.7c0-0.7-0.1-1.2-0.4-1.6    s-0.7-0.5-1.2-0.5c-0.5,0-0.9,0.2-1.2,0.5c-0.3,0.3-0.4,0.9-0.4,1.6c0,0.7,0.1,1.2,0.4,1.6c0.3,0.4,0.7,0.5,1.2,0.5    c0.5,0,0.9-0.2,1.2-0.5S247.4,116.4,247.4,115.7z"/> 		<path d="M254.3,118.4h-0.9v-3.1c0-0.3,0-0.5,0-0.7s-0.1-0.4-0.2-0.5c-0.1-0.1-0.2-0.2-0.4-0.3c-0.2-0.1-0.4-0.1-0.6-0.1    c-0.3,0-0.5,0.1-0.8,0.2s-0.5,0.3-0.8,0.5v4.1h-0.9V113h0.9v0.6c0.3-0.2,0.6-0.4,0.9-0.6c0.3-0.1,0.6-0.2,0.9-0.2    c0.6,0,1,0.2,1.3,0.5c0.3,0.4,0.5,0.9,0.5,1.5V118.4z"/> 		<path d="M260.7,115.8h-4c0,0.3,0,0.6,0.2,0.9c0.1,0.2,0.2,0.5,0.4,0.6c0.2,0.2,0.4,0.3,0.6,0.4s0.5,0.1,0.8,0.1    c0.4,0,0.7-0.1,1.1-0.2s0.6-0.3,0.8-0.4h0v1c-0.3,0.1-0.6,0.2-0.9,0.3s-0.7,0.1-1,0.1c-0.9,0-1.6-0.2-2.1-0.7    c-0.5-0.5-0.8-1.2-0.8-2.1c0-0.9,0.2-1.6,0.7-2.1s1.1-0.8,1.9-0.8c0.7,0,1.3,0.2,1.7,0.6s0.6,1,0.6,1.8V115.8z M259.8,115.1    c0-0.5-0.1-0.9-0.4-1.1s-0.6-0.4-1.1-0.4c-0.5,0-0.9,0.1-1.2,0.4s-0.5,0.6-0.5,1.1H259.8z"/> 		<path d="M263,118.4h-0.9v-7.6h0.9V118.4z"/> 		<path d="M265.7,118.4h-0.9v-7.6h0.9V118.4z"/> 		<path d="M271.8,118.4h-0.9v-0.6c-0.1,0.1-0.2,0.1-0.3,0.2c-0.1,0.1-0.3,0.2-0.4,0.2c-0.2,0.1-0.3,0.1-0.5,0.2    c-0.2,0.1-0.4,0.1-0.7,0.1c-0.5,0-0.9-0.2-1.3-0.5s-0.5-0.7-0.5-1.2c0-0.4,0.1-0.7,0.3-1c0.2-0.3,0.4-0.5,0.8-0.6    c0.3-0.1,0.7-0.2,1.2-0.3c0.5-0.1,1-0.1,1.5-0.1v-0.1c0-0.2,0-0.4-0.1-0.5s-0.2-0.2-0.3-0.3c-0.1-0.1-0.3-0.1-0.5-0.2    c-0.2,0-0.4,0-0.6,0c-0.2,0-0.5,0-0.8,0.1c-0.3,0.1-0.6,0.2-0.9,0.3h0v-0.9c0.2,0,0.4-0.1,0.8-0.2c0.3-0.1,0.7-0.1,1-0.1    c0.4,0,0.7,0,1,0.1c0.3,0.1,0.5,0.2,0.7,0.3c0.2,0.1,0.4,0.3,0.5,0.6s0.2,0.5,0.2,0.9V118.4z M270.9,117.1v-1.5    c-0.3,0-0.6,0-1,0.1c-0.4,0-0.7,0.1-0.9,0.1c-0.3,0.1-0.5,0.2-0.6,0.3c-0.2,0.2-0.2,0.4-0.2,0.7c0,0.3,0.1,0.5,0.3,0.7    c0.2,0.2,0.5,0.2,0.9,0.2c0.3,0,0.6-0.1,0.9-0.2C270.4,117.4,270.6,117.3,270.9,117.1z M270.2,112.1h-0.7l-1.3-1.8h1.2    L270.2,112.1z"/> 	</g> 	<g> 		<path d="M327.6,150.6l-2.6,7.3h-1.3l-2.6-7.3h1l2.3,6.4l2.3-6.4H327.6z"/> 		<path d="M329.6,151.5h-1v-1h1V151.5z M329.6,157.9h-0.9v-5.5h0.9V157.9z"/> 		<path d="M332.3,157.9h-0.9v-7.6h0.9V157.9z"/> 		<path d="M338.4,157.9h-0.9v-0.6c-0.1,0.1-0.2,0.1-0.3,0.2c-0.1,0.1-0.3,0.2-0.4,0.2c-0.2,0.1-0.3,0.1-0.5,0.2s-0.4,0.1-0.7,0.1    c-0.5,0-0.9-0.2-1.3-0.5s-0.5-0.7-0.5-1.2c0-0.4,0.1-0.7,0.3-1c0.2-0.3,0.4-0.5,0.8-0.6c0.3-0.1,0.7-0.2,1.2-0.3s1-0.1,1.5-0.1    v-0.1c0-0.2,0-0.4-0.1-0.5s-0.2-0.2-0.3-0.3c-0.1-0.1-0.3-0.1-0.5-0.2s-0.4,0-0.6,0c-0.2,0-0.5,0-0.8,0.1s-0.6,0.2-0.9,0.3h0v-0.9    c0.2,0,0.4-0.1,0.8-0.2s0.7-0.1,1-0.1c0.4,0,0.7,0,1,0.1c0.3,0.1,0.5,0.2,0.7,0.3c0.2,0.1,0.4,0.3,0.5,0.6s0.2,0.5,0.2,0.9V157.9z     M337.4,156.6V155c-0.3,0-0.6,0-1,0.1c-0.4,0-0.7,0.1-0.9,0.1c-0.3,0.1-0.5,0.2-0.6,0.3s-0.2,0.4-0.2,0.7c0,0.3,0.1,0.5,0.3,0.7    s0.5,0.2,0.9,0.2c0.3,0,0.6-0.1,0.9-0.2S337.2,156.7,337.4,156.6z"/> 		<path d="M344.6,157.9h-0.9v-0.6c-0.3,0.2-0.5,0.4-0.8,0.5s-0.6,0.2-0.9,0.2c-0.7,0-1.2-0.3-1.5-0.8c-0.4-0.5-0.6-1.2-0.6-2.1    c0-0.5,0.1-0.9,0.2-1.2s0.3-0.7,0.5-0.9c0.2-0.2,0.5-0.4,0.8-0.6c0.3-0.1,0.6-0.2,0.9-0.2c0.3,0,0.5,0,0.8,0.1s0.5,0.2,0.7,0.3    v-2.4h0.9V157.9z M343.6,156.6v-3.1c-0.2-0.1-0.5-0.2-0.7-0.2s-0.4-0.1-0.6-0.1c-0.5,0-0.9,0.2-1.2,0.5s-0.4,0.9-0.4,1.5    c0,0.6,0.1,1.1,0.3,1.5s0.6,0.5,1.1,0.5c0.3,0,0.5-0.1,0.8-0.2S343.4,156.7,343.6,156.6z"/> 		<path d="M350.9,155.3h-4c0,0.3,0.1,0.6,0.2,0.9c0.1,0.2,0.2,0.5,0.4,0.6c0.2,0.2,0.4,0.3,0.6,0.4s0.5,0.1,0.8,0.1    c0.4,0,0.7-0.1,1.1-0.2s0.6-0.3,0.8-0.4h0v1c-0.3,0.1-0.6,0.2-0.9,0.3s-0.7,0.1-1,0.1c-0.9,0-1.6-0.2-2.1-0.7s-0.8-1.2-0.8-2.1    c0-0.9,0.2-1.6,0.7-2.1s1.1-0.8,1.9-0.8c0.7,0,1.3,0.2,1.7,0.6s0.6,1,0.6,1.8V155.3z M350,154.6c0-0.5-0.1-0.9-0.4-1.1    s-0.6-0.4-1.1-0.4c-0.5,0-0.9,0.1-1.2,0.4s-0.5,0.6-0.5,1.1H350z"/> 		<path d="M360.3,157.9h-0.9v-3.1c0-0.2,0-0.5,0-0.7c0-0.2-0.1-0.4-0.1-0.5c-0.1-0.1-0.2-0.2-0.3-0.3s-0.3-0.1-0.6-0.1    c-0.3,0-0.5,0.1-0.8,0.2c-0.3,0.1-0.5,0.3-0.8,0.5c0,0.1,0,0.2,0,0.3s0,0.2,0,0.3v3.5h-0.9v-3.1c0-0.2,0-0.5,0-0.7    c0-0.2-0.1-0.4-0.1-0.5c-0.1-0.1-0.2-0.2-0.3-0.3c-0.1-0.1-0.3-0.1-0.6-0.1c-0.3,0-0.5,0.1-0.8,0.2c-0.3,0.1-0.5,0.3-0.8,0.5v4.1    h-0.9v-5.5h0.9v0.6c0.3-0.2,0.6-0.4,0.9-0.6c0.3-0.1,0.6-0.2,0.9-0.2c0.4,0,0.7,0.1,0.9,0.2s0.5,0.4,0.6,0.6    c0.4-0.3,0.7-0.5,1-0.7c0.3-0.1,0.6-0.2,1-0.2c0.6,0,1,0.2,1.3,0.5c0.3,0.4,0.4,0.9,0.4,1.5V157.9z"/> 		<path d="M366.6,157.9h-0.9v-0.6c-0.3,0.2-0.6,0.4-0.9,0.6s-0.6,0.2-0.9,0.2c-0.6,0-1-0.2-1.3-0.5c-0.3-0.4-0.5-0.9-0.5-1.5v-3.5    h0.9v3.1c0,0.3,0,0.5,0,0.7c0,0.2,0.1,0.4,0.2,0.5c0.1,0.1,0.2,0.2,0.3,0.3c0.1,0.1,0.3,0.1,0.6,0.1c0.2,0,0.5-0.1,0.8-0.2    s0.5-0.3,0.8-0.5v-4.1h0.9V157.9z"/> 		<path d="M369.3,157.9h-0.9v-7.6h0.9V157.9z"/> 		<path d="M374.7,155.4c0.2,0.2,0.3,0.6,0.3,1c0,0.5-0.2,0.9-0.6,1.2c-0.4,0.3-1,0.5-1.7,0.5c-0.4,0-0.8,0-1.1-0.1s-0.6-0.2-0.8-0.3    v-1h0c0.3,0.2,0.6,0.4,1,0.5s0.7,0.2,1,0.2c0.4,0,0.7-0.1,0.9-0.2s0.3-0.3,0.3-0.6c0-0.2-0.1-0.4-0.2-0.5s-0.4-0.2-0.7-0.3    c-0.1,0-0.3-0.1-0.5-0.1s-0.4-0.1-0.6-0.1c-0.5-0.1-0.8-0.3-1-0.6s-0.3-0.5-0.3-0.9c0-0.2,0-0.4,0.1-0.6s0.2-0.4,0.4-0.5    c0.2-0.2,0.4-0.3,0.7-0.4c0.3-0.1,0.6-0.1,0.9-0.1c0.3,0,0.7,0,1,0.1c0.3,0.1,0.6,0.2,0.8,0.3v1h0c-0.2-0.2-0.5-0.3-0.9-0.4    s-0.7-0.2-1-0.2c-0.3,0-0.6,0.1-0.8,0.2s-0.3,0.3-0.3,0.6c0,0.2,0.1,0.4,0.2,0.5c0.1,0.1,0.4,0.2,0.7,0.3c0.2,0,0.4,0.1,0.6,0.1    s0.4,0.1,0.5,0.1C374.1,155,374.4,155.1,374.7,155.4L374.7,155.4z"/> 	</g> 	<g> 		<path d="M255,183h-3.7v2.1h3.2v0.9h-3.2v3.5h-1v-7.3h4.6V183z"/> 		<path d="M260.4,186.7c0,0.9-0.2,1.6-0.7,2.1c-0.5,0.5-1.1,0.8-1.8,0.8c-0.8,0-1.4-0.3-1.8-0.8c-0.5-0.5-0.7-1.2-0.7-2.1    s0.2-1.6,0.7-2.1s1.1-0.8,1.8-0.8c0.8,0,1.4,0.3,1.8,0.8S260.4,185.8,260.4,186.7z M259.4,186.7c0-0.7-0.1-1.2-0.4-1.6    s-0.7-0.5-1.2-0.5c-0.5,0-0.9,0.2-1.2,0.5c-0.3,0.3-0.4,0.9-0.4,1.6c0,0.7,0.1,1.2,0.4,1.6s0.7,0.5,1.2,0.5c0.5,0,0.9-0.2,1.2-0.5    C259.3,187.9,259.4,187.4,259.4,186.7z"/> 		<path d="M266.4,189.4h-0.9v-3.1c0-0.3,0-0.5,0-0.7s-0.1-0.4-0.2-0.5c-0.1-0.1-0.2-0.2-0.4-0.3c-0.2-0.1-0.4-0.1-0.6-0.1    c-0.3,0-0.5,0.1-0.8,0.2c-0.3,0.1-0.5,0.3-0.8,0.5v4.1h-0.9V184h0.9v0.6c0.3-0.2,0.6-0.4,0.9-0.6c0.3-0.1,0.6-0.2,0.9-0.2    c0.6,0,1,0.2,1.3,0.5c0.3,0.4,0.5,0.9,0.5,1.5V189.4z"/> 		<path d="M271,189.4c-0.2,0-0.4,0.1-0.6,0.1c-0.2,0-0.4,0-0.5,0c-0.6,0-1-0.1-1.3-0.4c-0.3-0.3-0.4-0.8-0.4-1.4v-2.9h-0.6V184h0.6    v-1.6h0.9v1.6h1.9v0.8h-1.9v2.5c0,0.3,0,0.5,0,0.7c0,0.2,0.1,0.3,0.1,0.5c0.1,0.1,0.2,0.2,0.3,0.3c0.1,0.1,0.3,0.1,0.6,0.1    c0.2,0,0.3,0,0.5-0.1c0.2,0,0.3-0.1,0.4-0.1h0V189.4z"/> 		<path d="M276.1,189.1c-0.3,0.1-0.6,0.3-0.9,0.3c-0.3,0.1-0.6,0.1-0.9,0.1c-0.4,0-0.8-0.1-1.1-0.2c-0.3-0.1-0.6-0.3-0.8-0.5    c-0.2-0.2-0.4-0.5-0.6-0.9c-0.1-0.4-0.2-0.8-0.2-1.3c0-0.9,0.2-1.6,0.7-2.1c0.5-0.5,1.1-0.8,1.9-0.8c0.3,0,0.6,0,0.9,0.1    c0.3,0.1,0.6,0.2,0.8,0.3v1h0c-0.3-0.2-0.6-0.4-0.9-0.5s-0.6-0.2-0.9-0.2c-0.5,0-0.9,0.2-1.2,0.5c-0.3,0.4-0.5,0.9-0.5,1.5    c0,0.7,0.1,1.2,0.4,1.5c0.3,0.4,0.7,0.5,1.2,0.5c0.2,0,0.4,0,0.6-0.1c0.2,0,0.4-0.1,0.5-0.2c0.1-0.1,0.3-0.1,0.4-0.2    s0.2-0.1,0.3-0.2h0V189.1z"/> 		<path d="M281.9,186.7c0,0.9-0.2,1.6-0.7,2.1c-0.5,0.5-1.1,0.8-1.8,0.8c-0.8,0-1.4-0.3-1.8-0.8c-0.5-0.5-0.7-1.2-0.7-2.1    s0.2-1.6,0.7-2.1s1.1-0.8,1.8-0.8c0.8,0,1.4,0.3,1.8,0.8C281.7,185.1,281.9,185.8,281.9,186.7z M281,186.7c0-0.7-0.1-1.2-0.4-1.6    c-0.3-0.3-0.7-0.5-1.2-0.5c-0.5,0-0.9,0.2-1.2,0.5s-0.4,0.9-0.4,1.6c0,0.7,0.1,1.2,0.4,1.6c0.3,0.4,0.7,0.5,1.2,0.5    c0.5,0,0.9-0.2,1.1-0.5S281,187.4,281,186.7z"/> 		<path d="M288.2,186.6c0,0.5-0.1,0.9-0.2,1.2c-0.1,0.4-0.3,0.7-0.5,0.9c-0.2,0.3-0.5,0.5-0.8,0.6s-0.6,0.2-0.9,0.2    c-0.3,0-0.6,0-0.8-0.1s-0.5-0.2-0.7-0.3l-0.1,0.3h-0.9v-7.6h0.9v2.7c0.3-0.2,0.5-0.4,0.8-0.5s0.6-0.2,1-0.2c0.6,0,1.2,0.2,1.5,0.7    C288,185,288.2,185.7,288.2,186.6z M287.2,186.7c0-0.7-0.1-1.1-0.3-1.5s-0.6-0.5-1-0.5c-0.3,0-0.5,0.1-0.8,0.2s-0.5,0.3-0.8,0.4    v3.1c0.3,0.1,0.5,0.2,0.7,0.2c0.2,0,0.4,0.1,0.6,0.1c0.5,0,0.9-0.2,1.2-0.5S287.2,187.4,287.2,186.7z"/> 		<path d="M294.2,186.8h-4c0,0.3,0,0.6,0.2,0.9c0.1,0.2,0.2,0.5,0.4,0.6c0.2,0.2,0.4,0.3,0.6,0.4s0.5,0.1,0.8,0.1    c0.4,0,0.7-0.1,1.1-0.2s0.6-0.3,0.8-0.4h0v1c-0.3,0.1-0.6,0.2-0.9,0.3s-0.7,0.1-1,0.1c-0.9,0-1.6-0.2-2.1-0.7s-0.8-1.2-0.8-2.1    c0-0.9,0.2-1.6,0.7-2.1c0.5-0.5,1.1-0.8,1.9-0.8c0.7,0,1.3,0.2,1.7,0.6s0.6,1,0.6,1.8V186.8z M293.3,186.1c0-0.5-0.1-0.9-0.4-1.1    s-0.6-0.4-1.1-0.4c-0.5,0-0.9,0.1-1.2,0.4c-0.3,0.3-0.5,0.6-0.5,1.1H293.3z"/> 		<path d="M299,185L299,185c-0.2,0-0.3-0.1-0.4-0.1c-0.1,0-0.3,0-0.5,0c-0.3,0-0.6,0.1-0.8,0.2s-0.5,0.3-0.8,0.5v3.9h-0.9V184h0.9    v0.8c0.4-0.3,0.7-0.5,1-0.6s0.6-0.2,0.9-0.2c0.2,0,0.3,0,0.3,0c0.1,0,0.2,0,0.3,0V185z"/> 		<path d="M302.7,189.4c-0.2,0-0.4,0.1-0.6,0.1c-0.2,0-0.4,0-0.5,0c-0.6,0-1-0.1-1.3-0.4c-0.3-0.3-0.4-0.8-0.4-1.4v-2.9h-0.6V184    h0.6v-1.6h0.9v1.6h1.9v0.8h-1.9v2.5c0,0.3,0,0.5,0,0.7c0,0.2,0.1,0.3,0.1,0.5c0.1,0.1,0.2,0.2,0.3,0.3c0.1,0.1,0.3,0.1,0.6,0.1    c0.1,0,0.3,0,0.5-0.1c0.2,0,0.3-0.1,0.4-0.1h0V189.4z"/> 		<path d="M308,189.4h-0.9v-0.6c-0.1,0.1-0.2,0.1-0.3,0.2c-0.1,0.1-0.3,0.2-0.4,0.2c-0.2,0.1-0.3,0.1-0.5,0.2s-0.4,0.1-0.7,0.1    c-0.5,0-0.9-0.2-1.3-0.5c-0.3-0.3-0.5-0.7-0.5-1.2c0-0.4,0.1-0.7,0.3-1c0.2-0.3,0.4-0.5,0.8-0.6c0.3-0.1,0.7-0.2,1.2-0.3    c0.5-0.1,1-0.1,1.5-0.1v-0.1c0-0.2,0-0.4-0.1-0.5s-0.2-0.2-0.3-0.3c-0.1-0.1-0.3-0.1-0.5-0.2c-0.2,0-0.4,0-0.6,0    c-0.2,0-0.5,0-0.8,0.1c-0.3,0.1-0.6,0.2-0.9,0.3h0v-0.9c0.2,0,0.4-0.1,0.8-0.2c0.3-0.1,0.7-0.1,1-0.1c0.4,0,0.7,0,1,0.1    c0.3,0.1,0.5,0.2,0.7,0.3c0.2,0.1,0.4,0.3,0.5,0.6c0.1,0.2,0.2,0.5,0.2,0.9V189.4z M307.1,188.1v-1.5c-0.3,0-0.6,0-1,0.1    c-0.4,0-0.7,0.1-0.9,0.1c-0.3,0.1-0.5,0.2-0.6,0.3c-0.2,0.2-0.2,0.4-0.2,0.7c0,0.3,0.1,0.5,0.3,0.7c0.2,0.2,0.5,0.2,0.9,0.2    c0.3,0,0.6-0.1,0.9-0.2S306.9,188.3,307.1,188.1z"/> 	</g> 	<g> 		<path d="M269.9,259.1c-0.2,0.1-0.3,0.2-0.5,0.2c-0.1,0.1-0.3,0.1-0.6,0.2c-0.2,0.1-0.4,0.1-0.6,0.2c-0.2,0-0.5,0.1-0.8,0.1    c-0.5,0-1-0.1-1.4-0.2c-0.4-0.1-0.8-0.4-1.1-0.7c-0.3-0.3-0.6-0.7-0.7-1.2c-0.2-0.5-0.3-1-0.3-1.7c0-0.6,0.1-1.1,0.3-1.6    s0.4-0.9,0.7-1.2c0.3-0.3,0.7-0.6,1.1-0.7c0.4-0.2,0.9-0.2,1.5-0.2c0.4,0,0.8,0,1.2,0.1c0.4,0.1,0.8,0.3,1.3,0.5v1.1h-0.1    c-0.4-0.3-0.8-0.6-1.2-0.7c-0.4-0.2-0.8-0.2-1.3-0.2c-0.4,0-0.7,0.1-1,0.2c-0.3,0.1-0.6,0.3-0.8,0.6c-0.2,0.2-0.4,0.6-0.5,0.9    c-0.1,0.4-0.2,0.8-0.2,1.3c0,0.5,0.1,1,0.2,1.3c0.1,0.4,0.3,0.7,0.5,0.9c0.2,0.2,0.5,0.4,0.8,0.5c0.3,0.1,0.6,0.2,1,0.2    c0.5,0,0.9-0.1,1.3-0.2c0.4-0.2,0.8-0.4,1.1-0.7h0.1V259.1z"/> 		<path d="M275.9,256.9c0,0.9-0.2,1.6-0.7,2.1c-0.5,0.5-1.1,0.8-1.8,0.8c-0.8,0-1.4-0.3-1.8-0.8s-0.7-1.2-0.7-2.1s0.2-1.6,0.7-2.1    c0.5-0.5,1.1-0.8,1.8-0.8c0.8,0,1.4,0.3,1.8,0.8C275.6,255.3,275.9,256,275.9,256.9z M274.9,256.9c0-0.7-0.1-1.2-0.4-1.6    c-0.3-0.3-0.7-0.5-1.2-0.5c-0.5,0-0.9,0.2-1.2,0.5c-0.3,0.3-0.4,0.9-0.4,1.6c0,0.7,0.1,1.2,0.4,1.6c0.3,0.4,0.7,0.5,1.2,0.5    c0.5,0,0.9-0.2,1.2-0.5C274.8,258.1,274.9,257.6,274.9,256.9z"/> 		<path d="M280.7,255.1L280.7,255.1c-0.2,0-0.3-0.1-0.4-0.1c-0.1,0-0.3,0-0.5,0c-0.3,0-0.6,0.1-0.8,0.2c-0.3,0.1-0.5,0.3-0.8,0.5    v3.9h-0.9v-5.5h0.9v0.8c0.4-0.3,0.7-0.5,1-0.6c0.3-0.1,0.6-0.2,0.9-0.2c0.2,0,0.3,0,0.3,0c0.1,0,0.2,0,0.3,0V255.1z"/> 		<path d="M286.1,259.6h-0.9v-3.1c0-0.3,0-0.5,0-0.7c0-0.2-0.1-0.4-0.2-0.5c-0.1-0.1-0.2-0.2-0.4-0.3c-0.2-0.1-0.4-0.1-0.6-0.1    c-0.3,0-0.5,0.1-0.8,0.2s-0.5,0.3-0.8,0.5v4.1h-0.9v-5.5h0.9v0.6c0.3-0.2,0.6-0.4,0.9-0.6s0.6-0.2,0.9-0.2c0.6,0,1,0.2,1.3,0.5    s0.5,0.9,0.5,1.5V259.6z"/> 		<path d="M292.4,257h-4c0,0.3,0.1,0.6,0.2,0.9c0.1,0.3,0.2,0.5,0.4,0.6c0.2,0.2,0.4,0.3,0.6,0.4c0.2,0.1,0.5,0.1,0.8,0.1    c0.4,0,0.7-0.1,1.1-0.2c0.4-0.1,0.6-0.3,0.8-0.4h0v1c-0.3,0.1-0.6,0.2-0.9,0.3s-0.7,0.1-1,0.1c-0.9,0-1.6-0.2-2.1-0.7    c-0.5-0.5-0.8-1.2-0.8-2.1c0-0.9,0.2-1.6,0.7-2.1c0.5-0.5,1.1-0.8,1.9-0.8c0.7,0,1.3,0.2,1.7,0.6c0.4,0.4,0.6,1,0.6,1.8V257z     M291.5,256.3c0-0.5-0.1-0.9-0.4-1.1s-0.6-0.4-1.1-0.4c-0.5,0-0.9,0.1-1.2,0.4c-0.3,0.3-0.5,0.6-0.5,1.1H291.5z"/> 		<path d="M294.8,259.6h-0.9V252h0.9V259.6z"/> 		<path d="M297.5,259.6h-0.9V252h0.9V259.6z"/> 		<path d="M303.6,259.6h-0.9V259c-0.1,0.1-0.2,0.1-0.3,0.2c-0.1,0.1-0.3,0.2-0.4,0.2c-0.2,0.1-0.3,0.1-0.5,0.2    c-0.2,0-0.4,0.1-0.7,0.1c-0.5,0-0.9-0.2-1.3-0.5s-0.5-0.7-0.5-1.2c0-0.4,0.1-0.7,0.3-1c0.2-0.3,0.4-0.5,0.8-0.6    c0.3-0.1,0.7-0.2,1.2-0.3c0.5-0.1,1-0.1,1.5-0.1v-0.1c0-0.2,0-0.4-0.1-0.5s-0.2-0.2-0.3-0.3c-0.1-0.1-0.3-0.1-0.5-0.2    s-0.4,0-0.6,0c-0.2,0-0.5,0-0.8,0.1c-0.3,0.1-0.6,0.2-0.9,0.3h0v-0.9c0.2,0,0.4-0.1,0.8-0.2s0.7-0.1,1-0.1c0.4,0,0.7,0,1,0.1    c0.3,0.1,0.5,0.2,0.7,0.3c0.2,0.1,0.4,0.3,0.5,0.6s0.2,0.5,0.2,0.9V259.6z M302.6,258.3v-1.5c-0.3,0-0.6,0-1,0.1    c-0.4,0-0.7,0.1-0.9,0.1c-0.3,0.1-0.5,0.2-0.6,0.3c-0.2,0.2-0.2,0.4-0.2,0.7c0,0.3,0.1,0.5,0.3,0.7c0.2,0.2,0.5,0.2,0.9,0.2    c0.3,0,0.6-0.1,0.9-0.2C302.2,258.6,302.4,258.4,302.6,258.3z M302,253.2h-0.7l-1.3-1.8h1.2L302,253.2z"/> 		<path d="M268.8,269.6h-0.9V269c-0.3,0.2-0.5,0.4-0.8,0.5c-0.3,0.1-0.6,0.2-0.9,0.2c-0.7,0-1.2-0.3-1.6-0.8    c-0.4-0.5-0.6-1.2-0.6-2.1c0-0.5,0.1-0.9,0.2-1.2s0.3-0.7,0.5-0.9c0.2-0.2,0.5-0.4,0.8-0.6c0.3-0.1,0.6-0.2,0.9-0.2    c0.3,0,0.5,0,0.8,0.1c0.2,0.1,0.5,0.2,0.7,0.3V262h0.9V269.6z M267.9,268.3v-3.1c-0.2-0.1-0.5-0.2-0.7-0.2s-0.4-0.1-0.6-0.1    c-0.5,0-0.9,0.2-1.2,0.5c-0.3,0.4-0.4,0.9-0.4,1.5c0,0.6,0.1,1.1,0.3,1.5c0.2,0.3,0.6,0.5,1.1,0.5c0.3,0,0.5-0.1,0.8-0.2    C267.4,268.6,267.7,268.4,267.9,268.3z"/> 		<path d="M275.2,267h-4c0,0.3,0.1,0.6,0.2,0.9c0.1,0.3,0.2,0.5,0.4,0.6c0.2,0.2,0.4,0.3,0.6,0.4c0.2,0.1,0.5,0.1,0.8,0.1    c0.4,0,0.7-0.1,1.1-0.2c0.4-0.1,0.6-0.3,0.8-0.4h0v1c-0.3,0.1-0.6,0.2-0.9,0.3s-0.7,0.1-1,0.1c-0.9,0-1.6-0.2-2.1-0.7    c-0.5-0.5-0.8-1.2-0.8-2.1c0-0.9,0.2-1.6,0.7-2.1c0.5-0.5,1.1-0.8,1.9-0.8c0.7,0,1.3,0.2,1.7,0.6c0.4,0.4,0.6,1,0.6,1.8V267z     M274.3,266.3c0-0.5-0.1-0.9-0.4-1.1s-0.6-0.4-1.1-0.4c-0.5,0-0.9,0.1-1.2,0.4c-0.3,0.3-0.5,0.6-0.5,1.1H274.3z"/> 		<path d="M277.5,269.6h-0.9V262h0.9V269.6z"/> 		<path d="M288.1,263.2h-2.6v6.4h-1v-6.4h-2.6v-0.9h6.2V263.2z"/> 		<path d="M292.5,267h-4c0,0.3,0.1,0.6,0.2,0.9c0.1,0.3,0.2,0.5,0.4,0.6c0.2,0.2,0.4,0.3,0.6,0.4c0.2,0.1,0.5,0.1,0.8,0.1    c0.4,0,0.7-0.1,1.1-0.2c0.4-0.1,0.6-0.3,0.8-0.4h0v1c-0.3,0.1-0.6,0.2-0.9,0.3s-0.7,0.1-1,0.1c-0.9,0-1.6-0.2-2.1-0.7    c-0.5-0.5-0.8-1.2-0.8-2.1c0-0.9,0.2-1.6,0.7-2.1c0.5-0.5,1.1-0.8,1.9-0.8c0.7,0,1.3,0.2,1.7,0.6c0.4,0.4,0.6,1,0.6,1.8V267z     M291.6,266.3c0-0.5-0.1-0.9-0.4-1.1s-0.6-0.4-1.1-0.4c-0.5,0-0.9,0.1-1.2,0.4c-0.3,0.3-0.5,0.6-0.5,1.1H291.6z"/> 		<path d="M297.3,265.1L297.3,265.1c-0.2,0-0.3-0.1-0.4-0.1c-0.1,0-0.3,0-0.5,0c-0.3,0-0.6,0.1-0.8,0.2c-0.3,0.1-0.5,0.3-0.8,0.5    v3.9h-0.9v-5.5h0.9v0.8c0.4-0.3,0.7-0.5,1-0.6c0.3-0.1,0.6-0.2,0.9-0.2c0.2,0,0.3,0,0.3,0c0.1,0,0.2,0,0.3,0V265.1z"/> 		<path d="M301.6,265.1L301.6,265.1c-0.2,0-0.3-0.1-0.4-0.1c-0.1,0-0.3,0-0.5,0c-0.3,0-0.6,0.1-0.8,0.2c-0.3,0.1-0.5,0.3-0.8,0.5    v3.9h-0.9v-5.5h0.9v0.8c0.4-0.3,0.7-0.5,1-0.6c0.3-0.1,0.6-0.2,0.9-0.2c0.2,0,0.3,0,0.3,0c0.1,0,0.2,0,0.3,0V265.1z"/> 		<path d="M303.4,263.2h-1v-1h1V263.2z M303.4,269.6h-0.9v-5.5h0.9V269.6z"/> 	</g> 	<g> 		<path d="M252.1,331.4c0,0.3-0.1,0.6-0.2,0.9c-0.1,0.3-0.3,0.5-0.5,0.7c-0.3,0.3-0.5,0.4-0.9,0.6c-0.3,0.1-0.8,0.2-1.3,0.2h-1v2.7    h-1v-7.3h2c0.4,0,0.8,0,1.1,0.1s0.6,0.2,0.8,0.3c0.3,0.2,0.5,0.4,0.6,0.7S252.1,331,252.1,331.4z M251.1,331.4    c0-0.3,0-0.5-0.1-0.7s-0.2-0.3-0.4-0.5c-0.2-0.1-0.3-0.2-0.5-0.2s-0.5-0.1-0.8-0.1h-1v2.9h0.8c0.4,0,0.7,0,1-0.1    c0.2-0.1,0.4-0.2,0.6-0.3c0.2-0.2,0.3-0.3,0.3-0.5S251.1,331.6,251.1,331.4z"/> 		<path d="M257.3,336.5h-0.9v-0.6c-0.1,0.1-0.2,0.1-0.3,0.2c-0.1,0.1-0.3,0.2-0.4,0.2c-0.2,0.1-0.3,0.1-0.5,0.2    c-0.2,0-0.4,0.1-0.7,0.1c-0.5,0-0.9-0.2-1.3-0.5s-0.5-0.7-0.5-1.2c0-0.4,0.1-0.7,0.3-1c0.2-0.3,0.4-0.5,0.8-0.6    c0.3-0.1,0.7-0.2,1.2-0.3c0.5-0.1,1-0.1,1.5-0.1v-0.1c0-0.2,0-0.4-0.1-0.5s-0.2-0.2-0.3-0.3c-0.1-0.1-0.3-0.1-0.5-0.2    c-0.2,0-0.4,0-0.6,0c-0.2,0-0.5,0-0.8,0.1s-0.6,0.2-0.9,0.3h0v-0.9c0.2,0,0.4-0.1,0.8-0.2s0.7-0.1,1-0.1c0.4,0,0.7,0,1,0.1    c0.3,0.1,0.5,0.2,0.7,0.3c0.2,0.1,0.4,0.3,0.5,0.6s0.2,0.5,0.2,0.9V336.5z M256.4,335.1v-1.5c-0.3,0-0.6,0-1,0.1    c-0.4,0-0.7,0.1-0.9,0.1c-0.3,0.1-0.5,0.2-0.6,0.3c-0.2,0.2-0.2,0.4-0.2,0.7c0,0.3,0.1,0.5,0.3,0.7c0.2,0.2,0.5,0.2,0.9,0.2    c0.3,0,0.6-0.1,0.9-0.2C255.9,335.5,256.2,335.3,256.4,335.1z"/> 		<path d="M260,336.5h-0.9v-7.6h0.9V336.5z"/> 		<path d="M266.5,333.7c0,0.9-0.2,1.6-0.7,2.1c-0.5,0.5-1.1,0.8-1.8,0.8c-0.8,0-1.4-0.3-1.8-0.8s-0.7-1.2-0.7-2.1s0.2-1.6,0.7-2.1    c0.5-0.5,1.1-0.8,1.8-0.8c0.8,0,1.4,0.3,1.8,0.8C266.3,332.2,266.5,332.9,266.5,333.7z M265.5,333.7c0-0.7-0.1-1.2-0.4-1.6    c-0.3-0.3-0.7-0.5-1.2-0.5c-0.5,0-0.9,0.2-1.2,0.5c-0.3,0.3-0.4,0.9-0.4,1.6c0,0.7,0.1,1.2,0.4,1.6c0.3,0.4,0.7,0.5,1.2,0.5    c0.5,0,0.9-0.2,1.1-0.5C265.4,335,265.5,334.4,265.5,333.7z"/> 		<path d="M268.8,336.5h-0.9v-7.6h0.9V336.5z"/> 		<path d="M278.6,336.5h-0.9v-0.6c-0.3,0.2-0.5,0.4-0.8,0.5c-0.3,0.1-0.6,0.2-0.9,0.2c-0.7,0-1.2-0.3-1.5-0.8s-0.6-1.2-0.6-2.1    c0-0.5,0.1-0.9,0.2-1.2s0.3-0.7,0.5-0.9c0.2-0.2,0.5-0.4,0.8-0.6c0.3-0.1,0.6-0.2,0.9-0.2c0.3,0,0.5,0,0.8,0.1    c0.2,0.1,0.5,0.2,0.7,0.3v-2.4h0.9V336.5z M277.7,335.1V332c-0.2-0.1-0.5-0.2-0.7-0.2s-0.4-0.1-0.6-0.1c-0.5,0-0.9,0.2-1.2,0.5    c-0.3,0.4-0.4,0.9-0.4,1.5c0,0.6,0.1,1.1,0.3,1.5c0.2,0.3,0.6,0.5,1.1,0.5c0.3,0,0.5-0.1,0.8-0.2    C277.2,335.5,277.4,335.3,277.7,335.1z"/> 		<path d="M285,333.8h-4c0,0.3,0,0.6,0.2,0.9c0.1,0.2,0.2,0.5,0.4,0.6c0.2,0.2,0.4,0.3,0.6,0.4c0.2,0.1,0.5,0.1,0.8,0.1    c0.4,0,0.7-0.1,1.1-0.2c0.4-0.1,0.6-0.3,0.8-0.4h0v1c-0.3,0.1-0.6,0.2-0.9,0.3s-0.7,0.1-1,0.1c-0.9,0-1.6-0.2-2.1-0.7    c-0.5-0.5-0.8-1.2-0.8-2.1c0-0.9,0.2-1.6,0.7-2.1c0.5-0.5,1.1-0.8,1.9-0.8c0.7,0,1.3,0.2,1.7,0.6c0.4,0.4,0.6,1,0.6,1.8V333.8z     M284.1,333.1c0-0.5-0.1-0.9-0.4-1.1s-0.6-0.4-1.1-0.4c-0.5,0-0.9,0.1-1.2,0.4c-0.3,0.3-0.5,0.6-0.5,1.1H284.1z"/> 		<path d="M252.1,346.5h-1.3l-2.4-2.9h-1.4v2.9h-1v-7.3h2c0.4,0,0.8,0,1.1,0.1c0.3,0.1,0.6,0.2,0.8,0.3c0.3,0.2,0.5,0.4,0.6,0.6    c0.1,0.3,0.2,0.6,0.2,1c0,0.5-0.1,1-0.4,1.3c-0.3,0.4-0.6,0.6-1.1,0.8L252.1,346.5z M249.9,341.2c0-0.2,0-0.4-0.1-0.6    s-0.2-0.3-0.4-0.4c-0.1-0.1-0.3-0.2-0.5-0.2c-0.2,0-0.4-0.1-0.7-0.1h-1.1v2.7h1c0.3,0,0.6,0,0.8-0.1c0.2-0.1,0.4-0.2,0.6-0.3    c0.1-0.1,0.3-0.3,0.3-0.5C249.8,341.7,249.9,341.5,249.9,341.2z"/> 		<path d="M257.3,343.8h-4c0,0.3,0,0.6,0.2,0.9c0.1,0.2,0.2,0.5,0.4,0.6c0.2,0.2,0.4,0.3,0.6,0.4s0.5,0.1,0.8,0.1    c0.4,0,0.7-0.1,1.1-0.2c0.4-0.1,0.6-0.3,0.8-0.4h0v1c-0.3,0.1-0.6,0.2-0.9,0.3s-0.7,0.1-1,0.1c-0.9,0-1.6-0.2-2.1-0.7    c-0.5-0.5-0.8-1.2-0.8-2.1c0-0.9,0.2-1.6,0.7-2.1s1.1-0.8,1.9-0.8c0.7,0,1.3,0.2,1.7,0.6s0.6,1,0.6,1.8V343.8z M256.4,343.1    c0-0.5-0.1-0.9-0.4-1.1s-0.6-0.4-1.1-0.4c-0.5,0-0.9,0.1-1.2,0.4s-0.5,0.6-0.5,1.1H256.4z"/> 		<path d="M263.4,341l-2.2,5.5h-0.9l-2.2-5.5h1l1.7,4.3l1.7-4.3H263.4z"/> 		<path d="M268.7,346.5h-0.9v-0.6c-0.1,0.1-0.2,0.1-0.3,0.2c-0.1,0.1-0.3,0.2-0.4,0.2c-0.2,0.1-0.3,0.1-0.5,0.2    c-0.2,0-0.4,0.1-0.7,0.1c-0.5,0-0.9-0.2-1.3-0.5s-0.5-0.7-0.5-1.2c0-0.4,0.1-0.7,0.3-1c0.2-0.3,0.4-0.5,0.8-0.6    c0.3-0.1,0.7-0.2,1.2-0.3c0.5-0.1,1-0.1,1.5-0.1v-0.1c0-0.2,0-0.4-0.1-0.5s-0.2-0.2-0.3-0.3c-0.1-0.1-0.3-0.1-0.5-0.2    c-0.2,0-0.4,0-0.6,0c-0.2,0-0.5,0-0.8,0.1c-0.3,0.1-0.6,0.2-0.9,0.3h0v-0.9c0.2,0,0.4-0.1,0.8-0.2c0.3-0.1,0.7-0.1,1-0.1    c0.4,0,0.7,0,1,0.1s0.5,0.2,0.7,0.3c0.2,0.1,0.4,0.3,0.5,0.6s0.2,0.5,0.2,0.9V346.5z M267.7,345.1v-1.5c-0.3,0-0.6,0-1,0.1    s-0.7,0.1-0.9,0.1c-0.3,0.1-0.5,0.2-0.6,0.3c-0.2,0.2-0.2,0.4-0.2,0.7c0,0.3,0.1,0.5,0.3,0.7c0.2,0.2,0.5,0.2,0.9,0.2    c0.3,0,0.6-0.1,0.9-0.2C267.3,345.5,267.5,345.3,267.7,345.1z"/> 		<path d="M273.8,342L273.8,342c-0.2,0-0.3-0.1-0.4-0.1s-0.3,0-0.5,0c-0.3,0-0.6,0.1-0.8,0.2c-0.3,0.1-0.5,0.3-0.8,0.5v3.9h-0.9V341    h0.9v0.8c0.4-0.3,0.7-0.5,1-0.6s0.6-0.2,0.9-0.2c0.2,0,0.3,0,0.3,0c0.1,0,0.2,0,0.3,0V342z"/> 		<path d="M279.1,346.5h-0.9v-0.6c-0.3,0.2-0.5,0.4-0.8,0.5s-0.6,0.2-0.9,0.2c-0.7,0-1.2-0.3-1.5-0.8c-0.4-0.5-0.6-1.2-0.6-2.1    c0-0.5,0.1-0.9,0.2-1.2s0.3-0.7,0.5-0.9c0.2-0.2,0.5-0.4,0.8-0.6c0.3-0.1,0.6-0.2,0.9-0.2c0.3,0,0.5,0,0.8,0.1    c0.2,0.1,0.5,0.2,0.7,0.3v-2.4h0.9V346.5z M278.2,345.1V342c-0.2-0.1-0.5-0.2-0.7-0.2s-0.4-0.1-0.6-0.1c-0.5,0-0.9,0.2-1.2,0.5    s-0.4,0.9-0.4,1.5c0,0.6,0.1,1.1,0.3,1.5s0.6,0.5,1.1,0.5c0.3,0,0.5-0.1,0.8-0.2C277.7,345.5,278,345.3,278.2,345.1z"/> 		<path d="M281.9,340.1h-1v-1h1V340.1z M281.9,346.5h-0.9V341h0.9V346.5z"/> 		<path d="M286.5,346.4c-0.2,0-0.4,0.1-0.6,0.1c-0.2,0-0.4,0-0.5,0c-0.6,0-1-0.1-1.3-0.4c-0.3-0.3-0.4-0.8-0.4-1.4v-2.9h-0.6V341    h0.6v-1.6h0.9v1.6h1.9v0.8h-1.9v2.5c0,0.3,0,0.5,0,0.7s0.1,0.3,0.1,0.5c0.1,0.1,0.2,0.2,0.3,0.3c0.1,0.1,0.3,0.1,0.6,0.1    c0.1,0,0.3,0,0.5-0.1s0.3-0.1,0.4-0.1h0V346.4z"/> 	</g> 	<g> 	</g> 	<g> 		<path d="M320.6,23.2h-1.9l-0.5-1.5h-2.7l-0.5,1.5H313l2.7-7.3h2.2L320.6,23.2z M317.7,20.4l-0.9-2.6l-0.9,2.6H317.7z"/> 		<path d="M323.3,23.2h-1.8v-7.6h1.8V23.2z"/> 		<path d="M328.4,23.2c-0.2,0-0.4,0.1-0.6,0.1c-0.2,0-0.5,0-0.8,0c-0.7,0-1.2-0.1-1.5-0.4c-0.3-0.3-0.5-0.8-0.5-1.4v-2.6h-0.7v-1.2    h0.7v-1.6h1.8v1.6h1.6v1.2h-1.6v1.9c0,0.2,0,0.4,0,0.5c0,0.1,0,0.3,0.1,0.4c0,0.1,0.1,0.2,0.2,0.3s0.3,0.1,0.5,0.1    c0.1,0,0.2,0,0.4-0.1c0.1,0,0.3-0.1,0.3-0.1h0.1V23.2z"/> 		<path d="M338.3,23.2H333v-7.3h5.3v1.4h-3.4v1.3h3.1V20h-3.1v1.8h3.4V23.2z"/> 		<path d="M345.1,19.3v3.9h-1.8v-2.7c0-0.3,0-0.5,0-0.7s0-0.3-0.1-0.5s-0.1-0.2-0.3-0.3c-0.1-0.1-0.3-0.1-0.5-0.1    c-0.2,0-0.3,0-0.5,0.1s-0.3,0.1-0.4,0.2v3.9h-1.8v-5.5h1.8v0.6c0.3-0.2,0.6-0.4,0.9-0.6c0.3-0.1,0.6-0.2,0.9-0.2    c0.4,0,0.7,0.1,1,0.2c0.3,0.2,0.5,0.4,0.6,0.7c0.4-0.3,0.7-0.5,1-0.7c0.3-0.2,0.7-0.3,1-0.3c0.6,0,1,0.2,1.3,0.5    c0.3,0.4,0.5,0.9,0.5,1.5v3.6h-1.8v-2.7c0-0.3,0-0.5,0-0.7c0-0.2,0-0.3-0.1-0.5c-0.1-0.1-0.1-0.2-0.3-0.3S346.2,19,346,19    c-0.1,0-0.3,0-0.4,0.1S345.3,19.2,345.1,19.3z"/> 		<path d="M356,20.4c0,0.5-0.1,0.9-0.2,1.2c-0.1,0.4-0.3,0.7-0.5,0.9c-0.2,0.3-0.5,0.4-0.8,0.6c-0.3,0.1-0.6,0.2-1,0.2    c-0.3,0-0.6,0-0.8-0.1s-0.4-0.2-0.7-0.3v2.3h-1.8v-7.5h1.8v0.6c0.3-0.2,0.5-0.4,0.8-0.5c0.3-0.1,0.6-0.2,1-0.2    c0.7,0,1.2,0.3,1.6,0.8C355.8,18.8,356,19.5,356,20.4z M354.2,20.4c0-0.5-0.1-0.9-0.3-1.2c-0.2-0.2-0.5-0.4-0.9-0.4    c-0.2,0-0.3,0-0.5,0.1c-0.2,0.1-0.3,0.1-0.5,0.2v2.8c0.1,0,0.2,0.1,0.4,0.1c0.1,0,0.3,0,0.4,0c0.5,0,0.8-0.1,1-0.4    C354.1,21.4,354.2,21,354.2,20.4z"/> 		<path d="M362.9,20.5c0,0.9-0.3,1.6-0.8,2.1c-0.5,0.5-1.3,0.8-2.2,0.8c-1,0-1.7-0.3-2.2-0.8c-0.5-0.5-0.8-1.2-0.8-2.1    c0-0.9,0.3-1.6,0.8-2.1c0.5-0.5,1.3-0.8,2.2-0.8c1,0,1.7,0.3,2.2,0.8C362.6,18.8,362.9,19.6,362.9,20.5z M360.7,21.8    c0.1-0.1,0.2-0.3,0.3-0.5c0.1-0.2,0.1-0.5,0.1-0.8c0-0.3,0-0.6-0.1-0.8c-0.1-0.2-0.1-0.4-0.2-0.5c-0.1-0.1-0.2-0.2-0.4-0.3    c-0.1-0.1-0.3-0.1-0.5-0.1c-0.2,0-0.3,0-0.5,0.1c-0.1,0-0.3,0.1-0.4,0.3c-0.1,0.1-0.2,0.3-0.3,0.5c-0.1,0.2-0.1,0.5-0.1,0.8    c0,0.3,0,0.6,0.1,0.8c0.1,0.2,0.1,0.4,0.2,0.5c0.1,0.1,0.2,0.2,0.4,0.3c0.1,0.1,0.3,0.1,0.5,0.1c0.2,0,0.3,0,0.5-0.1    C360.5,22,360.6,21.9,360.7,21.8z"/> 		<path d="M368.1,19.4H368c-0.1,0-0.2,0-0.4-0.1c-0.2,0-0.3,0-0.4,0c-0.3,0-0.5,0-0.7,0c-0.2,0-0.4,0.1-0.6,0.2v3.7h-1.8v-5.5h1.8    v0.8c0.4-0.3,0.7-0.6,1-0.7c0.3-0.1,0.5-0.2,0.8-0.2c0.1,0,0.1,0,0.2,0c0.1,0,0.1,0,0.2,0V19.4z"/> 		<path d="M374.5,23.2h-1.8v-0.6c-0.3,0.2-0.6,0.4-0.8,0.5s-0.6,0.2-0.9,0.2c-0.7,0-1.2-0.3-1.6-0.8c-0.4-0.5-0.6-1.2-0.6-2.1    c0-0.5,0.1-0.9,0.2-1.2s0.3-0.7,0.6-0.9c0.2-0.2,0.5-0.4,0.8-0.6s0.6-0.2,0.9-0.2c0.3,0,0.6,0,0.8,0.1s0.4,0.2,0.6,0.3v-2.3h1.8    V23.2z M372.7,21.7V19c-0.1-0.1-0.3-0.1-0.4-0.1c-0.1,0-0.3,0-0.4,0c-0.5,0-0.8,0.1-1,0.4c-0.2,0.3-0.3,0.7-0.3,1.2    c0,0.5,0.1,0.9,0.3,1.2c0.2,0.2,0.5,0.4,0.9,0.4c0.2,0,0.3,0,0.5-0.1C372.4,21.9,372.6,21.8,372.7,21.7z"/> 		<path d="M379.4,22.6c-0.1,0.1-0.2,0.2-0.4,0.3c-0.1,0.1-0.3,0.2-0.4,0.2c-0.2,0.1-0.4,0.1-0.5,0.2s-0.4,0.1-0.6,0.1    c-0.5,0-1-0.2-1.3-0.5s-0.5-0.7-0.5-1.2c0-0.4,0.1-0.7,0.3-1c0.2-0.3,0.4-0.5,0.8-0.6c0.3-0.1,0.7-0.3,1.2-0.3    c0.5-0.1,1-0.1,1.5-0.1v0c0-0.3-0.1-0.5-0.4-0.6c-0.2-0.1-0.6-0.2-1.1-0.2c-0.3,0-0.6,0.1-0.9,0.2c-0.3,0.1-0.6,0.2-0.7,0.2h-0.2    v-1.3c0.2,0,0.5-0.1,0.9-0.2s0.8-0.1,1.3-0.1c1,0,1.7,0.2,2.2,0.5s0.7,0.8,0.7,1.4v3.7h-1.7V22.6z M379.9,16.9h-1.2l-1.7-1.8V15    h1.7L379.9,16.9z M379.4,21.8v-1.1c-0.2,0-0.5,0-0.8,0.1c-0.3,0-0.5,0.1-0.6,0.1c-0.2,0.1-0.3,0.1-0.4,0.2s-0.1,0.2-0.1,0.4    c0,0.1,0,0.2,0,0.3c0,0.1,0.1,0.1,0.1,0.2c0.1,0.1,0.2,0.1,0.3,0.1c0.1,0,0.3,0,0.5,0c0.2,0,0.4,0,0.5-0.1S379.3,21.9,379.4,21.8z    "/> 	</g> 	<g> 		<path d="M289,413.7c-0.3,0.1-0.8,0.3-1.3,0.4c-0.5,0.1-1.1,0.2-1.6,0.2c-1.2,0-2.2-0.3-2.9-1c-0.7-0.7-1-1.6-1-2.8    c0-1.1,0.4-2,1.1-2.7c0.7-0.7,1.7-1,3-1c0.5,0,0.9,0,1.4,0.1c0.4,0.1,0.9,0.3,1.4,0.5v1.7h-0.2c-0.1-0.1-0.2-0.2-0.4-0.3    c-0.2-0.1-0.3-0.2-0.5-0.3c-0.2-0.1-0.4-0.2-0.7-0.3c-0.3-0.1-0.5-0.1-0.8-0.1c-0.3,0-0.6,0-0.9,0.1c-0.3,0.1-0.5,0.2-0.7,0.4    c-0.2,0.2-0.4,0.4-0.5,0.7c-0.1,0.3-0.2,0.6-0.2,1c0,0.8,0.2,1.4,0.6,1.8c0.4,0.4,1.1,0.6,1.9,0.6c0.1,0,0.2,0,0.2,0    c0.1,0,0.2,0,0.2,0v-1.4h-1.5v-1.4h3.4V413.7z"/> 		<path d="M292.4,407.9h-1.9v-1.3h1.9V407.9z M292.3,414.1h-1.8v-5.5h1.8V414.1z"/> 		<path d="M298,410.3h-0.2c-0.1,0-0.2,0-0.4-0.1c-0.2,0-0.3,0-0.4,0c-0.3,0-0.5,0-0.7,0s-0.4,0.1-0.6,0.2v3.7H294v-5.5h1.8v0.8    c0.4-0.3,0.7-0.6,1-0.7c0.3-0.1,0.5-0.2,0.8-0.2c0.1,0,0.1,0,0.2,0s0.1,0,0.2,0V410.3z"/> 		<path d="M304.6,411.4c0,0.9-0.3,1.6-0.8,2.1c-0.5,0.5-1.3,0.8-2.2,0.8c-1,0-1.7-0.3-2.2-0.8c-0.5-0.5-0.8-1.2-0.8-2.1    c0-0.9,0.3-1.6,0.8-2.1s1.3-0.8,2.2-0.8c1,0,1.7,0.3,2.2,0.8S304.6,410.5,304.6,411.4z M302.4,412.7c0.1-0.1,0.2-0.3,0.3-0.5    c0.1-0.2,0.1-0.5,0.1-0.8c0-0.3,0-0.6-0.1-0.8s-0.1-0.4-0.2-0.5c-0.1-0.1-0.2-0.2-0.4-0.3s-0.3-0.1-0.5-0.1c-0.2,0-0.3,0-0.5,0.1    s-0.3,0.1-0.4,0.3c-0.1,0.1-0.2,0.3-0.3,0.5s-0.1,0.5-0.1,0.8c0,0.3,0,0.6,0.1,0.8c0.1,0.2,0.1,0.4,0.2,0.5    c0.1,0.1,0.2,0.2,0.4,0.3s0.3,0.1,0.5,0.1c0.2,0,0.3,0,0.5-0.1S302.3,412.9,302.4,412.7z"/> 		<path d="M311.4,414.1h-1.8v-2.7c0-0.2,0-0.4,0-0.7c0-0.2-0.1-0.4-0.1-0.5c-0.1-0.1-0.2-0.2-0.3-0.3s-0.3-0.1-0.5-0.1    c-0.2,0-0.3,0-0.5,0.1s-0.3,0.1-0.5,0.2v3.9h-1.8v-5.5h1.8v0.6c0.3-0.2,0.6-0.4,0.9-0.6c0.3-0.1,0.6-0.2,1-0.2    c0.6,0,1.1,0.2,1.4,0.5c0.3,0.3,0.5,0.9,0.5,1.5V414.1z"/> 		<path d="M318.4,411.7h-4c0,0.4,0.2,0.8,0.5,1s0.7,0.3,1.3,0.3c0.4,0,0.7-0.1,1.1-0.2c0.3-0.1,0.6-0.3,0.8-0.4h0.2v1.4    c-0.4,0.2-0.8,0.3-1.1,0.3s-0.7,0.1-1.2,0.1c-1.1,0-1.9-0.2-2.5-0.7s-0.9-1.2-0.9-2.1c0-0.9,0.3-1.6,0.8-2.2    c0.6-0.5,1.3-0.8,2.3-0.8c0.9,0,1.6,0.2,2,0.7c0.4,0.5,0.7,1.1,0.7,1.9V411.7z M316.7,407.9h-1.2l-1.7-1.8V406h1.7L316.7,407.9z     M316.6,410.7c0-0.4-0.1-0.6-0.3-0.8c-0.2-0.2-0.4-0.3-0.8-0.3c-0.3,0-0.6,0.1-0.8,0.3c-0.2,0.2-0.3,0.5-0.4,0.8H316.6z"/> 		<path d="M324.4,412.4c0,0.6-0.3,1-0.8,1.4s-1.2,0.5-2.1,0.5c-0.5,0-0.9,0-1.3-0.1s-0.7-0.2-1-0.3v-1.4h0.2    c0.1,0.1,0.2,0.1,0.3,0.2c0.1,0.1,0.3,0.2,0.5,0.2c0.2,0.1,0.4,0.1,0.6,0.2c0.2,0.1,0.5,0.1,0.7,0.1c0.3,0,0.6,0,0.8-0.1    c0.2-0.1,0.2-0.2,0.2-0.3c0-0.1,0-0.2-0.1-0.3c-0.1-0.1-0.3-0.1-0.6-0.2c-0.1,0-0.3-0.1-0.5-0.1c-0.2,0-0.4-0.1-0.6-0.1    c-0.5-0.1-0.9-0.3-1.1-0.6c-0.2-0.3-0.4-0.6-0.4-1c0-0.5,0.3-1,0.7-1.3c0.5-0.4,1.2-0.5,2-0.5c0.4,0,0.8,0,1.2,0.1    s0.7,0.2,0.9,0.3v1.4H324c-0.3-0.2-0.6-0.3-0.9-0.4c-0.3-0.1-0.7-0.2-1-0.2c-0.3,0-0.5,0-0.7,0.1c-0.2,0.1-0.3,0.2-0.3,0.3    c0,0.1,0,0.2,0.1,0.3s0.3,0.1,0.6,0.2c0.2,0,0.4,0.1,0.6,0.1c0.2,0,0.4,0.1,0.6,0.1c0.5,0.1,0.8,0.3,1,0.6    C324.3,411.7,324.4,412,324.4,412.4z"/> 	</g> 	<g> 		<path d="M66.4,33.4c-0.3,0.1-0.8,0.3-1.3,0.4S64,34,63.5,34c-1.2,0-2.2-0.3-2.9-1s-1-1.6-1-2.8c0-1.1,0.4-2,1.1-2.7s1.7-1,3-1    c0.5,0,0.9,0,1.4,0.1s0.9,0.3,1.4,0.5v1.7h-0.2c-0.1-0.1-0.2-0.2-0.4-0.3s-0.3-0.2-0.5-0.3c-0.2-0.1-0.4-0.2-0.7-0.3    c-0.3-0.1-0.5-0.1-0.8-0.1c-0.3,0-0.6,0-0.9,0.1s-0.5,0.2-0.7,0.4c-0.2,0.2-0.4,0.4-0.5,0.7s-0.2,0.6-0.2,1c0,0.8,0.2,1.4,0.6,1.8    c0.4,0.4,1.1,0.6,1.9,0.6c0.1,0,0.2,0,0.2,0c0.1,0,0.2,0,0.2,0v-1.4h-1.5v-1.4h3.4V33.4z"/> 		<path d="M71.3,33.2c-0.1,0.1-0.2,0.2-0.4,0.3c-0.1,0.1-0.3,0.2-0.4,0.2c-0.2,0.1-0.4,0.1-0.5,0.2S69.6,34,69.4,34    c-0.5,0-1-0.2-1.3-0.5s-0.5-0.7-0.5-1.2c0-0.4,0.1-0.7,0.3-1c0.2-0.3,0.4-0.5,0.8-0.6c0.3-0.1,0.7-0.3,1.2-0.3    c0.5-0.1,1-0.1,1.5-0.1v0c0-0.3-0.1-0.5-0.4-0.6c-0.2-0.1-0.6-0.2-1.1-0.2c-0.3,0-0.6,0.1-0.9,0.2c-0.3,0.1-0.6,0.2-0.7,0.2h-0.2    v-1.3c0.2,0,0.5-0.1,0.9-0.2c0.4-0.1,0.8-0.1,1.3-0.1c1,0,1.7,0.2,2.2,0.5s0.7,0.8,0.7,1.4v3.7h-1.7V33.2z M71.3,32.4v-1.1    c-0.2,0-0.5,0-0.8,0.1c-0.3,0-0.5,0.1-0.6,0.1c-0.2,0.1-0.3,0.1-0.4,0.2s-0.1,0.2-0.1,0.4c0,0.1,0,0.2,0,0.3    c0,0.1,0.1,0.1,0.1,0.2c0.1,0.1,0.2,0.1,0.3,0.1c0.1,0,0.3,0,0.5,0c0.2,0,0.4,0,0.5-0.1S71.2,32.5,71.3,32.4z"/> 		<path d="M78.6,30h-0.2c-0.1,0-0.2,0-0.4-0.1c-0.2,0-0.3,0-0.4,0c-0.3,0-0.5,0-0.7,0c-0.2,0-0.4,0.1-0.6,0.2v3.7h-1.8v-5.5h1.8v0.8    c0.4-0.3,0.7-0.6,1-0.7c0.3-0.1,0.5-0.2,0.8-0.2c0.1,0,0.1,0,0.2,0c0.1,0,0.1,0,0.2,0V30z"/> 		<path d="M83.6,30h-0.2c-0.1,0-0.2,0-0.4-0.1c-0.2,0-0.3,0-0.4,0c-0.3,0-0.5,0-0.7,0c-0.2,0-0.4,0.1-0.6,0.2v3.7h-1.8v-5.5h1.8v0.8    c0.4-0.3,0.7-0.6,1-0.7c0.3-0.1,0.5-0.2,0.8-0.2c0.1,0,0.1,0,0.2,0c0.1,0,0.1,0,0.2,0V30z"/> 		<path d="M90.2,31.1c0,0.9-0.3,1.6-0.8,2.1c-0.5,0.5-1.3,0.8-2.2,0.8c-1,0-1.7-0.3-2.2-0.8c-0.5-0.5-0.8-1.2-0.8-2.1    c0-0.9,0.3-1.6,0.8-2.1c0.5-0.5,1.3-0.8,2.2-0.8c1,0,1.7,0.3,2.2,0.8C90,29.5,90.2,30.2,90.2,31.1z M88.1,32.4    c0.1-0.1,0.2-0.3,0.3-0.5c0.1-0.2,0.1-0.5,0.1-0.8c0-0.3,0-0.6-0.1-0.8c-0.1-0.2-0.1-0.4-0.2-0.5c-0.1-0.1-0.2-0.2-0.4-0.3    c-0.1-0.1-0.3-0.1-0.5-0.1c-0.2,0-0.3,0-0.5,0.1c-0.1,0-0.3,0.1-0.4,0.3c-0.1,0.1-0.2,0.3-0.3,0.5c-0.1,0.2-0.1,0.5-0.1,0.8    c0,0.3,0,0.6,0.1,0.8c0.1,0.2,0.1,0.4,0.2,0.5c0.1,0.1,0.2,0.2,0.4,0.3c0.1,0.1,0.3,0.1,0.5,0.1c0.2,0,0.3,0,0.5-0.1    C87.8,32.6,88,32.5,88.1,32.4z"/> 		<path d="M95,33.8c-0.2,0-0.4,0.1-0.6,0.1c-0.2,0-0.5,0-0.8,0c-0.7,0-1.2-0.1-1.5-0.4c-0.3-0.3-0.5-0.8-0.5-1.4v-2.6h-0.7v-1.2h0.7    v-1.6h1.8v1.6H95v1.2h-1.6v1.9c0,0.2,0,0.4,0,0.5c0,0.1,0,0.3,0.1,0.4c0,0.1,0.1,0.2,0.2,0.3s0.3,0.1,0.5,0.1c0.1,0,0.2,0,0.4-0.1    c0.1,0,0.3-0.1,0.3-0.1H95V33.8z"/> 		<path d="M101.8,33.8h-2.1l-1.2-1.6l-1.2,1.6h-2l2.2-2.7l-2.1-2.7h2.1l1.2,1.6l1.2-1.6h2L99.6,31L101.8,33.8z"/> 		<path d="M106.1,33.2c-0.1,0.1-0.2,0.2-0.4,0.3c-0.1,0.1-0.3,0.2-0.4,0.2c-0.2,0.1-0.4,0.1-0.5,0.2s-0.4,0.1-0.6,0.1    c-0.5,0-1-0.2-1.3-0.5s-0.5-0.7-0.5-1.2c0-0.4,0.1-0.7,0.3-1c0.2-0.3,0.4-0.5,0.8-0.6c0.3-0.1,0.7-0.3,1.2-0.3    c0.5-0.1,1-0.1,1.5-0.1v0c0-0.3-0.1-0.5-0.4-0.6c-0.2-0.1-0.6-0.2-1.1-0.2c-0.3,0-0.6,0.1-0.9,0.2c-0.3,0.1-0.6,0.2-0.7,0.2h-0.2    v-1.3c0.2,0,0.5-0.1,0.9-0.2c0.4-0.1,0.8-0.1,1.3-0.1c1,0,1.7,0.2,2.2,0.5s0.7,0.8,0.7,1.4v3.7h-1.7V33.2z M106.1,32.4v-1.1    c-0.2,0-0.5,0-0.8,0.1c-0.3,0-0.5,0.1-0.6,0.1c-0.2,0.1-0.3,0.1-0.4,0.2s-0.1,0.2-0.1,0.4c0,0.1,0,0.2,0,0.3    c0,0.1,0.1,0.1,0.1,0.2c0.1,0.1,0.2,0.1,0.3,0.1c0.1,0,0.3,0,0.5,0c0.2,0,0.4,0,0.5-0.1S105.9,32.5,106.1,32.4z"/> 	</g> 	<g> 		<path d="M20.9,431.6c0,0.7-0.3,1.3-0.9,1.7c-0.6,0.4-1.4,0.7-2.5,0.7c-0.6,0-1.1-0.1-1.6-0.2c-0.4-0.1-0.9-0.2-1.3-0.4v-1.7h0.2    c0.4,0.3,0.8,0.5,1.3,0.7s0.9,0.2,1.4,0.2c0.1,0,0.3,0,0.4,0s0.3-0.1,0.5-0.1c0.1-0.1,0.3-0.1,0.4-0.2s0.1-0.2,0.1-0.4    c0-0.2-0.1-0.3-0.2-0.4c-0.1-0.1-0.3-0.2-0.6-0.3c-0.3-0.1-0.6-0.1-0.9-0.2c-0.3-0.1-0.6-0.1-0.9-0.2c-0.6-0.2-1.1-0.5-1.3-0.8    c-0.3-0.3-0.4-0.8-0.4-1.3c0-0.7,0.3-1.2,0.9-1.7c0.6-0.4,1.4-0.6,2.3-0.6c0.5,0,1,0,1.4,0.1s0.9,0.2,1.2,0.3v1.7h-0.2    c-0.3-0.2-0.7-0.4-1.1-0.6c-0.4-0.2-0.9-0.2-1.3-0.2c-0.2,0-0.3,0-0.5,0c-0.2,0-0.3,0.1-0.4,0.1c-0.1,0-0.2,0.1-0.3,0.2    c-0.1,0.1-0.1,0.2-0.1,0.3c0,0.2,0.1,0.3,0.2,0.4s0.4,0.2,0.8,0.3c0.3,0.1,0.5,0.1,0.8,0.2s0.5,0.1,0.8,0.2c0.6,0.2,1,0.4,1.2,0.7    C20.7,430.7,20.9,431.1,20.9,431.6z"/> 		<path d="M27.5,431.5h-4c0,0.4,0.2,0.8,0.5,1c0.3,0.2,0.7,0.3,1.3,0.3c0.4,0,0.7-0.1,1.1-0.2c0.3-0.1,0.6-0.3,0.8-0.4h0.2v1.4    c-0.4,0.2-0.8,0.3-1.1,0.3s-0.7,0.1-1.2,0.1c-1.1,0-1.9-0.2-2.5-0.7s-0.9-1.2-0.9-2.1c0-0.9,0.3-1.6,0.8-2.2    c0.6-0.5,1.3-0.8,2.3-0.8c0.9,0,1.6,0.2,2,0.7c0.4,0.5,0.7,1.1,0.7,1.9V431.5z M25.7,430.4c0-0.4-0.1-0.6-0.3-0.8    c-0.2-0.2-0.4-0.3-0.8-0.3c-0.3,0-0.6,0.1-0.8,0.3c-0.2,0.2-0.3,0.5-0.4,0.8H25.7z"/> 		<path d="M30.5,433.9h-1.8v-7.6h1.8V433.9z"/> 		<path d="M37.6,428.4l-2.1,5.5h-2l-2.1-5.5h1.9l1.3,3.8l1.3-3.8H37.6z"/> 		<path d="M41.9,433.3c-0.1,0.1-0.2,0.2-0.4,0.3c-0.1,0.1-0.3,0.2-0.4,0.2c-0.2,0.1-0.4,0.1-0.5,0.2c-0.2,0-0.4,0.1-0.6,0.1    c-0.5,0-1-0.2-1.3-0.5s-0.5-0.7-0.5-1.2c0-0.4,0.1-0.7,0.3-1c0.2-0.3,0.4-0.5,0.8-0.6c0.3-0.1,0.7-0.3,1.2-0.3    c0.5-0.1,1-0.1,1.5-0.1v0c0-0.3-0.1-0.5-0.4-0.6c-0.2-0.1-0.6-0.2-1.1-0.2c-0.3,0-0.6,0.1-0.9,0.2c-0.3,0.1-0.6,0.2-0.7,0.2h-0.2    v-1.3c0.2,0,0.5-0.1,0.9-0.2c0.4-0.1,0.8-0.1,1.3-0.1c1,0,1.7,0.2,2.2,0.5s0.7,0.8,0.7,1.4v3.7h-1.7V433.3z M41.9,432.4v-1.1    c-0.2,0-0.5,0-0.8,0.1c-0.3,0-0.5,0.1-0.6,0.1c-0.2,0.1-0.3,0.1-0.4,0.2S40,432,40,432.2c0,0.1,0,0.2,0,0.3c0,0.1,0.1,0.1,0.1,0.2    c0.1,0.1,0.2,0.1,0.3,0.1c0.1,0,0.3,0,0.5,0c0.2,0,0.4,0,0.5-0.1C41.6,432.6,41.8,432.6,41.9,432.4z"/> 	</g> </g> <g id="llegenda"> 	<line style="fill:none;stroke:#9A9A9A;stroke-width:2;stroke-miterlimit:10;" x1="-100.1" y1="99.3" x2="-100.1" y2="128.8"/> 	<line style="fill:none;stroke:#9A9A9A;stroke-miterlimit:10;" x1="-66.6" y1="99.3" x2="-66.6" y2="128.8"/> 	<g> 		<path d="M-92.3,109.7h0.9v7.1h-0.9V109.7z"/> 		<path d="M-89,110.6c0,0.3-0.2,0.5-0.6,0.5c-0.3,0-0.5-0.2-0.5-0.5s0.2-0.5,0.5-0.5C-89.2,110-89,110.2-89,110.6z M-90,116.8v-4.8    h0.9v4.8H-90z"/> 		<path d="M-87.6,113.2c0-0.5,0-0.9,0-1.3h0.8l0,0.8h0c0.2-0.4,0.8-0.9,1.6-0.9c0.7,0,1.7,0.4,1.7,2.1v2.9h-0.9V114    c0-0.8-0.3-1.4-1.1-1.4c-0.6,0-1,0.4-1.2,0.9c0,0.1-0.1,0.3-0.1,0.4v2.9h-0.9V113.2z"/> 	</g> 	<line style="fill:none;stroke:#696969;stroke-width:2;stroke-miterlimit:10;" x1="-100.1" y1="138.8" x2="-100.1" y2="168.3"/> 	<g> 		<path d="M-92.3,149.2h0.9v7.1h-0.9V149.2z"/> 		<path d="M-89,150.1c0,0.3-0.2,0.5-0.6,0.5c-0.3,0-0.5-0.2-0.5-0.5s0.2-0.5,0.5-0.5C-89.2,149.6-89,149.8-89,150.1z M-90,156.3    v-4.8h0.9v4.8H-90z"/> 		<path d="M-87.6,152.8c0-0.5,0-0.9,0-1.3h0.8l0,0.8h0c0.2-0.4,0.8-0.9,1.6-0.9c0.7,0,1.7,0.4,1.7,2.1v2.9h-0.9v-2.8    c0-0.8-0.3-1.4-1.1-1.4c-0.6,0-1,0.4-1.2,0.9c0,0.1-0.1,0.3-0.1,0.4v2.9h-0.9V152.8z"/> 	</g> 	<rect x="-105.4" y="74.7" style="fill:#BFBFBF;" width="16.3" height="15.3"/> 	<rect x="-105.4" y="47" style="fill:#DCE9FB;" width="16.3" height="15.3"/> 	<rect x="-136.8" y="47" style="fill:#D0E0A4;" width="16.3" height="15.3"/> 	<g> 		<path d="M-79.9,84v-4.2h-0.7v-0.7h0.7v-0.2c0-0.7,0.2-1.3,0.6-1.7c0.3-0.3,0.8-0.4,1.2-0.4c0.3,0,0.6,0.1,0.7,0.1l-0.1,0.7    c-0.1-0.1-0.3-0.1-0.6-0.1c-0.7,0-0.9,0.6-0.9,1.4v0.3h1.2v0.7H-79V84H-79.9z"/> 		<path d="M-72.8,81.5c0,1.8-1.2,2.6-2.4,2.6c-1.3,0-2.3-1-2.3-2.5c0-1.6,1.1-2.6,2.4-2.6C-73.7,79.1-72.8,80.1-72.8,81.5z     M-76.6,81.6c0,1.1,0.6,1.9,1.5,1.9c0.8,0,1.5-0.8,1.5-1.9c0-0.8-0.4-1.8-1.4-1.8C-76.2,79.7-76.6,80.7-76.6,81.6z"/> 		<path d="M-71.7,80.5c0-0.5,0-0.9,0-1.3h0.8l0,0.8h0c0.2-0.4,0.8-0.9,1.6-0.9c0.7,0,1.7,0.4,1.7,2.1V84h-0.9v-2.8    c0-0.8-0.3-1.4-1.1-1.4c-0.6,0-1,0.4-1.2,0.9c0,0.1-0.1,0.3-0.1,0.4V84h-0.9V80.5z"/> 		<path d="M-66.3,83.1c0.3,0.2,0.7,0.3,1.2,0.3c0.6,0,0.9-0.3,0.9-0.7c0-0.4-0.3-0.6-0.9-0.9c-0.9-0.3-1.3-0.8-1.3-1.4    c0-0.8,0.6-1.4,1.7-1.4c0.5,0,0.9,0.1,1.2,0.3l-0.2,0.6c-0.2-0.1-0.5-0.3-1-0.3c-0.5,0-0.8,0.3-0.8,0.7c0,0.4,0.3,0.6,0.9,0.8    c0.8,0.3,1.3,0.7,1.3,1.4c0,0.9-0.7,1.5-1.8,1.5c-0.5,0-1-0.1-1.4-0.3L-66.3,83.1z"/> 	</g> 	<g> 		<path d="M-80,53.1c0-0.5,0-0.9,0-1.3h0.8l0,0.8h0c0.3-0.5,0.7-0.9,1.5-0.9c0.6,0,1.1,0.4,1.4,1h0c0.1-0.3,0.4-0.5,0.5-0.6    c0.3-0.2,0.6-0.3,1.1-0.3c0.6,0,1.6,0.4,1.6,2.1v2.8h-0.9v-2.7c0-0.9-0.3-1.5-1-1.5c-0.5,0-0.9,0.4-1,0.8c0,0.1-0.1,0.3-0.1,0.4v3    h-0.9v-2.9c0-0.8-0.3-1.3-1-1.3c-0.5,0-0.9,0.4-1.1,0.9c-0.1,0.1-0.1,0.3-0.1,0.4v2.9H-80V53.1z"/> 		<path d="M-68.2,55.5c0,0.4,0,0.8,0.1,1.2H-69l-0.1-0.6h0c-0.3,0.4-0.8,0.7-1.5,0.7c-1,0-1.5-0.7-1.5-1.4c0-1.2,1-1.8,2.9-1.8v-0.1    c0-0.4-0.1-1.1-1.1-1.1c-0.5,0-0.9,0.1-1.3,0.4l-0.2-0.6c0.4-0.3,1-0.4,1.6-0.4c1.5,0,1.8,1,1.8,2V55.5z M-69.1,54.2    c-1,0-2,0.1-2,1.1c0,0.6,0.4,0.8,0.8,0.8c0.6,0,1-0.4,1.2-0.8c0-0.1,0-0.2,0-0.3V54.2z"/> 		<path d="M-66.8,53.3c0-0.6,0-1.1,0-1.5h0.8l0,1h0c0.2-0.6,0.8-1.1,1.3-1.1c0.1,0,0.2,0,0.2,0v0.8c-0.1,0-0.2,0-0.3,0    c-0.6,0-1.1,0.5-1.2,1.1c0,0.1,0,0.3,0,0.4v2.6h-0.9V53.3z"/> 	</g> 	<circle style="fill-rule:evenodd;clip-rule:evenodd;fill:#5B7EBD;" cx="-100.1" cy="183.4" r="2.4"/> 	<rect x="-180.9" y="74.7" style="fill:#BFBFBF;stroke:#696969;stroke-width:2;stroke-miterlimit:10;" width="16.3" height="15.3"/> 	<rect x="-154.7" y="74.7" style="fill:#FFFBF0;stroke:#9A9A9A;stroke-width:2;stroke-miterlimit:10;" width="16.3" height="15.3"/> 	<rect x="-163.9" y="105.3" style="opacity:0.6;fill:#FFFBF0;" width="51" height="13.5"/> </g> </svg>