<svg xmlns="http://www.w3.org/2000/svg" xmlns:xlink="http://www.w3.org/1999/xlink" version="1.1" x="0px" y="0px" width="450px" height="450px" viewBox="0 0 450 450" style="enable-background:new 0 0 450 450;" xml:space="preserve"> <g id="color_provincies"> 	<polygon style="fill:#FFFBF0;" points="1405.8,-320.3 1409,-319.6 1410.4,-321 1407.7,-323.5  "/> 	<a> 		<path style="fill:#BFBFBF;stroke:#696969;stroke-width:2;stroke-miterlimit:10;" d="M474.6,143.9c-4.3,15.9-12.6,27.4-22,40.6    c-18.3,25.6-20.8,28-13.3,57.4c5.6,21.9,8.4,69.6,39.7,84.3c0-63.7,0-127.4,0-191.1C477.5,138,476.1,140.9,474.6,143.9    L474.6,143.9z"/> 	</a> 	<path style="fill:#FFFBF0;" d="M1321.5-689.4l-0.3-0.2l1.8,0.5L1321.5-689.4z"/> 	<a> 		<path style="fill:#BFBFBF;stroke:#696969;stroke-width:2;stroke-miterlimit:10;" d="M241.6-13.3c-18.4-9.5-41-8.2-62.8-8.5    c-69.1-1.1-138.3-1.7-207.4-2c1.5,81.5-2.5,162.2-5.2,243.6c-2.7,82,2.9,165.6-8.4,247.2c22.4,0.2,116.2,19.4,121.6-4.4    c7.4,7.7,5.4-38.9,7.4-51.4c5.9-36.8,41.2-53.3,50.6-40.7c30.4-37.7-13-27-0.4-59.7c2.6-6.7-1.4-14,1.5-19.7    c6.7-13.2,29.4-36.4,33.6-36.1c2.3,0.5,4.6,1,7,1.5c2.2-11.7,3.3-18.5,5.9-32.3c0.2-1.2-7.6-13.7-1.9-27.1    c6.3-14.9,28.5-36.5,32.2-50c4.8-17.4,4.2-31.4,13.2-45.5c8.7-13.7,8-26.1,10.4-42c1.8-11.8-3.6-32.7,5-42.3    C258.4,1.1,254.1,2.4,241.6-13.3L241.6-13.3z"/> 	</a> 	<a> 		<path style="fill:#BFBFBF;stroke:#696969;stroke-width:2;stroke-miterlimit:10;" d="M502.2,361.5c-21.1-26.8-53.9-63.5-58.9-100.2    c-8.9-65.2-61.7,6.2-113.7-30.6c-1,8.2-2.8,26.5-3,40.2c-0.1,6.9,3.7,6.7,1.5,13.4c-3.8,11.5-29.4,30.5-21.8,41    c-18.5,5.7-19.9,27.8-21,42.9c-1.1,16-12.8,8.6-19.4,14.2c-9.4,7.9-7,25.8-25.6,13.6c16.7-24.3-32.5-0.3-28.2,12.9    c-17.4-9.8-37.1-3-55.5-3.7c-18.2-0.7-48.7-8.6-21.2-36.4c-9.7-7.8-22.4,1-32.3,8.3C74.5,398,93,468.5,79.4,462.4    c-3.4,3.8-6.4,8.2-8.7,10.5c143.3,12.1,284.9,9.4,428.5,11.9C499.8,443.8,499.5,402.6,502.2,361.5    C502.2,361.5,502.1,363.7,502.2,361.5z"/> 	</a> 	<a> 		<path style="fill:#BFBFBF;stroke:#696969;stroke-width:2;stroke-miterlimit:10;" d="M501.5-4.6c-7.4-18.5-107.7-11.5-128.4-12.2    c-53.2-2-106.5-3.4-159.7-4.4c17-1.1,50.5,16.4,35.2,33.2c-4.4,4.8-11,7.5-9.3,13.9c1.9,7.1,16.8,54.7,22.5,73.9    c18.7,62.5,39.2,75.2,68,118.5c-5.4,22.2,15.7,20.6,30,23.5c13.6,2.8,35.3-3.7,48.3-7.7c16.4-5.1,26.4,1.1,32,12.3    c-7.7-31.7-1.8-41.8,17.2-68.4c12-16.8,18.2-35.6,27.3-54C502.4,88.1,509.4,33.7,501.5-4.6L501.5-4.6z"/> 	</a> </g> <g id="color_vega_media"> 	<a> 		<path style="fill:#FFFBF0;stroke:#9A9A9A;stroke-width:2;stroke-miterlimit:10;" d="M184.9,224.8c28.6,13.8,53.6,16.4,30.6,70.6    c-3.4,8.1-5,12.3-9.7,10.8c-16-5.2-12.8-26.9-14.9-30.9c-5.5-10.3-10-9.7-18.8-20.5c2.3,0.5,4.6,1,7,1.5    C181,245.8,182.9,235.3,184.9,224.8L184.9,224.8z"/> 	</a> 	<a> 		<path style="fill:#FFFBF0;stroke:#9A9A9A;stroke-width:2;stroke-miterlimit:10;" d="M190.8,273.9c2.9,5.6,0.1,19.7,8,26.2    c-6.8,11.2-60.8,0.5-61.3-5.9c-0.5-6.4,22.7-32.3,32.1-39.7C169.7,254.5,188,268.4,190.8,273.9z"/> 	</a> 	<a> 		<path style="fill:#FFFBF0;stroke:#9A9A9A;stroke-width:2;stroke-miterlimit:10;" d="M198.9,300.2c3.2,6,24.4,12.3,23.7,31.9    c5.8,1.9,15.5,0.1,17.8,9c0.6,2.2,0,0-6.7,10.8c-5.9-12.1-37.8-19.4-31.4-5.8c4.7,10-24.9-1.7-28.1-3.6c-8.7,8.7-19.5,3.5-28-2.3    c-25.2-17.3-3.8-24.4-8.5-43.6C153.6,298.6,188.6,310.3,198.9,300.2L198.9,300.2z"/> 	</a> 	<a> 		<path style="fill:#FFFBF0;stroke:#9A9A9A;stroke-width:2;stroke-miterlimit:10;" d="M233.2,349.6c2.4,1.3-1.8,7.9,5.6,4.8    c10.4-4.4,6.4,22.8,5.3,30.3c-12.5,1.8-35,14.6-31.9,24.2c-23.1-13-61.5,8.8-83-13.3c-22-22.6,30.5-29.5,16-55.1    c-0.7-3.7,15.8,15.3,29.1,2.2c3.2,1.9,32.8,13.5,28.1,3.6C195.9,332.5,227.3,337.5,233.2,349.6L233.2,349.6z"/> 	</a> 	<a> 		<path style="fill:#FFFBF0;stroke:#9A9A9A;stroke-width:2;stroke-miterlimit:10;" d="M239.3,27c12,40.9,24.3,81.5,41.9,120    c13.2,28.9,35.9,48,48.7,71.1c1-1.5-4.3,51.8-2.7,55.7c8.7,20.3-32.3,37.6-20.8,51.3c-18.5,5.7-19.9,27.8-21,42.9    c-1.1,16-12.8,8.6-19.4,14.2c-9.4,7.9-7,25.8-25.6,13.6c7.4-9.9,5.4-28.4,3.7-38.8c-0.5-3.3-4.1-3.3-6.9-2.2    c-9.7,3.9,3-15.7,4.7-12.2c-4.8-9.8-7.2-6.8-19.3-10.7c1.7-3.9-4.2-20-14.9-25.2c0,0,13.4-24.1,14.8-30    c9-36.6-19.6-43.5-37.6-52.1c-4.6-21.8-8.3-18.3,1.3-34.6c3.5-5.9,13-20,21.7-29.9c16-18.2,5.6-43.9,23.5-64.3    C238.4,88,237.4,38.9,239.3,27L239.3,27z"/> 	</a> </g> <g id="text-municipis"> 	<g> 		<rect x="175.2" y="210.1" style="fill-rule:evenodd;clip-rule:evenodd;fill:none;" width="171.1" height="35.1"/> 		<path d="M224.6,217.7h-1v-6.3l-2,4.3h-0.6l-2-4.3v6.3h-0.9v-7.3h1.3l1.9,4l1.9-4h1.3V217.7z"/> 		<path d="M231.2,214.9c0,0.9-0.2,1.6-0.7,2.1s-1.1,0.8-1.8,0.8c-0.8,0-1.4-0.3-1.8-0.8s-0.7-1.2-0.7-2.1s0.2-1.6,0.7-2.1    s1.1-0.8,1.8-0.8c0.8,0,1.4,0.3,1.8,0.8S231.2,214,231.2,214.9z M230.2,214.9c0-0.7-0.1-1.2-0.4-1.6c-0.3-0.3-0.7-0.5-1.2-0.5    c-0.5,0-0.9,0.2-1.2,0.5c-0.3,0.3-0.4,0.9-0.4,1.6c0,0.7,0.1,1.2,0.4,1.6c0.3,0.4,0.7,0.5,1.2,0.5c0.5,0,0.9-0.2,1.2-0.5    C230.1,216.1,230.2,215.6,230.2,214.9z"/> 		<path d="M233.5,217.7h-0.9v-7.6h0.9V217.7z"/> 		<path d="M236.3,211.3h-1v-1h1V211.3z M236.3,217.7h-0.9v-5.5h0.9V217.7z"/> 		<path d="M242.6,217.7h-0.9v-3.1c0-0.3,0-0.5,0-0.7s-0.1-0.4-0.2-0.5c-0.1-0.1-0.2-0.2-0.4-0.3s-0.4-0.1-0.6-0.1    c-0.3,0-0.5,0.1-0.8,0.2s-0.5,0.3-0.8,0.5v4.1h-0.9v-5.5h0.9v0.6c0.3-0.2,0.6-0.4,0.9-0.6c0.3-0.1,0.6-0.2,0.9-0.2    c0.6,0,1,0.2,1.3,0.5s0.5,0.9,0.5,1.5V217.7z"/> 		<path d="M248.7,217.7h-0.9v-0.6c-0.1,0.1-0.2,0.1-0.3,0.2s-0.3,0.2-0.4,0.2c-0.2,0.1-0.3,0.1-0.5,0.2c-0.2,0.1-0.4,0.1-0.7,0.1    c-0.5,0-0.9-0.2-1.3-0.5c-0.3-0.3-0.5-0.7-0.5-1.2c0-0.4,0.1-0.7,0.3-1s0.4-0.5,0.8-0.6c0.3-0.1,0.7-0.2,1.2-0.3s1-0.1,1.5-0.1    v-0.1c0-0.2,0-0.4-0.1-0.5s-0.2-0.2-0.3-0.3c-0.1-0.1-0.3-0.1-0.5-0.2c-0.2,0-0.4,0-0.6,0c-0.2,0-0.5,0-0.8,0.1    c-0.3,0.1-0.6,0.2-0.9,0.3h0v-0.9c0.2,0,0.4-0.1,0.8-0.2s0.7-0.1,1-0.1c0.4,0,0.7,0,1,0.1s0.5,0.2,0.7,0.3    c0.2,0.1,0.4,0.3,0.5,0.6s0.2,0.5,0.2,0.9V217.7z M247.7,216.3v-1.5c-0.3,0-0.6,0-1,0.1c-0.4,0-0.7,0.1-0.9,0.1    c-0.3,0.1-0.5,0.2-0.6,0.3c-0.2,0.2-0.2,0.4-0.2,0.7c0,0.3,0.1,0.5,0.3,0.7c0.2,0.2,0.5,0.2,0.9,0.2c0.3,0,0.6-0.1,0.9-0.2    C247.3,216.6,247.5,216.5,247.7,216.3z"/> 		<path d="M258.4,217.7h-0.9v-0.6c-0.3,0.2-0.5,0.4-0.8,0.5c-0.3,0.1-0.6,0.2-0.9,0.2c-0.7,0-1.2-0.3-1.6-0.8s-0.6-1.2-0.6-2.1    c0-0.5,0.1-0.9,0.2-1.2s0.3-0.7,0.5-0.9c0.2-0.2,0.5-0.4,0.8-0.6c0.3-0.1,0.6-0.2,0.9-0.2c0.3,0,0.5,0,0.8,0.1    c0.2,0.1,0.5,0.2,0.7,0.3v-2.4h0.9V217.7z M257.4,216.3v-3.1c-0.2-0.1-0.5-0.2-0.7-0.2s-0.4-0.1-0.6-0.1c-0.5,0-0.9,0.2-1.2,0.5    c-0.3,0.4-0.4,0.9-0.4,1.5c0,0.6,0.1,1.1,0.3,1.5s0.6,0.5,1.1,0.5c0.3,0,0.5-0.1,0.8-0.2C257,216.6,257.2,216.5,257.4,216.3z"/> 		<path d="M264.7,215h-4c0,0.3,0,0.6,0.2,0.9c0.1,0.2,0.2,0.5,0.4,0.6c0.2,0.2,0.4,0.3,0.6,0.4c0.2,0.1,0.5,0.1,0.8,0.1    c0.4,0,0.7-0.1,1.1-0.2c0.4-0.1,0.6-0.3,0.8-0.4h0v1c-0.3,0.1-0.6,0.2-0.9,0.3s-0.7,0.1-1,0.1c-0.9,0-1.6-0.2-2.1-0.7    c-0.5-0.5-0.8-1.2-0.8-2.1c0-0.9,0.2-1.6,0.7-2.1s1.1-0.8,1.9-0.8c0.7,0,1.3,0.2,1.7,0.6c0.4,0.4,0.6,1,0.6,1.8V215z M263.8,214.3    c0-0.5-0.1-0.9-0.4-1.1c-0.2-0.3-0.6-0.4-1.1-0.4c-0.5,0-0.9,0.1-1.2,0.4c-0.3,0.3-0.5,0.6-0.5,1.1H263.8z"/> 		<path d="M275,215.6c0,0.3-0.1,0.6-0.2,0.8s-0.3,0.5-0.6,0.7c-0.3,0.2-0.6,0.4-0.9,0.5c-0.3,0.1-0.8,0.2-1.3,0.2    c-0.5,0-1,0-1.4-0.1c-0.4-0.1-0.8-0.2-1.3-0.4V216h0.1c0.4,0.3,0.8,0.5,1.3,0.7c0.5,0.2,0.9,0.2,1.4,0.2c0.6,0,1.1-0.1,1.4-0.3    c0.3-0.2,0.5-0.5,0.5-0.9c0-0.3-0.1-0.6-0.2-0.7c-0.2-0.2-0.4-0.3-0.7-0.4c-0.2-0.1-0.5-0.1-0.8-0.2s-0.6-0.1-0.9-0.2    c-0.6-0.1-1.1-0.4-1.4-0.7s-0.5-0.8-0.5-1.3c0-0.6,0.3-1.1,0.8-1.5s1.2-0.6,2-0.6c0.5,0,1,0,1.4,0.1s0.8,0.2,1.1,0.4v1.1h-0.1    c-0.3-0.2-0.6-0.4-1.1-0.6s-0.9-0.2-1.4-0.2c-0.5,0-0.9,0.1-1.2,0.3c-0.3,0.2-0.5,0.5-0.5,0.8c0,0.3,0.1,0.5,0.2,0.7    s0.4,0.3,0.8,0.4c0.2,0,0.5,0.1,0.9,0.2c0.4,0.1,0.7,0.1,1,0.2c0.5,0.1,0.9,0.4,1.2,0.6S275,215.1,275,215.6z"/> 		<path d="M281.1,215h-4c0,0.3,0,0.6,0.2,0.9c0.1,0.2,0.2,0.5,0.4,0.6c0.2,0.2,0.4,0.3,0.6,0.4c0.2,0.1,0.5,0.1,0.8,0.1    c0.4,0,0.7-0.1,1.1-0.2c0.4-0.1,0.6-0.3,0.8-0.4h0v1c-0.3,0.1-0.6,0.2-0.9,0.3s-0.7,0.1-1,0.1c-0.9,0-1.6-0.2-2.1-0.7    c-0.5-0.5-0.8-1.2-0.8-2.1c0-0.9,0.2-1.6,0.7-2.1s1.1-0.8,1.9-0.8c0.7,0,1.3,0.2,1.7,0.6c0.4,0.4,0.6,1,0.6,1.8V215z M280.2,214.3    c0-0.5-0.1-0.9-0.4-1.1c-0.2-0.3-0.6-0.4-1.1-0.4c-0.5,0-0.9,0.1-1.2,0.4c-0.3,0.3-0.5,0.6-0.5,1.1H280.2z"/> 		<path d="M286.9,217c0,0.9-0.2,1.6-0.6,2s-1.1,0.6-1.9,0.6c-0.3,0-0.6,0-0.8-0.1c-0.3,0-0.5-0.1-0.8-0.2v-0.9h0    c0.1,0.1,0.4,0.1,0.7,0.2c0.3,0.1,0.7,0.1,1,0.1c0.3,0,0.6,0,0.8-0.1s0.4-0.2,0.5-0.3c0.1-0.1,0.2-0.3,0.2-0.5s0.1-0.4,0.1-0.6    v-0.5c-0.3,0.2-0.5,0.4-0.8,0.5c-0.3,0.1-0.6,0.2-1,0.2c-0.7,0-1.2-0.2-1.6-0.7s-0.6-1.1-0.6-2c0-0.5,0.1-0.9,0.2-1.2    s0.3-0.6,0.5-0.9c0.2-0.2,0.5-0.4,0.8-0.5s0.6-0.2,0.9-0.2c0.3,0,0.6,0,0.8,0.1c0.2,0.1,0.4,0.2,0.7,0.3l0.1-0.2h0.9V217z     M286,216.2v-3c-0.2-0.1-0.5-0.2-0.7-0.2s-0.4-0.1-0.6-0.1c-0.5,0-0.9,0.2-1.2,0.5s-0.4,0.8-0.4,1.5c0,0.6,0.1,1.1,0.3,1.4    s0.6,0.5,1.1,0.5c0.3,0,0.5-0.1,0.8-0.2S285.7,216.3,286,216.2z"/> 		<path d="M293.2,217.7h-0.9v-0.6c-0.3,0.2-0.6,0.4-0.9,0.6s-0.6,0.2-0.9,0.2c-0.6,0-1-0.2-1.3-0.5c-0.3-0.4-0.5-0.9-0.5-1.5v-3.5    h0.9v3.1c0,0.3,0,0.5,0,0.7c0,0.2,0.1,0.4,0.2,0.5c0.1,0.1,0.2,0.2,0.3,0.3s0.3,0.1,0.6,0.1c0.2,0,0.5-0.1,0.8-0.2    c0.3-0.1,0.5-0.3,0.8-0.5v-4.1h0.9V217.7z"/> 		<path d="M298.4,213.2L298.4,213.2c-0.2,0-0.3-0.1-0.4-0.1s-0.3,0-0.5,0c-0.3,0-0.6,0.1-0.8,0.2s-0.5,0.3-0.8,0.5v3.9H295v-5.5h0.9    v0.8c0.4-0.3,0.7-0.5,1-0.6s0.6-0.2,0.9-0.2c0.2,0,0.3,0,0.3,0c0.1,0,0.2,0,0.3,0V213.2z"/> 		<path d="M303.4,217.7h-0.9v-0.6c-0.1,0.1-0.2,0.1-0.3,0.2s-0.3,0.2-0.4,0.2c-0.2,0.1-0.3,0.1-0.5,0.2c-0.2,0.1-0.4,0.1-0.7,0.1    c-0.5,0-0.9-0.2-1.3-0.5c-0.3-0.3-0.5-0.7-0.5-1.2c0-0.4,0.1-0.7,0.3-1s0.4-0.5,0.8-0.6c0.3-0.1,0.7-0.2,1.2-0.3s1-0.1,1.5-0.1    v-0.1c0-0.2,0-0.4-0.1-0.5s-0.2-0.2-0.3-0.3c-0.1-0.1-0.3-0.1-0.5-0.2c-0.2,0-0.4,0-0.6,0c-0.2,0-0.5,0-0.8,0.1    c-0.3,0.1-0.6,0.2-0.9,0.3h0v-0.9c0.2,0,0.4-0.1,0.8-0.2s0.7-0.1,1-0.1c0.4,0,0.7,0,1,0.1s0.5,0.2,0.7,0.3    c0.2,0.1,0.4,0.3,0.5,0.6s0.2,0.5,0.2,0.9V217.7z M302.5,216.3v-1.5c-0.3,0-0.6,0-1,0.1c-0.4,0-0.7,0.1-0.9,0.1    c-0.3,0.1-0.5,0.2-0.6,0.3c-0.2,0.2-0.2,0.4-0.2,0.7c0,0.3,0.1,0.5,0.3,0.7c0.2,0.2,0.5,0.2,0.9,0.2c0.3,0,0.6-0.1,0.9-0.2    C302,216.6,302.2,216.5,302.5,216.3z"/> 	</g> 	<g> 		<rect x="166.3" y="253.6" style="fill-rule:evenodd;clip-rule:evenodd;fill:none;" width="73.1" height="35.1"/> 		<path d="M192.7,261.2h-4.6v-7.3h1v6.4h3.6V261.2z"/> 		<path d="M198.3,258.4c0,0.9-0.2,1.6-0.7,2.1s-1.1,0.8-1.8,0.8c-0.8,0-1.4-0.3-1.8-0.8s-0.7-1.2-0.7-2.1s0.2-1.6,0.7-2.1    c0.5-0.5,1.1-0.8,1.8-0.8c0.8,0,1.4,0.3,1.8,0.8C198.1,256.8,198.3,257.6,198.3,258.4z M197.3,258.4c0-0.7-0.1-1.2-0.4-1.6    c-0.3-0.3-0.7-0.5-1.2-0.5c-0.5,0-0.9,0.2-1.2,0.5c-0.3,0.3-0.4,0.9-0.4,1.6c0,0.7,0.1,1.2,0.4,1.6c0.3,0.4,0.7,0.5,1.2,0.5    c0.5,0,0.9-0.2,1.2-0.5C197.2,259.6,197.3,259.1,197.3,258.4z"/> 		<path d="M203.1,256.7L203.1,256.7c-0.2,0-0.3-0.1-0.4-0.1c-0.1,0-0.3,0-0.5,0c-0.3,0-0.6,0.1-0.8,0.2c-0.3,0.1-0.5,0.3-0.8,0.5    v3.9h-0.9v-5.5h0.9v0.8c0.4-0.3,0.7-0.5,1-0.6c0.3-0.1,0.6-0.2,0.9-0.2c0.2,0,0.3,0,0.3,0c0.1,0,0.2,0,0.3,0V256.7z"/> 		<path d="M208.4,263.2h-0.9v-2.6c-0.3,0.2-0.6,0.4-0.8,0.5c-0.3,0.1-0.6,0.2-0.9,0.2c-0.6,0-1.2-0.3-1.6-0.8    c-0.4-0.5-0.6-1.2-0.6-2.1c0-0.5,0.1-0.9,0.2-1.2c0.1-0.4,0.3-0.7,0.5-0.9c0.2-0.2,0.5-0.4,0.8-0.6s0.6-0.2,0.9-0.2    c0.3,0,0.6,0,0.8,0.1s0.5,0.2,0.7,0.3l0.1-0.2h0.9V263.2z M207.5,259.8v-3.1c-0.3-0.1-0.5-0.2-0.7-0.2s-0.4-0.1-0.6-0.1    c-0.5,0-0.9,0.2-1.2,0.5c-0.3,0.4-0.4,0.9-0.4,1.5c0,0.6,0.1,1.1,0.3,1.5c0.2,0.3,0.6,0.5,1.1,0.5c0.3,0,0.5-0.1,0.8-0.2    C207,260.1,207.3,260,207.5,259.8z"/> 		<path d="M214.7,261.2h-0.9v-0.6c-0.3,0.2-0.6,0.4-0.9,0.6s-0.6,0.2-0.9,0.2c-0.6,0-1-0.2-1.3-0.5c-0.3-0.4-0.5-0.9-0.5-1.5v-3.5    h0.9v3.1c0,0.3,0,0.5,0,0.7c0,0.2,0.1,0.4,0.2,0.5c0.1,0.1,0.2,0.2,0.3,0.3s0.3,0.1,0.6,0.1c0.2,0,0.5-0.1,0.8-0.2    c0.3-0.1,0.5-0.3,0.8-0.5v-4.1h0.9V261.2z"/> 		<path d="M218.5,253l-1.3,1.8h-0.7l0.9-1.8H218.5z M217.5,261.2h-0.9v-5.5h0.9V261.2z"/> 	</g> 	<g> 		<rect x="139.2" y="283.8" style="fill-rule:evenodd;clip-rule:evenodd;fill:none;" width="63.9" height="35.1"/> 		<path d="M164.7,290.9c-0.2,0.1-0.3,0.2-0.5,0.2c-0.1,0.1-0.3,0.1-0.6,0.2c-0.2,0.1-0.4,0.1-0.6,0.2c-0.2,0-0.5,0.1-0.8,0.1    c-0.5,0-1-0.1-1.4-0.2c-0.4-0.1-0.8-0.4-1.1-0.7c-0.3-0.3-0.6-0.7-0.7-1.2c-0.2-0.5-0.3-1-0.3-1.7c0-0.6,0.1-1.1,0.3-1.6    c0.2-0.5,0.4-0.9,0.7-1.2c0.3-0.3,0.7-0.6,1.1-0.7c0.4-0.2,0.9-0.2,1.5-0.2c0.4,0,0.8,0,1.2,0.1c0.4,0.1,0.8,0.3,1.3,0.5v1.1h-0.1    c-0.4-0.3-0.8-0.6-1.2-0.7c-0.4-0.2-0.8-0.2-1.3-0.2c-0.4,0-0.7,0.1-1,0.2c-0.3,0.1-0.6,0.3-0.8,0.6c-0.2,0.2-0.4,0.6-0.5,0.9    c-0.1,0.4-0.2,0.8-0.2,1.3c0,0.5,0.1,1,0.2,1.3c0.1,0.4,0.3,0.7,0.5,0.9c0.2,0.2,0.5,0.4,0.8,0.5c0.3,0.1,0.6,0.2,1,0.2    c0.5,0,0.9-0.1,1.3-0.2c0.4-0.2,0.8-0.4,1.1-0.7h0.1V290.9z"/> 		<path d="M170.6,288.7h-4c0,0.3,0,0.6,0.2,0.9c0.1,0.3,0.2,0.5,0.4,0.6c0.2,0.2,0.4,0.3,0.6,0.4c0.2,0.1,0.5,0.1,0.8,0.1    c0.4,0,0.7-0.1,1.1-0.2c0.4-0.1,0.6-0.3,0.8-0.4h0v1c-0.3,0.1-0.6,0.2-0.9,0.3s-0.7,0.1-1,0.1c-0.9,0-1.6-0.2-2.1-0.7    c-0.5-0.5-0.8-1.2-0.8-2.1c0-0.9,0.2-1.6,0.7-2.1s1.1-0.8,1.9-0.8c0.7,0,1.3,0.2,1.7,0.6c0.4,0.4,0.6,1,0.6,1.8V288.7z M169.7,288    c0-0.5-0.1-0.9-0.4-1.1c-0.2-0.3-0.6-0.4-1.1-0.4c-0.5,0-0.9,0.1-1.2,0.4c-0.3,0.3-0.5,0.6-0.5,1.1H169.7z"/> 		<path d="M176.5,291.4h-0.9v-0.6c-0.3,0.2-0.6,0.4-0.9,0.6s-0.6,0.2-0.9,0.2c-0.6,0-1-0.2-1.3-0.5c-0.3-0.4-0.5-0.9-0.5-1.5v-3.5    h0.9v3.1c0,0.3,0,0.5,0,0.7c0,0.2,0.1,0.4,0.2,0.5c0.1,0.1,0.2,0.2,0.3,0.3s0.3,0.1,0.6,0.1c0.2,0,0.5-0.1,0.8-0.2    c0.3-0.1,0.5-0.3,0.8-0.5v-4.1h0.9V291.4z"/> 		<path d="M181.1,291.3c-0.2,0-0.4,0.1-0.6,0.1c-0.2,0-0.4,0-0.5,0c-0.6,0-1-0.1-1.3-0.4c-0.3-0.3-0.4-0.8-0.4-1.4v-2.9h-0.6v-0.8    h0.6v-1.6h0.9v1.6h1.9v0.8h-1.9v2.5c0,0.3,0,0.5,0,0.7c0,0.2,0.1,0.3,0.1,0.5c0.1,0.1,0.2,0.2,0.3,0.3c0.1,0.1,0.3,0.1,0.6,0.1    c0.2,0,0.3,0,0.5-0.1c0.2,0,0.3-0.1,0.4-0.1h0V291.3z"/> 		<path d="M184.2,283.2l-1.3,1.8h-0.7l0.9-1.8H184.2z M183.2,291.4h-0.9v-5.5h0.9V291.4z"/> 	</g> 	<g> 		<rect x="133.2" y="317.3" style="fill-rule:evenodd;clip-rule:evenodd;fill:none;" width="96.6" height="35.1"/> 		<path d="M165.8,324.9h-1l-0.7-2h-3.1l-0.7,2h-1l2.6-7.3h1.3L165.8,324.9z M163.8,322l-1.3-3.6l-1.3,3.6H163.8z"/> 		<path d="M167.8,324.9h-0.9v-7.6h0.9V324.9z"/> 		<path d="M174,324.3c0,0.9-0.2,1.6-0.6,2s-1.1,0.6-1.9,0.6c-0.3,0-0.6,0-0.8-0.1c-0.3,0-0.5-0.1-0.8-0.2v-0.9h0    c0.1,0.1,0.4,0.1,0.7,0.2c0.3,0.1,0.7,0.1,1,0.1c0.3,0,0.6,0,0.8-0.1s0.4-0.2,0.5-0.3c0.1-0.1,0.2-0.3,0.2-0.5s0.1-0.4,0.1-0.6    v-0.5c-0.3,0.2-0.5,0.4-0.8,0.5c-0.3,0.1-0.6,0.2-1,0.2c-0.7,0-1.2-0.2-1.6-0.7c-0.4-0.5-0.6-1.1-0.6-2c0-0.5,0.1-0.9,0.2-1.2    c0.1-0.3,0.3-0.6,0.5-0.9c0.2-0.2,0.5-0.4,0.8-0.5c0.3-0.1,0.6-0.2,0.9-0.2c0.3,0,0.6,0,0.8,0.1c0.2,0.1,0.4,0.2,0.7,0.3l0.1-0.2    h0.9V324.3z M173.1,323.4v-3c-0.2-0.1-0.5-0.2-0.7-0.2c-0.2,0-0.4-0.1-0.6-0.1c-0.5,0-0.9,0.2-1.2,0.5s-0.4,0.8-0.4,1.5    c0,0.6,0.1,1.1,0.3,1.4s0.6,0.5,1.1,0.5c0.3,0,0.5-0.1,0.8-0.2C172.6,323.7,172.9,323.6,173.1,323.4z"/> 		<path d="M180.4,324.9h-0.9v-0.6c-0.3,0.2-0.6,0.4-0.9,0.6s-0.6,0.2-0.9,0.2c-0.6,0-1-0.2-1.3-0.5c-0.3-0.3-0.5-0.9-0.5-1.5v-3.5    h0.9v3.1c0,0.3,0,0.5,0,0.7c0,0.2,0.1,0.4,0.2,0.5c0.1,0.1,0.2,0.2,0.3,0.3s0.3,0.1,0.6,0.1c0.2,0,0.5-0.1,0.8-0.2    c0.3-0.1,0.5-0.3,0.8-0.5v-4.1h0.9V324.9z"/> 		<path d="M186.4,324.9h-0.9v-0.6c-0.1,0.1-0.2,0.1-0.3,0.2c-0.1,0.1-0.3,0.2-0.4,0.2c-0.2,0.1-0.3,0.1-0.5,0.2    c-0.2,0.1-0.4,0.1-0.7,0.1c-0.5,0-0.9-0.2-1.3-0.5c-0.3-0.3-0.5-0.7-0.5-1.2c0-0.4,0.1-0.7,0.3-1c0.2-0.3,0.4-0.5,0.8-0.6    c0.3-0.1,0.7-0.2,1.2-0.3s1-0.1,1.5-0.1v-0.1c0-0.2,0-0.4-0.1-0.5s-0.2-0.2-0.3-0.3c-0.1-0.1-0.3-0.1-0.5-0.2c-0.2,0-0.4,0-0.6,0    c-0.2,0-0.5,0-0.8,0.1c-0.3,0.1-0.6,0.2-0.9,0.3h0v-0.9c0.2,0,0.4-0.1,0.8-0.2s0.7-0.1,1-0.1c0.4,0,0.7,0,1,0.1    c0.3,0.1,0.5,0.2,0.7,0.3c0.2,0.1,0.4,0.3,0.5,0.6s0.2,0.5,0.2,0.9V324.9z M185.5,323.5V322c-0.3,0-0.6,0-1,0.1    c-0.4,0-0.7,0.1-0.9,0.1c-0.3,0.1-0.5,0.2-0.6,0.3c-0.2,0.2-0.2,0.4-0.2,0.7c0,0.3,0.1,0.5,0.3,0.7c0.2,0.2,0.5,0.2,0.9,0.2    c0.3,0,0.6-0.1,0.9-0.2C185,323.9,185.3,323.7,185.5,323.5z"/> 		<path d="M192.1,324.9h-4.4v-0.7l3.2-4h-3.1v-0.8h4.3v0.7l-3.2,4h3.3V324.9z"/> 		<path d="M197.7,324.9h-0.9v-0.6c-0.1,0.1-0.2,0.1-0.3,0.2c-0.1,0.1-0.3,0.2-0.4,0.2c-0.2,0.1-0.3,0.1-0.5,0.2    c-0.2,0.1-0.4,0.1-0.7,0.1c-0.5,0-0.9-0.2-1.3-0.5c-0.3-0.3-0.5-0.7-0.5-1.2c0-0.4,0.1-0.7,0.3-1c0.2-0.3,0.4-0.5,0.8-0.6    c0.3-0.1,0.7-0.2,1.2-0.3s1-0.1,1.5-0.1v-0.1c0-0.2,0-0.4-0.1-0.5s-0.2-0.2-0.3-0.3c-0.1-0.1-0.3-0.1-0.5-0.2c-0.2,0-0.4,0-0.6,0    c-0.2,0-0.5,0-0.8,0.1c-0.3,0.1-0.6,0.2-0.9,0.3h0v-0.9c0.2,0,0.4-0.1,0.8-0.2s0.7-0.1,1-0.1c0.4,0,0.7,0,1,0.1    c0.3,0.1,0.5,0.2,0.7,0.3c0.2,0.1,0.4,0.3,0.5,0.6s0.2,0.5,0.2,0.9V324.9z M196.8,323.5V322c-0.3,0-0.6,0-1,0.1    c-0.4,0-0.7,0.1-0.9,0.1c-0.3,0.1-0.5,0.2-0.6,0.3c-0.2,0.2-0.2,0.4-0.2,0.7c0,0.3,0.1,0.5,0.3,0.7c0.2,0.2,0.5,0.2,0.9,0.2    c0.3,0,0.6-0.1,0.9-0.2C196.3,323.9,196.5,323.7,196.8,323.5z"/> 		<path d="M203.3,323.3c0,0.5-0.2,0.9-0.6,1.2s-1,0.5-1.7,0.5c-0.4,0-0.8,0-1.1-0.1c-0.3-0.1-0.6-0.2-0.8-0.3v-1h0    c0.3,0.2,0.6,0.4,1,0.5c0.4,0.1,0.7,0.2,1,0.2c0.4,0,0.7-0.1,0.9-0.2c0.2-0.1,0.3-0.3,0.3-0.6c0-0.2-0.1-0.4-0.2-0.5    c-0.1-0.1-0.4-0.2-0.7-0.3c-0.1,0-0.3-0.1-0.5-0.1s-0.4-0.1-0.6-0.1c-0.5-0.1-0.8-0.3-1-0.6c-0.2-0.2-0.3-0.5-0.3-0.9    c0-0.2,0-0.4,0.1-0.6s0.2-0.4,0.4-0.5c0.2-0.2,0.4-0.3,0.7-0.4c0.3-0.1,0.6-0.1,0.9-0.1c0.3,0,0.7,0,1,0.1    c0.3,0.1,0.6,0.2,0.8,0.3v1h0c-0.2-0.2-0.5-0.3-0.9-0.4c-0.3-0.1-0.7-0.2-1-0.2c-0.3,0-0.6,0.1-0.8,0.2c-0.2,0.1-0.3,0.3-0.3,0.6    c0,0.2,0.1,0.4,0.2,0.5c0.1,0.1,0.4,0.2,0.7,0.3c0.2,0,0.4,0.1,0.6,0.1s0.4,0.1,0.5,0.1c0.4,0.1,0.8,0.3,1,0.5    C203.2,322.6,203.3,322.9,203.3,323.3z"/> 	</g> 	<g> 		<rect x="78.7" y="373.6" style="fill-rule:evenodd;clip-rule:evenodd;fill:none;" width="217.2" height="35.1"/> 		<path d="M137.1,381.2h-0.9v-7.6h0.9V381.2z"/> 		<path d="M143.2,381.2h-0.9v-0.6c-0.1,0.1-0.2,0.1-0.3,0.2c-0.1,0.1-0.3,0.2-0.4,0.2c-0.2,0.1-0.3,0.1-0.5,0.2    c-0.2,0-0.4,0.1-0.7,0.1c-0.5,0-0.9-0.2-1.3-0.5c-0.3-0.3-0.5-0.7-0.5-1.2c0-0.4,0.1-0.7,0.3-1c0.2-0.3,0.4-0.5,0.8-0.6    c0.3-0.1,0.7-0.2,1.2-0.3s1-0.1,1.5-0.1v-0.1c0-0.2,0-0.4-0.1-0.5s-0.2-0.2-0.3-0.3c-0.1-0.1-0.3-0.1-0.5-0.2c-0.2,0-0.4,0-0.6,0    c-0.2,0-0.5,0-0.8,0.1c-0.3,0.1-0.6,0.2-0.9,0.3h0v-0.9c0.2,0,0.4-0.1,0.8-0.2s0.7-0.1,1-0.1c0.4,0,0.7,0,1,0.1    c0.3,0.1,0.5,0.2,0.7,0.3c0.2,0.1,0.4,0.3,0.5,0.6s0.2,0.5,0.2,0.9V381.2z M142.3,379.8v-1.5c-0.3,0-0.6,0-1,0.1    c-0.4,0-0.7,0.1-0.9,0.1c-0.3,0.1-0.5,0.2-0.6,0.3c-0.2,0.2-0.2,0.4-0.2,0.7c0,0.3,0.1,0.5,0.3,0.7c0.2,0.2,0.5,0.2,0.9,0.2    c0.3,0,0.6-0.1,0.9-0.2C141.8,380.2,142,380,142.3,379.8z"/> 		<path d="M148.9,379.6c0,0.5-0.2,0.9-0.6,1.2s-1,0.5-1.7,0.5c-0.4,0-0.8,0-1.1-0.1c-0.3-0.1-0.6-0.2-0.8-0.3v-1h0    c0.3,0.2,0.6,0.4,1,0.5c0.4,0.1,0.7,0.2,1,0.2c0.4,0,0.7-0.1,0.9-0.2c0.2-0.1,0.3-0.3,0.3-0.6c0-0.2-0.1-0.4-0.2-0.5    c-0.1-0.1-0.4-0.2-0.7-0.3c-0.1,0-0.3-0.1-0.5-0.1s-0.4-0.1-0.6-0.1c-0.5-0.1-0.8-0.3-1-0.6c-0.2-0.2-0.3-0.5-0.3-0.9    c0-0.2,0-0.4,0.1-0.6s0.2-0.4,0.4-0.5c0.2-0.2,0.4-0.3,0.7-0.4c0.3-0.1,0.6-0.1,0.9-0.1c0.3,0,0.7,0,1,0.1    c0.3,0.1,0.6,0.2,0.8,0.3v1h0c-0.2-0.2-0.5-0.3-0.9-0.4c-0.3-0.1-0.7-0.2-1-0.2c-0.3,0-0.6,0.1-0.8,0.2c-0.2,0.1-0.3,0.3-0.3,0.6    c0,0.2,0.1,0.4,0.2,0.5c0.1,0.1,0.4,0.2,0.7,0.3c0.2,0,0.4,0.1,0.6,0.1s0.4,0.1,0.5,0.1c0.4,0.1,0.8,0.3,1,0.5    C148.7,378.9,148.9,379.2,148.9,379.6z"/> 		<path d="M158.9,374.8h-2.6v6.4h-1v-6.4h-2.6v-0.9h6.2V374.8z"/> 		<path d="M163.4,378.5c0,0.9-0.2,1.6-0.7,2.1s-1.1,0.8-1.8,0.8c-0.8,0-1.4-0.3-1.8-0.8s-0.7-1.2-0.7-2.1s0.2-1.6,0.7-2.1    c0.5-0.5,1.1-0.8,1.8-0.8c0.8,0,1.4,0.3,1.8,0.8C163.2,376.9,163.4,377.6,163.4,378.5z M162.5,378.5c0-0.7-0.1-1.2-0.4-1.6    c-0.3-0.3-0.7-0.5-1.2-0.5c-0.5,0-0.9,0.2-1.2,0.5c-0.3,0.3-0.4,0.9-0.4,1.6c0,0.7,0.1,1.2,0.4,1.6c0.3,0.4,0.7,0.5,1.2,0.5    c0.5,0,0.9-0.2,1.2-0.5C162.3,379.7,162.5,379.1,162.5,378.5z"/> 		<path d="M168.3,376.7L168.3,376.7c-0.2,0-0.3-0.1-0.4-0.1c-0.1,0-0.3,0-0.5,0c-0.3,0-0.6,0.1-0.8,0.2c-0.3,0.1-0.5,0.3-0.8,0.5    v3.9h-0.9v-5.5h0.9v0.8c0.4-0.3,0.7-0.5,1-0.6c0.3-0.1,0.6-0.2,0.9-0.2c0.2,0,0.3,0,0.3,0c0.1,0,0.2,0,0.3,0V376.7z"/> 		<path d="M172.5,376.7L172.5,376.7c-0.2,0-0.3-0.1-0.4-0.1c-0.1,0-0.3,0-0.5,0c-0.3,0-0.6,0.1-0.8,0.2c-0.3,0.1-0.5,0.3-0.8,0.5    v3.9h-0.9v-5.5h0.9v0.8c0.4-0.3,0.7-0.5,1-0.6c0.3-0.1,0.6-0.2,0.9-0.2c0.2,0,0.3,0,0.3,0c0.1,0,0.2,0,0.3,0V376.7z"/> 		<path d="M178,378.5h-4c0,0.3,0,0.6,0.2,0.9c0.1,0.3,0.2,0.5,0.4,0.6c0.2,0.2,0.4,0.3,0.6,0.4c0.2,0.1,0.5,0.1,0.8,0.1    c0.4,0,0.7-0.1,1.1-0.2c0.4-0.1,0.6-0.3,0.8-0.4h0v1c-0.3,0.1-0.6,0.2-0.9,0.3s-0.7,0.1-1,0.1c-0.9,0-1.6-0.2-2.1-0.7    c-0.5-0.5-0.8-1.2-0.8-2.1c0-0.9,0.2-1.6,0.7-2.1s1.1-0.8,1.9-0.8c0.7,0,1.3,0.2,1.7,0.6c0.4,0.4,0.6,1,0.6,1.8V378.5z     M177.1,377.8c0-0.5-0.1-0.9-0.4-1.1c-0.2-0.3-0.6-0.4-1.1-0.4c-0.5,0-0.9,0.1-1.2,0.4c-0.3,0.3-0.5,0.6-0.5,1.1H177.1z"/> 		<path d="M183.2,379.6c0,0.5-0.2,0.9-0.6,1.2s-1,0.5-1.7,0.5c-0.4,0-0.8,0-1.1-0.1c-0.3-0.1-0.6-0.2-0.8-0.3v-1h0    c0.3,0.2,0.6,0.4,1,0.5c0.4,0.1,0.7,0.2,1,0.2c0.4,0,0.7-0.1,0.9-0.2c0.2-0.1,0.3-0.3,0.3-0.6c0-0.2-0.1-0.4-0.2-0.5    c-0.1-0.1-0.4-0.2-0.7-0.3c-0.1,0-0.3-0.1-0.5-0.1s-0.4-0.1-0.6-0.1c-0.5-0.1-0.8-0.3-1-0.6c-0.2-0.2-0.3-0.5-0.3-0.9    c0-0.2,0-0.4,0.1-0.6s0.2-0.4,0.4-0.5c0.2-0.2,0.4-0.3,0.7-0.4c0.3-0.1,0.6-0.1,0.9-0.1c0.3,0,0.7,0,1,0.1    c0.3,0.1,0.6,0.2,0.8,0.3v1h0c-0.2-0.2-0.5-0.3-0.9-0.4c-0.3-0.1-0.7-0.2-1-0.2c-0.3,0-0.6,0.1-0.8,0.2c-0.2,0.1-0.3,0.3-0.3,0.6    c0,0.2,0.1,0.4,0.2,0.5c0.1,0.1,0.4,0.2,0.7,0.3c0.2,0,0.4,0.1,0.6,0.1s0.4,0.1,0.5,0.1c0.4,0.1,0.8,0.3,1,0.5    C183.1,378.9,183.2,379.2,183.2,379.6z"/> 		<path d="M192.5,381.2h-0.9v-0.6c-0.3,0.2-0.5,0.4-0.8,0.5c-0.3,0.1-0.6,0.2-0.9,0.2c-0.7,0-1.2-0.3-1.6-0.8s-0.6-1.2-0.6-2.1    c0-0.5,0.1-0.9,0.2-1.2s0.3-0.7,0.5-0.9c0.2-0.2,0.5-0.4,0.8-0.6c0.3-0.1,0.6-0.2,0.9-0.2c0.3,0,0.5,0,0.8,0.1    c0.2,0.1,0.5,0.2,0.7,0.3v-2.4h0.9V381.2z M191.6,379.8v-3.1c-0.2-0.1-0.5-0.2-0.7-0.2s-0.4-0.1-0.6-0.1c-0.5,0-0.9,0.2-1.2,0.5    c-0.3,0.4-0.4,0.9-0.4,1.5c0,0.6,0.1,1.1,0.3,1.5c0.2,0.3,0.6,0.5,1.1,0.5c0.3,0,0.5-0.1,0.8-0.2    C191.1,380.2,191.3,380,191.6,379.8z"/> 		<path d="M198.9,378.5h-4c0,0.3,0,0.6,0.2,0.9c0.1,0.3,0.2,0.5,0.4,0.6c0.2,0.2,0.4,0.3,0.6,0.4c0.2,0.1,0.5,0.1,0.8,0.1    c0.4,0,0.7-0.1,1.1-0.2c0.4-0.1,0.6-0.3,0.8-0.4h0v1c-0.3,0.1-0.6,0.2-0.9,0.3s-0.7,0.1-1,0.1c-0.9,0-1.6-0.2-2.1-0.7    c-0.5-0.5-0.8-1.2-0.8-2.1c0-0.9,0.2-1.6,0.7-2.1s1.1-0.8,1.9-0.8c0.7,0,1.3,0.2,1.7,0.6c0.4,0.4,0.6,1,0.6,1.8V378.5z M198,377.8    c0-0.5-0.1-0.9-0.4-1.1c-0.2-0.3-0.6-0.4-1.1-0.4c-0.5,0-0.9,0.1-1.2,0.4c-0.3,0.3-0.5,0.6-0.5,1.1H198z"/> 		<path d="M209.5,380.6c-0.2,0.1-0.3,0.2-0.5,0.2c-0.1,0.1-0.3,0.1-0.6,0.2c-0.2,0.1-0.4,0.1-0.6,0.2c-0.2,0-0.5,0.1-0.8,0.1    c-0.5,0-1-0.1-1.4-0.2c-0.4-0.1-0.8-0.4-1.1-0.7c-0.3-0.3-0.6-0.7-0.7-1.2c-0.2-0.5-0.3-1-0.3-1.7c0-0.6,0.1-1.1,0.3-1.6    c0.2-0.5,0.4-0.9,0.7-1.2c0.3-0.3,0.7-0.6,1.1-0.7c0.4-0.2,0.9-0.2,1.5-0.2c0.4,0,0.8,0,1.2,0.1c0.4,0.1,0.8,0.3,1.3,0.5v1.1h-0.1    c-0.4-0.3-0.8-0.6-1.2-0.7c-0.4-0.2-0.8-0.2-1.3-0.2c-0.4,0-0.7,0.1-1,0.2c-0.3,0.1-0.6,0.3-0.8,0.6c-0.2,0.2-0.4,0.6-0.5,0.9    c-0.1,0.4-0.2,0.8-0.2,1.3c0,0.5,0.1,1,0.2,1.3c0.1,0.4,0.3,0.7,0.5,0.9c0.2,0.2,0.5,0.4,0.8,0.5c0.3,0.1,0.6,0.2,1,0.2    c0.5,0,0.9-0.1,1.3-0.2c0.4-0.2,0.8-0.4,1.1-0.7h0.1V380.6z"/> 		<path d="M215.4,378.5c0,0.9-0.2,1.6-0.7,2.1s-1.1,0.8-1.8,0.8c-0.8,0-1.4-0.3-1.8-0.8s-0.7-1.2-0.7-2.1s0.2-1.6,0.7-2.1    c0.5-0.5,1.1-0.8,1.8-0.8c0.8,0,1.4,0.3,1.8,0.8C215.2,376.9,215.4,377.6,215.4,378.5z M214.5,378.5c0-0.7-0.1-1.2-0.4-1.6    c-0.3-0.3-0.7-0.5-1.2-0.5c-0.5,0-0.9,0.2-1.2,0.5c-0.3,0.3-0.4,0.9-0.4,1.6c0,0.7,0.1,1.2,0.4,1.6c0.3,0.4,0.7,0.5,1.2,0.5    c0.5,0,0.9-0.2,1.2-0.5C214.3,379.7,214.5,379.1,214.5,378.5z"/> 		<path d="M219.7,381.1c-0.2,0-0.4,0.1-0.6,0.1c-0.2,0-0.4,0-0.5,0c-0.6,0-1-0.1-1.3-0.4c-0.3-0.3-0.4-0.8-0.4-1.4v-2.9h-0.6v-0.8    h0.6v-1.6h0.9v1.6h1.9v0.8h-1.9v2.5c0,0.3,0,0.5,0,0.7c0,0.2,0.1,0.3,0.1,0.5c0.1,0.1,0.2,0.2,0.3,0.3c0.1,0.1,0.3,0.1,0.6,0.1    c0.2,0,0.3,0,0.5-0.1c0.2,0,0.3-0.1,0.4-0.1h0V381.1z"/> 		<path d="M221.8,374.8h-1v-1h1V374.8z M221.7,381.2h-0.9v-5.5h0.9V381.2z"/> 		<path d="M224.5,381.2h-0.9v-7.6h0.9V381.2z"/> 		<path d="M227.2,381.2h-0.9v-7.6h0.9V381.2z"/> 		<path d="M233.3,381.2h-0.9v-0.6c-0.1,0.1-0.2,0.1-0.3,0.2c-0.1,0.1-0.3,0.2-0.4,0.2c-0.2,0.1-0.3,0.1-0.5,0.2    c-0.2,0-0.4,0.1-0.7,0.1c-0.5,0-0.9-0.2-1.3-0.5c-0.3-0.3-0.5-0.7-0.5-1.2c0-0.4,0.1-0.7,0.3-1c0.2-0.3,0.4-0.5,0.8-0.6    c0.3-0.1,0.7-0.2,1.2-0.3s1-0.1,1.5-0.1v-0.1c0-0.2,0-0.4-0.1-0.5s-0.2-0.2-0.3-0.3c-0.1-0.1-0.3-0.1-0.5-0.2c-0.2,0-0.4,0-0.6,0    c-0.2,0-0.5,0-0.8,0.1c-0.3,0.1-0.6,0.2-0.9,0.3h0v-0.9c0.2,0,0.4-0.1,0.8-0.2s0.7-0.1,1-0.1c0.4,0,0.7,0,1,0.1    c0.3,0.1,0.5,0.2,0.7,0.3c0.2,0.1,0.4,0.3,0.5,0.6s0.2,0.5,0.2,0.9V381.2z M232.3,379.8v-1.5c-0.3,0-0.6,0-1,0.1    c-0.4,0-0.7,0.1-0.9,0.1c-0.3,0.1-0.5,0.2-0.6,0.3c-0.2,0.2-0.2,0.4-0.2,0.7c0,0.3,0.1,0.5,0.3,0.7c0.2,0.2,0.5,0.2,0.9,0.2    c0.3,0,0.6-0.1,0.9-0.2C231.9,380.2,232.1,380,232.3,379.8z"/> 		<path d="M238.9,379.6c0,0.5-0.2,0.9-0.6,1.2s-1,0.5-1.7,0.5c-0.4,0-0.8,0-1.1-0.1c-0.3-0.1-0.6-0.2-0.8-0.3v-1h0    c0.3,0.2,0.6,0.4,1,0.5c0.4,0.1,0.7,0.2,1,0.2c0.4,0,0.7-0.1,0.9-0.2c0.2-0.1,0.3-0.3,0.3-0.6c0-0.2-0.1-0.4-0.2-0.5    c-0.1-0.1-0.4-0.2-0.7-0.3c-0.1,0-0.3-0.1-0.5-0.1s-0.4-0.1-0.6-0.1c-0.5-0.1-0.8-0.3-1-0.6c-0.2-0.2-0.3-0.5-0.3-0.9    c0-0.2,0-0.4,0.1-0.6s0.2-0.4,0.4-0.5c0.2-0.2,0.4-0.3,0.7-0.4c0.3-0.1,0.6-0.1,0.9-0.1c0.3,0,0.7,0,1,0.1    c0.3,0.1,0.6,0.2,0.8,0.3v1h0c-0.2-0.2-0.5-0.3-0.9-0.4c-0.3-0.1-0.7-0.2-1-0.2c-0.3,0-0.6,0.1-0.8,0.2c-0.2,0.1-0.3,0.3-0.3,0.6    c0,0.2,0.1,0.4,0.2,0.5c0.1,0.1,0.4,0.2,0.7,0.3c0.2,0,0.4,0.1,0.6,0.1s0.4,0.1,0.5,0.1c0.4,0.1,0.8,0.3,1,0.5    C238.8,378.9,238.9,379.2,238.9,379.6z"/> 	</g> </g> <g id="text_x5F_EXTERIOR"> 	<g> 		<rect x="459" y="228.8" style="fill-rule:evenodd;clip-rule:evenodd;fill:none;" width="100" height="11"/> 		<path style="fill:#1A171B;" d="M466.6,238.8h-1.9l-0.5-1.5h-2.7l-0.5,1.5h-1.9l2.7-7.3h2.2L466.6,238.8z M463.8,236l-0.9-2.6    L462,236H463.8z"/> 		<path style="fill:#1A171B;" d="M472.9,238.8h-5.2v-7.3h1.9v5.9h3.4V238.8z"/> 		<path style="fill:#1A171B;" d="M478,238.8h-4.3v-1.3h1.2v-4.7h-1.2v-1.3h4.3v1.3h-1.2v4.7h1.2V238.8z"/> 		<path style="fill:#1A171B;" d="M482.8,239c-0.5,0-1-0.1-1.5-0.2c-0.5-0.2-0.9-0.4-1.2-0.7s-0.6-0.7-0.8-1.2s-0.3-1-0.3-1.6    c0-0.6,0.1-1.1,0.3-1.6s0.4-0.9,0.8-1.2c0.3-0.3,0.7-0.6,1.2-0.7c0.5-0.2,1-0.3,1.5-0.3c0.3,0,0.6,0,0.8,0.1    c0.2,0,0.5,0.1,0.7,0.1c0.2,0.1,0.4,0.1,0.6,0.2c0.2,0.1,0.3,0.1,0.5,0.2v1.8h-0.2c-0.1-0.1-0.2-0.2-0.3-0.3    c-0.1-0.1-0.3-0.2-0.5-0.3c-0.2-0.1-0.4-0.2-0.6-0.3s-0.4-0.1-0.7-0.1c-0.3,0-0.5,0-0.8,0.1s-0.5,0.2-0.7,0.4    c-0.2,0.2-0.3,0.4-0.5,0.7c-0.1,0.3-0.2,0.7-0.2,1.1c0,0.5,0.1,0.8,0.2,1.1c0.1,0.3,0.3,0.5,0.5,0.7c0.2,0.2,0.4,0.3,0.7,0.4    s0.5,0.1,0.7,0.1c0.2,0,0.5,0,0.7-0.1c0.2-0.1,0.4-0.2,0.6-0.3c0.2-0.1,0.3-0.2,0.4-0.3c0.1-0.1,0.2-0.2,0.3-0.3h0.2v1.7    c-0.2,0.1-0.4,0.2-0.5,0.2s-0.3,0.1-0.5,0.2c-0.2,0.1-0.5,0.1-0.7,0.2S483.2,239,482.8,239z"/> 		<path style="fill:#1A171B;" d="M493.5,238.8h-1.9l-0.5-1.5h-2.7l-0.5,1.5h-1.9l2.7-7.3h2.2L493.5,238.8z M490.6,236l-0.9-2.6    l-0.9,2.6H490.6z"/> 		<path style="fill:#1A171B;" d="M501.1,238.8h-1.8l-3.1-5v5h-1.7v-7.3h2.2l2.7,4.2v-4.2h1.7V238.8z"/> 		<path style="fill:#1A171B;" d="M508.7,233h-2.3v5.9h-1.9V233h-2.3v-1.4h6.4V233z"/> 		<path style="fill:#1A171B;" d="M515.1,238.8h-5.3v-7.3h5.3v1.4h-3.4v1.3h3.1v1.4h-3.1v1.8h3.4V238.8z"/> 	</g> </g> <g id="TEXT_x5F_COMARQUES"> 	<g> 		<rect x="306.3" y="387" style="fill-rule:evenodd;clip-rule:evenodd;fill:none;" width="125.9" height="25.8"/> 		<path style="fill:#1A171B;" d="M328.5,397h-1.9v-3.2h-2.8v3.2H322v-7.3h1.9v2.7h2.8v-2.7h1.9V397z"/> 		<path style="fill:#1A171B;" d="M335.7,397h-1.8v-0.6c-0.3,0.2-0.6,0.4-0.9,0.6c-0.3,0.1-0.6,0.2-1,0.2c-0.6,0-1.1-0.2-1.4-0.5    c-0.3-0.3-0.5-0.9-0.5-1.5v-3.6h1.8v2.7c0,0.3,0,0.5,0,0.7c0,0.2,0.1,0.3,0.1,0.5c0.1,0.1,0.2,0.2,0.3,0.3    c0.1,0.1,0.3,0.1,0.5,0.1c0.1,0,0.3,0,0.5-0.1s0.4-0.1,0.5-0.2v-3.9h1.8V397z"/> 		<path style="fill:#1A171B;" d="M342.8,394.6h-4c0,0.4,0.2,0.8,0.5,1c0.3,0.2,0.7,0.3,1.3,0.3c0.4,0,0.7-0.1,1.1-0.2    s0.6-0.3,0.8-0.4h0.2v1.4c-0.4,0.2-0.8,0.3-1.1,0.3s-0.7,0.1-1.2,0.1c-1.1,0-1.9-0.2-2.5-0.7s-0.9-1.2-0.9-2.1    c0-0.9,0.3-1.6,0.8-2.2c0.6-0.5,1.3-0.8,2.3-0.8c0.9,0,1.6,0.2,2,0.7c0.4,0.5,0.7,1.1,0.7,1.9V394.6z M341,393.5    c0-0.4-0.1-0.6-0.3-0.8s-0.4-0.3-0.8-0.3c-0.3,0-0.6,0.1-0.8,0.3s-0.3,0.5-0.4,0.8H341z"/> 		<path style="fill:#1A171B;" d="M348,393.2h-0.2c-0.1,0-0.2,0-0.4-0.1c-0.2,0-0.3,0-0.4,0c-0.3,0-0.5,0-0.7,0    c-0.2,0-0.4,0.1-0.6,0.2v3.7H344v-5.5h1.8v0.8c0.4-0.3,0.7-0.6,1-0.7c0.3-0.1,0.5-0.2,0.8-0.2c0.1,0,0.1,0,0.2,0    c0.1,0,0.1,0,0.2,0V393.2z"/> 		<path style="fill:#1A171B;" d="M352.5,396.9c-0.2,0-0.4,0.1-0.6,0.1s-0.5,0-0.8,0c-0.7,0-1.2-0.1-1.5-0.4    c-0.3-0.3-0.5-0.8-0.5-1.4v-2.6h-0.7v-1.2h0.7v-1.6h1.8v1.6h1.6v1.2h-1.6v1.9c0,0.2,0,0.4,0,0.5c0,0.1,0,0.3,0.1,0.4    c0,0.1,0.1,0.2,0.2,0.3c0.1,0.1,0.3,0.1,0.5,0.1c0.1,0,0.2,0,0.4-0.1s0.3-0.1,0.3-0.1h0.1V396.9z"/> 		<path style="fill:#1A171B;" d="M356.8,396.4c-0.1,0.1-0.2,0.2-0.4,0.3s-0.3,0.2-0.4,0.2c-0.2,0.1-0.4,0.1-0.5,0.2    c-0.2,0-0.4,0.1-0.6,0.1c-0.5,0-1-0.2-1.3-0.5s-0.5-0.7-0.5-1.2c0-0.4,0.1-0.7,0.3-1s0.4-0.5,0.8-0.6c0.3-0.1,0.7-0.3,1.2-0.3    s1-0.1,1.5-0.1v0c0-0.3-0.1-0.5-0.4-0.6c-0.2-0.1-0.6-0.2-1.1-0.2c-0.3,0-0.6,0.1-0.9,0.2c-0.3,0.1-0.6,0.2-0.7,0.2h-0.2v-1.3    c0.2,0,0.5-0.1,0.9-0.2c0.4-0.1,0.8-0.1,1.3-0.1c1,0,1.7,0.2,2.2,0.5c0.4,0.3,0.7,0.8,0.7,1.4v3.7h-1.7V396.4z M356.8,395.6v-1.1    c-0.2,0-0.5,0-0.8,0.1s-0.5,0.1-0.6,0.1c-0.2,0.1-0.3,0.1-0.4,0.2s-0.1,0.2-0.1,0.4c0,0.1,0,0.2,0,0.3c0,0.1,0.1,0.1,0.1,0.2    c0.1,0.1,0.2,0.1,0.3,0.1c0.1,0,0.3,0,0.5,0c0.2,0,0.4,0,0.5-0.1C356.6,395.8,356.7,395.7,356.8,395.6z"/> 		<path style="fill:#1A171B;" d="M369,397h-1.8v-0.6c-0.3,0.2-0.6,0.4-0.8,0.5s-0.6,0.2-0.9,0.2c-0.7,0-1.2-0.3-1.6-0.8    c-0.4-0.5-0.6-1.2-0.6-2.1c0-0.5,0.1-0.9,0.2-1.2c0.1-0.4,0.3-0.7,0.6-0.9c0.2-0.2,0.5-0.4,0.8-0.6c0.3-0.1,0.6-0.2,0.9-0.2    c0.3,0,0.6,0,0.8,0.1c0.2,0.1,0.4,0.2,0.6,0.3v-2.3h1.8V397z M367.2,395.5v-2.7c-0.1-0.1-0.3-0.1-0.4-0.1s-0.3,0-0.4,0    c-0.5,0-0.8,0.1-1,0.4s-0.3,0.7-0.3,1.2c0,0.5,0.1,0.9,0.3,1.2c0.2,0.2,0.5,0.4,0.9,0.4c0.2,0,0.3,0,0.5-0.1    C366.9,395.7,367.1,395.6,367.2,395.5z"/> 		<path style="fill:#1A171B;" d="M376,394.6h-4c0,0.4,0.2,0.8,0.5,1c0.3,0.2,0.7,0.3,1.3,0.3c0.4,0,0.7-0.1,1.1-0.2s0.6-0.3,0.8-0.4    h0.2v1.4c-0.4,0.2-0.8,0.3-1.1,0.3s-0.7,0.1-1.2,0.1c-1.1,0-1.9-0.2-2.5-0.7s-0.9-1.2-0.9-2.1c0-0.9,0.3-1.6,0.8-2.2    c0.6-0.5,1.3-0.8,2.3-0.8c0.9,0,1.6,0.2,2,0.7c0.4,0.5,0.7,1.1,0.7,1.9V394.6z M374.3,393.5c0-0.4-0.1-0.6-0.3-0.8    s-0.4-0.3-0.8-0.3c-0.3,0-0.6,0.1-0.8,0.3s-0.3,0.5-0.4,0.8H374.3z"/> 		<path style="fill:#1A171B;" d="M388.4,397h-1.9v-4.9l-1.3,3.2h-1.3l-1.3-3.2v4.9h-1.8v-7.3h2.2l1.6,3.6l1.6-3.6h2.2V397z"/> 		<path style="fill:#1A171B;" d="M395.6,397h-1.8v-0.6c-0.3,0.2-0.6,0.4-0.9,0.6c-0.3,0.1-0.6,0.2-1,0.2c-0.6,0-1.1-0.2-1.4-0.5    c-0.3-0.3-0.5-0.9-0.5-1.5v-3.6h1.8v2.7c0,0.3,0,0.5,0,0.7c0,0.2,0.1,0.3,0.1,0.5c0.1,0.1,0.2,0.2,0.3,0.3    c0.1,0.1,0.3,0.1,0.5,0.1c0.1,0,0.3,0,0.5-0.1s0.4-0.1,0.5-0.2v-3.9h1.8V397z"/> 		<path style="fill:#1A171B;" d="M401.3,393.2h-0.2c-0.1,0-0.2,0-0.4-0.1c-0.2,0-0.3,0-0.4,0c-0.3,0-0.5,0-0.7,0    c-0.2,0-0.4,0.1-0.6,0.2v3.7h-1.8v-5.5h1.8v0.8c0.4-0.3,0.7-0.6,1-0.7c0.3-0.1,0.5-0.2,0.8-0.2c0.1,0,0.1,0,0.2,0    c0.1,0,0.1,0,0.2,0V393.2z"/> 		<path style="fill:#1A171B;" d="M405.1,397.1c-0.5,0-0.9-0.1-1.3-0.2s-0.7-0.3-1-0.5c-0.3-0.2-0.5-0.5-0.7-0.9s-0.2-0.8-0.2-1.3    c0-0.5,0.1-1,0.3-1.3s0.4-0.7,0.7-0.9c0.3-0.2,0.6-0.4,1-0.5s0.8-0.2,1.2-0.2c0.4,0,0.7,0,1,0.1s0.6,0.2,0.9,0.3v1.5h-0.2    c-0.1-0.1-0.1-0.1-0.2-0.2c-0.1-0.1-0.2-0.2-0.4-0.2c-0.1-0.1-0.3-0.1-0.4-0.2c-0.2,0-0.3-0.1-0.6-0.1c-0.5,0-0.8,0.1-1.1,0.4    c-0.3,0.3-0.4,0.7-0.4,1.2c0,0.5,0.1,0.9,0.4,1.2s0.6,0.4,1.1,0.4c0.2,0,0.4,0,0.6-0.1c0.2-0.1,0.3-0.1,0.4-0.2    c0.1-0.1,0.2-0.1,0.3-0.2c0.1-0.1,0.2-0.1,0.2-0.2h0.2v1.5c-0.3,0.1-0.6,0.2-0.9,0.3C405.8,397.1,405.5,397.1,405.1,397.1z"/> 		<path style="fill:#1A171B;" d="M409.9,390.7h-1.9v-1.3h1.9V390.7z M409.9,397h-1.8v-5.5h1.8V397z"/> 		<path style="fill:#1A171B;" d="M414.9,396.4c-0.1,0.1-0.2,0.2-0.4,0.3s-0.3,0.2-0.4,0.2c-0.2,0.1-0.4,0.1-0.5,0.2    c-0.2,0-0.4,0.1-0.6,0.1c-0.5,0-1-0.2-1.3-0.5s-0.5-0.7-0.5-1.2c0-0.4,0.1-0.7,0.3-1s0.4-0.5,0.8-0.6c0.3-0.1,0.7-0.3,1.2-0.3    s1-0.1,1.5-0.1v0c0-0.3-0.1-0.5-0.4-0.6c-0.2-0.1-0.6-0.2-1.1-0.2c-0.3,0-0.6,0.1-0.9,0.2c-0.3,0.1-0.6,0.2-0.7,0.2h-0.2v-1.3    c0.2,0,0.5-0.1,0.9-0.2c0.4-0.1,0.8-0.1,1.3-0.1c1,0,1.7,0.2,2.2,0.5c0.4,0.3,0.7,0.8,0.7,1.4v3.7h-1.7V396.4z M414.9,395.6v-1.1    c-0.2,0-0.5,0-0.8,0.1s-0.5,0.1-0.6,0.1c-0.2,0.1-0.3,0.1-0.4,0.2s-0.1,0.2-0.1,0.4c0,0.1,0,0.2,0,0.3c0,0.1,0.1,0.1,0.1,0.2    c0.1,0.1,0.2,0.1,0.3,0.1c0.1,0,0.3,0,0.5,0c0.2,0,0.4,0,0.5-0.1C414.6,395.8,414.7,395.7,414.9,395.6z"/> 	</g> 	<g> 		<rect x="37.3" y="128" style="fill-rule:evenodd;clip-rule:evenodd;fill:none;" width="133.9" height="25.2"/> 		<path style="fill:#1A171B;" d="M85.7,138h-2.3l-2-2.7h-0.9v2.7h-1.9v-7.3h3.1c0.4,0,0.8,0,1.1,0.1s0.6,0.2,0.9,0.3    c0.3,0.2,0.5,0.4,0.7,0.6s0.2,0.6,0.2,1c0,0.5-0.1,1-0.4,1.3s-0.6,0.6-1.1,0.8L85.7,138z M82.7,132.9c0-0.2,0-0.3-0.1-0.5    s-0.2-0.2-0.4-0.3c-0.1-0.1-0.3-0.1-0.4-0.1c-0.2,0-0.4,0-0.6,0h-0.7v2h0.6c0.3,0,0.5,0,0.8,0s0.4-0.1,0.5-0.2    c0.1-0.1,0.2-0.2,0.3-0.3C82.7,133.3,82.7,133.1,82.7,132.9z"/> 		<path style="fill:#1A171B;" d="M89,129.8L89,129.8l-1.7,1.9h-1.2l1.2-1.9H89z M88.1,138h-1.8v-5.5h1.8V138z"/> 		<path style="fill:#1A171B;" d="M95.4,135.2c0,0.9-0.3,1.6-0.8,2.1c-0.5,0.5-1.3,0.8-2.2,0.8s-1.7-0.3-2.2-0.8    c-0.5-0.5-0.8-1.2-0.8-2.1c0-0.9,0.3-1.6,0.8-2.1c0.5-0.5,1.3-0.8,2.2-0.8c1,0,1.7,0.3,2.2,0.8S95.4,134.3,95.4,135.2z     M93.2,136.6c0.1-0.1,0.2-0.3,0.3-0.5c0.1-0.2,0.1-0.5,0.1-0.8c0-0.3,0-0.6-0.1-0.8s-0.1-0.4-0.2-0.5c-0.1-0.1-0.2-0.2-0.4-0.3    s-0.3-0.1-0.5-0.1s-0.3,0-0.5,0.1s-0.3,0.1-0.4,0.3c-0.1,0.1-0.2,0.3-0.3,0.5s-0.1,0.5-0.1,0.8c0,0.3,0,0.6,0.1,0.8    s0.1,0.4,0.2,0.5c0.1,0.1,0.2,0.2,0.4,0.3c0.1,0.1,0.3,0.1,0.5,0.1c0.2,0,0.3,0,0.5-0.1C93,136.8,93.1,136.7,93.2,136.6z"/> 		<path style="fill:#1A171B;" d="M107.8,138h-1.9v-4.9l-1.3,3.2h-1.3l-1.3-3.2v4.9h-1.8v-7.3h2.2l1.6,3.6l1.6-3.6h2.2V138z"/> 		<path style="fill:#1A171B;" d="M115,138h-1.8v-0.6c-0.3,0.2-0.6,0.4-0.9,0.6s-0.6,0.2-1,0.2c-0.6,0-1.1-0.2-1.4-0.5    c-0.3-0.3-0.5-0.9-0.5-1.5v-3.6h1.8v2.7c0,0.3,0,0.5,0,0.7c0,0.2,0.1,0.3,0.1,0.5c0.1,0.1,0.2,0.2,0.3,0.3    c0.1,0.1,0.3,0.1,0.5,0.1c0.1,0,0.3,0,0.5-0.1s0.4-0.1,0.5-0.2v-3.9h1.8V138z"/> 		<path style="fill:#1A171B;" d="M118.4,138h-1.8v-7.6h1.8V138z"/> 		<path style="fill:#1A171B;" d="M123.4,137.4c-0.1,0.1-0.2,0.2-0.4,0.3s-0.3,0.2-0.4,0.2c-0.2,0.1-0.4,0.1-0.5,0.2    s-0.4,0.1-0.6,0.1c-0.5,0-1-0.2-1.3-0.5s-0.5-0.7-0.5-1.2c0-0.4,0.1-0.7,0.3-1s0.4-0.5,0.8-0.6c0.3-0.1,0.7-0.3,1.2-0.3    s1-0.1,1.5-0.1v0c0-0.3-0.1-0.5-0.4-0.6s-0.6-0.2-1.1-0.2c-0.3,0-0.6,0.1-0.9,0.2s-0.6,0.2-0.7,0.2h-0.2v-1.3    c0.2,0,0.5-0.1,0.9-0.2c0.4-0.1,0.8-0.1,1.3-0.1c1,0,1.7,0.2,2.2,0.5s0.7,0.8,0.7,1.4v3.7h-1.7V137.4z M123.4,136.6v-1.1    c-0.2,0-0.5,0-0.8,0.1c-0.3,0-0.5,0.1-0.6,0.1c-0.2,0.1-0.3,0.1-0.4,0.2s-0.1,0.2-0.1,0.4c0,0.1,0,0.2,0,0.3    c0,0.1,0.1,0.1,0.1,0.2c0.1,0.1,0.2,0.1,0.3,0.1s0.3,0,0.5,0c0.2,0,0.4,0,0.5-0.1C123.1,136.8,123.3,136.7,123.4,136.6z"/> 		<path style="fill:#1A171B;" d="M130.2,135.5h-3.7v-1.4h3.7V135.5z"/> 		<path style="fill:#1A171B;" d="M49.3,140.7l-2.7,7.3h-2.1l-2.7-7.3h2l1.8,5.1l1.8-5.1H49.3z"/> 		<path style="fill:#1A171B;" d="M53.5,147.4c-0.1,0.1-0.2,0.2-0.4,0.3s-0.3,0.2-0.4,0.2c-0.2,0.1-0.4,0.1-0.5,0.2s-0.4,0.1-0.6,0.1    c-0.5,0-1-0.2-1.3-0.5s-0.5-0.7-0.5-1.2c0-0.4,0.1-0.7,0.3-1s0.4-0.5,0.8-0.6c0.3-0.1,0.7-0.3,1.2-0.3s1-0.1,1.5-0.1v0    c0-0.3-0.1-0.5-0.4-0.6s-0.6-0.2-1.1-0.2c-0.3,0-0.6,0.1-0.9,0.2s-0.6,0.2-0.7,0.2h-0.2v-1.3c0.2,0,0.5-0.1,0.9-0.2    c0.4-0.1,0.8-0.1,1.3-0.1c1,0,1.7,0.2,2.2,0.5s0.7,0.8,0.7,1.4v3.7h-1.7V147.4z M53.5,146.6v-1.1c-0.2,0-0.5,0-0.8,0.1    c-0.3,0-0.5,0.1-0.6,0.1c-0.2,0.1-0.3,0.1-0.4,0.2s-0.1,0.2-0.1,0.4c0,0.1,0,0.2,0,0.3c0,0.1,0.1,0.1,0.1,0.2    c0.1,0.1,0.2,0.1,0.3,0.1s0.3,0,0.5,0c0.2,0,0.4,0,0.5-0.1C53.2,146.8,53.4,146.7,53.5,146.6z"/> 		<path style="fill:#1A171B;" d="M58.7,148h-1.8v-7.6h1.8V148z"/> 		<path style="fill:#1A171B;" d="M62.1,148h-1.8v-7.6h1.8V148z"/> 		<path style="fill:#1A171B;" d="M69.1,145.6h-4c0,0.4,0.2,0.8,0.5,1c0.3,0.2,0.7,0.3,1.3,0.3c0.4,0,0.7-0.1,1.1-0.2    s0.6-0.3,0.8-0.4H69v1.4c-0.4,0.2-0.8,0.3-1.1,0.3s-0.7,0.1-1.2,0.1c-1.1,0-1.9-0.2-2.5-0.7s-0.9-1.2-0.9-2.1    c0-0.9,0.3-1.6,0.8-2.2c0.6-0.5,1.3-0.8,2.3-0.8c0.9,0,1.6,0.2,2,0.7s0.7,1.1,0.7,1.9V145.6z M67.4,144.5c0-0.4-0.1-0.6-0.3-0.8    s-0.4-0.3-0.8-0.3c-0.3,0-0.6,0.1-0.8,0.3s-0.3,0.5-0.4,0.8H67.4z"/> 		<path style="fill:#1A171B;" d="M80.9,148h-2.3l-2-2.7h-0.9v2.7h-1.9v-7.3H77c0.4,0,0.8,0,1.1,0.1s0.6,0.2,0.9,0.3    c0.3,0.2,0.5,0.4,0.7,0.6s0.2,0.6,0.2,1c0,0.5-0.1,1-0.4,1.3s-0.6,0.6-1.1,0.8L80.9,148z M78,142.9c0-0.2,0-0.3-0.1-0.5    s-0.2-0.2-0.4-0.3c-0.1-0.1-0.3-0.1-0.4-0.1c-0.2,0-0.4,0-0.6,0h-0.7v2h0.6c0.3,0,0.5,0,0.8,0s0.4-0.1,0.5-0.2    c0.1-0.1,0.2-0.2,0.3-0.3C77.9,143.3,78,143.1,78,142.9z"/> 		<path style="fill:#1A171B;" d="M83.4,141.7h-1.9v-1.3h1.9V141.7z M83.4,148h-1.8v-5.5h1.8V148z"/> 		<path style="fill:#1A171B;" d="M87.9,148.1c-0.5,0-0.9-0.1-1.3-0.2s-0.7-0.3-1-0.5c-0.3-0.2-0.5-0.5-0.7-0.9s-0.2-0.8-0.2-1.3    c0-0.5,0.1-1,0.3-1.3s0.4-0.7,0.7-0.9c0.3-0.2,0.6-0.4,1-0.5s0.8-0.2,1.2-0.2c0.4,0,0.7,0,1,0.1s0.6,0.2,0.9,0.3v1.5h-0.2    c-0.1-0.1-0.1-0.1-0.2-0.2c-0.1-0.1-0.2-0.2-0.4-0.2c-0.1-0.1-0.3-0.1-0.4-0.2s-0.3-0.1-0.6-0.1c-0.5,0-0.8,0.1-1.1,0.4    s-0.4,0.7-0.4,1.2c0,0.5,0.1,0.9,0.4,1.2s0.6,0.4,1.1,0.4c0.2,0,0.4,0,0.6-0.1c0.2-0.1,0.3-0.1,0.4-0.2c0.1-0.1,0.2-0.1,0.3-0.2    c0.1-0.1,0.2-0.1,0.2-0.2h0.2v1.5c-0.3,0.1-0.6,0.2-0.9,0.3C88.6,148.1,88.2,148.1,87.9,148.1z"/> 		<path style="fill:#1A171B;" d="M96.5,145.2c0,0.9-0.3,1.6-0.8,2.1c-0.5,0.5-1.3,0.8-2.2,0.8s-1.7-0.3-2.2-0.8    c-0.5-0.5-0.8-1.2-0.8-2.1c0-0.9,0.3-1.6,0.8-2.1c0.5-0.5,1.3-0.8,2.2-0.8c1,0,1.7,0.3,2.2,0.8S96.5,144.3,96.5,145.2z     M94.4,146.6c0.1-0.1,0.2-0.3,0.3-0.5c0.1-0.2,0.1-0.5,0.1-0.8c0-0.3,0-0.6-0.1-0.8s-0.1-0.4-0.2-0.5c-0.1-0.1-0.2-0.2-0.4-0.3    s-0.3-0.1-0.5-0.1s-0.3,0-0.5,0.1s-0.3,0.1-0.4,0.3c-0.1,0.1-0.2,0.3-0.3,0.5s-0.1,0.5-0.1,0.8c0,0.3,0,0.6,0.1,0.8    s0.1,0.4,0.2,0.5c0.1,0.1,0.2,0.2,0.4,0.3c0.1,0.1,0.3,0.1,0.5,0.1c0.2,0,0.3,0,0.5-0.1C94.1,146.8,94.3,146.7,94.4,146.6z"/> 		<path style="fill:#1A171B;" d="M101.3,147.9c-0.2,0-0.4,0.1-0.6,0.1c-0.2,0-0.5,0-0.8,0c-0.7,0-1.2-0.1-1.5-0.4    c-0.3-0.3-0.5-0.8-0.5-1.4v-2.6h-0.7v-1.2h0.7v-1.6h1.8v1.6h1.6v1.2h-1.6v1.9c0,0.2,0,0.4,0,0.5c0,0.1,0,0.3,0.1,0.4    c0,0.1,0.1,0.2,0.2,0.3s0.3,0.1,0.5,0.1c0.1,0,0.2,0,0.4-0.1s0.3-0.1,0.3-0.1h0.1V147.9z"/> 		<path style="fill:#1A171B;" d="M107.7,145.6h-4c0,0.4,0.2,0.8,0.5,1c0.3,0.2,0.7,0.3,1.3,0.3c0.4,0,0.7-0.1,1.1-0.2    s0.6-0.3,0.8-0.4h0.2v1.4c-0.4,0.2-0.8,0.3-1.1,0.3s-0.7,0.1-1.2,0.1c-1.1,0-1.9-0.2-2.5-0.7s-0.9-1.2-0.9-2.1    c0-0.9,0.3-1.6,0.8-2.2c0.6-0.5,1.3-0.8,2.3-0.8c0.9,0,1.6,0.2,2,0.7s0.7,1.1,0.7,1.9V145.6z M106,144.5c0-0.4-0.1-0.6-0.3-0.8    s-0.4-0.3-0.8-0.3c-0.3,0-0.6,0.1-0.8,0.3s-0.3,0.5-0.4,0.8H106z"/> 		<path style="fill:#1A171B;" d="M112.4,145.5h-3.7v-1.4h3.7V145.5z"/> 		<path style="fill:#1A171B;" d="M120.5,140.7l-2.7,7.3h-2.1l-2.7-7.3h2l1.8,5.1l1.8-5.1H120.5z"/> 		<path style="fill:#1A171B;" d="M126.8,145.6h-4c0,0.4,0.2,0.8,0.5,1c0.3,0.2,0.7,0.3,1.3,0.3c0.4,0,0.7-0.1,1.1-0.2    s0.6-0.3,0.8-0.4h0.2v1.4c-0.4,0.2-0.8,0.3-1.1,0.3s-0.7,0.1-1.2,0.1c-1.1,0-1.9-0.2-2.5-0.7s-0.9-1.2-0.9-2.1    c0-0.9,0.3-1.6,0.8-2.2c0.6-0.5,1.3-0.8,2.3-0.8c0.9,0,1.6,0.2,2,0.7s0.7,1.1,0.7,1.9V145.6z M125.1,144.5c0-0.4-0.1-0.6-0.3-0.8    s-0.4-0.3-0.8-0.3c-0.3,0-0.6,0.1-0.8,0.3s-0.3,0.5-0.4,0.8H125.1z"/> 		<path style="fill:#1A171B;" d="M133.4,147.4c0,0.5-0.1,0.9-0.2,1.3s-0.4,0.6-0.6,0.8c-0.3,0.2-0.6,0.3-1,0.4    c-0.4,0.1-0.8,0.1-1.3,0.1c-0.4,0-0.8,0-1.1-0.1c-0.4,0-0.7-0.1-1-0.2v-1.4h0.2c0.2,0.1,0.5,0.2,0.8,0.2c0.3,0.1,0.6,0.1,0.8,0.1    c0.3,0,0.6,0,0.8-0.1s0.4-0.1,0.5-0.3c0.1-0.1,0.2-0.2,0.2-0.4c0-0.2,0.1-0.4,0.1-0.6v-0.1c-0.2,0.2-0.4,0.3-0.7,0.4    s-0.5,0.2-0.9,0.2c-0.8,0-1.4-0.2-1.8-0.7s-0.6-1.2-0.6-2.1c0-0.5,0.1-0.8,0.2-1.2s0.3-0.6,0.5-0.9c0.2-0.2,0.5-0.4,0.8-0.5    c0.3-0.1,0.6-0.2,1-0.2c0.3,0,0.6,0,0.8,0.1s0.5,0.2,0.7,0.3l0.1-0.2h1.7V147.4z M131.6,146.3v-2.5c-0.1,0-0.2-0.1-0.4-0.1    s-0.3,0-0.4,0c-0.5,0-0.8,0.1-1,0.4s-0.3,0.6-0.3,1.1c0,0.5,0.1,0.9,0.3,1.1s0.5,0.3,0.9,0.3c0.2,0,0.3,0,0.5-0.1    S131.5,146.4,131.6,146.3z"/> 		<path style="fill:#1A171B;" d="M138.4,147.4c-0.1,0.1-0.2,0.2-0.4,0.3s-0.3,0.2-0.4,0.2c-0.2,0.1-0.4,0.1-0.5,0.2    s-0.4,0.1-0.6,0.1c-0.5,0-1-0.2-1.3-0.5s-0.5-0.7-0.5-1.2c0-0.4,0.1-0.7,0.3-1s0.4-0.5,0.8-0.6c0.3-0.1,0.7-0.3,1.2-0.3    s1-0.1,1.5-0.1v0c0-0.3-0.1-0.5-0.4-0.6s-0.6-0.2-1.1-0.2c-0.3,0-0.6,0.1-0.9,0.2s-0.6,0.2-0.7,0.2h-0.2v-1.3    c0.2,0,0.5-0.1,0.9-0.2c0.4-0.1,0.8-0.1,1.3-0.1c1,0,1.7,0.2,2.2,0.5s0.7,0.8,0.7,1.4v3.7h-1.7V147.4z M138.4,146.6v-1.1    c-0.2,0-0.5,0-0.8,0.1c-0.3,0-0.5,0.1-0.6,0.1c-0.2,0.1-0.3,0.1-0.4,0.2s-0.1,0.2-0.1,0.4c0,0.1,0,0.2,0,0.3    c0,0.1,0.1,0.1,0.1,0.2c0.1,0.1,0.2,0.1,0.3,0.1s0.3,0,0.5,0c0.2,0,0.4,0,0.5-0.1C138.1,146.8,138.2,146.7,138.4,146.6z"/> 		<path style="fill:#1A171B;" d="M152,148H150l-0.5-1.5h-2.7l-0.5,1.5h-1.9l2.7-7.3h2.2L152,148z M149.1,145.2l-0.9-2.6l-0.9,2.6    H149.1z"/> 		<path style="fill:#1A171B;" d="M154.7,148h-1.8v-7.6h1.8V148z"/> 		<path style="fill:#1A171B;" d="M159.8,147.9c-0.2,0-0.4,0.1-0.6,0.1c-0.2,0-0.5,0-0.8,0c-0.7,0-1.2-0.1-1.5-0.4    c-0.3-0.3-0.5-0.8-0.5-1.4v-2.6h-0.7v-1.2h0.7v-1.6h1.8v1.6h1.6v1.2h-1.6v1.9c0,0.2,0,0.4,0,0.5c0,0.1,0,0.3,0.1,0.4    c0,0.1,0.1,0.2,0.2,0.3s0.3,0.1,0.5,0.1c0.1,0,0.2,0,0.4-0.1s0.3-0.1,0.3-0.1h0.1V147.9z"/> 		<path style="fill:#1A171B;" d="M164.2,147.4c-0.1,0.1-0.2,0.2-0.4,0.3s-0.3,0.2-0.4,0.2c-0.2,0.1-0.4,0.1-0.5,0.2    s-0.4,0.1-0.6,0.1c-0.5,0-1-0.2-1.3-0.5s-0.5-0.7-0.5-1.2c0-0.4,0.1-0.7,0.3-1s0.4-0.5,0.8-0.6c0.3-0.1,0.7-0.3,1.2-0.3    s1-0.1,1.5-0.1v0c0-0.3-0.1-0.5-0.4-0.6s-0.6-0.2-1.1-0.2c-0.3,0-0.6,0.1-0.9,0.2s-0.6,0.2-0.7,0.2h-0.2v-1.3    c0.2,0,0.5-0.1,0.9-0.2c0.4-0.1,0.8-0.1,1.3-0.1c1,0,1.7,0.2,2.2,0.5s0.7,0.8,0.7,1.4v3.7h-1.7V147.4z M164.2,146.6v-1.1    c-0.2,0-0.5,0-0.8,0.1c-0.3,0-0.5,0.1-0.6,0.1c-0.2,0.1-0.3,0.1-0.4,0.2s-0.1,0.2-0.1,0.4c0,0.1,0,0.2,0,0.3    c0,0.1,0.1,0.1,0.1,0.2c0.1,0.1,0.2,0.1,0.3,0.1s0.3,0,0.5,0c0.2,0,0.4,0,0.5-0.1C163.9,146.8,164.1,146.7,164.2,146.6z"/> 	</g> 	<g> 		<rect x="292.5" y="81.5" style="fill-rule:evenodd;clip-rule:evenodd;fill:none;" width="135.7" height="20"/> 		<path style="fill:#1A171B;" d="M313.5,91.5h-1.9l-0.5-1.5h-2.7l-0.5,1.5H306l2.7-7.3h2.2L313.5,91.5z M310.6,88.7l-0.9-2.6    l-0.9,2.6H310.6z"/> 		<path style="fill:#1A171B;" d="M316.2,91.5h-1.8v-7.6h1.8V91.5z"/> 		<path style="fill:#1A171B;" d="M321.4,91.5c-0.2,0-0.4,0.1-0.6,0.1c-0.2,0-0.5,0-0.8,0c-0.7,0-1.2-0.1-1.5-0.4    c-0.3-0.3-0.5-0.8-0.5-1.4v-2.6h-0.7V86h0.7v-1.6h1.8V86h1.6v1.2h-1.6v1.9c0,0.2,0,0.4,0,0.5c0,0.1,0,0.3,0.1,0.4    c0,0.1,0.1,0.2,0.2,0.3s0.3,0.1,0.5,0.1c0.1,0,0.2,0,0.4-0.1s0.3-0.1,0.3-0.1h0.1V91.5z"/> 		<path style="fill:#1A171B;" d="M324.3,85.3h-1.9v-1.3h1.9V85.3z M324.2,91.5h-1.8V86h1.8V91.5z"/> 		<path style="fill:#1A171B;" d="M331.6,88.7c0,0.5-0.1,0.9-0.2,1.2c-0.1,0.4-0.3,0.7-0.5,0.9c-0.2,0.3-0.5,0.4-0.8,0.6    s-0.6,0.2-1,0.2c-0.3,0-0.6,0-0.8-0.1s-0.4-0.2-0.7-0.3v2.3h-1.8V86h1.8v0.6c0.3-0.2,0.5-0.4,0.8-0.5s0.6-0.2,1-0.2    c0.7,0,1.2,0.3,1.6,0.8S331.6,87.8,331.6,88.7z M329.8,88.7c0-0.5-0.1-0.9-0.3-1.2c-0.2-0.2-0.5-0.4-0.9-0.4c-0.2,0-0.3,0-0.5,0.1    c-0.2,0.1-0.3,0.1-0.5,0.2v2.8c0.1,0,0.2,0.1,0.4,0.1c0.1,0,0.3,0,0.4,0c0.5,0,0.8-0.1,1-0.4C329.7,89.7,329.8,89.3,329.8,88.7z"/> 		<path style="fill:#1A171B;" d="M334.6,91.5h-1.8v-7.6h1.8V91.5z"/> 		<path style="fill:#1A171B;" d="M339.6,90.9c-0.1,0.1-0.2,0.2-0.4,0.3s-0.3,0.2-0.4,0.2c-0.2,0.1-0.4,0.1-0.5,0.2s-0.4,0.1-0.6,0.1    c-0.5,0-1-0.2-1.3-0.5s-0.5-0.7-0.5-1.2c0-0.4,0.1-0.7,0.3-1s0.4-0.5,0.8-0.6c0.3-0.1,0.7-0.3,1.2-0.3s1-0.1,1.5-0.1v0    c0-0.3-0.1-0.5-0.4-0.6s-0.6-0.2-1.1-0.2c-0.3,0-0.6,0.1-0.9,0.2s-0.6,0.2-0.7,0.2h-0.2v-1.3c0.2,0,0.5-0.1,0.9-0.2    c0.4-0.1,0.8-0.1,1.3-0.1c1,0,1.7,0.2,2.2,0.5s0.7,0.8,0.7,1.4v3.7h-1.7V90.9z M339.6,90.1V89c-0.2,0-0.5,0-0.8,0.1    c-0.3,0-0.5,0.1-0.6,0.1c-0.2,0.1-0.3,0.1-0.4,0.2s-0.1,0.2-0.1,0.4c0,0.1,0,0.2,0,0.3c0,0.1,0.1,0.1,0.1,0.2    c0.1,0.1,0.2,0.1,0.3,0.1s0.3,0,0.5,0c0.2,0,0.4,0,0.5-0.1C339.3,90.3,339.5,90.2,339.6,90.1z"/> 		<path style="fill:#1A171B;" d="M348.5,91.5h-1.8v-2.7c0-0.2,0-0.4,0-0.7s-0.1-0.4-0.1-0.5c-0.1-0.1-0.2-0.2-0.3-0.3    c-0.1-0.1-0.3-0.1-0.5-0.1c-0.2,0-0.3,0-0.5,0.1c-0.2,0.1-0.3,0.1-0.5,0.2v3.9H343V86h1.8v0.6c0.3-0.2,0.6-0.4,0.9-0.6    c0.3-0.1,0.6-0.2,1-0.2c0.6,0,1.1,0.2,1.4,0.5s0.5,0.9,0.5,1.5V91.5z"/> 		<path style="fill:#1A171B;" d="M355.7,88.8c0,0.9-0.3,1.6-0.8,2.1c-0.5,0.5-1.3,0.8-2.2,0.8s-1.7-0.3-2.2-0.8    c-0.5-0.5-0.8-1.2-0.8-2.1c0-0.9,0.3-1.6,0.8-2.1c0.5-0.5,1.3-0.8,2.2-0.8c1,0,1.7,0.3,2.2,0.8S355.7,87.9,355.7,88.8z     M353.5,90.1c0.1-0.1,0.2-0.3,0.3-0.5c0.1-0.2,0.1-0.5,0.1-0.8c0-0.3,0-0.6-0.1-0.8s-0.1-0.4-0.2-0.5c-0.1-0.1-0.2-0.2-0.4-0.3    s-0.3-0.1-0.5-0.1s-0.3,0-0.5,0.1s-0.3,0.1-0.4,0.3c-0.1,0.1-0.2,0.3-0.3,0.5s-0.1,0.5-0.1,0.8c0,0.3,0,0.6,0.1,0.8    s0.1,0.4,0.2,0.5c0.1,0.1,0.2,0.2,0.4,0.3c0.1,0.1,0.3,0.1,0.5,0.1c0.2,0,0.3,0,0.5-0.1C353.3,90.3,353.4,90.3,353.5,90.1z"/> 		<path style="fill:#1A171B;" d="M362.8,89.6l1.3-3.5h1.8l-3,7.5h-1.9l0.9-2.1l-2.1-5.4h1.8L362.8,89.6z"/> 		<path style="fill:#1A171B;" d="M377.5,87.9c0,1.2-0.3,2.1-1,2.8s-1.6,1-2.8,1c-1.2,0-2.1-0.3-2.7-1s-1-1.6-1-2.8    c0-1.2,0.3-2.1,1-2.8s1.6-1,2.7-1c1.2,0,2.1,0.3,2.7,1S377.5,86.7,377.5,87.9z M375,89.7c0.2-0.2,0.3-0.5,0.4-0.8s0.1-0.7,0.1-1.1    c0-0.4-0.1-0.8-0.2-1.1s-0.2-0.6-0.4-0.7c-0.2-0.2-0.4-0.3-0.6-0.4c-0.2-0.1-0.4-0.1-0.7-0.1c-0.2,0-0.5,0-0.7,0.1    c-0.2,0.1-0.4,0.2-0.6,0.4c-0.2,0.2-0.3,0.4-0.4,0.8s-0.2,0.7-0.2,1.1c0,0.4,0,0.8,0.1,1.1c0.1,0.3,0.2,0.6,0.4,0.7    s0.4,0.3,0.6,0.4s0.4,0.1,0.7,0.1s0.5,0,0.7-0.1S374.8,89.9,375,89.7z"/> 		<path style="fill:#1A171B;" d="M382.8,87.7h-0.2c-0.1,0-0.2,0-0.4-0.1c-0.2,0-0.3,0-0.4,0c-0.3,0-0.5,0-0.7,0    c-0.2,0-0.4,0.1-0.6,0.2v3.7h-1.8V86h1.8v0.8c0.4-0.3,0.7-0.6,1-0.7c0.3-0.1,0.5-0.2,0.8-0.2c0.1,0,0.1,0,0.2,0c0.1,0,0.1,0,0.2,0    V87.7z"/> 		<path style="fill:#1A171B;" d="M385.6,85.3h-1.9v-1.3h1.9V85.3z M385.5,91.5h-1.8V86h1.8V91.5z"/> 		<path style="fill:#1A171B;" d="M392.6,89.1h-4c0,0.4,0.2,0.8,0.5,1c0.3,0.2,0.7,0.3,1.3,0.3c0.4,0,0.7-0.1,1.1-0.2    s0.6-0.3,0.8-0.4h0.2v1.4c-0.4,0.2-0.8,0.3-1.1,0.3s-0.7,0.1-1.2,0.1c-1.1,0-1.9-0.2-2.5-0.7s-0.9-1.2-0.9-2.1    c0-0.9,0.3-1.6,0.8-2.2c0.6-0.5,1.3-0.8,2.3-0.8c0.9,0,1.6,0.2,2,0.7s0.7,1.1,0.7,1.9V89.1z M390.8,88.1c0-0.4-0.1-0.6-0.3-0.8    s-0.4-0.3-0.8-0.3c-0.3,0-0.6,0.1-0.8,0.3s-0.3,0.5-0.4,0.8H390.8z"/> 		<path style="fill:#1A171B;" d="M399.3,91.5h-1.8v-2.7c0-0.2,0-0.4,0-0.7s-0.1-0.4-0.1-0.5c-0.1-0.1-0.2-0.2-0.3-0.3    c-0.1-0.1-0.3-0.1-0.5-0.1c-0.2,0-0.3,0-0.5,0.1c-0.2,0.1-0.3,0.1-0.5,0.2v3.9h-1.8V86h1.8v0.6c0.3-0.2,0.6-0.4,0.9-0.6    c0.3-0.1,0.6-0.2,1-0.2c0.6,0,1.1,0.2,1.4,0.5s0.5,0.9,0.5,1.5V91.5z"/> 		<path style="fill:#1A171B;" d="M404.5,91.5c-0.2,0-0.4,0.1-0.6,0.1c-0.2,0-0.5,0-0.8,0c-0.7,0-1.2-0.1-1.5-0.4    c-0.3-0.3-0.5-0.8-0.5-1.4v-2.6h-0.7V86h0.7v-1.6h1.8V86h1.6v1.2h-1.6v1.9c0,0.2,0,0.4,0,0.5c0,0.1,0,0.3,0.1,0.4    c0,0.1,0.1,0.2,0.2,0.3s0.3,0.1,0.5,0.1c0.1,0,0.2,0,0.4-0.1s0.3-0.1,0.3-0.1h0.1V91.5z"/> 		<path style="fill:#1A171B;" d="M408.8,90.9c-0.1,0.1-0.2,0.2-0.4,0.3s-0.3,0.2-0.4,0.2c-0.2,0.1-0.4,0.1-0.5,0.2s-0.4,0.1-0.6,0.1    c-0.5,0-1-0.2-1.3-0.5s-0.5-0.7-0.5-1.2c0-0.4,0.1-0.7,0.3-1s0.4-0.5,0.8-0.6c0.3-0.1,0.7-0.3,1.2-0.3s1-0.1,1.5-0.1v0    c0-0.3-0.1-0.5-0.4-0.6s-0.6-0.2-1.1-0.2c-0.3,0-0.6,0.1-0.9,0.2s-0.6,0.2-0.7,0.2h-0.2v-1.3c0.2,0,0.5-0.1,0.9-0.2    c0.4-0.1,0.8-0.1,1.3-0.1c1,0,1.7,0.2,2.2,0.5s0.7,0.8,0.7,1.4v3.7h-1.7V90.9z M408.8,90.1V89c-0.2,0-0.5,0-0.8,0.1    c-0.3,0-0.5,0.1-0.6,0.1c-0.2,0.1-0.3,0.1-0.4,0.2s-0.1,0.2-0.1,0.4c0,0.1,0,0.2,0,0.3c0,0.1,0.1,0.1,0.1,0.2    c0.1,0.1,0.2,0.1,0.3,0.1s0.3,0,0.5,0c0.2,0,0.4,0,0.5-0.1C408.5,90.3,408.7,90.2,408.8,90.1z"/> 		<path style="fill:#1A171B;" d="M413.9,91.5h-1.8v-7.6h1.8V91.5z"/> 	</g> </g> <g id="llegenda"> 	<line style="fill:none;stroke:#9A9A9A;stroke-width:2;stroke-miterlimit:10;" x1="-137.2" y1="121.7" x2="-137.2" y2="151.2"/> 	<g> 		<path d="M-129.5,132.1h0.9v7.1h-0.9V132.1z"/> 		<path d="M-126.1,133c0,0.3-0.2,0.5-0.6,0.5c-0.3,0-0.5-0.2-0.5-0.5s0.2-0.5,0.5-0.5C-126.3,132.5-126.1,132.7-126.1,133z     M-127.1,139.2v-4.8h0.9v4.8H-127.1z"/> 		<path d="M-124.8,135.7c0-0.5,0-0.9,0-1.3h0.8l0,0.8h0c0.2-0.4,0.8-0.9,1.6-0.9c0.7,0,1.7,0.4,1.7,2.1v2.9h-0.9v-2.8    c0-0.8-0.3-1.4-1.1-1.4c-0.6,0-1,0.4-1.2,0.9c0,0.1-0.1,0.3-0.1,0.4v2.9h-0.9V135.7z"/> 	</g> 	<line style="fill:none;stroke:#696969;stroke-width:2;stroke-miterlimit:10;" x1="-137.2" y1="161.3" x2="-137.2" y2="190.8"/> 	<g> 		<path d="M-129.5,171.7h0.9v7.1h-0.9V171.7z"/> 		<path d="M-126.1,172.6c0,0.3-0.2,0.5-0.6,0.5c-0.3,0-0.5-0.2-0.5-0.5s0.2-0.5,0.5-0.5C-126.3,172.1-126.1,172.3-126.1,172.6z     M-127.1,178.8V174h0.9v4.8H-127.1z"/> 		<path d="M-124.8,175.3c0-0.5,0-0.9,0-1.3h0.8l0,0.8h0c0.2-0.4,0.8-0.9,1.6-0.9c0.7,0,1.7,0.4,1.7,2.1v2.9h-0.9V176    c0-0.8-0.3-1.4-1.1-1.4c-0.6,0-1,0.4-1.2,0.9c0,0.1-0.1,0.3-0.1,0.4v2.9h-0.9V175.3z"/> 	</g> 	<rect x="-142.5" y="97.1" style="fill:#BFBFBF;" width="16.3" height="15.3"/> 	<rect x="-142.5" y="69.5" style="fill:#DCE9FB;" width="16.3" height="15.3"/> 	<g> 		<path d="M-117,106.5v-4.2h-0.7v-0.7h0.7v-0.2c0-0.7,0.2-1.3,0.6-1.7c0.3-0.3,0.8-0.4,1.2-0.4c0.3,0,0.6,0.1,0.7,0.1l-0.1,0.7    c-0.1-0.1-0.3-0.1-0.6-0.1c-0.7,0-0.9,0.6-0.9,1.4v0.3h1.2v0.7h-1.2v4.2H-117z"/> 		<path d="M-109.9,104c0,1.8-1.2,2.6-2.4,2.6c-1.3,0-2.3-1-2.3-2.5c0-1.6,1.1-2.6,2.4-2.6C-110.9,101.5-109.9,102.5-109.9,104z     M-113.8,104.1c0,1.1,0.6,1.9,1.5,1.9c0.8,0,1.5-0.8,1.5-1.9c0-0.8-0.4-1.8-1.4-1.8C-113.3,102.2-113.8,103.2-113.8,104.1z"/> 		<path d="M-108.8,102.9c0-0.5,0-0.9,0-1.3h0.8l0,0.8h0c0.2-0.4,0.8-0.9,1.6-0.9c0.7,0,1.7,0.4,1.7,2.1v2.9h-0.9v-2.8    c0-0.8-0.3-1.4-1.1-1.4c-0.6,0-1,0.4-1.2,0.9c0,0.1-0.1,0.3-0.1,0.4v2.9h-0.9V102.9z"/> 		<path d="M-103.4,105.6c0.3,0.2,0.7,0.3,1.2,0.3c0.6,0,0.9-0.3,0.9-0.7c0-0.4-0.3-0.6-0.9-0.9c-0.9-0.3-1.3-0.8-1.3-1.4    c0-0.8,0.6-1.4,1.7-1.4c0.5,0,0.9,0.1,1.2,0.3l-0.2,0.6c-0.2-0.1-0.5-0.3-1-0.3c-0.5,0-0.8,0.3-0.8,0.7c0,0.4,0.3,0.6,0.9,0.8    c0.8,0.3,1.3,0.7,1.3,1.4c0,0.9-0.7,1.5-1.8,1.5c-0.5,0-1-0.1-1.4-0.3L-103.4,105.6z"/> 	</g> 	<g> 		<path d="M-117.1,75.6c0-0.5,0-0.9,0-1.3h0.8l0,0.8h0c0.3-0.5,0.7-0.9,1.5-0.9c0.6,0,1.1,0.4,1.4,1h0c0.1-0.3,0.4-0.5,0.5-0.6    c0.3-0.2,0.6-0.3,1.1-0.3c0.6,0,1.6,0.4,1.6,2.1v2.8h-0.9v-2.7c0-0.9-0.3-1.5-1-1.5c-0.5,0-0.9,0.4-1,0.8c0,0.1-0.1,0.3-0.1,0.4v3    h-0.9v-2.9c0-0.8-0.3-1.3-1-1.3c-0.5,0-0.9,0.4-1.1,0.9c-0.1,0.1-0.1,0.3-0.1,0.4v2.9h-0.9V75.6z"/> 		<path d="M-105.4,78c0,0.4,0,0.8,0.1,1.2h-0.8l-0.1-0.6h0c-0.3,0.4-0.8,0.7-1.5,0.7c-1,0-1.5-0.7-1.5-1.4c0-1.2,1-1.8,2.9-1.8V76    c0-0.4-0.1-1.1-1.1-1.1c-0.5,0-0.9,0.1-1.3,0.4l-0.2-0.6c0.4-0.3,1-0.4,1.6-0.4c1.5,0,1.8,1,1.8,2V78z M-106.2,76.7    c-1,0-2,0.1-2,1.1c0,0.6,0.4,0.8,0.8,0.8c0.6,0,1-0.4,1.2-0.8c0-0.1,0-0.2,0-0.3V76.7z"/> 		<path d="M-103.9,75.8c0-0.6,0-1.1,0-1.5h0.8l0,1h0c0.2-0.6,0.8-1.1,1.3-1.1c0.1,0,0.2,0,0.2,0v0.8c-0.1,0-0.2,0-0.3,0    c-0.6,0-1.1,0.5-1.2,1.1c0,0.1,0,0.3,0,0.4v2.6h-0.9V75.8z"/> 	</g> 	<circle style="fill-rule:evenodd;clip-rule:evenodd;fill:#5B7EBD;" cx="-158.9" cy="139.2" r="2.4"/> 	<rect x="-167" y="97.1" style="fill:#BFBFBF;stroke:#696969;stroke-width:2;stroke-miterlimit:10;" width="16.3" height="15.3"/> 	<rect x="-191.8" y="97.1" style="fill:#FFFBF0;stroke:#9A9A9A;stroke-width:2;stroke-miterlimit:10;" width="16.3" height="15.3"/> 	<rect x="-188.9" y="50.5" style="opacity:0.7;fill:#FFFBF0;" width="92.8" height="9.6"/> </g> </svg>