<svg xmlns="http://www.w3.org/2000/svg" xmlns:xlink="http://www.w3.org/1999/xlink" version="1.1" x="0px" y="0px" width="450px" height="450px" viewBox="0 0 450 450" style="enable-background:new 0 0 450 450;" xml:space="preserve"> <g id="Capa_10"> 	<rect style="fill:#BFBFBF;" width="450" height="450"/> 	<a> 		<path style="fill:#BFBFBF;stroke:#696969;stroke-width:2;stroke-miterlimit:10;" d="M0,71.3l5,4.2c0,0,9.5-4.6,10.8-2.2    c1.5,2.8,0,10.2,0,10.2l11.7,12c-2,2.7-2.8,4.3-3.7,6.8c-1.7,4.9-1.6,11.1-3.5,10.7c-3-0.7-12.1,17.6-12.1,17.6l2.4,6.2    c0,0,6.1,3.8,9.2,4.2c2.4,0.2,11.1,0.8,11.1,0.8s4-2.1,8.8,5.4c2.2,3.4,2.9,4.3,2.9,4.3s5.7-5.2,15-11.1    c15.5-9.9,33.4-18.8,38.1-19.6c1.3-0.2,1.4-0.1,2.9,0c4.7,0.5,6.5,1.9,7.7,2.8c1.5,1.2,2.2,2.1,4.8,5.9c0,0,0.3,2.3,1.7,2    c0.1,0,1.4-1.1,1.5-1.1c3.7-0.9,9.5-2.9,13.6-5.3c2.5-1.5,4.1-3.5,4.8-4.7c0.5-0.8,0.8,0,0.1-4.4s-3-9.3-3.6-7.8s-4.6-0.5-4.6-0.5    s-15.1-14.4-13.4-14.5S107.4,82,112,81.3s1.5-3.5,6.9-7s22.3-12.5,22.6-11.1s-3.1-14.6,0.6-11.6s-2.9-1.2,5.6-2.4    s10.5-1.6,10.9-1.7s15.6-1.6,15.6-1.6s39.6,1.2,40.3,3.6s9.2,4,8,5.1s26.3,45.2,27.9,44.1s22.9,8.6,22.9,8.6l17.9,5.9    c0,0-3,4.3-1.6,4.6s3.8,8.2,6.8,7.5s10.5,4.7,11.5,2.6s8.4-1.7,7.6-4.4s0.1-11.7,0.1-11.7l2.5-6.6c0,0,8-4.6,8-3.7    s11.4-0.8,11.4-0.8s1.1-6.1,4.3-9.5c2.7-2.9,7.8-3.3,7.4-4.5c-0.7-2.7,12.9-4.9,12.9-4.9s9.4-10.6,7.6-11.9S376,59,376,59l6.9-8.6    l9.7-4.5c0,0,2.8-6.8,1.8-8s-3.1-7.8-3.3-7.9s-9.3-6-9.3-6l-10.4-11.8L356-9L-4-13.3l1,80C-3,66.7-6.2,68.2,0,71.3"/> 	</a> 	<path style="fill:#BFBFBF;stroke:#696969;stroke-width:2;stroke-miterlimit:10;" d="M109.2,249.7c0,0-11.5,8.8-11.4,14.5   c0.1,6,1.7,7,7.9,18.9"/> 	<a> 		<path style="fill:#BFBFBF;stroke:#696969;stroke-width:2;stroke-miterlimit:10;" d="M109.2,249.7c0,0-5.4,4.9-8.6,10    c-1.6,2.6-2.7,5.3-2.1,7.4c3.2,11.9,14.9,29.1,14.8,31.1c-0.1,2.8,0.8,4,0.8,4s5.9-1.3,8.5-0.5l7.4,4.5l3.7,5.1l-5.1,16l0.6,2.1    c0,0,2.7,3.2,2.8,3.2s13.6,6.2,13.9,6.2s3.1,2.6,3.1,2.6s5.2-6.4,4.9-6.6c0,0-2.4-2,4.4-4.9s5.8,10,7.9,13.6c0,0-3.4,5.3-3.9,5.7    s-3.7,3.7-3.7,3.7s6-0.1,6.3,6.1s-4,10.9-4,10.9l-27.6,6.4c0,0-9.1,3-12,10s-4.7,10.8-4,12.7s-0.3,6.3,6.3,8.8s21.5,3.6,21.5,3.6    s6.8,2.1,9.2,6.5s1.4,3.9,1.2,4s4.1,3,7.5,1.4s6.8-0.7,8.4-7s10.1-9.9,9.9-8.9s0,3.8,0.1,4s2.9,7.3,2.3,10.4s1.1,12.7,1.2,12.9    s0.1,4,0.1,4s-3.8-0.5-5.3,0.6s-0.5,12.8-0.1,13.5s-0.3,2.1-0.3,2.1L-23,461l-6.5-387.9l23.5-4l11,6.4l10.1-2.1l-0.3,9.8    c0,0,14.7,11.2,11.9,12.7s-3,14.3-6.4,17s-12,17.3-12,17.3s2,8.4,6.7,9.6s15.9,2,15.9,2l-7.4,5.6c0,0-7.2-2-6-2.8s-4.3,8-1.8,9.8    s4.4,5.6,6.7,4.8s0,4.5,0,4.5l6.4,18.4L28,187c0,0-6.4,5.7-5.6,7.9s-0.5,10.6-0.4,11.3s1.5,5.7,2.2,5.3s10.1-8.7,10.1-8.7l15-6.5    c0,0,15.4,7.1,14.9,7.9s9.6,0.5,16.3,8.8s3.5,12.4,10.6,17.2c6.8,4.6,19,14.6,22.5,15.9c0.1,0,1.7,0.8,1.8,0.8l-3.5,1.3    L109.2,249.7"/> 	</a> 	<a> 		<path style="fill:#BFBFBF;stroke:#696969;stroke-width:2;stroke-miterlimit:10;" d="M202.6,458.3l-23-2.9c0,0-0.3-12.4-0.5-15.2    c-0.1-1.7,4.7-0.3,5.3-0.8c2.4-2.3,0.7-6.8,0.4-8.8c-0.6-5.1-3-24-4.2-22.1s10.7-7.3,14.2-8.9s13.5-4,14.2-10.8    c0.2-2-2.8-2.6-1.5-5c3.2-5.9,12.7-14,16.8-17.6c5.8-5,7.4-17.4,10.2-21.1s7.9-9.4,8.2-14.1s-2-4.4-0.5-6.8s6.2-5.4,11.6-4.7    s24.2,8.1,23.7,9.2s8.7-7.8,8.7-7.8l10.9-3.2c0,0-2.2-4.4,0.6-6.4s7.6-3.6,7.1-8.9s-6.4-8.3,2.3-12.4s7.3-6.9,11.7-6.9    s6.2,6.6,11.8,7.6s26.6,2.8,26.6,2.8s7,2.7,7.6,2.4s3.8-3.2,3.8-3.2s10.4,7.5,12.7,7.2s7.6-3.5,7.6-3.5s-4.6,21.2,0.6,23.7    s20.6,6.1,21.3,12.2s-4.4,11.9-1.7,14.7s12.5,2.1,14.6-0.2s12.7,0.4,12.7,0.4s12.1-1.4,13.7-3.8s17.5,0.6,17.5,0.6l-3.7,36.5    l-14.1,1.6c0,0-59.7,26.1-58.7,27s-16.5-2.3-19.4-1.3s-7,1.8-6.2,2.5s-0.3-1.8-4.4-1.5s-0.4-0.1-0.5,0.3s-4.5-2.5-4.9-1.6    s0.3-0.9-5.5,2.4s-5.2,0.1-11,4.6s-11.2,8.8-13.7,9.3s-37.7,11.2-42.3,10.5s-7.2-0.1-7.4-1.4s1.6,5.2,0,6s-1.6-0.7-1.6-1.3    s0.6-4.3,0.4-4.6s-1.5,2.9-1.1,3.2s-2-3.2-3.8-2s-1.8,1.5-1.8,1.5s2.3,0.1,2.2,0.7s-0.7,6.9-1.3,7.1s-0.8-2.5-4.6-2.4    s-6.6-0.4-11.2,0.7s-11.9,2.1-14.4,3s-16.7,4.3-16.4,4.8S202.6,456.2,202.6,458.3"/> 	</a> 	<path style="fill:#BFBFBF;stroke:#696969;stroke-width:2;stroke-miterlimit:10;" d="M105.7,283.1"/> </g> <g id="Capa_9"> 	<a> 		<path style="fill:#BFBFBF;stroke:#696969;stroke-width:2;stroke-miterlimit:10;" d="M363.1,0c0,0,13.2,20.5,19.2,24.5    s11.6,4.7,12.3,14.6s-6.4,7.3-11,11.2c-0.8,0.7-2.8,1-3.7,2c-1.3,1.4-1.9,6-2.3,7.2c-1,2.8,1.2,1.9,1.2,1.9s9.7,9.8,13.4,13.1    s11.3,5.1,15,12.2s4.2,17.3,7.5,25.1s20.2,24.6,20.6,31.7s-8.6,6.1-8.4,11.7s1.7,7.2-0.1,9.8s-5.6,4.4-4.7,7s3.6,5.2,2,7.2    s-6.1,2.4-7.4,5.3s1.1,16.6-1.4,18.9s-8.2,4.9-7.2,8.5s16.9,12.3,20.1,18.8s8.7,19.3,8.7,19.3l-13.6,14.3c0,0-11.2-2.1-12.6,0.7    s0.7,4.6-0.3,5.9S388.5,297,388.5,297l-0.2,3.5c0,0-3.5,17.8,1.3,20.8s21.1,5.1,20.8,11.6s-5.8,16.5,2.5,17.9s7.8-2.1,13-3.2    s13.8,1.5,17.5,0s22.7-10.5,22.7-10.5l2.1-341.4L369.9-9L363.1,0"/> 	</a> </g> <g id="Mar"> 	<path style="fill:#DCE9FB;" d="M456,464c0,0-200.1-4.7-254.3-4.7c2.8-5.3,65.1-24.7,66.5-14.9c-0.1-0.4,4.2-9.4-1.1-7.9   c2.2-2.5,4.2-2.2,5.8,0.7c-0.1-1.3,0.3-2.4,1.1-3.4c-2.1,11.3,4.4,5,1.3-0.1c7.3,5.6,39.1-7.5,48-8.8c5.8-0.8,10.6-6.9,16.7-10.5   c3.5-2.1,8.1-2.5,11.3-4.6c6.1-4.1,7.3,1.3,13.1,0.8c-2.4,2-3.6,1.6-3.7-1c2.5,0,7,0.5,2.5,3.5c6.4-8.7,18.9-2.4,27.5-3.2   c1.5-0.1,68.8-36.1,68-27.1C458.7,382.5,456,464,456,464z"/> </g> <g id="Limit_comarcal"> 	<a> 		<path style="fill:#BFBFBF;stroke:#696969;stroke-width:2;stroke-miterlimit:10;" d="M361.5-2c8.4,9.9,12.8,23.7,28.4,31.2    c4.3,2.1,6.9,15.4,3.2,18c-7.1,5-13.5-0.8-15.4,12.2"/> 	</a> 	<path style="fill:none;stroke:#696969;stroke-width:2;stroke-miterlimit:10;" d="M179.3,407.9c3.8,4.8,4.2,15.2,4.7,21.4   c0.7,10.8,0.9,9.3-0.5,10.1c-7.7-1.7-4.3,5.2-4.2,10.6"/> 	<path style="fill:none;stroke:#696969;stroke-width:2;stroke-miterlimit:10;" d="M452,340c-5,13.2-18.6,4.5-27.5,6.8   c-2.9,0.8-2.5,4.9-10.2,4.3c-7.8-0.6-5.7-5.3-4.3-11.6c2.9-12.9-6.6-12.5-14.3-14.7c-16-4.5-2.8-19.8-9-27.8"/> </g> <g id="Limit_municipis"> 	<a> 		<path style="fill:#FFFBF0;stroke:#9A9A9A;stroke-width:2;stroke-miterlimit:10;" d="M229,235.1c-3.2,7.5-12,10.2-13,18.4    c-1.1,8.5-11.7,5.5-16.5,9c-2.5,1.9-14.5,5.6-20.8,11.6c-1.9-9.3-29.9-36.3-38.3-35.9c-5.3,0.2-14.7,12.1-18.2,11.4    c-6.6-1.4-26.5-12.6-33.3-22c-7-9.6-7.5-21-22.5-22.9c-8.5-1.1-8.2-6.4-14.9-8.4c-3.1-1-8.1,4.1-11.9,4.8    c-6.8,1.3-9.6,5.3-14.6,10.1c-3.6,3.5-5.2-19.6,1-22.6c10.1-4.9-7.8-20.3-2.3-29.4c-8.2,0.1-10.8-8.7-6-14.6    c6.9,8.4,7.2-1.8,13.5-2.8c6.2-1,8.2,5.1,11.7,9.7c9.7-10.6,46.5-29.1,51-30.3c7.5-2.1,16.9,2.9,18.2,10.5c7.5-3.5,23-6,21.1-15    c-1.4-6.8,0-8.8-7-8.9c-4.3,0-8.6-7.1-11.4-10C98.1,80.4,129.1,67.3,142.2,63c-4.4-6-2.2-15.4,8.3-12.8c0.6-4.3,66.4-9.7,72.8,6    c6.3,15.6,14.4,25.4,23.9,37.9c8.6,11.2-3.7,22.9-1.5,36.6c-2.9-1.6-11.5-3-13.3-0.8c-0.3-1.9-11.8,10.2-11.9,18.6    c2.3,5.8,8.1,17.1,24.2,18.5c-0.4,11.2,1,24,1,34.2c0,7.1-4.3,10.5-8.6,15.9c-2.2,2.8-3.1,9.3-4.9,13.9    C231.5,232.9,229.5,233.8,229,235.1z"/> 	</a> 	<a> 		<path style="fill:#FFFBF0;stroke:#9A9A9A;stroke-width:2;stroke-miterlimit:10;" d="M437.1,250c-1.7,5.5-10.4,12.3-15.5,14.5    c-3.6-0.1-7.2,0.1-10.7,0.5c-4.2,2.3,2.1,5.1-1.3,7.2c-7.9,5-21.9,36.2-33.4,26.4c-2.4-2.2-5.2-3.6-8.3-4.3    c-6.5,5.1-3.1,0.7-9.2,0c-8.7-0.9-18.3-1-26.8-2.5c-3.9-0.7-8.3-6.1-12.4-7.4c-4.2-1.4-6.8,3.4-10.1,5c-4.8,2.3-8.8-18-1.3-22.8    c8.6-5.5-6.4-11.8-7.9-15.6c-2.1-5.4,17.3-8.8,0.3-16.2c-12.2-5.3-18.1-7.2-27.5,2.7c-3.4-3.5-17.3-2.1-22.8-4.6    c-3-1.6-6-3.2-8.9-5c-2.8-1.5-5.9,2.1-7.8,1c-4-2.3,8-17.5,8.8-18.4c6.4-6.6,2.7-24.1,2.3-32.2c-0.2-3.4-0.9-7.9,0.3-11.2    c-8.1-0.7-15.2-5.4-20.6-11.1c-10.2-10.8,7.6-27.7,8.4-25.9c2.2-1.9,10.2-0.4,13.3,0.8c-1.7-11,5.6-20.2,5.8-31    c13.4,3.7,26,9.8,39.5,13.4c-9.5,12.1,25.9,21.7,24.4,8c-1.9-17.3,3-20.3,21.9-20.5c-2.3-3.9,8-17.3,22.8-17.9    c10-0.4,8-19.7,15.9-23.7c0.9-0.5,18.1,18.2,22.5,20.6c20.2,10.7,9.3,27.8,22,43.6c4.4,5.5,9.5,10.7,13.2,16.6    c5,8.1-1.3,9-5.8,14.1c-3.9,4.4,2.8,8-2.8,13.7c-6.9,7.1,0.8,6.2-0.8,11.6c-1.1,2.2-2.9,3.4-5.3,3.8c-5.5,2-3.7,10.6-3.2,14.7    c1.2,10.6-4.7,5.5-7.9,12.7c-2.6,5.9,12.8,12.8,16,15.3C431.6,231.6,432.1,242.3,437.1,250C435.9,253.7,437.1,250,437.1,250z"/> 	</a> 	<a> 		<path style="fill:#FFFBF0;stroke:#9A9A9A;stroke-width:2;stroke-miterlimit:10;" d="M200.8,261.5c16-0.7,15.8-14.6,26.2-24.6    c5-4.8,10-11.2,16.8-7.5c11.1,6.1,25.5,4.5,28.9,8.1c4.9-5.2,8.3-10.3,15.1-7.5c8.4,3.4,19.3,5,20.6,13.9    c-3.2,1.7-6.4,3.4-9.7,5.1c2.2,3.5,0.7,1.7,2.1,5.4c4.5,0.1,5.8,2,8,5.4c3.6,5.8,1.9,6.1-3.5,9.9c-4.1,2.9-1.6,17.5,1.9,20.8    c-9.9,4.4-1.2,9.7-3,15c-1.9,5.6-11.5,5.5-7.1,12.5c-3.6,4-10.1,1.1-12.2,4.6c-2.2,3.6-5.3,5.6-7.9,6.8    c-9.2-4.7-18.7-11.7-29.6-8.3c-2.9,0.9-4.4,0.6-5.5,3.3c-1.8,4.3,0.9,6.5,0.3,8.4c-1.7,5.5-6,9.9-9.4,14.6    c-0.5,0.7-3.5,10.9-3.5,11.2c0.6,3.8-9.1,11.2-11.6,14c-2,2.2-8,8.6-8.8,10.6c-2,4.8,2.5,9.9-4.6,12.8c-11.8,4.8-21,8.7-30.7,16.8    c-5.3,4.4-1,9-9,10.3c-3.1,0.5-4.1,1.2-6.7-0.1c-6.6-3.3-2-4.6-5.3-7.6c-9.9-8.9-24.1-1.6-32.6-10.2c-8.2-8.3,3.6-25.9,12.8-28.9    c3.6-0.6,27-2.6,28.1-6.3c1.1-3.7,5.4-6.7,4.4-9.8c-1.3-3.8-3.3-6.2-6.6-7.7c10.3-8.4,3.7-25.3-2.2-22c-4.2,2.3-4.5,17.2-10.4,8.5    c-1.8,0.8-14.5-5.6-15.5-6.9c-4.5-5.7-1.1-8.4,2.4-16.6c3.7-8.8-12.5-15.7-19.3-13.7c-0.8-10.7-15.9-27.6-15.9-37.2    c0.5-9,19-21.8,20.5-16.2c1.2,4.5,16.7-7.5,19.2-9.4c7.7-5.6,39.4,26.9,41.1,35.2C184.9,268.1,195.9,264.9,200.8,261.5    L200.8,261.5z"/> 	</a> </g> <g id="text_x005F_exterior"> 	<g> 		<rect x="27.4" y="325.4" style="fill-rule:evenodd;clip-rule:evenodd;fill:none;" width="70.9" height="11"/> 		<path d="M40.6,330.2h-2.3v5.9h-1.9v-5.9h-2.3v-1.4h6.4V330.2z"/> 		<path d="M44.9,335.5c-0.1,0.1-0.2,0.2-0.4,0.3s-0.3,0.2-0.4,0.2c-0.2,0.1-0.4,0.1-0.5,0.2c-0.2,0-0.4,0.1-0.6,0.1    c-0.5,0-1-0.2-1.3-0.5s-0.5-0.7-0.5-1.2c0-0.4,0.1-0.7,0.3-1s0.4-0.5,0.8-0.6c0.3-0.1,0.7-0.3,1.2-0.3s1-0.1,1.5-0.1v0    c0-0.3-0.1-0.5-0.4-0.6c-0.2-0.1-0.6-0.2-1.1-0.2c-0.3,0-0.6,0.1-0.9,0.2c-0.3,0.1-0.6,0.2-0.7,0.2h-0.2v-1.3    c0.2,0,0.5-0.1,0.9-0.2c0.4-0.1,0.8-0.1,1.3-0.1c1,0,1.7,0.2,2.2,0.5c0.4,0.3,0.7,0.8,0.7,1.4v3.7h-1.7V335.5z M44.9,334.7v-1.1    c-0.2,0-0.5,0-0.8,0.1s-0.5,0.1-0.6,0.1c-0.2,0.1-0.3,0.1-0.4,0.2s-0.1,0.2-0.1,0.4c0,0.1,0,0.2,0,0.3s0.1,0.1,0.1,0.2    c0.1,0.1,0.2,0.1,0.3,0.1c0.1,0,0.3,0,0.5,0c0.2,0,0.4,0,0.5-0.1C44.6,334.9,44.8,334.8,44.9,334.7z"/> 		<path d="M52.2,332.3h-0.2c-0.1,0-0.2,0-0.4-0.1c-0.2,0-0.3,0-0.4,0c-0.3,0-0.5,0-0.7,0c-0.2,0-0.4,0.1-0.6,0.2v3.7h-1.8v-5.5H50    v0.8c0.4-0.3,0.7-0.6,1-0.7c0.3-0.1,0.5-0.2,0.8-0.2c0.1,0,0.1,0,0.2,0s0.1,0,0.2,0V332.3z"/> 		<path d="M57.2,332.3h-0.2c-0.1,0-0.2,0-0.4-0.1c-0.2,0-0.3,0-0.4,0c-0.3,0-0.5,0-0.7,0c-0.2,0-0.4,0.1-0.6,0.2v3.7h-1.8v-5.5H55    v0.8c0.4-0.3,0.7-0.6,1-0.7c0.3-0.1,0.5-0.2,0.8-0.2c0.1,0,0.1,0,0.2,0s0.1,0,0.2,0V332.3z"/> 		<path d="M61.5,335.5c-0.1,0.1-0.2,0.2-0.4,0.3s-0.3,0.2-0.4,0.2c-0.2,0.1-0.4,0.1-0.5,0.2c-0.2,0-0.4,0.1-0.6,0.1    c-0.5,0-1-0.2-1.3-0.5s-0.5-0.7-0.5-1.2c0-0.4,0.1-0.7,0.3-1s0.4-0.5,0.8-0.6c0.3-0.1,0.7-0.3,1.2-0.3s1-0.1,1.5-0.1v0    c0-0.3-0.1-0.5-0.4-0.6c-0.2-0.1-0.6-0.2-1.1-0.2c-0.3,0-0.6,0.1-0.9,0.2c-0.3,0.1-0.6,0.2-0.7,0.2h-0.2v-1.3    c0.2,0,0.5-0.1,0.9-0.2c0.4-0.1,0.8-0.1,1.3-0.1c1,0,1.7,0.2,2.2,0.5c0.4,0.3,0.7,0.8,0.7,1.4v3.7h-1.7V335.5z M61.5,334.7v-1.1    c-0.2,0-0.5,0-0.8,0.1s-0.5,0.1-0.6,0.1c-0.2,0.1-0.3,0.1-0.4,0.2s-0.1,0.2-0.1,0.4c0,0.1,0,0.2,0,0.3s0.1,0.1,0.1,0.2    c0.1,0.1,0.2,0.1,0.3,0.1c0.1,0,0.3,0,0.5,0c0.2,0,0.4,0,0.5-0.1C61.2,334.9,61.4,334.8,61.5,334.7z"/> 		<path d="M70.2,335.5c0,0.5-0.1,0.9-0.2,1.3s-0.4,0.6-0.6,0.8c-0.3,0.2-0.6,0.3-1,0.4c-0.4,0.1-0.8,0.1-1.3,0.1    c-0.4,0-0.8,0-1.1-0.1s-0.7-0.1-1-0.2v-1.4h0.2c0.2,0.1,0.5,0.2,0.8,0.2c0.3,0.1,0.6,0.1,0.8,0.1c0.3,0,0.6,0,0.8-0.1    c0.2-0.1,0.4-0.1,0.5-0.3c0.1-0.1,0.2-0.2,0.2-0.4s0.1-0.4,0.1-0.6v-0.1c-0.2,0.2-0.4,0.3-0.7,0.4s-0.5,0.2-0.9,0.2    c-0.8,0-1.4-0.2-1.8-0.7c-0.4-0.5-0.6-1.2-0.6-2.1c0-0.5,0.1-0.8,0.2-1.2c0.1-0.3,0.3-0.6,0.5-0.9c0.2-0.2,0.5-0.4,0.8-0.5    c0.3-0.1,0.6-0.2,1-0.2c0.3,0,0.6,0,0.8,0.1c0.2,0.1,0.5,0.2,0.7,0.3l0.1-0.2h1.7V335.5z M68.5,334.4v-2.5c-0.1,0-0.2-0.1-0.4-0.1    c-0.1,0-0.3,0-0.4,0c-0.5,0-0.8,0.1-1,0.4c-0.2,0.3-0.3,0.6-0.3,1.1c0,0.5,0.1,0.9,0.3,1.1c0.2,0.2,0.5,0.3,0.9,0.3    c0.2,0,0.3,0,0.5-0.1S68.3,334.5,68.5,334.4z"/> 		<path d="M77.5,333.4c0,0.9-0.3,1.6-0.8,2.1c-0.5,0.5-1.3,0.8-2.2,0.8s-1.7-0.3-2.2-0.8c-0.5-0.5-0.8-1.2-0.8-2.1    c0-0.9,0.3-1.6,0.8-2.1s1.3-0.8,2.2-0.8c1,0,1.7,0.3,2.2,0.8S77.5,332.5,77.5,333.4z M75.3,334.7c0.1-0.1,0.2-0.3,0.3-0.5    c0.1-0.2,0.1-0.5,0.1-0.8c0-0.3,0-0.6-0.1-0.8s-0.1-0.4-0.2-0.5c-0.1-0.1-0.2-0.2-0.4-0.3s-0.3-0.1-0.5-0.1s-0.3,0-0.5,0.1    s-0.3,0.1-0.4,0.3c-0.1,0.1-0.2,0.3-0.3,0.5s-0.1,0.5-0.1,0.8c0,0.3,0,0.6,0.1,0.8c0.1,0.2,0.1,0.4,0.2,0.5    c0.1,0.1,0.2,0.2,0.4,0.3s0.3,0.1,0.5,0.1c0.2,0,0.3,0,0.5-0.1C75.1,334.9,75.2,334.8,75.3,334.7z"/> 		<path d="M84.3,336.1h-1.8v-2.7c0-0.2,0-0.4,0-0.7c0-0.2-0.1-0.4-0.1-0.5c-0.1-0.1-0.2-0.2-0.3-0.3s-0.3-0.1-0.5-0.1    c-0.2,0-0.3,0-0.5,0.1s-0.3,0.1-0.5,0.2v3.9h-1.8v-5.5h1.8v0.6c0.3-0.2,0.6-0.4,0.9-0.6c0.3-0.1,0.6-0.2,1-0.2    c0.6,0,1.1,0.2,1.4,0.5c0.3,0.3,0.5,0.9,0.5,1.5V336.1z"/> 		<path d="M89.2,335.5c-0.1,0.1-0.2,0.2-0.4,0.3s-0.3,0.2-0.4,0.2c-0.2,0.1-0.4,0.1-0.5,0.2c-0.2,0-0.4,0.1-0.6,0.1    c-0.5,0-1-0.2-1.3-0.5s-0.5-0.7-0.5-1.2c0-0.4,0.1-0.7,0.3-1s0.4-0.5,0.8-0.6c0.3-0.1,0.7-0.3,1.2-0.3s1-0.1,1.5-0.1v0    c0-0.3-0.1-0.5-0.4-0.6c-0.2-0.1-0.6-0.2-1.1-0.2c-0.3,0-0.6,0.1-0.9,0.2c-0.3,0.1-0.6,0.2-0.7,0.2h-0.2v-1.3    c0.2,0,0.5-0.1,0.9-0.2c0.4-0.1,0.8-0.1,1.3-0.1c1,0,1.7,0.2,2.2,0.5c0.4,0.3,0.7,0.8,0.7,1.4v3.7h-1.7V335.5z M89.2,334.7v-1.1    c-0.2,0-0.5,0-0.8,0.1s-0.5,0.1-0.6,0.1c-0.2,0.1-0.3,0.1-0.4,0.2s-0.1,0.2-0.1,0.4c0,0.1,0,0.2,0,0.3s0.1,0.1,0.1,0.2    c0.1,0.1,0.2,0.1,0.3,0.1c0.1,0,0.3,0,0.5,0c0.2,0,0.4,0,0.5-0.1C88.9,334.9,89.1,334.8,89.2,334.7z"/> 	</g> 	<g> 		<path d="M307.9,365.9c-0.3,0.1-0.8,0.3-1.3,0.4c-0.5,0.1-1.1,0.2-1.6,0.2c-1.2,0-2.2-0.3-2.9-1c-0.7-0.7-1-1.6-1-2.8    c0-1.1,0.4-2,1.1-2.7c0.7-0.7,1.7-1,3-1c0.5,0,0.9,0,1.4,0.1c0.4,0.1,0.9,0.3,1.4,0.5v1.7h-0.2c-0.1-0.1-0.2-0.2-0.4-0.3    c-0.2-0.1-0.3-0.2-0.5-0.3c-0.2-0.1-0.4-0.2-0.7-0.3s-0.5-0.1-0.8-0.1c-0.3,0-0.6,0-0.9,0.1c-0.3,0.1-0.5,0.2-0.7,0.4    c-0.2,0.2-0.4,0.4-0.5,0.7c-0.1,0.3-0.2,0.6-0.2,1c0,0.8,0.2,1.4,0.6,1.8c0.4,0.4,1.1,0.6,1.9,0.6c0.1,0,0.2,0,0.2,0s0.2,0,0.2,0    v-1.4h-1.5v-1.4h3.4V365.9z"/> 		<path d="M312.8,365.7c-0.1,0.1-0.2,0.2-0.4,0.3s-0.3,0.2-0.4,0.2c-0.2,0.1-0.4,0.1-0.5,0.2c-0.2,0-0.4,0.1-0.6,0.1    c-0.5,0-1-0.2-1.3-0.5s-0.5-0.7-0.5-1.2c0-0.4,0.1-0.7,0.3-1s0.4-0.5,0.8-0.6c0.3-0.1,0.7-0.3,1.2-0.3s1-0.1,1.5-0.1v0    c0-0.3-0.1-0.5-0.4-0.6c-0.2-0.1-0.6-0.2-1.1-0.2c-0.3,0-0.6,0.1-0.9,0.2s-0.6,0.2-0.7,0.2h-0.2v-1.3c0.2,0,0.5-0.1,0.9-0.2    c0.4-0.1,0.8-0.1,1.3-0.1c1,0,1.7,0.2,2.2,0.5s0.7,0.8,0.7,1.4v3.7h-1.7V365.7z M312.8,364.9v-1.1c-0.2,0-0.5,0-0.8,0.1    c-0.3,0-0.5,0.1-0.6,0.1c-0.2,0.1-0.3,0.1-0.4,0.2s-0.1,0.2-0.1,0.4c0,0.1,0,0.2,0,0.3c0,0.1,0.1,0.1,0.1,0.2    c0.1,0.1,0.2,0.1,0.3,0.1c0.1,0,0.3,0,0.5,0c0.2,0,0.4,0,0.5-0.1C312.5,365.1,312.7,365,312.8,364.9z"/> 		<path d="M320.2,362.5H320c-0.1,0-0.2,0-0.4-0.1c-0.2,0-0.3,0-0.4,0c-0.3,0-0.5,0-0.7,0s-0.4,0.1-0.6,0.2v3.7h-1.8v-5.5h1.8v0.8    c0.4-0.3,0.7-0.6,1-0.7c0.3-0.1,0.5-0.2,0.8-0.2c0.1,0,0.1,0,0.2,0s0.1,0,0.2,0V362.5z"/> 		<path d="M325.1,362.5H325c-0.1,0-0.2,0-0.4-0.1c-0.2,0-0.3,0-0.4,0c-0.3,0-0.5,0-0.7,0s-0.4,0.1-0.6,0.2v3.7h-1.8v-5.5h1.8v0.8    c0.4-0.3,0.7-0.6,1-0.7c0.3-0.1,0.5-0.2,0.8-0.2c0.1,0,0.1,0,0.2,0s0.1,0,0.2,0V362.5z"/> 		<path d="M329.4,365.7c-0.1,0.1-0.2,0.2-0.4,0.3s-0.3,0.2-0.4,0.2c-0.2,0.1-0.4,0.1-0.5,0.2c-0.2,0-0.4,0.1-0.6,0.1    c-0.5,0-1-0.2-1.3-0.5s-0.5-0.7-0.5-1.2c0-0.4,0.1-0.7,0.3-1c0.2-0.3,0.4-0.5,0.8-0.6c0.3-0.1,0.7-0.3,1.2-0.3    c0.5-0.1,1-0.1,1.5-0.1v0c0-0.3-0.1-0.5-0.4-0.6c-0.2-0.1-0.6-0.2-1.1-0.2c-0.3,0-0.6,0.1-0.9,0.2s-0.6,0.2-0.7,0.2h-0.2v-1.3    c0.2,0,0.5-0.1,0.9-0.2c0.4-0.1,0.8-0.1,1.3-0.1c1,0,1.7,0.2,2.2,0.5s0.7,0.8,0.7,1.4v3.7h-1.7V365.7z M329.4,364.9v-1.1    c-0.2,0-0.5,0-0.8,0.1c-0.3,0-0.5,0.1-0.6,0.1c-0.2,0.1-0.3,0.1-0.4,0.2s-0.1,0.2-0.1,0.4c0,0.1,0,0.2,0,0.3    c0,0.1,0.1,0.1,0.1,0.2c0.1,0.1,0.2,0.1,0.3,0.1c0.1,0,0.3,0,0.5,0c0.2,0,0.4,0,0.5-0.1C329.1,365.1,329.3,365,329.4,364.9z"/> 		<path d="M336.4,360h-0.1c-0.1,0-0.2,0-0.3-0.1s-0.3,0-0.4,0c-0.3,0-0.6,0.1-0.7,0.2s-0.2,0.4-0.2,0.7v0h1.4v1.2h-1.3v4.3h-1.8V362    h-0.8v-1.2h0.8v-0.2c0-0.7,0.2-1.2,0.5-1.5s0.9-0.5,1.6-0.5c0.3,0,0.5,0,0.7,0c0.2,0,0.4,0,0.6,0.1V360z"/> 	</g> 	<g> 		<path d="M414,56.8c0,0.4-0.1,0.7-0.2,0.9s-0.3,0.5-0.6,0.7c-0.3,0.2-0.6,0.4-0.9,0.5S411.5,59,411,59h-3.2v-7.3h2.8    c0.6,0,1,0,1.3,0.1s0.5,0.1,0.8,0.3c0.3,0.1,0.5,0.3,0.6,0.6s0.2,0.5,0.2,0.8c0,0.4-0.1,0.7-0.3,0.9s-0.4,0.5-0.8,0.6v0    c0.5,0.1,0.9,0.3,1.1,0.6S414,56.3,414,56.8z M411.6,53.8c0-0.1,0-0.2-0.1-0.4s-0.2-0.2-0.3-0.3c-0.1-0.1-0.3-0.1-0.5-0.1    s-0.5,0-0.9,0h-0.2v1.5h0.3c0.3,0,0.5,0,0.8,0c0.2,0,0.4,0,0.5-0.1c0.2-0.1,0.3-0.2,0.3-0.3C411.6,54.1,411.6,54,411.6,53.8z     M412.1,56.8c0-0.2,0-0.4-0.1-0.5c-0.1-0.1-0.2-0.2-0.5-0.3c-0.1,0-0.3-0.1-0.6-0.1s-0.5,0-0.8,0h-0.4v1.8h0.1c0.5,0,0.9,0,1.1,0    s0.4,0,0.6-0.1c0.2-0.1,0.3-0.2,0.4-0.3S412.1,57,412.1,56.8z"/> 		<path d="M418.6,58.5c-0.1,0.1-0.2,0.2-0.4,0.3c-0.1,0.1-0.3,0.2-0.4,0.2c-0.2,0.1-0.4,0.1-0.5,0.2c-0.2,0-0.4,0.1-0.6,0.1    c-0.5,0-1-0.2-1.3-0.5s-0.5-0.7-0.5-1.2c0-0.4,0.1-0.7,0.3-1c0.2-0.3,0.4-0.5,0.8-0.6c0.3-0.1,0.7-0.3,1.2-0.3    c0.5-0.1,1-0.1,1.5-0.1v0c0-0.3-0.1-0.5-0.4-0.6c-0.2-0.1-0.6-0.2-1.1-0.2c-0.3,0-0.6,0.1-0.9,0.2c-0.3,0.1-0.6,0.2-0.7,0.2h-0.2    v-1.3c0.2,0,0.5-0.1,0.9-0.2c0.4-0.1,0.8-0.1,1.3-0.1c1,0,1.7,0.2,2.2,0.5s0.7,0.8,0.7,1.4V59h-1.7V58.5z M418.6,57.6v-1.1    c-0.2,0-0.5,0-0.8,0.1c-0.3,0-0.5,0.1-0.6,0.1c-0.2,0.1-0.3,0.1-0.4,0.2s-0.1,0.2-0.1,0.4c0,0.1,0,0.2,0,0.3    c0,0.1,0.1,0.1,0.1,0.2c0.1,0.1,0.2,0.1,0.3,0.1c0.1,0,0.3,0,0.5,0c0.2,0,0.4,0,0.5-0.1C418.3,57.8,418.5,57.7,418.6,57.6z"/> 		<path d="M423.8,52.8h-1.9v-1.3h1.9V52.8z M423.7,59H422v-5.5h1.8V59z"/> 		<path d="M431.1,59h-2.1l-1.2-1.6l-1.2,1.6h-2l2.2-2.7l-2.1-2.7h2.1l1.2,1.6l1.2-1.6h2l-2.1,2.7L431.1,59z"/> 		<path d="M398.5,70h-5.2v-7.3h1.9v5.9h3.4V70z"/> 		<path d="M401.3,70h-1.8v-7.6h1.8V70z"/> 		<path d="M408.5,67.3c0,0.9-0.3,1.6-0.8,2.1c-0.5,0.5-1.3,0.8-2.2,0.8c-1,0-1.7-0.3-2.2-0.8c-0.5-0.5-0.8-1.2-0.8-2.1    c0-0.9,0.3-1.6,0.8-2.1s1.3-0.8,2.2-0.8c1,0,1.7,0.3,2.2,0.8C408.3,65.7,408.5,66.4,408.5,67.3z M406.4,68.6    c0.1-0.1,0.2-0.3,0.3-0.5c0.1-0.2,0.1-0.5,0.1-0.8c0-0.3,0-0.6-0.1-0.8c-0.1-0.2-0.1-0.4-0.2-0.5c-0.1-0.1-0.2-0.2-0.4-0.3    c-0.1-0.1-0.3-0.1-0.5-0.1c-0.2,0-0.3,0-0.5,0.1c-0.1,0-0.3,0.1-0.4,0.3c-0.1,0.1-0.2,0.3-0.3,0.5c-0.1,0.2-0.1,0.5-0.1,0.8    c0,0.3,0,0.6,0.1,0.8c0.1,0.2,0.1,0.4,0.2,0.5c0.1,0.1,0.2,0.2,0.4,0.3s0.3,0.1,0.5,0.1c0.2,0,0.3,0,0.5-0.1    S406.3,68.8,406.4,68.6z"/> 		<path d="M415.5,67.2c0,0.9-0.2,1.6-0.7,2.1c-0.5,0.5-1.1,0.8-1.8,0.8c-0.3,0-0.6,0-0.8-0.1c-0.2-0.1-0.5-0.2-0.7-0.3l-0.1,0.3    h-1.7v-7.6h1.8v2.7c0.3-0.2,0.5-0.4,0.8-0.5c0.3-0.1,0.6-0.2,1-0.2c0.7,0,1.2,0.3,1.6,0.7C415.3,65.7,415.5,66.3,415.5,67.2z     M413.7,67.3c0-0.5-0.1-0.9-0.2-1.1c-0.2-0.3-0.5-0.4-0.9-0.4c-0.2,0-0.3,0-0.5,0.1s-0.3,0.1-0.5,0.2v2.8c0.1,0,0.2,0.1,0.4,0.1    c0.1,0,0.3,0,0.4,0c0.5,0,0.8-0.1,1-0.4S413.7,67.8,413.7,67.3z"/> 		<path d="M420.8,66.2h-0.2c-0.1,0-0.2,0-0.4-0.1c-0.2,0-0.3,0-0.4,0c-0.3,0-0.5,0-0.7,0c-0.2,0-0.4,0.1-0.6,0.2V70h-1.8v-5.5h1.8    v0.8c0.4-0.3,0.7-0.6,1-0.7c0.3-0.1,0.5-0.2,0.8-0.2c0.1,0,0.1,0,0.2,0c0.1,0,0.1,0,0.2,0V66.2z"/> 		<path d="M427.2,67.6h-4c0,0.4,0.2,0.8,0.5,1c0.3,0.2,0.7,0.3,1.3,0.3c0.4,0,0.7-0.1,1.1-0.2c0.3-0.1,0.6-0.3,0.8-0.4h0.2v1.4    c-0.4,0.2-0.8,0.3-1.1,0.3c-0.4,0.1-0.7,0.1-1.2,0.1c-1.1,0-1.9-0.2-2.5-0.7c-0.6-0.5-0.9-1.2-0.9-2.1c0-0.9,0.3-1.6,0.8-2.2    c0.6-0.5,1.3-0.8,2.3-0.8c0.9,0,1.6,0.2,2,0.7c0.4,0.5,0.7,1.1,0.7,1.9V67.6z M425.4,66.6c0-0.4-0.1-0.6-0.3-0.8    c-0.2-0.2-0.4-0.3-0.8-0.3c-0.3,0-0.6,0.1-0.8,0.3c-0.2,0.2-0.3,0.5-0.4,0.8H425.4z"/> 		<path d="M433.7,69.4c0,0.5-0.1,0.9-0.2,1.3s-0.4,0.6-0.6,0.8c-0.3,0.2-0.6,0.3-1,0.4c-0.4,0.1-0.8,0.1-1.3,0.1    c-0.4,0-0.8,0-1.1-0.1c-0.4,0-0.7-0.1-1-0.2v-1.4h0.2c0.2,0.1,0.5,0.2,0.8,0.2c0.3,0.1,0.6,0.1,0.8,0.1c0.3,0,0.6,0,0.8-0.1    c0.2-0.1,0.4-0.1,0.5-0.3c0.1-0.1,0.2-0.2,0.2-0.4c0-0.2,0.1-0.4,0.1-0.6v-0.1c-0.2,0.2-0.4,0.3-0.7,0.4c-0.3,0.1-0.5,0.2-0.9,0.2    c-0.8,0-1.4-0.2-1.8-0.7c-0.4-0.5-0.6-1.2-0.6-2.1c0-0.5,0.1-0.8,0.2-1.2c0.1-0.3,0.3-0.6,0.5-0.9c0.2-0.2,0.5-0.4,0.8-0.5    s0.6-0.2,1-0.2c0.3,0,0.6,0,0.8,0.1c0.2,0.1,0.5,0.2,0.7,0.3l0.1-0.2h1.7V69.4z M432,68.3v-2.5c-0.1,0-0.2-0.1-0.4-0.1    c-0.1,0-0.3,0-0.4,0c-0.5,0-0.8,0.1-1,0.4c-0.2,0.3-0.3,0.6-0.3,1.1c0,0.5,0.1,0.9,0.3,1.1c0.2,0.2,0.5,0.3,0.9,0.3    c0.2,0,0.3,0,0.5-0.1C431.7,68.5,431.8,68.4,432,68.3z"/> 		<path d="M438.7,69.5c-0.1,0.1-0.2,0.2-0.4,0.3c-0.1,0.1-0.3,0.2-0.4,0.2c-0.2,0.1-0.4,0.1-0.5,0.2c-0.2,0-0.4,0.1-0.6,0.1    c-0.5,0-1-0.2-1.3-0.5S435,69,435,68.5c0-0.4,0.1-0.7,0.3-1c0.2-0.3,0.4-0.5,0.8-0.6c0.3-0.1,0.7-0.3,1.2-0.3    c0.5-0.1,1-0.1,1.5-0.1v0c0-0.3-0.1-0.5-0.4-0.6c-0.2-0.1-0.6-0.2-1.1-0.2c-0.3,0-0.6,0.1-0.9,0.2c-0.3,0.1-0.6,0.2-0.7,0.2h-0.2    v-1.3c0.2,0,0.5-0.1,0.9-0.2c0.4-0.1,0.8-0.1,1.3-0.1c1,0,1.7,0.2,2.2,0.5s0.7,0.8,0.7,1.4V70h-1.7V69.5z M438.7,68.6v-1.1    c-0.2,0-0.5,0-0.8,0.1c-0.3,0-0.5,0.1-0.6,0.1c-0.2,0.1-0.3,0.1-0.4,0.2s-0.1,0.2-0.1,0.4c0,0.1,0,0.2,0,0.3s0.1,0.1,0.1,0.2    c0.1,0.1,0.2,0.1,0.3,0.1c0.1,0,0.3,0,0.5,0c0.2,0,0.4,0,0.5-0.1S438.6,68.7,438.7,68.6z"/> 		<path d="M445.6,70c-0.2,0-0.4,0.1-0.6,0.1c-0.2,0-0.5,0-0.8,0c-0.7,0-1.2-0.1-1.5-0.4c-0.3-0.3-0.5-0.8-0.5-1.4v-2.6h-0.7v-1.2    h0.7V63h1.8v1.6h1.6v1.2h-1.6v1.9c0,0.2,0,0.4,0,0.5c0,0.1,0,0.3,0.1,0.4c0,0.1,0.1,0.2,0.2,0.3s0.3,0.1,0.5,0.1    c0.1,0,0.2,0,0.4-0.1c0.1,0,0.3-0.1,0.3-0.1h0.1V70z"/> 	</g> 	<g> 		<path d="M268.1,45.3h-1.9l-0.5-1.5H263l-0.5,1.5h-1.9l2.7-7.3h2.2L268.1,45.3z M265.2,42.5l-0.9-2.6l-0.9,2.6H265.2z"/> 		<path d="M274.5,45.3h-1.8v-2.7c0-0.2,0-0.4,0-0.7s-0.1-0.4-0.1-0.5c-0.1-0.1-0.2-0.2-0.3-0.3c-0.1-0.1-0.3-0.1-0.5-0.1    c-0.2,0-0.3,0-0.5,0.1c-0.2,0.1-0.3,0.1-0.5,0.2v3.9H269v-5.5h1.8v0.6c0.3-0.2,0.6-0.4,0.9-0.6c0.3-0.1,0.6-0.2,1-0.2    c0.6,0,1.1,0.2,1.4,0.5c0.3,0.3,0.5,0.9,0.5,1.5V45.3z"/> 		<path d="M281.8,42.6c0,0.9-0.3,1.6-0.8,2.1c-0.5,0.5-1.3,0.8-2.2,0.8s-1.7-0.3-2.2-0.8c-0.5-0.5-0.8-1.2-0.8-2.1    c0-0.9,0.3-1.6,0.8-2.1c0.5-0.5,1.3-0.8,2.2-0.8c1,0,1.7,0.3,2.2,0.8C281.5,41,281.8,41.7,281.8,42.6z M279.6,43.9    c0.1-0.1,0.2-0.3,0.3-0.5c0.1-0.2,0.1-0.5,0.1-0.8c0-0.3,0-0.6-0.1-0.8c-0.1-0.2-0.1-0.4-0.2-0.5c-0.1-0.1-0.2-0.2-0.4-0.3    c-0.1-0.1-0.3-0.1-0.5-0.1s-0.3,0-0.5,0.1c-0.1,0-0.3,0.1-0.4,0.3c-0.1,0.1-0.2,0.3-0.3,0.5c-0.1,0.2-0.1,0.5-0.1,0.8    c0,0.3,0,0.6,0.1,0.8s0.1,0.4,0.2,0.5c0.1,0.1,0.2,0.2,0.4,0.3c0.1,0.1,0.3,0.1,0.5,0.1c0.2,0,0.3,0,0.5-0.1    C279.4,44.1,279.5,44,279.6,43.9z"/> 		<path d="M284.8,39.1H283v-1.3h1.9V39.1z M284.8,45.3H283v-5.5h1.8V45.3z"/> 		<path d="M289.8,44.7c-0.1,0.1-0.2,0.2-0.4,0.3c-0.1,0.1-0.3,0.2-0.4,0.2c-0.2,0.1-0.4,0.1-0.5,0.2c-0.2,0-0.4,0.1-0.6,0.1    c-0.5,0-1-0.2-1.3-0.5s-0.5-0.7-0.5-1.2c0-0.4,0.1-0.7,0.3-1s0.4-0.5,0.8-0.6c0.3-0.1,0.7-0.3,1.2-0.3c0.5-0.1,1-0.1,1.5-0.1v0    c0-0.3-0.1-0.5-0.4-0.6c-0.2-0.1-0.6-0.2-1.1-0.2c-0.3,0-0.6,0.1-0.9,0.2s-0.6,0.2-0.7,0.2h-0.2v-1.3c0.2,0,0.5-0.1,0.9-0.2    c0.4-0.1,0.8-0.1,1.3-0.1c1,0,1.7,0.2,2.2,0.5s0.7,0.8,0.7,1.4v3.7h-1.7V44.7z M289.8,43.9v-1.1c-0.2,0-0.5,0-0.8,0.1    c-0.3,0-0.5,0.1-0.6,0.1c-0.2,0.1-0.3,0.1-0.4,0.2c-0.1,0.1-0.1,0.2-0.1,0.4c0,0.1,0,0.2,0,0.3s0.1,0.1,0.1,0.2    c0.1,0.1,0.2,0.1,0.3,0.1c0.1,0,0.3,0,0.5,0c0.2,0,0.4,0,0.5-0.1S289.6,44,289.8,43.9z"/> 	</g> </g> <g id="Guides"> 	<g> 		<path d="M245.3,253.3l-2.5,7.3h-1.2l-2.5-7.3h1l2.2,6.4l2.2-6.4H245.3z"/> 		<path d="M247.2,254.2h-1v-1h1V254.2z M247.1,260.6h-0.9v-5.5h0.9V260.6z"/> 		<path d="M249.7,260.6h-0.9V253h0.9V260.6z"/> 		<path d="M255.4,260.6h-0.9V260c-0.1,0.1-0.2,0.1-0.3,0.2c-0.1,0.1-0.3,0.2-0.4,0.2c-0.1,0.1-0.3,0.1-0.5,0.2    c-0.2,0.1-0.4,0.1-0.7,0.1c-0.5,0-0.9-0.2-1.2-0.5c-0.3-0.3-0.5-0.7-0.5-1.2c0-0.4,0.1-0.7,0.3-1c0.2-0.3,0.4-0.5,0.7-0.6    c0.3-0.1,0.7-0.2,1.1-0.3c0.4-0.1,0.9-0.1,1.4-0.1v-0.1c0-0.2,0-0.4-0.1-0.5s-0.2-0.2-0.3-0.3c-0.1-0.1-0.3-0.1-0.4-0.2    c-0.2,0-0.4,0-0.5,0c-0.2,0-0.5,0-0.8,0.1c-0.3,0.1-0.6,0.2-0.9,0.3h0v-0.9c0.2,0,0.4-0.1,0.7-0.2c0.3-0.1,0.6-0.1,0.9-0.1    c0.4,0,0.7,0,0.9,0.1c0.3,0.1,0.5,0.2,0.7,0.3c0.2,0.1,0.3,0.3,0.4,0.6s0.2,0.5,0.2,0.9V260.6z M254.6,259.2v-1.5    c-0.3,0-0.6,0-0.9,0.1s-0.6,0.1-0.9,0.1c-0.2,0.1-0.5,0.2-0.6,0.3c-0.2,0.2-0.2,0.4-0.2,0.7c0,0.3,0.1,0.5,0.3,0.7    c0.2,0.2,0.5,0.2,0.8,0.2c0.3,0,0.6-0.1,0.8-0.2C254.1,259.5,254.4,259.4,254.6,259.2z"/> 		<path d="M259.9,253.9L259.9,253.9c-0.1,0-0.3-0.1-0.4-0.1c-0.2,0-0.3,0-0.4,0c-0.4,0-0.6,0.1-0.8,0.3c-0.2,0.2-0.3,0.5-0.3,0.9    v0.2h1.6v0.8H258v4.7h-0.9v-4.7h-0.6v-0.8h0.6v-0.2c0-0.6,0.2-1.1,0.5-1.5s0.7-0.5,1.3-0.5c0.2,0,0.4,0,0.5,0s0.3,0,0.4,0.1V253.9    z"/> 		<path d="M263.7,256.1L263.7,256.1c-0.2,0-0.3-0.1-0.4-0.1c-0.1,0-0.3,0-0.4,0c-0.3,0-0.5,0.1-0.8,0.2c-0.2,0.1-0.5,0.3-0.7,0.5    v3.9h-0.9v-5.5h0.9v0.8c0.3-0.3,0.6-0.5,0.9-0.6c0.3-0.1,0.5-0.2,0.8-0.2c0.2,0,0.3,0,0.3,0c0.1,0,0.2,0,0.3,0V256.1z"/> 		<path d="M268.3,260.6h-0.9V260c-0.1,0.1-0.2,0.1-0.3,0.2c-0.1,0.1-0.3,0.2-0.4,0.2c-0.1,0.1-0.3,0.1-0.5,0.2    c-0.2,0.1-0.4,0.1-0.7,0.1c-0.5,0-0.9-0.2-1.2-0.5s-0.5-0.7-0.5-1.2c0-0.4,0.1-0.7,0.3-1c0.2-0.3,0.4-0.5,0.7-0.6    c0.3-0.1,0.7-0.2,1.1-0.3c0.4-0.1,0.9-0.1,1.4-0.1v-0.1c0-0.2,0-0.4-0.1-0.5s-0.2-0.2-0.3-0.3c-0.1-0.1-0.3-0.1-0.4-0.2    c-0.2,0-0.4,0-0.5,0c-0.2,0-0.5,0-0.8,0.1s-0.6,0.2-0.9,0.3h0v-0.9c0.2,0,0.4-0.1,0.7-0.2c0.3-0.1,0.6-0.1,0.9-0.1    c0.4,0,0.7,0,0.9,0.1c0.3,0.1,0.5,0.2,0.7,0.3c0.2,0.1,0.3,0.3,0.4,0.6s0.2,0.5,0.2,0.9V260.6z M267.4,259.2v-1.5    c-0.3,0-0.6,0-0.9,0.1s-0.6,0.1-0.9,0.1c-0.3,0.1-0.5,0.2-0.6,0.3c-0.2,0.2-0.2,0.4-0.2,0.7c0,0.3,0.1,0.5,0.3,0.7    c0.2,0.2,0.5,0.2,0.8,0.2c0.3,0,0.6-0.1,0.8-0.2C267,259.5,267.2,259.4,267.4,259.2z"/> 		<path d="M274.3,260.6h-0.9v-3.1c0-0.3,0-0.5,0-0.7c0-0.2-0.1-0.4-0.2-0.5c-0.1-0.1-0.2-0.2-0.3-0.3c-0.1-0.1-0.3-0.1-0.6-0.1    c-0.2,0-0.5,0.1-0.7,0.2c-0.3,0.1-0.5,0.3-0.7,0.5v4.1H270v-5.5h0.9v0.6c0.3-0.2,0.6-0.4,0.8-0.6s0.6-0.2,0.9-0.2    c0.6,0,1,0.2,1.3,0.5c0.3,0.4,0.4,0.9,0.4,1.5V260.6z"/> 		<path d="M279.8,260.2c-0.3,0.1-0.6,0.3-0.8,0.3s-0.5,0.1-0.8,0.1c-0.4,0-0.7-0.1-1-0.2c-0.3-0.1-0.6-0.3-0.8-0.5    c-0.2-0.2-0.4-0.5-0.5-0.9s-0.2-0.8-0.2-1.3c0-0.9,0.2-1.6,0.7-2.1s1.1-0.8,1.8-0.8c0.3,0,0.6,0,0.9,0.1c0.3,0.1,0.5,0.2,0.8,0.3    v1h0c-0.3-0.2-0.5-0.4-0.8-0.5c-0.3-0.1-0.6-0.2-0.8-0.2c-0.5,0-0.9,0.2-1.2,0.5c-0.3,0.4-0.4,0.9-0.4,1.5c0,0.7,0.1,1.2,0.4,1.5    c0.3,0.4,0.7,0.5,1.2,0.5c0.2,0,0.4,0,0.5-0.1s0.3-0.1,0.5-0.2c0.1-0.1,0.2-0.1,0.4-0.2c0.1-0.1,0.2-0.1,0.3-0.2h0V260.2z"/> 		<path d="M284.9,260.6H284V260c-0.1,0.1-0.2,0.1-0.3,0.2c-0.1,0.1-0.3,0.2-0.4,0.2c-0.1,0.1-0.3,0.1-0.5,0.2    c-0.2,0.1-0.4,0.1-0.7,0.1c-0.5,0-0.9-0.2-1.2-0.5c-0.3-0.3-0.5-0.7-0.5-1.2c0-0.4,0.1-0.7,0.3-1c0.2-0.3,0.4-0.5,0.7-0.6    c0.3-0.1,0.7-0.2,1.1-0.3c0.4-0.1,0.9-0.1,1.4-0.1v-0.1c0-0.2,0-0.4-0.1-0.5s-0.2-0.2-0.3-0.3c-0.1-0.1-0.3-0.1-0.4-0.2    c-0.2,0-0.4,0-0.5,0c-0.2,0-0.5,0-0.8,0.1c-0.3,0.1-0.6,0.2-0.9,0.3h0v-0.9c0.2,0,0.4-0.1,0.7-0.2c0.3-0.1,0.6-0.1,0.9-0.1    c0.4,0,0.7,0,0.9,0.1c0.3,0.1,0.5,0.2,0.7,0.3c0.2,0.1,0.3,0.3,0.4,0.6s0.2,0.5,0.2,0.9V260.6z M284,259.2v-1.5    c-0.3,0-0.6,0-0.9,0.1s-0.6,0.1-0.9,0.1c-0.2,0.1-0.5,0.2-0.6,0.3c-0.2,0.2-0.2,0.4-0.2,0.7c0,0.3,0.1,0.5,0.3,0.7    c0.2,0.2,0.5,0.2,0.8,0.2c0.3,0,0.6-0.1,0.8-0.2C283.6,259.5,283.8,259.4,284,259.2z"/> 		<path d="M244,270.6h-0.9V270c-0.2,0.2-0.5,0.4-0.8,0.5s-0.6,0.2-0.9,0.2c-0.6,0-1.1-0.3-1.5-0.8c-0.4-0.5-0.5-1.2-0.5-2.1    c0-0.5,0.1-0.9,0.2-1.2c0.1-0.4,0.3-0.7,0.5-0.9c0.2-0.2,0.5-0.4,0.7-0.6s0.6-0.2,0.9-0.2c0.3,0,0.5,0,0.7,0.1    c0.2,0.1,0.4,0.2,0.7,0.3V263h0.9V270.6z M243.1,269.2v-3.1c-0.2-0.1-0.4-0.2-0.6-0.2s-0.4-0.1-0.6-0.1c-0.5,0-0.9,0.2-1.1,0.5    s-0.4,0.9-0.4,1.5c0,0.6,0.1,1.1,0.3,1.5s0.5,0.5,1,0.5c0.2,0,0.5-0.1,0.7-0.2C242.7,269.5,242.9,269.4,243.1,269.2z"/> 		<path d="M250,267.9h-3.8c0,0.3,0,0.6,0.1,0.9c0.1,0.2,0.2,0.5,0.4,0.6c0.2,0.2,0.3,0.3,0.6,0.4c0.2,0.1,0.5,0.1,0.7,0.1    c0.4,0,0.7-0.1,1.1-0.2c0.4-0.1,0.6-0.3,0.8-0.4h0v1c-0.3,0.1-0.6,0.2-0.9,0.3s-0.6,0.1-1,0.1c-0.9,0-1.5-0.2-2-0.7    c-0.5-0.5-0.7-1.2-0.7-2.1c0-0.9,0.2-1.6,0.7-2.1s1.1-0.8,1.8-0.8c0.7,0,1.2,0.2,1.6,0.6s0.6,1,0.6,1.8V267.9z M249.2,267.2    c0-0.5-0.1-0.9-0.3-1.1c-0.2-0.3-0.6-0.4-1-0.4c-0.5,0-0.8,0.1-1.1,0.4s-0.4,0.6-0.5,1.1H249.2z"/> 		<path d="M252.2,270.6h-0.9V263h0.9V270.6z"/> 		<path d="M261.8,265.5c0,0.3-0.1,0.6-0.2,0.9c-0.1,0.3-0.3,0.5-0.4,0.7c-0.2,0.3-0.5,0.4-0.8,0.6c-0.3,0.1-0.7,0.2-1.2,0.2h-0.9    v2.7h-0.9v-7.3h1.9c0.4,0,0.8,0,1,0.1s0.5,0.2,0.8,0.3c0.3,0.2,0.5,0.4,0.6,0.7C261.7,264.7,261.8,265.1,261.8,265.5z     M260.8,265.5c0-0.3,0-0.5-0.1-0.7s-0.2-0.3-0.4-0.5c-0.1-0.1-0.3-0.2-0.5-0.2c-0.2,0-0.4-0.1-0.7-0.1h-0.9v2.9h0.8    c0.4,0,0.7,0,0.9-0.1c0.2-0.1,0.4-0.2,0.6-0.3c0.1-0.2,0.2-0.3,0.3-0.5S260.8,265.7,260.8,265.5z"/> 		<path d="M267,267.9h-3.8c0,0.3,0,0.6,0.1,0.9c0.1,0.2,0.2,0.5,0.4,0.6c0.2,0.2,0.4,0.3,0.6,0.4s0.5,0.1,0.7,0.1    c0.4,0,0.7-0.1,1.1-0.2c0.4-0.1,0.6-0.3,0.8-0.4h0v1c-0.3,0.1-0.6,0.2-0.9,0.3s-0.6,0.1-1,0.1c-0.9,0-1.5-0.2-2-0.7    c-0.5-0.5-0.7-1.2-0.7-2.1c0-0.9,0.2-1.6,0.7-2.1s1.1-0.8,1.8-0.8c0.7,0,1.2,0.2,1.6,0.6s0.6,1,0.6,1.8V267.9z M266.2,267.2    c0-0.5-0.1-0.9-0.3-1.1c-0.2-0.3-0.6-0.4-1-0.4c-0.5,0-0.8,0.1-1.1,0.4s-0.4,0.6-0.5,1.1H266.2z"/> 		<path d="M272.6,270.6h-0.9v-3.1c0-0.3,0-0.5,0-0.7c0-0.2-0.1-0.4-0.2-0.5c-0.1-0.1-0.2-0.2-0.3-0.3c-0.1-0.1-0.3-0.1-0.6-0.1    c-0.2,0-0.5,0.1-0.7,0.2c-0.3,0.1-0.5,0.3-0.7,0.5v4.1h-0.9v-5.5h0.9v0.6c0.3-0.2,0.5-0.4,0.8-0.6c0.3-0.1,0.6-0.2,0.9-0.2    c0.6,0,1,0.2,1.3,0.5c0.3,0.4,0.4,0.9,0.4,1.5V270.6z"/> 		<path d="M278.6,267.9h-3.8c0,0.3,0,0.6,0.1,0.9c0.1,0.2,0.2,0.5,0.4,0.6c0.2,0.2,0.3,0.3,0.6,0.4c0.2,0.1,0.5,0.1,0.7,0.1    c0.4,0,0.7-0.1,1.1-0.2c0.4-0.1,0.6-0.3,0.8-0.4h0v1c-0.3,0.1-0.6,0.2-0.9,0.3s-0.6,0.1-1,0.1c-0.9,0-1.5-0.2-2-0.7    c-0.5-0.5-0.7-1.2-0.7-2.1c0-0.9,0.2-1.6,0.7-2.1s1.1-0.8,1.8-0.8c0.7,0,1.2,0.2,1.6,0.6s0.6,1,0.6,1.8V267.9z M277.8,267.2    c0-0.5-0.1-0.9-0.3-1.1c-0.2-0.3-0.6-0.4-1-0.4c-0.5,0-0.8,0.1-1.1,0.4c-0.3,0.3-0.4,0.6-0.5,1.1H277.8z"/> 		<path d="M284.1,270.6h-0.9V270c-0.2,0.2-0.5,0.4-0.8,0.5s-0.6,0.2-0.9,0.2c-0.6,0-1.1-0.3-1.5-0.8c-0.4-0.5-0.5-1.2-0.5-2.1    c0-0.5,0.1-0.9,0.2-1.2c0.1-0.4,0.3-0.7,0.5-0.9c0.2-0.2,0.5-0.4,0.7-0.6s0.6-0.2,0.9-0.2c0.3,0,0.5,0,0.7,0.1    c0.2,0.1,0.4,0.2,0.7,0.3V263h0.9V270.6z M283.3,269.2v-3.1c-0.2-0.1-0.4-0.2-0.6-0.2s-0.4-0.1-0.6-0.1c-0.5,0-0.9,0.2-1.1,0.5    s-0.4,0.9-0.4,1.5c0,0.6,0.1,1.1,0.3,1.5s0.5,0.5,1,0.5c0.2,0,0.5-0.1,0.7-0.2C282.8,269.5,283,269.4,283.3,269.2z"/> 		<path d="M290.1,267.9h-3.8c0,0.3,0,0.6,0.1,0.9c0.1,0.2,0.2,0.5,0.4,0.6c0.2,0.2,0.4,0.3,0.6,0.4s0.5,0.1,0.7,0.1    c0.4,0,0.7-0.1,1.1-0.2c0.4-0.1,0.6-0.3,0.8-0.4h0v1c-0.3,0.1-0.6,0.2-0.9,0.3s-0.6,0.1-1,0.1c-0.9,0-1.5-0.2-2-0.7    c-0.5-0.5-0.7-1.2-0.7-2.1c0-0.9,0.2-1.6,0.7-2.1s1.1-0.8,1.8-0.8c0.7,0,1.2,0.2,1.6,0.6s0.6,1,0.6,1.8V267.9z M289.3,267.2    c0-0.5-0.1-0.9-0.3-1.1c-0.2-0.3-0.6-0.4-1-0.4c-0.5,0-0.8,0.1-1.1,0.4s-0.4,0.6-0.5,1.1H289.3z M288.5,264.2h-0.7l-1.3-1.8h1.1    L288.5,264.2z"/> 		<path d="M294.8,268c0.2,0.2,0.3,0.6,0.3,1c0,0.5-0.2,0.9-0.6,1.2c-0.4,0.3-0.9,0.5-1.6,0.5c-0.4,0-0.7,0-1-0.1    c-0.3-0.1-0.6-0.2-0.8-0.3v-1h0c0.3,0.2,0.6,0.4,0.9,0.5c0.3,0.1,0.7,0.2,1,0.2c0.4,0,0.7-0.1,0.9-0.2c0.2-0.1,0.3-0.3,0.3-0.6    c0-0.2-0.1-0.4-0.2-0.5s-0.3-0.2-0.7-0.3c-0.1,0-0.3-0.1-0.5-0.1c-0.2,0-0.4-0.1-0.5-0.1c-0.5-0.1-0.8-0.3-1-0.6    c-0.2-0.2-0.3-0.5-0.3-0.9c0-0.2,0-0.4,0.1-0.6s0.2-0.4,0.4-0.5c0.2-0.2,0.4-0.3,0.7-0.4c0.3-0.1,0.6-0.1,0.9-0.1    c0.3,0,0.6,0,0.9,0.1c0.3,0.1,0.6,0.2,0.8,0.3v1h0c-0.2-0.2-0.5-0.3-0.8-0.4c-0.3-0.1-0.6-0.2-0.9-0.2c-0.3,0-0.6,0.1-0.8,0.2    c-0.2,0.1-0.3,0.3-0.3,0.6c0,0.2,0.1,0.4,0.2,0.5c0.1,0.1,0.3,0.2,0.6,0.3c0.2,0,0.3,0.1,0.5,0.1s0.4,0.1,0.5,0.1    C294.3,267.6,294.6,267.8,294.8,268L294.8,268z"/> 	</g> 	<g> 		<path d="M178,293.2c0,0.3-0.1,0.6-0.2,0.8c-0.1,0.3-0.3,0.5-0.5,0.7c-0.2,0.2-0.5,0.4-0.9,0.5s-0.7,0.2-1.2,0.2    c-0.5,0-0.9,0-1.3-0.1c-0.4-0.1-0.8-0.2-1.2-0.4v-1.2h0.1c0.3,0.3,0.7,0.5,1.2,0.7s0.9,0.2,1.3,0.2c0.6,0,1-0.1,1.3-0.3    c0.3-0.2,0.5-0.5,0.5-0.9c0-0.3-0.1-0.6-0.2-0.7c-0.1-0.2-0.4-0.3-0.7-0.4c-0.2-0.1-0.5-0.1-0.8-0.2c-0.3,0-0.6-0.1-0.9-0.2    c-0.6-0.1-1.1-0.4-1.4-0.7c-0.3-0.3-0.4-0.8-0.4-1.3c0-0.6,0.2-1.1,0.7-1.5c0.5-0.4,1.1-0.6,1.9-0.6c0.5,0,0.9,0,1.3,0.1    c0.4,0.1,0.8,0.2,1.1,0.4v1.1h-0.1c-0.3-0.2-0.6-0.4-1-0.6c-0.4-0.2-0.9-0.2-1.3-0.2c-0.5,0-0.9,0.1-1.2,0.3s-0.4,0.5-0.4,0.8    c0,0.3,0.1,0.5,0.2,0.7c0.1,0.2,0.4,0.3,0.8,0.4c0.2,0,0.5,0.1,0.8,0.2c0.4,0.1,0.7,0.1,0.9,0.2c0.5,0.1,0.9,0.4,1.2,0.6    C177.8,292.3,178,292.7,178,293.2z"/> 		<path d="M183.4,295.3h-0.9v-0.6c-0.1,0.1-0.2,0.1-0.3,0.2s-0.3,0.2-0.4,0.2c-0.1,0.1-0.3,0.1-0.5,0.2s-0.4,0.1-0.7,0.1    c-0.5,0-0.9-0.2-1.2-0.5c-0.3-0.3-0.5-0.7-0.5-1.2c0-0.4,0.1-0.7,0.3-1s0.4-0.5,0.7-0.6c0.3-0.1,0.7-0.2,1.1-0.3    c0.4-0.1,0.9-0.1,1.4-0.1v-0.1c0-0.2,0-0.4-0.1-0.5c-0.1-0.1-0.2-0.2-0.3-0.3c-0.1-0.1-0.3-0.1-0.4-0.2c-0.2,0-0.4,0-0.5,0    c-0.2,0-0.5,0-0.8,0.1c-0.3,0.1-0.6,0.2-0.9,0.3h0v-0.9c0.2,0,0.4-0.1,0.7-0.2s0.6-0.1,0.9-0.1c0.4,0,0.7,0,0.9,0.1    c0.3,0.1,0.5,0.2,0.7,0.3c0.2,0.2,0.3,0.3,0.4,0.6c0.1,0.2,0.2,0.5,0.2,0.9V295.3z M182.5,293.9v-1.5c-0.3,0-0.6,0-0.9,0.1    c-0.4,0-0.6,0.1-0.9,0.1c-0.2,0.1-0.5,0.2-0.6,0.3s-0.2,0.4-0.2,0.7c0,0.3,0.1,0.5,0.3,0.7c0.2,0.2,0.5,0.2,0.8,0.2    c0.3,0,0.6-0.1,0.8-0.2C182.1,294.2,182.3,294.1,182.5,293.9z"/> 		<path d="M189.3,295.3h-0.9v-3.1c0-0.3,0-0.5,0-0.7c0-0.2-0.1-0.4-0.2-0.5c-0.1-0.1-0.2-0.2-0.3-0.3c-0.1-0.1-0.3-0.1-0.6-0.1    c-0.2,0-0.5,0.1-0.7,0.2c-0.3,0.1-0.5,0.3-0.7,0.5v4.1H185v-5.5h0.9v0.6c0.3-0.2,0.6-0.4,0.8-0.6c0.3-0.1,0.6-0.2,0.9-0.2    c0.6,0,1,0.2,1.3,0.5c0.3,0.4,0.4,0.9,0.4,1.5V295.3z"/> 		<path d="M193.7,295.2c-0.2,0-0.3,0.1-0.5,0.1c-0.2,0-0.4,0-0.5,0c-0.5,0-0.9-0.1-1.2-0.4c-0.3-0.3-0.4-0.8-0.4-1.4v-2.9h-0.6v-0.8    h0.6v-1.6h0.9v1.6h1.8v0.8h-1.8v2.5c0,0.3,0,0.5,0,0.7s0.1,0.3,0.1,0.5c0.1,0.1,0.2,0.2,0.3,0.3c0.1,0.1,0.3,0.1,0.5,0.1    c0.1,0,0.3,0,0.4-0.1s0.3-0.1,0.3-0.1h0V295.2z"/> 		<path d="M198.8,295.3h-0.9v-0.6c-0.1,0.1-0.2,0.1-0.3,0.2s-0.3,0.2-0.4,0.2c-0.1,0.1-0.3,0.1-0.5,0.2c-0.2,0.1-0.4,0.1-0.7,0.1    c-0.5,0-0.9-0.2-1.2-0.5c-0.3-0.3-0.5-0.7-0.5-1.2c0-0.4,0.1-0.7,0.3-1c0.2-0.3,0.4-0.5,0.7-0.6c0.3-0.1,0.7-0.2,1.1-0.3    c0.4-0.1,0.9-0.1,1.4-0.1v-0.1c0-0.2,0-0.4-0.1-0.5s-0.2-0.2-0.3-0.3c-0.1-0.1-0.3-0.1-0.4-0.2c-0.2,0-0.4,0-0.5,0    c-0.2,0-0.5,0-0.8,0.1c-0.3,0.1-0.6,0.2-0.9,0.3h0v-0.9c0.2,0,0.4-0.1,0.7-0.2s0.6-0.1,0.9-0.1c0.4,0,0.7,0,0.9,0.1    s0.5,0.2,0.7,0.3c0.2,0.2,0.3,0.3,0.4,0.6c0.1,0.2,0.2,0.5,0.2,0.9V295.3z M197.9,293.9v-1.5c-0.3,0-0.6,0-0.9,0.1    c-0.4,0-0.6,0.1-0.9,0.1c-0.2,0.1-0.5,0.2-0.6,0.3s-0.2,0.4-0.2,0.7c0,0.3,0.1,0.5,0.3,0.7c0.2,0.2,0.5,0.2,0.8,0.2    c0.3,0,0.6-0.1,0.8-0.2C197.4,294.2,197.7,294.1,197.9,293.9z"/> 		<path d="M209.9,295.3H209V289l-1.9,4.3h-0.5l-1.9-4.3v6.3h-0.9V288h1.2l1.8,4l1.8-4h1.3V295.3z"/> 		<path d="M215.7,295.3h-0.9v-0.6c-0.1,0.1-0.2,0.1-0.3,0.2c-0.1,0.1-0.3,0.2-0.4,0.2c-0.1,0.1-0.3,0.1-0.5,0.2s-0.4,0.1-0.7,0.1    c-0.5,0-0.9-0.2-1.2-0.5c-0.3-0.3-0.5-0.7-0.5-1.2c0-0.4,0.1-0.7,0.3-1c0.2-0.3,0.4-0.5,0.7-0.6c0.3-0.1,0.7-0.2,1.1-0.3    c0.4-0.1,0.9-0.1,1.4-0.1v-0.1c0-0.2,0-0.4-0.1-0.5c-0.1-0.1-0.2-0.2-0.3-0.3c-0.1-0.1-0.3-0.1-0.4-0.2c-0.2,0-0.4,0-0.5,0    c-0.2,0-0.5,0-0.8,0.1s-0.6,0.2-0.9,0.3h0v-0.9c0.2,0,0.4-0.1,0.7-0.2c0.3-0.1,0.6-0.1,0.9-0.1c0.4,0,0.7,0,0.9,0.1    c0.3,0.1,0.5,0.2,0.7,0.3c0.2,0.2,0.3,0.3,0.4,0.6c0.1,0.2,0.2,0.5,0.2,0.9V295.3z M214.9,293.9v-1.5c-0.3,0-0.6,0-0.9,0.1    c-0.4,0-0.6,0.1-0.9,0.1c-0.2,0.1-0.5,0.2-0.6,0.3s-0.2,0.4-0.2,0.7c0,0.3,0.1,0.5,0.3,0.7c0.2,0.2,0.5,0.2,0.8,0.2    c0.3,0,0.6-0.1,0.8-0.2C214.4,294.2,214.6,294.1,214.9,293.9z"/> 		<path d="M220.6,290.8L220.6,290.8c-0.2,0-0.3-0.1-0.4-0.1s-0.3,0-0.4,0c-0.3,0-0.5,0.1-0.8,0.2c-0.2,0.1-0.5,0.3-0.7,0.5v3.9h-0.9    v-5.5h0.9v0.8c0.3-0.3,0.6-0.5,0.9-0.6c0.3-0.1,0.5-0.2,0.8-0.2c0.2,0,0.3,0,0.3,0c0.1,0,0.2,0,0.3,0V290.8z"/> 		<path d="M225.6,294.6c0,0.9-0.2,1.6-0.6,2c-0.4,0.4-1,0.6-1.8,0.6c-0.3,0-0.5,0-0.8-0.1c-0.3,0-0.5-0.1-0.8-0.2v-0.9h0    c0.1,0.1,0.4,0.1,0.7,0.2s0.6,0.1,0.9,0.1c0.3,0,0.5,0,0.7-0.1c0.2-0.1,0.3-0.2,0.5-0.3c0.1-0.1,0.2-0.3,0.2-0.5    c0-0.2,0.1-0.4,0.1-0.6v-0.5c-0.3,0.2-0.5,0.4-0.8,0.5s-0.5,0.2-0.9,0.2c-0.6,0-1.1-0.2-1.5-0.7s-0.5-1.1-0.5-2    c0-0.5,0.1-0.9,0.2-1.2c0.1-0.3,0.3-0.6,0.5-0.9c0.2-0.2,0.4-0.4,0.7-0.5s0.6-0.2,0.9-0.2c0.3,0,0.5,0,0.8,0.1    c0.2,0.1,0.4,0.2,0.6,0.3l0.1-0.2h0.8V294.6z M224.7,293.8v-3c-0.2-0.1-0.4-0.2-0.6-0.2c-0.2,0-0.4-0.1-0.6-0.1    c-0.5,0-0.9,0.2-1.1,0.5c-0.3,0.3-0.4,0.8-0.4,1.5c0,0.6,0.1,1.1,0.3,1.4c0.2,0.3,0.5,0.5,1,0.5c0.3,0,0.5-0.1,0.8-0.2    S224.5,293.9,224.7,293.8z"/> 		<path d="M231.3,295.3h-0.9v-0.6c-0.1,0.1-0.2,0.1-0.3,0.2s-0.3,0.2-0.4,0.2c-0.1,0.1-0.3,0.1-0.5,0.2s-0.4,0.1-0.7,0.1    c-0.5,0-0.9-0.2-1.2-0.5c-0.3-0.3-0.5-0.7-0.5-1.2c0-0.4,0.1-0.7,0.3-1c0.2-0.3,0.4-0.5,0.7-0.6c0.3-0.1,0.7-0.2,1.1-0.3    c0.4-0.1,0.9-0.1,1.4-0.1v-0.1c0-0.2,0-0.4-0.1-0.5s-0.2-0.2-0.3-0.3c-0.1-0.1-0.3-0.1-0.4-0.2c-0.2,0-0.4,0-0.5,0    c-0.2,0-0.5,0-0.8,0.1s-0.6,0.2-0.9,0.3h0v-0.9c0.2,0,0.4-0.1,0.7-0.2c0.3-0.1,0.6-0.1,0.9-0.1c0.4,0,0.7,0,0.9,0.1    c0.3,0.1,0.5,0.2,0.7,0.3c0.2,0.2,0.3,0.3,0.4,0.6c0.1,0.2,0.2,0.5,0.2,0.9V295.3z M230.5,293.9v-1.5c-0.3,0-0.6,0-0.9,0.1    c-0.4,0-0.6,0.1-0.9,0.1c-0.3,0.1-0.5,0.2-0.6,0.3c-0.2,0.2-0.2,0.4-0.2,0.7c0,0.3,0.1,0.5,0.3,0.7c0.2,0.2,0.5,0.2,0.8,0.2    c0.3,0,0.6-0.1,0.8-0.2S230.2,294.1,230.5,293.9z"/> 		<path d="M236.2,290.8L236.2,290.8c-0.2,0-0.3-0.1-0.4-0.1c-0.1,0-0.3,0-0.4,0c-0.3,0-0.5,0.1-0.8,0.2s-0.5,0.3-0.7,0.5v3.9H233    v-5.5h0.9v0.8c0.3-0.3,0.6-0.5,0.9-0.6c0.3-0.1,0.5-0.2,0.8-0.2c0.2,0,0.3,0,0.3,0c0.1,0,0.2,0,0.3,0V290.8z"/> 		<path d="M238,288.9h-1v-1h1V288.9z M237.9,295.3H237v-5.5h0.9V295.3z"/> 		<path d="M243.8,295.3h-0.9v-0.6c-0.2,0.2-0.5,0.4-0.8,0.5s-0.6,0.2-0.9,0.2c-0.6,0-1.1-0.3-1.5-0.8c-0.4-0.5-0.5-1.2-0.5-2.1    c0-0.5,0.1-0.9,0.2-1.2c0.1-0.4,0.3-0.7,0.5-0.9c0.2-0.2,0.5-0.4,0.7-0.6c0.3-0.1,0.6-0.2,0.9-0.2c0.3,0,0.5,0,0.7,0.1    c0.2,0.1,0.4,0.2,0.7,0.3v-2.4h0.9V295.3z M242.9,293.9v-3.1c-0.2-0.1-0.4-0.2-0.6-0.2c-0.2,0-0.4-0.1-0.6-0.1    c-0.5,0-0.9,0.2-1.1,0.5c-0.3,0.4-0.4,0.9-0.4,1.5c0,0.6,0.1,1.1,0.3,1.5s0.5,0.5,1,0.5c0.2,0,0.5-0.1,0.7-0.2    C242.5,294.2,242.7,294.1,242.9,293.9z"/> 		<path d="M249.5,295.3h-0.9v-0.6c-0.1,0.1-0.2,0.1-0.3,0.2s-0.3,0.2-0.4,0.2c-0.1,0.1-0.3,0.1-0.5,0.2s-0.4,0.1-0.7,0.1    c-0.5,0-0.9-0.2-1.2-0.5c-0.3-0.3-0.5-0.7-0.5-1.2c0-0.4,0.1-0.7,0.3-1c0.2-0.3,0.4-0.5,0.7-0.6c0.3-0.1,0.7-0.2,1.1-0.3    c0.4-0.1,0.9-0.1,1.4-0.1v-0.1c0-0.2,0-0.4-0.1-0.5s-0.2-0.2-0.3-0.3c-0.1-0.1-0.3-0.1-0.4-0.2c-0.2,0-0.4,0-0.5,0    c-0.2,0-0.5,0-0.8,0.1s-0.6,0.2-0.9,0.3h0v-0.9c0.2,0,0.4-0.1,0.7-0.2c0.3-0.1,0.6-0.1,0.9-0.1c0.4,0,0.7,0,0.9,0.1    c0.3,0.1,0.5,0.2,0.7,0.3c0.2,0.2,0.3,0.3,0.4,0.6c0.1,0.2,0.2,0.5,0.2,0.9V295.3z M248.7,293.9v-1.5c-0.3,0-0.6,0-0.9,0.1    c-0.4,0-0.6,0.1-0.9,0.1c-0.2,0.1-0.5,0.2-0.6,0.3c-0.2,0.2-0.2,0.4-0.2,0.7c0,0.3,0.1,0.5,0.3,0.7c0.2,0.2,0.5,0.2,0.8,0.2    c0.3,0,0.6-0.1,0.8-0.2S248.4,294.1,248.7,293.9z"/> 		<path d="M173.8,298.9h-1v-1h1V298.9z M173.8,305.3h-0.9v-5.5h0.9V305.3z"/> 		<path d="M183.4,305.3h-4.5V298h4.5v0.9h-3.6v2h3.6v0.9h-3.6v2.7h3.6V305.3z"/> 		<path d="M185.7,305.3h-0.9v-7.6h0.9V305.3z"/> 		<path d="M190.7,302.7c0.2,0.2,0.3,0.6,0.3,1c0,0.5-0.2,0.9-0.6,1.2c-0.4,0.3-0.9,0.5-1.6,0.5c-0.4,0-0.7,0-1-0.1    c-0.3-0.1-0.6-0.2-0.8-0.3v-1h0c0.3,0.2,0.6,0.4,0.9,0.5c0.3,0.1,0.7,0.2,1,0.2c0.4,0,0.7-0.1,0.9-0.2c0.2-0.1,0.3-0.3,0.3-0.6    c0-0.2-0.1-0.4-0.2-0.5c-0.1-0.1-0.3-0.2-0.7-0.3c-0.1,0-0.3-0.1-0.5-0.1s-0.4-0.1-0.5-0.1c-0.5-0.1-0.8-0.3-1-0.6    c-0.2-0.2-0.3-0.5-0.3-0.9c0-0.2,0-0.4,0.1-0.6c0.1-0.2,0.2-0.4,0.4-0.5c0.2-0.2,0.4-0.3,0.7-0.4c0.3-0.1,0.6-0.1,0.9-0.1    c0.3,0,0.6,0,0.9,0.1c0.3,0.1,0.6,0.2,0.8,0.3v1h0c-0.2-0.2-0.5-0.3-0.8-0.4s-0.6-0.2-0.9-0.2c-0.3,0-0.6,0.1-0.8,0.2    c-0.2,0.1-0.3,0.3-0.3,0.6c0,0.2,0.1,0.4,0.2,0.5c0.1,0.1,0.3,0.2,0.6,0.3c0.2,0,0.3,0.1,0.5,0.1s0.4,0.1,0.5,0.1    C190.2,302.3,190.5,302.5,190.7,302.7L190.7,302.7z"/> 		<path d="M201.8,305.3h-0.9V299l-1.9,4.3h-0.5l-1.9-4.3v6.3h-0.9V298h1.2l1.8,4l1.8-4h1.3V305.3z"/> 		<path d="M208,302.5c0,0.9-0.2,1.6-0.6,2.1c-0.4,0.5-1,0.8-1.7,0.8c-0.7,0-1.3-0.3-1.7-0.8c-0.4-0.5-0.6-1.2-0.6-2.1    s0.2-1.6,0.6-2.1c0.4-0.5,1-0.8,1.7-0.8c0.7,0,1.3,0.3,1.7,0.8S208,301.6,208,302.5z M207.1,302.5c0-0.7-0.1-1.2-0.4-1.6    c-0.3-0.3-0.6-0.5-1.1-0.5c-0.5,0-0.8,0.2-1.1,0.5s-0.4,0.9-0.4,1.6c0,0.7,0.1,1.2,0.4,1.6c0.3,0.4,0.6,0.5,1.1,0.5    c0.5,0,0.8-0.2,1.1-0.5S207.1,303.2,207.1,302.5z"/> 		<path d="M213.6,305.3h-0.9v-3.1c0-0.3,0-0.5,0-0.7s-0.1-0.4-0.2-0.5c-0.1-0.1-0.2-0.2-0.3-0.3s-0.3-0.1-0.6-0.1    c-0.2,0-0.5,0.1-0.7,0.2c-0.3,0.1-0.5,0.3-0.7,0.5v4.1h-0.9v-5.5h0.9v0.6c0.3-0.2,0.6-0.4,0.8-0.6c0.3-0.1,0.6-0.2,0.9-0.2    c0.6,0,1,0.2,1.3,0.5c0.3,0.4,0.4,0.9,0.4,1.5V305.3z"/> 		<path d="M216.9,305.4c0,0.6-0.2,1.1-0.5,1.4c-0.3,0.3-0.7,0.5-1.2,0.5c-0.1,0-0.3,0-0.5,0c-0.2,0-0.4-0.1-0.5-0.1v-0.9h0    c0.1,0,0.2,0.1,0.3,0.1c0.1,0,0.3,0.1,0.4,0.1c0.2,0,0.4,0,0.5-0.1c0.1-0.1,0.2-0.2,0.3-0.3c0.1-0.1,0.1-0.3,0.1-0.5    c0-0.2,0-0.4,0-0.7v-4.4h-1.1v-0.8h1.9V305.4z M216.9,298.9h-1v-1h1V298.9z"/> 		<path d="M223,302.5c0,0.9-0.2,1.6-0.6,2.1c-0.4,0.5-1,0.8-1.7,0.8c-0.7,0-1.3-0.3-1.7-0.8c-0.4-0.5-0.6-1.2-0.6-2.1    s0.2-1.6,0.6-2.1c0.4-0.5,1-0.8,1.7-0.8c0.7,0,1.3,0.3,1.7,0.8S223,301.6,223,302.5z M222.1,302.5c0-0.7-0.1-1.2-0.4-1.6    c-0.3-0.3-0.6-0.5-1.1-0.5c-0.5,0-0.8,0.2-1.1,0.5c-0.3,0.3-0.4,0.9-0.4,1.6c0,0.7,0.1,1.2,0.4,1.6c0.3,0.4,0.6,0.5,1.1,0.5    c0.5,0,0.8-0.2,1.1-0.5S222.1,303.2,222.1,302.5z"/> 		<path d="M227.7,302.7c0.2,0.2,0.3,0.6,0.3,1c0,0.5-0.2,0.9-0.6,1.2c-0.4,0.3-0.9,0.5-1.6,0.5c-0.4,0-0.7,0-1-0.1s-0.6-0.2-0.8-0.3    v-1h0c0.3,0.2,0.6,0.4,0.9,0.5c0.3,0.1,0.7,0.2,1,0.2c0.4,0,0.7-0.1,0.9-0.2c0.2-0.1,0.3-0.3,0.3-0.6c0-0.2-0.1-0.4-0.2-0.5    c-0.1-0.1-0.3-0.2-0.7-0.3c-0.1,0-0.3-0.1-0.5-0.1s-0.4-0.1-0.5-0.1c-0.5-0.1-0.8-0.3-1-0.6c-0.2-0.2-0.3-0.5-0.3-0.9    c0-0.2,0-0.4,0.1-0.6c0.1-0.2,0.2-0.4,0.4-0.5c0.2-0.2,0.4-0.3,0.7-0.4s0.6-0.1,0.9-0.1c0.3,0,0.6,0,0.9,0.1s0.6,0.2,0.8,0.3v1h0    c-0.2-0.2-0.5-0.3-0.8-0.4c-0.3-0.1-0.6-0.2-0.9-0.2c-0.3,0-0.6,0.1-0.8,0.2c-0.2,0.1-0.3,0.3-0.3,0.6c0,0.2,0.1,0.4,0.2,0.5    c0.1,0.1,0.3,0.2,0.6,0.3c0.2,0,0.3,0.1,0.5,0.1c0.2,0,0.4,0.1,0.5,0.1C227.1,302.3,227.4,302.5,227.7,302.7L227.7,302.7z"/> 	</g> 	<g> 		<rect x="178.2" y="337.2" style="fill-rule:evenodd;clip-rule:evenodd;fill:none;" width="47" height="21"/> 		<path d="M184.4,347.1c-0.2,0.1-0.3,0.2-0.5,0.2c-0.1,0.1-0.3,0.1-0.5,0.2c-0.2,0.1-0.4,0.1-0.6,0.2c-0.2,0-0.5,0.1-0.7,0.1    c-0.5,0-1-0.1-1.4-0.2c-0.4-0.1-0.8-0.4-1.1-0.7c-0.3-0.3-0.5-0.7-0.7-1.2c-0.2-0.5-0.2-1-0.2-1.7c0-0.6,0.1-1.1,0.2-1.6    c0.2-0.5,0.4-0.9,0.7-1.2c0.3-0.3,0.6-0.6,1.1-0.7c0.4-0.2,0.9-0.2,1.4-0.2c0.4,0,0.7,0,1.1,0.1c0.4,0.1,0.8,0.3,1.2,0.5v1.1h-0.1    c-0.4-0.3-0.8-0.6-1.1-0.7s-0.8-0.2-1.2-0.2c-0.3,0-0.7,0.1-0.9,0.2c-0.3,0.1-0.5,0.3-0.7,0.6c-0.2,0.2-0.4,0.6-0.5,0.9    c-0.1,0.4-0.2,0.8-0.2,1.3c0,0.5,0.1,1,0.2,1.3s0.3,0.7,0.5,0.9c0.2,0.2,0.5,0.4,0.8,0.5c0.3,0.1,0.6,0.2,0.9,0.2    c0.4,0,0.9-0.1,1.2-0.2c0.4-0.2,0.7-0.4,1.1-0.7h0.1V347.1z"/> 		<path d="M189.7,347.7h-0.9v-0.6c-0.1,0.1-0.2,0.1-0.3,0.2c-0.1,0.1-0.3,0.2-0.4,0.2c-0.1,0.1-0.3,0.1-0.5,0.2    c-0.2,0.1-0.4,0.1-0.7,0.1c-0.5,0-0.9-0.2-1.2-0.5c-0.3-0.3-0.5-0.7-0.5-1.2c0-0.4,0.1-0.7,0.3-1c0.2-0.3,0.4-0.5,0.7-0.6    c0.3-0.1,0.7-0.2,1.1-0.3s0.9-0.1,1.4-0.1v-0.1c0-0.2,0-0.4-0.1-0.5s-0.2-0.2-0.3-0.3c-0.1-0.1-0.3-0.1-0.4-0.2s-0.4,0-0.5,0    c-0.2,0-0.5,0-0.8,0.1c-0.3,0.1-0.6,0.2-0.9,0.3h0v-0.9c0.2,0,0.4-0.1,0.7-0.2c0.3-0.1,0.6-0.1,0.9-0.1c0.4,0,0.7,0,0.9,0.1    c0.3,0.1,0.5,0.2,0.7,0.3c0.2,0.1,0.3,0.3,0.4,0.6s0.2,0.5,0.2,0.9V347.7z M188.8,346.3v-1.5c-0.3,0-0.6,0-0.9,0.1    s-0.6,0.1-0.9,0.1c-0.2,0.1-0.5,0.2-0.6,0.3c-0.2,0.2-0.2,0.4-0.2,0.7c0,0.3,0.1,0.5,0.3,0.7c0.2,0.2,0.5,0.2,0.8,0.2    c0.3,0,0.6-0.1,0.8-0.2C188.3,346.7,188.6,346.5,188.8,346.3z"/> 		<path d="M195,346.1c0,0.5-0.2,0.9-0.6,1.2s-0.9,0.5-1.6,0.5c-0.4,0-0.7,0-1-0.1c-0.3-0.1-0.6-0.2-0.8-0.3v-1h0    c0.3,0.2,0.6,0.4,0.9,0.5c0.3,0.1,0.7,0.2,1,0.2c0.4,0,0.7-0.1,0.9-0.2s0.3-0.3,0.3-0.6c0-0.2-0.1-0.4-0.2-0.5    c-0.1-0.1-0.3-0.2-0.7-0.3c-0.1,0-0.3-0.1-0.5-0.1s-0.4-0.1-0.5-0.1c-0.5-0.1-0.8-0.3-1-0.6c-0.2-0.2-0.3-0.5-0.3-0.9    c0-0.2,0-0.4,0.1-0.6c0.1-0.2,0.2-0.4,0.4-0.5c0.2-0.2,0.4-0.3,0.7-0.4c0.3-0.1,0.6-0.1,0.9-0.1c0.3,0,0.6,0,0.9,0.1    c0.3,0.1,0.6,0.2,0.8,0.3v1h0c-0.2-0.2-0.5-0.3-0.8-0.4c-0.3-0.1-0.6-0.2-0.9-0.2c-0.3,0-0.6,0.1-0.8,0.2    c-0.2,0.1-0.3,0.3-0.3,0.6c0,0.2,0.1,0.4,0.2,0.5c0.1,0.1,0.3,0.2,0.6,0.3c0.2,0,0.3,0.1,0.5,0.1s0.4,0.1,0.5,0.1    c0.4,0.1,0.7,0.3,0.9,0.5C194.9,345.4,195,345.7,195,346.1z"/> 		<path d="M198.9,347.6c-0.2,0-0.3,0.1-0.5,0.1c-0.2,0-0.4,0-0.5,0c-0.5,0-0.9-0.1-1.2-0.4c-0.3-0.3-0.4-0.8-0.4-1.4V343h-0.6v-0.8    h0.6v-1.6h0.9v1.6h1.8v0.8h-1.8v2.5c0,0.3,0,0.5,0,0.7c0,0.2,0.1,0.3,0.1,0.5c0.1,0.1,0.2,0.2,0.3,0.3c0.1,0.1,0.3,0.1,0.5,0.1    c0.1,0,0.3,0,0.4-0.1c0.2,0,0.3-0.1,0.3-0.1h0V347.6z"/> 		<path d="M204.3,345h-3.8c0,0.3,0,0.6,0.1,0.9c0.1,0.2,0.2,0.5,0.4,0.6c0.2,0.2,0.3,0.3,0.6,0.4c0.2,0.1,0.5,0.1,0.7,0.1    c0.4,0,0.7-0.1,1.1-0.2c0.4-0.1,0.6-0.3,0.8-0.4h0v1c-0.3,0.1-0.6,0.2-0.9,0.3c-0.3,0.1-0.6,0.1-1,0.1c-0.9,0-1.5-0.2-2-0.7    c-0.5-0.5-0.7-1.2-0.7-2.1c0-0.9,0.2-1.6,0.7-2.1s1.1-0.8,1.8-0.8c0.7,0,1.2,0.2,1.6,0.6s0.6,1,0.6,1.8V345z M203.4,344.3    c0-0.5-0.1-0.9-0.3-1.1s-0.6-0.4-1-0.4c-0.5,0-0.8,0.1-1.1,0.4c-0.3,0.3-0.4,0.6-0.5,1.1H203.4z"/> 		<path d="M206.5,347.7h-0.9v-7.6h0.9V347.7z"/> 		<path d="M209.1,347.7h-0.9v-7.6h0.9V347.7z"/> 		<path d="M215.1,345h-3.8c0,0.3,0,0.6,0.1,0.9c0.1,0.2,0.2,0.5,0.4,0.6c0.2,0.2,0.3,0.3,0.6,0.4c0.2,0.1,0.5,0.1,0.7,0.1    c0.4,0,0.7-0.1,1.1-0.2c0.4-0.1,0.6-0.3,0.8-0.4h0v1c-0.3,0.1-0.6,0.2-0.9,0.3c-0.3,0.1-0.6,0.1-1,0.1c-0.9,0-1.5-0.2-2-0.7    c-0.5-0.5-0.7-1.2-0.7-2.1c0-0.9,0.2-1.6,0.7-2.1s1.1-0.8,1.8-0.8c0.7,0,1.2,0.2,1.6,0.6s0.6,1,0.6,1.8V345z M214.3,344.3    c0-0.5-0.1-0.9-0.3-1.1s-0.6-0.4-1-0.4c-0.5,0-0.8,0.1-1.1,0.4c-0.3,0.3-0.4,0.6-0.5,1.1H214.3z"/> 		<path d="M219.1,347.6c-0.2,0-0.3,0.1-0.5,0.1c-0.2,0-0.4,0-0.5,0c-0.5,0-0.9-0.1-1.2-0.4s-0.4-0.8-0.4-1.4V343h-0.6v-0.8h0.6v-1.6    h0.9v1.6h1.8v0.8h-1.8v2.5c0,0.3,0,0.5,0,0.7c0,0.2,0.1,0.3,0.1,0.5c0.1,0.1,0.2,0.2,0.3,0.3c0.1,0.1,0.3,0.1,0.5,0.1    c0.1,0,0.3,0,0.4-0.1c0.2,0,0.3-0.1,0.3-0.1h0V347.6z"/> 		<path d="M224.4,341.3h-1v-1h1V341.3z M224.3,347.7h-0.9v-5.5h0.9V347.7z"/> 		<path d="M182,357.7h-0.9v-7.6h0.9V357.7z"/> 		<path d="M187.7,357.7h-0.9v-0.6c-0.1,0.1-0.2,0.1-0.3,0.2c-0.1,0.1-0.3,0.2-0.4,0.2c-0.1,0.1-0.3,0.1-0.5,0.2    c-0.2,0.1-0.4,0.1-0.7,0.1c-0.5,0-0.9-0.2-1.2-0.5c-0.3-0.3-0.5-0.7-0.5-1.2c0-0.4,0.1-0.7,0.3-1c0.2-0.3,0.4-0.5,0.7-0.6    c0.3-0.1,0.7-0.2,1.1-0.3s0.9-0.1,1.4-0.1v-0.1c0-0.2,0-0.4-0.1-0.5c-0.1-0.1-0.2-0.2-0.3-0.3c-0.1-0.1-0.3-0.1-0.4-0.2    s-0.4,0-0.5,0c-0.2,0-0.5,0-0.8,0.1c-0.3,0.1-0.6,0.2-0.9,0.3h0v-0.9c0.2,0,0.4-0.1,0.7-0.2c0.3-0.1,0.6-0.1,0.9-0.1    c0.4,0,0.7,0,0.9,0.1c0.3,0.1,0.5,0.2,0.7,0.3c0.2,0.1,0.3,0.3,0.4,0.6s0.2,0.5,0.2,0.9V357.7z M186.8,356.3v-1.5    c-0.3,0-0.6,0-0.9,0.1s-0.6,0.1-0.9,0.1c-0.2,0.1-0.5,0.2-0.6,0.3c-0.2,0.2-0.2,0.4-0.2,0.7c0,0.3,0.1,0.5,0.3,0.7    c0.2,0.2,0.5,0.2,0.8,0.2c0.3,0,0.6-0.1,0.8-0.2C186.4,356.7,186.6,356.5,186.8,356.3z"/> 		<path d="M198.5,357.1c-0.4,0.2-0.8,0.3-1.2,0.5c-0.4,0.1-0.9,0.2-1.3,0.2c-0.5,0-1-0.1-1.5-0.2c-0.4-0.2-0.8-0.4-1.1-0.7    c-0.3-0.3-0.6-0.7-0.7-1.2c-0.2-0.5-0.3-1-0.3-1.7c0-1.2,0.3-2.1,1-2.8c0.6-0.7,1.5-1,2.6-1c0.4,0,0.8,0,1.2,0.1    c0.4,0.1,0.8,0.3,1.3,0.5v1.1h-0.1c-0.1-0.1-0.2-0.2-0.4-0.3s-0.4-0.2-0.5-0.3c-0.2-0.1-0.5-0.2-0.7-0.3c-0.3-0.1-0.6-0.1-0.9-0.1    c-0.8,0-1.4,0.3-1.8,0.8c-0.4,0.5-0.7,1.2-0.7,2.1c0,0.9,0.2,1.7,0.7,2.2c0.5,0.5,1.1,0.8,1.9,0.8c0.3,0,0.6,0,0.9-0.1    s0.6-0.1,0.8-0.2v-1.8h-1.8V354h2.7V357.1z"/> 		<path d="M204.4,355c0,0.9-0.2,1.6-0.6,2.1s-1,0.8-1.7,0.8c-0.7,0-1.3-0.3-1.7-0.8s-0.6-1.2-0.6-2.1s0.2-1.6,0.6-2.1    c0.4-0.5,1-0.8,1.7-0.8c0.7,0,1.3,0.3,1.7,0.8C204.2,353.4,204.4,354.1,204.4,355z M203.5,355c0-0.7-0.1-1.2-0.4-1.6    c-0.3-0.3-0.6-0.5-1.1-0.5c-0.5,0-0.8,0.2-1.1,0.5c-0.3,0.3-0.4,0.9-0.4,1.6c0,0.7,0.1,1.2,0.4,1.6c0.3,0.4,0.6,0.5,1.1,0.5    c0.5,0,0.8-0.2,1.1-0.5C203.4,356.2,203.5,355.6,203.5,355z"/> 		<path d="M209,353.2L209,353.2c-0.2,0-0.3-0.1-0.4-0.1c-0.1,0-0.3,0-0.4,0c-0.3,0-0.5,0.1-0.8,0.2c-0.2,0.1-0.5,0.3-0.7,0.5v3.9    h-0.9v-5.5h0.9v0.8c0.3-0.3,0.6-0.5,0.9-0.6c0.3-0.1,0.5-0.2,0.8-0.2c0.2,0,0.3,0,0.3,0c0.1,0,0.2,0,0.3,0V353.2z"/> 		<path d="M214.1,357.7h-0.9v-3.1c0-0.3,0-0.5,0-0.7c0-0.2-0.1-0.4-0.2-0.5c-0.1-0.1-0.2-0.2-0.3-0.3c-0.1-0.1-0.3-0.1-0.6-0.1    c-0.2,0-0.5,0.1-0.7,0.2s-0.5,0.3-0.7,0.5v4.1h-0.9v-5.5h0.9v0.6c0.3-0.2,0.6-0.4,0.8-0.6c0.3-0.1,0.6-0.2,0.9-0.2    c0.6,0,1,0.2,1.3,0.5c0.3,0.4,0.4,0.9,0.4,1.5V357.7z"/> 		<path d="M219.8,357.7h-0.9v-0.6c-0.1,0.1-0.2,0.1-0.3,0.2c-0.1,0.1-0.3,0.2-0.4,0.2c-0.1,0.1-0.3,0.1-0.5,0.2    c-0.2,0.1-0.4,0.1-0.7,0.1c-0.5,0-0.9-0.2-1.2-0.5c-0.3-0.3-0.5-0.7-0.5-1.2c0-0.4,0.1-0.7,0.3-1c0.2-0.3,0.4-0.5,0.7-0.6    c0.3-0.1,0.7-0.2,1.1-0.3s0.9-0.1,1.4-0.1v-0.1c0-0.2,0-0.4-0.1-0.5c-0.1-0.1-0.2-0.2-0.3-0.3c-0.1-0.1-0.3-0.1-0.4-0.2    c-0.2,0-0.4,0-0.5,0c-0.2,0-0.5,0-0.8,0.1c-0.3,0.1-0.6,0.2-0.9,0.3h0v-0.9c0.2,0,0.4-0.1,0.7-0.2s0.6-0.1,0.9-0.1    c0.4,0,0.7,0,0.9,0.1c0.3,0.1,0.5,0.2,0.7,0.3c0.2,0.1,0.3,0.3,0.4,0.6s0.2,0.5,0.2,0.9V357.7z M218.9,356.3v-1.5    c-0.3,0-0.6,0-0.9,0.1s-0.6,0.1-0.9,0.1c-0.2,0.1-0.5,0.2-0.6,0.3c-0.2,0.2-0.2,0.4-0.2,0.7c0,0.3,0.1,0.5,0.3,0.7    c0.2,0.2,0.5,0.2,0.8,0.2c0.3,0,0.6-0.1,0.8-0.2C218.5,356.7,218.7,356.5,218.9,356.3z"/> 		<path d="M222.3,357.7h-0.9v-7.6h0.9V357.7z"/> 	</g> 	<g> 		<path d="M266.6,144.8c0,0.3-0.1,0.6-0.2,0.8c-0.1,0.3-0.3,0.5-0.5,0.7c-0.2,0.2-0.5,0.4-0.9,0.5c-0.3,0.1-0.7,0.2-1.2,0.2    c-0.5,0-0.9,0-1.3-0.1c-0.4-0.1-0.8-0.2-1.2-0.4v-1.2h0.1c0.3,0.3,0.7,0.5,1.2,0.7c0.5,0.2,0.9,0.2,1.3,0.2c0.6,0,1-0.1,1.3-0.3    s0.5-0.5,0.5-0.9c0-0.3-0.1-0.6-0.2-0.7s-0.4-0.3-0.7-0.4c-0.2-0.1-0.5-0.1-0.8-0.2c-0.3,0-0.6-0.1-0.9-0.2    c-0.6-0.1-1.1-0.4-1.4-0.7c-0.3-0.3-0.4-0.8-0.4-1.3c0-0.6,0.2-1.1,0.7-1.5c0.5-0.4,1.1-0.6,1.9-0.6c0.5,0,0.9,0,1.3,0.1    c0.4,0.1,0.8,0.2,1.1,0.4v1.1h-0.1c-0.3-0.2-0.6-0.4-1-0.6c-0.4-0.2-0.9-0.2-1.3-0.2c-0.5,0-0.9,0.1-1.2,0.3s-0.4,0.5-0.4,0.8    c0,0.3,0.1,0.5,0.2,0.7s0.4,0.3,0.8,0.4c0.2,0,0.5,0.1,0.8,0.2c0.4,0.1,0.7,0.1,0.9,0.2c0.5,0.1,0.9,0.4,1.2,0.6    C266.4,143.8,266.6,144.2,266.6,144.8z"/> 		<path d="M272,146.8h-0.9v-0.6c-0.1,0.1-0.2,0.1-0.3,0.2c-0.1,0.1-0.3,0.2-0.4,0.2c-0.1,0.1-0.3,0.1-0.5,0.2s-0.4,0.1-0.7,0.1    c-0.5,0-0.9-0.2-1.2-0.5c-0.3-0.3-0.5-0.7-0.5-1.2c0-0.4,0.1-0.7,0.3-1c0.2-0.3,0.4-0.5,0.7-0.6c0.3-0.1,0.7-0.2,1.1-0.3    c0.4-0.1,0.9-0.1,1.4-0.1v-0.1c0-0.2,0-0.4-0.1-0.5c-0.1-0.1-0.2-0.2-0.3-0.3c-0.1-0.1-0.3-0.1-0.4-0.2c-0.2,0-0.4,0-0.5,0    c-0.2,0-0.5,0-0.8,0.1c-0.3,0.1-0.6,0.2-0.9,0.3h0v-0.9c0.2,0,0.4-0.1,0.7-0.2c0.3-0.1,0.6-0.1,0.9-0.1c0.4,0,0.7,0,0.9,0.1    s0.5,0.2,0.7,0.3c0.2,0.1,0.3,0.3,0.4,0.6s0.2,0.5,0.2,0.9V146.8z M271.1,145.5V144c-0.3,0-0.6,0-0.9,0.1s-0.6,0.1-0.9,0.1    c-0.2,0.1-0.5,0.2-0.6,0.3c-0.2,0.2-0.2,0.4-0.2,0.7c0,0.3,0.1,0.5,0.3,0.7c0.2,0.2,0.5,0.2,0.8,0.2c0.3,0,0.6-0.1,0.8-0.2    C270.7,145.8,270.9,145.7,271.1,145.5z"/> 		<path d="M278,146.8h-0.9v-3.1c0-0.3,0-0.5,0-0.7c0-0.2-0.1-0.4-0.2-0.5c-0.1-0.1-0.2-0.2-0.3-0.3c-0.1-0.1-0.3-0.1-0.6-0.1    c-0.2,0-0.5,0.1-0.7,0.2s-0.5,0.3-0.7,0.5v4.1h-0.9v-5.5h0.9v0.6c0.3-0.2,0.6-0.4,0.8-0.6s0.6-0.2,0.9-0.2c0.6,0,1,0.2,1.3,0.5    c0.3,0.4,0.4,0.9,0.4,1.5V146.8z"/> 		<path d="M282.3,146.8c-0.2,0-0.3,0.1-0.5,0.1s-0.4,0-0.5,0c-0.5,0-0.9-0.1-1.2-0.4c-0.3-0.3-0.4-0.8-0.4-1.4v-2.9h-0.6v-0.8h0.6    v-1.6h0.9v1.6h1.8v0.8h-1.8v2.5c0,0.3,0,0.5,0,0.7c0,0.2,0.1,0.3,0.1,0.5c0.1,0.1,0.2,0.2,0.3,0.3c0.1,0.1,0.3,0.1,0.5,0.1    c0.1,0,0.3,0,0.4-0.1c0.2,0,0.3-0.1,0.3-0.1h0V146.8z"/> 		<path d="M291.8,144.8c0,0.3-0.1,0.6-0.2,0.8c-0.1,0.3-0.3,0.5-0.5,0.7c-0.2,0.2-0.5,0.4-0.9,0.5c-0.3,0.1-0.7,0.2-1.2,0.2    c-0.5,0-0.9,0-1.3-0.1s-0.8-0.2-1.2-0.4v-1.2h0.1c0.3,0.3,0.7,0.5,1.2,0.7s0.9,0.2,1.3,0.2c0.6,0,1-0.1,1.3-0.3s0.5-0.5,0.5-0.9    c0-0.3-0.1-0.6-0.2-0.7s-0.4-0.3-0.7-0.4c-0.2-0.1-0.5-0.1-0.8-0.2c-0.3,0-0.6-0.1-0.9-0.2c-0.6-0.1-1.1-0.4-1.4-0.7    c-0.3-0.3-0.4-0.8-0.4-1.3c0-0.6,0.2-1.1,0.7-1.5c0.5-0.4,1.1-0.6,1.9-0.6c0.5,0,0.9,0,1.3,0.1s0.8,0.2,1.1,0.4v1.1h-0.1    c-0.3-0.2-0.6-0.4-1-0.6c-0.4-0.2-0.9-0.2-1.3-0.2c-0.5,0-0.9,0.1-1.2,0.3s-0.4,0.5-0.4,0.8c0,0.3,0.1,0.5,0.2,0.7    s0.4,0.3,0.8,0.4c0.2,0,0.5,0.1,0.8,0.2c0.4,0.1,0.7,0.1,0.9,0.2c0.5,0.1,0.9,0.4,1.2,0.6C291.6,143.8,291.8,144.2,291.8,144.8z"/> 		<path d="M297.2,146.8h-0.9v-0.6c-0.1,0.1-0.2,0.1-0.3,0.2c-0.1,0.1-0.3,0.2-0.4,0.2c-0.1,0.1-0.3,0.1-0.5,0.2s-0.4,0.1-0.7,0.1    c-0.5,0-0.9-0.2-1.2-0.5s-0.5-0.7-0.5-1.2c0-0.4,0.1-0.7,0.3-1c0.2-0.3,0.4-0.5,0.7-0.6c0.3-0.1,0.7-0.2,1.1-0.3    c0.4-0.1,0.9-0.1,1.4-0.1v-0.1c0-0.2,0-0.4-0.1-0.5s-0.2-0.2-0.3-0.3c-0.1-0.1-0.3-0.1-0.4-0.2c-0.2,0-0.4,0-0.5,0    c-0.2,0-0.5,0-0.8,0.1s-0.6,0.2-0.9,0.3h0v-0.9c0.2,0,0.4-0.1,0.7-0.2c0.3-0.1,0.6-0.1,0.9-0.1c0.4,0,0.7,0,0.9,0.1    c0.3,0.1,0.5,0.2,0.7,0.3c0.2,0.1,0.3,0.3,0.4,0.6s0.2,0.5,0.2,0.9V146.8z M296.3,145.5V144c-0.3,0-0.6,0-0.9,0.1    s-0.6,0.1-0.9,0.1c-0.3,0.1-0.5,0.2-0.6,0.3c-0.2,0.2-0.2,0.4-0.2,0.7c0,0.3,0.1,0.5,0.3,0.7c0.2,0.2,0.5,0.2,0.8,0.2    c0.3,0,0.6-0.1,0.8-0.2C295.8,145.8,296.1,145.7,296.3,145.5z"/> 		<path d="M303,146.8h-0.9v-0.6c-0.2,0.2-0.5,0.4-0.8,0.5s-0.6,0.2-0.9,0.2c-0.6,0-1.1-0.3-1.5-0.8c-0.4-0.5-0.5-1.2-0.5-2.1    c0-0.5,0.1-0.9,0.2-1.2c0.1-0.4,0.3-0.7,0.5-0.9c0.2-0.2,0.5-0.4,0.7-0.6s0.6-0.2,0.9-0.2c0.3,0,0.5,0,0.7,0.1    c0.2,0.1,0.4,0.2,0.7,0.3v-2.4h0.9V146.8z M302.1,145.5v-3.1c-0.2-0.1-0.4-0.2-0.6-0.2s-0.4-0.1-0.6-0.1c-0.5,0-0.9,0.2-1.1,0.5    s-0.4,0.9-0.4,1.5c0,0.6,0.1,1.1,0.3,1.5c0.2,0.3,0.5,0.5,1,0.5c0.2,0,0.5-0.1,0.7-0.2C301.7,145.8,301.9,145.7,302.1,145.5z"/> 		<path d="M309,146.8h-0.9v-0.6c-0.3,0.2-0.6,0.4-0.8,0.6s-0.6,0.2-0.9,0.2c-0.5,0-1-0.2-1.3-0.5c-0.3-0.3-0.5-0.9-0.5-1.5v-3.5h0.9    v3.1c0,0.3,0,0.5,0,0.7c0,0.2,0.1,0.4,0.2,0.5c0.1,0.1,0.2,0.2,0.3,0.3c0.1,0.1,0.3,0.1,0.6,0.1c0.2,0,0.5-0.1,0.7-0.2    c0.3-0.1,0.5-0.3,0.7-0.5v-4.1h0.9V146.8z"/> 		<path d="M313.9,142.4L313.9,142.4c-0.2,0-0.3-0.1-0.4-0.1c-0.1,0-0.3,0-0.4,0c-0.3,0-0.5,0.1-0.8,0.2c-0.2,0.1-0.5,0.3-0.7,0.5    v3.9h-0.9v-5.5h0.9v0.8c0.3-0.3,0.6-0.5,0.9-0.6s0.5-0.2,0.8-0.2c0.2,0,0.3,0,0.3,0c0.1,0,0.2,0,0.3,0V142.4z"/> 		<path d="M319,146.8h-0.9v-3.1c0-0.3,0-0.5,0-0.7c0-0.2-0.1-0.4-0.2-0.5c-0.1-0.1-0.2-0.2-0.3-0.3c-0.1-0.1-0.3-0.1-0.6-0.1    c-0.2,0-0.5,0.1-0.7,0.2c-0.3,0.1-0.5,0.3-0.7,0.5v4.1h-0.9v-5.5h0.9v0.6c0.3-0.2,0.6-0.4,0.8-0.6s0.6-0.2,0.9-0.2    c0.6,0,1,0.2,1.3,0.5c0.3,0.4,0.4,0.9,0.4,1.5V146.8z"/> 		<path d="M322.6,138.6l-1.3,1.8h-0.7l0.8-1.8H322.6z M321.6,146.8h-0.9v-5.5h0.9V146.8z"/> 		<path d="M293.1,156.8h-0.9v-0.6c-0.2,0.2-0.5,0.4-0.8,0.5c-0.3,0.1-0.6,0.2-0.9,0.2c-0.6,0-1.1-0.3-1.5-0.8s-0.5-1.2-0.5-2.1    c0-0.5,0.1-0.9,0.2-1.2c0.1-0.4,0.3-0.7,0.5-0.9c0.2-0.2,0.5-0.4,0.7-0.6s0.6-0.2,0.9-0.2c0.3,0,0.5,0,0.7,0.1    c0.2,0.1,0.4,0.2,0.7,0.3v-2.4h0.9V156.8z M292.2,155.5v-3.1c-0.2-0.1-0.4-0.2-0.6-0.2s-0.4-0.1-0.6-0.1c-0.5,0-0.9,0.2-1.1,0.5    s-0.4,0.9-0.4,1.5c0,0.6,0.1,1.1,0.3,1.5c0.2,0.3,0.5,0.5,1,0.5c0.2,0,0.5-0.1,0.7-0.2C291.7,155.8,292,155.7,292.2,155.5z"/> 		<path d="M295.7,149.2l-0.2,2.8h-0.6l-0.2-2.8H295.7z"/> 		<path d="M302.3,156.8h-1l-0.7-2h-3l-0.7,2h-0.9l2.5-7.3h1.2L302.3,156.8z M300.4,154l-1.2-3.6L298,154H300.4z"/> 		<path d="M307.6,156.8h-0.9v-3.1c0-0.3,0-0.5,0-0.7c0-0.2-0.1-0.4-0.2-0.5c-0.1-0.1-0.2-0.2-0.3-0.3c-0.1-0.1-0.3-0.1-0.6-0.1    c-0.2,0-0.5,0.1-0.7,0.2c-0.3,0.1-0.5,0.3-0.7,0.5v4.1h-0.9v-5.5h0.9v0.6c0.3-0.2,0.6-0.4,0.8-0.6s0.6-0.2,0.9-0.2    c0.6,0,1,0.2,1.3,0.5c0.3,0.4,0.4,0.9,0.4,1.5V156.8z"/> 		<path d="M313.7,154.1c0,0.9-0.2,1.6-0.6,2.1s-1,0.8-1.7,0.8c-0.7,0-1.3-0.3-1.7-0.8c-0.4-0.5-0.6-1.2-0.6-2.1s0.2-1.6,0.6-2.1    c0.4-0.5,1-0.8,1.7-0.8c0.7,0,1.3,0.3,1.7,0.8C313.5,152.5,313.7,153.2,313.7,154.1z M312.8,154.1c0-0.7-0.1-1.2-0.4-1.6    c-0.3-0.3-0.6-0.5-1.1-0.5c-0.5,0-0.8,0.2-1.1,0.5c-0.3,0.3-0.4,0.9-0.4,1.6c0,0.7,0.1,1.2,0.4,1.6c0.3,0.4,0.6,0.5,1.1,0.5    c0.5,0,0.8-0.2,1.1-0.5C312.7,155.3,312.8,154.8,312.8,154.1z"/> 		<path d="M316,150.5h-1v-1h1V150.5z M315.9,156.8H315v-5.5h0.9V156.8z"/> 		<path d="M321.6,156.8h-0.9v-0.6c-0.1,0.1-0.2,0.1-0.3,0.2c-0.1,0.1-0.3,0.2-0.4,0.2c-0.1,0.1-0.3,0.1-0.5,0.2    c-0.2,0.1-0.4,0.1-0.7,0.1c-0.5,0-0.9-0.2-1.2-0.5c-0.3-0.3-0.5-0.7-0.5-1.2c0-0.4,0.1-0.7,0.3-1c0.2-0.3,0.4-0.5,0.7-0.6    c0.3-0.1,0.7-0.2,1.1-0.3s0.9-0.1,1.4-0.1v-0.1c0-0.2,0-0.4-0.1-0.5s-0.2-0.2-0.3-0.3c-0.1-0.1-0.3-0.1-0.4-0.2    c-0.2,0-0.4,0-0.5,0c-0.2,0-0.5,0-0.8,0.1c-0.3,0.1-0.6,0.2-0.9,0.3h0v-0.9c0.2,0,0.4-0.1,0.7-0.2c0.3-0.1,0.6-0.1,0.9-0.1    c0.4,0,0.7,0,0.9,0.1c0.3,0.1,0.5,0.2,0.7,0.3c0.2,0.1,0.3,0.3,0.4,0.6s0.2,0.5,0.2,0.9V156.8z M320.8,155.5V154    c-0.3,0-0.6,0-0.9,0.1s-0.6,0.1-0.9,0.1c-0.2,0.1-0.5,0.2-0.6,0.3c-0.2,0.2-0.2,0.4-0.2,0.7c0,0.3,0.1,0.5,0.3,0.7    c0.2,0.2,0.5,0.2,0.8,0.2c0.3,0,0.6-0.1,0.8-0.2C320.3,155.8,320.5,155.7,320.8,155.5z"/> 	</g> 	<g> 		<path d="M353.8,108c0,0.3-0.1,0.6-0.2,0.8c-0.1,0.3-0.3,0.5-0.5,0.7c-0.2,0.2-0.5,0.4-0.9,0.5c-0.3,0.1-0.7,0.2-1.2,0.2    c-0.5,0-0.9,0-1.3-0.1c-0.4-0.1-0.8-0.2-1.2-0.4v-1.2h0.1c0.3,0.3,0.7,0.5,1.2,0.7c0.5,0.2,0.9,0.2,1.3,0.2c0.6,0,1-0.1,1.3-0.3    s0.5-0.5,0.5-0.9c0-0.3-0.1-0.6-0.2-0.7s-0.4-0.3-0.7-0.4c-0.2-0.1-0.5-0.1-0.8-0.2s-0.6-0.1-0.9-0.2c-0.6-0.1-1.1-0.4-1.4-0.7    s-0.4-0.8-0.4-1.3c0-0.6,0.2-1.1,0.7-1.5s1.1-0.6,1.9-0.6c0.5,0,0.9,0,1.3,0.1c0.4,0.1,0.8,0.2,1.1,0.4v1.1h-0.1    c-0.3-0.2-0.6-0.4-1-0.6c-0.4-0.2-0.9-0.2-1.3-0.2c-0.5,0-0.9,0.1-1.2,0.3s-0.4,0.5-0.4,0.8c0,0.3,0.1,0.5,0.2,0.7    s0.4,0.3,0.8,0.4c0.2,0,0.5,0.1,0.8,0.2c0.4,0.1,0.7,0.1,0.9,0.2c0.5,0.1,0.9,0.4,1.2,0.6C353.7,107,353.8,107.4,353.8,108z"/> 		<path d="M359.3,110h-0.9v-0.6c-0.1,0.1-0.2,0.1-0.3,0.2s-0.3,0.2-0.4,0.2c-0.1,0.1-0.3,0.1-0.5,0.2s-0.4,0.1-0.7,0.1    c-0.5,0-0.9-0.2-1.2-0.5c-0.3-0.3-0.5-0.7-0.5-1.2c0-0.4,0.1-0.7,0.3-1s0.4-0.5,0.7-0.6c0.3-0.1,0.7-0.2,1.1-0.3    c0.4-0.1,0.9-0.1,1.4-0.1v-0.1c0-0.2,0-0.4-0.1-0.5c-0.1-0.1-0.2-0.2-0.3-0.3c-0.1-0.1-0.3-0.1-0.4-0.2c-0.2,0-0.4,0-0.5,0    c-0.2,0-0.5,0-0.8,0.1c-0.3,0.1-0.6,0.2-0.9,0.3h0v-0.9c0.2,0,0.4-0.1,0.7-0.2c0.3-0.1,0.6-0.1,0.9-0.1c0.4,0,0.7,0,0.9,0.1    s0.5,0.2,0.7,0.3c0.2,0.1,0.3,0.3,0.4,0.6s0.2,0.5,0.2,0.9V110z M358.4,108.7v-1.5c-0.3,0-0.6,0-0.9,0.1s-0.6,0.1-0.9,0.1    c-0.2,0.1-0.5,0.2-0.6,0.3c-0.2,0.2-0.2,0.4-0.2,0.7c0,0.3,0.1,0.5,0.3,0.7s0.5,0.2,0.8,0.2c0.3,0,0.6-0.1,0.8-0.2    C357.9,109,358.2,108.9,358.4,108.7z"/> 		<path d="M365.2,110h-0.9v-3.1c0-0.3,0-0.5,0-0.7c0-0.2-0.1-0.4-0.2-0.5c-0.1-0.1-0.2-0.2-0.3-0.3s-0.3-0.1-0.6-0.1    c-0.2,0-0.5,0.1-0.7,0.2s-0.5,0.3-0.7,0.5v4.1h-0.9v-5.5h0.9v0.6c0.3-0.2,0.6-0.4,0.8-0.6s0.6-0.2,0.9-0.2c0.6,0,1,0.2,1.3,0.5    s0.4,0.9,0.4,1.5V110z"/> 		<path d="M369.6,110c-0.2,0-0.3,0.1-0.5,0.1s-0.4,0-0.5,0c-0.5,0-0.9-0.1-1.2-0.4c-0.3-0.3-0.4-0.8-0.4-1.4v-2.9h-0.6v-0.8h0.6V103    h0.9v1.6h1.8v0.8h-1.8v2.5c0,0.3,0,0.5,0,0.7c0,0.2,0.1,0.3,0.1,0.5c0.1,0.1,0.2,0.2,0.3,0.3c0.1,0.1,0.3,0.1,0.5,0.1    c0.1,0,0.3,0,0.4-0.1c0.2,0,0.3-0.1,0.3-0.1h0V110z"/> 		<path d="M378.4,110H374v-7.3h0.9v6.4h3.4V110z"/> 		<path d="M380.1,110h-0.9v-7.6h0.9V110z"/> 		<path d="M386.2,107.3c0,0.9-0.2,1.6-0.6,2.1s-1,0.8-1.7,0.8c-0.7,0-1.3-0.3-1.7-0.8c-0.4-0.5-0.6-1.2-0.6-2.1s0.2-1.6,0.6-2.1    c0.4-0.5,1-0.8,1.7-0.8c0.7,0,1.3,0.3,1.7,0.8S386.2,106.4,386.2,107.3z M385.3,107.3c0-0.7-0.1-1.2-0.4-1.6s-0.6-0.5-1.1-0.5    c-0.5,0-0.8,0.2-1.1,0.5c-0.3,0.3-0.4,0.9-0.4,1.6c0,0.7,0.1,1.2,0.4,1.6s0.6,0.5,1.1,0.5c0.5,0,0.8-0.2,1.1-0.5    C385.2,108.5,385.3,108,385.3,107.3z"/> 		<path d="M390.8,105.6L390.8,105.6c-0.2,0-0.3-0.1-0.4-0.1c-0.1,0-0.3,0-0.4,0c-0.3,0-0.5,0.1-0.8,0.2s-0.5,0.3-0.7,0.5v3.9h-0.9    v-5.5h0.9v0.8c0.3-0.3,0.6-0.5,0.9-0.6c0.3-0.1,0.5-0.2,0.8-0.2c0.2,0,0.3,0,0.3,0c0.1,0,0.2,0,0.3,0V105.6z"/> 		<path d="M395.9,107.4h-3.8c0,0.3,0,0.6,0.1,0.9c0.1,0.2,0.2,0.5,0.4,0.6c0.2,0.2,0.3,0.3,0.6,0.4c0.2,0.1,0.5,0.1,0.7,0.1    c0.4,0,0.7-0.1,1.1-0.2s0.6-0.3,0.8-0.4h0v1c-0.3,0.1-0.6,0.2-0.9,0.3s-0.6,0.1-1,0.1c-0.9,0-1.5-0.2-2-0.7    c-0.5-0.5-0.7-1.2-0.7-2.1c0-0.9,0.2-1.6,0.7-2.1s1.1-0.8,1.8-0.8c0.7,0,1.2,0.2,1.6,0.6s0.6,1,0.6,1.8V107.4z M395.1,106.7    c0-0.5-0.1-0.9-0.3-1.1c-0.2-0.3-0.6-0.4-1-0.4c-0.5,0-0.8,0.1-1.1,0.4s-0.4,0.6-0.5,1.1H395.1z"/> 		<path d="M401.5,110h-0.9v-3.1c0-0.3,0-0.5,0-0.7c0-0.2-0.1-0.4-0.2-0.5c-0.1-0.1-0.2-0.2-0.3-0.3s-0.3-0.1-0.6-0.1    c-0.2,0-0.5,0.1-0.7,0.2c-0.3,0.1-0.5,0.3-0.7,0.5v4.1h-0.9v-5.5h0.9v0.6c0.3-0.2,0.5-0.4,0.8-0.6c0.3-0.1,0.6-0.2,0.9-0.2    c0.6,0,1,0.2,1.3,0.5c0.3,0.4,0.4,0.9,0.4,1.5V110z"/> 		<path d="M407,109.7c-0.1,0-0.2,0.1-0.3,0.1c-0.1,0.1-0.2,0.1-0.3,0.1c0,0.1,0,0.1,0,0.2s0,0.2,0,0.3c0,0.5-0.1,0.9-0.4,1.2    s-0.6,0.4-1.1,0.4c-0.1,0-0.3,0-0.4,0s-0.3-0.1-0.5-0.1v-0.8h0c0.1,0,0.2,0.1,0.3,0.1c0.1,0,0.3,0.1,0.4,0.1    c0.3,0,0.6-0.1,0.7-0.2c0.2-0.1,0.2-0.3,0.2-0.6c0-0.1,0-0.1,0-0.2c0-0.1,0-0.1,0-0.2c0,0-0.1,0-0.1,0c0,0-0.1,0-0.2,0    c-0.4,0-0.7-0.1-1-0.2s-0.6-0.3-0.8-0.5c-0.2-0.2-0.4-0.5-0.5-0.9s-0.2-0.8-0.2-1.3c0-0.9,0.2-1.6,0.7-2.1s1.1-0.8,1.8-0.8    c0.3,0,0.6,0,0.9,0.1c0.3,0.1,0.5,0.2,0.8,0.3v1h0c-0.3-0.2-0.5-0.4-0.8-0.5c-0.3-0.1-0.6-0.2-0.8-0.2c-0.5,0-0.9,0.2-1.2,0.5    s-0.4,0.9-0.4,1.5c0,0.7,0.1,1.2,0.4,1.5s0.7,0.5,1.2,0.5c0.2,0,0.4,0,0.5-0.1s0.3-0.1,0.5-0.2c0.1-0.1,0.2-0.1,0.4-0.2    s0.2-0.1,0.3-0.2h0V109.7z"/> 		<path d="M359.8,120h-0.9v-0.6c-0.2,0.2-0.5,0.4-0.8,0.5c-0.3,0.1-0.6,0.2-0.9,0.2c-0.6,0-1.1-0.3-1.5-0.8s-0.5-1.2-0.5-2.1    c0-0.5,0.1-0.9,0.2-1.2s0.3-0.7,0.5-0.9c0.2-0.2,0.5-0.4,0.7-0.6s0.6-0.2,0.9-0.2c0.3,0,0.5,0,0.7,0.1c0.2,0.1,0.4,0.2,0.7,0.3    v-2.4h0.9V120z M358.9,118.7v-3.1c-0.2-0.1-0.4-0.2-0.6-0.2s-0.4-0.1-0.6-0.1c-0.5,0-0.9,0.2-1.1,0.5s-0.4,0.9-0.4,1.5    c0,0.6,0.1,1.1,0.3,1.5c0.2,0.3,0.5,0.5,1,0.5c0.2,0,0.5-0.1,0.7-0.2S358.7,118.9,358.9,118.7z"/> 		<path d="M362.4,112.4l-0.2,2.8h-0.6l-0.2-2.8H362.4z"/> 		<path d="M369.4,120h-0.9v-3.6H365v3.6h-0.9v-7.3h0.9v2.9h3.4v-2.9h0.9V120z"/> 		<path d="M375.5,117.3c0,0.9-0.2,1.6-0.6,2.1s-1,0.8-1.7,0.8c-0.7,0-1.3-0.3-1.7-0.8c-0.4-0.5-0.6-1.2-0.6-2.1s0.2-1.6,0.6-2.1    c0.4-0.5,1-0.8,1.7-0.8c0.7,0,1.3,0.3,1.7,0.8S375.5,116.4,375.5,117.3z M374.6,117.3c0-0.7-0.1-1.2-0.4-1.6    c-0.3-0.3-0.6-0.5-1.1-0.5c-0.5,0-0.8,0.2-1.1,0.5s-0.4,0.9-0.4,1.6c0,0.7,0.1,1.2,0.4,1.6c0.3,0.4,0.6,0.5,1.1,0.5    c0.5,0,0.8-0.2,1.1-0.5C374.5,118.5,374.6,118,374.6,117.3z"/> 		<path d="M380.1,115.6L380.1,115.6c-0.2,0-0.3-0.1-0.4-0.1c-0.1,0-0.3,0-0.4,0c-0.3,0-0.5,0.1-0.8,0.2s-0.5,0.3-0.7,0.5v3.9h-0.9    v-5.5h0.9v0.8c0.3-0.3,0.6-0.5,0.9-0.6s0.5-0.2,0.8-0.2c0.2,0,0.3,0,0.3,0s0.2,0,0.3,0V115.6z"/> 		<path d="M383.6,120c-0.2,0-0.3,0.1-0.5,0.1s-0.4,0-0.5,0c-0.5,0-0.9-0.1-1.2-0.4s-0.4-0.8-0.4-1.4v-2.9h-0.6v-0.8h0.6V113h0.9v1.6    h1.8v0.8h-1.8v2.5c0,0.3,0,0.5,0,0.7c0,0.2,0.1,0.3,0.1,0.5c0.1,0.1,0.2,0.2,0.3,0.3s0.3,0.1,0.5,0.1c0.1,0,0.3,0,0.4-0.1    c0.2,0,0.3-0.1,0.3-0.1h0V120z"/> 		<path d="M389,117.3c0,0.9-0.2,1.6-0.6,2.1s-1,0.8-1.7,0.8c-0.7,0-1.3-0.3-1.7-0.8c-0.4-0.5-0.6-1.2-0.6-2.1s0.2-1.6,0.6-2.1    c0.4-0.5,1-0.8,1.7-0.8c0.7,0,1.3,0.3,1.7,0.8S389,116.4,389,117.3z M388.1,117.3c0-0.7-0.1-1.2-0.4-1.6s-0.6-0.5-1.1-0.5    c-0.5,0-0.8,0.2-1.1,0.5s-0.4,0.9-0.4,1.6c0,0.7,0.1,1.2,0.4,1.6c0.3,0.4,0.6,0.5,1.1,0.5c0.5,0,0.8-0.2,1.1-0.5    S388.1,118,388.1,117.3z"/> 		<path d="M394.7,120h-0.9v-3.1c0-0.3,0-0.5,0-0.7c0-0.2-0.1-0.4-0.2-0.5c-0.1-0.1-0.2-0.2-0.3-0.3s-0.3-0.1-0.6-0.1    c-0.2,0-0.5,0.1-0.7,0.2c-0.3,0.1-0.5,0.3-0.7,0.5v4.1h-0.9v-5.5h0.9v0.6c0.3-0.2,0.6-0.4,0.8-0.6s0.6-0.2,0.9-0.2    c0.6,0,1,0.2,1.3,0.5c0.3,0.4,0.4,0.9,0.4,1.5V120z"/> 		<path d="M399.7,117.5c0.2,0.2,0.3,0.6,0.3,1c0,0.5-0.2,0.9-0.6,1.2c-0.4,0.3-0.9,0.5-1.6,0.5c-0.4,0-0.7,0-1-0.1s-0.6-0.2-0.8-0.3    v-1h0c0.3,0.2,0.6,0.4,0.9,0.5s0.7,0.2,1,0.2c0.4,0,0.7-0.1,0.9-0.2c0.2-0.1,0.3-0.3,0.3-0.6c0-0.2-0.1-0.4-0.2-0.5    c-0.1-0.1-0.3-0.2-0.7-0.3c-0.1,0-0.3-0.1-0.5-0.1s-0.4-0.1-0.5-0.1c-0.5-0.1-0.8-0.3-1-0.6c-0.2-0.2-0.3-0.5-0.3-0.9    c0-0.2,0-0.4,0.1-0.6c0.1-0.2,0.2-0.4,0.4-0.5c0.2-0.2,0.4-0.3,0.7-0.4c0.3-0.1,0.6-0.1,0.9-0.1c0.3,0,0.6,0,0.9,0.1    c0.3,0.1,0.6,0.2,0.8,0.3v1h0c-0.2-0.2-0.5-0.3-0.8-0.4s-0.6-0.2-0.9-0.2c-0.3,0-0.6,0.1-0.8,0.2c-0.2,0.1-0.3,0.3-0.3,0.6    c0,0.2,0.1,0.4,0.2,0.5c0.1,0.1,0.3,0.2,0.6,0.3c0.2,0,0.3,0.1,0.5,0.1s0.4,0.1,0.5,0.1C399.2,117.1,399.5,117.3,399.7,117.5    L399.7,117.5z"/> 	</g> 	<g> 		<path d="M364.5,239.8c0.3,0.3,0.5,0.7,0.6,1.2s0.2,1,0.2,1.6s-0.1,1.1-0.2,1.6s-0.4,0.9-0.6,1.2c-0.3,0.3-0.6,0.6-1,0.7    s-0.8,0.2-1.3,0.2c-0.5,0-0.9-0.1-1.3-0.3c-0.4-0.2-0.7-0.4-1-0.7c-0.3-0.3-0.5-0.7-0.6-1.2c-0.1-0.5-0.2-1-0.2-1.6    c0-0.6,0.1-1.1,0.2-1.6c0.1-0.5,0.4-0.9,0.6-1.2c0.3-0.3,0.6-0.6,1-0.7s0.8-0.3,1.3-0.3c0.5,0,0.9,0.1,1.3,0.3    S364.3,239.4,364.5,239.8z M364.5,242.6c0-0.9-0.2-1.7-0.6-2.2c-0.4-0.5-0.9-0.8-1.6-0.8c-0.7,0-1.2,0.3-1.6,0.8s-0.6,1.2-0.6,2.2    c0,1,0.2,1.7,0.6,2.2c0.4,0.5,1,0.8,1.6,0.8s1.2-0.3,1.6-0.8C364.3,244.2,364.5,243.5,364.5,242.6z"/> 		<path d="M367.7,246.2h-0.9v-7.6h0.9V246.2z"/> 		<path d="M373.7,243.6h-3.8c0,0.3,0,0.6,0.1,0.9s0.2,0.5,0.4,0.6c0.2,0.2,0.3,0.3,0.6,0.4s0.5,0.1,0.7,0.1c0.4,0,0.7-0.1,1.1-0.2    c0.4-0.1,0.6-0.3,0.8-0.4h0v1c-0.3,0.1-0.6,0.2-0.9,0.3s-0.6,0.1-1,0.1c-0.9,0-1.5-0.2-2-0.7c-0.5-0.5-0.7-1.2-0.7-2.1    c0-0.9,0.2-1.6,0.7-2.1c0.5-0.5,1.1-0.8,1.8-0.8c0.7,0,1.2,0.2,1.6,0.6c0.4,0.4,0.6,1,0.6,1.8V243.6z M372.9,242.9    c0-0.5-0.1-0.9-0.3-1.1c-0.2-0.3-0.6-0.4-1-0.4c-0.5,0-0.8,0.1-1.1,0.4s-0.4,0.6-0.5,1.1H372.9z"/> 		<path d="M378.4,243.7c0.2,0.2,0.3,0.6,0.3,1c0,0.5-0.2,0.9-0.6,1.2c-0.4,0.3-0.9,0.5-1.6,0.5c-0.4,0-0.7,0-1-0.1    c-0.3-0.1-0.6-0.2-0.8-0.3v-1h0c0.3,0.2,0.6,0.4,0.9,0.5c0.3,0.1,0.7,0.2,1,0.2c0.4,0,0.7-0.1,0.9-0.2c0.2-0.1,0.3-0.3,0.3-0.6    c0-0.2-0.1-0.4-0.2-0.5c-0.1-0.1-0.3-0.2-0.7-0.3c-0.1,0-0.3-0.1-0.5-0.1s-0.4-0.1-0.5-0.1c-0.5-0.1-0.8-0.3-1-0.6    c-0.2-0.2-0.3-0.5-0.3-0.9c0-0.2,0-0.4,0.1-0.6c0.1-0.2,0.2-0.4,0.4-0.5c0.2-0.2,0.4-0.3,0.7-0.4c0.3-0.1,0.6-0.1,0.9-0.1    c0.3,0,0.6,0,0.9,0.1c0.3,0.1,0.6,0.2,0.8,0.3v1h0c-0.2-0.2-0.5-0.3-0.8-0.4c-0.3-0.1-0.6-0.2-0.9-0.2c-0.3,0-0.6,0.1-0.8,0.2    c-0.2,0.1-0.3,0.3-0.3,0.6c0,0.2,0.1,0.4,0.2,0.5c0.1,0.1,0.3,0.2,0.6,0.3c0.2,0,0.3,0.1,0.5,0.1c0.2,0,0.4,0.1,0.5,0.1    C377.8,243.3,378.2,243.4,378.4,243.7L378.4,243.7z"/> 		<path d="M383.9,246.2h-0.9v-0.6c-0.1,0.1-0.2,0.1-0.3,0.2c-0.1,0.1-0.3,0.2-0.4,0.2c-0.1,0.1-0.3,0.1-0.5,0.2    c-0.2,0.1-0.4,0.1-0.7,0.1c-0.5,0-0.9-0.2-1.2-0.5s-0.5-0.7-0.5-1.2c0-0.4,0.1-0.7,0.3-1c0.2-0.3,0.4-0.5,0.7-0.6    c0.3-0.1,0.7-0.2,1.1-0.3c0.4-0.1,0.9-0.1,1.4-0.1v-0.1c0-0.2,0-0.4-0.1-0.5s-0.2-0.2-0.3-0.3c-0.1-0.1-0.3-0.1-0.4-0.2    c-0.2,0-0.4,0-0.5,0c-0.2,0-0.5,0-0.8,0.1s-0.6,0.2-0.9,0.3h0v-0.9c0.2,0,0.4-0.1,0.7-0.2c0.3-0.1,0.6-0.1,0.9-0.1    c0.4,0,0.7,0,0.9,0.1c0.3,0.1,0.5,0.2,0.7,0.3c0.2,0.1,0.3,0.3,0.4,0.6s0.2,0.5,0.2,0.9V246.2z M383.1,244.8v-1.5    c-0.3,0-0.6,0-0.9,0.1s-0.6,0.1-0.9,0.1c-0.3,0.1-0.5,0.2-0.6,0.3c-0.2,0.2-0.2,0.4-0.2,0.7c0,0.3,0.1,0.5,0.3,0.7    c0.2,0.2,0.5,0.2,0.8,0.2c0.3,0,0.6-0.1,0.8-0.2C382.6,245.2,382.9,245,383.1,244.8z"/> 		<path d="M393.1,246.2h-0.9v-0.6c-0.2,0.2-0.5,0.4-0.8,0.5c-0.3,0.1-0.6,0.2-0.9,0.2c-0.6,0-1.1-0.3-1.5-0.8s-0.5-1.2-0.5-2.1    c0-0.5,0.1-0.9,0.2-1.2c0.1-0.4,0.3-0.7,0.5-0.9c0.2-0.2,0.5-0.4,0.7-0.6s0.6-0.2,0.9-0.2c0.3,0,0.5,0,0.7,0.1    c0.2,0.1,0.4,0.2,0.7,0.3v-2.4h0.9V246.2z M392.3,244.8v-3.1c-0.2-0.1-0.4-0.2-0.6-0.2s-0.4-0.1-0.6-0.1c-0.5,0-0.9,0.2-1.1,0.5    s-0.4,0.9-0.4,1.5c0,0.6,0.1,1.1,0.3,1.5c0.2,0.3,0.5,0.5,1,0.5c0.2,0,0.5-0.1,0.7-0.2C391.8,245.2,392,245,392.3,244.8z"/> 		<path d="M399.1,243.6h-3.8c0,0.3,0,0.6,0.1,0.9s0.2,0.5,0.4,0.6c0.2,0.2,0.3,0.3,0.6,0.4s0.5,0.1,0.7,0.1c0.4,0,0.7-0.1,1.1-0.2    c0.4-0.1,0.6-0.3,0.8-0.4h0v1c-0.3,0.1-0.6,0.2-0.9,0.3c-0.3,0.1-0.6,0.1-1,0.1c-0.9,0-1.5-0.2-2-0.7c-0.5-0.5-0.7-1.2-0.7-2.1    c0-0.9,0.2-1.6,0.7-2.1s1.1-0.8,1.8-0.8c0.7,0,1.2,0.2,1.6,0.6s0.6,1,0.6,1.8V243.6z M398.3,242.9c0-0.5-0.1-0.9-0.3-1.1    c-0.2-0.3-0.6-0.4-1-0.4c-0.5,0-0.8,0.1-1.1,0.4s-0.4,0.6-0.5,1.1H398.3z"/> 		<path d="M355.8,254c0,0.4-0.1,0.7-0.2,1c-0.1,0.3-0.3,0.5-0.5,0.7c-0.3,0.2-0.5,0.4-0.9,0.5c-0.3,0.1-0.7,0.1-1.2,0.1h-2.4v-7.3h2    c0.5,0,0.9,0,1.1,0.1s0.5,0.1,0.7,0.2c0.3,0.1,0.4,0.3,0.5,0.5c0.1,0.2,0.2,0.5,0.2,0.8c0,0.3-0.1,0.6-0.3,0.9    c-0.2,0.2-0.4,0.4-0.7,0.6v0c0.5,0.1,0.8,0.3,1.1,0.6C355.6,253,355.8,253.4,355.8,254z M354.2,250.7c0-0.2,0-0.3-0.1-0.4    c-0.1-0.1-0.1-0.2-0.3-0.3c-0.1-0.1-0.3-0.1-0.5-0.2c-0.2,0-0.5,0-0.8,0h-1.1v2.1h1.2c0.3,0,0.5,0,0.7,0c0.2,0,0.3-0.1,0.5-0.2    s0.2-0.2,0.3-0.4C354.2,251.1,354.2,250.9,354.2,250.7z M354.8,254c0-0.3,0-0.5-0.1-0.7s-0.2-0.3-0.5-0.4    c-0.1-0.1-0.3-0.1-0.5-0.2s-0.5,0-0.8,0h-1.4v2.7h1.2c0.4,0,0.7,0,1-0.1c0.3,0,0.5-0.1,0.6-0.2c0.2-0.1,0.3-0.3,0.4-0.4    C354.8,254.5,354.8,254.2,354.8,254z"/> 		<path d="M361.4,253.5c0,0.9-0.2,1.6-0.6,2.1s-1,0.8-1.7,0.8c-0.7,0-1.3-0.3-1.7-0.8c-0.4-0.5-0.6-1.2-0.6-2.1s0.2-1.6,0.6-2.1    c0.4-0.5,1-0.8,1.7-0.8c0.7,0,1.3,0.3,1.7,0.8C361.2,251.9,361.4,252.6,361.4,253.5z M360.5,253.5c0-0.7-0.1-1.2-0.4-1.6    c-0.3-0.3-0.6-0.5-1.1-0.5c-0.5,0-0.8,0.2-1.1,0.5c-0.3,0.3-0.4,0.9-0.4,1.6c0,0.7,0.1,1.2,0.4,1.6c0.3,0.4,0.6,0.5,1.1,0.5    c0.5,0,0.8-0.2,1.1-0.5C360.3,254.7,360.5,254.2,360.5,253.5z"/> 		<path d="M367,256.2h-0.9v-3.1c0-0.3,0-0.5,0-0.7c0-0.2-0.1-0.4-0.2-0.5c-0.1-0.1-0.2-0.2-0.3-0.3c-0.1-0.1-0.3-0.1-0.6-0.1    c-0.2,0-0.5,0.1-0.7,0.2c-0.3,0.1-0.5,0.3-0.7,0.5v4.1h-0.9v-5.5h0.9v0.6c0.3-0.2,0.5-0.4,0.8-0.6c0.3-0.1,0.6-0.2,0.9-0.2    c0.6,0,1,0.2,1.3,0.5c0.3,0.4,0.4,0.9,0.4,1.5V256.2z"/> 		<path d="M373,253.6h-3.8c0,0.3,0,0.6,0.1,0.9c0.1,0.2,0.2,0.5,0.4,0.6c0.2,0.2,0.3,0.3,0.6,0.4c0.2,0.1,0.5,0.1,0.7,0.1    c0.4,0,0.7-0.1,1.1-0.2c0.4-0.1,0.6-0.3,0.8-0.4h0v1c-0.3,0.1-0.6,0.2-0.9,0.3s-0.6,0.1-1,0.1c-0.9,0-1.5-0.2-2-0.7    c-0.5-0.5-0.7-1.2-0.7-2.1c0-0.9,0.2-1.6,0.7-2.1s1.1-0.8,1.8-0.8c0.7,0,1.2,0.2,1.6,0.6s0.6,1,0.6,1.8V253.6z M372.2,252.9    c0-0.5-0.1-0.9-0.3-1.1c-0.2-0.3-0.6-0.4-1-0.4c-0.5,0-0.8,0.1-1.1,0.4s-0.4,0.6-0.5,1.1H372.2z"/> 		<path d="M377.7,253.7c0.2,0.2,0.3,0.6,0.3,1c0,0.5-0.2,0.9-0.6,1.2c-0.4,0.3-0.9,0.5-1.6,0.5c-0.4,0-0.7,0-1-0.1    c-0.3-0.1-0.6-0.2-0.8-0.3v-1h0c0.3,0.2,0.6,0.4,0.9,0.5c0.3,0.1,0.7,0.2,1,0.2c0.4,0,0.7-0.1,0.9-0.2c0.2-0.1,0.3-0.3,0.3-0.6    c0-0.2-0.1-0.4-0.2-0.5s-0.3-0.2-0.7-0.3c-0.1,0-0.3-0.1-0.5-0.1s-0.4-0.1-0.5-0.1c-0.5-0.1-0.8-0.3-1-0.6    c-0.2-0.2-0.3-0.5-0.3-0.9c0-0.2,0-0.4,0.1-0.6s0.2-0.4,0.4-0.5c0.2-0.2,0.4-0.3,0.7-0.4c0.3-0.1,0.6-0.1,0.9-0.1    c0.3,0,0.6,0,0.9,0.1c0.3,0.1,0.6,0.2,0.8,0.3v1h0c-0.2-0.2-0.5-0.3-0.8-0.4c-0.3-0.1-0.6-0.2-0.9-0.2c-0.3,0-0.6,0.1-0.8,0.2    c-0.2,0.1-0.3,0.3-0.3,0.6c0,0.2,0.1,0.4,0.2,0.5c0.1,0.1,0.3,0.2,0.6,0.3c0.2,0,0.3,0.1,0.5,0.1s0.4,0.1,0.5,0.1    C377.2,253.3,377.5,253.4,377.7,253.7L377.7,253.7z"/> 		<path d="M383.7,250.7l-2.1,5.5h-0.9l-2.1-5.5h0.9l1.6,4.3l1.6-4.3H383.7z"/> 		<path d="M388.7,256.2h-0.9v-0.6c-0.1,0.1-0.2,0.1-0.3,0.2c-0.1,0.1-0.3,0.2-0.4,0.2c-0.1,0.1-0.3,0.1-0.5,0.2    c-0.2,0.1-0.4,0.1-0.7,0.1c-0.5,0-0.9-0.2-1.2-0.5c-0.3-0.3-0.5-0.7-0.5-1.2c0-0.4,0.1-0.7,0.3-1c0.2-0.3,0.4-0.5,0.7-0.6    c0.3-0.1,0.7-0.2,1.1-0.3c0.4-0.1,0.9-0.1,1.4-0.1v-0.1c0-0.2,0-0.4-0.1-0.5c-0.1-0.1-0.2-0.2-0.3-0.3c-0.1-0.1-0.3-0.1-0.4-0.2    s-0.4,0-0.5,0c-0.2,0-0.5,0-0.8,0.1c-0.3,0.1-0.6,0.2-0.9,0.3h0v-0.9c0.2,0,0.4-0.1,0.7-0.2c0.3-0.1,0.6-0.1,0.9-0.1    c0.4,0,0.7,0,0.9,0.1s0.5,0.2,0.7,0.3c0.2,0.1,0.3,0.3,0.4,0.6s0.2,0.5,0.2,0.9V256.2z M387.8,254.8v-1.5c-0.3,0-0.6,0-0.9,0.1    s-0.6,0.1-0.9,0.1c-0.2,0.1-0.5,0.2-0.6,0.3c-0.2,0.2-0.2,0.4-0.2,0.7c0,0.3,0.1,0.5,0.3,0.7c0.2,0.2,0.5,0.2,0.8,0.2    c0.3,0,0.6-0.1,0.8-0.2C387.4,255.2,387.6,255,387.8,254.8z"/> 		<path d="M391.2,256.2h-0.9v-7.6h0.9V256.2z"/> 		<path d="M393.8,256.2h-0.9v-7.6h0.9V256.2z"/> 		<path d="M398.9,253.7c0.2,0.2,0.3,0.6,0.3,1c0,0.5-0.2,0.9-0.6,1.2c-0.4,0.3-0.9,0.5-1.6,0.5c-0.4,0-0.7,0-1-0.1    c-0.3-0.1-0.6-0.2-0.8-0.3v-1h0c0.3,0.2,0.6,0.4,0.9,0.5c0.3,0.1,0.7,0.2,1,0.2c0.4,0,0.7-0.1,0.9-0.2c0.2-0.1,0.3-0.3,0.3-0.6    c0-0.2-0.1-0.4-0.2-0.5c-0.1-0.1-0.3-0.2-0.7-0.3c-0.1,0-0.3-0.1-0.5-0.1s-0.4-0.1-0.5-0.1c-0.5-0.1-0.8-0.3-1-0.6    c-0.2-0.2-0.3-0.5-0.3-0.9c0-0.2,0-0.4,0.1-0.6c0.1-0.2,0.2-0.4,0.4-0.5c0.2-0.2,0.4-0.3,0.7-0.4c0.3-0.1,0.6-0.1,0.9-0.1    c0.3,0,0.6,0,0.9,0.1c0.3,0.1,0.6,0.2,0.8,0.3v1h0c-0.2-0.2-0.5-0.3-0.8-0.4c-0.3-0.1-0.6-0.2-0.9-0.2c-0.3,0-0.6,0.1-0.8,0.2    c-0.2,0.1-0.3,0.3-0.3,0.6c0,0.2,0.1,0.4,0.2,0.5c0.1,0.1,0.3,0.2,0.6,0.3c0.2,0,0.3,0.1,0.5,0.1c0.2,0,0.4,0.1,0.5,0.1    C398.3,253.3,398.7,253.4,398.9,253.7L398.9,253.7z"/> 	</g> 	<g> 		<path d="M65.4,169H63v6.4h-0.9V169h-2.5v-0.9h5.8V169z"/> 		<path d="M69.7,172.7c0,0.9-0.2,1.6-0.6,2.1s-1,0.8-1.7,0.8c-0.7,0-1.3-0.3-1.7-0.8s-0.6-1.2-0.6-2.1s0.2-1.6,0.6-2.1    s1-0.8,1.7-0.8c0.7,0,1.3,0.3,1.7,0.8S69.7,171.8,69.7,172.7z M68.8,172.7c0-0.7-0.1-1.2-0.4-1.6c-0.3-0.3-0.6-0.5-1.1-0.5    c-0.5,0-0.8,0.2-1.1,0.5c-0.3,0.3-0.4,0.9-0.4,1.6c0,0.7,0.1,1.2,0.4,1.6c0.3,0.4,0.6,0.5,1.1,0.5c0.5,0,0.8-0.2,1.1-0.5    C68.6,173.9,68.8,173.4,68.8,172.7z"/> 		<path d="M74.2,171L74.2,171c-0.2,0-0.3-0.1-0.4-0.1s-0.3,0-0.4,0c-0.3,0-0.5,0.1-0.8,0.2c-0.2,0.1-0.5,0.3-0.7,0.5v3.9H71V170h0.9    v0.8c0.3-0.3,0.6-0.5,0.9-0.6s0.5-0.2,0.8-0.2c0.2,0,0.3,0,0.3,0c0.1,0,0.2,0,0.3,0V171z"/> 		<path d="M78.2,171L78.2,171c-0.2,0-0.3-0.1-0.4-0.1s-0.3,0-0.4,0c-0.3,0-0.5,0.1-0.8,0.2c-0.2,0.1-0.5,0.3-0.7,0.5v3.9H75V170h0.9    v0.8c0.3-0.3,0.6-0.5,0.9-0.6s0.5-0.2,0.8-0.2c0.2,0,0.3,0,0.3,0s0.2,0,0.3,0V171z"/> 		<path d="M83.4,172.8h-3.8c0,0.3,0,0.6,0.1,0.9c0.1,0.2,0.2,0.5,0.4,0.6c0.2,0.2,0.3,0.3,0.6,0.4c0.2,0.1,0.5,0.1,0.7,0.1    c0.4,0,0.7-0.1,1.1-0.2s0.6-0.3,0.8-0.4h0v1c-0.3,0.1-0.6,0.2-0.9,0.3c-0.3,0.1-0.6,0.1-1,0.1c-0.9,0-1.5-0.2-2-0.7    s-0.7-1.2-0.7-2.1c0-0.9,0.2-1.6,0.7-2.1s1.1-0.8,1.8-0.8c0.7,0,1.2,0.2,1.6,0.6s0.6,1,0.6,1.8V172.8z M82.5,172.1    c0-0.5-0.1-0.9-0.3-1.1s-0.6-0.4-1-0.4c-0.5,0-0.8,0.1-1.1,0.4c-0.3,0.3-0.4,0.6-0.5,1.1H82.5z"/> 		<path d="M85.6,175.4h-0.9v-7.6h0.9V175.4z"/> 		<path d="M88.2,175.4h-0.9v-7.6h0.9V175.4z"/> 		<path d="M94.2,172.8h-3.8c0,0.3,0,0.6,0.1,0.9s0.2,0.5,0.4,0.6c0.2,0.2,0.4,0.3,0.6,0.4c0.2,0.1,0.5,0.1,0.7,0.1    c0.4,0,0.7-0.1,1.1-0.2c0.4-0.1,0.6-0.3,0.8-0.4h0v1c-0.3,0.1-0.6,0.2-0.9,0.3c-0.3,0.1-0.6,0.1-1,0.1c-0.9,0-1.5-0.2-2-0.7    c-0.5-0.5-0.7-1.2-0.7-2.1c0-0.9,0.2-1.6,0.7-2.1s1.1-0.8,1.8-0.8c0.7,0,1.2,0.2,1.6,0.6s0.6,1,0.6,1.8V172.8z M93.3,172.1    c0-0.5-0.1-0.9-0.3-1.1s-0.6-0.4-1-0.4c-0.5,0-0.8,0.1-1.1,0.4s-0.4,0.6-0.5,1.1H93.3z"/> 		<path d="M98.9,172.9c0.2,0.2,0.3,0.6,0.3,1c0,0.5-0.2,0.9-0.6,1.2s-0.9,0.5-1.6,0.5c-0.4,0-0.7,0-1-0.1c-0.3-0.1-0.6-0.2-0.8-0.3    v-1h0c0.3,0.2,0.6,0.4,0.9,0.5c0.3,0.1,0.7,0.2,1,0.2c0.4,0,0.7-0.1,0.9-0.2s0.3-0.3,0.3-0.6c0-0.2-0.1-0.4-0.2-0.5    c-0.1-0.1-0.3-0.2-0.7-0.3c-0.1,0-0.3-0.1-0.5-0.1s-0.4-0.1-0.5-0.1c-0.5-0.1-0.8-0.3-1-0.6c-0.2-0.2-0.3-0.5-0.3-0.9    c0-0.2,0-0.4,0.1-0.6c0.1-0.2,0.2-0.4,0.4-0.5c0.2-0.2,0.4-0.3,0.7-0.4s0.6-0.1,0.9-0.1c0.3,0,0.6,0,0.9,0.1    c0.3,0.1,0.6,0.2,0.8,0.3v1h0c-0.2-0.2-0.5-0.3-0.8-0.4c-0.3-0.1-0.6-0.2-0.9-0.2c-0.3,0-0.6,0.1-0.8,0.2    c-0.2,0.1-0.3,0.3-0.3,0.6c0,0.2,0.1,0.4,0.2,0.5c0.1,0.1,0.3,0.2,0.6,0.3c0.2,0,0.3,0.1,0.5,0.1s0.4,0.1,0.5,0.1    C98.3,172.5,98.6,172.7,98.9,172.9L98.9,172.9z"/> 		<path d="M70.7,185.4h-0.9v-0.6c-0.2,0.2-0.5,0.4-0.8,0.5c-0.3,0.1-0.6,0.2-0.9,0.2c-0.6,0-1.1-0.3-1.5-0.8s-0.5-1.2-0.5-2.1    c0-0.5,0.1-0.9,0.2-1.2c0.1-0.4,0.3-0.7,0.5-0.9c0.2-0.2,0.5-0.4,0.7-0.6s0.6-0.2,0.9-0.2c0.3,0,0.5,0,0.7,0.1    c0.2,0.1,0.4,0.2,0.7,0.3v-2.4h0.9V185.4z M69.8,184.1V181c-0.2-0.1-0.4-0.2-0.6-0.2s-0.4-0.1-0.6-0.1c-0.5,0-0.9,0.2-1.1,0.5    c-0.3,0.4-0.4,0.9-0.4,1.5c0,0.6,0.1,1.1,0.3,1.5c0.2,0.3,0.5,0.5,1,0.5c0.2,0,0.5-0.1,0.7-0.2C69.3,184.4,69.6,184.3,69.8,184.1z    "/> 		<path d="M76.7,182.8h-3.8c0,0.3,0,0.6,0.1,0.9c0.1,0.2,0.2,0.5,0.4,0.6c0.2,0.2,0.3,0.3,0.6,0.4c0.2,0.1,0.5,0.1,0.7,0.1    c0.4,0,0.7-0.1,1.1-0.2s0.6-0.3,0.8-0.4h0v1c-0.3,0.1-0.6,0.2-0.9,0.3c-0.3,0.1-0.6,0.1-1,0.1c-0.9,0-1.5-0.2-2-0.7    c-0.5-0.5-0.7-1.2-0.7-2.1c0-0.9,0.2-1.6,0.7-2.1s1.1-0.8,1.8-0.8c0.7,0,1.2,0.2,1.6,0.6s0.6,1,0.6,1.8V182.8z M75.8,182.1    c0-0.5-0.1-0.9-0.3-1.1s-0.6-0.4-1-0.4c-0.5,0-0.8,0.1-1.1,0.4c-0.3,0.3-0.4,0.6-0.5,1.1H75.8z"/> 		<path d="M85.8,179h-3.5v2.1h3v0.9h-3v3.5h-0.9v-7.3h4.4V179z"/> 		<path d="M90.9,182.7c0,0.9-0.2,1.6-0.6,2.1s-1,0.8-1.7,0.8c-0.7,0-1.3-0.3-1.7-0.8s-0.6-1.2-0.6-2.1s0.2-1.6,0.6-2.1    s1-0.8,1.7-0.8c0.7,0,1.3,0.3,1.7,0.8S90.9,181.8,90.9,182.7z M90,182.7c0-0.7-0.1-1.2-0.4-1.6c-0.3-0.3-0.6-0.5-1.1-0.5    c-0.5,0-0.8,0.2-1.1,0.5c-0.3,0.3-0.4,0.9-0.4,1.6c0,0.7,0.1,1.2,0.4,1.6c0.3,0.4,0.6,0.5,1.1,0.5c0.5,0,0.8-0.2,1.1-0.5    S90,183.4,90,182.7z"/> 		<path d="M93.2,179.1h-1v-1h1V179.1z M93.1,185.4h-0.9V180h0.9V185.4z"/> 		<path d="M99.3,185.4h-1.1l-1.5-2.1l-1.5,2.1h-1l2-2.7l-2-2.7h1.1l1.5,2.1l1.5-2.1h1l-2,2.7L99.3,185.4z"/> 	</g> 	<g> 		<path d="M157.2,90.4c0,0.3-0.1,0.6-0.2,0.8c-0.1,0.3-0.3,0.5-0.5,0.7c-0.2,0.2-0.5,0.4-0.9,0.5s-0.7,0.2-1.2,0.2    c-0.5,0-0.9,0-1.3-0.1c-0.4-0.1-0.8-0.2-1.2-0.4v-1.2h0.1c0.3,0.3,0.7,0.5,1.2,0.7s0.9,0.2,1.3,0.2c0.6,0,1-0.1,1.3-0.3    c0.3-0.2,0.5-0.5,0.5-0.9c0-0.3-0.1-0.6-0.2-0.7c-0.1-0.2-0.4-0.3-0.7-0.4c-0.2-0.1-0.5-0.1-0.8-0.2c-0.3,0-0.6-0.1-0.9-0.2    c-0.6-0.1-1.1-0.4-1.4-0.7c-0.3-0.3-0.4-0.8-0.4-1.3c0-0.6,0.2-1.1,0.7-1.5c0.5-0.4,1.1-0.6,1.9-0.6c0.5,0,0.9,0,1.3,0.1    c0.4,0.1,0.8,0.2,1.1,0.4v1.1h-0.1c-0.3-0.2-0.6-0.4-1-0.6c-0.4-0.2-0.9-0.2-1.3-0.2c-0.5,0-0.9,0.1-1.2,0.3s-0.4,0.5-0.4,0.8    c0,0.3,0.1,0.5,0.2,0.7c0.1,0.2,0.4,0.3,0.8,0.4c0.2,0,0.5,0.1,0.8,0.2c0.4,0.1,0.7,0.1,0.9,0.2c0.5,0.1,0.9,0.4,1.2,0.6    C157,89.4,157.2,89.9,157.2,90.4z"/> 		<path d="M162.6,92.5h-0.9v-0.6c-0.1,0.1-0.2,0.1-0.3,0.2c-0.1,0.1-0.3,0.2-0.4,0.2c-0.1,0.1-0.3,0.1-0.5,0.2    c-0.2,0.1-0.4,0.1-0.7,0.1c-0.5,0-0.9-0.2-1.2-0.5c-0.3-0.3-0.5-0.7-0.5-1.2c0-0.4,0.1-0.7,0.3-1c0.2-0.3,0.4-0.5,0.7-0.6    c0.3-0.1,0.7-0.2,1.1-0.3c0.4-0.1,0.9-0.1,1.4-0.1v-0.1c0-0.2,0-0.4-0.1-0.5s-0.2-0.2-0.3-0.3c-0.1-0.1-0.3-0.1-0.4-0.2    c-0.2,0-0.4,0-0.5,0c-0.2,0-0.5,0-0.8,0.1c-0.3,0.1-0.6,0.2-0.9,0.3h0v-0.9c0.2,0,0.4-0.1,0.7-0.2s0.6-0.1,0.9-0.1    c0.4,0,0.7,0,0.9,0.1s0.5,0.2,0.7,0.3c0.2,0.1,0.3,0.3,0.4,0.6c0.1,0.2,0.2,0.5,0.2,0.9V92.5z M161.7,91.1v-1.5    c-0.3,0-0.6,0-0.9,0.1c-0.4,0-0.6,0.1-0.9,0.1c-0.2,0.1-0.5,0.2-0.6,0.3c-0.2,0.2-0.2,0.4-0.2,0.7c0,0.3,0.1,0.5,0.3,0.7    c0.2,0.2,0.5,0.2,0.8,0.2c0.3,0,0.6-0.1,0.8-0.2C161.3,91.4,161.5,91.3,161.7,91.1z"/> 		<path d="M168.6,92.5h-0.9v-3.1c0-0.3,0-0.5,0-0.7c0-0.2-0.1-0.4-0.2-0.5c-0.1-0.1-0.2-0.2-0.3-0.3c-0.1-0.1-0.3-0.1-0.6-0.1    c-0.2,0-0.5,0.1-0.7,0.2c-0.3,0.1-0.5,0.3-0.7,0.5v4.1h-0.9V87h0.9v0.6c0.3-0.2,0.6-0.4,0.8-0.6c0.3-0.1,0.6-0.2,0.9-0.2    c0.6,0,1,0.2,1.3,0.5c0.3,0.4,0.4,0.9,0.4,1.5V92.5z"/> 		<path d="M172.9,92.4c-0.2,0-0.3,0.1-0.5,0.1c-0.2,0-0.4,0-0.5,0c-0.5,0-0.9-0.1-1.2-0.4c-0.3-0.3-0.4-0.8-0.4-1.4v-2.9h-0.6V87    h0.6v-1.6h0.9V87h1.8v0.8h-1.8v2.5c0,0.3,0,0.5,0,0.7s0.1,0.3,0.1,0.5c0.1,0.1,0.2,0.2,0.3,0.3c0.1,0.1,0.3,0.1,0.5,0.1    c0.1,0,0.3,0,0.4-0.1s0.3-0.1,0.3-0.1h0V92.4z"/> 		<path d="M183.5,94.2c-0.2,0-0.4,0.1-0.5,0.1c-0.2,0-0.4,0-0.6,0c-0.5,0-1-0.2-1.3-0.5c-0.3-0.3-0.5-0.8-0.5-1.3    c-0.1,0-0.1,0-0.2,0c-0.1,0-0.1,0-0.2,0c-0.5,0-0.9-0.1-1.3-0.3c-0.4-0.2-0.7-0.4-1-0.7s-0.5-0.7-0.6-1.2c-0.1-0.5-0.2-1-0.2-1.6    c0-0.6,0.1-1.1,0.2-1.6c0.1-0.5,0.4-0.9,0.6-1.2c0.3-0.3,0.6-0.6,1-0.7c0.4-0.2,0.8-0.3,1.3-0.3c0.5,0,0.9,0.1,1.3,0.3    s0.7,0.4,1,0.7c0.3,0.3,0.5,0.7,0.6,1.2c0.1,0.5,0.2,1,0.2,1.6c0,0.9-0.2,1.6-0.5,2.2c-0.3,0.6-0.8,1-1.4,1.3    c0,0.4,0.1,0.7,0.2,0.9s0.4,0.3,0.8,0.3c0.1,0,0.3,0,0.4-0.1s0.3-0.1,0.4-0.1h0.1V94.2z M182.4,88.8c0-0.9-0.2-1.7-0.6-2.2    s-0.9-0.8-1.6-0.8c-0.7,0-1.2,0.3-1.6,0.8s-0.6,1.2-0.6,2.2c0,1,0.2,1.7,0.6,2.2c0.4,0.5,1,0.8,1.6,0.8c0.7,0,1.2-0.3,1.6-0.8    C182.2,90.5,182.4,89.8,182.4,88.8z"/> 		<path d="M189,92.5h-0.9v-0.6c-0.3,0.2-0.6,0.4-0.8,0.6c-0.3,0.1-0.6,0.2-0.9,0.2c-0.5,0-1-0.2-1.3-0.5c-0.3-0.3-0.5-0.9-0.5-1.5    V87h0.9v3.1c0,0.3,0,0.5,0,0.7c0,0.2,0.1,0.4,0.2,0.5c0.1,0.1,0.2,0.2,0.3,0.3c0.1,0.1,0.3,0.1,0.6,0.1c0.2,0,0.5-0.1,0.7-0.2    c0.3-0.1,0.5-0.3,0.7-0.5V87h0.9V92.5z"/> 		<path d="M191.6,86.1h-1v-1h1V86.1z M191.6,92.5h-0.9V87h0.9V92.5z"/> 		<path d="M197.6,92.5h-0.9v-3.1c0-0.3,0-0.5,0-0.7c0-0.2-0.1-0.4-0.2-0.5c-0.1-0.1-0.2-0.2-0.3-0.3c-0.1-0.1-0.3-0.1-0.6-0.1    c-0.2,0-0.5,0.1-0.7,0.2c-0.3,0.1-0.5,0.3-0.7,0.5v4.1h-0.9V87h0.9v0.6c0.3-0.2,0.6-0.4,0.8-0.6c0.3-0.1,0.6-0.2,0.9-0.2    c0.6,0,1,0.2,1.3,0.5c0.3,0.4,0.4,0.9,0.4,1.5V92.5z"/> 		<path d="M201.9,92.4c-0.2,0-0.3,0.1-0.5,0.1c-0.2,0-0.4,0-0.5,0c-0.5,0-0.9-0.1-1.2-0.4c-0.3-0.3-0.4-0.8-0.4-1.4v-2.9h-0.6V87    h0.6v-1.6h0.9V87h1.8v0.8h-1.8v2.5c0,0.3,0,0.5,0,0.7s0.1,0.3,0.1,0.5c0.1,0.1,0.2,0.2,0.3,0.3c0.1,0.1,0.3,0.1,0.5,0.1    c0.1,0,0.3,0,0.4-0.1s0.3-0.1,0.3-0.1h0V92.4z"/> 		<path d="M204.8,84.3l-1.3,1.8h-0.7l0.8-1.8H204.8z M203.9,92.5H203V87h0.9V92.5z"/> 		<path d="M155.5,102.5h-0.9v-0.6c-0.2,0.2-0.5,0.4-0.8,0.5s-0.6,0.2-0.9,0.2c-0.6,0-1.1-0.3-1.5-0.8c-0.4-0.5-0.5-1.2-0.5-2.1    c0-0.5,0.1-0.9,0.2-1.2s0.3-0.7,0.5-0.9c0.2-0.2,0.5-0.4,0.7-0.6c0.3-0.1,0.6-0.2,0.9-0.2c0.3,0,0.5,0,0.7,0.1    c0.2,0.1,0.4,0.2,0.7,0.3v-2.4h0.9V102.5z M154.6,101.1V98c-0.2-0.1-0.4-0.2-0.6-0.2c-0.2,0-0.4-0.1-0.6-0.1    c-0.5,0-0.9,0.2-1.1,0.5c-0.3,0.4-0.4,0.9-0.4,1.5c0,0.6,0.1,1.1,0.3,1.5c0.2,0.3,0.5,0.5,1,0.5c0.2,0,0.5-0.1,0.7-0.2    C154.1,101.4,154.4,101.3,154.6,101.1z"/> 		<path d="M161.5,99.8h-3.8c0,0.3,0,0.6,0.1,0.9s0.2,0.5,0.4,0.6c0.2,0.2,0.4,0.3,0.6,0.4c0.2,0.1,0.5,0.1,0.7,0.1    c0.4,0,0.7-0.1,1.1-0.2c0.4-0.1,0.6-0.3,0.8-0.4h0v1c-0.3,0.1-0.6,0.2-0.9,0.3s-0.6,0.1-1,0.1c-0.9,0-1.5-0.2-2-0.7    c-0.5-0.5-0.7-1.2-0.7-2.1c0-0.9,0.2-1.6,0.7-2.1c0.5-0.5,1.1-0.8,1.8-0.8c0.7,0,1.2,0.2,1.6,0.6c0.4,0.4,0.6,1,0.6,1.8V99.8z     M160.6,99.1c0-0.5-0.1-0.9-0.3-1.1s-0.6-0.4-1-0.4c-0.5,0-0.8,0.1-1.1,0.4c-0.3,0.3-0.4,0.6-0.5,1.1H160.6z"/> 		<path d="M172.3,102.5h-0.9v-6.3l-1.9,4.3h-0.5l-1.9-4.3v6.3h-0.9v-7.3h1.2l1.8,4l1.8-4h1.3V102.5z"/> 		<path d="M178.4,99.8h-3.8c0,0.3,0,0.6,0.1,0.9c0.1,0.2,0.2,0.5,0.4,0.6c0.2,0.2,0.3,0.3,0.6,0.4c0.2,0.1,0.5,0.1,0.7,0.1    c0.4,0,0.7-0.1,1.1-0.2c0.4-0.1,0.6-0.3,0.8-0.4h0v1c-0.3,0.1-0.6,0.2-0.9,0.3c-0.3,0.1-0.6,0.1-1,0.1c-0.9,0-1.5-0.2-2-0.7    c-0.5-0.5-0.7-1.2-0.7-2.1c0-0.9,0.2-1.6,0.7-2.1c0.5-0.5,1.1-0.8,1.8-0.8c0.7,0,1.2,0.2,1.6,0.6c0.4,0.4,0.6,1,0.6,1.8V99.8z     M177.6,99.1c0-0.5-0.1-0.9-0.3-1.1s-0.6-0.4-1-0.4c-0.5,0-0.8,0.1-1.1,0.4c-0.3,0.3-0.4,0.6-0.5,1.1H177.6z"/> 		<path d="M183.9,102.5H183v-0.6c-0.2,0.2-0.5,0.4-0.8,0.5s-0.6,0.2-0.9,0.2c-0.6,0-1.1-0.3-1.5-0.8c-0.4-0.5-0.5-1.2-0.5-2.1    c0-0.5,0.1-0.9,0.2-1.2s0.3-0.7,0.5-0.9c0.2-0.2,0.5-0.4,0.7-0.6c0.3-0.1,0.6-0.2,0.9-0.2c0.3,0,0.5,0,0.7,0.1    c0.2,0.1,0.4,0.2,0.7,0.3v-2.4h0.9V102.5z M183,101.1V98c-0.2-0.1-0.4-0.2-0.6-0.2c-0.2,0-0.4-0.1-0.6-0.1c-0.5,0-0.9,0.2-1.1,0.5    c-0.3,0.4-0.4,0.9-0.4,1.5c0,0.6,0.1,1.1,0.3,1.5c0.2,0.3,0.5,0.5,1,0.5c0.2,0,0.5-0.1,0.7-0.2C182.6,101.4,182.8,101.3,183,101.1    z"/> 		<path d="M186.5,96.1h-1v-1h1V96.1z M186.5,102.5h-0.9V97h0.9V102.5z"/> 		<path d="M192.6,99.7c0,0.9-0.2,1.6-0.6,2.1c-0.4,0.5-1,0.8-1.7,0.8c-0.7,0-1.3-0.3-1.7-0.8c-0.4-0.5-0.6-1.2-0.6-2.1    s0.2-1.6,0.6-2.1c0.4-0.5,1-0.8,1.7-0.8c0.7,0,1.3,0.3,1.7,0.8C192.4,98.1,192.6,98.8,192.6,99.7z M191.7,99.7    c0-0.7-0.1-1.2-0.4-1.6c-0.3-0.3-0.6-0.5-1.1-0.5c-0.5,0-0.8,0.2-1.1,0.5c-0.3,0.3-0.4,0.9-0.4,1.6c0,0.7,0.1,1.2,0.4,1.6    c0.3,0.4,0.6,0.5,1.1,0.5c0.5,0,0.8-0.2,1.1-0.5C191.6,100.9,191.7,100.4,191.7,99.7z"/> 		<path d="M198.2,102.5h-0.9v-3.1c0-0.3,0-0.5,0-0.7c0-0.2-0.1-0.4-0.2-0.5c-0.1-0.1-0.2-0.2-0.3-0.3c-0.1-0.1-0.3-0.1-0.6-0.1    c-0.2,0-0.5,0.1-0.7,0.2c-0.3,0.1-0.5,0.3-0.7,0.5v4.1h-0.9V97h0.9v0.6c0.3-0.2,0.6-0.4,0.8-0.6c0.3-0.1,0.6-0.2,0.9-0.2    c0.6,0,1,0.2,1.3,0.5c0.3,0.4,0.4,0.9,0.4,1.5V102.5z"/> 		<path d="M203.9,102.5h-0.9v-0.6c-0.1,0.1-0.2,0.1-0.3,0.2c-0.1,0.1-0.3,0.2-0.4,0.2c-0.1,0.1-0.3,0.1-0.5,0.2s-0.4,0.1-0.7,0.1    c-0.5,0-0.9-0.2-1.2-0.5c-0.3-0.3-0.5-0.7-0.5-1.2c0-0.4,0.1-0.7,0.3-1c0.2-0.3,0.4-0.5,0.7-0.6c0.3-0.1,0.7-0.2,1.1-0.3    c0.4-0.1,0.9-0.1,1.4-0.1v-0.1c0-0.2,0-0.4-0.1-0.5c-0.1-0.1-0.2-0.2-0.3-0.3c-0.1-0.1-0.3-0.1-0.4-0.2c-0.2,0-0.4,0-0.5,0    c-0.2,0-0.5,0-0.8,0.1s-0.6,0.2-0.9,0.3h0v-0.9c0.2,0,0.4-0.1,0.7-0.2c0.3-0.1,0.6-0.1,0.9-0.1c0.4,0,0.7,0,0.9,0.1    c0.3,0.1,0.5,0.2,0.7,0.3c0.2,0.1,0.3,0.3,0.4,0.6c0.1,0.2,0.2,0.5,0.2,0.9V102.5z M203.1,101.1v-1.5c-0.3,0-0.6,0-0.9,0.1    c-0.4,0-0.6,0.1-0.9,0.1c-0.2,0.1-0.5,0.2-0.6,0.3c-0.2,0.2-0.2,0.4-0.2,0.7c0,0.3,0.1,0.5,0.3,0.7c0.2,0.2,0.5,0.2,0.8,0.2    c0.3,0,0.6-0.1,0.8-0.2C202.6,101.4,202.8,101.3,203.1,101.1z"/> 	</g> 	<g> 		<path d="M160.1,199.6c0,0.3-0.1,0.6-0.2,0.8c-0.1,0.3-0.3,0.5-0.5,0.7c-0.2,0.2-0.5,0.4-0.9,0.5s-0.7,0.2-1.2,0.2    c-0.5,0-0.9,0-1.3-0.1c-0.4-0.1-0.8-0.2-1.2-0.4V200h0.1c0.3,0.3,0.7,0.5,1.2,0.7c0.5,0.2,0.9,0.2,1.3,0.2c0.6,0,1-0.1,1.3-0.3    c0.3-0.2,0.5-0.5,0.5-0.9c0-0.3-0.1-0.6-0.2-0.7s-0.4-0.3-0.7-0.4c-0.2-0.1-0.5-0.1-0.7-0.2c-0.3,0-0.6-0.1-0.9-0.2    c-0.6-0.1-1.1-0.4-1.4-0.7s-0.4-0.8-0.4-1.3c0-0.6,0.2-1.1,0.7-1.5c0.5-0.4,1.1-0.6,1.9-0.6c0.5,0,0.9,0,1.3,0.1    c0.4,0.1,0.8,0.2,1.1,0.4v1.1h-0.1c-0.3-0.2-0.6-0.4-1-0.6c-0.4-0.2-0.9-0.2-1.3-0.2c-0.5,0-0.9,0.1-1.2,0.3s-0.4,0.5-0.4,0.8    c0,0.3,0.1,0.5,0.2,0.7c0.1,0.2,0.4,0.3,0.8,0.4c0.2,0,0.5,0.1,0.8,0.2c0.4,0.1,0.7,0.1,0.9,0.2c0.5,0.1,0.9,0.4,1.2,0.6    C159.9,198.6,160.1,199,160.1,199.6z"/> 		<path d="M165.5,201.6h-0.9v-0.6c-0.1,0.1-0.2,0.1-0.3,0.2s-0.3,0.2-0.4,0.2c-0.1,0.1-0.3,0.1-0.5,0.2c-0.2,0.1-0.4,0.1-0.7,0.1    c-0.5,0-0.9-0.2-1.2-0.5c-0.3-0.3-0.5-0.7-0.5-1.2c0-0.4,0.1-0.7,0.3-1s0.4-0.5,0.7-0.6c0.3-0.1,0.7-0.2,1.1-0.3s0.9-0.1,1.4-0.1    v-0.1c0-0.2,0-0.4-0.1-0.5c-0.1-0.1-0.2-0.2-0.3-0.3c-0.1-0.1-0.3-0.1-0.4-0.2c-0.2,0-0.4,0-0.5,0c-0.2,0-0.5,0-0.8,0.1    c-0.3,0.1-0.6,0.2-0.9,0.3h0v-0.9c0.2,0,0.4-0.1,0.7-0.2s0.6-0.1,0.9-0.1c0.4,0,0.7,0,0.9,0.1c0.3,0.1,0.5,0.2,0.7,0.3    c0.2,0.1,0.3,0.3,0.4,0.6s0.2,0.5,0.2,0.9V201.6z M164.6,200.3v-1.5c-0.3,0-0.6,0-0.9,0.1s-0.6,0.1-0.9,0.1    c-0.2,0.1-0.5,0.2-0.6,0.3s-0.2,0.4-0.2,0.7c0,0.3,0.1,0.5,0.3,0.7c0.2,0.2,0.5,0.2,0.8,0.2c0.3,0,0.6-0.1,0.8-0.2    C164.2,200.6,164.4,200.5,164.6,200.3z"/> 		<path d="M171.5,201.6h-0.9v-3.1c0-0.3,0-0.5,0-0.7s-0.1-0.4-0.2-0.5c-0.1-0.1-0.2-0.2-0.3-0.3c-0.1-0.1-0.3-0.1-0.6-0.1    c-0.2,0-0.5,0.1-0.7,0.2s-0.5,0.3-0.7,0.5v4.1h-0.9v-5.5h0.9v0.6c0.3-0.2,0.6-0.4,0.8-0.6c0.3-0.1,0.6-0.2,0.9-0.2    c0.6,0,1,0.2,1.3,0.5c0.3,0.4,0.4,0.9,0.4,1.5V201.6z"/> 		<path d="M175.8,201.6c-0.2,0-0.3,0.1-0.5,0.1c-0.2,0-0.4,0-0.5,0c-0.5,0-0.9-0.1-1.2-0.4c-0.3-0.3-0.4-0.8-0.4-1.4V197h-0.6v-0.8    h0.6v-1.6h0.9v1.6h1.8v0.8H174v2.5c0,0.3,0,0.5,0,0.7s0.1,0.3,0.1,0.5c0.1,0.1,0.2,0.2,0.3,0.3c0.1,0.1,0.3,0.1,0.5,0.1    c0.1,0,0.3,0,0.4-0.1s0.3-0.1,0.3-0.1h0V201.6z"/> 		<path d="M186.4,201.6h-0.9v-6.3l-1.9,4.3H183l-1.9-4.3v6.3h-0.9v-7.3h1.2l1.8,4l1.8-4h1.3V201.6z"/> 		<path d="M192.2,201.6h-0.9v-0.6c-0.1,0.1-0.2,0.1-0.3,0.2s-0.3,0.2-0.4,0.2c-0.1,0.1-0.3,0.1-0.5,0.2c-0.2,0.1-0.4,0.1-0.7,0.1    c-0.5,0-0.9-0.2-1.2-0.5c-0.3-0.3-0.5-0.7-0.5-1.2c0-0.4,0.1-0.7,0.3-1c0.2-0.3,0.4-0.5,0.7-0.6c0.3-0.1,0.7-0.2,1.1-0.3    c0.4-0.1,0.9-0.1,1.4-0.1v-0.1c0-0.2,0-0.4-0.1-0.5s-0.2-0.2-0.3-0.3c-0.1-0.1-0.3-0.1-0.4-0.2c-0.2,0-0.4,0-0.5,0    c-0.2,0-0.5,0-0.8,0.1c-0.3,0.1-0.6,0.2-0.9,0.3h0v-0.9c0.2,0,0.4-0.1,0.7-0.2s0.6-0.1,0.9-0.1c0.4,0,0.7,0,0.9,0.1    s0.5,0.2,0.7,0.3c0.2,0.1,0.3,0.3,0.4,0.6s0.2,0.5,0.2,0.9V201.6z M191.3,200.3v-1.5c-0.3,0-0.6,0-0.9,0.1s-0.6,0.1-0.9,0.1    c-0.2,0.1-0.5,0.2-0.6,0.3s-0.2,0.4-0.2,0.7c0,0.3,0.1,0.5,0.3,0.7c0.2,0.2,0.5,0.2,0.8,0.2c0.3,0,0.6-0.1,0.8-0.2    C190.8,200.6,191.1,200.5,191.3,200.3z"/> 		<path d="M197,197.2L197,197.2c-0.2,0-0.3-0.1-0.4-0.1s-0.3,0-0.4,0c-0.3,0-0.5,0.1-0.8,0.2c-0.2,0.1-0.5,0.3-0.7,0.5v3.9h-0.9    v-5.5h0.9v0.8c0.3-0.3,0.6-0.5,0.9-0.6s0.5-0.2,0.8-0.2c0.2,0,0.3,0,0.3,0c0.1,0,0.2,0,0.3,0V197.2z"/> 		<path d="M200.5,201.6c-0.2,0-0.3,0.1-0.5,0.1c-0.2,0-0.4,0-0.5,0c-0.5,0-0.9-0.1-1.2-0.4c-0.3-0.3-0.4-0.8-0.4-1.4V197h-0.6v-0.8    h0.6v-1.6h0.9v1.6h1.8v0.8h-1.8v2.5c0,0.3,0,0.5,0,0.7s0.1,0.3,0.1,0.5c0.1,0.1,0.2,0.2,0.3,0.3c0.1,0.1,0.3,0.1,0.5,0.1    c0.1,0,0.3,0,0.4-0.1s0.3-0.1,0.3-0.1h0V201.6z"/> 		<path d="M203.4,193.5l-1.3,1.8h-0.7l0.8-1.8H203.4z M202.5,201.6h-0.9v-5.5h0.9V201.6z"/> 		<path d="M160.1,209.6c0,0.3-0.1,0.6-0.2,0.8c-0.1,0.3-0.3,0.5-0.5,0.7c-0.2,0.2-0.5,0.4-0.9,0.5s-0.7,0.2-1.2,0.2    c-0.5,0-0.9,0-1.3-0.1c-0.4-0.1-0.8-0.2-1.2-0.4V210h0.1c0.3,0.3,0.7,0.5,1.2,0.7c0.5,0.2,0.9,0.2,1.3,0.2c0.6,0,1-0.1,1.3-0.3    c0.3-0.2,0.5-0.5,0.5-0.9c0-0.3-0.1-0.6-0.2-0.7s-0.4-0.3-0.7-0.4c-0.2-0.1-0.5-0.1-0.7-0.2c-0.3,0-0.6-0.1-0.9-0.2    c-0.6-0.1-1.1-0.4-1.4-0.7s-0.4-0.8-0.4-1.3c0-0.6,0.2-1.1,0.7-1.5c0.5-0.4,1.1-0.6,1.9-0.6c0.5,0,0.9,0,1.3,0.1    c0.4,0.1,0.8,0.2,1.1,0.4v1.1h-0.1c-0.3-0.2-0.6-0.4-1-0.6c-0.4-0.2-0.9-0.2-1.3-0.2c-0.5,0-0.9,0.1-1.2,0.3s-0.4,0.5-0.4,0.8    c0,0.3,0.1,0.5,0.2,0.7c0.1,0.2,0.4,0.3,0.8,0.4c0.2,0,0.5,0.1,0.8,0.2c0.4,0.1,0.7,0.1,0.9,0.2c0.5,0.1,0.9,0.4,1.2,0.6    C159.9,208.6,160.1,209,160.1,209.6z"/> 		<path d="M165.5,211.6h-0.9v-0.6c-0.1,0.1-0.2,0.1-0.3,0.2s-0.3,0.2-0.4,0.2c-0.1,0.1-0.3,0.1-0.5,0.2c-0.2,0.1-0.4,0.1-0.7,0.1    c-0.5,0-0.9-0.2-1.2-0.5c-0.3-0.3-0.5-0.7-0.5-1.2c0-0.4,0.1-0.7,0.3-1s0.4-0.5,0.7-0.6c0.3-0.1,0.7-0.2,1.1-0.3s0.9-0.1,1.4-0.1    v-0.1c0-0.2,0-0.4-0.1-0.5c-0.1-0.1-0.2-0.2-0.3-0.3c-0.1-0.1-0.3-0.1-0.4-0.2c-0.2,0-0.4,0-0.5,0c-0.2,0-0.5,0-0.8,0.1    c-0.3,0.1-0.6,0.2-0.9,0.3h0v-0.9c0.2,0,0.4-0.1,0.7-0.2s0.6-0.1,0.9-0.1c0.4,0,0.7,0,0.9,0.1c0.3,0.1,0.5,0.2,0.7,0.3    c0.2,0.1,0.3,0.3,0.4,0.6s0.2,0.5,0.2,0.9V211.6z M164.6,210.3v-1.5c-0.3,0-0.6,0-0.9,0.1s-0.6,0.1-0.9,0.1    c-0.2,0.1-0.5,0.2-0.6,0.3s-0.2,0.4-0.2,0.7c0,0.3,0.1,0.5,0.3,0.7c0.2,0.2,0.5,0.2,0.8,0.2c0.3,0,0.6-0.1,0.8-0.2    C164.2,210.6,164.4,210.5,164.6,210.3z"/> 		<path d="M170.4,207.2L170.4,207.2c-0.2,0-0.3-0.1-0.4-0.1s-0.3,0-0.4,0c-0.3,0-0.5,0.1-0.8,0.2s-0.5,0.3-0.7,0.5v3.9h-0.9v-5.5    h0.9v0.8c0.3-0.3,0.6-0.5,0.9-0.6s0.5-0.2,0.8-0.2c0.2,0,0.3,0,0.3,0s0.2,0,0.3,0V207.2z"/> 		<path d="M174.4,207.2L174.4,207.2c-0.2,0-0.3-0.1-0.4-0.1s-0.3,0-0.4,0c-0.3,0-0.5,0.1-0.8,0.2s-0.5,0.3-0.7,0.5v3.9h-0.9v-5.5    h0.9v0.8c0.3-0.3,0.6-0.5,0.9-0.6c0.3-0.1,0.5-0.2,0.8-0.2c0.2,0,0.3,0,0.3,0c0.1,0,0.2,0,0.3,0V207.2z"/> 		<path d="M179.6,208.9c0,0.9-0.2,1.6-0.6,2.1s-1,0.8-1.7,0.8c-0.7,0-1.3-0.3-1.7-0.8s-0.6-1.2-0.6-2.1s0.2-1.6,0.6-2.1    s1-0.8,1.7-0.8c0.7,0,1.3,0.3,1.7,0.8S179.6,208,179.6,208.9z M178.7,208.9c0-0.7-0.1-1.2-0.4-1.6c-0.3-0.3-0.6-0.5-1.1-0.5    c-0.5,0-0.8,0.2-1.1,0.5c-0.3,0.3-0.4,0.9-0.4,1.6c0,0.7,0.1,1.2,0.4,1.6c0.3,0.4,0.6,0.5,1.1,0.5c0.5,0,0.8-0.2,1.1-0.5    C178.6,210.1,178.7,209.6,178.7,208.9z"/> 		<path d="M184.8,211.3c-0.3,0.1-0.6,0.3-0.8,0.3c-0.3,0.1-0.5,0.1-0.8,0.1c-0.4,0-0.7-0.1-1-0.2c-0.3-0.1-0.6-0.3-0.8-0.5    c-0.2-0.2-0.4-0.5-0.5-0.9s-0.2-0.8-0.2-1.3c0-0.9,0.2-1.6,0.7-2.1s1.1-0.8,1.8-0.8c0.3,0,0.6,0,0.9,0.1s0.5,0.2,0.8,0.3v1h0    c-0.3-0.2-0.5-0.4-0.8-0.5c-0.3-0.1-0.6-0.2-0.8-0.2c-0.5,0-0.9,0.2-1.2,0.5s-0.4,0.9-0.4,1.5c0,0.7,0.1,1.2,0.4,1.5    s0.7,0.5,1.2,0.5c0.2,0,0.4,0,0.5-0.1s0.3-0.1,0.5-0.2c0.1-0.1,0.2-0.1,0.4-0.2c0.1-0.1,0.2-0.1,0.3-0.2h0V211.3z"/> 		<path d="M189.9,211.6H189v-0.6c-0.1,0.1-0.2,0.1-0.3,0.2s-0.3,0.2-0.4,0.2c-0.1,0.1-0.3,0.1-0.5,0.2c-0.2,0.1-0.4,0.1-0.7,0.1    c-0.5,0-0.9-0.2-1.2-0.5s-0.5-0.7-0.5-1.2c0-0.4,0.1-0.7,0.3-1c0.2-0.3,0.4-0.5,0.7-0.6c0.3-0.1,0.7-0.2,1.1-0.3    c0.4-0.1,0.9-0.1,1.4-0.1v-0.1c0-0.2,0-0.4-0.1-0.5s-0.2-0.2-0.3-0.3c-0.1-0.1-0.3-0.1-0.4-0.2s-0.4,0-0.5,0c-0.2,0-0.5,0-0.8,0.1    c-0.3,0.1-0.6,0.2-0.9,0.3h0v-0.9c0.2,0,0.4-0.1,0.7-0.2s0.6-0.1,0.9-0.1c0.4,0,0.7,0,0.9,0.1s0.5,0.2,0.7,0.3    c0.2,0.1,0.3,0.3,0.4,0.6s0.2,0.5,0.2,0.9V211.6z M189,210.3v-1.5c-0.3,0-0.6,0-0.9,0.1s-0.6,0.1-0.9,0.1    c-0.2,0.1-0.5,0.2-0.6,0.3c-0.2,0.2-0.2,0.4-0.2,0.7c0,0.3,0.1,0.5,0.3,0.7s0.5,0.2,0.8,0.2c0.3,0,0.6-0.1,0.8-0.2    C188.6,210.6,188.8,210.5,189,210.3z"/> 	</g> </g> <g id="bullets"> 	<g> 		<g> 			<circle style="fill:#5B7EBD;" cx="235.1" cy="264.3" r="2.4"/> 		</g> 		<g> 			<circle style="fill:#5B7EBD;" cx="195.8" cy="313.7" r="2.4"/> 		</g> 		<g> 			<circle style="fill:#5B7EBD;" cx="182.6" cy="364.4" r="2.4"/> 		</g> 		<g> 			<circle style="fill:#5B7EBD;" cx="328.4" cy="141.1" r="2.4"/> 		</g> 		<g> 			<circle style="fill:#5B7EBD;" cx="405.9" cy="250.4" r="2.4"/> 		</g> 		<g> 			<circle style="fill:#5B7EBD;" cx="381.2" cy="93.6" r="2.4"/> 		</g> 		<g> 			<circle style="fill:#5B7EBD;" cx="157.2" cy="219.8" r="2.4"/> 		</g> 		<g> 			<circle style="fill:#5B7EBD;" cx="193.1" cy="113" r="2.4"/> 		</g> 		<g> 			<circle style="fill:#5B7EBD;" cx="107.1" cy="178.4" r="2.4"/> 		</g> 	</g> </g> <g id="llegenda"> 	<line style="fill:none;stroke:#9A9A9A;stroke-width:2;stroke-miterlimit:10;" x1="-221.6" y1="3.6" x2="-221.6" y2="33.1"/> 	<g> 		<path d="M-213.9,14h0.9v7.1h-0.9V14z"/> 		<path d="M-210.6,14.9c0,0.3-0.2,0.5-0.6,0.5c-0.3,0-0.5-0.2-0.5-0.5s0.2-0.5,0.5-0.5C-210.8,14.4-210.6,14.6-210.6,14.9z     M-211.6,21.1v-4.8h0.9v4.8H-211.6z"/> 		<path d="M-209.2,17.6c0-0.5,0-0.9,0-1.3h0.8l0,0.8h0c0.2-0.4,0.8-0.9,1.6-0.9c0.7,0,1.7,0.4,1.7,2.1v2.9h-0.9v-2.8    c0-0.8-0.3-1.4-1.1-1.4c-0.6,0-1,0.4-1.2,0.9c0,0.1-0.1,0.3-0.1,0.4v2.9h-0.9V17.6z"/> 	</g> 	<line style="fill:none;stroke:#696969;stroke-width:2;stroke-miterlimit:10;" x1="-221.6" y1="43.2" x2="-221.6" y2="72.7"/> 	<g> 		<path d="M-213.9,53.6h0.9v7.1h-0.9V53.6z"/> 		<path d="M-210.6,54.5c0,0.3-0.2,0.5-0.6,0.5c-0.3,0-0.5-0.2-0.5-0.5s0.2-0.5,0.5-0.5C-210.8,54-210.6,54.2-210.6,54.5z     M-211.6,60.7v-4.8h0.9v4.8H-211.6z"/> 		<path d="M-209.2,57.2c0-0.5,0-0.9,0-1.3h0.8l0,0.8h0c0.2-0.4,0.8-0.9,1.6-0.9c0.7,0,1.7,0.4,1.7,2.1v2.9h-0.9v-2.8    c0-0.8-0.3-1.4-1.1-1.4c-0.6,0-1,0.4-1.2,0.9c0,0.1-0.1,0.3-0.1,0.4v2.9h-0.9V57.2z"/> 	</g> 	<rect x="-227" y="-21" style="fill:#BFBFBF;" width="16.3" height="15.3"/> 	<rect x="-227" y="-48.6" style="fill:#DCE9FB;" width="16.3" height="15.3"/> 	<g> 		<path d="M-201.5-11.6v-4.2h-0.7v-0.7h0.7v-0.2c0-0.7,0.2-1.3,0.6-1.7c0.3-0.3,0.8-0.4,1.2-0.4c0.3,0,0.6,0.1,0.7,0.1l-0.1,0.7    c-0.1-0.1-0.3-0.1-0.6-0.1c-0.7,0-0.9,0.6-0.9,1.4v0.3h1.2v0.7h-1.2v4.2H-201.5z"/> 		<path d="M-194.4-14.1c0,1.8-1.2,2.6-2.4,2.6c-1.3,0-2.3-1-2.3-2.5c0-1.6,1.1-2.6,2.4-2.6C-195.3-16.6-194.4-15.6-194.4-14.1z     M-198.2-14c0,1.1,0.6,1.9,1.5,1.9c0.8,0,1.5-0.8,1.5-1.9c0-0.8-0.4-1.8-1.4-1.8C-197.8-15.9-198.2-14.9-198.2-14z"/> 		<path d="M-193.3-15.2c0-0.5,0-0.9,0-1.3h0.8l0,0.8h0c0.2-0.4,0.8-0.9,1.6-0.9c0.7,0,1.7,0.4,1.7,2.1v2.9h-0.9v-2.8    c0-0.8-0.3-1.4-1.1-1.4c-0.6,0-1,0.4-1.2,0.9c0,0.1-0.1,0.3-0.1,0.4v2.9h-0.9V-15.2z"/> 		<path d="M-187.9-12.5c0.3,0.2,0.7,0.3,1.2,0.3c0.6,0,0.9-0.3,0.9-0.7c0-0.4-0.3-0.6-0.9-0.9c-0.9-0.3-1.3-0.8-1.3-1.4    c0-0.8,0.6-1.4,1.7-1.4c0.5,0,0.9,0.1,1.2,0.3l-0.2,0.6c-0.2-0.1-0.5-0.3-1-0.3c-0.5,0-0.8,0.3-0.8,0.7c0,0.4,0.3,0.6,0.9,0.8    c0.8,0.3,1.3,0.7,1.3,1.4c0,0.9-0.7,1.5-1.8,1.5c-0.5,0-1-0.1-1.4-0.3L-187.9-12.5z"/> 	</g> 	<g> 		<path d="M-201.6-42.5c0-0.5,0-0.9,0-1.3h0.8l0,0.8h0c0.3-0.5,0.7-0.9,1.5-0.9c0.6,0,1.1,0.4,1.4,1h0c0.1-0.3,0.4-0.5,0.5-0.6    c0.3-0.2,0.6-0.3,1.1-0.3c0.6,0,1.6,0.4,1.6,2.1v2.8h-0.9v-2.7c0-0.9-0.3-1.5-1-1.5c-0.5,0-0.9,0.4-1,0.8c0,0.1-0.1,0.3-0.1,0.4v3    h-0.9v-2.9c0-0.8-0.3-1.3-1-1.3c-0.5,0-0.9,0.4-1.1,0.9c-0.1,0.1-0.1,0.3-0.1,0.4v2.9h-0.9V-42.5z"/> 		<path d="M-189.8-40.1c0,0.4,0,0.8,0.1,1.2h-0.8l-0.1-0.6h0c-0.3,0.4-0.8,0.7-1.5,0.7c-1,0-1.5-0.7-1.5-1.4c0-1.2,1-1.8,2.9-1.8    v-0.1c0-0.4-0.1-1.1-1.1-1.1c-0.5,0-0.9,0.1-1.3,0.4l-0.2-0.6c0.4-0.3,1-0.4,1.6-0.4c1.5,0,1.8,1,1.8,2V-40.1z M-190.7-41.4    c-1,0-2,0.1-2,1.1c0,0.6,0.4,0.8,0.8,0.8c0.6,0,1-0.4,1.2-0.8c0-0.1,0-0.2,0-0.3V-41.4z"/> 		<path d="M-188.4-42.3c0-0.6,0-1.1,0-1.5h0.8l0,1h0c0.2-0.6,0.8-1.1,1.3-1.1c0.1,0,0.2,0,0.2,0v0.8c-0.1,0-0.2,0-0.3,0    c-0.6,0-1.1,0.5-1.2,1.1c0,0.1,0,0.3,0,0.4v2.6h-0.9V-42.3z"/> 	</g> 	<circle style="fill-rule:evenodd;clip-rule:evenodd;fill:#5B7EBD;" cx="-221.6" cy="87.8" r="2.4"/> 	<rect x="-251.5" y="-21" style="fill:#BFBFBF;stroke:#696969;stroke-width:2;stroke-miterlimit:10;" width="16.3" height="15.3"/> 	<rect x="-276.3" y="-21" style="fill:#FFFBF0;stroke:#9A9A9A;stroke-width:2;stroke-miterlimit:10;" width="16.3" height="15.3"/> </g> </svg>