<svg xmlns="http://www.w3.org/2000/svg" xmlns:xlink="http://www.w3.org/1999/xlink" version="1.1" x="0px" y="0px" width="450px" height="450px" viewBox="0 0 450 450" style="enable-background:new 0 0 450 450;" xml:space="preserve"> <g id="Capa_9"> 	<rect x="-27.6" y="-15.7" style="fill-rule:evenodd;clip-rule:evenodd;fill:#DCE9FB;" width="480" height="476"/> </g> <g id="color_provincies"> 	<path style="fill-rule:evenodd;clip-rule:evenodd;fill:#BFBFBF;stroke:#696969;stroke-width:2;stroke-miterlimit:10;" d="   M320.8,492.2C320.1,484.5,318,484.7,320.8,492.2L320.8,492.2z"/> 	<path style="fill-rule:evenodd;clip-rule:evenodd;fill:#BFBFBF;stroke:#696969;stroke-width:2;stroke-miterlimit:10;" d="   M168.7,350.6c-0.6-2.8-3.5-1-2.3-4.8c-1.9,1,3.9-2.3,4.1-2.4C170.2,346.7,169.7,348.1,168.7,350.6L168.7,350.6z"/> 	<path style="fill-rule:evenodd;clip-rule:evenodd;fill:#BFBFBF;stroke:#696969;stroke-width:2;stroke-miterlimit:10;" d="   M158.4,343.6c-0.3-2-3-1.5-1.2-4.7C161.8,341.3,158.1,341.8,158.4,343.6L158.4,343.6z"/> 	<path style="fill:#BFBFBF;stroke:#696969;stroke-width:2;stroke-miterlimit:10;" d="M494.4,124.3c0.4,93.1,0.8,186.1,1.3,279.2   c0.1,12.6,8.2,76.1-6.3,76.2c-46,0.4-92,0.8-138,1.2c6.8-5.1,11.6-4,14-11.7c-1.3-1.8-1.1,2.1-2,0.8c1.3-13.3,9.3-2.7,16-7.8   c4.8-3.6,0.3-2.4-2.7,0c-3.2,2.7-6.3-4.1-9.5-1.5c-7.9,6.2-4.7,16.7-17,10.9c-3.4,19.5-12.4-6-13-6.6c-8.1-8.6-4.4-3.8-15.4,4.7   c-30.5,23.6-94,12.3-137,12.7c-0.3-2.3,1.2-2.1,2.2-3.8c-2.4-1.4-3.3-1.1-2.9-4c5.3-1.8,3.8-1.6,2.3-5.8   c12.8-10.2-8.2-48.7-40.9-27.7c-4.7,0.3-6.5-5.7-10.2-10c6.6-3.9,6.2-11.7,4.4-17.6c5.6,1.7,19.8,5.4,24.6,4   c9-2.7,11.9-11.4,18.6-13.6c-3.8-0.7-5.6-2.5-8-2.8c4.2-7.3,10.4-8.4,18.1-9.6c-0.7,1.4-0.9,4.4-1.5,5.9c4.6-3.8,7.6-1.5,6.7-1.2   c1.2,0.5,3.5,0.9,4.2,2.1c0.1,3.9,2.4,14.9,1.3,19.7c-1.5,6.5-7,4.8-10.1,12.7c-2.3,5.8-2.2,25.2,8.3,14.9   c4.5-4.4,7.6-15.5,10.7-4.7c1.1-2.9,5.3-2.9,6.2,0.8c5-5.6,9.2-0.9,14.4,3.5c-10-16.6-7.9-55.5-0.5-41c3.6-2.1,8.3-8.9,13-10.3   c8.8-2.7,15.6,2.2,21.7-6.8c-6.7,8.6-15.4,0.9-18.4-3.6c-3.7,3.9-7.8,8.1-11.3,11.6c-1.7-2.8-3.8-2.4-5.6-4.1   c-0.8-6.6,1.8-1.8-2-5.8c7.7-4.4,1.4-15.7,7.9-21.5c-0.6-0.1-1-0.4-1.2-0.9c-3.4,3.8-8.1,6.8-12.4,9.8c4.3-12.4,1.2-31.6-8.6-33.6   c2-10.6,8.6-13.2,11-2.7c3.5-3.7,3.4-4.3,4-9.3c-10.1,6.7-8.7-5.3-8.2-13.9c0.2-3.4,26-7,27.5-6.2c-0.5-2.4,0.3-4-0.5-7.1   c7.4,0.1,3-3.5,7.8-6.5c2.6-1.6,10.1,0.2,11.3-1.2c8.9-10.8-3.3-14.2-3.3-23.3c0-6.8,9.3-17.7,13.7-22.9   c9.9-11.7,12.2-14,13.3-31.9c15.5,0.3,12.3-30.2,20.3-40.4c5.7-7.3,31.3,0.5,33.3-10.6c1.7-9.1,17.8-3,20.6-15.3   c5.6,6.2,15.6,8,21.1,16c1.8-2,3.9-2.9,5.9-4.9c15,14.6,0.6-17.5,13.1-25.7c3.1-2,29.6-2.4,35.5-3.7c-5.6-8.1-3.5-16.9,3-14.9   c3.1,3.3,5.6,7.9,7.9,8.8c6,2.2,6-4,7.9-3.8c5.3,0.4,7.2,8.9,12.7,3.3C479.3,116.8,490.2,117.6,494.4,124.3L494.4,124.3z"/> 	<path style="fill-rule:evenodd;clip-rule:evenodd;fill:#BFBFBF;stroke:#696969;stroke-width:2;stroke-miterlimit:10;" d="   M212.9,412.8c-11.8-3.8,0.3-16.5,3.6-20.8C217.7,398.8,215.7,405.7,212.9,412.8L212.9,412.8z"/> 	<path style="fill-rule:evenodd;clip-rule:evenodd;fill:#BFBFBF;stroke:#696969;stroke-width:2;stroke-miterlimit:10;" d="   M140.2,340.6C138.6,336.5,139.1,337.9,140.2,340.6L140.2,340.6z"/> 	<path style="fill-rule:evenodd;clip-rule:evenodd;fill:#BFBFBF;stroke:#696969;stroke-width:2;stroke-miterlimit:10;" d="   M317.6,488.8c1.1,0.3,2.6,2.9,3.2,3.5C323.8,483.8,321.5,487.8,317.6,488.8L317.6,488.8z"/> 	<a> 		<path style="fill-rule:evenodd;clip-rule:evenodd;fill:#BFBFBF;stroke:#696969;stroke-width:2;stroke-miterlimit:10;" d="    M257,270.2C272.7,259.9,250.9,260.8,257,270.2L257,270.2z"/> 	</a> 	<a> 		<path style="fill-rule:evenodd;clip-rule:evenodd;fill:#BFBFBF;stroke:#696969;stroke-width:2;stroke-miterlimit:10;" d="    M189.6,365.7c2.3-0.8,4.6-1.7,7-2.5c-8.1-5.1-3.1-18.9,5.6-19.9c-10-8.5,3.7-16.9-3.8-24.8c-9.3,15.5-7.9-8.6-18.8-3.9    c-9.9,12.5,3.8,8,7.1,12c4.8,5.9,1.1,11,1.8,17.7c-6.5,1.2-2.7,7.3,0.6,13.7C175.9,352.3,185.7,363.4,189.6,365.7    C192.4,365.3,189.6,365.7,189.6,365.7z"/> 	</a> 	<a> 		<path style="fill:none;" d="M182.7,462.3l306,6.7L450,122.1l-2.1-3.6l-2.9-3.6l-2.8,0.8c0,0-1.3,2.6-1.4,3.4s-1.5,3.8-1.5,3.8    s1.4,3.1,1.5,3.6s0.8,3.3,0.8,3.3l-1.8,0.4c0,0-6.1,0.6-7.8,1s-11.9,0.9-12.3,0.9s-6-1.1-11.4,0.1s-3.5,2.5-3.5,2.5    s-2.4,3.5-2.4,4.1s-1.6,7.4-1.6,7.4s-0.3,7.8-0.3,8.3s0,5.5,0,5.5l-0.5,3.1c0,0-0.6,0.6-1,0.5s-5.7-4.4-5.7-4.4l-6.3,4.7    l-20.6-12.9l-3,3.1l-4.8,2.3l-4.3,0.6c0,0-3.6,1.1-4,1.4s-3.6,3.3-3.6,3.3l-2,3l-1.1,1.6l-4.1,2.8l-5,1.1l-11.6,2.1l-4.5-0.1    l-4.4,2l-3.4,6.4l-2.4,6.9l-1.3,4.6l-1.5,5.9c0,0-1.1,4.3-1.3,4.6s-2.9,5.9-2.9,5.9l-2.9,3.6l-3.3,2.9l-2.8,0.3l-1.6,4.8    l-1.5,10.5l-2,5.3l-5.3,6.8l-3.6,4.5l-3.5,5l-4.5,5.3l-3.9,6.3l-3.8,0.4c0,0-3.8,0-4.3,0.2s-2.3,0.9-2.3,0.9s-0.1,2.4-0.1,2.8    s0.7,2.8,0.7,2.8l2.8-2.7l3.2-4l3.8-0.4l-1.4,5.5c0,0,0.4,1.3,0.4,1.6s0.6,2.9,0.6,2.9s1.4,1.1,1.5,2s1.4,2.4,1.5,2.8    s1.1,2,1.4,2.4s1,3.9,1,3.9l-0.4,3.4l-1.6,3.9l-1.1,0.5l-4.2,1l-3.4-0.5l-4.4,0.9l-0.9,1.6l-1.6,2.6l-1.5,1.5l-2.5,0.3l0.3,6.3    l-2.4,0.9l-7.1,1.3l-5.5,0.6l-7.5,2l-4.5,1.6l-1.1,4l-0.1,5.1l0.3,4.6l0.5,1.9l1.4,0.9l1.8,1l2.9-1.3l1.8-1.4l-0.1,3.3    c0,0-0.3,2.3-0.8,2.6s-2.5,2.9-2.5,2.9l-1.5-2l-1.1-2.8l-2.6-1.6c0,0-1.4,0.9-2.1,1.5s-2.9,2.6-2.9,2.6s-0.6,3.6-1,3.9    s-0.4,1.6-0.4,1.6l-16.8,0.4l-0.6-2.8v-3.9l1.3-3.6l0.9-2.8l0.4-4.1l-2.8-4l-1.5,2.6l-0.9,1.3l-1.8,1.3l-1.8,0.1l-2-1.1l-1-2.3    l-2.1-2.9l-2.6-2.6l-3.4-0.6l-1.6,0.8l-1.4,2l-1.5,2.3l-0.9,1.9c0,0,0.9,1.3,1,1.6s1.5,1.4,1.5,1.4l2.5,0.3l2.4,1.5l2.1,0.3l2,2.3    c0,0,1.1,1.8,1.4,2.6s0.1,6.5,0.1,6.5v3.8l-0.3,3.5l-2.1,0.9c0,0-1,1.1-1,1.6s-0.1,1.9-0.1,2.3s1,3.4,1,3.4l1.6,4.4l-3.8-0.5    l-1.6,1.1l0.3,0.9c0,0,1.1,1.8,1.4,2.3s0.5,1.1,0.9,1.6s2.5,2.4,2.5,2.4l1.4,0.5l2.4,0.3c0,0,2.8-1.5,3.1-1.5s2.2-0.6,2.2-0.6    l-2.2-2.4c0,0-1.6-2.5-1.5-3.4s0.1-5.6,0.1-5.6s0.9-2.8,1.3-3.1s1.8-2.9,2.1-3s4.5-1.9,4.5-1.9l0.8-1c0,0-3.1-3.6-2.6-3.6    s16.8-0.4,16.8-0.4l5.3,2.9c0,0,1.3,2.8,1.6,3.5s2.3,3,2.5,4.4s0.8,3,0.8,3.6s0.1,5.8,0.1,6.4s0.1,4.1,0.1,4.1l-0.9,4.9l-0.5,3.3    l10.6-7.8l0.8,1.1l-1.1,4.6l-0.6,3.5v4.1l-0.8,3.6l-1.3,2.4l-1.1,1.1l-0.3,2.5c0,0,1,0.6,1,1.1s0.3,2.3,0.3,2.3l0.9,1.6l1.3,0.3    l1.8,1l1.4,1.3l1.9-2l5.9-5.4l3.5-4.3l1.5,2.4c0,0,1.4,1.9,1.8,2s3.4,1.6,3.8,2s5.9,2.1,6.5,2.1s-1.6,0.8-2.1,0.8    s-4.4,0.6-4.9,0.8s-3.1,0.1-3.5,0.3s-3.1,0-3.1,0s-2,0.1-3,0.6s-3.9,1.3-4.5,2.2s-2.6,3.1-2.9,3.5s-2.3,2.5-2.3,2.5l-2.1,1.4    l-1.5-0.3l-2.1-1.6l-1-0.5c0,0-1.3,1-1.5,1.5s-0.9,3-0.9,3l-10.5-1.5l0.3-6.3l-0.5-4l-1.2,1.5l-2.8,2l-3,4.2l-1.3,2.8l-0.2,2    l0.7,4c0,0,2,1.8,2.7,2s1.7,0.7,1.7,0.7l3.6-8.9l10.5,1.5l-0.1,12.5v4.7l1,4.2l1.3,9.3l2.3,4.5l1.7,3.8l-2.8-2.3l-4.2-3l-4.7,0.2    l-2,1.8l-1.7-2l-3-0.2l-1.5,0.5l-0.7,1.3l-1.1-2.3l-1.2-2.2c0,0-1.3,0-1.5,0.5s-2.2,2-2.2,2l-1.5,2.8c0,0-0.7,1.7-1.3,2.2    s-5,3.8-5,3.8l-2.8,0.5l-2.3-1.2l-0.8-3.3l0.2-8.5l0.8-5.3c0,0,1.5-3,2.2-3.5s2.7-3,3.3-3.3s2.8-2.3,2.8-2.3l2-3.7c0,0,0-4.3,0-5    s-1-7.5-1-7.5l-0.5-5.5l-0.8-2l-6-2l-4.3,2.4l1.5-5.9l-4.5,0.4l-5.5,1.8l-6.8,5.7v1.3l2.3,1.7l3.5,1c0,0,2.8,0.5,1.7,0.5    s-3.5,1.5-3.5,1.5l-3,2.2l-2.4,2.4l-2.8,3.3l-2.9,2.5l-4.1,1.6l-3,0.5l-5.5-0.1c0,0-6.3-1-6.8-1s-8.8-2.6-8.8-2.6l-0.6,2.5    l0.4,3.4l-0.3,3.1l-1.6,4.5l-2.6,3.3l1.4,3.3l1.5,3.5l1.9,2l1.8,1.5l2.4-0.3l2.6-1.5l4.3-1.5l3.8-0.9c0,0,2.8-1.1,3.6-1.4    s5.5-0.6,6.1-0.6s4.4,0.9,4.4,0.9l2.4,0.9l4,1.6l2.1,1.3l3.5,2.5l2.8,3.3l1.8,1.9l2,5.4l2,5.5L182.7,462.3z"/> 	</a> </g> <g id="comarques_A_corunya"> 	<a> 		<path style="fill:#BFBFBF;stroke:#696969;stroke-width:2;stroke-miterlimit:10;" d="M503.8,91.5c-1.5-40-0.5-80.2-0.5-120.2    c0-33.7-3.7-26.2-36.7-26.2c-37.2,0-74.5,0-111.7,0c-12.8,0-15.8-3.6-17.4,9.7c-1.3,11.1-16.9,11.3-23.8,6.2    c1.4,2.8,1,7.4,3.9,11.1c-1.3,1.1-6.2,4.8-7.7,5.7c0.4-6.1-1.6-11.2-6.2-15.1c-7.5,7.7-9,1.2-17.5,5.4    c-13.2,6.7-3.7,11.6-6.1,20.1c-1.2,4.3,6.4,1.3,1.8,7c-2.3,2.9-22.6,18.6-23.8,4.1c0,0-15.8,5.3-26.6,11.1    c-14.1,7.7-0.2,7.9,9.5,14.3c8.6,5.7,28.3,14.8,28.3,14.8s18.5-11.8,26.4-13.6c7.3-1.7,6.2,10.1,14.3,4.2    c6.6-4.9,6.7,1.7,13.3,3.3c3.7,0.9,2,19.3,7.8,23.7c14.4,11,27.4,7.6,44.7-4.1l9.8,7.7l-1.5,9.8c3.8,2.4,10.2,2.5,16.6,5.5    c-6.8,7.5-14.2-4.3-19.8,5.3c-1.6,2.8,7.9,5.8,7.1,12.6c-0.6,4.9-0.6,6.1-3.1,12c16.3-1,31.4-10.2,41.4,4.4    c-12.3,10.5-0.5,9.8,1.5,20.9c0,0,12.3-1,14.5-1.9c-7-10.1,3.2-20.8,5.8-11.1c3.1,11.4,11.6,0.8,14.5,1.6c9.9,2.8,4.7,3.5,15,0.3    c13.3-4.2,15.7,5.4,26.6,10C505,117.4,504.3,104.4,503.8,91.5C503.2,73.6,504.3,104.3,503.8,91.5z"/> 	</a> 	<a> 		<path style="fill:#BFBFBF;stroke:#696969;stroke-width:2;stroke-miterlimit:10;" d="M157.8-55c4.3,8.3-3.4,20.8,4.6,19.1    c-3.5,10.5-0.1,17.1-11.9,20.5c-8-7.9-26.3-14-35.9-13.6c-10.9,0.5-13.1,0.7-14.6,6.3c-1.9,7.1,4.4,23.6,11.4,27.3    c-7.5,4.6-10.9,12.4-15.9,18c3.9,3.2,17.2,6.4,17.2,6.4s4.4,14.4,5.8,18.5c5.3,15.5,9.6,29.4,8.3,44.1    c10.1-8.8,8.2-20.2,21.1-27.3c-5.4,12.4,12.8,10.9,17.9,3.2c7.1-10.8,2.4-24.5,3.3-32.7c0,3.5,16.2,12.1,21.9,8    c-2.8,8.3-20.4,20.4-20.8,28c-0.6,11.8,14.7,16.1,12.2,31.4c-1.9-8.8-12.1-17.4-16.1-17.8c-25-2.8-31.5,34.6-37.5,41    c-7.2,7.7-14.7,5-19.4,7.2c-10.1,4.6-5.8,5.6-12.8,14c-2.4,2.8-9.8,3.2-10,3.7c-1.8,3.1,0.8,8.7-1.5,11.2    c-3.6,4-8.7,10.3-13.5,13.6c-9.3,6.5,6.2,30.5-11.8,35.2c4.2,17.6,3.2,31.4-6.8,48.4c-4.9,8.3-7,7.9-7.6,17.7    c-1.9,26.8,7.9-5.4,21.5-0.3c15.1,1.2,21.6-5.5,23.9-17l-6.5-1.8c11.3-5.5,15.3-16,24.7-11.4c0.8,0.1,21-62.7,24.8-73.6    c7.3,1.3,13.3,0.9,16.3-2.8c5-6.1,4.9-17.8,13-20.3c3.8-1.2,15.5,1.1,19,2.5c3.3,1.3,4.8-4.8,10-3.3c23.1,6.6,31.8,11.8,40.3,15.3    c8,3.3,12.1-5.3,16.9-9.7c7.8-7.2,11.7-29.1,27.5-22.8c-2.7-12.1-19.7-15.5-13.1-25.6c-4.9-0.2-5.1-0.6-7.9-2.7    c-1.7-5.7,7.3-5.9,9.3-9.5c5.3-9.8,2.3-16.4-3.2-25.3c-1-1.7,4.4-21.1,7.2-27.4c-5.2-7.1-28.2-16.7-37.3-19.7    c-18-6,22.9-18.5,26.4-21.5c3.8,10.3,9.9,5.2,16.9,2.3c13.7-12.1,3.9-9.4,5-13.4c2.2-7.7-7-9.8,1.9-18c8.1-7.5,13.9,0.5,21.6-7.5    c4.6,3.8,6.6,8.9,6.2,15.1c1.5-0.9,6.3-4.6,7.7-5.7c-2.9-3.7-2.5-8.3-3.9-11.1c11.5,8.5,27.7-0.2,25-15.9    C278.4-55,218.1-55,157.8-55L157.8-55z"/> 	</a> 	<a> 		<path style="fill:#BFBFBF;stroke:#696969;stroke-width:2;stroke-miterlimit:10;" d="M162.4-35.9c-10.1,2.2,2.9-11.9-4.6-19.1    c-3.3-3.1-24.7,0-29,0c-35.5,0-71,0-106.6,0C13-55,4.3-52.2-1.9-46.7c-6.3,5.6-6.8,14.8-15.8,14.4c2.9,5.2,1.8,9,1.3,15.1    c-1.5-0.4-3.2-1-5-1.5c1.7,8.7,0,14.1,1.3,20.8c0.8,4.2,3,11.5,5.8,14.8c3.7,4.4,10.1,4.9,9.6,4.6C5.4,28.7,14.4,32.2,8.2,49.8    C4.8,59.5-6,69.5-14.9,65c-15.4,6.7-4.2,7.1,3.1,15.2c8,8.9,8,21.1,15.2,31.6c4.5-5.6,9-11.2,13.5-16.8    c-6.5,8.2-10.9,24.3-10.3,23.4c12.9-1.3,10.2,16.3,17.4,18.7c15.4,5.2,5.8-12.8,8.5-16.7c6.4-9.2,13.2-3,18.8-13    c7.2-12.8-9.3-7.4-7.2-23.1c14,6.4,23.7-11.9,32.1-8.7c0.3-1.7,1.3-4.8,1.7-7.2c8.9,4.7,1.4,9.4,3.6,14.1c3,6.4,22.8,14.3,26.8,11    c4.5-3.7-0.7-18.5-2-23.3c1.6,7.6,16.5,26.9,19.8,22.3c6.4-8.8-13.3-63.6-13.3-63.6s-14.3-4.1-17.2-6.4c4.9-5.5,8.4-13.4,15.9-18    c-7-3.7-13.3-20.2-11.4-27.3c1.5-5.6,3.7-5.9,14.6-6.3c9.6-0.4,28,5.7,35.9,13.6C162.3-18.8,158.9-25.4,162.4-35.9L162.4-35.9z"/> 	</a> 	<path style="fill:#BFBFBF;stroke:#696969;stroke-width:2;stroke-miterlimit:10;" d="M-21.6,59.7C-20.7,54.9-21.4,58.9-21.6,59.7   L-21.6,59.7z"/> 	<path style="fill:#BFBFBF;stroke:#696969;stroke-width:2;stroke-miterlimit:10;" d="M81.4,90.7"/> 	<path style="fill:#FFFBF0;" d="M-37.5,1l-0.3-0.8L-37.5,1z"/> 	<path style="fill:#FFFBF0;" d="M-38.2,2.3l-0.3-0.8L-38.2,2.3z"/> 	<path style="fill:#BFBFBF;stroke:#696969;stroke-width:2;stroke-miterlimit:10;" d="M-20.4,8.2"/> </g> <g id="o_barbana_x2C__o_sar"> 	<path style="fill:#FFFBF0;stroke:#9A9A9A;stroke-width:2;stroke-miterlimit:10;" d="M79.4,408.2c5.4,5.7,6.4,11.7,11.8,17.4   c-11.5,10.4-17.8,0.2-15.4-15.4C79.5,411,77.8,409.1,79.4,408.2L79.4,408.2z"/> 	<path style="fill:#FFFBF0;stroke:#9A9A9A;stroke-width:2;stroke-miterlimit:10;" d="M93.8,405.7C91.6,402,92.6,403.6,93.8,405.7   L93.8,405.7z"/> 	<path style="fill:#FFFBF0;stroke:#9A9A9A;stroke-width:2;stroke-miterlimit:10;" d="M89.1,397.4c-1-2.1-3.3-2.4-2.5-5.2   C88.7,393.4,89.5,395.1,89.1,397.4C88.2,395.6,89.1,397.4,89.1,397.4z"/> 	<path style="fill:#FFFBF0;stroke:#9A9A9A;stroke-width:2;stroke-miterlimit:10;" d="M54.7,380.5C54.3,379,54.5,379.6,54.7,380.5   L54.7,380.5z"/> 	<path style="fill:#FFFBF0;stroke:#9A9A9A;stroke-width:2;stroke-miterlimit:10;" d="M53.9,384C52.7,381,52.6,380.7,53.9,384   L53.9,384z"/> 	<path style="fill:#FFFBF0;stroke:#9A9A9A;stroke-width:2;stroke-miterlimit:10;" d="M79,395.8C78.8,394.9,78.7,393.9,79,395.8   L79,395.8z"/> 	<path style="fill:#FFFBF0;stroke:#9A9A9A;stroke-width:2;stroke-miterlimit:10;" d="M89,403C88.9,401.3,89,401.8,89,403L89,403z"/> 	<path style="fill-rule:evenodd;clip-rule:evenodd;fill:#FFFBF0;stroke:#9A9A9A;stroke-width:2;stroke-miterlimit:10;" d="   M82.8,432.4c4.7-3.3,3.1-4.2,8.4-6.7c-5.5-5.8-6.5-11.7-11.8-17.4c-1.8,1.3-0.8,0.8-3.7,2c-0.5,8.2,0.6,13.5,3.4,21.1   C80.6,429.4,81,431.1,82.8,432.4L82.8,432.4z"/> 	<path style="fill-rule:evenodd;clip-rule:evenodd;fill:#FFFBF0;stroke:#9A9A9A;stroke-width:2;stroke-miterlimit:10;" d="   M82.8,432.4c-5.7-4.1-11.1-18.5-3.4-24.2c5.3,5.6,6.4,11.7,11.8,17.4C86.3,428,87.8,429.1,82.8,432.4L82.8,432.4z"/> 	<path style="fill-rule:evenodd;clip-rule:evenodd;fill:#FFFBF0;stroke:#9A9A9A;stroke-width:2;stroke-miterlimit:10;" d="   M93.8,405.7C91.9,402.7,92.8,404,93.8,405.7L93.8,405.7z"/> 	<path style="fill-rule:evenodd;clip-rule:evenodd;fill:#FFFBF0;stroke:#9A9A9A;stroke-width:2;stroke-miterlimit:10;" d="M89,403   C88.8,400.2,89,402.6,89,403L89,403z"/> 	<path style="fill-rule:evenodd;clip-rule:evenodd;fill:#FFFBF0;stroke:#9A9A9A;stroke-width:2;stroke-miterlimit:10;" d="M91.6,400   "/> 	<path style="fill-rule:evenodd;clip-rule:evenodd;fill:#FFFBF0;stroke:#9A9A9A;stroke-width:2;stroke-miterlimit:10;" d="M79,395.8   C78.8,394.5,78.8,394.3,79,395.8L79,395.8z"/> 	<path style="fill-rule:evenodd;clip-rule:evenodd;fill:#FFFBF0;stroke:#9A9A9A;stroke-width:2;stroke-miterlimit:10;" d="M53.9,384   C52.8,380.9,52.9,381.1,53.9,384L53.9,384z"/> 	<path style="fill-rule:evenodd;clip-rule:evenodd;fill:#FFFBF0;stroke:#9A9A9A;stroke-width:2;stroke-miterlimit:10;" d="   M54.7,380.5C54.3,379,54.5,379.6,54.7,380.5L54.7,380.5z"/> 	<path style="fill-rule:evenodd;clip-rule:evenodd;fill:#FFFBF0;stroke:#9A9A9A;stroke-width:2;stroke-miterlimit:10;" d="   M61.5,373.3"/> 	<path style="fill-rule:evenodd;clip-rule:evenodd;fill:#FFFBF0;stroke:#9A9A9A;stroke-width:2;stroke-miterlimit:10;" d="   M65.7,371.8"/> 	<path style="fill-rule:evenodd;clip-rule:evenodd;fill:#FFFBF0;stroke:#9A9A9A;stroke-width:2;stroke-miterlimit:10;" d="   M79.4,408.2c-1.6,1.1,0,2.8-3.6,2c-0.5,8.2,0.6,13.5,3.4,21.1c2.3-0.4,0.6-1.1,3.6,1c4.3-3,4.5-3.2,8.4-6.7   C85.8,419.8,84.8,413.9,79.4,408.2L79.4,408.2z"/> 	<path style="fill-rule:evenodd;clip-rule:evenodd;fill:#FFFBF0;stroke:#9A9A9A;stroke-width:2;stroke-miterlimit:10;" d="   M91.7,399.5"/> 	<path style="fill-rule:evenodd;clip-rule:evenodd;fill:#FFFBF0;stroke:#9A9A9A;stroke-width:2;stroke-miterlimit:10;" d="   M50.8,384.2"/> 	<path style="fill-rule:evenodd;clip-rule:evenodd;fill:#FFFBF0;stroke:#9A9A9A;stroke-width:2;stroke-miterlimit:10;" d="   M52.8,381.3C54.3,384.2,53.9,383.3,52.8,381.3L52.8,381.3z"/> 	<path style="fill-rule:evenodd;clip-rule:evenodd;fill:#FFFBF0;stroke:#9A9A9A;stroke-width:2;stroke-miterlimit:10;" d="   M54.3,379.4C54.8,380.3,55,380.8,54.3,379.4L54.3,379.4z"/> 	<path style="fill-rule:evenodd;clip-rule:evenodd;fill:#FFFBF0;stroke:#9A9A9A;stroke-width:2;stroke-miterlimit:10;" d="   M57.4,378.5"/> 	<path style="fill-rule:evenodd;clip-rule:evenodd;fill:#FFFBF0;stroke:#9A9A9A;stroke-width:2;stroke-miterlimit:10;" d="   M61.4,372.8"/> 	<path style="fill-rule:evenodd;clip-rule:evenodd;fill:#FFFBF0;stroke:#9A9A9A;stroke-width:2;stroke-miterlimit:10;" d="   M65.6,371.4"/> 	<path style="fill-rule:evenodd;clip-rule:evenodd;fill:#FFFBF0;stroke:#9A9A9A;stroke-width:2;stroke-miterlimit:10;" d="   M65.7,371.8"/> 	<path style="fill-rule:evenodd;clip-rule:evenodd;fill:#FFFBF0;stroke:#9A9A9A;stroke-width:2;stroke-miterlimit:10;" d="   M61.5,373.3"/> 	<path style="fill-rule:evenodd;clip-rule:evenodd;fill:#FFFBF0;stroke:#9A9A9A;stroke-width:2;stroke-miterlimit:10;" d="M91.6,400   "/> 	<path style="fill-rule:evenodd;clip-rule:evenodd;fill:#FFFBF0;stroke:#9A9A9A;stroke-width:2;stroke-miterlimit:10;" d="   M84.4,257.2l6,2.3c0,0-2.5,14.8-13,15.3s-18-0.3-22,5s-8.3,7.5-11.8,4.8c0,0-3.3,5-6.5,3.8s-9.3,1.5-6.8,4s9.5,10.8,0.3,14   s-12,7-6,9.3s8,4.8,11.8,0s16-6.5,24.8,8.3s10.8,22,2.5,24.8s-5,13.3-5.3,18s-1.9,9.7,3.2,6.9s10.3-4.9,11.3-1.6s2.5,0.8,8-3.8   s7.8-6.8,16.8-11s9.8-17.8,3.8-25s3.8-10.5,6.3-11.8s6-1,11.3-1.5s10.6-16.5,10.6-16.5s4.4-13-13.9-13.5s-10.5-12.5-5.5-19   s17.8-27-0.3-24.5c0,0-9.5-2-13,2.8S84.4,257.2,84.4,257.2z"/> 	<path style="fill:#FFFBF0;stroke:#9A9A9A;stroke-width:2.5218;stroke-miterlimit:10;" d="M83.6,374.2c0,0,0.5,4.3,3.2,3.3   C89.5,376.5,84.7,374.4,83.6,374.2z"/> 	<a> 		<path style="fill-rule:evenodd;clip-rule:evenodd;fill:#FFFBF0;stroke:#9A9A9A;stroke-width:2;stroke-miterlimit:10;" d="    M123.4,204.9l-13.5,40.3c0,0,11.8-1.8,9.3,8.3s-25.8,29.3-10,34.8s21-0.3,20.3,12.3l9.3,3.5c0,0,5,1,6.5-2s4-2.3,8.3-2    s3.8-3.8,1.3-6.3s-5.3-2-8.8-5.3s-5-11.8,1-14.8s19.3-23.8,19.3-23.8L123.4,204.9z"/> 	</a> 	<a> 		<path style="fill-rule:evenodd;clip-rule:evenodd;fill:#FFFBF0;stroke:#9A9A9A;stroke-width:2;stroke-miterlimit:10;" d="    M123.4,204.9l42.8,45c0,0,8,0,5.3-4.5s4.5-6.3,13.3,0.5s7,8.3,1.8,11s-7.5,14-3.8,15s6.8-2.3,11.3,3s12.5,2.3,9.8-1.3    s-3.3-19.8,2.8-19.5s16.3,1.8,12.3-3.5s-19.3-8.3-16.3-14.5s3.8-24,8.8-20.8s5.8,1.3,6-2s1.8-20.3,1.8-20.3s0.8-5.8,5.5-7.8    s9.8-6.8,9.5-12.3s-1.5-9.5-1.5-9.5s-43-23.3-46.8-13.3c0,0-6.7,1.7-13.7-1.4s-18.5,3.9-18.5,7.2s-1.8,14-8.3,15.3    s-10.8-2.3-12.3,2.3S123.4,204.9,123.4,204.9z"/> 	</a> 	<a> 		<path style="fill-rule:evenodd;clip-rule:evenodd;fill:#FFFBF0;stroke:#9A9A9A;stroke-width:2;stroke-miterlimit:10;" d="    M275.9,129.2c0,0-10.5-1.3-15,7s-13.8,26.3-28.5,27.5c0,0,4.5,13.8-3.5,18s-10,8.3-10.3,13l8.8,18.3l11.8,5c0,0-10,17.5-7,18.8    s8.8-0.8,12.3,4.8s4.5,7.8,18.5-0.3s9.8-13.8,14-11s12.8,0,12.8,0l2.8-16c0,0,9.4,5,15.7-24.4c0,0-16.4,2.4-20.4-2.9    s4-8.8-2.3-13.3s-13.5-14.3-13.3-25.8s6-15.8,6-15.8L275.9,129.2z"/> 	</a> 	<a> 		<path style="fill-rule:evenodd;clip-rule:evenodd;fill:#FFFBF0;stroke:#9A9A9A;stroke-width:2;stroke-miterlimit:10;" d="    M278.1,132.2c0,0-12.8,11.5-1.8,31.3s12.5,6,11,16.3s4.5,10.5,20.5,11c0,0,3-18.3,11.8-18.5s21.1-0.7,26.4-9c2.4-3.7,7.4-6,7.4-6    l6.8-12l-30.8-22.3c0,0-5.8-4-11.3,3s-12,20-21.5,16.3S278.1,132.2,278.1,132.2z"/> 	</a> 	<a> 		<path style="fill-rule:evenodd;clip-rule:evenodd;fill:#FFFBF0;stroke:#9A9A9A;stroke-width:2;stroke-miterlimit:10;" d="    M368.3,64.6c0,0-17.2,10.2-12,29.4c6.5,23.8-16.8,37.5-16.8,37.5l20.3,13l-6.5,12.8c0,0,11.5-0.5,13-7l21.3,13.6l5.9-4.9    c0,0,6.9,8,7.1,2.7s-1.5-29,8.3-29.3s19.5-1.3,19.5-1.3s-0.8-5.3-6-9.8s3.8-10.9,3.8-10.9s-3.8-10.1-17.5-8.9s-23,4-23,4    s5.8-10.3,2.3-15s-11.8-8.5-4.3-12.3s9.3,5.6,17-2.2L368.3,64.6"/> 	</a> 	<a> 		<path style="fill-rule:evenodd;clip-rule:evenodd;fill:#FFFBF0;stroke:#9A9A9A;stroke-width:2;stroke-miterlimit:10;" d="    M384.1,70.7l1.5-9.8l-9.8-7.7c0,0-18.7,18.4-39.7,7.4c0,0-6.8-0.3-8.5-12s-1.3-13.5-5.3-15.3s-2.5-4.3-7.3-4.5s-4,4.3-8.8,3.3    s-4.6-6.4-10.6-6.1s-26.7,12.6-26.7,12.6l-8.2,29.4c0,0,8,14.1,6.5,20.1s-8.3,8.8-12.3,12.5s7.5,5,7.5,5s-3.3,6.5,1.8,10.3    s11.5,13.3,11.5,13.3l2.3,3c0,0,19.5,17,27.8,9s14.5-24.5,24.8-17.8l9,8c0,0,18-13.5,19-23.3s-7.2-26.4,1.3-35s8.3-7.8,8.3-7.8    L384.1,70.7z"/> 	</a> 	<a> 		<path style="fill-rule:evenodd;clip-rule:evenodd;fill:none;" d="M113.2,289.9l5.5,0.8l8.8,2.3l1.2,2.5l0.7,4.8l-0.5,4.3l-2.2,3.8    l-2.2,4.7l-1.7,2.7l-2.3,1.5l-2.7,1.2l-6.2,0.2l-7.3,2.3l-1.8,1.2l-2.8,3.5l-0.4,3.5l1.4,1.5l2.4,3.4c0,0,1.5,3.8,1.5,4.3    s0.6,4,0.6,4l-0.6,5.5l-0.8,3.6l-2.5,2.6l-3.1,2.3l-3.6,1.8l-5.9,4l-3.8,2.9l-5.5,4l-5.5,4.4l4.3,35.4l3.1,2.1l2.9,4.4l2.5,4.3    l3.4,3.9l1.1,2.2l-1.6,2.2l-4.1,2.6l-1.9,1.1h-2.3l-1-0.6c0,0-1-0.8-1.5-0.9s-2.5-6.3-2.5-6.6s-0.9-8.8-0.9-8.8l0.3-4.4l2.4-1.4    l-4.3-35.4l-3.2-3.5l-3.6,0.8c0,0-5.9,2.1-6.4,2.3s-1,1.1-1,1.1l-1.8-1.3l-0.1-2.4c0,0,0.8-2.8,0.6-3.4s-0.4-4.8-0.4-4.8v-4.3    c0,0,0.1-3.5,0.4-4s1.5-3.4,1.5-3.4l2.1-2.3l3.6-1.3l2.4-2.5l1.1-2.9l-0.9-4.6l-2.6-5.9l-4.6-8.1l-4.6-5.5l-6.8-4.4l-6.3-1.6    l-4.3,1.4l-3.9,2.6l-1,2l-3.6,0.3l-4.9-2.5l-3.8-2.4c0,0,0.4-2.8,0.8-2.9s5-2.6,5-2.6s3.9-1.8,4.4-2s2.5-2,2.5-2l0.3-3    c0,0-0.5-3.5-1-3.9s-1.8-2.6-1.8-2.6l-2.8-3.4l1.4-1.8c0,0,1.5-0.4,2-0.4s3-0.9,3.6-0.6s2.9-0.1,2.9-0.1l2.6-2.3    c0,0,1.5-0.6,1.9-0.6s3.1,0.5,3.1,0.5s3.3-0.5,3.9-1.1s3.4-2.9,3.6-3.3s5-4.5,5-4.5s2.8-1.3,3.4-1.1s3,0.1,3.5,0.1    s5.9-0.1,5.9-0.1l7.4-1.3l2.1-1.3c0,0,3.9-1.9,4-2.3s2.8-4.8,2.8-4.8l1.8-5l0.1-1.5l-3-1.3l-3-1l5.6-3.4l3.8-2.6l3.1-3.3l2.3-1.9    l4.6-1c0,0,3.5-0.1,4-0.3s3.3,0.1,3.6,0.1s4.9,0.9,4.9,0.9l2.4,2.3l1.1,4.3l-1.6,3.6l-3.3,6.1l-3.5,3.5l-2.6,4.8    c0,0-3.3,5-3.3,5.4s-1.5,3.9-1.5,4.4s0.9,3.6,0.9,3.6l1.5,2.8l4.5,2.1L113.2,289.9z"/> 	</a> </g> <g id="bl"> 	<rect x="128.1" y="276.5" style="opacity:0.6;fill:#FFFBF0;" width="51" height="7.5"/> </g> <g id="text_comarques"> 	<g> 		<rect x="355.3" y="15.4" style="fill-rule:evenodd;clip-rule:evenodd;fill:none;" width="50.4" height="11"/> 		<path style="fill:#1A171B;" d="M362.5,21.6c0,0.7-0.3,1.3-0.9,1.7c-0.6,0.4-1.4,0.7-2.5,0.7c-0.6,0-1.1-0.1-1.6-0.2    c-0.4-0.1-0.9-0.2-1.3-0.4v-1.7h0.2c0.4,0.3,0.8,0.5,1.3,0.7c0.5,0.2,0.9,0.2,1.4,0.2c0.1,0,0.3,0,0.4,0s0.3-0.1,0.5-0.1    c0.1-0.1,0.3-0.1,0.4-0.2c0.1-0.1,0.1-0.2,0.1-0.4c0-0.2-0.1-0.3-0.2-0.4c-0.1-0.1-0.3-0.2-0.6-0.3c-0.3-0.1-0.6-0.1-0.9-0.2    c-0.3-0.1-0.6-0.1-0.9-0.2c-0.6-0.2-1.1-0.5-1.3-0.8c-0.3-0.3-0.4-0.8-0.4-1.3c0-0.7,0.3-1.2,0.9-1.7c0.6-0.4,1.4-0.6,2.3-0.6    c0.5,0,1,0,1.4,0.1c0.5,0.1,0.9,0.2,1.2,0.3v1.7h-0.2c-0.3-0.2-0.7-0.4-1.1-0.6c-0.4-0.2-0.9-0.2-1.3-0.2c-0.2,0-0.3,0-0.5,0    c-0.2,0-0.3,0.1-0.4,0.1c-0.1,0-0.2,0.1-0.3,0.2s-0.1,0.2-0.1,0.3c0,0.2,0.1,0.3,0.2,0.4s0.4,0.2,0.8,0.3c0.3,0.1,0.5,0.1,0.8,0.2    c0.2,0.1,0.5,0.1,0.8,0.2c0.6,0.2,1,0.4,1.2,0.7C362.4,20.7,362.5,21.1,362.5,21.6z"/> 		<path style="fill:#1A171B;" d="M367.1,23.3c-0.1,0.1-0.2,0.2-0.4,0.3s-0.3,0.2-0.4,0.2c-0.2,0.1-0.4,0.1-0.5,0.2s-0.4,0.1-0.6,0.1    c-0.5,0-1-0.2-1.3-0.5s-0.5-0.7-0.5-1.2c0-0.4,0.1-0.7,0.3-1s0.4-0.5,0.8-0.6c0.3-0.1,0.7-0.3,1.2-0.3s1-0.1,1.5-0.1v0    c0-0.3-0.1-0.5-0.4-0.6s-0.6-0.2-1.1-0.2c-0.3,0-0.6,0.1-0.9,0.2s-0.6,0.2-0.7,0.2h-0.2v-1.3c0.2,0,0.5-0.1,0.9-0.2    c0.4-0.1,0.8-0.1,1.3-0.1c1,0,1.7,0.2,2.2,0.5c0.4,0.3,0.7,0.8,0.7,1.4v3.7h-1.7V23.3z M367.1,22.4v-1.1c-0.2,0-0.5,0-0.8,0.1    c-0.3,0-0.5,0.1-0.6,0.1c-0.2,0.1-0.3,0.1-0.4,0.2c-0.1,0.1-0.1,0.2-0.1,0.4c0,0.1,0,0.2,0,0.3c0,0.1,0.1,0.1,0.1,0.2    c0.1,0.1,0.2,0.1,0.3,0.1s0.3,0,0.5,0c0.2,0,0.4,0,0.5-0.1C366.8,22.6,366.9,22.5,367.1,22.4z"/> 		<path style="fill:#1A171B;" d="M375.9,23.9h-1.8v-2.7c0-0.2,0-0.4,0-0.7s-0.1-0.4-0.1-0.5c-0.1-0.1-0.2-0.2-0.3-0.3    c-0.1-0.1-0.3-0.1-0.5-0.1c-0.2,0-0.3,0-0.5,0.1c-0.2,0.1-0.3,0.1-0.5,0.2v3.9h-1.8v-5.5h1.8V19c0.3-0.2,0.6-0.4,0.9-0.6    c0.3-0.1,0.6-0.2,1-0.2c0.6,0,1.1,0.2,1.4,0.5s0.5,0.9,0.5,1.5V23.9z"/> 		<path style="fill:#1A171B;" d="M381,23.8c-0.2,0-0.4,0.1-0.6,0.1c-0.2,0-0.5,0-0.8,0c-0.7,0-1.2-0.1-1.5-0.4    c-0.3-0.3-0.5-0.8-0.5-1.4v-2.6h-0.7v-1.2h0.7v-1.6h1.8v1.6h1.6v1.2h-1.6v1.9c0,0.2,0,0.4,0,0.5c0,0.1,0,0.3,0.1,0.4    c0,0.1,0.1,0.2,0.2,0.3c0.1,0.1,0.3,0.1,0.5,0.1c0.1,0,0.2,0,0.4-0.1s0.3-0.1,0.3-0.1h0.1V23.8z"/> 		<path style="fill:#1A171B;" d="M383.9,17.6H382v-1.3h1.9V17.6z M383.9,23.9h-1.8v-5.5h1.8V23.9z"/> 		<path style="fill:#1A171B;" d="M388.8,23.3c-0.1,0.1-0.2,0.2-0.4,0.3s-0.3,0.2-0.4,0.2c-0.2,0.1-0.4,0.1-0.5,0.2s-0.4,0.1-0.6,0.1    c-0.5,0-1-0.2-1.3-0.5s-0.5-0.7-0.5-1.2c0-0.4,0.1-0.7,0.3-1s0.4-0.5,0.8-0.6c0.3-0.1,0.7-0.3,1.2-0.3s1-0.1,1.5-0.1v0    c0-0.3-0.1-0.5-0.4-0.6s-0.6-0.2-1.1-0.2c-0.3,0-0.6,0.1-0.9,0.2s-0.6,0.2-0.7,0.2h-0.2v-1.3c0.2,0,0.5-0.1,0.9-0.2    c0.4-0.1,0.8-0.1,1.3-0.1c1,0,1.7,0.2,2.2,0.5c0.4,0.3,0.7,0.8,0.7,1.4v3.7h-1.7V23.3z M388.8,22.4v-1.1c-0.2,0-0.5,0-0.8,0.1    c-0.3,0-0.5,0.1-0.6,0.1c-0.2,0.1-0.3,0.1-0.4,0.2c-0.1,0.1-0.1,0.2-0.1,0.4c0,0.1,0,0.2,0,0.3c0,0.1,0.1,0.1,0.1,0.2    c0.1,0.1,0.2,0.1,0.3,0.1s0.3,0,0.5,0c0.2,0,0.4,0,0.5-0.1C388.5,22.6,388.7,22.5,388.8,22.4z"/> 		<path style="fill:#1A171B;" d="M397.5,23.2c0,0.5-0.1,0.9-0.2,1.3s-0.4,0.6-0.6,0.8c-0.3,0.2-0.6,0.3-1,0.4    c-0.4,0.1-0.8,0.1-1.3,0.1c-0.4,0-0.8,0-1.1-0.1c-0.4,0-0.7-0.1-1-0.2v-1.4h0.2c0.2,0.1,0.5,0.2,0.8,0.2c0.3,0.1,0.6,0.1,0.8,0.1    c0.3,0,0.6,0,0.8-0.1s0.4-0.1,0.5-0.3c0.1-0.1,0.2-0.2,0.2-0.4c0-0.2,0.1-0.4,0.1-0.6v-0.1c-0.2,0.2-0.4,0.3-0.7,0.4    s-0.5,0.2-0.9,0.2c-0.8,0-1.4-0.2-1.8-0.7s-0.6-1.2-0.6-2.1c0-0.5,0.1-0.8,0.2-1.2s0.3-0.6,0.5-0.9c0.2-0.2,0.5-0.4,0.8-0.5    c0.3-0.1,0.6-0.2,1-0.2c0.3,0,0.6,0,0.8,0.1s0.5,0.2,0.7,0.3l0.1-0.2h1.7V23.2z M395.8,22.1v-2.5c-0.1,0-0.2-0.1-0.4-0.1    c-0.1,0-0.3,0-0.4,0c-0.5,0-0.8,0.1-1,0.4s-0.3,0.6-0.3,1.1c0,0.5,0.1,0.9,0.3,1.1s0.5,0.3,0.9,0.3c0.2,0,0.3,0,0.5-0.1    S395.6,22.2,395.8,22.1z"/> 		<path style="fill:#1A171B;" d="M404.8,21.1c0,0.9-0.3,1.6-0.8,2.1c-0.5,0.5-1.3,0.8-2.2,0.8s-1.7-0.3-2.2-0.8    c-0.5-0.5-0.8-1.2-0.8-2.1c0-0.9,0.3-1.6,0.8-2.1c0.5-0.5,1.3-0.8,2.2-0.8c1,0,1.7,0.3,2.2,0.8C404.5,19.5,404.8,20.2,404.8,21.1z     M402.6,22.4c0.1-0.1,0.2-0.3,0.3-0.5c0.1-0.2,0.1-0.5,0.1-0.8c0-0.3,0-0.6-0.1-0.8s-0.1-0.4-0.2-0.5c-0.1-0.1-0.2-0.2-0.4-0.3    s-0.3-0.1-0.5-0.1s-0.3,0-0.5,0.1c-0.1,0-0.3,0.1-0.4,0.3c-0.1,0.1-0.2,0.3-0.3,0.5c-0.1,0.2-0.1,0.5-0.1,0.8c0,0.3,0,0.6,0.1,0.8    s0.1,0.4,0.2,0.5c0.1,0.1,0.2,0.2,0.4,0.3c0.1,0.1,0.3,0.1,0.5,0.1c0.2,0,0.3,0,0.5-0.1C402.4,22.7,402.5,22.6,402.6,22.4z"/> 	</g> 	<g> 		<rect x="160.5" y="113.6" style="fill-rule:evenodd;clip-rule:evenodd;fill:none;" width="86.6" height="11"/> 		<path style="fill:#1A171B;" d="M168.6,122.1h-1.8l-3.1-5v5H162v-7.3h2.2l2.7,4.2v-4.2h1.7V122.1z"/> 		<path style="fill:#1A171B;" d="M176,119.4c0,0.9-0.3,1.6-0.8,2.1c-0.5,0.5-1.3,0.8-2.2,0.8s-1.7-0.3-2.2-0.8    c-0.5-0.5-0.8-1.2-0.8-2.1c0-0.9,0.3-1.6,0.8-2.1c0.5-0.5,1.3-0.8,2.2-0.8c1,0,1.7,0.3,2.2,0.8C175.7,117.8,176,118.5,176,119.4z     M173.8,120.7c0.1-0.1,0.2-0.3,0.3-0.5c0.1-0.2,0.1-0.5,0.1-0.8c0-0.3,0-0.6-0.1-0.8s-0.1-0.4-0.2-0.5c-0.1-0.1-0.2-0.2-0.4-0.3    s-0.3-0.1-0.5-0.1s-0.3,0-0.5,0.1c-0.1,0-0.3,0.1-0.4,0.3c-0.1,0.1-0.2,0.3-0.3,0.5c-0.1,0.2-0.1,0.5-0.1,0.8c0,0.3,0,0.6,0.1,0.8    s0.1,0.4,0.2,0.5c0.1,0.1,0.2,0.2,0.4,0.3c0.1,0.1,0.3,0.1,0.5,0.1c0.2,0,0.3,0,0.5-0.1C173.6,120.9,173.7,120.8,173.8,120.7z"/> 		<path style="fill:#1A171B;" d="M179,115.8h-1.9v-1.3h1.9V115.8z M179,122.1h-1.8v-5.5h1.8V122.1z"/> 		<path style="fill:#1A171B;" d="M184,121.5c-0.1,0.1-0.2,0.2-0.4,0.3s-0.3,0.2-0.4,0.2c-0.2,0.1-0.4,0.1-0.5,0.2s-0.4,0.1-0.6,0.1    c-0.5,0-1-0.2-1.3-0.5s-0.5-0.7-0.5-1.2c0-0.4,0.1-0.7,0.3-1s0.4-0.5,0.8-0.6c0.3-0.1,0.7-0.3,1.2-0.3s1-0.1,1.5-0.1v0    c0-0.3-0.1-0.5-0.4-0.6s-0.6-0.2-1.1-0.2c-0.3,0-0.6,0.1-0.9,0.2s-0.6,0.2-0.7,0.2h-0.2v-1.3c0.2,0,0.5-0.1,0.9-0.2    c0.4-0.1,0.8-0.1,1.3-0.1c1,0,1.7,0.2,2.2,0.5c0.4,0.3,0.7,0.8,0.7,1.4v3.7H184V121.5z M184,120.7v-1.1c-0.2,0-0.5,0-0.8,0.1    c-0.3,0-0.5,0.1-0.6,0.1c-0.2,0.1-0.3,0.1-0.4,0.2c-0.1,0.1-0.1,0.2-0.1,0.4c0,0.1,0,0.2,0,0.3c0,0.1,0.1,0.1,0.1,0.2    c0.1,0.1,0.2,0.1,0.3,0.1s0.3,0,0.5,0c0.2,0,0.4,0,0.5-0.1C183.7,120.9,183.8,120.8,184,120.7z"/> 		<path style="fill:#1A171B;" d="M189.5,120.2l-1.8,3.7h-1.1l1-3.7H189.5z"/> 		<path style="fill:#1A171B;" d="M201.2,122.1h-1.9l-0.5-1.5H196l-0.5,1.5h-1.9l2.7-7.3h2.2L201.2,122.1z M198.3,119.3l-0.9-2.6    l-0.9,2.6H198.3z"/> 		<path style="fill:#1A171B;" d="M211.8,119.9c0,0.4-0.1,0.7-0.2,0.9c-0.1,0.3-0.3,0.5-0.6,0.7c-0.3,0.2-0.6,0.4-0.9,0.5    c-0.3,0.1-0.8,0.1-1.3,0.1h-3.2v-7.3h2.8c0.6,0,1,0,1.3,0.1c0.3,0,0.5,0.1,0.8,0.3c0.3,0.1,0.5,0.3,0.6,0.6    c0.1,0.2,0.2,0.5,0.2,0.8c0,0.4-0.1,0.7-0.3,0.9s-0.4,0.5-0.8,0.6v0c0.5,0.1,0.9,0.3,1.1,0.6C211.7,119,211.8,119.4,211.8,119.9z     M209.4,116.9c0-0.1,0-0.2-0.1-0.4c-0.1-0.1-0.2-0.2-0.3-0.3c-0.1-0.1-0.3-0.1-0.5-0.1c-0.2,0-0.5,0-0.9,0h-0.2v1.5h0.3    c0.3,0,0.5,0,0.8,0s0.4,0,0.5-0.1c0.2-0.1,0.3-0.2,0.3-0.3S209.4,117,209.4,116.9z M209.9,119.9c0-0.2,0-0.4-0.1-0.5    c-0.1-0.1-0.2-0.2-0.5-0.3c-0.1,0-0.3-0.1-0.6-0.1c-0.3,0-0.5,0-0.8,0h-0.4v1.8h0.1c0.5,0,0.9,0,1.1,0s0.4,0,0.6-0.1    c0.2-0.1,0.3-0.2,0.4-0.3S209.9,120,209.9,119.9z"/> 		<path style="fill:#1A171B;" d="M216.5,121.5c-0.1,0.1-0.2,0.2-0.4,0.3s-0.3,0.2-0.4,0.2c-0.2,0.1-0.4,0.1-0.5,0.2    s-0.4,0.1-0.6,0.1c-0.5,0-1-0.2-1.3-0.5s-0.5-0.7-0.5-1.2c0-0.4,0.1-0.7,0.3-1s0.4-0.5,0.8-0.6c0.3-0.1,0.7-0.3,1.2-0.3    s1-0.1,1.5-0.1v0c0-0.3-0.1-0.5-0.4-0.6s-0.6-0.2-1.1-0.2c-0.3,0-0.6,0.1-0.9,0.2s-0.6,0.2-0.7,0.2h-0.2v-1.3    c0.2,0,0.5-0.1,0.9-0.2c0.4-0.1,0.8-0.1,1.3-0.1c1,0,1.7,0.2,2.2,0.5c0.4,0.3,0.7,0.8,0.7,1.4v3.7h-1.7V121.5z M216.5,120.7v-1.1    c-0.2,0-0.5,0-0.8,0.1c-0.3,0-0.5,0.1-0.6,0.1c-0.2,0.1-0.3,0.1-0.4,0.2c-0.1,0.1-0.1,0.2-0.1,0.4c0,0.1,0,0.2,0,0.3    c0,0.1,0.1,0.1,0.1,0.2c0.1,0.1,0.2,0.1,0.3,0.1s0.3,0,0.5,0c0.2,0,0.4,0,0.5-0.1C216.2,120.9,216.3,120.8,216.5,120.7z"/> 		<path style="fill:#1A171B;" d="M223.8,118.3h-0.2c-0.1,0-0.2,0-0.4-0.1s-0.3,0-0.4,0c-0.3,0-0.5,0-0.7,0c-0.2,0-0.4,0.1-0.6,0.2    v3.7h-1.8v-5.5h1.8v0.8c0.4-0.3,0.7-0.6,1-0.7c0.3-0.1,0.5-0.2,0.8-0.2c0.1,0,0.1,0,0.2,0c0.1,0,0.1,0,0.2,0V118.3z"/> 		<path style="fill:#1A171B;" d="M227.6,122.3c-0.5,0-0.9-0.1-1.3-0.2c-0.4-0.1-0.7-0.3-1-0.5c-0.3-0.2-0.5-0.5-0.7-0.9    s-0.2-0.8-0.2-1.3c0-0.5,0.1-1,0.3-1.3c0.2-0.4,0.4-0.7,0.7-0.9c0.3-0.2,0.6-0.4,1-0.5s0.8-0.2,1.2-0.2c0.4,0,0.7,0,1,0.1    s0.6,0.2,0.9,0.3v1.5h-0.2c-0.1-0.1-0.2-0.1-0.2-0.2s-0.2-0.2-0.4-0.2c-0.1-0.1-0.3-0.1-0.4-0.2s-0.3-0.1-0.6-0.1    c-0.5,0-0.8,0.1-1.1,0.4s-0.4,0.7-0.4,1.2c0,0.5,0.1,0.9,0.4,1.2c0.3,0.3,0.6,0.4,1.1,0.4c0.2,0,0.4,0,0.6-0.1    c0.2-0.1,0.3-0.1,0.4-0.2c0.1-0.1,0.2-0.1,0.3-0.2c0.1-0.1,0.2-0.1,0.2-0.2h0.2v1.5c-0.3,0.1-0.6,0.2-0.9,0.3    C228.3,122.2,228,122.3,227.6,122.3z"/> 		<path style="fill:#1A171B;" d="M234,121.5c-0.1,0.1-0.2,0.2-0.4,0.3s-0.3,0.2-0.4,0.2c-0.2,0.1-0.4,0.1-0.5,0.2s-0.4,0.1-0.6,0.1    c-0.5,0-1-0.2-1.3-0.5s-0.5-0.7-0.5-1.2c0-0.4,0.1-0.7,0.3-1s0.4-0.5,0.8-0.6c0.3-0.1,0.7-0.3,1.2-0.3s1-0.1,1.5-0.1v0    c0-0.3-0.1-0.5-0.4-0.6s-0.6-0.2-1.1-0.2c-0.3,0-0.6,0.1-0.9,0.2s-0.6,0.2-0.7,0.2h-0.2v-1.3c0.2,0,0.5-0.1,0.9-0.2    c0.4-0.1,0.8-0.1,1.3-0.1c1,0,1.7,0.2,2.2,0.5c0.4,0.3,0.7,0.8,0.7,1.4v3.7H234V121.5z M234,120.7v-1.1c-0.2,0-0.5,0-0.8,0.1    c-0.3,0-0.5,0.1-0.6,0.1c-0.2,0.1-0.3,0.1-0.4,0.2c-0.1,0.1-0.1,0.2-0.1,0.4c0,0.1,0,0.2,0,0.3c0,0.1,0.1,0.1,0.1,0.2    c0.1,0.1,0.2,0.1,0.3,0.1s0.3,0,0.5,0c0.2,0,0.4,0,0.5-0.1C233.7,120.9,233.9,120.8,234,120.7z"/> 		<path style="fill:#1A171B;" d="M239.1,122.1h-1.8v-7.6h1.8V122.1z"/> 		<path style="fill:#1A171B;" d="M244.1,121.5c-0.1,0.1-0.2,0.2-0.4,0.3s-0.3,0.2-0.4,0.2c-0.2,0.1-0.4,0.1-0.5,0.2    s-0.4,0.1-0.6,0.1c-0.5,0-1-0.2-1.3-0.5s-0.5-0.7-0.5-1.2c0-0.4,0.1-0.7,0.3-1s0.4-0.5,0.8-0.6c0.3-0.1,0.7-0.3,1.2-0.3    s1-0.1,1.5-0.1v0c0-0.3-0.1-0.5-0.4-0.6s-0.6-0.2-1.1-0.2c-0.3,0-0.6,0.1-0.9,0.2s-0.6,0.2-0.7,0.2h-0.2v-1.3    c0.2,0,0.5-0.1,0.9-0.2c0.4-0.1,0.8-0.1,1.3-0.1c1,0,1.7,0.2,2.2,0.5c0.4,0.3,0.7,0.8,0.7,1.4v3.7h-1.7V121.5z M244.1,120.7v-1.1    c-0.2,0-0.5,0-0.8,0.1c-0.3,0-0.5,0.1-0.6,0.1c-0.2,0.1-0.3,0.1-0.4,0.2c-0.1,0.1-0.1,0.2-0.1,0.4c0,0.1,0,0.2,0,0.3    c0,0.1,0.1,0.1,0.1,0.2c0.1,0.1,0.2,0.1,0.3,0.1s0.3,0,0.5,0c0.2,0,0.4,0,0.5-0.1C243.8,120.9,244,120.8,244.1,120.7z"/> 	</g> 	<g> 		<rect x="25.6" y="36.4" style="fill-rule:evenodd;clip-rule:evenodd;fill:none;" width="76.2" height="11"/> 		<path style="fill:#1A171B;" d="M34.7,44.9h-1.9V40l-1.3,3.2h-1.3L28.8,40v4.9H27v-7.3h2.2l1.6,3.6l1.6-3.6h2.2V44.9z"/> 		<path style="fill:#1A171B;" d="M41.9,44.9h-1.8v-0.6c-0.3,0.2-0.6,0.4-0.9,0.6s-0.6,0.2-1,0.2c-0.6,0-1.1-0.2-1.4-0.5    c-0.3-0.3-0.5-0.9-0.5-1.5v-3.6h1.8v2.7c0,0.3,0,0.5,0,0.7c0,0.2,0.1,0.3,0.1,0.5c0.1,0.1,0.2,0.2,0.3,0.3    c0.1,0.1,0.3,0.1,0.5,0.1c0.1,0,0.3,0,0.5-0.1s0.4-0.1,0.5-0.2v-3.9h1.8V44.9z"/> 		<path style="fill:#1A171B;" d="M47.5,41h-0.2c-0.1,0-0.2,0-0.4-0.1s-0.3,0-0.4,0c-0.3,0-0.5,0-0.7,0c-0.2,0-0.4,0.1-0.6,0.2v3.7    h-1.8v-5.5h1.8v0.8c0.4-0.3,0.7-0.6,1-0.7c0.3-0.1,0.5-0.2,0.8-0.2c0.1,0,0.1,0,0.2,0c0.1,0,0.1,0,0.2,0V41z"/> 		<path style="fill:#1A171B;" d="M54.1,42.1c0,0.9-0.3,1.6-0.8,2.1c-0.5,0.5-1.3,0.8-2.2,0.8s-1.7-0.3-2.2-0.8    c-0.5-0.5-0.8-1.2-0.8-2.1c0-0.9,0.3-1.6,0.8-2.1c0.5-0.5,1.3-0.8,2.2-0.8c1,0,1.7,0.3,2.2,0.8C53.8,40.5,54.1,41.2,54.1,42.1z     M51.9,43.4c0.1-0.1,0.2-0.3,0.3-0.5c0.1-0.2,0.1-0.5,0.1-0.8c0-0.3,0-0.6-0.1-0.8s-0.1-0.4-0.2-0.5c-0.1-0.1-0.2-0.2-0.4-0.3    s-0.3-0.1-0.5-0.1s-0.3,0-0.5,0.1c-0.1,0-0.3,0.1-0.4,0.3c-0.1,0.1-0.2,0.3-0.3,0.5c-0.1,0.2-0.1,0.5-0.1,0.8c0,0.3,0,0.6,0.1,0.8    s0.1,0.4,0.2,0.5c0.1,0.1,0.2,0.2,0.4,0.3c0.1,0.1,0.3,0.1,0.5,0.1c0.2,0,0.3,0,0.5-0.1C51.7,43.7,51.8,43.6,51.9,43.4z"/> 		<path style="fill:#1A171B;" d="M60.1,43.1c0,0.6-0.3,1-0.8,1.4S58.2,45,57.3,45c-0.5,0-0.9,0-1.3-0.1s-0.7-0.2-1-0.3v-1.4h0.2    c0.1,0.1,0.2,0.1,0.3,0.2c0.1,0.1,0.3,0.2,0.5,0.2c0.2,0.1,0.4,0.1,0.6,0.2s0.5,0.1,0.7,0.1c0.3,0,0.6,0,0.8-0.1s0.2-0.2,0.2-0.3    c0-0.1,0-0.2-0.1-0.3s-0.3-0.1-0.6-0.2c-0.1,0-0.3-0.1-0.5-0.1c-0.2,0-0.4-0.1-0.6-0.1c-0.5-0.1-0.9-0.3-1.1-0.6s-0.4-0.6-0.4-1    c0-0.5,0.3-1,0.7-1.3c0.5-0.4,1.2-0.5,2-0.5c0.4,0,0.8,0,1.2,0.1c0.4,0.1,0.7,0.2,0.9,0.3V41h-0.2c-0.3-0.2-0.6-0.3-0.9-0.4    c-0.3-0.1-0.7-0.2-1-0.2c-0.3,0-0.5,0-0.7,0.1c-0.2,0.1-0.3,0.2-0.3,0.3c0,0.1,0,0.2,0.1,0.3s0.3,0.1,0.6,0.2    c0.2,0,0.4,0.1,0.6,0.1c0.2,0,0.4,0.1,0.6,0.1c0.5,0.1,0.8,0.3,1,0.6S60.1,42.7,60.1,43.1z"/> 		<path style="fill:#1A171B;" d="M63.5,42.9l-1.8,3.7h-1.1l1-3.7H63.5z"/> 		<path style="fill:#1A171B;" d="M75,44.9h-2.2l-1.6-2.4l-1.6,2.4h-2.1l2.6-3.7l-2.5-3.6h2.2l1.5,2.3l1.6-2.3H75l-2.5,3.5L75,44.9z"/> 		<path style="fill:#1A171B;" d="M79.3,44.3c-0.1,0.1-0.2,0.2-0.4,0.3s-0.3,0.2-0.4,0.2c-0.2,0.1-0.4,0.1-0.5,0.2S77.6,45,77.4,45    c-0.5,0-1-0.2-1.3-0.5s-0.5-0.7-0.5-1.2c0-0.4,0.1-0.7,0.3-1s0.4-0.5,0.8-0.6c0.3-0.1,0.7-0.3,1.2-0.3s1-0.1,1.5-0.1v0    c0-0.3-0.1-0.5-0.4-0.6s-0.6-0.2-1.1-0.2c-0.3,0-0.6,0.1-0.9,0.2s-0.6,0.2-0.7,0.2H76v-1.3c0.2,0,0.5-0.1,0.9-0.2    c0.4-0.1,0.8-0.1,1.3-0.1c1,0,1.7,0.2,2.2,0.5c0.4,0.3,0.7,0.8,0.7,1.4v3.7h-1.7V44.3z M79.3,43.4v-1.1c-0.2,0-0.5,0-0.8,0.1    c-0.3,0-0.5,0.1-0.6,0.1c-0.2,0.1-0.3,0.1-0.4,0.2c-0.1,0.1-0.1,0.2-0.1,0.4c0,0.1,0,0.2,0,0.3c0,0.1,0.1,0.1,0.1,0.2    c0.1,0.1,0.2,0.1,0.3,0.1s0.3,0,0.5,0c0.2,0,0.4,0,0.5-0.1C79,43.6,79.2,43.5,79.3,43.4z"/> 		<path style="fill:#1A171B;" d="M84.4,44.9h-1.8v-7.6h1.8V44.9z"/> 		<path style="fill:#1A171B;" d="M87.8,44.9h-1.8v-7.6h1.8V44.9z"/> 		<path style="fill:#1A171B;" d="M92.8,44.3c-0.1,0.1-0.2,0.2-0.4,0.3s-0.3,0.2-0.4,0.2c-0.2,0.1-0.4,0.1-0.5,0.2S91.1,45,90.9,45    c-0.5,0-1-0.2-1.3-0.5s-0.5-0.7-0.5-1.2c0-0.4,0.1-0.7,0.3-1s0.4-0.5,0.8-0.6c0.3-0.1,0.7-0.3,1.2-0.3s1-0.1,1.5-0.1v0    c0-0.3-0.1-0.5-0.4-0.6s-0.6-0.2-1.1-0.2c-0.3,0-0.6,0.1-0.9,0.2s-0.6,0.2-0.7,0.2h-0.2v-1.3c0.2,0,0.5-0.1,0.9-0.2    c0.4-0.1,0.8-0.1,1.3-0.1c1,0,1.7,0.2,2.2,0.5c0.4,0.3,0.7,0.8,0.7,1.4v3.7h-1.7V44.3z M92.8,43.4v-1.1c-0.2,0-0.5,0-0.8,0.1    c-0.3,0-0.5,0.1-0.6,0.1c-0.2,0.1-0.3,0.1-0.4,0.2c-0.1,0.1-0.1,0.2-0.1,0.4c0,0.1,0,0.2,0,0.3c0,0.1,0.1,0.1,0.1,0.2    c0.1,0.1,0.2,0.1,0.3,0.1s0.3,0,0.5,0c0.2,0,0.4,0,0.5-0.1C92.5,43.6,92.7,43.5,92.8,43.4z"/> 		<path style="fill:#1A171B;" d="M100.9,43.1c0,0.6-0.3,1-0.8,1.4S99,45,98.1,45c-0.5,0-0.9,0-1.3-0.1s-0.7-0.2-1-0.3v-1.4H96    c0.1,0.1,0.2,0.1,0.3,0.2c0.1,0.1,0.3,0.2,0.5,0.2c0.2,0.1,0.4,0.1,0.6,0.2s0.5,0.1,0.7,0.1c0.3,0,0.6,0,0.8-0.1s0.2-0.2,0.2-0.3    c0-0.1,0-0.2-0.1-0.3s-0.3-0.1-0.6-0.2c-0.1,0-0.3-0.1-0.5-0.1c-0.2,0-0.4-0.1-0.6-0.1c-0.5-0.1-0.9-0.3-1.1-0.6s-0.4-0.6-0.4-1    c0-0.5,0.3-1,0.8-1.3c0.5-0.4,1.2-0.5,2-0.5c0.4,0,0.8,0,1.2,0.1c0.4,0.1,0.7,0.2,0.9,0.3V41h-0.2c-0.3-0.2-0.6-0.3-0.9-0.4    c-0.3-0.1-0.7-0.2-1-0.2c-0.3,0-0.5,0-0.7,0.1c-0.2,0.1-0.3,0.2-0.3,0.3c0,0.1,0,0.2,0.1,0.3s0.3,0.1,0.6,0.2    c0.2,0,0.4,0.1,0.6,0.1c0.2,0,0.4,0.1,0.6,0.1c0.5,0.1,0.8,0.3,1,0.6S100.9,42.7,100.9,43.1z"/> 	</g> </g> <g id="text-municipis"> 	<g> 		<rect x="304.9" y="81.9" style="fill-rule:evenodd;clip-rule:evenodd;fill:none;" width="20.7" height="11"/> 		<path style="fill:#1A171B;" d="M311.5,90.4h-1.2l-2.3-2.9h-1.3v2.9h-0.9v-7.3h1.9c0.4,0,0.8,0,1,0.1c0.3,0.1,0.5,0.2,0.7,0.3    c0.2,0.2,0.4,0.4,0.6,0.6c0.1,0.3,0.2,0.6,0.2,1c0,0.5-0.1,1-0.4,1.3s-0.6,0.6-1,0.8L311.5,90.4z M309.4,85.2c0-0.2,0-0.4-0.1-0.6    s-0.2-0.3-0.3-0.4c-0.1-0.1-0.3-0.2-0.5-0.2s-0.4-0.1-0.6-0.1h-1.1v2.7h0.9c0.3,0,0.5,0,0.8-0.1c0.2-0.1,0.4-0.2,0.5-0.3    c0.1-0.1,0.2-0.3,0.3-0.5S309.4,85.5,309.4,85.2z"/> 		<path style="fill:#1A171B;" d="M316.5,87.7c0,0.9-0.2,1.6-0.6,2.1s-1,0.8-1.7,0.8c-0.7,0-1.3-0.3-1.7-0.8s-0.6-1.2-0.6-2.1    s0.2-1.6,0.6-2.1s1-0.8,1.7-0.8c0.7,0,1.3,0.3,1.7,0.8S316.5,86.8,316.5,87.7z M315.6,87.7c0-0.7-0.1-1.2-0.4-1.6    s-0.6-0.5-1.1-0.5c-0.5,0-0.8,0.2-1.1,0.5s-0.4,0.9-0.4,1.6c0,0.7,0.1,1.2,0.4,1.6s0.6,0.5,1.1,0.5c0.5,0,0.8-0.2,1.1-0.5    C315.5,88.9,315.6,88.4,315.6,87.7z"/> 		<path style="fill:#1A171B;" d="M318.8,84.1h-1v-1h1V84.1z M318.8,90.4h-0.9V85h0.9V90.4z"/> 		<path style="fill:#1A171B;" d="M324.2,88.9c0,0.5-0.2,0.9-0.6,1.2c-0.4,0.3-0.9,0.5-1.6,0.5c-0.4,0-0.7,0-1-0.1s-0.6-0.2-0.8-0.3    v-1h0c0.3,0.2,0.6,0.4,0.9,0.5c0.3,0.1,0.7,0.2,1,0.2c0.4,0,0.7-0.1,0.9-0.2c0.2-0.1,0.3-0.3,0.3-0.6c0-0.2-0.1-0.4-0.2-0.5    s-0.3-0.2-0.7-0.3c-0.1,0-0.3-0.1-0.5-0.1c-0.2,0-0.4-0.1-0.5-0.1c-0.5-0.1-0.8-0.3-1-0.6s-0.3-0.5-0.3-0.9c0-0.2,0-0.4,0.1-0.6    s0.2-0.4,0.4-0.5c0.2-0.2,0.4-0.3,0.7-0.4c0.3-0.1,0.6-0.1,0.9-0.1c0.3,0,0.6,0,0.9,0.1s0.6,0.2,0.8,0.3v1h0    c-0.2-0.2-0.5-0.3-0.8-0.4c-0.3-0.1-0.6-0.2-0.9-0.2c-0.3,0-0.6,0.1-0.8,0.2s-0.3,0.3-0.3,0.6c0,0.2,0.1,0.4,0.2,0.5    c0.1,0.1,0.3,0.2,0.6,0.3c0.2,0,0.3,0.1,0.5,0.1s0.4,0.1,0.5,0.1c0.4,0.1,0.7,0.3,0.9,0.5C324,88.2,324.2,88.5,324.2,88.9z"/> 	</g> 	<g> 		<rect x="370.9" y="115.4" style="fill-rule:evenodd;clip-rule:evenodd;fill:none;" width="33.9" height="11"/> 		<path style="fill:#1A171B;" d="M376.3,118.9c0,0.3-0.1,0.6-0.2,0.9c-0.1,0.3-0.3,0.5-0.4,0.7c-0.2,0.3-0.5,0.4-0.8,0.6    c-0.3,0.1-0.7,0.2-1.2,0.2h-0.9v2.7h-0.9v-7.3h1.9c0.4,0,0.8,0,1,0.1c0.3,0.1,0.5,0.2,0.8,0.3c0.3,0.2,0.5,0.4,0.6,0.7    C376.2,118.1,376.3,118.4,376.3,118.9z M375.4,118.9c0-0.3,0-0.5-0.1-0.7s-0.2-0.3-0.4-0.5c-0.1-0.1-0.3-0.2-0.5-0.2    c-0.2,0-0.4-0.1-0.7-0.1h-0.9v2.9h0.8c0.4,0,0.7,0,0.9-0.1s0.4-0.2,0.6-0.3c0.1-0.2,0.2-0.3,0.3-0.5    C375.3,119.3,375.4,119.1,375.4,118.9z"/> 		<path style="fill:#1A171B;" d="M381.3,123.9h-0.9v-0.6c-0.1,0.1-0.2,0.1-0.3,0.2s-0.3,0.2-0.4,0.2c-0.1,0.1-0.3,0.1-0.5,0.2    s-0.4,0.1-0.7,0.1c-0.5,0-0.9-0.2-1.2-0.5c-0.3-0.3-0.5-0.7-0.5-1.2c0-0.4,0.1-0.7,0.3-1s0.4-0.5,0.7-0.6c0.3-0.1,0.7-0.2,1.1-0.3    c0.4-0.1,0.9-0.1,1.4-0.1v-0.1c0-0.2,0-0.4-0.1-0.5c-0.1-0.1-0.2-0.2-0.3-0.3c-0.1-0.1-0.3-0.1-0.4-0.2c-0.2,0-0.4,0-0.5,0    c-0.2,0-0.5,0-0.8,0.1c-0.3,0.1-0.6,0.2-0.9,0.3h0v-0.9c0.2,0,0.4-0.1,0.7-0.2c0.3-0.1,0.6-0.1,0.9-0.1c0.4,0,0.7,0,0.9,0.1    s0.5,0.2,0.7,0.3c0.2,0.1,0.3,0.3,0.4,0.6s0.2,0.5,0.2,0.9V123.9z M380.4,122.6v-1.5c-0.3,0-0.6,0-0.9,0.1s-0.6,0.1-0.9,0.1    c-0.2,0.1-0.5,0.2-0.6,0.3c-0.2,0.2-0.2,0.4-0.2,0.7c0,0.3,0.1,0.5,0.3,0.7s0.5,0.2,0.8,0.2c0.3,0,0.6-0.1,0.8-0.2    C380,122.9,380.2,122.8,380.4,122.6z"/> 		<path style="fill:#1A171B;" d="M387.1,123.9h-0.9v-0.6c-0.2,0.2-0.5,0.4-0.8,0.5s-0.6,0.2-0.9,0.2c-0.6,0-1.1-0.3-1.5-0.8    c-0.4-0.5-0.5-1.2-0.5-2.1c0-0.5,0.1-0.9,0.2-1.2c0.1-0.4,0.3-0.7,0.5-0.9c0.2-0.2,0.5-0.4,0.7-0.6s0.6-0.2,0.9-0.2    c0.3,0,0.5,0,0.7,0.1s0.4,0.2,0.7,0.3v-2.4h0.9V123.9z M386.3,122.6v-3.1c-0.2-0.1-0.4-0.2-0.6-0.2s-0.4-0.1-0.6-0.1    c-0.5,0-0.9,0.2-1.1,0.5s-0.4,0.9-0.4,1.5c0,0.6,0.1,1.1,0.3,1.5s0.5,0.5,1,0.5c0.2,0,0.5-0.1,0.7-0.2    C385.8,122.9,386,122.8,386.3,122.6z"/> 		<path style="fill:#1A171B;" d="M392,119.5L392,119.5c-0.2,0-0.3-0.1-0.4-0.1c-0.1,0-0.3,0-0.4,0c-0.3,0-0.5,0.1-0.8,0.2    c-0.3,0.1-0.5,0.3-0.7,0.5v3.9h-0.9v-5.5h0.9v0.8c0.3-0.3,0.6-0.5,0.9-0.6c0.3-0.1,0.5-0.2,0.8-0.2c0.2,0,0.3,0,0.3,0    c0.1,0,0.2,0,0.3,0V119.5z"/> 		<path style="fill:#1A171B;" d="M397.3,121.2c0,0.9-0.2,1.6-0.6,2.1s-1,0.8-1.7,0.8c-0.7,0-1.3-0.3-1.7-0.8s-0.6-1.2-0.6-2.1    s0.2-1.6,0.6-2.1s1-0.8,1.7-0.8c0.7,0,1.3,0.3,1.7,0.8S397.3,120.3,397.3,121.2z M396.4,121.2c0-0.7-0.1-1.2-0.4-1.6    s-0.6-0.5-1.1-0.5c-0.5,0-0.8,0.2-1.1,0.5s-0.4,0.9-0.4,1.6c0,0.7,0.1,1.2,0.4,1.6s0.6,0.5,1.1,0.5c0.5,0,0.8-0.2,1.1-0.5    C396.2,122.4,396.4,121.9,396.4,121.2z M396.3,115.7l-1.3,1.8h-0.7l0.8-1.8H396.3z"/> 		<path style="fill:#1A171B;" d="M402.9,123.9H402v-3.1c0-0.3,0-0.5,0-0.7c0-0.2-0.1-0.4-0.2-0.5c-0.1-0.1-0.2-0.2-0.3-0.3    s-0.3-0.1-0.6-0.1c-0.2,0-0.5,0.1-0.7,0.2c-0.3,0.1-0.5,0.3-0.7,0.5v4.1h-0.9v-5.5h0.9v0.6c0.3-0.2,0.6-0.4,0.8-0.6    s0.6-0.2,0.9-0.2c0.6,0,1,0.2,1.3,0.5c0.3,0.4,0.4,0.9,0.4,1.5V123.9z"/> 	</g> 	<g> 		<rect x="299" y="152.4" style="fill-rule:evenodd;clip-rule:evenodd;fill:none;" width="29.7" height="11"/> 		<path style="fill:#1A171B;" d="M305.7,157.2c0,0.7-0.1,1.3-0.4,1.8s-0.6,1-1.1,1.3c-0.3,0.2-0.7,0.4-1,0.4    c-0.4,0.1-0.9,0.1-1.5,0.1h-1.7v-7.3h1.7c0.7,0,1.2,0.1,1.6,0.2s0.7,0.2,1,0.4c0.5,0.3,0.8,0.7,1.1,1.2    C305.6,155.9,305.7,156.5,305.7,157.2z M304.8,157.2c0-0.6-0.1-1-0.3-1.4s-0.5-0.7-0.8-0.9c-0.3-0.2-0.6-0.3-0.9-0.3    s-0.7-0.1-1.1-0.1h-0.9v5.6h0.9c0.4,0,0.8,0,1.2-0.1c0.3-0.1,0.6-0.2,0.9-0.4c0.3-0.2,0.6-0.5,0.8-0.9S304.8,157.8,304.8,157.2z"/> 		<path style="fill:#1A171B;" d="M311.5,158.1c0,0.9-0.2,1.6-0.6,2.1s-1,0.8-1.7,0.8c-0.7,0-1.3-0.3-1.7-0.8s-0.6-1.2-0.6-2.1    s0.2-1.6,0.6-2.1s1-0.8,1.7-0.8c0.7,0,1.3,0.3,1.7,0.8S311.5,157.2,311.5,158.1z M310.7,158.1c0-0.7-0.1-1.2-0.4-1.6    s-0.6-0.5-1.1-0.5c-0.5,0-0.8,0.2-1.1,0.5s-0.4,0.9-0.4,1.6c0,0.7,0.1,1.2,0.4,1.6s0.6,0.5,1.1,0.5c0.5,0,0.8-0.2,1.1-0.5    C310.5,159.3,310.7,158.8,310.7,158.1z"/> 		<path style="fill:#1A171B;" d="M317.1,160.9h-0.9v-0.6c-0.2,0.2-0.5,0.4-0.8,0.5s-0.6,0.2-0.9,0.2c-0.6,0-1.1-0.3-1.5-0.8    c-0.4-0.5-0.5-1.2-0.5-2.1c0-0.5,0.1-0.9,0.2-1.2c0.1-0.4,0.3-0.7,0.5-0.9c0.2-0.2,0.5-0.4,0.7-0.6s0.6-0.2,0.9-0.2    c0.3,0,0.5,0,0.7,0.1s0.4,0.2,0.7,0.3v-2.4h0.9V160.9z M316.2,159.5v-3.1c-0.2-0.1-0.4-0.2-0.6-0.2s-0.4-0.1-0.6-0.1    c-0.5,0-0.9,0.2-1.1,0.5s-0.4,0.9-0.4,1.5c0,0.6,0.1,1.1,0.3,1.5s0.5,0.5,1,0.5c0.2,0,0.5-0.1,0.7-0.2    C315.7,159.8,316,159.7,316.2,159.5z"/> 		<path style="fill:#1A171B;" d="M322,156.4L322,156.4c-0.2,0-0.3-0.1-0.4-0.1c-0.1,0-0.3,0-0.4,0c-0.3,0-0.5,0.1-0.8,0.2    c-0.3,0.1-0.5,0.3-0.7,0.5v3.9h-0.9v-5.5h0.9v0.8c0.3-0.3,0.6-0.5,0.9-0.6c0.3-0.1,0.5-0.2,0.8-0.2c0.2,0,0.3,0,0.3,0    c0.1,0,0.2,0,0.3,0V156.4z"/> 		<path style="fill:#1A171B;" d="M327.2,158.1c0,0.9-0.2,1.6-0.6,2.1s-1,0.8-1.7,0.8c-0.7,0-1.3-0.3-1.7-0.8s-0.6-1.2-0.6-2.1    s0.2-1.6,0.6-2.1s1-0.8,1.7-0.8c0.7,0,1.3,0.3,1.7,0.8S327.2,157.2,327.2,158.1z M326.3,158.1c0-0.7-0.1-1.2-0.4-1.6    s-0.6-0.5-1.1-0.5c-0.5,0-0.8,0.2-1.1,0.5s-0.4,0.9-0.4,1.6c0,0.7,0.1,1.2,0.4,1.6s0.6,0.5,1.1,0.5c0.5,0,0.8-0.2,1.1-0.5    C326.2,159.3,326.3,158.8,326.3,158.1z"/> 	</g> 	<g> 		<rect x="248.1" y="190" style="fill-rule:evenodd;clip-rule:evenodd;fill:none;" width="33.1" height="11"/> 		<path style="fill:#1A171B;" d="M254.7,198.5h-1.2l-2.3-2.9h-1.3v2.9H249v-7.3h1.9c0.4,0,0.8,0,1,0.1c0.3,0.1,0.5,0.2,0.7,0.3    c0.2,0.2,0.4,0.4,0.6,0.6c0.1,0.3,0.2,0.6,0.2,1c0,0.5-0.1,1-0.4,1.3s-0.6,0.6-1,0.8L254.7,198.5z M252.5,193.2    c0-0.2,0-0.4-0.1-0.6s-0.2-0.3-0.3-0.4c-0.1-0.1-0.3-0.2-0.5-0.2s-0.4-0.1-0.6-0.1h-1.1v2.7h0.9c0.3,0,0.5,0,0.8-0.1    c0.2-0.1,0.4-0.2,0.5-0.3c0.1-0.1,0.2-0.3,0.3-0.5S252.5,193.5,252.5,193.2z"/> 		<path style="fill:#1A171B;" d="M256.4,192.1h-1v-1h1V192.1z M256.4,198.5h-0.9V193h0.9V198.5z"/> 		<path style="fill:#1A171B;" d="M262.1,198.5h-0.9v-0.6c-0.1,0.1-0.2,0.1-0.3,0.2s-0.3,0.2-0.4,0.2c-0.1,0.1-0.3,0.1-0.5,0.2    s-0.4,0.1-0.7,0.1c-0.5,0-0.9-0.2-1.2-0.5c-0.3-0.3-0.5-0.7-0.5-1.2c0-0.4,0.1-0.7,0.3-1s0.4-0.5,0.7-0.6c0.3-0.1,0.7-0.2,1.1-0.3    c0.4-0.1,0.9-0.1,1.4-0.1v-0.1c0-0.2,0-0.4-0.1-0.5c-0.1-0.1-0.2-0.2-0.3-0.3c-0.1-0.1-0.3-0.1-0.4-0.2c-0.2,0-0.4,0-0.5,0    c-0.2,0-0.5,0-0.8,0.1c-0.3,0.1-0.6,0.2-0.9,0.3h0v-0.9c0.2,0,0.4-0.1,0.7-0.2c0.3-0.1,0.6-0.1,0.9-0.1c0.4,0,0.7,0,0.9,0.1    s0.5,0.2,0.7,0.3c0.2,0.1,0.3,0.3,0.4,0.6s0.2,0.5,0.2,0.9V198.5z M261.2,197.1v-1.5c-0.3,0-0.6,0-0.9,0.1s-0.6,0.1-0.9,0.1    c-0.2,0.1-0.5,0.2-0.6,0.3c-0.2,0.2-0.2,0.4-0.2,0.7c0,0.3,0.1,0.5,0.3,0.7s0.5,0.2,0.8,0.2c0.3,0,0.6-0.1,0.8-0.2    C260.8,197.5,261,197.3,261.2,197.1z"/> 		<path style="fill:#1A171B;" d="M268.1,198.5h-0.9v-3.1c0-0.3,0-0.5,0-0.7c0-0.2-0.1-0.4-0.2-0.5c-0.1-0.1-0.2-0.2-0.3-0.3    s-0.3-0.1-0.6-0.1c-0.2,0-0.5,0.1-0.7,0.2c-0.3,0.1-0.5,0.3-0.7,0.5v4.1h-0.9V193h0.9v0.6c0.3-0.2,0.6-0.4,0.8-0.6    s0.6-0.2,0.9-0.2c0.6,0,1,0.2,1.3,0.5c0.3,0.4,0.4,0.9,0.4,1.5V198.5z"/> 		<path style="fill:#1A171B;" d="M274.2,198.5h-1.1l-1.5-2.1l-1.5,2.1h-1l2-2.7l-2-2.7h1.1l1.5,2.1l1.5-2.1h1l-2,2.7L274.2,198.5z"/> 		<path style="fill:#1A171B;" d="M279.6,195.7c0,0.9-0.2,1.6-0.6,2.1s-1,0.8-1.7,0.8c-0.7,0-1.3-0.3-1.7-0.8s-0.6-1.2-0.6-2.1    s0.2-1.6,0.6-2.1s1-0.8,1.7-0.8c0.7,0,1.3,0.3,1.7,0.8S279.6,194.9,279.6,195.7z M278.7,195.7c0-0.7-0.1-1.2-0.4-1.6    s-0.6-0.5-1.1-0.5c-0.5,0-0.8,0.2-1.1,0.5s-0.4,0.9-0.4,1.6c0,0.7,0.1,1.2,0.4,1.6s0.6,0.5,1.1,0.5c0.5,0,0.8-0.2,1.1-0.5    C278.6,197,278.7,196.4,278.7,195.7z"/> 	</g> 	<g> 		<rect x="161.2" y="196.4" style="fill-rule:evenodd;clip-rule:evenodd;fill:none;" width="25.7" height="11"/> 		<path style="fill:#1A171B;" d="M167.3,202.7c0,0.4-0.1,0.7-0.2,1c-0.1,0.3-0.3,0.5-0.5,0.7c-0.3,0.2-0.5,0.4-0.9,0.5    c-0.3,0.1-0.7,0.1-1.2,0.1h-2.4v-7.3h2c0.5,0,0.9,0,1.1,0.1s0.5,0.1,0.7,0.2c0.3,0.1,0.4,0.3,0.5,0.5c0.1,0.2,0.2,0.5,0.2,0.8    c0,0.3-0.1,0.6-0.2,0.9s-0.4,0.4-0.7,0.6v0c0.5,0.1,0.8,0.3,1.1,0.6S167.3,202.2,167.3,202.7z M165.8,199.4c0-0.2,0-0.3-0.1-0.4    c-0.1-0.1-0.1-0.2-0.3-0.3c-0.1-0.1-0.3-0.1-0.5-0.2s-0.5,0-0.8,0h-1.1v2.1h1.2c0.3,0,0.5,0,0.7,0c0.2,0,0.3-0.1,0.5-0.2    s0.2-0.2,0.3-0.4C165.8,199.8,165.8,199.6,165.8,199.4z M166.4,202.7c0-0.3,0-0.5-0.1-0.7s-0.2-0.3-0.5-0.4    c-0.1-0.1-0.3-0.1-0.5-0.2s-0.5,0-0.8,0h-1.4v2.7h1.2c0.4,0,0.7,0,1-0.1c0.3,0,0.5-0.1,0.6-0.2c0.2-0.1,0.3-0.3,0.4-0.4    S166.4,203,166.4,202.7z"/> 		<path style="fill:#1A171B;" d="M173,202.2c0,0.9-0.2,1.6-0.6,2.1s-1,0.8-1.7,0.8c-0.7,0-1.3-0.3-1.7-0.8s-0.6-1.2-0.6-2.1    s0.2-1.6,0.6-2.1s1-0.8,1.7-0.8c0.7,0,1.3,0.3,1.7,0.8S173,201.3,173,202.2z M172.1,202.2c0-0.7-0.1-1.2-0.4-1.6s-0.6-0.5-1.1-0.5    c-0.5,0-0.8,0.2-1.1,0.5s-0.4,0.9-0.4,1.6c0,0.7,0.1,1.2,0.4,1.6s0.6,0.5,1.1,0.5c0.5,0,0.8-0.2,1.1-0.5    C171.9,203.4,172.1,202.9,172.1,202.2z"/> 		<path style="fill:#1A171B;" d="M175.2,198.5h-1v-1h1V198.5z M175.2,204.9h-0.9v-5.5h0.9V204.9z"/> 		<path style="fill:#1A171B;" d="M180.1,200.4L180.1,200.4c-0.2,0-0.3-0.1-0.4-0.1c-0.1,0-0.3,0-0.4,0c-0.3,0-0.5,0.1-0.8,0.2    c-0.3,0.1-0.5,0.3-0.7,0.5v3.9h-0.9v-5.5h0.9v0.8c0.3-0.3,0.6-0.5,0.9-0.6c0.3-0.1,0.5-0.2,0.8-0.2c0.2,0,0.3,0,0.3,0    c0.1,0,0.2,0,0.3,0V200.4z"/> 		<path style="fill:#1A171B;" d="M185.3,202.2c0,0.9-0.2,1.6-0.6,2.1s-1,0.8-1.7,0.8c-0.7,0-1.3-0.3-1.7-0.8s-0.6-1.2-0.6-2.1    s0.2-1.6,0.6-2.1s1-0.8,1.7-0.8c0.7,0,1.3,0.3,1.7,0.8S185.3,201.3,185.3,202.2z M184.4,202.2c0-0.7-0.1-1.2-0.4-1.6    s-0.6-0.5-1.1-0.5c-0.5,0-0.8,0.2-1.1,0.5s-0.4,0.9-0.4,1.6c0,0.7,0.1,1.2,0.4,1.6s0.6,0.5,1.1,0.5c0.5,0,0.8-0.2,1.1-0.5    C184.3,203.4,184.4,202.9,184.4,202.2z"/> 	</g> 	<g> 		<rect x="115" y="264.1" style="fill-rule:evenodd;clip-rule:evenodd;fill:none;" width="65.3" height="21"/> 		<path style="fill:#1A171B;" d="M121.3,272.6h-1l-0.7-2h-3l-0.7,2h-0.9l2.5-7.3h1.2L121.3,272.6z M119.4,269.8l-1.2-3.6l-1.2,3.6    H119.4z"/> 		<path style="fill:#1A171B;" d="M130.2,267.5c0,0.3-0.1,0.6-0.2,0.9c-0.1,0.3-0.3,0.5-0.4,0.7c-0.2,0.3-0.5,0.4-0.8,0.6    c-0.3,0.1-0.7,0.2-1.2,0.2h-0.9v2.7h-0.9v-7.3h1.9c0.4,0,0.8,0,1,0.1c0.3,0.1,0.5,0.2,0.8,0.3c0.3,0.2,0.5,0.4,0.6,0.7    C130.1,266.8,130.2,267.1,130.2,267.5z M129.2,267.6c0-0.3,0-0.5-0.1-0.7s-0.2-0.3-0.4-0.5c-0.1-0.1-0.3-0.2-0.5-0.2    c-0.2,0-0.4-0.1-0.7-0.1h-0.9v2.9h0.8c0.4,0,0.7,0,0.9-0.1c0.2-0.1,0.4-0.2,0.6-0.3c0.1-0.2,0.2-0.3,0.3-0.5    C129.2,268,129.2,267.8,129.2,267.6z"/> 		<path style="fill:#1A171B;" d="M135.5,269.9c0,0.9-0.2,1.6-0.6,2.1s-1,0.8-1.7,0.8c-0.7,0-1.3-0.3-1.7-0.8s-0.6-1.2-0.6-2.1    s0.2-1.6,0.6-2.1c0.4-0.5,1-0.8,1.7-0.8c0.7,0,1.3,0.3,1.7,0.8C135.3,268.3,135.5,269,135.5,269.9z M134.6,269.9    c0-0.7-0.1-1.2-0.4-1.6c-0.3-0.3-0.6-0.5-1.1-0.5c-0.5,0-0.8,0.2-1.1,0.5c-0.3,0.3-0.4,0.9-0.4,1.6c0,0.7,0.1,1.2,0.4,1.6    c0.3,0.4,0.6,0.5,1.1,0.5c0.5,0,0.8-0.2,1.1-0.5C134.5,271.1,134.6,270.6,134.6,269.9z"/> 		<path style="fill:#1A171B;" d="M141.4,269.9c0,0.5-0.1,0.9-0.2,1.2c-0.1,0.4-0.3,0.7-0.5,0.9c-0.2,0.3-0.5,0.5-0.7,0.6    c-0.3,0.1-0.5,0.2-0.9,0.2c-0.3,0-0.5,0-0.8-0.1c-0.2-0.1-0.4-0.2-0.6-0.3l-0.1,0.3h-0.8V265h0.9v2.7c0.2-0.2,0.5-0.4,0.8-0.5    c0.3-0.1,0.6-0.2,0.9-0.2c0.6,0,1.1,0.2,1.4,0.7C141.2,268.3,141.4,269,141.4,269.9z M140.5,269.9c0-0.7-0.1-1.1-0.3-1.5    c-0.2-0.3-0.5-0.5-1-0.5c-0.3,0-0.5,0.1-0.8,0.2c-0.3,0.1-0.5,0.3-0.7,0.4v3.1c0.2,0.1,0.5,0.2,0.6,0.2s0.4,0.1,0.6,0.1    c0.5,0,0.9-0.2,1.1-0.5C140.4,271.1,140.5,270.6,140.5,269.9z"/> 		<path style="fill:#1A171B;" d="M146,268.2L146,268.2c-0.2,0-0.3-0.1-0.4-0.1c-0.1,0-0.3,0-0.4,0c-0.3,0-0.5,0.1-0.8,0.2    c-0.3,0.1-0.5,0.3-0.7,0.5v3.9h-0.9v-5.5h0.9v0.8c0.3-0.3,0.6-0.5,0.9-0.6c0.3-0.1,0.5-0.2,0.8-0.2c0.2,0,0.3,0,0.3,0    c0.1,0,0.2,0,0.3,0V268.2z"/> 		<path style="fill:#1A171B;" d="M150.6,272.6h-0.9V272c-0.1,0.1-0.2,0.1-0.3,0.2c-0.1,0.1-0.3,0.2-0.4,0.2    c-0.1,0.1-0.3,0.1-0.5,0.2c-0.2,0-0.4,0.1-0.7,0.1c-0.5,0-0.9-0.2-1.2-0.5c-0.3-0.3-0.5-0.7-0.5-1.2c0-0.4,0.1-0.7,0.3-1    c0.2-0.3,0.4-0.5,0.7-0.6c0.3-0.1,0.7-0.2,1.1-0.3c0.4-0.1,0.9-0.1,1.4-0.1v-0.1c0-0.2,0-0.4-0.1-0.5c-0.1-0.1-0.2-0.2-0.3-0.3    c-0.1-0.1-0.3-0.1-0.4-0.2c-0.2,0-0.4,0-0.5,0c-0.2,0-0.5,0-0.8,0.1c-0.3,0.1-0.6,0.2-0.9,0.3h0v-0.9c0.2,0,0.4-0.1,0.7-0.2    c0.3-0.1,0.6-0.1,0.9-0.1c0.4,0,0.7,0,0.9,0.1c0.3,0.1,0.5,0.2,0.7,0.3c0.2,0.2,0.3,0.3,0.4,0.6s0.2,0.5,0.2,0.9V272.6z     M149.8,271.3v-1.5c-0.3,0-0.6,0-0.9,0.1s-0.6,0.1-0.9,0.1c-0.2,0.1-0.5,0.2-0.6,0.3c-0.2,0.2-0.2,0.4-0.2,0.7    c0,0.3,0.1,0.5,0.3,0.7c0.2,0.2,0.5,0.2,0.8,0.2c0.3,0,0.6-0.1,0.8-0.2C149.3,271.6,149.6,271.5,149.8,271.3z"/> 		<path style="fill:#1A171B;" d="M120,282.6h-0.9v-0.6c-0.2,0.2-0.5,0.4-0.8,0.5s-0.6,0.2-0.9,0.2c-0.6,0-1.1-0.3-1.5-0.8    c-0.4-0.5-0.5-1.2-0.5-2.1c0-0.5,0.1-0.9,0.2-1.2c0.1-0.4,0.3-0.7,0.5-0.9c0.2-0.2,0.5-0.4,0.7-0.6s0.6-0.2,0.9-0.2    c0.3,0,0.5,0,0.7,0.1c0.2,0.1,0.4,0.2,0.7,0.3V275h0.9V282.6z M119.1,281.3v-3.1c-0.2-0.1-0.4-0.2-0.6-0.2s-0.4-0.1-0.6-0.1    c-0.5,0-0.9,0.2-1.1,0.5s-0.4,0.9-0.4,1.5c0,0.6,0.1,1.1,0.3,1.5c0.2,0.3,0.5,0.5,1,0.5c0.2,0,0.5-0.1,0.7-0.2    C118.7,281.6,118.9,281.5,119.1,281.3z"/> 		<path style="fill:#1A171B;" d="M126.1,279.9c0,0.9-0.2,1.6-0.6,2.1s-1,0.8-1.7,0.8c-0.7,0-1.3-0.3-1.7-0.8s-0.6-1.2-0.6-2.1    s0.2-1.6,0.6-2.1c0.4-0.5,1-0.8,1.7-0.8c0.7,0,1.3,0.3,1.7,0.8C125.9,278.3,126.1,279,126.1,279.9z M125.2,279.9    c0-0.7-0.1-1.2-0.4-1.6c-0.3-0.3-0.6-0.5-1.1-0.5c-0.5,0-0.8,0.2-1.1,0.5c-0.3,0.3-0.4,0.9-0.4,1.6c0,0.7,0.1,1.2,0.4,1.6    c0.3,0.4,0.6,0.5,1.1,0.5c0.5,0,0.8-0.2,1.1-0.5C125.1,281.1,125.2,280.6,125.2,279.9z"/> 		<path style="fill:#1A171B;" d="M136.1,282.1c-0.2,0.1-0.3,0.2-0.5,0.2c-0.1,0.1-0.3,0.1-0.5,0.2c-0.2,0.1-0.4,0.1-0.6,0.2    c-0.2,0-0.5,0.1-0.7,0.1c-0.5,0-1-0.1-1.4-0.2c-0.4-0.1-0.8-0.4-1.1-0.7c-0.3-0.3-0.5-0.7-0.7-1.2c-0.2-0.5-0.3-1-0.3-1.7    c0-0.6,0.1-1.1,0.2-1.6s0.4-0.9,0.7-1.2c0.3-0.3,0.6-0.6,1.1-0.7c0.4-0.2,0.9-0.2,1.4-0.2c0.4,0,0.7,0,1.1,0.1    c0.4,0.1,0.8,0.3,1.2,0.5v1.1h-0.1c-0.4-0.3-0.8-0.6-1.1-0.7s-0.8-0.2-1.2-0.2c-0.3,0-0.7,0.1-0.9,0.2c-0.3,0.1-0.5,0.3-0.7,0.6    c-0.2,0.2-0.4,0.6-0.5,0.9c-0.1,0.4-0.2,0.8-0.2,1.3c0,0.5,0.1,1,0.2,1.3c0.1,0.4,0.3,0.7,0.5,0.9c0.2,0.2,0.5,0.4,0.8,0.5    c0.3,0.1,0.6,0.2,0.9,0.2c0.4,0,0.9-0.1,1.2-0.2s0.7-0.4,1.1-0.7h0.1V282.1z"/> 		<path style="fill:#1A171B;" d="M141.4,282.6h-0.9V282c-0.1,0.1-0.2,0.1-0.3,0.2c-0.1,0.1-0.3,0.2-0.4,0.2    c-0.1,0.1-0.3,0.1-0.5,0.2c-0.2,0-0.4,0.1-0.7,0.1c-0.5,0-0.9-0.2-1.2-0.5c-0.3-0.3-0.5-0.7-0.5-1.2c0-0.4,0.1-0.7,0.3-1    c0.2-0.3,0.4-0.5,0.7-0.6c0.3-0.1,0.7-0.2,1.1-0.3c0.4-0.1,0.9-0.1,1.4-0.1v-0.1c0-0.2,0-0.4-0.1-0.5c-0.1-0.1-0.2-0.2-0.3-0.3    c-0.1-0.1-0.3-0.1-0.4-0.2c-0.2,0-0.4,0-0.5,0c-0.2,0-0.5,0-0.8,0.1c-0.3,0.1-0.6,0.2-0.9,0.3h0v-0.9c0.2,0,0.4-0.1,0.7-0.2    c0.3-0.1,0.6-0.1,0.9-0.1c0.4,0,0.7,0,0.9,0.1c0.3,0.1,0.5,0.2,0.7,0.3c0.2,0.2,0.3,0.3,0.4,0.6s0.2,0.5,0.2,0.9V282.6z     M140.5,281.3v-1.5c-0.3,0-0.6,0-0.9,0.1s-0.6,0.1-0.9,0.1c-0.2,0.1-0.5,0.2-0.6,0.3c-0.2,0.2-0.2,0.4-0.2,0.7    c0,0.3,0.1,0.5,0.3,0.7c0.2,0.2,0.5,0.2,0.8,0.2c0.3,0,0.6-0.1,0.8-0.2C140.1,281.6,140.3,281.5,140.5,281.3z"/> 		<path style="fill:#1A171B;" d="M146.3,278.2L146.3,278.2c-0.2,0-0.3-0.1-0.4-0.1c-0.1,0-0.3,0-0.4,0c-0.3,0-0.5,0.1-0.8,0.2    c-0.3,0.1-0.5,0.3-0.7,0.5v3.9H143v-5.5h0.9v0.8c0.3-0.3,0.6-0.5,0.9-0.6c0.3-0.1,0.5-0.2,0.8-0.2c0.2,0,0.3,0,0.3,0    c0.1,0,0.2,0,0.3,0V278.2z"/> 		<path style="fill:#1A171B;" d="M151,282.6h-0.9V282c-0.1,0.1-0.2,0.1-0.3,0.2c-0.1,0.1-0.3,0.2-0.4,0.2c-0.1,0.1-0.3,0.1-0.5,0.2    c-0.2,0-0.4,0.1-0.7,0.1c-0.5,0-0.9-0.2-1.2-0.5c-0.3-0.3-0.5-0.7-0.5-1.2c0-0.4,0.1-0.7,0.3-1c0.2-0.3,0.4-0.5,0.7-0.6    c0.3-0.1,0.7-0.2,1.1-0.3c0.4-0.1,0.9-0.1,1.4-0.1v-0.1c0-0.2,0-0.4-0.1-0.5c-0.1-0.1-0.2-0.2-0.3-0.3c-0.1-0.1-0.3-0.1-0.4-0.2    c-0.2,0-0.4,0-0.5,0c-0.2,0-0.5,0-0.8,0.1c-0.3,0.1-0.6,0.2-0.9,0.3h0v-0.9c0.2,0,0.4-0.1,0.7-0.2c0.3-0.1,0.6-0.1,0.9-0.1    c0.4,0,0.7,0,0.9,0.1c0.3,0.1,0.5,0.2,0.7,0.3c0.2,0.2,0.3,0.3,0.4,0.6s0.2,0.5,0.2,0.9V282.6z M150.1,281.3v-1.5    c-0.3,0-0.6,0-0.9,0.1s-0.6,0.1-0.9,0.1c-0.2,0.1-0.5,0.2-0.6,0.3c-0.2,0.2-0.2,0.4-0.2,0.7c0,0.3,0.1,0.5,0.3,0.7    c0.2,0.2,0.5,0.2,0.8,0.2c0.3,0,0.6-0.1,0.8-0.2C149.6,281.6,149.9,281.5,150.1,281.3z"/> 		<path style="fill:#1A171B;" d="M160.1,282.6h-0.9v-3.1c0-0.2,0-0.5,0-0.7c0-0.2-0.1-0.4-0.1-0.5c-0.1-0.1-0.2-0.2-0.3-0.3    c-0.1-0.1-0.3-0.1-0.6-0.1c-0.2,0-0.5,0.1-0.7,0.2c-0.2,0.1-0.5,0.3-0.7,0.5c0,0.1,0,0.2,0,0.3c0,0.1,0,0.2,0,0.3v3.5H156v-3.1    c0-0.2,0-0.5,0-0.7c0-0.2-0.1-0.4-0.1-0.5c-0.1-0.1-0.2-0.2-0.3-0.3c-0.1-0.1-0.3-0.1-0.6-0.1c-0.2,0-0.5,0.1-0.7,0.2    c-0.2,0.1-0.5,0.3-0.7,0.5v4.1h-0.9v-5.5h0.9v0.6c0.3-0.2,0.5-0.4,0.8-0.6c0.3-0.1,0.6-0.2,0.9-0.2c0.4,0,0.6,0.1,0.9,0.2    c0.2,0.2,0.4,0.4,0.5,0.6c0.4-0.3,0.7-0.5,1-0.7c0.3-0.1,0.6-0.2,0.9-0.2c0.6,0,1,0.2,1.3,0.5c0.3,0.4,0.4,0.9,0.4,1.5V282.6z"/> 		<path style="fill:#1A171B;" d="M162.7,276.3h-1v-1h1V276.3z M162.7,282.6h-0.9v-5.5h0.9V282.6z"/> 		<path style="fill:#1A171B;" d="M168.7,282.6h-0.9v-3.1c0-0.3,0-0.5,0-0.7c0-0.2-0.1-0.4-0.2-0.5c-0.1-0.1-0.2-0.2-0.3-0.3    c-0.1-0.1-0.3-0.1-0.6-0.1c-0.2,0-0.5,0.1-0.7,0.2c-0.3,0.1-0.5,0.3-0.7,0.5v4.1h-0.9v-5.5h0.9v0.6c0.3-0.2,0.6-0.4,0.8-0.6    s0.6-0.2,0.9-0.2c0.6,0,1,0.2,1.3,0.5c0.3,0.4,0.4,0.9,0.4,1.5V282.6z M168.5,274.7c0,0.5-0.2,0.9-0.4,1.1s-0.5,0.4-0.8,0.4    c-0.2,0-0.3,0-0.5-0.1c-0.1-0.1-0.3-0.2-0.4-0.3c-0.1-0.1-0.3-0.2-0.4-0.3c-0.1-0.1-0.2-0.1-0.3-0.1c-0.2,0-0.3,0.1-0.4,0.2    s-0.1,0.3-0.1,0.6h-0.6c0-0.5,0.1-0.9,0.4-1.1s0.5-0.4,0.8-0.4c0.2,0,0.3,0,0.4,0.1c0.1,0.1,0.3,0.2,0.4,0.3    c0.1,0.1,0.3,0.2,0.4,0.3c0.1,0.1,0.2,0.1,0.3,0.1c0.2,0,0.3-0.1,0.4-0.2s0.1-0.3,0.1-0.6H168.5z"/> 		<path style="fill:#1A171B;" d="M174.4,282.6h-0.9V282c-0.1,0.1-0.2,0.1-0.3,0.2c-0.1,0.1-0.3,0.2-0.4,0.2    c-0.1,0.1-0.3,0.1-0.5,0.2c-0.2,0-0.4,0.1-0.7,0.1c-0.5,0-0.9-0.2-1.2-0.5c-0.3-0.3-0.5-0.7-0.5-1.2c0-0.4,0.1-0.7,0.3-1    c0.2-0.3,0.4-0.5,0.7-0.6c0.3-0.1,0.7-0.2,1.1-0.3c0.4-0.1,0.9-0.1,1.4-0.1v-0.1c0-0.2,0-0.4-0.1-0.5c-0.1-0.1-0.2-0.2-0.3-0.3    c-0.1-0.1-0.3-0.1-0.4-0.2c-0.2,0-0.4,0-0.5,0c-0.2,0-0.5,0-0.8,0.1c-0.3,0.1-0.6,0.2-0.9,0.3h0v-0.9c0.2,0,0.4-0.1,0.7-0.2    c0.3-0.1,0.6-0.1,0.9-0.1c0.4,0,0.7,0,0.9,0.1c0.3,0.1,0.5,0.2,0.7,0.3c0.2,0.2,0.3,0.3,0.4,0.6s0.2,0.5,0.2,0.9V282.6z     M173.5,281.3v-1.5c-0.3,0-0.6,0-0.9,0.1s-0.6,0.1-0.9,0.1c-0.2,0.1-0.5,0.2-0.6,0.3c-0.2,0.2-0.2,0.4-0.2,0.7    c0,0.3,0.1,0.5,0.3,0.7c0.2,0.2,0.5,0.2,0.8,0.2c0.3,0,0.6-0.1,0.8-0.2C173.1,281.6,173.3,281.5,173.5,281.3z"/> 		<path style="fill:#1A171B;" d="M176.9,282.6h-0.9V275h0.9V282.6z"/> 	</g> 	<g> 		<rect x="66.4" y="309" style="fill-rule:evenodd;clip-rule:evenodd;fill:none;" width="33.9" height="11"/> 		<path style="fill:#1A171B;" d="M73,317.5h-1.2l-2.3-2.9h-1.3v2.9h-0.9v-7.3h1.9c0.4,0,0.8,0,1,0.1c0.3,0.1,0.5,0.2,0.7,0.3    c0.2,0.2,0.4,0.4,0.6,0.6c0.1,0.3,0.2,0.6,0.2,1c0,0.5-0.1,1-0.4,1.3c-0.2,0.4-0.6,0.6-1,0.8L73,317.5z M70.8,312.3    c0-0.2,0-0.4-0.1-0.6c-0.1-0.2-0.2-0.3-0.3-0.4c-0.1-0.1-0.3-0.2-0.5-0.2c-0.2,0-0.4-0.1-0.6-0.1h-1.1v2.7h0.9    c0.3,0,0.5,0,0.8-0.1c0.2-0.1,0.4-0.2,0.5-0.3c0.1-0.1,0.2-0.3,0.3-0.5C70.8,312.8,70.8,312.6,70.8,312.3z"/> 		<path style="fill:#1A171B;" d="M74.7,311.2h-1v-1h1V311.2z M74.7,317.5h-0.9v-5.5h0.9V317.5z"/> 		<path style="fill:#1A171B;" d="M80.9,314.8c0,0.5-0.1,0.9-0.2,1.2c-0.1,0.4-0.3,0.7-0.5,0.9c-0.2,0.3-0.5,0.5-0.7,0.6    c-0.3,0.1-0.5,0.2-0.9,0.2c-0.3,0-0.5,0-0.8-0.1c-0.2-0.1-0.4-0.2-0.6-0.3l-0.1,0.3h-0.8v-7.6h0.9v2.7c0.2-0.2,0.5-0.4,0.8-0.5    c0.3-0.1,0.6-0.2,0.9-0.2c0.6,0,1.1,0.2,1.4,0.7C80.7,313.2,80.9,313.8,80.9,314.8z M80,314.8c0-0.7-0.1-1.1-0.3-1.5    c-0.2-0.3-0.5-0.5-1-0.5c-0.3,0-0.5,0.1-0.8,0.2c-0.3,0.1-0.5,0.3-0.7,0.4v3.1c0.2,0.1,0.5,0.2,0.6,0.2s0.4,0.1,0.6,0.1    c0.5,0,0.9-0.2,1.1-0.5C79.9,316,80,315.5,80,314.8z"/> 		<path style="fill:#1A171B;" d="M86.6,314.9h-3.8c0,0.3,0,0.6,0.1,0.9c0.1,0.2,0.2,0.5,0.4,0.6c0.2,0.2,0.4,0.3,0.6,0.4    s0.5,0.1,0.7,0.1c0.4,0,0.7-0.1,1.1-0.2c0.4-0.1,0.6-0.3,0.8-0.4h0v1c-0.3,0.1-0.6,0.2-0.9,0.3c-0.3,0.1-0.6,0.1-1,0.1    c-0.9,0-1.5-0.2-2-0.7c-0.5-0.5-0.7-1.2-0.7-2.1c0-0.9,0.2-1.6,0.7-2.1s1.1-0.8,1.8-0.8c0.7,0,1.2,0.2,1.6,0.6s0.6,1,0.6,1.8    V314.9z M85.7,314.2c0-0.5-0.1-0.9-0.3-1.1c-0.2-0.3-0.6-0.4-1-0.4c-0.5,0-0.8,0.1-1.1,0.4s-0.4,0.6-0.5,1.1H85.7z"/> 		<path style="fill:#1A171B;" d="M88.8,311.2h-1v-1h1V311.2z M88.8,317.5h-0.9v-5.5h0.9V317.5z"/> 		<path style="fill:#1A171B;" d="M93.7,313.1L93.7,313.1c-0.2,0-0.3-0.1-0.4-0.1c-0.1,0-0.3,0-0.4,0c-0.3,0-0.5,0.1-0.8,0.2    c-0.3,0.1-0.5,0.3-0.7,0.5v3.9h-0.9v-5.5h0.9v0.8c0.3-0.3,0.6-0.5,0.9-0.6c0.3-0.1,0.5-0.2,0.8-0.2c0.2,0,0.3,0,0.3,0    c0.1,0,0.2,0,0.3,0V313.1z"/> 		<path style="fill:#1A171B;" d="M98.4,317.5h-0.9v-0.6c-0.1,0.1-0.2,0.1-0.3,0.2c-0.1,0.1-0.3,0.2-0.4,0.2    c-0.1,0.1-0.3,0.1-0.5,0.2c-0.2,0.1-0.4,0.1-0.7,0.1c-0.5,0-0.9-0.2-1.2-0.5c-0.3-0.3-0.5-0.7-0.5-1.2c0-0.4,0.1-0.7,0.3-1    c0.2-0.3,0.4-0.5,0.7-0.6c0.3-0.1,0.7-0.2,1.1-0.3c0.4-0.1,0.9-0.1,1.4-0.1v-0.1c0-0.2,0-0.4-0.1-0.5c-0.1-0.1-0.2-0.2-0.3-0.3    c-0.1-0.1-0.3-0.1-0.4-0.2c-0.2,0-0.4,0-0.5,0c-0.2,0-0.5,0-0.8,0.1c-0.3,0.1-0.6,0.2-0.9,0.3h0v-0.9c0.2,0,0.4-0.1,0.7-0.2    c0.3-0.1,0.6-0.1,0.9-0.1c0.4,0,0.7,0,0.9,0.1c0.3,0.1,0.5,0.2,0.7,0.3c0.2,0.1,0.3,0.3,0.4,0.6s0.2,0.5,0.2,0.9V317.5z     M97.5,316.2v-1.5c-0.3,0-0.6,0-0.9,0.1s-0.6,0.1-0.9,0.1c-0.2,0.1-0.5,0.2-0.6,0.3c-0.2,0.2-0.2,0.4-0.2,0.7    c0,0.3,0.1,0.5,0.3,0.7c0.2,0.2,0.5,0.2,0.8,0.2c0.3,0,0.6-0.1,0.8-0.2C97.1,316.5,97.3,316.4,97.5,316.2z"/> 	</g> </g> <g id="text-provincies"> 	<g> 		<rect x="323.4" y="313.8" style="fill-rule:evenodd;clip-rule:evenodd;fill:none;" width="77.4" height="11"/> 		<path style="fill:#1A171B;" d="M336.9,317.4c0,0.3-0.1,0.6-0.2,1c-0.1,0.3-0.3,0.6-0.5,0.8c-0.3,0.3-0.6,0.5-1,0.6    c-0.4,0.1-0.8,0.2-1.3,0.2h-1.2v2.4h-1.9v-7.3h3.1c0.5,0,0.9,0,1.2,0.1c0.3,0.1,0.6,0.2,0.8,0.4c0.3,0.2,0.5,0.4,0.7,0.7    C336.8,316.6,336.9,317,336.9,317.4z M335,317.4c0-0.2-0.1-0.4-0.2-0.5c-0.1-0.1-0.2-0.3-0.4-0.3c-0.2-0.1-0.4-0.1-0.6-0.1    c-0.2,0-0.4,0-0.7,0h-0.3v2.2h0.5c0.3,0,0.6,0,0.8-0.1c0.2,0,0.4-0.1,0.5-0.2c0.1-0.1,0.2-0.2,0.3-0.4    C334.9,317.8,335,317.6,335,317.4z"/> 		<path style="fill:#1A171B;" d="M343.7,319.6c0,0.9-0.3,1.6-0.8,2.1c-0.5,0.5-1.3,0.8-2.2,0.8s-1.7-0.3-2.2-0.8    c-0.5-0.5-0.8-1.2-0.8-2.1c0-0.9,0.3-1.6,0.8-2.1c0.5-0.5,1.3-0.8,2.2-0.8c1,0,1.7,0.3,2.2,0.8C343.5,318,343.7,318.7,343.7,319.6    z M341.6,320.9c0.1-0.1,0.2-0.3,0.3-0.5c0.1-0.2,0.1-0.5,0.1-0.8c0-0.3,0-0.6-0.1-0.8s-0.1-0.4-0.2-0.5c-0.1-0.1-0.2-0.2-0.4-0.3    s-0.3-0.1-0.5-0.1s-0.3,0-0.5,0.1c-0.1,0-0.3,0.1-0.4,0.3c-0.1,0.1-0.2,0.3-0.3,0.5c-0.1,0.2-0.1,0.5-0.1,0.8c0,0.3,0,0.6,0.1,0.8    c0.1,0.2,0.1,0.4,0.2,0.5c0.1,0.1,0.2,0.2,0.4,0.3c0.1,0.1,0.3,0.1,0.5,0.1c0.2,0,0.3,0,0.5-0.1    C341.3,321.2,341.5,321.1,341.6,320.9z"/> 		<path style="fill:#1A171B;" d="M350.5,322.4h-1.8v-2.7c0-0.2,0-0.4,0-0.7c0-0.2-0.1-0.4-0.1-0.5c-0.1-0.1-0.2-0.2-0.3-0.3    c-0.1-0.1-0.3-0.1-0.5-0.1c-0.2,0-0.3,0-0.5,0.1c-0.2,0.1-0.3,0.1-0.5,0.2v3.9H345v-5.5h1.8v0.6c0.3-0.2,0.6-0.4,0.9-0.6    c0.3-0.1,0.6-0.2,1-0.2c0.6,0,1.1,0.2,1.4,0.5s0.5,0.9,0.5,1.5V322.4z"/> 		<path style="fill:#1A171B;" d="M355.6,322.3c-0.2,0-0.4,0.1-0.6,0.1c-0.2,0-0.5,0-0.8,0c-0.7,0-1.2-0.1-1.5-0.4    c-0.3-0.3-0.5-0.8-0.5-1.4v-2.6h-0.7v-1.2h0.7v-1.6h1.8v1.6h1.6v1.2H354v1.9c0,0.2,0,0.4,0,0.5s0,0.3,0.1,0.4    c0,0.1,0.1,0.2,0.2,0.3c0.1,0.1,0.3,0.1,0.5,0.1c0.1,0,0.2,0,0.4-0.1s0.3-0.1,0.3-0.1h0.1V322.3z"/> 		<path style="fill:#1A171B;" d="M362.1,319.9h-4c0,0.4,0.2,0.8,0.5,1c0.3,0.2,0.7,0.3,1.3,0.3c0.4,0,0.7-0.1,1.1-0.2    s0.6-0.3,0.8-0.4h0.2v1.4c-0.4,0.2-0.8,0.3-1.1,0.3s-0.7,0.1-1.2,0.1c-1.1,0-1.9-0.2-2.5-0.7s-0.9-1.2-0.9-2.1    c0-0.9,0.3-1.6,0.8-2.2c0.6-0.5,1.3-0.8,2.3-0.8c0.9,0,1.6,0.2,2,0.7c0.4,0.5,0.7,1.1,0.7,1.9V319.9z M360.3,318.9    c0-0.4-0.1-0.6-0.3-0.8s-0.4-0.3-0.8-0.3c-0.3,0-0.6,0.1-0.8,0.3s-0.3,0.5-0.4,0.8H360.3z"/> 		<path style="fill:#1A171B;" d="M368.8,316.9l-2.1,5.5h-2l-2.1-5.5h1.9l1.3,3.8l1.3-3.8H368.8z"/> 		<path style="fill:#1A171B;" d="M375.2,319.9h-4c0,0.4,0.2,0.8,0.5,1c0.3,0.2,0.7,0.3,1.3,0.3c0.4,0,0.7-0.1,1.1-0.2    s0.6-0.3,0.8-0.4h0.2v1.4c-0.4,0.2-0.8,0.3-1.1,0.3s-0.7,0.1-1.2,0.1c-1.1,0-1.9-0.2-2.5-0.7s-0.9-1.2-0.9-2.1    c0-0.9,0.3-1.6,0.8-2.2c0.6-0.5,1.3-0.8,2.3-0.8c0.9,0,1.6,0.2,2,0.7c0.4,0.5,0.7,1.1,0.7,1.9V319.9z M373.5,318.9    c0-0.4-0.1-0.6-0.3-0.8s-0.4-0.3-0.8-0.3c-0.3,0-0.6,0.1-0.8,0.3s-0.3,0.5-0.4,0.8H373.5z"/> 		<path style="fill:#1A171B;" d="M381.8,322.4H380v-0.6c-0.3,0.2-0.6,0.4-0.8,0.5s-0.6,0.2-0.9,0.2c-0.7,0-1.2-0.3-1.6-0.8    c-0.4-0.5-0.6-1.2-0.6-2.1c0-0.5,0.1-0.9,0.2-1.2c0.1-0.4,0.3-0.7,0.6-0.9c0.2-0.2,0.5-0.4,0.8-0.6c0.3-0.1,0.6-0.2,0.9-0.2    c0.3,0,0.6,0,0.8,0.1c0.2,0.1,0.4,0.2,0.6,0.3v-2.3h1.8V322.4z M380,320.8v-2.7c-0.1-0.1-0.3-0.1-0.4-0.1s-0.3,0-0.4,0    c-0.5,0-0.8,0.1-1,0.4s-0.3,0.7-0.3,1.2c0,0.5,0.1,0.9,0.3,1.2c0.2,0.2,0.5,0.4,0.9,0.4c0.2,0,0.3,0,0.5-0.1    S379.9,320.9,380,320.8z"/> 		<path style="fill:#1A171B;" d="M387.4,318.5h-0.2c-0.1,0-0.2,0-0.4-0.1s-0.3,0-0.4,0c-0.3,0-0.5,0-0.7,0c-0.2,0-0.4,0.1-0.6,0.2    v3.7h-1.8v-5.5h1.8v0.8c0.4-0.3,0.7-0.6,1-0.7c0.3-0.1,0.5-0.2,0.8-0.2c0.1,0,0.1,0,0.2,0c0.1,0,0.1,0,0.2,0V318.5z"/> 		<path style="fill:#1A171B;" d="M391.7,321.8c-0.1,0.1-0.2,0.2-0.4,0.3s-0.3,0.2-0.4,0.2c-0.2,0.1-0.4,0.1-0.5,0.2    c-0.2,0-0.4,0.1-0.6,0.1c-0.5,0-1-0.2-1.3-0.5s-0.5-0.7-0.5-1.2c0-0.4,0.1-0.7,0.3-1s0.4-0.5,0.8-0.6c0.3-0.1,0.7-0.3,1.2-0.3    s1-0.1,1.5-0.1v0c0-0.3-0.1-0.5-0.4-0.6c-0.2-0.1-0.6-0.2-1.1-0.2c-0.3,0-0.6,0.1-0.9,0.2c-0.3,0.1-0.6,0.2-0.7,0.2h-0.2V317    c0.2,0,0.5-0.1,0.9-0.2c0.4-0.1,0.8-0.1,1.3-0.1c1,0,1.7,0.2,2.2,0.5c0.4,0.3,0.7,0.8,0.7,1.4v3.7h-1.7V321.8z M391.7,320.9v-1.1    c-0.2,0-0.5,0-0.8,0.1c-0.3,0-0.5,0.1-0.6,0.1c-0.2,0.1-0.3,0.1-0.4,0.2c-0.1,0.1-0.1,0.2-0.1,0.4c0,0.1,0,0.2,0,0.3    c0,0.1,0.1,0.1,0.1,0.2c0.1,0.1,0.2,0.1,0.3,0.1c0.1,0,0.3,0,0.5,0c0.2,0,0.4,0,0.5-0.1C391.4,321.1,391.6,321,391.7,320.9z"/> 	</g> </g> <g id="llegenda"> 	<line style="fill:none;stroke:#9A9A9A;stroke-width:2;stroke-miterlimit:10;" x1="-175" y1="-28.5" x2="-175" y2="1"/> 	<line style="fill:none;stroke:#9A9A9A;stroke-miterlimit:10;" x1="-141.6" y1="-28.5" x2="-141.6" y2="1"/> 	<g> 		<path d="M-167.3-18.1h0.9v7.1h-0.9V-18.1z"/> 		<path d="M-164-17.2c0,0.3-0.2,0.5-0.6,0.5c-0.3,0-0.5-0.2-0.5-0.5s0.2-0.5,0.5-0.5C-164.2-17.7-164-17.5-164-17.2z M-164.9-11    v-4.8h0.9v4.8H-164.9z"/> 		<path d="M-162.6-14.5c0-0.5,0-0.9,0-1.3h0.8l0,0.8h0c0.2-0.4,0.8-0.9,1.6-0.9c0.7,0,1.7,0.4,1.7,2.1v2.9h-0.9v-2.8    c0-0.8-0.3-1.4-1.1-1.4c-0.6,0-1,0.4-1.2,0.9c0,0.1-0.1,0.3-0.1,0.4v2.9h-0.9V-14.5z"/> 	</g> 	<line style="fill:none;stroke:#696969;stroke-width:2;stroke-miterlimit:10;" x1="-175" y1="11.1" x2="-175" y2="40.6"/> 	<g> 		<path d="M-167.3,21.5h0.9v7.1h-0.9V21.5z"/> 		<path d="M-164,22.4c0,0.3-0.2,0.5-0.6,0.5c-0.3,0-0.5-0.2-0.5-0.5s0.2-0.5,0.5-0.5C-164.2,21.9-164,22.1-164,22.4z M-164.9,28.6    v-4.8h0.9v4.8H-164.9z"/> 		<path d="M-162.6,25.1c0-0.5,0-0.9,0-1.3h0.8l0,0.8h0c0.2-0.4,0.8-0.9,1.6-0.9c0.7,0,1.7,0.4,1.7,2.1v2.9h-0.9v-2.8    c0-0.8-0.3-1.4-1.1-1.4c-0.6,0-1,0.4-1.2,0.9c0,0.1-0.1,0.3-0.1,0.4v2.9h-0.9V25.1z"/> 	</g> 	<rect x="-180.4" y="-53.1" style="fill:#BFBFBF;" width="16.3" height="15.3"/> 	<rect x="-180.4" y="-80.7" style="fill:#DCE9FB;" width="16.3" height="15.3"/> 	<rect x="-211.8" y="-80.7" style="fill:#D0E0A4;" width="16.3" height="15.3"/> 	<g> 		<path d="M-154.9-43.7v-4.2h-0.7v-0.7h0.7v-0.2c0-0.7,0.2-1.3,0.6-1.7c0.3-0.3,0.8-0.4,1.2-0.4c0.3,0,0.6,0.1,0.7,0.1l-0.1,0.7    c-0.1-0.1-0.3-0.1-0.6-0.1c-0.7,0-0.9,0.6-0.9,1.4v0.3h1.2v0.7h-1.2v4.2H-154.9z"/> 		<path d="M-147.8-46.2c0,1.8-1.2,2.6-2.4,2.6c-1.3,0-2.3-1-2.3-2.5c0-1.6,1.1-2.6,2.4-2.6C-148.7-48.7-147.8-47.6-147.8-46.2z     M-151.6-46.1c0,1.1,0.6,1.9,1.5,1.9c0.8,0,1.5-0.8,1.5-1.9c0-0.8-0.4-1.8-1.4-1.8C-151.2-48-151.6-47-151.6-46.1z"/> 		<path d="M-146.7-47.2c0-0.5,0-0.9,0-1.3h0.8l0,0.8h0c0.2-0.4,0.8-0.9,1.6-0.9c0.7,0,1.7,0.4,1.7,2.1v2.9h-0.9v-2.8    c0-0.8-0.3-1.4-1.1-1.4c-0.6,0-1,0.4-1.2,0.9c0,0.1-0.1,0.3-0.1,0.4v2.9h-0.9V-47.2z"/> 		<path d="M-141.2-44.6c0.3,0.2,0.7,0.3,1.2,0.3c0.6,0,0.9-0.3,0.9-0.7c0-0.4-0.3-0.6-0.9-0.9c-0.9-0.3-1.3-0.8-1.3-1.4    c0-0.8,0.6-1.4,1.7-1.4c0.5,0,0.9,0.1,1.2,0.3l-0.2,0.6c-0.2-0.1-0.5-0.3-1-0.3c-0.5,0-0.8,0.3-0.8,0.7c0,0.4,0.3,0.6,0.9,0.8    c0.8,0.3,1.3,0.7,1.3,1.4c0,0.9-0.7,1.5-1.8,1.5c-0.5,0-1-0.1-1.4-0.3L-141.2-44.6z"/> 	</g> 	<g> 		<path d="M-154.9-74.6c0-0.5,0-0.9,0-1.3h0.8l0,0.8h0c0.3-0.5,0.7-0.9,1.5-0.9c0.6,0,1.1,0.4,1.4,1h0c0.1-0.3,0.4-0.5,0.5-0.6    c0.3-0.2,0.6-0.3,1.1-0.3c0.6,0,1.6,0.4,1.6,2.1v2.8h-0.9v-2.7c0-0.9-0.3-1.5-1-1.5c-0.5,0-0.9,0.4-1,0.8c0,0.1-0.1,0.3-0.1,0.4v3    h-0.9v-2.9c0-0.8-0.3-1.3-1-1.3c-0.5,0-0.9,0.4-1.1,0.9c-0.1,0.1-0.1,0.3-0.1,0.4v2.9h-0.9V-74.6z"/> 		<path d="M-143.2-72.2c0,0.4,0,0.8,0.1,1.2h-0.8l-0.1-0.6h0c-0.3,0.4-0.8,0.7-1.5,0.7c-1,0-1.5-0.7-1.5-1.4c0-1.2,1-1.8,2.9-1.8    v-0.1c0-0.4-0.1-1.1-1.1-1.1c-0.5,0-0.9,0.1-1.3,0.4l-0.2-0.6c0.4-0.3,1-0.4,1.6-0.4c1.5,0,1.8,1,1.8,2V-72.2z M-144.1-73.5    c-1,0-2,0.1-2,1.1c0,0.6,0.4,0.8,0.8,0.8c0.6,0,1-0.4,1.2-0.8c0-0.1,0-0.2,0-0.3V-73.5z"/> 		<path d="M-141.8-74.4c0-0.6,0-1.1,0-1.5h0.8l0,1h0c0.2-0.6,0.8-1.1,1.3-1.1c0.1,0,0.2,0,0.2,0v0.8c-0.1,0-0.2,0-0.3,0    c-0.6,0-1.1,0.5-1.2,1.1c0,0.1,0,0.3,0,0.4v2.6h-0.9V-74.4z"/> 	</g> 	<circle style="fill-rule:evenodd;clip-rule:evenodd;fill:#5B7EBD;" cx="-175" cy="55.7" r="2.4"/> 	 		<rect x="-255.8" y="-53.1" style="fill:#BFBFBF;stroke:#696969;stroke-width:2;stroke-miterlimit:10;" width="16.3" height="15.3"/> 	 		<rect x="-229.6" y="-53.1" style="fill:#FFFBF0;stroke:#9A9A9A;stroke-width:2;stroke-miterlimit:10;" width="16.3" height="15.3"/> 	<rect x="-238.9" y="-22.5" style="opacity:0.6;fill:#FFFBF0;" width="51" height="17.5"/> </g> </svg>