<svg xmlns="http://www.w3.org/2000/svg" xmlns:xlink="http://www.w3.org/1999/xlink" version="1.1" x="0px" y="0px" width="450px" height="450px" viewBox="0 0 450 450" style="enable-background:new 0 0 450 450;" xml:space="preserve">
<g id="Capa_12">
	<rect x="-28" y="-16.7" style="fill:#DCE9FB;" width="488.7" height="476"/>
</g>
<g id="color_exterior">
	<path style="fill:#BFBFBF;stroke:#696969;stroke-width:2;stroke-miterlimit:10;" d="M-13.8,293.6c0.4,0.5,0.8,0.9,1.2,1.4"/>
	<path style="fill:#BFBFBF;stroke:#696969;stroke-width:2;stroke-miterlimit:10;" d="M-5.5,129c1.1-1,2.1-2.2,3.1-3.6"/>
	<path style="fill:#BFBFBF;stroke:#696969;stroke-width:2;stroke-miterlimit:10;" d="M-5.9,129.3c0.1-0.1,0.2-0.2,0.3-0.3"/>
	<path style="fill:#BFBFBF;stroke:#696969;stroke-width:2;stroke-miterlimit:10;" d="M-8.9,251.2c-0.1,5.2-0.1,10.4-0.2,15.7l0,0   c1.5-1.6,3.1-3.1,4.7-4.5"/>
	<a xlink:href="Migjorn">
		<path style="fill:#BFBFBF;stroke:#696969;stroke-width:2;stroke-miterlimit:10;" d="M457,386c-9.5-4-24.4,12.5-30.5,19    c-14.9,15.7-10.3,38.7-31.7,49c10.9,0,64.9,5.1,64.9-4.4c0-27.5,0-54.9,0-82.4L457,386z"/>
	</a>
	<a xlink:href="Raiguer">
		<path style="fill:#BFBFBF;stroke:#696969;stroke-width:2;stroke-miterlimit:10;" d="M242.3-10.1c0,0-49.4,37.8-66.8,43.6    l32.9,77.5c0,0-5.6,10.4,0.8,18.7s13.7,28.7,9.8,38.4s-5.6,24.2-4.2,33.4c0.4,2.4,0,0,0,0s27.4-11.5,36,6.2c1.7,3.5,0,0,0,0    s11.4-28.4,51.6-46.1c21-9.3,49.9-13.8,89.1-13.8c13.1,0,0,0,0,0s23.6,3.9,24.2-12.6c0.5-12.6-0.5-11.6,5.3-14.5    c9.9-4.9,39.2-13.1,39.2-13.1l2.9-114.8L242.3-10.1"/>
	</a>
	<path style="fill:#BFBFBF;stroke:#696969;stroke-width:2;stroke-miterlimit:10;" d="M-15.7,291.3c0.6,0.8,1.3,1.6,2,2.3"/>
	<path style="fill:#BFBFBF;stroke:#696969;stroke-width:2;stroke-miterlimit:10;" d="M-2.5,233.3c-0.8-0.4-1.6-0.8-2.4-1.2"/>
	<a xlink:href="Serra de Tramuntana">
		<path style="fill:#BFBFBF;stroke:#696969;stroke-width:2;stroke-miterlimit:10;" d="M-2.5,233.3c7.3,3.7,14.6,8,16.8,16.3    c-6.9,3.2-13.1,7.6-18.7,12.7l-11.4,29c-0.7-0.9-1.4-1.7-2.2-2.5c-2.5-2.8-19.1,8.2-19.1,13.3c0,17.2,0,34.5,0,51.7    c0,11.9,16.1,6.5,26.2,6.5c14.7,0.1,11.7-9.4,16.2-16.2c1.5-2.3,7.7-12.3,10.1-14.6c2.5-2.2-3.2-2.3-2.2-4.1    c2.2-3.9,0.3-4.7,4.2-9.4c0,0-0.2,0.3,0,0c-4.7-6.2-12.4-7-21-12.7c-3.4-2.3-6.3-5.3-9-8.4l3.8-43.8c0.1-7,0.2-13.9,0.2-20.9    c1.2,0.6,2.5,1.3,3.7,1.9l-1-102.9c-0.9,0.8-1.8,1.5-2.7,2l0,0C-8.8,113.7-8.9,96.1-9,78.5c0-6.1,13.6,6.5,12.4,6.6    c10.9-1.6,4,26.8-5.8,40.2L-2.5,233.3z"/>
	</a>
</g>
<g id="color">
	<a xlink:href="Platja de Palma">
		<path style="fill:#FFFBF0;stroke:#9A9A9A;stroke-width:2;stroke-miterlimit:10;" d="M160.8,271.9l8.3,4.8c0,0,2.4-6.8,5.3-1.9    s3.4,10.2,8.7,11.1s42.1,20.3,39.7,31.5l3.4,4.4c0,0,9.7-2.9,10.7,1.9s-2.4,10.2-2.4,10.2s21.8,15.5,28.1,29.5s7.8-0.5,19.4,4.8    c11.5,5.3,56.4,52.9,68.8,91.8c0.2,0.5,0.3,1.1,0.5,1.6c11.6,39.2,44.6,1.9,44.6,1.9l-1-9.6c0,0-37.7-76.1-104.6-104.2    c0,0-38.3-2.4-41.2-33.9l8.7,3.9c0,0,33.1-14,24.8-21.8s-39.9-14.8-39.9-14.8l-2.2,5.5C240.5,288.8,205.3,246.3,160.8,271.9z"/>
	</a>
	<a xlink:href="Llevant">
		<path style="fill:#FFFBF0;stroke:#9A9A9A;stroke-width:2;stroke-miterlimit:10;" d="M147.1,263l13.7,8.9c0,0,38.2-26.3,79.7,16.8    l2.2-5.5c0,0,45.6,10.4,40.3,19.6s-25.2,17-25.2,17l-8.7-3.9c0,0-0.4,28.9,41.2,33.9c0,0,52.3,16.5,104.6,104.2    c0,0,6.8-1.5,11.2-7.8s13.1-52.8,50.9-61.5l3.4-277.1c0,0-45,9.7-45,18.4s2.4,22.3-18.4,22.3s-110.4-7-146,59.5    c0,0-11.6-18.8-36-6.2c0,0-1.6-15,3.7-31.5s-9.3-40.4-9.3-40.4s-22.6,19-25.1,38.4s-3.9,16-9.7,17.4s-0.4,4.8-1.4,9.2    s-29.9,32.3-29.9,32.3S152.1,243,147.1,263z"/>
	</a>
	<a xlink:href="Nord">
		<path style="fill:#FFFBF0;stroke:#9A9A9A;stroke-width:2;stroke-miterlimit:10;" d="M-11.5-8.1l6.8,86.7l11.6,8.2    c0,0,31-19.4,57.2-9.2s15,27.1,22.7,41.2s17.6,38.8,17.6,38.8l-6.7,11.1L100,181l10-7.5c0,0-4.8,26.6,4.4,29.5s11.6,10.7,8.2,21.3    l8.2-5.8l12.3,8.5c0,0,32.3-29.9,30.4-34.7s-2.9-6.8,3.9-8.2s3.9,0.5,5.3-7.8s3.1-25,26.5-46.7c0,0-6.6-7.6-0.8-18.7l-32.9-77.5    c0,0,55.2-30,71.2-48.4L-11.5-8.1z"/>
	</a>
	<a xlink:href="Ponent">
		<path style="fill:#FFFBF0;stroke:#9A9A9A;stroke-width:2;stroke-miterlimit:10;" d="M-2.6,124.3c5.6-7.6,12.5-21,9.5-37.5    c0,0,53.8-32,76,7.3c0,0-1.9,17.4,8.2,32.5s13.2,31.1,13.2,31.1l-6.7,11.1L100,181l10-7.5c0,0-4.8,25.7,6.3,30.5    s6.3,20.3,6.3,20.3l-13.6,20.3c0,0-19.9,5.3-22.3,14.5s-9.2,34.4-9.2,34.4l8.2,2.4c0,0,6.8,2.9,3.9,3.9s-6.8-1.5-8.7,1.9    s-0.5,7.3-7.8,6.8s-8.7,4.4-4.4,4.8s9.2,0.5,7.8,9.2l15,1l16-16l2.9-0.5L90.7,328l-17.4-0.5c0,0-10.7-1-15-9.2s-6.3-6.8-11.6-7.8    s1.5-5.3-6.3-7.3S17.5,316,17.5,316l-24.6-14.6L-9,266.8c0,0,8.5-8,23.3-17.3c0,0-2.1-10.1-22.9-19.3v-99c0,0,0.9-0.8,2.3-2.4"/>
	</a>
	<a xlink:href="Ponent">
		<path style="fill:#FFFBF0;stroke:#9A9A9A;stroke-width:2;stroke-miterlimit:10;" d="M-6.3,128.9c1-1.1,2.3-2.7,3.7-4.6"/>
	</a>
	<a xlink:href="Centre">
		<path style="fill:#FFFBF0;stroke:#9A9A9A;stroke-width:2;stroke-miterlimit:10;" d="M109.1,244.7l13.6-20.3l8.2-5.8l12.3,8.5    c0,0,8.5,17.7,3.9,35.9c0,0-15,2.9-24.6-2.5l-7,3.7l1,2.7l-17.7,14l-3-8.3l22.7-18.3l-5-5c0,0-1.7,1.7-2.3,3.7s-5.3,2-4.7,0    S109.1,244.7,109.1,244.7z"/>
	</a>
</g>
<g id="Parc-aeroport">
	<path style="fill-rule:evenodd;clip-rule:evenodd;fill:#D0E0A4;" d="M146.4,262.4c-2.2-0.2-31.6-4.3-22.8-10.2   c4.7,1.1,11.6,7.9,15.8,7.2c3.1-0.5,4.7-0.5,7.3,0.8C146.5,260.8,146.4,261.6,146.4,262.4C145.3,262.2,146.4,262.4,146.4,262.4z"/>
	<path style="fill-rule:evenodd;clip-rule:evenodd;fill:#D0E0A4;" d="M163,256.5c-2.4-1.8,2.2-16.8,7.4-16.2   C169.7,245,168.3,257.4,163,256.5L163,256.5z"/>
	<path style="fill-rule:evenodd;clip-rule:evenodd;fill:#D0E0A4;" d="M140.1,221c3.4-3.3,6.7-6.6,10.1-9.9c5.7,4.2-4.9,9.5-8.5,12.5   C141.4,222.6,140.8,221.7,140.1,221C140.1,221,140.2,221.1,140.1,221z"/>
	<path style="fill-rule:evenodd;clip-rule:evenodd;fill:#D0E0A4;" d="M41.9,251.3c3.4-7.3,7.8-2.2,12.2-6.4   c5.9-5.8,12.4-0.6,18.6-2.8c5.6-1.9,2.8,17.4,1.2,20.8c-1.7,3.6-2.1,7.7-4.7,10.9c-3.4,4.2-8.1,3-8.3,8.5c-3.9-0.7-2.4-1.6-5.1-3.9   c-2.4-2-1.8,2.5-4.5,1c-1-0.6-2.1-7.9-2.6-8.8c-1.9-4.1-3.9,0.6-5.3-0.9c-1.8-2,3.5-7.9,0.6-10.5C40.5,256.1,40.3,256.1,41.9,251.3   C42.6,249.7,41.6,252.2,41.9,251.3z"/>
	<path style="fill-rule:evenodd;clip-rule:evenodd;fill:#D0E0A4;" d="M97.3,197.6c2.4,3.7,3.6,2.2,7.5,2.4   c4.8,0.2,2.9,13.4,13.5,9.3C113.7,205.8,104.7,185.7,97.3,197.6C97.3,197.6,97.9,196.7,97.3,197.6z"/>
	<path style="fill-rule:evenodd;clip-rule:evenodd;fill:#D0E0A4;" d="M165.8,193.2C171.5,200.5,154.2,201,165.8,193.2L165.8,193.2z"/>
	<path style="fill-rule:evenodd;clip-rule:evenodd;fill:#D0E0A4;" d="M146.7,183.5c1.1,0.1,2.2,0.1,3.3,0.2   c-0.1,2.9-1.2,5.2-3.6,5.4C146.5,187.2,146.4,185.3,146.7,183.5L146.7,183.5z"/>
	<path style="fill-rule:evenodd;clip-rule:evenodd;fill:#D0E0A4;" d="M119.9,253.5c2.7-5.3,10,1,13.4,3.3c3.4,2.3,6.3,1.1,9.6,1.9   c5.5,1.5,0.1,2.6-3.2,2.3C133.1,260.4,123.9,259.9,119.9,253.5C119.9,253.5,120.7,254.6,119.9,253.5z"/>
	<path style="fill-rule:evenodd;clip-rule:evenodd;fill:#D0E0A4;" d="M79.2,187.5c2.8,2.8,1.3,5.2-2.1,6.7   C74.1,191.3,75.6,188.9,79.2,187.5L79.2,187.5z"/>
	<path style="fill-rule:evenodd;clip-rule:evenodd;fill:#D0E0A4;" d="M68.4,192.8c0.5-0.5,1.1-1.1,1.6-1.6c2.5,2.5,4.6,5.4,2.2,7.9   C71,197.1,69.2,195,68.4,192.8L68.4,192.8z"/>
	<path style="fill-rule:evenodd;clip-rule:evenodd;fill:#D0E0A4;" d="M224.6,71.4c5.1,9.3,1.1,11.7-7.6,12.6   C221.4,80.4,222.1,76.2,224.6,71.4C224.6,71.4,224,72.6,224.6,71.4z"/>
	<path style="fill-rule:evenodd;clip-rule:evenodd;fill:#D0E0A4;" d="M222.9,56.9c6.1-0.4,3.6,4.4,3.1,8.6c-1.2,0.1-3.4-0.3-4.4-0.8   C222,62.1,222.4,59.5,222.9,56.9L222.9,56.9z"/>
	<path style="fill-rule:evenodd;clip-rule:evenodd;fill:#D0E0A4;" d="M227.7,123c3-0.8,4.9-3.4,7.3-5.7c0.2,2.2-1.1,6.2,1.5,8.1   c-3.1,2.5-8.6,7.1-8.9,10.7c-0.4,4.5,6.7,10.1,1.9,12.9c-3.8-3.8-1.2-6.4-4.1-10.5c-1,0.6-2,1.2-2.9,1.8c-1.2-3.3-1.4-1.6,0.4-4.2   c0.5,0.9,1.1,1.7,1.6,2.6C226,132.5,231.4,127.7,227.7,123L227.7,123z"/>
	<path style="fill-rule:evenodd;clip-rule:evenodd;fill:#D0E0A4;" d="M258.3,112.1c5,4.4-1.9,8.6-4.8,9.5c-3.3,1-5.1,5.6-8.8,1.8   c-2.6-2.8-4.4-4.7-1.9-7.4C247.2,130.8,258.2,112.1,258.3,112.1C258.3,112.1,258.1,111.8,258.3,112.1z"/>
	<path style="fill-rule:evenodd;clip-rule:evenodd;fill:#D0E0A4;" d="M56.7,151.2c0.6,2.1,1.2,3.2,4.6,3c0.7-3.5-0.8-5.3-4.4-5   C56.8,149.9,56.7,150.5,56.7,151.2L56.7,151.2z"/>
	<path style="fill-rule:evenodd;clip-rule:evenodd;fill:#D0E0A4;" d="M204.9,199.7c6.2-4.1,8.8,4.7,1.4,5.6   C205.8,203.6,204.8,201.5,204.9,199.7L204.9,199.7z"/>
	
		<rect x="253.3" y="297.9" transform="matrix(-0.8406 0.5416 -0.5416 -0.8406 717.4479 392.76)" style="fill:#D9DADB;" width="95.3" height="8"/>
	
		<rect x="299.9" y="313.9" transform="matrix(-0.8407 0.5415 -0.5415 -0.8407 805.2151 398.9293)" style="fill:#D9DADB;" width="88.1" height="8"/>
	<polygon style="fill:#D9DADB;" points="319,296.2 268.7,328.7 271.9,333.7 283.1,326.5 293.3,344.4 332.6,319.2  "/>
</g>
<g id="riu">
	<path style="fill:#DCE9FB;stroke:#DCE9FB;stroke-width:1.4173;stroke-miterlimit:10;" d="M107.6,247.2l0.7-1l0.2-0.4l0.3-0.6   l0.2-0.3l0.3-0.4l0.6-0.8l0.4-0.6l1.5-2.3l0.4-0.7l0.1-0.2l0.5-0.5l0.2-1.2l0.2-1.2l0.1-0.7l0-0.2l0.1-0.7l0.1-0.8l0.1-0.4l0.3-0.3   l0.5-0.5l0.8-0.6l0.8-0.6l0.7-0.7l0.3-0.6l0.2-0.6l0.6-2l0.7-2.5l0-1.2l0-0.5l0.2-0.6l-0.1-0.6l0-1.1l0.1-1.5l0-1.3l0.1-0.6   l0.2-0.5l0.7-1.3l0.2-0.4l1.1-2l0.8-1.5l0.1-0.3l0.1-0.4l0-0.2l0-0.7l0-0.2l0.1-1.3l-0.5-0.4l-0.7-0.7l-0.8-0.9l-0.6-0.5   c-1.8,0.8-3.3,0.9-5.3,0.4c-1.5-0.4-2.3-0.8-3.4-1.7c-1.7-1.3-2.4-2.6-3.2-4.5c-0.6-1.3-0.8-2.2-1-3.6l-0.8-4.9c0,0-1.3-4-1.5-6.6   c-0.2-2.9-0.8-5.3,1.3-7.7c2.5-2.9-0.9-5.3-1.2-8.4c-0.2-2.2-0.8-3.3,1.1-4.9c2.4-2.1-0.5-3.3-2.1-4.3c-1.5-0.9-2.9-2.5-4.2-3.7   c-2.8-2.7-3.5-4.6-5.2-7.9c-2.6-5.1-4.3-8.5-5.4-14.3c-0.5-2.4-0.8-4.8-1.5-7.8c-1.2-5.1-1.9-8-3.2-13c-0.7-3.5-0.5-7,0.1-10.5   c0.8-4.4-0.9-7.5-3.6-11c-2.7-3.5-7.3-6.5-11.6-7.9c-1.8-0.6-3.6-1-5.9-1.7c-2.9-0.9-4.6-1-7.5-1.9c-3.5-1.1-4.7-2.7-8.9-2.5   c-0.7,0-7-0.8-7.9-0.8v-0.8c3.3,0,10.3,0.4,13.7,1.9c1,0.5,2,1,3.3,1.4c2.9,0.9,4.6,1,7.5,1.9c4.4,1.3,7.6,1.8,11.6,4.4   c2.7,1.8,4.4,2.9,6.4,5.5c2.8,3.6,4.6,7,3.7,11.6c-0.6,3.4-0.9,6.8-0.1,10.2c1.2,5.1,1.9,8,3.2,13c1.3,5.2,1.7,10.3,3.7,15.3   c1.1,2.6,1.9,4,3.2,6.5c1.6,3.2,2.3,5.1,5,7.7c1.2,1.2,2.6,2.8,4,3.6c1.5,0.9,3.8,1.8,3.3,4c-0.4,2-2.4,1.5-2.1,4.2   c0.3,2.5,0.5,3.1,1.7,5.3c1,2,1.1,3.6-0.4,5.3c-1.9,2.2-1.3,4.5-1.1,7.1c0.1,1.7,0.3,2.9,0.6,4.2l0.5,1.8l0.2,0.5l0.9,4.7   c0.2,1.5,0.3,2.3,0.9,3.7c0.8,1.9,1.4,3,3,4.2c1.1,0.9,1.8,1.2,3.1,1.6c2.1,0.5,3.3,0.3,5.2-0.6l1,0.9l0.8,1l0.6,0.7l0.9,0.6   l-0.2,1.7l0,0.2l0,0.8l-0.1,0.3l-0.1,0.5l-0.2,0.4l-0.8,1.5l-1.1,2l-0.2,0.4L120,218l-0.2,0.4l-0.1,0.4l0,1.3l-0.1,1.5l0,1.1   l0.1,0.7l-0.2,0.7l0,0.3l0,1.3l-0.7,2.6l-0.6,2.1l-0.3,0.6l-0.3,0.8l-0.9,0.8l-0.8,0.6l-0.8,0.6l-0.5,0.4l-0.1,0.2l-0.1,0.2   l-0.1,0.7l-0.1,0.7l0,0.2l-0.1,0.7l-0.2,1.3l-0.2,1.5l-0.5,0.6l-0.1,0.1l-0.4,0.8l-1.5,2.3l-0.4,0.6l-0.6,0.9l-0.4,0.4l-0.2,0.2   l-0.3,0.6l-0.2,0.4l-0.8,1.1l-1.5,1.4l-0.4-0.7L107.6,247.2z"/>
</g>
<g id="ferrocarril">
	<path style="fill-rule:evenodd;clip-rule:evenodd;fill:none;stroke:#D19FA1;stroke-width:1.0001;stroke-miterlimit:3.8637;" d="   M173.5,195.5c5.6-5.7,8.7-8.9,14.4-14.4c5.1-5,7.8-7.9,13.2-12.6c5.1-4.3,7.5-7.8,13.7-10.5c2.5-1.1,4.2-1.1,6.7-2.2   c4.1-1.8,6.1-3.4,9.7-6.1c6.9-5.2,9.6-9.6,15.6-15.8c7.7-7.9,12-12.4,19.5-20.5c9.8-10.6,15.2-16.7,24.5-27.6   c3.8-3.9,5.6-6.6,7.9-11.5c1.6-3.5,1.5-5.9,3-9.4c1.2-2.7,1.6-4.6,3.6-6.8c3.1-3.3,6.8-2.3,10.6-4.6c2.9-1.8,4.7-2.8,7-5.4   c3.3-3.6,3.9-6.7,6-11.1c3.2-6.8,4.1-11,6.8-18c3.2-8.3,5-13,8.3-21.3"/>
	
		<path style="fill-rule:evenodd;clip-rule:evenodd;fill:none;stroke:#D19FA1;stroke-width:2;stroke-miterlimit:3.8637;stroke-dasharray:1,3;" d="   M173.5,195.5c5.6-5.7,8.7-8.9,14.4-14.4c5.1-5,7.8-7.9,13.2-12.6c5.1-4.3,7.5-7.8,13.7-10.5c2.5-1.1,4.2-1.1,6.7-2.2   c4.1-1.8,6.1-3.4,9.7-6.1c6.9-5.2,9.6-9.6,15.6-15.8c7.7-7.9,12-12.4,19.5-20.5c9.8-10.6,15.2-16.7,24.5-27.6   c3.8-3.9,5.6-6.6,7.9-11.5c1.6-3.5,1.5-5.9,3-9.4c1.2-2.7,1.6-4.6,3.6-6.8c3.1-3.3,6.8-2.3,10.6-4.6c2.9-1.8,4.7-2.8,7-5.4   c3.3-3.6,3.9-6.7,6-11.1c3.2-6.8,4.1-11,6.8-18c3.2-8.3,5-13,8.3-21.3"/>
	<path style="fill-rule:evenodd;clip-rule:evenodd;fill:none;stroke:#D19FA1;stroke-width:1.0001;stroke-miterlimit:3.8637;" d="   M157.6,204c0.8-2.8,1.1-4.5,1.3-7.4c0.3-4.6-0.9-7.1-1.2-11.6c-0.5-8,0-12.5-0.1-20.5c-0.2-15.8-0.4-24.7-1.1-40.5   c0.1-9.9,0.3-15.4,1.3-25.3c1.5-16.6,3.1-26,7-42.3c3.1-13.1,5.1-20.5,10-33c4.2-10.5,7.6-16,12.5-26.3"/>
	
		<path style="fill-rule:evenodd;clip-rule:evenodd;fill:none;stroke:#D19FA1;stroke-width:2;stroke-miterlimit:3.8637;stroke-dasharray:1,3;" d="   M157.6,204c0.8-2.8,1.1-4.5,1.3-7.4c0.3-4.6-0.9-7.1-1.2-11.6c-0.5-8,0-12.5-0.1-20.5c-0.2-15.8-0.4-24.7-1.1-40.5   c0.1-9.9,0.3-15.4,1.3-25.3c1.5-16.6,3.1-26,7-42.3c3.1-13.1,5.1-20.5,10-33c4.2-10.5,7.6-16,12.5-26.3"/>
</g>
<g id="bl">
	<rect x="20.7" y="251.3" style="opacity:0.6;fill:#FFFBF0;" width="32.4" height="11.5"/>
	<rect x="2.7" y="260.6" style="opacity:0.6;fill:#FFFBF0;" width="51" height="8.8"/>
	<rect x="302.7" y="291.9" style="opacity:0.6;fill:#FFFBF0;" width="67.3" height="18.1"/>
</g>
<g id="carrers">
	<path style="fill-rule:evenodd;clip-rule:evenodd;fill:none;stroke:#9A9A9A;stroke-miterlimit:10;" d="M194.6,168.2"/>
	<path style="fill-rule:evenodd;clip-rule:evenodd;fill:none;stroke:#9A9A9A;stroke-miterlimit:10;" d="M184.2,194.6"/>
	<path style="fill-rule:evenodd;clip-rule:evenodd;fill:none;stroke:#9A9A9A;stroke-miterlimit:10;" d="M146.9,262.4   c4.3-16.2-2.5-25,8.8-39.7c17.3-22.6,43.1-47.2,66.6-63.1c23-15.5,41.9-40.2,60-61.1c10.9-12.5,22.1-24.7,33-37.2   c17.9-20.7,20.4-48.1,41.5-65.3"/>
	<path style="fill-rule:evenodd;clip-rule:evenodd;fill:none;stroke:#9A9A9A;stroke-miterlimit:10;" d="M130.5,216.5   c2.8,0.9,5.4,2.3,7.7,4.2"/>
	<path style="fill-rule:evenodd;clip-rule:evenodd;fill:none;stroke:#9A9A9A;stroke-miterlimit:10;" d="M147.2,239.9   c13.5,0.3,27.2,0.1,40.6,2.1c19.7,3,46,1.2,64.5,8c13.7,5,27.3,11.6,42.2,7.6c16.6-4.4,35.5-17.8,52.1-5.7   c11.3,8.2,40.5,8.4,53.9,6.3c20-3.2,40.1-4.6,60.2-6"/>
	<path style="fill-rule:evenodd;clip-rule:evenodd;fill:none;stroke:#9A9A9A;stroke-miterlimit:10;" d="M395.5,458   c-19.9-29.2-32.1-54.9-62-74.5c-12.8-8.4-22.9-20.2-35.8-28.5c-14.1-9.1-37-11.7-46.2-26.6c-6.5-10.7,1.2-26.1-6.6-35   c-11-12.5-19.9-23.9-36.6-27.8c-10.4-2.4-20.8-5.6-30.4,0.3c-12.7,7.8-17.9-0.9-30.1-3.4c-8.9-1.8-20.8,0.4-26.1-8.7   c-3.9-6.5-8.4-9.3-15.8-7.7C80.5,251.5,87.3,264.5,78,286c-3,7-5,11.4-3.1,19.2c2.4,10-16.5-3.4-17.9-5.6   c-7.4-11.1-12.7-19.5-27.6-19.4c-8.8,0.1-27.1,6.9-33.6,12.3"/>
	<path style="fill-rule:evenodd;clip-rule:evenodd;fill:none;stroke:#9A9A9A;stroke-miterlimit:10;" d="M177.1-5.3   c-15.1,51.9-26.7,107.7-31.7,160.7c-3.9,28.5-13,57.5,2.6,80.2"/>
	<path style="fill-rule:evenodd;clip-rule:evenodd;fill:none;stroke:#9A9A9A;stroke-miterlimit:10;" d="M30.1,280.4   c3-11.2,4.2-18.5,10-28.9c7.7-13.7,3.9-32.6,21.1-37.5c11.9-3.4,14.5-13.7,24.4-20.1c14.3-9.2,21-20.9,32.6-32.5   c25.6-25.6,40.9,17.2,54.8,32.4c16.7,19.9,24.6,43.3,16,68.9"/>
	<path style="fill-rule:evenodd;clip-rule:evenodd;fill:none;stroke:#9A9A9A;stroke-miterlimit:10;" d="M264.8,219.3"/>
	<path style="fill-rule:evenodd;clip-rule:evenodd;fill:none;stroke:#9A9A9A;stroke-miterlimit:10;" d="M191.8,231.4   c6.1-6,10.3-2.1,16.8,1.1c1.9,0.9,16.6-1,19.5-1.6c10-2.2,19-7.9,29-10.1c16.6-3.7,26.9-0.7,41.5-12.3   c23.1-18.2,47.5-22.9,75.7-9.8c13.4,6.2,24.1-1.8,34.9-8.1c15.2-8.8,30.1-6.6,45.8-13.3"/>
	<path style="fill-rule:evenodd;clip-rule:evenodd;fill:none;stroke:#9A9A9A;stroke-miterlimit:10;" d="M374,461.8   c1.2-11.3,5.8-25.2,1.3-36"/>
	<path style="fill-rule:evenodd;clip-rule:evenodd;fill:none;stroke:#9A9A9A;stroke-miterlimit:10;" d="M262.8,338.8   c16,4.4,29.8-9.5,41.5-18.4"/>
	<path style="fill-rule:evenodd;clip-rule:evenodd;fill:none;stroke:#9A9A9A;stroke-miterlimit:10;" d="M303.5,384.3   c16-17.3,32-34.6,48-51.9c18.1-19.6,61.3-43.2,54.8-75.4"/>
	<path style="fill-rule:evenodd;clip-rule:evenodd;fill:none;stroke:#9A9A9A;stroke-miterlimit:10;" d="M-2.5,211.8   c-0.4-0.3,11.5,7.5,11.1,5.5c0,0.1,0.6,7.4,3,6.8c0.3-0.1,1.5-7.4,3.4-5.4c6.9,7.5,21.6,7.6,32.4,10.1"/>
	<path style="fill-rule:evenodd;clip-rule:evenodd;fill:none;stroke:#9A9A9A;stroke-miterlimit:10;" d="M101.3,182.8   c11.8,2.8,24.8,27.2,26,39.1"/>
	<path style="fill-rule:evenodd;clip-rule:evenodd;fill:none;stroke:#9A9A9A;stroke-miterlimit:10;" d="M121.1,206.3   c-11,6.5-8.1,28.2-11.2,39.1"/>
	<path style="fill-rule:evenodd;clip-rule:evenodd;fill:none;stroke:#9A9A9A;stroke-miterlimit:10;" d="M111.5,238.2   c3.9-1.8,7.6-8.4,8.5-15"/>
	<path style="fill-rule:evenodd;clip-rule:evenodd;fill:none;stroke:#9A9A9A;stroke-miterlimit:10;" d="M46.1-5.6   c2,7.8,11.5,14.5,14.1,22.9c3.9,12.4,5.9,22.9,12.6,34.3c13,22,19.2,49.7,27.6,74.6c5.8,17.1,20.4,33.1,23.5,50.8   c2,11.4,14.4,50.6-5.9,46.9"/>
</g>
<g id="codis">
	<g>
		
			<rect x="35.5" y="281.9" style="fill-rule:evenodd;clip-rule:evenodd;fill:#FFFBF0;stroke:#B1B3B4;stroke-miterlimit:3.8637;" width="29.9" height="14.5"/>
		<g>
			<rect x="37.2" y="285.1" style="fill-rule:evenodd;clip-rule:evenodd;fill:none;" width="27.9" height="10.7"/>
			<path style="fill:#1A171B;" d="M44.9,292.8h-1.7v-4.4l-1.2,2.8h-1.2l-1.2-2.8v4.4H38v-6.5h2l1.5,3.3l1.5-3.3h2V292.8z"/>
			<path style="fill:#1A171B;" d="M49.4,292.3c-0.1,0.1-0.2,0.1-0.3,0.2s-0.2,0.2-0.4,0.2c-0.2,0.1-0.3,0.1-0.5,0.2     c-0.2,0-0.4,0.1-0.5,0.1c-0.5,0-0.9-0.1-1.2-0.4c-0.3-0.3-0.5-0.7-0.5-1.1c0-0.4,0.1-0.7,0.2-0.9s0.4-0.4,0.7-0.5     c0.3-0.1,0.7-0.2,1.1-0.3s0.9-0.1,1.3-0.1v0c0-0.3-0.1-0.5-0.3-0.6c-0.2-0.1-0.6-0.2-1-0.2c-0.3,0-0.5,0-0.8,0.1     c-0.3,0.1-0.5,0.2-0.6,0.2h-0.1V288c0.2,0,0.4-0.1,0.8-0.2c0.4-0.1,0.8-0.1,1.1-0.1c0.9,0,1.5,0.1,1.9,0.4     c0.4,0.3,0.6,0.7,0.6,1.3v3.4h-1.6V292.3z M49.4,291.5v-1c-0.2,0-0.4,0-0.7,0.1c-0.2,0-0.4,0.1-0.6,0.1c-0.2,0-0.3,0.1-0.4,0.2     c-0.1,0.1-0.1,0.2-0.1,0.4c0,0.1,0,0.2,0,0.3s0.1,0.1,0.1,0.2c0.1,0.1,0.1,0.1,0.2,0.1c0.1,0,0.2,0,0.4,0c0.2,0,0.3,0,0.5-0.1     C49.2,291.7,49.3,291.6,49.4,291.5z"/>
			<path style="fill:#1A171B;" d="M55.6,290.5h-3.4v-1.3h3.4V290.5z"/>
			<path style="fill:#1A171B;" d="M61.6,292.8h-4.4v-1.1h1.4v-3.5h-1.4v-1.1c0.2,0,0.4,0,0.6,0c0.2,0,0.4-0.1,0.5-0.1     c0.2-0.1,0.3-0.2,0.3-0.3c0.1-0.1,0.1-0.3,0.1-0.4h1.5v5.4h1.3V292.8z"/>
		</g>
	</g>
	
		<rect x="153.2" y="23.8" style="fill-rule:evenodd;clip-rule:evenodd;fill:#FFFBF0;stroke:#B1B3B4;stroke-miterlimit:3.8637;" width="37.7" height="12.4"/>
	<g>
		<rect x="154.6" y="26.1" style="fill-rule:evenodd;clip-rule:evenodd;fill:none;" width="36.3" height="9"/>
		<path style="fill:#1A171B;" d="M162.3,33.7h-1.7v-4.4l-1.2,2.8h-1.2l-1.2-2.8v4.4h-1.6v-6.5h2l1.5,3.3l1.5-3.3h2V33.7z"/>
		<path style="fill:#1A171B;" d="M166.9,33.1c-0.1,0.1-0.2,0.1-0.3,0.2s-0.2,0.2-0.4,0.2c-0.2,0.1-0.3,0.1-0.5,0.2    c-0.2,0-0.4,0.1-0.5,0.1c-0.5,0-0.9-0.1-1.2-0.4s-0.5-0.7-0.5-1.1c0-0.4,0.1-0.7,0.2-0.9s0.4-0.4,0.7-0.5c0.3-0.1,0.7-0.2,1.1-0.3    s0.9-0.1,1.3-0.1v0c0-0.3-0.1-0.5-0.3-0.6c-0.2-0.1-0.6-0.2-1-0.2c-0.3,0-0.5,0-0.8,0.1c-0.3,0.1-0.5,0.2-0.6,0.2H164v-1.2    c0.2,0,0.4-0.1,0.8-0.2c0.4-0.1,0.8-0.1,1.1-0.1c0.9,0,1.5,0.1,1.9,0.4c0.4,0.3,0.6,0.7,0.6,1.3v3.4h-1.6V33.1z M166.9,32.4v-1    c-0.2,0-0.4,0-0.7,0.1c-0.3,0-0.4,0.1-0.6,0.1c-0.2,0-0.3,0.1-0.4,0.2c-0.1,0.1-0.1,0.2-0.1,0.4c0,0.1,0,0.2,0,0.2    c0,0.1,0.1,0.1,0.1,0.2c0.1,0.1,0.1,0.1,0.2,0.1s0.2,0,0.4,0c0.2,0,0.3,0,0.5-0.1C166.6,32.6,166.8,32.5,166.9,32.4z"/>
		<path style="fill:#1A171B;" d="M173,31.4h-3.4v-1.3h3.4V31.4z"/>
		<path style="fill:#1A171B;" d="M179,33.7h-4.4v-1.1h1.4v-3.5h-1.4V28c0.2,0,0.4,0,0.6,0c0.2,0,0.4-0.1,0.5-0.1    c0.2-0.1,0.3-0.2,0.3-0.3s0.1-0.3,0.1-0.4h1.5v5.4h1.3V33.7z"/>
		<path style="fill:#1A171B;" d="M185.4,33.7h-4.4v-1.1h1.4v-3.5h-1.4V28c0.2,0,0.4,0,0.6,0c0.2,0,0.4-0.1,0.5-0.1    c0.2-0.1,0.3-0.2,0.3-0.3s0.1-0.3,0.1-0.4h1.5v5.4h1.3V33.7z"/>
	</g>
	<g>
		
			<rect x="281.4" y="349" style="fill-rule:evenodd;clip-rule:evenodd;fill:#FFFBF0;stroke:#B1B3B4;stroke-miterlimit:3.8637;" width="37.9" height="15"/>
		<g>
			<rect x="283" y="353" style="fill-rule:evenodd;clip-rule:evenodd;fill:none;" width="35.1" height="10.8"/>
			<path style="fill:#1A171B;" d="M290.7,360.7h-1.7v-4.4l-1.2,2.8h-1.2l-1.2-2.8v4.4h-1.6v-6.5h2l1.5,3.3l1.5-3.3h2V360.7z"/>
			<path style="fill:#1A171B;" d="M295.3,360.2c-0.1,0.1-0.2,0.1-0.3,0.2s-0.2,0.2-0.4,0.2c-0.2,0.1-0.3,0.1-0.5,0.2     c-0.2,0-0.4,0.1-0.5,0.1c-0.5,0-0.9-0.1-1.2-0.4c-0.3-0.3-0.5-0.7-0.5-1.1c0-0.4,0.1-0.7,0.2-0.9s0.4-0.4,0.7-0.5     c0.3-0.1,0.7-0.2,1.1-0.3s0.9-0.1,1.3-0.1v0c0-0.3-0.1-0.5-0.3-0.6c-0.2-0.1-0.6-0.2-1-0.2c-0.3,0-0.5,0-0.8,0.1     c-0.3,0.1-0.5,0.2-0.6,0.2h-0.1v-1.2c0.2,0,0.4-0.1,0.8-0.2c0.4-0.1,0.8-0.1,1.1-0.1c0.9,0,1.5,0.1,1.9,0.4     c0.4,0.3,0.6,0.7,0.6,1.3v3.4h-1.6V360.2z M295.3,359.4v-1c-0.2,0-0.4,0-0.7,0.1c-0.3,0-0.4,0.1-0.6,0.1c-0.2,0-0.3,0.1-0.4,0.2     c-0.1,0.1-0.1,0.2-0.1,0.4c0,0.1,0,0.2,0,0.3s0.1,0.1,0.1,0.2c0.1,0.1,0.1,0.1,0.2,0.1c0.1,0,0.2,0,0.4,0c0.2,0,0.3,0,0.5-0.1     C295,359.6,295.2,359.5,295.3,359.4z"/>
			<path style="fill:#1A171B;" d="M301.4,358.4h-3.4v-1.3h3.4V358.4z"/>
			<path style="fill:#1A171B;" d="M307.4,360.7h-4.4v-1.1h1.4v-3.5h-1.4V355c0.2,0,0.4,0,0.6,0c0.2,0,0.4-0.1,0.5-0.1     c0.2-0.1,0.3-0.2,0.3-0.3s0.1-0.3,0.1-0.4h1.5v5.4h1.3V360.7z"/>
			<path style="fill:#1A171B;" d="M314.1,357.1c0,0.5-0.1,1.1-0.2,1.5c-0.1,0.5-0.4,0.9-0.6,1.2c-0.3,0.3-0.7,0.6-1.2,0.8     c-0.5,0.2-1,0.3-1.6,0.3c-0.2,0-0.5,0-0.7,0s-0.4,0-0.5-0.1v-1.3h0.2c0.1,0,0.2,0.1,0.4,0.1c0.2,0,0.4,0.1,0.7,0.1     c0.2,0,0.5,0,0.7-0.1c0.2-0.1,0.4-0.1,0.6-0.3c0.2-0.1,0.3-0.3,0.4-0.5c0.1-0.2,0.2-0.4,0.2-0.7c-0.3,0.1-0.5,0.3-0.7,0.3     c-0.2,0.1-0.5,0.1-0.8,0.1c-0.2,0-0.5,0-0.7-0.1c-0.2-0.1-0.4-0.2-0.6-0.3c-0.2-0.2-0.4-0.4-0.6-0.7c-0.1-0.3-0.2-0.6-0.2-1.1     c0-0.7,0.2-1.3,0.7-1.7c0.5-0.4,1.1-0.7,1.9-0.7c0.4,0,0.8,0.1,1.1,0.2c0.3,0.1,0.6,0.3,0.8,0.5c0.3,0.3,0.5,0.6,0.6,1     C314,356,314.1,356.5,314.1,357.1z M312.4,356.8c0-0.4,0-0.7-0.1-0.9c-0.1-0.2-0.2-0.4-0.3-0.5c-0.1-0.1-0.2-0.2-0.3-0.2     s-0.2-0.1-0.4-0.1c-0.1,0-0.2,0-0.3,0.1c-0.1,0-0.2,0.1-0.3,0.2c-0.1,0.1-0.2,0.2-0.2,0.4c-0.1,0.2-0.1,0.3-0.1,0.5     c0,0.2,0,0.4,0.1,0.5c0.1,0.1,0.1,0.3,0.3,0.3c0.1,0.1,0.2,0.1,0.4,0.2c0.1,0,0.3,0,0.5,0c0.1,0,0.3,0,0.4-0.1     c0.2,0,0.3-0.1,0.4-0.1c0,0,0-0.1,0-0.1C312.4,357,312.4,356.9,312.4,356.8z"/>
		</g>
	</g>
	<g>
		
			<rect x="38.2" y="211.5" style="fill-rule:evenodd;clip-rule:evenodd;fill:#FFFBF0;stroke:#B1B3B4;stroke-miterlimit:3.8637;" width="35.8" height="14.1"/>
		<g>
			<rect x="39.8" y="214.2" style="fill-rule:evenodd;clip-rule:evenodd;fill:none;" width="33.2" height="10.2"/>
			<path style="fill:#1A171B;" d="M47.5,221.9h-1.7v-4.4l-1.2,2.8h-1.2l-1.2-2.8v4.4h-1.6v-6.5h2l1.5,3.3l1.5-3.3h2V221.9z"/>
			<path style="fill:#1A171B;" d="M52.1,221.4c-0.1,0.1-0.2,0.1-0.3,0.2s-0.2,0.2-0.4,0.2c-0.2,0.1-0.3,0.1-0.5,0.2     s-0.4,0.1-0.5,0.1c-0.5,0-0.9-0.1-1.2-0.4s-0.5-0.7-0.5-1.1c0-0.4,0.1-0.7,0.2-0.9s0.4-0.4,0.7-0.5c0.3-0.1,0.7-0.2,1.1-0.3     s0.9-0.1,1.3-0.1v0c0-0.3-0.1-0.5-0.3-0.6s-0.6-0.2-1-0.2c-0.3,0-0.5,0-0.8,0.1c-0.3,0.1-0.5,0.2-0.6,0.2h-0.1V217     c0.2,0,0.4-0.1,0.8-0.2s0.8-0.1,1.1-0.1c0.9,0,1.5,0.1,1.9,0.4c0.4,0.3,0.6,0.7,0.6,1.3v3.4h-1.6V221.4z M52.1,220.6v-1     c-0.2,0-0.4,0-0.7,0.1s-0.4,0.1-0.6,0.1c-0.2,0-0.3,0.1-0.4,0.2s-0.1,0.2-0.1,0.4c0,0.1,0,0.2,0,0.2c0,0.1,0.1,0.1,0.1,0.2     c0.1,0.1,0.1,0.1,0.2,0.1s0.2,0,0.4,0c0.2,0,0.3,0,0.5-0.1C51.8,220.8,52,220.7,52.1,220.6z"/>
			<path style="fill:#1A171B;" d="M58.2,219.6h-3.4v-1.3h3.4V219.6z"/>
			<path style="fill:#1A171B;" d="M64.6,221.9h-5.1v-1.1c0.4-0.3,0.8-0.6,1.2-0.9s0.7-0.6,0.9-0.8c0.4-0.3,0.6-0.6,0.8-0.9     s0.2-0.5,0.2-0.8c0-0.3-0.1-0.5-0.3-0.7c-0.2-0.2-0.5-0.2-0.8-0.2c-0.3,0-0.6,0.1-0.9,0.2s-0.6,0.3-0.8,0.4h-0.1v-1.5     c0.2-0.1,0.5-0.2,0.9-0.3s0.8-0.1,1.2-0.1c0.8,0,1.4,0.2,1.9,0.5s0.6,0.8,0.6,1.5c0,0.4-0.1,0.8-0.3,1.2s-0.5,0.8-0.9,1.2     c-0.3,0.2-0.5,0.5-0.8,0.7c-0.3,0.2-0.5,0.4-0.6,0.4h2.9V221.9z"/>
			<path style="fill:#1A171B;" d="M71,218.6c0,0.6,0,1-0.1,1.5s-0.3,0.8-0.5,1.1c-0.2,0.3-0.5,0.5-0.8,0.6c-0.3,0.1-0.8,0.2-1.3,0.2     c-0.5,0-0.9-0.1-1.3-0.2s-0.6-0.4-0.8-0.7c-0.2-0.3-0.4-0.6-0.5-1.1s-0.1-0.9-0.1-1.5c0-0.6,0-1.1,0.1-1.5     c0.1-0.4,0.3-0.8,0.5-1.1c0.2-0.3,0.5-0.5,0.8-0.6s0.8-0.2,1.2-0.2c0.5,0,0.9,0.1,1.3,0.2c0.3,0.1,0.6,0.4,0.8,0.7     c0.2,0.3,0.4,0.6,0.5,1.1C70.9,217.6,71,218.1,71,218.6z M69.3,218.6c0-0.8-0.1-1.4-0.2-1.7c-0.2-0.3-0.4-0.5-0.8-0.5     s-0.6,0.2-0.8,0.5c-0.2,0.3-0.2,0.9-0.2,1.7c0,0.8,0.1,1.3,0.2,1.7s0.4,0.5,0.8,0.5s0.6-0.2,0.8-0.5S69.3,219.4,69.3,218.6z"/>
		</g>
	</g>
</g>
<g id="puntos_interés">
	<polygon style="fill:#1A171B;" points="137.2,249.1 137.6,249.1 137.6,249.6 137.9,249.6 137.9,249.2 138.1,248.5 138.3,249.2    138.3,249.7 138.5,249.7 138.5,249.3 138.9,249.3 138.9,249.7 139.1,250.1 139.2,250.1 139.2,249.4 139.3,248.7 139.5,249.3    139.6,250 139.9,249.9 139.8,249.4 140,248.5 140.3,249.4 140.6,252.4 141,252.4 140.9,258.6 121.7,258.3 121.8,251.1 122.3,251.1    122.4,247.6 122.9,245.6 123.5,247.5 123.5,248.3 123.6,248.3 123.6,247.3 124.3,244.4 124.9,247.3 124.9,248.3 125.7,248.3    126.2,246.1 126.8,248.6 127.1,247.6 127.3,248.6 127.7,248.7 127.7,248 127.9,247.4 128.1,248.1 128.1,248.7 128.4,248.7    128.4,248.1 128.9,248.1 128.9,248.8 129.6,248.8 129.6,248.3 129.8,247.6 130,248.3 130,248.9 130.4,248.9 130.4,248.4    130.8,248.4 130.8,249 131.3,249 131.3,248.5 131.5,247.8 131.7,248.5 131.7,249 132.1,249.1 132.1,248.5 132.6,248.5 132.6,249.1    133.5,249.2 133.5,248.6 133.7,247.9 134,248.6 133.9,249.3 134.3,249.3 134.3,248.8 134.7,248.8 134.7,249.3 135,249.4 135,249.2    135.2,248.5 135.4,249.2 135.4,249.4 135.7,249.4 135.7,248.9 136.2,248.9 136.2,249.5 136.5,249.5 136.5,249.2 136.7,248.5    137,249.2 136.9,249.5 137.2,249.6  "/>
	<g>
		<path style="fill-rule:evenodd;clip-rule:evenodd;fill:#1A171B;" d="M155.4,204.4c0-1.3,1-2.3,2.3-2.3h3.3c1.3,0,2.3,1,2.3,2.3    v6.4c0,1.3-1,2.3-2.3,2.3h-3.3c-1.3,0-2.3-1-2.3-2.3V204.4z"/>
		<g>
			<circle style="fill-rule:evenodd;clip-rule:evenodd;fill:#FFFBF0;" cx="157.3" cy="210.8" r="0.8"/>
			<circle style="fill-rule:evenodd;clip-rule:evenodd;fill:#FFFBF0;" cx="161.4" cy="210.8" r="0.8"/>
		</g>
		<path style="fill-rule:evenodd;clip-rule:evenodd;fill:#FFFBF0;" d="M156.8,207.3h5.2V205c0,0,0-1-0.9-1c-1.5,0-3.5,0-3.5,0    s-0.8,0.3-0.8,1C156.8,205.7,156.8,207.3,156.8,207.3z"/>
		<g>
			<polygon style="fill-rule:evenodd;clip-rule:evenodd;fill:#1A171B;" points="157.1,212.3 154.9,215.8 156.3,215.8 158.6,212.4         "/>
			<polygon style="fill-rule:evenodd;clip-rule:evenodd;fill:#1A171B;" points="161.6,212.3 163.8,215.8 162.4,215.8 160.1,212.4         "/>
		</g>
		<g>
			<circle style="fill-rule:evenodd;clip-rule:evenodd;fill:#1A171B;" cx="158.6" cy="201.9" r="0.6"/>
			<circle style="fill-rule:evenodd;clip-rule:evenodd;fill:#1A171B;" cx="160.2" cy="201.9" r="0.6"/>
		</g>
		<path style="fill-rule:evenodd;clip-rule:evenodd;fill:#FFFBF0;" d="M158.4,203c0-0.3,0.3-0.5,0.6-0.5h0.9c0.3,0,0.6,0.2,0.6,0.5    l0,0c0,0.3-0.3,0.5-0.6,0.5h-0.9C158.6,203.5,158.4,203.3,158.4,203L158.4,203z"/>
	</g>
	<path style="fill:#1A171B;" d="M257.9,175.9c-0.1,0.3-0.2,0.6-0.3,0.8h-0.9c-0.1-0.2-0.3-0.5-0.4-0.9l-1.5-0.1   c0,0.7-0.1,1.1-0.1,1.8c-0.1,0.9-0.2,1.5-0.3,2.4l3.2,2.7v0.8l-3.8-2.1l-0.4,2.1l-0.4-2.1l-3.8,2.1v-0.8l3.2-2.7   c-0.1-0.9-0.2-1.5-0.3-2.4c-0.1-0.7-0.1-1.1-0.1-1.8l-1.6,0.1c-0.1,0.4-0.2,0.7-0.4,0.9h-0.9c-0.1-0.2-0.2-0.4-0.3-0.8l-4,0.2v-1.2   l3.8-0.8c0-0.4,0.1-0.8,0.2-1.2l1.6,0c0.1,0.2,0.1,0.5,0.1,0.7l1.4-0.3c0-0.6,0-0.6,0-1c0-0.7,0.1-1.1,0.1-1.7   c0.1-0.7,0.1-1.1,0.3-1.7c0.1-0.3,0.1-0.6,0.3-0.9c0.2-0.3,0.3-0.5,0.6-0.6h0.1c0.3,0,0.4,0.3,0.6,0.6c0.2,0.3,0.2,0.5,0.3,0.9   c0.2,0.7,0.2,1.1,0.3,1.7c0.1,0.7,0.1,1.1,0.1,1.7c0,0.4,0,0.4,0,1l1.4,0.3c0-0.3,0.1-0.5,0.1-0.7l1.6,0c0.1,0.3,0.2,0.7,0.2,1.2   l3.8,0.9v1.2L257.9,175.9z"/>
	<path style="fill:#1A171B;" d="M306.4,320.5c-0.1,0.3-0.2,0.6-0.3,0.8h-0.9c-0.1-0.2-0.3-0.5-0.4-0.9l-1.5-0.1   c0,0.7-0.1,1.1-0.1,1.8c-0.1,0.9-0.1,1.5-0.3,2.4l3.2,2.7v0.8l-3.8-2.1l-0.4,2.1l-0.4-2.1l-3.8,2.1v-0.8l3.2-2.7   c-0.1-0.9-0.2-1.5-0.3-2.4c-0.1-0.7-0.1-1.1-0.1-1.8l-1.6,0.1c-0.1,0.4-0.2,0.7-0.4,0.9h-0.9c-0.1-0.2-0.2-0.4-0.3-0.8l-4,0.2v-1.2   l3.8-0.8c0-0.4,0.1-0.8,0.2-1.2l1.6,0c0.1,0.2,0.1,0.5,0.1,0.7l1.4-0.3c0-0.6,0-0.6,0-1c0-0.7,0.1-1.1,0.1-1.7   c0.1-0.7,0.1-1.1,0.3-1.7c0.1-0.3,0.1-0.6,0.3-0.9c0.2-0.3,0.3-0.5,0.6-0.6h0.1c0.3,0,0.4,0.3,0.6,0.6c0.2,0.3,0.2,0.5,0.3,0.9   c0.2,0.7,0.2,1.1,0.3,1.7c0.1,0.7,0.1,1.1,0.1,1.7c0,0.4,0,0.4,0,1l1.4,0.3c0-0.3,0.1-0.5,0.1-0.7l1.6,0c0.1,0.3,0.2,0.7,0.2,1.2   l3.8,0.9v1.2L306.4,320.5z"/>
	<polygon style="fill:#1A171B;" points="59.2,252 59.2,254.6 61.2,254.6 61.2,252 63.6,252 63.6,254.6 65.7,254.6 65.7,252    68.1,252 68.1,254.6 67,256.6 67,264.5 57.8,264.5 57.8,256.6 56.8,254.6 56.8,252  "/>
	<g>
		
			<circle style="fill-rule:evenodd;clip-rule:evenodd;fill:#FFFBF0;stroke:#1A171B;stroke-width:1.4618;stroke-miterlimit:3.8637;" cx="87.3" cy="184.6" r="4.7"/>
		<polygon style="fill-rule:evenodd;clip-rule:evenodd;fill:#1A171B;" points="92.2,183.6 91.5,184.2 90.7,184.7 90,184.2     89.2,183.7 89.5,182.8 89.8,181.9 90.7,181.9 91.6,181.9 91.9,182.7   "/>
		<polygon style="fill-rule:evenodd;clip-rule:evenodd;fill:#1A171B;" points="85.9,181.8 85.5,182.7 85.2,183.5 84.3,183.4     83.4,183.4 83.1,182.5 82.9,181.6 83.7,181.1 84.5,180.6 85.2,181.2   "/>
		<polygon style="fill-rule:evenodd;clip-rule:evenodd;fill:#1A171B;" points="84.9,186.2 84.2,186.8 83.5,187.3 82.7,186.8     82,186.3 82.2,185.4 82.5,184.5 83.4,184.5 84.3,184.5 84.6,185.4   "/>
		<polygon style="fill-rule:evenodd;clip-rule:evenodd;fill:#1A171B;" points="91.8,187.1 91,187.7 90.3,188.2 89.6,187.7     88.8,187.2 89.1,186.3 89.3,185.4 90.3,185.4 91.2,185.4 91.5,186.3   "/>
		<polygon style="fill-rule:evenodd;clip-rule:evenodd;fill:#1A171B;" points="88,188.9 87.2,189.4 86.5,190 85.7,189.5 85,188.9     85.3,188.1 85.5,187.2 86.4,187.2 87.4,187.2 87.7,188   "/>
		<polygon style="fill-rule:evenodd;clip-rule:evenodd;fill:#1A171B;" points="88.9,181.3 88.2,181.9 87.4,182.4 86.7,181.9     85.9,181.4 86.2,180.5 86.5,179.6 87.4,179.6 88.3,179.6 88.6,180.4   "/>
		<polygon style="fill-rule:evenodd;clip-rule:evenodd;fill:#1A171B;" points="88.6,185.1 87.9,185.7 87.1,186.2 86.4,185.7     85.6,185.2 85.9,184.3 86.2,183.4 87.1,183.4 88,183.4 88.3,184.2   "/>
	</g>
	<g>
		<path style="fill:#1A171B;" d="M248,155.5h-0.9l-0.6-1.8h-2.8l-0.6,1.8h-0.9l2.4-6.5h1.2L248,155.5z M246.2,152.9l-1.1-3.2    l-1.2,3.2H246.2z"/>
		<path style="fill:#1A171B;" d="M253.1,153.1h-3.6c0,0.3,0,0.6,0.1,0.8c0.1,0.2,0.2,0.4,0.4,0.6c0.2,0.1,0.3,0.2,0.5,0.3    c0.2,0.1,0.4,0.1,0.7,0.1c0.3,0,0.7-0.1,1-0.2c0.3-0.1,0.6-0.3,0.7-0.4h0v0.9c-0.3,0.1-0.6,0.2-0.9,0.3s-0.6,0.1-0.9,0.1    c-0.8,0-1.5-0.2-1.9-0.7c-0.5-0.4-0.7-1.1-0.7-1.9c0-0.8,0.2-1.4,0.7-1.9c0.4-0.5,1-0.7,1.7-0.7c0.7,0,1.2,0.2,1.5,0.6    c0.4,0.4,0.5,0.9,0.5,1.6V153.1z M252.3,152.5c0-0.4-0.1-0.8-0.3-1s-0.5-0.4-1-0.4c-0.4,0-0.8,0.1-1.1,0.4s-0.4,0.6-0.4,1H252.3z"/>
		<path style="fill:#1A171B;" d="M257.4,151.5L257.4,151.5c-0.2,0-0.3-0.1-0.4-0.1c-0.1,0-0.3,0-0.4,0c-0.3,0-0.5,0.1-0.7,0.2    c-0.2,0.1-0.5,0.3-0.7,0.4v3.5h-0.8v-4.9h0.8v0.7c0.3-0.3,0.6-0.5,0.9-0.6c0.3-0.1,0.5-0.2,0.8-0.2c0.1,0,0.2,0,0.3,0    c0.1,0,0.2,0,0.3,0V151.5z"/>
		<path style="fill:#1A171B;" d="M262.3,153c0,0.8-0.2,1.4-0.6,1.9s-1,0.7-1.6,0.7c-0.7,0-1.2-0.2-1.7-0.7c-0.4-0.5-0.6-1.1-0.6-1.9    s0.2-1.4,0.6-1.9c0.4-0.5,1-0.7,1.7-0.7c0.7,0,1.2,0.2,1.6,0.7S262.3,152.2,262.3,153z M261.5,153c0-0.6-0.1-1.1-0.4-1.4    c-0.2-0.3-0.6-0.5-1-0.5c-0.4,0-0.8,0.2-1,0.5c-0.2,0.3-0.4,0.8-0.4,1.4c0,0.6,0.1,1.1,0.4,1.4c0.3,0.3,0.6,0.5,1,0.5    c0.4,0,0.8-0.2,1-0.5C261.4,154.1,261.5,153.6,261.5,153z"/>
		<path style="fill:#1A171B;" d="M267.9,153c0,0.4-0.1,0.8-0.2,1.1c-0.1,0.3-0.3,0.6-0.5,0.8c-0.2,0.2-0.4,0.4-0.7,0.5    c-0.3,0.1-0.5,0.2-0.8,0.2c-0.3,0-0.5,0-0.7-0.1s-0.4-0.1-0.6-0.3v2.1h-0.8v-6.7h0.8v0.5c0.2-0.2,0.5-0.3,0.7-0.5s0.6-0.2,0.9-0.2    c0.6,0,1.1,0.2,1.4,0.7C267.8,151.5,267.9,152.2,267.9,153z M267.1,153c0-0.6-0.1-1-0.3-1.3s-0.5-0.4-0.9-0.4    c-0.2,0-0.5,0.1-0.7,0.2s-0.5,0.2-0.7,0.4v2.8c0.2,0.1,0.4,0.2,0.6,0.2c0.2,0,0.4,0.1,0.6,0.1c0.5,0,0.8-0.2,1.1-0.5    S267.1,153.6,267.1,153z"/>
		<path style="fill:#1A171B;" d="M273.3,155.5h-0.8v-0.5c-0.3,0.2-0.5,0.4-0.8,0.5s-0.5,0.2-0.8,0.2c-0.5,0-0.9-0.2-1.2-0.5    c-0.3-0.3-0.4-0.8-0.4-1.4v-3.2h0.8v2.8c0,0.2,0,0.5,0,0.6s0.1,0.3,0.1,0.5c0.1,0.1,0.2,0.2,0.3,0.3s0.3,0.1,0.5,0.1    c0.2,0,0.4-0.1,0.7-0.2s0.5-0.3,0.7-0.4v-3.7h0.8V155.5z"/>
		<path style="fill:#1A171B;" d="M279,153.1h-3.6c0,0.3,0,0.6,0.1,0.8c0.1,0.2,0.2,0.4,0.4,0.6c0.2,0.1,0.3,0.2,0.5,0.3    c0.2,0.1,0.4,0.1,0.7,0.1c0.3,0,0.7-0.1,1-0.2c0.3-0.1,0.6-0.3,0.7-0.4h0v0.9c-0.3,0.1-0.6,0.2-0.9,0.3c-0.3,0.1-0.6,0.1-0.9,0.1    c-0.8,0-1.5-0.2-1.9-0.7c-0.5-0.4-0.7-1.1-0.7-1.9c0-0.8,0.2-1.4,0.7-1.9c0.4-0.5,1-0.7,1.7-0.7c0.7,0,1.2,0.2,1.5,0.6    s0.5,0.9,0.5,1.6V153.1z M278.2,152.5c0-0.4-0.1-0.8-0.3-1c-0.2-0.2-0.5-0.4-1-0.4c-0.4,0-0.8,0.1-1.1,0.4c-0.3,0.3-0.4,0.6-0.4,1    H278.2z"/>
		<path style="fill:#1A171B;" d="M283.4,151.5L283.4,151.5c-0.2,0-0.3-0.1-0.4-0.1c-0.1,0-0.3,0-0.4,0c-0.3,0-0.5,0.1-0.7,0.2    c-0.2,0.1-0.5,0.3-0.7,0.4v3.5h-0.8v-4.9h0.8v0.7c0.3-0.3,0.6-0.5,0.9-0.6c0.3-0.1,0.5-0.2,0.8-0.2c0.1,0,0.2,0,0.3,0    c0.1,0,0.2,0,0.3,0V151.5z"/>
		<path style="fill:#1A171B;" d="M286.7,155.4c-0.2,0-0.3,0.1-0.5,0.1c-0.2,0-0.3,0-0.5,0c-0.5,0-0.9-0.1-1.1-0.4    c-0.3-0.3-0.4-0.7-0.4-1.3v-2.6h-0.6v-0.7h0.6v-1.4h0.8v1.4h1.7v0.7H285v2.2c0,0.3,0,0.5,0,0.6c0,0.1,0.1,0.3,0.1,0.4    c0.1,0.1,0.2,0.2,0.3,0.3c0.1,0.1,0.3,0.1,0.5,0.1c0.1,0,0.3,0,0.4-0.1c0.1,0,0.3-0.1,0.3-0.1h0V155.4z"/>
		<path style="fill:#1A171B;" d="M291.9,153c0,0.8-0.2,1.4-0.6,1.9s-1,0.7-1.6,0.7c-0.7,0-1.2-0.2-1.7-0.7c-0.4-0.5-0.6-1.1-0.6-1.9    s0.2-1.4,0.6-1.9c0.4-0.5,1-0.7,1.7-0.7c0.7,0,1.2,0.2,1.6,0.7S291.9,152.2,291.9,153z M291,153c0-0.6-0.1-1.1-0.4-1.4    c-0.2-0.3-0.6-0.5-1-0.5c-0.4,0-0.8,0.2-1,0.5c-0.2,0.3-0.4,0.8-0.4,1.4c0,0.6,0.1,1.1,0.4,1.4c0.3,0.3,0.6,0.5,1,0.5    c0.4,0,0.8-0.2,1-0.5C290.9,154.1,291,153.6,291,153z"/>
		<path style="fill:#1A171B;" d="M300.3,155.5h-0.8V155c-0.2,0.2-0.5,0.4-0.7,0.5s-0.5,0.2-0.8,0.2c-0.6,0-1.1-0.2-1.4-0.7    s-0.5-1.1-0.5-1.9c0-0.4,0.1-0.8,0.2-1.1s0.3-0.6,0.5-0.8c0.2-0.2,0.4-0.4,0.7-0.5c0.3-0.1,0.5-0.2,0.8-0.2c0.3,0,0.5,0,0.7,0.1    s0.4,0.1,0.6,0.3v-2.1h0.8V155.5z M299.5,154.3v-2.8c-0.2-0.1-0.4-0.2-0.6-0.2s-0.4-0.1-0.6-0.1c-0.5,0-0.8,0.2-1.1,0.5    s-0.4,0.8-0.4,1.4c0,0.6,0.1,1,0.3,1.3c0.2,0.3,0.5,0.5,1,0.5c0.2,0,0.5-0.1,0.7-0.2S299.3,154.4,299.5,154.3z"/>
		<path style="fill:#1A171B;" d="M306,153.1h-3.6c0,0.3,0,0.6,0.1,0.8c0.1,0.2,0.2,0.4,0.4,0.6c0.2,0.1,0.3,0.2,0.5,0.3    c0.2,0.1,0.4,0.1,0.7,0.1c0.3,0,0.7-0.1,1-0.2c0.3-0.1,0.6-0.3,0.7-0.4h0v0.9c-0.3,0.1-0.6,0.2-0.9,0.3c-0.3,0.1-0.6,0.1-0.9,0.1    c-0.8,0-1.5-0.2-1.9-0.7c-0.5-0.4-0.7-1.1-0.7-1.9c0-0.8,0.2-1.4,0.7-1.9c0.4-0.5,1-0.7,1.7-0.7c0.7,0,1.2,0.2,1.5,0.6    s0.5,0.9,0.5,1.6V153.1z M305.2,152.5c0-0.4-0.1-0.8-0.3-1c-0.2-0.2-0.5-0.4-1-0.4c-0.4,0-0.8,0.1-1.1,0.4c-0.3,0.3-0.4,0.6-0.4,1    H305.2z"/>
		<path style="fill:#1A171B;" d="M247.6,162.6c0,0.3-0.1,0.5-0.2,0.8s-0.3,0.5-0.5,0.6c-0.2,0.2-0.5,0.3-0.8,0.4s-0.7,0.2-1.1,0.2    c-0.5,0-0.9,0-1.3-0.1c-0.4-0.1-0.8-0.2-1.1-0.4V163h0.1c0.3,0.3,0.7,0.5,1.1,0.6s0.8,0.2,1.2,0.2c0.5,0,1-0.1,1.3-0.3    c0.3-0.2,0.5-0.5,0.5-0.8c0-0.3-0.1-0.5-0.2-0.6c-0.1-0.1-0.4-0.2-0.6-0.3c-0.2-0.1-0.5-0.1-0.7-0.1c-0.3,0-0.5-0.1-0.8-0.1    c-0.6-0.1-1-0.3-1.3-0.6s-0.4-0.7-0.4-1.2c0-0.5,0.2-1,0.7-1.3c0.5-0.3,1-0.5,1.8-0.5c0.5,0,0.9,0,1.3,0.1s0.7,0.2,1,0.3v1h-0.1    c-0.2-0.2-0.6-0.4-1-0.5c-0.4-0.1-0.8-0.2-1.2-0.2c-0.5,0-0.8,0.1-1.1,0.3c-0.3,0.2-0.4,0.4-0.4,0.7c0,0.3,0.1,0.5,0.2,0.6    s0.4,0.3,0.7,0.4c0.2,0,0.5,0.1,0.8,0.1s0.6,0.1,0.9,0.2c0.5,0.1,0.9,0.3,1.1,0.6S247.6,162.1,247.6,162.6z"/>
		<path style="fill:#1A171B;" d="M253.1,162c0,0.8-0.2,1.4-0.6,1.9s-1,0.7-1.6,0.7c-0.7,0-1.2-0.2-1.7-0.7s-0.6-1.1-0.6-1.9    s0.2-1.4,0.6-1.9s1-0.7,1.7-0.7c0.7,0,1.2,0.2,1.6,0.7S253.1,161.2,253.1,162z M252.3,162c0-0.6-0.1-1.1-0.4-1.4    c-0.2-0.3-0.6-0.5-1-0.5c-0.4,0-0.8,0.2-1,0.5c-0.2,0.3-0.4,0.8-0.4,1.4c0,0.6,0.1,1.1,0.4,1.4c0.2,0.3,0.6,0.5,1,0.5    c0.4,0,0.8-0.2,1-0.5C252.2,163.1,252.3,162.6,252.3,162z"/>
		<path style="fill:#1A171B;" d="M258.5,164.5h-0.8v-2.8c0-0.2,0-0.4,0-0.6c0-0.2-0.1-0.4-0.1-0.5c-0.1-0.1-0.2-0.2-0.3-0.3    c-0.1-0.1-0.3-0.1-0.5-0.1c-0.2,0-0.5,0.1-0.7,0.2s-0.5,0.3-0.7,0.4v3.7h-0.8v-4.9h0.8v0.5c0.3-0.2,0.5-0.4,0.8-0.5    s0.6-0.2,0.8-0.2c0.5,0,0.9,0.2,1.2,0.5c0.3,0.3,0.4,0.8,0.4,1.4V164.5z"/>
		<path style="fill:#1A171B;" d="M268.3,162.5c0,0.3-0.1,0.6-0.2,0.9s-0.3,0.5-0.5,0.6c-0.2,0.2-0.5,0.3-0.8,0.4s-0.7,0.1-1.1,0.1    h-2.3v-6.5h1.9c0.5,0,0.8,0,1.1,0.1s0.5,0.1,0.7,0.2c0.2,0.1,0.4,0.3,0.5,0.5c0.1,0.2,0.2,0.4,0.2,0.7c0,0.3-0.1,0.6-0.2,0.8    c-0.2,0.2-0.4,0.4-0.6,0.5v0c0.4,0.1,0.8,0.3,1,0.6C268.2,161.6,268.3,162,268.3,162.5z M266.8,159.5c0-0.2,0-0.3-0.1-0.4    s-0.1-0.2-0.3-0.3c-0.1-0.1-0.3-0.1-0.5-0.1c-0.2,0-0.4,0-0.7,0h-1v1.9h1.1c0.3,0,0.5,0,0.7,0c0.2,0,0.3-0.1,0.4-0.2    c0.1-0.1,0.2-0.2,0.3-0.3C266.8,159.9,266.8,159.7,266.8,159.5z M267.4,162.5c0-0.3,0-0.5-0.1-0.6c-0.1-0.2-0.2-0.3-0.4-0.4    c-0.1-0.1-0.3-0.1-0.5-0.1c-0.2,0-0.4,0-0.7,0h-1.4v2.4h1.2c0.4,0,0.7,0,0.9-0.1c0.2,0,0.4-0.1,0.6-0.2c0.2-0.1,0.3-0.2,0.4-0.4    S267.4,162.7,267.4,162.5z"/>
		<path style="fill:#1A171B;" d="M273.6,162c0,0.8-0.2,1.4-0.6,1.9s-1,0.7-1.6,0.7c-0.7,0-1.2-0.2-1.7-0.7c-0.4-0.5-0.6-1.1-0.6-1.9    s0.2-1.4,0.6-1.9c0.4-0.5,1-0.7,1.7-0.7c0.7,0,1.2,0.2,1.6,0.7S273.6,161.2,273.6,162z M272.8,162c0-0.6-0.1-1.1-0.4-1.4    c-0.3-0.3-0.6-0.5-1-0.5c-0.4,0-0.8,0.2-1,0.5c-0.2,0.3-0.4,0.8-0.4,1.4c0,0.6,0.1,1.1,0.4,1.4s0.6,0.5,1,0.5c0.4,0,0.8-0.2,1-0.5    C272.7,163.1,272.8,162.6,272.8,162z"/>
		<path style="fill:#1A171B;" d="M279,164.5h-0.8v-2.8c0-0.2,0-0.4,0-0.6c0-0.2-0.1-0.4-0.1-0.5c-0.1-0.1-0.2-0.2-0.3-0.3    c-0.1-0.1-0.3-0.1-0.5-0.1c-0.2,0-0.5,0.1-0.7,0.2s-0.5,0.3-0.7,0.4v3.7h-0.8v-4.9h0.8v0.5c0.3-0.2,0.5-0.4,0.8-0.5    s0.6-0.2,0.8-0.2c0.5,0,0.9,0.2,1.2,0.5s0.4,0.8,0.4,1.4V164.5z"/>
		<path style="fill:#1A171B;" d="M284.7,162.1h-3.6c0,0.3,0,0.6,0.1,0.8c0.1,0.2,0.2,0.4,0.4,0.6c0.2,0.1,0.3,0.2,0.5,0.3    s0.4,0.1,0.7,0.1c0.3,0,0.7-0.1,1-0.2s0.6-0.3,0.7-0.4h0v0.9c-0.3,0.1-0.6,0.2-0.9,0.3s-0.6,0.1-0.9,0.1c-0.8,0-1.5-0.2-1.9-0.7    c-0.5-0.4-0.7-1.1-0.7-1.9c0-0.8,0.2-1.4,0.7-1.9c0.4-0.5,1-0.7,1.7-0.7c0.7,0,1.2,0.2,1.5,0.6c0.4,0.4,0.5,0.9,0.5,1.6V162.1z     M283.9,161.5c0-0.4-0.1-0.8-0.3-1c-0.2-0.2-0.5-0.4-1-0.4c-0.4,0-0.8,0.1-1.1,0.4c-0.3,0.3-0.4,0.6-0.4,1H283.9z"/>
		<path style="fill:#1A171B;" d="M288.5,164.4c-0.2,0-0.3,0.1-0.5,0.1c-0.2,0-0.3,0-0.5,0c-0.5,0-0.9-0.1-1.1-0.4s-0.4-0.7-0.4-1.3    v-2.6h-0.6v-0.7h0.6v-1.4h0.8v1.4h1.7v0.7h-1.7v2.2c0,0.3,0,0.5,0,0.6c0,0.1,0.1,0.3,0.1,0.4c0.1,0.1,0.2,0.2,0.3,0.3    c0.1,0.1,0.3,0.1,0.5,0.1c0.1,0,0.3,0,0.4-0.1c0.1,0,0.3-0.1,0.3-0.1h0V164.4z"/>
	</g>
	<g>
		<path style="fill:#1A171B;" d="M309.4,300.1h-0.9l-0.6-1.8H305l-0.6,1.8h-0.9l2.4-6.5h1.2L309.4,300.1z M307.5,297.6l-1.1-3.2    l-1.2,3.2H307.5z"/>
		<path style="fill:#1A171B;" d="M314.4,297.8h-3.6c0,0.3,0,0.6,0.1,0.8c0.1,0.2,0.2,0.4,0.4,0.6c0.2,0.1,0.3,0.2,0.5,0.3    c0.2,0.1,0.4,0.1,0.7,0.1c0.3,0,0.7-0.1,1-0.2c0.3-0.1,0.6-0.3,0.7-0.4h0v0.9c-0.3,0.1-0.6,0.2-0.9,0.3s-0.6,0.1-0.9,0.1    c-0.8,0-1.5-0.2-1.9-0.7c-0.5-0.4-0.7-1.1-0.7-1.9c0-0.8,0.2-1.4,0.7-1.9c0.4-0.5,1-0.7,1.7-0.7c0.7,0,1.2,0.2,1.5,0.6    c0.4,0.4,0.5,0.9,0.5,1.6V297.8z M313.6,297.1c0-0.4-0.1-0.8-0.3-1c-0.2-0.2-0.5-0.4-1-0.4c-0.4,0-0.8,0.1-1.1,0.4    c-0.3,0.3-0.4,0.6-0.4,1H313.6z"/>
		<path style="fill:#1A171B;" d="M318.7,296.1L318.7,296.1c-0.2,0-0.3,0-0.4-0.1c-0.1,0-0.3,0-0.4,0c-0.3,0-0.5,0.1-0.7,0.2    c-0.2,0.1-0.5,0.3-0.7,0.4v3.5h-0.8v-4.9h0.8v0.7c0.3-0.3,0.6-0.5,0.9-0.6c0.3-0.1,0.5-0.2,0.8-0.2c0.1,0,0.2,0,0.3,0    c0.1,0,0.2,0,0.3,0V296.1z"/>
		<path style="fill:#1A171B;" d="M323.7,297.7c0,0.8-0.2,1.4-0.6,1.9s-1,0.7-1.6,0.7c-0.7,0-1.2-0.2-1.7-0.7    c-0.4-0.5-0.6-1.1-0.6-1.9c0-0.8,0.2-1.4,0.6-1.9c0.4-0.5,1-0.7,1.7-0.7c0.7,0,1.2,0.2,1.6,0.7S323.7,296.9,323.7,297.7z     M322.8,297.7c0-0.6-0.1-1.1-0.4-1.4c-0.2-0.3-0.6-0.5-1-0.5c-0.4,0-0.8,0.2-1,0.5c-0.2,0.3-0.4,0.8-0.4,1.4    c0,0.6,0.1,1.1,0.4,1.4c0.3,0.3,0.6,0.5,1,0.5c0.4,0,0.8-0.2,1-0.5C322.7,298.8,322.8,298.3,322.8,297.7z"/>
		<path style="fill:#1A171B;" d="M329.3,297.6c0,0.4-0.1,0.8-0.2,1.1c-0.1,0.3-0.3,0.6-0.5,0.8c-0.2,0.2-0.4,0.4-0.7,0.5    c-0.3,0.1-0.5,0.2-0.8,0.2c-0.3,0-0.5,0-0.7-0.1s-0.4-0.1-0.6-0.3v2.1H325v-6.7h0.8v0.5c0.2-0.2,0.5-0.3,0.7-0.5s0.6-0.2,0.9-0.2    c0.6,0,1.1,0.2,1.4,0.7C329.1,296.2,329.3,296.8,329.3,297.6z M328.4,297.7c0-0.6-0.1-1-0.3-1.3s-0.5-0.4-0.9-0.4    c-0.2,0-0.5,0.1-0.7,0.2c-0.2,0.1-0.5,0.2-0.7,0.4v2.8c0.2,0.1,0.4,0.2,0.6,0.2c0.2,0,0.4,0.1,0.6,0.1c0.5,0,0.8-0.2,1.1-0.5    S328.4,298.3,328.4,297.7z"/>
		<path style="fill:#1A171B;" d="M334.6,300.1h-0.8v-0.5c-0.3,0.2-0.5,0.4-0.8,0.5s-0.5,0.2-0.8,0.2c-0.5,0-0.9-0.2-1.2-0.5    c-0.3-0.3-0.4-0.8-0.4-1.4v-3.2h0.8v2.8c0,0.2,0,0.5,0,0.6s0.1,0.3,0.1,0.5c0.1,0.1,0.2,0.2,0.3,0.3s0.3,0.1,0.5,0.1    c0.2,0,0.4-0.1,0.7-0.2s0.5-0.3,0.7-0.4v-3.7h0.8V300.1z"/>
		<path style="fill:#1A171B;" d="M340.4,297.8h-3.6c0,0.3,0,0.6,0.1,0.8c0.1,0.2,0.2,0.4,0.4,0.6c0.2,0.1,0.3,0.2,0.5,0.3    c0.2,0.1,0.4,0.1,0.7,0.1c0.3,0,0.7-0.1,1-0.2c0.3-0.1,0.6-0.3,0.7-0.4h0v0.9c-0.3,0.1-0.6,0.2-0.9,0.3c-0.3,0.1-0.6,0.1-0.9,0.1    c-0.8,0-1.5-0.2-1.9-0.7c-0.5-0.4-0.7-1.1-0.7-1.9c0-0.8,0.2-1.4,0.7-1.9c0.4-0.5,1-0.7,1.7-0.7c0.7,0,1.2,0.2,1.5,0.6    s0.5,0.9,0.5,1.6V297.8z M339.6,297.1c0-0.4-0.1-0.8-0.3-1c-0.2-0.2-0.5-0.4-1-0.4c-0.4,0-0.8,0.1-1.1,0.4c-0.3,0.3-0.4,0.6-0.4,1    H339.6z"/>
		<path style="fill:#1A171B;" d="M344.7,296.1L344.7,296.1c-0.2,0-0.3,0-0.4-0.1c-0.1,0-0.3,0-0.4,0c-0.3,0-0.5,0.1-0.7,0.2    c-0.2,0.1-0.5,0.3-0.7,0.4v3.5h-0.8v-4.9h0.8v0.7c0.3-0.3,0.6-0.5,0.9-0.6c0.3-0.1,0.5-0.2,0.8-0.2c0.1,0,0.2,0,0.3,0    c0.1,0,0.2,0,0.3,0V296.1z"/>
		<path style="fill:#1A171B;" d="M348,300.1c-0.2,0-0.3,0.1-0.5,0.1c-0.2,0-0.3,0-0.5,0c-0.5,0-0.9-0.1-1.1-0.4    c-0.3-0.3-0.4-0.7-0.4-1.3v-2.6h-0.6v-0.7h0.6v-1.4h0.8v1.4h1.7v0.7h-1.7v2.2c0,0.3,0,0.5,0,0.6c0,0.1,0.1,0.3,0.1,0.4    c0.1,0.1,0.2,0.2,0.3,0.3c0.1,0.1,0.3,0.1,0.5,0.1c0.1,0,0.3,0,0.4-0.1c0.1,0,0.3-0.1,0.3-0.1h0V300.1z"/>
		<path style="fill:#1A171B;" d="M353.2,297.7c0,0.8-0.2,1.4-0.6,1.9s-1,0.7-1.6,0.7c-0.7,0-1.2-0.2-1.7-0.7    c-0.4-0.5-0.6-1.1-0.6-1.9c0-0.8,0.2-1.4,0.6-1.9c0.4-0.5,1-0.7,1.7-0.7c0.7,0,1.2,0.2,1.6,0.7S353.2,296.9,353.2,297.7z     M352.3,297.7c0-0.6-0.1-1.1-0.4-1.4c-0.2-0.3-0.6-0.5-1-0.5c-0.4,0-0.8,0.2-1,0.5c-0.2,0.3-0.4,0.8-0.4,1.4    c0,0.6,0.1,1.1,0.4,1.4c0.3,0.3,0.6,0.5,1,0.5c0.4,0,0.8-0.2,1-0.5C352.2,298.8,352.3,298.3,352.3,297.7z"/>
		<path style="fill:#1A171B;" d="M361.6,300.1h-0.8v-0.5c-0.2,0.2-0.5,0.4-0.7,0.5c-0.3,0.1-0.5,0.2-0.8,0.2c-0.6,0-1.1-0.2-1.4-0.7    s-0.5-1.1-0.5-1.9c0-0.4,0.1-0.8,0.2-1.1s0.3-0.6,0.5-0.8c0.2-0.2,0.4-0.4,0.7-0.5c0.3-0.1,0.5-0.2,0.8-0.2c0.3,0,0.5,0,0.7,0.1    s0.4,0.1,0.6,0.3v-2.1h0.8V300.1z M360.8,298.9v-2.8c-0.2-0.1-0.4-0.2-0.6-0.2s-0.4-0.1-0.6-0.1c-0.5,0-0.8,0.2-1.1,0.5    s-0.4,0.8-0.4,1.4c0,0.6,0.1,1,0.3,1.3c0.2,0.3,0.5,0.5,1,0.5c0.2,0,0.5-0.1,0.7-0.2S360.6,299.1,360.8,298.9z"/>
		<path style="fill:#1A171B;" d="M367.4,297.8h-3.6c0,0.3,0,0.6,0.1,0.8c0.1,0.2,0.2,0.4,0.4,0.6c0.2,0.1,0.3,0.2,0.5,0.3    c0.2,0.1,0.4,0.1,0.7,0.1c0.3,0,0.7-0.1,1-0.2c0.3-0.1,0.6-0.3,0.7-0.4h0v0.9c-0.3,0.1-0.6,0.2-0.9,0.3c-0.3,0.1-0.6,0.1-0.9,0.1    c-0.8,0-1.5-0.2-1.9-0.7c-0.5-0.4-0.7-1.1-0.7-1.9c0-0.8,0.2-1.4,0.7-1.9c0.4-0.5,1-0.7,1.7-0.7c0.7,0,1.2,0.2,1.5,0.6    s0.5,0.9,0.5,1.6V297.8z M366.6,297.1c0-0.4-0.1-0.8-0.3-1c-0.2-0.2-0.5-0.4-1-0.4c-0.4,0-0.8,0.1-1.1,0.4c-0.3,0.3-0.4,0.6-0.4,1    H366.6z"/>
		<path style="fill:#1A171B;" d="M309,307.3c0,0.3-0.1,0.5-0.2,0.8s-0.3,0.5-0.5,0.6c-0.2,0.2-0.5,0.3-0.8,0.4s-0.7,0.2-1.1,0.2    c-0.5,0-0.9,0-1.3-0.1c-0.4-0.1-0.8-0.2-1.1-0.4v-1.1h0.1c0.3,0.3,0.7,0.5,1.1,0.6s0.8,0.2,1.2,0.2c0.5,0,1-0.1,1.3-0.3    c0.3-0.2,0.5-0.5,0.5-0.8c0-0.3-0.1-0.5-0.2-0.6c-0.1-0.1-0.4-0.2-0.6-0.3c-0.2-0.1-0.5-0.1-0.7-0.1c-0.3,0-0.5-0.1-0.8-0.1    c-0.6-0.1-1-0.3-1.3-0.6s-0.4-0.7-0.4-1.2c0-0.5,0.2-1,0.7-1.3c0.5-0.3,1-0.5,1.8-0.5c0.5,0,0.9,0,1.3,0.1s0.7,0.2,1,0.3v1h-0.1    c-0.2-0.2-0.6-0.4-1-0.5c-0.4-0.1-0.8-0.2-1.2-0.2c-0.5,0-0.8,0.1-1.1,0.3c-0.3,0.2-0.4,0.4-0.4,0.7c0,0.3,0.1,0.5,0.2,0.6    s0.4,0.3,0.7,0.4c0.2,0,0.5,0.1,0.8,0.1s0.6,0.1,0.9,0.2c0.5,0.1,0.9,0.3,1.1,0.6C308.8,306.4,309,306.8,309,307.3z"/>
		<path style="fill:#1A171B;" d="M314.5,306.7c0,0.8-0.2,1.4-0.6,1.9s-1,0.7-1.6,0.7c-0.7,0-1.2-0.2-1.7-0.7s-0.6-1.1-0.6-1.9    c0-0.8,0.2-1.4,0.6-1.9s1-0.7,1.7-0.7c0.7,0,1.2,0.2,1.6,0.7S314.5,305.9,314.5,306.7z M313.6,306.7c0-0.6-0.1-1.1-0.4-1.4    c-0.2-0.3-0.6-0.5-1-0.5c-0.4,0-0.8,0.2-1,0.5c-0.2,0.3-0.4,0.8-0.4,1.4c0,0.6,0.1,1.1,0.4,1.4c0.2,0.3,0.6,0.5,1,0.5    c0.4,0,0.8-0.2,1-0.5C313.5,307.8,313.6,307.3,313.6,306.7z"/>
		<path style="fill:#1A171B;" d="M319.9,309.1H319v-2.8c0-0.2,0-0.4,0-0.6c0-0.2-0.1-0.4-0.1-0.5c-0.1-0.1-0.2-0.2-0.3-0.3    c-0.1-0.1-0.3-0.1-0.5-0.1c-0.2,0-0.5,0.1-0.7,0.2s-0.5,0.3-0.7,0.4v3.7h-0.8v-4.9h0.8v0.5c0.3-0.2,0.5-0.4,0.8-0.5    s0.6-0.2,0.8-0.2c0.5,0,0.9,0.2,1.2,0.5c0.3,0.3,0.4,0.8,0.4,1.4V309.1z"/>
		<path style="fill:#1A171B;" d="M329.4,307.3c0,0.3-0.1,0.5-0.2,0.8c-0.1,0.2-0.3,0.5-0.5,0.6c-0.2,0.2-0.5,0.3-0.8,0.4    c-0.3,0.1-0.7,0.2-1.1,0.2c-0.5,0-0.9,0-1.3-0.1s-0.8-0.2-1.1-0.4v-1.1h0.1c0.3,0.3,0.7,0.5,1.1,0.6s0.8,0.2,1.2,0.2    c0.5,0,1-0.1,1.3-0.3c0.3-0.2,0.4-0.5,0.4-0.8c0-0.3-0.1-0.5-0.2-0.6s-0.4-0.2-0.6-0.3c-0.2-0.1-0.5-0.1-0.7-0.1    c-0.3,0-0.5-0.1-0.8-0.1c-0.6-0.1-1-0.3-1.3-0.6c-0.3-0.3-0.4-0.7-0.4-1.2c0-0.5,0.2-1,0.7-1.3c0.5-0.3,1-0.5,1.8-0.5    c0.5,0,0.9,0,1.3,0.1c0.4,0.1,0.7,0.2,1,0.3v1h-0.1c-0.2-0.2-0.6-0.4-1-0.5c-0.4-0.1-0.8-0.2-1.2-0.2c-0.5,0-0.8,0.1-1.1,0.3    c-0.3,0.2-0.4,0.4-0.4,0.7c0,0.3,0.1,0.5,0.2,0.6s0.4,0.3,0.7,0.4c0.2,0,0.5,0.1,0.8,0.1s0.6,0.1,0.9,0.2c0.5,0.1,0.9,0.3,1.1,0.6    C329.3,306.4,329.4,306.8,329.4,307.3z"/>
		<path style="fill:#1A171B;" d="M334.6,309.1h-0.8v-0.5c-0.1,0-0.2,0.1-0.3,0.2c-0.1,0.1-0.2,0.2-0.4,0.2c-0.1,0.1-0.3,0.1-0.5,0.2    c-0.2,0-0.4,0.1-0.6,0.1c-0.4,0-0.8-0.1-1.1-0.4s-0.5-0.7-0.5-1.1c0-0.4,0.1-0.7,0.2-0.9c0.2-0.2,0.4-0.4,0.7-0.5    c0.3-0.1,0.7-0.2,1.1-0.3s0.9-0.1,1.3-0.1v-0.1c0-0.2,0-0.3-0.1-0.5s-0.2-0.2-0.3-0.3c-0.1-0.1-0.3-0.1-0.4-0.1s-0.3,0-0.5,0    c-0.2,0-0.5,0-0.7,0.1c-0.3,0.1-0.5,0.1-0.8,0.2h0v-0.8c0.2,0,0.4-0.1,0.7-0.1s0.6-0.1,0.9-0.1c0.3,0,0.6,0,0.9,0.1    c0.3,0.1,0.5,0.2,0.7,0.3c0.2,0.1,0.3,0.3,0.4,0.5c0.1,0.2,0.1,0.5,0.1,0.8V309.1z M333.8,307.9v-1.4c-0.3,0-0.5,0-0.9,0.1    s-0.6,0.1-0.8,0.1c-0.2,0.1-0.4,0.2-0.6,0.3c-0.1,0.1-0.2,0.3-0.2,0.6c0,0.3,0.1,0.5,0.3,0.6c0.2,0.1,0.4,0.2,0.8,0.2    c0.3,0,0.6-0.1,0.8-0.2C333.3,308.2,333.6,308.1,333.8,307.9z"/>
		<path style="fill:#1A171B;" d="M340.3,309.1h-0.8v-2.8c0-0.2,0-0.4,0-0.6c0-0.2-0.1-0.4-0.1-0.5c-0.1-0.1-0.2-0.2-0.3-0.3    c-0.1-0.1-0.3-0.1-0.5-0.1c-0.2,0-0.5,0.1-0.7,0.2s-0.5,0.3-0.7,0.4v3.7h-0.8v-4.9h0.8v0.5c0.3-0.2,0.5-0.4,0.8-0.5    s0.6-0.2,0.8-0.2c0.5,0,0.9,0.2,1.2,0.5c0.3,0.3,0.4,0.8,0.4,1.4V309.1z"/>
		<path style="fill:#1A171B;" d="M344.4,309.1c-0.2,0-0.3,0.1-0.5,0.1s-0.3,0-0.5,0c-0.5,0-0.9-0.1-1.1-0.4    c-0.3-0.3-0.4-0.7-0.4-1.3v-2.6h-0.6v-0.7h0.6v-1.4h0.8v1.4h1.7v0.7h-1.7v2.2c0,0.3,0,0.5,0,0.6c0,0.1,0.1,0.3,0.1,0.4    c0.1,0.1,0.2,0.2,0.3,0.3s0.3,0.1,0.5,0.1c0.1,0,0.3,0,0.4-0.1c0.1,0,0.3-0.1,0.3-0.1h0V309.1z"/>
		<path style="fill:#1A171B;" d="M351,307.4c0,0.6-0.2,1-0.5,1.3s-0.8,0.5-1.4,0.5c-0.1,0-0.3,0-0.6,0c-0.2,0-0.4-0.1-0.6-0.1v-0.8    h0c0.1,0,0.3,0.1,0.4,0.1c0.2,0,0.4,0.1,0.5,0.1c0.3,0,0.5,0,0.6-0.1c0.2-0.1,0.3-0.2,0.4-0.3c0.1-0.1,0.1-0.3,0.2-0.4    c0-0.2,0-0.4,0-0.6v-3.8h-1.4v-0.7h2.3V307.4z"/>
		<path style="fill:#1A171B;" d="M356.9,306.7c0,0.8-0.2,1.4-0.6,1.9s-1,0.7-1.6,0.7c-0.7,0-1.2-0.2-1.7-0.7    c-0.4-0.5-0.6-1.1-0.6-1.9c0-0.8,0.2-1.4,0.6-1.9c0.4-0.5,1-0.7,1.7-0.7c0.7,0,1.2,0.2,1.6,0.7S356.9,305.9,356.9,306.7z     M356,306.7c0-0.6-0.1-1.1-0.4-1.4c-0.3-0.3-0.6-0.5-1-0.5c-0.4,0-0.8,0.2-1,0.5c-0.2,0.3-0.4,0.8-0.4,1.4c0,0.6,0.1,1.1,0.4,1.4    s0.6,0.5,1,0.5c0.4,0,0.8-0.2,1-0.5C355.9,307.8,356,307.3,356,306.7z"/>
		<path style="fill:#1A171B;" d="M362,309.1h-0.8v-0.5c-0.1,0-0.2,0.1-0.3,0.2c-0.1,0.1-0.2,0.2-0.4,0.2c-0.1,0.1-0.3,0.1-0.5,0.2    s-0.4,0.1-0.6,0.1c-0.4,0-0.8-0.1-1.1-0.4c-0.3-0.3-0.5-0.7-0.5-1.1c0-0.4,0.1-0.7,0.2-0.9c0.2-0.2,0.4-0.4,0.7-0.5    c0.3-0.1,0.7-0.2,1.1-0.3c0.4,0,0.9-0.1,1.3-0.1v-0.1c0-0.2,0-0.3-0.1-0.5s-0.2-0.2-0.3-0.3c-0.1-0.1-0.3-0.1-0.4-0.1    s-0.3,0-0.5,0c-0.2,0-0.5,0-0.7,0.1c-0.3,0.1-0.5,0.1-0.8,0.2h0v-0.8c0.2,0,0.4-0.1,0.7-0.1s0.6-0.1,0.9-0.1c0.3,0,0.6,0,0.9,0.1    c0.3,0.1,0.5,0.2,0.7,0.3c0.2,0.1,0.3,0.3,0.4,0.5s0.1,0.5,0.1,0.8V309.1z M361.1,307.9v-1.4c-0.3,0-0.5,0-0.9,0.1    c-0.3,0-0.6,0.1-0.8,0.1c-0.2,0.1-0.4,0.2-0.6,0.3c-0.1,0.1-0.2,0.3-0.2,0.6c0,0.3,0.1,0.5,0.3,0.6c0.2,0.1,0.4,0.2,0.8,0.2    c0.3,0,0.6-0.1,0.8-0.2C360.7,308.2,360.9,308.1,361.1,307.9z"/>
		<path style="fill:#1A171B;" d="M367.6,309.1h-0.8v-2.8c0-0.2,0-0.4,0-0.6c0-0.2-0.1-0.4-0.1-0.5c-0.1-0.1-0.2-0.2-0.3-0.3    c-0.1-0.1-0.3-0.1-0.5-0.1c-0.2,0-0.5,0.1-0.7,0.2s-0.5,0.3-0.7,0.4v3.7h-0.8v-4.9h0.8v0.5c0.3-0.2,0.5-0.4,0.8-0.5    s0.6-0.2,0.8-0.2c0.5,0,0.9,0.2,1.2,0.5s0.4,0.8,0.4,1.4V309.1z"/>
	</g>
	<g>
		<path style="fill:#1A171B;" d="M118,243.8h-0.8V237h0.8V243.8z"/>
		<path style="fill:#1A171B;" d="M123.4,243.8h-0.8v-0.5c-0.1,0.1-0.2,0.1-0.3,0.2c-0.1,0.1-0.2,0.2-0.4,0.2    c-0.1,0.1-0.3,0.1-0.5,0.2c-0.2,0-0.4,0.1-0.6,0.1c-0.4,0-0.8-0.1-1.1-0.4s-0.5-0.7-0.5-1.1c0-0.4,0.1-0.7,0.2-0.9    c0.2-0.2,0.4-0.4,0.7-0.5c0.3-0.1,0.7-0.2,1.1-0.3s0.9-0.1,1.3-0.1v-0.1c0-0.2,0-0.3-0.1-0.5c-0.1-0.1-0.2-0.2-0.3-0.3    c-0.1-0.1-0.3-0.1-0.4-0.1s-0.3,0-0.5,0c-0.2,0-0.5,0-0.7,0.1c-0.3,0.1-0.5,0.1-0.8,0.2h0V239c0.2,0,0.4-0.1,0.7-0.1    s0.6-0.1,0.9-0.1c0.3,0,0.6,0,0.9,0.1c0.3,0.1,0.5,0.2,0.7,0.3c0.2,0.1,0.3,0.3,0.4,0.5c0.1,0.2,0.1,0.5,0.1,0.8V243.8z     M122.6,242.6v-1.4c-0.3,0-0.5,0-0.9,0.1s-0.6,0.1-0.8,0.1c-0.2,0.1-0.4,0.2-0.6,0.3c-0.1,0.1-0.2,0.3-0.2,0.6    c0,0.3,0.1,0.5,0.3,0.6s0.4,0.2,0.8,0.2c0.3,0,0.6-0.1,0.8-0.2C122.2,242.9,122.4,242.8,122.6,242.6z"/>
		<path style="fill:#1A171B;" d="M133,241.9c0,0.3-0.1,0.5-0.2,0.8c-0.1,0.2-0.3,0.5-0.5,0.6c-0.2,0.2-0.5,0.3-0.8,0.4    c-0.3,0.1-0.7,0.2-1.1,0.2c-0.5,0-0.9,0-1.3-0.1s-0.8-0.2-1.1-0.4v-1.1h0.1c0.3,0.3,0.7,0.5,1.1,0.6c0.4,0.2,0.8,0.2,1.2,0.2    c0.5,0,1-0.1,1.3-0.3c0.3-0.2,0.5-0.5,0.5-0.8c0-0.3-0.1-0.5-0.2-0.6c-0.1-0.1-0.4-0.2-0.6-0.3c-0.2-0.1-0.5-0.1-0.7-0.1    c-0.3,0-0.5-0.1-0.8-0.1c-0.6-0.1-1-0.3-1.3-0.6c-0.3-0.3-0.4-0.7-0.4-1.2c0-0.5,0.2-1,0.7-1.3s1.1-0.5,1.8-0.5    c0.5,0,0.9,0,1.3,0.1s0.7,0.2,1,0.3v1h-0.1c-0.2-0.2-0.6-0.4-1-0.5c-0.4-0.1-0.8-0.2-1.2-0.2c-0.5,0-0.8,0.1-1.1,0.3    s-0.4,0.4-0.4,0.7c0,0.3,0.1,0.5,0.2,0.6c0.1,0.2,0.4,0.3,0.7,0.4c0.2,0,0.5,0.1,0.8,0.1s0.6,0.1,0.9,0.2c0.5,0.1,0.9,0.3,1.1,0.6    S133,241.5,133,241.9z"/>
		<path style="fill:#1A171B;" d="M138.4,241.4h-3.6c0,0.3,0,0.6,0.1,0.8s0.2,0.4,0.4,0.6c0.2,0.1,0.3,0.2,0.5,0.3    c0.2,0.1,0.4,0.1,0.7,0.1c0.3,0,0.7-0.1,1-0.2c0.3-0.1,0.6-0.3,0.7-0.4h0v0.9c-0.3,0.1-0.6,0.2-0.9,0.3c-0.3,0.1-0.6,0.1-0.9,0.1    c-0.8,0-1.5-0.2-1.9-0.7s-0.7-1.1-0.7-1.9c0-0.8,0.2-1.4,0.7-1.9c0.4-0.5,1-0.7,1.7-0.7c0.7,0,1.2,0.2,1.5,0.6s0.5,0.9,0.5,1.6    V241.4z M137.6,240.8c0-0.4-0.1-0.8-0.3-1c-0.2-0.2-0.5-0.4-1-0.4c-0.4,0-0.8,0.1-1.1,0.4c-0.3,0.3-0.4,0.6-0.4,1H137.6z"/>
		<path style="fill:#1A171B;" d="M143.8,243.8h-0.8v-0.5c-0.3,0.2-0.5,0.4-0.8,0.5s-0.5,0.2-0.8,0.2c-0.5,0-0.9-0.2-1.2-0.5    s-0.4-0.8-0.4-1.4v-3.2h0.8v2.8c0,0.2,0,0.5,0,0.6c0,0.2,0.1,0.3,0.1,0.5c0.1,0.1,0.2,0.2,0.3,0.3s0.3,0.1,0.5,0.1    c0.2,0,0.4-0.1,0.7-0.2s0.5-0.3,0.7-0.4v-3.7h0.8V243.8z"/>
	</g>
	<g>
		<path style="fill:#1A171B;" d="M28.7,258.7c-0.2,0.1-0.3,0.1-0.4,0.2c-0.1,0.1-0.3,0.1-0.5,0.2c-0.2,0.1-0.4,0.1-0.6,0.1    s-0.4,0.1-0.7,0.1c-0.5,0-0.9-0.1-1.3-0.2s-0.7-0.3-1-0.6c-0.3-0.3-0.5-0.6-0.7-1.1s-0.2-0.9-0.2-1.5c0-0.5,0.1-1,0.2-1.4    s0.4-0.8,0.7-1.1c0.3-0.3,0.6-0.5,1-0.7c0.4-0.1,0.8-0.2,1.3-0.2c0.4,0,0.7,0,1.1,0.1c0.3,0.1,0.7,0.2,1.2,0.4v1h-0.1    c-0.4-0.3-0.7-0.5-1.1-0.7s-0.7-0.2-1.1-0.2c-0.3,0-0.6,0.1-0.9,0.2c-0.3,0.1-0.5,0.3-0.7,0.5c-0.2,0.2-0.4,0.5-0.5,0.8    c-0.1,0.3-0.2,0.7-0.2,1.2c0,0.5,0.1,0.9,0.2,1.2c0.1,0.3,0.3,0.6,0.5,0.8c0.2,0.2,0.4,0.4,0.7,0.5c0.3,0.1,0.6,0.2,0.9,0.2    c0.4,0,0.8-0.1,1.2-0.2c0.4-0.1,0.7-0.4,1-0.6h0.1V258.7z"/>
		<path style="fill:#1A171B;" d="M33.7,259.1h-0.8v-0.5c-0.1,0-0.2,0.1-0.3,0.2c-0.1,0.1-0.2,0.2-0.4,0.2c-0.1,0.1-0.3,0.1-0.5,0.2    c-0.2,0-0.4,0.1-0.6,0.1c-0.4,0-0.8-0.1-1.1-0.4s-0.5-0.7-0.5-1.1c0-0.4,0.1-0.7,0.2-0.9c0.2-0.2,0.4-0.4,0.7-0.5    c0.3-0.1,0.7-0.2,1.1-0.3s0.9-0.1,1.3-0.1v-0.1c0-0.2,0-0.3-0.1-0.5c-0.1-0.1-0.2-0.2-0.3-0.3c-0.1-0.1-0.3-0.1-0.4-0.1    s-0.3,0-0.5,0c-0.2,0-0.5,0-0.7,0.1s-0.5,0.1-0.8,0.2h0v-0.8c0.2,0,0.4-0.1,0.7-0.1s0.6-0.1,0.9-0.1c0.3,0,0.6,0,0.9,0.1    c0.3,0.1,0.5,0.2,0.7,0.3c0.2,0.1,0.3,0.3,0.4,0.5c0.1,0.2,0.1,0.5,0.1,0.8V259.1z M32.9,257.9v-1.4c-0.3,0-0.5,0-0.9,0.1    s-0.6,0.1-0.8,0.1c-0.2,0.1-0.4,0.2-0.6,0.3s-0.2,0.3-0.2,0.6c0,0.3,0.1,0.5,0.3,0.6c0.2,0.1,0.4,0.2,0.8,0.2    c0.3,0,0.6-0.1,0.8-0.2S32.7,258.1,32.9,257.9z"/>
		<path style="fill:#1A171B;" d="M38.8,257.7c0,0.4-0.2,0.8-0.6,1.1c-0.4,0.3-0.9,0.4-1.5,0.4c-0.4,0-0.7,0-1-0.1    c-0.3-0.1-0.6-0.2-0.8-0.3v-0.9h0c0.3,0.2,0.6,0.4,0.9,0.5c0.3,0.1,0.6,0.2,0.9,0.2c0.4,0,0.6-0.1,0.9-0.2s0.3-0.3,0.3-0.6    c0-0.2-0.1-0.3-0.2-0.4s-0.3-0.2-0.6-0.3c-0.1,0-0.3-0.1-0.5-0.1c-0.2,0-0.4-0.1-0.5-0.1c-0.4-0.1-0.7-0.3-0.9-0.5    c-0.2-0.2-0.3-0.5-0.3-0.8c0-0.2,0-0.4,0.1-0.6c0.1-0.2,0.2-0.3,0.4-0.5c0.2-0.1,0.4-0.2,0.6-0.3c0.3-0.1,0.5-0.1,0.9-0.1    c0.3,0,0.6,0,0.9,0.1c0.3,0.1,0.5,0.2,0.7,0.3v0.9h0c-0.2-0.2-0.5-0.3-0.8-0.4c-0.3-0.1-0.6-0.2-0.9-0.2c-0.3,0-0.6,0.1-0.8,0.2    c-0.2,0.1-0.3,0.3-0.3,0.5c0,0.2,0.1,0.4,0.2,0.5c0.1,0.1,0.3,0.2,0.6,0.3c0.2,0,0.3,0.1,0.5,0.1c0.2,0,0.3,0.1,0.5,0.1    c0.4,0.1,0.7,0.2,0.9,0.5C38.7,257.1,38.8,257.4,38.8,257.7z"/>
		<path style="fill:#1A171B;" d="M42.5,259.1c-0.2,0-0.3,0.1-0.5,0.1c-0.2,0-0.3,0-0.5,0c-0.5,0-0.9-0.1-1.1-0.4s-0.4-0.7-0.4-1.3    v-2.6h-0.6v-0.7H40v-1.4h0.8v1.4h1.7v0.7h-1.7v2.2c0,0.3,0,0.5,0,0.6c0,0.1,0.1,0.3,0.1,0.4c0.1,0.1,0.2,0.2,0.3,0.3    c0.1,0.1,0.3,0.1,0.5,0.1c0.1,0,0.3,0,0.4-0.1c0.1,0,0.3-0.1,0.3-0.1h0V259.1z"/>
		<path style="fill:#1A171B;" d="M47.6,256.8H44c0,0.3,0,0.6,0.1,0.8c0.1,0.2,0.2,0.4,0.4,0.6c0.2,0.1,0.3,0.2,0.5,0.3    c0.2,0.1,0.4,0.1,0.7,0.1c0.3,0,0.7-0.1,1-0.2c0.3-0.1,0.6-0.3,0.7-0.4h0v0.9c-0.3,0.1-0.6,0.2-0.9,0.3c-0.3,0.1-0.6,0.1-0.9,0.1    c-0.8,0-1.5-0.2-1.9-0.7c-0.5-0.4-0.7-1.1-0.7-1.9c0-0.8,0.2-1.4,0.7-1.9c0.4-0.5,1-0.7,1.7-0.7c0.7,0,1.2,0.2,1.5,0.6    s0.5,0.9,0.5,1.6V256.8z M46.8,256.1c0-0.4-0.1-0.8-0.3-1c-0.2-0.2-0.5-0.4-1-0.4c-0.4,0-0.8,0.1-1.1,0.4c-0.3,0.3-0.4,0.6-0.4,1    H46.8z"/>
		<path style="fill:#1A171B;" d="M49.7,259.1h-0.8v-6.8h0.8V259.1z"/>
		<path style="fill:#1A171B;" d="M52.2,259.1h-0.8v-6.8h0.8V259.1z"/>
		<path style="fill:#1A171B;" d="M12.7,268.1h-0.8v-0.5c-0.2,0.2-0.5,0.4-0.7,0.5s-0.5,0.2-0.8,0.2c-0.6,0-1.1-0.2-1.4-0.7    s-0.5-1.1-0.5-1.9c0-0.4,0.1-0.8,0.2-1.1c0.1-0.3,0.3-0.6,0.5-0.8c0.2-0.2,0.4-0.4,0.7-0.5c0.3-0.1,0.5-0.2,0.8-0.2    c0.3,0,0.5,0,0.7,0.1c0.2,0.1,0.4,0.1,0.6,0.3v-2.1h0.8V268.1z M11.9,266.9v-2.8c-0.2-0.1-0.4-0.2-0.6-0.2c-0.2,0-0.4-0.1-0.6-0.1    c-0.5,0-0.8,0.2-1.1,0.5s-0.4,0.8-0.4,1.4c0,0.6,0.1,1,0.3,1.3c0.2,0.3,0.5,0.5,1,0.5c0.2,0,0.5-0.1,0.7-0.2    C11.5,267.2,11.7,267.1,11.9,266.9z"/>
		<path style="fill:#1A171B;" d="M18.5,265.8h-3.6c0,0.3,0,0.6,0.1,0.8c0.1,0.2,0.2,0.4,0.4,0.6c0.2,0.1,0.3,0.2,0.5,0.3    c0.2,0.1,0.4,0.1,0.7,0.1c0.3,0,0.7-0.1,1-0.2c0.3-0.1,0.6-0.3,0.7-0.4h0v0.9c-0.3,0.1-0.6,0.2-0.9,0.3c-0.3,0.1-0.6,0.1-0.9,0.1    c-0.8,0-1.5-0.2-1.9-0.7c-0.5-0.4-0.7-1.1-0.7-1.9c0-0.8,0.2-1.4,0.7-1.9c0.4-0.5,1-0.7,1.7-0.7c0.7,0,1.2,0.2,1.5,0.6    s0.5,0.9,0.5,1.6V265.8z M17.7,265.1c0-0.4-0.1-0.8-0.3-1c-0.2-0.2-0.5-0.4-1-0.4c-0.4,0-0.8,0.1-1.1,0.4c-0.3,0.3-0.4,0.6-0.4,1    H17.7z"/>
		<path style="fill:#1A171B;" d="M27.9,266.1c0,0.3-0.1,0.6-0.2,0.9s-0.3,0.5-0.5,0.6c-0.2,0.2-0.5,0.3-0.8,0.4    c-0.3,0.1-0.7,0.1-1.1,0.1H23v-6.5h1.9c0.5,0,0.8,0,1.1,0.1s0.5,0.1,0.7,0.2c0.2,0.1,0.4,0.3,0.5,0.5c0.1,0.2,0.2,0.4,0.2,0.7    c0,0.3-0.1,0.6-0.2,0.8s-0.4,0.4-0.6,0.5v0c0.4,0.1,0.8,0.3,1,0.6S27.9,265.7,27.9,266.1z M26.4,263.2c0-0.2,0-0.3-0.1-0.4    s-0.1-0.2-0.3-0.3c-0.1-0.1-0.3-0.1-0.5-0.1c-0.2,0-0.4,0-0.7,0h-1v1.9H25c0.3,0,0.5,0,0.7,0c0.2,0,0.3-0.1,0.4-0.2    s0.2-0.2,0.3-0.3C26.4,263.5,26.4,263.4,26.4,263.2z M27,266.2c0-0.3,0-0.5-0.1-0.6c-0.1-0.2-0.2-0.3-0.4-0.4    c-0.1-0.1-0.3-0.1-0.5-0.1c-0.2,0-0.4,0-0.7,0h-1.4v2.4H25c0.4,0,0.7,0,0.9-0.1s0.4-0.1,0.6-0.2c0.2-0.1,0.3-0.2,0.4-0.4    S27,266.4,27,266.2z"/>
		<path style="fill:#1A171B;" d="M33.2,265.8h-3.6c0,0.3,0,0.6,0.1,0.8c0.1,0.2,0.2,0.4,0.4,0.6c0.2,0.1,0.3,0.2,0.5,0.3    c0.2,0.1,0.4,0.1,0.7,0.1c0.3,0,0.7-0.1,1-0.2c0.3-0.1,0.6-0.3,0.7-0.4h0v0.9c-0.3,0.1-0.6,0.2-0.9,0.3c-0.3,0.1-0.6,0.1-0.9,0.1    c-0.8,0-1.5-0.2-1.9-0.7c-0.5-0.4-0.7-1.1-0.7-1.9c0-0.8,0.2-1.4,0.7-1.9c0.4-0.5,1-0.7,1.7-0.7c0.7,0,1.2,0.2,1.5,0.6    s0.5,0.9,0.5,1.6V265.8z M32.4,265.1c0-0.4-0.1-0.8-0.3-1c-0.2-0.2-0.5-0.4-1-0.4c-0.4,0-0.8,0.1-1.1,0.4c-0.3,0.3-0.4,0.6-0.4,1    H32.4z"/>
		<path style="fill:#1A171B;" d="M35.3,268.1h-0.8v-6.8h0.8V268.1z"/>
		<path style="fill:#1A171B;" d="M37.7,268.1h-0.8v-6.8h0.8V268.1z"/>
		<path style="fill:#1A171B;" d="M43.6,263.2l-2,4.9h-0.8l-2-4.9h0.9l1.5,3.9l1.5-3.9H43.6z"/>
		<path style="fill:#1A171B;" d="M48.7,265.8h-3.6c0,0.3,0,0.6,0.1,0.8c0.1,0.2,0.2,0.4,0.4,0.6c0.2,0.1,0.3,0.2,0.5,0.3    c0.2,0.1,0.4,0.1,0.7,0.1c0.3,0,0.7-0.1,1-0.2c0.3-0.1,0.6-0.3,0.7-0.4h0v0.9c-0.3,0.1-0.6,0.2-0.9,0.3c-0.3,0.1-0.6,0.1-0.9,0.1    c-0.8,0-1.5-0.2-1.9-0.7c-0.5-0.4-0.7-1.1-0.7-1.9c0-0.8,0.2-1.4,0.7-1.9c0.4-0.5,1-0.7,1.7-0.7c0.7,0,1.2,0.2,1.5,0.6    s0.5,0.9,0.5,1.6V265.8z M47.9,265.1c0-0.4-0.1-0.8-0.3-1c-0.2-0.2-0.5-0.4-1-0.4c-0.4,0-0.8,0.1-1.1,0.4c-0.3,0.3-0.4,0.6-0.4,1    H47.9z"/>
		<path style="fill:#1A171B;" d="M53,264.1L53,264.1c-0.2,0-0.3,0-0.4-0.1c-0.1,0-0.3,0-0.4,0c-0.3,0-0.5,0.1-0.7,0.2    c-0.2,0.1-0.5,0.3-0.7,0.4v3.5H50v-4.9h0.8v0.7c0.3-0.3,0.6-0.5,0.9-0.6c0.3-0.1,0.5-0.2,0.8-0.2c0.1,0,0.2,0,0.3,0s0.2,0,0.3,0    V264.1z"/>
	</g>
	<g>
		<path style="fill:#1A171B;" d="M56.8,182.5h-4.3v-6.5h4.3v0.8h-3.4v1.8h3.4v0.8h-3.4v2.4h3.4V182.5z"/>
		<path style="fill:#1A171B;" d="M61.6,181.1c0,0.4-0.2,0.8-0.6,1.1c-0.4,0.3-0.9,0.4-1.5,0.4c-0.4,0-0.7,0-1-0.1    c-0.3-0.1-0.6-0.2-0.8-0.3v-0.9h0c0.3,0.2,0.6,0.4,0.9,0.5s0.6,0.2,0.9,0.2c0.4,0,0.6-0.1,0.9-0.2s0.3-0.3,0.3-0.6    c0-0.2-0.1-0.3-0.2-0.4s-0.3-0.2-0.6-0.3c-0.1,0-0.3-0.1-0.5-0.1c-0.2,0-0.4-0.1-0.5-0.1c-0.4-0.1-0.7-0.3-0.9-0.5    c-0.2-0.2-0.3-0.5-0.3-0.8c0-0.2,0-0.4,0.1-0.6c0.1-0.2,0.2-0.3,0.4-0.5c0.2-0.1,0.4-0.2,0.6-0.3c0.3-0.1,0.5-0.1,0.9-0.1    c0.3,0,0.6,0,0.9,0.1c0.3,0.1,0.5,0.2,0.7,0.3v0.9h0c-0.2-0.2-0.5-0.3-0.8-0.4c-0.3-0.1-0.6-0.2-0.9-0.2c-0.3,0-0.6,0.1-0.8,0.2    s-0.3,0.3-0.3,0.5c0,0.2,0.1,0.4,0.2,0.5c0.1,0.1,0.3,0.2,0.6,0.3c0.2,0,0.3,0.1,0.5,0.1c0.2,0,0.3,0.1,0.5,0.1    c0.4,0.1,0.7,0.2,0.9,0.5C61.5,180.4,61.6,180.7,61.6,181.1z"/>
		<path style="fill:#1A171B;" d="M65.3,182.4c-0.2,0-0.3,0.1-0.5,0.1c-0.2,0-0.3,0-0.5,0c-0.5,0-0.9-0.1-1.1-0.4s-0.4-0.7-0.4-1.3    v-2.6h-0.6v-0.7h0.6v-1.4h0.8v1.4h1.7v0.7h-1.7v2.2c0,0.3,0,0.5,0,0.6c0,0.1,0.1,0.3,0.1,0.4c0.1,0.1,0.2,0.2,0.3,0.3    c0.1,0.1,0.3,0.1,0.5,0.1c0.1,0,0.3,0,0.4-0.1c0.1,0,0.3-0.1,0.3-0.1h0V182.4z"/>
		<path style="fill:#1A171B;" d="M70.1,182.5h-0.8V182c-0.1,0-0.2,0.1-0.3,0.2c-0.1,0.1-0.2,0.2-0.4,0.2c-0.1,0.1-0.3,0.1-0.5,0.2    s-0.4,0.1-0.6,0.1c-0.4,0-0.8-0.1-1.1-0.4s-0.5-0.7-0.5-1.1c0-0.4,0.1-0.7,0.2-0.9c0.2-0.2,0.4-0.4,0.7-0.5    c0.3-0.1,0.7-0.2,1.1-0.3s0.9-0.1,1.3-0.1v-0.1c0-0.2,0-0.3-0.1-0.5c-0.1-0.1-0.2-0.2-0.3-0.3c-0.1-0.1-0.3-0.1-0.4-0.1    s-0.3,0-0.5,0c-0.2,0-0.5,0-0.7,0.1c-0.3,0.1-0.5,0.1-0.8,0.2h0v-0.8c0.2,0,0.4-0.1,0.7-0.1s0.6-0.1,0.9-0.1c0.3,0,0.6,0,0.9,0.1    c0.3,0.1,0.5,0.2,0.7,0.3c0.2,0.1,0.3,0.3,0.4,0.5s0.1,0.5,0.1,0.8V182.5z M69.3,181.3v-1.4c-0.3,0-0.5,0-0.9,0.1    s-0.6,0.1-0.8,0.1c-0.2,0.1-0.4,0.2-0.6,0.3c-0.1,0.1-0.2,0.3-0.2,0.6c0,0.3,0.1,0.5,0.3,0.6c0.2,0.1,0.4,0.2,0.8,0.2    c0.3,0,0.6-0.1,0.8-0.2C68.9,181.6,69.1,181.4,69.3,181.3z"/>
		<path style="fill:#1A171B;" d="M75.7,182.5h-0.8V182c-0.2,0.2-0.5,0.4-0.7,0.5s-0.5,0.2-0.8,0.2c-0.6,0-1.1-0.2-1.4-0.7    s-0.5-1.1-0.5-1.9c0-0.4,0.1-0.8,0.2-1.1c0.1-0.3,0.3-0.6,0.5-0.8c0.2-0.2,0.4-0.4,0.7-0.5c0.3-0.1,0.5-0.2,0.8-0.2    c0.3,0,0.5,0,0.7,0.1s0.4,0.1,0.6,0.3v-2.1h0.8V182.5z M74.9,181.3v-2.8c-0.2-0.1-0.4-0.2-0.6-0.2s-0.4-0.1-0.6-0.1    c-0.5,0-0.8,0.2-1.1,0.5s-0.4,0.8-0.4,1.4c0,0.6,0.1,1,0.3,1.3c0.2,0.3,0.5,0.5,1,0.5c0.2,0,0.5-0.1,0.7-0.2    S74.7,181.4,74.9,181.3z"/>
		<path style="fill:#1A171B;" d="M78.2,176.7h-0.9v-0.9h0.9V176.7z M78.2,182.5h-0.8v-4.9h0.8V182.5z"/>
		<path style="fill:#1A171B;" d="M43.3,189.6c0,0.3-0.1,0.5-0.2,0.8c-0.1,0.2-0.3,0.5-0.5,0.6c-0.2,0.2-0.5,0.3-0.8,0.4    c-0.3,0.1-0.7,0.2-1.1,0.2c-0.5,0-0.9,0-1.3-0.1s-0.8-0.2-1.1-0.4V190h0.1c0.3,0.3,0.7,0.5,1.1,0.6s0.8,0.2,1.2,0.2    c0.5,0,1-0.1,1.3-0.3s0.5-0.5,0.5-0.8c0-0.3-0.1-0.5-0.2-0.6s-0.4-0.2-0.6-0.3c-0.2-0.1-0.5-0.1-0.7-0.1s-0.5-0.1-0.8-0.1    c-0.6-0.1-1-0.3-1.3-0.6c-0.3-0.3-0.4-0.7-0.4-1.2c0-0.5,0.2-1,0.7-1.3c0.5-0.3,1.1-0.5,1.8-0.5c0.5,0,0.9,0,1.3,0.1    s0.7,0.2,1,0.3v1H43c-0.2-0.2-0.6-0.4-1-0.5c-0.4-0.1-0.8-0.2-1.2-0.2c-0.5,0-0.8,0.1-1.1,0.3s-0.4,0.4-0.4,0.7    c0,0.3,0.1,0.5,0.2,0.6s0.4,0.3,0.7,0.4c0.2,0,0.5,0.1,0.8,0.1s0.6,0.1,0.9,0.2c0.5,0.1,0.9,0.3,1.1,0.6S43.3,189.1,43.3,189.6z"/>
		<path style="fill:#1A171B;" d="M48.8,189c0,0.8-0.2,1.4-0.6,1.9s-1,0.7-1.6,0.7c-0.7,0-1.2-0.2-1.7-0.7c-0.4-0.5-0.6-1.1-0.6-1.9    s0.2-1.4,0.6-1.9c0.4-0.5,1-0.7,1.7-0.7c0.7,0,1.2,0.2,1.6,0.7S48.8,188.2,48.8,189z M48,189c0-0.6-0.1-1.1-0.4-1.4    c-0.2-0.3-0.6-0.5-1-0.5c-0.4,0-0.8,0.2-1,0.5c-0.2,0.3-0.4,0.8-0.4,1.4c0,0.6,0.1,1.1,0.4,1.4s0.6,0.5,1,0.5c0.4,0,0.8-0.2,1-0.5    C47.9,190.1,48,189.6,48,189z"/>
		<path style="fill:#1A171B;" d="M54.2,191.5h-0.8v-2.8c0-0.2,0-0.4,0-0.6c0-0.2-0.1-0.4-0.1-0.5c-0.1-0.1-0.2-0.2-0.3-0.3    c-0.1-0.1-0.3-0.1-0.5-0.1c-0.2,0-0.5,0.1-0.7,0.2s-0.5,0.3-0.7,0.4v3.7h-0.8v-4.9h0.8v0.5c0.3-0.2,0.5-0.4,0.8-0.5    s0.6-0.2,0.8-0.2c0.5,0,0.9,0.2,1.2,0.5s0.4,0.8,0.4,1.4V191.5z"/>
		<path style="fill:#1A171B;" d="M64.9,191.5H64v-5.6l-1.8,3.8h-0.5l-1.8-3.8v5.6H59v-6.5h1.2l1.7,3.6l1.7-3.6h1.2V191.5z"/>
		<path style="fill:#1A171B;" d="M70.7,189c0,0.8-0.2,1.4-0.6,1.9s-1,0.7-1.6,0.7c-0.7,0-1.2-0.2-1.7-0.7c-0.4-0.5-0.6-1.1-0.6-1.9    s0.2-1.4,0.6-1.9c0.4-0.5,1-0.7,1.7-0.7c0.7,0,1.2,0.2,1.6,0.7S70.7,188.2,70.7,189z M69.9,189c0-0.6-0.1-1.1-0.4-1.4    c-0.2-0.3-0.6-0.5-1-0.5c-0.4,0-0.8,0.2-1,0.5c-0.2,0.3-0.4,0.8-0.4,1.4c0,0.6,0.1,1.1,0.4,1.4s0.6,0.5,1,0.5c0.4,0,0.8-0.2,1-0.5    C69.8,190.1,69.9,189.6,69.9,189z"/>
		<path style="fill:#1A171B;" d="M72.9,185.7H72v-0.9h0.9V185.7z M72.9,191.5H72v-4.9h0.8V191.5z"/>
		<path style="fill:#1A171B;" d="M78.7,191.5h-1l-1.4-1.9l-1.4,1.9h-1l1.9-2.4l-1.9-2.5h1l1.4,1.9l1.4-1.9h1l-1.9,2.4L78.7,191.5z"/>
	</g>
</g>
<g id="text-EXTERIOR">
	<g>
		<path style="fill:#1A171B;" d="M364.7,27h-2.3l-2-2.7h-0.9V27h-1.9v-7.3h3.1c0.4,0,0.8,0,1.1,0.1c0.3,0,0.6,0.2,0.9,0.3    c0.3,0.2,0.5,0.4,0.7,0.6s0.2,0.6,0.2,1c0,0.5-0.1,1-0.4,1.3s-0.6,0.6-1.1,0.8L364.7,27z M361.8,22c0-0.2,0-0.3-0.1-0.5    c-0.1-0.1-0.2-0.2-0.4-0.3c-0.1-0.1-0.3-0.1-0.4-0.1c-0.2,0-0.4,0-0.6,0h-0.7v2h0.6c0.3,0,0.6,0,0.8,0c0.2,0,0.4-0.1,0.5-0.2    c0.1-0.1,0.2-0.2,0.3-0.3S361.8,22.2,361.8,22z"/>
		<path style="fill:#1A171B;" d="M368.7,26.4c-0.1,0.1-0.2,0.2-0.4,0.3c-0.1,0.1-0.3,0.2-0.4,0.2c-0.2,0.1-0.4,0.1-0.5,0.2    s-0.4,0.1-0.6,0.1c-0.5,0-1-0.2-1.3-0.5s-0.5-0.7-0.5-1.2c0-0.4,0.1-0.7,0.3-1c0.2-0.3,0.4-0.5,0.8-0.6c0.3-0.1,0.7-0.3,1.2-0.3    c0.5-0.1,1-0.1,1.5-0.1v0c0-0.3-0.1-0.5-0.4-0.6c-0.2-0.1-0.6-0.2-1.1-0.2c-0.3,0-0.6,0.1-0.9,0.2c-0.3,0.1-0.6,0.2-0.7,0.2h-0.2    v-1.3c0.2,0,0.5-0.1,0.9-0.2s0.8-0.1,1.3-0.1c1,0,1.7,0.2,2.2,0.5s0.7,0.8,0.7,1.4V27h-1.7V26.4z M368.7,25.6v-1.1    c-0.2,0-0.5,0-0.8,0.1c-0.3,0-0.5,0.1-0.6,0.1c-0.2,0.1-0.3,0.1-0.4,0.2s-0.1,0.2-0.1,0.4c0,0.1,0,0.2,0,0.3    c0,0.1,0.1,0.1,0.1,0.2c0.1,0.1,0.2,0.1,0.3,0.1c0.1,0,0.3,0,0.5,0c0.2,0,0.4,0,0.5-0.1S368.6,25.7,368.7,25.6z"/>
		<path style="fill:#1A171B;" d="M373.9,20.7H372v-1.3h1.9V20.7z M373.8,27h-1.8v-5.5h1.8V27z"/>
		<path style="fill:#1A171B;" d="M380.8,26.4c0,0.5-0.1,0.9-0.2,1.3s-0.4,0.6-0.6,0.8c-0.3,0.2-0.6,0.3-1,0.4s-0.8,0.1-1.3,0.1    c-0.4,0-0.8,0-1.1-0.1s-0.7-0.1-1-0.2v-1.4h0.2c0.2,0.1,0.5,0.2,0.8,0.2s0.6,0.1,0.8,0.1c0.3,0,0.6,0,0.8-0.1s0.4-0.1,0.5-0.3    c0.1-0.1,0.2-0.2,0.2-0.4c0-0.2,0.1-0.4,0.1-0.6v-0.1c-0.2,0.2-0.4,0.3-0.7,0.4c-0.3,0.1-0.5,0.2-0.9,0.2c-0.8,0-1.4-0.2-1.8-0.7    s-0.6-1.2-0.6-2.1c0-0.5,0.1-0.8,0.2-1.2c0.1-0.3,0.3-0.6,0.5-0.9c0.2-0.2,0.5-0.4,0.8-0.5c0.3-0.1,0.6-0.2,1-0.2    c0.3,0,0.6,0,0.8,0.1s0.5,0.2,0.7,0.3l0.1-0.2h1.7V26.4z M379.1,25.3v-2.5c-0.1,0-0.2-0.1-0.4-0.1s-0.3,0-0.4,0    c-0.5,0-0.8,0.1-1,0.4s-0.3,0.6-0.3,1.1c0,0.5,0.1,0.9,0.3,1.1c0.2,0.2,0.5,0.3,0.9,0.3c0.2,0,0.3,0,0.5-0.1    C378.8,25.4,378.9,25.4,379.1,25.3z"/>
		<path style="fill:#1A171B;" d="M388,27h-1.8v-0.6c-0.3,0.2-0.6,0.4-0.9,0.6c-0.3,0.1-0.6,0.2-1,0.2c-0.6,0-1.1-0.2-1.4-0.5    c-0.3-0.3-0.5-0.9-0.5-1.5v-3.6h1.8v2.7c0,0.3,0,0.5,0,0.7s0.1,0.3,0.1,0.5c0.1,0.1,0.2,0.2,0.3,0.3s0.3,0.1,0.5,0.1    c0.2,0,0.3,0,0.5-0.1c0.2-0.1,0.4-0.1,0.5-0.2v-3.9h1.8V27z"/>
		<path style="fill:#1A171B;" d="M395,24.6h-4c0,0.4,0.2,0.8,0.5,1s0.7,0.3,1.3,0.3c0.4,0,0.7-0.1,1.1-0.2c0.3-0.1,0.6-0.3,0.8-0.4    h0.2v1.4c-0.4,0.2-0.8,0.3-1.1,0.3s-0.7,0.1-1.2,0.1c-1.1,0-1.9-0.2-2.5-0.7s-0.9-1.2-0.9-2.1c0-0.9,0.3-1.6,0.8-2.2    s1.3-0.8,2.3-0.8c0.9,0,1.6,0.2,2,0.7s0.7,1.1,0.7,1.9V24.6z M393.3,23.6c0-0.4-0.1-0.6-0.3-0.8c-0.2-0.2-0.4-0.3-0.8-0.3    c-0.3,0-0.6,0.1-0.8,0.3c-0.2,0.2-0.3,0.5-0.4,0.8H393.3z"/>
		<path style="fill:#1A171B;" d="M400.2,23.2h-0.2c-0.1,0-0.2,0-0.4-0.1c-0.2,0-0.3,0-0.4,0c-0.3,0-0.5,0-0.7,0s-0.4,0.1-0.6,0.2V27    h-1.8v-5.5h1.8v0.8c0.4-0.3,0.7-0.6,1-0.7s0.5-0.2,0.8-0.2c0.1,0,0.1,0,0.2,0s0.1,0,0.2,0V23.2z"/>
	</g>
</g>
<g id="llegenda">
	<line style="fill:none;stroke:#9A9A9A;stroke-width:2;stroke-miterlimit:10;" x1="583.2" y1="45.6" x2="583.2" y2="75.1"/>
	<line style="fill:none;stroke:#9A9A9A;stroke-miterlimit:10;" x1="616.6" y1="45.6" x2="616.6" y2="75.1"/>
	<g>
		<path d="M591,56h0.9v7.1H591V56z"/>
		<path d="M594.3,56.9c0,0.3-0.2,0.5-0.6,0.5c-0.3,0-0.5-0.2-0.5-0.5s0.2-0.5,0.5-0.5C594.1,56.3,594.3,56.6,594.3,56.9z     M593.3,63.1v-4.8h0.9v4.8H593.3z"/>
		<path d="M595.7,59.6c0-0.5,0-0.9,0-1.3h0.8l0,0.8h0c0.2-0.4,0.8-0.9,1.6-0.9c0.7,0,1.7,0.4,1.7,2.1v2.9h-0.9v-2.8    c0-0.8-0.3-1.4-1.1-1.4c-0.6,0-1,0.4-1.2,0.9c0,0.1-0.1,0.3-0.1,0.4v2.9h-0.9V59.6z"/>
	</g>
	<line style="fill:none;stroke:#696969;stroke-width:2;stroke-miterlimit:10;" x1="583.2" y1="85.2" x2="583.2" y2="114.7"/>
	<g>
		<path d="M591,95.6h0.9v7.1H591V95.6z"/>
		<path d="M594.3,96.5c0,0.3-0.2,0.5-0.6,0.5c-0.3,0-0.5-0.2-0.5-0.5s0.2-0.5,0.5-0.5C594.1,95.9,594.3,96.2,594.3,96.5z     M593.3,102.7v-4.8h0.9v4.8H593.3z"/>
		<path d="M595.7,99.1c0-0.5,0-0.9,0-1.3h0.8l0,0.8h0c0.2-0.4,0.8-0.9,1.6-0.9c0.7,0,1.7,0.4,1.7,2.1v2.9h-0.9v-2.8    c0-0.8-0.3-1.4-1.1-1.4c-0.6,0-1,0.4-1.2,0.9c0,0.1-0.1,0.3-0.1,0.4v2.9h-0.9V99.1z"/>
	</g>
	<rect x="577.9" y="21" style="fill:#BFBFBF;" width="16.3" height="15.3"/>
	<rect x="577.9" y="-6.7" style="fill:#DCE9FB;" width="16.3" height="15.3"/>
	<rect x="546.5" y="-6.7" style="fill:#D0E0A4;" width="16.3" height="15.3"/>
	<g>
		<path d="M603.4,30.3v-4.2h-0.7v-0.7h0.7v-0.2c0-0.7,0.2-1.3,0.6-1.7c0.3-0.3,0.8-0.4,1.2-0.4c0.3,0,0.6,0.1,0.7,0.1l-0.1,0.7    c-0.1-0.1-0.3-0.1-0.6-0.1c-0.7,0-0.9,0.6-0.9,1.4v0.3h1.2v0.7h-1.2v4.2H603.4z"/>
		<path d="M610.5,27.9c0,1.8-1.3,2.6-2.4,2.6c-1.3,0-2.3-1-2.3-2.5c0-1.6,1.1-2.6,2.4-2.6C609.5,25.4,610.5,26.4,610.5,27.9z     M606.7,27.9c0,1.1,0.6,1.9,1.5,1.9c0.8,0,1.5-0.8,1.5-1.9c0-0.8-0.4-1.8-1.4-1.8C607.1,26.1,606.7,27,606.7,27.9z"/>
		<path d="M611.6,26.8c0-0.5,0-0.9,0-1.3h0.8l0,0.8h0c0.2-0.4,0.8-0.9,1.6-0.9c0.7,0,1.7,0.4,1.7,2.1v2.9h-0.9v-2.8    c0-0.8-0.3-1.4-1.1-1.4c-0.6,0-1,0.4-1.2,0.9c0,0.1-0.1,0.3-0.1,0.4v2.9h-0.9V26.8z"/>
		<path d="M617,29.5c0.3,0.2,0.7,0.3,1.2,0.3c0.6,0,0.9-0.3,0.9-0.7c0-0.4-0.3-0.6-0.9-0.9c-0.9-0.3-1.3-0.8-1.3-1.4    c0-0.8,0.6-1.4,1.7-1.4c0.5,0,0.9,0.1,1.2,0.3l-0.2,0.6c-0.2-0.1-0.5-0.3-1-0.3c-0.5,0-0.8,0.3-0.8,0.7c0,0.4,0.3,0.6,0.9,0.8    c0.8,0.3,1.3,0.7,1.3,1.4c0,0.9-0.7,1.5-1.8,1.5c-0.5,0-1-0.1-1.4-0.3L617,29.5z"/>
	</g>
	<g>
		<path d="M603.3-0.5c0-0.5,0-0.9,0-1.3h0.8l0,0.8h0c0.3-0.5,0.7-0.9,1.5-0.9c0.7,0,1.2,0.4,1.4,1h0c0.1-0.3,0.4-0.5,0.5-0.6    c0.3-0.2,0.6-0.3,1.1-0.3c0.6,0,1.6,0.4,1.6,2.1V3h-0.9V0.3c0-0.9-0.3-1.5-1-1.5c-0.5,0-0.9,0.4-1,0.8c0,0.1-0.1,0.3-0.1,0.4v3    h-0.9V0.1c0-0.8-0.3-1.3-1-1.3c-0.5,0-1,0.4-1.1,0.9c-0.1,0.1-0.1,0.3-0.1,0.4V3h-0.9V-0.5z"/>
		<path d="M615.1,1.8c0,0.4,0,0.8,0.1,1.2h-0.8l-0.1-0.6h0c-0.3,0.4-0.8,0.7-1.5,0.7c-1,0-1.5-0.7-1.5-1.4c0-1.2,1-1.8,2.9-1.8v-0.1    c0-0.4-0.1-1.1-1.1-1.1c-0.5,0-0.9,0.1-1.3,0.4l-0.2-0.6c0.4-0.3,1-0.4,1.6-0.4c1.5,0,1.8,1,1.8,2V1.8z M614.2,0.5    c-1,0-2,0.1-2,1.1c0,0.6,0.4,0.8,0.8,0.8c0.6,0,1-0.4,1.2-0.8c0-0.1,0-0.2,0-0.3V0.5z"/>
		<path d="M616.5-0.3c0-0.6,0-1.1,0-1.5h0.8l0,1h0c0.2-0.6,0.8-1.1,1.3-1.1c0.1,0,0.2,0,0.2,0v0.8c-0.1,0-0.2,0-0.3,0    c-0.6,0-1.1,0.5-1.2,1.1c0,0.1,0,0.3,0,0.4V3h-0.9V-0.3z"/>
	</g>
	<circle style="fill-rule:evenodd;clip-rule:evenodd;fill:#5B7EBD;" cx="583.2" cy="129.8" r="2.4"/>
	<rect x="502.4" y="21" style="fill:#BFBFBF;stroke:#696969;stroke-width:2;stroke-miterlimit:10;" width="16.3" height="15.3"/>
	<rect x="528.6" y="21" style="fill:#FFFBF0;stroke:#9A9A9A;stroke-width:2;stroke-miterlimit:10;" width="16.3" height="15.3"/>
	<rect x="519.4" y="57.6" style="opacity:0.6;fill:#FFFBF0;" width="51" height="11.5"/>
</g>
</svg>