<svg xmlns="http://www.w3.org/2000/svg" xmlns:xlink="http://www.w3.org/1999/xlink" version="1.1" x="0px" y="0px" width="450px" height="450px" viewBox="0 0 450 450" style="enable-background:new 0 0 450 450;" xml:space="preserve"> <g id="exterior"> 	<a> 		<path style="fill-rule:evenodd;clip-rule:evenodd;fill:#BFBFBF;stroke:#696969;stroke-width:2;stroke-miterlimit:10;" d="    M-26,328.4c0,0.7,28,12.9,43.2-29.2c10.6,3.5,39.6,14.7,50.1,1.9c14.6-18,11.3,7.5,41.6,8.4c4.9,0.1,16.6,0.8,19.1,7.8    c1.4,3.9,1.5,29.3-7.2,38c-5.5,5.5-3.5,13.3,0.4,17.7c1.1,1.2,5.7,3.8,7,4.3c14,5.5,10.3,0.2,15.1,3c3.1,2,12.1,8.4,11.3,17.2    c-0.9,9.2-8.7,47.6-9.3,61c-1.3,30.3-39.4,17.5-62.5,18.3c-38.2,1.3-76.5,2.7-114.7,4c1.2-31.2,2.5-62.5,3.7-93.7    c0.6-15.6,1.2-31.2,1.8-46.9C-26.1,331.8-22.1,325.7-26,328.4L-26,328.4z"/> 	</a> 	<a> 		<path style="fill-rule:evenodd;clip-rule:evenodd;fill:#BFBFBF;stroke:#696969;stroke-width:2;stroke-miterlimit:10;" d="    M471.3,470.7c-26.4,0.7-52.9,1.3-79.3,2c5.1-9.9,17.8-42.6,10.6-71.4c9.2-3.9,7.9-10.3,21.4-4.6c20.8,8.7,40.4,10.5,60,11.4    c-2.8,13.9-5.6,27.9-8.4,41.8c-3,14.8,0.2,20.8-15.8,21.2C463.6,470.9,467.5,470.8,471.3,470.7    C444.9,471.3,471.3,470.7,471.3,470.7z"/> 	</a> 	<a> 		<path style="fill-rule:evenodd;clip-rule:evenodd;fill:#BFBFBF;stroke:#696969;stroke-width:2;stroke-miterlimit:10;" d="    M141.3,476.7c1.9-18.4,14.2-77.8,13.3-82.9c-1.1-6.1-12.6-14-11.4-15c0.7-0.5,16.4-6.4,24.7-30.3c1.4-4.2,6.5-8.1,9.2-11.3    c7.2-8.6,23.3,9.2,43.6,20c10.4,5.5,38.2,33.3,52.2,22.1c4.6-3.7-8.5-13.1-4.9-19.5c6-10.5,28.4-11.4,28.4-11.4    c16.3,1.1,40.7,8.4,55.6,14.6c9,3.8,17.9,7.8,26.9,11.7c16.7,7.1,2.9,7.7,8.2,19.5c2,4.4,10.8,9.4,15.3,8.6    c3.8-0.7,4.2,68.8-15.6,71c-16.5,1.8-34.2,1.3-50.5,0.6c-32.8-1.5-66.2,0.8-99,1.2c-16,0.2-32,0.4-47.9,0.6    c-9.7,0.1-48.4,5-47.4-4.4C141.7,472.8,140.9,475.5,141.3,476.7C142.4,466.9,141.3,476.7,141.3,476.7z"/> 	</a> 	<a> 		<path style="fill-rule:evenodd;clip-rule:evenodd;fill:#BFBFBF;stroke:#696969;stroke-width:2;stroke-miterlimit:10;" d="    M344.3-18.4c0.4,3.9,0.9,7.8,1.6,11.6"/> 	</a> 	<a> 		<path style="fill-rule:evenodd;clip-rule:evenodd;fill:#BFBFBF;stroke:#696969;stroke-width:2;stroke-miterlimit:10;" d="M79-19    c-0.5,3.1-1,6.3-1.4,9.5"/> 	</a> 	<a> 		<path style="fill-rule:evenodd;clip-rule:evenodd;fill:#BFBFBF;stroke:#696969;stroke-width:2;stroke-miterlimit:10;" d="    M331.5-5.8c-1.9,10.3-3.5,9.3-5.6,11c-1.5,1.1-3.5,4.9-5.1,8C314,27,305.2,30.3,297.5,32.5s-14.3,3.4-14.2,6.4    c0.3,6.8,10.1,5.8,15.2,5.3c1.6-0.1,2.5,1.6,3.1,2.3c2.8,3.2-1.9,12,1.3,15.2c-10.4,2.4-21,2.1-31.5,4.5c-3.3,0.8-6.6,1.2-9.8,2.8    c-1.8,0.9-3,2.4-4.7,3.7c-5.2,3.7-18.9-2.4-31.9-2.9c-7.4-0.3-13.2-5.4-21-5.3c-3.5,0.1-7.3,1.6-16,3.7c-2.1,0.5-9.5,4.4-15.7,9.3    c-2.8,2.2-5.7,7.8-8,9.8c-3.3,2.8-5.8,1.6-7.5,1.1c8.9-10.4-12.8-16.4-19.1-19.1c-3-1.3-6-1-7-3.7C128.4,60,131,49,130,41    c-0.6-5.2-3.4-8-7.6-11.1c-10-7.5-23.6-5.4-30.8-17.4C87.4,5.4,86.3-2.7,86.2-11l-8.6,1.5c-1.2,10.3-1.1,20.6,4.6,28.8l-2.8,3.1    c-22.3-8.6-13.2-43.4-12.8-61c8.9,1.6,14.9-1.2,14.3,9.1c0.1-1.8,0.8-4.7,0.3-6.5c-0.8,15.4,0,0,0,0C81.1-30.8,80-25,79-19    l7.4,0.5c0.4-7.3,1.1-14.7,0.9-21.5c40.9,1.6,81.8,3.1,122.7,4.7c20.4,0.8,40.9,1.6,61.3,2.3c10.7,0.4,61.6-1.9,61,7.2    c0.1-1.2,0.8-3.7,0.3-4.9c-0.7,10.8,0,0,0,0c-0.3,4.3,0,8.6,0,12.9l11.6-0.6c-0.4-3.9-0.7-7.6-0.9-11c0,0,1.2,15.6,0,0    c0.2,2.8,0.4,5.6,0.7,8.5c-0.2-2.8-0.4-5.6-0.7-8.5c40-1,80.1-3.3,120.1-3.7c18.8-0.2,14,30.9,15.9,45    c-15.7,0.4-30.5,5.2-46.2,6.2c-9.8,0.6-14.7-17.7-25-16.8c-9.7,0.8-14.2,20.1-16,23.8c-3.6-2.8-9.2-10.2-22.5-13.3    c-3.9-0.9-8.1-0.8-13.7-0.9c-5.5-0.2-8.4-8.1-10.2-17.7L331.5-5.8z"/> 	</a> 	<a> 		<path style="fill-rule:evenodd;clip-rule:evenodd;fill:#BFBFBF;stroke:#696969;stroke-width:2;stroke-miterlimit:10;" d="    M331.5-5.8c0.3-1.4,0.5-2.8,0.8-4.5c0.4-2.5,0.5-5,0.5-7.5"/> 	</a> 	<a> 		<path style="fill-rule:evenodd;clip-rule:evenodd;fill:#BFBFBF;stroke:#696969;stroke-width:2;stroke-miterlimit:10;" d="M86.2-11    c0-2.5,0.1-5,0.2-7.5"/> 	</a> 	<a> 		<path style="fill-rule:evenodd;clip-rule:evenodd;fill:#BFBFBF;stroke:#696969;stroke-width:2;stroke-miterlimit:10;" d="M484,408    c-21.1-1-42.4-3.7-62.2-11.7c-13.2-5.3-17.4,12.3-30.2,3.7c-7.4-4.9-8.2-14.7-4.3-22.1c-10.5-4.1-20.6-8.9-31-13.1    c-20.2-8.1-39.7-13.2-61.1-16c8.4-10.2,8.2-14.1,3.3-18.3c-1.9-1.7,17.2-7.2,21.8-20.2c0,0,30.2,3,27.5-10.3    c6.3,2.1,21.5-8.4,27-13.6c-11.3-3.6-17.6-16.5-26.9-23c7.8-3.8,21.6-10.9,26.8-15.3c8.6-7.1,24-31.5,24-31.5    c-13.4-1.4-7-20.3,7.7-10.6c0,0,18.6-5.1,22.3-10.4c10.2-14.8-4-19.5-3.4-19.8c10.8-5,38.4-2.3,51.2-2.7    c21.5-0.6,12.8,27.3,12.4,42.9C487.3,279.9,485.6,344,484,408c-4.1-0.2-8.2-0.4-12.3-0.6C475.8,407.6,479.9,407.8,484,408    C462.6,407,484,408,484,408z"/> 	</a> 	<a> 		<path style="fill-rule:evenodd;clip-rule:evenodd;fill:#BFBFBF;stroke:#696969;stroke-width:2;stroke-miterlimit:10;" d="    M-24.7-24.7c30.4-4.7,60.9-9.3,91.3-14c-0.4,17.6-9.5,52.4,12.8,61l2.8-3.1C74.9,8.7,70.6-38.9,88-42.7c0.4,19-8.8,49.6,11.7,61.9    c12.2,7.4,20.3,4.2,28.8,17.8c4.4,7-4.1,31.4,7.6,31.8c-6-1.4-7.7-0.8-8.1,2.5c-0.6,4.7,2.5,13.7,6.3,19.5    c1.3,2.1,3.6,2.3,4.6,3.8c-2.2,1.3-2.4,1.9-4.6,0.7c-1.4-0.7-3.7-1.1-7.1-5.3c-9.4,2.3-16.6,4.7-9.7,15.2    c11.1,17,10.3,18.1-4.6,34.6c-5.4,6-34.4,40.8-37.3,18.7c-5.3,2.6-18.2,16-26.2,27.1c-4.9,6.8-7.3,13.6-7.3,13.6l10,23.6    c-5.2-2.1-11.1-1.9-14.2,0.8c-5.5,4.6-6.3,14.8-6.3,21.7c0.1,13.9,4.1,12.7-6.3,26.5c-7.2,9.6-6.5,25.7-11.5,36.9    c-3.3,7.1-21.9,28.9-31.6,19.7c-4.7-4.5-3.2-21.6-3.6-27.3c-1.3-22.7-1.8-45.4-2.2-68.1c-1-54.3-1.1-108.6-1.1-162.8    c0-21.7,0-43.3,0.1-65c0-17.9-5.8-28.8,13.4-31.7C-15.7-26-20.2-25.4-24.7-24.7C5.8-29.3-24.7-24.7-24.7-24.7z"/> 	</a> 	<a> 		<path style="fill-rule:evenodd;clip-rule:evenodd;fill:#BFBFBF;stroke:#696969;stroke-width:2;stroke-miterlimit:10;" d="    M491.3,174.7c-22.5-0.4-42.4,0.3-64.9,0.5c-9.8,0.1-18.3,4.4-28.8-2.5c-6.1-4-10-6-19.4-12.8c-3.9-5.5,2.8-5.8-0.8-10.8    c-3.6-5-8.8-0.6-14.8-3.1c-9.1-3.8-14.2-25-26.8-16.3c-23.6,16.2-44.4-26.9-67.9,0.2c-5.8-10.2,3.4-21.9,6-31.9    c1.3-4.9-9.4-29.7-9.4-29.7c3.3-3,30.1-4.7,38.5-6.7c-4.9-4.7,1.6-9.4-1-14.4c-3.3-6.3-15.2,1.4-18.6-8.4c-2.8-8,27.4-1.1,36.2-25    c1.3-3.5,4.1-8,7.9-9.6c6.2-2.5,4.2-28.7,4.5-37c19.5,8.2,6.5,29.4,19.7,41.8c6,5.6,17.1-5.7,40.6,16c2.5-8.5,10.7-35.1,25.1-19.2    c6.9,7.7,9.8,13,19.9,11.9c17.1-1.9,34.2-6.3,51.4-7.2c0.4,27.3,0.9,54.7,1.3,82c0.3,15.6,0.5,31.2,0.8,46.9    c0.2,9.9,6.1,35.2-5.5,35C486.8,174.6,489.9,175.3,491.3,174.7C477,174.4,491.3,174.7,491.3,174.7z"/> 	</a> </g> <g id="municipis"> 	<a> 		<path style="fill:#FFFBF0;stroke:#9A9A9A;stroke-width:2;stroke-miterlimit:10;" d="M298.7,329.1c-1.5,0.3-19.9-9.8-26-14.9    c-9.8-8.3-40.9-32.7-22-48.8c0,0,0.4-13.8-18.9-12.7c-14.4,0.8-11.3-27-10.6-35.6c0.4-5.3,1.8-21-2.7-38.9    c-2.4-9.5-6.3-14.4-15.3-12.7c-6.4,1.2-11-8.7-11.6-15.9l16.6,0.4c2.8-17.6-8.5-18.7-17.1-30.5c-5.9-8.1-6.4-17.7-9.6-27    c-1.7-4.8-9.2-0.8-17.4-3.9c8.2-15.8,35.4-30.6,52.6-21.6c8.9,4.7,18.9,2.8,28.1,5.8c13.5,4.5,10.2-3.7,21.1-4.6    c2,10.8,10.7,21.3,6.7,32.7c-3.6,10.2-10.9,17.9-4.6,29c24.3-28.1,48.1,17.6,67.5-0.1c9.1-8.3,21.1,8.9,25.9,14.6    c7.2,8.6,19.7-7.9,16.5,12.8c-0.6,4.1,20.6,15.7,26.5,18c7.4,2.8,21.5-4,26.8,3.5c10,14-13.9,24.5-23.2,26.9    c-5.5,1.4-8.3-5.5-13,0.3c-3.9,4.8-4.2,10.9,3.9,10.6c-2.5,8.9-15.3,20.6-21,28.4c-8.3,11.3-16.7,11.9-29.8,18.4    c9.3,6.5,15.8,19.5,26.9,23c-5.4,5.2-20.7,15.7-27,13.6c2.7,13.3-28,11.3-27.5,10.3C319.7,318.1,303.1,328.4,298.7,329.1z"/> 	</a> 	<a> 		<path style="fill:#FFFBF0;stroke:#9A9A9A;stroke-width:2;stroke-miterlimit:10;" d="M136.1,68.8c6.6,2.4,30.2,8.4,20.6,19.6    c17.9,1.1,26-4.9,29.9,17.8c3.2,19.2,25.2,20.7,21.5,43.8l-16.6-0.4c0.2,6.2,5.2,15.7,11.6,15.7c6.3,0,9.1-0.8,12.6,6.1    c6.5,12.4,7.5,25.9,6.1,39.3c-1.2,11.4-4.4,28.9,3.6,38.6c4.4,5.3,12.7,1.3,18,4.1c5.9,3.1,7.1,12,7.1,12    c-29.6,22.7,51.3,64.8,51.7,67.7c2.5,18.8-22.6,17.6-32.3,23.7c-11.5,7.2,21.1,25.8-7.2,25.2c-10.2-3.5-8.4-3-22.5-10    c-7.4-3.7-51.5-38.9-57.4-37c-16.1,5.2-17.5,32.2-32.2,41c-21.2,12.7-45-9.8-26.6-25.1c3.1-14.8,7.5-31.1,0.9-36.8    c-6.8-5.9-26-1.9-36.9-10.5c-10.4-8.2-10.2-13.5-22.3-1.8c-11.5,11.2-34.5,2-48.6-2.8c1.2-8.9,1.5-18.3,8.3-27.7    c5.1-7.2,8.1-8.4,6.6-18.1c-2-12.6-0.6-38.9,20-30.7l-10-23.6c-2.5-4,24.2-36.1,33.5-40.7c2.9,22.5,30.2-11.3,35.6-16.7    c10.1-10.1,17.6-18.8,10.2-29.9c-10.5-15.8-8.4-18.3,5.9-21.9c0,0,10,9.7,11.7,4.6c-8.9-4.4-9.8-17.7-12.9-25.8    c4.9-1.1,9.4-0.7,13.8,1.3C138.5,69.6,137.3,69.2,136.1,68.8C142.6,71.1,136.1,68.8,136.1,68.8z"/> 	</a> </g> <g id="bl"> 	<rect x="159.2" y="329.1" style="opacity:0.6;fill:#FFFBF0;" width="51" height="17.5"/> </g> <g id="textos"> 	<g> 		<path d="M195,32.7H193l-0.5-1.5h-2.7l-0.5,1.5h-1.9l2.7-7.3h2.2L195,32.7z M192.1,29.9l-0.9-2.6l-0.9,2.6H192.1z"/> 		<path d="M200.7,30.9c0,0.6-0.3,1-0.8,1.4s-1.2,0.5-2.1,0.5c-0.5,0-0.9,0-1.3-0.1s-0.7-0.2-1-0.3v-1.4h0.2c0.1,0.1,0.2,0.1,0.3,0.2    c0.1,0.1,0.3,0.2,0.5,0.2c0.2,0.1,0.4,0.1,0.6,0.2s0.5,0.1,0.7,0.1c0.3,0,0.6,0,0.8-0.1s0.2-0.2,0.2-0.3c0-0.1,0-0.2-0.1-0.3    s-0.3-0.1-0.6-0.2c-0.1,0-0.3-0.1-0.5-0.1c-0.2,0-0.4-0.1-0.6-0.1c-0.5-0.1-0.9-0.3-1.1-0.6s-0.4-0.6-0.4-1c0-0.5,0.3-1,0.7-1.3    c0.5-0.4,1.2-0.5,2-0.5c0.4,0,0.8,0,1.2,0.1c0.4,0.1,0.7,0.2,0.9,0.3v1.4h-0.2c-0.3-0.2-0.6-0.3-0.9-0.4c-0.3-0.1-0.7-0.2-1-0.2    c-0.3,0-0.5,0-0.7,0.1c-0.2,0.1-0.3,0.2-0.3,0.3c0,0.1,0,0.2,0.1,0.3s0.3,0.1,0.6,0.2c0.2,0,0.4,0.1,0.6,0.1    c0.2,0,0.4,0.1,0.6,0.1c0.5,0.1,0.8,0.3,1,0.6S200.7,30.5,200.7,30.9z"/> 		<path d="M205.4,32.6c-0.2,0-0.4,0.1-0.6,0.1c-0.2,0-0.5,0-0.8,0c-0.7,0-1.2-0.1-1.5-0.4c-0.3-0.3-0.5-0.8-0.5-1.4v-2.6h-0.7v-1.2    h0.7v-1.6h1.8v1.6h1.6v1.2h-1.6v1.9c0,0.2,0,0.4,0,0.5c0,0.1,0,0.3,0.1,0.4c0,0.1,0.1,0.2,0.2,0.3c0.1,0.1,0.3,0.1,0.5,0.1    c0.1,0,0.2,0,0.4-0.1s0.3-0.1,0.3-0.1h0.1V32.6z"/> 		<path d="M211.9,32.7h-1.8v-0.6c-0.3,0.2-0.6,0.4-0.9,0.6s-0.6,0.2-1,0.2c-0.6,0-1.1-0.2-1.4-0.5c-0.3-0.3-0.5-0.9-0.5-1.5v-3.6    h1.8v2.7c0,0.3,0,0.5,0,0.7c0,0.2,0.1,0.3,0.1,0.5c0.1,0.1,0.2,0.2,0.3,0.3c0.1,0.1,0.3,0.1,0.5,0.1c0.1,0,0.3,0,0.5-0.1    s0.4-0.1,0.5-0.2v-3.9h1.8V32.7z"/> 		<path d="M217.5,28.9h-0.2c-0.1,0-0.2,0-0.4-0.1s-0.3,0-0.4,0c-0.3,0-0.5,0-0.7,0c-0.2,0-0.4,0.1-0.6,0.2v3.7h-1.8v-5.5h1.8V28    c0.4-0.3,0.7-0.6,1-0.7c0.3-0.1,0.5-0.2,0.8-0.2c0.1,0,0.1,0,0.2,0c0.1,0,0.1,0,0.2,0V28.9z"/> 		<path d="M220.3,26.4h-1.9v-1.3h1.9V26.4z M220.3,32.7h-1.8v-5.5h1.8V32.7z"/> 		<path d="M225.2,32.1c-0.1,0.1-0.2,0.2-0.4,0.3s-0.3,0.2-0.4,0.2c-0.2,0.1-0.4,0.1-0.5,0.2s-0.4,0.1-0.6,0.1c-0.5,0-1-0.2-1.3-0.5    s-0.5-0.7-0.5-1.2c0-0.4,0.1-0.7,0.3-1s0.4-0.5,0.8-0.6c0.3-0.1,0.7-0.3,1.2-0.3s1-0.1,1.5-0.1v0c0-0.3-0.1-0.5-0.4-0.6    s-0.6-0.2-1.1-0.2c-0.3,0-0.6,0.1-0.9,0.2s-0.6,0.2-0.7,0.2H222v-1.3c0.2,0,0.5-0.1,0.9-0.2c0.4-0.1,0.8-0.1,1.3-0.1    c1,0,1.7,0.2,2.2,0.5c0.4,0.3,0.7,0.8,0.7,1.4v3.7h-1.7V32.1z M225.2,31.2v-1.1c-0.2,0-0.5,0-0.8,0.1c-0.3,0-0.5,0.1-0.6,0.1    c-0.2,0.1-0.3,0.1-0.4,0.2c-0.1,0.1-0.1,0.2-0.1,0.4c0,0.1,0,0.2,0,0.3c0,0.1,0.1,0.1,0.1,0.2c0.1,0.1,0.2,0.1,0.3,0.1    s0.3,0,0.5,0c0.2,0,0.4,0,0.5-0.1C225,31.4,225.1,31.4,225.2,31.2z"/> 		<path d="M233.4,30.9c0,0.6-0.3,1-0.8,1.4s-1.2,0.5-2.1,0.5c-0.5,0-0.9,0-1.3-0.1c-0.4-0.1-0.7-0.2-1-0.3v-1.4h0.2    c0.1,0.1,0.2,0.1,0.3,0.2c0.1,0.1,0.3,0.2,0.5,0.2c0.2,0.1,0.4,0.1,0.6,0.2c0.2,0.1,0.5,0.1,0.7,0.1c0.3,0,0.6,0,0.8-0.1    s0.2-0.2,0.2-0.3c0-0.1,0-0.2-0.1-0.3s-0.3-0.1-0.6-0.2c-0.1,0-0.3-0.1-0.5-0.1s-0.4-0.1-0.6-0.1c-0.5-0.1-0.9-0.3-1.1-0.6    c-0.2-0.3-0.4-0.6-0.4-1c0-0.5,0.3-1,0.8-1.3s1.2-0.5,2-0.5c0.4,0,0.8,0,1.2,0.1c0.4,0.1,0.7,0.2,0.9,0.3v1.4H233    c-0.3-0.2-0.6-0.3-0.9-0.4s-0.7-0.2-1-0.2c-0.3,0-0.5,0-0.7,0.1s-0.3,0.2-0.3,0.3c0,0.1,0,0.2,0.1,0.3s0.3,0.1,0.6,0.2    c0.2,0,0.4,0.1,0.6,0.1c0.2,0,0.4,0.1,0.6,0.1c0.5,0.1,0.8,0.3,1,0.6C233.3,30.2,233.4,30.5,233.4,30.9z"/> 	</g> 	<g> 		<path d="M38.8,90h-5.2v-7.3h1.9v5.9h3.4V90z"/> 		<path d="M45.3,90h-1.8v-0.6c-0.3,0.2-0.6,0.4-0.9,0.6s-0.6,0.2-1,0.2c-0.6,0-1.1-0.2-1.4-0.5c-0.3-0.3-0.5-0.9-0.5-1.5v-3.6h1.8    v2.7c0,0.3,0,0.5,0,0.7c0,0.2,0.1,0.3,0.1,0.5c0.1,0.1,0.2,0.2,0.3,0.3c0.1,0.1,0.3,0.1,0.5,0.1c0.1,0,0.3,0,0.5-0.1    s0.4-0.1,0.5-0.2v-3.9h1.8V90z"/> 		<path d="M52.3,89.4c0,0.5-0.1,0.9-0.2,1.3s-0.4,0.6-0.6,0.8c-0.3,0.2-0.6,0.3-1,0.4c-0.4,0.1-0.8,0.1-1.3,0.1    c-0.4,0-0.8,0-1.1-0.1c-0.4,0-0.7-0.1-1-0.2v-1.4h0.2c0.2,0.1,0.5,0.2,0.8,0.2c0.3,0.1,0.6,0.1,0.8,0.1c0.3,0,0.6,0,0.8-0.1    s0.4-0.1,0.5-0.3c0.1-0.1,0.2-0.2,0.2-0.4c0-0.2,0.1-0.4,0.1-0.6v-0.1c-0.2,0.2-0.4,0.3-0.7,0.4s-0.5,0.2-0.9,0.2    c-0.8,0-1.4-0.2-1.8-0.7s-0.6-1.2-0.6-2.1c0-0.5,0.1-0.8,0.2-1.2s0.3-0.6,0.5-0.9c0.2-0.2,0.5-0.4,0.8-0.5c0.3-0.1,0.6-0.2,1-0.2    c0.3,0,0.6,0,0.8,0.1s0.5,0.2,0.7,0.3l0.1-0.2h1.7V89.4z M50.6,88.3v-2.5c-0.1,0-0.2-0.1-0.4-0.1c-0.1,0-0.3,0-0.4,0    c-0.5,0-0.8,0.1-1,0.4s-0.3,0.6-0.3,1.1c0,0.5,0.1,0.9,0.3,1.1s0.5,0.3,0.9,0.3c0.2,0,0.3,0,0.5-0.1S50.4,88.4,50.6,88.3z"/> 		<path d="M59.6,87.3c0,0.9-0.3,1.6-0.8,2.1c-0.5,0.5-1.3,0.8-2.2,0.8s-1.7-0.3-2.2-0.8c-0.5-0.5-0.8-1.2-0.8-2.1    c0-0.9,0.3-1.6,0.8-2.1c0.5-0.5,1.3-0.8,2.2-0.8c1,0,1.7,0.3,2.2,0.8C59.3,85.6,59.6,86.4,59.6,87.3z M57.4,88.6    c0.1-0.1,0.2-0.3,0.3-0.5c0.1-0.2,0.1-0.5,0.1-0.8c0-0.3,0-0.6-0.1-0.8s-0.1-0.4-0.2-0.5c-0.1-0.1-0.2-0.2-0.4-0.3    s-0.3-0.1-0.5-0.1s-0.3,0-0.5,0.1c-0.1,0-0.3,0.1-0.4,0.3c-0.1,0.1-0.2,0.3-0.3,0.5c-0.1,0.2-0.1,0.5-0.1,0.8c0,0.3,0,0.6,0.1,0.8    s0.1,0.4,0.2,0.5c0.1,0.1,0.2,0.2,0.4,0.3c0.1,0.1,0.3,0.1,0.5,0.1c0.2,0,0.3,0,0.5-0.1C57.2,88.8,57.3,88.7,57.4,88.6z"/> 	</g> 	<g> 		<path d="M42,397.7c0,1.2-0.3,2.1-1,2.8c-0.7,0.7-1.6,1-2.8,1c-1.2,0-2.1-0.3-2.7-1c-0.7-0.7-1-1.6-1-2.8c0-1.2,0.3-2.1,1-2.8    c0.7-0.7,1.6-1,2.7-1c1.2,0,2.1,0.3,2.7,1C41.7,395.6,42,396.5,42,397.7z M39.5,399.5c0.2-0.2,0.3-0.5,0.4-0.8    c0.1-0.3,0.1-0.7,0.1-1.1c0-0.4-0.1-0.8-0.2-1.1s-0.2-0.6-0.4-0.7c-0.2-0.2-0.4-0.3-0.6-0.4c-0.2-0.1-0.4-0.1-0.7-0.1    c-0.2,0-0.5,0-0.7,0.1c-0.2,0.1-0.4,0.2-0.6,0.4c-0.2,0.2-0.3,0.4-0.4,0.8c-0.1,0.3-0.2,0.7-0.2,1.1c0,0.4,0,0.8,0.1,1.1    c0.1,0.3,0.2,0.6,0.4,0.7s0.4,0.3,0.6,0.4s0.4,0.1,0.7,0.1s0.5,0,0.7-0.1C39.2,399.9,39.3,399.7,39.5,399.5z"/> 		<path d="M48.8,401.3H47v-0.6c-0.3,0.2-0.6,0.4-0.9,0.6c-0.3,0.1-0.6,0.2-1,0.2c-0.6,0-1.1-0.2-1.4-0.5c-0.3-0.3-0.5-0.9-0.5-1.5    v-3.6H45v2.7c0,0.3,0,0.5,0,0.7c0,0.2,0.1,0.3,0.1,0.5c0.1,0.1,0.2,0.2,0.3,0.3c0.1,0.1,0.3,0.1,0.5,0.1c0.1,0,0.3,0,0.5-0.1    s0.4-0.1,0.5-0.2v-3.9h1.8V401.3z"/> 		<path d="M54.4,397.5h-0.2c-0.1,0-0.2,0-0.4-0.1s-0.3,0-0.4,0c-0.3,0-0.5,0-0.7,0c-0.2,0-0.4,0.1-0.6,0.2v3.7h-1.8v-5.5h1.8v0.8    c0.4-0.3,0.7-0.6,1-0.7c0.3-0.1,0.5-0.2,0.8-0.2c0.1,0,0.1,0,0.2,0c0.1,0,0.1,0,0.2,0V397.5z"/> 		<path d="M60.8,398.9h-4c0,0.4,0.2,0.8,0.5,1c0.3,0.2,0.7,0.3,1.3,0.3c0.4,0,0.7-0.1,1.1-0.2s0.6-0.3,0.8-0.4h0.2v1.4    c-0.4,0.2-0.8,0.3-1.1,0.3s-0.7,0.1-1.2,0.1c-1.1,0-1.9-0.2-2.5-0.7s-0.9-1.2-0.9-2.1c0-0.9,0.3-1.6,0.8-2.2    c0.6-0.5,1.3-0.8,2.3-0.8c0.9,0,1.6,0.2,2,0.7c0.4,0.5,0.7,1.1,0.7,1.9V398.9z M59.1,397.9c0-0.4-0.1-0.6-0.3-0.8    s-0.4-0.3-0.8-0.3c-0.3,0-0.6,0.1-0.8,0.3s-0.3,0.5-0.4,0.8H59.1z"/> 		<path d="M67.6,401.3h-1.8v-2.7c0-0.2,0-0.4,0-0.7c0-0.2-0.1-0.4-0.1-0.5c-0.1-0.1-0.2-0.2-0.3-0.3c-0.1-0.1-0.3-0.1-0.5-0.1    c-0.2,0-0.3,0-0.5,0.1c-0.2,0.1-0.3,0.1-0.5,0.2v3.9h-1.8v-5.5h1.8v0.6c0.3-0.2,0.6-0.4,0.9-0.6c0.3-0.1,0.6-0.2,1-0.2    c0.6,0,1.1,0.2,1.4,0.5s0.5,0.9,0.5,1.5V401.3z"/> 		<path d="M74,399.6c0,0.6-0.3,1-0.8,1.4c-0.5,0.3-1.2,0.5-2.1,0.5c-0.5,0-0.9,0-1.3-0.1s-0.7-0.2-1-0.3v-1.4H69    c0.1,0.1,0.2,0.1,0.3,0.2c0.1,0.1,0.3,0.2,0.5,0.2c0.2,0.1,0.4,0.1,0.6,0.2c0.2,0.1,0.5,0.1,0.7,0.1c0.3,0,0.6,0,0.8-0.1    c0.2-0.1,0.2-0.2,0.2-0.3c0-0.1,0-0.2-0.1-0.3c-0.1-0.1-0.3-0.1-0.6-0.2c-0.1,0-0.3-0.1-0.5-0.1c-0.2,0-0.4-0.1-0.6-0.1    c-0.5-0.1-0.9-0.3-1.1-0.6c-0.2-0.3-0.4-0.6-0.4-1c0-0.5,0.3-1,0.8-1.3c0.5-0.3,1.2-0.5,2-0.5c0.4,0,0.8,0,1.2,0.1    c0.4,0.1,0.7,0.2,0.9,0.3v1.4h-0.2c-0.3-0.2-0.6-0.3-0.9-0.4c-0.3-0.1-0.7-0.2-1-0.2c-0.3,0-0.5,0-0.7,0.1    c-0.2,0.1-0.3,0.2-0.3,0.3c0,0.1,0,0.2,0.1,0.3s0.3,0.1,0.6,0.2c0.2,0,0.4,0.1,0.6,0.1c0.2,0,0.4,0.1,0.6,0.1    c0.5,0.1,0.8,0.3,1,0.6C73.8,398.9,74,399.2,74,399.6z"/> 		<path d="M80.5,398.9h-4c0,0.4,0.2,0.8,0.5,1c0.3,0.2,0.7,0.3,1.3,0.3c0.4,0,0.7-0.1,1.1-0.2s0.6-0.3,0.8-0.4h0.2v1.4    c-0.4,0.2-0.8,0.3-1.1,0.3s-0.7,0.1-1.2,0.1c-1.1,0-1.9-0.2-2.5-0.7s-0.9-1.2-0.9-2.1c0-0.9,0.3-1.6,0.8-2.2    c0.6-0.5,1.3-0.8,2.3-0.8c0.9,0,1.6,0.2,2,0.7c0.4,0.5,0.7,1.1,0.7,1.9V398.9z M78.8,397.9c0-0.4-0.1-0.6-0.3-0.8    s-0.4-0.3-0.8-0.3c-0.3,0-0.6,0.1-0.8,0.3s-0.3,0.5-0.4,0.8H78.8z"/> 	</g> 	<g> 		<path d="M253.5,424h-5.2v-7.3h1.9v5.9h3.4V424z"/> 		<path d="M257.9,423.4c-0.1,0.1-0.2,0.2-0.4,0.3c-0.1,0.1-0.3,0.2-0.4,0.2c-0.2,0.1-0.4,0.1-0.5,0.2c-0.2,0-0.4,0.1-0.6,0.1    c-0.5,0-1-0.2-1.3-0.5s-0.5-0.7-0.5-1.2c0-0.4,0.1-0.7,0.3-1c0.2-0.3,0.4-0.5,0.8-0.6c0.3-0.1,0.7-0.3,1.2-0.3    c0.5-0.1,1-0.1,1.5-0.1v0c0-0.3-0.1-0.5-0.4-0.6c-0.2-0.1-0.6-0.2-1.1-0.2c-0.3,0-0.6,0.1-0.9,0.2c-0.3,0.1-0.6,0.2-0.7,0.2h-0.2    v-1.3c0.2,0,0.5-0.1,0.9-0.2c0.4-0.1,0.8-0.1,1.3-0.1c1,0,1.7,0.2,2.2,0.5c0.4,0.3,0.7,0.8,0.7,1.4v3.7h-1.7V423.4z M257.9,422.6    v-1.1c-0.2,0-0.5,0-0.8,0.1c-0.3,0-0.5,0.1-0.6,0.1c-0.2,0.1-0.3,0.1-0.4,0.2c-0.1,0.1-0.1,0.2-0.1,0.4c0,0.1,0,0.2,0,0.3    c0,0.1,0.1,0.1,0.1,0.2c0.1,0.1,0.2,0.1,0.3,0.1c0.1,0,0.3,0,0.5,0c0.2,0,0.4,0,0.5-0.1C257.6,422.8,257.7,422.7,257.9,422.6z"/> 		<path d="M268,424.1c-0.5,0-1-0.1-1.5-0.2c-0.5-0.2-0.8-0.4-1.2-0.7c-0.3-0.3-0.6-0.7-0.8-1.2c-0.2-0.5-0.3-1-0.3-1.6    c0-0.6,0.1-1.1,0.3-1.6c0.2-0.5,0.4-0.9,0.8-1.2c0.3-0.3,0.7-0.6,1.2-0.7c0.5-0.2,1-0.3,1.5-0.3c0.3,0,0.6,0,0.8,0.1    c0.2,0,0.5,0.1,0.7,0.1c0.2,0.1,0.4,0.1,0.6,0.2c0.2,0.1,0.3,0.1,0.5,0.2v1.8h-0.2c-0.1-0.1-0.2-0.2-0.3-0.3    c-0.1-0.1-0.3-0.2-0.5-0.3c-0.2-0.1-0.4-0.2-0.6-0.3c-0.2-0.1-0.4-0.1-0.7-0.1c-0.3,0-0.5,0-0.8,0.1c-0.2,0.1-0.5,0.2-0.7,0.4    c-0.2,0.2-0.3,0.4-0.5,0.7c-0.1,0.3-0.2,0.7-0.2,1.1c0,0.5,0.1,0.8,0.2,1.1c0.1,0.3,0.3,0.5,0.5,0.7c0.2,0.2,0.4,0.3,0.7,0.4    s0.5,0.1,0.7,0.1c0.2,0,0.5,0,0.7-0.1c0.2-0.1,0.4-0.2,0.6-0.3c0.2-0.1,0.3-0.2,0.4-0.3c0.1-0.1,0.2-0.2,0.3-0.3h0.2v1.7    c-0.2,0.1-0.4,0.2-0.5,0.2s-0.3,0.1-0.5,0.2c-0.2,0.1-0.5,0.1-0.7,0.2C268.7,424.1,268.4,424.1,268,424.1z"/> 		<path d="M275.2,423.4c-0.1,0.1-0.2,0.2-0.4,0.3c-0.1,0.1-0.3,0.2-0.4,0.2c-0.2,0.1-0.4,0.1-0.5,0.2c-0.2,0-0.4,0.1-0.6,0.1    c-0.5,0-1-0.2-1.3-0.5s-0.5-0.7-0.5-1.2c0-0.4,0.1-0.7,0.3-1c0.2-0.3,0.4-0.5,0.8-0.6c0.3-0.1,0.7-0.3,1.2-0.3    c0.5-0.1,1-0.1,1.5-0.1v0c0-0.3-0.1-0.5-0.4-0.6c-0.2-0.1-0.6-0.2-1.1-0.2c-0.3,0-0.6,0.1-0.9,0.2c-0.3,0.1-0.6,0.2-0.7,0.2h-0.2    v-1.3c0.2,0,0.5-0.1,0.9-0.2c0.4-0.1,0.8-0.1,1.3-0.1c1,0,1.7,0.2,2.2,0.5c0.4,0.3,0.7,0.8,0.7,1.4v3.7h-1.7V423.4z M275.2,422.6    v-1.1c-0.2,0-0.5,0-0.8,0.1c-0.3,0-0.5,0.1-0.6,0.1c-0.2,0.1-0.3,0.1-0.4,0.2c-0.1,0.1-0.1,0.2-0.1,0.4c0,0.1,0,0.2,0,0.3    c0,0.1,0.1,0.1,0.1,0.2c0.1,0.1,0.2,0.1,0.3,0.1c0.1,0,0.3,0,0.5,0c0.2,0,0.4,0,0.5-0.1C274.9,422.8,275.1,422.7,275.2,422.6z"/> 		<path d="M284.3,421.2c0,0.9-0.2,1.6-0.7,2.1c-0.5,0.5-1.1,0.8-1.8,0.8c-0.3,0-0.6,0-0.8-0.1s-0.5-0.2-0.7-0.3l-0.1,0.3h-1.7v-7.6    h1.8v2.7c0.3-0.2,0.5-0.4,0.8-0.5s0.6-0.2,1-0.2c0.7,0,1.2,0.3,1.6,0.8C284.1,419.6,284.3,420.3,284.3,421.2z M282.5,421.2    c0-0.5-0.1-0.9-0.2-1.1c-0.2-0.3-0.5-0.4-0.9-0.4c-0.2,0-0.3,0-0.5,0.1c-0.2,0.1-0.3,0.1-0.5,0.2v2.8c0.1,0,0.2,0.1,0.4,0.1    c0.1,0,0.3,0,0.4,0c0.5,0,0.8-0.1,1-0.4C282.3,422.2,282.5,421.8,282.5,421.2z"/> 		<path d="M289.5,420.2h-0.2c-0.1,0-0.2,0-0.4-0.1s-0.3,0-0.4,0c-0.3,0-0.5,0-0.7,0c-0.2,0-0.4,0.1-0.6,0.2v3.7h-1.8v-5.5h1.8v0.8    c0.4-0.3,0.7-0.6,1-0.7c0.3-0.1,0.5-0.2,0.8-0.2c0.1,0,0.1,0,0.2,0c0.1,0,0.1,0,0.2,0V420.2z"/> 		<path d="M295.9,421.6h-4c0,0.4,0.2,0.8,0.5,1c0.3,0.2,0.7,0.3,1.3,0.3c0.4,0,0.7-0.1,1.1-0.2c0.3-0.1,0.6-0.3,0.8-0.4h0.2v1.4    c-0.4,0.2-0.8,0.3-1.1,0.3s-0.7,0.1-1.2,0.1c-1.1,0-1.9-0.2-2.5-0.7s-0.9-1.2-0.9-2.1c0-0.9,0.3-1.6,0.8-2.2    c0.6-0.5,1.3-0.8,2.3-0.8c0.9,0,1.6,0.2,2,0.7c0.4,0.5,0.7,1.1,0.7,1.9V421.6z M294.2,420.6c0-0.4-0.1-0.6-0.3-0.8    c-0.2-0.2-0.4-0.3-0.8-0.3c-0.3,0-0.6,0.1-0.8,0.3c-0.2,0.2-0.3,0.5-0.4,0.8H294.2z"/> 		<path d="M301.1,420.2H301c-0.1,0-0.2,0-0.4-0.1s-0.3,0-0.4,0c-0.3,0-0.5,0-0.7,0c-0.2,0-0.4,0.1-0.6,0.2v3.7h-1.8v-5.5h1.8v0.8    c0.4-0.3,0.7-0.6,1-0.7c0.3-0.1,0.5-0.2,0.8-0.2c0.1,0,0.1,0,0.2,0c0.1,0,0.1,0,0.2,0V420.2z"/> 		<path d="M305.4,423.4c-0.1,0.1-0.2,0.2-0.4,0.3c-0.1,0.1-0.3,0.2-0.4,0.2c-0.2,0.1-0.4,0.1-0.5,0.2c-0.2,0-0.4,0.1-0.6,0.1    c-0.5,0-1-0.2-1.3-0.5s-0.5-0.7-0.5-1.2c0-0.4,0.1-0.7,0.3-1c0.2-0.3,0.4-0.5,0.8-0.6c0.3-0.1,0.7-0.3,1.2-0.3    c0.5-0.1,1-0.1,1.5-0.1v0c0-0.3-0.1-0.5-0.4-0.6c-0.2-0.1-0.6-0.2-1.1-0.2c-0.3,0-0.6,0.1-0.9,0.2c-0.3,0.1-0.6,0.2-0.7,0.2h-0.2    v-1.3c0.2,0,0.5-0.1,0.9-0.2c0.4-0.1,0.8-0.1,1.3-0.1c1,0,1.7,0.2,2.2,0.5c0.4,0.3,0.7,0.8,0.7,1.4v3.7h-1.7V423.4z M305.4,422.6    v-1.1c-0.2,0-0.5,0-0.8,0.1c-0.3,0-0.5,0.1-0.6,0.1c-0.2,0.1-0.3,0.1-0.4,0.2c-0.1,0.1-0.1,0.2-0.1,0.4c0,0.1,0,0.2,0,0.3    c0,0.1,0.1,0.1,0.1,0.2c0.1,0.1,0.2,0.1,0.3,0.1c0.1,0,0.3,0,0.5,0c0.2,0,0.4,0,0.5-0.1C305.1,422.8,305.3,422.7,305.4,422.6z"/> 	</g> 	<g> 		<path d="M348.8,339.4c-0.1,0.1-0.2,0.2-0.4,0.3c-0.1,0.1-0.3,0.2-0.4,0.2c-0.2,0.1-0.4,0.1-0.5,0.2c-0.2,0-0.4,0.1-0.6,0.1    c-0.5,0-1-0.2-1.3-0.5s-0.5-0.7-0.5-1.2c0-0.4,0.1-0.7,0.3-1c0.2-0.3,0.4-0.5,0.8-0.6c0.3-0.1,0.7-0.3,1.2-0.3    c0.5-0.1,1-0.1,1.5-0.1v0c0-0.3-0.1-0.5-0.4-0.6c-0.2-0.1-0.6-0.2-1.1-0.2c-0.3,0-0.6,0.1-0.9,0.2c-0.3,0.1-0.6,0.2-0.7,0.2h-0.2    v-1.3c0.2,0,0.5-0.1,0.9-0.2c0.4-0.1,0.8-0.1,1.3-0.1c1,0,1.7,0.2,2.2,0.5c0.4,0.3,0.7,0.8,0.7,1.4v3.7h-1.7V339.4z M349.8,331.8    L349.8,331.8l-1.7,1.9h-1.2l1.2-1.9H349.8z M348.8,338.6v-1.1c-0.2,0-0.5,0-0.8,0.1c-0.3,0-0.5,0.1-0.6,0.1    c-0.2,0.1-0.3,0.1-0.4,0.2c-0.1,0.1-0.1,0.2-0.1,0.4c0,0.1,0,0.2,0,0.3c0,0.1,0.1,0.1,0.1,0.2c0.1,0.1,0.2,0.1,0.3,0.1    c0.1,0,0.3,0,0.5,0c0.2,0,0.4,0,0.5-0.1C348.5,338.8,348.7,338.7,348.8,338.6z"/> 		<path d="M356.2,336.2H356c-0.1,0-0.2,0-0.4-0.1s-0.3,0-0.4,0c-0.3,0-0.5,0-0.7,0c-0.2,0-0.4,0.1-0.6,0.2v3.7h-1.8v-5.5h1.8v0.8    c0.4-0.3,0.7-0.6,1-0.7c0.3-0.1,0.5-0.2,0.8-0.2c0.1,0,0.1,0,0.2,0c0.1,0,0.1,0,0.2,0V336.2z"/> 		<path d="M362.5,337.6h-4c0,0.4,0.2,0.8,0.5,1c0.3,0.2,0.7,0.3,1.3,0.3c0.4,0,0.7-0.1,1.1-0.2c0.3-0.1,0.6-0.3,0.8-0.4h0.2v1.4    c-0.4,0.2-0.8,0.3-1.1,0.3s-0.7,0.1-1.2,0.1c-1.1,0-1.9-0.2-2.5-0.7s-0.9-1.2-0.9-2.1c0-0.9,0.3-1.6,0.8-2.2    c0.6-0.5,1.3-0.8,2.3-0.8c0.9,0,1.6,0.2,2,0.7c0.4,0.5,0.7,1.1,0.7,1.9V337.6z M360.8,336.6c0-0.4-0.1-0.6-0.3-0.8    c-0.2-0.2-0.4-0.3-0.8-0.3c-0.3,0-0.6,0.1-0.8,0.3c-0.2,0.2-0.3,0.5-0.4,0.8H360.8z"/> 		<path d="M367.1,339.4c-0.1,0.1-0.2,0.2-0.4,0.3c-0.1,0.1-0.3,0.2-0.4,0.2c-0.2,0.1-0.4,0.1-0.5,0.2c-0.2,0-0.4,0.1-0.6,0.1    c-0.5,0-1-0.2-1.3-0.5s-0.5-0.7-0.5-1.2c0-0.4,0.1-0.7,0.3-1c0.2-0.3,0.4-0.5,0.8-0.6c0.3-0.1,0.7-0.3,1.2-0.3    c0.5-0.1,1-0.1,1.5-0.1v0c0-0.3-0.1-0.5-0.4-0.6c-0.2-0.1-0.6-0.2-1.1-0.2c-0.3,0-0.6,0.1-0.9,0.2c-0.3,0.1-0.6,0.2-0.7,0.2h-0.2    v-1.3c0.2,0,0.5-0.1,0.9-0.2c0.4-0.1,0.8-0.1,1.3-0.1c1,0,1.7,0.2,2.2,0.5c0.4,0.3,0.7,0.8,0.7,1.4v3.7h-1.7V339.4z M367.1,338.6    v-1.1c-0.2,0-0.5,0-0.8,0.1c-0.3,0-0.5,0.1-0.6,0.1c-0.2,0.1-0.3,0.1-0.4,0.2c-0.1,0.1-0.1,0.2-0.1,0.4c0,0.1,0,0.2,0,0.3    c0,0.1,0.1,0.1,0.1,0.2c0.1,0.1,0.2,0.1,0.3,0.1c0.1,0,0.3,0,0.5,0c0.2,0,0.4,0,0.5-0.1C366.8,338.8,367,338.7,367.1,338.6z"/> 		<path d="M379.2,340h-1.8v-0.6c-0.3,0.2-0.6,0.4-0.8,0.5s-0.6,0.2-0.9,0.2c-0.7,0-1.2-0.3-1.6-0.8c-0.4-0.5-0.6-1.2-0.6-2.1    c0-0.5,0.1-0.9,0.2-1.2c0.1-0.4,0.3-0.7,0.6-0.9c0.2-0.2,0.5-0.4,0.8-0.6c0.3-0.1,0.6-0.2,0.9-0.2c0.3,0,0.6,0,0.8,0.1    c0.2,0.1,0.4,0.2,0.6,0.3v-2.3h1.8V340z M377.5,338.5v-2.7c-0.1-0.1-0.3-0.1-0.4-0.1s-0.3,0-0.4,0c-0.5,0-0.8,0.1-1,0.4    s-0.3,0.7-0.3,1.2c0,0.5,0.1,0.9,0.3,1.2s0.5,0.4,0.9,0.4c0.2,0,0.3,0,0.5-0.1C377.2,338.7,377.3,338.6,377.5,338.5z"/> 		<path d="M386.3,337.6h-4c0,0.4,0.2,0.8,0.5,1c0.3,0.2,0.7,0.3,1.3,0.3c0.4,0,0.7-0.1,1.1-0.2c0.3-0.1,0.6-0.3,0.8-0.4h0.2v1.4    c-0.4,0.2-0.8,0.3-1.1,0.3s-0.7,0.1-1.2,0.1c-1.1,0-1.9-0.2-2.5-0.7s-0.9-1.2-0.9-2.1c0-0.9,0.3-1.6,0.8-2.2    c0.6-0.5,1.3-0.8,2.3-0.8c0.9,0,1.6,0.2,2,0.7c0.4,0.5,0.7,1.1,0.7,1.9V337.6z M384.5,336.6c0-0.4-0.1-0.6-0.3-0.8    c-0.2-0.2-0.4-0.3-0.8-0.3c-0.3,0-0.6,0.1-0.8,0.3c-0.2,0.2-0.3,0.5-0.4,0.8H384.5z"/> 		<path d="M397.8,340h-1.9l-0.5-1.5h-2.7l-0.5,1.5h-1.9l2.7-7.3h2.2L397.8,340z M394.9,337.2l-0.9-2.6l-0.9,2.6H394.9z"/> 		<path d="M403.5,338.3c0,0.6-0.3,1-0.8,1.4c-0.5,0.3-1.2,0.5-2.1,0.5c-0.5,0-0.9,0-1.3-0.1c-0.4-0.1-0.7-0.2-1-0.3v-1.4h0.2    c0.1,0.1,0.2,0.1,0.3,0.2c0.1,0.1,0.3,0.2,0.5,0.2c0.2,0.1,0.4,0.1,0.6,0.2c0.2,0.1,0.5,0.1,0.7,0.1c0.3,0,0.6,0,0.8-0.1    c0.2-0.1,0.2-0.2,0.2-0.3c0-0.1,0-0.2-0.1-0.3c-0.1-0.1-0.3-0.1-0.6-0.2c-0.1,0-0.3-0.1-0.5-0.1c-0.2,0-0.4-0.1-0.6-0.1    c-0.5-0.1-0.9-0.3-1.1-0.6c-0.2-0.3-0.4-0.6-0.4-1c0-0.5,0.3-1,0.8-1.3c0.5-0.4,1.2-0.5,2-0.5c0.4,0,0.8,0,1.2,0.1    c0.4,0.1,0.7,0.2,0.9,0.3v1.4h-0.2c-0.3-0.2-0.6-0.3-0.9-0.4c-0.3-0.1-0.7-0.2-1-0.2c-0.3,0-0.5,0-0.7,0.1s-0.3,0.2-0.3,0.3    c0,0.1,0,0.2,0.1,0.3s0.3,0.1,0.6,0.2c0.2,0,0.4,0.1,0.6,0.1c0.2,0,0.4,0.1,0.6,0.1c0.5,0.1,0.8,0.3,1,0.6    C403.4,337.6,403.5,337.9,403.5,338.3z"/> 		<path d="M408.1,340c-0.2,0-0.4,0.1-0.6,0.1c-0.2,0-0.5,0-0.8,0c-0.7,0-1.2-0.1-1.5-0.4c-0.3-0.3-0.5-0.8-0.5-1.4v-2.6H404v-1.2    h0.7v-1.6h1.8v1.6h1.6v1.2h-1.6v1.9c0,0.2,0,0.4,0,0.5c0,0.1,0,0.3,0.1,0.4c0,0.1,0.1,0.2,0.2,0.3c0.1,0.1,0.3,0.1,0.5,0.1    c0.1,0,0.2,0,0.4-0.1c0.1,0,0.3-0.1,0.3-0.1h0.1V340z"/> 		<path d="M414.8,337.3c0,0.9-0.3,1.6-0.8,2.1c-0.5,0.5-1.3,0.8-2.2,0.8c-1,0-1.7-0.3-2.2-0.8c-0.5-0.5-0.8-1.2-0.8-2.1    c0-0.9,0.3-1.6,0.8-2.1c0.5-0.5,1.3-0.8,2.2-0.8c1,0,1.7,0.3,2.2,0.8C414.5,335.6,414.8,336.4,414.8,337.3z M412.6,338.6    c0.1-0.1,0.2-0.3,0.3-0.5c0.1-0.2,0.1-0.5,0.1-0.8c0-0.3,0-0.6-0.1-0.8s-0.1-0.4-0.2-0.5c-0.1-0.1-0.2-0.2-0.4-0.3    s-0.3-0.1-0.5-0.1c-0.2,0-0.3,0-0.5,0.1c-0.1,0-0.3,0.1-0.4,0.3c-0.1,0.1-0.2,0.3-0.3,0.5c-0.1,0.2-0.1,0.5-0.1,0.8    c0,0.3,0,0.6,0.1,0.8c0.1,0.2,0.1,0.4,0.2,0.5c0.1,0.1,0.2,0.2,0.4,0.3c0.1,0.1,0.3,0.1,0.5,0.1c0.2,0,0.3,0,0.5-0.1    C412.4,338.8,412.5,338.7,412.6,338.6z"/> 		<path d="M420,336.2h-0.2c-0.1,0-0.2,0-0.4-0.1s-0.3,0-0.4,0c-0.3,0-0.5,0-0.7,0c-0.2,0-0.4,0.1-0.6,0.2v3.7h-1.8v-5.5h1.8v0.8    c0.4-0.3,0.7-0.6,1-0.7c0.3-0.1,0.5-0.2,0.8-0.2c0.1,0,0.1,0,0.2,0c0.1,0,0.1,0,0.2,0V336.2z"/> 		<path d="M426.4,339.4c0,0.5-0.1,0.9-0.2,1.3s-0.4,0.6-0.6,0.8c-0.3,0.2-0.6,0.3-1,0.4c-0.4,0.1-0.8,0.1-1.3,0.1    c-0.4,0-0.8,0-1.1-0.1c-0.4,0-0.7-0.1-1-0.2v-1.4h0.2c0.2,0.1,0.5,0.2,0.8,0.2c0.3,0.1,0.6,0.1,0.8,0.1c0.3,0,0.6,0,0.8-0.1    c0.2-0.1,0.4-0.1,0.5-0.3c0.1-0.1,0.2-0.2,0.2-0.4s0.1-0.4,0.1-0.6v-0.1c-0.2,0.2-0.4,0.3-0.7,0.4c-0.3,0.1-0.5,0.2-0.9,0.2    c-0.8,0-1.4-0.2-1.8-0.7s-0.6-1.2-0.6-2.1c0-0.5,0.1-0.8,0.2-1.2s0.3-0.6,0.5-0.9c0.2-0.2,0.5-0.4,0.8-0.5s0.6-0.2,1-0.2    c0.3,0,0.6,0,0.8,0.1c0.2,0.1,0.5,0.2,0.7,0.3l0.1-0.2h1.7V339.4z M424.6,338.3v-2.5c-0.1,0-0.2-0.1-0.4-0.1c-0.1,0-0.3,0-0.4,0    c-0.5,0-0.8,0.1-1,0.4c-0.2,0.3-0.3,0.6-0.3,1.1c0,0.5,0.1,0.9,0.3,1.1c0.2,0.2,0.5,0.3,0.9,0.3c0.2,0,0.3,0,0.5-0.1    C424.3,338.4,424.5,338.4,424.6,338.3z"/> 		<path d="M431.3,339.4c-0.1,0.1-0.2,0.2-0.4,0.3c-0.1,0.1-0.3,0.2-0.4,0.2c-0.2,0.1-0.4,0.1-0.5,0.2c-0.2,0-0.4,0.1-0.6,0.1    c-0.5,0-1-0.2-1.3-0.5s-0.5-0.7-0.5-1.2c0-0.4,0.1-0.7,0.3-1c0.2-0.3,0.4-0.5,0.8-0.6c0.3-0.1,0.7-0.3,1.2-0.3    c0.5-0.1,1-0.1,1.5-0.1v0c0-0.3-0.1-0.5-0.4-0.6c-0.2-0.1-0.6-0.2-1.1-0.2c-0.3,0-0.6,0.1-0.9,0.2c-0.3,0.1-0.6,0.2-0.7,0.2h-0.2    v-1.3c0.2,0,0.5-0.1,0.9-0.2c0.4-0.1,0.8-0.1,1.3-0.1c1,0,1.7,0.2,2.2,0.5c0.4,0.3,0.7,0.8,0.7,1.4v3.7h-1.7V339.4z M431.3,338.6    v-1.1c-0.2,0-0.5,0-0.8,0.1c-0.3,0-0.5,0.1-0.6,0.1c-0.2,0.1-0.3,0.1-0.4,0.2c-0.1,0.1-0.1,0.2-0.1,0.4c0,0.1,0,0.2,0,0.3    c0,0.1,0.1,0.1,0.1,0.2c0.1,0.1,0.2,0.1,0.3,0.1c0.1,0,0.3,0,0.5,0c0.2,0,0.4,0,0.5-0.1C431,338.8,431.2,338.7,431.3,338.6z"/> 	</g> 	<g> 		<path d="M394.2,428.7h-5.2v-7.3h1.9v5.9h3.4V428.7z"/> 		<path d="M398.5,428.1c-0.1,0.1-0.2,0.2-0.4,0.3c-0.1,0.1-0.3,0.2-0.4,0.2c-0.2,0.1-0.4,0.1-0.5,0.2c-0.2,0-0.4,0.1-0.6,0.1    c-0.5,0-1-0.2-1.3-0.5s-0.5-0.7-0.5-1.2c0-0.4,0.1-0.7,0.3-1c0.2-0.3,0.4-0.5,0.8-0.6c0.3-0.1,0.7-0.3,1.2-0.3    c0.5-0.1,1-0.1,1.5-0.1v0c0-0.3-0.1-0.5-0.4-0.6c-0.2-0.1-0.6-0.2-1.1-0.2c-0.3,0-0.6,0.1-0.9,0.2c-0.3,0.1-0.6,0.2-0.7,0.2h-0.2    v-1.3c0.2,0,0.5-0.1,0.9-0.2c0.4-0.1,0.8-0.1,1.3-0.1c1,0,1.7,0.2,2.2,0.5c0.4,0.3,0.7,0.8,0.7,1.4v3.7h-1.7V428.1z M398.5,427.2    v-1.1c-0.2,0-0.5,0-0.8,0.1c-0.3,0-0.5,0.1-0.6,0.1c-0.2,0.1-0.3,0.1-0.4,0.2c-0.1,0.1-0.1,0.2-0.1,0.4c0,0.1,0,0.2,0,0.3    c0,0.1,0.1,0.1,0.1,0.2c0.1,0.1,0.2,0.1,0.3,0.1c0.1,0,0.3,0,0.5,0c0.2,0,0.4,0,0.5-0.1C398.2,427.4,398.4,427.3,398.5,427.2z"/> 		<path d="M411.6,426.4c0,0.4-0.1,0.7-0.2,0.9c-0.1,0.3-0.3,0.5-0.6,0.7c-0.3,0.2-0.6,0.4-0.9,0.5s-0.8,0.1-1.3,0.1h-3.2v-7.3h2.8    c0.6,0,1,0,1.3,0.1s0.5,0.1,0.8,0.3c0.3,0.1,0.5,0.3,0.6,0.6c0.1,0.2,0.2,0.5,0.2,0.8c0,0.4-0.1,0.7-0.3,0.9    c-0.2,0.3-0.4,0.5-0.8,0.6v0c0.5,0.1,0.9,0.3,1.1,0.6C411.5,425.6,411.6,426,411.6,426.4z M409.2,423.5c0-0.1,0-0.2-0.1-0.4    s-0.2-0.2-0.3-0.3c-0.1-0.1-0.3-0.1-0.5-0.1c-0.2,0-0.5,0-0.9,0h-0.2v1.5h0.3c0.3,0,0.5,0,0.8,0c0.2,0,0.4,0,0.5-0.1    c0.2-0.1,0.3-0.2,0.3-0.3C409.2,423.7,409.2,423.6,409.2,423.5z M409.7,426.4c0-0.2,0-0.4-0.1-0.5c-0.1-0.1-0.2-0.2-0.5-0.3    c-0.1,0-0.3-0.1-0.6-0.1c-0.3,0-0.5,0-0.8,0h-0.4v1.8h0.1c0.5,0,0.9,0,1.1,0c0.2,0,0.4,0,0.6-0.1c0.2-0.1,0.3-0.2,0.4-0.3    C409.6,426.7,409.7,426.6,409.7,426.4z"/> 		<path d="M416.2,428.1c-0.1,0.1-0.2,0.2-0.4,0.3c-0.1,0.1-0.3,0.2-0.4,0.2c-0.2,0.1-0.4,0.1-0.5,0.2c-0.2,0-0.4,0.1-0.6,0.1    c-0.5,0-1-0.2-1.3-0.5s-0.5-0.7-0.5-1.2c0-0.4,0.1-0.7,0.3-1c0.2-0.3,0.4-0.5,0.8-0.6c0.3-0.1,0.7-0.3,1.2-0.3    c0.5-0.1,1-0.1,1.5-0.1v0c0-0.3-0.1-0.5-0.4-0.6c-0.2-0.1-0.6-0.2-1.1-0.2c-0.3,0-0.6,0.1-0.9,0.2c-0.3,0.1-0.6,0.2-0.7,0.2H413    v-1.3c0.2,0,0.5-0.1,0.9-0.2c0.4-0.1,0.8-0.1,1.3-0.1c1,0,1.7,0.2,2.2,0.5c0.4,0.3,0.7,0.8,0.7,1.4v3.7h-1.7V428.1z M416.2,427.2    v-1.1c-0.2,0-0.5,0-0.8,0.1c-0.3,0-0.5,0.1-0.6,0.1c-0.2,0.1-0.3,0.1-0.4,0.2c-0.1,0.1-0.1,0.2-0.1,0.4c0,0.1,0,0.2,0,0.3    c0,0.1,0.1,0.1,0.1,0.2c0.1,0.1,0.2,0.1,0.3,0.1c0.1,0,0.3,0,0.5,0c0.2,0,0.4,0,0.5-0.1C415.9,427.4,416.1,427.3,416.2,427.2z"/> 		<path d="M425.1,428.7h-1.8v-2.7c0-0.2,0-0.4,0-0.7c0-0.2-0.1-0.4-0.1-0.5c-0.1-0.1-0.2-0.2-0.3-0.3s-0.3-0.1-0.5-0.1    c-0.2,0-0.3,0-0.5,0.1c-0.2,0.1-0.3,0.1-0.5,0.2v3.9h-1.8v-5.5h1.8v0.6c0.3-0.2,0.6-0.4,0.9-0.6c0.3-0.1,0.6-0.2,1-0.2    c0.6,0,1.1,0.2,1.4,0.5c0.3,0.3,0.5,0.9,0.5,1.5V428.7z M424.5,420.8c0,0.5-0.2,1-0.4,1.2c-0.2,0.3-0.6,0.4-1,0.4    c-0.2,0-0.3,0-0.4-0.1c-0.1-0.1-0.3-0.1-0.4-0.2c-0.1-0.1-0.2-0.1-0.3-0.2c-0.1-0.1-0.2-0.1-0.3-0.1c-0.2,0-0.3,0.1-0.3,0.2    c-0.1,0.1-0.1,0.3-0.1,0.4h-1.1c0-0.5,0.2-0.9,0.4-1.2s0.6-0.4,1-0.4c0.2,0,0.3,0,0.4,0.1c0.1,0.1,0.3,0.1,0.4,0.2    c0.1,0.1,0.2,0.1,0.3,0.2c0.1,0.1,0.2,0.1,0.3,0.1c0.2,0,0.3-0.1,0.3-0.2s0.1-0.2,0.1-0.4H424.5z"/> 		<path d="M432.1,426.3h-4c0,0.4,0.2,0.8,0.5,1s0.7,0.3,1.3,0.3c0.4,0,0.7-0.1,1.1-0.2c0.3-0.1,0.6-0.3,0.8-0.4h0.2v1.4    c-0.4,0.2-0.8,0.3-1.1,0.3s-0.7,0.1-1.2,0.1c-1.1,0-1.9-0.2-2.5-0.7s-0.9-1.2-0.9-2.1c0-0.9,0.3-1.6,0.8-2.2    c0.6-0.5,1.3-0.8,2.3-0.8c0.9,0,1.6,0.2,2,0.7c0.4,0.5,0.7,1.1,0.7,1.9V426.3z M430.4,425.2c0-0.4-0.1-0.6-0.3-0.8    c-0.2-0.2-0.4-0.3-0.8-0.3c-0.3,0-0.6,0.1-0.8,0.3c-0.2,0.2-0.3,0.5-0.4,0.8H430.4z"/> 		<path d="M438.1,428.7h-5.2v-1.1l2.9-3.1h-2.8v-1.3h5v1.1l-2.8,3.1h2.9V428.7z"/> 		<path d="M442.6,428.1c-0.1,0.1-0.2,0.2-0.4,0.3c-0.1,0.1-0.3,0.2-0.4,0.2c-0.2,0.1-0.4,0.1-0.5,0.2c-0.2,0-0.4,0.1-0.6,0.1    c-0.5,0-1-0.2-1.3-0.5s-0.5-0.7-0.5-1.2c0-0.4,0.1-0.7,0.3-1c0.2-0.3,0.4-0.5,0.8-0.6c0.3-0.1,0.7-0.3,1.2-0.3    c0.5-0.1,1-0.1,1.5-0.1v0c0-0.3-0.1-0.5-0.4-0.6c-0.2-0.1-0.6-0.2-1.1-0.2c-0.3,0-0.6,0.1-0.9,0.2c-0.3,0.1-0.6,0.2-0.7,0.2h-0.2    v-1.3c0.2,0,0.5-0.1,0.9-0.2c0.4-0.1,0.8-0.1,1.3-0.1c1,0,1.7,0.2,2.2,0.5c0.4,0.3,0.7,0.8,0.7,1.4v3.7h-1.7V428.1z M442.6,427.2    v-1.1c-0.2,0-0.5,0-0.8,0.1c-0.3,0-0.5,0.1-0.6,0.1c-0.2,0.1-0.3,0.1-0.4,0.2c-0.1,0.1-0.1,0.2-0.1,0.4c0,0.1,0,0.2,0,0.3    c0,0.1,0.1,0.1,0.1,0.2c0.1,0.1,0.2,0.1,0.3,0.1c0.1,0,0.3,0,0.5,0c0.2,0,0.4,0,0.5-0.1C442.4,427.4,442.5,427.3,442.6,427.2z"/> 	</g> 	<g> 		<path d="M327.5,89.3h-5.2v-7.3h1.9v5.9h3.4V89.3z"/> 		<path d="M331.9,88.8c-0.1,0.1-0.2,0.2-0.4,0.3c-0.1,0.1-0.3,0.2-0.4,0.2c-0.2,0.1-0.4,0.1-0.5,0.2s-0.4,0.1-0.6,0.1    c-0.5,0-1-0.2-1.3-0.5s-0.5-0.7-0.5-1.2c0-0.4,0.1-0.7,0.3-1c0.2-0.3,0.4-0.5,0.8-0.6c0.3-0.1,0.7-0.3,1.2-0.3    c0.5-0.1,1-0.1,1.5-0.1v0c0-0.3-0.1-0.5-0.4-0.6c-0.2-0.1-0.6-0.2-1.1-0.2c-0.3,0-0.6,0.1-0.9,0.2c-0.3,0.1-0.6,0.2-0.7,0.2h-0.2    V84c0.2,0,0.5-0.1,0.9-0.2s0.8-0.1,1.3-0.1c1,0,1.7,0.2,2.2,0.5c0.4,0.3,0.7,0.8,0.7,1.4v3.7h-1.7V88.8z M331.9,87.9v-1.1    c-0.2,0-0.5,0-0.8,0.1c-0.3,0-0.5,0.1-0.6,0.1c-0.2,0.1-0.3,0.1-0.4,0.2c-0.1,0.1-0.1,0.2-0.1,0.4c0,0.1,0,0.2,0,0.3    c0,0.1,0.1,0.1,0.1,0.2c0.1,0.1,0.2,0.1,0.3,0.1c0.1,0,0.3,0,0.5,0c0.2,0,0.4,0,0.5-0.1C331.6,88.1,331.7,88,331.9,87.9z"/> 		<path d="M346.4,89.3h-1.9v-4.9l-1.3,3.2h-1.3l-1.3-3.2v4.9h-1.8v-7.3h2.2l1.6,3.6l1.6-3.6h2.2V89.3z"/> 		<path d="M353.7,86.6c0,0.9-0.3,1.6-0.8,2.1s-1.3,0.8-2.2,0.8c-0.9,0-1.7-0.3-2.2-0.8c-0.5-0.5-0.8-1.2-0.8-2.1    c0-0.9,0.3-1.6,0.8-2.1s1.3-0.8,2.2-0.8c1,0,1.7,0.3,2.2,0.8C353.5,85,353.7,85.7,353.7,86.6z M351.6,87.9    c0.1-0.1,0.2-0.3,0.3-0.5c0.1-0.2,0.1-0.5,0.1-0.8c0-0.3,0-0.6-0.1-0.8s-0.1-0.4-0.2-0.5c-0.1-0.1-0.2-0.2-0.4-0.3    s-0.3-0.1-0.5-0.1c-0.2,0-0.3,0-0.5,0.1c-0.1,0-0.3,0.1-0.4,0.3c-0.1,0.1-0.2,0.3-0.3,0.5c-0.1,0.2-0.1,0.5-0.1,0.8    c0,0.3,0,0.6,0.1,0.8c0.1,0.2,0.1,0.4,0.2,0.5c0.1,0.1,0.2,0.2,0.4,0.3s0.3,0.1,0.5,0.1c0.2,0,0.3,0,0.5-0.1    C351.3,88.1,351.5,88.1,351.6,87.9z"/> 		<path d="M360.5,89.3h-1.8v-2.7c0-0.2,0-0.4,0-0.7c0-0.2-0.1-0.4-0.1-0.5c-0.1-0.1-0.2-0.2-0.3-0.3c-0.1-0.1-0.3-0.1-0.5-0.1    c-0.2,0-0.3,0-0.5,0.1s-0.3,0.1-0.5,0.2v3.9H355v-5.5h1.8v0.6c0.3-0.2,0.6-0.4,0.9-0.6s0.6-0.2,1-0.2c0.6,0,1.1,0.2,1.4,0.5    c0.3,0.3,0.5,0.9,0.5,1.5V89.3z"/> 		<path d="M365.6,89.3c-0.2,0-0.4,0.1-0.6,0.1c-0.2,0-0.5,0-0.8,0c-0.7,0-1.2-0.1-1.5-0.4s-0.5-0.8-0.5-1.4V85h-0.7v-1.2h0.7v-1.6    h1.8v1.6h1.6V85H364V87c0,0.2,0,0.4,0,0.5c0,0.1,0,0.3,0.1,0.4c0,0.1,0.1,0.2,0.2,0.3s0.3,0.1,0.5,0.1c0.1,0,0.2,0,0.4-0.1    c0.1,0,0.3-0.1,0.3-0.1h0.1V89.3z"/> 		<path d="M370,88.8c-0.1,0.1-0.2,0.2-0.4,0.3c-0.1,0.1-0.3,0.2-0.4,0.2c-0.2,0.1-0.4,0.1-0.5,0.2s-0.4,0.1-0.6,0.1    c-0.5,0-1-0.2-1.3-0.5s-0.5-0.7-0.5-1.2c0-0.4,0.1-0.7,0.3-1c0.2-0.3,0.4-0.5,0.8-0.6c0.3-0.1,0.7-0.3,1.2-0.3    c0.5-0.1,1-0.1,1.5-0.1v0c0-0.3-0.1-0.5-0.4-0.6c-0.2-0.1-0.6-0.2-1.1-0.2c-0.3,0-0.6,0.1-0.9,0.2c-0.3,0.1-0.6,0.2-0.7,0.2h-0.2    V84c0.2,0,0.5-0.1,0.9-0.2c0.4-0.1,0.8-0.1,1.3-0.1c1,0,1.7,0.2,2.2,0.5c0.4,0.3,0.7,0.8,0.7,1.4v3.7H370V88.8z M370,87.9v-1.1    c-0.2,0-0.5,0-0.8,0.1c-0.3,0-0.5,0.1-0.6,0.1c-0.2,0.1-0.3,0.1-0.4,0.2c-0.1,0.1-0.1,0.2-0.1,0.4c0,0.1,0,0.2,0,0.3    c0,0.1,0.1,0.1,0.1,0.2c0.1,0.1,0.2,0.1,0.3,0.1c0.1,0,0.3,0,0.5,0c0.2,0,0.4,0,0.5-0.1C369.7,88.1,369.8,88,370,87.9z"/> 		<path d="M378.8,89.3h-1.8v-2.7c0-0.2,0-0.4,0-0.7c0-0.2-0.1-0.4-0.1-0.5c-0.1-0.1-0.2-0.2-0.3-0.3c-0.1-0.1-0.3-0.1-0.5-0.1    c-0.2,0-0.3,0-0.5,0.1s-0.3,0.1-0.5,0.2v3.9h-1.8v-5.5h1.8v0.6c0.3-0.2,0.6-0.4,0.9-0.6s0.6-0.2,1-0.2c0.6,0,1.1,0.2,1.4,0.5    c0.3,0.3,0.5,0.9,0.5,1.5V89.3z M378.3,81.4c0,0.6-0.2,1-0.4,1.2s-0.6,0.4-1,0.4c-0.2,0-0.3,0-0.4-0.1s-0.3-0.1-0.4-0.2    c-0.1-0.1-0.2-0.1-0.3-0.2c-0.1-0.1-0.2-0.1-0.3-0.1c-0.2,0-0.3,0.1-0.3,0.2c-0.1,0.1-0.1,0.3-0.1,0.4H374c0-0.5,0.2-0.9,0.4-1.2    c0.3-0.3,0.6-0.4,1-0.4c0.2,0,0.3,0,0.4,0.1c0.1,0.1,0.3,0.1,0.4,0.2c0.1,0.1,0.2,0.1,0.3,0.2c0.1,0.1,0.2,0.1,0.3,0.1    c0.2,0,0.3-0.1,0.3-0.2s0.1-0.2,0.1-0.4H378.3z"/> 		<path d="M383.8,88.8c-0.1,0.1-0.2,0.2-0.4,0.3c-0.1,0.1-0.3,0.2-0.4,0.2c-0.2,0.1-0.4,0.1-0.5,0.2s-0.4,0.1-0.6,0.1    c-0.5,0-1-0.2-1.3-0.5s-0.5-0.7-0.5-1.2c0-0.4,0.1-0.7,0.3-1c0.2-0.3,0.4-0.5,0.8-0.6c0.3-0.1,0.7-0.3,1.2-0.3    c0.5-0.1,1-0.1,1.5-0.1v0c0-0.3-0.1-0.5-0.4-0.6c-0.2-0.1-0.6-0.2-1.1-0.2c-0.3,0-0.6,0.1-0.9,0.2c-0.3,0.1-0.6,0.2-0.7,0.2h-0.2    V84c0.2,0,0.5-0.1,0.9-0.2s0.8-0.1,1.3-0.1c1,0,1.7,0.2,2.2,0.5c0.4,0.3,0.7,0.8,0.7,1.4v3.7h-1.7V88.8z M383.8,87.9v-1.1    c-0.2,0-0.5,0-0.8,0.1c-0.3,0-0.5,0.1-0.6,0.1c-0.2,0.1-0.3,0.1-0.4,0.2c-0.1,0.1-0.1,0.2-0.1,0.4c0,0.1,0,0.2,0,0.3    c0,0.1,0.1,0.1,0.1,0.2c0.1,0.1,0.2,0.1,0.3,0.1c0.1,0,0.3,0,0.5,0c0.2,0,0.4,0,0.5-0.1C383.5,88.1,383.6,88,383.8,87.9z"/> 		<path d="M395.9,89.3h-1.8v-0.6c-0.3,0.2-0.6,0.4-0.8,0.5s-0.6,0.2-0.9,0.2c-0.7,0-1.2-0.3-1.6-0.8c-0.4-0.5-0.6-1.2-0.6-2.1    c0-0.5,0.1-0.9,0.2-1.2s0.3-0.7,0.6-0.9c0.2-0.2,0.5-0.4,0.8-0.6c0.3-0.1,0.6-0.2,0.9-0.2c0.3,0,0.6,0,0.8,0.1s0.4,0.2,0.6,0.3    v-2.3h1.8V89.3z M394.1,87.8v-2.7c-0.1-0.1-0.3-0.1-0.4-0.1s-0.3,0-0.4,0c-0.5,0-0.8,0.1-1,0.4s-0.3,0.7-0.3,1.2    c0,0.5,0.1,0.9,0.3,1.2c0.2,0.2,0.5,0.4,0.9,0.4c0.2,0,0.3,0,0.5-0.1C393.8,88,394,87.9,394.1,87.8z"/> 		<path d="M402.9,86.9h-4c0,0.4,0.2,0.8,0.5,1c0.3,0.2,0.7,0.3,1.3,0.3c0.4,0,0.7-0.1,1.1-0.2c0.3-0.1,0.6-0.3,0.8-0.4h0.2V89    c-0.4,0.2-0.8,0.3-1.1,0.3s-0.7,0.1-1.2,0.1c-1.1,0-1.9-0.2-2.5-0.7s-0.9-1.2-0.9-2.1c0-0.9,0.3-1.6,0.8-2.2    c0.6-0.5,1.3-0.8,2.3-0.8c0.9,0,1.6,0.2,2,0.7s0.7,1.1,0.7,1.9V86.9z M401.2,85.9c0-0.4-0.1-0.6-0.3-0.8c-0.2-0.2-0.4-0.3-0.8-0.3    c-0.3,0-0.6,0.1-0.8,0.3c-0.2,0.2-0.3,0.5-0.4,0.8H401.2z"/> 		<path d="M412.9,89.3h-5.2v-7.3h1.9v5.9h3.4V89.3z"/> 		<path d="M419.4,89.3h-1.8v-0.6c-0.3,0.2-0.6,0.4-0.9,0.6s-0.6,0.2-1,0.2c-0.6,0-1.1-0.2-1.4-0.5s-0.5-0.9-0.5-1.5v-3.6h1.8v2.7    c0,0.3,0,0.5,0,0.7c0,0.2,0.1,0.3,0.1,0.5c0.1,0.1,0.2,0.2,0.3,0.3s0.3,0.1,0.5,0.1c0.1,0,0.3,0,0.5-0.1c0.2-0.1,0.4-0.1,0.5-0.2    v-3.9h1.8V89.3z"/> 		<path d="M426.6,89.3h-1.8v-2.7c0-0.2,0-0.4,0-0.7c0-0.2-0.1-0.4-0.1-0.5c-0.1-0.1-0.2-0.2-0.3-0.3s-0.3-0.1-0.5-0.1    c-0.2,0-0.3,0-0.5,0.1c-0.2,0.1-0.3,0.1-0.5,0.2v3.9h-1.8v-5.5h1.8v0.6c0.3-0.2,0.6-0.4,0.9-0.6c0.3-0.1,0.6-0.2,1-0.2    c0.6,0,1.1,0.2,1.4,0.5c0.3,0.3,0.5,0.9,0.5,1.5V89.3z"/> 		<path d="M431.5,88.8c-0.1,0.1-0.2,0.2-0.4,0.3c-0.1,0.1-0.3,0.2-0.4,0.2c-0.2,0.1-0.4,0.1-0.5,0.2s-0.4,0.1-0.6,0.1    c-0.5,0-1-0.2-1.3-0.5s-0.5-0.7-0.5-1.2c0-0.4,0.1-0.7,0.3-1c0.2-0.3,0.4-0.5,0.8-0.6c0.3-0.1,0.7-0.3,1.2-0.3    c0.5-0.1,1-0.1,1.5-0.1v0c0-0.3-0.1-0.5-0.4-0.6c-0.2-0.1-0.6-0.2-1.1-0.2c-0.3,0-0.6,0.1-0.9,0.2c-0.3,0.1-0.6,0.2-0.7,0.2h-0.2    V84c0.2,0,0.5-0.1,0.9-0.2c0.4-0.1,0.8-0.1,1.3-0.1c1,0,1.7,0.2,2.2,0.5c0.4,0.3,0.7,0.8,0.7,1.4v3.7h-1.7V88.8z M431.5,87.9v-1.1    c-0.2,0-0.5,0-0.8,0.1c-0.3,0-0.5,0.1-0.6,0.1c-0.2,0.1-0.3,0.1-0.4,0.2c-0.1,0.1-0.1,0.2-0.1,0.4c0,0.1,0,0.2,0,0.3    c0,0.1,0.1,0.1,0.1,0.2c0.1,0.1,0.2,0.1,0.3,0.1c0.1,0,0.3,0,0.5,0c0.2,0,0.4,0,0.5-0.1C431.3,88.1,431.4,88,431.5,87.9z"/> 	</g> </g> <g id="Capa-2"> 	<g> 		<path d="M228.4,152.5H225v2.1h3v0.9h-3v3.5h-0.9v-7.3h4.4V152.5z"/> 		<path d="M233,158.9h-0.9v-0.6c-0.1,0.1-0.2,0.1-0.3,0.2s-0.3,0.2-0.4,0.2c-0.1,0.1-0.3,0.1-0.5,0.2s-0.4,0.1-0.7,0.1    c-0.5,0-0.9-0.2-1.2-0.5c-0.3-0.3-0.5-0.7-0.5-1.2c0-0.4,0.1-0.7,0.3-1s0.4-0.5,0.7-0.6c0.3-0.1,0.7-0.2,1.1-0.3    c0.4-0.1,0.9-0.1,1.4-0.1v-0.1c0-0.2,0-0.4-0.1-0.5c-0.1-0.1-0.2-0.2-0.3-0.3c-0.1-0.1-0.3-0.1-0.4-0.2c-0.2,0-0.4,0-0.5,0    c-0.2,0-0.5,0-0.8,0.1c-0.3,0.1-0.6,0.2-0.9,0.3h0v-0.9c0.2,0,0.4-0.1,0.7-0.2c0.3-0.1,0.6-0.1,0.9-0.1c0.4,0,0.7,0,0.9,0.1    s0.5,0.2,0.7,0.3c0.2,0.1,0.3,0.3,0.4,0.6s0.2,0.5,0.2,0.9V158.9z M232.1,157.6v-1.5c-0.3,0-0.6,0-0.9,0.1s-0.6,0.1-0.9,0.1    c-0.2,0.1-0.5,0.2-0.6,0.3c-0.2,0.2-0.2,0.4-0.2,0.7c0,0.3,0.1,0.5,0.3,0.7s0.5,0.2,0.8,0.2c0.3,0,0.6-0.1,0.8-0.2    C231.7,157.9,231.9,157.7,232.1,157.6z"/> 		<path d="M239.2,156.1c0,0.5-0.1,0.9-0.2,1.2s-0.3,0.7-0.5,0.9c-0.2,0.3-0.5,0.5-0.7,0.6c-0.3,0.1-0.5,0.2-0.9,0.2    c-0.3,0-0.5,0-0.8-0.1c-0.2-0.1-0.4-0.2-0.6-0.3l-0.1,0.3h-0.8v-7.6h0.9v2.7c0.2-0.2,0.5-0.4,0.8-0.5s0.6-0.2,0.9-0.2    c0.6,0,1.1,0.2,1.4,0.7C239,154.5,239.2,155.2,239.2,156.1z M238.3,156.2c0-0.7-0.1-1.1-0.3-1.5s-0.5-0.5-1-0.5    c-0.3,0-0.5,0.1-0.8,0.2c-0.3,0.1-0.5,0.3-0.7,0.4v3.1c0.2,0.1,0.5,0.2,0.6,0.2s0.4,0.1,0.6,0.1c0.5,0,0.9-0.2,1.1-0.5    S238.3,156.9,238.3,156.2z"/> 		<path d="M244.8,156.3H241c0,0.3,0,0.6,0.1,0.9c0.1,0.2,0.2,0.5,0.4,0.6c0.2,0.2,0.3,0.3,0.6,0.4c0.2,0.1,0.5,0.1,0.7,0.1    c0.4,0,0.7-0.1,1.1-0.2s0.6-0.3,0.8-0.4h0v1c-0.3,0.1-0.6,0.2-0.9,0.3s-0.6,0.1-1,0.1c-0.9,0-1.5-0.2-2-0.7    c-0.5-0.5-0.7-1.2-0.7-2.1c0-0.9,0.2-1.6,0.7-2.1s1.1-0.8,1.8-0.8c0.7,0,1.2,0.2,1.6,0.6s0.6,1,0.6,1.8V156.3z M244,155.6    c0-0.5-0.1-0.9-0.3-1.1c-0.2-0.3-0.6-0.4-1-0.4c-0.5,0-0.8,0.1-1.1,0.4c-0.3,0.3-0.4,0.6-0.5,1.1H244z"/> 		<path d="M249.4,154.5L249.4,154.5c-0.2,0-0.3-0.1-0.4-0.1s-0.3,0-0.4,0c-0.3,0-0.5,0.1-0.8,0.2c-0.2,0.1-0.5,0.3-0.7,0.5v3.9h-0.9    v-5.5h0.9v0.8c0.3-0.3,0.6-0.5,0.9-0.6c0.3-0.1,0.5-0.2,0.8-0.2c0.2,0,0.3,0,0.3,0c0.1,0,0.2,0,0.3,0V154.5z"/> 		<path d="M254.6,156.2c0,0.9-0.2,1.6-0.6,2.1s-1,0.8-1.7,0.8c-0.7,0-1.3-0.3-1.7-0.8s-0.6-1.2-0.6-2.1s0.2-1.6,0.6-2.1    s1-0.8,1.7-0.8c0.7,0,1.3,0.3,1.7,0.8S254.6,155.3,254.6,156.2z M253.7,156.2c0-0.7-0.1-1.2-0.4-1.6s-0.6-0.5-1.1-0.5    c-0.5,0-0.8,0.2-1.1,0.5s-0.4,0.9-0.4,1.6c0,0.7,0.1,1.2,0.4,1.6s0.6,0.5,1.1,0.5c0.5,0,0.8-0.2,1.1-0.5    C253.6,157.4,253.7,156.9,253.7,156.2z"/> 	</g> 	<g> 		<path d="M266,193.5h-2.5v6.4h-0.9v-6.4h-2.5v-0.9h5.8V193.5z"/> 		<path d="M270.2,197.2c0,0.9-0.2,1.6-0.6,2.1s-1,0.8-1.7,0.8c-0.7,0-1.3-0.3-1.7-0.8s-0.6-1.2-0.6-2.1s0.2-1.6,0.6-2.1    s1-0.8,1.7-0.8c0.7,0,1.3,0.3,1.7,0.8S270.2,196.3,270.2,197.2z M269.3,197.2c0-0.7-0.1-1.2-0.4-1.6s-0.6-0.5-1.1-0.5    c-0.5,0-0.8,0.2-1.1,0.5s-0.4,0.9-0.4,1.6c0,0.7,0.1,1.2,0.4,1.6s0.6,0.5,1.1,0.5c0.5,0,0.8-0.2,1.1-0.5    C269.2,198.4,269.3,197.9,269.3,197.2z"/> 		<path d="M274.8,195.5L274.8,195.5c-0.2,0-0.3-0.1-0.4-0.1s-0.3,0-0.4,0c-0.3,0-0.5,0.1-0.8,0.2c-0.2,0.1-0.5,0.3-0.7,0.5v3.9h-0.9    v-5.5h0.9v0.8c0.3-0.3,0.6-0.5,0.9-0.6c0.3-0.1,0.5-0.2,0.8-0.2c0.2,0,0.3,0,0.3,0c0.1,0,0.2,0,0.3,0V195.5z"/> 		<path d="M279.9,197.3h-3.8c0,0.3,0,0.6,0.1,0.9c0.1,0.2,0.2,0.5,0.4,0.6c0.2,0.2,0.4,0.3,0.6,0.4s0.5,0.1,0.7,0.1    c0.4,0,0.7-0.1,1.1-0.2c0.4-0.1,0.6-0.3,0.8-0.4h0v1c-0.3,0.1-0.6,0.2-0.9,0.3s-0.6,0.1-1,0.1c-0.9,0-1.5-0.2-2-0.7    c-0.5-0.5-0.7-1.2-0.7-2.1c0-0.9,0.2-1.6,0.7-2.1s1.1-0.8,1.8-0.8c0.7,0,1.2,0.2,1.6,0.6s0.6,1,0.6,1.8V197.3z M279.1,196.6    c0-0.5-0.1-0.9-0.3-1.1c-0.2-0.3-0.6-0.4-1-0.4c-0.5,0-0.8,0.1-1.1,0.4s-0.4,0.6-0.5,1.1H279.1z"/> 		<path d="M285.6,199.9h-0.9v-3.1c0-0.3,0-0.5,0-0.7c0-0.2-0.1-0.4-0.2-0.5c-0.1-0.1-0.2-0.2-0.3-0.3s-0.3-0.1-0.6-0.1    c-0.2,0-0.5,0.1-0.7,0.2c-0.3,0.1-0.5,0.3-0.7,0.5v4.1h-0.9v-5.5h0.9v0.6c0.3-0.2,0.6-0.4,0.8-0.6s0.6-0.2,0.9-0.2    c0.6,0,1,0.2,1.3,0.5c0.3,0.4,0.4,0.9,0.4,1.5V199.9z"/> 		<path d="M291.6,197.2c0,0.9-0.2,1.6-0.6,2.1s-1,0.8-1.7,0.8c-0.7,0-1.3-0.3-1.7-0.8c-0.4-0.5-0.6-1.2-0.6-2.1s0.2-1.6,0.6-2.1    c0.4-0.5,1-0.8,1.7-0.8c0.7,0,1.3,0.3,1.7,0.8S291.6,196.3,291.6,197.2z M290.7,197.2c0-0.7-0.1-1.2-0.4-1.6    c-0.3-0.3-0.6-0.5-1.1-0.5c-0.5,0-0.8,0.2-1.1,0.5c-0.3,0.3-0.4,0.9-0.4,1.6c0,0.7,0.1,1.2,0.4,1.6s0.6,0.5,1.1,0.5    c0.5,0,0.8-0.2,1.1-0.5C290.6,198.4,290.7,197.9,290.7,197.2z"/> 	</g> 	<g> 		<path d="M354,192.8h-2.7V192h0.9v-5.8h-0.9v-0.7h2.7v0.7h-0.9v5.8h0.9V192.8z"/> 		<path d="M359.7,192.1c0,0.9-0.2,1.6-0.6,2s-1,0.6-1.8,0.6c-0.3,0-0.5,0-0.8-0.1c-0.3,0-0.5-0.1-0.8-0.2v-0.9h0    c0.1,0.1,0.4,0.1,0.7,0.2s0.6,0.1,0.9,0.1c0.3,0,0.5,0,0.7-0.1c0.2-0.1,0.3-0.2,0.5-0.3c0.1-0.1,0.2-0.3,0.2-0.5    c0-0.2,0.1-0.4,0.1-0.6V192c-0.3,0.2-0.5,0.4-0.8,0.5s-0.5,0.2-0.9,0.2c-0.6,0-1.1-0.2-1.5-0.7s-0.5-1.1-0.5-2    c0-0.5,0.1-0.9,0.2-1.2c0.1-0.3,0.3-0.6,0.5-0.9c0.2-0.2,0.4-0.4,0.7-0.5s0.6-0.2,0.9-0.2c0.3,0,0.5,0,0.8,0.1    c0.2,0.1,0.4,0.2,0.6,0.3l0.1-0.2h0.8V192.1z M358.8,191.3v-3c-0.2-0.1-0.4-0.2-0.6-0.2s-0.4-0.1-0.6-0.1c-0.5,0-0.9,0.2-1.1,0.5    c-0.3,0.3-0.4,0.8-0.4,1.5c0,0.6,0.1,1.1,0.3,1.4c0.2,0.3,0.5,0.5,1,0.5c0.3,0,0.5-0.1,0.8-0.2    C358.4,191.6,358.6,191.4,358.8,191.3z"/> 		<path d="M365.7,192.8h-0.9v-0.6c-0.3,0.2-0.6,0.4-0.8,0.6c-0.3,0.1-0.6,0.2-0.9,0.2c-0.5,0-1-0.2-1.3-0.5    c-0.3-0.4-0.5-0.9-0.5-1.5v-3.5h0.9v3.1c0,0.3,0,0.5,0,0.7c0,0.2,0.1,0.4,0.2,0.5c0.1,0.1,0.2,0.2,0.3,0.3    c0.1,0.1,0.3,0.1,0.6,0.1c0.2,0,0.5-0.1,0.7-0.2c0.3-0.1,0.5-0.3,0.7-0.5v-4.1h0.9V192.8z M363,186.4h-0.9v-1h0.9V186.4z     M364.9,186.4H364v-1h0.9V186.4z"/> 		<path d="M371.7,190.1h-3.8c0,0.3,0,0.6,0.1,0.9c0.1,0.2,0.2,0.5,0.4,0.6c0.2,0.2,0.3,0.3,0.6,0.4c0.2,0.1,0.5,0.1,0.7,0.1    c0.4,0,0.7-0.1,1.1-0.2s0.6-0.3,0.8-0.4h0v1c-0.3,0.1-0.6,0.2-0.9,0.3s-0.6,0.1-1,0.1c-0.9,0-1.5-0.2-2-0.7    c-0.5-0.5-0.7-1.2-0.7-2.1c0-0.9,0.2-1.6,0.7-2.1c0.5-0.5,1.1-0.8,1.8-0.8c0.7,0,1.2,0.2,1.6,0.6s0.6,1,0.6,1.8V190.1z     M370.8,189.4c0-0.5-0.1-0.9-0.3-1.1c-0.2-0.3-0.6-0.4-1-0.4c-0.5,0-0.8,0.1-1.1,0.4c-0.3,0.3-0.4,0.6-0.5,1.1H370.8z"/> 		<path d="M377.3,192.8h-0.9v-3.1c0-0.3,0-0.5,0-0.7c0-0.2-0.1-0.4-0.2-0.5c-0.1-0.1-0.2-0.2-0.3-0.3s-0.3-0.1-0.6-0.1    c-0.2,0-0.5,0.1-0.7,0.2c-0.3,0.1-0.5,0.3-0.7,0.5v4.1H373v-5.5h0.9v0.6c0.3-0.2,0.5-0.4,0.8-0.6c0.3-0.1,0.6-0.2,0.9-0.2    c0.6,0,1,0.2,1.3,0.5c0.3,0.4,0.4,0.9,0.4,1.5V192.8z M377.1,184.9c0,0.5-0.2,0.9-0.4,1.1c-0.2,0.3-0.5,0.4-0.8,0.4    c-0.2,0-0.3,0-0.5-0.1s-0.3-0.2-0.4-0.3c-0.1-0.1-0.3-0.2-0.4-0.3s-0.2-0.1-0.3-0.1c-0.2,0-0.3,0.1-0.4,0.2s-0.1,0.3-0.1,0.6h-0.6    c0-0.5,0.1-0.9,0.4-1.1c0.2-0.3,0.5-0.4,0.8-0.4c0.2,0,0.3,0,0.4,0.1c0.1,0.1,0.3,0.2,0.4,0.3c0.1,0.1,0.3,0.2,0.4,0.3    s0.2,0.1,0.3,0.1c0.2,0,0.3-0.1,0.4-0.2c0.1-0.1,0.1-0.3,0.1-0.6H377.1z"/> 		<path d="M383,192.8h-0.9v-0.6c-0.1,0.1-0.2,0.1-0.3,0.2c-0.1,0.1-0.3,0.2-0.4,0.2c-0.1,0.1-0.3,0.1-0.5,0.2s-0.4,0.1-0.7,0.1    c-0.5,0-0.9-0.2-1.2-0.5c-0.3-0.3-0.5-0.7-0.5-1.2c0-0.4,0.1-0.7,0.3-1c0.2-0.3,0.4-0.5,0.7-0.6c0.3-0.1,0.7-0.2,1.1-0.3    c0.4-0.1,0.9-0.1,1.4-0.1V189c0-0.2,0-0.4-0.1-0.5s-0.2-0.2-0.3-0.3c-0.1-0.1-0.3-0.1-0.4-0.2c-0.2,0-0.4,0-0.5,0    c-0.2,0-0.5,0-0.8,0.1c-0.3,0.1-0.6,0.2-0.9,0.3h0v-0.9c0.2,0,0.4-0.1,0.7-0.2s0.6-0.1,0.9-0.1c0.4,0,0.7,0,0.9,0.1    c0.3,0.1,0.5,0.2,0.7,0.3c0.2,0.1,0.3,0.3,0.4,0.6c0.1,0.2,0.2,0.5,0.2,0.9V192.8z M382.1,191.4v-1.5c-0.3,0-0.6,0-0.9,0.1    c-0.4,0-0.6,0.1-0.9,0.1c-0.2,0.1-0.5,0.2-0.6,0.3c-0.2,0.2-0.2,0.4-0.2,0.7c0,0.3,0.1,0.5,0.3,0.7c0.2,0.2,0.5,0.2,0.8,0.2    c0.3,0,0.6-0.1,0.8-0.2S381.9,191.6,382.1,191.4z"/> 	</g> 	<g> 		<path d="M240.7,136.6c0,0.3-0.1,0.6-0.2,0.9c-0.1,0.3-0.3,0.5-0.4,0.7c-0.2,0.3-0.5,0.4-0.8,0.6c-0.3,0.1-0.7,0.2-1.2,0.2h-0.9    v2.7h-0.9v-7.3h1.9c0.4,0,0.8,0,1,0.1s0.5,0.2,0.8,0.3c0.3,0.2,0.5,0.4,0.6,0.7C240.7,135.8,240.7,136.2,240.7,136.6z     M239.8,136.6c0-0.3,0-0.5-0.1-0.7s-0.2-0.3-0.4-0.5c-0.1-0.1-0.3-0.2-0.5-0.2s-0.4-0.1-0.7-0.1h-0.9v2.9h0.8c0.4,0,0.7,0,0.9-0.1    c0.2-0.1,0.4-0.2,0.6-0.3c0.1-0.2,0.2-0.3,0.3-0.5C239.8,137,239.8,136.9,239.8,136.6z"/> 		<path d="M245.9,141.7H245v-0.6c-0.1,0.1-0.2,0.1-0.3,0.2c-0.1,0.1-0.3,0.2-0.4,0.2c-0.1,0.1-0.3,0.1-0.5,0.2    c-0.2,0.1-0.4,0.1-0.7,0.1c-0.5,0-0.9-0.2-1.2-0.5c-0.3-0.3-0.5-0.7-0.5-1.2c0-0.4,0.1-0.7,0.3-1c0.2-0.3,0.4-0.5,0.7-0.6    c0.3-0.1,0.7-0.2,1.1-0.3c0.4-0.1,0.9-0.1,1.4-0.1v-0.1c0-0.2,0-0.4-0.1-0.5s-0.2-0.2-0.3-0.3c-0.1-0.1-0.3-0.1-0.4-0.2    c-0.2,0-0.4,0-0.5,0c-0.2,0-0.5,0-0.8,0.1c-0.3,0.1-0.6,0.2-0.9,0.3h0v-0.9c0.2,0,0.4-0.1,0.7-0.2s0.6-0.1,0.9-0.1    c0.4,0,0.7,0,0.9,0.1c0.3,0.1,0.5,0.2,0.7,0.3c0.2,0.1,0.3,0.3,0.4,0.6c0.1,0.2,0.2,0.5,0.2,0.9V141.7z M245,140.3v-1.5    c-0.3,0-0.6,0-0.9,0.1c-0.4,0-0.6,0.1-0.9,0.1c-0.2,0.1-0.5,0.2-0.6,0.3c-0.2,0.2-0.2,0.4-0.2,0.7c0,0.3,0.1,0.5,0.3,0.7    c0.2,0.2,0.5,0.2,0.8,0.2c0.3,0,0.6-0.1,0.8-0.2C244.6,140.7,244.8,140.5,245,140.3z M245.3,133.5l-1.3,1.8h-0.7l0.8-1.8H245.3z"/> 		<path d="M250.8,137.2L250.8,137.2c-0.2,0-0.3-0.1-0.4-0.1c-0.1,0-0.3,0-0.4,0c-0.3,0-0.5,0.1-0.8,0.2c-0.2,0.1-0.5,0.3-0.7,0.5    v3.9h-0.9v-5.5h0.9v0.8c0.3-0.3,0.6-0.5,0.9-0.6s0.5-0.2,0.8-0.2c0.2,0,0.3,0,0.3,0c0.1,0,0.2,0,0.3,0V137.2z"/> 		<path d="M255.4,141.7h-0.9v-0.6c-0.1,0.1-0.2,0.1-0.3,0.2c-0.1,0.1-0.3,0.2-0.4,0.2c-0.1,0.1-0.3,0.1-0.5,0.2    c-0.2,0.1-0.4,0.1-0.7,0.1c-0.5,0-0.9-0.2-1.2-0.5c-0.3-0.3-0.5-0.7-0.5-1.2c0-0.4,0.1-0.7,0.3-1c0.2-0.3,0.4-0.5,0.7-0.6    c0.3-0.1,0.7-0.2,1.1-0.3c0.4-0.1,0.9-0.1,1.4-0.1v-0.1c0-0.2,0-0.4-0.1-0.5s-0.2-0.2-0.3-0.3c-0.1-0.1-0.3-0.1-0.4-0.2    c-0.2,0-0.4,0-0.5,0c-0.2,0-0.5,0-0.8,0.1c-0.3,0.1-0.6,0.2-0.9,0.3h0v-0.9c0.2,0,0.4-0.1,0.7-0.2s0.6-0.1,0.9-0.1    c0.4,0,0.7,0,0.9,0.1c0.3,0.1,0.5,0.2,0.7,0.3c0.2,0.1,0.3,0.3,0.4,0.6c0.1,0.2,0.2,0.5,0.2,0.9V141.7z M254.6,140.3v-1.5    c-0.3,0-0.6,0-0.9,0.1c-0.4,0-0.6,0.1-0.9,0.1c-0.2,0.1-0.5,0.2-0.6,0.3c-0.2,0.2-0.2,0.4-0.2,0.7c0,0.3,0.1,0.5,0.3,0.7    c0.2,0.2,0.5,0.2,0.8,0.2c0.3,0,0.6-0.1,0.8-0.2C254.1,140.7,254.3,140.5,254.6,140.3z"/> 		<path d="M264.6,141.7h-0.9v-3.1c0-0.2,0-0.5,0-0.7c0-0.2-0.1-0.4-0.1-0.5c-0.1-0.1-0.2-0.2-0.3-0.3c-0.1-0.1-0.3-0.1-0.6-0.1    c-0.2,0-0.5,0.1-0.7,0.2c-0.2,0.1-0.5,0.3-0.7,0.5c0,0.1,0,0.2,0,0.3c0,0.1,0,0.2,0,0.3v3.5h-0.9v-3.1c0-0.2,0-0.5,0-0.7    c0-0.2-0.1-0.4-0.1-0.5c-0.1-0.1-0.2-0.2-0.3-0.3c-0.1-0.1-0.3-0.1-0.6-0.1c-0.2,0-0.5,0.1-0.7,0.2c-0.2,0.1-0.5,0.3-0.7,0.5v4.1    h-0.9v-5.5h0.9v0.6c0.3-0.2,0.5-0.4,0.8-0.6c0.3-0.1,0.6-0.2,0.9-0.2c0.4,0,0.6,0.1,0.9,0.2c0.2,0.2,0.4,0.4,0.5,0.6    c0.4-0.3,0.7-0.5,1-0.7c0.3-0.1,0.6-0.2,0.9-0.2c0.6,0,1,0.2,1.3,0.5c0.3,0.4,0.4,0.9,0.4,1.5V141.7z"/> 		<path d="M270.7,139c0,0.9-0.2,1.6-0.6,2.1c-0.4,0.5-1,0.8-1.7,0.8c-0.7,0-1.3-0.3-1.7-0.8c-0.4-0.5-0.6-1.2-0.6-2.1    s0.2-1.6,0.6-2.1c0.4-0.5,1-0.8,1.7-0.8c0.7,0,1.3,0.3,1.7,0.8C270.5,137.4,270.7,138.1,270.7,139z M269.8,139    c0-0.7-0.1-1.2-0.4-1.6c-0.3-0.3-0.6-0.5-1.1-0.5c-0.5,0-0.8,0.2-1.1,0.5c-0.3,0.3-0.4,0.9-0.4,1.6c0,0.7,0.1,1.2,0.4,1.6    c0.3,0.4,0.6,0.5,1.1,0.5c0.5,0,0.8-0.2,1.1-0.5C269.6,140.2,269.8,139.7,269.8,139z"/> 		<path d="M279.5,141.7h-0.9v-0.6c-0.2,0.2-0.5,0.4-0.8,0.5s-0.6,0.2-0.9,0.2c-0.6,0-1.1-0.3-1.5-0.8c-0.4-0.5-0.5-1.2-0.5-2.1    c0-0.5,0.1-0.9,0.2-1.2c0.1-0.4,0.3-0.7,0.5-0.9c0.2-0.2,0.5-0.4,0.7-0.6c0.3-0.1,0.6-0.2,0.9-0.2c0.3,0,0.5,0,0.7,0.1    c0.2,0.1,0.4,0.2,0.7,0.3v-2.4h0.9V141.7z M278.6,140.3v-3.1c-0.2-0.1-0.4-0.2-0.6-0.2c-0.2,0-0.4-0.1-0.6-0.1    c-0.5,0-0.9,0.2-1.1,0.5c-0.3,0.4-0.4,0.9-0.4,1.5c0,0.6,0.1,1.1,0.3,1.5s0.5,0.5,1,0.5c0.2,0,0.5-0.1,0.7-0.2    C278.2,140.7,278.4,140.5,278.6,140.3z"/> 		<path d="M285.5,139.1h-3.8c0,0.3,0,0.6,0.1,0.9s0.2,0.5,0.4,0.6c0.2,0.2,0.3,0.3,0.6,0.4c0.2,0.1,0.5,0.1,0.7,0.1    c0.4,0,0.7-0.1,1.1-0.2c0.4-0.1,0.6-0.3,0.8-0.4h0v1c-0.3,0.1-0.6,0.2-0.9,0.3s-0.6,0.1-1,0.1c-0.9,0-1.5-0.2-2-0.7    c-0.5-0.5-0.7-1.2-0.7-2.1c0-0.9,0.2-1.6,0.7-2.1c0.5-0.5,1.1-0.8,1.8-0.8c0.7,0,1.2,0.2,1.6,0.6c0.4,0.4,0.6,1,0.6,1.8V139.1z     M284.7,138.3c0-0.5-0.1-0.9-0.3-1.1c-0.2-0.3-0.6-0.4-1-0.4c-0.5,0-0.8,0.1-1.1,0.4c-0.3,0.3-0.4,0.6-0.5,1.1H284.7z"/> 		<path d="M287.7,141.7h-0.9v-7.6h0.9V141.7z"/> 		<path d="M297.8,139.6c0,0.3-0.1,0.6-0.2,0.8c-0.1,0.3-0.3,0.5-0.5,0.7c-0.2,0.2-0.5,0.4-0.9,0.5c-0.3,0.1-0.7,0.2-1.2,0.2    c-0.5,0-0.9,0-1.3-0.1c-0.4-0.1-0.8-0.2-1.2-0.4V140h0.1c0.3,0.3,0.7,0.5,1.2,0.7s0.9,0.2,1.3,0.2c0.6,0,1-0.1,1.3-0.3    s0.5-0.5,0.5-0.9c0-0.3-0.1-0.6-0.2-0.7c-0.1-0.2-0.4-0.3-0.7-0.4c-0.2-0.1-0.5-0.1-0.8-0.2c-0.3,0-0.6-0.1-0.9-0.2    c-0.6-0.1-1.1-0.4-1.4-0.7c-0.3-0.3-0.4-0.8-0.4-1.3c0-0.6,0.2-1.1,0.7-1.5c0.5-0.4,1.1-0.6,1.8-0.6c0.5,0,0.9,0,1.3,0.1    c0.4,0.1,0.8,0.2,1.1,0.4v1.1h-0.1c-0.3-0.2-0.6-0.4-1-0.6c-0.4-0.2-0.9-0.2-1.3-0.2c-0.5,0-0.9,0.1-1.2,0.3    c-0.3,0.2-0.4,0.5-0.4,0.8c0,0.3,0.1,0.5,0.2,0.7c0.1,0.2,0.4,0.3,0.8,0.4c0.2,0,0.5,0.1,0.8,0.2c0.4,0.1,0.7,0.1,0.9,0.2    c0.5,0.1,0.9,0.4,1.2,0.6C297.7,138.7,297.8,139.1,297.8,139.6z"/> 		<path d="M300.2,135.3h-1v-1h1V135.3z M300.1,141.7h-0.9v-5.5h0.9V141.7z"/> 		<path d="M302.7,141.7h-0.9v-7.6h0.9V141.7z"/> 	</g> 	<g> 		<path d="M176.9,274c0,0.3-0.1,0.6-0.2,0.9c-0.1,0.3-0.3,0.5-0.4,0.7c-0.2,0.3-0.5,0.4-0.8,0.6c-0.3,0.1-0.7,0.2-1.2,0.2h-0.9v2.7    h-0.9v-7.3h1.9c0.4,0,0.8,0,1,0.1s0.5,0.2,0.8,0.3c0.3,0.2,0.5,0.4,0.6,0.7S176.9,273.5,176.9,274z M175.9,274    c0-0.3,0-0.5-0.1-0.7c-0.1-0.2-0.2-0.3-0.4-0.5c-0.1-0.1-0.3-0.2-0.5-0.2c-0.2,0-0.4-0.1-0.7-0.1h-0.9v2.9h0.8    c0.4,0,0.7,0,0.9-0.1c0.2-0.1,0.4-0.2,0.6-0.3c0.1-0.2,0.2-0.3,0.3-0.5C175.9,274.4,175.9,274.2,175.9,274z"/> 		<path d="M182.2,276.3c0,0.9-0.2,1.6-0.6,2.1s-1,0.8-1.7,0.8c-0.7,0-1.3-0.3-1.7-0.8s-0.6-1.2-0.6-2.1s0.2-1.6,0.6-2.1    c0.4-0.5,1-0.8,1.7-0.8c0.7,0,1.3,0.3,1.7,0.8C181.9,274.7,182.2,275.4,182.2,276.3z M181.3,276.3c0-0.7-0.1-1.2-0.4-1.6    c-0.3-0.3-0.6-0.5-1.1-0.5c-0.5,0-0.8,0.2-1.1,0.5c-0.3,0.3-0.4,0.9-0.4,1.6c0,0.7,0.1,1.2,0.4,1.6c0.3,0.4,0.6,0.5,1.1,0.5    c0.5,0,0.8-0.2,1.1-0.5C181.1,277.5,181.3,277,181.3,276.3z"/> 		<path d="M187.8,279h-0.9v-3.1c0-0.3,0-0.5,0-0.7c0-0.2-0.1-0.4-0.2-0.5c-0.1-0.1-0.2-0.2-0.3-0.3c-0.1-0.1-0.3-0.1-0.6-0.1    c-0.2,0-0.5,0.1-0.7,0.2s-0.5,0.3-0.7,0.5v4.1h-0.9v-5.5h0.9v0.6c0.3-0.2,0.6-0.4,0.8-0.6s0.6-0.2,0.9-0.2c0.6,0,1,0.2,1.3,0.5    c0.3,0.4,0.4,0.9,0.4,1.5V279z"/> 		<path d="M192.3,272.3L192.3,272.3c-0.1,0-0.3-0.1-0.4-0.1c-0.2,0-0.3,0-0.4,0c-0.4,0-0.6,0.1-0.8,0.3c-0.2,0.2-0.3,0.5-0.3,0.9    v0.2h1.6v0.8h-1.5v4.7h-0.9v-4.7h-0.6v-0.8h0.6v-0.2c0-0.6,0.2-1.1,0.5-1.5c0.3-0.3,0.7-0.5,1.3-0.5c0.2,0,0.4,0,0.5,0    s0.3,0,0.4,0.1V272.3z"/> 		<path d="M197.1,276.4h-3.8c0,0.3,0,0.6,0.1,0.9c0.1,0.2,0.2,0.5,0.4,0.6c0.2,0.2,0.3,0.3,0.6,0.4c0.2,0.1,0.5,0.1,0.7,0.1    c0.4,0,0.7-0.1,1.1-0.2c0.4-0.1,0.6-0.3,0.8-0.4h0v1c-0.3,0.1-0.6,0.2-0.9,0.3s-0.6,0.1-1,0.1c-0.9,0-1.5-0.2-2-0.7    c-0.5-0.5-0.7-1.2-0.7-2.1c0-0.9,0.2-1.6,0.7-2.1c0.5-0.5,1.1-0.8,1.8-0.8c0.7,0,1.2,0.2,1.6,0.6c0.4,0.4,0.6,1,0.6,1.8V276.4z     M196.3,275.7c0-0.5-0.1-0.9-0.3-1.1s-0.6-0.4-1-0.4c-0.5,0-0.8,0.1-1.1,0.4s-0.4,0.6-0.5,1.1H196.3z"/> 		<path d="M201.7,274.6L201.7,274.6c-0.2,0-0.3-0.1-0.4-0.1s-0.3,0-0.4,0c-0.3,0-0.5,0.1-0.8,0.2c-0.2,0.1-0.5,0.3-0.7,0.5v3.9h-0.9    v-5.5h0.9v0.8c0.3-0.3,0.6-0.5,0.9-0.6s0.5-0.2,0.8-0.2c0.2,0,0.3,0,0.3,0c0.1,0,0.2,0,0.3,0V274.6z"/> 		<path d="M205.7,274.6L205.7,274.6c-0.2,0-0.3-0.1-0.4-0.1s-0.3,0-0.4,0c-0.3,0-0.5,0.1-0.8,0.2c-0.2,0.1-0.5,0.3-0.7,0.5v3.9h-0.9    v-5.5h0.9v0.8c0.3-0.3,0.6-0.5,0.9-0.6s0.5-0.2,0.8-0.2c0.2,0,0.3,0,0.3,0c0.1,0,0.2,0,0.3,0V274.6z"/> 		<path d="M210.3,279h-0.9v-0.6c-0.1,0.1-0.2,0.1-0.3,0.2c-0.1,0.1-0.3,0.2-0.4,0.2c-0.1,0.1-0.3,0.1-0.5,0.2    c-0.2,0.1-0.4,0.1-0.7,0.1c-0.5,0-0.9-0.2-1.2-0.5c-0.3-0.3-0.5-0.7-0.5-1.2c0-0.4,0.1-0.7,0.3-1c0.2-0.3,0.4-0.5,0.7-0.6    c0.3-0.1,0.7-0.2,1.1-0.3s0.9-0.1,1.4-0.1v-0.1c0-0.2,0-0.4-0.1-0.5c-0.1-0.1-0.2-0.2-0.3-0.3c-0.1-0.1-0.3-0.1-0.4-0.2    s-0.4,0-0.5,0c-0.2,0-0.5,0-0.8,0.1s-0.6,0.2-0.9,0.3h0v-0.9c0.2,0,0.4-0.1,0.7-0.2s0.6-0.1,0.9-0.1c0.4,0,0.7,0,0.9,0.1    c0.3,0.1,0.5,0.2,0.7,0.3c0.2,0.1,0.3,0.3,0.4,0.6c0.1,0.2,0.2,0.5,0.2,0.9V279z M209.5,277.7v-1.5c-0.3,0-0.6,0-0.9,0.1    c-0.4,0-0.6,0.1-0.9,0.1c-0.2,0.1-0.5,0.2-0.6,0.3c-0.2,0.2-0.2,0.4-0.2,0.7c0,0.3,0.1,0.5,0.3,0.7c0.2,0.2,0.5,0.2,0.8,0.2    c0.3,0,0.6-0.1,0.8-0.2C209,278,209.3,277.9,209.5,277.7z"/> 		<path d="M216.2,279h-0.9v-0.6c-0.2,0.2-0.5,0.4-0.8,0.5c-0.3,0.1-0.6,0.2-0.9,0.2c-0.6,0-1.1-0.3-1.5-0.8s-0.5-1.2-0.5-2.1    c0-0.5,0.1-0.9,0.2-1.2s0.3-0.7,0.5-0.9c0.2-0.2,0.5-0.4,0.7-0.6s0.6-0.2,0.9-0.2c0.3,0,0.5,0,0.7,0.1c0.2,0.1,0.4,0.2,0.7,0.3    v-2.4h0.9V279z M215.3,277.7v-3.1c-0.2-0.1-0.4-0.2-0.6-0.2s-0.4-0.1-0.6-0.1c-0.5,0-0.9,0.2-1.1,0.5c-0.3,0.4-0.4,0.9-0.4,1.5    c0,0.6,0.1,1.1,0.3,1.5c0.2,0.3,0.5,0.5,1,0.5c0.2,0,0.5-0.1,0.7-0.2C214.9,278,215.1,277.9,215.3,277.7z"/> 		<path d="M221.9,279H221v-0.6c-0.1,0.1-0.2,0.1-0.3,0.2c-0.1,0.1-0.3,0.2-0.4,0.2c-0.1,0.1-0.3,0.1-0.5,0.2    c-0.2,0.1-0.4,0.1-0.7,0.1c-0.5,0-0.9-0.2-1.2-0.5c-0.3-0.3-0.5-0.7-0.5-1.2c0-0.4,0.1-0.7,0.3-1c0.2-0.3,0.4-0.5,0.7-0.6    c0.3-0.1,0.7-0.2,1.1-0.3s0.9-0.1,1.4-0.1v-0.1c0-0.2,0-0.4-0.1-0.5c-0.1-0.1-0.2-0.2-0.3-0.3c-0.1-0.1-0.3-0.1-0.4-0.2    s-0.4,0-0.5,0c-0.2,0-0.5,0-0.8,0.1s-0.6,0.2-0.9,0.3h0v-0.9c0.2,0,0.4-0.1,0.7-0.2c0.3-0.1,0.6-0.1,0.9-0.1c0.4,0,0.7,0,0.9,0.1    c0.3,0.1,0.5,0.2,0.7,0.3c0.2,0.1,0.3,0.3,0.4,0.6c0.1,0.2,0.2,0.5,0.2,0.9V279z M221,277.7v-1.5c-0.3,0-0.6,0-0.9,0.1    c-0.4,0-0.6,0.1-0.9,0.1c-0.2,0.1-0.5,0.2-0.6,0.3c-0.2,0.2-0.2,0.4-0.2,0.7c0,0.3,0.1,0.5,0.3,0.7c0.2,0.2,0.5,0.2,0.8,0.2    c0.3,0,0.6-0.1,0.8-0.2C220.6,278,220.8,277.9,221,277.7z"/> 	</g> 	<g> 		<path d="M162.3,233.7c-0.2,0.1-0.3,0.2-0.5,0.2c-0.1,0.1-0.3,0.1-0.5,0.2c-0.2,0.1-0.4,0.1-0.6,0.2c-0.2,0-0.5,0.1-0.7,0.1    c-0.5,0-1-0.1-1.4-0.2c-0.4-0.1-0.8-0.4-1.1-0.7c-0.3-0.3-0.5-0.7-0.7-1.2c-0.2-0.5-0.2-1-0.2-1.7c0-0.6,0.1-1.1,0.2-1.6    c0.2-0.5,0.4-0.9,0.7-1.2c0.3-0.3,0.6-0.6,1.1-0.7c0.4-0.2,0.9-0.2,1.4-0.2c0.4,0,0.7,0,1.1,0.1c0.4,0.1,0.8,0.3,1.2,0.5v1.1h-0.1    c-0.4-0.3-0.8-0.6-1.1-0.7s-0.8-0.2-1.2-0.2c-0.3,0-0.7,0.1-0.9,0.2c-0.3,0.1-0.5,0.3-0.7,0.6c-0.2,0.2-0.4,0.6-0.5,0.9    c-0.1,0.4-0.2,0.8-0.2,1.3c0,0.5,0.1,1,0.2,1.3s0.3,0.7,0.5,0.9c0.2,0.2,0.5,0.4,0.8,0.5c0.3,0.1,0.6,0.2,0.9,0.2    c0.4,0,0.9-0.1,1.2-0.2c0.4-0.2,0.7-0.4,1.1-0.7h0.1V233.7z"/> 		<path d="M167.5,234.2h-0.9v-0.6c-0.1,0.1-0.2,0.1-0.3,0.2c-0.1,0.1-0.3,0.2-0.4,0.2c-0.1,0.1-0.3,0.1-0.5,0.2    c-0.2,0-0.4,0.1-0.7,0.1c-0.5,0-0.9-0.2-1.2-0.5s-0.5-0.7-0.5-1.2c0-0.4,0.1-0.7,0.3-1c0.2-0.3,0.4-0.5,0.7-0.6    c0.3-0.1,0.7-0.2,1.1-0.3c0.4-0.1,0.9-0.1,1.4-0.1v-0.1c0-0.2,0-0.4-0.1-0.5s-0.2-0.2-0.3-0.3c-0.1-0.1-0.3-0.1-0.4-0.2    s-0.4,0-0.5,0c-0.2,0-0.5,0-0.8,0.1c-0.3,0.1-0.6,0.2-0.9,0.3h0v-0.9c0.2,0,0.4-0.1,0.7-0.2s0.6-0.1,0.9-0.1c0.4,0,0.7,0,0.9,0.1    c0.3,0.1,0.5,0.2,0.7,0.3c0.2,0.1,0.3,0.3,0.4,0.6s0.2,0.5,0.2,0.9V234.2z M166.6,232.9v-1.5c-0.3,0-0.6,0-0.9,0.1    s-0.6,0.1-0.9,0.1c-0.2,0.1-0.5,0.2-0.6,0.3c-0.2,0.2-0.2,0.4-0.2,0.7c0,0.3,0.1,0.5,0.3,0.7c0.2,0.2,0.5,0.2,0.8,0.2    c0.3,0,0.6-0.1,0.8-0.2C166.2,233.2,166.4,233.1,166.6,232.9z"/> 		<path d="M173,233.9c-0.3,0.1-0.6,0.3-0.8,0.3c-0.3,0.1-0.5,0.1-0.8,0.1c-0.4,0-0.7-0.1-1-0.2c-0.3-0.1-0.6-0.3-0.8-0.5    c-0.2-0.2-0.4-0.5-0.5-0.9s-0.2-0.8-0.2-1.3c0-0.9,0.2-1.6,0.7-2.1s1.1-0.8,1.8-0.8c0.3,0,0.6,0,0.9,0.1c0.3,0.1,0.5,0.2,0.8,0.3    v1h0c-0.3-0.2-0.5-0.4-0.8-0.5c-0.3-0.1-0.6-0.2-0.8-0.2c-0.5,0-0.9,0.2-1.2,0.5c-0.3,0.3-0.4,0.9-0.4,1.5c0,0.7,0.1,1.2,0.4,1.5    c0.3,0.4,0.7,0.5,1.2,0.5c0.2,0,0.4,0,0.5-0.1s0.3-0.1,0.5-0.2c0.1-0.1,0.2-0.1,0.4-0.2c0.1-0.1,0.2-0.1,0.3-0.2h0V233.9z"/> 		<path d="M178.1,234.2h-0.9v-0.6c-0.1,0.1-0.2,0.1-0.3,0.2c-0.1,0.1-0.3,0.2-0.4,0.2c-0.1,0.1-0.3,0.1-0.5,0.2    c-0.2,0-0.4,0.1-0.7,0.1c-0.5,0-0.9-0.2-1.2-0.5c-0.3-0.3-0.5-0.7-0.5-1.2c0-0.4,0.1-0.7,0.3-1c0.2-0.3,0.4-0.5,0.7-0.6    c0.3-0.1,0.7-0.2,1.1-0.3s0.9-0.1,1.4-0.1v-0.1c0-0.2,0-0.4-0.1-0.5s-0.2-0.2-0.3-0.3c-0.1-0.1-0.3-0.1-0.4-0.2s-0.4,0-0.5,0    c-0.2,0-0.5,0-0.8,0.1c-0.3,0.1-0.6,0.2-0.9,0.3h0v-0.9c0.2,0,0.4-0.1,0.7-0.2c0.3-0.1,0.6-0.1,0.9-0.1c0.4,0,0.7,0,0.9,0.1    c0.3,0.1,0.5,0.2,0.7,0.3c0.2,0.1,0.3,0.3,0.4,0.6s0.2,0.5,0.2,0.9V234.2z M177.2,232.9v-1.5c-0.3,0-0.6,0-0.9,0.1    s-0.6,0.1-0.9,0.1c-0.2,0.1-0.5,0.2-0.6,0.3c-0.2,0.2-0.2,0.4-0.2,0.7c0,0.3,0.1,0.5,0.3,0.7c0.2,0.2,0.5,0.2,0.8,0.2    c0.3,0,0.6-0.1,0.8-0.2C176.8,233.2,177,233.1,177.2,232.9z"/> 		<path d="M184.3,231.5c0,0.5-0.1,0.9-0.2,1.2s-0.3,0.7-0.5,0.9c-0.2,0.3-0.5,0.5-0.7,0.6c-0.3,0.1-0.5,0.2-0.9,0.2    c-0.3,0-0.5,0-0.8-0.1c-0.2-0.1-0.4-0.2-0.6-0.3l-0.1,0.3h-0.8v-7.6h0.9v2.7c0.2-0.2,0.5-0.4,0.8-0.5c0.3-0.1,0.6-0.2,0.9-0.2    c0.6,0,1.1,0.2,1.4,0.7S184.3,230.6,184.3,231.5z M183.4,231.5c0-0.7-0.1-1.1-0.3-1.5c-0.2-0.3-0.5-0.5-1-0.5    c-0.3,0-0.5,0.1-0.8,0.2c-0.3,0.1-0.5,0.3-0.7,0.4v3.1c0.2,0.1,0.5,0.2,0.6,0.2c0.2,0,0.4,0.1,0.6,0.1c0.5,0,0.9-0.2,1.1-0.5    C183.3,232.7,183.4,232.2,183.4,231.5z"/> 		<path d="M190,231.6h-3.8c0,0.3,0,0.6,0.1,0.9c0.1,0.3,0.2,0.5,0.4,0.6c0.2,0.2,0.3,0.3,0.6,0.4c0.2,0.1,0.5,0.1,0.7,0.1    c0.4,0,0.7-0.1,1.1-0.2c0.4-0.1,0.6-0.3,0.8-0.4h0v1c-0.3,0.1-0.6,0.2-0.9,0.3c-0.3,0.1-0.6,0.1-1,0.1c-0.9,0-1.5-0.2-2-0.7    c-0.5-0.5-0.7-1.2-0.7-2.1c0-0.9,0.2-1.6,0.7-2.1s1.1-0.8,1.8-0.8c0.7,0,1.2,0.2,1.6,0.6s0.6,1,0.6,1.8V231.6z M189.1,230.9    c0-0.5-0.1-0.9-0.3-1.1s-0.6-0.4-1-0.4c-0.5,0-0.8,0.1-1.1,0.4c-0.3,0.3-0.4,0.6-0.5,1.1H189.1z"/> 		<path d="M192.2,234.2h-0.9v-7.6h0.9V234.2z"/> 		<path d="M198.3,231.5c0,0.9-0.2,1.6-0.6,2.1s-1,0.8-1.7,0.8c-0.7,0-1.3-0.3-1.7-0.8c-0.4-0.5-0.6-1.2-0.6-2.1s0.2-1.6,0.6-2.1    c0.4-0.5,1-0.8,1.7-0.8c0.7,0,1.3,0.3,1.7,0.8C198,229.9,198.3,230.6,198.3,231.5z M197.4,231.5c0-0.7-0.1-1.2-0.4-1.6    c-0.3-0.3-0.6-0.5-1.1-0.5c-0.5,0-0.8,0.2-1.1,0.5c-0.3,0.3-0.4,0.9-0.4,1.6c0,0.7,0.1,1.2,0.4,1.6c0.3,0.4,0.6,0.5,1.1,0.5    c0.5,0,0.8-0.2,1.1-0.5C197.2,232.7,197.4,232.2,197.4,231.5z"/> 		<path d="M203,231.7c0.2,0.2,0.3,0.6,0.3,1c0,0.5-0.2,0.9-0.6,1.2s-0.9,0.5-1.6,0.5c-0.4,0-0.7,0-1-0.1c-0.3-0.1-0.6-0.2-0.8-0.3    v-1h0c0.3,0.2,0.6,0.4,0.9,0.5c0.3,0.1,0.7,0.2,1,0.2c0.4,0,0.7-0.1,0.9-0.2s0.3-0.3,0.3-0.6c0-0.2-0.1-0.4-0.2-0.5    s-0.3-0.2-0.7-0.3c-0.1,0-0.3-0.1-0.5-0.1s-0.4-0.1-0.5-0.1c-0.5-0.1-0.8-0.3-1-0.6c-0.2-0.2-0.3-0.5-0.3-0.9c0-0.2,0-0.4,0.1-0.6    c0.1-0.2,0.2-0.4,0.4-0.5c0.2-0.2,0.4-0.3,0.7-0.4c0.3-0.1,0.6-0.1,0.9-0.1c0.3,0,0.6,0,0.9,0.1c0.3,0.1,0.6,0.2,0.8,0.3v1h0    c-0.2-0.2-0.5-0.3-0.8-0.4c-0.3-0.1-0.6-0.2-0.9-0.2c-0.3,0-0.6,0.1-0.8,0.2c-0.2,0.1-0.3,0.3-0.3,0.6c0,0.2,0.1,0.4,0.2,0.5    c0.1,0.1,0.3,0.2,0.6,0.3c0.2,0,0.3,0.1,0.5,0.1s0.4,0.1,0.5,0.1C202.4,231.3,202.7,231.5,203,231.7L203,231.7z"/> 	</g> 	<g> 		<path d="M77,181.4l-2.5,7.3h-1.2l-2.5-7.3h1l2.2,6.4l2.2-6.4H77z"/> 		<path d="M79,182.3h-1v-1h1V182.3z M78.9,188.7H78v-5.5h0.9V188.7z"/> 		<path d="M81.5,188.7h-0.9v-7.6h0.9V188.7z"/> 		<path d="M84.1,188.7h-0.9v-7.6h0.9V188.7z"/> 		<path d="M89.8,188.7h-0.9v-0.6c-0.1,0.1-0.2,0.1-0.3,0.2s-0.3,0.2-0.4,0.2c-0.1,0.1-0.3,0.1-0.5,0.2c-0.2,0.1-0.4,0.1-0.7,0.1    c-0.5,0-0.9-0.2-1.2-0.5c-0.3-0.3-0.5-0.7-0.5-1.2c0-0.4,0.1-0.7,0.3-1c0.2-0.3,0.4-0.5,0.7-0.6c0.3-0.1,0.7-0.2,1.1-0.3    c0.4-0.1,0.9-0.1,1.4-0.1v-0.1c0-0.2,0-0.4-0.1-0.5s-0.2-0.2-0.3-0.3c-0.1-0.1-0.3-0.1-0.4-0.2c-0.2,0-0.4,0-0.5,0    c-0.2,0-0.5,0-0.8,0.1c-0.3,0.1-0.6,0.2-0.9,0.3h0v-0.9c0.2,0,0.4-0.1,0.7-0.2s0.6-0.1,0.9-0.1c0.4,0,0.7,0,0.9,0.1    s0.5,0.2,0.7,0.3c0.2,0.1,0.3,0.3,0.4,0.6c0.1,0.2,0.2,0.5,0.2,0.9V188.7z M88.9,187.3v-1.5c-0.3,0-0.6,0-0.9,0.1    c-0.4,0-0.6,0.1-0.9,0.1c-0.2,0.1-0.5,0.2-0.6,0.3c-0.2,0.2-0.2,0.4-0.2,0.7c0,0.3,0.1,0.5,0.3,0.7s0.5,0.2,0.8,0.2    c0.3,0,0.6-0.1,0.8-0.2C88.5,187.7,88.7,187.5,88.9,187.3z"/> 		<path d="M94.2,182L94.2,182c-0.1,0-0.3-0.1-0.4-0.1s-0.3,0-0.4,0c-0.4,0-0.6,0.1-0.8,0.3c-0.2,0.2-0.3,0.5-0.3,0.9v0.2h1.6v0.8    h-1.5v4.7h-0.9V184h-0.6v-0.8h0.6V183c0-0.6,0.2-1.1,0.5-1.5s0.7-0.5,1.3-0.5c0.2,0,0.4,0,0.5,0s0.3,0,0.4,0.1V182z"/> 		<path d="M98,184.2L98,184.2c-0.2,0-0.3-0.1-0.4-0.1c-0.1,0-0.3,0-0.4,0c-0.3,0-0.5,0.1-0.8,0.2c-0.2,0.1-0.5,0.3-0.7,0.5v3.9h-0.9    v-5.5h0.9v0.8c0.3-0.3,0.6-0.5,0.9-0.6c0.3-0.1,0.5-0.2,0.8-0.2c0.2,0,0.3,0,0.3,0c0.1,0,0.2,0,0.3,0V184.2z"/> 		<path d="M102.7,188.7h-0.9v-0.6c-0.1,0.1-0.2,0.1-0.3,0.2c-0.1,0.1-0.3,0.2-0.4,0.2c-0.1,0.1-0.3,0.1-0.5,0.2s-0.4,0.1-0.7,0.1    c-0.5,0-0.9-0.2-1.2-0.5c-0.3-0.3-0.5-0.7-0.5-1.2c0-0.4,0.1-0.7,0.3-1c0.2-0.3,0.4-0.5,0.7-0.6c0.3-0.1,0.7-0.2,1.1-0.3    c0.4-0.1,0.9-0.1,1.4-0.1v-0.1c0-0.2,0-0.4-0.1-0.5c-0.1-0.1-0.2-0.2-0.3-0.3c-0.1-0.1-0.3-0.1-0.4-0.2c-0.2,0-0.4,0-0.5,0    c-0.2,0-0.5,0-0.8,0.1s-0.6,0.2-0.9,0.3h0v-0.9c0.2,0,0.4-0.1,0.7-0.2c0.3-0.1,0.6-0.1,0.9-0.1c0.4,0,0.7,0,0.9,0.1    c0.3,0.1,0.5,0.2,0.7,0.3c0.2,0.1,0.3,0.3,0.4,0.6c0.1,0.2,0.2,0.5,0.2,0.9V188.7z M101.8,187.3v-1.5c-0.3,0-0.6,0-0.9,0.1    c-0.4,0-0.6,0.1-0.9,0.1c-0.2,0.1-0.5,0.2-0.6,0.3s-0.2,0.4-0.2,0.7c0,0.3,0.1,0.5,0.3,0.7c0.2,0.2,0.5,0.2,0.8,0.2    c0.3,0,0.6-0.1,0.8-0.2C101.4,187.7,101.6,187.5,101.8,187.3z"/> 		<path d="M108.7,188.7h-0.9v-3.1c0-0.3,0-0.5,0-0.7s-0.1-0.4-0.2-0.5c-0.1-0.1-0.2-0.2-0.3-0.3s-0.3-0.1-0.6-0.1    c-0.2,0-0.5,0.1-0.7,0.2c-0.3,0.1-0.5,0.3-0.7,0.5v4.1h-0.9v-5.5h0.9v0.6c0.3-0.2,0.6-0.4,0.8-0.6c0.3-0.1,0.6-0.2,0.9-0.2    c0.6,0,1,0.2,1.3,0.5c0.3,0.4,0.4,0.9,0.4,1.5V188.7z"/> 		<path d="M114.1,188.3c-0.3,0.1-0.6,0.3-0.8,0.3c-0.3,0.1-0.5,0.1-0.8,0.1c-0.4,0-0.7-0.1-1-0.2s-0.6-0.3-0.8-0.5    c-0.2-0.2-0.4-0.5-0.5-0.9c-0.1-0.4-0.2-0.8-0.2-1.3c0-0.9,0.2-1.6,0.7-2.1c0.5-0.5,1.1-0.8,1.8-0.8c0.3,0,0.6,0,0.9,0.1    c0.3,0.1,0.5,0.2,0.8,0.3v1h0c-0.3-0.2-0.5-0.4-0.8-0.5c-0.3-0.1-0.6-0.2-0.8-0.2c-0.5,0-0.9,0.2-1.2,0.5s-0.4,0.9-0.4,1.5    c0,0.7,0.1,1.2,0.4,1.5s0.7,0.5,1.2,0.5c0.2,0,0.4,0,0.5-0.1c0.2,0,0.3-0.1,0.5-0.2c0.1-0.1,0.2-0.1,0.4-0.2s0.2-0.1,0.3-0.2h0    V188.3z"/> 		<path d="M119.3,188.7h-0.9v-0.6c-0.1,0.1-0.2,0.1-0.3,0.2s-0.3,0.2-0.4,0.2c-0.1,0.1-0.3,0.1-0.5,0.2s-0.4,0.1-0.7,0.1    c-0.5,0-0.9-0.2-1.2-0.5c-0.3-0.3-0.5-0.7-0.5-1.2c0-0.4,0.1-0.7,0.3-1s0.4-0.5,0.7-0.6c0.3-0.1,0.7-0.2,1.1-0.3    c0.4-0.1,0.9-0.1,1.4-0.1v-0.1c0-0.2,0-0.4-0.1-0.5c-0.1-0.1-0.2-0.2-0.3-0.3c-0.1-0.1-0.3-0.1-0.4-0.2c-0.2,0-0.4,0-0.5,0    c-0.2,0-0.5,0-0.8,0.1c-0.3,0.1-0.6,0.2-0.9,0.3h0v-0.9c0.2,0,0.4-0.1,0.7-0.2s0.6-0.1,0.9-0.1c0.4,0,0.7,0,0.9,0.1    c0.3,0.1,0.5,0.2,0.7,0.3c0.2,0.1,0.3,0.3,0.4,0.6c0.1,0.2,0.2,0.5,0.2,0.9V188.7z M118.4,187.3v-1.5c-0.3,0-0.6,0-0.9,0.1    c-0.4,0-0.6,0.1-0.9,0.1c-0.2,0.1-0.5,0.2-0.6,0.3s-0.2,0.4-0.2,0.7c0,0.3,0.1,0.5,0.3,0.7c0.2,0.2,0.5,0.2,0.8,0.2    c0.3,0,0.6-0.1,0.8-0.2C117.9,187.7,118.2,187.5,118.4,187.3z"/> 		<path d="M78.3,198.7h-0.9v-0.6c-0.2,0.2-0.5,0.4-0.8,0.5c-0.3,0.1-0.6,0.2-0.9,0.2c-0.6,0-1.1-0.3-1.5-0.8    c-0.4-0.5-0.5-1.2-0.5-2.1c0-0.5,0.1-0.9,0.2-1.2s0.3-0.7,0.5-0.9c0.2-0.2,0.5-0.4,0.7-0.6c0.3-0.1,0.6-0.2,0.9-0.2    c0.3,0,0.5,0,0.7,0.1c0.2,0.1,0.4,0.2,0.7,0.3v-2.4h0.9V198.7z M77.4,197.3v-3.1c-0.2-0.1-0.4-0.2-0.6-0.2c-0.2,0-0.4-0.1-0.6-0.1    c-0.5,0-0.9,0.2-1.1,0.5c-0.3,0.4-0.4,0.9-0.4,1.5c0,0.6,0.1,1.1,0.3,1.5c0.2,0.3,0.5,0.5,1,0.5c0.2,0,0.5-0.1,0.7-0.2    C77,197.7,77.2,197.5,77.4,197.3z"/> 		<path d="M84.3,196h-3.8c0,0.3,0,0.6,0.1,0.9c0.1,0.2,0.2,0.5,0.4,0.6c0.2,0.2,0.3,0.3,0.6,0.4c0.2,0.1,0.5,0.1,0.7,0.1    c0.4,0,0.7-0.1,1.1-0.2s0.6-0.3,0.8-0.4h0v1c-0.3,0.1-0.6,0.2-0.9,0.3c-0.3,0.1-0.6,0.1-1,0.1c-0.9,0-1.5-0.2-2-0.7    s-0.7-1.2-0.7-2.1c0-0.9,0.2-1.6,0.7-2.1c0.5-0.5,1.1-0.8,1.8-0.8c0.7,0,1.2,0.2,1.6,0.6c0.4,0.4,0.6,1,0.6,1.8V196z M83.5,195.3    c0-0.5-0.1-0.9-0.3-1.1s-0.6-0.4-1-0.4c-0.5,0-0.8,0.1-1.1,0.4c-0.3,0.3-0.4,0.6-0.5,1.1H83.5z"/> 		<path d="M86.5,198.7h-0.9v-7.6h0.9V198.7z"/> 		<path d="M96.8,196.4c0,0.4-0.1,0.7-0.2,1c-0.1,0.3-0.3,0.5-0.5,0.7c-0.3,0.2-0.5,0.4-0.9,0.5c-0.3,0.1-0.7,0.1-1.2,0.1h-2.4v-7.3    h2c0.5,0,0.9,0,1.1,0.1c0.2,0,0.5,0.1,0.7,0.2c0.3,0.1,0.4,0.3,0.5,0.5c0.1,0.2,0.2,0.5,0.2,0.8c0,0.3-0.1,0.6-0.2,0.9    s-0.4,0.4-0.7,0.6v0c0.5,0.1,0.8,0.3,1.1,0.6S96.8,195.9,96.8,196.4z M95.3,193.2c0-0.2,0-0.3-0.1-0.4c-0.1-0.1-0.1-0.2-0.3-0.3    c-0.1-0.1-0.3-0.1-0.5-0.2s-0.5,0-0.8,0h-1.1v2.1h1.2c0.3,0,0.5,0,0.7,0c0.2,0,0.3-0.1,0.5-0.2s0.2-0.2,0.3-0.4    S95.3,193.4,95.3,193.2z M95.8,196.5c0-0.3,0-0.5-0.1-0.7c-0.1-0.2-0.2-0.3-0.5-0.4c-0.1-0.1-0.3-0.1-0.5-0.2c-0.2,0-0.5,0-0.8,0    h-1.4v2.7h1.2c0.4,0,0.7,0,1-0.1s0.5-0.1,0.6-0.2c0.2-0.1,0.3-0.3,0.4-0.4C95.8,196.9,95.8,196.7,95.8,196.5z"/> 		<path d="M99,192.3h-1v-1h1V192.3z M98.9,198.7H98v-5.5h0.9V198.7z"/> 		<path d="M104.9,196h-3.8c0,0.3,0,0.6,0.1,0.9s0.2,0.5,0.4,0.6c0.2,0.2,0.3,0.3,0.6,0.4c0.2,0.1,0.5,0.1,0.7,0.1    c0.4,0,0.7-0.1,1.1-0.2c0.4-0.1,0.6-0.3,0.8-0.4h0v1c-0.3,0.1-0.6,0.2-0.9,0.3c-0.3,0.1-0.6,0.1-1,0.1c-0.9,0-1.5-0.2-2-0.7    c-0.5-0.5-0.7-1.2-0.7-2.1c0-0.9,0.2-1.6,0.7-2.1c0.5-0.5,1.1-0.8,1.8-0.8c0.7,0,1.2,0.2,1.6,0.6s0.6,1,0.6,1.8V196z M104.1,195.3    c0-0.5-0.1-0.9-0.3-1.1s-0.6-0.4-1-0.4c-0.5,0-0.8,0.1-1.1,0.4c-0.3,0.3-0.4,0.6-0.5,1.1H104.1z"/> 		<path d="M109.5,194.2L109.5,194.2c-0.2,0-0.3-0.1-0.4-0.1c-0.1,0-0.3,0-0.4,0c-0.3,0-0.5,0.1-0.8,0.2c-0.2,0.1-0.5,0.3-0.7,0.5    v3.9h-0.9v-5.5h0.9v0.8c0.3-0.3,0.6-0.5,0.9-0.6c0.3-0.1,0.5-0.2,0.8-0.2c0.2,0,0.3,0,0.3,0c0.1,0,0.2,0,0.3,0V194.2z"/> 		<path d="M114,198.7h-4.2V198l3-4h-2.9v-0.8h4v0.7l-3,4h3.1V198.7z"/> 		<path d="M119.6,195.9c0,0.9-0.2,1.6-0.6,2.1c-0.4,0.5-1,0.8-1.7,0.8c-0.7,0-1.3-0.3-1.7-0.8c-0.4-0.5-0.6-1.2-0.6-2.1    s0.2-1.6,0.6-2.1c0.4-0.5,1-0.8,1.7-0.8c0.7,0,1.3,0.3,1.7,0.8S119.6,195.1,119.6,195.9z M118.7,195.9c0-0.7-0.1-1.2-0.4-1.6    c-0.3-0.3-0.6-0.5-1.1-0.5c-0.5,0-0.8,0.2-1.1,0.5s-0.4,0.9-0.4,1.6c0,0.7,0.1,1.2,0.4,1.6c0.3,0.4,0.6,0.5,1.1,0.5    c0.5,0,0.8-0.2,1.1-0.5C118.6,197.2,118.7,196.6,118.7,195.9z"/> 	</g> 	<g> 		<path d="M137.9,327.9c0,0.3-0.1,0.6-0.2,0.9c-0.1,0.3-0.3,0.5-0.4,0.7c-0.2,0.3-0.5,0.4-0.8,0.6c-0.3,0.1-0.7,0.2-1.2,0.2h-0.9    v2.7h-0.9v-7.3h1.9c0.4,0,0.8,0,1,0.1s0.5,0.2,0.8,0.3c0.3,0.2,0.5,0.4,0.6,0.7S137.9,327.5,137.9,327.9z M136.9,328    c0-0.3,0-0.5-0.1-0.7c-0.1-0.2-0.2-0.3-0.4-0.5c-0.1-0.1-0.3-0.2-0.5-0.2c-0.2,0-0.4-0.1-0.7-0.1h-0.9v2.9h0.8    c0.4,0,0.7,0,0.9-0.1c0.2-0.1,0.4-0.2,0.6-0.3c0.1-0.2,0.2-0.3,0.3-0.5C136.9,328.4,136.9,328.2,136.9,328z"/> 		<path d="M143.3,333h-0.9v-0.6c-0.3,0.2-0.6,0.4-0.8,0.6s-0.6,0.2-0.9,0.2c-0.5,0-1-0.2-1.3-0.5c-0.3-0.3-0.5-0.9-0.5-1.5v-3.5h0.9    v3.1c0,0.3,0,0.5,0,0.7c0,0.2,0.1,0.4,0.2,0.5c0.1,0.1,0.2,0.2,0.3,0.3s0.3,0.1,0.6,0.1c0.2,0,0.5-0.1,0.7-0.2    c0.3-0.1,0.5-0.3,0.7-0.5v-4.1h0.9V333z"/> 		<path d="M149.3,330.4h-3.8c0,0.3,0,0.6,0.1,0.9c0.1,0.2,0.2,0.5,0.4,0.6c0.2,0.2,0.4,0.3,0.6,0.4s0.5,0.1,0.7,0.1    c0.4,0,0.7-0.1,1.1-0.2c0.4-0.1,0.6-0.3,0.8-0.4h0v1c-0.3,0.1-0.6,0.2-0.9,0.3s-0.6,0.1-1,0.1c-0.9,0-1.5-0.2-2-0.7    c-0.5-0.5-0.7-1.2-0.7-2.1c0-0.9,0.2-1.6,0.7-2.1c0.5-0.5,1.1-0.8,1.8-0.8c0.7,0,1.2,0.2,1.6,0.6c0.4,0.4,0.6,1,0.6,1.8V330.4z     M148.5,329.7c0-0.5-0.1-0.9-0.3-1.1s-0.6-0.4-1-0.4c-0.5,0-0.8,0.1-1.1,0.4s-0.4,0.6-0.5,1.1H148.5z"/> 		<path d="M154.9,333h-0.9v-3.1c0-0.3,0-0.5,0-0.7s-0.1-0.4-0.2-0.5c-0.1-0.1-0.2-0.2-0.3-0.3c-0.1-0.1-0.3-0.1-0.6-0.1    c-0.2,0-0.5,0.1-0.7,0.2s-0.5,0.3-0.7,0.5v4.1h-0.9v-5.5h0.9v0.6c0.3-0.2,0.6-0.4,0.8-0.6c0.3-0.1,0.6-0.2,0.9-0.2    c0.6,0,1,0.2,1.3,0.5c0.3,0.4,0.4,0.9,0.4,1.5V333z"/> 		<path d="M159.3,333c-0.2,0-0.3,0.1-0.5,0.1c-0.2,0-0.4,0-0.5,0c-0.5,0-0.9-0.1-1.2-0.4s-0.4-0.8-0.4-1.4v-2.9H156v-0.8h0.6V326    h0.9v1.6h1.8v0.8h-1.8v2.5c0,0.3,0,0.5,0,0.7s0.1,0.3,0.1,0.5c0.1,0.1,0.2,0.2,0.3,0.3c0.1,0.1,0.3,0.1,0.5,0.1    c0.1,0,0.3,0,0.4-0.1s0.3-0.1,0.3-0.1h0V333z"/> 		<path d="M164.6,330.4h-3.8c0,0.3,0,0.6,0.1,0.9c0.1,0.2,0.2,0.5,0.4,0.6c0.2,0.2,0.4,0.3,0.6,0.4s0.5,0.1,0.7,0.1    c0.4,0,0.7-0.1,1.1-0.2c0.4-0.1,0.6-0.3,0.8-0.4h0v1c-0.3,0.1-0.6,0.2-0.9,0.3s-0.6,0.1-1,0.1c-0.9,0-1.5-0.2-2-0.7    c-0.5-0.5-0.7-1.2-0.7-2.1c0-0.9,0.2-1.6,0.7-2.1c0.5-0.5,1.1-0.8,1.8-0.8c0.7,0,1.2,0.2,1.6,0.6c0.4,0.4,0.6,1,0.6,1.8V330.4z     M163.8,329.7c0-0.5-0.1-0.9-0.3-1.1s-0.6-0.4-1-0.4c-0.5,0-0.8,0.1-1.1,0.4s-0.4,0.6-0.5,1.1H163.8z"/> 		<path d="M173.5,333h-0.9v-0.6c-0.2,0.2-0.5,0.4-0.8,0.5c-0.3,0.1-0.6,0.2-0.9,0.2c-0.6,0-1.1-0.3-1.5-0.8    c-0.4-0.5-0.5-1.2-0.5-2.1c0-0.5,0.1-0.9,0.2-1.2s0.3-0.7,0.5-0.9c0.2-0.2,0.5-0.4,0.7-0.6c0.3-0.1,0.6-0.2,0.9-0.2    c0.3,0,0.5,0,0.7,0.1c0.2,0.1,0.4,0.2,0.7,0.3v-2.4h0.9V333z M172.6,331.7v-3.1c-0.2-0.1-0.4-0.2-0.6-0.2s-0.4-0.1-0.6-0.1    c-0.5,0-0.9,0.2-1.1,0.5s-0.4,0.9-0.4,1.5c0,0.6,0.1,1.1,0.3,1.5c0.2,0.3,0.5,0.5,1,0.5c0.2,0,0.5-0.1,0.7-0.2    C172.1,332,172.4,331.9,172.6,331.7z"/> 		<path d="M179.5,330.4h-3.8c0,0.3,0,0.6,0.1,0.9c0.1,0.2,0.2,0.5,0.4,0.6c0.2,0.2,0.3,0.3,0.6,0.4c0.2,0.1,0.5,0.1,0.7,0.1    c0.4,0,0.7-0.1,1.1-0.2c0.4-0.1,0.6-0.3,0.8-0.4h0v1c-0.3,0.1-0.6,0.2-0.9,0.3c-0.3,0.1-0.6,0.1-1,0.1c-0.9,0-1.5-0.2-2-0.7    c-0.5-0.5-0.7-1.2-0.7-2.1c0-0.9,0.2-1.6,0.7-2.1s1.1-0.8,1.8-0.8c0.7,0,1.2,0.2,1.6,0.6c0.4,0.4,0.6,1,0.6,1.8V330.4z     M178.6,329.7c0-0.5-0.1-0.9-0.3-1.1s-0.6-0.4-1-0.4c-0.5,0-0.8,0.1-1.1,0.4s-0.4,0.6-0.5,1.1H178.6z"/> 		<path d="M139.2,339.4c0,0.7-0.1,1.3-0.4,1.8c-0.3,0.5-0.6,1-1.1,1.3c-0.3,0.2-0.7,0.4-1,0.4c-0.4,0.1-0.9,0.1-1.5,0.1h-1.7v-7.3    h1.7c0.7,0,1.2,0.1,1.6,0.2c0.4,0.1,0.7,0.2,1,0.4c0.5,0.3,0.8,0.7,1.1,1.2C139,338.1,139.2,338.7,139.2,339.4z M138.2,339.4    c0-0.6-0.1-1-0.3-1.4c-0.2-0.4-0.5-0.7-0.8-0.9c-0.3-0.2-0.6-0.3-0.9-0.3c-0.3-0.1-0.7-0.1-1.1-0.1h-0.9v5.6h0.9    c0.4,0,0.8,0,1.2-0.1s0.6-0.2,0.9-0.4c0.3-0.2,0.6-0.5,0.8-0.9C138.1,340.4,138.2,339.9,138.2,339.4z"/> 		<path d="M145,340.3c0,0.9-0.2,1.6-0.6,2.1s-1,0.8-1.7,0.8c-0.7,0-1.3-0.3-1.7-0.8s-0.6-1.2-0.6-2.1s0.2-1.6,0.6-2.1    c0.4-0.5,1-0.8,1.7-0.8c0.7,0,1.3,0.3,1.7,0.8C144.8,338.7,145,339.4,145,340.3z M144.1,340.3c0-0.7-0.1-1.2-0.4-1.6    c-0.3-0.3-0.6-0.5-1.1-0.5c-0.5,0-0.8,0.2-1.1,0.5c-0.3,0.3-0.4,0.9-0.4,1.6c0,0.7,0.1,1.2,0.4,1.6c0.3,0.4,0.6,0.5,1.1,0.5    c0.5,0,0.8-0.2,1.1-0.5C143.9,341.5,144.1,341,144.1,340.3z"/> 		<path d="M153.8,343H153v-3.1c0-0.2,0-0.5,0-0.7s-0.1-0.4-0.1-0.5c-0.1-0.1-0.2-0.2-0.3-0.3s-0.3-0.1-0.6-0.1    c-0.2,0-0.5,0.1-0.7,0.2c-0.2,0.1-0.5,0.3-0.7,0.5c0,0.1,0,0.2,0,0.3c0,0.1,0,0.2,0,0.3v3.5h-0.9v-3.1c0-0.2,0-0.5,0-0.7    c0-0.2-0.1-0.4-0.1-0.5c-0.1-0.1-0.2-0.2-0.3-0.3c-0.1-0.1-0.3-0.1-0.6-0.1c-0.2,0-0.5,0.1-0.7,0.2s-0.5,0.3-0.7,0.5v4.1h-0.9    v-5.5h0.9v0.6c0.3-0.2,0.5-0.4,0.8-0.6c0.3-0.1,0.6-0.2,0.9-0.2c0.4,0,0.6,0.1,0.9,0.2c0.2,0.2,0.4,0.4,0.5,0.6    c0.4-0.3,0.7-0.5,1-0.7c0.3-0.1,0.6-0.2,0.9-0.2c0.6,0,1,0.2,1.3,0.5c0.3,0.4,0.4,0.9,0.4,1.5V343z"/> 		<path d="M156.4,336.7h-1v-1h1V336.7z M156.4,343h-0.9v-5.5h0.9V343z"/> 		<path d="M162.4,343h-0.9v-3.1c0-0.3,0-0.5,0-0.7c0-0.2-0.1-0.4-0.2-0.5c-0.1-0.1-0.2-0.2-0.3-0.3c-0.1-0.1-0.3-0.1-0.6-0.1    c-0.2,0-0.5,0.1-0.7,0.2s-0.5,0.3-0.7,0.5v4.1h-0.9v-5.5h0.9v0.6c0.3-0.2,0.6-0.4,0.8-0.6s0.6-0.2,0.9-0.2c0.6,0,1,0.2,1.3,0.5    c0.3,0.4,0.4,0.9,0.4,1.5V343z"/> 		<path d="M168.3,342.4c0,0.9-0.2,1.6-0.6,2c-0.4,0.4-1,0.6-1.8,0.6c-0.3,0-0.5,0-0.8-0.1c-0.3,0-0.5-0.1-0.8-0.2v-0.9h0    c0.1,0.1,0.4,0.1,0.7,0.2c0.3,0.1,0.6,0.1,0.9,0.1c0.3,0,0.5,0,0.7-0.1s0.3-0.2,0.5-0.3c0.1-0.1,0.2-0.3,0.2-0.5    c0-0.2,0.1-0.4,0.1-0.6v-0.5c-0.3,0.2-0.5,0.4-0.8,0.5c-0.2,0.1-0.5,0.2-0.9,0.2c-0.6,0-1.1-0.2-1.5-0.7c-0.4-0.5-0.5-1.1-0.5-2    c0-0.5,0.1-0.9,0.2-1.2c0.1-0.3,0.3-0.6,0.5-0.9c0.2-0.2,0.4-0.4,0.7-0.5c0.3-0.1,0.6-0.2,0.9-0.2c0.3,0,0.5,0,0.8,0.1    c0.2,0.1,0.4,0.2,0.6,0.3l0.1-0.2h0.8V342.4z M167.4,341.5v-3c-0.2-0.1-0.4-0.2-0.6-0.2c-0.2,0-0.4-0.1-0.6-0.1    c-0.5,0-0.9,0.2-1.1,0.5s-0.4,0.8-0.4,1.5c0,0.6,0.1,1.1,0.3,1.4s0.5,0.5,1,0.5c0.3,0,0.5-0.1,0.8-0.2S167.2,341.7,167.4,341.5z"/> 		<path d="M174.4,340.3c0,0.9-0.2,1.6-0.6,2.1s-1,0.8-1.7,0.8c-0.7,0-1.3-0.3-1.7-0.8s-0.6-1.2-0.6-2.1s0.2-1.6,0.6-2.1    c0.4-0.5,1-0.8,1.7-0.8c0.7,0,1.3,0.3,1.7,0.8C174.1,338.7,174.4,339.4,174.4,340.3z M173.5,340.3c0-0.7-0.1-1.2-0.4-1.6    c-0.3-0.3-0.6-0.5-1.1-0.5c-0.5,0-0.8,0.2-1.1,0.5c-0.3,0.3-0.4,0.9-0.4,1.6c0,0.7,0.1,1.2,0.4,1.6c0.3,0.4,0.6,0.5,1.1,0.5    c0.5,0,0.8-0.2,1.1-0.5C173.3,341.5,173.5,341,173.5,340.3z"/> 		<path d="M183.5,336.6H180v2.1h3v0.9h-3v3.5h-0.9v-7.3h4.4V336.6z"/> 		<path d="M185.3,343h-0.9v-7.6h0.9V343z"/> 		<path d="M191.4,340.3c0,0.9-0.2,1.6-0.6,2.1s-1,0.8-1.7,0.8c-0.7,0-1.3-0.3-1.7-0.8s-0.6-1.2-0.6-2.1s0.2-1.6,0.6-2.1    c0.4-0.5,1-0.8,1.7-0.8c0.7,0,1.3,0.3,1.7,0.8C191.2,338.7,191.4,339.4,191.4,340.3z M190.6,340.3c0-0.7-0.1-1.2-0.4-1.6    c-0.3-0.3-0.6-0.5-1.1-0.5c-0.5,0-0.8,0.2-1.1,0.5c-0.3,0.3-0.4,0.9-0.4,1.6c0,0.7,0.1,1.2,0.4,1.6c0.3,0.4,0.6,0.5,1.1,0.5    c0.5,0,0.8-0.2,1.1-0.5C190.4,341.5,190.6,341,190.6,340.3z M190.5,334.8l-1.3,1.8h-0.7l0.8-1.8H190.5z"/> 		<path d="M196,338.6L196,338.6c-0.2,0-0.3-0.1-0.4-0.1s-0.3,0-0.4,0c-0.3,0-0.5,0.1-0.8,0.2c-0.2,0.1-0.5,0.3-0.7,0.5v3.9h-0.9    v-5.5h0.9v0.8c0.3-0.3,0.6-0.5,0.9-0.6c0.3-0.1,0.5-0.2,0.8-0.2c0.2,0,0.3,0,0.3,0c0.1,0,0.2,0,0.3,0V338.6z"/> 		<path d="M201.1,340.4h-3.8c0,0.3,0,0.6,0.1,0.9c0.1,0.2,0.2,0.5,0.4,0.6c0.2,0.2,0.4,0.3,0.6,0.4s0.5,0.1,0.7,0.1    c0.4,0,0.7-0.1,1.1-0.2c0.4-0.1,0.6-0.3,0.8-0.4h0v1c-0.3,0.1-0.6,0.2-0.9,0.3s-0.6,0.1-1,0.1c-0.9,0-1.5-0.2-2-0.7    c-0.5-0.5-0.7-1.2-0.7-2.1c0-0.9,0.2-1.6,0.7-2.1c0.5-0.5,1.1-0.8,1.8-0.8c0.7,0,1.2,0.2,1.6,0.6c0.4,0.4,0.6,1,0.6,1.8V340.4z     M200.3,339.7c0-0.5-0.1-0.9-0.3-1.1s-0.6-0.4-1-0.4c-0.5,0-0.8,0.1-1.1,0.4s-0.4,0.6-0.5,1.1H200.3z"/> 		<path d="M206.2,343H202v-0.7l3-4h-2.9v-0.8h4v0.7l-3,4h3.1V343z"/> 	</g> 	<g> 		<path d="M285.3,248.9c0,0.4-0.1,0.7-0.2,1c-0.1,0.3-0.3,0.5-0.5,0.7c-0.3,0.2-0.5,0.4-0.9,0.5c-0.3,0.1-0.7,0.1-1.2,0.1h-2.4v-7.3    h2c0.5,0,0.9,0,1.1,0.1s0.5,0.1,0.7,0.2c0.3,0.1,0.4,0.3,0.5,0.5c0.1,0.2,0.2,0.5,0.2,0.8c0,0.3-0.1,0.6-0.2,0.9    c-0.2,0.2-0.4,0.4-0.7,0.6v0c0.5,0.1,0.8,0.3,1.1,0.6C285.2,248,285.3,248.4,285.3,248.9z M283.8,245.6c0-0.2,0-0.3-0.1-0.4    c-0.1-0.1-0.1-0.2-0.3-0.3c-0.1-0.1-0.3-0.1-0.5-0.2c-0.2,0-0.5,0-0.8,0H281v2.1h1.2c0.3,0,0.5,0,0.7,0c0.2,0,0.3-0.1,0.5-0.2    s0.2-0.2,0.3-0.4C283.8,246,283.8,245.8,283.8,245.6z M284.4,248.9c0-0.3,0-0.5-0.1-0.7s-0.2-0.3-0.5-0.4    c-0.1-0.1-0.3-0.1-0.5-0.2c-0.2,0-0.5,0-0.8,0H281v2.7h1.2c0.4,0,0.7,0,1-0.1c0.3,0,0.5-0.1,0.6-0.2c0.2-0.1,0.3-0.3,0.4-0.4    C284.3,249.4,284.4,249.2,284.4,248.9z"/> 		<path d="M290.9,248.5h-3.8c0,0.3,0,0.6,0.1,0.9s0.2,0.5,0.4,0.6c0.2,0.2,0.3,0.3,0.6,0.4s0.5,0.1,0.7,0.1c0.4,0,0.7-0.1,1.1-0.2    c0.4-0.1,0.6-0.3,0.8-0.4h0v1c-0.3,0.1-0.6,0.2-0.9,0.3s-0.6,0.1-1,0.1c-0.9,0-1.5-0.2-2-0.7c-0.5-0.5-0.7-1.2-0.7-2.1    c0-0.9,0.2-1.6,0.7-2.1c0.5-0.5,1.1-0.8,1.8-0.8c0.7,0,1.2,0.2,1.6,0.6c0.4,0.4,0.6,1,0.6,1.8V248.5z M290,247.8    c0-0.5-0.1-0.9-0.3-1.1c-0.2-0.3-0.6-0.4-1-0.4c-0.5,0-0.8,0.1-1.1,0.4s-0.4,0.6-0.5,1.1H290z"/> 		<path d="M299.7,251.1h-0.9V248c0-0.2,0-0.5,0-0.7c0-0.2-0.1-0.4-0.1-0.5c-0.1-0.1-0.2-0.2-0.3-0.3c-0.1-0.1-0.3-0.1-0.6-0.1    c-0.2,0-0.5,0.1-0.7,0.2c-0.2,0.1-0.5,0.3-0.7,0.5c0,0.1,0,0.2,0,0.3c0,0.1,0,0.2,0,0.3v3.5h-0.9V248c0-0.2,0-0.5,0-0.7    c0-0.2-0.1-0.4-0.1-0.5c-0.1-0.1-0.2-0.2-0.3-0.3c-0.1-0.1-0.3-0.1-0.6-0.1c-0.2,0-0.5,0.1-0.7,0.2s-0.5,0.3-0.7,0.5v4.1h-0.9    v-5.5h0.9v0.6c0.3-0.2,0.5-0.4,0.8-0.6c0.3-0.1,0.6-0.2,0.9-0.2c0.4,0,0.6,0.1,0.9,0.2c0.2,0.2,0.4,0.4,0.5,0.6    c0.4-0.3,0.7-0.5,1-0.7c0.3-0.1,0.6-0.2,0.9-0.2c0.6,0,1,0.2,1.3,0.5c0.3,0.4,0.4,0.9,0.4,1.5V251.1z"/> 		<path d="M305.9,248.4c0,0.5-0.1,0.9-0.2,1.2c-0.1,0.4-0.3,0.7-0.5,0.9c-0.2,0.3-0.5,0.5-0.7,0.6c-0.3,0.1-0.5,0.2-0.9,0.2    c-0.3,0-0.5,0-0.8-0.1c-0.2-0.1-0.4-0.2-0.6-0.3l-0.1,0.3h-0.8v-7.6h0.9v2.7c0.2-0.2,0.5-0.4,0.8-0.5c0.3-0.1,0.6-0.2,0.9-0.2    c0.6,0,1.1,0.2,1.4,0.7S305.9,247.5,305.9,248.4z M305,248.4c0-0.7-0.1-1.1-0.3-1.5s-0.5-0.5-1-0.5c-0.3,0-0.5,0.1-0.8,0.2    c-0.3,0.1-0.5,0.3-0.7,0.4v3.1c0.2,0.1,0.5,0.2,0.6,0.2c0.2,0,0.4,0.1,0.6,0.1c0.5,0,0.9-0.2,1.1-0.5    C304.9,249.6,305,249.1,305,248.4z"/> 		<path d="M308.2,244.8h-1v-1h1V244.8z M308.1,251.1h-0.9v-5.5h0.9V251.1z"/> 		<path d="M314.4,248.4c0,0.5-0.1,0.9-0.2,1.2c-0.1,0.4-0.3,0.7-0.5,0.9c-0.2,0.3-0.5,0.5-0.7,0.6c-0.3,0.1-0.5,0.2-0.9,0.2    c-0.3,0-0.5,0-0.8-0.1c-0.2-0.1-0.4-0.2-0.6-0.3l-0.1,0.3h-0.8v-7.6h0.9v2.7c0.2-0.2,0.5-0.4,0.8-0.5c0.3-0.1,0.6-0.2,0.9-0.2    c0.6,0,1.1,0.2,1.4,0.7C314.2,246.8,314.4,247.5,314.4,248.4z M313.5,248.4c0-0.7-0.1-1.1-0.3-1.5s-0.5-0.5-1-0.5    c-0.3,0-0.5,0.1-0.8,0.2c-0.3,0.1-0.5,0.3-0.7,0.4v3.1c0.2,0.1,0.5,0.2,0.6,0.2s0.4,0.1,0.6,0.1c0.5,0,0.9-0.2,1.1-0.5    C313.3,249.6,313.5,249.1,313.5,248.4z"/> 		<path d="M318.9,246.7L318.9,246.7c-0.2,0-0.3-0.1-0.4-0.1c-0.1,0-0.3,0-0.4,0c-0.3,0-0.5,0.1-0.8,0.2c-0.2,0.1-0.5,0.3-0.7,0.5    v3.9h-0.9v-5.5h0.9v0.8c0.3-0.3,0.6-0.5,0.9-0.6s0.5-0.2,0.8-0.2c0.2,0,0.3,0,0.3,0c0.1,0,0.2,0,0.3,0V246.7z"/> 		<path d="M324.1,248.5h-3.8c0,0.3,0,0.6,0.1,0.9s0.2,0.5,0.4,0.6c0.2,0.2,0.3,0.3,0.6,0.4s0.5,0.1,0.7,0.1c0.4,0,0.7-0.1,1.1-0.2    c0.4-0.1,0.6-0.3,0.8-0.4h0v1c-0.3,0.1-0.6,0.2-0.9,0.3s-0.6,0.1-1,0.1c-0.9,0-1.5-0.2-2-0.7c-0.5-0.5-0.7-1.2-0.7-2.1    c0-0.9,0.2-1.6,0.7-2.1c0.5-0.5,1.1-0.8,1.8-0.8c0.7,0,1.2,0.2,1.6,0.6c0.4,0.4,0.6,1,0.6,1.8V248.5z M323.2,247.8    c0-0.5-0.1-0.9-0.3-1.1c-0.2-0.3-0.6-0.4-1-0.4c-0.5,0-0.8,0.1-1.1,0.4s-0.4,0.6-0.5,1.1H323.2z"/> 	</g> </g> <g id="simbols_saca"> 	<circle style="fill:#5B7EBD;" cx="301.3" cy="235.9" r="2.4"/> 	<circle style="fill:#5B7EBD;" cx="273.5" cy="184.1" r="2.4"/> 	<circle style="fill:#5B7EBD;" cx="210.5" cy="231.6" r="2.4"/> 	<circle style="fill:#5B7EBD;" cx="229.8" cy="276.1" r="2.4"/> 	<circle style="fill:#5B7EBD;" cx="131" cy="348.1" r="2.4"/> 	<circle style="fill:#5B7EBD;" cx="219" cy="156.1" r="2.4"/> 	<circle style="fill:#5B7EBD;" cx="279.3" cy="128.9" r="2.4"/> 	<circle style="fill:#5B7EBD;" cx="369.3" cy="178.6" r="2.4"/> 	<circle style="fill:#5B7EBD;" cx="91" cy="207.6" r="2.4"/> </g> <g id="llegenda"> 	<line style="fill:none;stroke:#9A9A9A;stroke-width:2;stroke-miterlimit:10;" x1="653.4" y1="96.1" x2="653.4" y2="125.6"/> 	<line style="fill:none;stroke:#9A9A9A;stroke-miterlimit:10;" x1="686.9" y1="96.1" x2="686.9" y2="125.6"/> 	<g> 		<path d="M661.2,106.5h0.9v7.1h-0.9V106.5z"/> 		<path d="M664.5,107.4c0,0.3-0.2,0.5-0.6,0.5c-0.3,0-0.5-0.2-0.5-0.5s0.2-0.5,0.5-0.5C664.3,106.8,664.5,107.1,664.5,107.4z     M663.5,113.6v-4.8h0.9v4.8H663.5z"/> 		<path d="M665.9,110.1c0-0.5,0-0.9,0-1.3h0.8l0,0.8h0c0.2-0.4,0.8-0.9,1.6-0.9c0.7,0,1.7,0.4,1.7,2.1v2.9h-0.9v-2.8    c0-0.8-0.3-1.4-1.1-1.4c-0.6,0-1,0.4-1.2,0.9c0,0.1-0.1,0.3-0.1,0.4v2.9h-0.9V110.1z"/> 	</g> 	<line style="fill:none;stroke:#696969;stroke-width:2;stroke-miterlimit:10;" x1="653.4" y1="135.7" x2="653.4" y2="165.2"/> 	<g> 		<path d="M661.2,146.1h0.9v7.1h-0.9V146.1z"/> 		<path d="M664.5,147c0,0.3-0.2,0.5-0.6,0.5c-0.3,0-0.5-0.2-0.5-0.5s0.2-0.5,0.5-0.5C664.3,146.4,664.5,146.7,664.5,147z     M663.5,153.2v-4.8h0.9v4.8H663.5z"/> 		<path d="M665.9,149.6c0-0.5,0-0.9,0-1.3h0.8l0,0.8h0c0.2-0.4,0.8-0.9,1.6-0.9c0.7,0,1.7,0.4,1.7,2.1v2.9h-0.9v-2.8    c0-0.8-0.3-1.4-1.1-1.4c-0.6,0-1,0.4-1.2,0.9c0,0.1-0.1,0.3-0.1,0.4v2.9h-0.9V149.6z"/> 	</g> 	<rect x="648.1" y="71.5" style="fill:#BFBFBF;" width="16.3" height="15.3"/> 	<rect x="648.1" y="43.8" style="fill:#DCE9FB;" width="16.3" height="15.3"/> 	<rect x="616.7" y="43.8" style="fill:#D0E0A4;" width="16.3" height="15.3"/> 	<g> 		<path d="M673.6,80.8v-4.2h-0.7V76h0.7v-0.2c0-0.7,0.2-1.3,0.6-1.7c0.3-0.3,0.8-0.4,1.2-0.4c0.3,0,0.6,0.1,0.7,0.1l-0.1,0.7    c-0.1-0.1-0.3-0.1-0.6-0.1c-0.7,0-0.9,0.6-0.9,1.4V76h1.2v0.7h-1.2v4.2H673.6z"/> 		<path d="M680.7,78.4c0,1.8-1.2,2.6-2.4,2.6c-1.3,0-2.3-1-2.3-2.5c0-1.6,1.1-2.6,2.4-2.6C679.8,75.9,680.7,76.9,680.7,78.4z     M676.9,78.4c0,1.1,0.6,1.9,1.5,1.9c0.8,0,1.5-0.8,1.5-1.9c0-0.8-0.4-1.8-1.4-1.8C677.3,76.6,676.9,77.5,676.9,78.4z"/> 		<path d="M681.8,77.3c0-0.5,0-0.9,0-1.3h0.8l0.1,0.8h0c0.2-0.4,0.8-0.9,1.6-0.9c0.7,0,1.7,0.4,1.7,2.1v2.9H685v-2.8    c0-0.8-0.3-1.4-1.1-1.4c-0.6,0-1,0.4-1.2,0.9c0,0.1-0.1,0.3-0.1,0.4v2.9h-0.9V77.3z"/> 		<path d="M687.2,80c0.3,0.2,0.7,0.3,1.2,0.3c0.6,0,0.9-0.3,0.9-0.7c0-0.4-0.3-0.6-0.9-0.9c-0.9-0.3-1.3-0.8-1.3-1.4    c0-0.8,0.6-1.4,1.7-1.4c0.5,0,0.9,0.1,1.2,0.3l-0.2,0.6c-0.2-0.1-0.5-0.3-1-0.3c-0.5,0-0.8,0.3-0.8,0.7c0,0.4,0.3,0.6,0.9,0.8    c0.8,0.3,1.3,0.7,1.3,1.4c0,0.9-0.7,1.5-1.8,1.5c-0.5,0-1-0.1-1.4-0.3L687.2,80z"/> 	</g> 	<g> 		<path d="M673.5,50c0-0.5,0-0.9,0-1.3h0.8l0,0.8h0c0.3-0.5,0.7-0.9,1.5-0.9c0.6,0,1.1,0.4,1.4,1h0c0.1-0.3,0.3-0.5,0.5-0.6    c0.3-0.2,0.6-0.3,1.1-0.3c0.6,0,1.6,0.4,1.6,2.1v2.8h-0.9v-2.7c0-0.9-0.3-1.5-1-1.5c-0.5,0-0.9,0.4-1,0.8c0,0.1-0.1,0.3-0.1,0.4v3    h-0.9v-2.9c0-0.8-0.3-1.3-1-1.3c-0.5,0-0.9,0.4-1.1,0.9c0,0.1-0.1,0.3-0.1,0.4v2.9h-0.9V50z"/> 		<path d="M685.3,52.3c0,0.4,0,0.8,0.1,1.2h-0.8l-0.1-0.6h0c-0.3,0.4-0.8,0.7-1.5,0.7c-1,0-1.5-0.7-1.5-1.4c0-1.2,1-1.8,2.9-1.8    v-0.1c0-0.4-0.1-1.1-1.1-1.1c-0.5,0-0.9,0.1-1.3,0.4l-0.2-0.6c0.4-0.3,1-0.4,1.6-0.4c1.5,0,1.8,1,1.8,2V52.3z M684.4,51    c-1,0-2,0.1-2,1.1c0,0.6,0.4,0.8,0.8,0.8c0.6,0,1-0.4,1.2-0.8c0-0.1,0-0.2,0-0.3V51z"/> 		<path d="M686.7,50.2c0-0.6,0-1.1,0-1.5h0.8l0,1h0c0.2-0.6,0.8-1.1,1.3-1.1c0.1,0,0.2,0,0.2,0v0.8c-0.1,0-0.2,0-0.3,0    c-0.6,0-1.1,0.5-1.2,1.1c0,0.1,0,0.3,0,0.4v2.6h-0.9V50.2z"/> 	</g> 	<circle style="fill-rule:evenodd;clip-rule:evenodd;fill:#5B7EBD;" cx="653.4" cy="180.3" r="2.4"/> 	<rect x="572.6" y="71.5" style="fill:#BFBFBF;stroke:#696969;stroke-width:2;stroke-miterlimit:10;" width="16.3" height="15.3"/> 	<rect x="598.8" y="71.5" style="fill:#FFFBF0;stroke:#9A9A9A;stroke-width:2;stroke-miterlimit:10;" width="16.3" height="15.3"/> 	<rect x="589.6" y="102.1" style="opacity:0.6;fill:#FFFBF0;" width="51" height="17.5"/> </g> </svg>