<svg xmlns="http://www.w3.org/2000/svg" xmlns:xlink="http://www.w3.org/1999/xlink" version="1.1" x="0px" y="0px" width="450px" height="450px" viewBox="0 0 450 450" style="enable-background:new 0 0 450 450;" xml:space="preserve">
<g id="Capa_10">
	<rect x="-20.5" y="-18.5" style="fill:#DCE9FB;" width="503.3" height="492.7"/>
</g>
<g id="provincies_x5F_joan_x5F_2">
	<a xlink:href="OURENSE">
		<path style="fill:#BFBFBF;stroke:#696969;stroke-width:2;stroke-miterlimit:10;" d="M502.8,159.5c-18.8-11.1-44.9-15.8-55.3-33.5    c-4.3-7.3-5.4-11.8-21.5-22c-13.7-8.6,0-7.2,0.1-12.5c0-3.9-5.1-9-4.6-9.7c1.7-2.5,4.5-11.3,3.8-21c-0.8-9.8-5-19.8-8-29.2    c-7.2-23-6.6-44.6-7.1-70c26.1-0.4,52.3-0.8,78.4-1.2c15.6-0.2,9,24,9.4,37.2C499.6,51.5,501.2,105.5,502.8,159.5L502.8,159.5z"/>
	</a>
	<a xlink:href="PORTUGAL">
		<path style="fill:#63605F;stroke:#696969;stroke-width:2;stroke-miterlimit:10;" d="M98.8,481.5c18.6-16.2,35.4-35.2,59.2-43    c10.9-3.5,18.7-6.8,24.4-16.8c5.8-10,6.9-22.9,10.8-30.5c11.4-22.7,34.1-16.8,54.3-17c8.9-0.1,16.4,0.3,24.2-5.1    c3.4-2.3,10.3-4.5,9.1-8.9c-0.8-2.7-3.9-9.4,0.9-9.6c19.1-0.7,50.4-12.9,64.4,2.9c8,9,24.2-13.8,30.2-2.7    c3.3,6.1,9.9-9.9,16.8-10.7c7.7-0.9,14.8,5.1,20.2,4.5c3.6-0.4,6.6-4.6,8.2-13.1c1.6-9,13-2.2,18.2-9c11.6-15.2,39.5-26,56.6-36.4    c-3,55.2-5.9,110.5-8.9,165.7c-0.2,3.2-1.7,45.7-3,45.6c-16-0.7-32.1-1.3-48.1-2C323.7,490.8,211.3,486.2,98.8,481.5L98.8,481.5z"/>
	</a>
</g>
<g id="comarques_1">
	<a xlink:href="O Morrazo">
		<path style="fill-rule:evenodd;clip-rule:evenodd;fill:#BFBFBF;stroke:#696969;stroke-width:2;stroke-miterlimit:10;" d="    M189.3,148.3c0,0-12.2,10.9-22.9,13.7c-7,1.8-6.1-3.2-13.8,3.7c-0.5-4.1-3.3-8.4-3.2-12.5c-0.3,1.4-1.7,3-2,5.6    c-2.3-2.4-4.5-1.9-7.4-4c-1.6,4.8-4.8,12.2-5.2,14.9c-15.6,3.5-13.5,13.2-31.5,6.9c0,0-1.1,10.2-5.9,15.4    c-4.6-2.4-9.1-4.8-12.6-9.7c-5.2-7.4-5.3,6.3-9.5,5.2c-9.8-2.5-25.9-19.2-27.4,4.4c-1.5-0.7-5.8-3-6.5-3.4c4-15,6.3-40,12.4-55.7    c5.6,8.9,15.5,37,26.5,29.1c-8.9-7.6,3.9-38.7-14-55.8c3.4-3.3,17.2-3,21.2-0.2c38.8,27.7,44.8-29.2,49.1-34    c5.4-0.1,28.8-23,28.8-23c11.9,11.3,18,20.6,12.2,38.2c-3.4,10.4-12.7,15.1-8.1,28.8C169.5,116.1,180.6,135.9,189.3,148.3z"/>
	</a>
	<a xlink:href="O Salnes">
		<path style="fill:#BFBFBF;stroke:#696969;stroke-width:2;stroke-miterlimit:10;" d="M43.1,12.6c-5.9-17.8-7.6-37.4-11-55.8    c6.5,3.4,16.1,11.2,23.3,12c8.5,1,20.1-7.9,28.7-9.3c20.3-3.4,42.7-1.8,63.3-2.7c-0.8,8.4-0.8,68.9-19.3,55.6    c-2.2,6.4-9.5,28.1-6.1,32.9c3.5,5.1-4.5,9.9-8.7,9.1c-0.7,3-1.8,3.8-3.1,6.3c-3.1-8.6-26-18.9-36.2,0.8c-5.3,0-1.2-2.3-8.1,2.2    c-3.3-5.2-5.7-14.6-13.1-12.1C53.3,38.3,30.2,39.6,43.1,12.6L43.1,12.6z"/>
	</a>
	<a xlink:href="Pontevedra - Comarca">
		<path style="fill:#BFBFBF;stroke:#696969;stroke-width:2;stroke-miterlimit:10;" d="M340.8,88c-8.3-4.3-19.1,8.4-28.1,19.6    c0-8.9-11.7-10.4-18.1-6.9c-4.3,2.3-10,7.8-10,7.8c-0.3-5.5-9.6-6.6-17.4-2c-3.7-11.5-5.7-22.4-15.2-28.7    c-3.7,8.4-7.3,16.8-11,25.2c0,0-30.3-7.9-29.7-7.5c-5.9,2.4-9.7,8.8-11.1,13.6c12.4,6-1.1,10.5-3.4,16.8c-1.2-0.9-2.4-1.9-3.6-2.8    c-11.7,11,5.6,18-4.6,26.5c0.3,0.5-11.7-16.8-17.1-27.7c-2.2-4.4-8.1-14.1,2.6-28.6c8.5-11.6,8.9-32.9-9.9-43.2    c7.1-3.1,33.1-23.7,27.8-30.1c-5.8,5.1-23.9,12.4-22.7-7.5c-7.1,4.1-46,39.6-47.9,33.1c-3-10.3,3.7-23.6,6.9-33.1    c16.9,12.1,16.9-30.2,17.6-37.7c1.9-20.4,0.7-17.9,20-17.5c56.2,1,112.4,2,168.6,3c21.3,0.4,42.5,0.8,63.8,1.1    c19.5,0.3,12.3,12.6,12.7,31.5c0.3,16,3.5,27.2,7.6,43.1c2.2,8.5,8.7,22,7.9,30.8c-0.5,4.9-3.4,10.7-4.1,15.8    c-14.3-10.8-58.4-5.9-55.9,17.7c0.1,0.6-22.7,10.4-23.2-9.1L340.8,88z"/>
	</a>
	<a xlink:href="Pontevedra - Comarca">
		<path style="fill:#BFBFBF;stroke:#696969;stroke-width:2;stroke-miterlimit:10;" d="M156.5,42.5c-1-1.6-1.9-3.1-2.9-4.7    c0.9-0.7,1.8-1.3,2.6-2C160.1,39,156.2,39.2,156.5,42.5L156.5,42.5z"/>
	</a>
	<a xlink:href="O Condado, A Paradanta">
		<path style="fill:#BFBFBF;stroke:#696969;stroke-width:2;stroke-miterlimit:10;" d="M389.3,340.2c-1.1,2.5-5.3,9.7-7.7,10.9    c-6.2,3.2-7.8-3.4-9-3.1c-6.4,1.7-21.5,10.9-26.4,5.4c-13.8-15.5-41.5-3.7-60-3.1c-14.8,0.5-1.4,5.8-6.5,13.3    c-8.7,12.9-27.7,10.2-25.7,9.7c9.3-2.3,4.9-10,11.3-19.3c4.1-6-2.3-24.1,7.1-25.1c-0.1-12.1,3.3-26.5-8.4-35.1    c-7.9-5.9-10.5-9.8-18.8-8c-0.5,0.1-1.5-28.2-8.3-30.5c-1.5-0.5,8.4-19.3,9.7-21.6c3.5-6,6.6-16.9,7.3-26.2    c0.5-6-1.1-11.6-0.8-14.2c0.7-5.6,8.7-6.7,16.3-7.7c20.8-2.5,29.2-27.8,41.4-34.1c8.2,13,35.2-6.2,43.6-8.3    c7.7,20.4,25-16.6,29.7-20c3.7-2.7,10.5-2.4,13.4-3.9c15.1-7.6,13.2-9.8,22.9-21.6c2.6,7.3,19.5,11.5,24.3,23.3    c4.7,11.5,22.8,17.8,33.5,24.1c16.6,9.9,24.4,9.3,24.6,27.9c0.3,24.9,0.5,49.7,0.8,74.6c0.1,10.6,5.4,30.2-4.5,36.3    c-17.9,11-35.7,21.9-53.6,32.9c-1.6,1-4.9,4-6.1,5.7c-4.4,5.8-11.4,1.9-15.6,4.7c-5.4,3.7-1.1,14.7-8.3,17.6    C407.5,348.1,399.7,336.5,389.3,340.2L389.3,340.2z"/>
	</a>
	<a xlink:href="O Mino Baixo">
		<path style="fill:#BFBFBF;stroke:#696969;stroke-width:2;stroke-miterlimit:10;" d="M30.2,483.5c-0.6-21.7,1.8-40.8,2.8-59.7    c0.3-6.8-0.1-19.9-4.1-27.5c9-7.3,0.4-21.1-1.2-30.1c-2.3-12.7-2.6-30.5-3.9-42.8c6.3,6.8,14.1,20.5,13.8,28.6    c5.1-3.1,29.7-7.8,31.1,6.4c2,20.5,3.7,17.5,17.3,8.3c15.4-10.5,51.2,5.8,54.9-9.5c2.3-9.5,41.6-19,32.6-29.1    c9.1-7,20.8-7.5,32.8-10.7c-2.4,4.8,1.2,22.6-0.5,23.1c9.9,6.1,11.7,3.7,20,4.5c-11.7,15.1,12,19,21.8,7.8    c3.3,9.5,7.3,9.7,14.7,9.5c-2.2,23.4-36.2,4.4-55.8,15.2c-23.4,12.9-11.7,39.3-32.7,54c-9.2,6.4-23.5,9.4-34.1,15.1    c-11.7,6.3-22,18.6-32,27.4C89.1,490,54,482.8,30.2,483.5L30.2,483.5z"/>
	</a>
</g>
<g id="esp_x5F_muni_x5F_1101">
	<a xlink:href="Gondomar">
		<g>
			<a xlink:href="Gondomar">
				<path style="fill-rule:evenodd;clip-rule:evenodd;fill:#FFFBF0;stroke:#9A9A9A;stroke-width:2;stroke-miterlimit:10;" d="      M134.6,267.4c11.4,3.9,28,21.5,28.4,32.8c0.5,14.4,2.3,13.8,5.5,25.4c3.4,12.2,3.2,11.4-7.1,18.8c-1.4,1-19.3,8.2-20.5,12.8      c-3.7,14.4-38.7,0.8-57.4,11.5c0,0,3.6-11.6,1.5-25c-1.5-9.4-3.3-21.5-2.2-29.3C115.6,330.3,117,285.9,134.6,267.4L134.6,267.4z      "/>
			</a>
		</g>
	</a>
	<a xlink:href="Soutomaior">
		<g>
			<a xlink:href="Soutomaior">
				<path style="fill-rule:evenodd;clip-rule:evenodd;fill:#FFFBF0;stroke:#9A9A9A;stroke-width:2;stroke-miterlimit:10;" d="      M223,98l18,4.7c3.7-8.4,7.3-16.8,11-25.2c9.5,6.3,11.5,17.2,15.2,28.7c9-5.2,15.6-1.5,16.4-1.5c2.1,4.9,1.1,9.2-3.2,13.5      c-4.4,4.3-12,8.7-17,11.8c-6,3.7-8.9,6.8-8.9,6.8c-1.8-1.1-1.8-5.2-4.9-8.1c-5.4-5.1-14.8-9.6-21.8-10.8      c-11.2-1.8-7.4-8.4-5.2-17.6L223,98z"/>
			</a>
		</g>
	</a>
	<a xlink:href="Fornelos de Montes">
		<g>
			<a xlink:href="Fornelos de Montes">
				<path style="fill-rule:evenodd;clip-rule:evenodd;fill:#FFFBF0;stroke:#9A9A9A;stroke-width:2;stroke-miterlimit:10;" d="      M420.6,97.7c-8.2,10-7.2,14.7-19.8,21c-6.7,3.4-12,1.3-16.5,4.5c-4.8,3.4-22.1,40.4-29.7,20c-11.2,2.8-36.9,23.8-43.6,8.3      c-0.8-1.7-3.5-28-3.5-28l-24.1-8.5c-0.5-1.4,1.3-4.9,1.8-7.4c1.7-8.4,27.4-14.3,27.4,0c10-12.5,28-38.2,33.4-8.5      c1.4,7.7,20.4,1,20.4,1c-2.4-21.6,23.1-22.1,38-23.4C418.1,75.6,432.5,90.3,420.6,97.7L420.6,97.7z"/>
			</a>
		</g>
	</a>
	<a xlink:href="Redondela">
		<g>
			<a xlink:href="Redondela">
				<path style="fill-rule:evenodd;clip-rule:evenodd;fill:#FFFBF0;stroke:#9A9A9A;stroke-width:2;stroke-miterlimit:10;" d="      M220.6,115.3c18.6,3,32.9,14.2,33.8,21.5c1.6,13.2,0.4,30.9-10.5,35.8c-9.9,4.5-7.7,8.2-9.6,20.4c0,0-4.6,0.6-7.8,3.8      c-5.9,5.9-0.3,16.9-14.9,10.8c-2.9-1.2-13-17.3-16.5-20.6c-4.6-4.4-12,0.4-13.8-0.7c-6.8-4-5.6-8-0.8-15.6      c6.1-9.6,8.8-15.7,19.7-13.7c26.5,5,17.9-21.2,11.9-22.3C219.5,132,221.8,119.5,220.6,115.3L220.6,115.3z"/>
			</a>
		</g>
	</a>
	<a xlink:href="Pazos de Borben">
		<g>
			<a xlink:href="Pazos de Boben">
				<path style="fill-rule:evenodd;clip-rule:evenodd;fill:#FFFBF0;stroke:#9A9A9A;stroke-width:2;stroke-miterlimit:10;" d="      M254.4,136.8c8.8-9.9,21.6-10.8,29.1-21.8c5,1.6,19,6.4,24.3,7.7c0,0,3.4,28.2,3.3,28.8c0,0-4,2.7-10.6,10.6      c-8.3,9.9-18.7,22-30.8,23.4c-9.3,1.1-12.4,5.5-16.6,7.2c0,0-6.5,0.5-18.8,0.3c0.9-5.4,1.5-13,1.5-13c1.8-8.3,8.7-5.2,12.4-11.2      C255.1,157.4,252.8,150.9,254.4,136.8L254.4,136.8z"/>
			</a>
		</g>
	</a>
	<a xlink:href="Mos">
		<path style="fill-rule:evenodd;clip-rule:evenodd;fill:#FFFBF0;stroke:#9A9A9A;stroke-width:2;stroke-miterlimit:10;" d="    M253.3,193.3c3.5,10.8-2,32.4-7,41.2c-5.5,9.5-5,20.5-14.3,19.7c-2.7-0.2-7.8,1.4-12.1-1.8c2.5,8.5-2.9,14.8-6.9,19.1    c-11.2,0.3-15,0.8-27,8.9c-3.5,2.4-4,7.1-5,11c-1.3,5.3-14.6,2.2-14.5,2.9c2.2-4.2,10.7-11.8,11.7-14.9c1.2-3.8,0.1-12.7,0.5-16.1    c0.8-8.2,3.4-32.4,9.5-35.6c14.8-7.8,23.8-19.3,23.8-19.3c4.9,0.4,8.8,1.4,10-3.5C226.5,185.8,253.3,193.3,253.3,193.3z"/>
	</a>
	<a xlink:href="O Porrino">
		<g>
			<a xlink:href="O Porrino">
				<path style="fill-rule:evenodd;clip-rule:evenodd;fill:#FFFBF0;stroke:#9A9A9A;stroke-width:2;stroke-miterlimit:10;" d="      M239.4,329.5c-4.8,3.8-33.9,12-33.9,12s-1.6-19.3,0.8-24.1c-12,3.2-23.7,3.7-32.8,10.7c1.7,3.9,1.2,7.9-2.5,9.5      c-2.9-10.3-13.9-36.4-3.9-44.1c3.6-2.8,6.7,2.1,13.2-3.2c0.6-5,2.2-7.8,6.3-10.6c11.9-8.1,15.8-8.6,27-8.9      c3.9-4.3,7-10.5,6.2-19.5c7.8,2.8,19.8,2.4,22,9.2C244.2,268.2,249,322,239.4,329.5z"/>
			</a>
		</g>
	</a>
	<a xlink:href="Salceda de Caselas">
		<path style="fill-rule:evenodd;clip-rule:evenodd;fill:#FFFBF0;stroke:#9A9A9A;stroke-width:2;stroke-miterlimit:10;" d="    M248.5,285.5c11.5-1.2,30,15.3,23.9,43.4c-10.7,1.2-4.3,11.9-5,18.6c-1.4,12.3-14.2,24.8-20.2,6.6c-9.8,11.3-33.8,6.9-22.1-8.2    c-6.5,0.8-13.2-0.9-18.7-4.5c1.1-0.6,30.4-10.6,31.2-10.7c10.9-1.9,6.9-45.3,6.9-45.3L248.5,285.5z"/>
	</a>
	<a xlink:href="Baiona">
		<g>
			<a xlink:href="Baiona">
				<path style="fill-rule:evenodd;clip-rule:evenodd;fill:#FFFBF0;stroke:#9A9A9A;stroke-width:2;stroke-miterlimit:10;" d="      M82.8,314.4c-2.1,15.1,13.1,49.8-4.3,58.4c-16.1,7.9-4.8-12.3-14.1-20.3c-5.9-5.1-21.1-4-26.9-0.4c0.3-9.8-17.6-31.2-14.3-35.1      c0.8-1,14.8-2.2,16.2-2.6c6.3-1.9,14.9-6.1,16.1-12.1c2.9,5.8,7.3,7.5,11.3,12.7C70.5,319.7,74.9,306.8,82.8,314.4L82.8,314.4z"/>
			</a>
		</g>
	</a>
	<a xlink:href="Nigran">
		<path style="fill-rule:evenodd;clip-rule:evenodd;fill:#FFFBF0;stroke:#9A9A9A;stroke-width:2;stroke-miterlimit:10;" d="    M78.9,267.8c18.5,2,40.1-14.3,55.7-0.4c-17,17.8-17.5,58.4-48.3,49.4c-21.3-6.2-3.8-11.2-8.5-24.8c-4.1-11.9-20.1-3.1-21.2-16.3    C64.3,271.8,76.6,286.2,78.9,267.8L78.9,267.8z"/>
	</a>
	<a xlink:href="Nigran">
		<path style="fill-rule:evenodd;clip-rule:evenodd;fill:#FFFBF0;stroke:#9A9A9A;stroke-width:2;stroke-miterlimit:10;" d="    M78.9,267.8c12.2,1.3,27.3-3.9,39.6-4.5c6.3-0.3,10.8-0.6,16.1,4.2c-17,17.8-17.5,58.4-48.3,49.4c-21.3-6.2-3.8-11.2-8.5-24.8    c-4.1-11.9-20.1-3.1-21.2-16.3C64.3,271.8,76.6,286.2,78.9,267.8L78.9,267.8z"/>
	</a>
	<path style="fill-rule:evenodd;clip-rule:evenodd;fill:#FFFBF0;stroke:#9A9A9A;stroke-width:2;stroke-miterlimit:10;" d="   M211.6,207.5c-3.3,10.3-14,14.3-22.6,20c-7,4.6-11.8,36.3-9.3,50.1c0.6,3-13.7,17.2-17,21.3c-1.6-5.8-11.4-19.9-15-23.2   c-18.5-16.7-28-12.8-50.1-9.2c-3.8,0.6-18.5,3.7-18.8-0.3c0.2,2.6,1-11,1.5-18.6c3.6-7.2,13.5-2.7,13.1-10.2   c11.6-0.7,12.1-18.6,14.4-21.3c1.4-1.7,15.2,1,16.1-7c0.3-2.5,32.8-13.9,32.4-13.8c0.6-8-0.9-13.5,8.4-16.4c0.3,3.2,8.2,0,12.4-2.8   c-0.1,18.4,12.4,5.5,18.1,10.9C202,193.4,206.8,198.6,211.6,207.5L211.6,207.5z"/>
	<a xlink:href="Vigo">
		<path style="fill-rule:evenodd;clip-rule:evenodd;fill:#FFFBF0;stroke:#9A9A9A;stroke-width:2;stroke-miterlimit:10;" d="    M27.6,243.7c-8.3-5.5-14.4,1.3-13.9-14.2c2.2-0.1,1.5,0.4,2.7-1.6C19.3,235.8,31.3,236.8,27.6,243.7L27.6,243.7z"/>
	</a>
	<a xlink:href="Vigo">
		<path style="fill-rule:evenodd;clip-rule:evenodd;fill:#FFFBF0;stroke:#9A9A9A;stroke-width:2;stroke-miterlimit:10;" d="    M11.3,188.3c11.4,0.9,9.9,14.6,14.4,21.8c-4.3,3.5-1,7.8-3.3,10c-2,1.9-14.6,7.1-10.9,0c4.1-8,5.7-3.8,4.8-14.6    C15.6,197.6,12.8,193.6,11.3,188.3L11.3,188.3z"/>
	</a>
	<path style="fill-rule:evenodd;clip-rule:evenodd;fill:#FFFBF0;stroke:#9A9A9A;stroke-width:2;stroke-miterlimit:10;" d="   M27.6,243.7c-8.3-5.5-14.4,1.3-13.9-14.2c2.2-0.1,1.5,0.4,2.7-1.6C19.3,235.8,31.3,236.8,27.6,243.7L27.6,243.7z"/>
	<path style="fill-rule:evenodd;clip-rule:evenodd;fill:#FFFBF0;stroke:#9A9A9A;stroke-width:2;stroke-miterlimit:10;" d="   M11.3,188.3c11.4,0.9,9.9,14.6,14.4,21.8c-4.3,3.5-1,7.8-3.3,10c-2,1.9-14.6,7.1-10.9,0c4.1-8,5.7-3.8,4.8-14.6   C15.6,197.6,12.8,193.6,11.3,188.3L11.3,188.3z"/>
	<a xlink:href="Vigo">
		<path style="fill-rule:evenodd;clip-rule:evenodd;fill:none;" d="M23.3,213.3l-0.3,6l63.8,23.5L92,241l1.8-2.8l0.5-1.8l2.5-0.5    l3.5-1.5l3.8-5.5l3.8-12.9c0,0,3.5-1.1,4.2-1.1s8-0.5,8-0.5l3.3-2.3l0.6-3.2l6.2-3.8l6.8-2.5l19.5-7.5l0.3-4.8l1.3-6l3.3-3.8    l3.7-1.9l1.8,0.9l7.5-2l3.1-1.6l0.1,5.9l2,3l4.3,1.3l3.8-1h3.8h2l3,1.5l3.8,4.8l3.3,2.5l7.3,11.3l1.8,3l-2.3,4l-7.3,6.8l-7,4.8    l-5.8,2.8l-3.8,5.3l-4,9.3l-2,11.3l-0.8,12l-0.3,6.5l0.7,6.9l-2.5,4.4l-14.5,16.9l-2-4.7l-3.8-6.5l-7.3-9.5l-6.3-6.3l-9.5-5.8    c0,0-7.3-2.3-8.8-2.5s-16.8,0.5-16.8,0.5l-8.3,1.5l-14,2.3l-7.4-0.2l1.4-20.2l2.5-3.6l4-1.3L23,219.3l-4,2.8l-4,1.3l0.5,6.3l3.8,2    L22,235l4.8,2.5l1.8,3.8l-0.9,2.5l-3.6-1.5l-4.3-0.8l-3.5-1.3l-2.8-7.5l0.2-3.2l1.8,0l-0.5-6.3h-2.8l-1.3-0.8l0.4-2.5l2.1-3.5    l2.3-3.5l0.5-5v-4.8l-1.8-6l-2.5-7c0,0-2-2.7-0.7-2s4,1.5,4,1.5l4.3,2.5l2.3,4.8l1.3,5.3c0,0,0.3,1.5,0.8,3.3s1.9,4.5,1.9,4.5    L23.3,213.3z"/>
	</a>
</g>
<g id="bl">
	<rect x="254.5" y="311.6" style="opacity:0.6;fill:#FFFBF0;" width="51" height="9.5"/>
	<rect x="249.8" y="300.9" style="opacity:0.6;fill:#FFFBF0;" width="40.4" height="9.5"/>
	<rect x="261.2" y="162.2" style="opacity:0.6;fill:#FFFBF0;" width="51" height="9.5"/>
	<rect x="221.8" y="106.9" style="opacity:0.6;fill:#FFFBF0;" width="55.7" height="9.5"/>
</g>
<g id="text_x5F_ciutats">
	<g>
		<g>
			<path style="fill:#1A171B;" d="M146.9,218.6l-2.5,7.3h-1.2l-2.5-7.3l1,0l2.2,6.4l2.2-6.4L146.9,218.6z"/>
			<path style="fill:#1A171B;" d="M148.9,219.5l-1,0v-1l1,0L148.9,219.5z M148.8,225.9h-0.9l0-5.5l0.9,0L148.8,225.9z"/>
			<path style="fill:#1A171B;" d="M154.7,225.3c0,0.9-0.2,1.6-0.6,2c-0.4,0.4-1,0.6-1.8,0.6c-0.3,0-0.5,0-0.8-0.1     c-0.3,0-0.5-0.1-0.8-0.2v-0.9h0c0.1,0.1,0.4,0.1,0.7,0.2c0.3,0.1,0.6,0.1,0.9,0.1c0.3,0,0.5,0,0.7-0.1c0.2-0.1,0.3-0.2,0.5-0.3     c0.1-0.1,0.2-0.3,0.2-0.5c0-0.2,0.1-0.4,0.1-0.6v-0.5c-0.3,0.2-0.5,0.4-0.8,0.5c-0.2,0.1-0.5,0.2-0.9,0.2c-0.6,0-1.1-0.2-1.5-0.7     c-0.4-0.5-0.5-1.1-0.5-2c0-0.5,0.1-0.9,0.2-1.2c0.1-0.3,0.3-0.6,0.5-0.9c0.2-0.2,0.4-0.4,0.7-0.5c0.3-0.1,0.6-0.2,0.9-0.2     c0.3,0,0.5,0,0.7,0.1c0.2,0.1,0.4,0.2,0.6,0.3l0.1-0.2h0.8L154.7,225.3z M153.8,224.4l0-3c-0.2-0.1-0.4-0.2-0.6-0.2     c-0.2,0-0.4-0.1-0.6-0.1c-0.5,0-0.9,0.2-1.1,0.5c-0.3,0.3-0.4,0.8-0.4,1.5c0,0.6,0.1,1.1,0.3,1.4s0.5,0.5,1,0.5     c0.3,0,0.5-0.1,0.8-0.2C153.4,224.7,153.6,224.6,153.8,224.4z"/>
			<path style="fill:#1A171B;" d="M160.8,223.2c0,0.9-0.2,1.6-0.6,2.1c-0.4,0.5-1,0.8-1.7,0.8c-0.7,0-1.3-0.3-1.7-0.8     c-0.4-0.5-0.6-1.2-0.6-2.1c0-0.9,0.2-1.6,0.6-2.1c0.4-0.5,1-0.8,1.7-0.8c0.7,0,1.3,0.3,1.7,0.8     C160.6,221.6,160.8,222.3,160.8,223.2z M159.9,223.2c0-0.7-0.1-1.2-0.4-1.6s-0.6-0.5-1.1-0.5c-0.5,0-0.8,0.2-1.1,0.5     c-0.3,0.3-0.4,0.9-0.4,1.6c0,0.7,0.1,1.2,0.4,1.6c0.3,0.4,0.6,0.5,1.1,0.5c0.5,0,0.8-0.2,1.1-0.5     C159.8,224.4,159.9,223.9,159.9,223.2z"/>
		</g>
	</g>
	<g>
		<g>
			<path style="fill:#1A171B;" d="M192.3,175.5l-1.2,0l-2.3-2.9l-1.3,0l0,2.9l-0.9,0l0-7.3l1.9,0c0.4,0,0.8,0,1,0.1     c0.3,0.1,0.5,0.2,0.7,0.3c0.2,0.2,0.4,0.4,0.6,0.6c0.1,0.3,0.2,0.6,0.2,1c0,0.5-0.1,1-0.4,1.3c-0.2,0.4-0.6,0.6-1,0.8     L192.3,175.5z M190.1,170.3c0-0.2,0-0.4-0.1-0.6c-0.1-0.2-0.2-0.3-0.3-0.4c-0.1-0.1-0.3-0.2-0.5-0.2c-0.2,0-0.4-0.1-0.6-0.1     l-1.1,0l0,2.7h0.9c0.3,0,0.5,0,0.8-0.1s0.4-0.2,0.5-0.3c0.1-0.1,0.2-0.3,0.3-0.5C190.1,170.8,190.1,170.6,190.1,170.3z"/>
		</g>
		<g>
			<path style="fill:#1A171B;" d="M197.2,172.9l-3.8,0c0,0.3,0,0.6,0.1,0.9c0.1,0.2,0.2,0.5,0.4,0.6c0.2,0.2,0.3,0.3,0.6,0.4     c0.2,0.1,0.5,0.1,0.7,0.1c0.4,0,0.7-0.1,1.1-0.2s0.6-0.3,0.8-0.4h0l0,1c-0.3,0.1-0.6,0.2-0.9,0.3c-0.3,0.1-0.6,0.1-1,0.1     c-0.9,0-1.5-0.2-2-0.7s-0.7-1.2-0.7-2.1c0-0.9,0.2-1.6,0.7-2.1c0.5-0.5,1.1-0.8,1.8-0.8c0.7,0,1.2,0.2,1.6,0.6     c0.4,0.4,0.6,1,0.6,1.8L197.2,172.9z M196.3,172.2c0-0.5-0.1-0.9-0.3-1.1s-0.6-0.4-1-0.4c-0.5,0-0.8,0.1-1.1,0.4     c-0.3,0.3-0.4,0.6-0.5,1.1L196.3,172.2z"/>
			<path style="fill:#1A171B;" d="M202.7,175.5l-0.9,0v-0.6c-0.2,0.2-0.5,0.4-0.8,0.5c-0.3,0.1-0.6,0.2-0.9,0.2     c-0.6,0-1.1-0.3-1.5-0.8s-0.5-1.2-0.5-2.1c0-0.5,0.1-0.9,0.2-1.2c0.1-0.4,0.3-0.7,0.5-0.9c0.2-0.2,0.5-0.4,0.7-0.6     c0.3-0.1,0.6-0.2,0.9-0.2c0.3,0,0.5,0,0.7,0.1c0.2,0.1,0.4,0.2,0.7,0.3l0-2.4l0.9,0L202.7,175.5z M201.8,174.2l0-3.1     c-0.2-0.1-0.4-0.2-0.6-0.2s-0.4-0.1-0.6-0.1c-0.5,0-0.9,0.2-1.1,0.5c-0.3,0.4-0.4,0.9-0.4,1.5c0,0.6,0.1,1.1,0.3,1.5     c0.2,0.3,0.5,0.5,1,0.5c0.2,0,0.5-0.1,0.7-0.2C201.3,174.5,201.6,174.4,201.8,174.2z"/>
			<path style="fill:#1A171B;" d="M208.8,172.8c0,0.9-0.2,1.6-0.6,2.1s-1,0.8-1.7,0.8c-0.7,0-1.3-0.3-1.7-0.8     c-0.4-0.5-0.6-1.2-0.6-2.1c0-0.9,0.2-1.6,0.6-2.1c0.4-0.5,1-0.8,1.7-0.8c0.7,0,1.3,0.3,1.7,0.8S208.8,171.9,208.8,172.8z      M207.9,172.8c0-0.7-0.1-1.2-0.4-1.6c-0.3-0.3-0.6-0.5-1.1-0.5c-0.5,0-0.8,0.2-1.1,0.5s-0.4,0.9-0.4,1.6c0,0.7,0.1,1.2,0.4,1.6     s0.6,0.5,1.1,0.5c0.5,0,0.8-0.2,1.1-0.5C207.7,174,207.9,173.5,207.9,172.8z"/>
			<path style="fill:#1A171B;" d="M214.4,175.5l-0.9,0l0-3.1c0-0.3,0-0.5,0-0.7s-0.1-0.4-0.2-0.5c-0.1-0.1-0.2-0.2-0.3-0.3     c-0.1-0.1-0.3-0.1-0.6-0.1c-0.2,0-0.5,0.1-0.7,0.2c-0.3,0.1-0.5,0.3-0.7,0.5l0,4.1l-0.9,0l0-5.5l0.9,0v0.6     c0.3-0.2,0.6-0.4,0.8-0.6c0.3-0.1,0.6-0.2,0.9-0.2c0.6,0,1,0.2,1.3,0.5c0.3,0.4,0.4,0.9,0.4,1.5L214.4,175.5z"/>
			<path style="fill:#1A171B;" d="M220.3,175.5l-0.9,0V175c-0.2,0.2-0.5,0.4-0.8,0.5c-0.3,0.1-0.6,0.2-0.9,0.2     c-0.6,0-1.1-0.3-1.5-0.8s-0.5-1.2-0.5-2.1c0-0.5,0.1-0.9,0.2-1.2c0.1-0.4,0.3-0.7,0.5-0.9c0.2-0.2,0.5-0.4,0.7-0.6     c0.3-0.1,0.6-0.2,0.9-0.2c0.3,0,0.5,0,0.7,0.1c0.2,0.1,0.4,0.2,0.7,0.3l0-2.4l0.9,0L220.3,175.5z M219.4,174.2l0-3.1     c-0.2-0.1-0.4-0.2-0.6-0.2s-0.4-0.1-0.6-0.1c-0.5,0-0.9,0.2-1.1,0.5c-0.3,0.4-0.4,0.9-0.4,1.5c0,0.6,0.1,1.1,0.3,1.5     c0.2,0.3,0.5,0.5,1,0.5c0.2,0,0.5-0.1,0.7-0.2C218.9,174.5,219.2,174.4,219.4,174.2z"/>
			<path style="fill:#1A171B;" d="M226.3,172.9l-3.8,0c0,0.3,0,0.6,0.1,0.9c0.1,0.2,0.2,0.5,0.4,0.6c0.2,0.2,0.3,0.3,0.6,0.4     c0.2,0.1,0.5,0.1,0.7,0.1c0.4,0,0.7-0.1,1.1-0.2c0.4-0.1,0.6-0.3,0.8-0.4h0v1c-0.3,0.1-0.6,0.2-0.9,0.3c-0.3,0.1-0.6,0.1-1,0.1     c-0.9,0-1.5-0.2-2-0.7c-0.5-0.5-0.7-1.2-0.7-2.1c0-0.9,0.2-1.6,0.7-2.1c0.5-0.5,1.1-0.8,1.8-0.8c0.7,0,1.2,0.2,1.6,0.6     c0.4,0.4,0.6,1,0.6,1.8V172.9z M225.4,172.2c0-0.5-0.1-0.9-0.3-1.1c-0.2-0.3-0.6-0.4-1-0.4c-0.5,0-0.8,0.1-1.1,0.4     c-0.3,0.3-0.4,0.6-0.5,1.1L225.4,172.2z"/>
			<path style="fill:#1A171B;" d="M228.5,175.5l-0.9,0l0-7.6l0.9,0L228.5,175.5z"/>
			<path style="fill:#1A171B;" d="M234.2,175.5h-0.9v-0.6c-0.1,0.1-0.2,0.1-0.3,0.2s-0.3,0.2-0.4,0.2c-0.1,0.1-0.3,0.1-0.5,0.2     s-0.4,0.1-0.7,0.1c-0.5,0-0.9-0.2-1.2-0.5c-0.3-0.3-0.5-0.7-0.5-1.2c0-0.4,0.1-0.7,0.3-1s0.4-0.5,0.7-0.6     c0.3-0.1,0.7-0.2,1.1-0.3c0.4-0.1,0.9-0.1,1.4-0.1v-0.1c0-0.2,0-0.4-0.1-0.5c-0.1-0.1-0.2-0.2-0.3-0.3c-0.1-0.1-0.3-0.1-0.4-0.2     s-0.4,0-0.5,0c-0.2,0-0.5,0-0.8,0.1c-0.3,0.1-0.6,0.2-0.9,0.3h0v-0.9c0.2,0,0.4-0.1,0.7-0.2c0.3-0.1,0.6-0.1,0.9-0.1     c0.4,0,0.7,0,0.9,0.1s0.5,0.2,0.7,0.3c0.2,0.1,0.3,0.3,0.4,0.6s0.2,0.5,0.2,0.9L234.2,175.5z M233.3,174.2v-1.5     c-0.3,0-0.6,0-0.9,0.1c-0.4,0-0.6,0.1-0.9,0.1c-0.2,0.1-0.4,0.2-0.6,0.3s-0.2,0.4-0.2,0.7c0,0.3,0.1,0.5,0.3,0.7     c0.2,0.2,0.5,0.2,0.8,0.2c0.3,0,0.6-0.1,0.8-0.2C232.9,174.5,233.1,174.4,233.3,174.2z"/>
		</g>
	</g>
	<g>
		<g>
			<path style="fill:#1A171B;" d="M47.5,334.9c0,0.4-0.1,0.7-0.2,1c-0.1,0.3-0.3,0.5-0.5,0.7c-0.3,0.2-0.5,0.4-0.9,0.5     c-0.3,0.1-0.7,0.1-1.2,0.1l-2.4,0l0-7.3l2,0c0.5,0,0.9,0,1.1,0.1c0.2,0,0.5,0.1,0.7,0.2c0.3,0.1,0.4,0.3,0.5,0.5     c0.1,0.2,0.2,0.5,0.2,0.8c0,0.3-0.1,0.6-0.2,0.9c-0.2,0.2-0.4,0.4-0.7,0.6v0c0.5,0.1,0.8,0.3,1.1,0.6     C47.3,334,47.5,334.4,47.5,334.9z M45.9,331.7c0-0.2,0-0.3-0.1-0.4c-0.1-0.1-0.1-0.2-0.3-0.3c-0.1-0.1-0.3-0.1-0.5-0.2     c-0.2,0-0.5,0-0.8,0h-1.1l0,2.1h1.2c0.3,0,0.5,0,0.7,0c0.2,0,0.3-0.1,0.5-0.2c0.1-0.1,0.2-0.2,0.3-0.4     C45.9,332.1,45.9,331.9,45.9,331.7z M46.5,335c0-0.3,0-0.5-0.1-0.7c-0.1-0.2-0.2-0.3-0.5-0.4c-0.1-0.1-0.3-0.1-0.5-0.2     c-0.2,0-0.5,0-0.8,0h-1.4l0,2.7h1.2c0.4,0,0.7,0,1-0.1s0.5-0.1,0.6-0.2c0.2-0.1,0.3-0.3,0.4-0.4C46.5,335.4,46.5,335.2,46.5,335z     "/>
			<path style="fill:#1A171B;" d="M52.7,337.2h-0.9v-0.6c-0.1,0.1-0.2,0.1-0.3,0.2c-0.1,0.1-0.3,0.2-0.4,0.2     c-0.1,0.1-0.3,0.1-0.5,0.2c-0.2,0-0.4,0.1-0.7,0.1c-0.5,0-0.9-0.2-1.2-0.5c-0.3-0.3-0.5-0.7-0.5-1.2c0-0.4,0.1-0.7,0.3-1     c0.2-0.3,0.4-0.5,0.7-0.6c0.3-0.1,0.7-0.2,1.1-0.3c0.4-0.1,0.9-0.1,1.4-0.1v-0.1c0-0.2,0-0.4-0.1-0.5s-0.2-0.2-0.3-0.3     c-0.1-0.1-0.3-0.1-0.4-0.2c-0.2,0-0.4,0-0.5,0c-0.2,0-0.5,0-0.8,0.1c-0.3,0.1-0.6,0.2-0.9,0.3h0l0-0.9c0.2,0,0.4-0.1,0.7-0.2     s0.6-0.1,0.9-0.1c0.4,0,0.7,0,0.9,0.1s0.5,0.2,0.7,0.3c0.2,0.1,0.3,0.3,0.4,0.6c0.1,0.2,0.2,0.5,0.2,0.9L52.7,337.2z M51.9,335.8     l0-1.5c-0.3,0-0.6,0-0.9,0.1c-0.4,0-0.6,0.1-0.9,0.1c-0.2,0.1-0.5,0.2-0.6,0.3c-0.2,0.2-0.2,0.4-0.2,0.7c0,0.3,0.1,0.5,0.3,0.7     c0.2,0.2,0.5,0.2,0.8,0.2c0.3,0,0.6-0.1,0.8-0.2C51.4,336.2,51.6,336,51.9,335.8z"/>
			<path style="fill:#1A171B;" d="M55.3,330.8h-1v-1h1L55.3,330.8z M55.3,337.2h-0.9l0-5.5h0.9L55.3,337.2z"/>
			<path style="fill:#1A171B;" d="M61.4,334.5c0,0.9-0.2,1.6-0.6,2.1c-0.4,0.5-1,0.8-1.7,0.8c-0.7,0-1.3-0.3-1.7-0.8     c-0.4-0.5-0.6-1.2-0.6-2.1c0-0.9,0.2-1.6,0.6-2.1c0.4-0.5,1-0.8,1.7-0.8c0.7,0,1.3,0.3,1.7,0.8C61.2,332.9,61.4,333.6,61.4,334.5     z M60.5,334.5c0-0.7-0.1-1.2-0.4-1.6c-0.3-0.3-0.6-0.5-1.1-0.5c-0.5,0-0.8,0.2-1.1,0.5c-0.3,0.3-0.4,0.9-0.4,1.6     c0,0.7,0.1,1.2,0.4,1.6c0.3,0.4,0.6,0.5,1.1,0.5c0.5,0,0.8-0.2,1.1-0.5C60.3,335.7,60.5,335.2,60.5,334.5z"/>
			<path style="fill:#1A171B;" d="M67,337.2h-0.9l0-3.1c0-0.3,0-0.5,0-0.7c0-0.2-0.1-0.4-0.2-0.5c-0.1-0.1-0.2-0.2-0.3-0.3     c-0.1-0.1-0.3-0.1-0.6-0.1c-0.2,0-0.5,0.1-0.7,0.2c-0.3,0.1-0.5,0.3-0.7,0.5l0,4.1h-0.9l0-5.5h0.9l0,0.6c0.3-0.2,0.6-0.4,0.8-0.6     c0.3-0.1,0.6-0.2,0.9-0.2c0.6,0,1,0.2,1.3,0.5c0.3,0.4,0.4,0.9,0.4,1.5L67,337.2z"/>
			<path style="fill:#1A171B;" d="M72.7,337.2h-0.9v-0.6c-0.1,0.1-0.2,0.1-0.3,0.2c-0.1,0.1-0.3,0.2-0.4,0.2     c-0.1,0.1-0.3,0.1-0.5,0.2c-0.2,0.1-0.4,0.1-0.7,0.1c-0.5,0-0.9-0.2-1.2-0.5c-0.3-0.3-0.5-0.7-0.5-1.2c0-0.4,0.1-0.7,0.3-1     c0.2-0.3,0.4-0.5,0.7-0.6c0.3-0.1,0.7-0.2,1.1-0.3s0.9-0.1,1.4-0.1v-0.1c0-0.2,0-0.4-0.1-0.5c-0.1-0.1-0.2-0.2-0.3-0.3     c-0.1-0.1-0.3-0.1-0.4-0.2s-0.4,0-0.5,0c-0.2,0-0.5,0-0.8,0.1c-0.3,0.1-0.6,0.2-0.9,0.3h0l0-0.9c0.2,0,0.4-0.1,0.7-0.2     c0.3-0.1,0.6-0.1,0.9-0.1c0.4,0,0.7,0,0.9,0.1c0.3,0.1,0.5,0.2,0.7,0.3c0.2,0.2,0.3,0.3,0.4,0.6c0.1,0.2,0.2,0.5,0.2,0.9     L72.7,337.2z M71.8,335.8l0-1.5c-0.3,0-0.6,0-0.9,0.1s-0.6,0.1-0.9,0.1c-0.2,0.1-0.5,0.2-0.6,0.3c-0.2,0.2-0.2,0.4-0.2,0.7     c0,0.3,0.1,0.5,0.3,0.7c0.2,0.2,0.5,0.2,0.8,0.2c0.3,0,0.6-0.1,0.8-0.2C71.4,336.2,71.6,336,71.8,335.8z"/>
		</g>
	</g>
	<g>
		<g>
			<path style="fill:#1A171B;" d="M108.2,326.7c-0.4,0.2-0.8,0.3-1.2,0.5c-0.4,0.1-0.9,0.2-1.3,0.2c-0.5,0-1-0.1-1.5-0.2     c-0.4-0.2-0.8-0.4-1.1-0.7c-0.3-0.3-0.6-0.7-0.7-1.2c-0.2-0.5-0.3-1-0.3-1.7c0-1.2,0.3-2.1,1-2.8s1.5-1,2.6-1     c0.4,0,0.8,0,1.2,0.1c0.4,0.1,0.8,0.3,1.3,0.5l0,1.1h-0.1c-0.1-0.1-0.2-0.2-0.4-0.3c-0.2-0.1-0.4-0.2-0.5-0.3     c-0.2-0.1-0.5-0.2-0.7-0.3c-0.3-0.1-0.6-0.1-0.9-0.1c-0.8,0-1.4,0.3-1.8,0.8c-0.4,0.5-0.7,1.2-0.7,2.1c0,0.9,0.2,1.7,0.7,2.2     s1.1,0.8,1.9,0.8c0.3,0,0.6,0,0.9-0.1c0.3-0.1,0.6-0.1,0.8-0.2l0-1.8l-1.8,0v-0.8l2.7,0L108.2,326.7z"/>
			<path style="fill:#1A171B;" d="M114.1,324.5c0,0.9-0.2,1.6-0.6,2.1c-0.4,0.5-1,0.8-1.7,0.8c-0.7,0-1.3-0.3-1.7-0.8     s-0.6-1.2-0.6-2.1c0-0.9,0.2-1.6,0.6-2.1c0.4-0.5,1-0.8,1.7-0.8c0.7,0,1.3,0.3,1.7,0.8C113.9,322.9,114.1,323.6,114.1,324.5z      M113.2,324.5c0-0.7-0.1-1.2-0.4-1.6c-0.3-0.3-0.6-0.5-1.1-0.5c-0.5,0-0.8,0.2-1.1,0.5c-0.3,0.3-0.4,0.9-0.4,1.6     c0,0.7,0.1,1.2,0.4,1.6s0.6,0.5,1.1,0.5c0.5,0,0.8-0.2,1.1-0.5C113.1,325.7,113.2,325.2,113.2,324.5z"/>
			<path style="fill:#1A171B;" d="M119.7,327.3l-0.9,0l0-3.1c0-0.3,0-0.5,0-0.7s-0.1-0.4-0.2-0.5c-0.1-0.1-0.2-0.2-0.3-0.3     c-0.1-0.1-0.3-0.1-0.6-0.1c-0.2,0-0.5,0.1-0.7,0.2c-0.3,0.1-0.5,0.3-0.7,0.5l0,4.1h-0.9l0-5.5h0.9v0.6c0.3-0.2,0.6-0.4,0.8-0.6     c0.3-0.1,0.6-0.2,0.9-0.2c0.6,0,1,0.2,1.3,0.5c0.3,0.4,0.4,0.9,0.4,1.5L119.7,327.3z"/>
			<path style="fill:#1A171B;" d="M125.6,327.3h-0.9v-0.6c-0.2,0.2-0.5,0.4-0.8,0.5s-0.6,0.2-0.9,0.2c-0.6,0-1.1-0.3-1.5-0.8     c-0.4-0.5-0.5-1.2-0.5-2.1c0-0.5,0.1-0.9,0.2-1.2c0.1-0.4,0.3-0.7,0.5-0.9c0.2-0.2,0.5-0.4,0.7-0.6s0.6-0.2,0.9-0.2     c0.3,0,0.5,0,0.7,0.1c0.2,0.1,0.4,0.2,0.7,0.3l0-2.4h0.9L125.6,327.3z M124.7,325.9l0-3.1c-0.2-0.1-0.4-0.2-0.6-0.2     c-0.2,0-0.4-0.1-0.6-0.1c-0.5,0-0.9,0.2-1.1,0.5c-0.3,0.4-0.4,0.9-0.4,1.5c0,0.6,0.1,1.1,0.3,1.5c0.2,0.3,0.5,0.5,1,0.5     c0.2,0,0.5-0.1,0.7-0.2C124.3,326.3,124.5,326.1,124.7,325.9z"/>
			<path style="fill:#1A171B;" d="M131.7,324.5c0,0.9-0.2,1.6-0.6,2.1c-0.4,0.5-1,0.8-1.7,0.8c-0.7,0-1.3-0.3-1.7-0.8     c-0.4-0.5-0.6-1.2-0.6-2.1c0-0.9,0.2-1.6,0.6-2.1c0.4-0.5,1-0.8,1.7-0.8c0.7,0,1.3,0.3,1.7,0.8     C131.5,323,131.7,323.7,131.7,324.5z M130.8,324.5c0-0.7-0.1-1.2-0.4-1.6s-0.6-0.5-1.1-0.5c-0.5,0-0.8,0.2-1.1,0.5     c-0.3,0.3-0.4,0.9-0.4,1.6c0,0.7,0.1,1.2,0.4,1.6c0.3,0.4,0.6,0.5,1.1,0.5c0.5,0,0.8-0.2,1.1-0.5     C130.7,325.8,130.8,325.2,130.8,324.5z"/>
			<path style="fill:#1A171B;" d="M140.6,327.3h-0.9l0-3.1c0-0.2,0-0.5,0-0.7s-0.1-0.4-0.1-0.5c-0.1-0.1-0.2-0.2-0.3-0.3     s-0.3-0.1-0.6-0.1c-0.2,0-0.5,0.1-0.7,0.2c-0.2,0.1-0.5,0.3-0.7,0.5c0,0.1,0,0.2,0,0.3c0,0.1,0,0.2,0,0.3l0,3.5h-0.9l0-3.1     c0-0.2,0-0.5,0-0.7c0-0.2-0.1-0.4-0.1-0.5c-0.1-0.1-0.2-0.2-0.3-0.3s-0.3-0.1-0.6-0.1c-0.2,0-0.5,0.1-0.7,0.2     c-0.2,0.1-0.5,0.3-0.7,0.5l0,4.1H133l0-5.5h0.9l0,0.6c0.3-0.2,0.5-0.4,0.8-0.6c0.3-0.1,0.6-0.2,0.9-0.2c0.4,0,0.6,0.1,0.9,0.2     s0.4,0.4,0.5,0.6c0.4-0.3,0.7-0.5,1-0.7s0.6-0.2,0.9-0.2c0.6,0,1,0.2,1.3,0.5c0.3,0.4,0.4,0.9,0.4,1.5L140.6,327.3z"/>
			<path style="fill:#1A171B;" d="M146.2,327.3h-0.9v-0.6c-0.1,0.1-0.2,0.1-0.3,0.2c-0.1,0.1-0.3,0.2-0.4,0.2     c-0.1,0.1-0.3,0.1-0.5,0.2c-0.2,0.1-0.4,0.1-0.7,0.1c-0.5,0-0.9-0.2-1.2-0.5c-0.3-0.3-0.5-0.7-0.5-1.2c0-0.4,0.1-0.7,0.3-1     c0.2-0.3,0.4-0.5,0.7-0.6c0.3-0.1,0.7-0.2,1.1-0.3c0.4-0.1,0.9-0.1,1.4-0.1v-0.1c0-0.2,0-0.4-0.1-0.5c-0.1-0.1-0.2-0.2-0.3-0.3     c-0.1-0.1-0.3-0.1-0.4-0.2c-0.2,0-0.4,0-0.5,0c-0.2,0-0.5,0-0.8,0.1c-0.3,0.1-0.6,0.2-0.9,0.3h0l0-0.9c0.2,0,0.4-0.1,0.7-0.2     c0.3-0.1,0.6-0.1,0.9-0.1c0.4,0,0.7,0,0.9,0.1c0.3,0.1,0.5,0.2,0.7,0.3c0.2,0.2,0.3,0.3,0.4,0.6c0.1,0.2,0.2,0.5,0.2,0.9     L146.2,327.3z M145.4,325.9l0-1.5c-0.3,0-0.6,0-0.9,0.1c-0.4,0-0.6,0.1-0.9,0.1c-0.2,0.1-0.5,0.2-0.6,0.3     c-0.2,0.2-0.2,0.4-0.2,0.7c0,0.3,0.1,0.5,0.3,0.7s0.5,0.2,0.8,0.2c0.3,0,0.6-0.1,0.8-0.2C144.9,326.3,145.2,326.1,145.4,325.9z"/>
			<path style="fill:#1A171B;" d="M151.1,322.8L151.1,322.8c-0.2,0-0.3-0.1-0.4-0.1s-0.3,0-0.4,0c-0.3,0-0.5,0.1-0.8,0.2     s-0.5,0.3-0.7,0.5l0,3.9h-0.9l0-5.5h0.9l0,0.8c0.3-0.3,0.6-0.5,0.9-0.6c0.3-0.1,0.5-0.2,0.8-0.2c0.2,0,0.3,0,0.3,0     c0.1,0,0.2,0,0.3,0L151.1,322.8z"/>
		</g>
	</g>
	<g>
		<g>
			<path style="fill:#1A171B;" d="M192.5,294.2c0.3,0.3,0.5,0.7,0.6,1.2c0.1,0.5,0.2,1,0.2,1.6s-0.1,1.1-0.2,1.6s-0.4,0.9-0.6,1.2     c-0.3,0.3-0.6,0.6-1,0.7c-0.4,0.2-0.8,0.2-1.3,0.2c-0.5,0-0.9-0.1-1.3-0.3s-0.7-0.4-1-0.7s-0.5-0.7-0.6-1.2s-0.2-1-0.2-1.6     c0-0.6,0.1-1.1,0.2-1.6c0.1-0.5,0.4-0.9,0.6-1.2c0.3-0.3,0.6-0.6,1-0.7c0.4-0.2,0.8-0.3,1.3-0.3c0.5,0,0.9,0.1,1.3,0.3     C191.9,293.6,192.2,293.9,192.5,294.2z M192.4,297c0-0.9-0.2-1.7-0.6-2.2c-0.4-0.5-0.9-0.8-1.6-0.8c-0.7,0-1.2,0.3-1.6,0.8     c-0.4,0.5-0.6,1.2-0.6,2.2c0,1,0.2,1.7,0.6,2.2c0.4,0.5,1,0.8,1.6,0.8c0.7,0,1.2-0.3,1.6-0.8C192.2,298.7,192.4,297.9,192.4,297z     "/>
			<path style="fill:#1A171B;" d="M202.6,295.5c0,0.3-0.1,0.6-0.2,0.9c-0.1,0.3-0.3,0.5-0.4,0.7c-0.2,0.3-0.5,0.4-0.8,0.6     c-0.3,0.1-0.7,0.2-1.2,0.2H199l0,2.7h-0.9l0-7.3h1.9c0.4,0,0.8,0,1,0.1c0.3,0.1,0.5,0.2,0.8,0.3c0.3,0.2,0.5,0.4,0.6,0.7     S202.6,295.1,202.6,295.5z M201.7,295.6c0-0.3,0-0.5-0.1-0.7s-0.2-0.3-0.4-0.5c-0.1-0.1-0.3-0.2-0.5-0.2c-0.2,0-0.4-0.1-0.7-0.1     H199l0,2.9h0.8c0.4,0,0.7,0,0.9-0.1c0.2-0.1,0.4-0.2,0.6-0.3c0.1-0.2,0.2-0.3,0.3-0.5C201.6,296,201.7,295.8,201.7,295.6z"/>
		</g>
		<g>
			<path style="fill:#1A171B;" d="M207.9,297.9c0,0.9-0.2,1.6-0.6,2.1s-1,0.8-1.7,0.8c-0.7,0-1.3-0.3-1.7-0.8s-0.6-1.2-0.6-2.1     c0-0.9,0.2-1.6,0.6-2.1c0.4-0.5,1-0.8,1.7-0.8c0.7,0,1.3,0.3,1.7,0.8C207.7,296.3,207.9,297,207.9,297.9z M207,297.9     c0-0.7-0.1-1.2-0.4-1.6c-0.3-0.3-0.6-0.5-1.1-0.5c-0.5,0-0.8,0.2-1.1,0.5c-0.3,0.3-0.4,0.9-0.4,1.6c0,0.7,0.1,1.2,0.4,1.6     c0.3,0.4,0.6,0.5,1.1,0.5c0.5,0,0.8-0.2,1.1-0.5C206.9,299.1,207,298.6,207,297.9z"/>
			<path style="fill:#1A171B;" d="M212.5,296.2L212.5,296.2c-0.2,0-0.3-0.1-0.4-0.1s-0.3,0-0.4,0c-0.3,0-0.5,0.1-0.8,0.2     c-0.2,0.1-0.5,0.3-0.7,0.5l0,3.9h-0.9l0-5.5h0.9v0.8c0.3-0.3,0.6-0.5,0.9-0.6c0.3-0.1,0.5-0.2,0.8-0.2c0.2,0,0.3,0,0.3,0     c0.1,0,0.2,0,0.3,0V296.2z"/>
			<path style="fill:#1A171B;" d="M216.5,296.2L216.5,296.2c-0.2,0-0.3-0.1-0.4-0.1s-0.3,0-0.4,0c-0.3,0-0.5,0.1-0.8,0.2     c-0.2,0.1-0.5,0.3-0.7,0.5l0,3.9l-0.9,0l0-5.5l0.9,0v0.8c0.3-0.3,0.6-0.5,0.9-0.6c0.3-0.1,0.5-0.2,0.8-0.2c0.2,0,0.3,0,0.3,0     c0.1,0,0.2,0,0.3,0V296.2z"/>
			<path style="fill:#1A171B;" d="M218.3,294.2h-1l0-1h1L218.3,294.2z M218.2,300.6h-0.9l0-5.5h0.9L218.2,300.6z"/>
			<path style="fill:#1A171B;" d="M224.2,300.6h-0.9l0-3.1c0-0.3,0-0.5,0-0.7s-0.1-0.4-0.2-0.5c-0.1-0.1-0.2-0.2-0.3-0.3     c-0.1-0.1-0.3-0.1-0.6-0.1c-0.2,0-0.5,0.1-0.7,0.2s-0.5,0.3-0.7,0.5l0,4.1h-0.9l0-5.5h0.9v0.6c0.3-0.2,0.6-0.4,0.8-0.6     c0.3-0.1,0.6-0.2,0.9-0.2c0.6,0,1,0.2,1.3,0.5c0.3,0.4,0.4,0.9,0.4,1.5L224.2,300.6z M224,292.7c0,0.5-0.2,0.9-0.4,1.1     s-0.5,0.4-0.8,0.4c-0.2,0-0.3,0-0.5-0.1c-0.1-0.1-0.3-0.2-0.4-0.3c-0.1-0.1-0.3-0.2-0.4-0.3c-0.1-0.1-0.2-0.1-0.3-0.1     c-0.2,0-0.3,0.1-0.4,0.2s-0.1,0.3-0.1,0.6h-0.6c0-0.5,0.1-0.9,0.4-1.1c0.2-0.3,0.5-0.4,0.8-0.4c0.2,0,0.3,0,0.4,0.1     c0.1,0.1,0.3,0.2,0.4,0.3c0.1,0.1,0.3,0.2,0.4,0.3c0.1,0.1,0.2,0.1,0.3,0.1c0.2,0,0.3-0.1,0.4-0.2c0.1-0.1,0.1-0.3,0.1-0.6H224z"/>
			<path style="fill:#1A171B;" d="M230.3,297.9c0,0.9-0.2,1.6-0.6,2.1c-0.4,0.5-1,0.8-1.7,0.8c-0.7,0-1.3-0.3-1.7-0.8     c-0.4-0.5-0.6-1.2-0.6-2.1c0-0.9,0.2-1.6,0.6-2.1c0.4-0.5,1-0.8,1.7-0.8c0.7,0,1.3,0.3,1.7,0.8     C230.1,296.3,230.3,297,230.3,297.9z M229.4,297.9c0-0.7-0.1-1.2-0.4-1.6c-0.3-0.3-0.6-0.5-1.1-0.5c-0.5,0-0.8,0.2-1.1,0.5     c-0.3,0.3-0.4,0.9-0.4,1.6c0,0.7,0.1,1.2,0.4,1.6c0.3,0.4,0.6,0.5,1.1,0.5c0.5,0,0.8-0.2,1.1-0.5     C229.3,299.1,229.4,298.6,229.4,297.9z"/>
		</g>
	</g>
	<g>
		<g>
			<path style="fill:#1A171B;" d="M90,287.9h-1.1l-3.3-6.5l0,6.5l-0.9,0l0-7.3l1.4,0l3,5.9l0-5.9H90L90,287.9z"/>
			<path style="fill:#1A171B;" d="M92.7,281.5h-1l0-1h1L92.7,281.5z M92.6,287.9h-0.9l0-5.5h0.9L92.6,287.9z"/>
			<path style="fill:#1A171B;" d="M98.5,287.3c0,0.9-0.2,1.6-0.6,2s-1,0.6-1.8,0.6c-0.3,0-0.5,0-0.8-0.1c-0.3,0-0.5-0.1-0.8-0.2     l0-0.9h0c0.1,0.1,0.4,0.1,0.7,0.2c0.3,0.1,0.6,0.1,0.9,0.1c0.3,0,0.5,0,0.7-0.1c0.2-0.1,0.3-0.2,0.5-0.3c0.1-0.1,0.2-0.3,0.2-0.5     s0.1-0.4,0.1-0.6v-0.5c-0.3,0.2-0.5,0.4-0.7,0.5c-0.2,0.1-0.5,0.2-0.9,0.2c-0.6,0-1.1-0.2-1.5-0.7c-0.4-0.5-0.5-1.1-0.5-2     c0-0.5,0.1-0.9,0.2-1.2c0.1-0.3,0.3-0.6,0.5-0.9c0.2-0.2,0.4-0.4,0.7-0.5c0.3-0.1,0.6-0.2,0.9-0.2c0.3,0,0.5,0,0.8,0.1     c0.2,0.1,0.4,0.2,0.6,0.3l0.1-0.2h0.8L98.5,287.3z M97.6,286.4l0-3c-0.2-0.1-0.4-0.2-0.6-0.2c-0.2,0-0.4-0.1-0.6-0.1     c-0.5,0-0.9,0.2-1.1,0.5c-0.3,0.3-0.4,0.8-0.4,1.5c0,0.6,0.1,1.1,0.3,1.4c0.2,0.3,0.5,0.5,1,0.5c0.3,0,0.5-0.1,0.8-0.2     S97.4,286.6,97.6,286.4z"/>
			<path style="fill:#1A171B;" d="M103.4,283.4L103.4,283.4c-0.2,0-0.3-0.1-0.4-0.1s-0.3,0-0.4,0c-0.3,0-0.5,0.1-0.8,0.2     s-0.5,0.3-0.7,0.5l0,3.9h-0.9l0-5.5h0.9l0,0.8c0.3-0.3,0.6-0.5,0.9-0.6c0.3-0.1,0.5-0.2,0.8-0.2c0.2,0,0.3,0,0.3,0     c0.1,0,0.2,0,0.3,0L103.4,283.4z"/>
			<path style="fill:#1A171B;" d="M108.2,287.9h-0.9v-0.6c-0.1,0.1-0.2,0.1-0.3,0.2s-0.3,0.2-0.4,0.2c-0.1,0.1-0.3,0.1-0.5,0.2     c-0.2,0-0.4,0.1-0.7,0.1c-0.5,0-0.9-0.2-1.2-0.5c-0.3-0.3-0.5-0.7-0.5-1.2c0-0.4,0.1-0.7,0.3-1c0.2-0.3,0.4-0.5,0.7-0.6     c0.3-0.1,0.7-0.2,1.1-0.3c0.4-0.1,0.9-0.1,1.4-0.1v-0.1c0-0.2,0-0.4-0.1-0.5c-0.1-0.1-0.2-0.2-0.3-0.3c-0.1-0.1-0.3-0.1-0.4-0.2     c-0.2,0-0.4,0-0.5,0c-0.2,0-0.5,0-0.8,0.1c-0.3,0.1-0.6,0.2-0.9,0.3h0l0-0.9c0.2,0,0.4-0.1,0.7-0.2c0.3-0.1,0.6-0.1,0.9-0.1     c0.4,0,0.7,0,0.9,0.1c0.3,0.1,0.5,0.2,0.7,0.3c0.2,0.1,0.3,0.3,0.4,0.6s0.2,0.5,0.2,0.9L108.2,287.9z M107.4,286.5l0-1.5     c-0.3,0-0.6,0-0.9,0.1c-0.4,0-0.6,0.1-0.9,0.1c-0.2,0.1-0.5,0.2-0.6,0.3c-0.2,0.2-0.2,0.4-0.2,0.7c0,0.3,0.1,0.5,0.3,0.7     c0.2,0.2,0.5,0.2,0.8,0.2c0.3,0,0.6-0.1,0.8-0.2C106.9,286.9,107.2,286.7,107.4,286.5z M107.7,279.7l-1.3,1.8h-0.7l0.8-1.8     L107.7,279.7z"/>
			<path style="fill:#1A171B;" d="M114.2,287.9h-0.9l0-3.1c0-0.3,0-0.5,0-0.7s-0.1-0.4-0.2-0.5c-0.1-0.1-0.2-0.2-0.3-0.3     c-0.1-0.1-0.3-0.1-0.6-0.1c-0.2,0-0.5,0.1-0.7,0.2c-0.3,0.1-0.5,0.3-0.7,0.5l0,4.1h-0.9l0-5.5h0.9v0.6c0.3-0.2,0.6-0.4,0.8-0.6     c0.3-0.1,0.6-0.2,0.9-0.2c0.6,0,1,0.2,1.3,0.5s0.4,0.9,0.4,1.5L114.2,287.9z"/>
		</g>
	</g>
	<g>
		<g>
			<path style="fill:#1A171B;" d="M306.4,110.8l-3.5,0l0,2.1l3,0v0.9l-3,0l0,3.5l-0.9,0l0-7.3l4.4,0V110.8z"/>
		</g>
		<g>
			<path style="fill:#1A171B;" d="M311.5,114.5c0,0.9-0.2,1.6-0.6,2.1c-0.4,0.5-1,0.8-1.7,0.8c-0.7,0-1.3-0.3-1.7-0.8     s-0.6-1.2-0.6-2.1s0.2-1.6,0.6-2.1c0.4-0.5,1-0.8,1.7-0.8c0.7,0,1.3,0.3,1.7,0.8C311.3,112.9,311.5,113.6,311.5,114.5z      M310.6,114.5c0-0.7-0.1-1.2-0.4-1.6c-0.3-0.3-0.6-0.5-1.1-0.5c-0.5,0-0.8,0.2-1.1,0.5c-0.3,0.3-0.4,0.9-0.4,1.6     c0,0.7,0.1,1.2,0.4,1.6c0.3,0.4,0.6,0.5,1.1,0.5c0.5,0,0.8-0.2,1.1-0.5C310.5,115.7,310.6,115.2,310.6,114.5z"/>
			<path style="fill:#1A171B;" d="M316.1,112.8L316.1,112.8c-0.2,0-0.3-0.1-0.4-0.1s-0.3,0-0.4,0c-0.3,0-0.5,0.1-0.8,0.2     c-0.3,0.1-0.5,0.3-0.7,0.5l0,3.9l-0.9,0l0-5.5l0.9,0v0.8c0.3-0.3,0.6-0.5,0.9-0.6c0.3-0.1,0.5-0.2,0.8-0.2c0.2,0,0.3,0,0.3,0     c0.1,0,0.2,0,0.3,0V112.8z"/>
			<path style="fill:#1A171B;" d="M321.2,117.2l-0.9,0l0-3.1c0-0.3,0-0.5,0-0.7c0-0.2-0.1-0.4-0.2-0.5c-0.1-0.1-0.2-0.2-0.3-0.3     s-0.3-0.1-0.6-0.1c-0.2,0-0.5,0.1-0.7,0.2c-0.3,0.1-0.5,0.3-0.7,0.5l0,4.1l-0.9,0l0-5.5l0.9,0v0.6c0.3-0.2,0.6-0.4,0.8-0.6     s0.6-0.2,0.9-0.2c0.6,0,1,0.2,1.3,0.5c0.3,0.4,0.4,0.9,0.4,1.5L321.2,117.2z"/>
			<path style="fill:#1A171B;" d="M327.2,114.6l-3.8,0c0,0.3,0,0.6,0.1,0.9s0.2,0.5,0.4,0.6c0.2,0.2,0.4,0.3,0.6,0.4     c0.2,0.1,0.5,0.1,0.7,0.1c0.4,0,0.7-0.1,1.1-0.2c0.4-0.1,0.6-0.3,0.8-0.4h0v1c-0.3,0.1-0.6,0.2-0.9,0.3c-0.3,0.1-0.6,0.1-1,0.1     c-0.9,0-1.5-0.2-2-0.7c-0.5-0.5-0.7-1.2-0.7-2.1c0-0.9,0.2-1.6,0.7-2.1c0.5-0.5,1.1-0.8,1.8-0.8c0.7,0,1.2,0.2,1.6,0.6     s0.6,1,0.6,1.8V114.6z M326.4,113.9c0-0.5-0.1-0.9-0.3-1.1c-0.2-0.3-0.6-0.4-1-0.4c-0.5,0-0.8,0.1-1.1,0.4     c-0.3,0.3-0.4,0.6-0.5,1.1L326.4,113.9z"/>
			<path style="fill:#1A171B;" d="M329.4,117.2l-0.9,0l0-7.6l0.9,0L329.4,117.2z"/>
			<path style="fill:#1A171B;" d="M335.5,114.5c0,0.9-0.2,1.6-0.6,2.1s-1,0.8-1.7,0.8c-0.7,0-1.3-0.3-1.7-0.8     c-0.4-0.5-0.6-1.2-0.6-2.1s0.2-1.6,0.6-2.1c0.4-0.5,1-0.8,1.7-0.8c0.7,0,1.3,0.3,1.7,0.8C335.3,112.9,335.5,113.6,335.5,114.5z      M334.6,114.5c0-0.7-0.1-1.2-0.4-1.6c-0.3-0.3-0.6-0.5-1.1-0.5c-0.5,0-0.8,0.2-1.1,0.5c-0.3,0.3-0.4,0.9-0.4,1.6     c0,0.7,0.1,1.2,0.4,1.6s0.6,0.5,1.1,0.5c0.5,0,0.8-0.2,1.1-0.5C334.5,115.7,334.6,115.2,334.6,114.5z"/>
			<path style="fill:#1A171B;" d="M340.5,115.6c0,0.5-0.2,0.9-0.6,1.2c-0.4,0.3-0.9,0.5-1.6,0.5c-0.4,0-0.7,0-1-0.1     s-0.6-0.2-0.8-0.3v-1h0c0.3,0.2,0.6,0.4,0.9,0.5c0.3,0.1,0.7,0.2,1,0.2c0.4,0,0.7-0.1,0.9-0.2c0.2-0.1,0.3-0.3,0.3-0.6     c0-0.2-0.1-0.4-0.2-0.5c-0.1-0.1-0.3-0.2-0.7-0.3c-0.1,0-0.3-0.1-0.5-0.1s-0.4-0.1-0.5-0.1c-0.5-0.1-0.8-0.3-1-0.6     c-0.2-0.2-0.3-0.5-0.3-0.9c0-0.2,0-0.4,0.1-0.6c0.1-0.2,0.2-0.4,0.4-0.5c0.2-0.2,0.4-0.3,0.7-0.4s0.6-0.1,0.9-0.1     c0.3,0,0.6,0,0.9,0.1c0.3,0.1,0.6,0.2,0.8,0.3l0,1h0c-0.2-0.2-0.5-0.3-0.8-0.4c-0.3-0.1-0.6-0.2-0.9-0.2c-0.3,0-0.6,0.1-0.8,0.2     s-0.3,0.3-0.3,0.6c0,0.2,0.1,0.4,0.2,0.5c0.1,0.1,0.3,0.2,0.6,0.3c0.2,0,0.3,0.1,0.5,0.1s0.4,0.1,0.5,0.1     c0.4,0.1,0.7,0.3,0.9,0.5C340.4,114.9,340.5,115.2,340.5,115.6z"/>
			<path style="fill:#1A171B;" d="M349.3,117.2l-0.9,0v-0.6c-0.2,0.2-0.5,0.4-0.8,0.5c-0.3,0.1-0.6,0.2-0.9,0.2     c-0.6,0-1.1-0.3-1.5-0.8c-0.4-0.5-0.5-1.2-0.5-2.1c0-0.5,0.1-0.9,0.2-1.2c0.1-0.4,0.3-0.7,0.5-0.9c0.2-0.2,0.5-0.4,0.7-0.6     c0.3-0.1,0.6-0.2,0.9-0.2c0.3,0,0.5,0,0.7,0.1c0.2,0.1,0.4,0.2,0.7,0.3l0-2.4l0.9,0L349.3,117.2z M348.4,115.9l0-3.1     c-0.2-0.1-0.4-0.2-0.6-0.2s-0.4-0.1-0.6-0.1c-0.5,0-0.9,0.2-1.1,0.5c-0.3,0.4-0.4,0.9-0.4,1.5c0,0.6,0.1,1.1,0.3,1.5     c0.2,0.3,0.5,0.5,1,0.5c0.2,0,0.5-0.1,0.7-0.2C348,116.2,348.2,116.1,348.4,115.9z"/>
			<path style="fill:#1A171B;" d="M355.3,114.6l-3.8,0c0,0.3,0,0.6,0.1,0.9c0.1,0.2,0.2,0.5,0.4,0.6c0.2,0.2,0.4,0.3,0.6,0.4     s0.5,0.1,0.7,0.1c0.4,0,0.7-0.1,1.1-0.2c0.4-0.1,0.6-0.3,0.8-0.4h0v1c-0.3,0.1-0.6,0.2-0.9,0.3c-0.3,0.1-0.6,0.1-1,0.1     c-0.9,0-1.5-0.2-2-0.7c-0.5-0.5-0.7-1.2-0.7-2.1c0-0.9,0.2-1.6,0.7-2.1c0.5-0.5,1.1-0.8,1.8-0.8c0.7,0,1.2,0.2,1.6,0.6     s0.6,1,0.6,1.8V114.6z M354.5,113.9c0-0.5-0.1-0.9-0.3-1.1c-0.2-0.3-0.6-0.4-1-0.4c-0.5,0-0.8,0.1-1.1,0.4     c-0.3,0.3-0.4,0.6-0.5,1.1L354.5,113.9z"/>
			<path style="fill:#1A171B;" d="M366.1,117.2h-0.9l0-6.3l-1.9,4.3h-0.5l-1.9-4.3l0,6.3H360l0-7.3l1.2,0l1.8,4l1.8-4l1.3,0     L366.1,117.2z"/>
			<path style="fill:#1A171B;" d="M372.3,114.5c0,0.9-0.2,1.6-0.6,2.1c-0.4,0.5-1,0.8-1.7,0.8c-0.7,0-1.3-0.3-1.7-0.8     c-0.4-0.5-0.6-1.2-0.6-2.1s0.2-1.6,0.6-2.1c0.4-0.5,1-0.8,1.7-0.8c0.7,0,1.3,0.3,1.7,0.8C372.1,112.9,372.3,113.6,372.3,114.5z      M371.4,114.5c0-0.7-0.1-1.2-0.4-1.6c-0.3-0.3-0.6-0.5-1.1-0.5c-0.5,0-0.8,0.2-1.1,0.5c-0.3,0.3-0.4,0.9-0.4,1.6     c0,0.7,0.1,1.2,0.4,1.6s0.6,0.5,1.1,0.5c0.5,0,0.8-0.2,1.1-0.5C371.3,115.7,371.4,115.2,371.4,114.5z"/>
			<path style="fill:#1A171B;" d="M377.9,117.2l-0.9,0l0-3.1c0-0.3,0-0.5,0-0.7c0-0.2-0.1-0.4-0.2-0.5c-0.1-0.1-0.2-0.2-0.3-0.3     s-0.3-0.1-0.6-0.1c-0.2,0-0.5,0.1-0.7,0.2c-0.3,0.1-0.5,0.3-0.7,0.5l0,4.1h-0.9l0-5.5h0.9v0.6c0.3-0.2,0.6-0.4,0.8-0.6     s0.6-0.2,0.9-0.2c0.6,0,1,0.2,1.3,0.5c0.3,0.4,0.4,0.9,0.4,1.5L377.9,117.2z"/>
			<path style="fill:#1A171B;" d="M382.3,117.2c-0.2,0-0.3,0.1-0.5,0.1s-0.4,0-0.5,0c-0.5,0-0.9-0.1-1.2-0.4     c-0.3-0.3-0.4-0.8-0.4-1.4l0-2.9h-0.6v-0.8h0.6v-1.6l0.9,0v1.6l1.8,0v0.8l-1.8,0l0,2.5c0,0.3,0,0.5,0,0.7s0.1,0.3,0.1,0.5     c0.1,0.1,0.2,0.2,0.3,0.3c0.1,0.1,0.3,0.1,0.5,0.1c0.1,0,0.3,0,0.4-0.1c0.2,0,0.3-0.1,0.3-0.1h0V117.2z"/>
			<path style="fill:#1A171B;" d="M387.7,114.6l-3.8,0c0,0.3,0,0.6,0.1,0.9s0.2,0.5,0.4,0.6c0.2,0.2,0.4,0.3,0.6,0.4     s0.5,0.1,0.7,0.1c0.4,0,0.7-0.1,1.1-0.2c0.4-0.1,0.6-0.3,0.8-0.4h0v1c-0.3,0.1-0.6,0.2-0.9,0.3c-0.3,0.1-0.6,0.1-1,0.1     c-0.9,0-1.5-0.2-2-0.7c-0.5-0.5-0.7-1.2-0.7-2.1c0-0.9,0.2-1.6,0.7-2.1c0.5-0.5,1.1-0.8,1.8-0.8c0.7,0,1.2,0.2,1.6,0.6     c0.4,0.4,0.6,1,0.6,1.8V114.6z M386.8,113.9c0-0.5-0.1-0.9-0.3-1.1c-0.2-0.3-0.6-0.4-1-0.4c-0.5,0-0.8,0.1-1.1,0.4     c-0.3,0.3-0.4,0.6-0.5,1.1L386.8,113.9z"/>
			<path style="fill:#1A171B;" d="M392.7,115.7c0,0.5-0.2,0.9-0.6,1.2c-0.4,0.3-0.9,0.5-1.6,0.5c-0.4,0-0.7,0-1-0.1     c-0.3-0.1-0.6-0.2-0.8-0.3v-1h0c0.3,0.2,0.6,0.4,0.9,0.5c0.3,0.1,0.7,0.2,1,0.2c0.4,0,0.7-0.1,0.9-0.2c0.2-0.1,0.3-0.3,0.3-0.6     c0-0.2-0.1-0.4-0.2-0.5s-0.3-0.2-0.7-0.3c-0.1,0-0.3-0.1-0.5-0.1s-0.4-0.1-0.5-0.1c-0.5-0.1-0.8-0.3-1-0.6s-0.3-0.5-0.3-0.9     c0-0.2,0-0.4,0.1-0.6c0.1-0.2,0.2-0.4,0.4-0.5c0.2-0.2,0.4-0.3,0.7-0.4c0.3-0.1,0.6-0.1,0.9-0.1c0.3,0,0.6,0,0.9,0.1     s0.6,0.2,0.8,0.3l0,1h0c-0.2-0.2-0.5-0.3-0.8-0.4c-0.3-0.1-0.6-0.2-0.9-0.2c-0.3,0-0.6,0.1-0.8,0.2s-0.3,0.3-0.3,0.6     c0,0.2,0.1,0.4,0.2,0.5c0.1,0.1,0.3,0.2,0.6,0.3c0.2,0,0.3,0.1,0.5,0.1c0.2,0,0.4,0.1,0.5,0.1c0.4,0.1,0.7,0.3,0.9,0.5     C392.5,114.9,392.7,115.3,392.7,115.7z"/>
		</g>
	</g>
</g>
<g id="text-comarques">
	<g>
		<g>
			<path style="fill:#1A171B;" d="M250.5,42.3l-1.9,0l-0.5-1.5l-2.7,0l-0.5,1.5l-1.9,0l2.7-7.3l2.2,0L250.5,42.3z M248.4,32.3     L248.4,32.3l-1.7,1.9l-1.2,0l1.2-1.9L248.4,32.3z M247.6,39.5l-0.9-2.6l-0.9,2.6L247.6,39.5z"/>
			<path style="fill:#1A171B;" d="M255.4,38.5h-0.2c-0.1,0-0.2,0-0.4-0.1c-0.2,0-0.3,0-0.4,0c-0.3,0-0.5,0-0.7,0     c-0.2,0-0.4,0.1-0.6,0.2l0,3.7l-1.8,0l0-5.5l1.8,0v0.8c0.4-0.3,0.7-0.6,1-0.7c0.3-0.1,0.5-0.2,0.8-0.2c0.1,0,0.1,0,0.2,0     c0.1,0,0.1,0,0.2,0V38.5z"/>
			<path style="fill:#1A171B;" d="M261.8,39.9l-4,0c0,0.4,0.2,0.8,0.5,1c0.3,0.2,0.7,0.3,1.3,0.3c0.4,0,0.7-0.1,1.1-0.2     s0.6-0.3,0.8-0.4h0.2l0,1.4c-0.4,0.2-0.8,0.3-1.1,0.3c-0.4,0.1-0.7,0.1-1.2,0.1c-1.1,0-1.9-0.2-2.5-0.7c-0.6-0.5-0.9-1.2-0.9-2.1     c0-0.9,0.3-1.6,0.8-2.2c0.6-0.5,1.3-0.8,2.3-0.8c0.9,0,1.6,0.2,2,0.7c0.4,0.5,0.7,1.1,0.7,1.9V39.9z M260.1,38.8     c0-0.4-0.1-0.6-0.3-0.8s-0.4-0.3-0.8-0.3c-0.3,0-0.6,0.1-0.8,0.3c-0.2,0.2-0.3,0.5-0.4,0.8L260.1,38.8z"/>
			<path style="fill:#1A171B;" d="M266.4,41.7c-0.1,0.1-0.2,0.2-0.4,0.3c-0.1,0.1-0.3,0.2-0.4,0.2c-0.2,0.1-0.4,0.1-0.5,0.2     c-0.2,0-0.4,0.1-0.6,0.1c-0.5,0-1-0.2-1.3-0.5s-0.5-0.7-0.5-1.2c0-0.4,0.1-0.7,0.3-1s0.4-0.5,0.8-0.6c0.3-0.1,0.7-0.3,1.2-0.3     c0.5-0.1,1-0.1,1.5-0.1v0c0-0.3-0.1-0.5-0.4-0.6c-0.2-0.1-0.6-0.2-1.1-0.2c-0.3,0-0.6,0.1-0.9,0.2c-0.3,0.1-0.6,0.2-0.7,0.2h-0.2     v-1.3c0.2,0,0.5-0.1,0.9-0.2c0.4-0.1,0.8-0.1,1.3-0.1c1,0,1.7,0.2,2.2,0.5c0.4,0.3,0.7,0.8,0.7,1.4l0,3.7l-1.7,0V41.7z      M266.4,40.9v-1.1c-0.2,0-0.5,0-0.8,0.1c-0.3,0-0.5,0.1-0.6,0.1c-0.2,0.1-0.3,0.1-0.4,0.2s-0.1,0.2-0.1,0.4c0,0.1,0,0.2,0,0.3     c0,0.1,0.1,0.1,0.1,0.2c0.1,0.1,0.2,0.1,0.3,0.1s0.3,0,0.5,0c0.2,0,0.4,0,0.5-0.1S266.2,41,266.4,40.9z"/>
			<path style="fill:#1A171B;" d="M278.5,42.3l-1.8,0v-0.6c-0.3,0.2-0.6,0.4-0.8,0.5s-0.6,0.2-0.9,0.2c-0.7,0-1.2-0.3-1.6-0.8     c-0.4-0.5-0.6-1.2-0.6-2.1c0-0.5,0.1-0.9,0.2-1.2s0.3-0.7,0.6-0.9c0.2-0.2,0.5-0.4,0.8-0.6c0.3-0.1,0.6-0.2,0.9-0.2     c0.3,0,0.6,0,0.8,0.1c0.2,0.1,0.4,0.2,0.6,0.3l0-2.3l1.8,0L278.5,42.3z M276.7,40.8l0-2.7c-0.1-0.1-0.3-0.1-0.4-0.1s-0.3,0-0.4,0     c-0.5,0-0.8,0.1-1,0.4s-0.3,0.7-0.3,1.2c0,0.5,0.1,0.9,0.3,1.2c0.2,0.2,0.5,0.4,0.9,0.4c0.2,0,0.3,0,0.5-0.1     C276.4,41,276.6,40.9,276.7,40.8z"/>
			<path style="fill:#1A171B;" d="M285.5,39.9l-4,0c0,0.4,0.2,0.8,0.5,1c0.3,0.2,0.7,0.3,1.3,0.3c0.4,0,0.7-0.1,1.1-0.2     c0.3-0.1,0.6-0.3,0.8-0.4h0.2l0,1.4c-0.4,0.2-0.8,0.3-1.1,0.3s-0.7,0.1-1.2,0.1c-1.1,0-1.9-0.2-2.5-0.7c-0.6-0.5-0.9-1.2-0.9-2.1     c0-0.9,0.3-1.6,0.8-2.2c0.6-0.5,1.3-0.8,2.3-0.8c0.9,0,1.6,0.2,2,0.7c0.4,0.5,0.7,1.1,0.7,1.9V39.9z M283.8,38.9     c0-0.4-0.1-0.6-0.3-0.8c-0.2-0.2-0.4-0.3-0.8-0.3c-0.3,0-0.6,0.1-0.8,0.3s-0.3,0.5-0.4,0.8L283.8,38.9z"/>
			<path style="fill:#1A171B;" d="M296.3,37.3c0,0.3-0.1,0.6-0.2,1s-0.3,0.6-0.5,0.8c-0.3,0.3-0.6,0.5-1,0.6s-0.8,0.2-1.3,0.2     l-1.2,0l0,2.4l-1.9,0l0-7.3l3.1,0c0.5,0,0.9,0,1.2,0.1s0.6,0.2,0.8,0.4c0.3,0.2,0.5,0.4,0.7,0.7     C296.2,36.6,296.3,36.9,296.3,37.3z M294.4,37.4c0-0.2-0.1-0.4-0.2-0.5s-0.2-0.3-0.4-0.3c-0.2-0.1-0.4-0.1-0.6-0.1     c-0.2,0-0.4,0-0.7,0h-0.3l0,2.2h0.5c0.3,0,0.6,0,0.8-0.1c0.2,0,0.4-0.1,0.5-0.2c0.1-0.1,0.2-0.2,0.3-0.4S294.4,37.6,294.4,37.4z"/>
			<path style="fill:#1A171B;" d="M303.1,39.6c0,0.9-0.3,1.6-0.8,2.1c-0.5,0.5-1.3,0.8-2.2,0.8s-1.7-0.3-2.2-0.8     c-0.5-0.5-0.8-1.2-0.8-2.1c0-0.9,0.3-1.6,0.8-2.1c0.5-0.5,1.3-0.8,2.2-0.8c1,0,1.7,0.3,2.2,0.8C302.9,38,303.1,38.7,303.1,39.6z      M301,40.9c0.1-0.1,0.2-0.3,0.3-0.5c0.1-0.2,0.1-0.5,0.1-0.8c0-0.3,0-0.6-0.1-0.8c-0.1-0.2-0.1-0.4-0.2-0.5     c-0.1-0.1-0.2-0.2-0.4-0.3s-0.3-0.1-0.5-0.1s-0.3,0-0.5,0.1s-0.3,0.1-0.4,0.3c-0.1,0.1-0.2,0.3-0.3,0.5s-0.1,0.5-0.1,0.8     c0,0.3,0,0.6,0.1,0.8s0.1,0.4,0.2,0.5c0.1,0.1,0.2,0.2,0.4,0.3c0.1,0.1,0.3,0.1,0.5,0.1c0.2,0,0.3,0,0.5-0.1     C300.8,41.1,300.9,41,301,40.9z"/>
			<path style="fill:#1A171B;" d="M309.9,42.3l-1.8,0l0-2.7c0-0.2,0-0.4,0-0.7c0-0.2-0.1-0.4-0.1-0.5c-0.1-0.1-0.2-0.2-0.3-0.3     c-0.1-0.1-0.3-0.1-0.5-0.1c-0.2,0-0.3,0-0.5,0.1c-0.2,0.1-0.3,0.1-0.5,0.2l0,3.9l-1.8,0l0-5.5l1.8,0v0.6c0.3-0.2,0.6-0.4,0.9-0.6     c0.3-0.1,0.6-0.2,1-0.2c0.6,0,1.1,0.2,1.4,0.5c0.3,0.3,0.5,0.9,0.5,1.5L309.9,42.3z"/>
			<path style="fill:#1A171B;" d="M315,42.3c-0.2,0-0.4,0.1-0.6,0.1c-0.2,0-0.5,0-0.8,0c-0.7,0-1.2-0.1-1.5-0.4     c-0.3-0.3-0.5-0.8-0.5-1.4l0-2.6l-0.7,0v-1.2l0.7,0l0-1.6l1.8,0l0,1.6l1.6,0V38l-1.6,0l0,1.9c0,0.2,0,0.4,0,0.5     c0,0.1,0,0.3,0.1,0.4c0,0.1,0.1,0.2,0.2,0.3c0.1,0.1,0.3,0.1,0.5,0.1c0.1,0,0.2,0,0.4-0.1s0.3-0.1,0.3-0.1l0.1,0L315,42.3z"/>
			<path style="fill:#1A171B;" d="M321.5,39.9l-4,0c0,0.4,0.2,0.8,0.5,1c0.3,0.2,0.7,0.3,1.3,0.3c0.4,0,0.7-0.1,1.1-0.2     s0.6-0.3,0.8-0.4h0.2l0,1.4c-0.4,0.2-0.8,0.3-1.1,0.3s-0.7,0.1-1.2,0.1c-1.1,0-1.9-0.2-2.5-0.7c-0.6-0.5-0.9-1.2-0.9-2.1     c0-0.9,0.3-1.6,0.8-2.2c0.6-0.5,1.3-0.8,2.3-0.8c0.9,0,1.6,0.2,2,0.7c0.4,0.5,0.7,1.1,0.7,1.9V39.9z M319.7,38.9     c0-0.4-0.1-0.6-0.3-0.8c-0.2-0.2-0.4-0.3-0.8-0.3c-0.3,0-0.6,0.1-0.8,0.3s-0.3,0.5-0.4,0.8L319.7,38.9z"/>
			<path style="fill:#1A171B;" d="M328.2,36.8l-2.1,5.5l-2,0l-2.1-5.5l1.9,0l1.3,3.8l1.3-3.8L328.2,36.8z"/>
			<path style="fill:#1A171B;" d="M334.6,39.9l-4,0c0,0.4,0.2,0.8,0.5,1c0.3,0.2,0.7,0.3,1.3,0.3c0.4,0,0.7-0.1,1.1-0.2     c0.3-0.1,0.6-0.3,0.8-0.4h0.2l0,1.4c-0.4,0.2-0.8,0.3-1.1,0.3c-0.4,0.1-0.7,0.1-1.2,0.1c-1.1,0-1.9-0.2-2.5-0.7     c-0.6-0.5-0.9-1.2-0.9-2.1c0-0.9,0.3-1.6,0.8-2.2c0.6-0.5,1.3-0.8,2.3-0.8c0.9,0,1.6,0.2,2,0.7c0.4,0.5,0.7,1.1,0.7,1.9V39.9z      M332.9,38.9c0-0.4-0.1-0.6-0.3-0.8s-0.4-0.3-0.8-0.3c-0.3,0-0.6,0.1-0.8,0.3s-0.3,0.5-0.4,0.8L332.9,38.9z"/>
			<path style="fill:#1A171B;" d="M341.2,42.3l-1.8,0v-0.6c-0.3,0.2-0.6,0.4-0.8,0.5s-0.6,0.2-0.9,0.2c-0.7,0-1.2-0.3-1.6-0.8     c-0.4-0.5-0.6-1.2-0.6-2.1c0-0.5,0.1-0.9,0.2-1.2s0.3-0.7,0.6-0.9c0.2-0.2,0.5-0.4,0.8-0.6c0.3-0.1,0.6-0.2,0.9-0.2     c0.3,0,0.6,0,0.8,0.1c0.2,0.1,0.4,0.2,0.6,0.3l0-2.3l1.8,0L341.2,42.3z M339.4,40.8l0-2.7c-0.1-0.1-0.3-0.1-0.4-0.1s-0.3,0-0.4,0     c-0.5,0-0.8,0.1-1,0.4s-0.3,0.7-0.3,1.2c0,0.5,0.1,0.9,0.3,1.2c0.2,0.2,0.5,0.4,0.9,0.4c0.2,0,0.3,0,0.5-0.1     C339.1,41,339.3,40.9,339.4,40.8z"/>
			<path style="fill:#1A171B;" d="M346.8,38.5h-0.2c-0.1,0-0.2,0-0.4-0.1c-0.2,0-0.3,0-0.4,0c-0.3,0-0.5,0-0.7,0     c-0.2,0-0.4,0.1-0.6,0.2l0,3.7l-1.8,0l0-5.5l1.8,0v0.8c0.4-0.3,0.7-0.6,1-0.7c0.3-0.1,0.5-0.2,0.8-0.2c0.1,0,0.1,0,0.2,0     c0.1,0,0.1,0,0.2,0V38.5z"/>
			<path style="fill:#1A171B;" d="M351.1,41.8c-0.1,0.1-0.2,0.2-0.4,0.3s-0.3,0.2-0.4,0.2c-0.2,0.1-0.4,0.1-0.5,0.2     c-0.2,0-0.4,0.1-0.6,0.1c-0.5,0-1-0.2-1.3-0.5s-0.5-0.7-0.5-1.2c0-0.4,0.1-0.7,0.3-1c0.2-0.3,0.4-0.5,0.8-0.6     c0.3-0.1,0.7-0.3,1.2-0.3c0.5-0.1,1-0.1,1.5-0.1v0c0-0.3-0.1-0.5-0.4-0.6c-0.2-0.1-0.6-0.2-1.1-0.2c-0.3,0-0.6,0.1-0.9,0.2     c-0.3,0.1-0.6,0.2-0.7,0.2h-0.2V37c0.2,0,0.5-0.1,0.9-0.2c0.4-0.1,0.8-0.1,1.3-0.1c1,0,1.7,0.2,2.2,0.5c0.4,0.3,0.7,0.8,0.7,1.4     l0,3.7l-1.7,0V41.8z M351.1,40.9v-1.1c-0.2,0-0.5,0-0.8,0.1c-0.3,0-0.5,0.1-0.6,0.1c-0.2,0.1-0.3,0.1-0.4,0.2s-0.1,0.2-0.1,0.4     c0,0.1,0,0.2,0,0.3c0,0.1,0.1,0.1,0.1,0.2c0.1,0.1,0.2,0.1,0.3,0.1s0.3,0,0.5,0c0.2,0,0.4,0,0.5-0.1S351,41,351.1,40.9z"/>
		</g>
	</g>
	<g>
		<g>
			<path style="fill:#1A171B;" d="M105.8,133.6c0,1.2-0.3,2.1-1,2.8c-0.7,0.7-1.6,1-2.8,1c-1.2,0-2.1-0.3-2.7-1     c-0.7-0.7-1-1.6-1-2.8c0-1.2,0.3-2.1,1-2.8c0.7-0.7,1.6-1,2.7-1c1.2,0,2.1,0.3,2.7,1C105.4,131.5,105.8,132.4,105.8,133.6z      M103.3,135.4c0.2-0.2,0.3-0.5,0.4-0.8c0.1-0.3,0.1-0.7,0.1-1.1c0-0.4-0.1-0.8-0.2-1.1s-0.2-0.6-0.4-0.7     c-0.2-0.2-0.4-0.3-0.6-0.4c-0.2-0.1-0.4-0.1-0.7-0.1c-0.2,0-0.5,0-0.7,0.1s-0.4,0.2-0.6,0.4c-0.2,0.2-0.3,0.4-0.4,0.8     c-0.1,0.3-0.2,0.7-0.2,1.1c0,0.4,0,0.8,0.1,1.1c0.1,0.3,0.2,0.6,0.4,0.7c0.2,0.2,0.4,0.3,0.6,0.4s0.4,0.1,0.7,0.1     c0.2,0,0.5,0,0.7-0.1C102.9,135.7,103.1,135.6,103.3,135.4z"/>
			<path style="fill:#1A171B;" d="M118.3,137.2l-1.9,0l0-4.9l-1.3,3.2l-1.3,0l-1.3-3.2l0,4.9l-1.8,0l0-7.3l2.2,0l1.6,3.6l1.6-3.6     l2.2,0L118.3,137.2z"/>
			<path style="fill:#1A171B;" d="M125.6,134.5c0,0.9-0.3,1.6-0.8,2.1c-0.5,0.5-1.3,0.8-2.2,0.8c-1,0-1.7-0.3-2.2-0.8     c-0.5-0.5-0.8-1.2-0.8-2.1c0-0.9,0.3-1.6,0.8-2.1c0.5-0.5,1.3-0.8,2.2-0.8c1,0,1.7,0.3,2.2,0.8     C125.4,132.9,125.6,133.6,125.6,134.5z M123.5,135.8c0.1-0.1,0.2-0.3,0.3-0.5c0.1-0.2,0.1-0.5,0.1-0.8c0-0.3,0-0.6-0.1-0.8     c-0.1-0.2-0.1-0.4-0.2-0.5c-0.1-0.1-0.2-0.2-0.4-0.3c-0.1-0.1-0.3-0.1-0.5-0.1c-0.2,0-0.3,0-0.5,0.1s-0.3,0.1-0.4,0.3     c-0.1,0.1-0.2,0.3-0.3,0.5c-0.1,0.2-0.1,0.5-0.1,0.8c0,0.3,0,0.6,0.1,0.8c0.1,0.2,0.1,0.4,0.2,0.5c0.1,0.1,0.2,0.2,0.4,0.3     c0.1,0.1,0.3,0.1,0.5,0.1c0.2,0,0.3,0,0.5-0.1C123.2,136,123.4,135.9,123.5,135.8z"/>
			<path style="fill:#1A171B;" d="M130.8,133.4l-0.2,0c-0.1,0-0.2,0-0.4-0.1c-0.2,0-0.3,0-0.4,0c-0.3,0-0.5,0-0.7,0     c-0.2,0-0.4,0.1-0.6,0.2l0,3.7l-1.8,0l0-5.5l1.8,0v0.8c0.4-0.3,0.7-0.6,1-0.7c0.3-0.1,0.5-0.2,0.8-0.2c0.1,0,0.1,0,0.2,0     c0.1,0,0.1,0,0.2,0L130.8,133.4z"/>
			<path style="fill:#1A171B;" d="M135.8,133.4h-0.2c-0.1,0-0.2,0-0.4-0.1c-0.2,0-0.3,0-0.4,0c-0.3,0-0.5,0-0.7,0     c-0.2,0-0.4,0.1-0.6,0.2l0,3.7l-1.8,0l0-5.5l1.8,0v0.8c0.4-0.3,0.7-0.6,1-0.7s0.5-0.2,0.8-0.2c0.1,0,0.1,0,0.2,0     c0.1,0,0.1,0,0.2,0L135.8,133.4z"/>
			<path style="fill:#1A171B;" d="M140.1,136.6c-0.1,0.1-0.2,0.2-0.4,0.3c-0.1,0.1-0.3,0.2-0.4,0.2c-0.2,0.1-0.4,0.1-0.5,0.2     c-0.2,0-0.4,0.1-0.6,0.1c-0.5,0-1-0.2-1.3-0.5s-0.5-0.7-0.5-1.2c0-0.4,0.1-0.7,0.3-1c0.2-0.3,0.4-0.5,0.8-0.6     c0.3-0.1,0.7-0.3,1.2-0.3c0.5-0.1,1-0.1,1.5-0.1v0c0-0.3-0.1-0.5-0.4-0.6c-0.2-0.1-0.6-0.2-1.1-0.2c-0.3,0-0.6,0.1-0.9,0.2     c-0.3,0.1-0.6,0.2-0.7,0.2h-0.2l0-1.3c0.2,0,0.5-0.1,0.9-0.2c0.4-0.1,0.8-0.1,1.3-0.1c1,0,1.7,0.2,2.2,0.5     c0.4,0.3,0.7,0.8,0.7,1.4l0,3.7l-1.7,0L140.1,136.6z M140.1,135.8l0-1.1c-0.2,0-0.5,0-0.8,0.1c-0.3,0-0.5,0.1-0.6,0.1     c-0.2,0.1-0.3,0.1-0.4,0.2s-0.1,0.2-0.1,0.4c0,0.1,0,0.2,0,0.3c0,0.1,0.1,0.1,0.1,0.2c0.1,0.1,0.2,0.1,0.3,0.1c0.1,0,0.3,0,0.5,0     c0.2,0,0.4,0,0.5-0.1C139.8,136,140,135.9,140.1,135.8z"/>
			<path style="fill:#1A171B;" d="M148.2,137.2l-5.2,0l0-1.1l2.9-3.1l-2.8,0l0-1.3l5,0l0,1.1l-2.8,3.1l2.9,0L148.2,137.2z"/>
			<path style="fill:#1A171B;" d="M155.1,134.5c0,0.9-0.3,1.6-0.8,2.1s-1.3,0.8-2.2,0.8c-1,0-1.7-0.3-2.2-0.8s-0.8-1.2-0.8-2.1     c0-0.9,0.3-1.6,0.8-2.1c0.5-0.5,1.3-0.8,2.2-0.8c1,0,1.7,0.3,2.2,0.8C154.8,132.9,155.1,133.6,155.1,134.5z M152.9,135.8     c0.1-0.1,0.2-0.3,0.3-0.5s0.1-0.5,0.1-0.8c0-0.3,0-0.6-0.1-0.8c-0.1-0.2-0.1-0.4-0.2-0.5c-0.1-0.1-0.2-0.2-0.4-0.3     c-0.1-0.1-0.3-0.1-0.5-0.1c-0.2,0-0.3,0-0.5,0.1c-0.1,0-0.3,0.1-0.4,0.3c-0.1,0.1-0.2,0.3-0.3,0.5c-0.1,0.2-0.1,0.5-0.1,0.8     c0,0.3,0,0.6,0.1,0.8c0.1,0.2,0.1,0.4,0.2,0.5c0.1,0.1,0.2,0.2,0.4,0.3c0.1,0.1,0.3,0.1,0.5,0.1c0.2,0,0.3,0,0.5-0.1     C152.7,136,152.8,135.9,152.9,135.8z"/>
		</g>
	</g>
	<g>
		<g>
			<path style="fill:#1A171B;" d="M326.8,235.7c-0.5,0-1-0.1-1.5-0.2c-0.5-0.2-0.9-0.4-1.2-0.7c-0.3-0.3-0.6-0.7-0.8-1.2     c-0.2-0.5-0.3-1-0.3-1.6c0-0.6,0.1-1.1,0.3-1.6c0.2-0.5,0.4-0.9,0.8-1.2c0.3-0.3,0.7-0.6,1.2-0.7c0.5-0.2,1-0.3,1.5-0.3     c0.3,0,0.6,0,0.8,0.1c0.2,0,0.5,0.1,0.7,0.1c0.2,0.1,0.4,0.1,0.6,0.2c0.2,0.1,0.3,0.1,0.5,0.2l0,1.8h-0.2     c-0.1-0.1-0.2-0.2-0.3-0.3c-0.1-0.1-0.3-0.2-0.5-0.3c-0.2-0.1-0.4-0.2-0.6-0.3c-0.2-0.1-0.4-0.1-0.7-0.1c-0.3,0-0.5,0-0.8,0.1     c-0.2,0.1-0.5,0.2-0.7,0.4c-0.2,0.2-0.3,0.4-0.5,0.7c-0.1,0.3-0.2,0.7-0.2,1.1c0,0.5,0.1,0.8,0.2,1.1c0.1,0.3,0.3,0.5,0.5,0.7     c0.2,0.2,0.4,0.3,0.7,0.4c0.2,0.1,0.5,0.1,0.7,0.1c0.2,0,0.5,0,0.7-0.1c0.2-0.1,0.4-0.2,0.6-0.3c0.2-0.1,0.3-0.2,0.4-0.3     c0.1-0.1,0.2-0.2,0.3-0.3h0.2l0,1.7c-0.2,0.1-0.4,0.2-0.5,0.2s-0.3,0.1-0.5,0.2c-0.2,0.1-0.5,0.1-0.7,0.2     C327.4,235.6,327.1,235.7,326.8,235.7z"/>
			<path style="fill:#1A171B;" d="M336.2,232.8c0,0.9-0.3,1.6-0.8,2.1c-0.5,0.5-1.3,0.8-2.2,0.8c-1,0-1.7-0.3-2.2-0.8     c-0.5-0.5-0.8-1.2-0.8-2.1c0-0.9,0.3-1.6,0.8-2.1c0.5-0.5,1.3-0.8,2.2-0.8c1,0,1.7,0.3,2.2,0.8     C336,231.2,336.2,231.9,336.2,232.8z M334.1,234.1c0.1-0.1,0.2-0.3,0.3-0.5c0.1-0.2,0.1-0.5,0.1-0.8c0-0.3,0-0.6-0.1-0.8     c-0.1-0.2-0.1-0.4-0.2-0.5c-0.1-0.1-0.2-0.2-0.4-0.3s-0.3-0.1-0.5-0.1s-0.3,0-0.5,0.1c-0.1,0-0.3,0.1-0.4,0.3     c-0.1,0.1-0.2,0.3-0.3,0.5c-0.1,0.2-0.1,0.5-0.1,0.8c0,0.3,0,0.6,0.1,0.8s0.1,0.4,0.2,0.5c0.1,0.1,0.2,0.2,0.4,0.3     s0.3,0.1,0.5,0.1c0.2,0,0.3,0,0.5-0.1S334,234.2,334.1,234.1z"/>
			<path style="fill:#1A171B;" d="M343,235.5l-1.8,0l0-2.7c0-0.2,0-0.4,0-0.7c0-0.2-0.1-0.4-0.1-0.5c-0.1-0.1-0.2-0.2-0.3-0.3     c-0.1-0.1-0.3-0.1-0.5-0.1c-0.2,0-0.3,0-0.5,0.1c-0.2,0.1-0.3,0.1-0.5,0.2l0,3.9l-1.8,0l0-5.5l1.8,0v0.6c0.3-0.2,0.6-0.4,0.9-0.6     c0.3-0.1,0.6-0.2,1-0.2c0.6,0,1.1,0.2,1.4,0.5c0.3,0.3,0.5,0.9,0.5,1.5L343,235.5z"/>
			<path style="fill:#1A171B;" d="M350,235.5l-1.8,0V235c-0.3,0.2-0.6,0.4-0.8,0.5c-0.3,0.1-0.6,0.2-0.9,0.2c-0.7,0-1.2-0.3-1.6-0.8     s-0.6-1.2-0.6-2.1c0-0.5,0.1-0.9,0.2-1.2s0.3-0.7,0.6-0.9c0.2-0.2,0.5-0.4,0.8-0.6c0.3-0.1,0.6-0.2,0.9-0.2c0.3,0,0.6,0,0.8,0.1     c0.2,0.1,0.4,0.2,0.6,0.3l0-2.3l1.8,0L350,235.5z M348.2,234l0-2.7c-0.1-0.1-0.3-0.1-0.4-0.1c-0.1,0-0.3,0-0.4,0     c-0.5,0-0.8,0.1-1,0.4c-0.2,0.3-0.3,0.7-0.3,1.2c0,0.5,0.1,0.9,0.3,1.2c0.2,0.2,0.5,0.4,0.9,0.4c0.2,0,0.3,0,0.5-0.1     C347.9,234.2,348.1,234.1,348.2,234z"/>
			<path style="fill:#1A171B;" d="M354.9,235c-0.1,0.1-0.2,0.2-0.4,0.3s-0.3,0.2-0.4,0.2c-0.2,0.1-0.4,0.1-0.5,0.2s-0.4,0.1-0.6,0.1     c-0.5,0-1-0.2-1.3-0.5c-0.4-0.3-0.5-0.7-0.5-1.2c0-0.4,0.1-0.7,0.3-1c0.2-0.3,0.4-0.5,0.8-0.6c0.3-0.1,0.7-0.3,1.2-0.3     c0.5-0.1,1-0.1,1.5-0.1v0c0-0.3-0.1-0.5-0.4-0.6c-0.2-0.1-0.6-0.2-1.1-0.2c-0.3,0-0.6,0.1-0.9,0.2c-0.3,0.1-0.6,0.2-0.7,0.2h-0.2     v-1.3c0.2,0,0.5-0.1,0.9-0.2c0.4-0.1,0.8-0.1,1.3-0.1c1,0,1.7,0.2,2.2,0.5c0.4,0.3,0.7,0.8,0.7,1.4l0,3.7l-1.7,0V235z      M354.9,234.1l0-1.1c-0.2,0-0.5,0-0.8,0.1s-0.5,0.1-0.6,0.1c-0.2,0.1-0.3,0.1-0.4,0.2s-0.1,0.2-0.1,0.4c0,0.1,0,0.2,0,0.3     c0,0.1,0.1,0.1,0.1,0.2c0.1,0.1,0.2,0.1,0.3,0.1c0.1,0,0.3,0,0.5,0c0.2,0,0.4,0,0.5-0.1S354.8,234.2,354.9,234.1z"/>
			<path style="fill:#1A171B;" d="M363.6,235.5l-1.8,0V235c-0.3,0.2-0.6,0.4-0.8,0.5c-0.3,0.1-0.6,0.2-0.9,0.2     c-0.7,0-1.2-0.3-1.6-0.8c-0.4-0.5-0.6-1.2-0.6-2.1c0-0.5,0.1-0.9,0.2-1.2s0.3-0.7,0.6-0.9c0.2-0.2,0.5-0.4,0.8-0.6     c0.3-0.1,0.6-0.2,0.9-0.2c0.3,0,0.6,0,0.8,0.1s0.4,0.2,0.6,0.3l0-2.3l1.8,0L363.6,235.5z M361.9,234l0-2.7     c-0.1-0.1-0.3-0.1-0.4-0.1c-0.1,0-0.3,0-0.4,0c-0.5,0-0.8,0.1-1,0.4c-0.2,0.3-0.3,0.7-0.3,1.2c0,0.5,0.1,0.9,0.3,1.2     s0.5,0.4,0.9,0.4c0.2,0,0.3,0,0.5-0.1C361.6,234.2,361.7,234.1,361.9,234z"/>
			<path style="fill:#1A171B;" d="M370.9,232.8c0,0.9-0.3,1.6-0.8,2.1c-0.5,0.5-1.3,0.8-2.2,0.8c-1,0-1.7-0.3-2.2-0.8     c-0.5-0.5-0.8-1.2-0.8-2.1c0-0.9,0.3-1.6,0.8-2.1c0.5-0.5,1.3-0.8,2.2-0.8c1,0,1.7,0.3,2.2,0.8     C370.6,231.2,370.9,231.9,370.9,232.8z M368.7,234.1c0.1-0.1,0.2-0.3,0.3-0.5c0.1-0.2,0.1-0.5,0.1-0.8c0-0.3,0-0.6-0.1-0.8     s-0.1-0.4-0.2-0.5c-0.1-0.1-0.2-0.2-0.4-0.3s-0.3-0.1-0.5-0.1c-0.2,0-0.3,0-0.5,0.1c-0.1,0-0.3,0.1-0.4,0.3     c-0.1,0.1-0.2,0.3-0.3,0.5c-0.1,0.2-0.1,0.5-0.1,0.8c0,0.3,0,0.6,0.1,0.8c0.1,0.2,0.1,0.4,0.2,0.5c0.1,0.1,0.2,0.2,0.4,0.3     c0.1,0.1,0.3,0.1,0.5,0.1c0.2,0,0.3,0,0.5-0.1C368.5,234.3,368.6,234.3,368.7,234.1z"/>
			<path style="fill:#1A171B;" d="M374.3,233.6l-1.8,3.7l-1.1,0l1-3.7H374.3z"/>
		</g>
		<g>
			<path style="fill:#1A171B;" d="M327.2,241.6c0,0.3-0.1,0.6-0.2,1c-0.1,0.3-0.3,0.6-0.5,0.8c-0.3,0.3-0.6,0.5-1,0.6     s-0.8,0.2-1.3,0.2l-1.2,0l0,2.4l-1.9,0l0-7.3l3.1,0c0.5,0,0.9,0,1.2,0.1s0.6,0.2,0.8,0.4c0.3,0.2,0.5,0.4,0.7,0.7     C327.1,240.8,327.2,241.1,327.2,241.6z M325.3,241.6c0-0.2-0.1-0.4-0.2-0.5c-0.1-0.1-0.2-0.3-0.4-0.3c-0.2-0.1-0.4-0.1-0.6-0.1     s-0.4,0-0.7,0h-0.3l0,2.2h0.5c0.3,0,0.6,0,0.8-0.1s0.4-0.1,0.5-0.2c0.1-0.1,0.2-0.2,0.3-0.4S325.3,241.8,325.3,241.6z"/>
			<path style="fill:#1A171B;" d="M331.8,246c-0.1,0.1-0.2,0.2-0.4,0.3s-0.3,0.2-0.4,0.2c-0.2,0.1-0.4,0.1-0.5,0.2s-0.4,0.1-0.6,0.1     c-0.5,0-1-0.2-1.3-0.5c-0.4-0.3-0.5-0.7-0.5-1.2c0-0.4,0.1-0.7,0.3-1c0.2-0.3,0.4-0.5,0.8-0.6c0.3-0.1,0.7-0.3,1.2-0.3     c0.5-0.1,1-0.1,1.5-0.1v0c0-0.3-0.1-0.5-0.4-0.6c-0.2-0.1-0.6-0.2-1.1-0.2c-0.3,0-0.6,0.1-0.9,0.2c-0.3,0.1-0.6,0.2-0.7,0.2h-0.2     v-1.3c0.2,0,0.5-0.1,0.9-0.2c0.4-0.1,0.8-0.1,1.3-0.1c1,0,1.7,0.2,2.2,0.5c0.4,0.3,0.7,0.8,0.7,1.4l0,3.7l-1.7,0V246z      M331.8,245.1V244c-0.2,0-0.5,0-0.8,0.1s-0.5,0.1-0.6,0.1c-0.2,0.1-0.3,0.1-0.4,0.2s-0.1,0.2-0.1,0.4c0,0.1,0,0.2,0,0.3     c0,0.1,0.1,0.1,0.1,0.2c0.1,0.1,0.2,0.1,0.3,0.1c0.1,0,0.3,0,0.5,0c0.2,0,0.4,0,0.5-0.1S331.6,245.2,331.8,245.1z"/>
			<path style="fill:#1A171B;" d="M339.1,242.7h-0.2c-0.1,0-0.2,0-0.4-0.1c-0.2,0-0.3,0-0.4,0c-0.3,0-0.5,0-0.7,0     c-0.2,0-0.4,0.1-0.6,0.2l0,3.7l-1.8,0l0-5.5l1.8,0v0.8c0.4-0.3,0.7-0.6,1-0.7c0.3-0.1,0.5-0.2,0.8-0.2c0.1,0,0.1,0,0.2,0     s0.1,0,0.2,0V242.7z"/>
			<path style="fill:#1A171B;" d="M343.4,246c-0.1,0.1-0.2,0.2-0.4,0.3s-0.3,0.2-0.4,0.2c-0.2,0.1-0.4,0.1-0.5,0.2s-0.4,0.1-0.6,0.1     c-0.5,0-1-0.2-1.3-0.5c-0.4-0.3-0.5-0.7-0.5-1.2c0-0.4,0.1-0.7,0.3-1c0.2-0.3,0.4-0.5,0.8-0.6c0.3-0.1,0.7-0.3,1.2-0.3     c0.5-0.1,1-0.1,1.5-0.1v0c0-0.3-0.1-0.5-0.4-0.6c-0.2-0.1-0.6-0.2-1.1-0.2c-0.3,0-0.6,0.1-0.9,0.2c-0.3,0.1-0.6,0.2-0.7,0.2h-0.2     v-1.3c0.2,0,0.5-0.1,0.9-0.2c0.4-0.1,0.8-0.1,1.3-0.1c1,0,1.7,0.2,2.2,0.5c0.4,0.3,0.7,0.8,0.7,1.4l0,3.7l-1.7,0V246z      M343.4,245.1l0-1.1c-0.2,0-0.5,0-0.8,0.1s-0.5,0.1-0.6,0.1c-0.2,0.1-0.3,0.1-0.4,0.2s-0.1,0.2-0.1,0.4c0,0.1,0,0.2,0,0.3     c0,0.1,0.1,0.1,0.1,0.2c0.1,0.1,0.2,0.1,0.3,0.1c0.1,0,0.3,0,0.5,0c0.2,0,0.4,0,0.5-0.1S343.3,245.2,343.4,245.1z"/>
			<path style="fill:#1A171B;" d="M352.1,246.5l-1.8,0V246c-0.3,0.2-0.6,0.4-0.8,0.5c-0.3,0.1-0.6,0.2-0.9,0.2     c-0.7,0-1.2-0.3-1.6-0.8c-0.4-0.5-0.6-1.2-0.6-2.1c0-0.5,0.1-0.9,0.2-1.2s0.3-0.7,0.6-0.9c0.2-0.2,0.5-0.4,0.8-0.6     c0.3-0.1,0.6-0.2,0.9-0.2c0.3,0,0.6,0,0.8,0.1s0.4,0.2,0.6,0.3l0-2.3l1.8,0L352.1,246.5z M350.3,245l0-2.7     c-0.1-0.1-0.3-0.1-0.4-0.1c-0.1,0-0.3,0-0.4,0c-0.5,0-0.8,0.1-1,0.4c-0.2,0.3-0.3,0.7-0.3,1.2c0,0.5,0.1,0.9,0.3,1.2     c0.2,0.2,0.5,0.4,0.9,0.4c0.2,0,0.3,0,0.5-0.1C350,245.2,350.2,245.1,350.3,245z"/>
			<path style="fill:#1A171B;" d="M357.1,246c-0.1,0.1-0.2,0.2-0.4,0.3s-0.3,0.2-0.4,0.2c-0.2,0.1-0.4,0.1-0.5,0.2s-0.4,0.1-0.6,0.1     c-0.5,0-1-0.2-1.3-0.5c-0.4-0.3-0.5-0.7-0.5-1.2c0-0.4,0.1-0.7,0.3-1c0.2-0.3,0.4-0.5,0.8-0.6c0.3-0.1,0.7-0.3,1.2-0.3     c0.5-0.1,1-0.1,1.5-0.1v0c0-0.3-0.1-0.5-0.4-0.6c-0.2-0.1-0.6-0.2-1.1-0.2c-0.3,0-0.6,0.1-0.9,0.2c-0.3,0.1-0.6,0.2-0.7,0.2h-0.2     v-1.3c0.2,0,0.5-0.1,0.9-0.2c0.4-0.1,0.8-0.1,1.3-0.1c1,0,1.7,0.2,2.2,0.5c0.4,0.3,0.7,0.8,0.7,1.4l0,3.7l-1.7,0V246z      M357.1,245.1l0-1.1c-0.2,0-0.5,0-0.8,0.1s-0.5,0.1-0.6,0.1c-0.2,0.1-0.3,0.1-0.4,0.2s-0.1,0.2-0.1,0.4c0,0.1,0,0.2,0,0.3     c0,0.1,0.1,0.1,0.1,0.2c0.1,0.1,0.2,0.1,0.3,0.1c0.1,0,0.3,0,0.5,0c0.2,0,0.4,0,0.5-0.1S356.9,245.2,357.1,245.1z"/>
			<path style="fill:#1A171B;" d="M365.9,246.6l-1.8,0l0-2.7c0-0.2,0-0.4,0-0.7c0-0.2-0.1-0.4-0.1-0.5c-0.1-0.1-0.2-0.2-0.3-0.3     s-0.3-0.1-0.5-0.1c-0.2,0-0.3,0-0.5,0.1c-0.2,0.1-0.3,0.1-0.5,0.2l0,3.9l-1.8,0l0-5.5l1.8,0v0.6c0.3-0.2,0.6-0.4,0.9-0.6     c0.3-0.1,0.6-0.2,1-0.2c0.6,0,1.1,0.2,1.4,0.5c0.3,0.3,0.5,0.9,0.5,1.5L365.9,246.6z"/>
			<path style="fill:#1A171B;" d="M371.1,246.5c-0.2,0-0.4,0.1-0.6,0.1c-0.2,0-0.5,0-0.8,0c-0.7,0-1.2-0.1-1.5-0.4     c-0.3-0.3-0.5-0.8-0.5-1.4l0-2.6l-0.7,0v-1.2h0.7l0-1.6l1.8,0l0,1.6l1.6,0v1.2l-1.6,0l0,1.9c0,0.2,0,0.4,0,0.5     c0,0.1,0,0.3,0.1,0.4c0,0.1,0.1,0.2,0.2,0.3c0.1,0.1,0.3,0.1,0.5,0.1c0.1,0,0.2,0,0.4-0.1c0.1,0,0.3-0.1,0.3-0.1h0.1V246.5z"/>
			<path style="fill:#1A171B;" d="M375.4,246c-0.1,0.1-0.2,0.2-0.4,0.3s-0.3,0.2-0.4,0.2c-0.2,0.1-0.4,0.1-0.5,0.2s-0.4,0.1-0.6,0.1     c-0.5,0-1-0.2-1.3-0.5c-0.4-0.3-0.5-0.7-0.5-1.2c0-0.4,0.1-0.7,0.3-1s0.4-0.5,0.8-0.6c0.3-0.1,0.7-0.3,1.2-0.3s1-0.1,1.5-0.1v0     c0-0.3-0.1-0.5-0.4-0.6c-0.2-0.1-0.6-0.2-1.1-0.2c-0.3,0-0.6,0.1-0.9,0.2c-0.3,0.1-0.6,0.2-0.7,0.2l-0.2,0l0-1.3     c0.2,0,0.5-0.1,0.9-0.2c0.4-0.1,0.8-0.1,1.3-0.1c1,0,1.7,0.2,2.2,0.5c0.4,0.3,0.7,0.8,0.7,1.4l0,3.7l-1.7,0V246z M375.4,245.1     l0-1.1c-0.2,0-0.5,0-0.8,0.1c-0.3,0-0.5,0.1-0.6,0.1c-0.2,0.1-0.3,0.1-0.4,0.2s-0.1,0.2-0.1,0.4c0,0.1,0,0.2,0,0.3     c0,0.1,0.1,0.1,0.1,0.2c0.1,0.1,0.2,0.1,0.3,0.1s0.3,0,0.5,0c0.2,0,0.4,0,0.5-0.1S375.3,245.2,375.4,245.1z"/>
		</g>
	</g>
	<g>
		<g>
			<path style="fill:#1A171B;" d="M69.6,18c0,1.2-0.3,2.1-1,2.8c-0.7,0.7-1.6,1-2.8,1c-1.2,0-2.1-0.3-2.7-1c-0.7-0.7-1-1.6-1-2.8     c0-1.2,0.3-2.1,1-2.8c0.7-0.7,1.6-1,2.7-1c1.2,0,2.1,0.3,2.7,1C69.3,15.9,69.6,16.8,69.6,18z M67.1,19.8c0.2-0.2,0.3-0.5,0.4-0.8     c0.1-0.3,0.1-0.7,0.1-1.1c0-0.4-0.1-0.8-0.2-1.1s-0.2-0.6-0.4-0.7c-0.2-0.2-0.4-0.3-0.6-0.4c-0.2-0.1-0.4-0.1-0.7-0.1     c-0.2,0-0.5,0-0.7,0.1s-0.4,0.2-0.6,0.4c-0.2,0.2-0.3,0.4-0.4,0.8c-0.1,0.3-0.2,0.7-0.2,1.1c0,0.4,0,0.8,0.1,1.1     c0.1,0.3,0.2,0.6,0.4,0.7c0.2,0.2,0.4,0.3,0.6,0.4s0.4,0.1,0.7,0.1c0.2,0,0.5,0,0.7-0.1C66.8,20.2,67,20,67.1,19.8z"/>
			<path style="fill:#1A171B;" d="M80.3,19.3c0,0.7-0.3,1.3-0.9,1.7c-0.6,0.4-1.4,0.7-2.5,0.7c-0.6,0-1.1-0.1-1.6-0.2     s-0.9-0.2-1.3-0.4l0-1.7h0.2c0.4,0.3,0.8,0.5,1.3,0.7c0.5,0.2,0.9,0.2,1.4,0.2c0.1,0,0.3,0,0.4,0s0.3-0.1,0.5-0.1     c0.1-0.1,0.3-0.1,0.4-0.2s0.1-0.2,0.1-0.4c0-0.2-0.1-0.3-0.2-0.4c-0.1-0.1-0.3-0.2-0.6-0.3c-0.3-0.1-0.6-0.1-0.9-0.2     c-0.3-0.1-0.6-0.1-0.9-0.2c-0.6-0.2-1.1-0.5-1.3-0.8s-0.4-0.8-0.4-1.3c0-0.7,0.3-1.2,0.9-1.7c0.6-0.4,1.4-0.6,2.3-0.6     c0.5,0,1,0,1.4,0.1c0.5,0.1,0.9,0.2,1.2,0.3l0,1.7h-0.2c-0.3-0.2-0.7-0.4-1.1-0.6s-0.9-0.2-1.3-0.2c-0.2,0-0.3,0-0.5,0     s-0.3,0.1-0.4,0.1c-0.1,0-0.2,0.1-0.3,0.2C76.1,16,76,16.1,76,16.3c0,0.2,0.1,0.3,0.2,0.4c0.1,0.1,0.4,0.2,0.8,0.3     c0.3,0.1,0.5,0.1,0.8,0.2c0.2,0.1,0.5,0.1,0.8,0.2c0.6,0.2,1,0.4,1.2,0.7C80.2,18.4,80.3,18.8,80.3,19.3z"/>
			<path style="fill:#1A171B;" d="M84.8,21c-0.1,0.1-0.2,0.2-0.4,0.3c-0.1,0.1-0.3,0.2-0.4,0.2c-0.2,0.1-0.4,0.1-0.5,0.2     c-0.2,0-0.4,0.1-0.6,0.1c-0.5,0-1-0.2-1.3-0.5c-0.4-0.3-0.5-0.7-0.5-1.2c0-0.4,0.1-0.7,0.3-1s0.4-0.5,0.8-0.6     c0.3-0.1,0.7-0.3,1.2-0.3c0.5-0.1,1-0.1,1.5-0.1v0c0-0.3-0.1-0.5-0.4-0.6c-0.2-0.1-0.6-0.2-1.1-0.2c-0.3,0-0.6,0.1-0.9,0.2     c-0.3,0.1-0.6,0.2-0.7,0.2h-0.2l0-1.3c0.2,0,0.5-0.1,0.9-0.2c0.4-0.1,0.8-0.1,1.3-0.1c1,0,1.7,0.2,2.2,0.5s0.7,0.8,0.7,1.4l0,3.7     l-1.7,0V21z M84.8,20.2l0-1.1c-0.2,0-0.5,0-0.8,0.1c-0.3,0-0.5,0.1-0.6,0.1c-0.2,0.1-0.3,0.1-0.4,0.2c-0.1,0.1-0.1,0.2-0.1,0.4     c0,0.1,0,0.2,0,0.3s0.1,0.1,0.1,0.2c0.1,0.1,0.2,0.1,0.3,0.1c0.1,0,0.3,0,0.5,0c0.2,0,0.4,0,0.5-0.1     C84.5,20.4,84.7,20.3,84.8,20.2z"/>
			<path style="fill:#1A171B;" d="M89.9,21.6l-1.8,0l0-7.6l1.8,0L89.9,21.6z"/>
			<path style="fill:#1A171B;" d="M97.1,21.6l-1.8,0l0-2.7c0-0.2,0-0.4,0-0.7c0-0.2-0.1-0.4-0.1-0.5c-0.1-0.1-0.2-0.2-0.3-0.3     c-0.1-0.1-0.3-0.1-0.5-0.1c-0.2,0-0.3,0-0.5,0.1c-0.2,0.1-0.3,0.1-0.5,0.2l0,3.9l-1.8,0l0-5.5l1.8,0v0.6c0.3-0.2,0.6-0.4,0.9-0.6     c0.3-0.1,0.6-0.2,1-0.2c0.6,0,1.1,0.2,1.4,0.5s0.5,0.9,0.5,1.5L97.1,21.6z"/>
			<path style="fill:#1A171B;" d="M104.1,19.2l-4,0c0,0.4,0.2,0.8,0.5,1s0.7,0.3,1.3,0.3c0.4,0,0.7-0.1,1.1-0.2     c0.3-0.1,0.6-0.3,0.8-0.4h0.2l0,1.4c-0.4,0.2-0.8,0.3-1.1,0.3c-0.4,0.1-0.7,0.1-1.2,0.1c-1.1,0-1.9-0.2-2.5-0.7     c-0.6-0.5-0.9-1.2-0.9-2.1c0-0.9,0.3-1.6,0.8-2.2c0.6-0.5,1.3-0.8,2.3-0.8c0.9,0,1.6,0.2,2,0.7c0.4,0.5,0.7,1.1,0.7,1.9V19.2z      M102.3,18.2c0-0.4-0.1-0.6-0.3-0.8c-0.2-0.2-0.4-0.3-0.8-0.3c-0.3,0-0.6,0.1-0.8,0.3c-0.2,0.2-0.3,0.5-0.4,0.8L102.3,18.2z      M103,13.4L103,13.4l-1.7,1.9l-1.2,0l1.2-1.9L103,13.4z"/>
			<path style="fill:#1A171B;" d="M110.1,19.9c0,0.6-0.3,1-0.8,1.4c-0.5,0.3-1.2,0.5-2.1,0.5c-0.5,0-0.9,0-1.3-0.1     c-0.4-0.1-0.7-0.2-1-0.3l0-1.4h0.2c0.1,0.1,0.2,0.1,0.3,0.2s0.3,0.2,0.5,0.2c0.2,0.1,0.4,0.1,0.6,0.2c0.2,0.1,0.5,0.1,0.7,0.1     c0.3,0,0.6,0,0.8-0.1c0.2-0.1,0.2-0.2,0.2-0.3c0-0.1,0-0.2-0.1-0.3c-0.1-0.1-0.3-0.1-0.6-0.2c-0.1,0-0.3-0.1-0.5-0.1     c-0.2,0-0.4-0.1-0.6-0.1c-0.5-0.1-0.9-0.3-1.1-0.6s-0.4-0.6-0.4-1c0-0.5,0.2-1,0.7-1.3s1.2-0.5,2-0.5c0.4,0,0.8,0,1.2,0.1     s0.7,0.2,0.9,0.3l0,1.4h-0.2c-0.3-0.2-0.6-0.3-0.9-0.4c-0.3-0.1-0.7-0.2-1-0.2c-0.3,0-0.5,0-0.7,0.1c-0.2,0.1-0.3,0.2-0.3,0.3     c0,0.1,0,0.2,0.1,0.3s0.3,0.1,0.6,0.2c0.2,0,0.4,0.1,0.6,0.1c0.2,0,0.4,0.1,0.6,0.1c0.5,0.1,0.8,0.3,1,0.6     C110,19.2,110.1,19.5,110.1,19.9z"/>
		</g>
	</g>
	<g>
		<g>
			<path style="fill:#1A171B;" d="M80.6,406.8h-1.9l0-4.9l-1.3,3.2l-1.3,0l-1.3-3.2l0,4.9l-1.8,0l0-7.3l2.2,0l1.6,3.6l1.6-3.6l2.2,0     L80.6,406.8z"/>
			<path style="fill:#1A171B;" d="M84.2,400.5l-1.9,0l0-1.3l1.9,0L84.2,400.5z M84.2,406.8l-1.8,0l0-5.5l1.8,0L84.2,406.8z"/>
			<path style="fill:#1A171B;" d="M91.3,406.8l-1.8,0l0-2.7c0-0.2,0-0.4,0-0.7c0-0.2-0.1-0.4-0.1-0.5c-0.1-0.1-0.2-0.2-0.3-0.3     s-0.3-0.1-0.5-0.1c-0.2,0-0.3,0-0.5,0.1s-0.3,0.1-0.5,0.2l0,3.9h-1.8l0-5.5h1.8v0.6c0.3-0.2,0.6-0.4,0.9-0.6     c0.3-0.1,0.6-0.2,1-0.2c0.6,0,1.1,0.2,1.4,0.5c0.3,0.3,0.5,0.9,0.5,1.5L91.3,406.8z M90.8,398.9c0,0.5-0.2,1-0.4,1.2     s-0.6,0.4-1,0.4c-0.2,0-0.3,0-0.4-0.1c-0.1-0.1-0.3-0.1-0.4-0.2c-0.1-0.1-0.2-0.1-0.3-0.2S88,400,87.9,400     c-0.2,0-0.3,0.1-0.3,0.2s-0.1,0.3-0.1,0.4h-1.1c0-0.5,0.2-0.9,0.4-1.2s0.6-0.4,1-0.4c0.2,0,0.3,0,0.4,0.1     c0.1,0.1,0.3,0.1,0.4,0.2c0.1,0.1,0.2,0.1,0.3,0.2c0.1,0.1,0.2,0.1,0.3,0.1c0.2,0,0.3-0.1,0.3-0.2s0.1-0.2,0.1-0.4L90.8,398.9z"/>
			<path style="fill:#1A171B;" d="M98.5,404.1c0,0.9-0.3,1.6-0.8,2.1c-0.5,0.5-1.3,0.8-2.2,0.8c-1,0-1.7-0.3-2.2-0.8     c-0.5-0.5-0.8-1.2-0.8-2.1c0-0.9,0.3-1.6,0.8-2.1c0.5-0.5,1.3-0.8,2.2-0.8c1,0,1.7,0.3,2.2,0.8C98.3,402.5,98.5,403.2,98.5,404.1     z M96.4,405.4c0.1-0.1,0.2-0.3,0.3-0.5c0.1-0.2,0.1-0.5,0.1-0.8c0-0.3,0-0.6-0.1-0.8c-0.1-0.2-0.1-0.4-0.2-0.5     c-0.1-0.1-0.2-0.2-0.4-0.3s-0.3-0.1-0.5-0.1s-0.3,0-0.5,0.1s-0.3,0.1-0.4,0.3c-0.1,0.1-0.2,0.3-0.3,0.5c-0.1,0.2-0.1,0.5-0.1,0.8     c0,0.3,0,0.6,0.1,0.8s0.1,0.4,0.2,0.5c0.1,0.1,0.2,0.2,0.4,0.3c0.1,0.1,0.3,0.1,0.5,0.1c0.2,0,0.3,0,0.5-0.1     C96.2,405.6,96.3,405.5,96.4,405.4z"/>
			<path style="fill:#1A171B;" d="M109.5,404.6c0,0.4-0.1,0.7-0.2,0.9c-0.1,0.3-0.3,0.5-0.6,0.7c-0.3,0.2-0.6,0.4-0.9,0.5     s-0.8,0.1-1.3,0.1l-3.2,0l0-7.3l2.8,0c0.6,0,1,0,1.3,0.1s0.5,0.1,0.8,0.3c0.3,0.1,0.5,0.3,0.6,0.6s0.2,0.5,0.2,0.8     c0,0.4-0.1,0.7-0.3,0.9c-0.2,0.3-0.4,0.5-0.8,0.6v0c0.5,0.1,0.9,0.3,1.1,0.6C109.4,403.7,109.5,404.1,109.5,404.6z M107.1,401.6     c0-0.1,0-0.2-0.1-0.4s-0.2-0.2-0.3-0.3c-0.1-0.1-0.3-0.1-0.5-0.1s-0.5,0-0.9,0h-0.2l0,1.5h0.3c0.3,0,0.5,0,0.8,0     c0.2,0,0.4,0,0.5-0.1c0.2-0.1,0.3-0.2,0.3-0.3C107.1,401.9,107.1,401.8,107.1,401.6z M107.6,404.6c0-0.2,0-0.4-0.1-0.5     c-0.1-0.1-0.2-0.2-0.5-0.3c-0.1,0-0.3-0.1-0.6-0.1c-0.3,0-0.5,0-0.8,0h-0.4l0,1.8h0.1c0.5,0,0.9,0,1.1,0c0.2,0,0.4,0,0.6-0.1     c0.2-0.1,0.3-0.2,0.4-0.3C107.6,404.9,107.6,404.7,107.6,404.6z"/>
			<path style="fill:#1A171B;" d="M114.2,406.2c-0.1,0.1-0.2,0.2-0.4,0.3s-0.3,0.2-0.4,0.2c-0.2,0.1-0.4,0.1-0.5,0.2     c-0.2,0-0.4,0.1-0.6,0.1c-0.5,0-1-0.2-1.3-0.5c-0.4-0.3-0.5-0.7-0.5-1.2c0-0.4,0.1-0.7,0.3-1c0.2-0.3,0.4-0.5,0.8-0.6     c0.3-0.1,0.7-0.3,1.2-0.3c0.5-0.1,1-0.1,1.5-0.1v0c0-0.3-0.1-0.5-0.4-0.6c-0.2-0.1-0.6-0.2-1.1-0.2c-0.3,0-0.6,0.1-0.9,0.2     s-0.6,0.2-0.7,0.2h-0.2l0-1.3c0.2,0,0.5-0.1,0.9-0.2c0.4-0.1,0.8-0.1,1.3-0.1c1,0,1.7,0.2,2.2,0.5s0.7,0.8,0.7,1.4l0,3.7l-1.7,0     V406.2z M114.2,405.4l0-1.1c-0.2,0-0.5,0-0.8,0.1c-0.3,0-0.5,0.1-0.6,0.1c-0.2,0.1-0.3,0.1-0.4,0.2s-0.1,0.2-0.1,0.4     c0,0.1,0,0.2,0,0.3s0.1,0.1,0.1,0.2c0.1,0.1,0.2,0.1,0.3,0.1c0.1,0,0.3,0,0.5,0c0.2,0,0.4,0,0.5-0.1     C113.9,405.6,114,405.5,114.2,405.4z"/>
			<path style="fill:#1A171B;" d="M119.3,400.6l-1.9,0l0-1.3l1.9,0L119.3,400.6z M119.3,406.8l-1.8,0l0-5.5l1.8,0L119.3,406.8z"/>
			<path style="fill:#1A171B;" d="M126.7,406.8l-2.1,0l-1.2-1.6l-1.2,1.6l-2,0l2.2-2.7l-2.1-2.7l2.1,0l1.2,1.6l1.2-1.6l2,0l-2.1,2.7     L126.7,406.8z"/>
			<path style="fill:#1A171B;" d="M133.2,404.1c0,0.9-0.3,1.6-0.8,2.1s-1.3,0.8-2.2,0.8c-1,0-1.7-0.3-2.2-0.8     c-0.5-0.5-0.8-1.2-0.8-2.1c0-0.9,0.3-1.6,0.8-2.1c0.5-0.5,1.3-0.8,2.2-0.8c1,0,1.7,0.3,2.2,0.8     C133,402.5,133.2,403.2,133.2,404.1z M131.1,405.4c0.1-0.1,0.2-0.3,0.3-0.5c0.1-0.2,0.1-0.5,0.1-0.8c0-0.3,0-0.6-0.1-0.8     c-0.1-0.2-0.1-0.4-0.2-0.5c-0.1-0.1-0.2-0.2-0.4-0.3s-0.3-0.1-0.5-0.1s-0.3,0-0.5,0.1c-0.1,0-0.3,0.1-0.4,0.3     c-0.1,0.1-0.2,0.3-0.3,0.5c-0.1,0.2-0.1,0.5-0.1,0.8c0,0.3,0,0.6,0.1,0.8s0.1,0.4,0.2,0.5c0.1,0.1,0.2,0.2,0.4,0.3     c0.1,0.1,0.3,0.1,0.5,0.1c0.2,0,0.3,0,0.5-0.1C130.9,405.6,131,405.6,131.1,405.4z"/>
		</g>
	</g>
</g>
<g id="text_x5F_exterior">
	<g>
		<g>
			<path style="fill:#1A171B;" d="M336.6,410.6c0,0.3-0.1,0.6-0.2,1c-0.1,0.3-0.3,0.6-0.5,0.8c-0.3,0.3-0.6,0.5-1,0.6     s-0.8,0.2-1.3,0.2l-1.2,0l0,2.4l-1.9,0l0-7.3l3.1,0c0.5,0,0.9,0,1.2,0.1c0.3,0.1,0.6,0.2,0.8,0.4c0.3,0.2,0.5,0.4,0.7,0.7     C336.5,409.8,336.6,410.2,336.6,410.6z M334.6,410.7c0-0.2-0.1-0.4-0.2-0.5c-0.1-0.1-0.2-0.3-0.4-0.3c-0.2-0.1-0.4-0.1-0.6-0.1     s-0.4,0-0.7,0h-0.3l0,2.2h0.5c0.3,0,0.6,0,0.8-0.1c0.2,0,0.4-0.1,0.5-0.2c0.1-0.1,0.2-0.2,0.3-0.4S334.6,410.9,334.6,410.7z"/>
			<path style="fill:#1A171B;" d="M343.4,412.9c0,0.9-0.3,1.6-0.8,2.1c-0.5,0.5-1.3,0.8-2.2,0.8c-1,0-1.7-0.3-2.2-0.8     c-0.5-0.5-0.8-1.2-0.8-2.1c0-0.9,0.3-1.6,0.8-2.1c0.5-0.5,1.3-0.8,2.2-0.8c1,0,1.7,0.3,2.2,0.8     C343.1,411.2,343.4,412,343.4,412.9z M341.2,414.2c0.1-0.1,0.2-0.3,0.3-0.5c0.1-0.2,0.1-0.5,0.1-0.8c0-0.3,0-0.6-0.1-0.8     s-0.1-0.4-0.2-0.5c-0.1-0.1-0.2-0.2-0.4-0.3s-0.3-0.1-0.5-0.1c-0.2,0-0.3,0-0.5,0.1s-0.3,0.1-0.4,0.3c-0.1,0.1-0.2,0.3-0.3,0.5     s-0.1,0.5-0.1,0.8c0,0.3,0,0.6,0.1,0.8c0.1,0.2,0.1,0.4,0.2,0.5c0.1,0.1,0.2,0.2,0.4,0.3c0.1,0.1,0.3,0.1,0.5,0.1     c0.2,0,0.3,0,0.5-0.1C341,414.4,341.1,414.3,341.2,414.2z"/>
			<path style="fill:#1A171B;" d="M348.6,411.8h-0.2c-0.1,0-0.2,0-0.4-0.1s-0.3,0-0.4,0c-0.3,0-0.5,0-0.7,0c-0.2,0-0.4,0.1-0.6,0.2     l0,3.7l-1.8,0l0-5.5l1.8,0v0.8c0.4-0.3,0.7-0.6,1-0.7c0.3-0.1,0.5-0.2,0.8-0.2c0.1,0,0.1,0,0.2,0c0.1,0,0.1,0,0.2,0L348.6,411.8z     "/>
			<path style="fill:#1A171B;" d="M353.1,415.6c-0.2,0-0.4,0.1-0.6,0.1c-0.2,0-0.5,0-0.8,0c-0.7,0-1.2-0.1-1.5-0.4     c-0.3-0.3-0.5-0.8-0.5-1.4l0-2.6H349v-1.2h0.7l0-1.6l1.8,0l0,1.6l1.6,0v1.2l-1.6,0l0,1.9c0,0.2,0,0.4,0,0.5c0,0.1,0,0.3,0.1,0.4     c0,0.1,0.1,0.2,0.2,0.3c0.1,0.1,0.3,0.1,0.5,0.1c0.1,0,0.2,0,0.4-0.1s0.3-0.1,0.3-0.1h0.1V415.6z"/>
			<path style="fill:#1A171B;" d="M359.7,415.6l-1.8,0V415c-0.3,0.2-0.6,0.4-0.9,0.6c-0.3,0.1-0.6,0.2-1,0.2c-0.6,0-1.1-0.2-1.4-0.5     c-0.3-0.3-0.5-0.9-0.5-1.5l0-3.6l1.8,0l0,2.7c0,0.3,0,0.5,0,0.7c0,0.2,0.1,0.3,0.1,0.5c0.1,0.1,0.2,0.2,0.3,0.3     c0.1,0.1,0.3,0.1,0.5,0.1c0.1,0,0.3,0,0.5-0.1s0.4-0.1,0.5-0.2l0-3.9l1.8,0L359.7,415.6z"/>
			<path style="fill:#1A171B;" d="M366.7,415c0,0.5-0.1,0.9-0.2,1.3c-0.1,0.4-0.4,0.6-0.6,0.8c-0.3,0.2-0.6,0.3-1,0.4     c-0.4,0.1-0.8,0.1-1.3,0.1c-0.4,0-0.8,0-1.1-0.1c-0.4,0-0.7-0.1-1-0.2v-1.4h0.2c0.2,0.1,0.5,0.2,0.8,0.2c0.3,0.1,0.6,0.1,0.8,0.1     c0.3,0,0.6,0,0.8-0.1c0.2-0.1,0.4-0.1,0.5-0.3c0.1-0.1,0.2-0.2,0.2-0.4s0.1-0.4,0.1-0.6V415c-0.2,0.2-0.4,0.3-0.7,0.4     s-0.5,0.2-0.9,0.2c-0.8,0-1.4-0.2-1.8-0.7c-0.4-0.5-0.6-1.2-0.6-2.1c0-0.5,0.1-0.8,0.2-1.2c0.1-0.3,0.3-0.6,0.5-0.9     c0.2-0.2,0.5-0.4,0.8-0.5c0.3-0.1,0.6-0.2,1-0.2c0.3,0,0.6,0,0.8,0.1c0.2,0.1,0.5,0.2,0.7,0.3l0.1-0.2l1.7,0L366.7,415z      M364.9,413.9l0-2.5c-0.1,0-0.2-0.1-0.4-0.1c-0.1,0-0.3,0-0.4,0c-0.5,0-0.8,0.1-1,0.4c-0.2,0.3-0.3,0.6-0.3,1.1     c0,0.5,0.1,0.9,0.3,1.1c0.2,0.2,0.5,0.3,0.9,0.3c0.2,0,0.3,0,0.5-0.1S364.8,414,364.9,413.9z"/>
			<path style="fill:#1A171B;" d="M371.6,415c-0.1,0.1-0.2,0.2-0.4,0.3s-0.3,0.2-0.4,0.2c-0.2,0.1-0.4,0.1-0.5,0.2     c-0.2,0-0.4,0.1-0.6,0.1c-0.5,0-1-0.2-1.3-0.5c-0.4-0.3-0.5-0.7-0.5-1.2c0-0.4,0.1-0.7,0.3-1s0.4-0.5,0.8-0.6     c0.3-0.1,0.7-0.3,1.2-0.3s1-0.1,1.5-0.1v0c0-0.3-0.1-0.5-0.4-0.6c-0.2-0.1-0.6-0.2-1.1-0.2c-0.3,0-0.6,0.1-0.9,0.2     c-0.3,0.1-0.6,0.2-0.7,0.2l-0.2,0l0-1.3c0.2,0,0.5-0.1,0.9-0.2c0.4-0.1,0.8-0.1,1.3-0.1c1,0,1.7,0.2,2.2,0.5     c0.4,0.3,0.7,0.8,0.7,1.4l0,3.7l-1.7,0V415z M371.6,414.2l0-1.1c-0.2,0-0.5,0-0.8,0.1c-0.3,0-0.5,0.1-0.6,0.1     c-0.2,0.1-0.3,0.1-0.4,0.2s-0.1,0.2-0.1,0.4c0,0.1,0,0.2,0,0.3s0.1,0.1,0.1,0.2c0.1,0.1,0.2,0.1,0.3,0.1c0.1,0,0.3,0,0.5,0     c0.2,0,0.4,0,0.5-0.1C371.3,414.4,371.5,414.3,371.6,414.2z"/>
			<path style="fill:#1A171B;" d="M376.8,415.6l-1.8,0l0-7.6l1.8,0L376.8,415.6z"/>
		</g>
	</g>
</g>
<g id="text-municipis">
	<g>
		<rect x="222.5" y="104.2" style="fill:none;" width="58.1" height="11"/>
		<path d="M228.8,112.7c0,0.3-0.1,0.6-0.2,0.8s-0.3,0.5-0.6,0.7c-0.3,0.2-0.6,0.4-0.9,0.5s-0.8,0.2-1.3,0.2c-0.5,0-1,0-1.4-0.1    s-0.8-0.2-1.3-0.4v-1.2h0.1c0.4,0.3,0.8,0.5,1.3,0.7s0.9,0.2,1.4,0.2c0.6,0,1.1-0.1,1.4-0.3s0.5-0.5,0.5-0.9    c0-0.3-0.1-0.6-0.2-0.7s-0.4-0.3-0.7-0.4c-0.2-0.1-0.5-0.1-0.8-0.2c-0.3,0-0.6-0.1-0.9-0.2c-0.6-0.1-1.1-0.4-1.4-0.7    s-0.5-0.8-0.5-1.3c0-0.6,0.3-1.1,0.8-1.5s1.2-0.6,2-0.6c0.5,0,1,0,1.4,0.1s0.8,0.2,1.1,0.4v1.1h-0.1c-0.3-0.2-0.6-0.4-1.1-0.6    s-0.9-0.2-1.4-0.2c-0.5,0-0.9,0.1-1.2,0.3s-0.5,0.5-0.5,0.8c0,0.3,0.1,0.5,0.2,0.7s0.4,0.3,0.8,0.4c0.2,0,0.5,0.1,0.9,0.2    c0.4,0.1,0.7,0.1,1,0.2c0.5,0.1,0.9,0.4,1.2,0.6S228.8,112.1,228.8,112.7z"/>
		<path d="M234.9,112c0,0.9-0.2,1.6-0.7,2.1s-1.1,0.8-1.8,0.8c-0.8,0-1.4-0.3-1.8-0.8c-0.5-0.5-0.7-1.2-0.7-2.1s0.2-1.6,0.7-2.1    c0.5-0.5,1.1-0.8,1.8-0.8c0.8,0,1.4,0.3,1.8,0.8S234.9,111.1,234.9,112z M233.9,112c0-0.7-0.1-1.2-0.4-1.6    c-0.3-0.3-0.7-0.5-1.2-0.5c-0.5,0-0.9,0.2-1.2,0.5s-0.4,0.9-0.4,1.6c0,0.7,0.1,1.2,0.4,1.6c0.3,0.4,0.7,0.5,1.2,0.5    c0.5,0,0.9-0.2,1.2-0.5S233.9,112.7,233.9,112z"/>
		<path d="M240.8,114.7h-0.9v-0.6c-0.3,0.2-0.6,0.4-0.9,0.6s-0.6,0.2-0.9,0.2c-0.6,0-1-0.2-1.3-0.5s-0.5-0.9-0.5-1.5v-3.5h0.9v3.1    c0,0.3,0,0.5,0,0.7s0.1,0.4,0.2,0.5c0.1,0.1,0.2,0.2,0.3,0.3c0.1,0.1,0.3,0.1,0.6,0.1c0.2,0,0.5-0.1,0.8-0.2    c0.3-0.1,0.5-0.3,0.8-0.5v-4.1h0.9V114.7z"/>
		<path d="M245.5,114.7c-0.2,0-0.4,0.1-0.6,0.1s-0.4,0-0.5,0c-0.6,0-1-0.1-1.3-0.4s-0.4-0.8-0.4-1.4V110H242v-0.8h0.6v-1.6h0.9v1.6    h1.9v0.8h-1.9v2.5c0,0.3,0,0.5,0,0.7s0.1,0.3,0.1,0.5c0.1,0.1,0.2,0.2,0.3,0.3c0.1,0.1,0.3,0.1,0.6,0.1c0.2,0,0.3,0,0.5-0.1    c0.2,0,0.3-0.1,0.4-0.1h0V114.7z"/>
		<path d="M251.2,112c0,0.9-0.2,1.6-0.7,2.1s-1.1,0.8-1.8,0.8c-0.8,0-1.4-0.3-1.8-0.8s-0.7-1.2-0.7-2.1s0.2-1.6,0.7-2.1    s1.1-0.8,1.8-0.8c0.8,0,1.4,0.3,1.8,0.8S251.2,111.1,251.2,112z M250.3,112c0-0.7-0.1-1.2-0.4-1.6c-0.3-0.3-0.7-0.5-1.2-0.5    c-0.5,0-0.9,0.2-1.2,0.5s-0.4,0.9-0.4,1.6c0,0.7,0.1,1.2,0.4,1.6c0.3,0.4,0.7,0.5,1.2,0.5c0.5,0,0.9-0.2,1.2-0.5    S250.3,112.7,250.3,112z"/>
		<path d="M260.6,114.7h-0.9v-3.1c0-0.2,0-0.5,0-0.7c0-0.2-0.1-0.4-0.1-0.5c-0.1-0.1-0.2-0.2-0.3-0.3s-0.3-0.1-0.6-0.1    c-0.3,0-0.5,0.1-0.8,0.2c-0.3,0.1-0.5,0.3-0.8,0.5c0,0.1,0,0.2,0,0.3s0,0.2,0,0.3v3.5h-0.9v-3.1c0-0.2,0-0.5,0-0.7    s-0.1-0.4-0.1-0.5c-0.1-0.1-0.2-0.2-0.3-0.3c-0.1-0.1-0.3-0.1-0.6-0.1c-0.3,0-0.5,0.1-0.8,0.2c-0.3,0.1-0.5,0.3-0.8,0.5v4.1h-0.9    v-5.5h0.9v0.6c0.3-0.2,0.6-0.4,0.9-0.6s0.6-0.2,0.9-0.2c0.4,0,0.7,0.1,0.9,0.2s0.5,0.4,0.6,0.6c0.4-0.3,0.7-0.5,1-0.7    c0.3-0.1,0.6-0.2,1-0.2c0.6,0,1,0.2,1.3,0.5s0.4,0.9,0.4,1.5V114.7z"/>
		<path d="M266.6,114.7h-0.9v-0.6c-0.1,0.1-0.2,0.1-0.3,0.2s-0.3,0.2-0.4,0.2c-0.2,0.1-0.3,0.1-0.5,0.2c-0.2,0.1-0.4,0.1-0.7,0.1    c-0.5,0-0.9-0.2-1.3-0.5c-0.3-0.3-0.5-0.7-0.5-1.2c0-0.4,0.1-0.7,0.3-1s0.4-0.5,0.8-0.6c0.3-0.1,0.7-0.2,1.2-0.3s1-0.1,1.5-0.1    V111c0-0.2,0-0.4-0.1-0.5s-0.2-0.2-0.3-0.3c-0.1-0.1-0.3-0.1-0.5-0.2c-0.2,0-0.4,0-0.6,0c-0.2,0-0.5,0-0.8,0.1    c-0.3,0.1-0.6,0.2-0.9,0.3h0v-0.9c0.2,0,0.4-0.1,0.8-0.2s0.7-0.1,1-0.1c0.4,0,0.7,0,1,0.1s0.5,0.2,0.7,0.3    c0.2,0.1,0.4,0.3,0.5,0.6s0.2,0.5,0.2,0.9V114.7z M265.7,113.4v-1.5c-0.3,0-0.6,0-1,0.1c-0.4,0-0.7,0.1-0.9,0.1    c-0.3,0.1-0.5,0.2-0.6,0.3c-0.2,0.2-0.2,0.4-0.2,0.7c0,0.3,0.1,0.5,0.3,0.7c0.2,0.2,0.5,0.2,0.9,0.2c0.3,0,0.6-0.1,0.9-0.2    C265.2,113.7,265.5,113.6,265.7,113.4z"/>
		<path d="M269.4,108.4h-1v-1h1V108.4z M269.3,114.7h-0.9v-5.5h0.9V114.7z"/>
		<path d="M275.8,112c0,0.9-0.2,1.6-0.7,2.1s-1.1,0.8-1.8,0.8c-0.8,0-1.4-0.3-1.8-0.8s-0.7-1.2-0.7-2.1s0.2-1.6,0.7-2.1    s1.1-0.8,1.8-0.8c0.8,0,1.4,0.3,1.8,0.8S275.8,111.1,275.8,112z M274.8,112c0-0.7-0.1-1.2-0.4-1.6c-0.3-0.3-0.7-0.5-1.2-0.5    c-0.5,0-0.9,0.2-1.2,0.5s-0.4,0.9-0.4,1.6c0,0.7,0.1,1.2,0.4,1.6c0.3,0.4,0.7,0.5,1.2,0.5c0.5,0,0.9-0.2,1.2-0.5    S274.8,112.7,274.8,112z"/>
		<path d="M280.6,110.3L280.6,110.3c-0.2,0-0.3-0.1-0.4-0.1s-0.3,0-0.5,0c-0.3,0-0.6,0.1-0.8,0.2s-0.5,0.3-0.8,0.5v3.9h-0.9v-5.5    h0.9v0.8c0.4-0.3,0.7-0.5,1-0.6c0.3-0.1,0.6-0.2,0.9-0.2c0.2,0,0.3,0,0.3,0c0.1,0,0.2,0,0.3,0V110.3z"/>
	</g>
	<g>
		<rect x="249.6" y="298.9" style="fill:none;" width="53.8" height="21"/>
		<path d="M255.9,307.3c0,0.3-0.1,0.6-0.2,0.8s-0.3,0.5-0.6,0.7c-0.3,0.2-0.6,0.4-0.9,0.5s-0.8,0.2-1.3,0.2c-0.5,0-1,0-1.4-0.1    s-0.8-0.2-1.3-0.4v-1.2h0.1c0.4,0.3,0.8,0.5,1.3,0.7s0.9,0.2,1.4,0.2c0.6,0,1.1-0.1,1.4-0.3c0.3-0.2,0.5-0.5,0.5-0.9    c0-0.3-0.1-0.6-0.2-0.7c-0.2-0.2-0.4-0.3-0.7-0.4c-0.2-0.1-0.5-0.1-0.8-0.2c-0.3,0-0.6-0.1-0.9-0.2c-0.6-0.1-1.1-0.4-1.4-0.7    c-0.3-0.3-0.5-0.8-0.5-1.3c0-0.6,0.3-1.1,0.8-1.5c0.5-0.4,1.2-0.6,2-0.6c0.5,0,1,0,1.4,0.1c0.4,0.1,0.8,0.2,1.1,0.4v1.1h-0.1    c-0.3-0.2-0.6-0.4-1.1-0.6c-0.5-0.2-0.9-0.2-1.4-0.2c-0.5,0-0.9,0.1-1.2,0.3c-0.3,0.2-0.5,0.5-0.5,0.8c0,0.3,0.1,0.5,0.2,0.7    s0.4,0.3,0.8,0.4c0.2,0,0.5,0.1,0.9,0.2s0.7,0.1,1,0.2c0.5,0.1,0.9,0.4,1.2,0.6C255.8,306.4,255.9,306.8,255.9,307.3z"/>
		<path d="M261.6,309.4h-0.9v-0.6c-0.1,0.1-0.2,0.1-0.3,0.2c-0.1,0.1-0.3,0.2-0.4,0.2c-0.2,0.1-0.3,0.1-0.5,0.2    c-0.2,0-0.4,0.1-0.7,0.1c-0.5,0-0.9-0.2-1.3-0.5c-0.3-0.3-0.5-0.7-0.5-1.2c0-0.4,0.1-0.7,0.3-1c0.2-0.3,0.4-0.5,0.8-0.6    c0.3-0.1,0.7-0.2,1.2-0.3c0.5-0.1,1-0.1,1.5-0.1v-0.1c0-0.2,0-0.4-0.1-0.5s-0.2-0.2-0.3-0.3c-0.1-0.1-0.3-0.1-0.5-0.2    s-0.4,0-0.6,0c-0.2,0-0.5,0-0.8,0.1c-0.3,0.1-0.6,0.2-0.9,0.3h0v-0.9c0.2,0,0.4-0.1,0.8-0.2c0.3-0.1,0.7-0.1,1-0.1    c0.4,0,0.7,0,1,0.1c0.3,0.1,0.5,0.2,0.7,0.3c0.2,0.1,0.4,0.3,0.5,0.6s0.2,0.5,0.2,0.9V309.4z M260.7,308.1v-1.5    c-0.3,0-0.6,0-1,0.1c-0.4,0-0.7,0.1-0.9,0.1c-0.3,0.1-0.5,0.2-0.6,0.3c-0.2,0.2-0.2,0.4-0.2,0.7c0,0.3,0.1,0.5,0.3,0.7    c0.2,0.2,0.5,0.2,0.9,0.2c0.3,0,0.6-0.1,0.9-0.2C260.2,308.4,260.5,308.2,260.7,308.1z"/>
		<path d="M264.3,309.4h-0.9v-7.6h0.9V309.4z"/>
		<path d="M270.2,309.1c-0.3,0.1-0.6,0.3-0.9,0.3c-0.3,0.1-0.6,0.1-0.9,0.1c-0.4,0-0.8-0.1-1.1-0.2c-0.3-0.1-0.6-0.3-0.8-0.5    c-0.2-0.2-0.4-0.5-0.6-0.9c-0.1-0.4-0.2-0.8-0.2-1.3c0-0.9,0.2-1.6,0.7-2.1c0.5-0.5,1.1-0.8,1.9-0.8c0.3,0,0.6,0,0.9,0.1    s0.6,0.2,0.8,0.3v1h0c-0.3-0.2-0.6-0.4-0.9-0.5s-0.6-0.2-0.9-0.2c-0.5,0-0.9,0.2-1.2,0.5c-0.3,0.3-0.5,0.9-0.5,1.5    c0,0.7,0.1,1.2,0.4,1.5c0.3,0.4,0.7,0.5,1.2,0.5c0.2,0,0.4,0,0.6-0.1c0.2,0,0.4-0.1,0.5-0.2c0.1-0.1,0.3-0.1,0.4-0.2    c0.1-0.1,0.2-0.1,0.3-0.2h0V309.1z"/>
		<path d="M275.9,306.8h-4c0,0.3,0.1,0.6,0.2,0.9c0.1,0.3,0.2,0.5,0.4,0.6c0.2,0.2,0.4,0.3,0.6,0.4s0.5,0.1,0.8,0.1    c0.4,0,0.7-0.1,1.1-0.2c0.4-0.1,0.6-0.3,0.8-0.4h0v1c-0.3,0.1-0.6,0.2-0.9,0.3s-0.7,0.1-1,0.1c-0.9,0-1.6-0.2-2.1-0.7    c-0.5-0.5-0.8-1.2-0.8-2.1c0-0.9,0.2-1.6,0.7-2.1s1.1-0.8,1.9-0.8c0.7,0,1.3,0.2,1.7,0.6c0.4,0.4,0.6,1,0.6,1.8V306.8z M275,306.1    c0-0.5-0.1-0.9-0.4-1.1s-0.6-0.4-1.1-0.4c-0.5,0-0.9,0.1-1.2,0.4s-0.5,0.6-0.5,1.1H275z"/>
		<path d="M281.7,309.4h-0.9v-0.6c-0.3,0.2-0.5,0.4-0.8,0.5s-0.6,0.2-0.9,0.2c-0.7,0-1.2-0.3-1.5-0.8c-0.4-0.5-0.6-1.2-0.6-2.1    c0-0.5,0.1-0.9,0.2-1.2s0.3-0.7,0.5-0.9c0.2-0.2,0.5-0.4,0.8-0.6c0.3-0.1,0.6-0.2,0.9-0.2c0.3,0,0.5,0,0.8,0.1    c0.2,0.1,0.5,0.2,0.7,0.3v-2.4h0.9V309.4z M280.8,308.1v-3.1c-0.2-0.1-0.5-0.2-0.7-0.2s-0.4-0.1-0.6-0.1c-0.5,0-0.9,0.2-1.2,0.5    s-0.4,0.9-0.4,1.5c0,0.6,0.1,1.1,0.3,1.5c0.2,0.3,0.6,0.5,1.1,0.5c0.3,0,0.5-0.1,0.8-0.2C280.3,308.4,280.6,308.2,280.8,308.1z"/>
		<path d="M287.7,309.4h-0.9v-0.6c-0.1,0.1-0.2,0.1-0.3,0.2c-0.1,0.1-0.3,0.2-0.4,0.2c-0.2,0.1-0.3,0.1-0.5,0.2    c-0.2,0-0.4,0.1-0.7,0.1c-0.5,0-0.9-0.2-1.2-0.5s-0.5-0.7-0.5-1.2c0-0.4,0.1-0.7,0.3-1c0.2-0.3,0.4-0.5,0.8-0.6    c0.3-0.1,0.7-0.2,1.2-0.3s1-0.1,1.5-0.1v-0.1c0-0.2,0-0.4-0.1-0.5s-0.2-0.2-0.3-0.3c-0.1-0.1-0.3-0.1-0.5-0.2c-0.2,0-0.4,0-0.6,0    c-0.2,0-0.5,0-0.8,0.1c-0.3,0.1-0.6,0.2-0.9,0.3h0v-0.9c0.2,0,0.4-0.1,0.8-0.2c0.3-0.1,0.7-0.1,1-0.1c0.4,0,0.7,0,1,0.1    c0.3,0.1,0.5,0.2,0.7,0.3c0.2,0.1,0.4,0.3,0.5,0.6s0.2,0.5,0.2,0.9V309.4z M286.8,308.1v-1.5c-0.3,0-0.6,0-1,0.1s-0.7,0.1-0.9,0.1    c-0.3,0.1-0.5,0.2-0.6,0.3c-0.2,0.2-0.2,0.4-0.2,0.7c0,0.3,0.1,0.5,0.3,0.7c0.2,0.2,0.5,0.2,0.9,0.2c0.3,0,0.6-0.1,0.9-0.2    C286.4,308.4,286.6,308.2,286.8,308.1z"/>
		<path d="M255,319.4H254v-0.6c-0.3,0.2-0.5,0.4-0.8,0.5s-0.6,0.2-0.9,0.2c-0.7,0-1.2-0.3-1.5-0.8c-0.4-0.5-0.6-1.2-0.6-2.1    c0-0.5,0.1-0.9,0.2-1.2s0.3-0.7,0.5-0.9c0.2-0.2,0.5-0.4,0.8-0.6c0.3-0.1,0.6-0.2,0.9-0.2c0.3,0,0.5,0,0.8,0.1    c0.2,0.1,0.5,0.2,0.7,0.3v-2.4h0.9V319.4z M254,318.1v-3.1c-0.2-0.1-0.5-0.2-0.7-0.2s-0.4-0.1-0.6-0.1c-0.5,0-0.9,0.2-1.2,0.5    s-0.4,0.9-0.4,1.5c0,0.6,0.1,1.1,0.3,1.5c0.2,0.3,0.6,0.5,1.1,0.5c0.3,0,0.5-0.1,0.8-0.2C253.6,318.4,253.8,318.2,254,318.1z"/>
		<path d="M261.3,316.8h-4c0,0.3,0.1,0.6,0.2,0.9c0.1,0.3,0.2,0.5,0.4,0.6c0.2,0.2,0.4,0.3,0.6,0.4s0.5,0.1,0.8,0.1    c0.4,0,0.7-0.1,1.1-0.2c0.4-0.1,0.6-0.3,0.8-0.4h0v1c-0.3,0.1-0.6,0.2-0.9,0.3s-0.7,0.1-1,0.1c-0.9,0-1.6-0.2-2.1-0.7    c-0.5-0.5-0.8-1.2-0.8-2.1c0-0.9,0.2-1.6,0.7-2.1s1.1-0.8,1.9-0.8c0.7,0,1.3,0.2,1.7,0.6s0.6,1,0.6,1.8V316.8z M260.4,316.1    c0-0.5-0.1-0.9-0.4-1.1c-0.2-0.3-0.6-0.4-1.1-0.4c-0.5,0-0.9,0.1-1.2,0.4s-0.5,0.6-0.5,1.1H260.4z"/>
		<path d="M271.9,318.9c-0.2,0.1-0.3,0.2-0.5,0.2c-0.1,0.1-0.3,0.1-0.6,0.2c-0.2,0.1-0.4,0.1-0.6,0.2c-0.2,0-0.5,0.1-0.8,0.1    c-0.5,0-1-0.1-1.4-0.2c-0.4-0.1-0.8-0.4-1.1-0.7c-0.3-0.3-0.6-0.7-0.7-1.2c-0.2-0.5-0.3-1-0.3-1.7c0-0.6,0.1-1.1,0.3-1.6    c0.2-0.5,0.4-0.9,0.7-1.2c0.3-0.3,0.7-0.6,1.1-0.7s0.9-0.2,1.5-0.2c0.4,0,0.8,0,1.2,0.1s0.8,0.3,1.3,0.5v1.1h-0.1    c-0.4-0.3-0.8-0.6-1.2-0.7s-0.8-0.2-1.3-0.2c-0.4,0-0.7,0.1-1,0.2c-0.3,0.1-0.6,0.3-0.8,0.6c-0.2,0.2-0.4,0.6-0.5,0.9    c-0.1,0.4-0.2,0.8-0.2,1.3c0,0.5,0.1,1,0.2,1.3c0.1,0.4,0.3,0.7,0.5,0.9c0.2,0.2,0.5,0.4,0.8,0.5c0.3,0.1,0.6,0.2,1,0.2    c0.5,0,0.9-0.1,1.3-0.2c0.4-0.2,0.8-0.4,1.1-0.7h0.1V318.9z"/>
		<path d="M277.5,319.4h-0.9v-0.6c-0.1,0.1-0.2,0.1-0.3,0.2c-0.1,0.1-0.3,0.2-0.4,0.2c-0.2,0.1-0.3,0.1-0.5,0.2    c-0.2,0-0.4,0.1-0.7,0.1c-0.5,0-0.9-0.2-1.2-0.5s-0.5-0.7-0.5-1.2c0-0.4,0.1-0.7,0.3-1c0.2-0.3,0.4-0.5,0.8-0.6    c0.3-0.1,0.7-0.2,1.2-0.3s1-0.1,1.5-0.1v-0.1c0-0.2,0-0.4-0.1-0.5s-0.2-0.2-0.3-0.3c-0.1-0.1-0.3-0.1-0.5-0.2c-0.2,0-0.4,0-0.6,0    c-0.2,0-0.5,0-0.8,0.1c-0.3,0.1-0.6,0.2-0.9,0.3h0v-0.9c0.2,0,0.4-0.1,0.8-0.2c0.3-0.1,0.7-0.1,1-0.1c0.4,0,0.7,0,1,0.1    c0.3,0.1,0.5,0.2,0.7,0.3c0.2,0.1,0.4,0.3,0.5,0.6s0.2,0.5,0.2,0.9V319.4z M276.5,318.1v-1.5c-0.3,0-0.6,0-1,0.1s-0.7,0.1-0.9,0.1    c-0.3,0.1-0.5,0.2-0.6,0.3c-0.2,0.2-0.2,0.4-0.2,0.7c0,0.3,0.1,0.5,0.3,0.7c0.2,0.2,0.5,0.2,0.9,0.2c0.3,0,0.6-0.1,0.9-0.2    C276.1,318.4,276.3,318.2,276.5,318.1z"/>
		<path d="M283.1,317.8c0,0.5-0.2,0.9-0.6,1.2c-0.4,0.3-1,0.5-1.7,0.5c-0.4,0-0.8,0-1.1-0.1c-0.3-0.1-0.6-0.2-0.8-0.3v-1h0    c0.3,0.2,0.6,0.4,1,0.5c0.4,0.1,0.7,0.2,1,0.2c0.4,0,0.7-0.1,0.9-0.2s0.3-0.3,0.3-0.6c0-0.2-0.1-0.4-0.2-0.5s-0.4-0.2-0.7-0.3    c-0.1,0-0.3-0.1-0.5-0.1s-0.4-0.1-0.6-0.1c-0.5-0.1-0.8-0.3-1-0.6c-0.2-0.2-0.3-0.5-0.3-0.9c0-0.2,0-0.4,0.1-0.6s0.2-0.4,0.4-0.5    c0.2-0.2,0.4-0.3,0.7-0.4c0.3-0.1,0.6-0.1,0.9-0.1c0.3,0,0.7,0,1,0.1c0.3,0.1,0.6,0.2,0.8,0.3v1h0c-0.2-0.2-0.5-0.3-0.9-0.4    c-0.3-0.1-0.7-0.2-1-0.2c-0.3,0-0.6,0.1-0.8,0.2c-0.2,0.1-0.3,0.3-0.3,0.6c0,0.2,0.1,0.4,0.2,0.5c0.1,0.1,0.4,0.2,0.7,0.3    c0.2,0,0.4,0.1,0.6,0.1s0.4,0.1,0.5,0.1c0.4,0.1,0.8,0.3,1,0.5C283,317.1,283.1,317.4,283.1,317.8z"/>
		<path d="M289,316.8h-4c0,0.3,0.1,0.6,0.2,0.9c0.1,0.3,0.2,0.5,0.4,0.6c0.2,0.2,0.4,0.3,0.6,0.4s0.5,0.1,0.8,0.1    c0.4,0,0.7-0.1,1.1-0.2c0.4-0.1,0.6-0.3,0.8-0.4h0v1c-0.3,0.1-0.6,0.2-0.9,0.3c-0.3,0.1-0.7,0.1-1,0.1c-0.9,0-1.6-0.2-2.1-0.7    c-0.5-0.5-0.8-1.2-0.8-2.1c0-0.9,0.2-1.6,0.7-2.1s1.1-0.8,1.9-0.8c0.7,0,1.3,0.2,1.7,0.6s0.6,1,0.6,1.8V316.8z M288.1,316.1    c0-0.5-0.1-0.9-0.4-1.1s-0.6-0.4-1.1-0.4c-0.5,0-0.9,0.1-1.2,0.4c-0.3,0.3-0.5,0.6-0.5,1.1H288.1z"/>
		<path d="M291.3,319.4h-0.9v-7.6h0.9V319.4z"/>
		<path d="M297.4,319.4h-0.9v-0.6c-0.1,0.1-0.2,0.1-0.3,0.2c-0.1,0.1-0.3,0.2-0.4,0.2c-0.2,0.1-0.3,0.1-0.5,0.2    c-0.2,0-0.4,0.1-0.7,0.1c-0.5,0-0.9-0.2-1.3-0.5c-0.3-0.3-0.5-0.7-0.5-1.2c0-0.4,0.1-0.7,0.3-1c0.2-0.3,0.4-0.5,0.8-0.6    c0.3-0.1,0.7-0.2,1.2-0.3c0.5-0.1,1-0.1,1.5-0.1v-0.1c0-0.2,0-0.4-0.1-0.5s-0.2-0.2-0.3-0.3c-0.1-0.1-0.3-0.1-0.5-0.2    s-0.4,0-0.6,0c-0.2,0-0.5,0-0.8,0.1c-0.3,0.1-0.6,0.2-0.9,0.3h0v-0.9c0.2,0,0.4-0.1,0.8-0.2c0.3-0.1,0.7-0.1,1-0.1    c0.4,0,0.7,0,1,0.1c0.3,0.1,0.5,0.2,0.7,0.3c0.2,0.1,0.4,0.3,0.5,0.6s0.2,0.5,0.2,0.9V319.4z M296.4,318.1v-1.5    c-0.3,0-0.6,0-1,0.1s-0.7,0.1-0.9,0.1c-0.3,0.1-0.5,0.2-0.6,0.3c-0.2,0.2-0.2,0.4-0.2,0.7c0,0.3,0.1,0.5,0.3,0.7    c0.2,0.2,0.5,0.2,0.9,0.2c0.3,0,0.6-0.1,0.9-0.2C296,318.4,296.2,318.2,296.4,318.1z"/>
		<path d="M303,317.8c0,0.5-0.2,0.9-0.6,1.2c-0.4,0.3-1,0.5-1.7,0.5c-0.4,0-0.8,0-1.1-0.1c-0.3-0.1-0.6-0.2-0.8-0.3v-1h0    c0.3,0.2,0.6,0.4,1,0.5c0.4,0.1,0.7,0.2,1,0.2c0.4,0,0.7-0.1,0.9-0.2c0.2-0.1,0.3-0.3,0.3-0.6c0-0.2-0.1-0.4-0.2-0.5    c-0.1-0.1-0.4-0.2-0.7-0.3c-0.1,0-0.3-0.1-0.5-0.1c-0.2,0-0.4-0.1-0.6-0.1c-0.5-0.1-0.8-0.3-1-0.6c-0.2-0.2-0.3-0.5-0.3-0.9    c0-0.2,0-0.4,0.1-0.6s0.2-0.4,0.4-0.5c0.2-0.2,0.4-0.3,0.7-0.4c0.3-0.1,0.6-0.1,0.9-0.1c0.3,0,0.7,0,1,0.1    c0.3,0.1,0.6,0.2,0.8,0.3v1h0c-0.2-0.2-0.5-0.3-0.9-0.4c-0.3-0.1-0.7-0.2-1-0.2c-0.3,0-0.6,0.1-0.8,0.2c-0.2,0.1-0.3,0.3-0.3,0.6    c0,0.2,0.1,0.4,0.2,0.5c0.1,0.1,0.4,0.2,0.7,0.3c0.2,0,0.4,0.1,0.6,0.1s0.4,0.1,0.5,0.1c0.4,0.1,0.8,0.3,1,0.5    C302.9,317.1,303,317.4,303,317.8z"/>
	</g>
	<g>
		<rect x="208.7" y="224.2" style="fill:none;" width="19.8" height="11"/>
		<path d="M216.1,234.7h-1v-6.3l-2,4.3h-0.6l-2-4.3v6.3h-0.9v-7.3h1.3l1.9,4l1.9-4h1.3V234.7z"/>
		<path d="M222.7,232c0,0.9-0.2,1.6-0.7,2.1s-1.1,0.8-1.8,0.8c-0.8,0-1.4-0.3-1.8-0.8c-0.5-0.5-0.7-1.2-0.7-2.1s0.2-1.6,0.7-2.1    c0.5-0.5,1.1-0.8,1.8-0.8c0.8,0,1.4,0.3,1.8,0.8C222.4,230.4,222.7,231.1,222.7,232z M221.7,232c0-0.7-0.1-1.2-0.4-1.6    c-0.3-0.3-0.7-0.5-1.2-0.5c-0.5,0-0.9,0.2-1.2,0.5c-0.3,0.3-0.4,0.9-0.4,1.6c0,0.7,0.1,1.2,0.4,1.6c0.3,0.4,0.7,0.5,1.2,0.5    c0.5,0,0.9-0.2,1.2-0.5C221.6,233.2,221.7,232.7,221.7,232z"/>
		<path d="M228,233.2c0,0.5-0.2,0.9-0.6,1.2s-1,0.5-1.7,0.5c-0.4,0-0.8,0-1.1-0.1c-0.3-0.1-0.6-0.2-0.8-0.3v-1h0    c0.3,0.2,0.6,0.4,1,0.5c0.4,0.1,0.7,0.2,1,0.2c0.4,0,0.7-0.1,0.9-0.2c0.2-0.1,0.3-0.3,0.3-0.6c0-0.2-0.1-0.4-0.2-0.5    c-0.1-0.1-0.4-0.2-0.7-0.3c-0.1,0-0.3-0.1-0.5-0.1c-0.2,0-0.4-0.1-0.6-0.1c-0.5-0.1-0.8-0.3-1-0.6c-0.2-0.2-0.3-0.5-0.3-0.9    c0-0.2,0-0.4,0.1-0.6s0.2-0.4,0.4-0.5c0.2-0.2,0.4-0.3,0.7-0.4c0.3-0.1,0.6-0.1,0.9-0.1c0.3,0,0.7,0,1,0.1    c0.3,0.1,0.6,0.2,0.8,0.3v1h0c-0.2-0.2-0.5-0.3-0.9-0.4c-0.3-0.1-0.7-0.2-1-0.2c-0.3,0-0.6,0.1-0.8,0.2c-0.2,0.1-0.3,0.3-0.3,0.6    c0,0.2,0.1,0.4,0.2,0.5c0.1,0.1,0.4,0.2,0.7,0.3c0.2,0,0.4,0.1,0.6,0.1s0.4,0.1,0.5,0.1c0.4,0.1,0.8,0.3,1,0.5    C227.9,232.4,228,232.8,228,233.2z"/>
	</g>
	<g>
		<rect x="257.8" y="150.6" style="fill:none;" width="51.4" height="21"/>
		<path d="M263.6,156c0,0.3-0.1,0.6-0.2,0.9s-0.3,0.5-0.5,0.7c-0.3,0.3-0.5,0.4-0.9,0.6s-0.8,0.2-1.3,0.2h-1v2.7h-1v-7.3h2    c0.4,0,0.8,0,1.1,0.1s0.6,0.2,0.8,0.3c0.3,0.2,0.5,0.4,0.6,0.7S263.6,155.6,263.6,156z M262.6,156c0-0.3,0-0.5-0.1-0.7    s-0.2-0.3-0.4-0.5c-0.2-0.1-0.3-0.2-0.5-0.2s-0.5-0.1-0.8-0.1h-1v2.9h0.8c0.4,0,0.7,0,1-0.1s0.4-0.2,0.6-0.3    c0.2-0.2,0.3-0.3,0.3-0.5S262.6,156.2,262.6,156z"/>
		<path d="M268.8,161.1h-0.9v-0.6c-0.1,0.1-0.2,0.1-0.3,0.2s-0.3,0.2-0.4,0.2c-0.2,0.1-0.3,0.1-0.5,0.2s-0.4,0.1-0.7,0.1    c-0.5,0-0.9-0.2-1.3-0.5s-0.5-0.7-0.5-1.2c0-0.4,0.1-0.7,0.3-1c0.2-0.3,0.4-0.5,0.8-0.6c0.3-0.1,0.7-0.2,1.2-0.3    c0.5-0.1,1-0.1,1.5-0.1v-0.1c0-0.2,0-0.4-0.1-0.5s-0.2-0.2-0.3-0.3c-0.1-0.1-0.3-0.1-0.5-0.2c-0.2,0-0.4,0-0.6,0    c-0.2,0-0.5,0-0.8,0.1s-0.6,0.2-0.9,0.3h0v-0.9c0.2,0,0.4-0.1,0.8-0.2s0.7-0.1,1-0.1c0.4,0,0.7,0,1,0.1s0.5,0.2,0.7,0.3    c0.2,0.1,0.4,0.3,0.5,0.6s0.2,0.5,0.2,0.9V161.1z M267.8,159.7v-1.5c-0.3,0-0.6,0-1,0.1s-0.7,0.1-0.9,0.1    c-0.3,0.1-0.5,0.2-0.6,0.3s-0.2,0.4-0.2,0.7c0,0.3,0.1,0.5,0.3,0.7s0.5,0.2,0.9,0.2c0.3,0,0.6-0.1,0.9-0.2    C267.4,160,267.6,159.9,267.8,159.7z"/>
		<path d="M274.5,161.1h-4.4v-0.7l3.2-4h-3.1v-0.8h4.3v0.7l-3.2,4h3.3V161.1z"/>
		<path d="M280.4,158.3c0,0.9-0.2,1.6-0.7,2.1c-0.5,0.5-1.1,0.8-1.8,0.8c-0.8,0-1.4-0.3-1.8-0.8c-0.5-0.5-0.7-1.2-0.7-2.1    s0.2-1.6,0.7-2.1c0.5-0.5,1.1-0.8,1.8-0.8c0.8,0,1.4,0.3,1.8,0.8C280.1,156.7,280.4,157.5,280.4,158.3z M279.4,158.3    c0-0.7-0.1-1.2-0.4-1.6c-0.3-0.3-0.7-0.5-1.2-0.5c-0.5,0-0.9,0.2-1.2,0.5c-0.3,0.3-0.4,0.9-0.4,1.6c0,0.7,0.1,1.2,0.4,1.6    s0.7,0.5,1.2,0.5c0.5,0,0.9-0.2,1.1-0.5S279.4,159,279.4,158.3z"/>
		<path d="M285.7,159.5c0,0.5-0.2,0.9-0.6,1.2c-0.4,0.3-1,0.5-1.7,0.5c-0.4,0-0.8,0-1.1-0.1s-0.6-0.2-0.8-0.3v-1h0    c0.3,0.2,0.6,0.4,1,0.5c0.4,0.1,0.7,0.2,1,0.2c0.4,0,0.7-0.1,0.9-0.2s0.3-0.3,0.3-0.6c0-0.2-0.1-0.4-0.2-0.5s-0.4-0.2-0.7-0.3    c-0.1,0-0.3-0.1-0.5-0.1s-0.4-0.1-0.6-0.1c-0.5-0.1-0.8-0.3-1-0.6s-0.3-0.5-0.3-0.9c0-0.2,0-0.4,0.1-0.6s0.2-0.4,0.4-0.5    c0.2-0.2,0.4-0.3,0.7-0.4s0.6-0.1,0.9-0.1c0.3,0,0.7,0,1,0.1c0.3,0.1,0.6,0.2,0.8,0.3v1h0c-0.2-0.2-0.5-0.3-0.9-0.4    s-0.7-0.2-1-0.2c-0.3,0-0.6,0.1-0.8,0.2c-0.2,0.1-0.3,0.3-0.3,0.6c0,0.2,0.1,0.4,0.2,0.5c0.1,0.1,0.4,0.2,0.7,0.3    c0.2,0,0.4,0.1,0.6,0.1s0.4,0.1,0.5,0.1c0.4,0.1,0.8,0.3,1,0.5C285.6,158.8,285.7,159.1,285.7,159.5z"/>
		<path d="M263.2,171.1h-0.9v-0.6c-0.3,0.2-0.5,0.4-0.8,0.5s-0.6,0.2-0.9,0.2c-0.7,0-1.2-0.3-1.5-0.8c-0.4-0.5-0.6-1.2-0.6-2.1    c0-0.5,0.1-0.9,0.2-1.2s0.3-0.7,0.5-0.9c0.2-0.2,0.5-0.4,0.8-0.6s0.6-0.2,0.9-0.2c0.3,0,0.5,0,0.8,0.1s0.5,0.2,0.7,0.3v-2.4h0.9    V171.1z M262.2,169.7v-3.1c-0.2-0.1-0.5-0.2-0.7-0.2s-0.4-0.1-0.6-0.1c-0.5,0-0.9,0.2-1.2,0.5c-0.3,0.4-0.4,0.9-0.4,1.5    c0,0.6,0.1,1.1,0.3,1.5c0.2,0.3,0.6,0.5,1.1,0.5c0.3,0,0.5-0.1,0.8-0.2S262,169.9,262.2,169.7z"/>
		<path d="M269.5,168.4h-4c0,0.3,0.1,0.6,0.2,0.9s0.2,0.5,0.4,0.6c0.2,0.2,0.4,0.3,0.6,0.4c0.2,0.1,0.5,0.1,0.8,0.1    c0.4,0,0.7-0.1,1.1-0.2s0.6-0.3,0.8-0.4h0v1c-0.3,0.1-0.6,0.2-0.9,0.3s-0.7,0.1-1,0.1c-0.9,0-1.6-0.2-2.1-0.7s-0.8-1.2-0.8-2.1    c0-0.9,0.2-1.6,0.7-2.1c0.5-0.5,1.1-0.8,1.9-0.8c0.7,0,1.3,0.2,1.7,0.6s0.6,1,0.6,1.8V168.4z M268.6,167.7c0-0.5-0.1-0.9-0.4-1.1    s-0.6-0.4-1.1-0.4c-0.5,0-0.9,0.1-1.2,0.4c-0.3,0.3-0.5,0.6-0.5,1.1H268.6z"/>
		<path d="M280,168.8c0,0.4-0.1,0.7-0.2,1s-0.3,0.5-0.6,0.7c-0.3,0.2-0.6,0.4-0.9,0.5c-0.3,0.1-0.7,0.1-1.2,0.1h-2.6v-7.3h2.2    c0.5,0,0.9,0,1.2,0.1s0.5,0.1,0.8,0.2c0.3,0.1,0.5,0.3,0.6,0.5c0.1,0.2,0.2,0.5,0.2,0.8c0,0.3-0.1,0.6-0.3,0.9s-0.4,0.4-0.7,0.6v0    c0.5,0.1,0.9,0.3,1.2,0.6S280,168.3,280,168.8z M278.4,165.6c0-0.2,0-0.3-0.1-0.4s-0.2-0.2-0.3-0.3c-0.2-0.1-0.3-0.1-0.6-0.2    s-0.5,0-0.8,0h-1.2v2.1h1.2c0.3,0,0.5,0,0.7,0s0.3-0.1,0.5-0.2s0.3-0.2,0.3-0.4S278.4,165.8,278.4,165.6z M279,168.9    c0-0.3,0-0.5-0.1-0.7s-0.2-0.3-0.5-0.4c-0.2-0.1-0.3-0.1-0.6-0.2c-0.2,0-0.5,0-0.8,0h-1.5v2.7h1.3c0.4,0,0.8,0,1-0.1    s0.5-0.1,0.7-0.2c0.2-0.1,0.3-0.3,0.4-0.4C278.9,169.3,279,169.1,279,168.9z"/>
		<path d="M285.9,168.3c0,0.9-0.2,1.6-0.7,2.1c-0.5,0.5-1.1,0.8-1.8,0.8c-0.8,0-1.4-0.3-1.8-0.8s-0.7-1.2-0.7-2.1s0.2-1.6,0.7-2.1    s1.1-0.8,1.8-0.8c0.8,0,1.4,0.3,1.8,0.8C285.7,166.7,285.9,167.5,285.9,168.3z M285,168.3c0-0.7-0.1-1.2-0.4-1.6    c-0.3-0.3-0.7-0.5-1.2-0.5c-0.5,0-0.9,0.2-1.2,0.5c-0.3,0.3-0.4,0.9-0.4,1.6c0,0.7,0.1,1.2,0.4,1.6s0.7,0.5,1.2,0.5    c0.5,0,0.9-0.2,1.1-0.5S285,169,285,168.3z"/>
		<path d="M290.8,166.6L290.8,166.6c-0.2,0-0.3-0.1-0.4-0.1c-0.1,0-0.3,0-0.5,0c-0.3,0-0.6,0.1-0.8,0.2s-0.5,0.3-0.8,0.5v3.9h-0.9    v-5.5h0.9v0.8c0.4-0.3,0.7-0.5,1-0.6s0.6-0.2,0.9-0.2c0.2,0,0.3,0,0.3,0s0.2,0,0.3,0V166.6z"/>
		<path d="M296.4,168.3c0,0.5-0.1,0.9-0.2,1.2s-0.3,0.7-0.5,0.9c-0.2,0.3-0.5,0.5-0.8,0.6s-0.6,0.2-0.9,0.2c-0.3,0-0.6,0-0.8-0.1    c-0.2-0.1-0.5-0.2-0.7-0.3l-0.1,0.3h-0.9v-7.6h0.9v2.7c0.3-0.2,0.5-0.4,0.8-0.5c0.3-0.1,0.6-0.2,1-0.2c0.6,0,1.2,0.2,1.5,0.7    S296.4,167.4,296.4,168.3z M295.5,168.3c0-0.7-0.1-1.1-0.3-1.5s-0.6-0.5-1-0.5c-0.3,0-0.5,0.1-0.8,0.2s-0.5,0.3-0.8,0.4v3.1    c0.3,0.1,0.5,0.2,0.7,0.2c0.2,0,0.4,0.1,0.6,0.1c0.5,0,0.9-0.2,1.2-0.5S295.5,169,295.5,168.3z"/>
		<path d="M302.4,168.4h-4c0,0.3,0.1,0.6,0.2,0.9s0.2,0.5,0.4,0.6c0.2,0.2,0.4,0.3,0.6,0.4s0.5,0.1,0.8,0.1c0.4,0,0.7-0.1,1.1-0.2    s0.6-0.3,0.8-0.4h0v1c-0.3,0.1-0.6,0.2-0.9,0.3s-0.7,0.1-1,0.1c-0.9,0-1.6-0.2-2.1-0.7s-0.8-1.2-0.8-2.1c0-0.9,0.2-1.6,0.7-2.1    c0.5-0.5,1.1-0.8,1.9-0.8c0.7,0,1.3,0.2,1.7,0.6c0.4,0.4,0.6,1,0.6,1.8V168.4z M301.5,167.7c0-0.5-0.1-0.9-0.4-1.1    s-0.6-0.4-1.1-0.4c-0.5,0-0.9,0.1-1.2,0.4c-0.3,0.3-0.5,0.6-0.5,1.1H301.5z M301.6,162.9l-1.3,1.8h-0.7l0.9-1.8H301.6z"/>
		<path d="M308.4,171.1h-0.9V168c0-0.3,0-0.5,0-0.7s-0.1-0.4-0.2-0.5c-0.1-0.1-0.2-0.2-0.4-0.3c-0.2-0.1-0.4-0.1-0.6-0.1    c-0.3,0-0.5,0.1-0.8,0.2s-0.5,0.3-0.8,0.5v4.1h-0.9v-5.5h0.9v0.6c0.3-0.2,0.6-0.4,0.9-0.6s0.6-0.2,0.9-0.2c0.6,0,1,0.2,1.3,0.5    c0.3,0.4,0.5,0.9,0.5,1.5V171.1z"/>
	</g>
</g>
<g id="llegenda">
	<line style="fill:none;stroke:#9A9A9A;stroke-width:2;stroke-miterlimit:10;" x1="-116.6" y1="147.6" x2="-116.6" y2="177.1"/>
	<line style="fill:none;stroke:#9A9A9A;stroke-miterlimit:10;" x1="-83.2" y1="147.6" x2="-83.2" y2="177.1"/>
	<g>
		<path d="M-108.9,158h0.9v7.1h-0.9V158z"/>
		<path d="M-105.6,158.9c0,0.3-0.2,0.5-0.6,0.5c-0.3,0-0.5-0.2-0.5-0.5s0.2-0.5,0.5-0.5C-105.8,158.3-105.6,158.6-105.6,158.9z     M-106.5,165.1v-4.8h0.9v4.8H-106.5z"/>
		<path d="M-104.2,161.5c0-0.5,0-0.9,0-1.3h0.8l0,0.8h0c0.2-0.4,0.8-0.9,1.6-0.9c0.7,0,1.7,0.4,1.7,2.1v2.9h-0.9v-2.8    c0-0.8-0.3-1.4-1.1-1.4c-0.6,0-1,0.4-1.2,0.9c0,0.1-0.1,0.3-0.1,0.4v2.9h-0.9V161.5z"/>
	</g>
	<line style="fill:none;stroke:#696969;stroke-width:2;stroke-miterlimit:10;" x1="-116.6" y1="187.1" x2="-116.6" y2="216.6"/>
	<g>
		<path d="M-108.9,197.6h0.9v7.1h-0.9V197.6z"/>
		<path d="M-105.6,198.4c0,0.3-0.2,0.5-0.6,0.5c-0.3,0-0.5-0.2-0.5-0.5s0.2-0.5,0.5-0.5C-105.8,197.9-105.6,198.1-105.6,198.4z     M-106.5,204.6v-4.8h0.9v4.8H-106.5z"/>
		<path d="M-104.2,201.1c0-0.5,0-0.9,0-1.3h0.8l0,0.8h0c0.2-0.4,0.8-0.9,1.6-0.9c0.7,0,1.7,0.4,1.7,2.1v2.9h-0.9v-2.8    c0-0.8-0.3-1.4-1.1-1.4c-0.6,0-1,0.4-1.2,0.9c0,0.1-0.1,0.3-0.1,0.4v2.9h-0.9V201.1z"/>
	</g>
	<rect x="-122" y="123" style="fill:#BFBFBF;" width="16.3" height="15.3"/>
	<rect x="-122" y="95.3" style="fill:#DCE9FB;" width="16.3" height="15.3"/>
	<rect x="-153.4" y="95.3" style="fill:#D0E0A4;" width="16.3" height="15.3"/>
	<g>
		<path d="M-96.5,132.3v-4.2h-0.7v-0.7h0.7v-0.2c0-0.7,0.2-1.3,0.6-1.7c0.3-0.3,0.8-0.4,1.2-0.4c0.3,0,0.6,0.1,0.7,0.1l-0.1,0.7    c-0.1-0.1-0.3-0.1-0.6-0.1c-0.7,0-0.9,0.6-0.9,1.4v0.3h1.2v0.7h-1.2v4.2H-96.5z"/>
		<path d="M-89.4,129.9c0,1.8-1.2,2.6-2.4,2.6c-1.3,0-2.3-1-2.3-2.5c0-1.6,1.1-2.6,2.4-2.6C-90.3,127.4-89.4,128.4-89.4,129.9z     M-93.2,129.9c0,1.1,0.6,1.9,1.5,1.9c0.8,0,1.5-0.8,1.5-1.9c0-0.8-0.4-1.8-1.4-1.8C-92.8,128-93.2,129-93.2,129.9z"/>
		<path d="M-88.3,128.8c0-0.5,0-0.9,0-1.3h0.8l0,0.8h0c0.2-0.4,0.8-0.9,1.6-0.9c0.7,0,1.7,0.4,1.7,2.1v2.9H-85v-2.8    c0-0.8-0.3-1.4-1.1-1.4c-0.6,0-1,0.4-1.2,0.9c0,0.1-0.1,0.3-0.1,0.4v2.9h-0.9V128.8z"/>
		<path d="M-82.8,131.4c0.3,0.2,0.7,0.3,1.2,0.3c0.6,0,0.9-0.3,0.9-0.7c0-0.4-0.3-0.6-0.9-0.9c-0.9-0.3-1.3-0.8-1.3-1.4    c0-0.8,0.6-1.4,1.7-1.4c0.5,0,0.9,0.1,1.2,0.3l-0.2,0.6c-0.2-0.1-0.5-0.3-1-0.3c-0.5,0-0.8,0.3-0.8,0.7c0,0.4,0.3,0.6,0.9,0.8    c0.8,0.3,1.3,0.7,1.3,1.4c0,0.9-0.7,1.5-1.8,1.5c-0.5,0-1-0.1-1.4-0.3L-82.8,131.4z"/>
	</g>
	<g>
		<path d="M-96.5,101.5c0-0.5,0-0.9,0-1.3h0.8l0,0.8h0c0.3-0.5,0.7-0.9,1.5-0.9c0.6,0,1.1,0.4,1.4,1h0c0.1-0.3,0.4-0.5,0.5-0.6    c0.3-0.2,0.6-0.3,1.1-0.3c0.6,0,1.6,0.4,1.6,2.1v2.8h-0.9v-2.7c0-0.9-0.3-1.5-1-1.5c-0.5,0-0.9,0.4-1,0.8c0,0.1-0.1,0.3-0.1,0.4v3    h-0.9v-2.9c0-0.8-0.3-1.3-1-1.3c-0.5,0-0.9,0.4-1.1,0.9c-0.1,0.1-0.1,0.3-0.1,0.4v2.9h-0.9V101.5z"/>
		<path d="M-84.8,103.8c0,0.4,0,0.8,0.1,1.2h-0.8l-0.1-0.6h0c-0.3,0.4-0.8,0.7-1.5,0.7c-1,0-1.5-0.7-1.5-1.4c0-1.2,1-1.8,2.9-1.8    v-0.1c0-0.4-0.1-1.1-1.1-1.1c-0.5,0-0.9,0.1-1.3,0.4l-0.2-0.6c0.4-0.3,1-0.4,1.6-0.4c1.5,0,1.8,1,1.8,2V103.8z M-85.7,102.5    c-1,0-2,0.1-2,1.1c0,0.6,0.4,0.8,0.8,0.8c0.6,0,1-0.4,1.2-0.8c0-0.1,0-0.2,0-0.3V102.5z"/>
		<path d="M-83.4,101.6c0-0.6,0-1.1,0-1.5h0.8l0,1h0c0.2-0.6,0.8-1.1,1.3-1.1c0.1,0,0.2,0,0.2,0v0.8c-0.1,0-0.2,0-0.3,0    c-0.6,0-1.1,0.5-1.2,1.1c0,0.1,0,0.3,0,0.4v2.6h-0.9V101.6z"/>
	</g>
	<circle style="fill-rule:evenodd;clip-rule:evenodd;fill:#5B7EBD;" cx="-116.6" cy="231.7" r="2.4"/>
	<rect x="-197.4" y="123" style="fill:#BFBFBF;stroke:#696969;stroke-width:2;stroke-miterlimit:10;" width="16.3" height="15.3"/>
	<rect x="-171.2" y="123" style="fill:#FFFBF0;stroke:#9A9A9A;stroke-width:2;stroke-miterlimit:10;" width="16.3" height="15.3"/>
	<rect x="-180.5" y="153.6" style="opacity:0.6;fill:#FFFBF0;" width="51" height="17.5"/>
</g>
</svg>