<svg xmlns="http://www.w3.org/2000/svg" xmlns:xlink="http://www.w3.org/1999/xlink" version="1.1" x="0px" y="0px" width="450px" height="450px" viewBox="0 0 450 450" style="enable-background:new 0 0 450 450;" xml:space="preserve">
<g id="Capa_9">
	<rect x="-12" y="-12.7" style="fill:#DCE9FB;" width="474" height="482.7"/>
</g>
<g id="color_provincies">
	<a xlink:href="LUGO">
		<path style="fill-rule:evenodd;clip-rule:evenodd;fill:#BFBFBF;stroke:#696969;stroke-width:2;stroke-miterlimit:10;" d="    M218.3,474.6c-5.2,11.3,1.7,7.5,2.9,16.4c0.7,4.9-2,13.4,1.6,17.7c25.8,1.8,51.5,4,77.2,5.7c46.5,3.2,93.8,6.2,140.4,2.9    c12.6-0.9,25.2-2.4,37.6-4.6c16.1-2.9,24.6,0.4,24.9-17c0.4-24.8,1.6-48-0.4-72.9c-8-98.6-12.1-197.5-13.5-296.5    c-0.2-10.9-0.8-22.1-3.9-29c-1.4-3.2-4.6,0.5-5-2.3c-1-6.2-4.3-7.7,2.2-13.9c-9.9-2-22.5-4.8-25.3,3.6c-0.1-6.9-2.6-7.5-5.9-12.7    c-4.6,3.8-8.9,4.8-15.8,4.7c9.5,16.4-12.7,10.2-16,14.3c-1.7,2.1,2.5,13.1,1.9,17c-0.1,0.6-7.5,2.4-8,4.2c-1.5,5,2.7,10.4,0,16    c0.7-2.3-8.8-11.7-6.9-42.8c-1.1,0.9-2.2,1.9-3.2,2.8c-7.6-3.1-19.4-42.5-19.5-21.8c-17.1-11.8-8.8,18.6-25.9,6.5    c-0.7,3-8.4,37.7-8.4,37.7c0.6,3,1.1,6.3,2.2,12.9c12.9,2.5,11,20.9-4.1,16.7c1.3,7-2.1,13.3-7.9,14.8c-1.1,14.6,9.5,28.9,6,32.5    c-16.9-2.8-16.3,2.2-18.1,24.9c0,0-1.7,0.2-3,0.7c6.1,4.2,7.6,6.4,3.1,12.8c5.7,0,1.3,14.3-2.2,29.2c-1,4.2-6.9,21.3-8.7,25.5    c-5.3,13.1-7.1,2.8-12.4,11.3c-1.6,2.6-4.1,6.2-5.5,14.5c-0.4,2.3-4.9,17.6-16.1,16.6c-12.1-1.1-15.4-5.5-23.5-4.1    c-4.6,0.8-9.6,14.5-9.3,14.7c6.5,3.7,12.6,28.7,3.4,40.8c-6.9,9-17.4,24.7-32,32.9c0,0,18,6.7,15.5,17.9    C234.1,436.1,221.4,467.9,218.3,474.6z"/>
	</a>
</g>
<g id="comarques_A_corunya">
	<a xlink:href="Betanzos">
		<path style="fill:#BFBFBF;stroke:#696969;stroke-width:2;stroke-miterlimit:10;" d="M32.3,504.6c63.6,0.4,127-0.4,190.5,4.1    c-7.5-24.9-3.6-39.6,7.2-64.5c9.4-21.4,10.3-28.9-8.8-36.5c-0.6-0.2-13.4,6.8-20.4,9.5c4.4-15.9-12.5-8.4-19.9-11.2    c-7-2.6-8.3-7.5-15.3-7c2.2-4,0.6-6,2.5-10c-5.2-0.5-21.6-9.6-21.5-16.5c0.4-21.6-15.9-8-21-23.2c30.9,3.4,13.4-23.2,6.5-18.3    c-4.4,3.1-14.5,5-20.6,7.1c-6.8,2.2-9.7,8.2-19,4.5c5.1-6,8.2-14.3-1.2-13.9c-2.9-13.6-16.1,10.6-16.3,16.8    c-0.1,6.3,0.4,12.2-1.9,13.6c4.4,2.2,8.9,7.2,10.8,13.3c-2.1-0.9-4.3-1.2-6.3-2.2c2.5,7.1,4.6,7.9,3.6,15.7    c-0.3,2.3-2,8.8-4.2,11.3c-2.4,2.7-8.3-0.6-9.5,1.3c-7.1,10.5,4.9,12.5-10.4,18.8c6.1-2.5-27.4-9.1-10.6,2.2    c2.7,1.8,4.1,6.9,7.2,9.4c4.3,3.6,5.4,5.1,15.9,8.5c-7.1,6.2-6.5,5.7-4.1,11.6c-2.1,4.8-2.2,8.2-1,13.3c7.4-1.9,9.8,11.1,4.6,12.5    c-2.7,0.7-29.8-14.8-16.7,8.7C42.3,484.8,37,504.7,32.3,504.6C72.5,504.9,32.1,504.6,32.3,504.6z"/>
	</a>
	<path style="fill:#BFBFBF;stroke:#696969;stroke-width:2;stroke-miterlimit:10;" d="M84.3,372.5C85.6,375,85.6,375,84.3,372.5   L84.3,372.5z"/>
	<a xlink:href="Manon">
		<path style="fill:#FFFBF0;stroke:#9A9A9A;stroke-width:2;stroke-miterlimit:10;" d="M339.4,62.6c0,0,2,3.3,1.3,8s8.3,19.7,3,24.7    s-7.7,3.7-7.7,10.7s-34.4,97.6-34.4,97.6l26.1,12.4c0,0-0.7-30.3,10-28s11.7-3,7.7-8.7s-6-24.1-6-24.1s9.6-2.5,9.3-13.5    c0,0,10.3,0.3,11.3-7.3s-7.7-11.7-7.7-11.7l-2.3-12l3.7-18.7c0,0,3.3-21.7,7.3-22s-2.3-6.7,1.3-11s3.3-13.3,9.3-13.7    s4.7-5.7,0.7-8.7s-5.7-2.7-9.3,1.7S339.4,62.6,339.4,62.6"/>
	</a>
	<a xlink:href="Ferrol">
		<path style="fill-rule:evenodd;clip-rule:evenodd;fill:#BFBFBF;stroke:#696969;stroke-width:2;stroke-miterlimit:10;" d="    M222.5,76.1c0,0-5.7,14.7-4.6,16s5,3.3,6.1,6.1s10.4,0.6,9.7,2.6s-1.2,3.3-1.2,3.3l-17.6,4.6c0,0-1.9,1.1,0,2.6s4.8,4.1,2.8,6.6    s-0.6,9.7,6,13.3s7.1,15.6,7.1,15.6l-18.5,0.1c0,0-20.5-4.4-22-2.5s0.3,5-1.2,6.6s-5.9,6.5-10.8,6.9s-7.6,0.6-7.6,0.6    s-4.3,9.1,4,12.2s24.9,8.7,34.6,9.3s24,0.9,24,0.9s2.9,18.4,7,18.3s6.1-8.4,6.1-8.4l13.6-1.7c0,0,9.8,2.5,7.9,3s-10.4,6.6-10,14.8    l0,0l11.6,1.2c0,0-7.2,10.5-2.8,15.1s9.5,17.2,2.8,20.8s-14.7,0.9-20.2-3.2l0,0c0,0-4.7,9.7-8.6,13.8s-16,13-24.1,12.9    s-12.2,1.4-12.2,1.4l-15.5,0.7c0,0-11.1-6.2-15.4-5.5s-37.9,10.8-37.9,10.8s-15.6,10-17.3,11.7s-2.7,2.2-5.2,1.6    s-12.7-2.6-12.7-2.6l-8.6,21.4c0,0-5.7-2.5-8.2-0.7s-5,4.6-6.8,2.6s-10.1-8.6-12.7-4.1s-0.1,7.6-5.3,5.4s-11.9-13-20.2-13.4    s-5.3,2.8-9.7-0.8s-6.4-4.1-4.3-5.8s-5.9-5,5.8-5.9s29.5-4.4,40.7-3.3s19.8-3,27.4-12.4s6.4-26.4,2.1-20.5s-14,16.7-22.1,17.4    s-22.7,3.9-20.1-1.5s0.7-11.2-3.2-5.8s-4,15.8-7.9,16.5s-12.3,3.9-19.8,0.6s-6.2-3.5-9.7,0.8s-15.6,6.8-12.3,0.3    s18.1-19.2,15.1-23.9s-8.7-18.5-2.6-19.8s14.8,2.5,13.1-7.3s-18.4-19.1-13.8-22.1s5.9-5.1,15.5,4.6s14.7,3.3,24.3-3.6    s31-27.9,31-31.4s2.8-9.4,8.2-8.7s13.1,6.2,9.3,8.6s1.4,10.1,2.5,3.9s-1.5-13.3,2.8-16s25.9-11.3,26.3-18.4s5.5-12.3,7.2-8.3    s-1.9,11.1,1.9,12.2s27.5,8.3,20.9,3.9s-12.6-10.9-6.8-10.1s8.2-7.7,3.3-7.7s-18.3-31.3-1-37.2s21.7,2.1,27.8,0.4    S222.5,76.1,222.5,76.1"/>
	</a>
	<a xlink:href="A Coruna">
		<path style="fill:#BFBFBF;stroke:#696969;stroke-width:2;stroke-miterlimit:10;" d="M-7.6,366.6c0,0,12.1-0.4,11.9-6.7    s1.7-12.5,3-17.2s-0.6-4.3-4.7-4.7s3-10.6,8.8-12.1s18.1,0,20.5,8s8,3.2,12.1,2.2s15.3,18.1,12.3,23.9s3.7,5.6,5.6,5    s18.5,11,18.5,11s3.4,9.7-0.4,16.4s-1.9,7.3-8.2,5.8s-6.9,5-6.5,8s0.9,8.8-6.7,10.6c0,0-10.1-4.3-13.8-3.4s-2.2,2.2,1.7,5.4    s3.9,8.4,8.2,11s14.9,7.6,14.9,7.6s-6.7,3.8-5.4,7.3S66,450,66,450l-1.7,8l-82.1,5.4L-7.6,366.6z"/>
	</a>
</g>
<g id="o_eume_x2C__ortegal">
	<a xlink:href="As Pontes de Garcia Rodriguez">
		<path style="fill-rule:evenodd;clip-rule:evenodd;fill:#FFFBF0;stroke:#9A9A9A;stroke-width:2;stroke-miterlimit:10;" d="    M324.2,213.2c7,4.1,7.6,6.4,3.1,12.8c12.1-1.6-10.8,52.5-12.4,57.4c-2.4,7.7-7.2,3.9-9,6.2c-10,12.4-3.7,13-10.8,25.6    c-8,14.2-21.7,6.3-33.5,3.9c-9.5-1.9-9.8,16.3-15,19.2c0,0-43.6,11-48,2.7c-8.9-16.8-11.2-24.3-11.2-24.3c0.4-2.4,1.6-5.3,4.9-7    c14.8-7.8-1.3-46.1,20.1-42.5c14.7,2.4,36.7-16.2,35.5-27c7,3.3,14.6,9.6,22.5,2.8c4.7-4.1,1.5-14.1-1.2-16.2    c-5.4-4.3-4.6-10.7-0.8-16.4c4.2-6.2,16.4,2.4,11.2-11.7C287.3,194.7,318.8,210,324.2,213.2z"/>
	</a>
	<a xlink:href="Monfero">
		<path style="fill-rule:evenodd;clip-rule:evenodd;fill:#FFFBF0;stroke:#9A9A9A;stroke-width:2;stroke-miterlimit:10;" d="    M161.4,315.7c0.2-0.3,2.5,5.2,2.9,5.3l23.5-3c6.5,7.7,4.9,18.1,12.6,24.2c7.3,5.7,37.7-5.9,46.3-3.7c3.4,0.9,3-9.5,7.9,0.4    c2.7,5.6,4.8,18.3,3.2,24.1c-7.3,26.2-32.9,45.1-56.8,54.3c4.4-15.9-12.5-8.4-19.9-11.2c-7-2.6-8.3-7.5-15.3-7c2.2-4,0.6-6,2.5-10    c-5.2-0.5-21.6-9.6-21.5-16.5c0.4-21.6-15.9-8-21-23.2c34.4-0.4,2.3-9.2,11.3-35.3C137,314,154.7,315.4,161.4,315.7z"/>
	</a>
	<a xlink:href="Pontedeume">
		<path style="fill-rule:evenodd;clip-rule:evenodd;fill:#FFFBF0;stroke:#9A9A9A;stroke-width:2;stroke-miterlimit:10;" d="    M109.4,312.9c-17.7,3.4-44.6,5.5-33.8,29.2c3.9-3.7,13.5-27.2,16.5-13.4c9.5-0.4,6.3,7.9,1.2,13.9c10.1,4,13.6-3,21.3-5.2    c6.8-1.9,16-2.8,21.6-6.8c-4.9-12.3,9.7-20.5-10.9-25.1C120.2,304.4,114.1,306.5,109.4,312.9"/>
	</a>
	<a xlink:href="Cerdido">
		<path style="fill-rule:evenodd;clip-rule:evenodd;fill:#FFFBF0;stroke:#9A9A9A;stroke-width:2;stroke-miterlimit:10;" d="    M170.4,158c6.3,3.2,21.4-4.6,18.9-10.2c-4.3-9.3,20.5-0.8,21.7-0.7c10.3,0.9,20.6-5.8,30.1,4.2c5,5.2,9.8,30.3,5.9,39.4    c-7.8,18.3-12.8,2.1-13.7-9.5C222,181.6,159.6,178.5,170.4,158L170.4,158z"/>
	</a>
	<a xlink:href="Carino">
		<path style="fill-rule:evenodd;clip-rule:evenodd;fill:#FFFBF0;stroke:#9A9A9A;stroke-width:2;stroke-miterlimit:10;" d="    M222.4,74c-0.8-1.6-2.3-2.8-2.6-5.4c16.7,2.1,17.4-8.6,25.7-21.1c6.3,7.3,15.4,2.6,18.9-3.2c8.9,9.9-0.2,20.3,0.5,24.9    c1.4,8.3,9.3,16.3,10,21.9c-2.2,0.9-7.6,1.9-10.3,1.8c-1.4-4.3-3.3-5.4-3.6-9.9c1.3,7.2,6.5,9.7-0.1,16.3    c1.4,3.9,4.2,9.4,0.2,12.4c-7.3,5.5-23.5-3.4-29.9-6.2c8.2-10.2-6-2-7.8-7.7c-1.1-3.4-4.4-3.9-5.3-6.5    C217.2,89.3,223.4,79,222.4,74L222.4,74z"/>
	</a>
	<a xlink:href="Ortigueira">
		<path style="fill-rule:evenodd;clip-rule:evenodd;fill:#FFFBF0;stroke:#9A9A9A;stroke-width:2;stroke-miterlimit:10;" d="    M340,61.6c0,0,1.3,8,0.7,10.3s7.7,17.7,4.7,21.3s-10,4-9.3,12.7l-33.4,97.6c0,0-12.4-4.9-23.1-4.9c0,0,4.5,9.3-5.5,9.6    s-16.3-0.3-16.3-0.3s0-12,8-14.3s-3.3-4.3-6.7-3.7s-12.1,0.6-12.1,0.6s5-41.9-15.9-45.8c0,0-1-9.2-7.3-13.5s-9-10.3-5.7-14    s-8.3-7.3-2.7-8.7s17.3-4,17.3-4s17.3,9.7,23.7,8.3s6.7-3.3,6.7-3.3l1.7,5c0,0,15,9.7,12.3,5.3s-10-7-10-7s-9-12-1.3-13.7    s13.3,1.7,20.3,4s14-1.3,8.7-3.3s-12.7-7-8-9.3s11.7-1.7,9.3-5.7s0-6,3.7-5.3s2-5.3,6-6.3s7,0.7,9.7-2S340,61.6,340,61.6z"/>
	</a>
	<a xlink:href="A Capela">
		<path style="fill-rule:evenodd;clip-rule:evenodd;fill:#FFFBF0;stroke:#9A9A9A;stroke-width:2;stroke-miterlimit:10;" d="    M135.7,274.9c0,0,34.7-12.5,41.2-10.4s7.2,5,11,5.1s15.8-0.6,15.8-0.6s-3.7,6.7-3.7,13.7s0.3,22-4.7,24.7s-9,11-9,11l-22.3,3    l-2.6-5.6l-9-0.6L135.7,274.9z"/>
	</a>
	<a xlink:href="Cabanas">
		<path style="fill-rule:evenodd;clip-rule:evenodd;fill:#FFFBF0;stroke:#9A9A9A;stroke-width:2;stroke-miterlimit:10;" d="    M91.7,306.6c0,0,4-22.3,10.3-21s13,4.7,16.3,1s17.3-11.7,17.3-11.7l16.7,40.2l-15.7-0.2c0,0,0.4-7.8-9.3-9c0,0-15-1-18,8l-12.3,1    C97,314.9,98,307.9,91.7,306.6z"/>
	</a>
</g>
<g id="bl">
	<rect x="70.4" y="319.9" style="opacity:0.6;fill:#FFFBF0;" width="51" height="9.5"/>
	<rect x="319.8" y="171.5" style="opacity:0.6;fill:#FFFBF0;" width="35" height="7.5"/>
</g>
<g id="text_comarques">
	<g>
		<rect x="120.3" y="201.8" style="fill-rule:evenodd;clip-rule:evenodd;fill:none;" width="76.9" height="26.8"/>
		<path style="fill:#1A171B;" d="M144.8,210.3h-1.9l-0.5-1.5h-2.7l-0.5,1.5h-1.9l2.7-7.3h2.2L144.8,210.3z M142.7,200.3L142.7,200.3    l-1.7,1.9h-1.2l1.2-1.9H142.7z M141.9,207.5l-0.9-2.6l-0.9,2.6H141.9z"/>
		<path style="fill:#1A171B;" d="M149.7,206.5h-0.2c-0.1,0-0.2,0-0.4-0.1s-0.3,0-0.4,0c-0.3,0-0.5,0-0.7,0c-0.2,0-0.4,0.1-0.6,0.2    v3.7h-1.8v-5.5h1.8v0.8c0.4-0.3,0.7-0.6,1-0.7c0.3-0.1,0.5-0.2,0.8-0.2c0.1,0,0.1,0,0.2,0c0.1,0,0.1,0,0.2,0V206.5z"/>
		<path style="fill:#1A171B;" d="M156.1,207.9h-4c0,0.4,0.2,0.8,0.5,1c0.3,0.2,0.7,0.3,1.3,0.3c0.4,0,0.7-0.1,1.1-0.2    s0.6-0.3,0.8-0.4h0.2v1.4c-0.4,0.2-0.8,0.3-1.1,0.3s-0.7,0.1-1.2,0.1c-1.1,0-1.9-0.2-2.5-0.7s-0.9-1.2-0.9-2.1    c0-0.9,0.3-1.6,0.8-2.2c0.6-0.5,1.3-0.8,2.3-0.8c0.9,0,1.6,0.2,2,0.7s0.7,1.1,0.7,1.9V207.9z M154.4,206.8c0-0.4-0.1-0.6-0.3-0.8    s-0.4-0.3-0.8-0.3c-0.3,0-0.6,0.1-0.8,0.3s-0.3,0.5-0.4,0.8H154.4z"/>
		<path style="fill:#1A171B;" d="M160.7,209.7c-0.1,0.1-0.2,0.2-0.4,0.3s-0.3,0.2-0.4,0.2c-0.2,0.1-0.4,0.1-0.5,0.2    s-0.4,0.1-0.6,0.1c-0.5,0-1-0.2-1.3-0.5s-0.5-0.7-0.5-1.2c0-0.4,0.1-0.7,0.3-1s0.4-0.5,0.8-0.6c0.3-0.1,0.7-0.3,1.2-0.3    s1-0.1,1.5-0.1v0c0-0.3-0.1-0.5-0.4-0.6s-0.6-0.2-1.1-0.2c-0.3,0-0.6,0.1-0.9,0.2s-0.6,0.2-0.7,0.2h-0.2v-1.3    c0.2,0,0.5-0.1,0.9-0.2c0.4-0.1,0.8-0.1,1.3-0.1c1,0,1.7,0.2,2.2,0.5c0.4,0.3,0.7,0.8,0.7,1.4v3.7h-1.7V209.7z M160.7,208.9v-1.1    c-0.2,0-0.5,0-0.8,0.1c-0.3,0-0.5,0.1-0.6,0.1c-0.2,0.1-0.3,0.1-0.4,0.2c-0.1,0.1-0.1,0.2-0.1,0.4c0,0.1,0,0.2,0,0.3    c0,0.1,0.1,0.1,0.1,0.2c0.1,0.1,0.2,0.1,0.3,0.1s0.3,0,0.5,0c0.2,0,0.4,0,0.5-0.1C160.4,209.1,160.6,209,160.7,208.9z"/>
		<path style="fill:#1A171B;" d="M172.8,210.3H171v-0.6c-0.3,0.2-0.6,0.4-0.8,0.5s-0.6,0.2-0.9,0.2c-0.7,0-1.2-0.3-1.6-0.8    c-0.4-0.5-0.6-1.2-0.6-2.1c0-0.5,0.1-0.9,0.2-1.2s0.3-0.7,0.6-0.9c0.2-0.2,0.5-0.4,0.8-0.6s0.6-0.2,0.9-0.2c0.3,0,0.6,0,0.8,0.1    c0.2,0.1,0.4,0.2,0.6,0.3v-2.3h1.8V210.3z M171,208.8v-2.7c-0.1-0.1-0.3-0.1-0.4-0.1s-0.3,0-0.4,0c-0.5,0-0.8,0.1-1,0.4    s-0.3,0.7-0.3,1.2c0,0.5,0.1,0.9,0.3,1.2c0.2,0.2,0.5,0.4,0.9,0.4c0.2,0,0.3,0,0.5-0.1C170.8,209,170.9,208.9,171,208.8z"/>
		<path style="fill:#1A171B;" d="M179.9,207.9h-4c0,0.4,0.2,0.8,0.5,1c0.3,0.2,0.7,0.3,1.3,0.3c0.4,0,0.7-0.1,1.1-0.2    s0.6-0.3,0.8-0.4h0.2v1.4c-0.4,0.2-0.8,0.3-1.1,0.3s-0.7,0.1-1.2,0.1c-1.1,0-1.9-0.2-2.5-0.7s-0.9-1.2-0.9-2.1    c0-0.9,0.3-1.6,0.8-2.2c0.6-0.5,1.3-0.8,2.3-0.8c0.9,0,1.6,0.2,2,0.7s0.7,1.1,0.7,1.9V207.9z M178.1,206.8c0-0.4-0.1-0.6-0.3-0.8    s-0.4-0.3-0.8-0.3c-0.3,0-0.6,0.1-0.8,0.3s-0.3,0.5-0.4,0.8H178.1z"/>
		<path style="fill:#1A171B;" d="M148.2,215.4h-3.3v1.4h3.1v1.4h-3.1v3.1H143V214h5.2V215.4z"/>
		<path style="fill:#1A171B;" d="M154.8,218.9h-4c0,0.4,0.2,0.8,0.5,1c0.3,0.2,0.7,0.3,1.3,0.3c0.4,0,0.7-0.1,1.1-0.2    s0.6-0.3,0.8-0.4h0.2v1.4c-0.4,0.2-0.8,0.3-1.1,0.3s-0.7,0.1-1.2,0.1c-1.1,0-1.9-0.2-2.5-0.7s-0.9-1.2-0.9-2.1    c0-0.9,0.3-1.6,0.8-2.2c0.6-0.5,1.3-0.8,2.3-0.8c0.9,0,1.6,0.2,2,0.7s0.7,1.1,0.7,1.9V218.9z M153,217.9c0-0.4-0.1-0.6-0.3-0.8    s-0.4-0.3-0.8-0.3c-0.3,0-0.6,0.1-0.8,0.3s-0.3,0.5-0.4,0.8H153z"/>
		<path style="fill:#1A171B;" d="M160,217.5h-0.2c-0.1,0-0.2,0-0.4-0.1s-0.3,0-0.4,0c-0.3,0-0.5,0-0.7,0c-0.2,0-0.4,0.1-0.6,0.2v3.7    H156v-5.5h1.8v0.8c0.4-0.3,0.7-0.6,1-0.7c0.3-0.1,0.5-0.2,0.8-0.2c0.1,0,0.1,0,0.2,0c0.1,0,0.1,0,0.2,0V217.5z"/>
		<path style="fill:#1A171B;" d="M165,217.5h-0.2c-0.1,0-0.2,0-0.4-0.1s-0.3,0-0.4,0c-0.3,0-0.5,0-0.7,0c-0.2,0-0.4,0.1-0.6,0.2v3.7    H161v-5.5h1.8v0.8c0.4-0.3,0.7-0.6,1-0.7c0.3-0.1,0.5-0.2,0.8-0.2c0.1,0,0.1,0,0.2,0c0.1,0,0.1,0,0.2,0V217.5z"/>
		<path style="fill:#1A171B;" d="M171.6,218.6c0,0.9-0.3,1.6-0.8,2.1c-0.5,0.5-1.3,0.8-2.2,0.8s-1.7-0.3-2.2-0.8    c-0.5-0.5-0.8-1.2-0.8-2.1c0-0.9,0.3-1.6,0.8-2.1c0.5-0.5,1.3-0.8,2.2-0.8c1,0,1.7,0.3,2.2,0.8    C171.3,216.9,171.6,217.7,171.6,218.6z M169.4,219.9c0.1-0.1,0.2-0.3,0.3-0.5c0.1-0.2,0.1-0.5,0.1-0.8c0-0.3,0-0.6-0.1-0.8    s-0.1-0.4-0.2-0.5c-0.1-0.1-0.2-0.2-0.4-0.3s-0.3-0.1-0.5-0.1s-0.3,0-0.5,0.1c-0.1,0-0.3,0.1-0.4,0.3c-0.1,0.1-0.2,0.3-0.3,0.5    c-0.1,0.2-0.1,0.5-0.1,0.8c0,0.3,0,0.6,0.1,0.8s0.1,0.4,0.2,0.5c0.1,0.1,0.2,0.2,0.4,0.3c0.1,0.1,0.3,0.1,0.5,0.1    c0.2,0,0.3,0,0.5-0.1C169.2,220.1,169.3,220,169.4,219.9z"/>
		<path style="fill:#1A171B;" d="M174.6,221.3h-1.8v-7.6h1.8V221.3z"/>
	</g>
	<g>
		<rect x="93.8" y="404.6" style="fill-rule:evenodd;clip-rule:evenodd;fill:none;" width="90.3" height="25.2"/>
		<path style="fill:#1A171B;" d="M125,413.1h-1.9l-0.5-1.5h-2.7l-0.5,1.5h-1.9l2.7-7.3h2.2L125,413.1z M122.9,403.1L122.9,403.1    l-1.7,1.9H120l1.2-1.9H122.9z M122.1,410.3l-0.9-2.6l-0.9,2.6H122.1z"/>
		<path style="fill:#1A171B;" d="M129.9,409.3h-0.2c-0.1,0-0.2,0-0.4-0.1s-0.3,0-0.4,0c-0.3,0-0.5,0-0.7,0c-0.2,0-0.4,0.1-0.6,0.2    v3.7h-1.8v-5.5h1.8v0.8c0.4-0.3,0.7-0.6,1-0.7c0.3-0.1,0.5-0.2,0.8-0.2c0.1,0,0.1,0,0.2,0c0.1,0,0.1,0,0.2,0V409.3z"/>
		<path style="fill:#1A171B;" d="M136.3,410.7h-4c0,0.4,0.2,0.8,0.5,1c0.3,0.2,0.7,0.3,1.3,0.3c0.4,0,0.7-0.1,1.1-0.2    s0.6-0.3,0.8-0.4h0.2v1.4c-0.4,0.2-0.8,0.3-1.1,0.3s-0.7,0.1-1.2,0.1c-1.1,0-1.9-0.2-2.5-0.7s-0.9-1.2-0.9-2.1    c0-0.9,0.3-1.6,0.8-2.2c0.6-0.5,1.3-0.8,2.3-0.8c0.9,0,1.6,0.2,2,0.7c0.4,0.5,0.7,1.1,0.7,1.9V410.7z M134.6,409.7    c0-0.4-0.1-0.6-0.3-0.8s-0.4-0.3-0.8-0.3c-0.3,0-0.6,0.1-0.8,0.3s-0.3,0.5-0.4,0.8H134.6z"/>
		<path style="fill:#1A171B;" d="M140.9,412.6c-0.1,0.1-0.2,0.2-0.4,0.3s-0.3,0.2-0.4,0.2c-0.2,0.1-0.4,0.1-0.5,0.2    c-0.2,0-0.4,0.1-0.6,0.1c-0.5,0-1-0.2-1.3-0.5s-0.5-0.7-0.5-1.2c0-0.4,0.1-0.7,0.3-1s0.4-0.5,0.8-0.6c0.3-0.1,0.7-0.3,1.2-0.3    s1-0.1,1.5-0.1v0c0-0.3-0.1-0.5-0.4-0.6c-0.2-0.1-0.6-0.2-1.1-0.2c-0.3,0-0.6,0.1-0.9,0.2c-0.3,0.1-0.6,0.2-0.7,0.2h-0.2v-1.3    c0.2,0,0.5-0.1,0.9-0.2c0.4-0.1,0.8-0.1,1.3-0.1c1,0,1.7,0.2,2.2,0.5c0.4,0.3,0.7,0.8,0.7,1.4v3.7h-1.7V412.6z M140.9,411.7v-1.1    c-0.2,0-0.5,0-0.8,0.1c-0.3,0-0.5,0.1-0.6,0.1c-0.2,0.1-0.3,0.1-0.4,0.2c-0.1,0.1-0.1,0.2-0.1,0.4c0,0.1,0,0.2,0,0.3    c0,0.1,0.1,0.1,0.1,0.2c0.1,0.1,0.2,0.1,0.3,0.1c0.1,0,0.3,0,0.5,0c0.2,0,0.4,0,0.5-0.1C140.6,411.9,140.7,411.8,140.9,411.7z"/>
		<path style="fill:#1A171B;" d="M153,413.1h-1.8v-0.6c-0.3,0.2-0.6,0.4-0.8,0.5s-0.6,0.2-0.9,0.2c-0.7,0-1.2-0.3-1.6-0.8    c-0.4-0.5-0.6-1.2-0.6-2.1c0-0.5,0.1-0.9,0.2-1.2c0.1-0.4,0.3-0.7,0.6-0.9c0.2-0.2,0.5-0.4,0.8-0.6c0.3-0.1,0.6-0.2,0.9-0.2    c0.3,0,0.6,0,0.8,0.1c0.2,0.1,0.4,0.2,0.6,0.3v-2.3h1.8V413.1z M151.2,411.6v-2.7c-0.1-0.1-0.3-0.1-0.4-0.1s-0.3,0-0.4,0    c-0.5,0-0.8,0.1-1,0.4s-0.3,0.7-0.3,1.2c0,0.5,0.1,0.9,0.3,1.2c0.2,0.2,0.5,0.4,0.9,0.4c0.2,0,0.3,0,0.5-0.1    S151.1,411.7,151.2,411.6z"/>
		<path style="fill:#1A171B;" d="M160,410.7h-4c0,0.4,0.2,0.8,0.5,1c0.3,0.2,0.7,0.3,1.3,0.3c0.4,0,0.7-0.1,1.1-0.2s0.6-0.3,0.8-0.4    h0.2v1.4c-0.4,0.2-0.8,0.3-1.1,0.3s-0.7,0.1-1.2,0.1c-1.1,0-1.9-0.2-2.5-0.7s-0.9-1.2-0.9-2.1c0-0.9,0.3-1.6,0.8-2.2    c0.6-0.5,1.3-0.8,2.3-0.8c0.9,0,1.6,0.2,2,0.7c0.4,0.5,0.7,1.1,0.7,1.9V410.7z M158.3,409.7c0-0.4-0.1-0.6-0.3-0.8    s-0.4-0.3-0.8-0.3c-0.3,0-0.6,0.1-0.8,0.3s-0.3,0.5-0.4,0.8H158.3z"/>
		<path style="fill:#1A171B;" d="M120.4,421.9c0,0.4-0.1,0.7-0.2,0.9c-0.1,0.3-0.3,0.5-0.6,0.7c-0.3,0.2-0.6,0.4-0.9,0.5    c-0.3,0.1-0.8,0.1-1.3,0.1h-3.2v-7.3h2.8c0.6,0,1,0,1.3,0.1c0.3,0,0.5,0.1,0.8,0.3c0.3,0.1,0.5,0.3,0.6,0.6    c0.1,0.2,0.2,0.5,0.2,0.8c0,0.4-0.1,0.7-0.3,0.9s-0.4,0.5-0.8,0.6v0c0.5,0.1,0.9,0.3,1.1,0.6C120.2,421,120.4,421.4,120.4,421.9z     M118,418.9c0-0.1,0-0.2-0.1-0.4c-0.1-0.1-0.2-0.2-0.3-0.3c-0.1-0.1-0.3-0.1-0.5-0.1c-0.2,0-0.5,0-0.9,0H116v1.5h0.3    c0.3,0,0.5,0,0.8,0s0.4,0,0.5-0.1c0.2-0.1,0.3-0.2,0.3-0.3S118,419.1,118,418.9z M118.4,421.9c0-0.2,0-0.4-0.1-0.5    c-0.1-0.1-0.2-0.2-0.5-0.3c-0.1,0-0.3-0.1-0.6-0.1c-0.3,0-0.5,0-0.8,0H116v1.8h0.1c0.5,0,0.9,0,1.1,0c0.2,0,0.4,0,0.6-0.1    c0.2-0.1,0.3-0.2,0.4-0.3S118.4,422.1,118.4,421.9z"/>
		<path style="fill:#1A171B;" d="M127.1,421.7h-4c0,0.4,0.2,0.8,0.5,1c0.3,0.2,0.7,0.3,1.3,0.3c0.4,0,0.7-0.1,1.1-0.2    c0.3-0.1,0.6-0.3,0.8-0.4h0.2v1.4c-0.4,0.2-0.8,0.3-1.1,0.3c-0.4,0.1-0.7,0.1-1.2,0.1c-1.1,0-1.9-0.2-2.5-0.7    c-0.6-0.5-0.9-1.2-0.9-2.1c0-0.9,0.3-1.6,0.8-2.2c0.6-0.5,1.3-0.8,2.3-0.8c0.9,0,1.6,0.2,2,0.7s0.7,1.1,0.7,1.9V421.7z     M125.3,420.7c0-0.4-0.1-0.6-0.3-0.8s-0.4-0.3-0.8-0.3c-0.3,0-0.6,0.1-0.8,0.3s-0.3,0.5-0.4,0.8H125.3z"/>
		<path style="fill:#1A171B;" d="M131.8,424.1c-0.2,0-0.4,0.1-0.6,0.1c-0.2,0-0.5,0-0.8,0c-0.7,0-1.2-0.1-1.5-0.4    c-0.3-0.3-0.5-0.8-0.5-1.4v-2.6h-0.7v-1.2h0.7v-1.6h1.8v1.6h1.6v1.2h-1.6v1.9c0,0.2,0,0.4,0,0.5c0,0.1,0,0.3,0.1,0.4    c0,0.1,0.1,0.2,0.2,0.3c0.1,0.1,0.3,0.1,0.5,0.1c0.1,0,0.2,0,0.4-0.1s0.3-0.1,0.3-0.1h0.1V424.1z"/>
		<path style="fill:#1A171B;" d="M136.2,423.6c-0.1,0.1-0.2,0.2-0.4,0.3c-0.1,0.1-0.3,0.2-0.4,0.2c-0.2,0.1-0.4,0.1-0.5,0.2    s-0.4,0.1-0.6,0.1c-0.5,0-1-0.2-1.3-0.5s-0.5-0.7-0.5-1.2c0-0.4,0.1-0.7,0.3-1s0.4-0.5,0.8-0.6c0.3-0.1,0.7-0.3,1.2-0.3    c0.5-0.1,1-0.1,1.5-0.1v0c0-0.3-0.1-0.5-0.4-0.6s-0.6-0.2-1.1-0.2c-0.3,0-0.6,0.1-0.9,0.2s-0.6,0.2-0.7,0.2h-0.2v-1.3    c0.2,0,0.5-0.1,0.9-0.2c0.4-0.1,0.8-0.1,1.3-0.1c1,0,1.7,0.2,2.2,0.5c0.4,0.3,0.7,0.8,0.7,1.4v3.7h-1.7V423.6z M136.2,422.7v-1.1    c-0.2,0-0.5,0-0.8,0.1s-0.5,0.1-0.6,0.1c-0.2,0.1-0.3,0.1-0.4,0.2c-0.1,0.1-0.1,0.2-0.1,0.4c0,0.1,0,0.2,0,0.3    c0,0.1,0.1,0.1,0.1,0.2c0.1,0.1,0.2,0.1,0.3,0.1s0.3,0,0.5,0c0.2,0,0.4,0,0.5-0.1C135.9,422.9,136,422.8,136.2,422.7z"/>
		<path style="fill:#1A171B;" d="M145,424.1h-1.8v-2.7c0-0.2,0-0.4,0-0.7s-0.1-0.4-0.1-0.5c-0.1-0.1-0.2-0.2-0.3-0.3    c-0.1-0.1-0.3-0.1-0.5-0.1c-0.2,0-0.3,0-0.5,0.1c-0.2,0.1-0.3,0.1-0.5,0.3v3.9h-1.8v-5.5h1.8v0.6c0.3-0.2,0.6-0.4,0.9-0.6    c0.3-0.1,0.6-0.2,1-0.2c0.6,0,1.1,0.2,1.4,0.5c0.3,0.3,0.5,0.9,0.5,1.5V424.1z"/>
		<path style="fill:#1A171B;" d="M151.4,424.1h-5.2V423l2.9-3.1h-2.8v-1.3h5v1.1l-2.8,3.1h2.9V424.1z"/>
		<path style="fill:#1A171B;" d="M158.2,421.4c0,0.9-0.3,1.6-0.8,2.1c-0.5,0.5-1.3,0.8-2.2,0.8s-1.7-0.3-2.2-0.8    c-0.5-0.5-0.8-1.2-0.8-2.1c0-0.9,0.3-1.6,0.8-2.1c0.5-0.5,1.3-0.8,2.2-0.8c1,0,1.7,0.3,2.2,0.8C158,419.8,158.2,420.5,158.2,421.4    z M156.1,422.7c0.1-0.1,0.2-0.3,0.3-0.5c0.1-0.2,0.1-0.5,0.1-0.8c0-0.3,0-0.6-0.1-0.8c-0.1-0.2-0.1-0.4-0.2-0.5    c-0.1-0.1-0.2-0.2-0.4-0.3c-0.1-0.1-0.3-0.1-0.5-0.1s-0.3,0-0.5,0.1c-0.1,0-0.3,0.1-0.4,0.3c-0.1,0.1-0.2,0.3-0.3,0.5    c-0.1,0.2-0.1,0.5-0.1,0.8c0,0.3,0,0.6,0.1,0.8s0.1,0.4,0.2,0.5c0.1,0.1,0.2,0.2,0.4,0.3c0.1,0.1,0.3,0.1,0.5,0.1    c0.2,0,0.3,0,0.5-0.1C155.8,423,156,422.9,156.1,422.7z"/>
		<path style="fill:#1A171B;" d="M164.3,422.4c0,0.6-0.3,1-0.8,1.4s-1.2,0.5-2.1,0.5c-0.5,0-0.9,0-1.3-0.1c-0.4-0.1-0.7-0.2-1-0.3    v-1.4h0.2c0.1,0.1,0.2,0.1,0.3,0.2c0.1,0.1,0.3,0.2,0.5,0.2c0.2,0.1,0.4,0.1,0.6,0.2s0.5,0.1,0.7,0.1c0.3,0,0.6,0,0.8-0.1    s0.2-0.2,0.2-0.3c0-0.1,0-0.2-0.1-0.3s-0.3-0.1-0.6-0.2c-0.1,0-0.3-0.1-0.5-0.1c-0.2,0-0.4-0.1-0.6-0.1c-0.5-0.1-0.9-0.3-1.1-0.6    s-0.4-0.6-0.4-1c0-0.5,0.3-1,0.8-1.3c0.5-0.4,1.2-0.5,2-0.5c0.4,0,0.8,0,1.2,0.1c0.4,0.1,0.7,0.2,0.9,0.3v1.4h-0.2    c-0.3-0.2-0.6-0.3-0.9-0.4c-0.3-0.1-0.7-0.2-1-0.2c-0.3,0-0.5,0-0.7,0.1c-0.2,0.1-0.3,0.2-0.3,0.3c0,0.1,0,0.2,0.1,0.3    s0.3,0.1,0.6,0.2c0.2,0,0.4,0.1,0.6,0.1c0.2,0,0.4,0.1,0.6,0.1c0.5,0.1,0.8,0.3,1,0.6S164.3,422,164.3,422.4z"/>
	</g>
	<g>
		<rect x="8" y="375" style="fill-rule:evenodd;clip-rule:evenodd;fill:none;" width="52.2" height="29.6"/>
		<path style="fill:#1A171B;" d="M20.2,383.5h-1.9l-0.5-1.5h-2.7l-0.5,1.5h-1.9l2.7-7.3h2.2L20.2,383.5z M18.1,373.5L18.1,373.5    l-1.7,1.9h-1.2l1.2-1.9H18.1z M17.4,380.7l-0.9-2.6l-0.9,2.6H17.4z"/>
		<path style="fill:#1A171B;" d="M25.2,379.7H25c-0.1,0-0.2,0-0.4-0.1s-0.3,0-0.4,0c-0.3,0-0.5,0-0.7,0c-0.2,0-0.4,0.1-0.6,0.2v3.7    h-1.8V378H23v0.8c0.4-0.3,0.7-0.6,1-0.7c0.3-0.1,0.5-0.2,0.8-0.2c0.1,0,0.1,0,0.2,0c0.1,0,0.1,0,0.2,0V379.7z"/>
		<path style="fill:#1A171B;" d="M31.6,381.1h-4c0,0.4,0.2,0.8,0.5,1c0.3,0.2,0.7,0.3,1.3,0.3c0.4,0,0.7-0.1,1.1-0.2    s0.6-0.3,0.8-0.4h0.2v1.4c-0.4,0.2-0.8,0.3-1.1,0.3s-0.7,0.1-1.2,0.1c-1.1,0-1.9-0.2-2.5-0.7s-0.9-1.2-0.9-2.1    c0-0.9,0.3-1.6,0.8-2.2c0.6-0.5,1.3-0.8,2.3-0.8c0.9,0,1.6,0.2,2,0.7c0.4,0.5,0.7,1.1,0.7,1.9V381.1z M29.8,380    c0-0.4-0.1-0.6-0.3-0.8s-0.4-0.3-0.8-0.3c-0.3,0-0.6,0.1-0.8,0.3s-0.3,0.5-0.4,0.8H29.8z"/>
		<path style="fill:#1A171B;" d="M36.1,382.9c-0.1,0.1-0.2,0.2-0.4,0.3s-0.3,0.2-0.4,0.2c-0.2,0.1-0.4,0.1-0.5,0.2    c-0.2,0-0.4,0.1-0.6,0.1c-0.5,0-1-0.2-1.3-0.5s-0.5-0.7-0.5-1.2c0-0.4,0.1-0.7,0.3-1s0.4-0.5,0.8-0.6c0.3-0.1,0.7-0.3,1.2-0.3    s1-0.1,1.5-0.1v0c0-0.3-0.1-0.5-0.4-0.6c-0.2-0.1-0.6-0.2-1.1-0.2c-0.3,0-0.6,0.1-0.9,0.2c-0.3,0.1-0.6,0.2-0.7,0.2h-0.2v-1.3    c0.2,0,0.5-0.1,0.9-0.2c0.4-0.1,0.8-0.1,1.3-0.1c1,0,1.7,0.2,2.2,0.5c0.4,0.3,0.7,0.8,0.7,1.4v3.7h-1.7V382.9z M36.1,382.1v-1.1    c-0.2,0-0.5,0-0.8,0.1c-0.3,0-0.5,0.1-0.6,0.1c-0.2,0.1-0.3,0.1-0.4,0.2c-0.1,0.1-0.1,0.2-0.1,0.4c0,0.1,0,0.2,0,0.3    c0,0.1,0.1,0.1,0.1,0.2c0.1,0.1,0.2,0.1,0.3,0.1c0.1,0,0.3,0,0.5,0c0.2,0,0.4,0,0.5-0.1C35.8,382.3,36,382.2,36.1,382.1z"/>
		<path style="fill:#1A171B;" d="M48.2,383.5h-1.8v-0.6c-0.3,0.2-0.6,0.4-0.8,0.5s-0.6,0.2-0.9,0.2c-0.7,0-1.2-0.3-1.6-0.8    c-0.4-0.5-0.6-1.2-0.6-2.1c0-0.5,0.1-0.9,0.2-1.2c0.1-0.4,0.3-0.7,0.6-0.9c0.2-0.2,0.5-0.4,0.8-0.6c0.3-0.1,0.6-0.2,0.9-0.2    c0.3,0,0.6,0,0.8,0.1c0.2,0.1,0.4,0.2,0.6,0.3v-2.3h1.8V383.5z M46.5,382v-2.7c-0.1-0.1-0.3-0.1-0.4-0.1s-0.3,0-0.4,0    c-0.5,0-0.8,0.1-1,0.4s-0.3,0.7-0.3,1.2c0,0.5,0.1,0.9,0.3,1.2c0.2,0.2,0.5,0.4,0.9,0.4c0.2,0,0.3,0,0.5-0.1S46.3,382.1,46.5,382z    "/>
		<path style="fill:#1A171B;" d="M55.3,381.1h-4c0,0.4,0.2,0.8,0.5,1c0.3,0.2,0.7,0.3,1.3,0.3c0.4,0,0.7-0.1,1.1-0.2    s0.6-0.3,0.8-0.4h0.2v1.4c-0.4,0.2-0.8,0.3-1.1,0.3s-0.7,0.1-1.2,0.1c-1.1,0-1.9-0.2-2.5-0.7s-0.9-1.2-0.9-2.1    c0-0.9,0.3-1.6,0.8-2.2c0.6-0.5,1.3-0.8,2.3-0.8c0.9,0,1.6,0.2,2,0.7c0.4,0.5,0.7,1.1,0.7,1.9V381.1z M53.5,380    c0-0.4-0.1-0.6-0.3-0.8s-0.4-0.3-0.8-0.3c-0.3,0-0.6,0.1-0.8,0.3s-0.3,0.5-0.4,0.8H53.5z"/>
		<path style="fill:#1A171B;" d="M16.2,394.5h-1.9l-0.5-1.5h-2.7l-0.5,1.5H8.7l2.7-7.3h2.2L16.2,394.5z M13.3,391.7l-0.9-2.6    l-0.9,2.6H13.3z"/>
		<path style="fill:#1A171B;" d="M24,394.6c-0.5,0-1-0.1-1.5-0.2c-0.5-0.2-0.9-0.4-1.2-0.7c-0.3-0.3-0.6-0.7-0.8-1.2    c-0.2-0.5-0.3-1-0.3-1.6c0-0.6,0.1-1.1,0.3-1.6s0.4-0.9,0.8-1.2c0.3-0.3,0.7-0.6,1.2-0.7c0.5-0.2,1-0.3,1.5-0.3    c0.3,0,0.6,0,0.8,0.1c0.2,0,0.5,0.1,0.7,0.1c0.2,0.1,0.4,0.1,0.6,0.2c0.2,0.1,0.3,0.1,0.5,0.2v1.8h-0.2c-0.1-0.1-0.2-0.2-0.3-0.3    c-0.1-0.1-0.3-0.2-0.5-0.3c-0.2-0.1-0.4-0.2-0.6-0.3s-0.4-0.1-0.7-0.1c-0.3,0-0.5,0-0.8,0.1s-0.5,0.2-0.7,0.4    c-0.2,0.2-0.3,0.4-0.5,0.7c-0.1,0.3-0.2,0.7-0.2,1.1c0,0.5,0.1,0.8,0.2,1.1c0.1,0.3,0.3,0.5,0.5,0.7c0.2,0.2,0.4,0.3,0.7,0.4    c0.2,0.1,0.5,0.1,0.7,0.1c0.2,0,0.5,0,0.7-0.1c0.2-0.1,0.4-0.2,0.6-0.3c0.2-0.1,0.3-0.2,0.4-0.3s0.2-0.2,0.3-0.3h0.2v1.7    c-0.2,0.1-0.4,0.2-0.5,0.2c-0.2,0.1-0.3,0.1-0.5,0.2c-0.2,0.1-0.5,0.1-0.7,0.2C24.6,394.6,24.3,394.6,24,394.6z"/>
		<path style="fill:#1A171B;" d="M33.4,391.8c0,0.9-0.3,1.6-0.8,2.1c-0.5,0.5-1.3,0.8-2.2,0.8s-1.7-0.3-2.2-0.8    c-0.5-0.5-0.8-1.2-0.8-2.1c0-0.9,0.3-1.6,0.8-2.1c0.5-0.5,1.3-0.8,2.2-0.8c1,0,1.7,0.3,2.2,0.8C33.2,390.1,33.4,390.9,33.4,391.8z     M31.3,393.1c0.1-0.1,0.2-0.3,0.3-0.5c0.1-0.2,0.1-0.5,0.1-0.8c0-0.3,0-0.6-0.1-0.8c-0.1-0.2-0.1-0.4-0.2-0.5    c-0.1-0.1-0.2-0.2-0.4-0.3c-0.1-0.1-0.3-0.1-0.5-0.1s-0.3,0-0.5,0.1c-0.1,0-0.3,0.1-0.4,0.3c-0.1,0.1-0.2,0.3-0.3,0.5    c-0.1,0.2-0.1,0.5-0.1,0.8c0,0.3,0,0.6,0.1,0.8s0.1,0.4,0.2,0.5c0.1,0.1,0.2,0.2,0.4,0.3c0.1,0.1,0.3,0.1,0.5,0.1    c0.2,0,0.3,0,0.5-0.1C31,393.3,31.2,393.2,31.3,393.1z"/>
		<path style="fill:#1A171B;" d="M38.6,390.7h-0.2c-0.1,0-0.2,0-0.4-0.1c-0.2,0-0.3,0-0.4,0c-0.3,0-0.5,0-0.7,0    c-0.2,0-0.4,0.1-0.6,0.2v3.7h-1.8V389h1.8v0.8c0.4-0.3,0.7-0.6,1-0.7c0.3-0.1,0.5-0.2,0.8-0.2c0.1,0,0.1,0,0.2,0    c0.1,0,0.1,0,0.2,0V390.7z"/>
		<path style="fill:#1A171B;" d="M45.1,394.5h-1.8v-0.6c-0.3,0.2-0.6,0.4-0.9,0.6s-0.6,0.2-1,0.2c-0.6,0-1.1-0.2-1.4-0.5    c-0.3-0.3-0.5-0.9-0.5-1.5V389h1.8v2.7c0,0.3,0,0.5,0,0.7c0,0.2,0.1,0.3,0.1,0.5c0.1,0.1,0.2,0.2,0.3,0.3c0.1,0.1,0.3,0.1,0.5,0.1    c0.1,0,0.3,0,0.5-0.1c0.2-0.1,0.4-0.1,0.5-0.2V389h1.8V394.5z"/>
		<path style="fill:#1A171B;" d="M52.3,394.5h-1.8v-2.7c0-0.2,0-0.4,0-0.7s-0.1-0.4-0.1-0.5c-0.1-0.1-0.2-0.2-0.3-0.3    c-0.1-0.1-0.3-0.1-0.5-0.1c-0.2,0-0.3,0-0.5,0.1c-0.2,0.1-0.3,0.1-0.5,0.3v3.9h-1.8V389h1.8v0.6c0.3-0.2,0.6-0.4,0.9-0.6    c0.3-0.1,0.6-0.2,1-0.2c0.6,0,1.1,0.2,1.4,0.5c0.3,0.3,0.5,0.9,0.5,1.5V394.5z M51.7,386.6c0,0.5-0.2,1-0.4,1.2    c-0.2,0.3-0.6,0.4-1,0.4c-0.2,0-0.3,0-0.4-0.1c-0.1-0.1-0.3-0.1-0.4-0.2c-0.1-0.1-0.2-0.1-0.3-0.2c-0.1-0.1-0.2-0.1-0.3-0.1    c-0.2,0-0.3,0.1-0.3,0.2c-0.1,0.1-0.1,0.3-0.1,0.4h-1.1c0-0.5,0.2-0.9,0.4-1.2c0.3-0.3,0.6-0.4,1-0.4c0.2,0,0.3,0,0.4,0.1    s0.3,0.1,0.4,0.2c0.1,0.1,0.2,0.1,0.3,0.2s0.2,0.1,0.3,0.1c0.2,0,0.3-0.1,0.3-0.2c0.1-0.1,0.1-0.2,0.1-0.4H51.7z"/>
		<path style="fill:#1A171B;" d="M57.2,393.9c-0.1,0.1-0.2,0.2-0.4,0.3c-0.1,0.1-0.3,0.2-0.4,0.2c-0.2,0.1-0.4,0.1-0.5,0.2    s-0.4,0.1-0.6,0.1c-0.5,0-1-0.2-1.3-0.5s-0.5-0.7-0.5-1.2c0-0.4,0.1-0.7,0.3-1s0.4-0.5,0.8-0.6c0.3-0.1,0.7-0.3,1.2-0.3    c0.5-0.1,1-0.1,1.5-0.1v0c0-0.3-0.1-0.5-0.4-0.6s-0.6-0.2-1.1-0.2c-0.3,0-0.6,0.1-0.9,0.2s-0.6,0.2-0.7,0.2H54v-1.3    c0.2,0,0.5-0.1,0.9-0.2c0.4-0.1,0.8-0.1,1.3-0.1c1,0,1.7,0.2,2.2,0.5c0.4,0.3,0.7,0.8,0.7,1.4v3.7h-1.7V393.9z M57.2,393.1v-1.1    c-0.2,0-0.5,0-0.8,0.1s-0.5,0.1-0.6,0.1c-0.2,0.1-0.3,0.1-0.4,0.2c-0.1,0.1-0.1,0.2-0.1,0.4c0,0.1,0,0.2,0,0.3    c0,0.1,0.1,0.1,0.1,0.2c0.1,0.1,0.2,0.1,0.3,0.1s0.3,0,0.5,0c0.2,0,0.4,0,0.5-0.1C56.9,393.3,57.1,393.2,57.2,393.1z"/>
	</g>
</g>
<g id="text-municipis">
	<g>
		<rect x="223.2" y="266.1" style="fill-rule:evenodd;clip-rule:evenodd;fill:none;" width="81.7" height="21"/>
		<path style="fill:#1A171B;" d="M239.9,274.6h-1l-0.7-2h-3l-0.7,2h-0.9l2.5-7.3h1.2L239.9,274.6z M238,271.8l-1.2-3.6l-1.2,3.6H238    z"/>
		<path style="fill:#1A171B;" d="M244.6,273.1c0,0.5-0.2,0.9-0.6,1.2c-0.4,0.3-0.9,0.5-1.6,0.5c-0.4,0-0.7,0-1-0.1    c-0.3-0.1-0.6-0.2-0.8-0.3v-1h0c0.3,0.2,0.6,0.4,0.9,0.5c0.3,0.1,0.7,0.2,1,0.2c0.4,0,0.7-0.1,0.9-0.2c0.2-0.1,0.3-0.3,0.3-0.6    c0-0.2-0.1-0.4-0.2-0.5s-0.3-0.2-0.7-0.3c-0.1,0-0.3-0.1-0.5-0.1c-0.2,0-0.4-0.1-0.5-0.1c-0.5-0.1-0.8-0.3-1-0.6    c-0.2-0.2-0.3-0.5-0.3-0.9c0-0.2,0-0.4,0.1-0.6s0.2-0.4,0.4-0.5c0.2-0.2,0.4-0.3,0.7-0.4c0.3-0.1,0.6-0.1,0.9-0.1    c0.3,0,0.6,0,0.9,0.1c0.3,0.1,0.6,0.2,0.8,0.3v1h0c-0.2-0.2-0.5-0.3-0.8-0.4c-0.3-0.1-0.6-0.2-0.9-0.2c-0.3,0-0.6,0.1-0.8,0.2    c-0.2,0.1-0.3,0.3-0.3,0.6c0,0.2,0.1,0.4,0.2,0.5c0.1,0.1,0.3,0.2,0.6,0.3c0.2,0,0.3,0.1,0.5,0.1s0.4,0.1,0.5,0.1    c0.4,0.1,0.7,0.3,0.9,0.5C244.5,272.3,244.6,272.7,244.6,273.1z"/>
		<path style="fill:#1A171B;" d="M253.7,269.6c0,0.3-0.1,0.6-0.2,0.9c-0.1,0.3-0.3,0.5-0.4,0.7c-0.2,0.3-0.5,0.4-0.8,0.6    c-0.3,0.1-0.7,0.2-1.2,0.2h-0.9v2.7h-0.9v-7.3h1.9c0.4,0,0.8,0,1,0.1c0.3,0.1,0.5,0.2,0.8,0.3c0.3,0.2,0.5,0.4,0.6,0.7    C253.6,268.8,253.7,269.1,253.7,269.6z M252.7,269.6c0-0.3,0-0.5-0.1-0.7s-0.2-0.3-0.4-0.5c-0.1-0.1-0.3-0.2-0.5-0.2    c-0.2,0-0.4-0.1-0.7-0.1h-0.9v2.9h0.8c0.4,0,0.7,0,0.9-0.1c0.2-0.1,0.4-0.2,0.6-0.3c0.1-0.2,0.2-0.3,0.3-0.5    C252.7,270,252.7,269.8,252.7,269.6z"/>
		<path style="fill:#1A171B;" d="M259,271.9c0,0.9-0.2,1.6-0.6,2.1s-1,0.8-1.7,0.8c-0.7,0-1.3-0.3-1.7-0.8s-0.6-1.2-0.6-2.1    s0.2-1.6,0.6-2.1c0.4-0.5,1-0.8,1.7-0.8c0.7,0,1.3,0.3,1.7,0.8C258.8,270.3,259,271,259,271.9z M258.1,271.9    c0-0.7-0.1-1.2-0.4-1.6c-0.3-0.3-0.6-0.5-1.1-0.5c-0.5,0-0.8,0.2-1.1,0.5c-0.3,0.3-0.4,0.9-0.4,1.6c0,0.7,0.1,1.2,0.4,1.6    c0.3,0.4,0.6,0.5,1.1,0.5c0.5,0,0.8-0.2,1.1-0.5C258,273.1,258.1,272.6,258.1,271.9z"/>
		<path style="fill:#1A171B;" d="M264.7,274.6h-0.9v-3.1c0-0.3,0-0.5,0-0.7c0-0.2-0.1-0.4-0.2-0.5c-0.1-0.1-0.2-0.2-0.3-0.3    c-0.1-0.1-0.3-0.1-0.6-0.1c-0.2,0-0.5,0.1-0.7,0.2c-0.3,0.1-0.5,0.3-0.7,0.5v4.1h-0.9v-5.5h0.9v0.6c0.3-0.2,0.6-0.4,0.8-0.6    s0.6-0.2,0.9-0.2c0.6,0,1,0.2,1.3,0.5c0.3,0.4,0.4,0.9,0.4,1.5V274.6z"/>
		<path style="fill:#1A171B;" d="M269,274.6c-0.2,0-0.3,0.1-0.5,0.1s-0.4,0-0.5,0c-0.5,0-0.9-0.2-1.2-0.4c-0.3-0.3-0.4-0.8-0.4-1.4    v-2.9h-0.6v-0.8h0.6v-1.6h0.9v1.6h1.8v0.8h-1.8v2.5c0,0.3,0,0.5,0,0.7c0,0.2,0.1,0.3,0.1,0.5c0.1,0.1,0.2,0.2,0.3,0.3    c0.1,0.1,0.3,0.1,0.5,0.1c0.1,0,0.3,0,0.4-0.1c0.2,0,0.3-0.1,0.3-0.1h0V274.6z"/>
		<path style="fill:#1A171B;" d="M274.4,272h-3.8c0,0.3,0,0.6,0.1,0.9c0.1,0.3,0.2,0.5,0.4,0.6c0.2,0.2,0.4,0.3,0.6,0.4    s0.5,0.1,0.7,0.1c0.4,0,0.7-0.1,1.1-0.2c0.4-0.1,0.6-0.3,0.8-0.4h0v1c-0.3,0.1-0.6,0.2-0.9,0.3c-0.3,0.1-0.6,0.1-1,0.1    c-0.9,0-1.5-0.2-2-0.7c-0.5-0.5-0.7-1.2-0.7-2.1c0-0.9,0.2-1.6,0.7-2.1s1.1-0.8,1.8-0.8c0.7,0,1.2,0.2,1.6,0.6s0.6,1,0.6,1.8V272z     M273.6,271.3c0-0.5-0.1-0.9-0.3-1.1c-0.2-0.3-0.6-0.4-1-0.4c-0.5,0-0.8,0.1-1.1,0.4s-0.4,0.6-0.5,1.1H273.6z"/>
		<path style="fill:#1A171B;" d="M279.4,273.1c0,0.5-0.2,0.9-0.6,1.2c-0.4,0.3-0.9,0.5-1.6,0.5c-0.4,0-0.7,0-1-0.1    c-0.3-0.1-0.6-0.2-0.8-0.3v-1h0c0.3,0.2,0.6,0.4,0.9,0.5c0.3,0.1,0.7,0.2,1,0.2c0.4,0,0.7-0.1,0.9-0.2c0.2-0.1,0.3-0.3,0.3-0.6    c0-0.2-0.1-0.4-0.2-0.5s-0.3-0.2-0.7-0.3c-0.1,0-0.3-0.1-0.5-0.1c-0.2,0-0.4-0.1-0.5-0.1c-0.5-0.1-0.8-0.3-1-0.6    c-0.2-0.2-0.3-0.5-0.3-0.9c0-0.2,0-0.4,0.1-0.6s0.2-0.4,0.4-0.5c0.2-0.2,0.4-0.3,0.7-0.4c0.3-0.1,0.6-0.1,0.9-0.1    c0.3,0,0.6,0,0.9,0.1c0.3,0.1,0.6,0.2,0.8,0.3v1h0c-0.2-0.2-0.5-0.3-0.8-0.4c-0.3-0.1-0.6-0.2-0.9-0.2c-0.3,0-0.6,0.1-0.8,0.2    c-0.2,0.1-0.3,0.3-0.3,0.6c0,0.2,0.1,0.4,0.2,0.5c0.1,0.1,0.3,0.2,0.6,0.3c0.2,0,0.3,0.1,0.5,0.1s0.4,0.1,0.5,0.1    c0.4,0.1,0.7,0.3,0.9,0.5C279.3,272.3,279.4,272.7,279.4,273.1z"/>
		<path style="fill:#1A171B;" d="M288.1,274.6h-0.9v-0.6c-0.2,0.2-0.5,0.4-0.8,0.5s-0.6,0.2-0.9,0.2c-0.6,0-1.1-0.3-1.5-0.8    c-0.4-0.5-0.5-1.2-0.5-2.1c0-0.5,0.1-0.9,0.2-1.2c0.1-0.4,0.3-0.7,0.5-0.9c0.2-0.2,0.5-0.4,0.7-0.6s0.6-0.2,0.9-0.2    c0.3,0,0.5,0,0.7,0.1c0.2,0.1,0.4,0.2,0.7,0.3V267h0.9V274.6z M287.3,273.3v-3.1c-0.2-0.1-0.4-0.2-0.6-0.2s-0.4-0.1-0.6-0.1    c-0.5,0-0.9,0.2-1.1,0.5s-0.4,0.9-0.4,1.5c0,0.6,0.1,1.1,0.3,1.5c0.2,0.3,0.5,0.5,1,0.5c0.2,0,0.5-0.1,0.7-0.2    C286.8,273.6,287.1,273.5,287.3,273.3z"/>
		<path style="fill:#1A171B;" d="M294.2,272h-3.8c0,0.3,0,0.6,0.1,0.9c0.1,0.3,0.2,0.5,0.4,0.6c0.2,0.2,0.4,0.3,0.6,0.4    s0.5,0.1,0.7,0.1c0.4,0,0.7-0.1,1.1-0.2c0.4-0.1,0.6-0.3,0.8-0.4h0v1c-0.3,0.1-0.6,0.2-0.9,0.3c-0.3,0.1-0.6,0.1-1,0.1    c-0.9,0-1.5-0.2-2-0.7c-0.5-0.5-0.7-1.2-0.7-2.1c0-0.9,0.2-1.6,0.7-2.1s1.1-0.8,1.8-0.8c0.7,0,1.2,0.2,1.6,0.6s0.6,1,0.6,1.8V272z     M293.3,271.3c0-0.5-0.1-0.9-0.3-1.1c-0.2-0.3-0.6-0.4-1-0.4c-0.5,0-0.8,0.1-1.1,0.4s-0.4,0.6-0.5,1.1H293.3z"/>
		<path style="fill:#1A171B;" d="M230.4,284.1c-0.4,0.2-0.8,0.3-1.2,0.5c-0.4,0.1-0.9,0.2-1.3,0.2c-0.5,0-1-0.1-1.5-0.2    c-0.4-0.2-0.8-0.4-1.1-0.7c-0.3-0.3-0.6-0.7-0.7-1.2c-0.2-0.5-0.3-1-0.3-1.7c0-1.2,0.3-2.1,1-2.8c0.6-0.7,1.5-1,2.6-1    c0.4,0,0.8,0,1.2,0.1c0.4,0.1,0.8,0.3,1.3,0.5v1.1h-0.1c-0.1-0.1-0.2-0.2-0.4-0.3c-0.2-0.1-0.4-0.2-0.5-0.3    c-0.2-0.1-0.5-0.2-0.7-0.3c-0.3-0.1-0.6-0.1-0.9-0.1c-0.8,0-1.4,0.3-1.8,0.8c-0.4,0.5-0.7,1.2-0.7,2.1c0,0.9,0.2,1.7,0.7,2.2    c0.5,0.5,1.1,0.8,1.9,0.8c0.3,0,0.6,0,0.9-0.1s0.6-0.1,0.8-0.2v-1.8h-1.8V281h2.7V284.1z"/>
		<path style="fill:#1A171B;" d="M236,284.6h-0.9V284c-0.1,0.1-0.2,0.1-0.3,0.2c-0.1,0.1-0.3,0.2-0.4,0.2c-0.1,0.1-0.3,0.1-0.5,0.2    c-0.2,0-0.4,0.1-0.7,0.1c-0.5,0-0.9-0.2-1.2-0.5c-0.3-0.3-0.5-0.7-0.5-1.2c0-0.4,0.1-0.7,0.3-1c0.2-0.3,0.4-0.5,0.7-0.6    c0.3-0.1,0.7-0.2,1.1-0.3c0.4-0.1,0.9-0.1,1.4-0.1v-0.1c0-0.2,0-0.4-0.1-0.5c-0.1-0.1-0.2-0.2-0.3-0.3c-0.1-0.1-0.3-0.1-0.4-0.2    c-0.2,0-0.4,0-0.5,0c-0.2,0-0.5,0-0.8,0.1c-0.3,0.1-0.6,0.2-0.9,0.3h0v-0.9c0.2,0,0.4-0.1,0.7-0.2c0.3-0.1,0.6-0.1,0.9-0.1    c0.4,0,0.7,0,0.9,0.1c0.3,0.1,0.5,0.2,0.7,0.3c0.2,0.2,0.3,0.3,0.4,0.6s0.2,0.5,0.2,0.9V284.6z M235.1,283.3v-1.5    c-0.3,0-0.6,0-0.9,0.1s-0.6,0.1-0.9,0.1c-0.2,0.1-0.5,0.2-0.6,0.3c-0.2,0.2-0.2,0.4-0.2,0.7c0,0.3,0.1,0.5,0.3,0.7    c0.2,0.2,0.5,0.2,0.8,0.2c0.3,0,0.6-0.1,0.8-0.2C234.6,283.6,234.9,283.5,235.1,283.3z"/>
		<path style="fill:#1A171B;" d="M240.8,280.2L240.8,280.2c-0.2,0-0.3-0.1-0.4-0.1c-0.1,0-0.3,0-0.4,0c-0.3,0-0.5,0.1-0.8,0.2    c-0.3,0.1-0.5,0.3-0.7,0.5v3.9h-0.9v-5.5h0.9v0.8c0.3-0.3,0.6-0.5,0.9-0.6c0.3-0.1,0.5-0.2,0.8-0.2c0.2,0,0.3,0,0.3,0    c0.1,0,0.2,0,0.3,0V280.2z"/>
		<path style="fill:#1A171B;" d="M245.5,284.3c-0.3,0.1-0.6,0.3-0.8,0.3c-0.3,0.1-0.5,0.1-0.8,0.1c-0.4,0-0.7-0.1-1-0.2    c-0.3-0.1-0.6-0.3-0.8-0.5c-0.2-0.2-0.4-0.5-0.5-0.9s-0.2-0.8-0.2-1.3c0-0.9,0.2-1.6,0.7-2.1s1.1-0.8,1.8-0.8c0.3,0,0.6,0,0.9,0.1    s0.5,0.2,0.8,0.3v1h0c-0.3-0.2-0.5-0.4-0.8-0.5s-0.6-0.2-0.8-0.2c-0.5,0-0.9,0.2-1.2,0.5c-0.3,0.3-0.4,0.9-0.4,1.5    c0,0.7,0.1,1.2,0.4,1.5c0.3,0.4,0.7,0.5,1.2,0.5c0.2,0,0.4,0,0.5-0.1s0.3-0.1,0.5-0.2c0.1-0.1,0.2-0.1,0.4-0.2    c0.1-0.1,0.2-0.1,0.3-0.2h0V284.3z"/>
		<path style="fill:#1A171B;" d="M248.4,276.4l-1.3,1.8h-0.7l0.8-1.8H248.4z M247.5,284.6h-0.9v-5.5h0.9V284.6z"/>
		<path style="fill:#1A171B;" d="M253.2,284.6h-0.9V284c-0.1,0.1-0.2,0.1-0.3,0.2c-0.1,0.1-0.3,0.2-0.4,0.2    c-0.1,0.1-0.3,0.1-0.5,0.2c-0.2,0-0.4,0.1-0.7,0.1c-0.5,0-0.9-0.2-1.2-0.5c-0.3-0.3-0.5-0.7-0.5-1.2c0-0.4,0.1-0.7,0.3-1    c0.2-0.3,0.4-0.5,0.7-0.6c0.3-0.1,0.7-0.2,1.1-0.3c0.4-0.1,0.9-0.1,1.4-0.1v-0.1c0-0.2,0-0.4-0.1-0.5c-0.1-0.1-0.2-0.2-0.3-0.3    c-0.1-0.1-0.3-0.1-0.4-0.2c-0.2,0-0.4,0-0.5,0c-0.2,0-0.5,0-0.8,0.1c-0.3,0.1-0.6,0.2-0.9,0.3h0v-0.9c0.2,0,0.4-0.1,0.7-0.2    c0.3-0.1,0.6-0.1,0.9-0.1c0.4,0,0.7,0,0.9,0.1c0.3,0.1,0.5,0.2,0.7,0.3c0.2,0.2,0.3,0.3,0.4,0.6s0.2,0.5,0.2,0.9V284.6z     M252.3,283.3v-1.5c-0.3,0-0.6,0-0.9,0.1s-0.6,0.1-0.9,0.1c-0.2,0.1-0.5,0.2-0.6,0.3c-0.2,0.2-0.2,0.4-0.2,0.7    c0,0.3,0.1,0.5,0.3,0.7c0.2,0.2,0.5,0.2,0.8,0.2c0.3,0,0.6-0.1,0.8-0.2C251.9,283.6,252.1,283.5,252.3,283.3z"/>
		<path style="fill:#1A171B;" d="M263.9,284.6h-1.2l-2.3-2.9h-1.3v2.9h-0.9v-7.3h1.9c0.4,0,0.8,0,1,0.1c0.3,0.1,0.5,0.2,0.7,0.3    c0.2,0.2,0.4,0.4,0.6,0.6c0.1,0.3,0.2,0.6,0.2,1c0,0.5-0.1,1-0.4,1.3c-0.2,0.4-0.6,0.6-1,0.8L263.9,284.6z M261.8,279.4    c0-0.2,0-0.4-0.1-0.6c-0.1-0.2-0.2-0.3-0.3-0.4c-0.1-0.1-0.3-0.2-0.5-0.2c-0.2,0-0.4-0.1-0.6-0.1h-1.1v2.7h0.9    c0.3,0,0.5,0,0.8-0.1c0.2-0.1,0.4-0.2,0.5-0.3c0.1-0.1,0.2-0.3,0.3-0.5C261.8,279.9,261.8,279.7,261.8,279.4z"/>
		<path style="fill:#1A171B;" d="M269,281.9c0,0.9-0.2,1.6-0.6,2.1s-1,0.8-1.7,0.8c-0.7,0-1.3-0.3-1.7-0.8s-0.6-1.2-0.6-2.1    s0.2-1.6,0.6-2.1c0.4-0.5,1-0.8,1.7-0.8c0.7,0,1.3,0.3,1.7,0.8C268.7,280.3,269,281,269,281.9z M268.1,281.9    c0-0.7-0.1-1.2-0.4-1.6c-0.3-0.3-0.6-0.5-1.1-0.5c-0.5,0-0.8,0.2-1.1,0.5c-0.3,0.3-0.4,0.9-0.4,1.6c0,0.7,0.1,1.2,0.4,1.6    c0.3,0.4,0.6,0.5,1.1,0.5c0.5,0,0.8-0.2,1.1-0.5C267.9,283.1,268.1,282.6,268.1,281.9z"/>
		<path style="fill:#1A171B;" d="M274.5,284.6h-0.9v-0.6c-0.2,0.2-0.5,0.4-0.8,0.5s-0.6,0.2-0.9,0.2c-0.6,0-1.1-0.3-1.5-0.8    c-0.4-0.5-0.5-1.2-0.5-2.1c0-0.5,0.1-0.9,0.2-1.2c0.1-0.4,0.3-0.7,0.5-0.9c0.2-0.2,0.5-0.4,0.7-0.6s0.6-0.2,0.9-0.2    c0.3,0,0.5,0,0.7,0.1c0.2,0.1,0.4,0.2,0.7,0.3V277h0.9V284.6z M273.6,283.3v-3.1c-0.2-0.1-0.4-0.2-0.6-0.2s-0.4-0.1-0.6-0.1    c-0.5,0-0.9,0.2-1.1,0.5s-0.4,0.9-0.4,1.5c0,0.6,0.1,1.1,0.3,1.5c0.2,0.3,0.5,0.5,1,0.5c0.2,0,0.5-0.1,0.7-0.2    C273.2,283.6,273.4,283.5,273.6,283.3z"/>
		<path style="fill:#1A171B;" d="M279.4,280.2L279.4,280.2c-0.2,0-0.3-0.1-0.4-0.1c-0.1,0-0.3,0-0.4,0c-0.3,0-0.5,0.1-0.8,0.2    c-0.3,0.1-0.5,0.3-0.7,0.5v3.9h-0.9v-5.5h0.9v0.8c0.3-0.3,0.6-0.5,0.9-0.6c0.3-0.1,0.5-0.2,0.8-0.2c0.2,0,0.3,0,0.3,0    c0.1,0,0.2,0,0.3,0V280.2z"/>
		<path style="fill:#1A171B;" d="M282,276.4l-1.3,1.8h-0.7l0.8-1.8H282z M281.1,284.6h-0.9v-5.5h0.9V284.6z"/>
		<path style="fill:#1A171B;" d="M287,284c0,0.9-0.2,1.6-0.6,2c-0.4,0.4-1,0.6-1.8,0.6c-0.3,0-0.5,0-0.8-0.1c-0.3,0-0.5-0.1-0.8-0.2    v-0.9h0c0.1,0.1,0.4,0.1,0.7,0.2c0.3,0.1,0.6,0.1,0.9,0.1c0.3,0,0.5,0,0.7-0.1c0.2-0.1,0.3-0.2,0.5-0.3c0.1-0.1,0.2-0.3,0.2-0.5    s0.1-0.4,0.1-0.6v-0.5c-0.3,0.2-0.5,0.4-0.8,0.5c-0.2,0.1-0.5,0.2-0.9,0.2c-0.6,0-1.1-0.2-1.5-0.7c-0.4-0.5-0.5-1.1-0.5-2    c0-0.5,0.1-0.9,0.2-1.2c0.1-0.3,0.3-0.6,0.5-0.9c0.2-0.2,0.4-0.4,0.7-0.5c0.3-0.1,0.6-0.2,0.9-0.2c0.3,0,0.5,0,0.8,0.1    c0.2,0.1,0.4,0.2,0.6,0.3l0.1-0.2h0.8V284z M286.1,283.1v-3c-0.2-0.1-0.4-0.2-0.6-0.2c-0.2,0-0.4-0.1-0.6-0.1    c-0.5,0-0.9,0.2-1.1,0.5c-0.3,0.3-0.4,0.8-0.4,1.5c0,0.6,0.1,1.1,0.3,1.4s0.5,0.5,1,0.5c0.3,0,0.5-0.1,0.8-0.2    C285.7,283.4,285.9,283.3,286.1,283.1z"/>
		<path style="fill:#1A171B;" d="M293,284.6h-0.9V284c-0.3,0.2-0.6,0.4-0.8,0.6s-0.6,0.2-0.9,0.2c-0.5,0-1-0.2-1.3-0.5    c-0.3-0.4-0.5-0.9-0.5-1.5v-3.5h0.9v3.1c0,0.3,0,0.5,0,0.7c0,0.2,0.1,0.4,0.2,0.5c0.1,0.1,0.2,0.2,0.3,0.3    c0.1,0.1,0.3,0.1,0.6,0.1c0.2,0,0.5-0.1,0.7-0.2c0.3-0.1,0.5-0.3,0.7-0.5v-4.1h0.9V284.6z"/>
		<path style="fill:#1A171B;" d="M299,282h-3.8c0,0.3,0,0.6,0.1,0.9c0.1,0.3,0.2,0.5,0.4,0.6c0.2,0.2,0.4,0.3,0.6,0.4    s0.5,0.1,0.7,0.1c0.4,0,0.7-0.1,1.1-0.2c0.4-0.1,0.6-0.3,0.8-0.4h0v1c-0.3,0.1-0.6,0.2-0.9,0.3c-0.3,0.1-0.6,0.1-1,0.1    c-0.9,0-1.5-0.2-2-0.7c-0.5-0.5-0.7-1.2-0.7-2.1c0-0.9,0.2-1.6,0.7-2.1s1.1-0.8,1.8-0.8c0.7,0,1.2,0.2,1.6,0.6s0.6,1,0.6,1.8V282z     M298.1,281.3c0-0.5-0.1-0.9-0.3-1.1c-0.2-0.3-0.6-0.4-1-0.4c-0.5,0-0.8,0.1-1.1,0.4s-0.4,0.6-0.5,1.1H298.1z"/>
		<path style="fill:#1A171B;" d="M304,284.6h-4.2v-0.7l3-4h-2.9v-0.8h4v0.7l-3,4h3.1V284.6z"/>
	</g>
	<g>
		<rect x="150.5" y="284.1" style="fill-rule:evenodd;clip-rule:evenodd;fill:none;" width="42.9" height="11"/>
		<path style="fill:#1A171B;" d="M156.9,292.6h-1l-0.7-2h-3l-0.7,2h-0.9l2.5-7.3h1.2L156.9,292.6z M155,289.8l-1.2-3.6l-1.2,3.6H155    z"/>
		<path style="fill:#1A171B;" d="M166.6,292.1c-0.2,0.1-0.3,0.2-0.5,0.2c-0.1,0.1-0.3,0.1-0.5,0.2c-0.2,0.1-0.4,0.1-0.6,0.2    c-0.2,0-0.5,0.1-0.7,0.1c-0.5,0-1-0.1-1.4-0.2c-0.4-0.1-0.8-0.4-1.1-0.7c-0.3-0.3-0.5-0.7-0.7-1.2c-0.2-0.5-0.3-1-0.3-1.7    c0-0.6,0.1-1.1,0.2-1.6s0.4-0.9,0.7-1.2c0.3-0.3,0.6-0.6,1.1-0.7c0.4-0.2,0.9-0.2,1.4-0.2c0.4,0,0.7,0,1.1,0.1    c0.4,0.1,0.8,0.3,1.2,0.5v1.1h-0.1c-0.4-0.3-0.8-0.6-1.1-0.7s-0.8-0.2-1.2-0.2c-0.3,0-0.7,0.1-0.9,0.2c-0.3,0.1-0.5,0.3-0.7,0.6    c-0.2,0.2-0.4,0.6-0.5,0.9c-0.1,0.4-0.2,0.8-0.2,1.3c0,0.5,0.1,1,0.2,1.3c0.1,0.4,0.3,0.7,0.5,0.9c0.2,0.2,0.5,0.4,0.8,0.5    c0.3,0.1,0.6,0.2,0.9,0.2c0.4,0,0.9-0.1,1.2-0.2s0.7-0.4,1.1-0.7h0.1V292.1z"/>
		<path style="fill:#1A171B;" d="M171.8,292.6h-0.9V292c-0.1,0.1-0.2,0.1-0.3,0.2c-0.1,0.1-0.3,0.2-0.4,0.2    c-0.1,0.1-0.3,0.1-0.5,0.2c-0.2,0.1-0.4,0.1-0.7,0.1c-0.5,0-0.9-0.2-1.2-0.5c-0.3-0.3-0.5-0.7-0.5-1.2c0-0.4,0.1-0.7,0.3-1    c0.2-0.3,0.4-0.5,0.7-0.6c0.3-0.1,0.7-0.2,1.1-0.3c0.4-0.1,0.9-0.1,1.4-0.1v-0.1c0-0.2,0-0.4-0.1-0.5c-0.1-0.1-0.2-0.2-0.3-0.3    c-0.1-0.1-0.3-0.1-0.4-0.2c-0.2,0-0.4,0-0.5,0c-0.2,0-0.5,0-0.8,0.1c-0.3,0.1-0.6,0.2-0.9,0.3h0v-0.9c0.2,0,0.4-0.1,0.7-0.2    c0.3-0.1,0.6-0.1,0.9-0.1c0.4,0,0.7,0,0.9,0.1c0.3,0.1,0.5,0.2,0.7,0.3c0.2,0.1,0.3,0.3,0.4,0.6s0.2,0.5,0.2,0.9V292.6z     M170.9,291.3v-1.5c-0.3,0-0.6,0-0.9,0.1s-0.6,0.1-0.9,0.1c-0.2,0.1-0.5,0.2-0.6,0.3c-0.2,0.2-0.2,0.4-0.2,0.7    c0,0.3,0.1,0.5,0.3,0.7c0.2,0.2,0.5,0.2,0.8,0.2c0.3,0,0.6-0.1,0.8-0.2C170.5,291.6,170.7,291.5,170.9,291.3z"/>
		<path style="fill:#1A171B;" d="M178,289.8c0,0.4-0.1,0.8-0.2,1.2c-0.1,0.4-0.3,0.7-0.5,0.9c-0.2,0.2-0.4,0.4-0.7,0.6    c-0.3,0.1-0.6,0.2-0.9,0.2c-0.3,0-0.5,0-0.7-0.1c-0.2-0.1-0.4-0.2-0.7-0.3v2.3h-0.9v-7.5h0.9v0.6c0.2-0.2,0.5-0.4,0.8-0.5    c0.3-0.1,0.6-0.2,0.9-0.2c0.6,0,1.1,0.2,1.5,0.7C177.8,288.3,178,289,178,289.8z M177.1,289.9c0-0.7-0.1-1.1-0.3-1.5    c-0.2-0.3-0.5-0.5-1-0.5c-0.2,0-0.5,0.1-0.8,0.2c-0.3,0.1-0.5,0.3-0.7,0.4v3.1c0.2,0.1,0.5,0.2,0.6,0.2s0.4,0.1,0.6,0.1    c0.5,0,0.9-0.2,1.1-0.5C177,291,177.1,290.5,177.1,289.9z"/>
		<path style="fill:#1A171B;" d="M183.7,290h-3.8c0,0.3,0,0.6,0.1,0.9c0.1,0.2,0.2,0.5,0.4,0.6c0.2,0.2,0.4,0.3,0.6,0.4    s0.5,0.1,0.7,0.1c0.4,0,0.7-0.1,1.1-0.2c0.4-0.1,0.6-0.3,0.8-0.4h0v1c-0.3,0.1-0.6,0.2-0.9,0.3c-0.3,0.1-0.6,0.1-1,0.1    c-0.9,0-1.5-0.2-2-0.7c-0.5-0.5-0.7-1.2-0.7-2.1c0-0.9,0.2-1.6,0.7-2.1s1.1-0.8,1.8-0.8c0.7,0,1.2,0.2,1.6,0.6s0.6,1,0.6,1.8V290z     M182.8,289.3c0-0.5-0.1-0.9-0.3-1.1c-0.2-0.3-0.6-0.4-1-0.4c-0.5,0-0.8,0.1-1.1,0.4s-0.4,0.6-0.5,1.1H182.8z"/>
		<path style="fill:#1A171B;" d="M185.9,292.6H185V285h0.9V292.6z"/>
		<path style="fill:#1A171B;" d="M191.6,292.6h-0.9V292c-0.1,0.1-0.2,0.1-0.3,0.2c-0.1,0.1-0.3,0.2-0.4,0.2    c-0.1,0.1-0.3,0.1-0.5,0.2c-0.2,0.1-0.4,0.1-0.7,0.1c-0.5,0-0.9-0.2-1.2-0.5c-0.3-0.3-0.5-0.7-0.5-1.2c0-0.4,0.1-0.7,0.3-1    c0.2-0.3,0.4-0.5,0.7-0.6c0.3-0.1,0.7-0.2,1.1-0.3c0.4-0.1,0.9-0.1,1.4-0.1v-0.1c0-0.2,0-0.4-0.1-0.5c-0.1-0.1-0.2-0.2-0.3-0.3    c-0.1-0.1-0.3-0.1-0.4-0.2c-0.2,0-0.4,0-0.5,0c-0.2,0-0.5,0-0.8,0.1c-0.3,0.1-0.6,0.2-0.9,0.3h0v-0.9c0.2,0,0.4-0.1,0.7-0.2    c0.3-0.1,0.6-0.1,0.9-0.1c0.4,0,0.7,0,0.9,0.1c0.3,0.1,0.5,0.2,0.7,0.3c0.2,0.1,0.3,0.3,0.4,0.6s0.2,0.5,0.2,0.9V292.6z     M190.7,291.3v-1.5c-0.3,0-0.6,0-0.9,0.1s-0.6,0.1-0.9,0.1c-0.2,0.1-0.5,0.2-0.6,0.3c-0.2,0.2-0.2,0.4-0.2,0.7    c0,0.3,0.1,0.5,0.3,0.7c0.2,0.2,0.5,0.2,0.8,0.2c0.3,0,0.6-0.1,0.8-0.2C190.3,291.6,190.5,291.5,190.7,291.3z"/>
	</g>
	<g>
		<rect x="100.4" y="292.1" style="fill-rule:evenodd;clip-rule:evenodd;fill:none;" width="41.4" height="11"/>
		<path style="fill:#1A171B;" d="M106.6,300.1c-0.2,0.1-0.3,0.2-0.5,0.2c-0.1,0.1-0.3,0.1-0.5,0.2c-0.2,0.1-0.4,0.1-0.6,0.2    c-0.2,0-0.5,0.1-0.7,0.1c-0.5,0-1-0.1-1.4-0.2c-0.4-0.1-0.8-0.4-1.1-0.7c-0.3-0.3-0.5-0.7-0.7-1.2c-0.2-0.5-0.3-1-0.3-1.7    c0-0.6,0.1-1.1,0.2-1.6s0.4-0.9,0.7-1.2c0.3-0.3,0.6-0.6,1.1-0.7c0.4-0.2,0.9-0.2,1.4-0.2c0.4,0,0.7,0,1.1,0.1    c0.4,0.1,0.8,0.3,1.2,0.5v1.1h-0.1c-0.4-0.3-0.8-0.6-1.1-0.7s-0.8-0.2-1.2-0.2c-0.3,0-0.7,0.1-0.9,0.2c-0.3,0.1-0.5,0.3-0.7,0.6    c-0.2,0.2-0.4,0.6-0.5,0.9c-0.1,0.4-0.2,0.8-0.2,1.3c0,0.5,0.1,1,0.2,1.3c0.1,0.4,0.3,0.7,0.5,0.9c0.2,0.2,0.5,0.4,0.8,0.5    c0.3,0.1,0.6,0.2,0.9,0.2c0.4,0,0.9-0.1,1.2-0.2s0.7-0.4,1.1-0.7h0.1V300.1z"/>
		<path style="fill:#1A171B;" d="M111.8,300.6H111V300c-0.1,0.1-0.2,0.1-0.3,0.2c-0.1,0.1-0.3,0.2-0.4,0.2c-0.1,0.1-0.3,0.1-0.5,0.2    c-0.2,0-0.4,0.1-0.7,0.1c-0.5,0-0.9-0.2-1.2-0.5c-0.3-0.3-0.5-0.7-0.5-1.2c0-0.4,0.1-0.7,0.3-1c0.2-0.3,0.4-0.5,0.7-0.6    c0.3-0.1,0.7-0.2,1.1-0.3c0.4-0.1,0.9-0.1,1.4-0.1v-0.1c0-0.2,0-0.4-0.1-0.5c-0.1-0.1-0.2-0.2-0.3-0.3c-0.1-0.1-0.3-0.1-0.4-0.2    c-0.2,0-0.4,0-0.5,0c-0.2,0-0.5,0-0.8,0.1c-0.3,0.1-0.6,0.2-0.9,0.3h0v-0.9c0.2,0,0.4-0.1,0.7-0.2c0.3-0.1,0.6-0.1,0.9-0.1    c0.4,0,0.7,0,0.9,0.1c0.3,0.1,0.5,0.2,0.7,0.3c0.2,0.2,0.3,0.3,0.4,0.6s0.2,0.5,0.2,0.9V300.6z M111,299.3v-1.5    c-0.3,0-0.6,0-0.9,0.1s-0.6,0.1-0.9,0.1c-0.2,0.1-0.5,0.2-0.6,0.3c-0.2,0.2-0.2,0.4-0.2,0.7c0,0.3,0.1,0.5,0.3,0.7    c0.2,0.2,0.5,0.2,0.8,0.2c0.3,0,0.6-0.1,0.8-0.2C110.5,299.6,110.7,299.4,111,299.3z"/>
		<path style="fill:#1A171B;" d="M118,297.8c0,0.5-0.1,0.9-0.2,1.2c-0.1,0.4-0.3,0.7-0.5,0.9c-0.2,0.3-0.5,0.5-0.7,0.6    c-0.3,0.1-0.5,0.2-0.9,0.2c-0.3,0-0.5,0-0.8-0.1c-0.2-0.1-0.4-0.2-0.6-0.3l-0.1,0.3h-0.8V293h0.9v2.7c0.2-0.2,0.5-0.4,0.8-0.5    c0.3-0.1,0.6-0.2,0.9-0.2c0.6,0,1.1,0.2,1.4,0.7C117.8,296.2,118,296.9,118,297.8z M117.1,297.9c0-0.7-0.1-1.1-0.3-1.5    c-0.2-0.3-0.5-0.5-1-0.5c-0.3,0-0.5,0.1-0.8,0.2c-0.3,0.1-0.5,0.3-0.7,0.4v3.1c0.2,0.1,0.5,0.2,0.6,0.2s0.4,0.1,0.6,0.1    c0.5,0,0.9-0.2,1.1-0.5C117,299.1,117.1,298.6,117.1,297.9z"/>
		<path style="fill:#1A171B;" d="M123.4,300.6h-0.9V300c-0.1,0.1-0.2,0.1-0.3,0.2c-0.1,0.1-0.3,0.2-0.4,0.2    c-0.1,0.1-0.3,0.1-0.5,0.2c-0.2,0-0.4,0.1-0.7,0.1c-0.5,0-0.9-0.2-1.2-0.5c-0.3-0.3-0.5-0.7-0.5-1.2c0-0.4,0.1-0.7,0.3-1    c0.2-0.3,0.4-0.5,0.7-0.6c0.3-0.1,0.7-0.2,1.1-0.3c0.4-0.1,0.9-0.1,1.4-0.1v-0.1c0-0.2,0-0.4-0.1-0.5c-0.1-0.1-0.2-0.2-0.3-0.3    c-0.1-0.1-0.3-0.1-0.4-0.2c-0.2,0-0.4,0-0.5,0c-0.2,0-0.5,0-0.8,0.1c-0.3,0.1-0.6,0.2-0.9,0.3h0v-0.9c0.2,0,0.4-0.1,0.7-0.2    c0.3-0.1,0.6-0.1,0.9-0.1c0.4,0,0.7,0,0.9,0.1c0.3,0.1,0.5,0.2,0.7,0.3c0.2,0.2,0.3,0.3,0.4,0.6s0.2,0.5,0.2,0.9V300.6z     M122.5,299.3v-1.5c-0.3,0-0.6,0-0.9,0.1s-0.6,0.1-0.9,0.1c-0.2,0.1-0.5,0.2-0.6,0.3c-0.2,0.2-0.2,0.4-0.2,0.7    c0,0.3,0.1,0.5,0.3,0.7c0.2,0.2,0.5,0.2,0.8,0.2c0.3,0,0.6-0.1,0.8-0.2C122.1,299.6,122.3,299.4,122.5,299.3z"/>
		<path style="fill:#1A171B;" d="M129.4,300.6h-0.9v-3.1c0-0.3,0-0.5,0-0.7c0-0.2-0.1-0.4-0.2-0.5c-0.1-0.1-0.2-0.2-0.3-0.3    c-0.1-0.1-0.3-0.1-0.6-0.1c-0.2,0-0.5,0.1-0.7,0.2c-0.3,0.1-0.5,0.3-0.7,0.5v4.1H125v-5.5h0.9v0.6c0.3-0.2,0.6-0.4,0.8-0.6    s0.6-0.2,0.9-0.2c0.6,0,1,0.2,1.3,0.5c0.3,0.4,0.4,0.9,0.4,1.5V300.6z"/>
		<path style="fill:#1A171B;" d="M135,300.6h-0.9V300c-0.1,0.1-0.2,0.1-0.3,0.2c-0.1,0.1-0.3,0.2-0.4,0.2c-0.1,0.1-0.3,0.1-0.5,0.2    c-0.2,0-0.4,0.1-0.7,0.1c-0.5,0-0.9-0.2-1.2-0.5c-0.3-0.3-0.5-0.7-0.5-1.2c0-0.4,0.1-0.7,0.3-1c0.2-0.3,0.4-0.5,0.7-0.6    c0.3-0.1,0.7-0.2,1.1-0.3c0.4-0.1,0.9-0.1,1.4-0.1v-0.1c0-0.2,0-0.4-0.1-0.5c-0.1-0.1-0.2-0.2-0.3-0.3c-0.1-0.1-0.3-0.1-0.4-0.2    c-0.2,0-0.4,0-0.5,0c-0.2,0-0.5,0-0.8,0.1c-0.3,0.1-0.6,0.2-0.9,0.3h0v-0.9c0.2,0,0.4-0.1,0.7-0.2c0.3-0.1,0.6-0.1,0.9-0.1    c0.4,0,0.7,0,0.9,0.1c0.3,0.1,0.5,0.2,0.7,0.3c0.2,0.2,0.3,0.3,0.4,0.6s0.2,0.5,0.2,0.9V300.6z M134.2,299.3v-1.5    c-0.3,0-0.6,0-0.9,0.1s-0.6,0.1-0.9,0.1c-0.2,0.1-0.5,0.2-0.6,0.3c-0.2,0.2-0.2,0.4-0.2,0.7c0,0.3,0.1,0.5,0.3,0.7    c0.2,0.2,0.5,0.2,0.8,0.2c0.3,0,0.6-0.1,0.8-0.2C133.7,299.6,134,299.4,134.2,299.3z"/>
		<path style="fill:#1A171B;" d="M140.4,299c0,0.5-0.2,0.9-0.6,1.2c-0.4,0.3-0.9,0.5-1.6,0.5c-0.4,0-0.7,0-1-0.1    c-0.3-0.1-0.6-0.2-0.8-0.3v-1h0c0.3,0.2,0.6,0.4,0.9,0.5c0.3,0.1,0.7,0.2,1,0.2c0.4,0,0.7-0.1,0.9-0.2c0.2-0.1,0.3-0.3,0.3-0.6    c0-0.2-0.1-0.4-0.2-0.5s-0.3-0.2-0.7-0.3c-0.1,0-0.3-0.1-0.5-0.1c-0.2,0-0.4-0.1-0.5-0.1c-0.5-0.1-0.8-0.3-1-0.6    c-0.2-0.2-0.3-0.5-0.3-0.9c0-0.2,0-0.4,0.1-0.6s0.2-0.4,0.4-0.5c0.2-0.2,0.4-0.3,0.7-0.4c0.3-0.1,0.6-0.1,0.9-0.1    c0.3,0,0.6,0,0.9,0.1c0.3,0.1,0.6,0.2,0.8,0.3v1h0c-0.2-0.2-0.5-0.3-0.8-0.4c-0.3-0.1-0.6-0.2-0.9-0.2c-0.3,0-0.6,0.1-0.8,0.2    c-0.2,0.1-0.3,0.3-0.3,0.6c0,0.2,0.1,0.4,0.2,0.5c0.1,0.1,0.3,0.2,0.6,0.3c0.2,0,0.3,0.1,0.5,0.1s0.4,0.1,0.5,0.1    c0.4,0.1,0.7,0.3,0.9,0.5C140.3,298.3,140.4,298.6,140.4,299z"/>
	</g>
	<g>
		<rect x="70.7" y="318.6" style="fill-rule:evenodd;clip-rule:evenodd;fill:none;" width="59.9" height="11"/>
		<path style="fill:#1A171B;" d="M76.1,322c0,0.3-0.1,0.6-0.2,0.9c-0.1,0.3-0.3,0.5-0.4,0.7c-0.2,0.3-0.5,0.4-0.8,0.6    c-0.3,0.1-0.7,0.2-1.2,0.2h-0.9v2.7h-0.9v-7.3h1.9c0.4,0,0.8,0,1,0.1c0.3,0.1,0.5,0.2,0.8,0.3c0.3,0.2,0.5,0.4,0.6,0.7    C76.1,321.3,76.1,321.6,76.1,322z M75.2,322.1c0-0.3,0-0.5-0.1-0.7s-0.2-0.3-0.4-0.5c-0.1-0.1-0.3-0.2-0.5-0.2    c-0.2,0-0.4-0.1-0.7-0.1h-0.9v2.9h0.8c0.4,0,0.7,0,0.9-0.1c0.2-0.1,0.4-0.2,0.6-0.3c0.1-0.2,0.2-0.3,0.3-0.5    C75.2,322.5,75.2,322.3,75.2,322.1z"/>
		<path style="fill:#1A171B;" d="M81.5,324.4c0,0.9-0.2,1.6-0.6,2.1s-1,0.8-1.7,0.8c-0.7,0-1.3-0.3-1.7-0.8s-0.6-1.2-0.6-2.1    s0.2-1.6,0.6-2.1c0.4-0.5,1-0.8,1.7-0.8c0.7,0,1.3,0.3,1.7,0.8C81.3,322.8,81.5,323.5,81.5,324.4z M80.6,324.4    c0-0.7-0.1-1.2-0.4-1.6c-0.3-0.3-0.6-0.5-1.1-0.5c-0.5,0-0.8,0.2-1.1,0.5c-0.3,0.3-0.4,0.9-0.4,1.6c0,0.7,0.1,1.2,0.4,1.6    c0.3,0.4,0.6,0.5,1.1,0.5c0.5,0,0.8-0.2,1.1-0.5C80.5,325.6,80.6,325.1,80.6,324.4z"/>
		<path style="fill:#1A171B;" d="M87.1,327.1h-0.9V324c0-0.3,0-0.5,0-0.7c0-0.2-0.1-0.4-0.2-0.5c-0.1-0.1-0.2-0.2-0.3-0.3    c-0.1-0.1-0.3-0.1-0.6-0.1c-0.2,0-0.5,0.1-0.7,0.2c-0.3,0.1-0.5,0.3-0.7,0.5v4.1h-0.9v-5.5h0.9v0.6c0.3-0.2,0.6-0.4,0.8-0.6    s0.6-0.2,0.9-0.2c0.6,0,1,0.2,1.3,0.5c0.3,0.4,0.4,0.9,0.4,1.5V327.1z"/>
		<path style="fill:#1A171B;" d="M91.5,327.1c-0.2,0-0.3,0.1-0.5,0.1s-0.4,0-0.5,0c-0.5,0-0.9-0.2-1.2-0.4c-0.3-0.3-0.4-0.8-0.4-1.4    v-2.9h-0.6v-0.8h0.6v-1.6h0.9v1.6h1.8v0.8h-1.8v2.5c0,0.3,0,0.5,0,0.7c0,0.2,0.1,0.3,0.1,0.5c0.1,0.1,0.2,0.2,0.3,0.3    c0.1,0.1,0.3,0.1,0.5,0.1c0.1,0,0.3,0,0.4-0.1c0.2,0,0.3-0.1,0.3-0.1h0V327.1z"/>
		<path style="fill:#1A171B;" d="M96.8,324.5H93c0,0.3,0,0.6,0.1,0.9c0.1,0.3,0.2,0.5,0.4,0.6c0.2,0.2,0.4,0.3,0.6,0.4    s0.5,0.1,0.7,0.1c0.4,0,0.7-0.1,1.1-0.2c0.4-0.1,0.6-0.3,0.8-0.4h0v1c-0.3,0.1-0.6,0.2-0.9,0.3c-0.3,0.1-0.6,0.1-1,0.1    c-0.9,0-1.5-0.2-2-0.7c-0.5-0.5-0.7-1.2-0.7-2.1c0-0.9,0.2-1.6,0.7-2.1s1.1-0.8,1.8-0.8c0.7,0,1.2,0.2,1.6,0.6s0.6,1,0.6,1.8    V324.5z M96,323.8c0-0.5-0.1-0.9-0.3-1.1c-0.2-0.3-0.6-0.4-1-0.4c-0.5,0-0.8,0.1-1.1,0.4s-0.4,0.6-0.5,1.1H96z"/>
		<path style="fill:#1A171B;" d="M102.3,327.1h-0.9v-0.6c-0.2,0.2-0.5,0.4-0.8,0.5s-0.6,0.2-0.9,0.2c-0.6,0-1.1-0.3-1.5-0.8    c-0.4-0.5-0.5-1.2-0.5-2.1c0-0.5,0.1-0.9,0.2-1.2c0.1-0.4,0.3-0.7,0.5-0.9c0.2-0.2,0.5-0.4,0.7-0.6s0.6-0.2,0.9-0.2    c0.3,0,0.5,0,0.7,0.1c0.2,0.1,0.4,0.2,0.7,0.3v-2.4h0.9V327.1z M101.5,325.8v-3.1c-0.2-0.1-0.4-0.2-0.6-0.2s-0.4-0.1-0.6-0.1    c-0.5,0-0.9,0.2-1.1,0.5s-0.4,0.9-0.4,1.5c0,0.6,0.1,1.1,0.3,1.5c0.2,0.3,0.5,0.5,1,0.5c0.2,0,0.5-0.1,0.7-0.2    C101,326.1,101.3,325.9,101.5,325.8z"/>
		<path style="fill:#1A171B;" d="M108.4,324.5h-3.8c0,0.3,0,0.6,0.1,0.9c0.1,0.3,0.2,0.5,0.4,0.6c0.2,0.2,0.4,0.3,0.6,0.4    s0.5,0.1,0.7,0.1c0.4,0,0.7-0.1,1.1-0.2c0.4-0.1,0.6-0.3,0.8-0.4h0v1c-0.3,0.1-0.6,0.2-0.9,0.3c-0.3,0.1-0.6,0.1-1,0.1    c-0.9,0-1.5-0.2-2-0.7c-0.5-0.5-0.7-1.2-0.7-2.1c0-0.9,0.2-1.6,0.7-2.1s1.1-0.8,1.8-0.8c0.7,0,1.2,0.2,1.6,0.6s0.6,1,0.6,1.8    V324.5z M107.5,323.8c0-0.5-0.1-0.9-0.3-1.1c-0.2-0.3-0.6-0.4-1-0.4c-0.5,0-0.8,0.1-1.1,0.4s-0.4,0.6-0.5,1.1H107.5z"/>
		<path style="fill:#1A171B;" d="M114,327.1h-0.9v-0.6c-0.3,0.2-0.6,0.4-0.8,0.6s-0.6,0.2-0.9,0.2c-0.5,0-1-0.2-1.3-0.5    c-0.3-0.4-0.5-0.9-0.5-1.5v-3.5h0.9v3.1c0,0.3,0,0.5,0,0.7c0,0.2,0.1,0.4,0.2,0.5c0.1,0.1,0.2,0.2,0.3,0.3    c0.1,0.1,0.3,0.1,0.6,0.1c0.2,0,0.5-0.1,0.7-0.2c0.3-0.1,0.5-0.3,0.7-0.5v-4.1h0.9V327.1z"/>
		<path style="fill:#1A171B;" d="M123.2,327.1h-0.9V324c0-0.2,0-0.5,0-0.7c0-0.2-0.1-0.4-0.1-0.5c-0.1-0.1-0.2-0.2-0.3-0.3    c-0.1-0.1-0.3-0.1-0.6-0.1c-0.2,0-0.5,0.1-0.7,0.2c-0.2,0.1-0.5,0.3-0.7,0.5c0,0.1,0,0.2,0,0.3c0,0.1,0,0.2,0,0.3v3.5H119V324    c0-0.2,0-0.5,0-0.7c0-0.2-0.1-0.4-0.1-0.5c-0.1-0.1-0.2-0.2-0.3-0.3c-0.1-0.1-0.3-0.1-0.6-0.1c-0.2,0-0.5,0.1-0.7,0.2    c-0.2,0.1-0.5,0.3-0.7,0.5v4.1h-0.9v-5.5h0.9v0.6c0.3-0.2,0.5-0.4,0.8-0.6c0.3-0.1,0.6-0.2,0.9-0.2c0.4,0,0.6,0.1,0.9,0.2    c0.2,0.2,0.4,0.4,0.5,0.6c0.4-0.3,0.7-0.5,1-0.7c0.3-0.1,0.6-0.2,0.9-0.2c0.6,0,1,0.2,1.3,0.5c0.3,0.4,0.4,0.9,0.4,1.5V327.1z"/>
		<path style="fill:#1A171B;" d="M129.2,324.5h-3.8c0,0.3,0,0.6,0.1,0.9c0.1,0.3,0.2,0.5,0.4,0.6c0.2,0.2,0.4,0.3,0.6,0.4    s0.5,0.1,0.7,0.1c0.4,0,0.7-0.1,1.1-0.2c0.4-0.1,0.6-0.3,0.8-0.4h0v1c-0.3,0.1-0.6,0.2-0.9,0.3c-0.3,0.1-0.6,0.1-1,0.1    c-0.9,0-1.5-0.2-2-0.7c-0.5-0.5-0.7-1.2-0.7-2.1c0-0.9,0.2-1.6,0.7-2.1s1.1-0.8,1.8-0.8c0.7,0,1.2,0.2,1.6,0.6s0.6,1,0.6,1.8    V324.5z M128.3,323.8c0-0.5-0.1-0.9-0.3-1.1c-0.2-0.3-0.6-0.4-1-0.4c-0.5,0-0.8,0.1-1.1,0.4s-0.4,0.6-0.5,1.1H128.3z"/>
	</g>
	<g>
		<rect x="175.1" y="357" style="fill-rule:evenodd;clip-rule:evenodd;fill:none;" width="39.5" height="11"/>
		<path style="fill:#1A171B;" d="M182.2,365.5h-0.9v-6.3l-1.9,4.3h-0.5l-1.9-4.3v6.3h-0.9v-7.3h1.2l1.8,4l1.8-4h1.3V365.5z"/>
		<path style="fill:#1A171B;" d="M188.4,362.8c0,0.9-0.2,1.6-0.6,2.1s-1,0.8-1.7,0.8c-0.7,0-1.3-0.3-1.7-0.8s-0.6-1.2-0.6-2.1    s0.2-1.6,0.6-2.1c0.4-0.5,1-0.8,1.7-0.8c0.7,0,1.3,0.3,1.7,0.8C188.1,361.2,188.4,361.9,188.4,362.8z M187.5,362.8    c0-0.7-0.1-1.2-0.4-1.6c-0.3-0.3-0.6-0.5-1.1-0.5c-0.5,0-0.8,0.2-1.1,0.5c-0.3,0.3-0.4,0.9-0.4,1.6c0,0.7,0.1,1.2,0.4,1.6    c0.3,0.4,0.6,0.5,1.1,0.5c0.5,0,0.8-0.2,1.1-0.5C187.3,364,187.5,363.5,187.5,362.8z"/>
		<path style="fill:#1A171B;" d="M194,365.5h-0.9v-3.1c0-0.3,0-0.5,0-0.7c0-0.2-0.1-0.4-0.2-0.5c-0.1-0.1-0.2-0.2-0.3-0.3    c-0.1-0.1-0.3-0.1-0.6-0.1c-0.2,0-0.5,0.1-0.7,0.2c-0.3,0.1-0.5,0.3-0.7,0.5v4.1h-0.9V360h0.9v0.6c0.3-0.2,0.6-0.4,0.8-0.6    s0.6-0.2,0.9-0.2c0.6,0,1,0.2,1.3,0.5c0.3,0.4,0.4,0.9,0.4,1.5V365.5z"/>
		<path style="fill:#1A171B;" d="M198.5,358.8L198.5,358.8c-0.1,0-0.3-0.1-0.4-0.1c-0.2,0-0.3,0-0.4,0c-0.4,0-0.6,0.1-0.8,0.3    c-0.2,0.2-0.3,0.5-0.3,0.9v0.2h1.6v0.8h-1.5v4.7h-0.9v-4.7h-0.6V360h0.6v-0.2c0-0.6,0.2-1.1,0.5-1.5c0.3-0.3,0.7-0.5,1.3-0.5    c0.2,0,0.4,0,0.5,0s0.3,0,0.4,0.1V358.8z"/>
		<path style="fill:#1A171B;" d="M203.3,362.9h-3.8c0,0.3,0,0.6,0.1,0.9c0.1,0.2,0.2,0.5,0.4,0.6c0.2,0.2,0.4,0.3,0.6,0.4    s0.5,0.1,0.7,0.1c0.4,0,0.7-0.1,1.1-0.2c0.4-0.1,0.6-0.3,0.8-0.4h0v1c-0.3,0.1-0.6,0.2-0.9,0.3c-0.3,0.1-0.6,0.1-1,0.1    c-0.9,0-1.5-0.2-2-0.7c-0.5-0.5-0.7-1.2-0.7-2.1c0-0.9,0.2-1.6,0.7-2.1s1.1-0.8,1.8-0.8c0.7,0,1.2,0.2,1.6,0.6s0.6,1,0.6,1.8    V362.9z M202.5,362.2c0-0.5-0.1-0.9-0.3-1.1c-0.2-0.3-0.6-0.4-1-0.4c-0.5,0-0.8,0.1-1.1,0.4s-0.4,0.6-0.5,1.1H202.5z"/>
		<path style="fill:#1A171B;" d="M207.8,361L207.8,361c-0.2,0-0.3-0.1-0.4-0.1c-0.1,0-0.3,0-0.4,0c-0.3,0-0.5,0.1-0.8,0.2    c-0.3,0.1-0.5,0.3-0.7,0.5v3.9h-0.9V360h0.9v0.8c0.3-0.3,0.6-0.5,0.9-0.6c0.3-0.1,0.5-0.2,0.8-0.2c0.2,0,0.3,0,0.3,0    c0.1,0,0.2,0,0.3,0V361z"/>
		<path style="fill:#1A171B;" d="M213.1,362.8c0,0.9-0.2,1.6-0.6,2.1s-1,0.8-1.7,0.8c-0.7,0-1.3-0.3-1.7-0.8s-0.6-1.2-0.6-2.1    s0.2-1.6,0.6-2.1c0.4-0.5,1-0.8,1.7-0.8c0.7,0,1.3,0.3,1.7,0.8C212.8,361.2,213.1,361.9,213.1,362.8z M212.2,362.8    c0-0.7-0.1-1.2-0.4-1.6c-0.3-0.3-0.6-0.5-1.1-0.5c-0.5,0-0.8,0.2-1.1,0.5c-0.3,0.3-0.4,0.9-0.4,1.6c0,0.7,0.1,1.2,0.4,1.6    c0.3,0.4,0.6,0.5,1.1,0.5c0.5,0,0.8-0.2,1.1-0.5C212,364,212.2,363.5,212.2,362.8z"/>
	</g>
	<g>
		<rect x="229.7" y="78.8" style="fill-rule:evenodd;clip-rule:evenodd;fill:none;" width="31.7" height="11"/>
		<path style="fill:#1A171B;" d="M235.9,86.8c-0.2,0.1-0.3,0.2-0.5,0.2c-0.1,0.1-0.3,0.1-0.5,0.2c-0.2,0.1-0.4,0.1-0.6,0.2    s-0.5,0.1-0.7,0.1c-0.5,0-1-0.1-1.4-0.2c-0.4-0.1-0.8-0.4-1.1-0.7c-0.3-0.3-0.5-0.7-0.7-1.2c-0.2-0.5-0.3-1-0.3-1.7    c0-0.6,0.1-1.1,0.2-1.6s0.4-0.9,0.7-1.2c0.3-0.3,0.6-0.6,1.1-0.7c0.4-0.2,0.9-0.2,1.4-0.2c0.4,0,0.7,0,1.1,0.1    c0.4,0.1,0.8,0.3,1.2,0.5v1.1h-0.1c-0.4-0.3-0.8-0.6-1.1-0.7s-0.8-0.2-1.2-0.2c-0.3,0-0.7,0.1-0.9,0.2s-0.5,0.3-0.7,0.6    c-0.2,0.2-0.4,0.6-0.5,0.9c-0.1,0.4-0.2,0.8-0.2,1.3c0,0.5,0.1,1,0.2,1.3c0.1,0.4,0.3,0.7,0.5,0.9c0.2,0.2,0.5,0.4,0.8,0.5    c0.3,0.1,0.6,0.2,0.9,0.2c0.4,0,0.9-0.1,1.2-0.2s0.7-0.4,1.1-0.7h0.1V86.8z"/>
		<path style="fill:#1A171B;" d="M241.1,87.3h-0.9v-0.6c-0.1,0.1-0.2,0.1-0.3,0.2s-0.3,0.2-0.4,0.2c-0.1,0.1-0.3,0.1-0.5,0.2    s-0.4,0.1-0.7,0.1c-0.5,0-0.9-0.2-1.2-0.5c-0.3-0.3-0.5-0.7-0.5-1.2c0-0.4,0.1-0.7,0.3-1s0.4-0.5,0.7-0.6c0.3-0.1,0.7-0.2,1.1-0.3    c0.4-0.1,0.9-0.1,1.4-0.1v-0.1c0-0.2,0-0.4-0.1-0.5c-0.1-0.1-0.2-0.2-0.3-0.3c-0.1-0.1-0.3-0.1-0.4-0.2c-0.2,0-0.4,0-0.5,0    c-0.2,0-0.5,0-0.8,0.1c-0.3,0.1-0.6,0.2-0.9,0.3h0V82c0.2,0,0.4-0.1,0.7-0.2c0.3-0.1,0.6-0.1,0.9-0.1c0.4,0,0.7,0,0.9,0.1    s0.5,0.2,0.7,0.3c0.2,0.1,0.3,0.3,0.4,0.6s0.2,0.5,0.2,0.9V87.3z M240.2,86v-1.5c-0.3,0-0.6,0-0.9,0.1s-0.6,0.1-0.9,0.1    c-0.2,0.1-0.5,0.2-0.6,0.3c-0.2,0.2-0.2,0.4-0.2,0.7c0,0.3,0.1,0.5,0.3,0.7s0.5,0.2,0.8,0.2c0.3,0,0.6-0.1,0.8-0.2    C239.8,86.3,240,86.2,240.2,86z"/>
		<path style="fill:#1A171B;" d="M246,82.9L246,82.9c-0.2,0-0.3-0.1-0.4-0.1c-0.1,0-0.3,0-0.4,0c-0.3,0-0.5,0.1-0.8,0.2    c-0.3,0.1-0.5,0.3-0.7,0.5v3.9h-0.9v-5.5h0.9v0.8c0.3-0.3,0.6-0.5,0.9-0.6c0.3-0.1,0.5-0.2,0.8-0.2c0.2,0,0.3,0,0.3,0    c0.1,0,0.2,0,0.3,0V82.9z"/>
		<path style="fill:#1A171B;" d="M247.7,81h-1v-1h1V81z M247.7,87.3h-0.9v-5.5h0.9V87.3z"/>
		<path style="fill:#1A171B;" d="M253.7,87.3h-0.9v-3.1c0-0.3,0-0.5,0-0.7c0-0.2-0.1-0.4-0.2-0.5c-0.1-0.1-0.2-0.2-0.3-0.3    s-0.3-0.1-0.6-0.1c-0.2,0-0.5,0.1-0.7,0.2c-0.3,0.1-0.5,0.3-0.7,0.5v4.1h-0.9v-5.5h0.9v0.6c0.3-0.2,0.6-0.4,0.8-0.6    s0.6-0.2,0.9-0.2c0.6,0,1,0.2,1.3,0.5c0.3,0.4,0.4,0.9,0.4,1.5V87.3z M253.5,79.4c0,0.5-0.2,0.9-0.4,1.1s-0.5,0.4-0.8,0.4    c-0.2,0-0.3,0-0.5-0.1s-0.3-0.2-0.4-0.3c-0.1-0.1-0.3-0.2-0.4-0.3s-0.2-0.1-0.3-0.1c-0.2,0-0.3,0.1-0.4,0.2s-0.1,0.3-0.1,0.6h-0.6    c0-0.5,0.1-0.9,0.4-1.1s0.5-0.4,0.8-0.4c0.2,0,0.3,0,0.4,0.1c0.1,0.1,0.3,0.2,0.4,0.3c0.1,0.1,0.3,0.2,0.4,0.3s0.2,0.1,0.3,0.1    c0.2,0,0.3-0.1,0.4-0.2s0.1-0.3,0.1-0.6H253.5z"/>
		<path style="fill:#1A171B;" d="M259.8,84.6c0,0.9-0.2,1.6-0.6,2.1s-1,0.8-1.7,0.8c-0.7,0-1.3-0.3-1.7-0.8s-0.6-1.2-0.6-2.1    s0.2-1.6,0.6-2.1s1-0.8,1.7-0.8c0.7,0,1.3,0.3,1.7,0.8S259.8,83.7,259.8,84.6z M258.9,84.6c0-0.7-0.1-1.2-0.4-1.6    s-0.6-0.5-1.1-0.5c-0.5,0-0.8,0.2-1.1,0.5s-0.4,0.9-0.4,1.6c0,0.7,0.1,1.2,0.4,1.6s0.6,0.5,1.1,0.5c0.5,0,0.8-0.2,1.1-0.5    C258.8,85.8,258.9,85.3,258.9,84.6z"/>
	</g>
	<g>
		<rect x="194.5" y="159.1" style="fill-rule:evenodd;clip-rule:evenodd;fill:none;" width="37.4" height="11"/>
		<path style="fill:#1A171B;" d="M200.7,167.1c-0.2,0.1-0.3,0.2-0.5,0.2c-0.1,0.1-0.3,0.1-0.5,0.2c-0.2,0.1-0.4,0.1-0.6,0.2    s-0.5,0.1-0.7,0.1c-0.5,0-1-0.1-1.4-0.2c-0.4-0.1-0.8-0.4-1.1-0.7c-0.3-0.3-0.5-0.7-0.7-1.2c-0.2-0.5-0.3-1-0.3-1.7    c0-0.6,0.1-1.1,0.2-1.6s0.4-0.9,0.7-1.2c0.3-0.3,0.6-0.6,1.1-0.7c0.4-0.2,0.9-0.2,1.4-0.2c0.4,0,0.7,0,1.1,0.1    c0.4,0.1,0.8,0.3,1.2,0.5v1.1h-0.1c-0.4-0.3-0.8-0.6-1.1-0.7s-0.8-0.2-1.2-0.2c-0.3,0-0.7,0.1-0.9,0.2s-0.5,0.3-0.7,0.6    c-0.2,0.2-0.4,0.6-0.5,0.9c-0.1,0.4-0.2,0.8-0.2,1.3c0,0.5,0.1,1,0.2,1.3c0.1,0.4,0.3,0.7,0.5,0.9c0.2,0.2,0.5,0.4,0.8,0.5    c0.3,0.1,0.6,0.2,0.9,0.2c0.4,0,0.9-0.1,1.2-0.2s0.7-0.4,1.1-0.7h0.1V167.1z"/>
		<path style="fill:#1A171B;" d="M206.3,165h-3.8c0,0.3,0,0.6,0.1,0.9c0.1,0.2,0.2,0.5,0.4,0.6c0.2,0.2,0.4,0.3,0.6,0.4    s0.5,0.1,0.7,0.1c0.4,0,0.7-0.1,1.1-0.2c0.4-0.1,0.6-0.3,0.8-0.4h0v1c-0.3,0.1-0.6,0.2-0.9,0.3c-0.3,0.1-0.6,0.1-1,0.1    c-0.9,0-1.5-0.2-2-0.7s-0.7-1.2-0.7-2.1c0-0.9,0.2-1.6,0.7-2.1s1.1-0.8,1.8-0.8c0.7,0,1.2,0.2,1.6,0.6s0.6,1,0.6,1.8V165z     M205.4,164.3c0-0.5-0.1-0.9-0.3-1.1c-0.2-0.3-0.6-0.4-1-0.4c-0.5,0-0.8,0.1-1.1,0.4s-0.4,0.6-0.5,1.1H205.4z"/>
		<path style="fill:#1A171B;" d="M210.8,163.2L210.8,163.2c-0.2,0-0.3-0.1-0.4-0.1c-0.1,0-0.3,0-0.4,0c-0.3,0-0.5,0.1-0.8,0.2    c-0.3,0.1-0.5,0.3-0.7,0.5v3.9h-0.9v-5.5h0.9v0.8c0.3-0.3,0.6-0.5,0.9-0.6c0.3-0.1,0.5-0.2,0.8-0.2c0.2,0,0.3,0,0.3,0    c0.1,0,0.2,0,0.3,0V163.2z"/>
		<path style="fill:#1A171B;" d="M215.8,167.6h-0.9v-0.6c-0.2,0.2-0.5,0.4-0.8,0.5s-0.6,0.2-0.9,0.2c-0.6,0-1.1-0.3-1.5-0.8    c-0.4-0.5-0.5-1.2-0.5-2.1c0-0.5,0.1-0.9,0.2-1.2c0.1-0.4,0.3-0.7,0.5-0.9c0.2-0.2,0.5-0.4,0.7-0.6s0.6-0.2,0.9-0.2    c0.3,0,0.5,0,0.7,0.1s0.4,0.2,0.7,0.3V160h0.9V167.6z M214.9,166.3v-3.1c-0.2-0.1-0.4-0.2-0.6-0.2s-0.4-0.1-0.6-0.1    c-0.5,0-0.9,0.2-1.1,0.5s-0.4,0.9-0.4,1.5c0,0.6,0.1,1.1,0.3,1.5s0.5,0.5,1,0.5c0.2,0,0.5-0.1,0.7-0.2    C214.5,166.6,214.7,166.5,214.9,166.3z"/>
		<path style="fill:#1A171B;" d="M218.4,161.3h-1v-1h1V161.3z M218.4,167.6h-0.9v-5.5h0.9V167.6z"/>
		<path style="fill:#1A171B;" d="M224.3,167.6h-0.9v-0.6c-0.2,0.2-0.5,0.4-0.8,0.5s-0.6,0.2-0.9,0.2c-0.6,0-1.1-0.3-1.5-0.8    c-0.4-0.5-0.5-1.2-0.5-2.1c0-0.5,0.1-0.9,0.2-1.2c0.1-0.4,0.3-0.7,0.5-0.9c0.2-0.2,0.5-0.4,0.7-0.6s0.6-0.2,0.9-0.2    c0.3,0,0.5,0,0.7,0.1s0.4,0.2,0.7,0.3V160h0.9V167.6z M223.4,166.3v-3.1c-0.2-0.1-0.4-0.2-0.6-0.2s-0.4-0.1-0.6-0.1    c-0.5,0-0.9,0.2-1.1,0.5s-0.4,0.9-0.4,1.5c0,0.6,0.1,1.1,0.3,1.5s0.5,0.5,1,0.5c0.2,0,0.5-0.1,0.7-0.2    C223,166.6,223.2,166.5,223.4,166.3z"/>
		<path style="fill:#1A171B;" d="M230.4,164.9c0,0.9-0.2,1.6-0.6,2.1s-1,0.8-1.7,0.8c-0.7,0-1.3-0.3-1.7-0.8s-0.6-1.2-0.6-2.1    s0.2-1.6,0.6-2.1s1-0.8,1.7-0.8c0.7,0,1.3,0.3,1.7,0.8S230.4,164,230.4,164.9z M229.5,164.9c0-0.7-0.1-1.2-0.4-1.6    s-0.6-0.5-1.1-0.5c-0.5,0-0.8,0.2-1.1,0.5s-0.4,0.9-0.4,1.6c0,0.7,0.1,1.2,0.4,1.6s0.6,0.5,1.1,0.5c0.5,0,0.8-0.2,1.1-0.5    C229.4,166.1,229.5,165.6,229.5,164.9z"/>
	</g>
	<g>
		<rect x="320.5" y="170.1" style="fill-rule:evenodd;clip-rule:evenodd;fill:none;" width="32.4" height="11"/>
		<path style="fill:#1A171B;" d="M327.5,178.6h-0.9v-6.3l-1.9,4.3h-0.5l-1.9-4.3v6.3h-0.9v-7.3h1.2l1.8,4l1.8-4h1.3V178.6z"/>
		<path style="fill:#1A171B;" d="M333.3,178.6h-0.9V178c-0.1,0.1-0.2,0.1-0.3,0.2s-0.3,0.2-0.4,0.2c-0.1,0.1-0.3,0.1-0.5,0.2    s-0.4,0.1-0.7,0.1c-0.5,0-0.9-0.2-1.2-0.5c-0.3-0.3-0.5-0.7-0.5-1.2c0-0.4,0.1-0.7,0.3-1s0.4-0.5,0.7-0.6c0.3-0.1,0.7-0.2,1.1-0.3    c0.4-0.1,0.9-0.1,1.4-0.1v-0.1c0-0.2,0-0.4-0.1-0.5c-0.1-0.1-0.2-0.2-0.3-0.3c-0.1-0.1-0.3-0.1-0.4-0.2c-0.2,0-0.4,0-0.5,0    c-0.2,0-0.5,0-0.8,0.1c-0.3,0.1-0.6,0.2-0.9,0.3h0v-0.9c0.2,0,0.4-0.1,0.7-0.2c0.3-0.1,0.6-0.1,0.9-0.1c0.4,0,0.7,0,0.9,0.1    s0.5,0.2,0.7,0.3c0.2,0.1,0.3,0.3,0.4,0.6s0.2,0.5,0.2,0.9V178.6z M332.4,177.2v-1.5c-0.3,0-0.6,0-0.9,0.1s-0.6,0.1-0.9,0.1    c-0.2,0.1-0.5,0.2-0.6,0.3c-0.2,0.2-0.2,0.4-0.2,0.7c0,0.3,0.1,0.5,0.3,0.7s0.5,0.2,0.8,0.2c0.3,0,0.6-0.1,0.8-0.2    C332,177.6,332.2,177.4,332.4,177.2z"/>
		<path style="fill:#1A171B;" d="M339.3,178.6h-0.9v-3.1c0-0.3,0-0.5,0-0.7c0-0.2-0.1-0.4-0.2-0.5c-0.1-0.1-0.2-0.2-0.3-0.3    s-0.3-0.1-0.6-0.1c-0.2,0-0.5,0.1-0.7,0.2c-0.3,0.1-0.5,0.3-0.7,0.5v4.1H335v-5.5h0.9v0.6c0.3-0.2,0.6-0.4,0.8-0.6    s0.6-0.2,0.9-0.2c0.6,0,1,0.2,1.3,0.5c0.3,0.4,0.4,0.9,0.4,1.5V178.6z M339.1,170.7c0,0.5-0.2,0.9-0.4,1.1s-0.5,0.4-0.8,0.4    c-0.2,0-0.3,0-0.5-0.1s-0.3-0.2-0.4-0.3c-0.1-0.1-0.3-0.2-0.4-0.3s-0.2-0.1-0.3-0.1c-0.2,0-0.3,0.1-0.4,0.2s-0.1,0.3-0.1,0.6h-0.6    c0-0.5,0.1-0.9,0.4-1.1s0.5-0.4,0.8-0.4c0.2,0,0.3,0,0.4,0.1c0.1,0.1,0.3,0.2,0.4,0.3c0.1,0.1,0.3,0.2,0.4,0.3s0.2,0.1,0.3,0.1    c0.2,0,0.3-0.1,0.4-0.2s0.1-0.3,0.1-0.6H339.1z"/>
		<path style="fill:#1A171B;" d="M345.3,175.9c0,0.9-0.2,1.6-0.6,2.1s-1,0.8-1.7,0.8c-0.7,0-1.3-0.3-1.7-0.8s-0.6-1.2-0.6-2.1    s0.2-1.6,0.6-2.1s1-0.8,1.7-0.8c0.7,0,1.3,0.3,1.7,0.8S345.3,175,345.3,175.9z M344.4,175.9c0-0.7-0.1-1.2-0.4-1.6    s-0.6-0.5-1.1-0.5c-0.5,0-0.8,0.2-1.1,0.5s-0.4,0.9-0.4,1.6c0,0.7,0.1,1.2,0.4,1.6s0.6,0.5,1.1,0.5c0.5,0,0.8-0.2,1.1-0.5    C344.3,177.1,344.4,176.6,344.4,175.9z M344.4,170.4l-1.3,1.8h-0.7l0.8-1.8H344.4z"/>
		<path style="fill:#1A171B;" d="M351,178.6h-0.9v-3.1c0-0.3,0-0.5,0-0.7c0-0.2-0.1-0.4-0.2-0.5c-0.1-0.1-0.2-0.2-0.3-0.3    s-0.3-0.1-0.6-0.1c-0.2,0-0.5,0.1-0.7,0.2c-0.3,0.1-0.5,0.3-0.7,0.5v4.1h-0.9v-5.5h0.9v0.6c0.3-0.2,0.6-0.4,0.8-0.6    s0.6-0.2,0.9-0.2c0.6,0,1,0.2,1.3,0.5c0.3,0.4,0.4,0.9,0.4,1.5V178.6z"/>
	</g>
	<g>
		<rect x="258.9" y="137.6" style="fill-rule:evenodd;clip-rule:evenodd;fill:none;" width="48.5" height="11"/>
		<path style="fill:#1A171B;" d="M265,139.7c0.3,0.3,0.5,0.7,0.6,1.2s0.2,1,0.2,1.6s-0.1,1.1-0.2,1.6s-0.4,0.9-0.6,1.2    c-0.3,0.3-0.6,0.6-1,0.7s-0.8,0.2-1.3,0.2c-0.5,0-0.9-0.1-1.3-0.3c-0.4-0.2-0.7-0.4-1-0.7c-0.3-0.3-0.5-0.7-0.6-1.2    c-0.1-0.5-0.2-1-0.2-1.6c0-0.6,0.1-1.1,0.2-1.6s0.4-0.9,0.6-1.2c0.3-0.3,0.6-0.6,1-0.7s0.8-0.3,1.3-0.3c0.5,0,0.9,0.1,1.3,0.3    C264.4,139.1,264.7,139.4,265,139.7z M264.9,142.5c0-0.9-0.2-1.7-0.6-2.2c-0.4-0.5-0.9-0.8-1.6-0.8c-0.7,0-1.2,0.3-1.6,0.8    s-0.6,1.2-0.6,2.2c0,1,0.2,1.7,0.6,2.2c0.4,0.5,1,0.8,1.6,0.8s1.2-0.3,1.6-0.8C264.7,144.2,264.9,143.5,264.9,142.5z"/>
		<path style="fill:#1A171B;" d="M270.4,141.7L270.4,141.7c-0.2,0-0.3-0.1-0.4-0.1c-0.1,0-0.3,0-0.4,0c-0.3,0-0.5,0.1-0.8,0.2    c-0.3,0.1-0.5,0.3-0.7,0.5v3.9h-0.9v-5.5h0.9v0.8c0.3-0.3,0.6-0.5,0.9-0.6c0.3-0.1,0.5-0.2,0.8-0.2c0.2,0,0.3,0,0.3,0    c0.1,0,0.2,0,0.3,0V141.7z"/>
		<path style="fill:#1A171B;" d="M273.9,146.1c-0.2,0-0.3,0.1-0.5,0.1s-0.4,0-0.5,0c-0.5,0-0.9-0.1-1.2-0.4    c-0.3-0.3-0.4-0.8-0.4-1.4v-2.9h-0.6v-0.8h0.6v-1.6h0.9v1.6h1.8v0.8h-1.8v2.5c0,0.3,0,0.5,0,0.7c0,0.2,0.1,0.3,0.1,0.5    c0.1,0.1,0.2,0.2,0.3,0.3c0.1,0.1,0.3,0.1,0.5,0.1c0.1,0,0.3,0,0.4-0.1c0.2,0,0.3-0.1,0.3-0.1h0V146.1z"/>
		<path style="fill:#1A171B;" d="M275.9,139.8h-1v-1h1V139.8z M275.8,146.1H275v-5.5h0.9V146.1z"/>
		<path style="fill:#1A171B;" d="M281.7,145.5c0,0.9-0.2,1.6-0.6,2c-0.4,0.4-1,0.6-1.8,0.6c-0.3,0-0.5,0-0.8-0.1s-0.5-0.1-0.8-0.2    V147h0c0.1,0.1,0.4,0.1,0.7,0.2s0.6,0.1,0.9,0.1c0.3,0,0.5,0,0.7-0.1c0.2-0.1,0.3-0.2,0.5-0.3c0.1-0.1,0.2-0.3,0.2-0.5    s0.1-0.4,0.1-0.6v-0.5c-0.3,0.2-0.5,0.4-0.8,0.5s-0.5,0.2-0.9,0.2c-0.6,0-1.1-0.2-1.5-0.7c-0.4-0.5-0.5-1.1-0.5-2    c0-0.5,0.1-0.9,0.2-1.2c0.1-0.3,0.3-0.6,0.5-0.9c0.2-0.2,0.4-0.4,0.7-0.5s0.6-0.2,0.9-0.2c0.3,0,0.5,0,0.8,0.1    c0.2,0.1,0.4,0.2,0.6,0.3l0.1-0.2h0.8V145.5z M280.9,144.6v-3c-0.2-0.1-0.4-0.2-0.6-0.2c-0.2,0-0.4-0.1-0.6-0.1    c-0.5,0-0.9,0.2-1.1,0.5c-0.3,0.3-0.4,0.8-0.4,1.5c0,0.6,0.1,1.1,0.3,1.4s0.5,0.5,1,0.5c0.3,0,0.5-0.1,0.8-0.2    S280.7,144.8,280.9,144.6z"/>
		<path style="fill:#1A171B;" d="M287.7,146.1h-0.9v-0.6c-0.3,0.2-0.6,0.4-0.8,0.6s-0.6,0.2-0.9,0.2c-0.5,0-1-0.2-1.3-0.5    c-0.3-0.4-0.5-0.9-0.5-1.5v-3.5h0.9v3.1c0,0.3,0,0.5,0,0.7c0,0.2,0.1,0.4,0.2,0.5c0.1,0.1,0.2,0.2,0.3,0.3    c0.1,0.1,0.3,0.1,0.6,0.1c0.2,0,0.5-0.1,0.7-0.2c0.3-0.1,0.5-0.3,0.7-0.5v-4.1h0.9V146.1z"/>
		<path style="fill:#1A171B;" d="M293.7,143.5h-3.8c0,0.3,0,0.6,0.1,0.9c0.1,0.2,0.2,0.5,0.4,0.6c0.2,0.2,0.4,0.3,0.6,0.4    s0.5,0.1,0.7,0.1c0.4,0,0.7-0.1,1.1-0.2c0.4-0.1,0.6-0.3,0.8-0.4h0v1c-0.3,0.1-0.6,0.2-0.9,0.3c-0.3,0.1-0.6,0.1-1,0.1    c-0.9,0-1.5-0.2-2-0.7s-0.7-1.2-0.7-2.1c0-0.9,0.2-1.6,0.7-2.1s1.1-0.8,1.8-0.8c0.7,0,1.2,0.2,1.6,0.6s0.6,1,0.6,1.8V143.5z     M292.9,142.8c0-0.5-0.1-0.9-0.3-1.1c-0.2-0.3-0.6-0.4-1-0.4c-0.5,0-0.8,0.1-1.1,0.4s-0.4,0.6-0.5,1.1H292.9z"/>
		<path style="fill:#1A171B;" d="M296,139.8h-1v-1h1V139.8z M295.9,146.1h-0.9v-5.5h0.9V146.1z"/>
		<path style="fill:#1A171B;" d="M300.9,141.7L300.9,141.7c-0.2,0-0.3-0.1-0.4-0.1c-0.1,0-0.3,0-0.4,0c-0.3,0-0.5,0.1-0.8,0.2    c-0.3,0.1-0.5,0.3-0.7,0.5v3.9h-0.9v-5.5h0.9v0.8c0.3-0.3,0.6-0.5,0.9-0.6c0.3-0.1,0.5-0.2,0.8-0.2c0.2,0,0.3,0,0.3,0    c0.1,0,0.2,0,0.3,0V141.7z"/>
		<path style="fill:#1A171B;" d="M305.6,146.1h-0.9v-0.6c-0.1,0.1-0.2,0.1-0.3,0.2s-0.3,0.2-0.4,0.2c-0.1,0.1-0.3,0.1-0.5,0.2    s-0.4,0.1-0.7,0.1c-0.5,0-0.9-0.2-1.2-0.5c-0.3-0.3-0.5-0.7-0.5-1.2c0-0.4,0.1-0.7,0.3-1s0.4-0.5,0.7-0.6c0.3-0.1,0.7-0.2,1.1-0.3    c0.4-0.1,0.9-0.1,1.4-0.1v-0.1c0-0.2,0-0.4-0.1-0.5c-0.1-0.1-0.2-0.2-0.3-0.3c-0.1-0.1-0.3-0.1-0.4-0.2c-0.2,0-0.4,0-0.5,0    c-0.2,0-0.5,0-0.8,0.1c-0.3,0.1-0.6,0.2-0.9,0.3h0v-0.9c0.2,0,0.4-0.1,0.7-0.2c0.3-0.1,0.6-0.1,0.9-0.1c0.4,0,0.7,0,0.9,0.1    s0.5,0.2,0.7,0.3c0.2,0.1,0.3,0.3,0.4,0.6s0.2,0.5,0.2,0.9V146.1z M304.7,144.8v-1.5c-0.3,0-0.6,0-0.9,0.1s-0.6,0.1-0.9,0.1    c-0.2,0.1-0.5,0.2-0.6,0.3c-0.2,0.2-0.2,0.4-0.2,0.7c0,0.3,0.1,0.5,0.3,0.7s0.5,0.2,0.8,0.2c0.3,0,0.6-0.1,0.8-0.2    C304.2,145.1,304.5,145,304.7,144.8z"/>
	</g>
</g>
<g id="text-provincies">
	<g>
		<rect x="362" y="324.4" style="fill-rule:evenodd;clip-rule:evenodd;fill:none;" width="32.1" height="11"/>
		<path style="fill:#1A171B;" d="M370.6,332.9h-5.2v-7.3h1.9v5.9h3.4V332.9z"/>
		<path style="fill:#1A171B;" d="M377.1,332.9h-1.8v-0.6c-0.3,0.2-0.6,0.4-0.9,0.6c-0.3,0.1-0.6,0.2-1,0.2c-0.6,0-1.1-0.2-1.4-0.5    c-0.3-0.3-0.5-0.9-0.5-1.5v-3.6h1.8v2.7c0,0.3,0,0.5,0,0.7c0,0.2,0.1,0.3,0.1,0.5c0.1,0.1,0.2,0.2,0.3,0.3    c0.1,0.1,0.3,0.1,0.5,0.1c0.1,0,0.3,0,0.5-0.1s0.4-0.1,0.5-0.2v-3.9h1.8V332.9z"/>
		<path style="fill:#1A171B;" d="M384,332.3c0,0.5-0.1,0.9-0.2,1.3s-0.4,0.6-0.6,0.8c-0.3,0.2-0.6,0.3-1,0.4    c-0.4,0.1-0.8,0.1-1.3,0.1c-0.4,0-0.8,0-1.1-0.1c-0.4,0-0.7-0.1-1-0.2v-1.4h0.2c0.2,0.1,0.5,0.2,0.8,0.2c0.3,0.1,0.6,0.1,0.8,0.1    c0.3,0,0.6,0,0.8-0.1c0.2-0.1,0.4-0.1,0.5-0.3c0.1-0.1,0.2-0.2,0.2-0.4c0-0.2,0.1-0.4,0.1-0.6v-0.1c-0.2,0.2-0.4,0.3-0.7,0.4    s-0.5,0.2-0.9,0.2c-0.8,0-1.4-0.2-1.8-0.7s-0.6-1.2-0.6-2.1c0-0.5,0.1-0.8,0.2-1.2s0.3-0.6,0.5-0.9c0.2-0.2,0.5-0.4,0.8-0.5    c0.3-0.1,0.6-0.2,1-0.2c0.3,0,0.6,0,0.8,0.1c0.2,0.1,0.5,0.2,0.7,0.3l0.1-0.2h1.7V332.3z M382.3,331.2v-2.5    c-0.1,0-0.2-0.1-0.4-0.1c-0.1,0-0.3,0-0.4,0c-0.5,0-0.8,0.1-1,0.4c-0.2,0.3-0.3,0.6-0.3,1.1c0,0.5,0.1,0.9,0.3,1.1    s0.5,0.3,0.9,0.3c0.2,0,0.3,0,0.5-0.1S382.1,331.3,382.3,331.2z"/>
		<path style="fill:#1A171B;" d="M391.3,330.2c0,0.9-0.3,1.6-0.8,2.1c-0.5,0.5-1.3,0.8-2.2,0.8s-1.7-0.3-2.2-0.8    c-0.5-0.5-0.8-1.2-0.8-2.1c0-0.9,0.3-1.6,0.8-2.1c0.5-0.5,1.3-0.8,2.2-0.8c1,0,1.7,0.3,2.2,0.8C391,328.6,391.3,329.3,391.3,330.2    z M389.1,331.5c0.1-0.1,0.2-0.3,0.3-0.5c0.1-0.2,0.1-0.5,0.1-0.8c0-0.3,0-0.6-0.1-0.8s-0.1-0.4-0.2-0.5c-0.1-0.1-0.2-0.2-0.4-0.3    s-0.3-0.1-0.5-0.1s-0.3,0-0.5,0.1c-0.1,0-0.3,0.1-0.4,0.3c-0.1,0.1-0.2,0.3-0.3,0.5c-0.1,0.2-0.1,0.5-0.1,0.8c0,0.3,0,0.6,0.1,0.8    c0.1,0.2,0.1,0.4,0.2,0.5c0.1,0.1,0.2,0.2,0.4,0.3c0.1,0.1,0.3,0.1,0.5,0.1c0.2,0,0.3,0,0.5-0.1    C388.9,331.8,389,331.7,389.1,331.5z"/>
	</g>
</g>
<g id="llegenda">
	<line style="fill:none;stroke:#9A9A9A;stroke-width:2;stroke-miterlimit:10;" x1="-108.7" y1="53.9" x2="-108.7" y2="83.4"/>
	<line style="fill:none;stroke:#9A9A9A;stroke-miterlimit:10;" x1="-75.3" y1="53.9" x2="-75.3" y2="83.4"/>
	<g>
		<path d="M-101,64.3h0.9v7.1h-0.9V64.3z"/>
		<path d="M-97.6,65.2c0,0.3-0.2,0.5-0.6,0.5c-0.3,0-0.5-0.2-0.5-0.5s0.2-0.5,0.5-0.5C-97.9,64.6-97.6,64.9-97.6,65.2z M-98.6,71.4    v-4.8h0.9v4.8H-98.6z"/>
		<path d="M-96.3,67.8c0-0.5,0-0.9,0-1.3h0.8l0,0.8h0c0.2-0.4,0.8-0.9,1.6-0.9c0.7,0,1.7,0.4,1.7,2.1v2.9H-93v-2.8    c0-0.8-0.3-1.4-1.1-1.4c-0.6,0-1,0.4-1.2,0.9c0,0.1-0.1,0.3-0.1,0.4v2.9h-0.9V67.8z"/>
	</g>
	<line style="fill:none;stroke:#696969;stroke-width:2;stroke-miterlimit:10;" x1="-108.7" y1="93.4" x2="-108.7" y2="122.9"/>
	<g>
		<path d="M-101,103.9h0.9v7.1h-0.9V103.9z"/>
		<path d="M-97.6,104.8c0,0.3-0.2,0.5-0.6,0.5c-0.3,0-0.5-0.2-0.5-0.5s0.2-0.5,0.5-0.5C-97.9,104.2-97.6,104.4-97.6,104.8z     M-98.6,111v-4.8h0.9v4.8H-98.6z"/>
		<path d="M-96.3,107.4c0-0.5,0-0.9,0-1.3h0.8l0,0.8h0c0.2-0.4,0.8-0.9,1.6-0.9c0.7,0,1.7,0.4,1.7,2.1v2.9H-93v-2.8    c0-0.8-0.3-1.4-1.1-1.4c-0.6,0-1,0.4-1.2,0.9c0,0.1-0.1,0.3-0.1,0.4v2.9h-0.9V107.4z"/>
	</g>
	<rect x="-114.1" y="29.3" style="fill:#BFBFBF;" width="16.3" height="15.3"/>
	<rect x="-114.1" y="1.6" style="fill:#DCE9FB;" width="16.3" height="15.3"/>
	<rect x="-145.4" y="1.6" style="fill:#D0E0A4;" width="16.3" height="15.3"/>
	<g>
		<path d="M-88.5,38.6v-4.2h-0.7v-0.7h0.7v-0.2c0-0.7,0.2-1.3,0.6-1.7c0.3-0.3,0.8-0.4,1.2-0.4c0.3,0,0.6,0.1,0.7,0.1l-0.1,0.7    c-0.1-0.1-0.3-0.1-0.6-0.1c-0.7,0-0.9,0.6-0.9,1.4v0.3h1.2v0.7h-1.2v4.2H-88.5z"/>
		<path d="M-81.4,36.2c0,1.8-1.2,2.6-2.4,2.6c-1.3,0-2.3-1-2.3-2.5c0-1.6,1.1-2.6,2.4-2.6C-82.4,33.7-81.4,34.7-81.4,36.2z     M-85.3,36.2c0,1.1,0.6,1.9,1.5,1.9c0.8,0,1.5-0.8,1.5-1.9c0-0.8-0.4-1.8-1.4-1.8C-84.8,34.3-85.3,35.3-85.3,36.2z"/>
		<path d="M-80.3,35.1c0-0.5,0-0.9,0-1.3h0.8l0,0.8h0c0.2-0.4,0.8-0.9,1.6-0.9c0.7,0,1.7,0.4,1.7,2.1v2.9h-0.9v-2.8    c0-0.8-0.3-1.4-1.1-1.4c-0.6,0-1,0.4-1.2,0.9c0,0.1-0.1,0.3-0.1,0.4v2.9h-0.9V35.1z"/>
		<path d="M-74.9,37.7c0.3,0.2,0.7,0.3,1.2,0.3c0.6,0,0.9-0.3,0.9-0.7c0-0.4-0.3-0.6-0.9-0.9c-0.9-0.3-1.3-0.8-1.3-1.4    c0-0.8,0.6-1.4,1.7-1.4c0.5,0,0.9,0.1,1.2,0.3l-0.2,0.6c-0.2-0.1-0.5-0.3-1-0.3c-0.5,0-0.8,0.3-0.8,0.7c0,0.4,0.3,0.6,0.9,0.8    c0.8,0.3,1.3,0.7,1.3,1.4c0,0.9-0.7,1.5-1.8,1.5c-0.5,0-1-0.1-1.4-0.3L-74.9,37.7z"/>
	</g>
	<g>
		<path d="M-88.6,7.8c0-0.5,0-0.9,0-1.3h0.8l0,0.8h0c0.3-0.5,0.7-0.9,1.5-0.9c0.6,0,1.1,0.4,1.4,1h0c0.1-0.3,0.4-0.5,0.5-0.6    c0.3-0.2,0.6-0.3,1.1-0.3c0.6,0,1.6,0.4,1.6,2.1v2.8h-0.9V8.6c0-0.9-0.3-1.5-1-1.5c-0.5,0-0.9,0.4-1,0.8c0,0.1-0.1,0.3-0.1,0.4v3    h-0.9V8.4c0-0.8-0.3-1.3-1-1.3c-0.5,0-0.9,0.4-1.1,0.9c-0.1,0.1-0.1,0.3-0.1,0.4v2.9h-0.9V7.8z"/>
		<path d="M-76.9,10.1c0,0.4,0,0.8,0.1,1.2h-0.8l-0.1-0.6h0c-0.3,0.4-0.8,0.7-1.5,0.7c-1,0-1.5-0.7-1.5-1.4c0-1.2,1-1.8,2.9-1.8V8.1    c0-0.4-0.1-1.1-1.1-1.1c-0.5,0-0.9,0.1-1.3,0.4l-0.2-0.6c0.4-0.3,1-0.4,1.6-0.4c1.5,0,1.8,1,1.8,2V10.1z M-77.7,8.8    c-1,0-2,0.1-2,1.1c0,0.6,0.4,0.8,0.8,0.8c0.6,0,1-0.4,1.2-0.8c0-0.1,0-0.2,0-0.3V8.8z"/>
		<path d="M-75.5,8c0-0.6,0-1.1,0-1.5h0.8l0,1h0c0.2-0.6,0.8-1.1,1.3-1.1c0.1,0,0.2,0,0.2,0v0.8c-0.1,0-0.2,0-0.3,0    c-0.6,0-1.1,0.5-1.2,1.1c0,0.1,0,0.3,0,0.4v2.6h-0.9V8z"/>
	</g>
	<circle style="fill-rule:evenodd;clip-rule:evenodd;fill:#5B7EBD;" cx="-108.7" cy="138" r="2.4"/>
	<rect x="-189.5" y="29.3" style="fill:#BFBFBF;stroke:#696969;stroke-width:2;stroke-miterlimit:10;" width="16.3" height="15.3"/>
	<rect x="-163.3" y="29.3" style="fill:#FFFBF0;stroke:#9A9A9A;stroke-width:2;stroke-miterlimit:10;" width="16.3" height="15.3"/>
	<rect x="-172.6" y="59.9" style="opacity:0.6;fill:#FFFBF0;" width="51" height="17.5"/>
</g>
</svg>