<svg xmlns="http://www.w3.org/2000/svg" xmlns:xlink="http://www.w3.org/1999/xlink" version="1.1" x="0px" y="0px" width="450px" height="450px" viewBox="0 0 450 450" style="enable-background:new 0 0 450 450;" xml:space="preserve"> <g id="Capa_7"> 	<rect x="-26.7" y="-8" style="fill:#DCE9FB;" width="496" height="488.7"/> </g> <g id="Color_fons"> 	<a> 		<path style="fill:#BFBFBF;stroke:#696969;stroke-width:2;stroke-miterlimit:10;" d="M-24,105.3l-0.6-134.4l125.1,7.8    c0,0,5.7,29.5-4.5,32.7l1.3,11.2c0,0,6.3,0.7,6.3,11.6s3.6,62.5-9.6,66.6S70.5,89.2,70.5,89.2s-16.6,23.6-18,30.4    s-22.9,3.3-25.1,16.2c0,0-22.3-7.5-16.8-24L-24,105.3z"/> 	</a> 	<a> 		<path style="fill:#BFBFBF;stroke:#696969;stroke-width:2;stroke-miterlimit:10;" d="M100.5-21.3c0,0,4.3,30.8-4.5,32.7l1.3,11.2    c0,0,4.4-0.7,5.8,9.8s0.9,24.6,0.9,24.6s30-13.3,41.7-2.6l0,0c0,0,15.2-0.7,23.8-6.3s0.3-19,7.5-15.5c0.7,0.3,0,0,0,0l4.5-5.4    c0,0,31.3,31.1,35.9,30.6s32.5-14.2,32.5-14.2s24.1,14,31.1,26l0,0l29.3-7.7c0,0,13-1.7-3.7-8.7s-23.3,0.7-22.3-3.7    s1-11.3-5.3-12.3s-12.7-45-12.7-45L100.5-21.3z"/> 	</a> 	<a> 		<path style="fill:#BFBFBF;stroke:#696969;stroke-width:2;stroke-miterlimit:10;" d="M-24,105.3l34.5,6.5c0,0-7.8,14.1,16.8,24    c0,0,0.6-7.1,6.6-8.5s17.7-3.3,19-9s17.5-29.2,17.5-29.2S83,105.4,94,100.9s9.7-42.5,9.7-42.5s26.5-15.3,42.1-3.8s0,0,0,0    s-6.4,14.5-0.4,16.8s22.3,56.7,18,60s-19.8,5.3-19.8,5.3S138.3,168,148,169s22.3,2.4,21.6,12.8s0,0,0,0S158.3,195,150,196.7    s-12,5.3-12,10s-0.1,25.8-0.1,25.8l-37.4,6.4c0,0,2.8,9.8,1.8,12.8s-11.1,11.2-11.1,11.2s4.8,7.8,22.8,10.8s29.3,7.7,27.7,19.7    s-6.9,15.5-6.9,15.5S148,317,152.3,330s3.3,22.3-9,20.7s-18-7.3-18.3,2s6.7,33.3,12.7,36.3s16.7,5.3,3.7,19.7S127,422,123,418    s-8.3-15.3-23-15.3s-24.3,3.7-31.3-15.3c0,0-5-8,2.7-12.7s5.7-10,5.7-10s-12.7,5.3-12-6.3s7.3-33.2,7.3-33.2S53,310.3,47,315.3    s-8.1,7.8-8.1,7.8l-5.2-28.8c0,0,16.3-34.7-6-36.3c0,0-14,9.7-20,8l-1.5,28.2l-20.8,6.5L-24,105.3z"/> 	</a> 	<a> 		<path style="fill:#BFBFBF;stroke:#696969;stroke-width:2;stroke-miterlimit:10;" d="M-14.7,300.7l20.8-6.5L7.7,266    c0,0,3.7,1,8-1.7s12-6.3,12-6.3s22.3-1,6.3,34.7l4.9,30.5c0,0,6.4-10.2,12.1-9.2s21.3,11.1,21.3,11.1S60,363,67.7,365    c0,0,3.3,1.7,6.7,0.7s2.7-1,2.7-1s2,3.7-5.7,10s-3,14,1.3,20s6.3,9,21.3,8.3s22.7,4.7,26,10.7s6.3,9.7,13,3.7s8.3-8.7,8.3-8.7    l13.3,15.3l-26.3,41.7L-6,461.3L-14.7,300.7z"/> 	</a> </g> <g id="sub_x005F_comarcas"> 	<a> 		<path style="fill:#FFFBF0;stroke:#9A9A9A;stroke-width:2;stroke-miterlimit:10;" d="M346.9,121.1c-0.8-1.9,4.4-1.5,4.4-1.5    c1.5,2.1,1.5,2.1,1.5,2.1c0,0.2-1.9,5.9-1.9,5.5C350.2,127.7,346.5,122,346.9,121.1C346.8,120.8,346.8,121.3,346.9,121.1z"/> 	</a> 	<path style="fill:#FFFBF0;stroke:#9A9A9A;stroke-width:2;stroke-miterlimit:10;" d="M145.7,54.5c0,0,25.6-1.5,26.3-9.5   s0.7-15,5-12.3l4.5-5.4c0,0,32.3,30.5,35.9,30.6s30.9-14.3,30.9-14.3s19.7,8.1,32.7,26.1l27.3-6.7c0,0,3.3,3.7,8,1.3   s30,45,25.7,48.7s-5-1.3-8.3,4s-12.7,54.9,3.5,73.1c0,0-23.8,28.7-44.3,32.8l-6.4-17l-27.1,4.7c0,0,7-4,2-17S257,181,240.7,183   c-16.3,2-28.7-1.7-34,7.3S195,200.7,195,200.7L169.7,183c0,0,2-9-8.7-11.3s-19.3,2-18.7-14.7s1.2-20.4,1.2-20.4s21.8-0.3,20.8-9   s-14-56-19-56.3S145.7,54.5,145.7,54.5z"/> 	<a> 		<path style="fill:#FFFBF0;stroke:#9A9A9A;stroke-width:2;stroke-miterlimit:10;" d="M169.6,181.8l25.4,18.8c0,0,9.3-5,10.7-9    s6-7.3,12.7-7.7s16.3,0,20.7-0.7s16.3-4.3,19.3,2.3s9,22,1,25l27.1-4.7l6.4,17c0,0,13.5-4.3,25.2-13.9s19.2-18.9,19.2-18.9    l2.5,7.5c0,0,17.7-3.3,18.3,15.3s-12.7,13-12.7,21.3s1.3,18.7-2.7,20.7s-4.7,11-3.3,13.3s-2.7,15.3-10,13.7s-13.7,8.3-13.3,16.7    s-1,9-7.3,11.7s-22.7,7.3-21.3,10.3s-8.7,13.3-11.3,10.7s-7-10.3-16.3-2.7s-34.7,46.7-38,56.7s-32,17.7-32,17.7l-35,21l-13.3-15.3    c0,0,11.6-11.1,2.3-16.7s-9.7-2-13.7-15.3s-9.3-32-0.7-29s26,6.3,25.3-5.7s-7.2-23.6-19.9-33.2c0,0,13.3-20.5,2.6-27.2    s-42.5-8.5-46.1-18.8c0,0,13.1-7.6,10.8-13.9s-1.4-10.2-1.4-10.2l37.4-6.4c0,0-6.6-32.4,7.7-34.8S169.6,181.8,169.6,181.8z"/> 	</a> 	<a> 		<path style="fill:none;" d="M351.5,125.8l2-4.7l-2-2.2l-3.7,0.8l-6.8-6.5l2-3.5l-2-7.2l-11.9-22.2l-6.7-10.3l-3.5-4.1l-2.5-1.7    c0,0-3.6,1.2-3.8,1.2s-2.6-1-2.9-1.1s-2.2-0.9-2.2-0.9l-9.8,1.9l-17.1,4.4l-1.8-3c0,0-4.3-4.8-4.5-5.1s-5.6-4.9-5.6-4.9l-6.7-5    l-14.3-8.5l-30.4,14.7l-35.9-30.6l-5.1,5.5l-2.8-0.1l-1.6,4.8v5.3l-1,5.3l-5.3,2.7l-6.8,1.5l-13.3,2.6l-2.6,8l-0.3,4.5l1.8,3.4    l1.7,1.9l2.3,3.6l3.7,8.6l5.7,17.4l4.2,14.1l1.1,5.8l1.6,4.2l-1,4.1l-1.8,2c0,0-5.1,2.2-5.3,2.3s-13.4,2-13.1,2.1    s-1.2,15.5-1.2,15.5l-0.1,12.1l1.4,2.3c0,0,1.3,2.1,1.7,2.4s2.9,1.4,3.8,1.8s7.3,0.3,8.1,0.5s6.4,1.1,6.4,1.1l3.6,1.9l2.3,5.8    l0.7,2.9l24.8,17.8l9.8-6.8c0,0,1.7-4.1,1.9-4.2s6.3-4.9,6.9-5.2s8.1-0.8,8.9-0.8s13.8-0.5,14.1-0.5s7.4-0.8,7.8-0.8s9.8,0,9.8,0    s3.1,1.3,3.1,1.8s3.1,5.7,3.2,6s2.1,6.9,2.2,7.3s1,7.7,1,7.7l-2.3,5l25.1-4.3l6.4,17l7.9-3.3l12.5-6.8c0,0,5.4-4.7,5.7-4.8    s7.6-6.8,7.9-7s10.3-10.6,10.3-10.6l-5.2-9.3l-2.8-9.1l-1.2-12.9l0.3-11.7l1.8-17.8l3.1-10.9c0,0,1.8-4.3,2.3-4.3s4-0.8,4-0.8    l1.7-0.3l6.8,6.5l-1.1,1.6l2.8,4.9L351.5,125.8z"/> 	</a> </g> <g id="text_x005F_exterior"> 	<g> 		<path d="M185.5,15.2h-1.9l-0.5-1.5h-2.7l-0.5,1.5H178l2.7-7.3h2.2L185.5,15.2z M182.6,12.4l-0.9-2.6l-0.9,2.6H182.6z"/> 		<path d="M188.2,15.2h-1.8V7.6h1.8V15.2z"/> 		<path d="M193.4,15.1c-0.2,0-0.4,0.1-0.6,0.1c-0.2,0-0.5,0-0.8,0c-0.7,0-1.2-0.1-1.5-0.4c-0.3-0.3-0.5-0.8-0.5-1.4v-2.6h-0.7V9.7    h0.7V8.1h1.8v1.6h1.6v1.2h-1.6v1.9c0,0.2,0,0.4,0,0.5c0,0.1,0,0.3,0.1,0.4c0,0.1,0.1,0.2,0.2,0.3c0.1,0.1,0.3,0.1,0.5,0.1    c0.1,0,0.2,0,0.4-0.1c0.1,0,0.3-0.1,0.3-0.1h0.1V15.1z"/> 		<path d="M203.2,15.2H198V7.9h5.3v1.4h-3.4v1.3h3.1V12h-3.1v1.8h3.4V15.2z"/> 		<path d="M210,11.3v3.9h-1.8v-2.7c0-0.3,0-0.5,0-0.7s0-0.3-0.1-0.5s-0.1-0.2-0.3-0.3s-0.3-0.1-0.5-0.1c-0.2,0-0.3,0-0.5,0.1    s-0.3,0.1-0.4,0.2v3.9h-1.8V9.7h1.8v0.6c0.3-0.2,0.6-0.4,0.9-0.6c0.3-0.1,0.6-0.2,0.9-0.2c0.4,0,0.7,0.1,1,0.2s0.5,0.4,0.6,0.7    c0.4-0.3,0.7-0.5,1-0.7c0.3-0.2,0.7-0.3,1-0.3c0.6,0,1,0.2,1.3,0.5c0.3,0.4,0.5,0.9,0.5,1.5v3.6h-1.8v-2.7c0-0.3,0-0.5,0-0.7    s0-0.3-0.1-0.5c-0.1-0.1-0.1-0.2-0.3-0.3S211.2,11,211,11c-0.1,0-0.3,0-0.4,0.1S210.2,11.2,210,11.3z"/> 		<path d="M221,12.3c0,0.5-0.1,0.9-0.2,1.2c-0.1,0.4-0.3,0.7-0.5,0.9c-0.2,0.3-0.5,0.4-0.8,0.6c-0.3,0.1-0.6,0.2-1,0.2    c-0.3,0-0.6,0-0.8-0.1s-0.4-0.2-0.7-0.3v2.3h-1.8V9.7h1.8v0.6c0.3-0.2,0.5-0.4,0.8-0.5c0.3-0.1,0.6-0.2,1-0.2    c0.7,0,1.2,0.3,1.6,0.8C220.8,10.8,221,11.5,221,12.3z M219.2,12.4c0-0.5-0.1-0.9-0.3-1.2c-0.2-0.2-0.5-0.4-0.9-0.4    c-0.2,0-0.3,0-0.5,0.1c-0.2,0.1-0.3,0.1-0.5,0.2v2.8c0.1,0,0.2,0.1,0.4,0.1c0.1,0,0.3,0,0.4,0c0.5,0,0.8-0.1,1-0.4    C219.1,13.3,219.2,12.9,219.2,12.4z"/> 		<path d="M227.9,12.4c0,0.9-0.3,1.6-0.8,2.1c-0.5,0.5-1.3,0.8-2.2,0.8c-1,0-1.7-0.3-2.2-0.8c-0.5-0.5-0.8-1.2-0.8-2.1    c0-0.9,0.3-1.6,0.8-2.1c0.5-0.5,1.3-0.8,2.2-0.8c1,0,1.7,0.3,2.2,0.8C227.6,10.8,227.9,11.5,227.9,12.4z M225.7,13.8    c0.1-0.1,0.2-0.3,0.3-0.5c0.1-0.2,0.1-0.5,0.1-0.8c0-0.3,0-0.6-0.1-0.8c-0.1-0.2-0.1-0.4-0.2-0.5c-0.1-0.1-0.2-0.2-0.4-0.3    c-0.1-0.1-0.3-0.1-0.5-0.1c-0.2,0-0.3,0-0.5,0.1c-0.1,0-0.3,0.1-0.4,0.3c-0.1,0.1-0.2,0.3-0.3,0.5c-0.1,0.2-0.1,0.5-0.1,0.8    c0,0.3,0,0.6,0.1,0.8c0.1,0.2,0.1,0.4,0.2,0.5c0.1,0.1,0.2,0.2,0.4,0.3c0.1,0.1,0.3,0.1,0.5,0.1c0.2,0,0.3,0,0.5-0.1    C225.5,14,225.6,13.9,225.7,13.8z"/> 		<path d="M233.1,11.4h-0.2c-0.1,0-0.2,0-0.4-0.1c-0.2,0-0.3,0-0.4,0c-0.3,0-0.5,0-0.7,0c-0.2,0-0.4,0.1-0.6,0.2v3.7h-1.8V9.7h1.8    v0.8c0.4-0.3,0.7-0.6,1-0.7c0.3-0.1,0.5-0.2,0.8-0.2c0.1,0,0.1,0,0.2,0c0.1,0,0.1,0,0.2,0V11.4z"/> 		<path d="M239.4,15.2h-1.8v-0.6c-0.3,0.2-0.6,0.4-0.8,0.5c-0.3,0.1-0.6,0.2-0.9,0.2c-0.7,0-1.2-0.3-1.6-0.8    c-0.4-0.5-0.6-1.2-0.6-2.1c0-0.5,0.1-0.9,0.2-1.2c0.1-0.4,0.3-0.7,0.6-0.9c0.2-0.2,0.5-0.4,0.8-0.6s0.6-0.2,0.9-0.2    c0.3,0,0.6,0,0.8,0.1c0.2,0.1,0.4,0.2,0.6,0.3V7.6h1.8V15.2z M237.7,13.7V11c-0.1-0.1-0.3-0.1-0.4-0.1c-0.1,0-0.3,0-0.4,0    c-0.5,0-0.8,0.1-1,0.4c-0.2,0.3-0.3,0.7-0.3,1.2c0,0.5,0.1,0.9,0.3,1.2c0.2,0.2,0.5,0.4,0.9,0.4c0.2,0,0.3,0,0.5-0.1    C237.4,13.8,237.5,13.8,237.7,13.7z"/> 		<path d="M244.4,14.6c-0.1,0.1-0.2,0.2-0.4,0.3c-0.1,0.1-0.3,0.2-0.4,0.2c-0.2,0.1-0.4,0.1-0.5,0.2s-0.4,0.1-0.6,0.1    c-0.5,0-1-0.2-1.3-0.5s-0.5-0.7-0.5-1.2c0-0.4,0.1-0.7,0.3-1s0.4-0.5,0.8-0.6c0.3-0.1,0.7-0.3,1.2-0.3c0.5-0.1,1-0.1,1.5-0.1v0    c0-0.3-0.1-0.5-0.4-0.6s-0.6-0.2-1.1-0.2c-0.3,0-0.6,0.1-0.9,0.2s-0.6,0.2-0.7,0.2h-0.2V9.8c0.2,0,0.5-0.1,0.9-0.2    c0.4-0.1,0.8-0.1,1.3-0.1c1,0,1.7,0.2,2.2,0.5s0.7,0.8,0.7,1.4v3.7h-1.7V14.6z M244.8,8.9h-1.2l-1.7-1.8V7h1.7L244.8,8.9z     M244.4,13.7v-1.1c-0.2,0-0.5,0-0.8,0.1c-0.3,0-0.5,0.1-0.6,0.1c-0.2,0.1-0.3,0.1-0.4,0.2s-0.1,0.2-0.1,0.4c0,0.1,0,0.2,0,0.3    c0,0.1,0.1,0.1,0.1,0.2c0.1,0.1,0.2,0.1,0.3,0.1s0.3,0,0.5,0c0.2,0,0.4,0,0.5-0.1S244.3,13.8,244.4,13.7z"/> 	</g> 	<g> 		<path d="M41.8,192.6c-0.3,0.1-0.8,0.3-1.3,0.4s-1.1,0.2-1.6,0.2c-1.2,0-2.2-0.3-2.9-1s-1-1.6-1-2.8c0-1.1,0.4-2,1.1-2.7s1.7-1,3-1    c0.5,0,0.9,0,1.4,0.1s0.9,0.3,1.4,0.5v1.7h-0.2c-0.1-0.1-0.2-0.2-0.4-0.3s-0.3-0.2-0.5-0.3c-0.2-0.1-0.4-0.2-0.7-0.3    c-0.3-0.1-0.5-0.1-0.8-0.1c-0.3,0-0.6,0-0.9,0.1s-0.5,0.2-0.7,0.4c-0.2,0.2-0.4,0.4-0.5,0.7s-0.2,0.6-0.2,1c0,0.8,0.2,1.4,0.6,1.8    c0.4,0.4,1.1,0.6,1.9,0.6c0.1,0,0.2,0,0.2,0c0.1,0,0.2,0,0.2,0v-1.4h-1.5v-1.4h3.4V192.6z"/> 		<path d="M45.2,186.8h-1.9v-1.3h1.9V186.8z M45.1,193.1h-1.8v-5.5h1.8V193.1z"/> 		<path d="M50.8,189.3h-0.2c-0.1,0-0.2,0-0.4-0.1c-0.2,0-0.3,0-0.4,0c-0.3,0-0.5,0-0.7,0c-0.2,0-0.4,0.1-0.6,0.2v3.7h-1.8v-5.5h1.8    v0.8c0.4-0.3,0.7-0.6,1-0.7c0.3-0.1,0.5-0.2,0.8-0.2c0.1,0,0.1,0,0.2,0c0.1,0,0.1,0,0.2,0V189.3z"/> 		<path d="M57.4,190.3c0,0.9-0.3,1.6-0.8,2.1c-0.5,0.5-1.3,0.8-2.2,0.8c-1,0-1.7-0.3-2.2-0.8c-0.5-0.5-0.8-1.2-0.8-2.1    c0-0.9,0.3-1.6,0.8-2.1c0.5-0.5,1.3-0.8,2.2-0.8c1,0,1.7,0.3,2.2,0.8C57.1,188.7,57.4,189.4,57.4,190.3z M55.2,191.7    c0.1-0.1,0.2-0.3,0.3-0.5c0.1-0.2,0.1-0.5,0.1-0.8c0-0.3,0-0.6-0.1-0.8c-0.1-0.2-0.1-0.4-0.2-0.5c-0.1-0.1-0.2-0.2-0.4-0.3    c-0.1-0.1-0.3-0.1-0.5-0.1c-0.2,0-0.3,0-0.5,0.1c-0.1,0-0.3,0.1-0.4,0.3c-0.1,0.1-0.2,0.3-0.3,0.5c-0.1,0.2-0.1,0.5-0.1,0.8    c0,0.3,0,0.6,0.1,0.8c0.1,0.2,0.1,0.4,0.2,0.5c0.1,0.1,0.2,0.2,0.4,0.3c0.1,0.1,0.3,0.1,0.5,0.1c0.2,0,0.3,0,0.5-0.1    C55,191.9,55.1,191.8,55.2,191.7z"/> 		<path d="M64.1,193.1h-1.8v-2.7c0-0.2,0-0.4,0-0.7c0-0.2-0.1-0.4-0.1-0.5c-0.1-0.1-0.2-0.2-0.3-0.3c-0.1-0.1-0.3-0.1-0.5-0.1    c-0.2,0-0.3,0-0.5,0.1c-0.2,0.1-0.3,0.1-0.5,0.2v3.9h-1.8v-5.5h1.8v0.6c0.3-0.2,0.6-0.4,0.9-0.6c0.3-0.1,0.6-0.2,1-0.2    c0.6,0,1.1,0.2,1.4,0.5c0.3,0.3,0.5,0.9,0.5,1.5V193.1z"/> 		<path d="M71.1,190.6h-4c0,0.4,0.2,0.8,0.5,1c0.3,0.2,0.7,0.3,1.3,0.3c0.4,0,0.7-0.1,1.1-0.2c0.3-0.1,0.6-0.3,0.8-0.4H71v1.4    c-0.4,0.2-0.8,0.3-1.1,0.3c-0.4,0.1-0.7,0.1-1.2,0.1c-1.1,0-1.9-0.2-2.5-0.7c-0.6-0.5-0.9-1.2-0.9-2.1c0-0.9,0.3-1.6,0.8-2.2    c0.6-0.5,1.3-0.8,2.3-0.8c0.9,0,1.6,0.2,2,0.7s0.7,1.1,0.7,1.9V190.6z M69.5,186.8h-1.2l-1.7-1.8v-0.1h1.7L69.5,186.8z     M69.4,189.6c0-0.4-0.1-0.6-0.3-0.8c-0.2-0.2-0.4-0.3-0.8-0.3c-0.3,0-0.6,0.1-0.8,0.3c-0.2,0.2-0.3,0.5-0.4,0.8H69.4z"/> 		<path d="M77.1,191.3c0,0.6-0.3,1-0.8,1.4s-1.2,0.5-2.1,0.5c-0.5,0-0.9,0-1.3-0.1c-0.4-0.1-0.7-0.2-1-0.3v-1.4h0.2    c0.1,0.1,0.2,0.1,0.3,0.2s0.3,0.2,0.5,0.2c0.2,0.1,0.4,0.1,0.6,0.2s0.5,0.1,0.7,0.1c0.3,0,0.6,0,0.8-0.1s0.2-0.2,0.2-0.3    c0-0.1,0-0.2-0.1-0.3s-0.3-0.1-0.6-0.2c-0.1,0-0.3-0.1-0.5-0.1s-0.4-0.1-0.6-0.1c-0.5-0.1-0.9-0.3-1.1-0.6s-0.4-0.6-0.4-1    c0-0.5,0.3-1,0.7-1.3s1.2-0.5,2-0.5c0.4,0,0.8,0,1.2,0.1s0.7,0.2,0.9,0.3v1.4h-0.2c-0.3-0.2-0.6-0.3-0.9-0.4s-0.7-0.2-1-0.2    c-0.3,0-0.5,0-0.7,0.1s-0.3,0.2-0.3,0.3c0,0.1,0,0.2,0.1,0.3s0.3,0.1,0.6,0.2c0.2,0,0.4,0.1,0.6,0.1s0.4,0.1,0.6,0.1    c0.5,0.1,0.8,0.3,1,0.6S77.1,190.9,77.1,191.3z"/> 	</g> 	<g> 		<path d="M18.5,46.7c0,0.3-0.1,0.6-0.2,1s-0.3,0.6-0.5,0.8c-0.3,0.3-0.6,0.5-1,0.6s-0.8,0.2-1.3,0.2h-1.2v2.4h-1.9v-7.3h3.1    c0.5,0,0.9,0,1.2,0.1s0.6,0.2,0.8,0.4c0.3,0.2,0.5,0.4,0.7,0.7C18.4,45.9,18.5,46.3,18.5,46.7z M16.6,46.8c0-0.2-0.1-0.4-0.2-0.5    S16.2,46,16,45.9c-0.2-0.1-0.4-0.1-0.6-0.1s-0.4,0-0.7,0h-0.3v2.2h0.5c0.3,0,0.6,0,0.8-0.1c0.2,0,0.4-0.1,0.5-0.2    c0.1-0.1,0.2-0.2,0.3-0.4S16.6,47,16.6,46.8z"/> 		<path d="M21.5,51.7h-1.8v-7.6h1.8V51.7z"/> 		<path d="M26.5,51.1c-0.1,0.1-0.2,0.2-0.4,0.3c-0.1,0.1-0.3,0.2-0.4,0.2c-0.2,0.1-0.4,0.1-0.5,0.2s-0.4,0.1-0.6,0.1    c-0.5,0-1-0.2-1.3-0.5s-0.5-0.7-0.5-1.2c0-0.4,0.1-0.7,0.3-1s0.4-0.5,0.8-0.6c0.3-0.1,0.7-0.3,1.2-0.3c0.5-0.1,1-0.1,1.5-0.1v0    c0-0.3-0.1-0.5-0.4-0.6s-0.6-0.2-1.1-0.2c-0.3,0-0.6,0.1-0.9,0.2s-0.6,0.2-0.7,0.2h-0.2v-1.3c0.2,0,0.5-0.1,0.9-0.2S25,46,25.4,46    c1,0,1.7,0.2,2.2,0.5s0.7,0.8,0.7,1.4v3.7h-1.7V51.1z M26.5,50.3v-1.1c-0.2,0-0.5,0-0.8,0.1c-0.3,0-0.5,0.1-0.6,0.1    c-0.2,0.1-0.3,0.1-0.4,0.2s-0.1,0.2-0.1,0.4c0,0.1,0,0.2,0,0.3c0,0.1,0.1,0.1,0.1,0.2c0.1,0.1,0.2,0.1,0.3,0.1s0.3,0,0.5,0    c0.2,0,0.4,0,0.5-0.1S26.4,50.4,26.5,50.3z"/> 		<path d="M38.6,51.7h-1.8v-0.6c-0.3,0.2-0.6,0.4-0.8,0.5c-0.3,0.1-0.6,0.2-0.9,0.2c-0.7,0-1.2-0.3-1.6-0.8    c-0.4-0.5-0.6-1.2-0.6-2.1c0-0.5,0.1-0.9,0.2-1.2s0.3-0.7,0.6-0.9c0.2-0.2,0.5-0.4,0.8-0.6s0.6-0.2,0.9-0.2c0.3,0,0.6,0,0.8,0.1    c0.2,0.1,0.4,0.2,0.6,0.3v-2.3h1.8V51.7z M36.8,50.2v-2.7c-0.1-0.1-0.3-0.1-0.4-0.1c-0.1,0-0.3,0-0.4,0c-0.5,0-0.8,0.1-1,0.4    c-0.2,0.3-0.3,0.7-0.3,1.2c0,0.5,0.1,0.9,0.3,1.2s0.5,0.4,0.9,0.4c0.2,0,0.3,0,0.5-0.1C36.5,50.4,36.7,50.3,36.8,50.2z"/> 		<path d="M45.7,49.3h-4c0,0.4,0.2,0.8,0.5,1c0.3,0.2,0.7,0.3,1.3,0.3c0.4,0,0.7-0.1,1.1-0.2c0.3-0.1,0.6-0.3,0.8-0.4h0.2v1.4    c-0.4,0.2-0.8,0.3-1.1,0.3c-0.4,0.1-0.7,0.1-1.2,0.1c-1.1,0-1.9-0.2-2.5-0.7c-0.6-0.5-0.9-1.2-0.9-2.1c0-0.9,0.3-1.6,0.8-2.2    C41.2,46.3,42,46,43,46c0.9,0,1.6,0.2,2,0.7s0.7,1.1,0.7,1.9V49.3z M43.9,48.2c0-0.4-0.1-0.6-0.3-0.8c-0.2-0.2-0.4-0.3-0.8-0.3    c-0.3,0-0.6,0.1-0.8,0.3c-0.2,0.2-0.3,0.5-0.4,0.8H43.9z"/> 		<path d="M52.1,51.7h-1.8v-7.6h1.8V51.7z"/> 		<path d="M55.4,44.1L55.1,47H54l-0.3-2.9H55.4z"/> 		<path d="M62.4,51.7h-5.3v-7.3h5.3v1.4H59v1.3h3.1v1.4H59v1.8h3.4V51.7z"/> 		<path d="M68.7,50c0,0.6-0.3,1-0.8,1.4s-1.2,0.5-2.1,0.5c-0.5,0-0.9,0-1.3-0.1c-0.4-0.1-0.7-0.2-1-0.3V50h0.2    c0.1,0.1,0.2,0.1,0.3,0.2c0.1,0.1,0.3,0.2,0.5,0.2c0.2,0.1,0.4,0.1,0.6,0.2c0.2,0.1,0.5,0.1,0.7,0.1c0.3,0,0.6,0,0.8-0.1    s0.2-0.2,0.2-0.3c0-0.1,0-0.2-0.1-0.3s-0.3-0.1-0.6-0.2c-0.1,0-0.3-0.1-0.5-0.1c-0.2,0-0.4-0.1-0.6-0.1c-0.5-0.1-0.9-0.3-1.1-0.6    c-0.2-0.3-0.4-0.6-0.4-1c0-0.5,0.3-1,0.7-1.3c0.5-0.4,1.2-0.5,2-0.5c0.4,0,0.8,0,1.2,0.1s0.7,0.2,0.9,0.3v1.4h-0.2    c-0.3-0.2-0.6-0.3-0.9-0.4c-0.3-0.1-0.7-0.2-1-0.2c-0.3,0-0.5,0-0.7,0.1c-0.2,0.1-0.3,0.2-0.3,0.3c0,0.1,0,0.2,0.1,0.3    s0.3,0.1,0.6,0.2c0.2,0,0.4,0.1,0.6,0.1c0.2,0,0.4,0.1,0.6,0.1c0.5,0.1,0.8,0.3,1,0.6C68.5,49.2,68.7,49.6,68.7,50z"/> 		<path d="M73.3,51.6c-0.2,0-0.4,0.1-0.6,0.1c-0.2,0-0.5,0-0.8,0c-0.7,0-1.2-0.1-1.5-0.4c-0.3-0.3-0.5-0.8-0.5-1.4v-2.6h-0.7v-1.2    h0.7v-1.6h1.8v1.6h1.6v1.2h-1.6v1.9c0,0.2,0,0.4,0,0.5s0,0.3,0.1,0.4c0,0.1,0.1,0.2,0.2,0.3s0.3,0.1,0.5,0.1c0.1,0,0.2,0,0.4-0.1    c0.1,0,0.3-0.1,0.3-0.1h0.1V51.6z"/> 		<path d="M77.7,51.1c-0.1,0.1-0.2,0.2-0.4,0.3c-0.1,0.1-0.3,0.2-0.4,0.2c-0.2,0.1-0.4,0.1-0.5,0.2s-0.4,0.1-0.6,0.1    c-0.5,0-1-0.2-1.3-0.5S74,50.6,74,50.1c0-0.4,0.1-0.7,0.3-1c0.2-0.3,0.4-0.5,0.8-0.6c0.3-0.1,0.7-0.3,1.2-0.3    c0.5-0.1,1-0.1,1.5-0.1v0c0-0.3-0.1-0.5-0.4-0.6c-0.2-0.1-0.6-0.2-1.1-0.2c-0.3,0-0.6,0.1-0.9,0.2c-0.3,0.1-0.6,0.2-0.7,0.2h-0.2    v-1.3c0.2,0,0.5-0.1,0.9-0.2c0.4-0.1,0.8-0.1,1.3-0.1c1,0,1.7,0.2,2.2,0.5s0.7,0.8,0.7,1.4v3.7h-1.7V51.1z M77.7,50.3v-1.1    c-0.2,0-0.5,0-0.8,0.1c-0.3,0-0.5,0.1-0.6,0.1c-0.2,0.1-0.3,0.1-0.4,0.2s-0.1,0.2-0.1,0.4c0,0.1,0,0.2,0,0.3    c0,0.1,0.1,0.1,0.1,0.2c0.1,0.1,0.2,0.1,0.3,0.1c0.1,0,0.3,0,0.5,0c0.2,0,0.4,0,0.5-0.1S77.6,50.4,77.7,50.3z"/> 		<path d="M86.6,51.7h-1.8V49c0-0.2,0-0.4,0-0.7c0-0.2-0.1-0.4-0.1-0.5c-0.1-0.1-0.2-0.2-0.3-0.3c-0.1-0.1-0.3-0.1-0.5-0.1    c-0.2,0-0.3,0-0.5,0.1c-0.2,0.1-0.3,0.1-0.5,0.2v3.9h-1.8v-5.5h1.8v0.6c0.3-0.2,0.6-0.4,0.9-0.6c0.3-0.1,0.6-0.2,1-0.2    c0.6,0,1.1,0.2,1.4,0.5c0.3,0.3,0.5,0.9,0.5,1.5V51.7z"/> 		<path d="M90.7,49.8l1.3-3.5h1.8l-3,7.5h-1.9l0.9-2.1l-2.1-5.4h1.8L90.7,49.8z"/> 	</g> 	<g> 		<path d="M35.9,407.4c0,0.7-0.3,1.3-0.9,1.7c-0.6,0.4-1.4,0.7-2.5,0.7c-0.6,0-1.1-0.1-1.6-0.2c-0.4-0.1-0.9-0.2-1.3-0.4v-1.7h0.2    c0.4,0.3,0.8,0.5,1.3,0.7s0.9,0.2,1.4,0.2c0.1,0,0.3,0,0.4,0s0.3-0.1,0.5-0.1c0.1-0.1,0.3-0.1,0.4-0.2s0.1-0.2,0.1-0.4    c0-0.2-0.1-0.3-0.2-0.4c-0.1-0.1-0.3-0.2-0.6-0.3c-0.3-0.1-0.6-0.1-0.9-0.2c-0.3-0.1-0.6-0.1-0.9-0.2c-0.6-0.2-1.1-0.5-1.3-0.8    c-0.3-0.3-0.4-0.8-0.4-1.3c0-0.7,0.3-1.2,0.9-1.7c0.6-0.4,1.4-0.6,2.3-0.6c0.5,0,1,0,1.4,0.1s0.9,0.2,1.2,0.3v1.7h-0.2    c-0.3-0.2-0.7-0.4-1.1-0.6c-0.4-0.2-0.9-0.2-1.3-0.2c-0.2,0-0.3,0-0.5,0c-0.2,0-0.3,0.1-0.4,0.1c-0.1,0-0.2,0.1-0.3,0.2    c-0.1,0.1-0.1,0.2-0.1,0.3c0,0.2,0.1,0.3,0.2,0.4s0.4,0.2,0.8,0.3c0.3,0.1,0.5,0.1,0.8,0.2s0.5,0.1,0.8,0.2c0.6,0.2,1,0.4,1.2,0.7    C35.8,406.5,35.9,406.9,35.9,407.4z"/> 		<path d="M42.5,407.3h-4c0,0.4,0.2,0.8,0.5,1s0.7,0.3,1.3,0.3c0.4,0,0.7-0.1,1.1-0.2c0.3-0.1,0.6-0.3,0.8-0.4h0.2v1.4    c-0.4,0.2-0.8,0.3-1.1,0.3s-0.7,0.1-1.2,0.1c-1.1,0-1.9-0.2-2.5-0.7s-0.9-1.2-0.9-2.1c0-0.9,0.3-1.6,0.8-2.2    c0.6-0.5,1.3-0.8,2.3-0.8c0.9,0,1.6,0.2,2,0.7c0.4,0.5,0.7,1.1,0.7,1.9V407.3z M40.8,406.2c0-0.4-0.1-0.6-0.3-0.8    c-0.2-0.2-0.4-0.3-0.8-0.3c-0.3,0-0.6,0.1-0.8,0.3c-0.2,0.2-0.3,0.5-0.4,0.8H40.8z"/> 		<path d="M45.5,409.7h-1.8v-7.6h1.8V409.7z"/> 		<path d="M52.7,404.2l-2.1,5.5h-2l-2.1-5.5h1.9l1.3,3.8l1.3-3.8H52.7z"/> 		<path d="M57,409.1c-0.1,0.1-0.2,0.2-0.4,0.3c-0.1,0.1-0.3,0.2-0.4,0.2c-0.2,0.1-0.4,0.1-0.5,0.2c-0.2,0-0.4,0.1-0.6,0.1    c-0.5,0-1-0.2-1.3-0.5s-0.5-0.7-0.5-1.2c0-0.4,0.1-0.7,0.3-1c0.2-0.3,0.4-0.5,0.8-0.6c0.3-0.1,0.7-0.3,1.2-0.3    c0.5-0.1,1-0.1,1.5-0.1v0c0-0.3-0.1-0.5-0.4-0.6c-0.2-0.1-0.6-0.2-1.1-0.2c-0.3,0-0.6,0.1-0.9,0.2c-0.3,0.1-0.6,0.2-0.7,0.2h-0.2    v-1.3c0.2,0,0.5-0.1,0.9-0.2c0.4-0.1,0.8-0.1,1.3-0.1c1,0,1.7,0.2,2.2,0.5s0.7,0.8,0.7,1.4v3.7H57V409.1z M57,408.3v-1.1    c-0.2,0-0.5,0-0.8,0.1c-0.3,0-0.5,0.1-0.6,0.1c-0.2,0.1-0.3,0.1-0.4,0.2s-0.1,0.2-0.1,0.4c0,0.1,0,0.2,0,0.3    c0,0.1,0.1,0.1,0.1,0.2c0.1,0.1,0.2,0.1,0.3,0.1c0.1,0,0.3,0,0.5,0c0.2,0,0.4,0,0.5-0.1C56.7,408.5,56.9,408.4,57,408.3z"/> 	</g> </g> <g id="topos_x005F_ok"> 	<g> 		<circle style="fill:#5B7EBD;" cx="277.2" cy="326.2" r="2.4"/> 	</g> 	<g> 		<circle style="fill:#5B7EBD;" cx="207.7" cy="391" r="2.4"/> 	</g> 	<g> 		<circle style="fill:#5B7EBD;" cx="206.5" cy="223.8" r="2.4"/> 	</g> 	<g> 		<circle style="fill:#5B7EBD;" cx="278" cy="252.6" r="2.4"/> 	</g> 	<g> 		<circle style="fill:#5B7EBD;" cx="332.5" cy="109.1" r="2.4"/> 	</g> 	<g> 		<circle style="fill:#5B7EBD;" cx="326" cy="181.6" r="2.4"/> 	</g> 	<g> 		<circle style="fill:#5B7EBD;" cx="216.5" cy="110.1" r="2.4"/> 	</g> 	<g> 		<circle style="fill:#5B7EBD;" cx="272.5" cy="127.1" r="2.4"/> 	</g> </g> <g id="text_x005F_ciutats"> 	<g> 		<path d="M181.4,239h-0.9v-7.6h0.9V239z"/> 		<path d="M187.2,239h-0.9v-0.6c-0.1,0.1-0.2,0.1-0.3,0.2c-0.1,0.1-0.3,0.2-0.4,0.2c-0.1,0.1-0.3,0.1-0.5,0.2    c-0.2,0.1-0.4,0.1-0.7,0.1c-0.5,0-0.9-0.2-1.2-0.5c-0.3-0.3-0.5-0.7-0.5-1.2c0-0.4,0.1-0.7,0.3-1c0.2-0.3,0.4-0.5,0.7-0.6    c0.3-0.1,0.7-0.2,1.1-0.3c0.4-0.1,0.9-0.1,1.4-0.1v-0.1c0-0.2,0-0.4-0.1-0.5s-0.2-0.2-0.3-0.3c-0.1-0.1-0.3-0.1-0.4-0.2    s-0.4,0-0.5,0c-0.2,0-0.5,0-0.8,0.1c-0.3,0.1-0.6,0.2-0.9,0.3h0v-0.9c0.2,0,0.4-0.1,0.7-0.2s0.6-0.1,0.9-0.1c0.4,0,0.7,0,0.9,0.1    s0.5,0.2,0.7,0.3c0.2,0.1,0.3,0.3,0.4,0.6s0.2,0.5,0.2,0.9V239z M186.3,237.7v-1.5c-0.3,0-0.6,0-0.9,0.1s-0.6,0.1-0.9,0.1    c-0.2,0.1-0.5,0.2-0.6,0.3c-0.2,0.2-0.2,0.4-0.2,0.7c0,0.3,0.1,0.5,0.3,0.7c0.2,0.2,0.5,0.2,0.8,0.2c0.3,0,0.6-0.1,0.8-0.2    C185.8,238,186.1,237.8,186.3,237.7z"/> 		<path d="M197.4,236.8c0,0.4-0.1,0.7-0.2,1c-0.1,0.3-0.3,0.5-0.5,0.7c-0.3,0.2-0.5,0.4-0.9,0.5c-0.3,0.1-0.7,0.1-1.2,0.1h-2.4v-7.3    h2c0.5,0,0.9,0,1.1,0.1c0.2,0,0.5,0.1,0.7,0.2c0.3,0.1,0.4,0.3,0.5,0.5s0.2,0.5,0.2,0.8c0,0.3-0.1,0.6-0.2,0.9    c-0.2,0.2-0.4,0.4-0.7,0.6v0c0.5,0.1,0.8,0.3,1.1,0.6C197.3,235.9,197.4,236.3,197.4,236.8z M195.9,233.5c0-0.2,0-0.3-0.1-0.4    c-0.1-0.1-0.1-0.2-0.3-0.3c-0.1-0.1-0.3-0.1-0.5-0.2c-0.2,0-0.5,0-0.8,0h-1.1v2.1h1.2c0.3,0,0.5,0,0.7,0c0.2,0,0.3-0.1,0.5-0.2    s0.2-0.2,0.3-0.4C195.8,233.9,195.9,233.7,195.9,233.5z M196.5,236.8c0-0.3,0-0.5-0.1-0.7s-0.2-0.3-0.5-0.4    c-0.1-0.1-0.3-0.1-0.5-0.2c-0.2,0-0.5,0-0.8,0h-1.4v2.7h1.2c0.4,0,0.7,0,1-0.1s0.5-0.1,0.6-0.2c0.2-0.1,0.3-0.3,0.4-0.4    S196.5,237.1,196.5,236.8z"/> 		<path d="M199.6,232.6h-1v-1h1V232.6z M199.5,239h-0.9v-5.5h0.9V239z"/> 		<path d="M204.6,236.5c0.2,0.2,0.3,0.6,0.3,1c0,0.5-0.2,0.9-0.6,1.2s-0.9,0.5-1.6,0.5c-0.4,0-0.7,0-1-0.1c-0.3-0.1-0.6-0.2-0.8-0.3    v-1h0c0.3,0.2,0.6,0.4,0.9,0.5c0.3,0.1,0.7,0.2,1,0.2c0.4,0,0.7-0.1,0.9-0.2s0.3-0.3,0.3-0.6c0-0.2-0.1-0.4-0.2-0.5    c-0.1-0.1-0.3-0.2-0.7-0.3c-0.1,0-0.3-0.1-0.5-0.1c-0.2,0-0.4-0.1-0.5-0.1c-0.5-0.1-0.8-0.3-1-0.6c-0.2-0.2-0.3-0.5-0.3-0.9    c0-0.2,0-0.4,0.1-0.6c0.1-0.2,0.2-0.4,0.4-0.5c0.2-0.2,0.4-0.3,0.7-0.4c0.3-0.1,0.6-0.1,0.9-0.1c0.3,0,0.6,0,0.9,0.1    c0.3,0.1,0.6,0.2,0.8,0.3v1h0c-0.2-0.2-0.5-0.3-0.8-0.4c-0.3-0.1-0.6-0.2-0.9-0.2c-0.3,0-0.6,0.1-0.8,0.2    c-0.2,0.1-0.3,0.3-0.3,0.6c0,0.2,0.1,0.4,0.2,0.5c0.1,0.1,0.3,0.2,0.6,0.3c0.2,0,0.3,0.1,0.5,0.1c0.2,0,0.4,0.1,0.5,0.1    C204,236.1,204.4,236.2,204.6,236.5L204.6,236.5z"/> 		<path d="M210.7,236.2c0,0.5-0.1,0.9-0.2,1.2s-0.3,0.7-0.5,0.9c-0.2,0.3-0.5,0.5-0.7,0.6c-0.3,0.1-0.5,0.2-0.9,0.2    c-0.3,0-0.5,0-0.8-0.1c-0.2-0.1-0.4-0.2-0.6-0.3L207,239h-0.8v-7.6h0.9v2.7c0.2-0.2,0.5-0.4,0.8-0.5c0.3-0.1,0.6-0.2,0.9-0.2    c0.6,0,1.1,0.2,1.4,0.7C210.5,234.6,210.7,235.3,210.7,236.2z M209.8,236.3c0-0.7-0.1-1.1-0.3-1.5c-0.2-0.3-0.5-0.5-1-0.5    c-0.3,0-0.5,0.1-0.8,0.2c-0.3,0.1-0.5,0.3-0.7,0.4v3.1c0.2,0.1,0.5,0.2,0.6,0.2s0.4,0.1,0.6,0.1c0.5,0,0.9-0.2,1.1-0.5    C209.6,237.5,209.8,237,209.8,236.3z"/> 		<path d="M216,239h-0.9v-0.6c-0.1,0.1-0.2,0.1-0.3,0.2c-0.1,0.1-0.3,0.2-0.4,0.2c-0.1,0.1-0.3,0.1-0.5,0.2    c-0.2,0.1-0.4,0.1-0.7,0.1c-0.5,0-0.9-0.2-1.2-0.5c-0.3-0.3-0.5-0.7-0.5-1.2c0-0.4,0.1-0.7,0.3-1c0.2-0.3,0.4-0.5,0.7-0.6    c0.3-0.1,0.7-0.2,1.1-0.3s0.9-0.1,1.4-0.1v-0.1c0-0.2,0-0.4-0.1-0.5c-0.1-0.1-0.2-0.2-0.3-0.3c-0.1-0.1-0.3-0.1-0.4-0.2    s-0.4,0-0.5,0c-0.2,0-0.5,0-0.8,0.1c-0.3,0.1-0.6,0.2-0.9,0.3h0v-0.9c0.2,0,0.4-0.1,0.7-0.2s0.6-0.1,0.9-0.1c0.4,0,0.7,0,0.9,0.1    c0.3,0.1,0.5,0.2,0.7,0.3c0.2,0.1,0.3,0.3,0.4,0.6c0.1,0.2,0.2,0.5,0.2,0.9V239z M215.2,237.7v-1.5c-0.3,0-0.6,0-0.9,0.1    s-0.6,0.1-0.9,0.1c-0.2,0.1-0.5,0.2-0.6,0.3c-0.2,0.2-0.2,0.4-0.2,0.7c0,0.3,0.1,0.5,0.3,0.7c0.2,0.2,0.5,0.2,0.8,0.2    c0.3,0,0.6-0.1,0.8-0.2C214.7,238,215,237.8,215.2,237.7z"/> 		<path d="M218.6,239h-0.9v-7.6h0.9V239z"/> 		<path d="M184.7,249h-0.9v-0.6c-0.2,0.2-0.5,0.4-0.8,0.5c-0.3,0.1-0.6,0.2-0.9,0.2c-0.6,0-1.1-0.3-1.5-0.8s-0.5-1.2-0.5-2.1    c0-0.5,0.1-0.9,0.2-1.2s0.3-0.7,0.5-0.9c0.2-0.2,0.5-0.4,0.7-0.6s0.6-0.2,0.9-0.2c0.3,0,0.5,0,0.7,0.1c0.2,0.1,0.4,0.2,0.7,0.3    v-2.4h0.9V249z M183.9,247.7v-3.1c-0.2-0.1-0.4-0.2-0.6-0.2s-0.4-0.1-0.6-0.1c-0.5,0-0.9,0.2-1.1,0.5c-0.3,0.4-0.4,0.9-0.4,1.5    c0,0.6,0.1,1.1,0.3,1.5c0.2,0.3,0.5,0.5,1,0.5c0.2,0,0.5-0.1,0.7-0.2C183.4,248,183.7,247.9,183.9,247.7z"/> 		<path d="M187.4,241.4l-0.2,2.8h-0.6l-0.2-2.8H187.4z"/> 		<path d="M193.6,249h-4.5v-7.3h4.5v0.9H190v2h3.6v0.9H190v2.7h3.6V249z"/> 		<path d="M202.5,249h-0.9v-3.1c0-0.2,0-0.5,0-0.7s-0.1-0.4-0.1-0.5c-0.1-0.1-0.2-0.2-0.3-0.3c-0.1-0.1-0.3-0.1-0.6-0.1    c-0.2,0-0.5,0.1-0.7,0.2c-0.2,0.1-0.5,0.3-0.7,0.5c0,0.1,0,0.2,0,0.3c0,0.1,0,0.2,0,0.3v3.5h-0.9v-3.1c0-0.2,0-0.5,0-0.7    c0-0.2-0.1-0.4-0.1-0.5c-0.1-0.1-0.2-0.2-0.3-0.3c-0.1-0.1-0.3-0.1-0.6-0.1c-0.2,0-0.5,0.1-0.7,0.2s-0.5,0.3-0.7,0.5v4.1H195v-5.5    h0.9v0.6c0.3-0.2,0.5-0.4,0.8-0.6c0.3-0.1,0.6-0.2,0.9-0.2c0.4,0,0.6,0.1,0.9,0.2s0.4,0.4,0.5,0.6c0.4-0.3,0.7-0.5,1-0.7    c0.3-0.1,0.6-0.2,0.9-0.2c0.6,0,1,0.2,1.3,0.5c0.3,0.4,0.4,0.9,0.4,1.5V249z"/> 		<path d="M208.7,246.2c0,0.4-0.1,0.8-0.2,1.2s-0.3,0.7-0.5,0.9c-0.2,0.2-0.4,0.4-0.7,0.6s-0.6,0.2-0.9,0.2c-0.3,0-0.5,0-0.7-0.1    c-0.2-0.1-0.4-0.2-0.7-0.3v2.3h-0.9v-7.5h0.9v0.6c0.2-0.2,0.5-0.4,0.8-0.5c0.3-0.1,0.6-0.2,0.9-0.2c0.6,0,1.1,0.2,1.5,0.7    C208.5,244.7,208.7,245.3,208.7,246.2z M207.8,246.2c0-0.7-0.1-1.1-0.3-1.5s-0.5-0.5-1-0.5c-0.2,0-0.5,0.1-0.8,0.2    c-0.3,0.1-0.5,0.3-0.7,0.4v3.1c0.2,0.1,0.5,0.2,0.6,0.2s0.4,0.1,0.6,0.1c0.5,0,0.9-0.2,1.1-0.5    C207.7,247.4,207.8,246.9,207.8,246.2z"/> 		<path d="M214.4,246.3c0,0.9-0.2,1.6-0.6,2.1s-1,0.8-1.7,0.8c-0.7,0-1.3-0.3-1.7-0.8s-0.6-1.2-0.6-2.1s0.2-1.6,0.6-2.1    c0.4-0.5,1-0.8,1.7-0.8c0.7,0,1.3,0.3,1.7,0.8C214.2,244.7,214.4,245.4,214.4,246.3z M213.5,246.3c0-0.7-0.1-1.2-0.4-1.6    c-0.3-0.3-0.6-0.5-1.1-0.5c-0.5,0-0.8,0.2-1.1,0.5c-0.3,0.3-0.4,0.9-0.4,1.6c0,0.7,0.1,1.2,0.4,1.6c0.3,0.4,0.6,0.5,1.1,0.5    c0.5,0,0.8-0.2,1.1-0.5C213.4,247.5,213.5,247,213.5,246.3z"/> 		<path d="M219,244.6L219,244.6c-0.2,0-0.3-0.1-0.4-0.1s-0.3,0-0.4,0c-0.3,0-0.5,0.1-0.8,0.2c-0.2,0.1-0.5,0.3-0.7,0.5v3.9h-0.9    v-5.5h0.9v0.8c0.3-0.3,0.6-0.5,0.9-0.6s0.5-0.2,0.8-0.2c0.2,0,0.3,0,0.3,0c0.1,0,0.2,0,0.3,0V244.6z"/> 		<path d="M224,249h-0.9v-0.6c-0.2,0.2-0.5,0.4-0.8,0.5c-0.3,0.1-0.6,0.2-0.9,0.2c-0.6,0-1.1-0.3-1.5-0.8c-0.4-0.5-0.5-1.2-0.5-2.1    c0-0.5,0.1-0.9,0.2-1.2s0.3-0.7,0.5-0.9c0.2-0.2,0.5-0.4,0.7-0.6s0.6-0.2,0.9-0.2c0.3,0,0.5,0,0.7,0.1c0.2,0.1,0.4,0.2,0.7,0.3    v-2.4h0.9V249z M223.1,247.7v-3.1c-0.2-0.1-0.4-0.2-0.6-0.2s-0.4-0.1-0.6-0.1c-0.5,0-0.9,0.2-1.1,0.5c-0.3,0.4-0.4,0.9-0.4,1.5    c0,0.6,0.1,1.1,0.3,1.5c0.2,0.3,0.5,0.5,1,0.5c0.2,0,0.5-0.1,0.7-0.2C222.7,248,222.9,247.9,223.1,247.7z"/> 		<path d="M229.7,249h-0.9v-0.6c-0.1,0.1-0.2,0.1-0.3,0.2c-0.1,0.1-0.3,0.2-0.4,0.2c-0.1,0.1-0.3,0.1-0.5,0.2    c-0.2,0.1-0.4,0.1-0.7,0.1c-0.5,0-0.9-0.2-1.2-0.5c-0.3-0.3-0.5-0.7-0.5-1.2c0-0.4,0.1-0.7,0.3-1c0.2-0.3,0.4-0.5,0.7-0.6    c0.3-0.1,0.7-0.2,1.1-0.3c0.4-0.1,0.9-0.1,1.4-0.1v-0.1c0-0.2,0-0.4-0.1-0.5s-0.2-0.2-0.3-0.3c-0.1-0.1-0.3-0.1-0.4-0.2    c-0.2,0-0.4,0-0.5,0c-0.2,0-0.5,0-0.8,0.1c-0.3,0.1-0.6,0.2-0.9,0.3h0v-0.9c0.2,0,0.4-0.1,0.7-0.2s0.6-0.1,0.9-0.1    c0.4,0,0.7,0,0.9,0.1c0.3,0.1,0.5,0.2,0.7,0.3c0.2,0.1,0.3,0.3,0.4,0.6s0.2,0.5,0.2,0.9V249z M228.8,247.7v-1.5    c-0.3,0-0.6,0-0.9,0.1s-0.6,0.1-0.9,0.1c-0.2,0.1-0.5,0.2-0.6,0.3c-0.2,0.2-0.2,0.4-0.2,0.7c0,0.3,0.1,0.5,0.3,0.7    c0.2,0.2,0.5,0.2,0.8,0.2c0.3,0,0.6-0.1,0.8-0.2C228.4,248,228.6,247.8,228.8,247.7z M228.3,242.7h-0.7l-1.3-1.8h1.1L228.3,242.7z    "/> 	</g> 	<g> 		<path d="M263,241.2c0,0.3-0.1,0.6-0.2,0.9c-0.1,0.3-0.3,0.5-0.4,0.7c-0.2,0.3-0.5,0.4-0.8,0.6c-0.3,0.1-0.7,0.2-1.2,0.2h-0.9v2.7    h-0.9V239h1.9c0.4,0,0.8,0,1,0.1s0.5,0.2,0.8,0.3c0.3,0.2,0.5,0.4,0.6,0.7S263,240.8,263,241.2z M262.1,241.2c0-0.3,0-0.5-0.1-0.7    s-0.2-0.3-0.4-0.5c-0.1-0.1-0.3-0.2-0.5-0.2s-0.4-0.1-0.7-0.1h-0.9v2.9h0.8c0.4,0,0.7,0,0.9-0.1c0.2-0.1,0.4-0.2,0.6-0.3    c0.1-0.2,0.2-0.3,0.3-0.5C262,241.6,262.1,241.4,262.1,241.2z"/> 		<path d="M267.9,246.3h-0.9v-0.6c-0.1,0.1-0.2,0.1-0.3,0.2c-0.1,0.1-0.3,0.2-0.4,0.2c-0.1,0.1-0.3,0.1-0.5,0.2    c-0.2,0.1-0.4,0.1-0.7,0.1c-0.5,0-0.9-0.2-1.2-0.5s-0.5-0.7-0.5-1.2c0-0.4,0.1-0.7,0.3-1c0.2-0.3,0.4-0.5,0.7-0.6    c0.3-0.1,0.7-0.2,1.1-0.3c0.4-0.1,0.9-0.1,1.4-0.1v-0.1c0-0.2,0-0.4-0.1-0.5s-0.2-0.2-0.3-0.3c-0.1-0.1-0.3-0.1-0.4-0.2    c-0.2,0-0.4,0-0.5,0c-0.2,0-0.5,0-0.8,0.1c-0.3,0.1-0.6,0.2-0.9,0.3h0v-0.9c0.2,0,0.4-0.1,0.7-0.2s0.6-0.1,0.9-0.1    c0.4,0,0.7,0,0.9,0.1c0.3,0.1,0.5,0.2,0.7,0.3c0.2,0.1,0.3,0.3,0.4,0.6s0.2,0.5,0.2,0.9V246.3z M267.1,244.9v-1.5    c-0.3,0-0.6,0-0.9,0.1c-0.4,0-0.6,0.1-0.9,0.1c-0.2,0.1-0.5,0.2-0.6,0.3c-0.2,0.2-0.2,0.4-0.2,0.7c0,0.3,0.1,0.5,0.3,0.7    c0.2,0.2,0.5,0.2,0.8,0.2c0.3,0,0.6-0.1,0.8-0.2C266.6,245.2,266.9,245.1,267.1,244.9z"/> 		<path d="M270.5,246.3h-0.9v-7.6h0.9V246.3z"/> 		<path d="M276.2,246.3h-0.9v-0.6c-0.1,0.1-0.2,0.1-0.3,0.2c-0.1,0.1-0.3,0.2-0.4,0.2c-0.1,0.1-0.3,0.1-0.5,0.2    c-0.2,0.1-0.4,0.1-0.7,0.1c-0.5,0-0.9-0.2-1.2-0.5c-0.3-0.3-0.5-0.7-0.5-1.2c0-0.4,0.1-0.7,0.3-1c0.2-0.3,0.4-0.5,0.7-0.6    c0.3-0.1,0.7-0.2,1.1-0.3s0.9-0.1,1.4-0.1v-0.1c0-0.2,0-0.4-0.1-0.5s-0.2-0.2-0.3-0.3c-0.1-0.1-0.3-0.1-0.4-0.2s-0.4,0-0.5,0    c-0.2,0-0.5,0-0.8,0.1c-0.3,0.1-0.6,0.2-0.9,0.3h0v-0.9c0.2,0,0.4-0.1,0.7-0.2c0.3-0.1,0.6-0.1,0.9-0.1c0.4,0,0.7,0,0.9,0.1    c0.3,0.1,0.5,0.2,0.7,0.3c0.2,0.1,0.3,0.3,0.4,0.6s0.2,0.5,0.2,0.9V246.3z M275.3,244.9v-1.5c-0.3,0-0.6,0-0.9,0.1    s-0.6,0.1-0.9,0.1c-0.2,0.1-0.5,0.2-0.6,0.3c-0.2,0.2-0.2,0.4-0.2,0.7c0,0.3,0.1,0.5,0.3,0.7c0.2,0.2,0.5,0.2,0.8,0.2    c0.3,0,0.6-0.1,0.8-0.2C274.9,245.2,275.1,245.1,275.3,244.9z"/> 		<path d="M280.6,239.5L280.6,239.5c-0.1,0-0.3-0.1-0.4-0.1c-0.2,0-0.3,0-0.4,0c-0.4,0-0.6,0.1-0.8,0.3c-0.2,0.2-0.3,0.5-0.3,0.9    v0.2h1.6v0.8h-1.5v4.7h-0.9v-4.7h-0.6v-0.8h0.6v-0.2c0-0.6,0.2-1.1,0.5-1.5s0.7-0.5,1.3-0.5c0.2,0,0.4,0,0.5,0s0.3,0,0.4,0.1    V239.5z"/> 		<path d="M284.4,241.8L284.4,241.8c-0.2,0-0.3-0.1-0.4-0.1c-0.1,0-0.3,0-0.4,0c-0.3,0-0.5,0.1-0.8,0.2c-0.2,0.1-0.5,0.3-0.7,0.5    v3.9h-0.9v-5.5h0.9v0.8c0.3-0.3,0.6-0.5,0.9-0.6s0.5-0.2,0.8-0.2c0.2,0,0.3,0,0.3,0c0.1,0,0.2,0,0.3,0V241.8z"/> 		<path d="M289.5,246.3h-0.9v-0.6c-0.3,0.2-0.6,0.4-0.8,0.6c-0.3,0.1-0.6,0.2-0.9,0.2c-0.5,0-1-0.2-1.3-0.5    c-0.3-0.3-0.5-0.9-0.5-1.5v-3.5h0.9v3.1c0,0.3,0,0.5,0,0.7c0,0.2,0.1,0.4,0.2,0.5c0.1,0.1,0.2,0.2,0.3,0.3s0.3,0.1,0.6,0.1    c0.2,0,0.5-0.1,0.7-0.2c0.3-0.1,0.5-0.3,0.7-0.5v-4.1h0.9V246.3z"/> 		<path d="M295.4,245.6c0,0.9-0.2,1.6-0.6,2c-0.4,0.4-1,0.6-1.8,0.6c-0.3,0-0.5,0-0.8-0.1c-0.3,0-0.5-0.1-0.8-0.2v-0.9h0    c0.1,0.1,0.4,0.1,0.7,0.2c0.3,0.1,0.6,0.1,0.9,0.1c0.3,0,0.5,0,0.7-0.1c0.2-0.1,0.3-0.2,0.5-0.3c0.1-0.1,0.2-0.3,0.2-0.5    c0-0.2,0.1-0.4,0.1-0.6v-0.5c-0.3,0.2-0.5,0.4-0.7,0.5c-0.2,0.1-0.5,0.2-0.9,0.2c-0.6,0-1.1-0.2-1.5-0.7c-0.4-0.5-0.5-1.1-0.5-2    c0-0.5,0.1-0.9,0.2-1.2c0.1-0.3,0.3-0.6,0.5-0.9c0.2-0.2,0.4-0.4,0.7-0.5c0.3-0.1,0.6-0.2,0.9-0.2c0.3,0,0.5,0,0.8,0.1    s0.4,0.2,0.6,0.3l0.1-0.2h0.8V245.6z M294.5,244.8v-3c-0.2-0.1-0.4-0.2-0.6-0.2c-0.2,0-0.4-0.1-0.6-0.1c-0.5,0-0.9,0.2-1.1,0.5    s-0.4,0.8-0.4,1.5c0,0.6,0.1,1.1,0.3,1.4c0.2,0.3,0.5,0.5,1,0.5c0.3,0,0.5-0.1,0.8-0.2C294.1,245.1,294.3,244.9,294.5,244.8z"/> 		<path d="M301.4,243.6h-3.8c0,0.3,0,0.6,0.1,0.9c0.1,0.2,0.2,0.5,0.4,0.6c0.2,0.2,0.3,0.3,0.6,0.4c0.2,0.1,0.5,0.1,0.7,0.1    c0.4,0,0.7-0.1,1.1-0.2c0.4-0.1,0.6-0.3,0.8-0.4h0v1c-0.3,0.1-0.6,0.2-0.9,0.3s-0.6,0.1-1,0.1c-0.9,0-1.5-0.2-2-0.7    c-0.5-0.5-0.7-1.2-0.7-2.1c0-0.9,0.2-1.6,0.7-2.1s1.1-0.8,1.8-0.8c0.7,0,1.2,0.2,1.6,0.6c0.4,0.4,0.6,1,0.6,1.8V243.6z     M300.6,242.9c0-0.5-0.1-0.9-0.3-1.1c-0.2-0.3-0.6-0.4-1-0.4c-0.5,0-0.8,0.1-1.1,0.4s-0.4,0.6-0.5,1.1H300.6z"/> 		<path d="M303.6,246.3h-0.9v-7.6h0.9V246.3z"/> 		<path d="M306.2,246.3h-0.9v-7.6h0.9V246.3z"/> 	</g> 	<g> 		<path d="M171.7,372.9c0,0.3-0.1,0.6-0.2,0.8s-0.3,0.5-0.5,0.7c-0.2,0.2-0.5,0.4-0.9,0.5s-0.7,0.2-1.2,0.2c-0.5,0-0.9,0-1.3-0.1    c-0.4-0.1-0.8-0.2-1.2-0.4v-1.2h0.1c0.3,0.3,0.7,0.5,1.2,0.7s0.9,0.2,1.3,0.2c0.6,0,1-0.1,1.3-0.3c0.3-0.2,0.5-0.5,0.5-0.9    c0-0.3-0.1-0.6-0.2-0.7c-0.1-0.2-0.4-0.3-0.7-0.4c-0.2-0.1-0.5-0.1-0.8-0.2c-0.3,0-0.6-0.1-0.9-0.2c-0.6-0.1-1.1-0.4-1.4-0.7    c-0.3-0.3-0.4-0.8-0.4-1.3c0-0.6,0.2-1.1,0.7-1.5c0.5-0.4,1.1-0.6,1.9-0.6c0.5,0,0.9,0,1.3,0.1c0.4,0.1,0.8,0.2,1.1,0.4v1.1h-0.1    c-0.3-0.2-0.6-0.4-1-0.6c-0.4-0.2-0.9-0.2-1.3-0.2c-0.5,0-0.9,0.1-1.2,0.3s-0.4,0.5-0.4,0.8c0,0.3,0.1,0.5,0.2,0.7    c0.1,0.2,0.4,0.3,0.8,0.4c0.2,0,0.5,0.1,0.8,0.2c0.4,0.1,0.7,0.1,0.9,0.2c0.5,0.1,0.9,0.4,1.2,0.6S171.7,372.4,171.7,372.9z"/> 		<path d="M177.1,375h-0.9v-0.6c-0.1,0.1-0.2,0.1-0.3,0.2c-0.1,0.1-0.3,0.2-0.4,0.2c-0.1,0.1-0.3,0.1-0.5,0.2    c-0.2,0-0.4,0.1-0.7,0.1c-0.5,0-0.9-0.2-1.2-0.5c-0.3-0.3-0.5-0.7-0.5-1.2c0-0.4,0.1-0.7,0.3-1c0.2-0.3,0.4-0.5,0.7-0.6    c0.3-0.1,0.7-0.2,1.1-0.3s0.9-0.1,1.4-0.1v-0.1c0-0.2,0-0.4-0.1-0.5c-0.1-0.1-0.2-0.2-0.3-0.3c-0.1-0.1-0.3-0.1-0.4-0.2    c-0.2,0-0.4,0-0.5,0c-0.2,0-0.5,0-0.8,0.1c-0.3,0.1-0.6,0.2-0.9,0.3h0v-0.9c0.2,0,0.4-0.1,0.7-0.2s0.6-0.1,0.9-0.1    c0.4,0,0.7,0,0.9,0.1c0.3,0.1,0.5,0.2,0.7,0.3c0.2,0.1,0.3,0.3,0.4,0.6s0.2,0.5,0.2,0.9V375z M176.2,373.6v-1.5    c-0.3,0-0.6,0-0.9,0.1s-0.6,0.1-0.9,0.1c-0.2,0.1-0.5,0.2-0.6,0.3c-0.2,0.2-0.2,0.4-0.2,0.7c0,0.3,0.1,0.5,0.3,0.7    c0.2,0.2,0.5,0.2,0.8,0.2c0.3,0,0.6-0.1,0.8-0.2C175.8,373.9,176,373.8,176.2,373.6z"/> 		<path d="M183.1,375h-0.9v-3.1c0-0.3,0-0.5,0-0.7c0-0.2-0.1-0.4-0.2-0.5c-0.1-0.1-0.2-0.2-0.3-0.3c-0.1-0.1-0.3-0.1-0.6-0.1    c-0.2,0-0.5,0.1-0.7,0.2s-0.5,0.3-0.7,0.5v4.1h-0.9v-5.5h0.9v0.6c0.3-0.2,0.6-0.4,0.8-0.6c0.3-0.1,0.6-0.2,0.9-0.2    c0.6,0,1,0.2,1.3,0.5c0.3,0.4,0.4,0.9,0.4,1.5V375z"/> 		<path d="M187.4,374.9c-0.2,0-0.3,0.1-0.5,0.1c-0.2,0-0.4,0-0.5,0c-0.5,0-0.9-0.1-1.2-0.4c-0.3-0.3-0.4-0.8-0.4-1.4v-2.9h-0.6v-0.8    h0.6v-1.6h0.9v1.6h1.8v0.8h-1.8v2.5c0,0.3,0,0.5,0,0.7s0.1,0.3,0.1,0.5c0.1,0.1,0.2,0.2,0.3,0.3c0.1,0.1,0.3,0.1,0.5,0.1    c0.1,0,0.3,0,0.4-0.1s0.3-0.1,0.3-0.1h0V374.9z"/> 		<path d="M196.2,368.5h-3.5v2.1h3v0.9h-3v3.5h-0.9v-7.3h4.4V368.5z"/> 		<path d="M201.3,372.3h-3.8c0,0.3,0,0.6,0.1,0.9c0.1,0.2,0.2,0.5,0.4,0.6c0.2,0.2,0.3,0.3,0.6,0.4c0.2,0.1,0.5,0.1,0.7,0.1    c0.4,0,0.7-0.1,1.1-0.2c0.4-0.1,0.6-0.3,0.8-0.4h0v1c-0.3,0.1-0.6,0.2-0.9,0.3c-0.3,0.1-0.6,0.1-1,0.1c-0.9,0-1.5-0.2-2-0.7    c-0.5-0.5-0.7-1.2-0.7-2.1c0-0.9,0.2-1.6,0.7-2.1s1.1-0.8,1.8-0.8c0.7,0,1.2,0.2,1.6,0.6s0.6,1,0.6,1.8V372.3z M200.4,371.6    c0-0.5-0.1-0.9-0.3-1.1c-0.2-0.3-0.6-0.4-1-0.4c-0.5,0-0.8,0.1-1.1,0.4c-0.3,0.3-0.4,0.6-0.5,1.1H200.4z"/> 		<path d="M203.5,375h-0.9v-7.6h0.9V375z"/> 		<path d="M206.1,368.6h-1v-1h1V368.6z M206.1,375h-0.9v-5.5h0.9V375z"/> 		<path d="M212,375h-0.9v-0.6c-0.3,0.2-0.6,0.4-0.8,0.6s-0.6,0.2-0.9,0.2c-0.5,0-1-0.2-1.3-0.5c-0.3-0.4-0.5-0.9-0.5-1.5v-3.5h0.9    v3.1c0,0.3,0,0.5,0,0.7c0,0.2,0.1,0.4,0.2,0.5c0.1,0.1,0.2,0.2,0.3,0.3s0.3,0.1,0.6,0.1c0.2,0,0.5-0.1,0.7-0.2s0.5-0.3,0.7-0.5    v-4.1h0.9V375z"/> 		<path d="M168.5,385h-0.9v-0.6c-0.2,0.2-0.5,0.4-0.8,0.5c-0.3,0.1-0.6,0.2-0.9,0.2c-0.6,0-1.1-0.3-1.5-0.8    c-0.4-0.5-0.5-1.2-0.5-2.1c0-0.5,0.1-0.9,0.2-1.2s0.3-0.7,0.5-0.9c0.2-0.2,0.5-0.4,0.7-0.6s0.6-0.2,0.9-0.2c0.3,0,0.5,0,0.7,0.1    c0.2,0.1,0.4,0.2,0.7,0.3v-2.4h0.9V385z M167.6,383.6v-3.1c-0.2-0.1-0.4-0.2-0.6-0.2s-0.4-0.1-0.6-0.1c-0.5,0-0.9,0.2-1.1,0.5    c-0.3,0.4-0.4,0.9-0.4,1.5c0,0.6,0.1,1.1,0.3,1.5c0.2,0.3,0.5,0.5,1,0.5c0.2,0,0.5-0.1,0.7-0.2    C167.1,383.9,167.4,383.8,167.6,383.6z"/> 		<path d="M174.5,382.3h-3.8c0,0.3,0,0.6,0.1,0.9c0.1,0.2,0.2,0.5,0.4,0.6c0.2,0.2,0.3,0.3,0.6,0.4c0.2,0.1,0.5,0.1,0.7,0.1    c0.4,0,0.7-0.1,1.1-0.2c0.4-0.1,0.6-0.3,0.8-0.4h0v1c-0.3,0.1-0.6,0.2-0.9,0.3c-0.3,0.1-0.6,0.1-1,0.1c-0.9,0-1.5-0.2-2-0.7    c-0.5-0.5-0.7-1.2-0.7-2.1c0-0.9,0.2-1.6,0.7-2.1s1.1-0.8,1.8-0.8c0.7,0,1.2,0.2,1.6,0.6s0.6,1,0.6,1.8V382.3z M173.6,381.6    c0-0.5-0.1-0.9-0.3-1.1c-0.2-0.3-0.6-0.4-1-0.4c-0.5,0-0.8,0.1-1.1,0.4c-0.3,0.3-0.4,0.6-0.5,1.1H173.6z"/> 		<path d="M184.9,384.4c-0.4,0.2-0.8,0.3-1.2,0.5c-0.4,0.1-0.9,0.2-1.3,0.2c-0.5,0-1-0.1-1.5-0.2c-0.4-0.2-0.8-0.4-1.1-0.7    c-0.3-0.3-0.6-0.7-0.7-1.2s-0.3-1-0.3-1.7c0-1.2,0.3-2.1,1-2.8c0.6-0.7,1.5-1,2.6-1c0.4,0,0.8,0,1.2,0.1c0.4,0.1,0.8,0.3,1.3,0.5    v1.1h-0.1c-0.1-0.1-0.2-0.2-0.4-0.3s-0.4-0.2-0.5-0.3c-0.2-0.1-0.5-0.2-0.7-0.3c-0.3-0.1-0.6-0.1-0.9-0.1c-0.8,0-1.4,0.3-1.8,0.8    c-0.4,0.5-0.7,1.2-0.7,2.1c0,0.9,0.2,1.7,0.7,2.2s1.1,0.8,1.9,0.8c0.3,0,0.6,0,0.9-0.1s0.6-0.1,0.8-0.2v-1.8h-1.8v-0.8h2.7V384.4z    "/> 		<path d="M190.7,385h-0.9v-0.6c-0.3,0.2-0.6,0.4-0.8,0.6s-0.6,0.2-0.9,0.2c-0.5,0-1-0.2-1.3-0.5c-0.3-0.4-0.5-0.9-0.5-1.5v-3.5h0.9    v3.1c0,0.3,0,0.5,0,0.7c0,0.2,0.1,0.4,0.2,0.5c0.1,0.1,0.2,0.2,0.3,0.3s0.3,0.1,0.6,0.1c0.2,0,0.5-0.1,0.7-0.2s0.5-0.3,0.7-0.5    v-4.1h0.9V385z"/> 		<path d="M194.3,376.8l-1.3,1.8h-0.7l0.8-1.8H194.3z M193.3,385h-0.9v-5.5h0.9V385z"/> 		<path d="M199.5,385h-1.1l-1.5-2.1l-1.5,2.1h-1l2-2.7l-2-2.7h1.1l1.5,2.1l1.5-2.1h1l-2,2.7L199.5,385z"/> 		<path d="M204.9,382.2c0,0.9-0.2,1.6-0.6,2.1s-1,0.8-1.7,0.8c-0.7,0-1.3-0.3-1.7-0.8c-0.4-0.5-0.6-1.2-0.6-2.1s0.2-1.6,0.6-2.1    c0.4-0.5,1-0.8,1.7-0.8c0.7,0,1.3,0.3,1.7,0.8C204.7,380.6,204.9,381.3,204.9,382.2z M204,382.2c0-0.7-0.1-1.2-0.4-1.6    c-0.3-0.3-0.6-0.5-1.1-0.5c-0.5,0-0.8,0.2-1.1,0.5c-0.3,0.3-0.4,0.9-0.4,1.6c0,0.7,0.1,1.2,0.4,1.6c0.3,0.4,0.6,0.5,1.1,0.5    c0.5,0,0.8-0.2,1.1-0.5C203.9,383.4,204,382.9,204,382.2z"/> 		<path d="M207.1,385h-0.9v-7.6h0.9V385z"/> 		<path d="M212.2,382.4c0.2,0.2,0.3,0.6,0.3,1c0,0.5-0.2,0.9-0.6,1.2s-0.9,0.5-1.6,0.5c-0.4,0-0.7,0-1-0.1c-0.3-0.1-0.6-0.2-0.8-0.3    v-1h0c0.3,0.2,0.6,0.4,0.9,0.5c0.3,0.1,0.7,0.2,1,0.2c0.4,0,0.7-0.1,0.9-0.2s0.3-0.3,0.3-0.6c0-0.2-0.1-0.4-0.2-0.5    s-0.3-0.2-0.7-0.3c-0.1,0-0.3-0.1-0.5-0.1c-0.2,0-0.4-0.1-0.5-0.1c-0.5-0.1-0.8-0.3-1-0.6c-0.2-0.2-0.3-0.5-0.3-0.9    c0-0.2,0-0.4,0.1-0.6c0.1-0.2,0.2-0.4,0.4-0.5c0.2-0.2,0.4-0.3,0.7-0.4c0.3-0.1,0.6-0.1,0.9-0.1c0.3,0,0.6,0,0.9,0.1    c0.3,0.1,0.6,0.2,0.8,0.3v1h0c-0.2-0.2-0.5-0.3-0.8-0.4c-0.3-0.1-0.6-0.2-0.9-0.2c-0.3,0-0.6,0.1-0.8,0.2    c-0.2,0.1-0.3,0.3-0.3,0.6c0,0.2,0.1,0.4,0.2,0.5c0.1,0.1,0.3,0.2,0.6,0.3c0.2,0,0.3,0.1,0.5,0.1c0.2,0,0.4,0.1,0.5,0.1    C211.7,382,212,382.2,212.2,382.4L212.2,382.4z"/> 	</g> 	<g> 		<path d="M247.3,312.8c0,0.3-0.1,0.6-0.2,0.9c-0.1,0.3-0.3,0.5-0.4,0.7c-0.2,0.3-0.5,0.4-0.8,0.6c-0.3,0.1-0.7,0.2-1.2,0.2h-0.9    v2.7h-0.9v-7.3h1.9c0.4,0,0.8,0,1,0.1c0.3,0.1,0.5,0.2,0.8,0.3c0.3,0.2,0.5,0.4,0.6,0.7C247.3,312,247.3,312.4,247.3,312.8z     M246.4,312.8c0-0.3,0-0.5-0.1-0.7s-0.2-0.3-0.4-0.5c-0.1-0.1-0.3-0.2-0.5-0.2c-0.2,0-0.4-0.1-0.7-0.1h-0.9v2.9h0.8    c0.4,0,0.7,0,0.9-0.1c0.2-0.1,0.4-0.2,0.6-0.3c0.1-0.2,0.2-0.3,0.3-0.5C246.3,313.2,246.4,313,246.4,312.8z"/> 		<path d="M252.2,317.8h-0.9v-0.6c-0.1,0.1-0.2,0.1-0.3,0.2c-0.1,0.1-0.3,0.2-0.4,0.2c-0.1,0.1-0.3,0.1-0.5,0.2    c-0.2,0.1-0.4,0.1-0.7,0.1c-0.5,0-0.9-0.2-1.2-0.5c-0.3-0.3-0.5-0.7-0.5-1.2c0-0.4,0.1-0.7,0.3-1c0.2-0.3,0.4-0.5,0.7-0.6    c0.3-0.1,0.7-0.2,1.1-0.3c0.4-0.1,0.9-0.1,1.4-0.1v-0.1c0-0.2,0-0.4-0.1-0.5c-0.1-0.1-0.2-0.2-0.3-0.3c-0.1-0.1-0.3-0.1-0.4-0.2    s-0.4,0-0.5,0c-0.2,0-0.5,0-0.8,0.1c-0.3,0.1-0.6,0.2-0.9,0.3h0v-0.9c0.2,0,0.4-0.1,0.7-0.2c0.3-0.1,0.6-0.1,0.9-0.1    c0.4,0,0.7,0,0.9,0.1s0.5,0.2,0.7,0.3c0.2,0.1,0.3,0.3,0.4,0.6c0.1,0.2,0.2,0.5,0.2,0.9V317.8z M251.4,316.5V315    c-0.3,0-0.6,0-0.9,0.1s-0.6,0.1-0.9,0.1c-0.2,0.1-0.5,0.2-0.6,0.3c-0.2,0.2-0.2,0.4-0.2,0.7c0,0.3,0.1,0.5,0.3,0.7    c0.2,0.2,0.5,0.2,0.8,0.2c0.3,0,0.6-0.1,0.8-0.2C250.9,316.8,251.2,316.7,251.4,316.5z"/> 		<path d="M254.8,317.8h-0.9v-7.6h0.9V317.8z"/> 		<path d="M260.5,317.8h-0.9v-0.6c-0.1,0.1-0.2,0.1-0.3,0.2c-0.1,0.1-0.3,0.2-0.4,0.2c-0.1,0.1-0.3,0.1-0.5,0.2    c-0.2,0.1-0.4,0.1-0.7,0.1c-0.5,0-0.9-0.2-1.2-0.5c-0.3-0.3-0.5-0.7-0.5-1.2c0-0.4,0.1-0.7,0.3-1c0.2-0.3,0.4-0.5,0.7-0.6    c0.3-0.1,0.7-0.2,1.1-0.3c0.4-0.1,0.9-0.1,1.4-0.1v-0.1c0-0.2,0-0.4-0.1-0.5s-0.2-0.2-0.3-0.3c-0.1-0.1-0.3-0.1-0.4-0.2    c-0.2,0-0.4,0-0.5,0c-0.2,0-0.5,0-0.8,0.1s-0.6,0.2-0.9,0.3h0v-0.9c0.2,0,0.4-0.1,0.7-0.2c0.3-0.1,0.6-0.1,0.9-0.1    c0.4,0,0.7,0,0.9,0.1c0.3,0.1,0.5,0.2,0.7,0.3c0.2,0.1,0.3,0.3,0.4,0.6s0.2,0.5,0.2,0.9V317.8z M259.6,316.5V315    c-0.3,0-0.6,0-0.9,0.1s-0.6,0.1-0.9,0.1c-0.3,0.1-0.5,0.2-0.6,0.3c-0.2,0.2-0.2,0.4-0.2,0.7c0,0.3,0.1,0.5,0.3,0.7    c0.2,0.2,0.5,0.2,0.8,0.2c0.3,0,0.6-0.1,0.8-0.2C259.2,316.8,259.4,316.7,259.6,316.5z"/> 		<path d="M269.7,317.8h-0.9v-3.1c0-0.2,0-0.5,0-0.7c0-0.2-0.1-0.4-0.1-0.5c-0.1-0.1-0.2-0.2-0.3-0.3c-0.1-0.1-0.3-0.1-0.6-0.1    c-0.2,0-0.5,0.1-0.7,0.2c-0.2,0.1-0.5,0.3-0.7,0.5c0,0.1,0,0.2,0,0.3c0,0.1,0,0.2,0,0.3v3.5h-0.9v-3.1c0-0.2,0-0.5,0-0.7    c0-0.2-0.1-0.4-0.1-0.5c-0.1-0.1-0.2-0.2-0.3-0.3c-0.1-0.1-0.3-0.1-0.6-0.1c-0.2,0-0.5,0.1-0.7,0.2c-0.2,0.1-0.5,0.3-0.7,0.5v4.1    h-0.9v-5.5h0.9v0.6c0.3-0.2,0.5-0.4,0.8-0.6c0.3-0.1,0.6-0.2,0.9-0.2c0.4,0,0.6,0.1,0.9,0.2c0.2,0.2,0.4,0.4,0.5,0.6    c0.4-0.3,0.7-0.5,1-0.7c0.3-0.1,0.6-0.2,0.9-0.2c0.6,0,1,0.2,1.3,0.5c0.3,0.4,0.4,0.9,0.4,1.5V317.8z"/> 		<path d="M275.8,315.1c0,0.9-0.2,1.6-0.6,2.1s-1,0.8-1.7,0.8c-0.7,0-1.3-0.3-1.7-0.8c-0.4-0.5-0.6-1.2-0.6-2.1s0.2-1.6,0.6-2.1    c0.4-0.5,1-0.8,1.7-0.8c0.7,0,1.3,0.3,1.7,0.8C275.6,313.5,275.8,314.2,275.8,315.1z M274.9,315.1c0-0.7-0.1-1.2-0.4-1.6    c-0.3-0.3-0.6-0.5-1.1-0.5c-0.5,0-0.8,0.2-1.1,0.5c-0.3,0.3-0.4,0.9-0.4,1.6c0,0.7,0.1,1.2,0.4,1.6c0.3,0.4,0.6,0.5,1.1,0.5    c0.5,0,0.8-0.2,1.1-0.5C274.7,316.3,274.9,315.8,274.9,315.1z M274.8,309.7l-1.3,1.8h-0.7l0.8-1.8H274.8z"/> 		<path d="M280.5,315.3c0.2,0.2,0.3,0.6,0.3,1c0,0.5-0.2,0.9-0.6,1.2c-0.4,0.3-0.9,0.5-1.6,0.5c-0.4,0-0.7,0-1-0.1    c-0.3-0.1-0.6-0.2-0.8-0.3v-1h0c0.3,0.2,0.6,0.4,0.9,0.5c0.3,0.1,0.7,0.2,1,0.2c0.4,0,0.7-0.1,0.9-0.2c0.2-0.1,0.3-0.3,0.3-0.6    c0-0.2-0.1-0.4-0.2-0.5c-0.1-0.1-0.3-0.2-0.7-0.3c-0.1,0-0.3-0.1-0.5-0.1s-0.4-0.1-0.5-0.1c-0.5-0.1-0.8-0.3-1-0.6    c-0.2-0.2-0.3-0.5-0.3-0.9c0-0.2,0-0.4,0.1-0.6c0.1-0.2,0.2-0.4,0.4-0.5c0.2-0.2,0.4-0.3,0.7-0.4c0.3-0.1,0.6-0.1,0.9-0.1    c0.3,0,0.6,0,0.9,0.1c0.3,0.1,0.6,0.2,0.8,0.3v1h0c-0.2-0.2-0.5-0.3-0.8-0.4c-0.3-0.1-0.6-0.2-0.9-0.2c-0.3,0-0.6,0.1-0.8,0.2    c-0.2,0.1-0.3,0.3-0.3,0.6c0,0.2,0.1,0.4,0.2,0.5c0.1,0.1,0.3,0.2,0.6,0.3c0.2,0,0.3,0.1,0.5,0.1c0.2,0,0.4,0.1,0.5,0.1    C279.9,314.9,280.2,315.1,280.5,315.3L280.5,315.3z"/> 	</g> 	<g> 		<path d="M298.7,105.1h-0.9v-7.6h0.9V105.1z"/> 		<path d="M301.3,97.5l-0.2,2.8h-0.6l-0.2-2.8H301.3z"/> 		<path d="M307.5,105.1H303v-7.3h4.5v0.9h-3.6v2h3.6v0.9h-3.6v2.7h3.6V105.1z"/> 		<path d="M312.3,102.6c0.2,0.2,0.3,0.6,0.3,1c0,0.5-0.2,0.9-0.6,1.2c-0.4,0.3-0.9,0.5-1.6,0.5c-0.4,0-0.7,0-1-0.1    c-0.3-0.1-0.6-0.2-0.8-0.3v-1h0c0.3,0.2,0.6,0.4,0.9,0.5c0.3,0.1,0.7,0.2,1,0.2c0.4,0,0.7-0.1,0.9-0.2c0.2-0.1,0.3-0.3,0.3-0.6    c0-0.2-0.1-0.4-0.2-0.5c-0.1-0.1-0.3-0.2-0.7-0.3c-0.1,0-0.3-0.1-0.5-0.1s-0.4-0.1-0.5-0.1c-0.5-0.1-0.8-0.3-1-0.6    c-0.2-0.2-0.3-0.5-0.3-0.9c0-0.2,0-0.4,0.1-0.6c0.1-0.2,0.2-0.4,0.4-0.5c0.2-0.2,0.4-0.3,0.7-0.4c0.3-0.1,0.6-0.1,0.9-0.1    c0.3,0,0.6,0,0.9,0.1c0.3,0.1,0.6,0.2,0.8,0.3v1h0c-0.2-0.2-0.5-0.3-0.8-0.4c-0.3-0.1-0.6-0.2-0.9-0.2c-0.3,0-0.6,0.1-0.8,0.2    c-0.2,0.1-0.3,0.3-0.3,0.6c0,0.2,0.1,0.4,0.2,0.5c0.1,0.1,0.3,0.2,0.6,0.3c0.2,0,0.3,0.1,0.5,0.1s0.4,0.1,0.5,0.1    C311.7,102.2,312,102.3,312.3,102.6L312.3,102.6z"/> 		<path d="M316.5,105c-0.2,0-0.3,0.1-0.5,0.1s-0.4,0-0.5,0c-0.5,0-0.9-0.1-1.2-0.4c-0.3-0.3-0.4-0.8-0.4-1.4v-2.9h-0.6v-0.8h0.6    v-1.6h0.9v1.6h1.8v0.8h-1.8v2.5c0,0.3,0,0.5,0,0.7c0,0.2,0.1,0.3,0.1,0.5c0.1,0.1,0.2,0.2,0.3,0.3c0.1,0.1,0.3,0.1,0.5,0.1    c0.1,0,0.3,0,0.4-0.1c0.2,0,0.3-0.1,0.3-0.1h0V105z"/> 		<path d="M321.6,105.1h-0.9v-0.6c-0.1,0.1-0.2,0.1-0.3,0.2c-0.1,0.1-0.3,0.2-0.4,0.2c-0.1,0.1-0.3,0.1-0.5,0.2    c-0.2,0.1-0.4,0.1-0.7,0.1c-0.5,0-0.9-0.2-1.2-0.5s-0.5-0.7-0.5-1.2c0-0.4,0.1-0.7,0.3-1c0.2-0.3,0.4-0.5,0.7-0.6    c0.3-0.1,0.7-0.2,1.1-0.3c0.4-0.1,0.9-0.1,1.4-0.1v-0.1c0-0.2,0-0.4-0.1-0.5s-0.2-0.2-0.3-0.3c-0.1-0.1-0.3-0.1-0.4-0.2    c-0.2,0-0.4,0-0.5,0c-0.2,0-0.5,0-0.8,0.1c-0.3,0.1-0.6,0.2-0.9,0.3h0v-0.9c0.2,0,0.4-0.1,0.7-0.2s0.6-0.1,0.9-0.1    c0.4,0,0.7,0,0.9,0.1c0.3,0.1,0.5,0.2,0.7,0.3c0.2,0.1,0.3,0.3,0.4,0.6s0.2,0.5,0.2,0.9V105.1z M320.7,103.7v-1.5    c-0.3,0-0.6,0-0.9,0.1s-0.6,0.1-0.9,0.1c-0.2,0.1-0.5,0.2-0.6,0.3c-0.2,0.2-0.2,0.4-0.2,0.7c0,0.3,0.1,0.5,0.3,0.7    c0.2,0.2,0.5,0.2,0.8,0.2c0.3,0,0.6-0.1,0.8-0.2C320.3,104.1,320.5,103.9,320.7,103.7z"/> 		<path d="M326.5,100.6L326.5,100.6c-0.2,0-0.3-0.1-0.4-0.1c-0.1,0-0.3,0-0.4,0c-0.3,0-0.5,0.1-0.8,0.2c-0.2,0.1-0.5,0.3-0.7,0.5    v3.9h-0.9v-5.5h0.9v0.8c0.3-0.3,0.6-0.5,0.9-0.6s0.5-0.2,0.8-0.2c0.2,0,0.3,0,0.3,0c0.1,0,0.2,0,0.3,0V100.6z"/> 		<path d="M329.9,105c-0.2,0-0.3,0.1-0.5,0.1c-0.2,0-0.4,0-0.5,0c-0.5,0-0.9-0.1-1.2-0.4s-0.4-0.8-0.4-1.4v-2.9h-0.6v-0.8h0.6v-1.6    h0.9v1.6h1.8v0.8h-1.8v2.5c0,0.3,0,0.5,0,0.7c0,0.2,0.1,0.3,0.1,0.5c0.1,0.1,0.2,0.2,0.3,0.3c0.1,0.1,0.3,0.1,0.5,0.1    c0.1,0,0.3,0,0.4-0.1c0.2,0,0.3-0.1,0.3-0.1h0V105z"/> 		<path d="M331.9,98.7h-1v-1h1V98.7z M331.9,105.1H331v-5.5h0.9V105.1z"/> 		<path d="M336.3,105c-0.2,0-0.3,0.1-0.5,0.1c-0.2,0-0.4,0-0.5,0c-0.5,0-0.9-0.1-1.2-0.4c-0.3-0.3-0.4-0.8-0.4-1.4v-2.9H333v-0.8    h0.6v-1.6h0.9v1.6h1.8v0.8h-1.8v2.5c0,0.3,0,0.5,0,0.7c0,0.2,0.1,0.3,0.1,0.5c0.1,0.1,0.2,0.2,0.3,0.3c0.1,0.1,0.3,0.1,0.5,0.1    c0.1,0,0.3,0,0.4-0.1c0.2,0,0.3-0.1,0.3-0.1h0V105z"/> 	</g> 	<g> 		<path d="M308,179.8c0,0.3-0.1,0.6-0.2,0.9c-0.1,0.3-0.3,0.5-0.4,0.7c-0.2,0.3-0.5,0.4-0.8,0.6s-0.7,0.2-1.2,0.2h-0.9v2.7h-0.9    v-7.3h1.9c0.4,0,0.8,0,1,0.1s0.5,0.2,0.8,0.3c0.3,0.2,0.5,0.4,0.6,0.7C307.9,179.1,308,179.4,308,179.8z M307,179.9    c0-0.3,0-0.5-0.1-0.7s-0.2-0.3-0.4-0.5c-0.1-0.1-0.3-0.2-0.5-0.2s-0.4-0.1-0.7-0.1h-0.9v2.9h0.8c0.4,0,0.7,0,0.9-0.1    c0.2-0.1,0.4-0.2,0.6-0.3c0.1-0.2,0.2-0.3,0.3-0.5C307,180.3,307,180.1,307,179.9z"/> 		<path d="M312.9,184.9H312v-0.6c-0.1,0.1-0.2,0.1-0.3,0.2s-0.3,0.2-0.4,0.2c-0.1,0.1-0.3,0.1-0.5,0.2s-0.4,0.1-0.7,0.1    c-0.5,0-0.9-0.2-1.2-0.5c-0.3-0.3-0.5-0.7-0.5-1.2c0-0.4,0.1-0.7,0.3-1c0.2-0.3,0.4-0.5,0.7-0.6c0.3-0.1,0.7-0.2,1.1-0.3    c0.4-0.1,0.9-0.1,1.4-0.1v-0.1c0-0.2,0-0.4-0.1-0.5s-0.2-0.2-0.3-0.3c-0.1-0.1-0.3-0.1-0.4-0.2c-0.2,0-0.4,0-0.5,0    c-0.2,0-0.5,0-0.8,0.1s-0.6,0.2-0.9,0.3h0v-0.9c0.2,0,0.4-0.1,0.7-0.2c0.3-0.1,0.6-0.1,0.9-0.1c0.4,0,0.7,0,0.9,0.1    c0.3,0.1,0.5,0.2,0.7,0.3c0.2,0.1,0.3,0.3,0.4,0.6c0.1,0.2,0.2,0.5,0.2,0.9V184.9z M312,183.6v-1.5c-0.3,0-0.6,0-0.9,0.1    c-0.4,0-0.6,0.1-0.9,0.1c-0.2,0.1-0.5,0.2-0.6,0.3c-0.2,0.2-0.2,0.4-0.2,0.7c0,0.3,0.1,0.5,0.3,0.7c0.2,0.2,0.5,0.2,0.8,0.2    c0.3,0,0.6-0.1,0.8-0.2S311.8,183.8,312,183.6z"/> 		<path d="M315.5,184.9h-0.9v-7.6h0.9V184.9z"/> 		<path d="M320.5,182.4c0.2,0.2,0.3,0.6,0.3,1c0,0.5-0.2,0.9-0.6,1.2c-0.4,0.3-0.9,0.5-1.6,0.5c-0.4,0-0.7,0-1-0.1s-0.6-0.2-0.8-0.3    v-1h0c0.3,0.2,0.6,0.4,0.9,0.5c0.3,0.1,0.7,0.2,1,0.2c0.4,0,0.7-0.1,0.9-0.2c0.2-0.1,0.3-0.3,0.3-0.6c0-0.2-0.1-0.4-0.2-0.5    c-0.1-0.1-0.3-0.2-0.7-0.3c-0.1,0-0.3-0.1-0.5-0.1s-0.4-0.1-0.5-0.1c-0.5-0.1-0.8-0.3-1-0.6c-0.2-0.2-0.3-0.5-0.3-0.9    c0-0.2,0-0.4,0.1-0.6c0.1-0.2,0.2-0.4,0.4-0.5c0.2-0.2,0.4-0.3,0.7-0.4c0.3-0.1,0.6-0.1,0.9-0.1c0.3,0,0.6,0,0.9,0.1    s0.6,0.2,0.8,0.3v1h0c-0.2-0.2-0.5-0.3-0.8-0.4c-0.3-0.1-0.6-0.2-0.9-0.2c-0.3,0-0.6,0.1-0.8,0.2c-0.2,0.1-0.3,0.3-0.3,0.6    c0,0.2,0.1,0.4,0.2,0.5c0.1,0.1,0.3,0.2,0.6,0.3c0.2,0,0.3,0.1,0.5,0.1c0.2,0,0.4,0.1,0.5,0.1C320,182,320.3,182.2,320.5,182.4    L320.5,182.4z"/> 	</g> 	<g> 		<path d="M208.6,96.2l-2.5,7.3h-1.2l-2.5-7.3h1l2.2,6.4l2.2-6.4H208.6z"/> 		<path d="M213.4,100.8h-3.8c0,0.3,0,0.6,0.1,0.9s0.2,0.5,0.4,0.6c0.2,0.2,0.4,0.3,0.6,0.4c0.2,0.1,0.5,0.1,0.7,0.1    c0.4,0,0.7-0.1,1.1-0.2c0.4-0.1,0.6-0.3,0.8-0.4h0v1c-0.3,0.1-0.6,0.2-0.9,0.3c-0.3,0.1-0.6,0.1-1,0.1c-0.9,0-1.5-0.2-2-0.7    c-0.5-0.5-0.7-1.2-0.7-2.1c0-0.9,0.2-1.6,0.7-2.1s1.1-0.8,1.8-0.8c0.7,0,1.2,0.2,1.6,0.6s0.6,1,0.6,1.8V100.8z M212.5,100.1    c0-0.5-0.1-0.9-0.3-1.1s-0.6-0.4-1-0.4c-0.5,0-0.8,0.1-1.1,0.4c-0.3,0.3-0.4,0.6-0.5,1.1H212.5z"/> 		<path d="M217.9,99L217.9,99c-0.2,0-0.3-0.1-0.4-0.1c-0.1,0-0.3,0-0.4,0c-0.3,0-0.5,0.1-0.8,0.2c-0.2,0.1-0.5,0.3-0.7,0.5v3.9h-0.9    V98h0.9v0.8c0.3-0.3,0.6-0.5,0.9-0.6c0.3-0.1,0.5-0.2,0.8-0.2c0.2,0,0.3,0,0.3,0c0.1,0,0.2,0,0.3,0V99z"/> 		<path d="M222.9,102.8c0,0.9-0.2,1.6-0.6,2c-0.4,0.4-1,0.6-1.8,0.6c-0.3,0-0.5,0-0.8-0.1s-0.5-0.1-0.8-0.2v-0.9h0    c0.1,0.1,0.4,0.1,0.7,0.2s0.6,0.1,0.9,0.1c0.3,0,0.5,0,0.7-0.1c0.2-0.1,0.3-0.2,0.5-0.3c0.1-0.1,0.2-0.3,0.2-0.5    c0-0.2,0.1-0.4,0.1-0.6v-0.5c-0.3,0.2-0.5,0.4-0.8,0.5c-0.2,0.1-0.5,0.2-0.9,0.2c-0.6,0-1.1-0.2-1.5-0.7c-0.4-0.5-0.5-1.1-0.5-2    c0-0.5,0.1-0.9,0.2-1.2c0.1-0.3,0.3-0.6,0.5-0.9c0.2-0.2,0.4-0.4,0.7-0.5c0.3-0.1,0.6-0.2,0.9-0.2c0.3,0,0.5,0,0.8,0.1    s0.4,0.2,0.6,0.3l0.1-0.2h0.8V102.8z M222,101.9v-3c-0.2-0.1-0.4-0.2-0.6-0.2c-0.2,0-0.4-0.1-0.6-0.1c-0.5,0-0.9,0.2-1.1,0.5    c-0.3,0.3-0.4,0.8-0.4,1.5c0,0.6,0.1,1.1,0.3,1.4s0.5,0.5,1,0.5c0.3,0,0.5-0.1,0.8-0.2S221.8,102.1,222,101.9z"/> 		<path d="M228.9,100.8h-3.8c0,0.3,0,0.6,0.1,0.9c0.1,0.2,0.2,0.5,0.4,0.6c0.2,0.2,0.3,0.3,0.6,0.4c0.2,0.1,0.5,0.1,0.7,0.1    c0.4,0,0.7-0.1,1.1-0.2c0.4-0.1,0.6-0.3,0.8-0.4h0v1c-0.3,0.1-0.6,0.2-0.9,0.3s-0.6,0.1-1,0.1c-0.9,0-1.5-0.2-2-0.7    c-0.5-0.5-0.7-1.2-0.7-2.1c0-0.9,0.2-1.6,0.7-2.1s1.1-0.8,1.8-0.8c0.7,0,1.2,0.2,1.6,0.6c0.4,0.4,0.6,1,0.6,1.8V100.8z     M228.1,100.1c0-0.5-0.1-0.9-0.3-1.1c-0.2-0.3-0.6-0.4-1-0.4c-0.5,0-0.8,0.1-1.1,0.4c-0.3,0.3-0.4,0.6-0.5,1.1H228.1z"/> 		<path d="M233.6,100.9c0.2,0.2,0.3,0.6,0.3,1c0,0.5-0.2,0.9-0.6,1.2c-0.4,0.3-0.9,0.5-1.6,0.5c-0.4,0-0.7,0-1-0.1    c-0.3-0.1-0.6-0.2-0.8-0.3v-1h0c0.3,0.2,0.6,0.4,0.9,0.5c0.3,0.1,0.7,0.2,1,0.2c0.4,0,0.7-0.1,0.9-0.2c0.2-0.1,0.3-0.3,0.3-0.6    c0-0.2-0.1-0.4-0.2-0.5c-0.1-0.1-0.3-0.2-0.7-0.3c-0.1,0-0.3-0.1-0.5-0.1s-0.4-0.1-0.5-0.1c-0.5-0.1-0.8-0.3-1-0.6    c-0.2-0.2-0.3-0.5-0.3-0.9c0-0.2,0-0.4,0.1-0.6s0.2-0.4,0.4-0.5c0.2-0.2,0.4-0.3,0.7-0.4c0.3-0.1,0.6-0.1,0.9-0.1    c0.3,0,0.6,0,0.9,0.1c0.3,0.1,0.6,0.2,0.8,0.3v1h0c-0.2-0.2-0.5-0.3-0.8-0.4c-0.3-0.1-0.6-0.2-0.9-0.2c-0.3,0-0.6,0.1-0.8,0.2    c-0.2,0.1-0.3,0.3-0.3,0.6c0,0.2,0.1,0.4,0.2,0.5c0.1,0.1,0.3,0.2,0.6,0.3c0.2,0,0.3,0.1,0.5,0.1c0.2,0,0.4,0.1,0.5,0.1    C233.1,100.5,233.4,100.7,233.6,100.9L233.6,100.9z"/> 	</g> 	<g> 		<path d="M252.1,134.7h-2.5v6.4h-0.9v-6.4h-2.5v-0.9h5.8V134.7z"/> 		<path d="M256.4,138.4c0,0.9-0.2,1.6-0.6,2.1s-1,0.8-1.7,0.8c-0.7,0-1.3-0.3-1.7-0.8s-0.6-1.2-0.6-2.1s0.2-1.6,0.6-2.1    c0.4-0.5,1-0.8,1.7-0.8c0.7,0,1.3,0.3,1.7,0.8C256.2,136.8,256.4,137.5,256.4,138.4z M255.5,138.4c0-0.7-0.1-1.2-0.4-1.6    c-0.3-0.3-0.6-0.5-1.1-0.5c-0.5,0-0.8,0.2-1.1,0.5c-0.3,0.3-0.4,0.9-0.4,1.6c0,0.7,0.1,1.2,0.4,1.6c0.3,0.4,0.6,0.5,1.1,0.5    c0.5,0,0.8-0.2,1.1-0.5C255.3,139.6,255.5,139.1,255.5,138.4z"/> 		<path d="M260.9,136.6L260.9,136.6c-0.2,0-0.3-0.1-0.4-0.1s-0.3,0-0.4,0c-0.3,0-0.5,0.1-0.8,0.2c-0.2,0.1-0.5,0.3-0.7,0.5v3.9h-0.9    v-5.5h0.9v0.8c0.3-0.3,0.6-0.5,0.9-0.6c0.3-0.1,0.5-0.2,0.8-0.2c0.2,0,0.3,0,0.3,0c0.1,0,0.2,0,0.3,0V136.6z"/> 		<path d="M265,136.6L265,136.6c-0.2,0-0.3-0.1-0.4-0.1s-0.3,0-0.4,0c-0.3,0-0.5,0.1-0.8,0.2c-0.2,0.1-0.5,0.3-0.7,0.5v3.9h-0.9    v-5.5h0.9v0.8c0.3-0.3,0.6-0.5,0.9-0.6c0.3-0.1,0.5-0.2,0.8-0.2c0.2,0,0.3,0,0.3,0c0.1,0,0.2,0,0.3,0V136.6z"/> 		<path d="M270.2,138.4c0,0.9-0.2,1.6-0.6,2.1s-1,0.8-1.7,0.8c-0.7,0-1.3-0.3-1.7-0.8s-0.6-1.2-0.6-2.1s0.2-1.6,0.6-2.1    c0.4-0.5,1-0.8,1.7-0.8c0.7,0,1.3,0.3,1.7,0.8C270,136.8,270.2,137.5,270.2,138.4z M269.3,138.4c0-0.7-0.1-1.2-0.4-1.6    c-0.3-0.3-0.6-0.5-1.1-0.5c-0.5,0-0.8,0.2-1.1,0.5c-0.3,0.3-0.4,0.9-0.4,1.6c0,0.7,0.1,1.2,0.4,1.6c0.3,0.4,0.6,0.5,1.1,0.5    c0.5,0,0.8-0.2,1.1-0.5C269.2,139.6,269.3,139.1,269.3,138.4z"/> 		<path d="M275.8,138.5H272c0,0.3,0,0.6,0.1,0.9c0.1,0.2,0.2,0.5,0.4,0.6c0.2,0.2,0.4,0.3,0.6,0.4s0.5,0.1,0.7,0.1    c0.4,0,0.7-0.1,1.1-0.2c0.4-0.1,0.6-0.3,0.8-0.4h0v1c-0.3,0.1-0.6,0.2-0.9,0.3s-0.6,0.1-1,0.1c-0.9,0-1.5-0.2-2-0.7    c-0.5-0.5-0.7-1.2-0.7-2.1c0-0.9,0.2-1.6,0.7-2.1s1.1-0.8,1.8-0.8c0.7,0,1.2,0.2,1.6,0.6s0.6,1,0.6,1.8V138.5z M275,137.8    c0-0.5-0.1-0.9-0.3-1.1c-0.2-0.3-0.6-0.4-1-0.4c-0.5,0-0.8,0.1-1.1,0.4s-0.4,0.6-0.5,1.1H275z"/> 		<path d="M278,141.1h-0.9v-7.6h0.9V141.1z"/> 		<path d="M280.6,141.1h-0.9v-7.6h0.9V141.1z"/> 		<path d="M286.3,141.1h-0.9v-0.6c-0.1,0.1-0.2,0.1-0.3,0.2c-0.1,0.1-0.3,0.2-0.4,0.2c-0.1,0.1-0.3,0.1-0.5,0.2s-0.4,0.1-0.7,0.1    c-0.5,0-0.9-0.2-1.2-0.5c-0.3-0.3-0.5-0.7-0.5-1.2c0-0.4,0.1-0.7,0.3-1c0.2-0.3,0.4-0.5,0.7-0.6c0.3-0.1,0.7-0.2,1.1-0.3    c0.4-0.1,0.9-0.1,1.4-0.1v-0.1c0-0.2,0-0.4-0.1-0.5s-0.2-0.2-0.3-0.3c-0.1-0.1-0.3-0.1-0.4-0.2c-0.2,0-0.4,0-0.5,0    c-0.2,0-0.5,0-0.8,0.1c-0.3,0.1-0.6,0.2-0.9,0.3h0v-0.9c0.2,0,0.4-0.1,0.7-0.2c0.3-0.1,0.6-0.1,0.9-0.1c0.4,0,0.7,0,0.9,0.1    c0.3,0.1,0.5,0.2,0.7,0.3c0.2,0.1,0.3,0.3,0.4,0.6s0.2,0.5,0.2,0.9V141.1z M285.5,139.7v-1.5c-0.3,0-0.6,0-0.9,0.1    s-0.6,0.1-0.9,0.1c-0.2,0.1-0.5,0.2-0.6,0.3c-0.2,0.2-0.2,0.4-0.2,0.7c0,0.3,0.1,0.5,0.3,0.7c0.2,0.2,0.5,0.2,0.8,0.2    c0.3,0,0.6-0.1,0.8-0.2C285,140.1,285.3,139.9,285.5,139.7z"/> 		<path d="M251.4,151.1h-0.9v-0.6c-0.2,0.2-0.5,0.4-0.8,0.5c-0.3,0.1-0.6,0.2-0.9,0.2c-0.6,0-1.1-0.3-1.5-0.8s-0.5-1.2-0.5-2.1    c0-0.5,0.1-0.9,0.2-1.2c0.1-0.4,0.3-0.7,0.5-0.9c0.2-0.2,0.5-0.4,0.7-0.6c0.3-0.1,0.6-0.2,0.9-0.2c0.3,0,0.5,0,0.7,0.1    c0.2,0.1,0.4,0.2,0.7,0.3v-2.4h0.9V151.1z M250.5,149.7v-3.1c-0.2-0.1-0.4-0.2-0.6-0.2s-0.4-0.1-0.6-0.1c-0.5,0-0.9,0.2-1.1,0.5    s-0.4,0.9-0.4,1.5c0,0.6,0.1,1.1,0.3,1.5s0.5,0.5,1,0.5c0.2,0,0.5-0.1,0.7-0.2C250,150.1,250.3,149.9,250.5,149.7z"/> 		<path d="M257.4,148.5h-3.8c0,0.3,0,0.6,0.1,0.9s0.2,0.5,0.4,0.6c0.2,0.2,0.3,0.3,0.6,0.4s0.5,0.1,0.7,0.1c0.4,0,0.7-0.1,1.1-0.2    c0.4-0.1,0.6-0.3,0.8-0.4h0v1c-0.3,0.1-0.6,0.2-0.9,0.3s-0.6,0.1-1,0.1c-0.9,0-1.5-0.2-2-0.7c-0.5-0.5-0.7-1.2-0.7-2.1    c0-0.9,0.2-1.6,0.7-2.1c0.5-0.5,1.1-0.8,1.8-0.8c0.7,0,1.2,0.2,1.6,0.6c0.4,0.4,0.6,1,0.6,1.8V148.5z M256.5,147.8    c0-0.5-0.1-0.9-0.3-1.1c-0.2-0.3-0.6-0.4-1-0.4c-0.5,0-0.8,0.1-1.1,0.4s-0.4,0.6-0.5,1.1H256.5z"/> 		<path d="M268.2,151.1h-0.9v-6.3l-1.9,4.3h-0.5l-1.9-4.3v6.3h-0.9v-7.3h1.2l1.8,4l1.8-4h1.3V151.1z"/> 		<path d="M274.4,148.4c0,0.9-0.2,1.6-0.6,2.1s-1,0.8-1.7,0.8c-0.7,0-1.3-0.3-1.7-0.8c-0.4-0.5-0.6-1.2-0.6-2.1s0.2-1.6,0.6-2.1    c0.4-0.5,1-0.8,1.7-0.8c0.7,0,1.3,0.3,1.7,0.8C274.2,146.8,274.4,147.5,274.4,148.4z M273.5,148.4c0-0.7-0.1-1.2-0.4-1.6    c-0.3-0.3-0.6-0.5-1.1-0.5c-0.5,0-0.8,0.2-1.1,0.5c-0.3,0.3-0.4,0.9-0.4,1.6c0,0.7,0.1,1.2,0.4,1.6c0.3,0.4,0.6,0.5,1.1,0.5    c0.5,0,0.8-0.2,1.1-0.5C273.4,149.6,273.5,149.1,273.5,148.4z"/> 		<path d="M280,151.1h-0.9V148c0-0.3,0-0.5,0-0.7s-0.1-0.4-0.2-0.5c-0.1-0.1-0.2-0.2-0.3-0.3c-0.1-0.1-0.3-0.1-0.6-0.1    c-0.2,0-0.5,0.1-0.7,0.2c-0.3,0.1-0.5,0.3-0.7,0.5v4.1h-0.9v-5.5h0.9v0.6c0.3-0.2,0.6-0.4,0.8-0.6s0.6-0.2,0.9-0.2    c0.6,0,1,0.2,1.3,0.5s0.4,0.9,0.4,1.5V151.1z"/> 		<path d="M284.4,151c-0.2,0-0.3,0.1-0.5,0.1s-0.4,0-0.5,0c-0.5,0-0.9-0.1-1.2-0.4c-0.3-0.3-0.4-0.8-0.4-1.4v-2.9h-0.6v-0.8h0.6    v-1.6h0.9v1.6h1.8v0.8h-1.8v2.5c0,0.3,0,0.5,0,0.7s0.1,0.3,0.1,0.5c0.1,0.1,0.2,0.2,0.3,0.3c0.1,0.1,0.3,0.1,0.5,0.1    c0.1,0,0.3,0,0.4-0.1s0.3-0.1,0.3-0.1h0V151z"/> 		<path d="M289.6,150.5c0,0.9-0.2,1.6-0.6,2s-1,0.6-1.8,0.6c-0.3,0-0.5,0-0.8-0.1c-0.3,0-0.5-0.1-0.8-0.2V152h0    c0.1,0.1,0.4,0.1,0.7,0.2s0.6,0.1,0.9,0.1c0.3,0,0.5,0,0.7-0.1s0.3-0.2,0.5-0.3c0.1-0.1,0.2-0.3,0.2-0.5c0-0.2,0.1-0.4,0.1-0.6    v-0.5c-0.3,0.2-0.5,0.4-0.8,0.5c-0.2,0.1-0.5,0.2-0.9,0.2c-0.6,0-1.1-0.2-1.5-0.7c-0.4-0.5-0.5-1.1-0.5-2c0-0.5,0.1-0.9,0.2-1.2    c0.1-0.3,0.3-0.6,0.5-0.9c0.2-0.2,0.4-0.4,0.7-0.5c0.3-0.1,0.6-0.2,0.9-0.2c0.3,0,0.5,0,0.8,0.1c0.2,0.1,0.4,0.2,0.6,0.3l0.1-0.2    h0.8V150.5z M288.7,149.6v-3c-0.2-0.1-0.4-0.2-0.6-0.2c-0.2,0-0.4-0.1-0.6-0.1c-0.5,0-0.9,0.2-1.1,0.5s-0.4,0.8-0.4,1.5    c0,0.6,0.1,1.1,0.3,1.4s0.5,0.5,1,0.5c0.3,0,0.5-0.1,0.8-0.2S288.5,149.8,288.7,149.6z"/> 		<path d="M294.5,146.6L294.5,146.6c-0.2,0-0.3-0.1-0.4-0.1c-0.1,0-0.3,0-0.4,0c-0.3,0-0.5,0.1-0.8,0.2c-0.2,0.1-0.5,0.3-0.7,0.5    v3.9h-0.9v-5.5h0.9v0.8c0.3-0.3,0.6-0.5,0.9-0.6s0.5-0.2,0.8-0.2c0.2,0,0.3,0,0.3,0c0.1,0,0.2,0,0.3,0V146.6z"/> 		<path d="M297.2,142.9l-1.3,1.8h-0.7l0.8-1.8H297.2z M296.2,151.1h-0.9v-5.5h0.9V151.1z"/> 	</g> </g> <g id="llegenda"> 	<line style="fill:none;stroke:#9A9A9A;stroke-width:2;stroke-miterlimit:10;" x1="-141.7" y1="153.8" x2="-141.7" y2="183.3"/> 	<line style="fill:none;stroke:#9A9A9A;stroke-miterlimit:10;" x1="-108.3" y1="153.8" x2="-108.3" y2="183.3"/> 	<g> 		<path d="M-134,164.2h0.9v7.1h-0.9V164.2z"/> 		<path d="M-130.7,165.1c0,0.3-0.2,0.5-0.6,0.5c-0.3,0-0.5-0.2-0.5-0.5s0.2-0.5,0.5-0.5C-130.9,164.5-130.7,164.8-130.7,165.1z     M-131.6,171.3v-4.8h0.9v4.8H-131.6z"/> 		<path d="M-129.3,167.8c0-0.5,0-0.9,0-1.3h0.8l0,0.8h0c0.2-0.4,0.8-0.9,1.6-0.9c0.7,0,1.7,0.4,1.7,2.1v2.9h-0.9v-2.8    c0-0.8-0.3-1.4-1.1-1.4c-0.6,0-1,0.4-1.2,0.9c0,0.1-0.1,0.3-0.1,0.4v2.9h-0.9V167.8z"/> 	</g> 	<line style="fill:none;stroke:#696969;stroke-width:2;stroke-miterlimit:10;" x1="-141.7" y1="193.4" x2="-141.7" y2="222.9"/> 	<g> 		<path d="M-134,203.8h0.9v7.1h-0.9V203.8z"/> 		<path d="M-130.7,204.7c0,0.3-0.2,0.5-0.6,0.5c-0.3,0-0.5-0.2-0.5-0.5s0.2-0.5,0.5-0.5C-130.9,204.1-130.7,204.4-130.7,204.7z     M-131.6,210.9V206h0.9v4.8H-131.6z"/> 		<path d="M-129.3,207.4c0-0.5,0-0.9,0-1.3h0.8l0,0.8h0c0.2-0.4,0.8-0.9,1.6-0.9c0.7,0,1.7,0.4,1.7,2.1v2.9h-0.9v-2.8    c0-0.8-0.3-1.4-1.1-1.4c-0.6,0-1,0.4-1.2,0.9c0,0.1-0.1,0.3-0.1,0.4v2.9h-0.9V207.4z"/> 	</g> 	<rect x="-147.1" y="129.2" style="fill:#BFBFBF;" width="16.3" height="15.3"/> 	<rect x="-147.1" y="101.5" style="fill:#DCE9FB;" width="16.3" height="15.3"/> 	<rect x="-178.5" y="101.5" style="fill:#D0E0A4;" width="16.3" height="15.3"/> 	<g> 		<path d="M-121.6,138.5v-4.2h-0.7v-0.7h0.7v-0.2c0-0.7,0.2-1.3,0.6-1.7c0.3-0.3,0.8-0.4,1.2-0.4c0.3,0,0.6,0.1,0.7,0.1l-0.1,0.7    c-0.1-0.1-0.3-0.1-0.6-0.1c-0.7,0-0.9,0.6-0.9,1.4v0.3h1.2v0.7h-1.2v4.2H-121.6z"/> 		<path d="M-114.5,136.1c0,1.8-1.2,2.6-2.4,2.6c-1.3,0-2.3-1-2.3-2.5c0-1.6,1.1-2.6,2.4-2.6C-115.4,133.6-114.5,134.6-114.5,136.1z     M-118.3,136.1c0,1.1,0.6,1.9,1.5,1.9c0.8,0,1.5-0.8,1.5-1.9c0-0.8-0.4-1.8-1.4-1.8C-117.9,134.3-118.3,135.2-118.3,136.1z"/> 		<path d="M-113.4,135c0-0.5,0-0.9,0-1.3h0.8l0,0.8h0c0.2-0.4,0.8-0.9,1.6-0.9c0.7,0,1.7,0.4,1.7,2.1v2.9h-0.9v-2.8    c0-0.8-0.3-1.4-1.1-1.4c-0.6,0-1,0.4-1.2,0.9c0,0.1-0.1,0.3-0.1,0.4v2.9h-0.9V135z"/> 		<path d="M-107.9,137.7c0.3,0.2,0.7,0.3,1.2,0.3c0.6,0,0.9-0.3,0.9-0.7c0-0.4-0.3-0.6-0.9-0.9c-0.9-0.3-1.3-0.8-1.3-1.4    c0-0.8,0.6-1.4,1.7-1.4c0.5,0,0.9,0.1,1.2,0.3l-0.2,0.6c-0.2-0.1-0.5-0.3-1-0.3c-0.5,0-0.8,0.3-0.8,0.7c0,0.4,0.3,0.6,0.9,0.8    c0.8,0.3,1.3,0.7,1.3,1.4c0,0.9-0.7,1.5-1.8,1.5c-0.5,0-1-0.1-1.4-0.3L-107.9,137.7z"/> 	</g> 	<g> 		<path d="M-121.6,107.7c0-0.5,0-0.9,0-1.3h0.8l0,0.8h0c0.3-0.5,0.7-0.9,1.5-0.9c0.6,0,1.1,0.4,1.4,1h0c0.1-0.3,0.4-0.5,0.5-0.6    c0.3-0.2,0.6-0.3,1.1-0.3c0.6,0,1.6,0.4,1.6,2.1v2.8h-0.9v-2.7c0-0.9-0.3-1.5-1-1.5c-0.5,0-0.9,0.4-1,0.8c0,0.1-0.1,0.3-0.1,0.4v3    h-0.9v-2.9c0-0.8-0.3-1.3-1-1.3c-0.5,0-0.9,0.4-1.1,0.9c-0.1,0.1-0.1,0.3-0.1,0.4v2.9h-0.9V107.7z"/> 		<path d="M-109.9,110.1c0,0.4,0,0.8,0.1,1.2h-0.8l-0.1-0.6h0c-0.3,0.4-0.8,0.7-1.5,0.7c-1,0-1.5-0.7-1.5-1.4c0-1.2,1-1.8,2.9-1.8    V108c0-0.4-0.1-1.1-1.1-1.1c-0.5,0-0.9,0.1-1.3,0.4l-0.2-0.6c0.4-0.3,1-0.4,1.6-0.4c1.5,0,1.8,1,1.8,2V110.1z M-110.8,108.7    c-1,0-2,0.1-2,1.1c0,0.6,0.4,0.8,0.8,0.8c0.6,0,1-0.4,1.2-0.8c0-0.1,0-0.2,0-0.3V108.7z"/> 		<path d="M-108.5,107.9c0-0.6,0-1.1,0-1.5h0.8l0,1h0c0.2-0.6,0.8-1.1,1.3-1.1c0.1,0,0.2,0,0.2,0v0.8c-0.1,0-0.2,0-0.3,0    c-0.6,0-1.1,0.5-1.2,1.1c0,0.1,0,0.3,0,0.4v2.6h-0.9V107.9z"/> 	</g> 	<circle style="fill-rule:evenodd;clip-rule:evenodd;fill:#5B7EBD;" cx="-141.7" cy="238" r="2.4"/> 	 		<rect x="-222.5" y="129.2" style="fill:#BFBFBF;stroke:#696969;stroke-width:2;stroke-miterlimit:10;" width="16.3" height="15.3"/> 	 		<rect x="-196.3" y="129.2" style="fill:#FFFBF0;stroke:#9A9A9A;stroke-width:2;stroke-miterlimit:10;" width="16.3" height="15.3"/> 	<rect x="-205.6" y="159.8" style="opacity:0.6;fill:#FFFBF0;" width="51" height="17.5"/> </g> </svg>