<svg xmlns="http://www.w3.org/2000/svg" xmlns:xlink="http://www.w3.org/1999/xlink" version="1.1" x="0px" y="0px" width="450px" height="450px" viewBox="0 0 450 450" style="enable-background:new 0 0 450 450;" xml:space="preserve">
<g id="Color_fons">
	<a xlink:href="Navarra Nafarroa">
		<path style="fill:#BFBFBF;stroke:#696969;stroke-width:2;stroke-linejoin:arcs;stroke-miterlimit:10;" d="M486.7,477.1    c-73.2-0.3-146.4-0.6-219.6-0.9c-11.3,0-12.3-16.3-16.1-25.8c-2.1-5.3-8.4-28.8-9.8-37.9c-0.8-5.4-4.5-13.8-0.9-14.9    c12.6-3.9,10-5.5,15.7-17.1c10-20.1,12.5-24.7,5.8-46.2c12.4,0.5,4.1-7.3,11.9-12.9c4-2.9,16.6-4,27.9-10.6    c8.4-5,29-10.5,22.6-23.3c-0.7-1.3,25.5-9.4,33.5-10.9c-0.6-10.6,10.9-9.4,10.2-19.2c6.1-4,15.5-15.4,33.2-34.6    c31.9-34.5-7.5-30.1-10.2-38.5c-1.4-4.3,5.4-21.6,5.1-26.4c-0.4-6.2-6.3-7.7-7.3-13.1c-1.3-6.9-1.3-10.1,0-16    c1-4.5,2.5-11.8,5.7-16.3c4.9-7.1,6.9-14.2,6.5-22.3c-0.7-15.5-7.3-32.1,0.9-41c0,0,11.3,15.2,10,15.3c-2.1,0.7-4.2,1.5-6.3,2.2    c5.3,14.2,25.1,10.2,24,5.4c3.6,2.6,15.8,4.8,18.8,5.2c-0.4-5.2-5.8-24.6-7.9-30.2c1.7-2.2,3.4-4.5,5.1-6.7    c8.8,8.1,17.4,16.6,26,24.9C468.1,55.6,481.7,308.5,486.7,477.1z"/>
	</a>
	<a xlink:href="Donostialdea">
		<path style="fill:#BFBFBF;stroke:#696969;stroke-width:2;stroke-linejoin:arcs;stroke-miterlimit:10;" d="M150.3-22.8    c73.4-0.9,146.8-1.8,220.3-2.7c30.9-0.4,61.7-0.7,92.6-1.1c2.9,0,6.1,80.6,6.7,90.3c-8.1-7.7-16.2-15.6-24.4-23.2    c-1.7,2.2-3.4,4.5-5.1,6.7c2.1,5.7,7.5,25,7.9,30.2c-3-0.5-15.1-2.6-18.8-5.2c1.2,4.8-18.6,8.7-24-5.4c2.1-0.7,4.2-1.5,6.3-2.2    c-0.1-0.6-8.8-15.1-10-15.3c-10.3,11.2,2.4,32.2-1.9,48.8c-4.6,17.9-16.8,26.3-9.7,46.5c-4.9-1.8-7.6-3.2-11.5-5    c-43.7-19.6-35.4-32.3-57.7-32.3c-12.4,0-14.5,14-28.4,14c-13.5,0-13.7-6.8-21.7-20c-6.5,7.6-39.1-4-28.2-14.4    c-2.1,0.2-4.1,0.4-6.2,0.6c-5.3-11.7-23.4-30.5,1.8-36.1c-1.9-2-7.1-6.5-8.9-8c-13.4,14.1-18.6-12-6.7-21.1    c-22.2-6.7-11.3,19-39.7,4.4C182.9,26.8,173.2,0,150.3-22.8L150.3-22.8z"/>
	</a>
	<a xlink:href="Urola Kosta">
		<path style="fill:#BFBFBF;stroke:#696969;stroke-width:2;stroke-linejoin:arcs;stroke-miterlimit:10;" d="M150.3-22.8    c13.6,16.1,28.5,31.9,34.2,51c-14-4.4-17.5,10.2-26.4,17.9c-2,1.7-5.8,0.9-9.5,2.1c-8.3,2.6-18.5,6.7-23.5,10.9    c-1.3,1.1-3.5,2-4.4,3.4c-4.7,6.7-5.7,16.2-13.1,18.1c-4.1,1-8,5.5-10,11.4c-2.6,7.6-2.7,17.9-3,27.3c-0.2,8-0.8,16,0.2,21    c0.6,3.3,2.2,5,3.7,5.5c0.4,0.1,3.4,1.3-5,6.2c2.7,2.3,6,4.4,6.8,6.6c4.9,13.3-20.3,25.8-23.2,30.6c-7.1,11.7-26.2-2.7-35.1,2.6    c10.5,7.5,3.6,10.7,8.2,19.8c4.7,9.3,12.4,14.4,14.3,26.4c0.9,5.7-3.5,19.6-8.6,24.5c8.4,3.1,15,7.9,13.8,16.6    C59.4,273,42.8,260.3,35,272c-1.5-1.1-4.2-3.5-7.8-5.5c-5-2.7-10.3-6.2-16.9-9.6c-14.1-7.4-29.7-14.1-29.9-17    c-1.6-28.5-3.2-57-4.8-85.5c-3.6-63.9-7.2-127.8-10.8-191.7C26.7-32.5,88.5-27.7,150.3-22.8L150.3-22.8z"/>
	</a>
	<a xlink:href="Goierri">
		<path style="fill:#BFBFBF;stroke:#696969;stroke-width:2;stroke-linejoin:arcs;stroke-miterlimit:10;" d="M261.4,476.3    c-95-0.8-190.1-1.6-285.1-2.5c2-76.2,4-152.3,6-228.5c18.5,5.7,30,10.7,45.9,21.8c12.7,8.9,27.8,9.9,39.1,19.2    c10.8,9,7.2,21.7,14.5,29.1c1.5,1.5,3.9-0.1,6.5,1.3c2.1,2.3,5.1,2.1,7.2,4.4c3,1.7,3.9-5.9,8.9-2.5c3.3,2.2,3.4,16.6,6.5,21.8    c6.8-5.5,7-6.7,15.3-9.3c6.9-2.2,13.5,12.4,14.8,15.5c8.7,21.6-12.5,29.4,5,47.2c-11.7,4.3-3.2,26.3-1.8,36.9    c10.9-0.8,13.4-5.4,20.1-11.3c4.3-3.8,10.6-9.7,20.8-10.3c20.2-1.2,35.5-3.2,53.8-11.3C243.2,425.6,250.9,450.2,261.4,476.3    L261.4,476.3z"/>
	</a>
</g>
<g id="sub_x005F_comarcas">
	<a xlink:href="Area de Tolosa">
		<path style="fill:#FFFBF0;stroke:#9A9A9A;stroke-width:2;stroke-linejoin:arcs;stroke-miterlimit:10;" d="M268.7,222.8    c-0.4,7.8,21.9,50,34,60c10,8.2,19.5-2,22.8,7.1c4.7,12.9-40.2,28.4-48.8,30.3c-9.8,2.1,0.6,15-14.9,14.3    c5.3,17.3,8.2,25.5-3.1,40.4c-2.9,3.8-5.5,16.2-7.7,18.3c-3.2,3.1-17,5.7-21.5,7.7c-15.4,6.8-32.6,6.8-49.3,8.7    c-13.2,1.5-20.1,19.9-36.1,21.1c-1.3-10.6-9.9-32.6,1.8-36.9c-18.2-18.5,3.4-25.1-4.3-44.3c-6.9-17.2-9.1-26.5-30.8-9.1    c-5.2-8.6-1.1-16.9-7.7-22.6c-2.9-2.5-4.3,9-10.7,1.9c-4.5-4.9-10-1.3-12.7-6.7c-5.4-10.9-3-18.7-12.6-26.7    c-10-8.3-21.5-6.9-32.2-14.4c7.8-11.6,24.4,1,34.5,7.2c1.2-8.7-5.4-13.5-13.8-16.6c5.2-4.9,9.6-18.8,8.6-24.5    c-1.5-8.9-8-17.9-14.2-24.1c-8-8,2.3-14.4-8.4-22.1c9-5.3,28.1,9,35.1-2.6c3.4-5.7,39.5-24.3,16.4-37.2c2.1-1.7,4.1-3.4,6.2-5.1    c20.6,34.4,50.8,48.3,89.1,41.7c10.7-1.9,10.9-10.6,16.2-13.8c18.1-10.6,58.6-5.7,72.3-10c-2.8,18.8-38.5,8.4-35.6,31    c-18.3,2.8-20.2,3.2-26.5,18.8C215.9,215.5,255.3,224.5,268.7,222.8z"/>
	</a>
	<a xlink:href="Area de Villabona">
		<path style="fill:#FFFBF0;stroke:#9A9A9A;stroke-width:2;stroke-linejoin:arcs;stroke-miterlimit:10;" d="M241.6,195.9    c-2.8-22.6,32.9-12.2,35.6-31c-12.7,4-60.3,3-69,8.1c-7.5,4.4-8,13.7-19.6,15.7c-46,8-71.1-11.5-94.6-49    c-0.3-0.4,0.7-36.3,1.5-40.4c1.5-8.1,3.3-16.4,11.9-18.6c10-2.6,8.4-18.1,18.8-22.9c7.5-3.4,19.7-9.7,25.2-10.3    c14.2-1.5,11.6-13.3,22.8-19.3c9.4-5.1,26.2,5.8,30-1.3c3.4-6.5,12.2-7.3,18.3-4.5c-11.9,9.1-6.7,35.2,6.7,21.1c1.9,1.6,7,6,8.9,8    c-25.1,5.6-7,24.4-1.8,36.1c2.1-0.2,4.1-0.4,6.2-0.6c-10.9,10.4,21.7,22,28.2,14.4c8,13.2,8.1,20,21.7,20c13.9,0,16-13,28.4-14    c16.7-1.3,21.3,12.4,34.4,21.5c10.2,7.1,28.8,9.6,37.4,19.1c8.6,9.5-1.6,22.4-1.5,33.5c0.1,11.4,20.6,6.9,22.7,18.9    c2.1,12-40.7,53.6-46.1,57.1c0.8,9.7-10.8,8.6-10.2,19.2c-18.8,3.5-40.4,17.8-55.2,5.6c-11.5-9.5-34.3-48.9-33.8-59.5    c-12,1.6-44.6-0.4-53.6-8.1C221.5,199.1,223.4,198.6,241.6,195.9L241.6,195.9z"/>
	</a>
</g>
<g id="text_x005F_exterior">
	<g>
		<rect x="302.4" y="349.2" style="fill-rule:evenodd;clip-rule:evenodd;fill:none;" width="122.2" height="11"/>
		<path d="M317.9,359.9h-1.8l-3.1-5v5h-1.7v-7.3h2.2l2.7,4.2v-4.2h1.7V359.9z"/>
		<path d="M323,359.4c-0.1,0.1-0.2,0.2-0.4,0.3s-0.3,0.2-0.4,0.2c-0.2,0.1-0.4,0.1-0.5,0.2c-0.2,0-0.4,0.1-0.6,0.1    c-0.5,0-1-0.2-1.3-0.5s-0.5-0.7-0.5-1.2c0-0.4,0.1-0.7,0.3-1s0.4-0.5,0.8-0.6c0.3-0.1,0.7-0.3,1.2-0.3s1-0.1,1.5-0.1v0    c0-0.3-0.1-0.5-0.4-0.6c-0.2-0.1-0.6-0.2-1.1-0.2c-0.3,0-0.6,0.1-0.9,0.2c-0.3,0.1-0.6,0.2-0.7,0.2h-0.2v-1.3    c0.2,0,0.5-0.1,0.9-0.2c0.4-0.1,0.8-0.1,1.3-0.1c1,0,1.7,0.2,2.2,0.5c0.4,0.3,0.7,0.8,0.7,1.4v3.7H323V359.4z M323,358.5v-1.1    c-0.2,0-0.5,0-0.8,0.1s-0.5,0.1-0.6,0.1c-0.2,0.1-0.3,0.1-0.4,0.2s-0.1,0.2-0.1,0.4c0,0.1,0,0.2,0,0.3s0.1,0.1,0.1,0.2    c0.1,0.1,0.2,0.1,0.3,0.1c0.1,0,0.3,0,0.5,0c0.2,0,0.4,0,0.5-0.1C322.7,358.7,322.9,358.6,323,358.5z"/>
		<path d="M331.9,354.5l-2.1,5.5h-2l-2.1-5.5h1.9l1.3,3.8l1.3-3.8H331.9z"/>
		<path d="M336.2,359.4c-0.1,0.1-0.2,0.2-0.4,0.3s-0.3,0.2-0.4,0.2c-0.2,0.1-0.4,0.1-0.5,0.2c-0.2,0-0.4,0.1-0.6,0.1    c-0.5,0-1-0.2-1.3-0.5s-0.5-0.7-0.5-1.2c0-0.4,0.1-0.7,0.3-1s0.4-0.5,0.8-0.6c0.3-0.1,0.7-0.3,1.2-0.3s1-0.1,1.5-0.1v0    c0-0.3-0.1-0.5-0.4-0.6c-0.2-0.1-0.6-0.2-1.1-0.2c-0.3,0-0.6,0.1-0.9,0.2c-0.3,0.1-0.6,0.2-0.7,0.2h-0.2v-1.3    c0.2,0,0.5-0.1,0.9-0.2c0.4-0.1,0.8-0.1,1.3-0.1c1,0,1.7,0.2,2.2,0.5c0.4,0.3,0.7,0.8,0.7,1.4v3.7h-1.7V359.4z M336.2,358.5v-1.1    c-0.2,0-0.5,0-0.8,0.1s-0.5,0.1-0.6,0.1c-0.2,0.1-0.3,0.1-0.4,0.2s-0.1,0.2-0.1,0.4c0,0.1,0,0.2,0,0.3s0.1,0.1,0.1,0.2    c0.1,0.1,0.2,0.1,0.3,0.1c0.1,0,0.3,0,0.5,0c0.2,0,0.4,0,0.5-0.1C335.9,358.7,336,358.6,336.2,358.5z"/>
		<path d="M343.5,356.1h-0.2c-0.1,0-0.2,0-0.4-0.1c-0.2,0-0.3,0-0.4,0c-0.3,0-0.5,0-0.7,0s-0.4,0.1-0.6,0.2v3.7h-1.8v-5.5h1.8v0.8    c0.4-0.3,0.7-0.6,1-0.7c0.3-0.1,0.5-0.2,0.8-0.2c0.1,0,0.1,0,0.2,0s0.1,0,0.2,0V356.1z"/>
		<path d="M348.5,356.1h-0.2c-0.1,0-0.2,0-0.4-0.1c-0.2,0-0.3,0-0.4,0c-0.3,0-0.5,0-0.7,0s-0.4,0.1-0.6,0.2v3.7h-1.8v-5.5h1.8v0.8    c0.4-0.3,0.7-0.6,1-0.7c0.3-0.1,0.5-0.2,0.8-0.2c0.1,0,0.1,0,0.2,0s0.1,0,0.2,0V356.1z"/>
		<path d="M352.8,359.4c-0.1,0.1-0.2,0.2-0.4,0.3s-0.3,0.2-0.4,0.2c-0.2,0.1-0.4,0.1-0.5,0.2c-0.2,0-0.4,0.1-0.6,0.1    c-0.5,0-1-0.2-1.3-0.5s-0.5-0.7-0.5-1.2c0-0.4,0.1-0.7,0.3-1s0.4-0.5,0.8-0.6c0.3-0.1,0.7-0.3,1.2-0.3s1-0.1,1.5-0.1v0    c0-0.3-0.1-0.5-0.4-0.6c-0.2-0.1-0.6-0.2-1.1-0.2c-0.3,0-0.6,0.1-0.9,0.2c-0.3,0.1-0.6,0.2-0.7,0.2h-0.2v-1.3    c0.2,0,0.5-0.1,0.9-0.2c0.4-0.1,0.8-0.1,1.3-0.1c1,0,1.7,0.2,2.2,0.5c0.4,0.3,0.7,0.8,0.7,1.4v3.7h-1.7V359.4z M352.8,358.5v-1.1    c-0.2,0-0.5,0-0.8,0.1s-0.5,0.1-0.6,0.1c-0.2,0.1-0.3,0.1-0.4,0.2s-0.1,0.2-0.1,0.4c0,0.1,0,0.2,0,0.3s0.1,0.1,0.1,0.2    c0.1,0.1,0.2,0.1,0.3,0.1c0.1,0,0.3,0,0.5,0c0.2,0,0.4,0,0.5-0.1C352.5,358.7,352.7,358.6,352.8,358.5z"/>
		<path d="M363,357.4h-3.7V356h3.7V357.4z"/>
		<path d="M374.5,359.9h-1.8l-3.1-5v5h-1.7v-7.3h2.2l2.7,4.2v-4.2h1.7V359.9z"/>
		<path d="M379.6,359.4c-0.1,0.1-0.2,0.2-0.4,0.3s-0.3,0.2-0.4,0.2c-0.2,0.1-0.4,0.1-0.5,0.2c-0.2,0-0.4,0.1-0.6,0.1    c-0.5,0-1-0.2-1.3-0.5s-0.5-0.7-0.5-1.2c0-0.4,0.1-0.7,0.3-1s0.4-0.5,0.8-0.6c0.3-0.1,0.7-0.3,1.2-0.3s1-0.1,1.5-0.1v0    c0-0.3-0.1-0.5-0.4-0.6c-0.2-0.1-0.6-0.2-1.1-0.2c-0.3,0-0.6,0.1-0.9,0.2c-0.3,0.1-0.6,0.2-0.7,0.2h-0.2v-1.3    c0.2,0,0.5-0.1,0.9-0.2c0.4-0.1,0.8-0.1,1.3-0.1c1,0,1.7,0.2,2.2,0.5c0.4,0.3,0.7,0.8,0.7,1.4v3.7h-1.7V359.4z M379.6,358.5v-1.1    c-0.2,0-0.5,0-0.8,0.1s-0.5,0.1-0.6,0.1c-0.2,0.1-0.3,0.1-0.4,0.2s-0.1,0.2-0.1,0.4c0,0.1,0,0.2,0,0.3s0.1,0.1,0.1,0.2    c0.1,0.1,0.2,0.1,0.3,0.1c0.1,0,0.3,0,0.5,0c0.2,0,0.4,0,0.5-0.1C379.3,358.7,379.5,358.6,379.6,358.5z"/>
		<path d="M386.5,353.6h-0.1c-0.1,0-0.2,0-0.3-0.1s-0.3,0-0.4,0c-0.3,0-0.6,0.1-0.7,0.2s-0.2,0.4-0.2,0.7v0h1.4v1.2h-1.3v4.3h-1.8    v-4.3h-0.8v-1.2h0.8v-0.2c0-0.7,0.2-1.2,0.5-1.5s0.9-0.5,1.6-0.5c0.3,0,0.5,0,0.7,0c0.2,0,0.4,0,0.6,0.1V353.6z"/>
		<path d="M390.5,359.4c-0.1,0.1-0.2,0.2-0.4,0.3s-0.3,0.2-0.4,0.2c-0.2,0.1-0.4,0.1-0.5,0.2c-0.2,0-0.4,0.1-0.6,0.1    c-0.5,0-1-0.2-1.3-0.5s-0.5-0.7-0.5-1.2c0-0.4,0.1-0.7,0.3-1s0.4-0.5,0.8-0.6c0.3-0.1,0.7-0.3,1.2-0.3s1-0.1,1.5-0.1v0    c0-0.3-0.1-0.5-0.4-0.6c-0.2-0.1-0.6-0.2-1.1-0.2c-0.3,0-0.6,0.1-0.9,0.2c-0.3,0.1-0.6,0.2-0.7,0.2h-0.2v-1.3    c0.2,0,0.5-0.1,0.9-0.2c0.4-0.1,0.8-0.1,1.3-0.1c1,0,1.7,0.2,2.2,0.5c0.4,0.3,0.7,0.8,0.7,1.4v3.7h-1.7V359.4z M390.5,358.5v-1.1    c-0.2,0-0.5,0-0.8,0.1s-0.5,0.1-0.6,0.1c-0.2,0.1-0.3,0.1-0.4,0.2s-0.1,0.2-0.1,0.4c0,0.1,0,0.2,0,0.3s0.1,0.1,0.1,0.2    c0.1,0.1,0.2,0.1,0.3,0.1c0.1,0,0.3,0,0.5,0c0.2,0,0.4,0,0.5-0.1C390.2,358.7,390.4,358.6,390.5,358.5z"/>
		<path d="M397.8,356.1h-0.2c-0.1,0-0.2,0-0.4-0.1c-0.2,0-0.3,0-0.4,0c-0.3,0-0.5,0-0.7,0s-0.4,0.1-0.6,0.2v3.7h-1.8v-5.5h1.8v0.8    c0.4-0.3,0.7-0.6,1-0.7c0.3-0.1,0.5-0.2,0.8-0.2c0.1,0,0.1,0,0.2,0s0.1,0,0.2,0V356.1z"/>
		<path d="M402.8,356.1h-0.2c-0.1,0-0.2,0-0.4-0.1c-0.2,0-0.3,0-0.4,0c-0.3,0-0.5,0-0.7,0s-0.4,0.1-0.6,0.2v3.7h-1.8v-5.5h1.8v0.8    c0.4-0.3,0.7-0.6,1-0.7c0.3-0.1,0.5-0.2,0.8-0.2c0.1,0,0.1,0,0.2,0s0.1,0,0.2,0V356.1z"/>
		<path d="M409.4,357.2c0,0.9-0.3,1.6-0.8,2.1c-0.5,0.5-1.3,0.8-2.2,0.8s-1.7-0.3-2.2-0.8c-0.5-0.5-0.8-1.2-0.8-2.1    c0-0.9,0.3-1.6,0.8-2.1c0.5-0.5,1.3-0.8,2.2-0.8c1,0,1.7,0.3,2.2,0.8S409.4,356.3,409.4,357.2z M407.2,358.5    c0.1-0.1,0.2-0.3,0.3-0.5c0.1-0.2,0.1-0.5,0.1-0.8c0-0.3,0-0.6-0.1-0.8s-0.1-0.4-0.2-0.5c-0.1-0.1-0.2-0.2-0.4-0.3    s-0.3-0.1-0.5-0.1s-0.3,0-0.5,0.1s-0.3,0.1-0.4,0.3c-0.1,0.1-0.2,0.3-0.3,0.5s-0.1,0.5-0.1,0.8c0,0.3,0,0.6,0.1,0.8    c0.1,0.2,0.1,0.4,0.2,0.5c0.1,0.1,0.2,0.2,0.4,0.3c0.1,0.1,0.3,0.1,0.5,0.1c0.2,0,0.3,0,0.5-0.1    C407,358.7,407.1,358.7,407.2,358.5z"/>
		<path d="M414,359.4c-0.1,0.1-0.2,0.2-0.4,0.3s-0.3,0.2-0.4,0.2c-0.2,0.1-0.4,0.1-0.5,0.2c-0.2,0-0.4,0.1-0.6,0.1    c-0.5,0-1-0.2-1.3-0.5s-0.5-0.7-0.5-1.2c0-0.4,0.1-0.7,0.3-1s0.4-0.5,0.8-0.6c0.3-0.1,0.7-0.3,1.2-0.3s1-0.1,1.5-0.1v0    c0-0.3-0.1-0.5-0.4-0.6c-0.2-0.1-0.6-0.2-1.1-0.2c-0.3,0-0.6,0.1-0.9,0.2c-0.3,0.1-0.6,0.2-0.7,0.2h-0.2v-1.3    c0.2,0,0.5-0.1,0.9-0.2c0.4-0.1,0.8-0.1,1.3-0.1c1,0,1.7,0.2,2.2,0.5c0.4,0.3,0.7,0.8,0.7,1.4v3.7H414V359.4z M414,358.5v-1.1    c-0.2,0-0.5,0-0.8,0.1s-0.5,0.1-0.6,0.1c-0.2,0.1-0.3,0.1-0.4,0.2s-0.1,0.2-0.1,0.4c0,0.1,0,0.2,0,0.3s0.1,0.1,0.1,0.2    c0.1,0.1,0.2,0.1,0.3,0.1c0.1,0,0.3,0,0.5,0c0.2,0,0.4,0,0.5-0.1C413.7,358.7,413.8,358.6,414,358.5z"/>
	</g>
	<g>
		<rect x="256.7" y="36.3" style="fill-rule:evenodd;clip-rule:evenodd;fill:none;" width="131.8" height="11"/>
		<path d="M293.6,43.4c0,0.7-0.2,1.3-0.5,1.8s-0.7,0.9-1.2,1.2c-0.4,0.2-0.7,0.4-1.2,0.4s-0.9,0.1-1.5,0.1h-2.6v-7.3h2.6    c0.6,0,1.1,0,1.5,0.1s0.8,0.2,1.1,0.4c0.5,0.3,0.9,0.7,1.2,1.2C293.5,42.1,293.6,42.7,293.6,43.4z M291.7,43.4    c0-0.5-0.1-0.9-0.3-1.2c-0.2-0.3-0.5-0.6-0.8-0.8c-0.2-0.1-0.4-0.2-0.6-0.2c-0.2,0-0.5-0.1-0.9-0.1h-0.5v4.6h0.5    c0.4,0,0.8,0,1-0.1s0.4-0.1,0.6-0.2c0.3-0.2,0.6-0.5,0.8-0.8S291.7,43.9,291.7,43.4z"/>
		<path d="M300.6,44.3c0,0.9-0.3,1.6-0.8,2.1c-0.5,0.5-1.3,0.8-2.2,0.8s-1.7-0.3-2.2-0.8c-0.5-0.5-0.8-1.2-0.8-2.1    c0-0.9,0.3-1.6,0.8-2.1c0.5-0.5,1.3-0.8,2.2-0.8c1,0,1.7,0.3,2.2,0.8C300.3,42.7,300.6,43.4,300.6,44.3z M298.4,45.6    c0.1-0.1,0.2-0.3,0.3-0.5c0.1-0.2,0.1-0.5,0.1-0.8c0-0.3,0-0.6-0.1-0.8s-0.1-0.4-0.2-0.5c-0.1-0.1-0.2-0.2-0.4-0.3    s-0.3-0.1-0.5-0.1s-0.3,0-0.5,0.1c-0.1,0-0.3,0.1-0.4,0.3c-0.1,0.1-0.2,0.3-0.3,0.5c-0.1,0.2-0.1,0.5-0.1,0.8c0,0.3,0,0.6,0.1,0.8    s0.1,0.4,0.2,0.5c0.1,0.1,0.2,0.2,0.4,0.3c0.1,0.1,0.3,0.1,0.5,0.1c0.2,0,0.3,0,0.5-0.1C298.2,45.8,298.3,45.7,298.4,45.6z"/>
		<path d="M307.3,47h-1.8v-2.7c0-0.2,0-0.4,0-0.7s-0.1-0.4-0.1-0.5c-0.1-0.1-0.2-0.2-0.3-0.3c-0.1-0.1-0.3-0.1-0.5-0.1    c-0.2,0-0.3,0-0.5,0.1c-0.2,0.1-0.3,0.1-0.5,0.2V47h-1.8v-5.5h1.8v0.6c0.3-0.2,0.6-0.4,0.9-0.6c0.3-0.1,0.6-0.2,1-0.2    c0.6,0,1.1,0.2,1.4,0.5s0.5,0.9,0.5,1.5V47z"/>
		<path d="M314.6,44.3c0,0.9-0.3,1.6-0.8,2.1c-0.5,0.5-1.3,0.8-2.2,0.8s-1.7-0.3-2.2-0.8c-0.5-0.5-0.8-1.2-0.8-2.1    c0-0.9,0.3-1.6,0.8-2.1c0.5-0.5,1.3-0.8,2.2-0.8c1,0,1.7,0.3,2.2,0.8C314.3,42.7,314.6,43.4,314.6,44.3z M312.4,45.6    c0.1-0.1,0.2-0.3,0.3-0.5c0.1-0.2,0.1-0.5,0.1-0.8c0-0.3,0-0.6-0.1-0.8s-0.1-0.4-0.2-0.5c-0.1-0.1-0.2-0.2-0.4-0.3    s-0.3-0.1-0.5-0.1s-0.3,0-0.5,0.1c-0.1,0-0.3,0.1-0.4,0.3c-0.1,0.1-0.2,0.3-0.3,0.5c-0.1,0.2-0.1,0.5-0.1,0.8c0,0.3,0,0.6,0.1,0.8    s0.1,0.4,0.2,0.5c0.1,0.1,0.2,0.2,0.4,0.3c0.1,0.1,0.3,0.1,0.5,0.1c0.2,0,0.3,0,0.5-0.1C312.2,45.8,312.3,45.7,312.4,45.6z"/>
		<path d="M320.6,45.3c0,0.6-0.3,1-0.8,1.4s-1.2,0.5-2.1,0.5c-0.5,0-0.9,0-1.3-0.1s-0.7-0.2-1-0.3v-1.4h0.2c0.1,0.1,0.2,0.1,0.3,0.2    c0.1,0.1,0.3,0.2,0.5,0.2c0.2,0.1,0.4,0.1,0.6,0.2s0.5,0.1,0.7,0.1c0.3,0,0.6,0,0.8-0.1s0.2-0.2,0.2-0.3c0-0.1,0-0.2-0.1-0.3    s-0.3-0.1-0.6-0.2c-0.1,0-0.3-0.1-0.5-0.1c-0.2,0-0.4-0.1-0.6-0.1c-0.5-0.1-0.9-0.3-1.1-0.6s-0.4-0.6-0.4-1c0-0.5,0.3-1,0.8-1.3    c0.5-0.4,1.2-0.5,2-0.5c0.4,0,0.8,0,1.2,0.1c0.4,0.1,0.7,0.2,0.9,0.3v1.4h-0.2c-0.3-0.2-0.6-0.3-0.9-0.4c-0.3-0.1-0.7-0.2-1-0.2    c-0.3,0-0.5,0-0.7,0.1c-0.2,0.1-0.3,0.2-0.3,0.3c0,0.1,0,0.2,0.1,0.3s0.3,0.1,0.6,0.2c0.2,0,0.4,0.1,0.6,0.1    c0.2,0,0.4,0.1,0.6,0.1c0.5,0.1,0.8,0.3,1,0.6S320.6,44.9,320.6,45.3z"/>
		<path d="M325.3,47c-0.2,0-0.4,0.1-0.6,0.1c-0.2,0-0.5,0-0.8,0c-0.7,0-1.2-0.1-1.5-0.4c-0.3-0.3-0.5-0.8-0.5-1.4v-2.6h-0.7v-1.2    h0.7V40h1.8v1.6h1.6v1.2h-1.6v1.9c0,0.2,0,0.4,0,0.5c0,0.1,0,0.3,0.1,0.4c0,0.1,0.1,0.2,0.2,0.3c0.1,0.1,0.3,0.1,0.5,0.1    c0.1,0,0.2,0,0.4-0.1s0.3-0.1,0.3-0.1h0.1V47z"/>
		<path d="M328.1,40.8h-1.9v-1.3h1.9V40.8z M328.1,47h-1.8v-5.5h1.8V47z"/>
		<path d="M333,46.4c-0.1,0.1-0.2,0.2-0.4,0.3s-0.3,0.2-0.4,0.2c-0.2,0.1-0.4,0.1-0.5,0.2s-0.4,0.1-0.6,0.1c-0.5,0-1-0.2-1.3-0.5    s-0.5-0.7-0.5-1.2c0-0.4,0.1-0.7,0.3-1s0.4-0.5,0.8-0.6c0.3-0.1,0.7-0.3,1.2-0.3s1-0.1,1.5-0.1v0c0-0.3-0.1-0.5-0.4-0.6    s-0.6-0.2-1.1-0.2c-0.3,0-0.6,0.1-0.9,0.2s-0.6,0.2-0.7,0.2h-0.2v-1.3c0.2,0,0.5-0.1,0.9-0.2c0.4-0.1,0.8-0.1,1.3-0.1    c1,0,1.7,0.2,2.2,0.5c0.4,0.3,0.7,0.8,0.7,1.4V47H333V46.4z M333,45.6v-1.1c-0.2,0-0.5,0-0.8,0.1c-0.3,0-0.5,0.1-0.6,0.1    c-0.2,0.1-0.3,0.1-0.4,0.2c-0.1,0.1-0.1,0.2-0.1,0.4c0,0.1,0,0.2,0,0.3c0,0.1,0.1,0.1,0.1,0.2c0.1,0.1,0.2,0.1,0.3,0.1    s0.3,0,0.5,0c0.2,0,0.4,0,0.5-0.1C332.8,45.8,332.9,45.7,333,45.6z"/>
		<path d="M338.2,47h-1.8v-7.6h1.8V47z"/>
		<path d="M345.2,47h-1.8v-0.6c-0.3,0.2-0.6,0.4-0.8,0.5s-0.6,0.2-0.9,0.2c-0.7,0-1.2-0.3-1.6-0.8c-0.4-0.5-0.6-1.2-0.6-2.1    c0-0.5,0.1-0.9,0.2-1.2s0.3-0.7,0.6-0.9c0.2-0.2,0.5-0.4,0.8-0.6s0.6-0.2,0.9-0.2c0.3,0,0.6,0,0.8,0.1c0.2,0.1,0.4,0.2,0.6,0.3    v-2.3h1.8V47z M343.4,45.5v-2.7c-0.1-0.1-0.3-0.1-0.4-0.1s-0.3,0-0.4,0c-0.5,0-0.8,0.1-1,0.4s-0.3,0.7-0.3,1.2    c0,0.5,0.1,0.9,0.3,1.2c0.2,0.2,0.5,0.4,0.9,0.4c0.2,0,0.3,0,0.5-0.1C343.1,45.7,343.3,45.6,343.4,45.5z"/>
		<path d="M352.2,44.6h-4c0,0.4,0.2,0.8,0.5,1c0.3,0.2,0.7,0.3,1.3,0.3c0.4,0,0.7-0.1,1.1-0.2s0.6-0.3,0.8-0.4h0.2v1.4    c-0.4,0.2-0.8,0.3-1.1,0.3s-0.7,0.1-1.2,0.1c-1.1,0-1.9-0.2-2.5-0.7s-0.9-1.2-0.9-2.1c0-0.9,0.3-1.6,0.8-2.2    c0.6-0.5,1.3-0.8,2.3-0.8c0.9,0,1.6,0.2,2,0.7s0.7,1.1,0.7,1.9V44.6z M350.5,43.6c0-0.4-0.1-0.6-0.3-0.8s-0.4-0.3-0.8-0.3    c-0.3,0-0.6,0.1-0.8,0.3s-0.3,0.5-0.4,0.8H350.5z"/>
		<path d="M356.8,46.4c-0.1,0.1-0.2,0.2-0.4,0.3s-0.3,0.2-0.4,0.2c-0.2,0.1-0.4,0.1-0.5,0.2s-0.4,0.1-0.6,0.1c-0.5,0-1-0.2-1.3-0.5    S353,46,353,45.4c0-0.4,0.1-0.7,0.3-1s0.4-0.5,0.8-0.6c0.3-0.1,0.7-0.3,1.2-0.3s1-0.1,1.5-0.1v0c0-0.3-0.1-0.5-0.4-0.6    s-0.6-0.2-1.1-0.2c-0.3,0-0.6,0.1-0.9,0.2s-0.6,0.2-0.7,0.2h-0.2v-1.3c0.2,0,0.5-0.1,0.9-0.2c0.4-0.1,0.8-0.1,1.3-0.1    c1,0,1.7,0.2,2.2,0.5c0.4,0.3,0.7,0.8,0.7,1.4V47h-1.7V46.4z M356.8,45.6v-1.1c-0.2,0-0.5,0-0.8,0.1c-0.3,0-0.5,0.1-0.6,0.1    c-0.2,0.1-0.3,0.1-0.4,0.2c-0.1,0.1-0.1,0.2-0.1,0.4c0,0.1,0,0.2,0,0.3c0,0.1,0.1,0.1,0.1,0.2c0.1,0.1,0.2,0.1,0.3,0.1    s0.3,0,0.5,0c0.2,0,0.4,0,0.5-0.1C356.5,45.8,356.6,45.7,356.8,45.6z"/>
	</g>
	<g>
		<rect x="19.5" y="68" style="fill-rule:evenodd;clip-rule:evenodd;fill:none;" width="66.2" height="11"/>
		<path d="M27.2,76.1c0,0.9-0.3,1.6-0.8,2.1s-1.4,0.7-2.4,0.7s-1.9-0.2-2.4-0.7s-0.8-1.2-0.8-2.1v-4.6h1.9V76c0,0.5,0.1,0.9,0.3,1.1    s0.6,0.4,1,0.4c0.5,0,0.8-0.1,1-0.4s0.3-0.6,0.3-1.1v-4.5h1.9V76.1z"/>
		<path d="M32.9,74.9h-0.2c-0.1,0-0.2,0-0.4-0.1c-0.2,0-0.3,0-0.4,0c-0.3,0-0.5,0-0.7,0c-0.2,0-0.4,0.1-0.6,0.2v3.7h-1.8v-5.5h1.8    V74c0.4-0.3,0.7-0.6,1-0.7c0.3-0.1,0.5-0.2,0.8-0.2c0.1,0,0.1,0,0.2,0s0.1,0,0.2,0V74.9z"/>
		<path d="M39.5,76c0,0.9-0.3,1.6-0.8,2.1s-1.3,0.8-2.2,0.8s-1.7-0.3-2.2-0.8s-0.8-1.2-0.8-2.1c0-0.9,0.3-1.6,0.8-2.1    s1.3-0.8,2.2-0.8c1,0,1.7,0.3,2.2,0.8S39.5,75.1,39.5,76z M37.3,77.3c0.1-0.1,0.2-0.3,0.3-0.5s0.1-0.5,0.1-0.8    c0-0.3,0-0.6-0.1-0.8s-0.1-0.4-0.2-0.5c-0.1-0.1-0.2-0.2-0.4-0.3s-0.3-0.1-0.5-0.1s-0.3,0-0.5,0.1s-0.3,0.1-0.4,0.3    c-0.1,0.1-0.2,0.3-0.3,0.5s-0.1,0.5-0.1,0.8c0,0.3,0,0.6,0.1,0.8s0.1,0.4,0.2,0.5c0.1,0.1,0.2,0.2,0.4,0.3s0.3,0.1,0.5,0.1    c0.2,0,0.3,0,0.5-0.1S37.2,77.4,37.3,77.3z"/>
		<path d="M42.5,78.7h-1.8v-7.6h1.8V78.7z"/>
		<path d="M47.5,78.1c-0.1,0.1-0.2,0.2-0.4,0.3s-0.3,0.2-0.4,0.2c-0.2,0.1-0.4,0.1-0.5,0.2s-0.4,0.1-0.6,0.1c-0.5,0-1-0.2-1.3-0.5    s-0.5-0.7-0.5-1.2c0-0.4,0.1-0.7,0.3-1s0.4-0.5,0.8-0.6c0.3-0.1,0.7-0.3,1.2-0.3s1-0.1,1.5-0.1v0c0-0.3-0.1-0.5-0.4-0.6    s-0.6-0.2-1.1-0.2c-0.3,0-0.6,0.1-0.9,0.2s-0.6,0.2-0.7,0.2h-0.2v-1.3c0.2,0,0.5-0.1,0.9-0.2s0.8-0.1,1.3-0.1c1,0,1.7,0.2,2.2,0.5    s0.7,0.8,0.7,1.4v3.7h-1.7V78.1z M47.5,77.3v-1.1c-0.2,0-0.5,0-0.8,0.1c-0.3,0-0.5,0.1-0.6,0.1c-0.2,0.1-0.3,0.1-0.4,0.2    s-0.1,0.2-0.1,0.4c0,0.1,0,0.2,0,0.3c0,0.1,0.1,0.1,0.1,0.2c0.1,0.1,0.2,0.1,0.3,0.1s0.3,0,0.5,0c0.2,0,0.4,0,0.5-0.1    S47.3,77.4,47.5,77.3z"/>
		<path d="M61.1,78.7h-2.3l-2.2-2.9l-0.4,0.5v2.4h-1.9v-7.3h1.9v3.3l2.6-3.3H61l-2.8,3.4L61.1,78.7z"/>
		<path d="M67.5,76c0,0.9-0.3,1.6-0.8,2.1s-1.3,0.8-2.2,0.8s-1.7-0.3-2.2-0.8s-0.8-1.2-0.8-2.1c0-0.9,0.3-1.6,0.8-2.1    s1.3-0.8,2.2-0.8c1,0,1.7,0.3,2.2,0.8S67.5,75.1,67.5,76z M65.4,77.3c0.1-0.1,0.2-0.3,0.3-0.5s0.1-0.5,0.1-0.8    c0-0.3,0-0.6-0.1-0.8s-0.1-0.4-0.2-0.5c-0.1-0.1-0.2-0.2-0.4-0.3s-0.3-0.1-0.5-0.1s-0.3,0-0.5,0.1s-0.3,0.1-0.4,0.3    c-0.1,0.1-0.2,0.3-0.3,0.5s-0.1,0.5-0.1,0.8c0,0.3,0,0.6,0.1,0.8s0.1,0.4,0.2,0.5c0.1,0.1,0.2,0.2,0.4,0.3s0.3,0.1,0.5,0.1    c0.2,0,0.3,0,0.5-0.1S65.3,77.4,65.4,77.3z"/>
		<path d="M73.6,77c0,0.6-0.3,1-0.8,1.4s-1.2,0.5-2.1,0.5c-0.5,0-0.9,0-1.3-0.1s-0.7-0.2-1-0.3V77h0.2c0.1,0.1,0.2,0.1,0.3,0.2    s0.3,0.2,0.5,0.2c0.2,0.1,0.4,0.1,0.6,0.2s0.5,0.1,0.7,0.1c0.3,0,0.6,0,0.8-0.1s0.2-0.2,0.2-0.3c0-0.1,0-0.2-0.1-0.3    s-0.3-0.1-0.6-0.2c-0.1,0-0.3-0.1-0.5-0.1s-0.4-0.1-0.6-0.1c-0.5-0.1-0.9-0.3-1.1-0.6s-0.4-0.6-0.4-1c0-0.5,0.3-1,0.7-1.3    s1.2-0.5,2-0.5c0.4,0,0.8,0,1.2,0.1s0.7,0.2,0.9,0.3v1.4h-0.2c-0.3-0.2-0.6-0.3-0.9-0.4s-0.7-0.2-1-0.2c-0.3,0-0.5,0-0.7,0.1    s-0.3,0.2-0.3,0.3c0,0.1,0,0.2,0.1,0.3s0.3,0.1,0.6,0.2c0.2,0,0.4,0.1,0.6,0.1s0.4,0.1,0.6,0.1c0.5,0.1,0.8,0.3,1,0.6    S73.6,76.6,73.6,77z"/>
		<path d="M78.2,78.7c-0.2,0-0.4,0.1-0.6,0.1c-0.2,0-0.5,0-0.8,0c-0.7,0-1.2-0.1-1.5-0.4s-0.5-0.8-0.5-1.4v-2.6h-0.7v-1.2h0.7v-1.6    h1.8v1.6h1.6v1.2h-1.6v1.9c0,0.2,0,0.4,0,0.5c0,0.1,0,0.3,0.1,0.4c0,0.1,0.1,0.2,0.2,0.3s0.3,0.1,0.5,0.1c0.1,0,0.2,0,0.4-0.1    c0.1,0,0.3-0.1,0.3-0.1h0.1V78.7z"/>
		<path d="M82.6,78.1c-0.1,0.1-0.2,0.2-0.4,0.3s-0.3,0.2-0.4,0.2c-0.2,0.1-0.4,0.1-0.5,0.2s-0.4,0.1-0.6,0.1c-0.5,0-1-0.2-1.3-0.5    s-0.5-0.7-0.5-1.2c0-0.4,0.1-0.7,0.3-1s0.4-0.5,0.8-0.6c0.3-0.1,0.7-0.3,1.2-0.3s1-0.1,1.5-0.1v0c0-0.3-0.1-0.5-0.4-0.6    s-0.6-0.2-1.1-0.2c-0.3,0-0.6,0.1-0.9,0.2s-0.6,0.2-0.7,0.2h-0.2v-1.3c0.2,0,0.5-0.1,0.9-0.2s0.8-0.1,1.3-0.1c1,0,1.7,0.2,2.2,0.5    s0.7,0.8,0.7,1.4v3.7h-1.7V78.1z M82.6,77.3v-1.1c-0.2,0-0.5,0-0.8,0.1c-0.3,0-0.5,0.1-0.6,0.1c-0.2,0.1-0.3,0.1-0.4,0.2    s-0.1,0.2-0.1,0.4c0,0.1,0,0.2,0,0.3c0,0.1,0.1,0.1,0.1,0.2c0.1,0.1,0.2,0.1,0.3,0.1s0.3,0,0.5,0c0.2,0,0.4,0,0.5-0.1    S82.5,77.4,82.6,77.3z"/>
	</g>
	<g>
		<rect x="46.4" y="377.8" style="fill-rule:evenodd;clip-rule:evenodd;fill:none;" width="41.5" height="11"/>
		<path d="M55.3,388.1c-0.3,0.1-0.8,0.3-1.3,0.4c-0.5,0.1-1.1,0.2-1.6,0.2c-1.2,0-2.2-0.3-2.9-1c-0.7-0.7-1-1.6-1-2.8    c0-1.1,0.4-2,1.1-2.7c0.7-0.7,1.7-1,3-1c0.5,0,0.9,0,1.4,0.1c0.4,0.1,0.9,0.3,1.4,0.5v1.7H55c-0.1-0.1-0.2-0.2-0.4-0.3    c-0.2-0.1-0.3-0.2-0.5-0.3c-0.2-0.1-0.4-0.2-0.7-0.3s-0.5-0.1-0.8-0.1c-0.3,0-0.6,0-0.9,0.1s-0.5,0.2-0.7,0.4    c-0.2,0.2-0.4,0.4-0.5,0.7c-0.1,0.3-0.2,0.6-0.2,1c0,0.8,0.2,1.4,0.6,1.8s1.1,0.6,1.9,0.6c0.1,0,0.2,0,0.2,0s0.2,0,0.2,0v-1.4    h-1.5v-1.4h3.4V388.1z"/>
		<path d="M62.5,385.7c0,0.9-0.3,1.6-0.8,2.1c-0.5,0.5-1.3,0.8-2.2,0.8s-1.7-0.3-2.2-0.8c-0.5-0.5-0.8-1.2-0.8-2.1    c0-0.9,0.3-1.6,0.8-2.1s1.3-0.8,2.2-0.8c1,0,1.7,0.3,2.2,0.8S62.5,384.8,62.5,385.7z M60.3,387.1c0.1-0.1,0.2-0.3,0.3-0.5    c0.1-0.2,0.1-0.5,0.1-0.8c0-0.3,0-0.6-0.1-0.8s-0.1-0.4-0.2-0.5c-0.1-0.1-0.2-0.2-0.4-0.3s-0.3-0.1-0.5-0.1s-0.3,0-0.5,0.1    s-0.3,0.1-0.4,0.3c-0.1,0.1-0.2,0.3-0.3,0.5s-0.1,0.5-0.1,0.8c0,0.3,0,0.6,0.1,0.8c0.1,0.2,0.1,0.4,0.2,0.5    c0.1,0.1,0.2,0.2,0.4,0.3s0.3,0.1,0.5,0.1c0.2,0,0.3,0,0.5-0.1C60.1,387.3,60.2,387.2,60.3,387.1z"/>
		<path d="M65.5,382.2h-1.9v-1.3h1.9V382.2z M65.5,388.5h-1.8V383h1.8V388.5z"/>
		<path d="M72.6,386.1h-4c0,0.4,0.2,0.8,0.5,1s0.7,0.3,1.3,0.3c0.4,0,0.7-0.1,1.1-0.2s0.6-0.3,0.8-0.4h0.2v1.4    c-0.4,0.2-0.8,0.3-1.1,0.3s-0.7,0.1-1.2,0.1c-1.1,0-1.9-0.2-2.5-0.7s-0.9-1.2-0.9-2.1c0-0.9,0.3-1.6,0.8-2.2    c0.6-0.5,1.3-0.8,2.3-0.8c0.9,0,1.6,0.2,2,0.7c0.4,0.5,0.7,1.1,0.7,1.9V386.1z M70.8,385c0-0.4-0.1-0.6-0.3-0.8s-0.4-0.3-0.8-0.3    c-0.3,0-0.6,0.1-0.8,0.3s-0.3,0.5-0.4,0.8H70.8z"/>
		<path d="M77.8,384.7h-0.2c-0.1,0-0.2,0-0.4-0.1c-0.2,0-0.3,0-0.4,0c-0.3,0-0.5,0-0.7,0c-0.2,0-0.4,0.1-0.6,0.2v3.7h-1.8V383h1.8    v0.8c0.4-0.3,0.7-0.6,1-0.7c0.3-0.1,0.5-0.2,0.8-0.2c0.1,0,0.1,0,0.2,0s0.1,0,0.2,0V384.7z"/>
		<path d="M82.7,384.7h-0.2c-0.1,0-0.2,0-0.4-0.1c-0.2,0-0.3,0-0.4,0c-0.3,0-0.5,0-0.7,0c-0.2,0-0.4,0.1-0.6,0.2v3.7h-1.8V383h1.8    v0.8c0.4-0.3,0.7-0.6,1-0.7c0.3-0.1,0.5-0.2,0.8-0.2c0.1,0,0.1,0,0.2,0s0.1,0,0.2,0V384.7z"/>
		<path d="M85.5,382.2h-1.9v-1.3h1.9V382.2z M85.5,388.5h-1.8V383h1.8V388.5z"/>
	</g>
</g>
<g id="topos_x005F_ok">
	<g>
		<circle style="fill:#5B7EBD;" cx="181.6" cy="201.4" r="2.4"/>
	</g>
	<g>
		<circle style="fill:#5B7EBD;" cx="95.6" cy="297.4" r="2.4"/>
	</g>
	<g>
		<circle style="fill:#5B7EBD;" cx="230.6" cy="190.9" r="2.4"/>
	</g>
	<g>
		<circle style="fill:#5B7EBD;" cx="161.6" cy="269.9" r="2.4"/>
	</g>
	<g>
		<circle style="fill:#5B7EBD;" cx="255.6" cy="127.4" r="2.4"/>
	</g>
	<g>
		<circle style="fill:#5B7EBD;" cx="191.6" cy="151.9" r="2.4"/>
	</g>
	<g>
		<circle style="fill:#5B7EBD;" cx="151.1" cy="94.4" r="2.4"/>
	</g>
	<g>
		<circle style="fill:#5B7EBD;" cx="187.6" cy="53.4" r="2.4"/>
	</g>
</g>
<g id="text_x005F_ciutats">
	<g>
		<path d="M156,203.8h-2.5v6.4h-0.9v-6.4h-2.5V203h5.8V203.8z"/>
		<path d="M160.2,207.5c0,0.9-0.2,1.6-0.6,2.1c-0.4,0.5-1,0.8-1.7,0.8c-0.7,0-1.3-0.3-1.7-0.8c-0.4-0.5-0.6-1.2-0.6-2.1    s0.2-1.6,0.6-2.1c0.4-0.5,1-0.8,1.7-0.8c0.7,0,1.3,0.3,1.7,0.8C160,205.9,160.2,206.6,160.2,207.5z M159.3,207.5    c0-0.7-0.1-1.2-0.4-1.6c-0.3-0.3-0.6-0.5-1.1-0.5c-0.5,0-0.8,0.2-1.1,0.5c-0.3,0.3-0.4,0.9-0.4,1.6c0,0.7,0.1,1.2,0.4,1.6    c0.3,0.4,0.6,0.5,1.1,0.5c0.5,0,0.8-0.2,1.1-0.5C159.2,208.7,159.3,208.2,159.3,207.5z"/>
		<path d="M162.4,210.2h-0.9v-7.6h0.9V210.2z"/>
		<path d="M168.5,207.5c0,0.9-0.2,1.6-0.6,2.1c-0.4,0.5-1,0.8-1.7,0.8c-0.7,0-1.3-0.3-1.7-0.8c-0.4-0.5-0.6-1.2-0.6-2.1    s0.2-1.6,0.6-2.1c0.4-0.5,1-0.8,1.7-0.8c0.7,0,1.3,0.3,1.7,0.8C168.3,205.9,168.5,206.6,168.5,207.5z M167.6,207.5    c0-0.7-0.1-1.2-0.4-1.6c-0.3-0.3-0.6-0.5-1.1-0.5c-0.5,0-0.8,0.2-1.1,0.5c-0.3,0.3-0.4,0.9-0.4,1.6c0,0.7,0.1,1.2,0.4,1.6    c0.3,0.4,0.6,0.5,1.1,0.5c0.5,0,0.8-0.2,1.1-0.5C167.5,208.7,167.6,208.2,167.6,207.5z"/>
		<path d="M173.2,207.7c0.2,0.2,0.3,0.6,0.3,1c0,0.5-0.2,0.9-0.6,1.2c-0.4,0.3-0.9,0.5-1.6,0.5c-0.4,0-0.7,0-1-0.1    c-0.3-0.1-0.6-0.2-0.8-0.3v-1h0c0.3,0.2,0.6,0.4,0.9,0.5c0.3,0.1,0.7,0.2,1,0.2c0.4,0,0.7-0.1,0.9-0.2c0.2-0.1,0.3-0.3,0.3-0.6    c0-0.2-0.1-0.4-0.2-0.5c-0.1-0.1-0.3-0.2-0.7-0.3c-0.1,0-0.3-0.1-0.5-0.1c-0.2,0-0.4-0.1-0.5-0.1c-0.5-0.1-0.8-0.3-1-0.6    c-0.2-0.2-0.3-0.5-0.3-0.9c0-0.2,0-0.4,0.1-0.6c0.1-0.2,0.2-0.4,0.4-0.5c0.2-0.2,0.4-0.3,0.7-0.4c0.3-0.1,0.6-0.1,0.9-0.1    c0.3,0,0.6,0,0.9,0.1c0.3,0.1,0.6,0.2,0.8,0.3v1h0c-0.2-0.2-0.5-0.3-0.8-0.4c-0.3-0.1-0.6-0.2-0.9-0.2c-0.3,0-0.6,0.1-0.8,0.2    c-0.2,0.1-0.3,0.3-0.3,0.6c0,0.2,0.1,0.4,0.2,0.5c0.1,0.1,0.3,0.2,0.6,0.3c0.2,0,0.3,0.1,0.5,0.1s0.4,0.1,0.5,0.1    C172.7,207.3,173,207.5,173.2,207.7L173.2,207.7z"/>
		<path d="M178.8,210.2h-0.9v-0.6c-0.1,0.1-0.2,0.1-0.3,0.2c-0.1,0.1-0.3,0.2-0.4,0.2c-0.1,0.1-0.3,0.1-0.5,0.2    c-0.2,0.1-0.4,0.1-0.7,0.1c-0.5,0-0.9-0.2-1.2-0.5c-0.3-0.3-0.5-0.7-0.5-1.2c0-0.4,0.1-0.7,0.3-1c0.2-0.3,0.4-0.5,0.7-0.6    c0.3-0.1,0.7-0.2,1.1-0.3c0.4-0.1,0.9-0.1,1.4-0.1v-0.1c0-0.2,0-0.4-0.1-0.5s-0.2-0.2-0.3-0.3c-0.1-0.1-0.3-0.1-0.4-0.2    c-0.2,0-0.4,0-0.5,0c-0.2,0-0.5,0-0.8,0.1c-0.3,0.1-0.6,0.2-0.9,0.3h0v-0.9c0.2,0,0.4-0.1,0.7-0.2c0.3-0.1,0.6-0.1,0.9-0.1    c0.4,0,0.7,0,0.9,0.1c0.3,0.1,0.5,0.2,0.7,0.3c0.2,0.1,0.3,0.3,0.4,0.6c0.1,0.2,0.2,0.5,0.2,0.9V210.2z M177.9,208.9v-1.5    c-0.3,0-0.6,0-0.9,0.1c-0.4,0-0.6,0.1-0.9,0.1c-0.2,0.1-0.5,0.2-0.6,0.3c-0.2,0.2-0.2,0.4-0.2,0.7c0,0.3,0.1,0.5,0.3,0.7    c0.2,0.2,0.5,0.2,0.8,0.2c0.3,0,0.6-0.1,0.8-0.2C177.5,209.2,177.7,209.1,177.9,208.9z"/>
	</g>
	<g>
		<path d="M104,294.1h-4.3v-7.3h0.9v6.4h3.4V294.1z"/>
		<path d="M109.2,291.5h-3.8c0,0.3,0,0.6,0.1,0.9c0.1,0.2,0.2,0.5,0.4,0.6c0.2,0.2,0.3,0.3,0.6,0.4c0.2,0.1,0.5,0.1,0.7,0.1    c0.4,0,0.7-0.1,1.1-0.2c0.4-0.1,0.6-0.3,0.8-0.4h0v1c-0.3,0.1-0.6,0.2-0.9,0.3s-0.6,0.1-1,0.1c-0.9,0-1.5-0.2-2-0.7    c-0.5-0.5-0.7-1.2-0.7-2.1c0-0.9,0.2-1.6,0.7-2.1c0.5-0.5,1.1-0.8,1.8-0.8c0.7,0,1.2,0.2,1.6,0.6c0.4,0.4,0.6,1,0.6,1.8V291.5z     M108.3,290.8c0-0.5-0.1-0.9-0.3-1.1c-0.2-0.3-0.6-0.4-1-0.4c-0.5,0-0.8,0.1-1.1,0.4c-0.3,0.3-0.4,0.6-0.5,1.1H108.3z"/>
		<path d="M114.7,293.5c0,0.9-0.2,1.6-0.6,2c-0.4,0.4-1,0.6-1.8,0.6c-0.3,0-0.5,0-0.8-0.1c-0.3,0-0.5-0.1-0.8-0.2V295h0    c0.1,0.1,0.4,0.1,0.7,0.2c0.3,0.1,0.6,0.1,0.9,0.1c0.3,0,0.5,0,0.7-0.1c0.2-0.1,0.3-0.2,0.5-0.3c0.1-0.1,0.2-0.3,0.2-0.5    c0-0.2,0.1-0.4,0.1-0.6v-0.5c-0.3,0.2-0.5,0.4-0.7,0.5c-0.2,0.1-0.5,0.2-0.9,0.2c-0.6,0-1.1-0.2-1.5-0.7c-0.4-0.5-0.5-1.1-0.5-2    c0-0.5,0.1-0.9,0.2-1.2c0.1-0.3,0.3-0.6,0.5-0.9c0.2-0.2,0.4-0.4,0.7-0.5c0.3-0.1,0.6-0.2,0.9-0.2c0.3,0,0.5,0,0.7,0.1    c0.2,0.1,0.4,0.2,0.6,0.3l0.1-0.2h0.8V293.5z M113.8,292.6v-3c-0.2-0.1-0.4-0.2-0.6-0.2c-0.2,0-0.4-0.1-0.6-0.1    c-0.5,0-0.9,0.2-1.1,0.5c-0.3,0.3-0.4,0.8-0.4,1.5c0,0.6,0.1,1.1,0.3,1.4c0.2,0.3,0.5,0.5,1,0.5c0.3,0,0.5-0.1,0.8-0.2    S113.6,292.8,113.8,292.6z"/>
		<path d="M120.8,291.4c0,0.9-0.2,1.6-0.6,2.1c-0.4,0.5-1,0.8-1.7,0.8c-0.7,0-1.3-0.3-1.7-0.8c-0.4-0.5-0.6-1.2-0.6-2.1    s0.2-1.6,0.6-2.1c0.4-0.5,1-0.8,1.7-0.8c0.7,0,1.3,0.3,1.7,0.8C120.6,289.8,120.8,290.5,120.8,291.4z M119.9,291.4    c0-0.7-0.1-1.2-0.4-1.6c-0.3-0.3-0.6-0.5-1.1-0.5c-0.5,0-0.8,0.2-1.1,0.5c-0.3,0.3-0.4,0.9-0.4,1.6c0,0.7,0.1,1.2,0.4,1.6    c0.3,0.4,0.6,0.5,1.1,0.5c0.5,0,0.8-0.2,1.1-0.5C119.7,292.6,119.9,292.1,119.9,291.4z"/>
		<path d="M125.3,289.6L125.3,289.6c-0.2,0-0.3-0.1-0.4-0.1c-0.1,0-0.3,0-0.4,0c-0.3,0-0.5,0.1-0.8,0.2c-0.2,0.1-0.5,0.3-0.7,0.5    v3.9h-0.9v-5.5h0.9v0.8c0.3-0.3,0.6-0.5,0.9-0.6s0.5-0.2,0.8-0.2c0.2,0,0.3,0,0.3,0c0.1,0,0.2,0,0.3,0V289.6z"/>
		<path d="M129.4,289.6L129.4,289.6c-0.2,0-0.3-0.1-0.4-0.1c-0.1,0-0.3,0-0.4,0c-0.3,0-0.5,0.1-0.8,0.2c-0.2,0.1-0.5,0.3-0.7,0.5    v3.9h-0.9v-5.5h0.9v0.8c0.3-0.3,0.6-0.5,0.9-0.6s0.5-0.2,0.8-0.2c0.2,0,0.3,0,0.3,0c0.1,0,0.2,0,0.3,0V289.6z"/>
		<path d="M134.5,291.5h-3.8c0,0.3,0,0.6,0.1,0.9c0.1,0.2,0.2,0.5,0.4,0.6c0.2,0.2,0.3,0.3,0.6,0.4c0.2,0.1,0.5,0.1,0.7,0.1    c0.4,0,0.7-0.1,1.1-0.2c0.4-0.1,0.6-0.3,0.8-0.4h0v1c-0.3,0.1-0.6,0.2-0.9,0.3c-0.3,0.1-0.6,0.1-1,0.1c-0.9,0-1.5-0.2-2-0.7    c-0.5-0.5-0.7-1.2-0.7-2.1c0-0.9,0.2-1.6,0.7-2.1c0.5-0.5,1.1-0.8,1.8-0.8c0.7,0,1.2,0.2,1.6,0.6c0.4,0.4,0.6,1,0.6,1.8V291.5z     M133.6,290.8c0-0.5-0.1-0.9-0.3-1.1s-0.6-0.4-1-0.4c-0.5,0-0.8,0.1-1.1,0.4c-0.3,0.3-0.4,0.6-0.5,1.1H133.6z"/>
		<path d="M138.5,294c-0.2,0-0.3,0.1-0.5,0.1c-0.2,0-0.4,0-0.5,0c-0.5,0-0.9-0.1-1.2-0.4c-0.3-0.3-0.4-0.8-0.4-1.4v-2.9h-0.6v-0.8    h0.6v-1.6h0.9v1.6h1.8v0.8h-1.8v2.5c0,0.3,0,0.5,0,0.7c0,0.2,0.1,0.3,0.1,0.5c0.1,0.1,0.2,0.2,0.3,0.3c0.1,0.1,0.3,0.1,0.5,0.1    c0.1,0,0.3,0,0.4-0.1c0.2,0,0.3-0.1,0.3-0.1h0V294z"/>
		<path d="M143.5,294.1h-0.9v-0.6c-0.1,0.1-0.2,0.1-0.3,0.2c-0.1,0.1-0.3,0.2-0.4,0.2c-0.1,0.1-0.3,0.1-0.5,0.2    c-0.2,0.1-0.4,0.1-0.7,0.1c-0.5,0-0.9-0.2-1.2-0.5c-0.3-0.3-0.5-0.7-0.5-1.2c0-0.4,0.1-0.7,0.3-1c0.2-0.3,0.4-0.5,0.7-0.6    c0.3-0.1,0.7-0.2,1.1-0.3c0.4-0.1,0.9-0.1,1.4-0.1v-0.1c0-0.2,0-0.4-0.1-0.5s-0.2-0.2-0.3-0.3c-0.1-0.1-0.3-0.1-0.4-0.2    c-0.2,0-0.4,0-0.5,0c-0.2,0-0.5,0-0.8,0.1c-0.3,0.1-0.6,0.2-0.9,0.3h0v-0.9c0.2,0,0.4-0.1,0.7-0.2c0.3-0.1,0.6-0.1,0.9-0.1    c0.4,0,0.7,0,0.9,0.1c0.3,0.1,0.5,0.2,0.7,0.3c0.2,0.1,0.3,0.3,0.4,0.6c0.1,0.2,0.2,0.5,0.2,0.9V294.1z M142.7,292.8v-1.5    c-0.3,0-0.6,0-0.9,0.1c-0.4,0-0.6,0.1-0.9,0.1c-0.2,0.1-0.5,0.2-0.6,0.3c-0.2,0.2-0.2,0.4-0.2,0.7c0,0.3,0.1,0.5,0.3,0.7    c0.2,0.2,0.5,0.2,0.8,0.2c0.3,0,0.6-0.1,0.8-0.2C142.2,293.1,142.5,292.9,142.7,292.8z"/>
	</g>
	<g>
		<path d="M214.1,185.7h-2.7V185h0.9v-5.8h-0.9v-0.7h2.7v0.7h-0.9v5.8h0.9V185.7z"/>
		<path d="M220.1,183c0,0.5-0.1,0.9-0.2,1.2c-0.1,0.4-0.3,0.7-0.5,0.9c-0.2,0.3-0.5,0.5-0.7,0.6c-0.3,0.1-0.5,0.2-0.9,0.2    c-0.3,0-0.5,0-0.8-0.1c-0.2-0.1-0.4-0.2-0.6-0.3l-0.1,0.3h-0.8v-7.6h0.9v2.7c0.2-0.2,0.5-0.4,0.8-0.5c0.3-0.1,0.6-0.2,0.9-0.2    c0.6,0,1.1,0.2,1.4,0.7C219.9,181.4,220.1,182.1,220.1,183z M219.2,183c0-0.7-0.1-1.1-0.3-1.5s-0.5-0.5-1-0.5    c-0.3,0-0.5,0.1-0.8,0.2c-0.3,0.1-0.5,0.3-0.7,0.4v3.1c0.2,0.1,0.5,0.2,0.6,0.2c0.2,0,0.4,0.1,0.6,0.1c0.5,0,0.9-0.2,1.1-0.5    C219.1,184.2,219.2,183.7,219.2,183z"/>
		<path d="M225.5,185.7h-0.9v-0.6c-0.1,0.1-0.2,0.1-0.3,0.2c-0.1,0.1-0.3,0.2-0.4,0.2c-0.1,0.1-0.3,0.1-0.5,0.2    c-0.2,0.1-0.4,0.1-0.7,0.1c-0.5,0-0.9-0.2-1.2-0.5c-0.3-0.3-0.5-0.7-0.5-1.2c0-0.4,0.1-0.7,0.3-1c0.2-0.3,0.4-0.5,0.7-0.6    c0.3-0.1,0.7-0.2,1.1-0.3c0.4-0.1,0.9-0.1,1.4-0.1V182c0-0.2,0-0.4-0.1-0.5s-0.2-0.2-0.3-0.3c-0.1-0.1-0.3-0.1-0.4-0.2    c-0.2,0-0.4,0-0.5,0c-0.2,0-0.5,0-0.8,0.1c-0.3,0.1-0.6,0.2-0.9,0.3h0v-0.9c0.2,0,0.4-0.1,0.7-0.2c0.3-0.1,0.6-0.1,0.9-0.1    c0.4,0,0.7,0,0.9,0.1c0.3,0.1,0.5,0.2,0.7,0.3c0.2,0.1,0.3,0.3,0.4,0.6c0.1,0.2,0.2,0.5,0.2,0.9V185.7z M224.6,184.4v-1.5    c-0.3,0-0.6,0-0.9,0.1c-0.4,0-0.6,0.1-0.9,0.1c-0.2,0.1-0.5,0.2-0.6,0.3c-0.2,0.2-0.2,0.4-0.2,0.7c0,0.3,0.1,0.5,0.3,0.7    c0.2,0.2,0.5,0.2,0.8,0.2c0.3,0,0.6-0.1,0.8-0.2C224.2,184.7,224.4,184.6,224.6,184.4z"/>
		<path d="M230.4,181.3L230.4,181.3c-0.2,0-0.3-0.1-0.4-0.1c-0.1,0-0.3,0-0.4,0c-0.3,0-0.5,0.1-0.8,0.2c-0.2,0.1-0.5,0.3-0.7,0.5    v3.9h-0.9v-5.5h0.9v0.8c0.3-0.3,0.6-0.5,0.9-0.6s0.5-0.2,0.8-0.2c0.2,0,0.3,0,0.3,0c0.1,0,0.2,0,0.3,0V181.3z"/>
		<path d="M234.4,181.3L234.4,181.3c-0.2,0-0.3-0.1-0.4-0.1c-0.1,0-0.3,0-0.4,0c-0.3,0-0.5,0.1-0.8,0.2c-0.2,0.1-0.5,0.3-0.7,0.5    v3.9h-0.9v-5.5h0.9v0.8c0.3-0.3,0.6-0.5,0.9-0.6s0.5-0.2,0.8-0.2c0.2,0,0.3,0,0.3,0c0.1,0,0.2,0,0.3,0V181.3z"/>
		<path d="M239,185.7h-0.9v-0.6c-0.1,0.1-0.2,0.1-0.3,0.2c-0.1,0.1-0.3,0.2-0.4,0.2c-0.1,0.1-0.3,0.1-0.5,0.2    c-0.2,0.1-0.4,0.1-0.7,0.1c-0.5,0-0.9-0.2-1.2-0.5c-0.3-0.3-0.5-0.7-0.5-1.2c0-0.4,0.1-0.7,0.3-1c0.2-0.3,0.4-0.5,0.7-0.6    c0.3-0.1,0.7-0.2,1.1-0.3c0.4-0.1,0.9-0.1,1.4-0.1V182c0-0.2,0-0.4-0.1-0.5s-0.2-0.2-0.3-0.3c-0.1-0.1-0.3-0.1-0.4-0.2    c-0.2,0-0.4,0-0.5,0c-0.2,0-0.5,0-0.8,0.1c-0.3,0.1-0.6,0.2-0.9,0.3h0v-0.9c0.2,0,0.4-0.1,0.7-0.2c0.3-0.1,0.6-0.1,0.9-0.1    c0.4,0,0.7,0,0.9,0.1c0.3,0.1,0.5,0.2,0.7,0.3c0.2,0.1,0.3,0.3,0.4,0.6c0.1,0.2,0.2,0.5,0.2,0.9V185.7z M238.2,184.4v-1.5    c-0.3,0-0.6,0-0.9,0.1c-0.4,0-0.6,0.1-0.9,0.1c-0.2,0.1-0.5,0.2-0.6,0.3c-0.2,0.2-0.2,0.4-0.2,0.7c0,0.3,0.1,0.5,0.3,0.7    c0.2,0.2,0.5,0.2,0.8,0.2c0.3,0,0.6-0.1,0.8-0.2C237.7,184.7,238,184.6,238.2,184.4z"/>
	</g>
	<g>
		<path d="M172.1,267h-1l-0.7-2h-3l-0.7,2h-0.9l2.5-7.3h1.2L172.1,267z M170.2,264.1l-1.2-3.6l-1.2,3.6H170.2z"/>
		<path d="M174,267h-0.9v-7.6h0.9V267z"/>
		<path d="M180,264.4h-3.8c0,0.3,0,0.6,0.1,0.9c0.1,0.2,0.2,0.5,0.4,0.6c0.2,0.2,0.3,0.3,0.6,0.4c0.2,0.1,0.5,0.1,0.7,0.1    c0.4,0,0.7-0.1,1.1-0.2c0.4-0.1,0.6-0.3,0.8-0.4h0v1c-0.3,0.1-0.6,0.2-0.9,0.3c-0.3,0.1-0.6,0.1-1,0.1c-0.9,0-1.5-0.2-2-0.7    c-0.5-0.5-0.7-1.2-0.7-2.1c0-0.9,0.2-1.6,0.7-2.1c0.5-0.5,1.1-0.8,1.8-0.8c0.7,0,1.2,0.2,1.6,0.6c0.4,0.4,0.6,1,0.6,1.8V264.4z     M179.2,263.7c0-0.5-0.1-0.9-0.3-1.1s-0.6-0.4-1-0.4c-0.5,0-0.8,0.1-1.1,0.4c-0.3,0.3-0.4,0.6-0.5,1.1H179.2z"/>
		<path d="M185.5,266.4c0,0.9-0.2,1.6-0.6,2c-0.4,0.4-1,0.6-1.8,0.6c-0.3,0-0.5,0-0.8-0.1c-0.3,0-0.5-0.1-0.8-0.2v-0.9h0    c0.1,0.1,0.4,0.1,0.7,0.2c0.3,0.1,0.6,0.1,0.9,0.1c0.3,0,0.5,0,0.7-0.1c0.2-0.1,0.3-0.2,0.5-0.3c0.1-0.1,0.2-0.3,0.2-0.5    c0-0.2,0.1-0.4,0.1-0.6v-0.5c-0.3,0.2-0.5,0.4-0.7,0.5c-0.2,0.1-0.5,0.2-0.9,0.2c-0.6,0-1.1-0.2-1.5-0.7c-0.4-0.5-0.5-1.1-0.5-2    c0-0.5,0.1-0.9,0.2-1.2c0.1-0.3,0.3-0.6,0.5-0.9c0.2-0.2,0.4-0.4,0.7-0.5c0.3-0.1,0.6-0.2,0.9-0.2c0.3,0,0.5,0,0.7,0.1    c0.2,0.1,0.4,0.2,0.6,0.3l0.1-0.2h0.8V266.4z M184.6,265.5v-3c-0.2-0.1-0.4-0.2-0.6-0.2c-0.2,0-0.4-0.1-0.6-0.1    c-0.5,0-0.9,0.2-1.1,0.5c-0.3,0.3-0.4,0.8-0.4,1.5c0,0.6,0.1,1.1,0.3,1.4c0.2,0.3,0.5,0.5,1,0.5c0.3,0,0.5-0.1,0.8-0.2    S184.4,265.7,184.6,265.5z"/>
		<path d="M188.1,260.6h-1v-1h1V260.6z M188.1,267h-0.9v-5.5h0.9V267z"/>
		<path d="M193.8,267h-0.9v-0.6c-0.1,0.1-0.2,0.1-0.3,0.2c-0.1,0.1-0.3,0.2-0.4,0.2c-0.1,0.1-0.3,0.1-0.5,0.2    c-0.2,0.1-0.4,0.1-0.7,0.1c-0.5,0-0.9-0.2-1.2-0.5c-0.3-0.3-0.5-0.7-0.5-1.2c0-0.4,0.1-0.7,0.3-1c0.2-0.3,0.4-0.5,0.7-0.6    c0.3-0.1,0.7-0.2,1.1-0.3c0.4-0.1,0.9-0.1,1.4-0.1v-0.1c0-0.2,0-0.4-0.1-0.5s-0.2-0.2-0.3-0.3c-0.1-0.1-0.3-0.1-0.4-0.2    c-0.2,0-0.4,0-0.5,0c-0.2,0-0.5,0-0.8,0.1c-0.3,0.1-0.6,0.2-0.9,0.3h0v-0.9c0.2,0,0.4-0.1,0.7-0.2c0.3-0.1,0.6-0.1,0.9-0.1    c0.4,0,0.7,0,0.9,0.1c0.3,0.1,0.5,0.2,0.7,0.3c0.2,0.1,0.3,0.3,0.4,0.6c0.1,0.2,0.2,0.5,0.2,0.9V267z M192.9,265.7v-1.5    c-0.3,0-0.6,0-0.9,0.1c-0.4,0-0.6,0.1-0.9,0.1c-0.2,0.1-0.5,0.2-0.6,0.3c-0.2,0.2-0.2,0.4-0.2,0.7c0,0.3,0.1,0.5,0.3,0.7    c0.2,0.2,0.5,0.2,0.8,0.2c0.3,0,0.6-0.1,0.8-0.2C192.5,266,192.7,265.8,192.9,265.7z"/>
	</g>
	<g>
		<path d="M214.9,116.2l-2.5,7.3h-1.2l-2.5-7.3h1l2.2,6.4l2.2-6.4H214.9z"/>
		<path d="M216.8,117.1h-1v-1h1V117.1z M216.8,123.5h-0.9V118h0.9V123.5z"/>
		<path d="M219.4,123.5h-0.9v-7.6h0.9V123.5z"/>
		<path d="M222,123.5h-0.9v-7.6h0.9V123.5z"/>
		<path d="M227.7,123.5h-0.9v-0.6c-0.1,0.1-0.2,0.1-0.3,0.2c-0.1,0.1-0.3,0.2-0.4,0.2c-0.1,0.1-0.3,0.1-0.5,0.2    c-0.2,0.1-0.4,0.1-0.7,0.1c-0.5,0-0.9-0.2-1.2-0.5c-0.3-0.3-0.5-0.7-0.5-1.2c0-0.4,0.1-0.7,0.3-1c0.2-0.3,0.4-0.5,0.7-0.6    c0.3-0.1,0.7-0.2,1.1-0.3c0.4-0.1,0.9-0.1,1.4-0.1v-0.1c0-0.2,0-0.4-0.1-0.5s-0.2-0.2-0.3-0.3c-0.1-0.1-0.3-0.1-0.4-0.2    c-0.2,0-0.4,0-0.5,0c-0.2,0-0.5,0-0.8,0.1c-0.3,0.1-0.6,0.2-0.9,0.3h0v-0.9c0.2,0,0.4-0.1,0.7-0.2c0.3-0.1,0.6-0.1,0.9-0.1    c0.4,0,0.7,0,0.9,0.1c0.3,0.1,0.5,0.2,0.7,0.3c0.2,0.1,0.3,0.3,0.4,0.6c0.1,0.2,0.2,0.5,0.2,0.9V123.5z M226.8,122.2v-1.5    c-0.3,0-0.6,0-0.9,0.1c-0.4,0-0.6,0.1-0.9,0.1c-0.2,0.1-0.5,0.2-0.6,0.3c-0.2,0.2-0.2,0.4-0.2,0.7c0,0.3,0.1,0.5,0.3,0.7    c0.2,0.2,0.5,0.2,0.8,0.2c0.3,0,0.6-0.1,0.8-0.2C226.4,122.5,226.6,122.3,226.8,122.2z"/>
		<path d="M233.9,120.7c0,0.5-0.1,0.9-0.2,1.2c-0.1,0.4-0.3,0.7-0.5,0.9c-0.2,0.3-0.5,0.5-0.7,0.6c-0.3,0.1-0.5,0.2-0.9,0.2    c-0.3,0-0.5,0-0.8-0.1c-0.2-0.1-0.4-0.2-0.6-0.3l-0.1,0.3h-0.8v-7.6h0.9v2.7c0.2-0.2,0.5-0.4,0.8-0.5c0.3-0.1,0.6-0.2,0.9-0.2    c0.6,0,1.1,0.2,1.4,0.7C233.7,119.1,233.9,119.8,233.9,120.7z M233,120.8c0-0.7-0.1-1.1-0.3-1.5s-0.5-0.5-1-0.5    c-0.3,0-0.5,0.1-0.8,0.2c-0.3,0.1-0.5,0.3-0.7,0.4v3.1c0.2,0.1,0.5,0.2,0.6,0.2c0.2,0,0.4,0.1,0.6,0.1c0.5,0,0.9-0.2,1.1-0.5    C232.9,122,233,121.5,233,120.8z"/>
		<path d="M239.6,120.8c0,0.9-0.2,1.6-0.6,2.1c-0.4,0.5-1,0.8-1.7,0.8c-0.7,0-1.3-0.3-1.7-0.8c-0.4-0.5-0.6-1.2-0.6-2.1    s0.2-1.6,0.6-2.1c0.4-0.5,1-0.8,1.7-0.8c0.7,0,1.3,0.3,1.7,0.8C239.4,119.2,239.6,119.9,239.6,120.8z M238.7,120.8    c0-0.7-0.1-1.2-0.4-1.6c-0.3-0.3-0.6-0.5-1.1-0.5c-0.5,0-0.8,0.2-1.1,0.5c-0.3,0.3-0.4,0.9-0.4,1.6c0,0.7,0.1,1.2,0.4,1.6    c0.3,0.4,0.6,0.5,1.1,0.5c0.5,0,0.8-0.2,1.1-0.5C238.6,122,238.7,121.5,238.7,120.8z"/>
		<path d="M245.3,123.5h-0.9v-3.1c0-0.3,0-0.5,0-0.7c0-0.2-0.1-0.4-0.2-0.5c-0.1-0.1-0.2-0.2-0.3-0.3c-0.1-0.1-0.3-0.1-0.6-0.1    c-0.2,0-0.5,0.1-0.7,0.2c-0.3,0.1-0.5,0.3-0.7,0.5v4.1H241V118h0.9v0.6c0.3-0.2,0.6-0.4,0.8-0.6c0.3-0.1,0.6-0.2,0.9-0.2    c0.6,0,1,0.2,1.3,0.5c0.3,0.4,0.4,0.9,0.4,1.5V123.5z"/>
		<path d="M251,123.5h-0.9v-0.6c-0.1,0.1-0.2,0.1-0.3,0.2c-0.1,0.1-0.3,0.2-0.4,0.2c-0.1,0.1-0.3,0.1-0.5,0.2    c-0.2,0.1-0.4,0.1-0.7,0.1c-0.5,0-0.9-0.2-1.2-0.5c-0.3-0.3-0.5-0.7-0.5-1.2c0-0.4,0.1-0.7,0.3-1c0.2-0.3,0.4-0.5,0.7-0.6    c0.3-0.1,0.7-0.2,1.1-0.3c0.4-0.1,0.9-0.1,1.4-0.1v-0.1c0-0.2,0-0.4-0.1-0.5s-0.2-0.2-0.3-0.3c-0.1-0.1-0.3-0.1-0.4-0.2    c-0.2,0-0.4,0-0.5,0c-0.2,0-0.5,0-0.8,0.1c-0.3,0.1-0.6,0.2-0.9,0.3h0v-0.9c0.2,0,0.4-0.1,0.7-0.2c0.3-0.1,0.6-0.1,0.9-0.1    c0.4,0,0.7,0,0.9,0.1c0.3,0.1,0.5,0.2,0.7,0.3c0.2,0.1,0.3,0.3,0.4,0.6c0.1,0.2,0.2,0.5,0.2,0.9V123.5z M250.1,122.2v-1.5    c-0.3,0-0.6,0-0.9,0.1c-0.4,0-0.6,0.1-0.9,0.1c-0.2,0.1-0.5,0.2-0.6,0.3c-0.2,0.2-0.2,0.4-0.2,0.7c0,0.3,0.1,0.5,0.3,0.7    c0.2,0.2,0.5,0.2,0.8,0.2c0.3,0,0.6-0.1,0.8-0.2C249.7,122.5,249.9,122.3,250.1,122.2z"/>
	</g>
	<g>
		<path d="M161.7,147.8h-1l-0.7-2h-3l-0.7,2h-0.9l2.5-7.3h1.2L161.7,147.8z M159.8,144.9l-1.2-3.6l-1.2,3.6H159.8z"/>
		<path d="M167,147.8h-0.9v-3.1c0-0.3,0-0.5,0-0.7c0-0.2-0.1-0.4-0.2-0.5c-0.1-0.1-0.2-0.2-0.3-0.3c-0.1-0.1-0.3-0.1-0.6-0.1    c-0.2,0-0.5,0.1-0.7,0.2c-0.3,0.1-0.5,0.3-0.7,0.5v4.1h-0.9v-5.5h0.9v0.6c0.3-0.2,0.6-0.4,0.8-0.6c0.3-0.1,0.6-0.2,0.9-0.2    c0.6,0,1,0.2,1.3,0.5c0.3,0.4,0.4,0.9,0.4,1.5V147.8z"/>
		<path d="M173,145.1c0,0.9-0.2,1.6-0.6,2.1c-0.4,0.5-1,0.8-1.7,0.8c-0.7,0-1.3-0.3-1.7-0.8c-0.4-0.5-0.6-1.2-0.6-2.1    s0.2-1.6,0.6-2.1c0.4-0.5,1-0.8,1.7-0.8c0.7,0,1.3,0.3,1.7,0.8C172.8,143.5,173,144.2,173,145.1z M172.1,145.1    c0-0.7-0.1-1.2-0.4-1.6c-0.3-0.3-0.6-0.5-1.1-0.5c-0.5,0-0.8,0.2-1.1,0.5c-0.3,0.3-0.4,0.9-0.4,1.6c0,0.7,0.1,1.2,0.4,1.6    c0.3,0.4,0.6,0.5,1.1,0.5c0.5,0,0.8-0.2,1.1-0.5C172,146.3,172.1,145.8,172.1,145.1z"/>
		<path d="M178.7,145.2h-3.8c0,0.3,0,0.6,0.1,0.9c0.1,0.2,0.2,0.5,0.4,0.6c0.2,0.2,0.3,0.3,0.6,0.4c0.2,0.1,0.5,0.1,0.7,0.1    c0.4,0,0.7-0.1,1.1-0.2c0.4-0.1,0.6-0.3,0.8-0.4h0v1c-0.3,0.1-0.6,0.2-0.9,0.3c-0.3,0.1-0.6,0.1-1,0.1c-0.9,0-1.5-0.2-2-0.7    c-0.5-0.5-0.7-1.2-0.7-2.1c0-0.9,0.2-1.6,0.7-2.1c0.5-0.5,1.1-0.8,1.8-0.8c0.7,0,1.2,0.2,1.6,0.6c0.4,0.4,0.6,1,0.6,1.8V145.2z     M177.9,144.5c0-0.5-0.1-0.9-0.3-1.1s-0.6-0.4-1-0.4c-0.5,0-0.8,0.1-1.1,0.4c-0.3,0.3-0.4,0.6-0.5,1.1H177.9z"/>
		<path d="M182.7,147.7c-0.2,0-0.3,0.1-0.5,0.1c-0.2,0-0.4,0-0.5,0c-0.5,0-0.9-0.1-1.2-0.4c-0.3-0.3-0.4-0.8-0.4-1.4v-2.9h-0.6v-0.8    h0.6v-1.6h0.9v1.6h1.8v0.8h-1.8v2.5c0,0.3,0,0.5,0,0.7c0,0.2,0.1,0.3,0.1,0.5c0.1,0.1,0.2,0.2,0.3,0.3c0.1,0.1,0.3,0.1,0.5,0.1    c0.1,0,0.3,0,0.4-0.1c0.2,0,0.3-0.1,0.3-0.1h0V147.7z"/>
		<path d="M187.7,147.8h-0.9v-0.6c-0.1,0.1-0.2,0.1-0.3,0.2c-0.1,0.1-0.3,0.2-0.4,0.2c-0.1,0.1-0.3,0.1-0.5,0.2    c-0.2,0.1-0.4,0.1-0.7,0.1c-0.5,0-0.9-0.2-1.2-0.5c-0.3-0.3-0.5-0.7-0.5-1.2c0-0.4,0.1-0.7,0.3-1c0.2-0.3,0.4-0.5,0.7-0.6    c0.3-0.1,0.7-0.2,1.1-0.3c0.4-0.1,0.9-0.1,1.4-0.1v-0.1c0-0.2,0-0.4-0.1-0.5s-0.2-0.2-0.3-0.3c-0.1-0.1-0.3-0.1-0.4-0.2    c-0.2,0-0.4,0-0.5,0c-0.2,0-0.5,0-0.8,0.1c-0.3,0.1-0.6,0.2-0.9,0.3h0v-0.9c0.2,0,0.4-0.1,0.7-0.2c0.3-0.1,0.6-0.1,0.9-0.1    c0.4,0,0.7,0,0.9,0.1c0.3,0.1,0.5,0.2,0.7,0.3c0.2,0.1,0.3,0.3,0.4,0.6c0.1,0.2,0.2,0.5,0.2,0.9V147.8z M186.9,146.5v-1.5    c-0.3,0-0.6,0-0.9,0.1c-0.4,0-0.6,0.1-0.9,0.1c-0.2,0.1-0.5,0.2-0.6,0.3c-0.2,0.2-0.2,0.4-0.2,0.7c0,0.3,0.1,0.5,0.3,0.7    c0.2,0.2,0.5,0.2,0.8,0.2c0.3,0,0.6-0.1,0.8-0.2C186.4,146.8,186.7,146.6,186.9,146.5z"/>
	</g>
	<g>
		<path d="M116.8,103.8h-1l-0.7-2h-3l-0.7,2h-0.9l2.5-7.3h1.2L116.8,103.8z M114.8,100.9l-1.2-3.6l-1.2,3.6H114.8z"/>
		<path d="M121.1,101.2c0.2,0.2,0.3,0.6,0.3,1c0,0.5-0.2,0.9-0.6,1.2c-0.4,0.3-0.9,0.5-1.6,0.5c-0.4,0-0.7,0-1-0.1    c-0.3-0.1-0.6-0.2-0.8-0.3v-1h0c0.3,0.2,0.6,0.4,0.9,0.5c0.3,0.1,0.7,0.2,1,0.2c0.4,0,0.7-0.1,0.9-0.2c0.2-0.1,0.3-0.3,0.3-0.6    c0-0.2-0.1-0.4-0.2-0.5c-0.1-0.1-0.3-0.2-0.7-0.3c-0.1,0-0.3-0.1-0.5-0.1s-0.4-0.1-0.5-0.1c-0.5-0.1-0.8-0.3-1-0.6    c-0.2-0.2-0.3-0.5-0.3-0.9c0-0.2,0-0.4,0.1-0.6c0.1-0.2,0.2-0.4,0.4-0.5c0.2-0.2,0.4-0.3,0.7-0.4c0.3-0.1,0.6-0.1,0.9-0.1    c0.3,0,0.6,0,0.9,0.1c0.3,0.1,0.6,0.2,0.8,0.3v1h0c-0.2-0.2-0.5-0.3-0.8-0.4c-0.3-0.1-0.6-0.2-0.9-0.2c-0.3,0-0.6,0.1-0.8,0.2    c-0.2,0.1-0.3,0.3-0.3,0.6c0,0.2,0.1,0.4,0.2,0.5c0.1,0.1,0.3,0.2,0.6,0.3c0.2,0,0.3,0.1,0.5,0.1c0.2,0,0.4,0.1,0.5,0.1    C120.6,100.8,120.9,101,121.1,101.2L121.1,101.2z"/>
		<path d="M125.3,103.7c-0.2,0-0.3,0.1-0.5,0.1c-0.2,0-0.4,0-0.5,0c-0.5,0-0.9-0.1-1.2-0.4c-0.3-0.3-0.4-0.8-0.4-1.4v-2.9h-0.6v-0.8    h0.6v-1.6h0.9v1.6h1.8v0.8h-1.8v2.5c0,0.3,0,0.5,0,0.7c0,0.2,0.1,0.3,0.1,0.5c0.1,0.1,0.2,0.2,0.3,0.3c0.1,0.1,0.3,0.1,0.5,0.1    c0.1,0,0.3,0,0.4-0.1c0.2,0,0.3-0.1,0.3-0.1h0V103.7z"/>
		<path d="M130.7,101.1h-3.8c0,0.3,0,0.6,0.1,0.9c0.1,0.2,0.2,0.5,0.4,0.6c0.2,0.2,0.3,0.3,0.6,0.4c0.2,0.1,0.5,0.1,0.7,0.1    c0.4,0,0.7-0.1,1.1-0.2c0.4-0.1,0.6-0.3,0.8-0.4h0v1c-0.3,0.1-0.6,0.2-0.9,0.3c-0.3,0.1-0.6,0.1-1,0.1c-0.9,0-1.5-0.2-2-0.7    c-0.5-0.5-0.7-1.2-0.7-2.1c0-0.9,0.2-1.6,0.7-2.1c0.5-0.5,1.1-0.8,1.8-0.8c0.7,0,1.2,0.2,1.6,0.6c0.4,0.4,0.6,1,0.6,1.8V101.1z     M129.9,100.4c0-0.5-0.1-0.9-0.3-1.1s-0.6-0.4-1-0.4c-0.5,0-0.8,0.1-1.1,0.4c-0.3,0.3-0.4,0.6-0.5,1.1H129.9z"/>
		<path d="M136,103.8h-0.9v-0.6c-0.1,0.1-0.2,0.1-0.3,0.2c-0.1,0.1-0.3,0.2-0.4,0.2c-0.1,0.1-0.3,0.1-0.5,0.2    c-0.2,0.1-0.4,0.1-0.7,0.1c-0.5,0-0.9-0.2-1.2-0.5c-0.3-0.3-0.5-0.7-0.5-1.2c0-0.4,0.1-0.7,0.3-1c0.2-0.3,0.4-0.5,0.7-0.6    c0.3-0.1,0.7-0.2,1.1-0.3c0.4-0.1,0.9-0.1,1.4-0.1V100c0-0.2,0-0.4-0.1-0.5s-0.2-0.2-0.3-0.3c-0.1-0.1-0.3-0.1-0.4-0.2    c-0.2,0-0.4,0-0.5,0c-0.2,0-0.5,0-0.8,0.1c-0.3,0.1-0.6,0.2-0.9,0.3h0v-0.9c0.2,0,0.4-0.1,0.7-0.2c0.3-0.1,0.6-0.1,0.9-0.1    c0.4,0,0.7,0,0.9,0.1c0.3,0.1,0.5,0.2,0.7,0.3c0.2,0.1,0.3,0.3,0.4,0.6c0.1,0.2,0.2,0.5,0.2,0.9V103.8z M135.2,102.4v-1.5    c-0.3,0-0.6,0-0.9,0.1c-0.4,0-0.6,0.1-0.9,0.1c-0.2,0.1-0.5,0.2-0.6,0.3c-0.2,0.2-0.2,0.4-0.2,0.7c0,0.3,0.1,0.5,0.3,0.7    c0.2,0.2,0.5,0.2,0.8,0.2c0.3,0,0.6-0.1,0.8-0.2C134.7,102.8,134.9,102.6,135.2,102.4z"/>
		<path d="M141,101.2c0.2,0.2,0.3,0.6,0.3,1c0,0.5-0.2,0.9-0.6,1.2c-0.4,0.3-0.9,0.5-1.6,0.5c-0.4,0-0.7,0-1-0.1s-0.6-0.2-0.8-0.3    v-1h0c0.3,0.2,0.6,0.4,0.9,0.5c0.3,0.1,0.7,0.2,1,0.2c0.4,0,0.7-0.1,0.9-0.2c0.2-0.1,0.3-0.3,0.3-0.6c0-0.2-0.1-0.4-0.2-0.5    c-0.1-0.1-0.3-0.2-0.7-0.3c-0.1,0-0.3-0.1-0.5-0.1c-0.2,0-0.4-0.1-0.5-0.1c-0.5-0.1-0.8-0.3-1-0.6c-0.2-0.2-0.3-0.5-0.3-0.9    c0-0.2,0-0.4,0.1-0.6c0.1-0.2,0.2-0.4,0.4-0.5c0.2-0.2,0.4-0.3,0.7-0.4c0.3-0.1,0.6-0.1,0.9-0.1c0.3,0,0.6,0,0.9,0.1    c0.3,0.1,0.6,0.2,0.8,0.3v1h0c-0.2-0.2-0.5-0.3-0.8-0.4c-0.3-0.1-0.6-0.2-0.9-0.2c-0.3,0-0.6,0.1-0.8,0.2    c-0.2,0.1-0.3,0.3-0.3,0.6c0,0.2,0.1,0.4,0.2,0.5c0.1,0.1,0.3,0.2,0.6,0.3c0.2,0,0.3,0.1,0.5,0.1s0.4,0.1,0.5,0.1    C140.5,100.8,140.8,101,141,101.2L141,101.2z"/>
		<path d="M146.9,103.8H146v-0.6c-0.3,0.2-0.6,0.4-0.8,0.6c-0.3,0.1-0.6,0.2-0.9,0.2c-0.5,0-1-0.2-1.3-0.5c-0.3-0.3-0.5-0.9-0.5-1.5    v-3.5h0.9v3.1c0,0.3,0,0.5,0,0.7c0,0.2,0.1,0.4,0.2,0.5c0.1,0.1,0.2,0.2,0.3,0.3c0.1,0.1,0.3,0.1,0.6,0.1c0.2,0,0.5-0.1,0.7-0.2    c0.3-0.1,0.5-0.3,0.7-0.5v-4.1h0.9V103.8z"/>
	</g>
	<g>
		<path d="M155.7,65.8h-5.4v-0.9l4.2-5.5h-4.1v-0.9h5.1v0.9l-4.3,5.5h4.4V65.8z"/>
		<path d="M158,59.4h-1v-1h1V59.4z M157.9,65.8h-0.9v-5.5h0.9V65.8z"/>
		<path d="M163.4,65.8h-4.2v-0.7l3-4h-2.9v-0.8h4V61l-3,4h3.1V65.8z"/>
		<path d="M168.9,65.8H168v-0.6c-0.3,0.2-0.6,0.4-0.8,0.6c-0.3,0.1-0.6,0.2-0.9,0.2c-0.5,0-1-0.2-1.3-0.5c-0.3-0.3-0.5-0.9-0.5-1.5    v-3.5h0.9v3.1c0,0.3,0,0.5,0,0.7c0,0.2,0.1,0.4,0.2,0.5c0.1,0.1,0.2,0.2,0.3,0.3c0.1,0.1,0.3,0.1,0.6,0.1c0.2,0,0.5-0.1,0.7-0.2    c0.3-0.1,0.5-0.3,0.7-0.5v-4.1h0.9V65.8z"/>
		<path d="M173.8,61.3L173.8,61.3c-0.2,0-0.3-0.1-0.4-0.1c-0.1,0-0.3,0-0.4,0c-0.3,0-0.5,0.1-0.8,0.2c-0.2,0.1-0.5,0.3-0.7,0.5v3.9    h-0.9v-5.5h0.9v0.8c0.3-0.3,0.6-0.5,0.9-0.6s0.5-0.2,0.8-0.2c0.2,0,0.3,0,0.3,0c0.1,0,0.2,0,0.3,0V61.3z"/>
		<path d="M179.3,65.8h-1.1l-2.1-2.4l-0.6,0.6v1.8h-0.9v-7.6h0.9V63l2.5-2.7h1.1l-2.4,2.5L179.3,65.8z"/>
		<path d="M181.1,59.4h-1v-1h1V59.4z M181.1,65.8h-0.9v-5.5h0.9V65.8z"/>
		<path d="M183.7,65.8h-0.9v-7.6h0.9V65.8z"/>
	</g>
	<g>
	</g>
	<g>
	</g>
	<g>
	</g>
	<g>
	</g>
	<g>
	</g>
	<g>
	</g>
	<g>
	</g>
	<g>
	</g>
	<g>
	</g>
	<g>
	</g>
	<g>
	</g>
	<g>
	</g>
</g>
</svg>